<?xml version="1.0" encoding="utf-8"?>
<!-- Generator: Adobe Illustrator 14.0.0, SVG Export Plug-In . SVG Version: 6.00 Build 43363)  -->
<!DOCTYPE svg PUBLIC "-//W3C//DTD SVG 1.1//EN" "http://www.w3.org/Graphics/SVG/1.1/DTD/svg11.dtd">
<svg version="1.1" id="图层_1" xmlns="http://www.w3.org/2000/svg" xmlns:xlink="http://www.w3.org/1999/xlink" x="0px" y="0px"
	 width="55.648px" height="106.502px" viewBox="0 0 55.648 106.502" enable-background="new 0 0 55.648 106.502"
	 xml:space="preserve">
<path stroke="#000000" stroke-width="2" d="M9.915,97.333h35.82V98.4H9.915V97.333z"/>
<path stroke="#000000" stroke-width="2" d="M12.793,32.73h29.743v1.386H12.793V32.73z"/>
<path fill="#E5E5E5" stroke="#000000" stroke-width="2" d="M7.996,2.986h39.658V32.73H7.996V2.986z"/>
<path fill="#E5E5E5" stroke="#000000" stroke-width="2" d="M12.793,34.115h29.743v53.09H12.793V34.115z"/>
<path fill="#E5E5E5" stroke="#000000" stroke-width="2" d="M2.985,87.205h49.679v10.128H2.985V87.205z"/>
<path fill="#666666" stroke="#000000" stroke-width="2" d="M10.874,5.331h33.581v19.402H10.874V5.331z"/>
<path fill="#CCCCCC" stroke="#000000" stroke-width="2" d="M2.985,97.333h6.93v2.878h-6.93V97.333z"/>
<path fill="#CCCCCC" stroke="#000000" stroke-width="2" d="M2.985,100.211h6.93v3.198h-6.93V100.211z"/>
<path fill="#CCCCCC" stroke="#000000" stroke-width="2" d="M45.734,97.333h6.93v2.878h-6.93V97.333z"/>
<path fill="#CCCCCC" stroke="#000000" stroke-width="2" d="M45.734,100.211h6.93v3.198h-6.93V100.211z"/>
<path fill="#B2B2B2" stroke="#000000" stroke-width="2" d="M32.195,10.448h2.879v1.813h-2.879V10.448z"/>
<path fill="#B2B2B2" stroke="#000000" stroke-width="2" d="M32.195,13.007h2.879v1.919h-2.879V13.007z"/>
<path fill="#B2B2B2" stroke="#000000" stroke-width="2" d="M32.195,15.672h2.879v1.919h-2.879V15.672z"/>
<path fill="#B2B2B2" stroke="#000000" stroke-width="2" d="M32.195,18.444h2.879v1.813h-2.879V18.444z"/>
<path fill="#7F7F7F" stroke="#000000" stroke-width="2" d="M27.718,10.448h3.092v1.813h-3.092V10.448z"/>
<path fill="#7F7F7F" stroke="#000000" stroke-width="2" d="M30.81,14.607h-3.092v-1.813h3.092V14.607z"/>
<path fill="#7F7F7F" stroke="#000000" stroke-width="2" d="M27.718,18.444h3.092v1.813h-3.092V18.444z"/>
<path fill="#7F7F7F" stroke="#000000" stroke-width="2" d="M20.789,18.444h3.198v1.813h-3.198V18.444z"/>
<path fill="#7F7F7F" stroke="#000000" stroke-width="2" d="M36.459,14.18h5.012v2.345h-5.012V14.18z"/>
<path fill="#E5E5E5" stroke="#000000" stroke-width="2" d="M28.464,12.048l0.853-1.387l0.746,1.387H28.464z"/>
<path fill="#E5E5E5" stroke="#000000" stroke-width="2" d="M30.063,13.007l-0.746,1.386l-0.853-1.386H30.063z"/>
<path fill="#CCCCCC" stroke="#000000" stroke-width="2" d="M14.179,18.444h3.092v1.813h-3.092V18.444z"/>
<path fill="#CCCCCC" stroke="#000000" stroke-width="2" d="M36.459,10.448h5.012v2.346h-5.012V10.448z"/>
<path fill="#CCCCCC" stroke="#000000" stroke-width="2" d="M36.459,17.804h5.012v2.452h-5.012V17.804z"/>
<path fill="#999999" stroke="#000000" stroke-width="2" d="M25.799,10.448h-11.62v5.011h11.62V10.448z"/>
<path fill="#D9D9D9" d="M13.646,41.471h28.357v-7.355H13.646V41.471z"/>
</svg>
