<?xml version="1.0" encoding="utf-8"?>
<!-- Generator: Adobe Illustrator 14.0.0, SVG Export Plug-In . SVG Version: 6.00 Build 43363)  -->
<!DOCTYPE svg PUBLIC "-//W3C//DTD SVG 1.1//EN" "http://www.w3.org/Graphics/SVG/1.1/DTD/svg11.dtd">
<svg version="1.1" id="图层_1" xmlns="http://www.w3.org/2000/svg" xmlns:xlink="http://www.w3.org/1999/xlink" x="0px" y="0px"
	 width="110.945px" height="106.502px" viewBox="0 0 110.945 106.502" enable-background="new 0 0 110.945 106.502"
	 xml:space="preserve">
<path fill="#333333" stroke="#000000" stroke-width="2" d="M3.11,12.993h21.322v-2.11H3.11V12.993z"/>
<path fill="#7F7F7F" stroke="#000000" stroke-width="2" d="M4.22,20.545h18.991v1.222H4.22V20.545z"/>
<path fill="#7F7F7F" stroke="#000000" stroke-width="2" d="M11.772,30.429h3.776v57.749h-3.776V30.429z"/>
<path fill="#B2B2B2" stroke="#000000" stroke-width="2" d="M4.22,20.545h18.991V3.11H4.22V20.545z"/>
<path fill="#4C4C4C" stroke="#000000" stroke-width="2" d="M9.218,36.649h2.554v2.554H9.218V36.649z"/>
<path fill="#999999" d="M12.994,30.429h1.444v57.749h-1.444V30.429z"/>
<path fill="#B2B2B2" d="M13.549,30.429h0.333v57.749h-0.333V30.429z"/>
<path fill="#4C4C4C" stroke="#000000" stroke-width="2" d="M99.617,92.62h8.107v10.772h-8.107V92.62z"/>
<path fill="#4C4C4C" stroke="#000000" stroke-width="2" d="M8.663,92.62h8.107v10.772H8.663V92.62z"/>
<path fill="#B2B2B2" stroke="#000000" stroke-width="2" d="M99.617,92.62h6.664v9.329h-6.664V92.62z"/>
<path fill="#B2B2B2" stroke="#000000" stroke-width="2" d="M10.106,92.62h6.664v9.329h-6.664V92.62z"/>
<path fill="#E5E5E5" stroke="#000000" stroke-width="2" d="M99.617,96.951H16.77v6.441h82.847V96.951z"/>
<path fill="#B2B2B2" stroke="#000000" stroke-width="2" d="M99.617,96.951H16.77v-1.11h82.847V96.951z"/>
<path fill="#4C4C4C" stroke="#000000" stroke-width="2" d="M14.993,92.62v-2.665h-4.331v-1.777h6.108v4.442H14.993z"/>
<path fill="#999999" d="M3.11,30.429h21.322v-3.775H3.11V30.429z"/>
<path fill="#B2B2B2" d="M6.33,30.429h14.882v-3.775H6.33V30.429z"/>
<path fill="#CCCCCC" d="M10.662,30.429h6.108v-3.775h-6.108V30.429z"/>
<path fill="none" stroke="#000000" stroke-width="2" d="M3.11,30.429h21.322v-3.775H3.11V30.429"/>
<path fill="#4C4C4C" stroke="#000000" stroke-width="2" d="M23.211,30.429h1.221V18.546h-1.221V30.429z"/>
<path fill="#4C4C4C" stroke="#000000" stroke-width="2" d="M3.11,30.429h1.11V18.546H3.11V30.429z"/>
<path fill="#CCCCCC" stroke="#000000" stroke-width="2" d="M5.664,23.544H19.99v3.109H5.664V23.544z"/>
<path fill="#7F7F7F" stroke="#000000" stroke-width="2" d="M6.886,23.766h11.883v1.777H6.886V23.766z"/>
<path fill="#333333" stroke="#000000" stroke-width="2" d="M11.772,23.544h2.11v-1.777h-2.11V23.544z"/>
<path fill="#333333" stroke="#000000" stroke-width="2" d="M14.993,23.544h0.555v-1.777h-0.555V23.544z"/>
<path fill="#333333" stroke="#000000" stroke-width="2" d="M10.106,23.544h0.556v-1.777h-0.556V23.544z"/>
<path fill="#666666" stroke="#000000" stroke-width="2" d="M6.33,5.442h14.882v13.104H6.33V5.442z"/>
<path fill="#CCCCCC" stroke="#000000" stroke-width="2" d="M9.218,5.997h9.329v4.886H9.218V5.997z"/>
<path fill="#333333" stroke="#000000" stroke-width="2" d="M18.213,14.104h2.332v1.444h-2.332V14.104z"/>
<path fill="#E5E5E5" stroke="#000000" stroke-width="2" d="M18.213,11.772h2.332v1.777h-2.332V11.772z"/>
<path fill="#E5E5E5" stroke="#000000" stroke-width="2" d="M15.548,11.772h2.443v1.777h-2.443V11.772z"/>
<path fill="#E5E5E5" stroke="#000000" stroke-width="2" d="M15.548,14.104h2.443v1.444h-2.443V14.104z"/>
<path fill="#E5E5E5" stroke="#000000" stroke-width="2" d="M7.441,11.772h2.332v1.777H7.441V11.772z"/>
<path fill="#E5E5E5" stroke="#000000" stroke-width="2" d="M7.441,14.104h2.332v1.444H7.441V14.104z"/>
<path fill="#E5E5E5" stroke="#000000" stroke-width="2" d="M7.441,16.214h2.332v1.777H7.441V16.214z"/>
<path fill="#E5E5E5" stroke="#000000" stroke-width="2" d="M15.548,16.214h2.443v1.777h-2.443V16.214z"/>
<path fill="#E5E5E5" stroke="#000000" stroke-width="2" d="M18.213,16.214h2.332v1.777h-2.332V16.214z"/>
<path fill="#999999" stroke="#000000" stroke-width="2" d="M13.549,15.325v-2.332h1.444v2.332H13.549z"/>
<path fill="#999999" stroke="#000000" stroke-width="2" d="M11.772,15.325v-2.332h1.777v2.332H11.772z"/>
<path fill="#999999" stroke="#000000" stroke-width="2" d="M10.106,15.325v-2.332h1.666v2.332H10.106z"/>
<path fill="#999999" stroke="#000000" stroke-width="2" d="M10.106,17.324v-2.332h1.666v2.332H10.106z"/>
<path fill="#999999" stroke="#000000" stroke-width="2" d="M11.772,17.324v-2.332h1.777v2.332H11.772z"/>
<path fill="#999999" stroke="#000000" stroke-width="2" d="M13.549,17.324v-2.332h1.444v2.332H13.549z"/>
<path fill="#666666" d="M38.092,24.988h38.203v69.965H38.092V24.988z"/>
<path fill="#7F7F7F" d="M42.423,24.988h29.43v69.965h-29.43V24.988z"/>
<path fill="#999999" d="M49.975,24.988h14.326v69.965H49.975V24.988z"/>
<path fill="#B2B2B2" d="M54.973,24.988h4.443v69.965h-4.443V24.988z"/>
<path fill="none" stroke="#000000" stroke-width="2" d="M38.092,24.988h38.203v69.965H38.092V24.988"/>
<path fill="#4C4C4C" stroke="#000000" stroke-width="2" d="M35.76,93.176h42.534v1.776H35.76V93.176z"/>
<path fill="#4C4C4C" stroke="#000000" stroke-width="2" d="M35.76,70.187h42.534v1.666H35.76V70.187z"/>
<path fill="#4C4C4C" stroke="#000000" stroke-width="2" d="M35.76,46.199h42.534v1.776H35.76V46.199z"/>
<path fill="#4C4C4C" stroke="#000000" stroke-width="2" d="M35.76,24.988h42.534v1.666H35.76V24.988z"/>
</svg>
