<?xml version="1.0" encoding="utf-8"?>
<!-- Generator: Adobe Illustrator 14.0.0, SVG Export Plug-In . SVG Version: 6.00 Build 43363)  -->
<!DOCTYPE svg PUBLIC "-//W3C//DTD SVG 1.1//EN" "http://www.w3.org/Graphics/SVG/1.1/DTD/svg11.dtd">
<svg version="1.1" id="图层_1" xmlns="http://www.w3.org/2000/svg" xmlns:xlink="http://www.w3.org/1999/xlink" x="0px" y="0px"
	 width="10.447px" height="106.502px" viewBox="0 0 10.447 106.502" enable-background="new 0 0 10.447 106.502"
	 xml:space="preserve">
<path fill="none" stroke="#000000" stroke-width="2" d="M2.985,59.914h1.065"/>
<path fill="none" stroke="#000000" stroke-width="2" d="M2.985,65.457h1.065"/>
<path fill="none" stroke="#000000" stroke-width="2" d="M2.985,71.108h1.065"/>
<path fill="none" stroke="#000000" stroke-width="2" d="M2.985,76.651h1.065"/>
<path fill="none" stroke="#000000" stroke-width="2" d="M2.985,82.195h1.065"/>
<path fill="none" stroke="#000000" stroke-width="2" d="M2.985,87.844h1.065"/>
<path fill="none" stroke="#000000" stroke-width="2" d="M2.985,93.388h1.065"/>
<path fill="none" stroke="#000000" stroke-width="2" d="M2.985,98.931h1.065"/>
<path fill="none" stroke="#000000" stroke-width="2" d="M2.985,61.086h1.065"/>
<path fill="none" stroke="#000000" stroke-width="2" d="M2.985,66.63h1.065"/>
<path fill="none" stroke="#000000" stroke-width="2" d="M2.985,72.173h1.065"/>
<path fill="none" stroke="#000000" stroke-width="2" d="M2.985,77.717h1.065"/>
<path fill="none" stroke="#000000" stroke-width="2" d="M2.985,83.366h1.065"/>
<path fill="none" stroke="#000000" stroke-width="2" d="M2.985,88.91h1.065"/>
<path fill="none" stroke="#000000" stroke-width="2" d="M2.985,94.453h1.065"/>
<path fill="none" stroke="#000000" stroke-width="2" d="M2.985,100.104h1.065"/>
<path fill="none" stroke="#000000" stroke-width="2" d="M2.985,62.153h1.065"/>
<path fill="none" stroke="#000000" stroke-width="2" d="M2.985,67.697h1.065"/>
<path fill="none" stroke="#000000" stroke-width="2" d="M2.985,73.24h1.065"/>
<path fill="none" stroke="#000000" stroke-width="2" d="M2.985,78.89h1.065"/>
<path fill="none" stroke="#000000" stroke-width="2" d="M2.985,84.433h1.065"/>
<path fill="none" stroke="#000000" stroke-width="2" d="M2.985,90.083h1.065"/>
<path fill="none" stroke="#000000" stroke-width="2" d="M2.985,95.626h1.065"/>
<path fill="none" stroke="#000000" stroke-width="2" d="M2.985,101.17h1.065"/>
<path fill="none" stroke="#000000" stroke-width="2" d="M2.985,63.325h1.065"/>
<path fill="none" stroke="#000000" stroke-width="2" d="M2.985,68.868h1.065"/>
<path fill="none" stroke="#000000" stroke-width="2" d="M2.985,74.412h1.065"/>
<path fill="none" stroke="#000000" stroke-width="2" d="M2.985,79.955h1.065"/>
<path fill="none" stroke="#000000" stroke-width="2" d="M2.985,85.606h1.065"/>
<path fill="none" stroke="#000000" stroke-width="2" d="M2.985,91.149h1.065"/>
<path fill="none" stroke="#000000" stroke-width="2" d="M2.985,96.693h1.065"/>
<path fill="none" stroke="#000000" stroke-width="2" d="M2.985,102.342h1.065"/>
<path fill="none" stroke="#000000" stroke-width="2" d="M2.985,64.391h4.478"/>
<path fill="none" stroke="#000000" stroke-width="2" d="M2.985,69.935h4.478"/>
<path fill="none" stroke="#000000" stroke-width="2" d="M2.985,75.478h4.478"/>
<path fill="none" stroke="#000000" stroke-width="2" d="M2.985,81.128h4.478"/>
<path fill="none" stroke="#000000" stroke-width="2" d="M2.985,86.671h4.478"/>
<path fill="none" stroke="#000000" stroke-width="2" d="M2.985,92.322h4.478"/>
<path fill="none" stroke="#000000" stroke-width="2" d="M2.985,97.865h4.478"/>
<path fill="none" stroke="#000000" stroke-width="2" d="M2.985,103.408h4.478"/>
<path fill="none" stroke="#000000" stroke-width="2" d="M2.985,59.381h1.065"/>
<path fill="none" stroke="#000000" stroke-width="2" d="M2.985,64.924h1.065"/>
<path fill="none" stroke="#000000" stroke-width="2" d="M2.985,70.468h1.065"/>
<path fill="none" stroke="#000000" stroke-width="2" d="M2.985,76.117h1.065"/>
<path fill="none" stroke="#000000" stroke-width="2" d="M2.985,81.661h1.065"/>
<path fill="none" stroke="#000000" stroke-width="2" d="M2.985,87.204h1.065"/>
<path fill="none" stroke="#000000" stroke-width="2" d="M2.985,92.855h1.065"/>
<path fill="none" stroke="#000000" stroke-width="2" d="M2.985,98.398h1.065"/>
<path fill="none" stroke="#000000" stroke-width="2" d="M2.985,60.447h1.065"/>
<path fill="none" stroke="#000000" stroke-width="2" d="M2.985,65.99h1.065"/>
<path fill="none" stroke="#000000" stroke-width="2" d="M2.985,71.641h1.065"/>
<path fill="none" stroke="#000000" stroke-width="2" d="M2.985,77.184h1.065"/>
<path fill="none" stroke="#000000" stroke-width="2" d="M2.985,82.834h1.065"/>
<path fill="none" stroke="#000000" stroke-width="2" d="M2.985,88.377h1.065"/>
<path fill="none" stroke="#000000" stroke-width="2" d="M2.985,93.921h1.065"/>
<path fill="none" stroke="#000000" stroke-width="2" d="M2.985,99.571h1.065"/>
<path fill="none" stroke="#000000" stroke-width="2" d="M2.985,61.619h2.238"/>
<path fill="none" stroke="#000000" stroke-width="2" d="M2.985,67.163h2.238"/>
<path fill="none" stroke="#000000" stroke-width="2" d="M2.985,72.706h2.238"/>
<path fill="none" stroke="#000000" stroke-width="2" d="M2.985,78.357h2.238"/>
<path fill="none" stroke="#000000" stroke-width="2" d="M2.985,83.9h2.238"/>
<path fill="none" stroke="#000000" stroke-width="2" d="M2.985,89.444h2.238"/>
<path fill="none" stroke="#000000" stroke-width="2" d="M2.985,95.093h2.238"/>
<path fill="none" stroke="#000000" stroke-width="2" d="M2.985,100.637h2.238"/>
<path fill="none" stroke="#000000" stroke-width="2" d="M4.051,62.686H2.985"/>
<path fill="none" stroke="#000000" stroke-width="2" d="M4.051,68.229H2.985"/>
<path fill="none" stroke="#000000" stroke-width="2" d="M4.051,73.879H2.985"/>
<path fill="none" stroke="#000000" stroke-width="2" d="M4.051,79.422H2.985"/>
<path fill="none" stroke="#000000" stroke-width="2" d="M4.051,84.966H2.985"/>
<path fill="none" stroke="#000000" stroke-width="2" d="M4.051,90.615H2.985"/>
<path fill="none" stroke="#000000" stroke-width="2" d="M4.051,96.159H2.985"/>
<path fill="none" stroke="#000000" stroke-width="2" d="M4.051,101.81H2.985"/>
<path fill="none" stroke="#000000" stroke-width="2" d="M2.985,63.859h1.065"/>
<path fill="none" stroke="#000000" stroke-width="2" d="M2.985,69.402h1.065"/>
<path fill="none" stroke="#000000" stroke-width="2" d="M2.985,74.946h1.065"/>
<path fill="none" stroke="#000000" stroke-width="2" d="M2.985,80.595h1.065"/>
<path fill="none" stroke="#000000" stroke-width="2" d="M2.985,86.139h1.065"/>
<path fill="none" stroke="#000000" stroke-width="2" d="M2.985,91.682h1.065"/>
<path fill="none" stroke="#000000" stroke-width="2" d="M2.985,97.332h1.065"/>
<path fill="none" stroke="#000000" stroke-width="2" d="M2.985,102.875h1.065"/>
<path fill="none" stroke="#000000" stroke-width="2" d="M2.985,2.988h4.478"/>
<path fill="none" stroke="#000000" stroke-width="2" d="M2.985,58.848h4.478"/>
<path fill="none" stroke="#000000" stroke-width="2" d="M2.985,4.053h1.065"/>
<path fill="none" stroke="#000000" stroke-width="2" d="M2.985,9.597h1.065"/>
<path fill="none" stroke="#000000" stroke-width="2" d="M2.985,15.247h1.065"/>
<path fill="none" stroke="#000000" stroke-width="2" d="M2.985,20.79h1.065"/>
<path fill="none" stroke="#000000" stroke-width="2" d="M2.985,26.333h1.065"/>
<path fill="none" stroke="#000000" stroke-width="2" d="M2.985,31.984h1.065"/>
<path fill="none" stroke="#000000" stroke-width="2" d="M2.985,37.528h1.065"/>
<path fill="none" stroke="#000000" stroke-width="2" d="M2.985,43.071h1.065"/>
<path fill="none" stroke="#000000" stroke-width="2" d="M2.985,48.721h1.065"/>
<path fill="none" stroke="#000000" stroke-width="2" d="M2.985,54.264h1.065"/>
<path fill="none" stroke="#000000" stroke-width="2" d="M2.985,5.226h1.065"/>
<path fill="none" stroke="#000000" stroke-width="2" d="M2.985,10.77h1.065"/>
<path fill="none" stroke="#000000" stroke-width="2" d="M2.985,16.313h1.065"/>
<path fill="none" stroke="#000000" stroke-width="2" d="M2.985,21.857h1.065"/>
<path fill="none" stroke="#000000" stroke-width="2" d="M2.985,27.506h1.065"/>
<path fill="none" stroke="#000000" stroke-width="2" d="M2.985,33.05h1.065"/>
<path fill="none" stroke="#000000" stroke-width="2" d="M2.985,38.593h1.065"/>
<path fill="none" stroke="#000000" stroke-width="2" d="M2.985,44.243h1.065"/>
<path fill="none" stroke="#000000" stroke-width="2" d="M2.985,49.786h1.065"/>
<path fill="none" stroke="#000000" stroke-width="2" d="M2.985,55.437h1.065"/>
<path fill="none" stroke="#000000" stroke-width="2" d="M2.985,6.292h1.065"/>
<path fill="none" stroke="#000000" stroke-width="2" d="M2.985,11.835h1.065"/>
<path fill="none" stroke="#000000" stroke-width="2" d="M2.985,17.379h1.065"/>
<path fill="none" stroke="#000000" stroke-width="2" d="M2.985,23.029h1.065"/>
<path fill="none" stroke="#000000" stroke-width="2" d="M2.985,28.573h1.065"/>
<path fill="none" stroke="#000000" stroke-width="2" d="M2.985,34.222h1.065"/>
<path fill="none" stroke="#000000" stroke-width="2" d="M2.985,39.766h1.065"/>
<path fill="none" stroke="#000000" stroke-width="2" d="M2.985,45.309h1.065"/>
<path fill="none" stroke="#000000" stroke-width="2" d="M2.985,50.959h1.065"/>
<path fill="none" stroke="#000000" stroke-width="2" d="M2.985,56.502h1.065"/>
<path fill="none" stroke="#000000" stroke-width="2" d="M2.985,7.465h1.065"/>
<path fill="none" stroke="#000000" stroke-width="2" d="M2.985,13.008h1.065"/>
<path fill="none" stroke="#000000" stroke-width="2" d="M2.985,18.552h1.065"/>
<path fill="none" stroke="#000000" stroke-width="2" d="M2.985,24.095h1.065"/>
<path fill="none" stroke="#000000" stroke-width="2" d="M2.985,29.745h1.065"/>
<path fill="none" stroke="#000000" stroke-width="2" d="M2.985,35.288h1.065"/>
<path fill="none" stroke="#000000" stroke-width="2" d="M2.985,40.832h1.065"/>
<path fill="none" stroke="#000000" stroke-width="2" d="M2.985,46.482h1.065"/>
<path fill="none" stroke="#000000" stroke-width="2" d="M2.985,52.026h1.065"/>
<path fill="none" stroke="#000000" stroke-width="2" d="M2.985,57.569h1.065"/>
<path fill="none" stroke="#000000" stroke-width="2" d="M2.985,8.531h4.478"/>
<path fill="none" stroke="#000000" stroke-width="2" d="M2.985,14.074h4.478"/>
<path fill="none" stroke="#000000" stroke-width="2" d="M2.985,19.617h4.478"/>
<path fill="none" stroke="#000000" stroke-width="2" d="M2.985,25.268h4.478"/>
<path fill="none" stroke="#000000" stroke-width="2" d="M2.985,30.811h4.478"/>
<path fill="none" stroke="#000000" stroke-width="2" d="M2.985,36.461h4.478"/>
<path fill="none" stroke="#000000" stroke-width="2" d="M2.985,42.004h4.478"/>
<path fill="none" stroke="#000000" stroke-width="2" d="M2.985,47.548h4.478"/>
<path fill="none" stroke="#000000" stroke-width="2" d="M2.985,53.198h4.478"/>
<path fill="none" stroke="#000000" stroke-width="2" d="M2.985,3.521h1.065"/>
<path fill="none" stroke="#000000" stroke-width="2" d="M2.985,9.064h1.065"/>
<path fill="none" stroke="#000000" stroke-width="2" d="M2.985,14.608h1.065"/>
<path fill="none" stroke="#000000" stroke-width="2" d="M2.985,20.257h1.065"/>
<path fill="none" stroke="#000000" stroke-width="2" d="M2.985,25.801h1.065"/>
<path fill="none" stroke="#000000" stroke-width="2" d="M2.985,31.344h1.065"/>
<path fill="none" stroke="#000000" stroke-width="2" d="M2.985,36.994h1.065"/>
<path fill="none" stroke="#000000" stroke-width="2" d="M2.985,42.537h1.065"/>
<path fill="none" stroke="#000000" stroke-width="2" d="M2.985,48.081h1.065"/>
<path fill="none" stroke="#000000" stroke-width="2" d="M2.985,53.731h1.065"/>
<path fill="none" stroke="#000000" stroke-width="2" d="M2.985,4.586h1.065"/>
<path fill="none" stroke="#000000" stroke-width="2" d="M2.985,10.13h1.065"/>
<path fill="none" stroke="#000000" stroke-width="2" d="M2.985,15.78h1.065"/>
<path fill="none" stroke="#000000" stroke-width="2" d="M2.985,21.323h1.065"/>
<path fill="none" stroke="#000000" stroke-width="2" d="M2.985,26.866h1.065"/>
<path fill="none" stroke="#000000" stroke-width="2" d="M2.985,32.517h1.065"/>
<path fill="none" stroke="#000000" stroke-width="2" d="M2.985,38.06h1.065"/>
<path fill="none" stroke="#000000" stroke-width="2" d="M2.985,43.71h1.065"/>
<path fill="none" stroke="#000000" stroke-width="2" d="M2.985,49.253h1.065"/>
<path fill="none" stroke="#000000" stroke-width="2" d="M2.985,54.797h1.065"/>
<path fill="none" stroke="#000000" stroke-width="2" d="M2.985,5.759h2.238"/>
<path fill="none" stroke="#000000" stroke-width="2" d="M2.985,11.303h2.238"/>
<path fill="none" stroke="#000000" stroke-width="2" d="M2.985,16.846h2.238"/>
<path fill="none" stroke="#000000" stroke-width="2" d="M2.985,22.496h2.238"/>
<path fill="none" stroke="#000000" stroke-width="2" d="M2.985,28.039h2.238"/>
<path fill="none" stroke="#000000" stroke-width="2" d="M2.985,33.582h2.238"/>
<path fill="none" stroke="#000000" stroke-width="2" d="M2.985,39.233h2.238"/>
<path fill="none" stroke="#000000" stroke-width="2" d="M2.985,44.777h2.238"/>
<path fill="none" stroke="#000000" stroke-width="2" d="M2.985,50.32h2.238"/>
<path fill="none" stroke="#000000" stroke-width="2" d="M2.985,55.97h2.238"/>
<path fill="none" stroke="#000000" stroke-width="2" d="M4.051,6.825H2.985"/>
<path fill="none" stroke="#000000" stroke-width="2" d="M4.051,12.368H2.985"/>
<path fill="none" stroke="#000000" stroke-width="2" d="M4.051,18.019H2.985"/>
<path fill="none" stroke="#000000" stroke-width="2" d="M4.051,23.562H2.985"/>
<path fill="none" stroke="#000000" stroke-width="2" d="M4.051,29.106H2.985"/>
<path fill="none" stroke="#000000" stroke-width="2" d="M4.051,34.755H2.985"/>
<path fill="none" stroke="#000000" stroke-width="2" d="M4.051,40.299H2.985"/>
<path fill="none" stroke="#000000" stroke-width="2" d="M4.051,45.948H2.985"/>
<path fill="none" stroke="#000000" stroke-width="2" d="M4.051,51.492H2.985"/>
<path fill="none" stroke="#000000" stroke-width="2" d="M4.051,57.035H2.985"/>
<path fill="none" stroke="#000000" stroke-width="2" d="M2.985,7.997h1.065"/>
<path fill="none" stroke="#000000" stroke-width="2" d="M2.985,13.541h1.065"/>
<path fill="none" stroke="#000000" stroke-width="2" d="M2.985,19.084h1.065"/>
<path fill="none" stroke="#000000" stroke-width="2" d="M2.985,24.735h1.065"/>
<path fill="none" stroke="#000000" stroke-width="2" d="M2.985,30.278h1.065"/>
<path fill="none" stroke="#000000" stroke-width="2" d="M2.985,35.822h1.065"/>
<path fill="none" stroke="#000000" stroke-width="2" d="M2.985,41.472h1.065"/>
<path fill="none" stroke="#000000" stroke-width="2" d="M2.985,47.015h1.065"/>
<path fill="none" stroke="#000000" stroke-width="2" d="M2.985,52.558h1.065"/>
<path fill="none" stroke="#000000" stroke-width="2" d="M2.985,58.208h1.065"/>
</svg>
