<?xml version="1.0" encoding="utf-8"?>
<!-- Generator: Adobe Illustrator 14.0.0, SVG Export Plug-In . SVG Version: 6.00 Build 43363)  -->
<!DOCTYPE svg PUBLIC "-//W3C//DTD SVG 1.1//EN" "http://www.w3.org/Graphics/SVG/1.1/DTD/svg11.dtd">
<svg version="1.1" id="图层_1" xmlns="http://www.w3.org/2000/svg" xmlns:xlink="http://www.w3.org/1999/xlink" x="0px" y="0px"
	 width="11.729px" height="106.502px" viewBox="0 0 11.729 106.502" enable-background="new 0 0 11.729 106.502"
	 xml:space="preserve">
<path fill="none" stroke="#000000" stroke-width="2" d="M2.986,81.876h5.757"/>
<path fill="none" stroke="#000000" stroke-width="2" d="M2.986,89.125h5.757"/>
<path fill="none" stroke="#000000" stroke-width="2" d="M2.986,96.268h5.757"/>
<path fill="none" stroke="#000000" stroke-width="2" d="M2.986,103.41h5.757"/>
<path fill="none" stroke="#000000" stroke-width="2" d="M4.372,75.479h2.879"/>
<path fill="none" stroke="#000000" stroke-width="2" d="M4.372,82.622h2.879"/>
<path fill="none" stroke="#000000" stroke-width="2" d="M4.372,89.765h2.879"/>
<path fill="none" stroke="#000000" stroke-width="2" d="M4.372,97.014h2.879"/>
<path fill="none" stroke="#000000" stroke-width="2" d="M4.372,76.226h2.879"/>
<path fill="none" stroke="#000000" stroke-width="2" d="M4.372,83.368h2.879"/>
<path fill="none" stroke="#000000" stroke-width="2" d="M4.372,90.511h2.879"/>
<path fill="none" stroke="#000000" stroke-width="2" d="M4.372,97.654h2.879"/>
<path fill="none" stroke="#000000" stroke-width="2" d="M4.372,76.972h2.879"/>
<path fill="none" stroke="#000000" stroke-width="2" d="M4.372,84.008h2.879"/>
<path fill="none" stroke="#000000" stroke-width="2" d="M4.372,91.257h2.879"/>
<path fill="none" stroke="#000000" stroke-width="2" d="M4.372,98.4h2.879"/>
<path fill="none" stroke="#000000" stroke-width="2" d="M4.372,77.612h2.879"/>
<path fill="none" stroke="#000000" stroke-width="2" d="M4.372,84.754h2.879"/>
<path fill="none" stroke="#000000" stroke-width="2" d="M4.372,92.003h2.879"/>
<path fill="none" stroke="#000000" stroke-width="2" d="M4.372,99.147h2.879"/>
<path fill="none" stroke="#000000" stroke-width="2" d="M4.372,78.358h2.879"/>
<path fill="none" stroke="#000000" stroke-width="2" d="M4.372,85.5h2.879"/>
<path fill="none" stroke="#000000" stroke-width="2" d="M4.372,92.643h2.879"/>
<path fill="none" stroke="#000000" stroke-width="2" d="M4.372,99.893h2.879"/>
<path fill="none" stroke="#000000" stroke-width="2" d="M4.372,79.104h2.879"/>
<path fill="none" stroke="#000000" stroke-width="2" d="M4.372,86.246h2.879"/>
<path fill="none" stroke="#000000" stroke-width="2" d="M4.372,93.39h2.879"/>
<path fill="none" stroke="#000000" stroke-width="2" d="M4.372,100.532h2.879"/>
<path fill="none" stroke="#000000" stroke-width="2" d="M4.372,79.85h2.879"/>
<path fill="none" stroke="#000000" stroke-width="2" d="M4.372,86.886h2.879"/>
<path fill="none" stroke="#000000" stroke-width="2" d="M4.372,94.136h2.879"/>
<path fill="none" stroke="#000000" stroke-width="2" d="M4.372,101.279h2.879"/>
<path fill="none" stroke="#000000" stroke-width="2" d="M4.372,80.49h2.879"/>
<path fill="none" stroke="#000000" stroke-width="2" d="M4.372,87.633h2.879"/>
<path fill="none" stroke="#000000" stroke-width="2" d="M4.372,94.776h2.879"/>
<path fill="none" stroke="#000000" stroke-width="2" d="M4.372,102.025h2.879"/>
<path fill="none" stroke="#000000" stroke-width="2" d="M4.372,81.237h2.879"/>
<path fill="none" stroke="#000000" stroke-width="2" d="M4.372,88.379h2.879"/>
<path fill="none" stroke="#000000" stroke-width="2" d="M4.372,95.522h2.879"/>
<path fill="none" stroke="#000000" stroke-width="2" d="M4.372,102.664h2.879"/>
<path fill="none" stroke="#000000" stroke-width="2" d="M2.986,2.985h5.757"/>
<path fill="none" stroke="#000000" stroke-width="2" d="M2.986,74.733h5.757"/>
<path fill="none" stroke="#000000" stroke-width="2" d="M2.986,10.128h5.757"/>
<path fill="none" stroke="#000000" stroke-width="2" d="M2.986,17.271h5.757"/>
<path fill="none" stroke="#000000" stroke-width="2" d="M2.986,24.413h5.757"/>
<path fill="none" stroke="#000000" stroke-width="2" d="M2.986,31.663h5.757"/>
<path fill="none" stroke="#000000" stroke-width="2" d="M2.986,38.806h5.757"/>
<path fill="none" stroke="#000000" stroke-width="2" d="M2.986,45.948h5.757"/>
<path fill="none" stroke="#000000" stroke-width="2" d="M2.986,53.091h5.757"/>
<path fill="none" stroke="#000000" stroke-width="2" d="M2.986,60.341h5.757"/>
<path fill="none" stroke="#000000" stroke-width="2" d="M2.986,67.484h5.757"/>
<path fill="none" stroke="#000000" stroke-width="2" d="M4.372,3.732h2.879"/>
<path fill="none" stroke="#000000" stroke-width="2" d="M4.372,10.768h2.879"/>
<path fill="none" stroke="#000000" stroke-width="2" d="M4.372,18.017h2.879"/>
<path fill="none" stroke="#000000" stroke-width="2" d="M4.372,25.159h2.879"/>
<path fill="none" stroke="#000000" stroke-width="2" d="M4.372,32.303h2.879"/>
<path fill="none" stroke="#000000" stroke-width="2" d="M4.372,39.552h2.879"/>
<path fill="none" stroke="#000000" stroke-width="2" d="M4.372,46.695h2.879"/>
<path fill="none" stroke="#000000" stroke-width="2" d="M4.372,53.837h2.879"/>
<path fill="none" stroke="#000000" stroke-width="2" d="M4.372,61.087h2.879"/>
<path fill="none" stroke="#000000" stroke-width="2" d="M4.372,68.23h2.879"/>
<path fill="none" stroke="#000000" stroke-width="2" d="M4.372,4.371h2.879"/>
<path fill="none" stroke="#000000" stroke-width="2" d="M4.372,11.514h2.879"/>
<path fill="none" stroke="#000000" stroke-width="2" d="M4.372,18.656h2.879"/>
<path fill="none" stroke="#000000" stroke-width="2" d="M4.372,25.906h2.879"/>
<path fill="none" stroke="#000000" stroke-width="2" d="M4.372,33.049h2.879"/>
<path fill="none" stroke="#000000" stroke-width="2" d="M4.372,40.192h2.879"/>
<path fill="none" stroke="#000000" stroke-width="2" d="M4.372,47.441h2.879"/>
<path fill="none" stroke="#000000" stroke-width="2" d="M4.372,54.584h2.879"/>
<path fill="none" stroke="#000000" stroke-width="2" d="M4.372,61.727h2.879"/>
<path fill="none" stroke="#000000" stroke-width="2" d="M4.372,68.976h2.879"/>
<path fill="none" stroke="#000000" stroke-width="2" d="M4.372,5.117h2.879"/>
<path fill="none" stroke="#000000" stroke-width="2" d="M4.372,12.26h2.879"/>
<path fill="none" stroke="#000000" stroke-width="2" d="M4.372,19.403h2.879"/>
<path fill="none" stroke="#000000" stroke-width="2" d="M4.372,26.546h2.879"/>
<path fill="none" stroke="#000000" stroke-width="2" d="M4.372,33.795h2.879"/>
<path fill="none" stroke="#000000" stroke-width="2" d="M4.372,40.938h2.879"/>
<path fill="none" stroke="#000000" stroke-width="2" d="M4.372,48.08h2.879"/>
<path fill="none" stroke="#000000" stroke-width="2" d="M4.372,55.33h2.879"/>
<path fill="none" stroke="#000000" stroke-width="2" d="M4.372,62.473h2.879"/>
<path fill="none" stroke="#000000" stroke-width="2" d="M4.372,69.615h2.879"/>
<path fill="none" stroke="#000000" stroke-width="2" d="M4.372,5.864h2.879"/>
<path fill="none" stroke="#000000" stroke-width="2" d="M4.372,12.9h2.879"/>
<path fill="none" stroke="#000000" stroke-width="2" d="M4.372,20.149h2.879"/>
<path fill="none" stroke="#000000" stroke-width="2" d="M4.372,27.292h2.879"/>
<path fill="none" stroke="#000000" stroke-width="2" d="M4.372,34.435h2.879"/>
<path fill="none" stroke="#000000" stroke-width="2" d="M4.372,41.684h2.879"/>
<path fill="none" stroke="#000000" stroke-width="2" d="M4.372,48.827h2.879"/>
<path fill="none" stroke="#000000" stroke-width="2" d="M4.372,55.97h2.879"/>
<path fill="none" stroke="#000000" stroke-width="2" d="M4.372,63.219h2.879"/>
<path fill="none" stroke="#000000" stroke-width="2" d="M4.372,70.362h2.879"/>
<path fill="none" stroke="#000000" stroke-width="2" d="M4.372,6.503h2.879"/>
<path fill="none" stroke="#000000" stroke-width="2" d="M4.372,13.646h2.879"/>
<path fill="none" stroke="#000000" stroke-width="2" d="M4.372,20.896h2.879"/>
<path fill="none" stroke="#000000" stroke-width="2" d="M4.372,28.038h2.879"/>
<path fill="none" stroke="#000000" stroke-width="2" d="M4.372,35.181h2.879"/>
<path fill="none" stroke="#000000" stroke-width="2" d="M4.372,42.323h2.879"/>
<path fill="none" stroke="#000000" stroke-width="2" d="M4.372,49.573h2.879"/>
<path fill="none" stroke="#000000" stroke-width="2" d="M4.372,56.716h2.879"/>
<path fill="none" stroke="#000000" stroke-width="2" d="M4.372,63.859h2.879"/>
<path fill="none" stroke="#000000" stroke-width="2" d="M4.372,71.109h2.879"/>
<path fill="none" stroke="#000000" stroke-width="2" d="M4.372,7.249h2.879"/>
<path fill="none" stroke="#000000" stroke-width="2" d="M4.372,14.392h2.879"/>
<path fill="none" stroke="#000000" stroke-width="2" d="M4.372,21.535h2.879"/>
<path fill="none" stroke="#000000" stroke-width="2" d="M4.372,28.784h2.879"/>
<path fill="none" stroke="#000000" stroke-width="2" d="M4.372,35.927h2.879"/>
<path fill="none" stroke="#000000" stroke-width="2" d="M4.372,43.071h2.879"/>
<path fill="none" stroke="#000000" stroke-width="2" d="M4.372,50.32h2.879"/>
<path fill="none" stroke="#000000" stroke-width="2" d="M4.372,57.462h2.879"/>
<path fill="none" stroke="#000000" stroke-width="2" d="M4.372,64.605h2.879"/>
<path fill="none" stroke="#000000" stroke-width="2" d="M4.372,71.748h2.879"/>
<path fill="none" stroke="#000000" stroke-width="2" d="M4.372,7.995h2.879"/>
<path fill="none" stroke="#000000" stroke-width="2" d="M4.372,15.139h2.879"/>
<path fill="none" stroke="#000000" stroke-width="2" d="M4.372,22.281h2.879"/>
<path fill="none" stroke="#000000" stroke-width="2" d="M4.372,29.424h2.879"/>
<path fill="none" stroke="#000000" stroke-width="2" d="M4.372,36.673h2.879"/>
<path fill="none" stroke="#000000" stroke-width="2" d="M4.372,43.817h2.879"/>
<path fill="none" stroke="#000000" stroke-width="2" d="M4.372,50.959h2.879"/>
<path fill="none" stroke="#000000" stroke-width="2" d="M4.372,58.208h2.879"/>
<path fill="none" stroke="#000000" stroke-width="2" d="M4.372,65.352h2.879"/>
<path fill="none" stroke="#000000" stroke-width="2" d="M4.372,72.494h2.879"/>
<path fill="none" stroke="#000000" stroke-width="2" d="M4.372,8.742h2.879"/>
<path fill="none" stroke="#000000" stroke-width="2" d="M4.372,15.779h2.879"/>
<path fill="none" stroke="#000000" stroke-width="2" d="M4.372,23.028h2.879"/>
<path fill="none" stroke="#000000" stroke-width="2" d="M4.372,30.17h2.879"/>
<path fill="none" stroke="#000000" stroke-width="2" d="M4.372,37.313h2.879"/>
<path fill="none" stroke="#000000" stroke-width="2" d="M4.372,44.563h2.879"/>
<path fill="none" stroke="#000000" stroke-width="2" d="M4.372,51.705h2.879"/>
<path fill="none" stroke="#000000" stroke-width="2" d="M4.372,58.848h2.879"/>
<path fill="none" stroke="#000000" stroke-width="2" d="M4.372,66.098h2.879"/>
<path fill="none" stroke="#000000" stroke-width="2" d="M4.372,73.24h2.879"/>
<path fill="none" stroke="#000000" stroke-width="2" d="M4.372,9.382h2.879"/>
<path fill="none" stroke="#000000" stroke-width="2" d="M4.372,16.525h2.879"/>
<path fill="none" stroke="#000000" stroke-width="2" d="M4.372,23.667h2.879"/>
<path fill="none" stroke="#000000" stroke-width="2" d="M4.372,30.916h2.879"/>
<path fill="none" stroke="#000000" stroke-width="2" d="M4.372,38.06h2.879"/>
<path fill="none" stroke="#000000" stroke-width="2" d="M4.372,45.202h2.879"/>
<path fill="none" stroke="#000000" stroke-width="2" d="M4.372,52.451h2.879"/>
<path fill="none" stroke="#000000" stroke-width="2" d="M4.372,59.594h2.879"/>
<path fill="none" stroke="#000000" stroke-width="2" d="M4.372,66.738h2.879"/>
<path fill="none" stroke="#000000" stroke-width="2" d="M4.372,73.987h2.879"/>
</svg>
