<?xml version="1.0" encoding="utf-8"?>
<!-- Generator: Adobe Illustrator 14.0.0, SVG Export Plug-In . SVG Version: 6.00 Build 43363)  -->
<!DOCTYPE svg PUBLIC "-//W3C//DTD SVG 1.1//EN" "http://www.w3.org/Graphics/SVG/1.1/DTD/svg11.dtd">
<svg version="1.1" id="图层_1" xmlns="http://www.w3.org/2000/svg" xmlns:xlink="http://www.w3.org/1999/xlink" x="0px" y="0px"
	 width="32.811px" height="106.502px" viewBox="0 0 32.811 106.502" enable-background="new 0 0 32.811 106.502"
	 xml:space="preserve">
<path fill="none" stroke="#000000" stroke-width="2" d="M2.959,2.96h26.894"/>
<path fill="none" stroke="#000000" stroke-width="2" d="M2.959,9.683h6.723"/>
<path fill="none" stroke="#000000" stroke-width="2" d="M2.959,43.031h6.723"/>
<path fill="none" stroke="#000000" stroke-width="2" d="M2.959,76.649h6.723"/>
<path fill="none" stroke="#000000" stroke-width="2" d="M2.959,16.406h6.723"/>
<path fill="none" stroke="#000000" stroke-width="2" d="M2.959,49.755h6.723"/>
<path fill="none" stroke="#000000" stroke-width="2" d="M2.959,83.372h6.723"/>
<path fill="none" stroke="#000000" stroke-width="2" d="M2.959,23.13h6.723"/>
<path fill="none" stroke="#000000" stroke-width="2" d="M2.959,56.479h6.723"/>
<path fill="none" stroke="#000000" stroke-width="2" d="M2.959,90.096h6.723"/>
<path fill="none" stroke="#000000" stroke-width="2" d="M2.959,29.854h6.723"/>
<path fill="none" stroke="#000000" stroke-width="2" d="M2.959,63.202h6.723"/>
<path fill="none" stroke="#000000" stroke-width="2" d="M2.959,96.82h6.723"/>
<path fill="none" stroke="#000000" stroke-width="2" d="M2.959,36.577h26.894"/>
<path fill="none" stroke="#000000" stroke-width="2" d="M2.959,69.925h26.894"/>
<path fill="none" stroke="#000000" stroke-width="2" d="M2.959,103.542h26.894"/>
<path fill="none" stroke="#000000" stroke-width="2" d="M2.959,6.322h6.723"/>
<path fill="none" stroke="#000000" stroke-width="2" d="M2.959,39.67h6.723"/>
<path fill="none" stroke="#000000" stroke-width="2" d="M2.959,73.287h6.723"/>
<path fill="none" stroke="#000000" stroke-width="2" d="M2.959,13.045h6.723"/>
<path fill="none" stroke="#000000" stroke-width="2" d="M2.959,46.394h6.723"/>
<path fill="none" stroke="#000000" stroke-width="2" d="M2.959,80.011h6.723"/>
<path fill="none" stroke="#000000" stroke-width="2" d="M2.959,19.769h13.446"/>
<path fill="none" stroke="#000000" stroke-width="2" d="M2.959,53.116h13.446"/>
<path fill="none" stroke="#000000" stroke-width="2" d="M2.959,86.734h13.446"/>
<path fill="none" stroke="#000000" stroke-width="2" d="M9.681,26.491H2.959"/>
<path fill="none" stroke="#000000" stroke-width="2" d="M9.681,59.84H2.959"/>
<path fill="none" stroke="#000000" stroke-width="2" d="M9.681,93.457H2.959"/>
<path fill="none" stroke="#000000" stroke-width="2" d="M2.959,33.215h6.723"/>
<path fill="none" stroke="#000000" stroke-width="2" d="M2.959,66.564h6.723"/>
<path fill="none" stroke="#000000" stroke-width="2" d="M2.959,100.181h6.723"/>
</svg>
