<?xml version="1.0" encoding="utf-8"?>
<!-- Generator: Adobe Illustrator 14.0.0, SVG Export Plug-In . SVG Version: 6.00 Build 43363)  -->
<!DOCTYPE svg PUBLIC "-//W3C//DTD SVG 1.1//EN" "http://www.w3.org/Graphics/SVG/1.1/DTD/svg11.dtd">
<svg version="1.1" id="图层_1" xmlns="http://www.w3.org/2000/svg" xmlns:xlink="http://www.w3.org/1999/xlink" x="0px" y="0px"
	 width="14.94px" height="106.502px" viewBox="0 0 14.94 106.502" enable-background="new 0 0 14.94 106.502" xml:space="preserve">
<path fill="none" stroke="#000000" stroke-width="2" d="M2.988,2.989h8.857"/>
<path fill="none" stroke="#000000" stroke-width="2" d="M2.988,5.23h2.241"/>
<path fill="none" stroke="#000000" stroke-width="2" d="M2.988,16.328h2.241"/>
<path fill="none" stroke="#000000" stroke-width="2" d="M2.988,27.426h2.241"/>
<path fill="none" stroke="#000000" stroke-width="2" d="M2.988,38.631h2.241"/>
<path fill="none" stroke="#000000" stroke-width="2" d="M2.988,49.836h2.241"/>
<path fill="none" stroke="#000000" stroke-width="2" d="M2.988,61.041h2.241"/>
<path fill="none" stroke="#000000" stroke-width="2" d="M2.988,72.246h2.241"/>
<path fill="none" stroke="#000000" stroke-width="2" d="M2.988,83.451h2.241"/>
<path fill="none" stroke="#000000" stroke-width="2" d="M2.988,94.656h2.241"/>
<path fill="none" stroke="#000000" stroke-width="2" d="M2.988,7.471h2.241"/>
<path fill="none" stroke="#000000" stroke-width="2" d="M2.988,18.57h2.241"/>
<path fill="none" stroke="#000000" stroke-width="2" d="M2.988,29.667h2.241"/>
<path fill="none" stroke="#000000" stroke-width="2" d="M2.988,40.872h2.241"/>
<path fill="none" stroke="#000000" stroke-width="2" d="M2.988,52.077h2.241"/>
<path fill="none" stroke="#000000" stroke-width="2" d="M2.988,63.282h2.241"/>
<path fill="none" stroke="#000000" stroke-width="2" d="M2.988,74.488h2.241"/>
<path fill="none" stroke="#000000" stroke-width="2" d="M2.988,85.693h2.241"/>
<path fill="none" stroke="#000000" stroke-width="2" d="M2.988,96.79h2.241"/>
<path fill="none" stroke="#000000" stroke-width="2" d="M2.988,9.712h2.241"/>
<path fill="none" stroke="#000000" stroke-width="2" d="M2.988,20.81h2.241"/>
<path fill="none" stroke="#000000" stroke-width="2" d="M2.988,31.908h2.241"/>
<path fill="none" stroke="#000000" stroke-width="2" d="M2.988,43.114h2.241"/>
<path fill="none" stroke="#000000" stroke-width="2" d="M2.988,54.319h2.241"/>
<path fill="none" stroke="#000000" stroke-width="2" d="M2.988,65.524h2.241"/>
<path fill="none" stroke="#000000" stroke-width="2" d="M2.988,76.729h2.241"/>
<path fill="none" stroke="#000000" stroke-width="2" d="M2.988,87.934h2.241"/>
<path fill="none" stroke="#000000" stroke-width="2" d="M2.988,99.031h2.241"/>
<path fill="none" stroke="#000000" stroke-width="2" d="M2.988,11.846h2.241"/>
<path fill="none" stroke="#000000" stroke-width="2" d="M2.988,22.945h2.241"/>
<path fill="none" stroke="#000000" stroke-width="2" d="M2.988,34.15h2.241"/>
<path fill="none" stroke="#000000" stroke-width="2" d="M2.988,45.355h2.241"/>
<path fill="none" stroke="#000000" stroke-width="2" d="M2.988,56.56h2.241"/>
<path fill="none" stroke="#000000" stroke-width="2" d="M2.988,67.764h2.241"/>
<path fill="none" stroke="#000000" stroke-width="2" d="M2.988,78.969h2.241"/>
<path fill="none" stroke="#000000" stroke-width="2" d="M2.988,90.174h2.241"/>
<path fill="none" stroke="#000000" stroke-width="2" d="M2.988,101.273h2.241"/>
<path fill="none" stroke="#000000" stroke-width="2" d="M2.988,14.087h8.857"/>
<path fill="none" stroke="#000000" stroke-width="2" d="M2.988,25.186h8.857"/>
<path fill="none" stroke="#000000" stroke-width="2" d="M2.988,36.391h8.857"/>
<path fill="none" stroke="#000000" stroke-width="2" d="M2.988,47.595h8.857"/>
<path fill="none" stroke="#000000" stroke-width="2" d="M2.988,58.8h8.857"/>
<path fill="none" stroke="#000000" stroke-width="2" d="M2.988,70.005h8.857"/>
<path fill="none" stroke="#000000" stroke-width="2" d="M2.988,81.21h8.857"/>
<path fill="none" stroke="#000000" stroke-width="2" d="M2.988,92.415h8.857"/>
<path fill="none" stroke="#000000" stroke-width="2" d="M2.988,103.514h8.857"/>
<path fill="none" stroke="#000000" stroke-width="2" d="M2.988,4.056h2.241"/>
<path fill="none" stroke="#000000" stroke-width="2" d="M2.988,15.155h2.241"/>
<path fill="none" stroke="#000000" stroke-width="2" d="M2.988,26.36h2.241"/>
<path fill="none" stroke="#000000" stroke-width="2" d="M2.988,37.565h2.241"/>
<path fill="none" stroke="#000000" stroke-width="2" d="M2.988,48.769h2.241"/>
<path fill="none" stroke="#000000" stroke-width="2" d="M2.988,59.867h2.241"/>
<path fill="none" stroke="#000000" stroke-width="2" d="M2.988,71.073h2.241"/>
<path fill="none" stroke="#000000" stroke-width="2" d="M2.988,82.278h2.241"/>
<path fill="none" stroke="#000000" stroke-width="2" d="M2.988,93.483h2.241"/>
<path fill="none" stroke="#000000" stroke-width="2" d="M2.988,6.297h2.241"/>
<path fill="none" stroke="#000000" stroke-width="2" d="M2.988,17.395h2.241"/>
<path fill="none" stroke="#000000" stroke-width="2" d="M2.988,28.6h2.241"/>
<path fill="none" stroke="#000000" stroke-width="2" d="M2.988,39.805h2.241"/>
<path fill="none" stroke="#000000" stroke-width="2" d="M2.988,51.01h2.241"/>
<path fill="none" stroke="#000000" stroke-width="2" d="M2.988,62.109h2.241"/>
<path fill="none" stroke="#000000" stroke-width="2" d="M2.988,73.314h2.241"/>
<path fill="none" stroke="#000000" stroke-width="2" d="M2.988,84.519h2.241"/>
<path fill="none" stroke="#000000" stroke-width="2" d="M2.988,95.724h2.241"/>
<path fill="none" stroke="#000000" stroke-width="2" d="M2.988,8.538H7.47"/>
<path fill="none" stroke="#000000" stroke-width="2" d="M2.988,19.636H7.47"/>
<path fill="none" stroke="#000000" stroke-width="2" d="M2.988,30.841H7.47"/>
<path fill="none" stroke="#000000" stroke-width="2" d="M2.988,42.046H7.47"/>
<path fill="none" stroke="#000000" stroke-width="2" d="M2.988,53.251H7.47"/>
<path fill="none" stroke="#000000" stroke-width="2" d="M2.988,64.35H7.47"/>
<path fill="none" stroke="#000000" stroke-width="2" d="M2.988,75.555H7.47"/>
<path fill="none" stroke="#000000" stroke-width="2" d="M2.988,86.76H7.47"/>
<path fill="none" stroke="#000000" stroke-width="2" d="M2.988,97.964H7.47"/>
<path fill="none" stroke="#000000" stroke-width="2" d="M5.229,10.779H2.988"/>
<path fill="none" stroke="#000000" stroke-width="2" d="M5.229,21.877H2.988"/>
<path fill="none" stroke="#000000" stroke-width="2" d="M5.229,33.082H2.988"/>
<path fill="none" stroke="#000000" stroke-width="2" d="M5.229,44.287H2.988"/>
<path fill="none" stroke="#000000" stroke-width="2" d="M5.229,55.492H2.988"/>
<path fill="none" stroke="#000000" stroke-width="2" d="M5.229,66.59H2.988"/>
<path fill="none" stroke="#000000" stroke-width="2" d="M5.229,77.795H2.988"/>
<path fill="none" stroke="#000000" stroke-width="2" d="M5.229,89H2.988"/>
<path fill="none" stroke="#000000" stroke-width="2" d="M5.229,100.205H2.988"/>
<path fill="none" stroke="#000000" stroke-width="2" d="M2.988,13.02h2.241"/>
<path fill="none" stroke="#000000" stroke-width="2" d="M2.988,24.118h2.241"/>
<path fill="none" stroke="#000000" stroke-width="2" d="M2.988,35.323h2.241"/>
<path fill="none" stroke="#000000" stroke-width="2" d="M2.988,46.529h2.241"/>
<path fill="none" stroke="#000000" stroke-width="2" d="M2.988,57.734h2.241"/>
<path fill="none" stroke="#000000" stroke-width="2" d="M2.988,68.831h2.241"/>
<path fill="none" stroke="#000000" stroke-width="2" d="M2.988,80.036h2.241"/>
<path fill="none" stroke="#000000" stroke-width="2" d="M2.988,91.241h2.241"/>
<path fill="none" stroke="#000000" stroke-width="2" d="M2.988,102.447h2.241"/>
</svg>
