<?xml version="1.0" encoding="utf-8"?>
<!-- Generator: Adobe Illustrator 14.0.0, SVG Export Plug-In . SVG Version: 6.00 Build 43363)  -->
<!DOCTYPE svg PUBLIC "-//W3C//DTD SVG 1.1//EN" "http://www.w3.org/Graphics/SVG/1.1/DTD/svg11.dtd">
<svg version="1.1" id="图层_1" xmlns="http://www.w3.org/2000/svg" xmlns:xlink="http://www.w3.org/1999/xlink" x="0px" y="0px"
	 width="26.014px" height="106.502px" viewBox="0 0 26.014 106.502" enable-background="new 0 0 26.014 106.502"
	 xml:space="preserve">
<path fill="none" stroke="#000000" stroke-width="2" d="M2.879,2.878h20.149"/>
<path fill="none" stroke="#000000" stroke-width="2" d="M2.879,7.889h5.011"/>
<path fill="none" stroke="#000000" stroke-width="2" d="M2.879,32.943h5.011"/>
<path fill="none" stroke="#000000" stroke-width="2" d="M2.879,58.102h5.011"/>
<path fill="none" stroke="#000000" stroke-width="2" d="M2.879,83.368h5.011"/>
<path fill="none" stroke="#000000" stroke-width="2" d="M2.879,13.006h5.011"/>
<path fill="none" stroke="#000000" stroke-width="2" d="M2.879,37.952h5.011"/>
<path fill="none" stroke="#000000" stroke-width="2" d="M2.879,63.219h5.011"/>
<path fill="none" stroke="#000000" stroke-width="2" d="M2.879,88.379h5.011"/>
<path fill="none" stroke="#000000" stroke-width="2" d="M2.879,18.017h5.011"/>
<path fill="none" stroke="#000000" stroke-width="2" d="M2.879,42.963h5.011"/>
<path fill="none" stroke="#000000" stroke-width="2" d="M2.879,68.23h5.011"/>
<path fill="none" stroke="#000000" stroke-width="2" d="M2.879,93.39h5.011"/>
<path fill="none" stroke="#000000" stroke-width="2" d="M2.879,23.028h5.011"/>
<path fill="none" stroke="#000000" stroke-width="2" d="M2.879,48.08h5.011"/>
<path fill="none" stroke="#000000" stroke-width="2" d="M2.879,73.24h5.011"/>
<path fill="none" stroke="#000000" stroke-width="2" d="M2.879,98.507h5.011"/>
<path fill="none" stroke="#000000" stroke-width="2" d="M2.879,28.038h20.149"/>
<path fill="none" stroke="#000000" stroke-width="2" d="M2.879,53.091h20.149"/>
<path fill="none" stroke="#000000" stroke-width="2" d="M2.879,78.358h20.149"/>
<path fill="none" stroke="#000000" stroke-width="2" d="M2.879,103.518h20.149"/>
<path fill="none" stroke="#000000" stroke-width="2" d="M2.879,5.437h5.011"/>
<path fill="none" stroke="#000000" stroke-width="2" d="M2.879,30.384h5.011"/>
<path fill="none" stroke="#000000" stroke-width="2" d="M2.879,55.65h5.011"/>
<path fill="none" stroke="#000000" stroke-width="2" d="M2.879,80.81h5.011"/>
<path fill="none" stroke="#000000" stroke-width="2" d="M2.879,10.448h5.011"/>
<path fill="none" stroke="#000000" stroke-width="2" d="M2.879,35.501h5.011"/>
<path fill="none" stroke="#000000" stroke-width="2" d="M2.879,60.66h5.011"/>
<path fill="none" stroke="#000000" stroke-width="2" d="M2.879,85.927h5.011"/>
<path fill="none" stroke="#000000" stroke-width="2" d="M2.879,15.458h10.128"/>
<path fill="none" stroke="#000000" stroke-width="2" d="M2.879,40.511h10.128"/>
<path fill="none" stroke="#000000" stroke-width="2" d="M2.879,65.671h10.128"/>
<path fill="none" stroke="#000000" stroke-width="2" d="M2.879,90.938h10.128"/>
<path fill="none" stroke="#000000" stroke-width="2" d="M7.889,20.469H2.879"/>
<path fill="none" stroke="#000000" stroke-width="2" d="M7.889,45.522H2.879"/>
<path fill="none" stroke="#000000" stroke-width="2" d="M7.889,70.788H2.879"/>
<path fill="none" stroke="#000000" stroke-width="2" d="M7.889,95.948H2.879"/>
<path fill="none" stroke="#000000" stroke-width="2" d="M2.879,25.586h5.011"/>
<path fill="none" stroke="#000000" stroke-width="2" d="M2.879,50.532h5.011"/>
<path fill="none" stroke="#000000" stroke-width="2" d="M2.879,75.799h5.011"/>
<path fill="none" stroke="#000000" stroke-width="2" d="M2.879,100.959h5.011"/>
</svg>
