<?xml version="1.0" encoding="utf-8"?>
<!-- Generator: Adobe Illustrator 14.0.0, SVG Export Plug-In . SVG Version: 6.00 Build 43363)  -->
<!DOCTYPE svg PUBLIC "-//W3C//DTD SVG 1.1//EN" "http://www.w3.org/Graphics/SVG/1.1/DTD/svg11.dtd">
<svg version="1.1" id="图层_1" xmlns="http://www.w3.org/2000/svg" xmlns:xlink="http://www.w3.org/1999/xlink" x="0px" y="0px"
	 width="12.687px" height="106.502px" viewBox="0 0 12.687 106.502" enable-background="new 0 0 12.687 106.502"
	 xml:space="preserve">
<path fill="none" stroke="#000000" stroke-width="2" d="M2.985,95.095h6.717"/>
<path fill="none" stroke="#000000" stroke-width="2" d="M2.985,103.41h6.717"/>
<path fill="none" stroke="#000000" stroke-width="2" d="M4.584,87.632h3.411"/>
<path fill="none" stroke="#000000" stroke-width="2" d="M4.584,95.948h3.411"/>
<path fill="none" stroke="#000000" stroke-width="2" d="M4.584,88.379h3.411"/>
<path fill="none" stroke="#000000" stroke-width="2" d="M4.584,96.695h3.411"/>
<path fill="none" stroke="#000000" stroke-width="2" d="M4.584,89.232h3.411"/>
<path fill="none" stroke="#000000" stroke-width="2" d="M4.584,97.547h3.411"/>
<path fill="none" stroke="#000000" stroke-width="2" d="M4.584,90.084h3.411"/>
<path fill="none" stroke="#000000" stroke-width="2" d="M4.584,98.4h3.411"/>
<path fill="none" stroke="#000000" stroke-width="2" d="M4.584,90.938h3.411"/>
<path fill="none" stroke="#000000" stroke-width="2" d="M4.584,99.253h3.411"/>
<path fill="none" stroke="#000000" stroke-width="2" d="M4.584,91.79h3.411"/>
<path fill="none" stroke="#000000" stroke-width="2" d="M4.584,100.106h3.411"/>
<path fill="none" stroke="#000000" stroke-width="2" d="M4.584,92.643h3.411"/>
<path fill="none" stroke="#000000" stroke-width="2" d="M4.584,100.958h3.411"/>
<path fill="none" stroke="#000000" stroke-width="2" d="M4.584,93.496h3.411"/>
<path fill="none" stroke="#000000" stroke-width="2" d="M4.584,101.812h3.411"/>
<path fill="none" stroke="#000000" stroke-width="2" d="M4.584,94.242h3.411"/>
<path fill="none" stroke="#000000" stroke-width="2" d="M4.584,102.558h3.411"/>
<path fill="none" stroke="#000000" stroke-width="2" d="M2.985,2.986h6.717"/>
<path fill="none" stroke="#000000" stroke-width="2" d="M2.985,86.78h6.717"/>
<path fill="none" stroke="#000000" stroke-width="2" d="M2.985,11.301h6.717"/>
<path fill="none" stroke="#000000" stroke-width="2" d="M2.985,19.616h6.717"/>
<path fill="none" stroke="#000000" stroke-width="2" d="M2.985,28.038h6.717"/>
<path fill="none" stroke="#000000" stroke-width="2" d="M2.985,36.354h6.717"/>
<path fill="none" stroke="#000000" stroke-width="2" d="M2.985,44.776h6.717"/>
<path fill="none" stroke="#000000" stroke-width="2" d="M2.985,53.091h6.717"/>
<path fill="none" stroke="#000000" stroke-width="2" d="M2.985,61.513h6.717"/>
<path fill="none" stroke="#000000" stroke-width="2" d="M2.985,69.828h6.717"/>
<path fill="none" stroke="#000000" stroke-width="2" d="M2.985,78.251h6.717"/>
<path fill="none" stroke="#000000" stroke-width="2" d="M4.584,3.838h3.411"/>
<path fill="none" stroke="#000000" stroke-width="2" d="M4.584,12.154h3.411"/>
<path fill="none" stroke="#000000" stroke-width="2" d="M4.584,20.469h3.411"/>
<path fill="none" stroke="#000000" stroke-width="2" d="M4.584,28.891h3.411"/>
<path fill="none" stroke="#000000" stroke-width="2" d="M4.584,37.206h3.411"/>
<path fill="none" stroke="#000000" stroke-width="2" d="M4.584,45.629h3.411"/>
<path fill="none" stroke="#000000" stroke-width="2" d="M4.584,53.945h3.411"/>
<path fill="none" stroke="#000000" stroke-width="2" d="M4.584,62.366h3.411"/>
<path fill="none" stroke="#000000" stroke-width="2" d="M4.584,70.682h3.411"/>
<path fill="none" stroke="#000000" stroke-width="2" d="M4.584,79.104h3.411"/>
<path fill="none" stroke="#000000" stroke-width="2" d="M4.584,4.584h3.411"/>
<path fill="none" stroke="#000000" stroke-width="2" d="M4.584,12.9h3.411"/>
<path fill="none" stroke="#000000" stroke-width="2" d="M4.584,21.322h3.411"/>
<path fill="none" stroke="#000000" stroke-width="2" d="M4.584,29.638h3.411"/>
<path fill="none" stroke="#000000" stroke-width="2" d="M4.584,38.06h3.411"/>
<path fill="none" stroke="#000000" stroke-width="2" d="M4.584,46.482h3.411"/>
<path fill="none" stroke="#000000" stroke-width="2" d="M4.584,54.797h3.411"/>
<path fill="none" stroke="#000000" stroke-width="2" d="M4.584,63.219h3.411"/>
<path fill="none" stroke="#000000" stroke-width="2" d="M4.584,71.534h3.411"/>
<path fill="none" stroke="#000000" stroke-width="2" d="M4.584,79.956h3.411"/>
<path fill="none" stroke="#000000" stroke-width="2" d="M4.584,5.438h3.411"/>
<path fill="none" stroke="#000000" stroke-width="2" d="M4.584,13.753h3.411"/>
<path fill="none" stroke="#000000" stroke-width="2" d="M4.584,22.175h3.411"/>
<path fill="none" stroke="#000000" stroke-width="2" d="M4.584,30.49h3.411"/>
<path fill="none" stroke="#000000" stroke-width="2" d="M4.584,38.912h3.411"/>
<path fill="none" stroke="#000000" stroke-width="2" d="M4.584,47.228h3.411"/>
<path fill="none" stroke="#000000" stroke-width="2" d="M4.584,55.65h3.411"/>
<path fill="none" stroke="#000000" stroke-width="2" d="M4.584,63.965h3.411"/>
<path fill="none" stroke="#000000" stroke-width="2" d="M4.584,72.387h3.411"/>
<path fill="none" stroke="#000000" stroke-width="2" d="M4.584,80.81h3.411"/>
<path fill="none" stroke="#000000" stroke-width="2" d="M4.584,6.29h3.411"/>
<path fill="none" stroke="#000000" stroke-width="2" d="M4.584,14.606h3.411"/>
<path fill="none" stroke="#000000" stroke-width="2" d="M4.584,23.028h3.411"/>
<path fill="none" stroke="#000000" stroke-width="2" d="M4.584,31.343h3.411"/>
<path fill="none" stroke="#000000" stroke-width="2" d="M4.584,39.765h3.411"/>
<path fill="none" stroke="#000000" stroke-width="2" d="M4.584,48.08h3.411"/>
<path fill="none" stroke="#000000" stroke-width="2" d="M4.584,56.503h3.411"/>
<path fill="none" stroke="#000000" stroke-width="2" d="M4.584,64.819h3.411"/>
<path fill="none" stroke="#000000" stroke-width="2" d="M4.584,73.24h3.411"/>
<path fill="none" stroke="#000000" stroke-width="2" d="M4.584,81.556h3.411"/>
<path fill="none" stroke="#000000" stroke-width="2" d="M4.584,7.143h3.411"/>
<path fill="none" stroke="#000000" stroke-width="2" d="M4.584,15.458h3.411"/>
<path fill="none" stroke="#000000" stroke-width="2" d="M4.584,23.774h3.411"/>
<path fill="none" stroke="#000000" stroke-width="2" d="M4.584,32.197h3.411"/>
<path fill="none" stroke="#000000" stroke-width="2" d="M4.584,40.618h3.411"/>
<path fill="none" stroke="#000000" stroke-width="2" d="M4.584,48.934h3.411"/>
<path fill="none" stroke="#000000" stroke-width="2" d="M4.584,57.356h3.411"/>
<path fill="none" stroke="#000000" stroke-width="2" d="M4.584,65.671h3.411"/>
<path fill="none" stroke="#000000" stroke-width="2" d="M4.584,74.093h3.411"/>
<path fill="none" stroke="#000000" stroke-width="2" d="M4.584,82.408h3.411"/>
<path fill="none" stroke="#000000" stroke-width="2" d="M4.584,7.996h3.411"/>
<path fill="none" stroke="#000000" stroke-width="2" d="M4.584,16.312h3.411"/>
<path fill="none" stroke="#000000" stroke-width="2" d="M4.584,24.627h3.411"/>
<path fill="none" stroke="#000000" stroke-width="2" d="M4.584,33.049h3.411"/>
<path fill="none" stroke="#000000" stroke-width="2" d="M4.584,41.365h3.411"/>
<path fill="none" stroke="#000000" stroke-width="2" d="M4.584,49.786h3.411"/>
<path fill="none" stroke="#000000" stroke-width="2" d="M4.584,58.102h3.411"/>
<path fill="none" stroke="#000000" stroke-width="2" d="M4.584,66.524h3.411"/>
<path fill="none" stroke="#000000" stroke-width="2" d="M4.584,74.946h3.411"/>
<path fill="none" stroke="#000000" stroke-width="2" d="M4.584,83.262h3.411"/>
<path fill="none" stroke="#000000" stroke-width="2" d="M4.584,8.849h3.411"/>
<path fill="none" stroke="#000000" stroke-width="2" d="M4.584,17.164h3.411"/>
<path fill="none" stroke="#000000" stroke-width="2" d="M4.584,25.48h3.411"/>
<path fill="none" stroke="#000000" stroke-width="2" d="M4.584,33.902h3.411"/>
<path fill="none" stroke="#000000" stroke-width="2" d="M4.584,42.217h3.411"/>
<path fill="none" stroke="#000000" stroke-width="2" d="M4.584,50.639h3.411"/>
<path fill="none" stroke="#000000" stroke-width="2" d="M4.584,58.954h3.411"/>
<path fill="none" stroke="#000000" stroke-width="2" d="M4.584,67.377h3.411"/>
<path fill="none" stroke="#000000" stroke-width="2" d="M4.584,75.693h3.411"/>
<path fill="none" stroke="#000000" stroke-width="2" d="M4.584,84.115h3.411"/>
<path fill="none" stroke="#000000" stroke-width="2" d="M4.584,9.701h3.411"/>
<path fill="none" stroke="#000000" stroke-width="2" d="M4.584,18.017h3.411"/>
<path fill="none" stroke="#000000" stroke-width="2" d="M4.584,26.332h3.411"/>
<path fill="none" stroke="#000000" stroke-width="2" d="M4.584,34.755h3.411"/>
<path fill="none" stroke="#000000" stroke-width="2" d="M4.584,43.071h3.411"/>
<path fill="none" stroke="#000000" stroke-width="2" d="M4.584,51.492h3.411"/>
<path fill="none" stroke="#000000" stroke-width="2" d="M4.584,59.808h3.411"/>
<path fill="none" stroke="#000000" stroke-width="2" d="M4.584,68.23h3.411"/>
<path fill="none" stroke="#000000" stroke-width="2" d="M4.584,76.545h3.411"/>
<path fill="none" stroke="#000000" stroke-width="2" d="M4.584,84.967h3.411"/>
<path fill="none" stroke="#000000" stroke-width="2" d="M4.584,10.448h3.411"/>
<path fill="none" stroke="#000000" stroke-width="2" d="M4.584,18.763h3.411"/>
<path fill="none" stroke="#000000" stroke-width="2" d="M4.584,27.186h3.411"/>
<path fill="none" stroke="#000000" stroke-width="2" d="M4.584,35.501h3.411"/>
<path fill="none" stroke="#000000" stroke-width="2" d="M4.584,43.923h3.411"/>
<path fill="none" stroke="#000000" stroke-width="2" d="M4.584,52.345h3.411"/>
<path fill="none" stroke="#000000" stroke-width="2" d="M4.584,60.66h3.411"/>
<path fill="none" stroke="#000000" stroke-width="2" d="M4.584,69.082h3.411"/>
<path fill="none" stroke="#000000" stroke-width="2" d="M4.584,77.398h3.411"/>
<path fill="none" stroke="#000000" stroke-width="2" d="M4.584,85.821h3.411"/>
</svg>
