<?xml version="1.0" encoding="utf-8"?>
<!-- Generator: Adobe Illustrator 14.0.0, SVG Export Plug-In . SVG Version: 6.00 Build 43363)  -->
<!DOCTYPE svg PUBLIC "-//W3C//DTD SVG 1.1//EN" "http://www.w3.org/Graphics/SVG/1.1/DTD/svg11.dtd">
<svg version="1.1" id="图层_1" xmlns="http://www.w3.org/2000/svg" xmlns:xlink="http://www.w3.org/1999/xlink" x="0px" y="0px"
	 width="10.98px" height="106.502px" viewBox="0 0 10.98 106.502" enable-background="new 0 0 10.98 106.502" xml:space="preserve">
<path fill="none" stroke="#000000" stroke-width="2" d="M2.985,72.067h5.011"/>
<path fill="none" stroke="#000000" stroke-width="2" d="M2.985,78.356h5.011"/>
<path fill="none" stroke="#000000" stroke-width="2" d="M2.985,84.646h5.011"/>
<path fill="none" stroke="#000000" stroke-width="2" d="M2.985,90.828h5.011"/>
<path fill="none" stroke="#000000" stroke-width="2" d="M2.985,97.118h5.011"/>
<path fill="none" stroke="#000000" stroke-width="2" d="M2.985,103.407h5.011"/>
<path fill="none" stroke="#000000" stroke-width="2" d="M4.264,66.416h2.452"/>
<path fill="none" stroke="#000000" stroke-width="2" d="M4.264,72.706h2.452"/>
<path fill="none" stroke="#000000" stroke-width="2" d="M4.264,78.995h2.452"/>
<path fill="none" stroke="#000000" stroke-width="2" d="M4.264,85.179h2.452"/>
<path fill="none" stroke="#000000" stroke-width="2" d="M4.264,91.468h2.452"/>
<path fill="none" stroke="#000000" stroke-width="2" d="M4.264,97.757h2.452"/>
<path fill="none" stroke="#000000" stroke-width="2" d="M4.264,67.056h2.452"/>
<path fill="none" stroke="#000000" stroke-width="2" d="M4.264,73.24h2.452"/>
<path fill="none" stroke="#000000" stroke-width="2" d="M4.264,79.529h2.452"/>
<path fill="none" stroke="#000000" stroke-width="2" d="M4.264,85.819h2.452"/>
<path fill="none" stroke="#000000" stroke-width="2" d="M4.264,92.108h2.452"/>
<path fill="none" stroke="#000000" stroke-width="2" d="M4.264,98.397h2.452"/>
<path fill="none" stroke="#000000" stroke-width="2" d="M4.264,67.696h2.452"/>
<path fill="none" stroke="#000000" stroke-width="2" d="M4.264,73.879h2.452"/>
<path fill="none" stroke="#000000" stroke-width="2" d="M4.264,80.168h2.452"/>
<path fill="none" stroke="#000000" stroke-width="2" d="M4.264,86.457h2.452"/>
<path fill="none" stroke="#000000" stroke-width="2" d="M4.264,92.747h2.452"/>
<path fill="none" stroke="#000000" stroke-width="2" d="M4.264,99.036h2.452"/>
<path fill="none" stroke="#000000" stroke-width="2" d="M4.264,68.335h2.452"/>
<path fill="none" stroke="#000000" stroke-width="2" d="M4.264,74.519h2.452"/>
<path fill="none" stroke="#000000" stroke-width="2" d="M4.264,80.808h2.452"/>
<path fill="none" stroke="#000000" stroke-width="2" d="M4.264,87.097h2.452"/>
<path fill="none" stroke="#000000" stroke-width="2" d="M4.264,93.387h2.452"/>
<path fill="none" stroke="#000000" stroke-width="2" d="M4.264,99.676h2.452"/>
<path fill="none" stroke="#000000" stroke-width="2" d="M4.264,68.975h2.452"/>
<path fill="none" stroke="#000000" stroke-width="2" d="M4.264,75.157h2.452"/>
<path fill="none" stroke="#000000" stroke-width="2" d="M4.264,81.448h2.452"/>
<path fill="none" stroke="#000000" stroke-width="2" d="M4.264,87.737h2.452"/>
<path fill="none" stroke="#000000" stroke-width="2" d="M4.264,94.027h2.452"/>
<path fill="none" stroke="#000000" stroke-width="2" d="M4.264,100.316h2.452"/>
<path fill="none" stroke="#000000" stroke-width="2" d="M4.264,69.615h2.452"/>
<path fill="none" stroke="#000000" stroke-width="2" d="M4.264,75.797h2.452"/>
<path fill="none" stroke="#000000" stroke-width="2" d="M4.264,82.087h2.452"/>
<path fill="none" stroke="#000000" stroke-width="2" d="M4.264,88.376h2.452"/>
<path fill="none" stroke="#000000" stroke-width="2" d="M4.264,94.666h2.452"/>
<path fill="none" stroke="#000000" stroke-width="2" d="M4.264,100.955h2.452"/>
<path fill="none" stroke="#000000" stroke-width="2" d="M4.264,70.254h2.452"/>
<path fill="none" stroke="#000000" stroke-width="2" d="M4.264,76.437h2.452"/>
<path fill="none" stroke="#000000" stroke-width="2" d="M4.264,82.727h2.452"/>
<path fill="none" stroke="#000000" stroke-width="2" d="M4.264,89.016h2.452"/>
<path fill="none" stroke="#000000" stroke-width="2" d="M4.264,95.306h2.452"/>
<path fill="none" stroke="#000000" stroke-width="2" d="M4.264,101.595h2.452"/>
<path fill="none" stroke="#000000" stroke-width="2" d="M4.264,70.787h2.452"/>
<path fill="none" stroke="#000000" stroke-width="2" d="M4.264,77.076h2.452"/>
<path fill="none" stroke="#000000" stroke-width="2" d="M4.264,83.366h2.452"/>
<path fill="none" stroke="#000000" stroke-width="2" d="M4.264,89.656h2.452"/>
<path fill="none" stroke="#000000" stroke-width="2" d="M4.264,95.946h2.452"/>
<path fill="none" stroke="#000000" stroke-width="2" d="M4.264,102.128h2.452"/>
<path fill="none" stroke="#000000" stroke-width="2" d="M4.264,71.427h2.452"/>
<path fill="none" stroke="#000000" stroke-width="2" d="M4.264,77.716h2.452"/>
<path fill="none" stroke="#000000" stroke-width="2" d="M4.264,84.006h2.452"/>
<path fill="none" stroke="#000000" stroke-width="2" d="M4.264,90.295h2.452"/>
<path fill="none" stroke="#000000" stroke-width="2" d="M4.264,96.479h2.452"/>
<path fill="none" stroke="#000000" stroke-width="2" d="M4.264,102.768h2.452"/>
<path fill="none" stroke="#000000" stroke-width="2" d="M2.985,2.989h5.011"/>
<path fill="none" stroke="#000000" stroke-width="2" d="M2.985,65.777h5.011"/>
<path fill="none" stroke="#000000" stroke-width="2" d="M2.985,9.171h5.011"/>
<path fill="none" stroke="#000000" stroke-width="2" d="M2.985,15.461h5.011"/>
<path fill="none" stroke="#000000" stroke-width="2" d="M2.985,21.75h5.011"/>
<path fill="none" stroke="#000000" stroke-width="2" d="M2.985,28.04h5.011"/>
<path fill="none" stroke="#000000" stroke-width="2" d="M2.985,34.329h5.011"/>
<path fill="none" stroke="#000000" stroke-width="2" d="M2.985,40.619h5.011"/>
<path fill="none" stroke="#000000" stroke-width="2" d="M2.985,46.908h5.011"/>
<path fill="none" stroke="#000000" stroke-width="2" d="M2.985,53.198h5.011"/>
<path fill="none" stroke="#000000" stroke-width="2" d="M2.985,59.381h5.011"/>
<path fill="none" stroke="#000000" stroke-width="2" d="M4.264,3.628h2.452"/>
<path fill="none" stroke="#000000" stroke-width="2" d="M4.264,9.811h2.452"/>
<path fill="none" stroke="#000000" stroke-width="2" d="M4.264,16.101h2.452"/>
<path fill="none" stroke="#000000" stroke-width="2" d="M4.264,22.39h2.452"/>
<path fill="none" stroke="#000000" stroke-width="2" d="M4.264,28.68h2.452"/>
<path fill="none" stroke="#000000" stroke-width="2" d="M4.264,34.969h2.452"/>
<path fill="none" stroke="#000000" stroke-width="2" d="M4.264,41.258h2.452"/>
<path fill="none" stroke="#000000" stroke-width="2" d="M4.264,47.548h2.452"/>
<path fill="none" stroke="#000000" stroke-width="2" d="M4.264,53.731h2.452"/>
<path fill="none" stroke="#000000" stroke-width="2" d="M4.264,60.021h2.452"/>
<path fill="none" stroke="#000000" stroke-width="2" d="M4.264,4.268h2.452"/>
<path fill="none" stroke="#000000" stroke-width="2" d="M4.264,10.45h2.452"/>
<path fill="none" stroke="#000000" stroke-width="2" d="M4.264,16.74h2.452"/>
<path fill="none" stroke="#000000" stroke-width="2" d="M4.264,23.03h2.452"/>
<path fill="none" stroke="#000000" stroke-width="2" d="M4.264,29.32h2.452"/>
<path fill="none" stroke="#000000" stroke-width="2" d="M4.264,35.609h2.452"/>
<path fill="none" stroke="#000000" stroke-width="2" d="M4.264,41.898h2.452"/>
<path fill="none" stroke="#000000" stroke-width="2" d="M4.264,48.081h2.452"/>
<path fill="none" stroke="#000000" stroke-width="2" d="M4.264,54.37h2.452"/>
<path fill="none" stroke="#000000" stroke-width="2" d="M4.264,60.66h2.452"/>
<path fill="none" stroke="#000000" stroke-width="2" d="M4.264,4.801h2.452"/>
<path fill="none" stroke="#000000" stroke-width="2" d="M4.264,11.09h2.452"/>
<path fill="none" stroke="#000000" stroke-width="2" d="M4.264,17.38h2.452"/>
<path fill="none" stroke="#000000" stroke-width="2" d="M4.264,23.669h2.452"/>
<path fill="none" stroke="#000000" stroke-width="2" d="M4.264,29.958h2.452"/>
<path fill="none" stroke="#000000" stroke-width="2" d="M4.264,36.142h2.452"/>
<path fill="none" stroke="#000000" stroke-width="2" d="M4.264,42.431h2.452"/>
<path fill="none" stroke="#000000" stroke-width="2" d="M4.264,48.721h2.452"/>
<path fill="none" stroke="#000000" stroke-width="2" d="M4.264,55.01h2.452"/>
<path fill="none" stroke="#000000" stroke-width="2" d="M4.264,61.3h2.452"/>
<path fill="none" stroke="#000000" stroke-width="2" d="M4.264,5.441h2.452"/>
<path fill="none" stroke="#000000" stroke-width="2" d="M4.264,11.73h2.452"/>
<path fill="none" stroke="#000000" stroke-width="2" d="M4.264,18.02h2.452"/>
<path fill="none" stroke="#000000" stroke-width="2" d="M4.264,24.309h2.452"/>
<path fill="none" stroke="#000000" stroke-width="2" d="M4.264,30.491h2.452"/>
<path fill="none" stroke="#000000" stroke-width="2" d="M4.264,36.781h2.452"/>
<path fill="none" stroke="#000000" stroke-width="2" d="M4.264,43.071h2.452"/>
<path fill="none" stroke="#000000" stroke-width="2" d="M4.264,49.361h2.452"/>
<path fill="none" stroke="#000000" stroke-width="2" d="M4.264,55.65h2.452"/>
<path fill="none" stroke="#000000" stroke-width="2" d="M4.264,61.94h2.452"/>
<path fill="none" stroke="#000000" stroke-width="2" d="M4.264,6.08h2.452"/>
<path fill="none" stroke="#000000" stroke-width="2" d="M4.264,12.369h2.452"/>
<path fill="none" stroke="#000000" stroke-width="2" d="M4.264,18.658h2.452"/>
<path fill="none" stroke="#000000" stroke-width="2" d="M4.264,24.842h2.452"/>
<path fill="none" stroke="#000000" stroke-width="2" d="M4.264,31.131h2.452"/>
<path fill="none" stroke="#000000" stroke-width="2" d="M4.264,37.421h2.452"/>
<path fill="none" stroke="#000000" stroke-width="2" d="M4.264,43.71h2.452"/>
<path fill="none" stroke="#000000" stroke-width="2" d="M4.264,50h2.452"/>
<path fill="none" stroke="#000000" stroke-width="2" d="M4.264,56.289h2.452"/>
<path fill="none" stroke="#000000" stroke-width="2" d="M4.264,62.579h2.452"/>
<path fill="none" stroke="#000000" stroke-width="2" d="M4.264,6.72h2.452"/>
<path fill="none" stroke="#000000" stroke-width="2" d="M4.264,13.009h2.452"/>
<path fill="none" stroke="#000000" stroke-width="2" d="M4.264,19.192h2.452"/>
<path fill="none" stroke="#000000" stroke-width="2" d="M4.264,25.482h2.452"/>
<path fill="none" stroke="#000000" stroke-width="2" d="M4.264,31.771h2.452"/>
<path fill="none" stroke="#000000" stroke-width="2" d="M4.264,38.061h2.452"/>
<path fill="none" stroke="#000000" stroke-width="2" d="M4.264,44.35h2.452"/>
<path fill="none" stroke="#000000" stroke-width="2" d="M4.264,50.64h2.452"/>
<path fill="none" stroke="#000000" stroke-width="2" d="M4.264,56.929h2.452"/>
<path fill="none" stroke="#000000" stroke-width="2" d="M4.264,63.219h2.452"/>
<path fill="none" stroke="#000000" stroke-width="2" d="M4.264,7.359h2.452"/>
<path fill="none" stroke="#000000" stroke-width="2" d="M4.264,13.542h2.452"/>
<path fill="none" stroke="#000000" stroke-width="2" d="M4.264,19.831h2.452"/>
<path fill="none" stroke="#000000" stroke-width="2" d="M4.264,26.121h2.452"/>
<path fill="none" stroke="#000000" stroke-width="2" d="M4.264,32.41h2.452"/>
<path fill="none" stroke="#000000" stroke-width="2" d="M4.264,38.7h2.452"/>
<path fill="none" stroke="#000000" stroke-width="2" d="M4.264,44.99h2.452"/>
<path fill="none" stroke="#000000" stroke-width="2" d="M4.264,51.28h2.452"/>
<path fill="none" stroke="#000000" stroke-width="2" d="M4.264,57.569h2.452"/>
<path fill="none" stroke="#000000" stroke-width="2" d="M4.264,63.858h2.452"/>
<path fill="none" stroke="#000000" stroke-width="2" d="M4.264,7.998h2.452"/>
<path fill="none" stroke="#000000" stroke-width="2" d="M4.264,14.182h2.452"/>
<path fill="none" stroke="#000000" stroke-width="2" d="M4.264,20.471h2.452"/>
<path fill="none" stroke="#000000" stroke-width="2" d="M4.264,26.761h2.452"/>
<path fill="none" stroke="#000000" stroke-width="2" d="M4.264,33.05h2.452"/>
<path fill="none" stroke="#000000" stroke-width="2" d="M4.264,39.34h2.452"/>
<path fill="none" stroke="#000000" stroke-width="2" d="M4.264,45.629h2.452"/>
<path fill="none" stroke="#000000" stroke-width="2" d="M4.264,51.919h2.452"/>
<path fill="none" stroke="#000000" stroke-width="2" d="M4.264,58.208h2.452"/>
<path fill="none" stroke="#000000" stroke-width="2" d="M4.264,64.497h2.452"/>
<path fill="none" stroke="#000000" stroke-width="2" d="M4.264,8.638h2.452"/>
<path fill="none" stroke="#000000" stroke-width="2" d="M4.264,14.822h2.452"/>
<path fill="none" stroke="#000000" stroke-width="2" d="M4.264,21.111h2.452"/>
<path fill="none" stroke="#000000" stroke-width="2" d="M4.264,27.401h2.452"/>
<path fill="none" stroke="#000000" stroke-width="2" d="M4.264,33.69h2.452"/>
<path fill="none" stroke="#000000" stroke-width="2" d="M4.264,39.98h2.452"/>
<path fill="none" stroke="#000000" stroke-width="2" d="M4.264,46.269h2.452"/>
<path fill="none" stroke="#000000" stroke-width="2" d="M4.264,52.558h2.452"/>
<path fill="none" stroke="#000000" stroke-width="2" d="M4.264,58.848h2.452"/>
<path fill="none" stroke="#000000" stroke-width="2" d="M4.264,65.031h2.452"/>
</svg>
