<?xml version="1.0" encoding="utf-8"?>
<!-- Generator: Adobe Illustrator 14.0.0, SVG Export Plug-In . SVG Version: 6.00 Build 43363)  -->
<!DOCTYPE svg PUBLIC "-//W3C//DTD SVG 1.1//EN" "http://www.w3.org/Graphics/SVG/1.1/DTD/svg11.dtd">
<svg version="1.1" id="图层_1" xmlns="http://www.w3.org/2000/svg" xmlns:xlink="http://www.w3.org/1999/xlink" x="0px" y="0px"
	 width="15.991px" height="106.502px" viewBox="0 0 15.991 106.502" enable-background="new 0 0 15.991 106.502"
	 xml:space="preserve">
<path fill="none" stroke="#000000" stroke-width="2" d="M2.878,2.879h10.128"/>
<path fill="none" stroke="#000000" stroke-width="2" d="M2.878,5.438h2.559"/>
<path fill="none" stroke="#000000" stroke-width="2" d="M2.878,17.91h2.559"/>
<path fill="none" stroke="#000000" stroke-width="2" d="M2.878,30.49h2.559"/>
<path fill="none" stroke="#000000" stroke-width="2" d="M2.878,43.071h2.559"/>
<path fill="none" stroke="#000000" stroke-width="2" d="M2.878,55.65h2.559"/>
<path fill="none" stroke="#000000" stroke-width="2" d="M2.878,68.23h2.559"/>
<path fill="none" stroke="#000000" stroke-width="2" d="M2.878,80.81h2.559"/>
<path fill="none" stroke="#000000" stroke-width="2" d="M2.878,93.389h2.559"/>
<path fill="none" stroke="#000000" stroke-width="2" d="M2.878,7.996h2.559"/>
<path fill="none" stroke="#000000" stroke-width="2" d="M2.878,20.469h2.559"/>
<path fill="none" stroke="#000000" stroke-width="2" d="M2.878,33.049h2.559"/>
<path fill="none" stroke="#000000" stroke-width="2" d="M2.878,45.629h2.559"/>
<path fill="none" stroke="#000000" stroke-width="2" d="M2.878,58.208h2.559"/>
<path fill="none" stroke="#000000" stroke-width="2" d="M2.878,70.788h2.559"/>
<path fill="none" stroke="#000000" stroke-width="2" d="M2.878,83.368h2.559"/>
<path fill="none" stroke="#000000" stroke-width="2" d="M2.878,95.948h2.559"/>
<path fill="none" stroke="#000000" stroke-width="2" d="M2.878,10.448h2.559"/>
<path fill="none" stroke="#000000" stroke-width="2" d="M2.878,22.921h2.559"/>
<path fill="none" stroke="#000000" stroke-width="2" d="M2.878,35.501h2.559"/>
<path fill="none" stroke="#000000" stroke-width="2" d="M2.878,48.08h2.559"/>
<path fill="none" stroke="#000000" stroke-width="2" d="M2.878,60.66h2.559"/>
<path fill="none" stroke="#000000" stroke-width="2" d="M2.878,73.24h2.559"/>
<path fill="none" stroke="#000000" stroke-width="2" d="M2.878,85.82h2.559"/>
<path fill="none" stroke="#000000" stroke-width="2" d="M2.878,98.4h2.559"/>
<path fill="none" stroke="#000000" stroke-width="2" d="M2.878,13.007h2.559"/>
<path fill="none" stroke="#000000" stroke-width="2" d="M2.878,25.48h2.559"/>
<path fill="none" stroke="#000000" stroke-width="2" d="M2.878,38.06h2.559"/>
<path fill="none" stroke="#000000" stroke-width="2" d="M2.878,50.639h2.559"/>
<path fill="none" stroke="#000000" stroke-width="2" d="M2.878,63.219h2.559"/>
<path fill="none" stroke="#000000" stroke-width="2" d="M2.878,75.799h2.559"/>
<path fill="none" stroke="#000000" stroke-width="2" d="M2.878,88.378h2.559"/>
<path fill="none" stroke="#000000" stroke-width="2" d="M2.878,100.958h2.559"/>
<path fill="none" stroke="#000000" stroke-width="2" d="M2.878,15.458h10.128"/>
<path fill="none" stroke="#000000" stroke-width="2" d="M2.878,27.932h10.128"/>
<path fill="none" stroke="#000000" stroke-width="2" d="M2.878,40.512h10.128"/>
<path fill="none" stroke="#000000" stroke-width="2" d="M2.878,53.198h10.128"/>
<path fill="none" stroke="#000000" stroke-width="2" d="M2.878,65.778h10.128"/>
<path fill="none" stroke="#000000" stroke-width="2" d="M2.878,78.358h10.128"/>
<path fill="none" stroke="#000000" stroke-width="2" d="M2.878,90.937h10.128"/>
<path fill="none" stroke="#000000" stroke-width="2" d="M2.878,103.517h10.128"/>
<path fill="none" stroke="#000000" stroke-width="2" d="M2.878,4.158h2.559"/>
<path fill="none" stroke="#000000" stroke-width="2" d="M2.878,16.631h2.559"/>
<path fill="none" stroke="#000000" stroke-width="2" d="M2.878,29.211h2.559"/>
<path fill="none" stroke="#000000" stroke-width="2" d="M2.878,41.791h2.559"/>
<path fill="none" stroke="#000000" stroke-width="2" d="M2.878,54.37h2.559"/>
<path fill="none" stroke="#000000" stroke-width="2" d="M2.878,66.95h2.559"/>
<path fill="none" stroke="#000000" stroke-width="2" d="M2.878,79.531h2.559"/>
<path fill="none" stroke="#000000" stroke-width="2" d="M2.878,92.11h2.559"/>
<path fill="none" stroke="#000000" stroke-width="2" d="M2.878,6.717h2.559"/>
<path fill="none" stroke="#000000" stroke-width="2" d="M2.878,19.19h2.559"/>
<path fill="none" stroke="#000000" stroke-width="2" d="M2.878,31.77h2.559"/>
<path fill="none" stroke="#000000" stroke-width="2" d="M2.878,44.35h2.559"/>
<path fill="none" stroke="#000000" stroke-width="2" d="M2.878,56.929h2.559"/>
<path fill="none" stroke="#000000" stroke-width="2" d="M2.878,69.509h2.559"/>
<path fill="none" stroke="#000000" stroke-width="2" d="M2.878,82.089h2.559"/>
<path fill="none" stroke="#000000" stroke-width="2" d="M2.878,94.668h2.559"/>
<path fill="none" stroke="#000000" stroke-width="2" d="M2.878,9.169h5.117"/>
<path fill="none" stroke="#000000" stroke-width="2" d="M2.878,21.642h5.117"/>
<path fill="none" stroke="#000000" stroke-width="2" d="M2.878,34.222h5.117"/>
<path fill="none" stroke="#000000" stroke-width="2" d="M2.878,46.908h5.117"/>
<path fill="none" stroke="#000000" stroke-width="2" d="M2.878,59.488h5.117"/>
<path fill="none" stroke="#000000" stroke-width="2" d="M2.878,72.068h5.117"/>
<path fill="none" stroke="#000000" stroke-width="2" d="M2.878,84.648h5.117"/>
<path fill="none" stroke="#000000" stroke-width="2" d="M2.878,97.227h5.117"/>
<path fill="none" stroke="#000000" stroke-width="2" d="M5.437,11.728H2.878"/>
<path fill="none" stroke="#000000" stroke-width="2" d="M5.437,24.2H2.878"/>
<path fill="none" stroke="#000000" stroke-width="2" d="M5.437,36.781H2.878"/>
<path fill="none" stroke="#000000" stroke-width="2" d="M5.437,49.36H2.878"/>
<path fill="none" stroke="#000000" stroke-width="2" d="M5.437,61.94H2.878"/>
<path fill="none" stroke="#000000" stroke-width="2" d="M5.437,74.52H2.878"/>
<path fill="none" stroke="#000000" stroke-width="2" d="M5.437,87.099H2.878"/>
<path fill="none" stroke="#000000" stroke-width="2" d="M5.437,99.679H2.878"/>
<path fill="none" stroke="#000000" stroke-width="2" d="M2.878,14.286h2.559"/>
<path fill="none" stroke="#000000" stroke-width="2" d="M2.878,26.759h2.559"/>
<path fill="none" stroke="#000000" stroke-width="2" d="M2.878,39.339h2.559"/>
<path fill="none" stroke="#000000" stroke-width="2" d="M2.878,51.918h2.559"/>
<path fill="none" stroke="#000000" stroke-width="2" d="M2.878,64.498h2.559"/>
<path fill="none" stroke="#000000" stroke-width="2" d="M2.878,77.078h2.559"/>
<path fill="none" stroke="#000000" stroke-width="2" d="M2.878,89.657h2.559"/>
<path fill="none" stroke="#000000" stroke-width="2" d="M2.878,102.238h2.559"/>
</svg>
