<?xml version="1.0" encoding="utf-8"?>
<!-- Generator: Adobe Illustrator 14.0.0, SVG Export Plug-In . SVG Version: 6.00 Build 43363)  -->
<!DOCTYPE svg PUBLIC "-//W3C//DTD SVG 1.1//EN" "http://www.w3.org/Graphics/SVG/1.1/DTD/svg11.dtd">
<svg version="1.1" id="图层_1" xmlns="http://www.w3.org/2000/svg" xmlns:xlink="http://www.w3.org/1999/xlink" x="0px" y="0px"
	 width="10.447px" height="106.502px" viewBox="0 0 10.447 106.502" enable-background="new 0 0 10.447 106.502"
	 xml:space="preserve">
<path fill="none" stroke="#000000" stroke-width="2" d="M2.985,64.391h4.478"/>
<path fill="none" stroke="#000000" stroke-width="2" d="M2.985,69.935h4.478"/>
<path fill="none" stroke="#000000" stroke-width="2" d="M2.985,75.478h4.478"/>
<path fill="none" stroke="#000000" stroke-width="2" d="M2.985,81.128h4.478"/>
<path fill="none" stroke="#000000" stroke-width="2" d="M2.985,86.671h4.478"/>
<path fill="none" stroke="#000000" stroke-width="2" d="M2.985,92.322h4.478"/>
<path fill="none" stroke="#000000" stroke-width="2" d="M2.985,97.865h4.478"/>
<path fill="none" stroke="#000000" stroke-width="2" d="M2.985,103.408h4.478"/>
<path fill="none" stroke="#000000" stroke-width="2" d="M4.051,59.381H6.29"/>
<path fill="none" stroke="#000000" stroke-width="2" d="M4.051,64.924H6.29"/>
<path fill="none" stroke="#000000" stroke-width="2" d="M4.051,70.468H6.29"/>
<path fill="none" stroke="#000000" stroke-width="2" d="M4.051,76.117H6.29"/>
<path fill="none" stroke="#000000" stroke-width="2" d="M4.051,81.661H6.29"/>
<path fill="none" stroke="#000000" stroke-width="2" d="M4.051,87.204H6.29"/>
<path fill="none" stroke="#000000" stroke-width="2" d="M4.051,92.855H6.29"/>
<path fill="none" stroke="#000000" stroke-width="2" d="M4.051,98.398H6.29"/>
<path fill="none" stroke="#000000" stroke-width="2" d="M4.051,59.914H6.29"/>
<path fill="none" stroke="#000000" stroke-width="2" d="M4.051,65.457H6.29"/>
<path fill="none" stroke="#000000" stroke-width="2" d="M4.051,71.108H6.29"/>
<path fill="none" stroke="#000000" stroke-width="2" d="M4.051,76.651H6.29"/>
<path fill="none" stroke="#000000" stroke-width="2" d="M4.051,82.195H6.29"/>
<path fill="none" stroke="#000000" stroke-width="2" d="M4.051,87.844H6.29"/>
<path fill="none" stroke="#000000" stroke-width="2" d="M4.051,93.388H6.29"/>
<path fill="none" stroke="#000000" stroke-width="2" d="M4.051,98.931H6.29"/>
<path fill="none" stroke="#000000" stroke-width="2" d="M4.051,60.447H6.29"/>
<path fill="none" stroke="#000000" stroke-width="2" d="M4.051,65.99H6.29"/>
<path fill="none" stroke="#000000" stroke-width="2" d="M4.051,71.641H6.29"/>
<path fill="none" stroke="#000000" stroke-width="2" d="M4.051,77.184H6.29"/>
<path fill="none" stroke="#000000" stroke-width="2" d="M4.051,82.834H6.29"/>
<path fill="none" stroke="#000000" stroke-width="2" d="M4.051,88.377H6.29"/>
<path fill="none" stroke="#000000" stroke-width="2" d="M4.051,93.921H6.29"/>
<path fill="none" stroke="#000000" stroke-width="2" d="M4.051,99.571H6.29"/>
<path fill="none" stroke="#000000" stroke-width="2" d="M4.051,61.086H6.29"/>
<path fill="none" stroke="#000000" stroke-width="2" d="M4.051,66.63H6.29"/>
<path fill="none" stroke="#000000" stroke-width="2" d="M4.051,72.173H6.29"/>
<path fill="none" stroke="#000000" stroke-width="2" d="M4.051,77.717H6.29"/>
<path fill="none" stroke="#000000" stroke-width="2" d="M4.051,83.366H6.29"/>
<path fill="none" stroke="#000000" stroke-width="2" d="M4.051,88.91H6.29"/>
<path fill="none" stroke="#000000" stroke-width="2" d="M4.051,94.453H6.29"/>
<path fill="none" stroke="#000000" stroke-width="2" d="M4.051,100.104H6.29"/>
<path fill="none" stroke="#000000" stroke-width="2" d="M4.051,61.619H6.29"/>
<path fill="none" stroke="#000000" stroke-width="2" d="M4.051,67.163H6.29"/>
<path fill="none" stroke="#000000" stroke-width="2" d="M4.051,72.706H6.29"/>
<path fill="none" stroke="#000000" stroke-width="2" d="M4.051,78.357H6.29"/>
<path fill="none" stroke="#000000" stroke-width="2" d="M4.051,83.9H6.29"/>
<path fill="none" stroke="#000000" stroke-width="2" d="M4.051,89.444H6.29"/>
<path fill="none" stroke="#000000" stroke-width="2" d="M4.051,95.093H6.29"/>
<path fill="none" stroke="#000000" stroke-width="2" d="M4.051,100.637H6.29"/>
<path fill="none" stroke="#000000" stroke-width="2" d="M4.051,62.153H6.29"/>
<path fill="none" stroke="#000000" stroke-width="2" d="M4.051,67.697H6.29"/>
<path fill="none" stroke="#000000" stroke-width="2" d="M4.051,73.24H6.29"/>
<path fill="none" stroke="#000000" stroke-width="2" d="M4.051,78.89H6.29"/>
<path fill="none" stroke="#000000" stroke-width="2" d="M4.051,84.433H6.29"/>
<path fill="none" stroke="#000000" stroke-width="2" d="M4.051,90.083H6.29"/>
<path fill="none" stroke="#000000" stroke-width="2" d="M4.051,95.626H6.29"/>
<path fill="none" stroke="#000000" stroke-width="2" d="M4.051,101.17H6.29"/>
<path fill="none" stroke="#000000" stroke-width="2" d="M4.051,62.686H6.29"/>
<path fill="none" stroke="#000000" stroke-width="2" d="M4.051,68.229H6.29"/>
<path fill="none" stroke="#000000" stroke-width="2" d="M4.051,73.879H6.29"/>
<path fill="none" stroke="#000000" stroke-width="2" d="M4.051,79.422H6.29"/>
<path fill="none" stroke="#000000" stroke-width="2" d="M4.051,84.966H6.29"/>
<path fill="none" stroke="#000000" stroke-width="2" d="M4.051,90.615H6.29"/>
<path fill="none" stroke="#000000" stroke-width="2" d="M4.051,96.159H6.29"/>
<path fill="none" stroke="#000000" stroke-width="2" d="M4.051,101.81H6.29"/>
<path fill="none" stroke="#000000" stroke-width="2" d="M4.051,63.325H6.29"/>
<path fill="none" stroke="#000000" stroke-width="2" d="M4.051,68.868H6.29"/>
<path fill="none" stroke="#000000" stroke-width="2" d="M4.051,74.412H6.29"/>
<path fill="none" stroke="#000000" stroke-width="2" d="M4.051,79.955H6.29"/>
<path fill="none" stroke="#000000" stroke-width="2" d="M4.051,85.606H6.29"/>
<path fill="none" stroke="#000000" stroke-width="2" d="M4.051,91.149H6.29"/>
<path fill="none" stroke="#000000" stroke-width="2" d="M4.051,96.693H6.29"/>
<path fill="none" stroke="#000000" stroke-width="2" d="M4.051,102.342H6.29"/>
<path fill="none" stroke="#000000" stroke-width="2" d="M4.051,63.859H6.29"/>
<path fill="none" stroke="#000000" stroke-width="2" d="M4.051,69.402H6.29"/>
<path fill="none" stroke="#000000" stroke-width="2" d="M4.051,74.946H6.29"/>
<path fill="none" stroke="#000000" stroke-width="2" d="M4.051,80.595H6.29"/>
<path fill="none" stroke="#000000" stroke-width="2" d="M4.051,86.139H6.29"/>
<path fill="none" stroke="#000000" stroke-width="2" d="M4.051,91.682H6.29"/>
<path fill="none" stroke="#000000" stroke-width="2" d="M4.051,97.332H6.29"/>
<path fill="none" stroke="#000000" stroke-width="2" d="M4.051,102.875H6.29"/>
<path fill="none" stroke="#000000" stroke-width="2" d="M2.985,2.988h4.478"/>
<path fill="none" stroke="#000000" stroke-width="2" d="M2.985,58.848h4.478"/>
<path fill="none" stroke="#000000" stroke-width="2" d="M2.985,8.531h4.478"/>
<path fill="none" stroke="#000000" stroke-width="2" d="M2.985,14.074h4.478"/>
<path fill="none" stroke="#000000" stroke-width="2" d="M2.985,19.617h4.478"/>
<path fill="none" stroke="#000000" stroke-width="2" d="M2.985,25.268h4.478"/>
<path fill="none" stroke="#000000" stroke-width="2" d="M2.985,30.811h4.478"/>
<path fill="none" stroke="#000000" stroke-width="2" d="M2.985,36.461h4.478"/>
<path fill="none" stroke="#000000" stroke-width="2" d="M2.985,42.004h4.478"/>
<path fill="none" stroke="#000000" stroke-width="2" d="M2.985,47.548h4.478"/>
<path fill="none" stroke="#000000" stroke-width="2" d="M2.985,53.198h4.478"/>
<path fill="none" stroke="#000000" stroke-width="2" d="M4.051,3.521H6.29"/>
<path fill="none" stroke="#000000" stroke-width="2" d="M4.051,9.064H6.29"/>
<path fill="none" stroke="#000000" stroke-width="2" d="M4.051,14.608H6.29"/>
<path fill="none" stroke="#000000" stroke-width="2" d="M4.051,20.257H6.29"/>
<path fill="none" stroke="#000000" stroke-width="2" d="M4.051,25.801H6.29"/>
<path fill="none" stroke="#000000" stroke-width="2" d="M4.051,31.344H6.29"/>
<path fill="none" stroke="#000000" stroke-width="2" d="M4.051,36.994H6.29"/>
<path fill="none" stroke="#000000" stroke-width="2" d="M4.051,42.537H6.29"/>
<path fill="none" stroke="#000000" stroke-width="2" d="M4.051,48.081H6.29"/>
<path fill="none" stroke="#000000" stroke-width="2" d="M4.051,53.731H6.29"/>
<path fill="none" stroke="#000000" stroke-width="2" d="M4.051,4.053H6.29"/>
<path fill="none" stroke="#000000" stroke-width="2" d="M4.051,9.597H6.29"/>
<path fill="none" stroke="#000000" stroke-width="2" d="M4.051,15.247H6.29"/>
<path fill="none" stroke="#000000" stroke-width="2" d="M4.051,20.79H6.29"/>
<path fill="none" stroke="#000000" stroke-width="2" d="M4.051,26.333H6.29"/>
<path fill="none" stroke="#000000" stroke-width="2" d="M4.051,31.984H6.29"/>
<path fill="none" stroke="#000000" stroke-width="2" d="M4.051,37.528H6.29"/>
<path fill="none" stroke="#000000" stroke-width="2" d="M4.051,43.071H6.29"/>
<path fill="none" stroke="#000000" stroke-width="2" d="M4.051,48.721H6.29"/>
<path fill="none" stroke="#000000" stroke-width="2" d="M4.051,54.264H6.29"/>
<path fill="none" stroke="#000000" stroke-width="2" d="M4.051,4.586H6.29"/>
<path fill="none" stroke="#000000" stroke-width="2" d="M4.051,10.13H6.29"/>
<path fill="none" stroke="#000000" stroke-width="2" d="M4.051,15.78H6.29"/>
<path fill="none" stroke="#000000" stroke-width="2" d="M4.051,21.323H6.29"/>
<path fill="none" stroke="#000000" stroke-width="2" d="M4.051,26.866H6.29"/>
<path fill="none" stroke="#000000" stroke-width="2" d="M4.051,32.517H6.29"/>
<path fill="none" stroke="#000000" stroke-width="2" d="M4.051,38.06H6.29"/>
<path fill="none" stroke="#000000" stroke-width="2" d="M4.051,43.71H6.29"/>
<path fill="none" stroke="#000000" stroke-width="2" d="M4.051,49.253H6.29"/>
<path fill="none" stroke="#000000" stroke-width="2" d="M4.051,54.797H6.29"/>
<path fill="none" stroke="#000000" stroke-width="2" d="M4.051,5.226H6.29"/>
<path fill="none" stroke="#000000" stroke-width="2" d="M4.051,10.77H6.29"/>
<path fill="none" stroke="#000000" stroke-width="2" d="M4.051,16.313H6.29"/>
<path fill="none" stroke="#000000" stroke-width="2" d="M4.051,21.857H6.29"/>
<path fill="none" stroke="#000000" stroke-width="2" d="M4.051,27.506H6.29"/>
<path fill="none" stroke="#000000" stroke-width="2" d="M4.051,33.05H6.29"/>
<path fill="none" stroke="#000000" stroke-width="2" d="M4.051,38.593H6.29"/>
<path fill="none" stroke="#000000" stroke-width="2" d="M4.051,44.243H6.29"/>
<path fill="none" stroke="#000000" stroke-width="2" d="M4.051,49.786H6.29"/>
<path fill="none" stroke="#000000" stroke-width="2" d="M4.051,55.437H6.29"/>
<path fill="none" stroke="#000000" stroke-width="2" d="M4.051,5.759H6.29"/>
<path fill="none" stroke="#000000" stroke-width="2" d="M4.051,11.303H6.29"/>
<path fill="none" stroke="#000000" stroke-width="2" d="M4.051,16.846H6.29"/>
<path fill="none" stroke="#000000" stroke-width="2" d="M4.051,22.496H6.29"/>
<path fill="none" stroke="#000000" stroke-width="2" d="M4.051,28.039H6.29"/>
<path fill="none" stroke="#000000" stroke-width="2" d="M4.051,33.582H6.29"/>
<path fill="none" stroke="#000000" stroke-width="2" d="M4.051,39.233H6.29"/>
<path fill="none" stroke="#000000" stroke-width="2" d="M4.051,44.777H6.29"/>
<path fill="none" stroke="#000000" stroke-width="2" d="M4.051,50.32H6.29"/>
<path fill="none" stroke="#000000" stroke-width="2" d="M4.051,55.97H6.29"/>
<path fill="none" stroke="#000000" stroke-width="2" d="M4.051,6.292H6.29"/>
<path fill="none" stroke="#000000" stroke-width="2" d="M4.051,11.835H6.29"/>
<path fill="none" stroke="#000000" stroke-width="2" d="M4.051,17.379H6.29"/>
<path fill="none" stroke="#000000" stroke-width="2" d="M4.051,23.029H6.29"/>
<path fill="none" stroke="#000000" stroke-width="2" d="M4.051,28.573H6.29"/>
<path fill="none" stroke="#000000" stroke-width="2" d="M4.051,34.222H6.29"/>
<path fill="none" stroke="#000000" stroke-width="2" d="M4.051,39.766H6.29"/>
<path fill="none" stroke="#000000" stroke-width="2" d="M4.051,45.309H6.29"/>
<path fill="none" stroke="#000000" stroke-width="2" d="M4.051,50.959H6.29"/>
<path fill="none" stroke="#000000" stroke-width="2" d="M4.051,56.502H6.29"/>
<path fill="none" stroke="#000000" stroke-width="2" d="M4.051,6.825H6.29"/>
<path fill="none" stroke="#000000" stroke-width="2" d="M4.051,12.368H6.29"/>
<path fill="none" stroke="#000000" stroke-width="2" d="M4.051,18.019H6.29"/>
<path fill="none" stroke="#000000" stroke-width="2" d="M4.051,23.562H6.29"/>
<path fill="none" stroke="#000000" stroke-width="2" d="M4.051,29.106H6.29"/>
<path fill="none" stroke="#000000" stroke-width="2" d="M4.051,34.755H6.29"/>
<path fill="none" stroke="#000000" stroke-width="2" d="M4.051,40.299H6.29"/>
<path fill="none" stroke="#000000" stroke-width="2" d="M4.051,45.948H6.29"/>
<path fill="none" stroke="#000000" stroke-width="2" d="M4.051,51.492H6.29"/>
<path fill="none" stroke="#000000" stroke-width="2" d="M4.051,57.035H6.29"/>
<path fill="none" stroke="#000000" stroke-width="2" d="M4.051,7.465H6.29"/>
<path fill="none" stroke="#000000" stroke-width="2" d="M4.051,13.008H6.29"/>
<path fill="none" stroke="#000000" stroke-width="2" d="M4.051,18.552H6.29"/>
<path fill="none" stroke="#000000" stroke-width="2" d="M4.051,24.095H6.29"/>
<path fill="none" stroke="#000000" stroke-width="2" d="M4.051,29.745H6.29"/>
<path fill="none" stroke="#000000" stroke-width="2" d="M4.051,35.288H6.29"/>
<path fill="none" stroke="#000000" stroke-width="2" d="M4.051,40.832H6.29"/>
<path fill="none" stroke="#000000" stroke-width="2" d="M4.051,46.482H6.29"/>
<path fill="none" stroke="#000000" stroke-width="2" d="M4.051,52.026H6.29"/>
<path fill="none" stroke="#000000" stroke-width="2" d="M4.051,57.569H6.29"/>
<path fill="none" stroke="#000000" stroke-width="2" d="M4.051,7.997H6.29"/>
<path fill="none" stroke="#000000" stroke-width="2" d="M4.051,13.541H6.29"/>
<path fill="none" stroke="#000000" stroke-width="2" d="M4.051,19.084H6.29"/>
<path fill="none" stroke="#000000" stroke-width="2" d="M4.051,24.735H6.29"/>
<path fill="none" stroke="#000000" stroke-width="2" d="M4.051,30.278H6.29"/>
<path fill="none" stroke="#000000" stroke-width="2" d="M4.051,35.822H6.29"/>
<path fill="none" stroke="#000000" stroke-width="2" d="M4.051,41.472H6.29"/>
<path fill="none" stroke="#000000" stroke-width="2" d="M4.051,47.015H6.29"/>
<path fill="none" stroke="#000000" stroke-width="2" d="M4.051,52.558H6.29"/>
<path fill="none" stroke="#000000" stroke-width="2" d="M4.051,58.208H6.29"/>
</svg>
