<?xml version="1.0" encoding="utf-8"?>
<!-- Generator: Adobe Illustrator 14.0.0, SVG Export Plug-In . SVG Version: 6.00 Build 43363)  -->
<!DOCTYPE svg PUBLIC "-//W3C//DTD SVG 1.1//EN" "http://www.w3.org/Graphics/SVG/1.1/DTD/svg11.dtd">
<svg version="1.1" id="图层_1" xmlns="http://www.w3.org/2000/svg" xmlns:xlink="http://www.w3.org/1999/xlink" x="0px" y="0px"
	 width="11.312px" height="106.502px" viewBox="0 0 11.312 106.502" enable-background="new 0 0 11.312 106.502"
	 xml:space="preserve">
<path fill="none" stroke="#000000" stroke-width="2" d="M2.988,71.392h1.281"/>
<path fill="none" stroke="#000000" stroke-width="2" d="M2.988,78.115h1.281"/>
<path fill="none" stroke="#000000" stroke-width="2" d="M2.988,84.731h1.281"/>
<path fill="none" stroke="#000000" stroke-width="2" d="M2.988,91.453h1.281"/>
<path fill="none" stroke="#000000" stroke-width="2" d="M2.988,98.176h1.281"/>
<path fill="none" stroke="#000000" stroke-width="2" d="M2.988,72.779h1.281"/>
<path fill="none" stroke="#000000" stroke-width="2" d="M2.988,79.395h1.281"/>
<path fill="none" stroke="#000000" stroke-width="2" d="M2.988,86.117h1.281"/>
<path fill="none" stroke="#000000" stroke-width="2" d="M2.988,92.84h1.281"/>
<path fill="none" stroke="#000000" stroke-width="2" d="M2.988,99.563h1.281"/>
<path fill="none" stroke="#000000" stroke-width="2" d="M2.988,74.06h1.281"/>
<path fill="none" stroke="#000000" stroke-width="2" d="M2.988,80.782h1.281"/>
<path fill="none" stroke="#000000" stroke-width="2" d="M2.988,87.505h1.281"/>
<path fill="none" stroke="#000000" stroke-width="2" d="M2.988,94.121h1.281"/>
<path fill="none" stroke="#000000" stroke-width="2" d="M2.988,100.844h1.281"/>
<path fill="none" stroke="#000000" stroke-width="2" d="M2.988,75.447h1.281"/>
<path fill="none" stroke="#000000" stroke-width="2" d="M2.988,82.063h1.281"/>
<path fill="none" stroke="#000000" stroke-width="2" d="M2.988,88.785h1.281"/>
<path fill="none" stroke="#000000" stroke-width="2" d="M2.988,95.508h1.281"/>
<path fill="none" stroke="#000000" stroke-width="2" d="M2.988,102.231h1.281"/>
<path fill="none" stroke="#000000" stroke-width="2" d="M2.988,76.727h5.335"/>
<path fill="none" stroke="#000000" stroke-width="2" d="M2.988,83.45h5.335"/>
<path fill="none" stroke="#000000" stroke-width="2" d="M2.988,90.173h5.335"/>
<path fill="none" stroke="#000000" stroke-width="2" d="M2.988,96.788h5.335"/>
<path fill="none" stroke="#000000" stroke-width="2" d="M2.988,103.511h5.335"/>
<path fill="none" stroke="#000000" stroke-width="2" d="M2.988,70.751h1.281"/>
<path fill="none" stroke="#000000" stroke-width="2" d="M2.988,77.367h1.281"/>
<path fill="none" stroke="#000000" stroke-width="2" d="M2.988,84.09h1.281"/>
<path fill="none" stroke="#000000" stroke-width="2" d="M2.988,90.813h1.281"/>
<path fill="none" stroke="#000000" stroke-width="2" d="M2.988,97.535h1.281"/>
<path fill="none" stroke="#000000" stroke-width="2" d="M2.988,72.032h1.281"/>
<path fill="none" stroke="#000000" stroke-width="2" d="M2.988,78.755h1.281"/>
<path fill="none" stroke="#000000" stroke-width="2" d="M2.988,85.478h1.281"/>
<path fill="none" stroke="#000000" stroke-width="2" d="M2.988,92.2h1.281"/>
<path fill="none" stroke="#000000" stroke-width="2" d="M2.988,98.816h1.281"/>
<path fill="none" stroke="#000000" stroke-width="2" d="M2.988,73.419h2.668"/>
<path fill="none" stroke="#000000" stroke-width="2" d="M2.988,80.035h2.668"/>
<path fill="none" stroke="#000000" stroke-width="2" d="M2.988,86.758h2.668"/>
<path fill="none" stroke="#000000" stroke-width="2" d="M2.988,93.481h2.668"/>
<path fill="none" stroke="#000000" stroke-width="2" d="M2.988,100.203h2.668"/>
<path fill="none" stroke="#000000" stroke-width="2" d="M4.269,74.807H2.988"/>
<path fill="none" stroke="#000000" stroke-width="2" d="M4.269,81.422H2.988"/>
<path fill="none" stroke="#000000" stroke-width="2" d="M4.269,88.145H2.988"/>
<path fill="none" stroke="#000000" stroke-width="2" d="M4.269,94.867H2.988"/>
<path fill="none" stroke="#000000" stroke-width="2" d="M4.269,101.484H2.988"/>
<path fill="none" stroke="#000000" stroke-width="2" d="M2.988,76.087h1.281"/>
<path fill="none" stroke="#000000" stroke-width="2" d="M2.988,82.81h1.281"/>
<path fill="none" stroke="#000000" stroke-width="2" d="M2.988,89.426h1.281"/>
<path fill="none" stroke="#000000" stroke-width="2" d="M2.988,96.149h1.281"/>
<path fill="none" stroke="#000000" stroke-width="2" d="M2.988,102.871h1.281"/>
<path fill="none" stroke="#000000" stroke-width="2" d="M2.988,2.991h5.335"/>
<path fill="none" stroke="#000000" stroke-width="2" d="M2.988,70.112h5.335"/>
<path fill="none" stroke="#000000" stroke-width="2" d="M2.988,4.272h1.281"/>
<path fill="none" stroke="#000000" stroke-width="2" d="M2.988,10.994h1.281"/>
<path fill="none" stroke="#000000" stroke-width="2" d="M2.988,17.611h1.281"/>
<path fill="none" stroke="#000000" stroke-width="2" d="M2.988,24.333h1.281"/>
<path fill="none" stroke="#000000" stroke-width="2" d="M2.988,31.056h1.281"/>
<path fill="none" stroke="#000000" stroke-width="2" d="M2.988,37.779h1.281"/>
<path fill="none" stroke="#000000" stroke-width="2" d="M2.988,44.501h1.281"/>
<path fill="none" stroke="#000000" stroke-width="2" d="M2.988,51.224h1.281"/>
<path fill="none" stroke="#000000" stroke-width="2" d="M2.988,57.84h1.281"/>
<path fill="none" stroke="#000000" stroke-width="2" d="M2.988,64.563h1.281"/>
<path fill="none" stroke="#000000" stroke-width="2" d="M2.988,5.658h1.281"/>
<path fill="none" stroke="#000000" stroke-width="2" d="M2.988,12.275h1.281"/>
<path fill="none" stroke="#000000" stroke-width="2" d="M2.988,18.997h1.281"/>
<path fill="none" stroke="#000000" stroke-width="2" d="M2.988,25.72h1.281"/>
<path fill="none" stroke="#000000" stroke-width="2" d="M2.988,32.443h1.281"/>
<path fill="none" stroke="#000000" stroke-width="2" d="M2.988,39.165h1.281"/>
<path fill="none" stroke="#000000" stroke-width="2" d="M2.988,45.781h1.281"/>
<path fill="none" stroke="#000000" stroke-width="2" d="M2.988,52.504h1.281"/>
<path fill="none" stroke="#000000" stroke-width="2" d="M2.988,59.227h1.281"/>
<path fill="none" stroke="#000000" stroke-width="2" d="M2.988,65.949h1.281"/>
<path fill="none" stroke="#000000" stroke-width="2" d="M2.988,6.94h1.281"/>
<path fill="none" stroke="#000000" stroke-width="2" d="M2.988,13.662h1.281"/>
<path fill="none" stroke="#000000" stroke-width="2" d="M2.988,20.385h1.281"/>
<path fill="none" stroke="#000000" stroke-width="2" d="M2.988,27h1.281"/>
<path fill="none" stroke="#000000" stroke-width="2" d="M2.988,33.723h1.281"/>
<path fill="none" stroke="#000000" stroke-width="2" d="M2.988,40.447h1.281"/>
<path fill="none" stroke="#000000" stroke-width="2" d="M2.988,47.169h1.281"/>
<path fill="none" stroke="#000000" stroke-width="2" d="M2.988,53.892h1.281"/>
<path fill="none" stroke="#000000" stroke-width="2" d="M2.988,60.615h1.281"/>
<path fill="none" stroke="#000000" stroke-width="2" d="M2.988,67.23h1.281"/>
<path fill="none" stroke="#000000" stroke-width="2" d="M2.988,8.326h1.281"/>
<path fill="none" stroke="#000000" stroke-width="2" d="M2.988,14.943h1.281"/>
<path fill="none" stroke="#000000" stroke-width="2" d="M2.988,21.665h1.281"/>
<path fill="none" stroke="#000000" stroke-width="2" d="M2.988,28.388h1.281"/>
<path fill="none" stroke="#000000" stroke-width="2" d="M2.988,35.111h1.281"/>
<path fill="none" stroke="#000000" stroke-width="2" d="M2.988,41.833h1.281"/>
<path fill="none" stroke="#000000" stroke-width="2" d="M2.988,48.556h1.281"/>
<path fill="none" stroke="#000000" stroke-width="2" d="M2.988,55.172h1.281"/>
<path fill="none" stroke="#000000" stroke-width="2" d="M2.988,61.895h1.281"/>
<path fill="none" stroke="#000000" stroke-width="2" d="M2.988,68.617h1.281"/>
<path fill="none" stroke="#000000" stroke-width="2" d="M2.988,9.714h5.335"/>
<path fill="none" stroke="#000000" stroke-width="2" d="M2.988,16.329h5.335"/>
<path fill="none" stroke="#000000" stroke-width="2" d="M2.988,23.052h5.335"/>
<path fill="none" stroke="#000000" stroke-width="2" d="M2.988,29.775h5.335"/>
<path fill="none" stroke="#000000" stroke-width="2" d="M2.988,36.391h5.335"/>
<path fill="none" stroke="#000000" stroke-width="2" d="M2.988,43.114h5.335"/>
<path fill="none" stroke="#000000" stroke-width="2" d="M2.988,49.836h5.335"/>
<path fill="none" stroke="#000000" stroke-width="2" d="M2.988,56.559h5.335"/>
<path fill="none" stroke="#000000" stroke-width="2" d="M2.988,63.281h5.335"/>
<path fill="none" stroke="#000000" stroke-width="2" d="M2.988,3.631h1.281"/>
<path fill="none" stroke="#000000" stroke-width="2" d="M2.988,10.247h1.281"/>
<path fill="none" stroke="#000000" stroke-width="2" d="M2.988,16.97h1.281"/>
<path fill="none" stroke="#000000" stroke-width="2" d="M2.988,23.693h1.281"/>
<path fill="none" stroke="#000000" stroke-width="2" d="M2.988,30.415h1.281"/>
<path fill="none" stroke="#000000" stroke-width="2" d="M2.988,37.138h1.281"/>
<path fill="none" stroke="#000000" stroke-width="2" d="M2.988,43.861h1.281"/>
<path fill="none" stroke="#000000" stroke-width="2" d="M2.988,50.477h1.281"/>
<path fill="none" stroke="#000000" stroke-width="2" d="M2.988,57.199h1.281"/>
<path fill="none" stroke="#000000" stroke-width="2" d="M2.988,63.922h1.281"/>
<path fill="none" stroke="#000000" stroke-width="2" d="M2.988,5.019h1.281"/>
<path fill="none" stroke="#000000" stroke-width="2" d="M2.988,11.635h1.281"/>
<path fill="none" stroke="#000000" stroke-width="2" d="M2.988,18.358h1.281"/>
<path fill="none" stroke="#000000" stroke-width="2" d="M2.988,25.08h1.281"/>
<path fill="none" stroke="#000000" stroke-width="2" d="M2.988,31.696h1.281"/>
<path fill="none" stroke="#000000" stroke-width="2" d="M2.988,38.418h1.281"/>
<path fill="none" stroke="#000000" stroke-width="2" d="M2.988,45.141h1.281"/>
<path fill="none" stroke="#000000" stroke-width="2" d="M2.988,51.864h1.281"/>
<path fill="none" stroke="#000000" stroke-width="2" d="M2.988,58.587h1.281"/>
<path fill="none" stroke="#000000" stroke-width="2" d="M2.988,65.31h1.281"/>
<path fill="none" stroke="#000000" stroke-width="2" d="M2.988,6.299h2.668"/>
<path fill="none" stroke="#000000" stroke-width="2" d="M2.988,12.915h2.668"/>
<path fill="none" stroke="#000000" stroke-width="2" d="M2.988,19.638h2.668"/>
<path fill="none" stroke="#000000" stroke-width="2" d="M2.988,26.361h2.668"/>
<path fill="none" stroke="#000000" stroke-width="2" d="M2.988,33.083h2.668"/>
<path fill="none" stroke="#000000" stroke-width="2" d="M2.988,39.806h2.668"/>
<path fill="none" stroke="#000000" stroke-width="2" d="M2.988,46.529h2.668"/>
<path fill="none" stroke="#000000" stroke-width="2" d="M2.988,53.145h2.668"/>
<path fill="none" stroke="#000000" stroke-width="2" d="M2.988,59.867h2.668"/>
<path fill="none" stroke="#000000" stroke-width="2" d="M2.988,66.59h2.668"/>
<path fill="none" stroke="#000000" stroke-width="2" d="M4.269,7.687H2.988"/>
<path fill="none" stroke="#000000" stroke-width="2" d="M4.269,14.302H2.988"/>
<path fill="none" stroke="#000000" stroke-width="2" d="M4.269,21.025H2.988"/>
<path fill="none" stroke="#000000" stroke-width="2" d="M4.269,27.747H2.988"/>
<path fill="none" stroke="#000000" stroke-width="2" d="M4.269,34.47H2.988"/>
<path fill="none" stroke="#000000" stroke-width="2" d="M4.269,41.086H2.988"/>
<path fill="none" stroke="#000000" stroke-width="2" d="M4.269,47.809H2.988"/>
<path fill="none" stroke="#000000" stroke-width="2" d="M4.269,54.531H2.988"/>
<path fill="none" stroke="#000000" stroke-width="2" d="M4.269,61.254H2.988"/>
<path fill="none" stroke="#000000" stroke-width="2" d="M4.269,67.977H2.988"/>
<path fill="none" stroke="#000000" stroke-width="2" d="M2.988,8.967h1.281"/>
<path fill="none" stroke="#000000" stroke-width="2" d="M2.988,15.69h1.281"/>
<path fill="none" stroke="#000000" stroke-width="2" d="M2.988,22.306h1.281"/>
<path fill="none" stroke="#000000" stroke-width="2" d="M2.988,29.029h1.281"/>
<path fill="none" stroke="#000000" stroke-width="2" d="M2.988,35.751h1.281"/>
<path fill="none" stroke="#000000" stroke-width="2" d="M2.988,42.474h1.281"/>
<path fill="none" stroke="#000000" stroke-width="2" d="M2.988,49.197h1.281"/>
<path fill="none" stroke="#000000" stroke-width="2" d="M2.988,55.919h1.281"/>
<path fill="none" stroke="#000000" stroke-width="2" d="M2.988,62.535h1.281"/>
<path fill="none" stroke="#000000" stroke-width="2" d="M2.988,69.258h1.281"/>
</svg>
