<?xml version="1.0" encoding="utf-8"?>
<!-- Generator: Adobe Illustrator 14.0.0, SVG Export Plug-In . SVG Version: 6.00 Build 43363)  -->
<!DOCTYPE svg PUBLIC "-//W3C//DTD SVG 1.1//EN" "http://www.w3.org/Graphics/SVG/1.1/DTD/svg11.dtd">
<svg version="1.1" id="图层_1" xmlns="http://www.w3.org/2000/svg" xmlns:xlink="http://www.w3.org/1999/xlink" x="0px" y="0px"
	 width="9.914px" height="106.502px" viewBox="0 0 9.914 106.502" enable-background="new 0 0 9.914 106.502" xml:space="preserve">
<path fill="none" stroke="#000000" stroke-width="2" d="M2.985,58.208H6.93"/>
<path fill="none" stroke="#000000" stroke-width="2" d="M2.985,63.325H6.93"/>
<path fill="none" stroke="#000000" stroke-width="2" d="M2.985,68.336H6.93"/>
<path fill="none" stroke="#000000" stroke-width="2" d="M2.985,73.347H6.93"/>
<path fill="none" stroke="#000000" stroke-width="2" d="M2.985,78.357H6.93"/>
<path fill="none" stroke="#000000" stroke-width="2" d="M2.985,83.367H6.93"/>
<path fill="none" stroke="#000000" stroke-width="2" d="M2.985,88.378H6.93"/>
<path fill="none" stroke="#000000" stroke-width="2" d="M2.985,93.389H6.93"/>
<path fill="none" stroke="#000000" stroke-width="2" d="M2.985,98.506H6.93"/>
<path fill="none" stroke="#000000" stroke-width="2" d="M3.944,53.731H5.97"/>
<path fill="none" stroke="#000000" stroke-width="2" d="M3.944,58.741H5.97"/>
<path fill="none" stroke="#000000" stroke-width="2" d="M3.944,63.752H5.97"/>
<path fill="none" stroke="#000000" stroke-width="2" d="M3.944,68.763H5.97"/>
<path fill="none" stroke="#000000" stroke-width="2" d="M3.944,73.879H5.97"/>
<path fill="none" stroke="#000000" stroke-width="2" d="M3.944,78.89H5.97"/>
<path fill="none" stroke="#000000" stroke-width="2" d="M3.944,83.901H5.97"/>
<path fill="none" stroke="#000000" stroke-width="2" d="M3.944,88.911H5.97"/>
<path fill="none" stroke="#000000" stroke-width="2" d="M3.944,93.921H5.97"/>
<path fill="none" stroke="#000000" stroke-width="2" d="M3.944,98.932H5.97"/>
<path fill="none" stroke="#000000" stroke-width="2" d="M3.944,54.264H5.97"/>
<path fill="none" stroke="#000000" stroke-width="2" d="M3.944,59.275H5.97"/>
<path fill="none" stroke="#000000" stroke-width="2" d="M3.944,64.285H5.97"/>
<path fill="none" stroke="#000000" stroke-width="2" d="M3.944,69.295H5.97"/>
<path fill="none" stroke="#000000" stroke-width="2" d="M3.944,74.306H5.97"/>
<path fill="none" stroke="#000000" stroke-width="2" d="M3.944,79.317H5.97"/>
<path fill="none" stroke="#000000" stroke-width="2" d="M3.944,84.434H5.97"/>
<path fill="none" stroke="#000000" stroke-width="2" d="M3.944,89.445H5.97"/>
<path fill="none" stroke="#000000" stroke-width="2" d="M3.944,94.454H5.97"/>
<path fill="none" stroke="#000000" stroke-width="2" d="M3.944,99.465H5.97"/>
<path fill="none" stroke="#000000" stroke-width="2" d="M3.944,54.797H5.97"/>
<path fill="none" stroke="#000000" stroke-width="2" d="M3.944,59.7H5.97"/>
<path fill="none" stroke="#000000" stroke-width="2" d="M3.944,64.818H5.97"/>
<path fill="none" stroke="#000000" stroke-width="2" d="M3.944,69.828H5.97"/>
<path fill="none" stroke="#000000" stroke-width="2" d="M3.944,74.839H5.97"/>
<path fill="none" stroke="#000000" stroke-width="2" d="M3.944,79.85H5.97"/>
<path fill="none" stroke="#000000" stroke-width="2" d="M3.944,84.86H5.97"/>
<path fill="none" stroke="#000000" stroke-width="2" d="M3.944,89.87H5.97"/>
<path fill="none" stroke="#000000" stroke-width="2" d="M3.944,94.988H5.97"/>
<path fill="none" stroke="#000000" stroke-width="2" d="M3.944,99.998H5.97"/>
<path fill="none" stroke="#000000" stroke-width="2" d="M3.944,55.224H5.97"/>
<path fill="none" stroke="#000000" stroke-width="2" d="M3.944,60.234H5.97"/>
<path fill="none" stroke="#000000" stroke-width="2" d="M3.944,65.244H5.97"/>
<path fill="none" stroke="#000000" stroke-width="2" d="M3.944,70.362H5.97"/>
<path fill="none" stroke="#000000" stroke-width="2" d="M3.944,75.372H5.97"/>
<path fill="none" stroke="#000000" stroke-width="2" d="M3.944,80.383H5.97"/>
<path fill="none" stroke="#000000" stroke-width="2" d="M3.944,85.393H5.97"/>
<path fill="none" stroke="#000000" stroke-width="2" d="M3.944,90.404H5.97"/>
<path fill="none" stroke="#000000" stroke-width="2" d="M3.944,95.414H5.97"/>
<path fill="none" stroke="#000000" stroke-width="2" d="M3.944,100.425H5.97"/>
<path fill="none" stroke="#000000" stroke-width="2" d="M3.944,55.756H5.97"/>
<path fill="none" stroke="#000000" stroke-width="2" d="M3.944,60.767H5.97"/>
<path fill="none" stroke="#000000" stroke-width="2" d="M3.944,65.778H5.97"/>
<path fill="none" stroke="#000000" stroke-width="2" d="M3.944,70.788H5.97"/>
<path fill="none" stroke="#000000" stroke-width="2" d="M3.944,75.798H5.97"/>
<path fill="none" stroke="#000000" stroke-width="2" d="M3.944,80.915H5.97"/>
<path fill="none" stroke="#000000" stroke-width="2" d="M3.944,85.926H5.97"/>
<path fill="none" stroke="#000000" stroke-width="2" d="M3.944,90.937H5.97"/>
<path fill="none" stroke="#000000" stroke-width="2" d="M3.944,95.948H5.97"/>
<path fill="none" stroke="#000000" stroke-width="2" d="M3.944,100.957H5.97"/>
<path fill="none" stroke="#000000" stroke-width="2" d="M3.944,56.289H5.97"/>
<path fill="none" stroke="#000000" stroke-width="2" d="M3.944,61.3H5.97"/>
<path fill="none" stroke="#000000" stroke-width="2" d="M3.944,66.311H5.97"/>
<path fill="none" stroke="#000000" stroke-width="2" d="M3.944,71.321H5.97"/>
<path fill="none" stroke="#000000" stroke-width="2" d="M3.944,76.331H5.97"/>
<path fill="none" stroke="#000000" stroke-width="2" d="M3.944,81.342H5.97"/>
<path fill="none" stroke="#000000" stroke-width="2" d="M3.944,86.353H5.97"/>
<path fill="none" stroke="#000000" stroke-width="2" d="M3.944,91.47H5.97"/>
<path fill="none" stroke="#000000" stroke-width="2" d="M3.944,96.48H5.97"/>
<path fill="none" stroke="#000000" stroke-width="2" d="M3.944,101.49H5.97"/>
<path fill="none" stroke="#000000" stroke-width="2" d="M3.944,56.823H5.97"/>
<path fill="none" stroke="#000000" stroke-width="2" d="M3.944,61.727H5.97"/>
<path fill="none" stroke="#000000" stroke-width="2" d="M3.944,66.844H5.97"/>
<path fill="none" stroke="#000000" stroke-width="2" d="M3.944,71.854H5.97"/>
<path fill="none" stroke="#000000" stroke-width="2" d="M3.944,76.865H5.97"/>
<path fill="none" stroke="#000000" stroke-width="2" d="M3.944,81.875H5.97"/>
<path fill="none" stroke="#000000" stroke-width="2" d="M3.944,86.886H5.97"/>
<path fill="none" stroke="#000000" stroke-width="2" d="M3.944,91.896H5.97"/>
<path fill="none" stroke="#000000" stroke-width="2" d="M3.944,96.906H5.97"/>
<path fill="none" stroke="#000000" stroke-width="2" d="M3.944,102.024H5.97"/>
<path fill="none" stroke="#000000" stroke-width="2" d="M3.944,57.249H5.97"/>
<path fill="none" stroke="#000000" stroke-width="2" d="M3.944,62.259H5.97"/>
<path fill="none" stroke="#000000" stroke-width="2" d="M3.944,67.27H5.97"/>
<path fill="none" stroke="#000000" stroke-width="2" d="M3.944,72.281H5.97"/>
<path fill="none" stroke="#000000" stroke-width="2" d="M3.944,77.398H5.97"/>
<path fill="none" stroke="#000000" stroke-width="2" d="M3.944,82.408H5.97"/>
<path fill="none" stroke="#000000" stroke-width="2" d="M3.944,87.418H5.97"/>
<path fill="none" stroke="#000000" stroke-width="2" d="M3.944,92.429H5.97"/>
<path fill="none" stroke="#000000" stroke-width="2" d="M3.944,97.44H5.97"/>
<path fill="none" stroke="#000000" stroke-width="2" d="M3.944,102.45H5.97"/>
<path fill="none" stroke="#000000" stroke-width="2" d="M3.944,57.782H5.97"/>
<path fill="none" stroke="#000000" stroke-width="2" d="M3.944,62.792H5.97"/>
<path fill="none" stroke="#000000" stroke-width="2" d="M3.944,67.803H5.97"/>
<path fill="none" stroke="#000000" stroke-width="2" d="M3.944,72.814H5.97"/>
<path fill="none" stroke="#000000" stroke-width="2" d="M3.944,77.824H5.97"/>
<path fill="none" stroke="#000000" stroke-width="2" d="M3.944,82.834H5.97"/>
<path fill="none" stroke="#000000" stroke-width="2" d="M3.944,87.951H5.97"/>
<path fill="none" stroke="#000000" stroke-width="2" d="M3.944,92.962H5.97"/>
<path fill="none" stroke="#000000" stroke-width="2" d="M3.944,97.973H5.97"/>
<path fill="none" stroke="#000000" stroke-width="2" d="M2.985,2.987H6.93"/>
<path fill="none" stroke="#000000" stroke-width="2" d="M2.985,53.305H6.93"/>
<path fill="none" stroke="#000000" stroke-width="2" d="M2.985,7.89H6.93"/>
<path fill="none" stroke="#000000" stroke-width="2" d="M2.985,13.007H6.93"/>
<path fill="none" stroke="#000000" stroke-width="2" d="M2.985,18.018H6.93"/>
<path fill="none" stroke="#000000" stroke-width="2" d="M2.985,23.029H6.93"/>
<path fill="none" stroke="#000000" stroke-width="2" d="M2.985,28.038H6.93"/>
<path fill="none" stroke="#000000" stroke-width="2" d="M2.985,33.049H6.93"/>
<path fill="none" stroke="#000000" stroke-width="2" d="M2.985,38.06H6.93"/>
<path fill="none" stroke="#000000" stroke-width="2" d="M2.985,43.071H6.93"/>
<path fill="none" stroke="#000000" stroke-width="2" d="M2.985,48.188H6.93"/>
<path fill="none" stroke="#000000" stroke-width="2" d="M3.944,3.412H5.97"/>
<path fill="none" stroke="#000000" stroke-width="2" d="M3.944,8.423H5.97"/>
<path fill="none" stroke="#000000" stroke-width="2" d="M3.944,13.434H5.97"/>
<path fill="none" stroke="#000000" stroke-width="2" d="M3.944,18.445H5.97"/>
<path fill="none" stroke="#000000" stroke-width="2" d="M3.944,23.562H5.97"/>
<path fill="none" stroke="#000000" stroke-width="2" d="M3.944,28.572H5.97"/>
<path fill="none" stroke="#000000" stroke-width="2" d="M3.944,33.582H5.97"/>
<path fill="none" stroke="#000000" stroke-width="2" d="M3.944,38.593H5.97"/>
<path fill="none" stroke="#000000" stroke-width="2" d="M3.944,43.604H5.97"/>
<path fill="none" stroke="#000000" stroke-width="2" d="M3.944,48.614H5.97"/>
<path fill="none" stroke="#000000" stroke-width="2" d="M3.944,3.946H5.97"/>
<path fill="none" stroke="#000000" stroke-width="2" d="M3.944,8.956H5.97"/>
<path fill="none" stroke="#000000" stroke-width="2" d="M3.944,13.967H5.97"/>
<path fill="none" stroke="#000000" stroke-width="2" d="M3.944,18.977H5.97"/>
<path fill="none" stroke="#000000" stroke-width="2" d="M3.944,23.988H5.97"/>
<path fill="none" stroke="#000000" stroke-width="2" d="M3.944,28.998H5.97"/>
<path fill="none" stroke="#000000" stroke-width="2" d="M3.944,34.115H5.97"/>
<path fill="none" stroke="#000000" stroke-width="2" d="M3.944,39.126H5.97"/>
<path fill="none" stroke="#000000" stroke-width="2" d="M3.944,44.136H5.97"/>
<path fill="none" stroke="#000000" stroke-width="2" d="M3.944,49.147H5.97"/>
<path fill="none" stroke="#000000" stroke-width="2" d="M3.944,4.479H5.97"/>
<path fill="none" stroke="#000000" stroke-width="2" d="M3.944,9.49H5.97"/>
<path fill="none" stroke="#000000" stroke-width="2" d="M3.944,14.5H5.97"/>
<path fill="none" stroke="#000000" stroke-width="2" d="M3.944,19.51H5.97"/>
<path fill="none" stroke="#000000" stroke-width="2" d="M3.944,24.521H5.97"/>
<path fill="none" stroke="#000000" stroke-width="2" d="M3.944,29.531H5.97"/>
<path fill="none" stroke="#000000" stroke-width="2" d="M3.944,34.542H5.97"/>
<path fill="none" stroke="#000000" stroke-width="2" d="M3.944,39.552H5.97"/>
<path fill="none" stroke="#000000" stroke-width="2" d="M3.944,44.669H5.97"/>
<path fill="none" stroke="#000000" stroke-width="2" d="M3.944,49.68H5.97"/>
<path fill="none" stroke="#000000" stroke-width="2" d="M3.944,4.906H5.97"/>
<path fill="none" stroke="#000000" stroke-width="2" d="M3.944,9.915H5.97"/>
<path fill="none" stroke="#000000" stroke-width="2" d="M3.944,14.926H5.97"/>
<path fill="none" stroke="#000000" stroke-width="2" d="M3.944,20.043H5.97"/>
<path fill="none" stroke="#000000" stroke-width="2" d="M3.944,25.054H5.97"/>
<path fill="none" stroke="#000000" stroke-width="2" d="M3.944,30.065H5.97"/>
<path fill="none" stroke="#000000" stroke-width="2" d="M3.944,35.074H5.97"/>
<path fill="none" stroke="#000000" stroke-width="2" d="M3.944,40.085H5.97"/>
<path fill="none" stroke="#000000" stroke-width="2" d="M3.944,45.096H5.97"/>
<path fill="none" stroke="#000000" stroke-width="2" d="M3.944,50.213H5.97"/>
<path fill="none" stroke="#000000" stroke-width="2" d="M3.944,5.439H5.97"/>
<path fill="none" stroke="#000000" stroke-width="2" d="M3.944,10.448H5.97"/>
<path fill="none" stroke="#000000" stroke-width="2" d="M3.944,15.459H5.97"/>
<path fill="none" stroke="#000000" stroke-width="2" d="M3.944,20.47H5.97"/>
<path fill="none" stroke="#000000" stroke-width="2" d="M3.944,25.481H5.97"/>
<path fill="none" stroke="#000000" stroke-width="2" d="M3.944,30.597H5.97"/>
<path fill="none" stroke="#000000" stroke-width="2" d="M3.944,35.608H5.97"/>
<path fill="none" stroke="#000000" stroke-width="2" d="M3.944,40.618H5.97"/>
<path fill="none" stroke="#000000" stroke-width="2" d="M3.944,45.629H5.97"/>
<path fill="none" stroke="#000000" stroke-width="2" d="M3.944,50.639H5.97"/>
<path fill="none" stroke="#000000" stroke-width="2" d="M3.944,5.971H5.97"/>
<path fill="none" stroke="#000000" stroke-width="2" d="M3.944,10.982H5.97"/>
<path fill="none" stroke="#000000" stroke-width="2" d="M3.944,15.992H5.97"/>
<path fill="none" stroke="#000000" stroke-width="2" d="M3.944,21.003H5.97"/>
<path fill="none" stroke="#000000" stroke-width="2" d="M3.944,26.013H5.97"/>
<path fill="none" stroke="#000000" stroke-width="2" d="M3.944,31.024H5.97"/>
<path fill="none" stroke="#000000" stroke-width="2" d="M3.944,36.034H5.97"/>
<path fill="none" stroke="#000000" stroke-width="2" d="M3.944,41.152H5.97"/>
<path fill="none" stroke="#000000" stroke-width="2" d="M3.944,46.162H5.97"/>
<path fill="none" stroke="#000000" stroke-width="2" d="M3.944,51.172H5.97"/>
<path fill="none" stroke="#000000" stroke-width="2" d="M3.944,6.504H5.97"/>
<path fill="none" stroke="#000000" stroke-width="2" d="M3.944,11.408H5.97"/>
<path fill="none" stroke="#000000" stroke-width="2" d="M3.944,16.526H5.97"/>
<path fill="none" stroke="#000000" stroke-width="2" d="M3.944,21.535H5.97"/>
<path fill="none" stroke="#000000" stroke-width="2" d="M3.944,26.546H5.97"/>
<path fill="none" stroke="#000000" stroke-width="2" d="M3.944,31.557H5.97"/>
<path fill="none" stroke="#000000" stroke-width="2" d="M3.944,36.568H5.97"/>
<path fill="none" stroke="#000000" stroke-width="2" d="M3.944,41.577H5.97"/>
<path fill="none" stroke="#000000" stroke-width="2" d="M3.944,46.695H5.97"/>
<path fill="none" stroke="#000000" stroke-width="2" d="M3.944,51.705H5.97"/>
<path fill="none" stroke="#000000" stroke-width="2" d="M3.944,6.931H5.97"/>
<path fill="none" stroke="#000000" stroke-width="2" d="M3.944,11.942H5.97"/>
<path fill="none" stroke="#000000" stroke-width="2" d="M3.944,16.951H5.97"/>
<path fill="none" stroke="#000000" stroke-width="2" d="M3.944,21.962H5.97"/>
<path fill="none" stroke="#000000" stroke-width="2" d="M3.944,27.079H5.97"/>
<path fill="none" stroke="#000000" stroke-width="2" d="M3.944,32.09H5.97"/>
<path fill="none" stroke="#000000" stroke-width="2" d="M3.944,37.101H5.97"/>
<path fill="none" stroke="#000000" stroke-width="2" d="M3.944,42.111H5.97"/>
<path fill="none" stroke="#000000" stroke-width="2" d="M3.944,47.121H5.97"/>
<path fill="none" stroke="#000000" stroke-width="2" d="M3.944,52.132H5.97"/>
<path fill="none" stroke="#000000" stroke-width="2" d="M3.944,7.464H5.97"/>
<path fill="none" stroke="#000000" stroke-width="2" d="M3.944,12.474H5.97"/>
<path fill="none" stroke="#000000" stroke-width="2" d="M3.944,17.485H5.97"/>
<path fill="none" stroke="#000000" stroke-width="2" d="M3.944,22.495H5.97"/>
<path fill="none" stroke="#000000" stroke-width="2" d="M3.944,27.506H5.97"/>
<path fill="none" stroke="#000000" stroke-width="2" d="M3.944,32.516H5.97"/>
<path fill="none" stroke="#000000" stroke-width="2" d="M3.944,37.633H5.97"/>
<path fill="none" stroke="#000000" stroke-width="2" d="M3.944,42.644H5.97"/>
<path fill="none" stroke="#000000" stroke-width="2" d="M3.944,47.655H5.97"/>
<path fill="none" stroke="#000000" stroke-width="2" d="M3.944,52.665H5.97"/>
<path fill="none" stroke="#000000" stroke-width="2" d="M3.944,102.983H5.97"/>
<path fill="none" stroke="#000000" stroke-width="2" d="M2.985,103.409H6.93"/>
</svg>
