<?xml version="1.0" encoding="utf-8"?>
<!-- Generator: Adobe Illustrator 14.0.0, SVG Export Plug-In . SVG Version: 6.00 Build 43363)  -->
<!DOCTYPE svg PUBLIC "-//W3C//DTD SVG 1.1//EN" "http://www.w3.org/Graphics/SVG/1.1/DTD/svg11.dtd">
<svg version="1.1" id="图层_1" xmlns="http://www.w3.org/2000/svg" xmlns:xlink="http://www.w3.org/1999/xlink" x="0px" y="0px"
	 width="32.811px" height="106.502px" viewBox="0 0 32.811 106.502" enable-background="new 0 0 32.811 106.502"
	 xml:space="preserve">
<path fill="none" stroke="#000000" stroke-width="2" d="M2.959,2.96h26.894"/>
<path fill="none" stroke="#000000" stroke-width="2" d="M2.959,36.308h26.894"/>
<path fill="none" stroke="#000000" stroke-width="2" d="M2.959,69.925h26.894"/>
<path fill="none" stroke="#000000" stroke-width="2" d="M2.959,103.542h26.894"/>
<path fill="none" stroke="#000000" stroke-width="2" d="M9.681,6.322h13.447"/>
<path fill="none" stroke="#000000" stroke-width="2" d="M9.681,39.67h13.447"/>
<path fill="none" stroke="#000000" stroke-width="2" d="M9.681,73.287h13.447"/>
<path fill="none" stroke="#000000" stroke-width="2" d="M9.681,9.683h13.447"/>
<path fill="none" stroke="#000000" stroke-width="2" d="M9.681,43.031h13.447"/>
<path fill="none" stroke="#000000" stroke-width="2" d="M9.681,76.649h13.447"/>
<path fill="none" stroke="#000000" stroke-width="2" d="M9.681,13.045h13.447"/>
<path fill="none" stroke="#000000" stroke-width="2" d="M9.681,46.394h13.447"/>
<path fill="none" stroke="#000000" stroke-width="2" d="M9.681,80.011h13.447"/>
<path fill="none" stroke="#000000" stroke-width="2" d="M9.681,16.406h13.447"/>
<path fill="none" stroke="#000000" stroke-width="2" d="M9.681,49.755h13.447"/>
<path fill="none" stroke="#000000" stroke-width="2" d="M9.681,83.372h13.447"/>
<path fill="none" stroke="#000000" stroke-width="2" d="M9.681,19.769h13.447"/>
<path fill="none" stroke="#000000" stroke-width="2" d="M9.681,53.116h13.447"/>
<path fill="none" stroke="#000000" stroke-width="2" d="M9.681,86.734h13.447"/>
<path fill="none" stroke="#000000" stroke-width="2" d="M9.681,23.13h13.447"/>
<path fill="none" stroke="#000000" stroke-width="2" d="M9.681,56.479h13.447"/>
<path fill="none" stroke="#000000" stroke-width="2" d="M9.681,90.096h13.447"/>
<path fill="none" stroke="#000000" stroke-width="2" d="M9.681,26.491h13.447"/>
<path fill="none" stroke="#000000" stroke-width="2" d="M9.681,59.84h13.447"/>
<path fill="none" stroke="#000000" stroke-width="2" d="M9.681,93.457h13.447"/>
<path fill="none" stroke="#000000" stroke-width="2" d="M9.681,29.854h13.447"/>
<path fill="none" stroke="#000000" stroke-width="2" d="M9.681,63.202h13.447"/>
<path fill="none" stroke="#000000" stroke-width="2" d="M9.681,96.82h13.447"/>
<path fill="none" stroke="#000000" stroke-width="2" d="M9.681,33.215h13.447"/>
<path fill="none" stroke="#000000" stroke-width="2" d="M9.681,66.564h13.447"/>
<path fill="none" stroke="#000000" stroke-width="2" d="M9.681,100.181h13.447"/>
</svg>
