<?xml version="1.0" encoding="utf-8"?>
<!-- Generator: Adobe Illustrator 14.0.0, SVG Export Plug-In . SVG Version: 6.00 Build 43363)  -->
<!DOCTYPE svg PUBLIC "-//W3C//DTD SVG 1.1//EN" "http://www.w3.org/Graphics/SVG/1.1/DTD/svg11.dtd">
<svg version="1.1" id="图层_1" xmlns="http://www.w3.org/2000/svg" xmlns:xlink="http://www.w3.org/1999/xlink" x="0px" y="0px"
	 width="17.374px" height="106.502px" viewBox="0 0 17.374 106.502" enable-background="new 0 0 17.374 106.502"
	 xml:space="preserve">
<path fill="none" stroke="#000000" stroke-width="2" d="M2.984,2.995H14.39"/>
<path fill="none" stroke="#000000" stroke-width="2" d="M2.984,5.873h2.878"/>
<path fill="none" stroke="#000000" stroke-width="2" d="M2.984,20.049h2.878"/>
<path fill="none" stroke="#000000" stroke-width="2" d="M2.984,34.439h2.878"/>
<path fill="none" stroke="#000000" stroke-width="2" d="M2.984,48.827h2.878"/>
<path fill="none" stroke="#000000" stroke-width="2" d="M2.984,63.217h2.878"/>
<path fill="none" stroke="#000000" stroke-width="2" d="M2.984,77.607h2.878"/>
<path fill="none" stroke="#000000" stroke-width="2" d="M2.984,91.995h2.878"/>
<path fill="none" stroke="#000000" stroke-width="2" d="M2.984,8.645h2.878"/>
<path fill="none" stroke="#000000" stroke-width="2" d="M2.984,22.927h2.878"/>
<path fill="none" stroke="#000000" stroke-width="2" d="M2.984,37.317h2.878"/>
<path fill="none" stroke="#000000" stroke-width="2" d="M2.984,51.705h2.878"/>
<path fill="none" stroke="#000000" stroke-width="2" d="M2.984,66.095h2.878"/>
<path fill="none" stroke="#000000" stroke-width="2" d="M2.984,80.484h2.878"/>
<path fill="none" stroke="#000000" stroke-width="2" d="M2.984,94.873h2.878"/>
<path fill="none" stroke="#000000" stroke-width="2" d="M2.984,11.523h2.878"/>
<path fill="none" stroke="#000000" stroke-width="2" d="M2.984,25.805h2.878"/>
<path fill="none" stroke="#000000" stroke-width="2" d="M2.984,40.195h2.878"/>
<path fill="none" stroke="#000000" stroke-width="2" d="M2.984,54.583h2.878"/>
<path fill="none" stroke="#000000" stroke-width="2" d="M2.984,68.973h2.878"/>
<path fill="none" stroke="#000000" stroke-width="2" d="M2.984,83.362h2.878"/>
<path fill="none" stroke="#000000" stroke-width="2" d="M2.984,97.751h2.878"/>
<path fill="none" stroke="#000000" stroke-width="2" d="M2.984,14.401h2.878"/>
<path fill="none" stroke="#000000" stroke-width="2" d="M2.984,28.683h2.878"/>
<path fill="none" stroke="#000000" stroke-width="2" d="M2.984,43.073h2.878"/>
<path fill="none" stroke="#000000" stroke-width="2" d="M2.984,57.461h2.878"/>
<path fill="none" stroke="#000000" stroke-width="2" d="M2.984,71.851h2.878"/>
<path fill="none" stroke="#000000" stroke-width="2" d="M2.984,86.24h2.878"/>
<path fill="none" stroke="#000000" stroke-width="2" d="M2.984,100.523h2.878"/>
<path fill="none" stroke="#000000" stroke-width="2" d="M2.984,17.279H14.39"/>
<path fill="none" stroke="#000000" stroke-width="2" d="M2.984,31.561H14.39"/>
<path fill="none" stroke="#000000" stroke-width="2" d="M2.984,45.95H14.39"/>
<path fill="none" stroke="#000000" stroke-width="2" d="M2.984,60.339H14.39"/>
<path fill="none" stroke="#000000" stroke-width="2" d="M2.984,74.729H14.39"/>
<path fill="none" stroke="#000000" stroke-width="2" d="M2.984,89.117H14.39"/>
<path fill="none" stroke="#000000" stroke-width="2" d="M2.984,103.401H14.39"/>
<path fill="none" stroke="#000000" stroke-width="2" d="M2.984,4.381h2.878"/>
<path fill="none" stroke="#000000" stroke-width="2" d="M2.984,18.664h2.878"/>
<path fill="none" stroke="#000000" stroke-width="2" d="M2.984,33.053h2.878"/>
<path fill="none" stroke="#000000" stroke-width="2" d="M2.984,47.443h2.878"/>
<path fill="none" stroke="#000000" stroke-width="2" d="M2.984,61.725h2.878"/>
<path fill="none" stroke="#000000" stroke-width="2" d="M2.984,76.115h2.878"/>
<path fill="none" stroke="#000000" stroke-width="2" d="M2.984,90.503h2.878"/>
<path fill="none" stroke="#000000" stroke-width="2" d="M2.984,7.259h2.878"/>
<path fill="none" stroke="#000000" stroke-width="2" d="M2.984,21.541h2.878"/>
<path fill="none" stroke="#000000" stroke-width="2" d="M2.984,35.931h2.878"/>
<path fill="none" stroke="#000000" stroke-width="2" d="M2.984,50.213h2.878"/>
<path fill="none" stroke="#000000" stroke-width="2" d="M2.984,64.603h2.878"/>
<path fill="none" stroke="#000000" stroke-width="2" d="M2.984,78.991h2.878"/>
<path fill="none" stroke="#000000" stroke-width="2" d="M2.984,93.381h2.878"/>
<path fill="none" stroke="#000000" stroke-width="2" d="M2.984,10.137h5.649"/>
<path fill="none" stroke="#000000" stroke-width="2" d="M2.984,24.419h5.649"/>
<path fill="none" stroke="#000000" stroke-width="2" d="M2.984,38.809h5.649"/>
<path fill="none" stroke="#000000" stroke-width="2" d="M2.984,53.091h5.649"/>
<path fill="none" stroke="#000000" stroke-width="2" d="M2.984,67.481h5.649"/>
<path fill="none" stroke="#000000" stroke-width="2" d="M2.984,81.869h5.649"/>
<path fill="none" stroke="#000000" stroke-width="2" d="M2.984,96.259h5.649"/>
<path fill="none" stroke="#000000" stroke-width="2" d="M5.862,13.015H2.984"/>
<path fill="none" stroke="#000000" stroke-width="2" d="M5.862,27.297H2.984"/>
<path fill="none" stroke="#000000" stroke-width="2" d="M5.862,41.687H2.984"/>
<path fill="none" stroke="#000000" stroke-width="2" d="M5.862,55.969H2.984"/>
<path fill="none" stroke="#000000" stroke-width="2" d="M5.862,70.359H2.984"/>
<path fill="none" stroke="#000000" stroke-width="2" d="M5.862,84.747H2.984"/>
<path fill="none" stroke="#000000" stroke-width="2" d="M5.862,99.137H2.984"/>
<path fill="none" stroke="#000000" stroke-width="2" d="M2.984,15.893h2.878"/>
<path fill="none" stroke="#000000" stroke-width="2" d="M2.984,30.175h2.878"/>
<path fill="none" stroke="#000000" stroke-width="2" d="M2.984,44.565h2.878"/>
<path fill="none" stroke="#000000" stroke-width="2" d="M2.984,58.847h2.878"/>
<path fill="none" stroke="#000000" stroke-width="2" d="M2.984,73.237h2.878"/>
<path fill="none" stroke="#000000" stroke-width="2" d="M2.984,87.625h2.878"/>
<path fill="none" stroke="#000000" stroke-width="2" d="M2.984,102.015h2.878"/>
</svg>
