<?xml version="1.0" encoding="utf-8"?>
<!-- Generator: Adobe Illustrator 14.0.0, SVG Export Plug-In . SVG Version: 6.00 Build 43363)  -->
<!DOCTYPE svg PUBLIC "-//W3C//DTD SVG 1.1//EN" "http://www.w3.org/Graphics/SVG/1.1/DTD/svg11.dtd">
<svg version="1.1" id="图层_1" xmlns="http://www.w3.org/2000/svg" xmlns:xlink="http://www.w3.org/1999/xlink" x="0px" y="0px"
	 width="46.167px" height="106.502px" viewBox="0 0 46.167 106.502" enable-background="new 0 0 46.167 106.502"
	 xml:space="preserve">
<path fill="none" stroke="#000000" stroke-width="2" d="M2.835,2.834h40.496"/>
<path fill="none" stroke="#000000" stroke-width="2" d="M2.835,53.049h40.496"/>
<path fill="none" stroke="#000000" stroke-width="2" d="M2.835,103.668h40.496"/>
<path fill="none" stroke="#000000" stroke-width="2" d="M12.959,7.897h20.248"/>
<path fill="none" stroke="#000000" stroke-width="2" d="M12.959,58.111h20.248"/>
<path fill="none" stroke="#000000" stroke-width="2" d="M12.959,12.958h20.248"/>
<path fill="none" stroke="#000000" stroke-width="2" d="M12.959,63.172h20.248"/>
<path fill="none" stroke="#000000" stroke-width="2" d="M12.959,18.021h20.248"/>
<path fill="none" stroke="#000000" stroke-width="2" d="M12.959,68.235h20.248"/>
<path fill="none" stroke="#000000" stroke-width="2" d="M12.959,23.082h20.248"/>
<path fill="none" stroke="#000000" stroke-width="2" d="M12.959,73.296h20.248"/>
<path fill="none" stroke="#000000" stroke-width="2" d="M12.959,28.144h20.248"/>
<path fill="none" stroke="#000000" stroke-width="2" d="M12.959,78.359h20.248"/>
<path fill="none" stroke="#000000" stroke-width="2" d="M12.959,33.206h20.248"/>
<path fill="none" stroke="#000000" stroke-width="2" d="M12.959,83.42h20.248"/>
<path fill="none" stroke="#000000" stroke-width="2" d="M12.959,38.268h20.248"/>
<path fill="none" stroke="#000000" stroke-width="2" d="M12.959,88.482h20.248"/>
<path fill="none" stroke="#000000" stroke-width="2" d="M12.959,43.33h20.248"/>
<path fill="none" stroke="#000000" stroke-width="2" d="M12.959,93.544h20.248"/>
<path fill="none" stroke="#000000" stroke-width="2" d="M12.959,48.392h20.248"/>
<path fill="none" stroke="#000000" stroke-width="2" d="M12.959,98.606h20.248"/>
</svg>
