<?xml version="1.0" encoding="utf-8"?>
<!-- Generator: Adobe Illustrator 14.0.0, SVG Export Plug-In . SVG Version: 6.00 Build 43363)  -->
<!DOCTYPE svg PUBLIC "-//W3C//DTD SVG 1.1//EN" "http://www.w3.org/Graphics/SVG/1.1/DTD/svg11.dtd">
<svg version="1.1" id="图层_1" xmlns="http://www.w3.org/2000/svg" xmlns:xlink="http://www.w3.org/1999/xlink" x="0px" y="0px"
	 width="11.312px" height="106.502px" viewBox="0 0 11.312 106.502" enable-background="new 0 0 11.312 106.502"
	 xml:space="preserve">
<path fill="none" stroke="#000000" stroke-width="2" d="M2.988,76.727h5.335"/>
<path fill="none" stroke="#000000" stroke-width="2" d="M2.988,83.45h5.335"/>
<path fill="none" stroke="#000000" stroke-width="2" d="M2.988,90.173h5.335"/>
<path fill="none" stroke="#000000" stroke-width="2" d="M2.988,96.788h5.335"/>
<path fill="none" stroke="#000000" stroke-width="2" d="M2.988,103.511h5.335"/>
<path fill="none" stroke="#000000" stroke-width="2" d="M4.269,70.751h2.668"/>
<path fill="none" stroke="#000000" stroke-width="2" d="M4.269,77.367h2.668"/>
<path fill="none" stroke="#000000" stroke-width="2" d="M4.269,84.09h2.668"/>
<path fill="none" stroke="#000000" stroke-width="2" d="M4.269,90.813h2.668"/>
<path fill="none" stroke="#000000" stroke-width="2" d="M4.269,97.535h2.668"/>
<path fill="none" stroke="#000000" stroke-width="2" d="M4.269,71.392h2.668"/>
<path fill="none" stroke="#000000" stroke-width="2" d="M4.269,78.115h2.668"/>
<path fill="none" stroke="#000000" stroke-width="2" d="M4.269,84.731h2.668"/>
<path fill="none" stroke="#000000" stroke-width="2" d="M4.269,91.453h2.668"/>
<path fill="none" stroke="#000000" stroke-width="2" d="M4.269,98.176h2.668"/>
<path fill="none" stroke="#000000" stroke-width="2" d="M4.269,72.032h2.668"/>
<path fill="none" stroke="#000000" stroke-width="2" d="M4.269,78.755h2.668"/>
<path fill="none" stroke="#000000" stroke-width="2" d="M4.269,85.478h2.668"/>
<path fill="none" stroke="#000000" stroke-width="2" d="M4.269,92.2h2.668"/>
<path fill="none" stroke="#000000" stroke-width="2" d="M4.269,98.816h2.668"/>
<path fill="none" stroke="#000000" stroke-width="2" d="M4.269,72.779h2.668"/>
<path fill="none" stroke="#000000" stroke-width="2" d="M4.269,79.395h2.668"/>
<path fill="none" stroke="#000000" stroke-width="2" d="M4.269,86.117h2.668"/>
<path fill="none" stroke="#000000" stroke-width="2" d="M4.269,92.84h2.668"/>
<path fill="none" stroke="#000000" stroke-width="2" d="M4.269,99.563h2.668"/>
<path fill="none" stroke="#000000" stroke-width="2" d="M4.269,73.419h2.668"/>
<path fill="none" stroke="#000000" stroke-width="2" d="M4.269,80.035h2.668"/>
<path fill="none" stroke="#000000" stroke-width="2" d="M4.269,86.758h2.668"/>
<path fill="none" stroke="#000000" stroke-width="2" d="M4.269,93.481h2.668"/>
<path fill="none" stroke="#000000" stroke-width="2" d="M4.269,100.203h2.668"/>
<path fill="none" stroke="#000000" stroke-width="2" d="M4.269,74.06h2.668"/>
<path fill="none" stroke="#000000" stroke-width="2" d="M4.269,80.782h2.668"/>
<path fill="none" stroke="#000000" stroke-width="2" d="M4.269,87.505h2.668"/>
<path fill="none" stroke="#000000" stroke-width="2" d="M4.269,94.121h2.668"/>
<path fill="none" stroke="#000000" stroke-width="2" d="M4.269,100.844h2.668"/>
<path fill="none" stroke="#000000" stroke-width="2" d="M4.269,74.807h2.668"/>
<path fill="none" stroke="#000000" stroke-width="2" d="M4.269,81.422h2.668"/>
<path fill="none" stroke="#000000" stroke-width="2" d="M4.269,88.145h2.668"/>
<path fill="none" stroke="#000000" stroke-width="2" d="M4.269,94.867h2.668"/>
<path fill="none" stroke="#000000" stroke-width="2" d="M4.269,101.484h2.668"/>
<path fill="none" stroke="#000000" stroke-width="2" d="M4.269,75.447h2.668"/>
<path fill="none" stroke="#000000" stroke-width="2" d="M4.269,82.063h2.668"/>
<path fill="none" stroke="#000000" stroke-width="2" d="M4.269,88.785h2.668"/>
<path fill="none" stroke="#000000" stroke-width="2" d="M4.269,95.508h2.668"/>
<path fill="none" stroke="#000000" stroke-width="2" d="M4.269,102.231h2.668"/>
<path fill="none" stroke="#000000" stroke-width="2" d="M4.269,76.087h2.668"/>
<path fill="none" stroke="#000000" stroke-width="2" d="M4.269,82.81h2.668"/>
<path fill="none" stroke="#000000" stroke-width="2" d="M4.269,89.426h2.668"/>
<path fill="none" stroke="#000000" stroke-width="2" d="M4.269,96.149h2.668"/>
<path fill="none" stroke="#000000" stroke-width="2" d="M4.269,102.871h2.668"/>
<path fill="none" stroke="#000000" stroke-width="2" d="M2.988,2.991h5.335"/>
<path fill="none" stroke="#000000" stroke-width="2" d="M2.988,70.112h5.335"/>
<path fill="none" stroke="#000000" stroke-width="2" d="M2.988,9.607h5.335"/>
<path fill="none" stroke="#000000" stroke-width="2" d="M2.988,16.329h5.335"/>
<path fill="none" stroke="#000000" stroke-width="2" d="M2.988,23.052h5.335"/>
<path fill="none" stroke="#000000" stroke-width="2" d="M2.988,29.775h5.335"/>
<path fill="none" stroke="#000000" stroke-width="2" d="M2.988,36.391h5.335"/>
<path fill="none" stroke="#000000" stroke-width="2" d="M2.988,43.114h5.335"/>
<path fill="none" stroke="#000000" stroke-width="2" d="M2.988,49.836h5.335"/>
<path fill="none" stroke="#000000" stroke-width="2" d="M2.988,56.559h5.335"/>
<path fill="none" stroke="#000000" stroke-width="2" d="M2.988,63.281h5.335"/>
<path fill="none" stroke="#000000" stroke-width="2" d="M4.269,3.631h2.668"/>
<path fill="none" stroke="#000000" stroke-width="2" d="M4.269,10.247h2.668"/>
<path fill="none" stroke="#000000" stroke-width="2" d="M4.269,16.97h2.668"/>
<path fill="none" stroke="#000000" stroke-width="2" d="M4.269,23.693h2.668"/>
<path fill="none" stroke="#000000" stroke-width="2" d="M4.269,30.415h2.668"/>
<path fill="none" stroke="#000000" stroke-width="2" d="M4.269,37.138h2.668"/>
<path fill="none" stroke="#000000" stroke-width="2" d="M4.269,43.861h2.668"/>
<path fill="none" stroke="#000000" stroke-width="2" d="M4.269,50.477h2.668"/>
<path fill="none" stroke="#000000" stroke-width="2" d="M4.269,57.199h2.668"/>
<path fill="none" stroke="#000000" stroke-width="2" d="M4.269,63.922h2.668"/>
<path fill="none" stroke="#000000" stroke-width="2" d="M4.269,4.272h2.668"/>
<path fill="none" stroke="#000000" stroke-width="2" d="M4.269,10.994h2.668"/>
<path fill="none" stroke="#000000" stroke-width="2" d="M4.269,17.611h2.668"/>
<path fill="none" stroke="#000000" stroke-width="2" d="M4.269,24.333h2.668"/>
<path fill="none" stroke="#000000" stroke-width="2" d="M4.269,31.056h2.668"/>
<path fill="none" stroke="#000000" stroke-width="2" d="M4.269,37.779h2.668"/>
<path fill="none" stroke="#000000" stroke-width="2" d="M4.269,44.501h2.668"/>
<path fill="none" stroke="#000000" stroke-width="2" d="M4.269,51.224h2.668"/>
<path fill="none" stroke="#000000" stroke-width="2" d="M4.269,57.84h2.668"/>
<path fill="none" stroke="#000000" stroke-width="2" d="M4.269,64.563h2.668"/>
<path fill="none" stroke="#000000" stroke-width="2" d="M4.269,5.019h2.668"/>
<path fill="none" stroke="#000000" stroke-width="2" d="M4.269,11.635h2.668"/>
<path fill="none" stroke="#000000" stroke-width="2" d="M4.269,18.358h2.668"/>
<path fill="none" stroke="#000000" stroke-width="2" d="M4.269,25.08h2.668"/>
<path fill="none" stroke="#000000" stroke-width="2" d="M4.269,31.696h2.668"/>
<path fill="none" stroke="#000000" stroke-width="2" d="M4.269,38.418h2.668"/>
<path fill="none" stroke="#000000" stroke-width="2" d="M4.269,45.141h2.668"/>
<path fill="none" stroke="#000000" stroke-width="2" d="M4.269,51.864h2.668"/>
<path fill="none" stroke="#000000" stroke-width="2" d="M4.269,58.587h2.668"/>
<path fill="none" stroke="#000000" stroke-width="2" d="M4.269,65.31h2.668"/>
<path fill="none" stroke="#000000" stroke-width="2" d="M4.269,5.658h2.668"/>
<path fill="none" stroke="#000000" stroke-width="2" d="M4.269,12.275h2.668"/>
<path fill="none" stroke="#000000" stroke-width="2" d="M4.269,18.997h2.668"/>
<path fill="none" stroke="#000000" stroke-width="2" d="M4.269,25.72h2.668"/>
<path fill="none" stroke="#000000" stroke-width="2" d="M4.269,32.443h2.668"/>
<path fill="none" stroke="#000000" stroke-width="2" d="M4.269,39.165h2.668"/>
<path fill="none" stroke="#000000" stroke-width="2" d="M4.269,45.781h2.668"/>
<path fill="none" stroke="#000000" stroke-width="2" d="M4.269,52.504h2.668"/>
<path fill="none" stroke="#000000" stroke-width="2" d="M4.269,59.227h2.668"/>
<path fill="none" stroke="#000000" stroke-width="2" d="M4.269,65.949h2.668"/>
<path fill="none" stroke="#000000" stroke-width="2" d="M4.269,6.299h2.668"/>
<path fill="none" stroke="#000000" stroke-width="2" d="M4.269,12.915h2.668"/>
<path fill="none" stroke="#000000" stroke-width="2" d="M4.269,19.638h2.668"/>
<path fill="none" stroke="#000000" stroke-width="2" d="M4.269,26.361h2.668"/>
<path fill="none" stroke="#000000" stroke-width="2" d="M4.269,33.083h2.668"/>
<path fill="none" stroke="#000000" stroke-width="2" d="M4.269,39.806h2.668"/>
<path fill="none" stroke="#000000" stroke-width="2" d="M4.269,46.529h2.668"/>
<path fill="none" stroke="#000000" stroke-width="2" d="M4.269,53.145h2.668"/>
<path fill="none" stroke="#000000" stroke-width="2" d="M4.269,59.867h2.668"/>
<path fill="none" stroke="#000000" stroke-width="2" d="M4.269,66.59h2.668"/>
<path fill="none" stroke="#000000" stroke-width="2" d="M4.269,6.94h2.668"/>
<path fill="none" stroke="#000000" stroke-width="2" d="M4.269,13.662h2.668"/>
<path fill="none" stroke="#000000" stroke-width="2" d="M4.269,20.385h2.668"/>
<path fill="none" stroke="#000000" stroke-width="2" d="M4.269,27h2.668"/>
<path fill="none" stroke="#000000" stroke-width="2" d="M4.269,33.723h2.668"/>
<path fill="none" stroke="#000000" stroke-width="2" d="M4.269,40.447h2.668"/>
<path fill="none" stroke="#000000" stroke-width="2" d="M4.269,47.169h2.668"/>
<path fill="none" stroke="#000000" stroke-width="2" d="M4.269,53.892h2.668"/>
<path fill="none" stroke="#000000" stroke-width="2" d="M4.269,60.615h2.668"/>
<path fill="none" stroke="#000000" stroke-width="2" d="M4.269,67.23h2.668"/>
<path fill="none" stroke="#000000" stroke-width="2" d="M4.269,7.687h2.668"/>
<path fill="none" stroke="#000000" stroke-width="2" d="M4.269,14.302h2.668"/>
<path fill="none" stroke="#000000" stroke-width="2" d="M4.269,21.025h2.668"/>
<path fill="none" stroke="#000000" stroke-width="2" d="M4.269,27.747h2.668"/>
<path fill="none" stroke="#000000" stroke-width="2" d="M4.269,34.47h2.668"/>
<path fill="none" stroke="#000000" stroke-width="2" d="M4.269,41.086h2.668"/>
<path fill="none" stroke="#000000" stroke-width="2" d="M4.269,47.809h2.668"/>
<path fill="none" stroke="#000000" stroke-width="2" d="M4.269,54.531h2.668"/>
<path fill="none" stroke="#000000" stroke-width="2" d="M4.269,61.254h2.668"/>
<path fill="none" stroke="#000000" stroke-width="2" d="M4.269,67.977h2.668"/>
<path fill="none" stroke="#000000" stroke-width="2" d="M4.269,8.326h2.668"/>
<path fill="none" stroke="#000000" stroke-width="2" d="M4.269,14.943h2.668"/>
<path fill="none" stroke="#000000" stroke-width="2" d="M4.269,21.665h2.668"/>
<path fill="none" stroke="#000000" stroke-width="2" d="M4.269,28.388h2.668"/>
<path fill="none" stroke="#000000" stroke-width="2" d="M4.269,35.111h2.668"/>
<path fill="none" stroke="#000000" stroke-width="2" d="M4.269,41.833h2.668"/>
<path fill="none" stroke="#000000" stroke-width="2" d="M4.269,48.556h2.668"/>
<path fill="none" stroke="#000000" stroke-width="2" d="M4.269,55.172h2.668"/>
<path fill="none" stroke="#000000" stroke-width="2" d="M4.269,61.895h2.668"/>
<path fill="none" stroke="#000000" stroke-width="2" d="M4.269,68.617h2.668"/>
<path fill="none" stroke="#000000" stroke-width="2" d="M4.269,8.967h2.668"/>
<path fill="none" stroke="#000000" stroke-width="2" d="M4.269,15.69h2.668"/>
<path fill="none" stroke="#000000" stroke-width="2" d="M4.269,22.306h2.668"/>
<path fill="none" stroke="#000000" stroke-width="2" d="M4.269,29.029h2.668"/>
<path fill="none" stroke="#000000" stroke-width="2" d="M4.269,35.751h2.668"/>
<path fill="none" stroke="#000000" stroke-width="2" d="M4.269,42.474h2.668"/>
<path fill="none" stroke="#000000" stroke-width="2" d="M4.269,49.197h2.668"/>
<path fill="none" stroke="#000000" stroke-width="2" d="M4.269,55.919h2.668"/>
<path fill="none" stroke="#000000" stroke-width="2" d="M4.269,62.535h2.668"/>
<path fill="none" stroke="#000000" stroke-width="2" d="M4.269,69.258h2.668"/>
</svg>
