<?xml version="1.0" encoding="utf-8"?>
<!-- Generator: Adobe Illustrator 14.0.0, SVG Export Plug-In . SVG Version: 6.00 Build 43363)  -->
<!DOCTYPE svg PUBLIC "-//W3C//DTD SVG 1.1//EN" "http://www.w3.org/Graphics/SVG/1.1/DTD/svg11.dtd">
<svg version="1.1" id="图层_1" xmlns="http://www.w3.org/2000/svg" xmlns:xlink="http://www.w3.org/1999/xlink" x="0px" y="0px"
	 width="15.991px" height="106.502px" viewBox="0 0 15.991 106.502" enable-background="new 0 0 15.991 106.502"
	 xml:space="preserve">
<path fill="none" stroke="#000000" stroke-width="2" d="M2.878,2.879h10.128"/>
<path fill="none" stroke="#000000" stroke-width="2" d="M2.878,15.352h10.128"/>
<path fill="none" stroke="#000000" stroke-width="2" d="M2.878,27.932h10.128"/>
<path fill="none" stroke="#000000" stroke-width="2" d="M2.878,40.512h10.128"/>
<path fill="none" stroke="#000000" stroke-width="2" d="M2.878,53.198h10.128"/>
<path fill="none" stroke="#000000" stroke-width="2" d="M2.878,65.778h10.128"/>
<path fill="none" stroke="#000000" stroke-width="2" d="M2.878,78.358h10.128"/>
<path fill="none" stroke="#000000" stroke-width="2" d="M2.878,90.937h10.128"/>
<path fill="none" stroke="#000000" stroke-width="2" d="M2.878,103.517h10.128"/>
<path fill="none" stroke="#000000" stroke-width="2" d="M5.437,4.158h5.011"/>
<path fill="none" stroke="#000000" stroke-width="2" d="M5.437,16.631h5.011"/>
<path fill="none" stroke="#000000" stroke-width="2" d="M5.437,29.211h5.011"/>
<path fill="none" stroke="#000000" stroke-width="2" d="M5.437,41.791h5.011"/>
<path fill="none" stroke="#000000" stroke-width="2" d="M5.437,54.37h5.011"/>
<path fill="none" stroke="#000000" stroke-width="2" d="M5.437,66.95h5.011"/>
<path fill="none" stroke="#000000" stroke-width="2" d="M5.437,79.531h5.011"/>
<path fill="none" stroke="#000000" stroke-width="2" d="M5.437,92.11h5.011"/>
<path fill="none" stroke="#000000" stroke-width="2" d="M5.437,5.438h5.011"/>
<path fill="none" stroke="#000000" stroke-width="2" d="M5.437,17.91h5.011"/>
<path fill="none" stroke="#000000" stroke-width="2" d="M5.437,30.49h5.011"/>
<path fill="none" stroke="#000000" stroke-width="2" d="M5.437,43.071h5.011"/>
<path fill="none" stroke="#000000" stroke-width="2" d="M5.437,55.65h5.011"/>
<path fill="none" stroke="#000000" stroke-width="2" d="M5.437,68.23h5.011"/>
<path fill="none" stroke="#000000" stroke-width="2" d="M5.437,80.81h5.011"/>
<path fill="none" stroke="#000000" stroke-width="2" d="M5.437,93.389h5.011"/>
<path fill="none" stroke="#000000" stroke-width="2" d="M5.437,6.717h5.011"/>
<path fill="none" stroke="#000000" stroke-width="2" d="M5.437,19.19h5.011"/>
<path fill="none" stroke="#000000" stroke-width="2" d="M5.437,31.77h5.011"/>
<path fill="none" stroke="#000000" stroke-width="2" d="M5.437,44.35h5.011"/>
<path fill="none" stroke="#000000" stroke-width="2" d="M5.437,56.929h5.011"/>
<path fill="none" stroke="#000000" stroke-width="2" d="M5.437,69.509h5.011"/>
<path fill="none" stroke="#000000" stroke-width="2" d="M5.437,82.089h5.011"/>
<path fill="none" stroke="#000000" stroke-width="2" d="M5.437,94.668h5.011"/>
<path fill="none" stroke="#000000" stroke-width="2" d="M5.437,7.996h5.011"/>
<path fill="none" stroke="#000000" stroke-width="2" d="M5.437,20.469h5.011"/>
<path fill="none" stroke="#000000" stroke-width="2" d="M5.437,33.049h5.011"/>
<path fill="none" stroke="#000000" stroke-width="2" d="M5.437,45.629h5.011"/>
<path fill="none" stroke="#000000" stroke-width="2" d="M5.437,58.208h5.011"/>
<path fill="none" stroke="#000000" stroke-width="2" d="M5.437,70.788h5.011"/>
<path fill="none" stroke="#000000" stroke-width="2" d="M5.437,83.368h5.011"/>
<path fill="none" stroke="#000000" stroke-width="2" d="M5.437,95.948h5.011"/>
<path fill="none" stroke="#000000" stroke-width="2" d="M5.437,9.169h5.011"/>
<path fill="none" stroke="#000000" stroke-width="2" d="M5.437,21.642h5.011"/>
<path fill="none" stroke="#000000" stroke-width="2" d="M5.437,34.222h5.011"/>
<path fill="none" stroke="#000000" stroke-width="2" d="M5.437,46.908h5.011"/>
<path fill="none" stroke="#000000" stroke-width="2" d="M5.437,59.488h5.011"/>
<path fill="none" stroke="#000000" stroke-width="2" d="M5.437,72.068h5.011"/>
<path fill="none" stroke="#000000" stroke-width="2" d="M5.437,84.648h5.011"/>
<path fill="none" stroke="#000000" stroke-width="2" d="M5.437,97.227h5.011"/>
<path fill="none" stroke="#000000" stroke-width="2" d="M5.437,10.448h5.011"/>
<path fill="none" stroke="#000000" stroke-width="2" d="M5.437,22.921h5.011"/>
<path fill="none" stroke="#000000" stroke-width="2" d="M5.437,35.501h5.011"/>
<path fill="none" stroke="#000000" stroke-width="2" d="M5.437,48.08h5.011"/>
<path fill="none" stroke="#000000" stroke-width="2" d="M5.437,60.66h5.011"/>
<path fill="none" stroke="#000000" stroke-width="2" d="M5.437,73.24h5.011"/>
<path fill="none" stroke="#000000" stroke-width="2" d="M5.437,85.82h5.011"/>
<path fill="none" stroke="#000000" stroke-width="2" d="M5.437,98.4h5.011"/>
<path fill="none" stroke="#000000" stroke-width="2" d="M5.437,11.728h5.011"/>
<path fill="none" stroke="#000000" stroke-width="2" d="M5.437,24.2h5.011"/>
<path fill="none" stroke="#000000" stroke-width="2" d="M5.437,36.781h5.011"/>
<path fill="none" stroke="#000000" stroke-width="2" d="M5.437,49.36h5.011"/>
<path fill="none" stroke="#000000" stroke-width="2" d="M5.437,61.94h5.011"/>
<path fill="none" stroke="#000000" stroke-width="2" d="M5.437,74.52h5.011"/>
<path fill="none" stroke="#000000" stroke-width="2" d="M5.437,87.099h5.011"/>
<path fill="none" stroke="#000000" stroke-width="2" d="M5.437,99.679h5.011"/>
<path fill="none" stroke="#000000" stroke-width="2" d="M5.437,13.007h5.011"/>
<path fill="none" stroke="#000000" stroke-width="2" d="M5.437,25.48h5.011"/>
<path fill="none" stroke="#000000" stroke-width="2" d="M5.437,38.06h5.011"/>
<path fill="none" stroke="#000000" stroke-width="2" d="M5.437,50.639h5.011"/>
<path fill="none" stroke="#000000" stroke-width="2" d="M5.437,63.219h5.011"/>
<path fill="none" stroke="#000000" stroke-width="2" d="M5.437,75.799h5.011"/>
<path fill="none" stroke="#000000" stroke-width="2" d="M5.437,88.378h5.011"/>
<path fill="none" stroke="#000000" stroke-width="2" d="M5.437,100.958h5.011"/>
<path fill="none" stroke="#000000" stroke-width="2" d="M5.437,14.286h5.011"/>
<path fill="none" stroke="#000000" stroke-width="2" d="M5.437,26.759h5.011"/>
<path fill="none" stroke="#000000" stroke-width="2" d="M5.437,39.339h5.011"/>
<path fill="none" stroke="#000000" stroke-width="2" d="M5.437,51.918h5.011"/>
<path fill="none" stroke="#000000" stroke-width="2" d="M5.437,64.498h5.011"/>
<path fill="none" stroke="#000000" stroke-width="2" d="M5.437,77.078h5.011"/>
<path fill="none" stroke="#000000" stroke-width="2" d="M5.437,89.657h5.011"/>
<path fill="none" stroke="#000000" stroke-width="2" d="M5.437,102.238h5.011"/>
</svg>
