<?xml version="1.0" encoding="utf-8"?>
<!-- Generator: Adobe Illustrator 14.0.0, SVG Export Plug-In . SVG Version: 6.00 Build 43363)  -->
<!DOCTYPE svg PUBLIC "-//W3C//DTD SVG 1.1//EN" "http://www.w3.org/Graphics/SVG/1.1/DTD/svg11.dtd">
<svg version="1.1" id="图层_1" xmlns="http://www.w3.org/2000/svg" xmlns:xlink="http://www.w3.org/1999/xlink" x="0px" y="0px"
	 width="10.03px" height="106.502px" viewBox="0 0 10.03 106.502" enable-background="new 0 0 10.03 106.502" xml:space="preserve">
<path fill="none" stroke="#000000" stroke-width="2" d="M2.987,54.319h0.96"/>
<path fill="none" stroke="#000000" stroke-width="2" d="M2.987,59.227h0.96"/>
<path fill="none" stroke="#000000" stroke-width="2" d="M2.987,64.241h0.96"/>
<path fill="none" stroke="#000000" stroke-width="2" d="M2.987,69.363h0.96"/>
<path fill="none" stroke="#000000" stroke-width="2" d="M2.987,74.377h0.96"/>
<path fill="none" stroke="#000000" stroke-width="2" d="M2.987,79.392h0.96"/>
<path fill="none" stroke="#000000" stroke-width="2" d="M2.987,84.407h0.96"/>
<path fill="none" stroke="#000000" stroke-width="2" d="M2.987,89.422h0.96"/>
<path fill="none" stroke="#000000" stroke-width="2" d="M2.987,94.437h0.96"/>
<path fill="none" stroke="#000000" stroke-width="2" d="M2.987,99.451h0.96"/>
<path fill="none" stroke="#000000" stroke-width="2" d="M2.987,55.279h0.96"/>
<path fill="none" stroke="#000000" stroke-width="2" d="M2.987,60.293h0.96"/>
<path fill="none" stroke="#000000" stroke-width="2" d="M2.987,65.308h0.96"/>
<path fill="none" stroke="#000000" stroke-width="2" d="M2.987,70.323h0.96"/>
<path fill="none" stroke="#000000" stroke-width="2" d="M2.987,75.338h0.96"/>
<path fill="none" stroke="#000000" stroke-width="2" d="M2.987,80.353h0.96"/>
<path fill="none" stroke="#000000" stroke-width="2" d="M2.987,85.367h0.96"/>
<path fill="none" stroke="#000000" stroke-width="2" d="M2.987,90.382h0.96"/>
<path fill="none" stroke="#000000" stroke-width="2" d="M2.987,95.397h0.96"/>
<path fill="none" stroke="#000000" stroke-width="2" d="M2.987,100.519h0.96"/>
<path fill="none" stroke="#000000" stroke-width="2" d="M2.987,56.239h0.96"/>
<path fill="none" stroke="#000000" stroke-width="2" d="M2.987,61.253h0.96"/>
<path fill="none" stroke="#000000" stroke-width="2" d="M2.987,66.269h0.96"/>
<path fill="none" stroke="#000000" stroke-width="2" d="M2.987,71.283h0.96"/>
<path fill="none" stroke="#000000" stroke-width="2" d="M2.987,76.298h0.96"/>
<path fill="none" stroke="#000000" stroke-width="2" d="M2.987,81.419h0.96"/>
<path fill="none" stroke="#000000" stroke-width="2" d="M2.987,86.434h0.96"/>
<path fill="none" stroke="#000000" stroke-width="2" d="M2.987,91.449h0.96"/>
<path fill="none" stroke="#000000" stroke-width="2" d="M2.987,96.464h0.96"/>
<path fill="none" stroke="#000000" stroke-width="2" d="M2.987,101.479h0.96"/>
<path fill="none" stroke="#000000" stroke-width="2" d="M2.987,57.306h0.96"/>
<path fill="none" stroke="#000000" stroke-width="2" d="M2.987,62.321h0.96"/>
<path fill="none" stroke="#000000" stroke-width="2" d="M2.987,67.335h0.96"/>
<path fill="none" stroke="#000000" stroke-width="2" d="M2.987,72.35h0.96"/>
<path fill="none" stroke="#000000" stroke-width="2" d="M2.987,77.365h0.96"/>
<path fill="none" stroke="#000000" stroke-width="2" d="M2.987,82.38h0.96"/>
<path fill="none" stroke="#000000" stroke-width="2" d="M2.987,87.395h0.96"/>
<path fill="none" stroke="#000000" stroke-width="2" d="M2.987,92.409h0.96"/>
<path fill="none" stroke="#000000" stroke-width="2" d="M2.987,97.424h0.96"/>
<path fill="none" stroke="#000000" stroke-width="2" d="M2.987,102.439h0.96"/>
<path fill="none" stroke="#000000" stroke-width="2" d="M2.987,58.266h3.948"/>
<path fill="none" stroke="#000000" stroke-width="2" d="M2.987,63.281h3.948"/>
<path fill="none" stroke="#000000" stroke-width="2" d="M2.987,68.295h3.948"/>
<path fill="none" stroke="#000000" stroke-width="2" d="M2.987,73.311h3.948"/>
<path fill="none" stroke="#000000" stroke-width="2" d="M2.987,78.325h3.948"/>
<path fill="none" stroke="#000000" stroke-width="2" d="M2.987,83.34h3.948"/>
<path fill="none" stroke="#000000" stroke-width="2" d="M2.987,88.461h3.948"/>
<path fill="none" stroke="#000000" stroke-width="2" d="M2.987,93.477h3.948"/>
<path fill="none" stroke="#000000" stroke-width="2" d="M2.987,98.491h3.948"/>
<path fill="none" stroke="#000000" stroke-width="2" d="M2.987,103.506h3.948"/>
<path fill="none" stroke="#000000" stroke-width="2" d="M2.987,53.784h0.96"/>
<path fill="none" stroke="#000000" stroke-width="2" d="M2.987,58.799h0.96"/>
<path fill="none" stroke="#000000" stroke-width="2" d="M2.987,63.815h0.96"/>
<path fill="none" stroke="#000000" stroke-width="2" d="M2.987,68.829h0.96"/>
<path fill="none" stroke="#000000" stroke-width="2" d="M2.987,73.844h0.96"/>
<path fill="none" stroke="#000000" stroke-width="2" d="M2.987,78.859h0.96"/>
<path fill="none" stroke="#000000" stroke-width="2" d="M2.987,83.873h0.96"/>
<path fill="none" stroke="#000000" stroke-width="2" d="M2.987,88.888h0.96"/>
<path fill="none" stroke="#000000" stroke-width="2" d="M2.987,93.904h0.96"/>
<path fill="none" stroke="#000000" stroke-width="2" d="M2.987,98.918h0.96"/>
<path fill="none" stroke="#000000" stroke-width="2" d="M2.987,54.745h0.96"/>
<path fill="none" stroke="#000000" stroke-width="2" d="M2.987,59.76h0.96"/>
<path fill="none" stroke="#000000" stroke-width="2" d="M2.987,64.775h0.96"/>
<path fill="none" stroke="#000000" stroke-width="2" d="M2.987,69.789h0.96"/>
<path fill="none" stroke="#000000" stroke-width="2" d="M2.987,74.804h0.96"/>
<path fill="none" stroke="#000000" stroke-width="2" d="M2.987,79.819h0.96"/>
<path fill="none" stroke="#000000" stroke-width="2" d="M2.987,84.941h0.96"/>
<path fill="none" stroke="#000000" stroke-width="2" d="M2.987,89.955h0.96"/>
<path fill="none" stroke="#000000" stroke-width="2" d="M2.987,94.97h0.96"/>
<path fill="none" stroke="#000000" stroke-width="2" d="M2.987,99.985h0.96"/>
<path fill="none" stroke="#000000" stroke-width="2" d="M2.987,55.812h2.027"/>
<path fill="none" stroke="#000000" stroke-width="2" d="M2.987,60.72h2.027"/>
<path fill="none" stroke="#000000" stroke-width="2" d="M2.987,65.842h2.027"/>
<path fill="none" stroke="#000000" stroke-width="2" d="M2.987,70.857h2.027"/>
<path fill="none" stroke="#000000" stroke-width="2" d="M2.987,75.871h2.027"/>
<path fill="none" stroke="#000000" stroke-width="2" d="M2.987,80.886h2.027"/>
<path fill="none" stroke="#000000" stroke-width="2" d="M2.987,85.901h2.027"/>
<path fill="none" stroke="#000000" stroke-width="2" d="M2.987,90.915h2.027"/>
<path fill="none" stroke="#000000" stroke-width="2" d="M2.987,95.93h2.027"/>
<path fill="none" stroke="#000000" stroke-width="2" d="M2.987,100.946h2.027"/>
<path fill="none" stroke="#000000" stroke-width="2" d="M3.948,56.773h-0.96"/>
<path fill="none" stroke="#000000" stroke-width="2" d="M3.948,61.787h-0.96"/>
<path fill="none" stroke="#000000" stroke-width="2" d="M3.948,66.802h-0.96"/>
<path fill="none" stroke="#000000" stroke-width="2" d="M3.948,71.817h-0.96"/>
<path fill="none" stroke="#000000" stroke-width="2" d="M3.948,76.831h-0.96"/>
<path fill="none" stroke="#000000" stroke-width="2" d="M3.948,81.846h-0.96"/>
<path fill="none" stroke="#000000" stroke-width="2" d="M3.948,86.861h-0.96"/>
<path fill="none" stroke="#000000" stroke-width="2" d="M3.948,91.983h-0.96"/>
<path fill="none" stroke="#000000" stroke-width="2" d="M3.948,96.997h-0.96"/>
<path fill="none" stroke="#000000" stroke-width="2" d="M3.948,102.012h-0.96"/>
<path fill="none" stroke="#000000" stroke-width="2" d="M2.987,57.839h0.96"/>
<path fill="none" stroke="#000000" stroke-width="2" d="M2.987,62.747h0.96"/>
<path fill="none" stroke="#000000" stroke-width="2" d="M2.987,67.762h0.96"/>
<path fill="none" stroke="#000000" stroke-width="2" d="M2.987,72.884h0.96"/>
<path fill="none" stroke="#000000" stroke-width="2" d="M2.987,77.899h0.96"/>
<path fill="none" stroke="#000000" stroke-width="2" d="M2.987,82.913h0.96"/>
<path fill="none" stroke="#000000" stroke-width="2" d="M2.987,87.928h0.96"/>
<path fill="none" stroke="#000000" stroke-width="2" d="M2.987,92.943h0.96"/>
<path fill="none" stroke="#000000" stroke-width="2" d="M2.987,97.957h0.96"/>
<path fill="none" stroke="#000000" stroke-width="2" d="M2.987,2.996h3.948"/>
<path fill="none" stroke="#000000" stroke-width="2" d="M2.987,53.251h3.948"/>
<path fill="none" stroke="#000000" stroke-width="2" d="M2.987,3.957h0.96"/>
<path fill="none" stroke="#000000" stroke-width="2" d="M2.987,8.972h0.96"/>
<path fill="none" stroke="#000000" stroke-width="2" d="M2.987,13.987h0.96"/>
<path fill="none" stroke="#000000" stroke-width="2" d="M2.987,19.001h0.96"/>
<path fill="none" stroke="#000000" stroke-width="2" d="M2.987,24.016h0.96"/>
<path fill="none" stroke="#000000" stroke-width="2" d="M2.987,29.031h0.96"/>
<path fill="none" stroke="#000000" stroke-width="2" d="M2.987,34.045h0.96"/>
<path fill="none" stroke="#000000" stroke-width="2" d="M2.987,39.167h0.96"/>
<path fill="none" stroke="#000000" stroke-width="2" d="M2.987,44.182h0.96"/>
<path fill="none" stroke="#000000" stroke-width="2" d="M2.987,49.197h0.96"/>
<path fill="none" stroke="#000000" stroke-width="2" d="M2.987,5.024h0.96"/>
<path fill="none" stroke="#000000" stroke-width="2" d="M2.987,9.932h0.96"/>
<path fill="none" stroke="#000000" stroke-width="2" d="M2.987,14.947h0.96"/>
<path fill="none" stroke="#000000" stroke-width="2" d="M2.987,20.069h0.96"/>
<path fill="none" stroke="#000000" stroke-width="2" d="M2.987,25.083h0.96"/>
<path fill="none" stroke="#000000" stroke-width="2" d="M2.987,30.098h0.96"/>
<path fill="none" stroke="#000000" stroke-width="2" d="M2.987,35.113h0.96"/>
<path fill="none" stroke="#000000" stroke-width="2" d="M2.987,40.127h0.96"/>
<path fill="none" stroke="#000000" stroke-width="2" d="M2.987,45.142h0.96"/>
<path fill="none" stroke="#000000" stroke-width="2" d="M2.987,50.157h0.96"/>
<path fill="none" stroke="#000000" stroke-width="2" d="M2.987,5.984h0.96"/>
<path fill="none" stroke="#000000" stroke-width="2" d="M2.987,10.999h0.96"/>
<path fill="none" stroke="#000000" stroke-width="2" d="M2.987,16.014h0.96"/>
<path fill="none" stroke="#000000" stroke-width="2" d="M2.987,21.029h0.96"/>
<path fill="none" stroke="#000000" stroke-width="2" d="M2.987,26.043h0.96"/>
<path fill="none" stroke="#000000" stroke-width="2" d="M2.987,31.058h0.96"/>
<path fill="none" stroke="#000000" stroke-width="2" d="M2.987,36.073h0.96"/>
<path fill="none" stroke="#000000" stroke-width="2" d="M2.987,41.088h0.96"/>
<path fill="none" stroke="#000000" stroke-width="2" d="M2.987,46.103h0.96"/>
<path fill="none" stroke="#000000" stroke-width="2" d="M2.987,51.224h0.96"/>
<path fill="none" stroke="#000000" stroke-width="2" d="M2.987,6.945h0.96"/>
<path fill="none" stroke="#000000" stroke-width="2" d="M2.987,11.959h0.96"/>
<path fill="none" stroke="#000000" stroke-width="2" d="M2.987,16.974h0.96"/>
<path fill="none" stroke="#000000" stroke-width="2" d="M2.987,21.989h0.96"/>
<path fill="none" stroke="#000000" stroke-width="2" d="M2.987,27.003h0.96"/>
<path fill="none" stroke="#000000" stroke-width="2" d="M2.987,32.125h0.96"/>
<path fill="none" stroke="#000000" stroke-width="2" d="M2.987,37.14h0.96"/>
<path fill="none" stroke="#000000" stroke-width="2" d="M2.987,42.155h0.96"/>
<path fill="none" stroke="#000000" stroke-width="2" d="M2.987,47.169h0.96"/>
<path fill="none" stroke="#000000" stroke-width="2" d="M2.987,52.184h0.96"/>
<path fill="none" stroke="#000000" stroke-width="2" d="M2.987,8.011h3.948"/>
<path fill="none" stroke="#000000" stroke-width="2" d="M2.987,13.027h3.948"/>
<path fill="none" stroke="#000000" stroke-width="2" d="M2.987,18.041h3.948"/>
<path fill="none" stroke="#000000" stroke-width="2" d="M2.987,23.056h3.948"/>
<path fill="none" stroke="#000000" stroke-width="2" d="M2.987,28.071h3.948"/>
<path fill="none" stroke="#000000" stroke-width="2" d="M2.987,33.085h3.948"/>
<path fill="none" stroke="#000000" stroke-width="2" d="M2.987,38.1h3.948"/>
<path fill="none" stroke="#000000" stroke-width="2" d="M2.987,43.115h3.948"/>
<path fill="none" stroke="#000000" stroke-width="2" d="M2.987,48.13h3.948"/>
<path fill="none" stroke="#000000" stroke-width="2" d="M2.987,3.423h0.96"/>
<path fill="none" stroke="#000000" stroke-width="2" d="M2.987,8.438h0.96"/>
<path fill="none" stroke="#000000" stroke-width="2" d="M2.987,13.453h0.96"/>
<path fill="none" stroke="#000000" stroke-width="2" d="M2.987,18.468h0.96"/>
<path fill="none" stroke="#000000" stroke-width="2" d="M2.987,23.589h0.96"/>
<path fill="none" stroke="#000000" stroke-width="2" d="M2.987,28.604h0.96"/>
<path fill="none" stroke="#000000" stroke-width="2" d="M2.987,33.618h0.96"/>
<path fill="none" stroke="#000000" stroke-width="2" d="M2.987,38.634h0.96"/>
<path fill="none" stroke="#000000" stroke-width="2" d="M2.987,43.649h0.96"/>
<path fill="none" stroke="#000000" stroke-width="2" d="M2.987,48.663h0.96"/>
<path fill="none" stroke="#000000" stroke-width="2" d="M2.987,4.49h0.96"/>
<path fill="none" stroke="#000000" stroke-width="2" d="M2.987,9.505h0.96"/>
<path fill="none" stroke="#000000" stroke-width="2" d="M2.987,14.52h0.96"/>
<path fill="none" stroke="#000000" stroke-width="2" d="M2.987,19.534h0.96"/>
<path fill="none" stroke="#000000" stroke-width="2" d="M2.987,24.549h0.96"/>
<path fill="none" stroke="#000000" stroke-width="2" d="M2.987,29.565h0.96"/>
<path fill="none" stroke="#000000" stroke-width="2" d="M2.987,34.579h0.96"/>
<path fill="none" stroke="#000000" stroke-width="2" d="M2.987,39.594h0.96"/>
<path fill="none" stroke="#000000" stroke-width="2" d="M2.987,44.609h0.96"/>
<path fill="none" stroke="#000000" stroke-width="2" d="M2.987,49.623h0.96"/>
<path fill="none" stroke="#000000" stroke-width="2" d="M2.987,5.45h2.027"/>
<path fill="none" stroke="#000000" stroke-width="2" d="M2.987,10.465h2.027"/>
<path fill="none" stroke="#000000" stroke-width="2" d="M2.987,15.48h2.027"/>
<path fill="none" stroke="#000000" stroke-width="2" d="M2.987,20.495h2.027"/>
<path fill="none" stroke="#000000" stroke-width="2" d="M2.987,25.51h2.027"/>
<path fill="none" stroke="#000000" stroke-width="2" d="M2.987,30.525h2.027"/>
<path fill="none" stroke="#000000" stroke-width="2" d="M2.987,35.646h2.027"/>
<path fill="none" stroke="#000000" stroke-width="2" d="M2.987,40.661h2.027"/>
<path fill="none" stroke="#000000" stroke-width="2" d="M2.987,45.676h2.027"/>
<path fill="none" stroke="#000000" stroke-width="2" d="M2.987,50.691h2.027"/>
<path fill="none" stroke="#000000" stroke-width="2" d="M3.948,6.518h-0.96"/>
<path fill="none" stroke="#000000" stroke-width="2" d="M3.948,11.426h-0.96"/>
<path fill="none" stroke="#000000" stroke-width="2" d="M3.948,16.547h-0.96"/>
<path fill="none" stroke="#000000" stroke-width="2" d="M3.948,21.562h-0.96"/>
<path fill="none" stroke="#000000" stroke-width="2" d="M3.948,26.576h-0.96"/>
<path fill="none" stroke="#000000" stroke-width="2" d="M3.948,31.592h-0.96"/>
<path fill="none" stroke="#000000" stroke-width="2" d="M3.948,36.607h-0.96"/>
<path fill="none" stroke="#000000" stroke-width="2" d="M3.948,41.621h-0.96"/>
<path fill="none" stroke="#000000" stroke-width="2" d="M3.948,46.636h-0.96"/>
<path fill="none" stroke="#000000" stroke-width="2" d="M3.948,51.651h-0.96"/>
<path fill="none" stroke="#000000" stroke-width="2" d="M2.987,7.478h0.96"/>
<path fill="none" stroke="#000000" stroke-width="2" d="M2.987,12.492h0.96"/>
<path fill="none" stroke="#000000" stroke-width="2" d="M2.987,17.507h0.96"/>
<path fill="none" stroke="#000000" stroke-width="2" d="M2.987,22.523h0.96"/>
<path fill="none" stroke="#000000" stroke-width="2" d="M2.987,27.537h0.96"/>
<path fill="none" stroke="#000000" stroke-width="2" d="M2.987,32.552h0.96"/>
<path fill="none" stroke="#000000" stroke-width="2" d="M2.987,37.567h0.96"/>
<path fill="none" stroke="#000000" stroke-width="2" d="M2.987,42.688h0.96"/>
<path fill="none" stroke="#000000" stroke-width="2" d="M2.987,47.703h0.96"/>
<path fill="none" stroke="#000000" stroke-width="2" d="M2.987,52.718h0.96"/>
<path fill="none" stroke="#000000" stroke-width="2" d="M2.987,102.973h0.96"/>
</svg>
