<?xml version="1.0" encoding="utf-8"?>
<!-- Generator: Adobe Illustrator 14.0.0, SVG Export Plug-In . SVG Version: 6.00 Build 43363)  -->
<!DOCTYPE svg PUBLIC "-//W3C//DTD SVG 1.1//EN" "http://www.w3.org/Graphics/SVG/1.1/DTD/svg11.dtd">
<svg version="1.1" id="图层_1" xmlns="http://www.w3.org/2000/svg" xmlns:xlink="http://www.w3.org/1999/xlink" x="0px" y="0px"
	 width="144.749px" height="39.053px" viewBox="0 0 144.749 39.053" enable-background="new 0 0 144.749 39.053"
	 xml:space="preserve">
<path fill="#333333" stroke="#000000" stroke-width="2" d="M125.628,32.771v2.185l12.836-8.466v-2.185L125.628,32.771z"/>
<path fill="#E5E5E5" stroke="#000000" stroke-width="2" d="M5.193,15.84l12.836-8.466h121.527l-12.835,8.466H5.193z"/>
<path fill="#666666" stroke="#000000" stroke-width="2" d="M6.285,32.771v2.185h119.343v-2.185H6.285z"/>
<path stroke="#000000" stroke-width="2" d="M22.124,12.563v1.092h87.664v-1.092H22.124z"/>
<path stroke="#000000" stroke-width="2" d="M109.788,13.655l6.281-4.096V8.466l-6.281,4.097V13.655z"/>
<path fill="#CCCCCC" stroke="#000000" stroke-width="2" d="M21.305,12.563l0.819-4.097h87.664l1.093,4.097H21.305z"/>
<path fill="#CCCCCC" stroke="#000000" stroke-width="2" d="M4.1,32.771L5.193,15.84h121.528l1.092,16.932h0.273H4.1z"/>
<path fill="#B2B2B2" stroke="#000000" stroke-width="2" d="M109.788,8.466l6.281-4.369l1.093,4.369l-6.281,4.097L109.788,8.466z"/>
<path fill="#B2B2B2" stroke="#000000" stroke-width="2" d="M126.721,15.84l12.835-8.466l1.093,16.932l-12.836,8.466L126.721,15.84z"
	/>
<path fill="#E5E5E5" stroke="#000000" stroke-width="2" d="M109.788,8.466l6.281-4.369H28.679l-6.555,4.369H109.788z"/>
</svg>
