<?xml version="1.0" encoding="utf-8"?>
<!-- Generator: Adobe Illustrator 14.0.0, SVG Export Plug-In . SVG Version: 6.00 Build 43363)  -->
<!DOCTYPE svg PUBLIC "-//W3C//DTD SVG 1.1//EN" "http://www.w3.org/Graphics/SVG/1.1/DTD/svg11.dtd">
<svg version="1.1" id="图层_1" xmlns="http://www.w3.org/2000/svg" xmlns:xlink="http://www.w3.org/1999/xlink" x="0px" y="0px"
	 width="26.014px" height="106.502px" viewBox="0 0 26.014 106.502" enable-background="new 0 0 26.014 106.502"
	 xml:space="preserve">
<path fill="none" stroke="#000000" stroke-width="2" d="M2.879,2.878h20.149"/>
<path fill="none" stroke="#000000" stroke-width="2" d="M2.879,27.932h20.149"/>
<path fill="none" stroke="#000000" stroke-width="2" d="M2.879,53.091h20.149"/>
<path fill="none" stroke="#000000" stroke-width="2" d="M2.879,78.358h20.149"/>
<path fill="none" stroke="#000000" stroke-width="2" d="M2.879,103.518h20.149"/>
<path fill="none" stroke="#000000" stroke-width="2" d="M7.889,5.437h10.128"/>
<path fill="none" stroke="#000000" stroke-width="2" d="M7.889,30.384h10.128"/>
<path fill="none" stroke="#000000" stroke-width="2" d="M7.889,55.65h10.128"/>
<path fill="none" stroke="#000000" stroke-width="2" d="M7.889,80.81h10.128"/>
<path fill="none" stroke="#000000" stroke-width="2" d="M7.889,7.889h10.128"/>
<path fill="none" stroke="#000000" stroke-width="2" d="M7.889,32.943h10.128"/>
<path fill="none" stroke="#000000" stroke-width="2" d="M7.889,58.102h10.128"/>
<path fill="none" stroke="#000000" stroke-width="2" d="M7.889,83.368h10.128"/>
<path fill="none" stroke="#000000" stroke-width="2" d="M7.889,10.448h10.128"/>
<path fill="none" stroke="#000000" stroke-width="2" d="M7.889,35.501h10.128"/>
<path fill="none" stroke="#000000" stroke-width="2" d="M7.889,60.66h10.128"/>
<path fill="none" stroke="#000000" stroke-width="2" d="M7.889,85.927h10.128"/>
<path fill="none" stroke="#000000" stroke-width="2" d="M7.889,13.006h10.128"/>
<path fill="none" stroke="#000000" stroke-width="2" d="M7.889,37.952h10.128"/>
<path fill="none" stroke="#000000" stroke-width="2" d="M7.889,63.219h10.128"/>
<path fill="none" stroke="#000000" stroke-width="2" d="M7.889,88.379h10.128"/>
<path fill="none" stroke="#000000" stroke-width="2" d="M7.889,15.458h10.128"/>
<path fill="none" stroke="#000000" stroke-width="2" d="M7.889,40.511h10.128"/>
<path fill="none" stroke="#000000" stroke-width="2" d="M7.889,65.671h10.128"/>
<path fill="none" stroke="#000000" stroke-width="2" d="M7.889,90.938h10.128"/>
<path fill="none" stroke="#000000" stroke-width="2" d="M7.889,18.017h10.128"/>
<path fill="none" stroke="#000000" stroke-width="2" d="M7.889,42.963h10.128"/>
<path fill="none" stroke="#000000" stroke-width="2" d="M7.889,68.23h10.128"/>
<path fill="none" stroke="#000000" stroke-width="2" d="M7.889,93.39h10.128"/>
<path fill="none" stroke="#000000" stroke-width="2" d="M7.889,20.469h10.128"/>
<path fill="none" stroke="#000000" stroke-width="2" d="M7.889,45.522h10.128"/>
<path fill="none" stroke="#000000" stroke-width="2" d="M7.889,70.788h10.128"/>
<path fill="none" stroke="#000000" stroke-width="2" d="M7.889,95.948h10.128"/>
<path fill="none" stroke="#000000" stroke-width="2" d="M7.889,23.028h10.128"/>
<path fill="none" stroke="#000000" stroke-width="2" d="M7.889,48.08h10.128"/>
<path fill="none" stroke="#000000" stroke-width="2" d="M7.889,73.24h10.128"/>
<path fill="none" stroke="#000000" stroke-width="2" d="M7.889,98.507h10.128"/>
<path fill="none" stroke="#000000" stroke-width="2" d="M7.889,25.586h10.128"/>
<path fill="none" stroke="#000000" stroke-width="2" d="M7.889,50.532h10.128"/>
<path fill="none" stroke="#000000" stroke-width="2" d="M7.889,75.799h10.128"/>
<path fill="none" stroke="#000000" stroke-width="2" d="M7.889,100.959h10.128"/>
</svg>
