<?xml version="1.0" encoding="utf-8"?>
<!-- Generator: Adobe Illustrator 14.0.0, SVG Export Plug-In . SVG Version: 6.00 Build 43363)  -->
<!DOCTYPE svg PUBLIC "-//W3C//DTD SVG 1.1//EN" "http://www.w3.org/Graphics/SVG/1.1/DTD/svg11.dtd">
<svg version="1.1" id="图层_1" xmlns="http://www.w3.org/2000/svg" xmlns:xlink="http://www.w3.org/1999/xlink" x="0px" y="0px"
	 width="13.968px" height="106.502px" viewBox="0 0 13.968 106.502" enable-background="new 0 0 13.968 106.502"
	 xml:space="preserve">
<path fill="none" stroke="#000000" stroke-width="2" d="M2.987,2.985h7.995"/>
<path fill="none" stroke="#000000" stroke-width="2" d="M2.987,103.41h7.995"/>
<path fill="none" stroke="#000000" stroke-width="2" d="M2.987,12.9h7.995"/>
<path fill="none" stroke="#000000" stroke-width="2" d="M2.987,22.921h7.995"/>
<path fill="none" stroke="#000000" stroke-width="2" d="M2.987,33.049h7.995"/>
<path fill="none" stroke="#000000" stroke-width="2" d="M2.987,43.071h7.995"/>
<path fill="none" stroke="#000000" stroke-width="2" d="M2.987,53.091h7.995"/>
<path fill="none" stroke="#000000" stroke-width="2" d="M2.987,63.113h7.995"/>
<path fill="none" stroke="#000000" stroke-width="2" d="M2.987,73.134h7.995"/>
<path fill="none" stroke="#000000" stroke-width="2" d="M2.987,83.156h7.995"/>
<path fill="none" stroke="#000000" stroke-width="2" d="M2.987,93.282h7.995"/>
<path fill="none" stroke="#000000" stroke-width="2" d="M5.012,3.945h3.944"/>
<path fill="none" stroke="#000000" stroke-width="2" d="M5.012,13.966h3.944"/>
<path fill="none" stroke="#000000" stroke-width="2" d="M5.012,23.987h3.944"/>
<path fill="none" stroke="#000000" stroke-width="2" d="M5.012,34.008h3.944"/>
<path fill="none" stroke="#000000" stroke-width="2" d="M5.012,44.03h3.944"/>
<path fill="none" stroke="#000000" stroke-width="2" d="M5.012,54.051h3.944"/>
<path fill="none" stroke="#000000" stroke-width="2" d="M5.012,64.073h3.944"/>
<path fill="none" stroke="#000000" stroke-width="2" d="M5.012,74.199h3.944"/>
<path fill="none" stroke="#000000" stroke-width="2" d="M5.012,84.221h3.944"/>
<path fill="none" stroke="#000000" stroke-width="2" d="M5.012,94.242h3.944"/>
<path fill="none" stroke="#000000" stroke-width="2" d="M5.012,5.011h3.944"/>
<path fill="none" stroke="#000000" stroke-width="2" d="M5.012,14.925h3.944"/>
<path fill="none" stroke="#000000" stroke-width="2" d="M5.012,24.947h3.944"/>
<path fill="none" stroke="#000000" stroke-width="2" d="M5.012,34.968h3.944"/>
<path fill="none" stroke="#000000" stroke-width="2" d="M5.012,45.096h3.944"/>
<path fill="none" stroke="#000000" stroke-width="2" d="M5.012,55.116h3.944"/>
<path fill="none" stroke="#000000" stroke-width="2" d="M5.012,65.138h3.944"/>
<path fill="none" stroke="#000000" stroke-width="2" d="M5.012,75.159h3.944"/>
<path fill="none" stroke="#000000" stroke-width="2" d="M5.012,85.181h3.944"/>
<path fill="none" stroke="#000000" stroke-width="2" d="M5.012,95.201h3.944"/>
<path fill="none" stroke="#000000" stroke-width="2" d="M5.012,5.97h3.944"/>
<path fill="none" stroke="#000000" stroke-width="2" d="M5.012,15.885h3.944"/>
<path fill="none" stroke="#000000" stroke-width="2" d="M5.012,26.013h3.944"/>
<path fill="none" stroke="#000000" stroke-width="2" d="M5.012,36.033h3.944"/>
<path fill="none" stroke="#000000" stroke-width="2" d="M5.012,46.055h3.944"/>
<path fill="none" stroke="#000000" stroke-width="2" d="M5.012,56.076h3.944"/>
<path fill="none" stroke="#000000" stroke-width="2" d="M5.012,66.098h3.944"/>
<path fill="none" stroke="#000000" stroke-width="2" d="M5.012,76.118h3.944"/>
<path fill="none" stroke="#000000" stroke-width="2" d="M5.012,86.246h3.944"/>
<path fill="none" stroke="#000000" stroke-width="2" d="M5.012,96.268h3.944"/>
<path fill="none" stroke="#000000" stroke-width="2" d="M5.012,6.93h3.944"/>
<path fill="none" stroke="#000000" stroke-width="2" d="M5.012,16.95h3.944"/>
<path fill="none" stroke="#000000" stroke-width="2" d="M5.012,26.972h3.944"/>
<path fill="none" stroke="#000000" stroke-width="2" d="M5.012,36.993h3.944"/>
<path fill="none" stroke="#000000" stroke-width="2" d="M5.012,47.015h3.944"/>
<path fill="none" stroke="#000000" stroke-width="2" d="M5.012,57.143h3.944"/>
<path fill="none" stroke="#000000" stroke-width="2" d="M5.012,67.163h3.944"/>
<path fill="none" stroke="#000000" stroke-width="2" d="M5.012,77.185h3.944"/>
<path fill="none" stroke="#000000" stroke-width="2" d="M5.012,87.206h3.944"/>
<path fill="none" stroke="#000000" stroke-width="2" d="M5.012,97.228h3.944"/>
<path fill="none" stroke="#000000" stroke-width="2" d="M5.012,7.995h3.944"/>
<path fill="none" stroke="#000000" stroke-width="2" d="M5.012,17.91h3.944"/>
<path fill="none" stroke="#000000" stroke-width="2" d="M5.012,27.932h3.944"/>
<path fill="none" stroke="#000000" stroke-width="2" d="M5.012,38.06h3.944"/>
<path fill="none" stroke="#000000" stroke-width="2" d="M5.012,48.08h3.944"/>
<path fill="none" stroke="#000000" stroke-width="2" d="M5.012,58.102h3.944"/>
<path fill="none" stroke="#000000" stroke-width="2" d="M5.012,68.123h3.944"/>
<path fill="none" stroke="#000000" stroke-width="2" d="M5.012,78.145h3.944"/>
<path fill="none" stroke="#000000" stroke-width="2" d="M5.012,88.165h3.944"/>
<path fill="none" stroke="#000000" stroke-width="2" d="M5.012,98.293h3.944"/>
<path fill="none" stroke="#000000" stroke-width="2" d="M5.012,8.955h3.944"/>
<path fill="none" stroke="#000000" stroke-width="2" d="M5.012,18.977h3.944"/>
<path fill="none" stroke="#000000" stroke-width="2" d="M5.012,28.997h3.944"/>
<path fill="none" stroke="#000000" stroke-width="2" d="M5.012,39.019h3.944"/>
<path fill="none" stroke="#000000" stroke-width="2" d="M5.012,49.04h3.944"/>
<path fill="none" stroke="#000000" stroke-width="2" d="M5.012,59.062h3.944"/>
<path fill="none" stroke="#000000" stroke-width="2" d="M5.012,69.19h3.944"/>
<path fill="none" stroke="#000000" stroke-width="2" d="M5.012,79.21h3.944"/>
<path fill="none" stroke="#000000" stroke-width="2" d="M5.012,89.232h3.944"/>
<path fill="none" stroke="#000000" stroke-width="2" d="M5.012,99.253h3.944"/>
<path fill="none" stroke="#000000" stroke-width="2" d="M5.012,10.022h3.944"/>
<path fill="none" stroke="#000000" stroke-width="2" d="M5.012,19.936h3.944"/>
<path fill="none" stroke="#000000" stroke-width="2" d="M5.012,29.957h3.944"/>
<path fill="none" stroke="#000000" stroke-width="2" d="M5.012,39.979h3.944"/>
<path fill="none" stroke="#000000" stroke-width="2" d="M5.012,50.107h3.944"/>
<path fill="none" stroke="#000000" stroke-width="2" d="M5.012,60.127h3.944"/>
<path fill="none" stroke="#000000" stroke-width="2" d="M5.012,70.149h3.944"/>
<path fill="none" stroke="#000000" stroke-width="2" d="M5.012,80.17h3.944"/>
<path fill="none" stroke="#000000" stroke-width="2" d="M5.012,90.192h3.944"/>
<path fill="none" stroke="#000000" stroke-width="2" d="M5.012,100.212h3.944"/>
<path fill="none" stroke="#000000" stroke-width="2" d="M5.012,10.981h3.944"/>
<path fill="none" stroke="#000000" stroke-width="2" d="M5.012,21.002h3.944"/>
<path fill="none" stroke="#000000" stroke-width="2" d="M5.012,31.024h3.944"/>
<path fill="none" stroke="#000000" stroke-width="2" d="M5.012,41.044h3.944"/>
<path fill="none" stroke="#000000" stroke-width="2" d="M5.012,51.066h3.944"/>
<path fill="none" stroke="#000000" stroke-width="2" d="M5.012,61.087h3.944"/>
<path fill="none" stroke="#000000" stroke-width="2" d="M5.012,71.109h3.944"/>
<path fill="none" stroke="#000000" stroke-width="2" d="M5.012,81.237h3.944"/>
<path fill="none" stroke="#000000" stroke-width="2" d="M5.012,91.257h3.944"/>
<path fill="none" stroke="#000000" stroke-width="2" d="M5.012,101.279h3.944"/>
<path fill="none" stroke="#000000" stroke-width="2" d="M5.012,12.047h3.944"/>
<path fill="none" stroke="#000000" stroke-width="2" d="M5.012,21.961h3.944"/>
<path fill="none" stroke="#000000" stroke-width="2" d="M5.012,31.983h3.944"/>
<path fill="none" stroke="#000000" stroke-width="2" d="M5.012,42.004h3.944"/>
<path fill="none" stroke="#000000" stroke-width="2" d="M5.012,52.026h3.944"/>
<path fill="none" stroke="#000000" stroke-width="2" d="M5.012,62.154h3.944"/>
<path fill="none" stroke="#000000" stroke-width="2" d="M5.012,72.174h3.944"/>
<path fill="none" stroke="#000000" stroke-width="2" d="M5.012,82.196h3.944"/>
<path fill="none" stroke="#000000" stroke-width="2" d="M5.012,92.217h3.944"/>
<path fill="none" stroke="#000000" stroke-width="2" d="M5.012,102.239h3.944"/>
</svg>
