<?xml version="1.0" encoding="utf-8"?>
<!-- Generator: Adobe Illustrator 14.0.0, SVG Export Plug-In . SVG Version: 6.00 Build 43363)  -->
<!DOCTYPE svg PUBLIC "-//W3C//DTD SVG 1.1//EN" "http://www.w3.org/Graphics/SVG/1.1/DTD/svg11.dtd">
<svg version="1.1" id="图层_1" xmlns="http://www.w3.org/2000/svg" xmlns:xlink="http://www.w3.org/1999/xlink" x="0px" y="0px"
	 width="17.374px" height="106.502px" viewBox="0 0 17.374 106.502" enable-background="new 0 0 17.374 106.502"
	 xml:space="preserve">
<path fill="none" stroke="#000000" stroke-width="2" d="M2.984,2.995H14.39"/>
<path fill="none" stroke="#000000" stroke-width="2" d="M2.984,17.172H14.39"/>
<path fill="none" stroke="#000000" stroke-width="2" d="M2.984,31.561H14.39"/>
<path fill="none" stroke="#000000" stroke-width="2" d="M2.984,45.95H14.39"/>
<path fill="none" stroke="#000000" stroke-width="2" d="M2.984,60.339H14.39"/>
<path fill="none" stroke="#000000" stroke-width="2" d="M2.984,74.729H14.39"/>
<path fill="none" stroke="#000000" stroke-width="2" d="M2.984,89.117H14.39"/>
<path fill="none" stroke="#000000" stroke-width="2" d="M2.984,103.401H14.39"/>
<path fill="none" stroke="#000000" stroke-width="2" d="M5.862,4.381h5.648"/>
<path fill="none" stroke="#000000" stroke-width="2" d="M5.862,18.664h5.648"/>
<path fill="none" stroke="#000000" stroke-width="2" d="M5.862,33.053h5.648"/>
<path fill="none" stroke="#000000" stroke-width="2" d="M5.862,47.443h5.648"/>
<path fill="none" stroke="#000000" stroke-width="2" d="M5.862,61.725h5.648"/>
<path fill="none" stroke="#000000" stroke-width="2" d="M5.862,76.115h5.648"/>
<path fill="none" stroke="#000000" stroke-width="2" d="M5.862,90.503h5.648"/>
<path fill="none" stroke="#000000" stroke-width="2" d="M5.862,5.873h5.648"/>
<path fill="none" stroke="#000000" stroke-width="2" d="M5.862,20.049h5.648"/>
<path fill="none" stroke="#000000" stroke-width="2" d="M5.862,34.439h5.648"/>
<path fill="none" stroke="#000000" stroke-width="2" d="M5.862,48.827h5.648"/>
<path fill="none" stroke="#000000" stroke-width="2" d="M5.862,63.217h5.648"/>
<path fill="none" stroke="#000000" stroke-width="2" d="M5.862,77.607h5.648"/>
<path fill="none" stroke="#000000" stroke-width="2" d="M5.862,91.995h5.648"/>
<path fill="none" stroke="#000000" stroke-width="2" d="M5.862,7.259h5.648"/>
<path fill="none" stroke="#000000" stroke-width="2" d="M5.862,21.541h5.648"/>
<path fill="none" stroke="#000000" stroke-width="2" d="M5.862,35.931h5.648"/>
<path fill="none" stroke="#000000" stroke-width="2" d="M5.862,50.213h5.648"/>
<path fill="none" stroke="#000000" stroke-width="2" d="M5.862,64.603h5.648"/>
<path fill="none" stroke="#000000" stroke-width="2" d="M5.862,78.991h5.648"/>
<path fill="none" stroke="#000000" stroke-width="2" d="M5.862,93.381h5.648"/>
<path fill="none" stroke="#000000" stroke-width="2" d="M5.862,8.645h5.648"/>
<path fill="none" stroke="#000000" stroke-width="2" d="M5.862,22.927h5.648"/>
<path fill="none" stroke="#000000" stroke-width="2" d="M5.862,37.317h5.648"/>
<path fill="none" stroke="#000000" stroke-width="2" d="M5.862,51.705h5.648"/>
<path fill="none" stroke="#000000" stroke-width="2" d="M5.862,66.095h5.648"/>
<path fill="none" stroke="#000000" stroke-width="2" d="M5.862,80.484h5.648"/>
<path fill="none" stroke="#000000" stroke-width="2" d="M5.862,94.873h5.648"/>
<path fill="none" stroke="#000000" stroke-width="2" d="M5.862,10.137h5.648"/>
<path fill="none" stroke="#000000" stroke-width="2" d="M5.862,24.419h5.648"/>
<path fill="none" stroke="#000000" stroke-width="2" d="M5.862,38.809h5.648"/>
<path fill="none" stroke="#000000" stroke-width="2" d="M5.862,53.091h5.648"/>
<path fill="none" stroke="#000000" stroke-width="2" d="M5.862,67.481h5.648"/>
<path fill="none" stroke="#000000" stroke-width="2" d="M5.862,81.869h5.648"/>
<path fill="none" stroke="#000000" stroke-width="2" d="M5.862,96.259h5.648"/>
<path fill="none" stroke="#000000" stroke-width="2" d="M5.862,11.523h5.648"/>
<path fill="none" stroke="#000000" stroke-width="2" d="M5.862,25.805h5.648"/>
<path fill="none" stroke="#000000" stroke-width="2" d="M5.862,40.195h5.648"/>
<path fill="none" stroke="#000000" stroke-width="2" d="M5.862,54.583h5.648"/>
<path fill="none" stroke="#000000" stroke-width="2" d="M5.862,68.973h5.648"/>
<path fill="none" stroke="#000000" stroke-width="2" d="M5.862,83.362h5.648"/>
<path fill="none" stroke="#000000" stroke-width="2" d="M5.862,97.751h5.648"/>
<path fill="none" stroke="#000000" stroke-width="2" d="M5.862,13.015h5.648"/>
<path fill="none" stroke="#000000" stroke-width="2" d="M5.862,27.297h5.648"/>
<path fill="none" stroke="#000000" stroke-width="2" d="M5.862,41.687h5.648"/>
<path fill="none" stroke="#000000" stroke-width="2" d="M5.862,55.969h5.648"/>
<path fill="none" stroke="#000000" stroke-width="2" d="M5.862,70.359h5.648"/>
<path fill="none" stroke="#000000" stroke-width="2" d="M5.862,84.747h5.648"/>
<path fill="none" stroke="#000000" stroke-width="2" d="M5.862,99.137h5.648"/>
<path fill="none" stroke="#000000" stroke-width="2" d="M5.862,14.401h5.648"/>
<path fill="none" stroke="#000000" stroke-width="2" d="M5.862,28.683h5.648"/>
<path fill="none" stroke="#000000" stroke-width="2" d="M5.862,43.073h5.648"/>
<path fill="none" stroke="#000000" stroke-width="2" d="M5.862,57.461h5.648"/>
<path fill="none" stroke="#000000" stroke-width="2" d="M5.862,71.851h5.648"/>
<path fill="none" stroke="#000000" stroke-width="2" d="M5.862,86.24h5.648"/>
<path fill="none" stroke="#000000" stroke-width="2" d="M5.862,100.523h5.648"/>
<path fill="none" stroke="#000000" stroke-width="2" d="M5.862,15.893h5.648"/>
<path fill="none" stroke="#000000" stroke-width="2" d="M5.862,30.175h5.648"/>
<path fill="none" stroke="#000000" stroke-width="2" d="M5.862,44.565h5.648"/>
<path fill="none" stroke="#000000" stroke-width="2" d="M5.862,58.847h5.648"/>
<path fill="none" stroke="#000000" stroke-width="2" d="M5.862,73.237h5.648"/>
<path fill="none" stroke="#000000" stroke-width="2" d="M5.862,87.625h5.648"/>
<path fill="none" stroke="#000000" stroke-width="2" d="M5.862,102.015h5.648"/>
</svg>
