<?xml version="1.0" encoding="utf-8"?>
<!-- Generator: Adobe Illustrator 14.0.0, SVG Export Plug-In . SVG Version: 6.00 Build 43363)  -->
<!DOCTYPE svg PUBLIC "-//W3C//DTD SVG 1.1//EN" "http://www.w3.org/Graphics/SVG/1.1/DTD/svg11.dtd">
<svg version="1.1" id="图层_1" xmlns="http://www.w3.org/2000/svg" xmlns:xlink="http://www.w3.org/1999/xlink" x="0px" y="0px"
	 width="19.296px" height="106.502px" viewBox="0 0 19.296 106.502" enable-background="new 0 0 19.296 106.502"
	 xml:space="preserve">
<path fill="none" stroke="#000000" stroke-width="2" d="M2.878,2.879h13.433"/>
<path fill="none" stroke="#000000" stroke-width="2" d="M2.878,6.29H6.29"/>
<path fill="none" stroke="#000000" stroke-width="2" d="M2.878,22.921H6.29"/>
<path fill="none" stroke="#000000" stroke-width="2" d="M2.878,39.658H6.29"/>
<path fill="none" stroke="#000000" stroke-width="2" d="M2.878,56.503H6.29"/>
<path fill="none" stroke="#000000" stroke-width="2" d="M2.878,73.24H6.29"/>
<path fill="none" stroke="#000000" stroke-width="2" d="M2.878,90.084H6.29"/>
<path fill="none" stroke="#000000" stroke-width="2" d="M2.878,9.595H6.29"/>
<path fill="none" stroke="#000000" stroke-width="2" d="M2.878,26.226H6.29"/>
<path fill="none" stroke="#000000" stroke-width="2" d="M2.878,43.071H6.29"/>
<path fill="none" stroke="#000000" stroke-width="2" d="M2.878,59.808H6.29"/>
<path fill="none" stroke="#000000" stroke-width="2" d="M2.878,76.652H6.29"/>
<path fill="none" stroke="#000000" stroke-width="2" d="M2.878,93.389H6.29"/>
<path fill="none" stroke="#000000" stroke-width="2" d="M2.878,13.007H6.29"/>
<path fill="none" stroke="#000000" stroke-width="2" d="M2.878,29.638H6.29"/>
<path fill="none" stroke="#000000" stroke-width="2" d="M2.878,46.375H6.29"/>
<path fill="none" stroke="#000000" stroke-width="2" d="M2.878,63.219H6.29"/>
<path fill="none" stroke="#000000" stroke-width="2" d="M2.878,79.956H6.29"/>
<path fill="none" stroke="#000000" stroke-width="2" d="M2.878,96.8H6.29"/>
<path fill="none" stroke="#000000" stroke-width="2" d="M2.878,16.312H6.29"/>
<path fill="none" stroke="#000000" stroke-width="2" d="M2.878,32.943H6.29"/>
<path fill="none" stroke="#000000" stroke-width="2" d="M2.878,49.786H6.29"/>
<path fill="none" stroke="#000000" stroke-width="2" d="M2.878,66.524H6.29"/>
<path fill="none" stroke="#000000" stroke-width="2" d="M2.878,83.367H6.29"/>
<path fill="none" stroke="#000000" stroke-width="2" d="M2.878,100.106H6.29"/>
<path fill="none" stroke="#000000" stroke-width="2" d="M2.878,19.723h13.433"/>
<path fill="none" stroke="#000000" stroke-width="2" d="M2.878,36.354h13.433"/>
<path fill="none" stroke="#000000" stroke-width="2" d="M2.878,53.091h13.433"/>
<path fill="none" stroke="#000000" stroke-width="2" d="M2.878,69.936h13.433"/>
<path fill="none" stroke="#000000" stroke-width="2" d="M2.878,86.673h13.433"/>
<path fill="none" stroke="#000000" stroke-width="2" d="M2.878,103.517h13.433"/>
<path fill="none" stroke="#000000" stroke-width="2" d="M2.878,4.585H6.29"/>
<path fill="none" stroke="#000000" stroke-width="2" d="M2.878,21.216H6.29"/>
<path fill="none" stroke="#000000" stroke-width="2" d="M2.878,38.06H6.29"/>
<path fill="none" stroke="#000000" stroke-width="2" d="M2.878,54.797H6.29"/>
<path fill="none" stroke="#000000" stroke-width="2" d="M2.878,71.641H6.29"/>
<path fill="none" stroke="#000000" stroke-width="2" d="M2.878,88.378H6.29"/>
<path fill="none" stroke="#000000" stroke-width="2" d="M2.878,7.89H6.29"/>
<path fill="none" stroke="#000000" stroke-width="2" d="M2.878,24.627H6.29"/>
<path fill="none" stroke="#000000" stroke-width="2" d="M2.878,41.365H6.29"/>
<path fill="none" stroke="#000000" stroke-width="2" d="M2.878,58.208H6.29"/>
<path fill="none" stroke="#000000" stroke-width="2" d="M2.878,74.946H6.29"/>
<path fill="none" stroke="#000000" stroke-width="2" d="M2.878,91.79H6.29"/>
<path fill="none" stroke="#000000" stroke-width="2" d="M2.878,11.301h6.717"/>
<path fill="none" stroke="#000000" stroke-width="2" d="M2.878,27.932h6.717"/>
<path fill="none" stroke="#000000" stroke-width="2" d="M2.878,44.776h6.717"/>
<path fill="none" stroke="#000000" stroke-width="2" d="M2.878,61.513h6.717"/>
<path fill="none" stroke="#000000" stroke-width="2" d="M2.878,78.358h6.717"/>
<path fill="none" stroke="#000000" stroke-width="2" d="M2.878,95.095h6.717"/>
<path fill="none" stroke="#000000" stroke-width="2" d="M6.29,14.606H2.878"/>
<path fill="none" stroke="#000000" stroke-width="2" d="M6.29,31.343H2.878"/>
<path fill="none" stroke="#000000" stroke-width="2" d="M6.29,48.08H2.878"/>
<path fill="none" stroke="#000000" stroke-width="2" d="M6.29,64.925H2.878"/>
<path fill="none" stroke="#000000" stroke-width="2" d="M6.29,81.662H2.878"/>
<path fill="none" stroke="#000000" stroke-width="2" d="M6.29,98.506H2.878"/>
<path fill="none" stroke="#000000" stroke-width="2" d="M2.878,18.018H6.29"/>
<path fill="none" stroke="#000000" stroke-width="2" d="M2.878,34.648H6.29"/>
<path fill="none" stroke="#000000" stroke-width="2" d="M2.878,51.492H6.29"/>
<path fill="none" stroke="#000000" stroke-width="2" d="M2.878,68.23H6.29"/>
<path fill="none" stroke="#000000" stroke-width="2" d="M2.878,85.073H6.29"/>
<path fill="none" stroke="#000000" stroke-width="2" d="M2.878,101.811H6.29"/>
</svg>
