<?xml version="1.0" encoding="utf-8"?>
<!-- Generator: Adobe Illustrator 14.0.0, SVG Export Plug-In . SVG Version: 6.00 Build 43363)  -->
<!DOCTYPE svg PUBLIC "-//W3C//DTD SVG 1.1//EN" "http://www.w3.org/Graphics/SVG/1.1/DTD/svg11.dtd">
<svg version="1.1" id="图层_1" xmlns="http://www.w3.org/2000/svg" xmlns:xlink="http://www.w3.org/1999/xlink" x="0px" y="0px"
	 width="19.296px" height="106.502px" viewBox="0 0 19.296 106.502" enable-background="new 0 0 19.296 106.502"
	 xml:space="preserve">
<path fill="none" stroke="#000000" stroke-width="2" d="M2.878,2.879h13.433"/>
<path fill="none" stroke="#000000" stroke-width="2" d="M2.878,19.51h13.433"/>
<path fill="none" stroke="#000000" stroke-width="2" d="M2.878,36.354h13.433"/>
<path fill="none" stroke="#000000" stroke-width="2" d="M2.878,53.091h13.433"/>
<path fill="none" stroke="#000000" stroke-width="2" d="M2.878,69.936h13.433"/>
<path fill="none" stroke="#000000" stroke-width="2" d="M2.878,86.673h13.433"/>
<path fill="none" stroke="#000000" stroke-width="2" d="M2.878,103.517h13.433"/>
<path fill="none" stroke="#000000" stroke-width="2" d="M6.29,4.585h6.716"/>
<path fill="none" stroke="#000000" stroke-width="2" d="M6.29,21.216h6.716"/>
<path fill="none" stroke="#000000" stroke-width="2" d="M6.29,38.06h6.716"/>
<path fill="none" stroke="#000000" stroke-width="2" d="M6.29,54.797h6.716"/>
<path fill="none" stroke="#000000" stroke-width="2" d="M6.29,71.641h6.716"/>
<path fill="none" stroke="#000000" stroke-width="2" d="M6.29,88.378h6.716"/>
<path fill="none" stroke="#000000" stroke-width="2" d="M6.29,6.29h6.716"/>
<path fill="none" stroke="#000000" stroke-width="2" d="M6.29,22.921h6.716"/>
<path fill="none" stroke="#000000" stroke-width="2" d="M6.29,39.658h6.716"/>
<path fill="none" stroke="#000000" stroke-width="2" d="M6.29,56.503h6.716"/>
<path fill="none" stroke="#000000" stroke-width="2" d="M6.29,73.24h6.716"/>
<path fill="none" stroke="#000000" stroke-width="2" d="M6.29,90.084h6.716"/>
<path fill="none" stroke="#000000" stroke-width="2" d="M6.29,7.89h6.716"/>
<path fill="none" stroke="#000000" stroke-width="2" d="M6.29,24.627h6.716"/>
<path fill="none" stroke="#000000" stroke-width="2" d="M6.29,41.365h6.716"/>
<path fill="none" stroke="#000000" stroke-width="2" d="M6.29,58.208h6.716"/>
<path fill="none" stroke="#000000" stroke-width="2" d="M6.29,74.946h6.716"/>
<path fill="none" stroke="#000000" stroke-width="2" d="M6.29,91.79h6.716"/>
<path fill="none" stroke="#000000" stroke-width="2" d="M6.29,9.595h6.716"/>
<path fill="none" stroke="#000000" stroke-width="2" d="M6.29,26.226h6.716"/>
<path fill="none" stroke="#000000" stroke-width="2" d="M6.29,43.071h6.716"/>
<path fill="none" stroke="#000000" stroke-width="2" d="M6.29,59.808h6.716"/>
<path fill="none" stroke="#000000" stroke-width="2" d="M6.29,76.652h6.716"/>
<path fill="none" stroke="#000000" stroke-width="2" d="M6.29,93.389h6.716"/>
<path fill="none" stroke="#000000" stroke-width="2" d="M6.29,11.301h6.716"/>
<path fill="none" stroke="#000000" stroke-width="2" d="M6.29,27.932h6.716"/>
<path fill="none" stroke="#000000" stroke-width="2" d="M6.29,44.776h6.716"/>
<path fill="none" stroke="#000000" stroke-width="2" d="M6.29,61.513h6.716"/>
<path fill="none" stroke="#000000" stroke-width="2" d="M6.29,78.358h6.716"/>
<path fill="none" stroke="#000000" stroke-width="2" d="M6.29,95.095h6.716"/>
<path fill="none" stroke="#000000" stroke-width="2" d="M6.29,13.007h6.716"/>
<path fill="none" stroke="#000000" stroke-width="2" d="M6.29,29.638h6.716"/>
<path fill="none" stroke="#000000" stroke-width="2" d="M6.29,46.375h6.716"/>
<path fill="none" stroke="#000000" stroke-width="2" d="M6.29,63.219h6.716"/>
<path fill="none" stroke="#000000" stroke-width="2" d="M6.29,79.956h6.716"/>
<path fill="none" stroke="#000000" stroke-width="2" d="M6.29,96.8h6.716"/>
<path fill="none" stroke="#000000" stroke-width="2" d="M6.29,14.606h6.716"/>
<path fill="none" stroke="#000000" stroke-width="2" d="M6.29,31.343h6.716"/>
<path fill="none" stroke="#000000" stroke-width="2" d="M6.29,48.08h6.716"/>
<path fill="none" stroke="#000000" stroke-width="2" d="M6.29,64.925h6.716"/>
<path fill="none" stroke="#000000" stroke-width="2" d="M6.29,81.662h6.716"/>
<path fill="none" stroke="#000000" stroke-width="2" d="M6.29,98.506h6.716"/>
<path fill="none" stroke="#000000" stroke-width="2" d="M6.29,16.312h6.716"/>
<path fill="none" stroke="#000000" stroke-width="2" d="M6.29,32.943h6.716"/>
<path fill="none" stroke="#000000" stroke-width="2" d="M6.29,49.786h6.716"/>
<path fill="none" stroke="#000000" stroke-width="2" d="M6.29,66.524h6.716"/>
<path fill="none" stroke="#000000" stroke-width="2" d="M6.29,83.367h6.716"/>
<path fill="none" stroke="#000000" stroke-width="2" d="M6.29,100.106h6.716"/>
<path fill="none" stroke="#000000" stroke-width="2" d="M6.29,18.018h6.716"/>
<path fill="none" stroke="#000000" stroke-width="2" d="M6.29,34.648h6.716"/>
<path fill="none" stroke="#000000" stroke-width="2" d="M6.29,51.492h6.716"/>
<path fill="none" stroke="#000000" stroke-width="2" d="M6.29,68.23h6.716"/>
<path fill="none" stroke="#000000" stroke-width="2" d="M6.29,85.073h6.716"/>
<path fill="none" stroke="#000000" stroke-width="2" d="M6.29,101.811h6.716"/>
</svg>
