<?xml version="1.0" encoding="utf-8"?>
<!-- Generator: Adobe Illustrator 14.0.0, SVG Export Plug-In . SVG Version: 6.00 Build 43363)  -->
<!DOCTYPE svg PUBLIC "-//W3C//DTD SVG 1.1//EN" "http://www.w3.org/Graphics/SVG/1.1/DTD/svg11.dtd">
<svg version="1.1" id="图层_1" xmlns="http://www.w3.org/2000/svg" xmlns:xlink="http://www.w3.org/1999/xlink" x="0px" y="0px"
	 width="46.167px" height="106.502px" viewBox="0 0 46.167 106.502" enable-background="new 0 0 46.167 106.502"
	 xml:space="preserve">
<path fill="none" stroke="#000000" stroke-width="2" d="M2.835,2.834h40.496"/>
<path fill="none" stroke="#000000" stroke-width="2" d="M2.835,12.958h10.124"/>
<path fill="none" stroke="#000000" stroke-width="2" d="M2.835,63.172h10.124"/>
<path fill="none" stroke="#000000" stroke-width="2" d="M2.835,23.082h10.124"/>
<path fill="none" stroke="#000000" stroke-width="2" d="M2.835,73.296h10.124"/>
<path fill="none" stroke="#000000" stroke-width="2" d="M2.835,33.206h10.124"/>
<path fill="none" stroke="#000000" stroke-width="2" d="M2.835,83.42h10.124"/>
<path fill="none" stroke="#000000" stroke-width="2" d="M2.835,43.33h10.124"/>
<path fill="none" stroke="#000000" stroke-width="2" d="M2.835,93.544h10.124"/>
<path fill="none" stroke="#000000" stroke-width="2" d="M2.835,53.453h40.496"/>
<path fill="none" stroke="#000000" stroke-width="2" d="M2.835,103.668h40.496"/>
<path fill="none" stroke="#000000" stroke-width="2" d="M2.835,7.897h10.124"/>
<path fill="none" stroke="#000000" stroke-width="2" d="M2.835,58.111h10.124"/>
<path fill="none" stroke="#000000" stroke-width="2" d="M2.835,18.021h10.124"/>
<path fill="none" stroke="#000000" stroke-width="2" d="M2.835,68.235h10.124"/>
<path fill="none" stroke="#000000" stroke-width="2" d="M2.835,28.144h20.248"/>
<path fill="none" stroke="#000000" stroke-width="2" d="M2.835,78.359h20.248"/>
<path fill="none" stroke="#000000" stroke-width="2" d="M12.959,38.268H2.835"/>
<path fill="none" stroke="#000000" stroke-width="2" d="M12.959,88.482H2.835"/>
<path fill="none" stroke="#000000" stroke-width="2" d="M2.835,48.392h10.124"/>
<path fill="none" stroke="#000000" stroke-width="2" d="M2.835,98.606h10.124"/>
</svg>
