<?xml version="1.0" encoding="utf-8"?>
<!-- Generator: Adobe Illustrator 14.0.0, SVG Export Plug-In . SVG Version: 6.00 Build 43363)  -->
<!DOCTYPE svg PUBLIC "-//W3C//DTD SVG 1.1//EN" "http://www.w3.org/Graphics/SVG/1.1/DTD/svg11.dtd">
<svg version="1.1" id="图层_1" xmlns="http://www.w3.org/2000/svg" xmlns:xlink="http://www.w3.org/1999/xlink" x="0px" y="0px"
	 width="13.968px" height="106.502px" viewBox="0 0 13.968 106.502" enable-background="new 0 0 13.968 106.502"
	 xml:space="preserve">
<path fill="none" stroke="#000000" stroke-width="2" d="M2.987,2.985h7.995"/>
<path fill="none" stroke="#000000" stroke-width="2" d="M2.987,103.41h7.995"/>
<path fill="none" stroke="#000000" stroke-width="2" d="M2.987,5.011h2.025"/>
<path fill="none" stroke="#000000" stroke-width="2" d="M2.987,14.925h2.025"/>
<path fill="none" stroke="#000000" stroke-width="2" d="M2.987,24.947h2.025"/>
<path fill="none" stroke="#000000" stroke-width="2" d="M2.987,34.968h2.025"/>
<path fill="none" stroke="#000000" stroke-width="2" d="M2.987,45.096h2.025"/>
<path fill="none" stroke="#000000" stroke-width="2" d="M2.987,55.116h2.025"/>
<path fill="none" stroke="#000000" stroke-width="2" d="M2.987,65.138h2.025"/>
<path fill="none" stroke="#000000" stroke-width="2" d="M2.987,75.159h2.025"/>
<path fill="none" stroke="#000000" stroke-width="2" d="M2.987,85.181h2.025"/>
<path fill="none" stroke="#000000" stroke-width="2" d="M2.987,95.201h2.025"/>
<path fill="none" stroke="#000000" stroke-width="2" d="M2.987,6.93h2.025"/>
<path fill="none" stroke="#000000" stroke-width="2" d="M2.987,16.95h2.025"/>
<path fill="none" stroke="#000000" stroke-width="2" d="M2.987,26.972h2.025"/>
<path fill="none" stroke="#000000" stroke-width="2" d="M2.987,36.993h2.025"/>
<path fill="none" stroke="#000000" stroke-width="2" d="M2.987,47.015h2.025"/>
<path fill="none" stroke="#000000" stroke-width="2" d="M2.987,57.143h2.025"/>
<path fill="none" stroke="#000000" stroke-width="2" d="M2.987,67.163h2.025"/>
<path fill="none" stroke="#000000" stroke-width="2" d="M2.987,77.185h2.025"/>
<path fill="none" stroke="#000000" stroke-width="2" d="M2.987,87.206h2.025"/>
<path fill="none" stroke="#000000" stroke-width="2" d="M2.987,97.228h2.025"/>
<path fill="none" stroke="#000000" stroke-width="2" d="M2.987,8.955h2.025"/>
<path fill="none" stroke="#000000" stroke-width="2" d="M2.987,18.977h2.025"/>
<path fill="none" stroke="#000000" stroke-width="2" d="M2.987,28.997h2.025"/>
<path fill="none" stroke="#000000" stroke-width="2" d="M2.987,39.019h2.025"/>
<path fill="none" stroke="#000000" stroke-width="2" d="M2.987,49.04h2.025"/>
<path fill="none" stroke="#000000" stroke-width="2" d="M2.987,59.062h2.025"/>
<path fill="none" stroke="#000000" stroke-width="2" d="M2.987,69.19h2.025"/>
<path fill="none" stroke="#000000" stroke-width="2" d="M2.987,79.21h2.025"/>
<path fill="none" stroke="#000000" stroke-width="2" d="M2.987,89.232h2.025"/>
<path fill="none" stroke="#000000" stroke-width="2" d="M2.987,99.253h2.025"/>
<path fill="none" stroke="#000000" stroke-width="2" d="M2.987,10.981h2.025"/>
<path fill="none" stroke="#000000" stroke-width="2" d="M2.987,21.002h2.025"/>
<path fill="none" stroke="#000000" stroke-width="2" d="M2.987,31.024h2.025"/>
<path fill="none" stroke="#000000" stroke-width="2" d="M2.987,41.044h2.025"/>
<path fill="none" stroke="#000000" stroke-width="2" d="M2.987,51.066h2.025"/>
<path fill="none" stroke="#000000" stroke-width="2" d="M2.987,61.087h2.025"/>
<path fill="none" stroke="#000000" stroke-width="2" d="M2.987,71.109h2.025"/>
<path fill="none" stroke="#000000" stroke-width="2" d="M2.987,81.237h2.025"/>
<path fill="none" stroke="#000000" stroke-width="2" d="M2.987,91.257h2.025"/>
<path fill="none" stroke="#000000" stroke-width="2" d="M2.987,101.279h2.025"/>
<path fill="none" stroke="#000000" stroke-width="2" d="M2.987,13.006h7.995"/>
<path fill="none" stroke="#000000" stroke-width="2" d="M2.987,22.921h7.995"/>
<path fill="none" stroke="#000000" stroke-width="2" d="M2.987,33.049h7.995"/>
<path fill="none" stroke="#000000" stroke-width="2" d="M2.987,43.071h7.995"/>
<path fill="none" stroke="#000000" stroke-width="2" d="M2.987,53.091h7.995"/>
<path fill="none" stroke="#000000" stroke-width="2" d="M2.987,63.113h7.995"/>
<path fill="none" stroke="#000000" stroke-width="2" d="M2.987,73.134h7.995"/>
<path fill="none" stroke="#000000" stroke-width="2" d="M2.987,83.156h7.995"/>
<path fill="none" stroke="#000000" stroke-width="2" d="M2.987,93.282h7.995"/>
<path fill="none" stroke="#000000" stroke-width="2" d="M2.987,3.945h2.025"/>
<path fill="none" stroke="#000000" stroke-width="2" d="M2.987,13.966h2.025"/>
<path fill="none" stroke="#000000" stroke-width="2" d="M2.987,23.987h2.025"/>
<path fill="none" stroke="#000000" stroke-width="2" d="M2.987,34.008h2.025"/>
<path fill="none" stroke="#000000" stroke-width="2" d="M2.987,44.03h2.025"/>
<path fill="none" stroke="#000000" stroke-width="2" d="M2.987,54.051h2.025"/>
<path fill="none" stroke="#000000" stroke-width="2" d="M2.987,64.073h2.025"/>
<path fill="none" stroke="#000000" stroke-width="2" d="M2.987,74.199h2.025"/>
<path fill="none" stroke="#000000" stroke-width="2" d="M2.987,84.221h2.025"/>
<path fill="none" stroke="#000000" stroke-width="2" d="M2.987,94.242h2.025"/>
<path fill="none" stroke="#000000" stroke-width="2" d="M2.987,5.97h2.025"/>
<path fill="none" stroke="#000000" stroke-width="2" d="M2.987,15.885h2.025"/>
<path fill="none" stroke="#000000" stroke-width="2" d="M2.987,26.013h2.025"/>
<path fill="none" stroke="#000000" stroke-width="2" d="M2.987,36.033h2.025"/>
<path fill="none" stroke="#000000" stroke-width="2" d="M2.987,46.055h2.025"/>
<path fill="none" stroke="#000000" stroke-width="2" d="M2.987,56.076h2.025"/>
<path fill="none" stroke="#000000" stroke-width="2" d="M2.987,66.098h2.025"/>
<path fill="none" stroke="#000000" stroke-width="2" d="M2.987,76.118h2.025"/>
<path fill="none" stroke="#000000" stroke-width="2" d="M2.987,86.246h2.025"/>
<path fill="none" stroke="#000000" stroke-width="2" d="M2.987,96.268h2.025"/>
<path fill="none" stroke="#000000" stroke-width="2" d="M2.987,7.995h3.944"/>
<path fill="none" stroke="#000000" stroke-width="2" d="M2.987,17.91h3.944"/>
<path fill="none" stroke="#000000" stroke-width="2" d="M2.987,27.932h3.944"/>
<path fill="none" stroke="#000000" stroke-width="2" d="M2.987,38.06h3.944"/>
<path fill="none" stroke="#000000" stroke-width="2" d="M2.987,48.08h3.944"/>
<path fill="none" stroke="#000000" stroke-width="2" d="M2.987,58.102h3.944"/>
<path fill="none" stroke="#000000" stroke-width="2" d="M2.987,68.123h3.944"/>
<path fill="none" stroke="#000000" stroke-width="2" d="M2.987,78.145h3.944"/>
<path fill="none" stroke="#000000" stroke-width="2" d="M2.987,88.165h3.944"/>
<path fill="none" stroke="#000000" stroke-width="2" d="M2.987,98.293h3.944"/>
<path fill="none" stroke="#000000" stroke-width="2" d="M5.012,10.022H2.987"/>
<path fill="none" stroke="#000000" stroke-width="2" d="M5.012,19.936H2.987"/>
<path fill="none" stroke="#000000" stroke-width="2" d="M5.012,29.957H2.987"/>
<path fill="none" stroke="#000000" stroke-width="2" d="M5.012,39.979H2.987"/>
<path fill="none" stroke="#000000" stroke-width="2" d="M5.012,50.107H2.987"/>
<path fill="none" stroke="#000000" stroke-width="2" d="M5.012,60.127H2.987"/>
<path fill="none" stroke="#000000" stroke-width="2" d="M5.012,70.149H2.987"/>
<path fill="none" stroke="#000000" stroke-width="2" d="M5.012,80.17H2.987"/>
<path fill="none" stroke="#000000" stroke-width="2" d="M5.012,90.192H2.987"/>
<path fill="none" stroke="#000000" stroke-width="2" d="M5.012,100.212H2.987"/>
<path fill="none" stroke="#000000" stroke-width="2" d="M2.987,12.047h2.025"/>
<path fill="none" stroke="#000000" stroke-width="2" d="M2.987,21.961h2.025"/>
<path fill="none" stroke="#000000" stroke-width="2" d="M2.987,31.983h2.025"/>
<path fill="none" stroke="#000000" stroke-width="2" d="M2.987,42.004h2.025"/>
<path fill="none" stroke="#000000" stroke-width="2" d="M2.987,52.026h2.025"/>
<path fill="none" stroke="#000000" stroke-width="2" d="M2.987,62.154h2.025"/>
<path fill="none" stroke="#000000" stroke-width="2" d="M2.987,72.174h2.025"/>
<path fill="none" stroke="#000000" stroke-width="2" d="M2.987,82.196h2.025"/>
<path fill="none" stroke="#000000" stroke-width="2" d="M2.987,92.217h2.025"/>
<path fill="none" stroke="#000000" stroke-width="2" d="M2.987,102.239h2.025"/>
</svg>
