<?xml version="1.0" encoding="utf-8"?>
<!-- Generator: Adobe Illustrator 14.0.0, SVG Export Plug-In . SVG Version: 6.00 Build 43363)  -->
<!DOCTYPE svg PUBLIC "-//W3C//DTD SVG 1.1//EN" "http://www.w3.org/Graphics/SVG/1.1/DTD/svg11.dtd">
<svg version="1.1" id="图层_1" xmlns="http://www.w3.org/2000/svg" xmlns:xlink="http://www.w3.org/1999/xlink" x="0px" y="0px"
	 width="10.98px" height="106.502px" viewBox="0 0 10.98 106.502" enable-background="new 0 0 10.98 106.502" xml:space="preserve">
<path fill="none" stroke="#000000" stroke-width="2" d="M2.985,67.056h1.279"/>
<path fill="none" stroke="#000000" stroke-width="2" d="M2.985,73.24h1.279"/>
<path fill="none" stroke="#000000" stroke-width="2" d="M2.985,79.529h1.279"/>
<path fill="none" stroke="#000000" stroke-width="2" d="M2.985,85.819h1.279"/>
<path fill="none" stroke="#000000" stroke-width="2" d="M2.985,92.108h1.279"/>
<path fill="none" stroke="#000000" stroke-width="2" d="M2.985,98.397h1.279"/>
<path fill="none" stroke="#000000" stroke-width="2" d="M2.985,68.335h1.279"/>
<path fill="none" stroke="#000000" stroke-width="2" d="M2.985,74.519h1.279"/>
<path fill="none" stroke="#000000" stroke-width="2" d="M2.985,80.808h1.279"/>
<path fill="none" stroke="#000000" stroke-width="2" d="M2.985,87.097h1.279"/>
<path fill="none" stroke="#000000" stroke-width="2" d="M2.985,93.387h1.279"/>
<path fill="none" stroke="#000000" stroke-width="2" d="M2.985,99.676h1.279"/>
<path fill="none" stroke="#000000" stroke-width="2" d="M2.985,69.615h1.279"/>
<path fill="none" stroke="#000000" stroke-width="2" d="M2.985,75.797h1.279"/>
<path fill="none" stroke="#000000" stroke-width="2" d="M2.985,82.087h1.279"/>
<path fill="none" stroke="#000000" stroke-width="2" d="M2.985,88.376h1.279"/>
<path fill="none" stroke="#000000" stroke-width="2" d="M2.985,94.666h1.279"/>
<path fill="none" stroke="#000000" stroke-width="2" d="M2.985,100.955h1.279"/>
<path fill="none" stroke="#000000" stroke-width="2" d="M2.985,70.787h1.279"/>
<path fill="none" stroke="#000000" stroke-width="2" d="M2.985,77.076h1.279"/>
<path fill="none" stroke="#000000" stroke-width="2" d="M2.985,83.366h1.279"/>
<path fill="none" stroke="#000000" stroke-width="2" d="M2.985,89.656h1.279"/>
<path fill="none" stroke="#000000" stroke-width="2" d="M2.985,95.946h1.279"/>
<path fill="none" stroke="#000000" stroke-width="2" d="M2.985,102.128h1.279"/>
<path fill="none" stroke="#000000" stroke-width="2" d="M2.985,72.067h5.011"/>
<path fill="none" stroke="#000000" stroke-width="2" d="M2.985,78.356h5.011"/>
<path fill="none" stroke="#000000" stroke-width="2" d="M2.985,84.646h5.011"/>
<path fill="none" stroke="#000000" stroke-width="2" d="M2.985,90.828h5.011"/>
<path fill="none" stroke="#000000" stroke-width="2" d="M2.985,97.118h5.011"/>
<path fill="none" stroke="#000000" stroke-width="2" d="M2.985,103.407h5.011"/>
<path fill="none" stroke="#000000" stroke-width="2" d="M2.985,66.416h1.279"/>
<path fill="none" stroke="#000000" stroke-width="2" d="M2.985,72.706h1.279"/>
<path fill="none" stroke="#000000" stroke-width="2" d="M2.985,78.995h1.279"/>
<path fill="none" stroke="#000000" stroke-width="2" d="M2.985,85.179h1.279"/>
<path fill="none" stroke="#000000" stroke-width="2" d="M2.985,91.468h1.279"/>
<path fill="none" stroke="#000000" stroke-width="2" d="M2.985,97.757h1.279"/>
<path fill="none" stroke="#000000" stroke-width="2" d="M2.985,67.696h1.279"/>
<path fill="none" stroke="#000000" stroke-width="2" d="M2.985,73.879h1.279"/>
<path fill="none" stroke="#000000" stroke-width="2" d="M2.985,80.168h1.279"/>
<path fill="none" stroke="#000000" stroke-width="2" d="M2.985,86.457h1.279"/>
<path fill="none" stroke="#000000" stroke-width="2" d="M2.985,92.747h1.279"/>
<path fill="none" stroke="#000000" stroke-width="2" d="M2.985,99.036h1.279"/>
<path fill="none" stroke="#000000" stroke-width="2" d="M2.985,68.975h2.452"/>
<path fill="none" stroke="#000000" stroke-width="2" d="M2.985,75.157h2.452"/>
<path fill="none" stroke="#000000" stroke-width="2" d="M2.985,81.448h2.452"/>
<path fill="none" stroke="#000000" stroke-width="2" d="M2.985,87.737h2.452"/>
<path fill="none" stroke="#000000" stroke-width="2" d="M2.985,94.027h2.452"/>
<path fill="none" stroke="#000000" stroke-width="2" d="M2.985,100.316h2.452"/>
<path fill="none" stroke="#000000" stroke-width="2" d="M4.264,70.254H2.985"/>
<path fill="none" stroke="#000000" stroke-width="2" d="M4.264,76.437H2.985"/>
<path fill="none" stroke="#000000" stroke-width="2" d="M4.264,82.727H2.985"/>
<path fill="none" stroke="#000000" stroke-width="2" d="M4.264,89.016H2.985"/>
<path fill="none" stroke="#000000" stroke-width="2" d="M4.264,95.306H2.985"/>
<path fill="none" stroke="#000000" stroke-width="2" d="M4.264,101.595H2.985"/>
<path fill="none" stroke="#000000" stroke-width="2" d="M2.985,71.427h1.279"/>
<path fill="none" stroke="#000000" stroke-width="2" d="M2.985,77.716h1.279"/>
<path fill="none" stroke="#000000" stroke-width="2" d="M2.985,84.006h1.279"/>
<path fill="none" stroke="#000000" stroke-width="2" d="M2.985,90.295h1.279"/>
<path fill="none" stroke="#000000" stroke-width="2" d="M2.985,96.479h1.279"/>
<path fill="none" stroke="#000000" stroke-width="2" d="M2.985,102.768h1.279"/>
<path fill="none" stroke="#000000" stroke-width="2" d="M2.985,2.989h5.011"/>
<path fill="none" stroke="#000000" stroke-width="2" d="M2.985,65.777h5.011"/>
<path fill="none" stroke="#000000" stroke-width="2" d="M2.985,4.268h1.279"/>
<path fill="none" stroke="#000000" stroke-width="2" d="M2.985,10.45h1.279"/>
<path fill="none" stroke="#000000" stroke-width="2" d="M2.985,16.74h1.279"/>
<path fill="none" stroke="#000000" stroke-width="2" d="M2.985,23.03h1.279"/>
<path fill="none" stroke="#000000" stroke-width="2" d="M2.985,29.32h1.279"/>
<path fill="none" stroke="#000000" stroke-width="2" d="M2.985,35.609h1.279"/>
<path fill="none" stroke="#000000" stroke-width="2" d="M2.985,41.898h1.279"/>
<path fill="none" stroke="#000000" stroke-width="2" d="M2.985,48.081h1.279"/>
<path fill="none" stroke="#000000" stroke-width="2" d="M2.985,54.37h1.279"/>
<path fill="none" stroke="#000000" stroke-width="2" d="M2.985,60.66h1.279"/>
<path fill="none" stroke="#000000" stroke-width="2" d="M2.985,5.441h1.279"/>
<path fill="none" stroke="#000000" stroke-width="2" d="M2.985,11.73h1.279"/>
<path fill="none" stroke="#000000" stroke-width="2" d="M2.985,18.02h1.279"/>
<path fill="none" stroke="#000000" stroke-width="2" d="M2.985,24.309h1.279"/>
<path fill="none" stroke="#000000" stroke-width="2" d="M2.985,30.491h1.279"/>
<path fill="none" stroke="#000000" stroke-width="2" d="M2.985,36.781h1.279"/>
<path fill="none" stroke="#000000" stroke-width="2" d="M2.985,43.071h1.279"/>
<path fill="none" stroke="#000000" stroke-width="2" d="M2.985,49.361h1.279"/>
<path fill="none" stroke="#000000" stroke-width="2" d="M2.985,55.65h1.279"/>
<path fill="none" stroke="#000000" stroke-width="2" d="M2.985,61.94h1.279"/>
<path fill="none" stroke="#000000" stroke-width="2" d="M2.985,6.72h1.279"/>
<path fill="none" stroke="#000000" stroke-width="2" d="M2.985,13.009h1.279"/>
<path fill="none" stroke="#000000" stroke-width="2" d="M2.985,19.192h1.279"/>
<path fill="none" stroke="#000000" stroke-width="2" d="M2.985,25.482h1.279"/>
<path fill="none" stroke="#000000" stroke-width="2" d="M2.985,31.771h1.279"/>
<path fill="none" stroke="#000000" stroke-width="2" d="M2.985,38.061h1.279"/>
<path fill="none" stroke="#000000" stroke-width="2" d="M2.985,44.35h1.279"/>
<path fill="none" stroke="#000000" stroke-width="2" d="M2.985,50.64h1.279"/>
<path fill="none" stroke="#000000" stroke-width="2" d="M2.985,56.929h1.279"/>
<path fill="none" stroke="#000000" stroke-width="2" d="M2.985,63.219h1.279"/>
<path fill="none" stroke="#000000" stroke-width="2" d="M2.985,7.998h1.279"/>
<path fill="none" stroke="#000000" stroke-width="2" d="M2.985,14.182h1.279"/>
<path fill="none" stroke="#000000" stroke-width="2" d="M2.985,20.471h1.279"/>
<path fill="none" stroke="#000000" stroke-width="2" d="M2.985,26.761h1.279"/>
<path fill="none" stroke="#000000" stroke-width="2" d="M2.985,33.05h1.279"/>
<path fill="none" stroke="#000000" stroke-width="2" d="M2.985,39.34h1.279"/>
<path fill="none" stroke="#000000" stroke-width="2" d="M2.985,45.629h1.279"/>
<path fill="none" stroke="#000000" stroke-width="2" d="M2.985,51.919h1.279"/>
<path fill="none" stroke="#000000" stroke-width="2" d="M2.985,58.208h1.279"/>
<path fill="none" stroke="#000000" stroke-width="2" d="M2.985,64.497h1.279"/>
<path fill="none" stroke="#000000" stroke-width="2" d="M2.985,9.278h5.011"/>
<path fill="none" stroke="#000000" stroke-width="2" d="M2.985,15.461h5.011"/>
<path fill="none" stroke="#000000" stroke-width="2" d="M2.985,21.75h5.011"/>
<path fill="none" stroke="#000000" stroke-width="2" d="M2.985,28.04h5.011"/>
<path fill="none" stroke="#000000" stroke-width="2" d="M2.985,34.329h5.011"/>
<path fill="none" stroke="#000000" stroke-width="2" d="M2.985,40.619h5.011"/>
<path fill="none" stroke="#000000" stroke-width="2" d="M2.985,46.908h5.011"/>
<path fill="none" stroke="#000000" stroke-width="2" d="M2.985,53.198h5.011"/>
<path fill="none" stroke="#000000" stroke-width="2" d="M2.985,59.381h5.011"/>
<path fill="none" stroke="#000000" stroke-width="2" d="M2.985,3.628h1.279"/>
<path fill="none" stroke="#000000" stroke-width="2" d="M2.985,9.811h1.279"/>
<path fill="none" stroke="#000000" stroke-width="2" d="M2.985,16.101h1.279"/>
<path fill="none" stroke="#000000" stroke-width="2" d="M2.985,22.39h1.279"/>
<path fill="none" stroke="#000000" stroke-width="2" d="M2.985,28.68h1.279"/>
<path fill="none" stroke="#000000" stroke-width="2" d="M2.985,34.969h1.279"/>
<path fill="none" stroke="#000000" stroke-width="2" d="M2.985,41.258h1.279"/>
<path fill="none" stroke="#000000" stroke-width="2" d="M2.985,47.548h1.279"/>
<path fill="none" stroke="#000000" stroke-width="2" d="M2.985,53.731h1.279"/>
<path fill="none" stroke="#000000" stroke-width="2" d="M2.985,60.021h1.279"/>
<path fill="none" stroke="#000000" stroke-width="2" d="M2.985,4.801h1.279"/>
<path fill="none" stroke="#000000" stroke-width="2" d="M2.985,11.09h1.279"/>
<path fill="none" stroke="#000000" stroke-width="2" d="M2.985,17.38h1.279"/>
<path fill="none" stroke="#000000" stroke-width="2" d="M2.985,23.669h1.279"/>
<path fill="none" stroke="#000000" stroke-width="2" d="M2.985,29.958h1.279"/>
<path fill="none" stroke="#000000" stroke-width="2" d="M2.985,36.142h1.279"/>
<path fill="none" stroke="#000000" stroke-width="2" d="M2.985,42.431h1.279"/>
<path fill="none" stroke="#000000" stroke-width="2" d="M2.985,48.721h1.279"/>
<path fill="none" stroke="#000000" stroke-width="2" d="M2.985,55.01h1.279"/>
<path fill="none" stroke="#000000" stroke-width="2" d="M2.985,61.3h1.279"/>
<path fill="none" stroke="#000000" stroke-width="2" d="M2.985,6.08h2.452"/>
<path fill="none" stroke="#000000" stroke-width="2" d="M2.985,12.369h2.452"/>
<path fill="none" stroke="#000000" stroke-width="2" d="M2.985,18.658h2.452"/>
<path fill="none" stroke="#000000" stroke-width="2" d="M2.985,24.842h2.452"/>
<path fill="none" stroke="#000000" stroke-width="2" d="M2.985,31.131h2.452"/>
<path fill="none" stroke="#000000" stroke-width="2" d="M2.985,37.421h2.452"/>
<path fill="none" stroke="#000000" stroke-width="2" d="M2.985,43.71h2.452"/>
<path fill="none" stroke="#000000" stroke-width="2" d="M2.985,50h2.452"/>
<path fill="none" stroke="#000000" stroke-width="2" d="M2.985,56.289h2.452"/>
<path fill="none" stroke="#000000" stroke-width="2" d="M2.985,62.579h2.452"/>
<path fill="none" stroke="#000000" stroke-width="2" d="M4.264,7.359H2.985"/>
<path fill="none" stroke="#000000" stroke-width="2" d="M4.264,13.542H2.985"/>
<path fill="none" stroke="#000000" stroke-width="2" d="M4.264,19.831H2.985"/>
<path fill="none" stroke="#000000" stroke-width="2" d="M4.264,26.121H2.985"/>
<path fill="none" stroke="#000000" stroke-width="2" d="M4.264,32.41H2.985"/>
<path fill="none" stroke="#000000" stroke-width="2" d="M4.264,38.7H2.985"/>
<path fill="none" stroke="#000000" stroke-width="2" d="M4.264,44.99H2.985"/>
<path fill="none" stroke="#000000" stroke-width="2" d="M4.264,51.28H2.985"/>
<path fill="none" stroke="#000000" stroke-width="2" d="M4.264,57.569H2.985"/>
<path fill="none" stroke="#000000" stroke-width="2" d="M4.264,63.858H2.985"/>
<path fill="none" stroke="#000000" stroke-width="2" d="M2.985,8.638h1.279"/>
<path fill="none" stroke="#000000" stroke-width="2" d="M2.985,14.822h1.279"/>
<path fill="none" stroke="#000000" stroke-width="2" d="M2.985,21.111h1.279"/>
<path fill="none" stroke="#000000" stroke-width="2" d="M2.985,27.401h1.279"/>
<path fill="none" stroke="#000000" stroke-width="2" d="M2.985,33.69h1.279"/>
<path fill="none" stroke="#000000" stroke-width="2" d="M2.985,39.98h1.279"/>
<path fill="none" stroke="#000000" stroke-width="2" d="M2.985,46.269h1.279"/>
<path fill="none" stroke="#000000" stroke-width="2" d="M2.985,52.558h1.279"/>
<path fill="none" stroke="#000000" stroke-width="2" d="M2.985,58.848h1.279"/>
<path fill="none" stroke="#000000" stroke-width="2" d="M2.985,65.031h1.279"/>
</svg>
