<?xml version="1.0" encoding="utf-8"?>
<!-- Generator: Adobe Illustrator 14.0.0, SVG Export Plug-In . SVG Version: 6.00 Build 43363)  -->
<!DOCTYPE svg PUBLIC "-//W3C//DTD SVG 1.1//EN" "http://www.w3.org/Graphics/SVG/1.1/DTD/svg11.dtd">
<svg version="1.1" id="图层_1" xmlns="http://www.w3.org/2000/svg" xmlns:xlink="http://www.w3.org/1999/xlink" x="0px" y="0px"
	 width="11.729px" height="106.502px" viewBox="0 0 11.729 106.502" enable-background="new 0 0 11.729 106.502"
	 xml:space="preserve">
<path fill="none" stroke="#000000" stroke-width="2" d="M2.986,76.226h1.386"/>
<path fill="none" stroke="#000000" stroke-width="2" d="M2.986,83.368h1.386"/>
<path fill="none" stroke="#000000" stroke-width="2" d="M2.986,90.511h1.386"/>
<path fill="none" stroke="#000000" stroke-width="2" d="M2.986,97.654h1.386"/>
<path fill="none" stroke="#000000" stroke-width="2" d="M2.986,77.612h1.386"/>
<path fill="none" stroke="#000000" stroke-width="2" d="M2.986,84.754h1.386"/>
<path fill="none" stroke="#000000" stroke-width="2" d="M2.986,92.003h1.386"/>
<path fill="none" stroke="#000000" stroke-width="2" d="M2.986,99.147h1.386"/>
<path fill="none" stroke="#000000" stroke-width="2" d="M2.986,79.104h1.386"/>
<path fill="none" stroke="#000000" stroke-width="2" d="M2.986,86.246h1.386"/>
<path fill="none" stroke="#000000" stroke-width="2" d="M2.986,93.39h1.386"/>
<path fill="none" stroke="#000000" stroke-width="2" d="M2.986,100.532h1.386"/>
<path fill="none" stroke="#000000" stroke-width="2" d="M2.986,80.49h1.386"/>
<path fill="none" stroke="#000000" stroke-width="2" d="M2.986,87.633h1.386"/>
<path fill="none" stroke="#000000" stroke-width="2" d="M2.986,94.776h1.386"/>
<path fill="none" stroke="#000000" stroke-width="2" d="M2.986,102.025h1.386"/>
<path fill="none" stroke="#000000" stroke-width="2" d="M2.986,81.983h5.757"/>
<path fill="none" stroke="#000000" stroke-width="2" d="M2.986,89.125h5.757"/>
<path fill="none" stroke="#000000" stroke-width="2" d="M2.986,96.268h5.757"/>
<path fill="none" stroke="#000000" stroke-width="2" d="M2.986,103.41h5.757"/>
<path fill="none" stroke="#000000" stroke-width="2" d="M2.986,75.479h1.386"/>
<path fill="none" stroke="#000000" stroke-width="2" d="M2.986,82.622h1.386"/>
<path fill="none" stroke="#000000" stroke-width="2" d="M2.986,89.765h1.386"/>
<path fill="none" stroke="#000000" stroke-width="2" d="M2.986,97.014h1.386"/>
<path fill="none" stroke="#000000" stroke-width="2" d="M2.986,76.972h1.386"/>
<path fill="none" stroke="#000000" stroke-width="2" d="M2.986,84.008h1.386"/>
<path fill="none" stroke="#000000" stroke-width="2" d="M2.986,91.257h1.386"/>
<path fill="none" stroke="#000000" stroke-width="2" d="M2.986,98.4h1.386"/>
<path fill="none" stroke="#000000" stroke-width="2" d="M2.986,78.358h2.878"/>
<path fill="none" stroke="#000000" stroke-width="2" d="M2.986,85.5h2.878"/>
<path fill="none" stroke="#000000" stroke-width="2" d="M2.986,92.643h2.878"/>
<path fill="none" stroke="#000000" stroke-width="2" d="M2.986,99.893h2.878"/>
<path fill="none" stroke="#000000" stroke-width="2" d="M4.372,79.85H2.986"/>
<path fill="none" stroke="#000000" stroke-width="2" d="M4.372,86.886H2.986"/>
<path fill="none" stroke="#000000" stroke-width="2" d="M4.372,94.136H2.986"/>
<path fill="none" stroke="#000000" stroke-width="2" d="M4.372,101.279H2.986"/>
<path fill="none" stroke="#000000" stroke-width="2" d="M2.986,81.237h1.386"/>
<path fill="none" stroke="#000000" stroke-width="2" d="M2.986,88.379h1.386"/>
<path fill="none" stroke="#000000" stroke-width="2" d="M2.986,95.522h1.386"/>
<path fill="none" stroke="#000000" stroke-width="2" d="M2.986,102.664h1.386"/>
<path fill="none" stroke="#000000" stroke-width="2" d="M2.986,2.985h5.757"/>
<path fill="none" stroke="#000000" stroke-width="2" d="M2.986,74.733h5.757"/>
<path fill="none" stroke="#000000" stroke-width="2" d="M2.986,4.371h1.386"/>
<path fill="none" stroke="#000000" stroke-width="2" d="M2.986,11.514h1.386"/>
<path fill="none" stroke="#000000" stroke-width="2" d="M2.986,18.656h1.386"/>
<path fill="none" stroke="#000000" stroke-width="2" d="M2.986,25.906h1.386"/>
<path fill="none" stroke="#000000" stroke-width="2" d="M2.986,33.049h1.386"/>
<path fill="none" stroke="#000000" stroke-width="2" d="M2.986,40.192h1.386"/>
<path fill="none" stroke="#000000" stroke-width="2" d="M2.986,47.441h1.386"/>
<path fill="none" stroke="#000000" stroke-width="2" d="M2.986,54.584h1.386"/>
<path fill="none" stroke="#000000" stroke-width="2" d="M2.986,61.727h1.386"/>
<path fill="none" stroke="#000000" stroke-width="2" d="M2.986,68.976h1.386"/>
<path fill="none" stroke="#000000" stroke-width="2" d="M2.986,5.864h1.386"/>
<path fill="none" stroke="#000000" stroke-width="2" d="M2.986,12.9h1.386"/>
<path fill="none" stroke="#000000" stroke-width="2" d="M2.986,20.149h1.386"/>
<path fill="none" stroke="#000000" stroke-width="2" d="M2.986,27.292h1.386"/>
<path fill="none" stroke="#000000" stroke-width="2" d="M2.986,34.435h1.386"/>
<path fill="none" stroke="#000000" stroke-width="2" d="M2.986,41.684h1.386"/>
<path fill="none" stroke="#000000" stroke-width="2" d="M2.986,48.827h1.386"/>
<path fill="none" stroke="#000000" stroke-width="2" d="M2.986,55.97h1.386"/>
<path fill="none" stroke="#000000" stroke-width="2" d="M2.986,63.219h1.386"/>
<path fill="none" stroke="#000000" stroke-width="2" d="M2.986,70.362h1.386"/>
<path fill="none" stroke="#000000" stroke-width="2" d="M2.986,7.249h1.386"/>
<path fill="none" stroke="#000000" stroke-width="2" d="M2.986,14.392h1.386"/>
<path fill="none" stroke="#000000" stroke-width="2" d="M2.986,21.535h1.386"/>
<path fill="none" stroke="#000000" stroke-width="2" d="M2.986,28.784h1.386"/>
<path fill="none" stroke="#000000" stroke-width="2" d="M2.986,35.927h1.386"/>
<path fill="none" stroke="#000000" stroke-width="2" d="M2.986,43.071h1.386"/>
<path fill="none" stroke="#000000" stroke-width="2" d="M2.986,50.32h1.386"/>
<path fill="none" stroke="#000000" stroke-width="2" d="M2.986,57.462h1.386"/>
<path fill="none" stroke="#000000" stroke-width="2" d="M2.986,64.605h1.386"/>
<path fill="none" stroke="#000000" stroke-width="2" d="M2.986,71.748h1.386"/>
<path fill="none" stroke="#000000" stroke-width="2" d="M2.986,8.742h1.386"/>
<path fill="none" stroke="#000000" stroke-width="2" d="M2.986,15.779h1.386"/>
<path fill="none" stroke="#000000" stroke-width="2" d="M2.986,23.028h1.386"/>
<path fill="none" stroke="#000000" stroke-width="2" d="M2.986,30.17h1.386"/>
<path fill="none" stroke="#000000" stroke-width="2" d="M2.986,37.313h1.386"/>
<path fill="none" stroke="#000000" stroke-width="2" d="M2.986,44.563h1.386"/>
<path fill="none" stroke="#000000" stroke-width="2" d="M2.986,51.705h1.386"/>
<path fill="none" stroke="#000000" stroke-width="2" d="M2.986,58.848h1.386"/>
<path fill="none" stroke="#000000" stroke-width="2" d="M2.986,66.098h1.386"/>
<path fill="none" stroke="#000000" stroke-width="2" d="M2.986,73.24h1.386"/>
<path fill="none" stroke="#000000" stroke-width="2" d="M2.986,10.128h5.757"/>
<path fill="none" stroke="#000000" stroke-width="2" d="M2.986,17.271h5.757"/>
<path fill="none" stroke="#000000" stroke-width="2" d="M2.986,24.413h5.757"/>
<path fill="none" stroke="#000000" stroke-width="2" d="M2.986,31.663h5.757"/>
<path fill="none" stroke="#000000" stroke-width="2" d="M2.986,38.806h5.757"/>
<path fill="none" stroke="#000000" stroke-width="2" d="M2.986,45.948h5.757"/>
<path fill="none" stroke="#000000" stroke-width="2" d="M2.986,53.091h5.757"/>
<path fill="none" stroke="#000000" stroke-width="2" d="M2.986,60.341h5.757"/>
<path fill="none" stroke="#000000" stroke-width="2" d="M2.986,67.484h5.757"/>
<path fill="none" stroke="#000000" stroke-width="2" d="M2.986,3.732h1.386"/>
<path fill="none" stroke="#000000" stroke-width="2" d="M2.986,10.768h1.386"/>
<path fill="none" stroke="#000000" stroke-width="2" d="M2.986,18.017h1.386"/>
<path fill="none" stroke="#000000" stroke-width="2" d="M2.986,25.159h1.386"/>
<path fill="none" stroke="#000000" stroke-width="2" d="M2.986,32.303h1.386"/>
<path fill="none" stroke="#000000" stroke-width="2" d="M2.986,39.552h1.386"/>
<path fill="none" stroke="#000000" stroke-width="2" d="M2.986,46.695h1.386"/>
<path fill="none" stroke="#000000" stroke-width="2" d="M2.986,53.837h1.386"/>
<path fill="none" stroke="#000000" stroke-width="2" d="M2.986,61.087h1.386"/>
<path fill="none" stroke="#000000" stroke-width="2" d="M2.986,68.23h1.386"/>
<path fill="none" stroke="#000000" stroke-width="2" d="M2.986,5.117h1.386"/>
<path fill="none" stroke="#000000" stroke-width="2" d="M2.986,12.26h1.386"/>
<path fill="none" stroke="#000000" stroke-width="2" d="M2.986,19.403h1.386"/>
<path fill="none" stroke="#000000" stroke-width="2" d="M2.986,26.546h1.386"/>
<path fill="none" stroke="#000000" stroke-width="2" d="M2.986,33.795h1.386"/>
<path fill="none" stroke="#000000" stroke-width="2" d="M2.986,40.938h1.386"/>
<path fill="none" stroke="#000000" stroke-width="2" d="M2.986,48.08h1.386"/>
<path fill="none" stroke="#000000" stroke-width="2" d="M2.986,55.33h1.386"/>
<path fill="none" stroke="#000000" stroke-width="2" d="M2.986,62.473h1.386"/>
<path fill="none" stroke="#000000" stroke-width="2" d="M2.986,69.615h1.386"/>
<path fill="none" stroke="#000000" stroke-width="2" d="M2.986,6.503h2.878"/>
<path fill="none" stroke="#000000" stroke-width="2" d="M2.986,13.646h2.878"/>
<path fill="none" stroke="#000000" stroke-width="2" d="M2.986,20.896h2.878"/>
<path fill="none" stroke="#000000" stroke-width="2" d="M2.986,28.038h2.878"/>
<path fill="none" stroke="#000000" stroke-width="2" d="M2.986,35.181h2.878"/>
<path fill="none" stroke="#000000" stroke-width="2" d="M2.986,42.323h2.878"/>
<path fill="none" stroke="#000000" stroke-width="2" d="M2.986,49.573h2.878"/>
<path fill="none" stroke="#000000" stroke-width="2" d="M2.986,56.716h2.878"/>
<path fill="none" stroke="#000000" stroke-width="2" d="M2.986,63.859h2.878"/>
<path fill="none" stroke="#000000" stroke-width="2" d="M2.986,71.109h2.878"/>
<path fill="none" stroke="#000000" stroke-width="2" d="M4.372,7.995H2.986"/>
<path fill="none" stroke="#000000" stroke-width="2" d="M4.372,15.139H2.986"/>
<path fill="none" stroke="#000000" stroke-width="2" d="M4.372,22.281H2.986"/>
<path fill="none" stroke="#000000" stroke-width="2" d="M4.372,29.424H2.986"/>
<path fill="none" stroke="#000000" stroke-width="2" d="M4.372,36.673H2.986"/>
<path fill="none" stroke="#000000" stroke-width="2" d="M4.372,43.817H2.986"/>
<path fill="none" stroke="#000000" stroke-width="2" d="M4.372,50.959H2.986"/>
<path fill="none" stroke="#000000" stroke-width="2" d="M4.372,58.208H2.986"/>
<path fill="none" stroke="#000000" stroke-width="2" d="M4.372,65.352H2.986"/>
<path fill="none" stroke="#000000" stroke-width="2" d="M4.372,72.494H2.986"/>
<path fill="none" stroke="#000000" stroke-width="2" d="M2.986,9.382h1.386"/>
<path fill="none" stroke="#000000" stroke-width="2" d="M2.986,16.525h1.386"/>
<path fill="none" stroke="#000000" stroke-width="2" d="M2.986,23.667h1.386"/>
<path fill="none" stroke="#000000" stroke-width="2" d="M2.986,30.916h1.386"/>
<path fill="none" stroke="#000000" stroke-width="2" d="M2.986,38.06h1.386"/>
<path fill="none" stroke="#000000" stroke-width="2" d="M2.986,45.202h1.386"/>
<path fill="none" stroke="#000000" stroke-width="2" d="M2.986,52.451h1.386"/>
<path fill="none" stroke="#000000" stroke-width="2" d="M2.986,59.594h1.386"/>
<path fill="none" stroke="#000000" stroke-width="2" d="M2.986,66.738h1.386"/>
<path fill="none" stroke="#000000" stroke-width="2" d="M2.986,73.987h1.386"/>
</svg>
