<?xml version="1.0" encoding="utf-8"?>
<!-- Generator: Adobe Illustrator 14.0.0, SVG Export Plug-In . SVG Version: 6.00 Build 43363)  -->
<!DOCTYPE svg PUBLIC "-//W3C//DTD SVG 1.1//EN" "http://www.w3.org/Graphics/SVG/1.1/DTD/svg11.dtd">
<svg version="1.1" id="图层_1" xmlns="http://www.w3.org/2000/svg" xmlns:xlink="http://www.w3.org/1999/xlink" x="0px" y="0px"
	 width="14.94px" height="106.502px" viewBox="0 0 14.94 106.502" enable-background="new 0 0 14.94 106.502" xml:space="preserve">
<path fill="none" stroke="#000000" stroke-width="2" d="M2.988,2.989h8.857"/>
<path fill="none" stroke="#000000" stroke-width="2" d="M2.988,14.087h8.857"/>
<path fill="none" stroke="#000000" stroke-width="2" d="M2.988,25.186h8.857"/>
<path fill="none" stroke="#000000" stroke-width="2" d="M2.988,36.391h8.857"/>
<path fill="none" stroke="#000000" stroke-width="2" d="M2.988,47.595h8.857"/>
<path fill="none" stroke="#000000" stroke-width="2" d="M2.988,58.8h8.857"/>
<path fill="none" stroke="#000000" stroke-width="2" d="M2.988,70.005h8.857"/>
<path fill="none" stroke="#000000" stroke-width="2" d="M2.988,81.21h8.857"/>
<path fill="none" stroke="#000000" stroke-width="2" d="M2.988,92.415h8.857"/>
<path fill="none" stroke="#000000" stroke-width="2" d="M2.988,103.514h8.857"/>
<path fill="none" stroke="#000000" stroke-width="2" d="M5.229,4.056h4.482"/>
<path fill="none" stroke="#000000" stroke-width="2" d="M5.229,15.155h4.482"/>
<path fill="none" stroke="#000000" stroke-width="2" d="M5.229,26.36h4.482"/>
<path fill="none" stroke="#000000" stroke-width="2" d="M5.229,37.565h4.482"/>
<path fill="none" stroke="#000000" stroke-width="2" d="M5.229,48.769h4.482"/>
<path fill="none" stroke="#000000" stroke-width="2" d="M5.229,59.867h4.482"/>
<path fill="none" stroke="#000000" stroke-width="2" d="M5.229,71.073h4.482"/>
<path fill="none" stroke="#000000" stroke-width="2" d="M5.229,82.278h4.482"/>
<path fill="none" stroke="#000000" stroke-width="2" d="M5.229,93.483h4.482"/>
<path fill="none" stroke="#000000" stroke-width="2" d="M5.229,5.23h4.482"/>
<path fill="none" stroke="#000000" stroke-width="2" d="M5.229,16.328h4.482"/>
<path fill="none" stroke="#000000" stroke-width="2" d="M5.229,27.426h4.482"/>
<path fill="none" stroke="#000000" stroke-width="2" d="M5.229,38.631h4.482"/>
<path fill="none" stroke="#000000" stroke-width="2" d="M5.229,49.836h4.482"/>
<path fill="none" stroke="#000000" stroke-width="2" d="M5.229,61.041h4.482"/>
<path fill="none" stroke="#000000" stroke-width="2" d="M5.229,72.246h4.482"/>
<path fill="none" stroke="#000000" stroke-width="2" d="M5.229,83.451h4.482"/>
<path fill="none" stroke="#000000" stroke-width="2" d="M5.229,94.656h4.482"/>
<path fill="none" stroke="#000000" stroke-width="2" d="M5.229,6.297h4.482"/>
<path fill="none" stroke="#000000" stroke-width="2" d="M5.229,17.395h4.482"/>
<path fill="none" stroke="#000000" stroke-width="2" d="M5.229,28.6h4.482"/>
<path fill="none" stroke="#000000" stroke-width="2" d="M5.229,39.805h4.482"/>
<path fill="none" stroke="#000000" stroke-width="2" d="M5.229,51.01h4.482"/>
<path fill="none" stroke="#000000" stroke-width="2" d="M5.229,62.109h4.482"/>
<path fill="none" stroke="#000000" stroke-width="2" d="M5.229,73.314h4.482"/>
<path fill="none" stroke="#000000" stroke-width="2" d="M5.229,84.519h4.482"/>
<path fill="none" stroke="#000000" stroke-width="2" d="M5.229,95.724h4.482"/>
<path fill="none" stroke="#000000" stroke-width="2" d="M5.229,7.471h4.482"/>
<path fill="none" stroke="#000000" stroke-width="2" d="M5.229,18.57h4.482"/>
<path fill="none" stroke="#000000" stroke-width="2" d="M5.229,29.667h4.482"/>
<path fill="none" stroke="#000000" stroke-width="2" d="M5.229,40.872h4.482"/>
<path fill="none" stroke="#000000" stroke-width="2" d="M5.229,52.077h4.482"/>
<path fill="none" stroke="#000000" stroke-width="2" d="M5.229,63.282h4.482"/>
<path fill="none" stroke="#000000" stroke-width="2" d="M5.229,74.488h4.482"/>
<path fill="none" stroke="#000000" stroke-width="2" d="M5.229,85.693h4.482"/>
<path fill="none" stroke="#000000" stroke-width="2" d="M5.229,96.79h4.482"/>
<path fill="none" stroke="#000000" stroke-width="2" d="M5.229,8.538h4.482"/>
<path fill="none" stroke="#000000" stroke-width="2" d="M5.229,19.636h4.482"/>
<path fill="none" stroke="#000000" stroke-width="2" d="M5.229,30.841h4.482"/>
<path fill="none" stroke="#000000" stroke-width="2" d="M5.229,42.046h4.482"/>
<path fill="none" stroke="#000000" stroke-width="2" d="M5.229,53.251h4.482"/>
<path fill="none" stroke="#000000" stroke-width="2" d="M5.229,64.35h4.482"/>
<path fill="none" stroke="#000000" stroke-width="2" d="M5.229,75.555h4.482"/>
<path fill="none" stroke="#000000" stroke-width="2" d="M5.229,86.76h4.482"/>
<path fill="none" stroke="#000000" stroke-width="2" d="M5.229,97.964h4.482"/>
<path fill="none" stroke="#000000" stroke-width="2" d="M5.229,9.712h4.482"/>
<path fill="none" stroke="#000000" stroke-width="2" d="M5.229,20.81h4.482"/>
<path fill="none" stroke="#000000" stroke-width="2" d="M5.229,31.908h4.482"/>
<path fill="none" stroke="#000000" stroke-width="2" d="M5.229,43.114h4.482"/>
<path fill="none" stroke="#000000" stroke-width="2" d="M5.229,54.319h4.482"/>
<path fill="none" stroke="#000000" stroke-width="2" d="M5.229,65.524h4.482"/>
<path fill="none" stroke="#000000" stroke-width="2" d="M5.229,76.729h4.482"/>
<path fill="none" stroke="#000000" stroke-width="2" d="M5.229,87.934h4.482"/>
<path fill="none" stroke="#000000" stroke-width="2" d="M5.229,99.031h4.482"/>
<path fill="none" stroke="#000000" stroke-width="2" d="M5.229,10.779h4.482"/>
<path fill="none" stroke="#000000" stroke-width="2" d="M5.229,21.877h4.482"/>
<path fill="none" stroke="#000000" stroke-width="2" d="M5.229,33.082h4.482"/>
<path fill="none" stroke="#000000" stroke-width="2" d="M5.229,44.287h4.482"/>
<path fill="none" stroke="#000000" stroke-width="2" d="M5.229,55.492h4.482"/>
<path fill="none" stroke="#000000" stroke-width="2" d="M5.229,66.59h4.482"/>
<path fill="none" stroke="#000000" stroke-width="2" d="M5.229,77.795h4.482"/>
<path fill="none" stroke="#000000" stroke-width="2" d="M5.229,89h4.482"/>
<path fill="none" stroke="#000000" stroke-width="2" d="M5.229,100.205h4.482"/>
<path fill="none" stroke="#000000" stroke-width="2" d="M5.229,11.846h4.482"/>
<path fill="none" stroke="#000000" stroke-width="2" d="M5.229,22.945h4.482"/>
<path fill="none" stroke="#000000" stroke-width="2" d="M5.229,34.15h4.482"/>
<path fill="none" stroke="#000000" stroke-width="2" d="M5.229,45.355h4.482"/>
<path fill="none" stroke="#000000" stroke-width="2" d="M5.229,56.56h4.482"/>
<path fill="none" stroke="#000000" stroke-width="2" d="M5.229,67.764h4.482"/>
<path fill="none" stroke="#000000" stroke-width="2" d="M5.229,78.969h4.482"/>
<path fill="none" stroke="#000000" stroke-width="2" d="M5.229,90.174h4.482"/>
<path fill="none" stroke="#000000" stroke-width="2" d="M5.229,101.273h4.482"/>
<path fill="none" stroke="#000000" stroke-width="2" d="M5.229,13.02h4.482"/>
<path fill="none" stroke="#000000" stroke-width="2" d="M5.229,24.118h4.482"/>
<path fill="none" stroke="#000000" stroke-width="2" d="M5.229,35.323h4.482"/>
<path fill="none" stroke="#000000" stroke-width="2" d="M5.229,46.529h4.482"/>
<path fill="none" stroke="#000000" stroke-width="2" d="M5.229,57.734h4.482"/>
<path fill="none" stroke="#000000" stroke-width="2" d="M5.229,68.831h4.482"/>
<path fill="none" stroke="#000000" stroke-width="2" d="M5.229,80.036h4.482"/>
<path fill="none" stroke="#000000" stroke-width="2" d="M5.229,91.241h4.482"/>
<path fill="none" stroke="#000000" stroke-width="2" d="M5.229,102.447h4.482"/>
</svg>
