<?xml version="1.0" encoding="utf-8"?>
<!-- Generator: Adobe Illustrator 14.0.0, SVG Export Plug-In . SVG Version: 6.00 Build 43363)  -->
<!DOCTYPE svg PUBLIC "-//W3C//DTD SVG 1.1//EN" "http://www.w3.org/Graphics/SVG/1.1/DTD/svg11.dtd">
<svg version="1.1" id="图层_1" xmlns="http://www.w3.org/2000/svg" xmlns:xlink="http://www.w3.org/1999/xlink" x="0px" y="0px"
	 width="22.068px" height="106.502px" viewBox="0 0 22.068 106.502" enable-background="new 0 0 22.068 106.502"
	 xml:space="preserve">
<path fill="none" stroke="#000000" stroke-width="2" d="M2.878,2.878h16.204"/>
<path fill="none" stroke="#000000" stroke-width="2" d="M2.878,6.93H6.93"/>
<path fill="none" stroke="#000000" stroke-width="2" d="M2.878,26.972H6.93"/>
<path fill="none" stroke="#000000" stroke-width="2" d="M2.878,47.121H6.93"/>
<path fill="none" stroke="#000000" stroke-width="2" d="M2.878,67.163H6.93"/>
<path fill="none" stroke="#000000" stroke-width="2" d="M2.878,87.313H6.93"/>
<path fill="none" stroke="#000000" stroke-width="2" d="M2.878,10.981H6.93"/>
<path fill="none" stroke="#000000" stroke-width="2" d="M2.878,30.916H6.93"/>
<path fill="none" stroke="#000000" stroke-width="2" d="M2.878,51.066H6.93"/>
<path fill="none" stroke="#000000" stroke-width="2" d="M2.878,71.215H6.93"/>
<path fill="none" stroke="#000000" stroke-width="2" d="M2.878,91.364H6.93"/>
<path fill="none" stroke="#000000" stroke-width="2" d="M2.878,15.032H6.93"/>
<path fill="none" stroke="#000000" stroke-width="2" d="M2.878,34.968H6.93"/>
<path fill="none" stroke="#000000" stroke-width="2" d="M2.878,55.116H6.93"/>
<path fill="none" stroke="#000000" stroke-width="2" d="M2.878,75.266H6.93"/>
<path fill="none" stroke="#000000" stroke-width="2" d="M2.878,95.415H6.93"/>
<path fill="none" stroke="#000000" stroke-width="2" d="M2.878,19.083H6.93"/>
<path fill="none" stroke="#000000" stroke-width="2" d="M2.878,39.019H6.93"/>
<path fill="none" stroke="#000000" stroke-width="2" d="M2.878,59.168H6.93"/>
<path fill="none" stroke="#000000" stroke-width="2" d="M2.878,79.317H6.93"/>
<path fill="none" stroke="#000000" stroke-width="2" d="M2.878,99.466H6.93"/>
<path fill="none" stroke="#000000" stroke-width="2" d="M2.878,23.028h16.204"/>
<path fill="none" stroke="#000000" stroke-width="2" d="M2.878,43.071h16.204"/>
<path fill="none" stroke="#000000" stroke-width="2" d="M2.878,63.219h16.204"/>
<path fill="none" stroke="#000000" stroke-width="2" d="M2.878,83.368h16.204"/>
<path fill="none" stroke="#000000" stroke-width="2" d="M2.878,103.517h16.204"/>
<path fill="none" stroke="#000000" stroke-width="2" d="M2.878,4.905H6.93"/>
<path fill="none" stroke="#000000" stroke-width="2" d="M2.878,24.947H6.93"/>
<path fill="none" stroke="#000000" stroke-width="2" d="M2.878,45.096H6.93"/>
<path fill="none" stroke="#000000" stroke-width="2" d="M2.878,65.244H6.93"/>
<path fill="none" stroke="#000000" stroke-width="2" d="M2.878,85.394H6.93"/>
<path fill="none" stroke="#000000" stroke-width="2" d="M2.878,8.955H6.93"/>
<path fill="none" stroke="#000000" stroke-width="2" d="M2.878,28.997H6.93"/>
<path fill="none" stroke="#000000" stroke-width="2" d="M2.878,49.04H6.93"/>
<path fill="none" stroke="#000000" stroke-width="2" d="M2.878,69.19H6.93"/>
<path fill="none" stroke="#000000" stroke-width="2" d="M2.878,89.338H6.93"/>
<path fill="none" stroke="#000000" stroke-width="2" d="M2.878,13.006h8.102"/>
<path fill="none" stroke="#000000" stroke-width="2" d="M2.878,32.943h8.102"/>
<path fill="none" stroke="#000000" stroke-width="2" d="M2.878,53.091h8.102"/>
<path fill="none" stroke="#000000" stroke-width="2" d="M2.878,73.24h8.102"/>
<path fill="none" stroke="#000000" stroke-width="2" d="M2.878,93.39h8.102"/>
<path fill="none" stroke="#000000" stroke-width="2" d="M6.93,17.058H2.878"/>
<path fill="none" stroke="#000000" stroke-width="2" d="M6.93,36.993H2.878"/>
<path fill="none" stroke="#000000" stroke-width="2" d="M6.93,57.143H2.878"/>
<path fill="none" stroke="#000000" stroke-width="2" d="M6.93,77.291H2.878"/>
<path fill="none" stroke="#000000" stroke-width="2" d="M6.93,97.441H2.878"/>
<path fill="none" stroke="#000000" stroke-width="2" d="M2.878,21.002H6.93"/>
<path fill="none" stroke="#000000" stroke-width="2" d="M2.878,41.044H6.93"/>
<path fill="none" stroke="#000000" stroke-width="2" d="M2.878,61.194H6.93"/>
<path fill="none" stroke="#000000" stroke-width="2" d="M2.878,81.343H6.93"/>
<path fill="none" stroke="#000000" stroke-width="2" d="M2.878,101.491H6.93"/>
</svg>
