<?xml version="1.0" encoding="utf-8"?>
<!-- Generator: Adobe Illustrator 14.0.0, SVG Export Plug-In . SVG Version: 6.00 Build 43363)  -->
<!DOCTYPE svg PUBLIC "-//W3C//DTD SVG 1.1//EN" "http://www.w3.org/Graphics/SVG/1.1/DTD/svg11.dtd">
<svg version="1.1" id="图层_1" xmlns="http://www.w3.org/2000/svg" xmlns:xlink="http://www.w3.org/1999/xlink" x="0px" y="0px"
	 width="12.687px" height="106.502px" viewBox="0 0 12.687 106.502" enable-background="new 0 0 12.687 106.502"
	 xml:space="preserve">
<path fill="none" stroke="#000000" stroke-width="2" d="M2.985,88.379h1.6"/>
<path fill="none" stroke="#000000" stroke-width="2" d="M2.985,96.695h1.6"/>
<path fill="none" stroke="#000000" stroke-width="2" d="M2.985,90.084h1.6"/>
<path fill="none" stroke="#000000" stroke-width="2" d="M2.985,98.4h1.6"/>
<path fill="none" stroke="#000000" stroke-width="2" d="M2.985,91.79h1.6"/>
<path fill="none" stroke="#000000" stroke-width="2" d="M2.985,100.106h1.6"/>
<path fill="none" stroke="#000000" stroke-width="2" d="M2.985,93.496h1.6"/>
<path fill="none" stroke="#000000" stroke-width="2" d="M2.985,101.812h1.6"/>
<path fill="none" stroke="#000000" stroke-width="2" d="M2.985,95.095h6.717"/>
<path fill="none" stroke="#000000" stroke-width="2" d="M2.985,103.41h6.717"/>
<path fill="none" stroke="#000000" stroke-width="2" d="M2.985,87.632h1.6"/>
<path fill="none" stroke="#000000" stroke-width="2" d="M2.985,95.948h1.6"/>
<path fill="none" stroke="#000000" stroke-width="2" d="M2.985,89.232h1.6"/>
<path fill="none" stroke="#000000" stroke-width="2" d="M2.985,97.547h1.6"/>
<path fill="none" stroke="#000000" stroke-width="2" d="M2.985,90.938H6.29"/>
<path fill="none" stroke="#000000" stroke-width="2" d="M2.985,99.253H6.29"/>
<path fill="none" stroke="#000000" stroke-width="2" d="M4.584,92.643h-1.6"/>
<path fill="none" stroke="#000000" stroke-width="2" d="M4.584,100.958h-1.6"/>
<path fill="none" stroke="#000000" stroke-width="2" d="M2.985,94.242h1.6"/>
<path fill="none" stroke="#000000" stroke-width="2" d="M2.985,102.558h1.6"/>
<path fill="none" stroke="#000000" stroke-width="2" d="M2.985,2.986h6.717"/>
<path fill="none" stroke="#000000" stroke-width="2" d="M2.985,86.78h6.717"/>
<path fill="none" stroke="#000000" stroke-width="2" d="M2.985,4.584h1.6"/>
<path fill="none" stroke="#000000" stroke-width="2" d="M2.985,12.9h1.6"/>
<path fill="none" stroke="#000000" stroke-width="2" d="M2.985,21.322h1.6"/>
<path fill="none" stroke="#000000" stroke-width="2" d="M2.985,29.638h1.6"/>
<path fill="none" stroke="#000000" stroke-width="2" d="M2.985,38.06h1.6"/>
<path fill="none" stroke="#000000" stroke-width="2" d="M2.985,46.482h1.6"/>
<path fill="none" stroke="#000000" stroke-width="2" d="M2.985,54.797h1.6"/>
<path fill="none" stroke="#000000" stroke-width="2" d="M2.985,63.219h1.6"/>
<path fill="none" stroke="#000000" stroke-width="2" d="M2.985,71.534h1.6"/>
<path fill="none" stroke="#000000" stroke-width="2" d="M2.985,79.956h1.6"/>
<path fill="none" stroke="#000000" stroke-width="2" d="M2.985,6.29h1.6"/>
<path fill="none" stroke="#000000" stroke-width="2" d="M2.985,14.606h1.6"/>
<path fill="none" stroke="#000000" stroke-width="2" d="M2.985,23.028h1.6"/>
<path fill="none" stroke="#000000" stroke-width="2" d="M2.985,31.343h1.6"/>
<path fill="none" stroke="#000000" stroke-width="2" d="M2.985,39.765h1.6"/>
<path fill="none" stroke="#000000" stroke-width="2" d="M2.985,48.08h1.6"/>
<path fill="none" stroke="#000000" stroke-width="2" d="M2.985,56.503h1.6"/>
<path fill="none" stroke="#000000" stroke-width="2" d="M2.985,64.819h1.6"/>
<path fill="none" stroke="#000000" stroke-width="2" d="M2.985,73.24h1.6"/>
<path fill="none" stroke="#000000" stroke-width="2" d="M2.985,81.556h1.6"/>
<path fill="none" stroke="#000000" stroke-width="2" d="M2.985,7.996h1.6"/>
<path fill="none" stroke="#000000" stroke-width="2" d="M2.985,16.312h1.6"/>
<path fill="none" stroke="#000000" stroke-width="2" d="M2.985,24.627h1.6"/>
<path fill="none" stroke="#000000" stroke-width="2" d="M2.985,33.049h1.6"/>
<path fill="none" stroke="#000000" stroke-width="2" d="M2.985,41.365h1.6"/>
<path fill="none" stroke="#000000" stroke-width="2" d="M2.985,49.786h1.6"/>
<path fill="none" stroke="#000000" stroke-width="2" d="M2.985,58.102h1.6"/>
<path fill="none" stroke="#000000" stroke-width="2" d="M2.985,66.524h1.6"/>
<path fill="none" stroke="#000000" stroke-width="2" d="M2.985,74.946h1.6"/>
<path fill="none" stroke="#000000" stroke-width="2" d="M2.985,83.262h1.6"/>
<path fill="none" stroke="#000000" stroke-width="2" d="M2.985,9.701h1.6"/>
<path fill="none" stroke="#000000" stroke-width="2" d="M2.985,18.017h1.6"/>
<path fill="none" stroke="#000000" stroke-width="2" d="M2.985,26.332h1.6"/>
<path fill="none" stroke="#000000" stroke-width="2" d="M2.985,34.755h1.6"/>
<path fill="none" stroke="#000000" stroke-width="2" d="M2.985,43.071h1.6"/>
<path fill="none" stroke="#000000" stroke-width="2" d="M2.985,51.492h1.6"/>
<path fill="none" stroke="#000000" stroke-width="2" d="M2.985,59.808h1.6"/>
<path fill="none" stroke="#000000" stroke-width="2" d="M2.985,68.23h1.6"/>
<path fill="none" stroke="#000000" stroke-width="2" d="M2.985,76.545h1.6"/>
<path fill="none" stroke="#000000" stroke-width="2" d="M2.985,84.967h1.6"/>
<path fill="none" stroke="#000000" stroke-width="2" d="M2.985,11.301h6.717"/>
<path fill="none" stroke="#000000" stroke-width="2" d="M2.985,19.616h6.717"/>
<path fill="none" stroke="#000000" stroke-width="2" d="M2.985,28.038h6.717"/>
<path fill="none" stroke="#000000" stroke-width="2" d="M2.985,36.354h6.717"/>
<path fill="none" stroke="#000000" stroke-width="2" d="M2.985,44.776h6.717"/>
<path fill="none" stroke="#000000" stroke-width="2" d="M2.985,53.091h6.717"/>
<path fill="none" stroke="#000000" stroke-width="2" d="M2.985,61.513h6.717"/>
<path fill="none" stroke="#000000" stroke-width="2" d="M2.985,69.828h6.717"/>
<path fill="none" stroke="#000000" stroke-width="2" d="M2.985,78.251h6.717"/>
<path fill="none" stroke="#000000" stroke-width="2" d="M2.985,3.838h1.6"/>
<path fill="none" stroke="#000000" stroke-width="2" d="M2.985,12.154h1.6"/>
<path fill="none" stroke="#000000" stroke-width="2" d="M2.985,20.469h1.6"/>
<path fill="none" stroke="#000000" stroke-width="2" d="M2.985,28.891h1.6"/>
<path fill="none" stroke="#000000" stroke-width="2" d="M2.985,37.206h1.6"/>
<path fill="none" stroke="#000000" stroke-width="2" d="M2.985,45.629h1.6"/>
<path fill="none" stroke="#000000" stroke-width="2" d="M2.985,53.945h1.6"/>
<path fill="none" stroke="#000000" stroke-width="2" d="M2.985,62.366h1.6"/>
<path fill="none" stroke="#000000" stroke-width="2" d="M2.985,70.682h1.6"/>
<path fill="none" stroke="#000000" stroke-width="2" d="M2.985,79.104h1.6"/>
<path fill="none" stroke="#000000" stroke-width="2" d="M2.985,5.438h1.6"/>
<path fill="none" stroke="#000000" stroke-width="2" d="M2.985,13.753h1.6"/>
<path fill="none" stroke="#000000" stroke-width="2" d="M2.985,22.175h1.6"/>
<path fill="none" stroke="#000000" stroke-width="2" d="M2.985,30.49h1.6"/>
<path fill="none" stroke="#000000" stroke-width="2" d="M2.985,38.912h1.6"/>
<path fill="none" stroke="#000000" stroke-width="2" d="M2.985,47.228h1.6"/>
<path fill="none" stroke="#000000" stroke-width="2" d="M2.985,55.65h1.6"/>
<path fill="none" stroke="#000000" stroke-width="2" d="M2.985,63.965h1.6"/>
<path fill="none" stroke="#000000" stroke-width="2" d="M2.985,72.387h1.6"/>
<path fill="none" stroke="#000000" stroke-width="2" d="M2.985,80.81h1.6"/>
<path fill="none" stroke="#000000" stroke-width="2" d="M2.985,7.143H6.29"/>
<path fill="none" stroke="#000000" stroke-width="2" d="M2.985,15.458H6.29"/>
<path fill="none" stroke="#000000" stroke-width="2" d="M2.985,23.774H6.29"/>
<path fill="none" stroke="#000000" stroke-width="2" d="M2.985,32.197H6.29"/>
<path fill="none" stroke="#000000" stroke-width="2" d="M2.985,40.618H6.29"/>
<path fill="none" stroke="#000000" stroke-width="2" d="M2.985,48.934H6.29"/>
<path fill="none" stroke="#000000" stroke-width="2" d="M2.985,57.356H6.29"/>
<path fill="none" stroke="#000000" stroke-width="2" d="M2.985,65.671H6.29"/>
<path fill="none" stroke="#000000" stroke-width="2" d="M2.985,74.093H6.29"/>
<path fill="none" stroke="#000000" stroke-width="2" d="M2.985,82.408H6.29"/>
<path fill="none" stroke="#000000" stroke-width="2" d="M4.584,8.849h-1.6"/>
<path fill="none" stroke="#000000" stroke-width="2" d="M4.584,17.164h-1.6"/>
<path fill="none" stroke="#000000" stroke-width="2" d="M4.584,25.48h-1.6"/>
<path fill="none" stroke="#000000" stroke-width="2" d="M4.584,33.902h-1.6"/>
<path fill="none" stroke="#000000" stroke-width="2" d="M4.584,42.217h-1.6"/>
<path fill="none" stroke="#000000" stroke-width="2" d="M4.584,50.639h-1.6"/>
<path fill="none" stroke="#000000" stroke-width="2" d="M4.584,58.954h-1.6"/>
<path fill="none" stroke="#000000" stroke-width="2" d="M4.584,67.377h-1.6"/>
<path fill="none" stroke="#000000" stroke-width="2" d="M4.584,75.693h-1.6"/>
<path fill="none" stroke="#000000" stroke-width="2" d="M4.584,84.115h-1.6"/>
<path fill="none" stroke="#000000" stroke-width="2" d="M2.985,10.448h1.6"/>
<path fill="none" stroke="#000000" stroke-width="2" d="M2.985,18.763h1.6"/>
<path fill="none" stroke="#000000" stroke-width="2" d="M2.985,27.186h1.6"/>
<path fill="none" stroke="#000000" stroke-width="2" d="M2.985,35.501h1.6"/>
<path fill="none" stroke="#000000" stroke-width="2" d="M2.985,43.923h1.6"/>
<path fill="none" stroke="#000000" stroke-width="2" d="M2.985,52.345h1.6"/>
<path fill="none" stroke="#000000" stroke-width="2" d="M2.985,60.66h1.6"/>
<path fill="none" stroke="#000000" stroke-width="2" d="M2.985,69.082h1.6"/>
<path fill="none" stroke="#000000" stroke-width="2" d="M2.985,77.398h1.6"/>
<path fill="none" stroke="#000000" stroke-width="2" d="M2.985,85.821h1.6"/>
</svg>
