<?xml version="1.0" encoding="utf-8"?>
<!-- Generator: Adobe Illustrator 14.0.0, SVG Export Plug-In . SVG Version: 6.00 Build 43363)  -->
<!DOCTYPE svg PUBLIC "-//W3C//DTD SVG 1.1//EN" "http://www.w3.org/Graphics/SVG/1.1/DTD/svg11.dtd">
<svg version="1.1" id="图层_1" xmlns="http://www.w3.org/2000/svg" xmlns:xlink="http://www.w3.org/1999/xlink" x="0px" y="0px"
	 width="144.749px" height="52.459px" viewBox="0 0 144.749 52.459" enable-background="new 0 0 144.749 52.459"
	 xml:space="preserve">
<path fill="#666666" stroke="#000000" stroke-width="2" d="M115.083,42.297h9.613l-9.613,6.317V42.297z"/>
<path fill="#666666" stroke="#000000" stroke-width="2" d="M25.271,42.297h9.613l-9.613,6.317V42.297z"/>
<path fill="#B2B2B2" stroke="#000000" stroke-width="2" d="M3.848,42.297l4.395-17.028h115.63l4.12,17.028h0.274H3.848z"/>
<path fill="#999999" stroke="#000000" stroke-width="2" d="M123.872,25.269l12.634-8.515l4.395,17.028l-12.908,8.515L123.872,25.269
	z"/>
<path fill="#B2B2B2" stroke="#000000" stroke-width="2" d="M3.848,29.388l4.395-17.028h115.63l4.12,17.028h0.274H3.848z"/>
<path fill="#999999" stroke="#000000" stroke-width="2" d="M123.872,12.359l12.634-8.514l4.395,17.029l-12.908,8.514L123.872,12.359
	z"/>
<path fill="#999999" stroke="#000000" stroke-width="2" d="M106.569,42.297v6.317h8.515v-6.317H106.569z"/>
<path fill="#999999" stroke="#000000" stroke-width="2" d="M16.757,42.297v6.317h8.514v-6.317H16.757z"/>
<path fill="#E5E5E5" stroke="#000000" stroke-width="2" d="M8.242,12.359l12.634-8.514h115.63l-12.634,8.514H8.242z"/>
<path stroke="#000000" stroke-width="2" d="M64.822,31.585h15.105V40.1H64.822V31.585z"/>
<path fill="#E5E5E5" stroke="#000000" stroke-width="2" d="M72.512,37.628h6.866v1.922h-6.866V37.628z"/>
<circle fill="#E5E5E5" stroke="#000000" stroke-width="2" cx="65.92" cy="35.98" r="1.099"/>
<circle fill="#E5E5E5" stroke="#000000" stroke-width="2" cx="78.828" cy="35.98" r="1.099"/>
</svg>
