<?xml version="1.0" encoding="utf-8"?>
<!-- Generator: Adobe Illustrator 14.0.0, SVG Export Plug-In . SVG Version: 6.00 Build 43363)  -->
<!DOCTYPE svg PUBLIC "-//W3C//DTD SVG 1.1//EN" "http://www.w3.org/Graphics/SVG/1.1/DTD/svg11.dtd">
<svg version="1.1" id="图层_1" xmlns="http://www.w3.org/2000/svg" xmlns:xlink="http://www.w3.org/1999/xlink" x="0px" y="0px"
	 width="22.068px" height="106.502px" viewBox="0 0 22.068 106.502" enable-background="new 0 0 22.068 106.502"
	 xml:space="preserve">
<path fill="none" stroke="#000000" stroke-width="2" d="M2.878,2.878h16.204"/>
<path fill="none" stroke="#000000" stroke-width="2" d="M2.878,22.921h16.204"/>
<path fill="none" stroke="#000000" stroke-width="2" d="M2.878,43.071h16.204"/>
<path fill="none" stroke="#000000" stroke-width="2" d="M2.878,63.219h16.204"/>
<path fill="none" stroke="#000000" stroke-width="2" d="M2.878,83.368h16.204"/>
<path fill="none" stroke="#000000" stroke-width="2" d="M2.878,103.517h16.204"/>
<path fill="none" stroke="#000000" stroke-width="2" d="M6.93,4.905h8.102"/>
<path fill="none" stroke="#000000" stroke-width="2" d="M6.93,24.947h8.102"/>
<path fill="none" stroke="#000000" stroke-width="2" d="M6.93,45.096h8.102"/>
<path fill="none" stroke="#000000" stroke-width="2" d="M6.93,65.244h8.102"/>
<path fill="none" stroke="#000000" stroke-width="2" d="M6.93,85.394h8.102"/>
<path fill="none" stroke="#000000" stroke-width="2" d="M6.93,6.93h8.102"/>
<path fill="none" stroke="#000000" stroke-width="2" d="M6.93,26.972h8.102"/>
<path fill="none" stroke="#000000" stroke-width="2" d="M6.93,47.121h8.102"/>
<path fill="none" stroke="#000000" stroke-width="2" d="M6.93,67.163h8.102"/>
<path fill="none" stroke="#000000" stroke-width="2" d="M6.93,87.313h8.102"/>
<path fill="none" stroke="#000000" stroke-width="2" d="M6.93,8.955h8.102"/>
<path fill="none" stroke="#000000" stroke-width="2" d="M6.93,28.997h8.102"/>
<path fill="none" stroke="#000000" stroke-width="2" d="M6.93,49.04h8.102"/>
<path fill="none" stroke="#000000" stroke-width="2" d="M6.93,69.19h8.102"/>
<path fill="none" stroke="#000000" stroke-width="2" d="M6.93,89.338h8.102"/>
<path fill="none" stroke="#000000" stroke-width="2" d="M6.93,10.981h8.102"/>
<path fill="none" stroke="#000000" stroke-width="2" d="M6.93,30.916h8.102"/>
<path fill="none" stroke="#000000" stroke-width="2" d="M6.93,51.066h8.102"/>
<path fill="none" stroke="#000000" stroke-width="2" d="M6.93,71.215h8.102"/>
<path fill="none" stroke="#000000" stroke-width="2" d="M6.93,91.364h8.102"/>
<path fill="none" stroke="#000000" stroke-width="2" d="M6.93,13.006h8.102"/>
<path fill="none" stroke="#000000" stroke-width="2" d="M6.93,32.943h8.102"/>
<path fill="none" stroke="#000000" stroke-width="2" d="M6.93,53.091h8.102"/>
<path fill="none" stroke="#000000" stroke-width="2" d="M6.93,73.24h8.102"/>
<path fill="none" stroke="#000000" stroke-width="2" d="M6.93,93.39h8.102"/>
<path fill="none" stroke="#000000" stroke-width="2" d="M6.93,15.032h8.102"/>
<path fill="none" stroke="#000000" stroke-width="2" d="M6.93,34.968h8.102"/>
<path fill="none" stroke="#000000" stroke-width="2" d="M6.93,55.116h8.102"/>
<path fill="none" stroke="#000000" stroke-width="2" d="M6.93,75.266h8.102"/>
<path fill="none" stroke="#000000" stroke-width="2" d="M6.93,95.415h8.102"/>
<path fill="none" stroke="#000000" stroke-width="2" d="M6.93,17.058h8.102"/>
<path fill="none" stroke="#000000" stroke-width="2" d="M6.93,36.993h8.102"/>
<path fill="none" stroke="#000000" stroke-width="2" d="M6.93,57.143h8.102"/>
<path fill="none" stroke="#000000" stroke-width="2" d="M6.93,77.291h8.102"/>
<path fill="none" stroke="#000000" stroke-width="2" d="M6.93,97.441h8.102"/>
<path fill="none" stroke="#000000" stroke-width="2" d="M6.93,19.083h8.102"/>
<path fill="none" stroke="#000000" stroke-width="2" d="M6.93,39.019h8.102"/>
<path fill="none" stroke="#000000" stroke-width="2" d="M6.93,59.168h8.102"/>
<path fill="none" stroke="#000000" stroke-width="2" d="M6.93,79.317h8.102"/>
<path fill="none" stroke="#000000" stroke-width="2" d="M6.93,99.466h8.102"/>
<path fill="none" stroke="#000000" stroke-width="2" d="M6.93,21.002h8.102"/>
<path fill="none" stroke="#000000" stroke-width="2" d="M6.93,41.044h8.102"/>
<path fill="none" stroke="#000000" stroke-width="2" d="M6.93,61.194h8.102"/>
<path fill="none" stroke="#000000" stroke-width="2" d="M6.93,81.343h8.102"/>
<path fill="none" stroke="#000000" stroke-width="2" d="M6.93,101.491h8.102"/>
</svg>
