<?xml version="1.0" encoding="utf-8"?>
<!-- Generator: Adobe Illustrator 14.0.0, SVG Export Plug-In . SVG Version: 6.00 Build 43363)  -->
<!DOCTYPE svg PUBLIC "-//W3C//DTD SVG 1.1//EN" "http://www.w3.org/Graphics/SVG/1.1/DTD/svg11.dtd">
<svg version="1.1" id="图层_1" xmlns="http://www.w3.org/2000/svg" xmlns:xlink="http://www.w3.org/1999/xlink" x="0px" y="0px"
	 width="41.256px" height="106.502px" viewBox="0 0 41.256 106.502" enable-background="new 0 0 41.256 106.502"
	 xml:space="preserve">
<path fill="#7F7F7F" stroke="#000000" stroke-width="2" d="M2.985,47.015h35.18v56.394H2.985V47.015z"/>
<path fill="#7F7F7F" stroke="#000000" stroke-width="2" d="M2.985,32.943h35.18v14.072H2.985V32.943z"/>
<path fill="#7F7F7F" d="M8.209,29.319h24.732l5.224,3.624H2.985L8.209,29.319z"/>
<path fill="none" stroke="#000000" stroke-width="2" d="M2.985,32.943l5.224-3.624h24.732l5.224,3.624H2.985"/>
<path fill="#7F7F7F" stroke="#000000" stroke-width="2" d="M8.209,29.319h24.732l1.812-0.853l-1.812-0.854H8.209l-2.665,0.854
	L8.209,29.319z"/>
<path fill="#7F7F7F" stroke="#000000" stroke-width="2" d="M15.351,2.988h10.554v17.59H15.351V2.988z"/>
<path fill="#666666" stroke="#000000" stroke-width="2" d="M13.539,20.577h14.072v7.035H13.539V20.577z"/>
<path fill="none" stroke="#000000" stroke-width="2" d="M14.498,20.577l12.26-1.813"/>
<path fill="none" stroke="#000000" stroke-width="2" d="M14.498,18.765l12.26-1.706"/>
<path fill="none" stroke="#000000" stroke-width="2" d="M14.498,17.059l12.26-1.813"/>
<path fill="none" stroke="#000000" stroke-width="2" d="M14.498,15.354l12.26-1.813"/>
<path fill="none" stroke="#000000" stroke-width="2" d="M14.498,13.541l12.26-1.706"/>
<path fill="none" stroke="#000000" stroke-width="2" d="M14.498,11.835l12.26-1.813"/>
<path fill="none" stroke="#000000" stroke-width="2" d="M14.498,10.023l12.26-1.812"/>
<path fill="none" stroke="#000000" stroke-width="2" d="M14.498,8.211l12.26-1.706"/>
<path fill="none" stroke="#000000" stroke-width="2" d="M14.498,6.505l12.26-1.813"/>
<path fill="none" stroke="#000000" stroke-width="2" d="M14.498,4.799l12.26-1.812"/>
<path fill="#666666" stroke="#000000" stroke-width="2" d="M31.129,34.649l3.624-1.706l3.412,1.706v12.366h-7.036V34.649z"/>
<path fill="#666666" stroke="#000000" stroke-width="2" d="M24.093,34.649l3.519-1.706l3.518,1.706v12.366h-7.036V34.649z"/>
<path fill="#666666" stroke="#000000" stroke-width="2" d="M17.056,34.649l3.519-1.706l3.518,1.706v12.366h-7.036V34.649z"/>
<path fill="#666666" stroke="#000000" stroke-width="2" d="M10.021,34.649l3.518-1.706l3.518,1.706v12.366h-7.035V34.649z"/>
<path fill="#666666" stroke="#000000" stroke-width="2" d="M2.985,34.649l3.518-1.706l3.519,1.706v12.366H2.985V34.649z"/>
<path fill="none" stroke="#000000" stroke-width="2" d="M5.544,28.466h29.209"/>
</svg>
