<?xml version="1.0" encoding="utf-8"?>
<!-- Generator: Adobe Illustrator 14.0.0, SVG Export Plug-In . SVG Version: 6.00 Build 43363)  -->
<!DOCTYPE svg PUBLIC "-//W3C//DTD SVG 1.1//EN" "http://www.w3.org/Graphics/SVG/1.1/DTD/svg11.dtd">
<svg version="1.1" id="图层_1" xmlns="http://www.w3.org/2000/svg" xmlns:xlink="http://www.w3.org/1999/xlink" x="0px" y="0px"
	 width="92.318px" height="106.502px" viewBox="0 0 92.318 106.502" enable-background="new 0 0 92.318 106.502"
	 xml:space="preserve">
<path d="M2.985,77.717h86.349v9.274H2.985V77.717z"/>
<path fill="#4C4C4C" stroke="#000000" stroke-width="2" d="M10.02,75.265h72.277v14.071H10.02V75.265z"/>
<path fill="#7F7F7F" d="M29.635,103.408v-9.382h32.728v9.382H29.635z"/>
<path fill="#999999" d="M32.727,103.408v-9.382h26.864v9.382H32.727z"/>
<path fill="#B2B2B2" d="M35.499,103.408v-9.382h21.107v9.382H35.499z"/>
<path fill="#CCCCCC" d="M38.484,103.408v-9.382h15.244v9.382H38.484z"/>
<path fill="#E5E5E5" d="M41.362,103.408v-9.382h9.381v9.382H41.362z"/>
<path fill="#FFFFFF" d="M44.347,103.408v-9.382h3.624v9.382H44.347z"/>
<path fill="none" stroke="#000000" stroke-width="2" d="M29.635,103.408v-9.382h32.728v9.382H29.635"/>
<path fill="#7F7F7F" d="M40.296,94.24V8.744h11.727V94.24H40.296z"/>
<path fill="#999999" d="M41.362,94.027V8.744h9.595v85.282H41.362z"/>
<path fill="#B2B2B2" d="M42.321,94.027V8.744h7.463v85.282H42.321z"/>
<path fill="#CCCCCC" d="M43.387,94.027V8.744h5.437v85.282H43.387z"/>
<path fill="#E5E5E5" d="M44.347,94.027V8.744h3.411v85.282H44.347z"/>
<path fill="#FFFFFF" d="M45.519,94.24V8.744h1.279V94.24H45.519z"/>
<path fill="none" stroke="#000000" stroke-width="2" d="M40.296,94.24V8.744h11.727V94.24H40.296"/>
<path fill="#7F7F7F" d="M21.64,74.305h18.655l2.239,7.996l-2.239,8.314H21.64V74.305z"/>
<path fill="#999999" d="M21.64,75.692h19.082l2.025,6.609l-2.025,6.609H21.64V75.692z"/>
<path fill="#B2B2B2" d="M21.64,77.077h19.509l1.599,5.224l-1.599,5.223H21.64V77.077z"/>
<path fill="#CCCCCC" d="M21.64,78.57h19.828l1.279,3.731l-1.279,3.837H21.64V78.57z"/>
<path fill="#E5E5E5" d="M21.64,79.955h20.255l0.853,2.346l-0.853,2.451H21.64V79.955z"/>
<path fill="#FFFFFF" d="M21.64,81.554h20.681l0.214,0.747l-0.214,1.065H21.64V81.554z"/>
<path fill="none" stroke="#000000" stroke-width="2" d="M40.296,90.615H21.64V74.305h18.655"/>
<path fill="#7F7F7F" d="M70.677,90.615H52.022l-2.238-8.314l2.238-8.209h18.655V90.615z"/>
<path fill="#999999" d="M70.677,89.123H51.596l-2.026-6.822l2.026-6.609h19.081V89.123z"/>
<path fill="#B2B2B2" d="M70.677,87.524H51.17l-1.6-5.223l1.6-5.224h19.508V87.524z"/>
<path fill="#CCCCCC" d="M70.677,86.138H50.743l-1.173-3.837l1.173-3.731h19.935V86.138z"/>
<path fill="#E5E5E5" d="M70.677,84.752h-20.36l-0.747-2.451l0.747-2.133h20.36V84.752z"/>
<path fill="#FFFFFF" d="M70.677,83.366H49.997l-0.213-1.065l0.213-0.747h20.681V83.366z"/>
<path fill="none" stroke="#000000" stroke-width="2" d="M52.022,74.092h18.655v16.523H52.022"/>
<path fill="#B2B2B2" stroke="#000000" stroke-width="2" d="M57.459,74.519l-7.462,2.025h-7.676l-7.462-2.025l-6.609-3.838
	l-5.437-5.437l-3.838-6.609l-2.025-7.463v-7.675l2.025-7.355l3.838-6.609l5.437-5.438l6.609-3.838l7.462-2.025h7.676l7.462,2.025
	l6.609,3.838l5.438,5.438l3.73,6.609l2.025,7.355v7.675l-2.025,7.463l-3.73,6.609l-5.438,5.437L57.459,74.519z"/>
<path fill="#F2F2F2" stroke="#7F7F7F" stroke-width="2" d="M55.54,70.041l-6.183,1.813h-6.396l-6.289-1.813l-5.544-3.198
	l-4.69-4.371l-3.197-5.649l-1.6-6.183v-6.503l1.6-6.184l3.197-5.649l4.69-4.584l5.544-3.305l6.289-1.6h6.396l6.183,1.6l5.65,3.305
	l4.478,4.584l3.198,5.649l1.812,6.184v6.503l-1.812,6.183l-3.198,5.649l-4.478,4.371L55.54,70.041z"/>
<path fill="none" stroke="#000000" stroke-width="2" d="M55.22,56.396l6.609,6.609"/>
<path fill="none" stroke="#000000" stroke-width="2" d="M58.952,47.335h9.274"/>
<path fill="none" stroke="#000000" stroke-width="2" d="M55.22,38.38l6.609-6.716"/>
<path fill="none" stroke="#000000" stroke-width="2" d="M46.159,34.542v-9.487"/>
<path fill="none" stroke="#000000" stroke-width="2" d="M37.098,38.38l-6.61-6.716"/>
<path fill="none" stroke="#000000" stroke-width="2" d="M33.26,47.335h-9.382"/>
<path fill="none" stroke="#000000" stroke-width="2" d="M37.098,56.396l-6.61,6.609"/>
<path fill="none" stroke="#999999" stroke-width="2" d="M60.444,57.569l3.624,2.878"/>
<path fill="none" stroke="#999999" stroke-width="2" d="M61.83,55.437l4.051,2.025"/>
<path fill="none" stroke="#999999" stroke-width="2" d="M62.789,52.772l4.478,1.492"/>
<path fill="none" stroke="#999999" stroke-width="2" d="M63.428,50l4.584,0.853"/>
<path fill="none" stroke="#999999" stroke-width="2" d="M63.428,44.563l4.584-0.853"/>
<path fill="none" stroke="#999999" stroke-width="2" d="M62.789,42.004l4.478-1.492"/>
<path fill="none" stroke="#999999" stroke-width="2" d="M61.83,39.339l4.051-2.025"/>
<path fill="none" stroke="#999999" stroke-width="2" d="M60.444,37.101l3.624-2.771"/>
<path fill="none" stroke="#999999" stroke-width="2" d="M56.393,33.156l2.771-3.838"/>
<path fill="none" stroke="#999999" stroke-width="2" d="M53.941,31.664l2.238-4.158"/>
<path fill="none" stroke="#999999" stroke-width="2" d="M51.596,30.704l1.386-4.69"/>
<path fill="none" stroke="#999999" stroke-width="2" d="M48.824,30.065l0.746-4.797"/>
<path fill="none" stroke="#999999" stroke-width="2" d="M43.387,30.065l-0.853-4.584"/>
<path fill="none" stroke="#999999" stroke-width="2" d="M40.722,30.704l-1.599-4.478"/>
<path fill="none" stroke="#999999" stroke-width="2" d="M38.057,31.664l-2.132-4.158"/>
<path fill="none" stroke="#999999" stroke-width="2" d="M35.926,33.156l-3.092-3.838"/>
<path fill="none" stroke="#999999" stroke-width="2" d="M31.875,37.101l-3.838-2.771"/>
<path fill="none" stroke="#999999" stroke-width="2" d="M30.488,39.339l-4.264-2.025"/>
<path fill="none" stroke="#999999" stroke-width="2" d="M29.423,42.004l-4.584-1.492"/>
<path fill="none" stroke="#999999" stroke-width="2" d="M28.889,44.563l-4.797-0.64"/>
<path fill="none" stroke="#999999" stroke-width="2" d="M28.889,50l-4.584,0.959"/>
<path fill="none" stroke="#999999" stroke-width="2" d="M29.423,52.772l-4.371,1.492"/>
<path fill="none" stroke="#999999" stroke-width="2" d="M30.488,55.437l-4.264,2.025"/>
<path fill="none" stroke="#999999" stroke-width="2" d="M31.875,57.569l-3.838,2.878"/>
<path fill="#CCCCCC" d="M21.64,2.988h49.037v5.757H21.64V2.988z"/>
<path fill="none" stroke="#FFFFFF" stroke-width="2" d="M57.033,73.452l-7.249,1.813h-7.249l-7.249-1.813l-6.396-3.731l-5.224-5.116
	l-3.624-6.396l-2.025-7.249l0.213-7.462l1.813-6.93l3.624-6.503l5.224-5.224l6.396-3.624l7.035-1.813h7.463l7.249,1.813l6.396,3.624
	l5.011,5.224l3.838,6.503l1.813,7.143v7.249l-1.813,7.249l-3.838,6.396l-5.224,5.116L57.033,73.452"/>
<path fill="#E5E5E5" d="M33.26,8.744h-7.995V2.988h7.995V8.744z"/>
<path fill="#D4D4D4" d="M32.727,8.744h-7.462V2.988h7.462V8.744z"/>
<path fill="#C4C4C4" d="M32.088,8.744h-6.822V2.988h6.822V8.744z"/>
<path fill="#B2B2B2" d="M31.235,8.744h-5.97V2.988h5.97V8.744z"/>
<path fill="#A1A1A1" d="M30.702,8.744h-5.437V2.988h5.437V8.744z"/>
<path fill="#919191" d="M29.21,8.744h-3.944V2.988h3.944V8.744z"/>
<path fill="#7F7F7F" d="M27.504,8.744h-2.238V2.988h2.238V8.744z"/>
<path fill="#E5E5E5" d="M44.986,8.744h-8.102V2.988h8.102V8.744z"/>
<path fill="#D4D4D4" d="M44.347,8.744h-7.463V2.988h7.463V8.744z"/>
<path fill="#C4C4C4" d="M43.708,8.744h-6.823V2.988h6.823V8.744z"/>
<path fill="#B2B2B2" d="M42.961,8.744h-6.076V2.988h6.076V8.744z"/>
<path fill="#A1A1A1" d="M42.321,8.744h-5.437V2.988h5.437V8.744z"/>
<path fill="#919191" d="M40.935,8.744h-4.051V2.988h4.051V8.744z"/>
<path fill="#7F7F7F" d="M39.124,8.744h-2.239V2.988h2.239V8.744z"/>
<path fill="#E5E5E5" d="M56.819,8.744h-8.208V2.988h8.208V8.744z"/>
<path fill="#D4D4D4" d="M55.967,8.744h-7.355V2.988h7.355V8.744z"/>
<path fill="#C4C4C4" d="M55.433,8.744h-6.822V2.988h6.822V8.744z"/>
<path fill="#B2B2B2" d="M54.581,8.744h-5.97V2.988h5.97V8.744z"/>
<path fill="#A1A1A1" d="M53.941,8.744h-5.33V2.988h5.33V8.744z"/>
<path fill="#919191" d="M52.555,8.744h-3.944V2.988h3.944V8.744z"/>
<path fill="#7F7F7F" d="M50.743,8.744h-2.132V2.988h2.132V8.744z"/>
<path fill="#E5E5E5" d="M68.439,8.744h-8.208V2.988h8.208V8.744z"/>
<path fill="#D4D4D4" d="M67.693,8.744h-7.462V2.988h7.462V8.744z"/>
<path fill="#C4C4C4" d="M67.053,8.744h-6.822V2.988h6.822V8.744z"/>
<path fill="#B2B2B2" d="M66.307,8.744h-6.076V2.988h6.076V8.744z"/>
<path fill="#A1A1A1" d="M65.668,8.744h-5.437V2.988h5.437V8.744z"/>
<path fill="#919191" d="M64.282,8.744h-4.051V2.988h4.051V8.744z"/>
<path fill="#7F7F7F" d="M62.363,8.744h-2.132V2.988h2.132V8.744z"/>
<path fill="none" stroke="#000000" stroke-width="2" d="M21.64,2.988h49.037v5.757H21.64V2.988"/>
<path fill="none" stroke="#000000" stroke-width="2" d="M25.265,2.988v5.757"/>
<path fill="none" stroke="#000000" stroke-width="2" d="M36.885,2.988v5.757"/>
<path fill="none" stroke="#000000" stroke-width="2" d="M48.611,2.988v5.757"/>
<path fill="none" stroke="#000000" stroke-width="2" d="M60.231,2.988v5.757"/>
<path fill="none" stroke="#000000" stroke-width="2" d="M33.473,2.988v5.757"/>
<path fill="none" stroke="#000000" stroke-width="2" d="M45.2,2.988v5.757"/>
<path fill="none" stroke="#000000" stroke-width="2" d="M56.819,2.988v5.757"/>
<path fill="none" stroke="#000000" stroke-width="2" d="M68.439,2.988v5.757"/>
<circle fill="#FF0000" cx="46.159" cy="47.335" r="2.452"/>
</svg>
