<?xml version="1.0" encoding="utf-8"?>
<!-- Generator: Adobe Illustrator 14.0.0, SVG Export Plug-In . SVG Version: 6.00 Build 43363)  -->
<!DOCTYPE svg PUBLIC "-//W3C//DTD SVG 1.1//EN" "http://www.w3.org/Graphics/SVG/1.1/DTD/svg11.dtd">
<svg version="1.1" id="图层_1" xmlns="http://www.w3.org/2000/svg" xmlns:xlink="http://www.w3.org/1999/xlink" x="0px" y="0px"
	 width="37.995px" height="106.502px" viewBox="0 0 37.995 106.502" enable-background="new 0 0 37.995 106.502"
	 xml:space="preserve">
<path fill="#7F7F7F" stroke="#000000" stroke-width="2" d="M16.168,55.575h1.819V30.92h-1.819V55.575z"/>
<path fill="#999999" stroke="#000000" stroke-width="2" d="M12.328,17.38l0.606,13.742h8.285l0.607-13.742H12.328z"/>
<path fill="none" stroke="#000000" stroke-width="2" d="M12.732,22.836l8.892-0.404"/>
<path fill="none" stroke="#000000" stroke-width="2" d="M12.732,23.24l8.892-0.202"/>
<path fill="none" stroke="#000000" stroke-width="2" d="M12.732,23.847l8.892-0.202"/>
<path fill="none" stroke="#000000" stroke-width="2" d="M12.732,24.453l8.892-0.202"/>
<path fill="none" stroke="#000000" stroke-width="2" d="M12.732,25.06l8.892-0.202"/>
<path fill="none" stroke="#000000" stroke-width="2" d="M12.732,25.665l8.892-0.202"/>
<path fill="none" stroke="#000000" stroke-width="2" d="M12.732,26.272l8.892-0.202"/>
<path fill="none" stroke="#000000" stroke-width="2" d="M12.732,26.878l8.892-0.202"/>
<path fill="none" stroke="#000000" stroke-width="2" d="M12.732,27.485l8.892-0.202"/>
<path fill="none" stroke="#000000" stroke-width="2" d="M12.732,28.091l8.892-0.404"/>
<path fill="none" stroke="#000000" stroke-width="2" d="M12.732,28.698l8.892-0.404"/>
<path fill="none" stroke="#000000" stroke-width="2" d="M12.732,29.303l8.892-0.404"/>
<path fill="none" stroke="#000000" stroke-width="2" d="M12.732,29.909l8.892-0.404"/>
<path fill="none" stroke="#000000" stroke-width="2" d="M12.732,30.516l8.892-0.404"/>
<path fill="none" stroke="#000000" stroke-width="2" d="M12.732,31.122l8.892-0.404"/>
<path fill="#B2B2B2" stroke="#000000" stroke-width="2" d="M20.614,18.592h2.425v-0.808h-2.425V18.592z"/>
<path fill="#B2B2B2" stroke="#000000" stroke-width="2" d="M23.847,18.391h2.426V17.38h-2.426V18.391z"/>
<path fill="#7F7F7F" stroke="#000000" stroke-width="2" d="M5.255,3.234v1.818V17.38l1.011,0.202l2.627,0.202h16.37l2.627-0.202
	l1.01-0.202V3.234l-1.01-0.202l-2.627-0.202H8.893L6.266,3.031L5.255,3.234z"/>
<path fill="#B2B2B2" stroke="#000000" stroke-width="2" d="M5.255,3.84v1.616v11.52l1.011,0.202H27.89l1.01-0.202V3.84l-1.01-0.202
	l-2.627-0.202H8.893L6.266,3.638L5.255,3.84z"/>
<path fill="#E5E5E5" d="M7.074,3.84H7.68v13.338H7.074V3.84z"/>
<path fill="#E5E5E5" d="M8.286,3.84h1.819v13.338H8.286V3.84z"/>
<path fill="#E5E5E5" d="M22.433,3.84h3.233v13.338h-3.233V3.84z"/>
<path fill="#999999" d="M5.659,12.125h22.23v0.809H5.659V12.125z"/>
<path fill="#E5E5E5" stroke="#000000" stroke-width="2" d="M2.83,8.488h28.495v3.638H2.83V8.488z"/>
<path stroke="#000000" stroke-width="2" d="M2.83,10.105h28.495v0.404H2.83V10.105z"/>
<path fill="#CCCCCC" stroke="#000000" stroke-width="2" d="M28.294,8.488h2.425V7.68h-2.425V8.488z"/>
<path fill="#CCCCCC" stroke="#000000" stroke-width="2" d="M15.562,8.488h2.425V7.68h-2.425V8.488z"/>
<path fill="#CCCCCC" stroke="#000000" stroke-width="2" d="M20.411,8.488h2.426V7.68h-2.426V8.488z"/>
<path fill="#CCCCCC" stroke="#000000" stroke-width="2" d="M10.914,8.488h2.425V7.68h-2.425V8.488z"/>
<path fill="#CCCCCC" stroke="#000000" stroke-width="2" d="M27.687,12.125v1.213v1.011v1.212v1.213l0.404,0.404l1.011,0.202h1.213
	h1.011v-1.415v-1.212V13.54v-1.415h-0.809h-1.011h-0.808H27.687z"/>
<path fill="#B2B2B2" stroke="#000000" stroke-width="2" d="M19.199,33.345l0.202,7.073h-4.648l0.404-7.073l0.202-0.809l0.404-0.605
	l0.606-0.404l0.808-0.202l0.809,0.202l0.606,0.404l0.404,0.605L19.199,33.345z"/>
<path fill="#B2B2B2" stroke="#000000" stroke-width="2" d="M15.966,54.363l-0.606-0.809v-7.477l0.606-0.809h2.425l0.606,0.809v7.477
	l-0.606,0.809H15.966z"/>
<path fill="#B2B2B2" stroke="#000000" stroke-width="2" d="M15.966,55.171l0.202,3.031l0.202,3.233l0.202,3.233l0.404,3.031
	l0.404,3.233l0.606,3.234l0.808,3.031l0.809,3.031l1.011,3.233l1.414,3.031l1.415,3.031l1.616,2.829l2.021,3.031l2.223,2.83
	l2.426,2.829l2.828,2.627l0.607-4.042v-4.647l-0.404-3.436l-0.203-0.606l-2.223-1.819l-2.627-2.425l-2.627-3.233l-2.426-4.042
	l-1.212-2.425l-1.011-2.426l-1.01-2.829l-1.012-2.829l-0.808-3.031l-0.606-3.436l-0.404-3.436l-0.202-3.84H15.966z"/>
<path fill="#E5E5E5" d="M17.38,31.931v8.083h1.011l-0.606-8.083H17.38z"/>
<path fill="#E5E5E5" d="M17.38,45.875h0.606v7.881H17.38V45.875z"/>
<path fill="none" stroke="#000000" stroke-width="2" d="M16.572,45.269l1.415-1.415"/>
<path fill="none" stroke="#000000" stroke-width="2" d="M16.168,44.662l1.819-1.819"/>
<path fill="none" stroke="#000000" stroke-width="2" d="M16.168,43.854l1.819-1.818"/>
<path fill="none" stroke="#000000" stroke-width="2" d="M16.168,42.035l1.617-1.617"/>
<path fill="none" stroke="#000000" stroke-width="2" d="M16.168,42.843l1.819-1.818"/>
</svg>
