<?xml version="1.0" encoding="utf-8"?>
<!-- Generator: Adobe Illustrator 14.0.0, SVG Export Plug-In . SVG Version: 6.00 Build 43363)  -->
<!DOCTYPE svg PUBLIC "-//W3C//DTD SVG 1.1//EN" "http://www.w3.org/Graphics/SVG/1.1/DTD/svg11.dtd">
<svg version="1.1" id="图层_1" xmlns="http://www.w3.org/2000/svg" xmlns:xlink="http://www.w3.org/1999/xlink" x="0px" y="0px"
	 width="89.654px" height="106.502px" viewBox="0 0 89.654 106.502" enable-background="new 0 0 89.654 106.502"
	 xml:space="preserve">
<path stroke="#000000" stroke-width="2" d="M2.985,2.988H86.67v100.421H2.985V2.988z"/>
<path fill="#E5E5E5" stroke="#000000" stroke-width="2" d="M2.985,2.988H86.67l-1.066,1.065l-81.553,98.29l-1.065,1.065V2.988z"/>
<path fill="#7F7F7F" stroke="#000000" stroke-width="2" d="M3.944,4.053H85.71v98.29H3.944V4.053z"/>
<path stroke="#000000" stroke-width="2" d="M13.432,4.053h30.382v57.566H13.432V4.053z"/>
<circle fill="#FFFFFF" stroke="#000000" stroke-width="2" cx="44.774" cy="61.513" r="32.408"/>
<circle stroke="#000000" stroke-width="2" cx="44.774" cy="61.513" r="2.559"/>
<path fill="none" stroke="#7F7F7F" stroke-width="2" d="M15.031,13.435h17.271v6.289H15.031V13.435"/>
<path fill="none" stroke="#00FFFF" stroke-width="2" d="M29.103,15.033h1.599v3.625h-1.599V15.033"/>
<circle stroke="#000000" stroke-width="2" cx="76.435" cy="34.649" r="2.771"/>
<path stroke="#000000" stroke-width="2" d="M59.485,59.488h1.066V33.263l-2.132-0.96L59.485,59.488z"/>
<circle fill="none" stroke="#CCCCCC" stroke-width="2" cx="44.774" cy="61.513" r="8.315"/>
<path fill="#FF0000" d="M54.795,61.833l0.106,0.426l5.224-2.025l-0.213-0.426l-5.224,2.025v0.532v-0.532l-0.64,0.319l0.64,0.213
	L54.795,61.833z"/>
<path fill="#FF0000" d="M65.775,64.924v-0.426l-10.98-2.665l-0.106,0.532l10.98,2.559v-0.426L65.775,64.924l0.959-0.213
	l-0.959-0.213V64.924z"/>
<path fill="#FF0000" d="M56.927,66.524v0.533l8.849-2.133l-0.106-0.426l-8.849,2.025v0.426v-0.426l-0.853,0.213l0.853,0.213
	L56.927,66.524z"/>
<path fill="#FF0000" d="M65.775,69.615v-0.427l-8.849-2.665l-0.106,0.426l8.849,2.666v-0.427L65.775,69.615l1.065-0.107
	l-1.065-0.319V69.615z"/>
<path fill="#FF0000" d="M58.099,70.468l-0.106,0.213l7.782-1.065l-0.106-0.427l-7.782,1.066l-0.214,0.213l0.214-0.213h-0.214v0.213
	H58.099z"/>
<path fill="#FF0000" d="M57.78,75.371l0.319-0.213v-4.69h-0.427v4.69l0.427-0.106L57.78,75.371l0.319,0.32v-0.533L57.78,75.371z"/>
<path fill="#FF0000" d="M51.917,69.402l-0.427,0.214l6.29,5.756l0.319-0.319l-6.29-5.863l-0.426,0.213l0.426-0.213l-0.426-0.32
	v0.533H51.917z"/>
<path fill="#FF0000" d="M52.449,81.555l0.427-0.106l-0.959-12.047h-0.533l1.065,12.047l0.427-0.107L52.449,81.555l0.533,0.959
	l-0.106-1.065L52.449,81.555z"/>
<path fill="#FF0000" d="M46.16,68.443h-0.533l6.822,13.112l0.427-0.214l-6.822-13.112l-0.427,0.107l0.427-0.107l-0.32-0.64
	l-0.106,0.747L46.16,68.443z"/>
<path fill="#FF0000" d="M42.535,91.896h0.427l3.198-23.453l-0.533-0.106L42.535,91.896h0.427H42.535l0.214,1.705l0.213-1.705H42.535
	z"/>
<path fill="#FF0000" d="M40.83,74.839l-0.427-0.107l2.132,17.164h0.427L40.83,74.625l-0.32-0.213l0.32,0.213v-0.426l-0.32,0.213
	L40.83,74.839z"/>
<path fill="#FF0000" d="M33.154,80.276l0.319,0.319l7.356-5.756l-0.32-0.427L33.154,80.276l0.427,0.213L33.154,80.276l-0.427,0.959
	l0.746-0.64L33.154,80.276z"/>
<path fill="#FF0000" d="M39.124,68.549l-0.319-0.32l-5.65,12.047l0.427,0.213l5.649-12.046l-0.213-0.32l0.213,0.32l0.32-0.427
	l-0.533,0.106L39.124,68.549z"/>
<path fill="#FF0000" d="M29.956,71.321l0.32,0.427l8.848-3.198l-0.106-0.427l-8.955,3.198l0.32,0.32L29.956,71.321l-0.533,0.64
	l0.854-0.213L29.956,71.321z"/>
<path fill="#FF0000" d="M33.9,67.589l-0.213-0.426l-3.731,4.157l0.427,0.32l3.624-4.158l-0.213-0.426l0.213,0.426l0.427-0.426h-0.64
	L33.9,67.589z"/>
<path fill="#FF0000" d="M21.64,68.656l0.214,0.427L33.9,67.589l-0.106-0.532l-12.046,1.599l0.213,0.427L21.64,68.656l-0.959,0.533
	l1.173-0.106L21.64,68.656z"/>
<path fill="#FF0000" d="M31.129,63.859v-0.427l-9.488,5.224l0.32,0.427l9.381-5.224v-0.427v0.427l0.533-0.32l-0.533-0.106
	L31.129,63.859z"/>
<path fill="#FF0000" d="M25.372,61.833v0.532l5.757,1.493l0.213-0.427l-5.757-1.599v0.426L25.372,61.833l-0.64,0.319l0.64,0.213
	V61.833z"/>
<path fill="#FF0000" d="M30.489,60.127l0.106-0.319l-5.224,2.025l0.213,0.426l5.224-2.025l0.107-0.426l-0.107,0.426l0.32-0.106
	l-0.213-0.319L30.489,60.127z"/>
<path fill="#FF0000" d="M26.011,55.01l-0.213,0.427l4.69,4.69l0.427-0.319l-4.798-4.691l-0.106,0.427V55.01l-0.746-0.106
	l0.533,0.533L26.011,55.01z"/>
<path fill="#FF0000" d="M34.646,57.035l0.32-0.426l-8.955-1.6v0.533l8.849,1.599l0.213-0.426l-0.213,0.426h0.532l-0.319-0.426
	L34.646,57.035z"/>
<path fill="#FF0000" d="M31.875,51.918l-0.319,0.32l3.091,4.797l0.427-0.319l-3.092-4.69l-0.319,0.319L31.875,51.918l-0.64-0.213
	l0.32,0.533L31.875,51.918z"/>
<path fill="#FF0000" d="M37.311,53.731l0.214-0.213l-5.65-1.6l-0.213,0.427l5.756,1.6l0.32-0.32l-0.32,0.32l0.427,0.106
	l-0.106-0.427L37.311,53.731z"/>
<path fill="#FF0000" d="M35.926,47.974h-0.213l1.599,5.757l0.427-0.106l-1.599-5.757L35.926,47.974z"/>
<circle fill="none" stroke="#CCCCCC" stroke-width="2" cx="44.881" cy="61.513" r="16.737"/>
<circle fill="none" stroke="#CCCCCC" stroke-width="2" cx="44.774" cy="61.513" r="25.052"/>
</svg>
