<?xml version="1.0" encoding="utf-8"?>
<!-- Generator: Adobe Illustrator 14.0.0, SVG Export Plug-In . SVG Version: 6.00 Build 43363)  -->
<!DOCTYPE svg PUBLIC "-//W3C//DTD SVG 1.1//EN" "http://www.w3.org/Graphics/SVG/1.1/DTD/svg11.dtd">
<svg version="1.1" id="图层_1" xmlns="http://www.w3.org/2000/svg" xmlns:xlink="http://www.w3.org/1999/xlink" x="0px" y="0px"
	 width="59.271px" height="106.502px" viewBox="0 0 59.271 106.502" enable-background="new 0 0 59.271 106.502"
	 xml:space="preserve">
<path fill="#99FFFF" stroke="#000000" stroke-width="2" d="M7.675,2.989l-1.599,7.889v4.584l-1.492,3.091L4.477,54.691H5.33v15.67
	l0.746,1.6h47.118l0.746-1.6v-15.67h0.746V18.552l-1.492-3.091v-4.69l-3.198-7.782H7.675z"/>
<path fill="#E5E5E5" stroke="#000000" stroke-width="2" d="M13.859,84.538h31.447v18.869H13.859V84.538z"/>
<path fill="#E5E5E5" stroke="#000000" stroke-width="2" d="M13.965,84.538L7.675,71.96h43.92l-6.289,12.578H13.965z"/>
<path fill="none" stroke="#7F7F7F" stroke-width="2" d="M7.569,10.771h44.026"/>
<path fill="none" stroke="#7F7F7F" stroke-width="2" d="M7.675,15.568h43.92"/>
<path fill="none" stroke="#7F7F7F" stroke-width="2" d="M6.929,17.913h45.519"/>
<path fill="#00FFFF" d="M10.021,20.258v17.27l1.599,1.492h4.69l1.6-1.492v-17.27H10.021z"/>
<path fill="none" stroke="#7F7F7F" stroke-width="2" d="M11.619,39.02l-1.599-1.599l0.106-17.163h7.782"/>
<path fill="#00FFFF" d="M41.468,20.258v17.27l1.492,1.492h4.69l1.6-1.492v-17.27H41.468z"/>
<path fill="none" stroke="#7F7F7F" stroke-width="2" d="M42.96,39.02l-1.492-1.599V20.258h7.782"/>
<path fill="#00FFFF" d="M25.797,20.258v17.27l1.493,1.492h4.69l1.599-1.492v-17.27H25.797z"/>
<path fill="none" stroke="#7F7F7F" stroke-width="2" d="M27.29,39.02l-1.493-1.599V20.258h7.782"/>
<path fill="#FFFFFF" stroke="#000000" stroke-width="2" d="M20.254,99.463h18.762v3.944H20.254V99.463z"/>
<path fill="#00FFFF" d="M16.31,70.361V56.183l1.6-1.492h4.69l1.599,1.599v14.071H16.31z"/>
<path fill="#00FFFF" d="M47.651,70.361V56.183l1.6-1.492h4.69v15.776L47.651,70.361z"/>
<path fill="#00FFFF" d="M31.981,70.361V56.183l1.599-1.492h4.69l1.6,1.599v14.071H31.981z"/>
<path fill="#00FFFF" d="M5.33,70.467l-0.106-15.67l1.599-0.106l1.599,1.599v14.071L5.33,70.467z"/>
<path fill="none" stroke="#7F7F7F" stroke-width="2" d="M16.31,70.467V56.289l1.6-1.599h4.583l1.706,1.599"/>
<path fill="none" stroke="#7F7F7F" stroke-width="2" d="M31.981,70.467V56.289l1.599-1.599h4.584l1.599,1.599"/>
<path fill="none" stroke="#7F7F7F" stroke-width="2" d="M47.651,70.467V56.289l1.6-1.599h4.69"/>
<path fill="none" stroke="#7F7F7F" stroke-width="2" d="M5.33,54.691h1.492"/>
<path fill="none" stroke="#000000" stroke-width="2" d="M5.33,70.467V54.691"/>
<path fill="#99FFFF" stroke="#7F7F7F" stroke-width="2" d="M56.285,40.619H32.833l-0.853-0.854h-4.69l-0.746,0.854H2.985v12.472
	h53.301V40.619z"/>
<circle fill="#E5E5E5" stroke="#000000" stroke-width="2" cx="11.619" cy="46.908" r="3.092"/>
<circle fill="#E5E5E5" stroke="#000000" stroke-width="2" cx="47.757" cy="46.908" r="3.092"/>
<circle fill="#FFFF00" stroke="#000000" stroke-width="2" cx="29.635" cy="50" r="2.345"/>
<circle stroke="#000000" stroke-width="2" cx="47.757" cy="46.908" r="2.346"/>
<circle stroke="#000000" stroke-width="2" cx="11.619" cy="46.908" r="2.346"/>
<circle fill="#B2B2B2" stroke="#000000" stroke-width="2" cx="29.741" cy="43.711" r="3.091"/>
<path stroke="#000000" stroke-width="2" d="M28.782,51.599L28.036,50l0.746-1.6h1.599l0.854,1.6l-0.854,1.599H28.782z"/>
<path fill="#00FFFF" d="M4.477,53.198h50.21v1.493H4.477V53.198z"/>
<path fill="none" stroke="#000000" stroke-width="2" d="M2.985,53.198h53.301"/>
<path fill="none" stroke="#000000" stroke-width="2" d="M8.421,73.559h42.428"/>
</svg>
