<?xml version="1.0" encoding="utf-8"?>
<!-- Generator: Adobe Illustrator 14.0.0, SVG Export Plug-In . SVG Version: 6.00 Build 43363)  -->
<!DOCTYPE svg PUBLIC "-//W3C//DTD SVG 1.1//EN" "http://www.w3.org/Graphics/SVG/1.1/DTD/svg11.dtd">
<svg version="1.1" id="图层_1" xmlns="http://www.w3.org/2000/svg" xmlns:xlink="http://www.w3.org/1999/xlink" x="0px" y="0px"
	 width="56.397px" height="106.502px" viewBox="0 0 56.397 106.502" enable-background="new 0 0 56.397 106.502"
	 xml:space="preserve">
<path fill="#7F7F7F" d="M29.638,103.518l1.492-2.239V88.805h1.387V22.388h-8.636v66.417h1.386v12.474l1.386,2.239H29.638z"/>
<path fill="#999999" d="M29.319,103.518l0.959-2.239V88.592h1.173V22.388h-6.609v66.204h1.065v12.687l1.173,2.239H29.319z"/>
<path fill="#B2B2B2" d="M28.892,103.518l0.746-2.239V88.592h0.853V22.388h-4.584v66.204h0.746v12.687l0.747,2.239H28.892z"/>
<path fill="#CCCCCC" d="M28.679,103.518l0.426-2.239V88.592h0.533V22.388h-2.985v66.204h0.64v12.687l0.32,2.239H28.679z"/>
<path fill="#E5E5E5" d="M28.252,103.518l0.213-2.239V88.805h0.214V22.388h-1.066v66.417h0.213v12.474l0.214,2.239H28.252z"/>
<path fill="none" stroke="#000000" stroke-width="2" d="M29.638,103.518l1.492-2.239V88.805h1.387V22.388h-8.636v66.417h1.386
	v12.474l1.386,2.239H29.638"/>
<path fill="none" stroke="#7F7F7F" stroke-width="2" d="M26.013,88.805h4.265"/>
<path fill="none" stroke="#7F7F7F" stroke-width="2" d="M26.013,101.279h4.265"/>
<path fill="#4C4C4C" stroke="#000000" stroke-width="2" d="M37.953,72.281l-6.503,1.6h-6.609l-6.397-1.6l-5.649-3.411l-4.798-4.584
	l-3.305-5.863l-1.813-6.396v-6.61l1.813-6.503l3.305-5.65l4.798-4.797l5.649-3.198l6.397-1.813h6.609l6.503,1.813l5.757,3.198
	l4.691,4.797l3.411,5.65l1.599,6.503v6.61l-1.599,6.396l-3.411,5.863l-4.691,4.584L37.953,72.281z"/>
<path fill="#666666" d="M23.029,21.855l0.426-9.488l0.64-0.533l0.32-8.315l0.64-0.64h6.29l0.533,0.64l0.64,8.315l0.319,0.533
	l0.64,9.488l-0.64,0.533h-9.382L23.029,21.855z"/>
<path fill="#7F7F7F" d="M24.094,21.428l0.32-9.274l0.427-0.64l0.426-8.209l0.427-0.427h5.011l0.426,0.427l0.32,8.209l0.64,0.64
	l0.427,9.274l-0.427,0.427h-7.676L24.094,21.428z"/>
<path fill="none" stroke="#000000" stroke-width="2" d="M23.029,21.855l0.426-9.488l0.64-0.533l0.32-8.315l0.64-0.64h6.29
	l0.533,0.64l0.64,8.315l0.319,0.533l0.64,9.488l-0.64,0.533h-9.382L23.029,21.855"/>
<ellipse fill="#999999" cx="28.146" cy="12.366" rx="0.533" ry="9.488"/>
<path fill="#333333" d="M44.35,58.208H12.155l-1.173-1.386l-0.854-2.771l-0.319-3.412v-3.838l0.319-3.411l0.854-2.665l0.959-1.386
	H44.35l1.066,1.386l0.746,2.665l0.427,3.411v3.838l-0.427,3.412l-0.746,2.771L44.35,58.208z"/>
<path fill="#CCCCCC" d="M42.964,56.61H13.326l-0.746-1.173l-0.746-2.239l-0.427-2.878v-3.198l0.427-2.771l0.746-2.346l0.746-1.279
	h29.638l0.96,1.279l0.64,2.132l0.319,2.985v3.198l-0.319,2.878l-0.64,2.239L42.964,56.61z"/>
<path fill="#9999CC" stroke="#000000" stroke-width="2" d="M13.326,32.516h3.945v2.559h-3.945V32.516z"/>
<path fill="#9999CC" stroke="#000000" stroke-width="2" d="M23.029,32.516h3.624v2.559h-3.624V32.516z"/>
<path fill="#9999CC" stroke="#000000" stroke-width="2" d="M36.141,68.656l-1.599-1.386v-2.239l1.599-1.599h2.133l1.492,1.599v2.239
	l-1.492,1.386H36.141z"/>
<path fill="#333333" stroke="#000000" stroke-width="2" d="M18.231,68.656l-1.599-1.386v-2.239l1.599-1.599h2.239l1.386,1.599v2.239
	l-1.386,1.386H18.231z"/>
<path fill="#666666" stroke="#000000" stroke-width="2" d="M35.928,37.1h-1.813l-1.813-0.533l-1.173-1.492l-0.853-1.813v-1.813
	l0.853-1.813l1.173-1.172l1.813-0.854h1.813l1.813,0.854l1.386,1.172l0.64,1.813v1.813l-0.64,1.813l-1.386,1.492L35.928,37.1z"/>
<path fill="#4C4C4C" d="M31.344,31.876h7.355v0.959h-7.355V31.876z"/>
</svg>
