<?xml version="1.0" encoding="utf-8"?>
<!-- Generator: Adobe Illustrator 14.0.0, SVG Export Plug-In . SVG Version: 6.00 Build 43363)  -->
<!DOCTYPE svg PUBLIC "-//W3C//DTD SVG 1.1//EN" "http://www.w3.org/Graphics/SVG/1.1/DTD/svg11.dtd">
<svg version="1.1" id="图层_1" xmlns="http://www.w3.org/2000/svg" xmlns:xlink="http://www.w3.org/1999/xlink" x="0px" y="0px"
	 width="106.503px" height="106.502px" viewBox="0 0 106.503 106.502" enable-background="new 0 0 106.503 106.502"
	 xml:space="preserve">
<path fill="#666666" stroke="#000000" stroke-width="2" d="M6.296,2.989h97.218v97.218l-3.309,3.308L2.988,6.403L6.296,2.989z"/>
<path fill="#999999" stroke="#000000" stroke-width="2" d="M2.988,6.296h97.218v97.218H2.988V6.296z"/>
<path fill="#F0F0F0" stroke="#000000" stroke-width="2" d="M12.806,8.644h77.796l7.257,7.471v77.582l-7.257,7.257H12.806
	l-7.256-7.257V16.115L12.806,8.644z"/>
<path fill="#CCCCCC" stroke="#000000" stroke-width="2" d="M14.3,10.565h74.809l6.829,6.83v74.808l-6.829,6.937H14.3l-6.937-6.937
	V17.395L14.3,10.565z"/>
<path fill="#F0F0F0" stroke="#000000" stroke-width="2" d="M15.047,18.355h73.101v36.924H15.047V18.355z"/>
<path fill="#F0F0F0" stroke="#000000" stroke-width="2" d="M25.292,92.202h52.611V61.575H25.292V92.202z"/>
<path fill="none" stroke="#000000" stroke-width="2" d="M40.766,66.271h8.11l3.948,1.707l1.494,3.735v10.991l-1.494,3.949
	l-3.948,1.494h-8.11l-3.735-1.494l-1.814-3.949V71.713l1.814-3.735L40.766,66.271"/>
<path fill="none" stroke="#000000" stroke-width="2" d="M58.48,69.472l1.174-2.134l2.134-1.067h5.123l2.134,1.067l1.067,2.134
	l-11.418,9.925l11.738,0.213"/>
<path fill="#666666" stroke="#000000" stroke-width="2" d="M54.532,44.073h14.513l-7.257,6.51L54.532,44.073z"/>
<path fill="#666666" stroke="#000000" stroke-width="2" d="M85.372,50.583H70.859l7.257-6.51L85.372,50.583z"/>
<path fill="#666666" stroke="#000000" stroke-width="2" d="M19.422,48.236v-1.814h5.442v-5.442h1.814v5.442h5.549v1.814h-5.549
	v5.442h-1.814v-5.442H19.422z"/>
<path fill="#666666" stroke="#000000" stroke-width="2" d="M36.07,48.449v-2.028h14.3v2.028H36.07z"/>
<path fill="#333333" stroke="#000000" stroke-width="2" d="M29.347,20.916h45.461v17.395H29.347V20.916z"/>
<path fill="#7F7F7F" stroke="#000000" stroke-width="2" d="M6.723,7.576l1.281,0.641l0.427,1.28l-0.427,1.388l-1.281,0.427
	l-1.387-0.427L4.695,9.497l0.641-1.28L6.723,7.576z"/>
<path fill="#7F7F7F" stroke="#000000" stroke-width="2" d="M6.723,98.285l1.281,0.641l0.427,1.28l-0.427,1.388l-1.281,0.427
	l-1.387-0.427l-0.641-1.388l0.641-1.28L6.723,98.285z"/>
<path fill="#7F7F7F" stroke="#000000" stroke-width="2" d="M97.005,7.576l1.28,0.641l0.427,1.28l-0.427,1.388l-1.28,0.427
	l-1.388-0.427l-0.64-1.388l0.64-1.28L97.005,7.576z"/>
<path fill="#7F7F7F" stroke="#000000" stroke-width="2" d="M97.005,98.285l1.28,0.641l0.427,1.28l-0.427,1.388l-1.28,0.427
	l-1.388-0.427l-0.64-1.388l0.64-1.28L97.005,98.285z"/>
</svg>
