<?xml version="1.0" encoding="utf-8"?>
<!-- Generator: Adobe Illustrator 14.0.0, SVG Export Plug-In . SVG Version: 6.00 Build 43363)  -->
<!DOCTYPE svg PUBLIC "-//W3C//DTD SVG 1.1//EN" "http://www.w3.org/Graphics/SVG/1.1/DTD/svg11.dtd">
<svg version="1.1" id="图层_1" xmlns="http://www.w3.org/2000/svg" xmlns:xlink="http://www.w3.org/1999/xlink" x="0px" y="0px"
	 width="44.208px" height="106.502px" viewBox="0 0 44.208 106.502" enable-background="new 0 0 44.208 106.502"
	 xml:space="preserve">
<circle fill="#FFCC00" stroke="#000000" stroke-width="2" cx="22.104" cy="20.296" r="17.281"/>
<path fill="#333333" stroke="#000000" stroke-width="2" d="M4.823,13.464h34.563v90.023H4.823V13.464z"/>
<path fill="#666666" d="M28.132,15.072h6.229v86.809h-6.229V15.072z"/>
<path stroke="#000000" stroke-width="2" d="M3.014,97.459h38.18v-2.612H3.014V97.459z"/>
<path stroke="#000000" stroke-width="2" d="M3.014,87.412h38.18V84.8H3.014V87.412z"/>
<path stroke="#000000" stroke-width="2" d="M3.014,77.566h38.18v-2.612H3.014V77.566z"/>
<path stroke="#000000" stroke-width="2" d="M3.014,67.519h38.18v-2.612H3.014V67.519z"/>
<path stroke="#000000" stroke-width="2" d="M3.014,57.471h38.18v-2.612H3.014V57.471z"/>
<path stroke="#000000" stroke-width="2" d="M3.014,47.625h38.18v-2.612H3.014V47.625z"/>
<path stroke="#000000" stroke-width="2" d="M3.014,37.577h38.18v-2.612H3.014V37.577z"/>
<path stroke="#000000" stroke-width="2" d="M3.014,27.531h38.18v-2.612H3.014V27.531z"/>
<path stroke="#000000" stroke-width="2" d="M3.014,92.235h38.18v-2.612H3.014V92.235z"/>
<path stroke="#000000" stroke-width="2" d="M3.014,82.188h38.18v-2.612H3.014V82.188z"/>
<path stroke="#000000" stroke-width="2" d="M3.014,72.341h38.18v-2.612H3.014V72.341z"/>
<path stroke="#000000" stroke-width="2" d="M3.014,62.294h38.18v-2.612H3.014V62.294z"/>
<path stroke="#000000" stroke-width="2" d="M3.014,52.246h38.18v-2.612H3.014V52.246z"/>
<path stroke="#000000" stroke-width="2" d="M3.014,42.401h38.18v-2.612H3.014V42.401z"/>
<path stroke="#000000" stroke-width="2" d="M3.014,32.353h38.18V29.74H3.014V32.353z"/>
<path stroke="#000000" stroke-width="2" d="M3.014,22.306h38.18v-2.612H3.014V22.306z"/>
<path fill="#666666" stroke="#000000" stroke-width="2" d="M8.037,94.847h4.622v2.612H8.037V94.847z"/>
<path fill="#666666" stroke="#000000" stroke-width="2" d="M8.037,84.8h4.622v2.612H8.037V84.8z"/>
<path fill="#666666" stroke="#000000" stroke-width="2" d="M8.037,74.953h4.622v2.411H8.037V74.953z"/>
<path fill="#666666" stroke="#000000" stroke-width="2" d="M8.037,64.906h4.622v2.612H8.037V64.906z"/>
<path fill="#666666" stroke="#000000" stroke-width="2" d="M8.037,54.859h4.622v2.612H8.037V54.859z"/>
<path fill="#666666" stroke="#000000" stroke-width="2" d="M8.037,45.013h4.622v2.411H8.037V45.013z"/>
<path fill="#666666" stroke="#000000" stroke-width="2" d="M8.037,34.965h4.622v2.612H8.037V34.965z"/>
<path fill="#666666" stroke="#000000" stroke-width="2" d="M8.037,24.918h4.622v2.612H8.037V24.918z"/>
<path fill="#666666" stroke="#000000" stroke-width="2" d="M8.037,89.622h4.622v2.612H8.037V89.622z"/>
<path fill="#666666" stroke="#000000" stroke-width="2" d="M8.037,79.575h4.622v2.612H8.037V79.575z"/>
<path fill="#666666" stroke="#000000" stroke-width="2" d="M8.037,69.729h4.622v2.411H8.037V69.729z"/>
<path fill="#666666" stroke="#000000" stroke-width="2" d="M8.037,59.682h4.622v2.612H8.037V59.682z"/>
<path fill="#666666" stroke="#000000" stroke-width="2" d="M8.037,49.634h4.622v2.612H8.037V49.634z"/>
<path fill="#666666" stroke="#000000" stroke-width="2" d="M8.037,39.788h4.622v2.411H8.037V39.788z"/>
<path fill="#666666" stroke="#000000" stroke-width="2" d="M8.037,29.74h4.622v2.612H8.037V29.74z"/>
<path fill="#666666" stroke="#000000" stroke-width="2" d="M8.037,19.694h4.622v2.612H8.037V19.694z"/>
<path fill="#B2B2B2" stroke="#000000" stroke-width="2" d="M31.749,94.847h6.028v2.612h-6.028V94.847z"/>
<path fill="#B2B2B2" stroke="#000000" stroke-width="2" d="M31.749,84.8h6.028v2.612h-6.028V84.8z"/>
<path fill="#B2B2B2" stroke="#000000" stroke-width="2" d="M31.749,74.953h6.028v2.411h-6.028V74.953z"/>
<path fill="#B2B2B2" stroke="#000000" stroke-width="2" d="M31.749,64.906h6.028v2.612h-6.028V64.906z"/>
<path fill="#B2B2B2" stroke="#000000" stroke-width="2" d="M31.749,54.859h6.028v2.612h-6.028V54.859z"/>
<path fill="#B2B2B2" stroke="#000000" stroke-width="2" d="M31.749,45.013h6.028v2.411h-6.028V45.013z"/>
<path fill="#B2B2B2" stroke="#000000" stroke-width="2" d="M31.749,34.965h6.028v2.612h-6.028V34.965z"/>
<path fill="#B2B2B2" stroke="#000000" stroke-width="2" d="M31.749,24.918h6.028v2.612h-6.028V24.918z"/>
<path fill="#B2B2B2" stroke="#000000" stroke-width="2" d="M31.749,89.622h6.028v2.612h-6.028V89.622z"/>
<path fill="#B2B2B2" stroke="#000000" stroke-width="2" d="M31.749,79.575h6.028v2.612h-6.028V79.575z"/>
<path fill="#B2B2B2" stroke="#000000" stroke-width="2" d="M31.749,69.729h6.028v2.411h-6.028V69.729z"/>
<path fill="#B2B2B2" stroke="#000000" stroke-width="2" d="M31.749,59.682h6.028v2.612h-6.028V59.682z"/>
<path fill="#B2B2B2" stroke="#000000" stroke-width="2" d="M31.749,49.634h6.028v2.612h-6.028V49.634z"/>
<path fill="#B2B2B2" stroke="#000000" stroke-width="2" d="M31.749,39.788h6.028v2.411h-6.028V39.788z"/>
<path fill="#B2B2B2" stroke="#000000" stroke-width="2" d="M31.749,29.74h6.028v2.612h-6.028V29.74z"/>
<path fill="#B2B2B2" stroke="#000000" stroke-width="2" d="M31.749,19.694h6.028v2.612h-6.028V19.694z"/>
<path stroke="#000000" stroke-width="2" d="M7.435,11.656h29.539v0.804H7.435V11.656z"/>
</svg>
