<?xml version="1.0" encoding="utf-8"?>
<!-- Generator: Adobe Illustrator 14.0.0, SVG Export Plug-In . SVG Version: 6.00 Build 43363)  -->
<!DOCTYPE svg PUBLIC "-//W3C//DTD SVG 1.1//EN" "http://www.w3.org/Graphics/SVG/1.1/DTD/svg11.dtd">
<svg version="1.1" id="图层_1" xmlns="http://www.w3.org/2000/svg" xmlns:xlink="http://www.w3.org/1999/xlink" x="0px" y="0px"
	 width="144.749px" height="100.411px" viewBox="0 0 144.749 100.411" enable-background="new 0 0 144.749 100.411"
	 xml:space="preserve">
<path fill="#E5E5FF" stroke="#000000" stroke-width="2" d="M4.057,82.735l3.478,3.188h108.96l3.622-3.188v-75.2l-3.622-3.478H7.534
	L4.057,7.535V82.735z"/>
<path fill="#6666FF" stroke="#000000" stroke-width="2" d="M14.199,68.969l3.478,3.332h71.867v6.811h37.383v-3.188H92.732v-3.623
	h13.766l3.477-3.332V38.107H14.345L14.199,68.969z"/>
<path fill="#FFFF00" stroke="#000000" stroke-width="2" d="M14.199,38.107h95.774V21.154l-3.477-3.478H92.732v-3.332h34.195v-3.478
	H89.544v6.81H17.677l-3.478,3.478V38.107z"/>
<path fill="#FFFFFF" stroke="#000000" stroke-width="2" d="M123.594,82.735h16.953v13.619h-16.953V82.735z"/>
<path fill="#FFFFFF" stroke="#000000" stroke-width="2" d="M126.927,82.735h10.433V4.057h-10.433V82.735z"/>
<path fill="#FF0000" d="M130.405,79.112V41.729h3.332v37.382H130.405z"/>
<path fill="none" stroke="#000000" stroke-width="2" d="M130.405,79.112h3.332"/>
<path fill="none" stroke="#000000" stroke-width="2" d="M130.405,75.924h3.332"/>
<path fill="none" stroke="#000000" stroke-width="2" d="M130.405,72.301h3.332"/>
<path fill="none" stroke="#000000" stroke-width="2" d="M130.405,68.969h3.332"/>
<path fill="none" stroke="#000000" stroke-width="2" d="M130.405,65.782h3.332"/>
<path fill="none" stroke="#000000" stroke-width="2" d="M130.405,62.159h3.332"/>
<path fill="none" stroke="#000000" stroke-width="2" d="M130.405,58.971h3.332"/>
<path fill="none" stroke="#000000" stroke-width="2" d="M130.405,55.349h3.332"/>
<path fill="none" stroke="#000000" stroke-width="2" d="M130.405,52.016h3.332"/>
<path fill="none" stroke="#000000" stroke-width="2" d="M130.405,48.539h3.332"/>
<path fill="none" stroke="#000000" stroke-width="2" d="M130.405,45.207h3.332"/>
<path fill="none" stroke="#000000" stroke-width="2" d="M130.405,41.729h3.332"/>
<path fill="none" stroke="#000000" stroke-width="2" d="M130.405,38.397h3.332"/>
<path fill="none" stroke="#000000" stroke-width="2" d="M130.405,34.919h3.332"/>
<path fill="none" stroke="#000000" stroke-width="2" d="M130.405,31.587h3.332"/>
<path fill="none" stroke="#000000" stroke-width="2" d="M130.405,28.109h3.332"/>
<path fill="none" stroke="#000000" stroke-width="2" d="M130.405,24.777h3.332"/>
<path fill="none" stroke="#000000" stroke-width="2" d="M130.405,21.154h3.332"/>
<path fill="none" stroke="#000000" stroke-width="2" d="M130.405,17.967h3.332"/>
<path fill="none" stroke="#000000" stroke-width="2" d="M130.405,14.345h3.332"/>
<path fill="none" stroke="#000000" stroke-width="2" d="M130.405,11.157h3.332"/>
<path fill="none" stroke="#000000" stroke-width="2" d="M130.405,7.535h3.332"/>
</svg>
