<?xml version="1.0" encoding="utf-8"?>
<!-- Generator: Adobe Illustrator 14.0.0, SVG Export Plug-In . SVG Version: 6.00 Build 43363)  -->
<!DOCTYPE svg PUBLIC "-//W3C//DTD SVG 1.1//EN" "http://www.w3.org/Graphics/SVG/1.1/DTD/svg11.dtd">
<svg version="1.1" id="图层_1" xmlns="http://www.w3.org/2000/svg" xmlns:xlink="http://www.w3.org/1999/xlink" x="0px" y="0px"
	 width="80.597px" height="106.502px" viewBox="0 0 80.597 106.502" enable-background="new 0 0 80.597 106.502"
	 xml:space="preserve">
<path fill="#006633" stroke="#000000" stroke-width="2" d="M6.717,17.377h67.057v76.972H6.717V17.377z"/>
<path fill="#7F7F7F" stroke="#000000" stroke-width="2" d="M21.961,17.377H6.717V5.97h15.244V17.377z"/>
<path fill="#7F7F7F" stroke="#000000" stroke-width="2" d="M7.463,5.224h13.646V5.97H7.463V5.224z"/>
<path fill="#7F7F7F" stroke="#000000" stroke-width="2" d="M8.209,5.224h12.26V2.878H8.209V5.224z"/>
<path fill="#7F7F7F" stroke="#000000" stroke-width="2" d="M21.961,94.349v6.077H6.823v-3.838l-3.945-1.493v-0.746H21.961z"/>
<path fill="none" stroke="#000000" stroke-width="2" d="M8.209,6.716v85.395"/>
<path fill="none" stroke="#000000" stroke-width="2" d="M9.701,6.716v85.395"/>
<path fill="none" stroke="#000000" stroke-width="2" d="M20.363,6.716v85.395"/>
<path d="M21.855,92.857h0.64V18.869h-1.386v73.987H21.855z"/>
<path fill="#7F7F7F" stroke="#000000" stroke-width="2" d="M58.529,17.377h15.245V5.97H58.529V17.377z"/>
<path fill="#7F7F7F" stroke="#000000" stroke-width="2" d="M73.028,5.224H59.381V5.97h13.646V5.224z"/>
<path fill="#7F7F7F" stroke="#000000" stroke-width="2" d="M72.281,5.224H60.021V2.878h12.261V5.224z"/>
<path fill="#7F7F7F" stroke="#000000" stroke-width="2" d="M58.529,94.349v6.077h15.245v-3.838l3.838-1.493v-0.746H58.529z"/>
<path fill="none" stroke="#000000" stroke-width="2" d="M72.281,6.716v85.395"/>
<path fill="none" stroke="#000000" stroke-width="2" d="M70.788,6.716v85.395"/>
<path fill="none" stroke="#000000" stroke-width="2" d="M60.127,6.716v85.395"/>
<path d="M58.635,92.857h0.64V18.869h-1.386v73.987H58.635z"/>
<path fill="#7F7F7F" stroke="#000000" stroke-width="2" d="M21.961,94.349h36.567v6.077H21.961V94.349z"/>
<path fill="#7F7F7F" stroke="#000000" stroke-width="2" d="M21.961,5.97L24.2,3.732h31.982l2.346,2.238v11.407H21.961V5.97z"/>
<path fill="none" stroke="#000000" stroke-width="2" d="M23.454,17.377h15.991V5.97H23.454V17.377"/>
<path fill="none" stroke="#000000" stroke-width="2" d="M41.044,17.377h15.992V5.97H41.044V17.377"/>
<path fill="#FFFF00" stroke="#000000" stroke-width="2" d="M25.053,17.377h7.569v77.718h-7.569V17.377z"/>
<circle stroke="#000000" stroke-width="2" cx="30.278" cy="28.038" r="0.746"/>
<circle stroke="#000000" stroke-width="2" cx="30.278" cy="46.375" r="0.746"/>
<circle stroke="#000000" stroke-width="2" cx="30.278" cy="64.605" r="0.747"/>
<circle stroke="#000000" stroke-width="2" cx="30.278" cy="82.942" r="0.746"/>
<path stroke="#000000" stroke-width="2" d="M37.206,17.377h18.977v77.718H37.206V17.377z"/>
<path fill="none" stroke="#000000" stroke-width="2" d="M34.862,17.377v76.226"/>
<path fill="#FFFFFF" stroke="#000000" stroke-width="2" d="M51.599,92.857V80.703H40.192v9.062l3.838,3.092H51.599z"/>
<path stroke="#000000" stroke-width="2" d="M41.791,82.196h8.315v3.731h-8.315V82.196z"/>
<path fill="#FF0000" stroke="#000000" stroke-width="2" d="M51.599,74.52V62.366H40.192v9.168l3.838,2.985H51.599z"/>
<path stroke="#000000" stroke-width="2" d="M41.791,63.859h8.315v3.838h-8.315V63.859z"/>
<path fill="#E5E5E5" stroke="#000000" stroke-width="2" d="M51.599,56.289V44.03H40.192v9.168l3.838,3.092H51.599z"/>
<path stroke="#000000" stroke-width="2" d="M41.791,45.629h8.315v3.73h-8.315V45.629z"/>
<path fill="#FFFF00" stroke="#000000" stroke-width="2" d="M51.599,37.952V25.799H40.192v9.063l3.838,3.091H51.599z"/>
<path stroke="#000000" stroke-width="2" d="M41.791,27.292h8.315v3.838h-8.315V27.292z"/>
<path fill="#006633" d="M39.446,18.869h14.499v3.092H39.446V18.869z"/>
<path stroke="#000000" stroke-width="2" d="M44.03,100.426h15.245v2.345H44.03V100.426z"/>
<path fill="#FFFF00" stroke="#000000" stroke-width="2" d="M49.361,100.426h4.584v3.092h-4.584V100.426z"/>
<path stroke="#000000" stroke-width="2" d="M25.053,100.426h16.738v0.853H25.053V100.426z"/>
</svg>
