<?xml version="1.0" encoding="utf-8"?>
<!-- Generator: Adobe Illustrator 14.0.0, SVG Export Plug-In . SVG Version: 6.00 Build 43363)  -->
<!DOCTYPE svg PUBLIC "-//W3C//DTD SVG 1.1//EN" "http://www.w3.org/Graphics/SVG/1.1/DTD/svg11.dtd">
<svg version="1.1" id="图层_1" xmlns="http://www.w3.org/2000/svg" xmlns:xlink="http://www.w3.org/1999/xlink" x="0px" y="0px"
	 width="136.599px" height="106.502px" viewBox="0 0 136.599 106.502" enable-background="new 0 0 136.599 106.502"
	 xml:space="preserve">
<path stroke="#000000" stroke-width="2" d="M3.859,6.175h127.338v84.12H3.859V6.175z"/>
<path stroke="#7F7F7F" stroke-width="2" d="M132.74,90.295H3.859V4.631h55.309v43.476l73.572,23.924V90.295z"/>
<path stroke="#7F7F7F" stroke-width="2" d="M86.693,90.295v1.028v1.029v1.029v1.028v1.287v1.028v1.029v1.029l0.771,0.771
	l1.544,0.515l2.572,0.257l2.829,0.258l2.573-0.258l2.572-0.257l1.543-0.515l0.772-0.771v-8.489H86.693z"/>
<path fill="#191919" stroke="#7F7F7F" stroke-width="2" d="M22.38,102.643V90.295h6.175V4.631H22.38V3.86h30.613v0.771h-6.175
	v85.664h6.175v12.348H22.38z"/>
<path fill="#009933" stroke="#000000" stroke-width="2" d="M60.71,15.179h51.964v9.261H60.71V15.179z"/>
<path fill="#006633" d="M116.276,15.95l-3.602-3.602H60.71v7.203h51.964l-3.602-3.602H116.276v-3.602h-3.602L116.276,15.95z"/>
<path fill="#006633" d="M112.674,24.44h3.602V15.95h-7.203v8.489H112.674z"/>
<path fill="#FFFF00" stroke="#000000" stroke-width="2" d="M28.555,73.573h18.264v12.091H28.555V73.573z"/>
<circle stroke="#7F7F7F" stroke-width="2" cx="105.729" cy="55.824" r="3.859"/>
<circle stroke="#7F7F7F" stroke-width="2" cx="105.729" cy="38.845" r="3.859"/>
<circle stroke="#7F7F7F" stroke-width="2" cx="77.432" cy="47.334" r="3.087"/>
<circle stroke="#7F7F7F" stroke-width="2" cx="71.257" cy="41.161" r="2.83"/>
<circle stroke="#7F7F7F" stroke-width="2" cx="77.432" cy="35.244" r="3.087"/>
<circle stroke="#7F7F7F" stroke-width="2" cx="83.606" cy="41.16" r="3.087"/>
<path fill="#191919" d="M14.663,84.893H4.115L3.859,74.346h10.805l2.058,0.514l1.801,1.029l1.029,1.544l0.515,2.058l-0.515,2.058
	l-1.029,1.801l-1.801,1.029L14.663,84.893z"/>
<path fill="#191919" d="M14.663,25.211H4.115L3.859,14.406h10.805l2.058,0.515l1.801,1.029l1.029,1.801l0.515,2.058l-0.515,2.059
	l-1.029,1.801l-1.801,1.028L14.663,25.211z"/>
<path fill="#191919" d="M120.392,14.406h10.547l0.258,10.805h-10.805l-2.058-0.515l-1.801-1.028l-1.029-1.801l-0.515-2.059
	l0.515-2.058l1.029-1.801l1.801-1.029L120.392,14.406z"/>
<path fill="#191919" d="M121.936,74.346h10.547l0.257,10.547h-10.804l-2.059-0.515l-1.801-1.029l-1.029-1.801l-0.514-2.058
	l0.514-2.058l1.029-1.544l1.801-1.029L121.936,74.346z"/>
<circle fill="#4C4C4C" stroke="#000000" stroke-width="2" cx="14.663" cy="79.49" r="4.631"/>
<circle fill="#4C4C4C" stroke="#000000" stroke-width="2" cx="14.663" cy="19.809" r="4.63"/>
<circle fill="#4C4C4C" stroke="#000000" stroke-width="2" cx="121.678" cy="19.809" r="4.373"/>
<circle fill="#4C4C4C" stroke="#000000" stroke-width="2" cx="121.678" cy="79.49" r="4.373"/>
<circle fill="#FFFFFF" stroke="#000000" stroke-width="2" cx="14.663" cy="79.49" r="3.087"/>
<circle fill="#FFFFFF" stroke="#000000" stroke-width="2" cx="14.663" cy="19.809" r="3.087"/>
<circle fill="#FFFFFF" stroke="#000000" stroke-width="2" cx="121.936" cy="19.809" r="3.087"/>
<circle fill="#FFFFFF" stroke="#000000" stroke-width="2" cx="121.936" cy="79.49" r="3.087"/>
<path fill="#FFFFFF" stroke="#000000" stroke-width="2" d="M104.957,57.367h2.314v-4.631h-1.543v3.087h-0.771v-1.543l-2.059,2.314
	l2.059,2.315V57.367z"/>
<path fill="#FFFFFF" stroke="#000000" stroke-width="2" d="M107.272,40.389v-2.83h1.544v0.515h-1.029v1.544h1.029v0.771H107.272z"/>
<ellipse fill="#FFFFFF" stroke="#000000" stroke-width="2" cx="105.729" cy="38.845" rx="0.771" ry="1.287"/>
<ellipse fill="#FFFFFF" stroke="#000000" stroke-width="2" cx="103.671" cy="38.845" rx="0.771" ry="1.287"/>
<path fill="#FFFFFF" stroke="#000000" stroke-width="2" d="M82.833,39.103l2.315,2.315l-2.315,2.058V39.103z"/>
<path fill="#FFFFFF" stroke="#000000" stroke-width="2" d="M75.116,36.016l2.315-2.315l2.314,2.315H75.116z"/>
<path fill="#FFFFFF" stroke="#000000" stroke-width="2" d="M72.03,43.476l-2.315-2.058l2.315-2.315V43.476z"/>
<path fill="#FFFFFF" stroke="#000000" stroke-width="2" d="M79.746,46.563l-2.314,2.315l-2.315-2.315H79.746z"/>
</svg>
