<?xml version="1.0" encoding="utf-8"?>
<!-- Generator: Adobe Illustrator 14.0.0, SVG Export Plug-In . SVG Version: 6.00 Build 43363)  -->
<!DOCTYPE svg PUBLIC "-//W3C//DTD SVG 1.1//EN" "http://www.w3.org/Graphics/SVG/1.1/DTD/svg11.dtd">
<svg version="1.1" id="图层_1" xmlns="http://www.w3.org/2000/svg" xmlns:xlink="http://www.w3.org/1999/xlink" x="0px" y="0px"
	 width="87.632px" height="106.502px" viewBox="0 0 87.632 106.502" enable-background="new 0 0 87.632 106.502"
	 xml:space="preserve">
<path fill="#E5E5E5" stroke="#000000" stroke-width="2" d="M2.985,6.077l3.092-3.092h69.082l3.092,3.092l0.106,15.671h6.289v9.488
	h-6.289v7.782h6.289v9.382l-6.289,0.106v9.382h6.289v9.381h-6.289v7.89h6.289v9.487h-6.289l-0.106,15.672l-3.092,3.092H6.077
	l-3.092-3.198V6.077z"/>
<path fill="#E5E5E5" d="M4.478,7.677l3.198-3.198H73.56l3.197,3.198v91.042l-3.197,3.198H7.676l-3.198-3.198V7.677z"/>
<path d="M7.676,3.839L7.143,4.052L4.051,7.144l0.959,1.065l3.198-3.198L7.676,5.225V3.839h-0.32L7.143,4.052L7.676,3.839z"/>
<path d="M74.093,4.052L73.56,3.839H7.676v1.386H73.56l-0.427-0.214L74.093,4.052l-0.214-0.213H73.56L74.093,4.052z"/>
<path d="M77.503,7.677L77.29,7.144l-3.197-3.092l-0.96,0.959l3.091,3.198l-0.213-0.532H77.503v-0.32L77.29,7.144L77.503,7.677z"/>
<path d="M77.29,99.252l0.213-0.533V7.677h-1.492v91.042l0.213-0.533L77.29,99.252l0.213-0.213v-0.32L77.29,99.252z"/>
<path d="M73.56,102.557l0.533-0.213l3.197-3.092l-1.066-1.066l-3.091,3.198l0.427-0.213V102.557h0.319l0.214-0.213L73.56,102.557z"
	/>
<path d="M7.143,102.344l0.533,0.213H73.56v-1.386H7.676l0.533,0.213L7.143,102.344l0.213,0.213h0.32L7.143,102.344z"/>
<path d="M3.838,98.719l0.213,0.533l3.091,3.092l1.066-0.96l-3.198-3.198l0.213,0.533H3.838v0.32l0.213,0.213L3.838,98.719z"/>
<path d="M4.051,7.144L3.838,7.677v91.042h1.386V7.677L5.011,8.209L4.051,7.144L3.838,7.357v0.32L4.051,7.144z"/>
<path fill="#7F7F7F" stroke="#000000" stroke-width="2" d="M79.849,54.051h4.797v3.092h-4.797V54.051z"/>
<path fill="#7F7F7F" stroke="#000000" stroke-width="2" d="M81.448,57.143h1.599v0.746h-1.599V57.143z"/>
<path fill="#7F7F7F" stroke="#000000" stroke-width="2" d="M79.849,71.214h4.797v3.092h-4.797V71.214z"/>
<path fill="#7F7F7F" stroke="#000000" stroke-width="2" d="M81.448,74.306h1.599v0.854h-1.599V74.306z"/>
<path fill="#7F7F7F" stroke="#000000" stroke-width="2" d="M84.646,71.214h-4.797v-3.091h4.797V71.214z"/>
<path fill="#7F7F7F" stroke="#000000" stroke-width="2" d="M82.94,68.123h-1.492v-0.747h1.492V68.123z"/>
<path fill="#7F7F7F" stroke="#000000" stroke-width="2" d="M84.646,52.345h-4.797v-3.092h4.797V52.345z"/>
<path fill="#7F7F7F" stroke="#000000" stroke-width="2" d="M82.94,49.253h-1.492v-0.746h1.492V49.253z"/>
<path fill="#7F7F7F" stroke="#000000" stroke-width="2" d="M79.849,35.181h4.797v3.092h-4.797V35.181z"/>
<path fill="#7F7F7F" stroke="#000000" stroke-width="2" d="M81.448,38.273h1.599v0.854h-1.599V38.273z"/>
<path fill="#7F7F7F" stroke="#000000" stroke-width="2" d="M84.646,35.074h-4.797v-3.092h4.797V35.074z"/>
<path fill="#7F7F7F" stroke="#000000" stroke-width="2" d="M82.94,31.983h-1.492v-0.746h1.492V31.983z"/>
<path fill="#7F7F7F" stroke="#000000" stroke-width="2" d="M79.849,17.911h4.797v3.091h-4.797V17.911z"/>
<path fill="#7F7F7F" stroke="#000000" stroke-width="2" d="M81.448,21.002h1.599v0.746h-1.599V21.002z"/>
<path fill="#7F7F7F" stroke="#000000" stroke-width="2" d="M84.646,88.485h-4.797v-3.091h4.797V88.485z"/>
<path fill="#7F7F7F" stroke="#000000" stroke-width="2" d="M82.94,85.394h-1.492v-0.747h1.492V85.394z"/>
<path d="M21.748,18.657h37.739v58.101H21.748V18.657z"/>
<path stroke="#FFFFFF" stroke-width="2" d="M26.545,72.068h28.25V43.71h-28.25V72.068z"/>
<path fill="#7F7F7F" d="M28.038,54.797h7.889v6.29h-7.889V54.797z"/>
<path fill="#7F7F7F" d="M45.308,54.797h7.89v6.29h-7.89V54.797z"/>
<path fill="#7F7F7F" d="M36.779,54.797h7.782v6.29h-7.782V54.797z"/>
<path fill="#E5E5E5" d="M34.434,46.908h12.473v6.289H34.434V46.908z"/>
<path fill="#7F7F7F" d="M34.434,62.579h12.473v6.29H34.434V62.579z"/>
<path fill="#FFFFFF" d="M32.835,73.56h15.672v1.6H32.835V73.56z"/>
<circle fill="#7F7F7F" stroke="#000000" stroke-width="2" cx="18.656" cy="9.169" r="1.492"/>
<path fill="none" stroke="#000000" stroke-width="2" d="M18.656,10.768V7.677"/>
<circle fill="#7F7F7F" stroke="#000000" stroke-width="2" cx="62.579" cy="9.169" r="1.492"/>
<path fill="none" stroke="#000000" stroke-width="2" d="M61.832,10.555l1.599-2.665"/>
<circle fill="#7F7F7F" stroke="#000000" stroke-width="2" cx="18.656" cy="96.907" r="1.493"/>
<path fill="none" stroke="#000000" stroke-width="2" d="M20.255,96.906h-3.092"/>
<circle fill="#7F7F7F" stroke="#000000" stroke-width="2" cx="62.579" cy="96.907" r="1.493"/>
<path fill="none" stroke="#000000" stroke-width="2" d="M63.964,97.76l-2.771-1.6"/>
</svg>
