<?xml version="1.0" encoding="utf-8"?>
<!-- Generator: Adobe Illustrator 14.0.0, SVG Export Plug-In . SVG Version: 6.00 Build 43363)  -->
<!DOCTYPE svg PUBLIC "-//W3C//DTD SVG 1.1//EN" "http://www.w3.org/Graphics/SVG/1.1/DTD/svg11.dtd">
<svg version="1.1" id="图层_1" xmlns="http://www.w3.org/2000/svg" xmlns:xlink="http://www.w3.org/1999/xlink" x="0px" y="0px"
	 width="67.802px" height="106.502px" viewBox="0 0 67.802 106.502" enable-background="new 0 0 67.802 106.502"
	 xml:space="preserve">
<path fill="#D9D9D9" stroke="#000000" stroke-width="2" d="M2.985,10.661h61.832v92.749H2.985V10.661z"/>
<path fill="#FFFFFF" stroke="#999999" stroke-width="2" d="M6.823,14.499h54.156v65.777H6.823V14.499z"/>
<path fill="#CCCCCC" d="M33.901,53.198l8.208-8.208l0.746,0.853l0.641,0.959l0.532,0.96l0.533,1.066l0.427,0.959l0.213,1.173
	l0.213,1.066v0.64v0.532v1.173l-0.213,1.173l-0.213,1.066l-0.427,1.065l-0.533,1.066l-0.532,0.96l-0.641,0.853l-0.746,0.853
	l-0.853,0.746l-0.853,0.64l-0.96,0.64l-1.065,0.427l-1.066,0.427l-1.066,0.213l-1.173,0.213l-1.172,0.107l-1.173-0.107l-1.066-0.106
	l-1.173-0.319l-1.066-0.427l-1.066-0.427l-0.959-0.64l-0.853-0.64l-0.853-0.746L33.901,53.198z"/>
<path d="M50.852,62.473l-0.533,0.853l-5.011-2.878l0.533-0.854L50.852,62.473z"/>
<path d="M53.198,52.772v0.959H47.44v-0.959H53.198z"/>
<path d="M50.425,43.177l0.427,0.746l-5.011,2.985l-0.427-0.854L50.425,43.177z"/>
<path d="M43.176,36.247l0.746,0.427l-2.879,5.01l-0.746-0.426L43.176,36.247z"/>
<path d="M33.475,33.902h0.853v5.757h-0.853V33.902z"/>
<path d="M23.773,36.674l0.853-0.427l2.878,5.011l-0.747,0.426L23.773,36.674z"/>
<path d="M16.951,43.923l0.426-0.853l5.011,2.878l-0.427,0.853L16.951,43.923z"/>
<path d="M14.499,53.624v-0.959h5.863v0.959H14.499z"/>
<path d="M17.377,63.219l-0.533-0.746l5.011-2.985l0.533,0.854L17.377,63.219z"/>
<path fill="none" stroke="#000000" stroke-width="2" d="M46.907,56.716l3.732,0.959"/>
<path fill="none" stroke="#000000" stroke-width="2" d="M46.907,49.68l3.732-0.96"/>
<path fill="none" stroke="#000000" stroke-width="2" d="M43.389,43.603l2.771-2.665"/>
<path fill="none" stroke="#000000" stroke-width="2" d="M37.313,40.192l1.066-3.838"/>
<path fill="none" stroke="#000000" stroke-width="2" d="M30.383,40.192l-0.959-3.838"/>
<path fill="none" stroke="#000000" stroke-width="2" d="M24.307,43.603l-2.666-2.665"/>
<path fill="none" stroke="#000000" stroke-width="2" d="M20.789,49.68l-3.731-0.96"/>
<path fill="none" stroke="#000000" stroke-width="2" d="M20.789,56.716l-3.731,0.959"/>
<path fill="none" stroke="#7F7F7F" stroke-width="2" d="M46.268,58.422l1.918,0.64"/>
<path fill="none" stroke="#7F7F7F" stroke-width="2" d="M47.227,55.01l1.919,0.214"/>
<path fill="none" stroke="#7F7F7F" stroke-width="2" d="M47.227,51.492l1.919-0.32"/>
<path fill="none" stroke="#7F7F7F" stroke-width="2" d="M46.375,48.08l1.706-0.853"/>
<path fill="none" stroke="#7F7F7F" stroke-width="2" d="M44.562,44.99l1.599-1.173"/>
<path fill="none" stroke="#7F7F7F" stroke-width="2" d="M42.11,42.537l1.173-1.6"/>
<path fill="none" stroke="#7F7F7F" stroke-width="2" d="M39.018,40.725l0.746-1.813"/>
<path fill="none" stroke="#7F7F7F" stroke-width="2" d="M35.713,39.872l0.213-2.025"/>
<path fill="none" stroke="#7F7F7F" stroke-width="2" d="M32.089,39.872l-0.213-2.025"/>
<path fill="none" stroke="#7F7F7F" stroke-width="2" d="M28.784,40.725l-0.853-1.813"/>
<path fill="none" stroke="#7F7F7F" stroke-width="2" d="M25.692,42.537l-1.279-1.6"/>
<path fill="none" stroke="#7F7F7F" stroke-width="2" d="M23.134,44.99l-1.493-1.173"/>
<path fill="none" stroke="#7F7F7F" stroke-width="2" d="M21.428,48.08l-1.813-0.853"/>
<path fill="none" stroke="#7F7F7F" stroke-width="2" d="M20.469,51.386l-1.919-0.214"/>
<path fill="none" stroke="#7F7F7F" stroke-width="2" d="M20.469,55.01l-1.919,0.214"/>
<path fill="none" stroke="#7F7F7F" stroke-width="2" d="M21.428,58.315l-1.813,0.747"/>
<path fill="#D9D9D9" d="M33.901,53.198l-8.209,8.209l-0.746-0.853l-0.747-0.96l-0.533-0.959l-0.533-1.066l-0.32-0.959l-0.32-1.173
	l-0.106-1.066l-0.107-0.64v-0.533l0.107-1.172l0.106-1.173l0.32-1.066l0.32-1.066l0.533-1.065l0.533-0.96l0.747-0.853l0.746-0.853
	l0.853-0.747l0.853-0.64l0.959-0.64l0.959-0.426l1.173-0.427l1.066-0.213l1.173-0.214l1.173-0.106l1.066,0.106l1.173,0.107
	l1.065,0.319l1.066,0.427l1.066,0.426l0.959,0.64l0.96,0.64l0.853,0.747L33.901,53.198z"/>
<circle fill="#E5E5E5" stroke="#7F7F7F" stroke-width="2" cx="33.794" cy="53.198" r="8.635"/>
<circle fill="none" stroke="#000000" stroke-width="2" cx="33.794" cy="53.198" r="11.514"/>
<path fill="#336666" stroke="#000000" stroke-width="2" d="M18.443,70.575h7.676v3.837h-7.676V70.575z"/>
<path fill="#660000" stroke="#000000" stroke-width="2" d="M41.151,70.575h8.209v3.837h-8.209V70.575z"/>
<path fill="#BFBFBF" d="M33.901,87.952l27.078-7.676v23.134H33.901V87.952z"/>
<path fill="#E5E5E5" stroke="#B2B2B2" stroke-width="2" d="M6.823,80.277l27.079,7.676l27.078-7.676H6.823z"/>
<path fill="#7F7F7F" d="M29.957,2.986h7.782v3.838h-7.782V2.986z"/>
<path fill="#7F7F7F" stroke="#000000" stroke-width="2" d="M26.119,6.823h15.458v3.838H26.119V6.823z"/>
<path fill="#BFBFBF" d="M31.556,2.986h4.691v3.838h-4.691V2.986z"/>
<path fill="#BFBFBF" d="M28.997,6.823h9.702v3.838h-9.702V6.823z"/>
<path fill="#E5E5E5" d="M33.155,2.986h1.387v3.838h-1.387V2.986z"/>
<path fill="#E5E5E5" d="M32.409,6.823h2.879v3.838h-2.879V6.823z"/>
<path fill="none" stroke="#000000" stroke-width="2" d="M29.957,2.986h7.782v3.838h-7.782V2.986"/>
<path fill="#FF0000" d="M33.582,55.116l0.746-1.812l-14.072-5.117L33.582,55.116z"/>
</svg>
