<?xml version="1.0" encoding="utf-8"?>
<!-- Generator: Adobe Illustrator 14.0.0, SVG Export Plug-In . SVG Version: 6.00 Build 43363)  -->
<!DOCTYPE svg PUBLIC "-//W3C//DTD SVG 1.1//EN" "http://www.w3.org/Graphics/SVG/1.1/DTD/svg11.dtd">
<svg version="1.1" id="图层_1" xmlns="http://www.w3.org/2000/svg" xmlns:xlink="http://www.w3.org/1999/xlink" x="0px" y="0px"
	 width="36.137px" height="106.502px" viewBox="0 0 36.137 106.502" enable-background="new 0 0 36.137 106.502"
	 xml:space="preserve">
<path fill="#0000FF" stroke="#000000" stroke-width="2" d="M5.33,6.827h27.822v25.051H5.33V6.827z"/>
<path fill="#0000FF" stroke="#000000" stroke-width="2" d="M5.33,17.381h17.162v14.497H5.33V17.381z"/>
<path fill="#0000FF" stroke="#000000" stroke-width="2" d="M10.447,16.848H5.33L2.985,13.01l2.558-3.837h4.904l2.558,3.837
	L10.447,16.848z"/>
<path fill="#B2B2B2" stroke="#000000" stroke-width="2" d="M10.02,16.208H5.969L3.731,13.01l2.238-3.197h4.051l2.132,3.197
	L10.02,16.208z"/>
<path fill="#B2B2B2" stroke="#000000" stroke-width="2" d="M5.33,6.827h27.822V2.99H5.33V6.827z"/>
<circle fill="#4C4C4C" stroke="#000000" stroke-width="2" cx="7.888" cy="12.904" r="2.559"/>
<circle stroke="#000000" stroke-width="2" cx="7.995" cy="13.01" r="1.812"/>
<path fill="#999999" stroke="#000000" stroke-width="2" d="M7.995,2.99h3.838v2.345H7.995V2.99z"/>
<path fill="#999999" stroke="#000000" stroke-width="2" d="M15.457,2.99h3.73v2.345h-3.73V2.99z"/>
<path fill="#999999" stroke="#000000" stroke-width="2" d="M23.025,2.99h3.838v2.345h-3.838V2.99z"/>
<path fill="#999999" stroke="#000000" stroke-width="2" d="M30.487,2.99h2.665v2.345h-2.665V2.99z"/>
<path fill="none" stroke="#000000" stroke-width="2" d="M5.33,17.381h27.822"/>
<path fill="#4C4C4C" stroke="#000000" stroke-width="2" d="M11.833,16.848h3.624v3.624h-3.624V16.848z"/>
<path fill="#666666" stroke="#000000" stroke-width="2" d="M13.644,17.381l0.854,0.426l0.319,0.64l-0.213,0.96l-0.746,0.426h-0.533
	l-0.853-0.64l-0.107-0.532l0.427-0.854L13.644,17.381z"/>
<path fill="#0000BF" stroke="#000000" stroke-width="2" d="M12.365,31.878h13.858v1.279H12.365V31.878z"/>
<path fill="#B2B2B2" stroke="#000000" stroke-width="2" d="M17.376,45.736h3.837v57.67h-3.837V45.736z"/>
<path fill="#CCCCCC" d="M18.015,45.736h2.665v57.67h-2.665V45.736z"/>
<path fill="#E5E5E5" d="M18.441,45.736h1.6v57.67h-1.6V45.736z"/>
<path fill="#FFFFFF" d="M19.081,45.736h0.533v57.67h-0.533V45.736z"/>
<path fill="#999999" stroke="#000000" stroke-width="2" d="M16.843,35.502h5.01v10.021h-5.01V35.502z"/>
<path fill="#CCCCCC" d="M17.376,35.502h3.837v10.021h-3.837V35.502z"/>
<path fill="#E5E5E5" d="M18.655,35.502h1.172v10.021h-1.172V35.502z"/>
<path fill="#B2B2B2" d="M15.67,38.167h7.355v3.731H15.67V38.167z"/>
<path fill="#CCCCCC" d="M16.203,38.167h6.289v3.731h-6.289V38.167z"/>
<path fill="#E5E5E5" d="M18.015,38.167h2.665v3.731h-2.665V38.167z"/>
<path fill="none" stroke="#000000" stroke-width="2" d="M15.67,38.167h7.355v3.731H15.67V38.167"/>
<path fill="#999999" d="M11.833,33.157h15.03v2.345h-15.03V33.157z"/>
<path fill="#B2B2B2" d="M13.644,33.157h11.193v2.345H13.644V33.157z"/>
<path fill="#CCCCCC" d="M16.203,33.157h6.289v2.345h-6.289V33.157z"/>
<path fill="none" stroke="#000000" stroke-width="2" d="M11.833,33.157h15.03v2.345h-15.03V33.157"/>
</svg>
