<?xml version="1.0" encoding="utf-8"?>
<!-- Generator: Adobe Illustrator 14.0.0, SVG Export Plug-In . SVG Version: 6.00 Build 43363)  -->
<!DOCTYPE svg PUBLIC "-//W3C//DTD SVG 1.1//EN" "http://www.w3.org/Graphics/SVG/1.1/DTD/svg11.dtd">
<svg version="1.1" id="图层_1" xmlns="http://www.w3.org/2000/svg" xmlns:xlink="http://www.w3.org/1999/xlink" x="0px" y="0px"
	 width="105.495px" height="106.502px" viewBox="0 0 105.495 106.502" enable-background="new 0 0 105.495 106.502"
	 xml:space="preserve">
<path fill="none" stroke="#000000" stroke-width="2" d="M3.014,15.675v81.582l0.201,1.206l0.201,1.206l0.603,1.004l0.804,1.005
	l0.804,0.804l1.206,0.604l1.206,0.2l1.206,0.201"/>
<path fill="#339966" stroke="#000000" stroke-width="2" d="M96.251,3.016l2.412,0.401l2.813,2.412l0.604,1.004l0.401,2.612v87.812
	l-0.401,2.412l-2.412,2.813l-1.004,0.604l-2.412,0.401H9.243l-3.617-1.005l-2.21-2.813l-0.402-2.412V9.446l0.402-2.612l2.21-2.813
	l3.617-1.005H96.251z"/>
<path fill="#7F7F7F" stroke="#000000" stroke-width="2" d="M93.438,16.077l3.416,1.004l2.21,2.612l0.401,2.211v6.631l-0.401,2.411
	l-2.21,2.612l-3.416,1.005H11.855l-3.215-1.005l-2.21-2.612l-0.402-2.411v-6.631l0.402-2.211l1.407-2.009l1.808-1.206l2.21-0.401
	H93.438z"/>
<path fill="#7F7F7F" stroke="#000000" stroke-width="2" d="M93.639,37.98l2.21,0.401l2.01,1.206l1.206,2.01l0.401,2.21v50.638
	l-0.401,2.21l-1.206,1.809l-2.01,1.406l-2.21,0.402H12.057l-2.21-0.402l-1.809-1.406l-1.407-1.809l-0.402-2.21V43.807l0.402-2.21
	l1.407-2.01l1.809-1.206l2.21-0.401H93.639z"/>
<path fill="#999999" d="M9.243,72.14h87.812v25.117H9.243V72.14z"/>
<path fill="#999999" d="M27.931,40.793h69.124v29.739H27.931V40.793z"/>
<path fill="#999999" d="M9.243,18.69h87.812v12.659H9.243V18.69z"/>
<path fill="#FFFFFF" stroke="#000000" stroke-width="2" d="M15.473,75.154h11.052v7.837H15.473V75.154z"/>
<path fill="#FFFFFF" stroke="#000000" stroke-width="2" d="M31.146,75.154h11.052v7.837H31.146V75.154z"/>
<path fill="#FFFFFF" stroke="#000000" stroke-width="2" d="M46.819,75.154h11.052v7.837H46.819V75.154z"/>
<path fill="#FFFFFF" stroke="#000000" stroke-width="2" d="M62.493,75.154h11.051v7.837H62.493V75.154z"/>
<path fill="#FFFFFF" stroke="#000000" stroke-width="2" d="M78.167,75.154h11.051v7.837H78.167V75.154z"/>
<path fill="#FFFFFF" stroke="#000000" stroke-width="2" d="M15.473,86.205h11.052v7.837H15.473V86.205z"/>
<path fill="#FFFFFF" stroke="#000000" stroke-width="2" d="M31.146,86.205h11.052v7.837H31.146V86.205z"/>
<path fill="#FFFFFF" stroke="#000000" stroke-width="2" d="M46.819,86.205h11.052v7.837H46.819V86.205z"/>
<path fill="#FFFFFF" stroke="#000000" stroke-width="2" d="M62.493,86.205h11.051v7.837H62.493V86.205z"/>
<path fill="#FFFFFF" stroke="#000000" stroke-width="2" d="M78.167,86.205h11.051v7.837H78.167V86.205z"/>
<path fill="#009933" stroke="#000000" stroke-width="2" d="M35.768,47.022h39.385v14.066H35.768V47.022z"/>
<path fill="#006633" d="M75.152,47.022v-2.813H35.768v5.626h39.385V47.022z"/>
<path fill="#FF0000" stroke="#000000" stroke-width="2" d="M78.167,47.022h9.041v6.431h-9.041V47.022z"/>
<path fill="#00FFFF" stroke="#000000" stroke-width="2" d="M78.167,56.065h9.041v6.631h-9.041V56.065z"/>
</svg>
