<?xml version="1.0" encoding="utf-8"?>
<!-- Generator: Adobe Illustrator 14.0.0, SVG Export Plug-In . SVG Version: 6.00 Build 43363)  -->
<!DOCTYPE svg PUBLIC "-//W3C//DTD SVG 1.1//EN" "http://www.w3.org/Graphics/SVG/1.1/DTD/svg11.dtd">
<svg version="1.1" id="图层_1" xmlns="http://www.w3.org/2000/svg" xmlns:xlink="http://www.w3.org/1999/xlink" x="0px" y="0px"
	 width="36.669px" height="106.502px" viewBox="0 0 36.669 106.502" enable-background="new 0 0 36.669 106.502"
	 xml:space="preserve">
<path fill="#B2B2B2" stroke="#000000" stroke-width="2" d="M15.99,50.746h2.665v52.659H15.99V50.746z"/>
<path fill="#CCCCCC" d="M16.416,50.746h1.812v52.659h-1.812V50.746z"/>
<path fill="#E5E5E5" d="M16.842,50.746h0.959v52.659h-0.959V50.746z"/>
<path fill="#FFFFFF" d="M17.269,50.746h0.106v52.659h-0.106V50.746z"/>
<path fill="#B2B2B2" stroke="#000000" stroke-width="2" d="M21,50.746h2.665v52.659H21V50.746z"/>
<path fill="#CCCCCC" d="M21.426,50.746h1.813v52.659h-1.813V50.746z"/>
<path fill="#E5E5E5" d="M21.852,50.746h0.96v52.659h-0.96V50.746z"/>
<path fill="#FFFFFF" d="M22.279,50.746h0.214v52.659h-0.214V50.746z"/>
<path fill="#0000FF" stroke="#000000" stroke-width="2" d="M5.969,6.828h27.716v21.213H5.969V6.828z"/>
<path fill="#B2B2B2" stroke="#000000" stroke-width="2" d="M5.969,6.828h27.716V2.99H5.969V6.828z"/>
<path fill="#999999" stroke="#000000" stroke-width="2" d="M8.634,2.99h3.731v2.345H8.634V2.99z"/>
<path fill="#999999" stroke="#000000" stroke-width="2" d="M15.99,2.99h3.837v2.345H15.99V2.99z"/>
<path fill="#999999" stroke="#000000" stroke-width="2" d="M23.665,2.99h3.625v2.345h-3.625V2.99z"/>
<path fill="#999999" stroke="#000000" stroke-width="2" d="M31.126,2.99h2.559v2.345h-2.559V2.99z"/>
<path fill="none" stroke="#000000" stroke-width="2" d="M17.375,17.381h16.31"/>
<path fill="#0000BF" stroke="#000000" stroke-width="2" d="M14.817,28.254h10.021v4.903H14.817V28.254z"/>
<path fill="#999999" stroke="#000000" stroke-width="2" d="M15.99,40.513h7.675v10.021H15.99V40.513z"/>
<path fill="#CCCCCC" d="M17.056,40.513h5.542v10.021h-5.542V40.513z"/>
<path fill="#E5E5E5" d="M18.868,40.513h2.025v10.021h-2.025V40.513z"/>
<path fill="#B2B2B2" d="M14.817,33.157h10.021v3.731H14.817V33.157z"/>
<path fill="#CCCCCC" d="M15.67,33.157h8.421v3.731H15.67V33.157z"/>
<path fill="#E5E5E5" d="M18.228,33.157h3.198v3.731h-3.198V33.157z"/>
<path fill="none" stroke="#000000" stroke-width="2" d="M14.817,33.157h10.021v3.731H14.817V33.157"/>
<path fill="#999999" d="M8.634,36.889h22.492v3.837H8.634V36.889z"/>
<path fill="#B2B2B2" d="M11.406,36.889h16.843v3.837H11.406V36.889z"/>
<path fill="#CCCCCC" d="M15.244,36.889h9.167v3.837h-9.167V36.889z"/>
<path fill="none" stroke="#000000" stroke-width="2" d="M8.634,36.889h22.492v3.837H8.634V36.889"/>
<path fill="#0000FF" stroke="#000000" stroke-width="2" d="M8.634,14.183h8.741v16.523H8.634V14.183z"/>
<path fill="#0000FF" stroke="#000000" stroke-width="2" d="M3.518,15.462l5.117-1.279v16.523L3.518,29.32V15.462z"/>
<path fill="#CCCCCC" stroke="#000000" stroke-width="2" d="M9.807,15.462h6.183v14.071H9.807V15.462z"/>
<path fill="#0000FF" stroke="#000000" stroke-width="2" d="M18.655,30.492h-5.01l-2.665-3.624l2.665-3.838h5.01L21,26.868
	L18.655,30.492z"/>
<path fill="#B2B2B2" stroke="#000000" stroke-width="2" d="M18.228,29.853h-4.264l-1.919-2.984l1.919-3.198h4.264l2.025,3.198
	L18.228,29.853z"/>
<circle fill="#4C4C4C" stroke="#000000" stroke-width="2" cx="16.096" cy="26.761" r="2.452"/>
<circle stroke="#000000" stroke-width="2" cx="16.096" cy="26.762" r="1.919"/>
<circle stroke="#000000" stroke-width="2" cx="22.918" cy="31.132" r="0.64"/>
<path fill="#7F7F7F" stroke="#000000" stroke-width="2" d="M5.756,28.467H4.371l-0.32-0.106l-0.533-0.959l-0.106-0.746l-0.213-0.96
	L3.091,24.63l-0.106-1.173v-1.173v-1.279l0.106-1.172l0.106-0.96l0.32-1.599l0.533-0.96l0.32-0.106h1.386l0.32,0.106l0.32,0.32
	l0.533,1.279l0.213,0.959l0.106,0.96l0.107,1.172v1.279v1.173L7.249,24.63l-0.106,1.065l-0.213,0.96l-0.533,1.386l-0.32,0.319
	L5.756,28.467z"/>
<ellipse fill="#B2B2B2" stroke="#000000" stroke-width="2" cx="4.477" cy="22.284" rx="1.492" ry="6.076"/>
<path fill="#0000BF" stroke="#000000" stroke-width="2" d="M24.837,30.492h6.289v-2.451h-6.289V30.492z"/>
</svg>
