<?xml version="1.0" encoding="utf-8"?>
<!-- Generator: Adobe Illustrator 14.0.0, SVG Export Plug-In . SVG Version: 6.00 Build 43363)  -->
<!DOCTYPE svg PUBLIC "-//W3C//DTD SVG 1.1//EN" "http://www.w3.org/Graphics/SVG/1.1/DTD/svg11.dtd">
<svg version="1.1" id="图层_1" xmlns="http://www.w3.org/2000/svg" xmlns:xlink="http://www.w3.org/1999/xlink" x="0px" y="0px"
	 width="61.149px" height="106.502px" viewBox="0 0 61.149 106.502" enable-background="new 0 0 61.149 106.502"
	 xml:space="preserve">
<circle fill="#FF0000" stroke="#000000" stroke-width="2" cx="10.032" cy="48.343" r="7.043"/>
<path fill="#E5E5E5" stroke="#000000" stroke-width="2" d="M8.218,39.485l0.96-32.121h48.129l0.854,32.121H8.218z"/>
<path fill="#FF0000" stroke="#000000" stroke-width="2" d="M8.218,39.485l0.96,17.822h48.129l0.854-17.822H8.218z"/>
<path fill="#7F7F7F" d="M9.178,38.525l0.854-30.308h3.628v30.308H9.178z"/>
<path fill="#7F7F7F" d="M40.339,38.525V8.217h1.814l0.854,30.308H40.339z"/>
<path fill="#FFFFFF" d="M40.339,8.217v30.308h-1.814L37.671,8.217H40.339z"/>
<path fill="#FFFFFF" stroke="#000000" stroke-width="2" d="M57.307,55.492H43.861l0.961-14.3H58.16L57.307,55.492z"/>
<path fill="#FFFFFF" stroke="#000000" stroke-width="2" d="M15.367,43.861h21.45v8.964h-21.45V43.861z"/>
<path d="M10.992,41.193h-0.427l0.854,15.26l0.854-0.106l-0.96-15.153H10.992z"/>
<path fill="#7F7F7F" stroke="#000000" stroke-width="2" d="M27.854,2.989h1.707v4.375h-7.043V2.989h1.814l0.106,1.066l0.32,0.854
	l0.96,0.746l1.067-0.213l0.747-0.961l0.32-0.96V2.989z"/>
<path fill="#7F7F7F" stroke="#000000" stroke-width="2" d="M42.154,2.989h1.707v4.375h-7.043V2.989h1.707l0.214,1.066l0.32,0.854
	l0.96,0.746l1.067-0.213l0.747-0.961l0.214-0.96L42.154,2.989z"/>
<path fill="#FF0000" stroke="#000000" stroke-width="2" d="M35.003,57.307l1.814,10.671l14.193-0.106l1.814-10.564H35.003z"/>
<path fill="#7F7F7F" stroke="#000000" stroke-width="2" d="M38.525,67.978h10.672v5.336H38.525V67.978z"/>
<path fill="#B2B2B2" stroke="#000000" stroke-width="2" d="M39.486,73.314h8.857v30.2h-8.857V73.314z"/>
<path d="M41.193,75.022h-0.427v25.825h0.854V75.022H41.193z"/>
<path d="M38.525,58.16h-0.319l0.854,8.004l0.747-0.107l-0.854-8.004L38.525,58.16z"/>
</svg>
