<?xml version="1.0" encoding="utf-8"?>
<!-- Generator: Adobe Illustrator 14.0.0, SVG Export Plug-In . SVG Version: 6.00 Build 43363)  -->
<!DOCTYPE svg PUBLIC "-//W3C//DTD SVG 1.1//EN" "http://www.w3.org/Graphics/SVG/1.1/DTD/svg11.dtd">
<svg version="1.1" id="图层_1" xmlns="http://www.w3.org/2000/svg" xmlns:xlink="http://www.w3.org/1999/xlink" x="0px" y="0px"
	 width="47.866px" height="106.502px" viewBox="0 0 47.866 106.502" enable-background="new 0 0 47.866 106.502"
	 xml:space="preserve">
<path fill="#7F7F7F" stroke="#000000" stroke-width="2" d="M2.878,9.17v25.159L5.01,42.75l5.331,10.447h27.184l5.225-10.447
	l2.132-8.421V9.17H2.878z"/>
<circle fill="#666666" stroke="#000000" stroke-width="2" cx="23.879" cy="21.75" r="6.29"/>
<path fill="#7F7F7F" stroke="#000000" stroke-width="2" d="M2.878,5.013h42.002V9.17H2.878V5.013z"/>
<path fill="#7F7F7F" stroke="#000000" stroke-width="2" d="M15.458,2.88h16.844v2.133H15.458V2.88z"/>
<path fill="#999999" d="M23.879,21.856l-4.69,4.158l-0.64-0.96l-0.533-0.959l-0.32-1.173l-0.106-1.066l0.106-1.279l0.427-1.172
	l0.533-1.066l0.853-0.959l0.853-0.854l1.066-0.533l1.172-0.319l1.279-0.213l1.493,0.213l1.279,0.533l1.279,0.746l0.959,1.066
	L23.879,21.856z"/>
<circle stroke="#000000" stroke-width="2" cx="23.879" cy="21.749" r="3.198"/>
<path fill="none" stroke="#000000" stroke-width="2" d="M6.077,41.685h4.157"/>
<path fill="none" stroke="#000000" stroke-width="2" d="M14.498,41.685h7.356"/>
<path fill="none" stroke="#000000" stroke-width="2" d="M26.012,41.685h7.249"/>
<path fill="none" stroke="#000000" stroke-width="2" d="M37.524,41.685h4.158"/>
<path fill="#7F7F7F" stroke="#000000" stroke-width="2" d="M16.524,53.198h14.711v10.555H16.524V53.198z"/>
<path fill="#4C4C4C" stroke="#000000" stroke-width="2" d="M19.722,63.645h8.315v28.357h-8.315V63.645z"/>
<path fill="#7F7F7F" stroke="#000000" stroke-width="2" d="M16.524,68.868h14.711v10.555H16.524V68.868z"/>
<path fill="#7F7F7F" stroke="#000000" stroke-width="2" d="M18.656,81.448h10.447v7.355H18.656V81.448z"/>
<path fill="#7F7F7F" stroke="#000000" stroke-width="2" d="M15.458,92.002v5.224l1.066,6.29h13.645l2.133-6.396v-5.117H15.458z"/>
<path fill="none" stroke="#000000" stroke-width="2" d="M16.524,97.226h14.711"/>
<path fill="none" stroke="#000000" stroke-width="2" d="M23.879,97.226v-5.224"/>
<path fill="none" stroke="#000000" stroke-width="2" d="M23.879,88.804v-7.249"/>
<path fill="none" stroke="#000000" stroke-width="2" d="M23.879,79.423V68.976"/>
<path fill="#666666" d="M13.432,53.198l-3.198-16.736h2.132l2.132,16.736H13.432z"/>
<path fill="none" stroke="#000000" stroke-width="2" d="M13.432,53.198l-3.198-16.736h2.132"/>
<path fill="#666666" d="M22.813,53.198V36.461h2.132v16.736H22.813z"/>
<path fill="none" stroke="#000000" stroke-width="2" d="M22.707,53.198V36.461h2.132"/>
<path fill="#666666" d="M33.261,53.198l2.133-16.736h2.131l-3.197,16.736H33.261z"/>
<path fill="none" stroke="#000000" stroke-width="2" d="M33.261,53.198l2.133-16.736h2.131"/>
</svg>
