<?xml version="1.0" encoding="utf-8"?>
<!-- Generator: Adobe Illustrator 14.0.0, SVG Export Plug-In . SVG Version: 6.00 Build 43363)  -->
<!DOCTYPE svg PUBLIC "-//W3C//DTD SVG 1.1//EN" "http://www.w3.org/Graphics/SVG/1.1/DTD/svg11.dtd">
<svg version="1.1" id="图层_1" xmlns="http://www.w3.org/2000/svg" xmlns:xlink="http://www.w3.org/1999/xlink" x="0px" y="0px"
	 width="144.749px" height="100.778px" viewBox="0 0 144.749 100.778" enable-background="new 0 0 144.749 100.778"
	 xml:space="preserve">
<path stroke="#7F7F7F" stroke-width="2" d="M130.547,34.686l3.004-0.819l2.731,10.924l-2.731,0.819L130.547,34.686z"/>
<path stroke="#7F7F7F" stroke-width="2" d="M125.085,34.686l2.73-0.819l3.005,10.924l-3.005,0.819L125.085,34.686z"/>
<path stroke="#7F7F7F" stroke-width="2" d="M119.35,34.686l2.73-0.819l3.005,10.924l-2.731,0.819L119.35,34.686z"/>
<path fill="#FFFFFF" stroke="#000000" stroke-width="2" d="M4.097,5.735h44.244v68.278H4.097V5.735z"/>
<path fill="#999999" d="M48.341,68.278H26.765v-57.08h21.576V68.278z"/>
<path fill="#0000FF" stroke="#000000" stroke-width="2" d="M62.27,5.735h44.243v68.278H62.27V5.735z"/>
<path fill="#666666" d="M48.341,59.539H28.404V19.938h19.938V59.539z"/>
<path fill="#00FFFF" d="M63.908,15.567h41.239v7.101H63.908V15.567z"/>
<path fill="#E5E5E5" d="M5.462,15.567h41.24v7.101H5.462V15.567z"/>
<ellipse stroke="#000000" stroke-width="2" cx="68.278" cy="9.559" rx="4.37" ry="2.458"/>
<path fill="none" stroke="#7F7F7F" stroke-width="2" d="M71.009,8.467l1.365,1.365"/>
<path fill="none" stroke="#7F7F7F" stroke-width="2" d="M63.908,9.832l1.365-1.365l2.73-0.819l3.005,0.819"/>
<path fill="none" stroke="#FFFFFF" stroke-width="2" d="M68.004,12.017V7.101"/>
<path fill="#003399" d="M63.908,57.626h41.239v11.198H63.908V57.626z"/>
<path fill="#CCCCCC" d="M5.462,57.626h41.24v11.198H5.462V57.626z"/>
<path fill="#7F7F7F" d="M5.462,4.097h1.639v71.283H5.462V4.097z"/>
<path stroke="#7F7F7F" stroke-width="2" d="M8.466,4.097h5.735v71.283H8.466V4.097z"/>
<path stroke="#7F7F7F" stroke-width="2" d="M46.702,65.274h17.206v31.408H46.702V65.274z"/>
<path stroke="#7F7F7F" stroke-width="2" d="M62.542,4.37H48.341v60.904h14.201V4.37z"/>
<path stroke="#7F7F7F" stroke-width="2" d="M106.513,48.341l8.467-1.365V32.5l-8.467-1.366V48.341z"/>
<path stroke="#7F7F7F" stroke-width="2" d="M114.98,38.236h25.673v3.004H114.98V38.236z"/>
<path fill="#333333" stroke="#7F7F7F" stroke-width="2" d="M136.556,33.866l2.73,0.819l-3.004,10.924l-2.731-0.819L136.556,33.866z"
	/>
<path fill="#333333" stroke="#7F7F7F" stroke-width="2" d="M130.821,33.866l2.73,0.819l-3.004,10.924l-2.731-0.819L130.821,33.866z"
	/>
<path fill="#333333" stroke="#7F7F7F" stroke-width="2" d="M125.085,33.866l2.73,0.819l-3.004,10.924l-2.731-0.819L125.085,33.866z"
	/>
<path fill="#333333" stroke="#7F7F7F" stroke-width="2" d="M119.35,33.866l2.73,0.819l-2.73,10.924l-2.731-0.819L119.35,33.866z"/>
</svg>
