<?xml version="1.0" encoding="utf-8"?>
<!-- Generator: Adobe Illustrator 14.0.0, SVG Export Plug-In . SVG Version: 6.00 Build 43363)  -->
<!DOCTYPE svg PUBLIC "-//W3C//DTD SVG 1.1//EN" "http://www.w3.org/Graphics/SVG/1.1/DTD/svg11.dtd">
<svg version="1.1" id="图层_1" xmlns="http://www.w3.org/2000/svg" xmlns:xlink="http://www.w3.org/1999/xlink" x="0px" y="0px"
	 width="144.749px" height="94.615px" viewBox="0 0 144.749 94.615" enable-background="new 0 0 144.749 94.615"
	 xml:space="preserve">
<path stroke="#000000" stroke-width="2" d="M10.722,17.532h129.824v59.551H10.722V17.532z"/>
<path fill="#CCCCCC" stroke="#000000" stroke-width="2" d="M10.722,9.418h129.824v8.114H10.722V9.418z"/>
<path fill="#CCCCCC" stroke="#000000" stroke-width="2" d="M10.722,77.083h129.824v7.969H10.722V77.083z"/>
<path fill="#CCCCCC" stroke="#000000" stroke-width="2" d="M21.589,4.057h108.235v5.361H21.589V4.057z"/>
<path fill="#CCCCCC" stroke="#000000" stroke-width="2" d="M21.589,85.197h108.235v5.36H21.589V85.197z"/>
<path fill="#7F7F7F" d="M11.447,10.143H26.95v6.81H11.447V10.143z"/>
<path fill="#7F7F7F" d="M22.169,4.637h15.648v4.057H22.169V4.637z"/>
<path fill="#7F7F7F" d="M11.447,77.663H26.95v6.81H11.447V77.663z"/>
<path fill="#7F7F7F" d="M22.169,85.922h15.648v3.912H22.169V85.922z"/>
<path fill="#7F7F7F" d="M121.71,84.473h-15.648v-6.81h15.648V84.473z"/>
<path fill="#7F7F7F" d="M115.625,89.834H99.977v-3.912h15.648V89.834z"/>
<path fill="#7F7F7F" d="M121.71,16.953h-15.648v-6.81h15.648V16.953z"/>
<path fill="#7F7F7F" d="M115.625,8.693H99.977V4.637h15.648V8.693z"/>
<path fill="#FFFFFF" d="M110.119,84.473H94.615v-6.81h15.504V84.473z"/>
<path fill="#FFFFFF" d="M104.033,89.834H88.53v-3.912h15.504V89.834z"/>
<path fill="#FFFFFF" d="M110.119,16.953H94.615v-6.81h15.504V16.953z"/>
<path fill="#FFFFFF" d="M104.033,8.693H88.53V4.637h15.504V8.693z"/>
<path fill="#FFFFFF" d="M91.863,41.874V21.589h43.323v19.561L91.863,41.874z"/>
<path fill="none" stroke="#000000" stroke-width="2" d="M93.891,31.007h39.99v8.838l-39.99,0.58V31.007"/>
<path fill="none" stroke="#000000" stroke-width="2" d="M93.891,35.789h39.99"/>
<path fill="none" stroke="#000000" stroke-width="2" d="M114.176,39.846v-8.838"/>
<circle fill="#7F7F7F" cx="75.634" cy="31.007" r="5.361"/>
<circle fill="#191919" cx="75.634" cy="31.007" r="2.608"/>
<path d="M78.967,31.152v-0.724l-0.29-0.58l-0.289-0.58l-0.436-0.58l-0.435-0.29l-0.579-0.435l-0.58-0.145h-0.725v1.159h0.436
	l0.435,0.145l0.289,0.145l0.29,0.29l0.29,0.435l0.145,0.29l0.146,0.435l0.145,0.435H78.967z"/>
<path d="M75.634,34.34h0.725l0.58-0.145l0.579-0.435l0.435-0.29l0.436-0.58l0.289-0.435l0.29-0.725v-0.58h-1.159l-0.145,0.29
	l-0.146,0.435l-0.145,0.435l-0.29,0.29l-0.29,0.145l-0.289,0.29l-0.435,0.145h-0.436V34.34z"/>
<path d="M72.447,31.152v0.58l0.146,0.725l0.289,0.435l0.436,0.58l0.435,0.29l0.579,0.435l0.725,0.145h0.579v-1.159h-0.289
	l-0.435-0.145l-0.435-0.29l-0.29-0.145l-0.146-0.29l-0.289-0.435l-0.146-0.435v-0.29H72.447z"/>
<path d="M75.634,27.819h-0.579l-0.725,0.145l-0.579,0.435l-0.435,0.29l-0.436,0.58l-0.289,0.58l-0.146,0.58v0.724h1.159v-0.435
	l0.146-0.435l0.289-0.29l0.146-0.435l0.29-0.29l0.435-0.145l0.435-0.145h0.289V27.819z"/>
<ellipse fill="#E5E5E5" stroke="#000000" stroke-width="2" cx="14.78" cy="52.741" rx="4.057" ry="8.114"/>
<path fill="#E5E5E5" stroke="#000000" stroke-width="2" d="M14.78,58.103H6.665l-1.449-0.869l-0.724-1.449l-0.436-2.029v-1.014
	l0.146-2.174l0.579-1.738l0.87-1.159l1.014-0.435h8.114l1.449,1.014l0.869,1.449l0.29,1.884l0.145,1.159l-0.29,2.028l-0.579,1.739
	l-0.87,1.158L14.78,58.103z"/>
<path fill="none" stroke="#000000" stroke-width="2" d="M6.665,47.235l0.58,0.145l0.579,0.29l0.435,0.579l0.435,0.58l0.29,0.869
	l0.145,0.869l0.29,1.015v1.159v1.014l-0.29,1.015l-0.145,0.87l-0.29,0.869l-0.435,0.579l-0.435,0.579l-0.579,0.29l-0.58,0.146"/>
<ellipse stroke="#000000" stroke-width="2" cx="6.665" cy="52.741" rx="2.028" ry="4.057"/>
<path fill="#7F7F7F" d="M13.476,58.103H7.969h0.436l0.289-0.146l0.29-0.29l0.29-0.289l0.29-0.29l0.289-0.435l0.146-0.58l0.145-0.579
	l5.361-0.146l-0.146,0.725l-0.145,0.436l-0.29,0.434l-0.29,0.436l-0.145,0.289l-0.435,0.29l-0.29,0.146H13.476z"/>
<path fill="#7F7F7F" d="M13.476,47.235H7.969l0.436,0.145l0.289,0.145l0.29,0.145l0.29,0.29l0.29,0.435l0.289,0.435l0.146,0.58
	l0.145,0.579h5.361l-0.146-0.579l-0.145-0.58l-0.29-0.435l-0.29-0.435l-0.145-0.29l-0.435-0.145l-0.29-0.145L13.476,47.235z"/>
</svg>
