<?xml version="1.0" encoding="utf-8"?>
<!-- Generator: Adobe Illustrator 14.0.0, SVG Export Plug-In . SVG Version: 6.00 Build 43363)  -->
<!DOCTYPE svg PUBLIC "-//W3C//DTD SVG 1.1//EN" "http://www.w3.org/Graphics/SVG/1.1/DTD/svg11.dtd">
<svg version="1.1" id="图层_1" xmlns="http://www.w3.org/2000/svg" xmlns:xlink="http://www.w3.org/1999/xlink" x="0px" y="0px"
	 width="144.749px" height="98.093px" viewBox="0 0 144.749 98.093" enable-background="new 0 0 144.749 98.093"
	 xml:space="preserve">
<path fill="#333333" stroke="#000000" stroke-width="2" d="M28.4,40.135h112.147v8.259H28.4V40.135z"/>
<path fill="#999999" stroke="#000000" stroke-width="2" d="M140.547,46.945l-4.492,1.015l-4.781,1.739l-5.796,2.463l-3.332,1.449
	l-3.478,1.594l-3.768,1.738l-3.768,1.738l-4.057,1.885l-4.057,1.883l-4.202,1.884l-4.202,2.028l-4.202,2.029l-4.201,2.027
	l-4.202,1.885l-4.202,2.027l-4.057,1.885l-3.912,1.883l-3.912,1.739l-3.623,1.739l-3.622,1.448l-6.375,2.753l-5.361,2.174
	l-4.057,1.304l-1.449,0.435l-1.159,0.145v-0.289v-1.739l4.492-1.015l4.781-1.738l5.94-2.463l3.188-1.449l3.622-1.594l3.623-1.738
	l3.912-1.739l3.912-1.884l4.057-1.883l4.202-1.885l4.202-2.027l4.201-2.029l4.202-2.028l4.202-1.884l4.202-2.028l4.057-1.884
	l4.057-1.883l3.768-1.739l3.768-1.739l3.478-1.448l6.375-2.753l5.361-2.173l4.057-1.304l1.594-0.435l1.015-0.145v0.29V46.945z"/>
<path fill="#999999" stroke="#000000" stroke-width="2" d="M22.748,27.675l-0.145-2.029l-0.146-1.594l-0.145-1.883l-0.29-2.029
	l-0.289-2.028l-0.58-2.173l-0.579-2.029l-0.725-1.883l-0.87-1.739l-1.158-1.594l-1.305-1.159l-1.449-0.87L13.475,6.23l-1.883,0.145
	l-2.174,0.58l-1.159,0.58L7.1,8.693l-0.725,1.594l-0.145,1.449v1.449l0.145,1.594l0.29,1.883L7.1,18.546l0.58,1.884l0.579,2.028
	l0.58,2.028l0.724,2.029l0.725,2.028l0.58,2.028l0.725,2.029l0.289,1.014l0.29,0.869h-0.145h-1.884l-0.29-1.883l-0.579-1.449
	l-0.58-1.739L7.969,27.53l-0.725-2.029l-0.869-2.028l-0.725-2.173l-0.579-2.173l-0.58-2.028l-0.289-2.174L4.057,13.91v-1.014v-1.014
	l0.29-1.739l0.58-1.739L5.796,6.81L7.1,5.506l1.594-0.58l1.449-0.58l1.304-0.29h1.305h1.159l2.173,0.435l1.739,1.014L19.416,7.1
	l1.304,1.739l1.015,2.173l0.579,1.015l0.29,1.159l0.435,1.159l0.29,1.304l0.435,2.318l0.435,2.318l0.145,2.173l0.146,1.884
	l0.145,1.739v0.579v0.58v0.435H22.748z"/>
<path fill="#B2B2B2" d="M8.259,75.634v-4.637h22.894v4.637H8.259z"/>
<path fill="#B2B2B2" d="M20.72,34.195v-6.52h6.23v6.52H20.72z"/>
<path fill="#C7C7C7" d="M10.722,75.634v-4.637h17.967v4.637H10.722z"/>
<path fill="#C7C7C7" d="M21.299,34.195v-6.52h4.782v6.52H21.299z"/>
<path fill="#D9D9D9" d="M13.62,75.634v-4.637h12.171v4.637H13.62z"/>
<path fill="#D9D9D9" d="M22.458,34.195v-6.52h2.464v6.52H22.458z"/>
<path fill="#191919" stroke="#000000" stroke-width="2" d="M10.143,69.839V34.195h18.98v35.645H10.143z"/>
<path fill="#191919" stroke="#000000" stroke-width="2" d="M9.128,86.066v-4.781h21.154v4.781H9.128z"/>
<path fill="#191919" stroke="#000000" stroke-width="2" d="M31.153,91.718l-2.174,2.317H10.433l-2.174-2.317H31.153z"/>
<path fill="#666666" stroke="#000000" stroke-width="2" d="M8.259,81.285v-5.65h22.894v5.65H8.259z"/>
<path fill="#666666" stroke="#000000" stroke-width="2" d="M8.259,91.718v-5.652h22.894v5.652H8.259z"/>
<path fill="#191919" stroke="#000000" stroke-width="2" d="M29.413,80.126v-3.479h1.159v3.479H29.413z"/>
<path fill="#191919" stroke="#000000" stroke-width="2" d="M27.24,80.126v-3.479H28.4v3.479H27.24z"/>
<path fill="#191919" stroke="#000000" stroke-width="2" d="M24.922,80.126v-3.479h1.159v3.479H24.922z"/>
<path fill="#191919" stroke="#000000" stroke-width="2" d="M29.413,90.558v-3.332h1.159v3.332H29.413z"/>
<path fill="#191919" stroke="#000000" stroke-width="2" d="M27.24,90.558v-3.332H28.4v3.332H27.24z"/>
<path fill="#191919" stroke="#000000" stroke-width="2" d="M24.922,90.558v-3.332h1.159v3.332H24.922z"/>
<path fill="#4C4C4C" stroke="#000000" stroke-width="2" d="M8.839,90.558v-3.332h1.159v3.332H8.839z"/>
<path fill="#4C4C4C" stroke="#000000" stroke-width="2" d="M11.012,90.558v-3.332h1.159v3.332H11.012z"/>
<path fill="#4C4C4C" stroke="#000000" stroke-width="2" d="M8.839,80.126v-3.479h1.159v3.479H8.839z"/>
<path fill="#4C4C4C" stroke="#000000" stroke-width="2" d="M11.012,80.126v-3.479h1.159v3.479H11.012z"/>
<path fill="#333333" stroke="#000000" stroke-width="2" d="M13.33,90.558v-3.332h1.159v3.332H13.33z"/>
<path fill="#333333" stroke="#000000" stroke-width="2" d="M15.649,90.558v-3.332h1.015v3.332H15.649z"/>
<path fill="#333333" stroke="#000000" stroke-width="2" d="M17.823,90.558v-3.332h1.158v3.332H17.823z"/>
<path fill="#333333" stroke="#000000" stroke-width="2" d="M20.43,90.558v-3.332h1.159v3.332H20.43z"/>
<path fill="#333333" stroke="#000000" stroke-width="2" d="M22.748,90.558v-3.332h1.015v3.332H22.748z"/>
<path fill="#333333" stroke="#000000" stroke-width="2" d="M13.33,80.126v-3.479h1.159v3.479H13.33z"/>
<path fill="#333333" stroke="#000000" stroke-width="2" d="M15.649,80.126v-3.479h1.015v3.479H15.649z"/>
<path fill="#333333" stroke="#000000" stroke-width="2" d="M17.823,80.126v-3.479h1.158v3.479H17.823z"/>
<path fill="#333333" stroke="#000000" stroke-width="2" d="M20.43,80.126v-3.479h1.159v3.479H20.43z"/>
<path fill="#333333" stroke="#000000" stroke-width="2" d="M22.748,80.126v-3.479h1.015v3.479H22.748z"/>
<path fill="#2E2E2E" d="M11.302,81.576H28.11v4.201H11.302V81.576z"/>
<path fill="#404040" d="M14.199,81.576h11.012v4.201H14.199V81.576z"/>
<path stroke="#000000" stroke-width="2" d="M12.751,69.839H26.66v1.158H12.751V69.839z"/>
<path fill="none" stroke="#000000" stroke-width="2" d="M20.72,34.195v-6.52h6.23v6.52H20.72"/>
<path fill="none" stroke="#000000" stroke-width="2" d="M8.259,75.634v-4.637h22.894v4.637H8.259"/>
<path stroke="#000000" stroke-width="2" d="M27.82,85.488h3.912v6.809H27.82V85.488z"/>
<path fill="#191919" stroke="#000000" stroke-width="2" d="M28.4,86.066h1.594v5.652H28.4V86.066z"/>
<path fill="#191919" stroke="#000000" stroke-width="2" d="M31.732,86.357h4.058v5.07h-4.058V86.357z"/>
<path fill="#333333" stroke="#000000" stroke-width="2" d="M35.789,86.936h4.781v3.622h-4.781V86.936z"/>
</svg>
