<?xml version="1.0" encoding="utf-8"?>
<!-- Generator: Adobe Illustrator 14.0.0, SVG Export Plug-In . SVG Version: 6.00 Build 43363)  -->
<!DOCTYPE svg PUBLIC "-//W3C//DTD SVG 1.1//EN" "http://www.w3.org/Graphics/SVG/1.1/DTD/svg11.dtd">
<svg version="1.1" id="图层_1" xmlns="http://www.w3.org/2000/svg" xmlns:xlink="http://www.w3.org/1999/xlink" x="0px" y="0px"
	 width="144.749px" height="54.482px" viewBox="0 0 144.749 54.482" enable-background="new 0 0 144.749 54.482"
	 xml:space="preserve">
<path fill="#999999" stroke="#000000" stroke-width="2" d="M91.428,7.536h5.506v36.659h-5.506V7.536z"/>
<path fill="#B2B2B2" d="M91.428,11.158h5.506v29.124h-5.506V11.158z"/>
<path fill="#CCCCCC" d="M91.428,14.925h5.506v21.589h-5.506V14.925z"/>
<path fill="#E5E5E5" d="M91.428,18.837h5.506v13.91h-5.506V18.837z"/>
<path fill="#FFFFFF" d="M91.428,22.604h5.506v6.521h-5.506V22.604z"/>
<path fill="#F2F2F2" stroke="#000000" stroke-width="2" d="M91.428,4.058H9.418v46.367h82.01V4.058z"/>
<path fill="#4C4C4C" d="M107.801,6.811h32.746v38.252h-32.746V6.811z"/>
<path fill="#666666" d="M107.801,10.579h32.746v30.283h-32.746V10.579z"/>
<path fill="#7F7F7F" d="M107.801,14.635h32.746v22.458h-32.746V14.635z"/>
<path fill="#999999" d="M107.801,18.547h32.746v14.49h-32.746V18.547z"/>
<path fill="#B2B2B2" d="M107.801,22.604h32.746v6.521h-32.746V22.604z"/>
<path fill="none" stroke="#000000" stroke-width="2" d="M107.801,6.811h32.746v38.252h-32.746V6.811"/>
<path fill="#333333" d="M96.934,6.231h10.867v39.267H96.934V6.231z"/>
<path fill="#333333" stroke="#000000" stroke-width="2" d="M120.116,6.231h10.867v39.267h-10.867V6.231z"/>
<path fill="#4C4C4C" d="M96.934,9.999h10.867V41.44H96.934V9.999z"/>
<path fill="#4C4C4C" d="M120.116,9.999h10.867V41.44h-10.867V9.999z"/>
<path fill="#666666" d="M96.934,14.201h10.867v23.472H96.934V14.201z"/>
<path fill="#666666" d="M120.116,14.201h10.867v23.472h-10.867V14.201z"/>
<path fill="#7F7F7F" d="M96.934,18.258h10.867v15.214H96.934V18.258z"/>
<path fill="#7F7F7F" d="M120.116,18.258h10.867v15.214h-10.867V18.258z"/>
<path fill="#999999" d="M96.934,22.315h10.867v7.1H96.934V22.315z"/>
<path fill="#999999" d="M120.116,22.315h10.867v7.1h-10.867V22.315z"/>
<path fill="none" stroke="#000000" stroke-width="2" d="M96.934,6.231h10.867v39.267H96.934V6.231"/>
<path fill="none" stroke="#000000" stroke-width="2" d="M91.428,4.058H80.561v43.613h10.867V4.058"/>
<path fill="#E5E5E5" stroke="#000000" stroke-width="2" d="M77.808,45.063H12.171v5.361h65.637V45.063z"/>
<path fill="#7F7F7F" d="M9.418,6.811H4.057v10.867h5.361V6.811z"/>
<path fill="#999999" d="M9.418,8.115H4.057v8.259h5.361V8.115z"/>
<path fill="#B2B2B2" d="M9.418,9.419H4.057v5.506h5.361V9.419z"/>
<path fill="#CCCCCC" d="M9.418,10.868H4.057v2.753h5.361V10.868z"/>
<path fill="none" stroke="#000000" stroke-width="2" d="M9.418,6.811H4.057v10.867h5.361V6.811"/>
<path fill="#CCCCFF" stroke="#000000" stroke-width="2" d="M77.229,33.182H59.986v4.491h17.243V33.182z"/>
</svg>
