<?xml version="1.0" encoding="utf-8"?>
<!-- Generator: Adobe Illustrator 14.0.0, SVG Export Plug-In . SVG Version: 6.00 Build 43363)  -->
<!DOCTYPE svg PUBLIC "-//W3C//DTD SVG 1.1//EN" "http://www.w3.org/Graphics/SVG/1.1/DTD/svg11.dtd">
<svg version="1.1" id="图层_1" xmlns="http://www.w3.org/2000/svg" xmlns:xlink="http://www.w3.org/1999/xlink" x="0px" y="0px"
	 width="144.749px" height="55.641px" viewBox="0 0 144.749 55.641" enable-background="new 0 0 144.749 55.641"
	 xml:space="preserve">
<path fill="#B2B2B2" stroke="#000000" stroke-width="2" d="M127.506,8.695h13.041v12.026h-13.041V8.695z"/>
<path fill="#B2B2B2" stroke="#000000" stroke-width="2" d="M42.019,4.058h9.563v47.525h-9.563V4.058z"/>
<path fill="#191919" stroke="#000000" stroke-width="2" d="M51.582,6.521h75.924v38.977H51.582V6.521z"/>
<path fill="#191919" stroke="#000000" stroke-width="2" d="M20.72,5.942h9.563V49.7H20.72V5.942z"/>
<path fill="#191919" stroke="#000000" stroke-width="2" d="M8.694,51.583l-4.637-4.637V8.695l4.637-4.637V51.583z"/>
<path stroke="#000000" stroke-width="2" d="M70.418,45.499h38.252v6.085H70.418V45.499z"/>
<path fill="#191919" stroke="#7F7F7F" stroke-width="2" d="M60.566,8.695h57.957v31.152H60.566V8.695z"/>
<circle fill="#333333" stroke="#000000" stroke-width="2" cx="68.1" cy="34.92" r="2.318"/>
<circle fill="#333333" stroke="#000000" stroke-width="2" cx="110.989" cy="34.92" r="2.318"/>
<path fill="#666666" stroke="#000000" stroke-width="2" d="M30.282,4.058h11.736v47.525H30.282V4.058z"/>
<path fill="#666666" stroke="#000000" stroke-width="2" d="M8.694,4.058H20.72v47.525H8.694V4.058z"/>
<path fill="#191919" stroke="#000000" stroke-width="2" d="M32.456,47.961h7.1v2.463h-7.1V47.961z"/>
<path fill="#191919" stroke="#000000" stroke-width="2" d="M32.456,43.325h7.1v2.174h-7.1V43.325z"/>
<path fill="#191919" stroke="#000000" stroke-width="2" d="M32.456,38.398h7.1v2.464h-7.1V38.398z"/>
<path fill="#191919" stroke="#000000" stroke-width="2" d="M11.156,47.961h7.101v2.463h-7.101V47.961z"/>
<path fill="#191919" stroke="#000000" stroke-width="2" d="M11.156,43.325h7.101v2.174h-7.101V43.325z"/>
<path fill="#191919" stroke="#000000" stroke-width="2" d="M11.156,38.398h7.101v2.464h-7.101V38.398z"/>
<path fill="#4C4C4C" stroke="#000000" stroke-width="2" d="M11.156,5.072h7.101v2.463h-7.101V5.072z"/>
<path fill="#4C4C4C" stroke="#000000" stroke-width="2" d="M11.156,9.999h7.101v2.463h-7.101V9.999z"/>
<path fill="#4C4C4C" stroke="#000000" stroke-width="2" d="M32.456,5.072h7.1v2.463h-7.1V5.072z"/>
<path fill="#4C4C4C" stroke="#000000" stroke-width="2" d="M32.456,9.999h7.1v2.463h-7.1V9.999z"/>
<path fill="#333333" stroke="#000000" stroke-width="2" d="M11.156,14.636h7.101v2.463h-7.101V14.636z"/>
<path fill="#333333" stroke="#000000" stroke-width="2" d="M11.156,19.562h7.101v2.173h-7.101V19.562z"/>
<path fill="#333333" stroke="#000000" stroke-width="2" d="M11.156,24.198h7.101v2.463h-7.101V24.198z"/>
<path fill="#333333" stroke="#000000" stroke-width="2" d="M11.156,28.834h7.101v2.464h-7.101V28.834z"/>
<path fill="#333333" stroke="#000000" stroke-width="2" d="M11.156,33.762h7.101v2.463h-7.101V33.762z"/>
<path fill="#333333" stroke="#000000" stroke-width="2" d="M32.456,14.636h7.1v2.463h-7.1V14.636z"/>
<path fill="#333333" stroke="#000000" stroke-width="2" d="M32.456,19.562h7.1v2.173h-7.1V19.562z"/>
<path fill="#333333" stroke="#000000" stroke-width="2" d="M32.456,24.198h7.1v2.463h-7.1V24.198z"/>
<path fill="#333333" stroke="#000000" stroke-width="2" d="M32.456,28.834h7.1v2.464h-7.1V28.834z"/>
<path fill="#333333" stroke="#000000" stroke-width="2" d="M32.456,33.762h7.1v2.463h-7.1V33.762z"/>
<path fill="#999999" d="M128.521,16.084h11.012v4.347h-11.012V16.084z"/>
<path fill="#999999" d="M43.033,39.557h7.39v10.867h-7.39V39.557z"/>
<path fill="#E5E5E5" d="M128.521,9.999h11.012v1.159h-11.012V9.999z"/>
<path fill="#E5E5E5" d="M43.033,7.536h7.39v4.926h-7.39V7.536z"/>
<path fill="#333333" d="M21.734,37.383h7.101v10.578h-7.101V37.383z"/>
<path fill="#B2B2B2" d="M21.734,8.695h7.101v4.926h-7.101V8.695z"/>
</svg>
