<?xml version="1.0" encoding="utf-8"?>
<!-- Generator: Adobe Illustrator 14.0.0, SVG Export Plug-In . SVG Version: 6.00 Build 43363)  -->
<!DOCTYPE svg PUBLIC "-//W3C//DTD SVG 1.1//EN" "http://www.w3.org/Graphics/SVG/1.1/DTD/svg11.dtd">
<svg version="1.1" id="图层_1" xmlns="http://www.w3.org/2000/svg" xmlns:xlink="http://www.w3.org/1999/xlink" x="0px" y="0px"
	 width="38.167px" height="106.502px" viewBox="0 0 38.167 106.502" enable-background="new 0 0 38.167 106.502"
	 xml:space="preserve">
<path fill="#0000FF" stroke="#000000" stroke-width="2" d="M10.982,26.119V4.584l1.386-1.6h15.885v12.474h-4.158v10.661H10.982z"/>
<path fill="#0000BF" d="M24.094,15.458l-1.599-5.863h5.757v5.863H24.094z"/>
<path fill="#0000BF" d="M19.616,11.833h-8.635v14.286h8.635V11.833z"/>
<path fill="#999999" d="M14.606,31.876l1.813,71.534h2.025l2.026-71.534H14.606z"/>
<path fill="#B2B2B2" d="M15.459,31.876l1.386,71.534h1.173l1.386-71.534H15.459z"/>
<path fill="#CCCCCC" d="M16.845,31.876l0.427,71.534h0.319l0.427-71.534H16.845z"/>
<path fill="none" stroke="#000000" stroke-width="2" d="M14.606,31.876l1.813,71.534h2.025l2.026-71.534H14.606"/>
<path fill="#999999" d="M4.585,27.718H30.49v4.158H4.585V27.718z"/>
<path fill="#B2B2B2" d="M7.783,27.718h19.509v4.158H7.783V27.718z"/>
<path fill="#CCCCCC" d="M12.047,27.718h10.768v4.158H12.047V27.718z"/>
<path fill="none" stroke="#000000" stroke-width="2" d="M4.585,27.718H30.49v4.158H4.585V27.718"/>
<path fill="#B2B2B2" d="M13.007,26.226h8.849v1.492h-8.849V26.226z"/>
<path fill="#CCCCCC" d="M13.86,26.226h7.143v1.492H13.86V26.226z"/>
<path fill="#E5E5E5" d="M15.991,26.226h2.879v1.492h-2.879V26.226z"/>
<path fill="none" stroke="#000000" stroke-width="2" d="M13.007,26.226h8.849v1.492h-8.849V26.226"/>
<path fill="#999999" stroke="#000000" stroke-width="2" d="M12.154,19.616l1.387-0.107l1.279-0.532l1.065-0.747l0.96-0.959
	l0.853-1.173l0.64-1.279l0.427-1.492V12.58l0.106-0.747l-0.106-0.853l-0.213-1.599l-0.533-1.387l-0.746-1.279l-0.854-1.065
	l-1.066-0.96L14.18,4.157l-1.279-0.319l-0.747-0.106H9.595L8.316,3.945L7.036,4.371L5.971,5.117l-0.96,1.066L4.265,7.249
	l-0.64,1.386l-0.319,1.6l-0.107,0.746v0.853v0.747l0.214,1.492l0.533,1.386l0.64,1.279l0.959,1.066l0.96,0.853l1.172,0.64
	l1.279,0.32h0.64H12.154z"/>
<ellipse fill="#B2B2B2" stroke="#000000" stroke-width="2" cx="9.595" cy="11.62" rx="6.61" ry="7.889"/>
<path fill="#999999" d="M3.412,9.595l11.407,6.609l1.172-2.345L4.585,7.143L3.412,9.595z"/>
<path fill="#B2B2B2" stroke="#000000" stroke-width="2" d="M32.943,15.458h-5.011l-0.319-0.106l-0.427-1.066l-0.213-1.599
	l-0.106-1.066v-1.173V7.995V6.823l0.106-1.066l0.213-1.706l0.427-0.959l0.319-0.107h5.011l0.427,0.107l0.746,0.959l0.319,0.746
	l0.32,0.96l0.213,1.066l0.107,1.172v1.173v1.279l-0.107,1.173l-0.213,1.066l-0.32,0.853l-0.64,1.386l-0.426,0.427L32.943,15.458z"/>
<ellipse fill="#E5E5E5" stroke="#000000" stroke-width="2" cx="32.943" cy="9.168" rx="2.025" ry="6.184"/>
<ellipse fill="#4C4C4C" stroke="#000000" stroke-width="2" cx="32.943" cy="9.169" rx="0.853" ry="2.772"/>
<path fill="#333333" stroke="#000000" stroke-width="2" d="M9.595,27.718h0.64v-5.863h-0.64V27.718z"/>
<path fill="#333333" stroke="#000000" stroke-width="2" d="M24.627,27.718h0.853v-5.863h-0.853V27.718z"/>
</svg>
