<?xml version="1.0" encoding="utf-8"?>
<!-- Generator: Adobe Illustrator 14.0.0, SVG Export Plug-In . SVG Version: 6.00 Build 43363)  -->
<!DOCTYPE svg PUBLIC "-//W3C//DTD SVG 1.1//EN" "http://www.w3.org/Graphics/SVG/1.1/DTD/svg11.dtd">
<svg version="1.1" id="图层_1" xmlns="http://www.w3.org/2000/svg" xmlns:xlink="http://www.w3.org/1999/xlink" x="0px" y="0px"
	 width="107.035px" height="106.502px" viewBox="0 0 107.035 106.502" enable-background="new 0 0 107.035 106.502"
	 xml:space="preserve">
<path fill="#7F7F7F" d="M6.321,35.359l-1.393,2.464l-1.071,7.5l-0.75,10.929L2.893,69.323l0.214,13.393l0.75,10.821l1.071,7.286
	l1.393,2.785h8.357V35.359H6.321z"/>
<path fill="#8F8F8F" d="M5.678,36.43l-0.75,1.393l-1.071,7.5l-0.75,10.929L2.893,69.323l0.214,13.393l0.75,10.821L4.5,97.394h10.179
	V36.43H5.678z"/>
<path fill="#ABABAB" d="M4.715,39.216l-0.857,6.106l-0.75,10.929L2.893,69.323l0.214,13.393l0.214,2.679h11.357V39.216H4.715z"/>
<path fill="#B8B8B8" d="M4.715,40.609l-0.857,4.714l-0.75,10.929L2.893,69.323l0.214,10.179h11.571V40.609H4.715z"/>
<path fill="#C7C7C7" d="M4.5,41.894l-0.643,3.429l-0.75,10.929L2.893,69.323v4.286h11.785V41.894H4.5z"/>
<path fill="#D4D4D4" d="M4.286,43.287l-0.429,2.035l-0.75,10.929l-0.214,11.25h11.785V43.287H4.286z"/>
<path fill="#E3E3E3" d="M4.071,44.68l-0.214,0.643l-0.75,10.929v5.357h11.571V44.68H4.071z"/>
<path fill="#F0F0F0" d="M3.107,55.501l0.75-9.536h10.821v9.536H3.107z"/>
<path fill="#FFFFFF" d="M3.643,49.609l0.214-2.25h10.821v2.25H3.643z"/>
<path fill="none" stroke="#000000" stroke-width="2" d="M6.321,35.359l-1.393,2.464l-1.071,7.5l-0.75,10.929L2.893,69.323
	l0.214,13.393l0.75,10.821l1.071,7.286l1.393,2.785h8.357V35.359H6.321"/>
<ellipse fill="#CCCCCC" stroke="#000000" stroke-width="2" cx="14.786" cy="69.43" rx="3.535" ry="34.071"/>
<path fill="#7F7F7F" d="M96.964,51.859H14.25v35.143h82.714V51.859z"/>
<path fill="#8F8F8F" d="M96.964,52.394H14.25v31.393h82.714V52.394z"/>
<path fill="#9C9C9C" d="M96.964,53.037H14.25v27.856h82.714V53.037z"/>
<path fill="#ABABAB" d="M96.964,53.68H14.25v24.106h82.714V53.68z"/>
<path fill="#B8B8B8" d="M96.964,54.109H14.25v20.678h82.714V54.109z"/>
<path fill="#C7C7C7" d="M96.964,54.859H14.25v16.714h82.714V54.859z"/>
<path fill="#D4D4D4" d="M96.964,55.501H14.25v12.964h82.714V55.501z"/>
<path fill="#E3E3E3" d="M96.964,55.93H14.25v9.535h82.714V55.93z"/>
<path fill="#F0F0F0" d="M96.964,56.68H14.25v5.571h82.714V56.68z"/>
<path fill="#FFFFFF" d="M96.964,57.323H14.25v2.036h82.714V57.323z"/>
<path fill="#7F7F7F" d="M96.321,35.359l-0.965,2.464l-0.643,7.5l-0.75,10.929v13.071v13.393l0.75,10.821l0.643,7.286l0.75,2.785
	h5.572V35.359H96.321z"/>
<path fill="#8F8F8F" d="M95.785,36.43l-0.429,1.393l-0.643,7.5l-0.75,10.929v13.071v13.393l0.75,10.821l0.215,3.857h6.75V36.43
	H95.785z"/>
<path fill="#ABABAB" d="M95.142,39.216l-0.429,6.106l-0.75,10.929v13.071v13.393l0.321,2.679h7.394V39.216H95.142z"/>
<path fill="#B8B8B8" d="M95.142,40.609l-0.429,4.714l-0.429,10.929l-0.321,13.071v10.179h7.715V40.609H95.142z"/>
<path fill="#C7C7C7" d="M94.928,41.894l-0.215,3.429l-0.429,10.929l-0.321,13.071v4.286h7.715V41.894H94.928z"/>
<path fill="#D4D4D4" d="M94.714,43.287v2.035l-0.75,10.929v11.25h7.715V43.287H94.714z"/>
<path fill="#E3E3E3" d="M94.714,44.68v0.643l-0.429,10.929l-0.321,5.357h7.715V44.68H94.714z"/>
<path fill="#F0F0F0" d="M94.285,55.501l0.215-9.536h7.179v9.536H94.285z"/>
<path fill="#FFFFFF" d="M94.5,49.609v-2.25h7.179v2.25H94.5z"/>
<path fill="none" stroke="#000000" stroke-width="2" d="M96.321,35.359l-0.965,2.464l-0.643,7.5l-0.429,10.929l-0.321,13.071
	l0.321,13.393l0.429,10.821l0.643,7.286l0.965,2.785h5.357V35.359H96.321"/>
<ellipse fill="#CCCCCC" stroke="#000000" stroke-width="2" cx="101.678" cy="69.43" rx="2.25" ry="34.071"/>
<path d="M101.678,57.537l-0.429,3.428l-0.215,8.357l0.215,8.464l0.429,3.322l0.75-3.322l0.214-8.464l-0.214-8.357L101.678,57.537z"
	/>
<path d="M101.678,37.18l-0.215,0.857v2.25v2.356l0.215,0.857L102,42.644v-2.356v-2.25L101.678,37.18z"/>
<path d="M101.678,92.894l-0.215,0.965v2.25v2.035l0.215,0.857L102,98.144v-2.035v-2.25L101.678,92.894z"/>
<path d="M100.178,67.501l-0.322,0.964v2.036v2.25l0.322,0.857v-0.857l0.214-2.25l-0.214-2.036V67.501z"/>
<path d="M103.606,67.501v0.964l-0.321,2.036l0.321,2.25v0.857l0.107-0.857v-2.25v-2.036L103.606,67.501z"/>
<path fill="none" stroke="#000000" stroke-width="2" d="M101.678,52.394l-0.644,4.929l-0.429,12l0.429,12.214l0.644,5.036
	l0.964-5.036l0.214-12.214l-0.214-12L101.678,52.394"/>
<path fill="#7F7F7F" d="M16.071,51.859l-0.643,1.393l-0.75,3.857l-0.429,5.464v6.75v6.857l0.429,5.571l0.75,3.857l0.643,1.393
	h-1.179l-0.643-1.393l-0.429-3.857l-0.429-5.571v-6.857v-6.75l0.429-5.464l0.429-3.857l0.643-1.393H16.071z"/>
<path fill="#E5E5E5" stroke="#000000" stroke-width="2" d="M41.892,52.823h24.965l3.856,3.857v24.856l-3.856,3.857H41.892
	l-3.856-3.857V56.68L41.892,52.823z"/>
<path fill="#E5E5E5" stroke="#000000" stroke-width="2" d="M40.821,54.001h24.857l3.856,3.75v24.964l-3.856,3.857H40.821
	l-3.857-3.857V57.751L40.821,54.001z"/>
<path fill="#CCCCCC" stroke="#000000" stroke-width="2" d="M40.5,56.251l0.75,0.107l0.429,0.964l-0.429,0.643l-0.75,0.322
	l-0.643-0.322l-0.429-0.643l0.429-0.964L40.5,56.251z"/>
<path fill="none" stroke="#000000" stroke-width="2" d="M39.857,56.68l1.393,1.071"/>
<path fill="#CCCCCC" stroke="#000000" stroke-width="2" d="M40.5,82.286l0.75,0.429l0.429,0.644l-0.429,0.75l-0.75,0.428
	l-0.643-0.428l-0.429-0.75l0.429-0.644L40.5,82.286z"/>
<path fill="none" stroke="#000000" stroke-width="2" d="M39.857,82.93l1.393,0.856"/>
<path fill="#CCCCCC" stroke="#000000" stroke-width="2" d="M65.678,56.251l0.643,0.107l0.536,0.964l-0.536,0.643l-0.643,0.322
	l-0.857-0.322l-0.214-0.643l0.214-0.964L65.678,56.251z"/>
<path fill="none" stroke="#000000" stroke-width="2" d="M64.821,56.68l1.286,1.071"/>
<path fill="#CCCCCC" stroke="#000000" stroke-width="2" d="M65.678,82.286l0.643,0.429l0.536,0.644l-0.536,0.75l-0.643,0.428
	l-0.857-0.428l-0.214-0.75l0.214-0.644L65.678,82.286z"/>
<path fill="none" stroke="#000000" stroke-width="2" d="M64.821,82.93l1.286,0.856"/>
<path fill="#6666CC" stroke="#000000" stroke-width="2" d="M85.178,6.537l-4.071,4.071v32.893l4.071-4.071V6.537z"/>
<path fill="#BFBFFF" stroke="#000000" stroke-width="2" d="M25.821,10.609h55.286V7.073H25.821V10.609z"/>
<path fill="#CCCCFF" stroke="#000000" stroke-width="2" d="M29.678,2.895h55.5l-4.071,4.178H25.821L29.678,2.895z"/>
<path fill="#6666CC" stroke="#000000" stroke-width="2" d="M85.178,6.537l-4.071,4.071V7.073l4.071-4.178V6.537z"/>
<path fill="#E0E0E0" stroke="#000000" stroke-width="2" d="M66.642,50.787l-1.393,1.071v-8.357l1.393-1.393V50.787z"/>
<path fill="#E0E0E0" stroke="#000000" stroke-width="2" d="M41.036,51.859H65.25v-8.357H41.036V51.859z"/>
<path d="M76.607,67.715l-1.394,1.607h-3.643v0.643h-1.393v-4.928h1.393v0.643h1.607v-0.857H72.75V63.43h0.643V44.894h-0.964v-1.393
	h4.606v1.393h-0.75V63.43h0.536v1.393h-0.214V67.715z"/>
<path fill="#CCCCCC" stroke="#000000" stroke-width="2" d="M48.964,45.537h8.786v4.5h-8.786V45.537z"/>
<path fill="#BFBFFF" stroke="#000000" stroke-width="2" d="M25.821,10.609h55.286v32.893H25.821V10.609z"/>
<path fill="#CCCCCC" stroke="#000000" stroke-width="2" d="M48.964,32.573h8.786v4.394h-8.786V32.573z"/>
</svg>
