<?xml version="1.0" encoding="utf-8"?>
<!-- Generator: Adobe Illustrator 14.0.0, SVG Export Plug-In . SVG Version: 6.00 Build 43363)  -->
<!DOCTYPE svg PUBLIC "-//W3C//DTD SVG 1.1//EN" "http://www.w3.org/Graphics/SVG/1.1/DTD/svg11.dtd">
<svg version="1.1" id="图层_1" xmlns="http://www.w3.org/2000/svg" xmlns:xlink="http://www.w3.org/1999/xlink" x="0px" y="0px"
	 width="27.929px" height="106.502px" viewBox="0 0 27.929 106.502" enable-background="new 0 0 27.929 106.502"
	 xml:space="preserve">
<path fill="#7F7F7F" stroke="#000000" stroke-width="2" d="M2.985,54.797h21.959v48.608H2.985V54.797z"/>
<path fill="#E5E5E5" stroke="#000000" stroke-width="2" d="M2.985,20.259h21.959v34.538H2.985V20.259z"/>
<path fill="#E5E5E5" stroke="#000000" stroke-width="2" d="M2.985,68.867h21.959v3.198H2.985V68.867z"/>
<path stroke="#000000" stroke-width="2" d="M2.985,20.259v-4.69l3.092-1.599L5.33,13.116V2.99h17.269v10.126l-0.853,0.854
	l3.197,1.599v4.69H2.985z"/>
<path stroke="#000000" stroke-width="2" d="M2.985,48.508h21.959v0.746H2.985V48.508z"/>
<path stroke="#000000" stroke-width="2" d="M2.985,45.31h21.959v1.599H2.985V45.31z"/>
<path fill="none" stroke="#7F7F7F" stroke-width="2" d="M5.33,12.37l17.269-1.599"/>
<path fill="none" stroke="#7F7F7F" stroke-width="2" d="M5.33,10.772L22.599,9.28"/>
<path fill="none" stroke="#7F7F7F" stroke-width="2" d="M5.33,9.28l17.269-1.6"/>
<path fill="none" stroke="#7F7F7F" stroke-width="2" d="M5.33,7.68l17.269-1.599"/>
<path fill="none" stroke="#7F7F7F" stroke-width="2" d="M5.33,6.081l17.269-1.599"/>
<path fill="none" stroke="#000000" stroke-width="2" d="M4.477,45.31V20.259"/>
<path fill="none" stroke="#000000" stroke-width="2" d="M6.929,45.31V20.259"/>
<path fill="none" stroke="#000000" stroke-width="2" d="M9.167,45.31V20.259"/>
<path fill="none" stroke="#000000" stroke-width="2" d="M11.513,45.31V20.259"/>
<path fill="none" stroke="#000000" stroke-width="2" d="M13.858,45.31V20.259"/>
<path fill="none" stroke="#000000" stroke-width="2" d="M16.203,45.31V20.259"/>
<path fill="none" stroke="#000000" stroke-width="2" d="M18.548,45.31V20.259"/>
<path fill="none" stroke="#000000" stroke-width="2" d="M20.893,45.31V20.259"/>
<path fill="none" stroke="#000000" stroke-width="2" d="M23.239,45.31V20.259"/>
<ellipse fill="#FFFFFF" stroke="#000000" stroke-width="2" cx="13.858" cy="86.883" rx="9.381" ry="7.035"/>
<path fill="none" stroke="#000000" stroke-width="2" d="M21.746,13.97H6.076"/>
<path fill="none" stroke="#000000" stroke-width="2" d="M2.985,15.569h21.959"/>
</svg>
