<?xml version="1.0" encoding="utf-8"?>
<!-- Generator: Adobe Illustrator 14.0.0, SVG Export Plug-In . SVG Version: 6.00 Build 43363)  -->
<!DOCTYPE svg PUBLIC "-//W3C//DTD SVG 1.1//EN" "http://www.w3.org/Graphics/SVG/1.1/DTD/svg11.dtd">
<svg version="1.1" id="图层_1" xmlns="http://www.w3.org/2000/svg" xmlns:xlink="http://www.w3.org/1999/xlink" x="0px" y="0px"
	 width="56.182px" height="106.502px" viewBox="0 0 56.182 106.502" enable-background="new 0 0 56.182 106.502"
	 xml:space="preserve">
<path fill="#7F7F7F" stroke="#7F7F7F" stroke-width="2" d="M49.999,42.324v-2.559h-3.944v7.249h7.143v-7.249h-3.198V42.324
	l0.959,0.213l0.746,0.853l-0.319,1.173l-0.746,0.64h-0.96l-0.746-0.427l-0.427-0.959l0.427-1.066l0.746-0.426H49.999z"/>
<path fill="#7F7F7F" stroke="#7F7F7F" stroke-width="2" d="M6.183,42.324v-2.559h3.944v7.249H2.985v-7.249h3.198V42.324l-0.96,0.213
	L4.477,43.39l0.214,1.173l0.853,0.64h0.959l0.746-0.427l0.427-0.959L7.249,42.75l-0.746-0.426H6.183z"/>
<path fill="#B2B2B2" d="M9.168,40.618h37.846v40.83H9.168V40.618z"/>
<path fill="#CCCCCC" d="M13.859,40.618h28.464v40.83H13.859V40.618z"/>
<path fill="#E5E5E5" d="M20.256,40.618h15.671v40.83H20.256V40.618z"/>
<path fill="none" stroke="#000000" stroke-width="2" d="M9.168,40.618h37.846v40.83H9.168V40.618"/>
<path fill="#CCCCCC" stroke="#000000" stroke-width="2" d="M6.183,40.618l-2.879-1.066l-0.319-1.173v-0.746v-1.065V6.185
	l1.066-2.879l1.279-0.319h0.853h1.386h42.43l2.878,1.065l0.32,1.279v0.854v0.959v30.489l-1.066,2.559l-1.279,0.32l-0.853,0.106
	h-1.387H6.183z"/>
<path fill="#666666" stroke="#000000" stroke-width="2" d="M4.477,15.566h47.227v22.067H4.477V15.566z"/>
<path fill="none" stroke="#000000" stroke-width="2" d="M2.985,6.185h50.212"/>
<path fill="none" stroke="#000000" stroke-width="2" d="M53.197,10.875H2.985"/>
<path fill="#999999" stroke="#000000" stroke-width="2" d="M17.057,71.96h22.067v6.184H17.057V71.96z"/>
<path fill="#999999" stroke="#000000" stroke-width="2" d="M16.31,81.448h4.691v4.69H16.31V81.448z"/>
<path fill="#999999" stroke="#000000" stroke-width="2" d="M35.074,81.448h4.69v4.69h-4.69V81.448z"/>
<path fill="#666666" stroke="#000000" stroke-width="2" d="M15.564,86.139h6.184v17.271h-6.184V86.139z"/>
<path fill="#666666" stroke="#000000" stroke-width="2" d="M34.434,86.139h6.183v17.271h-6.183V86.139z"/>
</svg>
