<?xml version="1.0" encoding="utf-8"?>
<!-- Generator: Adobe Illustrator 14.0.0, SVG Export Plug-In . SVG Version: 6.00 Build 43363)  -->
<!DOCTYPE svg PUBLIC "-//W3C//DTD SVG 1.1//EN" "http://www.w3.org/Graphics/SVG/1.1/DTD/svg11.dtd">
<svg version="1.1" id="图层_1" xmlns="http://www.w3.org/2000/svg" xmlns:xlink="http://www.w3.org/1999/xlink" x="0px" y="0px"
	 width="72.921px" height="106.502px" viewBox="0 0 72.921 106.502" enable-background="new 0 0 72.921 106.502"
	 xml:space="preserve">
<path d="M23.881,43.817h25.16v-3.198h-25.16V43.817z"/>
<path fill="#7F7FFF" d="M2.985,7.143h16.738V5.757h33.476v1.386h16.737v33.476H53.199v1.386H19.723v-1.386H2.985V7.143z"/>
<path fill="#999EFF" d="M2.985,10.341h16.738V9.168h33.476v1.173h16.737V37.42H53.199v1.065H19.723V37.42H2.985V10.341z"/>
<path fill="#B2BDFF" d="M2.985,13.539h16.738v-0.853h33.476v0.853h16.737v20.683H53.199v0.853H19.723v-0.853H2.985V13.539z"/>
<path fill="#CCDEFF" d="M2.985,16.844h16.738v-0.64h33.476v0.64h16.737v14.072H53.199v0.64H19.723v-0.64H2.985V16.844z"/>
<path fill="#E5FCFF" d="M2.985,20.042h16.738v-0.319h33.476v0.319h16.737v7.783H53.199v0.213H19.723v-0.213H2.985V20.042z"/>
<path fill="none" stroke="#000000" stroke-width="2" d="M2.985,7.143h16.738V5.757h33.476v1.386h16.737v33.476H53.199v1.386H19.723
	v-1.386H2.985V7.143"/>
<path fill="none" stroke="#000000" stroke-width="2" d="M19.723,40.618V7.143"/>
<path fill="none" stroke="#000000" stroke-width="2" d="M53.199,40.618V7.143"/>
<path fill="#A5B0F2" stroke="#000000" stroke-width="2" d="M30.704,17.271l-2.346-5.863l2.346-6.077l6.077-2.346l5.863,2.346
	l2.452,6.077l-2.452,5.863l-5.863,2.452L30.704,17.271z"/>
<path d="M33.476,14.285l-1.172-2.984l1.172-2.985l3.092-1.173l2.878,1.173l1.173,2.985l-1.173,2.984l-2.878,1.173L33.476,14.285z"/>
<path fill="none" stroke="#FFFFFF" stroke-width="2" d="M31.876,16.204l-1.919-4.797l1.919-4.904l4.904-1.919l4.69,1.919"/>
<path fill="#B2B2B2" d="M21.855,43.817h29.318V61.62H21.855V43.817z"/>
<path fill="#CCCCCC" d="M26.013,43.817h20.896V61.62H26.013V43.817z"/>
<path fill="#E5E5E5" d="M32.303,43.817h8.315V61.62h-8.315V43.817z"/>
<path fill="none" stroke="#000000" stroke-width="2" d="M21.855,43.817h29.318V61.62H21.855V43.817"/>
<path fill="#999EFF" stroke="#000000" stroke-width="2" d="M21.855,61.62h29.318v4.157H21.855V61.62z"/>
<path fill="#B2B2B2" stroke="#000000" stroke-width="2" d="M7.144,99.253v-4.158h4.158V67.803l10.554-2.025h29.318l10.447,2.025
	v27.292h4.158v4.158h-6.291v4.157h-6.289v-4.157H19.723v4.157h-6.29v-4.157H7.144z"/>
<path fill="none" stroke="#000000" stroke-width="2" d="M51.173,66.844v5.224"/>
<path fill="none" stroke="#000000" stroke-width="2" d="M59.488,72.068v23.027H13.433"/>
<path fill="none" stroke="#000000" stroke-width="2" d="M19.723,90.831v-2.026h33.476"/>
<path fill="none" stroke="#000000" stroke-width="2" d="M19.723,86.673v-2.025h33.476"/>
<path fill="none" stroke="#FFFFFF" stroke-width="2" d="M53.199,88.805v2.026H19.723"/>
<path fill="none" stroke="#FFFFFF" stroke-width="2" d="M53.199,84.541v2.132H19.723"/>
<path fill="none" stroke="#FFFFFF" stroke-width="2" d="M51.173,72.068h8.314"/>
<path fill="none" stroke="#FFFFFF" stroke-width="2" d="M13.433,95.095V72.068h8.422v-5.224h29.318"/>
</svg>
