<?xml version="1.0" encoding="utf-8"?>
<!-- Generator: Adobe Illustrator 14.0.0, SVG Export Plug-In . SVG Version: 6.00 Build 43363)  -->
<!DOCTYPE svg PUBLIC "-//W3C//DTD SVG 1.1//EN" "http://www.w3.org/Graphics/SVG/1.1/DTD/svg11.dtd">
<svg version="1.1" id="图层_1" xmlns="http://www.w3.org/2000/svg" xmlns:xlink="http://www.w3.org/1999/xlink" x="0px" y="0px"
	 width="56.182px" height="106.502px" viewBox="0 0 56.182 106.502" enable-background="new 0 0 56.182 106.502"
	 xml:space="preserve">
<path fill="#CCCCCC" stroke="#000000" stroke-width="2" d="M19.722,49.04H36.46v25.053H19.722V49.04z"/>
<circle fill="#CCCCCC" stroke="#000000" stroke-width="2" cx="28.038" cy="28.039" r="25.052"/>
<circle fill="#F2F2F2" cx="28.038" cy="28.039" r="18.763"/>
<path fill="none" stroke="#000000" stroke-width="2" d="M9.275,28.038h4.69"/>
<path fill="none" stroke="#000000" stroke-width="2" d="M42.217,28.038h4.69"/>
<path fill="none" stroke="#000000" stroke-width="2" d="M28.038,9.276v4.691"/>
<path fill="none" stroke="#000000" stroke-width="2" d="M28.038,42.217v4.691"/>
<path fill="#CCCCCC" stroke="#000000" stroke-width="2" d="M19.722,74.093v12.579H7.142v16.737h41.896V86.672H36.46V74.093H19.722z"
	/>
<path fill="none" stroke="#7F7F7F" stroke-width="2" d="M14.818,41.365l-2.345-2.878l-1.387-2.346l-0.959-2.559l-0.64-2.771
	l-0.213-2.772l0.319-3.73l1.173-3.519l1.706-3.198l2.345-2.771l2.771-2.346l3.198-1.705l3.519-1.173l3.731-0.32l3.73,0.32
	l2.666,0.853l2.559,1.066l2.345,1.492l2.025,1.813"/>
<path fill="none" stroke="#FFFFFF" stroke-width="2" d="M41.363,14.82l2.346,2.771l1.386,2.452l0.96,2.559l0.64,2.771l0.213,2.665
	l-0.427,3.838l-1.065,3.519l-1.706,3.198l-2.346,2.771l-2.771,2.346l-3.198,1.705l-3.518,1.066l-3.838,0.427l-3.625-0.427
	l-2.665-0.746l-2.559-1.066l-2.346-1.492l-2.025-1.813"/>
<circle fill="#CCCCCC" stroke="#000000" stroke-width="2" cx="28.038" cy="28.039" r="4.158"/>
</svg>
