<?xml version="1.0" encoding="utf-8"?>
<!-- Generator: Adobe Illustrator 14.0.0, SVG Export Plug-In . SVG Version: 6.00 Build 43363)  -->
<!DOCTYPE svg PUBLIC "-//W3C//DTD SVG 1.1//EN" "http://www.w3.org/Graphics/SVG/1.1/DTD/svg11.dtd">
<svg version="1.1" id="图层_1" xmlns="http://www.w3.org/2000/svg" xmlns:xlink="http://www.w3.org/1999/xlink" x="0px" y="0px"
	 width="53.518px" height="106.502px" viewBox="0 0 53.518 106.502" enable-background="new 0 0 53.518 106.502"
	 xml:space="preserve">
<path fill="#E5E5E5" stroke="#000000" stroke-width="2" d="M20.256,53.731H32.09v5.438H20.256V53.731z"/>
<path fill="#FFFFFF" stroke="#000000" stroke-width="2" d="M32.09,56.076h-5.331v2.452h5.331V56.076z"/>
<path fill="#CCCCCC" stroke="#000000" stroke-width="2" d="M21.322,59.168L16.418,98.08h21.108l-6.503-38.912H21.322z"/>
<path fill="#7F7F7F" stroke="#000000" stroke-width="2" d="M10.448,98.08h32.516v2.132H10.448V98.08z"/>
<path stroke="#000000" stroke-width="2" d="M2.985,100.212h47.548v3.198H2.985V100.212z"/>
<path fill="#7F7F7F" stroke="#000000" stroke-width="2" d="M12.686,96.374h2.133v1.706h-2.133V96.374z"/>
<path fill="#7F7F7F" stroke="#000000" stroke-width="2" d="M19.189,96.374h2.133v1.706h-2.133V96.374z"/>
<path fill="#7F7F7F" stroke="#000000" stroke-width="2" d="M25.693,96.374h2.132v1.706h-2.132V96.374z"/>
<path fill="#7F7F7F" stroke="#000000" stroke-width="2" d="M32.09,96.374h2.238v1.706H32.09V96.374z"/>
<path fill="#7F7F7F" stroke="#000000" stroke-width="2" d="M38.593,96.374h2.132v1.706h-2.132V96.374z"/>
<path fill="#7F7F7F" d="M21.322,53.731h1.065v4.798h-1.065V53.731z"/>
<path fill="#FFFFFF" d="M22.921,53.731h0.533v4.798h-0.533V53.731z"/>
<path fill="none" stroke="#000000" stroke-width="2" d="M20.256,55.33H32.09"/>
<path fill="#CCCCCC" stroke="#000000" stroke-width="2" d="M10.021,22.388h33.476v9.701H10.021V22.388z"/>
<path stroke="#000000" stroke-width="2" d="M10.021,19.723h33.476v0.959H10.021V19.723z"/>
<path fill="#CCCCCC" stroke="#000000" stroke-width="2" d="M10.554,20.682h32.409v33.049H10.554V20.682z"/>
<path fill="#7F7F7F" stroke="#000000" stroke-width="2" d="M27.825,6.184L27.825,6.184L27.719,6.61l-0.533,0.533h-0.853l-0.64-0.533
	V6.184l0,0V2.986h-2.239v5.863H9.488v10.768h34.541V8.849H29.957V2.986h-2.132V6.184z"/>
<path d="M26.759,26.653l0.427,0.106l0.319,0.106l0.427,0.213l0.32,0.214l0.319,0.319l0.106,0.427l0.214,0.427v0.426v0.427
	l-0.214,0.427l-0.106,0.319l-0.319,0.32l-0.32,0.213l-0.427,0.213l-0.319,0.214h-0.427h-0.426l-0.427-0.214l-0.427-0.213
	l-0.319-0.213l-0.214-0.32l-0.213-0.319l-0.106-0.427v-0.427v-0.426l0.106-0.427l0.213-0.427l0.214-0.319l0.319-0.214l0.427-0.213
	l0.427-0.106L26.759,26.653z M26.759,26.119l0.533,0.106l0.427,0.106l0.533,0.32l0.319,0.319l0.427,0.32l0.213,0.533l0.106,0.532
	l0.106,0.533l-0.106,0.533l-0.106,0.427l-0.213,0.533l-0.427,0.426l-0.319,0.32l-0.533,0.213l-0.427,0.106l-0.533,0.106l-0.64-0.106
	l-0.426-0.106L25.16,31.13l-0.32-0.32l-0.319-0.426l-0.32-0.533l-0.106-0.427l-0.106-0.533l0.106-0.533l0.106-0.532l0.32-0.533
	l0.319-0.32l0.32-0.319l0.533-0.32l0.426-0.106L26.759,26.119z M26.759,25.586l0.64,0.106l0.64,0.214l0.533,0.213l0.427,0.427
	l0.426,0.532l0.32,0.533l0.106,0.64l0.106,0.64l-0.106,0.64l-0.106,0.64l-0.32,0.533l-0.426,0.427l-0.427,0.426l-0.533,0.32
	l-0.64,0.213h-0.64h-0.746l-0.533-0.213l-0.64-0.32l-0.426-0.426l-0.427-0.427l-0.32-0.533l-0.106-0.64l-0.106-0.64l0.106-0.64
	l0.106-0.64l0.32-0.533l0.427-0.532l0.426-0.427l0.64-0.213l0.533-0.214L26.759,25.586z"/>
<circle fill="none" stroke="#000000" stroke-width="2" cx="26.759" cy="28.784" r="2.132"/>
<circle fill="none" stroke="#000000" stroke-width="2" cx="26.652" cy="28.784" r="2.665"/>
<circle fill="none" stroke="#000000" stroke-width="2" cx="26.652" cy="28.784" r="3.198"/>
<path fill="#B2B2B2" d="M11.62,21.322h4.265v31.876H11.62V21.322z"/>
<path fill="#B2B2B2" d="M18.124,96.374l4.264-36.141h1.6l-2.132,36.141H18.124z"/>
<path fill="#FFFFFF" d="M17.484,21.322h1.173v31.876h-1.173V21.322z"/>
<path fill="#B2B2B2" d="M35.394,32.089h4.265v18.443h-4.265V32.089z"/>
<path fill="#CCCCCC" stroke="#000000" stroke-width="2" d="M12.686,32.622h28.038v17.271H12.686V32.622z"/>
<circle fill="none" stroke="#000000" stroke-width="2" cx="13.753" cy="33.689" r="0.533"/>
<path fill="none" stroke="#000000" stroke-width="2" d="M13.219,33.689h1.066"/>
<circle fill="none" stroke="#000000" stroke-width="2" cx="13.753" cy="48.827" r="0.533"/>
<path fill="none" stroke="#000000" stroke-width="2" d="M13.219,48.934h1.066"/>
<circle fill="none" stroke="#000000" stroke-width="2" cx="39.659" cy="33.689" r="0.533"/>
<path fill="none" stroke="#000000" stroke-width="2" d="M39.126,33.689h1.065"/>
<circle fill="none" stroke="#000000" stroke-width="2" cx="39.659" cy="48.827" r="0.533"/>
<path fill="none" stroke="#000000" stroke-width="2" d="M39.126,48.934h1.065"/>
<path fill="#FFFFFF" d="M16.951,33.156h1.173V49.36h-1.173V33.156z"/>
</svg>
