<?xml version="1.0" encoding="utf-8"?>
<!-- Generator: Adobe Illustrator 14.0.0, SVG Export Plug-In . SVG Version: 6.00 Build 43363)  -->
<!DOCTYPE svg PUBLIC "-//W3C//DTD SVG 1.1//EN" "http://www.w3.org/Graphics/SVG/1.1/DTD/svg11.dtd">
<svg version="1.1" id="图层_1" xmlns="http://www.w3.org/2000/svg" xmlns:xlink="http://www.w3.org/1999/xlink" x="0px" y="0px"
	 width="39.585px" height="106.502px" viewBox="0 0 39.585 106.502" enable-background="new 0 0 39.585 106.502"
	 xml:space="preserve">
<path fill="#7F7F7F" d="M18.085,56.466V41.998h3.417v14.468H18.085z"/>
<path fill="#999999" d="M18.286,56.466V41.998H21.3v14.468H18.286z"/>
<path fill="#B2B2B2" d="M18.688,56.466V41.998h2.21v14.468H18.688z"/>
<path fill="#CCCCCC" d="M19.089,56.466V41.998h1.406v14.468H19.089z"/>
<path fill="#E5E5E5" d="M19.491,56.466V41.998h0.603v14.468H19.491z"/>
<path fill="#FFFFFF" d="M19.692,56.466V41.998h0.201v14.468H19.692z"/>
<path fill="none" stroke="#000000" stroke-width="2" d="M18.085,56.466V41.998h3.417v14.468H18.085"/>
<ellipse fill="#0000FF" stroke="#000000" stroke-width="2" cx="19.692" cy="40.994" rx="4.018" ry="2.009"/>
<path fill="#003399" stroke="#000000" stroke-width="2" d="M7.837,37.176h23.711v4.22H7.837V37.176z"/>
<path fill="#0000FF" stroke="#000000" stroke-width="2" d="M8.641,36.573L9.243,3.016h2.813v2.813h2.813V3.016h3.416v2.813h2.813
	V3.016h3.617v2.813h2.813V3.016h2.612l0.804,33.558H8.641z"/>
<path fill="#0000FF" stroke="#000000" stroke-width="2" d="M7.837,41.998v-5.425l-4.823,0.603v4.621L7.837,41.998z"/>
<path fill="#0000FF" d="M8.641,41.998h22.304v-5.425H8.641V41.998z"/>
<path fill="#0000FF" d="M31.548,36.573v5.425l5.023-0.603v-4.622L31.548,36.573z"/>
<path fill="#0000FF" d="M23.912,41.998h6.229v1.206h-6.229V41.998z"/>
<path fill="#0000FF" d="M9.243,41.998h6.43v1.206h-6.43V41.998z"/>
<path fill="none" stroke="#000000" stroke-width="2" d="M8.641,36.573v5.425h22.304v-5.425H8.641"/>
<path fill="none" stroke="#000000" stroke-width="2" d="M31.548,36.573v5.425l5.023-0.603v-4.622L31.548,36.573"/>
<path fill="none" stroke="#000000" stroke-width="2" d="M23.912,41.998h6.229v1.206h-6.229V41.998"/>
<path fill="none" stroke="#000000" stroke-width="2" d="M9.243,41.998h6.43v1.206h-6.43V41.998"/>
<path fill="#003399" stroke="#000000" stroke-width="2" d="M12.057,5.829v26.523h2.813V5.829h-0.402v25.72H12.86V5.829H12.057z"/>
<path fill="#003399" stroke="#000000" stroke-width="2" d="M18.286,5.829v26.523h2.813V5.829h-0.201v25.72h-1.809V5.829H18.286z"/>
<path fill="#003399" stroke="#000000" stroke-width="2" d="M24.716,5.829v26.523h2.813V5.829h-0.402v25.72h-1.808V5.829H24.716z"/>
<path fill="none" stroke="#000000" stroke-width="2" d="M31.548,37.577l4.219,0.402"/>
<path fill="none" stroke="#000000" stroke-width="2" d="M31.548,40.993l4.219-0.603"/>
<path fill="none" stroke="#000000" stroke-width="2" d="M31.548,38.582h4.219"/>
<path fill="none" stroke="#000000" stroke-width="2" d="M31.548,39.587h4.219"/>
<path fill="none" stroke="#000000" stroke-width="2" d="M7.837,40.993l-4.22-0.401"/>
<path fill="none" stroke="#000000" stroke-width="2" d="M7.837,37.577l-4.22,0.604"/>
<path fill="none" stroke="#000000" stroke-width="2" d="M7.837,39.99h-4.22"/>
<path fill="none" stroke="#000000" stroke-width="2" d="M7.837,38.985h-4.22"/>
<path fill="#7F7F7F" d="M17.08,48.629v-3.014h5.425v3.014H17.08z"/>
<path fill="#999999" d="M17.281,48.629v-3.014h4.822v3.014H17.281z"/>
<path fill="#B2B2B2" d="M17.884,48.629v-3.014h3.818v3.014H17.884z"/>
<path fill="#CCCCCC" d="M18.487,48.629v-3.014h2.411v3.014H18.487z"/>
<path fill="#E5E5E5" d="M19.089,48.629v-3.014h1.205v3.014H19.089z"/>
<path fill="#FFFFFF" d="M19.692,48.629v-3.014h0.201v3.014H19.692z"/>
<path fill="none" stroke="#000000" stroke-width="2" d="M17.08,48.629v-3.014h5.425v3.014H17.08"/>
<path fill="#7F7F7F" d="M17.08,52.649v-3.216h5.425v3.216H17.08z"/>
<path fill="#999999" d="M17.281,52.649v-3.216h4.822v3.216H17.281z"/>
<path fill="#B2B2B2" d="M17.884,52.649v-3.216h3.818v3.216H17.884z"/>
<path fill="#CCCCCC" d="M18.487,52.649v-3.216h2.411v3.216H18.487z"/>
<path fill="#E5E5E5" d="M19.089,52.649v-3.216h1.205v3.216H19.089z"/>
<path fill="#FFFFFF" d="M19.692,52.649v-3.216h0.201v3.216H19.692z"/>
<path fill="none" stroke="#000000" stroke-width="2" d="M17.08,52.649v-3.216h5.425v3.216H17.08"/>
<path fill="#7F7F7F" d="M16.678,55.662v-3.215h6.229v3.215H16.678z"/>
<path fill="#999999" d="M17.08,55.662v-3.215h5.425v3.215H17.08z"/>
<path fill="#B2B2B2" d="M17.683,55.662v-3.215h4.22v3.215H17.683z"/>
<path fill="#CCCCCC" d="M18.487,55.662v-3.215h2.612v3.215H18.487z"/>
<path fill="#E5E5E5" d="M19.089,55.662v-3.215h1.406v3.215H19.089z"/>
<path fill="#FFFFFF" d="M19.692,55.662v-3.215h0.201v3.215H19.692z"/>
<path fill="none" stroke="#000000" stroke-width="2" d="M16.678,55.662v-3.215h6.229v3.215H16.678"/>
<path fill="#CCCCCC" stroke="#000000" stroke-width="2" d="M18.085,56.466h3.417v47.021h-3.417V56.466z"/>
<path fill="#FFFFFF" d="M19.089,56.466h1.406v47.021h-1.406V56.466z"/>
</svg>
