<?xml version="1.0" encoding="utf-8"?>
<!-- Generator: Adobe Illustrator 14.0.0, SVG Export Plug-In . SVG Version: 6.00 Build 43363)  -->
<!DOCTYPE svg PUBLIC "-//W3C//DTD SVG 1.1//EN" "http://www.w3.org/Graphics/SVG/1.1/DTD/svg11.dtd">
<svg version="1.1" id="图层_1" xmlns="http://www.w3.org/2000/svg" xmlns:xlink="http://www.w3.org/1999/xlink" x="0px" y="0px"
	 width="104.897px" height="106.502px" viewBox="0 0 104.897 106.502" enable-background="new 0 0 104.897 106.502"
	 xml:space="preserve">
<path fill="#7F7F7F" stroke="#000000" stroke-width="2" d="M86.649,19.21l0.746-0.106l1.389,0.32l0.746,0.427l0.747,0.533
	l0.64,0.747l0.534,0.854l0.427,0.854l0.32,1.067l0.213,0.961v0.96l-0.106,0.854l-0.214,0.854l-0.854,1.174l-1.387,0.534l-1.387-0.32
	l-0.748-0.32l-0.64-0.64l-0.64-0.747l-0.534-0.747l-0.534-0.961l-0.32-1.066l-0.105-0.961v-0.96l0.105-0.961l0.534-1.387
	l0.534-0.641L86.649,19.21z"/>
<ellipse fill="#7F7F7F" stroke="#000000" stroke-width="2" cx="90.384" cy="29.882" rx="0.854" ry="5.229"/>
<ellipse fill="#7F7F7F" stroke="#000000" stroke-width="2" cx="90.491" cy="36.925" rx="3.521" ry="5.229"/>
<ellipse fill="#7F7F7F" stroke="#000000" stroke-width="2" cx="90.384" cy="43.007" rx="0.854" ry="5.229"/>
<ellipse fill="#7F7F7F" stroke="#000000" stroke-width="2" cx="90.491" cy="50.05" rx="3.521" ry="5.229"/>
<ellipse fill="#7F7F7F" stroke="#000000" stroke-width="2" cx="90.384" cy="56.239" rx="0.854" ry="5.229"/>
<ellipse fill="#7F7F7F" stroke="#000000" stroke-width="2" cx="90.491" cy="63.176" rx="3.521" ry="5.229"/>
<ellipse fill="#7F7F7F" stroke="#000000" stroke-width="2" cx="90.384" cy="69.365" rx="0.854" ry="5.229"/>
<ellipse fill="#7F7F7F" stroke="#000000" stroke-width="2" cx="90.491" cy="76.407" rx="3.521" ry="5.229"/>
<ellipse fill="#7F7F7F" stroke="#000000" stroke-width="2" cx="90.384" cy="82.49" rx="0.854" ry="5.229"/>
<path fill="#7F7F7F" stroke="#000000" stroke-width="2" d="M91.771,85.051l1.067,0.96l0.32,0.641l0.319,0.854v0.961v0.96
	l-0.319,0.961l-0.32,0.96l-0.534,0.961l-0.64,0.746l-0.641,0.747l-0.747,0.534l-1.493,0.533l-1.389-0.214l-1.066-0.96L85.902,92.2
	l-0.106-0.747l0.106-0.96l0.106-1.067l0.428-0.96l0.533-0.961l0.533-0.854l0.747-0.641l0.64-0.533l0.748-0.427l0.746-0.106
	L91.771,85.051z"/>
<path fill="#7F7F7F" stroke="#000000" stroke-width="2" d="M67.655,78.541h0.746l1.388,0.428l0.64,0.533l0.641,0.747l0.533,0.747
	l0.428,0.854l0.213,1.067l0.213,1.066v0.961l-0.105,0.96l-0.214,0.854l-0.427,0.747l-0.961,1.067l-1.387,0.32l-1.388-0.534
	l-0.64-0.427l-0.641-0.747l-0.427-0.746l-0.534-0.961l-0.213-1.067l-0.213-1.066v-0.961l0.105-0.96l0.214-0.854l0.854-1.281
	l0.533-0.533L67.655,78.541z"/>
<path fill="#7F7F7F" stroke="#000000" stroke-width="2" d="M68.722,85.371l0.213,0.106l0.534,0.747l0.534,1.28l0.213,0.854
	l0.32,0.961l0.32,1.067l0.213,1.066l0.107,0.961l0.105,0.854l0.107,0.747l-0.107,1.174v0.32l-0.213,0.213l-0.106-0.106l-0.534-0.747
	l-0.533-1.28l-0.32-0.854l-0.213-0.961l-0.32-1.067l-0.213-1.066l-0.107-0.961l-0.106-0.854l-0.106-1.494l0.106-0.747L68.722,85.371
	z"/>
<path fill="#7F7F7F" stroke="#000000" stroke-width="2" d="M68.829,91.88l1.066-0.854l1.601-0.32l0.854,0.107l0.96,0.213l0.96,0.427
	l0.854,0.427l0.854,0.747l0.641,0.747l0.641,0.747l0.32,0.854l0.213,0.854l0.107,0.641l-0.428,1.494l-1.066,0.854l-1.602,0.214
	H73.95l-0.96-0.32l-0.96-0.427l-0.854-0.534l-0.854-0.64l-0.64-0.747l-0.641-0.854l-0.32-0.747l-0.32-1.601L68.829,91.88z"/>
<path fill="#7F7F7F" stroke="#000000" stroke-width="2" d="M73.844,95.295h0.214l0.854,0.106l1.28,0.641l0.747,0.427l0.854,0.533
	l0.854,0.641l0.854,0.641l0.854,0.64l0.64,0.534l1.067,1.066l0.427,0.641v0.214l-0.213,0.106l-0.747-0.214l-1.28-0.64l-0.854-0.427
	l-0.854-0.534l-0.854-0.533l-0.854-0.641l-0.747-0.64l-0.747-0.534l-1.067-1.066l-0.32-0.32l-0.106-0.427V95.295z"/>
<ellipse fill="#7F7F7F" stroke="#000000" stroke-width="2" cx="82.595" cy="100.097" rx="5.229" ry="3.521"/>
<path fill="#7F7F7F" stroke="#000000" stroke-width="2" d="M88.144,91.561l0.106,0.106l-0.214,1.494l-0.106,0.747l-0.319,0.96
	l-0.32,0.854l-0.428,1.067l-0.426,0.854l-0.428,0.961l-0.533,0.746l-0.747,1.174l-0.534,0.641l-0.213,0.106l-0.106-0.213
	l-0.106-0.32l0.213-1.174l0.213-0.854l0.214-0.747l0.427-0.961l0.32-0.96l0.427-0.96l0.534-0.961l0.426-0.747l0.428-0.747
	l0.641-0.854l0.319-0.213H88.144z"/>
<path fill="#E5E5E5" stroke="#000000" stroke-width="2" d="M48.447,56.346l-3.095-0.106l-3.415-0.641l-0.854-0.427l-0.533-0.641
	V16.863l11.418-5.229l2.561,2.881l2.562,2.882l2.561,2.774l2.561,2.881l2.562,2.881l2.562,2.882l2.561,2.774l2.668,2.881
	l2.561,2.774l2.455,2.882l2.668,2.881l2.561,2.774l2.561,2.881l2.562,2.774l2.562,2.882l1.28,1.387l1.28,1.494h-0.961l-3.414-0.427
	l-3.309-0.32l-3.308-0.106H48.447z"/>
<path fill="#CCCCCC" stroke="#000000" stroke-width="2" d="M84.302,78.222V56.24l-3.201-0.214l-3.309-0.213l-3.521-0.214
	l-3.414-0.106h-1.174h-1.174h-1.174h-3.309h-3.309l-3.201,0.106l-3.094,0.214l-3.095,0.213l-1.067,0.106L49.3,56.24v21.982
	l2.988,0.319l3.095,0.107l3.202,0.213l3.307,0.107h1.068h1.066h1.067h3.415l3.521-0.107l3.414-0.106l3.415-0.106l3.308-0.214
	l1.067-0.106L84.302,78.222z"/>
<path fill="#E5E5E5" d="M56.343,56.24h21.022v22.089H56.343V56.24z"/>
<path fill="#4C4C4C" stroke="#000000" stroke-width="2" d="M40.55,23.479h-3.521v24.544h3.521V23.479z"/>
<path fill="#4C4C4C" stroke="#000000" stroke-width="2" d="M29.132,33.51H14.299v5.229h14.833V33.51z"/>
<path fill="none" stroke="#000000" stroke-width="2" d="M39.696,46.635V24.653"/>
<path fill="#7F7F7F" d="M92.198,57.093l0.641-0.534L50.794,11.847l-1.174,1.174l42.044,44.605L92.198,57.093z"/>
<path fill="#E5E5E5" stroke="#000000" stroke-width="2" d="M14.299,39.592H9.07v-7.043h5.229V39.592z"/>
<path fill="#E5E5E5" stroke="#000000" stroke-width="2" d="M24.757,40.446h-8.75v-9.604h8.75V40.446z"/>
<path fill="#E5E5E5" stroke="#000000" stroke-width="2" d="M37.029,50.156h-7.897V21.345h7.897V50.156z"/>
<path fill="#E5E5E5" stroke="#000000" stroke-width="2" d="M101.909,51.544l-2.668,2.881L97,56.346l-1.174,0.854l-0.96,0.854h-0.428
	l-0.96-0.427l-0.427-0.213l-2.668-2.882l-2.668-2.881l-2.668-2.881l-2.773-2.882l-2.668-2.881l-2.668-2.881l-2.774-2.882
	l-2.668-2.881l-2.667-2.881l-2.668-2.882l-2.775-2.881l-2.668-2.882l-2.667-2.881l-2.668-2.881l-2.667-2.882l-2.668-2.881
	l-0.64-1.174L49.3,9.82V9.393l2.028-1.921l2.027-2.134l2.454-2.241l0.641-0.213l1.066,0.747l3.201,1.92l3.096,1.814l2.348,1.601
	l2.561,1.707l2.881,2.135l3.415,2.774l2.028,1.601l4.481-3.095L92.198,25.72l-1.601,2.134l-1.601,2.135l2.774,3.948l2.241,3.308
	l1.813,2.882l1.388,2.561l1.814,3.308l1.6,3.202l0.641,1.174L101.909,51.544z"/>
<path fill="#7F7F7F" stroke="#000000" stroke-width="2" d="M9.07,37.671H2.881v-3.308H9.07V37.671z"/>
<path fill="#CCCCCC" d="M57.517,4.164l18.889,13.552l11.951,12.806l12.379,19.635L57.517,4.164z"/>
<path fill="#B2B2B2" stroke="#000000" stroke-width="2" d="M24.757,39.592l-0.854-3.628l0.106-0.641l0.747-3.628V39.592z"/>
<path fill="#B2B2B2" stroke="#000000" stroke-width="2" d="M16.007,39.592l0.854-3.628v-0.641l-0.854-3.628V39.592z"/>
<path fill="#B2B2B2" stroke="#000000" stroke-width="2" d="M9.07,38.952l0.427-2.562v-0.533L9.07,33.296V38.952z"/>
<path fill="#B2B2B2" stroke="#000000" stroke-width="2" d="M14.299,38.952l-0.534-2.562l0.107-0.533l0.427-2.562V38.952z"/>
<path fill="none" stroke="#000000" stroke-width="2" d="M16.86,36.071h7.043"/>
<path fill="none" stroke="#000000" stroke-width="2" d="M9.604,36.497h4.162"/>
<path fill="#B2B2B2" stroke="#000000" stroke-width="2" d="M29.132,37.885h7.897V50.05h-7.897V37.885z"/>
</svg>
