<?xml version="1.0" encoding="utf-8"?>
<!-- Generator: Adobe Illustrator 14.0.0, SVG Export Plug-In . SVG Version: 6.00 Build 43363)  -->
<!DOCTYPE svg PUBLIC "-//W3C//DTD SVG 1.1//EN" "http://www.w3.org/Graphics/SVG/1.1/DTD/svg11.dtd">
<svg version="1.1" id="图层_1" xmlns="http://www.w3.org/2000/svg" xmlns:xlink="http://www.w3.org/1999/xlink" x="0px" y="0px"
	 width="31.125px" height="106.502px" viewBox="0 0 31.125 106.502" enable-background="new 0 0 31.125 106.502"
	 xml:space="preserve">
<path fill="#7F7F7F" stroke="#000000" stroke-width="2" d="M9.274,2.991h12.471v75.363H9.274V2.991z"/>
<path fill="#7F7F7F" stroke="#000000" stroke-width="2" d="M2.985,23.352h25.049v4.689H2.985V23.352z"/>
<path fill="#7F7F7F" stroke="#000000" stroke-width="2" d="M2.985,10.774h25.049v4.797H2.985V10.774z"/>
<path fill="#FFFFFF" stroke="#000000" stroke-width="2" d="M7.675,10.774h15.669v4.797H7.675V10.774z"/>
<path fill="#FFFFFF" stroke="#000000" stroke-width="2" d="M7.675,23.352h15.669v4.689H7.675V23.352z"/>
<path fill="none" stroke="#000000" stroke-width="2" d="M9.274,56.289h12.471v7.888H9.274V56.289"/>
<path fill="none" stroke="#000000" stroke-width="2" d="M9.274,57.888h12.471v4.69H9.274V57.888"/>
<path fill="none" stroke="#000000" stroke-width="2" d="M9.274,59.487h12.471v1.6H9.274V59.487"/>
<path fill="#00FF00" stroke="#000000" stroke-width="2" d="M9.274,65.776h12.471v10.979H9.274V65.776z"/>
<path fill="none" stroke="#FFFFFF" stroke-width="2" d="M10.766,73.558h9.487"/>
<path fill="none" stroke="#FFFFFF" stroke-width="2" d="M10.766,72.066h9.487"/>
<path fill="#7F7F7F" stroke="#000000" stroke-width="2" d="M13.964,78.355h3.091v25.049h-3.091V78.355z"/>
<path fill="none" stroke="#000000" stroke-width="2" d="M18.654,103.404l-6.29-3.091l6.29-3.198l-7.888-3.091l9.487-3.198
	l-9.487-3.091l9.487-3.091L9.274,81.446l12.471-3.091"/>
</svg>
