<?xml version="1.0" encoding="utf-8"?>
<!-- Generator: Adobe Illustrator 14.0.0, SVG Export Plug-In . SVG Version: 6.00 Build 43363)  -->
<!DOCTYPE svg PUBLIC "-//W3C//DTD SVG 1.1//EN" "http://www.w3.org/Graphics/SVG/1.1/DTD/svg11.dtd">
<svg version="1.1" id="图层_1" xmlns="http://www.w3.org/2000/svg" xmlns:xlink="http://www.w3.org/1999/xlink" x="0px" y="0px"
	 width="98.187px" height="106.502px" viewBox="0 0 98.187 106.502" enable-background="new 0 0 98.187 106.502"
	 xml:space="preserve">
<path fill="#F0F0F0" stroke="#000000" stroke-width="2" d="M14.712,87.74h68.763v12.366H14.712V87.74z"/>
<path fill="#B2B2B2" d="M14.712,95.735h68.763v3.838H14.712V95.735z"/>
<path fill="#F0F0F0" stroke="#000000" stroke-width="2" d="M22.494,87.74h53.197V72.281H22.494V87.74z"/>
<path fill="#7F7F7F" d="M77.078,87.74h-1.387V72.281l1.387-1.813V87.74z"/>
<path fill="#7F7F7F" stroke="#000000" stroke-width="2" d="M24.094,70.468h53.197l-1.6,1.813H22.494L24.094,70.468z"/>
<path fill="#7F7F7F" stroke="#000000" stroke-width="2" d="M33.368,61.62h31.449v10.447H33.368V61.62z"/>
<path fill="#F0F0F0" stroke="#000000" stroke-width="2" d="M36.14,61.62h25.906v10.447H36.14V61.62z"/>
<path fill="#7F7F7F" d="M14.712,84.327H2.878v19.189h11.834V84.327z"/>
<path fill="#7F7F7F" d="M95.095,84.327h-11.62v19.189h11.62V84.327z"/>
<path fill="#949494" d="M14.712,85.073H3.092v15.885h11.62V85.073z"/>
<path fill="#949494" d="M95.308,85.073H83.475v15.885h11.833V85.073z"/>
<path fill="#ABABAB" d="M14.712,85.713H3.092V98.72h11.62V85.713z"/>
<path fill="#ABABAB" d="M95.308,85.713H83.475V98.72h11.833V85.713z"/>
<path fill="#BFBFBF" d="M14.712,86.46H3.092v10.021h11.62V86.46z"/>
<path fill="#BFBFBF" d="M95.308,86.46H83.475v10.021h11.833V86.46z"/>
<path fill="#D4D4D4" d="M14.712,87.1H3.092v7.036h11.62V87.1z"/>
<path fill="#D4D4D4" d="M95.308,87.1H83.475v7.036h11.833V87.1z"/>
<path fill="#EBEBEB" d="M14.712,87.74H3.092v3.944h11.62V87.74z"/>
<path fill="#EBEBEB" d="M95.308,87.74H83.475v3.944h11.833V87.74z"/>
<path fill="#FFFFFF" d="M14.712,88.486H2.878v0.853h11.834V88.486z"/>
<path fill="#FFFFFF" d="M95.095,88.486h-11.62v0.853h11.62V88.486z"/>
<path fill="none" stroke="#000000" stroke-width="2" d="M19.509,90.938h59.808"/>
<path fill="none" stroke="#000000" stroke-width="2" d="M22.707,93.922h50.746"/>
<path fill="none" stroke="#000000" stroke-width="2" d="M17.91,97.12h59.381"/>
<path fill="none" stroke="#000000" stroke-width="2" d="M14.712,84.327H2.878v19.189h11.834V84.327"/>
<path fill="none" stroke="#000000" stroke-width="2" d="M95.095,84.327h-11.62v19.189h11.62V84.327"/>
<path fill="#0000BF" d="M21.855,43.603h55.224V61.62H21.855V43.603z"/>
<path fill="#0000C9" d="M24.307,43.603h46.161V61.62H24.307V43.603z"/>
<path fill="#0000D4" d="M26.759,43.603h37.1V61.62h-37.1V43.603z"/>
<path fill="#1F1FDE" d="M29.318,43.603h28.251V61.62H29.318V43.603z"/>
<path fill="#4040EB" d="M31.77,43.603h19.189V61.62H31.77V43.603z"/>
<path fill="#6161F5" d="M34.328,43.603h10.021V61.62H34.328V43.603z"/>
<path fill="#7F7FFF" d="M36.78,43.603h0.96V61.62h-0.96V43.603z"/>
<path fill="none" stroke="#000000" stroke-width="2" d="M21.855,43.603h55.224V61.62H21.855V43.603"/>
<path fill="#0000AD" stroke="#000000" stroke-width="2" d="M37.74,43.603h23.454v-4.264H37.74V43.603z"/>
<path fill="#0000AD" stroke="#000000" stroke-width="2" d="M16.525,15.885h60.767v23.454H16.525V15.885z"/>
<path fill="#0000AD" stroke="#000000" stroke-width="2" d="M81.236,12.9l-3.944,2.985v23.454l3.944-2.985V12.9z"/>
<path fill="#7F7FFF" stroke="#000000" stroke-width="2" d="M16.525,15.885h60.767V5.864H16.525V15.885z"/>
<path fill="#7F7FFF" stroke="#000000" stroke-width="2" d="M81.236,12.9l-3.944,2.985V5.864l3.944-2.984V12.9z"/>
<path fill="#0000BF" stroke="#000000" stroke-width="2" d="M20.469,2.879h60.767l-3.944,2.984H16.525L20.469,2.879z"/>
<path fill="#E0E0E0" stroke="#000000" stroke-width="2" d="M25.159,22.281h40.085v10.021H25.159V22.281z"/>
<path fill="none" stroke="#000000" stroke-width="2" d="M27.932,24.52h20.042"/>
<path fill="none" stroke="#000000" stroke-width="2" d="M37.1,26.759h14.712"/>
<path fill="none" stroke="#000000" stroke-width="2" d="M29.318,29.318h20.895"/>
<path fill="none" stroke="#000000" stroke-width="2" d="M55.969,25.48h7.25"/>
<path fill="none" stroke="#000000" stroke-width="2" d="M55.969,29.318h6.077"/>
</svg>
