<?xml version="1.0" encoding="utf-8"?>
<!-- Generator: Adobe Illustrator 14.0.0, SVG Export Plug-In . SVG Version: 6.00 Build 43363)  -->
<!DOCTYPE svg PUBLIC "-//W3C//DTD SVG 1.1//EN" "http://www.w3.org/Graphics/SVG/1.1/DTD/svg11.dtd">
<svg version="1.1" id="图层_1" xmlns="http://www.w3.org/2000/svg" xmlns:xlink="http://www.w3.org/1999/xlink" x="0px" y="0px"
	 width="70.574px" height="106.502px" viewBox="0 0 70.574 106.502" enable-background="new 0 0 70.574 106.502"
	 xml:space="preserve">
<path fill="#7F7F7F" stroke="#000000" stroke-width="2" d="M4.691,67.59v16.098l25.159,1.706h10.768l25.159-1.706V67.59H4.691z"/>
<path stroke="#000000" stroke-width="2" d="M2.985,10.128H67.59V67.59H2.985V10.128z"/>
<path fill="#FFFF00" stroke="#000000" stroke-width="2" d="M2.985,2.986H67.59v7.143H2.985V2.986z"/>
<path fill="none" stroke="#000000" stroke-width="2" d="M29.85,69.296h10.768v14.392H29.85V69.296"/>
<path stroke="#000000" stroke-width="2" d="M24.52,72.92h3.624v10.768H24.52V72.92z"/>
<path stroke="#000000" stroke-width="2" d="M42.429,72.92h3.625v10.768h-3.625V72.92z"/>
<circle stroke="#000000" stroke-width="2" cx="13.646" cy="74.733" r="5.33"/>
<circle stroke="#000000" stroke-width="2" cx="56.716" cy="74.733" r="5.33"/>
<path fill="#FFFF00" stroke="#000000" stroke-width="2" d="M8.315,13.647h8.955v3.624H8.315V13.647z"/>
<path fill="none" stroke="#FFFF00" stroke-width="2" d="M8.315,20.896h37.739"/>
<path fill="none" stroke="#FFFF00" stroke-width="2" d="M8.315,24.521h23.348"/>
<path fill="#FFFF00" stroke="#000000" stroke-width="2" d="M19.083,13.647h21.535v3.624H19.083V13.647z"/>
<path fill="none" stroke="#000000" stroke-width="2" d="M24.52,83.688L6.503,81.875"/>
<path fill="none" stroke="#000000" stroke-width="2" d="M46.054,83.688l17.91-1.813"/>
<circle stroke="#000000" stroke-width="2" cx="35.501" cy="76.225" r="3.198"/>
<circle fill="none" stroke="#000000" stroke-width="2" cx="35.501" cy="76.332" r="3.838"/>
<path fill="#7F7F7F" stroke="#000000" stroke-width="2" d="M29.85,85.5h10.768v17.91H29.85V85.5z"/>
<path fill="none" stroke="#000000" stroke-width="2" d="M28.038,92.643l14.392-1.813"/>
<path fill="none" stroke="#000000" stroke-width="2" d="M28.038,94.455l14.392-1.813"/>
<path fill="none" stroke="#000000" stroke-width="2" d="M28.038,96.268l14.392-1.813"/>
<path fill="none" stroke="#000000" stroke-width="2" d="M28.038,98.08l14.392-1.813"/>
<path fill="none" stroke="#000000" stroke-width="2" d="M28.038,99.892l14.392-1.812"/>
<path fill="none" stroke="#000000" stroke-width="2" d="M28.038,101.704l14.392-1.813"/>
<path fill="none" stroke="#FFFF00" stroke-width="2" d="M8.315,62.153h30.49"/>
</svg>
