<?xml version="1.0" encoding="utf-8"?>
<!-- Generator: Adobe Illustrator 14.0.0, SVG Export Plug-In . SVG Version: 6.00 Build 43363)  -->
<!DOCTYPE svg PUBLIC "-//W3C//DTD SVG 1.1//EN" "http://www.w3.org/Graphics/SVG/1.1/DTD/svg11.dtd">
<svg version="1.1" id="图层_1" xmlns="http://www.w3.org/2000/svg" xmlns:xlink="http://www.w3.org/1999/xlink" x="0px" y="0px"
	 width="36.245px" height="106.502px" viewBox="0 0 36.245 106.502" enable-background="new 0 0 36.245 106.502"
	 xml:space="preserve">
<path fill="#FFFFFF" stroke="#000000" stroke-width="2" d="M5.863,2.881v48.824l3.091,24.306H27.29l3.092-24.412V2.881H5.863z"/>
<path fill="#7F7F7F" stroke="#000000" stroke-width="2" d="M24.306,73.132l2.984-21.427V5.866h-6.076v45.839l-0.106,21.427H24.306z"
	/>
<path fill="#FFFFFF" stroke="#000000" stroke-width="2" d="M2.878,33.369h30.488v18.336H2.878V33.369z"/>
<path fill="#FFFFFF" stroke="#000000" stroke-width="2" d="M2.878,8.958h30.488v18.335H2.878V8.958z"/>
<path fill="#FFFF00" stroke="#000000" stroke-width="2" d="M8.955,76.117l-3.091,3.092l3.091,2.878v15.351L5.97,100.53l2.985,2.984
	H27.29l3.092-2.984l-3.092-3.092V82.087l3.092-2.985l-3.092-2.984H8.955z"/>
<path fill="none" stroke="#000000" stroke-width="2" d="M12.046,82.194h12.26"/>
<path fill="none" stroke="#000000" stroke-width="2" d="M12.046,97.544h12.26"/>
</svg>
