<?xml version="1.0" encoding="utf-8"?>
<!-- Generator: Adobe Illustrator 14.0.0, SVG Export Plug-In . SVG Version: 6.00 Build 43363)  -->
<!DOCTYPE svg PUBLIC "-//W3C//DTD SVG 1.1//EN" "http://www.w3.org/Graphics/SVG/1.1/DTD/svg11.dtd">
<svg version="1.1" id="图层_1" xmlns="http://www.w3.org/2000/svg" xmlns:xlink="http://www.w3.org/1999/xlink" x="0px" y="0px"
	 width="47.866px" height="106.502px" viewBox="0 0 47.866 106.502" enable-background="new 0 0 47.866 106.502"
	 xml:space="preserve">
<path fill="#FFFF00" stroke="#000000" stroke-width="2" d="M2.878,2.88h42.109v96.052H2.878V2.88z"/>
<path fill="none" stroke="#000000" stroke-width="2" d="M4.371,34.436h39.125"/>
<path stroke="#000000" stroke-width="2" d="M11.94,37.42v7.569H4.371v44.987l7.569-0.106v7.568h23.986v-7.462h7.569V44.883h-7.569
	V37.42H11.94z"/>
<ellipse stroke="#000000" stroke-width="2" cx="41.043" cy="94.454" rx="2.345" ry="2.985"/>
<ellipse stroke="#000000" stroke-width="2" cx="6.716" cy="40.405" rx="2.345" ry="2.985"/>
<circle stroke="#000000" stroke-width="2" cx="41.149" cy="39.659" r="2.239"/>
<circle stroke="#000000" stroke-width="2" cx="6.609" cy="95.2" r="2.239"/>
<path fill="#FFFF00" stroke="#000000" stroke-width="2" d="M10.447,98.932h26.972v4.584H10.447V98.932z"/>
<circle fill="none" stroke="#000000" stroke-width="2" cx="40.51" cy="19.404" r="1.493"/>
<circle fill="#00FF00" stroke="#000000" stroke-width="2" cx="20.895" cy="53.838" r="1.493"/>
<circle fill="#FF0000" stroke="#000000" stroke-width="2" cx="26.972" cy="53.944" r="1.493"/>
<circle fill="#7F7F7F" stroke="#000000" stroke-width="2" cx="8.208" cy="48.614" r="2.239"/>
<path fill="none" stroke="#000000" stroke-width="2" d="M5.97,48.721h4.478"/>
<path fill="none" stroke="#000000" stroke-width="2" d="M8.208,50.959v-4.478"/>
<circle fill="#7F7F7F" stroke="#000000" stroke-width="2" cx="39.764" cy="48.614" r="2.239"/>
<path fill="none" stroke="#000000" stroke-width="2" d="M38.165,50.32l3.197-3.198"/>
<path fill="none" stroke="#000000" stroke-width="2" d="M41.362,50.32l-3.197-3.198"/>
<circle fill="#7F7F7F" stroke="#000000" stroke-width="2" cx="23.879" cy="93.601" r="2.239"/>
<path fill="none" stroke="#000000" stroke-width="2" d="M21.748,93.708h4.477"/>
<path fill="none" stroke="#000000" stroke-width="2" d="M23.879,95.947v-4.478"/>
<path fill="#FFFF00" stroke="#000000" stroke-width="2" d="M10.447,56.929h26.972v1.492H10.447V56.929z"/>
<path fill="none" stroke="#FFFF00" stroke-width="2" d="M10.447,59.914h18.017"/>
<path fill="none" stroke="#FFFF00" stroke-width="2" d="M10.447,65.884H32.94"/>
<path fill="none" stroke="#FFFF00" stroke-width="2" d="M10.447,68.976h7.462"/>
<path fill="none" stroke="#FFFF00" stroke-width="2" d="M10.447,67.483h25.479"/>
<path stroke="#000000" stroke-width="2" d="M10.447,98.932h26.972v0.64H10.447V98.932z"/>
</svg>
