<?xml version="1.0" encoding="utf-8"?>
<!-- Generator: Adobe Illustrator 14.0.0, SVG Export Plug-In . SVG Version: 6.00 Build 43363)  -->
<!DOCTYPE svg PUBLIC "-//W3C//DTD SVG 1.1//EN" "http://www.w3.org/Graphics/SVG/1.1/DTD/svg11.dtd">
<svg version="1.1" id="图层_1" xmlns="http://www.w3.org/2000/svg" xmlns:xlink="http://www.w3.org/1999/xlink" x="0px" y="0px"
	 width="35.604px" height="106.502px" viewBox="0 0 35.604 106.502" enable-background="new 0 0 35.604 106.502"
	 xml:space="preserve">
<path fill="#999999" d="M24.624,101.167l-2.451-0.959l-0.959-2.452l0.959-2.451l2.451-0.96l2.452,0.96l0.96,2.451l-0.96,2.452
	L24.624,101.167v2.238h7.995V2.99H2.985v100.416h7.995v-2.238l-2.452-0.959l-1.066-2.452l1.066-2.451l2.452-0.96l2.345,0.96
	l1.066,2.451l-1.066,2.452l-2.345,0.959v2.238h13.645V101.167z"/>
<path fill="none" stroke="#000000" stroke-width="2" d="M32.619,103.406V2.99H2.985v100.416H32.619"/>
<path fill="none" stroke="#000000" stroke-width="2" d="M28.036,97.756l-0.96,2.452l-2.452,0.959l-2.451-0.959l-0.959-2.452
	l0.959-2.451l2.451-1.066l2.452,1.066L28.036,97.756"/>
<path fill="none" stroke="#000000" stroke-width="2" d="M14.391,97.756l-0.959,2.452l-2.452,0.959l-2.452-0.959l-1.066-2.452
	l1.066-2.451l2.452-1.066l2.452,1.066L14.391,97.756"/>
<path fill="#E5E5E5" d="M32.087,28.04v41.041l-2.453,0.959l-0.959,2.452l0.959,2.452l2.453,1.065V92H7.462V5.229h24.625v15.989
	l-2.453,0.96l-0.959,2.451l0.959,2.452L32.087,28.04z"/>
</svg>
