<?xml version="1.0" encoding="utf-8"?>
<!-- Generator: Adobe Illustrator 14.0.0, SVG Export Plug-In . SVG Version: 6.00 Build 43363)  -->
<!DOCTYPE svg PUBLIC "-//W3C//DTD SVG 1.1//EN" "http://www.w3.org/Graphics/SVG/1.1/DTD/svg11.dtd">
<svg version="1.1" id="图层_1" xmlns="http://www.w3.org/2000/svg" xmlns:xlink="http://www.w3.org/1999/xlink" x="0px" y="0px"
	 width="81.339px" height="106.502px" viewBox="0 0 81.339 106.502" enable-background="new 0 0 81.339 106.502"
	 xml:space="preserve">
<path fill="#FFFF00" stroke="#000000" stroke-width="2" d="M15.564,2.988h50.21v100.421h-50.21V2.988z"/>
<path fill="none" stroke="#000000" stroke-width="2" d="M18.656,56.289h44.027v44.027H18.656V56.289"/>
<path fill="none" stroke="#000000" stroke-width="2" d="M21.747,65.778h37.738v25.052H21.747V65.778"/>
<circle fill="#7F7F7F" stroke="#000000" stroke-width="2" cx="23.346" cy="60.98" r="3.091"/>
<path fill="none" stroke="#000000" stroke-width="2" d="M23.346,64.178v-6.289"/>
<path fill="none" stroke="#000000" stroke-width="2" d="M20.255,61.086h6.29"/>
<circle fill="#7F7F7F" stroke="#000000" stroke-width="2" cx="57.886" cy="60.98" r="3.091"/>
<path fill="none" stroke="#000000" stroke-width="2" d="M59.378,63.751l-3.092-5.437"/>
<path fill="none" stroke="#000000" stroke-width="2" d="M55.114,62.579l5.437-3.092"/>
<circle fill="#7F7F7F" stroke="#000000" stroke-width="2" cx="23.346" cy="95.519" r="3.091"/>
<path fill="none" stroke="#000000" stroke-width="2" d="M25.585,97.758l-4.478-4.371"/>
<path fill="none" stroke="#000000" stroke-width="2" d="M21.107,97.758l4.478-4.371"/>
<circle fill="#7F7F7F" stroke="#000000" stroke-width="2" cx="57.886" cy="95.519" r="3.091"/>
<path fill="none" stroke="#000000" stroke-width="2" d="M57.886,98.718v-6.29"/>
<path fill="none" stroke="#000000" stroke-width="2" d="M54.794,95.52h6.29"/>
<path fill="none" stroke="#000000" stroke-width="2" d="M18.656,53.198l2.452-1.065l2.559-0.96l2.665-0.746l2.771-0.746l2.878-0.533
	l2.878-0.319l2.878-0.214l1.492-0.106l4.371,0.106l2.879,0.214l2.878,0.319l2.771,0.533l2.772,0.746l2.664,0.746l2.559,0.96
	l2.452,1.065"/>
<ellipse stroke="#000000" stroke-width="2" cx="46.053" cy="52.345" rx="2.345" ry="0.746"/>
<path fill="#FF0000" stroke="#7F7F7F" stroke-width="2" d="M15.564,32.837h50.21v12.472h-50.21V32.837z"/>
<path fill="#FFFFFF" stroke="#FFFFFF" stroke-width="2" d="M17.057,34.329h17.27v3.198h-17.27V34.329z"/>
<path fill="none" stroke="#FFFFFF" stroke-width="2" d="M17.057,39.126h25.158"/>
<path fill="none" stroke="#FFFFFF" stroke-width="2" d="M17.057,40.618h12.579"/>
<path stroke="#000000" stroke-width="2" d="M72.063,15.567l3.412,1.066l2.345,2.771l0.533,2.346l-1.065,3.518l-2.772,2.346
	l-2.452,0.426H9.274l-3.518-1.065l-2.345-2.665L2.985,21.75l1.066-3.519l2.772-2.238l2.452-0.427H72.063z"/>
<circle fill="#7F7F7F" stroke="#000000" stroke-width="2" cx="9.168" cy="21.75" r="4.69"/>
<circle fill="#FFFF00" stroke="#000000" stroke-width="2" cx="9.274" cy="21.75" r="3.091"/>
<circle fill="#7F7F7F" stroke="#000000" stroke-width="2" cx="71.958" cy="21.75" r="4.69"/>
<circle fill="#FFFF00" stroke="#000000" stroke-width="2" cx="72.063" cy="21.75" r="3.091"/>
<path fill="none" stroke="#7F7F7F" stroke-width="2" d="M18.656,26.547V17.06h44.027"/>
<path fill="none" stroke="#FFFFFF" stroke-width="2" d="M18.656,26.547h44.027V17.06"/>
<path fill="none" stroke="#666666" stroke-width="2" d="M26.544,75.158h28.25"/>
<path fill="none" stroke="#7F7F7F" stroke-width="2" d="M28.037,76.757h25.159"/>
</svg>
