<?xml version="1.0" encoding="utf-8"?>
<!-- Generator: Adobe Illustrator 14.0.0, SVG Export Plug-In . SVG Version: 6.00 Build 43363)  -->
<!DOCTYPE svg PUBLIC "-//W3C//DTD SVG 1.1//EN" "http://www.w3.org/Graphics/SVG/1.1/DTD/svg11.dtd">
<svg version="1.1" id="图层_1" xmlns="http://www.w3.org/2000/svg" xmlns:xlink="http://www.w3.org/1999/xlink" x="0px" y="0px"
	 width="33.797px" height="106.502px" viewBox="0 0 33.797 106.502" enable-background="new 0 0 33.797 106.502"
	 xml:space="preserve">
<path fill="#FFFF00" stroke="#000000" stroke-width="2" d="M7.57,2.985h18.87v74.094H7.57V2.985z"/>
<path stroke="#000000" stroke-width="2" d="M2.986,16.844h27.825v4.691H2.986V16.844z"/>
<path stroke="#000000" stroke-width="2" d="M2.986,26.119h27.825v4.69H2.986V26.119z"/>
<path fill="none" stroke="#000000" stroke-width="2" d="M7.57,72.494h18.87"/>
<path fill="none" stroke="#000000" stroke-width="2" d="M7.57,70.149h18.87"/>
<path fill="none" stroke="#000000" stroke-width="2" d="M7.57,44.776h18.87"/>
<path fill="none" stroke="#000000" stroke-width="2" d="M7.57,42.43h18.87"/>
<path fill="none" stroke="#000000" stroke-width="2" d="M7.57,40.192h18.87"/>
<path fill="none" stroke="#000000" stroke-width="2" d="M7.57,37.952h18.87"/>
<path fill="none" stroke="#000000" stroke-width="2" d="M7.57,35.608h18.87"/>
<path fill="none" stroke="#000000" stroke-width="2" d="M7.57,33.262h18.87"/>
<path fill="none" stroke="#000000" stroke-width="2" d="M7.57,14.712h18.87"/>
<path fill="none" stroke="#000000" stroke-width="2" d="M7.57,12.473h18.87"/>
<path fill="none" stroke="#000000" stroke-width="2" d="M7.57,10.128h18.87"/>
<path fill="none" stroke="#000000" stroke-width="2" d="M7.57,7.782h18.87"/>
<path fill="none" stroke="#000000" stroke-width="2" d="M7.57,5.437h18.87"/>
<path fill="none" stroke="#000000" stroke-width="2" d="M7.57,67.91h18.87"/>
<path fill="none" stroke="#000000" stroke-width="2" d="M7.57,65.565h18.87"/>
<path fill="none" stroke="#000000" stroke-width="2" d="M7.57,63.219h18.87"/>
<path fill="none" stroke="#000000" stroke-width="2" d="M7.57,60.873h18.87"/>
<path fill="none" stroke="#000000" stroke-width="2" d="M7.57,58.741h18.87"/>
<path fill="none" stroke="#000000" stroke-width="2" d="M7.57,56.503h18.87"/>
<path fill="none" stroke="#000000" stroke-width="2" d="M7.57,54.157h18.87"/>
<path fill="none" stroke="#000000" stroke-width="2" d="M7.57,51.918h18.87"/>
<path fill="none" stroke="#000000" stroke-width="2" d="M7.57,49.467h18.87"/>
<path fill="none" stroke="#000000" stroke-width="2" d="M7.57,47.121h18.87"/>
<path fill="none" stroke="#000000" stroke-width="2" d="M7.57,23.88h18.87"/>
<path fill="#00FF00" stroke="#000000" stroke-width="2" d="M9.383,77.185h15.352h0.106v0.106h0.106v0.106v11.728l0,0l-0.106,0.106
	v0.106h-0.106H9.383H9.276L9.17,89.232v-0.106l0,0V77.398v-0.106l0,0l0.106-0.106H9.383z"/>
<path stroke="#000000" stroke-width="2" d="M9.276,89.338l1.386,4.798v7.676l12.687-0.106V94.03l1.599-4.691H9.276z"/>
<path fill="#FFFF00" stroke="#000000" stroke-width="2" d="M10.768,101.918l1.6,1.492h9.488l1.492-1.492H10.768z"/>
</svg>
