<?xml version="1.0" encoding="utf-8"?>
<!-- Generator: Adobe Illustrator 14.0.0, SVG Export Plug-In . SVG Version: 6.00 Build 43363)  -->
<!DOCTYPE svg PUBLIC "-//W3C//DTD SVG 1.1//EN" "http://www.w3.org/Graphics/SVG/1.1/DTD/svg11.dtd">
<svg version="1.1" id="图层_1" xmlns="http://www.w3.org/2000/svg" xmlns:xlink="http://www.w3.org/1999/xlink" x="0px" y="0px"
	 width="106.503px" height="106.502px" viewBox="0 0 106.503 106.502" enable-background="new 0 0 106.503 106.502"
	 xml:space="preserve">
<path fill="#00FFFF" stroke="#000000" stroke-width="2" d="M15.565,28.038H7.143v75.372h75.372V28.038h-8.422V23.88h12.58v-4.157
	h16.738v-8.422H86.673V7.143H2.985V23.88h12.58V28.038z"/>
<circle fill="#00FFFF" stroke="#000000" stroke-width="2" cx="44.776" cy="36.46" r="33.476"/>
<path fill="none" stroke="#000000" stroke-width="2" d="M86.673,13.433h14.713v4.157H86.673V13.433"/>
<path fill="none" stroke="#000000" stroke-width="2" d="M44.776,36.46l12.58-20.896"/>
<path fill="none" stroke="#000000" stroke-width="2" d="M30.17,36.46l0.106-1.492l0.213-1.493l0.32-1.386l0.533-1.279l0.64-1.279
	l0.746-1.279l0.853-1.065l0.853-1.066l1.066-0.96l1.172-0.853l1.173-0.746l1.279-0.64l1.386-0.427l1.386-0.427l1.386-0.213h1.493
	h1.599l1.386,0.213l1.386,0.427l1.386,0.427l1.279,0.64l1.173,0.746l1.172,0.853l1.066,0.96l0.853,1.066l0.853,1.065l0.746,1.279
	l0.641,1.279l0.426,1.279l0.427,1.386l0.214,1.493l0.105,1.492"/>
<path fill="none" stroke="#000000" stroke-width="2" d="M28.038,36.46l0.427-3.411l0.959-3.092l1.492-2.879l2.132-2.451l2.452-2.026
	l2.771-1.599l3.198-0.96l3.305-0.319l3.412,0.319l3.198,0.96l2.771,1.599l2.559,2.026l2.025,2.451l1.492,2.879l0.96,3.092
	l0.427,3.411"/>
<circle fill="none" stroke="#000000" stroke-width="2" cx="44.776" cy="36.46" r="31.343"/>
</svg>
