<?xml version="1.0" encoding="utf-8"?>
<!-- Generator: Adobe Illustrator 14.0.0, SVG Export Plug-In . SVG Version: 6.00 Build 43363)  -->
<!DOCTYPE svg PUBLIC "-//W3C//DTD SVG 1.1//EN" "http://www.w3.org/Graphics/SVG/1.1/DTD/svg11.dtd">
<svg version="1.1" id="图层_1" xmlns="http://www.w3.org/2000/svg" xmlns:xlink="http://www.w3.org/1999/xlink" x="0px" y="0px"
	 width="48.722px" height="106.502px" viewBox="0 0 48.722 106.502" enable-background="new 0 0 48.722 106.502"
	 xml:space="preserve">
<path fill="#00FFFF" stroke="#000000" stroke-width="2" d="M2.986,8.529v89.339h3.731v5.543H8.53v-5.543h29.743v5.543h1.92v-5.543
	h3.73V45.736h1.813v-1.813h-1.813V8.529h-29.85V2.985H6.717v5.544H2.986z"/>
<path fill="none" stroke="#000000" stroke-width="2" d="M2.986,92.217h40.937"/>
<path fill="none" stroke="#000000" stroke-width="2" d="M2.986,66.204h40.937"/>
<path fill="none" stroke="#000000" stroke-width="2" d="M2.986,43.923h40.937"/>
<path fill="none" stroke="#000000" stroke-width="2" d="M43.923,42.004H2.986"/>
<path fill="none" stroke="#000000" stroke-width="2" d="M2.986,25.267h40.937"/>
<path fill="none" stroke="#000000" stroke-width="2" d="M4.798,10.448h7.463v3.625H4.798V10.448"/>
<path fill="none" stroke="#000000" stroke-width="2" d="M17.805,15.991h9.382v5.544h-9.382V15.991"/>
<path fill="none" stroke="#000000" stroke-width="2" d="M4.798,68.123h26.119v13.006H4.798V68.123"/>
<path fill="none" stroke="#000000" stroke-width="2" d="M4.798,82.942h18.657v7.463H4.798V82.942"/>
<path fill="none" stroke="#000000" stroke-width="2" d="M6.717,8.529h7.356"/>
</svg>
