<?xml version="1.0" encoding="utf-8"?>
<!-- Generator: Adobe Illustrator 14.0.0, SVG Export Plug-In . SVG Version: 6.00 Build 43363)  -->
<!DOCTYPE svg PUBLIC "-//W3C//DTD SVG 1.1//EN" "http://www.w3.org/Graphics/SVG/1.1/DTD/svg11.dtd">
<svg version="1.1" id="图层_1" xmlns="http://www.w3.org/2000/svg" xmlns:xlink="http://www.w3.org/1999/xlink" x="0px" y="0px"
	 width="69.934px" height="106.502px" viewBox="0 0 69.934 106.502" enable-background="new 0 0 69.934 106.502"
	 xml:space="preserve">
<path fill="#7F7F7F" stroke="#000000" stroke-width="2" d="M32.622,4.053h13.752v29.742H32.622V4.053z"/>
<ellipse fill="#E5E5E5" stroke="#000000" stroke-width="2" cx="39.444" cy="17.698" rx="22.921" ry="13.646"/>
<path fill="#B2B2B2" stroke="#000000" stroke-width="2" d="M60.126,12.048L57.674,9.49l-3.305-2.132L51.81,6.185l-2.878-0.853
	l-2.985-0.747l-3.198-0.319l-3.305-0.213l-3.305,0.213l-3.198,0.427l-2.984,0.64l-2.772,0.959l-2.665,1.066L21.215,9.49
	l-2.452,2.559H60.126z"/>
<path fill="#7F7F7F" stroke="#000000" stroke-width="2" d="M38.379,7.464h2.238V2.987h-2.238V7.464z"/>
<path d="M60.019,12.048v-0.427H18.976v0.96h41.043V12.048z"/>
<circle fill="#7F7F7F" stroke="#000000" stroke-width="2" cx="45.201" cy="18.87" r="9.062"/>
<path fill="#4C4C4C" stroke="#000000" stroke-width="2" d="M39.551,11.728L52.45,24.627l-1.599,1.6L37.952,13.327L39.551,11.728z"/>
<circle fill="#999999" stroke="#000000" stroke-width="2" cx="45.201" cy="18.871" r="5.756"/>
<path fill="#E5E5E5" stroke="#000000" stroke-width="2" d="M40.83,15.78h8.636v6.396H40.83V15.78z"/>
<path fill="#00CCFF" stroke="#000000" stroke-width="2" d="M41.79,17.805h6.822v2.345H41.79V17.805z"/>
<path fill="#E5E5E5" stroke="#000000" stroke-width="2" d="M20.042,12.048h7.996l-0.96,1.066l-0.64,1.279l-0.427,1.386l-0.213,1.492
	l0.106,1.279l0.106,1.279l0.32,1.279l0.533,1.066l0.533,0.746l0.64,0.64h-7.996V12.048z"/>
<path fill="#E5E5E5" stroke="#000000" stroke-width="2" d="M20.042,23.562L9.807,26.973l-3.305-0.106V8.637h3.305l10.234,3.411
	V23.562z"/>
<path fill="#B2B2B2" stroke="#000000" stroke-width="2" d="M6.396,26.973L2.985,25.8V9.809l3.411-1.172V26.973z"/>
<path fill="#666666" stroke="#000000" stroke-width="2" d="M2.985,10.342h1.066v1.173H2.985V10.342z"/>
<path fill="#666666" stroke="#000000" stroke-width="2" d="M2.985,12.688h1.066v1.066H2.985V12.688z"/>
<path fill="#666666" stroke="#000000" stroke-width="2" d="M2.985,14.926h1.066v1.173H2.985V14.926z"/>
<path fill="#666666" stroke="#000000" stroke-width="2" d="M2.985,17.272h1.066v1.066H2.985V17.272z"/>
<path fill="#666666" stroke="#000000" stroke-width="2" d="M2.985,19.51h1.066v1.173H2.985V19.51z"/>
<path fill="#666666" stroke="#000000" stroke-width="2" d="M2.985,21.856h1.066v1.066H2.985V21.856z"/>
<path fill="#666666" stroke="#000000" stroke-width="2" d="M2.985,24.094h1.066v1.066H2.985V24.094z"/>
<path fill="#7F7F7F" stroke="#000000" stroke-width="2" d="M24.626,40.725h29.637v35.287H24.626V40.725z"/>
<path fill="#7F7F7F" stroke="#000000" stroke-width="2" d="M31.449,40.939v-1.387h0.533l0.64-5.757h13.646l0.64,5.757h0.64v1.387
	H31.449z"/>
<path fill="#7F7F7F" stroke="#000000" stroke-width="2" d="M18.976,40.618h2.238v35.5h-2.238V40.618z"/>
<path fill="#7F7F7F" d="M7.463,40.618v7.676h11.514v-7.676H7.463z"/>
<path fill="none" stroke="#000000" stroke-width="2" d="M18.976,40.618H7.463v7.676h11.514V40.618"/>
<path fill="#E5E5E5" stroke="#000000" stroke-width="2" d="M8.635,40.618V25.8l3.411-6.822h2.345l3.412,6.822v14.818H8.635z"/>
<path fill="#E5E5E5" stroke="#000000" stroke-width="2" d="M31.449,102.343l1.173-2.345V76.012h13.752v23.986l1.173,2.345H31.449z"
	/>
<path fill="#B2B2B2" stroke="#000000" stroke-width="2" d="M6.396,102.343h60.553v1.066H6.396V102.343z"/>
<path fill="#4C4C4C" stroke="#000000" stroke-width="2" d="M35.073,33.795v5.757l-2.984-0.106l0.533-5.65H35.073z"/>
<path fill="#4C4C4C" stroke="#000000" stroke-width="2" d="M36.992,33.795h4.904v5.757h-4.904V33.795z"/>
<path fill="#4C4C4C" stroke="#000000" stroke-width="2" d="M43.815,33.795v5.757l3.092-0.106l-0.64-5.65H43.815z"/>
<path stroke="#000000" stroke-width="2" d="M44.561,62.046H34.22l-0.533-1.066L33.261,59.7l-0.32-1.172l-0.106-1.279l0.213-1.493
	l0.32-1.492l0.64-1.279l0.746-1.066l0.959-0.959l1.173-0.64l1.173-0.427l1.386-0.106l1.279,0.106l1.279,0.427l1.066,0.64
	l1.065,0.959l0.747,1.066l0.64,1.279l0.319,1.492l0.213,1.493l-0.106,1.279L45.628,59.7l-0.427,1.279L44.561,62.046z"/>
<circle fill="none" stroke="#333333" stroke-width="2" cx="40.404" cy="64.605" r="1.599"/>
<circle fill="none" stroke="#333333" stroke-width="2" cx="40.404" cy="64.605" r="0.746"/>
<circle fill="none" stroke="#333333" stroke-width="2" cx="35.713" cy="64.605" r="2.346"/>
<path fill="none" stroke="#B2B2B2" stroke-width="2" d="M40.936,64.072l0.107,0.106l0.106,0.214v0.106v0.106v0.32l-0.214,0.213
	l-0.213,0.213l-0.319,0.106H40.19l-0.106-0.106l-0.106-0.106l-0.106-0.106"/>
<path fill="none" stroke="#B2B2B2" stroke-width="2" d="M39.231,65.778l-0.106-0.106l-0.106-0.106l-0.107-0.107v-0.213l-0.106-0.106
	v-0.213v-0.107v-0.213v-0.319l0.106-0.32l0.107-0.213l0.213-0.214l0.213-0.213l0.32-0.106l0.319-0.106h0.32h0.106h0.213h0.106
	l0.106,0.106h0.214l0.106,0.106l0.106,0.106l0.106,0.106"/>
<path fill="none" stroke="#B2B2B2" stroke-width="2" d="M34.008,66.311l-0.214-0.214l-0.106-0.106l-0.106-0.213l-0.106-0.213v-0.214
	l-0.106-0.213v-0.32v-0.213v-0.427l0.106-0.426l0.213-0.427l0.32-0.319l0.319-0.32l0.427-0.213l0.427-0.106l0.426-0.107h0.32
	l0.213,0.107h0.213l0.214,0.106l0.213,0.106l0.213,0.106l0.107,0.106l0.213,0.214"/>
<path stroke="#000000" stroke-width="2" d="M23.56,42.964h1.065v6.822H23.56V42.964z"/>
<path stroke="#000000" stroke-width="2" d="M7.463,26.973h1.173v5.65H7.463V26.973z"/>
<path fill="#666666" d="M50.318,72.068h3.411v3.411h-3.411V72.068z"/>
<path fill="#666666" d="M21.215,72.6h3.411v3.412h-3.411V72.6z"/>
<path fill="#666666" d="M25.159,72.068h3.519v3.411h-3.519V72.068z"/>
<path fill="#666666" d="M25.159,41.258h3.519v3.411h-3.519V41.258z"/>
<path fill="#666666" d="M50.318,41.258h3.411v3.411h-3.411V41.258z"/>
</svg>
