<?xml version="1.0" encoding="utf-8"?>
<!-- Generator: Adobe Illustrator 14.0.0, SVG Export Plug-In . SVG Version: 6.00 Build 43363)  -->
<!DOCTYPE svg PUBLIC "-//W3C//DTD SVG 1.1//EN" "http://www.w3.org/Graphics/SVG/1.1/DTD/svg11.dtd">
<svg version="1.1" id="图层_1" xmlns="http://www.w3.org/2000/svg" xmlns:xlink="http://www.w3.org/1999/xlink" x="0px" y="0px"
	 width="24.84px" height="106.502px" viewBox="0 0 24.84 106.502" enable-background="new 0 0 24.84 106.502" xml:space="preserve">
<path fill="#999999" d="M9.915,43.177h5.117v15.671H9.915V43.177z"/>
<path fill="#B2B2B2" d="M10.554,43.177h3.838v15.671h-3.838V43.177z"/>
<path fill="#CCCCCC" d="M11.621,43.177h1.812v15.671h-1.812V43.177z"/>
<path fill="none" stroke="#000000" stroke-width="2" d="M9.915,43.177h5.117v15.671H9.915V43.177"/>
<path stroke="#000000" stroke-width="2" d="M9.382,42.75h6.184v0.427H9.382V42.75z"/>
<path fill="#4C4C4C" stroke="#000000" stroke-width="2" d="M2.879,2.878h18.977V42.75H2.879V2.878z"/>
<path fill="#191919" stroke="#000000" stroke-width="2" d="M17.057,3.945h3.731v18.87h-3.731V3.945z"/>
<path fill="#191919" stroke="#000000" stroke-width="2" d="M4.158,3.945h3.838v18.87H4.158V3.945z"/>
<path fill="#191919" stroke="#000000" stroke-width="2" d="M8.315,3.945h3.838v18.87H8.315V3.945z"/>
<path fill="#191919" stroke="#000000" stroke-width="2" d="M12.793,3.945h3.625v18.87h-3.625V3.945z"/>
<path fill="#333333" stroke="#000000" stroke-width="2" d="M4.158,23.24h16.631v2.239H4.158V23.24z"/>
<path fill="#99CCCC" stroke="#000000" stroke-width="2" d="M8.742,29.637h7.463v3.092H8.742V29.637z"/>
<path fill="none" stroke="#99CCCC" stroke-width="2" d="M8.742,33.262h7.463"/>
<path fill="#333333" stroke="#000000" stroke-width="2" d="M9.382,45.415h6.184v10.341H9.382V45.415z"/>
<circle fill="#333333" stroke="#000000" stroke-width="2" cx="12.367" cy="51.599" r="3.625"/>
<circle fill="#666666" stroke="#000000" stroke-width="2" cx="12.473" cy="51.705" r="3.092"/>
<circle fill="#B2B2B2" stroke="#000000" stroke-width="2" cx="12.367" cy="51.598" r="0.959"/>
<path fill="#999999" d="M9.382,59.062h6.184v5.543H9.382V59.062z"/>
<path fill="#B2B2B2" d="M10.128,59.062h4.691v5.543h-4.691V59.062z"/>
<path fill="#CCCCCC" d="M11.407,59.062h2.133v5.543h-2.133V59.062z"/>
<path fill="none" stroke="#000000" stroke-width="2" d="M9.382,59.062h6.184v5.543H9.382V59.062"/>
<path fill="#999999" d="M10.342,64.392h4.264v39.126h-4.264V64.392z"/>
<path fill="#B2B2B2" d="M10.981,64.392h2.984v39.126h-2.984V64.392z"/>
<path fill="#CCCCCC" d="M11.727,64.392h1.492v39.126h-1.492V64.392z"/>
<path fill="none" stroke="#000000" stroke-width="2" d="M10.342,64.392h4.264v39.126h-4.264V64.392"/>
<path fill="#B2B2B2" stroke="#000000" stroke-width="2" d="M8.742,56.396h3.198v2.026H8.742V56.396z"/>
<path fill="#7F7F7F" stroke="#000000" stroke-width="2" d="M11.94,56.396h3.092v2.026H11.94V56.396z"/>
<path fill="#666666" stroke="#000000" stroke-width="2" d="M15.032,56.396h1.173v2.026h-1.173V56.396z"/>
<path fill="#E5E5E5" stroke="#000000" stroke-width="2" d="M7.783,21.855h0.319v0.96H7.783V21.855z"/>
<path fill="#E5E5E5" stroke="#000000" stroke-width="2" d="M11.94,21.855h0.427v0.96H11.94V21.855z"/>
<path fill="#E5E5E5" stroke="#000000" stroke-width="2" d="M16.631,21.855h0.533v0.96h-0.533V21.855z"/>
<path fill="#E5E5E5" stroke="#000000" stroke-width="2" d="M4.158,21.855h0.427v0.96H4.158V21.855z"/>
<path fill="#E5E5E5" stroke="#000000" stroke-width="2" d="M7.783,3.945h0.319v0.959H7.783V3.945z"/>
<path fill="#E5E5E5" stroke="#000000" stroke-width="2" d="M11.94,3.945h0.427v0.959H11.94V3.945z"/>
<path fill="#E5E5E5" stroke="#000000" stroke-width="2" d="M16.631,3.945h0.533v0.959h-0.533V3.945z"/>
<path fill="#E5E5E5" stroke="#000000" stroke-width="2" d="M4.158,3.945h0.427v0.959H4.158V3.945z"/>
</svg>
