<?xml version="1.0" encoding="utf-8"?>
<!-- Generator: Adobe Illustrator 14.0.0, SVG Export Plug-In . SVG Version: 6.00 Build 43363)  -->
<!DOCTYPE svg PUBLIC "-//W3C//DTD SVG 1.1//EN" "http://www.w3.org/Graphics/SVG/1.1/DTD/svg11.dtd">
<svg version="1.1" id="图层_1" xmlns="http://www.w3.org/2000/svg" xmlns:xlink="http://www.w3.org/1999/xlink" x="0px" y="0px"
	 width="107.575px" height="106.502px" viewBox="0 0 107.575 106.502" enable-background="new 0 0 107.575 106.502"
	 xml:space="preserve">
<path fill="#7F7F7F" stroke="#000000" stroke-width="2" d="M3.015,3.017h100.469v100.469H3.015V3.017z"/>
<path fill="#FFFFFF" stroke="#000000" stroke-width="2" d="M11.307,32.307h83.777v62.779H11.307V32.307z"/>
<path fill="#6699FF" stroke="#0000FF" stroke-width="2" d="M104.452,40.599H97.13v21.967h7.322V40.599z"/>
<path fill="#99FFFF" stroke="#FFFFFF" stroke-width="2" d="M11.845,33.815h82.7v2.153h-82.7V33.815z"/>
<path fill="#00FFFF" stroke="#00FFFF" stroke-width="2" d="M11.845,32.307h82.7v1.508h-82.7V32.307z"/>
<path fill="none" stroke="#FF0000" stroke-width="2" d="M65.794,95.624L40.597,78.287l25.197-16.69l-25.09-16.799l24.552-16.69"/>
<path fill="#333333" stroke="#000000" stroke-width="2" d="M11.307,11.309h83.777v20.998H11.307V11.309z"/>
<path fill="none" stroke="#0000FF" stroke-width="2" d="M80.978,87.225l-19.491-9.691l-1.185-1.185v-2.477l1.293-1.185l19.383-9.799
	l1.185-1.185v-2.477l-1.185-1.185l-19.383-9.691l-1.293-1.185v-2.477l1.293-1.185l19.383-9.691l1.185-1.185"/>
<path fill="#E5E5E5" stroke="#000000" stroke-width="2" d="M11.307,87.225h83.777v7.861H11.307V87.225z"/>
<path fill="#0000FF" stroke="#000000" stroke-width="2" d="M17.66,88.302l0.861,0.431l0.107,0.538l-0.431,0.862l-0.538,0.215
	l-0.862-0.431l-0.215-0.646l0.431-0.753L17.66,88.302z"/>
<path fill="#FF0000" stroke="#000000" stroke-width="2" d="M17.66,90.348l0.861,0.431l0.107,0.646l-0.431,0.861l-0.538,0.107
	l-0.862-0.431l-0.215-0.538l0.431-0.861L17.66,90.348z"/>
<path fill="#00FF00" stroke="#000000" stroke-width="2" d="M17.66,92.394l0.861,0.538l0.107,0.539l-0.431,0.861l-0.538,0.216
	l-0.862-0.539l-0.215-0.538l0.431-0.861L17.66,92.394z"/>
<path fill="none" stroke="#00FF00" stroke-width="2" d="M17.121,86.687v-8.399h17.229l-0.538-16.152H17.66V45.336l16.69,0.539v-12.6
	"/>
<path fill="none" stroke="#00FFFF" stroke-width="2" d="M86.685,17.662h4.199v8.291h-4.199V17.662"/>
</svg>
