<?xml version="1.0" encoding="utf-8"?>
<!-- Generator: Adobe Illustrator 14.0.0, SVG Export Plug-In . SVG Version: 6.00 Build 43363)  -->
<!DOCTYPE svg PUBLIC "-//W3C//DTD SVG 1.1//EN" "http://www.w3.org/Graphics/SVG/1.1/DTD/svg11.dtd">
<svg version="1.1" id="图层_1" xmlns="http://www.w3.org/2000/svg" xmlns:xlink="http://www.w3.org/1999/xlink" x="0px" y="0px"
	 width="43.603px" height="106.502px" viewBox="0 0 43.603 106.502" enable-background="new 0 0 43.603 106.502"
	 xml:space="preserve">
<path fill="#99FFFF" stroke="#000000" stroke-width="2" d="M12.367,28.038L2.985,24.2V6.93l9.381-3.945h27.505l0.746,2.346v21.216
	H13.113L12.367,28.038z"/>
<path stroke="#000000" stroke-width="2" d="M26.545,103.41V72.068l1.492-1.599v-4.691h6.291v4.691l1.599,1.599v31.343H26.545z"/>
<path fill="#99FFFF" stroke="#000000" stroke-width="2" d="M24.947,26.546h12.579v12.579H24.947V26.546z"/>
<path fill="#7F7F7F" stroke="#000000" stroke-width="2" d="M30.491,39.125h1.492v26.652h-1.492V39.125z"/>
<path fill="none" stroke="#000000" stroke-width="2" d="M28.038,65.778h6.291v6.29h-6.291V65.778"/>
<path fill="#E5E5E5" stroke="#000000" stroke-width="2" d="M26.545,72.068h7.783v28.252h-7.783V72.068z"/>
<path fill="#7F7F7F" d="M28.038,73.56h1.6v25.16h-1.6V73.56z"/>
<path fill="#FFFFFF" d="M29.637,73.56h0.854v25.16h-0.854V73.56z"/>
<path fill="none" stroke="#FFFFFF" stroke-width="2" d="M28.891,70.469h4.691"/>
<path fill="#00FFFF" stroke="#000000" stroke-width="2" d="M24.947,39.125l-1.599-1.599l0.105-9.488h-10.98L2.985,24.2V6.93
	l0.746,2.345v13.326l9.381,3.945h11.834V39.125z"/>
<path fill="#00FFFF" stroke="#000000" stroke-width="2" d="M3.731,9.275l9.381-3.944h27.505l-0.746-2.346H12.367L2.985,6.93
	L3.731,9.275z"/>
<path fill="none" stroke="#000000" stroke-width="2" d="M12.367,2.985l0.746,2.346v21.108"/>
<path fill="none" stroke="#000000" stroke-width="2" d="M3.731,22.601l-0.746,1.6"/>
<path fill="none" stroke="#000000" stroke-width="2" d="M13.113,26.546l-0.746,1.492"/>
<path fill="none" stroke="#000000" stroke-width="2" d="M23.348,28.038l1.599-1.492"/>
<path fill="#FFCC00" stroke="#7F7F7F" stroke-width="2" d="M31.983,6.076h6.289v19.616h-6.289V6.076z"/>
<path fill="#FFCC00" stroke="#000000" stroke-width="2" d="M2.985,24.2l0.746-1.6V9.275L2.985,6.93V24.2z"/>
<ellipse fill="#00FFFF" stroke="#000000" stroke-width="2" cx="3.305" cy="15.458" rx="0.32" ry="4.69"/>
<path stroke="#000000" stroke-width="2" d="M3.412,13.113l0.32,1.066v0.853v1.387l-0.213,1.065L3.412,17.91l-0.426-1.066v-0.853
	v-1.386l0.213-1.066L3.412,13.113z"/>
<circle fill="#FFFF00" stroke="#000000" stroke-width="2" cx="19.829" cy="23.028" r="1.173"/>
<circle fill="#E5E5E5" cx="19.829" cy="18.23" r="1.172"/>
<circle fill="#E5E5E5" cx="19.829" cy="13.539" r="1.173"/>
<circle fill="#E5E5E5" cx="19.829" cy="8.849" r="1.173"/>
<path fill="none" stroke="#000000" stroke-width="2" d="M4.478,7.676l7.143-3.198"/>
<path fill="none" stroke="#000000" stroke-width="2" d="M3.731,23.347l7.036,3.199"/>
<path fill="#7F7F7F" stroke="#000000" stroke-width="2" d="M4.478,14.712h7.889v1.599H4.478V14.712z"/>
<circle fill="#CCCCCC" cx="23.774" cy="15.885" r="1.173"/>
<circle fill="#CCCCCC" cx="28.465" cy="15.885" r="1.173"/>
<path fill="#FFFFFF" stroke="#000000" stroke-width="2" d="M26.545,83.048h6.29v7.783h-6.29V83.048z"/>
</svg>
