<?xml version="1.0" encoding="utf-8"?>
<!-- Generator: Adobe Illustrator 14.0.0, SVG Export Plug-In . SVG Version: 6.00 Build 43363)  -->
<!DOCTYPE svg PUBLIC "-//W3C//DTD SVG 1.1//EN" "http://www.w3.org/Graphics/SVG/1.1/DTD/svg11.dtd">
<svg version="1.1" id="图层_1" xmlns="http://www.w3.org/2000/svg" xmlns:xlink="http://www.w3.org/1999/xlink" x="0px" y="0px"
	 width="63.965px" height="106.502px" viewBox="0 0 63.965 106.502" enable-background="new 0 0 63.965 106.502"
	 xml:space="preserve">
<path fill="#7F7F7F" d="M27.825,45.415h7.995v3.519h-7.995V45.415z"/>
<path fill="#999999" d="M28.677,45.309h1.173h0.427h3.198h1.172h0.32l0.106,0.96v1.705l-0.106,0.96h-1.173l-1.173-0.106h-2.345
	l-1.173,0.106h-0.427V45.309z"/>
<path fill="#B2B2B2" d="M29.53,45.309h1.173h2.346h1.066l0.106,0.96v1.705l-0.106,0.96l-1.066-0.106h-2.346l-1.173,0.106
	l0.107-1.386v-1.279L29.53,45.309z"/>
<path fill="#CCCCCC" d="M30.384,45.309h0.746h1.492h0.64l0.106,0.96v1.705l-0.106,0.96l-1.065-0.106H31.13l-0.746,0.106v-1.386
	v-1.279V45.309z"/>
<path fill="#E5E5E5" d="M31.236,45.415h1.279v3.519h-1.279V45.415z"/>
<path fill="none" stroke="#000000" stroke-width="2" d="M27.825,45.415h7.995v3.519h-7.995V45.415"/>
<path fill="#B2B2B2" stroke="#000000" stroke-width="2" d="M27.398,46.055h9.062V29.851h-9.062V46.055z"/>
<path fill="#7F7F7F" d="M45.415,100.425l-0.106,0.32l-2.985,1.599l-2.878,0.533l-3.519,0.32l-1.279,0.106h-1.386h-1.279
	l-4.051-0.106l-3.519-0.214l-2.878-0.533l-2.879-1.172l-0.319-0.32l-0.106-0.319l0.106-1.173l0.319-3.625l0.747-3.518l0.959-3.412
	l1.173-3.305l1.279-3.305l1.173-3.305l1.279-3.305l1.065-3.306l0.96-3.305l0.64-3.305l0.213-3.305l0.214-2.985l0.426-3.305
	l1.066-2.665l0.319-0.32l0.32-0.106h2.878l1.493,2.452l0.426,3.092l0.427,3.838l0.32,3.305l0.532,3.305l0.747,3.198l1.172,3.305
	l1.173,3.306l1.279,3.305l1.279,3.305l1.173,3.305l0.96,3.411l0.64,3.519l0.319,3.518L45.415,100.425z"/>
<path fill="#B2B2B2" d="M30.49,50.32h0.213h0.106h0.107h2.238l0.32,0.959l0.106,0.214v0.106v0.213l-0.214,0.96l-0.106,0.106
	l-0.106,0.213h-0.106H30.49l-0.427-0.959v-0.106v-0.214l0.214-1.065L30.49,50.32z"/>
<path fill="#BFBFBF" d="M30.49,50.32h0.213h0.106h0.107h1.812l0.427,0.959v0.214v0.106v0.213l-0.213,0.96l-0.106,0.106l-0.107,0.213
	h-0.106H30.49l-0.213-0.959v-0.106v-0.214l0.213-1.065V50.32z"/>
<path fill="#CCCCCC" d="M30.703,50.32h0.214h0.213h0.213h1.279l0.106,0.959v0.214v0.106v0.213l-0.106,0.96v0.106v0.213h-0.213
	h-1.706l-0.213-0.533v-0.106v-0.213v-0.106v-0.96L30.703,50.32z"/>
<path fill="#D6D6D6" d="M30.703,50.32h0.214h1.172l0.214,0.959v0.32l-0.106,0.959l-0.107,0.533h-1.386l-0.213-0.959v-0.106
	l0.106-1.066L30.703,50.32z"/>
<path fill="#E3E3E3" d="M30.917,50.32L30.917,50.32h0.853v2.771h-0.853l-0.214-0.533v-0.319v-1.066L30.917,50.32z"/>
<path fill="#F0F0F0" d="M30.917,50.32L30.917,50.32h0.426v2.771h-0.426V50.32z"/>
<path fill="none" stroke="#000000" stroke-width="2" d="M30.49,50.32h0.213h0.106h0.107h2.238l0.32,0.959l0.106,0.214v0.106v0.213
	l-0.214,0.96l-0.106,0.106l-0.106,0.213h-0.106H30.49l-0.427-0.959v-0.106v-0.214l0.214-1.065L30.49,50.32"/>
<path fill="#7F7F7F" stroke="#000000" stroke-width="2" d="M32.089,46.055h4.371V29.851h-4.371V46.055z"/>
<path fill="#F0F0F0" d="M32.622,46.055h-1.065V29.851h1.065V46.055z"/>
<path fill="#CCCCCC" stroke="#000000" stroke-width="2" d="M22.601,34.648h18.442v-7.036H22.601V34.648z"/>
<path fill="#E5E5E5" stroke="#000000" stroke-width="2" d="M22.175,27.399h19.509v5.224h15.565L55.756,2.986H8.102L6.717,32.622
	h15.458V27.399z"/>
<path fill="#FFFFFF" stroke="#000000" stroke-width="2" d="M40.404,32.729v0.854h20.469v-0.96H41.683v-5.224H22.175v5.224H2.985
	v0.96h20.469v-0.96v-4.157h16.95V32.729z"/>
<circle fill="#999999" stroke="#000000" stroke-width="2" cx="26.865" cy="31.344" r="2.132"/>
<circle fill="#999999" stroke="#000000" stroke-width="2" cx="36.886" cy="31.344" r="2.239"/>
<path fill="none" stroke="#000000" stroke-width="2" d="M45.415,100.425l-0.106,0.32l-2.985,1.599l-2.878,0.533l-3.519,0.32
	l-1.279,0.106h-1.386h-1.279l-4.051-0.106l-3.519-0.214l-2.878-0.533l-2.879-1.172l-0.319-0.32l-0.106-0.319l0.106-1.173
	l0.319-3.625l0.747-3.518l0.959-3.412l1.173-3.305l1.279-3.305l1.173-3.305l1.279-3.305l1.065-3.306l0.96-3.305l0.64-3.305
	l0.213-3.305l0.214-2.985l0.426-3.305l1.066-2.665l0.319-0.32l0.32-0.106h2.878l1.493,2.452l0.426,3.092l0.427,3.838l0.32,3.305
	l0.532,3.305l0.747,3.198l1.172,3.305l1.173,3.306l1.279,3.305l1.279,3.305l1.173,3.305l0.96,3.411l0.64,3.519l0.319,3.518
	L45.415,100.425"/>
<path fill="#999999" d="M42.963,100.425l-2.451,1.919l-3.306,0.64l-2.984,0.32h-1.173h-1.066l-3.411-0.106l-2.879-0.32l-2.984-0.64
	l-1.919-1.279l-0.106-0.319v-1.173l0.319-3.625l0.64-3.518l0.746-3.412l0.96-3.305l1.065-3.411l1.066-3.198l0.96-3.305l0.959-3.306
	l0.746-3.305l0.427-3.305l0.213-3.305l0.214-2.985l0.319-3.305l0.853-2.665l0.64-0.427h0.214l0.319-0.106h0.32l1.492,0.106
	l1.173,2.452l0.427,3.092l0.213,3.838l0.319,3.198l0.427,3.305l0.746,3.305l0.854,3.305l0.959,3.306l1.066,3.198l1.065,3.305
	l0.96,3.411l0.746,3.411l0.64,3.412l0.213,3.624V100.425z"/>
<path fill="#B2B2B2" d="M40.618,100.425l-2.559,2.025l-2.772,0.64l-1.599,0.214l-0.853,0.106h-0.96l-3.305-0.213l-2.879-0.64
	l-2.345-1.279l-0.214-0.32v-0.319v-1.173l0.214-3.625l0.426-3.518l0.64-3.412L25.16,85.5l0.853-3.305l0.853-3.305l0.746-3.306
	l0.747-3.198l0.532-3.305l0.427-3.411l0.106-3.198l0.214-2.985l0.213-3.305l0.746-2.665l0.427-0.427h0.213l0.213-0.106h0.214
	l1.173,0.106l0.213,0.106l0.853,2.985l0.214,3.305l0.213,2.985l0.213,3.198l0.32,3.305l0.533,3.305l0.746,3.305l0.746,3.306
	l0.853,3.198l0.854,3.411l0.746,3.305l0.64,3.411l0.426,3.519l0.214,2.346v1.172V100.425z"/>
<path fill="#CCCCCC" d="M38.272,100.425l-2.346,2.239l-2.771,0.64l-0.64,0.106h-0.64l-2.985-0.32l-2.559-1.065l-0.746-1.066
	l-0.106-0.213v-1.279l0.213-3.625l0.32-3.411l0.427-3.519l0.532-3.305l0.64-3.411l0.533-3.198l0.64-3.412l0.533-3.305l0.427-3.305
	l0.213-3.305l0.213-3.305l0.107-2.879l0.106-3.305l0.64-2.878l0.213-0.214h0.213h0.107h0.213h0.853l0.746,3.092l0.214,3.305
	l0.106,2.879l0.106,3.305l0.213,3.305l0.427,3.305l0.533,3.305l0.533,3.306l0.64,3.305l0.533,3.305l0.532,3.305l0.533,3.411
	l0.32,3.519l0.106,2.346l0.106,1.172V100.425z"/>
<path fill="#E5E5E5" d="M35.82,100.531l-1.705,2.452l-1.493,0.427h-0.746h-0.853l-2.452-1.173l-0.64-0.959l-0.106-0.533v-1.173
	l0.106-3.625l0.213-3.518l0.32-3.412l0.319-3.411l0.32-3.305l0.426-3.305l0.32-3.305l0.427-3.306l0.213-3.305l0.213-3.411v-3.198
	l0.106-3.838l0.214-3.092l0.319-2.238l0.106-0.214h0.854l0.426,3.092l0.107,3.305l0.106,4.052l0.106,3.305l0.213,3.305l0.32,3.305
	l0.319,3.198l0.32,3.305l0.426,3.305l0.32,3.306l0.319,3.411l0.32,3.411l0.106,3.519l0.106,1.173v1.279V100.531z"/>
<path fill="#7F7F7F" d="M26.865,65.671h10.021v2.665H26.865V65.671z"/>
<path fill="#999999" d="M28.038,65.671h1.386h0.533h3.944h0.96h0.959l0.106,0.64v1.279l-0.106,0.64h-1.492h-0.96h-3.411h-0.959
	h-0.96v-0.96V65.99V65.671z"/>
<path fill="#B2B2B2" d="M29.104,65.671h1.065h0.32h2.878h1.066h0.32l0.106,0.64v1.279l-0.106,0.64h-1.066h-1.066H30.49h-1.066
	h-0.319v-0.96V65.99V65.671z"/>
<path fill="#CCCCCC" d="M30.063,65.671h0.96h1.813h0.853l0.106,0.64v1.279l-0.106,0.64h-1.279h-1.386h-0.96l0.106-0.96l-0.106-1.279
	V65.671z"/>
<path fill="#E5E5E5" d="M31.13,65.671h1.492v2.665H31.13V65.671z"/>
<path fill="none" stroke="#000000" stroke-width="2" d="M26.865,65.671h10.021v2.665H26.865V65.671"/>
<path fill="#7F7F7F" d="M14.392,48.507h34.86v2.025h-34.86V48.507z"/>
<path fill="#999999" d="M18.124,48.507h5.224l0.853-0.106h0.96h14.604l1.706,0.106h4.265l0.106,0.213v0.214v0.213v1.066
	l-0.106,0.319h-0.746h-4.371l-1.706-0.106H24.2l-1.706,0.106h-3.518h-0.853l0.106-0.319v-1.066L18.124,48.507z"/>
<path fill="#B2B2B2" d="M21.854,48.507h3.838l1.279-0.106h10.128l1.173,0.106h3.731l0.106,0.64l-0.106,1.066v0.319h-3.731
	l-1.173-0.106H26.971l-1.279,0.106h-3.838l0.107-1.065L21.854,48.507z"/>
<path fill="#CCCCCC" d="M25.586,48.507h2.452l0.746-0.106h6.503l1.493,0.106h1.599l0.106,0.64l-0.106,1.066v0.319h-2.345l-1.6-0.106
	h-5.65l-1.599,0.106h-1.6l0.106-1.065L25.586,48.507z"/>
<path fill="#E5E5E5" d="M29.211,48.507h5.437v2.025h-5.437V48.507z"/>
<path fill="none" stroke="#000000" stroke-width="2" d="M14.392,48.507h34.86v2.025h-34.86V48.507"/>
<path stroke="#000000" stroke-width="2" d="M9.701,4.478h8.315v1.066H9.701V4.478z"/>
<path stroke="#000000" stroke-width="2" d="M21.748,4.478h8.315v1.066h-8.315V4.478z"/>
<path stroke="#000000" stroke-width="2" d="M33.688,4.478h8.422v1.066h-8.422V4.478z"/>
<path stroke="#000000" stroke-width="2" d="M45.735,4.478h8.422v1.066h-8.422V4.478z"/>
</svg>
