<?xml version="1.0" encoding="utf-8"?>
<!-- Generator: Adobe Illustrator 14.0.0, SVG Export Plug-In . SVG Version: 6.00 Build 43363)  -->
<!DOCTYPE svg PUBLIC "-//W3C//DTD SVG 1.1//EN" "http://www.w3.org/Graphics/SVG/1.1/DTD/svg11.dtd">
<svg version="1.1" id="图层_1" xmlns="http://www.w3.org/2000/svg" xmlns:xlink="http://www.w3.org/1999/xlink" x="0px" y="0px"
	 width="19.512px" height="106.502px" viewBox="0 0 19.512 106.502" enable-background="new 0 0 19.512 106.502"
	 xml:space="preserve">
<path fill="#CCCCCC" stroke="#000000" stroke-width="2" d="M3.413,2.985H16.1V103.41H3.413V2.985z"/>
<path fill="#4C4C4C" stroke="#000000" stroke-width="2" d="M4.372,89.871h10.555v3.092H4.372V89.871z"/>
<path fill="#E5E5E5" stroke="#000000" stroke-width="2" d="M4.372,11.301h10.555v78.57H4.372V11.301z"/>
<path fill="#FFFFFF" stroke="#000000" stroke-width="2" d="M8.743,11.301h2.132V92.43H8.743V11.301z"/>
<path fill="#CCCCCC" stroke="#000000" stroke-width="2" d="M14.927,86.78h1.599v16.631H2.986V86.78h1.386l0.107,1.066l0.32,0.959
	l0.533,0.854l0.64,0.746l0.747,0.64l0.959,0.533l0.959,0.319l0.959,0.106l1.066-0.106l0.959-0.319l0.96-0.533l0.747-0.64
	l0.639-0.746l0.533-0.854l0.32-0.959L14.927,86.78z"/>
<path fill="#CCCCCC" stroke="#000000" stroke-width="2" d="M4.372,19.616H2.986V2.985h13.539v16.632h-1.599L14.82,18.55l-0.32-0.96
	l-0.426-0.853l-0.641-0.746l-0.746-0.64l-0.959-0.533l-0.96-0.319l-1.172-0.107l-0.959,0.107l-0.959,0.319l-0.959,0.533l-0.747,0.64
	l-0.64,0.746L4.799,17.59l-0.32,0.96L4.372,19.616z"/>
<path fill="#4C4C4C" stroke="#000000" stroke-width="2" d="M14.927,90.831v10.98H4.372V91.044l0.533,0.533l0.533,0.426l0.64,0.427
	l0.64,0.32l0.746,0.319l0.746,0.213l0.747,0.107h0.64h0.853l0.746-0.107l0.746-0.213l0.746-0.319l0.641-0.32l0.532-0.533
	l0.533-0.426L14.927,90.831z"/>
<path fill="none" stroke="#000000" stroke-width="2" d="M5.545,86.78h3.198"/>
<path fill="none" stroke="#000000" stroke-width="2" d="M5.545,69.829h3.198"/>
<path fill="none" stroke="#000000" stroke-width="2" d="M5.545,53.198h3.198"/>
<path fill="none" stroke="#000000" stroke-width="2" d="M5.545,36.567h3.198"/>
<path fill="none" stroke="#000000" stroke-width="2" d="M5.545,19.616h3.198"/>
<path fill="none" stroke="#000000" stroke-width="2" d="M10.875,78.464h3.092"/>
<path fill="none" stroke="#000000" stroke-width="2" d="M10.875,61.514h3.092"/>
<path fill="none" stroke="#000000" stroke-width="2" d="M10.875,44.882h3.092"/>
<path fill="none" stroke="#000000" stroke-width="2" d="M10.875,28.251h3.092"/>
<path fill="#4C4C4C" stroke="#000000" stroke-width="2" d="M4.372,15.565V4.584h10.555l0.213,10.98l-0.64-0.64l-0.533-0.426
	l-0.639-0.533l-0.641-0.32l-0.746-0.319l-0.746-0.214l-0.746-0.106H9.596h-0.64L8.21,13.113l-0.746,0.214l-0.746,0.319l-0.64,0.32
	l-0.64,0.533l-0.533,0.426L4.372,15.565z"/>
<circle stroke="#000000" stroke-width="2" cx="3.626" cy="10.981" r="0.213"/>
<circle stroke="#000000" stroke-width="2" cx="15.673" cy="10.981" r="0.32"/>
<circle stroke="#000000" stroke-width="2" cx="3.626" cy="95.308" r="0.213"/>
<circle stroke="#000000" stroke-width="2" cx="15.673" cy="95.308" r="0.32"/>
</svg>
