<?xml version="1.0" encoding="utf-8"?>
<!-- Generator: Adobe Illustrator 14.0.0, SVG Export Plug-In . SVG Version: 6.00 Build 43363)  -->
<!DOCTYPE svg PUBLIC "-//W3C//DTD SVG 1.1//EN" "http://www.w3.org/Graphics/SVG/1.1/DTD/svg11.dtd">
<svg version="1.1" id="图层_1" xmlns="http://www.w3.org/2000/svg" xmlns:xlink="http://www.w3.org/1999/xlink" x="0px" y="0px"
	 width="106.503px" height="106.502px" viewBox="0 0 106.503 106.502" enable-background="new 0 0 106.503 106.502"
	 xml:space="preserve">
<path fill="#4C7FE5" stroke="#000000" stroke-width="2" d="M2.985,100.212V72.174h100.426v28.038H2.985z"/>
<path fill="#2659BF" d="M3.838,97.867v-9.382h98.72v9.382H3.838z"/>
<path fill="#4C7FE5" stroke="#000000" stroke-width="2" d="M34.222,9.382V2.985h37.633v6.397H34.222z"/>
<circle fill="#4C7FE5" stroke="#000000" stroke-width="2" cx="53.198" cy="53.198" r="50.213"/>
<circle fill="#6699FF" cx="53.198" cy="53.198" r="47.014"/>
<path fill="#8CB2FF" stroke="#000000" stroke-width="2" d="M70.469,100.532l-3.092,0.853l-3.198,0.854l-3.305,0.64l-3.305,0.319
	l-2.133,0.213h-1.172h-1.067l-3.305-0.106l-3.305-0.319l-3.305-0.533l-3.198-0.746l-3.092-0.854l-1.066-0.319l4.371-11.728
	l3.091,0.854l3.199,0.64l3.305,0.426l3.305,0.107l3.305-0.107l3.305-0.426l3.198-0.64l2.346-0.64l0.746-0.214L70.469,100.532z"/>
<path fill="#8CB2FF" stroke="#000000" stroke-width="2" d="M85.606,91.79l2.346-2.238l2.133-2.346l2.238-2.559l2.025-2.665
	l1.813-2.772l1.6-2.771l1.492-3.092l1.173-3.092l1.065-3.198l0.854-3.092l0.213-0.959l0.32-1.066l-12.58-2.346l-0.64,3.199
	l-1.065,3.198l-1.279,3.091l-1.387,2.772l-1.813,2.878l-2.132,2.665l-2.132,2.56l-1.813,1.599l-0.641,0.533L85.606,91.79z"/>
<path fill="#8CB2FF" stroke="#000000" stroke-width="2" d="M85.606,14.606l2.346,2.345l2.133,2.452l2.238,2.559l2.025,2.666
	l1.813,2.771l1.6,2.771l1.492,2.985l1.173,3.092l1.065,3.198l0.854,3.198l0.213,1.066l0.32,0.959l-12.58,2.132l-0.64-3.091
	l-1.065-3.199l-1.279-3.091l-1.387-2.879l-1.813-2.878l-2.132-2.666l-2.132-2.451l-1.813-1.706l-0.641-0.533L85.606,14.606z"/>
<path fill="#8CB2FF" stroke="#000000" stroke-width="2" d="M70.469,5.864l-3.092-0.853l-3.198-0.854l-3.305-0.64l-3.305-0.319
	l-2.133-0.214h-1.172h-1.067l-3.305,0.107l-3.305,0.319l-3.305,0.533l-3.198,0.746l-3.092,0.853l-1.066,0.32l4.371,12.047
	l3.091-1.066l3.199-0.746l3.305-0.427l3.305-0.213l3.305,0.213l3.305,0.427l3.198,0.746l2.346,0.746l0.746,0.32L70.469,5.864z"/>
<path fill="#8CB2FF" stroke="#000000" stroke-width="2" d="M20.789,14.606l-2.452,2.345l-2.346,2.452l-2.132,2.559l-2.026,2.666
	l-1.919,2.771L8.315,30.17L6.93,33.156L5.65,36.247l-0.959,3.198l-0.747,3.198L3.731,43.71l-0.213,0.959l12.26,2.132l0.853-3.091
	l0.959-3.199l1.279-3.091l1.599-2.879l1.706-2.878l1.919-2.666l2.239-2.451l1.706-1.706l0.64-0.533L20.789,14.606z"/>
<path fill="#8CB2FF" stroke="#000000" stroke-width="2" d="M20.789,91.79l-2.452-2.238l-2.346-2.346l-2.132-2.559l-2.026-2.665
	L9.915,79.21l-1.599-2.771L6.93,73.347L5.65,70.255l-0.959-3.198l-0.747-3.092l-0.213-0.959L3.518,61.94l12.26-2.346l0.853,3.199
	l0.959,3.198l1.279,3.091l1.599,2.772l1.706,2.878l1.919,2.665l2.239,2.56l1.706,1.599l0.64,0.533L20.789,91.79z"/>
<path fill="none" stroke="#7F7F7F" stroke-width="2" d="M24.84,87.1l-0.64-0.64l-0.64-0.64l-0.64-0.64l-0.746-0.746l-0.64-0.64
	l-0.64-0.747l-0.64-0.746l-0.64-0.746l-0.64-0.746l-0.64-0.853l-0.533-0.747l-0.533-0.853l-0.64-0.853l-0.533-0.747l-0.427-0.853
	l-0.426-0.853l-0.533-0.746l-0.426-0.854l-0.426-0.853l-0.427-0.96l-0.426-0.853l-0.426-0.959l-0.32-0.854l-0.32-0.959l-0.427-0.854
	l-0.32-0.959l-0.213-0.96l-0.32-0.853l-0.213-0.853l-0.32-0.96l-0.213-0.853l-0.213-0.96"/>
<path fill="none" stroke="#7F7F7F" stroke-width="2" d="M68.337,94.669l-2.666,0.746l-2.879,0.746l-2.878,0.533l-2.878,0.426
	l-2.879,0.214l-3.838-0.214l-2.878-0.319l-2.878-0.427l-2.878-0.746l-2.772-0.64l-0.853-0.319"/>
<path fill="none" stroke="#7F7F7F" stroke-width="2" d="M96.694,60.767l-0.213,0.96l-0.213,0.853l-0.32,0.96l-0.213,0.853
	l-0.32,0.853l-0.213,0.96l-0.32,0.959l-0.32,0.854l-0.426,0.959l-0.32,0.854l-0.426,0.959l-0.427,0.853l-0.427,0.96l-0.426,0.853
	l-0.427,0.854l-0.532,0.746l-0.428,0.853l-0.426,0.853l-0.533,0.747l-0.64,0.853l-0.532,0.853l-0.533,0.747l-0.641,0.853
	l-0.639,0.746l-0.641,0.746l-0.639,0.746l-0.641,0.747l-0.639,0.64l-0.747,0.746l-0.64,0.64l-0.64,0.64l-0.64,0.64"/>
<path fill="none" stroke="#7F7F7F" stroke-width="2" d="M81.556,19.296l0.64,0.64l0.64,0.64l0.64,0.64l0.747,0.746l0.639,0.64
	l0.641,0.746l0.639,0.747l0.641,0.746l0.639,0.746l0.641,0.853l0.533,0.747l0.532,0.853l0.64,0.853l0.533,0.746l0.426,0.854
	l0.428,0.853l0.532,0.746l0.427,0.854l0.426,0.853l0.427,0.959l0.427,0.854l0.426,0.959l0.32,0.854l0.426,0.959l0.32,0.853
	l0.32,0.96l0.213,0.959l0.32,0.854l0.213,0.853l0.32,0.96l0.213,0.853l0.213,0.96"/>
<path fill="none" stroke="#7F7F7F" stroke-width="2" d="M38.06,11.727l2.665-0.746l2.878-0.64l2.878-0.427l2.878-0.319l2.878-0.213
	l3.838,0.106l2.878,0.213l2.879,0.427l2.879,0.64l2.771,0.64l0.854,0.319"/>
<path fill="none" stroke="#7F7F7F" stroke-width="2" d="M9.702,45.629l0.213-0.96l0.213-0.853l0.32-0.96l0.213-0.853l0.32-0.854
	l0.213-0.959l0.32-0.96l0.427-0.853l0.32-0.959l0.32-0.854l0.426-0.959l0.426-0.854l0.427-0.959l0.426-0.853l0.426-0.854
	l0.533-0.746l0.426-0.853l0.427-0.854l0.533-0.746l0.64-0.853l0.533-0.853l0.533-0.747l0.64-0.853l0.64-0.746l0.64-0.746l0.64-0.747
	l0.64-0.746l0.64-0.64l0.746-0.746l0.64-0.64l0.64-0.64l0.64-0.64"/>
</svg>
