<?xml version="1.0" encoding="utf-8"?>
<!-- Generator: Adobe Illustrator 14.0.0, SVG Export Plug-In . SVG Version: 6.00 Build 43363)  -->
<!DOCTYPE svg PUBLIC "-//W3C//DTD SVG 1.1//EN" "http://www.w3.org/Graphics/SVG/1.1/DTD/svg11.dtd">
<svg version="1.1" id="图层_1" xmlns="http://www.w3.org/2000/svg" xmlns:xlink="http://www.w3.org/1999/xlink" x="0px" y="0px"
	 width="56.182px" height="106.502px" viewBox="0 0 56.182 106.502" enable-background="new 0 0 56.182 106.502"
	 xml:space="preserve">
<path fill="#4C7F7F" stroke="#000000" stroke-width="2" d="M2.985,90.724h50.212v12.686H2.985V90.724z"/>
<path fill="#E5E5E5" stroke="#000000" stroke-width="2" d="M2.985,15.459h50.212v75.265H2.985V15.459z"/>
<path fill="#F2F2F2" stroke="#000000" stroke-width="2" d="M2.985,2.987h50.212v12.473H2.985V2.987z"/>
<path fill="#7FB2B2" stroke="#000000" stroke-width="2" d="M2.985,3.52h16.204v11.939H2.985V3.52z"/>
<path fill="#7FB2B2" stroke="#000000" stroke-width="2" d="M36.566,90.724h16.631v12.152H36.566V90.724z"/>
<path fill="#7FB2B2" stroke="#000000" stroke-width="2" d="M2.985,90.724h16.631v12.152H2.985V90.724z"/>
<path fill="#999999" d="M4.584,5.012h2.025v8.955H4.584V5.012z"/>
<path fill="#999999" d="M8.209,5.012h2.025v8.849H8.209V5.012z"/>
<path fill="#999999" d="M11.834,5.012h2.132v8.849h-2.132V5.012z"/>
<path fill="#999999" d="M15.672,5.012h1.918v8.849h-1.918V5.012z"/>
<path fill="#99CCCC" stroke="#000000" stroke-width="2" d="M19.189,14.393h34.008v1.066H19.189V14.393z"/>
<path fill="#7F7F7F" d="M13.432,57.462l4.157-4.265V28.038h20.896l4.264-4.157H13.432V57.462z"/>
<path fill="#FFFFFF" d="M42.749,23.881l-4.264,4.157v25.159H17.59l-4.157,4.265h29.316V23.881z"/>
<path fill="none" stroke="#000000" stroke-width="2" d="M13.432,23.881h29.316v33.581H13.432V23.881"/>
<path fill="#BFBFBF" stroke="#000000" stroke-width="2" d="M17.59,28.038h20.896v25.159H17.59V28.038z"/>
<path d="M11.407,68.869H9.168l1.279,5.863L11.407,68.869z"/>
<path d="M9.168,66.844h2.239l-0.96-5.757L9.168,66.844z"/>
<path fill="#4C4C4C" d="M10.234,25.906l-0.64-0.213l-0.427-0.853l0.427-0.533l0.64-0.427l0.746,0.427l0.427,0.533l-0.427,0.853
	L10.234,25.906z"/>
<path fill="#4C4C4C" d="M10.234,32.303l-0.64-0.427l-0.427-0.532l0.427-0.854l0.64-0.426l0.746,0.426l0.427,0.854l-0.427,0.532
	L10.234,32.303z"/>
<path fill="#4C4C4C" d="M45.947,25.906l-0.746-0.213l-0.213-0.853l0.213-0.533l0.746-0.427l0.64,0.427l0.427,0.533l-0.427,0.853
	L45.947,25.906z"/>
<path fill="#4C4C4C" d="M45.947,32.303l-0.746-0.427l-0.213-0.532l0.213-0.854l0.746-0.426l0.64,0.426l0.427,0.854l-0.427,0.532
	L45.947,32.303z"/>
<path fill="#4C4C4C" d="M15.672,74.093l-1.706-0.64l-0.533-1.386l0.533-1.6l1.706-0.64l1.386,0.64l0.532,1.6l-0.532,1.386
	L15.672,74.093z"/>
<path fill="#4C4C4C" d="M15.458,65.884l-1.492-0.64l-0.533-1.599l0.533-1.387l1.492-0.64l1.6,0.64l0.532,1.387l-0.532,1.599
	L15.458,65.884z"/>
<path fill="#4C4C4C" d="M30.276,65.884l-1.599-0.64l-0.64-1.599l0.64-1.387l1.599-0.64l1.386,0.64l0.64,1.387l-0.64,1.599
	L30.276,65.884z"/>
<path fill="#4C4C4C" d="M30.276,74.093l-1.599-0.64l-0.64-1.386l0.64-1.6l1.599-0.64l1.386,0.64l0.64,1.6l-0.64,1.386L30.276,74.093
	z"/>
<path fill="#E5E5E5" stroke="#000000" stroke-width="2" d="M15.672,98.825l-1.279-0.64l-0.427-0.959l0.427-1.279l1.279-0.32
	l0.959,0.32l0.427,1.279l-0.427,0.959L15.672,98.825z"/>
<path fill="#E5E5E5" stroke="#000000" stroke-width="2" d="M11.407,98.825l-1.173-0.64l-0.427-0.959l0.427-1.279l1.173-0.32
	l0.959,0.32l0.427,1.279l-0.427,0.959L11.407,98.825z"/>
<path fill="#E5E5E5" stroke="#000000" stroke-width="2" d="M7.142,98.825l-1.173-0.64l-0.426-0.959l0.426-1.279l1.173-0.32
	l1.066,0.32l0.533,1.279l-0.533,0.959L7.142,98.825z"/>
<path fill="#E5E5E5" stroke="#000000" stroke-width="2" d="M48.932,98.825l-0.959-0.64l-0.427-0.959l0.427-1.279l0.959-0.32
	l1.279,0.32l0.319,1.279l-0.319,0.959L48.932,98.825z"/>
<path fill="#E5E5E5" stroke="#000000" stroke-width="2" d="M44.988,98.825l-1.279-0.64l-0.32-0.959l0.32-1.279l1.279-0.32
	l0.959,0.32l0.427,1.279l-0.427,0.959L44.988,98.825z"/>
<path fill="#E5E5E5" stroke="#000000" stroke-width="2" d="M40.723,98.825l-1.173-0.64l-0.426-0.959l0.426-1.279l1.173-0.32
	l1.066,0.32l0.319,1.279l-0.319,0.959L40.723,98.825z"/>
</svg>
