<?xml version="1.0" encoding="utf-8"?>
<!-- Generator: Adobe Illustrator 14.0.0, SVG Export Plug-In . SVG Version: 6.00 Build 43363)  -->
<!DOCTYPE svg PUBLIC "-//W3C//DTD SVG 1.1//EN" "http://www.w3.org/Graphics/SVG/1.1/DTD/svg11.dtd">
<svg version="1.1" id="图层_1" xmlns="http://www.w3.org/2000/svg" xmlns:xlink="http://www.w3.org/1999/xlink" x="0px" y="0px"
	 width="70.358px" height="106.502px" viewBox="0 0 70.358 106.502" enable-background="new 0 0 70.358 106.502"
	 xml:space="preserve">
<path fill="#FFFF00" stroke="#000000" stroke-width="2" d="M34.539,2.881h29.423v80.485H34.539V2.881z"/>
<path stroke="#000000" stroke-width="2" d="M63.962,2.881h3.518v80.485h-3.518V2.881z"/>
<path fill="#FFFF00" stroke="#000000" stroke-width="2" d="M37.631,83.366H62.47v17.057H37.631V83.366z"/>
<path stroke="#000000" stroke-width="2" d="M34.539,71.001H15.99V15.247h18.549V71.001z"/>
<path fill="#FFFF00" stroke="#000000" stroke-width="2" d="M15.99,19.298H3.624v47.759H15.99V19.298z"/>
<path d="M3.624,20.577H2.878V65.67h1.386V20.577H3.624z"/>
<path stroke="#000000" stroke-width="2" d="M37.631,100.423l1.599,3.092l21.641-0.106l1.6-2.985H37.631z"/>
<path fill="none" stroke="#FFFFFF" stroke-width="2" d="M3.624,52.451V33.903"/>
<path fill="#FFFF99" d="M37.631,12.156h26.331v21.747H37.631V12.156z"/>
<path fill="#FFFF66" d="M37.631,61.726h26.331v9.275H37.631V61.726z"/>
<path fill="#7F7F7F" d="M16.95,23.03h16.843v7.675H16.95V23.03z"/>
<path fill="#7F7F7F" d="M16.95,57.035h16.843v6.29H16.95V57.035z"/>
<path fill="#FFFF99" d="M5.117,24.522h10.127v12.366H5.117V24.522z"/>
<path fill="#FFFF66" d="M5.117,52.451h10.127v9.274H5.117V52.451z"/>
<path fill="#7F7F7F" d="M63.962,12.156h3.092v21.747h-3.092V12.156z"/>
<path fill="#7F7F7F" d="M63.962,61.726h3.092v9.275h-3.092V61.726z"/>
</svg>
