<?xml version="1.0" encoding="utf-8"?>
<!-- Generator: Adobe Illustrator 14.0.0, SVG Export Plug-In . SVG Version: 6.00 Build 43363)  -->
<!DOCTYPE svg PUBLIC "-//W3C//DTD SVG 1.1//EN" "http://www.w3.org/Graphics/SVG/1.1/DTD/svg11.dtd">
<svg version="1.1" id="图层_1" xmlns="http://www.w3.org/2000/svg" xmlns:xlink="http://www.w3.org/1999/xlink" x="0px" y="0px"
	 width="102.132px" height="106.502px" viewBox="0 0 102.132 106.502" enable-background="new 0 0 102.132 106.502"
	 xml:space="preserve">
<path fill="#4C4C4C" stroke="#000000" stroke-width="2" d="M6.29,8.422L2.985,48.08l0.32,1.813l1.386,1.066l2.985,2.132l0.319,1.173
	l-0.213,9.915l2.025,9.701l4.157,8.955l5.971,7.889l7.676,6.184l8.849,4.265l9.595,2.238h9.915l9.701-2.238l8.849-4.265l7.676-6.184
	l5.97-7.889l4.158-8.955l2.025-9.701l-0.106-9.915l0.213-1.173l3.092-2.132l1.386-1.066l0.213-1.813L95.948,8.422l-0.959-2.771
	l-2.132-2.026l-2.772-0.64H12.047l-2.771,0.64L7.25,5.651L6.29,8.422z"/>
<path stroke="#000000" stroke-width="2" d="M44.136,21.642h13.966l9.274,2.452l8.423,4.69l7.036,6.717l5.117,8.208l2.771,9.382
	l1.706-3.624l2.878-2.666l-3.091-38.06L91.47,7.249l-1.386-0.64H12.047l-1.279,0.64L9.915,8.741l-3.198,37.74l3.092,2.665
	l1.706,3.625l2.771-9.275l5.011-8.103l7.143-6.716l8.209-4.584L44.136,21.642z"/>
<path fill="#CCCCCC" stroke="#000000" stroke-width="2" d="M45.522,19.296v5.224l-8.955,2.665l-7.996,4.691l-6.503,6.823
	l-4.478,8.208l-2.345,9.063l0.106,9.381l2.452,9.063l4.903,7.995l6.503,6.61l8.209,4.69l8.955,2.346h9.382l8.955-2.346l8.209-4.69
	l6.717-6.61l4.69-7.995l2.559-9.063l0.106-9.381l-2.452-9.063l-4.584-8.208l-6.396-6.823l-7.995-4.691l-9.063-2.665v-5.224H45.522z"
	/>
<path d="M51.066,28.251l3.198,0.106l3.198,0.64l3.092,0.747l2.771,1.065l2.879,1.386l2.559,1.387l2.345,1.919l2.346,2.025
	l2.025,2.238l1.813,2.452l1.6,2.665l1.386,2.772l1.065,2.878l0.854,3.092l0.319,3.092l0.106,1.599v1.706l-0.106,3.198l-0.319,3.092
	l-0.854,3.092l-1.065,2.771l-1.386,2.879l-1.6,2.559l-1.813,2.559l-2.025,2.132l-2.346,2.132l-2.345,1.706l-2.559,1.6l-2.879,1.386
	l-2.771,1.066l-3.092,0.853l-3.198,0.319l-1.6,0.107l-1.599,0.213l-1.6-0.213l-3.198-0.214l-3.092-0.64l-2.984-0.959l-2.772-1.173
	l-2.771-1.492l-2.452-1.6l-2.452-2.025l-2.132-2.133l-1.919-2.345l-1.706-2.559l-1.492-2.665l-1.173-2.879l-0.959-2.985l-0.64-3.092
	l-0.214-1.492l-0.106-1.706v-1.492l0.106-3.305l0.64-3.092l0.746-3.092l1.066-2.878l1.173-2.772l1.706-2.665l1.812-2.452
	l2.026-2.238l2.238-2.025l2.452-1.919l2.665-1.387l2.665-1.386l2.985-1.065l3.092-0.747l3.092-0.64l1.599-0.106H51.066z"/>
<path fill="#7F7F7F" d="M20.789,59.914l2.133-11.407l6.503-10.341l10.234-6.396l11.407-2.133l11.407,2.133l10.341,6.396
	l6.503,10.341l2.133,11.407l-2.133,11.407l-6.503,10.234l-10.341,6.609l-11.407,2.133l-11.407-2.133l-10.234-6.609l-6.503-10.234
	L20.789,59.914z"/>
<circle fill="#B5B5B5" cx="45.095" cy="53.945" r="18.443"/>
<circle fill="#D1D1D1" cx="42.111" cy="50.959" r="12.473"/>
</svg>
