<?xml version="1.0" encoding="utf-8"?>
<!-- Generator: Adobe Illustrator 14.0.0, SVG Export Plug-In . SVG Version: 6.00 Build 43363)  -->
<!DOCTYPE svg PUBLIC "-//W3C//DTD SVG 1.1//EN" "http://www.w3.org/Graphics/SVG/1.1/DTD/svg11.dtd">
<svg version="1.1" id="图层_1" xmlns="http://www.w3.org/2000/svg" xmlns:xlink="http://www.w3.org/1999/xlink" x="0px" y="0px"
	 width="106.502px" height="106.502px" viewBox="0 0 106.502 106.502" enable-background="new 0 0 106.502 106.502"
	 xml:space="preserve">
<circle cx="53.198" cy="53.198" r="50.213"/>
<path fill="#FF0000" stroke="#000000" stroke-width="2" d="M5.224,52.985l3.412-17.804l10.448-16.098L35.394,8.316l17.591-3.412
	l18.229,3.412l16.099,10.768L98.08,35.181l3.412,17.804L98.08,71.001L87.313,87.313L71.214,97.76l-18.229,3.412L35.394,97.76
	L19.083,87.313L8.635,71.001L5.224,52.985z"/>
<path fill="#FF6B6B" d="M14.605,43.496l2.025-10.768l6.396-9.914l9.915-6.396l10.767-2.026l11.087,2.026l9.915,6.396l6.29,9.914
	l2.133,10.768l-2.133,11.088l-6.29,10.127l-9.915,6.184l-11.087,2.239l-10.767-2.239l-9.915-6.184l-6.396-10.127L14.605,43.496z"/>
<path fill="#FFA3A3" d="M19.296,38.912l1.386-7.463l4.158-6.609l6.823-4.371l7.462-1.386l7.463,1.386l6.609,4.371l4.371,6.609
	l1.493,7.463l-1.493,7.463l-4.371,6.822l-6.609,4.265l-7.463,1.386l-7.462-1.386l-6.823-4.265l-4.158-6.822L19.296,38.912z"/>
<circle fill="#FFD9D9" cx="34.328" cy="34.328" r="10.448"/>
</svg>
