<?xml version="1.0" encoding="utf-8"?>
<!-- Generator: Adobe Illustrator 14.0.0, SVG Export Plug-In . SVG Version: 6.00 Build 43363)  -->
<!DOCTYPE svg PUBLIC "-//W3C//DTD SVG 1.1//EN" "http://www.w3.org/Graphics/SVG/1.1/DTD/svg11.dtd">
<svg version="1.1" id="图层_1" xmlns="http://www.w3.org/2000/svg" xmlns:xlink="http://www.w3.org/1999/xlink" x="0px" y="0px"
	 width="102.132px" height="106.502px" viewBox="0 0 102.132 106.502" enable-background="new 0 0 102.132 106.502"
	 xml:space="preserve">
<path fill="#4C4C4C" stroke="#000000" stroke-width="2" d="M6.29,8.422L2.985,48.08l0.427,1.813l1.279,1.066l2.985,2.132
	l0.426,1.173l-0.319,9.915l2.025,9.701l4.157,8.955l5.971,7.889l7.676,6.184l8.849,4.265l9.595,2.238h9.915l9.701-2.238l8.849-4.265
	l7.569-6.184l6.076-7.889l4.158-8.955l2.025-9.701l-0.106-9.915l0.213-1.173l3.092-2.132l1.386-1.066l0.213-1.813L95.948,8.422
	l-0.959-2.771l-2.132-2.026l-2.772-0.64H12.047l-2.771,0.64L7.25,5.651L6.29,8.422z"/>
<path stroke="#000000" stroke-width="2" d="M44.136,21.748h13.966l9.274,2.346l8.423,4.69l7.036,6.717l5.011,8.208l2.878,9.382
	l1.706-3.624l2.878-2.666l-3.091-38.06L91.47,7.249l-1.386-0.64H12.047l-1.279,0.64L9.915,8.741l-3.198,37.74l3.092,2.665
	l1.706,3.625l2.878-9.169l4.904-8.209l7.143-6.716l8.315-4.584L44.136,21.748z"/>
<path fill="#CCCCCC" stroke="#000000" stroke-width="2" d="M45.522,19.296v5.224l-8.955,2.665l-7.996,4.691l-6.503,6.823
	l-4.478,8.208l-2.345,9.063l0.213,9.381l2.346,9.063l4.797,7.995l6.609,6.61l8.209,4.584l8.955,2.452h9.382l8.955-2.452l8.209-4.584
	l6.717-6.61l4.69-7.995l2.452-9.063l0.213-9.381l-2.452-9.063l-4.584-8.208l-6.396-6.823l-7.995-4.691l-9.063-2.665v-5.224H45.522z"
	/>
<circle cx="51.066" cy="60.021" r="31.77"/>
<path fill="#FFCC00" d="M20.682,60.021l2.132-11.407l6.504-10.234l10.341-6.609l11.514-2.133L62.58,31.77l10.341,6.609l6.503,10.234
	l2.133,11.407l-2.133,11.407l-6.503,10.341L62.58,88.273l-11.407,2.132l-11.514-2.132l-10.341-6.504l-6.504-10.341L20.682,60.021z"
	/>
<circle fill="#FFE06B" cx="45.203" cy="54.051" r="18.55"/>
<circle fill="#FFEDA3" cx="42.218" cy="51.066" r="12.58"/>
<circle fill="#FFFAD9" cx="39.126" cy="47.974" r="6.61"/>
</svg>
