<?xml version="1.0" encoding="utf-8"?>
<!-- Generator: Adobe Illustrator 14.0.0, SVG Export Plug-In . SVG Version: 6.00 Build 43363)  -->
<!DOCTYPE svg PUBLIC "-//W3C//DTD SVG 1.1//EN" "http://www.w3.org/Graphics/SVG/1.1/DTD/svg11.dtd">
<svg version="1.1" id="图层_1" xmlns="http://www.w3.org/2000/svg" xmlns:xlink="http://www.w3.org/1999/xlink" x="0px" y="0px"
	 width="74.304px" height="106.502px" viewBox="0 0 74.304 106.502" enable-background="new 0 0 74.304 106.502"
	 xml:space="preserve">
<path fill="#7F7F7F" d="M55.968,103.409L2.985,11.835l15.245-8.849l53.089,91.574L55.968,103.409z"/>
<path fill="#999999" d="M57.034,102.876L3.944,11.196l13.432-7.782L70.253,95.2L57.034,102.876z"/>
<path fill="#B2B2B2" d="M58.632,101.81L5.543,10.236l10.234-5.863l52.876,91.574L58.632,101.81z"/>
<path fill="#CCCCCC" d="M60.019,101.064L7.143,9.383l7.036-4.051l52.875,91.681L60.019,101.064z"/>
<path fill="#E5E5E5" d="M61.405,100.211L8.422,8.637l4.584-2.665l52.876,91.681L61.405,100.211z"/>
<path fill="#FFFFFF" d="M62.684,99.465L9.808,7.784l1.813-0.96l52.875,91.574L62.684,99.465z"/>
<path fill="none" stroke="#000000" stroke-width="2" d="M71.319,94.561L18.229,2.987"/>
<path fill="none" stroke="#000000" stroke-width="2" d="M2.985,11.835l52.983,91.574"/>
</svg>
