<?xml version="1.0" encoding="utf-8"?>
<!-- Generator: Adobe Illustrator 14.0.0, SVG Export Plug-In . SVG Version: 6.00 Build 43363)  -->
<!DOCTYPE svg PUBLIC "-//W3C//DTD SVG 1.1//EN" "http://www.w3.org/Graphics/SVG/1.1/DTD/svg11.dtd">
<svg version="1.1" id="图层_1" xmlns="http://www.w3.org/2000/svg" xmlns:xlink="http://www.w3.org/1999/xlink" x="0px" y="0px"
	 width="89.871px" height="106.502px" viewBox="0 0 89.871 106.502" enable-background="new 0 0 89.871 106.502"
	 xml:space="preserve">
<path fill="#7F7F7F" d="M48.08,103.41L2.985,25.48L42.003,2.986l44.882,77.931L48.08,103.41z"/>
<path fill="#999999" d="M50.425,102.131L5.437,24.2L39.551,4.265l45.095,77.931L50.425,102.131z"/>
<path fill="#B2B2B2" d="M54.583,99.679L9.595,21.748L35.5,6.717l44.988,77.931L54.583,99.679z"/>
<path fill="#CCCCCC" d="M58.528,97.441L13.433,19.297L31.556,8.955l44.882,78.144L58.528,97.441z"/>
<path fill="#E5E5E5" d="M61.726,95.522L16.631,17.591l11.514-6.717L73.24,89.018L61.726,95.522z"/>
<path fill="#FFFFFF" d="M65.137,93.709L20.042,15.566l4.904-2.665l44.881,77.93L65.137,93.709z"/>
<path fill="none" stroke="#000000" stroke-width="2" d="M86.885,80.916L42.003,2.986"/>
<path fill="none" stroke="#000000" stroke-width="2" d="M2.985,25.48L48.08,103.41"/>
</svg>
