<?xml version="1.0" encoding="utf-8"?>
<!-- Generator: Adobe Illustrator 14.0.0, SVG Export Plug-In . SVG Version: 6.00 Build 43363)  -->
<!DOCTYPE svg PUBLIC "-//W3C//DTD SVG 1.1//EN" "http://www.w3.org/Graphics/SVG/1.1/DTD/svg11.dtd">
<svg version="1.1" id="图层_1" xmlns="http://www.w3.org/2000/svg" xmlns:xlink="http://www.w3.org/1999/xlink" x="0px" y="0px"
	 width="106.503px" height="106.502px" viewBox="0 0 106.503 106.502" enable-background="new 0 0 106.503 106.502"
	 xml:space="preserve">
<path fill="#7F7F7F" d="M24.114,3.014l79.375,79.375l-21.1,21.1L3.014,24.114L24.114,3.014z"/>
<path fill="#999999" d="M22.908,4.22l79.374,79.575l-18.486,18.487L4.421,22.908L22.908,4.22z"/>
<path fill="#B2B2B2" d="M20.497,6.631l79.576,79.375l-14.066,14.066L6.631,20.496L20.497,6.631z"/>
<path fill="#CCCCCC" d="M18.487,8.641l79.375,79.575l-9.646,9.646L8.842,18.488L18.487,8.641z"/>
<path fill="#E5E5E5" d="M16.679,10.449l79.375,79.374l-6.029,6.229L10.449,16.679L16.679,10.449z"/>
<path fill="#FFFFFF" d="M14.87,12.258l79.375,79.374l-2.613,2.612L12.258,14.87L14.87,12.258z"/>
<path fill="none" stroke="#000000" stroke-width="2" d="M3.014,24.114l79.375,79.375"/>
<path fill="none" stroke="#000000" stroke-width="2" d="M103.488,82.389L24.114,3.014"/>
</svg>
