<?xml version="1.0" encoding="utf-8"?>
<!-- Generator: Adobe Illustrator 14.0.0, SVG Export Plug-In . SVG Version: 6.00 Build 43363)  -->
<!DOCTYPE svg PUBLIC "-//W3C//DTD SVG 1.1//EN" "http://www.w3.org/Graphics/SVG/1.1/DTD/svg11.dtd">
<svg version="1.1" id="图层_1" xmlns="http://www.w3.org/2000/svg" xmlns:xlink="http://www.w3.org/1999/xlink" x="0px" y="0px"
	 width="144.749px" height="100.699px" viewBox="0 0 144.749 100.699" enable-background="new 0 0 144.749 100.699"
	 xml:space="preserve">
<path fill="#7F7F7F" d="M128.52,96.643L4.058,24.776L16.084,4.057l124.461,71.866L128.52,96.643z"/>
<path fill="#999999" d="M129.389,95.483L4.782,23.472L15.215,5.361l124.606,71.866L129.389,95.483z"/>
<path fill="#B2B2B2" d="M130.693,93.31L5.942,21.299L14.2,7.534L138.662,79.4L130.693,93.31z"/>
<path fill="#CCCCCC" d="M131.852,91.137L7.246,18.98l5.506-9.273l124.605,71.867L131.852,91.137z"/>
<path fill="#E5E5E5" d="M132.866,89.543L8.115,17.387l3.622-5.94l124.461,71.722L132.866,89.543z"/>
<path fill="#FFFFFF" d="M133.736,87.659L9.275,15.793l1.594-2.753l124.461,72.155L133.736,87.659z"/>
<path fill="none" stroke="#000000" stroke-width="2" d="M140.545,75.923L16.084,4.057"/>
<path fill="none" stroke="#000000" stroke-width="2" d="M4.058,24.776L128.52,96.643"/>
</svg>
