<?xml version="1.0" encoding="utf-8"?>
<!-- Generator: Adobe Illustrator 14.0.0, SVG Export Plug-In . SVG Version: 6.00 Build 43363)  -->
<!DOCTYPE svg PUBLIC "-//W3C//DTD SVG 1.1//EN" "http://www.w3.org/Graphics/SVG/1.1/DTD/svg11.dtd">
<svg version="1.1" id="图层_1" xmlns="http://www.w3.org/2000/svg" xmlns:xlink="http://www.w3.org/1999/xlink" x="0px" y="0px"
	 width="126.058px" height="106.502px" viewBox="0 0 126.058 106.502" enable-background="new 0 0 126.058 106.502"
	 xml:space="preserve">
<path fill="#7F7F7F" d="M95.774,102.968L3.533,49.592L30.157,3.534l92.241,53.25L95.774,102.968z"/>
<path fill="#999999" d="M97.414,100.066L5.173,46.816L28.518,6.311l92.24,53.376L97.414,100.066z"/>
<path fill="#B2B2B2" d="M100.316,95.018L8.075,41.769l17.792-30.663l91.988,53.25L100.316,95.018z"/>
<path fill="#CCCCCC" d="M102.966,90.602L10.6,37.226l12.365-21.325l92.367,53.25L102.966,90.602z"/>
<path fill="#E5E5E5" d="M105.112,86.69L12.997,33.441l7.57-13.502l92.367,53.25L105.112,86.69z"/>
<path fill="#FFFFFF" d="M107.382,82.652l-92.24-53.249l3.407-5.679l92.24,53.25L107.382,82.652z"/>
<path fill="none" stroke="#000000" stroke-width="2" d="M122.399,56.784L30.157,3.534"/>
<path fill="none" stroke="#000000" stroke-width="2" d="M3.533,49.592l92.24,53.376"/>
</svg>
