<?xml version="1.0" encoding="utf-8"?>
<!-- Generator: Adobe Illustrator 14.0.0, SVG Export Plug-In . SVG Version: 6.00 Build 43363)  -->
<!DOCTYPE svg PUBLIC "-//W3C//DTD SVG 1.1//EN" "http://www.w3.org/Graphics/SVG/1.1/DTD/svg11.dtd">
<svg version="1.1" id="图层_1" xmlns="http://www.w3.org/2000/svg" xmlns:xlink="http://www.w3.org/1999/xlink" x="0px" y="0px"
	 width="56.261px" height="106.502px" viewBox="0 0 56.261 106.502" enable-background="new 0 0 56.261 106.502"
	 xml:space="preserve">
<path fill="#7F7F7F" d="M3.014,103.484l5.225-0.2l4.822-0.804l4.822-1.206l4.621-1.809l4.421-2.009l4.22-2.612l3.817-2.813
	l3.616-3.216l3.216-3.616l2.813-3.817l2.612-4.22l2.009-4.421l1.809-4.621l1.206-4.822l0.804-4.822l0.201-5.225l-0.201-5.225
	l-0.804-4.822l-1.206-4.822l-1.809-4.621l-2.009-4.421l-2.612-4.219l-2.813-3.818l-3.216-3.616l-3.616-3.215l-3.817-2.813
	l-4.22-2.612l-4.421-2.009l-4.621-1.809l-4.822-1.206L8.239,3.219l-5.225-0.2v42.798l2.813,0.603l2.411,1.607l1.607,2.411
	l0.603,2.813l-0.603,2.813l-1.607,2.21l-2.411,1.607l-2.813,0.603V103.484z"/>
<path fill="#999999" d="M3.014,100.872l4.822-0.201l4.822-0.804l4.622-1.206l4.219-1.607l4.22-2.009l4.019-2.411l3.617-2.612
	l3.416-3.215l3.014-3.416l2.813-3.616l2.21-3.818l2.009-4.22l1.607-4.42l1.206-4.421l0.804-4.822l0.201-4.822l-0.201-4.822
	l-0.804-4.822l-1.206-4.621l-1.607-4.22l-2.009-4.22l-2.21-4.019l-2.813-3.617l-3.014-3.416l-3.416-3.014l-3.617-2.813l-4.019-2.211
	l-4.22-2.009l-4.219-1.607l-4.622-1.206L7.836,5.831L3.014,5.63v37.574l4.019,0.804l3.215,2.211l2.01,3.215l0.804,3.817
	l-0.804,3.817l-2.01,3.215l-3.215,2.01l-4.019,0.804V100.872z"/>
<path fill="#B2B2B2" d="M3.014,9.85v29.336l2.813,0.201l2.813,0.804l2.411,1.406l2.01,1.607l1.809,2.211l1.205,2.411l1.005,2.611
	l0.201,2.813l-0.201,2.813l-1.005,2.611l-1.205,2.411l-1.809,2.211l-2.01,1.607L8.64,66.312l-2.813,0.804l-2.813,0.201v29.336
	l4.421-0.201l4.219-0.603l4.22-1.206l4.019-1.406l3.818-1.809l3.616-2.21l3.416-2.411l3.014-2.813l2.813-3.215l2.612-3.215
	l2.21-3.616l1.809-3.818l1.406-4.019l1.206-4.22l0.603-4.219l0.201-4.421l-0.201-4.421l-0.603-4.219l-1.206-4.22L43.2,36.373
	l-1.809-3.818l-2.21-3.616l-2.612-3.215l-2.813-3.215l-3.014-2.813l-3.416-2.411l-3.616-2.21l-3.818-1.809l-4.019-1.406l-4.22-1.206
	l-4.219-0.603L3.014,9.85z"/>
<path fill="#CCCCCC" d="M3.014,92.031l4.019-0.201l3.817-0.603l3.617-1.005l3.617-1.206l3.415-1.607l3.215-2.009l3.015-2.211
	l2.612-2.611l2.611-2.612l2.211-3.015l2.009-3.215l1.607-3.415l1.206-3.617l1.005-3.617l0.603-3.817l0.201-4.019l-0.201-4.019
	l-0.603-3.817l-1.005-3.617l-1.206-3.616l-1.607-3.416l-2.009-3.215l-2.211-3.015l-2.611-2.611l-2.612-2.612l-3.015-2.211
	l-3.215-2.009l-3.415-1.607l-3.617-1.206l-3.617-1.004l-3.817-0.604l-4.019-0.2v19.892l3.817,0.402l3.617,1.004l3.215,1.809
	l2.813,2.211l2.21,2.813l1.809,3.215l1.004,3.617l0.402,3.817l-0.402,3.817l-1.004,3.416l-1.809,3.215l-2.21,2.813l-2.813,2.411
	l-3.215,1.607l-3.617,1.205l-3.817,0.402V92.031z"/>
<path fill="#E5E5E5" d="M3.014,88.213V75.755l4.621-0.401l4.22-1.406l3.818-2.01l3.215-2.813L21.7,65.91l2.01-3.818l1.406-4.22
	l0.401-4.621l-0.401-4.621l-1.406-4.22l-2.01-3.817l-2.813-3.216l-3.215-2.813l-3.818-2.01l-4.22-1.406l-4.621-0.401V18.088
	l3.617,0.201l3.415,0.603l3.416,0.804l3.215,1.206l3.015,1.406l3.014,1.809l2.612,2.009l2.612,2.211l2.21,2.611l2.009,2.612
	l1.809,3.014l1.406,3.015l1.206,3.215l0.804,3.416l0.603,3.415l0.201,3.617l-0.201,3.617l-0.603,3.415l-0.804,3.416l-1.206,3.215
	l-1.406,3.015l-1.809,2.813l-2.009,2.813l-2.21,2.411l-2.612,2.21l-2.612,2.01l-3.014,1.808l-3.015,1.407l-3.215,1.205l-3.416,0.804
	l-3.415,0.603L3.014,88.213z"/>
<path fill="#FFFFFF" d="M3.014,84.597v-5.225l5.225-0.603l5.023-1.407l4.42-2.411l3.817-3.215l3.215-3.817l2.412-4.421l1.406-5.022
	l0.603-5.225l-0.603-5.225l-1.406-5.022l-2.412-4.421l-3.215-3.817l-3.817-3.215l-4.42-2.411l-5.023-1.407L3.014,27.13v-5.225
	l6.229,0.604l6.028,1.808l5.225,3.015l4.621,3.817l3.817,4.621l3.015,5.225l1.808,6.028l0.604,6.229l-0.604,6.229l-1.808,6.028
	l-3.015,5.225l-3.817,4.621l-4.621,3.817l-5.225,3.015l-6.028,1.808L3.014,84.597z"/>
<path fill="none" stroke="#000000" stroke-width="2" d="M3.014,45.817l1.406,0.201l1.407,0.401l1.205,0.604l1.206,1.004l1.004,1.206
	l0.604,1.205l0.401,1.407l0.201,1.406l-0.201,1.406l-0.401,1.407L9.242,57.27l-1.004,1.005L7.032,59.28l-1.205,0.603L4.42,60.283
	l-1.406,0.201"/>
<path fill="none" stroke="#000000" stroke-width="2" d="M3.014,103.484l5.225-0.2l4.822-0.804l4.822-1.206l4.621-1.809l4.421-2.009
	l4.22-2.612l3.817-2.813l3.616-3.216l3.216-3.616l2.813-3.817l2.612-4.22l2.009-4.421l1.809-4.621l1.206-4.822l0.804-4.822
	l0.201-5.225l-0.201-5.225l-0.804-4.822l-1.206-4.822l-1.809-4.621l-2.009-4.421l-2.612-4.219l-2.813-3.818l-3.216-3.616
	l-3.616-3.215l-3.817-2.813l-4.22-2.612l-4.421-2.009l-4.621-1.809l-4.822-1.206L8.239,3.219l-5.225-0.2"/>
</svg>
