<?xml version="1.0" encoding="utf-8"?>
<!-- Generator: Adobe Illustrator 14.0.0, SVG Export Plug-In . SVG Version: 6.00 Build 43363)  -->
<!DOCTYPE svg PUBLIC "-//W3C//DTD SVG 1.1//EN" "http://www.w3.org/Graphics/SVG/1.1/DTD/svg11.dtd">
<svg version="1.1" id="图层_1" xmlns="http://www.w3.org/2000/svg" xmlns:xlink="http://www.w3.org/1999/xlink" x="0px" y="0px"
	 width="56.261px" height="106.502px" viewBox="0 0 56.261 106.502" enable-background="new 0 0 56.261 106.502"
	 xml:space="preserve">
<path fill="#7F7F7F" d="M53.247,103.484l-5.023-0.2L43.2,102.48l-4.822-1.206l-4.622-1.809l-4.42-2.009l-4.019-2.612l-4.019-2.813
	l-3.416-3.216l-3.416-3.616l-2.813-3.817l-2.611-4.22l-2.01-4.421L5.224,68.12l-1.205-4.822l-0.804-4.822l-0.201-5.225l0.201-5.225
	l0.804-4.822l1.205-4.822l1.809-4.621l2.01-4.421l2.611-4.219l2.813-3.818l3.416-3.616l3.416-3.215l4.019-2.813l4.019-2.612
	l4.42-2.009l4.622-1.809L43.2,4.023l5.023-0.804l5.023-0.2v42.798l-2.813,0.603l-2.21,1.607l-1.607,2.411l-0.604,2.813l0.604,2.813
	l1.607,2.21l2.21,1.607l2.813,0.603V103.484z"/>
<path fill="#999999" d="M53.247,100.872l-4.823-0.201l-4.822-0.804l-4.42-1.206l-4.421-1.607l-4.22-2.009l-3.817-2.411l-3.617-2.612
	l-3.415-3.215l-3.215-3.416l-2.612-3.616l-2.411-3.818l-2.01-4.22l-1.607-4.42l-1.205-4.421l-0.804-4.822l-0.201-4.822l0.201-4.822
	l0.804-4.822l1.205-4.621l1.607-4.22l2.01-4.22l2.411-4.019l2.612-3.617l3.215-3.416l3.415-3.014l3.617-2.813l3.817-2.211
	l4.22-2.009l4.421-1.607l4.42-1.206l4.822-0.804l4.823-0.201v37.574l-3.818,0.804l-3.215,2.211l-2.009,3.215l-0.804,3.817
	l0.804,3.817l2.009,3.215l3.215,2.01l3.818,0.804V100.872z"/>
<path fill="#B2B2B2" d="M53.247,9.85v29.336l-2.813,0.201l-2.612,0.804l-2.411,1.406l-2.009,1.607l-1.809,2.211l-1.206,2.411
	l-1.005,2.611l-0.2,2.813l0.2,2.813l1.005,2.611l1.206,2.411l1.809,2.211l2.009,1.607l2.411,1.406l2.612,0.804l2.813,0.201v29.336
	l-4.421-0.201l-4.22-0.603l-4.22-1.206l-4.019-1.406l-3.817-1.809l-3.617-2.21l-3.215-2.411l-3.215-2.813l-2.813-3.215l-2.411-3.215
	l-2.211-3.616l-1.808-3.818l-1.407-4.019l-1.205-4.22l-0.604-4.219l-0.2-4.421l0.2-4.421l0.604-4.219l1.205-4.22l1.407-4.019
	l1.808-3.818l2.211-3.616l2.411-3.215l2.813-3.215l3.215-2.813l3.215-2.411l3.617-2.21l3.817-1.809l4.019-1.406l4.22-1.206
	l4.22-0.603L53.247,9.85z"/>
<path fill="#CCCCCC" d="M53.247,92.031l-4.02-0.201l-3.817-0.603l-3.616-1.005l-3.617-1.206l-3.416-1.607l-3.014-2.009l-3.014-2.211
	l-2.813-2.611l-2.411-2.612l-2.21-3.015l-2.01-3.215l-1.607-3.415l-1.205-3.617l-1.005-3.617l-0.603-3.817l-0.201-4.019l0.201-4.019
	l0.603-3.817l1.005-3.617l1.205-3.616l1.607-3.416l2.01-3.215l2.21-3.015l2.411-2.611l2.813-2.612l3.014-2.211l3.014-2.009
	l3.416-1.607l3.617-1.206l3.616-1.004l3.817-0.604l4.02-0.2v19.892l-3.818,0.402l-3.416,1.004l-3.215,1.809l-2.813,2.211
	l-2.211,2.813l-1.808,3.215l-1.005,3.617l-0.402,3.817l0.402,3.817l1.005,3.416l1.808,3.215l2.211,2.813l2.813,2.411l3.215,1.607
	l3.416,1.205l3.818,0.402V92.031z"/>
<path fill="#E5E5E5" d="M53.247,88.213V75.755l-4.421-0.401l-4.22-1.406l-3.817-2.01l-3.416-2.813L34.56,65.91l-2.009-3.818
	l-1.406-4.22l-0.402-4.621l0.402-4.621l1.406-4.22l2.009-3.817l2.813-3.216l3.416-2.813l3.817-2.01l4.22-1.406l4.421-0.401V18.088
	l-3.617,0.201l-3.416,0.603l-3.416,0.804l-3.215,1.206l-3.014,1.406l-2.813,1.809l-2.813,2.009l-2.411,2.211l-2.211,2.611
	l-2.009,2.612l-1.809,3.014l-1.406,3.015l-1.206,3.215l-0.804,3.416l-0.603,3.415l-0.201,3.617l0.201,3.617l0.603,3.415l0.804,3.416
	l1.206,3.215l1.406,3.015l1.809,2.813l2.009,2.813l2.211,2.411l2.411,2.21l2.813,2.01l2.813,1.808l3.014,1.407l3.215,1.205
	l3.416,0.804l3.416,0.603L53.247,88.213z"/>
<path fill="#FFFFFF" d="M53.247,84.597v-5.225l-5.225-0.603L43.2,77.363l-4.421-2.411l-4.019-3.215l-3.215-3.817l-2.411-4.421
	l-1.406-5.022l-0.603-5.225l0.603-5.225l1.406-5.022l2.411-4.421l3.215-3.817l4.019-3.215L43.2,29.14l4.822-1.407l5.225-0.603
	v-5.225l-6.229,0.604l-6.027,1.808l-5.225,3.015l-4.621,3.817l-3.818,4.621l-3.014,5.225l-1.809,6.028l-0.603,6.229l0.603,6.229
	l1.809,6.028l3.014,5.225l3.818,4.621l4.621,3.817l5.225,3.015l6.027,1.808L53.247,84.597z"/>
<path fill="none" stroke="#000000" stroke-width="2" d="M53.247,45.817l-1.407,0.201l-1.406,0.401l-1.206,0.604l-1.004,1.004
	l-1.005,1.206l-0.603,1.205l-0.402,1.407l-0.201,1.406l0.201,1.406l0.402,1.407l0.603,1.205l1.005,1.005l1.004,1.005l1.206,0.603
	l1.406,0.401l1.407,0.201"/>
<path fill="none" stroke="#000000" stroke-width="2" d="M53.247,103.484l-5.023-0.2L43.2,102.48l-4.822-1.206l-4.622-1.809
	l-4.42-2.009l-4.019-2.612l-4.019-2.813l-3.416-3.216l-3.416-3.616l-2.813-3.817l-2.611-4.22l-2.01-4.421L5.224,68.12l-1.205-4.822
	l-0.804-4.822l-0.201-5.225l0.201-5.225l0.804-4.822l1.205-4.822l1.809-4.621l2.01-4.421l2.611-4.219l2.813-3.818l3.416-3.616
	l3.416-3.215l4.019-2.813l4.019-2.612l4.42-2.009l4.622-1.809L43.2,4.023l5.023-0.804l5.023-0.2"/>
</svg>
