<?xml version="1.0" encoding="utf-8"?>
<!-- Generator: Adobe Illustrator 14.0.0, SVG Export Plug-In . SVG Version: 6.00 Build 43363)  -->
<!DOCTYPE svg PUBLIC "-//W3C//DTD SVG 1.1//EN" "http://www.w3.org/Graphics/SVG/1.1/DTD/svg11.dtd">
<svg version="1.1" id="图层_1" xmlns="http://www.w3.org/2000/svg" xmlns:xlink="http://www.w3.org/1999/xlink" x="0px" y="0px"
	 width="144.749px" height="76.471px" viewBox="0 0 144.749 76.471" enable-background="new 0 0 144.749 76.471"
	 xml:space="preserve">
<path fill="#7F7F7F" d="M140.653,4.097l-0.273,7.101l-1.093,6.555l-1.639,6.555l-2.458,6.281l-2.73,6.009l-3.551,5.735l-3.823,5.189
	l-4.37,4.916l-4.916,4.369l-5.189,3.824l-5.735,3.55l-6.008,2.731l-6.282,2.458l-6.555,1.639l-6.555,1.093l-7.101,0.272
	l-6.827-0.272l-6.828-1.093l-6.555-1.639l-6.281-2.458l-6.009-2.731l-5.462-3.55l-5.463-3.824l-4.643-4.369l-4.643-4.916
	l-3.824-5.189l-3.55-5.735l-2.731-6.009l-2.458-6.281l-1.639-6.555l-1.093-6.555L4.097,4.097h58.445l0.819,3.823l2.186,3.004
	l3.004,2.186l3.823,0.819l3.823-0.819l3.277-2.186L81.66,7.92l0.819-3.823H140.653z"/>
<path fill="#999999" d="M137.102,4.097l-0.273,6.555l-1.092,6.555l-1.639,6.008l-2.186,6.009l-2.73,5.735l-3.005,5.189l-3.823,4.916
	l-4.097,4.643l-4.643,4.37l-4.916,3.55l-5.463,3.277L97.5,63.635l-5.735,2.185l-6.281,1.639l-6.555,1.093l-6.555,0.273l-6.555-0.273
	l-6.555-1.093l-6.008-1.639l-6.009-2.185l-5.735-2.731l-5.189-3.277l-4.916-3.55l-4.643-4.37l-4.37-4.643l-3.55-4.916l-3.277-5.189
	l-2.731-5.735l-2.185-6.009l-1.639-6.008L7.92,10.652L7.647,4.097h51.346l1.092,5.188l2.731,4.37l4.369,2.731l5.189,1.092
	l5.462-1.092l4.37-2.731l2.731-4.37l1.092-5.188H137.102z"/>
<path fill="#B2B2B2" d="M13.382,4.097h39.875L53.53,7.92l1.366,3.551l1.639,3.277l2.458,3.004l2.73,2.185L65,21.849l3.551,1.093
	l3.823,0.272l3.823-0.272l3.824-1.093l3.277-1.912l2.73-2.185l2.458-3.004l1.639-3.277l1.366-3.551l0.272-3.823h39.602l-0.273,6.008
	l-0.819,5.735l-1.639,5.735l-1.911,5.463l-2.458,5.188l-3.005,4.916l-3.277,4.37l-3.823,4.37l-4.37,3.823l-4.369,3.277l-4.916,3.004
	l-5.189,2.458l-5.462,1.912l-5.735,1.639l-5.735,0.819l-6.009,0.273l-6.009-0.273l-5.734-0.819l-5.735-1.639l-5.463-1.912
	l-5.188-2.458l-4.916-3.004l-4.37-3.277l-4.37-3.823l-3.823-4.37l-3.277-4.37l-3.004-4.916l-2.458-5.188l-1.912-5.463l-1.639-5.735
	l-0.819-5.735L13.382,4.097z"/>
<path fill="#CCCCCC" d="M125.085,4.097l-0.273,5.462l-0.819,5.189l-1.365,4.916l-1.639,4.916l-2.186,4.643l-2.73,4.37l-3.005,4.097
	l-3.55,3.55l-3.551,3.551l-4.097,3.004l-4.37,2.731l-4.643,2.185l-4.916,1.639l-4.916,1.366l-5.189,0.819l-5.462,0.272l-5.462-0.272
	l-5.189-0.819l-4.916-1.366l-4.916-1.639l-4.643-2.185l-4.097-2.731l-4.097-3.004l-3.823-3.551l-3.277-3.55l-3.005-4.097l-2.73-4.37
	l-2.186-4.643l-1.639-4.916l-1.365-4.916L20.21,9.559l-0.273-5.462h27.038l0.547,5.188l1.365,4.644l2.458,4.369l3.004,3.824
	l3.824,3.277l4.369,2.185l4.643,1.639l5.189,0.546l5.189-0.546l4.916-1.639l4.369-2.185l3.824-3.277l3.004-3.824l2.458-4.369
	L97.5,9.285l0.547-5.188H125.085z"/>
<path fill="#E5E5E5" d="M120.169,4.097h-17.206l-0.547,6.281l-1.911,5.735l-2.731,5.189l-3.823,4.369l-4.37,3.824l-5.189,2.73
	l-5.735,1.912l-6.281,0.546l-6.009-0.546l-5.734-1.912l-5.189-2.73l-4.643-3.824l-3.824-4.369l-2.73-5.189l-1.912-5.735
	l-0.546-6.281H24.853l0.273,4.916l0.819,4.643l1.093,4.643l1.639,4.37l1.911,4.097l2.458,3.823l2.731,3.824l3.004,3.277l3.277,3.004
	l3.824,2.731l3.823,2.458l4.097,1.911l4.37,1.639l4.643,1.093l4.643,0.819l4.916,0.273l4.916-0.273l4.643-0.819l4.644-1.093
	l4.369-1.639l4.097-1.911l4.097-2.458l3.551-2.731l3.551-3.004l3.004-3.277l2.731-3.824l2.458-3.823l1.911-4.097l1.639-4.37
	l1.093-4.643l0.819-4.643L120.169,4.097z"/>
<path fill="#FFFFFF" d="M114.98,4.097h-7.101l-0.819,7.101l-1.912,6.828l-3.277,6.008l-4.37,5.189l-5.188,4.37l-6.009,3.277
	l-6.828,1.911l-7.101,0.819l-7.101-0.819l-6.555-1.911l-6.009-3.277l-5.462-4.37l-4.37-5.189l-3.277-6.008l-1.911-6.828L36.87,4.097
	h-7.102l0.819,8.466l2.458,8.193l4.097,7.102l5.189,6.281l6.281,5.189l7.102,4.097l8.193,2.458l8.466,0.819l8.467-0.819l8.193-2.458
	l7.101-4.097l6.281-5.189l5.189-6.281l4.097-7.102l2.458-8.193L114.98,4.097z"/>
<path fill="none" stroke="#000000" stroke-width="2" d="M62.542,4.097l0.273,1.911l0.546,1.912l0.819,1.639l1.366,1.365l1.365,1.366
	l1.639,0.819l1.911,0.546l1.912,0.273l1.912-0.273l1.911-0.546l1.639-0.819l1.639-1.366l1.366-1.365L81.66,7.92l0.546-1.912
	l0.273-1.911"/>
<path fill="none" stroke="#000000" stroke-width="2" d="M140.653,4.097l-0.273,7.101l-1.093,6.555l-1.639,6.555l-2.458,6.281
	l-2.73,6.009l-3.551,5.735l-3.823,5.189l-4.37,4.916l-4.916,4.369l-5.189,3.824l-5.735,3.55l-6.008,2.731l-6.282,2.458l-6.555,1.639
	l-6.555,1.093l-7.101,0.272l-6.827-0.272l-6.828-1.093l-6.555-1.639l-6.281-2.458l-6.009-2.731l-5.462-3.55l-5.463-3.824
	l-4.643-4.369l-4.643-4.916l-3.824-5.189l-3.55-5.735l-2.731-6.009l-2.458-6.281l-1.639-6.555l-1.093-6.555L4.097,4.097"/>
</svg>
