<?xml version="1.0" encoding="utf-8"?>
<!-- Generator: Adobe Illustrator 14.0.0, SVG Export Plug-In . SVG Version: 6.00 Build 43363)  -->
<!DOCTYPE svg PUBLIC "-//W3C//DTD SVG 1.1//EN" "http://www.w3.org/Graphics/SVG/1.1/DTD/svg11.dtd">
<svg version="1.1" id="图层_1" xmlns="http://www.w3.org/2000/svg" xmlns:xlink="http://www.w3.org/1999/xlink" x="0px" y="0px"
	 width="121.212px" height="106.502px" viewBox="0 0 121.212 106.502" enable-background="new 0 0 121.212 106.502"
	 xml:space="preserve">
<path fill="#7F7F7F" d="M43.176,103.303H3.198V23.029h39.978V103.303z"/>
<path fill="#999999" d="M43.176,98.186H3.198v-70.04h39.978V98.186z"/>
<path fill="#B2B2B2" d="M43.176,89.87H3.198V36.46h39.978V89.87z"/>
<path fill="#CCCCCC" d="M43.176,81.555H3.198V44.776h39.978V81.555z"/>
<path fill="#E5E5E5" d="M43.176,75.159H3.198V51.492h39.978V75.159z"/>
<path fill="#FFFFFF" d="M43.176,68.123H3.198v-9.915h39.978V68.123z"/>
<path fill="none" stroke="#000000" stroke-width="2" d="M43.176,23.029H3.198"/>
<path fill="none" stroke="#000000" stroke-width="2" d="M3.198,103.303h39.978"/>
<path fill="#7F7F7F" d="M43.176,23.348l39.978,69.401l-4.478,2.238l-4.798,2.239l-4.797,1.919l-5.117,1.279l-5.117,1.279
	l-5.437,0.959l-5.117,0.32l-5.117,0.319V23.348z"/>
<path fill="#999999" d="M43.176,23.348l37.419,64.924l-4.158,2.238l-4.478,1.919l-4.797,1.919l-4.797,1.279l-4.798,0.96
	l-4.797,0.959l-4.798,0.32l-4.797,0.319V23.348z"/>
<path fill="#B2B2B2" d="M43.176,23.348l33.261,57.567l-3.838,1.919l-3.838,1.919l-4.157,1.6l-4.157,1.279l-4.158,0.959l-4.478,0.64
	l-4.157,0.64h-4.478V23.348z"/>
<path fill="#CCCCCC" d="M43.176,23.348L72.28,73.88l-3.198,1.919l-3.519,1.279l-3.518,1.599l-3.838,0.959l-3.838,0.96l-3.518,0.319
	l-3.838,0.64h-3.838V23.348z"/>
<path fill="#E5E5E5" d="M43.176,23.348l25.905,44.775l-2.879,1.599l-3.197,1.279l-3.198,1.279l-3.198,0.96l-3.198,0.64l-3.519,0.64
	l-3.198,0.319h-3.518V23.348z"/>
<path fill="#FFFFFF" d="M43.176,23.348l22.387,39.019l-2.558,1.279l-2.559,1.279l-2.879,0.959l-2.559,0.64l-3.198,0.64l-2.878,0.64
	l-2.879,0.32h-2.878V23.348z"/>
<path fill="#E5E5E5" d="M43.176,23.348l17.59,30.383l-1.919,0.96l-2.238,0.959l-2.239,0.64l-2.238,0.64l-2.239,0.64l-2.238,0.32
	l-2.239,0.319h-2.238V23.348z"/>
<path fill="#CCCCCC" d="M43.176,23.348l14.072,24.307l-1.6,0.959l-1.599,0.64l-1.919,0.64l-1.6,0.64l-1.919,0.32l-1.919,0.319
	l-1.599,0.32h-1.919V23.348z"/>
<path fill="#B2B2B2" d="M43.176,23.348l10.874,18.55l-1.279,0.64l-1.279,0.64l-1.279,0.319l-1.279,0.64l-1.6,0.32h-1.279
	l-1.599,0.319h-1.279V23.348z"/>
<path fill="#999999" d="M43.176,23.348l6.716,11.514l-1.599,0.64l-1.6,0.64l-1.919,0.319h-1.599V23.348z"/>
<path fill="#7F7F7F" d="M43.176,23.348l2.559,4.158l-0.64,0.319l-0.64,0.32h-0.64h-0.64V23.348z"/>
<path fill="#7F7F7F" d="M118.014,72.601l-34.86,20.148L43.176,23.348l34.54-20.148L118.014,72.601z"/>
<path fill="#999999" d="M115.455,68.443L80.914,88.272l-35.18-60.766l34.54-20.149L115.455,68.443z"/>
<path fill="#B2B2B2" d="M110.978,60.767L76.437,80.915L49.892,34.862l34.541-20.148L110.978,60.767z"/>
<path fill="#CCCCCC" d="M107.14,53.731L72.28,73.88L54.05,41.898l34.54-19.829L107.14,53.731z"/>
<path fill="#E5E5E5" d="M103.622,48.294L69.081,68.123L57.248,47.655l34.86-19.829L103.622,48.294z"/>
<path fill="#FFFFFF" d="M100.424,42.217L65.563,62.046l-4.797-8.315l34.541-20.148L100.424,42.217z"/>
<path fill="none" stroke="#000000" stroke-width="2" d="M77.716,3.199l-34.54,20.148"/>
<path fill="none" stroke="#000000" stroke-width="2" d="M83.154,92.749l34.86-20.148"/>
<path fill="none" stroke="#000000" stroke-width="2" d="M83.154,92.749l-4.478,2.238l-4.798,2.239l-4.797,1.919l-5.117,1.279
	l-5.117,1.279l-5.437,0.959l-5.117,0.32l-5.117,0.319"/>
</svg>
