<?xml version="1.0" encoding="utf-8"?>
<!-- Generator: Adobe Illustrator 14.0.0, SVG Export Plug-In . SVG Version: 6.00 Build 43363)  -->
<!DOCTYPE svg PUBLIC "-//W3C//DTD SVG 1.1//EN" "http://www.w3.org/Graphics/SVG/1.1/DTD/svg11.dtd">
<svg version="1.1" id="图层_1" xmlns="http://www.w3.org/2000/svg" xmlns:xlink="http://www.w3.org/1999/xlink" x="0px" y="0px"
	 width="121.255px" height="106.502px" viewBox="0 0 121.255 106.502" enable-background="new 0 0 121.255 106.502"
	 xml:space="preserve">
<path fill="#7F7F7F" d="M77.95,3.209h40.098v80.195H77.95V3.209z"/>
<path fill="#999999" d="M77.95,8.021h40.098v70.572H77.95V8.021z"/>
<path fill="#B2B2B2" d="M77.95,16.682h40.098v53.57H77.95V16.682z"/>
<path fill="#CCCCCC" d="M77.95,25.023h40.098v36.89H77.95V25.023z"/>
<path fill="#E5E5E5" d="M77.95,31.438h40.098v23.417H77.95V31.438z"/>
<path fill="#FFFFFF" d="M77.95,38.495h40.098v9.623H77.95V38.495z"/>
<path fill="none" stroke="#000000" stroke-width="2" d="M77.95,83.405h40.098"/>
<path fill="none" stroke="#000000" stroke-width="2" d="M118.047,3.209H77.95"/>
<path fill="#7F7F7F" d="M77.95,83.405L37.852,13.795l4.491-2.566l4.812-1.925l4.812-1.925l5.133-1.604l5.132-0.962l5.453-0.963
	l5.133-0.32l5.133-0.321V83.405z"/>
<path fill="#999999" d="M77.95,83.405L40.418,17.965l4.17-2.245l4.491-1.925l4.812-1.925l4.812-1.283l4.811-0.962l4.813-0.963
	l4.812-0.32l4.812-0.321V83.405z"/>
<path fill="#B2B2B2" d="M77.95,83.405L44.588,25.343l3.85-1.925l3.849-1.924l4.17-1.604l4.17-1.283l4.17-0.962l4.491-0.642
	l4.171-0.642h4.49V83.405z"/>
<path fill="#CCCCCC" d="M77.95,83.405L48.759,32.721l3.208-1.925l3.529-1.604l3.529-1.283l3.85-1.283l3.85-0.642l3.849-0.642
	l3.528-0.642h3.85V83.405z"/>
<path fill="#E5E5E5" d="M77.95,83.405L51.966,38.495l2.887-1.604l3.208-1.283l3.208-1.283l3.208-0.963l3.207-0.962l3.529-0.642
	l3.208-0.321h3.528V83.405z"/>
<path fill="#FFFFFF" d="M77.95,83.405L55.495,44.27l2.566-1.283l2.566-1.283l2.887-0.963l2.888-0.962l2.887-0.642l2.888-0.642
	l2.887-0.321h2.887V83.405z"/>
<path fill="#E5E5E5" d="M77.95,83.405L60.307,52.931l1.924-1.283l2.246-0.963l2.246-0.642l2.244-0.642l2.246-0.642l2.246-0.32
	l2.244-0.321h2.246V83.405z"/>
<path fill="#CCCCCC" d="M77.95,83.405l-14.114-24.7l1.604-0.962l1.604-0.642l1.924-0.642l1.604-0.642l1.925-0.321l1.925-0.32
	l1.604-0.321h1.925V83.405z"/>
<path fill="#B2B2B2" d="M77.95,83.405L67.043,64.479l1.283-0.642l1.283-0.642l1.283-0.321l1.283-0.642l1.604-0.32h1.283l1.604-0.32
	h1.283V83.405z"/>
<path fill="#999999" d="M77.95,83.405l-6.736-11.548l1.604-0.963l1.604-0.642l1.925-0.32h1.604V83.405z"/>
<path fill="#7F7F7F" d="M77.95,83.405l-2.566-4.491l0.642-0.32h0.642l0.642-0.321h0.642V83.405z"/>
<path fill="#7F7F7F" d="M3.208,33.684l34.644-19.889L77.95,83.405l-34.644,19.889L3.208,33.684z"/>
<path fill="#999999" d="M5.453,38.174l34.965-20.209l35.285,61.27L40.739,99.123L5.453,38.174z"/>
<path fill="#B2B2B2" d="M9.944,45.553l34.644-20.21l26.625,46.514L36.569,91.745L9.944,45.553z"/>
<path fill="#CCCCCC" d="M14.114,52.61l34.645-19.889l18.285,31.758L32.399,84.688L14.114,52.61z"/>
<path fill="#E5E5E5" d="M17.322,58.384l34.644-20.21l11.869,20.53L29.191,78.913L17.322,58.384z"/>
<path fill="#FFFFFF" d="M20.851,64.479L55.495,44.27l4.812,8.661L25.663,72.819L20.851,64.479z"/>
<path fill="none" stroke="#000000" stroke-width="2" d="M43.306,103.293L77.95,83.405"/>
<path fill="none" stroke="#000000" stroke-width="2" d="M37.852,13.795L3.208,33.684"/>
<path fill="none" stroke="#000000" stroke-width="2" d="M37.852,13.795l4.491-2.566l4.812-1.925l4.812-1.925l5.133-1.604
	l5.132-0.962l5.453-0.963l5.133-0.32l5.133-0.321"/>
</svg>
