<?xml version="1.0" encoding="utf-8"?>
<!-- Generator: Adobe Illustrator 14.0.0, SVG Export Plug-In . SVG Version: 6.00 Build 43363)  -->
<!DOCTYPE svg PUBLIC "-//W3C//DTD SVG 1.1//EN" "http://www.w3.org/Graphics/SVG/1.1/DTD/svg11.dtd">
<svg version="1.1" id="图层_1" xmlns="http://www.w3.org/2000/svg" xmlns:xlink="http://www.w3.org/1999/xlink" x="0px" y="0px"
	 width="120.895px" height="106.502px" viewBox="0 0 120.895 106.502" enable-background="new 0 0 120.895 106.502"
	 xml:space="preserve">
<path fill="#7F7F7F" d="M77.719,103.304h39.979V23.028H77.719V103.304z"/>
<path fill="#999999" d="M77.719,98.187h39.979V28.145H77.719V98.187z"/>
<path fill="#B2B2B2" d="M77.719,89.871h39.979V36.46H77.719V89.871z"/>
<path fill="#CCCCCC" d="M77.719,81.556h39.979v-36.78H77.719V81.556z"/>
<path fill="#E5E5E5" d="M77.719,75.159h39.979V51.492H77.719V75.159z"/>
<path fill="#FFFFFF" d="M77.719,68.123h39.979v-9.915H77.719V68.123z"/>
<path fill="none" stroke="#000000" stroke-width="2" d="M77.719,23.028h39.979"/>
<path fill="none" stroke="#000000" stroke-width="2" d="M117.697,103.304H77.719"/>
<path fill="#7F7F7F" d="M77.719,23.347L37.74,92.75l4.478,2.238l4.797,2.239l4.798,1.919l5.117,1.279l5.117,1.279l5.438,0.959
	l5.117,0.32l5.117,0.319V23.347z"/>
<path fill="#999999" d="M77.719,23.347l-37.42,64.926l4.158,2.238l4.478,1.919l4.798,1.919l4.797,1.279l4.797,0.96l4.797,0.959
	l4.798,0.32l4.798,0.319V23.347z"/>
<path fill="#B2B2B2" d="M77.719,23.347L44.456,80.916l3.838,1.919l3.838,1.919l4.158,1.6l4.158,1.279l4.158,0.959l4.478,0.64
	l4.157,0.64h4.479V23.347z"/>
<path fill="#CCCCCC" d="M77.719,23.347L48.614,73.88l3.199,1.919l3.518,1.279l3.518,1.599l3.838,0.96l3.838,0.96l3.838,0.319
	l3.519,0.64h3.838V23.347z"/>
<path fill="#E5E5E5" d="M77.719,23.347L51.813,68.123l2.878,1.599l3.198,1.279l3.199,1.279l3.197,0.96l3.199,0.64l3.518,0.64
	l3.198,0.319h3.519V23.347z"/>
<path fill="#FFFFFF" d="M77.719,23.347l-22.388,39.02l2.559,1.279l2.559,1.279l2.878,0.959l2.879,0.64l2.878,0.64l2.878,0.64
	l2.879,0.32h2.879V23.347z"/>
<path fill="#E5E5E5" d="M77.719,23.347L60.128,53.731l1.919,0.96l2.238,0.959l2.239,0.64l2.239,0.64l2.238,0.64l2.238,0.32
	l2.239,0.319h2.239V23.347z"/>
<path fill="#CCCCCC" d="M77.719,23.347L63.646,47.655l1.599,0.959l1.599,0.64l1.92,0.64l1.599,0.64l1.919,0.32l1.919,0.319
	l1.599,0.32h1.92V23.347z"/>
<path fill="#B2B2B2" d="M77.719,23.347L66.844,41.898l1.279,0.64l1.279,0.64l1.279,0.319l1.279,0.64l1.6,0.32h1.279l1.6,0.319h1.279
	V23.347z"/>
<path fill="#999999" d="M77.719,23.347l-6.717,11.515l1.6,0.64l1.599,0.64l1.919,0.319h1.6V23.347z"/>
<path fill="#7F7F7F" d="M77.719,23.347l-2.559,4.158l0.639,0.32l0.641,0.319h0.639h0.641V23.347z"/>
<path fill="#7F7F7F" d="M3.199,72.601L37.74,92.75l39.979-69.403L43.177,3.198L3.199,72.601z"/>
<path fill="#999999" d="M5.438,68.443l34.861,19.83L75.16,27.505L40.618,7.356L5.438,68.443z"/>
<path fill="#B2B2B2" d="M9.915,60.767l34.541,20.149l26.546-46.055L36.46,14.712L9.915,60.767z"/>
<path fill="#CCCCCC" d="M13.753,53.731L48.614,73.88l18.23-31.982l-34.541-19.83L13.753,53.731z"/>
<path fill="#E5E5E5" d="M17.271,48.294l34.542,19.829l11.834-20.469L28.785,27.825L17.271,48.294z"/>
<path fill="#FFFFFF" d="M20.469,42.217l34.861,19.829l4.797-8.315L25.586,33.582L20.469,42.217z"/>
<path fill="none" stroke="#000000" stroke-width="2" d="M43.177,3.198l34.542,20.148"/>
<path fill="none" stroke="#000000" stroke-width="2" d="M37.74,92.75L3.199,72.601"/>
<path fill="none" stroke="#000000" stroke-width="2" d="M37.74,92.75l4.478,2.238l4.797,2.239l4.798,1.919l5.117,1.279l5.117,1.279
	l5.438,0.959l5.117,0.32l5.117,0.319"/>
</svg>
