<?xml version="1.0" encoding="utf-8"?>
<!-- Generator: Adobe Illustrator 14.0.0, SVG Export Plug-In . SVG Version: 6.00 Build 43363)  -->
<!DOCTYPE svg PUBLIC "-//W3C//DTD SVG 1.1//EN" "http://www.w3.org/Graphics/SVG/1.1/DTD/svg11.dtd">
<svg version="1.1" id="图层_1" xmlns="http://www.w3.org/2000/svg" xmlns:xlink="http://www.w3.org/1999/xlink" x="0px" y="0px"
	 width="93.823px" height="106.502px" viewBox="0 0 93.823 106.502" enable-background="new 0 0 93.823 106.502"
	 xml:space="preserve">
<path fill="#7F7F7F" d="M91.006,38.036V2.818h-70.72v35.219H91.006z"/>
<path fill="#999999" d="M86.497,38.036V2.818H24.794v35.219H86.497z"/>
<path fill="#B2B2B2" d="M79.172,38.036V2.818H32.119v35.219H79.172z"/>
<path fill="#CCCCCC" d="M71.847,38.036V2.818H39.446v35.219H71.847z"/>
<path fill="#E5E5E5" d="M66.211,38.036V2.818h-20.85v35.219H66.211z"/>
<path fill="#FFFFFF" d="M60.013,38.036V2.818h-8.734v35.219H60.013z"/>
<path fill="none" stroke="#000000" stroke-width="2" d="M20.286,38.036V2.818"/>
<path fill="none" stroke="#000000" stroke-width="2" d="M91.006,2.818v35.219"/>
<path fill="#7F7F7F" d="M20.568,38.036l61.141,35.219l1.972-3.944l1.973-4.226l1.69-4.227l1.127-4.508l1.127-4.509l0.846-4.789
	l0.281-4.509l0.282-4.508H20.568z"/>
<path fill="#999999" d="M20.568,38.036l57.195,32.965l1.973-3.662l1.69-3.945l1.69-4.226l1.127-4.227l0.846-4.227l0.845-4.226
	l0.282-4.227l0.281-4.227H20.568z"/>
<path fill="#B2B2B2" d="M20.568,38.036l50.997,29.303l1.69-3.381l1.409-3.382l1.408-3.662l1.127-3.663l0.846-3.663l0.563-3.944
	l0.563-3.663v-3.944H20.568z"/>
<path fill="#CCCCCC" d="M20.568,38.036l44.517,25.64l1.69-2.817l1.409-3.1l1.127-3.099l0.846-3.382l0.845-3.381l0.563-3.381
	l0.282-3.1v-3.381H20.568z"/>
<path fill="#E5E5E5" d="M20.568,38.036l39.445,22.54l1.409-2.535l1.127-2.817l1.127-2.536l0.845-3.1l0.563-2.817l0.563-2.817
	l0.282-3.1v-2.817H20.568z"/>
<path fill="#FFFFFF" d="M20.568,38.036l34.374,19.723l1.127-2.254l1.127-2.254l0.846-2.536l0.845-2.535l0.563-2.536l0.563-2.535
	l0.282-2.536v-2.536H20.568z"/>
<path fill="#E5E5E5" d="M20.568,38.036l26.767,15.215l0.846-1.69l0.845-1.973l0.563-1.69l0.563-1.972l0.563-1.973l0.282-1.973
	l0.281-1.972v-1.973H20.568z"/>
<path fill="#CCCCCC" d="M20.568,38.036l21.695,12.397l0.563-1.409l0.845-1.408l0.563-1.69l0.282-1.409l0.281-1.69l0.282-1.69
	l0.281-1.409v-1.69H20.568z"/>
<path fill="#B2B2B2" d="M20.568,38.036l16.624,9.58l0.563-1.127l0.281-1.127l0.563-1.127l0.282-1.409l0.281-1.127v-1.127
	l0.282-1.409v-1.127H20.568z"/>
<path fill="#999999" d="M20.568,38.036l10.144,5.917l0.563-1.409l0.563-1.69l0.281-1.408v-1.409H20.568z"/>
<path fill="#7F7F7F" d="M20.568,38.036l3.663,2.254l0.281-0.563l0.282-0.563V38.6v-0.563H20.568z"/>
<path fill="#7F7F7F" d="M63.957,103.685l17.751-30.43L20.568,38.036l-17.75,30.43L63.957,103.685z"/>
<path fill="#999999" d="M60.295,101.431l17.468-30.43L24.231,40.009L6.481,70.72L60.295,101.431z"/>
<path fill="#B2B2B2" d="M53.815,97.768l17.469-30.429L30.711,43.672L12.96,74.382L53.815,97.768z"/>
<path fill="#CCCCCC" d="M47.334,94.105l17.75-30.429L36.909,47.334L19.441,78.045L47.334,94.105z"/>
<path fill="#E5E5E5" d="M42.544,91.287l17.469-30.429l-17.75-10.425L24.512,80.863L42.544,91.287z"/>
<path fill="#FFFFFF" d="M37.192,88.189l17.75-30.43l-7.607-4.226l-17.75,30.429L37.192,88.189z"/>
<path fill="none" stroke="#000000" stroke-width="2" d="M2.818,68.466l17.75-30.43"/>
<path fill="none" stroke="#000000" stroke-width="2" d="M81.708,73.255l-17.751,30.43"/>
<path fill="none" stroke="#000000" stroke-width="2" d="M81.708,73.255l1.972-3.944l1.973-4.226l1.69-4.227l1.127-4.508l1.127-4.509
	l0.846-4.789l0.281-4.509l0.282-4.508"/>
</svg>
