<?xml version="1.0" encoding="utf-8"?>
<!-- Generator: Adobe Illustrator 14.0.0, SVG Export Plug-In . SVG Version: 6.00 Build 43363)  -->
<!DOCTYPE svg PUBLIC "-//W3C//DTD SVG 1.1//EN" "http://www.w3.org/Graphics/SVG/1.1/DTD/svg11.dtd">
<svg version="1.1" id="图层_1" xmlns="http://www.w3.org/2000/svg" xmlns:xlink="http://www.w3.org/1999/xlink" x="0px" y="0px"
	 width="93.823px" height="106.502px" viewBox="0 0 93.823 106.502" enable-background="new 0 0 93.823 106.502"
	 xml:space="preserve">
<path fill="#7F7F7F" d="M2.818,38.036V2.818h70.72v35.219H2.818z"/>
<path fill="#999999" d="M7.325,38.036V2.818h61.985v35.219H7.325z"/>
<path fill="#B2B2B2" d="M14.933,38.036V2.818h46.771v35.219H14.933z"/>
<path fill="#CCCCCC" d="M21.977,38.036V2.818h32.401v35.219H21.977z"/>
<path fill="#E5E5E5" d="M27.894,38.036V2.818h20.567v35.219H27.894z"/>
<path fill="#FFFFFF" d="M33.81,38.036V2.818h8.734v35.219H33.81z"/>
<path fill="none" stroke="#000000" stroke-width="2" d="M73.537,38.036V2.818"/>
<path fill="none" stroke="#000000" stroke-width="2" d="M2.818,2.818v35.219"/>
<path fill="#7F7F7F" d="M73.255,38.036L12.397,73.255l-2.254-3.944l-1.972-4.226l-1.409-4.227l-1.408-4.508l-1.128-4.509
	l-0.845-4.789l-0.282-4.509l-0.281-4.508H73.255z"/>
<path fill="#999999" d="M73.255,38.036L16.06,71.001l-1.973-3.662l-1.69-3.945l-1.69-4.226l-1.127-4.227l-0.845-4.227L7.889,46.49
	l-0.281-4.227l-0.282-4.227H73.255z"/>
<path fill="#B2B2B2" d="M73.255,38.036L22.54,67.339l-1.69-3.381l-1.69-3.382l-1.409-3.662l-1.127-3.663l-0.846-3.663l-0.563-3.944
	l-0.563-3.663v-3.944H73.255z"/>
<path fill="#CCCCCC" d="M73.255,38.036l-44.517,25.64l-1.408-2.817l-1.409-3.1l-1.127-3.099l-1.127-3.382l-0.563-3.381l-0.563-3.381
	l-0.563-3.1v-3.381H73.255z"/>
<path fill="#E5E5E5" d="M73.255,38.036L33.81,60.576l-1.408-2.535l-1.127-2.817l-1.127-2.536l-0.846-3.1l-0.563-2.817l-0.563-2.817
	l-0.281-3.1v-2.817H73.255z"/>
<path fill="#FFFFFF" d="M73.255,38.036L38.882,57.759l-1.127-2.254l-1.128-2.254l-0.845-2.536l-0.563-2.535l-0.563-2.536
	l-0.563-2.535l-0.282-2.536v-2.536H73.255z"/>
<path fill="#E5E5E5" d="M73.255,38.036L46.771,53.251l-1.127-1.69l-0.846-1.973l-0.563-1.69l-0.563-1.972l-0.563-1.973l-0.281-1.973
	l-0.282-1.972v-1.973H73.255z"/>
<path fill="#CCCCCC" d="M73.255,38.036L51.842,50.434l-0.845-1.409l-0.563-1.408l-0.563-1.69l-0.563-1.409l-0.282-1.69l-0.281-1.69
	l-0.282-1.409v-1.69H73.255z"/>
<path fill="#B2B2B2" d="M73.255,38.036l-16.342,9.58L56.35,46.49l-0.563-1.127l-0.281-1.127l-0.563-1.409l-0.282-1.127v-1.127
	l-0.281-1.409v-1.127H73.255z"/>
<path fill="#999999" d="M73.255,38.036l-10.143,5.917l-0.563-1.409l-0.563-1.69l-0.282-1.408v-1.409H73.255z"/>
<path fill="#7F7F7F" d="M73.255,38.036l-3.662,2.254l-0.282-0.563l-0.281-0.563V38.6v-0.563H73.255z"/>
<path fill="#7F7F7F" d="M29.865,103.685l-17.469-30.43l60.858-35.219l17.751,30.43L29.865,103.685z"/>
<path fill="#999999" d="M33.529,101.431L16.06,71.001l53.533-30.992l17.75,30.711L33.529,101.431z"/>
<path fill="#B2B2B2" d="M40.29,97.768L22.54,67.339l40.854-23.667l17.469,30.71L40.29,97.768z"/>
<path fill="#CCCCCC" d="M46.489,94.105l-17.75-30.429l28.175-16.342l17.469,30.711L46.489,94.105z"/>
<path fill="#E5E5E5" d="M51.279,91.287L33.81,60.859l18.032-10.425l17.469,30.429L51.279,91.287z"/>
<path fill="#FFFFFF" d="M56.632,88.189l-17.469-30.43l7.325-4.226L64.24,83.962L56.632,88.189z"/>
<path fill="none" stroke="#000000" stroke-width="2" d="M91.006,68.466l-17.751-30.43"/>
<path fill="none" stroke="#000000" stroke-width="2" d="M12.397,73.255l17.469,30.43"/>
<path fill="none" stroke="#000000" stroke-width="2" d="M12.397,73.255l-2.254-3.944l-1.972-4.226l-1.409-4.227l-1.408-4.508
	l-1.128-4.509l-0.845-4.789l-0.282-4.509l-0.281-4.508"/>
</svg>
