<?xml version="1.0" encoding="utf-8"?>
<!-- Generator: Adobe Illustrator 14.0.0, SVG Export Plug-In . SVG Version: 6.00 Build 43363)  -->
<!DOCTYPE svg PUBLIC "-//W3C//DTD SVG 1.1//EN" "http://www.w3.org/Graphics/SVG/1.1/DTD/svg11.dtd">
<svg version="1.1" id="图层_1" xmlns="http://www.w3.org/2000/svg" xmlns:xlink="http://www.w3.org/1999/xlink" x="0px" y="0px"
	 width="93.542px" height="106.502px" viewBox="0 0 93.542 106.502" enable-background="new 0 0 93.542 106.502"
	 xml:space="preserve">
<path fill="#7F7F7F" d="M90.724,68.466v35.219H20.287V68.466H90.724z"/>
<path fill="#999999" d="M86.498,68.466v35.219H24.513V68.466H86.498z"/>
<path fill="#B2B2B2" d="M78.891,68.466v35.219H32.12V68.466H78.891z"/>
<path fill="#CCCCCC" d="M71.847,68.466v35.219H39.446V68.466H71.847z"/>
<path fill="#E5E5E5" d="M65.93,68.466v35.219H45.362V68.466H65.93z"/>
<path fill="#FFFFFF" d="M60.013,68.466v35.219h-8.734V68.466H60.013z"/>
<path fill="none" stroke="#000000" stroke-width="2" d="M20.287,68.466v35.219"/>
<path fill="none" stroke="#000000" stroke-width="2" d="M90.724,103.685V68.466"/>
<path fill="#7F7F7F" d="M20.287,68.466l61.141-34.938l2.254,3.944l1.689,4.227l1.691,4.227l1.408,4.508l0.846,4.508l0.846,4.508
	l0.281,4.509l0.281,4.508H20.287z"/>
<path fill="#999999" d="M20.287,68.466l57.478-32.965l1.972,3.662l1.691,3.944l1.689,4.227l1.127,4.227l0.846,4.227l0.846,4.226
	l0.281,4.227l0.281,4.227H20.287z"/>
<path fill="#B2B2B2" d="M20.287,68.466l50.997-29.303l1.69,3.381l1.69,3.382l1.409,3.662l1.127,3.663l0.846,3.944l0.563,3.663
	l0.564,3.944v3.663H20.287z"/>
<path fill="#CCCCCC" d="M20.287,68.466l44.517-25.64l1.69,2.817l1.409,3.1l1.127,3.099l1.127,3.382l0.563,3.381l0.563,3.099
	l0.563,3.382v3.381H20.287z"/>
<path fill="#E5E5E5" d="M20.287,68.466l39.445-22.54l1.408,2.535l1.127,2.817l1.127,2.818l0.846,2.817l0.846,2.817l0.563,2.817
	l0.282,3.1v2.817H20.287z"/>
<path fill="#FFFFFF" d="M20.287,68.466L54.66,48.743l1.127,2.254l1.127,2.254l0.846,2.536l0.846,2.535l0.563,2.536l0.563,2.536
	l0.281,2.535v2.536H20.287z"/>
<path fill="#E5E5E5" d="M20.287,68.466l26.766-15.215l1.127,1.69l0.845,1.973l0.564,1.69l0.563,1.972l0.564,1.973l0.281,1.973
	l0.281,1.972v1.973H20.287z"/>
<path fill="#CCCCCC" d="M20.287,68.466l21.695-12.397l0.845,1.409l0.563,1.408l0.563,1.69l0.563,1.409l0.282,1.69l0.282,1.69
	l0.282,1.409v1.69H20.287z"/>
<path fill="#B2B2B2" d="M20.287,68.466l16.623-9.298l0.563,1.127l0.564,1.127l0.282,1.127l0.563,1.127l0.282,1.127v1.409
	l0.282,1.127v1.127H20.287z"/>
<path fill="#999999" d="M20.287,68.466l10.425-5.635l0.563,1.408l0.563,1.409l0.282,1.408v1.409H20.287z"/>
<path fill="#7F7F7F" d="M20.287,68.466l3.944-1.973l0.282,0.563v0.282l0.282,0.563v0.563H20.287z"/>
<path fill="#7F7F7F" d="M63.958,2.818l17.469,30.429L20.287,68.747L2.818,38.036L63.958,2.818z"/>
<path fill="#999999" d="M60.013,5.072l17.751,30.43L24.231,66.493L6.48,36.065L60.013,5.072z"/>
<path fill="#B2B2B2" d="M53.533,8.735l17.751,30.429L30.43,62.831l-17.469-30.43L53.533,8.735z"/>
<path fill="#CCCCCC" d="M47.334,12.397l17.469,30.43L36.91,59.168l-17.75-30.43L47.334,12.397z"/>
<path fill="#E5E5E5" d="M42.263,15.215l17.75,30.429L41.981,56.069L24.513,25.64L42.263,15.215z"/>
<path fill="#FFFFFF" d="M37.191,18.314l17.468,30.43l-7.325,4.508L29.584,22.54L37.191,18.314z"/>
<path fill="none" stroke="#000000" stroke-width="2" d="M2.818,38.036l17.469,30.711"/>
<path fill="none" stroke="#000000" stroke-width="2" d="M81.427,33.246L63.958,2.818"/>
<path fill="none" stroke="#000000" stroke-width="2" d="M81.427,33.529l2.254,3.944l1.689,4.227l1.691,4.227l1.408,4.508
	l0.846,4.508l0.846,4.508l0.281,4.509l0.281,4.508"/>
</svg>
