<?xml version="1.0" encoding="utf-8"?>
<!-- Generator: Adobe Illustrator 14.0.0, SVG Export Plug-In . SVG Version: 6.00 Build 43363)  -->
<!DOCTYPE svg PUBLIC "-//W3C//DTD SVG 1.1//EN" "http://www.w3.org/Graphics/SVG/1.1/DTD/svg11.dtd">
<svg version="1.1" id="图层_1" xmlns="http://www.w3.org/2000/svg" xmlns:xlink="http://www.w3.org/1999/xlink" x="0px" y="0px"
	 width="121.579px" height="106.502px" viewBox="0 0 121.579 106.502" enable-background="new 0 0 121.579 106.502"
	 xml:space="preserve">
<path fill="#7F7F7F" d="M43.307,3.208H3.208v80.197h40.099V3.208z"/>
<path fill="#999999" d="M43.307,8.02H3.208v70.574h40.099V8.02z"/>
<path fill="#B2B2B2" d="M43.307,16.681H3.208v53.572h40.099V16.681z"/>
<path fill="#CCCCCC" d="M43.307,25.022H3.208v36.891h40.099V25.022z"/>
<path fill="#E5E5E5" d="M43.307,31.438H3.208v23.417h40.099V31.438z"/>
<path fill="#FFFFFF" d="M43.307,38.495H3.208v9.623h40.099V38.495z"/>
<path fill="none" stroke="#000000" stroke-width="2" d="M43.307,83.406H3.208"/>
<path fill="none" stroke="#000000" stroke-width="2" d="M3.208,3.208h40.099"/>
<path fill="#7F7F7F" d="M43.307,83.406l40.099-69.611l-4.491-2.566l-4.812-1.925L69.29,7.378l-5.133-1.604l-5.132-0.963L53.572,3.85
	l-5.133-0.321l-5.132-0.32V83.406z"/>
<path fill="#999999" d="M43.307,83.406l37.532-65.441l-4.171-2.245l-4.49-1.925l-4.491-1.925l-4.813-1.283l-4.812-0.962L52.93,8.661
	l-4.812-0.32L43.307,8.02V83.406z"/>
<path fill="#B2B2B2" d="M43.307,83.406l33.361-58.063l-3.849-1.925l-3.85-1.925l-4.171-1.604l-4.17-1.283l-4.17-0.962l-4.491-0.642
	l-4.17-0.642h-4.491V83.406z"/>
<path fill="#CCCCCC" d="M43.307,83.406l29.191-50.685l-3.208-1.925l-3.528-1.604l-3.529-1.283l-3.849-1.282l-3.529-0.642
	l-3.85-0.642l-3.849-0.642h-3.85V83.406z"/>
<path fill="#E5E5E5" d="M43.307,83.406l25.983-44.91l-2.887-1.604l-3.208-1.283l-3.208-1.283l-3.208-0.962L53.572,32.4l-3.528-0.642
	l-3.208-0.32h-3.528V83.406z"/>
<path fill="#FFFFFF" d="M43.307,83.406l22.775-39.137l-2.566-1.283l-2.887-1.283l-2.566-0.962l-2.887-0.962l-3.208-0.642
	l-2.888-0.642l-2.887-0.321h-2.887V83.406z"/>
<path fill="#E5E5E5" d="M43.307,83.406L60.95,52.931l-1.925-1.283l-2.246-0.963l-1.925-0.642l-2.245-0.642l-2.246-0.642l-2.565-0.32
	l-2.246-0.321h-2.245V83.406z"/>
<path fill="#CCCCCC" d="M43.307,83.406l14.114-24.701l-1.604-0.962l-1.604-0.642l-1.925-0.642l-1.604-0.642l-1.925-0.321
	l-1.925-0.32l-1.604-0.321h-1.925V83.406z"/>
<path fill="#B2B2B2" d="M43.307,83.406l10.906-18.927l-1.283-0.642l-1.283-0.642l-1.283-0.32l-1.283-0.642l-1.604-0.321h-1.283
	l-1.604-0.32h-1.283V83.406z"/>
<path fill="#999999" d="M43.307,83.406l6.736-11.549l-1.604-0.962l-1.604-0.642l-1.925-0.321h-1.604V83.406z"/>
<path fill="#7F7F7F" d="M43.307,83.406l2.566-4.491l-0.642-0.32H44.59l-0.642-0.321h-0.642V83.406z"/>
<path fill="#7F7F7F" d="M118.371,33.683L83.406,13.794L43.307,83.406l34.645,19.889L118.371,33.683z"/>
<path fill="#999999" d="M115.805,38.174l-34.646-20.21L45.873,79.236l34.645,19.889L115.805,38.174z"/>
<path fill="#B2B2B2" d="M111.635,45.552L76.668,25.343L50.043,71.857l34.646,19.89L111.635,45.552z"/>
<path fill="#CCCCCC" d="M107.464,52.61L72.498,32.721L54.213,64.479l34.646,20.21L107.464,52.61z"/>
<path fill="#E5E5E5" d="M104.256,58.384L69.29,38.174l-11.869,20.53l34.966,20.21L104.256,58.384z"/>
<path fill="#FFFFFF" d="M100.728,64.479l-34.966-20.21l-4.812,8.662L95.595,72.82L100.728,64.479z"/>
<path fill="none" stroke="#000000" stroke-width="2" d="M77.951,103.294L43.307,83.406"/>
<path fill="none" stroke="#000000" stroke-width="2" d="M83.406,13.794l34.966,19.889"/>
<path fill="none" stroke="#000000" stroke-width="2" d="M83.406,13.794l-4.491-2.566l-4.812-1.925L69.29,7.378l-5.133-1.604
	l-5.132-0.963L53.572,3.85l-5.133-0.321l-5.132-0.32"/>
</svg>
