<?xml version="1.0" encoding="utf-8"?>
<!-- Generator: Adobe Illustrator 14.0.0, SVG Export Plug-In . SVG Version: 6.00 Build 43363)  -->
<!DOCTYPE svg PUBLIC "-//W3C//DTD SVG 1.1//EN" "http://www.w3.org/Graphics/SVG/1.1/DTD/svg11.dtd">
<svg version="1.1" id="图层_1" xmlns="http://www.w3.org/2000/svg" xmlns:xlink="http://www.w3.org/1999/xlink" x="0px" y="0px"
	 width="93.571px" height="106.502px" viewBox="0 0 93.571 106.502" enable-background="new 0 0 93.571 106.502"
	 xml:space="preserve">
<path fill="#7F7F7F" d="M2.81,68.566v35.124h70.529V68.566H2.81z"/>
<path fill="#999999" d="M7.306,68.566v35.124h61.538V68.566H7.306z"/>
<path fill="#B2B2B2" d="M14.612,68.566v35.124h46.926V68.566H14.612z"/>
<path fill="#CCCCCC" d="M21.917,68.566v35.124h32.314V68.566H21.917z"/>
<path fill="#E5E5E5" d="M27.537,68.566v35.124h20.794V68.566H27.537z"/>
<path fill="#FFFFFF" d="M33.719,68.566v35.124h8.711V68.566H33.719z"/>
<path fill="none" stroke="#000000" stroke-width="2" d="M73.339,68.566v35.124"/>
<path fill="none" stroke="#000000" stroke-width="2" d="M2.81,103.69V68.566"/>
<path fill="#7F7F7F" d="M73.059,68.566L12.083,33.441l-1.968,3.935L8.149,41.59l-1.686,4.215l-1.124,4.496l-1.124,4.496
	l-0.843,4.776L3.091,64.07L2.81,68.566H73.059z"/>
<path fill="#999999" d="M73.059,68.566L16.017,35.689l-1.967,3.653l-1.687,3.934l-1.686,3.935l-1.124,4.215L8.711,55.64
	l-0.844,4.215l-0.28,4.496l-0.281,4.215H73.059z"/>
<path fill="#B2B2B2" d="M73.059,68.566L22.48,39.342l-1.687,3.372l-1.686,3.372l-1.405,3.652l-1.124,3.653l-0.843,3.653
	l-0.562,3.934l-0.563,3.652v3.935H73.059z"/>
<path fill="#CCCCCC" d="M73.059,68.566l-44.397-25.57l-1.686,2.81l-1.124,3.091l-1.405,3.091l-0.843,3.372l-0.843,3.091
	l-0.281,3.372l-0.563,3.372v3.372H73.059z"/>
<path fill="#E5E5E5" d="M73.059,68.566l-39.34-22.761l-1.404,2.529l-1.124,2.81l-1.124,2.81l-0.843,2.811l-0.563,2.81L28.1,62.664
	l-0.281,2.811v3.091H73.059z"/>
<path fill="#FFFFFF" d="M73.059,68.566L38.778,48.615l-1.124,2.248l-1.124,2.529l-0.843,2.248l-0.563,2.528l-0.562,2.811L34,63.507
	l-0.281,2.529v2.529H73.059z"/>
<path fill="#E5E5E5" d="M73.059,68.566L46.365,53.111l-0.844,1.687l-0.843,1.967l-0.562,1.686l-0.563,1.967l-0.562,1.968
	l-0.281,2.247l-0.281,1.968v1.967H73.059z"/>
<path fill="#CCCCCC" d="M73.059,68.566L51.703,55.921l-0.844,1.404l-0.562,1.687l-0.563,1.404l-0.562,1.687l-0.281,1.686
	l-0.28,1.687l-0.281,1.404v1.687H73.059z"/>
<path fill="#B2B2B2" d="M73.059,68.566l-16.298-9.554l-0.563,1.124l-0.562,1.124l-0.281,1.124l-0.562,1.123l-0.281,1.405v1.124
	l-0.281,1.405v1.124H73.059z"/>
<path fill="#999999" d="M73.059,68.566l-10.116-5.901l-0.562,1.405l-0.563,1.405l-0.281,1.686v1.405H73.059z"/>
<path fill="#7F7F7F" d="M73.059,68.566l-3.653-2.248l-0.281,0.562l-0.28,0.563v0.562v0.563H73.059z"/>
<path fill="#7F7F7F" d="M29.785,2.813L12.083,33.441l60.976,35.125l17.702-30.629L29.785,2.813z"/>
<path fill="#999999" d="M33.439,5.061L16.017,35.408l53.389,30.909L87.109,35.97L33.439,5.061z"/>
<path fill="#B2B2B2" d="M40.182,8.713L22.48,39.342l40.463,23.322l17.703-30.347L40.182,8.713z"/>
<path fill="#CCCCCC" d="M46.365,12.366L28.661,42.714l28.1,16.298l17.422-30.348L46.365,12.366z"/>
<path fill="#E5E5E5" d="M51.141,15.176L33.719,45.805l17.984,10.116l17.421-30.348L51.141,15.176z"/>
<path fill="#FFFFFF" d="M56.48,18.268L39.058,48.615l7.307,4.496l17.702-30.348L56.48,18.268z"/>
<path fill="none" stroke="#000000" stroke-width="2" d="M90.761,37.937L73.059,68.566"/>
<path fill="none" stroke="#000000" stroke-width="2" d="M12.083,33.441L29.785,2.813"/>
<path fill="none" stroke="#000000" stroke-width="2" d="M12.083,33.441l-1.968,3.935L8.149,41.59l-1.686,4.215l-1.124,4.496
	l-1.124,4.496l-0.843,4.776L3.091,64.07L2.81,68.566"/>
</svg>
