<?xml version="1.0" encoding="utf-8"?>
<!-- Generator: Adobe Illustrator 14.0.0, SVG Export Plug-In . SVG Version: 6.00 Build 43363)  -->
<!DOCTYPE svg PUBLIC "-//W3C//DTD SVG 1.1//EN" "http://www.w3.org/Graphics/SVG/1.1/DTD/svg11.dtd">
<svg version="1.1" id="图层_1" xmlns="http://www.w3.org/2000/svg" xmlns:xlink="http://www.w3.org/1999/xlink" x="0px" y="0px"
	 width="126.209px" height="106.502px" viewBox="0 0 126.209 106.502" enable-background="new 0 0 126.209 106.502"
	 xml:space="preserve">
<path fill="#7F7F7F" d="M3.538,56.978L95.888,3.538l26.656,46.238l-92.351,53.188L3.538,56.978z"/>
<path fill="#999999" d="M5.053,59.757L97.404,6.445l23.625,40.427l-92.351,53.439L5.053,59.757z"/>
<path fill="#B2B2B2" d="M7.959,64.685l92.352-53.44l17.813,30.826L25.772,95.384L7.959,64.685z"/>
<path fill="#CCCCCC" d="M10.612,69.359l92.604-53.439l12.255,21.477L22.867,90.583L10.612,69.359z"/>
<path fill="#E5E5E5" d="M12.886,73.149l92.351-53.439l7.959,13.645L20.593,86.793L12.886,73.149z"/>
<path fill="#FFFFFF" d="M15.034,77.192l92.604-53.439l3.158,5.812L18.445,82.75L15.034,77.192z"/>
<path fill="none" stroke="#000000" stroke-width="2" d="M30.194,102.964l92.351-53.188"/>
<path fill="none" stroke="#000000" stroke-width="2" d="M95.888,3.538L3.538,56.978"/>
</svg>
