<?xml version="1.0" encoding="utf-8"?>
<!-- Generator: Adobe Illustrator 14.0.0, SVG Export Plug-In . SVG Version: 6.00 Build 43363)  -->
<!DOCTYPE svg PUBLIC "-//W3C//DTD SVG 1.1//EN" "http://www.w3.org/Graphics/SVG/1.1/DTD/svg11.dtd">
<svg version="1.1" id="图层_1" xmlns="http://www.w3.org/2000/svg" xmlns:xlink="http://www.w3.org/1999/xlink" x="0px" y="0px"
	 width="144.749px" height="100.994px" viewBox="0 0 144.749 100.994" enable-background="new 0 0 144.749 100.994"
	 xml:space="preserve">
<path fill="#7F7F7F" d="M4.057,76.071L128.521,4.059l12.026,20.72L16.083,96.936L4.057,76.071z"/>
<path fill="#999999" d="M4.781,77.521L129.39,5.363l10.577,18.257L15.214,95.487L4.781,77.521z"/>
<path fill="#B2B2B2" d="M6.231,79.693L130.695,7.536l7.969,13.91L14.199,93.313L6.231,79.693z"/>
<path fill="#CCCCCC" d="M7.244,81.577L131.854,9.709l5.506,9.563L12.75,91.14L7.244,81.577z"/>
<path fill="#E5E5E5" d="M8.404,83.46l124.464-72.012l3.622,6.23L11.881,89.546L8.404,83.46z"/>
<path fill="#FFFFFF" d="M9.418,85.199l124.608-71.867l1.304,2.463L10.867,87.663L9.418,85.199z"/>
<path fill="none" stroke="#000000" stroke-width="2" d="M16.083,96.936l124.464-72.157"/>
<path fill="none" stroke="#000000" stroke-width="2" d="M128.521,4.059L4.057,76.071"/>
</svg>
