<?xml version="1.0" encoding="utf-8"?>
<!-- Generator: Adobe Illustrator 14.0.0, SVG Export Plug-In . SVG Version: 6.00 Build 43363)  -->
<!DOCTYPE svg PUBLIC "-//W3C//DTD SVG 1.1//EN" "http://www.w3.org/Graphics/SVG/1.1/DTD/svg11.dtd">
<svg version="1.1" id="图层_1" xmlns="http://www.w3.org/2000/svg" xmlns:xlink="http://www.w3.org/1999/xlink" x="0px" y="0px"
	 width="121.543px" height="106.502px" viewBox="0 0 121.543 106.502" enable-background="new 0 0 121.543 106.502"
	 xml:space="preserve">
<path fill="#7F7F7F" d="M3.245,76.999h36.876V3.247H3.245V76.999z"/>
<path fill="#999999" d="M3.245,72.28h36.876V7.672H3.245V72.28z"/>
<path fill="#B2B2B2" d="M3.245,64.314h36.876V15.343H3.245V64.314z"/>
<path fill="#CCCCCC" d="M3.245,56.939h36.876V23.013H3.245V56.939z"/>
<path fill="#E5E5E5" d="M3.245,51.038h36.876v-21.83H3.245V51.038z"/>
<path fill="#FFFFFF" d="M3.245,44.548h36.876v-9.145H3.245V44.548z"/>
<path fill="none" stroke="#000000" stroke-width="2" d="M3.245,3.247h36.876"/>
<path fill="none" stroke="#000000" stroke-width="2" d="M40.121,76.999H3.245"/>
<path fill="#7F7F7F" d="M40.121,76.999l52.217-52.216l-2.655-2.36l-2.655-2.36l-2.95-2.36l-2.95-2.064l-2.949-1.771l-3.245-1.77
	l-3.245-1.771l-3.245-1.475l-3.54-1.181l-3.54-1.18l-3.245-0.885l-3.54-0.885l-3.541-0.591l-3.835-0.59l-3.54-0.295h-3.54V76.999z"
	/>
<path fill="#999999" d="M40.121,76.999l48.972-48.971l-2.36-2.36l-2.655-2.065l-2.654-2.064l-2.655-2.065l-2.95-1.771l-2.95-1.77
	l-3.245-1.476l-2.95-1.475l-3.245-1.18l-3.245-1.181l-3.245-0.885l-3.245-0.59l-3.54-0.59l-3.245-0.59l-3.54-0.296h-3.245V76.999z"
	/>
<path fill="#B2B2B2" d="M40.121,76.999l43.366-43.366l-4.425-4.13l-4.721-3.54l-5.31-3.245l-5.311-2.655l-5.604-2.064l-5.9-1.476
	l-5.9-0.885l-6.195-0.295V76.999z"/>
<path fill="#CCCCCC" d="M40.121,76.999l38.057-38.056l-3.836-3.54l-4.425-3.245l-4.425-2.655l-4.721-2.065l-5.015-1.77l-5.016-1.476
	l-5.31-0.59l-5.311-0.295V76.999z"/>
<path fill="#E5E5E5" d="M40.121,76.999l33.631-33.631l-3.54-3.245l-3.54-2.655l-4.13-2.359l-4.13-2.065l-4.426-1.771l-4.72-1.18
	l-4.425-0.59l-4.721-0.295V76.999z"/>
<path fill="#FFFFFF" d="M40.121,76.999l29.501-29.501l-2.95-2.654l-3.245-2.36l-3.54-2.065l-3.835-1.77l-3.835-1.476l-3.835-0.885
	l-4.131-0.59l-4.13-0.295V76.999z"/>
<path fill="#E5E5E5" d="M40.121,76.999l22.716-22.716l-2.36-2.064l-2.359-1.771l-2.95-1.77l-2.655-1.476l-2.95-0.885l-3.245-0.885
	l-2.95-0.295l-3.245-0.295V76.999z"/>
<path fill="#CCCCCC" d="M40.121,76.999l18.586-18.585l-2.065-1.771l-2.064-1.475l-2.065-1.181l-2.36-1.18l-2.36-0.885l-2.654-0.591
	l-2.36-0.59h-2.655V76.999z"/>
<path fill="#B2B2B2" d="M40.121,76.999l14.16-14.16l-1.475-1.18l-1.475-1.181l-1.771-1.18l-1.771-0.885l-1.77-0.591l-2.065-0.59
	l-1.77-0.295h-2.065V76.999z"/>
<path fill="#999999" d="M40.121,76.999l8.556-8.555l-1.771-1.476l-2.064-1.475l-2.36-0.59l-2.36-0.296V76.999z"/>
<path fill="#7F7F7F" d="M40.121,76.999l3.245-3.245l-0.59-0.59l-0.885-0.59l-0.886-0.295h-0.885V76.999z"/>
<path fill="none" stroke="#000000" stroke-width="2" d="M92.338,24.783l-2.655-2.36l-2.655-2.36l-2.95-2.36l-2.95-2.064
	l-2.949-1.771l-3.245-1.77l-3.245-1.771l-3.245-1.475l-3.54-1.181l-3.54-1.18l-3.245-0.885l-3.54-0.885l-3.541-0.591l-3.835-0.59
	l-3.54-0.295h-3.54"/>
<path fill="#7F7F7F" d="M40.121,76.999l25.961,26.256l52.217-52.217L92.338,24.783L40.121,76.999z"/>
<path fill="#999999" d="M43.366,73.754l25.961,26.256l45.727-45.727L89.093,28.029L43.366,73.754z"/>
<path fill="#B2B2B2" d="M48.971,68.149l25.961,26.256l34.811-34.811L83.487,33.633L48.971,68.149z"/>
<path fill="#CCCCCC" d="M54.281,62.839l25.961,26.256l23.896-23.896l-25.96-26.256L54.281,62.839z"/>
<path fill="#E5E5E5" d="M58.412,58.709l26.255,25.96l15.341-15.34L73.752,43.368L58.412,58.709z"/>
<path fill="#FFFFFF" d="M63.132,54.283l25.961,25.961l6.49-6.49L69.327,47.793L63.132,54.283z"/>
<path fill="none" stroke="#000000" stroke-width="2" d="M92.338,24.783l25.961,26.255"/>
<path fill="none" stroke="#000000" stroke-width="2" d="M66.082,103.255L40.121,76.999"/>
</svg>
