<?xml version="1.0" encoding="utf-8"?>
<!-- Generator: Adobe Illustrator 14.0.0, SVG Export Plug-In . SVG Version: 6.00 Build 43363)  -->
<!DOCTYPE svg PUBLIC "-//W3C//DTD SVG 1.1//EN" "http://www.w3.org/Graphics/SVG/1.1/DTD/svg11.dtd">
<svg version="1.1" id="图层_1" xmlns="http://www.w3.org/2000/svg" xmlns:xlink="http://www.w3.org/1999/xlink" x="0px" y="0px"
	 width="93.189px" height="106.502px" viewBox="0 0 93.189 106.502" enable-background="new 0 0 93.189 106.502"
	 xml:space="preserve">
<path fill="#7F7F7F" d="M67.363,103.573V71.357H2.928v32.217H67.363z"/>
<path fill="#999999" d="M63.369,103.573V71.357H6.923v32.217H63.369z"/>
<path fill="#B2B2B2" d="M56.446,103.573V71.357H13.579v32.217H56.446z"/>
<path fill="#CCCCCC" d="M50.056,103.573V71.357H20.235v32.217H50.056z"/>
<path fill="#E5E5E5" d="M44.731,103.573V71.357H25.827v32.217H44.731z"/>
<path fill="#FFFFFF" d="M39.139,103.573V71.357h-7.987v32.217H39.139z"/>
<path fill="none" stroke="#000000" stroke-width="2" d="M2.928,103.573V71.357"/>
<path fill="none" stroke="#000000" stroke-width="2" d="M67.363,71.357v32.217"/>
<path fill="#7F7F7F" d="M67.629,71.357l-45.796-45.53l-2.13,2.131l-2.13,2.396l-1.864,2.663l-1.863,2.396l-1.598,2.662l-1.598,2.929
	l-1.331,2.663l-1.331,2.929l-1.065,2.929l-1.065,3.195l-0.798,2.929L4.26,58.843l-0.533,3.194l-0.532,2.929l-0.267,3.195v3.195
	H67.629z"/>
<path fill="#999999" d="M67.629,71.357L24.761,28.49l-2.13,2.13l-1.863,2.396l-1.864,2.13l-1.598,2.663l-1.598,2.396l-1.598,2.663
	L12.78,45.53l-1.064,2.663l-1.065,2.929l-1.064,2.662l-0.799,2.929l-0.533,2.93l-0.532,2.929l-0.532,2.929l-0.267,2.929v2.929
	H67.629z"/>
<path fill="#B2B2B2" d="M67.629,71.357L29.554,33.282l-3.461,3.993l-3.195,4.261l-2.663,4.526l-2.396,4.792l-1.864,4.793
	l-1.331,5.325l-0.799,5.059l-0.267,5.325H67.629z"/>
<path fill="#CCCCCC" d="M67.629,71.357L34.081,38.074l-2.929,3.462l-2.663,3.728l-2.396,3.993l-1.864,4.261l-1.598,4.26
	l-1.331,4.526l-0.532,4.526l-0.267,4.526H67.629z"/>
<path fill="#E5E5E5" d="M67.629,71.357L38.075,41.802l-2.663,2.929l-2.396,3.462l-2.13,3.461l-1.863,3.728l-1.332,3.994
	l-1.064,3.728l-0.532,4.26l-0.267,3.994H67.629z"/>
<path fill="#FFFFFF" d="M67.629,71.357L41.802,45.796l-2.396,2.662l-2.13,2.663l-1.864,3.195l-1.331,3.194l-1.331,3.195
	l-0.799,3.462l-0.533,3.728l-0.266,3.461H67.629z"/>
<path fill="#E5E5E5" d="M67.629,71.357L47.66,51.387l-1.864,2.131l-1.597,2.13l-1.598,2.396l-1.065,2.396l-0.799,2.663l-0.799,2.662
	l-0.266,2.929l-0.267,2.663H67.629z"/>
<path fill="#CCCCCC" d="M67.629,71.357L51.387,55.381l-1.598,1.598l-1.331,1.864l-1.065,1.863l-0.799,1.864l-0.799,2.13l-0.532,2.13
	l-0.532,2.396v2.13H67.629z"/>
<path fill="#B2B2B2" d="M67.629,71.357L55.115,59.109L54.05,60.44l-1.064,1.332l-0.799,1.331L51.387,64.7l-0.532,1.598l-0.533,1.598
	l-0.266,1.863v1.598H67.629z"/>
<path fill="#999999" d="M67.629,71.357l-7.721-7.455l-1.332,1.598l-1.064,1.863l-0.532,1.864l-0.267,2.13H67.629z"/>
<path fill="#7F7F7F" d="M67.629,71.357L64.7,68.428l-0.532,0.532l-0.532,0.799l-0.267,0.799v0.799H67.629z"/>
<path fill="none" stroke="#000000" stroke-width="2" d="M21.833,25.826l-2.13,2.131l-2.13,2.396l-1.864,2.663l-1.863,2.396
	l-1.598,2.662l-1.598,2.929l-1.331,2.663l-1.331,2.929l-1.065,2.929l-1.065,3.195l-0.798,2.929L4.26,58.843l-0.533,3.194
	l-0.532,2.929l-0.267,3.195v3.195"/>
<path fill="#7F7F7F" d="M67.629,71.357L90.26,48.458L44.731,2.929L21.833,25.826L67.629,71.357z"/>
<path fill="#999999" d="M64.7,68.694l22.898-22.897L47.66,5.858L24.761,28.49L64.7,68.694z"/>
<path fill="#B2B2B2" d="M59.908,63.635L82.54,41.003L52.186,10.651L29.554,33.282L59.908,63.635z"/>
<path fill="#CCCCCC" d="M55.115,59.109l22.898-22.897L56.979,15.177L34.347,38.074L55.115,59.109z"/>
<path fill="#E5E5E5" d="M51.387,55.381l22.898-22.897L60.972,19.17L38.075,42.069L51.387,55.381z"/>
<path fill="#FFFFFF" d="M47.393,51.387L70.292,28.49L64.7,22.898L42.068,45.796L47.393,51.387z"/>
<path fill="none" stroke="#000000" stroke-width="2" d="M21.833,25.826L44.731,2.929"/>
<path fill="none" stroke="#000000" stroke-width="2" d="M90.26,48.458L67.629,71.357"/>
</svg>
