<?xml version="1.0" encoding="utf-8"?>
<!-- Generator: Adobe Illustrator 14.0.0, SVG Export Plug-In . SVG Version: 6.00 Build 43363)  -->
<!DOCTYPE svg PUBLIC "-//W3C//DTD SVG 1.1//EN" "http://www.w3.org/Graphics/SVG/1.1/DTD/svg11.dtd">
<svg version="1.1" id="图层_1" xmlns="http://www.w3.org/2000/svg" xmlns:xlink="http://www.w3.org/1999/xlink" x="0px" y="0px"
	 width="93.189px" height="106.502px" viewBox="0 0 93.189 106.502" enable-background="new 0 0 93.189 106.502"
	 xml:space="preserve">
<path fill="#7F7F7F" d="M25.827,2.929v32.217H90.26V2.929H25.827z"/>
<path fill="#999999" d="M29.821,2.929v32.217h56.712V2.929H29.821z"/>
<path fill="#B2B2B2" d="M36.743,2.929v32.217H79.61V2.929H36.743z"/>
<path fill="#CCCCCC" d="M43.4,2.929v32.217h29.554V2.929H43.4z"/>
<path fill="#E5E5E5" d="M48.724,2.929v32.217h18.904V2.929H48.724z"/>
<path fill="#FFFFFF" d="M54.316,2.929v32.217h7.722V2.929H54.316z"/>
<path fill="none" stroke="#000000" stroke-width="2" d="M90.26,2.929v32.217"/>
<path fill="none" stroke="#000000" stroke-width="2" d="M25.827,35.146V2.929"/>
<path fill="#7F7F7F" d="M25.827,35.146l45.529,45.796l2.131-2.396l2.13-2.396l1.863-2.396l1.864-2.663l1.598-2.662l1.598-2.663
	l1.597-2.929l1.065-2.929l1.331-2.929l0.799-2.929l1.065-3.195l0.532-2.929l0.532-3.195l0.533-3.194l0.266-3.195v-3.195H25.827z"/>
<path fill="#999999" d="M25.827,35.146l42.867,42.867l1.863-2.13l2.131-2.396l1.598-2.13l1.863-2.396l1.331-2.662l1.598-2.663
	l1.331-2.662l1.065-2.663l1.065-2.662l1.064-2.929l0.799-2.929l0.532-2.663l0.533-2.929l0.532-3.195l0.267-2.929v-2.929H25.827z"/>
<path fill="#B2B2B2" d="M25.827,35.146L63.901,73.22l3.462-3.993l3.194-4.261l2.663-4.526l2.13-4.792l1.864-4.793l1.331-5.325
	l0.799-5.059l0.266-5.325H25.827z"/>
<path fill="#CCCCCC" d="M25.827,35.146l33.282,33.282l2.929-3.462l2.929-3.728l2.396-3.728l1.863-4.26l1.598-4.526l1.065-4.526
	l0.799-4.526l0.266-4.526H25.827z"/>
<path fill="#E5E5E5" d="M25.827,35.146L55.382,64.7l2.662-2.929l2.396-3.462l2.13-3.461l1.864-3.728l1.331-3.994L66.83,43.4
	l0.533-4.26l0.266-3.994H25.827z"/>
<path fill="#FFFFFF" d="M25.827,35.146l25.561,25.827l2.396-2.663l2.13-2.929l1.863-3.195l1.332-3.194l1.331-3.195l0.799-3.461
	l0.532-3.729l0.267-3.461H25.827z"/>
<path fill="#E5E5E5" d="M25.827,35.146l19.969,19.97l1.864-2.131l1.598-2.13l1.331-2.396l1.331-2.396l0.799-2.663l0.799-2.662
	l0.267-2.929l0.266-2.663H25.827z"/>
<path fill="#CCCCCC" d="M25.827,35.146l16.241,16.241L43.4,49.79l1.331-1.864l1.331-1.863l0.799-2.131l0.799-2.13l0.532-2.13
	l0.532-2.13v-2.396H25.827z"/>
<path fill="#B2B2B2" d="M25.827,35.146l12.248,12.514l1.064-1.331l1.065-1.331l1.064-1.598l0.799-1.598l0.533-1.598l0.532-1.598
	l0.267-1.863v-1.598H25.827z"/>
<path fill="#999999" d="M25.827,35.146l7.722,7.722l1.331-1.598l0.799-1.864l0.532-2.13l0.267-2.13H25.827z"/>
<path fill="#7F7F7F" d="M25.827,35.146l2.929,2.929l0.532-0.532l0.267-0.799l0.267-0.799v-0.799H25.827z"/>
<path fill="none" stroke="#000000" stroke-width="2" d="M71.356,80.942l2.131-2.396l2.13-2.396l1.863-2.396l1.864-2.663l1.598-2.662
	l1.598-2.663l1.597-2.929l1.065-2.929l1.331-2.929l0.799-2.929l1.065-3.195l0.532-2.929l0.532-3.195l0.533-3.194l0.266-3.195v-3.195
	"/>
<path fill="#7F7F7F" d="M25.827,35.146L2.928,58.044l45.53,45.529l22.897-22.897L25.827,35.146z"/>
<path fill="#999999" d="M28.756,38.074L5.857,60.706l39.938,40.205l22.898-22.898L28.756,38.074z"/>
<path fill="#B2B2B2" d="M33.549,42.867L10.65,65.765l30.354,30.354L63.901,73.22L33.549,42.867z"/>
<path fill="#CCCCCC" d="M38.075,47.659L15.443,70.291l20.768,21.034l22.898-22.897L38.075,47.659z"/>
<path fill="#E5E5E5" d="M41.802,51.121L19.171,74.019l13.313,13.313L55.115,64.7L41.802,51.121z"/>
<path fill="#FFFFFF" d="M45.796,55.115L22.898,78.013l5.591,5.592l22.898-22.898L45.796,55.115z"/>
<path fill="none" stroke="#000000" stroke-width="2" d="M71.356,80.676l-22.897,22.897"/>
<path fill="none" stroke="#000000" stroke-width="2" d="M2.928,58.044l22.898-22.898"/>
</svg>
