<?xml version="1.0" encoding="utf-8"?>
<!-- Generator: Adobe Illustrator 14.0.0, SVG Export Plug-In . SVG Version: 6.00 Build 43363)  -->
<!DOCTYPE svg PUBLIC "-//W3C//DTD SVG 1.1//EN" "http://www.w3.org/Graphics/SVG/1.1/DTD/svg11.dtd">
<svg version="1.1" id="图层_1" xmlns="http://www.w3.org/2000/svg" xmlns:xlink="http://www.w3.org/1999/xlink" x="0px" y="0px"
	 width="93.189px" height="106.502px" viewBox="0 0 93.189 106.502" enable-background="new 0 0 93.189 106.502"
	 xml:space="preserve">
<path fill="#7F7F7F" d="M67.363,2.929v32.217H2.928V2.929H67.363z"/>
<path fill="#999999" d="M63.369,2.929v32.217H6.923V2.929H63.369z"/>
<path fill="#B2B2B2" d="M56.446,2.929v32.217H13.579V2.929H56.446z"/>
<path fill="#CCCCCC" d="M50.056,2.929v32.217H20.502V2.929H50.056z"/>
<path fill="#E5E5E5" d="M44.731,2.929v32.217H25.827V2.929H44.731z"/>
<path fill="#FFFFFF" d="M39.139,2.929v32.217h-7.722V2.929H39.139z"/>
<path fill="none" stroke="#000000" stroke-width="2" d="M2.928,2.929v32.217"/>
<path fill="none" stroke="#000000" stroke-width="2" d="M67.363,35.146V2.929"/>
<path fill="#7F7F7F" d="M67.629,35.146l-45.796,45.53l-2.13-2.131l-2.13-2.396l-1.864-2.663l-1.863-2.396l-1.598-2.662l-1.598-2.929
	l-1.331-2.663l-1.331-2.929l-1.065-2.929L5.857,54.05l-0.798-3.195L4.26,47.926l-0.533-3.195l-0.532-3.194l-0.267-3.195v-3.195
	H67.629z"/>
<path fill="#999999" d="M67.629,35.146L24.761,78.013l-2.13-2.13l-1.863-2.396l-1.864-2.13l-1.598-2.396l-1.598-2.662l-1.331-2.663
	l-1.331-2.662l-1.331-2.663l-1.065-2.662l-0.799-2.929L9.052,49.79l-0.799-2.663l-0.532-2.929l-0.267-3.195l-0.266-2.929v-2.929
	H67.629z"/>
<path fill="#B2B2B2" d="M67.629,35.146L29.554,73.22l-3.461-3.993l-3.195-4.261l-2.663-4.526l-2.13-4.792l-1.863-4.793L14.91,45.53
	l-0.799-5.059l-0.266-5.325H67.629z"/>
<path fill="#CCCCCC" d="M67.629,35.146L34.347,68.428l-3.195-3.462l-2.663-3.728l-2.396-3.728l-1.864-4.26l-1.598-4.526
	l-1.331-4.526l-0.532-4.526l-0.267-4.526H67.629z"/>
<path fill="#E5E5E5" d="M67.629,35.146L38.075,64.7l-2.663-2.929l-2.396-3.462l-2.13-3.461l-1.863-3.728l-1.332-3.994L26.626,43.4
	l-0.532-4.26l-0.267-3.994H67.629z"/>
<path fill="#FFFFFF" d="M67.629,35.146L41.802,60.973l-2.396-2.663l-2.13-2.929l-1.864-3.195l-1.331-3.194l-1.331-3.195
	l-0.799-3.461l-0.533-3.729l-0.266-3.461H67.629z"/>
<path fill="#E5E5E5" d="M67.629,35.146L47.66,55.115l-1.864-2.131l-1.597-2.13l-1.598-2.396l-1.065-2.396L40.737,43.4l-0.799-2.662
	l-0.266-2.929l-0.267-2.663H67.629z"/>
<path fill="#CCCCCC" d="M67.629,35.146L51.387,51.387L49.79,49.79l-1.331-1.864l-1.065-1.863l-0.799-2.131l-0.799-2.13l-0.532-2.13
	l-0.532-2.13v-2.396H67.629z"/>
<path fill="#B2B2B2" d="M67.629,35.146L55.115,47.394l-1.065-1.331l-1.064-1.332L52.186,43.4l-0.799-1.598l-0.532-1.598
	l-0.533-1.598l-0.266-1.863v-1.598H67.629z"/>
<path fill="#999999" d="M67.629,35.146l-7.721,7.722l-1.332-1.598l-1.064-1.864l-0.532-2.13l-0.267-2.13H67.629z"/>
<path fill="#7F7F7F" d="M67.629,35.146L64.7,38.074l-0.532-0.532l-0.532-0.799l-0.267-0.799v-0.799H67.629z"/>
<path fill="none" stroke="#000000" stroke-width="2" d="M21.833,80.676l-2.13-2.131l-2.13-2.396l-1.864-2.663l-1.863-2.396
	l-1.598-2.662l-1.598-2.929l-1.331-2.663l-1.331-2.929l-1.065-2.929L5.857,54.05l-0.798-3.195L4.26,47.926l-0.533-3.195
	l-0.532-3.194l-0.267-3.195v-3.195"/>
<path fill="#7F7F7F" d="M67.629,35.146L90.26,58.044l-45.529,45.529L22.099,80.676L67.629,35.146z"/>
<path fill="#999999" d="M64.7,38.074l22.898,22.632L47.66,100.645L24.761,78.013L64.7,38.074z"/>
<path fill="#B2B2B2" d="M59.908,42.867L82.54,65.765L52.453,95.852L29.554,73.22L59.908,42.867z"/>
<path fill="#CCCCCC" d="M55.115,47.394l22.898,22.897L56.979,91.325L34.347,68.428L55.115,47.394z"/>
<path fill="#E5E5E5" d="M51.387,51.121l22.898,22.897L60.972,87.332L38.075,64.7L51.387,51.121z"/>
<path fill="#FFFFFF" d="M47.66,55.115l22.632,22.897L64.7,83.605L42.068,60.706L47.66,55.115z"/>
<path fill="none" stroke="#000000" stroke-width="2" d="M22.099,80.676l22.632,22.897"/>
<path fill="none" stroke="#000000" stroke-width="2" d="M90.26,58.044L67.629,35.146"/>
</svg>
