<?xml version="1.0" encoding="utf-8"?>
<!-- Generator: Adobe Illustrator 14.0.0, SVG Export Plug-In . SVG Version: 6.00 Build 43363)  -->
<!DOCTYPE svg PUBLIC "-//W3C//DTD SVG 1.1//EN" "http://www.w3.org/Graphics/SVG/1.1/DTD/svg11.dtd">
<svg version="1.1" id="图层_1" xmlns="http://www.w3.org/2000/svg" xmlns:xlink="http://www.w3.org/1999/xlink" x="0px" y="0px"
	 width="122.019px" height="106.502px" viewBox="0 0 122.019 106.502" enable-background="new 0 0 122.019 106.502"
	 xml:space="preserve">
<path fill="#7F7F7F" d="M3.347,29.517H40.47v73.637H3.347V29.517z"/>
<path fill="#999999" d="M3.347,34.081H40.47v64.813H3.347V34.081z"/>
<path fill="#B2B2B2" d="M3.347,41.992H40.47v48.99H3.347V41.992z"/>
<path fill="#CCCCCC" d="M3.347,49.6H40.47v33.775H3.347V49.6z"/>
<path fill="#E5E5E5" d="M3.347,55.381H40.47v21.604H3.347V55.381z"/>
<path fill="#FFFFFF" d="M3.347,61.771H40.47V70.9H3.347V61.771z"/>
<path fill="none" stroke="#000000" stroke-width="2" d="M3.347,103.154H40.47"/>
<path fill="none" stroke="#000000" stroke-width="2" d="M40.47,29.517H3.347"/>
<path fill="#7F7F7F" d="M40.47,29.517L92.503,81.55l-2.435,2.434l-2.738,2.435l-3.043,2.13l-2.739,2.13l-3.043,1.826l-3.347,1.825
	l-3.043,1.826l-3.347,1.217l-3.348,1.521l-3.651,0.913l-3.347,1.217l-3.651,0.609l-3.651,0.608l-3.348,0.608l-3.651,0.304H40.47
	V29.517z"/>
<path fill="#999999" d="M40.47,29.517l48.99,48.686l-2.435,2.435l-2.738,2.13l-2.435,2.13l-3.043,1.826l-2.738,1.825l-3.043,1.826
	l-3.043,1.521l-3.043,1.217l-3.347,1.217l-3.043,1.218l-3.348,0.913l-3.347,0.608l-3.348,0.608l-3.347,0.608l-3.348,0.305H40.47
	V29.517z"/>
<path fill="#B2B2B2" d="M40.47,29.517L83.983,73.03l-4.564,3.956l-4.564,3.651l-5.477,3.043l-5.173,2.435l-5.781,2.13l-5.782,1.521
	l-6.085,0.912l-6.086,0.305V29.517z"/>
<path fill="#CCCCCC" d="M40.47,29.517l38.035,38.036L74.55,70.9l-4.26,3.348l-4.564,2.738l-4.869,2.13l-4.868,1.826l-5.173,1.217
	l-5.173,0.913l-5.173,0.304V29.517z"/>
<path fill="#E5E5E5" d="M40.47,29.517l33.775,33.472l-3.347,3.043l-3.956,2.738l-3.956,2.435l-4.26,2.13l-4.564,1.521l-4.26,1.217
	l-4.868,0.608l-4.564,0.305V29.517z"/>
<path fill="#FFFFFF" d="M40.47,29.517l29.211,29.212l-3.042,2.738l-3.043,2.435l-3.651,2.13l-3.651,1.521l-3.652,1.521l-3.955,0.912
	l-4.26,0.609L40.47,70.9V29.517z"/>
<path fill="#E5E5E5" d="M40.47,29.517l22.821,22.821l-2.435,2.13l-2.434,1.826l-2.739,1.521l-2.738,1.521l-3.043,0.913l-3.043,0.912
	l-3.347,0.305l-3.043,0.304V29.517z"/>
<path fill="#CCCCCC" d="M40.47,29.517l18.562,18.257L57.205,49.6l-2.13,1.521l-2.435,1.217l-2.13,0.913l-2.434,0.913l-2.435,0.608
	l-2.738,0.608H40.47V29.517z"/>
<path fill="#B2B2B2" d="M40.47,29.517l13.997,13.997l-1.521,1.218l-1.521,1.217l-1.521,0.913l-1.825,0.912l-1.826,0.609
	l-1.825,0.608l-2.13,0.304H40.47V29.517z"/>
<path fill="#999999" d="M40.47,29.517l8.52,8.521l-1.825,1.521l-2.13,1.217l-2.13,0.608l-2.435,0.305V29.517z"/>
<path fill="#7F7F7F" d="M40.47,29.517l3.347,3.043l-0.608,0.608l-0.912,0.608l-0.913,0.305H40.47V29.517z"/>
<path fill="none" stroke="#000000" stroke-width="2" d="M92.503,81.55l-2.435,2.434l-2.738,2.435l-3.043,2.13l-2.739,2.13
	l-3.043,1.826l-3.347,1.825l-3.043,1.826l-3.347,1.217l-3.348,1.521l-3.651,0.913l-3.347,1.217l-3.651,0.609l-3.651,0.608
	l-3.348,0.608l-3.651,0.304H40.47"/>
<path fill="#7F7F7F" d="M40.47,29.213L66.639,3.349l52.032,52.032L92.503,81.55L40.47,29.213z"/>
<path fill="#999999" d="M43.513,32.56L69.681,6.391l45.947,45.947L89.46,78.202L43.513,32.56z"/>
<path fill="#B2B2B2" d="M49.294,38.037l26.169-25.864l34.688,34.688L83.983,72.726L49.294,38.037z"/>
<path fill="#CCCCCC" d="M54.467,43.514l26.169-26.168l24.038,24.038L78.505,67.553L54.467,43.514z"/>
<path fill="#E5E5E5" d="M58.727,47.774l26.169-26.168L100.11,36.82L74.245,62.989L58.727,47.774z"/>
<path fill="#FFFFFF" d="M63.291,52.338L89.46,26.17l6.39,6.39L69.681,58.729L63.291,52.338z"/>
<path fill="none" stroke="#000000" stroke-width="2" d="M92.503,81.55l26.168-26.169"/>
<path fill="none" stroke="#000000" stroke-width="2" d="M66.639,3.349L40.47,29.213"/>
</svg>
