<?xml version="1.0" encoding="utf-8"?>
<!-- Generator: Adobe Illustrator 14.0.0, SVG Export Plug-In . SVG Version: 6.00 Build 43363)  -->
<!DOCTYPE svg PUBLIC "-//W3C//DTD SVG 1.1//EN" "http://www.w3.org/Graphics/SVG/1.1/DTD/svg11.dtd">
<svg version="1.1" id="图层_1" xmlns="http://www.w3.org/2000/svg" xmlns:xlink="http://www.w3.org/1999/xlink" x="0px" y="0px"
	 width="93.189px" height="106.502px" viewBox="0 0 93.189 106.502" enable-background="new 0 0 93.189 106.502"
	 xml:space="preserve">
<path fill="#7F7F7F" d="M25.827,103.573V71.357H90.26v32.217H25.827z"/>
<path fill="#999999" d="M29.821,103.573V71.357h56.712v32.217H29.821z"/>
<path fill="#B2B2B2" d="M36.743,103.573V71.357H79.61v32.217H36.743z"/>
<path fill="#CCCCCC" d="M43.4,103.573V71.357h29.554v32.217H43.4z"/>
<path fill="#E5E5E5" d="M48.724,103.573V71.357h18.904v32.217H48.724z"/>
<path fill="#FFFFFF" d="M54.05,103.573V71.357h7.988v32.217H54.05z"/>
<path fill="none" stroke="#000000" stroke-width="2" d="M90.26,103.573V71.357"/>
<path fill="none" stroke="#000000" stroke-width="2" d="M25.827,71.357v32.217"/>
<path fill="#7F7F7F" d="M25.827,71.357l45.529-45.796l2.131,2.396l2.13,2.396l1.863,2.396l1.864,2.663l1.598,2.662l1.598,2.663
	l1.597,2.929l1.065,2.929l1.331,2.929l0.799,2.929l1.065,3.195l0.532,2.929l0.532,3.195l0.533,3.194l0.266,3.195v3.195H25.827z"/>
<path fill="#999999" d="M25.827,71.357L68.694,28.49l1.863,2.13l2.131,2.396l1.598,2.13l1.863,2.396l1.331,2.662l1.598,2.663
	l1.331,2.662l1.065,2.663l1.065,2.662l1.064,2.929l0.799,2.929l0.532,2.663l0.533,2.929l0.532,3.195l0.267,2.929v2.929H25.827z"/>
<path fill="#B2B2B2" d="M25.827,71.357l38.074-38.074l3.462,3.993l3.194,3.994l2.663,4.793l2.13,4.526l1.864,5.059l1.331,5.059
	l0.799,5.325l0.266,5.325H25.827z"/>
<path fill="#CCCCCC" d="M25.827,71.357l33.282-33.282l2.929,3.462l2.929,3.461l2.396,3.994l1.863,4.26l1.598,4.26l1.065,4.526
	l0.799,4.526l0.266,4.793H25.827z"/>
<path fill="#E5E5E5" d="M25.827,71.357l29.555-29.555l2.662,2.929l2.396,3.462l2.13,3.461l1.598,3.728l1.331,3.994l1.065,3.728
	l0.532,4.26l0.267,3.994H25.827z"/>
<path fill="#FFFFFF" d="M25.827,71.357L51.387,45.53l2.396,2.663l2.13,2.929l1.863,2.929l1.332,3.195l1.331,3.461l0.799,3.462
	l0.532,3.728l0.267,3.461H25.827z"/>
<path fill="#E5E5E5" d="M25.827,71.357l19.969-19.97l1.864,2.131l1.598,2.13l1.331,2.396l1.331,2.396l0.799,2.663l0.799,2.662
	l0.267,2.929l0.266,2.663H25.827z"/>
<path fill="#CCCCCC" d="M25.827,71.357l16.241-16.241l1.332,1.597l1.331,1.864l1.331,1.863l0.799,2.131l0.799,2.13l0.532,2.13
	l0.532,2.13v2.396H25.827z"/>
<path fill="#B2B2B2" d="M25.827,71.357l12.248-12.514l1.064,1.331l1.065,1.331l1.064,1.331l0.799,1.598l0.533,1.598l0.532,1.864
	l0.267,1.597v1.864H25.827z"/>
<path fill="#999999" d="M25.827,71.357l7.722-7.722l1.331,1.598l0.799,1.864l0.532,2.13l0.267,2.13H25.827z"/>
<path fill="#7F7F7F" d="M25.827,71.357l2.929-2.929l0.267,0.532l0.532,0.799l0.267,0.799v0.799H25.827z"/>
<path fill="none" stroke="#000000" stroke-width="2" d="M71.356,25.561l2.131,2.396l2.13,2.396l1.863,2.396l1.864,2.663l1.598,2.662
	l1.598,2.663l1.597,2.929l1.065,2.929l1.331,2.929l0.799,2.929l1.065,3.195l0.532,2.929l0.532,3.195l0.533,3.194l0.266,3.195v3.195"
	/>
<path fill="#7F7F7F" d="M25.827,71.09L2.928,48.458l45.53-45.529l22.897,22.632L25.827,71.09z"/>
<path fill="#999999" d="M28.756,68.428L5.857,45.53L45.796,5.591L68.694,28.49L28.756,68.428z"/>
<path fill="#B2B2B2" d="M33.549,63.635L10.65,40.738l30.354-30.354l22.897,22.898L33.549,63.635z"/>
<path fill="#CCCCCC" d="M38.075,58.843L15.443,35.945l20.768-20.768l22.898,22.897L38.075,58.843z"/>
<path fill="#E5E5E5" d="M41.802,55.115L19.171,32.484l13.313-13.579l22.632,22.897L41.802,55.115z"/>
<path fill="#FFFFFF" d="M45.796,51.121L22.898,28.49l5.591-5.592l22.898,22.898L45.796,51.121z"/>
<path fill="none" stroke="#000000" stroke-width="2" d="M71.356,25.561L48.459,2.929"/>
<path fill="none" stroke="#000000" stroke-width="2" d="M2.928,48.458L25.827,71.09"/>
</svg>
