<?xml version="1.0" encoding="utf-8"?>
<!-- Generator: Adobe Illustrator 14.0.0, SVG Export Plug-In . SVG Version: 6.00 Build 43363)  -->
<!DOCTYPE svg PUBLIC "-//W3C//DTD SVG 1.1//EN" "http://www.w3.org/Graphics/SVG/1.1/DTD/svg11.dtd">
<svg version="1.1" id="图层_1" xmlns="http://www.w3.org/2000/svg" xmlns:xlink="http://www.w3.org/1999/xlink" x="0px" y="0px"
	 width="121.673px" height="106.502px" viewBox="0 0 121.673 106.502" enable-background="new 0 0 121.673 106.502"
	 xml:space="preserve">
<path fill="#7F7F7F" d="M118.335,29.433H81.318v73.731h37.018V29.433z"/>
<path fill="#999999" d="M118.335,33.984H81.318v64.629h37.018V33.984z"/>
<path fill="#B2B2B2" d="M118.335,41.873H81.318v48.851h37.018V41.873z"/>
<path fill="#CCCCCC" d="M118.335,49.458H81.318v33.68h37.018V49.458z"/>
<path fill="#E5E5E5" d="M118.335,55.527H81.318V77.07h37.018V55.527z"/>
<path fill="#FFFFFF" d="M118.335,61.899H81.318v8.8h37.018V61.899z"/>
<path fill="none" stroke="#000000" stroke-width="2" d="M118.335,103.164H81.318"/>
<path fill="none" stroke="#000000" stroke-width="2" d="M81.318,29.433h37.018"/>
<path fill="#7F7F7F" d="M81.318,29.433L29.432,81.621l2.428,2.428l2.73,2.427l3.034,2.124l2.731,2.124l3.034,1.82l3.337,1.821
	l3.034,1.517l3.338,1.518l3.338,1.213l3.641,1.214l3.338,0.91l3.642,0.911l3.641,0.606l3.338,0.606l3.641,0.304h3.642V29.433z"/>
<path fill="#999999" d="M81.318,29.433L32.466,78.283l2.428,2.428l2.73,2.124l2.428,2.124l3.034,1.82l2.73,1.82l3.034,1.518
	l3.034,1.517l3.034,1.518l3.338,1.214l3.034,0.91l3.338,0.91l3.338,0.91l3.338,0.606l3.337,0.304l3.338,0.304h3.338V29.433z"/>
<path fill="#B2B2B2" d="M81.318,29.433l-43.39,43.39l4.552,3.944l4.854,3.641l5.158,3.034l5.462,2.428l5.461,2.124l6.068,1.517
	l5.766,0.91l6.068,0.304V29.433z"/>
<path fill="#CCCCCC" d="M81.318,29.433L43.39,67.361l3.944,3.641l4.248,3.034l4.551,2.731l4.855,2.124l4.854,1.82l5.158,1.517
	l5.158,0.607l5.158,0.303V29.433z"/>
<path fill="#E5E5E5" d="M81.318,29.433l-33.68,33.68l3.337,3.034l3.944,2.73l3.945,2.428l4.248,2.124l4.551,1.517l4.248,1.214
	l4.854,0.607l4.552,0.303V29.433z"/>
<path fill="#FFFFFF" d="M81.318,29.433L52.189,58.865l3.034,2.73l3.338,2.428l3.338,1.82l3.641,1.821l3.944,1.213l3.945,0.91
	l3.944,0.607l3.944,0.304V29.433z"/>
<path fill="#E5E5E5" d="M81.318,29.433L58.561,52.19l2.428,2.123l2.427,1.821l2.731,1.517l3.034,1.518l2.73,0.91l3.034,0.91
	l3.338,0.304l3.034,0.303V29.433z"/>
<path fill="#CCCCCC" d="M81.318,29.433L63.113,47.942l1.82,1.517l2.124,1.518l2.124,1.517l2.124,0.91l2.427,0.91l2.428,0.607
	l2.73,0.606h2.428V29.433z"/>
<path fill="#B2B2B2" d="M81.318,29.433L67.36,43.39l1.518,1.214l1.517,1.214l1.518,1.214l1.82,0.606l1.82,0.91l1.821,0.606
	l2.124,0.304h1.82V29.433z"/>
<path fill="#999999" d="M81.318,29.433l-8.496,8.799l1.82,1.518l2.124,0.91l2.124,0.606l2.428,0.304V29.433z"/>
<path fill="#7F7F7F" d="M81.318,29.433l-3.034,3.337l0.606,0.304l0.607,0.606l0.91,0.304h0.91V29.433z"/>
<path fill="none" stroke="#000000" stroke-width="2" d="M29.432,81.621l2.428,2.428l2.73,2.427l3.034,2.124l2.731,2.124l3.034,1.82
	l3.337,1.821l3.034,1.517l3.338,1.518l3.338,1.213l3.641,1.214l3.338,0.91l3.642,0.911l3.641,0.606l3.338,0.606l3.641,0.304h3.642"
	/>
<path fill="#7F7F7F" d="M81.318,29.433L55.223,3.338L3.338,55.224l26.094,26.094L81.318,29.433z"/>
<path fill="#999999" d="M78.283,32.467L52.189,6.676L6.372,52.19l26.094,26.094L78.283,32.467z"/>
<path fill="#B2B2B2" d="M72.518,38.232L46.727,12.137L11.833,46.728l26.095,26.095L72.518,38.232z"/>
<path fill="#CCCCCC" d="M67.36,43.39L41.266,17.295L17.295,41.266L43.39,67.361L67.36,43.39z"/>
<path fill="#E5E5E5" d="M63.113,47.638L37.018,21.543L21.847,37.018l26.094,26.095L63.113,47.638z"/>
<path fill="#FFFFFF" d="M58.561,52.19L32.466,26.095l-6.372,6.372l26.095,26.094L58.561,52.19z"/>
<path fill="none" stroke="#000000" stroke-width="2" d="M29.432,81.318L3.338,55.224"/>
<path fill="none" stroke="#000000" stroke-width="2" d="M55.223,3.338l26.095,26.095"/>
</svg>
