<?xml version="1.0" encoding="utf-8"?>
<!-- Generator: Adobe Illustrator 14.0.0, SVG Export Plug-In . SVG Version: 6.00 Build 43363)  -->
<!DOCTYPE svg PUBLIC "-//W3C//DTD SVG 1.1//EN" "http://www.w3.org/Graphics/SVG/1.1/DTD/svg11.dtd">
<svg version="1.1" id="图层_1" xmlns="http://www.w3.org/2000/svg" xmlns:xlink="http://www.w3.org/1999/xlink" x="0px" y="0px"
	 width="121.673px" height="106.502px" viewBox="0 0 121.673 106.502" enable-background="new 0 0 121.673 106.502"
	 xml:space="preserve">
<path fill="#7F7F7F" d="M118.335,77.07H81.318V3.338h37.018V77.07z"/>
<path fill="#999999" d="M118.335,72.519H81.318V7.89h37.018V72.519z"/>
<path fill="#B2B2B2" d="M118.335,64.629H81.318V15.475h37.018V64.629z"/>
<path fill="#CCCCCC" d="M118.335,57.044H81.318V23.364h37.018V57.044z"/>
<path fill="#E5E5E5" d="M118.335,50.976H81.318V29.433h37.018V50.976z"/>
<path fill="#FFFFFF" d="M118.335,44.604H81.318v-8.8h37.018V44.604z"/>
<path fill="none" stroke="#000000" stroke-width="2" d="M118.335,3.338H81.318"/>
<path fill="none" stroke="#000000" stroke-width="2" d="M81.318,77.07h37.018"/>
<path fill="#7F7F7F" d="M81.318,77.07L29.432,24.881l2.428-2.428l2.73-2.427l3.034-2.124l2.731-2.124l3.034-1.82l3.337-1.821
	l3.034-1.517l3.338-1.518l3.338-1.213l3.641-1.214l3.338-0.91l3.642-0.911l3.641-0.606l3.338-0.606l3.641-0.304h3.642V77.07z"/>
<path fill="#999999" d="M81.318,77.07L32.466,28.219l2.428-2.428l2.73-2.124l2.428-2.124l3.034-1.82l2.73-1.82l3.034-1.82
	l3.034-1.518l3.034-1.214l3.338-1.214l3.034-1.213l3.338-0.911l3.338-0.606L71.305,8.8l3.337-0.607L77.98,7.89h3.338V77.07z"/>
<path fill="#B2B2B2" d="M81.318,77.07l-43.39-43.39l4.552-3.944l4.854-3.641l5.158-3.034l5.462-2.428l5.461-2.124l6.068-1.517
	l5.766-0.91l6.068-0.304V77.07z"/>
<path fill="#CCCCCC" d="M81.318,77.07L43.39,39.142l3.944-3.641l4.248-3.034l4.551-2.731l4.855-2.124l4.854-1.82l5.158-1.517
	l5.158-0.607l5.158-0.304V77.07z"/>
<path fill="#E5E5E5" d="M81.318,77.07l-33.68-33.68l3.337-3.034l3.944-2.73l3.945-2.428l4.248-2.124l4.551-1.517l4.248-1.214
	l4.854-0.607l4.552-0.303V77.07z"/>
<path fill="#FFFFFF" d="M81.318,77.07L52.189,47.638l3.034-2.73l3.338-2.428l3.338-2.124l3.641-1.518l3.944-1.517l3.945-0.91
	l3.944-0.607l3.944-0.303V77.07z"/>
<path fill="#E5E5E5" d="M81.318,77.07L58.561,54.313l2.428-2.123l2.427-1.821l2.731-1.82l3.034-1.214l3.034-0.91l3.034-0.91
	l3.034-0.304l3.034-0.303V77.07z"/>
<path fill="#CCCCCC" d="M81.318,77.07L63.113,58.561l1.82-1.82l2.124-1.517l2.124-1.214l2.124-1.214l2.427-0.606l2.428-0.607
	l2.73-0.606h2.428V77.07z"/>
<path fill="#B2B2B2" d="M81.318,77.07L67.36,63.113l1.518-1.518l1.517-1.213l1.518-0.911l1.82-0.91l1.82-0.606l1.821-0.606
	l2.124-0.304h1.82V77.07z"/>
<path fill="#999999" d="M81.318,77.07l-8.496-8.799l1.82-1.518l2.124-0.91l2.124-0.606l2.428-0.304V77.07z"/>
<path fill="#7F7F7F" d="M81.318,77.07l-3.034-3.337l0.606-0.607l0.607-0.303l0.91-0.304h0.91V77.07z"/>
<path fill="none" stroke="#000000" stroke-width="2" d="M29.432,24.881l2.428-2.428l2.73-2.427l3.034-2.124l2.731-2.124l3.034-1.82
	l3.337-1.821l3.034-1.517l3.338-1.518l3.338-1.213l3.641-1.214l3.338-0.91l3.642-0.911l3.641-0.606l3.338-0.606l3.641-0.304h3.642"
	/>
<path fill="#7F7F7F" d="M81.318,77.07l-26.095,26.095L3.338,50.976l26.094-25.791L81.318,77.07z"/>
<path fill="#999999" d="M78.283,73.733L52.189,99.826L6.675,54.313l25.791-26.094L78.283,73.733z"/>
<path fill="#B2B2B2" d="M72.518,68.271L46.727,94.365l-34.59-34.591L37.928,33.68L72.518,68.271z"/>
<path fill="#CCCCCC" d="M67.36,63.113L41.266,88.904L17.295,65.237L43.39,39.142L67.36,63.113z"/>
<path fill="#E5E5E5" d="M63.113,58.865L37.018,84.656L21.847,69.485L47.941,43.39L63.113,58.865z"/>
<path fill="#FFFFFF" d="M58.561,54.313L32.466,80.407l-6.372-6.372l26.095-26.094L58.561,54.313z"/>
<path fill="none" stroke="#000000" stroke-width="2" d="M29.432,25.185L3.338,50.976"/>
<path fill="none" stroke="#000000" stroke-width="2" d="M55.223,103.164L81.318,77.07"/>
</svg>
