<?xml version="1.0" encoding="utf-8"?>
<!-- Generator: Adobe Illustrator 14.0.0, SVG Export Plug-In . SVG Version: 6.00 Build 43363)  -->
<!DOCTYPE svg PUBLIC "-//W3C//DTD SVG 1.1//EN" "http://www.w3.org/Graphics/SVG/1.1/DTD/svg11.dtd">
<svg version="1.1" id="图层_1" xmlns="http://www.w3.org/2000/svg" xmlns:xlink="http://www.w3.org/1999/xlink" x="0px" y="0px"
	 width="106.503px" height="106.502px" viewBox="0 0 106.503 106.502" enable-background="new 0 0 106.503 106.502"
	 xml:space="preserve">
<path fill="#7F7F7F" d="M3.014,82.389L82.389,3.014l21.1,21.1l-79.375,79.375L3.014,82.389z"/>
<path fill="#999999" d="M4.421,83.795L83.796,4.421l18.486,18.487l-79.374,79.374L4.421,83.795z"/>
<path fill="#B2B2B2" d="M6.631,86.006L86.006,6.631l14.066,14.066l-79.375,79.375L6.631,86.006z"/>
<path fill="#CCCCCC" d="M8.842,88.216L88.216,8.641l9.646,9.847L18.487,97.862L8.842,88.216z"/>
<path fill="#E5E5E5" d="M10.449,89.823l79.374-79.374l6.23,6.229L16.679,96.053L10.449,89.823z"/>
<path fill="#FFFFFF" d="M12.258,91.632l79.374-79.374l2.613,2.612L14.87,94.244L12.258,91.632z"/>
<path fill="none" stroke="#000000" stroke-width="2" d="M24.114,103.489l79.375-79.375"/>
<path fill="none" stroke="#000000" stroke-width="2" d="M82.389,3.014L3.014,82.389"/>
</svg>
