<?xml version="1.0" encoding="utf-8"?>
<!-- Generator: Adobe Illustrator 14.0.0, SVG Export Plug-In . SVG Version: 6.00 Build 43363)  -->
<!DOCTYPE svg PUBLIC "-//W3C//DTD SVG 1.1//EN" "http://www.w3.org/Graphics/SVG/1.1/DTD/svg11.dtd">
<svg version="1.1" id="图层_1" xmlns="http://www.w3.org/2000/svg" xmlns:xlink="http://www.w3.org/1999/xlink" x="0px" y="0px"
	 width="95.163px" height="106.502px" viewBox="0 0 95.163 106.502" enable-background="new 0 0 95.163 106.502"
	 xml:space="preserve">
<path fill="#7F7F7F" d="M2.9,34.008V2.903h62.474v31.105H2.9z"/>
<path fill="#999999" d="M6.854,34.008V2.903h54.831v31.105H6.854z"/>
<path fill="#B2B2B2" d="M13.444,34.008V2.903h41.651v31.105H13.444z"/>
<path fill="#CCCCCC" d="M19.771,34.008V2.903h28.733v31.105H19.771z"/>
<path fill="#E5E5E5" d="M25.043,34.008V2.903h18.188v31.105H25.043z"/>
<path fill="#FFFFFF" d="M30.315,34.008V2.903h7.645v31.105H30.315z"/>
<path fill="none" stroke="#000000" stroke-width="2" d="M65.374,34.008V2.903"/>
<path fill="none" stroke="#000000" stroke-width="2" d="M2.9,2.903v31.105"/>
<path fill="#7F7F7F" d="M65.374,34.008L34.005,88.047l-3.427-2.108l-3.427-2.373l-3.163-2.636l-2.899-2.899l-2.636-2.899
	l-2.636-3.164l-2.373-3.427l-2.109-3.427L9.49,61.687l-1.845-3.69l-1.318-3.954l-1.318-3.69l-0.791-3.954L3.427,42.18l-0.264-3.954
	L2.9,34.008H65.374z"/>
<path fill="#999999" d="M65.374,34.008L36.114,84.62l-3.163-2.108l-3.164-2.109l-2.899-2.372l-2.9-2.637l-2.636-2.899l-2.372-2.899
	l-2.109-3.163l-2.109-3.163l-1.845-3.428l-1.582-3.427l-1.318-3.427l-1.054-3.69l-1.055-3.69l-0.527-3.954l-0.527-3.69v-3.954
	H65.374z"/>
<path fill="#B2B2B2" d="M65.374,34.008L39.277,79.085l-2.899-1.846l-2.636-2.108l-2.636-2.109L28.47,70.65l-2.109-2.373
	l-2.109-2.636l-2.109-2.636l-1.582-2.9l-1.845-3.163l-1.318-2.899l-1.054-3.163l-1.055-3.428l-0.791-3.163l-0.527-3.427
	l-0.527-3.427v-3.427H65.374z"/>
<path fill="#CCCCCC" d="M65.374,34.008L42.441,73.549l-5.009-3.427l-4.218-3.954l-3.954-4.481l-3.163-5.009l-2.636-5.272
	l-2.109-5.535l-1.054-5.8l-0.527-6.063H65.374z"/>
<path fill="#E5E5E5" d="M65.374,34.008l-20.297,35.06l-4.218-2.899l-3.954-3.69l-3.427-3.954l-2.899-4.218l-2.373-4.745
	l-1.845-5.009l-1.055-5.272l-0.263-5.271H65.374z"/>
<path fill="#FFFFFF" d="M65.374,34.008L47.713,64.323l-3.69-2.636l-3.427-2.899l-2.9-3.428l-2.636-3.954l-2.109-3.954l-1.318-4.217
	l-1.054-4.745l-0.264-4.481H65.374z"/>
<path fill="#E5E5E5" d="M65.374,34.008L51.667,57.733l-2.899-2.109l-2.9-2.108l-2.373-2.899l-1.845-2.9l-1.582-3.163l-1.054-3.427
	l-0.791-3.427l-0.264-3.69H65.374z"/>
<path fill="#CCCCCC" d="M65.374,34.008l-11.07,19.243l-2.373-1.582l-2.373-2.108l-1.845-2.109l-1.582-2.372l-1.318-2.636
	l-0.791-2.637l-0.527-2.899l-0.264-2.899H65.374z"/>
<path fill="#B2B2B2" d="M65.374,34.008L56.939,48.77l-1.845-1.318l-1.582-1.581l-1.582-1.582l-1.055-1.845l-1.055-1.846l-0.79-2.108
	l-0.264-2.109l-0.264-2.372H65.374z"/>
<path fill="#999999" d="M65.374,34.008l-5.271,8.963l-1.055-0.791l-1.055-0.791l-1.054-1.055l-0.527-1.055l-0.791-1.317
	l-0.526-1.318l-0.264-1.318v-1.317H65.374z"/>
<path fill="none" stroke="#000000" stroke-width="2" d="M34.005,88.047l-3.427-2.108l-3.427-2.373l-3.163-2.636l-2.899-2.899
	l-2.636-2.899l-2.636-3.164l-2.373-3.427l-2.109-3.427L9.49,61.687l-1.845-3.69l-1.318-3.954l-1.318-3.69l-0.791-3.954L3.427,42.18
	l-0.264-3.954L2.9,34.008"/>
<path fill="#7F7F7F" d="M65.374,34.008l-2.108,3.427l-0.79-0.791l-0.527-0.791l-0.264-0.79l-0.264-1.055H65.374z"/>
<path fill="#7F7F7F" d="M61.157,103.6L34.005,88.047l31.369-54.039l26.889,15.553L61.157,103.6z"/>
<path fill="#999999" d="M63.003,100.173L36.114,84.62l27.415-47.449l26.888,15.553L63.003,100.173z"/>
<path fill="#B2B2B2" d="M66.429,94.374L39.277,78.822l20.825-35.851l26.889,15.553L66.429,94.374z"/>
<path fill="#CCCCCC" d="M69.593,88.838L42.441,73.285l14.499-24.779l26.888,15.553L69.593,88.838z"/>
<path fill="#E5E5E5" d="M71.965,84.62L45.077,69.068l9.227-16.08L81.191,68.54L71.965,84.62z"/>
<path fill="#FFFFFF" d="M74.864,79.875L47.713,64.323l3.954-6.59l26.889,15.553L74.864,79.875z"/>
<path fill="none" stroke="#000000" stroke-width="2" d="M92.263,49.561L65.374,34.008"/>
<path fill="none" stroke="#000000" stroke-width="2" d="M34.005,88.047L61.157,103.6"/>
</svg>
