<?xml version="1.0" encoding="utf-8"?>
<!-- Generator: Adobe Illustrator 14.0.0, SVG Export Plug-In . SVG Version: 6.00 Build 43363)  -->
<!DOCTYPE svg PUBLIC "-//W3C//DTD SVG 1.1//EN" "http://www.w3.org/Graphics/SVG/1.1/DTD/svg11.dtd">
<svg version="1.1" id="图层_1" xmlns="http://www.w3.org/2000/svg" xmlns:xlink="http://www.w3.org/1999/xlink" x="0px" y="0px"
	 width="119.419px" height="106.502px" viewBox="0 0 119.419 106.502" enable-background="new 0 0 119.419 106.502"
	 xml:space="preserve">
<path fill="#7F7F7F" d="M38.18,3.158H3.158v70.044H38.18V3.158z"/>
<path fill="#999999" d="M38.18,7.464H3.158v61.433H38.18V7.464z"/>
<path fill="#B2B2B2" d="M38.18,14.928H3.158v46.505H38.18V14.928z"/>
<path fill="#CCCCCC" d="M38.18,22.105H3.158v32.151H38.18V22.105z"/>
<path fill="#E5E5E5" d="M38.18,27.846H3.158v20.382H38.18V27.846z"/>
<path fill="#FFFFFF" d="M38.18,33.874H3.158v8.612H38.18V33.874z"/>
<path fill="none" stroke="#000000" stroke-width="2" d="M38.18,73.202H3.158"/>
<path fill="none" stroke="#000000" stroke-width="2" d="M3.158,3.158H38.18"/>
<path fill="#7F7F7F" d="M38.18,72.915L99.038,38.18l-2.584-4.019l-2.583-3.731L91,26.985l-3.157-3.444l-3.445-3.158l-3.444-2.87
	l-3.731-2.584l-3.732-2.297l-4.307-2.296l-4.018-1.723L60.858,6.89l-4.306-1.148l-4.593-1.147l-4.593-0.861l-4.593-0.287
	L38.18,3.158V72.915z"/>
<path fill="#999999" d="M38.18,72.915L95.018,40.19l-2.296-3.731l-2.583-3.445l-2.584-3.157l-2.871-3.158l-3.158-2.87l-3.444-2.584
	l-3.444-2.584l-3.732-2.296l-3.731-2.01l-3.731-1.723l-4.02-1.435l-4.306-1.436L51.098,8.9l-4.306-0.861l-4.306-0.287L38.18,7.464
	V72.915z"/>
<path fill="#B2B2B2" d="M38.18,72.915l50.524-28.994l-2.01-3.157l-2.297-3.158l-2.297-2.87l-2.583-2.871l-2.87-2.583l-2.871-2.584
	l-3.158-2.01l-3.157-2.009l-3.444-2.01l-3.445-1.436l-3.445-1.435l-3.732-1.148l-3.732-0.861l-3.731-0.574l-4.019-0.574H38.18
	V72.915z"/>
<path fill="#CCCCCC" d="M38.18,72.915l44.208-25.262l-3.731-5.741l-4.306-4.88l-5.168-4.307l-5.453-3.731L57.7,26.123l-6.315-2.296
	l-6.603-1.148l-6.603-0.574V72.915z"/>
<path fill="#E5E5E5" d="M38.18,72.915l39.329-22.392l-3.445-4.88l-3.732-4.593l-4.593-3.732l-4.88-3.444l-5.167-2.584l-5.742-1.722
	l-5.741-1.436l-6.028-0.287V72.915z"/>
<path fill="#FFFFFF" d="M38.18,72.915L72.34,53.395l-2.871-4.306l-3.444-4.02l-3.731-3.157l-4.306-2.871l-4.593-2.296l-4.88-1.723
	l-5.167-1.148l-5.167-0.287V72.915z"/>
<path fill="#E5E5E5" d="M38.18,72.915L64.877,57.7l-2.297-3.157l-2.584-3.158l-3.158-2.583l-3.158-2.297l-3.732-1.723l-3.732-1.148
	l-4.019-0.86l-4.019-0.287V72.915z"/>
<path fill="#CCCCCC" d="M38.18,72.915l21.53-12.344l-1.722-2.584l-2.296-2.583l-2.297-2.01l-2.583-1.723l-3.158-1.436l-2.871-1.147
	l-3.158-0.574l-3.445-0.287V72.915z"/>
<path fill="#B2B2B2" d="M38.18,72.915l16.363-9.474l-1.436-2.009l-1.435-2.01l-2.01-1.436l-2.009-1.436l-2.009-1.147l-2.584-0.861
	l-2.296-0.287l-2.583-0.287V72.915z"/>
<path fill="#999999" d="M38.18,72.915l10.334-5.741l-0.861-1.148l-1.148-1.148l-1.148-1.148l-1.148-0.861l-1.435-0.573l-1.436-0.574
	l-1.436-0.287H38.18V72.915z"/>
<path fill="none" stroke="#000000" stroke-width="2" d="M99.038,38.18l-2.584-4.019l-2.583-3.731L91,26.985l-3.157-3.444
	l-3.445-3.158l-3.444-2.87l-3.731-2.584l-3.732-2.297l-4.307-2.296l-4.018-1.723L60.858,6.89l-4.306-1.148l-4.593-1.147
	l-4.593-0.861l-4.593-0.287L38.18,3.158"/>
<path fill="#7F7F7F" d="M38.18,72.915l4.019-2.01l-0.861-0.861l-0.861-0.861l-1.148-0.286L38.18,68.61V72.915z"/>
<path fill="#7F7F7F" d="M116.262,68.323L98.75,38.18L38.18,73.202l17.511,30.142L116.262,68.323z"/>
<path fill="#999999" d="M112.53,70.618L95.018,40.19L41.912,70.906l17.511,30.429L112.53,70.618z"/>
<path fill="#B2B2B2" d="M106.214,74.351l-17.511-30.43L48.227,67.174l17.511,30.429L106.214,74.351z"/>
<path fill="#CCCCCC" d="M99.899,77.795L82.387,47.654L54.542,63.729l17.511,30.143L99.899,77.795z"/>
<path fill="#E5E5E5" d="M95.018,80.666l-17.51-30.143L59.709,60.572L77.221,91L95.018,80.666z"/>
<path fill="#FFFFFF" d="M89.852,83.823L72.34,53.395L64.877,57.7l17.51,30.43L89.852,83.823z"/>
<path fill="none" stroke="#000000" stroke-width="2" d="M55.691,103.344L38.18,73.202"/>
<path fill="none" stroke="#000000" stroke-width="2" d="M98.75,38.18l17.512,30.143"/>
</svg>
