<?xml version="1.0" encoding="utf-8"?>
<!-- Generator: Adobe Illustrator 14.0.0, SVG Export Plug-In . SVG Version: 6.00 Build 43363)  -->
<!DOCTYPE svg PUBLIC "-//W3C//DTD SVG 1.1//EN" "http://www.w3.org/Graphics/SVG/1.1/DTD/svg11.dtd">
<svg version="1.1" id="图层_1" xmlns="http://www.w3.org/2000/svg" xmlns:xlink="http://www.w3.org/1999/xlink" x="0px" y="0px"
	 width="119.189px" height="106.502px" viewBox="0 0 119.189 106.502" enable-background="new 0 0 119.189 106.502"
	 xml:space="preserve">
<path fill="#7F7F7F" d="M38.058,103.257H3.246v-69.92h34.813V103.257z"/>
<path fill="#999999" d="M38.058,98.832H3.246V37.763h34.813V98.832z"/>
<path fill="#B2B2B2" d="M38.058,91.456H3.246V45.138h34.813V91.456z"/>
<path fill="#CCCCCC" d="M38.058,84.376H3.246V52.219h34.813V84.376z"/>
<path fill="#E5E5E5" d="M38.058,78.771H3.246V58.119h34.813V78.771z"/>
<path fill="#FFFFFF" d="M38.058,72.575H3.246V64.02h34.813V72.575z"/>
<path fill="none" stroke="#000000" stroke-width="2" d="M38.058,33.337H3.246"/>
<path fill="none" stroke="#000000" stroke-width="2" d="M3.246,103.257h34.813"/>
<path fill="#7F7F7F" d="M38.058,33.632l60.479,34.813l-2.361,3.836l-2.654,3.835l-2.95,3.54l-3.245,3.245l-3.246,2.95l-3.539,2.95
	L77,91.456l-3.835,2.36l-4.13,2.065l-4.131,2.064l-4.131,1.476l-4.425,1.475l-4.425,0.886l-4.72,0.885l-4.425,0.295l-4.72,0.295
	V33.632z"/>
<path fill="#999999" d="M38.058,33.632l56.644,32.452l-2.359,3.541l-2.361,3.54l-2.654,3.245l-2.951,3.245l-2.949,2.95l-3.541,2.655
	l-3.244,2.36l-3.836,2.36l-3.54,2.064l-4.13,1.771l-3.836,1.475l-4.13,1.181l-4.13,1.18l-4.425,0.59l-4.13,0.591h-4.425V33.632z"/>
<path fill="#B2B2B2" d="M38.058,33.632l50.448,28.912l-2.064,3.245l-2.066,2.95l-2.359,2.95l-2.655,2.95l-2.95,2.655l-2.95,2.36
	l-2.95,2.065l-3.245,2.064l-3.245,1.771l-3.541,1.476l-3.54,1.475l-3.835,1.18l-3.541,0.886l-3.835,0.59l-3.835,0.59h-3.835V33.632z
	"/>
<path fill="#CCCCCC" d="M38.058,33.632l44.253,25.372l-3.836,5.605l-4.13,4.721l-5.015,4.425l-5.605,3.54l-5.901,2.95l-6.49,2.36
	l-6.491,1.18l-6.785,0.591V33.632z"/>
<path fill="#E5E5E5" d="M38.058,33.632l39.237,22.422L74.05,61.07l-3.835,4.425L65.79,69.33l-5.016,3.245l-5.31,2.359L49.859,77
	l-5.9,1.181l-5.9,0.295V33.632z"/>
<path fill="#FFFFFF" d="M38.058,33.632L72.28,53.104l-2.949,4.425l-3.246,3.836l-4.13,3.245l-4.13,2.95l-4.72,2.36l-4.72,1.475
	l-5.016,1.181l-5.31,0.295V33.632z"/>
<path fill="#E5E5E5" d="M38.058,33.632L64.61,48.678l-2.36,3.246l-2.36,3.245l-3.246,2.655l-3.245,2.064l-3.54,1.771l-3.835,1.18
	l-3.835,0.886l-4.13,0.295V33.632z"/>
<path fill="#CCCCCC" d="M38.058,33.632l21.536,12.392l-1.77,2.654l-2.36,2.36l-2.36,2.065l-2.655,1.771l-2.95,1.475l-2.95,0.885
	l-3.245,0.591l-3.245,0.295V33.632z"/>
<path fill="#B2B2B2" d="M38.058,33.632l16.521,9.441l-1.475,2.064l-1.475,1.771l-1.77,1.475l-2.065,1.476l-2.36,1.18l-2.36,0.886
	l-2.36,0.295l-2.655,0.295V33.632z"/>
<path fill="#999999" d="M38.058,33.632l10.326,5.605l-0.885,1.181l-0.885,1.18l-1.18,1.18l-1.475,0.591l-1.475,0.885l-1.475,0.59
	l-1.475,0.295h-1.475V33.632z"/>
<path fill="none" stroke="#000000" stroke-width="2" d="M98.538,68.445l-2.361,3.836l-2.654,3.835l-2.95,3.54l-3.245,3.245
	l-3.246,2.95l-3.539,2.95L77,91.456l-3.835,2.36l-4.13,2.065l-4.131,2.064l-4.131,1.476l-4.425,1.475l-4.425,0.886l-4.72,0.885
	l-4.425,0.295l-4.72,0.295"/>
<path fill="#7F7F7F" d="M38.058,33.632l3.835,2.065l-0.59,0.885l-0.885,0.886l-1.18,0.295l-1.18,0.295V33.632z"/>
<path fill="#7F7F7F" d="M115.944,38.353L98.538,68.445L38.058,33.632L55.464,3.245L115.944,38.353z"/>
<path fill="#999999" d="M112.403,35.992L94.702,66.38L41.598,35.698L59.299,5.311L112.403,35.992z"/>
<path fill="#B2B2B2" d="M105.913,32.452L88.211,62.544L48.088,39.238L65.495,9.146L105.913,32.452z"/>
<path fill="#CCCCCC" d="M99.717,28.617L82.311,59.004L54.284,42.778L71.69,12.686L99.717,28.617z"/>
<path fill="#E5E5E5" d="M94.702,25.962L77.295,56.054L59.594,45.728L77,15.636L94.702,25.962z"/>
<path fill="#FFFFFF" d="M89.391,23.012L71.985,53.104l-7.375-4.426l17.406-30.092L89.391,23.012z"/>
<path fill="none" stroke="#000000" stroke-width="2" d="M55.464,3.245L38.058,33.632"/>
<path fill="none" stroke="#000000" stroke-width="2" d="M98.538,68.445l17.406-30.092"/>
</svg>
