<?xml version="1.0" encoding="utf-8"?>
<!-- Generator: Adobe Illustrator 14.0.0, SVG Export Plug-In . SVG Version: 6.00 Build 43363)  -->
<!DOCTYPE svg PUBLIC "-//W3C//DTD SVG 1.1//EN" "http://www.w3.org/Graphics/SVG/1.1/DTD/svg11.dtd">
<svg version="1.1" id="图层_1" xmlns="http://www.w3.org/2000/svg" xmlns:xlink="http://www.w3.org/1999/xlink" x="0px" y="0px"
	 width="119.189px" height="106.502px" viewBox="0 0 119.189 106.502" enable-background="new 0 0 119.189 106.502"
	 xml:space="preserve">
<path fill="#7F7F7F" d="M81.131,3.245h34.813v69.92H81.131V3.245z"/>
<path fill="#999999" d="M81.131,7.375h34.813V68.74H81.131V7.375z"/>
<path fill="#B2B2B2" d="M81.131,15.046h34.813v46.318H81.131V15.046z"/>
<path fill="#CCCCCC" d="M81.131,22.126h34.813v32.157H81.131V22.126z"/>
<path fill="#E5E5E5" d="M81.131,27.732h34.813v20.651H81.131V27.732z"/>
<path fill="#FFFFFF" d="M81.131,33.927h34.813v8.556H81.131V33.927z"/>
<path fill="none" stroke="#000000" stroke-width="2" d="M81.131,73.165h34.813"/>
<path fill="none" stroke="#000000" stroke-width="2" d="M115.944,3.245H81.131"/>
<path fill="#7F7F7F" d="M81.131,72.87L20.652,38.058l2.36-3.836l2.655-3.835l2.95-3.54l3.245-3.245l3.246-2.95l3.54-2.95l3.54-2.655
	l3.835-2.36l4.13-2.065l4.13-2.064l4.13-1.476l4.426-1.475l4.425-0.886l4.72-0.885l4.426-0.295l4.721-0.295V72.87z"/>
<path fill="#999999" d="M81.131,72.87L24.487,40.123l2.36-3.541l2.36-3.54l2.655-3.245l2.95-2.95l3.246-2.95l3.245-2.655l3.54-2.655
	l3.541-2.065l3.835-2.064l3.835-1.771l3.835-1.475l4.13-1.181l4.13-1.18l4.425-0.59l4.131-0.591h4.426V72.87z"/>
<path fill="#B2B2B2" d="M81.131,72.87L30.683,43.958l2.065-3.245l2.36-2.95l2.36-2.95l2.655-2.95l2.655-2.655l2.95-2.36l2.95-2.065
	l3.245-2.064l3.541-1.771l3.245-1.476l3.54-1.475l3.835-1.18l3.541-0.886l3.835-0.59l3.835-0.59h3.836V72.87z"/>
<path fill="#CCCCCC" d="M81.131,72.87L36.878,47.498l3.835-5.605l4.425-5.016l5.016-4.425l5.605-3.54l5.9-2.95l6.195-2.065
	l6.49-1.18l6.786-0.591V72.87z"/>
<path fill="#E5E5E5" d="M81.131,72.87L41.893,50.448l3.245-5.016l4.13-4.425l4.425-3.835l4.721-3.246l5.311-2.655l5.605-2.064
	l5.9-1.181l5.9-0.295V72.87z"/>
<path fill="#FFFFFF" d="M81.131,72.87L47.204,53.399l2.95-4.425l3.245-3.836l3.835-3.245l4.425-2.95l4.425-2.36l4.721-1.475
	l5.311-1.181l5.016-0.295V72.87z"/>
<path fill="#E5E5E5" d="M81.131,72.87L54.579,57.529l2.36-3.245l2.36-2.95l3.245-2.655l3.245-2.064l3.541-1.771l3.835-1.18
	L77,42.778l4.131-0.295V72.87z"/>
<path fill="#CCCCCC" d="M81.131,72.87L59.594,60.479l1.771-2.654l2.36-2.36l2.359-2.065l2.656-1.771l2.949-1.475l2.951-1.18
	l3.244-0.591l3.246-0.295V72.87z"/>
<path fill="#B2B2B2" d="M81.131,72.87L64.61,63.429l1.475-2.064l1.771-1.771l1.771-1.475l2.064-1.476l2.065-1.18l2.36-0.886
	l2.359-0.295l2.656-0.295V72.87z"/>
<path fill="#999999" d="M81.131,72.87L71.1,66.97l0.885-1.181l0.885-1.18l1.181-0.885l1.181-0.886l1.475-0.59l1.475-0.59
	l1.476-0.295h1.476V72.87z"/>
<path fill="none" stroke="#000000" stroke-width="2" d="M20.652,38.058l2.36-3.836l2.655-3.835l2.95-3.54l3.245-3.245l3.246-2.95
	l3.54-2.95l3.54-2.655l3.835-2.36l4.13-2.065l4.13-2.064l4.13-1.476l4.426-1.475l4.425-0.886l4.72-0.885l4.426-0.295l4.721-0.295"/>
<path fill="#7F7F7F" d="M81.131,72.87l-3.836-2.065l0.885-0.885l0.886-0.886l0.885-0.295l1.181-0.295V72.87z"/>
<path fill="#7F7F7F" d="M3.246,68.15l17.406-30.092L81.131,72.87l-17.406,30.387L3.246,68.15z"/>
<path fill="#999999" d="M7.081,70.51l17.406-30.387L77.59,70.805l-17.406,30.092L7.081,70.51z"/>
<path fill="#B2B2B2" d="M13.571,74.05l17.406-30.092L71.1,67.265L53.694,97.357L13.571,74.05z"/>
<path fill="#CCCCCC" d="M19.767,77.59l17.406-30.092l27.732,15.931L47.499,93.817L19.767,77.59z"/>
<path fill="#E5E5E5" d="M24.487,80.54l17.406-30.092l17.997,10.03L42.483,90.866L24.487,80.54z"/>
<path fill="#FFFFFF" d="M29.797,83.49l17.406-30.092l7.375,4.13L37.173,87.916L29.797,83.49z"/>
<path fill="none" stroke="#000000" stroke-width="2" d="M63.725,103.257L81.131,72.87"/>
<path fill="none" stroke="#000000" stroke-width="2" d="M20.652,38.058L3.246,68.15"/>
</svg>
