<?xml version="1.0" encoding="utf-8"?>
<!-- Generator: Adobe Illustrator 14.0.0, SVG Export Plug-In . SVG Version: 6.00 Build 43363)  -->
<!DOCTYPE svg PUBLIC "-//W3C//DTD SVG 1.1//EN" "http://www.w3.org/Graphics/SVG/1.1/DTD/svg11.dtd">
<svg version="1.1" id="图层_1" xmlns="http://www.w3.org/2000/svg" xmlns:xlink="http://www.w3.org/1999/xlink" x="0px" y="0px"
	 width="95.32px" height="106.502px" viewBox="0 0 95.32 106.502" enable-background="new 0 0 95.32 106.502" xml:space="preserve">
<path fill="#7F7F7F" d="M92.392,72.422v31.151H30.087V72.422H92.392z"/>
<path fill="#999999" d="M88.664,72.422v31.151H33.815V72.422H88.664z"/>
<path fill="#B2B2B2" d="M82.008,72.422v31.151H40.205V72.422H82.008z"/>
<path fill="#CCCCCC" d="M75.617,72.422v31.151H46.862V72.422H75.617z"/>
<path fill="#E5E5E5" d="M70.559,72.422v31.151H52.187V72.422H70.559z"/>
<path fill="#FFFFFF" d="M64.967,72.422v31.151h-7.455V72.422H64.967z"/>
<path fill="none" stroke="#000000" stroke-width="2" d="M30.087,72.422v31.151"/>
<path fill="none" stroke="#000000" stroke-width="2" d="M92.392,103.573V72.422"/>
<path fill="#7F7F7F" d="M30.087,72.422l31.152-54.051l3.462,2.131l3.195,2.396l3.194,2.663l2.929,2.662l2.93,3.195l2.396,2.929
	l2.396,3.462l2.13,3.461l1.863,3.461l1.864,3.728l1.331,3.728l1.332,3.994l0.799,3.994l0.799,3.994l0.266,3.993l0.267,4.261H30.087z
	"/>
<path fill="#999999" d="M30.087,72.422l29.288-50.589l3.195,2.13l3.195,2.13l2.93,2.396l2.662,2.662l2.662,2.663l2.396,2.929
	l2.396,3.195l1.863,3.194l1.864,3.462l1.598,3.461l1.331,3.462l1.064,3.728l1.065,3.728l0.532,3.728l0.533,3.728v3.994H30.087z"/>
<path fill="#B2B2B2" d="M30.087,72.422l26.093-44.998l2.929,1.864l2.662,1.863l2.663,2.131l2.396,2.396l2.396,2.396l2.131,2.663
	l1.863,2.929l1.864,2.662l1.597,3.195l1.332,2.929l1.064,3.195l1.065,3.195l0.799,3.461l0.532,3.195l0.533,3.461v3.462H30.087z"/>
<path fill="#CCCCCC" d="M30.087,72.422l22.631-39.406l5.06,3.461l4.26,3.728l3.994,4.526l3.461,5.06l2.663,5.325l1.863,5.591
	l1.065,5.857l0.532,5.858H30.087z"/>
<path fill="#E5E5E5" d="M30.087,72.422l20.235-34.88l4.261,2.929l3.993,3.461l3.462,3.994l2.929,4.26l2.131,4.793l1.863,5.059
	l1.064,5.06l0.267,5.325H30.087z"/>
<path fill="#FFFFFF" d="M30.087,72.422L47.66,42.069l3.729,2.662l3.461,2.929l2.929,3.462l2.663,3.728l2.129,3.994l1.332,4.526
	l1.064,4.526l0.267,4.526H30.087z"/>
<path fill="#E5E5E5" d="M30.087,72.422l13.579-23.697l2.929,2.13l2.663,2.13l2.396,2.929l1.863,2.93l1.598,3.194l1.065,3.195
	l0.799,3.728l0.267,3.462H30.087z"/>
<path fill="#CCCCCC" d="M30.087,72.422l10.917-19.171l2.396,1.598l2.396,1.863l1.864,2.396l1.598,2.396l1.332,2.396l0.799,2.929
	l0.531,2.662l0.267,2.93H30.087z"/>
<path fill="#B2B2B2" d="M30.087,72.422l8.521-14.645l1.864,1.331l1.597,1.331l1.332,1.598l1.331,1.864l0.799,2.13l0.799,2.13
	l0.266,2.13l0.267,2.131H30.087z"/>
<path fill="#999999" d="M30.087,72.422l5.325-9.053l1.065,0.799l1.065,0.798l0.799,1.065l0.799,1.065l0.533,1.331l0.532,1.331
	l0.267,1.331v1.332H30.087z"/>
<path fill="none" stroke="#000000" stroke-width="2" d="M61.239,18.371l3.462,2.131l3.195,2.396l3.194,2.663l2.929,2.662l2.93,3.195
	l2.396,2.929l2.396,3.462l2.13,3.461l1.863,3.461l1.864,3.728l1.331,3.728l1.332,3.994l0.799,3.994l0.799,3.994l0.266,3.993
	l0.267,4.261"/>
<path fill="#7F7F7F" d="M30.087,72.422l1.864-3.462l0.799,0.799l0.799,0.799l0.266,0.799l0.267,1.065H30.087z"/>
<path fill="#7F7F7F" d="M34.348,2.929l26.892,15.442L30.087,72.688L2.929,56.979L34.348,2.929z"/>
<path fill="#999999" d="M32.218,6.124l27.157,15.709L31.951,69.227L4.793,53.783L32.218,6.124z"/>
<path fill="#B2B2B2" d="M29.022,11.982l26.892,15.709L35.146,63.635L8.254,47.926L29.022,11.982z"/>
<path fill="#CCCCCC" d="M25.828,17.573l26.891,15.443L38.341,58.044L11.45,42.335L25.828,17.573z"/>
<path fill="#E5E5E5" d="M23.165,21.833l27.157,15.709l-9.318,15.976L14.112,37.809L23.165,21.833z"/>
<path fill="#FFFFFF" d="M20.502,26.625L47.66,42.069l-3.994,6.656L16.775,33.282L20.502,26.625z"/>
<path fill="none" stroke="#000000" stroke-width="2" d="M2.929,56.979l27.158,15.709"/>
<path fill="none" stroke="#000000" stroke-width="2" d="M61.239,18.371L34.348,2.929"/>
</svg>
