<?xml version="1.0" encoding="utf-8"?>
<!-- Generator: Adobe Illustrator 14.0.0, SVG Export Plug-In . SVG Version: 6.00 Build 43363)  -->
<!DOCTYPE svg PUBLIC "-//W3C//DTD SVG 1.1//EN" "http://www.w3.org/Graphics/SVG/1.1/DTD/svg11.dtd">
<svg version="1.1" id="图层_1" xmlns="http://www.w3.org/2000/svg" xmlns:xlink="http://www.w3.org/1999/xlink" x="0px" y="0px"
	 width="119.189px" height="106.502px" viewBox="0 0 119.189 106.502" enable-background="new 0 0 119.189 106.502"
	 xml:space="preserve">
<path fill="#7F7F7F" d="M81.131,103.257h34.813v-69.92H81.131V103.257z"/>
<path fill="#999999" d="M81.131,98.832h34.813V37.763H81.131V98.832z"/>
<path fill="#B2B2B2" d="M81.131,91.456h34.813V45.138H81.131V91.456z"/>
<path fill="#CCCCCC" d="M81.131,84.376h34.813V52.219H81.131V84.376z"/>
<path fill="#E5E5E5" d="M81.131,78.771h34.813V58.119H81.131V78.771z"/>
<path fill="#FFFFFF" d="M81.131,72.575h34.813V64.02H81.131V72.575z"/>
<path fill="none" stroke="#000000" stroke-width="2" d="M81.131,33.337h34.813"/>
<path fill="none" stroke="#000000" stroke-width="2" d="M115.944,103.257H81.131"/>
<path fill="#7F7F7F" d="M81.131,33.632L20.652,68.445l2.36,3.836l2.655,3.835l2.95,3.54l3.245,3.245l3.246,2.95l3.54,2.95
	l3.54,2.655l3.835,2.36l4.13,2.065l4.13,2.064l4.13,1.476l4.426,1.475l4.425,0.886l4.72,0.885l4.426,0.295l4.721,0.295V33.632z"/>
<path fill="#999999" d="M81.131,33.632L24.487,66.084l2.36,3.541l2.36,3.54l2.655,3.245l2.95,3.245l3.246,2.95l3.245,2.655
	l3.54,2.36l3.541,2.36l3.835,2.064l3.835,1.771l3.835,1.475l4.13,1.181l4.13,1.18l4.425,0.59l4.131,0.591h4.426V33.632z"/>
<path fill="#B2B2B2" d="M81.131,33.632L30.683,62.544l2.065,3.245l2.36,2.95l2.36,2.95l2.655,2.95l2.655,2.655l2.95,2.36l2.95,2.065
	l3.245,2.064l3.541,1.771l3.245,1.476l3.54,1.475l3.835,1.18l3.541,0.886l3.835,0.59l3.835,0.59h3.836V33.632z"/>
<path fill="#CCCCCC" d="M81.131,33.632L36.878,59.004l3.835,5.605l4.425,4.721l5.016,4.425l5.311,3.54l5.9,2.95l6.49,2.36l6.49,1.18
	l6.786,0.591V33.632z"/>
<path fill="#E5E5E5" d="M81.131,33.632L41.893,56.054l3.245,5.016l3.835,4.425l4.425,3.836l5.016,3.245l5.311,2.359L69.331,77
	l5.9,1.181l5.9,0.295V33.632z"/>
<path fill="#FFFFFF" d="M81.131,33.632L46.909,53.104l2.95,4.425l3.54,3.836l3.835,3.245l4.13,2.95l4.72,2.36l4.721,1.475
	l5.016,1.181l5.311,0.295V33.632z"/>
<path fill="#E5E5E5" d="M81.131,33.632L54.579,48.678l2.36,3.246l2.36,3.245l3.245,2.655l3.245,2.064l3.541,1.771l3.835,1.18
	L77,63.725l4.131,0.295V33.632z"/>
<path fill="#CCCCCC" d="M81.131,33.632L59.594,46.024l1.771,2.654l2.36,2.36l2.359,2.065l2.656,1.771l2.949,1.475l2.951,0.885
	l3.244,0.591l3.246,0.295V33.632z"/>
<path fill="#B2B2B2" d="M81.131,33.632L64.61,43.073l1.475,2.064l1.771,1.771l1.771,1.475l2.064,1.476l2.065,1.18l2.36,0.886
	l2.359,0.295l2.656,0.295V33.632z"/>
<path fill="#999999" d="M81.131,33.632L71.1,39.238l0.885,1.181l0.885,1.18l1.181,1.18l1.181,0.591l1.475,0.885l1.475,0.59
	l1.476,0.295h1.476V33.632z"/>
<path fill="none" stroke="#000000" stroke-width="2" d="M20.652,68.445l2.36,3.836l2.655,3.835l2.95,3.54l3.245,3.245l3.246,2.95
	l3.54,2.95l3.54,2.655l3.835,2.36l4.13,2.065l4.13,2.064l4.13,1.476l4.426,1.475l4.425,0.886l4.72,0.885l4.426,0.295l4.721,0.295"/>
<path fill="#7F7F7F" d="M81.131,33.632l-3.836,2.065l0.59,0.885l0.885,0.886l1.181,0.295l1.181,0.295V33.632z"/>
<path fill="#7F7F7F" d="M3.246,38.353l17.406,30.092l60.479-34.813L63.725,3.245L3.246,38.353z"/>
<path fill="#999999" d="M7.081,35.992L24.487,66.38L77.59,35.698L60.184,5.311L7.081,35.992z"/>
<path fill="#B2B2B2" d="M13.571,32.452l17.406,30.092L71.1,39.238L53.694,9.146L13.571,32.452z"/>
<path fill="#CCCCCC" d="M19.472,28.617l17.701,30.387l27.732-16.227L47.499,12.686L19.472,28.617z"/>
<path fill="#E5E5E5" d="M24.487,25.962l17.406,30.092l17.701-10.326L42.188,15.636L24.487,25.962z"/>
<path fill="#FFFFFF" d="M29.797,23.012l17.406,30.092l7.375-4.426L37.173,18.586L29.797,23.012z"/>
<path fill="none" stroke="#000000" stroke-width="2" d="M63.725,3.245l17.406,30.387"/>
<path fill="none" stroke="#000000" stroke-width="2" d="M20.652,68.445L3.246,38.353"/>
</svg>
