<?xml version="1.0" encoding="utf-8"?>
<!-- Generator: Adobe Illustrator 14.0.0, SVG Export Plug-In . SVG Version: 6.00 Build 43363)  -->
<!DOCTYPE svg PUBLIC "-//W3C//DTD SVG 1.1//EN" "http://www.w3.org/Graphics/SVG/1.1/DTD/svg11.dtd">
<svg version="1.1" id="图层_1" xmlns="http://www.w3.org/2000/svg" xmlns:xlink="http://www.w3.org/1999/xlink" x="0px" y="0px"
	 width="95.163px" height="106.502px" viewBox="0 0 95.163 106.502" enable-background="new 0 0 95.163 106.502"
	 xml:space="preserve">
<path fill="#7F7F7F" d="M92.263,34.008V2.903H30.051v31.105H92.263z"/>
<path fill="#999999" d="M88.572,34.008V2.903H33.742v31.105H88.572z"/>
<path fill="#B2B2B2" d="M81.718,34.008V2.903H40.332v31.105H81.718z"/>
<path fill="#CCCCCC" d="M75.392,34.008V2.903H46.659v31.105H75.392z"/>
<path fill="#E5E5E5" d="M70.384,34.008V2.903H51.931v31.105H70.384z"/>
<path fill="#FFFFFF" d="M65.111,34.008V2.903h-7.646v31.105H65.111z"/>
<path fill="none" stroke="#000000" stroke-width="2" d="M30.051,34.008V2.903"/>
<path fill="none" stroke="#000000" stroke-width="2" d="M92.263,2.903v31.105"/>
<path fill="#7F7F7F" d="M30.051,34.008l31.106,54.039l3.427-2.108l3.427-2.373l3.164-2.636l2.898-2.899l2.637-2.899l2.636-3.164
	l2.372-3.427l2.109-3.427l1.846-3.427l1.845-3.69l1.318-3.954l1.317-3.69l0.791-3.954l0.791-4.218l0.264-3.954l0.264-4.218H30.051z"
	/>
<path fill="#999999" d="M30.051,34.008l29.26,50.612l3.164-2.108l3.162-2.109l2.9-2.372l2.899-2.637l2.372-2.899l2.637-2.899
	l2.109-3.163l2.108-3.163l1.581-3.428l1.846-3.427l1.318-3.427l1.055-3.69l0.791-3.69l0.79-3.954l0.264-3.69l0.264-3.954H30.051z"/>
<path fill="#B2B2B2" d="M30.051,34.008l25.833,45.077l2.899-1.846l2.637-2.108l2.636-2.109l2.636-2.372l2.373-2.373l2.109-2.636
	l1.845-2.636l1.845-2.9l1.582-3.163l1.318-2.899l1.318-3.163l1.054-3.428l0.791-3.163l0.526-3.427l0.527-3.427v-3.427H30.051z"/>
<path fill="#CCCCCC" d="M30.051,34.008l22.67,39.541l5.008-3.427l4.482-3.954l3.953-4.481l3.164-5.009l2.636-5.272l1.845-5.535
	l1.055-5.8l0.527-6.063H30.051z"/>
<path fill="#E5E5E5" d="M30.051,34.008l20.034,35.06l4.482-2.899l3.953-3.69l3.428-3.954l2.899-4.218l2.372-4.745l1.846-5.009
	l1.055-5.272l0.264-5.271H30.051z"/>
<path fill="#FFFFFF" d="M30.051,34.008l17.662,30.314l3.69-2.636l3.428-2.899l2.898-3.428l2.637-3.954l2.109-3.954l1.317-4.217
	l1.055-4.745l0.264-4.481H30.051z"/>
<path fill="#E5E5E5" d="M30.051,34.008l13.708,23.725l2.9-2.109l2.635-2.108l2.373-2.899l1.846-2.9l1.582-3.163l1.054-3.427
	l0.791-3.427l0.264-3.69H30.051z"/>
<path fill="#CCCCCC" d="M30.051,34.008l11.072,19.243l2.372-1.582l2.109-2.108l1.845-2.109l1.582-2.372l1.317-2.636l1.055-2.637
	l0.527-2.899l0.264-2.899H30.051z"/>
<path fill="#B2B2B2" d="M30.051,34.008l8.436,14.762l1.845-1.318l1.582-1.581l1.582-1.582l1.318-1.845l0.791-1.846l0.791-2.108
	l0.264-2.109l0.264-2.372H30.051z"/>
<path fill="#999999" d="M30.051,34.008l5.272,8.963l1.055-0.791l1.054-0.791l0.791-1.055l0.791-1.055l0.527-1.317l0.527-1.318
	l0.264-1.318v-1.317H30.051z"/>
<path fill="none" stroke="#000000" stroke-width="2" d="M61.157,88.047l3.427-2.108l3.427-2.373l3.164-2.636l2.898-2.899
	l2.637-2.899l2.636-3.164l2.372-3.427l2.109-3.427l1.846-3.427l1.845-3.69l1.318-3.954l1.317-3.69l0.791-3.954l0.791-4.218
	l0.264-3.954l0.264-4.218"/>
<path fill="#7F7F7F" d="M30.051,34.008l1.845,3.427l0.791-0.791l0.791-0.791l0.264-0.79l0.264-1.055H30.051z"/>
<path fill="#7F7F7F" d="M34.269,103.6l26.888-15.553L30.051,34.008L2.9,49.561L34.269,103.6z"/>
<path fill="#999999" d="M32.424,100.173L59.312,84.62L31.896,37.171L5.009,52.724L32.424,100.173z"/>
<path fill="#B2B2B2" d="M28.997,94.374l26.888-15.553L35.06,42.971L8.172,58.524L28.997,94.374z"/>
<path fill="#CCCCCC" d="M25.833,88.838l26.888-15.553L38.487,48.506L11.335,64.059L25.833,88.838z"/>
<path fill="#E5E5E5" d="M23.197,84.62l27.151-15.553l-9.226-16.08L13.971,68.54L23.197,84.62z"/>
<path fill="#FFFFFF" d="M20.562,79.875l26.888-15.553l-3.69-6.59L16.607,73.285L20.562,79.875z"/>
<path fill="none" stroke="#000000" stroke-width="2" d="M2.9,49.561l27.151-15.553"/>
<path fill="none" stroke="#000000" stroke-width="2" d="M61.157,88.047L34.269,103.6"/>
</svg>
