<?xml version="1.0" encoding="utf-8"?>
<!-- Generator: Adobe Illustrator 14.0.0, SVG Export Plug-In . SVG Version: 6.00 Build 43363)  -->
<!DOCTYPE svg PUBLIC "-//W3C//DTD SVG 1.1//EN" "http://www.w3.org/Graphics/SVG/1.1/DTD/svg11.dtd">
<svg version="1.1" id="图层_1" xmlns="http://www.w3.org/2000/svg" xmlns:xlink="http://www.w3.org/1999/xlink" x="0px" y="0px"
	 width="95.32px" height="106.502px" viewBox="0 0 95.32 106.502" enable-background="new 0 0 95.32 106.502" xml:space="preserve">
<path fill="#7F7F7F" d="M2.929,72.422v31.151H65.5V72.422H2.929z"/>
<path fill="#999999" d="M6.923,72.422v31.151h54.848V72.422H6.923z"/>
<path fill="#B2B2B2" d="M13.58,72.422v31.151h41.536V72.422H13.58z"/>
<path fill="#CCCCCC" d="M19.97,72.422v31.151h28.756V72.422H19.97z"/>
<path fill="#E5E5E5" d="M25.029,72.422v31.151H43.4V72.422H25.029z"/>
<path fill="#FFFFFF" d="M30.354,72.422v31.151h7.722V72.422H30.354z"/>
<path fill="none" stroke="#000000" stroke-width="2" d="M65.5,72.422v31.151"/>
<path fill="none" stroke="#000000" stroke-width="2" d="M2.929,103.573V72.422"/>
<path fill="#7F7F7F" d="M65.233,72.422L34.082,18.371l-3.461,2.131l-3.195,2.396l-3.195,2.663l-2.929,2.662l-2.929,3.195
	l-2.396,2.929l-2.396,3.462l-2.13,3.461l-1.864,3.461l-1.864,3.728l-1.332,3.728L5.06,56.18l-0.799,3.994l-0.799,3.994l-0.266,3.993
	l-0.267,4.261H65.233z"/>
<path fill="#999999" d="M65.233,72.422L36.211,21.833l-3.195,2.13l-3.195,2.13l-2.929,2.396l-2.663,2.662l-2.663,2.663l-2.396,2.929
	l-2.396,3.195l-1.864,3.194l-1.864,3.462l-1.598,3.461l-1.332,3.462l-1.065,3.728l-1.065,3.728L7.456,64.7l-0.532,3.728v3.994
	H65.233z"/>
<path fill="#B2B2B2" d="M65.233,72.422L39.406,27.424l-2.929,1.864l-2.663,1.863l-2.663,2.131l-2.663,2.396l-2.13,2.396l-2.13,2.663
	l-2.13,2.929l-1.597,2.662l-1.864,3.195l-1.332,2.929l-1.065,3.195l-1.065,3.195l-0.799,3.461l-0.533,3.195l-0.532,3.461v3.462
	H65.233z"/>
<path fill="#CCCCCC" d="M65.233,72.422L42.602,33.016l-5.059,3.461l-4.26,3.728l-3.994,4.526l-3.195,5.06l-2.663,5.325l-1.864,5.591
	l-1.065,5.857l-0.533,5.858H65.233z"/>
<path fill="#E5E5E5" d="M65.233,72.422l-19.969-34.88l-4.26,2.929l-3.994,3.461l-3.461,3.994l-2.929,4.26l-2.396,4.793l-1.864,5.059
	l-1.065,5.06l-0.266,5.325H65.233z"/>
<path fill="#FFFFFF" d="M65.233,72.422L47.927,42.069l-3.994,2.662l-3.461,2.929l-2.929,3.462l-2.396,3.728l-2.13,3.994
	l-1.331,4.526l-1.065,4.526l-0.267,4.526H65.233z"/>
<path fill="#E5E5E5" d="M65.233,72.422L51.654,48.725l-2.929,2.13l-2.663,2.13l-2.396,2.929l-1.864,2.93l-1.598,3.194l-1.065,3.195
	l-0.799,3.728l-0.266,3.462H65.233z"/>
<path fill="#CCCCCC" d="M65.233,72.422L54.316,53.251l-2.396,1.598l-2.129,1.863l-1.864,2.396l-1.598,2.396l-1.331,2.396
	l-0.799,2.929l-0.533,2.662l-0.266,2.93H65.233z"/>
<path fill="#B2B2B2" d="M65.233,72.422l-8.254-14.645l-1.864,1.331l-1.598,1.331l-1.598,1.598l-1.064,1.864l-1.064,2.13l-0.799,2.13
	l-0.267,2.13l-0.267,2.131H65.233z"/>
<path fill="#999999" d="M65.233,72.422l-5.06-9.053l-1.064,0.799l-1.064,0.798l-1.065,1.065l-0.532,1.065l-0.799,1.331l-0.533,1.331
	L54.85,71.09v1.332H65.233z"/>
<path fill="none" stroke="#000000" stroke-width="2" d="M34.082,18.371l-3.461,2.131l-3.195,2.396l-3.195,2.663l-2.929,2.662
	l-2.929,3.195l-2.396,2.929l-2.396,3.462l-2.13,3.461l-1.864,3.461l-1.864,3.728l-1.332,3.728L5.06,56.18l-0.799,3.994l-0.799,3.994
	l-0.266,3.993l-0.267,4.261"/>
<path fill="#7F7F7F" d="M65.233,72.422l-1.864-3.462l-0.799,0.799l-0.532,0.799l-0.267,0.799l-0.266,1.065H65.233z"/>
<path fill="#7F7F7F" d="M61.239,2.929L34.082,18.371L65.5,72.688l26.892-15.709L61.239,2.929z"/>
<path fill="#999999" d="M63.104,6.124L36.211,21.833l27.424,47.394l26.892-15.443L63.104,6.124z"/>
<path fill="#B2B2B2" d="M66.564,11.982L39.406,27.691l20.768,35.944l27.158-15.709L66.564,11.982z"/>
<path fill="#CCCCCC" d="M69.76,17.573L42.602,33.016l14.378,25.028l26.892-15.709L69.76,17.573z"/>
<path fill="#E5E5E5" d="M72.156,21.833L45.264,37.542l9.052,15.976l27.158-15.709L72.156,21.833z"/>
<path fill="#FFFFFF" d="M74.818,26.625L47.927,42.069l3.728,6.656l27.158-15.442L74.818,26.625z"/>
<path fill="none" stroke="#000000" stroke-width="2" d="M92.392,56.979L65.5,72.688"/>
<path fill="none" stroke="#000000" stroke-width="2" d="M34.082,18.371L61.239,2.929"/>
</svg>
