<?xml version="1.0" encoding="utf-8"?>
<!-- Generator: Adobe Illustrator 14.0.0, SVG Export Plug-In . SVG Version: 6.00 Build 43363)  -->
<!DOCTYPE svg PUBLIC "-//W3C//DTD SVG 1.1//EN" "http://www.w3.org/Graphics/SVG/1.1/DTD/svg11.dtd">
<svg version="1.1" id="图层_1" xmlns="http://www.w3.org/2000/svg" xmlns:xlink="http://www.w3.org/1999/xlink" x="0px" y="0px"
	 width="89.979px" height="106.502px" viewBox="0 0 89.979 106.502" enable-background="new 0 0 89.979 106.502"
	 xml:space="preserve">
<path fill="#7F7F7F" d="M2.985,80.916L47.974,2.985L86.993,25.48L41.897,103.41L2.985,80.916z"/>
<path fill="#999999" d="M5.331,82.302L50.427,4.371l34.114,19.723l-44.988,77.931L5.331,82.302z"/>
<path fill="#B2B2B2" d="M9.595,84.754L54.584,6.823L80.49,21.855L35.501,99.573L9.595,84.754z"/>
<path fill="#CCCCCC" d="M13.433,86.993L58.422,8.955l18.124,10.447L31.45,97.441L13.433,86.993z"/>
<path fill="#E5E5E5" d="M16.632,88.805L61.62,10.981l11.514,6.396L28.039,95.415L16.632,88.805z"/>
<path fill="#FFFFFF" d="M20.043,90.724l44.989-77.931l4.797,2.878L24.841,93.603L20.043,90.724z"/>
<path fill="none" stroke="#000000" stroke-width="2" d="M41.897,103.41L86.993,25.48"/>
<path fill="none" stroke="#000000" stroke-width="2" d="M47.974,2.985L2.985,80.916"/>
</svg>
