<?xml version="1.0" encoding="utf-8"?>
<!-- Generator: Adobe Illustrator 14.0.0, SVG Export Plug-In . SVG Version: 6.00 Build 43363)  -->
<!DOCTYPE svg PUBLIC "-//W3C//DTD SVG 1.1//EN" "http://www.w3.org/Graphics/SVG/1.1/DTD/svg11.dtd">
<svg version="1.1" id="图层_1" xmlns="http://www.w3.org/2000/svg" xmlns:xlink="http://www.w3.org/1999/xlink" x="0px" y="0px"
	 width="74.088px" height="106.502px" viewBox="0 0 74.088 106.502" enable-background="new 0 0 74.088 106.502"
	 xml:space="preserve">
<path fill="#7F7F7F" d="M2.985,94.559l52.874-91.57l15.244,8.848l-52.874,91.571L2.985,94.559z"/>
<path fill="#999999" d="M3.731,95.198L56.818,3.522l13.219,7.675l-52.768,91.678L3.731,95.198z"/>
<path fill="#B2B2B2" d="M5.33,96.158L58.418,4.374l10.021,6.076l-52.768,91.571L5.33,96.158z"/>
<path fill="#CCCCCC" d="M6.929,97.011L60.016,5.334l6.822,4.051l-52.874,91.677L6.929,97.011z"/>
<path fill="#E5E5E5" d="M8.209,97.757l52.98-91.783l4.478,2.665l-52.875,91.57L8.209,97.757z"/>
<path fill="#FFFFFF" d="M9.594,98.397l52.874-91.57l2.025,1.173L11.406,99.57L9.594,98.397z"/>
<path fill="none" stroke="#000000" stroke-width="2" d="M18.229,103.407l52.874-91.571"/>
<path fill="none" stroke="#000000" stroke-width="2" d="M55.859,2.989L2.985,94.559"/>
</svg>
