<?xml version="1.0" encoding="utf-8"?>
<!-- Generator: Adobe Illustrator 14.0.0, SVG Export Plug-In . SVG Version: 6.00 Build 43363)  -->
<!DOCTYPE svg PUBLIC "-//W3C//DTD SVG 1.1//EN" "http://www.w3.org/Graphics/SVG/1.1/DTD/svg11.dtd">
<svg version="1.1" id="图层_1" xmlns="http://www.w3.org/2000/svg" xmlns:xlink="http://www.w3.org/1999/xlink" x="0px" y="0px"
	 width="106.503px" height="106.502px" viewBox="0 0 106.503 106.502" enable-background="new 0 0 106.503 106.502"
	 xml:space="preserve">
<path fill="#7F7F7F" d="M3.014,61.691v41.798h50.237V61.691l0.604-3.215l1.809-2.813l2.813-1.809l3.215-0.603h41.798V3.014H61.69
	l-6.027,0.402L49.835,4.22l-5.626,1.406l-5.426,2.01l-5.023,2.411l-4.823,3.015l-4.622,3.416l-4.019,3.818l-3.818,4.019
	l-3.416,4.622l-3.014,4.822l-2.411,5.024l-2.01,5.425L4.22,49.835l-0.804,5.827L3.014,61.691z"/>
<path fill="#999999" d="M61.69,6.23l-5.626,0.2l-5.426,1.005l-5.425,1.206l-5.024,2.01l-4.823,2.21l-4.622,2.813l-4.22,3.215
	l-4.019,3.617l-3.617,3.818l-3.215,4.22l-2.813,4.622l-2.21,4.822l-2.01,5.225l-1.206,5.225L6.43,56.065l-0.201,5.626v41.798h44.007
	V61.691l0.804-4.621l2.612-3.617l3.617-2.411l4.42-1.005h41.798V6.23H61.69z"/>
<path fill="#B2B2B2" d="M61.69,11.454h41.798v33.357H61.69l-3.416,0.401l-3.014,1.005l-2.813,1.406l-2.612,2.211l-2.009,2.411
	l-1.407,2.813l-1.005,3.215l-0.402,3.416v41.798H11.454V61.691l0.201-5.225l0.804-4.822l1.206-4.823l1.809-4.621l2.009-4.421
	l2.612-4.221l2.813-3.817l3.215-3.617l3.617-3.215l3.818-2.813l4.22-2.612l4.421-2.01l4.622-1.809l4.823-1.205l4.822-0.805
	L61.69,11.454z"/>
<path fill="#CCCCCC" d="M61.69,16.679l-4.621,0.201l-4.421,0.804l-4.421,1.004l-4.019,1.608l-4.019,1.809l-3.617,2.21l-3.617,2.612
	l-3.014,2.813l-3.014,3.215l-2.612,3.617l-2.21,3.617l-1.809,4.019l-1.608,4.02l-1.004,4.421l-0.804,4.421l-0.201,4.621v41.798
	h23.109V61.691l0.402-4.421l1.407-4.22l2.009-3.817l2.613-3.216l3.215-2.612l3.818-2.009l4.02-1.407l4.42-0.401h41.798V16.679H61.69
	z"/>
<path fill="#E5E5E5" d="M61.69,20.899h41.798v14.669H61.69l-5.225,0.604l-5.023,1.406l-4.421,2.411l-3.818,3.215l-3.215,3.818
	l-2.412,4.421l-1.407,5.023l-0.603,5.225v41.798H20.898V61.691l0.201-4.22l0.603-4.019l1.005-3.818l1.407-3.818l1.809-3.616
	l2.009-3.216l2.21-3.215l2.813-3.015l2.813-2.612l3.215-2.21l3.215-2.01l3.617-1.809l3.818-1.406l3.818-1.005l4.02-0.603
	L61.69,20.899z"/>
<path fill="#FFFFFF" d="M61.69,24.917l-3.817,0.201l-3.617,0.603l-3.416,0.805l-3.416,1.205l-3.215,1.607l-3.014,1.809l-2.813,2.211
	l-2.612,2.411l-2.411,2.612l-2.01,2.813l-1.808,3.014l-1.608,3.216l-1.206,3.416l-0.804,3.416l-0.603,3.617l-0.201,3.817v41.798
	h6.229V61.691l0.603-6.229l1.809-5.626l2.813-5.225l3.617-4.421l4.622-3.617l5.023-2.813l5.828-1.809l6.027-0.603h41.798v-6.431
	H61.69z"/>
<path fill="none" stroke="#000000" stroke-width="2" d="M103.488,3.014H61.69l-6.027,0.402L49.835,4.22l-5.626,1.406l-5.426,2.01
	l-5.023,2.411l-4.823,3.015l-4.622,3.416l-4.019,3.818l-3.818,4.019l-3.416,4.622l-3.014,4.822l-2.411,5.024l-2.01,5.425
	L4.22,49.835l-0.804,5.827l-0.402,6.028v41.798"/>
<path fill="none" stroke="#000000" stroke-width="2" d="M53.251,103.489V61.691l0.201-1.607l0.402-1.607l0.803-1.406l1.006-1.407
	l1.406-1.005l1.406-0.804l1.607-0.401l1.607-0.201h41.798"/>
</svg>
