<?xml version="1.0" encoding="utf-8"?>
<!-- Generator: Adobe Illustrator 14.0.0, SVG Export Plug-In . SVG Version: 6.00 Build 43363)  -->
<!DOCTYPE svg PUBLIC "-//W3C//DTD SVG 1.1//EN" "http://www.w3.org/Graphics/SVG/1.1/DTD/svg11.dtd">
<svg version="1.1" id="图层_1" xmlns="http://www.w3.org/2000/svg" xmlns:xlink="http://www.w3.org/1999/xlink" x="0px" y="0px"
	 width="106.503px" height="106.502px" viewBox="0 0 106.503 106.502" enable-background="new 0 0 106.503 106.502"
	 xml:space="preserve">
<path fill="#7F7F7F" d="M44.812,3.014H3.014v50.237h41.797l3.215,0.603l2.813,1.809l1.809,2.813l0.603,3.215v41.798h50.237V61.691
	l-0.401-6.028l-0.805-5.827l-1.406-5.627l-2.01-5.425l-2.411-5.024l-3.015-4.822l-3.416-4.622l-3.818-4.019l-4.019-3.818
	l-4.622-3.416l-4.822-3.015L67.72,7.636l-5.426-2.01L56.667,4.22L50.84,3.416L44.812,3.014z"/>
<path fill="#999999" d="M100.272,61.691l-0.2-5.626l-1.005-5.627l-1.205-5.225l-2.01-5.225l-2.211-4.822l-2.813-4.622l-3.216-4.22
	l-3.617-3.818l-3.817-3.617l-4.221-3.215l-4.621-2.813l-4.823-2.21l-5.225-2.01l-5.225-1.206L50.438,6.43l-5.626-0.2H3.014v43.807
	h41.797l4.622,1.005l3.617,2.411l2.412,3.617l1.004,4.621v41.798h43.807V61.691z"/>
<path fill="#B2B2B2" d="M95.048,61.691v41.798H61.69V61.691l-0.401-3.416l-1.005-3.215l-1.406-2.813l-2.211-2.411l-2.411-2.211
	l-2.813-1.406l-3.215-1.005l-3.416-0.401H3.014V11.454h41.797l5.225,0.2l4.822,0.805l4.823,1.205l4.622,1.809l4.42,2.01l4.221,2.612
	l3.818,2.813l3.617,3.215l3.215,3.617l2.813,3.817l2.613,4.221l2.009,4.421l1.809,4.621l1.206,4.823l0.804,4.822L95.048,61.691z"/>
<path fill="#CCCCCC" d="M89.823,61.691l-0.201-4.621l-0.803-4.421l-1.005-4.421l-1.608-4.02l-1.809-4.019l-2.21-3.617l-2.612-3.617
	l-2.813-3.215l-3.216-2.813l-3.617-2.612l-3.616-2.21l-4.02-1.809l-4.02-1.608l-4.42-1.004l-4.421-0.804l-4.622-0.201H3.014v22.908
	h41.797l4.421,0.401l4.22,1.407l3.818,2.009l3.215,2.612l2.612,3.216l2.009,3.817l1.407,4.22l0.401,4.421v41.798h22.908V61.691z"/>
<path fill="#E5E5E5" d="M85.805,61.691v41.798H71.136V61.691l-0.604-5.225l-1.406-5.023l-2.411-4.421l-3.216-3.818l-4.019-3.215
	l-4.421-2.411l-5.023-1.406l-5.225-0.604H3.014V20.899h41.797l4.22,0.201l4.019,0.603l4.019,1.005l3.818,1.406l3.416,1.809
	l3.416,2.01l3.215,2.21l2.813,2.612l2.813,3.015l2.21,3.215l2.01,3.216l1.809,3.616l1.406,3.818l1.005,3.818l0.604,4.019
	L85.805,61.691z"/>
<path fill="#FFFFFF" d="M81.585,61.691l-0.201-3.817l-0.603-3.617l-0.804-3.416l-1.206-3.416l-1.607-3.216l-1.809-3.014l-2.21-2.813
	l-2.412-2.612l-2.611-2.411l-2.814-2.211l-3.014-1.809l-3.215-1.607l-3.416-1.205l-3.417-0.805l-3.617-0.603l-3.818-0.201H3.014
	v6.431h41.797l6.229,0.603l5.626,1.809l5.225,2.813l4.422,3.617l3.616,4.421l2.813,5.225l1.809,5.626l0.603,6.229v41.798h6.431
	V61.691z"/>
<path fill="none" stroke="#000000" stroke-width="2" d="M103.488,103.489V61.691l-0.401-6.028l-0.805-5.827l-1.406-5.627
	l-2.01-5.425l-2.411-5.024l-3.015-4.822l-3.416-4.622l-3.818-4.019l-4.019-3.818l-4.622-3.416l-4.822-3.015L67.72,7.636l-5.426-2.01
	L56.667,4.22L50.84,3.416l-6.028-0.402H3.014"/>
<path fill="none" stroke="#000000" stroke-width="2" d="M3.014,53.251h41.797l1.607,0.201l1.607,0.401l1.407,0.804l1.407,1.005
	l1.005,1.407l0.804,1.406l0.402,1.607l0.201,1.607v41.798"/>
</svg>
