<?xml version="1.0" encoding="utf-8"?>
<!-- Generator: Adobe Illustrator 14.0.0, SVG Export Plug-In . SVG Version: 6.00 Build 43363)  -->
<!DOCTYPE svg PUBLIC "-//W3C//DTD SVG 1.1//EN" "http://www.w3.org/Graphics/SVG/1.1/DTD/svg11.dtd">
<svg version="1.1" id="图层_1" xmlns="http://www.w3.org/2000/svg" xmlns:xlink="http://www.w3.org/1999/xlink" x="0px" y="0px"
	 width="106.503px" height="106.502px" viewBox="0 0 106.503 106.502" enable-background="new 0 0 106.503 106.502"
	 xml:space="preserve">
<path fill="#7F7F7F" d="M61.69,103.489h41.798V53.251H61.69l-3.215-0.603l-2.813-1.809l-1.809-2.813l-0.604-3.215V3.014H3.014
	v41.798l0.402,6.028l0.804,5.827l1.407,5.627l2.01,5.425l2.411,5.024l3.014,4.822l3.416,4.622l3.818,4.019l4.019,3.818l4.622,3.416
	l4.823,3.015l5.023,2.411l5.426,2.01l5.626,1.406l5.828,0.804L61.69,103.489z"/>
<path fill="#999999" d="M6.229,44.812l0.201,5.626l1.005,5.627l1.206,5.225l2.01,5.225l2.21,4.822l2.813,4.622l3.215,4.22
	l3.617,3.818l3.818,3.617l4.22,3.215l4.622,2.813l4.823,2.21l5.225,2.01l5.225,1.206l5.626,1.005l5.626,0.2h41.798V56.466H61.69
	l-4.621-1.005l-3.617-2.411l-2.411-3.617l-1.005-4.621V3.014H6.229V44.812z"/>
<path fill="#B2B2B2" d="M11.454,44.812V3.014h33.357v41.798l0.402,3.416l1.005,3.215l1.406,2.813l2.21,2.411l2.412,2.211
	l2.813,1.406l3.215,1.005l3.416,0.401h41.798v33.357H61.69l-5.225-0.2l-4.822-0.805l-4.823-1.205l-4.622-1.809l-4.421-2.01
	l-4.22-2.612l-3.818-2.813l-3.617-3.215l-3.215-3.617l-2.813-3.817l-2.612-4.221l-2.009-4.421l-1.809-4.621l-1.206-4.823
	l-0.804-4.822L11.454,44.812z"/>
<path fill="#CCCCCC" d="M16.679,44.812l0.201,4.621l0.804,4.421l1.004,4.421l1.608,4.02l1.809,4.019l2.21,3.617l2.612,3.617
	l3.014,3.014l3.014,3.015l3.617,2.612l3.617,2.21l4.019,1.809l4.019,1.608l4.421,1.004l4.421,0.805l4.621,0.2h41.798V66.915H61.69
	l-4.42-0.401l-4.22-1.407l-3.818-2.009l-3.215-2.612l-2.612-3.216l-2.009-3.817l-1.407-4.22l-0.402-4.421V3.014H16.679V44.812z"/>
<path fill="#E5E5E5" d="M20.898,44.812V3.014h14.669v41.798l0.603,5.225l1.407,5.023l2.412,4.421l3.215,3.818l3.818,3.416
	l4.421,2.411l5.023,1.406l5.225,0.604h41.798v14.669H61.69l-4.219-0.201l-4.02-0.603l-3.818-1.005l-3.818-1.406l-3.617-1.809
	l-3.215-2.01l-3.215-2.211l-2.813-2.813l-2.813-2.813l-2.21-3.216l-2.009-3.416l-1.809-3.416l-1.407-3.817l-1.005-4.02L21.1,49.031
	L20.898,44.812z"/>
<path fill="#FFFFFF" d="M24.917,44.812l0.201,3.817l0.603,3.617l0.804,3.416l1.206,3.416l1.607,3.216l1.809,3.014l2.21,2.813
	l2.411,2.612l2.612,2.411l2.813,2.211l3.014,1.809l3.215,1.607l3.416,1.206l3.416,0.804l3.617,0.603l3.817,0.201h41.798v-6.431
	H61.69l-6.229-0.603l-5.627-1.809L44.61,69.93l-4.421-3.617l-3.617-4.421l-2.813-5.225l-1.809-5.626l-0.603-6.229V3.014h-6.43
	V44.812z"/>
<path fill="none" stroke="#000000" stroke-width="2" d="M3.014,3.014v41.798l0.402,6.028l0.804,5.827l1.407,5.627l2.01,5.425
	l2.411,5.024l3.014,4.822l3.416,4.622l3.818,4.019l4.019,3.818l4.622,3.416l4.823,3.015l5.023,2.411l5.426,2.01l5.626,1.406
	l5.828,0.804l6.027,0.402h41.798"/>
<path fill="none" stroke="#000000" stroke-width="2" d="M103.488,53.251H61.69l-1.607-0.201l-1.607-0.401l-1.406-0.804l-1.406-1.005
	l-1.006-1.407l-0.803-1.406l-0.402-1.607l-0.201-1.607V3.014"/>
</svg>
