<?xml version="1.0" encoding="utf-8"?>
<!-- Generator: Adobe Illustrator 14.0.0, SVG Export Plug-In . SVG Version: 6.00 Build 43363)  -->
<!DOCTYPE svg PUBLIC "-//W3C//DTD SVG 1.1//EN" "http://www.w3.org/Graphics/SVG/1.1/DTD/svg11.dtd">
<svg version="1.1" id="图层_1" xmlns="http://www.w3.org/2000/svg" xmlns:xlink="http://www.w3.org/1999/xlink" x="0px" y="0px"
	 width="106.503px" height="106.502px" viewBox="0 0 106.503 106.502" enable-background="new 0 0 106.503 106.502"
	 xml:space="preserve">
<path fill="#7F7F7F" d="M103.488,44.812V3.014H53.251v41.798l-0.603,3.215L50.84,50.84l-2.813,1.809l-3.215,0.603H3.014v50.237
	h41.797l6.028-0.402l5.827-0.804l5.627-1.406l5.426-2.01l5.023-2.411l4.822-3.015l4.622-3.416l4.019-3.818l3.818-4.019l3.416-4.622
	l3.015-4.822l2.411-5.024l2.01-5.425l1.406-5.627l0.805-5.827L103.488,44.812z"/>
<path fill="#999999" d="M44.812,100.273l5.626-0.2l5.626-1.005l5.225-1.206l5.225-2.01l4.823-2.21l4.621-2.813l4.221-3.215
	l3.817-3.617l3.617-3.818l3.216-4.22l2.813-4.622l2.211-4.822l2.01-5.225l1.205-5.225l1.005-5.627l0.2-5.626V3.014H56.466v41.798
	l-1.004,4.621L53.05,53.05l-3.617,2.411l-4.622,1.005H3.014v43.807H44.812z"/>
<path fill="#B2B2B2" d="M44.812,95.048H3.014V61.691h41.797l3.416-0.401l3.215-1.005l2.813-1.406l2.411-2.211l2.211-2.411
	l1.406-2.813l1.005-3.215l0.401-3.416V3.014h33.357v41.798l-0.2,5.225l-0.804,4.822l-1.206,4.823l-1.809,4.621l-2.009,4.421
	l-2.613,4.221l-2.813,3.817l-3.215,3.617l-3.617,3.215l-3.818,2.813l-4.221,2.612l-4.42,2.01l-4.622,1.809l-4.823,1.205
	l-4.822,0.805L44.812,95.048z"/>
<path fill="#CCCCCC" d="M44.812,89.823l4.622-0.2l4.421-0.805l4.42-1.004l4.02-1.608l4.02-1.809l3.616-2.21l3.617-2.612l3.216-3.015
	l2.813-3.014l2.612-3.617l2.21-3.617l1.809-4.019l1.608-4.02l1.005-4.421l0.803-4.421l0.201-4.621V3.014H66.915v41.798l-0.401,4.421
	l-1.407,4.22l-2.009,3.817l-2.612,3.216l-3.215,2.612l-3.818,2.009l-4.22,1.407l-4.421,0.401H3.014v22.908H44.812z"/>
<path fill="#E5E5E5" d="M44.812,85.805H3.014V71.136h41.797l5.225-0.604l5.023-1.406l4.421-2.411l4.019-3.416l3.216-3.818
	l2.411-4.421l1.406-5.023l0.604-5.225V3.014h14.669v41.798l-0.2,4.22l-0.604,4.019l-1.005,4.02l-1.406,3.817l-1.809,3.416
	l-2.01,3.416l-2.21,3.216l-2.813,2.813l-2.813,2.813l-3.215,2.211l-3.416,2.01l-3.416,1.809l-3.818,1.406l-4.019,1.005l-4.019,0.603
	L44.812,85.805z"/>
<path fill="#FFFFFF" d="M44.812,81.585l3.818-0.201l3.617-0.603l3.417-0.804l3.416-1.206l3.215-1.607l3.014-1.809l2.814-2.211
	l2.611-2.411l2.412-2.612l2.21-2.813l1.809-3.014l1.607-3.216l1.206-3.416l0.804-3.416l0.603-3.617l0.201-3.817V3.014h-6.431v41.798
	l-0.603,6.229l-1.809,5.626l-2.813,5.225l-3.616,4.421l-4.422,3.617l-5.225,2.813l-5.626,1.809l-6.229,0.603H3.014v6.431H44.812z"/>
<path fill="none" stroke="#000000" stroke-width="2" d="M3.014,103.489h41.797l6.028-0.402l5.827-0.804l5.627-1.406l5.426-2.01
	l5.023-2.411l4.822-3.015l4.622-3.416l4.019-3.818l3.818-4.019l3.416-4.622l3.015-4.822l2.411-5.024l2.01-5.425l1.406-5.627
	l0.805-5.827l0.401-6.028V3.014"/>
<path fill="none" stroke="#000000" stroke-width="2" d="M53.251,3.014v41.798l-0.201,1.607l-0.402,1.607l-0.804,1.406L50.84,50.84
	l-1.407,1.005l-1.407,0.804l-1.607,0.401l-1.607,0.201H3.014"/>
</svg>
