<?xml version="1.0" encoding="utf-8"?>
<!-- Generator: Adobe Illustrator 14.0.0, SVG Export Plug-In . SVG Version: 6.00 Build 43363)  -->
<!DOCTYPE svg PUBLIC "-//W3C//DTD SVG 1.1//EN" "http://www.w3.org/Graphics/SVG/1.1/DTD/svg11.dtd">
<svg version="1.1" id="图层_1" xmlns="http://www.w3.org/2000/svg" xmlns:xlink="http://www.w3.org/1999/xlink" x="0px" y="0px"
	 width="106.301px" height="106.502px" viewBox="0 0 106.301 106.502" enable-background="new 0 0 106.301 106.502"
	 xml:space="preserve">
<path fill="#7F7F7F" d="M3.009,3.009h100.284v100.484H3.009V3.009z"/>
<path fill="#999999" d="M3.009,9.227h100.284v88.049H3.009V9.227z"/>
<path fill="#B2B2B2" d="M3.009,19.857h100.284v66.989H3.009V19.857z"/>
<path fill="#CCCCCC" d="M3.009,30.085h100.284v46.332H3.009V30.085z"/>
<path fill="#E5E5E5" d="M3.009,38.309h100.284v29.483H3.009V38.309z"/>
<path fill="#FFFFFF" d="M3.009,47.134h100.284v12.234H3.009V47.134z"/>
<path fill="none" stroke="#000000" stroke-width="2" d="M3.009,103.493h100.284"/>
<path fill="none" stroke="#000000" stroke-width="2" d="M103.293,3.009H3.009"/>
<path fill="none" stroke="#000000" stroke-width="2" d="M61.574,103.293L46.932,78.222l6.218-19.856l13.639-10.43l19.856-1.003
	l9.427-13.638l-7.221-11.433"/>
<path fill="none" stroke="#000000" stroke-width="2" d="M66.789,47.936l6.218-10.429L42.72,29.083l10.43-7.221l-3.008-3.209"/>
<path fill="none" stroke="#000000" stroke-width="2" d="M74.21,103.293l4.012-14.642l-16.647-2.006l-14.642-8.424"/>
<path fill="none" stroke="#000000" stroke-width="2" d="M51.144,65.586l-6.217-11.433l-19.856-9.427l-12.636,10.43"/>
<path fill="none" stroke="#000000" stroke-width="2" d="M25.071,44.727L18.853,35.3l3.009-11.432"/>
<path stroke="#000000" stroke-width="2" d="M51.144,65.586l2.006-7.221l-8.223-4.212L51.144,65.586z"/>
<path stroke="#000000" stroke-width="2" d="M52.147,86.646l1.003-4.212l-6.218-4.212L52.147,86.646z"/>
</svg>
