<?xml version="1.0" encoding="utf-8"?>
<!-- Generator: Adobe Illustrator 14.0.0, SVG Export Plug-In . SVG Version: 6.00 Build 43363)  -->
<!DOCTYPE svg PUBLIC "-//W3C//DTD SVG 1.1//EN" "http://www.w3.org/Graphics/SVG/1.1/DTD/svg11.dtd">
<svg version="1.1" id="图层_1" xmlns="http://www.w3.org/2000/svg" xmlns:xlink="http://www.w3.org/1999/xlink" x="0px" y="0px"
	 width="106.503px" height="106.502px" viewBox="0 0 106.503 106.502" enable-background="new 0 0 106.503 106.502"
	 xml:space="preserve">
<path fill="#7F7F7F" d="M2.985,103.41V2.985h100.426V103.41H2.985z"/>
<path fill="#999999" d="M9.168,103.41V2.985h88.059V103.41H9.168z"/>
<path fill="#B2B2B2" d="M19.829,103.41V2.985H86.78V103.41H19.829z"/>
<path fill="#CCCCCC" d="M30.064,103.41V2.985h46.268V103.41H30.064z"/>
<path fill="#E5E5E5" d="M38.272,103.41V2.985h29.424V103.41H38.272z"/>
<path fill="#FFFFFF" d="M47.121,103.41V2.985h12.153V103.41H47.121z"/>
<path fill="none" stroke="#000000" stroke-width="2" d="M103.411,103.41V2.985"/>
<path fill="none" stroke="#000000" stroke-width="2" d="M2.985,2.985V103.41"/>
<path fill="none" stroke="#000000" stroke-width="2" d="M103.198,44.776L78.145,59.381l-19.829-6.184L47.868,39.552l-0.959-19.936
	l-13.646-9.382l-11.407,7.143"/>
<path fill="none" stroke="#000000" stroke-width="2" d="M47.868,39.552l-10.448-6.29l-8.422,30.384l-7.143-10.448l-3.305,2.985"/>
<path fill="none" stroke="#000000" stroke-width="2" d="M103.198,32.089l-14.605-4.051l-2.026,16.737l-8.422,14.605"/>
<path fill="none" stroke="#000000" stroke-width="2" d="M65.564,55.224l-11.514,6.183l-9.382,19.937L55.116,94.03"/>
<path fill="none" stroke="#000000" stroke-width="2" d="M44.669,81.343l-9.381,6.183l-11.514-2.984"/>
<path stroke="#000000" stroke-width="2" d="M65.564,55.224l-7.249-2.026l-4.265,8.209L65.564,55.224z"/>
<path stroke="#000000" stroke-width="2" d="M86.566,54.157l-4.157-0.96l-4.265,6.184L86.566,54.157z"/>
</svg>
