<?xml version="1.0" encoding="utf-8"?>
<!-- Generator: Adobe Illustrator 14.0.0, SVG Export Plug-In . SVG Version: 6.00 Build 43363)  -->
<!DOCTYPE svg PUBLIC "-//W3C//DTD SVG 1.1//EN" "http://www.w3.org/Graphics/SVG/1.1/DTD/svg11.dtd">
<svg version="1.1" id="图层_1" xmlns="http://www.w3.org/2000/svg" xmlns:xlink="http://www.w3.org/1999/xlink" x="0px" y="0px"
	 width="77.363px" height="106.502px" viewBox="0 0 77.363 106.502" enable-background="new 0 0 77.363 106.502"
	 xml:space="preserve">
<path fill="#7F7F7F" d="M3.014,3.015H61.69v100.473H3.014V3.015z"/>
<path fill="#999999" d="M3.014,9.244H61.69v88.014H3.014V9.244z"/>
<path fill="#B2B2B2" d="M3.014,20.095H61.69v66.714H3.014V20.095z"/>
<path fill="#CCCCCC" d="M3.014,30.343H61.69V76.36H3.014V30.343z"/>
<path fill="#E5E5E5" d="M3.014,38.381H61.69V67.92H3.014V38.381z"/>
<path fill="#FFFFFF" d="M3.014,47.022H61.69V59.28H3.014V47.022z"/>
<path fill="none" stroke="#000000" stroke-width="2" d="M3.014,103.488H61.69"/>
<path fill="none" stroke="#000000" stroke-width="2" d="M61.69,3.015H3.014"/>
<path fill="#CCCCCC" stroke="#000000" stroke-width="2" d="M61.69,103.488l-16.679-4.22l4.22-2.01l-21.099-4.22l12.66-10.449
	L28.132,69.93L7.234,63.7l18.889-12.459l18.889-4.22l-12.66-10.449l6.229-6.43L26.123,19.694l18.889-6.229h6.229l-6.229-6.229
	l16.679-4.22v8.439l8.439,6.229l-6.431,8.439l10.65,8.239l-8.439,8.439l6.229,12.459l-14.669,6.43L72.14,67.92l-8.44,6.229
	l10.65,10.449l-6.43,6.229l2.21,6.43L61.69,103.488z"/>
<path fill="#666666" stroke="#000000" stroke-width="2" d="M61.69,99.268l-12.459-2.01l4.019-2.21l-20.898-4.22l12.66-10.449
	L34.563,67.92l-21.099-6.229l12.66-8.439l25.118-6.229L36.572,34.363l6.229-6.229l-10.449-8.439l12.66-4.22h10.449l-6.229-8.239
	l10.449-2.21l-2.21,6.43l10.449,6.229l-8.239,6.229l10.449,8.439l-8.439,8.239l6.229,12.659l-16.679,8.439L65.91,67.92l-6.229,4.22
	L70.13,82.589l-6.431,4.22l4.221,8.239L61.69,99.268z"/>
</svg>
