<?xml version="1.0" encoding="utf-8"?>
<!-- Generator: Adobe Illustrator 14.0.0, SVG Export Plug-In . SVG Version: 6.00 Build 43363)  -->
<!DOCTYPE svg PUBLIC "-//W3C//DTD SVG 1.1//EN" "http://www.w3.org/Graphics/SVG/1.1/DTD/svg11.dtd">
<svg version="1.1" id="图层_1" xmlns="http://www.w3.org/2000/svg" xmlns:xlink="http://www.w3.org/1999/xlink" x="0px" y="0px"
	 width="144.749px" height="105.047px" viewBox="0 0 144.749 105.047" enable-background="new 0 0 144.749 105.047"
	 xml:space="preserve">
<path fill="#7F7F7F" d="M4.057,100.991V21.299h136.49v79.691H4.057z"/>
<path fill="#999999" d="M12.461,100.991V21.299h119.682v79.691H12.461z"/>
<path fill="#B2B2B2" d="M27.24,100.991V21.299h90.703v79.691H27.24z"/>
<path fill="#CCCCCC" d="M41.15,100.991V21.299h62.595v79.691H41.15z"/>
<path fill="#E5E5E5" d="M52.161,100.991V21.299h40.136v79.691H52.161z"/>
<path fill="#FFFFFF" d="M63.753,100.991V21.299h16.663v79.691H63.753z"/>
<path fill="none" stroke="#000000" stroke-width="2" d="M140.547,100.991V21.299"/>
<path fill="none" stroke="#000000" stroke-width="2" d="M4.057,21.299v79.691"/>
<path fill="#CCCCCC" stroke="#000000" stroke-width="2" d="M140.547,21.299l-5.796,22.604l-2.608-5.796l-5.796,28.688
	l-14.199-17.097L94.906,66.795L86.501,95.34L69.549,69.549l-5.796-25.646L49.698,61.145l-8.839-8.404L26.66,69.549l-8.403-25.646
	v-8.404l-8.549,8.404L4.057,21.299h11.446l8.404-11.447l11.446,8.694L46.656,4.057l11.447,11.446l16.952-8.548l8.693,19.995
	l8.549-19.995l8.404,11.591l14.199-14.489l8.404,8.693l8.838-2.898L140.547,21.299z"/>
<path fill="#666666" stroke="#000000" stroke-width="2" d="M134.751,21.299l-2.608,16.808l-3.043-5.361l-5.795,28.399l-14.2-17.242
	L92.297,58.102l-8.549,28.689L72.302,69.549l-8.549-34.05L46.656,55.35l-8.549-8.405l-11.446,14.2l-5.796-17.242v-14.2L9.708,38.107
	L6.81,24.052l8.693,2.898l8.404-14.2l8.549,11.302l11.446-14.2L55.06,21.299l17.242-8.549l11.446,22.749l8.549-19.996l5.651,8.549
	l14.199-14.2l5.796,8.694L129.1,12.75L134.751,21.299z"/>
</svg>
