<?xml version="1.0" encoding="utf-8"?>
<!-- Generator: Adobe Illustrator 14.0.0, SVG Export Plug-In . SVG Version: 6.00 Build 43363)  -->
<!DOCTYPE svg PUBLIC "-//W3C//DTD SVG 1.1//EN" "http://www.w3.org/Graphics/SVG/1.1/DTD/svg11.dtd">
<svg version="1.1" id="图层_1" xmlns="http://www.w3.org/2000/svg" xmlns:xlink="http://www.w3.org/1999/xlink" x="0px" y="0px"
	 width="72.943px" height="106.502px" viewBox="0 0 72.943 106.502" enable-background="new 0 0 72.943 106.502"
	 xml:space="preserve">
<path fill="#7F7F7F" stroke="#000000" stroke-width="2" d="M61.69,23.913l8.239-2.01V9.244l-8.239-2.01V23.913z"/>
<path fill="#7F7F7F" stroke="#000000" stroke-width="2" d="M61.69,61.691l8.239-2.009v-12.66l-8.239-2.009V61.691z"/>
<path fill="#7F7F7F" stroke="#000000" stroke-width="2" d="M61.69,99.268l8.239-2.01V84.8l-8.239-2.211V99.268z"/>
<path fill="#7F7F7F" stroke="#000000" stroke-width="2" d="M11.253,23.913l-8.238-2.01V9.244l8.238-2.01V23.913z"/>
<path fill="#7F7F7F" stroke="#000000" stroke-width="2" d="M11.253,61.691l-8.238-2.009v-12.66l8.238-2.009V61.691z"/>
<path fill="#7F7F7F" stroke="#000000" stroke-width="2" d="M11.253,99.268l-8.238-2.01V84.8l8.238-2.211V99.268z"/>
<path fill="#B2B2B2" stroke="#000000" stroke-width="2" d="M61.69,20.899l8.239-1.205V9.244l-8.239-2.01V20.899z"/>
<path fill="#B2B2B2" stroke="#000000" stroke-width="2" d="M61.69,58.476l8.239-1.005V47.022l-8.239-2.009V58.476z"/>
<path fill="#B2B2B2" stroke="#000000" stroke-width="2" d="M61.69,96.253l8.239-1.004V84.8l-8.239-2.211V96.253z"/>
<path fill="#B2B2B2" stroke="#000000" stroke-width="2" d="M11.253,20.899l-8.238-1.205V9.244l8.238-2.01V20.899z"/>
<path fill="#B2B2B2" stroke="#000000" stroke-width="2" d="M11.253,58.476l-8.238-1.005V47.022l8.238-2.009V58.476z"/>
<path fill="#B2B2B2" stroke="#000000" stroke-width="2" d="M11.253,96.253l-8.238-1.004V84.8l8.238-2.211V96.253z"/>
<path fill="#7F7F7F" d="M11.253,3.015h25.319v100.473H11.253V3.015z"/>
<path fill="#999999" d="M11.253,9.244h25.319v88.215H11.253V9.244z"/>
<path fill="#B2B2B2" d="M11.253,20.095h25.319v66.714H11.253V20.095z"/>
<path fill="#CCCCCC" d="M11.253,30.343h25.319V76.36H11.253V30.343z"/>
<path fill="#E5E5E5" d="M11.253,38.381h25.319V67.92H11.253V38.381z"/>
<path fill="#FFFFFF" d="M11.253,47.223h25.319v12.258H11.253V47.223z"/>
<path fill="none" stroke="#000000" stroke-width="2" d="M11.253,3.015h25.319v100.473H11.253V3.015"/>
<path fill="#E5E5E5" stroke="#000000" stroke-width="2" d="M3.014,11.454v-2.21l8.238-2.01v3.215L3.014,11.454z"/>
<path fill="#E5E5E5" stroke="#000000" stroke-width="2" d="M3.014,49.031v-2.01l8.238-2.009v3.014L3.014,49.031z"/>
<path fill="#E5E5E5" stroke="#000000" stroke-width="2" d="M3.014,86.809V84.8l8.238-2.211v3.215L3.014,86.809z"/>
<path fill="#E5E5E5" stroke="#000000" stroke-width="2" d="M69.929,11.454v-2.21l-8.239-2.01v3.215L69.929,11.454z"/>
<path fill="#E5E5E5" stroke="#000000" stroke-width="2" d="M69.929,49.031v-2.01l-8.239-2.009v3.014L69.929,49.031z"/>
<path fill="#E5E5E5" stroke="#000000" stroke-width="2" d="M69.929,86.809V84.8l-8.239-2.211v3.215L69.929,86.809z"/>
<path fill="#7F7F7F" d="M61.69,3.015H36.572v100.473H61.69V3.015z"/>
<path fill="#999999" d="M61.69,9.244H36.572v88.215H61.69V9.244z"/>
<path fill="#B2B2B2" d="M61.69,20.095H36.572v66.714H61.69V20.095z"/>
<path fill="#CCCCCC" d="M61.69,30.343H36.572V76.36H61.69V30.343z"/>
<path fill="#E5E5E5" d="M61.69,38.381H36.572V67.92H61.69V38.381z"/>
<path fill="#FFFFFF" d="M61.69,47.223H36.572v12.258H61.69V47.223z"/>
<path fill="none" stroke="#000000" stroke-width="2" d="M61.69,3.015H36.572v100.473H61.69V3.015"/>
</svg>
