<?xml version="1.0" encoding="utf-8"?>
<!-- Generator: Adobe Illustrator 14.0.0, SVG Export Plug-In . SVG Version: 6.00 Build 43363)  -->
<!DOCTYPE svg PUBLIC "-//W3C//DTD SVG 1.1//EN" "http://www.w3.org/Graphics/SVG/1.1/DTD/svg11.dtd">
<svg version="1.1" id="图层_1" xmlns="http://www.w3.org/2000/svg" xmlns:xlink="http://www.w3.org/1999/xlink" x="0px" y="0px"
	 width="144.749px" height="99.137px" viewBox="0 0 144.749 99.137" enable-background="new 0 0 144.749 99.137"
	 xml:space="preserve">
<path fill="#7F7F7F" stroke="#000000" stroke-width="2" d="M32.775,15.294L29.77,4.097H12.838L9.833,15.294H32.775z"/>
<path fill="#7F7F7F" stroke="#000000" stroke-width="2" d="M83.845,15.294L81.114,4.097H63.908l-2.731,11.197H83.845z"/>
<path fill="#7F7F7F" stroke="#000000" stroke-width="2" d="M135.189,15.294l-3.005-11.197h-16.932l-3.005,11.197H135.189z"/>
<path fill="#7F7F7F" stroke="#000000" stroke-width="2" d="M32.775,83.57L29.77,95.04H12.838L9.833,83.57H32.775z"/>
<path fill="#7F7F7F" stroke="#000000" stroke-width="2" d="M83.845,83.57l-2.731,11.47H63.908l-2.731-11.47H83.845z"/>
<path fill="#7F7F7F" stroke="#000000" stroke-width="2" d="M135.189,83.57l-3.005,11.47h-16.932l-3.005-11.47H135.189z"/>
<path fill="#B2B2B2" stroke="#000000" stroke-width="2" d="M28.405,15.294L27.039,4.097H12.838L9.833,15.294H28.405z"/>
<path fill="#B2B2B2" stroke="#000000" stroke-width="2" d="M79.475,15.294L78.11,4.097H63.908l-2.731,11.197H79.475z"/>
<path fill="#B2B2B2" stroke="#000000" stroke-width="2" d="M130.819,15.294l-1.365-11.197h-14.201l-3.005,11.197H130.819z"/>
<path fill="#B2B2B2" stroke="#000000" stroke-width="2" d="M28.405,83.57l-1.365,11.47H12.838L9.833,83.57H28.405z"/>
<path fill="#B2B2B2" stroke="#000000" stroke-width="2" d="M79.475,83.57L78.11,95.04H63.908l-2.731-11.47H79.475z"/>
<path fill="#B2B2B2" stroke="#000000" stroke-width="2" d="M130.819,83.57l-1.365,11.47h-14.201l-3.005-11.47H130.819z"/>
<path fill="#7F7F7F" d="M4.371,83.57V49.432h136.279V83.57H4.371z"/>
<path fill="#999999" d="M12.565,83.57V49.432h119.893V83.57H12.565z"/>
<path fill="#B2B2B2" d="M27.312,83.57V49.432h90.671V83.57H27.312z"/>
<path fill="#CCCCCC" d="M41.24,83.57V49.432h62.814V83.57H41.24z"/>
<path fill="#E5E5E5" d="M52.438,83.57V49.432h39.873V83.57H52.438z"/>
<path fill="#FFFFFF" d="M64.181,83.57V49.432h16.66V83.57H64.181z"/>
<path fill="none" stroke="#000000" stroke-width="2" d="M4.098,83.57V49.432h136.553V83.57H4.098"/>
<path fill="#E5E5E5" stroke="#000000" stroke-width="2" d="M15.569,95.04h-2.73L9.833,83.57h4.37L15.569,95.04z"/>
<path fill="#E5E5E5" stroke="#000000" stroke-width="2" d="M66.912,95.04h-3.004l-2.731-11.47h4.097L66.912,95.04z"/>
<path fill="#E5E5E5" stroke="#000000" stroke-width="2" d="M117.983,95.04h-2.73l-3.005-11.47h4.37L117.983,95.04z"/>
<path fill="#E5E5E5" stroke="#000000" stroke-width="2" d="M15.569,4.097h-2.73L9.833,15.294h4.37L15.569,4.097z"/>
<path fill="#E5E5E5" stroke="#000000" stroke-width="2" d="M66.912,4.097h-3.004l-2.731,11.197h4.097L66.912,4.097z"/>
<path fill="#E5E5E5" stroke="#000000" stroke-width="2" d="M117.983,4.097h-2.73l-3.005,11.197h4.37L117.983,4.097z"/>
<path fill="#7F7F7F" d="M4.371,15.294v34.138h136.279V15.294H4.371z"/>
<path fill="#999999" d="M12.565,15.294v34.138h119.893V15.294H12.565z"/>
<path fill="#B2B2B2" d="M27.312,15.294v34.138h90.671V15.294H27.312z"/>
<path fill="#CCCCCC" d="M41.24,15.294v34.138h62.814V15.294H41.24z"/>
<path fill="#E5E5E5" d="M52.438,15.294v34.138h39.873V15.294H52.438z"/>
<path fill="#FFFFFF" d="M64.181,15.294v34.138h16.66V15.294H64.181z"/>
<path fill="none" stroke="#000000" stroke-width="2" d="M4.098,15.294v34.138h136.553V15.294H4.098"/>
</svg>
