<?xml version="1.0" encoding="utf-8"?>
<!-- Generator: Adobe Illustrator 14.0.0, SVG Export Plug-In . SVG Version: 6.00 Build 43363)  -->
<!DOCTYPE svg PUBLIC "-//W3C//DTD SVG 1.1//EN" "http://www.w3.org/Graphics/SVG/1.1/DTD/svg11.dtd">
<svg version="1.1" id="图层_1" xmlns="http://www.w3.org/2000/svg" xmlns:xlink="http://www.w3.org/1999/xlink" x="0px" y="0px"
	 width="144.749px" height="53.805px" viewBox="0 0 144.749 53.805" enable-background="new 0 0 144.749 53.805"
	 xml:space="preserve">
<path fill="#7F7F7F" stroke="#000000" stroke-width="2" d="M32.5,38.237l-2.731,11.471H12.836L9.832,38.237H32.5z"/>
<path fill="#7F7F7F" stroke="#000000" stroke-width="2" d="M83.845,38.237l-2.731,11.471H63.908l-2.731-11.471H83.845z"/>
<path fill="#7F7F7F" stroke="#000000" stroke-width="2" d="M135.19,38.237l-3.004,11.471h-16.933l-3.005-11.471H135.19z"/>
<path fill="#7F7F7F" d="M4.097,38.237V4.098h136.556v34.139H4.097z"/>
<path fill="#999999" d="M12.563,38.237V4.098h119.896v34.139H12.563z"/>
<path fill="#B2B2B2" d="M27.311,38.237V4.098h90.673v34.139H27.311z"/>
<path fill="#CCCCCC" d="M41.24,38.237V4.098h62.543v34.139H41.24z"/>
<path fill="#E5E5E5" d="M52.438,38.237V4.098h39.874v34.139H52.438z"/>
<path fill="#FFFFFF" d="M64.181,38.237V4.098h16.66v34.139H64.181z"/>
<path fill="none" stroke="#000000" stroke-width="2" d="M4.097,38.237V4.098h136.556v34.139H4.097"/>
<path fill="#B2B2B2" stroke="#000000" stroke-width="2" d="M28.404,38.237l-1.365,11.471H12.836L9.832,38.237H28.404z"/>
<path fill="#B2B2B2" stroke="#000000" stroke-width="2" d="M79.475,38.237L78.11,49.708H63.908l-2.731-11.471H79.475z"/>
<path fill="#B2B2B2" stroke="#000000" stroke-width="2" d="M130.821,38.237l-1.366,11.471h-14.201l-3.005-11.471H130.821z"/>
<path fill="#E5E5E5" stroke="#000000" stroke-width="2" d="M15.568,49.708h-2.731L9.832,38.237h4.369L15.568,49.708z"/>
<path fill="#E5E5E5" stroke="#000000" stroke-width="2" d="M66.639,49.708h-2.73l-2.731-11.471h4.097L66.639,49.708z"/>
<path fill="#E5E5E5" stroke="#000000" stroke-width="2" d="M117.984,49.708h-2.73l-3.005-11.471h4.37L117.984,49.708z"/>
</svg>
