<?xml version="1.0" encoding="utf-8"?>
<!-- Generator: Adobe Illustrator 14.0.0, SVG Export Plug-In . SVG Version: 6.00 Build 43363)  -->
<!DOCTYPE svg PUBLIC "-//W3C//DTD SVG 1.1//EN" "http://www.w3.org/Graphics/SVG/1.1/DTD/svg11.dtd">
<svg version="1.1" id="图层_1" xmlns="http://www.w3.org/2000/svg" xmlns:xlink="http://www.w3.org/1999/xlink" x="0px" y="0px"
	 width="144.749px" height="53.532px" viewBox="0 0 144.749 53.532" enable-background="new 0 0 144.749 53.532"
	 xml:space="preserve">
<path fill="#7F7F7F" stroke="#000000" stroke-width="2" d="M32.5,15.295L29.769,4.098H12.836L9.832,15.295H32.5z"/>
<path fill="#7F7F7F" stroke="#000000" stroke-width="2" d="M83.845,15.295L81.114,4.098H63.908l-2.731,11.198H83.845z"/>
<path fill="#7F7F7F" stroke="#000000" stroke-width="2" d="M134.917,15.295l-2.731-11.198h-16.933l-3.005,11.198H134.917z"/>
<path fill="#7F7F7F" d="M4.097,15.295v34.139h136.556V15.295H4.097z"/>
<path fill="#999999" d="M12.563,15.295v34.139h119.896V15.295H12.563z"/>
<path fill="#B2B2B2" d="M27.311,15.295v34.139h90.673V15.295H27.311z"/>
<path fill="#CCCCCC" d="M41.24,15.295v34.139h62.543V15.295H41.24z"/>
<path fill="#E5E5E5" d="M52.164,15.295v34.139h40.147V15.295H52.164z"/>
<path fill="#FFFFFF" d="M64.181,15.295v34.139h16.66V15.295H64.181z"/>
<path fill="none" stroke="#000000" stroke-width="2" d="M4.097,15.295v34.139h136.556V15.295H4.097"/>
<path fill="#B2B2B2" stroke="#000000" stroke-width="2" d="M28.404,15.295L27.038,4.098H12.836L9.832,15.295H28.404z"/>
<path fill="#B2B2B2" stroke="#000000" stroke-width="2" d="M79.475,15.295L78.11,4.098H63.908l-2.731,11.198H79.475z"/>
<path fill="#B2B2B2" stroke="#000000" stroke-width="2" d="M130.821,15.295l-1.366-11.198h-14.201l-3.005,11.198H130.821z"/>
<path fill="#E5E5E5" stroke="#000000" stroke-width="2" d="M15.568,4.098h-2.731L9.832,15.295h4.369L15.568,4.098z"/>
<path fill="#E5E5E5" stroke="#000000" stroke-width="2" d="M66.639,4.098h-2.73l-2.731,11.198h4.097L66.639,4.098z"/>
<path fill="#E5E5E5" stroke="#000000" stroke-width="2" d="M117.984,4.098h-2.73l-3.005,11.198h4.37L117.984,4.098z"/>
</svg>
