<?xml version="1.0" encoding="utf-8"?>
<!-- Generator: Adobe Illustrator 14.0.0, SVG Export Plug-In . SVG Version: 6.00 Build 43363)  -->
<!DOCTYPE svg PUBLIC "-//W3C//DTD SVG 1.1//EN" "http://www.w3.org/Graphics/SVG/1.1/DTD/svg11.dtd">
<svg version="1.1" id="图层_1" xmlns="http://www.w3.org/2000/svg" xmlns:xlink="http://www.w3.org/1999/xlink" x="0px" y="0px"
	 width="89.546px" height="106.502px" viewBox="0 0 89.546 106.502" enable-background="new 0 0 89.546 106.502"
	 xml:space="preserve">
<circle fill="#CCCCCC" stroke="#000000" stroke-width="2" cx="44.667" cy="44.67" r="41.789"/>
<path fill="none" stroke="#FFFFFF" stroke-width="2" d="M39.87,81.235l-0.853-1.173l-0.64-1.173l-0.426-1.386l-0.213-1.386
	l0.213-1.386l0.32-1.279l0.746-1.173l0.853-1.065l0.959-0.854l1.279-0.64l1.279-0.426l1.386-0.106l1.279,0.106l1.279,0.426
	l1.173,0.64l1.065,0.96"/>
<path fill="none" stroke="#7F7F7F" stroke-width="2" d="M49.57,71.321l0.854,1.065l0.746,1.173l0.426,1.173l0.107,1.386
	l-0.107,1.386l-0.426,1.279l-0.64,1.173l-0.96,1.066l-0.959,0.853l-1.172,0.64L46.16,82.94l-1.386,0.107l-1.386-0.107l-1.386-0.426
	l-1.172-0.533l-0.959-0.746"/>
<path fill="none" stroke="#FFFFFF" stroke-width="2" d="M39.656,18.232l-0.746-1.065l-0.64-1.279l-0.32-1.279l-0.213-1.279
	l0.107-1.386l0.426-1.386l0.64-1.279l0.853-1.066l0.959-0.853l1.279-0.64l1.279-0.427l1.493-0.106l1.386,0.106l1.279,0.427
	l1.172,0.64l0.959,0.959"/>
<path fill="none" stroke="#7F7F7F" stroke-width="2" d="M49.57,8.318l0.854,1.066l0.746,1.279l0.426,1.279l0.107,1.386l-0.107,1.386
	l-0.426,1.279l-0.64,1.279l-0.96,0.959l-0.959,0.854l-1.172,0.746l-1.279,0.319l-1.386,0.214l-1.386-0.214l-1.386-0.319
	l-1.279-0.746l-1.066-0.854"/>
<path fill="none" stroke="#FFFFFF" stroke-width="2" d="M8.315,49.893l-0.853-1.172l-0.64-1.279l-0.32-1.279l-0.107-1.386
	l0.107-1.386l0.426-1.279l0.64-1.279l0.853-0.96l0.959-0.853l1.173-0.746l1.386-0.32l1.386-0.213l1.386,0.213l1.279,0.427
	l1.173,0.64l1.066,0.853"/>
<path fill="none" stroke="#7F7F7F" stroke-width="2" d="M18.229,39.872l0.853,1.173l0.746,1.173l0.32,1.279l0.213,1.279
	l-0.213,1.492l-0.32,1.279l-0.746,1.279l-0.853,1.065l-0.959,0.854l-1.279,0.64l-1.279,0.426l-1.386,0.214l-1.386-0.214
	l-1.279-0.426l-1.279-0.64l-1.066-0.854"/>
<path fill="none" stroke="#FFFFFF" stroke-width="2" d="M71.318,49.893l-0.854-1.172l-0.64-1.173l-0.319-1.279l-0.107-1.279
	l0.107-1.492l0.426-1.279l0.641-1.173l0.746-1.066l1.065-0.746l1.065-0.64l1.279-0.426l1.387-0.106l1.386,0.106l1.386,0.426
	l1.279,0.533l1.066,0.746"/>
<path fill="none" stroke="#7F7F7F" stroke-width="2" d="M81.232,39.872l0.746,1.173l0.533,1.173l0.426,1.386l0.106,1.386
	l-0.106,1.386l-0.32,1.279l-0.746,1.066l-0.746,1.065l-1.066,0.854l-1.172,0.532l-1.279,0.427l-1.492,0.106l-1.279-0.106
	l-1.279-0.427l-1.173-0.532l-1.065-0.747"/>
<path fill="none" stroke="#FFFFFF" stroke-width="2" d="M17.163,72.386l-0.959-0.959l-0.64-1.173l-0.426-1.279l-0.107-1.492
	l0.107-1.386l0.426-1.279l0.64-1.173l0.959-0.959l0.959-0.96l1.279-0.64l1.386-0.319l1.492-0.213l1.173,0.213l1.279,0.319
	l1.279,0.64l1.066,0.746"/>
<path fill="none" stroke="#7F7F7F" stroke-width="2" d="M27.077,62.472l0.853,1.066l0.639,1.279l0.427,1.279l0.213,1.386
	l-0.213,1.492l-0.32,1.173l-0.64,1.279l-0.959,0.959l-0.959,0.96l-1.172,0.64l-1.279,0.319l-1.386,0.214l-1.492-0.214l-1.279-0.319
	l-1.279-0.746l-1.066-0.854"/>
<path fill="none" stroke="#FFFFFF" stroke-width="2" d="M17.163,27.08l-0.959-1.173l-0.64-1.173l-0.426-1.386l-0.107-1.386
	l0.107-1.386l0.426-1.279l0.64-1.173l0.959-1.065l0.959-0.854l1.279-0.64l1.386-0.426l1.492-0.106l1.173,0.106l1.279,0.426
	l1.279,0.64l1.066,0.96"/>
<path fill="none" stroke="#7F7F7F" stroke-width="2" d="M27.077,17.166l0.853,1.065l0.639,1.173l0.427,1.173l0.213,1.386
	l-0.213,1.492l-0.32,1.279l-0.64,1.279l-0.959,1.066l-0.959,0.853l-1.172,0.64l-1.279,0.427l-1.386,0.213l-1.492-0.213l-1.279-0.427
	l-1.279-0.64l-1.066-0.853"/>
<path fill="none" stroke="#FFFFFF" stroke-width="2" d="M62.469,72.386l-0.746-0.959l-0.64-1.173l-0.32-1.279l-0.213-1.492
	l0.213-1.386l0.32-1.279l0.64-1.173l0.96-0.959l0.959-0.96l1.172-0.64l1.279-0.319l1.387-0.213l1.385,0.213l1.279,0.427l1.174,0.639
	l1.065,0.854"/>
<path fill="none" stroke="#7F7F7F" stroke-width="2" d="M72.383,62.686l0.853,1.065l0.746,1.173l0.32,1.279l0.213,1.279
	l-0.213,1.492l-0.32,1.173l-0.639,1.279l-0.96,0.959l-0.96,0.96l-1.279,0.64l-1.172,0.319l-1.492,0.214l-1.387-0.214l-1.279-0.319
	l-1.279-0.746l-1.065-0.854"/>
<path fill="none" stroke="#FFFFFF" stroke-width="2" d="M62.469,27.293l-0.746-1.065l-0.64-1.279l-0.32-1.279l-0.213-1.386
	l0.107-1.493l0.426-1.279l0.64-1.172l0.853-0.96l0.959-0.959l1.174-0.64l1.385-0.32l1.387-0.213l1.385,0.213l1.279,0.427l1.174,0.64
	l1.065,0.853"/>
<path fill="none" stroke="#7F7F7F" stroke-width="2" d="M72.383,17.379l0.853,0.96l0.746,1.172l0.32,1.279l0.213,1.493l-0.213,1.386
	l-0.32,1.279l-0.639,1.172l-0.96,0.96l-0.96,0.959l-1.279,0.64l-1.172,0.32l-1.492,0.213l-1.387-0.213l-1.279-0.32l-1.279-0.64
	l-1.065-0.746"/>
<circle fill="#7F7F7F" stroke="#000000" stroke-width="2" cx="44.56" cy="44.99" r="20.681"/>
<circle fill="#999999" cx="44.773" cy="44.883" r="18.229"/>
<circle fill="#B2B2B2" cx="44.773" cy="44.883" r="13.645"/>
<ellipse fill="#CCCCCC" cx="44.667" cy="44.883" rx="9.062" ry="9.274"/>
<circle fill="#E5E5E5" cx="44.773" cy="44.883" r="5.863"/>
<circle fill="#FFFFFF" cx="44.773" cy="44.883" r="2.452"/>
<path fill="#7F7F7F" d="M23.879,103.515V44.777h41.468v58.738H23.879z"/>
<path fill="#999999" d="M26.757,103.515V44.777h35.926v58.738H26.757z"/>
<path fill="#B2B2B2" d="M31.128,103.515V44.777h27.291v58.738H31.128z"/>
<path fill="#CCCCCC" d="M35.072,103.515V44.777h19.082v58.738H35.072z"/>
<path fill="#E5E5E5" d="M38.59,103.515V44.777h12.046v58.738H38.59z"/>
<path fill="#FFFFFF" d="M42.321,103.515V44.777h4.904v58.738H42.321z"/>
<path fill="none" stroke="#000000" stroke-width="2" d="M65.347,103.515V44.777"/>
<path fill="none" stroke="#000000" stroke-width="2" d="M23.879,44.777v58.738"/>
</svg>
