<?xml version="1.0" encoding="utf-8"?>
<!-- Generator: Adobe Illustrator 14.0.0, SVG Export Plug-In . SVG Version: 6.00 Build 43363)  -->
<!DOCTYPE svg PUBLIC "-//W3C//DTD SVG 1.1//EN" "http://www.w3.org/Graphics/SVG/1.1/DTD/svg11.dtd">
<svg version="1.1" id="图层_1" xmlns="http://www.w3.org/2000/svg" xmlns:xlink="http://www.w3.org/1999/xlink" x="0px" y="0px"
	 width="39.585px" height="106.502px" viewBox="0 0 39.585 106.502" enable-background="new 0 0 39.585 106.502"
	 xml:space="preserve">
<path fill="#7F7F7F" stroke="#000000" stroke-width="2" d="M28.132,23.913l8.439-2.009V9.245l-8.439-2.01V23.913z"/>
<path fill="#7F7F7F" stroke="#000000" stroke-width="2" d="M28.132,61.691l8.439-2.01V47.022l-8.439-2.009V61.691z"/>
<path fill="#7F7F7F" stroke="#000000" stroke-width="2" d="M28.132,99.267l8.439-2.01V84.799l-8.439-2.21V99.267z"/>
<path fill="#7F7F7F" d="M28.132,3.016H3.014v100.471h25.118V3.016z"/>
<path fill="#999999" d="M28.132,9.245H3.014v88.213h25.118V9.245z"/>
<path fill="#B2B2B2" d="M28.132,20.096H3.014v66.713h25.118V20.096z"/>
<path fill="#CCCCCC" d="M28.132,30.344H3.014V76.36h25.118V30.344z"/>
<path fill="#E5E5E5" d="M28.132,38.381H3.014V67.92h25.118V38.381z"/>
<path fill="#FFFFFF" d="M28.132,47.223H3.014v12.258h25.118V47.223z"/>
<path fill="none" stroke="#000000" stroke-width="2" d="M28.132,3.016H3.014v100.471h25.118V3.016"/>
<path fill="#B2B2B2" stroke="#000000" stroke-width="2" d="M28.132,20.9l8.439-1.206V9.245l-8.439-2.01V20.9z"/>
<path fill="#B2B2B2" stroke="#000000" stroke-width="2" d="M28.132,58.476l8.439-1.005V47.022l-8.439-2.009V58.476z"/>
<path fill="#B2B2B2" stroke="#000000" stroke-width="2" d="M28.132,96.253l8.439-1.005V84.799l-8.439-2.21V96.253z"/>
<path fill="#E5E5E5" stroke="#000000" stroke-width="2" d="M36.572,11.455v-2.21l-8.439-2.01v3.215L36.572,11.455z"/>
<path fill="#E5E5E5" stroke="#000000" stroke-width="2" d="M36.572,49.031v-2.01l-8.439-2.009v3.014L36.572,49.031z"/>
<path fill="#E5E5E5" stroke="#000000" stroke-width="2" d="M36.572,86.809v-2.01l-8.439-2.21v3.215L36.572,86.809z"/>
</svg>
