<?xml version="1.0" encoding="utf-8"?>
<!-- Generator: Adobe Illustrator 14.0.0, SVG Export Plug-In . SVG Version: 6.00 Build 43363)  -->
<!DOCTYPE svg PUBLIC "-//W3C//DTD SVG 1.1//EN" "http://www.w3.org/Graphics/SVG/1.1/DTD/svg11.dtd">
<svg version="1.1" id="图层_1" xmlns="http://www.w3.org/2000/svg" xmlns:xlink="http://www.w3.org/1999/xlink" x="0px" y="0px"
	 width="39.384px" height="106.502px" viewBox="0 0 39.384 106.502" enable-background="new 0 0 39.384 106.502"
	 xml:space="preserve">
<path fill="#7F7F7F" stroke="#000000" stroke-width="2" d="M11.252,23.914l-8.238-2.01V9.245l8.238-2.009V23.914z"/>
<path fill="#7F7F7F" stroke="#000000" stroke-width="2" d="M11.252,61.691l-8.238-2.01V47.022l8.238-2.009V61.691z"/>
<path fill="#7F7F7F" stroke="#000000" stroke-width="2" d="M11.252,99.266l-8.238-2.009V84.799l8.238-2.211V99.266z"/>
<path fill="#7F7F7F" d="M11.252,3.017H36.37v100.469H11.252V3.017z"/>
<path fill="#999999" d="M11.252,9.245H36.37v88.213H11.252V9.245z"/>
<path fill="#B2B2B2" d="M11.252,20.096H36.37v66.712H11.252V20.096z"/>
<path fill="#CCCCCC" d="M11.252,30.344H36.37V76.36H11.252V30.344z"/>
<path fill="#E5E5E5" d="M11.252,38.382H36.37V67.92H11.252V38.382z"/>
<path fill="#FFFFFF" d="M11.252,47.223H36.37v12.258H11.252V47.223z"/>
<path fill="none" stroke="#000000" stroke-width="2" d="M11.252,3.017H36.37v100.469H11.252V3.017"/>
<path fill="#B2B2B2" stroke="#000000" stroke-width="2" d="M11.252,20.9l-8.238-1.205V9.245l8.238-2.009V20.9z"/>
<path fill="#B2B2B2" stroke="#000000" stroke-width="2" d="M11.252,58.476l-8.238-1.005V47.022l8.238-2.009V58.476z"/>
<path fill="#B2B2B2" stroke="#000000" stroke-width="2" d="M11.252,96.252l-8.238-1.005V84.799l8.238-2.211V96.252z"/>
<path fill="#E5E5E5" stroke="#000000" stroke-width="2" d="M3.014,11.456V9.245l8.238-2.009v3.215L3.014,11.456z"/>
<path fill="#E5E5E5" stroke="#000000" stroke-width="2" d="M3.014,49.031v-2.01l8.238-2.009v3.014L3.014,49.031z"/>
<path fill="#E5E5E5" stroke="#000000" stroke-width="2" d="M3.014,86.808v-2.009l8.238-2.211v3.215L3.014,86.808z"/>
</svg>
