<?xml version="1.0" encoding="utf-8"?>
<!-- Generator: Adobe Illustrator 14.0.0, SVG Export Plug-In . SVG Version: 6.00 Build 43363)  -->
<!DOCTYPE svg PUBLIC "-//W3C//DTD SVG 1.1//EN" "http://www.w3.org/Graphics/SVG/1.1/DTD/svg11.dtd">
<svg version="1.1" id="图层_1" xmlns="http://www.w3.org/2000/svg" xmlns:xlink="http://www.w3.org/1999/xlink" x="0px" y="0px"
	 width="141.113px" height="106.502px" viewBox="0 0 141.113 106.502" enable-background="new 0 0 141.113 106.502"
	 xml:space="preserve">
<circle fill="#7F7F7F" stroke="#000000" stroke-width="2" cx="104.371" cy="69.492" r="32.749"/>
<circle fill="#999999" cx="104.371" cy="69.492" r="29.82"/>
<circle fill="#B2B2B2" cx="104.371" cy="69.492" r="24.495"/>
<circle fill="#CCCCCC" cx="104.371" cy="69.492" r="19.437"/>
<circle fill="#E5E5E5" cx="104.104" cy="69.493" r="15.176"/>
<path fill="#7F7F7F" d="M3.994,36.743h100.643v50.321H3.994V36.743z"/>
<path fill="#999999" d="M3.994,40.205h100.643V83.87H3.994V40.205z"/>
<path fill="#B2B2B2" d="M3.994,45.53h100.643v33.282H3.994V45.53z"/>
<path fill="#CCCCCC" d="M3.994,50.323h100.643v23.164H3.994V50.323z"/>
<path fill="#E5E5E5" d="M3.994,54.582h100.643v14.644H3.994V54.582z"/>
<path fill="#FFFFFF" d="M3.994,59.109h100.643v5.857H3.994V59.109z"/>
<path fill="none" stroke="#000000" stroke-width="2" d="M3.994,87.065h100.643"/>
<path fill="none" stroke="#000000" stroke-width="2" d="M104.636,36.743H3.994"/>
<path fill="#7F7F7F" d="M63.368,102.508h41.003V53.251H63.368l-3.195-0.532l-3.728-3.195l-0.799-1.331l-0.533-3.195V3.995H5.857
	v41.002l0.533,5.857l0.799,5.592l1.331,5.591l1.864,5.325l2.396,5.059l2.929,4.526l3.461,4.526l3.728,3.994l3.994,3.728l4.526,3.461
	l4.526,2.929l5.059,2.396l5.325,1.863l5.591,1.331l5.591,0.799L63.368,102.508z"/>
<path fill="#999999" d="M9.053,44.997l0.266,5.325l0.799,5.325l1.331,5.591l1.864,4.793l2.396,4.792l2.662,4.526l3.195,3.994
	l3.461,3.993l3.728,3.462l3.994,3.194l4.792,2.663l4.526,2.396l5.059,1.863l5.325,1.331l5.325,0.799l5.591,0.267h41.003V56.18
	H63.368l-4.526-0.799l-3.461-2.662l-2.396-3.462l-1.065-4.26V3.995H9.053V44.997z"/>
<path fill="#B2B2B2" d="M14.111,44.997V3.995H46.86v41.002l1.332,6.124l1.331,2.929l4.526,4.526l6.124,2.396l3.195,0.266h41.003
	v33.016H63.368l-5.059-0.267l-4.792-0.799l-4.793-1.064l-4.526-1.864l-4.26-2.13l-3.994-2.396l-3.728-2.662l-3.728-3.195
	l-3.195-3.728l-2.663-3.728l-2.663-3.993l-1.864-4.526l-1.864-4.261l-1.065-4.792l-0.799-4.793L14.111,44.997z"/>
<path fill="#CCCCCC" d="M19.17,44.997l0.267,4.526l0.798,4.26l1.065,4.261l1.598,3.993l1.598,3.994l2.396,3.461l2.396,3.728
	l2.929,2.929l2.929,2.929l3.728,2.396l3.461,2.396l3.994,1.598l3.994,1.597l4.26,1.065l4.26,0.799h45.529V66.297H63.368l-4.26-0.266
	l-4.26-1.331L51.12,62.57l-3.195-2.396l-2.396-3.195l-2.13-3.728l-1.332-3.994l-0.266-4.26V3.995H19.17V44.997z"/>
<path fill="#E5E5E5" d="M23.43,44.997V3.995h14.377v41.002l0.532,5.059l1.332,4.793l2.396,4.526l3.195,3.728l3.728,3.194
	l4.526,2.396l4.792,1.331l5.059,0.533h41.003v14.377H63.368l-3.994-0.266l-3.994-0.533l-3.727-1.064l-3.728-1.331l-3.728-1.864
	l-2.929-1.863l-3.195-2.131l-2.929-2.662l-2.663-2.929l-2.13-3.195l-1.864-3.194l-1.864-3.462l-1.331-3.728l-1.065-3.728
	l-0.533-3.993L23.43,44.997z"/>
<path fill="#FFFFFF" d="M27.424,44.997l0.266,3.728l0.533,3.461l0.799,3.462l1.065,3.194l1.597,3.195l1.864,2.929l2.13,2.929
	l4.792,4.793l2.929,1.863l2.929,1.864l3.195,1.598l3.195,1.064l3.461,0.799l3.461,0.799h44.73v-6.124H63.368l-6.124-0.532
	l-5.325-1.598l-5.325-2.929l-4.26-3.461l-3.461-4.526l-2.929-5.059l-1.598-5.592l-0.799-5.857V3.995h-6.124V44.997z"/>
<path fill="none" stroke="#000000" stroke-width="2" d="M5.857,3.995v41.002l0.533,5.857l0.799,5.592l1.331,5.591l1.864,5.325
	l2.396,5.059l2.929,4.526l3.461,4.526l3.728,3.994l3.994,3.728l4.526,3.461l4.526,2.929l5.059,2.396l5.325,1.863l5.591,1.331
	l5.591,0.799l5.857,0.533h41.003"/>
<path fill="none" stroke="#000000" stroke-width="2" d="M104.371,53.251H63.368l-1.598-0.267l-1.597-0.266l-1.332-0.799
	l-1.331-1.065l-1.065-1.331l-0.799-1.331l-0.267-1.598l-0.266-1.598V3.995"/>
<path fill="#FFFFFF" d="M103.837,67.096V53.251l2.93,0.267l2.396,0.799l2.396,1.331l2.13,1.598l1.598,2.13l1.331,2.396l0.799,2.396
	l0.267,2.929l-0.267,2.929l-0.799,2.396l-1.331,2.396l-1.598,2.13l-2.13,1.598l-2.396,1.331l-2.396,0.799l-2.93,0.267V67.096z"/>
<path fill="#E5E5E5" d="M103.837,63.902v-10.65l2.131,0.267l2.129,0.532l1.598,1.065l1.598,1.331l1.332,1.598l1.064,1.597
	l0.533,2.131l0.266,2.13l-0.266,2.13l-0.533,2.13l-1.064,1.598l-1.332,1.598l-1.598,1.331l-1.598,1.064l-2.129,0.533l-2.131,0.266
	V63.902z"/>
<path fill="#CCCCCC" d="M103.837,62.037v-8.786l1.864,0.267l1.597,0.532l1.332,0.799l1.331,1.064l1.065,1.332l0.799,1.331
	l0.532,1.598l0.267,1.863l-0.267,1.864l-0.532,1.597l-0.799,1.332l-1.065,1.331l-1.331,1.064l-1.332,0.799l-1.597,0.267
	l-1.864,0.267V62.037z"/>
<path fill="#B2B2B2" d="M103.837,59.907v-6.656l2.662,0.532l2.131,1.332l1.331,2.13l0.532,2.662l-0.532,2.662L108.63,64.7
	l-2.131,1.331l-2.662,0.532V59.907z"/>
<path fill="#999999" d="M103.572,57.245v-3.994l1.598,0.267l1.33,0.799l0.799,1.331l0.268,1.598l-0.268,1.597l-0.799,1.332
	l-1.33,1.064l-1.598,0.267V57.245z"/>
<path fill="#7F7F7F" d="M103.305,54.849v-1.598l0.799,0.267l0.532,0.266l0.267,0.533v0.532v0.799l-0.267,0.266l-0.532,0.533h-0.799
	V54.849z"/>
</svg>
