<?xml version="1.0" encoding="utf-8"?>
<!-- Generator: Adobe Illustrator 14.0.0, SVG Export Plug-In . SVG Version: 6.00 Build 43363)  -->
<!DOCTYPE svg PUBLIC "-//W3C//DTD SVG 1.1//EN" "http://www.w3.org/Graphics/SVG/1.1/DTD/svg11.dtd">
<svg version="1.1" id="图层_1" xmlns="http://www.w3.org/2000/svg" xmlns:xlink="http://www.w3.org/1999/xlink" x="0px" y="0px"
	 width="120.607px" height="106.502px" viewBox="0 0 120.607 106.502" enable-background="new 0 0 120.607 106.502"
	 xml:space="preserve">
<circle fill="#7F7F7F" stroke="#000000" stroke-width="2" cx="88.749" cy="31.861" r="28.445"/>
<circle fill="#999999" cx="88.749" cy="31.86" r="25.714"/>
<circle fill="#B2B2B2" cx="88.749" cy="31.861" r="21.163"/>
<circle fill="#CCCCCC" cx="88.749" cy="31.861" r="16.84"/>
<circle fill="#E5E5E5" cx="88.749" cy="31.861" r="13.198"/>
<path fill="#7F7F7F" d="M3.414,3.415h85.563v43.464H3.414V3.415z"/>
<path fill="#999999" d="M3.414,6.373h85.563v38.003H3.414V6.373z"/>
<path fill="#B2B2B2" d="M3.414,10.925h85.563v28.9H3.414V10.925z"/>
<path fill="#CCCCCC" d="M3.414,15.248h85.563v19.798H3.414V15.248z"/>
<path fill="#E5E5E5" d="M3.414,18.89h85.563v12.743H3.414V18.89z"/>
<path fill="#FFFFFF" d="M3.414,22.758h85.563v5.234H3.414V22.758z"/>
<path fill="none" stroke="#000000" stroke-width="2" d="M3.414,46.879h85.563"/>
<path fill="none" stroke="#000000" stroke-width="2" d="M88.976,3.415H3.414"/>
<path fill="#7F7F7F" d="M3.414,67.587v35.5h42.554v-35.5l1.365-4.096l3.186-2.73l2.73-0.455h35.5V17.752h-35.5l-5.006,0.228
	l-5.007,0.683L38.458,19.8l-4.551,1.82l-4.324,2.048l-4.096,2.503L21.39,29.13l-3.413,3.186l-3.186,3.413l-2.959,3.869L9.33,43.694
	l-2.048,4.323l-1.593,4.552l-1.365,4.778l-0.683,5.007L3.414,67.587z"/>
<path fill="#999999" d="M53.249,20.255l-4.778,0.228l-4.551,0.91l-4.779,1.138l-4.096,1.593l-4.097,1.82l-4.096,2.504l-3.413,2.73
	l-3.414,2.958l-3.186,3.186l-2.73,3.642l-2.276,4.096l-2.048,4.097l-1.593,4.323L7.054,58.03l-0.683,4.779l-0.228,4.778v35.5h37.319
	v-35.5l0.684-4.096l2.275-2.958l2.958-2.049l3.868-0.91h35.5V20.255H53.249z"/>
<path fill="#B2B2B2" d="M53.249,24.806h35.5v28.445h-35.5l-5.461,1.138l-4.552,2.958l-2.958,4.552l-1.138,5.688v35.5H10.695V63.036
	l0.683-4.096l1.138-4.097l1.366-3.868l1.82-3.869l2.275-3.413l2.275-3.413l2.73-2.959l3.187-2.73l3.186-2.503l3.641-2.275
	l3.642-1.593l3.868-1.594l4.097-0.91l4.096-0.683L53.249,24.806z"/>
<path fill="#CCCCCC" d="M53.249,29.13l-3.868,0.228l-3.868,0.683l-3.642,0.91l-3.413,1.365l-3.413,1.593l-3.187,1.82L28.9,38.004
	l-2.73,2.276l-2.503,2.73l-2.276,3.186l-1.82,2.959l-1.593,3.413l-1.365,3.413l-0.683,3.869l-0.683,3.641l-0.228,4.096v35.5h19.57
	v-35.5l0.455-3.868l1.138-3.641l1.82-3.187l2.048-2.73l2.73-2.275l3.187-1.593l3.413-1.138l3.868-0.455h35.5V29.13H53.249z"/>
<path fill="#E5E5E5" d="M53.249,32.771h35.5v12.516h-35.5l-4.551,0.455l-4.096,1.138l-3.869,2.276l-3.186,2.503l-2.73,3.413
	l-2.049,3.642l-1.138,4.323l-0.683,4.551v35.5H18.66V63.947l0.683-3.413l0.91-3.187l1.138-3.413l1.365-2.958l1.821-2.731l1.82-2.73
	l2.503-2.73l2.275-2.048l2.731-2.048l2.73-1.594l3.186-1.593l3.186-1.138l3.187-0.91l3.413-0.455L53.249,32.771z"/>
<path fill="#FFFFFF" d="M53.249,36.184l-3.186,0.228l-3.186,0.455l-2.958,0.683l-2.731,1.139l-2.73,1.365l-2.73,1.593l-2.275,1.82
	l-2.276,2.048l-2.048,2.048l-1.593,2.504l-1.593,2.503l-1.365,2.73l-1.138,2.958l-0.684,2.959l-0.455,2.958l-0.228,3.413v35.5h5.462
	v-35.5l0.455-5.461l1.593-4.779l2.275-4.323l3.187-3.868l3.868-2.959l4.323-2.503l5.007-1.593l5.006-0.455h35.5v-5.462H53.249z"/>
<path fill="none" stroke="#000000" stroke-width="2" d="M88.749,17.752h-35.5l-5.006,0.228l-5.007,0.683L38.458,19.8l-4.551,1.82
	l-4.324,2.048l-4.096,2.503L21.39,29.13l-3.413,3.186l-3.186,3.413l-2.959,3.869L9.33,43.694l-2.048,4.323l-1.593,4.552
	l-1.365,4.778l-0.683,5.007l-0.228,5.233v35.5"/>
<path fill="none" stroke="#000000" stroke-width="2" d="M45.968,103.087v-35.5l0.228-1.365l0.455-1.365l0.683-1.365l0.91-1.138
	l1.138-0.91l1.138-0.683l1.365-0.228l1.365-0.228h35.5"/>
<path fill="#FFFFFF" d="M88.294,29.585V17.752l2.503,0.228l2.275,0.683l2.049,1.138l1.593,1.365l1.593,1.82l1.138,2.048l0.683,2.048
	l0.228,2.504l-0.228,2.503l-0.683,2.275l-1.138,2.048l-1.593,1.593l-1.593,1.594l-2.049,1.138l-2.275,0.683l-2.503,0.228V29.585z"/>
<path fill="#E5E5E5" d="M88.294,26.854v-9.102l1.82,0.228l1.82,0.455l1.593,0.91l1.366,1.138l1.138,1.365l0.91,1.365l0.455,1.82
	l0.228,1.82l-0.228,1.821l-0.455,1.82l-0.91,1.593l-1.138,1.365l-1.366,1.138l-1.593,0.91l-1.82,0.455l-1.82,0.228V26.854z"/>
<path fill="#CCCCCC" d="M88.294,25.261v-7.509l1.593,0.228l1.365,0.228l1.138,0.683l1.138,0.91l0.91,1.138l0.684,1.365l0.455,1.365
	l0.228,1.593l-0.228,1.593l-0.455,1.366l-0.684,1.138l-0.91,1.138l-1.138,0.91l-1.138,0.683l-1.365,0.455l-1.593,0.228V25.261z"/>
<path fill="#B2B2B2" d="M88.294,23.441v-5.688l2.275,0.455l1.82,1.138l1.365,1.82l0.455,2.275l-0.455,2.275l-1.365,1.82l-1.82,1.366
	l-2.275,0.455V23.441z"/>
<path fill="#999999" d="M88.066,21.165v-3.413l1.365,0.228l1.138,0.683l0.91,1.138l0.228,1.365l-0.228,1.365l-0.91,1.138
	l-1.138,0.91l-1.365,0.228V21.165z"/>
<path fill="#7F7F7F" d="M87.839,19.117v-1.365h0.683l0.455,0.228l0.228,0.455v0.683v0.455l-0.228,0.455l-0.455,0.228l-0.683,0.228
	V19.117z"/>
</svg>
