<?xml version="1.0" encoding="utf-8"?>
<!-- Generator: Adobe Illustrator 14.0.0, SVG Export Plug-In . SVG Version: 6.00 Build 43363)  -->
<!DOCTYPE svg PUBLIC "-//W3C//DTD SVG 1.1//EN" "http://www.w3.org/Graphics/SVG/1.1/DTD/svg11.dtd">
<svg version="1.1" id="图层_1" xmlns="http://www.w3.org/2000/svg" xmlns:xlink="http://www.w3.org/1999/xlink" x="0px" y="0px"
	 width="144.749px" height="77.566px" viewBox="0 0 144.749 77.566" enable-background="new 0 0 144.749 77.566"
	 xml:space="preserve">
<circle fill="#7F7F7F" stroke="#000000" stroke-width="2" cx="106.513" cy="38.237" r="34.139"/>
<circle fill="#999999" cx="106.513" cy="38.237" r="30.862"/>
<circle fill="#B2B2B2" cx="106.513" cy="38.237" r="25.399"/>
<circle fill="#CCCCCC" cx="106.513" cy="38.237" r="20.21"/>
<circle fill="#E5E5E5" cx="106.513" cy="38.237" r="15.841"/>
<path fill="#7F7F7F" d="M4.097,4.098h102.689v52.164H4.097V4.098z"/>
<path fill="#999999" d="M4.097,7.648h102.689v45.609H4.097V7.648z"/>
<path fill="#B2B2B2" d="M4.097,13.11h102.689v34.685H4.097V13.11z"/>
<path fill="#CCCCCC" d="M4.097,18.299h102.689v24.034H4.097V18.299z"/>
<path fill="#E5E5E5" d="M4.097,22.669h102.689v15.294H4.097V22.669z"/>
<path fill="#FFFFFF" d="M4.097,27.312h102.689v6.282H4.097V27.312z"/>
<path fill="none" stroke="#000000" stroke-width="2" d="M4.097,56.261h102.689"/>
<path fill="none" stroke="#000000" stroke-width="2" d="M106.786,4.098H4.097"/>
<path fill="#FFFFFF" d="M105.967,35.778V21.304l3.004,0.273l2.731,0.819l2.458,1.366l2.185,1.639l1.639,2.185l1.366,2.458
	l0.819,2.731l0.272,3.004l-0.272,3.004l-0.819,2.458l-1.366,2.458l-1.639,2.186l-2.185,1.639l-2.458,1.365l-2.731,0.818
	l-3.004,0.273V35.778z"/>
<path fill="#E5E5E5" d="M105.967,32.501V21.304l2.185,0.273l2.186,0.546l1.911,1.092l1.639,1.366l1.366,1.639l1.092,1.912
	l0.547,2.185l0.272,2.185l-0.272,2.185l-0.547,2.185l-1.092,1.912l-1.366,1.639l-1.639,1.365l-1.911,1.093l-2.186,0.546
	l-2.185,0.273V32.501z"/>
<path fill="#CCCCCC" d="M105.967,30.316v-9.013l1.912,0.273l1.639,0.546l1.639,0.819l1.365,1.092l1.093,1.366l0.819,1.366
	l0.272,1.639l0.273,1.912l-0.273,1.912l-0.272,1.639l-0.819,1.366l-1.093,1.365l-1.365,1.093l-1.639,0.819l-1.639,0.546
	l-1.912,0.274V30.316z"/>
<path fill="#B2B2B2" d="M105.967,28.131v-6.828l2.731,0.546l2.185,1.365l1.639,2.185l0.546,2.731l-0.546,2.731l-1.639,2.185
	l-2.185,1.639l-2.731,0.546V28.131z"/>
<path fill="#999999" d="M105.694,25.673v-4.37l1.639,0.273l1.366,1.093l1.092,1.365l0.273,1.639l-0.273,1.639l-1.092,1.093
	l-1.366,1.092l-1.639,0.273V25.673z"/>
<path fill="#7F7F7F" d="M105.421,22.942v-1.639l0.819,0.273l0.546,0.273l0.273,0.546l0.272,0.546l-0.272,0.819l-0.273,0.546
	l-0.546,0.273l-0.819,0.273V22.942z"/>
<path fill="#7F7F7F" d="M55.168,21.304h51.618v52.165H55.168V21.304z"/>
<path fill="#999999" d="M55.168,24.854h51.618v45.61H55.168V24.854z"/>
<path fill="#B2B2B2" d="M55.168,30.316h51.618v34.685H55.168V30.316z"/>
<path fill="#CCCCCC" d="M55.168,35.505h51.618v24.033H55.168V35.505z"/>
<path fill="#E5E5E5" d="M55.168,39.875h51.618v15.295H55.168V39.875z"/>
<path fill="#FFFFFF" d="M55.168,44.518h51.618V50.8H55.168V44.518z"/>
<path fill="none" stroke="#000000" stroke-width="2" d="M55.168,73.468h51.618"/>
<path fill="none" stroke="#000000" stroke-width="2" d="M106.786,21.304H55.168"/>
</svg>
