<?xml version="1.0" encoding="utf-8"?>
<!-- Generator: Adobe Illustrator 14.0.0, SVG Export Plug-In . SVG Version: 6.00 Build 43363)  -->
<!DOCTYPE svg PUBLIC "-//W3C//DTD SVG 1.1//EN" "http://www.w3.org/Graphics/SVG/1.1/DTD/svg11.dtd">
<svg version="1.1" id="图层_1" xmlns="http://www.w3.org/2000/svg" xmlns:xlink="http://www.w3.org/1999/xlink" x="0px" y="0px"
	 width="106.503px" height="106.502px" viewBox="0 0 106.503 106.502" enable-background="new 0 0 106.503 106.502"
	 xml:space="preserve">
<path fill="#7F7F7F" d="M28.133,103.489V3.014H78.37v100.475H28.133z"/>
<path fill="#999999" d="M31.348,103.489V3.014h44.008v100.475H31.348z"/>
<path fill="#B2B2B2" d="M36.773,103.489V3.014h33.357v100.475H36.773z"/>
<path fill="#CCCCCC" d="M41.797,103.489V3.014h23.109v100.475H41.797z"/>
<path fill="#E5E5E5" d="M45.816,103.489V3.014h14.871v100.475H45.816z"/>
<path fill="#FFFFFF" d="M50.237,103.489V3.014h6.029v100.475H50.237z"/>
<path fill="none" stroke="#000000" stroke-width="2" d="M78.37,103.489V3.014"/>
<path fill="none" stroke="#000000" stroke-width="2" d="M28.133,3.014v100.475"/>
<path fill="#7F7F7F" d="M25.119,78.369H3.014V28.133h22.104l5.023,0.603l4.622,1.406l4.22,2.211l3.818,3.215l3.014,3.617l2.412,4.22
	l1.407,4.823l0.603,5.023l-0.603,5.023l-1.407,4.823l-2.412,4.22l-3.014,3.617l-3.818,3.215l-4.22,2.211l-4.622,1.406L25.119,78.369
	z"/>
<path fill="#999999" d="M37.376,75.155l2.813-1.809l2.412-2.21l2.21-2.412l2.009-2.813l1.407-3.015l1.005-3.015l0.804-3.215
	l0.201-3.416l-0.201-3.416l-0.804-3.215l-1.005-3.216l-1.407-3.014l-2.009-2.612l-2.21-2.412l-2.412-2.21l-2.813-1.809H3.014v43.807
	H37.376z"/>
<path fill="#B2B2B2" d="M43.807,69.93l1.407-1.809l1.206-1.809l1.206-2.01l1.005-2.009l0.603-2.211l0.603-2.21l0.201-2.211
	l0.201-2.411l-0.201-2.21l-0.201-2.211l-0.603-2.21l-0.603-2.211l-1.005-2.21l-1.206-2.01l-1.206-1.809l-1.407-1.809H3.014V69.93
	H43.807z"/>
<path fill="#CCCCCC" d="M47.424,64.705l0.603-1.406l0.603-1.206l0.402-1.406l0.402-1.407l0.402-1.607l0.201-1.406l0.201-1.608
	v-1.406v-1.406l-0.201-1.608l-0.201-1.406l-0.402-1.406l-0.402-1.608l-0.402-1.406l-0.603-1.206l-0.603-1.406H3.014v22.908H47.424z"
	/>
<path fill="#E5E5E5" d="M49.031,60.486l0.201-0.804l0.402-1.005l0.201-0.804l0.201-1.005v-0.804l0.201-1.005v-0.804v-1.005v-1.005
	l-0.201-1.205v-1.005l-0.201-1.005l-0.201-1.206l-0.201-1.005l-0.402-1.005l-0.201-1.004H3.014v15.875L49.031,60.486z"/>
<path fill="#FFFFFF" d="M49.835,56.466l0.201-0.804v-0.804l0.201-0.804v-0.804v-0.804l-0.201-0.804v-1.005l-0.201-0.603H3.014v6.43
	H49.835z"/>
<path fill="none" stroke="#000000" stroke-width="2" d="M3.014,28.133h22.104l5.023,0.603l4.622,1.406l4.22,2.211l3.818,3.215
	l3.014,3.617l2.412,4.22l1.407,4.823l0.603,5.023l-0.603,5.023l-1.407,4.823l-2.412,4.22l-3.014,3.617l-3.818,3.215l-4.22,2.211
	l-4.622,1.406l-5.023,0.603H3.014"/>
<path fill="#7F7F7F" d="M81.585,78.369h21.903V28.133H81.585l-5.023,0.603l-4.823,1.406l-4.22,2.211l-3.617,3.215l-3.215,3.617
	l-2.211,4.22l-1.406,4.823l-0.604,5.023l0.604,5.023l1.406,4.823l2.211,4.22l3.215,3.617l3.617,3.215l4.22,2.211l4.823,1.406
	L81.585,78.369z"/>
<path fill="#999999" d="M69.327,75.155l-2.813-1.809l-2.612-2.21l-2.211-2.412l-1.809-2.813l-1.406-3.015l-1.205-3.015l-0.604-3.215
	l-0.201-3.416l0.201-3.416l0.805-3.215l1.004-3.216l1.406-3.014l2.01-2.612l2.211-2.412l2.411-2.21l2.813-1.809h34.161v43.807
	H69.327z"/>
<path fill="#B2B2B2" d="M62.896,69.93l-1.406-1.809l-1.407-1.809l-1.004-2.01l-1.006-2.009l-0.602-2.211l-0.604-2.21l-0.201-2.211
	l-0.201-2.411l0.201-2.21l0.201-2.211l0.604-2.21l0.602-2.211l1.006-2.21l1.004-2.01l1.407-1.809l1.406-1.809h40.592V69.93H62.896z"
	/>
<path fill="#CCCCCC" d="M59.28,64.705l-0.604-1.406l-0.604-1.206l-0.401-1.406l-0.401-1.407l-0.402-1.607l-0.201-1.406l-0.201-1.608
	v-1.406v-1.406l0.201-1.608l0.201-1.406l0.402-1.406l0.401-1.608l0.401-1.406l0.604-1.206l0.604-1.406h44.208v22.908H59.28z"/>
<path fill="#E5E5E5" d="M57.672,60.486l-0.2-0.804l-0.402-1.005l-0.201-0.804v-1.005l-0.201-0.804l-0.201-1.005v-0.804v-1.005
	v-1.005l0.201-1.205v-1.005l0.201-1.005l0.201-1.206l0.201-1.005l0.401-1.005l0.201-1.004h45.615v15.875L57.672,60.486z"/>
<path fill="#FFFFFF" d="M56.667,56.466l-0.201-0.804v-0.804v-0.804v-0.804v-0.804v-0.804v-1.005l0.201-0.603h46.821v6.43H56.667z"/>
<path fill="none" stroke="#000000" stroke-width="2" d="M103.488,28.133H81.585l-5.023,0.603l-4.823,1.406l-4.22,2.211l-3.617,3.215
	l-3.215,3.617l-2.211,4.22l-1.406,4.823l-0.604,5.023l0.604,5.023l1.406,4.823l2.211,4.22l3.215,3.617l3.617,3.215l4.22,2.211
	l4.823,1.406l5.023,0.603h21.903"/>
</svg>
