<?xml version="1.0" encoding="utf-8"?>
<!-- Generator: Adobe Illustrator 14.0.0, SVG Export Plug-In . SVG Version: 6.00 Build 43363)  -->
<!DOCTYPE svg PUBLIC "-//W3C//DTD SVG 1.1//EN" "http://www.w3.org/Graphics/SVG/1.1/DTD/svg11.dtd">
<svg version="1.1" id="图层_1" xmlns="http://www.w3.org/2000/svg" xmlns:xlink="http://www.w3.org/1999/xlink" x="0px" y="0px"
	 width="106.503px" height="106.502px" viewBox="0 0 106.503 106.502" enable-background="new 0 0 106.503 106.502"
	 xml:space="preserve">
<path fill="#7F7F7F" d="M3.014,28.133h25.119V3.014H78.37v25.119h25.118v50.236H78.37v25.119H28.133V78.369H3.014V28.133z"/>
<path fill="#999999" d="M3.014,31.348h28.333V3.014h44.008v28.334h28.133v43.807H75.355v28.334H31.348V75.155H3.014V31.348z"/>
<path fill="#B2B2B2" d="M3.014,36.573h33.559V3.014h33.558v33.559h33.357V69.93H70.131v33.559H36.573V69.93H3.014V36.573z"/>
<path fill="#CCCCCC" d="M3.014,41.797h38.783V3.014h23.109v38.783h38.582v22.908H64.906v38.783H41.797V64.705H3.014V41.797z"/>
<path fill="#E5E5E5" d="M3.014,46.017h43.003V3.014h14.669v43.003h42.802v14.67H60.687v42.802H46.017V60.687H3.014V46.017z"/>
<path fill="#FFFFFF" d="M3.014,50.036h47.223V3.014h6.229v47.022h47.022v6.43H56.466v47.022h-6.229V56.466H3.014V50.036z"/>
<path fill="none" stroke="#000000" stroke-width="2" d="M3.014,28.133h25.119V3.014"/>
<path fill="none" stroke="#000000" stroke-width="2" d="M78.37,3.014v25.119h25.118"/>
<path fill="none" stroke="#000000" stroke-width="2" d="M103.488,78.369H78.37v25.119"/>
<path fill="none" stroke="#000000" stroke-width="2" d="M28.133,103.489V78.369H3.014"/>
</svg>
