<?xml version="1.0" encoding="utf-8"?>
<!-- Generator: Adobe Illustrator 14.0.0, SVG Export Plug-In . SVG Version: 6.00 Build 43363)  -->
<!DOCTYPE svg PUBLIC "-//W3C//DTD SVG 1.1//EN" "http://www.w3.org/Graphics/SVG/1.1/DTD/svg11.dtd">
<svg version="1.1" id="图层_1" xmlns="http://www.w3.org/2000/svg" xmlns:xlink="http://www.w3.org/1999/xlink" x="0px" y="0px"
	 width="106.503px" height="106.502px" viewBox="0 0 106.503 106.502" enable-background="new 0 0 106.503 106.502"
	 xml:space="preserve">
<path fill="#7F7F7F" d="M3.014,28.133h100.474v50.236H3.014V28.133z"/>
<path fill="#999999" d="M3.014,31.348h100.474v44.008H3.014V31.348z"/>
<path fill="#B2B2B2" d="M3.014,36.573h100.474v33.559H3.014V36.573z"/>
<path fill="#CCCCCC" d="M3.014,41.797h100.474v23.109H3.014V41.797z"/>
<path fill="#E5E5E5" d="M3.014,45.816h100.474v14.871H3.014V45.816z"/>
<path fill="#FFFFFF" d="M3.014,50.237h100.474v6.029H3.014V50.237z"/>
<path fill="none" stroke="#000000" stroke-width="2" d="M3.014,78.369h100.474"/>
<path fill="none" stroke="#000000" stroke-width="2" d="M103.488,28.133H3.014"/>
<path fill="#7F7F7F" d="M28.133,24.917V3.014H78.37v21.903l-0.604,5.024l-1.406,4.822l-2.211,4.22l-3.215,3.617l-3.617,3.215
	l-4.22,2.211l-4.823,1.406l-5.023,0.604l-5.023-0.604l-4.823-1.406l-4.22-2.211l-3.617-3.215l-3.215-3.617l-2.21-4.22l-1.407-4.822
	L28.133,24.917z"/>
<path fill="#999999" d="M31.348,37.376l1.809,2.813l2.21,2.411l2.412,2.211l2.813,1.809l3.014,1.406l3.015,1.206l3.215,0.603
	l3.416,0.201l3.416-0.201l3.215-0.603l3.216-1.206l3.015-1.406l2.611-1.809l2.613-2.211l2.21-2.411l1.809-2.813V3.014H31.348V37.376
	z"/>
<path fill="#B2B2B2" d="M36.573,43.606l1.808,1.406l1.809,1.407l2.01,1.005l2.21,1.005l2.009,0.603l2.21,0.603l2.21,0.201
	l2.411,0.201l2.412-0.201l2.21-0.201l2.21-0.603l2.211-0.603l2.01-0.805l2.01-1.205l1.809-1.206l1.808-1.406l0.201-40.793H36.573
	V43.606z"/>
<path fill="#CCCCCC" d="M41.797,47.223l1.406,0.603l1.206,0.604l1.406,0.603l1.608,0.401l1.407,0.201l1.406,0.201l1.608,0.201h1.406
	h1.406l1.608-0.201l1.406-0.201l1.608-0.201l1.406-0.401l1.406-0.603l1.406-0.604l1.407-0.603V3.014H41.797V47.223z"/>
<path fill="#E5E5E5" d="M46.017,49.031l0.804,0.201l1.005,0.2l0.804,0.201l1.005,0.201h0.804l1.005,0.201h0.804h1.004h1.005
	l1.206-0.201h1.004l1.006-0.201l1.205-0.201l1.005-0.2l1.005-0.201l1.004-0.201V3.014H46.017V49.031z"/>
<path fill="#FFFFFF" d="M50.237,49.835l0.603,0.201h0.804h0.804h0.804h0.805h0.803h1.005l0.603-0.201V3.014h-6.229V49.835z"/>
<path fill="none" stroke="#000000" stroke-width="2" d="M78.37,3.014v21.903l-0.604,5.024l-1.406,4.822l-2.211,4.22l-3.215,3.617
	l-3.617,3.215l-4.22,2.211l-4.823,1.406l-5.023,0.604l-5.023-0.604l-4.823-1.406l-4.22-2.211l-3.617-3.215l-3.215-3.617l-2.21-4.22
	l-1.407-4.822l-0.603-5.024V3.014"/>
<path fill="#7F7F7F" d="M28.133,81.585v21.903H78.37V81.585l-0.604-5.024l-1.406-4.822l-2.211-4.22l-3.215-3.617l-3.617-3.215
	l-4.22-2.211l-4.823-1.406l-5.023-0.604l-5.023,0.604l-4.823,1.406l-4.22,2.211l-3.617,3.215l-3.215,3.617l-2.21,4.22l-1.407,4.822
	L28.133,81.585z"/>
<path fill="#999999" d="M31.348,69.126l1.809-2.813l2.21-2.411l2.412-2.211l2.813-1.809l3.014-1.406l3.015-1.206l3.215-0.603
	l3.416-0.201l3.416,0.201l3.215,0.804l3.216,1.005l3.015,1.406l2.611,2.01l2.613,2.211l2.21,2.411l1.809,2.813v34.161H31.348V69.126
	z"/>
<path fill="#B2B2B2" d="M36.573,62.897l1.808-1.406l1.809-1.407l2.01-1.005l2.21-1.004l2.009-0.604l2.21-0.603l2.21-0.201
	l2.411-0.201l2.412,0.201l2.21,0.201l2.21,0.603l2.211,0.604l2.01,1.004l2.01,1.005l1.809,1.407l1.808,1.406l0.201,40.592H36.573
	V62.897z"/>
<path fill="#CCCCCC" d="M41.797,59.28l1.406-0.603l1.206-0.603l1.406-0.402l1.608-0.402l1.407-0.401l1.406-0.201l1.608-0.201h1.406
	h1.406l1.608,0.201l1.406,0.201l1.608,0.401l1.406,0.402l1.406,0.402l1.406,0.603l1.407,0.603v44.209H41.797V59.28z"/>
<path fill="#E5E5E5" d="M46.017,57.672l0.804-0.201l1.005-0.401l0.804-0.201l1.005-0.201h0.804l1.005-0.201h0.804h1.004h1.005
	l1.206,0.201h1.004l1.006,0.201l1.205,0.201l1.005,0.2l1.005,0.201l1.004,0.201v45.816H46.017V57.672z"/>
<path fill="#FFFFFF" d="M50.237,56.667l0.603-0.201h0.804h0.804h0.804h0.805h0.803h1.005l0.603,0.201v46.821h-6.229V56.667z"/>
<path fill="none" stroke="#000000" stroke-width="2" d="M78.37,103.489V81.585l-0.604-5.024l-1.406-4.822l-2.211-4.22l-3.215-3.617
	l-3.617-3.215l-4.22-2.211l-4.823-1.406l-5.023-0.604l-5.023,0.604l-4.823,1.406l-4.22,2.211l-3.617,3.215l-3.215,3.617l-2.21,4.22
	l-1.407,4.822l-0.603,5.024v21.903"/>
</svg>
