<?xml version="1.0" encoding="utf-8"?>
<!-- Generator: Adobe Illustrator 14.0.0, SVG Export Plug-In . SVG Version: 6.00 Build 43363)  -->
<!DOCTYPE svg PUBLIC "-//W3C//DTD SVG 1.1//EN" "http://www.w3.org/Graphics/SVG/1.1/DTD/svg11.dtd">
<svg version="1.1" id="图层_1" xmlns="http://www.w3.org/2000/svg" xmlns:xlink="http://www.w3.org/1999/xlink" x="0px" y="0px"
	 width="144.749px" height="67.953px" viewBox="0 0 144.749 67.953" enable-background="new 0 0 144.749 67.953"
	 xml:space="preserve">
<path fill="#FFFFFF" stroke="#000000" stroke-width="2" d="M8.115,21.299h64.187l62.013-8.549v42.598l-62.013-8.403H8.115V21.299z"
	/>
<path fill="#E5E5E5" d="M8.985,46.365v-6.52h63.317l61.434,3.188v11.736l-61.434-8.404H8.985z"/>
<path fill="#E5E5E5" stroke="#000000" stroke-width="2" d="M4.059,12.75h4.057v42.598H4.059V12.75z"/>
<path fill="#E5E5E5" stroke="#000000" stroke-width="2" d="M134.026,4.057h6.52v59.84h-6.52V4.057z"/>
<path fill="#666666" stroke="#000000" stroke-width="2" d="M68.969,12.75h6.665v42.598h-6.665V12.75z"/>
<path fill="#CCCCCC" d="M134.605,45.785h5.361v17.531h-5.361V45.785z"/>
<path fill="#CCCCCC" d="M4.638,43.032h3.188v11.736H4.638V43.032z"/>
<path fill="#FFFFFF" d="M134.605,4.637h5.361v12.17h-5.361V4.637z"/>
<path fill="#FFFFFF" d="M4.638,13.33h3.188v7.969H4.638V13.33z"/>
<path fill="#4C4C4C" d="M69.549,43.032h5.506v11.736h-5.506V43.032z"/>
<path fill="#999999" d="M69.549,13.33h5.506v10.142h-5.506V13.33z"/>
<path fill="#CCCCCC" stroke="#000000" stroke-width="2" d="M8.406,49.407h1.884v1.594H8.406V49.407z"/>
<path fill="#CCCCCC" stroke="#000000" stroke-width="2" d="M8.406,14.634h1.884v1.738H8.406V14.634z"/>
<path fill="#CCCCCC" stroke="#000000" stroke-width="2" d="M8.406,30.717h1.884v1.738H8.406V30.717z"/>
<path fill="#CCCCCC" stroke="#000000" stroke-width="2" d="M132.142,57.522h2.173v1.448h-2.173V57.522z"/>
<path fill="#CCCCCC" stroke="#000000" stroke-width="2" d="M132.142,40.28h2.173v1.738h-2.173V40.28z"/>
<path fill="#CCCCCC" stroke="#000000" stroke-width="2" d="M132.142,22.893h2.173v1.594h-2.173V22.893z"/>
<path fill="#CCCCCC" stroke="#000000" stroke-width="2" d="M132.142,6.231h2.173v1.594h-2.173V6.231z"/>
<path fill="#999999" stroke="#000000" stroke-width="2" d="M132.142,7.824h2.173v2.753h-2.173V7.824z"/>
<path fill="#999999" stroke="#000000" stroke-width="2" d="M132.142,24.487h2.173v2.463h-2.173V24.487z"/>
<path fill="#999999" stroke="#000000" stroke-width="2" d="M132.142,42.018h2.173v2.753h-2.173V42.018z"/>
<path fill="#999999" stroke="#000000" stroke-width="2" d="M132.142,58.97h2.173v2.608h-2.173V58.97z"/>
<path fill="#999999" stroke="#000000" stroke-width="2" d="M8.406,32.455h1.884v2.753H8.406V32.455z"/>
<path fill="#999999" stroke="#000000" stroke-width="2" d="M8.406,16.372h1.884v2.608H8.406V16.372z"/>
<path fill="#999999" stroke="#000000" stroke-width="2" d="M8.406,51.001h1.884v2.753H8.406V51.001z"/>
</svg>
