<?xml version="1.0" encoding="utf-8"?>
<!-- Generator: Adobe Illustrator 14.0.0, SVG Export Plug-In . SVG Version: 6.00 Build 43363)  -->
<!DOCTYPE svg PUBLIC "-//W3C//DTD SVG 1.1//EN" "http://www.w3.org/Graphics/SVG/1.1/DTD/svg11.dtd">
<svg version="1.1" id="图层_1" xmlns="http://www.w3.org/2000/svg" xmlns:xlink="http://www.w3.org/1999/xlink" x="0px" y="0px"
	 width="144.749px" height="67.953px" viewBox="0 0 144.749 67.953" enable-background="new 0 0 144.749 67.953"
	 xml:space="preserve">
<path fill="#7F7F7F" d="M4.059,46.655V21.009h68.243l62.593-8.549v42.599l-62.593-8.404H4.059z"/>
<path fill="#999999" d="M4.059,45.061V22.893h68.243l62.593-7.68v37.093l-62.593-7.245H4.059z"/>
<path fill="#B2B2B2" d="M4.059,42.598V25.356h68.243l62.593-5.796v28.399l-62.593-5.361H4.059z"/>
<path fill="#CCCCCC" d="M4.059,39.845V27.819h68.243l62.593-3.912v19.995l-62.593-4.057H4.059z"/>
<path fill="#E5E5E5" d="M4.059,37.671v-7.679h68.243l62.593-2.463v12.895l-62.593-2.753H4.059z"/>
<path fill="#FFFFFF" d="M4.059,35.208v-2.753h68.243l62.593-0.869v4.347l-62.593-0.725H4.059z"/>
<path fill="none" stroke="#000000" stroke-width="2" d="M4.059,46.655V21.009h68.243l62.593-8.549v42.599l-62.593-8.404H4.059"/>
<path fill="#CCCCCC" stroke="#000000" stroke-width="2" d="M8.406,49.407h1.884v1.594H8.406V49.407z"/>
<path fill="#CCCCCC" stroke="#000000" stroke-width="2" d="M8.406,14.634h1.884v1.738H8.406V14.634z"/>
<path fill="#CCCCCC" stroke="#000000" stroke-width="2" d="M8.406,30.862h1.884v1.594H8.406V30.862z"/>
<path fill="#CCCCCC" stroke="#000000" stroke-width="2" d="M132.142,57.522h2.173v1.448h-2.173V57.522z"/>
<path fill="#CCCCCC" stroke="#000000" stroke-width="2" d="M132.142,40.424h2.173v1.594h-2.173V40.424z"/>
<path fill="#CCCCCC" stroke="#000000" stroke-width="2" d="M132.142,22.893h2.173v1.594h-2.173V22.893z"/>
<path fill="#CCCCCC" stroke="#000000" stroke-width="2" d="M132.142,6.231h2.173v1.594h-2.173V6.231z"/>
<path fill="#999999" stroke="#000000" stroke-width="2" d="M132.142,7.824h2.173v2.753h-2.173V7.824z"/>
<path fill="#999999" stroke="#000000" stroke-width="2" d="M132.142,24.487h2.173v2.463h-2.173V24.487z"/>
<path fill="#999999" stroke="#000000" stroke-width="2" d="M132.142,42.018h2.173v2.753h-2.173V42.018z"/>
<path fill="#999999" stroke="#000000" stroke-width="2" d="M132.142,58.97h2.173v2.753h-2.173V58.97z"/>
<path fill="#999999" stroke="#000000" stroke-width="2" d="M8.406,32.455h1.884v2.753H8.406V32.455z"/>
<path fill="#999999" stroke="#000000" stroke-width="2" d="M8.406,16.372h1.884v2.608H8.406V16.372z"/>
<path fill="#999999" stroke="#000000" stroke-width="2" d="M8.406,51.001h1.884v2.753H8.406V51.001z"/>
<path fill="#7F7F7F" d="M4.059,12.75h4.347v42.598H4.059V12.75z"/>
<path fill="#999999" d="M4.059,15.503h4.347v37.092H4.059V15.503z"/>
<path fill="#B2B2B2" d="M4.059,20.14h4.347v28.108H4.059V20.14z"/>
<path fill="#CCCCCC" d="M4.059,24.197h4.347v19.415H4.059V24.197z"/>
<path fill="#E5E5E5" d="M4.059,27.819h4.347v12.316H4.059V27.819z"/>
<path fill="#FFFFFF" d="M4.059,31.586h4.347v4.926H4.059V31.586z"/>
<path fill="none" stroke="#000000" stroke-width="2" d="M4.059,12.46h4.057v42.888H4.059V12.46"/>
<path fill="#7F7F7F" d="M69.259,12.75h5.796v42.598h-5.796V12.75z"/>
<path fill="#999999" d="M69.259,15.503h5.796v37.092h-5.796V15.503z"/>
<path fill="#B2B2B2" d="M69.259,20.14h5.796v28.108h-5.796V20.14z"/>
<path fill="#CCCCCC" d="M69.259,24.197h5.796v19.415h-5.796V24.197z"/>
<path fill="#E5E5E5" d="M69.259,27.819h5.796v12.316h-5.796V27.819z"/>
<path fill="#FFFFFF" d="M69.259,31.586h5.796v4.926h-5.796V31.586z"/>
<path fill="none" stroke="#000000" stroke-width="2" d="M69.259,12.46h5.796v42.888h-5.796V12.46"/>
<path fill="#7F7F7F" d="M134.026,4.347h6.52v59.55h-6.52V4.347z"/>
<path fill="#999999" d="M134.026,8.114h6.52v52.161h-6.52V8.114z"/>
<path fill="#B2B2B2" d="M134.026,14.344h6.52v39.7h-6.52V14.344z"/>
<path fill="#CCCCCC" d="M134.026,20.43h6.52v27.384h-6.52V20.43z"/>
<path fill="#E5E5E5" d="M134.026,25.356h6.52v17.532h-6.52V25.356z"/>
<path fill="#FFFFFF" d="M134.026,30.572h6.52v7.1h-6.52V30.572z"/>
<path fill="none" stroke="#000000" stroke-width="2" d="M134.026,4.057h6.52v59.84h-6.52V4.057"/>
</svg>
