<?xml version="1.0" encoding="utf-8"?>
<!-- Generator: Adobe Illustrator 14.0.0, SVG Export Plug-In . SVG Version: 6.00 Build 43363)  -->
<!DOCTYPE svg PUBLIC "-//W3C//DTD SVG 1.1//EN" "http://www.w3.org/Graphics/SVG/1.1/DTD/svg11.dtd">
<svg version="1.1" id="图层_1" xmlns="http://www.w3.org/2000/svg" xmlns:xlink="http://www.w3.org/1999/xlink" x="0px" y="0px"
	 width="106.503px" height="106.502px" viewBox="0 0 106.503 106.502" enable-background="new 0 0 106.503 106.502"
	 xml:space="preserve">
<path fill="#7F7F7F" d="M3.014,103.489V3.014l100.474,18.89v62.695L3.014,103.489z"/>
<path fill="#999999" d="M3.014,95.652V10.851l100.474,15.875v53.051L3.014,95.652z"/>
<path fill="#B2B2B2" d="M3.014,86.206v-65.91l100.474,12.258v41.395L3.014,86.206z"/>
<path fill="#CCCCCC" d="M3.014,73.748V32.754l100.474,7.637v25.721L3.014,73.748z"/>
<path fill="#E5E5E5" d="M3.014,62.696V43.807l100.474,3.617v11.654L3.014,62.696z"/>
<path fill="#FFFFFF" d="M3.014,54.859v-3.215l100.474,0.603v2.01L3.014,54.859z"/>
<path fill="none" stroke="#000000" stroke-width="2" d="M3.014,103.489V3.014l100.474,18.89v62.695L3.014,103.489"/>
</svg>
