<?xml version="1.0" encoding="utf-8"?>
<!-- Generator: Adobe Illustrator 14.0.0, SVG Export Plug-In . SVG Version: 6.00 Build 43363)  -->
<!DOCTYPE svg PUBLIC "-//W3C//DTD SVG 1.1//EN" "http://www.w3.org/Graphics/SVG/1.1/DTD/svg11.dtd">
<svg version="1.1" id="图层_1" xmlns="http://www.w3.org/2000/svg" xmlns:xlink="http://www.w3.org/1999/xlink" x="0px" y="0px"
	 width="106.503px" height="106.502px" viewBox="0 0 106.503 106.502" enable-background="new 0 0 106.503 106.502"
	 xml:space="preserve">
<path fill="#7F7F7F" d="M103.488,53.251v50.237H3.014l50.237-50.237H103.488z"/>
<path fill="#7F7F7F" d="M53.251,3.014H3.014v100.475l50.237-50.237V3.014z"/>
<path fill="#999999" d="M103.488,100.273V56.466H50.237L6.229,100.273H103.488z"/>
<path fill="#999999" d="M6.229,3.014h44.007v53.452L6.229,100.273V3.014z"/>
<path fill="#B2B2B2" d="M103.488,95.048V61.691H45.012L11.454,95.048H103.488z"/>
<path fill="#B2B2B2" d="M11.454,3.014h33.558v58.677L11.454,95.048V3.014z"/>
<path fill="#CCCCCC" d="M103.488,89.823V66.915H39.788L16.679,89.823H103.488z"/>
<path fill="#CCCCCC" d="M16.679,3.014h23.109v63.901L16.679,89.823V3.014z"/>
<path fill="#E5E5E5" d="M103.488,85.604V71.136h-67.92L20.898,85.604H103.488z"/>
<path fill="#E5E5E5" d="M20.898,3.014h14.669v67.921L20.898,85.604V3.014z"/>
<path fill="#FFFFFF" d="M103.488,81.585v-6.431H31.348l-6.229,6.431H103.488z"/>
<path fill="#FFFFFF" d="M25.119,3.014h6.229v72.141l-6.229,6.431V3.014z"/>
<path fill="none" stroke="#000000" stroke-width="2" d="M3.014,3.014v100.475"/>
<path fill="none" stroke="#000000" stroke-width="2" d="M53.251,53.251V3.014"/>
<path fill="none" stroke="#000000" stroke-width="2" d="M103.488,103.489H3.014"/>
<path fill="none" stroke="#000000" stroke-width="2" d="M53.251,53.251h50.237"/>
</svg>
