<?xml version="1.0" encoding="utf-8"?>
<!-- Generator: Adobe Illustrator 14.0.0, SVG Export Plug-In . SVG Version: 6.00 Build 43363)  -->
<!DOCTYPE svg PUBLIC "-//W3C//DTD SVG 1.1//EN" "http://www.w3.org/Graphics/SVG/1.1/DTD/svg11.dtd">
<svg version="1.1" id="图层_1" xmlns="http://www.w3.org/2000/svg" xmlns:xlink="http://www.w3.org/1999/xlink" x="0px" y="0px"
	 width="106.503px" height="106.502px" viewBox="0 0 106.503 106.502" enable-background="new 0 0 106.503 106.502"
	 xml:space="preserve">
<path fill="#7F7F7F" d="M53.251,103.489H3.215V3.014l50.036,50.237V103.489z"/>
<path fill="#7F7F7F" d="M103.488,53.251V3.014H3.014l50.237,50.237H103.488z"/>
<path fill="#999999" d="M6.229,103.489h43.807V50.036L6.229,6.23V103.489z"/>
<path fill="#999999" d="M103.488,6.23v43.807H50.237L6.229,6.23H103.488z"/>
<path fill="#B2B2B2" d="M11.454,103.489h33.357V44.812L11.454,11.454V103.489z"/>
<path fill="#B2B2B2" d="M103.488,11.454v33.357H45.012L11.454,11.454H103.488z"/>
<path fill="#CCCCCC" d="M16.679,103.489h22.908V39.587L16.679,16.679V103.489z"/>
<path fill="#CCCCCC" d="M103.488,16.679v22.908H39.788L16.679,16.679H103.488z"/>
<path fill="#E5E5E5" d="M20.898,103.489h14.669V35.366L20.898,20.698V103.489z"/>
<path fill="#E5E5E5" d="M103.488,20.698v14.669h-67.92L20.898,20.698H103.488z"/>
<path fill="#FFFFFF" d="M25.119,103.489h6.229V31.348l-6.229-6.431V103.489z"/>
<path fill="#FFFFFF" d="M103.488,24.917v6.431H31.348l-6.229-6.431H103.488z"/>
<path fill="none" stroke="#000000" stroke-width="2" d="M103.488,3.014H3.014"/>
<path fill="none" stroke="#000000" stroke-width="2" d="M53.251,53.251h50.237"/>
<path fill="none" stroke="#000000" stroke-width="2" d="M3.014,103.489V3.014"/>
<path fill="none" stroke="#000000" stroke-width="2" d="M53.251,53.251v50.237"/>
</svg>
