<?xml version="1.0" encoding="utf-8"?>
<!-- Generator: Adobe Illustrator 14.0.0, SVG Export Plug-In . SVG Version: 6.00 Build 43363)  -->
<!DOCTYPE svg PUBLIC "-//W3C//DTD SVG 1.1//EN" "http://www.w3.org/Graphics/SVG/1.1/DTD/svg11.dtd">
<svg version="1.1" id="图层_1" xmlns="http://www.w3.org/2000/svg" xmlns:xlink="http://www.w3.org/1999/xlink" x="0px" y="0px"
	 width="106.503px" height="106.502px" viewBox="0 0 106.503 106.502" enable-background="new 0 0 106.503 106.502"
	 xml:space="preserve">
<path fill="#7F7F7F" d="M53.452,3.014h50.036v100.475L53.452,53.251V3.014z"/>
<path fill="#7F7F7F" d="M3.014,53.251v50.237h100.474L53.251,53.251H3.014z"/>
<path fill="#999999" d="M100.272,3.014H56.466v53.452l43.807,43.807V3.014z"/>
<path fill="#999999" d="M3.014,100.273V56.466h53.452l44.008,43.807H3.014z"/>
<path fill="#B2B2B2" d="M95.048,3.014H61.69v58.677l33.357,33.357V3.014z"/>
<path fill="#B2B2B2" d="M3.014,95.048V61.691H61.69l33.559,33.357H3.014z"/>
<path fill="#CCCCCC" d="M89.823,3.014H66.915v63.901l22.908,22.908V3.014z"/>
<path fill="#CCCCCC" d="M3.014,89.823V66.915h63.901l23.109,22.908H3.014z"/>
<path fill="#E5E5E5" d="M85.805,3.014H71.136v67.921l14.669,14.669V3.014z"/>
<path fill="#E5E5E5" d="M3.014,85.604V70.935h68.122l14.669,14.669H3.014z"/>
<path fill="#FFFFFF" d="M81.585,3.014h-6.229v72.141l6.229,6.431V3.014z"/>
<path fill="#FFFFFF" d="M3.014,81.585v-6.431h72.341l6.229,6.431H3.014z"/>
<path fill="none" stroke="#000000" stroke-width="2" d="M3.014,103.489h100.474"/>
<path fill="none" stroke="#000000" stroke-width="2" d="M53.251,53.251H3.014"/>
<path fill="none" stroke="#000000" stroke-width="2" d="M103.488,3.014v100.475"/>
<path fill="none" stroke="#000000" stroke-width="2" d="M53.452,53.251V3.014"/>
</svg>
