<?xml version="1.0" encoding="utf-8"?>
<!-- Generator: Adobe Illustrator 14.0.0, SVG Export Plug-In . SVG Version: 6.00 Build 43363)  -->
<!DOCTYPE svg PUBLIC "-//W3C//DTD SVG 1.1//EN" "http://www.w3.org/Graphics/SVG/1.1/DTD/svg11.dtd">
<svg version="1.1" id="图层_1" xmlns="http://www.w3.org/2000/svg" xmlns:xlink="http://www.w3.org/1999/xlink" x="0px" y="0px"
	 width="106.503px" height="106.502px" viewBox="0 0 106.503 106.502" enable-background="new 0 0 106.503 106.502"
	 xml:space="preserve">
<path fill="#7F7F7F" d="M3.014,53.251V3.014h100.474L53.251,53.251H3.014z"/>
<path fill="#7F7F7F" d="M53.251,103.489h50.237V3.014L53.251,53.251V103.489z"/>
<path fill="#999999" d="M3.014,6.23v43.807h53.452L100.474,6.23H3.014z"/>
<path fill="#999999" d="M100.474,103.489H56.466V50.036L100.474,6.23V103.489z"/>
<path fill="#B2B2B2" d="M3.014,11.454v33.357H61.69l33.559-33.357H3.014z"/>
<path fill="#B2B2B2" d="M95.249,103.489H61.69V44.812l33.559-33.357V103.489z"/>
<path fill="#CCCCCC" d="M3.014,16.679v22.908h63.901l23.109-22.908H3.014z"/>
<path fill="#CCCCCC" d="M90.024,103.489H66.915V39.587l23.109-22.908V103.489z"/>
<path fill="#E5E5E5" d="M3.014,20.899v14.468h68.122l14.669-14.468H3.014z"/>
<path fill="#E5E5E5" d="M85.805,103.489H71.136V35.366l14.669-14.669V103.489z"/>
<path fill="#FFFFFF" d="M3.014,24.917v6.431h72.341l6.229-6.431H3.014z"/>
<path fill="#FFFFFF" d="M81.585,103.489h-6.229V31.348l6.229-6.431V103.489z"/>
<path fill="none" stroke="#000000" stroke-width="2" d="M103.488,103.489V3.014"/>
<path fill="none" stroke="#000000" stroke-width="2" d="M53.251,53.251v50.237"/>
<path fill="none" stroke="#000000" stroke-width="2" d="M3.014,3.014h100.474"/>
<path fill="none" stroke="#000000" stroke-width="2" d="M53.251,53.251H3.014"/>
</svg>
