<?xml version="1.0" encoding="utf-8"?>
<!-- Generator: Adobe Illustrator 14.0.0, SVG Export Plug-In . SVG Version: 6.00 Build 43363)  -->
<!DOCTYPE svg PUBLIC "-//W3C//DTD SVG 1.1//EN" "http://www.w3.org/Graphics/SVG/1.1/DTD/svg11.dtd">
<svg version="1.1" id="图层_1" xmlns="http://www.w3.org/2000/svg" xmlns:xlink="http://www.w3.org/1999/xlink" x="0px" y="0px"
	 width="106.503px" height="106.502px" viewBox="0 0 106.503 106.502" enable-background="new 0 0 106.503 106.502"
	 xml:space="preserve">
<path fill="#7F7F7F" d="M3.014,78.369h50.237v25.119h50.237V3.014H53.251v25.119H3.014V78.369z"/>
<path fill="#999999" d="M3.014,75.155h53.452v28.334h44.008V3.014H56.466v28.334H3.014V75.155z"/>
<path fill="#B2B2B2" d="M3.014,69.93H61.69v33.559h33.559V3.014H61.69v33.559H3.014V69.93z"/>
<path fill="#CCCCCC" d="M3.014,64.705h63.901v38.783h23.109V3.014H66.915v38.783H3.014V64.705z"/>
<path fill="#E5E5E5" d="M3.014,60.687h68.122v42.802h14.669V3.014H71.136v41.798H3.014V60.687z"/>
<path fill="#FFFFFF" d="M3.014,56.466h72.341v47.022h6.229V3.014h-6.229v47.022H3.014V56.466z"/>
<path fill="none" stroke="#000000" stroke-width="2" d="M3.014,78.369h50.237v25.119"/>
<path fill="none" stroke="#000000" stroke-width="2" d="M3.014,28.133h50.237V3.014"/>
<path fill="none" stroke="#000000" stroke-width="2" d="M103.488,3.014v100.475"/>
</svg>
