<?xml version="1.0" encoding="utf-8"?>
<!-- Generator: Adobe Illustrator 14.0.0, SVG Export Plug-In . SVG Version: 6.00 Build 43363)  -->
<!DOCTYPE svg PUBLIC "-//W3C//DTD SVG 1.1//EN" "http://www.w3.org/Graphics/SVG/1.1/DTD/svg11.dtd">
<svg version="1.1" id="图层_1" xmlns="http://www.w3.org/2000/svg" xmlns:xlink="http://www.w3.org/1999/xlink" x="0px" y="0px"
	 width="106.503px" height="106.502px" viewBox="0 0 106.503 106.502" enable-background="new 0 0 106.503 106.502"
	 xml:space="preserve">
<path fill="#7F7F7F" d="M28.133,3.014v50.237H3.014v50.237h100.474V53.251H78.37V3.014H28.133z"/>
<path fill="#999999" d="M31.348,3.014v53.452H3.014v43.807h100.474V56.466H75.355V3.014H31.348z"/>
<path fill="#B2B2B2" d="M36.573,3.014v58.677H3.014v33.357h100.474V61.691H70.131V3.014H36.573z"/>
<path fill="#CCCCCC" d="M41.797,3.014v63.901H3.014v22.908h100.474V66.915H64.906V3.014H41.797z"/>
<path fill="#E5E5E5" d="M46.017,3.014v68.122H3.014v14.669h100.474V71.136H61.69V3.014H46.017z"/>
<path fill="#FFFFFF" d="M50.237,3.014v72.141H3.014v6.431h100.474v-6.431H56.466V3.014H50.237z"/>
<path fill="none" stroke="#000000" stroke-width="2" d="M28.133,3.014v50.237H3.014"/>
<path fill="none" stroke="#000000" stroke-width="2" d="M78.37,3.014v50.237h25.118"/>
<path fill="none" stroke="#000000" stroke-width="2" d="M103.488,103.489H3.014"/>
</svg>
