<?xml version="1.0" encoding="utf-8"?>
<!-- Generator: Adobe Illustrator 14.0.0, SVG Export Plug-In . SVG Version: 6.00 Build 43363)  -->
<!DOCTYPE svg PUBLIC "-//W3C//DTD SVG 1.1//EN" "http://www.w3.org/Graphics/SVG/1.1/DTD/svg11.dtd">
<svg version="1.1" id="图层_1" xmlns="http://www.w3.org/2000/svg" xmlns:xlink="http://www.w3.org/1999/xlink" x="0px" y="0px"
	 width="106.503px" height="106.502px" viewBox="0 0 106.503 106.502" enable-background="new 0 0 106.503 106.502"
	 xml:space="preserve">
<path fill="#7F7F7F" d="M3.014,53.251h100.474v50.237H3.014V53.251z"/>
<path fill="#999999" d="M3.014,56.466h100.474v44.008H3.014V56.466z"/>
<path fill="#B2B2B2" d="M3.014,61.691h100.474v33.559H3.014V61.691z"/>
<path fill="#CCCCCC" d="M3.014,66.915h100.474v23.109H3.014V66.915z"/>
<path fill="#E5E5E5" d="M3.014,70.935h100.474v14.87H3.014V70.935z"/>
<path fill="#FFFFFF" d="M3.014,75.356h100.474v6.028H3.014V75.356z"/>
<path fill="none" stroke="#000000" stroke-width="2" d="M3.014,103.489h100.474"/>
<path fill="none" stroke="#000000" stroke-width="2" d="M103.488,53.251H3.014"/>
<path fill="#7F7F7F" d="M28.133,53.251V3.014H78.37v50.237l-0.604,5.023l-1.406,4.823l-2.211,4.22l-3.215,3.617l-3.617,3.215
	l-4.22,2.211l-4.823,1.406l-5.023,0.603l-5.023-0.603l-4.823-1.406l-4.22-2.211l-3.617-3.215l-3.215-3.617l-2.21-4.22l-1.407-4.823
	L28.133,53.251z"/>
<path fill="#999999" d="M31.348,65.509l1.809,2.813l2.21,2.612l2.412,2.21l2.813,1.809l3.014,1.407l3.015,1.205l3.215,0.604
	l3.416,0.2l3.416-0.2l3.215-0.805l3.216-1.004l3.015-1.407l2.611-2.009l2.412-2.211l2.211-2.411l1.808-2.813V3.014H31.348V65.509z"
	/>
<path fill="#B2B2B2" d="M36.573,71.94l1.808,1.406l1.809,1.406l2.01,1.005l2.21,1.005l2.009,0.603l2.21,0.604l2.21,0.201l2.411,0.2
	l2.211-0.2l2.411-0.201l2.21-0.604l2.211-0.603l2.01-1.005l2.01-1.005l1.809-1.406l1.808-1.406V3.014H36.573V71.94z"/>
<path fill="#CCCCCC" d="M41.797,75.557l1.406,0.603l1.206,0.603l1.406,0.402l1.608,0.401l1.407,0.402l1.406,0.201l1.608,0.2h1.406
	h1.406l1.608-0.2l1.406-0.201l1.608-0.402l1.406-0.401l1.406-0.402l1.206-0.603l1.406-0.603V3.014H41.797V75.557z"/>
<path fill="#E5E5E5" d="M46.017,77.164l0.804,0.2l1.005,0.402l0.804,0.201h1.005l0.804,0.201l1.005,0.2h0.804h1.004h1.005l1.206-0.2
	h1.004l1.006-0.201l1.205-0.201l1.005-0.201l1.005-0.401l1.004-0.201V3.014H46.017V77.164z"/>
<path fill="#FFFFFF" d="M50.036,78.169l0.804,0.2h0.804h0.804h0.804h0.805h0.803h1.005l0.603-0.2V3.014h-6.43V78.169z"/>
<path fill="none" stroke="#000000" stroke-width="2" d="M78.37,3.014v50.237l-0.604,5.023l-1.406,4.823l-2.211,4.22l-3.215,3.617
	l-3.617,3.215l-4.22,2.211l-4.823,1.406l-5.023,0.603l-5.023-0.603l-4.823-1.406l-4.22-2.211l-3.617-3.215l-3.215-3.617l-2.21-4.22
	l-1.407-4.823l-0.603-5.023V3.014"/>
</svg>
