<?xml version="1.0" encoding="utf-8"?>
<!-- Generator: Adobe Illustrator 14.0.0, SVG Export Plug-In . SVG Version: 6.00 Build 43363)  -->
<!DOCTYPE svg PUBLIC "-//W3C//DTD SVG 1.1//EN" "http://www.w3.org/Graphics/SVG/1.1/DTD/svg11.dtd">
<svg version="1.1" id="图层_1" xmlns="http://www.w3.org/2000/svg" xmlns:xlink="http://www.w3.org/1999/xlink" x="0px" y="0px"
	 width="106.503px" height="106.502px" viewBox="0 0 106.503 106.502" enable-background="new 0 0 106.503 106.502"
	 xml:space="preserve">
<path fill="#7F7F7F" d="M103.488,28.133H53.251V3.014H3.014v100.475h50.237V78.369h50.237V28.133z"/>
<path fill="#999999" d="M103.488,31.348H50.237V3.014H6.229v100.475h44.007V75.155h53.251V31.348z"/>
<path fill="#B2B2B2" d="M103.488,36.573H45.012V3.014H11.454v100.475h33.558V69.93h58.476V36.573z"/>
<path fill="#CCCCCC" d="M103.488,41.797H39.788V3.014H16.679v100.475h23.109V64.705h63.701V41.797z"/>
<path fill="#E5E5E5" d="M103.488,46.017h-67.92V3.014H20.898v100.475h14.669V61.691h67.92V46.017z"/>
<path fill="#FFFFFF" d="M103.488,50.036H31.348V3.014h-6.229v100.475h6.229V56.466h72.141V50.036z"/>
<path fill="none" stroke="#000000" stroke-width="2" d="M103.488,28.133H53.251V3.014"/>
<path fill="none" stroke="#000000" stroke-width="2" d="M103.488,78.369H53.251v25.119"/>
<path fill="none" stroke="#000000" stroke-width="2" d="M3.014,103.489V3.014"/>
</svg>
