<?xml version="1.0" encoding="utf-8"?>
<!-- Generator: Adobe Illustrator 14.0.0, SVG Export Plug-In . SVG Version: 6.00 Build 43363)  -->
<!DOCTYPE svg PUBLIC "-//W3C//DTD SVG 1.1//EN" "http://www.w3.org/Graphics/SVG/1.1/DTD/svg11.dtd">
<svg version="1.1" id="图层_1" xmlns="http://www.w3.org/2000/svg" xmlns:xlink="http://www.w3.org/1999/xlink" x="0px" y="0px"
	 width="106.503px" height="106.502px" viewBox="0 0 106.503 106.502" enable-background="new 0 0 106.503 106.502"
	 xml:space="preserve">
<path fill="#7F7F7F" d="M103.488,53.251H3.014V3.014h100.474V53.251z"/>
<path fill="#999999" d="M103.488,50.036H3.014V6.029h100.474V50.036z"/>
<path fill="#B2B2B2" d="M103.488,44.812H3.014V11.454h100.474V44.812z"/>
<path fill="#CCCCCC" d="M103.488,39.587H3.014V16.679h100.474V39.587z"/>
<path fill="#E5E5E5" d="M103.488,35.568H3.014V20.899h100.474V35.568z"/>
<path fill="#FFFFFF" d="M103.488,31.147H3.014v-6.028h100.474V31.147z"/>
<path fill="none" stroke="#000000" stroke-width="2" d="M103.488,3.014H3.014"/>
<path fill="none" stroke="#000000" stroke-width="2" d="M3.014,53.251h100.474"/>
<path fill="#7F7F7F" d="M78.37,53.251v50.237H28.133V53.251l0.603-5.023l1.407-4.823l2.21-4.22l3.215-3.617l3.617-3.215l4.22-2.211
	l4.823-1.406l5.023-0.603l5.023,0.603l4.823,1.406l4.22,2.211l3.617,3.215l3.215,3.617l2.211,4.22l1.406,4.823L78.37,53.251z"/>
<path fill="#999999" d="M75.154,40.993l-1.808-2.813l-2.211-2.612l-2.412-2.21l-2.813-1.809l-3.015-1.407l-3.015-1.205l-3.215-0.604
	l-3.416-0.2l-3.416,0.2l-3.215,0.805l-3.215,1.004l-2.813,1.407l-2.813,2.009l-2.412,2.211l-2.21,2.411l-1.809,2.813v62.495h43.807
	V40.993z"/>
<path fill="#B2B2B2" d="M69.93,34.563l-1.808-1.406l-1.809-1.406l-2.01-1.005l-2.01-1.005l-2.211-0.603l-2.21-0.604l-2.21-0.201
	l-2.412-0.2l-2.21,0.2l-2.21,0.201l-2.21,0.604l-2.21,0.603l-2.21,1.005l-2.01,1.005l-1.809,1.406l-1.808,1.406v68.926H69.93V34.563
	z"/>
<path fill="#CCCCCC" d="M64.705,30.946l-1.406-0.603l-1.206-0.603l-1.406-0.402l-1.406-0.401l-1.608-0.402l-1.406-0.201l-1.608-0.2
	h-1.406h-1.406l-1.608,0.2l-1.406,0.201l-1.407,0.402l-1.608,0.401L44.41,29.74l-1.206,0.603l-1.406,0.603v72.543h22.908V30.946z"/>
<path fill="#E5E5E5" d="M60.485,29.338l-0.804-0.2l-1.005-0.402l-0.804-0.201l-1.005-0.201h-0.804l-1.005-0.2h-0.804h-1.005h-1.004
	l-1.206,0.2h-1.005l-1.005,0.201l-1.206,0.201l-1.005,0.201l-1.005,0.401l-1.004,0.201v73.949h15.875L60.485,29.338z"/>
<path fill="#FFFFFF" d="M56.466,28.333h-0.803l-0.805-0.2h-0.803h-0.805h-0.804h-0.804l-1.005,0.2h-0.603v75.155h6.43V28.333z"/>
<path fill="none" stroke="#000000" stroke-width="2" d="M28.133,103.489V53.251l0.603-5.023l1.407-4.823l2.21-4.22l3.215-3.617
	l3.617-3.215l4.22-2.211l4.823-1.406l5.023-0.603l5.023,0.603l4.823,1.406l4.22,2.211l3.617,3.215l3.215,3.617l2.211,4.22
	l1.406,4.823l0.604,5.023v50.237"/>
</svg>
