<?xml version="1.0" encoding="utf-8"?>
<!-- Generator: Adobe Illustrator 14.0.0, SVG Export Plug-In . SVG Version: 6.00 Build 43363)  -->
<!DOCTYPE svg PUBLIC "-//W3C//DTD SVG 1.1//EN" "http://www.w3.org/Graphics/SVG/1.1/DTD/svg11.dtd">
<svg version="1.1" id="图层_1" xmlns="http://www.w3.org/2000/svg" xmlns:xlink="http://www.w3.org/1999/xlink" x="0px" y="0px"
	 width="106.503px" height="106.502px" viewBox="0 0 106.503 106.502" enable-background="new 0 0 106.503 106.502"
	 xml:space="preserve">
<path fill="#7F7F7F" d="M53.251,3.014v100.475H3.014V3.014H53.251z"/>
<path fill="#999999" d="M50.036,3.014v100.475H6.028V3.014H50.036z"/>
<path fill="#B2B2B2" d="M44.812,3.014v100.475H11.454V3.014H44.812z"/>
<path fill="#CCCCCC" d="M39.587,3.014v100.475H16.679V3.014H39.587z"/>
<path fill="#E5E5E5" d="M35.568,3.014v100.475H20.898V3.014H35.568z"/>
<path fill="#FFFFFF" d="M31.147,3.014v100.475h-6.028V3.014H31.147z"/>
<path fill="none" stroke="#000000" stroke-width="2" d="M3.014,3.014v100.475"/>
<path fill="none" stroke="#000000" stroke-width="2" d="M53.251,103.489V3.014"/>
<path fill="#7F7F7F" d="M53.251,28.133h50.237v50.236H53.251l-5.023-0.603l-4.823-1.406l-4.22-2.211l-3.617-3.215l-3.215-3.617
	l-2.21-4.22l-1.407-4.823l-0.603-5.023l0.603-5.023l1.407-4.823l2.21-4.22l3.215-3.617l3.617-3.215l4.22-2.211l4.823-1.406
	L53.251,28.133z"/>
<path fill="#999999" d="M40.993,31.348l-2.813,1.809l-2.612,2.21l-2.21,2.412l-1.809,2.813l-1.407,3.015l-1.206,3.015l-0.603,3.215
	l-0.201,3.416l0.201,3.416l0.804,3.215l1.005,3.216l1.407,2.813l2.009,2.813l2.21,2.412l2.412,2.21l2.813,1.809h62.495V31.348
	H40.993z"/>
<path fill="#B2B2B2" d="M34.563,36.573l-1.407,1.809L31.75,40.19l-1.005,2.01l-1.005,2.009l-0.603,2.211l-0.603,2.21l-0.201,2.211
	l-0.201,2.411l0.201,2.21l0.201,2.412l0.603,2.21l0.603,2.01l1.005,2.21l1.005,2.01l1.406,1.809l1.407,1.809h68.925V36.573H34.563z"
	/>
<path fill="#CCCCCC" d="M30.946,41.797l-0.603,1.406l-0.603,1.206l-0.402,1.406l-0.402,1.608l-0.402,1.406l-0.201,1.406
	l-0.201,1.608v1.406v1.406l0.201,1.608l0.201,1.406l0.402,1.607l0.402,1.407l0.402,1.406l0.603,1.206l0.603,1.406h72.542V41.797
	H30.946z"/>
<path fill="#E5E5E5" d="M29.338,46.017l-0.201,0.804l-0.402,1.005l-0.201,0.804v1.005l-0.201,0.804l-0.201,1.005v0.804v1.005v1.005
	l0.201,1.205v1.005l0.201,1.005l0.201,1.206l0.201,1.005l0.402,1.005l0.201,1.004h73.949V46.017H29.338z"/>
<path fill="#FFFFFF" d="M28.333,50.036v0.804v0.804l-0.201,0.804v0.804v0.804l0.201,0.804v1.005v0.603h75.155v-6.43H28.333z"/>
<path fill="none" stroke="#000000" stroke-width="2" d="M103.488,78.369H53.251l-5.023-0.603l-4.823-1.406l-4.22-2.211l-3.617-3.215
	l-3.215-3.617l-2.21-4.22l-1.407-4.823l-0.603-5.023l0.603-5.023l1.407-4.823l2.21-4.22l3.215-3.617l3.617-3.215l4.22-2.211
	l4.823-1.406l5.023-0.603h50.237"/>
</svg>
