<?xml version="1.0" encoding="utf-8"?>
<!-- Generator: Adobe Illustrator 14.0.0, SVG Export Plug-In . SVG Version: 6.00 Build 43363)  -->
<!DOCTYPE svg PUBLIC "-//W3C//DTD SVG 1.1//EN" "http://www.w3.org/Graphics/SVG/1.1/DTD/svg11.dtd">
<svg version="1.1" id="图层_1" xmlns="http://www.w3.org/2000/svg" xmlns:xlink="http://www.w3.org/1999/xlink" x="0px" y="0px"
	 width="106.503px" height="106.502px" viewBox="0 0 106.503 106.502" enable-background="new 0 0 106.503 106.502"
	 xml:space="preserve">
<path fill="#7F7F7F" d="M53.251,103.489V3.014h50.237v100.475H53.251z"/>
<path fill="#999999" d="M56.466,103.489V3.014h44.008v100.475H56.466z"/>
<path fill="#B2B2B2" d="M61.892,103.489V3.014h33.357v100.475H61.892z"/>
<path fill="#CCCCCC" d="M66.915,103.489V3.014h23.109v100.475H66.915z"/>
<path fill="#E5E5E5" d="M70.935,103.489V3.014h14.87v100.475H70.935z"/>
<path fill="#FFFFFF" d="M75.355,103.489V3.014h6.028v100.475H75.355z"/>
<path fill="none" stroke="#000000" stroke-width="2" d="M103.488,103.489V3.014"/>
<path fill="none" stroke="#000000" stroke-width="2" d="M53.251,3.014v100.475"/>
<path fill="#7F7F7F" d="M53.251,78.369H3.014V28.133h50.237l5.023,0.603l4.823,1.406l4.22,2.211l3.617,3.215l3.215,3.617l2.211,4.22
	l1.406,4.823l0.604,5.023l-0.604,5.023l-1.406,4.823l-2.211,4.22l-3.215,3.617l-3.617,3.215l-4.22,2.211l-4.823,1.406L53.251,78.369
	z"/>
<path fill="#999999" d="M65.71,75.155l2.813-1.809l2.411-2.21l2.211-2.412l1.809-2.813l1.406-3.015l1.205-3.015l0.604-3.215
	l0.201-3.416l-0.201-3.416l-0.805-3.215l-1.004-3.216l-1.406-3.014l-2.01-2.612l-2.211-2.412l-2.411-2.21l-2.813-1.809H3.014v43.807
	H65.71z"/>
<path fill="#B2B2B2" d="M71.939,69.93l1.407-1.809l1.406-1.809l1.004-2.01l1.006-2.009l0.602-2.211l0.604-2.21l0.201-2.211
	l0.201-2.411l-0.201-2.21l-0.201-2.211l-0.604-2.21l-0.602-2.211l-1.006-2.21l-1.004-2.01l-1.406-1.809l-1.407-1.809H3.014V69.93
	H71.939z"/>
<path fill="#CCCCCC" d="M75.557,64.705l0.603-1.406l0.604-1.206l0.401-1.406l0.401-1.407l0.402-1.607l0.201-1.406l0.201-1.608
	v-1.406v-1.406l-0.201-1.608l-0.201-1.406l-0.402-1.406l-0.401-1.608l-0.401-1.406l-0.604-1.206l-0.603-1.406H3.014v22.908H75.557z"
	/>
<path fill="#E5E5E5" d="M77.164,60.486l0.2-0.804l0.402-1.005l0.201-0.804l0.201-1.005v-0.804l0.201-1.005v-0.804v-1.005v-1.005
	l-0.201-1.205v-1.005l-0.201-1.005l-0.201-1.206l-0.201-1.005l-0.201-1.005l-0.2-1.004H3.014v15.875L77.164,60.486z"/>
<path fill="#FFFFFF" d="M78.169,56.466l0.201-0.804v-0.804v-0.804v-0.804v-0.804v-0.804v-1.005l-0.201-0.603H3.014v6.43H78.169z"/>
<path fill="none" stroke="#000000" stroke-width="2" d="M3.014,28.133h50.237l5.023,0.603l4.823,1.406l4.22,2.211l3.617,3.215
	l3.215,3.617l2.211,4.22l1.406,4.823l0.604,5.023l-0.604,5.023l-1.406,4.823l-2.211,4.22l-3.215,3.617l-3.617,3.215l-4.22,2.211
	l-4.823,1.406l-5.023,0.603H3.014"/>
</svg>
