<?xml version="1.0" encoding="utf-8"?>
<!-- Generator: Adobe Illustrator 14.0.0, SVG Export Plug-In . SVG Version: 6.00 Build 43363)  -->
<!DOCTYPE svg PUBLIC "-//W3C//DTD SVG 1.1//EN" "http://www.w3.org/Graphics/SVG/1.1/DTD/svg11.dtd">
<svg version="1.1" id="图层_1" xmlns="http://www.w3.org/2000/svg" xmlns:xlink="http://www.w3.org/1999/xlink" x="0px" y="0px"
	 width="106.503px" height="106.502px" viewBox="0 0 106.503 106.502" enable-background="new 0 0 106.503 106.502"
	 xml:space="preserve">
<path fill="#7F7F7F" d="M78.37,103.489V53.251h25.118V3.014H3.014v50.237h25.119v50.237H78.37z"/>
<path fill="#999999" d="M75.355,103.489V50.036h28.133V6.23H3.014v43.807h28.333v53.452H75.355z"/>
<path fill="#B2B2B2" d="M70.131,103.489V44.812h33.357V11.454H3.014v33.357h33.559v58.677H70.131z"/>
<path fill="#CCCCCC" d="M64.906,103.489V39.587h38.582V16.679H3.014v22.908h38.783v63.901H64.906z"/>
<path fill="#E5E5E5" d="M60.687,103.489V35.568h42.802V20.899H3.014v14.669h41.998v67.921H60.687z"/>
<path fill="#FFFFFF" d="M56.466,103.489V31.348h47.022v-6.431H3.014v6.431h47.223v72.141H56.466z"/>
<path fill="none" stroke="#000000" stroke-width="2" d="M78.37,103.489V53.251h25.118"/>
<path fill="none" stroke="#000000" stroke-width="2" d="M28.133,103.489V53.251H3.014"/>
<path fill="none" stroke="#000000" stroke-width="2" d="M3.014,3.014h100.474"/>
</svg>
