<?xml version="1.0" standalone="no"?><!DOCTYPE svg PUBLIC "-//W3C//DTD SVG 1.1//EN" "http://www.w3.org/Graphics/SVG/1.1/DTD/svg11.dtd"><svg t="1692083604483" class="icon" viewBox="0 0 1024 1024" version="1.1" xmlns="http://www.w3.org/2000/svg" p-id="7825" xmlns:xlink="http://www.w3.org/1999/xlink" width="200" height="200"><path d="M525.970286 728.551619c126.659048 0 229.327238 57.051429 229.327238 127.414857s-102.692571 127.390476-229.327238 127.390476S296.643048 926.329905 296.643048 855.966476 399.311238 728.551619 525.970286 728.551619z" fill="#69A4FF" opacity=".5" p-id="7826"></path><path d="M398.555429 855.942095a127.414857 76.434286 0 1 0 254.829714 0 127.414857 76.434286 0 1 0-254.829714 0Z" fill="#093E8F" p-id="7827"></path><path d="M525.848381 855.966476a1962.666667 1962.666667 0 0 1-246.247619-286.47619l-1.145905-1.706667a670.622476 670.622476 0 0 1-61.70819-112.152381v-0.121905l-0.804572-2.048-0.365714-0.877714-0.707048-1.779809-0.487619-1.219048c-0.438857-0.877714-0.78019-1.755429-1.121524-2.657524l-0.585142-1.536c-0.195048-0.487619-0.341333-0.902095-0.633905-1.340952l-0.585143-1.609143-0.487619-1.26781a16.481524 16.481524 0 0 0-0.731429-2.291809c0-0.170667 0-0.341333-0.146285-0.487619a142.238476 142.238476 0 0 1-1.048381-2.950095l-0.268191-0.707048-0.755809-2.267429-0.24381-0.78019c-0.316952-0.926476-0.609524-1.731048-0.853333-2.608762a1.828571 1.828571 0 0 0-0.121905-0.292571c-0.292571-1.048381-0.633905-1.999238-0.926476-3.04762 0 0 0-0.219429-0.121905-0.341333a63.609905 63.609905 0 0 0-0.78019-2.56 4.071619 4.071619 0 0 0-0.24381-0.633905l-1.706667-6.070857c-0.292571-0.999619-0.512-1.950476-0.78019-2.925714v-0.390095a51.273143 51.273143 0 0 1-0.731429-2.925715c-0.609524-1.950476-1.097143-3.949714-1.657904-5.948952v-0.438857l-0.585143-2.730667a0.26819 0.26819 0 0 1 0-0.121905c-0.414476-1.950476-0.828952-3.876571-1.145905-5.827047v-0.438857c-0.170667-0.877714-0.292571-1.77981-0.487619-2.657524a0.487619 0.487619 0 0 0 0-0.170667l-0.853333-5.656381v-0.658285c0-0.731429-0.195048-1.487238-0.292572-2.267429a2.096762 2.096762 0 0 0 0-0.487619 208.944762 208.944762 0 0 1-0.560762-5.485714v-0.560762c0-0.707048 0-1.389714-0.170666-2.048v-0.780191c0-0.877714-0.121905-1.731048-0.170667-2.56v-0.26819-2.218667-0.950857V364.934095v-2.438095a326.704762 326.704762 0 0 1 27.794286-133.656381 328.630857 328.630857 0 0 1 42.057143-69.436952 0.463238 0.463238 0 0 0 0.243809-0.170667l2.438095-2.925714 0.707048-0.877715 1.316571-1.609142 1.340953-1.609143 0.609524-0.731429a329.435429 329.435429 0 0 1 53.174857-50.761143c4.87619-3.730286 9.97181-7.314286 15.091809-10.800762 0.24381-0.121905 0.438857-0.292571 0.633905-0.438857 0.853333-0.512 1.657905-1.097143 2.438095-1.657905l2.145524-1.389714 1.292191-0.828952 2.438095-1.487238 0.414476-0.268191a331.385905 331.385905 0 0 1 507.172571 278.649905v6.753524a1.048381 1.048381 0 0 0 0 0.26819c0 0.999619 0 2.048-0.170666 3.120762v0.219429c0 1.097143-0.146286 2.267429-0.292572 3.388952-15.872 183.320381-330.581333 479.719619-330.581333 479.719619z" fill="#0F67EE" p-id="7828"></path><path d="M525.945905 33.353143a329.99619 329.99619 0 0 1 330.947047 329.142857c0 135.021714-182.710857 341.845333-281.892571 444.708571-27.184762 28.233143-49.054476 48.761905-49.054476 48.761905S194.998857 544.085333 194.998857 362.496a329.99619 329.99619 0 0 1 330.947048-329.142857z" fill="#0F67EE" p-id="7829"></path><path d="M525.945905 855.893333c-2.218667-2.121143-54.345143-51.712-115.297524-120.051809a581.87581 581.87581 0 0 0 83.480381 6.022095 575.073524 575.073524 0 0 0 162.230857-23.210667 2135.893333 2135.893333 0 0 1-130.31619 137.167238z" fill="#0D5BD1" p-id="7830"></path><path d="M279.649524 569.417143c-48.420571-72.582095-84.650667-146.944-84.650667-207.043048a330.971429 330.971429 0 0 1 661.918476 0 287.402667 287.402667 0 0 1-34.133333 120.758857 456.240762 456.240762 0 0 1-543.134476 86.284191z" fill="#4B8DF3" p-id="7831"></path><path d="M223.47581 228.766476a332.01981 332.01981 0 0 1 546.962285-88.088381q1.219048 12.970667 1.243429 26.331429A277.601524 277.601524 0 0 1 223.47581 228.766476z" fill="#87B3F6" p-id="7832"></path><path d="M315.684571 157.086476a168.423619 168.423619 0 0 1 9.752381-56.393143 333.677714 333.677714 0 0 1 283.648-56.856381 168.545524 168.545524 0 1 1-293.400381 113.249524z" fill="#C3D9FB" p-id="7833"></path><path d="M524.190476 353.499429m-256 0a256 256 0 1 0 512 0 256 256 0 1 0-512 0Z" fill="#FFFFFF" p-id="7834"></path><path d="M512.219429 239.737905a36.864 36.864 0 0 1 23.04-7.119238 48.518095 48.518095 0 0 1 45.031619 33.645714 81.871238 81.871238 0 0 0 9.459809 21.942857 92.647619 92.647619 0 0 0 74.142476 37.059048v37.083428a129.560381 129.560381 0 0 1-100.181333-47.250285l-12.921905 73.362285 38.229334 32.085334 41.22819 113.298285-34.864762 12.678096-37.839238-103.936-62.927238-52.662858a37.083429 37.083429 0 0 1-13.238857-35.328l9.435428-53.638095-52.004571 63.390476-29.93981-21.650285m153.014858-119.344762a37.13219 37.13219 0 1 1 34.694095-23.576381 36.571429 36.571429 0 0 1-34.694095 23.576381z m-55.076572 244.443428l-59.66019 71.046096-28.40381-23.893334 55.198476-65.828571 13.848381-40.423619 33.206857 27.818666z" fill="#5090F3" p-id="7835"></path></svg>