<?xml version="1.0" standalone="no"?><!DOCTYPE svg PUBLIC "-//W3C//DTD SVG 1.1//EN" "http://www.w3.org/Graphics/SVG/1.1/DTD/svg11.dtd"><svg t="1688711559812" class="icon" viewBox="0 0 1024 1024" version="1.1" xmlns="http://www.w3.org/2000/svg" p-id="6775" xmlns:xlink="http://www.w3.org/1999/xlink" width="200" height="200"><path d="M511.203556 12.8s-67.555556 64.904533-161.735112 95.0272-234.012444 27.306667-234.012444 27.306667-11.377778 476.080356 5.717333 549.0688c21.674667 92.672 45.454222 110.506667 99.640889 159.317333 108.828444 98.076444 284.16 167.651556 284.16 167.651556s214.101333-96.170667 296.618667-167.651556c48.469333-41.984 85.902222-94.435556 98.901333-157.838222 21.418667-104.590222 3.384889-549.686044 3.384889-549.686045s-138.666667-5.649067-229.888-28.16S511.203556 12.8 511.203556 12.8z" fill="#0066FF" opacity=".5" p-id="6776"></path><path d="M512.796444 12.8s-67.470222 64.893156-161.592888 95.004444-233.784889 27.306667-233.784889 27.306667-11.377778 475.989333 5.688889 548.977778c21.646222 92.643556 45.425778 110.478222 99.555555 159.288889 108.743111 98.048 290.133333 167.822222 290.133333 167.822222s207.701333-96.341333 290.133334-167.822222c48.412444-41.984 85.845333-94.435556 98.816-157.809778 21.390222-104.561778 3.384889-549.595022 3.384889-549.595022s-138.524444-5.646222-229.688889-28.16S512.796444 12.8 512.796444 12.8z m1.308445 76.8S457.130667 145.066667 377.685333 170.806044s-197.376 23.324444-197.376 23.324445-9.614222 406.8352 4.807111 469.213867c18.261333 79.189333 38.343111 94.435556 84.053334 136.135111 91.790222 83.825778 244.935111 143.445333 244.935111 143.445333s175.36-82.346667 244.935111-143.445333c40.903111-35.868444 72.476444-80.696889 83.427556-134.883556 18.062222-89.372444 2.872889-469.728711 2.872888-469.728711s-116.963556-4.835556-193.905777-24.069689S514.104889 89.6 514.104889 89.6z" fill="#0066FF" p-id="6777"></path><path d="M231.424 628.309333a506.843022 506.843022 0 0 1 11.121778 49.948445q11.392-16.64 21.646222-34.673778v129.536H298.382222v-200.021333q11.349333-27.989333 20.821334-58.510223l-35.271112-10.268444q-21.418667 75.434667-52.508444 123.989333z m79.160889 57.429334h196.380444V650.24h-38.599111v-59.363556h30.833778v-35.527111h-30.833778v-49.92h-37.774222v49.92H387.527111v-49.92H349.752889v49.92H319.488v35.527111h30.264889v59.363556H310.584889v35.498667z m76.942222-94.862223h43.064889v59.363556H387.527111v-59.363556z m-48.042667 185.031112a691.620978 691.620978 0 0 0 56.661334-65.735112l-31.402667-20.821333a439.022933 439.022933 0 0 1-53.589333 62.151111q16.938667 13.568 28.330666 24.405334z m80.270223-65.194667a620.452978 620.452978 0 0 1 54.158222 64.654222l32.227555-24.149333q-28.885333-32.170667-57.770666-60.757334z m334.165333-172.828445a731.628089 731.628089 0 0 1-59.164444 58.396445 371.236978 371.236978 0 0 1-19.740445-46.336V503.466667h-38.599111v206.705777q0 21.632-17.777778 21.617778a359.588978 359.588978 0 0 1-39.708444-2.218666 423.847822 423.847822 0 0 1 9.984 43.292444q38.869333 0 54.101333-2.56a35.953778 35.953778 0 0 0 23.608889-13.681778q8.405333-11.093333 8.391111-30.378666v-99.584q35.968 78.378667 93.070222 119.552a339.111822 339.111822 0 0 1 23.324445-39.395556 276.736 276.736 0 0 1-77.624889-77.937778 856.968533 856.968533 0 0 0 71.793778-63.544889z m-230.570667 24.120889v36.636445h61.667556q-20.522667 70.186667-71.111111 113.180444a334.970311 334.970311 0 0 1 19.456 39.111111q68.608-58.794667 88.32-155.363555v-33.564445h-98.332445z" fill="#FAE14C" p-id="6778"></path><path d="M566.869333 336.324267c-0.199111 0.420978-0.369778 0.853333-0.568889 1.282844l45.681778 58.791822-6.087111 24.5248-49.749333-69.105777a58.402133 58.402133 0 0 1-35.498667 17.3312v11.630933h6.741333v18.579911h4.864v27.505778H498.915556v-27.505778h4.864v-18.5856h6.741333v-11.440356a58.356622 58.356622 0 0 1-35.584-14.921955l-47.872 66.505955-6.087111-24.5248 42.979555-55.327288c-0.881778-1.456356-1.592889-3.006578-2.332444-4.551112-132.295111-9.142044-182.784-85.253689-166.826667-82.827377 13.283556 2.005333 142.933333 6.496711 188.700445 8.029866-2.275556-2.807467-4.522667-5.617778-6.769778-8.436622a4.946489 4.946489 0 0 1-5.774222-7.278933c-4.408889-5.614933-8.931556-11.411911-12.032-15.596089-8.220444-11.150222-20.963556 5.575111-20.963556 5.575111l-15.36 21.566578s-20.963556-29.013333-20.963555-32.347022a20.673422 20.673422 0 0 1 2.986666-8.174934c12.743111 1.115022 28.103111-14.122667 28.103111-14.122666 27.704889-32.344178 55.409778-18.961067 55.409778-18.961067s-19.854222 13.010489-19.854222 18.5856l-0.199111 0.059733c-0.995556 3.370667-1.166222 9.309867 4.693333 17.408l1.024 1.422222 0.938667 1.294223 0.881778 1.211733 8.618666 11.901156a5.034667 5.034667 0 0 1 5.518222-1.558756 4.9152 4.9152 0 0 1 0.085334 9.275733l8.789333 12.137245a58.072178 58.072178 0 0 1 10.951111-1.911467v-28.728889h-3.328a2.321067 2.321067 0 0 1-2.332444-2.335289 2.119111 2.119111 0 0 1 0.881778-1.777777 3.7376 3.7376 0 0 0 0.512-2.395023c0-0.054044-0.028444-0.105244-0.028445-0.162133v-12.438756a4.352 4.352 0 0 1 4.295111-4.323555v-26.029511a4.664889 4.664889 0 0 1 2.360889-4.076089 4.781511 4.781511 0 0 1 4.750222 0 4.724622 4.724622 0 0 1 2.360889 4.076089v26.049422a4.5056 4.5056 0 0 1 4.266667 4.491378v12.066133a2.602667 2.602667 0 0 1-0.056889 0.668445v0.088177a4.161422 4.161422 0 0 0 0.369778 2.102045 2.136178 2.136178 0 0 1 0.796444 1.669689 2.389333 2.389333 0 0 1-0.682666 1.649777 2.412089 2.412089 0 0 1-1.649778 0.682667h-3.043556v28.728889a58.749156 58.749156 0 0 1 12.174222 2.275556l7.139556-9.847467a4.869689 4.869689 0 0 1-0.170667-5.973333 4.972089 4.972089 0 0 1 5.745778-1.743645l8.618667-11.901155 0.881778-1.211734 0.938666-1.297066 1.024-1.422223c5.859556-8.098133 5.688889-14.037333 4.693334-17.408l-0.199112-0.062577c0-5.572267-19.854222-18.5856-19.854222-18.5856s27.704889-13.368889 55.409778 18.961066c0 0 15.36 15.240533 28.103111 14.125511a21.000533 21.000533 0 0 1 3.015111 8.172089c0 3.029333-17.180444 27.070578-20.451555 31.601778 53.504-1.9456 115.683556-4.437333 124.672-5.794133 15.815111-2.366578-33.792 72.618667-163.925334 82.6624z m-52.707555-74.114845a49.336889 49.336889 0 1 0 49.692444 49.3312 49.536 49.536 0 0 0-49.692444-49.3312z m76.088889-23.532089s-12.743111-16.725333-20.992-5.577955c-3.072 4.181333-7.594667 9.984-12.032 15.598933a4.883911 4.883911 0 0 1-0.312889 5.634845 5.031822 5.031822 0 0 1-5.461334 1.641244c-1.649778 2.087822-3.157333 3.982222-4.465777 5.595022 14.648889-0.492089 35.527111-1.211733 58.112-2.030933z m-69.916445 105.059556c-0.369778-3.822933-1.308444-4.340622-1.308444-4.340622l-2.076445-2.773334-0.597333 0.568889-1.848889 1.706667h-0.995555c-0.142222 0.036978-0.312889 0.068267-0.455112 0.093867a3.236978 3.236978 0 0 1-3.128888-2.673778l-0.113778-0.193422-0.113778 0.073955a16.750933 16.750933 0 0 0-0.256-1.729422 4.041956 4.041956 0 0 1-1.763556 0.802133c-6.058667 1.115022-4.352-5.973333-4.352-5.973333-5.688889 1.669689-3.783111-3.899733-3.783111-3.899733-1.706667 1.277156-2.019556-1.595733-2.019555-1.595734l1.109333-5.211022a0.036978 0.036978 0 0 1-0.028444 0 4.013511 4.013511 0 0 1-4.124445-4.406044l-0.199111-1.3056-0.625778-0.896v-1.28a3.854222 3.854222 0 0 1-0.028444-1.939912l-0.199111-1.183288a5.449956 5.449956 0 0 1-0.483556-1.513245v-0.290133a2.8928 2.8928 0 0 1 1.507556-2.679467 6.516622 6.516622 0 0 1 0.967111-0.8192l-5.888-17.763555s10.695111-8.684089 18.602667-7.992889a69.12 69.12 0 0 1 4.864 13.724444s4.892444 1.208889 8.846222 1.729422 7.310222 10.24 7.310222 10.24v6.775467l-1.507556 8.681244 9.016889 15.459556s1.877333 3.470222 0.028445 5.381689c-1.905778 1.925689-15.985778 9.042489-16.355556 5.2224z" fill="#FAE14C" p-id="6779"></path></svg>