<?xml version="1.0" standalone="no"?><!DOCTYPE svg PUBLIC "-//W3C//DTD SVG 1.1//EN" "http://www.w3.org/Graphics/SVG/1.1/DTD/svg11.dtd"><svg t="1710643862774" class="icon" viewBox="0 0 1312 1024" version="1.1" xmlns="http://www.w3.org/2000/svg" p-id="7080" xmlns:xlink="http://www.w3.org/1999/xlink" width="256.25" height="200"><path d="M603.684056 440.190197c1.788394-8.177577 324.196958-130.689803 324.196958-130.689803l15.194141-4.889239c-13.463437-29.018141-27.186479-68.377239-34.715042-121.055549 0 0-117.183099 12.619718-174.87324 36.056338s-324.507042 184.125296-324.507042 184.125295-82.345465 51.14231-79.92969 66.920564c2.408563 15.771042 61.901521 44.616113 61.901521 44.616112s210.944-66.906141 212.732394-75.083718" fill="#FBB03B" p-id="7081"></path><path d="M506.432901 578.372507l97.251155-5.408451 109.971831-92.484507 159.549296-35.068394 83.830986-3.151324s30.647887-56.43538 21.633803-74.643831c-4.831549-9.756845-20.032901-29.450817-35.594817-62.997634l-8.004507 2.574423S605.479662 432.01262 603.691268 440.190197c-1.788394 8.184789-212.732394 75.083718-212.732395 75.083718s-3.605634 50.478873 0 61.295775c2.812394 8.437183 26.443718 34.397746 36.698141 45.402141 3.028732 1.463887 6.122366 2.884507 9.244845 4.276282l65.831662-11.826479 3.706592-36.056338z" fill="#DC7D2A" p-id="7082"></path><path d="M432.416451 627.048563l4.478197-0.80045c-3.122479-1.384563-6.208901-2.812394-9.244845-4.276282 2.877296 3.093634 4.766648 5.076732 4.766648 5.076732" fill="#FBB03B" p-id="7083"></path><path d="M390.951662 515.273915l-10.110197 80.275831s21.439099 14.198986 46.808338 26.422085c-10.254423-11.004394-33.885746-36.957746-36.698141-45.402141-3.605634-10.816901 0-61.295775 0-61.295775M256.093746 646.367549l209.86231 12.85769c22.672225 1.391775 36.29431 25.780282 25.585578 45.813184L416.508394 845.376901a31.304113 31.304113 0 0 1-18.121915 15.035493c-16.888789 5.379606-46.606423 13.946592-58.714141 11.855324-27.330704-4.737803-24.857239-5.624789-230.327887-79.143662a31.030085 31.030085 0 0 1-16.751775-14.206197c-11.062085-20.133859-32.046873-66.011944-20.270873-106.770028 14.775887-51.156732 164.633239-28.686423 180.808112-26.104789 0.995155 0.158648 1.947042 0.266817 2.95662 0.324507" fill="#28292E" p-id="7084"></path><path d="M624.416451 695.555606c-3.605634-0.901408-182.351324 28.196056-182.351324 28.196056l-40.296564 21.381408-15.323943 50.478874 66.913352 85.064112 116.671098 136.509296 519.377127-68.002253 56.788733-16.225353 100.957746-62.197183-128.764394-77.852845s-256-104.56338-306.933183-105.464788c-50.925972-0.901408-187.038648 8.112676-187.038648 8.112676" fill="#FBB03B" p-id="7085"></path><path d="M302.007887 499.647099l72.112676 6.006986 45.22186 40.866253 8.869859 58.894423 28.542197 4.507042 33.344901 83.830986-161.099718-17.429634H240.416451l-171.700282-32.414648v-16.823887l171.700282 35.118873 36.352-128.901408zM502.72631 614.428845l3.821972-54.589296h112.733746l80.549859 75.624564 49.281803 16.823887 12.013972 48.676056 129.802817 88.756282-91.337916 14.004282-27.648-14.004282s-20.429521 4.023887-24.035155 0-121.553127-78.840789-123.860732-78.775887c-2.300394 0.05769-20.36462-44.233915-20.36462-44.233916l-100.957746-52.28169z" fill="#161010" p-id="7086"></path><path d="M713.655887 480.479549l12.367324 55.670986-26.191324 23.689014-36.308732-37.210141z" fill="#BA601C" p-id="7087"></path><path d="M873.205183 434.507718l-9.915493 45.971831-129.802817 120.118085h-45.668958v14.422535s78.119662 15.035493 97.352113 47.183324l1.197071 17.725296s100.222197 6.641577 202.377014 47.507831c102.162028 40.873465 258.408563 143.331155 258.408563 143.331155l-6.706479 4.124845s-230.529803-161.316056-457.684732-178.132733l-25.239437-2.408563-10.816901-32.155042s-54.084507-21.929465-73.309747-24.330817c-19.232451-2.401352-69.711324-78.025915-69.711324-78.025916l59.839099-37.210141 36.308732 37.210141 87.739493-79.36-8.415549-38.219718 94.049352-7.752113z" fill="#DC7D2A" p-id="7088"></path><path d="M442.678085 390.77138l38.868732-8.451605 257.348507-149.186705s44.169014-10.816901 82.929577-8.112676v-30.647887l-94.647887-10.816901-135.961239 69.40845L447.747606 336.795042l-5.06231 53.976338z" fill="#BA601C" p-id="7089"></path><path d="M873.205183 187.161239v-22.838084l-43.267606-8.408338-14.422535 31.246422-44.471887-24.035154-45.668958 1.19707v13.225465l-47.471774 1.19707V164.92169h-13.225465v11.415437h-13.816789v-12.021183l-12.021183-1.197071v8.408338h-12.619718v11.422648h12.619718l-0.598535 28.845071-47.478986 16.225352-150.830873 98.549183h-39.661972s-36.056338 11.422648-39.063437 40.866253c0 0 0.598535 23.43662 16.225352 24.640902h54.084507s13.521127 0.447099 20.278085-5.862761l-0.447099-41.911887 92.390761-59.045859 71.211267-43.267606 60.848676-22.535211 42.366198-16.672451s15.323944-10.369803 33.806422-10.369803c18.475268 0 37.851944 5.862761 37.851944 5.862761l19.383887 17.12676 18.028169 0.447099 13.521127-27.489352v-9.915493l16.225352-0.901409 0.447099 13.968226 15.778253-0.901409v-3.461408z" fill="#DC7D2A" p-id="7090"></path><path d="M419.342423 364.060845a18.244507 18.244507 0 1 1-36.496226 0 18.244507 18.244507 0 0 1 36.496226 0" fill="#535B65" p-id="7091"></path><path d="M0 622.873239l240.423662 39.330254V457.490028L0 462.285521z" fill="#D67422" p-id="7092"></path><path d="M0 453.769014l305.32507-19.268507 45.96462 4.507042v29.746479l-43.267605-4.644056L0 474.501408z" fill="#DC7D2A" p-id="7093"></path><path d="M240.416451 457.490028l85.633803 3.072 30.647887 7.694423 34.253521 47.017464 3.576789 22.102536-43.238761-28.412395h-35.602028v153.239437H240.416451z" fill="#BA601C" p-id="7094"></path><path d="M240.416451 439.69262v23.292394l110.873239 7.665578v-31.635831l-45.971831-4.507043z" fill="#BA601C" p-id="7095"></path><path d="M603.684056 425.731606l-6.612732-2.401352-9.61262-3.007099-40.56338-7.809803-2.480676-103.012958 59.269408 15.864789" fill="#DC7D2A" p-id="7096"></path><path d="M483.796732 442.259831l63.098592-29.746479 43.238761 8.64631 13.549971 3.295549-65.802817 20.955944z" fill="#BA601C" p-id="7097"></path><path d="M554.106592 307.949972v104.56338l-63.098592 29.746479s-9.915493-91.943662 0-96.450704 63.098592-37.859155 63.098592-37.859155" fill="#FBB03B" p-id="7098"></path><path d="M493.106479 605.414761l139.14862 64.901408s-216.064 43.267606-235.296451 93.746479c-19.225239 50.478873 56.406535 110.606423 56.406535 110.606422l126.146704 139.415437-14.725408 4.809916s-170.229183-161.085296-181.046085-206.754254c-10.816901-45.676169 10.816901-73.316958 28.845071-81.732507 0 0 16.225352-7.211268 47.478986-19.225239 31.239211-12.021183 37.246197-14.422535 37.246197-14.422536S462.170141 615.330254 465.775775 613.527437s27.337915-8.112676 27.337915-8.112676" fill="#DC7D2A" p-id="7099"></path><path d="M632.255099 711.175211v-40.866253l-134.331493 30.647887-75.119775 30.647887s188.141972-23.43662 209.451268-20.429521" fill="#DC7D2A" p-id="7100"></path><path d="M582.050254 783.287887s23.833239-34.852056 72.610253-40.866253c48.777014-6.006986 111.27707-10.816901 111.27707-10.816902s-78.119662 16.831099-76.922591 32.450705c1.204282 15.626817 37.008225 25.239437 37.008225 25.239436s138.326535 38.508169 151.552 78.170141v16.816676s-129.802817-57.690141-156.246535-57.690141c-26.443718 0-56.485859 57.690141-116.584563 70.915606-60.091493 13.218254-73.713577 9.61262-73.713578 9.61262s67.706592-30.049352 83.333409-46.87324l13.521126-21.633803s-120.348845-34.895324-151.602478-58.930478c-31.246423-24.035155-38.45769-37.26062-38.457691-37.26062s129.348507 56.49307 144.225353 40.866253M834.44462 714.485183s63.098592 20.732394 65.802817 31.549296-54.985915 23.43662-65.802817 34.253521c0 0 65.802817-7.211268 89.239436 5.408451s217.102423 80.549859 217.102423 80.549859-105.327775-58.916056-112.539042-61.620282v-11.264s36.29431-13.420169 36.626028-21.359774c0 0-44.738704 13.694197-53.752789 7.384338s-62.197183-37.859155-62.197183-37.859155-109.971831-36.056338-126.197183-34.253522l11.71831 7.211268z" fill="#28292E" p-id="7101"></path><path d="M404.220394 595.549746l38.457691 122.418479 27.691267-10.766422-47.565521-111.652057h-22.838085" fill="#FBB03B" p-id="7102"></path><path d="M442.678085 611.72462l39.936 95.477183 31.830535-15.251831-44.060845-89.239437z" fill="#DC7D2A" p-id="7103"></path><path d="M110.029521 669.12631c-13.643718-5.624789-29.263324 3.403718-30.388282 18.114704a45.96462 45.96462 0 0 0-0.11538 4.745014c0.598535 25.239437 9.61262 79.922479 23.43662 87.732282 12.309634 6.958873 5.992563 4.932507 109.971831 43.267605l108.320451 30.633465c6.425239 1.817239 13.463437 0.677859 18.648338-3.519098 12.929803-10.470761 23.681803-28.470085 16.109971-68.449352-1.47831-7.79538-6.793014-14.350423-14.235042-17.112338L110.029521 669.12631z" fill="#E58126" p-id="7104"></path><path d="M902.187268 229.678873c-1.673014-24.51831 6.800225-48.712113 22.751549-67.432563C953.257465 129.024 1026.67538 62.189972 1109.359775 57.690141c128.411042-6.980507 146.778141 29.313803 169.774873 66.365296 15.30231 24.640901 24.042366 83.830986-6.006986 134.006986-30.301746 50.615887-173.214648 112.46693-229.556282 118.625352-56.341634 6.180056-84.133859-20.068958-84.133859-20.068958s-52.779268-61.447211-57.250253-126.939944" fill="#28292E" p-id="7105"></path><path d="M902.302648 229.981746c-1.673014-24.525521 6.807437-48.719324 22.751549-67.432563 28.318648-33.229521 101.736563-100.063549 184.420958-104.56338 128.411042-6.966085 146.778141 29.328225 169.782084 66.379718 15.295099 24.63369 16.823887 90.140845-6.014197 134.006986-22.47031 43.173859-173.214648 112.459718-229.556281 118.625352-56.341634 6.180056-84.133859-20.068958-84.13386-20.068958S906.780845 295.48169 902.302648 229.981746" fill="#535B65" p-id="7106"></path><path d="M1087.776451 78.191775c4.21138-7.067042 9.453972-17.29262 13.578817-25.614423 1.730704-3.490254 6.922817-2.329239 7.067042 1.564845 0.39662 10.744789 1.514366 23.047211 4.557521 23.047211 3.533521 0-10.723155 3.836394-21.056901 6.504564a3.728225 3.728225 0 0 1-4.146479-5.502197M1044.93431 72.437183c4.088789-6.901183 9.107831-16.672451 13.124507-24.770704 1.788394-3.598423 7.196845-2.451831 7.355493 1.564845 0.411042 10.622197 1.543211 22.513577 4.535887 22.513577 3.483042 0-10.398648 3.749859-20.689127 6.418029a3.872451 3.872451 0 0 1-4.32676-5.725747M1022.435155 127.228394c4.146479-6.973296 9.266479-16.946479 13.340845-25.160112 1.745127-3.533521 7.067042-2.401352 7.211268 1.543211 0.403831 10.687099 1.528789 22.787606 4.543098 22.787606 3.511887 0-10.528451 3.778704-20.840563 6.446873a3.807549 3.807549 0 0 1-4.254648-5.617578M971.184676 116.930704c3.648901-6.273803 7.925183-14.545127 11.538028-21.799662 2.040789-4.081577 8.141521-2.761915 8.357859 1.788395 0.483155 10.045296 1.65138 20.458366 4.449352 20.458366 3.346028 0-9.316958 3.461408-19.441577 6.08631a4.420507 4.420507 0 0 1-4.903662-6.526198M1117.530141 103.229296c4.088789-6.901183 9.107831-16.672451 13.124507-24.770704 1.788394-3.598423 7.196845-2.451831 7.355493 1.557633 0.411042 10.629408 1.543211 22.520789 4.535887 22.520789 3.490254 0-10.391437 3.749859-20.696338 6.418028a3.872451 3.872451 0 0 1-4.32676-5.725746M1133.156958 61.310197c4.088789-6.901183 9.107831-16.672451 13.124507-24.770704 1.781183-3.605634 7.196845-2.451831 7.348281 1.564845 0.418254 10.622197 1.550423 22.513577 4.543099 22.513577 3.483042 0-10.398648 3.749859-20.696338 6.410817a3.872451 3.872451 0 0 1-4.326761-5.718535M958.060169 171.880563c4.088789-6.901183 9.107831-16.672451 13.124507-24.770704 1.781183-3.598423 7.196845-2.451831 7.355493 1.557634 0.403831 10.629408 1.543211 22.520789 4.528676 22.520789 3.490254 0-10.384225 3.749859-20.689127 6.418028a3.872451 3.872451 0 0 1-4.319549-5.725747M1171.39831 67.367662c4.081577-6.901183 9.10062-16.665239 13.124507-24.770704 1.781183-3.605634 7.189634-2.451831 7.355493 1.564845 0.403831 10.622197 1.536 22.513577 4.528676 22.513577 3.490254 0-10.384225 3.749859-20.689127 6.410817a3.872451 3.872451 0 0 1-4.32676-5.718535M1009.757746 92.592676c3.648901-6.273803 7.925183-14.537915 11.538029-21.792451 2.048-4.081577 8.141521-2.769127 8.357859 1.788395 0.483155 10.038085 1.65138 20.451155 4.449352 20.451155 3.346028 0-9.316958 3.461408-19.441578 6.08631-3.821972 0.995155-6.886761-3.122479-4.903662-6.533409M924.412394 159.902648c4.081577-6.893972 9.10062-16.658028 13.124507-24.770704 1.781183-3.598423 7.189634-2.451831 7.355493 1.564845 0.403831 10.622197 1.536 22.513577 4.528676 22.513577 3.490254 0-10.384225 3.749859-20.689126 6.418028a3.872451 3.872451 0 0 1-4.326761-5.725746M1216.822085 71.088676c7.514141-2.797972 17.559437-7.247324 25.77307-11.026028 3.648901-1.680225 7.139155 2.610479 4.737803 5.841127-6.353127 8.523718-12.937014 18.48969-10.614986 20.364619 2.718648 2.192225-10.434704-3.605634-20.126648-8.004507a3.872451 3.872451 0 0 1 0.230761-7.168M1263.414085 107.909408c8.004507-0.605746 18.871887-2.10569 27.813859-3.468619 3.973408-0.598535 6.136789 4.485408 2.942197 6.922817-8.466028 6.432451-17.552225 14.184563-15.835944 16.629183 2.004732 2.862873-9.035718-6.360338-17.12676-13.261521a3.872451 3.872451 0 0 1 2.206648-6.82186M1279.516845 142.985014c7.773746 1.975887 18.561803 4.03831 27.467718 5.610366 3.951775 0.699493 4.377239 6.216113 0.569691 7.499719-10.074141 3.389296-21.16507 7.824225-20.321353 10.694309 0.980732 3.346028-6.526197-8.920338-11.985126-18.049802a3.872451 3.872451 0 0 1 4.26907-5.754592" fill="#28292E" p-id="7107"></path><path d="M1289.028507 178.125521c5.783437 5.552676 14.141296 12.670197 21.114592 18.439211 3.100845 2.56 0.742761 7.56462-3.201803 6.800226-10.434704-2.026366-22.275606-3.64169-22.960676-0.73555C1283.18738 206.018704 1282.711437 191.653859 1282.473465 181.017239a3.872451 3.872451 0 0 1 6.562253-2.898929" fill="#28292E" p-id="7108"></path><path d="M1287.175211 226.231887c1.954254 7.788169 5.285859 18.244507 8.148733 26.825916 1.261972 3.821972-3.389296 6.814648-6.324282 4.074366-7.780958-7.254535-16.960901-14.891268-19.088225-12.785577-2.473465 2.459042 4.737803-9.980394 10.167887-19.131493a3.872451 3.872451 0 0 1 7.095887 1.016788M1261.063211 261.12c1.947042 7.773746 5.278648 18.244507 8.13431 26.825915 1.276394 3.814761-3.374873 6.807437-6.31707 4.074367-7.773746-7.254535-16.960901-14.891268-19.081014-12.785578-2.473465 2.451831 4.737803-9.980394 10.167887-19.131493a3.872451 3.872451 0 0 1 7.095887 1.009578M1228.951437 283.071099c1.954254 7.773746 5.278648 18.244507 8.134309 26.825915 1.276394 3.807549-3.374873 6.807437-6.31707 4.074366-7.773746-7.254535-16.960901-14.891268-19.081014-12.785577-2.473465 2.459042 4.737803-9.987606 10.167887-19.131493a3.872451 3.872451 0 0 1 7.095888 1.016789M1197.099268 310.113352c1.954254 7.773746 5.285859 18.244507 8.141521 26.825916 1.269183 3.807549-3.382085 6.807437-6.317071 4.074366-7.780958-7.254535-16.960901-14.891268-19.088225-12.785578-2.473465 2.459042 4.737803-9.987606 10.167887-19.131493a3.872451 3.872451 0 0 1 7.095888 1.016789M1159.744901 327.550197c1.947042 7.788169 5.285859 18.244507 8.141522 26.825916 1.269183 3.821972-3.389296 6.814648-6.317071 4.081577-7.788169-7.254535-16.960901-14.898479-19.088225-12.785577-2.473465 2.451831 4.737803-9.987606 10.167887-19.138705a3.872451 3.872451 0 0 1 7.095887 1.024M1110.167437 344.994254c1.947042 7.773746 5.285859 18.244507 8.141521 26.825915 1.269183 3.807549-3.389296 6.807437-6.317071 4.067155-7.788169-7.247324-16.960901-14.884056-19.088225-12.778366-2.473465 2.459042 4.737803-9.987606 10.167887-19.131493a3.872451 3.872451 0 0 1 7.095888 1.016789M1065.818141 358.811042c1.954254 7.780958 5.278648 18.244507 8.141521 26.825916 1.269183 3.814761-3.382085 6.814648-6.31707 4.074366-7.780958-7.247324-16.960901-14.891268-19.088226-12.785578-2.473465 2.459042 4.737803-9.980394 10.167888-19.124281a3.872451 3.872451 0 0 1 7.095887 1.009577M1032.711211 365.697803c-1.910986 7.788169-3.865239 18.597859-5.357972 27.518197-0.663437 3.958986-6.172845 4.43493-7.485295 0.641803-3.490254-10.045296-8.026141-21.100169-10.889014-20.227606-3.331606 1.009577 8.855437-6.605521 17.934422-12.143774a3.872451 3.872451 0 0 1 5.797859 4.21138M329.497239 806.760563c0 10.456338-5.913239 18.929577-13.211042 18.929578s-13.211042-8.473239-13.211042-18.929578 5.913239-18.929577 13.211042-18.929577 13.211042 8.473239 13.211042 18.929577M135.658366 726.138592c0 12.223099-6.922817 22.13138-15.446535 22.13138-8.53093 0-15.446535-9.908282-15.446535-22.138592 0-12.223099 6.915606-22.13138 15.446535-22.13138 8.53093 0 15.446535 9.908282 15.446535 22.138592" fill="#28292E" p-id="7109"></path></svg>