<?xml version="1.0" standalone="no"?><!DOCTYPE svg PUBLIC "-//W3C//DTD SVG 1.1//EN" "http://www.w3.org/Graphics/SVG/1.1/DTD/svg11.dtd"><svg t="1737947667629" class="icon" viewBox="0 0 1024 1024" version="1.1" xmlns="http://www.w3.org/2000/svg" p-id="64572" xmlns:xlink="http://www.w3.org/1999/xlink" width="200" height="200"><path d="M512 512m-512 0a512 512 0 1 0 1024 0 512 512 0 1 0-1024 0Z" fill="#4EA8EC" p-id="64573"></path><path d="M291.108571 582.339048h-28.16v-282.819048h28.281905l31.329524 57.173333-9.142857 5.12-28.40381-51.809523h-11.580952v261.973333h11.702857l28.40381-47.420953 8.899047 5.36381-31.329524 52.419048z" fill="#FFFFFF" p-id="64574"></path><path d="M408.015238 456.289524h-10.483809v-109.714286l-10.849524 12.8-7.92381-5.851428 19.992381-24.380953a5.36381 5.36381 0 0 1 5.851429-1.584762 5.12 5.12 0 0 1 3.413333 4.998095z" fill="#FFFFFF" p-id="64575"></path><path d="M402.285714 564.419048a5.12 5.12 0 0 1-4.266666-2.316191L377.904762 533.577143l8.655238-5.973333 10.48381 14.994285v-107.032381h10.483809v123.611429a5.36381 5.36381 0 0 1-3.657143 4.998095zM381.805714 362.422857h-63.390476a5.36381 5.36381 0 0 1-5.241905-5.241905 5.241905 5.241905 0 0 1 5.241905-5.241904h63.390476a5.241905 5.241905 0 0 1 5.241905 5.241904 5.241905 5.241905 0 0 1-5.241905 5.241905z" fill="#FFFFFF" p-id="64576"></path><path d="M381.805714 536.380952h-63.390476a5.241905 5.241905 0 1 1 0-10.483809h63.390476a5.241905 5.241905 0 0 1 0 10.483809z" fill="#FFFFFF" p-id="64577"></path><path d="M662.064762 583.68h-10.48381v-24.380952a195.047619 195.047619 0 0 0-39.984762-121.904762L482.742857 561.493333v22.186667h-10.483809v-26.697143l140.068571-135.314286 3.535238 4.144762a202.605714 202.605714 0 0 1 46.201905 133.36381zM447.634286 536.380952h-30.110476V351.939048h30.110476A218.453333 218.453333 0 0 1 585.142857 396.434286l2.438095 2.31619 1.950477 1.828572-1.950477 1.950476v3.657143a4.754286 4.754286 0 0 1-4.998095 1.340952l-1.950476-2.072381-1.706667-1.584762a207.238095 207.238095 0 0 0-130.681904-41.691428h-20.236191v163.108571h19.626667z" fill="#FFFFFF" p-id="64578"></path><path d="M577.706667 608.182857H448.24381a5.36381 5.36381 0 0 1-4.998096-3.657143 5.485714 5.485714 0 0 1 1.950476-5.851428L475.428571 576.853333l6.095239 8.411429-17.066667 12.068571h113.249524z" fill="#FFFFFF" p-id="64579"></path><path d="M686.08 608.182857H556.495238V597.333333h113.127619l-17.066667-12.190476 5.973334-8.533333 30.598095 21.577143a5.241905 5.241905 0 0 1-3.047619 9.508571zM437.638095 574.780952a4.754286 4.754286 0 0 1-2.438095-0.731428 5.12 5.12 0 0 1-2.681905-5.485714l7.070476-36.571429 10.118096 2.438095-1.950477 8.289524-2.194285 12.190476 18.407619-17.432381 65.828571-60.952381 7.070476 7.68-65.828571 60.952381L441.295238 572.952381a5.12 5.12 0 0 1-3.657143 1.828571z" fill="#FFFFFF" p-id="64580"></path><path d="M536.380952 484.449524l-7.070476-7.68 75.824762-69.485714-12.190476 1.706666h-9.020952v-10.483809h8.045714l29.744762-4.144762a5.241905 5.241905 0 0 1 4.144762 9.142857l-19.992381 17.432381z" fill="#FFFFFF" p-id="64581"></path><path d="M760.929524 690.712381H362.788571v-75.946667h398.140953z m-387.657143-10.48381h377.173333v-54.979047H373.272381z" fill="#FFFFFF" p-id="64582"></path><path d="M721.798095 724.48H412.525714v-27.306667l59.489524-16.944762h185.417143l64.365714 16.700953z m-298.788571-10.48381h288.304762v-8.777142l-55.832381-14.506667h-182.857143l-49.615238 14.384762z" fill="#FFFFFF" p-id="64583"></path></svg>