<?xml version="1.0" standalone="no"?><!DOCTYPE svg PUBLIC "-//W3C//DTD SVG 1.1//EN" "http://www.w3.org/Graphics/SVG/1.1/DTD/svg11.dtd"><svg t="1692230299794" class="icon" viewBox="0 0 1024 1024" version="1.1" xmlns="http://www.w3.org/2000/svg" p-id="66175" xmlns:xlink="http://www.w3.org/1999/xlink" width="200" height="200"><path d="M448 320m-192 0a192 192 0 1 0 384 0 192 192 0 1 0-384 0Z" fill="#249CF2" p-id="66176"></path><path d="M560 585.6c-35.2-6.4-73.6-9.6-112-9.6-211.2 0-384 108.8-384 320h502.4l-96-156.8 89.6-153.6z" fill="#249CF2" p-id="66177"></path><path d="M832 576h-192l-96 160 96 160h192l96-160-96-160z m-96 224c-35.2 0-64-28.8-64-64s28.8-64 64-64 64 28.8 64 64-28.8 64-64 64z" fill="#A5D6FA" p-id="66178"></path></svg>