<svg t="1602469219844" class="icon" viewBox="0 0 1024 1024" version="1.1" xmlns="http://www.w3.org/2000/svg" p-id="27413" width="48" height="48"><path d="M725.4 506.6c15.4 0 27.9-12.5 27.9-27.8 0-15.4-12.4-27.9-27.8-27.9h-68.3l75.5-90c9.9-11.8 8.4-29.4-3.4-39.2-11.8-9.9-29.4-8.4-39.3 3.4l-88.8 105.8L512.4 325c-9.9-11.8-27.5-13.3-39.3-3.4-11.8 9.9-13.3 27.5-3.4 39.2l75.5 89.9h-72c-15.4 0-27.9 12.5-27.9 27.8 0 15.4 12.4 27.9 27.8 27.9l98.3 0.1v42.3l-98.3-0.1c-15.4 0-27.9 12.5-27.9 27.8 0 15.4 12.4 27.9 27.8 27.9l98.2 0.1-0.1 75.7c0 15.4 12.4 27.9 27.8 27.9s27.9-12.5 27.9-27.8l0.1-75.7 98.3 0.1c15.4 0 27.9-12.5 27.9-27.8 0-15.4-12.4-27.9-27.8-27.9l-98.2-0.1v-42.3h98.3z m0 0" p-id="27414" fill="#FFFFFF"></path><path d="M896.7 128.8H91.9c-10.4 0-19.5 5.7-24.3 14.2-2.3 4-3.6 8.7-3.6 13.7 0 5.5 1.6 10.6 4.3 14.9L132.9 275 68.3 378.6c-2.6 4.2-4.2 9.3-4.2 14.7 0 5.5 1.6 10.6 4.3 14.9l64.5 103.5-64.6 103.5c-2.6 4.2-4.2 9.3-4.2 14.8s1.6 10.6 4.3 14.9l64.5 103.5-64.6 103.5c-2.7 4.2-4.2 9.3-4.2 14.7 0 5 1.3 9.6 3.6 13.7 4.8 8.5 13.9 14.2 24.3 14.2h804.8c34.8 0 63.1-28.3 63.1-63.1V191.9c-0.1-34.8-28.4-63.1-63.2-63.1z m7.4 702.6c0 4.1-3.3 7.4-7.4 7.4H317.4v-27.9c0-15.4-12.5-27.9-27.9-27.9-15.4 0-27.9 12.5-27.9 27.9v27.9H142.1l47.2-75.7c2.6-4.2 4.2-9.3 4.2-14.8s-1.6-10.6-4.3-14.9L124.8 630l64.6-103.6c2.6-4.2 4.2-9.3 4.2-14.7 0-5.5-1.6-10.6-4.3-14.9l-64.5-103.5 64.6-103.6c2.6-4.2 4.2-9.3 4.2-14.7 0-5.5-1.6-10.6-4.3-14.9l-47.1-75.6h119.5v27.9c0 15.4 12.5 27.9 27.9 27.9 15.4 0 27.9-12.5 27.9-27.9v-27.9h579.3c4.1 0 7.4 3.3 7.4 7.4l-0.1 639.5z m0 0" p-id="27415" fill="#FFFFFF"></path><path d="M289.5 543.6c-15.4 0-27.9 12.5-27.9 27.9v119.7c0 15.4 12.5 27.9 27.9 27.9 15.4 0 27.9-12.5 27.9-27.9V571.5c0-15.4-12.5-27.9-27.9-27.9z m0-239.4c-15.4 0-27.9 12.5-27.9 27.9v119.7c0 15.4 12.5 27.9 27.9 27.9 15.4 0 27.9-12.5 27.9-27.9V332.1c0-15.4-12.5-27.9-27.9-27.9z m0 0" p-id="27416" fill="#FFFFFF"></path></svg>