<svg t="1602409210926" class="icon" viewBox="0 0 1024 1024" version="1.1" xmlns="http://www.w3.org/2000/svg" p-id="10020" width="48" height="48"><path d="M96.6 270.3v488.8l415.7 170.3 35.9-14.7h7.6v-3.1L928 759.2V270.3L512.3 98.8 96.6 270.3z m399.8 590.6L156 721.4v-389l118.8 48.7v177.6c0 15.8 13.3 28.6 29.7 28.6s29.7-12.8 29.7-28.6V405.4h0.1l162.2 66.5v389z m372.2-139.5L555.8 849.5v-389l312.8-128.2v389.1z m-163.9-481l118.1 48.7-310.5 127.2-105.4-43.2 296-131.5c0.7-0.3 1.1-0.8 1.8-1.2zM333.2 342.9l-131.4-53.8 310.4-128 119.4 49.3-298.4 132.5z" p-id="10021" fill="#FFFFFF"></path></svg>