<?xml version="1.0" encoding="utf-8"?>
<svg version="1.1" xmlns:xlink="http://www.w3.org/1999/xlink" width="48px" height="48px" xmlns="http://www.w3.org/2000/svg">
  <defs>
    <path d="M 0 0  L 1024 0  L 1024 1024  L 0 1024  Z " fill-rule="evenodd" fill="black" id="path112" />
    <clipPath id="clip113">
      <use xlink:href="#path112" />
    </clipPath>
    <filter x="-50.00%" y="-50.00%" width="200.00%" height="200.00%" filterUnits="objectBoundingBox" id="filter114">
      <feColorMatrix type="matrix" values="1 0 0 0 0  0 1 0 0 0  0 0 1 0 0  0 0 0 1 0  " in="SourceGraphic" />
    </filter>
  </defs>
  <g transform="matrix(1 0 0 1 -1130 -1310 )">
    <g transform="matrix(0.046875 0 0 0.046875 1130 1310 )" clip-path="url(#clip113)" filter="url(#filter114)">
      <path d="M170.666667 868.693333l98.346666-94.72a21.333333 21.333333 0 0 1 30.72 1.173334l98.176 110.122666 98.176-110.122666a21.333333 21.333333 0 0 1 31.829334 0l98.176 110.122666 98.176-110.122666a21.333333 21.333333 0 0 1 30.72-1.173334L853.333333 868.693333V128H170.666667v740.693333z m-42.666667 49.386667V106.709333C128 94.890667 137.706667 85.333333 149.333333 85.333333h725.333334c11.776 0 21.333333 9.642667 21.333333 21.184v811.541334a21.333333 21.333333 0 0 1-36.117333 16.149333l-118.506667-114.133333-99.349333 111.445333a21.333333 21.333333 0 0 1-31.850667 0L512 821.397333l-98.176 110.122667a21.333333 21.333333 0 0 1-31.850667 0l-99.349333-111.445333-118.485333 114.133333A21.333333 21.333333 0 0 1 128 918.08zM298.666667 320c0-11.776 9.493333-21.333333 21.184-21.333333h341.632c11.690667 0 21.184 9.472 21.184 21.333333 0 11.776-9.493333 21.333333-21.184 21.333333H319.850667A21.205333 21.205333 0 0 1 298.666667 320z m0 128c0-11.776 9.6-21.333333 21.482666-21.333333h255.701334c11.861333 0 21.482667 9.472 21.482666 21.333333 0 11.776-9.6 21.333333-21.482666 21.333333H320.149333A21.354667 21.354667 0 0 1 298.666667 448z m0 128c0-11.776 9.6-21.333333 21.482666-21.333333h255.701334c11.861333 0 21.482667 9.472 21.482666 21.333333 0 11.776-9.6 21.333333-21.482666 21.333333H320.149333A21.354667 21.354667 0 0 1 298.666667 576z" fill="#FFFFFF" p-id="18286"></path>
    </g>
    <path d="M 1130.5 1357.5  L 1130.5 1310.5  L 1177.5 1310.5  L 1177.5 1357.5  L 1130.5 1357.5  Z " stroke-width="1" stroke="#f2f2f2" fill="none" />
  </g>
</svg>