<?xml version="1.0" standalone="no"?><!DOCTYPE svg PUBLIC "-//W3C//DTD SVG 1.1//EN" "http://www.w3.org/Graphics/SVG/1.1/DTD/svg11.dtd"><svg t="1557389429214" class="icon" style="" viewBox="0 0 1024 1024" version="1.1" xmlns="http://www.w3.org/2000/svg" p-id="7666" xmlns:xlink="http://www.w3.org/1999/xlink" width="48" height="48"><defs><style type="text/css"></style></defs><path d="M742.4 842.24c-7.68 0-12.8-2.56-17.92-7.68l-43.52-43.52c-10.24-10.24-10.24-25.6 0-35.84s25.6-10.24 35.84 0l25.6 25.6 76.8-76.8c10.24-10.24 25.6-10.24 35.84 0s10.24 25.6 0 35.84l-94.72 94.72c-5.12 5.12-10.24 7.68-17.92 7.68zM742.4 409.6h-460.8c-12.8 0-25.6 12.8-25.6 25.6s12.8 25.6 25.6 25.6h460.8c12.8 0 25.6-12.8 25.6-25.6s-12.8-25.6-25.6-25.6zM435.2 563.2h-153.6c-12.8 0-25.6 10.24-25.6 25.6 0 12.8 12.8 25.6 25.6 25.6h153.6c15.36 0 25.6-12.8 25.6-25.6 0-15.36-10.24-25.6-25.6-25.6zM435.2 716.8h-153.6c-12.8 0-25.6 10.24-25.6 25.6 0 12.8 12.8 25.6 25.6 25.6h153.6c12.8 0 25.6-12.8 25.6-25.6 0-15.36-12.8-25.6-25.6-25.6zM742.4 256h-460.8c-12.8 0-25.6 12.8-25.6 25.6s12.8 25.6 25.6 25.6h460.8c12.8 0 25.6-12.8 25.6-25.6s-12.8-25.6-25.6-25.6z" p-id="7667" fill="#FFFFFF"></path><path d="M896 51.2h-768c-12.8 0-25.6 12.8-25.6 25.6v870.4c0 12.8 12.8 25.6 25.6 25.6h384c15.36 0 25.6-10.24 25.6-25.6s-10.24-25.6-25.6-25.6h-358.4v-819.2h716.8v384c0 15.36 10.24 25.6 25.6 25.6s25.6-10.24 25.6-25.6v-409.6c0-12.8-12.8-25.6-25.6-25.6z" p-id="7668" fill="#FFFFFF"></path><path d="M768 614.4c84.48 0 153.6 69.12 153.6 153.6s-69.12 153.6-153.6 153.6-153.6-69.12-153.6-153.6 69.12-153.6 153.6-153.6m0-51.2c-112.64 0-204.8 92.16-204.8 204.8s92.16 204.8 204.8 204.8 204.8-92.16 204.8-204.8-92.16-204.8-204.8-204.8z" p-id="7669" fill="#FFFFFF"></path></svg>