<svg t="1602469563474" class="icon" viewBox="0 0 1024 1024" version="1.1" xmlns="http://www.w3.org/2000/svg" p-id="33680" width="48" height="48"><path d="M940.651163 285.767442a35.72093 35.72093 0 0 0-35.72093 35.72093v571.534884a59.534884 59.534884 0 0 1-59.534884 59.534884h-666.790698A59.534884 59.534884 0 0 1 119.069767 893.023256v-762.046512A59.534884 59.534884 0 0 1 178.604651 71.44186h483.423256a35.72093 35.72093 0 0 0 0-71.44186H178.604651A131.214884 131.214884 0 0 0 47.627907 130.976744v762.046512A131.214884 131.214884 0 0 0 178.604651 1024h666.790698a131.214884 131.214884 0 0 0 130.976744-130.976744v-571.534884a35.72093 35.72093 0 0 0-35.72093-35.72093z" fill="#FFFFFF" p-id="33681"></path><path d="M338.15814 190.511628h-119.069768a35.72093 35.72093 0 0 0 0 71.44186h119.069768a35.72093 35.72093 0 0 0 0-71.44186zM338.15814 388.167442h-119.069768a35.72093 35.72093 0 1 0 0 71.44186h119.069768a35.72093 35.72093 0 1 0 0-71.44186zM338.15814 588.204651h-119.069768a35.72093 35.72093 0 1 0 0 71.441861h119.069768a35.72093 35.72093 0 1 0 0-71.441861zM790.623256 595.348837h-309.581396a35.72093 35.72093 0 1 0 0 71.441861h309.581396a35.72093 35.72093 0 0 0 0-71.441861zM790.623256 785.860465h-309.581396a35.72093 35.72093 0 1 0 0 71.441861h309.581396a35.72093 35.72093 0 0 0 0-71.441861zM338.15814 785.860465h-119.069768a35.72093 35.72093 0 0 0 0 71.441861h119.069768a35.72093 35.72093 0 0 0 0-71.441861zM547.72093 292.197209l-90.493023 161.934884a35.72093 35.72093 0 0 0 44.770233 50.485581l178.604651-73.823255a36.197209 36.197209 0 0 0 11.668837-7.858605l171.460465-171.460465L952.55814 163.363721a35.72093 35.72093 0 0 0 0-50.961861l-88.111628-85.730232a35.72093 35.72093 0 0 0-50.009303 0l-259.572093 257.190698a35.482791 35.482791 0 0 0-7.144186 8.334883z m291.006512-190.511628l36.911628 35.95907-37.387907 38.102326-36.673489-36.673489z m-230.995349 228.852093l142.883721-142.883721 37.149767 38.578605-141.216744 141.216744-77.157209 31.910698z" fill="#FFFFFF" p-id="33682"></path></svg>