<?xml version="1.0" standalone="no"?><!DOCTYPE svg PUBLIC "-//W3C//DTD SVG 1.1//EN" "http://www.w3.org/Graphics/SVG/1.1/DTD/svg11.dtd"><svg t="1532865373608" class="icon" style="" viewBox="0 0 1024 1024" version="1.1" xmlns="http://www.w3.org/2000/svg" p-id="17681" xmlns:xlink="http://www.w3.org/1999/xlink" width="48" height="48"><defs><style type="text/css"></style></defs><path d="M779.88352 891.52c0 12.9792-6.58432 23.40352-14.53568 23.40352H233.30304c-7.95136 0-14.53568-10.42432-14.53568-23.40352 0-12.9792 6.58432-23.40352 14.53568-23.40352h532.0448c8.04352 0.09216 14.53568 10.60864 14.53568 23.40352zM880.48128 180.224c12.2368 0 23.93088 4.85888 32.56832 13.58336a46.0288 46.0288 0 0 1 13.49632 32.56832v496.60928c0 25.55392-20.78208 46.1568-46.1568 46.1568H143.61088a45.7472 45.7472 0 0 1-32.56832-13.58336 46.0288 46.0288 0 0 1-13.49632-32.56832V226.37568c0-25.55392 20.78208-46.1568 46.1568-46.1568l736.77824 0.00512m5.9136-51.63008H137.69728c-51.83488 0-93.70112 41.9584-93.70112 93.79328v504.58112c0 51.83488 41.87136 93.79328 93.70112 93.79328h748.61056c51.83488 0 93.70112-41.9584 93.70112-93.79328v-504.576c0.08704-51.74272-41.96352-93.7984-93.61408-93.7984z" fill="#FFFFFF" p-id="17682"></path><path d="M410.30144 333.80864h-45.06624l-110.70464 281.472h47.99488l28.43136-74.86976h113.08032l28.43136 74.86976h48.45056L410.30144 333.80864z m18.7392 166.74304H346.0352l41.68704-108.96896 41.3184 108.96896z m305.69472-127.52384c-22.67136-25.96352-56.77056-39.03488-101.10464-39.03488h-102.84544v281.37984h99.82464c43.78624 0 78.06976-13.16352 101.74464-39.03488 22.5792-24.68352 34.0992-58.86976 34.0992-101.74464-0.08704-43.42784-10.78272-77.70624-31.7184-101.56544z m-12.79488 101.65248c0 32.8192-7.86432 57.77408-23.2192 74.59328-16.1792 17.00352-40.95488 25.59488-73.58976 25.59488h-49.91488V374.48704h53.29408c32.63488 0 56.94976 8.50432 71.85408 24.95488 14.35136 16.18432 21.57568 41.41568 21.57568 75.2384z" fill="#FFFFFF" p-id="17683"></path></svg>