<svg t="1602467445560" class="icon" viewBox="0 0 1024 1024" version="1.1" xmlns="http://www.w3.org/2000/svg" p-id="16764" width="48" height="48"><path d="M241.056 187.2a45.92 45.92 0 0 0-45.856 46.272v557.104c0 33.024 27.136 59.968 61.76 60.8 35.232 0.848 64.848-27.968 64.848-60.8a19.2 19.2 0 0 1 38.4 0c0 33.44 27.44 60.8 61.28 60.8 33.856 0 61.312-27.36 61.312-60.8a19.2 19.2 0 0 1 38.4 0c0 17.04 7.456 35.296 19.072 47.824 11.488 12.368 24.672 17.008 37.248 13.632 4.224-1.136 5.44-1.808 7.008-2.768 1.04-0.64 2.128-1.36 3.888-2.528l1.248-0.848c2.4-1.6 5.376-3.568 9.328-5.984a19.2 19.2 0 0 1 20.144 32.688 257.248 257.248 0 0 0-9.152 5.92c-1.76 1.168-3.632 2.432-5.408 3.52-5.2 3.168-9.92 5.152-17.088 7.088-30.24 8.128-57.28-5.136-75.36-24.608a106.304 106.304 0 0 1-11.072-14.192 99.84 99.84 0 0 1-79.552 39.456 99.856 99.856 0 0 1-80.912-41.28c-19.232 25.616-50.56 42.08-84.56 41.28-53.984-1.312-99.232-43.872-99.232-99.2V233.472c0-46.592 37.312-84.672 84.256-84.672h524.496a84.688 84.688 0 0 1 84.704 84.672v252.256a19.2 19.2 0 1 1-38.4 0V233.472a46.288 46.288 0 0 0-46.304-46.272h-524.48z m58.256 141.376a19.2 19.2 0 0 1 19.2-19.2h368.544a19.2 19.2 0 1 1 0 38.4H318.512a19.2 19.2 0 0 1-19.2-19.2z m0 144a19.2 19.2 0 0 1 19.2-19.2h368.544a19.2 19.2 0 1 1 0 38.4H318.512a19.2 19.2 0 0 1-19.2-19.2z m441.392 65.68a19.2 19.2 0 0 1 11.872 17.744v82c3.632 0.256 7.2 0.528 10.672 0.8 3.44 0.256 6.752 0.512 9.92 0.72 12.528 0.832 24.288 1.072 36.496-0.688 23.568-3.408 51.792-14.752 88.96-50.816a19.2 19.2 0 0 1 32.576 13.792c0 70.4-33.088 113.824-75.392 138.592-33.584 19.68-72.224 27.264-103.232 29.36v70.24a19.2 19.2 0 0 1-32.8 13.552l-141.376-142a19.2 19.2 0 0 1 0-27.104l141.36-142a19.2 19.2 0 0 1 20.944-4.192z m-121.6 159.744l95.072 95.504V751.2a19.2 19.2 0 0 1 19.2-19.2c29.488 0 70.288-5.584 103.04-24.752 21.312-12.48 39.68-30.912 49.28-58.928-25.328 17.12-48.416 25.296-70.544 28.48-16.144 2.352-31.024 1.92-44.496 1.024-4.16-0.272-8.048-0.576-11.792-0.864-8.96-0.688-17.008-1.312-25.488-1.312a19.2 19.2 0 0 1-19.2-19.2v-53.968l-95.088 95.504z m-319.248-81.44a19.2 19.2 0 0 1 19.2-19.2h228a19.2 19.2 0 1 1 0 38.4h-228a19.2 19.2 0 0 1-19.2-19.2z" p-id="16765" fill="#FFFFFF"></path></svg>