<?xml version="1.0" standalone="no"?><!DOCTYPE svg PUBLIC "-//W3C//DTD SVG 1.1//EN" "http://www.w3.org/Graphics/SVG/1.1/DTD/svg11.dtd"><svg t="1532865440843" class="icon" style="" viewBox="0 0 1024 1024" version="1.1" xmlns="http://www.w3.org/2000/svg" p-id="19278" xmlns:xlink="http://www.w3.org/1999/xlink" width="48" height="48"><defs><style type="text/css"></style></defs><path d="M515.256 127.552c-228.83 0-415.023 186.194-415.023 415.021 0 228.846 186.194 415.023 415.023 415.023 228.828 0 415.022-186.178 415.022-415.023 0.001-228.827-186.193-415.021-415.022-415.021z m0 775.729c-198.886 0-360.723-161.805-360.723-360.708 0-198.885 161.836-360.705 360.723-360.705 198.903 0 360.705 161.82 360.705 360.705 0 198.903-161.801 360.708-360.705 360.708zM137.544 236.788c14.767-77.773 84.047-130.146 154.225-116.865 14.734 2.745 28.947-6.894 31.74-21.628 2.794-14.735-6.892-28.947-21.628-31.741-99.827-18.9-197.367 52.91-217.688 160.105-2.81 14.735 6.877 28.947 21.612 31.757 1.715 0.31 3.414 0.473 5.096 0.473 12.79-0.015 24.177-9.098 26.643-22.101z m806.8-10.128C924.004 119.465 826.268 47.753 726.622 66.554c-14.72 2.793-24.422 17.005-21.63 31.74 2.794 14.719 17.054 24.374 31.756 21.63 70.177-13.282 139.457 39.074 154.207 116.865 2.485 13.003 13.871 22.086 26.66 22.086 1.684 0 3.383-0.147 5.097-0.474 14.72-2.794 24.424-17.006 21.63-31.74zM722.176 533.345H532.914V323.841c0-14.997-12.154-27.167-27.15-27.167-15.011 0-27.165 12.17-27.165 27.167v236.653c0 15.012 12.154 27.15 27.165 27.15h216.413c15.014 0 27.166-12.138 27.166-27.15 0-14.996-12.152-27.149-27.166-27.149z m0 0" p-id="19279" fill="#FFFFFF"></path></svg>