<svg t="1602469629326" class="icon" viewBox="0 0 1024 1024" version="1.1" xmlns="http://www.w3.org/2000/svg" p-id="34967" width="48" height="48"><path d="M120 174.064c0-45.36 36.8-82.064 82.128-82.064h423.568a82.096 82.096 0 0 1 82.128 82.064v18.08h110.048a82.096 82.096 0 0 1 82.128 82.048v575.744c0 45.36-36.8 82.064-82.128 82.064H358.304a82.096 82.096 0 0 1-82.128-82.064v-18.08h-74.048A82.096 82.096 0 0 1 120 749.824V174.064z m156.176 593.808V274.192c0-45.36 36.816-82.064 82.128-82.064H643.84V174.08c0-9.92-8.08-18.064-18.128-18.064H202.128c-10.048 0-18.128 8.128-18.128 18.064v575.744c0 9.92 8.08 18.064 18.128 18.064h74.048z m82.128-511.744c-10.048 0-18.128 8.128-18.128 18.08V849.92c0 9.92 8.08 18.064 18.128 18.064h459.568c10.048 0 18.128-8.128 18.128-18.064V274.192c0-9.92-8.08-18.064-18.128-18.064H358.304zM588 380a64.528 64.528 0 0 0-64.592 64.48 64.528 64.528 0 0 0 64.592 64.464 64.528 64.528 0 0 0 64.592-64.48 64.528 64.528 0 0 0-64.592-64.464z m-128.592 64.48c0-70.992 57.6-128.48 128.592-128.48 70.976 0 128.592 57.488 128.592 128.48a128.048 128.048 0 0 1-40.336 93.424A163.776 163.776 0 0 1 752 676a32 32 0 0 1-32 32H456a32 32 0 0 1-32-32 163.776 163.776 0 0 1 75.744-138.096 128.048 128.048 0 0 1-40.32-93.44z m128.592 131.68a100.08 100.08 0 0 0-94.72 67.84h189.44a100.08 100.08 0 0 0-94.72-67.84zM404 792a32 32 0 0 1 32-32h132a32 32 0 1 1 0 64h-132a32 32 0 0 1-32-32z m224 0a32 32 0 0 1 32-32h72a32 32 0 1 1 0 64h-72a32 32 0 0 1-32-32z" p-id="34968" fill="#FFFFFF"></path></svg>