<svg t="1602407792846" class="icon" viewBox="0 0 1024 1024" version="1.1" xmlns="http://www.w3.org/2000/svg" p-id="3658" width="48" height="48"><path d="M902.091 725.197h-139.659v148.421c0 12.209-9.649 22.103-21.568 22.103h-29.633c-11.911 0-21.565-9.893-21.565-22.103v-148.421h-139.654c-11.914 0-21.565-9.922-21.565-22.102v-30.402c0-12.205 9.649-22.099 21.565-22.099h139.66v-148.45c0-12.205 9.699-22.103 21.565-22.103h29.633c11.914 0 21.565 9.899 21.565 22.103v148.451h139.659c11.916 0 21.558 9.893 21.558 22.099v30.402c-0.001 12.18-9.649 22.101-21.559 22.101v0 0 0zM330.508 100.254h430.885c95.209 0 172.346 79.131 172.346 176.771v240.31c0 21.463-20.576 24.833-20.576 24.833v0h-17.327c-18.166 0-19.643-25.157-19.643-25.157v-75.292h-746.636v277.226c0 0 30.076 112.56 114.745 112.56h322.835c0 0 21.904 1.549 21.904 20.086v21.435c0 20.947-21.116 22.694-21.116 22.694h-323.622c-95.157 0-172.342-79.134-172.342-176.777v-619.531M129.164 156.838v227.801h750.377v-108.717c0-105.1-101.798-119.084-101.798-119.084h-550.123z" p-id="3659" fill="#FFFFFF"></path></svg>