<?xml version="1.0" standalone="no"?><!DOCTYPE svg PUBLIC "-//W3C//DTD SVG 1.1//EN" "http://www.w3.org/Graphics/SVG/1.1/DTD/svg11.dtd"><svg t="1532865484483" class="icon" style="" viewBox="0 0 1024 1024" version="1.1" xmlns="http://www.w3.org/2000/svg" p-id="20766" xmlns:xlink="http://www.w3.org/1999/xlink" width="48" height="48"><defs><style type="text/css"></style></defs><path d="M805.66044445 967.11111111L512 761.62844445 218.33955555 967.11111111c-64.85333333 0-117.41866667-81.92-117.41866666-146.77333333V174.30755555c0-64.85333333 52.56533333-117.41866667 117.41866666-117.41866666H805.54666667c64.85333333 0 117.41866667 52.56533333 117.41866666 117.41866666V820.33777778c0.11377778 64.85333333-52.45155555 146.77333333-117.30488888 146.77333333z m58.70933333-792.80355556c0-32.42666667-26.28266667-58.70933333-58.70933333-58.70933333H218.33955555c-32.42666667 0-58.70933333 26.28266667-58.70933333 58.70933333V820.33777778c0 32.42666667 26.28266667 58.70933333 58.70933333 58.70933333L512 673.45066667l293.66044445 205.48266666c32.42666667 0 58.70933333-26.28266667 58.70933333-58.70933333V174.30755555z" p-id="20767" fill="#FFFFFF"></path><path d="M340.42311111 409.25866667c0 6.94044445 0.22755555 16.15644445 0.68266667 27.98933333-6.03022222-9.32977778-12.85688889-19.34222222-20.25244445-29.92355555l-65.99111111-92.27377778h-48.35555555v206.50666666h50.176v-94.208c0-7.62311111-0.22755555-16.83911111-0.56888889-27.98933333 7.168 11.264 14.10844445 21.61777778 20.82133333 30.83377778l65.30844444 91.36355555h48.35555556V314.93688889h-50.176v94.32177778zM764.24533333 314.93688889l-24.91733333 81.69244444c-3.41333333 11.71911111-6.82666667 23.77955555-10.01244445 36.29511112-2.61688889-11.71911111-5.57511111-23.43822222-8.53333333-35.04355556l-21.39022222-82.944h-47.90044445l-21.39022222 82.944c-2.95822222 11.83288889-5.80266667 23.552-8.53333333 35.04355556-2.95822222-11.60533333-6.37155555-23.66577778-10.12622222-36.4088889l-24.91733333-81.57866666H405.04888889v206.50666666h145.408v-44.032h-95.232V438.04444445H532.48v-44.032h-77.25511111v-34.92977778h90.112v-6.59911112L599.60888889 521.55733333h46.42133333l23.09688889-91.47733333c2.27555555-8.76088889 4.43733333-17.29422222 6.37155556-25.71377778 2.048 8.41955555 4.096 16.95288889 6.37155555 25.71377778l23.09688889 91.59111111h46.42133334L817.60711111 315.16444445h-53.36177778z" p-id="20768" fill="#FFFFFF"></path></svg>