<svg t="1602469677099" class="icon" viewBox="0 0 1024 1024" version="1.1" xmlns="http://www.w3.org/2000/svg" p-id="35953" width="48" height="48"><path d="M776.1 59c43.523 0 80.696 31.24 88.317 74.044l0.222 1.3 83.358 517.826c0.04 0.253 0.078 0.506 0.112 0.76 6.353 13.94 9.891 29.433 9.891 45.754V850.55c0 61-49.428 110.449-110.4 110.449H171.4C110.428 961 61 911.55 61 850.551V698.684c0-8.284 0.912-16.355 2.64-24.118a29.946 29.946 0 0 1-0.114-8.234l0.097-0.71 78.472-529.995c6.434-43.58 43.507-75.974 87.405-76.617l1.332-0.01H776.1zM317.978 648.061H171.4c-27.666 0-50.146 22.214-50.6 49.786V850.55c0 27.958 22.654 50.622 50.6 50.622h676.2c27.946 0 50.6-22.664 50.6-50.622V698.684c0-27.958-22.654-50.623-50.6-50.623H699.942l-3.6 3.393c-130.853 121.953-260.52 124.048-376.521-1.374l-1.844-2.019zM776.1 118.827H230.83c-14.582 0-26.999 10.515-29.465 24.835l-0.115 0.72-66.65 450.137c11.51-4.07 23.896-6.284 36.799-6.284h160.001c8.698 0 16.965 3.789 22.645 10.38 98.75 114.58 197.064 112.806 312.766-1.73a29.893 29.893 0 0 1 21.03-8.65H847.6a110.43 110.43 0 0 1 30.21 4.186l-72.2-448.5c-2.322-14.232-14.448-24.745-28.79-25.086l-0.72-0.008zM683.774 398.4c16.514 0 29.9 13.392 29.9 29.913 0 16.284-13.007 29.53-29.194 29.905l-0.706 0.008H325.5c-16.513 0-29.9-13.393-29.9-29.913 0-16.285 13.007-29.53 29.194-29.905l0.706-0.008h358.274z m0-154.169c16.514 0 29.9 13.393 29.9 29.913 0 16.285-13.007 29.53-29.194 29.906l-0.706 0.008H325.5c-16.513 0-29.9-13.393-29.9-29.914 0-16.284 13.007-29.53 29.194-29.905l0.706-0.008h358.274z" fill="#FFFFFF" p-id="35954"></path></svg>