<?xml version="1.0" standalone="no"?><!DOCTYPE svg PUBLIC "-//W3C//DTD SVG 1.1//EN" "http://www.w3.org/Graphics/SVG/1.1/DTD/svg11.dtd"><svg t="1532865420363" class="icon" style="" viewBox="0 0 1024 1024" version="1.1" xmlns="http://www.w3.org/2000/svg" p-id="18532" xmlns:xlink="http://www.w3.org/1999/xlink" width="48" height="48"><defs><style type="text/css"></style></defs><path d="M685.141954 423.933309l-86.062658-12.531999c-2.738144-0.469186-8.915955-4.92666-10.206088-7.428963l-38.515886-77.871203c-7.975601-16.364905-22.326862-26.139286-38.319028-26.139286-16.030635 0-30.303454 9.774381-38.280542 26.061338l-38.475913 77.870708c-1.329099 2.541285-7.507406 7.038236-10.284531 7.507406l-86.023676 12.51302c-18.024276 2.580746-31.67203 13.216048-36.599186 28.289316-5.005103 15.249661-0.077451 31.945845 12.982206 44.517817l62.171847 60.665877c1.954179 2.073602 4.379031 9.326685 3.909845 12.100804l-14.702032 85.732881c-2.424852 14.310298 0.743 27.545324 8.875982 37.146814 12.160251 14.52516 33.275439 18.181673 53.100494 7.898645l76.9918-40.510534c0.938372-0.508663 11.417267-0.547629 12.629437 0.057961l77.068755 40.452573c7.62483 3.908358 15.367581 5.921985 22.797551 5.921985 11.847967 0 22.8735-5.062568 30.225507-13.783663 8.17046-9.79336 11.378286-22.970426 8.796036-37.282722l-14.661068-85.63394c-0.391734-2.834078 1.876728-10.027202 4.026278-12.158764l62.054935-60.607916c13.059146-12.610954 17.94684-29.24817 13.099119-44.361427C716.931409 437.188322 703.206714 426.552541 685.141954 423.933309zM681.936127 469.095201l-62.054935 60.606909c-11.143453 10.656775-17.791937 30.951015-15.210695 46.199685l14.741014 85.749862c0.585603 3.538609 0.037974 5.337389-0.390743 5.925982 0 0-0.430716 1.308121-5.82605-1.527972l-76.795932-40.370629c-6.529573-3.499627-15.249661-5.455309-24.399457-5.455309-9.032884 0-17.674513 1.955682-24.243563 5.455309l-76.873384 40.370629c-2.815595 1.429031-4.497958 1.604912-5.904493 1.429031-0.469186-0.489668-0.977833-2.288448-0.313292-5.885018l14.663562-85.691901c2.619232-15.132748-3.988304-35.445968-15.014828-46.119739l-62.289768-60.783797c-2.736641-2.600237-3.245304-4.535933-3.049932-4.946646 0-0.196363 1.408053-1.582927 5.435323-2.170528l86.062658-12.531504c15.211686-2.208998 32.415526-14.702032 39.219409-28.466204l38.476921-78.008118c3.401694-6.900825 4.144198-6.960289 7.583866 0.077947l38.476921 77.949646c6.76642 13.782655 24.048703 26.276185 39.258391 28.485183l86.063649 12.493034c3.909349 0.567119 5.434316 1.896218 5.591217 2.170528C685.219901 464.442852 684.672272 466.398022 681.936127 469.095201zM511.999344 127.327416c-212.126674 0-384.682193 172.555008-384.682193 384.662703 0 212.107199 172.555503 384.683185 384.682193 384.683185 212.128177 0 384.682193-172.576001 384.682193-384.683185C896.681538 299.882424 724.127522 127.327416 511.999344 127.327416zM511.999344 852.703115c-187.883623 0-340.732487-152.827391-340.732487-340.712997 0-187.864132 152.848864-340.693506 340.732487-340.693506s340.69301 152.82939 340.69301 340.693506C852.692355 699.875724 699.882967 852.703115 511.999344 852.703115z" p-id="18533" fill="#FFFFFF"></path></svg>