<svg t="1602486119646" class="icon" viewBox="0 0 1024 1024" version="1.1" xmlns="http://www.w3.org/2000/svg" p-id="42073" width="64" height="64"><path d="M511.3 113.7c53.8 0 105.9 10.5 154.9 31.3 47.4 20 90 48.7 126.5 85.3 36.6 36.6 65.3 79.1 85.3 126.5 20.7 49 31.3 101.2 31.3 154.9S898.8 617.6 878 666.6c-20 47.4-48.7 90-85.3 126.5-36.6 36.6-79.1 65.3-126.5 85.3-49 20.7-101.2 31.3-154.9 31.3s-105.9-10.5-154.9-31.3c-47.4-20-90-48.7-126.5-85.3-36.6-36.6-65.3-79.1-85.3-126.5-20.7-49-31.3-101.2-31.3-154.9s10.5-105.9 31.3-154.9c20-47.4 48.7-90 85.3-126.5C266.5 193.7 309 165 356.4 145c49.1-20.8 101.2-31.3 154.9-31.3m0-50c-247.4 0-448 200.6-448 448s200.6 448 448 448 448-200.6 448-448-200.5-448-448-448z" p-id="42074" fill="#FFFFFF"></path><path d="M482.8 588H322.2v-54h160.6v-59.3H322.2v-54h133.7l-75.9-154h75.2l48.8 104c6.2 13 10.6 24.5 13.2 34.4 3.1-10.7 7.5-22.2 13.2-34.4l49.8-104h75.2l-76.9 154.1h124.7v54H551.4V534h151.8v54H551.4v202.7h-68.6V588z" p-id="42075" fill="#FFFFFF"></path></svg>