<svg t="1602486405244" class="icon" viewBox="0 0 1024 1024" version="1.1" xmlns="http://www.w3.org/2000/svg" p-id="47958" width="64" height="64"><path d="M512 800c-6.4 0-19.2-6.4-25.6-12.8L249.6 499.2C236.8 492.8 236.8 473.6 243.2 467.2l70.4-134.4C320 320 326.4 313.6 339.2 313.6l345.6 0c12.8 0 25.6 6.4 25.6 19.2l70.4 134.4c6.4 12.8 6.4 25.6-6.4 32l-243.2 288C531.2 793.6 518.4 800 512 800zM307.2 473.6 512 716.8l204.8-243.2-51.2-96L358.4 377.6 307.2 473.6z" p-id="47959" fill="#FFFFFF"></path><path d="M512 1024c-281.6 0-512-230.4-512-512s230.4-512 512-512 512 230.4 512 512c0 19.2-12.8 32-32 32S960 531.2 960 512c0-249.6-198.4-448-448-448S64 262.4 64 512s198.4 448 448 448c19.2 0 32 12.8 32 32S531.2 1024 512 1024z" p-id="47960" fill="#FFFFFF"></path><path d="M992 864l-320 0c-19.2 0-32-12.8-32-32s12.8-32 32-32l320 0c19.2 0 32 12.8 32 32S1011.2 864 992 864z" p-id="47961" fill="#FFFFFF"></path><path d="M832 1024c-19.2 0-32-12.8-32-32l0-320c0-19.2 12.8-32 32-32s32 12.8 32 32l0 320C864 1011.2 851.2 1024 832 1024z" p-id="47962" fill="#FFFFFF"></path></svg>