<svg t="1602486195224" class="icon" viewBox="0 0 1024 1024" version="1.1" xmlns="http://www.w3.org/2000/svg" p-id="44035" width="64" height="64"><path d="M71.68 896c-15.36 0-25.6-10.24-25.6-25.6V25.6c0-15.36 10.24-25.6 25.6-25.6h583.68c15.36 0 25.6 10.24 25.6 25.6V358.4c-15.36 0-30.72 5.12-51.2 5.12V302.08H486.4v122.88c-25.6 15.36-40.96 30.72-56.32 46.08l-15.36 15.36H286.72v148.48h46.08c-5.12 15.36-5.12 25.6-10.24 40.96h-35.84v148.48h40.96c5.12 15.36 10.24 35.84 15.36 51.2 5.12 10.24 5.12 15.36 10.24 25.6H71.68z m20.48-71.68h148.48v-148.48H92.16v148.48z m0-189.44h148.48V491.52H92.16v143.36z m194.56-189.44h148.48V302.08H286.72v143.36z m-194.56 0h148.48V302.08H92.16v143.36z m0-209.92h537.6V56.32H92.16v179.2z" fill="#FFFFFF" p-id="44036"></path><path d="M680.96 419.84c-81.92 0-158.72 30.72-215.04 92.16-56.32 56.32-87.04 138.24-87.04 215.04 0 35.84 10.24 71.68 20.48 107.52 46.08 112.64 158.72 189.44 281.6 189.44 163.84 0 296.96-138.24 296.96-302.08s-133.12-296.96-296.96-302.08z m0 552.96c-102.4 0-194.56-61.44-235.52-158.72-10.24-25.6-15.36-56.32-15.36-87.04 0-66.56 25.6-133.12 71.68-184.32 46.08-46.08 112.64-76.8 179.2-76.8 138.24 0 250.88 112.64 250.88 250.88 0 143.36-112.64 256-250.88 256z" fill="#FFFFFF" p-id="44037"></path><path d="M808.96 691.2v40.96h-102.4v56.32h102.4v40.96h-102.4v87.04h-51.2v-87.04h-107.52v-40.96h107.52v-56.32h-107.52v-40.96h92.16l-97.28-102.4h56.32l87.04 87.04h-10.24l81.92-87.04H819.2l-97.28 97.28h87.04z" fill="#FFFFFF" p-id="44038"></path></svg>