<?xml version="1.0" standalone="no"?><!DOCTYPE svg PUBLIC "-//W3C//DTD SVG 1.1//EN" "http://www.w3.org/Graphics/SVG/1.1/DTD/svg11.dtd"><svg t="1639222422885" class="icon" viewBox="0 0 1024 1024" version="1.1" xmlns="http://www.w3.org/2000/svg" p-id="1138" xmlns:xlink="http://www.w3.org/1999/xlink" width="32" height="32"><defs><style type="text/css"></style></defs><path d="M 512 512 m -118.154 0 a 118.154 118.154 0 1 0 236.308 0 a 118.154 118.154 0 1 0 -236.308 0 Z" fill="#FFFFFF" p-id="1139"></path><path d="M 232.369 234.338 C 78.7692 387.938 78.7692 636.062 232.369 789.662 c 153.6 153.6 403.692 153.6 557.292 0 s 153.6 -403.692 0 -557.292 C 636.062 78.7692 385.969 78.7692 232.369 234.338 Z M 716.8 354.462 l -51.2 122.092 c 11.8154 51.2 -1.96923 106.338 -41.3538 145.723 s -94.5231 53.1692 -145.723 41.3538 L 354.462 714.831 c -29.5385 11.8154 -59.0769 -17.7231 -47.2615 -47.2615 l 51.2 -122.092 c -11.8154 -51.2 1.96923 -106.338 41.3538 -145.723 s 94.5231 -53.1692 145.723 -41.3538 l 122.092 -51.2 c 31.5077 -11.8154 61.0462 17.7231 49.2308 47.2615 Z" fill="#FFFFFF" p-id="1140"></path></svg>