<?xml version="1.0" standalone="no"?><!DOCTYPE svg PUBLIC "-//W3C//DTD SVG 1.1//EN" "http://www.w3.org/Graphics/SVG/1.1/DTD/svg11.dtd"><svg t="1639222433269" class="icon" viewBox="0 0 1024 1024" version="1.1" xmlns="http://www.w3.org/2000/svg" p-id="1286" xmlns:xlink="http://www.w3.org/1999/xlink" width="32" height="32"><defs><style type="text/css"></style></defs><path d="M 173.292 360.369 l 194.954 98.4615 c 90.5846 45.2923 196.923 45.2923 285.538 -1.96923 l 196.923 -102.4 c 47.2615 -25.6 47.2615 -94.5231 0 -120.123 l -192.985 -100.431 c -90.5846 -47.2615 -200.862 -47.2615 -291.446 1.96923 l -192.985 104.369 c -49.2308 25.6 -47.2615 94.5231 0 120.123 Z" fill="#FFFFFF" p-id="1287"></path><path d="M 813.292 478.523 l -177.231 98.4615 c -72.8615 39.3846 -173.292 39.3846 -248.123 0 l -177.231 -98.4615 c -23.6308 -13.7846 -53.1692 -3.93846 -66.9538 19.6923 c -13.7846 23.6308 -3.93846 53.1692 19.6923 66.9538 l 179.2 98.4615 c 53.1692 27.5692 112.246 39.3846 171.323 39.3846 c 59.0769 0 120.123 -13.7846 171.323 -41.3538 l 177.231 -98.4615 c 23.6308 -13.7846 31.5077 -43.3231 19.6923 -66.9538 c -15.7538 -21.6615 -45.2923 -31.5077 -68.9231 -17.7231 Z" fill="#FFFFFF" p-id="1288"></path><path d="M 813.292 695.138 l -177.231 98.4615 c -72.8615 39.3846 -173.292 39.3846 -248.123 0 l -177.231 -98.4615 c -23.6308 -13.7846 -53.1692 -3.93846 -66.9538 19.6923 c -13.7846 23.6308 -3.93846 53.1692 19.6923 66.9538 l 179.2 98.4615 c 53.1692 27.5692 112.246 39.3846 171.323 39.3846 c 59.0769 0 120.123 -13.7846 171.323 -41.3538 l 177.231 -98.4615 c 23.6308 -13.7846 31.5077 -43.3231 19.6923 -66.9538 c -15.7538 -21.6615 -45.2923 -31.5077 -68.9231 -17.7231 Z" fill="#FFFFFF" p-id="1289"></path></svg>