<?xml version="1.0" standalone="no"?><!DOCTYPE svg PUBLIC "-//W3C//DTD SVG 1.1//EN" "http://www.w3.org/Graphics/SVG/1.1/DTD/svg11.dtd"><svg t="1639222436921" class="icon" viewBox="0 0 1024 1024" version="1.1" xmlns="http://www.w3.org/2000/svg" p-id="1435" xmlns:xlink="http://www.w3.org/1999/xlink" width="32" height="32"><defs><style type="text/css"></style></defs><path d="M 393.846 118.154 H 196.923 c -43.3231 0 -78.7692 35.4462 -78.7692 78.7692 v 196.923 c 0 43.3231 35.4462 78.7692 78.7692 78.7692 h 196.923 c 43.3231 0 78.7692 -35.4462 78.7692 -78.7692 V 196.923 c 0 -43.3231 -35.4462 -78.7692 -78.7692 -78.7692 Z M 827.077 551.385 H 630.154 c -43.3231 0 -78.7692 35.4462 -78.7692 78.7692 v 196.923 c 0 43.3231 35.4462 78.7692 78.7692 78.7692 h 196.923 c 43.3231 0 78.7692 -35.4462 78.7692 -78.7692 V 630.154 c 0 -43.3231 -35.4462 -78.7692 -78.7692 -78.7692 Z M 393.846 551.385 H 196.923 c -43.3231 0 -78.7692 35.4462 -78.7692 78.7692 v 196.923 c 0 43.3231 35.4462 78.7692 78.7692 78.7692 h 196.923 c 43.3231 0 78.7692 -35.4462 78.7692 -78.7692 V 630.154 c 0 -43.3231 -35.4462 -78.7692 -78.7692 -78.7692 Z M 827.077 118.154 H 630.154 c -43.3231 0 -78.7692 35.4462 -78.7692 78.7692 v 196.923 c 0 43.3231 35.4462 78.7692 78.7692 78.7692 h 196.923 c 43.3231 0 78.7692 -35.4462 78.7692 -78.7692 V 196.923 c 0 -43.3231 -35.4462 -78.7692 -78.7692 -78.7692 Z m 0 275.692 H 630.154 V 196.923 h 196.923 v 196.923 Z" fill="#FFFFFF" p-id="1436"></path></svg>