<?xml version="1.0" standalone="no"?><!DOCTYPE svg PUBLIC "-//W3C//DTD SVG 1.1//EN" "http://www.w3.org/Graphics/SVG/1.1/DTD/svg11.dtd"><svg t="1639222483403" class="icon" viewBox="0 0 1024 1024" version="1.1" xmlns="http://www.w3.org/2000/svg" p-id="3052" xmlns:xlink="http://www.w3.org/1999/xlink" width="32" height="32"><defs><style type="text/css"></style></defs><path d="M 860.554 118.154 h -9.84615 s -114.215 72.8615 -189.046 72.8615 h -9.84615 c -27.5692 -3.93846 -53.1692 -13.7846 -78.7692 -21.6615 c -35.4462 -13.7846 -70.8923 -29.5385 -131.938 -29.5385 h -13.7846 c -92.5538 3.93846 -169.354 25.6 -191.015 31.5077 l -11.8154 -13.7846 c -3.93846 -3.93846 -9.84615 -3.93846 -13.7846 -3.93846 l -45.2923 17.7231 c -7.87692 3.93846 -7.87692 7.87692 -7.87692 15.7538 l 228.431 752.246 c 0 3.93846 7.87692 7.87692 9.84615 7.87692 c 3.93846 0 7.87692 0 7.87692 -3.93846 l 57.1077 -51.2 c 3.93846 -3.93846 3.93846 -7.87692 3.93846 -9.84615 c 0 -3.93846 -49.2308 -139.815 -53.1692 -187.077 c 0 -25.6 9.84615 -51.2 27.5692 -72.8615 c 21.6615 -21.6615 63.0154 -47.2615 149.662 -47.2615 c 49.2308 0 92.5538 -7.87692 131.938 -17.7231 c 31.5077 -9.84615 61.0462 -21.6615 84.6769 -39.3846 c 43.3231 -29.5385 57.1077 -57.1077 61.0462 -57.1077 V 128 c 1.96923 -1.96923 -1.96923 -5.90769 -5.90769 -9.84615 Z m 0 0" fill="#FFFFFF" p-id="3053"></path></svg>