<?xml version="1.0" standalone="no"?><!DOCTYPE svg PUBLIC "-//W3C//DTD SVG 1.1//EN" "http://www.w3.org/Graphics/SVG/1.1/DTD/svg11.dtd"><svg t="1639222456540" class="icon" viewBox="0 0 1024 1024" version="1.1" xmlns="http://www.w3.org/2000/svg" p-id="1876" xmlns:xlink="http://www.w3.org/1999/xlink" width="32" height="32"><defs><style type="text/css"></style></defs><path d="M 884.185 641.969 c 13.7846 -41.3538 21.6615 -84.6769 21.6615 -129.969 c 0 -173.292 -114.215 -322.954 -269.785 -374.154 c -29.5385 -35.4462 -72.8615 -59.0769 -124.062 -59.0769 c -49.2308 0 -94.5231 23.6308 -124.062 59.0769 C 232.369 189.046 118.154 338.708 118.154 512 c 0 45.2923 7.87692 88.6154 21.6615 129.969 C 114.215 669.538 98.4615 706.954 98.4615 748.308 c 0 86.6462 70.8923 157.538 157.538 157.538 c 37.4154 0 70.8923 -11.8154 96.4923 -33.4769 c 49.2308 21.6615 102.4 33.4769 159.508 33.4769 c 57.1077 0 110.277 -11.8154 159.508 -33.4769 c 27.5692 21.6615 61.0462 33.4769 96.4923 33.4769 c 86.6462 0 157.538 -70.8923 157.538 -157.538 c 0 -41.3538 -15.7538 -78.7692 -41.3538 -106.338 Z m -472.615 126.031 c 0 -5.90769 1.96923 -13.7846 1.96923 -19.6923 c 0 -86.6462 -70.8923 -157.538 -157.538 -157.538 h -7.87692 c -7.87692 -25.6 -11.8154 -51.2 -11.8154 -78.7692 c 0 -96.4923 49.2308 -181.169 124.062 -230.4 c 19.6923 64.9846 78.7692 112.246 151.631 112.246 s 131.938 -47.2615 151.631 -112.246 C 738.462 330.831 787.692 415.508 787.692 512 c 0 27.5692 -3.93846 53.1692 -11.8154 78.7692 H 768 c -86.6462 0 -157.538 70.8923 -157.538 157.538 c 0 7.87692 0 13.7846 1.96923 19.6923 c -31.5077 11.8154 -64.9846 19.6923 -100.431 19.6923 s -68.9231 -7.87692 -100.431 -19.6923 Z" fill="#FFFFFF" p-id="1877"></path></svg>