<?xml version="1.0" standalone="no"?><!DOCTYPE svg PUBLIC "-//W3C//DTD SVG 1.1//EN" "http://www.w3.org/Graphics/SVG/1.1/DTD/svg11.dtd"><svg t="1639222448864" class="icon" viewBox="0 0 1024 1024" version="1.1" xmlns="http://www.w3.org/2000/svg" p-id="1582" xmlns:xlink="http://www.w3.org/1999/xlink" width="32" height="32"><defs><style type="text/css"></style></defs><path d="M 937.354 500.185 c -23.6308 -23.6308 -61.0462 -23.6308 -82.7077 0 l -13.7846 13.7846 l 82.7077 82.7077 l 13.7846 -13.7846 c 21.6615 -21.6615 21.6615 -59.0769 0 -82.7077 Z M 533.662 819.2 l -17.7231 74.8308 c -3.93846 15.7538 11.8154 31.5077 27.5692 27.5692 l 74.8308 -17.7231 l 277.662 -277.662 l -82.7077 -82.7077 l -279.631 275.692 Z M 827.077 177.231 c 0 -43.3231 -35.4462 -78.7692 -78.7692 -78.7692 H 236.308 C 192.985 98.4615 157.538 133.908 157.538 177.231 v 649.846 c 0 43.3231 35.4462 78.7692 78.7692 78.7692 h 118.154 l 472.615 -472.615 V 177.231 Z M 630.154 492.308 H 354.462 c -21.6615 0 -39.3846 -17.7231 -39.3846 -39.3846 s 17.7231 -39.3846 39.3846 -39.3846 h 275.692 c 21.6615 0 39.3846 17.7231 39.3846 39.3846 s -17.7231 39.3846 -39.3846 39.3846 Z m 0 -157.538 H 354.462 c -21.6615 0 -39.3846 -17.7231 -39.3846 -39.3846 s 17.7231 -39.3846 39.3846 -39.3846 h 275.692 c 21.6615 0 39.3846 17.7231 39.3846 39.3846 s -17.7231 39.3846 -39.3846 39.3846 Z" fill="#FFFFFF" p-id="1583"></path></svg>