<?xml version="1.0" standalone="no"?><!DOCTYPE svg PUBLIC "-//W3C//DTD SVG 1.1//EN" "http://www.w3.org/Graphics/SVG/1.1/DTD/svg11.dtd"><svg t="1639222460150" class="icon" viewBox="0 0 1024 1024" version="1.1" xmlns="http://www.w3.org/2000/svg" p-id="2023" xmlns:xlink="http://www.w3.org/1999/xlink" width="32" height="32"><defs><style type="text/css"></style></defs><path d="M 832.985 458.831 h -1.96923 c -3.93846 0 -7.87692 -1.96923 -11.8154 -1.96923 c -1.96923 0 -3.93846 0 -5.90769 -1.96923 c -1.96923 0 -5.90769 0 -7.87692 -1.96923 H 768 c -3.93846 0 -9.84615 1.96923 -13.7846 1.96923 h -3.93846 c -3.93846 1.96923 -9.84615 1.96923 -13.7846 3.93846 h -1.96923 c -3.93846 1.96923 -9.84615 3.93846 -13.7846 5.90769 h -1.96923 c -3.93846 1.96923 -9.84615 3.93846 -13.7846 7.87692 h -1.96923 c -3.93846 1.96923 -9.84615 5.90769 -13.7846 7.87692 c -1.96923 0 -1.96923 1.96923 -1.96923 1.96923 c -3.93846 1.96923 -7.87692 5.90769 -9.84615 7.87692 c -3.93846 3.93846 -7.87692 7.87692 -11.8154 9.84615 h -1.96923 c -15.7538 15.7538 -39.3846 15.7538 -55.1385 0 c -15.7538 -15.7538 -15.7538 -39.3846 0 -55.1385 c 49.2308 -49.2308 112.246 -74.8308 181.169 -74.8308 c 13.7846 0 27.5692 1.96923 41.3538 3.93846 c -47.2615 -124.062 -167.385 -216.615 -309.169 -216.615 c -147.692 0 -273.723 100.431 -311.138 236.308 C 122.092 421.415 59.0769 502.154 59.0769 596.677 C 59.0769 708.923 145.723 799.508 256 807.385 h 531.692 c 98.4615 0 177.231 -78.7692 177.231 -177.231 c 0 -82.7077 -57.1077 -151.631 -131.938 -171.323 Z" fill="#FFFFFF" p-id="2024"></path></svg>