<?xml version="1.0" standalone="no"?><!DOCTYPE svg PUBLIC "-//W3C//DTD SVG 1.1//EN" "http://www.w3.org/Graphics/SVG/1.1/DTD/svg11.dtd"><svg t="1639222462967" class="icon" viewBox="0 0 1024 1024" version="1.1" xmlns="http://www.w3.org/2000/svg" p-id="2170" xmlns:xlink="http://www.w3.org/1999/xlink" width="32" height="32"><defs><style type="text/css"></style></defs><path d="M 768 925.538 H 256 c -21.6615 0 -39.3846 -17.7231 -39.3846 -39.3846 s 17.7231 -39.3846 39.3846 -39.3846 h 512 c 21.6615 0 39.3846 17.7231 39.3846 39.3846 s -17.7231 39.3846 -39.3846 39.3846 Z M 803.446 137.846 H 220.554 C 175.262 137.846 137.846 175.262 137.846 220.554 v 486.4 c 0 45.2923 37.4154 82.7077 82.7077 82.7077 h 584.862 c 45.2923 0 82.7077 -37.4154 82.7077 -82.7077 V 220.554 C 886.154 175.262 848.738 137.846 803.446 137.846 Z m -61.0462 220.554 l -167.385 167.385 c -15.7538 13.7846 -41.3538 15.7538 -55.1385 0 L 429.292 433.231 l -112.246 112.246 c -7.87692 7.87692 -17.7231 11.8154 -27.5692 11.8154 s -19.6923 -3.93846 -27.5692 -11.8154 c -15.7538 -15.7538 -15.7538 -39.3846 0 -55.1385 l 139.815 -139.815 c 15.7538 -15.7538 39.3846 -15.7538 55.1385 0 l 90.5846 90.5846 l 139.815 -139.815 c 15.7538 -15.7538 39.3846 -15.7538 55.1385 0 c 15.7538 15.7538 15.7538 41.3538 0 57.1077 Z" fill="#FFFFFF" p-id="2171"></path></svg>