<?xml version="1.0" standalone="no"?><!DOCTYPE svg PUBLIC "-//W3C//DTD SVG 1.1//EN" "http://www.w3.org/Graphics/SVG/1.1/DTD/svg11.dtd"><svg t="1639222480260" class="icon" viewBox="0 0 1024 1024" version="1.1" xmlns="http://www.w3.org/2000/svg" p-id="2905" xmlns:xlink="http://www.w3.org/1999/xlink" width="32" height="32"><defs><style type="text/css"></style></defs><path d="M 238.277 315.077 H 177.231 c -43.3231 0 -78.7692 35.4462 -78.7692 78.7692 v 413.538 c 0 43.3231 35.4462 78.7692 78.7692 78.7692 h 61.0462 c 43.3231 0 78.7692 -35.4462 78.7692 -78.7692 V 393.846 c 0 -43.3231 -35.4462 -78.7692 -78.7692 -78.7692 Z M 551.385 137.846 h -78.7692 c -43.3231 0 -78.7692 35.4462 -78.7692 78.7692 v 590.769 c 0 43.3231 35.4462 78.7692 78.7692 78.7692 h 78.7692 c 43.3231 0 78.7692 -35.4462 78.7692 -78.7692 V 216.615 c 0 -43.3231 -35.4462 -78.7692 -78.7692 -78.7692 Z M 846.769 492.308 h -61.0462 c -43.3231 0 -78.7692 35.4462 -78.7692 78.7692 v 236.308 c 0 43.3231 35.4462 78.7692 78.7692 78.7692 H 846.769 c 43.3231 0 78.7692 -35.4462 78.7692 -78.7692 V 571.077 c 0 -43.3231 -35.4462 -78.7692 -78.7692 -78.7692 Z" fill="#FFFFFF" p-id="2906"></path></svg>