<?xml version="1.0" standalone="no"?><!DOCTYPE svg PUBLIC "-//W3C//DTD SVG 1.1//EN" "http://www.w3.org/Graphics/SVG/1.1/DTD/svg11.dtd"><svg t="1639222469453" class="icon" viewBox="0 0 1024 1024" version="1.1" xmlns="http://www.w3.org/2000/svg" p-id="2464" xmlns:xlink="http://www.w3.org/1999/xlink" width="32" height="32"><defs><style type="text/css"></style></defs><path d="M 512 118.154 C 295.385 118.154 118.154 295.385 118.154 512 s 177.231 393.846 393.846 393.846 s 393.846 -177.231 393.846 -393.846 S 728.615 118.154 512 118.154 Z m 118.154 433.231 h -78.7692 v 39.3846 h 39.3846 c 21.6615 0 39.3846 17.7231 39.3846 39.3846 s -17.7231 39.3846 -39.3846 39.3846 h -39.3846 v 39.3846 c 0 21.6615 -17.7231 39.3846 -39.3846 39.3846 s -39.3846 -17.7231 -39.3846 -39.3846 v -39.3846 h -39.3846 c -21.6615 0 -39.3846 -17.7231 -39.3846 -39.3846 s 17.7231 -39.3846 39.3846 -39.3846 h 39.3846 v -39.3846 h -78.7692 c -21.6615 0 -39.3846 -17.7231 -39.3846 -39.3846 s 17.7231 -39.3846 39.3846 -39.3846 h 78.7692 v -7.87692 l -86.6462 -86.6462 c -15.7538 -15.7538 -15.7538 -39.3846 0 -55.1385 c 15.7538 -15.7538 39.3846 -15.7538 55.1385 0 L 512 393.846 l 70.8923 -70.8923 c 15.7538 -15.7538 39.3846 -15.7538 55.1385 0 c 15.7538 15.7538 15.7538 39.3846 0 55.1385 L 551.385 466.708 v 5.90769 h 78.7692 c 21.6615 0 39.3846 17.7231 39.3846 39.3846 s -17.7231 39.3846 -39.3846 39.3846 Z" fill="#FFFFFF" p-id="2465"></path></svg>