<?xml version="1.0" standalone="no"?><!DOCTYPE svg PUBLIC "-//W3C//DTD SVG 1.1//EN" "http://www.w3.org/Graphics/SVG/1.1/DTD/svg11.dtd"><svg t="1639222486351" class="icon" viewBox="0 0 1024 1024" version="1.1" xmlns="http://www.w3.org/2000/svg" p-id="3199" xmlns:xlink="http://www.w3.org/1999/xlink" width="32" height="32"><defs><style type="text/css"></style></defs><path d="M 878.277 673.477 L 348.554 143.754 c -29.5385 -29.5385 -80.7385 -29.5385 -110.277 0 l -82.7077 82.7077 c -29.5385 29.5385 -29.5385 80.7385 0 110.277 l 57.1077 57.1077 l 102.4 -102.4 c 7.87692 -7.87692 19.6923 -7.87692 27.5692 0 c 7.87692 7.87692 7.87692 19.6923 0 27.5692 l -102.4 102.4 l 68.9231 68.9231 l 74.8308 -74.8308 c 7.87692 -7.87692 19.6923 -7.87692 27.5692 0 c 7.87692 7.87692 7.87692 19.6923 0 27.5692 l -74.8308 74.8308 l 68.9231 68.9231 l 102.4 -102.4 c 7.87692 -7.87692 19.6923 -7.87692 27.5692 0 c 7.87692 7.87692 7.87692 19.6923 0 27.5692 L 433.231 614.4 l 68.9231 68.9231 l 74.8308 -74.8308 c 7.87692 -7.87692 19.6923 -7.87692 27.5692 0 c 7.87692 7.87692 7.87692 19.6923 0 27.5692 L 531.692 712.862 l 55.1385 55.1385 l 102.4 -102.4 c 7.87692 -7.87692 19.6923 -7.87692 27.5692 0 c 7.87692 7.87692 7.87692 19.6923 0 27.5692 l -102.4 102.4 l 70.8923 70.8923 c 29.5385 29.5385 80.7385 29.5385 110.277 0 l 82.7077 -82.7077 c 31.5077 -31.5077 31.5077 -80.7385 0 -110.277 Z M 878.277 311.138 c 31.5077 -31.5077 31.5077 -80.7385 0 -112.246 l -55.1385 -55.1385 c -31.5077 -31.5077 -80.7385 -31.5077 -112.246 0 l -145.723 145.723 l 167.385 167.385 l 145.723 -145.723 Z M 179.2 675.446 c -9.84615 9.84615 -15.7538 21.6615 -17.7231 35.4462 l -17.7231 124.062 c -3.93846 25.6 17.7231 45.2923 43.3231 41.3538 l 124.062 -17.7231 c 13.7846 -1.96923 25.6 -7.87692 35.4462 -17.7231 l 122.092 -122.092 l -167.385 -167.385 l -122.092 124.062 Z" fill="#FFFFFF" p-id="3200"></path></svg>