<?xml version="1.0" standalone="no"?><!DOCTYPE svg PUBLIC "-//W3C//DTD SVG 1.1//EN" "http://www.w3.org/Graphics/SVG/1.1/DTD/svg11.dtd"><svg t="1639222453007" class="icon" viewBox="0 0 1024 1024" version="1.1" xmlns="http://www.w3.org/2000/svg" p-id="1729" xmlns:xlink="http://www.w3.org/1999/xlink" width="32" height="32"><defs><style type="text/css"></style></defs><path d="M 829.046 354.462 H 708.923 v -157.538 c 0 -43.3231 -35.4462 -78.7692 -78.7692 -78.7692 H 196.923 c -43.3231 0 -78.7692 35.4462 -78.7692 78.7692 v 630.154 c 0 43.3231 35.4462 78.7692 78.7692 78.7692 h 632.123 c 43.3231 0 76.8 -35.4462 76.8 -76.8 V 431.262 c 0 -41.3538 -35.4462 -76.8 -76.8 -76.8 Z M 551.385 669.538 H 275.692 c -21.6615 0 -39.3846 -17.7231 -39.3846 -39.3846 s 17.7231 -39.3846 39.3846 -39.3846 h 275.692 c 21.6615 0 39.3846 17.7231 39.3846 39.3846 s -17.7231 39.3846 -39.3846 39.3846 Z m 0 -157.538 H 275.692 c -21.6615 0 -39.3846 -17.7231 -39.3846 -39.3846 s 17.7231 -39.3846 39.3846 -39.3846 h 275.692 c 21.6615 0 39.3846 17.7231 39.3846 39.3846 s -17.7231 39.3846 -39.3846 39.3846 Z m 0 -157.538 H 275.692 c -21.6615 0 -39.3846 -17.7231 -39.3846 -39.3846 s 17.7231 -39.3846 39.3846 -39.3846 h 275.692 c 21.6615 0 39.3846 17.7231 39.3846 39.3846 s -17.7231 39.3846 -39.3846 39.3846 Z" fill="#FFFFFF" p-id="1730"></path></svg>