<?xml version="1.0" standalone="no"?><!DOCTYPE svg PUBLIC "-//W3C//DTD SVG 1.1//EN" "http://www.w3.org/Graphics/SVG/1.1/DTD/svg11.dtd"><svg t="1639222466180" class="icon" viewBox="0 0 1024 1024" version="1.1" xmlns="http://www.w3.org/2000/svg" p-id="2317" xmlns:xlink="http://www.w3.org/1999/xlink" width="32" height="32"><defs><style type="text/css"></style></defs><path d="M 927.508 395.815 L 805.415 167.385 c -11.8154 -17.7231 -31.5077 -29.5385 -53.1692 -29.5385 H 271.754 c -21.6615 0 -41.3538 11.8154 -53.1692 29.5385 L 96.4923 395.815 c -9.84615 17.7231 -9.84615 41.3538 3.93846 57.1077 l 362.338 450.954 c 25.6 31.5077 72.8615 31.5077 98.4615 0 L 923.569 452.923 c 13.7846 -15.7538 13.7846 -39.3846 3.93846 -57.1077 Z M 708.923 393.846 H 315.077 c -21.6615 0 -39.3846 -17.7231 -39.3846 -39.3846 s 17.7231 -39.3846 39.3846 -39.3846 h 393.846 c 21.6615 0 39.3846 17.7231 39.3846 39.3846 s -17.7231 39.3846 -39.3846 39.3846 Z" fill="#FFFFFF" p-id="2318"></path></svg>