<?xml version="1.0" standalone="no"?><!DOCTYPE svg PUBLIC "-//W3C//DTD SVG 1.1//EN" "http://www.w3.org/Graphics/SVG/1.1/DTD/svg11.dtd"><svg t="1639222473811" class="icon" viewBox="0 0 1024 1024" version="1.1" xmlns="http://www.w3.org/2000/svg" p-id="2611" xmlns:xlink="http://www.w3.org/1999/xlink" width="32" height="32"><defs><style type="text/css"></style></defs><path d="M 831.015 271.754 L 567.138 120.123 c -35.4462 -19.6923 -76.8 -19.6923 -112.246 0 L 192.985 271.754 C 157.538 291.446 137.846 328.862 137.846 368.246 v 303.262 c 0 39.3846 21.6615 76.8 55.1385 96.4923 l 261.908 151.631 c 35.4462 19.6923 76.8 19.6923 112.246 0 L 831.015 768 c 35.4462 -19.6923 55.1385 -57.1077 55.1385 -96.4923 V 368.246 c 0 -39.3846 -21.6615 -76.8 -55.1385 -96.4923 Z M 728.615 427.323 l -177.231 106.338 V 748.308 c 0 21.6615 -17.7231 39.3846 -39.3846 39.3846 s -39.3846 -17.7231 -39.3846 -39.3846 V 533.662 l -177.231 -106.338 c -17.7231 -11.8154 -25.6 -35.4462 -13.7846 -53.1692 c 11.8154 -17.7231 35.4462 -25.6 53.1692 -13.7846 l 177.231 106.338 l 177.231 -106.338 c 17.7231 -11.8154 43.3231 -5.90769 53.1692 13.7846 c 11.8154 17.7231 5.90769 41.3538 -13.7846 53.1692 Z" fill="#FFFFFF" p-id="2612"></path></svg>