<?xml version="1.0" encoding="utf-8"?>
<!-- Generator: Adobe Illustrator 14.0.0, SVG Export Plug-In . SVG Version: 6.00 Build 43363)  -->
<!DOCTYPE svg PUBLIC "-//W3C//DTD SVG 1.1//EN" "http://www.w3.org/Graphics/SVG/1.1/DTD/svg11.dtd">
<svg version="1.1" id="图层_1" xmlns="http://www.w3.org/2000/svg" xmlns:xlink="http://www.w3.org/1999/xlink" x="0px" y="0px"
	 width="135.684px" height="106.502px" viewBox="0 0 135.684 106.502" enable-background="new 0 0 135.684 106.502"
	 xml:space="preserve">
<path fill="#7F7F7F" stroke="#000000" stroke-width="2" d="M99.331,34.819l25.089,7.681l7.425-7.681V4.865H56.578L51.97,5.121
	L47.105,5.89l-4.608,1.28l-4.352,1.792l-4.608,2.304l-4.352,2.561l-3.84,2.815l-3.84,3.328l-3.584,3.584l-3.328,3.841l-2.816,3.84
	l-2.304,4.352l-2.048,4.353l-1.28,4.353L5.12,48.899l-0.256,4.608l0.256,4.608l0.768,4.608l1.28,4.352l1.792,4.353l2.048,4.352
	l2.56,3.841l2.816,3.84l3.328,3.328l3.328,3.328l3.84,2.815l3.84,2.561l4.353,2.048l4.352,1.792l4.352,1.28l4.608,0.768l4.608,0.257
	l4.608-0.257l4.608-1.023l4.352-1.28l4.353-2.048l4.352-2.304l3.84-2.816l3.84-3.328l3.585-3.584l3.328-3.841l2.815-4.096
	l2.561-4.096l2.305-4.608l1.791-4.608l1.28-4.608l0.769-4.863l0.256-4.608l-0.256-3.584l-0.256-3.841l-0.769-3.84L99.331,34.819z"/>
<path fill="#B2B2B2" stroke="#000000" stroke-width="2" d="M91.651,42.499h32.769V12.29H48.897l-4.608,0.256l-4.352,0.768
	l-4.352,1.024l-4.096,1.536l-4.096,1.792l-3.584,2.304l-3.584,2.561l-3.072,3.072l-3.072,3.071l-2.56,3.585l-2.304,3.584
	l-1.792,4.096l-1.536,4.096l-1.024,4.353L4.096,52.74L3.84,57.347l0.256,4.608l0.768,4.353l1.024,4.352l1.536,4.353l1.792,3.84
	l2.304,3.84l2.56,3.328l3.072,3.328l3.072,2.816l3.584,2.816l3.584,2.048l4.096,2.048l4.096,1.536l4.352,1.024l4.352,0.768
	l4.608,0.256l4.608-0.256l4.353-0.768l4.352-1.024l4.352-1.536l3.84-2.048l3.841-2.048l3.328-2.816l3.328-2.816l2.815-3.328
	l2.816-3.328l2.048-3.84l2.048-3.84l1.536-4.353l1.023-4.352l0.769-4.353l0.257-4.608l-0.257-3.84l-0.512-3.584l-0.769-3.84
	L91.651,42.499z"/>
<path fill="none" stroke="#000000" stroke-width="2" d="M124.419,12.29l7.425-8.448"/>
</svg>
