<?xml version="1.0" encoding="utf-8"?>
<!-- Generator: Adobe Illustrator 14.0.0, SVG Export Plug-In . SVG Version: 6.00 Build 43363)  -->
<!DOCTYPE svg PUBLIC "-//W3C//DTD SVG 1.1//EN" "http://www.w3.org/Graphics/SVG/1.1/DTD/svg11.dtd">
<svg version="1.1" id="图层_1" xmlns="http://www.w3.org/2000/svg" xmlns:xlink="http://www.w3.org/1999/xlink" x="0px" y="0px"
	 width="138.938px" height="106.502px" viewBox="0 0 138.938 106.502" enable-background="new 0 0 138.938 106.502"
	 xml:space="preserve">
<path fill="#CCCCCC" d="M3.898,3.899h131.143v98.705H3.898V3.899z"/>
<path fill="#C7C7C7" d="M3.898,73.925l131.143-41.208v69.887H3.898V73.925z"/>
<path fill="#C2C2C2" d="M3.898,77.823l131.143-40.93v65.711H3.898V77.823z"/>
<path fill="#BDBDBD" d="M3.898,84.088l131.143-41.069v59.585H3.898V84.088z"/>
<path fill="#CCCCCC" d="M6.543,6.683h125.853v87.429H6.543V6.683z"/>
<path fill="#C7C7C7" d="M69.469,68.635l62.926-36.476v61.952H69.469V68.635z"/>
<path fill="#C7C7C7" d="M6.543,68.913l62.927-36.754v61.952H6.543V68.913z"/>
<path fill="#C2C2C2" d="M69.469,72.672l62.926-36.754v58.193H69.469V72.672z"/>
<path fill="#C2C2C2" d="M6.543,72.672l62.927-36.754v58.193H6.543V72.672z"/>
<path fill="#BDBDBD" d="M69.469,77.823l62.926-36.475v52.764H69.469V77.823z"/>
<path fill="#BDBDBD" d="M6.543,77.823l62.927-36.475v52.764H6.543V77.823z"/>
<path fill="none" stroke="#000000" stroke-width="2" d="M3.898,3.899h131.143v98.705H3.898V3.899"/>
<path fill="none" stroke="#7F7F7F" stroke-width="2" d="M69.469,6.683h62.926v87.429H69.469V6.683"/>
<path fill="#999999" d="M91.326,95.781h21.996v5.151H91.326V95.781z"/>
<path fill="#4C4C4C" d="M7.796,93.415L7.239,92.58l0.557-0.836H8.91l0.418,0.836L8.91,93.415H7.796z"/>
<path fill="#4C4C4C" d="M7.796,33.83l-0.557-0.835l0.557-1.114H8.91l0.418,1.114L8.91,33.83H7.796z"/>
<path fill="none" stroke="#7F7F7F" stroke-width="2" d="M6.543,6.683h62.927v87.429H6.543V6.683"/>
<path fill="#E5E5E5" d="M77.544,8.91h7.657v12.809h-7.657V8.91z"/>
<path d="M72.392,8.91h1.811v5.986h-1.811V8.91z"/>
<path d="M128.219,8.91h2.089v5.986h-2.089V8.91z"/>
<path fill="#333333" stroke="#000000" stroke-width="2" d="M6.543,6.683h62.927v24.781H6.543V6.683z"/>
<path fill="#E5E5E5" d="M26.451,22.972h7.657v3.48h-7.657V22.972z"/>
<path fill="#B2B2B2" d="M43.714,25.895l-1.531-1.531v-2.366l1.531-1.531h2.089l1.81,1.531v2.366l-1.81,1.531H43.714z"/>
<path fill="#B2B2B2" d="M52.624,25.895l-1.531-1.531v-2.366l1.531-1.531h2.228l1.531,1.531v2.366l-1.531,1.531H52.624z"/>
<path fill="#666666" d="M15.453,22.972h7.518v3.48h-7.518V22.972z"/>
<path fill="none" stroke="#000000" stroke-width="2" d="M18.795,13.505v6.961h-2.646"/>
<path fill="none" stroke="#000000" stroke-width="2" d="M23.528,13.505v6.961h-2.646"/>
<path fill="none" stroke="#000000" stroke-width="2" d="M28.54,13.505v6.961h-2.924"/>
<path fill="none" stroke="#000000" stroke-width="2" d="M33.273,13.505v6.961h-2.924"/>
<path fill="none" stroke="#7F7F7F" stroke-width="2" d="M30.349,20.466v-6.961h2.924"/>
<path fill="none" stroke="#7F7F7F" stroke-width="2" d="M25.616,20.466v-6.961h2.924"/>
<path fill="none" stroke="#7F7F7F" stroke-width="2" d="M20.883,20.466v-6.961h2.646"/>
<path fill="none" stroke="#7F7F7F" stroke-width="2" d="M16.149,20.466v-6.961h2.646"/>
<path fill="#7F7F7F" d="M40.791,31.881l28.679,54.991V72.394L48.169,31.881H40.791z"/>
<path fill="#666666" d="M48.169,31.881l21.301,40.513V57.915L55.826,31.881H48.169z"/>
<path fill="#4C4C4C" d="M55.826,31.881l13.644,26.034V43.437l-5.986-11.556H55.826z"/>
<path fill="none" stroke="#FFFFFF" stroke-width="2" d="M70.304,7.24h61.395"/>
</svg>
