<?xml version="1.0" encoding="utf-8"?>
<!-- Generator: Adobe Illustrator 14.0.0, SVG Export Plug-In . SVG Version: 6.00 Build 43363)  -->
<!DOCTYPE svg PUBLIC "-//W3C//DTD SVG 1.1//EN" "http://www.w3.org/Graphics/SVG/1.1/DTD/svg11.dtd">
<svg version="1.1" id="图层_1" xmlns="http://www.w3.org/2000/svg" xmlns:xlink="http://www.w3.org/1999/xlink" x="0px" y="0px"
	 width="144.749px" height="99.209px" viewBox="0 0 144.749 99.209" enable-background="new 0 0 144.749 99.209"
	 xml:space="preserve">
<path fill="#336666" d="M123.573,43.658h8.702v22.916h-8.702V43.658z"/>
<path fill="#336666" d="M118.061,4.062h5.512v25.382h-5.512V4.062z"/>
<path fill="#669999" d="M124.589,43.658h6.672v22.916h-6.672V43.658z"/>
<path fill="#669999" d="M118.641,4.062h4.352v25.382h-4.352V4.062z"/>
<path fill="#99CCCC" d="M126.039,43.658h4.062v22.916h-4.062V43.658z"/>
<path fill="#99CCCC" d="M119.512,4.062h2.61v25.382h-2.61V4.062z"/>
<path fill="#003333" stroke="#000000" stroke-width="2" d="M100.802,32.49H26.687v62.657h74.115V32.49z"/>
<path fill="#001919" d="M55.985,48.879h39.16v14.793H81.657v17.115H55.985V48.879z"/>
<path fill="none" stroke="#000000" stroke-width="2" d="M123.573,43.658h8.702v22.916h-8.702V43.658"/>
<path fill="none" stroke="#000000" stroke-width="2" d="M118.061,4.062h5.512v25.382h-5.512V4.062"/>
<path fill="#0D4040" d="M92.389,66.573h48.298v28.573H92.389V66.573z"/>
<path fill="#8F8F8F" d="M38.145,9.429h34.229v45.688H38.145V9.429z"/>
<path fill="#194C4C" d="M92.389,67.154h48.298v27.122H92.389V67.154z"/>
<path fill="#265959" d="M92.389,68.024h48.298v25.672H92.389V68.024z"/>
<path fill="#336666" d="M92.389,68.749h48.298v24.077H92.389V68.749z"/>
<path fill="none" stroke="#000000" stroke-width="2" d="M92.389,66.573h48.298v28.573H92.389V66.573"/>
<path fill="#0D4040" d="M137.207,67.154h0.87v27.122h-0.87V67.154z"/>
<path fill="#0D4040" d="M118.061,67.154h0.58v27.122h-0.58V67.154z"/>
<path fill="#0D4040" d="M100.077,67.154h0.726v27.122h-0.726V67.154z"/>
<path fill="#336666" d="M100.802,60.917h17.259v33.359h-17.259V60.917z"/>
<path fill="#0D4040" d="M100.802,60.917h17.259v3.481h-17.259V60.917z"/>
<path fill="#194C4C" d="M100.802,62.223h17.259v2.756h-17.259V62.223z"/>
<path fill="#265959" d="M100.802,63.673h17.259v1.306h-17.259V63.673z"/>
<path fill="none" stroke="#000000" stroke-width="2" d="M100.802,60.917h17.259v33.359h-17.259V60.917"/>
<path fill="#336666" d="M104.428,95.146l1.305-3.046h7.107l1.74,3.046H104.428z"/>
<path fill="#99CCCC" d="M105.443,92.826l0.29-0.726h7.107l0.58,0.726H105.443z"/>
<path fill="none" stroke="#000000" stroke-width="2" d="M104.428,95.146l1.305-3.046h7.107l1.74,3.046H104.428"/>
<path fill="#336666" d="M100.802,60.917h17.259V46.704h8.558v-3.046h5.656V32.49h-5.656v-3.046h-8.558V15.23h-17.259V60.917z"/>
<path fill="#3B6E6E" d="M100.802,58.452h17.259V45.543h8.558v-2.466h5.656V32.925h-5.656v-2.61h-8.558V17.696h-17.259V58.452z"/>
<path fill="#427575" d="M100.802,55.986h17.259V44.673h8.558v-2.175h5.656v-8.993h-5.656V31.33h-8.558V20.162h-17.259V55.986z"/>
<path fill="#4A7D7D" d="M100.802,53.521h17.259v-9.573h8.558v-1.885h5.656v-7.977h-5.656V32.2h-8.558v-9.573h-17.259V53.521z"/>
<path fill="#4F8282" d="M100.802,51.055h17.259v-8.267h8.558v-1.596h5.656v-6.236h-5.656v-1.741h-8.558v-8.122h-17.259V51.055z"/>
<path fill="#578A8A" d="M100.802,48.589h17.259v-6.527h8.558v-1.451h5.656v-5.076h-5.656v-1.45h-8.558v-6.527h-17.259V48.589z"/>
<path fill="#5E9191" d="M100.802,46.124h17.259v-4.932h8.558v-1.015h5.656v-4.206h-5.656v-1.015h-8.558v-4.932h-17.259V46.124z"/>
<path fill="#669999" d="M100.802,43.658h17.259v-3.481h8.558v-0.58h5.656v-3.046h-5.656v-0.58h-8.558V32.49h-17.259V43.658z"/>
<path fill="none" stroke="#000000" stroke-width="2" d="M100.802,60.917h17.259V46.704h8.558v-3.046h5.656V32.49h-5.656v-3.046
	h-8.558V15.23h-17.259V60.917"/>
<path fill="none" stroke="#000000" stroke-width="2" d="M118.061,46.704v-17.26"/>
<path fill="none" stroke="#000000" stroke-width="2" d="M126.619,32.49v11.168"/>
<path fill="#336666" stroke="#000000" stroke-width="2" d="M23.931,29.444h11.604v25.672H23.931V29.444z"/>
<path fill="#336666" stroke="#000000" stroke-width="2" d="M4.061,66.573h45.542v28.573H4.061V66.573z"/>
<path fill="#336666" stroke="#000000" stroke-width="2" d="M60.917,77.888h31.473v17.259H60.917V77.888z"/>
<path fill="#336666" stroke="#000000" stroke-width="2" d="M66.573,60.917h11.603v16.971H66.573V60.917z"/>
<path fill="#8A8A8A" d="M38.145,41.772l34.229-25.527v38.871H38.145V41.772z"/>
<path fill="#858585" d="M38.145,45.543l34.229-25.672v35.245H38.145V45.543z"/>
<path fill="#7F7F7F" d="M38.145,49.459l34.229-25.527v31.184H38.145V49.459z"/>
<path fill="none" stroke="#000000" stroke-width="2" d="M38.145,9.429h34.229v45.688H38.145V9.429"/>
<path fill="none" stroke="#003333" stroke-width="2" d="M115.015,15.23v45.687"/>
<path fill="#003333" d="M68.023,75.132h1.596v1.305h-1.596V75.132z"/>
<path fill="#003333" d="M75.131,75.132h1.595v1.305h-1.595V75.132z"/>
<path fill="#003333" d="M75.131,62.223h1.595v1.45h-1.595V62.223z"/>
<path fill="#003333" d="M68.023,62.223h1.306v1.45h-1.306V62.223z"/>
<path fill="#003333" d="M68.023,68.604h1.306V70.2h-1.306V68.604z"/>
<path fill="#003333" d="M75.131,68.604h1.595V70.2h-1.595V68.604z"/>
<path fill="#003333" d="M25.382,52.36h1.306v1.45h-1.306V52.36z"/>
<path fill="#003333" d="M32.489,52.36h1.305v1.45h-1.305V52.36z"/>
<path fill="#003333" d="M25.382,45.253h1.306v1.45h-1.306V45.253z"/>
<path fill="#003333" d="M32.489,45.253h1.305v1.45h-1.305V45.253z"/>
<path fill="#003333" d="M25.382,37.856h1.306v1.74h-1.306V37.856z"/>
<path fill="#003333" d="M32.489,37.856h1.305v1.74h-1.305V37.856z"/>
<path fill="#003333" d="M25.382,31.04h1.306v1.45h-1.306V31.04z"/>
<path fill="#003333" d="M32.489,31.04h1.305v1.45h-1.305V31.04z"/>
<path fill="#336666" d="M60.917,86.589v8.558H10.298v-8.558H60.917z"/>
<path fill="#669999" d="M60.917,87.46v6.816H10.298V87.46H60.917z"/>
<path fill="#99CCCC" d="M60.917,88.765v4.062H10.298v-4.062H60.917z"/>
<path fill="none" stroke="#000000" stroke-width="2" d="M60.917,86.589v8.558H10.298v-8.558H60.917"/>
<path fill="#669999" d="M4.786,71.65h44.092v0.726H4.786V71.65z"/>
<path fill="#003333" d="M4.786,72.376h44.092v0.58H4.786V72.376z"/>
<path fill="#194C4C" d="M6.672,72.956h20.016v4.932H6.672V72.956z"/>
<path fill="#001919" d="M26.687,72.956h22.19v2.176H38.145v8.412H26.687V72.956z"/>
<path fill="none" stroke="#99CCCC" stroke-width="2" d="M6.672,77.888h20.016"/>
<path fill="#CCCCCC" d="M46.703,20.887h17.259v8.557H46.703V20.887z"/>
<path fill="#006633" d="M48.008,22.337h7.107v1.306h-7.107V22.337z"/>
<path fill="#FFFFFF" d="M48.008,24.513h3.626v4.351h-3.626V24.513z"/>
<path fill="#4C4C4C" d="M48.878,25.383h2.176v2.756h-2.176V25.383z"/>
<path fill="#4C4C4C" d="M57.291,24.513h3.045v4.351h-3.045V24.513z"/>
<path fill="#FFCC00" d="M60.917,24.513h1.305v4.351h-1.305V24.513z"/>
<path fill="#7F0000" d="M60.917,27.559h1.305v0.58h-1.305V27.559z"/>
<path fill="#FFFFFF" d="M48.008,13.78h14.214v2.756H48.008V13.78z"/>
<path fill="#194C4C" d="M63.962,80.788h25.382v2.756H63.962V80.788z"/>
</svg>
