<?xml version="1.0" encoding="utf-8"?>
<!-- Generator: Adobe Illustrator 14.0.0, SVG Export Plug-In . SVG Version: 6.00 Build 43363)  -->
<!DOCTYPE svg PUBLIC "-//W3C//DTD SVG 1.1//EN" "http://www.w3.org/Graphics/SVG/1.1/DTD/svg11.dtd">
<svg version="1.1" id="图层_1" xmlns="http://www.w3.org/2000/svg" xmlns:xlink="http://www.w3.org/1999/xlink" x="0px" y="0px"
	 width="70.25px" height="106.502px" viewBox="0 0 70.25 106.502" enable-background="new 0 0 70.25 106.502" xml:space="preserve">
<path fill="#FFCC00" d="M2.985,2.989h64.281v96.475H2.985V2.989z"/>
<path fill="#FAC700" d="M2.985,47.335l64.281-28.036v80.164H2.985V47.335z"/>
<path fill="#F5C200" d="M2.985,51.172L67.266,23.03v76.434H2.985V51.172z"/>
<path fill="#F0BD00" d="M2.985,57.462L67.266,29.32v70.144H2.985V57.462z"/>
<path fill="#333333" d="M6.929,4.907h20.147v14.071H6.929V4.907z"/>
<path fill="#7F7F7F" d="M8.955,10.984h4.051v6.076H8.955V10.984z"/>
<path fill="#E5E5E5" d="M8.955,4.907h4.051V6.72H8.955V4.907z"/>
<path fill="#BF0000" d="M15.031,8.958h3.944v4.051h-3.944V8.958z"/>
<path fill="none" stroke="#CC9900" stroke-width="2" d="M6.929,81.341V55.223h40.188"/>
<path fill="none" stroke="#FFFF00" stroke-width="2" d="M47.118,55.223v26.118H6.929"/>
<path fill="#333333" d="M2.985,91.362h48.184v-7.995H2.985V91.362z"/>
<path fill="#333333" d="M59.27,91.362h7.996v-7.995H59.27V91.362z"/>
<path fill="#333333" d="M51.168,2.989h8.102v80.378h-8.102V2.989z"/>
<path fill="#333333" d="M51.808,91.362h0.427v-7.995h-0.427V91.362z"/>
<path fill="#333333" d="M52.768,91.362h0.426v-7.995h-0.426V91.362z"/>
<path fill="#333333" d="M53.621,91.362h0.427v-7.995h-0.427V91.362z"/>
<path fill="#333333" d="M54.581,91.362h0.426v-7.995h-0.426V91.362z"/>
<path fill="#333333" d="M55.432,91.362h0.533v-7.995h-0.533V91.362z"/>
<path fill="#333333" d="M56.392,91.362h0.427v-7.995h-0.427V91.362z"/>
<path fill="#333333" d="M57.458,91.362h0.32v-7.995h-0.32V91.362z"/>
<path fill="#333333" d="M58.205,91.362h0.64v-7.995h-0.64V91.362z"/>
<path fill="#333333" d="M51.168,99.463h8.102v-8.102h-8.102V99.463z"/>
<path fill="#333333" d="M6.929,27.08h20.147V23.03H6.929V27.08z"/>
<path fill="none" stroke="#FFCC00" stroke-width="2" d="M6.929,25.055h20.147"/>
<path fill="none" stroke="#000000" stroke-width="2" d="M2.985,2.989h64.281v96.475H2.985V2.989"/>
<path fill="none" stroke="#B27F00" stroke-width="2" d="M18.975,59.275H10.98v0.532h7.995v0.427H10.98v0.533h7.995v0.426H10.98v0.64
	h7.995v0.427H10.98v0.64h7.995v0.319H10.98v0.64h7.995v0.427H10.98v0.533h7.995v0.426H10.98v0.64h7.995v0.427H10.98v0.533h7.995
	v0.427H10.98v0.532h7.995v0.427H10.98v0.64h7.995v0.427H10.98v0.64h7.995v0.319H10.98v0.64h7.995v0.427H10.98v0.532h7.995v0.427
	H10.98v0.64h7.995v0.427H10.98v0.532h7.995v0.427H10.98v0.533h7.995v0.427H10.98v0.639h7.995v0.427H10.98v0.533h7.995v0.427H10.98"
	/>
<path fill="none" stroke="#B27F00" stroke-width="2" d="M31.127,59.275h-8.102v0.532h8.102v0.427h-8.102v0.533h8.102v0.426h-8.102
	v0.64h8.102v0.427h-8.102v0.64h8.102v0.319h-8.102v0.64h8.102v0.427h-8.102v0.533h8.102v0.426h-8.102v0.64h8.102v0.427h-8.102v0.533
	h8.102v0.427h-8.102v0.532h8.102v0.427h-8.102v0.64h8.102v0.427h-8.102v0.64h8.102v0.319h-8.102v0.64h8.102v0.427h-8.102v0.532
	h8.102v0.427h-8.102v0.64h8.102v0.427h-8.102v0.532h8.102v0.427h-8.102v0.533h8.102v0.427h-8.102v0.639h8.102v0.427h-8.102v0.533
	h8.102v0.427h-8.102"/>
<path fill="none" stroke="#B27F00" stroke-width="2" d="M43.174,59.275h-8.103v0.532h8.103v0.427h-8.103v0.533h8.103v0.426h-8.103
	v0.64h8.103v0.427h-8.103v0.64h8.103v0.319h-8.103v0.64h8.103v0.427h-8.103v0.533h8.103v0.426h-8.103v0.64h8.103v0.427h-8.103v0.533
	h8.103v0.427h-8.103v0.532h8.103v0.427h-8.103v0.64h8.103v0.427h-8.103v0.64h8.103v0.319h-8.103v0.64h8.103v0.427h-8.103v0.532
	h8.103v0.427h-8.103v0.64h8.103v0.427h-8.103v0.532h8.103v0.427h-8.103v0.533h8.103v0.427h-8.103v0.639h8.103v0.427h-8.103v0.533
	h8.103v0.427h-8.103"/>
<path d="M64.281,99.463h2.025v3.944h-2.025V99.463z"/>
<path d="M3.944,99.463H5.97v3.944H3.944V99.463z"/>
</svg>
