<?xml version="1.0" encoding="utf-8"?>
<!-- Generator: Adobe Illustrator 14.0.0, SVG Export Plug-In . SVG Version: 6.00 Build 43363)  -->
<!DOCTYPE svg PUBLIC "-//W3C//DTD SVG 1.1//EN" "http://www.w3.org/Graphics/SVG/1.1/DTD/svg11.dtd">
<svg version="1.1" id="图层_1" xmlns="http://www.w3.org/2000/svg" xmlns:xlink="http://www.w3.org/1999/xlink" x="0px" y="0px"
	 width="144.749px" height="77.738px" viewBox="0 0 144.749 77.738" enable-background="new 0 0 144.749 77.738"
	 xml:space="preserve">
<path fill="#003333" stroke="#000000" stroke-width="2" d="M36.841,15.809h17.694v32.343H36.841V15.809z"/>
<path fill="#194C4C" stroke="#000000" stroke-width="2" d="M82.527,13.923l-1.306-0.87l-0.726-1.16l-0.435-1.596V9.862l-0.146-0.435
	V8.992l0.146-1.45l0.435-1.306l0.581-1.16l1.16-0.87l0.725-0.145h0.29h0.29l1.16,0.58l0.871,1.16l0.58,1.16l0.145,1.451v0.58v0.435
	l-0.145,1.595l-0.58,1.306l-0.581,1.015l-1.16,0.725l-0.29,0.145h-0.29v-1.45l0.726-0.145l0.725-1.451l0.29-1.45v-1.45l-0.29-1.306
	l-0.725-1.305l-0.726-0.29l-1.015,0.58l-0.726,1.596l-0.145,1.45l0.145,1.74l0.726,1.451l0.58,0.58L82.527,13.923z"/>
<path fill="#194C4C" d="M45.688,8.992h20.449v1.305l-0.145,1.305v1.306l-0.29,1.16l-0.146,1.305l-0.29,1.16l-0.29,1.161l-0.87,2.32
	l-0.435,1.16l-1.016,2.031l-1.16,2.03l-1.306,1.741l-1.45,1.595l-1.595,1.45l-1.596,1.306l-1.886,1.015l-1.886,0.87l-1.885,0.725
	l-2.03,0.29l-1.016,0.145h-1.16h-1.016l-2.03-0.29l-1.886-0.435l-1.885-0.725l-1.886-1.015l-1.74-1.161l-1.596-1.45l-1.45-1.45
	l-1.306-1.741l-1.305-1.885l-1.16-2.03l-0.436-1.016l-0.436-1.16l-0.725-2.32l-0.29-1.161l-0.29-1.16l-0.29-1.305l-0.146-1.16
	l-0.145-1.306l-0.146-1.305V8.992H45.688z"/>
<path fill="#336666" d="M45.688,8.992h17.984v1.305l-0.146,1.305v1.306l-0.435,2.465l-0.146,1.16l-0.29,1.161l-0.725,2.32
	l-0.871,2.176l-0.87,2.03l-1.16,1.885l-1.16,1.741l-1.45,1.45l-1.45,1.45l-1.45,1.161l-1.596,1.015l-1.74,0.725l-1.74,0.435
	l-1.741,0.29h-1.015h-0.87l-1.74-0.29l-1.741-0.435l-1.595-0.725l-1.596-1.015l-1.596-1.161l-1.305-1.45l-1.306-1.45l-1.306-1.741
	l-1.015-1.885l-1.016-2.03l-0.725-2.176l-0.726-2.32l-0.29-1.161l-0.29-1.16l-0.29-2.465l-0.145-1.306v-1.305l-0.146-1.305H45.688z"
	/>
<path fill="#4C7F7F" d="M45.688,8.992h14.068v1.305v1.305l-0.146,1.306l-0.29,2.465l-0.29,2.321l-0.58,2.32l-0.725,2.176
	l-0.726,2.03l-0.87,1.885l-1.016,1.741l-1.015,1.45l-1.016,1.45l-1.306,1.161l-1.305,1.015l-1.306,0.725l-1.305,0.435l-1.451,0.29
	h-0.725h-0.726l-1.305-0.29l-1.306-0.435l-1.306-0.725l-1.16-1.015l-1.305-1.161l-1.016-1.45l-1.016-1.45l-1.015-1.741l-0.87-1.885
	l-0.726-2.03l-0.58-2.176l-0.58-2.32l-0.436-2.321l-0.29-2.465v-1.306l-0.145-1.305V8.992H45.688z"/>
<path fill="#669999" d="M45.688,8.992h7.832v1.305l-0.146,1.305l-0.145,2.466l-0.146,2.465l-0.29,2.321l-0.29,2.32l-0.435,2.031
	l-0.436,2.03l-0.436,1.741l-0.58,1.595l-0.58,1.45l-0.725,1.306l-0.58,1.015l-1.16,1.305l-1.016,0.58l-0.436,0.145h-0.435h-0.29
	l-1.16-0.435l-1.16-1.015l-0.871-1.595l-0.725-1.306l-0.58-1.45l-0.436-1.595l-0.58-1.741l-0.29-2.03l-0.435-2.031l-0.29-2.32
	l-0.29-2.321l-0.146-2.465l-0.145-2.466v-1.305V8.992H45.688z"/>
<path fill="#7FB2B2" d="M45.688,8.992h2.756v1.305v1.305v2.466l-0.146,2.465v2.321l-0.145,2.32l-0.146,2.031l-0.145,2.03
	l-0.29,1.741l-0.146,1.595l-0.145,1.45l-0.291,1.306l-0.435,1.595l-0.436,1.16l-0.29,0.29h-0.145h-0.146l-0.58-1.16l-0.29-1.305
	l-0.29-1.886l-0.29-1.45l-0.145-1.595l-0.146-1.741l-0.145-2.03l-0.146-2.031l-0.145-2.32v-2.321v-2.465l-0.146-1.16v-1.306v-1.305
	V8.992H45.688z"/>
<path fill="none" stroke="#000000" stroke-width="2" d="M45.688,8.992h20.449v1.305l-0.145,1.305v1.306l-0.29,1.16l-0.146,1.305
	l-0.29,1.16l-0.29,1.161l-0.87,2.32l-0.435,1.16l-1.016,2.031l-1.16,2.03l-1.306,1.741l-1.45,1.595l-1.595,1.45l-1.596,1.306
	l-1.886,1.015l-1.886,0.87l-1.885,0.725l-2.03,0.29l-1.016,0.145h-1.16h-1.016l-2.03-0.29l-1.886-0.435l-1.885-0.725l-1.886-1.015
	l-1.74-1.161l-1.596-1.45l-1.45-1.45l-1.306-1.741l-1.305-1.885l-1.16-2.03l-0.436-1.016l-0.436-1.16l-0.725-2.32l-0.29-1.161
	l-0.29-1.16l-0.29-1.305l-0.146-1.16l-0.145-1.306l-0.146-1.305V8.992H45.688"/>
<path fill="#194C4C" d="M39.306,66.136H27.994V63.38h-8.847v-1.16H8.995l-4.932-1.306V45.686l4.932-1.16h10.152v-1.305h8.847v-2.467
	h11.313V66.136z"/>
<path fill="#336666" d="M39.306,63.38H27.994v-1.886h-8.847v-1.16H8.995l-4.932-0.87V47.426l4.932-1.16h10.152v-1.16h8.847v-1.885
	h11.313V63.38z"/>
<path fill="#4C7F7F" d="M39.306,60.914H27.994v-1.45h-8.847v-0.726H8.995l-4.932-0.869v-9.138l4.932-0.87h10.152v-0.436h8.847v-1.74
	h11.313V60.914z"/>
<path fill="#669999" d="M39.306,58.449H27.994v-1.16h-8.847v-0.58H8.995l-4.932-0.146v-6.091l4.932-0.581h10.152v-0.58h8.847v-1.16
	h11.313V58.449z"/>
<path fill="#7FB2B2" d="M39.306,55.983H27.994v-0.58h-8.847v-0.29H8.995l-4.932-0.291v-3.045l4.932-0.29h10.152v-0.29h8.847v-0.29
	h11.313V55.983z"/>
<path fill="none" stroke="#000000" stroke-width="2" d="M39.306,66.136H27.994V63.38h-8.847v-1.16H8.995l-4.932-1.306V45.686
	l4.932-1.16h10.152v-1.305h8.847v-2.467h11.313V66.136"/>
<path fill="none" stroke="#000000" stroke-width="2" d="M19.147,62.22V44.525"/>
<path fill="none" stroke="#000000" stroke-width="2" d="M27.994,63.38V43.221"/>
<path fill="none" stroke="#000000" stroke-width="2" d="M8.995,62.22V44.525"/>
<path fill="#194C4C" d="M39.306,66.136V35.824l20.45-20.45h60.77v55.693H44.673L39.306,66.136z"/>
<path fill="#336666" d="M39.306,62.8V36.549l20.45-17.404h60.77v48.151H44.673L39.306,62.8z"/>
<path fill="#4C7F7F" d="M39.306,58.738V37.999l20.45-13.778h60.77V62.22H44.673L39.306,58.738z"/>
<path fill="#669999" d="M39.306,54.533V39.304l20.45-9.862h60.77v27.556H44.673L39.306,54.533z"/>
<path fill="#7FB2B2" d="M39.306,48.441v-6.816l20.45-4.786h60.77v12.763H44.673L39.306,48.441z"/>
<path fill="none" stroke="#000000" stroke-width="2" d="M39.306,66.136V35.824l20.45-20.45h60.77v55.693H44.673L39.306,66.136"/>
<path fill="#194C4C" d="M112.839,12.763h7.688v60.915h-7.688V12.763z"/>
<path fill="#336666" d="M112.839,16.969h7.688v52.501h-7.688V16.969z"/>
<path fill="#4C7F7F" d="M112.839,22.48h7.688V63.96h-7.688V22.48z"/>
<path fill="#669999" d="M112.839,27.992h7.688v30.458h-7.688V27.992z"/>
<path fill="#7FB2B2" d="M112.839,36.259h7.688v13.923h-7.688V36.259z"/>
<path fill="none" stroke="#000000" stroke-width="2" d="M112.839,12.763h7.688v60.915h-7.688V12.763"/>
<path fill="#003333" stroke="#000000" stroke-width="2" d="M66.137,17.839h35.389v50.762H66.137V17.839z"/>
<path fill="#194C4C" d="M66.137,24.221h35.389V62.22H66.137V24.221z"/>
<path fill="#194C4C" d="M59.757,12.763h7.542v60.915h-7.542V12.763z"/>
<path fill="#336666" d="M59.757,16.969h7.542v52.501h-7.542V16.969z"/>
<path fill="#4C7F7F" d="M59.757,22.48h7.542V63.96h-7.542V22.48z"/>
<path fill="#669999" d="M59.757,27.992h7.542v30.458h-7.542V27.992z"/>
<path fill="#7FB2B2" d="M59.757,36.259h7.542v13.923h-7.542V36.259z"/>
<path fill="none" stroke="#000000" stroke-width="2" d="M59.757,12.763h7.542v60.915h-7.542V12.763"/>
<path fill="#194C4C" d="M100.221,12.763h3.771v60.915h-3.771V12.763z"/>
<path fill="#336666" d="M100.221,16.969h3.771v52.501h-3.771V16.969z"/>
<path fill="#4C7F7F" d="M100.221,22.48h3.771V63.96h-3.771V22.48z"/>
<path fill="#669999" d="M100.221,27.992h3.771v30.458h-3.771V27.992z"/>
<path fill="#7FB2B2" d="M100.221,36.259h3.771v13.923h-3.771V36.259z"/>
<path fill="none" stroke="#000000" stroke-width="2" d="M100.221,12.763h3.771v60.915h-3.771V12.763"/>
<path fill="#669999" stroke="#000000" stroke-width="2" d="M67.299,40.754h32.923v4.932H67.299V40.754z"/>
<path fill="#194C4C" d="M81.367,12.763h3.625v60.915h-3.625V12.763z"/>
<path fill="#336666" d="M81.367,16.969h3.625v52.501h-3.625V16.969z"/>
<path fill="#4C7F7F" d="M81.367,22.48h3.625V63.96h-3.625V22.48z"/>
<path fill="#669999" d="M81.367,27.992h3.625v30.458h-3.625V27.992z"/>
<path fill="#7FB2B2" d="M81.367,36.259h3.625v13.923h-3.625V36.259z"/>
<path fill="none" stroke="#000000" stroke-width="2" d="M81.367,12.763h3.625v60.915h-3.625V12.763"/>
<path fill="#194C4C" d="M120.526,12.763h5.076v29.152h-5.076V12.763z"/>
<path fill="#336666" d="M120.526,14.793h5.076v25.091h-5.076V14.793z"/>
<path fill="#4C7F7F" d="M120.526,17.549h5.076v19.87h-5.076V17.549z"/>
<path fill="#669999" d="M120.526,20.015h5.076v14.648h-5.076V20.015z"/>
<path fill="#7FB2B2" d="M120.526,24.221h5.076v6.526h-5.076V24.221z"/>
<path fill="none" stroke="#000000" stroke-width="2" d="M120.526,12.763h5.076v29.152h-5.076V12.763"/>
<path fill="#194C4C" d="M125.602,19.145h4.931v16.389h-4.931V19.145z"/>
<path fill="#336666" d="M125.602,20.305h4.931v14.068h-4.931V20.305z"/>
<path fill="#4C7F7F" d="M125.602,21.755h4.931v11.313h-4.931V21.755z"/>
<path fill="#669999" d="M125.602,23.351h4.931v8.267h-4.931V23.351z"/>
<path fill="#7FB2B2" d="M125.602,25.526h4.931v3.626h-4.931V25.526z"/>
<path fill="none" stroke="#000000" stroke-width="2" d="M125.602,19.145h4.931v16.389h-4.931V19.145"/>
<path fill="#194C4C" d="M135.755,19.145h4.931v16.389h-4.931V19.145z"/>
<path fill="#336666" d="M135.755,20.305h4.931v14.068h-4.931V20.305z"/>
<path fill="#4C7F7F" d="M135.755,21.755h4.931v11.313h-4.931V21.755z"/>
<path fill="#669999" d="M135.755,23.351h4.931v8.267h-4.931V23.351z"/>
<path fill="#7FB2B2" d="M135.755,25.526h4.931v3.626h-4.931V25.526z"/>
<path fill="none" stroke="#000000" stroke-width="2" d="M135.755,19.145h4.931v16.389h-4.931V19.145"/>
<path fill="#666666" d="M130.533,21.755h5.222v11.313h-5.222V21.755z"/>
<path fill="#7F7F7F" d="M130.533,22.48h5.222v9.717h-5.222V22.48z"/>
<path fill="#999999" d="M130.533,23.641h5.222v7.687h-5.222V23.641z"/>
<path fill="#B2B2B2" d="M130.533,24.511h5.222v5.656h-5.222V24.511z"/>
<path fill="#E5E5E5" d="M130.533,26.106h5.222v2.466h-5.222V26.106z"/>
<path fill="none" stroke="#000000" stroke-width="2" d="M130.533,21.755h5.222v11.313h-5.222V21.755"/>
<path fill="#194C4C" d="M68.169,5.366v3.626H23.643V5.366H68.169z"/>
<path fill="#336666" d="M65.123,5.366v3.626H26.688V5.366H65.123z"/>
<path fill="#4C7F7F" d="M60.917,5.366v3.626H30.75V5.366H60.917z"/>
<path fill="#669999" d="M56.711,5.366v3.626H34.666V5.366H56.711z"/>
<path fill="#7FB2B2" d="M50.909,5.366v3.626H40.757V5.366H50.909z"/>
<path fill="none" stroke="#000000" stroke-width="2" d="M68.169,5.366v3.626H23.643V5.366H68.169"/>
</svg>
