<?xml version="1.0" encoding="utf-8"?>
<!-- Generator: Adobe Illustrator 14.0.0, SVG Export Plug-In . SVG Version: 6.00 Build 43363)  -->
<!DOCTYPE svg PUBLIC "-//W3C//DTD SVG 1.1//EN" "http://www.w3.org/Graphics/SVG/1.1/DTD/svg11.dtd">
<svg version="1.1" id="图层_1" xmlns="http://www.w3.org/2000/svg" xmlns:xlink="http://www.w3.org/1999/xlink" x="0px" y="0px"
	 width="131.379px" height="106.502px" viewBox="0 0 131.379 106.502" enable-background="new 0 0 131.379 106.502"
	 xml:space="preserve">
<path fill="#00CCCC" stroke="#000000" stroke-width="2" d="M34.227,99.392l12.506,3.423h13.164l12.638-3.423l11.189-6.451
	l9.215-9.215l6.713-11.452l3.16-12.375V47.656h24.88V3.688H46.733l-12.77,3.16l-11.189,6.713l-9.215,9.216l-6.45,11.189
	L3.686,46.735v13.164l3.159,12.375l6.714,11.452l9.215,9.215L34.227,99.392z"/>
<path fill="#00E5E5" d="M35.148,96.891l11.979,3.291h12.243l11.979-3.291l10.663-6.188l8.688-8.688l6.188-10.663l3.291-11.979
	V46.866l-3.291-11.848l-6.188-10.531l-8.688-8.688L71.35,9.612L59.371,6.452H47.128L35.148,9.612l-10.663,6.188l-8.688,8.688
	L9.61,35.151L6.45,46.866v12.506l3.16,11.979l6.187,10.663l8.688,8.688L35.148,96.891z"/>
<path fill="#009999" d="M77.01,84.253l7.24-7.24l4.871-8.952l2.765-9.609V48.183l-2.765-10.005L84.25,29.49l-7.24-7.24l-8.688-5.002
	l-9.874-2.633H48.181l-9.741,2.501l-8.952,5.134L77.01,84.253z"/>
<path fill="#7FFFFF" d="M38.439,89.123l9.741,2.765h10.268l9.61-2.765l8.951-4.87L29.488,22.249l-7.24,7.24l-5.002,8.688
	l-2.633,10.005v10.269l2.633,9.609l5.002,8.952l7.24,7.24L38.439,89.123z"/>
<path fill="#B2B2B2" d="M39.493,86.754l9.215,2.369h9.215l9.083-2.369l8.293-4.739l6.714-6.714l4.739-8.293l2.369-9.084v-9.478
	l-2.369-8.952l-4.739-8.293l-6.714-6.714l-8.293-4.607l-8.952-2.633h-9.347l-9.215,2.633l-8.293,4.607l-6.714,6.714l-4.607,8.293
	l-2.633,8.952v9.478l2.633,9.084l4.607,8.293l6.714,6.714L39.493,86.754z"/>
<path fill="#A1A1A1" d="M41.204,82.279l7.899,2.237h8.293l7.898-2.237l6.977-4.081l5.924-5.661l4.344-7.24l1.975-7.898v-8.293
	l-1.975-8.162l-4.344-6.977l-5.66-5.924l-7.241-3.949l-7.898-2.37h-8.293l-7.899,2.37l-7.24,3.949l-5.661,5.924l-4.212,6.977
	l-2.37,8.162v8.293l2.37,7.898l4.212,7.24l5.661,5.661L41.204,82.279z"/>
<path fill="#919191" d="M42.915,78.066l6.714,1.975h7.24l6.714-1.975l5.924-3.555l5.003-5.002l3.554-6.188l1.975-6.714v-6.977
	l-1.975-6.714L74.51,36.73l-5.003-5.002l-5.924-3.423l-6.714-1.711h-7.24l-6.714,1.711l-6.187,3.423l-4.739,5.002l-3.686,6.188
	l-1.711,6.714v6.977l1.711,6.714l3.423,6.188l5.002,5.002L42.915,78.066z"/>
<path fill="#7F7F7F" d="M44.626,73.722l5.792,1.579h5.661l5.792-1.579l5.002-2.896l4.212-3.949l2.633-5.266l1.58-5.529v-5.924
	l-1.58-5.529l-2.896-4.87l-3.949-4.213l-5.002-3.027L56.08,31.07h-5.661l-5.792,1.448l-4.871,3.027l-4.212,4.213l-2.765,4.87
	l-1.58,5.529v5.924l1.58,5.529l2.765,5.266l4.212,3.949L44.626,73.722z"/>
<circle fill="#6E6E6E" cx="53.183" cy="53.053" r="17.508"/>
<circle fill="#5E5E5E" cx="53.183" cy="53.053" r="12.769"/>
<circle fill="#4C4C4C" cx="53.183" cy="53.185" r="8.293"/>
<path fill="none" stroke="#000000" stroke-width="2" d="M39.493,86.754l9.215,2.369h9.215l9.083-2.369l8.293-4.739l6.714-6.714
	l4.739-8.293l2.369-9.084v-9.478l-2.369-8.952l-4.739-8.293l-6.714-6.714l-8.293-4.607l-8.952-2.633h-9.347l-9.215,2.633
	l-8.293,4.607l-6.714,6.714l-4.607,8.293l-2.633,8.952v9.478l2.633,9.084l4.607,8.293l6.714,6.714L39.493,86.754"/>
<path fill="#CCCCCC" d="M54.368,55.819l1.711-1.448v-2.501l-1.711-1.448H52.13l-1.711,1.448v2.501l1.711,1.448H54.368z"/>
<path fill="none" stroke="#FFFFFF" stroke-width="2" d="M56.08,54.37v-2.501l-1.711-1.448H52.13"/>
</svg>
