<?xml version="1.0" encoding="utf-8"?>
<!-- Generator: Adobe Illustrator 14.0.0, SVG Export Plug-In . SVG Version: 6.00 Build 43363)  -->
<!DOCTYPE svg PUBLIC "-//W3C//DTD SVG 1.1//EN" "http://www.w3.org/Graphics/SVG/1.1/DTD/svg11.dtd">
<svg version="1.1" id="图层_1" xmlns="http://www.w3.org/2000/svg" xmlns:xlink="http://www.w3.org/1999/xlink" x="0px" y="0px"
	 width="98.496px" height="106.502px" viewBox="0 0 98.496 106.502" enable-background="new 0 0 98.496 106.502"
	 xml:space="preserve">
<path fill="#336666" stroke="#000000" stroke-width="2" d="M23.904,75.768h50.902v20.915H23.904V75.768z"/>
<path fill="#CCFFFF" stroke="#000000" stroke-width="2" d="M64.348,84.625l-9.925,2.667H44.179l-10.031-2.667l-8.856-5.229
	l-7.47-7.257l-5.229-9.07l-2.668-9.817V42.793l2.668-9.817l5.229-9.07l7.256-7.257l9.07-5.229l10.031-2.668h10.244V5.123h34.255
	l-0.213,48.128l-2.668,9.817l-5.122,9.07l-7.257,7.257L64.348,84.625z"/>
<path fill="#669999" stroke="#000000" stroke-width="2" d="M67.763,96.576V52.611l-2.241,2.241v41.725H67.763z"/>
<path fill="#669999" stroke="#000000" stroke-width="2" d="M30.734,96.576V52.611l2.348,2.241v41.725H30.734z"/>
<path fill="#669999" stroke="#000000" stroke-width="2" d="M30.734,52.611h37.029l-2.241,2.241h-32.44L30.734,52.611z"/>
<path fill="#669999" stroke="#000000" stroke-width="2" d="M39.91,96.576l7.15-13.979h4.588l6.83,13.979H39.91z"/>
<path fill="#99CCCC" stroke="#000000" stroke-width="2" d="M53.677,58.906l-2.882,0.534h-2.987l-2.988-0.534l-2.562-1.601
	l-2.348-2.24l-1.28-2.562l-0.854-2.881v-2.988l0.854-3.095l1.28-2.562l2.348-2.24l2.562-1.388l2.988-0.747h2.987l2.882,0.747
	l2.561,1.388l2.241,2.24l1.601,2.562l0.854,3.095v2.988l-0.854,2.881l-1.601,2.562l-2.241,2.24L53.677,58.906z"/>
<circle fill="#99CCCC" stroke="#000000" stroke-width="2" cx="49.195" cy="82.704" r="9.284"/>
<path fill="#99CCCC" stroke="#000000" stroke-width="2" d="M53.249,2.99h36.069v2.134H53.249V2.99z"/>
<path fill="#99CCCC" stroke="#000000" stroke-width="2" d="M2.988,96.576h92.521v6.937H2.988V96.576z"/>
<circle fill="none" stroke="#000000" stroke-width="2" cx="49.195" cy="48.022" r="0.534"/>
<circle fill="none" stroke="#000000" stroke-width="2" cx="49.301" cy="82.704" r="2.241"/>
</svg>
