<?xml version="1.0" encoding="utf-8"?>
<!-- Generator: Adobe Illustrator 14.0.0, SVG Export Plug-In . SVG Version: 6.00 Build 43363)  -->
<!DOCTYPE svg PUBLIC "-//W3C//DTD SVG 1.1//EN" "http://www.w3.org/Graphics/SVG/1.1/DTD/svg11.dtd">
<svg version="1.1" id="图层_1" xmlns="http://www.w3.org/2000/svg" xmlns:xlink="http://www.w3.org/1999/xlink" x="0px" y="0px"
	 width="144.749px" height="78.826px" viewBox="0 0 144.749 78.826" enable-background="new 0 0 144.749 78.826"
	 xml:space="preserve">
<path fill="#7F7F7F" stroke="#000000" stroke-width="2" d="M61.435,50.425v-9.563h2.173v9.563H61.435z"/>
<path fill="#7F7F7F" d="M79.112,55.351v-3.478h3.332v3.478H79.112z"/>
<path fill="#B2B2B2" d="M37.093,26.373v3.912h1.015v-1.884v-2.028l2.028-1.015l0.435-1.884l-0.725-2.173l-2.173-0.87l-2.028,0.87
	l-1.015,2.173l0.869,1.884L37.093,26.373z M37.962,21.446l-1.448,0.579l-0.58,1.449l0.58,1.015l1.448,0.579l1.015-0.579l0.58-1.015
	l-0.58-1.449L37.962,21.446z"/>
<path fill="none" stroke="#000000" stroke-width="2" d="M37.093,26.373v3.912h1.015v-1.884v-2.028l2.028-1.015l0.435-1.884
	l-0.725-2.173l-2.173-0.87l-2.028,0.87l-1.015,2.173l0.869,1.884L37.093,26.373"/>
<path fill="none" stroke="#000000" stroke-width="2" d="M37.962,21.446l-1.448,0.579l-0.58,1.449l0.58,1.015l1.448,0.579
	l1.015-0.579l0.58-1.015l-0.58-1.449L37.962,21.446"/>
<path fill="#7F7F7F" d="M19.271,62.741l-1.015-17.242l1.015-16.953h39.99l1.594,0.58l0.58,1.448v30.573l-0.58,1.014l-1.594,0.58
	H40.28v3.043h19.996v2.753h-0.87v4.926h24.633v-6.955h4.636v6.955h6.521v1.305h-6.521h-4.636H59.406H54.48H23.183h-4.637l0,0v-6.23
	v-0.87v-1.883h18.257v-3.043H19.271z M54.48,73.463H23.183v-4.926H54.48V73.463z"/>
<path fill="none" stroke="#000000" stroke-width="2" d="M19.271,62.741l-1.015-17.242l1.015-16.953h39.99l1.594,0.58l0.58,1.448
	v30.573l-0.58,1.014l-1.594,0.58H40.28v3.043h19.996v2.753h-0.87v4.926h24.633v-6.955h4.636v6.955h6.521v1.305H18.547v-8.983h18.257
	v-3.043H19.271"/>
<path fill="none" stroke="#000000" stroke-width="2" d="M54.48,73.463H23.183v-4.926H54.48V73.463"/>
<path fill="#F0F0F0" d="M79.112,37.675v-1.159h3.332v1.159H79.112z"/>
<path fill="#E5E5E5" stroke="#000000" stroke-width="2" d="M19.271,27.532v3.188h39.99l1.015-0.725l-1.594-2.174l-0.87-0.289H19.271
	z"/>
<path fill="#E5E5E5" stroke="#000000" stroke-width="2" d="M19.271,30.719l-0.29,3.042h41.005l0.29-0.579l-1.015-1.594l-1.738-0.869
	H19.271z"/>
<path fill="#D1D1D1" stroke="#000000" stroke-width="2" d="M18.981,34.632l-0.146,2.173h41.15l0.29-0.289l-2.464-1.884H18.981z"/>
<path fill="#D1D1D1" stroke="#000000" stroke-width="2" d="M18.836,37.964l-0.289,2.318h41.439l0.29-0.435l-2.753-1.884H18.836z"/>
<path fill="#D1D1D1" stroke="#000000" stroke-width="2" d="M18.547,41.441v1.884h41.149l0.58-0.579l-2.753-1.305H18.547z"/>
<path fill="#B2B2B2" stroke="#000000" stroke-width="2" d="M18.257,46.368v-0.869v-0.436h39.556l2.753,1.305h-0.869H18.257z"/>
<path fill="#B2B2B2" stroke="#000000" stroke-width="2" d="M18.547,47.962v1.884h41.439l0.29-0.146l-2.753-1.738H18.547z"/>
<path fill="#B2B2B2" stroke="#000000" stroke-width="2" d="M18.836,51.005v2.463h40.86l0.29-0.29l-2.463-2.173H18.836z"/>
<path fill="#B2B2B2" stroke="#000000" stroke-width="2" d="M18.836,54.482l0.146,2.463h40.715l0.58-0.145l-2.753-2.318H18.836z"/>
<path fill="#B2B2B2" stroke="#000000" stroke-width="2" d="M18.981,57.524l0.29,3.043h40.425l0.58-0.579l-2.753-2.464H18.981z"/>
<path fill="none" stroke="#000000" stroke-width="2" d="M79.112,55.351V35.935h3.332v19.416H79.112"/>
<path fill="#7F7F7F" stroke="#000000" stroke-width="2" d="M63.608,31.589h15.504v41.874H63.608V31.589z"/>
<path fill="#7F7F7F" d="M90.124,67.088v4.637h1.884v-4.637h3.768v-7.824H82.444v7.824H90.124z"/>
<path fill="#B2B2B2" d="M138.663,12.463H91.718V4.058h46.945V12.463z"/>
<path fill="#B2B2B2" stroke="#000000" stroke-width="2" d="M140.547,12.463H89.834v1.449h50.713V12.463z"/>
<path fill="#7F7F7F" d="M140.547,12.463H89.834v1.449h50.713V12.463z"/>
<path fill="#E0E0E0" d="M139.533,12.463h-3.623v1.449h3.623V12.463z"/>
<path fill="#E0E0E0" d="M121.132,13.912h-1.595v16.808l-0.869,6.665l-1.304,3.767l-2.174,4.058l3.043-3.768l1.884-3.767l1.015-6.955
	V13.912z"/>
<path fill="#E0E0E0" d="M137.504,12.463h-3.188V4.058h3.188V12.463z"/>
<path fill="#E0E0E0" d="M92.008,19.852h-1.884v2.173h1.884V19.852z"/>
<path fill="#E0E0E0" d="M95.775,24.489H82.444v1.594h13.331V24.489z"/>
<path fill="#E0E0E0" d="M63.898,31.879h14.924v2.463H63.898V31.879z"/>
<path fill="#B2B2B2" d="M79.112,55.351V35.935h3.332v19.416H79.112z"/>
<path fill="#B2B2B2" d="M92.008,59.263h3.768V25.937h-3.768v-3.912h-1.884v3.912h-7.68v33.326h7.68v2.607h1.884V59.263z"/>
<path fill="none" stroke="#000000" stroke-width="2" d="M95.775,24.199H82.444v42.889h13.331V24.199"/>
<path fill="#7F7F7F" stroke="#000000" stroke-width="2" d="M95.775,39.268v12.025h5.795l3.768-0.289l3.768-1.305l3.622-1.738
	l3.043-2.463l2.463-2.898l1.884-3.622l1.015-3.768l0.289-3.912V13.912h-12.026v17.387l-0.435,3.043l-2.028,2.463l-2.463,1.884
	l-2.898,0.58H95.775z"/>
<path fill="#7F7F7F" stroke="#000000" stroke-width="2" d="M104.469,12.463H89.834v1.449h14.635V12.463z"/>
<path fill="#7F7F7F" stroke="#000000" stroke-width="2" d="M105.338,12.463h-13.62V4.058h13.62V12.463z"/>
<path fill="none" stroke="#000000" stroke-width="2" d="M138.663,12.463H91.718V4.058h46.945V12.463"/>
<path fill="#7F7F7F" d="M19.56,26.373h-5.216l-3.478,0.869l-3.622,1.884L6.81,29.705h12.461L19.56,26.373z"/>
<path fill="#7F7F7F" d="M5.071,59.263l2.464,2.607l3.332,2.029l3.478,0.435h5.216l-0.579-5.071H5.071z"/>
<path fill="#B2B2B2" d="M6.81,29.705l-2.029,2.174l-0.145,1.159h14.345l0.29-3.333H6.81z"/>
<path fill="#B2B2B2" d="M4.057,53.177v2.464l0.724,3.622h0.29h13.91l-0.146-6.086H4.057z"/>
<path fill="#E5E5E5" d="M4.636,33.038l-0.579,2.173v1.305h14.778l0.146-3.478H4.636z"/>
<path fill="#E5E5E5" d="M4.057,45.209v-4.058h14.489l-0.29,4.058H4.057z"/>
<path fill="#F0F0F0" d="M4.057,41.151v-4.636h14.778l-0.289,4.636H4.057z"/>
<path fill="#E0E0E0" d="M4.057,45.209v0.29v3.912h14.489l-0.29-3.912v-0.29H4.057z"/>
<path fill="#CCCCCC" d="M4.057,53.177v-3.767h14.489l0.289,3.767H4.057z"/>
<path fill="none" stroke="#000000" stroke-width="2" d="M19.56,26.373h-5.216l-3.478,0.869l-3.622,1.884l-2.174,2.753l-1.014,3.332
	v10.288V55.93l1.014,3.333l2.464,2.607l3.332,2.029l3.478,0.725h5.216l-1.304-19.126L19.56,26.373"/>
<path fill="none" stroke="#000000" stroke-width="2" d="M92.008,19.852h-1.884v51.872h1.884V19.852"/>
</svg>
