<?xml version="1.0" encoding="utf-8"?>
<!-- Generator: Adobe Illustrator 14.0.0, SVG Export Plug-In . SVG Version: 6.00 Build 43363)  -->
<!DOCTYPE svg PUBLIC "-//W3C//DTD SVG 1.1//EN" "http://www.w3.org/Graphics/SVG/1.1/DTD/svg11.dtd">
<svg version="1.1" id="图层_1" xmlns="http://www.w3.org/2000/svg" xmlns:xlink="http://www.w3.org/1999/xlink" x="0px" y="0px"
	 width="115.646px" height="106.502px" viewBox="0 0 115.646 106.502" enable-background="new 0 0 115.646 106.502"
	 xml:space="preserve">
<path fill="#A6A6A6" stroke="#000000" stroke-width="2" d="M3.241,12.272h90.873v90.988H3.241V12.272z"/>
<path fill="none" stroke="#000000" stroke-width="2" d="M7.756,98.63V16.902H89.6"/>
<path fill="none" stroke="#FFFFFF" stroke-width="2" d="M89.6,16.902V98.63H7.756"/>
<path fill="none" stroke="#000000" stroke-width="2" d="M87.284,19.102v77.329H10.072"/>
<path fill="none" stroke="#FFFFFF" stroke-width="2" d="M10.072,96.431V19.102h77.213"/>
<path fill="#7F7F7F" stroke="#000000" stroke-width="2" d="M94.115,12.272l18.175-9.03v90.874l-18.175,9.145V12.272z"/>
<path fill="#CCCCCC" stroke="#000000" stroke-width="2" d="M94.115,12.272l18.175-9.03H21.416l-18.175,9.03H94.115z"/>
<circle fill="#8C8C8C" stroke="#000000" stroke-width="2" cx="48.62" cy="57.766" r="27.204"/>
<circle fill="#4C4C4C" cx="48.62" cy="57.766" r="15.859"/>
<path fill="#B2B2B2" stroke="#000000" stroke-width="2" d="M43.874,62.512l-1.969-4.746l1.969-4.862l4.861-1.968l4.862,1.968
	l1.968,4.862l-1.968,4.746l-4.862,2.084L43.874,62.512z"/>
<path fill="#7F7F7F" d="M45.494,61.007l-1.389-3.241l1.389-3.241l3.241-1.39l3.241,1.39l1.273,3.241l-1.273,3.241l-3.241,1.273
	L45.494,61.007z"/>
<path fill="none" stroke="#FFFFFF" stroke-width="2" d="M25.352,81.034l-2.084-2.315L21.3,76.056l-1.62-2.778l-1.39-2.894
	l-1.157-3.01l-0.811-3.126l-0.463-3.241l-0.116-1.62v-1.621V56.03l0.348-3.241l0.694-3.241l0.926-3.126l1.273-2.894l1.505-2.778
	l1.737-2.663l2.083-2.431l2.2-2.199l2.546-2.084l2.547-1.736l2.778-1.505l3.01-1.273l3.01-1.042l3.242-0.579l3.356-0.347
	l1.621-0.116l1.62,0.116l3.241,0.347l3.242,0.579l3.01,0.926l3.01,1.273l2.894,1.505l2.663,1.853l2.431,1.968l1.273,1.157"/>
<path fill="none" stroke="#7F7F7F" stroke-width="2" d="M72.004,34.497l2.084,2.315l1.968,2.663l1.62,2.778l1.39,2.894l1.157,3.01
	l0.695,3.126l0.578,3.241l0.116,1.62v1.621v1.736l-0.348,3.241l-0.694,3.241l-0.926,3.126l-1.273,2.895l-1.505,2.777l-1.736,2.663
	l-2.084,2.431l-2.199,2.2L68.3,84.159l-2.547,1.736l-2.778,1.505l-3.01,1.273l-3.126,1.042l-3.125,0.579l-3.357,0.348l-1.736,0.115
	l-1.505-0.115l-3.241-0.348l-3.242-0.579l-3.01-0.926l-3.01-1.273l-2.894-1.505l-2.663-1.853l-2.546-1.968l-1.158-1.157"/>
<path fill="none" stroke="#000000" stroke-width="2" d="M3.241,103.26l4.515-4.63"/>
<path fill="none" stroke="#000000" stroke-width="2" d="M89.6,98.63l4.515,4.63"/>
<path fill="none" stroke="#000000" stroke-width="2" d="M89.6,16.902l4.515-4.63"/>
<path fill="none" stroke="#000000" stroke-width="2" d="M7.756,16.902l-4.515-4.63"/>
<path fill="#E5E5E5" d="M19.795,59.271l-1.389,0.463l-1.273-0.463l-0.579-1.389l0.579-1.273l1.273-0.579l1.389,0.579l0.463,1.273
	L19.795,59.271z"/>
<path fill="#E5E5E5" d="M27.204,38.318l-1.39-0.463l-0.463-1.389l0.463-1.273l1.39-0.579l1.273,0.579l0.578,1.273l-0.578,1.273
	L27.204,38.318z"/>
<path fill="#E5E5E5" d="M47.231,28.825l-0.578-1.273l0.578-1.389l1.39-0.464l1.273,0.464l0.463,1.389l-0.463,1.273l-1.273,0.579
	L47.231,28.825z"/>
<path fill="#E5E5E5" d="M68.184,36.235l0.463-1.273l1.273-0.579l1.39,0.579l0.463,1.273l-0.463,1.389l-1.39,0.463l-1.273-0.463
	L68.184,36.235z"/>
<path fill="#E5E5E5" d="M77.561,56.261l1.389-0.463l1.273,0.463l0.579,1.39l-0.579,1.272l-1.273,0.579l-1.389-0.579l-0.463-1.272
	L77.561,56.261z"/>
<path fill="#E5E5E5" d="M70.152,77.214l1.273,0.463l0.579,1.389l-0.579,1.273l-1.273,0.579l-1.273-0.579L68.3,79.066l0.578-1.272
	L70.152,77.214z"/>
<path fill="#E5E5E5" d="M50.125,86.706l0.578,1.273l-0.578,1.39l-1.273,0.463l-1.39-0.463l-0.463-1.39l0.463-1.273l1.39-0.579
	L50.125,86.706z"/>
<path fill="#E5E5E5" d="M29.287,79.298l-0.578,1.273l-1.273,0.578l-1.39-0.578l-0.578-1.273l0.578-1.39l1.39-0.463l1.273,0.463
	L29.287,79.298z"/>
</svg>
