<?xml version="1.0" encoding="utf-8"?>
<!-- Generator: Adobe Illustrator 14.0.0, SVG Export Plug-In . SVG Version: 6.00 Build 43363)  -->
<!DOCTYPE svg PUBLIC "-//W3C//DTD SVG 1.1//EN" "http://www.w3.org/Graphics/SVG/1.1/DTD/svg11.dtd">
<svg version="1.1" id="图层_1" xmlns="http://www.w3.org/2000/svg" xmlns:xlink="http://www.w3.org/1999/xlink" x="0px" y="0px"
	 width="106.502px" height="106.502px" viewBox="0 0 106.502 106.502" enable-background="new 0 0 106.502 106.502"
	 xml:space="preserve">
<path fill="#CCCCCC" d="M2.985,2.985h100.426V103.41H2.985V2.985z"/>
<path fill="#C7C7C7" d="M2.985,74.307l100.426-42.004v71.107H2.985V74.307z"/>
<path fill="#C2C2C2" d="M2.985,78.571l100.426-42.004v66.844H2.985V78.571z"/>
<path fill="#BDBDBD" d="M2.985,84.754L103.411,42.75v60.66H2.985V84.754z"/>
<path fill="none" stroke="#000000" stroke-width="2" d="M2.985,2.985h100.426V103.41H2.985V2.985"/>
<path fill="#7F7F7F" stroke="#000000" stroke-width="2" d="M70.895,96.055l-11.62,3.198H47.121l-11.62-3.198l-10.448-6.077
	l-8.635-8.422l-6.184-10.661l-3.092-11.62V47.121l3.199-11.834l6.077-10.447l8.422-8.422l10.661-6.184l11.62-3.092h12.154
	l11.834,3.092l10.447,6.184l8.422,8.422l6.184,10.447l3.092,11.834v12.153l-3.092,11.62l-6.184,10.661l-8.422,8.422L70.895,96.055z"
	/>
<path fill="#191919" d="M70.149,94.242l-11.087,2.985H47.334l-11.087-2.985l-10.021-5.863l-8.208-8.209l-5.864-10.021L9.168,59.062
	l0.213-11.728l2.771-11.193l5.864-9.915l8.208-8.209l10.021-5.863l11.087-2.985h11.728l11.087,2.985l10.021,5.863l8.209,8.209
	l5.863,10.021l2.986,11.087v11.728l-2.986,11.087L88.378,80.17l-8.209,8.209L70.149,94.242z"/>
<path fill="#B2B2B2" d="M60.234,94.989V60.234H46.162v34.755H60.234z"/>
<path fill="#CCCCCC" d="M60.234,94.989l-1.813-2.985l-1.386-3.198L55.97,85.5l-0.641-3.305l-0.319-3.411v-3.412l0.427-3.411
	l0.853-3.305l1.173-3.306l1.6-3.091l0.532-1.066l0.64-0.96h-0.853h-13.22l-1.813,3.092l-1.279,3.092l-1.066,3.305l-0.64,3.412
	l-0.213,2.238l-0.106,1.066v1.173l0.213,3.411l0.533,3.411l0.853,3.306l1.279,3.198l1.599,3.092l0.64,0.959h0.853H60.234z"/>
<path fill="none" stroke="#000000" stroke-width="2" d="M60.234,94.989V60.234H46.162l-1.813,3.092l-1.279,3.092l-1.066,3.305
	l-0.64,3.412l-0.32,3.305l0.106,3.411l0.427,3.412l0.746,3.411l1.173,3.198l1.492,3.092l1.173,2.025H60.234"/>
<path fill="#B2B2B2" d="M92.962,68.123L62.58,50.532l-6.717,12.047L85.927,80.17L92.962,68.123z"/>
<path fill="#CCCCCC" d="M92.962,68.123h-3.518l-3.518-0.427l-3.305-0.746l-3.306-1.066l-3.091-1.492l-2.986-1.813l-2.771-2.025
	l-2.451-2.346l-2.239-2.665l-2.026-2.878l-0.532-1.066l-0.64-1.066l-0.32,0.746l-1.705,3.092l-1.706,2.985l-1.813,2.985
	l-0.853,1.492l-0.32,0.746l0.427,1.066l1.813,3.092l2.239,2.665l2.345,2.559l2.665,2.132l2.879,1.919l3.092,1.493l3.197,1.279
	l3.412,0.853l3.412,0.427l1.065,0.106h1.279h1.066h1.173l1.813-3.092l1.705-2.985l1.813-2.984l1.279-2.239L92.962,68.123z"/>
<path fill="none" stroke="#000000" stroke-width="2" d="M92.962,68.123L62.58,50.532l-6.717,12.047l1.706,3.198l2.025,2.772
	l2.239,2.559l2.559,2.345l2.879,1.919l2.984,1.706l3.198,1.279l3.305,1.066l3.411,0.532l3.519,0.214h2.239L92.962,68.123"/>
<path fill="#B2B2B2" d="M85.927,26.226L55.863,43.817l6.717,12.047l30.383-17.591L85.927,26.226z"/>
<path fill="#CCCCCC" d="M85.927,26.226l-1.706,3.092l-2.132,2.771l-2.239,2.559l-2.559,2.346l-2.878,1.919l-2.985,1.706
	l-3.092,1.386l-3.305,0.959l-3.411,0.64l-3.519,0.214h-1.066h-1.173l0.32,0.746l1.705,2.984l1.706,2.985l1.706,2.985l1.279,2.346
	h1.279h1.173l3.519-0.214l3.41-0.64l3.306-0.959l3.198-1.386l2.984-1.706l2.772-1.919l2.665-2.346l2.238-2.559l2.133-2.771
	l1.173-2.025l0.532-1.066l-0.426-0.746l-1.705-2.985l-1.813-2.985l-1.706-3.092l-0.96-1.492L85.927,26.226z"/>
<path fill="none" stroke="#000000" stroke-width="2" d="M85.927,26.226L55.863,43.817l6.717,12.047h1.279l3.518-0.107l3.412-0.532
	L74.2,54.37l3.198-1.279l3.092-1.492l2.879-1.919l2.665-2.133l2.345-2.451l2.239-2.772l1.813-2.984l0.532-1.066L85.927,26.226"/>
<path fill="#B2B2B2" d="M46.162,11.407v34.754h14.072V11.407H46.162z"/>
<path fill="#CCCCCC" d="M46.162,11.407l1.813,2.984l1.386,3.198l1.066,3.306l0.64,3.305l0.32,3.411l-0.107,3.412l-0.426,3.411
	l-0.746,3.305l-1.173,3.305l-1.599,3.092l-0.533,1.066l-0.64,0.959h0.853h13.219l1.813-3.092l1.279-3.091l1.066-3.306l0.64-3.411
	l0.213-2.238l0.106-1.066v-1.173l-0.213-3.411l-0.533-3.412l-0.854-3.305l-1.279-3.198l-1.599-3.092l-0.64-0.959h-0.853H46.162z"/>
<path fill="none" stroke="#000000" stroke-width="2" d="M46.162,11.407v34.754h14.072l1.813-3.092l1.279-3.091l1.066-3.306
	l0.64-3.411l0.319-3.305l-0.106-3.412l-0.427-3.411l-0.746-3.411L62.9,16.525l-1.493-3.092l-1.173-2.025H46.162"/>
<path fill="#B2B2B2" d="M13.433,38.273l30.384,17.591l6.716-12.047L20.469,26.226L13.433,38.273z"/>
<path fill="#CCCCCC" d="M13.433,38.273h3.518l3.518,0.427l3.305,0.746l3.305,1.065l3.092,1.493l2.985,1.813l2.772,2.025l2.452,2.346
	l2.239,2.665l2.025,2.878l0.533,1.066l0.64,1.066l0.32-0.747l1.706-3.091l1.706-2.985l1.812-2.985l0.853-1.492l0.32-0.746
	l-0.426-1.066l-1.813-3.092l-2.239-2.665l-2.346-2.559l-2.665-2.132l-2.878-1.919l-3.092-1.493l-3.198-1.279l-3.411-0.853
	l-3.412-0.427l-1.066-0.106h-1.279h-1.066h-1.173l-1.812,3.092l-1.706,2.985l-1.812,2.984l-1.279,2.239L13.433,38.273z"/>
<path fill="none" stroke="#000000" stroke-width="2" d="M13.433,38.273l30.384,17.591l6.716-12.047l-1.706-3.198l-2.026-2.772
	l-2.239-2.559l-2.559-2.345l-2.878-1.919l-2.985-1.706l-3.198-1.279l-3.305-1.066l-3.412-0.533l-3.518-0.213h-2.239L13.433,38.273"
	/>
<path fill="#B2B2B2" d="M20.469,80.17l30.064-17.591l-6.716-12.047L13.433,68.123L20.469,80.17z"/>
<path fill="#CCCCCC" d="M20.469,80.17l1.706-3.092l2.132-2.771l2.239-2.559l2.559-2.346l2.878-1.919l2.985-1.706l3.092-1.386
	l3.305-0.96l3.412-0.64l3.518-0.213h1.066h1.173l-0.32-0.746l-1.706-2.985l-1.706-2.984l-1.706-2.985l-1.279-2.346h-1.279h-1.173
	l-3.518,0.214l-3.412,0.64l-3.305,0.959l-3.198,1.386l-2.985,1.706l-2.771,1.919l-2.666,2.346l-2.239,2.559l-2.132,2.771
	l-1.173,2.025l-0.533,1.066l0.427,0.746l1.706,2.985l1.813,2.984l1.706,3.092l0.959,1.493L20.469,80.17z"/>
<path fill="none" stroke="#000000" stroke-width="2" d="M20.469,80.17l30.064-17.591l-6.716-12.047h-1.279l-3.518,0.106
	l-3.412,0.533l-3.412,0.854l-3.198,1.279l-3.092,1.492l-2.878,1.919l-2.665,2.132L18.017,61.3l-2.239,2.771l-1.813,2.985
	l-0.533,1.066L20.469,80.17"/>
<circle fill="#666666" stroke="#000000" stroke-width="2" cx="53.198" cy="53.198" r="12.26"/>
<circle fill="#E5E5E5" cx="53.198" cy="53.198" r="10.448"/>
<circle fill="#7F7F7F" cx="53.198" cy="53.198" r="3.412"/>
<path d="M9.168,100.852h6.29v2.026h-6.29V100.852z"/>
<path d="M17.59,100.852h6.29v2.026h-6.29V100.852z"/>
<path d="M32.303,100.852h6.183v2.026h-6.183V100.852z"/>
<path d="M97.228,102.878h-6.291v-2.026h6.291V102.878z"/>
<path d="M88.805,102.878h-6.29v-2.026h6.29V102.878z"/>
<path d="M74.093,102.878H67.91v-2.026h6.184V102.878z"/>
</svg>
