<?xml version="1.0" encoding="utf-8"?>
<!-- Generator: Adobe Illustrator 14.0.0, SVG Export Plug-In . SVG Version: 6.00 Build 43363)  -->
<!DOCTYPE svg PUBLIC "-//W3C//DTD SVG 1.1//EN" "http://www.w3.org/Graphics/SVG/1.1/DTD/svg11.dtd">
<svg version="1.1" id="图层_1" xmlns="http://www.w3.org/2000/svg" xmlns:xlink="http://www.w3.org/1999/xlink" x="0px" y="0px"
	 width="106.502px" height="106.502px" viewBox="0 0 106.502 106.502" enable-background="new 0 0 106.502 106.502"
	 xml:space="preserve">
<path fill="#CCCCCC" d="M2.985,2.985h100.426V103.41H2.985V2.985z"/>
<path fill="#C7C7C7" d="M2.985,74.307l100.426-42.004v71.107H2.985V74.307z"/>
<path fill="#C2C2C2" d="M2.985,78.464L103.411,36.46v66.95H2.985V78.464z"/>
<path fill="#BDBDBD" d="M2.985,84.754L103.411,42.75v60.66H2.985V84.754z"/>
<path fill="none" stroke="#000000" stroke-width="2" d="M2.985,2.985h100.426V103.41H2.985V2.985"/>
<path fill="#7F7F7F" stroke="#000000" stroke-width="2" d="M70.895,96.055l-11.62,3.198H47.121l-11.62-3.198l-10.448-6.077
	l-8.635-8.422l-6.29-10.661l-2.985-11.62V47.121l3.199-11.834l6.077-10.447l8.422-8.422l10.661-6.29l11.62-2.985h12.154
	l11.834,2.985l10.447,6.29l8.422,8.422l6.29,10.447l2.985,11.834v12.153l-2.985,11.62l-6.29,10.661l-8.422,8.422L70.895,96.055z"/>
<path fill="#191919" d="M70.149,94.242l-11.087,2.985H47.334l-11.087-2.985l-10.021-5.863l-8.208-8.209l-5.864-10.021L9.168,59.062
	l0.213-11.728l2.771-11.193l5.864-9.915l8.208-8.209l10.021-5.863l11.087-2.985h11.728l11.087,2.985l10.021,5.863l8.209,8.209
	l5.863,10.021l2.986,11.087v11.728l-2.986,11.087L88.378,80.17l-8.209,8.209L70.149,94.242z"/>
<path fill="#B2B2B2" d="M80.169,85.821L62.792,55.756l-12.153,7.036l17.378,30.064L80.169,85.821z"/>
<path fill="#CCCCCC" d="M80.169,85.821l-2.984-1.706l-2.879-2.025l-2.559-2.346l-2.238-2.559l-2.025-2.771l-1.6-2.985l-1.386-3.198
	l-0.96-3.198l-0.533-3.411l-0.213-3.519v-1.173v-1.173l-0.746,0.427l-2.984,1.813l-3.092,1.706l-3.092,1.812l-2.239,1.279
	l-0.106,1.173v1.173l0.32,3.412l0.64,3.411l0.959,3.305l1.386,3.092l1.6,2.985l2.025,2.771l2.238,2.665l2.452,2.346l2.879,2.025
	l1.919,1.173l1.066,0.533l0.746-0.427l2.984-1.706l3.092-1.812l3.092-1.706l1.492-0.853L80.169,85.821z"/>
<path fill="none" stroke="#000000" stroke-width="2" d="M80.169,85.821L62.792,55.756l-12.153,7.036l-0.106,1.173l0.213,3.412
	l0.533,3.411l0.853,3.411l1.173,3.198l1.599,2.985l1.813,2.879l2.132,2.665l2.452,2.452l2.771,2.132l2.879,1.813l1.066,0.533
	L80.169,85.821"/>
<path fill="#B2B2B2" d="M95.095,46.161H60.021l0.213,13.859l34.755,0.106L95.095,46.161z"/>
<path fill="#CCCCCC" d="M95.095,46.161l-3.092,1.813l-3.198,1.386L85.5,50.426l-3.306,0.64l-3.518,0.32l-3.411-0.107l-3.411-0.319
	l-3.412-0.853l-3.198-1.173l-3.198-1.493l-0.959-0.64l-1.066-0.64v0.96l0.106,3.411v3.519v4.264l0.106,1.706l2.985,1.813
	l3.198,1.492l3.305,1.066l3.305,0.746l2.346,0.213h1.066h1.172l3.412-0.106l3.412-0.64l3.305-0.853l3.197-1.279l3.092-1.706
	l0.96-0.64l0.106-3.518v-8.636v-0.959V46.161z"/>
<path fill="none" stroke="#000000" stroke-width="2" d="M95.095,46.161H60.021l0.213,13.859l2.985,1.813l3.198,1.492l3.305,1.066
	l3.305,0.746l3.412,0.213h3.518l3.412-0.426l3.305-0.854l3.198-1.172l3.198-1.493l1.919-1.279L95.095,46.161"/>
<path fill="#B2B2B2" d="M68.123,13.433L50.746,43.709l11.94,7.037l17.591-30.384L68.123,13.433z"/>
<path fill="#CCCCCC" d="M68.123,13.433v3.518l-0.426,3.519l-0.746,3.411l-1.066,3.198l-1.492,3.198l-1.706,2.879l-2.025,2.771
	l-2.346,2.452l-2.665,2.346l-2.878,1.919l-0.959,0.533l-1.066,0.532l0.746,0.427l2.985,1.813l2.985,1.706l2.984,1.813l1.493,0.853
	l0.746,0.427l1.065-0.533l2.986-1.813l2.771-2.239l2.451-2.452l2.133-2.665l1.919-2.878l1.599-3.092l1.174-3.198l0.852-3.305
	l0.533-3.412l0.107-1.279v-1.065v-1.173v-1.279l-3.092-1.706L74.2,16.95l-2.985-1.705L68.87,13.86L68.123,13.433z"/>
<path fill="none" stroke="#000000" stroke-width="2" d="M68.123,13.433L50.746,43.709l11.94,7.037l3.092-1.813l2.772-2.026
	l2.664-2.345l2.239-2.559l1.919-2.879l1.705-2.984l1.387-3.198l0.959-3.306l0.641-3.411l0.213-3.411v-2.452L68.123,13.433"/>
<path fill="#B2B2B2" d="M26.226,20.575l17.377,30.063l12.153-7.036l-17.377-30.17L26.226,20.575z"/>
<path fill="#CCCCCC" d="M26.226,20.575l3.092,1.706l2.772,2.025l2.559,2.346l2.239,2.559l2.025,2.771l1.599,2.985l1.386,3.198
	l0.959,3.198l0.533,3.411l0.32,3.519l-0.106,1.173v1.172l0.746-0.426l3.092-1.813l2.239-1.279l3.092-1.813l2.985-1.706l0.106-1.173
	v-1.172l-0.319-3.519l-0.64-3.305l-0.959-3.305l-1.387-3.198l-1.599-2.985l-2.025-2.771l-2.239-2.559l-2.452-2.346l-2.878-2.025
	l-1.919-1.279l-1.066-0.533l-0.747,0.533l-2.985,1.705l-3.092,1.813l-2.345,1.279l-2.239,1.279L26.226,20.575z"/>
<path fill="none" stroke="#000000" stroke-width="2" d="M26.226,20.575l17.377,30.063l12.153-7.036l0.106-1.173l-0.213-3.518
	l-0.533-3.411l-0.853-3.306l-1.173-3.198l-1.599-3.092l-1.813-2.771l-2.132-2.665l-2.452-2.452l-2.772-2.132l-2.878-1.919
	l-1.066-0.533L26.226,20.575"/>
<path fill="#B2B2B2" d="M11.301,60.234l35.074-0.106l-0.213-13.752l-34.754-0.107L11.301,60.234z"/>
<path fill="#CCCCCC" d="M11.301,60.234l3.091-1.812l3.198-1.493l3.305-0.959l3.305-0.64l3.518-0.32h3.412l3.412,0.427l3.411,0.853
	l3.305,1.173l3.091,1.492l1.066,0.533l0.959,0.64v-0.853l-0.106-3.411v-4.371V48.08l-0.107-1.705l-2.985-1.813l-3.198-1.493
	l-3.305-1.065l-3.305-0.746l-3.412-0.214l-1.172-0.106l-1.173,0.106l-3.412,0.32l-3.305,0.64L17.59,43.07l-3.198,1.387l-2.985,1.812
	l-0.106,3.519v8.636v0.853V60.234z"/>
<path fill="none" stroke="#000000" stroke-width="2" d="M11.301,60.234l35.074-0.106l-0.213-13.752l-2.985-1.813l-3.198-1.493
	l-3.305-1.065l-3.305-0.746l-3.412-0.214l-1.172-0.106l-3.412,0.213l-3.412,0.64l-3.305,0.854l-3.198,1.279l-3.092,1.705
	l-0.959,0.64L11.301,60.234"/>
<path fill="#B2B2B2" d="M38.272,92.857L55.65,62.686l-11.94-7.036L26.226,86.033L38.272,92.857z"/>
<path fill="#CCCCCC" d="M38.272,92.857v-3.519l0.427-3.411l0.746-3.412l1.066-3.305l1.493-3.092l1.706-2.878l2.026-2.771
	l2.345-2.559l2.666-2.239l2.878-1.919l0.959-0.533l1.066-0.533l-0.746-0.426l-2.985-1.813l-2.985-1.706l-2.985-1.813l-1.492-0.853
	l-0.747-0.427l-1.066,0.533l-2.985,1.813l-2.666,2.238l-2.559,2.346l-2.132,2.771L30.49,68.23l-1.599,3.092l-1.279,3.198
	l-0.853,3.305l-0.533,3.411v1.279l-0.106,1.066v1.173l0.106,1.279l2.985,1.6l3.092,1.812l2.985,1.706l2.239,1.279L38.272,92.857z"/>
<path fill="none" stroke="#000000" stroke-width="2" d="M38.272,92.857L55.65,62.686l-11.94-7.036l-2.985,1.706l-2.878,2.132
	l-2.559,2.346l-2.239,2.559l-2.025,2.771l-1.706,3.092l-1.279,3.092l-1.066,3.411l-0.533,3.412l-0.32,3.411l0.106,2.452
	L38.272,92.857"/>
<circle fill="#666666" stroke="#000000" stroke-width="2" cx="53.198" cy="53.198" r="12.26"/>
<circle fill="#E5E5E5" cx="53.198" cy="53.198" r="10.554"/>
<circle fill="#7F7F7F" cx="53.198" cy="53.198" r="3.625"/>
<path d="M9.168,100.852h6.29v1.919h-6.29V100.852z"/>
<path d="M17.697,100.852h6.183v1.919h-6.183V100.852z"/>
<path d="M32.303,100.852h6.183v1.919h-6.183V100.852z"/>
<path d="M97.228,102.771h-6.291v-1.919h6.291V102.771z"/>
<path d="M88.699,102.771h-6.184v-1.919h6.184V102.771z"/>
<path d="M74.093,102.771H67.91v-1.919h6.184V102.771z"/>
</svg>
