<?xml version="1.0" encoding="utf-8"?>
<!-- Generator: Adobe Illustrator 14.0.0, SVG Export Plug-In . SVG Version: 6.00 Build 43363)  -->
<!DOCTYPE svg PUBLIC "-//W3C//DTD SVG 1.1//EN" "http://www.w3.org/Graphics/SVG/1.1/DTD/svg11.dtd">
<svg version="1.1" id="图层_1" xmlns="http://www.w3.org/2000/svg" xmlns:xlink="http://www.w3.org/1999/xlink" x="0px" y="0px"
	 width="144.749px" height="87.898px" viewBox="0 0 144.749 87.898" enable-background="new 0 0 144.749 87.898"
	 xml:space="preserve">
<path fill="#336699" d="M15.519,3.918h125.313v79.917H15.519V3.918z"/>
<path fill="#2E6194" d="M15.519,60.628L140.833,27.27v56.565H15.519V60.628z"/>
<path fill="#295C8F" d="M15.519,64.109L140.833,30.75v53.084H15.519V64.109z"/>
<path fill="#24578A" d="M15.519,69.041l125.313-33.359v48.153H15.519V69.041z"/>
<path fill="none" stroke="#000000" stroke-width="2" d="M15.519,3.918h125.313v79.917H15.519V3.918"/>
<path fill="#666666" d="M26.107,59.757l-3.191-5.945l-1.74-6.672v-6.527l1.74-6.527l3.191-5.801l4.931-4.932l5.802-3.19l6.527-1.741
	h6.816l6.382,1.741l5.946,3.19L26.107,59.757z"/>
<path fill="#CCCCCC" d="M56.565,67.736l-6.382,1.885h-6.816l-6.527-1.885L31.038,64.4l36.115-36.115l3.626,5.801l1.596,6.527v6.527
	l-1.596,6.672l-3.626,5.945L62.511,64.4L56.565,67.736z"/>
<path fill="#999999" d="M31.038,64.4l-4.931-4.643l36.404-36.404l4.642,4.932L31.038,64.4z"/>
<path fill="none" stroke="#000000" stroke-width="2" d="M56.565,67.736l-6.382,1.885h-6.816l-6.527-1.885L31.038,64.4l-4.931-4.643
	l-3.191-5.945l-1.74-6.672v-6.527l1.74-6.527l3.191-5.801l4.931-4.932l5.802-3.19l6.527-1.741h6.816l6.382,1.741l5.946,3.19
	l4.642,4.932l3.626,5.801l1.596,6.527v6.527l-1.596,6.672l-3.626,5.945L62.511,64.4L56.565,67.736"/>
<path fill="#002659" stroke="#000000" stroke-width="2" d="M55.405,65.269l-5.656,1.306h-6.092l-5.802-1.306l-5.076-3.045
	l-4.206-4.352l-2.901-5.222l-1.74-5.802v-5.946l1.74-5.801l2.901-5.077l4.206-4.061l5.076-3.046l5.802-1.74h6.092l5.656,1.74
	l5.512,3.046l4.061,4.061l3.046,5.077l1.596,5.801v5.946l-1.596,5.802l-3.046,5.222l-4.351,4.352L55.405,65.269z"/>
<path fill="#00194C" d="M26.977,55.407l-1.306-2.756h42.352l-1.74,2.756H26.977z"/>
<path fill="#6666FF" d="M23.931,44.819v-1.45h24.076v1.45H23.931z"/>
<path d="M48.588,46.415l-2.175,0.435L37.42,61.499l-1.16-0.58l7.978-15.084l-0.58-2.176l-14.504-8.992l0.58-1.161l15.229,7.977
	l2.176-0.58l9.138-14.504l1.016,0.58l-8.123,15.084l0.581,2.465l14.358,8.992l-0.436,0.726L48.588,46.415z"/>
<path fill="none" stroke="#B2B2B2" stroke-width="2" d="M36.26,60.918l7.978-15.084l-0.58-2.176l-14.504-8.992l0.58-1.161
	l15.229,7.977l2.176-0.58l9.138-14.504l1.016,0.58l-8.123,15.084l0.581,2.465l14.358,8.992"/>
<path fill="#FFFFFF" d="M28.573,34.376l0.58-1.451l0.58,0.29l-0.58,1.451L28.573,34.376z"/>
<path fill="#FFFFFF" d="M63.672,54.537l0.726-1.305l0.58,0.58l-0.87,1.015L63.672,54.537z"/>
<path fill="#FFFFFF" d="M37.13,62.224l-1.45-0.726l0.58-0.58l1.16,0.87L37.13,62.224z"/>
<path fill="#FFFFFF" d="M57.291,26.979l-1.016-0.58l0.29-0.725l1.016,0.725L57.291,26.979z"/>
<path fill="none" stroke="#003366" stroke-width="2" d="M78.176,3.918v79.046"/>
<path fill="#002659" d="M98.047,9.72h36.984v68.458H98.047V9.72z"/>
<path fill="#334C66" d="M129.229,12.476H98.047V9.72h36.984L129.229,12.476z"/>
<path fill="#000033" d="M25.382,80.933h2.176v1.596h-2.176V80.933z"/>
<path fill="#000033" d="M42.497,80.933h2.32v1.596h-2.32V80.933z"/>
<path fill="#000033" d="M59.756,80.933h2.176v1.596h-2.176V80.933z"/>
<path fill="#000033" d="M77.015,80.933h2.176v1.596h-2.176V80.933z"/>
<path fill="#000033" d="M94.275,80.933h2.176v1.596h-2.176V80.933z"/>
<path fill="#000033" d="M111.245,80.933h2.466v1.596h-2.466V80.933z"/>
<path fill="#000033" d="M128.505,80.933h2.176v1.596h-2.176V80.933z"/>
<path fill="#000033" d="M25.382,5.659h2.176v1.305h-2.176V5.659z"/>
<path fill="#000033" d="M42.497,5.659h2.32v1.305h-2.32V5.659z"/>
<path fill="#000033" d="M59.756,5.659h2.176v1.305h-2.176V5.659z"/>
<path fill="#000033" d="M77.015,5.659h2.176v1.305h-2.176V5.659z"/>
<path fill="#000033" d="M94.275,5.659h2.176v1.305h-2.176V5.659z"/>
<path fill="#000033" d="M111.245,5.659h2.466v1.305h-2.466V5.659z"/>
<path fill="#000033" d="M128.505,5.659h2.176v1.305h-2.176V5.659z"/>
<path fill="none" stroke="#99CCFF" stroke-width="2" d="M25.382,5.659h2.176"/>
<path fill="none" stroke="#99CCFF" stroke-width="2" d="M42.497,5.659h2.32"/>
<path fill="none" stroke="#99CCFF" stroke-width="2" d="M59.756,5.659h2.176"/>
<path fill="none" stroke="#99CCFF" stroke-width="2" d="M77.015,5.659h2.176"/>
<path fill="none" stroke="#99CCFF" stroke-width="2" d="M94.275,5.659h2.176"/>
<path fill="none" stroke="#99CCFF" stroke-width="2" d="M111.535,5.659h1.886"/>
<path fill="none" stroke="#99CCFF" stroke-width="2" d="M128.795,5.659h1.886"/>
<path fill="none" stroke="#99CCFF" stroke-width="2" d="M25.382,80.933h2.176"/>
<path fill="none" stroke="#99CCFF" stroke-width="2" d="M42.497,80.933h2.32"/>
<path fill="none" stroke="#99CCFF" stroke-width="2" d="M59.756,80.933h2.176"/>
<path fill="none" stroke="#99CCFF" stroke-width="2" d="M77.015,80.933h2.176"/>
<path fill="none" stroke="#99CCFF" stroke-width="2" d="M94.275,80.933h2.176"/>
<path fill="none" stroke="#99CCFF" stroke-width="2" d="M111.535,80.933h1.886"/>
<path fill="none" stroke="#99CCFF" stroke-width="2" d="M128.795,80.933h1.886"/>
<path fill="#194C7F" d="M16.825,26.979h-1.306v34.229h1.306V26.979z"/>
<path fill="#336699" stroke="#000000" stroke-width="2" d="M3.916,26.979h11.604v34.229H3.916V26.979z"/>
<path fill="none" stroke="#000000" stroke-width="2" d="M6.092,49.75V38.147"/>
<path fill="none" stroke="#000000" stroke-width="2" d="M7.542,38.147V49.75"/>
<path fill="none" stroke="#000000" stroke-width="2" d="M8.992,49.75V38.147"/>
<path fill="none" stroke="#000000" stroke-width="2" d="M10.298,38.147V49.75"/>
<path fill="none" stroke="#000000" stroke-width="2" d="M11.893,49.75V38.147"/>
<path fill="none" stroke="#000000" stroke-width="2" d="M13.344,38.147V49.75"/>
<path fill="#6666FF" stroke="#000000" stroke-width="2" d="M15.519,59.468l2.61-1.306V44.819h2.756v-1.74h-4.061v13.778
	l-1.306,0.726V59.468z"/>
<path fill="#4C657F" d="M129.229,78.178V12.476l5.802-2.756v68.458H129.229z"/>
<path fill="none" stroke="#000000" stroke-width="2" d="M98.047,9.72h36.984v68.458H98.047V9.72"/>
<path fill="none" stroke="#000000" stroke-width="2" d="M10.588,32.491l-0.87-0.87V30.46l0.87-0.725h1.016l0.87,0.725v1.161
	l-0.87,0.87H10.588"/>
</svg>
