<?xml version="1.0" encoding="utf-8"?>
<!-- Generator: Adobe Illustrator 14.0.0, SVG Export Plug-In . SVG Version: 6.00 Build 43363)  -->
<!DOCTYPE svg PUBLIC "-//W3C//DTD SVG 1.1//EN" "http://www.w3.org/Graphics/SVG/1.1/DTD/svg11.dtd">
<svg version="1.1" id="图层_1" xmlns="http://www.w3.org/2000/svg" xmlns:xlink="http://www.w3.org/1999/xlink" x="0px" y="0px"
	 width="106.502px" height="106.502px" viewBox="0 0 106.502 106.502" enable-background="new 0 0 106.502 106.502"
	 xml:space="preserve">
<path fill="#263A59" stroke="#000000" stroke-width="2" d="M91.364,78.358H49.04v-25.16h48.081v23.028L91.364,78.358z"/>
<path fill="#596D8C" stroke="#000000" stroke-width="2" d="M94.775,75.693l-45.202-3.625l-8.635-1.706l-7.783-4.903l-5.011-7.783
	l-1.599-8.635l1.599-8.636l5.011-7.889l7.783-4.904l8.635-1.599l8.635,1.599l7.996,5.117L101.066,61.3l1.813,2.879l0.532,3.198
	l-0.532,3.092l-1.813,2.878l-2.879,1.706L94.775,75.693z"/>
<circle fill="#0D2140" stroke="#000000" stroke-width="2" cx="94.989" cy="67.27" r="6.716"/>
<path fill="#E5E5DD" stroke="#000000" stroke-width="2" d="M90.832,53.198V5.011H49.04v6.29l-4.264,0.213l-4.158,0.64l-4.051,1.066
	l-3.838,1.386l-3.625,1.813l-3.519,2.132l-3.198,2.346l-2.985,2.771l-2.665,2.878l-2.452,3.306l-2.132,3.411l-1.706,3.625
	l-1.386,3.838l-1.066,4.051l-0.64,4.158L7.25,51.066l-0.107,2.132v1.066l0.213,3.198l0.426,3.092l0.747,3.092l0.853,2.985
	l1.066,2.878l1.279,2.665l1.493,2.665l1.706,2.559l1.813,2.346l2.025,2.346l1.386,1.386l-6.716,5.33l-2.132,12.474h75.373
	l-2.025-12.474l-6.717-5.33v-0.213l2.025-1.919l1.919-2.346l1.813-2.452l1.599-2.559l1.387-2.665l1.279-2.771l1.066-2.879
	l0.746-2.985l0.639-3.092l0.32-3.198l0.107-1.065v-1.066V53.198z"/>
<path fill="#CCCCBD" d="M90.298,45.948l-0.746-3.625l-1.174-3.518l-1.385-3.305l-1.6-3.198l-1.919-2.985l-2.239-2.879L78.89,23.88
	l-2.664-2.452l-2.772-2.238l-2.985-1.919l-3.092-1.706l-3.305-1.492l-3.518-1.066l-3.519-0.853l-3.625-0.533l-3.731-0.319
	l-0.106-6.29h40.725V45.948z"/>
<path fill="#E5E5DD" stroke="#000000" stroke-width="2" d="M40.618,2.985h58.635v2.026H40.618V2.985z"/>
<path fill="#E5E5DD" stroke="#000000" stroke-width="2" d="M7.143,101.385h83.689v2.025H7.143V101.385z"/>
<path fill="#E5E5DD" stroke="#000000" stroke-width="2" d="M2.985,46.907h92.11v3.092H2.985V46.907z"/>
<path fill="#B2B29B" stroke="#000000" stroke-width="2" d="M2.985,51.066h92.11v-1.066H2.985V51.066z"/>
<circle fill="#CCCCBD" stroke="#000000" stroke-width="2" cx="48.934" cy="48.933" r="35.5"/>
<path fill="#333333" d="M19.829,63.432l56.29-32.622l2.133,3.838l-56.29,32.409L19.829,63.432z"/>
<path fill="#333333" d="M30.917,76.012l32.516-56.289l3.731,2.238l-32.516,56.29L30.917,76.012z"/>
<path fill="#333333" d="M46.908,81.449V16.418h4.264v65.031H46.908z"/>
<path fill="#333333" d="M63.432,78.145L30.917,21.961l3.731-2.238l32.516,56.289L63.432,78.145z"/>
<path fill="#333333" d="M76.012,67.057L19.829,34.541l2.132-3.731l56.29,32.516L76.012,67.057z"/>
<path fill="#333333" d="M16.524,46.801h65.032v4.371H16.524V46.801z"/>
<circle fill="#4C4C16" cx="49.04" cy="49.04" r="29.851"/>
<circle fill="#333300" cx="49.04" cy="49.04" r="21.961"/>
<path d="M34.861,49.04l1.066-5.331l2.985-4.797l4.797-2.985l5.331-1.065l5.331,1.065l4.797,2.985l2.985,4.797l0.96,5.331l-0.96,5.33
	l-2.985,4.798l-4.797,2.984l-5.331,0.96l-5.331-0.96l-4.797-2.984l-2.985-4.798L34.861,49.04z"/>
<path fill="#CCCCBD" d="M77.825,83.581l2.559,2.025l-2.452,2.133l-2.559,1.919l-2.665,1.813L69.83,93.07l-2.879,1.386l-3.092,1.173
	l-3.092,0.96l-3.198,0.746l-3.092,0.533l-3.305,0.319h-1.066H49.04l-3.305-0.106l-3.198-0.32l-3.198-0.64l-3.198-0.853l-2.985-1.066
	L30.17,94.03l-2.878-1.493l-2.878-1.705l-2.666-1.813l-2.452-2.025l-0.853-0.64l-0.746-0.747l2.559-2.025l2.239,1.919l2.345,1.813
	l2.452,1.6l2.665,1.492l2.666,1.279l2.771,1.066l2.878,0.853l2.878,0.64l2.878,0.533l2.985,0.213L50,95.095l2.985-0.213l2.985-0.427
	l2.878-0.64l2.878-0.746l2.772-1.066l2.772-1.172l2.559-1.387l2.559-1.599l2.345-1.706l2.345-1.919L77.825,83.581z"/>
</svg>
