<?xml version="1.0" encoding="utf-8"?>
<!-- Generator: Adobe Illustrator 14.0.0, SVG Export Plug-In . SVG Version: 6.00 Build 43363)  -->
<!DOCTYPE svg PUBLIC "-//W3C//DTD SVG 1.1//EN" "http://www.w3.org/Graphics/SVG/1.1/DTD/svg11.dtd">
<svg version="1.1" id="图层_1" xmlns="http://www.w3.org/2000/svg" xmlns:xlink="http://www.w3.org/1999/xlink" x="0px" y="0px"
	 width="106.502px" height="106.502px" viewBox="0 0 106.502 106.502" enable-background="new 0 0 106.502 106.502"
	 xml:space="preserve">
<path fill="#999999" stroke="#000000" stroke-width="2" d="M9.168,48.934h85.82v46.055H9.168V48.934z"/>
<path fill="#BFBFBF" stroke="#000000" stroke-width="2" d="M28.251,9.168l29.211,16.737L40.725,55.01L11.621,38.379L28.251,9.168z"
	/>
<path fill="#D9D9D9" stroke="#000000" stroke-width="2" d="M53.198,11.407V2.985h41.791v25.054v25.159l-0.214,4.265l-0.639,4.158
	l-1.066,4.051l-1.387,3.838l-1.705,3.625l-2.133,3.411L85.5,79.743l-2.772,2.985L79.744,85.5l-3.198,2.346l-3.411,2.132
	l-3.625,1.706l-3.838,1.386l-4.051,1.066l-4.158,0.64l-2.133,0.106l-2.132,0.106l-2.132-0.106l-4.265-0.32l-4.051-0.853
	l-3.944-1.279l-3.731-1.599l-3.518-1.919l-3.412-2.239l-3.091-2.559l-2.772-2.771l-2.559-3.092l-2.239-3.412l-1.919-3.518
	l-1.599-3.731l-1.279-3.944l-0.853-4.052l-0.32-4.264l-0.106-2.133v-1.065l0.213-3.198l0.426-3.092l0.64-3.092l0.853-2.985
	l1.172-2.878l1.279-2.772l1.386-2.665l1.706-2.452l1.813-2.345l2.025-2.239l2.239-2.132l2.239-1.919l2.452-1.813l2.665-1.6
	l2.666-1.492l2.771-1.173l2.878-0.959l2.985-0.854l3.092-0.64L50,11.514L53.198,11.407z"/>
<path fill="#999999" stroke="#000000" stroke-width="2" d="M5.011,97.228h96.375v4.157H5.011V97.228z"/>
<path fill="#CCCCCC" stroke="#000000" stroke-width="2" d="M21.855,74.093h62.686v2.239H21.855V74.093z"/>
<path fill="#BFBFBF" stroke="#000000" stroke-width="2" d="M15.458,90.938h75.479v4.051H15.458V90.938z"/>
<circle fill="#B2B2B2" stroke="#7F7F7F" stroke-width="2" cx="53.411" cy="44.562" r="29.531"/>
<circle fill="#A6A6A6" cx="53.411" cy="44.562" r="26.333"/>
<circle fill="#999999" cx="53.411" cy="44.456" r="23.241"/>
<circle fill="#8C8C8C" cx="53.518" cy="44.562" r="20.149"/>
<circle fill="#7F7F7F" cx="53.411" cy="44.562" r="16.951"/>
<circle fill="#BFBFBF" stroke="#000000" stroke-width="2" cx="53.198" cy="44.669" r="14.712"/>
<path fill="none" stroke="#000000" stroke-width="2" d="M43.39,55.224h19.83"/>
<path fill="none" stroke="#000000" stroke-width="2" d="M39.125,41.365h28.146"/>
<path fill="none" stroke="#000000" stroke-width="2" d="M39.125,48.401h28.146"/>
<path fill="none" stroke="#000000" stroke-width="2" d="M43.39,34.541h19.83"/>
<path fill="#999999" d="M21.642,76.118h63.113v2.239H21.642V76.118z"/>
<path fill="#999999" d="M53.411,13.433h29.104v2.238H53.411V13.433z"/>
<path fill="#CCCCCC" stroke="#000000" stroke-width="2" d="M53.411,11.194h29.104v2.239H53.411V11.194z"/>
<path fill="#CCCCCC" stroke="#000000" stroke-width="2" d="M51.172,2.985h46.056v2.239H51.172V2.985z"/>
<path fill="#CCCCCC" stroke="#000000" stroke-width="2" d="M2.985,101.172h100.426v2.238H2.985V101.172z"/>
<path fill="#CCCCCC" stroke="#000000" stroke-width="2" d="M2.985,95.201h100.426v1.813H2.985V95.201z"/>
<path fill="#CCCCCC" stroke="#000000" stroke-width="2" d="M11.194,95.201L23.88,23.88h4.158L17.59,95.201H11.194z"/>
<path fill="#CCCCCC" stroke="#000000" stroke-width="2" d="M95.202,95.201L82.515,13.433h-4.158l10.448,81.769H95.202z"/>
<path fill="#4C4C4C" d="M24.84,30.064l-0.533-0.213l-0.426-0.747l0.426-0.853l0.533-0.213l0.853,0.213l0.426,0.853l-0.426,0.747
	L24.84,30.064z"/>
<path fill="#4C4C4C" d="M23.88,36.887l-0.853-0.214l-0.213-0.746l0.213-0.853l0.853-0.213l0.746,0.213l0.213,0.853l-0.213,0.746
	L23.88,36.887z"/>
<path fill="#4C4C4C" d="M22.281,45.309l-0.64-0.32l-0.426-0.64l0.426-0.746l0.64-0.213l0.746,0.213l0.213,0.746l-0.213,0.64
	L22.281,45.309z"/>
<path fill="#4C4C4C" d="M21.215,53.837l-0.747-0.426l-0.213-0.854l0.213-0.532l0.747-0.427l0.853,0.427l0.213,0.532l-0.213,0.854
	L21.215,53.837z"/>
<path fill="#4C4C4C" d="M19.616,61.62l-0.533-0.427l-0.426-0.533l0.426-0.853l0.533-0.427l0.853,0.427l0.213,0.853l-0.213,0.533
	L19.616,61.62z"/>
<path fill="#4C4C4C" d="M18.017,69.829l-0.64-0.107l-0.32-0.853l0.32-0.64l0.64-0.319l0.853,0.319l0.32,0.64l-0.32,0.853
	L18.017,69.829z"/>
<path fill="#4C4C4C" d="M16.631,78.358l-0.853-0.213l-0.32-0.854l0.32-0.746l0.853-0.213l0.64,0.213l0.32,0.746l-0.32,0.854
	L16.631,78.358z"/>
<path fill="#4C4C4C" d="M28.038,78.358l-0.746-0.427l-0.213-0.64l0.213-0.746l0.746-0.213l0.853,0.213l0.213,0.746l-0.213,0.64
	L28.038,78.358z"/>
<path fill="#4C4C4C" d="M36.567,78.358l-0.853-0.213l-0.426-0.854l0.426-0.746l0.853-0.213l0.533,0.213l0.426,0.746L37.1,78.145
	L36.567,78.358z"/>
<path fill="#4C4C4C" d="M44.776,78.358l-0.64-0.427l-0.427-0.64l0.427-0.746l0.64-0.213l0.746,0.213l0.213,0.746l-0.213,0.64
	L44.776,78.358z"/>
<path fill="#4C4C4C" d="M53.198,78.358l-0.853-0.427l-0.107-0.64l0.107-0.746l0.853-0.213l0.853,0.213l0.107,0.746l-0.107,0.64
	L53.198,78.358z"/>
<path fill="#4C4C4C" d="M61.621,78.358l-0.747-0.427l-0.213-0.64l0.213-0.746l0.747-0.213l0.639,0.213l0.427,0.746l-0.427,0.64
	L61.621,78.358z"/>
<path fill="#4C4C4C" d="M78.357,78.358l-0.852-0.427l-0.214-0.64l0.214-0.746l0.852-0.213l0.747,0.213l0.213,0.746l-0.213,0.64
	L78.357,78.358z"/>
<path fill="#4C4C4C" d="M69.83,78.358l-0.533-0.427l-0.427-0.64l0.427-0.746l0.533-0.213l0.852,0.213l0.428,0.746l-0.428,0.64
	L69.83,78.358z"/>
<path fill="#4C4C4C" d="M28.038,94.562l-0.746-0.319l-0.213-0.64l0.213-0.853l0.746-0.32l0.853,0.32l0.213,0.853l-0.213,0.64
	L28.038,94.562z"/>
<path fill="#4C4C4C" d="M53.198,94.562l-0.853-0.319l-0.107-0.64l0.107-0.853l0.853-0.32l0.853,0.32l0.107,0.853l-0.107,0.64
	L53.198,94.562z"/>
<path fill="#4C4C4C" d="M78.357,94.562l-0.852-0.319l-0.214-0.64l0.214-0.853l0.852-0.32l0.747,0.32l0.213,0.853l-0.213,0.64
	L78.357,94.562z"/>
</svg>
