<?xml version="1.0" encoding="utf-8"?>
<!-- Generator: Adobe Illustrator 14.0.0, SVG Export Plug-In . SVG Version: 6.00 Build 43363)  -->
<!DOCTYPE svg PUBLIC "-//W3C//DTD SVG 1.1//EN" "http://www.w3.org/Graphics/SVG/1.1/DTD/svg11.dtd">
<svg version="1.1" id="图层_1" xmlns="http://www.w3.org/2000/svg" xmlns:xlink="http://www.w3.org/1999/xlink" x="0px" y="0px"
	 width="117.043px" height="106.502px" viewBox="0 0 117.043 106.502" enable-background="new 0 0 117.043 106.502"
	 xml:space="preserve">
<path fill="#999999" d="M13.708,15.701l29.173-8.318h41.592l29.173,8.318v66.663l-29.173,8.437H42.881l-29.173-8.437V15.701z"/>
<path fill="#B2B2B2" d="M13.708,22.379l29.173-6.678h41.592l29.173,6.678v53.427l-29.173,6.561H42.881l-29.173-6.561V22.379z"/>
<path fill="#CCCCCC" d="M13.708,32.455l29.173-4.218h41.592l29.173,4.218v33.272l-29.173,4.219H42.881l-29.173-4.219V32.455z"/>
<path fill="#E5E5E5" d="M13.708,41.594l29.173-1.875h41.592l29.173,1.875V56.59l-29.173,1.875H42.881L13.708,56.59V41.594z"/>
<path fill="#999999" stroke="#000000" stroke-width="2" d="M110.6,82.364v9.373H93.845v-1.991h14.646v-7.382H110.6z"/>
<path fill="none" stroke="#000000" stroke-width="2" d="M13.708,15.701l29.173-8.318h41.592l29.173,8.318v66.663l-29.173,8.437
	H42.881l-29.173-8.437V15.701"/>
<path fill="#999999" stroke="#000000" stroke-width="2" d="M99.117,9.491h4.218v79.201h-4.218V9.491z"/>
<path fill="#999999" stroke="#000000" stroke-width="2" d="M84.473,3.282h4.218v96.892h-4.218V3.282z"/>
<path fill="#999999" stroke="#000000" stroke-width="2" d="M72.99,3.282h4.218v20.854H72.99V3.282z"/>
<path fill="#999999" stroke="#000000" stroke-width="2" d="M61.626,3.282h4.101v20.854h-4.101V3.282z"/>
<path fill="#999999" stroke="#000000" stroke-width="2" d="M50.145,3.282h4.102v20.854h-4.102V3.282z"/>
<path fill="#999999" stroke="#000000" stroke-width="2" d="M38.663,3.282h4.218v96.892h-4.218V3.282z"/>
<path fill="#999999" stroke="#000000" stroke-width="2" d="M24.135,9.491h4.101v79.201h-4.101V9.491z"/>
<path fill="#7F7F7F" stroke="#000000" stroke-width="2" d="M32.453,103.22v-3.046h10.428v3.046H32.453z"/>
<path fill="#B2B2B2" stroke="#000000" stroke-width="2" d="M33.508,86.583h5.155v13.591h-5.155V86.583z"/>
<path fill="#7F7F7F" stroke="#000000" stroke-width="2" d="M94.9,103.22v-3.046H84.473v3.046H94.9z"/>
<path fill="#B2B2B2" stroke="#000000" stroke-width="2" d="M93.845,86.583h-5.154v13.591h5.154V86.583z"/>
<path fill="none" stroke="#000000" stroke-width="2" d="M40.772,86.583V3.282"/>
<path fill="none" stroke="#000000" stroke-width="2" d="M86.581,3.282v83.301"/>
<path fill="#B2B2B2" stroke="#000000" stroke-width="2" d="M42.881,24.137h41.592v68.656H42.881V24.137z"/>
<path fill="none" stroke="#FFFFFF" stroke-width="2" d="M46.982,28.238h33.392"/>
<circle fill="#BFBFBF" stroke="#000000" stroke-width="2" cx="63.618" cy="57.41" r="24.955"/>
<circle fill="#4C4C4C" stroke="#000000" stroke-width="2" cx="63.618" cy="57.41" r="14.528"/>
<path stroke="#000000" stroke-width="2" d="M75.569,39.016l-1.055,1.758l-1.874-0.938l1.054-1.874L75.569,39.016z"/>
<path stroke="#000000" stroke-width="2" d="M59.049,35.97l0.586,2.109l-2.109,0.468l-0.469-1.991L59.049,35.97z"/>
<path stroke="#000000" stroke-width="2" d="M45.224,45.577l1.875,1.055l-1.055,1.757l-1.875-1.055L45.224,45.577z"/>
<path stroke="#000000" stroke-width="2" d="M42.295,62.097l1.991-0.586l0.586,1.992l-2.108,0.585L42.295,62.097z"/>
<path stroke="#000000" stroke-width="2" d="M85.059,52.724l-1.992,0.586l-0.586-1.992l2.109-0.585L85.059,52.724z"/>
<path stroke="#000000" stroke-width="2" d="M82.129,69.243l-1.874-1.055l1.054-1.758l1.875,1.055L82.129,69.243z"/>
<path stroke="#000000" stroke-width="2" d="M68.305,78.851l-0.469-2.108l1.991-0.468l0.469,1.99L68.305,78.851z"/>
<path stroke="#000000" stroke-width="2" d="M51.784,75.806l1.055-1.875l1.875,1.172l-1.055,1.756L51.784,75.806z"/>
<path fill="none" stroke="#7F7F7F" stroke-width="2" d="M46.982,88.692h33.392"/>
<path fill="#BFBFBF" d="M105.327,22.028h6.325v5.155h-6.325V22.028z"/>
<path fill="#BFBFBF" d="M105.327,38.664h6.325v5.272h-6.325V38.664z"/>
<path fill="#BFBFBF" d="M105.327,55.301h6.325v5.272h-6.325V55.301z"/>
<path fill="#BFBFBF" d="M105.327,71.938h6.325v5.271h-6.325V71.938z"/>
<path fill="#BFBFBF" d="M15.817,71.938h6.21v5.271h-6.21V71.938z"/>
<path fill="#BFBFBF" d="M15.817,55.301h6.21v5.272h-6.21V55.301z"/>
<path fill="#BFBFBF" d="M15.817,38.664h6.21v5.272h-6.21V38.664z"/>
<path fill="#BFBFBF" d="M15.817,22.028h6.21v5.155h-6.21V22.028z"/>
<path fill="none" stroke="#000000" stroke-width="2" d="M22.027,22.028h-6.21v5.155"/>
<path fill="none" stroke="#000000" stroke-width="2" d="M22.027,38.664h-6.21v5.155"/>
<path fill="none" stroke="#000000" stroke-width="2" d="M22.027,55.301h-6.21v5.155"/>
<path fill="none" stroke="#000000" stroke-width="2" d="M22.027,71.938h-6.21v5.271"/>
<path fill="none" stroke="#000000" stroke-width="2" d="M111.654,22.028h-6.325v5.155"/>
<path fill="none" stroke="#000000" stroke-width="2" d="M111.654,38.664h-6.325v5.155"/>
<path fill="none" stroke="#000000" stroke-width="2" d="M111.654,55.301h-6.325v5.155"/>
<path fill="none" stroke="#000000" stroke-width="2" d="M111.654,71.938h-6.325v5.271"/>
<path fill="#999999" stroke="#000000" stroke-width="2" d="M89.862,82.601v-2.93l2.578-1.406l2.46,1.406v2.93l-2.46,1.522
	L89.862,82.601z"/>
<path fill="#999999" stroke="#000000" stroke-width="2" d="M32.571,82.601v-2.93l2.577-1.406l2.461,1.406v2.93l-2.461,1.522
	L32.571,82.601z"/>
<path fill="#8C8C8C" stroke="#000000" stroke-width="2" d="M9.49,81.429h22.963v21.791H9.49V81.429z"/>
<path fill="#B2B2B2" stroke="#000000" stroke-width="2" d="M9.49,86.583H7.381V22.028h6.327V17.81H3.281v72.991h6.211L9.49,86.583
	L9.49,86.583z"/>
<path fill="none" stroke="#FFFFFF" stroke-width="2" d="M12.654,100.174V84.476H29.29"/>
</svg>
