<?xml version="1.0" encoding="utf-8"?>
<!-- Generator: Adobe Illustrator 14.0.0, SVG Export Plug-In . SVG Version: 6.00 Build 43363)  -->
<!DOCTYPE svg PUBLIC "-//W3C//DTD SVG 1.1//EN" "http://www.w3.org/Graphics/SVG/1.1/DTD/svg11.dtd">
<svg version="1.1" id="图层_1" xmlns="http://www.w3.org/2000/svg" xmlns:xlink="http://www.w3.org/1999/xlink" x="0px" y="0px"
	 width="91.786px" height="106.502px" viewBox="0 0 91.786 106.502" enable-background="new 0 0 91.786 106.502"
	 xml:space="preserve">
<path fill="#CCCCCC" d="M82.511,48.934l2.024,50.316h-73.13V65.67L82.511,48.934z"/>
<path fill="#C4C4C4" d="M75.262,48.934l1.704,50.316H19.082V65.67L75.262,48.934z"/>
<path fill="#BABABA" d="M68.013,48.934l1.278,50.316H26.757V65.67L68.013,48.934z"/>
<path fill="#B2B2B2" d="M60.871,48.934l0.746,50.316H34.326V65.67L60.871,48.934z"/>
<path fill="none" stroke="#000000" stroke-width="2" d="M82.511,48.934l2.024,50.316h-73.13V65.67L82.511,48.934"/>
<path fill="#CCCCCC" stroke="#000000" stroke-width="2" d="M28.25,15.247l2.985-1.279l3.091-1.066l3.198-0.746l3.091-0.533
	l3.092-0.213h2.984l3.838,0.427l3.625,0.746l3.625,1.065l3.305,1.493l3.306,1.705l2.983,2.025l2.771,2.346l2.559,2.559l2.346,2.771
	l2.025,2.984l1.705,3.198l1.492,3.305l1.065,3.519l0.746,3.73l0.427,3.731v1.919v2.025l-0.427,3.73l-0.746,3.625l-1.065,3.625
	l-1.492,3.305l-1.705,3.305l-2.025,2.984l-2.346,2.771l-2.559,2.559l-2.771,2.346l-2.983,2.025l-3.306,1.813l-3.305,1.387
	l-3.625,1.064l-3.625,0.854l-3.838,0.319l-1.918,0.106l-1.919-0.106l-3.837-0.319l-3.625-0.854l-3.519-1.064l-3.412-1.387
	l-3.197-1.813l-2.985-2.025l-2.772-2.346l-2.558-2.559l-2.346-2.771l-1.918-2.984l-1.813-3.305L9.488,61.94l-1.173-3.625
	L7.569,54.69l-0.32-3.73l-0.105-2.025V7.145h20.894L28.25,15.247z"/>
<circle fill="#D4D4D4" cx="44.773" cy="48.933" r="28.57"/>
<circle fill="#DEDEDE" cx="44.88" cy="48.934" r="23.666"/>
<circle fill="#E5E5E5" cx="44.88" cy="48.933" r="18.762"/>
<path fill="#F2F2F2" stroke="#000000" stroke-width="2" d="M7.143,7.145L2.985,2.988h29.315l-4.264,4.157H7.143z"/>
<path fill="#F2F2F2" stroke="#000000" stroke-width="2" d="M84.537,99.25l4.265,4.158H7.143l4.264-4.158H84.537z"/>
</svg>
