<?xml version="1.0" encoding="utf-8"?>
<!-- Generator: Adobe Illustrator 14.0.0, SVG Export Plug-In . SVG Version: 6.00 Build 43363)  -->
<!DOCTYPE svg PUBLIC "-//W3C//DTD SVG 1.1//EN" "http://www.w3.org/Graphics/SVG/1.1/DTD/svg11.dtd">
<svg version="1.1" id="图层_1" xmlns="http://www.w3.org/2000/svg" xmlns:xlink="http://www.w3.org/1999/xlink" x="0px" y="0px"
	 width="144.749px" height="104.904px" viewBox="0 0 144.749 104.904" enable-background="new 0 0 144.749 104.904"
	 xml:space="preserve">
<path fill="#669966" stroke="#000000" stroke-width="2" d="M4.057,15.359h113.741v85.343H4.057V15.359z"/>
<path fill="#B2CCB2" stroke="#000000" stroke-width="2" d="M4.057,15.359L26.805,4.057h113.741l-22.748,11.302H4.057z"/>
<path fill="#3F7F3F" stroke="#000000" stroke-width="2" d="M117.799,100.702L140.547,89.4V4.057l-22.748,11.302V100.702z"/>
<path fill="none" stroke="#000000" stroke-width="2" d="M15.359,95.051h91.138"/>
<path fill="none" stroke="#000000" stroke-width="2" d="M15.359,97.949h91.138"/>
<path fill="none" stroke="#000000" stroke-width="2" d="M15.359,92.153h91.138"/>
<path fill="none" stroke="#000000" stroke-width="2" d="M15.359,86.502h91.138"/>
<path fill="none" stroke="#000000" stroke-width="2" d="M15.359,89.255h91.138"/>
<path fill="none" stroke="#000000" stroke-width="2" d="M15.359,83.749h91.138"/>
<path fill="none" stroke="#000000" stroke-width="2" d="M15.359,80.706h91.138"/>
<path fill="none" stroke="#000000" stroke-width="2" d="M15.359,75.055h91.138"/>
<path fill="none" stroke="#000000" stroke-width="2" d="M15.359,77.953h91.138"/>
<path fill="none" stroke="#000000" stroke-width="2" d="M15.359,72.302h91.138"/>
<path fill="none" stroke="#000000" stroke-width="2" d="M15.359,69.405h91.138"/>
<path fill="none" stroke="#000000" stroke-width="2" d="M15.359,63.754h91.138"/>
<path fill="none" stroke="#000000" stroke-width="2" d="M15.359,66.507h91.138"/>
<path fill="none" stroke="#000000" stroke-width="2" d="M15.359,60.856h91.138"/>
<path fill="none" stroke="#000000" stroke-width="2" d="M15.359,57.958h91.138"/>
<path fill="none" stroke="#000000" stroke-width="2" d="M15.359,52.307h91.138"/>
<path fill="none" stroke="#000000" stroke-width="2" d="M15.359,55.205h91.138"/>
<path fill="none" stroke="#000000" stroke-width="2" d="M15.359,49.554h91.138"/>
<path fill="none" stroke="#000000" stroke-width="2" d="M15.359,46.656h91.138"/>
<path fill="none" stroke="#000000" stroke-width="2" d="M15.359,41.006h91.138"/>
<path fill="none" stroke="#000000" stroke-width="2" d="M15.359,43.759h91.138"/>
<path fill="none" stroke="#000000" stroke-width="2" d="M15.359,38.107h91.138"/>
<path fill="none" stroke="#000000" stroke-width="2" d="M15.359,35.21h91.138"/>
<path fill="none" stroke="#000000" stroke-width="2" d="M15.359,29.558h91.138"/>
<path fill="none" stroke="#000000" stroke-width="2" d="M15.359,32.457h91.138"/>
<path fill="none" stroke="#000000" stroke-width="2" d="M15.359,26.805h91.138"/>
<path fill="none" stroke="#000000" stroke-width="2" d="M137.794,86.502l-17.098,8.549"/>
<path fill="none" stroke="#000000" stroke-width="2" d="M137.794,89.255l-17.098,8.694"/>
<path fill="none" stroke="#000000" stroke-width="2" d="M137.794,83.604l-17.098,8.549"/>
<path fill="none" stroke="#000000" stroke-width="2" d="M137.794,77.953l-17.098,8.549"/>
<path fill="none" stroke="#000000" stroke-width="2" d="M137.794,80.706l-17.098,8.549"/>
<path fill="none" stroke="#000000" stroke-width="2" d="M137.794,75.055l-17.098,8.693"/>
<path fill="none" stroke="#000000" stroke-width="2" d="M137.794,72.158l-17.098,8.548"/>
<path fill="none" stroke="#000000" stroke-width="2" d="M137.794,66.507l-17.098,8.549"/>
<path fill="none" stroke="#000000" stroke-width="2" d="M137.794,69.405l-17.098,8.548"/>
<path fill="none" stroke="#000000" stroke-width="2" d="M137.794,63.754l-17.098,8.549"/>
<path fill="none" stroke="#000000" stroke-width="2" d="M137.794,60.856l-17.098,8.549"/>
<path fill="none" stroke="#000000" stroke-width="2" d="M137.794,55.205l-17.098,8.549"/>
<path fill="none" stroke="#000000" stroke-width="2" d="M137.794,57.958l-17.098,8.549"/>
<path fill="none" stroke="#000000" stroke-width="2" d="M137.794,52.307l-17.098,8.549"/>
<path fill="none" stroke="#000000" stroke-width="2" d="M137.794,49.409l-17.098,8.549"/>
<path fill="none" stroke="#000000" stroke-width="2" d="M137.794,43.759l-17.098,8.549"/>
<path fill="none" stroke="#000000" stroke-width="2" d="M137.794,46.656l-17.098,8.549"/>
<path fill="none" stroke="#000000" stroke-width="2" d="M137.794,41.006l-17.098,8.549"/>
<path fill="none" stroke="#000000" stroke-width="2" d="M137.794,37.963l-17.098,8.693"/>
<path fill="none" stroke="#000000" stroke-width="2" d="M137.794,32.312l-17.098,8.693"/>
<path fill="none" stroke="#000000" stroke-width="2" d="M137.794,35.21l-17.098,8.549"/>
<path fill="none" stroke="#000000" stroke-width="2" d="M137.794,29.558l-17.098,8.549"/>
<path fill="none" stroke="#000000" stroke-width="2" d="M137.794,26.661l-17.098,8.549"/>
<path fill="none" stroke="#000000" stroke-width="2" d="M137.794,21.01l-17.098,8.548"/>
<path fill="none" stroke="#000000" stroke-width="2" d="M137.794,23.908l-17.098,8.549"/>
<path fill="none" stroke="#000000" stroke-width="2" d="M137.794,18.258l-17.098,8.548"/>
<path fill="#669966" d="M81.285,21.155h8.114v76.794h-8.114V21.155z"/>
<path fill="#669966" d="M32.456,21.155h8.114v76.794h-8.114V21.155z"/>
<path fill="#669966" d="M56.943,21.155h7.97v76.794h-7.97V21.155z"/>
<path fill="#3F7F3F" d="M133.302,15.504l1.594-1.014v76.794l-1.594,1.014V15.504z"/>
<path fill="#3F7F3F" d="M123.449,21.155l1.739-1.015v76.794l-1.739,1.015V21.155z"/>
<path fill="#3F7F3F" d="M128.376,18.258l1.594-0.87v76.794l-1.594,0.869V18.258z"/>
<path fill="#669966" stroke="#000000" stroke-width="2" d="M48.394,11.737l-9.708-2.028l9.708-2.029l24.487-0.724l23.763,0.724
	l9.853,2.029l-9.853,2.028l-23.763,0.869L48.394,11.737z"/>
</svg>
