<?xml version="1.0" encoding="utf-8"?>
<!-- Generator: Adobe Illustrator 14.0.0, SVG Export Plug-In . SVG Version: 6.00 Build 43363)  -->
<!DOCTYPE svg PUBLIC "-//W3C//DTD SVG 1.1//EN" "http://www.w3.org/Graphics/SVG/1.1/DTD/svg11.dtd">
<svg version="1.1" id="图层_1" xmlns="http://www.w3.org/2000/svg" xmlns:xlink="http://www.w3.org/1999/xlink" x="0px" y="0px"
	 width="55.008px" height="106.502px" viewBox="0 0 55.008 106.502" enable-background="new 0 0 55.008 106.502"
	 xml:space="preserve">
<path fill="#CCCCCC" d="M37.099,86.991l-3.412,0.746H21.214l-3.411-0.746l-2.985-1.813l-2.665-2.451l-1.812-3.198l-0.747-3.412
	V52.026l-4.477-4.478h44.667l-4.371,4.478v24.092l-1.065,3.412l-1.813,3.198l-2.452,2.451L37.099,86.991z"/>
<path stroke="#000000" stroke-width="2" d="M31.022,103.089l-1.386,0.319h-4.584l-1.173-0.319l-1.279-0.64l-0.959-0.96l-0.64-1.279
	l-0.32-1.386V87.738h13.433v11.087l-0.427,1.386l-0.533,1.279l-1.065,0.96L31.022,103.089z"/>
<path fill="#666666" d="M5.117,31.877h44.667v15.671H5.117V31.877z"/>
<path fill="none" stroke="#999999" stroke-width="2" d="M5.117,47.548l44.667-2.133v-2.238L5.117,45.415v-2.238l44.667-2.238v-2.239
	L5.117,40.939v-2.239l44.667-2.238v-2.133L5.117,36.461v-2.133l44.667-2.451"/>
<path fill="none" stroke="#000000" stroke-width="2" d="M5.117,31.877h44.667v15.671H5.117V31.877"/>
<path fill="none" stroke="#000000" stroke-width="2" d="M37.099,86.991l-3.412,0.746H21.214l-3.411-0.746l-2.985-1.813l-2.665-2.451
	l-1.812-3.198l-0.747-3.412V52.026l-4.477-4.478h44.667l-4.371,4.478v24.092l-1.065,3.412l-1.813,3.198l-2.452,2.451L37.099,86.991"
	/>
<path fill="#E5E5E5" d="M35.073,84.753l-2.558,0.853H22.387l-2.771-0.853l-2.452-1.6l-1.919-2.238l-1.386-2.559l-0.853-2.985V53.837
	l-3.412-4.051h35.819l-3.73,4.051v21.534l-0.747,2.985l-1.386,2.559l-2.025,2.238L35.073,84.753z"/>
<path fill="#999999" d="M20.681,84.539V78.89h-4.477v-2.133h22.28v2.133h-4.371v5.649H20.681z"/>
<path fill="#B2B232" d="M16.204,76.757l2.238-2.238V54.37l1.173-4.584h15.671l1.065,4.584v20.148l2.133,2.238H16.204z"/>
<path fill="#CCCC4C" d="M19.615,76.757l1.599-2.238V55.223l0.854-4.264h10.873l0.746,4.264v19.296l1.6,2.238H19.615z"/>
<path d="M2.985,31.877h49.038V7.358l-1.279-2.238l-3.197-2.132H7.356L3.945,5.119l-0.96,2.238V31.877z"/>
<path fill="#191919" d="M6.183,31.877h42.429V7.358l-0.853-2.238l-2.985-2.132H10.021L7.143,5.119l-0.96,2.238V31.877z"/>
<path fill="#333333" d="M11.727,31.877h31.448V7.358l-0.853-2.238l-2.239-2.132H14.605l-2.238,2.132l-0.64,2.238V31.877z"/>
<path fill="#191919" d="M2.985,31.877h17.696l2.133-24.52l-0.96-2.238l-3.411-2.132H7.356L3.945,5.119l-0.96,2.238V31.877z"/>
<path d="M2.985,31.877h10.98V7.358l-0.959-2.238l-2.879-2.132H6.503L3.731,5.119L2.985,7.358V31.877z"/>
<path fill="none" stroke="#000000" stroke-width="2" d="M2.985,31.877h49.038V7.358l-1.279-2.238l-3.197-2.132H7.356L3.945,5.119
	l-0.96,2.238V31.877"/>
<ellipse fill="#CC9933" cx="7.782" cy="15.247" rx="2.665" ry="8.848"/>
<path fill="none" stroke="#999999" stroke-width="2" d="M13.965,31.877V7.358l-0.959-2.238l-2.879-2.132"/>
<ellipse fill="#B27F19" cx="8.954" cy="15.247" rx="1.6" ry="5.437"/>
<path fill="#FFFFFF" d="M26.225,86.779l-4.371-5.65l-1.173-11.193v-7.676l1.173,10.021l1.173,8.848L26.225,86.779z"/>
</svg>
