<?xml version="1.0" encoding="utf-8"?>
<!-- Generator: Adobe Illustrator 14.0.0, SVG Export Plug-In . SVG Version: 6.00 Build 43363)  -->
<!DOCTYPE svg PUBLIC "-//W3C//DTD SVG 1.1//EN" "http://www.w3.org/Graphics/SVG/1.1/DTD/svg11.dtd">
<svg version="1.1" id="图层_1" xmlns="http://www.w3.org/2000/svg" xmlns:xlink="http://www.w3.org/1999/xlink" x="0px" y="0px"
	 width="106.502px" height="106.502px" viewBox="0 0 106.502 106.502" enable-background="new 0 0 106.502 106.502"
	 xml:space="preserve">
<path fill="#CCCCCC" d="M77.292,9.168h9.274v25.16h-9.274V9.168z"/>
<path fill="#C7C7C7" d="M77.292,20.256l9.274-2.026v16.099h-9.274V20.256z"/>
<path fill="#C2C2C2" d="M77.292,21.642l9.274-2.239v14.926h-9.274V21.642z"/>
<path fill="#BDBDBD" d="M77.292,22.815l9.274-2.026v13.54h-9.274V22.815z"/>
<path fill="none" stroke="#000000" stroke-width="2" d="M77.292,9.168h9.274v25.16h-9.274V9.168"/>
<path fill="#B2B2B2" d="M2.985,34.328h2.026v-4.265h2.132v4.265h92.111v-4.265h2.025v4.265h2.132v64.925h-2.132v4.157h-2.025v-4.157
	H7.143v4.157H5.011v-4.157H2.985V34.328z"/>
<path fill="#B8B8B8" d="M2.985,36.354h2.026v-4.051h2.132v4.051h92.111v-4.051h2.132v4.051h2.025v60.874h-2.025v4.051h-2.132v-4.051
	H7.143v4.051H5.011v-4.051H2.985V36.354z"/>
<path fill="#BDBDBD" d="M2.985,38.166h2.026v-3.625h2.132v3.625h92.111v-3.625h2.132v3.625h2.025v57.035h-2.025v3.838h-2.132v-3.838
	H7.143v3.838H5.011v-3.838H2.985V38.166z"/>
<path fill="#C2C2C2" d="M2.985,40.192h2.026v-3.519h2.132v3.519h92.111v-3.519h2.132v3.519h2.025V93.39h-2.025v3.411h-2.132V93.39
	H7.143v3.411H5.011V93.39H2.985V40.192z"/>
<path fill="#C4C4C4" d="M2.985,42.111h2.026v-3.198h2.132v3.198h92.111v-3.198h2.132v3.198h2.025v49.253h-2.025v3.198h-2.132v-3.198
	H7.143v3.198H5.011v-3.198H2.985V42.111z"/>
<path fill="#C9C9C9" d="M2.985,43.923h2.026v-2.772h2.132v2.772h92.111v-2.772h2.132v2.772h2.025v45.629h-2.025v2.878h-2.132v-2.878
	H7.143v2.878H5.011v-2.878H2.985V43.923z"/>
<path fill="#CFCFCF" d="M2.985,45.948h2.026V43.39h2.132v2.559h92.111V43.39h2.132v2.559h2.025v41.577h-2.025v2.666h-2.132v-2.666
	H7.143v2.666H5.011v-2.666H2.985V45.948z"/>
<path fill="#D4D4D4" d="M2.985,47.974h2.026v-2.559h2.132v2.559h92.111v-2.559h2.132v2.559h2.025v37.633h-2.025v2.346h-2.132v-2.346
	H7.143v2.346H5.011v-2.346H2.985V47.974z"/>
<path fill="#D9D9D9" d="M2.985,49.786h2.026v-2.239h2.132v2.239h92.111v-2.239h2.132v2.239h2.025v33.901h-2.025v2.239h-2.132v-2.239
	H7.143v2.239H5.011v-2.239H2.985V49.786z"/>
<path fill="#DEDEDE" d="M2.985,51.812h2.026v-2.025h2.132v2.025h92.111v-2.025h2.132v2.025h2.025v29.957h-2.025v1.919h-2.132v-1.919
	H7.143v1.919H5.011v-1.919H2.985V51.812z"/>
<path fill="#E3E3E3" d="M2.985,53.731h2.026v-1.705h2.132v1.705h92.111v-1.705h2.132v1.705h2.025v26.013h-2.025v1.813h-2.132v-1.813
	H7.143v1.813H5.011v-1.813H2.985V53.731z"/>
<path fill="#E8E8E8" d="M2.985,55.65h2.026v-1.386h2.132v1.386h92.111v-1.386h2.132v1.386h2.025v22.281h-2.025v1.386h-2.132v-1.386
	H7.143v1.386H5.011v-1.386H2.985V55.65z"/>
<path fill="#EBEBEB" d="M2.985,57.675h2.026v-1.279h2.132v1.279h92.111v-1.279h2.132v1.279h2.025v18.23h-2.025v1.173h-2.132v-1.173
	H7.143v1.173H5.011v-1.173H2.985V57.675z"/>
<path fill="#F0F0F0" d="M2.985,59.594h2.026v-0.959h2.132v0.959h92.111v-0.959h2.132v0.959h2.025V73.88h-2.025v1.066h-2.132V73.88
	H7.143v1.066H5.011V73.88H2.985V59.594z"/>
<path fill="#F5F5F5" d="M2.985,61.406h2.026v-0.533h2.132v0.533h92.111v-0.533h2.132v0.533h2.025v10.661h-2.025v0.64h-2.132v-0.64
	H7.143v0.64H5.011v-0.64H2.985V61.406z"/>
<path fill="#FAFAFA" d="M2.985,63.432h2.026v-0.426h2.132v0.426h92.111v-0.426h2.132v0.426h2.025v6.61h-2.025v0.427h-2.132v-0.427
	H7.143v0.427H5.011v-0.427H2.985V63.432z"/>
<path fill="#FFFFFF" d="M2.985,65.458h2.026v-0.214h2.132v0.214h92.111v-0.214h2.025v0.214h2.132v2.771h-2.132h-2.025H7.143H5.011
	H2.985V65.458z"/>
<path fill="none" stroke="#000000" stroke-width="2" d="M2.985,34.328h2.026v-4.265h2.132v4.265h92.111v-4.265h2.025v4.265h2.132
	v64.925h-2.132v4.157h-2.025v-4.157H7.143v4.157H5.011v-4.157H2.985V34.328"/>
<path fill="none" stroke="#7F7F7F" stroke-width="2" d="M5.011,99.253V34.328"/>
<path fill="none" stroke="#7F7F7F" stroke-width="2" d="M7.143,99.253V34.328"/>
<path fill="none" stroke="#7F7F7F" stroke-width="2" d="M99.253,99.253V34.328"/>
<path fill="none" stroke="#7F7F7F" stroke-width="2" d="M101.279,99.253V34.328"/>
<path fill="#CCCCCC" stroke="#000000" stroke-width="2" d="M11.194,88.165h3.838v-4.051h-3.838V88.165z"/>
<path fill="#CCCCCC" stroke="#000000" stroke-width="2" d="M94.989,88.165h-3.625v-4.051h3.625V88.165z"/>
<path fill="#CCCCCC" stroke="#000000" stroke-width="2" d="M94.989,43.709h-3.625v4.265h3.625V43.709z"/>
<path fill="#CCCCCC" stroke="#000000" stroke-width="2" d="M11.194,43.709h3.838v4.265h-3.838V43.709z"/>
<path fill="#B2B2B2" stroke="#000000" stroke-width="2" d="M11.194,88.165h2.666v3.198h-2.026L11.194,88.165z"/>
<path fill="#B2B2B2" stroke="#000000" stroke-width="2" d="M94.989,88.165H92.43v3.198h2.025L94.989,88.165z"/>
<path fill="#B2B2B2" stroke="#000000" stroke-width="2" d="M94.989,43.709H92.43v-3.198h2.025L94.989,43.709z"/>
<path fill="#B2B2B2" stroke="#000000" stroke-width="2" d="M11.194,43.709h2.666v-3.198h-2.026L11.194,43.709z"/>
<path fill="#CCCCCC" d="M44.776,31.343h33.581v7.782H44.776V31.343z"/>
<path fill="#C7C7C7" d="M44.776,35.501l33.581-3.198v6.822H44.776V35.501z"/>
<path fill="#C2C2C2" d="M44.776,37.1l33.581-3.198v5.224H44.776V37.1z"/>
<path fill="#BDBDBD" d="M44.776,38.166l33.581-3.305v4.264H44.776V38.166z"/>
<path fill="none" stroke="#000000" stroke-width="2" d="M44.776,31.343h33.581v7.782H44.776V31.343"/>
<path fill="#CCCCCC" stroke="#000000" stroke-width="2" d="M45.735,23.24h2.239v8.103h-2.239V23.24z"/>
<path fill="#CCCCCC" stroke="#000000" stroke-width="2" d="M75.052,23.24h2.239v8.103h-2.239V23.24z"/>
<path fill="#CCCCCC" stroke="#000000" stroke-width="2" d="M47.974,27.078h27.078v0.96H47.974V27.078z"/>
<path fill="#CCCCCC" stroke="#000000" stroke-width="2" d="M47.974,24.413h27.078v0.427H47.974V24.413z"/>
<path fill="#6699FF" stroke="#000000" stroke-width="2" d="M47.974,22.815h27.078v1.599H47.974V22.815z"/>
<path fill="#00197F" d="M47.974,21.215h27.078v1.6H47.974V21.215z"/>
<path fill="#194CB2" d="M47.334,5.543h28.358v15.672H47.334V5.543z"/>
<path fill="none" stroke="#000000" stroke-width="2" d="M66.097,5.543l-0.853-0.853V3.732l0.853-0.747h0.96l0.853,0.747v0.959
	l-0.853,0.853H66.097"/>
<path fill="#2659BF" d="M47.334,6.61h28.358v13.433H47.334V6.61z"/>
<path fill="#3366CC" d="M47.334,7.782h28.358v11.301H47.334V7.782z"/>
<path fill="#4073D9" d="M47.334,8.955h28.358v8.849H47.334V8.955z"/>
<path fill="#4C7FE5" d="M47.334,10.021h28.358v6.61H47.334V10.021z"/>
<path fill="#598CF2" d="M47.334,11.194h28.358v4.371H47.334V11.194z"/>
<path fill="#6699FF" d="M47.334,12.366h28.358v2.025H47.334V12.366z"/>
<path fill="#194CB2" stroke="#000000" stroke-width="2" d="M57.355,5.543h16.738v11.088H57.355V5.543z"/>
<path fill="none" stroke="#000000" stroke-width="2" d="M47.334,5.543h28.358v15.672H47.334V5.543"/>
<path fill="none" stroke="#000000" stroke-width="2" d="M57.355,6.61h16.738"/>
<path fill="none" stroke="#000000" stroke-width="2" d="M74.093,8.316H57.355"/>
<path fill="none" stroke="#000000" stroke-width="2" d="M57.355,10.021h16.738"/>
<path fill="none" stroke="#000000" stroke-width="2" d="M74.093,11.62H57.355"/>
<path fill="none" stroke="#000000" stroke-width="2" d="M57.355,13.22h16.738"/>
<path fill="none" stroke="#000000" stroke-width="2" d="M74.093,15.031H57.355"/>
<path fill="#6699FF" d="M61.407,11.407h8.423v8.209h-8.423V11.407z"/>
<path fill="none" stroke="#B2CCFF" stroke-width="2" d="M61.407,19.616v-8.209h8.423"/>
<path fill="none" stroke="#003399" stroke-width="2" d="M61.407,19.616h8.423v-8.209"/>
</svg>
