<?xml version="1.0" encoding="utf-8"?>
<!-- Generator: Adobe Illustrator 14.0.0, SVG Export Plug-In . SVG Version: 6.00 Build 43363)  -->
<!DOCTYPE svg PUBLIC "-//W3C//DTD SVG 1.1//EN" "http://www.w3.org/Graphics/SVG/1.1/DTD/svg11.dtd">
<svg version="1.1" id="图层_1" xmlns="http://www.w3.org/2000/svg" xmlns:xlink="http://www.w3.org/1999/xlink" x="0px" y="0px"
	 width="144.749px" height="79.402px" viewBox="0 0 144.749 79.402" enable-background="new 0 0 144.749 79.402"
	 xml:space="preserve">
<path fill="#727F7F" d="M35.064,63.029H16.373V50.568H4.057V19.56h12.315V7.099h18.691V19.56h74.476V7.099h18.691V19.56h12.315
	v31.008h-12.315v12.461H109.54V50.568H35.064V63.029z"/>
<path fill="#879494" d="M35.064,58.247H16.518V47.96H4.057V22.024h12.461V11.736h18.546v10.288h74.476V11.736h18.691v10.288h12.315
	V47.96h-12.315v10.287H109.54V47.96H35.064V58.247z"/>
<path fill="#9EA8A8" d="M35.064,53.61H16.518v-8.259H4.057v-20.72h12.461v-8.259h18.546v8.259h74.476v-8.259h18.691v8.259h12.315
	v20.72h-12.315v8.259H109.54v-8.259H35.064V53.61z"/>
<path fill="#B3BDBD" d="M35.064,48.974H16.518v-6.23H4.057V27.24h12.461v-6.23h18.546v6.23h74.476v-6.23h18.691v6.23h12.315v15.504
	h-12.315v6.23H109.54v-6.23H35.064V48.974z"/>
<path fill="#C9D1D1" d="M35.064,44.192H16.518v-4.057H4.057V29.848h12.461v-4.202h18.546v4.202h74.476v-4.202h18.691v4.202h12.315
	v10.287h-12.315v4.057H109.54v-4.057H35.064V44.192z"/>
<path fill="#DDE5E5" d="M35.064,39.556H16.373v-2.029H4.057v-5.071h12.315v-2.028h18.691v2.028h74.476v-2.028h18.691v2.028h12.315
	v5.071h-12.315v2.029H109.54v-2.029H35.064V39.556z"/>
<path fill="none" stroke="#000000" stroke-width="2" d="M35.064,63.029H16.373V50.568H4.057V19.56h12.315V7.099h18.691V19.56h74.476
	V7.099h18.691V19.56h12.315v31.008h-12.315v12.461H109.54V50.568H35.064V63.029"/>
<path fill="none" stroke="#000000" stroke-width="2" d="M16.373,50.568V19.56"/>
<path fill="none" stroke="#000000" stroke-width="2" d="M128.231,50.568V19.56"/>
<path fill="#7A9999" stroke="#000000" stroke-width="2" d="M35.064,13.185h74.476v43.613H35.064V13.185z"/>
<path fill="#BDCCCC" stroke="#000000" stroke-width="2" d="M35.064,16.373h74.476V53.61H35.064V16.373z"/>
<path fill="#003333" d="M41.295,56.799l12.316,9.272h37.382l12.316-9.272H41.295z"/>
<path fill="#9BB2B2" stroke="#000000" stroke-width="2" d="M103.309,13.33L90.993,4.057H53.611L41.295,13.33H103.309z"/>
<path fill="none" stroke="#FFFFFF" stroke-width="2" d="M50.568,13.33l6.23-6.23h31.007"/>
<path fill="#597F7F" stroke="#000000" stroke-width="2" d="M87.805,75.344v-3.043h3.188V56.799h6.086v15.503h3.188v3.043H87.805z"/>
<path fill="#597F7F" stroke="#000000" stroke-width="2" d="M44.338,75.344v-3.043h3.188V56.799h6.086v15.503h3.188v3.043H44.338z"/>
<path fill="#597F7F" d="M35.064,16.373h74.476v3.188H35.064V16.373z"/>
<path fill="#324C4C" d="M41.295,16.373h6.23V53.61h-6.23V16.373z"/>
<path fill="#324C4C" d="M50.568,16.373h6.23V53.61h-6.23V16.373z"/>
<path fill="#324C4C" d="M59.842,16.373h6.23V53.61h-6.23V16.373z"/>
<path fill="#324C4C" d="M69.26,16.373h6.23V53.61h-6.23V16.373z"/>
<path fill="#324C4C" d="M78.532,16.373h6.23V53.61h-6.23V16.373z"/>
<path fill="#324C4C" d="M87.805,16.373h6.23V53.61h-6.23V16.373z"/>
<path fill="#324C4C" d="M97.079,16.373h6.23V53.61h-6.23V16.373z"/>
</svg>
