<?xml version="1.0" encoding="utf-8"?>
<!-- Generator: Adobe Illustrator 14.0.0, SVG Export Plug-In . SVG Version: 6.00 Build 43363)  -->
<!DOCTYPE svg PUBLIC "-//W3C//DTD SVG 1.1//EN" "http://www.w3.org/Graphics/SVG/1.1/DTD/svg11.dtd">
<svg version="1.1" id="图层_1" xmlns="http://www.w3.org/2000/svg" xmlns:xlink="http://www.w3.org/1999/xlink" x="0px" y="0px"
	 width="89.337px" height="106.502px" viewBox="0 0 89.337 106.502" enable-background="new 0 0 89.337 106.502"
	 xml:space="preserve">
<path fill="#324C7F" stroke="#000000" stroke-width="2" d="M12.793,102.238l13.433-33.155h44.242l13.539,33.155h2.346v1.173H78.89
	l-2.346-4.798H20.255l-2.665,4.798h-7.25v-1.173H12.793z"/>
<path fill="#98B2E5" stroke="#000000" stroke-width="2" d="M6.61,49.573l0.106,3.944l0.64,3.944l0.959,3.731l1.386,3.518L11.3,68.23
	l2.026,3.198l2.239,2.985l2.559,2.771l2.771,2.665l3.092,2.239l3.198,1.919l3.412,1.705l3.625,1.279l3.838,1.066l3.944,0.533
	l1.919,0.213h2.026h2.025l3.944-0.427l3.838-0.853l3.625-1.066l3.519-1.599l3.305-1.813l3.197-2.025l2.879-2.452l2.665-2.665
	l2.452-2.985l2.025-3.092l1.813-3.305l1.6-3.518l1.065-3.731l0.853-3.731l0.427-3.944v-2.025v-2.025l-0.427-3.945l-0.853-3.73
	l-1.065-3.731l-1.6-3.519l-1.813-3.305l-2.025-3.092l-2.452-2.984l-2.665-2.666l-2.879-2.345l-3.197-2.133l-3.305-1.812
	l-3.519-1.493l-3.625-1.173l-3.838-0.746l-3.944-0.426h-3.305l-3.198,0.319l-3.198,0.64l-2.346,0.746l0.213-6.822H6.61V49.573z"/>
<path fill="#7F99CC" d="M9.168,49.36l0.213,3.731l0.533,3.731l0.959,3.519l1.173,3.411l1.599,3.198l1.812,2.985l2.132,2.878
	l2.345,2.559l2.559,2.346l2.878,2.132l3.092,1.813l3.198,1.599l3.305,1.279l3.625,0.854l3.625,0.533l1.919,0.213h1.813h1.919
	l3.624-0.427l3.625-0.746l3.412-1.066l3.305-1.386l3.092-1.705l2.984-1.919l2.666-2.346l2.559-2.452l2.238-2.665l2.025-2.985
	l1.705-3.092l1.387-3.305l1.066-3.518l0.746-3.519l0.426-3.731V49.36v-1.919l-0.426-3.624l-0.746-3.625l-1.066-3.518l-1.387-3.198
	l-1.705-3.198l-2.025-2.879l-2.238-2.771l-2.559-2.452l-2.666-2.239l-2.984-2.025l-3.092-1.705l-3.305-1.387l-3.412-1.065
	l-3.625-0.746l-3.624-0.427l-3.198,0.106l-3.198,0.427l-3.518,0.746l-3.092,0.853l-1.173,0.533V7.996H9.168V49.36z"/>
<path fill="#98B2E5" d="M49.573,87.632h-2.346V11.62h2.346V87.632z"/>
<path fill="#98B2E5" d="M81.556,62.046l-1.174,2.239L7.996,10.341l1.173-2.238L81.556,62.046z"/>
<path fill="#98B2E5" d="M74.093,25.267l1.492,2.238L12.793,65.458l-1.173-2.239L74.093,25.267z"/>
<path fill="#7F99CC" stroke="#4C6699" stroke-width="2" d="M56.822,62.686l-5.65,1.6h-5.65l-5.543-1.6l-5.117-2.878l-4.158-4.052
	l-2.878-5.117l-1.599-5.543v-5.757l1.599-5.65l2.878-5.011l4.158-4.265l5.117-2.771l5.437-1.386h5.757l5.65,1.386l5.011,2.771
	l4.264,4.265l2.771,5.011l1.6,5.65l-0.213,5.757l-1.387,5.543l-2.771,5.011l-4.264,4.158L56.822,62.686z"/>
<path fill="#B2CCFF" stroke="#000000" stroke-width="2" d="M55.756,60.448l-4.798,1.386h-5.223l-5.011-1.386l-4.371-2.665
	l-3.625-3.519l-2.665-4.478l-1.386-5.011v-5.224l1.386-5.011l2.665-4.478l3.625-3.624l4.371-2.559l5.011-1.279h5.223l5.117,1.279
	l4.371,2.559l3.625,3.624l2.666,4.691l1.172,4.797v5.224l-1.172,5.011l-2.666,4.478l-3.625,3.519L55.756,60.448z"/>
<path fill="#324C7F" d="M55.01,58.208l-4.371,1.173h-4.478l-4.371-1.173l-3.838-2.452l-3.198-2.984l-2.452-3.944l-1.173-4.478
	l0.107-4.371l1.066-4.478l2.452-3.838l2.985-3.198l4.051-2.239l4.371-1.173h4.478l4.371,0.96l3.838,2.452l3.198,3.198l2.238,3.838
	l1.174,4.478v4.371l-0.96,4.478l-2.452,3.944l-3.198,3.198L55.01,58.208z"/>
<path fill="#98B2E5" stroke="#000000" stroke-width="2" d="M2.985,2.986h36.78v2.346H2.985V2.986z"/>
</svg>
