<?xml version="1.0" encoding="utf-8"?>
<!-- Generator: Adobe Illustrator 14.0.0, SVG Export Plug-In . SVG Version: 6.00 Build 43363)  -->
<!DOCTYPE svg PUBLIC "-//W3C//DTD SVG 1.1//EN" "http://www.w3.org/Graphics/SVG/1.1/DTD/svg11.dtd">
<svg version="1.1" id="图层_1" xmlns="http://www.w3.org/2000/svg" xmlns:xlink="http://www.w3.org/1999/xlink" x="0px" y="0px"
	 width="81.338px" height="106.502px" viewBox="0 0 81.338 106.502" enable-background="new 0 0 81.338 106.502"
	 xml:space="preserve">
<path fill="#B2B2B2" stroke="#000000" stroke-width="2" d="M13.432,55.223h45.946v46.16H13.432V55.223z"/>
<path fill="#CCCCCC" stroke="#000000" stroke-width="2" d="M59.378,53.198h1.066v50.211h-1.066V53.198z"/>
<path fill="#CCCCCC" stroke="#000000" stroke-width="2" d="M12.366,53.198h1.066v50.211h-1.066V53.198z"/>
<path fill="#CCCCCC" stroke="#000000" stroke-width="2" d="M35.286,78.463v16.523h3.625V78.463H35.286z"/>
<path fill="#CCCCCC" stroke="#000000" stroke-width="2" d="M37.098,16.633L35.925,6.399H73.45l-1.919,10.234v34.326l-0.213,3.518
	l-0.533,3.412l-0.854,3.305l-1.172,3.091l-1.386,2.985l-1.813,2.878l-1.919,2.559l-2.238,2.452l-2.452,2.238l-2.665,1.919
	l-2.771,1.706l-3.092,1.492l-3.092,1.066l-3.305,0.853l-3.411,0.533l-1.706,0.106l-1.812,0.106l-1.706-0.106l-3.411-0.32
	l-3.305-0.64l-3.198-1.065l-3.091-1.279l-2.878-1.6l-2.771-1.812l-2.559-2.133l-2.239-2.238l-2.132-2.559l-1.813-2.771l-1.599-2.879
	L5.01,62.792l-0.959-3.305l-0.64-3.305l-0.426-3.411v-1.813v-0.853l0.213-3.519l0.64-3.305l0.959-3.305l1.172-3.091l1.493-2.985
	l1.812-2.771l2.025-2.665l2.345-2.346l2.452-2.132l2.665-1.919l2.878-1.599l3.091-1.386l3.198-1.066l3.198-0.853l3.411-0.427
	L37.098,16.633z"/>
<path fill="#B2B2B2" d="M78.353,6.399H30.275V2.988h48.078V6.399z"/>
<path fill="#999999" stroke="#000000" stroke-width="2" d="M9.168,101.383h54.474v2.025H9.168V101.383z"/>
<path fill="#CCCCCC" d="M72.277,6.399H36.565V2.988h35.712V6.399z"/>
<path fill="#E5E5E5" d="M65.88,6.399H42.748V2.988H65.88V6.399z"/>
<path fill="#FFFFFF" d="M57.459,6.399h-6.29V2.988h6.29V6.399z"/>
<path fill="none" stroke="#000000" stroke-width="2" d="M78.353,6.399H30.275V2.988h48.078V6.399"/>
<path fill="#E5E5E5" d="M66.626,50.959L66.84,7.784H42.748v14.072l-2.984-0.32l-4.158-0.106l-2.985,0.32l-2.771,0.64l-2.772,0.853
	l-2.665,1.173l-2.452,1.279l-2.345,1.599l-2.132,1.813l-2.025,2.025l-1.813,2.238l-1.599,2.346l-1.386,2.452l-1.066,2.665
	l-0.853,2.771l-0.64,2.878l-0.32,2.985v1.492v1.492l0.32,2.985l0.64,2.878l0.853,2.771l1.066,2.665l1.386,2.452l1.599,2.346
	l1.813,2.238l2.025,1.919l2.132,1.813l2.345,1.599l2.452,1.279l2.665,1.173l2.772,0.853l2.771,0.533l2.985,0.32h1.493h1.492
	l2.985-0.32l2.878-0.533l2.771-0.853l2.665-1.173l2.559-1.279l2.346-1.599l2.132-1.813l2.985-2.985l1.705-2.238l1.492-2.452
	l1.279-2.559l0.959-2.771l0.747-2.771l0.427-2.878L66.626,50.959z"/>
<path fill="none" stroke="#7F7F7F" stroke-width="2" d="M57.992,30.065l1.92,2.132l1.705,2.346l1.492,2.452l1.279,2.665l0.959,2.665
	l0.747,2.878l0.427,2.879l0.105,1.386v1.492v1.492l-0.319,2.985l-0.64,2.878l-0.853,2.771l-1.065,2.665l-1.387,2.452l-1.599,2.346
	l-1.813,2.238l-3.091,2.878l-2.239,1.706l-2.452,1.386l-2.559,1.279l-2.664,0.96l-2.879,0.746l-2.985,0.426l-1.493,0.107h-1.492
	h-1.386l-2.878-0.32l-2.772-0.533l-2.771-0.853l-2.665-1.066l-2.559-1.279l-2.345-1.599l-2.239-1.813l-1.066-0.959"/>
<path fill="#CCCCCC" stroke="#000000" stroke-width="2" d="M35.286,78.463V23.242h3.625v55.221H35.286z"/>
<path fill="#CCCCCC" stroke="#000000" stroke-width="2" d="M9.381,48.934h55.22v3.838H9.381V48.934z"/>
<circle fill="#A6A6A6" stroke="#000000" stroke-width="2" cx="37.205" cy="50.853" r="20.574"/>
<circle fill="#666666" stroke="#000000" stroke-width="2" cx="37.205" cy="50.853" r="13.112"/>
<path fill="#999999" d="M33.474,62.472l6.29-23.346l1.813,0.64l-6.29,23.239L33.474,62.472z"/>
<path fill="#999999" d="M29.529,41.898l17.056,17.163l-1.279,1.173L28.25,43.177L29.529,41.898z"/>
<path fill="#999999" d="M25.478,53.411l23.453-6.29l0.426,1.813l-23.239,6.289L25.478,53.411z"/>
<circle fill="#666666" stroke="#000000" stroke-width="2" cx="37.205" cy="50.853" r="3.092"/>
<path fill="none" stroke="#7F7F7F" stroke-width="2" d="M9.381,34.115l1.599,0.96l-0.959,1.599l-1.599-0.959L9.381,34.115"/>
<path fill="none" stroke="#7F7F7F" stroke-width="2" d="M21.427,22.603l1.066,1.706l-1.599,0.959l-1.066-1.813L21.427,22.603"/>
<path fill="none" stroke="#7F7F7F" stroke-width="2" d="M37.738,18.658v2.025h-1.813v-2.025H37.738"/>
<path fill="none" stroke="#7F7F7F" stroke-width="2" d="M38.164,10.449V8.211h1.919v2.238H38.164"/>
<path fill="none" stroke="#7F7F7F" stroke-width="2" d="M20.042,78.676l0.959-1.599l1.599,1.065l-0.959,1.6L20.042,78.676"/>
<path fill="none" stroke="#7F7F7F" stroke-width="2" d="M8.422,66.63l1.812-0.96l0.746,1.6l-1.599,0.959L8.422,66.63"/>
<path fill="none" stroke="#7F7F7F" stroke-width="2" d="M4.584,50.213h1.812v2.025H4.584V50.213"/>
<path fill="none" stroke="#7F7F7F" stroke-width="2" d="M36.139,83.58v-1.813h1.812v1.813H36.139"/>
<path fill="none" stroke="#7F7F7F" stroke-width="2" d="M52.342,79.529l-0.746-1.599l1.599-0.853l0.854,1.599L52.342,79.529"/>
<path fill="none" stroke="#7F7F7F" stroke-width="2" d="M64.601,68.016l-1.599-0.96l0.853-1.599l1.813,0.959L64.601,68.016"/>
<path fill="none" stroke="#7F7F7F" stroke-width="2" d="M69.505,52.026H67.48V50h2.025V52.026"/>
<path fill="none" stroke="#7F7F7F" stroke-width="2" d="M68.866,8.211h2.025v2.025h-2.025V8.211"/>
<path fill="none" stroke="#7F7F7F" stroke-width="2" d="M67.906,20.897h1.92v1.919h-1.92V20.897"/>
<path fill="none" stroke="#7F7F7F" stroke-width="2" d="M67.906,34.329h1.92v2.238h-1.92V34.329"/>
<path fill="none" stroke="#FFFFFF" stroke-width="2" d="M16.417,71.64l-1.919-2.132l-1.706-2.238L11.3,64.711l-1.279-2.559
	l-0.959-2.665l-0.64-2.771l-0.533-2.879l-0.106-1.386v-1.492v-1.492l0.32-2.985l0.64-2.878l0.853-2.771l1.066-2.665l1.386-2.452
	l1.599-2.346l1.813-2.238l2.025-2.025l2.132-1.813l2.345-1.599l2.452-1.279l2.665-1.173l2.772-0.853l2.771-0.64l2.985-0.32h1.493
	h1.492l2.878,0.32l2.879,0.64l2.771,0.853l2.665,1.066l2.559,1.386l2.345,1.599l2.239,1.813l1.065,0.959"/>
<path fill="#4C4C4C" d="M52.128,86.671l-0.746-0.319l-0.213-0.746l0.213-0.64l0.746-0.32l0.747,0.32l0.319,0.64l-0.319,0.746
	L52.128,86.671z"/>
<path fill="#4C4C4C" d="M52.236,95.093l-0.746-0.319l-0.32-0.747l0.32-0.746l0.746-0.319l0.64,0.319l0.319,0.746l-0.319,0.747
	L52.236,95.093z"/>
</svg>
