<?xml version="1.0" encoding="utf-8"?>
<!-- Generator: Adobe Illustrator 14.0.0, SVG Export Plug-In . SVG Version: 6.00 Build 43363)  -->
<!DOCTYPE svg PUBLIC "-//W3C//DTD SVG 1.1//EN" "http://www.w3.org/Graphics/SVG/1.1/DTD/svg11.dtd">
<svg version="1.1" id="图层_1" xmlns="http://www.w3.org/2000/svg" xmlns:xlink="http://www.w3.org/1999/xlink" x="0px" y="0px"
	 width="88.164px" height="106.502px" viewBox="0 0 88.164 106.502" enable-background="new 0 0 88.164 106.502"
	 xml:space="preserve">
<path fill="#CCCCCC" stroke="#000000" stroke-width="2" d="M67.908,53.198H17.59v50.212h50.318V53.198z"/>
<path fill="#B2B2B2" stroke="#000000" stroke-width="2" d="M65.883,55.224H19.829v44.028h46.054V55.224z"/>
<path fill="#D9D9D9" stroke="#000000" stroke-width="2" d="M71.533,44.136h10.234V9.809H57.781H37.313l-3.519,0.106l-3.411,0.533
	l-3.198,0.853l-3.198,1.173l-2.985,1.492l-2.878,1.706l-2.665,2.025l-2.346,2.133l-2.238,2.451l-2.026,2.666l-1.705,2.878
	l-1.492,2.985l-1.173,3.198l-0.854,3.198l-0.532,3.518l-0.107,1.706v1.705v1.813l0.427,3.411l0.64,3.306l1.066,3.198l1.279,2.984
	l1.599,2.985l1.813,2.665l2.132,2.559l2.346,2.346l2.559,2.132l2.665,1.813l2.985,1.599l3.091,1.279l3.198,1.066l3.306,0.64
	L35.5,78.25l1.813,0.106h0.853l3.518-0.319l3.306-0.64l3.305-0.853l3.092-1.279l2.878-1.493l2.771-1.812l2.559-2.026l2.452-2.238
	l2.132-2.559l1.919-2.665l1.6-2.879l1.386-2.984l1.066-3.198L71,50.107l0.427-3.412L71.533,44.136z"/>
<path fill="#B2B2B2" d="M71.533,44.136h10.234V23.454l-20.362-3.411l1.173,1.173l1.173,1.279l0.959,1.279l0.96,1.279l0.959,1.386
	l0.854,1.492l0.746,1.492l0.64,1.493l0.64,1.599l0.533,1.6l0.426,1.705l0.32,1.6l0.319,1.706l0.214,1.599l0.106,1.706L71.533,44.136
	z"/>
<path fill="#CCCCCC" d="M85.179,50.959V2.986h-3.411v47.974H85.179z"/>
<path fill="#B2B2B2" d="M85.179,50.959V35.501h-3.411v15.458H85.179z"/>
<path fill="#E5E5E5" d="M85.179,13.22V2.986h-3.411V13.22H85.179z"/>
<path fill="none" stroke="#000000" stroke-width="2" d="M85.179,50.959V2.986h-3.411v47.974H85.179"/>
<path fill="#999999" stroke="#000000" stroke-width="2" d="M70.041,99.252h-54.37v4.157h54.37V99.252z"/>
<circle fill="#7F7F7F" stroke="#000000" stroke-width="2" cx="37.206" cy="44.03" r="27.398"/>
<circle fill="#B2B2B2" cx="37.206" cy="44.03" r="20.148"/>
<circle fill="#A6A6A6" cx="37.099" cy="44.03" r="18.017"/>
<circle fill="#999999" cx="36.886" cy="43.923" r="15.885"/>
<circle fill="#8C8C8C" cx="36.886" cy="44.03" r="13.859"/>
<circle fill="#7F7F7F" cx="36.673" cy="44.03" r="11.727"/>
<circle fill="#666666" stroke="#000000" stroke-width="2" cx="37.313" cy="44.03" r="10.234"/>
<path fill="#404040" d="M34.754,42.537l-5.224-2.771l0.64-1.066l0.746-0.853l0.959-0.854l0.96-0.64l0.959-0.533l1.173-0.319
	l1.173-0.32l1.173-0.106v6.077l-1.066,0.213l-0.959,0.64L34.754,42.537z"/>
<path fill="#404040" d="M38.698,41.365l3.092-5.011l0.853,0.64l0.959,0.746l0.64,0.96l0.64,0.959l0.533,1.066l0.427,1.066
	l0.213,1.172l0.106,1.173h-5.863l-0.213-1.279l-0.64-0.959L38.698,41.365z"/>
<path fill="#404040" d="M39.978,45.522l5.011,2.879l-0.747,0.959l-0.746,0.96l-0.853,0.746l-0.96,0.64l-1.065,0.533l-1.066,0.427
	l-1.065,0.213l-1.173,0.106v-5.863l1.065-0.32l1.066-0.64L39.978,45.522z"/>
<path fill="#404040" d="M35.713,46.801l-2.771,5.011l-1.066-0.64l-0.853-0.853l-0.853-0.853l-0.64-0.96l-0.533-1.066l-0.32-1.172
	l-0.213-1.066v-0.64v-0.64h5.863l0.213,1.279l0.64,1.066L35.713,46.801z"/>
<path fill="#4C4C4C" d="M38.165,68.869v-1.6h-1.813v1.6H38.165z"/>
<path fill="#4C4C4C" d="M15.031,44.136h-1.813v1.6h1.813V44.136z"/>
<path fill="#4C4C4C" d="M38.165,22.602v-1.706h-1.813v1.706H38.165z"/>
<path fill="#4C4C4C" d="M61.406,44.136h-1.813v1.6h1.813V44.136z"/>
<path fill="#4C4C4C" d="M27.718,86.78l0.746-0.427l0.213-0.853l-0.213-0.533l-0.746-0.427l-0.854,0.427L26.652,85.5l0.213,0.853
	L27.718,86.78z"/>
<path fill="#4C4C4C" d="M27.718,94.988l0.746-0.213l0.213-0.746l-0.213-0.854l-0.746-0.213l-0.854,0.213l-0.213,0.854l0.213,0.746
	L27.718,94.988z"/>
</svg>
