<?xml version="1.0" encoding="utf-8"?>
<!-- Generator: Adobe Illustrator 14.0.0, SVG Export Plug-In . SVG Version: 6.00 Build 43363)  -->
<!DOCTYPE svg PUBLIC "-//W3C//DTD SVG 1.1//EN" "http://www.w3.org/Graphics/SVG/1.1/DTD/svg11.dtd">
<svg version="1.1" id="图层_1" xmlns="http://www.w3.org/2000/svg" xmlns:xlink="http://www.w3.org/1999/xlink" x="0px" y="0px"
	 width="106.502px" height="106.502px" viewBox="0 0 106.502 106.502" enable-background="new 0 0 106.502 106.502"
	 xml:space="preserve">
<path fill="#7F7F7F" d="M90.937,94.03l0.427-0.96h11.515l0.639,0.96H90.937z"/>
<path fill="#7F7F7F" d="M2.878,94.03l0.64-0.96h11.514l0.427,0.96H2.878z"/>
<path fill="#333333" d="M103.517,102.878l-0.639,0.64H91.364l-0.427-0.64V94.03h12.58V102.878z"/>
<path fill="#333333" d="M15.458,102.878l-0.427,0.64H3.518l-0.64-0.64V94.03h12.58V102.878z"/>
<path stroke="#000000" stroke-width="2" d="M83.582,11.407V7.143l-1.066-3.198l-0.959-1.066H80.49l-1.173,1.066l-0.96,3.198v4.265
	l0.96-4.904l1.173-2.559l0.426-0.427l0.641,0.427l0.959,2.559l0.64,4.904H83.582z"/>
<path d="M66.097,100.426l-8.528,0.853h-8.742l-8.529-0.853l-7.569-1.813l-6.29-2.559l-4.371-3.198l-2.239-3.731V15.031l2.239-3.518
	l4.371-3.198l6.29-2.559l7.569-1.813l8.529-1.066h8.742l8.528,1.066l7.57,1.813l6.289,2.559l4.371,3.198l2.452,3.518v74.094
	l-2.452,3.731l-4.371,3.198l-6.289,2.559L66.097,100.426z"/>
<path fill="#050505" d="M65.032,100.426l-7.782,0.853h-8.103l-7.676-0.853l-6.823-1.813l-5.757-2.559l-4.051-3.198l-2.025-3.731
	V15.031l2.025-3.624l4.051-3.092l5.65-2.559l6.929-1.813l7.676-1.066h8.103l7.782,1.066l6.823,1.813l5.65,2.559l4.051,3.092
	l2.238,3.624v74.094l-2.238,3.731l-4.051,3.198l-5.65,2.559L65.032,100.426z"/>
<path fill="#0A0A0A" d="M63.859,100.426l-7.036,0.853h-7.25l-6.823-0.853l-6.29-1.813l-5.011-2.559l-3.625-3.198l-1.919-3.731
	V15.031l1.919-3.624l3.625-3.092l5.011-2.559l6.29-1.813l6.823-1.066h7.25l7.036,1.066l6.29,1.813l5.011,2.559l3.625,3.092
	l1.705,3.624v74.094l-1.705,3.731l-3.625,3.198l-5.225,2.559L63.859,100.426z"/>
<path fill="#0F0F0F" d="M62.686,100.426l-6.29,0.853H50l-6.077-0.853l-5.65-1.813l-4.371-2.559l-3.198-3.198l-1.599-3.731V15.031
	l1.599-3.624l3.198-3.092l4.371-2.559l5.65-1.813L50,2.878h6.396l6.29,1.066l5.437,1.813l4.585,2.559l2.985,3.092l1.813,3.624
	v74.094l-1.6,3.731l-3.198,3.198l-4.585,2.559L62.686,100.426z"/>
<path fill="#141414" d="M61.513,100.426l-5.543,0.853h-5.544l-5.224-0.853l-4.904-1.813l-4.051-2.559l-2.772-3.198l-1.386-3.731
	V15.031l1.386-3.624l2.772-3.092l4.051-2.559l4.904-1.813l5.224-1.066h5.544l5.543,1.066l4.691,1.813l3.944,2.559l2.771,3.092
	l1.386,3.624v74.094l-1.386,3.731l-2.771,3.198l-3.944,2.559L61.513,100.426z"/>
<path fill="#191919" d="M60.234,100.426l-4.584,0.853h-4.904l-4.371-0.853l-4.265-1.813l-3.411-2.559l-2.452-3.198l-1.173-3.731
	V15.031l1.173-3.624l2.452-3.092l3.411-2.559l4.265-1.813l4.371-1.066h4.904l4.584,1.066l4.051,1.813l3.412,2.559l2.452,3.092
	l1.173,3.624v74.094l-1.173,3.731l-2.452,3.198l-3.412,2.559L60.234,100.426z"/>
<path fill="#1F1F1F" d="M59.062,100.426l-3.838,0.853h-4.052l-3.625-0.853L44.136,98.4l-2.772-2.345l-2.025-3.198l-1.066-3.731
	V15.031l1.066-3.624l2.025-3.092l2.772-2.559l3.412-1.813l3.625-1.066h4.052l3.838,1.066l3.41,1.813l2.772,2.559l2.026,3.092
	l1.065,3.624v74.094l-1.065,3.731l-2.026,3.198l-2.772,2.559L59.062,100.426z"/>
<ellipse fill="#333333" cx="53.198" cy="52.025" rx="2.559" ry="49.147"/>
<path fill="#CCCCCC" d="M58.634,80.703l-3.624,0.853h-3.838V3.945h3.838l3.624,0.746l3.199,1.492l2.559,1.919l1.813,2.666
	l1.066,2.559v58.741l-0.747,2.879l-2.132,2.345l-2.559,2.025L58.634,80.703z"/>
<path fill="#242424" d="M57.783,100.426l-2.986,0.853h-3.198l-2.985-0.853L45.948,98.4l-2.239-2.345l-1.599-3.198l-0.746-3.731
	V15.031l0.746-3.624l1.599-3.092l2.239-2.559l2.666-1.813l2.985-1.066h3.198l2.986,1.066l2.878,1.813l2.025,2.559l1.599,3.092
	l0.747,3.624v74.094l-0.747,3.731l-1.599,3.198l-2.239,2.559L57.783,100.426z"/>
<path fill="#292929" d="M56.609,100.426l-2.238,0.853h-2.132l-2.452-0.853L47.761,98.4l-1.599-2.345l-1.279-3.198l-0.32-3.731
	V15.031l0.32-3.624l1.279-3.092l1.599-2.559l2.026-1.813l2.452-1.066h2.132l2.238,1.066l2.025,1.813l1.6,2.559l1.279,3.092
	l0.533,3.624v74.094l-0.533,3.731l-1.279,3.198l-1.6,2.559L56.609,100.426z"/>
<path fill="#2E2E2E" d="M55.437,100.426l-1.387,0.853h-1.492l-1.599-0.853L49.787,98.4l-0.959-2.345l-0.853-3.198l-0.426-3.731
	V15.031l0.426-3.624l0.853-3.092l0.959-2.559l1.172-1.813l1.599-1.066h1.492l1.387,1.066l1.386,1.813l0.96,2.559l0.852,3.092
	l0.428,3.624v74.094l-0.428,3.731l-0.852,3.198l-0.96,2.559L55.437,100.426z"/>
<path fill="#CCCCCC" d="M34.328,68.443h25.053v16.738H34.328V68.443z"/>
<path fill="#FFB27F" d="M34.328,68.443h25.053v-2.559H34.328V68.443z"/>
<path fill="none" stroke="#FFFFFF" stroke-width="2" d="M34.328,85.181V65.884h25.053"/>
<path fill="none" stroke="#000000" stroke-width="2" d="M59.381,65.884v19.297H34.328"/>
<path d="M40.725,67.697h12.473v-1.173H40.725V67.697z"/>
<path fill="#B2B2B2" d="M36.46,70.149h21.002v10.234H36.46V70.149z"/>
<path fill="#CCCCCC" d="M35.501,48.188h22.92v7.568h-22.92V48.188z"/>
<path fill="#FFFFFF" d="M36.46,49.36h21.002v5.438H36.46V49.36z"/>
<path fill="#7F4C00" d="M41.791,26.653h-7.462V15.991h7.462l1.813,0.746l1.599,1.706l0.746,1.813v2.132L45.202,24.2l-1.599,1.705
	L41.791,26.653z"/>
<path fill="#915E00" d="M41.791,25.48h-7.249v-8.422h7.249l1.813,0.746l1.599,1.065l0.746,1.6v1.599l-0.746,1.6l-1.599,1.173
	L41.791,25.48z"/>
<path fill="#A6730D" d="M41.791,24.413h-7.249V18.23h7.249l1.813,0.427l1.599,0.746l0.746,1.279v1.173l-0.746,1.173l-1.599,0.853
	L41.791,24.413z"/>
<path fill="#B8851F" d="M41.791,23.454h-7.249V19.19h7.249l1.813,0.427l1.599,0.426l0.746,0.746v0.854l-0.746,0.746l-1.599,0.64
	L41.791,23.454z"/>
<path fill="#CC9933" d="M41.791,22.281h-7.462v-2.025h7.462l1.813,0.213l1.599,0.319l0.746,0.214v0.426l-0.746,0.427l-1.599,0.427
	H41.791z"/>
<path fill="none" stroke="#000000" stroke-width="2" d="M41.791,26.653h-7.462V15.991h7.462l1.813,0.746l1.599,1.706l0.746,1.813
	v2.132L45.202,24.2l-1.599,1.705L41.791,26.653"/>
<circle fill="#4C4C4C" stroke="#000000" stroke-width="2" cx="35.501" cy="21.322" r="5.224"/>
<circle cx="35.501" cy="21.216" r="0.959"/>
<path d="M15.565,94.989h75.372v6.503H15.565V94.989z"/>
<path fill="#CCCCCC" d="M17.058,94.989h72.281v6.503H17.058V94.989z"/>
<path fill="#C7C7C7" d="M17.058,98.826l72.281-3.838v6.503H17.058V98.826z"/>
<path fill="#C2C2C2" d="M17.058,99.253l72.281-3.838v6.076H17.058V99.253z"/>
<path fill="#BDBDBD" d="M17.058,99.679l72.281-3.624v5.437H17.058V99.679z"/>
<path d="M7.782,44.776h11.834v25.16H7.782V44.776z"/>
<path fill="#080808" d="M7.782,46.588h12.047v21.748H7.782V46.588z"/>
<path fill="#121212" d="M7.782,48.401h12.047v18.123H7.782V48.401z"/>
<path fill="#191919" d="M7.782,49.999h12.047v14.605H7.782V49.999z"/>
<path fill="#212121" d="M7.782,51.812h12.047v10.98H7.782V51.812z"/>
<path fill="#2B2B2B" d="M7.782,53.624h12.047v7.569H7.782V53.624z"/>
<path fill="#333333" d="M7.782,55.437h11.834v3.944H7.782V55.437z"/>
<path fill="#B27F19" d="M13.966,85.181h5.65v2.025h-5.65V85.181z"/>
<path fill="#FFCC66" d="M13.966,85.714h5.65v0.853h-5.65V85.714z"/>
<path fill="none" stroke="#000000" stroke-width="2" d="M34.328,81.983h25.053"/>
<path fill="none" stroke="#000000" stroke-width="2" d="M103.517,102.878l-0.639,0.64H91.364l-0.427-0.64V94.03l0.427-0.96h11.515
	l0.639,0.96V102.878"/>
<path fill="none" stroke="#000000" stroke-width="2" d="M17.271,95.201h72.068v6.29H17.271V95.201"/>
<path fill="none" stroke="#000000" stroke-width="2" d="M15.458,102.878l-0.427,0.64H3.518l-0.64-0.64V94.03l0.64-0.96h11.514
	l0.427,0.96V102.878"/>
<path fill="none" stroke="#000000" stroke-width="2" d="M13.966,85.181h5.65v2.025h-5.65V85.181"/>
<path fill="none" stroke="#000000" stroke-width="2" d="M7.782,44.776h11.834v25.16H7.782V44.776"/>
</svg>
