<?xml version="1.0" encoding="utf-8"?>
<!-- Generator: Adobe Illustrator 14.0.0, SVG Export Plug-In . SVG Version: 6.00 Build 43363)  -->
<!DOCTYPE svg PUBLIC "-//W3C//DTD SVG 1.1//EN" "http://www.w3.org/Graphics/SVG/1.1/DTD/svg11.dtd">
<svg version="1.1" id="图层_1" xmlns="http://www.w3.org/2000/svg" xmlns:xlink="http://www.w3.org/1999/xlink" x="0px" y="0px"
	 width="117.173px" height="106.502px" viewBox="0 0 117.173 106.502" enable-background="new 0 0 117.173 106.502"
	 xml:space="preserve">
<path fill="#666666" d="M3.284,10.441v3.987h20.995v-3.987H3.284z"/>
<path fill="#666666" d="M3.284,94.655v3.988h20.995v-3.988H3.284z"/>
<path fill="#333333" d="M13.136,79.524v23.693h82.221V79.524H13.136z"/>
<path fill="#7F7F7F" d="M3.284,11.144v86.795h20.995V11.144H3.284z"/>
<path fill="#7F7F7F" d="M24.279,29.559h68.497v-2.698h20.995v55.361H92.776v-2.698H24.279V29.559z"/>
<path fill="#8A8A8A" d="M3.284,15.132V93.95h20.995V15.132H3.284z"/>
<path fill="#8A8A8A" d="M24.279,31.905h68.497v-2.463h20.995v50.082H92.776v-2.346H24.279V31.905z"/>
<path fill="#A1A1A1" d="M3.284,23.225v62.633h20.995V23.225H3.284z"/>
<path fill="#A1A1A1" d="M24.279,36.596h68.497v-1.877h20.995v39.527H92.776v-1.877H24.279V36.596z"/>
<path fill="#B8B8B8" d="M3.284,31.2v46.682h20.995V31.2H3.284z"/>
<path fill="#B8B8B8" d="M24.279,41.405h68.497v-1.407h20.995v28.971H92.776v-1.407H24.279V41.405z"/>
<path fill="#CFCFCF" d="M3.284,39.293v30.496h20.995V39.293H3.284z"/>
<path fill="#CFCFCF" d="M24.279,46.097h68.497v-0.821h20.995V63.69H92.776v-0.82H24.279V46.097z"/>
<path fill="#E5E5E5" d="M3.284,47.27v14.544h20.995V47.27H3.284z"/>
<path fill="#E5E5E5" d="M24.279,50.906h68.497v-0.352h20.995v7.976H92.776v-0.47H24.279V50.906z"/>
<path fill="#7F7F7F" d="M29.557,84.802v18.415h65.8V84.802H29.557z"/>
<path fill="#8A8A8A" d="M29.557,85.623v16.772h65.8V85.623H29.557z"/>
<path fill="#A1A1A1" d="M29.557,87.383v13.253h65.8V87.383H29.557z"/>
<path fill="#B8B8B8" d="M29.557,89.025v9.97h65.8v-9.97H29.557z"/>
<path fill="#CFCFCF" d="M29.557,90.784v6.45h65.8v-6.45H29.557z"/>
<path fill="#666666" d="M95.357,87.5v13.136h5.277V87.5H95.357z"/>
<path fill="#999999" d="M95.357,89.376v9.267h5.277v-9.267H95.357z"/>
<path fill="#CCCCCC" d="M95.357,91.84v4.339h5.277V91.84H95.357z"/>
<path fill="#FFFFFF" d="M95.357,93.482v1.056h5.277v-1.056H95.357z"/>
<path fill="none" stroke="#000000" stroke-width="2" d="M95.357,87.5v13.136h5.277V87.5H95.357"/>
<path fill="#CFCFCF" d="M29.557,95.359v7.858h34.248v-7.858H29.557z"/>
<path fill="#E5E5E5" d="M29.557,92.543v3.05h65.8v-3.05H29.557z"/>
<path fill="none" stroke="#000000" stroke-width="2" d="M29.557,84.802v18.415h65.8V84.802H29.557"/>
<path fill="#B2B2B2" stroke="#000000" stroke-width="2" d="M28.267,100.636v2.581h36.829v-2.581H28.267z"/>
<path fill="none" stroke="#666666" stroke-width="2" d="M34.835,63.807V38.824"/>
<path fill="#B2B2B2" d="M3.284,52.547v3.988h20.995v-3.988H3.284z"/>
<path fill="#B2B2B2" d="M3.284,42.109v3.87h20.995v-3.87H3.284z"/>
<path fill="#B2B2B2" d="M3.284,63.104v3.987h20.995v-3.987H3.284z"/>
<path fill="#7F7F7F" d="M3.284,20.996v3.988h20.995v-3.988H3.284z"/>
<path fill="#7F7F7F" d="M3.284,84.216v3.87h20.995v-3.87H3.284z"/>
<path fill="#7F7F7F" d="M3.284,31.553v3.987h20.995v-3.987H3.284z"/>
<path fill="#7F7F7F" d="M3.284,73.659v3.988h20.995v-3.988H3.284z"/>
<path fill="#7F7F7F" stroke="#000000" stroke-width="2" d="M24.279,17.008h1.994V3.285h-1.994V17.008z"/>
<path fill="#7F7F7F" stroke="#000000" stroke-width="2" d="M26.273,16.422h1.994v-3.988h-1.994V16.422z"/>
<path fill="none" stroke="#000000" stroke-width="2" d="M34.835,79.524V63.807"/>
<path fill="none" stroke="#000000" stroke-width="2" d="M92.776,79.524V29.559"/>
<path fill="none" stroke="#000000" stroke-width="2" d="M24.279,29.559h68.497v-2.698h20.995v55.361H92.776v-2.698H24.279V29.559"/>
<path fill="none" stroke="#000000" stroke-width="2" d="M3.284,11.144v86.795h20.995V11.144H3.284"/>
<path fill="#7F7F7F" d="M11.729,8.447v92.189h3.987V8.447H11.729z"/>
<path fill="#8F8F8F" d="M11.846,13.959v81.047h3.987V13.959H11.846z"/>
<path fill="#9C9C9C" d="M11.846,19.472v70.021h3.987V19.472H11.846z"/>
<path fill="#ABABAB" d="M11.846,25.102v58.879h3.987V25.102H11.846z"/>
<path fill="#BABABA" d="M11.846,30.615v47.736h3.987V30.615H11.846z"/>
<path fill="#C9C9C9" d="M11.846,36.244v36.595h3.987V36.244H11.846z"/>
<path fill="#D6D6D6" d="M11.846,41.757v25.569h3.987V41.757H11.846z"/>
<path fill="#E5E5E5" d="M11.729,47.27v14.544h3.987V47.27H11.729z"/>
<path fill="none" stroke="#000000" stroke-width="2" d="M11.729,8.447v92.189h3.987V8.447H11.729"/>
</svg>
