<?xml version="1.0" encoding="utf-8"?>
<!-- Generator: Adobe Illustrator 14.0.0, SVG Export Plug-In . SVG Version: 6.00 Build 43363)  -->
<!DOCTYPE svg PUBLIC "-//W3C//DTD SVG 1.1//EN" "http://www.w3.org/Graphics/SVG/1.1/DTD/svg11.dtd">
<svg version="1.1" id="图层_1" xmlns="http://www.w3.org/2000/svg" xmlns:xlink="http://www.w3.org/1999/xlink" x="0px" y="0px"
	 width="106.502px" height="106.502px" viewBox="0 0 106.502 106.502" enable-background="new 0 0 106.502 106.502"
	 xml:space="preserve">
<path fill="#00FFFF" stroke="#000000" stroke-width="2" d="M69.935,78.358l2.879-2.346l2.559-2.559l2.452-2.771l2.025-2.879
	l1.813-3.198l1.599-3.198l1.279-3.411l0.96-3.519l0.746-3.518l0.427-3.731v-2.452h16.737V2.985H44.776l-4.158,0.214l-4.158,0.64
	l-4.051,0.959L28.571,6.29l-3.625,1.705l-3.518,2.133L18.23,12.58l-2.985,2.665L12.58,18.23l-2.452,3.198l-2.132,3.519L6.29,28.572
	l-1.493,3.838L3.838,36.46l-0.64,4.158l-0.213,2.025v2.132v1.279l0.32,3.625l0.533,3.625l0.959,3.518l1.173,3.519l1.492,3.305
	l1.813,3.198l1.919,2.985l2.346,2.771l2.559,2.665l2.665,2.346l0.959,0.746L7.143,103.41h75.373L69.935,78.358z"/>
<path fill="none" stroke="#000000" stroke-width="2" d="M70.042,78.358l-2.771,1.919l-2.986,1.706L61.3,83.368l-3.198,1.173
	L54.796,85.5l-3.198,0.64l-3.411,0.427l-1.706,0.106h-0.853h-0.853l-3.305-0.106l-3.305-0.427l-3.305-0.746l-3.198-0.96
	l-3.198-1.172l-2.985-1.387l-2.878-1.705l-2.132-1.386l-0.64-0.427"/>
<circle fill="#00FFFF" stroke="#000000" stroke-width="2" cx="44.776" cy="44.776" r="20.896"/>
</svg>
