<?xml version="1.0" encoding="utf-8"?>
<!-- Generator: Adobe Illustrator 14.0.0, SVG Export Plug-In . SVG Version: 6.00 Build 43363)  -->
<!DOCTYPE svg PUBLIC "-//W3C//DTD SVG 1.1//EN" "http://www.w3.org/Graphics/SVG/1.1/DTD/svg11.dtd">
<svg version="1.1" id="图层_1" xmlns="http://www.w3.org/2000/svg" xmlns:xlink="http://www.w3.org/1999/xlink" x="0px" y="0px"
	 width="144.749px" height="89.633px" viewBox="0 0 144.749 89.633" enable-background="new 0 0 144.749 89.633"
	 xml:space="preserve">
<path fill="#E5B24C" stroke="#000000" stroke-width="2" d="M14.36,61.641l-2.901-0.725l-4.931-4.642l-1.741-3.336l-0.725-3.481
	v-3.916l0.725-3.771l1.741-3.336l4.931-4.641l2.901-0.87v-21.03l2.755-2.611h5.222V4.061H75.13v5.221h5.222l2.466,5.077h55.114
	l2.756,2.755v52.503l-2.756,2.756h-7.542v10.443h-7.978V72.373H82.817l-2.466,5.222H38.145v7.978H25.093v-7.978h-7.978l-2.755-2.466
	V61.641z"/>
<path fill="none" stroke="#000000" stroke-width="2" d="M14.36,32.923v28.717"/>
<path fill="none" stroke="#000000" stroke-width="2" d="M22.337,9.282v26.107H75.13V9.282"/>
</svg>
