<?xml version="1.0" encoding="utf-8"?>
<!-- Generator: Adobe Illustrator 14.0.0, SVG Export Plug-In . SVG Version: 6.00 Build 43363)  -->
<!DOCTYPE svg PUBLIC "-//W3C//DTD SVG 1.1//EN" "http://www.w3.org/Graphics/SVG/1.1/DTD/svg11.dtd">
<svg version="1.1" id="图层_1" xmlns="http://www.w3.org/2000/svg" xmlns:xlink="http://www.w3.org/1999/xlink" x="0px" y="0px"
	 width="83.153px" height="106.502px" viewBox="0 0 83.153 106.502" enable-background="new 0 0 83.153 106.502"
	 xml:space="preserve">
<path fill="#00FFFF" stroke="#000000" stroke-width="2" d="M19.083,99.892V72.92H11.94v7.143l1.812,9.062v1.706l-3.625,5.437
	L6.503,90.83v-1.706l1.813-9.062v-5.33L4.69,71.108l1.813-1.813V55.01H2.985v-7.249h5.331v-1.706h5.437v1.706h5.331v10.768
	L29.85,46.055V19.084h10.768v-7.143h-7.143l-8.955,1.812h-1.813l-5.437-3.624l5.437-3.625h1.813l8.955,1.813h5.331l3.625-3.625
	l1.813,1.813h14.285V2.987h7.249v5.33h1.813v5.437h-1.813v32.302l10.768,12.474v41.363h3.518v3.518H15.458v-3.518H19.083z"/>
<path fill="#00FFFF" stroke="#000000" stroke-width="2" d="M26.225,31.663h43.068v1.813H26.225V31.663z"/>
<path fill="#00FFFF" stroke="#000000" stroke-width="2" d="M26.225,28.039h43.068v1.812H26.225V28.039z"/>
<path fill="#00FFFF" stroke="#000000" stroke-width="2" d="M26.225,24.521h43.068v1.706H26.225V24.521z"/>
<path fill="#00FFFF" stroke="#000000" stroke-width="2" d="M26.225,35.288h43.068v1.705H26.225V35.288z"/>
<path fill="none" stroke="#000000" stroke-width="2" d="M72.918,92.642V71.108l-0.32-3.838l-0.852-3.624l-1.279-3.412l-1.813-3.092
	l-2.239-2.878l-2.665-2.452l-2.984-2.132l-3.199-1.706l-3.518-1.172l-3.731-0.64l-1.278-0.107H47.76h-1.279l-3.732,0.533
	l-3.518,0.96L35.82,49.04l-2.985,2.025l-2.771,2.346l-2.345,2.665l-2.026,3.092L24.2,62.579l-0.959,3.518l-0.533,3.731v1.279v21.534
	"/>
<path fill="none" stroke="#000000" stroke-width="2" d="M19.083,92.642h57.461"/>
<path fill="none" stroke="#000000" stroke-width="2" d="M19.083,99.892h57.461"/>
<circle fill="none" stroke="#000000" stroke-width="2" cx="47.76" cy="71.108" r="17.91"/>
<circle fill="none" stroke="#000000" stroke-width="2" cx="47.76" cy="71.108" r="14.285"/>
<path fill="none" stroke="#000000" stroke-width="2" d="M29.85,46.055l3.625,1.706"/>
<path fill="none" stroke="#000000" stroke-width="2" d="M62.151,47.761l3.625-1.706"/>
<path fill="none" stroke="#000000" stroke-width="2" d="M40.617,19.084h25.159"/>
<path fill="none" stroke="#000000" stroke-width="2" d="M22.707,13.753V6.504"/>
<path fill="none" stroke="#000000" stroke-width="2" d="M24.52,6.504v7.249"/>
<path fill="none" stroke="#000000" stroke-width="2" d="M33.474,11.942V8.317"/>
<path fill="none" stroke="#000000" stroke-width="2" d="M40.617,11.942l-1.813-3.625l5.437-1.813"/>
<path fill="none" stroke="#000000" stroke-width="2" d="M40.617,13.753h17.91V6.504"/>
<path fill="none" stroke="#000000" stroke-width="2" d="M63.963,19.084V2.987"/>
<path fill="none" stroke="#000000" stroke-width="2" d="M65.776,13.753V8.317"/>
<path fill="none" stroke="#000000" stroke-width="2" d="M13.752,90.83H6.503"/>
<path fill="none" stroke="#000000" stroke-width="2" d="M13.752,89.124H6.503"/>
<path fill="none" stroke="#000000" stroke-width="2" d="M11.94,80.063H8.315"/>
<path fill="none" stroke="#000000" stroke-width="2" d="M11.94,72.92l-3.625,1.813l-1.813-5.438"/>
<path fill="none" stroke="#000000" stroke-width="2" d="M6.503,55.01h7.249v17.91"/>
<path fill="none" stroke="#000000" stroke-width="2" d="M13.752,47.761H8.315"/>
<path fill="none" stroke="#000000" stroke-width="2" d="M2.985,49.573h16.098"/>
<path fill="none" stroke="#000000" stroke-width="2" d="M19.083,72.92V58.529"/>
</svg>
