<?xml version="1.0" encoding="utf-8"?>
<!-- Generator: Adobe Illustrator 14.0.0, SVG Export Plug-In . SVG Version: 6.00 Build 43363)  -->
<!DOCTYPE svg PUBLIC "-//W3C//DTD SVG 1.1//EN" "http://www.w3.org/Graphics/SVG/1.1/DTD/svg11.dtd">
<svg version="1.1" id="图层_1" xmlns="http://www.w3.org/2000/svg" xmlns:xlink="http://www.w3.org/1999/xlink" x="0px" y="0px"
	 width="128.649px" height="106.502px" viewBox="0 0 128.649 106.502" enable-background="new 0 0 128.649 106.502"
	 xml:space="preserve">
<path fill="#8CA0BF" stroke="#000000" stroke-width="2" d="M102.894,53.187l-0.258,5.151l-0.772,4.894l-1.288,4.765l-1.674,4.507
	l-2.061,4.379l-2.447,4.121l-2.833,3.734l-3.22,3.605l-3.605,3.22l-3.734,2.833l-4.121,2.447l-4.378,2.061l-4.508,1.674
	l-4.765,1.288l-4.894,0.772l-2.575,0.257h-2.576H50.61l-4.894-0.515l-4.894-1.03l-4.637-1.417l-4.507-1.932l-4.25-2.317
	l-3.863-2.704l-3.734-2.962l-3.349-3.478l-3.09-3.605l-2.705-3.992L8.5,74.693l-1.932-4.378l-1.417-4.637l-1.03-4.894l-0.515-5.022
	v-2.575v-2.575l0.515-4.894l1.03-4.894l1.417-4.637L8.5,31.681l2.188-4.121l2.705-3.992l3.09-3.734l3.349-3.349l3.734-3.091
	l3.863-2.704l4.25-2.189l4.507-1.932l4.637-1.416l4.894-1.03l4.894-0.516h2.575h71.729v49.58H102.894z"/>
<circle fill="none" stroke="#000000" stroke-width="2" cx="53.185" cy="53.187" r="27.559"/>
</svg>
