<?xml version="1.0" encoding="utf-8"?>
<!-- Generator: Adobe Illustrator 14.0.0, SVG Export Plug-In . SVG Version: 6.00 Build 43363)  -->
<!DOCTYPE svg PUBLIC "-//W3C//DTD SVG 1.1//EN" "http://www.w3.org/Graphics/SVG/1.1/DTD/svg11.dtd">
<svg version="1.1" id="图层_1" xmlns="http://www.w3.org/2000/svg" xmlns:xlink="http://www.w3.org/1999/xlink" x="0px" y="0px"
	 width="139.464px" height="106.502px" viewBox="0 0 139.464 106.502" enable-background="new 0 0 139.464 106.502"
	 xml:space="preserve">
<path fill="#808080" stroke="#000000" stroke-width="2" d="M99.738,36.769l1.268,4.016l0.846,4.015l0.634,4.226l0.211,4.016
	l-0.211,5.071l-0.846,4.859l-1.268,4.86l-1.69,4.438l-1.901,4.438l-2.536,4.015l-2.958,3.804l-3.17,3.593l-3.593,3.169l-3.803,2.959
	l-4.016,2.324l-4.226,2.113l-4.649,1.69l-4.648,1.268l-4.86,0.846l-5.071,0.211l-5.071-0.211l-4.86-0.846l-4.648-1.268l-4.648-1.69
	l-4.227-2.113l-4.227-2.324l-3.804-2.959l-3.381-3.169l-3.169-3.593l-2.959-3.804L9.72,76.706l-2.113-4.438l-1.479-4.438
	l-1.268-4.86l-0.846-4.859L3.803,53.04l0.211-5.072l0.846-4.859l1.268-4.649l1.479-4.438l2.113-4.438l2.535-4.015l2.959-3.804
	l3.169-3.592l3.381-3.17l3.804-2.747l4.227-2.535l4.227-2.113l4.648-1.479l4.648-1.268l4.86-0.846l5.071-0.211h82.411v32.964H99.738
	z"/>
</svg>
