<?xml version="1.0" encoding="utf-8"?>
<!-- Generator: Adobe Illustrator 14.0.0, SVG Export Plug-In . SVG Version: 6.00 Build 43363)  -->
<!DOCTYPE svg PUBLIC "-//W3C//DTD SVG 1.1//EN" "http://www.w3.org/Graphics/SVG/1.1/DTD/svg11.dtd">
<svg version="1.1" id="图层_1" xmlns="http://www.w3.org/2000/svg" xmlns:xlink="http://www.w3.org/1999/xlink" x="0px" y="0px"
	 width="108.238px" height="106.502px" viewBox="0 0 108.238 106.502" enable-background="new 0 0 108.238 106.502"
	 xml:space="preserve">
<path fill="#99CCCC" d="M51.841,100.754l-9.436-0.759L33.187,97.5l-8.459-4.121l-7.483-5.64l-6.073-6.724l-4.447-7.7l-2.82-8.243
	l-0.868-8.784l0.759-8.568l2.82-8.351l4.555-7.7l6.073-6.833l7.375-5.531l8.568-4.013l9.11-2.604l9.544-0.759l9.543,0.759
	l9.219,2.604l9.545,4.88l-1.085-13.34h-2.169V3.036h28.307v3.796h-1.627l-2.82,49.564l-0.867,8.567l-2.82,8.46l-4.446,7.592
	l-6.182,6.832l-7.375,5.531l-8.46,4.121l-9.109,2.387L51.841,100.754z"/>
<path fill="#7FB2B2" d="M99.127,36.115l0.76,4.88l0.542,4.772l0.108,2.386v2.277v2.387l-0.217,4.446l-0.542,4.338l-0.868,4.23
	l-1.193,4.121l-1.518,4.013l-1.735,3.688l-2.061,3.579l-2.386,3.362l-2.712,3.145l-2.929,2.929l-3.361,2.711l-3.579,2.386
	l-4.013,2.17l-4.338,1.735l-4.556,1.301l-4.663,0.868l-2.387,0.217l-2.494,0.108h-2.386l-4.989-0.217l-4.88-0.868l-4.772-1.192
	l-4.772-1.627l-4.447-2.169l-4.338-2.604L20.39,90.56l-3.579-3.471l-3.254-3.904l-2.82-4.338l-1.084-2.278l-1.084-2.494l1.735,2.169
	l3.471,4.013l3.687,3.579l3.796,3.146L25.27,89.8l3.904,2.278l4.121,1.952l4.013,1.518l4.121,1.193l4.121,0.759l4.122,0.218h4.013
	l4.012-0.543l4.014-0.867l3.795-1.193l3.688-1.735l3.254-1.844l2.82-1.735l2.494-1.735l2.494-1.952l2.277-2.061l2.062-2.277
	l1.952-2.494l1.844-2.82l1.627-3.036l1.627-3.471l1.41-3.796l1.301-4.339l1.193-4.663l1.192-5.314l0.542-2.819l0.434-3.037
	l0.543-3.146l0.434-3.253L99.127,36.115z"/>
<circle fill="#B2E5E5" cx="50.865" cy="53.143" r="38.176"/>
<path fill="#7FB2B2" d="M100.212,57.372l-4.663,0.868L95.115,7.049h8.025L100.212,57.372z"/>
<path fill="#B2E5E5" d="M85.028,7.049l0.325,3.254l0.326,3.146l0.324,3.036l0.326,2.82l0.217,2.929l0.325,2.928l0.325,3.146
	l0.326,3.362l1.734,2.277l1.519,3.145l0.976,2.82l0.868,3.037l0.651,3.361l0.434,3.471l0.325,3.579l0.217,3.688v3.579l-0.108,2.494
	l-0.108,1.085l0.434-1.302l0.651-2.928l0.434-3.037l0.325-3.254l0.217-3.362l0.108-1.844v-1.734v-3.688l-0.108-3.796l-0.217-3.796
	l-0.108-3.905l-0.217-3.904l-0.217-3.796l-0.109-3.904l-0.107-3.796l-0.109-3.688V8.784l0.109-1.735H85.028z"/>
<circle fill="#D9D9D9" stroke="#000000" stroke-width="2" cx="50.865" cy="52.601" r="32.211"/>
<path fill="#7F7F7F" d="M36.332,24.186l32.211,55.745l-3.578,1.952L32.862,26.246L36.332,24.186z"/>
<path fill="#7F7F7F" d="M23.86,35.247L79.497,67.35l-1.952,3.579L21.799,38.718L23.86,35.247z"/>
<path fill="#7F7F7F" d="M18.546,51.082h64.313v4.013H18.546V51.082z"/>
<path fill="#7F7F7F" d="M79.497,38.718L23.86,70.821l-2.061-3.471l55.746-32.103L79.497,38.718z"/>
<path fill="#7F7F7F" d="M68.543,26.246L36.332,81.883l-3.47-1.952l32.103-55.745L68.543,26.246z"/>
<path fill="#7F7F7F" d="M52.709,20.932v64.205h-4.013V20.932H52.709z"/>
<circle fill="#4C4C4C" cx="50.865" cy="52.6" r="29.933"/>
<circle fill="#A6A6A6" stroke="#000000" stroke-width="2" cx="50.865" cy="52.709" r="23.318"/>
<path fill="#333333" d="M37.959,34.922l3.471-2.061l22.125,38.393l-3.471,1.953L37.959,34.922z"/>
<path fill="#333333" d="M28.849,49.239l1.084-3.796l42.73,11.388l-1.084,3.904L28.849,49.239z"/>
<path fill="#333333" d="M32.645,65.832l-2.061-3.471l38.285-22.125l2.061,3.471L32.645,65.832z"/>
<path fill="#333333" d="M54.553,31.235l3.796,0.977l-11.388,42.73l-3.904-1.084L54.553,31.235z"/>
<circle fill="#666666" stroke="#000000" stroke-width="2" cx="50.865" cy="52.6" r="9.978"/>
<path fill="none" stroke="#000000" stroke-width="2" d="M41.972,48.045l17.462,10.087"/>
<path fill="none" stroke="#000000" stroke-width="2" d="M40.996,55.637l19.414-5.206"/>
<path fill="none" stroke="#000000" stroke-width="2" d="M45.659,61.71l10.087-17.353"/>
<path fill="none" stroke="#000000" stroke-width="2" d="M48.154,43.382l5.097,19.413"/>
<path fill="#7FB2B2" d="M77.003,3.036h28.089v4.013H77.003V3.036z"/>
<path fill="#99CCCC" d="M81.016,3.036h20.064v4.013H81.016V3.036z"/>
<path fill="#B2E5E5" d="M87.089,3.036h8.026v4.013h-8.026V3.036z"/>
<path fill="none" stroke="#000000" stroke-width="2" d="M51.841,100.754l-9.436-0.759L33.187,97.5l-8.459-4.121l-7.483-5.64
	l-6.073-6.724l-4.447-7.7l-2.82-8.243l-0.868-8.784l0.759-8.568l2.82-8.351l4.555-7.7l6.073-6.833l7.375-5.531l8.568-4.013
	l9.11-2.604l9.544-0.759l9.543,0.759l9.219,2.604l9.545,4.88L79.063,6.941h-2.169V3.036h28.307v3.904l-1.627-0.108l-2.82,49.564
	l-0.867,8.567l-2.82,8.46l-4.446,7.592l-6.182,6.832l-7.375,5.531l-8.46,4.121l-9.109,2.387L51.841,100.754"/>
<path fill="none" stroke="#000000" stroke-width="2" d="M79.063,6.832h24.511"/>
<path fill="#4C4C4C" stroke="#000000" stroke-width="2" d="M28.74,97.392h48.263v6.074H28.74V97.392z"/>
</svg>
