<?xml version="1.0" encoding="utf-8"?>
<!-- Generator: Adobe Illustrator 14.0.0, SVG Export Plug-In . SVG Version: 6.00 Build 43363)  -->
<!DOCTYPE svg PUBLIC "-//W3C//DTD SVG 1.1//EN" "http://www.w3.org/Graphics/SVG/1.1/DTD/svg11.dtd">
<svg version="1.1" id="图层_1" xmlns="http://www.w3.org/2000/svg" xmlns:xlink="http://www.w3.org/1999/xlink" x="0px" y="0px"
	 width="144.749px" height="81.721px" viewBox="0 0 144.749 81.721" enable-background="new 0 0 144.749 81.721"
	 xml:space="preserve">
<path fill="#666666" d="M133.882,52.016h1.304V19.56h-1.304V52.016z"/>
<path fill="#B2B2B2" stroke="#000000" stroke-width="2" d="M20.285,48.684l0.58-2.028h23.038l0.725,2.028H20.285z"/>
<path fill="#999999" d="M47.235,46.656l10.867-2.174V18.981l-10.867-2.174H9.418l-5.36,2.174v26.516l5.36,1.159H47.235z"/>
<path fill="#BFBFBF" d="M47.235,43.323l10.867-1.594V21.59l-10.867-1.595H9.418l-5.36,1.595v21.009l5.36,0.725H47.235z"/>
<path fill="#E5E5E5" d="M47.235,39.121l10.867-1.014V25.356l-10.867-1.014H9.418l-5.36,1.014v13.186l5.36,0.579H47.235z"/>
<path fill="#F2F2F2" d="M47.235,33.326l10.867-0.29v-2.608l-10.867-0.29H9.418l-5.36,0.29v2.753l5.36,0.146H47.235z"/>
<path fill="none" stroke="#000000" stroke-width="2" d="M47.235,46.656l10.867-2.174V18.981l-10.867-2.174H9.418l-5.36,2.174v26.516
	l5.36,1.159H47.235"/>
<path fill="#333333" stroke="#000000" stroke-width="2" d="M18.837,23.183h27.095v23.473H18.837V23.183z"/>
<path fill="#E5E5E5" d="M18.257,33.76h28.399v1.159H18.257V33.76z"/>
<path fill="#E5E5E5" d="M18.257,37.093h28.399v1.015H18.257V37.093z"/>
<path fill="#E5E5E5" d="M18.257,24.343h28.399v1.014H18.257V24.343z"/>
<path fill="#E5E5E5" d="M18.257,27.53h28.399v1.014H18.257V27.53z"/>
<path fill="#BFBFBF" d="M18.257,39.701h28.399v1.015H18.257V39.701z"/>
<path fill="#BFBFBF" d="M18.257,41.729h28.399v1.159H18.257V41.729z"/>
<path fill="#999999" d="M18.257,43.903h28.399v1.014H18.257V43.903z"/>
<path fill="#F2F2F2" d="M18.257,30.718h28.399v1.015H18.257V30.718z"/>
<path fill="none" stroke="#000000" stroke-width="2" d="M9.418,46.656V16.807"/>
<path fill="none" stroke="#000000" stroke-width="2" d="M17.532,16.807v29.849"/>
<path fill="none" stroke="#000000" stroke-width="2" d="M47.235,16.807v29.849"/>
<path fill="#D9D9D9" stroke="#000000" stroke-width="2" d="M17.532,50.713v-2.028h8.114v-4.781h13.475v4.781h8.114v2.028H17.532z"/>
<path fill="#B2B2B2" stroke="#000000" stroke-width="2" d="M5.361,68.245h121.711v8.114H5.361V68.245z"/>
<path fill="#E5E5E5" stroke="#000000" stroke-width="2" d="M6.665,66.941l2.753-15.648h45.932v-4.637h32.602v-4.202h29.703v24.487
	H6.665z"/>
<path fill="#999999" stroke="#000000" stroke-width="2" d="M117.654,12.751h16.228v51.438h-16.228V12.751z"/>
<path fill="#A6A6A6" d="M120.261,5.361h10.867v52.017h-10.867V5.361z"/>
<circle fill="#333333" cx="24.343" cy="59.406" r="4.057"/>
<path fill="#B2B2B2" stroke="#000000" stroke-width="2" d="M58.102,37.093h2.753V26.225h-2.753V37.093z"/>
<circle fill="#333333" cx="62.159" cy="54.045" r="4.057"/>
<circle fill="#333333" cx="104.034" cy="49.989" r="4.057"/>
<path fill="#FFFFFF" d="M90.558,52.016h6.811v2.754h-6.811V52.016z"/>
<path fill="#FFFFFF" d="M90.558,45.207h6.811v5.506h-6.811V45.207z"/>
<path fill="#990000" d="M92.008,52.741h3.912v1.305h-3.912V52.741z"/>
<path fill="#CCCCCC" stroke="#000000" stroke-width="2" d="M60.855,45.207V22.313h13.476v4.637h8.113v-3.332h35.21v9.418
	l-4.058,8.114H87.951v4.057H60.855z"/>
<path fill="#BFBFBF" d="M120.261,5.361h10.867v45.932h-10.867V5.361z"/>
<path fill="#D9D9D9" d="M120.261,5.361h10.867v36.514h-10.867V5.361z"/>
<path fill="#F2F2F2" d="M120.261,5.361h10.867v23.617h-10.867V5.361z"/>
<path fill="none" stroke="#000000" stroke-width="2" d="M120.407,61.435V5.361h10.722v56.074"/>
<path fill="#B2B2B2" stroke="#000000" stroke-width="2" d="M35.789,18.257l-0.725-2.753h17.677l-0.724,2.753H35.789z"/>
<path fill="#E5E5E5" stroke="#000000" stroke-width="2" d="M35.064,14.779l1.449-4.057h14.779l1.448,4.057H35.064z"/>
<path fill="#F2F2F2" stroke="#000000" stroke-width="2" d="M33.76,14.779h20.285v0.725H33.76V14.779z"/>
<path fill="none" stroke="#FFFFFF" stroke-width="2" d="M63.464,42.454v-5.361h6.81"/>
<path fill="none" stroke="#000000" stroke-width="2" d="M70.273,37.093v5.361h-6.665"/>
<path fill="none" stroke="#FFFFFF" stroke-width="2" d="M108.091,38.542v-2.753h5.361"/>
<path fill="none" stroke="#000000" stroke-width="2" d="M113.596,35.789v2.753h-5.361"/>
<path fill="none" stroke="#999999" stroke-width="2" d="M90.558,50.713v-5.506h6.811"/>
<path fill="none" stroke="#999999" stroke-width="2" d="M90.558,54.77v-2.754h6.811"/>
<path fill="#F2F2F2" stroke="#000000" stroke-width="2" d="M87.226,42.598V41.15h30.428v1.448H87.226z"/>
<path fill="#F2F2F2" stroke="#000000" stroke-width="2" d="M54.77,46.656v-1.449h33.181v1.449H54.77z"/>
<path fill="#F2F2F2" stroke="#000000" stroke-width="2" d="M8.694,51.293v-1.305h46.655v1.305H8.694z"/>
<path fill="#F2F2F2" stroke="#000000" stroke-width="2" d="M4.057,76.359h124.318v1.304H4.057V76.359z"/>
<path fill="#F2F2F2" stroke="#000000" stroke-width="2" d="M4.057,66.941h124.318v1.304H4.057V66.941z"/>
<path fill="#D9D9D9" stroke="#000000" stroke-width="2" d="M118.958,4.057h13.62v1.304h-13.62V4.057z"/>
<path fill="#D9D9D9" stroke="#000000" stroke-width="2" d="M118.958,20.865h13.62v1.304h-13.62V20.865z"/>
<path fill="#D9D9D9" stroke="#000000" stroke-width="2" d="M118.958,37.093h13.62v1.449h-13.62V37.093z"/>
<path fill="#D9D9D9" stroke="#000000" stroke-width="2" d="M118.958,52.741h13.62v1.305h-13.62V52.741z"/>
<path fill="#7F7F7F" d="M135.185,66.941h4.058V4.636h-4.058V66.941z"/>
<path fill="#969696" d="M135.185,60.711h4.058V10.722h-4.058V60.711z"/>
<path fill="#ABABAB" d="M135.185,54.625h4.058V16.807h-4.058V54.625z"/>
<path fill="#C2C2C2" d="M135.185,48.54h4.058V22.893h-4.058V48.54z"/>
<path fill="#D9D9D9" d="M135.185,42.454h4.058V28.978h-4.058V42.454z"/>
<path fill="none" stroke="#000000" stroke-width="2" d="M135.185,66.941h4.058V4.636h-4.058V66.941"/>
<path fill="#CCCCCC" stroke="#000000" stroke-width="2" d="M139.243,7.389h1.304v3.912h-1.304V7.389z"/>
<path fill="#CCCCCC" stroke="#000000" stroke-width="2" d="M139.243,17.967h1.304v3.912h-1.304V17.967z"/>
<path fill="#CCCCCC" stroke="#000000" stroke-width="2" d="M139.243,28.544h1.304v3.912h-1.304V28.544z"/>
<path fill="#CCCCCC" stroke="#000000" stroke-width="2" d="M139.243,39.121h1.304v3.912h-1.304V39.121z"/>
<path fill="#CCCCCC" stroke="#000000" stroke-width="2" d="M139.243,49.553h1.304v4.058h-1.304V49.553z"/>
<path fill="#CCCCCC" stroke="#000000" stroke-width="2" d="M139.243,60.131h1.304v4.058h-1.304V60.131z"/>
</svg>
