<?xml version="1.0" encoding="utf-8"?>
<!-- Generator: Adobe Illustrator 14.0.0, SVG Export Plug-In . SVG Version: 6.00 Build 43363)  -->
<!DOCTYPE svg PUBLIC "-//W3C//DTD SVG 1.1//EN" "http://www.w3.org/Graphics/SVG/1.1/DTD/svg11.dtd">
<svg version="1.1" id="图层_1" xmlns="http://www.w3.org/2000/svg" xmlns:xlink="http://www.w3.org/1999/xlink" x="0px" y="0px"
	 width="115.646px" height="106.502px" viewBox="0 0 115.646 106.502" enable-background="new 0 0 115.646 106.502"
	 xml:space="preserve">
<path fill="#E5CB98" d="M55.103,3.241h7.872v19.333h-7.872V3.241z"/>
<path fill="#E5CB98" d="M26.51,3.821h28.593v18.291H26.51V3.821z"/>
<path fill="#E8D1A6" d="M55.103,4.747h7.872v16.554h-7.872V4.747z"/>
<path fill="#E8D1A6" d="M26.51,5.094h28.593v15.513H26.51V5.094z"/>
<path fill="#EDDBB5" d="M55.103,6.252h7.872V19.68h-7.872V6.252z"/>
<path fill="#EDDBB5" d="M26.51,6.715h28.593v12.618H26.51V6.715z"/>
<path fill="#F0E1C2" d="M55.103,7.525h7.872v10.65h-7.872V7.525z"/>
<path fill="#F0E1C2" d="M26.51,7.989h28.593V18.06H26.51V7.989z"/>
<path fill="#F2E5CE" d="M55.103,9.031h7.872v7.64h-7.872V9.031z"/>
<path fill="#F2E5CE" d="M26.51,9.262h28.593v7.177H26.51V9.262z"/>
<path fill="#F7EFDD" d="M55.103,10.651h7.872v4.746h-7.872V10.651z"/>
<path fill="#F7EFDD" d="M26.51,10.651h28.593v4.515H26.51V10.651z"/>
<path fill="#FAF5EB" d="M55.103,12.156h7.872v1.736h-7.872V12.156z"/>
<path fill="#FAF5EB" d="M26.51,12.156h28.593v1.736H26.51V12.156z"/>
<path fill="#663300" d="M27.782,22.112h27.32v0.694h-27.32V22.112z"/>
<path fill="#E5CB98" stroke="#000000" stroke-width="2" d="M109.742,40.749h2.547v62.511h-2.547V40.749z"/>
<path fill="#E5CB98" stroke="#000000" stroke-width="2" d="M5.788,43.411h103.954v57.187H5.788V43.411z"/>
<path fill="#E5CB98" stroke="#000000" stroke-width="2" d="M3.241,40.749h2.547v62.511H3.241V40.749z"/>
<path fill="#E8D1A1" d="M109.742,43.18h2.547v57.649h-2.547V43.18z"/>
<path fill="#E8D1A1" d="M5.788,45.611h103.954v52.788H5.788V45.611z"/>
<path fill="#E8D1A1" d="M3.241,43.18h2.547v57.649H3.241V43.18z"/>
<path fill="#E8D1A6" d="M109.742,45.611h2.547v52.788h-2.547V45.611z"/>
<path fill="#E8D1A6" d="M5.788,47.811h103.954v48.388H5.788V47.811z"/>
<path fill="#E8D1A6" d="M3.241,45.611h2.547v52.788H3.241V45.611z"/>
<path fill="#EBD7AE" d="M109.742,47.926h2.547v48.157h-2.547V47.926z"/>
<path fill="#EBD7AE" d="M5.788,49.894h103.954v44.222H5.788V49.894z"/>
<path fill="#EBD7AE" d="M3.241,47.926h2.547v48.157H3.241V47.926z"/>
<path fill="#EDDBB5" d="M109.742,50.125h2.547v43.759h-2.547V50.125z"/>
<path fill="#EDDBB5" d="M5.788,52.094h103.954v39.821H5.788V52.094z"/>
<path fill="#EDDBB5" d="M3.241,50.125h2.547v43.759H3.241V50.125z"/>
<path fill="#EDDBBA" d="M109.742,52.557h2.547v38.896h-2.547V52.557z"/>
<path fill="#EDDBBA" d="M5.788,54.293h103.954v35.423H5.788V54.293z"/>
<path fill="#EDDBBA" d="M3.241,52.557h2.547v38.896H3.241V52.557z"/>
<path fill="#F0E1C2" d="M109.742,54.988h2.547v34.034h-2.547V54.988z"/>
<path fill="#F0E1C2" d="M5.788,56.492h103.954v31.024H5.788V56.492z"/>
<path fill="#F0E1C2" d="M3.241,54.988h2.547v34.034H3.241V54.988z"/>
<path fill="#F2E5C9" d="M109.742,57.303h2.547v29.403h-2.547V57.303z"/>
<path fill="#F2E5C9" d="M5.788,58.576h103.954v26.741H5.788V58.576z"/>
<path fill="#F2E5C9" d="M3.241,57.303h2.547v29.403H3.241V57.303z"/>
<path fill="#F2E5CE" d="M109.742,59.734h2.547v24.542h-2.547V59.734z"/>
<path fill="#F2E5CE" d="M5.788,60.776h103.954v22.458H5.788V60.776z"/>
<path fill="#F2E5CE" d="M3.241,59.734h2.547v24.542H3.241V59.734z"/>
<path fill="#F5EBD6" d="M109.742,62.165h2.547v19.679h-2.547V62.165z"/>
<path fill="#F5EBD6" d="M5.788,62.975h103.954v18.06H5.788V62.975z"/>
<path fill="#F5EBD6" d="M3.241,62.165h2.547v19.679H3.241V62.165z"/>
<path fill="#F7EFDD" d="M109.742,64.48h2.547v15.05h-2.547V64.48z"/>
<path fill="#F7EFDD" d="M5.788,64.944h103.954v13.891H5.788V64.944z"/>
<path fill="#F7EFDD" d="M3.241,64.48h2.547v15.05H3.241V64.48z"/>
<path fill="#F7EFE3" d="M109.742,66.68h2.547v10.534h-2.547V66.68z"/>
<path fill="#F7EFE3" d="M5.788,67.143h103.954v9.492H5.788V67.143z"/>
<path fill="#F7EFE3" d="M3.241,66.68h2.547v10.534H3.241V66.68z"/>
<path fill="#FAF5EB" d="M109.742,69.111h2.547v5.904h-2.547V69.111z"/>
<path fill="#FAF5EB" d="M5.788,69.573h103.954v5.209H5.788V69.573z"/>
<path fill="#FAF5EB" d="M3.241,69.111h2.547v5.904H3.241V69.111z"/>
<path fill="#E5CB98" d="M88.789,40.749h2.663v62.511h-2.663V40.749z"/>
<path fill="#E8D1A1" d="M88.789,43.18h2.663v57.649h-2.663V43.18z"/>
<path fill="#E8D1A6" d="M88.789,45.611h2.663v52.788h-2.663V45.611z"/>
<path fill="#EBD7AE" d="M88.789,47.926h2.663v48.157h-2.663V47.926z"/>
<path fill="#EDDBB5" d="M88.789,50.125h2.663v43.759h-2.663V50.125z"/>
<path fill="#EDDBBA" d="M88.789,52.557h2.663v38.896h-2.663V52.557z"/>
<path fill="#F0E1C2" d="M88.789,54.988h2.663v34.034h-2.663V54.988z"/>
<path fill="#F2E5C9" d="M88.789,57.303h2.663v29.403h-2.663V57.303z"/>
<path fill="#F2E5CE" d="M88.789,59.734h2.663v24.542h-2.663V59.734z"/>
<path fill="#F5EBD6" d="M88.789,62.165h2.663v19.679h-2.663V62.165z"/>
<path fill="#F7EFDD" d="M88.789,64.48h2.663v15.05h-2.663V64.48z"/>
<path fill="#F7EFE3" d="M88.789,66.68h2.663v10.534h-2.663V66.68z"/>
<path fill="#FAF5EB" d="M88.789,69.111h2.663v5.904h-2.663V69.111z"/>
<path fill="none" stroke="#000000" stroke-width="2" d="M88.789,40.749h2.663v62.511h-2.663V40.749"/>
<path fill="#F7EAD1" d="M26.51,38.202h36.465v20.837H26.51V38.202z"/>
<path fill="#F2E5CC" d="M26.51,53.599l36.465-7.641v13.081H26.51V53.599z"/>
<path fill="none" stroke="#000000" stroke-width="2" d="M26.51,59.039V38.202h36.465v20.837"/>
<path fill="none" stroke="#000000" stroke-width="2" d="M55.103,3.241h7.872v19.333h-7.872V3.241"/>
<path fill="none" stroke="#000000" stroke-width="2" d="M26.51,3.821h28.593v18.291H26.51V3.821"/>
<path fill="#D9B366" stroke="#000000" stroke-width="2" d="M59.038,38.202v-1.273h0.695V25.468h-0.695v-3.936h2.663v3.936h-0.694
	v11.461h0.694v1.273H59.038z"/>
<path fill="#D9B366" stroke="#000000" stroke-width="2" d="M27.782,38.202v-1.273h0.695V25.468h-0.695v-3.936h2.547v3.936h-0.578
	v11.461h0.578v1.273H27.782z"/>
<path fill="#F2E5CC" stroke="#000000" stroke-width="2" d="M26.51,22.806h36.465v1.273H26.51V22.806z"/>
<path fill="#D9B366" stroke="#000000" stroke-width="2" d="M25.352,16.207h1.158v31.14h-1.158V16.207z"/>
</svg>
