<?xml version="1.0" encoding="utf-8"?>
<!-- Generator: Adobe Illustrator 14.0.0, SVG Export Plug-In . SVG Version: 6.00 Build 43363)  -->
<!DOCTYPE svg PUBLIC "-//W3C//DTD SVG 1.1//EN" "http://www.w3.org/Graphics/SVG/1.1/DTD/svg11.dtd">
<svg version="1.1" id="图层_1" xmlns="http://www.w3.org/2000/svg" xmlns:xlink="http://www.w3.org/1999/xlink" x="0px" y="0px"
	 width="91.577px" height="106.502px" viewBox="0 0 91.577 106.502" enable-background="new 0 0 91.577 106.502"
	 xml:space="preserve">
<path fill="#B2B2B2" d="M67.91,23.667V2.986h20.682v79.743H67.91V61.833H5.331V23.667H67.91z"/>
<path fill="#C2C2C2" d="M67.803,26.865V9.382h20.788v66.736H67.803V58.741H5.437V26.865H67.803z"/>
<path fill="#D1D1D1" d="M67.803,29.957V15.885h20.788v53.73H67.803V55.65H5.437V29.957H67.803z"/>
<path fill="#E3E3E3" d="M67.803,33.049V22.388h20.788v40.725H67.803V52.451H5.437V33.049H67.803z"/>
<path fill="#F2F2F2" d="M67.91,36.141v-7.25h20.682V56.61H67.91v-7.25H5.331V36.141H67.91z"/>
<path fill="none" stroke="#000000" stroke-width="2" d="M67.91,23.667V2.986h20.682v79.743H67.91V61.833H5.331V23.667H67.91"/>
<path fill="none" stroke="#000000" stroke-width="2" d="M67.91,23.667v38.166"/>
<path fill="#A6A6A6" stroke="#000000" stroke-width="2" d="M74.732,4.797H67.91v76.119h6.822V4.797z"/>
<path fill="none" stroke="#000000" stroke-width="2" d="M76.544,75.693H66.097"/>
<path fill="none" stroke="#000000" stroke-width="2" d="M76.544,10.022H66.097"/>
<path fill="none" stroke="#000000" stroke-width="2" d="M76.544,72.494H66.097"/>
<path fill="none" stroke="#000000" stroke-width="2" d="M76.544,13.22H66.097"/>
<path fill="none" stroke="#000000" stroke-width="2" d="M76.544,68.656H66.097"/>
<path fill="none" stroke="#000000" stroke-width="2" d="M76.544,16.844H66.097"/>
<path fill="none" stroke="#000000" stroke-width="2" d="M76.544,63.646H66.097"/>
<path fill="none" stroke="#000000" stroke-width="2" d="M76.544,22.069H66.097"/>
<path fill="none" stroke="#000000" stroke-width="2" d="M76.544,58.422H66.097"/>
<path fill="none" stroke="#000000" stroke-width="2" d="M76.544,27.292H66.097"/>
<path fill="none" stroke="#000000" stroke-width="2" d="M76.544,53.198H66.097"/>
<path fill="none" stroke="#000000" stroke-width="2" d="M76.544,32.516H66.097"/>
<path fill="none" stroke="#000000" stroke-width="2" d="M76.544,47.974H66.097"/>
<path fill="none" stroke="#000000" stroke-width="2" d="M76.544,37.527H66.097"/>
<path fill="none" stroke="#000000" stroke-width="2" d="M76.544,42.75H66.097"/>
<path fill="none" stroke="#000000" stroke-width="2" d="M76.544,79.104H66.097"/>
<path fill="none" stroke="#000000" stroke-width="2" d="M76.544,6.61H66.097"/>
<path fill="none" stroke="#000000" stroke-width="2" d="M76.544,80.916H66.097"/>
<path fill="none" stroke="#000000" stroke-width="2" d="M76.544,4.797H66.097"/>
<path fill="none" stroke="#000000" stroke-width="2" d="M66.097,4.797v76.119"/>
<path fill="#D9D9D9" stroke="#000000" stroke-width="2" d="M34.541,18.656v-1.813l1.173-1.172h1.813l0.959,1.172v1.813l-0.959,0.96
	l0.64,1.386l1.812-1.813v-2.985l-1.812-2.025h-3.092l-1.919,2.025v2.985l1.599,1.813l0.959-1.386L34.541,18.656z"/>
<path fill="#D9D9D9" stroke="#000000" stroke-width="2" d="M38.379,19.403h-3.625v4.478h3.625V19.403z"/>
<path fill="#7F7F7F" stroke="#000000" stroke-width="2" d="M57.462,72.281l-3.412-12.26H19.403l-3.625,12.26H57.462z"/>
<path fill="#B2B2B2" stroke="#000000" stroke-width="2" d="M60.874,75.693v-3.412H12.367v3.412H60.874z"/>
<path d="M57.462,23.88h0.106v37.953H57.25V23.88H57.462z"/>
<path d="M15.778,23.88h0.213v37.953h-0.32V23.88H15.778z"/>
<path fill="#999999" stroke="#000000" stroke-width="2" d="M67.91,75.693H5.331v27.718H67.91V75.693z"/>
<path fill="#8C8C8C" stroke="#000000" stroke-width="2" d="M62.686,75.693H10.554v24.307h52.132V75.693z"/>
<path fill="#D9D9D9" stroke="#000000" stroke-width="2" d="M59.061,46.375H13.966v1.599h45.095V46.375z"/>
<path fill="#D9D9D9" stroke="#000000" stroke-width="2" d="M59.061,41.151H13.966v1.6h45.095V41.151z"/>
<path fill="#D9D9D9" stroke="#000000" stroke-width="2" d="M59.061,35.927H13.966v1.6h45.095V35.927z"/>
<path fill="#BFBFBF" stroke="#000000" stroke-width="2" d="M59.061,51.599H13.966v1.599h45.095V51.599z"/>
<path fill="#BFBFBF" stroke="#000000" stroke-width="2" d="M59.061,55.01H13.966v1.6h45.095V55.01z"/>
<path fill="#BFBFBF" stroke="#000000" stroke-width="2" d="M59.061,27.292H13.966v1.599h45.095V27.292z"/>
<path fill="#BFBFBF" stroke="#000000" stroke-width="2" d="M59.061,30.703H13.966v1.6h45.095V30.703z"/>
<path fill="#A6A6A6" stroke="#000000" stroke-width="2" d="M59.061,57.569H13.966v1.706h45.095V57.569z"/>
<path fill="#A6A6A6" stroke="#000000" stroke-width="2" d="M59.061,24.627H13.966v1.599h45.095V24.627z"/>
<path fill="#A6A6A6" stroke="#000000" stroke-width="2" d="M59.061,22.069H13.966v1.599h45.095V22.069z"/>
<path fill="#999999" stroke="#000000" stroke-width="2" d="M5.331,85.394H2.985v8.635h2.346V85.394z"/>
<path fill="#737373" stroke="#000000" stroke-width="2" d="M5.331,94.029H2.985v4.158h2.346V94.029z"/>
<path fill="#D9D9D9" stroke="#000000" stroke-width="2" d="M5.331,80.916H2.985v4.478h2.346V80.916z"/>
<path fill="#B2B2B2" stroke="#000000" stroke-width="2" d="M48.827,72.281l-3.518-13.858H27.932l-3.518,13.858H48.827z"/>
</svg>
