<?xml version="1.0" encoding="utf-8"?>
<!-- Generator: Adobe Illustrator 14.0.0, SVG Export Plug-In . SVG Version: 6.00 Build 43363)  -->
<!DOCTYPE svg PUBLIC "-//W3C//DTD SVG 1.1//EN" "http://www.w3.org/Graphics/SVG/1.1/DTD/svg11.dtd">
<svg version="1.1" id="图层_1" xmlns="http://www.w3.org/2000/svg" xmlns:xlink="http://www.w3.org/1999/xlink" x="0px" y="0px"
	 width="85.601px" height="106.502px" viewBox="0 0 85.601 106.502" enable-background="new 0 0 85.601 106.502"
	 xml:space="preserve">
<path fill="#CCCCCC" d="M5.225,3.016h75.353v100.471H5.225V3.016z"/>
<path fill="#D9D9D9" d="M8.841,3.016h67.918v100.471H8.841V3.016z"/>
<path fill="#E5E5E5" d="M13.463,3.016h58.675v100.471H13.463V3.016z"/>
<path fill="#F2F2F2" d="M20.898,3.016h43.806v100.471H20.898V3.016z"/>
<path fill="#FAFAFA" d="M27.127,3.016h31.347v100.471H27.127V3.016z"/>
<path fill="#FFFFFF" d="M35.968,3.016h13.664v100.471H35.968V3.016z"/>
<path fill="none" stroke="#000000" stroke-width="2" d="M5.225,3.016h75.353v100.471H5.225V3.016"/>
<path fill="#CCCCCC" stroke="#000000" stroke-width="2" d="M3.014,10.25h79.573v1.205H3.014V10.25z"/>
<path fill="#CCCCCC" stroke="#000000" stroke-width="2" d="M3.014,24.918h79.573v1.005H3.014V24.918z"/>
<path fill="#CCCCCC" stroke="#000000" stroke-width="2" d="M3.014,13.465h79.573v1.005H3.014V13.465z"/>
<path fill="#E5E5E5" stroke="#000000" stroke-width="2" d="M3.616,14.47h1.608v10.448H3.616V14.47z"/>
<path fill="#E5E5E5" stroke="#000000" stroke-width="2" d="M80.577,14.47h1.406v10.448h-1.406V14.47z"/>
<path fill="#B2B2B2" stroke="#000000" stroke-width="2" d="M81.984,19.695v3.215l-0.201,3.416l-0.401,3.215l-0.603,3.014
	l-0.804,3.216l-1.206,2.813l-1.406,2.813l-1.809,2.411l-2.211,2.411l-2.813,2.211l-3.215,1.809l-3.617,1.607l-4.22,1.205
	l-5.023,1.005l-5.426,0.603L42.8,54.859l-6.229-0.201l-5.426-0.603l-5.023-1.005l-4.22-1.205l-3.617-1.607l-3.215-1.809
	l-2.813-2.211l-2.21-2.411l-1.809-2.411l-1.406-2.813L5.626,35.77l-0.804-3.216L4.22,29.54l-0.402-3.215l-0.201-3.416v-3.215h1.005
	v3.215l0.201,3.014l0.402,3.215l0.603,3.015l0.804,3.014l1.206,2.813l1.406,2.612l1.809,2.411l2.21,2.411l2.612,2.01l3.215,1.809
	l3.617,1.607l4.019,1.406l4.823,0.804l5.224,0.604l6.028,0.2l6.028-0.2l5.225-0.604l4.822-0.804l4.02-1.406l3.616-1.607l3.216-1.809
	l2.612-2.01l2.21-2.411l1.809-2.411l1.406-2.612l1.206-2.813l0.804-3.014l0.603-3.015l0.402-3.215l0.2-3.014v-3.215H81.984z"/>
<path fill="#FFCC00" stroke="#000000" stroke-width="2" d="M32.352,52.649h20.897v4.22H32.352V52.649z"/>
<path fill="#FFFFFF" d="M32.954,53.854h19.894v1.005H32.954V53.854z"/>
</svg>
