<?xml version="1.0" encoding="utf-8"?>
<!-- Generator: Adobe Illustrator 14.0.0, SVG Export Plug-In . SVG Version: 6.00 Build 43363)  -->
<!DOCTYPE svg PUBLIC "-//W3C//DTD SVG 1.1//EN" "http://www.w3.org/Graphics/SVG/1.1/DTD/svg11.dtd">
<svg version="1.1" id="图层_1" xmlns="http://www.w3.org/2000/svg" xmlns:xlink="http://www.w3.org/1999/xlink" x="0px" y="0px"
	 width="43.805px" height="106.502px" viewBox="0 0 43.805 106.502" enable-background="new 0 0 43.805 106.502"
	 xml:space="preserve">
<path fill="#E5E5E5" stroke="#000000" stroke-width="2" d="M40.791,90.827V15.475l-0.402-2.411l-1.205-2.412l-1.607-2.21
	l-2.411-1.809l-2.813-1.406l-3.215-1.206L25.72,3.217l-3.818-0.2l-3.817,0.2l-3.617,0.804l-3.215,1.206L8.64,6.633L6.229,8.442
	l-1.809,2.21l-1.005,2.412l-0.401,2.411v75.353l0.401,2.611l1.005,2.412l1.809,2.009l2.411,2.01l2.612,1.406l3.215,1.206
	l3.617,0.804l3.817,0.201l3.818-0.201l3.416-0.804l3.215-1.206l2.813-1.406l2.411-2.01l1.607-2.009l1.205-2.412L40.791,90.827z"/>
<path fill="#FFFFFF" d="M35.969,90.425V16.077l-1.005-4.621l-1.406-2.211l-1.608-1.809l-2.21-1.406l-2.411-1.206l-2.612-0.804
	l-2.813-0.2l-2.813,0.2l-2.813,0.804l-2.411,1.206l-3.818,3.215l-2.21,4.421l-0.201,2.411v74.348l1.206,4.622l3.014,4.019
	l2.01,1.406l2.411,1.206l2.813,0.804l2.813,0.2l2.813-0.2l2.612-0.804l2.411-1.206l2.21-1.406l1.608-1.809l1.406-2.21L35.969,90.425
	z"/>
<path fill="none" stroke="#CCCCCC" stroke-width="2" d="M30.543,28.737l-1.005-0.201h-1.005l-1.205-0.2h-1.005l-1.206-0.201h-1.205
	h-1.206h-1.205h-1.206H19.09h-1.206l-1.206,0.201h-1.205l-1.005,0.2h-1.205l-1.005,0.201v17.481"/>
<path fill="none" stroke="#7F7F7F" stroke-width="2" d="M12.258,46.218l1.005,0.201l1.004,0.201l1.206,0.201h1.205l1.206,0.2h1.206
	h1.205h1.206h1.205h1.206h1.005l1.205-0.2h1.206l1.205-0.201l1.005-0.201l1.005-0.201v-17.28"/>
<path fill="none" stroke="#000000" stroke-width="2" d="M19.29,91.229l3.416-0.804l1.005-3.617l-2.612-2.411"/>
<path fill="none" stroke="#7F7F7F" stroke-width="2" d="M21.098,84.397L17.682,85.2l-0.804,3.416l2.411,2.612"/>
<circle fill="#CCCCCC" stroke="#000000" stroke-width="2" cx="20.295" cy="87.813" r="2.21"/>
<circle fill="#B2B2B2" stroke="#000000" stroke-width="2" cx="20.295" cy="87.612" r="1.607"/>
<circle fill="#CCCCCC" stroke="#000000" stroke-width="2" cx="20.295" cy="87.612" r="1.206"/>
</svg>
