<?xml version="1.0" encoding="utf-8"?>
<!-- Generator: Adobe Illustrator 14.0.0, SVG Export Plug-In . SVG Version: 6.00 Build 43363)  -->
<!DOCTYPE svg PUBLIC "-//W3C//DTD SVG 1.1//EN" "http://www.w3.org/Graphics/SVG/1.1/DTD/svg11.dtd">
<svg version="1.1" id="图层_1" xmlns="http://www.w3.org/2000/svg" xmlns:xlink="http://www.w3.org/1999/xlink" x="0px" y="0px"
	 width="31.73px" height="106.502px" viewBox="0 0 31.73 106.502" enable-background="new 0 0 31.73 106.502" xml:space="preserve">
<path fill="#E5E5E5" stroke="#000000" stroke-width="2" d="M23.04,31.122l1.212,0.809l1.213,1.01l1.011,1.213l0.808,1.415
	l0.606,1.414l0.606,1.617l0.202,1.616l0.202,1.617v61.84H2.83v-61.84l0.202-1.617L3.234,38.6l0.606-1.617l0.606-1.414l0.809-1.415
	l1.01-1.213l1.213-1.01l1.213-0.809l0.606-5.457h13.136L23.04,31.122z"/>
<path fill="#E5E5E5" stroke="#000000" stroke-width="2" d="M10.307,10.913h11.317v0.808H10.307V10.913z"/>
<path fill="#999999" stroke="#000000" stroke-width="2" d="M10.307,25.665h4.042V11.721h-4.042V25.665z"/>
<path stroke="#000000" stroke-width="2" d="M7.68,17.38h2.627v3.233H7.68V17.38z"/>
<path stroke="#000000" stroke-width="2" d="M9.298,8.488h13.136v0.809H9.298V8.488z"/>
<path fill="#B2B2B2" stroke="#000000" stroke-width="2" d="M3.638,15.763h4.851v3.233H3.638V15.763z"/>
<path fill="#B2B2B2" stroke="#000000" stroke-width="2" d="M14.349,11.721h7.275v13.944h-7.275V11.721z"/>
<path fill="#7F7F7F" stroke="#000000" stroke-width="2" d="M3.638,18.996h4.851v3.233H3.638V18.996z"/>
<path fill="#7F7F7F" stroke="#000000" stroke-width="2" d="M9.298,9.296h13.136v1.617H9.298V9.296z"/>
<path fill="#7F7F7F" stroke="#000000" stroke-width="2" d="M6.064,4.447v4.041h19.603V4.447l-4.851-1.617h-9.902L6.064,4.447z"/>
<path fill="#4C4C4C" d="M7.68,7.68h3.233V4.447H7.68V7.68z"/>
<path fill="#4C4C4C" d="M12.329,7.68h3.233V4.447h-3.233V7.68z"/>
<path fill="#4C4C4C" d="M17.178,7.68h3.031V4.447h-3.031V7.68z"/>
<path fill="#4C4C4C" d="M21.827,7.68h3.031V4.447h-3.031V7.68z"/>
<path fill="#FFFFFF" stroke="#000000" stroke-width="2" d="M7.68,41.833H28.9V90.74H7.68V41.833z"/>
</svg>
