<?xml version="1.0" encoding="utf-8"?>
<!-- Generator: Adobe Illustrator 14.0.0, SVG Export Plug-In . SVG Version: 6.00 Build 43363)  -->
<!DOCTYPE svg PUBLIC "-//W3C//DTD SVG 1.1//EN" "http://www.w3.org/Graphics/SVG/1.1/DTD/svg11.dtd">
<svg version="1.1" id="图层_1" xmlns="http://www.w3.org/2000/svg" xmlns:xlink="http://www.w3.org/1999/xlink" x="0px" y="0px"
	 width="71.935px" height="106.502px" viewBox="0 0 71.935 106.502" enable-background="new 0 0 71.935 106.502"
	 xml:space="preserve">
<path fill="#4C4C4C" d="M4.622,3.017h62.691v100.469H4.622V3.017z"/>
<path fill="#666666" d="M4.622,3.017h60.683v100.469H4.622V3.017z"/>
<path fill="#7F7F7F" d="M4.622,3.017h56.865v100.469H4.622V3.017z"/>
<path fill="#B2B2B2" d="M4.622,3.017h52.846v100.469H4.622V3.017z"/>
<path fill="#CCCCCC" d="M4.622,3.017h43.201v100.469H4.622V3.017z"/>
<path fill="#E5E5E5" d="M4.622,3.017h29.336v100.469H4.622V3.017z"/>
<path fill="#FFFFFF" d="M4.622,3.017h15.673v100.469H4.622V3.017z"/>
<path fill="#E5E5E5" d="M4.622,3.017h9.645v100.469H4.622V3.017z"/>
<path fill="#CCCCCC" d="M4.622,3.017h3.818v100.469H4.622V3.017z"/>
<path fill="none" stroke="#000000" stroke-width="2" d="M4.622,3.017h62.691v100.469H4.622V3.017"/>
<path fill="#666666" d="M3.014,3.017h65.907v1.607H3.014V3.017z"/>
<path fill="none" stroke="#E5E5E5" stroke-width="2" d="M4.622,3.017H3.014v1.607"/>
<path fill="none" stroke="#E5E5E5" stroke-width="2" d="M68.921,3.017h-64.3"/>
<path fill="none" stroke="#000000" stroke-width="2" d="M3.014,4.624h65.907V3.017"/>
<path fill="#666666" d="M3.014,35.569h65.907v1.607H3.014V35.569z"/>
<path fill="none" stroke="#E5E5E5" stroke-width="2" d="M4.622,35.569H3.014v1.607"/>
<path fill="none" stroke="#E5E5E5" stroke-width="2" d="M68.921,35.569h-64.3"/>
<path fill="none" stroke="#000000" stroke-width="2" d="M3.014,37.176h65.907v-1.607"/>
<path fill="#666666" d="M3.014,68.322h65.907v1.607H3.014V68.322z"/>
<path fill="none" stroke="#E5E5E5" stroke-width="2" d="M4.622,68.322H3.014v1.607"/>
<path fill="none" stroke="#E5E5E5" stroke-width="2" d="M68.921,68.322h-64.3"/>
<path fill="none" stroke="#000000" stroke-width="2" d="M3.014,69.929h65.907v-1.607"/>
<path fill="#666666" d="M3.014,101.878h65.907v1.607H3.014V101.878z"/>
<path fill="none" stroke="#E5E5E5" stroke-width="2" d="M4.622,101.878H3.014v1.607"/>
<path fill="none" stroke="#E5E5E5" stroke-width="2" d="M68.921,101.878h-64.3"/>
<path fill="none" stroke="#000000" stroke-width="2" d="M3.014,103.486h65.907v-1.607"/>
</svg>
