<?xml version="1.0" encoding="utf-8"?>
<!-- Generator: Adobe Illustrator 14.0.0, SVG Export Plug-In . SVG Version: 6.00 Build 43363)  -->
<!DOCTYPE svg PUBLIC "-//W3C//DTD SVG 1.1//EN" "http://www.w3.org/Graphics/SVG/1.1/DTD/svg11.dtd">
<svg version="1.1" id="图层_1" xmlns="http://www.w3.org/2000/svg" xmlns:xlink="http://www.w3.org/1999/xlink" x="0px" y="0px"
	 width="144.749px" height="97.078px" viewBox="0 0 144.749 97.078" enable-background="new 0 0 144.749 97.078"
	 xml:space="preserve">
<path fill="#666638" d="M140.546,87.225V41.729L83.748,13.33V4.781l-4.202-0.579l-3.912-0.145H74.62h-1.159h-4.492l-4.781,0.145
	l-3.332,0.579v8.549L4.058,41.729v45.496v0.289l4.057,1.739l4.202,0.725l5.361,0.724l4.201,0.436l4.492,0.435l5.216,0.289
	l5.361,0.29l5.796,0.29l6.085,0.145l6.521,0.146l6.52,0.145h3.478l3.478,0.145h3.478l6.955-0.145h6.81l6.521-0.145l6.23-0.29
	l5.94-0.146l5.65-0.289l5.216-0.29l4.927-0.435l4.347-0.435l3.912-0.435l5.071-0.725l4.491-1.015l2.174-1.159V87.225z"/>
<path fill="#78784F" d="M131.707,88.094V42.164L82.155,13.33V4.636H82.01l-4.202-0.435l-2.463-0.145H74.33h-1.014h-4.782
	l-4.347,0.289l-1.594,0.29h-0.145v8.693L13.041,42.164v45.931v0.145l3.768,1.449l4.926,0.869l5.071,0.58l5.796,0.579l4.491,0.29
	l4.637,0.145l5.071,0.29l5.361,0.145l5.506,0.146l5.65,0.145h3.043h2.897h3.043h6.085h5.796l5.651-0.145l5.506-0.146l5.071-0.29
	l4.926-0.145l4.492-0.29l4.347-0.289l5.506-0.58l4.637-0.579l4.636-0.87l2.608-1.304L131.707,88.094z"/>
<path fill="#8A8A66" d="M122.724,88.819V42.598L80.705,13.33V4.636l-4.347-0.579H74.91h-0.87h-0.869h-4.057l-4.202,0.289
	l-1.014,0.29v8.693L22.025,42.598v46.221v0.289l4.202,1.305l4.636,0.725l4.637,0.435l5.216,0.435l5.796,0.289l4.202,0.146
	l4.491,0.29h4.782l4.781,0.145h2.463h2.608h7.534h4.926l4.782-0.145l4.636-0.146l4.348-0.145l4.201-0.146l5.651-0.435l4.926-0.435
	l4.202-0.435l4.347-0.725l3.188-1.159L122.724,88.819z"/>
<path fill="#9C9C7D" d="M113.886,89.688v-46.8L79.257,13.33V4.636h-0.146l-4.057-0.579h-1.304h-1.449l-4.781,0.145l-1.884,0.435
	h-0.145v8.693l-34.63,29.559v46.8l0.146,0.145l3.622,1.159l3.912,0.58l5.071,0.435l4.491,0.289l4.927,0.146l5.361,0.29l5.795,0.145
	h2.028h2.029h2.028h6.23h5.94l5.65-0.29l5.217-0.145l4.926-0.29l4.347-0.29l4.781-0.435l4.202-0.725l2.174-0.869L113.886,89.688z"/>
<path fill="#B0B099" d="M104.903,90.557V43.323L77.808,13.33V4.636h-0.145l-3.188-0.579h-1.015h-1.159l-4.491,0.289l-0.725,0.29
	h-0.146v8.693L39.846,43.323v47.234l0.146,0.145l3.622,0.87l4.347,0.435l4.347,0.435l5.071,0.145l4.202,0.146l4.491,0.145h1.594
	h1.449h1.594h4.781h4.637l4.491-0.145l4.058-0.146l4.926-0.29l4.202-0.289l3.912-0.58l3.043-0.725L104.903,90.557z"/>
<path fill="#C2C2B0" d="M95.919,91.282V43.758L76.214,13.33V4.636l0,0l-2.318-0.579h-0.725h-0.869l-3.768,0.579H68.39v8.693
	L48.829,43.758v47.524l3.622,0.725l4.058,0.435l5.36,0.29l6.086,0.145h2.173h2.174h4.491l4.202-0.145l5.506-0.29l4.637-0.29
	l3.912-0.579l0.579-0.146L95.919,91.282z"/>
<path fill="#D4D4C7" d="M86.936,92.151V44.192L74.765,13.33V4.636l0,0L74.62,4.492l-1.304-0.435h-0.436h-0.579l-2.174,0.435
	l-0.145,0.145h-0.145v8.693L57.668,44.192v47.959l4.491,0.435l4.057,0.146l3.623,0.145h1.304h1.159h5.071l4.347-0.29l3.912-0.29
	l1.015-0.145H86.936z"/>
<path fill="#E5E5DD" d="M77.952,93.02V44.627L73.171,13.33V4.781V4.492l-0.145-0.29l-0.29-0.145h-0.435h-0.435l-0.146,0.145
	l-0.289,0.29v0.289v8.549l-4.781,31.297V93.02h5.65H77.952z"/>
<path fill="none" stroke="#000000" stroke-width="2" d="M140.546,41.729v0.145l-4.057,0.869l-4.202,0.29l-5.361,0.435l-4.202,0.145
	l-4.491,0.29l-5.216,0.145l-5.361,0.146l-5.796,0.145h-6.085l-6.521,0.146h-6.52l-3.478,0.145H75.78H65.347l-6.81-0.145h-6.521
	l-6.23-0.146l-5.94-0.145l-5.65-0.146l-5.216-0.145l-4.927-0.145l-4.347-0.29l-5.796-0.29l-4.491-0.289l-3.912-0.58l-1.449-0.435
	v-0.145"/>
<path fill="none" stroke="#000000" stroke-width="2" d="M60.856,13.33h22.893"/>
<path fill="none" stroke="#000000" stroke-width="2" d="M140.546,87.225V41.729L83.748,13.33V4.781l-4.202-0.579l-3.912-0.145H74.62
	h-1.159h-4.492l-4.781,0.145l-3.332,0.579v8.549L4.058,41.729v45.496v0.289l4.057,1.739l4.202,0.725l5.361,0.724l4.201,0.436
	l4.492,0.435l5.216,0.289l5.361,0.29l5.796,0.29l6.085,0.145l6.521,0.146l6.52,0.145h3.478l3.478,0.145h3.478l6.955-0.145h6.81
	l6.521-0.145l6.23-0.29l5.94-0.146l5.65-0.289l5.216-0.29l4.927-0.435l4.347-0.435l3.912-0.435l5.071-0.725l4.491-1.015l2.174-1.159
	V87.225"/>
<path fill="#7F7F59" stroke="#000000" stroke-width="2" d="M57.668,18.401l-0.435-1.014l-12.751,5.216l0.58,1.304l1.448,0.58h0.435
	l1.449-0.146l1.884-0.435l1.159-0.435l0.725-0.29l1.304-0.579l1.015-0.58l1.883-1.304l1.159-1.304l0.146-0.435V18.401z"/>
<path fill="#7F7F59" stroke="#000000" stroke-width="2" d="M40.861,28.399l-0.869-2.174L13.62,37.093l0.87,2.318l1.159,1.014
	l1.304,0.29l1.738,0.145l2.028-0.145l2.318-0.435l1.159-0.29l1.305-0.29l1.304-0.435l1.304-0.435l1.305-0.579l1.304-0.58
	l1.449-0.579l1.159-0.725l1.159-0.58l1.014-0.724l1.015-0.58l1.738-1.304l1.304-1.449l0.87-1.159l0.435-1.159l0.145-0.579
	L40.861,28.399z"/>
<path fill="#CCCCBD" stroke="#000000" stroke-width="2" d="M49.844,17.822l1.448-0.435l1.159-0.436l1.739-0.289l0.435-0.146
	l1.449,0.146l1.014,0.435l0.146,0.29v0.435l-0.725,1.159l-1.449,1.304l-1.015,0.579l-1.159,0.58l-1.158,0.579l-1.305,0.58
	l-1.304,0.29l-2.174,0.435h-1.738l-0.435-0.29l-0.29-0.435l-0.145-0.435l0.725-1.159l1.448-1.305l1.015-0.724l1.159-0.58
	L49.844,17.822z"/>
<path fill="#CCCCBD" stroke="#000000" stroke-width="2" d="M24.922,27.24l1.305-0.435l1.448-0.58l1.305-0.29l1.158-0.435l1.305-0.29
	l2.318-0.435l1.014-0.145h1.015h0.869l1.449,0.29l1.159,0.435l0.725,0.869v0.435v0.58l-0.436,1.159l-0.869,1.159l-1.304,1.304
	l-1.738,1.449L34.63,32.89l-1.015,0.725l-1.304,0.579l-1.159,0.725l-1.304,0.58l-1.305,0.579l-1.304,0.58l-1.304,0.435l-1.305,0.435
	l-1.304,0.29l-1.304,0.289l-2.174,0.435l-1.014,0.146h-1.015h-0.869l-1.594-0.29L14.2,37.962l-0.58-0.869l-0.145-0.435v-0.58
	l0.869-1.738l1.159-1.159l1.449-1.449l1.884-1.304l1.159-0.725l1.159-0.58l1.159-0.724l1.304-0.58L24.922,27.24z"/>
</svg>
