<?xml version="1.0" encoding="utf-8"?>
<!-- Generator: Adobe Illustrator 14.0.0, SVG Export Plug-In . SVG Version: 6.00 Build 43363)  -->
<!DOCTYPE svg PUBLIC "-//W3C//DTD SVG 1.1//EN" "http://www.w3.org/Graphics/SVG/1.1/DTD/svg11.dtd">
<svg version="1.1" id="图层_1" xmlns="http://www.w3.org/2000/svg" xmlns:xlink="http://www.w3.org/1999/xlink" x="0px" y="0px"
	 width="144.749px" height="99.137px" viewBox="0 0 144.749 99.137" enable-background="new 0 0 144.749 99.137"
	 xml:space="preserve">
<path fill="#7F7F7F" stroke="#000000" stroke-width="2" d="M140.377,41.512l-0.273,39.6l-0.272,1.366l-2.731,2.731l-5.188,2.457
	l-3.277,1.093l-4.097,1.093l-4.37,1.092l-4.643,0.82l-5.188,0.818l-5.735,0.819l-5.735,0.546l-6.281,0.547l-6.555,0.273
	l-6.827,0.272h-6.828h-7.101l-6.555-0.272l-6.555-0.273l-6.281-0.547l-6.008-0.546l-5.462-0.819l-5.463-0.818l-4.643-0.82
	l-4.369-0.818l-4.097-1.094l-6.009-2.457l-4.097-2.458L4.645,82.75l-0.273-1.365L4.098,40.966l1.366-3.551l1.639-3.55l2.458-3.277
	l2.73-3.004l3.277-3.004l3.551-3.004l4.097-2.458l4.369-2.458l4.916-2.185l4.916-1.912l5.462-1.639l5.462-1.366l5.735-1.365
	l6.009-0.819l6.008-0.273l6.281-0.273l6.281,0.273l6.009,0.273l6.008,0.819l5.735,1.365l5.462,1.366l5.462,1.639l4.916,1.912
	l4.916,2.185l4.37,2.458l3.823,2.731l3.823,2.731l3.004,3.004l3.005,3.277l2.185,3.55l1.639,3.55L140.377,41.512z"/>
<path fill="#CCCCCC" stroke="#CCCCCC" stroke-width="2" d="M97.5,52.709l-3.005,0.273h-3.004l-3.004,0.273H85.21l-3.277,0.272
	h-3.004h-3.277h-3.277V6.828l5.189,0.819l4.643,2.458l4.369,3.823l3.824,4.916l3.004,6.281l2.458,6.828l1.365,7.92l0.546,8.193
	v1.092v1.366L97.5,51.617V52.709z"/>
<path fill="#CCCCCC" stroke="#CCCCCC" stroke-width="2" d="M23.216,49.705l5.188,0.819l6.009,0.819l6.281,0.819l6.555,0.546v-4.643
	l0.546-8.193l1.365-7.92l2.458-6.828l3.004-6.281l3.551-4.916l4.369-3.823l4.644-2.458l5.188-0.819l-4.916,0.273l-4.916,0.546
	L57.9,8.739l-4.643,1.366l-4.37,1.639l-3.823,2.185l-3.823,2.458l-3.551,2.458l-3.276,3.004l-2.731,3.277l-2.458,3.277l-2.185,3.55
	l-1.639,3.823l-1.093,4.097l-0.819,4.097l-0.272,4.097V49.705z"/>
<path fill="#E5E5E5" stroke="#FFFFFF" stroke-width="2" d="M47.522,52.709l3.004,0.273h3.005l3.004,0.273h3.004l3.277,0.272h3.277
	h3.004h3.277V6.828l-5.188,0.819l-4.644,2.458l-4.369,3.823l-3.551,4.916l-3.004,6.281l-2.458,6.828l-1.365,7.92l-0.546,8.193v1.092
	v1.366v1.093L47.522,52.709z"/>
<path fill="#999999" stroke="#999999" stroke-width="2" d="M140.651,40.966l-1.912,2.458l-4.097,2.185l-5.735,1.912l-3.55,1.092
	l-3.823,0.819v-1.365l-0.273-4.097l-0.819-4.097l-1.093-4.097l-1.639-3.823l-2.185-3.55l-2.458-3.277l-2.73-3.277l-3.277-3.004
	l-3.551-2.458l-3.823-2.458l-3.823-2.185l-4.37-1.639l-4.643-1.366l-4.643-1.092L77.29,7.101l-4.916-0.273l6.281,0.273l6.009,0.273
	l6.008,0.819l5.735,1.092l5.462,1.365l5.189,1.639l5.188,1.912l4.643,2.185l4.37,2.458l4.097,2.458l3.55,3.004l3.277,3.004
	l3.005,3.004l2.185,3.55l1.912,3.55L140.651,40.966z"/>
<path fill="#B2B2B2" stroke="#B2B2B2" stroke-width="2" d="M4.098,40.966l3.824,3.55l4.916,2.185l3.004,0.819l3.55,1.092
	l3.824,0.819v-1.365l0.272-4.097l0.819-4.097l1.093-4.097l1.639-3.823l2.185-3.55l2.458-3.277l2.731-3.277l3.276-3.004l3.551-2.458
	l3.823-2.458l3.823-2.185l4.37-1.639L57.9,8.739l4.643-1.092l4.916-0.546l4.916-0.273l-6.281,0.273l-6.008,0.273L54.35,8.193
	l-5.735,1.092l-5.735,1.365L37.69,12.29l-4.915,1.912l-4.644,2.185l-4.643,2.458l-3.823,2.458l-3.823,3.004l-3.277,3.004
	l-2.731,3.004l-2.458,3.55l-1.911,3.55L4.098,40.966z"/>
<path fill="#B2B2B2" stroke="#B2B2B2" stroke-width="2" d="M121.533,49.705l-5.189,0.819l-6.008,0.819l-6.281,0.819L97.5,52.709
	l0.272-4.643l-0.546-8.193l-1.365-7.92l-2.458-6.828L90.4,18.844l-3.824-4.916l-4.369-3.823l-4.643-2.458l-5.189-0.819l4.916,0.273
	l4.916,0.546l4.643,1.092l4.643,1.366l4.37,1.639l3.823,2.185l3.823,2.458l3.551,2.458l3.277,3.004l2.73,3.277l2.458,3.277
	l2.185,3.55l1.639,3.823l1.093,4.097l0.819,4.097l0.273,4.097V49.705z"/>
<path fill="#999999" stroke="#B2B2B2" stroke-width="2" d="M140.104,81.385l-0.272,0.819l-0.273,0.819l-0.819,0.819l-1.092,0.819
	l-1.093,1.093l-1.639,0.819l-1.912,0.819l-1.911,0.819l-0.273-41.512l2.185-0.819l1.639-0.819l1.639-0.819l1.366-0.819l0.819-0.819
	l0.819-0.819l0.272-1.093l0.273-0.819L140.104,81.385z"/>
<path fill="#B2B2B2" stroke="#B2B2B2" stroke-width="2" d="M116.072,50.251l2.185-0.273l1.911-0.546l2.186-0.273l1.911-0.546
	l1.912-0.273l1.639-0.546l1.639-0.546l1.639-0.546v41.512l-1.639,0.546l-1.639,0.272l-1.639,0.547l-1.912,0.273l-1.911,0.546
	l-2.186,0.546l-1.911,0.273l-2.185,0.547V50.251z"/>
<path fill="#B2B2B2" stroke="#B2B2B2" stroke-width="2" d="M4.917,81.385l0.273,0.819l0.273,0.819l0.819,0.819l0.819,0.819
	l1.365,1.093l1.639,0.819l1.639,0.819l2.185,0.819V46.701l-1.911-0.819l-1.912-0.819l-1.639-0.819l-1.093-0.819l-1.092-0.819
	l-0.819-0.819l-0.273-1.093l-0.273-0.819V81.385z"/>
<path fill="#CCCCCC" stroke="#B2B2B2" stroke-width="2" d="M116.072,91.764V50.251l-2.458,0.273l-2.458,0.546l-2.458,0.273
	l-2.731,0.273l-2.73,0.546l-2.731,0.272l-2.731,0.273l-2.73,0.273v41.238l2.73-0.273l2.731-0.272l2.731-0.273l2.73-0.272
	l2.731-0.273l2.458-0.273l2.458-0.546L116.072,91.764z"/>
<path fill="#CCCCCC" stroke="#B2B2B2" stroke-width="2" d="M28.678,50.251l-2.186-0.273l-1.911-0.546l-2.185-0.273l-1.912-0.546
	l-1.912-0.273l-1.639-0.546l-1.639-0.546l-1.365-0.546v41.512l1.365,0.546l1.639,0.272l1.639,0.547l1.912,0.273l1.912,0.546
	l2.185,0.546l1.911,0.273l2.186,0.547V50.251z"/>
<path fill="#E5E5E5" stroke="#B2B2B2" stroke-width="2" d="M28.678,91.764V50.251l2.458,0.273l2.458,0.546l2.458,0.273l2.73,0.273
	l2.731,0.546l2.73,0.272l3.005,0.273l2.73,0.273v41.238l-2.73-0.273l-3.005-0.272l-2.73-0.273l-2.731-0.272l-2.73-0.273
	l-2.458-0.273l-2.458-0.546L28.678,91.764z"/>
<path fill="#E5E5E5" stroke="#B2B2B2" stroke-width="2" d="M95.042,94.221V52.982h-2.731l-2.73,0.273h-3.005l-2.73,0.272h-3.004
	l-2.731,0.273h-3.004h-2.731V95.04h2.731h3.004h2.731l3.004-0.272h2.73l3.005-0.273h2.73L95.042,94.221z"/>
<path fill="#FFFFFF" stroke="#B2B2B2" stroke-width="2" d="M49.98,94.221V52.982h2.731l2.73,0.273h2.731l2.73,0.272h3.005
	l2.73,0.273h3.005h2.73V95.04h-2.73h-3.005h-2.73l-3.005-0.272h-2.73l-2.731-0.273h-2.73L49.98,94.221z"/>
<path fill="none" stroke="#B2B2B2" stroke-width="2" d="M140.104,53.802l-0.272,1.365l-2.731,2.731l-5.188,2.457l-3.551,1.093
	l-3.823,1.093l-4.37,0.819l-4.915,0.819l-5.189,0.819l-5.462,0.819l-6.009,0.546l-6.281,0.546l-6.281,0.273l-6.827,0.273H65.547
	l-6.828-0.273l-6.281-0.273l-6.281-0.546l-6.009-0.546l-5.462-0.819l-5.188-0.819l-4.643-0.819l-4.37-0.819l-4.097-1.093
	l-6.281-2.458l-3.823-2.457l-1.093-1.366l-0.273-1.365"/>
<path fill="none" stroke="#B2B2B2" stroke-width="2" d="M140.104,67.457l-0.272,1.365l-2.731,2.73l-5.188,2.459l-3.551,1.092
	l-3.823,1.093l-4.37,0.819l-4.915,1.092l-5.189,0.82l-5.462,0.545l-6.009,0.547l-6.281,0.547l-6.281,0.272l-6.827,0.272H65.547
	l-6.828-0.272l-6.281-0.272l-6.281-0.547l-6.009-0.547l-5.462-0.545l-5.188-0.82l-4.643-1.092l-4.37-0.819l-4.097-1.093
	l-6.281-2.185l-3.823-2.731l-1.093-1.365l-0.273-1.365"/>
<path fill="none" stroke="#000000" stroke-width="2" d="M140.651,39.6l-0.273,1.366l-2.73,2.731l-5.189,2.458l-3.551,1.365
	l-3.823,1.092l-4.369,0.819l-4.916,1.093l-5.189,0.819l-5.734,0.819l-6.009,0.546l-6.281,0.547l-6.555,0.272l-6.555,0.273H65.274
	l-6.555-0.273l-6.555-0.272l-6.281-0.547l-6.008-0.546l-5.735-0.819l-5.189-0.819l-4.915-1.093l-4.37-0.819l-3.823-1.092
	l-3.551-1.365l-5.188-2.458l-2.731-2.731L4.098,39.6"/>
<path fill="none" stroke="#000000" stroke-width="2" d="M140.651,41.239l-0.273,39.873l-0.273,1.366l-2.73,2.731l-5.189,2.457
	l-3.55,1.093l-3.823,1.093l-4.37,1.092l-4.916,0.82l-5.188,0.818l-5.735,0.819l-6.009,0.546l-6.281,0.547l-6.555,0.273l-6.554,0.272
	h-7.102h-6.827l-6.827-0.272l-6.282-0.273l-6.281-0.547l-6.008-0.546l-5.735-0.819l-5.189-0.818l-4.643-0.82l-4.643-0.818
	l-3.823-1.094l-3.551-1.092l-5.188-2.458L4.371,82.75l-0.273-1.365V41.239l1.366-3.55l1.639-3.55l2.458-3.55l2.73-3.277l3.277-3.004
	l3.823-2.731l3.824-2.731l4.643-2.458l4.643-2.185l4.916-1.912l5.462-1.639l5.462-1.365L54.35,7.92l5.735-0.819l6.281-0.273
	l6.281-0.273l6.281,0.273l6.008,0.273l6.009,0.819l5.735,1.366l5.462,1.365l5.188,1.639l5.189,1.912l4.643,2.185l4.37,2.458
	l4.097,2.731l3.55,2.731l3.277,3.004l2.731,3.277l2.458,3.55l1.639,3.55L140.651,41.239"/>
<ellipse fill="#7F7F7F" stroke="#000000" stroke-width="2" cx="72.374" cy="7.101" rx="10.105" ry="3.004"/>
<path fill="none" stroke="#000000" stroke-width="2" d="M80.841,5.735l-0.273,0.273l-0.273,0.273l-0.819,0.273l-1.092,0.273
	l-1.366,0.273h-1.365l-1.639,0.273h-1.639h-1.639l-1.639-0.273h-1.365l-1.365-0.273l-1.093-0.273l-0.819-0.273l-0.273-0.273
	l-0.272-0.273"/>
<ellipse fill="#333333" stroke="#000000" stroke-width="2" cx="72.374" cy="5.462" rx="6.281" ry="1.093"/>
</svg>
