<?xml version="1.0" encoding="utf-8"?>
<!-- Generator: Adobe Illustrator 14.0.0, SVG Export Plug-In . SVG Version: 6.00 Build 43363)  -->
<!DOCTYPE svg PUBLIC "-//W3C//DTD SVG 1.1//EN" "http://www.w3.org/Graphics/SVG/1.1/DTD/svg11.dtd">
<svg version="1.1" id="图层_1" xmlns="http://www.w3.org/2000/svg" xmlns:xlink="http://www.w3.org/1999/xlink" x="0px" y="0px"
	 width="65.03px" height="106.502px" viewBox="0 0 65.03 106.502" enable-background="new 0 0 65.03 106.502" xml:space="preserve">
<path fill="#333333" stroke="#000000" stroke-width="2" d="M17.59,96.054h29.53v1.386H17.59V96.054z"/>
<path fill="#333333" stroke="#000000" stroke-width="2" d="M2.878,3.946h59.167v11.833H2.878V3.946z"/>
<path fill="#CCCCCC" stroke="#000000" stroke-width="2" d="M23.88,2.879h1.919v100.638H23.88V2.879z"/>
<path fill="#E5E5E5" stroke="#000000" stroke-width="2" d="M27.612,2.879h2.025v100.638h-2.025V2.879z"/>
<path fill="#FFFFFF" stroke="#000000" stroke-width="2" d="M31.449,2.879h2.025v100.638h-2.025V2.879z"/>
<path fill="#E5E5E5" stroke="#000000" stroke-width="2" d="M35.287,2.879h2.025v100.638h-2.025V2.879z"/>
<path fill="#CCCCCC" stroke="#000000" stroke-width="2" d="M39.125,2.879h2.025v100.638h-2.025V2.879z"/>
<path fill="#CCCCCC" stroke="#000000" stroke-width="2" d="M20.042,2.879h2.025v100.638h-2.025V2.879z"/>
<path fill="#CCCCCC" stroke="#000000" stroke-width="2" d="M42.963,2.879h2.025v100.638h-2.025V2.879z"/>
<path fill="#666666" stroke="#000000" stroke-width="2" d="M4.797,2.879h1.919v12.899H4.797V2.879z"/>
<path fill="#7F7F7F" stroke="#000000" stroke-width="2" d="M8.529,2.879h2.025v12.899H8.529V2.879z"/>
<path fill="#999999" stroke="#000000" stroke-width="2" d="M12.366,2.879h2.025v12.899h-2.025V2.879z"/>
<path fill="#B2B2B2" stroke="#000000" stroke-width="2" d="M16.204,2.879h2.025v12.899h-2.025V2.879z"/>
<path fill="#B2B2B2" stroke="#000000" stroke-width="2" d="M46.801,2.879h2.025v12.899h-2.025V2.879z"/>
<path fill="#999999" stroke="#000000" stroke-width="2" d="M50.531,2.879h2.025v12.899h-2.025V2.879z"/>
<path fill="#7F7F7F" stroke="#000000" stroke-width="2" d="M54.369,2.879h2.025v12.899h-2.025V2.879z"/>
<path fill="#666666" stroke="#000000" stroke-width="2" d="M58.207,2.879h2.025v12.899h-2.025V2.879z"/>
<path fill="#7F7F7F" d="M3.092,15.353v-5.65h58.953v5.65H3.092z"/>
<path fill="#999999" d="M7.143,15.353v-5.65h51.278v5.65H7.143z"/>
<path fill="#B2B2B2" d="M13.325,15.353v-5.65h38.912v5.65H13.325z"/>
<path fill="#CCCCCC" d="M18.976,15.353v-5.65h26.972v5.65H18.976z"/>
<path fill="#E5E5E5" d="M23.88,15.353v-5.65h17.271v5.65H23.88z"/>
<path fill="#FFFFFF" d="M29.21,15.353v-5.65h7.143v5.65H29.21z"/>
<path fill="none" stroke="#000000" stroke-width="2" d="M2.878,9.702h59.167v5.65H2.878V9.702"/>
<path fill="#7F7F7F" d="M3.092,9.382V3.946h58.953v5.437H3.092z"/>
<path fill="#999999" d="M7.143,9.382V3.946h51.278v5.437H7.143z"/>
<path fill="#B2B2B2" d="M13.325,9.382V3.946h38.912v5.437H13.325z"/>
<path fill="#CCCCCC" d="M18.976,9.382V3.946h26.972v5.437H18.976z"/>
<path fill="#E5E5E5" d="M23.88,9.382V3.946h17.271v5.437H23.88z"/>
<path fill="#FFFFFF" d="M29.21,9.382V3.946h7.143v5.437H29.21z"/>
<path fill="none" stroke="#000000" stroke-width="2" d="M2.878,3.946h59.167v5.437H2.878V3.946"/>
<path fill="#7F7F7F" d="M17.803,102.663v-5.649H47.12v5.649H17.803z"/>
<path fill="#999999" d="M19.829,102.663v-5.649h25.692v5.649H19.829z"/>
<path fill="#B2B2B2" d="M22.814,102.663v-5.649h19.51v5.649H22.814z"/>
<path fill="#CCCCCC" d="M25.693,102.663v-5.649h13.646v5.649H25.693z"/>
<path fill="#E5E5E5" d="M28.251,102.663v-5.649h8.528v5.649H28.251z"/>
<path fill="#FFFFFF" d="M30.916,102.663v-5.649h3.411v5.649H30.916z"/>
<path fill="none" stroke="#000000" stroke-width="2" d="M17.59,97.014h29.53v5.649H17.59V97.014"/>
<path fill="#7F7F7F" d="M17.803,96.694v-5.65H47.12v5.65H17.803z"/>
<path fill="#999999" d="M19.829,96.694v-5.65h25.692v5.65H19.829z"/>
<path fill="#B2B2B2" d="M22.814,96.694v-5.65h19.51v5.65H22.814z"/>
<path fill="#CCCCCC" d="M25.693,96.694v-5.65h13.646v5.65H25.693z"/>
<path fill="#E5E5E5" d="M28.251,96.694v-5.65h8.528v5.65H28.251z"/>
<path fill="#FFFFFF" d="M30.916,96.694v-5.65h3.411v5.65H30.916z"/>
<path fill="none" stroke="#000000" stroke-width="2" d="M17.59,91.043h29.53v5.65H17.59V91.043"/>
<path fill="#7F7F7F" stroke="#000000" stroke-width="2" d="M62.045,86.992V15.779H2.878v71.214l0.214,0.64l2.132,1.813l2.771,1.065
	l3.625,0.96l4.371,0.746l5.01,0.64l5.544,0.427l2.879,0.106h3.091H35.5l2.878-0.106l5.544-0.427l5.117-0.64l4.371-0.746l3.518-0.96
	l2.772-1.065l2.238-1.813L62.045,86.992z"/>
<path fill="#999999" d="M58.207,86.992V15.779H6.503v71.214l0.213,0.64l2.985,2.346l2.771,1.065l3.519,0.854l4.157,0.746
	l4.584,0.426l5.117,0.32h2.665l5.224-0.106l4.798-0.427l4.371-0.64l3.838-0.746l3.091-0.96l3.198-1.599L58.207,86.992z"/>
<path fill="#B2B2B2" d="M52.238,86.992V15.779H12.793v71.214l1.492,2.452l2.985,1.599l2.665,0.854l3.092,0.746l3.624,0.426
	l3.838,0.32h2.025l3.944-0.106l3.625-0.427l3.411-0.64l2.879-0.746l3.411-1.492l2.346-2.346L52.238,86.992z"/>
<path fill="#CCCCCC" d="M45.948,86.992V15.779H18.869v71.214l1.066,2.452l2.878,2.025l3.198,1.173l3.731,0.64l2.771,0.106
	l3.944-0.32l3.519-0.853l2.878-1.173l2.452-2.132L45.948,86.992z"/>
<path fill="#E5E5E5" d="M41.151,86.992V15.779H23.88v71.214l0.959,2.985l2.133,1.919l2.984,1.172l2.559,0.32l3.305-0.533
	l2.666-1.386l1.919-2.025L41.151,86.992z"/>
<path fill="#FFFFFF" d="M36.14,86.992V15.779h-7.463v71.214l0.107,1.279l0.213,1.173l0.319,1.065l0.533,0.96l0.533,0.746l0.64,0.64
	l0.746,0.427l0.746,0.106l0.64-0.106l0.746-0.427l0.533-0.64l0.64-0.746l0.427-0.96l0.319-1.065l0.214-1.173L36.14,86.992z"/>
<circle fill="#CCCCCC" stroke="#000000" stroke-width="2" cx="32.515" cy="49.04" r="12.899"/>
<path fill="none" stroke="#FFFFFF" stroke-width="2" d="M27.291,59.488l-0.213-0.213l-0.106-0.32l-0.106-0.319v-0.213l-0.107-0.32
	v-0.319v-0.214l0.107-0.319l0.213-0.533l0.213-0.427l0.427-0.426l0.533-0.32l0.426-0.213l0.533-0.214h0.64l0.64,0.107l0.32,0.106
	l0.213,0.106l0.213,0.213l0.32,0.106l0.213,0.214l0.106,0.213l0.214,0.213l0.213,0.214"/>
<path fill="none" stroke="#7F7F7F" stroke-width="2" d="M32.302,56.61l0.106,0.213l0.106,0.32l0.106,0.213v0.213v0.32v0.319
	l-0.106,0.32v0.319l-0.213,0.427l-0.32,0.533l-0.426,0.426l-0.427,0.32l-0.533,0.213l-0.426,0.106h-0.533h-0.533l-0.319-0.106
	l-0.32-0.106l-0.213-0.106l-0.214-0.213l-0.213-0.107l-0.213-0.319l-0.214-0.213l-0.106-0.214"/>
<path fill="none" stroke="#FFFFFF" stroke-width="2" d="M32.729,41.152l-0.214-0.214v-0.319l-0.106-0.213v-0.214l-0.106-0.213
	l0.106-0.32v-0.213l0.106-0.319l0.106-0.533l0.32-0.427l0.319-0.319l0.427-0.32l0.427-0.213l0.533-0.106h0.532l0.533,0.106
	l0.32,0.106l0.213,0.106l0.213,0.106l0.32,0.106l0.213,0.214l0.214,0.106l0.106,0.213l0.213,0.214"/>
<path fill="none" stroke="#7F7F7F" stroke-width="2" d="M37.526,38.487l0.106,0.213v0.319l0.106,0.214v0.319v0.214v0.213v0.319
	v0.214l-0.213,0.533l-0.319,0.426l-0.32,0.427l-0.427,0.213l-0.426,0.214L35.5,42.537l-0.64,0.106l-0.533-0.106l-0.213-0.106
	l-0.32-0.106l-0.213-0.214l-0.106-0.106l-0.32-0.213l-0.106-0.214l-0.213-0.213l-0.106-0.213"/>
<path fill="none" stroke="#FFFFFF" stroke-width="2" d="M38.911,47.974l-0.106-0.213v-0.32l-0.106-0.319v-0.32v-0.319l-0.106-0.213
	l0.106-0.32v-0.213l0.213-0.533l0.32-0.533l0.426-0.426l0.427-0.32l0.533-0.213l0.533-0.106h0.533l0.64,0.106l0.213,0.106
	l0.319,0.106l0.214,0.106l0.213,0.214l0.32,0.106l0.213,0.213l0.106,0.213l0.213,0.214"/>
<path fill="none" stroke="#7F7F7F" stroke-width="2" d="M44.135,44.99l0.107,0.213v0.32l0.106,0.319v0.32l0.106,0.319v0.213
	l-0.106,0.214v0.213l-0.214,0.64l-0.319,0.533l-0.32,0.426l-0.532,0.32l-0.533,0.213l-0.533,0.214h-0.64l-0.533-0.107l-0.213-0.106
	l-0.214-0.106l-0.319-0.106l-0.213-0.213l-0.214-0.214l-0.213-0.213l-0.213-0.213l-0.214-0.214"/>
<path fill="none" stroke="#FFFFFF" stroke-width="2" d="M20.788,53.198v-0.319l-0.106-0.32l-0.106-0.213v-0.319v-0.32l-0.106-0.213
	l0.106-0.32v-0.213l0.213-0.533l0.32-0.533l0.426-0.426l0.427-0.32l0.533-0.319l0.533-0.107h0.64l0.532,0.107h0.214l0.319,0.213
	l0.214,0.106l0.213,0.213l0.213,0.107l0.214,0.319l0.106,0.213l0.106,0.214"/>
<path fill="none" stroke="#7F7F7F" stroke-width="2" d="M25.799,50.213l0.213,0.213l0.106,0.213l0.107,0.32l0.106,0.213v0.32v0.319
	v0.214l-0.106,0.319l-0.214,0.64l-0.319,0.427l-0.32,0.426l-0.533,0.32l-0.426,0.213l-0.64,0.106H23.24l-0.64-0.106h-0.213
	l-0.214-0.106l-0.319-0.213l-0.214-0.106l-0.213-0.214l-0.213-0.106l-0.214-0.213l-0.213-0.214"/>
<path fill="none" stroke="#FFFFFF" stroke-width="2" d="M23.453,43.71l-0.106-0.214l-0.213-0.213l-0.106-0.319v-0.32v-0.213
	l-0.107-0.32l0.107-0.319v-0.214l0.319-0.64l0.32-0.426l0.319-0.427l0.427-0.319l0.533-0.214l0.532-0.106h0.533l0.64,0.106
	l0.32,0.106h0.319l0.214,0.214l0.213,0.106l0.213,0.213l0.214,0.214l0.106,0.213l0.213,0.319"/>
<path fill="none" stroke="#7F7F7F" stroke-width="2" d="M28.464,40.938l0.106,0.214l0.106,0.213l0.107,0.32v0.319v0.213v0.214
	l-0.107,0.319v0.214l-0.213,0.532l-0.319,0.533l-0.427,0.427l-0.427,0.319l-0.426,0.32l-0.533,0.106h-0.533h-0.533l-0.319-0.106
	l-0.214-0.213l-0.319-0.107l-0.214-0.213l-0.213-0.213l-0.213-0.106l-0.106-0.32l-0.214-0.213"/>
<path fill="none" stroke="#FFFFFF" stroke-width="2" d="M36.459,57.249l-0.106-0.32l-0.106-0.213l-0.106-0.213v-0.32V55.97v-0.32
	l0.106-0.319l0.106-0.32l0.214-0.533l0.213-0.426l0.427-0.427l0.426-0.319l0.533-0.214l0.533-0.106l0.533-0.106l0.426,0.106
	l0.32,0.106l0.319,0.106l0.214,0.214l0.213,0.106l0.213,0.213l0.214,0.214l0.213,0.213l0.213,0.213"/>
<path fill="none" stroke="#7F7F7F" stroke-width="2" d="M41.576,54.37l0.107,0.32l0.106,0.213l0.106,0.213l0.106,0.32v0.319v0.214
	v0.319v0.32l-0.319,0.533l-0.427,0.532l-0.32,0.427l-0.532,0.213l-0.533,0.214l-0.533,0.213h-0.533l-0.427-0.106l-0.319-0.106
	l-0.32-0.106l-0.213-0.107l-0.213-0.106l-0.214-0.213l-0.213-0.213l-0.213-0.32l-0.214-0.213"/>
</svg>
