<?xml version="1.0" encoding="utf-8"?>
<!-- Generator: Adobe Illustrator 14.0.0, SVG Export Plug-In . SVG Version: 6.00 Build 43363)  -->
<!DOCTYPE svg PUBLIC "-//W3C//DTD SVG 1.1//EN" "http://www.w3.org/Graphics/SVG/1.1/DTD/svg11.dtd">
<svg version="1.1" id="图层_1" xmlns="http://www.w3.org/2000/svg" xmlns:xlink="http://www.w3.org/1999/xlink" x="0px" y="0px"
	 width="120.823px" height="106.502px" viewBox="0 0 120.823 106.502" enable-background="new 0 0 120.823 106.502"
	 xml:space="preserve">
<path fill="#666666" d="M117.438,10.416l-0.26-0.781l-4.167-2.083l-5.208-1.042l-3.385-0.521l-3.646-0.521l-4.166-0.521L92.18,4.688
	l-4.688-0.521l-4.947-0.261l-5.208-0.261h-5.468l-5.729-0.26h-5.729h-5.729l-5.729,0.26h-5.469l-5.208,0.261L33.33,4.167
	l-4.687,0.521l-4.427,0.261L20.05,5.469L16.405,5.99L13.02,6.51L7.812,7.552L4.427,9.115L3.646,9.635l-0.261,0.781l14.322,87.493
	l3.385,2.083l3.906,0.781l5.207,0.781l3.125,0.26l3.386,0.521l3.385,0.261h3.646l3.906,0.261l4.166,0.26h4.166h13.02l4.167-0.26
	l3.905-0.261h3.646l3.646-0.261l3.124-0.521l3.125-0.26l5.208-0.781l3.906-0.781l3.124-1.563l0.261-0.521L117.438,10.416z"/>
<path fill="#7F7F7F" d="M103.116,97.909l14.321-87.493l-0.26,0.781l-0.781,0.781l-3.386,1.302l-5.208,1.042l-3.385,0.781
	l-3.646,0.521l-4.166,0.261l-4.427,0.521l-4.688,0.521l-4.947,0.261l-5.208,0.26h-5.468l-5.729,0.261H54.683l-5.729-0.261h-5.469
	l-5.208-0.26l-4.947-0.261l-4.687-0.521l-4.427-0.521l-4.167-0.261l-3.646-0.521l-3.385-0.781l-5.208-1.042l-3.385-1.302
	l-0.781-0.781l-0.261-0.781l14.322,87.493l3.385,2.083l3.906,0.781l5.207,0.781l3.125,0.26l3.125,0.521l3.646,0.261h3.646
	l3.906,0.261l4.166,0.26h4.166h13.02l4.167-0.26l3.905-0.261h3.646l3.646-0.261l3.124-0.521l3.125-0.26l5.208-0.781l3.906-0.781
	l3.124-1.563L103.116,97.909z"/>
<path fill="#999999" d="M97.388,100.513l12.499-86.451l-4.167,0.781l-4.947,0.781l-5.468,0.521l-3.125,0.261l-3.125,0.261
	l-3.385,0.26l-3.386,0.261H78.9l-3.646,0.26h-3.646l-3.646,0.261H52.861l-3.646-0.261H45.57l-3.646-0.26h-3.385l-3.385-0.261
	l-3.386-0.26l-3.124-0.261l-5.729-0.521l-5.468-0.781l-4.427-0.781l-2.083-0.261l12.499,86.451l3.124,0.521l3.646,0.521l4.167,0.521
	l4.687,0.26l4.948,0.261l5.208,0.261l5.468,0.26H66.14l5.469-0.26l5.208-0.261l4.947-0.261l4.688-0.26l4.166-0.521l3.646-0.521
	L97.388,100.513z"/>
<path fill="#B2B2B2" d="M90.357,101.555l10.155-85.931l-4.166,0.521l-4.687,0.261l-4.688,0.521l-5.208,0.261l-5.208,0.26h-5.468
	l-5.469,0.261H54.422l-5.468-0.261h-5.469l-5.208-0.26l-4.947-0.261l-4.947-0.521l-4.427-0.261l-3.906-0.521l9.375,85.931
	l3.124,0.26l3.386,0.521l3.646,0.261h3.905l3.906,0.261l4.166,0.26h16.926l3.906-0.26l4.166-0.261h3.646l3.646-0.261l3.386-0.521
	L90.357,101.555z"/>
<path fill="#CCCCCC" d="M81.764,102.335l6.771-85.669l-3.386,0.26h-3.385l-3.385,0.261l-3.646,0.26h-3.646l-3.646,0.261H52.6
	l-3.646-0.261h-3.646l-3.646-0.26l-3.646-0.261h-3.386l-3.124-0.26l6.77,85.669l5.208,0.261l5.208,0.261l2.864,0.26h16.926
	l5.469-0.26l5.208-0.261L81.764,102.335z"/>
<path fill="#E5E5E5" d="M71.088,102.857l3.646-85.41h-7.291l-3.906,0.261h-9.114l-3.646-0.261h-5.468l3.646,85.41l2.604,0.26h16.926
	L71.088,102.857z"/>
<path fill="#FFFFFF" d="M63.536,103.116h-0.781h-0.781h-1.041h-1.042H59.11h-1.042h-1.041h-0.781l-1.042-85.409h1.042h1.302h1.042
	h1.302h1.302h1.302h1.303h1.041L63.536,103.116z"/>
<ellipse fill="none" stroke="#000000" stroke-width="2" cx="60.411" cy="10.416" rx="57.026" ry="7.03"/>
<path fill="none" stroke="#000000" stroke-width="2" d="M117.438,10.416l-0.26-0.781l-4.167-2.083l-5.208-1.042l-3.385-0.521
	l-3.646-0.521l-4.166-0.521L92.18,4.688l-4.688-0.521l-4.947-0.261l-5.208-0.261h-5.468l-5.729-0.26h-5.729h-5.729l-5.729,0.26
	h-5.469l-5.208,0.261L33.33,4.167l-4.687,0.521l-4.427,0.261L20.05,5.469L16.405,5.99L13.02,6.51L7.812,7.552L4.427,9.115
	L3.646,9.635l-0.261,0.781l14.322,87.493l3.385,2.083l3.906,0.781l5.207,0.781l3.125,0.26l3.386,0.521l3.385,0.261h3.646
	l3.906,0.261l4.166,0.26h4.166h13.02l4.167-0.26l3.905-0.261h3.646l3.646-0.261l3.124-0.521l3.125-0.26l5.208-0.781l3.906-0.781
	l3.124-1.563l0.261-0.521L117.438,10.416"/>
</svg>
