<?xml version="1.0" encoding="utf-8"?>
<!-- Generator: Adobe Illustrator 14.0.0, SVG Export Plug-In . SVG Version: 6.00 Build 43363)  -->
<!DOCTYPE svg PUBLIC "-//W3C//DTD SVG 1.1//EN" "http://www.w3.org/Graphics/SVG/1.1/DTD/svg11.dtd">
<svg version="1.1" id="图层_1" xmlns="http://www.w3.org/2000/svg" xmlns:xlink="http://www.w3.org/1999/xlink" x="0px" y="0px"
	 width="144.749px" height="103.889px" viewBox="0 0 144.749 103.889" enable-background="new 0 0 144.749 103.889"
	 xml:space="preserve">
<path fill="#CCCCCC" stroke="#000000" stroke-width="2" d="M4.057,31.587l4.347-21.01H136.2l4.347,21.01H4.057z"/>
<path fill="#E5E5E5" stroke="#000000" stroke-width="2" d="M140.547,23.328v8.259H4.057v-8.259l1.304-3.623l4.058-3.188l4.491-2.173
	l3.623-1.304l4.201-1.304l4.637-1.159l5.071-1.014l5.506-1.014l5.796-0.725l6.086-0.58l6.375-0.58l6.665-0.29l6.955-0.145h3.478
	h3.478l6.955,0.145l6.665,0.29l6.375,0.58l6.086,0.58l5.796,0.725l5.506,1.014l5.071,1.014l4.636,1.159l4.202,1.304l3.623,1.304
	l4.491,2.173l3.333,2.463l2.028,3.333V23.328z"/>
<path fill="#CCCCCC" d="M86.357,25.501l-1.304-8.839H59.551l-1.304,8.839H4.057v6.085h136.49v-6.085H86.357z"/>
<path fill="#CCCCCC" stroke="#000000" stroke-width="2" d="M61.725,14.489h21.154v2.173H61.725V14.489z"/>
<path fill="#4C4C4C" stroke="#000000" stroke-width="2" d="M59.551,14.489l0.87-9.563h23.762l0.87,9.563H59.551z"/>
<path fill="#666666" stroke="#000000" stroke-width="2" d="M67.955,4.926l0.435-0.869h7.824l0.435,0.869H67.955z"/>
<path fill="#CCCCCC" d="M140.547,99.832V31.587H4.057v68.245h25.356v-9.563h30.138v9.563h25.502v-9.563h29.703v9.563H140.547z"/>
<path fill="#DBDBDB" d="M127.941,99.832V31.587H16.662v68.245h12.751v-9.563h30.138v9.563h25.502v-9.563h29.703v9.563H127.941z"/>
<path fill="#EDEDED" d="M106.497,31.587H38.107v58.682h21.444v9.563h25.502v-9.563h21.444V31.587z"/>
<path fill="#FFFFFF" d="M82.879,31.587H61.725v68.245h21.154V31.587z"/>
<path fill="none" stroke="#000000" stroke-width="2" d="M140.547,99.832V31.587H4.057v68.245h25.356v-9.563h30.138v9.563h25.502
	v-9.563h29.703v9.563H140.547"/>
<path fill="#DBDBDB" d="M86.357,25.501l-1.304-8.839H59.551l-1.304,8.839H16.662v6.085h111.278v-6.085H86.357z"/>
<path fill="#EDEDED" d="M86.357,25.501l-1.304-8.839H59.551l-1.304,8.839H38.107v6.085h68.391v-6.085H86.357z"/>
<path fill="#FFFFFF" d="M82.879,16.663H61.725v14.924h21.154V16.663z"/>
<path fill="none" stroke="#000000" stroke-width="2" d="M86.357,25.501l-1.304-8.839H59.551l-1.304,8.839H4.057v6.085h136.49v-6.085
	H86.357"/>
<path fill="#4C4C4C" stroke="#000000" stroke-width="2" d="M29.413,90.269h21.444v4.348H29.413V90.269z"/>
<path fill="#4C4C4C" stroke="#000000" stroke-width="2" d="M93.746,90.269h21.01v4.348h-21.01V90.269z"/>
<path fill="#7F7F7F" stroke="#000000" stroke-width="2" d="M60.421,18.836h9.707v2.174h-9.707V18.836z"/>
</svg>
