<?xml version="1.0" encoding="utf-8"?>
<!-- Generator: Adobe Illustrator 14.0.0, SVG Export Plug-In . SVG Version: 6.00 Build 43363)  -->
<!DOCTYPE svg PUBLIC "-//W3C//DTD SVG 1.1//EN" "http://www.w3.org/Graphics/SVG/1.1/DTD/svg11.dtd">
<svg version="1.1" id="图层_1" xmlns="http://www.w3.org/2000/svg" xmlns:xlink="http://www.w3.org/1999/xlink" x="0px" y="0px"
	 width="67.479px" height="106.502px" viewBox="0 0 67.479 106.502" enable-background="new 0 0 67.479 106.502"
	 xml:space="preserve">
<path fill="#CCCCCC" stroke="#000000" stroke-width="2" d="M2.985,15.355l1.812-9.594h57.672l2.025,9.594H2.985z"/>
<path fill="#E5E5E5" stroke="#000000" stroke-width="2" d="M64.494,11.623v3.731H2.985v-3.731l1.812-2.665l2.559-1.386L9.914,6.72
	l3.092-0.746l3.411-0.746l3.944-0.533l4.157-0.427l2.984-0.213l3.092-0.106h1.492h1.6h3.197l2.985,0.106l2.984,0.213l4.158,0.427
	l3.837,0.533l3.519,0.746l3.091,0.746l2.559,0.853l2.559,1.386l1.813,2.239L64.494,11.623z"/>
<path fill="#CCCCCC" d="M39.975,12.583l-0.64-3.838H27.929l-0.427,3.838H2.985v2.771h61.509v-2.771H39.975z"/>
<path fill="#CCCCCC" stroke="#000000" stroke-width="2" d="M28.888,7.786h9.381v0.959h-9.381V7.786z"/>
<path fill="#4C4C4C" stroke="#000000" stroke-width="2" d="M27.929,7.786l0.319-4.478h10.66l0.427,4.478H27.929z"/>
<path fill="#666666" stroke="#000000" stroke-width="2" d="M31.661,3.309l0.213-0.32h3.411l0.213,0.32H31.661z"/>
<path fill="#CCCCCC" d="M64.494,103.406V15.355H2.985v88.052h11.406v-4.37h13.538v4.37h11.406v-4.37h13.432v4.37H64.494z"/>
<path fill="#DBDBDB" d="M58.631,103.406V15.355H8.528v88.052h5.863v-4.37h13.538v4.37h11.406v-4.37h13.432v4.37H58.631z"/>
<path fill="#EDEDED" d="M48.929,15.355h-30.7v83.682h9.7v4.37h11.406v-4.37h9.594V15.355z"/>
<path fill="#FFFFFF" d="M38.269,15.355h-9.381v88.052h9.381V15.355z"/>
<path fill="none" stroke="#000000" stroke-width="2" d="M64.494,103.406V15.355H2.985v88.052h11.406v-4.37h13.538v4.37h11.406v-4.37
	h13.432v4.37H64.494"/>
<path fill="#DBDBDB" d="M39.975,12.583l-0.64-3.838H27.929l-0.427,3.838H8.528v2.771h50.103v-2.771H39.975z"/>
<path fill="#EDEDED" d="M39.975,12.583l-0.64-3.838H27.929l-0.427,3.838h-9.273v2.771h30.7v-2.771H39.975z"/>
<path fill="#FFFFFF" d="M38.269,8.745h-9.381v6.609h9.381V8.745z"/>
<path fill="none" stroke="#000000" stroke-width="2" d="M39.975,12.583l-0.64-3.838H27.929l-0.427,3.838H2.985v2.771h61.509v-2.771
	H39.975"/>
<path fill="#4C4C4C" stroke="#000000" stroke-width="2" d="M14.391,99.036h9.7v2.025h-9.7V99.036z"/>
<path fill="#4C4C4C" stroke="#000000" stroke-width="2" d="M43.174,99.036h9.594v2.025h-9.594V99.036z"/>
<path fill="#7F7F7F" stroke="#000000" stroke-width="2" d="M28.249,9.812h4.478v0.746h-4.478V9.812z"/>
</svg>
