<?xml version="1.0" encoding="utf-8"?>
<!-- Generator: Adobe Illustrator 14.0.0, SVG Export Plug-In . SVG Version: 6.00 Build 43363)  -->
<!DOCTYPE svg PUBLIC "-//W3C//DTD SVG 1.1//EN" "http://www.w3.org/Graphics/SVG/1.1/DTD/svg11.dtd">
<svg version="1.1" id="图层_1" xmlns="http://www.w3.org/2000/svg" xmlns:xlink="http://www.w3.org/1999/xlink" x="0px" y="0px"
	 width="93.067px" height="106.502px" viewBox="0 0 93.067 106.502" enable-background="new 0 0 93.067 106.502"
	 xml:space="preserve">
<path fill="#CCCCCC" stroke="#000000" stroke-width="2" d="M2.985,20.576L5.757,6.824h81.554l2.771,13.752H2.985z"/>
<path fill="#E5E5E5" stroke="#000000" stroke-width="2" d="M90.082,15.246v5.33H2.985v-5.33l1.387-2.772l2.878-2.025l3.198-1.386
	l3.838-1.173l2.984-0.746l3.198-0.64l3.519-0.64l3.624-0.426l3.945-0.427l4.051-0.32l4.264-0.213l4.371-0.106h2.239h2.238
	l4.371,0.106l4.264,0.213l4.052,0.32l3.944,0.427l3.731,0.426l3.518,0.64l3.198,0.64l2.878,0.746l2.772,0.747l3.305,1.386
	l2.665,1.386l2.132,2.132l0.427,1.066L90.082,15.246z"/>
<path fill="#CCCCCC" d="M55.435,16.312l-0.853-5.224H38.378l-0.853,5.224H2.985v4.265h87.098v-4.265H55.435z"/>
<path fill="#CCCCCC" stroke="#000000" stroke-width="2" d="M39.764,9.596h13.433v1.492H39.764V9.596z"/>
<path fill="#4C4C4C" stroke="#000000" stroke-width="2" d="M38.378,9.596l0.64-6.076h15.031l0.533,6.076H38.378z"/>
<path fill="#666666" stroke="#000000" stroke-width="2" d="M43.708,3.52l0.32-0.533h5.011l0.213,0.533H43.708z"/>
<path fill="#CCCCCC" d="M90.082,103.409V20.576H2.985v82.833h16.418v-6.076h18.976v6.076h16.204v-6.076h18.976v6.076H90.082z"/>
<path fill="#DBDBDB" d="M81.98,103.409V20.576H11.087v82.833h8.315v-6.076h18.976v6.076h16.204v-6.076h18.976v6.076H81.98z"/>
<path fill="#EDEDED" d="M68.228,20.576H24.733v76.757h13.646v6.076h16.204v-6.076h13.646V20.576z"/>
<path fill="#FFFFFF" d="M53.197,20.576H39.764v82.833h13.433V20.576z"/>
<path fill="none" stroke="#000000" stroke-width="2" d="M90.082,103.409V20.576H2.985v82.833h16.418v-6.076h18.976v6.076h16.204
	v-6.076h18.976v6.076H90.082"/>
<path fill="#DBDBDB" d="M55.435,16.312l-0.853-5.224H38.378l-0.853,5.224H11.087v4.265H81.98v-4.265H55.435z"/>
<path fill="#EDEDED" d="M55.435,16.312l-0.853-5.224H38.378l-0.853,5.224H24.733v4.265h43.495v-4.265H55.435z"/>
<path fill="#FFFFFF" d="M53.197,11.088H39.764v9.488h13.433V11.088z"/>
<path fill="none" stroke="#000000" stroke-width="2" d="M55.435,16.312l-0.853-5.224H38.378l-0.853,5.224H2.985v4.265h87.098v-4.265
	H55.435"/>
<path fill="#4C4C4C" stroke="#000000" stroke-width="2" d="M19.403,97.333h13.432v2.771H19.403V97.333z"/>
<path fill="#4C4C4C" stroke="#000000" stroke-width="2" d="M60.233,97.333h13.325v2.771H60.233V97.333z"/>
<path fill="#7F7F7F" stroke="#000000" stroke-width="2" d="M39.018,12.474h6.076v1.387h-6.076V12.474z"/>
</svg>
