<?xml version="1.0" encoding="utf-8"?>
<!-- Generator: Adobe Illustrator 14.0.0, SVG Export Plug-In . SVG Version: 6.00 Build 43363)  -->
<!DOCTYPE svg PUBLIC "-//W3C//DTD SVG 1.1//EN" "http://www.w3.org/Graphics/SVG/1.1/DTD/svg11.dtd">
<svg version="1.1" id="图层_1" xmlns="http://www.w3.org/2000/svg" xmlns:xlink="http://www.w3.org/1999/xlink" x="0px" y="0px"
	 width="100.671px" height="106.502px" viewBox="0 0 100.671 106.502" enable-background="new 0 0 100.671 106.502"
	 xml:space="preserve">
<path fill="#7F7F7F" d="M3.014,3.017v47.221l35.566,7.836v15.874h-4.019v3.818h31.547v-3.818h-4.018V58.073l35.565-7.836V3.017
	H3.014z"/>
<path fill="#999999" d="M10.047,3.017v47.221l30.141,7.836v15.874h-3.215v3.818h26.926v-3.818h-3.416V58.073l30.142-7.836V3.017
	H10.047z"/>
<path fill="#B2B2B2" d="M20.697,3.017v47.221l22.304,7.836v15.874h-2.612v3.818h19.894v-3.818h-2.613V58.073l22.305-7.836V3.017
	H20.697z"/>
<path fill="#CCCCCC" d="M33.557,3.017v47.221l12.659,7.836v15.874H44.81v3.818H55.86v-3.818h-1.406V58.073l12.66-7.836V3.017H33.557
	z"/>
<path fill="#E5E5E5" d="M45.412,3.017v47.221l3.617,7.836v15.874h-0.402v3.818h3.416v-3.818h-0.401V58.073l3.617-7.836V3.017H45.412
	z"/>
<path fill="none" stroke="#000000" stroke-width="2" d="M3.014,7.035h94.642"/>
<path fill="none" stroke="#000000" stroke-width="2" d="M3.014,3.017v47.221l35.566,7.836v15.874h-4.019v3.818h31.547v-3.818h-4.018
	V58.073l35.565-7.836V3.017H3.014"/>
<path fill="none" stroke="#000000" stroke-width="2" d="M38.58,73.948h23.511"/>
<path fill="none" stroke="#7F7F7F" stroke-width="2" d="M3.014,50.238h94.642"/>
<path fill="none" stroke="#7F7F7F" stroke-width="2" d="M38.58,58.073h23.511"/>
<path fill="#7F7F7F" d="M12.86,97.658h6.028V26.727H12.86V97.658z"/>
<path fill="#B2B2B2" d="M13.865,97.658h4.019V26.727h-4.019V97.658z"/>
<path fill="#E5E5E5" d="M14.87,97.658h2.009V26.727H14.87V97.658z"/>
<path fill="none" stroke="#000000" stroke-width="2" d="M12.86,97.658h6.028V26.727H12.86V97.658"/>
<path fill="#7F7F7F" d="M9.042,97.658h13.664v5.827H9.042V97.658z"/>
<path fill="#B2B2B2" d="M11.252,97.658h9.243v5.827h-9.243V97.658z"/>
<path fill="#E5E5E5" d="M13.664,97.658h4.622v5.827h-4.622V97.658z"/>
<path fill="none" stroke="#000000" stroke-width="2" d="M9.042,97.658h13.664v5.827H9.042V97.658"/>
<path fill="#7F7F7F" d="M81.38,97.658h5.828V26.727H81.38V97.658z"/>
<path fill="#B2B2B2" d="M82.385,97.658h3.817V26.727h-3.817V97.658z"/>
<path fill="#E5E5E5" d="M83.39,97.658h2.01V26.727h-2.01V97.658z"/>
<path fill="none" stroke="#000000" stroke-width="2" d="M81.38,97.658h5.828V26.727H81.38V97.658"/>
<path fill="#7F7F7F" d="M77.361,97.658h13.864v5.827H77.361V97.658z"/>
<path fill="#B2B2B2" d="M79.772,97.658h9.244v5.827h-9.244V97.658z"/>
<path fill="#E5E5E5" d="M81.983,97.658h4.621v5.827h-4.621V97.658z"/>
<path fill="none" stroke="#000000" stroke-width="2" d="M77.361,97.658h13.864v5.827H77.361V97.658"/>
<path fill="#7F7F7F" d="M47.421,77.766h5.828v4.019h-5.828V77.766z"/>
<path fill="#B2B2B2" d="M48.426,77.766h3.818v4.019h-3.818V77.766z"/>
<path fill="#E5E5E5" d="M49.431,77.766h1.808v4.019h-1.808V77.766z"/>
<path fill="none" stroke="#000000" stroke-width="2" d="M47.421,77.766h5.828v4.019h-5.828V77.766"/>
</svg>
