<?xml version="1.0" encoding="utf-8"?>
<!-- Generator: Adobe Illustrator 14.0.0, SVG Export Plug-In . SVG Version: 6.00 Build 43363)  -->
<!DOCTYPE svg PUBLIC "-//W3C//DTD SVG 1.1//EN" "http://www.w3.org/Graphics/SVG/1.1/DTD/svg11.dtd">
<svg version="1.1" id="图层_1" xmlns="http://www.w3.org/2000/svg" xmlns:xlink="http://www.w3.org/1999/xlink" x="0px" y="0px"
	 width="144.749px" height="84.766px" viewBox="0 0 144.749 84.766" enable-background="new 0 0 144.749 84.766"
	 xml:space="preserve">
<path d="M12.461,73.607h119.682v1.449H12.461V73.607z"/>
<path fill="#B2B2B2" d="M140.113,30.284l0.435,7.824v8.259l-0.435,8.114l-1.159,7.1l-1.594,5.796l-1.884,4.057l-2.318,2.174H11.447
	l-2.318-2.174l-1.884-4.057l-1.594-5.796l-1.159-7.1l-0.435-7.824v-8.549l0.435-7.824l1.159-7.1l1.594-5.796l1.884-4.057
	l2.318-2.173h121.711l2.318,2.173l1.884,4.057l1.594,5.796L140.113,30.284z"/>
<path fill="#BABABA" d="M140.113,31.009l0.435,7.39v7.68l-0.435,7.1l-1.159,6.52l-1.594,5.506l-1.884,3.479l-2.318,2.173
	L11.447,70.709l-2.318-2.027l-1.884-3.479l-1.594-5.506l-1.159-6.52l-0.435-7.1v-7.68l0.435-7.39l1.159-6.23l1.594-5.506
	l1.884-3.768l2.318-1.883h121.711l2.318,1.883l1.884,3.768l1.594,5.506L140.113,31.009z"/>
<path fill="#BFBFBF" d="M140.113,32.168l0.435,6.52v6.81l-0.435,6.52l-1.159,5.797l-1.594,4.926l-1.884,3.623l-2.318,1.594H11.447
	l-2.318-1.594L7.244,62.74l-1.594-4.926l-1.159-5.797l-0.435-6.52v-6.81l0.435-6.52l1.159-6.086l1.594-4.636l1.884-3.478
	l2.318-1.594h121.711l2.318,1.594l1.884,3.478l1.594,4.636L140.113,32.168z"/>
<path fill="#C7C7C7" d="M140.113,32.892l0.435,6.085v5.94l-0.435,6.086l-1.159,5.217l-1.594,4.346l-1.884,3.043l-2.318,1.594H11.447
	l-2.318-1.594l-1.884-3.043l-1.594-4.346l-1.159-5.217l-0.435-6.086v-5.94l0.435-6.085l1.159-5.071l1.594-4.492l1.884-2.897
	l2.318-1.739h121.711l2.318,1.739l1.884,2.897l1.594,4.492L140.113,32.892z"/>
<path fill="#CFCFCF" d="M140.113,34.051l0.435,5.216v5.217l-0.435,5.07l-1.159,4.781l-1.594,3.768l-1.884,2.754l-2.318,1.303H11.447
	l-2.318-1.303l-1.884-2.754l-1.594-3.768l-1.159-4.781l-0.435-5.07v-5.217l0.435-5.216l1.159-4.926l1.594-3.478l1.884-2.753
	l2.318-1.449h121.711l2.318,1.449l1.884,2.753l1.594,3.768L140.113,34.051z"/>
<path fill="#D6D6D6" d="M140.113,34.921l0.435,4.347v4.637l-0.435,4.637l-1.159,4.057l-1.594,3.332l-1.884,2.174l-2.318,1.305
	H11.447l-2.318-1.305L7.244,55.93l-1.594-3.332l-1.159-4.057l-0.435-4.637v-4.637l0.435-4.347l1.159-4.202l1.594-3.188l1.884-2.463
	l2.318-1.159h121.711l2.318,1.159l1.884,2.463l1.594,3.188L140.113,34.921z"/>
<path fill="#DBDBDB" d="M140.113,35.646l0.435,3.912v4.057l-0.435,3.768l-1.159,3.333l-1.594,2.752l-1.884,2.174l-2.318,0.869
	H11.447l-2.318-0.869l-1.884-2.174l-1.594-2.752l-1.159-3.333l-0.435-3.768v-4.057l0.435-3.912l1.159-3.188l1.594-2.753l1.884-2.173
	l2.318-1.159h121.711l2.318,1.159l1.884,2.173l1.594,2.753L140.113,35.646z"/>
<path fill="#E3E3E3" d="M140.113,36.804l0.435,3.043v3.188l-0.435,3.043l-1.159,3.042l-1.594,2.174l-1.884,1.594l-2.318,0.869
	H11.447l-2.318-0.869l-1.884-1.594L5.651,49.12l-1.159-3.042l-0.435-3.043v-3.188l0.435-3.043l1.159-3.042l1.594-2.173l1.884-1.594
	l2.318-0.869h121.711l2.318,0.869l1.884,1.594l1.594,2.173L140.113,36.804z"/>
<path fill="#EBEBEB" d="M140.113,37.674l0.435,2.463v2.318l-0.435,2.463l-1.159,2.174l-1.594,2.028l-1.884,1.015l-2.318,0.869
	L11.447,50.715l-2.318-0.58L7.244,49.12l-1.594-2.028l-1.159-2.174l-0.435-2.463v-2.318l0.435-2.463l1.159-2.318l1.594-1.594
	l1.884-1.304l2.318-0.869h121.711l2.318,0.869l1.884,1.014l1.594,1.884L140.113,37.674z"/>
<path fill="#F2F2F2" d="M140.113,38.398l0.435,1.883v1.739l-0.435,1.884l-1.159,1.304l-1.594,1.449l-1.884,0.725l-2.318,0.579
	H11.447l-2.318-0.579l-1.884-0.725l-1.594-1.449l-1.159-1.304l-0.435-1.884v-1.739l0.435-1.883l1.159-1.304l1.594-1.449l1.884-0.725
	l2.318-0.58h121.711l2.318,0.58l1.884,0.725l1.594,1.449L140.113,38.398z"/>
<path fill="#F7F7F7" d="M140.113,39.558l0.435,1.014v1.159l-0.435,0.724l-1.159,1.159l-1.594,0.87l-1.884,0.434l-2.318,0.29H11.447
	l-2.318-0.29l-1.884-0.434l-1.594-0.87l-1.159-1.159l-0.435-0.724v-1.159l0.435-1.014l1.159-1.159l1.594-0.725l1.884-0.58
	l2.318-0.29h121.711l2.318,0.29l1.884,0.58l1.594,0.725L140.113,39.558z"/>
<ellipse fill="#FFFFFF" cx="72.302" cy="40.862" rx="68.245" ry="1.304"/>
<path fill="none" stroke="#000000" stroke-width="2" d="M140.113,30.284l0.435,7.824v8.259l-0.435,8.114l-1.159,7.1l-1.594,5.796
	l-1.884,4.057l-2.318,2.174H11.447l-2.318-2.174l-1.884-4.057l-1.594-5.796l-1.159-7.1l-0.435-7.824v-8.549l0.435-7.824l1.159-7.1
	l1.594-5.796l1.884-4.057l2.318-2.173h121.711l2.318,2.173l1.884,4.057l1.594,5.796L140.113,30.284"/>
<path fill="#F2F2F2" d="M66.506,8.115h8.839V76.36h-8.839V8.115z"/>
<path fill="#E3E3E3" d="M66.506,8.115h8.839v23.763h-8.839V8.115z"/>
<path fill="#D4D4D4" d="M66.506,8.115h8.839v19.851h-8.839V8.115z"/>
<path fill="#C4C4C4" d="M66.506,8.115h8.839v16.373h-8.839V8.115z"/>
<path fill="#B8B8B8" d="M66.506,8.115h8.839v12.751h-8.839V8.115z"/>
<path fill="#A8A8A8" d="M66.506,8.115h8.839v8.983h-8.839V8.115z"/>
<path fill="#999999" d="M66.506,8.115h8.839v5.506h-8.839V8.115z"/>
<path fill="none" stroke="#000000" stroke-width="2" d="M66.506,8.115h8.839V76.36h-8.839V8.115"/>
<path fill="#666666" d="M69.549,6.667h2.753V76.36h-2.753V6.667z"/>
<path fill="#F2F2F2" d="M18.257,8.115h8.693V76.36h-8.693V8.115z"/>
<path fill="#E3E3E3" d="M18.257,8.115h8.693v23.763h-8.693V8.115z"/>
<path fill="#D4D4D4" d="M18.257,8.115h8.693v19.851h-8.693V8.115z"/>
<path fill="#C4C4C4" d="M18.257,8.115h8.693v16.373h-8.693V8.115z"/>
<path fill="#B8B8B8" d="M18.257,8.115h8.693v12.751h-8.693V8.115z"/>
<path fill="#A8A8A8" d="M18.257,8.115h8.693v8.983h-8.693V8.115z"/>
<path fill="#999999" d="M18.257,8.115h8.693v5.506h-8.693V8.115z"/>
<path fill="none" stroke="#000000" stroke-width="2" d="M18.257,8.115h8.693V76.36h-8.693V8.115"/>
<path fill="#666666" d="M21.299,6.667h2.608V76.36h-2.608V6.667z"/>
<path fill="#F2F2F2" d="M117.944,8.115h8.403V76.36h-8.403V8.115z"/>
<path fill="#E3E3E3" d="M117.944,8.115h8.403v23.763h-8.403V8.115z"/>
<path fill="#D4D4D4" d="M117.944,8.115h8.403v19.851h-8.403V8.115z"/>
<path fill="#C4C4C4" d="M117.944,8.115h8.403v16.373h-8.403V8.115z"/>
<path fill="#B8B8B8" d="M117.944,8.115h8.403v12.751h-8.403V8.115z"/>
<path fill="#A8A8A8" d="M117.944,8.115h8.403v8.983h-8.403V8.115z"/>
<path fill="#999999" d="M117.944,8.115h8.403v5.506h-8.403V8.115z"/>
<path fill="none" stroke="#000000" stroke-width="2" d="M117.944,8.115h8.403V76.36h-8.403V8.115"/>
<path fill="#666666" d="M120.697,6.667h2.753V76.36h-2.753V6.667z"/>
<path fill="#666666" stroke="#000000" stroke-width="2" d="M8.404,76.36H136.2V78.1H8.404V76.36z"/>
<path fill="#666666" stroke="#000000" stroke-width="2" d="M5.361,78.1h133.882v1.304H5.361V78.1z"/>
<path fill="#666666" stroke="#000000" stroke-width="2" d="M4.057,79.403h136.49v1.304H4.057V79.403z"/>
<path fill="#CCCCCC" d="M29.703,5.362h34.194v11.447H29.703V5.362z"/>
<path fill="#666666" d="M31.007,5.362h31.442V4.059H31.007V5.362z"/>
<path fill="#D4D4D4" d="M32.456,5.362h28.979v11.447H32.456V5.362z"/>
<path fill="#DEDEDE" d="M34.919,5.362h23.763v11.447H34.919V5.362z"/>
<path fill="#E5E5E5" d="M37.672,5.362h18.257v11.447H37.672V5.362z"/>
<path fill="#EDEDED" d="M40.136,5.362h13.33v11.447h-13.33V5.362z"/>
<path fill="#F7F7F7" d="M42.743,5.362h7.97v11.447h-7.97V5.362z"/>
<path fill="#FFFFFF" d="M45.207,5.362h3.042v11.447h-3.042V5.362z"/>
<path fill="none" stroke="#000000" stroke-width="2" d="M29.703,16.809V5.362h34.194v11.447"/>
</svg>
