<?xml version="1.0" encoding="utf-8"?>
<!-- Generator: Adobe Illustrator 14.0.0, SVG Export Plug-In . SVG Version: 6.00 Build 43363)  -->
<!DOCTYPE svg PUBLIC "-//W3C//DTD SVG 1.1//EN" "http://www.w3.org/Graphics/SVG/1.1/DTD/svg11.dtd">
<svg version="1.1" id="图层_1" xmlns="http://www.w3.org/2000/svg" xmlns:xlink="http://www.w3.org/1999/xlink" x="0px" y="0px"
	 width="110.253px" height="106.502px" viewBox="0 0 110.253 106.502" enable-background="new 0 0 110.253 106.502"
	 xml:space="preserve">
<path fill="#00FFFF" stroke="#000000" stroke-width="2" d="M107.053,103.301H3.09V11.699v-0.11l2.869-1.766l2.98-0.994l4.083-1.104
	l3.09-0.772l3.532-0.662l3.752-0.662l4.194-0.662l4.415-0.552l4.635-0.552l4.856-0.331l5.187-0.331l5.187-0.11h2.759h2.648
	l5.297,0.11l5.078,0.331l4.966,0.331l4.745,0.552l4.415,0.552l4.194,0.662l3.862,0.662l3.531,0.662l3.312,0.772l2.759,0.662
	l3.532,1.104l3.09,1.215l0.993,0.772v0.221V103.301z"/>
<path fill="none" stroke="#000000" stroke-width="2" d="M3.09,11.699h103.963"/>
</svg>
