<?xml version="1.0" encoding="utf-8"?>
<!-- Generator: Adobe Illustrator 14.0.0, SVG Export Plug-In . SVG Version: 6.00 Build 43363)  -->
<!DOCTYPE svg PUBLIC "-//W3C//DTD SVG 1.1//EN" "http://www.w3.org/Graphics/SVG/1.1/DTD/svg11.dtd">
<svg version="1.1" id="图层_1" xmlns="http://www.w3.org/2000/svg" xmlns:xlink="http://www.w3.org/1999/xlink" x="0px" y="0px"
	 width="77.796px" height="106.502px" viewBox="0 0 77.796 106.502" enable-background="new 0 0 77.796 106.502"
	 xml:space="preserve">
<path fill="#00FFFF" stroke="#000000" stroke-width="2" d="M54.639,103.514H23.051L2.989,74.808V15.154l1.066-2.988l2.455-2.134
	l2.561-1.601l3.202-1.388l3.734-1.174l2.775-0.747l2.987-0.641l3.202-0.533l3.201-0.427l3.415-0.32l3.628-0.213h1.814h1.814h1.813
	l3.629,0.106l3.521,0.32l3.415,0.319l3.201,0.428l2.988,0.64l2.881,0.641l2.668,0.747l3.629,1.28l2.987,1.494l2.349,1.601
	l2.134,2.241l0.747,2.348v59.654L54.639,103.514z"/>
<path fill="none" stroke="#000000" stroke-width="2" d="M2.989,74.488v0.214l2.774,1.387l3.308,0.747l3.202,0.534l3.734,0.427
	l4.269,0.32l2.988,0.213l3.309,0.214l3.308,0.106l3.522,0.106h1.813h1.814h1.814h3.734l3.522-0.106l3.414-0.106l3.309-0.107
	l3.095-0.213l2.988-0.214l4.055-0.32l3.629-0.533l2.987-0.427l2.988-0.747l2.241-1.28v-0.214"/>
<path fill="none" stroke="#000000" stroke-width="2" d="M2.989,16.648v0.214l2.774,1.493l3.308,0.747l3.202,0.427l3.734,0.428
	l4.269,0.427l2.988,0.213l3.309,0.107l3.308,0.106l3.522,0.106h1.813l1.814,0.106h1.814l3.734-0.106h3.522l3.414-0.106l3.309-0.214
	l3.095-0.106l2.988-0.214l4.055-0.427l3.629-0.427l2.987-0.533l2.988-0.747l2.241-1.28v-0.214"/>
</svg>
