<?xml version="1.0" encoding="utf-8"?>
<!-- Generator: Adobe Illustrator 14.0.0, SVG Export Plug-In . SVG Version: 6.00 Build 43363)  -->
<!DOCTYPE svg PUBLIC "-//W3C//DTD SVG 1.1//EN" "http://www.w3.org/Graphics/SVG/1.1/DTD/svg11.dtd">
<svg version="1.1" id="图层_1" xmlns="http://www.w3.org/2000/svg" xmlns:xlink="http://www.w3.org/1999/xlink" x="0px" y="0px"
	 width="144.749px" height="90.792px" viewBox="0 0 144.749 90.792" enable-background="new 0 0 144.749 90.792"
	 xml:space="preserve">
<path fill="#CCCCCC" d="M140.251,28.572l0.435,10.007v10.443l-0.435,10.442l-1.16,8.992l-1.596,7.252l-1.886,5.221l-2.176,2.756
	H11.315l-2.176-2.756l-1.886-5.221l-1.595-7.252l-1.16-8.992L4.063,49.312V38.579l0.436-10.007l1.16-8.992l1.595-7.396l1.886-5.511
	l2.176-2.611h122.119l2.176,2.611l1.886,5.221l1.596,7.687L140.251,28.572z"/>
<path fill="#D1D1D1" d="M140.251,29.877l0.435,9.282v9.572l-0.435,9.282l-1.16,8.267l-1.596,6.816l-1.886,4.932l-2.176,2.466H11.315
	l-2.176-2.466l-1.886-4.932l-1.305-6.816l-1.45-8.267l-0.436-9.282V39.16l0.436-9.282l1.45-8.412l1.305-6.817l1.886-4.641
	l2.176-2.465h122.119l2.176,2.465l1.886,4.641l1.596,6.817L140.251,29.877z"/>
<path fill="#D6D6D6" d="M140.251,31.038l0.435,8.412v8.702l-0.435,8.557l-1.16,7.542l-1.596,6.091l-1.886,4.352l-2.176,2.176H11.315
	l-2.176-2.176l-1.886-4.352L5.948,64.25l-1.45-7.542l-0.436-8.557V39.45l0.436-8.412l1.45-7.397l1.305-6.236l1.886-4.351
	l2.176-2.176h122.119l2.176,2.176l1.886,4.351l1.596,6.236L140.251,31.038z"/>
<path fill="#D9D9D9" d="M140.251,32.343l0.435,7.687v7.687l-0.435,7.542l-1.16,6.817l-1.596,5.511l-1.886,4.062l-2.176,2.029H11.315
	l-2.176-2.029l-1.886-4.062l-1.305-5.511l-1.45-6.817l-0.436-7.542V40.03l0.436-7.687l1.45-6.816l1.305-5.366l1.886-3.916
	l2.176-2.176h122.119l2.176,1.886l1.886,4.206l1.596,5.366L140.251,32.343z"/>
<path fill="#DEDEDE" d="M140.251,33.793l0.435,6.527v7.107l-0.435,6.525l-1.16,5.947l-1.596,5.221l-1.886,3.336l-2.176,1.885H11.315
	l-2.176-1.885l-1.886-3.626l-1.305-4.642l-1.45-6.236l-0.436-6.525V40.32l0.436-6.527l1.45-6.091l1.305-4.931l1.886-3.481
	l2.176-1.885h122.119l2.176,1.885l1.886,3.481l1.596,4.931L140.251,33.793z"/>
<path fill="#E3E3E3" d="M140.251,35.099l0.435,5.801v5.946l-0.435,6.092l-1.16,5.076l-1.596,4.351l-1.886,3.046l-2.176,1.596
	l-122.119-0.29l-2.176-1.306l-1.886-3.046l-1.305-4.351l-1.45-5.076l-0.436-6.092V40.9l0.436-5.801l1.45-5.512l1.305-4.061
	l1.886-3.191l2.176-1.45h122.119l2.176,1.45l1.886,3.191l1.596,4.061L140.251,35.099z"/>
<path fill="#E8E8E8" d="M140.251,36.259l0.435,5.076v5.221l-0.435,4.932l-1.16,4.351l-1.596,3.771l-1.886,2.467l-2.176,1.449H11.315
	l-2.176-1.449l-1.886-2.467l-1.305-3.771l-1.45-4.351l-0.436-4.932v-5.221l0.436-5.076l1.45-4.351l1.305-3.916l1.886-2.465
	l2.176-1.306h122.119l2.176,1.306l1.886,2.465l1.596,3.916L140.251,36.259z"/>
<path fill="#EDEDED" d="M140.251,37.564l0.435,4.061v4.351l-0.435,4.061l-1.16,3.916L137.495,57l-1.886,2.175l-2.176,1.015H11.315
	l-2.176-1.015L7.253,57l-1.305-3.047l-1.45-3.916l-0.436-4.061v-4.351l0.436-4.061l1.45-3.771l1.305-3.045l1.886-2.176l2.176-1.16
	h122.119l2.176,1.16l1.886,2.176l1.596,3.045L140.251,37.564z"/>
<path fill="#F2F2F2" d="M140.251,38.87l0.435,3.335v3.336l-0.435,3.191l-1.16,3.045l-1.596,2.467l-1.886,1.595L133.434,57
	L11.315,56.708l-2.176-0.87l-1.886-1.595l-1.305-2.467l-1.45-3.045l-0.436-3.191v-3.336l0.436-3.335l1.45-2.901l1.305-2.466
	l1.886-1.595l2.176-0.87h122.119l2.176,0.87l1.886,1.595l1.596,2.466L140.251,38.87z"/>
<path fill="#F5F5F5" d="M140.251,40.32l0.435,2.465v2.466l-0.435,2.465l-1.16,2.176l-1.596,1.596l-1.886,1.45l-2.176,0.435H11.315
	l-2.176-0.435l-1.886-1.45l-1.305-1.596l-1.45-2.176l-0.436-2.465v-2.466l0.436-2.465l1.45-2.176l1.305-1.885l1.886-1.45l2.176-0.58
	h122.119l2.176,0.58l1.886,1.45l1.596,1.885L140.251,40.32z"/>
<path fill="#FAFAFA" d="M140.251,41.335l0.435,1.74v1.596l-0.435,1.595l-1.16,1.45l-1.596,1.016l-1.886,0.87l-2.176,0.435H11.315
	l-2.176-0.435l-1.886-0.87l-1.305-1.016l-1.45-1.45l-0.436-1.595v-1.596l0.436-1.74l1.45-1.305l1.305-1.16l1.886-0.726l2.176-0.58
	h122.119l2.176,0.58l1.886,0.726l1.596,1.16L140.251,41.335z"/>
<ellipse fill="#FFFFFF" cx="72.374" cy="43.945" rx="68.312" ry="2.755"/>
<path fill="#F2F2F2" d="M12.475,4.061h1.596v79.624h-1.596V4.061z"/>
<path fill="#F2F2F2" d="M130.679,4.061h1.305v79.624h-1.305V4.061z"/>
<path fill="none" stroke="#000000" stroke-width="2" d="M140.251,28.572l0.435,10.007v10.443l-0.435,10.442l-1.16,8.992
	l-1.596,7.252l-1.886,5.221l-2.176,2.756H11.315l-2.176-2.756l-1.886-5.221l-1.595-7.252l-1.16-8.992L4.063,49.312V38.579
	l0.436-10.007l1.16-8.992l1.595-7.396l1.886-5.511l2.176-2.611h122.119l2.176,2.611l1.886,5.221l1.596,7.687L140.251,28.572"/>
<path fill="#E3E3E3" d="M65.122,64.105h14.214v22.626H65.122V64.105z"/>
<path fill="none" stroke="#000000" stroke-width="2" d="M65.122,64.105v22.626h14.214V64.105"/>
<path fill="#E3E3E3" d="M25.238,64.105h14.214v22.626H25.238V64.105z"/>
<path fill="none" stroke="#000000" stroke-width="2" d="M25.238,64.105v22.626h14.214V64.105"/>
<path fill="#E3E3E3" d="M105.007,64.105h14.504v22.626h-14.504V64.105z"/>
<path fill="none" stroke="#000000" stroke-width="2" d="M105.007,64.105v22.626h14.504V64.105"/>
</svg>
