<?xml version="1.0" encoding="utf-8"?>
<!-- Generator: Adobe Illustrator 14.0.0, SVG Export Plug-In . SVG Version: 6.00 Build 43363)  -->
<!DOCTYPE svg PUBLIC "-//W3C//DTD SVG 1.1//EN" "http://www.w3.org/Graphics/SVG/1.1/DTD/svg11.dtd">
<svg version="1.1" id="图层_1" xmlns="http://www.w3.org/2000/svg" xmlns:xlink="http://www.w3.org/1999/xlink" x="0px" y="0px"
	 width="54.158px" height="106.502px" viewBox="0 0 54.158 106.502" enable-background="new 0 0 54.158 106.502"
	 xml:space="preserve">
<path fill="#E5E5E5" stroke="#000000" stroke-width="2" d="M50,15.779H4.158l0.64-4.371l1.6-2.665L8.743,6.93l3.091-1.173
	l3.625-0.533l1.919-0.213h17.484L38.7,5.224l3.624,0.533l2.985,1.173l2.452,1.813l1.599,2.665L50,15.245V15.779z"/>
<path d="M31.877,4.584h7.463V3.518h-7.463V4.584z"/>
<path d="M13.22,8.422h-0.107h-2.771L9.275,8.209H8.956L8.21,7.782V3.945h5.011V8.422z"/>
<path d="M44.99,7.782l-0.854,0.427L43.07,8.316l-0.106,0.106h-2.984V3.945h5.011V7.782z"/>
<path d="M33.475,4.584h4.265v0.64l-4.265-0.213V4.584z"/>
<path d="M38.167,3.945h8.635v-0.96h-8.635V3.945z"/>
<path d="M6.397,3.945h8.422v-0.96H6.397V3.945z"/>
<path d="M15.459,4.584h7.356V3.518h-7.356V4.584z"/>
<path d="M17.058,4.584h4.157v0.427l-4.157,0.213V4.584z"/>
<path d="M21.216,3.945h11.088v-0.96H21.216V3.945z"/>
<path d="M23.668,3.945h6.396v4.798h-6.396V3.945z"/>
<path fill="#B2B2B2" d="M33.689,4.584h3.624v0.64l-3.624-0.213V4.584z"/>
<path fill="#B2B2B2" d="M12.581,8.422l-0.427,0.213l-1.066-0.213l-0.959-0.106l-0.96-0.106H8.956L8.849,8.103l-0.427-0.32V4.157
	h4.158V8.422z"/>
<path fill="#B2B2B2" d="M44.35,7.995v0.107l0,0l-0.107,0.106l-0.959,0.106l-0.96,0.106l-1.173,0.213l-1.065-0.213V4.157h4.265V7.995
	z"/>
<path fill="#B2B2B2" d="M32.09,4.584h6.396V3.732H32.09V4.584z"/>
<path fill="#B2B2B2" d="M17.058,4.584h3.838v0.427h-3.838V4.584z"/>
<path fill="#B2B2B2" d="M15.672,4.584h6.396V3.732h-6.396V4.584z"/>
<path fill="#B2B2B2" d="M38.38,3.945h7.356V3.198H38.38V3.945z"/>
<path fill="#B2B2B2" d="M23.881,4.157h5.438v4.585h-5.438V4.157z"/>
<path fill="#B2B2B2" d="M21.642,3.945h9.488V3.198h-9.488V3.945z"/>
<path fill="#B2B2B2" d="M6.61,3.945h7.356V3.198H6.61V3.945z"/>
<path fill="#B2B2B2" stroke="#000000" stroke-width="2" d="M4.158,16.204H50v47.654l-0.426,4.371l-1.6,3.838l-2.238,3.198
	l-2.772,2.879l-3.411,2.132l-3.838,1.706l-4.265,0.959l-4.371,0.427l-4.478-0.427l-3.944-0.959l-4.051-1.493l-3.412-2.132
	L8.21,75.479L5.97,72.281L4.585,68.23l-0.427-4.371V16.204z"/>
<path d="M50,16.204v47.654l-0.426,4.371l-1.6,3.838l-2.238,3.198l-2.772,2.879l-3.411,2.132l-3.838,1.706l-4.265,0.959l-4.371,0.427
	l-4.478-0.427l-3.944-0.959l-4.051-1.493l7.249-1.386l7.25-2.559l5.224-4.265l2.238-6.396v-49.68H50z"/>
<path fill="#F0F0F0" stroke="#000000" stroke-width="2" d="M10.981,78.145l10.234,0.532h11.728l10.447-0.532l0.533,0.319
	l-0.96,2.239l-1.386,0.64l-8.635,0.64H21.216l-7.782-0.64l-2.452-1.813l-0.213-1.066L10.981,78.145z"/>
<path fill="#F0F0F0" stroke="#000000" stroke-width="2" d="M7.143,73.453l14.072,1.066h11.728l14.392-1.066l0.854,0.427l-0.64,2.238
	l-1.173,0.64l-13.433,0.96H21.216L8.21,76.758l-1.279-0.64L6.61,73.88L7.143,73.453z"/>
<path fill="#F0F0F0" stroke="#000000" stroke-width="2" d="M5.011,69.296l4.584,0.213l11.62,0.746h11.728l11.62-0.746l5.011-0.427
	l0.64,0.427L50,71.855l-1.172,0.64l-4.265,0.426l-11.62,0.533H21.216L9.595,72.92l-3.838-0.426l-0.96-0.64l-0.64-2.133L5.011,69.296
	z"/>
<path fill="#F0F0F0" stroke="#000000" stroke-width="2" d="M4.158,64.819l5.438,0.426l11.62,0.854h11.728l11.62-0.854L50,64.819
	l0.96,0.426v2.239l-0.746,0.533l-5.65,0.426l-11.62,0.854H21.216l-11.62-0.854l-5.224-0.426l-0.854-0.533l-0.106-2.239L4.158,64.819
	z"/>
<path fill="#F0F0F0" stroke="#000000" stroke-width="2" d="M3.945,60.66l5.65,0.427l11.62,0.746h11.728l11.62-0.746l5.65-0.427
	l0.959,0.427v2.132l-0.959,0.64l-5.65,0.427l-11.62,0.746H21.216l-11.62-0.746l-5.65-0.427l-0.96-0.64v-2.132L3.945,60.66z"/>
<path fill="#F0F0F0" stroke="#000000" stroke-width="2" d="M3.945,56.396l5.65,0.427l11.62,0.746h11.728l11.62-0.746l5.65-0.427
	l0.959,0.427v2.239l-0.959,0.532l-5.65,0.427l-11.62,0.853H21.216l-11.62-0.853l-5.65-0.427l-0.96-0.532v-2.239L3.945,56.396z"/>
<path fill="#F0F0F0" stroke="#000000" stroke-width="2" d="M3.945,52.239l5.65,0.319l11.62,0.854h11.728l11.62-0.854l5.65-0.319
	l0.959,0.319v2.239l-0.959,0.64l-5.65,0.427l-11.62,0.746H21.216l-11.62-0.746l-5.65-0.427l-0.96-0.64v-2.239L3.945,52.239z"/>
<path fill="#F0F0F0" stroke="#000000" stroke-width="2" d="M3.945,47.974l5.65,0.427l11.62,0.746h11.728l11.62-0.746l5.65-0.427
	l0.959,0.427v2.132l-0.959,0.64l-5.65,0.427l-11.62,0.746H21.216l-11.62-0.746l-5.65-0.427l-0.96-0.64v-2.132L3.945,47.974z"/>
<path fill="#F0F0F0" stroke="#000000" stroke-width="2" d="M3.945,43.71l5.65,0.426l11.62,0.854h11.728l11.62-0.854l5.65-0.426
	l0.959,0.426v2.239l-0.959,0.64l-5.65,0.319l-11.62,0.854H21.216l-11.62-0.854l-5.65-0.319l-0.96-0.64v-2.239L3.945,43.71z"/>
<path fill="#F0F0F0" stroke="#000000" stroke-width="2" d="M3.945,39.552l5.65,0.427l11.62,0.746h11.728l11.62-0.746l5.65-0.427
	l0.959,0.427v2.132l-0.959,0.64l-5.65,0.427l-11.62,0.746H21.216l-11.62-0.746l-5.65-0.427l-0.96-0.64v-2.132L3.945,39.552z"/>
<path fill="#F0F0F0" stroke="#000000" stroke-width="2" d="M3.945,35.287l5.65,0.427l11.62,0.853h11.728l11.62-0.853l5.65-0.427
	l0.959,0.427v2.238l-0.959,0.533l-5.65,0.427l-11.62,0.853H21.216l-11.62-0.853l-5.65-0.427l-0.96-0.533v-2.238L3.945,35.287z"/>
<path fill="#F0F0F0" stroke="#000000" stroke-width="2" d="M3.945,31.13l5.65,0.319l11.62,0.854h11.728l11.62-0.854l5.65-0.319
	l0.959,0.319v2.239l-0.959,0.64l-5.65,0.426l-11.62,0.747H21.216l-11.62-0.747l-5.65-0.426l-0.96-0.64v-2.239L3.945,31.13z"/>
<path fill="#F0F0F0" stroke="#000000" stroke-width="2" d="M3.945,26.865l5.65,0.427l11.62,0.746h11.728l11.62-0.746l5.65-0.427
	l0.959,0.427v2.238l-0.959,0.533l-5.65,0.427l-11.62,0.853H21.216L9.595,30.49l-5.65-0.427l-0.96-0.533v-2.238L3.945,26.865z"/>
<path fill="#F0F0F0" stroke="#000000" stroke-width="2" d="M3.945,22.601l5.65,0.427l11.62,0.853h11.728l11.62-0.853l5.65-0.427
	l0.959,0.427v2.239l-0.959,0.64l-5.65,0.319l-11.62,0.853H21.216l-11.62-0.853l-5.65-0.319l-0.96-0.64v-2.239L3.945,22.601z"/>
<path fill="#F0F0F0" stroke="#000000" stroke-width="2" d="M3.945,18.444l5.65,0.426l11.62,0.747h11.728l11.62-0.747l5.65-0.426
	l0.959,0.426v2.133l-0.959,0.64l-5.65,0.426l-11.62,0.747H21.216l-11.62-0.747l-5.65-0.426l-0.96-0.64v-2.133L3.945,18.444z"/>
<path fill="#F0F0F0" stroke="#000000" stroke-width="2" d="M3.945,14.179l5.65,0.427l11.62,0.853h11.728l11.62-0.853l5.65-0.427
	l0.959,0.427v2.238l-0.959,0.533l-5.65,0.427l-11.62,0.853H21.216l-11.62-0.853l-5.65-0.427l-0.96-0.533v-2.238L3.945,14.179z"/>
<path fill="none" stroke="#000000" stroke-width="2" d="M2.985,16.844l11.621,0.96l12.047,0.426l12.26-0.426l12.26-0.96"/>
<path fill="none" stroke="#000000" stroke-width="2" d="M2.985,21.002l11.621,1.065l12.047,0.427l12.26-0.427l12.26-1.065"/>
<path fill="none" stroke="#000000" stroke-width="2" d="M2.985,25.267l11.621,0.959l12.047,0.427l12.26-0.427l12.26-0.959"/>
<path fill="none" stroke="#000000" stroke-width="2" d="M2.985,29.531l11.621,0.96l12.047,0.426l12.26-0.426l12.26-0.96"/>
<path fill="none" stroke="#000000" stroke-width="2" d="M2.985,33.689l11.621,1.065l12.047,0.32l12.26-0.32l12.26-1.065"/>
<path fill="none" stroke="#000000" stroke-width="2" d="M2.985,37.952l11.621,0.96l12.047,0.427l12.26-0.427l12.26-0.96"/>
<path fill="none" stroke="#000000" stroke-width="2" d="M2.985,42.111l11.621,1.066l12.047,0.426l12.26-0.426l12.26-1.066"/>
<path fill="none" stroke="#000000" stroke-width="2" d="M2.985,46.375l11.621,0.959l12.047,0.427l12.26-0.427l12.26-0.959"/>
<path fill="none" stroke="#000000" stroke-width="2" d="M2.985,50.532l11.621,1.066l12.047,0.427l12.26-0.427l12.26-1.066"/>
<path fill="none" stroke="#000000" stroke-width="2" d="M2.985,54.797l11.621,1.066l12.047,0.319l12.26-0.319l12.26-1.066"/>
<path fill="none" stroke="#000000" stroke-width="2" d="M2.985,59.062l11.621,0.959l12.047,0.427l12.26-0.427l12.26-0.959"/>
<path fill="none" stroke="#000000" stroke-width="2" d="M2.985,63.219l11.621,1.066l12.047,0.319l12.26-0.319l12.26-1.066"/>
<path fill="none" stroke="#000000" stroke-width="2" d="M3.518,67.697l11.088,0.746l12.047,0.427l12.26-0.427l12.26-0.959"/>
<path fill="none" stroke="#000000" stroke-width="2" d="M5.011,72.068l9.595,0.853l12.047,0.214l12.26-0.427l10.661-0.853"/>
<path fill="none" stroke="#000000" stroke-width="2" d="M7.356,76.545l19.297,0.746l20.362-0.746"/>
<path fill="none" stroke="#000000" stroke-width="2" d="M13.007,81.129l13.646,0.427l15.245-0.427"/>
<path fill="#E0E0E0" d="M38.486,3.945h5.864V3.198h-5.864V3.945z"/>
<path fill="#E0E0E0" d="M11.834,8.422h-0.213h-0.106h-0.106h-0.214h-0.106h-0.213h-0.106h-0.214h-0.213l-0.213-0.106H9.915H9.702
	L9.489,8.209H9.275H9.169H8.956L8.849,8.103L8.635,7.995H8.529H8.423V4.157h3.411V8.422z"/>
<path fill="#E0E0E0" d="M43.603,8.422h-0.319H43.07h-0.106h-0.213h-0.213h-0.214h-0.213l-0.213,0.106h-0.32h-0.213l-0.214,0.106
	h-0.213l-0.213-0.106h-0.106l-0.214-0.106h-0.319V4.157h3.518V8.422z"/>
<path fill="#E0E0E0" d="M21.855,3.945h7.463V3.198h-7.463V3.945z"/>
<path fill="#E0E0E0" d="M23.881,4.157h4.371v4.585h-4.371V4.157z"/>
<path fill="#E0E0E0" d="M6.824,3.945h5.543V3.198H6.824V3.945z"/>
<path fill="#7F7F7F" d="M6.61,3.945h0.32v0.213H6.61V3.945z"/>
<path fill="#7F7F7F" d="M7.356,3.945h0.427v0.213H7.356V3.945z"/>
<path fill="#7F7F7F" d="M7.996,3.945h0.64v0.213h-0.64V3.945z"/>
<path fill="#7F7F7F" d="M8.743,3.945h0.64v0.213h-0.64V3.945z"/>
<path fill="#7F7F7F" d="M9.595,3.945h0.427v0.213H9.595V3.945z"/>
<path fill="#7F7F7F" d="M10.235,3.945h0.533v0.213h-0.533V3.945z"/>
<path fill="#7F7F7F" d="M10.981,3.945h0.64v0.213h-0.64V3.945z"/>
<path fill="#7F7F7F" d="M11.834,3.945h0.32v0.213h-0.32V3.945z"/>
<path fill="#7F7F7F" d="M12.367,3.945h0.64v0.213h-0.64V3.945z"/>
<path fill="#7F7F7F" d="M13.22,3.945h0.64v0.213h-0.64V3.945z"/>
<path fill="#7F7F7F" d="M13.967,3.945h0.64v0.213h-0.64V3.945z"/>
<path fill="#7F7F7F" d="M21.428,3.945h0.64v0.213h-0.64V3.945z"/>
<path fill="#7F7F7F" d="M22.495,3.945h0.533v0.213h-0.533V3.945z"/>
<path fill="#7F7F7F" d="M23.455,3.945h0.64v0.213h-0.64V3.945z"/>
<path fill="#7F7F7F" d="M24.414,3.945h0.64v0.213h-0.64V3.945z"/>
<path fill="#7F7F7F" d="M25.267,3.945h0.853v0.213h-0.853V3.945z"/>
<path fill="#7F7F7F" d="M26.226,3.945h0.853v0.213h-0.853V3.945z"/>
<path fill="#7F7F7F" d="M27.293,3.945h0.64v0.213h-0.64V3.945z"/>
<path fill="#7F7F7F" d="M28.252,3.945h0.64v0.213h-0.64V3.945z"/>
<path fill="#7F7F7F" d="M29.318,3.945h0.533v0.213h-0.533V3.945z"/>
<path fill="#7F7F7F" d="M30.277,3.945h0.64v0.213h-0.64V3.945z"/>
<path fill="#7F7F7F" d="M31.131,3.945h0.746v0.213h-0.746V3.945z"/>
<path fill="#7F7F7F" d="M38.38,3.945h0.533v0.213H38.38V3.945z"/>
<path fill="#7F7F7F" d="M39.126,3.945h0.427v0.213h-0.427V3.945z"/>
<path fill="#7F7F7F" d="M39.765,3.945h0.533v0.213h-0.533V3.945z"/>
<path fill="#7F7F7F" d="M40.511,3.945h0.64v0.213h-0.64V3.945z"/>
<path fill="#7F7F7F" d="M41.365,3.945h0.426v0.213h-0.426V3.945z"/>
<path fill="#7F7F7F" d="M41.898,3.945h0.64v0.213h-0.64V3.945z"/>
<path fill="#7F7F7F" d="M42.751,3.945h0.64v0.213h-0.64V3.945z"/>
<path fill="#7F7F7F" d="M43.603,3.945h0.533v0.213h-0.533V3.945z"/>
<path fill="#7F7F7F" d="M44.35,3.945h0.426v0.213H44.35V3.945z"/>
<path fill="#7F7F7F" d="M44.99,3.945h0.532v0.213H44.99V3.945z"/>
<path fill="#7F7F7F" d="M45.736,3.945h0.64v0.213h-0.64V3.945z"/>
<path fill="#FFFFFF" d="M8.635,7.995L8.635,7.995h0.107l0.106,0.107l0.106,0.106V4.157h-0.32V7.995z"/>
<path fill="#FFFFFF" d="M40.299,8.422h0.106h0.106h0.107h0.106V4.157h-0.427V8.422z"/>
<path fill="#FFFFFF" d="M38.7,3.945h0.64V3.198H38.7V3.945z"/>
<path fill="#FFFFFF" d="M24.094,4.157h0.532v4.585h-0.532V4.157z"/>
<path fill="#FFFFFF" d="M21.855,3.945h0.96V3.198h-0.96V3.945z"/>
<path fill="#FFFFFF" d="M6.93,3.945h0.64V3.198H6.93V3.945z"/>
<path fill="#B2B2B2" stroke="#000000" stroke-width="2" d="M42.964,78.145h0.427l0.533,0.319l-0.96,2.239l-1.386,0.64l-2.452,0.213
	v2.346h11.407v-8.636h-2.559l-0.426,0.853l-1.173,0.64l-2.239,0.107L42.964,78.145z"/>
<path fill="#B2B2B2" stroke="#000000" stroke-width="2" d="M15.246,81.556l-1.813-0.213l-2.452-1.813l-0.213-1.066l0.213-0.319
	l-1.386-1.279L8.21,76.758l-1.279-0.64l-0.32-0.853H3.518v8.636h11.728V81.556z"/>
<path fill="#B2B2B2" stroke="#000000" stroke-width="2" d="M29.637,76.865h1.066v9.062h-1.066V76.865z"/>
<path fill="#B2B2B2" stroke="#000000" stroke-width="2" d="M24.414,76.865h1.066v9.062h-1.066V76.865z"/>
<path fill="#7F7F7F" stroke="#000000" stroke-width="2" d="M51.173,85.394h-9.382v-1.492h9.382V85.394z"/>
<path fill="#7F7F7F" stroke="#000000" stroke-width="2" d="M3.199,85.394h9.382v-1.492H3.199V85.394z"/>
<path fill="#F0F0F0" stroke="#000000" stroke-width="2" d="M50.214,103.41h-6.29v-1.386h1.279V85.394h3.731v16.631h1.279V103.41z"/>
<path fill="#F0F0F0" stroke="#000000" stroke-width="2" d="M30.704,103.41h-6.396v-1.386h1.386V85.5h3.625v16.524h1.386V103.41z"/>
<path fill="#F0F0F0" stroke="#000000" stroke-width="2" d="M3.945,103.41h6.503v-1.386H8.956V85.394H5.331v16.631H3.945V103.41z"/>
<path fill="#F0F0F0" stroke="#000000" stroke-width="2" d="M25.48,85.5v-8.209h4.157V85.5H25.48z"/>
</svg>
