<?xml version="1.0" encoding="utf-8"?>
<!-- Generator: Adobe Illustrator 14.0.0, SVG Export Plug-In . SVG Version: 6.00 Build 43363)  -->
<!DOCTYPE svg PUBLIC "-//W3C//DTD SVG 1.1//EN" "http://www.w3.org/Graphics/SVG/1.1/DTD/svg11.dtd">
<svg version="1.1" id="图层_1" xmlns="http://www.w3.org/2000/svg" xmlns:xlink="http://www.w3.org/1999/xlink" x="0px" y="0px"
	 width="36.461px" height="106.502px" viewBox="0 0 36.461 106.502" enable-background="new 0 0 36.461 106.502"
	 xml:space="preserve">
<path fill="#006600" d="M33.369,100.426V39.552l-0.64-2.771l-1.919-2.452l-2.985-1.919l-3.731-1.386l-2.878-0.427l-1.492-0.213
	H18.23h-1.599l-2.985,0.426l-2.665,0.64l-3.519,1.6l-2.665,2.132l-1.492,2.452l-0.32,0.959v0.96v60.874v0.213l2.559,1.492
	l2.985,0.64l3.731,0.427l2.878,0.213h1.493h1.599h2.985l4.265-0.319l3.518-0.533l3.198-0.959l1.173-0.96V100.426z"/>
<path fill="#007A00" d="M31.023,100.32V88.912v-1.919v-1.919V52.772v-3.838v-9.488l-0.64-2.665l-1.599-2.452l-2.452-1.919
	l-3.198-1.386l-3.625-0.64l-1.279-0.107l-1.386,0.107l-3.625,0.64l-3.198,1.386l-2.452,1.919L5.97,36.781l-0.533,1.705v0.96v1.919
	v9.488v3.838v32.303v3.838v9.488l2.132,1.705l3.519,0.854l3.305,0.426h1.279l1.173,0.106h1.386l3.731-0.106l3.411-0.426l2.666-0.533
	l2.665-1.386L31.023,100.32z"/>
<path fill="#008F00" d="M28.571,100.32V88.912v-1.919v-1.919V52.772v-3.838v-9.488l-0.853-3.519l-1.599-2.238l-2.133-1.813
	l-2.665-1.173l-2.132-0.319l-0.96-0.107l-1.065,0.107l-2.985,0.64l-2.559,1.386l-2.559,2.665l-0.96,2.559l-0.213,0.853v0.96v1.919
	v9.488v3.838v32.303v3.838v9.488l0.213,0.64l2.772,1.599l3.305,0.64l1.919,0.106l1.066,0.106h1.065l3.092-0.106l3.411-0.64
	l2.985-1.065l0.64-0.64L28.571,100.32z"/>
<path fill="#00A300" d="M26.12,100.32V98.4v-1.812v-1.919V39.446l-0.64-3.519l-1.706-2.878l-2.452-2.025l-2.346-0.64l-0.746-0.107
	l-0.853,0.107l-2.879,1.065l-2.345,2.239l-1.493,3.092l-0.319,1.705v0.96v1.919v9.488v3.838v32.303v3.838v9.488l2.238,2.238
	l3.305,0.746h0.747l0.746,0.106h0.853l3.092-0.213l2.985-0.853L26.12,100.32z"/>
<path fill="#00B800" d="M23.668,100.32V88.912l0.106-1.919v-1.919V52.772l-0.106-3.838v-9.488l-0.427-3.519l-1.173-2.878
	l-2.238-2.346l-1.066-0.319l-0.533-0.107l-0.64,0.107l-2.452,1.492l-1.492,2.452l-0.853,3.305v0.853v0.96v1.919v58.955l1.919,2.345
	l2.345,0.64l0.533,0.106h0.64l2.985-0.532l2.238-1.6L23.668,100.32z"/>
<path fill="#00CC00" d="M21.216,100.426V39.552l-0.213-3.625l-0.64-2.878l-1.6-2.452l-0.213-0.213h-0.32h-0.319l-1.919,2.665
	l-0.64,2.878l-0.214,2.665v61.834l1.386,2.452l1.706,0.532l2.452-1.279L21.216,100.426z"/>
<path fill="none" stroke="#000000" stroke-width="2" d="M33.369,100.426V39.552l-0.64-2.771l-1.919-2.452l-2.985-1.919l-3.731-1.386
	l-2.878-0.427l-1.492-0.213H18.23h-1.599l-2.985,0.426l-2.665,0.64l-3.519,1.6l-2.665,2.132l-1.492,2.452l-0.32,0.959v0.96v60.874
	v0.213l2.559,1.492l2.985,0.64l3.731,0.427l2.878,0.213h1.493h1.599h2.985l4.265-0.319l3.518-0.533l3.198-0.959l1.173-0.96V100.426"
	/>
<path fill="#663333" d="M24.307,32.089V6.823l-1.493-2.452L19.83,3.092l-1.279-0.107h-0.64h-0.64l-2.879,0.64L12.047,5.33
	l-0.426,1.066v0.427v25.266v0.214l0.106,0.106l2.665,0.746l2.239,0.213h0.64h0.64l2.984-0.106l2.879-0.64l0.319-0.213l0.107-0.106
	L24.307,32.089z"/>
<path fill="#703D33" d="M23.241,32.089v-4.69v-0.853v-0.747V12.26V9.168L23.135,5.97l-2.239-2.346l-1.919-0.64h-1.065h-1.066
	l-2.665,1.066L12.686,5.97L12.58,6.716V7.57v24.52l0.106,0.32l3.198,0.853l0.96,0.106h1.066h1.065l3.412-0.533l0.746-0.426
	L23.241,32.089z"/>
<path fill="#7A4733" d="M22.282,32.089v-0.746v-0.746v-0.853V6.716l-1.279-2.665l-2.239-1.066h-0.853h-0.854l-2.665,1.6l-0.64,1.386
	l-0.106,0.746V7.57v24.52l0.106,0.32l3.305,0.959h0.854h0.853l3.198-0.746l0.213-0.213L22.282,32.089z"/>
<path fill="#855233" d="M21.216,32.089v-4.69v-0.853v-0.747V12.26V9.168L21.109,5.97l-1.386-2.346l-1.173-0.64h-0.64h-0.64
	l-2.346,2.239L14.713,5.97l-0.107,0.746V7.57v3.944v3.198v11.834v3.198l0.107,2.665l2.559,0.959h0.64h0.64l2.559-0.959
	L21.216,32.089z"/>
<path fill="#8F5C33" d="M20.256,32.089v-4.69v-0.853v-0.747V12.26V9.168L20.149,5.97l-1.386-2.665l-0.319-0.32h-0.533h-0.427
	l-1.706,2.239L15.672,5.97v0.746V7.57v24.52v0.32l1.813,0.959h0.427h0.533l1.705-0.959L20.256,32.089z"/>
<path fill="#996633" d="M19.19,32.089V6.823l-0.533-3.199l-0.427-0.64h-0.319h-0.214L16.738,5.97l-0.106,0.854v25.266l1.279,1.279
	L19.19,32.089z"/>
<path fill="none" stroke="#000000" stroke-width="2" d="M24.307,32.089V6.823l-1.493-2.452L19.83,3.092l-1.279-0.107h-0.64h-0.64
	l-2.879,0.64L12.047,5.33l-0.426,1.066v0.427v25.266v0.214l0.106,0.106l2.665,0.746l2.239,0.213h0.64h0.64l2.984-0.106l2.879-0.64
	l0.319-0.213l0.107-0.106L24.307,32.089"/>
<path fill="#400D0D" stroke="#000000" stroke-width="2" d="M19.723,21.748v10.555h-4.158V21.748v-0.32l0.106-0.426l0.213-0.427
	l0.32-0.213l0.213-0.32l0.427-0.213l0.427-0.106h0.319h0.427l0.427,0.106l0.319,0.213l0.32,0.32l0.213,0.213l0.213,0.427
	l0.214,0.426V21.748z"/>
<path fill="#007F00" d="M15.565,30.703h4.158v1.6h-4.158V30.703z"/>
</svg>
