<?xml version="1.0" encoding="utf-8"?>
<!-- Generator: Adobe Illustrator 14.0.0, SVG Export Plug-In . SVG Version: 6.00 Build 43363)  -->
<!DOCTYPE svg PUBLIC "-//W3C//DTD SVG 1.1//EN" "http://www.w3.org/Graphics/SVG/1.1/DTD/svg11.dtd">
<svg version="1.1" id="图层_1" xmlns="http://www.w3.org/2000/svg" xmlns:xlink="http://www.w3.org/1999/xlink" x="0px" y="0px"
	 width="43.603px" height="106.502px" viewBox="0 0 43.603 106.502" enable-background="new 0 0 43.603 106.502"
	 xml:space="preserve">
<path fill="#006633" d="M40.589,97.256V9.246L40.188,8.04l-1.006-1.205l-4.018-2.01L32.35,4.022l-3.215-0.603l-3.416-0.201
	l-3.817-0.201l-3.817,0.201l-3.617,0.201l-3.215,0.603L8.64,4.825L6.229,5.83L4.42,6.835L3.416,8.04L3.014,9.246v88.01l0.402,1.206
	l1.004,1.205l1.809,1.005l2.411,1.005l2.612,0.804l3.215,0.603l3.617,0.201l3.817,0.201l3.817-0.201l3.416-0.201l3.215-0.603
	l2.814-0.804l4.018-2.01l1.006-1.205L40.589,97.256z"/>
<path fill="#197F4C" d="M39.182,97.256V9.246L38.781,8.04l-2.612-2.21l-2.01-1.005l-2.611-0.804l-3.014-0.603l-3.216-0.201
	l-3.416-0.201l-3.416,0.201L15.07,3.419l-2.813,0.603L9.645,4.825l-3.617,2.01L5.023,8.04L4.622,9.246v88.01l0.402,1.206l2.612,2.21
	l2.009,1.005l2.612,0.804l2.813,0.603l3.416,0.201l3.416,0.201l3.416-0.201l3.216-0.201l3.014-0.603l2.611-0.804l3.617-2.01
	l1.005-1.205L39.182,97.256z"/>
<path fill="#339966" d="M35.967,97.256V9.246L35.766,8.04l-0.803-1.205l-3.015-2.01l-4.622-1.406l-2.611-0.201l-2.813-0.201
	l-2.813,0.201l-2.813,0.201l-4.42,1.406l-3.014,2.01L7.836,8.04L7.636,9.246v88.01l0.201,1.206l2.21,2.21l3.818,1.809l2.411,0.603
	l2.813,0.201l2.813,0.201l2.813-0.201l5.023-0.804l3.817-1.809l1.407-1.005l0.803-1.205L35.967,97.256z"/>
<path fill="#4CB27F" d="M32.15,97.256V9.246L30.341,5.83l-2.813-1.809l-3.616-0.804l-2.01-0.201l-4.019,0.402l-3.215,1.406
	l-2.21,2.01l-0.804,2.411v88.01l1.809,3.416l2.813,1.809l3.617,0.804l2.009,0.201l4.019-0.402l3.215-1.406l2.211-2.01L32.15,97.256z
	"/>
<path fill="#66CC99" d="M28.131,97.256V9.246l-0.402-2.411l-2.411-2.813l-1.005-0.603l-2.411-0.402l-3.617,1.005l-2.21,2.813
	l-0.603,2.411v88.01l1.206,3.416l2.813,2.411l2.411,0.402l2.411-0.402l2.813-2.411l0.603-1.005L28.131,97.256z"/>
<ellipse fill="#7FE5B2" cx="21.701" cy="53.251" rx="3.014" ry="50.234"/>
<ellipse fill="#99FFCC" cx="21.902" cy="53.251" rx="0.804" ry="50.234"/>
<path fill="none" stroke="#000000" stroke-width="2" d="M40.589,97.256V9.246L40.188,8.04l-1.006-1.205l-4.018-2.01L32.35,4.022
	l-3.215-0.603l-3.416-0.201l-3.817-0.201l-3.817,0.201l-3.617,0.201l-3.215,0.603L8.64,4.825L6.229,5.83L4.42,6.835L3.416,8.04
	L3.014,9.246v88.01l0.402,1.206l1.004,1.205l1.809,1.005l2.411,1.005l2.612,0.804l3.215,0.603l3.617,0.201l3.817,0.201l3.817-0.201
	l3.416-0.201l3.215-0.603l2.814-0.804l4.018-2.01l1.006-1.205L40.589,97.256"/>
</svg>
