<?xml version="1.0" encoding="utf-8"?>
<!-- Generator: Adobe Illustrator 14.0.0, SVG Export Plug-In . SVG Version: 6.00 Build 43363)  -->
<!DOCTYPE svg PUBLIC "-//W3C//DTD SVG 1.1//EN" "http://www.w3.org/Graphics/SVG/1.1/DTD/svg11.dtd">
<svg version="1.1" id="图层_1" xmlns="http://www.w3.org/2000/svg" xmlns:xlink="http://www.w3.org/1999/xlink" x="0px" y="0px"
	 width="106.503px" height="106.502px" viewBox="0 0 106.503 106.502" enable-background="new 0 0 106.503 106.502"
	 xml:space="preserve">
<circle fill="#CCCCCC" stroke="#000000" stroke-width="2" cx="53.198" cy="53.198" r="50.213"/>
<path fill="none" stroke="#FFFFFF" stroke-width="2" d="M78.464,27.932l2.239,2.665l2.025,2.771l1.813,2.985l1.493,3.198
	l1.172,3.305l0.959,3.305l0.428,3.519l0.213,1.706v1.812v1.813l-0.32,3.625l-0.746,3.411l-1.066,3.306l-1.386,3.198l-1.599,2.984
	l-1.92,2.879l-2.238,2.559l-2.452,2.452l-2.665,2.132l-2.771,1.919l-3.092,1.6l-3.198,1.386l-3.306,1.065l-3.411,0.64l-3.624,0.427
	h-1.813h-1.706l-3.412-0.427l-3.412-0.64l-3.411-0.959l-3.198-1.386l-3.092-1.6l-2.878-1.919l-2.665-2.238l-1.173-1.279"/>
<path fill="none" stroke="#7F7F7F" stroke-width="2" d="M28.251,78.145l-2.452-2.452l-2.025-2.879l-1.813-2.984l-1.493-3.092
	l-1.172-3.305l-0.853-3.412L17.91,56.61l-0.106-1.706v-1.706v-1.812l0.426-3.625l0.64-3.411l1.066-3.306l1.386-3.198l1.599-3.092
	l1.919-2.771l2.132-2.665l2.452-2.452l2.559-2.238l2.878-1.92l2.985-1.599l3.198-1.386l3.305-1.066l3.412-0.746l3.625-0.32h1.812
	h1.813l3.411,0.32l3.411,0.746l3.412,1.066l3.197,1.279l3.092,1.705l2.879,1.92l2.771,2.132l1.279,1.173"/>
<path fill="none" stroke="#FFFFFF" stroke-width="2" d="M50.746,99.786l-0.427-0.427L50,98.933l-0.213-0.426l-0.32-0.427
	l-0.213-0.533l-0.106-0.427l-0.107-0.532l-0.106-0.64l0.213-0.96l0.32-0.959l0.426-0.854l0.64-0.746l0.853-0.64l0.959-0.533
	l1.066-0.319l1.066-0.106h0.426l0.533,0.106l0.427,0.106l0.532,0.106l0.533,0.213l0.427,0.32l0.427,0.213l0.32,0.427"/>
<path fill="none" stroke="#7F7F7F" stroke-width="2" d="M58.103,92.323l0.319,0.427l0.319,0.426l0.213,0.427l0.214,0.427
	l0.214,0.532l0.105,0.427l0.107,0.533v0.427l-0.107,1.172l-0.319,0.96l-0.427,0.853l-0.639,0.854l-0.854,0.533l-0.854,0.532
	l-0.959,0.214l-0.959,0.106h-0.641h-0.426l-0.64-0.106l-0.426-0.214l-0.533-0.213l-0.426-0.213l-0.32-0.32l-0.32-0.319"/>
<path fill="none" stroke="#FFFFFF" stroke-width="2" d="M48.507,13.86l-0.32-0.32l-0.32-0.319l-0.32-0.533l-0.213-0.427
	l-0.106-0.533l-0.107-0.533l-0.106-0.426v-0.64l0.106-0.96l0.32-0.959l0.427-0.96l0.64-0.746l0.746-0.64l0.853-0.533l0.959-0.319
	l1.172-0.107l0.533,0.107h0.533l0.426,0.213l0.534,0.213l0.426,0.214l0.426,0.213l0.428,0.32l0.426,0.213"/>
<path fill="none" stroke="#7F7F7F" stroke-width="2" d="M55.97,6.397l0.32,0.427l0.319,0.426l0.214,0.427l0.213,0.533l0.213,0.533
	l0.106,0.426v0.533l0.106,0.427l-0.213,1.065l-0.213,1.066l-0.533,0.96l-0.533,0.746l-0.854,0.64l-0.852,0.533l-0.96,0.319
	l-1.066,0.106h-0.64l-0.426-0.106l-0.533-0.106l-0.426-0.213l-0.533-0.32l-0.426-0.319l-0.32-0.32l-0.426-0.319"/>
<path fill="none" stroke="#FFFFFF" stroke-width="2" d="M6.61,57.889l-0.32-0.427l-0.32-0.319l-0.213-0.427l-0.213-0.533
	l-0.213-0.427l-0.107-0.532v-0.427v-0.64l0.107-1.066l0.213-0.959l0.533-0.854l0.533-0.853l0.853-0.533l0.853-0.533l0.959-0.213
	l1.173-0.213l0.426,0.106h0.533l0.426,0.106l0.533,0.213l0.426,0.214l0.427,0.213l0.426,0.32l0.426,0.319"/>
<path fill="none" stroke="#7F7F7F" stroke-width="2" d="M14.072,50.426l0.427,0.427l0.213,0.426l0.32,0.427l0.213,0.427l0.106,0.533
	l0.107,0.426l0.106,0.533v0.533l-0.106,1.173l-0.32,0.959l-0.533,0.854l-0.64,0.746l-0.746,0.64l-0.853,0.426l-0.959,0.32
	l-0.959,0.106h-0.64l-0.533-0.106l-0.426-0.106l-0.533-0.106l-0.426-0.214l-0.427-0.319l-0.426-0.32L6.61,57.889"/>
<path fill="none" stroke="#FFFFFF" stroke-width="2" d="M92.536,55.97l-0.319-0.427l-0.319-0.427l-0.32-0.426l-0.32-0.533
	l-0.213-0.533l-0.106-0.427l-0.106-0.532v-0.427l0.106-1.173l0.319-0.959l0.533-0.96l0.641-0.746l0.746-0.746l0.959-0.427
	l1.066-0.319l1.066-0.107h0.426l0.533,0.107l0.426,0.106l0.533,0.213l0.533,0.213l0.427,0.32l0.427,0.427l0.426,0.319"/>
<path fill="none" stroke="#7F7F7F" stroke-width="2" d="M99.999,48.507l0.213,0.427l0.32,0.319l0.213,0.427l0.213,0.427l0.214,0.532
	l0.214,0.533v0.427l0.105,0.64l-0.105,0.959l-0.32,0.96l-0.533,0.853l-0.64,0.854l-0.746,0.64l-0.96,0.426l-0.959,0.32l-0.959,0.213
	l-0.641-0.106l-0.426-0.106l-0.533-0.106l-0.533-0.214l-0.426-0.213l-0.533-0.213l-0.32-0.32l-0.32-0.213"/>
<path fill="none" stroke="#FFFFFF" stroke-width="2" d="M28.998,94.562l-0.426-0.426l-0.213-0.427l-0.32-0.427l-0.213-0.426
	l-0.107-0.427l-0.213-0.533v-0.533v-0.532l0.107-1.066l0.32-0.96l0.426-0.959l0.64-0.746l0.853-0.64l0.853-0.427l0.959-0.319
	l0.959-0.107l0.64,0.107h0.533l0.427,0.106l0.533,0.213l0.427,0.213l0.426,0.214l0.426,0.319l0.32,0.32"/>
<path fill="none" stroke="#7F7F7F" stroke-width="2" d="M36.354,87.1l0.32,0.426l0.32,0.427l0.32,0.427l0.213,0.426l0.106,0.533
	l0.107,0.533l0.106,0.427v0.533l-0.106,1.065l-0.32,0.96l-0.427,0.853l-0.64,0.853l-0.746,0.64l-0.853,0.427l-0.959,0.213
	l-1.172,0.107h-0.427h-0.533l-0.427-0.107l-0.533-0.213l-0.533-0.213l-0.426-0.214l-0.427-0.319l-0.32-0.32"/>
<path fill="none" stroke="#FFFFFF" stroke-width="2" d="M70.042,19.296l-0.32-0.427l-0.319-0.426l-0.319-0.427L68.87,17.59
	l-0.107-0.532l-0.106-0.533l-0.106-0.427v-0.533l0.106-1.065l0.319-0.96l0.533-0.959l0.641-0.854l0.746-0.64l0.853-0.533l0.96-0.319
	l1.065-0.106l0.533,0.106h0.532l0.428,0.213l0.532,0.214l0.427,0.213l0.426,0.319l0.427,0.32l0.319,0.319"/>
<path fill="none" stroke="#7F7F7F" stroke-width="2" d="M77.397,11.833l0.428,0.427l0.213,0.427l0.319,0.426l0.214,0.427
	l0.105,0.427l0.214,0.533v0.532v0.533l-0.106,1.066l-0.32,0.959l-0.426,0.854l-0.641,0.746l-0.746,0.64l-0.853,0.533l-0.96,0.319
	l-1.065,0.106l-0.533-0.106h-0.427l-0.533-0.213l-0.532-0.106l-0.427-0.32l-0.533-0.213l-0.319-0.32l-0.427-0.213"/>
<path fill="none" stroke="#FFFFFF" stroke-width="2" d="M11.833,36.354l-0.32-0.427l-0.32-0.319l-0.213-0.533l-0.213-0.427
	l-0.213-0.533l-0.106-0.532v-0.427v-0.533l0.106-1.066l0.213-0.959l0.426-0.853l0.64-0.747l0.853-0.64l0.853-0.426l0.959-0.32
	l1.066-0.106h0.533h0.533l0.533,0.213l0.426,0.107l0.533,0.213l0.426,0.319l0.32,0.214l0.427,0.426"/>
<path fill="none" stroke="#7F7F7F" stroke-width="2" d="M19.296,28.997l0.32,0.32l0.32,0.427l0.213,0.426l0.213,0.427l0.213,0.533
	l0.106,0.426v0.533l0.106,0.533l-0.106,1.066l-0.32,0.959l-0.426,0.854l-0.64,0.746l-0.747,0.64L17.59,37.42l-0.959,0.319
	l-1.066,0.106h-0.533l-0.533-0.106l-0.533-0.106l-0.426-0.106l-0.427-0.214l-0.426-0.319l-0.426-0.32l-0.427-0.319"/>
<path fill="none" stroke="#FFFFFF" stroke-width="2" d="M87.1,77.398l-0.214-0.319l-0.319-0.427l-0.213-0.426l-0.319-0.533
	l-0.107-0.533l-0.213-0.427v-0.533l-0.107-0.426l0.107-1.173l0.32-0.96l0.532-0.853l0.64-0.746l0.746-0.64l0.854-0.427l0.959-0.319
	l1.066-0.106h0.533l0.533,0.106l0.533,0.106l0.426,0.106l0.426,0.213l0.428,0.32l0.426,0.319l0.426,0.32"/>
<path fill="none" stroke="#7F7F7F" stroke-width="2" d="M94.562,70.042l0.32,0.319l0.32,0.427l0.319,0.427l0.214,0.426l0.213,0.533
	l0.213,0.427v0.533l0.107,0.64l-0.107,1.065l-0.32,0.96l-0.532,0.853l-0.64,0.746l-0.854,0.64l-0.959,0.427l-0.959,0.32
	l-1.066,0.106h-0.533h-0.426l-0.533-0.214l-0.533-0.106l-0.427-0.213l-0.427-0.32l-0.426-0.213L87.1,77.398"/>
<path fill="none" stroke="#FFFFFF" stroke-width="2" d="M71.961,93.496l-0.319-0.32l-0.32-0.426l-0.32-0.533l-0.213-0.427
	l-0.213-0.533l-0.213-0.533v-0.426l-0.107-0.533l0.107-1.066l0.319-0.959l0.533-0.854l0.64-0.746l0.854-0.64l0.959-0.426l0.959-0.32
	l1.066-0.106h0.533l0.426,0.106l0.533,0.106l0.533,0.106l0.427,0.214l0.427,0.319l0.426,0.214l0.427,0.426"/>
<path fill="none" stroke="#7F7F7F" stroke-width="2" d="M79.424,86.14l0.319,0.427l0.213,0.319l0.32,0.427l0.213,0.427l0.107,0.533
	l0.213,0.532l0.106,0.427v0.533l-0.106,1.066l-0.32,0.959l-0.533,0.853l-0.639,0.747l-0.746,0.746l-0.854,0.426l-0.959,0.32
	l-1.066,0.106h-0.533h-0.533l-0.533-0.106l-0.533-0.213l-0.426-0.214l-0.426-0.213l-0.428-0.32l-0.319-0.426"/>
<path fill="none" stroke="#FFFFFF" stroke-width="2" d="M27.185,20.256l-0.32-0.427l-0.32-0.427l-0.213-0.426l-0.213-0.427
	l-0.213-0.533l-0.106-0.427v-0.532v-0.427l0.106-1.173l0.213-0.959l0.426-0.854l0.64-0.746l0.853-0.64l0.853-0.533l0.959-0.213
	l1.066-0.106h0.533h0.426l0.533,0.106l0.533,0.213l0.426,0.214l0.426,0.213l0.427,0.319l0.426,0.427"/>
<path fill="none" stroke="#7F7F7F" stroke-width="2" d="M34.648,12.9l0.32,0.32l0.32,0.426l0.32,0.427l0.106,0.427l0.213,0.532
	l0.106,0.427v0.533l0.107,0.64l-0.107,0.959l-0.32,0.96l-0.426,0.853l-0.64,0.746l-0.746,0.747l-0.959,0.426l-0.959,0.32
	l-1.066,0.106h-0.533l-0.533-0.106l-0.533-0.106l-0.426-0.107l-0.426-0.213l-0.427-0.319l-0.426-0.214l-0.427-0.426"/>
<path fill="none" stroke="#FFFFFF" stroke-width="2" d="M12.9,79.21l-0.427-0.426l-0.32-0.427l-0.213-0.427l-0.213-0.426
	l-0.213-0.427l-0.106-0.533v-0.533v-0.533l0.106-1.065l0.213-0.96l0.533-0.959l0.64-0.746l0.746-0.64l0.853-0.427l0.959-0.32
	l1.172-0.106l0.533,0.106h0.426l0.533,0.107l0.533,0.213l0.426,0.106l0.426,0.32l0.32,0.319l0.427,0.32"/>
<path fill="none" stroke="#7F7F7F" stroke-width="2" d="M20.256,71.748l0.426,0.426l0.213,0.427l0.32,0.427l0.213,0.426l0.107,0.533
	l0.106,0.533l0.106,0.427v0.532l-0.106,1.066l-0.32,0.96l-0.426,0.853l-0.64,0.853l-0.747,0.64l-0.853,0.427l-0.959,0.213
	l-1.066,0.107h-0.533h-0.427l-0.533-0.107l-0.533-0.213l-0.426-0.213l-0.533-0.214l-0.426-0.319l-0.32-0.32"/>
<path fill="none" stroke="#FFFFFF" stroke-width="2" d="M86.14,34.435l-0.426-0.32l-0.213-0.426l-0.32-0.427l-0.213-0.427
	l-0.107-0.532l-0.105-0.533l-0.107-0.533v-0.533l0.107-1.066l0.319-0.959l0.427-0.853l0.746-0.747l0.746-0.64l0.853-0.532l0.96-0.32
	l0.959-0.106h0.64l0.533,0.106l0.427,0.213l0.533,0.107l0.426,0.213l0.427,0.319l0.427,0.214l0.319,0.319"/>
<path fill="none" stroke="#7F7F7F" stroke-width="2" d="M93.496,26.972l0.427,0.427l0.319,0.427l0.214,0.426l0.213,0.427
	l0.213,0.533l0.107,0.533v0.426v0.533l-0.107,1.066l-0.213,0.959l-0.533,0.96l-0.64,0.853l-0.746,0.64l-0.853,0.533l-0.96,0.319
	l-1.173,0.107l-0.426-0.107h-0.533l-0.427-0.213l-0.533-0.213l-0.427-0.214l-0.426-0.319l-0.427-0.32l-0.427-0.319"/>
</svg>
