<?xml version="1.0" encoding="utf-8"?>
<!-- Generator: Adobe Illustrator 14.0.0, SVG Export Plug-In . SVG Version: 6.00 Build 43363)  -->
<!DOCTYPE svg PUBLIC "-//W3C//DTD SVG 1.1//EN" "http://www.w3.org/Graphics/SVG/1.1/DTD/svg11.dtd">
<svg version="1.1" id="图层_1" xmlns="http://www.w3.org/2000/svg" xmlns:xlink="http://www.w3.org/1999/xlink" x="0px" y="0px"
	 width="144.749px" height="58.715px" viewBox="0 0 144.749 58.715" enable-background="new 0 0 144.749 58.715"
	 xml:space="preserve">
<path fill="#336666" d="M13.113,42.331v6.281H4.1v-6.281H13.113z"/>
<path fill="#4C7F7F" d="M13.113,42.876v5.188H4.1v-5.188H13.113z"/>
<path fill="#669999" d="M13.113,43.969v3.004H4.1v-3.004H13.113z"/>
<path fill="#99CCCC" d="M13.113,45.061v0.819H4.1v-0.819H13.113z"/>
<path fill="none" stroke="#000000" stroke-width="2" d="M13.113,42.331v6.281H4.1v-6.281H13.113"/>
<path fill="#336666" d="M140.649,14.747v6.281h-9.012v-6.281H140.649z"/>
<path fill="#4C7F7F" d="M140.649,15.566v4.916h-9.012v-4.916H140.649z"/>
<path fill="#669999" d="M140.649,16.386v3.277h-9.012v-3.277H140.649z"/>
<path fill="#99CCCC" d="M140.649,17.751v0.546h-9.012v-0.546H140.649z"/>
<path fill="none" stroke="#000000" stroke-width="2" d="M140.649,14.747v6.281h-9.012v-6.281H140.649"/>
<path fill="#336666" stroke="#000000" stroke-width="2" d="M64.728,9.012h4.916v5.735h-4.916V9.012z"/>
<path fill="#4C7F7F" d="M65.001,9.012h4.096v5.735h-4.096V9.012z"/>
<path fill="#669999" d="M65.82,9.012h2.458v5.735H65.82V9.012z"/>
<path fill="#99CCCC" d="M66.912,9.012h0.546v5.735h-0.546V9.012z"/>
<path fill="#194C4C" stroke="#000000" stroke-width="2" d="M131.637,48.884H13.113L11.2,48.612L8.197,45.88l-2.458-4.643
	l-1.365-6.009L4.1,31.679l0.819-6.554l1.912-5.462l2.73-3.55l1.639-1.092l1.912-0.273h118.524l1.911,0.273l3.004,2.731l2.458,4.37
	l1.366,6.281l0.272,3.277l-0.819,6.827l-1.911,5.463l-2.731,3.55l-1.639,1.093L131.637,48.884z"/>
<path fill="#336666" d="M131.637,47.519H13.113L11.2,47.247l-3.004-2.459l-2.458-4.369l-1.365-5.462L4.1,31.679l0.819-6.008
	l1.912-4.916l2.73-3.277l1.639-1.093l1.912-0.273h118.524l1.911,0.273l3.004,2.458l2.458,4.097l1.366,5.735l0.272,3.004
	l-0.819,6.281l-1.911,4.916l-2.731,3.276l-1.639,1.094L131.637,47.519z"/>
<path fill="#4C7F7F" d="M131.637,45.334H13.113l-3.551-1.093l-2.73-3.004l-1.912-4.37L4.1,31.679l0.819-5.189l1.912-4.369
	l2.73-2.731l3.551-1.093h118.524l3.55,1.093l2.731,2.731l1.911,4.369l0.819,5.189l-0.819,5.188l-1.911,4.37l-2.731,3.004
	L131.637,45.334z"/>
<path fill="#669999" d="M131.637,41.784H13.113l-3.551-0.818l-3.823-3.824L4.373,33.59L4.1,31.679l0.819-3.823l1.912-3.277
	l4.369-2.458l1.912-0.273h118.524l3.55,0.819l3.823,3.55l1.366,3.55l0.272,1.912l-0.819,3.823l-1.911,3.277l-4.37,2.73
	L131.637,41.784z"/>
<path fill="#7FB2B2" d="M131.637,37.415H13.113l-4.916-0.819l-3.277-2.731L4.1,31.679l2.731-4.096l4.369-1.639h122.348l4.37,1.639
	l2.458,3.003l0.272,1.093l-1.639,3.277l-3.823,1.911L131.637,37.415z"/>
<path fill="#99CCCC" d="M131.637,33.045H13.113l-4.916-0.273l-3.823-0.819L4.1,31.679l4.097-1.093l1.365-0.272h125.625l3.823,0.546
	l1.639,0.819l-4.097,1.093L131.637,33.045z"/>
<path fill="none" stroke="#000000" stroke-width="2" d="M13.113,14.747v34.137"/>
<path fill="none" stroke="#000000" stroke-width="2" d="M131.637,14.747v34.137"/>
<path fill="#336666" d="M62.543,4.097h9.012v4.916h-9.012V4.097z"/>
<path fill="#4C7F7F" d="M63.363,4.097h7.373v4.916h-7.373V4.097z"/>
<path fill="#669999" d="M64.728,4.097h4.643v4.916h-4.643V4.097z"/>
<path fill="#99CCCC" d="M66.639,4.097h0.819v4.916h-0.819V4.097z"/>
<path fill="none" stroke="#000000" stroke-width="2" d="M62.543,4.097h9.012v4.916h-9.012V4.097"/>
<path fill="#336666" stroke="#000000" stroke-width="2" d="M116.616,9.012h4.916v5.735h-4.916V9.012z"/>
<path fill="#4C7F7F" d="M117.162,9.012h3.823v5.735h-3.823V9.012z"/>
<path fill="#669999" d="M117.708,9.012h2.731v5.735h-2.731V9.012z"/>
<path fill="#99CCCC" d="M118.801,9.012h0.546v5.735h-0.546V9.012z"/>
<path fill="#336666" d="M114.432,4.097h9.285v4.916h-9.285V4.097z"/>
<path fill="#4C7F7F" d="M115.524,4.097h7.101v4.916h-7.101V4.097z"/>
<path fill="#669999" d="M116.889,4.097h4.37v4.916h-4.37V4.097z"/>
<path fill="#99CCCC" d="M118.528,4.097h1.093v4.916h-1.093V4.097z"/>
<path fill="none" stroke="#000000" stroke-width="2" d="M114.432,4.097h9.285v4.916h-9.285V4.097"/>
<path fill="#194C4C" d="M16.116,54.62h-3.551V9.012h3.551V54.62z"/>
<path fill="#336666" d="M16.116,52.708h-3.551V10.924h3.551V52.708z"/>
<path fill="#4C7F7F" d="M16.116,49.704h-3.551V13.655h3.551V49.704z"/>
<path fill="#669999" d="M16.116,45.061h-3.551V18.297h3.551V45.061z"/>
<path fill="#7FB2B2" d="M16.116,39.327h-3.551V24.033h3.551V39.327z"/>
<path fill="#99CCCC" d="M16.116,33.59h-3.551v-3.823h3.551V33.59z"/>
<path fill="none" stroke="#000000" stroke-width="2" d="M16.116,54.62h-3.551V9.012h3.551V54.62"/>
<path fill="#194C4C" d="M19.666,54.62h-3.55V9.012h3.55V54.62z"/>
<path fill="#336666" d="M19.666,52.708h-3.55V10.924h3.55V52.708z"/>
<path fill="#4C7F7F" d="M19.666,49.704h-3.55V13.655h3.55V49.704z"/>
<path fill="#669999" d="M19.666,45.061h-3.55V18.297h3.55V45.061z"/>
<path fill="#7FB2B2" d="M19.666,39.327h-3.55V24.033h3.55V39.327z"/>
<path fill="#99CCCC" d="M19.666,33.59h-3.55v-3.823h3.55V33.59z"/>
<path fill="none" stroke="#000000" stroke-width="2" d="M19.666,54.62h-3.55V9.012h3.55V54.62"/>
<path fill="#194C4C" d="M128.632,54.62h-3.55V9.012h3.55V54.62z"/>
<path fill="#336666" d="M128.632,52.708h-3.55V10.924h3.55V52.708z"/>
<path fill="#4C7F7F" d="M128.632,49.704h-3.55V13.655h3.55V49.704z"/>
<path fill="#669999" d="M128.632,45.061h-3.55V18.297h3.55V45.061z"/>
<path fill="#7FB2B2" d="M128.632,39.327h-3.55V24.033h3.55V39.327z"/>
<path fill="#99CCCC" d="M128.632,33.59h-3.55v-3.823h3.55V33.59z"/>
<path fill="none" stroke="#000000" stroke-width="2" d="M128.632,54.62h-3.55V9.012h3.55V54.62"/>
<path fill="#194C4C" d="M132.183,54.62h-3.551V9.012h3.551V54.62z"/>
<path fill="#336666" d="M132.183,52.708h-3.551V10.924h3.551V52.708z"/>
<path fill="#4C7F7F" d="M132.183,49.704h-3.551V13.655h3.551V49.704z"/>
<path fill="#669999" d="M132.183,45.061h-3.551V18.297h3.551V45.061z"/>
<path fill="#7FB2B2" d="M132.183,39.327h-3.551V24.033h3.551V39.327z"/>
<path fill="#99CCCC" d="M132.183,33.59h-3.551v-3.823h3.551V33.59z"/>
<path fill="none" stroke="#000000" stroke-width="2" d="M132.183,54.62h-3.551V9.012h3.551V54.62"/>
</svg>
