<?xml version="1.0" encoding="utf-8"?>
<!-- Generator: Adobe Illustrator 14.0.0, SVG Export Plug-In . SVG Version: 6.00 Build 43363)  -->
<!DOCTYPE svg PUBLIC "-//W3C//DTD SVG 1.1//EN" "http://www.w3.org/Graphics/SVG/1.1/DTD/svg11.dtd">
<svg version="1.1" id="图层_1" xmlns="http://www.w3.org/2000/svg" xmlns:xlink="http://www.w3.org/1999/xlink" x="0px" y="0px"
	 width="106.503px" height="106.502px" viewBox="0 0 106.503 106.502" enable-background="new 0 0 106.503 106.502"
	 xml:space="preserve">
<path fill="#7F7F7F" d="M2.972,65.883L40.62,94.118v9.412h25.263v-9.412l37.647-28.235H2.972z"/>
<path fill="#999999" d="M5.449,65.883l35.914,28.235v9.412H65.14v-9.412l35.914-28.235H5.449z"/>
<path fill="#B2B2B2" d="M12.384,65.883l30.712,28.235v9.412h20.31v-9.412l30.712-28.235H12.384z"/>
<path fill="#CCCCCC" d="M21.796,65.883l23.53,28.235v9.412h15.851v-9.412l23.529-28.235H21.796z"/>
<path fill="#E5E5E5" d="M34.428,65.883l14.118,28.235v9.412h9.412v-9.412l14.118-28.235H34.428z"/>
<path fill="#FFFFFF" d="M49.288,65.883l2.972,28.235v9.412h1.981v-9.412l2.973-28.235H49.288z"/>
<path fill="none" stroke="#000000" stroke-width="2" d="M2.972,65.883L40.62,94.118v9.412h25.263v-9.412l37.647-28.235H2.972"/>
<ellipse fill="#7F7F7F" cx="53.251" cy="9.164" rx="50.279" ry="6.192"/>
<ellipse fill="#666666" cx="53.251" cy="10.898" rx="50.279" ry="4.706"/>
<ellipse fill="#4C4C4C" cx="53.251" cy="13.127" rx="50.279" ry="2.229"/>
<path fill="#7F7F7F" d="M103.53,65.883V9.164l-0.248,0.743l-3.715,1.733l-4.706,0.991l-2.725,0.495l-3.22,0.495l-3.715,0.495
	l-3.963,0.248l-3.963,0.495l-4.459,0.248l-4.705,0.247h-4.706l-4.954,0.248H48.05l-4.954-0.248h-4.706l-4.706-0.247l-4.458-0.248
	l-3.963-0.495L21.3,14.117l-3.467-0.495l-3.468-0.495l-2.724-0.495l-4.706-0.991l-2.972-1.238L3.22,9.907L2.972,9.164v56.719
	l0.248,0.743l3.715,1.733l4.706,0.991l2.724,0.495l3.468,0.495l3.467,0.248l3.963,0.495l3.963,0.248l4.458,0.247l4.706,0.248h4.706
	l4.954,0.247h5.201h5.201l4.954-0.247h4.706l4.705-0.248l4.459-0.247l3.963-0.248l3.963-0.495l3.715-0.248l3.22-0.495l2.725-0.495
	l4.706-0.991l2.973-1.238l0.742-0.495L103.53,65.883z"/>
<path fill="#999999" d="M97.339,68.855l-3.716,0.743l-4.458,0.495l-2.229,0.496l-2.724,0.247l-2.478,0.248h-2.972l-2.725,0.248
	l-3.221,0.247l-2.972,0.248h-6.439l-3.468,0.247h-3.22H46.564l-3.468-0.247h-6.439l-2.972-0.248l-2.972-0.247l-2.972-0.248h-2.972
	l-2.725-0.248l-4.954-0.743l-4.21-0.495l-1.981-0.495l-1.734-0.248V12.384l3.715,0.743l4.21,0.495l4.954,0.743l2.725,0.248h2.725
	l2.972,0.247l2.972,0.248l3.22,0.247h6.439l3.468,0.248h13.375l3.468-0.248h6.439l3.22-0.247l2.973-0.248l2.972-0.247h2.725
	l2.725-0.248l4.954-0.743l4.21-0.495l1.981-0.495l1.734-0.248V68.855z"/>
<path fill="#B2B2B2" d="M89.413,70.093l-3.716,0.496l-3.963,0.247l-4.21,0.496l-4.459,0.247l-4.705,0.248h-4.954l-4.954,0.247H48.05
	l-4.954-0.247h-4.954l-4.706-0.248l-4.458-0.247l-4.21-0.496l-3.963-0.247l-3.715-0.496V13.622l3.715,0.495l3.963,0.248l4.21,0.495
	l4.458,0.248l4.706,0.247h4.954l4.954,0.248h10.402l4.954-0.248h4.954l4.705-0.247l4.459-0.248l4.21-0.495l3.963-0.248l3.716-0.495
	V70.093z"/>
<path fill="#CCCCCC" d="M80.001,71.084l-2.973,0.248l-3.22,0.247l-3.22,0.248h-3.468l-3.468,0.247H42.601l-3.468-0.247h-3.22
	l-3.22-0.248l-3.22-0.247l-2.972-0.248V14.614l2.972,0.247h3.22l3.22,0.248l3.22,0.247h3.468l3.467,0.248h14.366l3.467-0.248h3.468
	l3.468-0.247l3.219-0.248h3.221l2.973-0.247L80.001,71.084z"/>
<path fill="#E5E5E5" d="M68.854,71.827l-3.715,0.247H41.115L37.4,71.827V15.109l3.715,0.247h3.963l4.21,0.248h9.907l3.963-0.248
	l3.963-0.247h1.981L68.854,71.827z"/>
<path fill="#FFFFFF" d="M56.224,72.074H55.48h-0.743h-0.743h-0.743H52.26H51.27h-0.743h-0.743V15.356l0.743,0.248h0.743h0.991h0.991
	h0.743h0.991h0.742l0.744-0.248L56.224,72.074z"/>
<path fill="none" stroke="#000000" stroke-width="2" d="M103.53,9.164l-0.248,0.743l-3.715,1.733l-4.706,0.991l-2.725,0.495
	l-3.22,0.495l-3.715,0.495l-3.963,0.248l-3.963,0.495l-4.459,0.248l-4.705,0.247h-4.706l-4.954,0.248H48.05l-4.954-0.248h-4.706
	l-4.706-0.247l-4.458-0.248l-3.963-0.495L21.3,14.117l-3.467-0.495l-3.468-0.495l-2.724-0.495l-4.706-0.991l-2.972-1.238L3.22,9.907
	L2.972,9.164"/>
<path fill="none" stroke="#000000" stroke-width="2" d="M103.53,65.883V9.164l-0.248-0.743l-3.715-1.733l-4.706-0.991l-2.725-0.495
	l-3.22-0.495l-3.715-0.248l-3.963-0.495l-3.963-0.248l-4.459-0.247L68.112,3.22l-4.706-0.248h-4.954H43.096L38.391,3.22
	l-4.706,0.248l-4.458,0.247l-3.963,0.248L21.3,4.458l-3.467,0.248l-3.468,0.495l-2.724,0.495L6.935,6.688L3.963,7.926L3.22,8.421
	L2.972,9.164v56.719l0.248,0.743l3.715,1.733l4.706,0.991l2.724,0.495l3.468,0.495l3.467,0.248l3.963,0.495l3.963,0.248l4.458,0.247
	l4.706,0.248h4.706l4.954,0.247h5.201h5.201l4.954-0.247h4.706l4.705-0.248l4.459-0.247l3.963-0.248l3.963-0.495l3.715-0.248
	l3.22-0.495l2.725-0.495l4.706-0.991l2.973-1.238l0.742-0.495L103.53,65.883"/>
</svg>
