<?xml version="1.0" encoding="utf-8"?>
<!-- Generator: Adobe Illustrator 14.0.0, SVG Export Plug-In . SVG Version: 6.00 Build 43363)  -->
<!DOCTYPE svg PUBLIC "-//W3C//DTD SVG 1.1//EN" "http://www.w3.org/Graphics/SVG/1.1/DTD/svg11.dtd">
<svg version="1.1" id="图层_1" xmlns="http://www.w3.org/2000/svg" xmlns:xlink="http://www.w3.org/1999/xlink" x="0px" y="0px"
	 width="64.39px" height="106.502px" viewBox="0 0 64.39 106.502" enable-background="new 0 0 64.39 106.502" xml:space="preserve">
<path fill="#7F0000" d="M20.788,11.196h22.707l3.518,0.427l3.411,1.172l2.985,1.706l2.665,2.346l2.238,2.878l1.6,3.198l1.065,3.731
	l0.214,1.812l0.106,2.026V73.24l-0.32,4.051l-1.065,3.625l-1.6,3.305l-2.238,2.985l-2.665,2.345l-2.985,1.706l-3.411,1.173
	l-1.706,0.319l-1.812,0.106H20.788l-3.519-0.426l-3.411-1.173l-2.985-1.706l-2.665-2.345L6.076,84.22L4.37,80.915L3.411,77.29
	l-0.319-2.025L2.985,73.24V30.491l0.427-3.838l0.959-3.731l1.706-3.198l2.132-2.878l2.665-2.346l2.985-1.706l3.411-1.172l1.706-0.32
	L20.788,11.196z"/>
<path fill="#940000" d="M22.281,11.196h3.731h1.279h1.172h8.636h3.73l4.371,0.427l2.879,1.065l2.665,1.813l2.238,2.346l1.919,2.878
	l1.386,3.198l0.96,3.624l0.319,3.945v7.995v1.279v1.386v22.707v4.051v5.33l-0.319,4.051l-0.96,3.625l-1.386,3.305l-1.919,2.879
	l-2.238,2.345l-2.665,1.813L45.2,92.429l-1.599,0.213l-1.493,0.106h-1.279h-3.73h-9.808H23.56l-4.371-0.319l-2.878-1.173
	l-2.559-1.813l-2.346-2.345L9.488,84.22l-1.386-3.305L7.143,77.29l-0.214-2.025L6.823,73.24V71.96v-6.716l0.106-4.051V39.766
	l-0.106-3.944v-5.33l0.32-3.945l0.959-3.624l1.386-3.198l1.919-2.878l2.346-2.346l2.559-1.813l2.878-1.065L22.281,11.196z"/>
<path fill="#AB0000" d="M23.773,11.196h3.198h1.066h1.065h7.25h3.198l3.624,0.427l2.452,1.065l2.238,1.813l2.025,2.346l1.6,2.878
	l1.173,3.198l0.853,3.624l0.213,3.945v7.995v1.279v1.386v22.707v4.051v5.33l-0.213,3.944l-0.853,3.731L51.49,84.22l-1.6,2.879
	l-2.025,2.345l-2.238,1.813l-2.452,1.173l-1.279,0.319l-1.279,0.106h-1.065l-3.198-0.106h-8.315l-3.198,0.106l-3.625-0.426
	l-2.559-1.173l-2.132-1.813l-2.025-2.345L12.9,84.22l-1.173-3.305l-0.746-3.731l-0.214-1.919L10.66,73.24V71.96v-6.716v-4.051
	V39.766v-3.944v-5.33l0.32-3.945l0.746-3.624l1.173-3.198l1.599-2.878l2.025-2.346l2.132-1.813l2.559-1.065L23.773,11.196z"/>
<path fill="#BF0000" d="M25.266,11.196h2.559l0.959-0.106h0.853h6.077l3.411,0.106l3.198,0.853l2.771,2.346l1.6,2.452l1.386,2.878
	l0.959,3.198l0.64,3.731l0.213,3.838v7.995l0.107,1.386v1.279v22.813l-0.107,3.944v5.437l-0.213,3.944l-0.64,3.625l-0.959,3.305
	l-1.386,2.879l-1.6,2.345l-2.771,2.559l-2.132,0.746l-1.066,0.106h-0.853l-3.519-0.106h-5.97l-3.518,0.106l-3.198-0.853
	l-2.879-2.559l-1.599-2.345l-1.279-2.879l-0.96-3.305l-0.64-3.625l-0.213-1.919v-2.025V71.96v-6.716V61.3V39.872v-4.051v-5.33
	l0.213-3.838l0.64-3.731l0.96-3.198l1.279-2.878l1.599-2.452l2.879-2.346L25.266,11.196z"/>
<path fill="#D40000" d="M26.758,11.089h2.025h0.746h0.64h4.797l3.519,0.106l2.452,1.492l2.025,2.879l1.173,2.665l0.959,3.091
	l0.64,3.412l0.32,3.838l0.106,3.305v6.609v1.386v1.386v22.707v4.051v5.33l-0.214,3.944l-0.532,3.625l-0.747,3.305l-1.065,2.879
	l-1.279,2.345l-2.239,2.559l-1.599,0.746l-0.853,0.106h-0.64l-3.412-0.106H29.53h-3.624l-2.452-1.492l-2.132-2.879l-1.066-2.665
	l-0.96-3.091l-0.64-3.519l-0.319-3.731l-0.106-2.025v-1.279v-6.716l0.106-4.051V39.872l-0.106-4.051v-5.33l0.213-3.838l0.533-3.731
	l0.746-3.198l1.066-2.878l1.279-2.452l2.132-2.452L26.758,11.089z"/>
<path fill="#EB0000" d="M28.25,11.089h1.492h0.533h0.427h3.518l3.198,0.426l2.133,2.879l1.386,3.838l0.64,3.091l0.426,3.412
	l0.214,3.838l0.106,3.305v6.609v1.386v1.386v22.707v4.051v5.33l-0.106,3.944l-0.427,3.625l-0.533,3.305l-0.746,2.879l-1.492,3.411
	l-2.239,2.238l-0.64,0.106h-0.426h-2.985h-2.985l-3.305-0.853l-1.599-2.452l-1.386-3.838l-0.64-3.091l-0.427-3.519l-0.213-3.731
	l-0.106-2.025v-1.279v-6.716l0.106-4.051V39.872l-0.106-4.051v-5.33l0.213-3.838l0.319-3.731l0.533-3.198l0.746-2.878l1.493-3.412
	l2.238-2.238L28.25,11.089z"/>
<path fill="#FF0000" d="M29.742,11.089h4.904l0.427,0.106l1.386,2.238l0.853,3.412l0.533,2.878l0.319,3.305l0.214,3.625l0.106,1.919
	v2.025v42.855l-0.106,3.837l-0.214,3.731l-0.319,3.305l-0.533,2.879l-0.853,3.305l-1.386,2.238l-0.427,0.106h-4.904l-0.426-0.106
	l-1.492-2.238l-0.854-3.305l-0.426-2.879l-0.427-3.305l-0.213-3.731v-1.919v-1.918V30.598v-3.944l0.213-3.625l0.427-3.305
	l0.426-2.878l0.854-3.412l1.492-2.238L29.742,11.089z"/>
<path fill="none" stroke="#000000" stroke-width="2" d="M20.682,11.089h22.92l3.624,0.426l3.305,1.173l2.985,1.706l2.665,2.452
	l2.132,2.878l1.706,3.305l0.959,3.625l0.32,1.919l0.106,2.025v42.855l-0.427,3.837l-0.959,3.731l-1.706,3.305l-2.132,2.879
	l-2.665,2.345l-2.985,1.813l-3.305,1.173l-1.812,0.213l-1.813,0.106h-22.92l-3.625-0.319l-3.305-1.173l-2.985-1.813l-2.665-2.345
	L5.97,84.326l-1.6-3.305L3.305,77.29l-0.213-1.919l-0.107-1.918V30.598l0.32-3.944l1.065-3.625l1.6-3.305l2.132-2.878l2.665-2.452
	l2.985-1.706l3.305-1.173l1.813-0.319L20.682,11.089"/>
<path fill="none" stroke="#000000" stroke-width="2" d="M3.092,30.491h58.313"/>
<path fill="none" stroke="#000000" stroke-width="2" d="M3.092,73.24h58.313"/>
<path fill="#7F0000" d="M10.127,103.409h43.176V89.656H10.127V103.409z"/>
<path fill="#940000" d="M13.325,103.409h1.066h1.173h1.172h3.519h3.411h18.55h3.411h4.584v-2.559v-0.854v-0.959v-5.97v-3.412h-6.93
	l-1.065-0.106h-1.173H21.322l-3.412,0.106h-3.518h-1.066v0.854v3.411v6.076V103.409z"/>
<path fill="#AB0000" d="M16.311,103.409h0.959h0.96h0.959l3.838-0.107h17.377l3.838,0.107h2.878v-2.666l0.106-0.853v-0.853v-5.97
	l-0.106-3.519h-5.757h-0.959h-0.96H23.027h-3.838H17.27h-0.959v0.854v3.518v5.97V103.409z"/>
<path fill="#BF0000" d="M19.403,103.409h0.746h0.746h0.853h2.239l1.599-0.107h13.112l1.493,0.107h3.837v-2.666l0.107-0.853v-0.853
	v-5.97l-0.107-1.813V89.55h-4.584h-0.746h-0.746H24.839h-1.6h-3.091h-0.746v0.854v1.705v1.813v5.97v1.706V103.409z"/>
<path fill="#D40000" d="M22.387,103.409h1.173h1.173h1.173l1.172-0.107h9.275l1.172,0.107h3.519v-2.666v-0.853v-0.853v-6.076v-1.706
	V89.55h-3.519h-1.172h-1.066h-8.209h-1.172H23.56h-1.173v0.854v1.705l0.106,1.706v6.076l-0.106,1.706V103.409z"/>
<path fill="#EB0000" d="M25.479,103.302h0.746h0.853h0.747h1.599h5.437h1.493h1.599v-2.559v-0.853v-0.853v-6.076v-1.706V89.55
	h-2.346H34.86h-0.746h-5.543h-1.493h-0.853h-0.746v0.854v1.705v1.706v6.076v1.706V103.302z"/>
<path fill="#FF0000" d="M28.463,103.409h6.396V89.55h-6.396V103.409z"/>
<path fill="#7F7F7F" stroke="#000000" stroke-width="2" d="M19.403,92.855h4.903l1.386,0.214l1.279,0.959l0.746,1.173l0.32,1.599
	l-0.106,1.066l-0.533,1.279l-1.066,1.066l-1.279,0.532l-0.746,0.107h-4.903l-1.279-0.32l-1.066-0.746l-0.746-1.279l-0.32-1.386
	v-1.066l0.64-1.492l0.96-1.066l1.173-0.64H19.403z"/>
<path fill="#7F7F7F" stroke="#000000" stroke-width="2" d="M38.804,92.855h4.904l1.386,0.214l1.173,0.959l0.853,1.173l0.32,1.599
	l-0.107,1.066L46.8,99.145l-1.066,1.066l-1.386,0.532l-0.64,0.107h-4.904l-1.386-0.32l-1.065-0.746l-0.747-1.279l-0.319-1.386
	l0.106-1.066l0.533-1.492l0.853-1.066l1.279-0.64H38.804z"/>
<path fill="none" stroke="#000000" stroke-width="2" d="M10.127,103.409h42.962V89.55H10.127V103.409"/>
<path fill="#7F0000" d="M20.255,4.48h23.986v6.822H20.255V4.48z"/>
<path fill="#940000" d="M21.96,4.48h3.945l1.279-0.107h1.278h8.955l1.279,0.107h3.838v1.279v0.319v0.427V9.49v1.279v0.427h-1.279
	h-2.559h-1.279H27.185h-1.279h-2.559H21.96v-0.427l0.107-1.279V6.078L21.96,4.906V4.48z"/>
<path fill="#AB0000" d="M23.773,4.48h3.198l1.066-0.107h1.065h7.463l0.959,0.107h3.198v1.279l0.106,0.319v0.427V9.49l-0.106,1.279
	v0.427h-1.065h-2.133h-0.959h-8.528h-1.066h-2.132h-1.066v-0.427V9.49V6.078V4.906V4.48z"/>
<path fill="#BF0000" d="M25.479,4.48h2.559l0.853-0.107h0.853h5.863l1.706,0.107h1.706v1.279v0.319v0.427V9.49v1.279v0.427h-0.854
	h-1.705h-1.706H28.89h-1.705h-0.854h-0.853v-0.427l0.106-1.279V6.078l-0.106-1.173V4.48z"/>
<path fill="#D40000" d="M27.291,4.48h1.812l0.64-0.107h0.64h4.371l1.279,0.107h1.279v1.279v0.319v0.427V9.49v1.279v0.427h-0.64
	h-1.279H34.22h-4.478h-1.279h-0.639h-0.533v-0.427V9.49V6.078V4.906V4.48z"/>
<path fill="#EB0000" d="M28.996,4.48h1.279l0.32-0.107h0.426h2.879L35.18,4.48h0.319v1.279l0.106,0.319v0.427V9.49l-0.106,1.279
	v0.427H35.18h-1.279h-3.305h-1.173h-0.427v-0.427V9.49V6.078V4.906V4.48z"/>
<path fill="#FF0000" d="M30.702,4.48h3.092v6.822h-3.092V4.48z"/>
<path fill="none" stroke="#000000" stroke-width="2" d="M20.255,4.48h23.986v6.822H20.255V4.48"/>
<path fill="#666666" stroke="#000000" stroke-width="2" d="M19.189,2.987h2.133V8.21h-2.133V2.987z"/>
<path fill="#666666" stroke="#000000" stroke-width="2" d="M23.347,2.987h2.132V8.21h-2.132V2.987z"/>
<path fill="#666666" stroke="#000000" stroke-width="2" d="M27.504,2.987h2.132V8.21h-2.132V2.987z"/>
<path fill="#666666" stroke="#000000" stroke-width="2" d="M31.661,2.987h2.133V8.21h-2.133V2.987z"/>
<path fill="#666666" stroke="#000000" stroke-width="2" d="M35.82,2.987h2.132V8.21H35.82V2.987z"/>
<path fill="#666666" stroke="#000000" stroke-width="2" d="M40.083,2.987h2.025V8.21h-2.025V2.987z"/>
<path fill="#666666" stroke="#000000" stroke-width="2" d="M44.241,2.987h2.025V8.21h-2.025V2.987z"/>
<path fill="#7F7F7F" d="M16.097,4.053h32.729v3.092H16.097V4.053z"/>
<path fill="#999999" d="M20.149,3.947h4.584h0.853h0.746h13.22h1.492h3.838v0.426v0.427v0.32v1.172v0.427v0.319h-0.746h-3.838h-1.6
	H25.585h-1.599h-3.092h-0.746V6.718V5.545V4.372V3.947z"/>
<path fill="#B2B2B2" d="M24.093,3.947h3.198h1.065h8.422h0.96h3.198v0.853v1.492v0.746h-3.198h-0.96h-8.422h-1.065h-3.198V5.865
	V4.799V3.947z"/>
<path fill="#CCCCCC" d="M28.037,4.053h8.848v3.092h-8.848V4.053z"/>
<path fill="none" stroke="#000000" stroke-width="2" d="M16.097,4.053h32.729v3.092H16.097V4.053"/>
<path fill="none" stroke="#000000" stroke-width="2" d="M16.097,5.545h32.729"/>
</svg>
