<?xml version="1.0" encoding="utf-8"?>
<!-- Generator: Adobe Illustrator 14.0.0, SVG Export Plug-In . SVG Version: 6.00 Build 43363)  -->
<!DOCTYPE svg PUBLIC "-//W3C//DTD SVG 1.1//EN" "http://www.w3.org/Graphics/SVG/1.1/DTD/svg11.dtd">
<svg version="1.1" id="图层_1" xmlns="http://www.w3.org/2000/svg" xmlns:xlink="http://www.w3.org/1999/xlink" x="0px" y="0px"
	 width="93.816px" height="106.502px" viewBox="0 0 93.816 106.502" enable-background="new 0 0 93.816 106.502"
	 xml:space="preserve">
<path fill="#CCCCCC" d="M5.011,78.358V8.422l2.772-1.599l5.65-1.493l7.783-1.173l9.488-0.746l10.661-0.427h10.981l10.66,0.427
	l9.488,0.746l7.783,1.173l5.438,1.493l2.878,1.599v69.936H5.011z"/>
<path fill="#D1D1D1" d="M8.422,78.358L8.635,8.422l2.346-1.599l5.224-1.493l7.036-1.173l8.849-0.746l9.701-0.427h10.234l9.596,0.427
	l8.848,0.746l7.037,1.173l5.01,1.493l2.879,1.599v69.936H8.422z"/>
<path fill="#D6D6D6" d="M11.833,78.358l0.213-69.936l2.132-1.599l4.69-1.493l6.61-1.173l7.783-0.746l9.062-0.427h9.063l9.061,0.427
	l7.783,0.746l6.717,1.173l4.584,1.493l2.238,1.599v69.936H11.833z"/>
<path fill="#D9D9D9" d="M15.245,78.358l0.213-69.936l1.919-1.599l4.264-1.493l5.864-1.173l7.249-0.746l7.996-0.427h8.208
	l8.104,0.427l7.249,0.746l5.757,1.173l4.264,1.493l2.025,1.599v69.936H15.245z"/>
<path fill="#DEDEDE" d="M18.657,78.358L18.87,8.422l1.813-1.599l3.731-1.493l5.117-1.173l6.396-0.746l7.25-0.427h7.356l7.036,0.427
	l6.503,0.746l5.225,1.173l3.838,1.493l1.813,1.599v69.936H18.657z"/>
<path fill="#E3E3E3" d="M22.068,78.358l0.213-69.936l1.599-1.599l3.198-1.493l4.584-1.173l5.65-0.746l6.29-0.427h6.609l6.184,0.427
	l5.65,0.746L66.63,5.33l3.199,1.493l1.705,1.599v69.936H22.068z"/>
<path fill="#E8E8E8" d="M25.693,78.358V8.422l1.386-1.599l2.772-1.493l3.838-1.173l5.011-0.746l5.437-0.427h5.438l5.437,0.427
	l5.011,0.746l3.838,1.173l2.771,1.493l1.387,1.599v69.936H25.693z"/>
<path fill="#EDEDED" d="M29.104,78.358V8.422l1.172-1.599l2.239-1.493l3.412-1.173l4.051-0.746l4.584-0.427h4.584l4.69,0.427
	l3.945,0.746l3.305,1.173l2.346,1.493l1.172,1.599v69.936H29.104z"/>
<path fill="#F2F2F2" d="M32.516,78.358V8.422l0.747-1.599l2.025-1.493l2.665-1.173l3.412-0.746l3.625-0.427h3.838l3.518,0.427
	l3.518,0.746l2.559,1.173l1.813,1.493l0.96,1.599v69.936H32.516z"/>
<path fill="#F5F5F5" d="M35.927,78.358V8.422l0.64-1.599l1.599-1.493l1.919-1.173l2.452-0.746l2.772-0.427H48.4l2.772,0.427
	l2.452,0.746L55.65,5.33l1.386,1.493l0.747,1.599v69.936H35.927z"/>
<path fill="#FAFAFA" d="M39.339,78.358V8.422l0.426-1.599l0.959-1.493l1.386-1.173l1.813-0.746l2.026-0.427h1.813l2.025,0.427
	l1.813,0.746l1.386,1.173l1.065,1.493l0.32,1.599v69.936H39.339z"/>
<path fill="#FFFFFF" d="M42.75,78.358V8.422l0.213-1.599l0.64-1.493l0.747-1.173l0.853-0.746l1.173-0.427h0.959L48.4,3.411
	l0.96,0.746l0.853,1.173l0.32,1.493l0.426,1.599v69.936H42.75z"/>
<path fill="#CCCC33" d="M44.776,15.671l-1.386-1.705v-2.133l1.386-1.492h4.798l1.385,1.492v2.133l-1.385,1.705H44.776z"/>
<path fill="#999999" d="M44.776,15.671l1.386-1.705h2.025l1.387,1.705H44.776z"/>
<path fill="#999999" d="M44.776,10.341l1.386,1.706h2.025l1.387-1.706H44.776z"/>
<path fill="#999999" d="M43.39,13.966v-2.133l2.345,0.32v1.492L43.39,13.966z"/>
<path fill="#999999" d="M50.958,13.966v-2.133l-2.345,0.32v1.492L50.958,13.966z"/>
<path fill="#F2F2F2" d="M5.011,8.209h83.794v0.959H5.011V8.209z"/>
<path d="M9.168,99.999h75.372v1.813H9.168V99.999z"/>
<path d="M18.23,82.089h3.625v17.91H18.23V82.089z"/>
<path d="M71.855,82.089h3.624v17.91h-3.624V82.089z"/>
<path fill="#333333" stroke="#000000" stroke-width="2" d="M15.458,86.78h4.158l27.185,8.209h-4.264L15.458,86.78z"/>
<path fill="#333333" stroke="#000000" stroke-width="2" d="M74.093,86.78h4.264l-27.398,8.209h-4.157L74.093,86.78z"/>
<path fill="none" stroke="#000000" stroke-width="2" d="M5.011,78.358V8.422l2.772-1.599l5.65-1.493l7.783-1.173l9.488-0.746
	l10.661-0.427h10.981l10.66,0.427l9.488,0.746l7.783,1.173l5.438,1.493l2.878,1.599v69.936H5.011"/>
<path fill="#B2B2B2" d="M88.592,78.358v7.036l-2.878,1.6l-5.438,1.386l-7.783,1.173l-9.701,0.853l-10.447,0.533H41.364
	l-10.661-0.533l-9.702-0.853l-7.569-1.173l-5.65-1.386l-2.772-1.6v-7.036H88.592z"/>
<path fill="#B8B8B8" d="M85.394,78.358l-0.213,7.036l-2.453,1.6l-5.223,1.386l-7.037,1.173l-8.848,0.853l-9.596,0.319H41.791
	l-9.915-0.319l-8.635-0.853l-7.036-1.173l-5.224-1.386l-2.559-1.6v-7.036H85.394z"/>
<path fill="#BDBDBD" d="M81.769,78.358v7.036l-2.238,1.6l-4.584,1.386l-6.717,1.173l-7.783,0.853l-9.061,0.319H42.11l-8.848-0.319
	l-7.996-0.853l-6.397-1.173l-4.69-1.386l-2.346-1.6v-7.036H81.769z"/>
<path fill="#BFBFBF" d="M78.357,78.358v7.036l-2.025,1.6l-4.264,1.386l-5.757,1.173l-7.249,0.853l-8.104,0.319H42.75l-7.996-0.319
	l-7.249-0.853l-5.864-1.173l-4.264-1.386l-2.132-1.6v-7.036H78.357z"/>
<path fill="#C4C4C4" d="M74.947,78.358v7.036l-1.813,1.6l-3.838,1.386l-5.225,1.173l-6.503,0.853l-7.036,0.319h-7.356l-7.25-0.319
	l-6.396-0.853l-5.224-1.173l-3.625-1.386l-2.025-1.6v-7.036H74.947z"/>
<path fill="#C9C9C9" d="M71.535,78.358v7.036l-1.705,1.6l-3.199,1.386l-4.584,1.173l-5.65,0.853l-6.184,0.319h-6.609l-6.29-0.319
	l-5.65-0.853l-4.584-1.173l-3.198-1.386l-1.813-1.6v-7.036H71.535z"/>
<path fill="#CFCFCF" d="M68.017,78.358v7.036l-1.387,1.6l-2.771,1.386l-4.051,1.173l-4.798,0.853l-5.437,0.319h-5.651l-5.437-0.319
	l-4.797-0.853l-3.838-1.173l-2.772-1.386l-1.386-1.6v-7.036H68.017z"/>
<path fill="#D4D4D4" d="M64.605,78.358v7.036l-1.172,1.6l-2.346,1.386l-3.305,1.173l-3.945,0.853l-4.69,0.319h-4.584l-4.584-0.319
	l-4.051-0.853l-3.412-1.173l-2.239-1.386l-1.172-1.6v-7.036H64.605z"/>
<path fill="#D9D9D9" d="M61.194,78.358v7.036l-0.96,1.6l-1.813,1.386l-2.771,1.173l-3.305,0.853l-3.518,0.319h-3.838l-3.625-0.319
	l-3.412-0.853l-2.665-1.173l-2.025-1.386l-0.747-1.6v-7.036H61.194z"/>
<path fill="#DBDBDB" d="M57.783,78.358v7.036l-0.533,1.6l-1.6,1.386l-2.025,1.173l-2.452,0.853L48.4,90.724h-3.091l-2.772-0.319
	l-2.452-0.853l-1.919-1.173l-1.599-1.386l-0.64-1.6v-7.036H57.783z"/>
<path fill="#E0E0E0" d="M54.371,78.358v7.036l-0.32,1.6l-1.065,1.386l-1.386,1.173l-1.813,0.853l-2.025,0.319h-2.026l-1.813-0.319
	l-1.813-0.853l-1.386-1.173l-0.959-1.386l-0.426-1.6v-7.036H54.371z"/>
<path fill="#E5E5E5" d="M50.958,78.358v7.036l-0.426,1.6l-0.32,1.386l-0.853,1.173l-0.96,0.853l-1.065,0.533h-0.959l-1.173-0.533
	l-0.853-0.853l-0.747-1.173l-0.64-1.386l-0.213-1.6v-7.036H50.958z"/>
<path fill="none" stroke="#000000" stroke-width="2" d="M88.592,78.358v7.036l-2.878,1.6l-5.438,1.386l-7.783,1.173l-9.701,0.853
	l-10.447,0.533H41.364l-10.661-0.533l-9.702-0.853l-7.569-1.173l-5.65-1.386l-2.772-1.6v-7.036H88.592"/>
<path fill="#333333" stroke="#000000" stroke-width="2" d="M2.985,76.332h87.739v3.944H2.985V76.332z"/>
<path fill="#333333" stroke="#000000" stroke-width="2" d="M2.985,101.385h87.739v2.025H2.985V101.385z"/>
<path fill="#333333" stroke="#000000" stroke-width="2" d="M44.776,80.277h4.157v12.687h-4.157V80.277z"/>
<path fill="#333333" stroke="#000000" stroke-width="2" d="M15.458,80.277h4.158l27.185,12.687h-4.264L15.458,80.277z"/>
<path fill="#333333" stroke="#000000" stroke-width="2" d="M74.093,80.277h4.264L50.958,92.963h-4.157L74.093,80.277z"/>
<path fill="#333333" stroke="#000000" stroke-width="2" d="M13.433,80.277h4.158v21.108h-4.158V80.277z"/>
<path fill="#333333" stroke="#000000" stroke-width="2" d="M76.119,80.277h4.158v21.108h-4.158V80.277z"/>
<path fill="#E5E5E5" d="M42.75,90.938h8.208v8.315H42.75V90.938z"/>
<path fill="none" stroke="#FFFFFF" stroke-width="2" d="M42.75,99.253v-8.315h8.208"/>
<path fill="none" stroke="#000000" stroke-width="2" d="M42.75,99.253h8.208v-8.315"/>
</svg>
