<?xml version="1.0" encoding="utf-8"?>
<!-- Generator: Adobe Illustrator 14.0.0, SVG Export Plug-In . SVG Version: 6.00 Build 43363)  -->
<!DOCTYPE svg PUBLIC "-//W3C//DTD SVG 1.1//EN" "http://www.w3.org/Graphics/SVG/1.1/DTD/svg11.dtd">
<svg version="1.1" id="图层_1" xmlns="http://www.w3.org/2000/svg" xmlns:xlink="http://www.w3.org/1999/xlink" x="0px" y="0px"
	 width="124.438px" height="106.502px" viewBox="0 0 124.438 106.502" enable-background="new 0 0 124.438 106.502"
	 xml:space="preserve">
<path fill="#FFFF91" stroke="#000000" stroke-width="2" d="M55.181,44.47h13.95v1.619h-13.95V44.47z"/>
<path fill="#FFFF00" stroke="#000000" stroke-width="2" d="M53.561,44.47h17.19v-0.374h-17.19V44.47z"/>
<path stroke="#000000" stroke-width="2" d="M69.88,44.096h0.498v0.374H69.88V44.096z"/>
<path stroke="#000000" stroke-width="2" d="M67.139,44.096h0.747v0.374h-0.747V44.096z"/>
<path stroke="#000000" stroke-width="2" d="M64.772,44.096h0.374v0.374h-0.374V44.096z"/>
<path stroke="#000000" stroke-width="2" d="M61.907,44.096h0.499v0.374h-0.499V44.096z"/>
<path stroke="#000000" stroke-width="2" d="M59.167,44.096h0.374v0.374h-0.374V44.096z"/>
<path stroke="#000000" stroke-width="2" d="M56.801,44.096h0.373v0.374h-0.373V44.096z"/>
<path stroke="#000000" stroke-width="2" d="M53.935,44.096h0.498v0.374h-0.498V44.096z"/>
<path fill="#FFFFB3" d="M117.712,103.014H6.975l-0.124-0.125l-1.495-3.363L4.609,95.54L4.11,91.43l-0.249-3.488l-0.249-3.736
	l-0.124-4.111V77.23v-1.495V74.24v-4.234l0.124-4.111l0.125-3.861l0.373-3.487l0.374-4.235l0.498-3.487l0.872-3.114l0.997-1.619
	h0.124h110.736h0.124l1.246,3.363l0.622,3.985l0.499,3.986l0.249,3.487l0.249,3.737l0.124,3.986v2.74v1.494v1.37v4.484l-0.124,4.111
	l-0.125,3.861l-0.249,3.612l-0.498,4.234l-0.498,3.488l-0.748,3.612l-0.747,1.245L117.712,103.014z"/>
<path fill="#FFFF91" d="M117.712,103.014H6.975l-0.124-0.125l-1.37-2.864l-0.748-3.737l-0.623-4.11L3.737,88.44L3.488,84.08v-1.121
	v-1.121h110.611l0.249,4.484l0.249,3.986l0.249,3.612l0.623,3.736l0.747,3.363l1.245,1.868L117.712,103.014z"/>
<path fill="#FFFF00" d="M117.712,103.014l-1.869-3.114l-0.622-3.487l-0.499-3.986l-0.249-2.989v-0.872H3.861l0.249,3.861
	l0.374,3.363l0.498,3.238l1.121,3.114l0.748,0.747l0.124,0.125H117.712z"/>
<ellipse fill="#FFFF75" stroke="#000000" stroke-width="2" cx="117.462" cy="74.489" rx="3.363" ry="28.4"/>
<path fill="none" stroke="#000000" stroke-width="2" d="M117.712,103.014H6.975l-0.124-0.125l-1.495-3.363L4.609,95.54L4.11,91.43
	l-0.249-3.488l-0.249-3.736l-0.124-4.111V77.23v-1.495V74.24v-4.234l0.124-4.111l0.125-3.861l0.373-3.487l0.374-4.235l0.498-3.487
	l0.872-3.114l0.997-1.619h0.124h110.736h0.124l1.246,3.363l0.622,3.985l0.499,3.986l0.249,3.487l0.249,3.737l0.124,3.986v2.74v1.494
	v1.37v4.484l-0.124,4.111l-0.125,3.861l-0.249,3.612l-0.498,4.234l-0.498,3.488l-0.748,3.612l-0.747,1.245L117.712,103.014"/>
<path fill="none" stroke="#7F7F7F" stroke-width="2" d="M81.838,103.014l-0.125-0.125l-1.619-3.363L79.47,95.54l-0.498-4.11
	l-0.249-3.488l-0.249-3.736l-0.125-4.111V77.23l-0.124-1.495V74.24l0.124-4.234l0.125-4.111l0.124-3.861l0.249-3.487l0.499-4.235
	l0.498-3.487l0.747-3.114l1.121-1.619h0.125"/>
<path fill="none" stroke="#7F7F7F" stroke-width="2" d="M42.475,103.014l-0.249-0.125l-1.494-3.363l-0.623-3.985l-0.498-4.11
	l-0.249-3.488l-0.25-3.736l-0.124-4.111l-0.125-2.864v-1.495V74.24v-4.234l0.125-4.111l0.249-3.861l0.249-3.487l0.374-4.235
	l0.623-3.487l0.747-3.114l0.996-1.619h0.249"/>
<path fill="none" stroke="#7F7F7F" stroke-width="2" d="M38.863,85.076h39.362"/>
<path fill="none" stroke="#7F7F7F" stroke-width="2" d="M4.235,91.43h35.874"/>
<path fill="none" stroke="#7F7F7F" stroke-width="2" d="M79.097,91.43h35.749"/>
<path fill="#FFFFFF" stroke="#000000" stroke-width="2" d="M6.975,87.818h8.844v1.992H6.975V87.818z"/>
<path fill="#FF0000" stroke="#000000" stroke-width="2" d="M6.975,84.205h8.844v3.612H6.975V84.205z"/>
<path fill="#663333" stroke="#000000" stroke-width="2" d="M14.574,69.88v-4.733l0.373-4.733h11.585l-0.374,4.733v4.733H14.574z"/>
<ellipse fill="#7F7F7F" stroke="#000000" stroke-width="2" cx="117.462" cy="65.147" rx="0.997" ry="4.733"/>
<path fill="#999999" stroke="#000000" stroke-width="2" d="M110.86,42.103h2.865v3.986h-2.865V42.103z"/>
<path fill="#CCCCCC" d="M111.358,42.103h1.993v3.986h-1.993V42.103z"/>
<path fill="#FFFFFF" d="M111.732,42.103h1.121v3.986h-1.121V42.103z"/>
<path fill="none" stroke="#000000" stroke-width="2" d="M110.86,42.103h2.865v3.986h-2.865V42.103"/>
<path fill="#333333" stroke="#000000" stroke-width="2" d="M110.86,42.103l-0.747-0.498l0.747-1.993h2.865l0.374,1.993l-0.374,0.498
	H110.86z"/>
<path fill="#333333" stroke="#000000" stroke-width="2" d="M114.472,12.208l-1.993-7.225l3.239-0.748l1.993,7.225L114.472,12.208z"
	/>
<path fill="#4C4C4C" stroke="#000000" stroke-width="2" d="M110.86,4.984h2.865v34.628h-2.865V4.984z"/>
<path fill="#4C4C4C" stroke="#000000" stroke-width="2" d="M112.479,12.208l-1.619-7.225l2.865-0.748l1.993,7.225L112.479,12.208z"
	/>
<path fill="#4C4C4C" stroke="#000000" stroke-width="2" d="M83.831,10.215l-0.374-1.246h5.979l-0.373,1.246H83.831z"/>
<path fill="#4C4C4C" stroke="#000000" stroke-width="2" d="M86.197,4.236h0.498V3.489h-0.498V4.236z"/>
<path fill="#999999" stroke="#000000" stroke-width="2" d="M83.083,8.969l0.374-4.733h5.979l0.374,4.733H83.083z"/>
<path fill="#999999" stroke="#000000" stroke-width="2" d="M83.831,10.215h5.231v35.874h-5.231V10.215z"/>
<path fill="#CCCCCC" d="M83.831,8.969l0.871-4.733h3.861l0.499,4.733H83.831z"/>
<path fill="#CCCCCC" d="M85.076,10.215h3.114v35.874h-3.114V10.215z"/>
<path fill="#FFFFFF" d="M85.45,8.969l0.373-4.733h1.246l0.374,4.733H85.45z"/>
<path fill="#FFFFFF" d="M85.823,10.215h1.246v35.874h-1.246V10.215z"/>
<path fill="none" stroke="#000000" stroke-width="2" d="M83.083,8.969l0.374-4.733h5.979l0.374,4.733H83.083"/>
<path fill="none" stroke="#000000" stroke-width="2" d="M83.831,10.215h5.231v35.874h-5.231V10.215"/>
<path fill="#999999" stroke="#000000" stroke-width="2" d="M82.71,38.865h7.474v1.619H82.71V38.865z"/>
<path fill="#999999" stroke="#000000" stroke-width="2" d="M82.71,40.484h7.474v1.121H82.71V40.484z"/>
<path stroke="#000000" stroke-width="2" d="M82.71,40.484h7.474v0.374H82.71V40.484z"/>
<path fill="#FFFFC8" stroke="#000000" stroke-width="2" d="M11.834,42.477h7.598v3.612h-7.598V42.477z"/>
<path fill="#FFFF00" stroke="#000000" stroke-width="2" d="M10.588,42.477h9.965v-0.872h-9.965V42.477z"/>
<path stroke="#000000" stroke-width="2" d="M10.588,41.605h9.965v-0.747h-9.965V41.605z"/>
</svg>
