<?xml version="1.0" encoding="utf-8"?>
<!-- Generator: Adobe Illustrator 14.0.0, SVG Export Plug-In . SVG Version: 6.00 Build 43363)  -->
<!DOCTYPE svg PUBLIC "-//W3C//DTD SVG 1.1//EN" "http://www.w3.org/Graphics/SVG/1.1/DTD/svg11.dtd">
<svg version="1.1" id="图层_1" xmlns="http://www.w3.org/2000/svg" xmlns:xlink="http://www.w3.org/1999/xlink" x="0px" y="0px"
	 width="60.444px" height="106.502px" viewBox="0 0 60.444 106.502" enable-background="new 0 0 60.444 106.502"
	 xml:space="preserve">
<path fill="#999999" d="M47.438,10.343V6.079h-0.959V5.12h4.051v0.959h-0.96v4.264H47.438z"/>
<path fill="#999999" d="M10.874,10.343V6.079H9.808V5.12h4.157v0.959h-1.066v4.264H10.874z"/>
<path fill="none" stroke="#000000" stroke-width="2" d="M47.438,10.343V6.079h-0.959V5.12h4.051v0.959h-0.96v4.264"/>
<path fill="none" stroke="#000000" stroke-width="2" d="M47.438,6.079h2.132"/>
<path fill="none" stroke="#000000" stroke-width="2" d="M10.874,10.343V6.079H9.808V5.12h4.157v0.959h-1.066v4.264"/>
<path fill="none" stroke="#000000" stroke-width="2" d="M10.874,6.079h2.025"/>
<path fill="#B2B29B" stroke="#000000" stroke-width="2" d="M7.569,100.21h6.396v0.853H7.569V100.21z"/>
<path fill="#B2B29B" stroke="#000000" stroke-width="2" d="M44.24,99.464h6.077v0.853H44.24V99.464z"/>
<path fill="#99997A" d="M25.905,74.625h3.091v23.346h-3.091V74.625z"/>
<path fill="#ABAB91" d="M26.544,74.625h1.918v23.346h-1.918V74.625z"/>
<path fill="#BABAA6" d="M27.184,74.625h0.64v23.346h-0.64V74.625z"/>
<path fill="none" stroke="#000000" stroke-width="2" d="M26.011,74.625h2.985v23.346h-2.985V74.625"/>
<path fill="#99997A" stroke="#000000" stroke-width="2" d="M24.838,97.971h5.33v0.746h-5.33V97.971z"/>
<path fill="#B2B29B" d="M45.413,73.133h3.625v26.331h-3.625V73.133z"/>
<path fill="#B2B29B" d="M8.848,72.28h3.731v27.931H8.848V72.28z"/>
<path fill="#C2C2B0" d="M46.159,73.133h2.132v26.331h-2.132V73.133z"/>
<path fill="#C2C2B0" d="M9.594,72.28h2.239v27.931H9.594V72.28z"/>
<path fill="#D4D4C7" d="M46.905,73.133h0.746v26.331h-0.746V73.133z"/>
<path fill="#D4D4C7" d="M10.34,72.28h0.747v27.931H10.34V72.28z"/>
<path fill="none" stroke="#000000" stroke-width="2" d="M45.626,73.133h3.412v26.331h-3.412V73.133"/>
<path fill="none" stroke="#000000" stroke-width="2" d="M8.955,72.28h3.625v27.931H8.955V72.28"/>
<path fill="#7F0000" d="M5.117,69.935V32.304h50.21v37.631l-1.173,2.452l-2.452,1.918l-2.878,1.279l-2.665,0.854l-2.984,0.64
	l-3.199,0.532l-3.518,0.427l-3.73,0.213l-1.279,0.107h-1.28l-3.837-0.107l-3.625-0.319l-3.411-0.427l-3.092-0.64l-2.878-0.746
	l-3.305-1.173l-2.452-1.386L5.33,71.214l-0.213-0.854V69.935z"/>
<path fill="#7F7F7F" d="M55.327,15.567v16.737H5.117V15.567l1.066-2.558l2.559-1.813l2.878-1.279l2.559-0.853l2.985-0.747
	l3.305-0.532l3.411-0.32l3.731-0.319h1.279h1.279l3.838,0.106l3.624,0.213l3.411,0.533l3.198,0.64l2.878,0.64l3.199,1.173
	l2.558,1.492l2.132,2.345l0.213,0.747L55.327,15.567z"/>
<path fill="#991919" d="M8.208,69.935V32.304h43.92v37.631l-1.279,2.878l-2.452,1.813l-2.664,1.279l-3.305,0.959l-2.772,0.64
	l-2.985,0.427l-3.091,0.319h-1.173l-1.066,0.107h-1.172l-3.305-0.107l-3.198-0.319l-2.985-0.427l-2.772-0.64l-3.198-0.959
	l-2.772-1.279l-2.345-1.813l-1.386-2.452V69.935z"/>
<path fill="#999999" d="M52.129,15.567v16.737H8.208V15.567l1.386-2.878l2.345-1.813l2.772-1.279l3.198-0.959l2.772-0.64
	l2.985-0.533l3.198-0.213l1.066-0.106h1.066h1.172l3.412,0.106l3.091,0.213l2.985,0.533l2.772,0.64l3.305,0.959l2.664,1.279
	l2.452,1.813l1.279,2.346V15.567z"/>
<path fill="#A62626" d="M11.407,69.935V32.304h37.631v37.631l-1.493,3.305l-2.771,2.025l-2.665,1.173l-2.984,0.853l-3.305,0.64
	l-3.732,0.319l-1.918,0.107l-3.731-0.214l-3.625-0.533l-3.091-0.746l-2.878-0.959l-3.198-2.025l-1.918-2.239L11.407,69.935z"/>
<path fill="#A6A6A6" d="M49.038,15.567v16.737H11.407V15.567l1.386-3.305l2.878-2.025l2.558-1.172l2.985-0.96l3.412-0.64
	l3.625-0.319h1.918l3.838,0.213l3.518,0.427l3.198,0.853l2.771,0.959l3.198,1.919l1.918,2.346L49.038,15.567z"/>
<path fill="#B23232" d="M13.432,69.935V32.304h33.473v37.631l-1.279,3.305l-2.559,2.025l-3.518,1.599l-2.879,0.746l-3.091,0.533
	l-3.412,0.214l-3.305-0.214l-3.198-0.533l-2.772-0.746l-3.625-1.599l-2.558-2.025L13.432,69.935z"/>
<path fill="#B2B2B2" d="M46.905,15.567v16.737H13.432V15.567l1.279-3.305l2.558-2.025l3.625-1.599l2.772-0.853l3.198-0.427
	l3.305-0.213l3.412,0.213l3.091,0.427l2.879,0.853l3.518,1.599l2.559,2.025L46.905,15.567z"/>
<path fill="#CC4C4C" d="M18.656,69.935V32.304h23.026v37.631l-0.959,3.305l-2.452,2.665l-2.665,1.386l-3.091,0.853l-2.346,0.214
	l-3.411-0.427l-2.985-1.066l-2.452-1.599l-2.132-2.878L18.656,69.935z"/>
<path fill="#CCCCCC" d="M41.682,15.567v16.737H18.656V15.567l0.32-1.705l0.639-1.6l0.427-0.746l0.64-0.64l0.64-0.64l0.746-0.64
	l0.853-0.532l0.853-0.427l0.959-0.533l0.959-0.319l1.066-0.32l1.173-0.106l1.066-0.213h1.172h1.172l1.174,0.213l1.065,0.106
	l1.065,0.32l0.96,0.319l0.96,0.533l0.959,0.427l0.746,0.532l0.746,0.64l0.64,0.64l0.64,0.64l0.854,1.493l0.426,1.599L41.682,15.567z
	"/>
<path fill="#E56565" d="M24.945,69.935V32.304h10.446v37.631l-0.426,3.305l-1.066,2.665l-2.132,2.025l-1.599,0.427l-2.878-1.493
	l-1.706-2.984l-0.64-3.092V69.935z"/>
<path fill="#E5E5E5" d="M35.392,15.567v16.737H24.945V15.567l0.106-1.705l0.32-1.6l0.533-1.386l0.64-1.279l0.746-0.959l0.853-0.853
	l0.959-0.427l1.066-0.213l1.067,0.213l0.959,0.427l0.959,0.853l0.746,0.959l0.641,1.279l0.426,1.386l0.32,1.6L35.392,15.567z"/>
<path fill="none" stroke="#000000" stroke-width="2" d="M5.117,69.935V32.304h50.21v37.631l-1.173,2.452l-2.452,1.918l-2.878,1.279
	l-2.665,0.854l-2.984,0.64l-3.199,0.532l-3.518,0.427l-3.73,0.213l-1.279,0.107h-1.28l-3.837-0.107l-3.625-0.319l-3.411-0.427
	l-3.092-0.64l-2.878-0.746l-3.305-1.173l-2.452-1.386L5.33,71.214l-0.213-0.854V69.935"/>
<path fill="none" stroke="#000000" stroke-width="2" d="M55.327,15.567v16.737H5.117V15.567l1.066-2.558l2.559-1.813l2.878-1.279
	l2.559-0.853l2.985-0.747l3.305-0.532l3.411-0.32l3.731-0.319h1.279h1.279l3.838,0.106l3.624,0.213l3.411,0.533l3.198,0.64
	l2.878,0.64l3.199,1.173l2.558,1.492l2.132,2.345l0.213,0.747L55.327,15.567"/>
<path fill="none" stroke="#000000" stroke-width="2" d="M5.117,15.567h50.21"/>
<path fill="#991919" stroke="#000000" stroke-width="2" d="M5.117,65.778h50.21v3.091l-8.422,0.533l-16.737,0.533l-16.736-0.533
	l-8.315-0.533V65.778z"/>
<path fill="#CCB2B2" stroke="#000000" stroke-width="2" d="M2.985,46.375h54.368v1.066H2.985V46.375z"/>
<path fill="#CCCCBD" stroke="#000000" stroke-width="2" d="M13.965,102.342h7.356v1.066h-7.356V102.342z"/>
<path fill="#CCCCBD" stroke="#000000" stroke-width="2" d="M38.591,102.342h7.355v1.066h-7.355V102.342z"/>
<path fill="#CCCCBD" d="M39.976,69.935h4.371v32.407h-4.371V69.935z"/>
<path fill="#CCCCBD" d="M15.351,69.935h4.371v32.407h-4.371V69.935z"/>
<path fill="#DEDED4" d="M40.829,69.935h2.771v32.407h-2.771V69.935z"/>
<path fill="#DEDED4" d="M16.204,69.935h2.665v32.407h-2.665V69.935z"/>
<path fill="#EDEDE8" d="M41.788,69.935h0.854v32.407h-0.854V69.935z"/>
<path fill="#EDEDE8" d="M17.057,69.935h0.959v32.407h-0.959V69.935z"/>
<path fill="none" stroke="#000000" stroke-width="2" d="M40.189,69.935h4.157v32.407h-4.157V69.935"/>
<path fill="none" stroke="#000000" stroke-width="2" d="M15.564,69.935h4.158v32.407h-4.158V69.935"/>
<path fill="#E5E5E5" d="M28.037,11.303v-6.29h-2.025V2.988h8.315v2.025h-2.025v6.29H28.037z"/>
<path fill="none" stroke="#000000" stroke-width="2" d="M28.037,11.303v-6.29h-2.025V2.988h8.315v2.025h-2.025v6.29"/>
<path fill="none" stroke="#000000" stroke-width="2" d="M28.037,5.013h4.264"/>
<path fill="#B2B2B2" d="M39.55,10.237v-4.69h-1.492V4.054h6.183v1.492h-1.492v4.69H39.55z"/>
<path fill="#B2B2B2" d="M17.589,10.237v-4.69h-1.492V4.054h6.183v1.492h-1.599v4.69H17.589z"/>
<path fill="none" stroke="#000000" stroke-width="2" d="M39.55,10.237v-4.69h-1.492V4.054h6.183v1.492h-1.492v4.69"/>
<path fill="none" stroke="#000000" stroke-width="2" d="M39.55,5.546h3.198"/>
<path fill="none" stroke="#000000" stroke-width="2" d="M17.589,10.237v-4.69h-1.492V4.054h6.183v1.492h-1.599v4.69"/>
<path fill="none" stroke="#000000" stroke-width="2" d="M17.589,5.546h3.092"/>
</svg>
