<?xml version="1.0" encoding="utf-8"?>
<!-- Generator: Adobe Illustrator 14.0.0, SVG Export Plug-In . SVG Version: 6.00 Build 43363)  -->
<!DOCTYPE svg PUBLIC "-//W3C//DTD SVG 1.1//EN" "http://www.w3.org/Graphics/SVG/1.1/DTD/svg11.dtd">
<svg version="1.1" id="图层_1" xmlns="http://www.w3.org/2000/svg" xmlns:xlink="http://www.w3.org/1999/xlink" x="0px" y="0px"
	 width="110.945px" height="106.502px" viewBox="0 0 110.945 106.502" enable-background="new 0 0 110.945 106.502"
	 xml:space="preserve">
<path fill="#B2B2AD" d="M107.724,24.876l-0.555-3.331l-1.777-3.11l-2.776-2.998l-2.443-1.777l-2.888-1.776l-3.221-1.666
	l-3.442-1.443l-3.998-1.333l-4.108-1.222L78.072,5.22l-4.664-0.777L68.41,3.776l-4.996-0.444L58.082,3.11h-2.665h-2.666
	l-5.331,0.222l-4.998,0.444l-4.998,0.667L32.762,5.22l-4.442,0.999L24.21,7.441l-3.998,1.333l-3.443,1.443l-3.221,1.666
	l-2.887,1.776l-2.443,1.777l-2.776,2.998l-1.777,3.11L3.11,23.766v1.11v69.743l2.332,2.665l2.776,1.111l3.887,1.11l2.999,0.666
	l3.332,0.666l3.776,0.556l3.998,0.444l4.332,0.556l4.553,0.333l4.775,0.333l4.998,0.111l5.22,0.222h2.665h2.666h5.331l5.22-0.222
	l4.997-0.111l4.775-0.333l4.554-0.333l4.331-0.556l3.998-0.444l3.775-0.556l3.332-0.666l2.998-0.666l3.888-1.11l2.776-1.111
	l2.332-2.109v-0.556V24.876z"/>
<path fill="#BFBFBA" d="M99.062,24.876l-0.556-3.331l-1.443-3.11l-2.333-2.998l-3.221-2.665l-2.442-1.777l-2.888-1.443L83.07,8.107
	l-3.332-1.332l-3.554-1l-3.776-0.999L68.41,4.109l-4.219-0.555l-4.332-0.333L57.638,3.11h-2.221h-2.221l-4.442,0.222l-4.22,0.444
	l-4.109,0.667L36.538,5.22l-3.665,0.999l-3.554,1.222l-3.221,1.333l-2.887,1.443l-2.666,1.666l-2.443,1.776l-2.887,2.776
	l-1.999,2.999l-1.222,3.221l-0.111,1.11l-0.111,1.11v69.743l1.999,2.665l3.332,1.555l3.443,1.111l4.109,0.888l3.11,0.556
	l3.332,0.444l3.554,0.556l3.776,0.333l3.998,0.333l4.22,0.111l4.331,0.222h2.221h2.221h4.442l4.332-0.222l4.219-0.111l3.998-0.333
	l3.776-0.333l3.554-0.556l3.332-0.444l3.109-0.556l2.888-0.666l3.665-0.999l2.887-1.111l2.555-1.665l0.777-1.222l0.111-0.556V24.876
	z"/>
<path fill="#CCCCC7" d="M92.509,24.876l-0.443-3.331l-1.223-3.11l-1.998-2.998l-2.777-2.665l-3.221-2.555l-2.554-1.443l-2.776-1.333
	l-2.888-1.222L71.52,5.22l-3.331-0.777l-3.555-0.667l-3.554-0.444L57.304,3.11h-1.887h-1.888l-3.776,0.222l-3.554,0.444
	l-3.554,0.667L39.314,5.22l-3.11,0.999l-2.887,1.222l-2.776,1.333l-2.554,1.443l-3.221,2.555l-2.776,2.665l-1.999,2.998l-1.222,3.11
	l-0.333,2.221l-0.111,1.11v69.743l1.666,2.665l2.887,1.555l2.888,1.111l3.442,0.888l4.109,0.778l2.887,0.555l3.11,0.333l3.332,0.333
	l3.554,0.223l3.554,0.222l1.888,0.111h1.888h1.888h3.776l3.664-0.222l3.555-0.111l3.442-0.333l3.221-0.333l2.999-0.556l4.22-0.666
	l3.665-1l3.109-0.999l3.109-1.555l2.11-1.999l0.11-0.444l0.111-0.556V24.876z"/>
<path fill="#D9D9D4" d="M88.068,24.876l-0.334-3.331l-1.11-3.11l-1.776-2.998l-2.332-2.665l-2.889-2.555l-3.442-2.11L73.63,6.775
	l-2.666-1l-2.887-0.999l-2.999-0.667l-3.109-0.555l-3.221-0.333L57.083,3.11h-1.666h-1.666l-3.332,0.222l-3.221,0.444L44.2,4.443
	L41.202,5.22l-2.665,0.999l-2.666,1.222l-3.554,2.11l-3.11,2.332l-2.554,2.665l-1.888,2.888l-1.333,3.109l-0.666,3.221v1.11v69.743
	l1.444,2.665l2.443,1.555l2.554,1.111l3.11,0.888l3.554,0.778l3.998,0.777l4.331,0.443l2.999,0.223l3.221,0.222l1.666,0.111h1.666
	h1.666h3.332l3.221-0.222l3.109-0.111l2.999-0.333l4.22-0.556l3.887-0.777l3.442-0.889l2.889-0.999l2.998-1.444l2.221-2.109
	l0.334-0.777v-0.556V24.876z"/>
<path fill="#E5E5E0" d="M77.183,24.876l-0.443-4.331l-1.222-4.109l-1.999-3.664l-2.666-3.221l-3.221-2.776l-3.775-1.999
	l-3.998-1.222l-2.221-0.333L55.417,3.11l-2.221,0.111l-4.22,0.888l-3.887,1.666l-3.554,2.332l-2.888,2.888l-2.332,3.554
	l-1.777,3.887l-0.777,4.221l-0.111,2.221v69.743l1.666,3.442l3.332,2.11l2.888,1.222l3.554,1l3.887,0.666l4.22,0.333h2.221h2.221
	l4.22-0.333l3.888-0.666l3.553-1l2.889-1.222l3.331-2.11l1.555-2.442l0.11-1V24.876z"/>
<path fill="#F2F2ED" d="M64.191,24.876l-0.223-4.331l-0.555-4.109l-0.778-3.664l-0.999-3.221l-1.333-2.776l-2.332-2.666
	l-1.666-0.888L55.417,3.11l-0.889,0.111l-2.443,1.555l-2.221,3.331l-1.222,2.888l-0.889,3.554l-0.666,3.887l-0.333,4.221
	l-0.111,2.221v69.743l0.777,3.442l1.777,2.776l2.887,1.889l2.443,0.666h0.889h0.888l3.221-0.999l2.665-2.222l1.555-2.888
	l0.334-1.665l0.111-1V24.876z"/>
<path fill="none" stroke="#000000" stroke-width="2" d="M107.724,24.876l-0.555-3.331l-1.777-3.11l-2.776-2.998l-2.443-1.777
	l-2.888-1.776l-3.221-1.666l-3.442-1.443l-3.998-1.333l-4.108-1.222L78.072,5.22l-4.664-0.777L68.41,3.776l-4.996-0.444L58.082,3.11
	h-2.665h-2.666l-5.331,0.222l-4.998,0.444l-4.998,0.667L32.762,5.22l-4.442,0.999L24.21,7.441l-3.998,1.333l-3.443,1.443
	l-3.221,1.666l-2.887,1.776l-2.443,1.777l-2.776,2.998l-1.777,3.11L3.11,23.766v1.11v69.743l2.332,2.665l2.776,1.111l3.887,1.11
	l2.999,0.666l3.332,0.666l3.776,0.556l3.998,0.444l4.332,0.556l4.553,0.333l4.775,0.333l4.998,0.111l5.22,0.222h2.665h2.666h5.331
	l5.22-0.222l4.997-0.111l4.775-0.333l4.554-0.333l4.331-0.556l3.998-0.444l3.775-0.556l3.332-0.666l2.998-0.666l3.888-1.11
	l2.776-1.111l2.332-2.109v-0.556V24.876"/>
<path fill="none" stroke="#7F7F7F" stroke-width="2" d="M107.724,24.876v0.223l-3.109,1.332l-3.221,0.556l-4.109,0.556l-3.221,0.333
	l-3.442,0.222l-3.998,0.333l-4.108,0.223l-4.443,0.222l-4.664,0.111l-4.998,0.111l-4.996,0.11h-5.332h-6.996"/>
<path fill="#D9D9D4" d="M51.086,12.882v16.325l-26.32-0.777l0.111-15.548H51.086z"/>
<path fill="none" stroke="#7F7F7F" stroke-width="2" d="M107.724,37.981v0.223l-3.109,1.222l-3.221,0.666l-4.109,0.444l-3.221,0.333
	l-3.442,0.333l-3.998,0.223l-4.108,0.333l-4.443,0.111l-4.664,0.222l-4.998,0.111l-4.996,0.11h-2.666h-2.666h-2.665h-5.331
	l-5.22-0.11l-4.998-0.111l-4.775-0.111l-4.553-0.222l-4.332-0.111l-3.998-0.333l-3.776-0.222l-3.332-0.334l-2.999-0.333
	l-3.887-0.555l-3.443-0.777L3.11,38.203v-0.223"/>
<path fill="none" stroke="#7F7F7F" stroke-width="2" d="M24.543,28.43L22.1,28.32l-2.332-0.223l-2.11-0.222l-2.11-0.111
	l-1.888-0.222l-1.777-0.223l-1.555-0.222l-1.443-0.223l-1.333-0.222L6.33,26.431l-0.888-0.222l-0.889-0.333l-0.666-0.223
	l-0.444-0.222l-0.222-0.333L3.11,24.876"/>
<path fill="#E5E5E0" d="M51.086,12.882v16.325l-17.547-0.443V12.882H51.086z"/>
<path fill="#F2F2ED" d="M51.086,12.882v16.325l-4.332-0.11V12.882H51.086z"/>
<path fill="none" stroke="#7F7F7F" stroke-width="2" d="M24.876,12.882L24.543,28.43"/>
<path fill="#CCCCC7" stroke="#7F7F7F" stroke-width="2" d="M51.086,12.882l4.886-5.997l-0.555,2.777l-4.331,19.545V12.882z"/>
<path fill="#F2F2ED" stroke="#7F7F7F" stroke-width="2" d="M51.086,12.882l4.886-5.997h-2.666l-28.43,5.997H51.086z"/>
<path fill="#666666" stroke="#000000" stroke-width="2" d="M28.208,15.104h12.994v1.666H28.208V15.104z"/>
</svg>
