<?xml version="1.0" encoding="utf-8"?>
<!-- Generator: Adobe Illustrator 14.0.0, SVG Export Plug-In . SVG Version: 6.00 Build 43363)  -->
<!DOCTYPE svg PUBLIC "-//W3C//DTD SVG 1.1//EN" "http://www.w3.org/Graphics/SVG/1.1/DTD/svg11.dtd">
<svg version="1.1" id="图层_1" xmlns="http://www.w3.org/2000/svg" xmlns:xlink="http://www.w3.org/1999/xlink" x="0px" y="0px"
	 width="81.339px" height="106.502px" viewBox="0 0 81.339 106.502" enable-background="new 0 0 81.339 106.502"
	 xml:space="preserve">
<path fill="#B2B29B" d="M78.247,99.25v0.214l-2.984,1.386l-3.412,0.746l-3.411,0.427l-3.838,0.426l-2.985,0.32l-3.091,0.213
	l-3.305,0.106l-3.411,0.106l-3.625,0.107l-3.73,0.106h-1.92h-1.918h-3.837l-3.731-0.106l-3.625-0.107l-3.411-0.106l-3.305-0.106
	l-3.091-0.213l-2.878-0.32l-3.944-0.426l-3.412-0.427L5.97,100.85l-2.559-0.96l-0.426-0.426V99.25V15.567l1.173-3.091l2.558-2.346
	l2.665-1.599l3.412-1.386l3.944-1.279l2.878-0.747l3.091-0.532l3.305-0.533l3.411-0.533l3.625-0.213l3.731-0.214l1.919-0.106h1.918
	l3.838,0.106l3.73,0.214l3.625,0.213l3.411,0.533l3.305,0.533l3.091,0.532l2.985,0.747l2.665,0.853l3.518,1.386l2.985,1.492
	l2.239,1.706l1.812,2.345l0.427,1.279v0.64V99.25z"/>
<path fill="#B8B8A4" d="M75.263,99.25v0.214l-2.666,1.386l-3.197,0.746l-3.092,0.427l-3.625,0.426l-4.051,0.32l-2.984,0.213
	l-3.092,0.106l-3.305,0.214l-3.305,0.106H44.24h-1.812h-1.813h-3.518l-3.412-0.106l-3.305-0.107l-3.198-0.106l-2.985-0.213
	l-4.264-0.32l-3.731-0.426l-3.305-0.427l-3.411-0.64l-2.772-0.959l-0.64-0.64V99.25V15.567l1.066-3.198l2.345-2.238l2.452-1.599
	l3.092-1.386l3.625-1.279l2.665-0.747l2.878-0.64l2.985-0.532l3.198-0.427l3.305-0.319l3.412-0.214h1.812h1.706h3.518l3.518,0.214
	l3.305,0.319l3.198,0.427L57.14,4.48l2.878,0.64l2.665,0.747l3.625,1.279l3.092,1.386l2.451,1.599l2.346,2.238l1.066,2.559v0.64
	V99.25z"/>
<path fill="#BDBDA9" d="M72.277,99.25l-0.106,0.214l-2.452,1.386l-2.878,0.746l-2.771,0.427l-3.305,0.426l-3.732,0.32l-4.051,0.319
	l-4.477,0.214l-3.092,0.106h-1.492h-1.706h-1.599h-3.198l-3.092-0.106l-3.091-0.107l-4.264-0.213l-3.944-0.319l-3.625-0.32
	l-3.091-0.533l-3.412-0.533l-2.771-1.065l-0.959-0.746L9.062,99.25V15.567l1.066-3.198l2.025-2.238l2.345-1.599l2.771-1.386
	l3.305-1.279L24.306,4.8l2.665-0.64l2.878-0.427l2.985-0.319l2.985-0.32l1.599-0.106h1.599h1.599h3.305l3.092,0.214l2.984,0.319
	l2.879,0.427l2.771,0.532l3.838,0.96l3.518,1.279l2.878,1.386l2.559,1.492l2.345,2.239l1.279,2.451l0.107,0.64l0.106,0.64V99.25z"/>
<path fill="#BFBFAD" d="M69.186,99.25l-0.106,0.427l-2.665,1.386l-2.878,0.64l-3.731,0.64l-3.198,0.32l-3.625,0.319l-3.838,0.213
	l-4.156,0.214h-1.387h-1.492h-1.493h-4.264l-4.157-0.214l-3.838-0.213l-3.625-0.319l-3.305-0.32l-2.771-0.533l-3.092-0.533
	l-2.559-1.065l-0.746-0.533l-0.106-0.213V99.25V15.567l0.853-3.198l1.919-2.238l2.878-2.025l2.665-1.386L23.56,5.44l3.518-0.96
	l3.731-0.746l4.051-0.532l2.878-0.214h1.492h1.386l4.372,0.106l4.156,0.427l3.838,0.64l3.625,0.959l3.198,1.173l2.878,1.279
	l2.346,1.492l2.451,2.133l1.387,2.451l0.319,1.279v0.64V99.25z"/>
<path fill="#C4C4B2" d="M66.095,99.25l-2.453,1.813l-3.305,0.746l-3.518,0.64l-2.984,0.32l-3.305,0.319l-3.518,0.214l-3.732,0.106
	h-1.278h-1.386h-3.837l-3.731-0.214l-3.411-0.213l-3.198-0.319l-2.878-0.32l-3.305-0.64l-3.092-0.853l-1.919-1.386l-0.106-0.214
	V15.567l0.853-3.198l1.706-2.238l2.559-2.025L22.6,6.719l2.771-1.279l3.091-0.96l3.412-0.746l3.625-0.532l2.559-0.214h1.279h1.279
	l3.944,0.106l3.625,0.427l3.518,0.64l3.199,0.959l2.877,1.173l2.559,1.279l2.666,2.025l2.025,2.239l1.066,3.091v0.64V99.25z"/>
<path fill="#C9C9BA" d="M63.109,99.25l-0.106,0.427l-2.666,1.599l-3.091,0.747l-3.198,0.532l-3.73,0.427l-2.985,0.213l-3.305,0.214
	h-1.066h-1.173h-1.172h-3.411l-3.198-0.214l-3.091-0.213l-3.731-0.427l-3.092-0.532l-3.198-0.747l-2.452-1.386l-0.106-0.213
	l-0.107-0.213V99.25V15.567l0.64-3.198l1.493-2.238L22.6,8.105l2.985-1.813l2.558-1.173l2.772-0.959l3.091-0.64l3.198-0.427
	l1.173-0.106h1.172h1.066l3.412,0.106l3.305,0.427l2.985,0.64l2.878,0.959l2.558,1.173l2.879,1.813l2.238,2.025l1.492,2.238
	l0.641,2.559l0.106,0.64V99.25z"/>
<path fill="#CFCFC0" d="M60.124,99.25l-0.106,0.427l-2.239,1.599l-3.41,0.854l-2.879,0.533l-3.305,0.426l-3.625,0.214l-1.918,0.106
	h-2.026h-1.918l-3.838-0.214l-3.411-0.319l-3.092-0.427l-3.838-0.853l-2.452-1.173l-0.746-0.746l-0.107-0.427V15.567l0.853-3.73
	l2.452-3.305l2.452-1.813l2.878-1.6l3.198-1.172l3.731-0.746l1.919-0.214h1.918h2.026l3.73,0.533l3.519,0.959l3.091,1.387
	l2.666,1.705l2.131,2.025l1.92,3.411l0.319,1.279l0.106,1.279V99.25z"/>
<path fill="#D4D4C7" d="M57.032,99.25l-2.025,2.025l-2.771,0.854l-3.73,0.746l-2.985,0.319l-3.198,0.214h-1.706h-1.599l-3.198-0.214
	l-2.985-0.319l-3.731-0.746l-2.878-0.854l-1.813-1.599l-0.106-0.427V15.567l0.746-3.73l2.025-3.305l3.198-2.665l2.559-1.387
	l2.985-0.959l3.198-0.533h1.599h1.706l3.198,0.533l2.985,0.959l2.559,1.387l2.238,1.705l2.451,3.092l1.174,3.624l0.105,1.279V99.25z
	"/>
<path fill="#D9D9CC" d="M53.941,99.25l-2.239,2.346l-2.559,0.853l-3.305,0.64l-3.837,0.32h-1.386h-1.279l-3.837-0.32l-3.305-0.64
	l-2.559-0.853l-2.239-1.919l-0.106-0.427V15.567l0.64-3.73l1.706-3.305l2.559-2.665l3.305-1.919l3.837-0.96h1.279h1.386l3.837,0.96
	l3.305,1.919l2.559,2.665l1.706,3.305l0.533,2.451v1.279V99.25z"/>
<path fill="#DBDBD1" d="M50.956,99.25l-1.813,2.346l-2.771,1.066l-3.624,0.64l-1.065,0.106h-1.067h-0.959l-2.985-0.32l-3.305-0.959
	l-2.558-1.706l-0.32-0.746l-0.107-0.427V15.567l0.427-3.73l1.386-3.305l1.919-2.665l2.558-1.919l2.985-0.96h0.959h1.067l2.984,0.96
	l2.559,1.919l1.918,2.665l1.279,3.305l0.427,2.451l0.106,1.279V99.25z"/>
<path fill="#E0E0D6" d="M47.864,99.25l-1.598,2.559l-2.772,1.279l-2.132,0.32h-0.747H39.87l-3.305-0.746l-2.239-1.387l-0.853-1.599
	V99.25V15.567l0.32-3.73l0.853-3.305l1.386-2.665l2.452-2.346l1.386-0.533h0.746h0.747l2.771,1.492l1.6,2.239l1.279,2.878
	l0.746,3.411l0.105,1.279v1.279V99.25z"/>
<path fill="#E5E5DD" d="M44.773,99.25l-1.173,2.985l-2.985,1.173l-2.985-1.173l-1.172-2.985V15.567l0.213-3.73l0.427-3.305
	l0.853-2.665l1.386-2.346l1.279-0.533l2.345,2.132l1.173,3.412l0.426,3.305l0.214,3.73V99.25z"/>
<path fill="none" stroke="#000000" stroke-width="2" d="M78.247,99.25v0.214l-2.984,1.386l-3.412,0.746l-3.411,0.427l-3.838,0.426
	l-2.985,0.32l-3.091,0.213l-3.305,0.106l-3.411,0.106l-3.625,0.107l-3.73,0.106h-1.92h-1.918h-3.837l-3.731-0.106l-3.625-0.107
	l-3.411-0.106l-3.305-0.106l-3.091-0.213l-2.878-0.32l-3.944-0.426l-3.412-0.427L5.97,100.85l-2.559-0.96l-0.426-0.426V99.25V15.567
	l1.173-3.091l2.558-2.346l2.665-1.599l3.412-1.386l3.944-1.279l2.878-0.747l3.091-0.532l3.305-0.533l3.411-0.533l3.625-0.213
	l3.731-0.214l1.919-0.106h1.918l3.838,0.106l3.73,0.214l3.625,0.213l3.411,0.533l3.305,0.533l3.091,0.532l2.985,0.747l2.665,0.853
	l3.518,1.386l2.985,1.492l2.239,1.706l1.812,2.345l0.427,1.279v0.64V99.25"/>
<path fill="#99997A" d="M75.155,98.291v0.106l-2.665,1.066l-3.198,0.533l-3.092,0.319l-3.624,0.319l-4.051,0.214l-2.985,0.213
	l-2.984,0.106l-3.305,0.106h-3.305h-1.813h-1.705h-5.331h-3.412l-3.305-0.106l-3.198-0.106l-2.985-0.106l-4.157-0.213l-3.838-0.32
	l-3.198-0.319l-3.411-0.533l-2.771-0.64l-0.64-0.533l-0.107-0.106V57.356h69.079V98.291z"/>
<path fill="#A1A185" d="M70.892,98.398v0.106l-2.985,1.173l-2.985,0.533l-2.878,0.319l-3.305,0.32l-3.624,0.213l-4.051,0.213
	l-4.265,0.107h-1.492l-1.493,0.106h-1.599h-4.584l-2.985-0.106l-4.371-0.107l-3.944-0.213L22.6,100.85l-3.305-0.32l-2.878-0.319
	l-2.985-0.533l-2.665-0.853l-0.32-0.32v-0.106V57.356h60.444V98.398z"/>
<path fill="#ABAB91" d="M66.627,98.504v0.214l-2.558,1.172l-3.305,0.64l-3.519,0.427l-3.092,0.213l-3.411,0.214l-3.625,0.213h-2.451
	l-1.279,0.106h-1.386h-3.944l-3.838-0.106l-3.625-0.213l-3.411-0.214l-2.985-0.213l-3.518-0.427l-2.772-0.532l-2.665-0.854
	l-0.533-0.426v-0.214V57.356h51.916V98.504z"/>
<path fill="#B2B29B" d="M62.362,98.718l-0.105,0.319l-2.452,1.173l-3.731,0.746l-3.305,0.319l-3.625,0.32l-4.051,0.213h-2.238
	h-4.371l-4.264-0.106l-3.838-0.213l-3.518-0.32l-2.878-0.533l-3.305-0.746l-1.599-0.853l-0.106-0.319V57.356h43.387V98.718z"/>
<path fill="#BABAA6" d="M58.099,98.931l-0.106,0.319l-2.878,1.386l-3.305,0.64l-4.371,0.533l-3.198,0.106l-1.812,0.107H38.91
	l-3.411-0.214l-3.092-0.213l-4.051-0.533l-2.985-0.64l-2.025-1.173l-0.106-0.319V57.356h34.859V98.931z"/>
<path fill="#C4C4B2" d="M53.835,99.037l-0.107,0.32l-2.878,1.705l-2.878,0.64l-3.412,0.32l-2.558,0.213l-3.944-0.106l-3.625-0.32
	l-2.985-0.533l-2.878-0.959l-0.959-0.959l-0.106-0.32V57.356h26.331V99.037z"/>
<path fill="#CCCCBD" d="M49.571,99.25l-2.133,2.025l-2.559,0.747l-3.305,0.319l-3.518-0.106l-2.985-0.533l-2.559-1.173l-0.747-1.279
	V57.356h17.804V99.25z"/>
<ellipse fill="#B2B29B" cx="40.616" cy="57.356" rx="34.54" ry="2.025"/>
</svg>
