<?xml version="1.0" encoding="utf-8"?>
<!-- Generator: Adobe Illustrator 14.0.0, SVG Export Plug-In . SVG Version: 6.00 Build 43363)  -->
<!DOCTYPE svg PUBLIC "-//W3C//DTD SVG 1.1//EN" "http://www.w3.org/Graphics/SVG/1.1/DTD/svg11.dtd">
<svg version="1.1" id="图层_1" xmlns="http://www.w3.org/2000/svg" xmlns:xlink="http://www.w3.org/1999/xlink" x="0px" y="0px"
	 width="75.053px" height="106.502px" viewBox="0 0 75.053 106.502" enable-background="new 0 0 75.053 106.502"
	 xml:space="preserve">
<path fill="#CCCCCC" d="M2.985,17.058h69.083v86.353H2.985V17.058z"/>
<path fill="#D1D1D1" d="M5.97,17.058h63.325v86.353H5.97V17.058z"/>
<path fill="#D6D6D6" d="M8.742,17.058h57.462v86.353H8.742V17.058z"/>
<path fill="#D9D9D9" d="M11.834,17.058h51.386v86.353H11.834V17.058z"/>
<path fill="#DEDEDE" d="M14.819,17.058h45.628v86.353H14.819V17.058z"/>
<path fill="#E3E3E3" d="M17.591,17.058h39.872v86.353H17.591V17.058z"/>
<path fill="#E8E8E8" d="M20.682,17.058h33.688v86.353H20.682V17.058z"/>
<path fill="#EDEDED" d="M23.667,17.058h27.719v86.353H23.667V17.058z"/>
<path fill="#F2F2F2" d="M26.439,17.058h22.175v86.353H26.439V17.058z"/>
<path fill="#F5F5F5" d="M29.531,17.058h15.991v86.353H29.531V17.058z"/>
<path fill="#FAFAFA" d="M32.515,17.058h10.021v86.353H32.515V17.058z"/>
<path fill="#FFFFFF" d="M35.288,17.058h4.478v86.353h-4.478V17.058z"/>
<path fill="none" stroke="#000000" stroke-width="2" d="M2.985,17.058h69.083v86.353H2.985V17.058"/>
<path fill="#CCCCCC" d="M7.143,94.776h6.609v8.635H7.143V94.776z"/>
<path fill="#BFBFBF" d="M7.143,94.776h6.609l-4.371,2.238l-2.238,6.396V94.776z"/>
<path fill="#CCCCCC" d="M61.301,94.776h6.396v8.635h-6.396V94.776z"/>
<path fill="#BFBFBF" d="M61.301,94.776h6.396l-4.265,2.238l-2.132,6.396V94.776z"/>
<path fill="#7F7F7F" d="M11.621,17.058h0.959v4.157h-0.959V17.058z"/>
<path fill="#7F7F7F" d="M17.057,17.058h0.96v4.157h-0.96V17.058z"/>
<path fill="#7F7F7F" d="M57.036,17.058h0.959v4.157h-0.959V17.058z"/>
<path fill="#7F7F7F" d="M62.473,17.058h0.959v4.157h-0.959V17.058z"/>
<path fill="#CCCCCC" d="M8.423,17.058v-1.279l1.919-2.133l3.838-2.025l5.437-1.599l6.61-1.066l7.462-0.533h7.676l7.463,0.533
	l6.609,1.066l5.438,1.599l3.731,2.025l2.025,2.133v1.279H8.423z"/>
<path fill="#D1D1D1" d="M11.834,17.058v-1.279l1.813-2.133l3.411-2.025l4.798-1.599l5.863-1.066l6.396-0.533h6.823l6.396,0.533
	l6.076,1.066l4.584,1.599l3.412,2.025l1.813,2.133v1.279H11.834z"/>
<path fill="#D9D9D9" d="M15.459,17.058v-1.279l1.386-2.133l2.984-2.025l4.052-1.599l5.011-1.066l5.863-0.533h5.757l5.65,0.533
	l5.011,1.066l4.051,1.599l2.985,2.025l1.386,2.133v1.279H15.459z"/>
<path fill="#DEDEDE" d="M18.87,17.058v-1.279l1.386-2.133l2.346-2.025l3.411-1.599l4.265-1.066l4.797-0.533h4.904l4.798,0.533
	l4.157,1.066l3.519,1.599l2.345,2.025l1.387,2.133v1.279H18.87z"/>
<path fill="#E5E5E5" d="M22.495,17.058v-1.279l0.959-2.133l2.025-2.025l2.772-1.599l3.411-1.066l3.838-0.533h4.051l3.731,0.533
	l3.519,1.066l2.771,1.599l2.025,2.025l0.96,2.133v1.279H22.495z"/>
<path fill="#EBEBEB" d="M25.906,17.058v-1.279l0.746-2.133l1.6-2.025l2.238-1.599l2.559-1.066l3.092-0.533h2.985l2.771,0.533
	l2.879,1.066l2.025,1.599l1.599,2.025l0.747,2.133v1.279H25.906z"/>
<path fill="#F2F2F2" d="M29.531,17.058v-1.279l0.533-2.133l1.065-2.025l1.386-1.599l1.813-1.066l2.239-0.533h1.919l2.238,0.533
	l1.813,1.066l1.386,1.599l1.173,2.025l0.427,2.133v1.279H29.531z"/>
<path fill="#F7F7F7" d="M32.942,17.058v-1.279l0.32-2.133l0.64-2.025l0.853-1.599l0.959-1.066l1.173-0.533h1.279l1.173,0.533
	l0.96,1.066l0.853,1.599l0.64,2.025l0.319,2.133v1.279H32.942z"/>
<path fill="#FFFFFF" d="M36.567,17.058v-1.279v-2.133l0.106-2.025l0.213-1.599L37.1,8.955l0.213-0.533h0.427l0.213,0.533
	l0.213,1.066l0.214,1.599l0.106,2.025v2.133v1.279H36.567z"/>
<path fill="none" stroke="#000000" stroke-width="2" d="M8.423,17.058v-1.279l1.919-2.133l3.838-2.025l5.437-1.599l6.61-1.066
	l7.462-0.533h7.676l7.463,0.533l6.609,1.066l5.438,1.599l3.731,2.025l2.025,2.133v1.279H8.423"/>
<path fill="#E5E5E5" stroke="#000000" stroke-width="2" d="M27.825,6.184h19.403L48.4,17.058H26.652L27.825,6.184z"/>
<path fill="#E5E5E5" stroke="#000000" stroke-width="2" d="M28.891,5.117h17.271v1.066H28.891V5.117z"/>
<path fill="#E5E5E5" stroke="#000000" stroke-width="2" d="M31.13,5.117h12.793V3.945H31.13V5.117z"/>
<path fill="#4C4C4C" stroke="#000000" stroke-width="2" d="M36.567,2.985h1.919l3.305,0.96h-8.742L36.567,2.985z"/>
</svg>
