<?xml version="1.0" encoding="utf-8"?>
<!-- Generator: Adobe Illustrator 14.0.0, SVG Export Plug-In . SVG Version: 6.00 Build 43363)  -->
<!DOCTYPE svg PUBLIC "-//W3C//DTD SVG 1.1//EN" "http://www.w3.org/Graphics/SVG/1.1/DTD/svg11.dtd">
<svg version="1.1" id="图层_1" xmlns="http://www.w3.org/2000/svg" xmlns:xlink="http://www.w3.org/1999/xlink" x="0px" y="0px"
	 width="54.583px" height="106.502px" viewBox="0 0 54.583 106.502" enable-background="new 0 0 54.583 106.502"
	 xml:space="preserve">
<path stroke="#000000" stroke-width="2" d="M26.332,99.466v0.959L8.955,102.45v-0.959L26.332,99.466z"/>
<path stroke="#000000" stroke-width="2" d="M28.464,99.466v0.959l17.058,2.025v-0.959L28.464,99.466z"/>
<path stroke="#000000" stroke-width="2" d="M26.332,30.278h1.919v70.147h-1.919V30.278z"/>
<path fill="#333333" stroke="#000000" stroke-width="2" d="M51.598,101.491v1.919H2.985v-1.919H51.598z"/>
<path fill="#CCCCCC" d="M4.904,7.996v32.516L23.24,62.9h8.315l18.229-22.388V7.996l-2.238-2.025H6.93L4.904,7.996z"/>
<path fill="#D1D1D1" d="M6.93,7.996v32.516L23.667,62.9h7.462L47.76,40.512V7.996l-1.813-2.025H8.741L6.93,7.996z"/>
<path fill="#D6D6D6" d="M8.955,7.996v32.516L24.093,62.9h6.61l15.244-22.388L45.735,7.996l-1.599-2.025H10.554L8.955,7.996z"/>
<path fill="#D9D9D9" d="M10.768,7.996v32.516L24.413,62.9h6.076l13.433-22.388V7.996l-1.599-2.025H12.366L10.768,7.996z"/>
<path fill="#DEDEDE" d="M12.793,7.996v32.516L24.626,62.9h5.438l11.833-22.388V7.996l-1.386-2.025H14.073L12.793,7.996z"/>
<path fill="#E3E3E3" d="M14.819,7.996v32.516L25.053,62.9h4.69l10.447-22.388V7.996l-1.279-2.025H15.778L14.819,7.996z"/>
<path fill="#E8E8E8" d="M16.631,7.996v32.516L25.48,62.9h3.838l8.848-22.388V7.996L37.1,5.971H17.59L16.631,7.996z"/>
<path fill="#EDEDED" d="M18.656,7.996v32.516L25.906,62.9h3.198l7.249-22.388L36.14,7.996l-0.853-2.025H19.403L18.656,7.996z"/>
<path fill="#F2F2F2" d="M20.469,7.996v32.516l5.65,22.388h2.559l5.649-22.388V7.996l-0.64-2.025H21.215L20.469,7.996z"/>
<path fill="#F5F5F5" d="M22.494,7.996v32.516L26.439,62.9h1.813l4.051-22.388V7.996l-0.426-2.025h-9.063L22.494,7.996z"/>
<path fill="#FAFAFA" d="M24.413,7.996v32.516L26.865,62.9h0.959l2.665-22.388V7.996l-0.426-2.025h-5.438L24.413,7.996z"/>
<path fill="#FFFFFF" d="M26.332,7.996v32.516L27.291,62.9h0.427l0.746-22.388V7.996l-0.213-2.025h-1.813L26.332,7.996z"/>
<path fill="none" stroke="#000000" stroke-width="2" d="M4.904,7.996v32.516L23.24,62.9h8.315l18.229-22.388V7.996l-2.238-2.025
	H6.93L4.904,7.996"/>
<path fill="#333333" stroke="#000000" stroke-width="2" d="M6.93,30.278h2.025v71.214H6.93V30.278z"/>
<path fill="#333333" stroke="#000000" stroke-width="2" d="M45.522,30.278h2.025v71.214h-2.025V30.278z"/>
<path fill="#333333" stroke="#000000" stroke-width="2" d="M45.522,40.512v2.025H8.955v-2.025H45.522z"/>
<path fill="#333333" stroke="#000000" stroke-width="2" d="M45.522,56.823v0.96H8.955v-0.96H45.522z"/>
<path fill="#CCCCCC" stroke="#000000" stroke-width="2" d="M10.981,4.905h32.622v1.066H10.981V4.905z"/>
<path fill="#333333" stroke="#000000" stroke-width="2" d="M14.179,4.905h26.332V3.946H14.179V4.905z"/>
<path fill="#333333" stroke="#000000" stroke-width="2" d="M16.204,3.946h5.011v-0.96h-5.011V3.946z"/>
<path fill="#333333" stroke="#000000" stroke-width="2" d="M33.475,3.946h5.011v-0.96h-5.011V3.946z"/>
</svg>
