<?xml version="1.0" encoding="utf-8"?>
<!-- Generator: Adobe Illustrator 14.0.0, SVG Export Plug-In . SVG Version: 6.00 Build 43363)  -->
<!DOCTYPE svg PUBLIC "-//W3C//DTD SVG 1.1//EN" "http://www.w3.org/Graphics/SVG/1.1/DTD/svg11.dtd">
<svg version="1.1" id="图层_1" xmlns="http://www.w3.org/2000/svg" xmlns:xlink="http://www.w3.org/1999/xlink" x="0px" y="0px"
	 width="54.8px" height="106.502px" viewBox="0 0 54.8 106.502" enable-background="new 0 0 54.8 106.502" xml:space="preserve">
<path fill="#4C4C4C" d="M7.57,5.757h2.665v4.584H7.57V5.757z"/>
<path fill="#4C4C4C" stroke="#000000" stroke-width="2" d="M13.647,13.22v4.584h0.746V13.22H13.647z"/>
<path fill="#194CB2" stroke="#000000" stroke-width="2" d="M5.545,15.031h3.838v66.312H5.545V15.031z"/>
<path fill="#00004C" d="M46.589,78.784h3.199v23.667h-3.199V78.784z"/>
<path fill="#00004C" d="M9.383,78.784h3.411v23.667H9.383V78.784z"/>
<path fill="#00004C" d="M46.589,95.628v3.412H12.794v-3.412H46.589z"/>
<path fill="#CCCCCC" d="M7.57,77.718V19.829l1.386-1.386l3.092-1.386l3.945-1.066l5.01-0.64l5.65-0.32h5.863l5.65,0.32l5.011,0.64
	l4.157,1.066l2.879,1.386l1.6,1.386v57.889H7.57z"/>
<path fill="#00197F" d="M7.57,77.718h44.243v3.625H7.57V77.718z"/>
<path fill="#00268C" d="M10.982,77.505h37.419v3.838H10.982V77.505z"/>
<path fill="#003399" d="M14.18,77.505h30.81v3.838H14.18V77.505z"/>
<path fill="#0D40A6" d="M17.592,77.505h23.987v3.838H17.592V77.505z"/>
<path fill="#194CB2" d="M21.003,77.505h17.164v3.838H21.003V77.505z"/>
<path fill="#2659BF" d="M24.415,77.505h10.554v3.838H24.415V77.505z"/>
<path fill="#3366CC" d="M27.933,77.718h3.518v3.625h-3.518V77.718z"/>
<path fill="none" stroke="#000000" stroke-width="2" d="M7.57,77.718h44.243v3.625H7.57V77.718"/>
<path fill="#D1D1D1" d="M9.383,77.505V19.19l1.386-1.173l2.665-1.173l3.838-0.853l4.584-0.746l5.011-0.214h5.437l5.224,0.214
	l4.585,0.746l3.624,0.853l2.878,1.173l1.387,1.173v58.315H9.383z"/>
<path fill="#D6D6D6" d="M11.195,77.505V18.869l1.173-1.065l2.665-1.173l3.412-0.853l4.051-0.533l4.797-0.214h4.798l4.584,0.214
	l4.264,0.533l3.412,0.853l2.451,1.173l1.174,1.065v58.636H11.195z"/>
<path fill="#D9D9D9" d="M13.007,77.505V18.444l1.173-0.96l2.239-1.065l2.985-0.64l3.838-0.533l4.265-0.214h4.371l4.265,0.214
	l3.625,0.533l3.197,0.64l2.026,1.065l1.173,0.96v59.062H13.007z"/>
<path fill="#DEDEDE" d="M14.82,77.505l0.213-59.488l0.853-0.959l1.919-0.854l2.772-0.64l3.305-0.319l3.838-0.214h3.731l3.838,0.214
	l3.412,0.319l2.665,0.64l2.026,0.854l0.959,0.959v59.488H14.82z"/>
<path fill="#E3E3E3" d="M16.845,77.505V17.59l0.747-0.746l1.599-0.853l2.452-0.427l2.985-0.319l3.305-0.214h3.305l3.519,0.214
	l2.771,0.319l2.452,0.427l1.6,0.853l0.959,0.746v59.915H16.845z"/>
<path fill="#E8E8E8" d="M18.658,77.505V17.271l0.746-0.853l1.386-0.427l2.025-0.64l2.452-0.106l2.985-0.214h2.878l2.772,0.214
	l2.559,0.106l2.132,0.64l1.386,0.427l0.746,0.853v60.234H18.658z"/>
<path fill="#EDEDED" d="M20.47,77.505V16.631l0.533-0.427l1.279-0.426l1.813-0.427l1.919-0.32h2.452h2.451h2.239l2.132,0.32
	l1.6,0.427l1.279,0.426l0.746,0.427v60.874H20.47z"/>
<path fill="#F2F2F2" d="M22.282,77.505V16.204l0.533-0.426l0.853-0.214l1.386-0.319l1.813-0.214h1.812h2.025h1.813l1.6,0.214
	l1.386,0.319l0.96,0.214l0.426,0.426v61.301H22.282z"/>
<path fill="#F5F5F5" d="M24.095,77.505V15.779l0.32-0.214l0.853-0.213l0.959-0.106l1.279-0.214h1.385h1.387h1.386l1.492,0.214
	l0.96,0.106l0.64,0.213l0.319,0.214v61.727H24.095z"/>
<path fill="#FAFAFA" d="M25.907,77.505V15.352l0.32-0.106h0.426l0.853-0.214h0.747h0.853h0.96h1.065h0.746l0.64,0.214h0.64
	l0.214,0.106v62.153H25.907z"/>
<path fill="#FFFFFF" d="M27.933,77.718V15.031h0.106h0.427h0.426h0.427h0.533h0.427h0.426h0.427h0.106h0.213v62.687H27.933z"/>
<path fill="none" stroke="#000000" stroke-width="2" d="M7.57,77.718V19.829l1.386-1.386l3.092-1.386l3.945-1.066l5.01-0.64
	l5.65-0.32h5.863l5.65,0.32l5.011,0.64l4.157,1.066l2.879,1.386l1.6,1.386v57.889H7.57"/>
<path fill="#00197F" d="M47.976,77.718h3.838v25.692h-3.838V77.718z"/>
<path fill="#3366CC" d="M47.976,77.718l2.025,1.813l1.813-1.813H47.976z"/>
<path fill="none" stroke="#000000" stroke-width="2" d="M47.976,77.718h3.838v25.692h-3.838V77.718"/>
<path fill="#00197F" d="M7.57,77.718h3.625v25.692H7.57V77.718z"/>
<path fill="#3366CC" d="M7.57,77.718l1.813,1.813l1.812-1.813H7.57z"/>
<path fill="none" stroke="#000000" stroke-width="2" d="M7.57,77.718h3.625v25.692H7.57V77.718"/>
<path fill="#00197F" d="M47.976,96.055v3.731H11.195v-3.731H47.976z"/>
<path fill="#CCCCCC" stroke="#000000" stroke-width="2" d="M2.986,13.966h7.249v1.065H2.986V13.966z"/>
<path fill="#7F7F7F" d="M10.235,13.22V2.985h7.356V13.22H10.235z"/>
<path fill="#8C8C8C" d="M10.555,13.22V2.985h6.717V13.22H10.555z"/>
<path fill="#999999" d="M10.982,13.22V2.985h6.077V13.22H10.982z"/>
<path fill="#A6A6A6" d="M11.195,13.22V2.985h5.438V13.22H11.195z"/>
<path fill="#B2B2B2" d="M11.622,13.22V2.985h4.584V13.22H11.622z"/>
<path fill="#BFBFBF" d="M11.834,13.22V2.985h4.158V13.22H11.834z"/>
<path fill="#CCCCCC" d="M12.154,13.22V2.985h3.519V13.22H12.154z"/>
<path fill="#D9D9D9" d="M12.581,13.22V2.985h2.771V13.22H12.581z"/>
<path fill="#E5E5E5" d="M12.794,13.22V2.985h2.239V13.22H12.794z"/>
<path fill="#F2F2F2" d="M13.221,13.22V2.985h1.386V13.22H13.221z"/>
<path fill="#FFFFFF" d="M13.647,13.22V2.985h0.746V13.22H13.647z"/>
<path fill="none" stroke="#000000" stroke-width="2" d="M10.235,13.22V2.985h7.356V13.22H10.235"/>
<path fill="#4C4C4C" stroke="#000000" stroke-width="2" d="M8.423,9.382l-2.026,4.584h0.747l2.025-4.584H8.423z"/>
</svg>
