<?xml version="1.0" encoding="utf-8"?>
<!-- Generator: Adobe Illustrator 14.0.0, SVG Export Plug-In . SVG Version: 6.00 Build 43363)  -->
<!DOCTYPE svg PUBLIC "-//W3C//DTD SVG 1.1//EN" "http://www.w3.org/Graphics/SVG/1.1/DTD/svg11.dtd">
<svg version="1.1" id="图层_1" xmlns="http://www.w3.org/2000/svg" xmlns:xlink="http://www.w3.org/1999/xlink" x="0px" y="0px"
	 width="127.721px" height="106.502px" viewBox="0 0 127.721 106.502" enable-background="new 0 0 127.721 106.502"
	 xml:space="preserve">
<path fill="#E5E5E5" stroke="#000000" stroke-width="2" d="M4.986,9.591h117.365l0.256,93.329h-17.771v-9.205H22.502v9.205H4.986
	V9.591z"/>
<path fill="#CCCCCC" d="M123.63,38.357l0.384,10.867v11.123L123.63,70.83l-1.022,9.717l-1.406,7.927l-1.662,5.497l-2.046,2.94H10.1
	l-2.046-2.94l-1.662-5.497l-1.406-7.927L3.964,70.83L3.58,60.347V49.224l0.384-10.867l1.022-9.589l1.406-7.671L8.054,15.6
	l2.046-2.94h107.393l2.046,2.685l1.662,5.498l1.406,7.926L123.63,38.357z"/>
<path fill="#D1D1D1" d="M123.63,39.891l0.384,9.589v10.355l-0.384,9.589l-1.022,8.949l-1.151,7.16l-1.789,5.113l-1.662,2.686H9.589
	l-1.662-2.686l-1.79-5.113l-1.15-7.16L3.964,69.68L3.58,59.835V49.48l0.384-9.589l1.022-8.949l1.15-7.159l1.79-5.114l1.662-2.685
	h108.416l1.662,2.685l1.789,5.114l1.151,7.159L123.63,39.891z"/>
<path fill="#D6D6D6" d="M123.63,41.041l0.384,8.95v9.333l-0.384,8.949l-0.767,7.927l-1.151,6.52l-1.534,4.476l-1.406,2.429H8.822
	l-1.407-2.429L5.881,82.72L4.73,76.2l-0.767-7.927L3.58,59.324v-9.333l0.384-8.95l0.767-7.926l1.15-6.521l1.534-4.603l1.407-2.302
	h109.949l1.406,2.302l1.534,4.603l1.151,6.521L123.63,41.041z"/>
<path fill="#D9D9D9" d="M123.63,42.575l0.384,7.927v8.438l-0.384,7.927l-0.767,7.159l-1.023,5.753l-1.15,4.092l-1.406,2.173H8.31
	l-1.406-2.173l-1.15-4.092L4.73,74.027l-0.767-7.159L3.58,58.941v-8.438l0.384-7.927l0.767-7.287l1.023-5.753l1.15-4.091
	l1.406-2.174h110.973l1.406,2.174l1.15,4.091l1.023,5.753L123.63,42.575z"/>
<path fill="#DEDEDE" d="M123.63,43.983l0.384,6.903v7.543l-0.384,6.904l-0.512,6.52l-1.022,5.114l-0.895,3.836l-1.279,1.662H7.671
	l-1.278-1.662l-0.895-3.836l-1.023-5.114l-0.511-6.52L3.58,58.429v-7.543l0.384-6.903l0.511-6.521l1.023-5.114l0.895-3.58
	l1.278-2.173h112.251l1.279,1.918l0.895,3.835l1.022,5.114L123.63,43.983z"/>
<path fill="#E3E3E3" d="M123.885,45.133l0.128,6.265v6.521l-0.128,6.264l-0.512,5.498l-1.022,4.603l-0.896,3.068l-1.022,1.79H7.16
	l-1.023-1.79l-0.895-3.324L4.474,69.68l-0.767-5.498L3.58,57.918v-6.521l0.128-6.265l0.767-5.498l0.768-4.347l0.895-3.324
	l1.023-1.662h113.273l1.022,1.662l0.896,3.324l1.022,4.347L123.885,45.133z"/>
<path fill="#E8E8E8" d="M123.885,46.667l0.128,5.241v5.498l-0.128,5.369l-0.512,4.475l-0.511,4.092l-1.023,2.685l-0.639,1.406H6.648
	l-0.895-1.406l-0.768-2.685l-0.767-3.836l-0.512-4.73L3.58,57.406v-5.498l0.128-5.241l0.512-4.858l0.767-3.836l0.768-2.685
	l0.895-1.406h114.553l0.639,1.406l1.023,2.685l0.511,4.092L123.885,46.667z"/>
<path fill="#EDEDED" d="M123.885,48.073l0.128,4.347v4.475l-0.128,4.347l-0.256,3.836l-0.512,3.452l-0.767,2.173l-0.64,1.15H5.881
	l-0.639-1.15L4.73,68.53l-0.767-3.196l-0.256-4.092L3.58,56.895V52.42l0.128-4.347l0.256-3.836l0.767-3.451l0.512-2.174l0.639-1.15
	h115.831l0.64,1.15l0.767,2.174l0.512,3.451L123.885,48.073z"/>
<path fill="#F2F2F2" d="M123.885,49.48l0.128,3.324v3.58l-0.128,3.451l-0.256,3.068l-0.256,2.686l-0.511,1.917l-0.512,0.768H5.498
	L4.73,67.506l-0.511-1.917l-0.256-2.686l-0.256-2.813L3.58,56.384v-3.58l0.128-3.324l0.256-3.196l0.256-2.557l0.511-1.662
	l0.768-1.023h116.854l0.512,1.023l0.511,1.662l0.256,2.557L123.885,49.48z"/>
<path fill="#F5F5F5" d="M124.013,50.63v2.685V56v2.557l-0.128,2.174l-0.256,2.045l-0.512,1.406l-0.255,0.64H4.73l-0.256-0.64
	l-0.511-1.406l-0.256-2.045v-2.174L3.58,56v-2.686l0.128-2.685v-2.173l0.256-1.79l0.511-1.534l0.256-0.64h118.133l0.255,0.64
	l0.512,1.534l0.256,1.79L124.013,50.63z"/>
<path fill="#FAFAFA" d="M124.013,52.164v1.662v1.662v1.662l-0.128,1.406v1.278l-0.256,0.896v0.511H4.219l-0.256-0.511l-0.256-0.896
	v-1.278L3.58,57.151v-1.662v-1.662v-1.662l0.128-1.534v-1.15l0.256-1.022l0.256-0.384h119.41v0.384l0.256,1.022v1.15L124.013,52.164
	z"/>
<path fill="#FFFFFF" d="M124.013,53.571v0.768v0.639v0.768v0.64v0.767v0.256v0.256H3.58v-0.256v-0.256v-0.767v-0.64v-0.768v-0.639
	v-0.768v-0.767V52.42v-0.512v-0.255h120.434v0.255v0.512v0.384V53.571z"/>
<path fill="none" stroke="#000000" stroke-width="2" d="M123.63,38.357l0.384,10.867v11.123L123.63,70.83l-1.022,9.717l-1.406,7.927
	l-1.662,5.497l-2.046,2.94H10.1l-2.046-2.94l-1.662-5.497l-1.406-7.927L3.964,70.83L3.58,60.347V49.224l0.384-10.867l1.022-9.589
	l1.406-7.671L8.054,15.6l2.046-2.94h107.393l2.046,2.685l1.662,5.498l1.406,7.926L123.63,38.357"/>
<path fill="#F5F5F5" d="M9.589,63.671h18.026v39.249H9.589V63.671z"/>
<path fill="none" stroke="#000000" stroke-width="2" d="M9.589,63.671v39.249h18.026V63.671"/>
<path fill="#F5F5F5" d="M54.719,63.671h18.154v39.249H54.719V63.671z"/>
<path fill="none" stroke="#000000" stroke-width="2" d="M54.719,63.671v39.249h18.154V63.671"/>
<path fill="#F5F5F5" d="M99.977,63.671h18.027v39.249H99.977V63.671z"/>
<path fill="none" stroke="#000000" stroke-width="2" d="M99.977,63.671v39.249h18.027V63.671"/>
<path fill="#E5E5E5" stroke="#000000" stroke-width="2" d="M51.651,8.057h24.035v1.534H51.651V8.057z"/>
<path fill="#E5E5E5" stroke="#000000" stroke-width="2" d="M59.322,3.582h8.949v4.475h-8.949V3.582z"/>
<path fill="none" stroke="#000000" stroke-width="2" d="M65.331,8.057V3.582"/>
</svg>
