<?xml version="1.0" encoding="utf-8"?>
<!-- Generator: Adobe Illustrator 14.0.0, SVG Export Plug-In . SVG Version: 6.00 Build 43363)  -->
<!DOCTYPE svg PUBLIC "-//W3C//DTD SVG 1.1//EN" "http://www.w3.org/Graphics/SVG/1.1/DTD/svg11.dtd">
<svg version="1.1" id="图层_1" xmlns="http://www.w3.org/2000/svg" xmlns:xlink="http://www.w3.org/1999/xlink" x="0px" y="0px"
	 width="144.749px" height="100.555px" viewBox="0 0 144.749 100.555" enable-background="new 0 0 144.749 100.555"
	 xml:space="preserve">
<path stroke="#000000" stroke-width="2" d="M12.461,16.808h119.682l2.753,2.753l5.65,26.08v11.882l-5.65,26.08l-2.753,2.753H12.461
	l-2.753-2.753l-5.65-26.08V45.641l5.65-26.08L12.461,16.808z"/>
<path fill="#333333" d="M56.654,4.057H87.95v1.304H56.654V4.057z"/>
<path fill="#CCCCCC" d="M12.461,16.808h119.682l2.753,2.753l5.65,25.646v11.446l-5.65,25.646l-2.753,2.753H12.461l-2.753-2.753
	l-5.65-25.646V45.206l5.65-25.646L12.461,16.808z"/>
<path fill="#D1D1D1" d="M12.751,19.561h119.392l2.753,2.753l5.65,23.327v10.433l-5.65,23.473l-2.753,2.753H12.751l-3.043-2.753
	l-5.65-23.473V45.641l5.65-23.327L12.751,19.561z"/>
<path fill="#D6D6D6" d="M12.751,22.458h119.392l2.753,2.318l5.65,21.444v9.272l-5.65,21.589l-2.753,2.174H12.751l-3.043-2.174
	l-5.65-21.589v-9.272l5.65-21.444L12.751,22.458z"/>
<path fill="#D9D9D9" d="M12.751,25.211h119.392l2.753,2.174l5.65,19.125v8.694l-5.65,19.125l-2.753,2.174H12.751l-3.043-2.174
	l-5.65-19.125V46.51l5.65-19.125L12.751,25.211z"/>
<path fill="#DEDEDE" d="M12.751,27.964h119.392l2.753,1.884l5.65,17.242v7.68l-5.65,16.807l-2.753,1.884H12.751l-3.043-1.884
	L4.058,54.77v-7.68l5.65-17.242L12.751,27.964z"/>
<path fill="#E3E3E3" d="M12.751,31.007h119.392l2.753,1.594l5.65,15.068v6.521l-5.65,14.924l-2.753,1.739H12.751l-3.043-1.739
	L4.058,54.19v-6.521l5.65-15.068L12.751,31.007z"/>
<path fill="#E8E8E8" d="M12.751,33.76h119.392l2.753,1.304l5.65,13.04v5.507l-5.65,12.75l-2.753,1.449H12.751l-3.043-1.449
	l-5.65-12.75v-5.507l5.65-13.04L12.751,33.76z"/>
<path fill="#EDEDED" d="M12.751,36.657h119.392l2.753,1.159l5.65,10.577v4.927l-5.65,10.577l-2.753,1.159H12.751l-3.043-1.159
	l-5.65-10.577v-4.927l5.65-10.577L12.751,36.657z"/>
<path fill="#F2F2F2" d="M12.751,39.41h119.392l2.753,1.159l5.65,8.404v3.767l-5.65,8.549l-2.753,1.015H12.751l-3.043-1.015
	l-5.65-8.549v-3.767l5.65-8.404L12.751,39.41z"/>
<path fill="#F5F5F5" d="M12.751,42.453h119.392l2.753,0.58l5.65,6.52v2.753l-5.65,6.521l-2.753,0.579H12.751l-3.043-0.579
	l-5.65-6.521v-2.753l5.65-6.52L12.751,42.453z"/>
<path fill="#FAFAFA" d="M12.751,45.206h119.392l2.753,0.435l5.65,4.492v1.594l-5.65,4.347l-2.753,0.579H12.751l-3.043-0.579
	l-5.65-4.347v-1.594l5.65-4.492L12.751,45.206z"/>
<ellipse fill="#FFFFFF" cx="72.302" cy="50.857" rx="68.244" ry="2.753"/>
<path fill="none" stroke="#000000" stroke-width="2" d="M12.461,16.808h119.682l2.753,2.753l5.65,25.646v11.446l-5.65,25.646
	l-2.753,2.753H12.461l-2.753-2.753l-5.65-25.646V45.206l5.65-25.646L12.461,16.808"/>
<path fill="#003333" d="M15.504,56.653H129.1v28.399H15.504V56.653z"/>
<path fill="#0A3D3D" d="M15.504,56.653H129.1v26.081H15.504V56.653z"/>
<path fill="#124545" d="M15.504,56.653H129.1v23.618H15.504V56.653z"/>
<path fill="#1C4F4F" d="M15.504,56.653H129.1v21.589H15.504V56.653z"/>
<path fill="#265959" d="M15.504,56.653H129.1v19.126H15.504V56.653z"/>
<path fill="#2E6161" d="M15.504,56.653H129.1v16.663H15.504V56.653z"/>
<path fill="#386B6B" d="M15.504,56.653H129.1v14.489H15.504V56.653z"/>
<path fill="#407373" d="M15.504,56.653H129.1v12.026H15.504V56.653z"/>
<path fill="#4A7D7D" d="M15.504,56.653H129.1v9.708H15.504V56.653z"/>
<path fill="#548787" d="M15.504,56.653H129.1v7.245H15.504V56.653z"/>
<path fill="#5C8F8F" d="M15.504,56.653H129.1v5.217H15.504V56.653z"/>
<path fill="#669999" d="M15.504,56.653H129.1v2.753H15.504V56.653z"/>
<path fill="#B2E5E5" d="M26.661,16.808h8.693v45.496h-8.693V16.808z"/>
<path fill="#ABDEDE" d="M26.95,16.808h8.404v38.976H26.95V16.808z"/>
<path fill="#A6D9D9" d="M26.95,16.808h8.404v32.455H26.95V16.808z"/>
<path fill="#9ED1D1" d="M26.95,16.808h8.404v29.123H26.95V16.808z"/>
<path fill="#96C9C9" d="M26.95,16.808h8.404V39.7H26.95V16.808z"/>
<path fill="#8FC2C2" d="M26.95,16.808h8.404v20.72H26.95V16.808z"/>
<path fill="#8ABDBD" d="M26.95,16.808h8.404v18.256H26.95V16.808z"/>
<path fill="#82B5B5" d="M26.95,16.808h8.404v15.793H26.95V16.808z"/>
<path fill="#7AADAD" d="M26.95,16.808h8.404v13.33H26.95V16.808z"/>
<path fill="#73A6A6" d="M26.95,16.808h8.404v11.156H26.95V16.808z"/>
<path fill="#6EA1A1" d="M26.95,16.808h8.404v8.693H26.95V16.808z"/>
<path fill="#669999" d="M26.661,16.808h8.693v6.52h-8.693V16.808z"/>
<path fill="none" stroke="#000000" stroke-width="2" d="M26.661,16.808h8.693v45.496h-8.693V16.808"/>
<path fill="#669999" stroke="#000000" stroke-width="2" d="M26.661,62.304l-2.754,34.194h14.2l-2.753-34.194H26.661z"/>
<path fill="#B2E5E5" d="M109.249,16.808h8.404v45.496h-8.404V16.808z"/>
<path fill="#ABDEDE" d="M109.249,16.808h8.693v38.976h-8.693V16.808z"/>
<path fill="#A6D9D9" d="M109.249,16.808h8.693v32.455h-8.693V16.808z"/>
<path fill="#9ED1D1" d="M109.249,16.808h8.693v29.123h-8.693V16.808z"/>
<path fill="#96C9C9" d="M109.249,16.808h8.693V39.7h-8.693V16.808z"/>
<path fill="#8FC2C2" d="M109.249,16.808h8.693v20.72h-8.693V16.808z"/>
<path fill="#8ABDBD" d="M109.249,16.808h8.693v18.256h-8.693V16.808z"/>
<path fill="#82B5B5" d="M109.249,16.808h8.693v15.793h-8.693V16.808z"/>
<path fill="#7AADAD" d="M109.249,16.808h8.693v13.33h-8.693V16.808z"/>
<path fill="#73A6A6" d="M109.249,16.808h8.693v11.156h-8.693V16.808z"/>
<path fill="#6EA1A1" d="M109.249,16.808h8.693v8.693h-8.693V16.808z"/>
<path fill="#669999" d="M109.249,16.808h8.404v6.52h-8.404V16.808z"/>
<path fill="none" stroke="#000000" stroke-width="2" d="M109.249,16.808h8.404v45.496h-8.404V16.808"/>
<path fill="#669999" stroke="#000000" stroke-width="2" d="M109.249,62.304l-2.753,34.194h14.199l-3.042-34.194H109.249z"/>
<path fill="#CCCCCC" d="M89.834,4.781v12.896l-1.015,0.725l-2.463,1.159l-3.333,0.869l-3.767,0.435l-4.347,0.29h-4.637l-4.347-0.29
	l-4.058-0.435l-3.042-0.869l-2.464-1.159l-1.159-0.725V4.781H89.834z"/>
<path fill="#D4D4D4" d="M87.516,4.781v12.605l-1.159,1.015l-1.884,1.159l-2.753,0.435l-3.478,0.869H74.62h-4.057h-3.623
	l-3.478-0.869l-2.753-0.435l-1.883-1.159l-1.159-1.015V4.781H87.516z"/>
<path fill="#DEDEDE" d="M84.763,4.781v12.605l-0.869,1.015l-1.595,1.159l-2.173,0.435l-2.753,0.869H74.04h-2.897H67.81l-2.753-0.869
	l-2.173-0.435l-1.594-1.159l-0.869-1.015V4.781H84.763z"/>
<path fill="#E5E5E5" d="M82.01,4.781v12.605l-0.58,1.015l-1.304,1.159l-1.739,0.435l-2.173,0.869h-2.463h-2.464h-2.463l-2.173-0.869
	l-1.595-0.435l-1.304-1.159l-0.579-1.015V4.781H82.01z"/>
<path fill="#EDEDED" d="M79.546,4.781v12.605l-0.579,1.015l-0.725,1.159l-1.449,0.435l-1.594,0.869h-1.738h-1.884h-1.594
	l-1.594-0.869l-1.449-0.435l-0.725-1.159l-0.579-1.015V4.781H79.546z"/>
<path fill="#F7F7F7" d="M76.793,4.781v12.605l-0.289,1.015l-0.58,1.159l-0.725,0.435l-0.869,0.869h-1.014h-1.449h-0.725
	l-1.159-0.869l-0.869-0.435l-0.435-1.159l-0.29-1.015V4.781H76.793z"/>
<path fill="#FFFFFF" d="M74.33,4.781v12.896l-0.29,0.725l-0.289,1.159l-0.29,0.869l-0.145,0.435l-0.58,0.29h-0.29l-0.579-0.29
	l-0.29-0.435l-0.435-0.869v-1.159l-0.29-0.725V4.781H74.33z"/>
<path fill="none" stroke="#000000" stroke-width="2" d="M55.204,16.808V4.781h34.63v12.026"/>
</svg>
