<?xml version="1.0" encoding="utf-8"?>
<!-- Generator: Adobe Illustrator 14.0.0, SVG Export Plug-In . SVG Version: 6.00 Build 43363)  -->
<!DOCTYPE svg PUBLIC "-//W3C//DTD SVG 1.1//EN" "http://www.w3.org/Graphics/SVG/1.1/DTD/svg11.dtd">
<svg version="1.1" id="图层_1" xmlns="http://www.w3.org/2000/svg" xmlns:xlink="http://www.w3.org/1999/xlink" x="0px" y="0px"
	 width="79.74px" height="106.502px" viewBox="0 0 79.74 106.502" enable-background="new 0 0 79.74 106.502" xml:space="preserve">
<path fill="#990000" stroke="#000000" stroke-width="2" d="M38.697,71.108h2.239v27.717h-2.239V71.108z"/>
<path fill="#990000" stroke="#000000" stroke-width="2" d="M5.223,92.961l2.346-1.173l4.584-1.065l6.503-0.746l7.782-0.64
	l8.848-0.32h9.062l8.848,0.32l7.89,0.64l6.609,0.746l4.37,1.065l2.452,1.173v2.452l-2.452-1.173l-4.37-1.066l-6.609-0.959
	l-7.89-0.427l-8.848-0.426h-9.062l-8.848,0.426l-7.782,0.427l-6.503,0.959L7.569,94.24l-2.346,1.173V92.961z"/>
<path fill="#CCCCCC" d="M2.985,8.744v36.991l30.169,25.372h13.432l30.169-25.372V8.744l-3.518-2.346H6.183L2.985,8.744z"/>
<path fill="#D1D1D1" d="M6.183,8.744v36.991l27.504,25.372h12.259l27.718-25.372V8.744l-3.198-2.346H9.168L6.183,8.744z"/>
<path fill="#D6D6D6" d="M9.382,8.744v36.991l24.945,25.372H45.52l24.945-25.372V8.744l-2.771-2.346H11.939L9.382,8.744z"/>
<path fill="#D9D9D9" d="M12.579,8.744v36.991l22.28,25.372h10.128l22.28-25.372V8.744l-2.665-2.346H15.031L12.579,8.744z"/>
<path fill="#DEDEDE" d="M15.671,8.744l0.106,36.991l19.722,25.372h8.849l19.722-25.372V8.744l-2.238-2.346H17.802L15.671,8.744z"/>
<path fill="#E3E3E3" d="M18.975,8.744v36.991l17.163,25.372h7.676l17.057-25.372V8.744l-2.025-2.346H20.894L18.975,8.744z"/>
<path fill="#E8E8E8" d="M22.28,8.744v36.991l14.392,25.372h6.503l14.392-25.372V8.744l-1.599-2.346H23.88L22.28,8.744z"/>
<path fill="#EDEDED" d="M25.265,8.744l0.213,36.991l11.833,25.372h5.224l11.833-25.372V8.744l-1.173-2.346H26.651L25.265,8.744z"/>
<path fill="#F2F2F2" d="M28.464,8.744v36.991l9.487,25.372h3.944l9.274-25.372V8.744l-0.959-2.346H29.423L28.464,8.744z"/>
<path fill="#F5F5F5" d="M31.662,8.744v36.991l6.929,25.372h2.771l6.823-25.372V8.744l-0.853-2.346H32.514L31.662,8.744z"/>
<path fill="#FAFAFA" d="M34.859,8.744v36.991l4.052,25.372h2.025l4.051-25.372V8.744l-0.64-2.346h-8.849L34.859,8.744z"/>
<path fill="#FFFFFF" d="M38.165,8.744v36.991l1.386,25.372h0.532l1.706-25.372V8.744l-0.213-2.346h-3.198L38.165,8.744z"/>
<path fill="none" stroke="#000000" stroke-width="2" d="M2.985,8.744v36.991l30.169,25.372h13.432l30.169-25.372V8.744l-3.518-2.346
	H6.183L2.985,8.744"/>
<path fill="#CCCCCC" stroke="#000000" stroke-width="2" d="M13.006,5.332h53.622v1.066H13.006V5.332z"/>
<path fill="#333333" stroke="#000000" stroke-width="2" d="M18.016,5.332h43.601V4.16H18.016V5.332z"/>
<path fill="#333333" stroke="#000000" stroke-width="2" d="M34.646,4.16h10.128V2.988H34.646V4.16z"/>
<path fill="#BF2600" stroke="#000000" stroke-width="2" d="M5.223,43.39h2.132v60.019H5.223V43.39z"/>
<path fill="#BF2600" stroke="#000000" stroke-width="2" d="M72.278,43.39h2.238v60.019h-2.238V43.39z"/>
<path fill="#BF2600" stroke="#000000" stroke-width="2" d="M74.516,95.413l-2.452,1.173l-4.584,1.065l-6.396,0.746l-7.89,0.64
	l-8.848,0.427h-9.062l-8.848-0.427l-7.782-0.64l-6.503-0.746l-4.584-1.065l-2.346-1.173v-2.452l2.346,1.279l4.584,1.173l6.503,0.746
	l7.782,0.64l8.848,0.213h9.062l8.848-0.213l7.89-0.64l6.396-0.746l4.584-1.173l2.452-1.279V95.413z"/>
<path fill="#BF2600" stroke="#000000" stroke-width="2" d="M72.064,48.614v2.346H7.355v-2.346H72.064z"/>
</svg>
