<?xml version="1.0" encoding="utf-8"?>
<!-- Generator: Adobe Illustrator 14.0.0, SVG Export Plug-In . SVG Version: 6.00 Build 43363)  -->
<!DOCTYPE svg PUBLIC "-//W3C//DTD SVG 1.1//EN" "http://www.w3.org/Graphics/SVG/1.1/DTD/svg11.dtd">
<svg version="1.1" id="图层_1" xmlns="http://www.w3.org/2000/svg" xmlns:xlink="http://www.w3.org/1999/xlink" x="0px" y="0px"
	 width="144.749px" height="41.292px" viewBox="0 0 144.749 41.292" enable-background="new 0 0 144.749 41.292"
	 xml:space="preserve">
<path fill="#00FFFF" stroke="#000000" stroke-width="2" d="M4.062,4.057h136.48l-3.767,1.159l-3.188,1.883l-1.159,3.767
	l-2.318,3.333l-3.767,1.883l-2.608,3.767l-2.897,3.622l-3.043,2.608l-3.477,1.448l-3.768,1.739l-3.911,1.014l-4.057,1.159
	l-3.912,1.739l-3.333,2.172l-4.346,0.87l-4.058,0.29l-5.65,0.145L76.649,36.8l-4.637,0.29h-1.014l-1.159,0.146H68.68l-5.36-0.291
	l-4.492-0.869l-4.636-1.594l-4.347-1.448l-4.057-1.159l-3.912-1.014l-3.912-0.436l-4.636-0.289l-3.768-1.594L25.939,25.5
	l-2.753-2.897l-3.188-2.463l-2.897-2.897l-2.897-3.042l-1.738-3.477L8.843,8.113L5.221,4.926L4.062,4.057z"/>
</svg>
