<?xml version="1.0" encoding="utf-8"?>
<!-- Generator: Adobe Illustrator 14.0.0, SVG Export Plug-In . SVG Version: 6.00 Build 43363)  -->
<!DOCTYPE svg PUBLIC "-//W3C//DTD SVG 1.1//EN" "http://www.w3.org/Graphics/SVG/1.1/DTD/svg11.dtd">
<svg version="1.1" id="图层_1" xmlns="http://www.w3.org/2000/svg" xmlns:xlink="http://www.w3.org/1999/xlink" x="0px" y="0px"
	 width="144.749px" height="41.588px" viewBox="0 0 144.749 41.588" enable-background="new 0 0 144.749 41.588"
	 xml:space="preserve">
<path fill="#00FFFF" stroke="#000000" stroke-width="2" d="M4.057,4.058h136.49l-3.768,1.159l-3.188,1.884l-1.159,3.767
	l-2.318,3.333l-3.768,1.884l-2.607,3.767l-2.898,3.623l-3.042,2.607l-3.478,1.449l-3.768,1.739l-3.912,1.014l-4.057,1.159
	l-3.912,1.739l-3.333,2.173l-4.347,0.869l-4.058,0.29l-5.65,0.145l-4.637,0.146l-4.637,0.29h-1.014l-1.159,0.145H68.68l-5.361-0.29
	l-4.492-0.869l-4.636-1.594l-4.348-1.449l-4.057-1.159l-3.912-1.014l-3.912-0.435l-4.637-0.29l-3.768-1.594l-3.622-3.043
	l-2.753-2.898l-3.188-2.463l-2.897-2.897l-2.898-3.043l-1.738-3.478L8.838,8.115L5.216,4.927L4.057,4.058z"/>
<path fill="none" stroke="#000000" stroke-width="2" d="M36.803,30.284l-0.435-1.014l-0.725-1.305l-0.579-1.304l-0.436-1.739
	l-0.435-1.883l-0.289-1.159v-1.159l-0.146-1.159v-0.87l0.146-1.883l0.435-1.449l0.289-1.449l0.436-1.304l0.435-1.449l0.435-1.449
	l0.145-0.724v0.724v1.449l-0.145,1.449l-0.146,1.304l-0.145,1.305l-0.145,1.883l0.145,1.305l0.435,1.304l0.29,1.739l0.29,1.158
	l0.435,1.159l0.435,1.305l0.29,1.304v0.725l0.145,0.725l-0.145,0.725l-0.146,0.869l-0.145,0.869"/>
<path fill="none" stroke="#000000" stroke-width="2" d="M43.178,31.009l0.435-1.594l0.29-1.594v-2.174l0.146-1.159v-0.869
	l-0.29-1.738l-0.29-1.594l-0.29-1.449l-0.579-1.304l-0.435-1.305l-0.29-1.449l-0.145-0.869l-0.146,0.725v0.725v0.579v0.58
	l0.29,1.738l0.145,1.449l0.29,1.594l0.146,1.884l-0.29,1.594l-0.29,1.594v1.594v1.739l0.29,1.014l0.29,0.29"/>
<path fill="none" stroke="#000000" stroke-width="2" d="M98.673,33.182l-0.58-1.015l-0.579-1.304l-0.58-1.305l-0.435-1.738
	l-0.435-1.884l-0.29-1.304l-0.145-1.015V22.46v-1.014l0.145-1.739l0.435-1.594l0.29-1.304l0.435-1.305l0.435-1.448l0.435-1.449
	l0.146-0.725v0.725l0.145,1.449l-0.145,1.304v1.304l-0.146,2.028l-0.145,1.884l0.145,1.305l0.146,1.304l0.435,1.594l0.869,1.594
	l0.435,1.159l0.58,1.159l0.145,0.58v0.724v0.725l-0.29,1.739"/>
<path fill="#00FFFF" stroke="#000000" stroke-width="2" d="M66.651,34.486l-4.491-2.753h-3.768l-2.318,2.173l1.159,1.739
	l4.492,1.159l4.347-0.146L66.651,34.486z"/>
<path fill="#00FFFF" stroke="#000000" stroke-width="2" d="M76.504,35.355l-3.478-1.449h-3.622l-2.754,1.449l0.58,1.449l1.449,0.579
	l6.375-0.579L76.504,35.355z"/>
<path fill="#00FFFF" stroke="#000000" stroke-width="2" d="M97.224,33.906l-0.725-0.724l-4.202-0.725L89.4,33.906v1.449l1.448,0.725
	l4.202-0.725L97.224,33.906z"/>
<circle fill="#00FFFF" stroke="#000000" stroke-width="2" cx="110.264" cy="19.996" r="1.014"/>
<circle fill="#00FFFF" stroke="#000000" stroke-width="2" cx="110.264" cy="15.795" r="1.015"/>
<circle fill="#00FFFF" stroke="#000000" stroke-width="2" cx="110.264" cy="11.448" r="1.015"/>
<circle fill="#00FFFF" stroke="#000000" stroke-width="2" cx="110.264" cy="24.198" r="1.014"/>
<path fill="#00FFFF" stroke="#000000" stroke-width="2" d="M109.105,27.096l-0.579,0.869l-2.753,0.725l-2.608,1.449l-0.29,0.869
	l-1.448-1.884l0.869,0.58l3.043-2.318l2.753-0.725L109.105,27.096z"/>
<path fill="none" stroke="#000000" stroke-width="2" d="M104.758,30.429l0.29-1.449l1.738,1.014"/>
<path fill="none" stroke="#000000" stroke-width="2" d="M106.062,30.139l0.436-1.594l1.738,1.014"/>
<path fill="none" stroke="#000000" stroke-width="2" d="M107.511,29.705l0.29-1.449l1.738,0.869"/>
<circle fill="#00FFFF" stroke="#000000" stroke-width="2" cx="107.656" cy="26.517" r="0.435"/>
<circle fill="#00FFFF" stroke="#000000" stroke-width="2" cx="107.221" cy="27.096" r="0.435"/>
<circle fill="#00FFFF" stroke="#000000" stroke-width="2" cx="107.366" cy="26.807" r="0.145"/>
<circle fill="#00FFFF" stroke="#000000" stroke-width="2" cx="107.801" cy="26.227" r="0.29"/>
</svg>
