<?xml version="1.0" encoding="utf-8"?>
<!-- Generator: Adobe Illustrator 14.0.0, SVG Export Plug-In . SVG Version: 6.00 Build 43363)  -->
<!DOCTYPE svg PUBLIC "-//W3C//DTD SVG 1.1//EN" "http://www.w3.org/Graphics/SVG/1.1/DTD/svg11.dtd">
<svg version="1.1" id="图层_1" xmlns="http://www.w3.org/2000/svg" xmlns:xlink="http://www.w3.org/1999/xlink" x="0px" y="0px"
	 width="59.378px" height="106.502px" viewBox="0 0 59.378 106.502" enable-background="new 0 0 59.378 106.502"
	 xml:space="preserve">
<path fill="#999999" d="M44.347,63.645v7.356h10.447V72.6h1.6V62.153h-1.6v1.492H44.347z"/>
<path fill="#B2B2B2" d="M44.347,64.711v0.64l-0.106,0.64v0.64v1.919l0.106,1.279h1.919h1.279h4.584h1.386h1.279v1.065v0.107h0.213
	h0.96h0.213h0.214v-0.533l-0.107-1.279v-3.731l0.107-1.386v-0.427H56.18h-0.213h-0.214h-0.959v1.066h-2.025H51.49h-4.584h-1.279
	H44.347z"/>
<path fill="#CCCCCC" d="M44.347,65.884v2.878h10.447v0.64h1.6v-4.157h-1.6v0.64H44.347z"/>
<path fill="none" stroke="#000000" stroke-width="2" d="M44.347,63.645v7.356h10.447V72.6h1.6V62.153h-1.6v1.492H44.347"/>
<path fill="none" stroke="#000000" stroke-width="2" d="M54.794,71.001v-7.356"/>
<path fill="#999999" d="M32.3,80.489h-7.355v10.447h-1.599v1.492h10.447v-1.492H32.3V80.489z"/>
<path fill="#B2B2B2" d="M31.235,80.382h-0.64h-0.64h-0.64h-1.919h-1.279v2.025v1.279v4.584v1.279v1.279h-1.066h-0.106v0.213v0.96
	v0.213v0.213h0.533h1.279h3.731h1.386H32.3v-0.213v-0.213v-0.107v-1.065h-1.065V88.91v-1.279v-4.584v-1.279V80.382z"/>
<path fill="#CCCCCC" d="M30.063,80.489h-2.878v10.447h-0.64v1.492h4.158v-1.492h-0.64V80.489z"/>
<path fill="none" stroke="#000000" stroke-width="2" d="M32.3,80.489h-7.355v10.447h-1.599v1.492h10.447v-1.492H32.3V80.489"/>
<path fill="none" stroke="#000000" stroke-width="2" d="M24.945,90.936H32.3"/>
<path fill="#7F7F7F" stroke="#000000" stroke-width="2" d="M6.609,73.346h43.921v0.96H6.609V73.346z"/>
<path fill="#7F7F7F" stroke="#000000" stroke-width="2" d="M6.077,36.781h44.454v0.533H6.077V36.781z"/>
<path fill="#CCCCCC" stroke="#000000" stroke-width="2" d="M6.396,31.557l-2.558,2.559v68.44h2.558V31.557z"/>
<path fill="#CCCCCC" stroke="#000000" stroke-width="2" d="M6.396,95.413V93.92h43.921v1.493H6.396z"/>
<path fill="#CCCCCC" stroke="#000000" stroke-width="2" d="M50.317,31.557l2.559,2.559v68.44h-2.559V31.557z"/>
<path fill="#CCCCCC" stroke="#000000" stroke-width="2" d="M49.464,103.408h4.264v-0.853h-4.264V103.408z"/>
<path fill="#CCCCCC" stroke="#000000" stroke-width="2" d="M7.249,103.408H2.985v-0.853h4.264V103.408z"/>
<path fill="#7F7F7F" d="M37.738,17.592l3.518,0.533l3.092,1.492l2.559,2.346l1.705,2.878l0.854,3.411l0.106,1.279v45.627
	l-0.427,2.878l-1.279,2.665l-1.918,2.346l-2.559,2.132l-3.092,1.706l-3.518,1.279l-3.945,0.853l-2.025,0.213l-2.238,0.106
	l-2.132-0.106l-4.051-0.533l-3.731-1.065l-3.305-1.6l-2.878-1.918l-2.239-2.239l-1.599-2.452l-0.853-2.771l-0.107-1.492V29.531
	l0.533-3.518l1.493-3.198l2.238-2.452l2.985-1.812l3.305-0.854l1.279-0.106l0.213-4.157h17.803L37.738,17.592z"/>
<path fill="#919191" d="M36.033,17.592l2.878,0.533l2.452,1.492l2.025,2.239l1.385,2.984l0.747,3.411v4.052v5.756v1.386v1.493
	v24.199v4.264v5.757l-0.747,4.157l-1.278,2.559l-1.813,2.239l-2.345,1.918l-2.666,1.493l-2.984,1.065l-3.305,0.64h-1.706h-1.706
	l-3.305-0.64l-3.091-1.065l-2.665-1.493l-2.239-1.918l-1.813-2.239l-1.279-2.559l-0.746-2.665l-0.106-1.492v-1.386V66.63
	l0.106-4.371V39.446l-0.106-4.264v-5.65l0.426-3.624l1.173-3.092l1.918-2.559l2.346-1.705l2.771-0.96h0.959l0.106-3.198v-1.065
	h2.772h0.853h0.959h6.184h3.624l0.214,3.198V17.592z"/>
<path fill="#A6A6A6" d="M34.22,17.592l2.878,0.96l2.239,2.451l1.279,2.772l0.639,3.305l0.213,3.837v7.143v1.386v1.493v24.199v4.264
	v5.757l-0.639,4.157l-0.959,2.559l-2.133,3.198l-2.984,2.452l-3.519,1.492l-1.279,0.213h-1.279h-1.386l-3.625-1.065l-3.198-2.133
	l-2.452-2.984l-1.173-2.452l-0.746-2.665l-0.213-1.279l-0.106-1.492v-1.386V66.63l0.106-4.371V39.446l-0.106-4.264v-5.65
	l0.426-3.624l0.853-3.092l1.386-2.559l2.452-2.132l2.132-0.533l0.213-3.198v-1.065h2.025h0.64h0.746h4.69h2.771l0.107,3.198V17.592z
	"/>
<path fill="#B8B8B8" d="M32.514,17.592l2.345,1.386l1.387,2.879l0.746,2.984l0.32,3.411l0.105,4.052v5.756v1.386v1.493v24.199v4.264
	v5.757l-0.426,4.157l-1.066,3.731l-1.705,2.984l-2.133,2.133l-2.558,1.065h-0.853h-0.959l-2.452-1.065l-2.132-2.133l-1.706-2.984
	l-1.066-3.731l-0.426-2.665v-1.492v-1.386V66.63v-4.371V39.446v-4.264v-5.65l0.213-3.624l0.64-3.092l1.279-3.198l2.239-2.025h0.533
	l0.106-3.198v-1.065h1.386h0.427h0.533h3.198H32.3l0.214,3.198V17.592z"/>
<path fill="#CCCCCC" d="M30.703,17.592l1.598,2.771l0.747,3.412l0.213,3.305v1.172v1.279v45.627l-0.106,4.264l-0.64,3.625
	l-0.96,2.984l-1.492,2.665l-0.959,0.533l-0.533,0.106l-0.426-0.106l-2.132-2.345l-1.066-2.771l-0.64-3.412l-0.32-4.051l-0.106-1.492
	V29.531l0.213-3.518l0.32-3.198l0.64-3.198l1.493-2.025l0.106-4.157h3.944L30.703,17.592z"/>
<path fill="none" stroke="#000000" stroke-width="2" d="M37.738,17.592l3.518,0.533l3.092,1.492l2.559,2.346l1.705,2.878
	l0.854,3.411l0.106,1.279v45.627l-0.427,2.878l-1.279,2.665l-1.918,2.346l-2.559,2.132l-3.092,1.706l-3.518,1.279l-3.945,0.853
	l-2.025,0.213l-2.238,0.106l-2.132-0.106l-4.051-0.533l-3.731-1.065l-3.305-1.6l-2.878-1.918l-2.239-2.239l-1.599-2.452
	l-0.853-2.771l-0.107-1.492V29.531l0.533-3.518l1.493-3.198l2.238-2.452l2.985-1.812l3.305-0.854l1.279-0.106l0.213-4.157h17.803
	L37.738,17.592"/>
<path fill="none" stroke="#000000" stroke-width="2" d="M19.722,17.592h17.803"/>
<path fill="#7F7F7F" stroke="#000000" stroke-width="2" d="M40.083,13.435h2.664v1.599h-2.664V13.435z"/>
<path fill="#7F7F7F" stroke="#000000" stroke-width="2" d="M34.966,13.435h2.665v1.599h-2.665V13.435z"/>
<path fill="#7F7F7F" stroke="#000000" stroke-width="2" d="M29.849,13.435h2.665v1.599h-2.665V13.435z"/>
<path fill="#7F7F7F" stroke="#000000" stroke-width="2" d="M24.732,13.435h2.559v1.599h-2.559V13.435z"/>
<path fill="#7F7F7F" stroke="#000000" stroke-width="2" d="M19.615,13.435h2.559v1.599h-2.559V13.435z"/>
<path fill="#7F7F7F" stroke="#000000" stroke-width="2" d="M14.498,13.435h2.559v1.599h-2.559V13.435z"/>
<path fill="#7F7F7F" d="M43.814,13.435v-2.132h-0.106l-3.411-0.32l-3.198-0.106h-3.944l-1.492-0.106h-1.493h-4.584l-4.158,0.106
	l-3.518,0.106l-3.305,0.106l-1.066,0.214h-0.106v2.132h0.106l3.412,0.319l3.198,0.106l3.944,0.107h1.493h1.493h4.584l4.157-0.107
	l3.519-0.106l3.197-0.106l1.173-0.213H43.814z"/>
<path fill="#999999" d="M39.763,13.328v-0.214l0.107-0.319v-0.213l-0.107-0.96v-0.319v-0.107l-1.279-0.213h-1.279l-1.492-0.106
	h-1.705l-0.96-0.106h-1.066h-1.065h-1.173h-3.305h-1.066h-1.066l-0.959,0.106h-1.812l-1.493,0.106h-1.172l-1.173,0.213H17.59
	l-0.107,0.107v0.319v0.96v0.746l0.107,0.106l1.279,0.213l1.172,0.106h1.493l1.812,0.106h0.959h1.066l1.066,0.107h1.066h3.412
	l1.065-0.107h1.066h0.96l1.705-0.106h1.492l1.279-0.106l1.066-0.213h0.213V13.328z"/>
<path fill="#B2B2B2" d="M35.819,13.328v-0.214v-0.319v-0.213v-0.96v-0.319l-0.106-0.107l-1.173-0.213l-1.386-0.106h-1.173
	l-1.173-0.106h-0.746h-0.64h-2.239h-1.279l-1.279,0.106l-0.959,0.106h-1.279l-0.853,0.213v0.107v0.319v0.96v0.746v0.106l1.172,0.213
	l1.386,0.106l1.173,0.106h1.279l0.64,0.107h0.746h2.132l1.386-0.107h1.172l1.066-0.106l1.172-0.106l0.854-0.213L35.819,13.328z"/>
<path fill="#CCCCCC" d="M31.768,13.435v-2.132l-0.106-0.107l-1.279-0.319l-1.173-0.106H27.93l-1.066,0.106l-1.173,0.213
	l-0.106,0.106l-0.106,0.107v2.132l0.106,0.106l1.279,0.319l1.066,0.107h1.279l1.173-0.107l1.066-0.213l0.213-0.106L31.768,13.435z"
	/>
<path fill="none" stroke="#000000" stroke-width="2" d="M43.814,13.435v-2.132h-0.106l-3.411-0.32l-3.198-0.106h-3.944l-1.492-0.106
	h-1.493h-4.584l-4.158,0.106l-3.518,0.106l-3.305,0.106l-1.066,0.214h-0.106v2.132h0.106l3.412,0.319l3.198,0.106l3.944,0.107h1.493
	h1.493h4.584l4.157-0.107l3.519-0.106l3.197-0.106l1.173-0.213H43.814"/>
<ellipse fill="#7F7F7F" stroke="#000000" stroke-width="2" cx="28.57" cy="11.302" rx="15.138" ry="0.533"/>
<path d="M20.042,2.988h2.025v8.635h-2.025V2.988z"/>
<path d="M34.966,2.988h2.025v8.635h-2.025V2.988z"/>
<path d="M28.037,4.373h1.493v6.93h-1.493V4.373z"/>
<path d="M16.737,2.988h8.208l0,0v1.066l0,0l0,0h-8.208H16.63l0,0V2.988H16.737z"/>
<path d="M31.981,2.988h8.103h0.105v1.066l0,0h-0.105h-8.103h-0.106l0,0V2.988H31.981z"/>
<path d="M25.479,4.267h6.502v0.746h-6.502V4.267z"/>
</svg>
