<?xml version="1.0" encoding="utf-8"?>
<!-- Generator: Adobe Illustrator 14.0.0, SVG Export Plug-In . SVG Version: 6.00 Build 43363)  -->
<!DOCTYPE svg PUBLIC "-//W3C//DTD SVG 1.1//EN" "http://www.w3.org/Graphics/SVG/1.1/DTD/svg11.dtd">
<svg version="1.1" id="图层_1" xmlns="http://www.w3.org/2000/svg" xmlns:xlink="http://www.w3.org/1999/xlink" x="0px" y="0px"
	 width="70.358px" height="106.502px" viewBox="0 0 70.358 106.502" enable-background="new 0 0 70.358 106.502"
	 xml:space="preserve">
<path fill="#333333" d="M22.387,65.99l31.234,27.61v1.919L22.387,67.803V65.99z M53.621,65.99l-31.234,27.61v1.919l31.234-27.717
	V65.99z M53.728,65.884v34.966h3.625V65.884H53.728z M18.656,65.884v34.966h3.731V65.884H18.656z"/>
<path fill="#7F7F7F" d="M4.157,102.875V11.622l7.569-7.568h20.041v2.984H12.792l-5.649,5.757v90.08H4.157z"/>
<path fill="#E5E5E5" d="M4.904,102.875V11.836L11.94,4.8h19.828v1.492H12.686l-6.29,6.29v90.293H4.904z"/>
<path fill="none" stroke="#000000" stroke-width="2" d="M4.157,102.875V11.622l7.569-7.568h20.041v2.984H12.792l-5.649,5.757v90.08
	H4.157"/>
<path fill="#666666" d="M31.768,92.961h12.579l22.92-31.342V19.725l-22.92-12.58l2.025-2.025V2.988H29.636v2.132l2.132,2.025
	L8.741,19.725v41.895L31.768,92.961z"/>
<path fill="#6E6E6E" d="M32.195,92.961h11.727l21.32-31.448V19.725l-21.32-12.58H32.195l-21.321,12.58v41.788L32.195,92.961z"/>
<path fill="#757575" d="M32.728,92.961h10.66L63.11,61.513V19.725L43.388,7.145l1.812-2.132V2.988H30.915v2.025l1.813,2.132
	l-19.829,12.58v41.788L32.728,92.961z"/>
<path fill="#7D7D7D" d="M33.154,92.961h9.808l18.123-31.448V19.725L42.961,7.145h-9.808l-18.122,12.58v41.788L33.154,92.961z"/>
<path fill="#858585" d="M33.58,92.961h8.954l16.417-31.448V19.725L42.534,7.145l1.493-2.132V2.988H32.088v2.025l1.492,2.132
	l-16.417,12.58v41.788L33.58,92.961z"/>
<path fill="#8C8C8C" d="M34.006,92.961h8.103l14.817-31.448V19.725L42.109,7.145h-8.103l-14.817,12.58v41.788L34.006,92.961z"/>
<path fill="#949494" d="M34.433,92.961h7.249l13.112-31.448V19.725L41.682,7.145l1.173-2.132V2.988H33.26v2.025l1.173,2.132
	l-13.112,12.58v41.788L34.433,92.961z"/>
<path fill="#9E9E9E" d="M34.966,92.961h6.183l11.514-31.448V19.725L41.149,7.145h-6.183l-11.62,12.58v41.788L34.966,92.961z"/>
<path fill="#A6A6A6" d="M35.393,92.961h5.33l9.914-31.448V19.725l-9.914-12.58l0.853-2.132V2.988h-7.143v2.025l0.96,2.132
	l-9.915,12.58v41.788L35.393,92.961z"/>
<path fill="#ADADAD" d="M35.819,92.961h4.478l8.209-31.448V19.725l-8.209-12.58h-4.478l-8.208,12.58v41.788L35.819,92.961z"/>
<path fill="#B5B5B5" d="M36.245,92.961h3.624l6.503-31.448V19.725l-6.503-12.58l0.64-2.132V2.988h-4.903v2.025l0.64,2.132
	l-6.609,12.58v41.788L36.245,92.961z"/>
<path fill="#BDBDBD" d="M36.672,92.961h2.771l4.903-31.448V19.725l-4.903-12.58h-2.771l-4.904,12.58v41.788L36.672,92.961z"/>
<path fill="#C4C4C4" d="M37.204,92.961h1.706l3.305-31.448V19.725L38.91,7.145l0.319-2.132V2.988h-2.345v2.025l0.319,2.132
	l-3.411,12.58v41.788L37.204,92.961z"/>
<ellipse fill="#CCCCCC" cx="37.95" cy="47.974" rx="2.026" ry="44.987"/>
<path fill="none" stroke="#000000" stroke-width="2" d="M31.768,92.961h12.579l22.92-31.342V19.725l-22.92-12.58l2.025-2.025V2.988
	H29.636v2.132l2.132,2.025L8.741,19.725v41.895L31.768,92.961"/>
<path fill="none" stroke="#000000" stroke-width="2" d="M31.768,7.145h12.579"/>
<path fill="none" stroke="#000000" stroke-width="2" d="M8.741,19.725h58.525"/>
<path fill="none" stroke="#000000" stroke-width="2" d="M8.741,61.619h58.525"/>
<path fill="none" stroke="#CCCCCC" stroke-width="2" d="M8.741,61.086h58.525"/>
<path fill="none" stroke="#CCCCCC" stroke-width="2" d="M9.808,19.192h56.5"/>
<path fill="#999999" stroke="#000000" stroke-width="2" d="M52.662,61.619v2.025H63.11v-2.025H52.662z"/>
<path fill="#999999" stroke="#000000" stroke-width="2" d="M12.899,61.619v2.025h10.447v-2.025H12.899z"/>
<path fill="#7F7F7F" stroke="#000000" stroke-width="2" d="M55.861,63.645v39.764h4.157V63.645H55.861z"/>
<path fill="#7F7F7F" stroke="#000000" stroke-width="2" d="M16.097,63.645v39.764h4.158V63.645H16.097z"/>
<path fill="#999999" stroke="#000000" stroke-width="2" d="M56.926,61.619v41.789h2.025V61.619H56.926z"/>
<path fill="#999999" stroke="#000000" stroke-width="2" d="M17.057,61.619v41.789h2.132V61.619H17.057z"/>
<path fill="#7F7F7F" stroke="#000000" stroke-width="2" d="M20.255,65.778l35.499,31.341v2.132L20.255,67.803V65.778z"/>
<path fill="#7F7F7F" stroke="#000000" stroke-width="2" d="M55.754,65.778L20.255,97.118v2.132l35.499-31.447V65.778z"/>
<path fill="none" stroke="#CCCCCC" stroke-width="2" d="M31.768,19.725v20.36"/>
<path fill="none" stroke="#CCCCCC" stroke-width="2" d="M8.741,40.085h58.525"/>
<path fill="none" stroke="#CCCCCC" stroke-width="2" d="M28.036,40.618v20.468"/>
<path fill="none" stroke="#7F7F7F" stroke-width="2" d="M28.676,40.618v20.468"/>
<path fill="none" stroke="#7F7F7F" stroke-width="2" d="M32.301,19.725v20.36"/>
<path fill="none" stroke="#7F7F7F" stroke-width="2" d="M8.741,40.618h58.525"/>
<path fill="#7F7F7F" stroke="#000000" stroke-width="2" d="M2.985,58.421h6.29v3.198h-6.29V58.421z"/>
<path fill="#7F7F7F" stroke="#000000" stroke-width="2" d="M2.985,38.593h6.29v3.092h-6.29V38.593z"/>
<path fill="#7F7F7F" stroke="#000000" stroke-width="2" d="M2.985,19.725h6.29v3.197h-6.29V19.725z"/>
<path fill="#E5E5E5" d="M4.051,58.421h2.025v3.198H4.051V58.421z"/>
<path fill="#E5E5E5" d="M4.051,38.593h2.025v3.092H4.051V38.593z"/>
<path fill="#E5E5E5" d="M4.051,19.725h2.025v3.197H4.051V19.725z"/>
</svg>
