<?xml version="1.0" encoding="utf-8"?>
<!-- Generator: Adobe Illustrator 14.0.0, SVG Export Plug-In . SVG Version: 6.00 Build 43363)  -->
<!DOCTYPE svg PUBLIC "-//W3C//DTD SVG 1.1//EN" "http://www.w3.org/Graphics/SVG/1.1/DTD/svg11.dtd">
<svg version="1.1" id="图层_1" xmlns="http://www.w3.org/2000/svg" xmlns:xlink="http://www.w3.org/1999/xlink" x="0px" y="0px"
	 width="55.541px" height="106.502px" viewBox="0 0 55.541 106.502" enable-background="new 0 0 55.541 106.502"
	 xml:space="preserve">
<path fill="#669999" stroke="#000000" stroke-width="2" d="M44.241,3.947h3.944v14.925h-3.944V3.947z"/>
<path fill="#669999" stroke="#000000" stroke-width="2" d="M7.142,3.947h3.944v14.925H7.142V3.947z"/>
<path fill="#8FC2C2" d="M44.56,3.947h0.427h2.771v14.925H44.56v-1.599l0.106-1.279v-0.96v-1.813v-1.705v-1.066V9.277V7.678V5.972
	L44.56,3.947z"/>
<path fill="#8FC2C2" d="M7.569,3.947h0.319h2.772v14.925H7.569V3.947z"/>
<path fill="#CCFFFF" d="M45.414,3.947h1.492v14.925h-1.492V3.947z"/>
<path fill="#CCFFFF" d="M8.422,3.947h1.386v14.925H8.422V3.947z"/>
<path fill="#669999" d="M52.343,74.519l-2.452,2.132l-2.451,1.173l-3.198,1.173l-2.771,0.853l-3.092,0.746l-3.411,0.533
	l-3.519,0.427h-1.279l-1.279,0.106H27.61l-3.73-0.106l-3.519-0.427l-3.411-0.533l-3.092-0.746l-2.771-0.853l-3.198-1.173
	l-2.451-1.173l-2.346-1.705l-0.106-0.214v-0.213V18.871l1.492-2.665l2.665-1.599l3.092-1.173l2.665-0.746l2.984-0.64l3.306-0.427
	l3.518-0.32l2.452-0.106l1.279-0.106h1.172l3.838,0.106l3.519,0.32l3.411,0.319l3.092,0.64l2.771,0.746l3.198,1.066l2.451,1.279
	l2.239,2.132l0.213,0.746v0.427V74.519z"/>
<path fill="#7AADAD" d="M48.398,74.519l-2.559,2.452l-3.518,1.919l-3.198,1.065l-3.411,1.066l-3.944,0.64l-2.025,0.106l-2.133,0.106
	l-2.025-0.106l-4.051-0.427l-3.624-0.853l-3.305-1.066l-2.772-1.172l-3.091-1.813l-1.493-1.492l-0.106-0.427V72.92V18.871l1.6-2.985
	l3.091-1.918l2.772-1.066l3.305-0.853l3.624-0.533l4.051-0.32l2.025-0.106l2.133,0.106l4.051,0.32l3.624,0.533l3.305,0.853
	l2.879,1.066l3.092,1.918l1.599,2.239l0.106,0.746v1.706V74.519z"/>
<path fill="#8FC2C2" d="M44.454,74.519l-0.106,0.427l-1.919,2.025l-2.985,1.919l-2.451,1.065l-2.879,1.066l-3.091,0.64l-1.706,0.106
	l-1.706,0.106l-1.599-0.106l-3.198-0.427l-2.984-0.853l-2.666-1.066l-3.197-1.812l-2.133-1.813l-0.64-0.853l-0.106-0.427V72.92
	V18.871l1.386-2.985l2.452-1.918l3.518-1.493l2.772-0.746l3.198-0.427l1.599-0.106l1.599-0.106l1.706,0.106l3.305,0.32l2.985,0.533
	l2.665,0.853l3.305,1.706l2.025,2.025l0.746,1.492l0.106,0.746v1.706V74.519z"/>
<path fill="#A3D6D6" d="M40.19,74.519l-1.493,2.452l-2.025,1.919l-2.984,1.599l-3.412,1.173l-1.278,0.106l-1.387,0.106l-1.279-0.106
	l-3.518-0.746l-3.198-1.6l-2.345-1.812l-1.919-2.239l-0.214-0.426v-0.427V72.92V18.871l0.96-2.985l2.665-2.451l2.878-1.386
	l3.519-0.747l1.172-0.106l1.279-0.106l1.387,0.106l3.624,0.533l3.092,1.173l2.452,1.706l1.812,2.771l0.32,3.198v2.878v3.731
	l0.106,3.198v5.97v1.065v1.279v9.382l-0.106,4.37v5.117v6.076v3.305v3.731L40.19,74.519z"/>
<path fill="#B8EBEB" d="M36.246,74.519l-1.493,3.092l-2.238,2.345l-3.092,1.706l-0.853,0.106l-0.96,0.106l-0.853-0.106l-3.198-1.279
	l-2.559-2.238l-1.599-2.452l-0.32-0.853v-0.427V72.92V18.871l0.64-2.985l1.813-2.451l2.771-1.706l2.452-0.533l0.853-0.106
	l0.96,0.106l3.198,0.854l2.559,1.919l1.492,2.665l0.427,1.492v0.746v1.706V74.519z"/>
<path fill="#CCFFFF" d="M32.302,74.519l-0.854,2.985l-1.599,2.878l-1.706,1.173l-0.533,0.106l-0.426-0.106l-2.452-2.239
	l-1.279-2.984l-0.319-1.386l-0.107-0.427V18.871l0.427-2.985l1.279-2.984l2.452-1.706l0.426-0.106l0.533,0.106l2.452,1.706
	l1.279,2.984l0.319,2.239l0.107,0.746V74.519z"/>
<path fill="none" stroke="#000000" stroke-width="2" d="M52.343,74.519l-2.452,2.132l-2.451,1.173l-3.198,1.173l-2.771,0.853
	l-3.092,0.746l-3.411,0.533l-3.519,0.427h-1.279l-1.279,0.106H27.61l-3.73-0.106l-3.519-0.427l-3.411-0.533l-3.092-0.746
	l-2.771-0.853l-3.198-1.173l-2.451-1.173l-2.346-1.705l-0.106-0.214v-0.213V18.871l1.492-2.665l2.665-1.599l3.092-1.173l2.665-0.746
	l2.984-0.64l3.306-0.427l3.518-0.32l2.452-0.106l1.279-0.106h1.172l3.838,0.106l3.519,0.32l3.411,0.319l3.092,0.64l2.771,0.746
	l3.198,1.066l2.451,1.279l2.239,2.132l0.213,0.746v0.427V74.519"/>
<path fill="none" stroke="#000000" stroke-width="2" d="M2.985,18.871h49.357v3.092H2.985V18.871"/>
<path fill="none" stroke="#000000" stroke-width="2" d="M3.198,74.519h48.505"/>
<path fill="none" stroke="#000000" stroke-width="2" d="M3.198,62.792h49.357v5.437H3.198V62.792"/>
<path fill="none" stroke="#000000" stroke-width="2" d="M3.198,34.969h49.357v5.224H3.198V34.969"/>
<path fill="#669999" stroke="#000000" stroke-width="2" d="M27.61,7.145h12.366l-0.213,1.6l-0.32,0.746l-0.426,0.746l-0.427,0.746
	l-0.64,0.64l-0.746,0.64l-0.746,0.64l-0.96,0.533l-0.853,0.426l-1.065,0.427l-1.066,0.32l-1.173,0.319l-1.173,0.213l-1.172,0.106
	l-1.387,0.107l-1.172-0.107l-1.279-0.106l-1.173-0.213l-1.066-0.319l-1.065-0.32l-1.066-0.427l-0.959-0.426l-0.854-0.533
	l-0.853-0.64l-0.746-0.64l-0.533-0.64l-0.533-0.746L15.884,9.49l-0.532-1.6V7.145H27.61z"/>
<ellipse fill="#B2E5E5" cx="27.61" cy="7.038" rx="12.26" ry="4.051"/>
<ellipse fill="#99CCCC" cx="27.718" cy="7.998" rx="10.34" ry="2.985"/>
<ellipse fill="#7FB2B2" cx="27.718" cy="9.064" rx="8.208" ry="1.919"/>
<ellipse fill="none" stroke="#000000" stroke-width="2" cx="27.61" cy="7.038" rx="12.26" ry="4.051"/>
<path fill="#669999" stroke="#000000" stroke-width="2" d="M42.748,99.891v-28.89l5.438,3.518v25.372h1.919v1.705h-9.062v-1.705
	H42.748z"/>
<path fill="#669999" stroke="#000000" stroke-width="2" d="M12.153,99.891v-28.89l-5.437,3.518v25.372H4.798v1.705h9.061v-1.705
	H12.153z"/>
<path fill="#336666" stroke="#000000" stroke-width="2" d="M3.198,101.596h12.473v1.813H3.198V101.596z"/>
<path fill="#336666" stroke="#000000" stroke-width="2" d="M39.124,101.596h12.579v1.813H39.124V101.596z"/>
</svg>
