<?xml version="1.0" encoding="utf-8"?>
<!-- Generator: Adobe Illustrator 14.0.0, SVG Export Plug-In . SVG Version: 6.00 Build 43363)  -->
<!DOCTYPE svg PUBLIC "-//W3C//DTD SVG 1.1//EN" "http://www.w3.org/Graphics/SVG/1.1/DTD/svg11.dtd">
<svg version="1.1" id="图层_1" xmlns="http://www.w3.org/2000/svg" xmlns:xlink="http://www.w3.org/1999/xlink" x="0px" y="0px"
	 width="123.566px" height="106.502px" viewBox="0 0 123.566 106.502" enable-background="new 0 0 123.566 106.502"
	 xml:space="preserve">
<path fill="#194C4C" stroke="#000000" stroke-width="2" d="M18.058,71.495h89.8v7.298h-89.8V71.495z"/>
<path stroke="#000000" stroke-width="2" d="M22.883,78.793h80.151v16.945H22.883V78.793z"/>
<path fill="#4C4C4C" d="M13.111,8.29l-2.845,1.484L8.04,12.866l-1.36,3.587l-0.989,3.34l-0.866,3.711l-0.618,4.081l-0.495,4.453
	l-0.247,4.576v1.608v1.608l0.123,4.823l0.248,4.577l0.618,4.329l0.618,3.958l0.866,3.587l0.989,3.092l1.608,3.464l2.227,2.721
	l1.854,0.99l0.495,0.123h102.044V8.29H13.111z"/>
<path fill="#666666" d="M13.111,13.114l-2.845,1.237L8.04,17.072l-1.36,3.093l-1.36,3.711l-0.742,3.216l-0.619,3.587l-0.371,3.834
	L3.464,37.11v1.36v1.361l0.123,4.081l0.248,3.958l0.618,3.587l0.618,3.34l1.237,3.958l1.36,3.34l2.103,2.845l2.845,1.608h0.495
	h102.044V13.114H13.111z"/>
<path fill="#7F7F7F" d="M13.111,20.411L9.4,21.896l-2.474,2.969l-1.855,4.082l-0.865,3.339l-0.619,3.711l-0.123,3.835l0.123,3.958
	l0.619,3.587l0.865,3.34l1.855,4.205L9.4,57.766l3.711,1.608h102.044V20.411H13.111z"/>
<path fill="#999999" d="M13.111,22.885L9.4,24.246l-2.474,2.597L5.071,30.43l-1.236,4.453l-0.371,3.34v1.608l0.123,3.463
	l0.619,3.216l1.484,4.082l1.979,3.34l2.598,2.103l2.845,0.865h102.044V22.885H13.111z"/>
<path fill="#B2B2B2" d="M13.111,32.656L9.4,33.152L6.308,34.76l-2.474,2.968l-0.371,2.104l1.113,3.463l3.092,2.598l3.587,1.113
	l1.855,0.123h102.044V32.656H13.111z"/>
<path fill="none" stroke="#000000" stroke-width="2" d="M13.111,8.29l-2.845,1.484L8.04,12.866l-1.36,3.587l-0.989,3.34
	l-0.866,3.711l-0.618,4.081l-0.495,4.453l-0.247,4.576v1.608v1.608l0.123,4.823l0.248,4.577l0.618,4.329l0.618,3.958l0.866,3.587
	l0.989,3.092l1.608,3.464l2.227,2.721l1.854,0.99l0.495,0.123h102.044V8.29H13.111"/>
<ellipse fill="#7F7F7F" stroke="#000000" stroke-width="2" cx="115.155" cy="39.831" rx="2.475" ry="31.541"/>
<path fill="#CCCCCC" stroke="#000000" stroke-width="2" d="M13.111,5.94h2.474v67.906h-2.474V5.94z"/>
<path fill="#999999" stroke="#000000" stroke-width="2" d="M22.883,5.94h2.474v67.906h-2.474V5.94z"/>
<path fill="#999999" stroke="#000000" stroke-width="2" d="M32.53,5.94h2.475v67.906H32.53V5.94z"/>
<path fill="#999999" stroke="#000000" stroke-width="2" d="M42.302,5.94h2.474v67.906h-2.474V5.94z"/>
<path fill="#999999" stroke="#000000" stroke-width="2" d="M51.95,5.94h2.474v67.906H51.95V5.94z"/>
<path fill="#999999" stroke="#000000" stroke-width="2" d="M61.721,5.94h2.474v67.906h-2.474V5.94z"/>
<path fill="#999999" stroke="#000000" stroke-width="2" d="M71.493,5.94h2.35v67.906h-2.35V5.94z"/>
<path fill="#999999" stroke="#000000" stroke-width="2" d="M81.14,5.94h2.474v67.906H81.14V5.94z"/>
<path fill="#999999" stroke="#000000" stroke-width="2" d="M90.912,5.94h2.351v67.906h-2.351V5.94z"/>
<path fill="#999999" stroke="#000000" stroke-width="2" d="M100.56,5.94h2.474v67.906h-2.474V5.94z"/>
<path fill="#CCCCCC" stroke="#000000" stroke-width="2" d="M110.332,5.94h2.35v67.906h-2.35V5.94z"/>
<path fill="#C2CCCC" stroke="#000000" stroke-width="2" d="M88.438,27.709h19.42v12.122h-19.42V27.709z"/>
<path fill="#EFF2F2" stroke="#000000" stroke-width="2" d="M103.034,27.709v2.474H90.912v7.298h12.122v2.351H88.438V27.709H103.034z
	"/>
<path fill="#A6A6A6" stroke="#000000" stroke-width="2" d="M64.195,69.022h7.298v14.596h-7.298V69.022z"/>
<path fill="#A6A6A6" stroke="#000000" stroke-width="2" d="M25.356,69.022h7.174v14.596h-7.174V69.022z"/>
<path fill="#A6A694" stroke="#000000" stroke-width="2" d="M18.058,83.617h21.77v7.298h-21.77V83.617z"/>
<path fill="#336666" stroke="#000000" stroke-width="2" d="M20.409,90.915h43.786v9.647H20.409V90.915z"/>
<path fill="#194C4C" stroke="#000000" stroke-width="2" d="M61.721,93.265h48.61v9.771h-48.61V93.265z"/>
<path fill="#CCCCC2" stroke="#000000" stroke-width="2" d="M47.126,83.617h46.137v9.647H47.126V83.617z"/>
<path fill="#7F7F7F" stroke="#000000" stroke-width="2" d="M44.776,76.32h7.174v14.596h-7.174V76.32z"/>
<path fill="#4C4C4C" d="M18.058,85.967h21.77v2.474h-21.77V85.967z"/>
<path fill="#A3B2B2" stroke="#000000" stroke-width="2" d="M59.248,100.563h53.434v2.474H59.248V100.563z"/>
<path fill="#A3B2B2" stroke="#000000" stroke-width="2" d="M59.248,93.265h53.434v2.474H59.248V93.265z"/>
<path stroke="#000000" stroke-width="2" d="M29.314,5.073V8.29h1.608V5.073h1.607V3.466h-4.823v1.607H29.314z"/>
<path stroke="#000000" stroke-width="2" d="M94.994,5.073V8.29h1.608V5.073h1.607V3.466h-4.947v1.607H94.994z"/>
<path fill="#E5E5E5" stroke="#000000" stroke-width="2" d="M118.372,17.196h-3.217v1.608h3.217v1.607h1.607v-4.824h-1.607V17.196z"
	/>
<path fill="#E5E5E5" stroke="#000000" stroke-width="2" d="M118.372,60.982h-3.217v1.608h3.217v1.607h1.607v-4.823h-1.607V60.982z"
	/>
</svg>
