<?xml version="1.0" encoding="utf-8"?>
<!-- Generator: Adobe Illustrator 14.0.0, SVG Export Plug-In . SVG Version: 6.00 Build 43363)  -->
<!DOCTYPE svg PUBLIC "-//W3C//DTD SVG 1.1//EN" "http://www.w3.org/Graphics/SVG/1.1/DTD/svg11.dtd">
<svg version="1.1" id="图层_1" xmlns="http://www.w3.org/2000/svg" xmlns:xlink="http://www.w3.org/1999/xlink" x="0px" y="0px"
	 width="49.572px" height="106.502px" viewBox="0 0 49.572 106.502" enable-background="new 0 0 49.572 106.502"
	 xml:space="preserve">
<path fill="#669999" d="M38.485,3.733h3.625v12.899h-3.625V3.733z"/>
<path fill="#669999" d="M6.716,3.733h3.518v12.899H6.716V3.733z"/>
<path fill="#8FC2C2" d="M38.911,3.733h0.32h2.238v12.899l-1.065-0.106l-1.493,0.106V3.733z"/>
<path fill="#8FC2C2" d="M7.143,3.733h0.213h2.239v12.899l-0.959-0.106l-1.493,0.106V3.733z"/>
<path fill="#CCFFFF" d="M39.551,3.733h1.279v12.899h-1.279V3.733z"/>
<path fill="#CCFFFF" d="M7.676,3.733h1.279v12.899H7.676V3.733z"/>
<path stroke="#000000" stroke-width="2" d="M30.809,99.146h11.088v4.37H30.809V99.146z"/>
<path stroke="#000000" stroke-width="2" d="M6.929,99.146h11.194v4.37H6.929V99.146z"/>
<path fill="none" stroke="#000000" stroke-width="2" d="M38.485,3.733h3.625v12.899h-3.625V3.733"/>
<path fill="none" stroke="#000000" stroke-width="2" d="M6.716,3.733h3.518v12.899H6.716V3.733"/>
<path fill="#669999" d="M45.415,98.506l-0.107,0.213l-3.518,1.279l-4.051,0.533l-3.412,0.319l-3.838,0.214h-2.025l-2.131,0.106H24.2
	l-4.264-0.106l-3.944-0.107l-3.625-0.319l-3.198-0.213l-3.625-0.64l-2.559-1.066l-0.106-0.213V16.632l1.706-2.559l3.198-1.706
	l2.878-0.853l3.412-0.746l3.837-0.533l4.051-0.213H24.2h2.133l4.156,0.213l3.838,0.533l3.412,0.746l2.879,0.853l3.091,1.706
	l1.599,1.919l0.107,0.64V98.506z"/>
<path fill="#7AADAD" d="M42.11,98.506l-0.107,0.213l-2.984,1.279l-3.412,0.533l-2.771,0.319l-3.197,0.214H27.93l-1.705,0.106h-1.812
	l-3.625-0.106l-3.305-0.107l-2.985-0.319l-3.838-0.427l-2.559-0.746l-1.279-0.746l-0.106-0.213v-2.452V16.632l1.386-2.559
	l2.559-1.706l3.838-1.279l2.985-0.533l3.305-0.426l1.813-0.106h1.813h1.812l3.412,0.213l3.197,0.533l2.771,0.746l3.412,1.386
	l2.238,1.706l0.854,4.478v8.102v3.305v5.863v4.371v6.823l0.106,2.025v2.238v10.874L42.11,65.99v11.834v4.584v10.341V98.506z"/>
<path fill="#8FC2C2" d="M38.698,98.506v0.213l-2.451,1.279l-2.771,0.533l-3.519,0.426l-2.665,0.107l-1.492,0.106h-1.386
	l-4.265-0.106l-3.838-0.427l-2.985-0.427l-2.665-0.959l-0.533-0.533l-0.106-0.213v-2.452V16.632l1.173-2.559l2.132-1.706
	l2.985-1.279l3.838-0.853l2.772-0.213h1.493h1.386l4.157,0.532l3.519,0.96l2.771,1.386l2.238,2.452l0.213,0.64v0.64v2.452V98.506z"
	/>
<path fill="#A3D6D6" d="M35.18,98.506l-0.106,0.213l-2.452,1.492l-3.198,0.64l-2.878,0.214l-1.066,0.106h-1.066l-3.305-0.106
	l-2.878-0.427l-2.985-0.64l-1.812-1.279l-0.107-0.213v-2.452l0.107-4.371v-3.731v-3.305v-2.985V72.92V55.543v-3.092v-6.929v-3.945
	V32.73l-0.107-5.011v-5.33v-5.757l0.853-2.559l2.452-2.132l2.452-1.173l3.092-0.64l1.066-0.106h1.173h1.066l3.092,0.532l2.665,0.96
	l2.559,1.919l1.279,2.559l0.106,0.64v2.452V98.506z"/>
<path fill="#B8EBEB" d="M31.663,98.506l-2.133,1.919l-2.984,0.64h-0.746l-0.747,0.106h-0.64l-2.985-0.214l-2.878-0.746l-1.599-1.492
	l-0.106-0.213v-2.452V16.632l0.959-3.198l2.345-2.346l2.666-0.959l0.746-0.106h0.853h0.64l2.772,0.746l2.559,2.132l1.279,3.092v0.64
	v2.452V98.506z"/>
<path fill="#CCFFFF" d="M28.358,98.506l-1.92,2.132l-2.238,0.533l-2.772-0.746l-1.172-1.919V16.632l0.426-3.198l1.279-2.346
	l2.239-1.065l2.559,1.492l1.279,2.559l0.32,2.559V98.506z"/>
<path fill="none" stroke="#000000" stroke-width="2" d="M45.415,98.506l-0.107,0.213l-3.518,1.279l-4.051,0.533l-3.412,0.319
	l-3.838,0.214h-2.025l-2.131,0.106H24.2l-4.264-0.106l-3.944-0.107l-3.625-0.319l-3.198-0.213l-3.625-0.64l-2.559-1.066
	l-0.106-0.213V16.632l1.706-2.559l3.198-1.706l2.878-0.853l3.412-0.746l3.837-0.533l4.051-0.213H24.2h2.133l4.156,0.213l3.838,0.533
	l3.412,0.746l2.879,0.853l3.091,1.706l1.599,1.919l0.107,0.64V98.506"/>
<path fill="none" stroke="#000000" stroke-width="2" d="M2.878,16.632h42.536v2.559H2.878V16.632"/>
<path fill="#669999" stroke="#000000" stroke-width="2" d="M24.413,6.504h10.554L34.754,7.89l-0.641,1.386l-0.959,1.173l-0.64,0.533
	l-0.64,0.533l-0.746,0.427l-0.854,0.426l-0.853,0.32l-0.96,0.319l-0.959,0.214l-1.066,0.213l-0.959,0.106h-1.066H23.24l-0.959-0.106
	l-1.066-0.213l-0.959-0.214l-0.959-0.319l-0.853-0.32l-0.853-0.426l-0.746-0.427l-0.64-0.533l-1.172-1.066l-0.747-1.279L13.859,7.25
	l-0.106-0.746H24.413z"/>
<ellipse fill="#B2E5E5" cx="24.306" cy="6.398" rx="10.554" ry="3.518"/>
<ellipse fill="#99CCCC" cx="24.306" cy="7.357" rx="8.849" ry="2.558"/>
<ellipse fill="#7FB2B2" cx="24.306" cy="8.21" rx="7.036" ry="1.706"/>
<ellipse fill="none" stroke="#000000" stroke-width="2" cx="24.306" cy="6.398" rx="10.554" ry="3.518"/>
<path fill="#336666" stroke="#000000" stroke-width="2" d="M36.672,91.789h8.529v7.889h-8.529V91.789z"/>
<path stroke="#7F7F7F" stroke-width="2" d="M34.967,99.678h11.619v1.066H34.967V99.678z"/>
<path fill="#669999" stroke="#000000" stroke-width="2" d="M44.988,89.124v2.665h-8.315V90.51l4.158-0.319L44.988,89.124z"/>
</svg>
