<?xml version="1.0" encoding="utf-8"?>
<!-- Generator: Adobe Illustrator 14.0.0, SVG Export Plug-In . SVG Version: 6.00 Build 43363)  -->
<!DOCTYPE svg PUBLIC "-//W3C//DTD SVG 1.1//EN" "http://www.w3.org/Graphics/SVG/1.1/DTD/svg11.dtd">
<svg version="1.1" id="图层_1" xmlns="http://www.w3.org/2000/svg" xmlns:xlink="http://www.w3.org/1999/xlink" x="0px" y="0px"
	 width="62.15px" height="106.502px" viewBox="0 0 62.15 106.502" enable-background="new 0 0 62.15 106.502" xml:space="preserve">
<path fill="#4C4C4C" d="M59.166,80.809v-2.133h-2.133l-4.37-73.557h2.132V2.988H7.249v2.132h2.133L5.117,78.676H2.985v2.133H59.166z
	"/>
<path fill="#595959" d="M57.14,80.809v-2.133h-1.919L51.17,5.119h1.919V2.988H9.061v2.132h1.919L7.036,78.676H5.01v2.133H57.14z"/>
<path fill="#636363" d="M55.115,80.809v-2.133h-1.813L49.571,5.119h1.813V2.988H10.767v2.132h1.812L8.955,78.676H7.036v2.133H55.115
	z"/>
<path fill="#707070" d="M53.089,80.809v-2.133h-1.705L47.972,5.119h1.705V2.988H12.472v2.132h1.706l-3.411,73.557h-1.6v2.133H53.089
	z"/>
<path fill="#7A7A7A" d="M51.063,80.809v-2.133h-1.599L46.479,5.119h1.493V2.988H14.178v2.132h1.599l-3.091,73.557h-1.493v2.133
	H51.063z"/>
<path fill="#878787" d="M49.038,80.809v-2.133h-1.386L44.881,5.119h1.386V2.988H15.885v2.132h1.386l-2.772,73.557h-1.279v2.133
	H49.038z"/>
<path fill="#949494" d="M47.012,80.809v-2.133h-1.279L43.281,5.119h1.279V2.988H17.696v2.132h1.173l-2.452,73.557h-1.172v2.133
	H47.012z"/>
<path fill="#9E9E9E" d="M44.987,80.809v-2.133h-1.173L41.789,5.119h1.066V2.988H19.402v2.132h1.066l-2.133,73.557H17.27v2.133
	H44.987z"/>
<path fill="#ABABAB" d="M42.962,80.809v-2.133h-0.96L40.19,5.119h0.853V2.988H21.108v2.132h0.959l-1.813,73.557h-0.959v2.133H42.962
	z"/>
<path fill="#B8B8B8" d="M40.83,80.809v-2.133h-0.746L38.591,5.119h0.746V2.988H22.813v2.132h0.853l-1.599,73.557h-0.746v2.133H40.83
	z"/>
<path fill="#C2C2C2" d="M38.804,80.809v-2.133h-0.64L36.992,5.119h0.64V2.988H24.626v2.132h0.533l-1.173,73.557h-0.533v2.133H38.804
	z"/>
<path fill="#CFCFCF" d="M36.778,80.809v-2.133h-0.426L35.5,5.119h0.426V2.988h-9.594v2.132h0.426l-0.853,73.557h-0.427v2.133H36.778
	z"/>
<path fill="#D9D9D9" d="M34.753,80.809v-2.133h-0.319L33.9,5.119h0.32V2.988h-6.184v2.132h0.32l-0.64,73.557h-0.214v2.133H34.753z"
	/>
<path fill="#E5E5E5" d="M32.727,80.809v-2.133h-0.213L32.302,5.119h0.106V2.988h-2.665v2.132h0.106l-0.213,73.557h-0.107v2.133
	h0.214h0.426h0.427h0.533h0.426h0.533h0.32H32.727z"/>
<path fill="#333333" d="M57.033,80.809H5.117v0.853l0.106,0.959l0.427,3.305l0.853,3.306l1.386,3.091l1.6,2.985l2.132,2.665
	l2.346,2.452l2.665,2.132l0.746,0.427l0.746,0.426h25.905l2.878-1.919l2.452-2.238l2.238-2.559l1.919-2.878l1.492-2.985l1.066-3.198
	l0.64-3.411l0.213-1.6l0.106-0.959V80.809z"/>
<path fill="#404040" d="M55.221,80.809H7.036v0.853v0.853l0.427,3.411l0.853,3.306l1.173,3.091l1.599,2.985l1.919,2.665l2.239,2.452
	l2.451,2.132l0.64,0.427l0.746,0.426h24.093l2.559-1.919l2.346-2.238l2.025-2.559l1.813-2.878l1.386-2.985l0.959-3.198l0.746-3.411
	l0.107-1.706l0.106-0.853V80.809z"/>
<path fill="#4A4A4A" d="M53.302,80.809H8.955v0.853v0.853l0.427,3.411l0.746,3.306l1.065,3.091l1.493,2.985l1.705,2.665l2.133,2.452
	l2.238,2.132l0.64,0.427l0.64,0.426h22.174l2.452-1.919l2.132-2.238l1.813-2.559l1.599-2.878l1.279-2.985l0.959-3.198l0.64-3.411
	l0.107-1.706l0.106-0.853V80.809z"/>
<path fill="#575757" d="M51.384,80.809H10.767v0.853v0.853l0.426,3.411l0.64,3.306l1.066,3.091l1.386,2.985l1.492,2.665l1.919,2.452
	l2.133,2.132l0.532,0.427l0.64,0.426h20.255l2.239-1.919l1.919-2.238l1.812-2.559l1.387-2.878l1.172-2.985l0.854-3.198l0.64-3.411
	l0.106-1.706v-0.853V80.809z"/>
<path fill="#616161" d="M49.571,80.809H12.686v0.853v0.853l0.426,3.411l0.533,3.306l0.96,3.091l1.172,2.985l1.493,2.665l1.705,2.452
	l1.919,2.132l0.427,0.427l0.533,0.426h18.442l2.452-2.452l1.812-2.345l1.493-2.665l1.279-2.879l0.959-3.091l0.746-3.198l0.427-3.411
	v-0.854l0.106-0.853V80.809z"/>
<path fill="#6E6E6E" d="M47.652,80.809H14.498v0.853l0.107,0.853l0.319,3.411l0.533,3.306l0.853,3.091l1.066,2.985l1.279,2.665
	l1.492,2.452l2.238,2.559l0.427,0.426h16.523l2.239-2.452l1.599-2.345l1.386-2.665l1.066-2.879l0.959-3.091l0.64-3.198l0.32-3.411
	v-0.854l0.106-0.853V80.809z"/>
<path fill="#7A7A7A" d="M45.733,80.809H16.417v0.853l0.107,0.853l0.106,1.706l0.106,1.705l0.213,1.706l0.32,1.6l0.319,1.599
	l0.427,1.492l0.426,1.493l0.533,1.492l0.533,1.386l0.533,1.279l0.746,1.279l0.64,1.173l0.746,1.065l0.746,1.066l0.427,0.427
	l0.427,0.426h14.604l0.853-0.853l0.746-1.066l0.747-1.065l0.746-1.173l0.64-1.279l0.64-1.279l0.532-1.386l0.427-1.492l0.533-1.493
	l0.427-1.492l0.319-1.599l0.213-1.6l0.214-1.706l0.213-1.705l0.106-1.706v-0.853V80.809z"/>
<path fill="#858585" d="M43.921,80.809H18.336v0.853v0.853l0.106,1.706l0.107,1.705l0.213,1.706l0.213,1.6l0.32,1.599l0.426,1.492
	l0.32,1.493l0.427,1.492l0.532,1.386l0.533,1.279l0.533,1.279l0.64,1.173l0.64,1.065l0.64,1.066l0.427,0.427l0.319,0.426h12.793
	l0.64-0.853l0.746-1.066l0.64-1.065l0.64-1.173l0.533-1.279l0.532-1.279l0.427-1.386l0.427-1.492l0.426-1.493l0.32-1.492
	l0.319-1.599l0.214-1.6l0.213-1.706l0.213-1.705v-1.706l0.106-0.853V80.809z"/>
<path fill="#919191" d="M42.002,80.809H20.255v0.853v0.853l0.106,1.706l0.107,1.705l0.106,1.706l0.213,1.6l0.213,1.599l0.32,1.492
	l0.426,1.493l0.32,1.492l0.427,1.386l0.426,1.279l0.533,1.279l0.427,1.173l0.64,1.065l0.533,1.066l0.319,0.427l0.32,0.426h10.873
	l0.64-0.853l0.533-1.066l0.533-1.065l0.533-1.173l0.532-1.279l0.427-1.279l0.427-1.386l0.319-1.492l0.32-1.493l0.319-1.492
	l0.32-1.599l0.213-1.6l0.106-1.706l0.106-1.705l0.106-1.706v-0.853V80.809z"/>
<path fill="#9E9E9E" d="M40.084,80.809H22.067v0.853l0.106,0.853v1.706l0.106,1.705l0.106,1.706l0.214,1.6l0.213,1.599l0.213,1.492
	l0.32,1.493l0.319,1.492l0.32,1.386l0.319,1.279l0.427,1.279l0.427,1.173l0.426,1.065l0.533,1.066l0.214,0.427l0.319,0.426h8.955
	l0.532-0.853l0.427-1.066l0.427-1.065l0.533-1.173l0.319-1.279l0.427-1.279l0.319-1.386l0.32-1.492l0.319-1.493l0.214-1.492
	l0.213-1.599l0.106-1.6l0.213-1.706l0.107-1.705v-1.706v-0.853V80.809z"/>
<path fill="#A8A8A8" d="M38.271,80.809H23.986v0.853v0.853l0.106,1.706v1.705l0.106,1.706l0.214,1.6l0.106,1.599l0.213,1.492
	l0.213,1.493l0.214,1.492l0.319,1.386l0.32,1.279l0.319,1.279l0.32,1.173l0.319,1.065l0.427,1.066l0.213,0.427l0.213,0.426h7.036
	l0.427-0.853l0.427-1.066l0.319-1.065l0.319-1.173l0.32-1.279l0.319-1.279l0.214-1.386l0.319-1.492l0.214-1.493l0.213-1.492
	l0.106-1.599l0.213-1.6v-1.706l0.107-1.705v-0.853l0.106-0.854v-0.853V80.809z"/>
<path fill="#B5B5B5" d="M36.352,80.809H25.905v0.853v0.853v1.706l0.106,1.705v1.706l0.106,1.6l0.106,1.599l0.214,1.492l0.106,1.493
	l0.213,1.492l0.213,1.386l0.214,1.279l0.213,1.279l0.213,1.173l0.32,1.065l0.319,1.066l0.107,0.427l0.106,0.426h5.224l0.319-0.853
	l0.32-1.066l0.213-1.065l0.32-1.173l0.213-1.279l0.213-1.279l0.214-1.386l0.106-1.492l0.213-1.493l0.106-1.492l0.213-1.599
	l0.107-1.6v-1.706l0.106-1.705v-0.853v-0.854v-0.853V80.809z"/>
<path fill="#BFBFBF" d="M34.433,80.809h-6.716v0.853v0.853v1.706l0.106,1.705v1.706l0.106,1.6l0.106,1.599l0.106,1.492l0.106,1.493
	l0.107,1.492l0.106,1.386l0.106,1.279l0.213,1.279l0.106,1.173l0.214,1.065l0.106,1.066l0.106,0.427l0.106,0.426h3.411l0.107-0.853
	l0.213-1.066l0.213-1.065l0.106-1.173l0.214-1.279l0.106-1.279l0.106-1.386l0.106-1.492l0.106-1.493l0.107-1.492l0.106-1.599v-1.6
	l0.106-1.706V84.22v-0.853v-0.854v-0.853V80.809z"/>
<path fill="#CCCCCC" d="M32.621,80.809h-2.984v0.853v0.959v1.6v1.705v1.706v1.6l0.106,1.599v1.492l0.106,1.493v1.492l0.106,1.386
	v1.279l0.106,1.279l0.106,1.173v1.065l0.107,1.066v0.427l0.106,0.426h1.386l0.213-1.386v-1.066l0.106-1.065l0.106-1.279v-1.279
	l0.107-1.386v-1.386l0.106-1.386v-1.6l0.106-1.492v-1.706v-1.599v-1.6l0.106-0.959v-0.746v-1.813V80.809z"/>
<path fill="none" stroke="#000000" stroke-width="2" d="M59.166,80.809v-2.133h-2.133l-4.37-73.557h2.132V2.988H7.249v2.132h2.133
	L5.117,78.676H2.985v2.133H59.166"/>
<path fill="none" stroke="#000000" stroke-width="2" d="M57.033,80.809H5.117v0.853l0.106,0.959l0.427,3.305l0.853,3.306
	l1.386,3.091l1.6,2.985l2.132,2.665l2.346,2.452l2.665,2.132l0.746,0.427l0.746,0.426h25.905l2.878-1.919l2.452-2.238l2.238-2.559
	l1.919-2.878l1.492-2.985l1.066-3.198l0.64-3.411l0.213-1.6l0.106-0.959V80.809"/>
<path fill="none" stroke="#000000" stroke-width="2" d="M5.117,78.676h51.916"/>
<path fill="none" stroke="#000000" stroke-width="2" d="M9.382,5.119h43.814"/>
</svg>
