<?xml version="1.0" encoding="utf-8"?>
<!-- Generator: Adobe Illustrator 14.0.0, SVG Export Plug-In . SVG Version: 6.00 Build 43363)  -->
<!DOCTYPE svg PUBLIC "-//W3C//DTD SVG 1.1//EN" "http://www.w3.org/Graphics/SVG/1.1/DTD/svg11.dtd">
<svg version="1.1" id="图层_1" xmlns="http://www.w3.org/2000/svg" xmlns:xlink="http://www.w3.org/1999/xlink" x="0px" y="0px"
	 width="85.054px" height="106.502px" viewBox="0 0 85.054 106.502" enable-background="new 0 0 85.054 106.502"
	 xml:space="preserve">
<path fill="#003333" stroke="#000000" stroke-width="2" d="M67.338,70.325h2.988v32.229h-2.988V70.325z"/>
<path fill="#003333" stroke="#000000" stroke-width="2" d="M50.477,70.325h3.202v31.055h-3.202V70.325z"/>
<path fill="#003333" stroke="#000000" stroke-width="2" d="M19.85,70.325h3.201v31.055H19.85V70.325z"/>
<path fill="#003333" stroke="#000000" stroke-width="2" d="M2.989,70.325H6.19v32.229H2.989V70.325z"/>
<path fill="#003333" stroke="#000000" stroke-width="2" d="M70.326,93.056l-16.647-2.24H19.85l-16.861,2.24v2.028l16.861-1.602
	h33.829l16.647,1.602V93.056z"/>
<path fill="#336666" d="M4.162,70.966h0.961v30.947H4.162V70.966z"/>
<path fill="#336666" d="M68.299,70.966h1.066v30.947h-1.066V70.966z"/>
<path fill="#336666" d="M70.326,70.325l-3.201,1.388l-6.19,1.067l-8.75,0.747l-10.139,0.427H31.375l-10.139-0.427l-8.644-0.747
	l-6.189-1.067l-3.415-1.388V16.648l3.415-2.668l6.189-2.134l8.644-1.708l10.139-0.96h10.671l10.139,0.96l8.75,1.708l6.19,2.134
	l3.201,2.668V70.325z"/>
<path fill="#3B6E6E" d="M68.299,70.966l-16.861,2.562l-9.392,0.427H31.908l-9.498-0.427L5.55,70.966V16.434l3.201-2.561l5.656-2.027
	l8.003-1.708l9.498-0.747h10.138l9.392,0.747l8.004,1.708l5.869,2.027l2.988,2.561V70.966z"/>
<path fill="#427575" d="M65.951,71.926l-15.688,1.602l-8.645,0.427h-9.284l-8.644-0.427L8.004,71.926V16.434l2.774-2.561
	l5.442-2.027l7.471-1.708l8.644-0.747h9.284l8.645,0.747l7.363,1.708l5.442,2.027l2.882,2.561V71.926z"/>
<path fill="#4A7D7D" d="M63.71,72.14l-14.514,1.388l-8.004,0.427h-8.431l-8.11-0.427l-14.3-1.388l-0.213-55.706l2.668-2.561
	l5.016-2.027l6.829-1.708l8.11-0.747h8.431l8.004,0.747l6.83,1.708l4.908,2.027l2.775,2.561V72.14z"/>
<path fill="#528585" d="M61.255,72.567l-13.019,0.961l-7.471,0.427h-7.684l-7.363-0.427l-13.126-0.961V16.434l2.454-2.561
	l4.589-2.027l6.083-1.708l7.363-0.747h7.684l7.471,0.747l6.082,1.708l4.589,2.027l2.348,2.561V72.567z"/>
<path fill="#598C8C" d="M58.907,72.567l-11.846,0.961l-6.723,0.427h-6.83l-6.616-0.427l-11.846-0.961V16.434l2.241-2.561
	l3.948-2.027l5.656-1.708l6.616-0.747h6.83l6.723,0.747l5.55,1.708l4.269,2.027l2.027,2.561V72.567z"/>
<path fill="#619494" d="M56.666,73.207l-10.671,0.32l-6.083,0.427h-6.189l-5.869-0.427l-10.459-0.32V16.434l1.921-2.561l3.522-2.027
	l5.016-1.708l6.082-0.747h5.977l6.083,0.747l5.016,1.708l3.628,2.027l2.027,2.561V73.207z"/>
<path fill="#6B9E9E" d="M54.319,73.314l-9.497,0.214l-5.016,0.427H34.15l-5.016-0.427l-9.498-0.214v-56.88l1.814-2.561l3.201-2.027
	l4.482-1.708l5.016-0.747h5.656l5.016,0.747l4.589,1.708l2.987,2.027l1.921,2.561V73.314z"/>
<path fill="#73A6A6" d="M51.865,73.528l-12.485,0.427h-4.803l-12.485-0.427V16.434l1.387-2.561l2.774-2.027l3.842-1.708l4.482-0.747
	h4.803l4.375,0.747l3.842,1.708l2.881,2.027l1.388,2.561V73.528z"/>
<path fill="#7AADAD" d="M49.623,73.528l-10.672,0.427h-4.055l-10.352-0.427V16.434l1.174-2.561l2.135-2.027l3.308-1.708l3.735-0.747
	h4.055l3.842,0.747l3.202,1.708l2.241,2.027l1.387,2.561V73.528z"/>
<path fill="#82B5B5" d="M47.169,73.74l-8.645,0.214h-3.201L26.68,73.74V16.434l0.96-2.561l2.027-2.027l2.668-1.708l2.988-0.747
	h3.201l3.095,0.747l2.562,1.708l2.027,2.027l0.961,2.561V73.74z"/>
<path fill="#8ABDBD" d="M44.822,73.74l-6.617,0.214H35.75l-6.616-0.214V16.434l0.747-2.561l1.494-2.027l1.921-1.708l2.454-0.747
	h2.454l2.349,0.747l2.027,1.708l1.387,2.027l0.854,2.561V73.74z"/>
<path fill="#91C4C4" d="M42.58,73.528l-4.803,0.427h-1.601l-4.695-0.427V16.434l0.427-2.561l1.067-2.027l1.388-1.708l1.813-0.747
	h1.601l1.814,0.747l1.388,1.708l1.066,2.027l0.534,2.561V73.528z"/>
<path fill="#99CCCC" d="M39.912,73.74l-2.774,0.214h-0.961l-2.668-0.214V18.035l0.427-2.562l0.641-2.241l0.747-1.601l0.854-0.854
	h0.961l1.066,0.854l0.747,1.601l0.641,2.241l0.32,2.562V73.74z"/>
<path fill="none" stroke="#000000" stroke-width="2" d="M70.326,70.325l-3.201,1.388l-6.19,1.067l-8.75,0.747l-10.139,0.427H31.375
	l-10.139-0.427l-8.644-0.747l-6.189-1.067l-3.415-1.388V16.648l3.415-2.668l6.189-2.134l8.644-1.708l10.139-0.96h10.671l10.139,0.96
	l8.75,1.708l6.19,2.134l3.201,2.668V70.325"/>
<path fill="none" stroke="#336666" stroke-width="2" d="M70.326,18.462l-3.201,1.174l-6.19,1.067l-8.75,0.746l-10.139,0.428H31.375
	l-10.139-0.428l-8.644-0.746l-6.189-1.067l-3.415-1.174"/>
<path fill="#336666" stroke="#000000" stroke-width="2" d="M49.41,16.007l-2.028,1.601l-3.415,1.281l-4.802,0.533H34.15
	l-4.589-0.533l-3.415-1.281l-2.027-1.601v2.028l2.027,1.601l3.415,1.067l4.589,0.746h5.016l4.802-0.746l3.415-1.067l2.028-1.601
	V16.007z"/>
<ellipse fill="#669999" stroke="#000000" stroke-width="2" cx="36.711" cy="15.26" rx="12.592" ry="4.482"/>
<path fill="#336666" stroke="#000000" stroke-width="2" d="M13.66,72.993h2.988v30.521H13.66V72.993z"/>
<path fill="#336666" stroke="#000000" stroke-width="2" d="M56.666,72.993h3.202v30.521h-3.202V72.993z"/>
<path fill="#669999" d="M57.627,73.954h1.28v28.6h-1.28V73.954z"/>
<path fill="#669999" d="M14.62,73.954h0.961v28.6H14.62V73.954z"/>
<path fill="#336666" stroke="#000000" stroke-width="2" d="M2.989,95.084l8.431,2.24h50.69l8.217-2.24v-2.028l-8.217,1.388h-50.69
	l-8.431-1.388V95.084z"/>
<path fill="#003333" d="M33.509,2.989h6.403v6.829h-6.403V2.989z"/>
<path fill="#1F5252" d="M34.15,2.989h5.229v6.189H34.15V2.989z"/>
<path fill="#3D7070" d="M34.576,2.989h4.375v6.189h-4.375V2.989z"/>
<path fill="#5C8F8F" d="M35.11,2.989h3.202v6.189H35.11V2.989z"/>
<path fill="#7AADAD" d="M35.75,2.989h2.027v6.189H35.75V2.989z"/>
<path fill="#99CCCC" d="M36.177,2.989h1.174v6.189h-1.174V2.989z"/>
<path fill="none" stroke="#000000" stroke-width="2" d="M33.509,2.989h6.403v6.189h-6.403V2.989"/>
<path fill="#7F7F7F" stroke="#000000" stroke-width="2" d="M79.824,100.953V42.046l-13.66-23.798l1.921-0.96l13.873,24.117v59.548
	H79.824z"/>
<path fill="#7F7F7F" d="M74.808,48.662l5.977-1.601l0.427,0.96l-6.296,1.602L74.808,48.662z"/>
<path fill="#7F7F7F" d="M74.808,61.468l5.977-1.601l0.427,1.067l-6.296,1.601L74.808,61.468z"/>
<path fill="#7F7F7F" d="M74.808,73.528l5.977-1.602l0.427,1.067l-6.296,1.601L74.808,73.528z"/>
<path fill="#7F7F7F" d="M74.808,85.586l5.977-1.601l0.427,1.067l-6.296,1.601L74.808,85.586z"/>
<path fill="#B2B2B2" d="M74.808,85.586l5.977-1.601l-0.214-0.961l-6.189,1.601L74.808,85.586z"/>
<path fill="#B2B2B2" d="M74.808,48.662l5.977-1.601l-0.214-1.28l-6.189,1.601L74.808,48.662z"/>
<path fill="#B2B2B2" d="M74.808,61.468l5.977-1.601l-0.214-0.96l-6.189,1.601L74.808,61.468z"/>
<path fill="#B2B2B2" d="M74.808,73.528l5.977-1.602l-0.214-0.96l-6.189,1.601L74.808,73.528z"/>
<path fill="#7F7F7F" stroke="#000000" stroke-width="2" d="M73.528,103.514V44.608L59.868,20.81l1.813-0.961l14.087,24.118v59.547
	H73.528z"/>
</svg>
