<?xml version="1.0" encoding="utf-8"?>
<!-- Generator: Adobe Illustrator 14.0.0, SVG Export Plug-In . SVG Version: 6.00 Build 43363)  -->
<!DOCTYPE svg PUBLIC "-//W3C//DTD SVG 1.1//EN" "http://www.w3.org/Graphics/SVG/1.1/DTD/svg11.dtd">
<svg version="1.1" id="图层_1" xmlns="http://www.w3.org/2000/svg" xmlns:xlink="http://www.w3.org/1999/xlink" x="0px" y="0px"
	 width="56.261px" height="106.502px" viewBox="0 0 56.261 106.502" enable-background="new 0 0 56.261 106.502"
	 xml:space="preserve">
<path fill="#7F7F7F" stroke="#000000" stroke-width="2" d="M36.57,15.677V7.238l-0.201-0.804L35.967,5.63l-0.804-0.804l-1.005-0.603
	l-1.406-0.603L31.345,3.42l-1.607-0.401h-3.215L24.915,3.42l-1.406,0.201l-1.406,0.603l-1.005,0.603L20.294,5.63l-0.402,0.804
	l-0.2,0.804v8.439l0.2,0.804l0.402,0.804l0.804,0.804l1.005,0.603l1.406,0.604l1.406,0.2l1.607,0.402h3.215l1.607-0.402l1.407-0.2
	l1.406-0.604l1.005-0.603l0.804-0.804l0.401-0.804L36.57,15.677z"/>
<path fill="#999999" d="M35.163,15.677V7.238l-0.201-0.804L34.56,5.63l-0.603-0.804l-0.804-0.603l-1.205-0.603L30.742,3.42
	l-1.205-0.401h-2.813L25.518,3.42l-1.205,0.201l-1.206,0.603l-0.804,0.603L21.7,5.63l-0.401,0.804l-0.201,0.804v8.439l0.201,0.804
	l0.401,0.804l0.603,0.804l0.804,0.603l1.206,0.604l1.205,0.2l1.206,0.402h2.813l1.205-0.402l1.206-0.2l1.205-0.604l0.804-0.603
	l0.603-0.804l0.402-0.804L35.163,15.677z"/>
<ellipse fill="#B2B2B2" cx="28.13" cy="11.458" rx="5.023" ry="8.439"/>
<ellipse fill="#CCCCCC" cx="28.13" cy="11.458" rx="2.813" ry="8.439"/>
<path fill="none" stroke="#000000" stroke-width="2" d="M36.57,7.238l-0.201,0.201L35.967,7.64l-0.804,0.201l-1.005,0.2h-1.406
	l-1.407,0.201h-1.607H28.13h-1.607h-1.607l-1.406-0.201h-1.406l-1.005-0.2L20.294,7.64l-0.402-0.201l-0.2-0.201"/>
<path fill="none" stroke="#000000" stroke-width="2" d="M36.57,15.677l-0.201,0.201l-0.401,0.201l-0.804,0.2l-1.005,0.201
	l-1.406,0.201h-1.407l-1.607,0.201H28.13h-1.607l-1.607-0.201h-1.406l-1.406-0.201l-1.005-0.201l-0.804-0.2l-0.402-0.201l-0.2-0.201
	"/>
<path fill="#7F7F7F" stroke="#000000" stroke-width="2" d="M7.234,23.915h41.794v75.35H7.234V23.915z"/>
<path fill="#999999" d="M11.453,23.915h33.354v75.35H11.453V23.915z"/>
<path fill="#B2B2B2" d="M15.673,23.915h25.116v75.35H15.673V23.915z"/>
<path fill="#CCCCCC" d="M21.902,23.915H34.36v75.35H21.902V23.915z"/>
<path fill="#999999" stroke="#000000" stroke-width="2" d="M3.014,99.265h50.233v4.219H3.014V99.265z"/>
<path fill="#999999" stroke="#000000" stroke-width="2" d="M3.014,19.696h50.233v4.22H3.014V19.696z"/>
<path fill="#666666" stroke="#000000" stroke-width="2" d="M5.224,23.915h4.019v4.22H5.224V23.915z"/>
<path fill="#666666" stroke="#000000" stroke-width="2" d="M47.018,23.915h4.22v4.22h-4.22V23.915z"/>
<path fill="#7F7F7F" stroke="#000000" stroke-width="2" d="M17.682,23.915h4.22v4.22h-4.22V23.915z"/>
<path fill="#7F7F7F" stroke="#000000" stroke-width="2" d="M34.36,23.915h4.219v4.22H34.36V23.915z"/>
<path fill="#666666" stroke="#000000" stroke-width="2" d="M5.224,95.045h4.019v4.22H5.224V95.045z"/>
<path fill="#666666" stroke="#000000" stroke-width="2" d="M47.018,95.045h4.22v4.22h-4.22V95.045z"/>
<path fill="#7F7F7F" stroke="#000000" stroke-width="2" d="M17.682,95.045h4.22v4.22h-4.22V95.045z"/>
<path fill="#7F7F7F" stroke="#000000" stroke-width="2" d="M34.36,95.045h4.219v4.22H34.36V95.045z"/>
</svg>
