<?xml version="1.0" encoding="utf-8"?>
<!-- Generator: Adobe Illustrator 14.0.0, SVG Export Plug-In . SVG Version: 6.00 Build 43363)  -->
<!DOCTYPE svg PUBLIC "-//W3C//DTD SVG 1.1//EN" "http://www.w3.org/Graphics/SVG/1.1/DTD/svg11.dtd">
<svg version="1.1" id="图层_1" xmlns="http://www.w3.org/2000/svg" xmlns:xlink="http://www.w3.org/1999/xlink" x="0px" y="0px"
	 width="66.204px" height="106.502px" viewBox="0 0 66.204 106.502" enable-background="new 0 0 66.204 106.502"
	 xml:space="preserve">
<path fill="#669999" stroke="#000000" stroke-width="2" d="M32.409,7.782h14.818l-0.106,1.066l-0.214,0.959l-0.426,0.96
	l-0.533,0.853l-0.533,0.854l-0.746,0.853l-0.853,0.746l-0.96,0.746l-1.066,0.64l-1.173,0.533l-1.172,0.533l-1.279,0.427
	l-1.387,0.319l-1.386,0.213l-1.492,0.214h-1.492h-1.493l-1.492-0.214l-1.386-0.213l-1.386-0.319l-1.279-0.427L24.2,15.991
	l-1.173-0.533l-1.066-0.64l-0.959-0.746l-0.854-0.746l-0.746-0.853l-0.533-0.854l-0.532-0.853l-0.32-0.96l-0.213-0.959l-0.106-1.066
	H32.409z"/>
<path stroke="#000000" stroke-width="2" d="M42.111,97.867h14.712v5.543H42.111V97.867z"/>
<path stroke="#000000" stroke-width="2" d="M7.889,97.867h14.712v5.543H7.889V97.867z"/>
<path fill="#669999" d="M7.889,4.051H12.9v17.804H7.889V4.051z"/>
<path fill="#8FC2C2" d="M8.529,4.051h3.625v17.804H8.529V4.051z"/>
<path fill="#CCFFFF" d="M9.595,4.051H11.3v17.804H9.595V4.051z"/>
<path fill="none" stroke="#000000" stroke-width="2" d="M7.889,4.051H12.9v17.804H7.889V4.051"/>
<path fill="#669999" d="M52.025,4.051h4.798v17.804h-4.798V4.051z"/>
<path fill="#8FC2C2" d="M52.664,4.051h3.625v17.804h-3.625V4.051z"/>
<path fill="#CCFFFF" d="M53.731,4.051h1.386v17.804h-1.386V4.051z"/>
<path fill="none" stroke="#000000" stroke-width="2" d="M52.025,4.051h4.798v17.804h-4.798V4.051"/>
<path fill="#669999" d="M61.833,97.12l-0.214,0.32l-2.771,1.279l-2.985,0.64l-2.771,0.319l-3.198,0.32l-3.518,0.319l-3.945,0.107
	l-4.157,0.213H36.78h-1.386h-1.492h-4.478l-4.371-0.106l-4.051-0.106l-3.838-0.214l-3.412-0.319l-3.092-0.32l-3.411-0.533
	l-2.985-0.853l-1.172-0.746l-0.107-0.106V97.12V21.855l1.279-2.771l2.239-1.6l3.198-1.492l2.878-0.959l3.412-0.747l3.625-0.746
	l4.051-0.426l4.265-0.32l1.492-0.106h1.386h1.6h2.984l2.879,0.106l4.157,0.427l3.945,0.533l3.518,0.746l3.198,0.853l2.771,0.96
	l2.985,1.599l2.346,2.132l0.533,1.279l0.106,0.533V97.12z"/>
<path fill="#7AADAD" d="M57.142,97.12l-2.451,1.6l-3.198,0.746l-3.412,0.427l-2.878,0.319l-3.198,0.214l-3.519,0.106l-2.346,0.106
	h-1.279h-1.279h-3.73l-3.625-0.106l-3.411-0.106l-3.198-0.214l-2.985-0.319l-3.305-0.427l-3.198-0.746l-2.452-1.386V97.12v-2.345
	V21.855l1.065-2.771l2.452-2.025l2.879-1.386l2.559-0.854l2.985-0.853l3.198-0.533l3.411-0.533l3.625-0.213h1.279h1.279l3.73,0.106
	l3.519,0.32l3.411,0.426l3.092,0.746l2.772,0.747l3.198,1.279l2.559,1.599l1.919,2.132l0.426,1.279l0.106,0.533v2.239V97.12z"/>
<path fill="#8FC2C2" d="M52.345,97.12l-0.106,0.32l-2.239,1.492l-3.518,0.746l-2.879,0.427l-3.411,0.32l-3.731,0.213h-2.025h-2.025
	h-4.052l-3.731-0.213l-3.305-0.32l-2.984-0.427l-3.519-0.746l-2.346-1.492l-0.106-0.32v-2.345l0.106-3.944v-3.412v-2.985
	l0.106-4.051v-3.944v-11.62v-4.585v-5.437l-0.106-3.092v-3.305v-3.625v-3.944v-4.265l-0.106-4.478v-4.903v-5.331l0.96-2.771
	l2.559-2.346l2.452-1.386l2.984-1.066l3.305-0.853l3.731-0.64l2.025-0.106h2.026h2.025l3.944,0.427l3.519,0.64l3.198,1.065
	l2.771,1.173l2.985,2.239l1.386,2.665l0.106,0.959v2.239V97.12z"/>
<path fill="#A3D6D6" d="M47.334,97.12v0.32l-2.559,1.706l-2.878,0.746l-3.625,0.533l-2.879,0.213h-1.492h-1.492h-3.092l-4.158-0.32
	l-3.411-0.64l-2.559-0.746l-1.706-1.492l-0.106-0.32v-2.345V21.855l0.64-2.771l1.919-2.346l2.879-1.919l3.73-1.386l2.772-0.64
	l1.492-0.106h1.6h1.492l2.878,0.427l2.772,0.64l3.411,1.599l2.665,2.132l1.387,2.559l0.319,0.854v0.959v2.239V97.12z"/>
<path fill="#B8EBEB" d="M42.644,97.12l-1.706,2.026l-2.771,0.959l-3.731,0.533h-0.96h-1.065l-3.092-0.106l-3.412-0.64l-2.559-0.96
	l-1.172-1.492l-0.107-0.32v-2.345V21.855l0.854-3.624l1.599-2.239l2.133-1.706l2.665-1.172l2.025-0.427h1.066h1.065l2.985,0.746
	l2.559,1.386l2.452,2.665l0.959,2.559l0.214,0.854v0.959v2.239V97.12z"/>
<path fill="#CCFFFF" d="M37.952,97.12l-1.599,2.559l-2.879,0.96h-1.065l-3.092-0.533l-2.346-2.238l-0.106-0.747V21.855l0.427-3.624
	l1.172-2.879l2.239-2.238l1.706-0.427l2.559,1.066l1.705,2.238l0.96,3.092l0.319,2.771V97.12z"/>
<path fill="none" stroke="#000000" stroke-width="2" d="M61.833,97.12l-0.214,0.32l-2.771,1.279l-2.985,0.64l-2.771,0.319
	l-3.198,0.32l-3.518,0.319l-3.945,0.107l-4.157,0.213H36.78h-1.386h-1.492h-4.478l-4.371-0.106l-4.051-0.106l-3.838-0.214
	l-3.412-0.319l-3.092-0.32l-3.411-0.533l-2.985-0.853l-1.172-0.746l-0.107-0.106V97.12V21.855l1.279-2.771l2.239-1.6l3.198-1.492
	l2.878-0.959l3.412-0.747l3.625-0.746l4.051-0.426l4.265-0.32l1.492-0.106h1.386h1.6h2.984l2.879,0.106l4.157,0.427l3.945,0.533
	l3.518,0.746l3.198,0.853l2.771,0.96l2.985,1.599l2.346,2.132l0.533,1.279l0.106,0.533V97.12"/>
<path fill="none" stroke="#000000" stroke-width="2" d="M2.985,21.855h58.849v3.519H2.985V21.855"/>
<ellipse fill="#B2E5E5" cx="32.409" cy="7.783" rx="14.712" ry="4.797"/>
<ellipse fill="#99CCCC" cx="32.302" cy="8.849" rx="12.154" ry="3.731"/>
<ellipse fill="#7FB2B2" cx="32.516" cy="10.128" rx="9.914" ry="2.452"/>
<ellipse fill="none" stroke="#000000" stroke-width="2" cx="32.409" cy="7.783" rx="14.712" ry="4.797"/>
<path fill="#336666" stroke="#000000" stroke-width="2" d="M49.893,87.632H60.98v10.555H49.893V87.632z"/>
<path stroke="#7F7F7F" stroke-width="2" d="M47.974,98.187h15.245v1.386H47.974V98.187z"/>
<path fill="#669999" stroke="#000000" stroke-width="2" d="M60.98,84.008v3.624H49.893v-1.386l5.544-0.853L60.98,84.008z"/>
</svg>
