<?xml version="1.0" encoding="utf-8"?>
<!-- Generator: Adobe Illustrator 14.0.0, SVG Export Plug-In . SVG Version: 6.00 Build 43363)  -->
<!DOCTYPE svg PUBLIC "-//W3C//DTD SVG 1.1//EN" "http://www.w3.org/Graphics/SVG/1.1/DTD/svg11.dtd">
<svg version="1.1" id="图层_1" xmlns="http://www.w3.org/2000/svg" xmlns:xlink="http://www.w3.org/1999/xlink" x="0px" y="0px"
	 width="81.382px" height="106.502px" viewBox="0 0 81.382 106.502" enable-background="new 0 0 81.382 106.502"
	 xml:space="preserve">
<path fill="#7F7F7F" d="M9.418,9.18H2.898V2.901h75.586V9.18h-6.278v88.143h6.278v6.279H2.898v-6.279h6.521V9.18z"/>
<path fill="#999999" d="M14.49,9.18H9.418V2.901h62.787V9.18h-5.313v88.143h5.313v6.279H9.418v-6.279h5.071V9.18z"/>
<path fill="#B2B2B2" d="M19.802,9.18h-4.105V2.901h50.229V9.18h-4.105v88.143h4.105v6.279H15.697v-6.279h4.105V9.18z"/>
<path fill="#CCCCCC" d="M26.323,9.18h-2.898V2.901h34.533V9.18H55.06v88.143h2.897v6.279H23.424v-6.279h2.898V9.18z"/>
<path fill="#E5E5E5" d="M32.842,9.18h-1.448V2.901H50.23V9.18h-1.69v88.143h1.69v6.279H31.394v-6.279h1.448V9.18z"/>
<path fill="#FFFFFF" d="M38.156,9.18h-0.483V2.901h6.278V9.18h-0.482v88.143h0.482v6.279h-6.278v-6.279h0.483V9.18z"/>
<path fill="#B2B2B2" stroke="#000000" stroke-width="2" d="M26.564,9.18h3.14v6.278h-3.14V9.18z"/>
<path fill="#B2B2B2" stroke="#000000" stroke-width="2" d="M39.121,9.18h3.139v6.278h-3.139V9.18z"/>
<path fill="#B2B2B2" stroke="#000000" stroke-width="2" d="M51.679,9.18h3.139v6.278h-3.139V9.18z"/>
<path fill="#B2B2B2" stroke="#000000" stroke-width="2" d="M26.564,91.044h3.14v6.278h-3.14V91.044z"/>
<path fill="#B2B2B2" stroke="#000000" stroke-width="2" d="M39.121,91.044h3.139v6.278h-3.139V91.044z"/>
<path fill="#B2B2B2" stroke="#000000" stroke-width="2" d="M51.679,91.044h3.139v6.278h-3.139V91.044z"/>
<path fill="#999999" stroke="#000000" stroke-width="2" d="M72.205,91.044h3.139v6.278h-3.139V91.044z"/>
<path fill="#999999" stroke="#000000" stroke-width="2" d="M64.236,91.044h3.14v6.278h-3.14V91.044z"/>
<path fill="#999999" stroke="#000000" stroke-width="2" d="M6.279,91.044h3.14v6.278h-3.14V91.044z"/>
<path fill="#999999" stroke="#000000" stroke-width="2" d="M14.006,91.044h3.14v6.278h-3.14V91.044z"/>
<path fill="#999999" stroke="#000000" stroke-width="2" d="M72.205,9.18h3.139v6.278h-3.139V9.18z"/>
<path fill="#999999" stroke="#000000" stroke-width="2" d="M64.236,9.18h3.14v6.278h-3.14V9.18z"/>
<path fill="#999999" stroke="#000000" stroke-width="2" d="M6.279,9.18h3.14v6.278h-3.14V9.18z"/>
<path fill="#999999" stroke="#000000" stroke-width="2" d="M14.006,9.18h3.14v6.278h-3.14V9.18z"/>
<path fill="none" stroke="#000000" stroke-width="2" d="M9.418,97.323h62.787"/>
<path fill="none" stroke="#000000" stroke-width="2" d="M9.418,9.18h62.787"/>
<path fill="none" stroke="#000000" stroke-width="2" d="M9.418,9.18H2.898V2.901h75.586V9.18h-6.278v88.143h6.278v6.279H2.898
	v-6.279h6.521V9.18"/>
</svg>
