<?xml version="1.0" encoding="utf-8"?>
<!-- Generator: Adobe Illustrator 14.0.0, SVG Export Plug-In . SVG Version: 6.00 Build 43363)  -->
<!DOCTYPE svg PUBLIC "-//W3C//DTD SVG 1.1//EN" "http://www.w3.org/Graphics/SVG/1.1/DTD/svg11.dtd">
<svg version="1.1" id="图层_1" xmlns="http://www.w3.org/2000/svg" xmlns:xlink="http://www.w3.org/1999/xlink" x="0px" y="0px"
	 width="89.654px" height="106.502px" viewBox="0 0 89.654 106.502" enable-background="new 0 0 89.654 106.502"
	 xml:space="preserve">
<path fill="#4C4C4C" stroke="#000000" stroke-width="2" d="M79.846,63.645h-8.422v20.895h1.706v14.712h5.011V84.539h1.705V63.645z"
	/>
<path fill="#4C4C4C" stroke="#000000" stroke-width="2" d="M35.392,63.645H26.97v20.895h1.706v14.712h5.011V84.539h1.705V63.645z"/>
<path fill="#7F7F7F" stroke="#000000" stroke-width="2" d="M71.532,101.383v-2.132h5.863v2.132H71.532z"/>
<path fill="#7F7F7F" stroke="#000000" stroke-width="2" d="M27.078,101.383v-2.132h5.863v2.132H27.078z"/>
<path stroke="#000000" stroke-width="2" d="M77.395,101.383v-2.132h2.451v2.132H77.395z"/>
<path stroke="#000000" stroke-width="2" d="M32.941,101.383v-2.132h2.451v2.132H32.941z"/>
<path fill="#7F7F7F" d="M2.985,28.146v33.474L23.88,82.514l20.895,4.158l21.001-4.158L86.67,61.619V28.146L74.091,15.567h10.447
	l2.132-6.29l-2.132-6.289H5.117L2.985,9.277l2.132,6.29h10.447L2.985,28.146z"/>
<path fill="#949494" d="M10.128,28.039v33.474l17.376,21.001l17.377,4.158l17.376-4.158l17.377-21.001V28.039L69.186,15.567h8.635
	l1.813-6.396l-1.813-6.183H11.833L10.128,9.17l1.705,6.396h8.742L10.128,28.039z"/>
<path fill="#A8A8A8" d="M13.432,28.039v33.474l15.671,21.001l15.777,4.158l15.671-4.158l15.671-21.001V28.039l-9.382-12.473h7.782
	l1.6-6.396l-1.6-6.183H15.031L13.432,9.17l1.599,6.396h7.782L13.432,28.039z"/>
<path fill="#BDBDBD" d="M19.721,28.039v33.474l12.58,21.001l12.579,4.158l12.473-4.158l12.579-21.001V28.039L62.47,15.567h6.289
	l1.173-6.396L68.76,2.988H21.001L19.721,9.17l1.279,6.396h6.184L19.721,28.039z"/>
<path fill="#D1D1D1" d="M30.169,28.039v33.474l7.356,21.001l7.355,4.158l7.249-4.158l7.355-21.001V28.039l-4.37-12.473h3.73
	l0.64-6.396l-0.64-6.183h-27.93L30.169,9.17l0.747,6.396h3.624L30.169,28.039z"/>
<path fill="#E5E5E5" d="M40.616,28.146v33.474l2.133,20.895l2.025,4.158l2.132-4.158l2.132-20.895V28.146l-1.279-12.579h1.066
	l0.213-6.29l-0.213-6.289H40.83l-0.214,6.289l0.214,6.29h1.065L40.616,28.146z"/>
<path fill="none" stroke="#FFFFFF" stroke-width="2" d="M5.117,28.146H86.67"/>
<path fill="none" stroke="#666666" stroke-width="2" d="M5.117,61.619h79.421"/>
<path fill="none" stroke="#666666" stroke-width="2" d="M28.037,82.514H61.51"/>
<path fill="#4C4C4C" d="M80.486,21.857l-6.396-6.29H15.564l-6.503,6.396l2.985-1.173l3.198-0.746l2.878-0.533l3.305-0.533
	l3.625-0.427l3.837-0.319l4.052-0.32l4.37-0.106l2.985-0.106l2.984-0.106h2.985l4.478,0.106l4.264,0.213l4.158,0.214l3.944,0.319
	l3.73,0.32l3.306,0.533l3.091,0.426l3.519,0.854l2.665,0.853l0.533,0.213L80.486,21.857z"/>
<path fill="none" stroke="#000000" stroke-width="2" d="M15.564,15.567h58.526"/>
<path fill="none" stroke="#000000" stroke-width="2" d="M2.985,28.146v33.474L23.88,82.514l20.895,4.158l21.001-4.158L86.67,61.619
	V28.146L74.091,15.567h10.447l2.132-6.29l-2.132-6.289H5.117L2.985,9.277l2.132,6.29h10.447L2.985,28.146"/>
<path fill="#666666" d="M17.59,73.56L7.142,63.645v20.895h2.132v16.737h6.29V84.539h2.025V73.56z"/>
<path fill="#B2B2B2" stroke="#000000" stroke-width="2" d="M7.142,103.408v-2.132h7.355v2.132H7.142z"/>
<path fill="#666666" stroke="#000000" stroke-width="2" d="M14.498,103.408v-2.132h3.092v2.132H14.498z"/>
<path fill="#878787" d="M16.204,72.6l-7.569-7.355v19.295h1.493v16.737h4.584V84.539h1.492V72.6z"/>
<path fill="#ABABAB" d="M14.925,71.533l-4.903-4.69v17.696h0.959v16.737h2.878V84.539h1.066V71.533z"/>
<path fill="#CCCCCC" d="M13.432,69.935l-2.025-2.132v16.736h0.319v16.737h1.279V84.539h0.427V69.935z"/>
<path fill="none" stroke="#000000" stroke-width="2" d="M17.59,73.56L7.142,63.645v20.895h2.132v16.737h6.29V84.539h2.025V73.56"/>
<path fill="none" stroke="#000000" stroke-width="2" d="M9.274,84.539h6.29"/>
<path fill="#666666" d="M65.242,63.645l-10.554,0.533v20.361h2.132v16.737h6.29V84.539h2.132V63.645z"/>
<path fill="#B2B2B2" stroke="#000000" stroke-width="2" d="M54.795,103.408v-2.132h7.249v2.132H54.795z"/>
<path fill="#666666" stroke="#000000" stroke-width="2" d="M62.044,103.408v-2.132h3.198v2.132H62.044z"/>
<path fill="#878787" d="M63.856,63.645l-7.676,0.533v20.361h1.492v16.737h4.691V84.539h1.492V63.645z"/>
<path fill="#ABABAB" d="M62.577,64.178h-5.011v20.361h0.96v16.737h2.984V84.539h0.96L62.577,64.178z"/>
<path fill="#CCCCCC" d="M60.978,64.178h-2.026v20.361h0.427v16.737h1.279V84.539h0.32V64.178z"/>
<path fill="none" stroke="#000000" stroke-width="2" d="M65.242,63.645l-10.554,0.533v20.361h2.132v16.737h6.29V84.539h2.132V63.645
	"/>
<path fill="none" stroke="#000000" stroke-width="2" d="M56.82,84.539h6.29"/>
</svg>
