<?xml version="1.0" encoding="utf-8"?>
<!-- Generator: Adobe Illustrator 14.0.0, SVG Export Plug-In . SVG Version: 6.00 Build 43363)  -->
<!DOCTYPE svg PUBLIC "-//W3C//DTD SVG 1.1//EN" "http://www.w3.org/Graphics/SVG/1.1/DTD/svg11.dtd">
<svg version="1.1" id="图层_1" xmlns="http://www.w3.org/2000/svg" xmlns:xlink="http://www.w3.org/1999/xlink" x="0px" y="0px"
	 width="74.592px" height="106.502px" viewBox="0 0 74.592 106.502" enable-background="new 0 0 74.592 106.502"
	 xml:space="preserve">
<path fill="#CCCCCC" stroke="#000000" stroke-width="2" d="M24.864,27.533L19.208,6.617l-1.92,0.961l5.549,19.528L24.864,27.533z"/>
<path fill="#333333" d="M28.172,20.704l1.921-0.427l1.388,4.802l-1.921,0.64L28.172,20.704z"/>
<path fill="#7F7F7F" stroke="#000000" stroke-width="2" d="M21.876,30.095H2.988v-0.961h18.888V30.095z"/>
<path fill="#B2B2B2" stroke="#000000" stroke-width="2" d="M12.593,30.095l0.427-6.083h8.856l-0.64,1.494l2.24-0.427l-0.64-2.988
	H10.991l-1.387,8.644L12.593,30.095z"/>
<path fill="#7F7F7F" d="M70.537,25.506l-1.601-0.641l-3.201-0.427l-4.589-0.533l-5.656-0.214l-6.296-0.213h-6.402l-6.402,0.213
	l-5.442,0.214l-4.589,0.533l-3.309,0.427l-1.813,0.641v74.379l1.813,1.066l3.309,0.961l4.589,0.854l5.442,0.533l6.402,0.214h6.402
	l6.296-0.214l5.656-0.533l4.589-0.854l3.201-0.961l1.601-1.066V25.506z"/>
<path fill="#858585" d="M68.403,25.292l-1.602-0.64l-2.881-0.32l-4.269-0.427l-5.016-0.214l-5.549-0.213h-6.083l-5.655,0.213
	l-5.016,0.214l-4.162,0.427l-3.094,0.32l-1.388,0.64v75.02l1.388,1.066l3.094,0.747l4.162,0.641l5.016,0.533l5.655,0.214h6.083
	l5.549-0.214l5.016-0.533l4.269-0.641l2.881-0.747l1.602-1.066V25.292z"/>
<path fill="#8A8A8A" d="M66.162,25.079l-1.388-0.427l-2.668-0.641l-3.841-0.106l-4.376-0.214l-5.229-0.213h-5.229l-5.229,0.213
	l-4.695,0.214l-3.628,0.106l-2.562,0.641l-1.387,0.427v75.659l1.387,0.747l2.562,0.854l3.628,0.641l4.695,0.319l5.229,0.214h5.229
	l5.016-0.214l4.589-0.319l3.841-0.641l2.668-0.854l1.388-0.747V25.079z"/>
<path fill="#8F8F8F" d="M63.921,24.865l-1.387-0.427l-2.241-0.427l-3.415-0.106l-4.055-0.214l-4.376-0.213h-4.802l-4.481,0.213
	l-4.162,0.214l-3.309,0.106l-2.348,0.427l-1.174,0.427v76.086l1.174,0.747l2.348,0.641l3.309,0.641l4.162,0.319l4.481,0.214h4.802
	l4.376-0.214l4.055-0.319l3.415-0.641l2.454-0.641l0.961-0.747L63.921,24.865z"/>
<path fill="#949494" d="M61.467,24.653l-0.961-0.32l-2.027-0.32l-2.774-0.32l-3.628-0.213H48.02h-4.055h-3.948l-3.628,0.213
	l-2.882,0.32l-2.027,0.32l-1.174,0.32v76.726l1.174,0.534l2.027,0.64l2.882,0.428l3.628,0.319l3.948,0.214h4.055l4.056-0.214
	l3.414-0.319l2.988-0.428l2.027-0.64l0.961-0.534V24.653z"/>
<path fill="#999999" d="M59.332,24.439l-0.854-0.427l-1.813-0.106l-2.562-0.214l-3.095-0.213h-3.415h-3.415h-3.414l-2.988,0.213
	l-2.454,0.214l-1.814,0.106l-0.747,0.427v77.26l0.747,0.641l1.814,0.427l2.454,0.427l2.988,0.106l3.414,0.214h3.415l3.415-0.214
	l3.095-0.106l2.562-0.427l1.813-0.427l0.854-0.641V24.439z"/>
<path fill="#9E9E9E" d="M57.092,24.332l-0.747-0.32l-1.494-0.106l-2.027-0.214l-2.562-0.213h-2.881h-2.774h-2.775l-2.667,0.213
	l-2.028,0.214l-1.387,0.106l-0.747,0.32v77.793l0.747,0.427l1.387,0.428l2.028,0.213l2.667,0.106l2.775,0.214h2.774l2.881-0.214
	l2.562-0.106l2.027-0.213l1.494-0.428l0.747-0.427V24.332z"/>
<path fill="#A3A3A3" d="M54.85,24.012l-0.534-0.106l-1.28-0.214h-1.601l-2.027-0.213h-2.135h-2.454h-2.241l-2.027,0.213H38.95
	l-1.174,0.214l-0.641,0.106v78.327l0.641,0.427l1.174,0.427l1.601,0.106h2.027l2.241,0.214h2.454l2.135-0.214h2.027l1.601-0.106
	l1.28-0.427l0.534-0.427V24.012z"/>
<path fill="#A8A8A8" d="M52.503,23.906l-0.427-0.214h-0.854l-1.174-0.213h-1.602h-1.601h-1.601h-1.813h-1.494l-1.174,0.213h-0.961
	l-0.427,0.214v78.86l0.427,0.214l0.961,0.213l1.174,0.106l1.494,0.214h1.813h1.601h1.601l1.602-0.214l1.174-0.106l0.854-0.213
	l0.427-0.214V23.906z"/>
<path fill="#ADADAD" d="M50.261,23.692h-0.213l-0.641-0.213h-0.747h-1.067h-0.96H45.46h-1.067h-0.96h-0.854l-0.64,0.213h-0.32
	v79.501l0.32,0.106h0.64l0.854,0.214h0.96h1.067h1.174h0.96h1.067l0.747-0.214h0.641l0.213-0.106V23.692z"/>
<path fill="#B2B2B2" d="M48.02,23.479h-0.213h-0.214h-0.32h-0.427h-0.64h-0.641h-0.32h-0.64h-0.214h-0.427v80.034h0.427h0.214h0.64
	h0.32h0.641h0.64h0.427h0.32h0.214h0.213V23.479z"/>
<path fill="none" stroke="#000000" stroke-width="2" d="M70.537,25.506l-1.601-0.641l-3.201-0.427l-4.589-0.533l-5.656-0.214
	l-6.296-0.213h-6.402l-6.402,0.213l-5.442,0.214l-4.589,0.533l-3.309,0.427l-1.813,0.641v74.379l1.813,1.066l3.309,0.961
	l4.589,0.854l5.442,0.533l6.402,0.214h6.402l6.296-0.214l5.656-0.533l4.589-0.854l3.201-0.961l1.601-1.066V25.506"/>
<path fill="#999999" stroke="#000000" stroke-width="2" d="M21.236,78.863l0.854,0.106l3.415,0.854l4.588,0.641l6.083,0.32
	l6.402,0.213h6.616l6.724-0.213l5.762-0.32l4.909-0.641l3.415-0.854l0.533-0.106v-0.854l1.067,0.428v0.747l-1.601,0.854
	l-3.415,0.747l-4.909,0.64l-5.762,0.427l-6.724,0.214h-6.616l-6.402-0.214l-6.083-0.427l-4.588-0.64l-3.415-0.747l-1.814-0.854
	v-0.747l0.961-0.428V78.863z"/>
<path fill="#999999" stroke="#000000" stroke-width="2" d="M21.236,47.809l0.854-0.213l3.415-0.534l4.588-0.64l6.083-0.428
	l6.402-0.213h6.616l6.724,0.213l5.762,0.428l4.909,0.64l3.415,0.534l0.533,0.213v0.854l1.067-0.427v-0.854l-1.601-0.747
	l-3.415-0.641l-4.909-0.64l-5.762-0.32l-6.724-0.427h-6.616l-6.402,0.427l-6.083,0.32l-4.588,0.64l-3.415,0.641l-1.814,0.747v0.854
	l0.961,0.427V47.809z"/>
<path fill="#999999" stroke="#000000" stroke-width="2" d="M21.236,41.726l0.854-0.319l3.415-1.067l4.588-0.961l6.083-0.96
	l6.402-1.067l6.616-0.64l6.724-0.32l5.762-0.214l4.909,0.214l3.415,0.32l0.533,0.213v0.641l1.067-0.427v-0.747l-1.601-0.641
	l-3.415-0.427l-4.909-0.213l-5.762,0.213l-6.724,0.427l-6.616,0.641l-6.402,0.96l-6.083,0.747l-4.588,1.28l-3.415,0.961
	l-1.814,1.067v0.747l0.961,0.213V41.726z"/>
<path fill="#999999" stroke="#000000" stroke-width="2" d="M21.236,34.15l0.854-0.213l3.415-1.174l4.588-1.067l6.083-0.961
	l6.402-0.854l6.616-0.533l6.724-0.641h10.671l3.415,0.427l0.533,0.214v0.747l1.067-0.427v-0.747l-1.601-0.747l-3.415-0.534H55.918
	l-6.724,0.534l-6.616,0.747l-6.402,0.747l-6.083,1.066l-4.588,0.961l-3.415,1.28l-1.814,0.747v1.067l0.961,0.106V34.15z"/>
<path fill="#7F7F7F" d="M30.947,2.99l4.161,15.9l-11.845,3.201l-4.162-15.9L30.947,2.99z"/>
<path fill="#8C8C8C" d="M30.306,3.203l4.269,15.793L23.69,21.878l-4.269-15.9L30.306,3.203z"/>
<path fill="#999999" d="M29.88,3.203l4.269,15.793l-9.817,2.668L20.062,5.978L29.88,3.203z"/>
<path fill="#A6A6A6" d="M29.345,3.31l4.162,15.9l-8.644,2.454l-4.162-15.9L29.345,3.31z"/>
<path fill="#B2B2B2" d="M28.706,3.524l4.269,15.899l-7.684,2.028l-4.269-15.9L28.706,3.524z"/>
<path fill="#BFBFBF" d="M28.279,3.737l4.269,15.9l-6.616,1.601l-4.269-15.9L28.279,3.737z"/>
<path fill="#CCCCCC" d="M27.745,3.737l4.162,15.9l-5.442,1.601l-4.375-15.9L27.745,3.737z"/>
<path fill="#D9D9D9" d="M27.105,3.95L31.48,19.85l-4.589,1.174L22.73,5.124L27.105,3.95z"/>
<path fill="#E5E5E5" d="M26.678,4.163l4.269,15.9l-3.415,0.747L23.263,5.017L26.678,4.163z"/>
<path fill="#F2F2F2" d="M26.038,4.163l4.269,15.9l-2.135,0.747L23.69,5.017L26.038,4.163z"/>
<path fill="#FFFFFF" d="M25.505,4.377l4.375,15.9l-1.388,0.427l-4.161-15.9L25.505,4.377z"/>
<path fill="none" stroke="#000000" stroke-width="2" d="M30.947,2.99l4.161,15.9l-11.845,3.201l-4.162-15.9L30.947,2.99"/>
<path fill="none" stroke="#000000" stroke-width="2" d="M20.062,10.246l11.845-3.309"/>
<path fill="none" stroke="#FFFFFF" stroke-width="2" d="M24.65,15.262L23.263,9.82l5.442-1.388"/>
<path fill="none" stroke="#999999" stroke-width="2" d="M24.65,15.262l5.442-1.494l-1.387-5.336"/>
<path fill="#E59898" d="M29.666,8.646l1.494-0.427l2.348,8.43l-1.601,0.427L29.666,8.646z"/>
<path fill="#99CC99" d="M29.559,40.339H62.32v50.368H29.559V40.339z"/>
<path fill="#91C491" d="M31.374,40.339h29.132v50.368H31.374V40.339z"/>
<path fill="#8CBF8C" d="M33.187,40.339h25.718v50.368H33.187V40.339z"/>
<path fill="#85B885" d="M35.002,40.339h22.09v50.368h-22.09V40.339z"/>
<path fill="#7FB27F" d="M36.816,40.339h18.461v50.368H36.816V40.339z"/>
<path fill="#78AB78" d="M38.63,40.339h14.833v50.368H38.63V40.339z"/>
<path fill="#73A673" d="M40.444,40.339h11.205v50.368H40.444V40.339z"/>
<path fill="#6B9E6B" d="M42.259,40.339h7.576v50.368h-7.576V40.339z"/>
<path fill="#669966" d="M43.966,40.339h4.055v50.368h-4.055V40.339z"/>
<path fill="none" stroke="#000000" stroke-width="2" d="M29.559,90.707V40.339H62.32"/>
<path fill="#333333" d="M33.508,40.339h2.241l13.339,50.368H47.06L33.508,40.339z"/>
<path fill="none" stroke="#CCFFCC" stroke-width="2" d="M62.32,40.339v50.368H29.559"/>
<path fill="#666666" stroke="#000000" stroke-width="2" d="M48.661,86.653l-2.027-1.388l-1.174,2.241l-3.095,0.533h-2.348
	l-1.388-0.427l-0.213-0.747l0.96-1.067l2.241-1.174l2.774-1.174l2.027,1.388l0.961-2.241l3.095-0.427h2.348l1.493,0.427l0.214,0.854
	l-1.067,0.961l-2.027,1.28L48.661,86.653z"/>
<path fill="#666666" stroke="#000000" stroke-width="2" d="M43.752,68.938l-1.921-1.174l-1.28,2.135l-2.987,0.427h-2.241
	l-1.388-0.427l-0.213-0.747l1.066-1.067l2.028-1.174l2.774-0.96l2.027,1.174l1.174-2.028l2.988-0.533h2.24l1.388,0.32l0.213,0.854
	l-0.96,0.961l-2.027,1.28L43.752,68.938z"/>
</svg>
