<?xml version="1.0" encoding="utf-8"?>
<!-- Generator: Adobe Illustrator 14.0.0, SVG Export Plug-In . SVG Version: 6.00 Build 43363)  -->
<!DOCTYPE svg PUBLIC "-//W3C//DTD SVG 1.1//EN" "http://www.w3.org/Graphics/SVG/1.1/DTD/svg11.dtd">
<svg version="1.1" id="图层_1" xmlns="http://www.w3.org/2000/svg" xmlns:xlink="http://www.w3.org/1999/xlink" x="0px" y="0px"
	 width="80.251px" height="106.502px" viewBox="0 0 80.251 106.502" enable-background="new 0 0 80.251 106.502"
	 xml:space="preserve">
<path fill="#333333" stroke="#000000" stroke-width="2" d="M21.5,82.001v17.251h-4.75V75.501L21.5,82.001z"/>
<path fill="#333333" stroke="#000000" stroke-width="2" d="M58.251,82.001v17.251h4.75V75.501L58.251,82.001z"/>
<path fill="#7F7F7F" stroke="#000000" stroke-width="2" d="M77.251,68.001v-37l-0.75-3.75l-2.25-3.5l-3.5-3L66.251,18l-5.5-2.25
	L54.501,14L47.5,12.75L40,12.5l-7.5,0.25L25.75,14l-6.25,1.75L14,18l-4.75,2.751l-3.25,3l-2.25,3.5L3,31.001v37l0.75,3.75l2.25,3.5
	l3.25,3l4.75,2.75l5.5,2.25l6.25,1.751l6.75,1.25l7.5,0.25l7.5-0.25l7.001-1.25l6.25-1.751l5.5-2.25l4.5-2.75l3.5-3l2.25-3.5
	L77.251,68.001z"/>
<path fill="#999999" d="M71.001,68.001v-37l-0.75-3.75l-1.75-3.5l-2.75-3L62.001,18l-4.75-2.25L52.001,14l-5.751-1.25L40,12.5
	l-6.25,0.25L28,14l-5.25,1.75L18.25,18l-3.75,2.751l-2.75,3l-2,3.5l-0.5,3.75v37l0.5,3.75l2,3.5l2.75,3l3.75,2.75l4.5,2.25
	L28,85.002l5.75,1.25l6.25,0.25l6.25-0.25l5.751-1.25l5.25-1.751l4.75-2.25l3.75-2.75l2.75-3l1.75-3.5L71.001,68.001z"/>
<path fill="#B2B2B2" d="M61.751,68.001v-37l-0.5-3.75l-1.25-3.5l-2-3L55.501,18l-3.25-2.25L48.5,14l-4-1.25L40,12.5l-4.25,0.25
	l-4,1.25L28,15.75L24.75,18l-2.5,2.751l-2,3l-1.25,3.5l-0.5,3.75v37l0.5,3.75l1.25,3.5l2,3l2.5,2.75l3.25,2.25l3.75,1.751l4,1.25
	l4.25,0.25l4.5-0.25l4-1.25l3.751-1.751l3.25-2.25l2.5-2.75l2-3l1.25-3.5L61.751,68.001z"/>
<path fill="#CCCCCC" d="M52.501,68.001v-37l-0.25-3.75l-0.75-3.5l-1-3L49,18l-2-2.25L45,14l-2.5-1.25L40,12.5l-2.5,0.25L35.25,14
	l-2,1.75l-2,2.25l-1.5,2.751l-1,3l-0.75,3.5l-0.25,3.75v37l0.25,3.75l0.75,3.5l1,3l1.5,2.75l2,2.25l2,1.751l2.25,1.25l2.5,0.25
	l2.5-0.25l2.5-1.25l2-1.751l2-2.25l1.501-2.75l1-3l0.75-3.5L52.501,68.001z"/>
<path fill="none" stroke="#000000" stroke-width="2" d="M77.251,31.001l-0.75,1l-2.25,0.75l-3.5,0.75l-4.5,0.75l-5.5,0.5l-6.25,0.5
	l-7.001,0.25H40h-7.5l-6.75-0.25l-6.25-0.5l-5.5-0.5l-4.75-0.75L6,32.751l-2.25-0.75l-0.75-1"/>
<path fill="none" stroke="#000000" stroke-width="2" d="M77.251,68.001l-0.75,1l-2.25,0.75l-3.5,0.75l-4.5,0.75l-5.5,0.75
	l-6.25,0.25l-7.001,0.5H40h-7.5l-6.75-0.5l-6.25-0.25l-5.5-0.75l-4.75-0.75L6,69.751l-2.25-0.75l-0.75-1"/>
<path fill="#7F7F7F" stroke="#000000" stroke-width="2" d="M67.251,19.501l2.25-8.751V8.5l-1.25-2l-2.25-1.75l-3-1.25l-1.75-0.25
	L59.751,3l-1.5,0.25l-1.25,0.25L55.751,4l-1,0.75l-0.75,0.75l-0.5,1l-2.25,8.75v0.5l0.5,0.25l0.5,0.75l1,0.5l1,0.5l1.5,0.5
	l1.5,0.501l1.5,0.5l1.5,0.5l1.5,0.25l1.5,0.25h2.25l0.75-0.25l0.75-0.25L67.251,19.501z"/>
<path fill="#999999" d="M65.751,19.001l2.25-8.501l0.25-2.25l-1-2l-1.75-1.75l-2.5-1l-1.5-0.25h-1.25l-1.25,0.25l-1,0.25l-1.25,0.5
	L56.001,5l-0.5,1l-0.5,1l-2.25,8.5l0.25,0.75l1.25,1l2,1.251l2.5,0.75l2.5,0.5h2.25l1.5-0.25L65.751,19.001z"/>
<path fill="#B2B2B2" d="M63.751,18.501l2.5-8.501l0.25-2.25l-0.75-2l-1-1.5l-1.75-0.75h-2L59.251,4l-1.25,1.5l-1,2l-2.5,8.5
	l0.25,0.75l0.75,1l1.5,0.751l1.75,0.75l1.75,0.25h1.5l1.25-0.25L63.751,18.501z"/>
<path fill="#CCCCCC" d="M61.251,17.75l2.25-8.5l0.5-2.25V5.25L63.501,4l-0.5-0.5h-1l-1,1l-0.75,1.75l-0.75,2l-2.25,8.5v0.75
	l0.25,0.75l0.5,0.751l0.75,0.25h0.75l0.75-0.25l0.75-0.5L61.251,17.75z"/>
<path fill="none" stroke="#000000" stroke-width="2" d="M53.501,6.5V7l0.5,0.5l0.75,0.5l0.75,0.5l1.25,0.75l1.25,0.5l1.5,0.5
	l1.5,0.5l1.5,0.25l1.5,0.25l1.5,0.25h1.25h1h1l0.5-0.25l0.25-0.5"/>
<path fill="#333333" stroke="#000000" stroke-width="2" d="M13.5,80.251v23.251H7.25V71.751L13.5,80.251z"/>
<path fill="#333333" stroke="#000000" stroke-width="2" d="M66.251,80.251v23.251h6.25V71.751L66.251,80.251z"/>
<path fill="#4C4C4C" d="M12.5,79.251v24.251H8.25V73.251L12.5,79.251z"/>
<path fill="#4C4C4C" d="M67.251,79.251v24.251h4.25V73.251L67.251,79.251z"/>
<path fill="#666666" d="M11.5,78.001v25.501H9.25V75.501L11.5,78.001z"/>
<path fill="#666666" d="M68.251,78.001v25.501h2.25V75.501L68.251,78.001z"/>
</svg>
