<?xml version="1.0" encoding="utf-8"?>
<!-- Generator: Adobe Illustrator 14.0.0, SVG Export Plug-In . SVG Version: 6.00 Build 43363)  -->
<!DOCTYPE svg PUBLIC "-//W3C//DTD SVG 1.1//EN" "http://www.w3.org/Graphics/SVG/1.1/DTD/svg11.dtd">
<svg version="1.1" id="图层_1" xmlns="http://www.w3.org/2000/svg" xmlns:xlink="http://www.w3.org/1999/xlink" x="0px" y="0px"
	 width="33.265px" height="106.502px" viewBox="0 0 33.265 106.502" enable-background="new 0 0 33.265 106.502"
	 xml:space="preserve">
<path fill="#4C4C4C" d="M4.052,7.889h23.455v1.066H4.052V7.889z"/>
<path fill="#4C4C4C" d="M4.052,14.925h23.455v1.066H4.052V14.925z"/>
<path fill="#4C4C4C" d="M4.052,21.855h23.455v1.066H4.052V21.855z"/>
<path fill="#4C4C4C" d="M4.052,28.891h23.455v1.066H4.052V28.891z"/>
<path fill="#4C4C4C" d="M4.052,35.821h23.455v1.066H4.052V35.821z"/>
<path fill="#4C4C4C" d="M4.052,42.857h23.455v1.066H4.052V42.857z"/>
<path fill="#4C4C4C" d="M4.052,49.786h23.455v1.173H4.052V49.786z"/>
<path fill="#4C4C4C" d="M4.052,56.823h23.455v1.066H4.052V56.823z"/>
<path fill="#4C4C4C" d="M4.052,63.752h23.455v1.173H4.052V63.752z"/>
<path fill="#4C4C4C" d="M4.052,70.788h23.455v1.066H4.052V70.788z"/>
<path fill="#4C4C4C" d="M4.052,77.824h23.455v1.066H4.052V77.824z"/>
<path fill="#4C4C4C" d="M4.052,84.754h23.455v1.066H4.052V84.754z"/>
<path fill="#4C4C4C" d="M4.052,91.79h23.455v1.066H4.052V91.79z"/>
<path fill="#4C4C4C" d="M4.052,98.72h23.455v1.066H4.052V98.72z"/>
<path fill="#666666" d="M26.44,68.443V7.356L26.228,6.93l-3.092-1.173L19.724,5.33l-3.198-0.213l-3.305,0.106l-2.985,0.213
	L7.037,5.97L4.798,6.93L4.585,7.356v61.087H26.44z"/>
<path fill="#757575" d="M25.907,68.443V6.93l-3.092-1.066L19.511,5.33l-2.985-0.213l-3.198,0.106l-2.878,0.319L7.464,6.184
	L5.118,6.93v61.513H25.907z"/>
<path fill="#828282" d="M25.587,68.443V6.503H25.48l-2.878-0.746L19.403,5.33l-2.984-0.213l-2.985,0.106L9.809,5.543L6.611,6.184
	L5.438,6.503l0,0v61.939H25.587z"/>
<path fill="#919191" d="M25.161,68.443V6.397L25.054,6.29l-2.771-0.533L19.19,5.33l-2.771-0.213l-3.838,0.106L9.383,5.543
	L6.611,6.076L5.864,6.29v0.106v62.046H25.161z"/>
<path fill="#9E9E9E" d="M24.628,68.443V6.184h-0.107l-3.305-0.641l-2.984-0.319l-1.813-0.106l-3.625,0.106L9.703,5.543L6.824,6.076
	L6.397,6.184l0,0v62.259H24.628z"/>
<path fill="#ADADAD" d="M23.562,68.443V5.864l-2.984-0.427l-3.519-0.319h-0.747l-3.198,0.106L9.809,5.543l-2.345,0.32H7.357v62.579
	H23.562z"/>
<path fill="#BABABA" d="M23.136,68.443V5.864L19.724,5.33l-3.518-0.213l-3.518,0.106L9.596,5.437L7.89,5.864v62.579H23.136z"/>
<path fill="#C9C9C9" d="M21.429,68.443V5.543l0,0l-3.091-0.319l-2.239-0.106l-3.518,0.106L9.596,5.543H9.489v62.899H21.429z"/>
<path fill="#D6D6D6" d="M18.978,68.443V5.33l0,0h-0.213h-0.32l-0.426-0.106h-0.533l-0.64-0.106h-0.64h-0.746h-0.64h-0.64
	l-0.64,0.106h-0.533h-0.426l-0.32,0.106h-0.213h-0.106v63.112H18.978z"/>
<path fill="#E5E5E5" d="M15.992,68.443V5.33V5.224h-0.106l-0.213-0.106h-0.213l-0.213,0.106H15.14L14.926,5.33l0,0v63.112H15.992z"
	/>
<path fill="#595959" d="M4.585,68.443v32.729l0.213,0.533l2.985,1.065l3.518,0.427l3.091,0.213h3.305l2.984-0.319l3.199-0.533
	l2.346-0.853l0.213-0.533V68.443H4.585z"/>
<path fill="#696969" d="M5.012,68.443v33.156l3.092,1.065l3.305,0.533l2.985,0.213h3.198l2.879-0.426l2.985-0.64l2.452-0.746V68.443
	H5.012z"/>
<path fill="#757575" d="M5.438,68.443v33.582v0.106l2.878,0.64l3.305,0.533l2.878,0.106h2.985l3.624-0.426l3.198-0.64l1.173-0.32
	h0.106V68.443H5.438z"/>
<path fill="#858585" d="M5.864,68.443v33.796l0,0l2.772,0.64l3.092,0.426l2.772,0.106l3.838-0.106l3.305-0.319l2.772-0.533
	l0.639-0.213h0.107V68.443H5.864z"/>
<path fill="#919191" d="M6.291,68.443v33.902h0.106l3.305,0.64l3.091,0.319l1.706,0.106h3.731l2.984-0.213l2.985-0.533l0.214-0.106
	l0.105-0.106v-0.106V68.443H6.291z"/>
<path fill="#A1A1A1" d="M7.357,68.443v34.328l2.985,0.32l3.518,0.319h0.746l3.305-0.106l3.305-0.319l2.346-0.32v0.106V68.443H7.357z
	"/>
<path fill="#ADADAD" d="M7.89,68.443v34.542l3.305,0.319l3.518,0.106h2.985l3.092-0.106l2.132-0.213l0.106-0.106V68.443H7.89z"/>
<path fill="#BDBDBD" d="M9.489,68.443v34.755l0,0h0.106l2.985,0.213h1.706h3.518l3.198-0.213h0.426V68.443H9.489z"/>
<path fill="#C9C9C9" d="M11.941,68.443v34.755h0.106h0.213l0.213,0.106h0.533l0.533,0.106h0.533h0.64h0.747h0.746h0.64h0.64
	l0.533-0.106h0.319h0.319l0.213-0.106h0.107V68.443H11.941z"/>
<path fill="#D9D9D9" d="M14.926,68.443v34.755v0.106h0.213l0.106,0.106h0.213h0.213l0.213-0.106h0.106v-0.106V68.443H14.926z"/>
<path fill="none" stroke="#000000" stroke-width="2" d="M26.44,101.172l-0.213,0.533l-2.986,1.065l-3.518,0.427l-2.025,0.213h-1.066
	h-1.172l-3.198-0.106l-3.731-0.426l-3.092-0.747l-0.64-0.426l-0.213-0.32v-0.213V7.356L4.798,6.93l2.985-1.173l3.411-0.427
	l2.026-0.106l1.066-0.106h1.173l3.198,0.106l3.731,0.427l3.092,0.853l0.747,0.427l0.105,0.213l0.107,0.213V101.172"/>
<path fill="none" stroke="#7F7F7F" stroke-width="2" d="M4.585,68.443H26.44"/>
<path fill="none" stroke="#7F7F7F" stroke-width="2" d="M4.585,59.701H26.44"/>
<path fill="none" stroke="#7F7F7F" stroke-width="2" d="M4.585,51.066H26.44"/>
<path fill="none" stroke="#7F7F7F" stroke-width="2" d="M4.585,42.323H26.44"/>
<path fill="none" stroke="#7F7F7F" stroke-width="2" d="M4.585,23.667l0.853-0.427l0.959-0.106l1.386-0.213l1.599-0.106l0.853-0.107
	h1.066l0.959-0.106h1.066h1.066h2.239h1.066h1.066l0.959,0.106l1.919,0.107l1.599,0.106l1.279,0.213l1.066,0.106l0.854,0.427"/>
<path fill="none" stroke="#7F7F7F" stroke-width="2" d="M4.585,33.582l0.853-0.427l0.959-0.213l1.386-0.214l1.599-0.106h0.853
	l0.959-0.106h1.066h0.959h1.066h2.239h1.173h0.959h1.066l1.813,0.106l1.6,0.106l1.385,0.214l0.96,0.213l0.96,0.427"/>
<path fill="none" stroke="#7F7F7F" stroke-width="2" d="M4.585,16.098l0.853-0.853l0.959-0.427l1.386-0.319l1.599-0.214l0.853-0.106
	l1.066-0.106l0.959-0.106h1.066l1.066-0.106h2.239l1.066,0.106h1.066l0.959,0.106l0.959,0.106l1.813,0.213l1.492,0.32l1.066,0.319
	l0.854,0.427l0.533,0.64"/>
<path fill="none" stroke="#7F7F7F" stroke-width="2" d="M26.44,84.861l-0.96,0.427l-0.96,0.213l-1.279,0.106l-1.705,0.214h-0.854
	l-0.959,0.106h-0.959h-1.066h-1.066h-2.239h-1.066h-1.066h-1.066l-1.812-0.106l-1.599-0.214L6.397,85.5l-0.959-0.213l-0.853-0.427"
	/>
<path fill="none" stroke="#7F7F7F" stroke-width="2" d="M26.44,76.118l-0.96,0.427l-0.96,0.213l-1.279,0.107l-1.705,0.213h-0.854
	l-0.959,0.106h-0.959h-1.066h-1.066h-2.239h-1.066h-1.066h-1.066l-1.812-0.106l-1.599-0.213l-1.386-0.107l-0.959-0.213l-0.853-0.427
	"/>
<path fill="none" stroke="#7F7F7F" stroke-width="2" d="M26.44,92.536l-0.96,0.854l-0.96,0.319l-1.279,0.32l-1.705,0.213
	l-0.854,0.106l-0.959,0.106l-0.959,0.106l-1.066,0.107h-1.066h-2.239h-1.066l-1.066-0.107l-1.066-0.106l-0.959-0.106L8.53,94.136
	l-1.493-0.214l-1.173-0.426l-0.853-0.32l-0.427-0.64"/>
<path fill="none" stroke="#FFFFFF" stroke-width="2" d="M15.459,5.117v98.293"/>
<path fill="none" stroke="#000000" stroke-width="2" d="M4.585,7.889l0.213-0.426l1.066-0.64l1.173-0.32L8.53,6.184l1.706-0.214
	l0.959-0.106h1.066l1.066-0.106h1.066h2.239h1.066l1.066,0.106h0.959l0.959,0.106l1.706,0.214l1.493,0.319l1.172,0.32l0.854,0.426
	l0.32,0.214l0.213,0.426"/>
<path fill="none" stroke="#000000" stroke-width="2" d="M4.585,8.422l0.213-0.427l1.066-0.532l1.173-0.427l1.493-0.32l1.706-0.213
	l0.959-0.106h1.066l1.066-0.106h1.066h2.239h1.066l1.066,0.106h0.959l0.959,0.106l1.706,0.213l1.493,0.32l1.172,0.427l0.854,0.319
	l0.32,0.213l0.213,0.427"/>
<path fill="#E5E5E5" d="M8.316,6.823h0.64v96.055h-0.64V6.823z"/>
<path fill="#E5E5E5" d="M3.519,7.889h0.533v93.816H3.519V7.889z"/>
<path fill="#666666" d="M2.986,7.889h0.533v93.816H2.986V7.889z"/>
<path fill="#666666" d="M7.89,6.823h0.533v96.055H7.89V6.823z"/>
<path fill="none" stroke="#FFCC00" stroke-width="2" d="M4.585,5.224l0.213-0.533l1.066-0.533l1.173-0.319l1.493-0.32l1.706-0.213
	l0.959-0.106l1.066-0.106l1.066-0.107h1.066h2.239h1.066l1.066,0.107l0.959,0.106l0.959,0.106l1.706,0.213l1.493,0.32l1.172,0.319
	l0.854,0.32l0.32,0.213l0.213,0.533"/>
<path fill="none" stroke="#FFCC00" stroke-width="2" d="M4.585,6.29l0.213-0.427l1.066-0.64l1.173-0.32L8.53,4.584l1.706-0.213
	l0.959-0.107l1.066-0.106l1.066-0.106h1.066h2.239h1.066l1.066,0.106l0.959,0.106l0.959,0.107l1.706,0.213l1.493,0.319l1.172,0.32
	l0.854,0.427l0.32,0.213L26.44,6.29"/>
<path fill="none" stroke="#FFCC00" stroke-width="2" d="M4.585,7.356V5.117"/>
<path fill="none" stroke="#FFCC00" stroke-width="2" d="M26.44,5.117v2.238"/>
<path fill="none" stroke="#FFCC00" stroke-width="2" d="M7.89,5.757V3.518"/>
<path fill="none" stroke="#FFCC00" stroke-width="2" d="M22.603,5.757V3.518"/>
<path fill="none" stroke="#FFCC00" stroke-width="2" d="M11.728,5.224V2.985"/>
<path fill="none" stroke="#FFCC00" stroke-width="2" d="M19.298,5.117V2.985"/>
<path fill="none" stroke="#FFCC00" stroke-width="2" d="M15.459,5.117V2.985"/>
<path fill="#B2B2B2" d="M27.507,7.995h0.532v93.816h-0.532V7.995z"/>
<path fill="#B2B2B2" d="M29.638,7.889h0.641v93.816h-0.641V7.889z"/>
<path fill="#B2B2B2" d="M28.039,8.422V7.889h1.706v0.533H28.039z"/>
<path fill="#B2B2B2" d="M28.039,13.433V12.9h1.706v0.533H28.039z"/>
<path fill="#B2B2B2" d="M28.039,18.444V17.91h1.706v0.533H28.039z"/>
<path fill="#B2B2B2" d="M28.039,23.454v-0.533h1.706v0.533H28.039z"/>
<path fill="#B2B2B2" d="M28.039,28.465v-0.533h1.706v0.533H28.039z"/>
<path fill="#B2B2B2" d="M28.039,33.475v-0.64h1.706v0.64H28.039z"/>
<path fill="#B2B2B2" d="M28.039,38.486v-0.64h1.706v0.64H28.039z"/>
<path fill="#B2B2B2" d="M28.039,43.39v-0.533h1.706v0.533H28.039z"/>
<path fill="#B2B2B2" d="M28.039,48.401v-0.533h1.706v0.533H28.039z"/>
<path fill="#B2B2B2" d="M28.039,53.411v-0.533h1.706v0.533H28.039z"/>
<path fill="#B2B2B2" d="M28.039,58.422v-0.533h1.706v0.533H28.039z"/>
<path fill="#B2B2B2" d="M28.039,63.433V62.9h1.706v0.533H28.039z"/>
<path fill="#B2B2B2" d="M28.039,68.443v-0.64h1.706v0.64H28.039z"/>
<path fill="#B2B2B2" d="M28.039,73.453v-0.64h1.706v0.64H28.039z"/>
<path fill="#B2B2B2" d="M28.039,78.358v-0.533h1.706v0.533H28.039z"/>
<path fill="#B2B2B2" d="M28.039,83.368v-0.533h1.706v0.533H28.039z"/>
<path fill="#B2B2B2" d="M28.039,88.379v-0.533h1.706v0.533H28.039z"/>
<path fill="#B2B2B2" d="M28.039,93.39v-0.533h1.706v0.533H28.039z"/>
<path fill="#B2B2B2" d="M28.039,98.4v-0.532h1.706V98.4H28.039z"/>
</svg>
