<?xml version="1.0" encoding="utf-8"?>
<!-- Generator: Adobe Illustrator 14.0.0, SVG Export Plug-In . SVG Version: 6.00 Build 43363)  -->
<!DOCTYPE svg PUBLIC "-//W3C//DTD SVG 1.1//EN" "http://www.w3.org/Graphics/SVG/1.1/DTD/svg11.dtd">
<svg version="1.1" id="图层_1" xmlns="http://www.w3.org/2000/svg" xmlns:xlink="http://www.w3.org/1999/xlink" x="0px" y="0px"
	 width="34.646px" height="106.502px" viewBox="0 0 34.646 106.502" enable-background="new 0 0 34.646 106.502"
	 xml:space="preserve">
<path fill="none" stroke="#FFCC00" stroke-width="2" d="M29.636,7.038V5.013l-0.107-0.214L28.677,4.16l-1.173-0.32l-1.492-0.319
	l-0.853-0.107l-0.96-0.106L23.134,3.2l-1.066-0.106l-1.066-0.106h-1.172H18.55h-2.452h-1.279h-1.173l-1.173,0.106L11.407,3.2
	l-0.96,0.106L9.488,3.413l-1.706,0.32L6.503,4.053l-0.959,0.32L5.117,4.799L5.01,5.013v2.025"/>
<path fill="none" stroke="#FFCC00" stroke-width="2" d="M9.061,3.413v2.133"/>
<path fill="none" stroke="#FFCC00" stroke-width="2" d="M13.219,3.094v2.025"/>
<path fill="none" stroke="#FFCC00" stroke-width="2" d="M17.27,2.988v2.025"/>
<path fill="none" stroke="#FFCC00" stroke-width="2" d="M21.427,3.094v2.025"/>
<path fill="none" stroke="#FFCC00" stroke-width="2" d="M25.478,3.413v2.133"/>
<path fill="none" stroke="#FFCC00" stroke-width="2" d="M5.01,6.078l0.106-0.213l0.853-0.64l1.173-0.319l1.492-0.32L9.488,4.48
	l0.959-0.106l0.96-0.106l1.065-0.106l1.173-0.107h1.173l1.279-0.106h2.452l1.279,0.106h1.172l1.066,0.107l1.066,0.106l1.065,0.106
	l0.96,0.106l1.599,0.213l1.386,0.427l0.96,0.319l0.426,0.427l0.107,0.213"/>
<path fill="#8C8C8C" d="M29.636,101.383l-0.107,0.213l-2.771,1.066l-3.624,0.533l-3.305,0.213H18.55H17.27h-3.625l-3.198-0.319
	l-3.305-0.533l-2.025-0.96l-0.106-0.213V7.038l0.106-0.213l2.665-1.066l3.625-0.533l3.411-0.213h1.279h1.173l3.73,0.106l3.198,0.213
	l3.305,0.64l2.025,0.854l0.107,0.213V101.383z"/>
<path fill="#A6A6A6" d="M27.184,101.383l-0.214,0.427l-2.665,1.065l-3.198,0.427l-1.812,0.106h-0.96H17.27h-2.879l-3.305-0.427
	l-2.878-0.746l-0.533-0.426l-0.213-0.214v-0.213V7.038l0.213-0.427l2.665-1.065l3.092-0.427l1.919-0.106h0.959h0.96l2.984,0.106
	l3.305,0.319l2.879,0.854l0.532,0.319l0.107,0.214l0.106,0.213V101.383z"/>
<path fill="#BFBFBF" d="M26.118,101.383v0.213l-2.559,1.279l-2.771,0.427l-1.706,0.106h-0.853H17.27l-3.412-0.106l-2.771-0.427
	l-2.559-1.279l-0.106-0.213V7.038l0.106-0.213l2.559-1.279l2.771-0.427l1.706-0.106h0.853h0.854l3.518,0.106l2.771,0.427
	l2.559,1.279v0.213V101.383z"/>
<path fill="#D9D9D9" d="M24.519,101.383l-0.106,0.427l-2.559,1.172l-3.092,0.427h-0.746H17.27l-3.412-0.213l-2.878-0.854
	l-0.746-0.532l-0.106-0.214v-0.213V7.038l0.106-0.427l2.452-1.173l3.198-0.426h0.639h0.747l3.518,0.213l2.878,0.853l0.747,0.533
	v0.214l0.106,0.213V101.383z"/>
<path fill="#F2F2F2" d="M21.001,101.383v0.427l-2.984,1.599H17.27l-3.092-0.853l-0.533-0.746v-0.427V7.038V6.612l2.878-1.599h0.747
	l3.091,0.959l0.64,0.64v0.427V101.383z"/>
<path fill="none" stroke="#000000" stroke-width="2" d="M29.636,101.383l-0.107,0.213l-2.771,1.066l-3.624,0.533l-3.305,0.213H18.55
	H17.27h-3.625l-3.198-0.319l-3.305-0.533l-2.025-0.96l-0.106-0.213V7.038l0.106-0.213l2.665-1.066l3.625-0.533l3.411-0.213h1.279
	h1.173l3.73,0.106l3.198,0.213l3.305,0.64l2.025,0.854l0.107,0.213V101.383"/>
<path fill="none" stroke="#7F7F7F" stroke-width="2" d="M5.01,23.455l0.106-0.213l0.853-0.533l1.173-0.427l1.492-0.319l0.854-0.106
	l0.959-0.107l0.96-0.106l1.065-0.106h1.173l1.173-0.106h1.279h2.452h1.279l1.172,0.106h1.066l1.066,0.106l1.065,0.106l0.96,0.107
	l1.599,0.319l1.386,0.32l0.96,0.319l0.426,0.427l0.107,0.213"/>
<path fill="none" stroke="#7F7F7F" stroke-width="2" d="M5.01,44.99l0.106-0.106l0.853-0.32l1.173-0.106l1.492-0.213l1.813-0.106
	h0.96l1.065-0.107h1.173h1.173l1.279-0.106h2.452l1.279,0.106h1.172h1.066l1.066,0.107h1.065l1.813,0.106l1.492,0.213l1.173,0.106
	l0.853,0.32l0.107,0.106"/>
<path fill="none" stroke="#7F7F7F" stroke-width="2" d="M29.636,84.966l-0.107,0.213l-0.853,0.64l-1.173,0.32l-1.492,0.319
	l-0.853,0.106l-0.96,0.107l-1.065,0.106l-1.066,0.106l-1.066,0.106h-1.172l-1.279,0.106h-2.452l-1.279-0.106h-1.173l-1.173-0.106
	l-1.065-0.106l-0.96-0.106l-0.959-0.107l-1.706-0.319l-1.279-0.32l-0.959-0.319l-0.427-0.427L5.01,84.966"/>
<path fill="none" stroke="#7F7F7F" stroke-width="2" d="M29.636,65.564l-0.107,0.106l-0.853,0.214l-1.173,0.213l-1.492,0.106
	l-1.813,0.214h-1.065l-1.066,0.106h-1.066h-1.172H18.55h-2.452h-1.279h-1.173h-1.173l-1.065-0.106h-0.96l-1.813-0.214l-1.492-0.106
	l-1.173-0.213L5.117,65.67L5.01,65.564"/>
<path fill="#E5E5E5" stroke="#000000" stroke-width="2" d="M29.529,63.432h1.066l1.066-0.959v-1.066l-1.066-1.066h-1.066V63.432z"/>
<path fill="none" stroke="#000000" stroke-width="2" d="M29.529,60.873h1.6"/>
<path fill="none" stroke="#000000" stroke-width="2" d="M29.529,61.406h2.133"/>
<path fill="none" stroke="#000000" stroke-width="2" d="M29.529,61.94h1.6"/>
<path fill="none" stroke="#000000" stroke-width="2" d="M29.529,62.473h1.6"/>
<path fill="none" stroke="#000000" stroke-width="2" d="M29.529,63.005h1.066"/>
<path fill="#BFBFBF" stroke="#000000" stroke-width="2" d="M31.662,60.34v2.133v-0.427l-0.214-0.427L31.342,61.3l-0.319-0.32
	l-0.214-0.213l-0.426-0.213l-0.427-0.107l-0.319-0.106v-2.025h0.319l0.427,0.214l0.426,0.213l0.214,0.213l0.319,0.214l0.106,0.426
	l0.214,0.427V60.34z"/>
<path fill="#A6A6A6" stroke="#000000" stroke-width="2" d="M31.662,60.34v2.025l-0.32,1.173l-0.959,1.173l-0.64,0.533l-0.746,0.64
	l-0.854,0.533l-0.959,0.532l-1.066,0.64l-1.173,0.64l-1.172,0.533L22.6,69.295l-1.279,0.64l-1.386,0.533l-1.279,0.64l-1.386,0.533
	l-1.279,0.532l-1.386,0.64l-1.279,0.533l-1.279,0.64l-1.279,0.533l-1.173,0.533l-1.066,0.64l-1.065,0.533l-1.066,0.64l-0.853,0.532
	l-0.746,0.64l-1.173,1.066l-0.64,1.173v0.64V78.89l0.319-1.173l0.854-1.173l0.64-0.64l0.746-0.533l0.853-0.533l1.066-0.64
	l1.065-0.532l1.066-0.64l1.173-0.533l1.279-0.533l1.279-0.64l1.279-0.533l1.386-0.64l1.279-0.533l1.386-0.532l1.279-0.64l1.386-0.64
	L22.6,67.27l1.173-0.533l1.172-0.64l1.173-0.533l1.066-0.64l0.959-0.533l0.854-0.532l0.746-0.64l1.172-1.066l0.64-1.173
	L31.662,60.34z"/>
<path fill="#7F7F7F" stroke="#000000" stroke-width="2" d="M31.662,62.365l-0.32,1.173l-0.959,1.173l-0.64,0.533l-0.746,0.64
	l-0.854,0.533l-0.959,0.64l-1.066,0.532l-1.173,0.64l-1.172,0.533L22.6,69.295l-1.279,0.64l-1.386,0.533l-1.279,0.64l-1.386,0.533
	l-1.279,0.532l-1.386,0.64l-1.279,0.533l-1.279,0.64l-1.279,0.533l-1.173,0.533l-1.066,0.64l-1.065,0.533l-1.066,0.64l-0.853,0.532
	l-0.746,0.64l-1.173,1.066l-0.64,1.173v0.64v0.319l0.533,0.854l1.065,0.639l0.427,0.214v-2.025l0.213-1.173l0.854-1.173l0.64-0.533
	l0.746-0.64l0.746-0.532l0.959-0.64l0.96-0.533l1.065-0.64l1.066-0.533l1.173-0.533l1.173-0.64l1.279-0.533l1.172-0.64l1.279-0.532
	l1.279-0.533l1.173-0.64l1.173-0.533l1.279-0.64l1.173-0.533l1.065-0.533l1.066-0.64l0.959-0.64l0.854-0.532l0.853-0.533l0.746-0.64
	l1.066-1.066l0.532-1.173L31.662,62.365z"/>
<path fill="#E5E5E5" stroke="#000000" stroke-width="2" d="M29.529,26.547h1.066l1.066-1.066v-0.959l-1.066-1.066h-1.066V26.547z"/>
<path fill="none" stroke="#000000" stroke-width="2" d="M29.529,23.989h1.6"/>
<path fill="none" stroke="#000000" stroke-width="2" d="M29.529,24.522h2.133"/>
<path fill="none" stroke="#000000" stroke-width="2" d="M29.529,24.948h1.6"/>
<path fill="none" stroke="#000000" stroke-width="2" d="M29.529,25.481h1.6"/>
<path fill="none" stroke="#000000" stroke-width="2" d="M29.529,26.014h1.066"/>
<path fill="#BFBFBF" stroke="#000000" stroke-width="2" d="M31.662,23.455v2.025v-0.427l-0.214-0.319l-0.106-0.32l-0.319-0.426
	l-0.214-0.214l-0.426-0.213l-0.427-0.106h-0.319V21.43h0.319l0.427,0.106l0.426,0.213l0.214,0.214l0.319,0.319l0.106,0.427
	l0.214,0.319V23.455z"/>
<path fill="#A6A6A6" stroke="#000000" stroke-width="2" d="M31.662,23.455v2.025l-0.32,1.173l-0.959,1.173l-0.64,0.532l-0.746,0.533
	l-0.854,0.64l-0.959,0.533l-1.066,0.64l-1.173,0.533l-1.172,0.533L22.6,32.41l-1.279,0.532l-1.386,0.64l-1.279,0.533l-1.386,0.64
	l-1.279,0.533l-1.386,0.533l-1.279,0.64l-1.279,0.533l-1.279,0.64l-1.173,0.532l-1.066,0.533l-1.065,0.64l-1.066,0.533l-0.853,0.64
	l-0.746,0.533l-1.173,1.173l-0.64,1.172v0.533v-2.025l0.319-1.173l0.854-1.065l0.64-0.64l0.746-0.533l0.853-0.64l1.066-0.533
	l1.065-0.64l1.066-0.533l1.173-0.532l1.279-0.64l1.279-0.533l1.279-0.64l1.386-0.533l1.279-0.64l1.386-0.533l1.279-0.533l1.386-0.64
	l1.279-0.532l1.173-0.64l1.172-0.533l1.173-0.533l1.066-0.64l0.959-0.533l0.854-0.64l0.746-0.533l1.172-1.172l0.64-1.173
	L31.662,23.455z"/>
<path fill="#7F7F7F" stroke="#000000" stroke-width="2" d="M31.662,25.481l-0.32,1.173l-0.959,1.173l-0.64,0.532l-0.746,0.64
	l-0.854,0.533l-0.959,0.533l-1.066,0.64l-1.173,0.533l-1.172,0.64L22.6,32.41l-1.279,0.64l-1.386,0.532l-1.279,0.533l-1.386,0.64
	l-1.279,0.533l-1.386,0.64l-1.279,0.533l-1.279,0.533l-1.279,0.64l-1.173,0.532l-1.066,0.64l-1.065,0.533l-1.066,0.533l-0.853,0.64
	l-0.746,0.533l-1.173,1.173l-0.64,1.172v0.533v0.427l0.533,0.853l1.065,0.64l0.427,0.213v-2.132l0.213-1.065l0.854-1.173l0.64-0.64
	l0.746-0.533l0.746-0.64l0.959-0.533l0.96-0.64l1.065-0.533l1.066-0.532l1.173-0.64l1.173-0.533l1.279-0.64l1.172-0.533l1.279-0.533
	l1.279-0.64l1.173-0.533l1.173-0.64l1.279-0.532l1.173-0.64l1.065-0.533l1.066-0.533l0.959-0.64l0.854-0.533l0.853-0.64l0.746-0.533
	l1.066-1.172l0.532-1.066L31.662,25.481z"/>
</svg>
