<?xml version="1.0" encoding="utf-8"?>
<!-- Generator: Adobe Illustrator 14.0.0, SVG Export Plug-In . SVG Version: 6.00 Build 43363)  -->
<!DOCTYPE svg PUBLIC "-//W3C//DTD SVG 1.1//EN" "http://www.w3.org/Graphics/SVG/1.1/DTD/svg11.dtd">
<svg version="1.1" id="图层_1" xmlns="http://www.w3.org/2000/svg" xmlns:xlink="http://www.w3.org/1999/xlink" x="0px" y="0px"
	 width="56.182px" height="106.502px" viewBox="0 0 56.182 106.502" enable-background="new 0 0 56.182 106.502"
	 xml:space="preserve">
<path fill="#00FFFF" stroke="#000000" stroke-width="2" d="M53.197,15.672l-0.854-3.198l-1.599-2.345l-2.559-2.133l-2.346-1.386
	l-2.771-1.172l-2.985-0.96l-3.411-0.746l-3.518-0.533l-2.452-0.213h-1.279h-1.386l-3.731,0.106L20.575,3.52l-3.411,0.64
	l-3.092,0.959l-2.878,1.173L8.635,7.571L5.969,9.596l-1.918,2.238l-1.066,3.092v0.746v75.265l0.746,3.092l1.706,2.345l2.559,2.025
	l2.345,1.387l2.665,1.172l3.092,0.96l3.305,0.746l3.625,0.533l2.452,0.213h1.279h1.279l3.838-0.106l3.624-0.427l3.411-0.64
	l3.198-0.959l2.879-1.066l2.452-1.279l2.665-2.025l1.919-2.238l1.173-3.092v-0.64V15.672z"/>
<path fill="none" stroke="#000000" stroke-width="2" d="M2.985,90.937h50.212"/>
<path fill="none" stroke="#000000" stroke-width="2" d="M2.985,15.672h50.212"/>
</svg>
