<?xml version="1.0" encoding="utf-8"?>
<!-- Generator: Adobe Illustrator 14.0.0, SVG Export Plug-In . SVG Version: 6.00 Build 43363)  -->
<!DOCTYPE svg PUBLIC "-//W3C//DTD SVG 1.1//EN" "http://www.w3.org/Graphics/SVG/1.1/DTD/svg11.dtd">
<svg version="1.1" id="图层_1" xmlns="http://www.w3.org/2000/svg" xmlns:xlink="http://www.w3.org/1999/xlink" x="0px" y="0px"
	 width="115.769px" height="106.502px" viewBox="0 0 115.769 106.502" enable-background="new 0 0 115.769 106.502"
	 xml:space="preserve">
<path fill="#E5E5E5" stroke="#000000" stroke-width="2" d="M9.966,103.255l-2.202-2.086V41.836h-4.52v-2.317h109.164v2.317h-4.52
	v59.333l-2.202,2.086H9.966z"/>
<path fill="#E5E5E5" stroke="#000000" stroke-width="2" d="M44.268,39.519l4.403-4.403V5.333l2.434-2.086h13.559l2.318,2.086v29.782
	l4.635,4.403H44.268z"/>
<path fill="#E5E5E5" stroke="#000000" stroke-width="2" d="M48.671,7.767h-8.923l-4.635,4.403v34.302h4.635V14.604l2.086-2.434
	h6.837V7.767z"/>
<path fill="none" stroke="#000000" stroke-width="2" d="M48.671,35.115h18.311"/>
<path fill="#E5E5E5" stroke="#000000" stroke-width="2" d="M98.965,60.031V39.519H94.33v-4.403h2.201V25.96l2.434-2.434h8.924
	l2.434,2.434v9.155h2.086v4.403h-6.722v20.512h-2.434v9.155h-2.086v-9.155H98.965z"/>
<path fill="#E5E5E5" stroke="#000000" stroke-width="2" d="M66.982,25.96h8.923l4.636,4.52v27.349l2.434,2.202h22.713v4.636H80.54
	l-4.636-4.636V32.682l-2.086-2.202h-6.837V25.96z"/>
<path fill="none" stroke="#000000" stroke-width="2" d="M96.531,35.115h13.791"/>
<path fill="none" stroke="#000000" stroke-width="2" d="M98.965,39.519h6.722"/>
</svg>
