<?xml version="1.0" encoding="utf-8"?>
<!-- Generator: Adobe Illustrator 14.0.0, SVG Export Plug-In . SVG Version: 6.00 Build 43363)  -->
<!DOCTYPE svg PUBLIC "-//W3C//DTD SVG 1.1//EN" "http://www.w3.org/Graphics/SVG/1.1/DTD/svg11.dtd">
<svg version="1.1" id="图层_1" xmlns="http://www.w3.org/2000/svg" xmlns:xlink="http://www.w3.org/1999/xlink" x="0px" y="0px"
	 width="83.152px" height="106.502px" viewBox="0 0 83.152 106.502" enable-background="new 0 0 83.152 106.502"
	 xml:space="preserve">
<path fill="#E5E5E5" stroke="#000000" stroke-width="2" d="M76.01,73.453v0.106l-0.426,0.533l-2.238,0.426l-2.986,0.214
	l-4.477,0.426l-5.011,0.214l-5.863,0.213h-6.396l-7.036,0.213l-7.036-0.213h-6.61l-5.863-0.213l-5.117-0.214l-4.157-0.426
	l-3.305-0.214l-1.919-0.426L6.823,73.56v-0.106V5.118H76.01V73.453z"/>
<ellipse fill="#F0F0F0" stroke="#000000" stroke-width="2" cx="41.47" cy="5.118" rx="34.754" ry="2.132"/>
<path fill="none" stroke="#000000" stroke-width="2" d="M76.01,56.716l2.025,0.426l0.854,0.427l-0.854,0.427l-2.238,0.426
	l-3.518,0.533l-4.371,0.427l-5.543,0.213l-6.291,0.214h-7.035l-7.463,0.213l-7.675-0.213h-6.823l-6.396-0.214l-5.65-0.213
	l-4.371-0.427l-3.625-0.533l-2.132-0.426l-0.853-0.427l0.853-0.427l1.919-0.426"/>
<path fill="#CCCCCC" stroke="#000000" stroke-width="2" d="M2.985,102.13h8.102v1.279H2.985V102.13z"/>
<path fill="#CCCCCC" stroke="#000000" stroke-width="2" d="M80.168,102.13h-7.889v1.279h7.889V102.13z"/>
<path fill="#CCCCCC" stroke="#000000" stroke-width="2" d="M4.264,102.13h5.011V57.569H4.264V102.13z"/>
<path fill="#CCCCCC" stroke="#000000" stroke-width="2" d="M78.889,102.13h-5.117V57.569h5.117V102.13z"/>
</svg>
