<?xml version="1.0" encoding="utf-8"?>
<!-- Generator: Adobe Illustrator 14.0.0, SVG Export Plug-In . SVG Version: 6.00 Build 43363)  -->
<!DOCTYPE svg PUBLIC "-//W3C//DTD SVG 1.1//EN" "http://www.w3.org/Graphics/SVG/1.1/DTD/svg11.dtd">
<svg version="1.1" id="图层_1" xmlns="http://www.w3.org/2000/svg" xmlns:xlink="http://www.w3.org/1999/xlink" x="0px" y="0px"
	 width="144.749px" height="76.363px" viewBox="0 0 144.749 76.363" enable-background="new 0 0 144.749 76.363"
	 xml:space="preserve">
<path fill="#00FFFF" stroke="#000000" stroke-width="2" d="M123.449,72.305l4.347-1.16l3.188-2.173l2.753-3.478l1.884-3.188
	l1.594-3.768l1.305-4.057l1.014-4.637l0.725-4.781l0.29-3.479v-1.738v-1.738l-0.146-5.071l-0.579-5.071l-0.869-4.637l-1.305-4.202
	l-1.448-3.912l-1.884-3.333l-2.608-3.767l-3.188-2.608l-4.202-1.449h-0.869H21.155l-4.347,1.014L13.62,7.392l-2.753,3.478
	l-1.884,3.188L7.39,17.824l-1.305,4.057l-1.014,4.637l-0.725,4.782l-0.29,3.477v1.594v1.739l0.146,5.216l0.579,4.927l0.869,4.637
	l1.305,4.347l1.448,3.912l1.884,3.333l2.608,3.621l3.188,2.609l4.202,1.594h0.869H123.449z"/>
<path fill="none" stroke="#000000" stroke-width="2" d="M21.155,4.059v68.246"/>
<path fill="none" stroke="#000000" stroke-width="2" d="M123.449,4.059v68.246"/>
</svg>
