<?xml version="1.0" encoding="utf-8"?>
<!-- Generator: Adobe Illustrator 14.0.0, SVG Export Plug-In . SVG Version: 6.00 Build 43363)  -->
<!DOCTYPE svg PUBLIC "-//W3C//DTD SVG 1.1//EN" "http://www.w3.org/Graphics/SVG/1.1/DTD/svg11.dtd">
<svg version="1.1" id="图层_1" xmlns="http://www.w3.org/2000/svg" xmlns:xlink="http://www.w3.org/1999/xlink" x="0px" y="0px"
	 width="89.654px" height="106.502px" viewBox="0 0 89.654 106.502" enable-background="new 0 0 89.654 106.502"
	 xml:space="preserve">
<path fill="#00FFFF" stroke="#000000" stroke-width="2" d="M2.985,7.145v92.106l2.984,1.599l8.955,1.386l14.179,0.747l15.777,0.426
	l15.564-0.426l14.178-0.747l9.062-1.386l2.985-1.599V7.145l-2.985-1.599l-9.062-1.387L60.445,3.413L44.881,2.988L29.103,3.413
	L14.925,4.159L5.969,5.546L2.985,7.145z"/>
<path fill="none" stroke="#000000" stroke-width="2" d="M2.985,13.435l0.213-0.427l3.092-1.279l2.771-0.533l3.518-0.426l4.158-0.427
	l3.092-0.32l3.305-0.213l3.624-0.213l3.731-0.106l3.838-0.107l4.157-0.106h2.132h2.025h2.133h4.264h4.158l4.051,0.106l3.838,0.214
	l3.624,0.106l3.519,0.213l3.197,0.32l2.985,0.213l3.944,0.427l3.305,0.533l3.198,0.746l1.599,0.853l0.214,0.213v0.214"/>
<path fill="none" stroke="#000000" stroke-width="2" d="M86.67,92.961l-0.214,0.427l-3.091,1.173l-2.772,0.533l-3.518,0.532
	l-4.157,0.427l-3.092,0.213l-3.305,0.32l-3.625,0.106l-3.73,0.213l-3.944,0.106l-4.051,0.107h-2.133h-2.025h-2.238h-4.158
	l-4.157-0.107l-4.051-0.106l-3.838-0.106l-3.625-0.213l-3.518-0.106l-3.198-0.32l-2.984-0.213l-3.944-0.533l-3.306-0.427
	L4.798,94.24l-1.6-0.853l-0.213-0.213v-0.214"/>
</svg>
