<?xml version="1.0" encoding="utf-8"?>
<!-- Generator: Adobe Illustrator 14.0.0, SVG Export Plug-In . SVG Version: 6.00 Build 43363)  -->
<!DOCTYPE svg PUBLIC "-//W3C//DTD SVG 1.1//EN" "http://www.w3.org/Graphics/SVG/1.1/DTD/svg11.dtd">
<svg version="1.1" id="图层_1" xmlns="http://www.w3.org/2000/svg" xmlns:xlink="http://www.w3.org/1999/xlink" x="0px" y="0px"
	 width="72.921px" height="106.502px" viewBox="0 0 72.921 106.502" enable-background="new 0 0 72.921 106.502"
	 xml:space="preserve">
<path fill="#00FFFF" stroke="#000000" stroke-width="2" d="M69.936,90.831V15.565l-1.065-3.198l-2.239-2.345l-2.452-1.493
	l-2.984-1.492l-3.412-1.173l-3.945-1.066l-2.878-0.64l-2.985-0.426l-3.197-0.32l-3.199-0.319l-1.705-0.107h-1.706h-1.706h-3.412
	l-3.305,0.214l-3.198,0.319l-3.092,0.427l-2.985,0.533l-2.771,0.64l-3.731,1.066L10.662,7.57L7.783,9.062l-2.132,1.6l-2.026,2.345
	l-0.64,1.919v0.64v75.267l1.066,3.198l2.239,2.345l2.345,1.493l2.985,1.492l3.518,1.173l3.944,1.066l2.878,0.64l2.985,0.426
	l3.198,0.32l3.198,0.319l1.706,0.106h1.706h1.706h3.412l3.305-0.213l3.198-0.319l3.092-0.427l2.878-0.533l2.879-0.64l3.73-1.066
	l3.306-1.386l2.878-1.492l2.133-1.6l2.025-2.345l0.64-1.919V90.831z"/>
<path fill="none" stroke="#000000" stroke-width="2" d="M2.985,15.565h66.951"/>
<path fill="none" stroke="#000000" stroke-width="2" d="M2.985,90.831h66.951"/>
<path fill="none" stroke="#000000" stroke-width="2" d="M23.881,90.831V15.565"/>
<path fill="none" stroke="#000000" stroke-width="2" d="M49.041,90.831V15.565"/>
<path fill="none" stroke="#000000" stroke-width="2" d="M49.041,53.198h-25.16"/>
<path fill="none" stroke="#000000" stroke-width="2" d="M49.041,40.618h-25.16"/>
<path fill="none" stroke="#000000" stroke-width="2" d="M49.041,28.038h-25.16"/>
<path fill="none" stroke="#000000" stroke-width="2" d="M49.041,65.778h-25.16"/>
<path fill="none" stroke="#000000" stroke-width="2" d="M49.041,78.358h-25.16"/>
</svg>
