<?xml version="1.0" encoding="utf-8"?>
<!-- Generator: Adobe Illustrator 14.0.0, SVG Export Plug-In . SVG Version: 6.00 Build 43363)  -->
<!DOCTYPE svg PUBLIC "-//W3C//DTD SVG 1.1//EN" "http://www.w3.org/Graphics/SVG/1.1/DTD/svg11.dtd">
<svg version="1.1" id="图层_1" xmlns="http://www.w3.org/2000/svg" xmlns:xlink="http://www.w3.org/1999/xlink" x="0px" y="0px"
	 width="130.385px" height="106.502px" viewBox="0 0 130.385 106.502" enable-background="new 0 0 130.385 106.502"
	 xml:space="preserve">
<path fill="#E5E5E5" stroke="#000000" stroke-width="2" d="M10.05,102.847l-1.958-2.219V25.06H3.654v-1.958h103.499v1.958h-4.307
	v75.568l-2.089,2.219H10.05z"/>
<path fill="#E5E5E5" stroke="#000000" stroke-width="2" d="M122.424,44.507V23.102h4.176v-4.438h-2.219V5.614l-1.957-1.958h-8.614
	l-2.219,1.958v13.051h-8.614v4.438h10.833v6.396h-10.963v4.177h10.963v10.833l1.958,2.219v45.158l-2.219,2.219h-10.702v4.307h12.921
	l4.438-4.307V46.726L122.424,44.507z"/>
<path fill="none" stroke="#000000" stroke-width="2" d="M124.381,18.664h-12.79"/>
<path fill="none" stroke="#000000" stroke-width="2" d="M122.424,22.841h-8.614"/>
<path fill="#E5E5E5" stroke="#000000" stroke-width="2" d="M102.846,61.735h12.921v4.308h-12.921V61.735z"/>
<path stroke="#000000" stroke-width="2" d="M115.767,48.945h4.438l1.957,0.913l-1.957,1.306h-4.438l-2.219-1.306L115.767,48.945z"/>
</svg>
