<?xml version="1.0" encoding="utf-8"?>
<!-- Generator: Adobe Illustrator 14.0.0, SVG Export Plug-In . SVG Version: 6.00 Build 43363)  -->
<!DOCTYPE svg PUBLIC "-//W3C//DTD SVG 1.1//EN" "http://www.w3.org/Graphics/SVG/1.1/DTD/svg11.dtd">
<svg version="1.1" id="图层_1" xmlns="http://www.w3.org/2000/svg" xmlns:xlink="http://www.w3.org/1999/xlink" x="0px" y="0px"
	 width="144.749px" height="99.107px" viewBox="0 0 144.749 99.107" enable-background="new 0 0 144.749 99.107"
	 xml:space="preserve">
<path fill="#00FFFF" stroke="#000000" stroke-width="2" d="M140.547,26.806v68.245H4.057V26.806l1.449-4.637l2.608-3.188
	l4.201-3.043l3.478-1.884l3.912-1.738l4.347-1.594l4.927-1.449l5.216-1.304l5.651-1.159l5.94-1.015l6.23-0.725l6.521-0.579
	l6.81-0.29l3.478-0.145h3.478h3.478l6.955,0.289l6.52,0.435l6.521,0.58l6.086,0.869l5.796,1.159l5.36,1.159l5.217,1.449l4.491,1.448
	l4.202,1.739l3.768,1.738l3.188,2.029l3.622,3.042l2.318,3.333l0.725,2.318V26.806z"/>
<path fill="none" stroke="#000000" stroke-width="2" d="M4.057,32.456h136.49"/>
</svg>
