<?xml version="1.0" encoding="utf-8"?>
<!-- Generator: Adobe Illustrator 14.0.0, SVG Export Plug-In . SVG Version: 6.00 Build 43363)  -->
<!DOCTYPE svg PUBLIC "-//W3C//DTD SVG 1.1//EN" "http://www.w3.org/Graphics/SVG/1.1/DTD/svg11.dtd">
<svg version="1.1" id="图层_1" xmlns="http://www.w3.org/2000/svg" xmlns:xlink="http://www.w3.org/1999/xlink" x="0px" y="0px"
	 width="110.945px" height="106.502px" viewBox="0 0 110.945 106.502" enable-background="new 0 0 110.945 106.502"
	 xml:space="preserve">
<path fill="#E5E5E5" stroke="#000000" stroke-width="2" d="M9.551,103.393l-2.11-2.332V24.876H3.11v-2.109h104.614v2.109h-4.331
	v76.185l-2.11,2.332H9.551z"/>
<path fill="#E5E5E5" stroke="#000000" stroke-width="2" d="M88.068,40.091V22.767h-4.443v-4.442h2.332V5.109l2.111-1.999h8.773
	l2.109,1.999v13.216h8.773v4.442H96.841v63.19h-4.332V44.533h-4.441h-2.111v-4.442H88.068z"/>
<path fill="none" stroke="#000000" stroke-width="2" d="M85.957,18.324h12.994"/>
<path fill="#E5E5E5" stroke="#000000" stroke-width="2" d="M90.4,85.957h8.551v4.22H90.4V85.957z"/>
<path fill="#E5E5E5" stroke="#000000" stroke-width="2" d="M85.957,40.091h10.885v4.442H85.957V40.091z"/>
<path fill="none" stroke="#000000" stroke-width="2" d="M88.068,22.544h8.773"/>
<path fill="none" stroke="#000000" stroke-width="2" d="M92.509,50.975h4.332"/>
</svg>
