<?xml version="1.0" encoding="utf-8"?>
<!-- Generator: Adobe Illustrator 14.0.0, SVG Export Plug-In . SVG Version: 6.00 Build 43363)  -->
<!DOCTYPE svg PUBLIC "-//W3C//DTD SVG 1.1//EN" "http://www.w3.org/Graphics/SVG/1.1/DTD/svg11.dtd">
<svg version="1.1" id="图层_1" xmlns="http://www.w3.org/2000/svg" xmlns:xlink="http://www.w3.org/1999/xlink" x="0px" y="0px"
	 width="35.287px" height="106.502px" viewBox="0 0 35.287 106.502" enable-background="new 0 0 35.287 106.502"
	 xml:space="preserve">
<path fill="#666638" d="M2.985,103.41V9.382l5.224-5.011l9.382-1.386l9.274,1.386l5.438,5.011v94.028H2.985z"/>
<path fill="#78784F" d="M4.264,103.41V9.382l5.33-5.011l7.996-1.386l7.995,1.386l4.052,5.011v94.028H4.264z"/>
<path fill="#878763" d="M6.929,103.41V9.382l4.051-5.011l6.61-1.386l6.716,1.386l3.944,5.011v94.028H6.929z"/>
<path fill="#99997A" d="M8.209,103.41V9.382l4.051-5.011l5.331-1.386l5.33,1.386l2.665,5.011v94.028H8.209z"/>
<path fill="#ABAB91" d="M10.98,103.41V9.382l2.559-5.011l4.052-1.386l4.051,1.386l1.279,5.011v94.028H10.98z"/>
<path fill="#BABAA6" d="M13.539,103.41V9.382l1.387-5.011l2.665-1.386l2.665,1.386l1.386,5.011v94.028H13.539z"/>
<path fill="#E5E5DD" d="M14.926,103.41V9.382l1.386-5.011l1.279-1.386l1.386,1.386v5.011v94.028H14.926z"/>
<path fill="none" stroke="#000000" stroke-width="2" d="M2.985,103.41V9.382l5.224-5.011l9.382-1.386l9.274,1.386l5.438,5.011
	v94.028H2.985"/>
<path fill="none" stroke="#7F7F59" stroke-width="2" d="M2.985,90.83h29.317"/>
<path fill="none" stroke="#7F7F59" stroke-width="2" d="M2.985,78.358h29.317"/>
<path fill="none" stroke="#7F7F59" stroke-width="2" d="M2.985,65.778h29.317"/>
<path fill="none" stroke="#7F7F59" stroke-width="2" d="M2.985,53.198h29.317"/>
<path fill="none" stroke="#7F7F59" stroke-width="2" d="M2.985,40.618h29.317"/>
<path fill="none" stroke="#7F7F59" stroke-width="2" d="M2.985,28.038h29.317"/>
<path fill="none" stroke="#7F7F59" stroke-width="2" d="M2.985,15.566h29.317"/>
</svg>
