<?xml version="1.0" encoding="utf-8"?>
<!-- Generator: Adobe Illustrator 14.0.0, SVG Export Plug-In . SVG Version: 6.00 Build 43363)  -->
<!DOCTYPE svg PUBLIC "-//W3C//DTD SVG 1.1//EN" "http://www.w3.org/Graphics/SVG/1.1/DTD/svg11.dtd">
<svg version="1.1" id="图层_1" xmlns="http://www.w3.org/2000/svg" xmlns:xlink="http://www.w3.org/1999/xlink" x="0px" y="0px"
	 width="97.97px" height="106.502px" viewBox="0 0 97.97 106.502" enable-background="new 0 0 97.97 106.502" xml:space="preserve">
<path fill="#7F7F7F" d="M40.617,2.987h16.737v100.423H40.617V2.987z"/>
<path fill="#969696" d="M42.216,2.987h2.559h0.853h0.853h5.97h3.305v18.869l0.107,3.092v3.092v53.409l-0.107,3.092v15.671v3.198
	h-0.746h-3.411h-5.97h-2.559h-0.853v-3.198V84.54v-3.092V24.948v-3.092V2.987z"/>
<path fill="#ABABAB" d="M43.708,2.987h2.026h0.64h0.746h4.584h2.559v18.869v3.092v3.092v53.409v3.092v15.671v3.198h-0.64h-3.305
	h-3.944h-1.919h-0.747v-3.198V84.54l0.107-3.092V24.948l-0.107-3.092V2.987z"/>
<path fill="#C2C2C2" d="M45.307,2.987h1.386h0.426h0.533h3.197h1.813v18.869l0.107,3.092v3.092v53.409l-0.107,3.092v15.671v3.198
	h-0.426h-3.198H45.84h-0.533v-3.198V84.54l0.107-3.092V24.948l-0.107-3.092V2.987z"/>
<path fill="#D9D9D9" d="M46.906,2.987h4.158v100.423h-4.158V2.987z"/>
<path fill="none" stroke="#000000" stroke-width="2" d="M40.617,2.987h16.737v100.423H40.617V2.987"/>
<circle fill="#999999" cx="48.932" cy="53.198" r="45.947"/>
<ellipse fill="#A8A8A8" cx="48.932" cy="53.198" rx="39.443" ry="46.053"/>
<ellipse fill="#B8B8B8" cx="49.039" cy="53.198" rx="32.94" ry="46.053"/>
<ellipse fill="#C4C4C4" cx="48.932" cy="53.198" rx="26.438" ry="46.053"/>
<ellipse fill="#D4D4D4" cx="49.039" cy="53.198" rx="19.935" ry="46.053"/>
<ellipse fill="#E3E3E3" cx="49.039" cy="53.198" rx="13.433" ry="46.053"/>
<ellipse fill="#F2F2F2" cx="48.932" cy="53.198" rx="6.93" ry="45.947"/>
<circle fill="none" stroke="#000000" stroke-width="2" cx="48.932" cy="53.198" r="45.947"/>
<path fill="none" stroke="#000000" stroke-width="2" d="M48.932,99.251l-3.412-0.533l-3.198-1.492l-3.091-2.559l-1.919-2.132
	L35.5,90.083L33.9,87.312l-1.599-3.198l-1.279-3.411l-1.279-3.625l-1.066-3.944l-0.853-4.051l-0.64-4.371l-0.427-4.478l-0.213-4.584
	l-0.107-2.452l0.107-2.345l0.213-4.584l0.427-4.478l0.64-4.371l0.853-4.051l1.066-3.944l1.279-3.731l1.279-3.411l1.599-3.092
	l1.599-2.771l1.813-2.559l1.919-2.132l3.091-2.452l3.198-1.492l2.345-0.533h1.066"/>
<path fill="#7F7F7F" d="M40.723,13.434v-2.132h2.132v2.132H40.723z"/>
<path fill="#7F7F7F" d="M37.099,18.338v-0.32v-1.065v-0.746h0.533h1.066h0.426l0.107,0.532v1.066l-0.107,0.533h-0.959H37.099z"/>
<path fill="#7F7F7F" d="M34.22,23.775v-0.213v-1.066v-0.746l0.533-0.106h1.066l0.533,0.106v0.427v1.065v0.533h-1.066H34.22z"/>
<path fill="#7F7F7F" d="M32.088,29.638v-0.319v-1.066v-0.746h0.533h1.066h0.533v0.533v1.065v0.533h-1.066H32.088z"/>
<path fill="#7F7F7F" d="M30.489,35.608v-0.213v-1.066v-0.853h0.533h1.066h0.533v0.533v1.066v0.532h-1.066H30.489z"/>
<path fill="#7F7F7F" d="M29.423,41.685v-0.214v-1.065v-0.746l0.533-0.107h1.066l0.533,0.107v0.426v1.066v0.533h-1.066H29.423z"/>
<path fill="#7F7F7F" d="M28.784,47.867v-0.213v-1.066v-0.746l0.533-0.106h1.066l0.533,0.106v0.427v1.065v0.533H29.85H28.784z"/>
<path fill="#7F7F7F" d="M28.57,54.051v-0.214v-1.065v-0.854h0.533h1.066h0.533v0.533v1.066v0.533h-1.066H28.57z"/>
<path fill="#7F7F7F" d="M28.784,60.234v-0.213v-1.066v-0.853h0.533h1.066h0.533v0.533V59.7v0.533H29.85H28.784z"/>
<path fill="#7F7F7F" d="M29.316,66.417v-0.214l0.107-1.065l-0.107-0.746l0.533-0.107h1.172l0.427,0.107l0.106,0.426v1.066
	l-0.106,0.533h-0.959H29.316z"/>
<path fill="#7F7F7F" d="M30.489,72.493v-0.213v-1.066v-0.746l0.533-0.106h1.066l0.426,0.106l0.106,0.427v1.065l-0.106,0.533h-0.959
	H30.489z"/>
<path fill="#7F7F7F" d="M31.981,78.57V78.25v-1.066v-0.746h0.533h1.066h0.427l0.106,0.533v1.066l-0.106,0.532h-0.959H31.981z"/>
<path fill="#7F7F7F" d="M34.007,84.433v-0.319l0.106-1.066l-0.106-0.746h0.533h1.066h0.533l0.107,0.533v1.066l-0.107,0.532
	l-1.066-0.106L34.007,84.433z"/>
<path fill="#7F7F7F" d="M36.885,89.87v-0.214v-1.065v-0.746l0.533-0.106h1.066l0.533,0.106v0.426v1.066v0.533h-1.066H36.885z"/>
<path fill="#7F7F7F" d="M40.51,94.988v-2.133h2.132v2.133H40.51z"/>
</svg>
