<?xml version="1.0" encoding="utf-8"?>
<!-- Generator: Adobe Illustrator 14.0.0, SVG Export Plug-In . SVG Version: 6.00 Build 43363)  -->
<!DOCTYPE svg PUBLIC "-//W3C//DTD SVG 1.1//EN" "http://www.w3.org/Graphics/SVG/1.1/DTD/svg11.dtd">
<svg version="1.1" id="图层_1" xmlns="http://www.w3.org/2000/svg" xmlns:xlink="http://www.w3.org/1999/xlink" x="0px" y="0px"
	 width="97.229px" height="106.502px" viewBox="0 0 97.229 106.502" enable-background="new 0 0 97.229 106.502"
	 xml:space="preserve">
<path fill="#333333" d="M68.444,66.844v35.074h-1.6v1.492h9.168v-1.492h-1.6V66.844H68.444z"/>
<path fill="#333333" d="M22.708,66.844v35.074h-1.493v1.492h9.168v-1.492h-1.599V66.844H22.708z"/>
<circle fill="#666666" stroke="#000000" stroke-width="2" cx="48.614" cy="48.614" r="45.629"/>
<path fill="#6E6E6E" d="M5.651,48.614l3.092-17.164l9.062-15.564L32.41,6.184l16.205-3.199l16.205,3.199l14.605,9.701l9.168,15.564
	l3.092,17.164l-3.092,17.164l-9.168,15.459l-14.605,9.701l-16.205,3.305L32.41,90.938l-14.605-9.701L8.743,65.778L5.651,48.614z"/>
<path fill="#757575" d="M8.209,48.614l2.878-17.164l8.635-15.564l13.753-9.701l15.138-3.199l15.245,3.199l13.753,9.701l8.528,15.564
	l2.878,17.164l-2.878,17.164l-8.528,15.459l-13.753,9.701l-15.245,3.305l-15.138-3.305l-13.753-9.701l-8.635-15.459L8.209,48.614z"
	/>
<path fill="#7D7D7D" d="M10.875,48.614l2.665-17.164l7.996-15.458l12.9-9.808l14.179-3.199l14.18,3.199l12.898,9.808l7.996,15.458
	l2.771,17.164l-2.771,17.164l-7.996,15.459l-12.898,9.701l-14.18,3.305l-14.179-3.305l-12.9-9.701L13.54,65.778L10.875,48.614z"/>
<path fill="#858585" d="M13.434,48.614l2.559-17.164l7.462-15.458l11.94-9.808l13.219-3.199l13.22,3.199l12.047,9.808l7.356,15.458
	l2.559,17.164l-2.559,17.164l-7.356,15.459l-12.047,9.701l-13.22,3.305l-13.219-3.305l-11.94-9.701l-7.462-15.459L13.434,48.614z"/>
<path fill="#8F8F8F" d="M16.099,48.614l2.345-17.164l6.93-15.458l10.981-9.808l12.26-3.199l12.26,3.199l11.088,9.808l6.93,15.458
	l2.238,17.164l-2.238,17.164l-6.93,15.459l-11.088,9.701l-12.26,3.305l-12.26-3.305l-10.981-9.701l-6.93-15.459L16.099,48.614z"/>
<ellipse fill="#969696" cx="48.614" cy="48.614" rx="29.957" ry="45.629"/>
<ellipse fill="#9E9E9E" cx="48.614" cy="48.614" rx="27.292" ry="45.629"/>
<ellipse fill="#A6A6A6" cx="48.614" cy="48.614" rx="24.733" ry="45.629"/>
<ellipse fill="#ADADAD" cx="48.614" cy="48.614" rx="22.068" ry="45.629"/>
<ellipse fill="#B5B5B5" cx="48.614" cy="48.614" rx="19.51" ry="45.629"/>
<ellipse fill="#BDBDBD" cx="48.614" cy="48.614" rx="16.844" ry="45.629"/>
<ellipse fill="#C4C4C4" cx="48.614" cy="48.614" rx="14.285" ry="45.629"/>
<ellipse fill="#CFCFCF" cx="48.614" cy="48.614" rx="11.621" ry="45.629"/>
<ellipse fill="#D6D6D6" cx="48.614" cy="48.614" rx="9.063" ry="45.629"/>
<ellipse fill="#DEDEDE" cx="48.614" cy="48.614" rx="6.396" ry="45.629"/>
<ellipse fill="#E5E5E5" cx="48.508" cy="48.614" rx="3.731" ry="45.629"/>
<path fill="#7F7F7F" d="M13.646,66.844v35.074h-1.599v1.492h9.168v-1.492h-1.493V66.844H13.646z"/>
<path fill="#999999" d="M14.073,66.844v35.074h-1.279v1.492h7.676v-1.492H19.19V66.844H14.073z"/>
<path fill="#B2B2B2" d="M14.606,66.844v35.074h-0.959v1.492h6.077v-1.492h-1.066V66.844H14.606z"/>
<path fill="#CCCCCC" d="M15.139,66.844v35.074h-0.746v1.492h4.584v-1.492h-0.853V66.844H15.139z"/>
<path fill="#E5E5E5" d="M15.565,66.844v35.074h-0.426v1.492h2.985v-1.492h-0.426V66.844H15.565z"/>
<path fill="#FFFFFF" d="M16.099,66.844v35.074h-0.213v1.492h1.493v-1.492h-0.213V66.844H16.099z"/>
<path fill="none" stroke="#000000" stroke-width="2" d="M13.646,66.844v35.074h-1.599v1.492h9.168v-1.492h-1.493V66.844H13.646"/>
<path fill="#7F7F7F" d="M77.505,66.844v35.074h-1.492v1.492h9.063v-1.492h-1.493V66.844H77.505z"/>
<path fill="#999999" d="M78.038,66.844v35.074h-1.279v1.492h7.676v-1.492h-1.279V66.844H78.038z"/>
<path fill="#B2B2B2" d="M78.571,66.844v35.074h-1.066v1.492h6.077v-1.492h-0.96V66.844H78.571z"/>
<path fill="#CCCCCC" d="M79.104,66.844v35.074h-0.854v1.492h4.585v-1.492H82.09V66.844H79.104z"/>
<path fill="#E5E5E5" d="M79.531,66.844v35.074h-0.427v1.492h2.985v-1.492h-0.427V66.844H79.531z"/>
<path fill="#FFFFFF" d="M80.063,66.844v35.074h-0.319v1.492h1.599v-1.492h-0.319V66.844H80.063z"/>
<path fill="none" stroke="#000000" stroke-width="2" d="M77.505,66.844v35.074h-1.492v1.492h9.063v-1.492h-1.493V66.844H77.505"/>
<path fill="#666666" d="M2.986,66.844h91.257v-2.239H2.986V66.844z"/>
<path fill="#333333" d="M2.986,66.844h91.257v-2.239H2.986V66.844z"/>
<path fill="#3D3D3D" d="M5.651,66.844h85.926v-2.239H5.651V66.844z"/>
<path fill="#454545" d="M8.423,66.844h80.49v-2.239H8.423V66.844z"/>
<path fill="#4F4F4F" d="M11.088,66.844h75.053v-2.239H11.088V66.844z"/>
<path fill="#595959" d="M13.86,66.844h69.616v-2.239H13.86V66.844z"/>
<path fill="#636363" d="M16.525,66.844h64.179v-2.239H16.525V66.844z"/>
<path fill="#6B6B6B" d="M19.19,66.844h58.848v-2.239H19.19V66.844z"/>
<path fill="#757575" d="M21.962,66.844h53.411v-2.239H21.962V66.844z"/>
<path fill="#7F7F7F" d="M24.627,66.844h47.974v-2.239H24.627V66.844z"/>
<path fill="#8A8A8A" d="M27.399,66.844h42.537v-2.239H27.399V66.844z"/>
<path fill="#919191" d="M30.064,66.844h37.101v-2.239H30.064V66.844z"/>
<path fill="#9C9C9C" d="M32.729,66.844h31.77v-2.239h-31.77V66.844z"/>
<path fill="#A6A6A6" d="M35.501,66.844h26.333v-2.239H35.501V66.844z"/>
<path fill="#B0B0B0" d="M38.167,66.844h20.895v-2.239H38.167V66.844z"/>
<path fill="#B8B8B8" d="M40.938,66.844H56.29v-2.239H40.938V66.844z"/>
<path fill="#C2C2C2" d="M43.604,66.844h10.021v-2.239H43.604V66.844z"/>
<path fill="#CCCCCC" d="M46.269,66.844h4.583v-2.239h-4.583V66.844z"/>
<path fill="none" stroke="#000000" stroke-width="2" d="M2.986,66.844h91.257v-2.239H2.986V66.844"/>
</svg>
