<?xml version="1.0" encoding="utf-8"?>
<!-- Generator: Adobe Illustrator 14.0.0, SVG Export Plug-In . SVG Version: 6.00 Build 43363)  -->
<!DOCTYPE svg PUBLIC "-//W3C//DTD SVG 1.1//EN" "http://www.w3.org/Graphics/SVG/1.1/DTD/svg11.dtd">
<svg version="1.1" id="图层_1" xmlns="http://www.w3.org/2000/svg" xmlns:xlink="http://www.w3.org/1999/xlink" x="0px" y="0px"
	 width="97.229px" height="106.502px" viewBox="0 0 97.229 106.502" enable-background="new 0 0 97.229 106.502"
	 xml:space="preserve">
<path fill="#333333" d="M22.708,66.844v35.074h-1.493v1.492h9.168v-1.492h-1.599V66.844H22.708z"/>
<path fill="#333333" d="M68.444,66.844v35.074h-1.6v1.492h9.168v-1.492h-1.492V66.844H68.444z"/>
<circle fill="#666666" stroke="#000000" stroke-width="2" cx="48.614" cy="48.614" r="45.629"/>
<path fill="#6E6E6E" d="M4.158,47.121l3.199-16.418l9.275-14.925L31.45,6.61l16.312-3.198L64.179,6.61l14.819,9.169l9.382,14.925
	l3.092,16.418L88.38,63.539l-9.382,14.925l-14.819,9.169l-16.417,3.198L31.45,87.633l-14.818-9.169L7.357,63.539L4.158,47.121z"/>
<path fill="#757575" d="M5.331,45.736l2.985-15.672l8.848-14.179l14.179-8.849l15.671-2.985L62.58,7.036l14.179,8.849l8.85,14.179
	l2.984,15.672l-2.984,15.671l-8.85,14.18L62.58,84.435l-15.565,2.984l-15.671-2.984l-14.179-8.849l-8.848-14.18L5.331,45.736z"/>
<path fill="#7D7D7D" d="M6.504,44.242l2.772-14.925l8.422-13.433l13.54-8.529l14.818-2.771l14.926,2.771l13.539,8.529l8.422,13.433
	l2.879,14.925l-2.879,14.926l-8.422,13.539l-13.539,8.422l-14.926,2.879l-14.818-2.879l-13.54-8.422L9.276,59.168L6.504,44.242z"/>
<path fill="#858585" d="M7.57,42.857l2.666-14.179l8.102-12.793L31.13,7.889l14.073-2.771l14.179,2.771l12.793,7.996l7.996,12.793
	l2.665,14.179l-2.665,14.179l-7.996,12.794l-12.793,7.995l-14.179,2.772L31.13,77.824l-12.793-7.995l-8.102-12.794L7.57,42.857z"/>
<path fill="#8F8F8F" d="M8.743,41.365l2.559-13.326l7.569-12.153l12.153-7.569L44.35,5.757l13.432,2.559l12.154,7.569l7.568,12.153
	l2.559,13.326l-2.559,13.433L69.937,66.95L57.782,74.52L44.35,77.078L31.024,74.52L18.871,66.95l-7.569-12.153L8.743,41.365z"/>
<path fill="#969696" d="M9.916,39.979l2.345-12.687l7.25-11.407l11.407-7.143l12.58-2.452l12.687,2.452l11.407,7.143l7.25,11.407
	l2.345,12.687l-2.345,12.687l-7.25,11.514l-11.407,7.036l-12.687,2.452l-12.58-2.452L19.51,64.179l-7.25-11.514L9.916,39.979z"/>
<path fill="#9E9E9E" d="M10.981,38.592l2.239-11.939l6.823-10.768l10.768-6.717l11.834-2.345l11.94,2.345l10.768,6.717l6.716,10.768
	l2.239,11.939l-2.239,11.834L65.353,61.3l-10.768,6.717l-11.94,2.238l-11.834-2.238L20.043,61.3L13.22,50.426L10.981,38.592z"/>
<path fill="#A6A6A6" d="M12.154,37.1l2.025-11.087l6.396-10.128l10.128-6.29l11.087-2.132l11.194,2.132l10.021,6.29l6.396,10.128
	L71.535,37.1l-2.132,11.194l-6.396,10.128l-10.021,6.29l-11.194,2.132l-11.087-2.132l-10.128-6.29L14.18,48.294L12.154,37.1z"/>
<path fill="#ADADAD" d="M13.327,35.714l1.919-10.447l5.97-9.382l9.382-5.863l10.341-2.026l10.447,2.026l9.383,5.863l5.863,9.382
	l2.025,10.447l-2.025,10.341l-5.863,9.488l-9.383,5.863l-10.447,2.026l-10.341-2.026l-9.382-5.863l-5.97-9.488L13.327,35.714z"/>
<circle fill="#B5B5B5" cx="40.085" cy="34.328" r="25.693"/>
<circle fill="#BDBDBD" cx="39.233" cy="32.836" r="23.667"/>
<path fill="#C4C4C4" d="M16.632,31.449l1.599-8.209l4.69-7.355l7.356-4.584l8.102-1.6l8.103,1.6l7.356,4.584l4.689,7.355
	l1.493,8.209l-1.493,8.103l-4.689,7.463l-7.356,4.584l-8.103,1.492l-8.102-1.492l-7.356-4.584l-4.69-7.463L16.632,31.449z"/>
<circle fill="#CFCFCF" cx="37.527" cy="29.957" r="19.723"/>
<circle fill="#D6D6D6" cx="36.674" cy="28.572" r="17.697"/>
<circle fill="#DEDEDE" cx="35.821" cy="27.079" r="15.671"/>
<circle fill="#E5E5E5" cx="34.862" cy="25.693" r="13.646"/>
<path fill="#7F7F7F" d="M13.646,66.844v35.074h-1.599v1.492h9.168v-1.492h-1.493V66.844H13.646z"/>
<path fill="#999999" d="M14.073,66.844v35.074h-1.279v1.492h7.676v-1.492H19.19V66.844H14.073z"/>
<path fill="#B2B2B2" d="M14.606,66.844v35.074h-0.959v1.492h6.077v-1.492h-1.066V66.844H14.606z"/>
<path fill="#CCCCCC" d="M15.139,66.844v35.074h-0.746v1.492h4.584v-1.492h-0.746V66.844H15.139z"/>
<path fill="#E5E5E5" d="M15.672,66.844v35.074h-0.533v1.492h3.092v-1.492h-0.533V66.844H15.672z"/>
<path fill="#FFFFFF" d="M16.099,66.844v35.074h-0.213v1.492h1.493v-1.492h-0.213V66.844H16.099z"/>
<path fill="none" stroke="#000000" stroke-width="2" d="M13.646,66.844v35.074h-1.599v1.492h9.168v-1.492h-1.493V66.844H13.646"/>
<path fill="#7F7F7F" d="M77.505,66.844v35.074h-1.492v1.492h9.168v-1.492h-1.492V66.844H77.505z"/>
<path fill="#999999" d="M78.038,66.844v35.074h-1.279v1.492h7.676v-1.492h-1.279V66.844H78.038z"/>
<path fill="#B2B2B2" d="M78.571,66.844v35.074h-1.066v1.492h6.184v-1.492h-1.066V66.844H78.571z"/>
<path fill="#CCCCCC" d="M79.104,66.844v35.074h-0.746v1.492h4.478v-1.492H82.09V66.844H79.104z"/>
<path fill="#E5E5E5" d="M79.638,66.844v35.074h-0.533v1.492h2.985v-1.492h-0.427V66.844H79.638z"/>
<path fill="#FFFFFF" d="M80.063,66.844v35.074h-0.213v1.492h1.492v-1.492H81.13V66.844H80.063z"/>
<path fill="none" stroke="#000000" stroke-width="2" d="M77.505,66.844v35.074h-1.492v1.492h9.168v-1.492h-1.492V66.844H77.505"/>
<path fill="#666666" d="M2.986,66.844h91.257v-2.239H2.986V66.844z"/>
<path fill="#333333" d="M2.986,66.844h91.257v-2.239H2.986V66.844z"/>
<path fill="#3D3D3D" d="M5.651,66.844h85.926v-2.346H5.651V66.844z"/>
<path fill="#454545" d="M8.423,66.844h80.49v-2.346H8.423V66.844z"/>
<path fill="#4F4F4F" d="M11.088,66.844h75.053v-2.346H11.088V66.844z"/>
<path fill="#595959" d="M13.86,66.844h69.616v-2.346H13.86V66.844z"/>
<path fill="#636363" d="M16.525,66.844h64.286v-2.346H16.525V66.844z"/>
<path fill="#6B6B6B" d="M19.19,66.844h58.848v-2.346H19.19V66.844z"/>
<path fill="#757575" d="M21.962,66.844h53.411v-2.346H21.962V66.844z"/>
<path fill="#7F7F7F" d="M24.627,66.844h47.974v-2.346H24.627V66.844z"/>
<path fill="#8A8A8A" d="M27.399,66.844h42.537v-2.346H27.399V66.844z"/>
<path fill="#919191" d="M30.064,66.844h37.101v-2.346H30.064V66.844z"/>
<path fill="#9C9C9C" d="M32.836,66.844h31.663v-2.346H32.836V66.844z"/>
<path fill="#A6A6A6" d="M35.501,66.844h26.333v-2.346H35.501V66.844z"/>
<path fill="#B0B0B0" d="M38.167,66.844h20.895v-2.346H38.167V66.844z"/>
<path fill="#B8B8B8" d="M40.938,66.844h15.459v-2.346H40.938V66.844z"/>
<path fill="#C2C2C2" d="M43.604,66.844h10.021v-2.346H43.604V66.844z"/>
<path fill="#CCCCCC" d="M46.269,66.844h4.691v-2.239h-4.691V66.844z"/>
<path fill="none" stroke="#000000" stroke-width="2" d="M2.986,66.844h91.257v-2.239H2.986V66.844"/>
</svg>
