<?xml version="1.0" encoding="utf-8"?>
<!-- Generator: Adobe Illustrator 14.0.0, SVG Export Plug-In . SVG Version: 6.00 Build 43363)  -->
<!DOCTYPE svg PUBLIC "-//W3C//DTD SVG 1.1//EN" "http://www.w3.org/Graphics/SVG/1.1/DTD/svg11.dtd">
<svg version="1.1" id="图层_1" xmlns="http://www.w3.org/2000/svg" xmlns:xlink="http://www.w3.org/1999/xlink" x="0px" y="0px"
	 width="31.125px" height="106.502px" viewBox="0 0 31.125 106.502" enable-background="new 0 0 31.125 106.502"
	 xml:space="preserve">
<path fill="#999999" stroke="#000000" stroke-width="2" d="M6.183,8.215V7.149h18.653v1.066H6.183z"/>
<path fill="#999999" stroke="#000000" stroke-width="2" d="M6.183,4.058V2.991h18.653v1.066H6.183z"/>
<path fill="#B2B2B2" stroke="#000000" stroke-width="2" d="M6.076,61.619h1.599v40.719H6.076V61.619z"/>
<path fill="#B2B2B2" stroke="#000000" stroke-width="2" d="M23.344,61.619h1.6v40.719h-1.6V61.619z"/>
<path fill="none" stroke="#000000" stroke-width="2" d="M7.142,78.355l16.735,23.983"/>
<path fill="none" stroke="#000000" stroke-width="2" d="M7.142,102.338l16.735-23.983"/>
<path fill="#CCCCCC" d="M5.01,11.306V74.09l8.421,6.289v10.446h4.157V80.379l8.422-6.289V11.306H5.01z"/>
<path fill="#E5E5E5" d="M7.142,11.306V74.09l6.716,6.289v10.446h3.305V80.379l6.715-6.289V11.306H7.142z"/>
<path fill="#F2F2F2" d="M9.274,11.306V74.09l5.01,6.289v10.446h2.452V80.379l5.01-6.289V11.306H9.274z"/>
<path fill="#FFFFFF" d="M11.299,11.306V74.09l3.411,6.289v10.446h1.599V80.379l3.412-6.289V11.306H11.299z"/>
<path fill="none" stroke="#000000" stroke-width="2" d="M5.01,11.306V74.09l8.421,6.289v10.446h4.157V80.379l8.422-6.289V11.306
	H5.01"/>
<path fill="none" stroke="#7F7F7F" stroke-width="2" d="M13.431,80.379h4.157"/>
<path fill="none" stroke="#7F7F7F" stroke-width="2" d="M5.01,74.09h21"/>
<path fill="#CCCCCC" stroke="#000000" stroke-width="2" d="M11.299,90.825h8.422v8.421h-8.422V90.825z"/>
<path fill="#B2B2B2" stroke="#000000" stroke-width="2" d="M13.431,99.246h4.157v4.157h-4.157V99.246z"/>
<circle fill="none" stroke="#000000" stroke-width="2" cx="17.588" cy="99.14" r="2.025"/>
<path fill="#BFBFBF" stroke="#000000" stroke-width="2" d="M3.411,82.618l1.172-1.706l23.344,17.695l-1.172,1.705L3.411,82.618z"/>
<path fill="#BFBFBF" stroke="#000000" stroke-width="2" d="M26.542,80.912l1.279,1.599L4.69,100.526l-1.279-1.599L26.542,80.912z"/>
<path fill="#D9D9D9" stroke="#000000" stroke-width="2" d="M2.985,61.619H5.01v41.784H2.985V61.619z"/>
<path fill="#D9D9D9" stroke="#000000" stroke-width="2" d="M26.01,61.619h2.024v41.784H26.01V61.619z"/>
<path fill="#999999" stroke="#000000" stroke-width="2" d="M5.01,2.991h1.173v8.314H5.01V2.991z"/>
<path fill="#999999" stroke="#000000" stroke-width="2" d="M24.836,2.991h1.174v8.314h-1.174V2.991z"/>
<path fill="#999999" stroke="#000000" stroke-width="2" d="M15.03,2.991h1.066v8.314H15.03V2.991z"/>
<path fill="none" stroke="#000000" stroke-width="2" d="M9.274,2.991v100.412"/>
<path fill="none" stroke="#000000" stroke-width="2" d="M13.431,2.991v100.412"/>
<path fill="none" stroke="#000000" stroke-width="2" d="M9.274,7.149h4.157"/>
<path fill="none" stroke="#000000" stroke-width="2" d="M9.274,11.306h4.157"/>
<path fill="none" stroke="#000000" stroke-width="2" d="M9.274,15.571h4.157"/>
<path fill="none" stroke="#000000" stroke-width="2" d="M9.274,19.727h4.157"/>
<path fill="none" stroke="#000000" stroke-width="2" d="M9.274,23.884h4.157"/>
<path fill="none" stroke="#000000" stroke-width="2" d="M9.274,28.041h4.157"/>
<path fill="none" stroke="#000000" stroke-width="2" d="M9.274,32.306h4.157"/>
<path fill="none" stroke="#000000" stroke-width="2" d="M9.274,36.462h4.157"/>
<path fill="none" stroke="#000000" stroke-width="2" d="M9.274,40.619h4.157"/>
<path fill="none" stroke="#000000" stroke-width="2" d="M9.274,44.777h4.157"/>
<path fill="none" stroke="#000000" stroke-width="2" d="M9.274,49.041h4.157"/>
<path fill="none" stroke="#000000" stroke-width="2" d="M9.274,53.198h4.157"/>
<path fill="none" stroke="#000000" stroke-width="2" d="M9.274,57.355h4.157"/>
<path fill="none" stroke="#000000" stroke-width="2" d="M9.274,61.619h4.157"/>
<path fill="none" stroke="#000000" stroke-width="2" d="M9.274,65.776h4.157"/>
<path fill="none" stroke="#000000" stroke-width="2" d="M9.274,69.933h4.157"/>
<path fill="none" stroke="#000000" stroke-width="2" d="M9.274,74.09h4.157"/>
<path fill="none" stroke="#000000" stroke-width="2" d="M9.274,78.355h4.157"/>
<path fill="none" stroke="#000000" stroke-width="2" d="M9.274,82.511h4.157"/>
<path fill="none" stroke="#000000" stroke-width="2" d="M9.274,86.668h4.157"/>
<path fill="none" stroke="#000000" stroke-width="2" d="M9.274,90.825h4.157"/>
<path fill="none" stroke="#000000" stroke-width="2" d="M9.274,95.09h4.157"/>
<path fill="none" stroke="#000000" stroke-width="2" d="M9.274,99.246h4.157"/>
<path fill="#B2B2B2" stroke="#000000" stroke-width="2" d="M19.721,10.347h-1.066v93.057h1.066V10.347z"/>
</svg>
