<?xml version="1.0" encoding="utf-8"?>
<!-- Generator: Adobe Illustrator 14.0.0, SVG Export Plug-In . SVG Version: 6.00 Build 43363)  -->
<!DOCTYPE svg PUBLIC "-//W3C//DTD SVG 1.1//EN" "http://www.w3.org/Graphics/SVG/1.1/DTD/svg11.dtd">
<svg version="1.1" id="图层_1" xmlns="http://www.w3.org/2000/svg" xmlns:xlink="http://www.w3.org/1999/xlink" x="0px" y="0px"
	 width="72.921px" height="106.502px" viewBox="0 0 72.921 106.502" enable-background="new 0 0 72.921 106.502"
	 xml:space="preserve">
<path fill="#336666" stroke="#000000" stroke-width="2" d="M68.871,91.364H4.052v7.356h64.819V91.364z"/>
<path fill="#194C4C" d="M68.337,96.588H4.584v1.599h63.753V96.588z"/>
<path fill="#F2F2F2" stroke="#000000" stroke-width="2" d="M53.199,95.628H19.723v7.25h33.476V95.628z"/>
<path fill="#B2B2B2" d="M69.936,90.831v0.213l-2.665,1.492l-3.092,0.64l-2.984,0.533l-3.412,0.427l-3.945,0.319l-4.37,0.32
	l-3.092,0.106l-3.198,0.106h-3.305l-1.706,0.106h-1.706l-3.412-0.106h-3.305l-3.198-0.106l-3.092-0.106l-2.985-0.214l-4.051-0.319
	l-3.625-0.427L9.595,93.39l-3.305-0.747l-2.666-0.959l-0.64-0.64v-0.213V5.117V5.011l3.305-0.854l3.305-0.319l3.198-0.32
	l3.625-0.106l4.051-0.213l4.478-0.106l3.198-0.107h3.198h1.706h1.706h5.118h3.305l3.198,0.107h3.092l4.37,0.213l3.945,0.106
	l3.412,0.213l2.984,0.32l3.092,0.319l2.665,0.747v0.106V90.831z"/>
<path fill="#BFBFBF" d="M63.646,90.831l-2.665,1.812l-2.772,0.747l-3.518,0.64l-2.984,0.319l-3.412,0.32l-3.731,0.213l-3.944,0.106
	h-1.387l-1.385,0.106h-1.386l-4.158-0.106l-3.945-0.106l-3.731-0.213l-3.412-0.32l-3.092-0.319l-3.518-0.64l-2.665-0.747
	l-2.559-1.279l-0.107-0.319v-0.213V5.117V5.011l2.666-0.854l3.518-0.426l3.731-0.32l3.198-0.106l3.519-0.213l3.731-0.107h2.666
	h1.386h1.386h4.157h4.052l3.731,0.107l3.518,0.213l3.199,0.106l3.73,0.32l2.985,0.319l2.665,0.533l0.533,0.427v0.106V90.831z"/>
<path fill="#CCCCCC" d="M60.021,90.831l-2.346,1.812l-3.091,0.854l-3.198,0.64l-3.731,0.426l-3.092,0.214l-3.411,0.213h-2.239
	l-1.279,0.106h-1.172l-3.625-0.106l-3.411-0.106l-3.198-0.213l-2.985-0.32l-3.412-0.533l-2.878-0.64l-2.559-0.853L12.9,91.044
	v-0.213V5.117V5.011l2.878-0.96l3.305-0.427l3.305-0.213l3.838-0.213l3.198-0.106l3.411-0.107h1.173h1.279h3.625h3.411l3.306,0.107
	l2.985,0.213l3.624,0.213l3.092,0.32l2.772,0.426l1.812,0.747l0.106,0.106V90.831z"/>
<path fill="#D9D9D9" d="M57.889,90.831l-0.106,0.532l-2.452,1.493l-3.731,0.959l-3.198,0.533l-3.624,0.427l-4.052,0.213h-2.132
	l-2.132,0.106l-2.132-0.106l-4.264-0.106l-3.838-0.32l-3.412-0.426l-2.878-0.64l-3.198-0.96l-1.706-1.173v-0.532V5.117V4.904
	l3.625-0.959l4.158-0.533l3.412-0.213l3.838-0.106l2.025-0.107h2.239h2.132h4.264l4.052,0.107l3.624,0.213l3.198,0.213l3.731,0.533
	l2.452,0.853l0.106,0.214V90.831z"/>
<path fill="#E5E5E5" d="M52.132,90.831v0.532l-2.665,1.813l-2.985,0.96l-3.944,0.64l-2.985,0.213H38.06l-1.599,0.106l-1.599-0.106
	l-3.092-0.106l-4.051-0.533l-3.411-0.853l-2.879-1.386l-0.64-0.747v-0.532V5.117V4.904l2.666-0.959l2.985-0.533l3.945-0.319
	l2.878-0.107h1.599h1.599h3.091l2.985,0.107l3.944,0.319l2.985,0.533l2.665,0.959v0.214V90.831z"/>
<path fill="#F2F2F2" d="M42.218,90.831l-1.279,2.665l-2.772,1.386l-1.065,0.106l-0.64,0.106l-0.64-0.106l-2.985-0.853l-2.025-2.452
	l-0.106-0.32v-0.532V5.117l0.106-0.533l2.452-1.279l2.025-0.32h0.533h0.64l3.199,0.32l2.451,1.279l0.107,0.319v0.214V90.831z"/>
<path fill="none" stroke="#000000" stroke-width="2" d="M69.936,90.831v0.213l-2.665,1.492l-3.092,0.64l-2.984,0.533l-3.412,0.427
	l-3.945,0.319l-4.37,0.32l-3.092,0.106l-3.198,0.106h-3.305l-1.706,0.106h-1.706l-3.412-0.106h-3.305l-3.198-0.106l-3.092-0.106
	l-2.985-0.214l-4.051-0.319l-3.625-0.427L9.595,93.39l-3.305-0.747l-2.666-0.959l-0.64-0.64v-0.213V5.117V5.011l3.305-0.854
	l3.305-0.319l3.198-0.32l3.625-0.106l4.051-0.213l4.478-0.106l3.198-0.107h3.198h1.706h1.706h5.118h3.305l3.198,0.107h3.092
	l4.37,0.213l3.945,0.106l3.412,0.213l2.984,0.32l3.092,0.319l2.665,0.747v0.106V90.831"/>
<path fill="#E5E5E5" d="M26.013,90.831h20.896v12.579H26.013V90.831z"/>
<path fill="#F2F2F2" d="M30.704,90.831h11.514v12.579H30.704V90.831z"/>
<path fill="none" stroke="#000000" stroke-width="2" d="M26.013,95.095v8.315h20.896v-8.315"/>
<path fill="#666666" stroke="#000000" stroke-width="2" d="M44.777,85.607H28.039v7.356h16.738V85.607z"/>
<path fill="none" stroke="#FFFFFF" stroke-width="2" d="M69.936,40.085v0.106l-3.305,0.427l-3.306,0.106l-3.197,0.106l-3.625,0.106
	l-4.158,0.106l-4.371,0.106h-3.197h-1.6h-1.6h-1.705h-8.529h-3.198h-3.198l-2.985-0.106h-4.264l-3.731-0.106l-3.305-0.106
	l-3.625-0.213l-2.985-0.214l-1.066-0.213v-0.106"/>
<path fill="none" stroke="#FFFFFF" stroke-width="2" d="M69.936,32.303L69.936,32.303l-3.305,0.426l-3.306,0.106l-3.197,0.214
	l-3.625,0.106h-4.158l-4.371,0.106h-3.197h-1.6h-1.6h-1.705h-8.529h-3.198h-3.198l-2.985-0.106h-4.264l-3.731-0.106l-3.305-0.106
	l-3.625-0.214l-2.985-0.213l-1.066-0.213l0,0"/>
<path fill="none" stroke="#FFFFFF" stroke-width="2" d="M69.936,80.383v0.214l-2.665,0.959l-3.092,0.533l-2.984,0.427l-3.412,0.319
	l-3.945,0.213l-4.37,0.214l-3.092,0.106l-3.198,0.106h-1.6l-1.705,0.106h-1.706h-5.117l-3.305-0.106l-3.198-0.106l-3.092-0.106
	l-4.371-0.214l-3.944-0.213l-3.518-0.319l-2.985-0.427l-2.985-0.533l-2.666-0.959v-0.214"/>
<path fill="none" stroke="#FFFFFF" stroke-width="2" d="M69.936,71.001v0.107l-2.665,1.065l-3.092,0.533l-2.984,0.427l-3.412,0.213
	l-3.945,0.32l-4.37,0.213l-3.092,0.106l-3.198,0.106h-1.6h-1.705h-1.706h-5.117h-3.305l-3.198-0.106l-3.092-0.106l-4.371-0.213
	l-3.944-0.32l-3.518-0.213l-2.985-0.427l-2.985-0.533l-2.666-1.065v-0.107"/>
<path fill="#FFFFFF" stroke="#000000" stroke-width="2" d="M19.723,11.301h33.476v13.112H19.723V11.301z"/>
<path fill="none" stroke="#7F7F7F" stroke-width="2" d="M69.936,70.469v0.213l-2.665,0.959l-3.092,0.533l-2.984,0.427l-3.412,0.319
	l-3.945,0.214l-4.37,0.213l-3.092,0.106l-3.198,0.106h-1.6l-1.705,0.107h-1.706h-5.117l-3.305-0.107l-3.198-0.106l-3.092-0.106
	l-4.371-0.213l-3.944-0.214l-3.518-0.319l-2.985-0.427l-2.985-0.533l-2.666-0.959v-0.213"/>
<path fill="none" stroke="#7F7F7F" stroke-width="2" d="M69.936,79.85v0.214l-2.665,1.065l-3.092,0.533l-2.984,0.32l-3.412,0.319
	l-3.945,0.32l-4.37,0.106l-3.092,0.213h-3.198l-1.6,0.106h-1.705h-1.706h-5.117l-3.305-0.106h-3.198l-3.092-0.213l-4.371-0.106
	l-3.944-0.32l-3.518-0.319l-2.985-0.32l-2.985-0.533l-2.666-1.065V79.85"/>
<path fill="none" stroke="#7F7F7F" stroke-width="2" d="M69.936,39.552v0.106l-3.305,0.427l-3.306,0.106l-3.197,0.106l-3.625,0.106
	l-4.158,0.106l-4.371,0.107h-3.197h-1.6h-1.6h-1.705h-8.529h-3.198h-3.198l-2.985-0.107h-4.264l-3.731-0.106l-3.305-0.106
	l-3.625-0.213l-2.985-0.214l-1.066-0.213v-0.106"/>
<path fill="none" stroke="#7F7F7F" stroke-width="2" d="M69.936,31.77L69.936,31.77l-3.305,0.426l-3.306,0.107l-3.197,0.213h-3.625
	l-4.158,0.106l-4.371,0.106h-3.197h-1.6h-1.6h-1.705h-8.529h-3.198h-3.198l-2.985-0.106h-4.264l-3.731-0.106l-3.305-0.106
	l-3.625-0.214l-2.985-0.213L2.985,31.77l0,0"/>
<path fill="#8C8C8C" stroke="#000000" stroke-width="2" d="M61.727,9.275v11.407l8.209-0.746v-9.914L61.727,9.275z"/>
<path fill="#D9D9D9" stroke="#000000" stroke-width="2" d="M62.9,10.341v9.168l7.036-0.532v-7.996L62.9,10.341z"/>
<path fill="#669999" d="M38.06,21.322h13.539v2.025H38.06V21.322z"/>
</svg>
