<?xml version="1.0" encoding="utf-8"?>
<!-- Generator: Adobe Illustrator 14.0.0, SVG Export Plug-In . SVG Version: 6.00 Build 43363)  -->
<!DOCTYPE svg PUBLIC "-//W3C//DTD SVG 1.1//EN" "http://www.w3.org/Graphics/SVG/1.1/DTD/svg11.dtd">
<svg version="1.1" id="图层_1" xmlns="http://www.w3.org/2000/svg" xmlns:xlink="http://www.w3.org/1999/xlink" x="0px" y="0px"
	 width="101.167px" height="106.502px" viewBox="0 0 101.167 106.502" enable-background="new 0 0 101.167 106.502"
	 xml:space="preserve">
<path fill="#999999" stroke="#000000" stroke-width="2" d="M97.01,12.262H3.731l3.412-1.599l3.73-1.387l2.665-0.853l2.665-0.853
	l2.772-0.746l2.984-0.746l2.879-0.64l3.091-0.533l3.092-0.533l3.198-0.427l3.198-0.319l3.198-0.32l3.305-0.213l3.305-0.106h1.705
	h1.6h1.705l3.305,0.106L58.845,3.2l3.305,0.32l3.198,0.319l3.198,0.32l3.092,0.532l3.092,0.533l2.984,0.533l2.879,0.746l2.771,0.64
	l2.771,0.854l2.559,0.853l3.731,1.386l3.411,1.492L97.01,12.262z"/>
<path fill="#999999" d="M2.985,12.262h95.197v11.3H2.985V12.262z"/>
<path fill="#999999" d="M2.985,23.562h95.197v11.3H2.985V23.562z"/>
<path fill="#999999" d="M2.985,34.862h95.197v11.301H2.985V34.862z"/>
<path fill="#999999" d="M2.985,46.588h95.197v11.301H2.985V46.588z"/>
<path fill="#999999" d="M2.985,57.889h95.197v11.3H2.985V57.889z"/>
<path fill="#999999" d="M2.985,69.189h95.197v11.3H2.985V69.189z"/>
<path fill="#999999" d="M2.985,80.489h95.197v11.62H2.985V80.489z"/>
<path fill="#999999" stroke="#000000" stroke-width="2" d="M2.985,92.109h95.197v11.3H2.985V92.109z"/>
<path fill="#B2B2B2" d="M90.507,12.262H7.035l3.198-1.599l3.412-1.387l3.624-1.278l3.838-1.173l3.838-1.066l2.771-0.533l2.771-0.533
	l2.879-0.532l2.984-0.32l2.985-0.319l3.091-0.32l3.198-0.106l3.305-0.106h1.6h1.705l3.198,0.106L58.419,3.2l2.878,0.32l4.158,0.426
	l3.837,0.746l3.625,0.747l3.518,1.065l3.411,1.066l3.198,1.279l3.198,1.386l3.198,1.492L90.507,12.262z"/>
<path fill="#B2B2B2" d="M5.757,12.262h86.775v11.3H5.757V12.262z"/>
<path fill="#B2B2B2" d="M5.757,23.562h86.775v11.3H5.757V23.562z"/>
<path fill="#B2B2B2" d="M5.757,34.862h86.775v11.301H5.757V34.862z"/>
<path fill="#B2B2B2" d="M5.757,46.588h86.775v11.301H5.757V46.588z"/>
<path fill="#B2B2B2" d="M5.757,57.889h86.775v11.3H5.757V57.889z"/>
<path fill="#B2B2B2" d="M5.757,69.189h86.775v11.3H5.757V69.189z"/>
<path fill="#B2B2B2" d="M5.757,80.489h86.775v11.62H5.757V80.489z"/>
<path fill="#B2B2B2" d="M5.757,92.109h86.775v11.3H5.757V92.109z"/>
<path fill="#B2B2B2" d="M2.985,12.262h95.197v0.746H2.985V12.262z"/>
<path fill="#B2B2B2" d="M2.985,23.562h95.197v0.746H2.985V23.562z"/>
<path fill="#B2B2B2" d="M2.985,34.862h95.197v1.173H2.985V34.862z"/>
<path fill="#B2B2B2" d="M2.985,46.588h95.197v0.746H2.985V46.588z"/>
<path fill="#B2B2B2" d="M2.985,57.889h95.197v0.746H2.985V57.889z"/>
<path fill="#B2B2B2" d="M2.985,69.189h95.197v1.173H2.985V69.189z"/>
<path fill="#B2B2B2" d="M2.985,80.489h95.197v1.173H2.985V80.489z"/>
<path fill="#B2B2B2" d="M2.985,92.109h95.197v0.853H2.985V92.109z"/>
<path fill="#CCCCCC" d="M80.806,12.262H11.406l3.305-1.599l3.198-1.387l3.092-1.278l3.305-1.173l3.305-1.066l3.411-0.853
	l3.625-0.746l3.944-0.533L42.748,3.2l2.984-0.106l3.198-0.106h1.6h1.705l3.092,0.106l2.985,0.32l4.051,0.532L66.095,4.8l3.197,0.853
	l2.879,1.066l2.559,1.172l2.665,1.6l2.451,1.813l0.64,0.64L80.806,12.262z"/>
<path fill="#CCCCCC" d="M10.66,12.262h72.171v11.3H10.66V12.262z"/>
<path fill="#CCCCCC" d="M10.66,23.562h72.171v11.3H10.66V23.562z"/>
<path fill="#CCCCCC" d="M10.66,34.862h72.171v11.301H10.66V34.862z"/>
<path fill="#CCCCCC" d="M10.66,46.588h72.171v11.301H10.66V46.588z"/>
<path fill="#CCCCCC" d="M10.66,57.889h72.171v11.3H10.66V57.889z"/>
<path fill="#CCCCCC" d="M10.66,69.189h72.171v11.3H10.66V69.189z"/>
<path fill="#CCCCCC" d="M10.66,80.489h72.171v11.62H10.66V80.489z"/>
<path fill="#CCCCCC" d="M10.66,92.109h72.171v11.3H10.66V92.109z"/>
<path fill="#CCCCCC" d="M2.985,22.389h95.197v1.173H2.985V22.389z"/>
<path fill="#CCCCCC" d="M2.985,34.009h95.197v0.853H2.985V34.009z"/>
<path fill="#CCCCCC" d="M2.985,45.309h95.197v0.854H2.985V45.309z"/>
<path fill="#CCCCCC" d="M2.985,56.61h95.197v1.279H2.985V56.61z"/>
<path fill="#CCCCCC" d="M2.985,68.336h95.197v0.853H2.985V68.336z"/>
<path fill="#CCCCCC" d="M2.985,79.636h95.197v0.853H2.985V79.636z"/>
<path fill="#CCCCCC" d="M2.985,90.936h95.197v1.173H2.985V90.936z"/>
<path fill="#CCCCCC" d="M2.985,102.662h95.197v0.746H2.985V102.662z"/>
<path fill="#E5E5E5" d="M64.708,12.262H21.96l2.559-2.238l2.665-1.706l3.092-1.599l2.665-1.066l2.771-0.96l3.092-0.746l3.305-0.532
	l3.518-0.32l1.173-0.106h1.279h1.173L52.875,3.2l2.879,0.533L58.632,4.8l2.346,1.599l1.492,2.239l1.386,2.665l0.533,0.746
	L64.708,12.262z"/>
<path fill="#E5E5E5" d="M19.082,12.262h47.651v11.3H19.082V12.262z"/>
<path fill="#E5E5E5" d="M19.082,23.562h47.651v11.3H19.082V23.562z"/>
<path fill="#E5E5E5" d="M19.082,34.862h47.651v11.301H19.082V34.862z"/>
<path fill="#E5E5E5" d="M19.082,46.588h47.651v11.301H19.082V46.588z"/>
<path fill="#E5E5E5" d="M19.082,57.889h47.651v11.3H19.082V57.889z"/>
<path fill="#E5E5E5" d="M19.082,69.189h47.651v11.3H19.082V69.189z"/>
<path fill="#E5E5E5" d="M19.082,80.489h47.651v11.62H19.082V80.489z"/>
<path fill="#E5E5E5" d="M19.082,92.109h47.651v11.3H19.082V92.109z"/>
<path fill="none" stroke="#000000" stroke-width="2" d="M2.985,80.489h95.197v11.62H2.985V80.489"/>
<path fill="none" stroke="#000000" stroke-width="2" d="M2.985,69.189h95.197v11.3H2.985V69.189"/>
<path fill="none" stroke="#000000" stroke-width="2" d="M2.985,57.889h95.197v11.3H2.985V57.889"/>
<path fill="none" stroke="#000000" stroke-width="2" d="M2.985,46.588h95.197v11.301H2.985V46.588"/>
<path fill="none" stroke="#000000" stroke-width="2" d="M2.985,34.862h95.197v11.301H2.985V34.862"/>
<path fill="none" stroke="#000000" stroke-width="2" d="M2.985,23.562h95.197v11.3H2.985V23.562"/>
<path fill="none" stroke="#000000" stroke-width="2" d="M2.985,12.262h95.197v11.3H2.985V12.262"/>
<path fill="none" stroke="#999999" stroke-width="2" d="M23.133,15.887v36.352"/>
<path fill="none" stroke="#999999" stroke-width="2" d="M38.058,39.659v34.326"/>
<path fill="none" stroke="#999999" stroke-width="2" d="M75.156,41.685v59.698"/>
<path fill="none" stroke="#999999" stroke-width="2" d="M61.084,37.634v25.052"/>
</svg>
