<?xml version="1.0" encoding="utf-8"?>
<!-- Generator: Adobe Illustrator 14.0.0, SVG Export Plug-In . SVG Version: 6.00 Build 43363)  -->
<!DOCTYPE svg PUBLIC "-//W3C//DTD SVG 1.1//EN" "http://www.w3.org/Graphics/SVG/1.1/DTD/svg11.dtd">
<svg version="1.1" id="图层_1" xmlns="http://www.w3.org/2000/svg" xmlns:xlink="http://www.w3.org/1999/xlink" x="0px" y="0px"
	 width="144.749px" height="66.363px" viewBox="0 0 144.749 66.363" enable-background="new 0 0 144.749 66.363"
	 xml:space="preserve">
<path fill="#666666" stroke="#666666" stroke-width="2" d="M4.057,5.506h136.49v56.798H4.057V5.506z"/>
<path fill="#999999" stroke="#999999" stroke-width="2" d="M5.506,5.506h128.521v56.798H5.506V5.506z"/>
<path fill="#B2B2B2" stroke="#B2B2B2" stroke-width="2" d="M9.128,5.506h110.699v56.798H9.128V5.506z"/>
<path fill="#CCCCCC" d="M16.083,5.506h90.993v56.798H16.083V5.506z"/>
<path fill="#E5E5E5" stroke="#000000" stroke-width="2" d="M4.057,4.058h136.49v1.449H4.057V4.058z"/>
<path fill="#999999" stroke="#999999" stroke-width="2" d="M6.955,5.506h0.724v56.798H6.955V5.506z"/>
<path fill="#999999" stroke="#999999" stroke-width="2" d="M12.75,5.506h0.436v56.798H12.75V5.506z"/>
<path fill="#999999" stroke="#999999" stroke-width="2" d="M18.257,5.506h0.724v56.798h-0.724V5.506z"/>
<path fill="#999999" stroke="#999999" stroke-width="2" d="M24.052,5.506h0.725v56.798h-0.725V5.506z"/>
<path fill="#999999" stroke="#999999" stroke-width="2" d="M29.558,5.506h0.725v56.798h-0.725V5.506z"/>
<path fill="#999999" stroke="#999999" stroke-width="2" d="M35.354,5.506h0.725v56.798h-0.725V5.506z"/>
<path fill="#999999" stroke="#999999" stroke-width="2" d="M41.15,5.506h0.725v56.798H41.15V5.506z"/>
<path fill="#999999" stroke="#999999" stroke-width="2" d="M46.656,5.506h0.725v56.798h-0.725V5.506z"/>
<path fill="#999999" stroke="#999999" stroke-width="2" d="M52.451,5.506h0.725v56.798h-0.725V5.506z"/>
<path fill="#999999" stroke="#999999" stroke-width="2" d="M58.247,5.506h0.435v56.798h-0.435V5.506z"/>
<path fill="#999999" stroke="#999999" stroke-width="2" d="M63.753,5.506h0.725v56.798h-0.725V5.506z"/>
<path fill="#999999" stroke="#999999" stroke-width="2" d="M69.549,5.506h0.725v56.798h-0.725V5.506z"/>
<path fill="#999999" stroke="#999999" stroke-width="2" d="M75.055,5.506h0.725v56.798h-0.725V5.506z"/>
<path fill="#999999" stroke="#999999" stroke-width="2" d="M80.851,5.506h0.725v56.798h-0.725V5.506z"/>
<path fill="#999999" stroke="#999999" stroke-width="2" d="M86.647,5.506h0.725v56.798h-0.725V5.506z"/>
<path fill="#999999" stroke="#999999" stroke-width="2" d="M92.153,5.506h0.725v56.798h-0.725V5.506z"/>
<path fill="#999999" stroke="#999999" stroke-width="2" d="M97.948,5.506h0.725v56.798h-0.725V5.506z"/>
<path fill="#999999" stroke="#999999" stroke-width="2" d="M103.744,5.506h0.435v56.798h-0.435V5.506z"/>
<path fill="#999999" stroke="#999999" stroke-width="2" d="M109.25,5.506h0.724v56.798h-0.724V5.506z"/>
<path fill="#999999" stroke="#999999" stroke-width="2" d="M115.045,5.506h0.725v56.798h-0.725V5.506z"/>
<path fill="#999999" stroke="#999999" stroke-width="2" d="M120.552,5.506h0.724v56.798h-0.724V5.506z"/>
<path fill="#999999" stroke="#999999" stroke-width="2" d="M126.347,5.506h0.725v56.798h-0.725V5.506z"/>
<path fill="#999999" stroke="#999999" stroke-width="2" d="M132.143,5.506h0.725v56.798h-0.725V5.506z"/>
<path fill="#999999" stroke="#999999" stroke-width="2" d="M137.649,5.506h0.725v56.798h-0.725V5.506z"/>
<path fill="#B2B2B2" stroke="#B2B2B2" stroke-width="2" d="M6.231,5.506h0.725v56.798H6.231V5.506z"/>
<path fill="#B2B2B2" stroke="#B2B2B2" stroke-width="2" d="M12.027,5.506h0.435v56.798h-0.435V5.506z"/>
<path fill="#B2B2B2" stroke="#B2B2B2" stroke-width="2" d="M17.532,5.506h0.725v56.798h-0.725V5.506z"/>
<path fill="#B2B2B2" stroke="#B2B2B2" stroke-width="2" d="M23.328,5.506h0.724v56.798h-0.724V5.506z"/>
<path fill="#B2B2B2" stroke="#B2B2B2" stroke-width="2" d="M28.834,5.506h0.724v56.798h-0.724V5.506z"/>
<path fill="#B2B2B2" stroke="#B2B2B2" stroke-width="2" d="M34.629,5.506h0.725v56.798h-0.725V5.506z"/>
<path fill="#B2B2B2" stroke="#B2B2B2" stroke-width="2" d="M40.425,5.506h0.725v56.798h-0.725V5.506z"/>
<path fill="#B2B2B2" stroke="#B2B2B2" stroke-width="2" d="M45.931,5.506h0.725v56.798h-0.725V5.506z"/>
<path fill="#B2B2B2" stroke="#B2B2B2" stroke-width="2" d="M51.727,5.506h0.725v56.798h-0.725V5.506z"/>
<path fill="#B2B2B2" stroke="#B2B2B2" stroke-width="2" d="M57.523,5.506h0.435v56.798h-0.435V5.506z"/>
<path fill="#B2B2B2" stroke="#B2B2B2" stroke-width="2" d="M63.029,5.506h0.725v56.798h-0.725V5.506z"/>
<path fill="#B2B2B2" stroke="#B2B2B2" stroke-width="2" d="M68.824,5.506h0.725v56.798h-0.725V5.506z"/>
<path fill="#B2B2B2" stroke="#B2B2B2" stroke-width="2" d="M74.33,5.506h0.725v56.798H74.33V5.506z"/>
<path fill="#B2B2B2" stroke="#B2B2B2" stroke-width="2" d="M80.126,5.506h0.725v56.798h-0.725V5.506z"/>
<path fill="#B2B2B2" stroke="#B2B2B2" stroke-width="2" d="M85.922,5.506h0.725v56.798h-0.725V5.506z"/>
<path fill="#B2B2B2" stroke="#B2B2B2" stroke-width="2" d="M91.428,5.506h0.725v56.798h-0.725V5.506z"/>
<path fill="#B2B2B2" stroke="#B2B2B2" stroke-width="2" d="M97.224,5.506h0.725v56.798h-0.725V5.506z"/>
<path fill="#B2B2B2" stroke="#B2B2B2" stroke-width="2" d="M103.02,5.506h0.435v56.798h-0.435V5.506z"/>
<path fill="#B2B2B2" stroke="#B2B2B2" stroke-width="2" d="M108.526,5.506h0.725v56.798h-0.725V5.506z"/>
<path fill="#B2B2B2" stroke="#B2B2B2" stroke-width="2" d="M114.322,5.506h0.724v56.798h-0.724V5.506z"/>
<path fill="#B2B2B2" stroke="#B2B2B2" stroke-width="2" d="M119.827,5.506h0.725v56.798h-0.725V5.506z"/>
<path fill="#B2B2B2" stroke="#B2B2B2" stroke-width="2" d="M125.623,5.506h0.724v56.798h-0.724V5.506z"/>
<path fill="#B2B2B2" stroke="#B2B2B2" stroke-width="2" d="M131.418,5.506h0.725v56.798h-0.725V5.506z"/>
<path fill="#B2B2B2" stroke="#B2B2B2" stroke-width="2" d="M136.924,5.506h0.725v56.798h-0.725V5.506z"/>
<path fill="none" stroke="#000000" stroke-width="2" d="M4.057,5.506h136.49v56.798H4.057V5.506"/>
</svg>
