<?xml version="1.0" encoding="utf-8"?>
<!-- Generator: Adobe Illustrator 14.0.0, SVG Export Plug-In . SVG Version: 6.00 Build 43363)  -->
<!DOCTYPE svg PUBLIC "-//W3C//DTD SVG 1.1//EN" "http://www.w3.org/Graphics/SVG/1.1/DTD/svg11.dtd">
<svg version="1.1" id="图层_1" xmlns="http://www.w3.org/2000/svg" xmlns:xlink="http://www.w3.org/1999/xlink" x="0px" y="0px"
	 width="144.749px" height="97.775px" viewBox="0 0 144.749 97.775" enable-background="new 0 0 144.749 97.775"
	 xml:space="preserve">
<path fill="#666666" d="M8.194,49.161l0.819,1.365L8.466,50.8l-0.819-1.366L8.194,49.161z M7.101,49.981l0.546,1.092l-0.546,0.547
	l-0.546-1.366L7.101,49.981z M5.736,50.527l0.819,1.365l-0.819,0.273l-0.547-1.093L5.736,50.527z M9.559,48.342l0.819,1.365
	l-0.546,0.273l-0.819-1.093L9.559,48.342z M10.924,47.795l0.547,1.093l-0.547,0.273l-0.546-1.093L10.924,47.795z M12.29,46.976
	l0.546,1.093l-0.546,0.546l-0.819-1.365L12.29,46.976z M13.382,46.156l0.819,1.366l-0.546,0.272l-0.819-1.365L13.382,46.156z
	 M14.748,45.337l0.546,1.366l-0.546,0.272l-0.547-1.092L14.748,45.337z M16.114,44.791l0.546,1.093l-0.546,0.546l-0.819-1.365
	L16.114,44.791z M17.206,43.972l0.819,1.365l-0.547,0.273l-0.819-1.365L17.206,43.972z M18.572,43.153l0.819,1.365l-0.819,0.273
	l-0.546-1.093L18.572,43.153z M19.937,42.607l0.547,1.092l-0.547,0.547l-0.819-1.366L19.937,42.607z M21.03,41.787l0.819,1.365
	l-0.546,0.273l-0.819-1.366L21.03,41.787z M22.395,40.968l0.819,1.365l-0.819,0.273l-0.546-1.093L22.395,40.968z M23.761,40.421
	l0.546,1.093l-0.546,0.273l-0.819-1.093L23.761,40.421z M24.853,39.602l0.819,1.093l-0.546,0.546l-0.819-1.365L24.853,39.602z
	 M26.219,38.782l0.819,1.366l-0.819,0.272l-0.547-1.365L26.219,38.782z M27.584,37.963l0.546,1.366l-0.546,0.272l-0.819-1.092
	L27.584,37.963z M28.677,37.417l0.819,1.093l-0.547,0.546l-0.819-1.365L28.677,37.417z M30.042,36.598l0.819,1.365l-0.819,0.273
	l-0.546-1.365L30.042,36.598z M31.407,35.779l0.547,1.365l-0.547,0.273l-0.819-1.093L31.407,35.779z M32.5,35.233l0.819,1.092
	l-0.546,0.273l-0.819-1.093L32.5,35.233z M33.865,34.413l0.819,1.092l-0.819,0.547l-0.546-1.365L33.865,34.413z M35.232,33.594
	l0.546,1.365l-0.546,0.273l-0.819-1.093L35.232,33.594z M36.323,33.048l0.819,1.092l-0.546,0.273l-0.819-1.093L36.323,33.048z
	 M37.69,32.229l0.819,1.092l-0.819,0.547l-0.547-1.366L37.69,32.229z M39.055,31.409l0.546,1.365l-0.546,0.273l-0.546-1.366
	L39.055,31.409z M40.148,30.59l0.819,1.365l-0.547,0.273l-0.819-1.093L40.148,30.59z M41.513,30.043l0.819,1.093l-0.546,0.546
	l-0.819-1.365L41.513,30.043z M42.878,29.224l0.547,1.366l-0.547,0.272l-0.546-1.365L42.878,29.224z M44.244,28.405l0.546,1.366
	l-0.546,0.272l-0.819-1.092L44.244,28.405z M45.336,27.859l0.819,1.093l-0.546,0.272l-0.819-1.092L45.336,27.859z M46.702,27.039
	l0.546,1.093l-0.546,0.546l-0.547-1.365L46.702,27.039z M48.068,26.22l0.546,1.365l-0.546,0.273l-0.819-1.093L48.068,26.22z
	 M49.16,25.674l0.819,1.092l-0.547,0.273l-0.819-1.093L49.16,25.674z M50.526,24.855l0.819,1.092l-0.819,0.547l-0.546-1.366
	L50.526,24.855z M51.891,24.035l0.547,1.365l-0.547,0.273l-0.819-1.366L51.891,24.035z M52.984,23.216l0.819,1.365l-0.546,0.273
	l-0.819-1.093L52.984,23.216z M54.349,22.669l0.819,1.093l-0.819,0.546l-0.546-1.365L54.349,22.669z M55.715,21.85l0.546,1.366
	l-0.546,0.272l-0.819-1.365L55.715,21.85z M56.807,21.031l0.819,1.366l-0.546,0.272l-0.819-1.092L56.807,21.031z M58.173,20.485
	l0.819,1.093l-0.819,0.272l-0.547-1.092L58.173,20.485z M59.538,19.665l0.546,1.093l-0.546,0.546l-0.819-1.365L59.538,19.665z
	 M60.631,18.846l0.819,1.365l-0.547,0.273l-0.819-1.093L60.631,18.846z M61.996,18.027l0.819,1.365l-0.819,0.273l-0.546-1.093
	L61.996,18.027z M63.362,17.481l0.547,1.092l-0.547,0.547l-0.819-1.366L63.362,17.481z M64.454,16.661l0.819,1.365L64.728,18.3
	l-0.819-1.366L64.454,16.661z M65.82,15.842l0.819,1.365l-0.819,0.273l-0.546-1.093L65.82,15.842z M67.185,15.295l0.547,1.093
	l-0.547,0.546l-0.819-1.365L67.185,15.295z M68.278,14.476l0.819,1.366l-0.546,0.272l-0.819-1.365L68.278,14.476z M69.643,13.656
	l0.819,1.366l-0.819,0.272l-0.546-1.092L69.643,13.656z M71.009,13.111l0.546,1.093l-0.546,0.272l-0.547-1.092L71.009,13.111z
	 M72.101,12.291l0.819,1.093l-0.546,0.546l-0.819-1.365L72.101,12.291z M73.467,13.111l0.546,0.546L5.462,53.258l-0.273-0.547
	L73.467,13.111z M72.648,11.198l0.272,0.819L4.369,51.346L4.097,50.8L72.648,11.198z"/>
<path fill="none" stroke="#000000" stroke-width="2" d="M8.194,49.161l0.819,1.365L8.466,50.8l-0.819-1.366L8.194,49.161"/>
<path fill="none" stroke="#000000" stroke-width="2" d="M7.101,49.981l0.546,1.092l-0.546,0.547l-0.546-1.366L7.101,49.981"/>
<path fill="none" stroke="#000000" stroke-width="2" d="M5.736,50.527l0.819,1.365l-0.819,0.273l-0.547-1.093L5.736,50.527"/>
<path fill="none" stroke="#000000" stroke-width="2" d="M9.559,48.342l0.819,1.365l-0.546,0.273l-0.819-1.093L9.559,48.342"/>
<path fill="none" stroke="#000000" stroke-width="2" d="M10.924,47.795l0.547,1.093l-0.547,0.273l-0.546-1.093L10.924,47.795"/>
<path fill="none" stroke="#000000" stroke-width="2" d="M12.29,46.976l0.546,1.093l-0.546,0.546l-0.819-1.365L12.29,46.976"/>
<path fill="none" stroke="#000000" stroke-width="2" d="M13.382,46.156l0.819,1.366l-0.546,0.272l-0.819-1.365L13.382,46.156"/>
<path fill="none" stroke="#000000" stroke-width="2" d="M14.748,45.337l0.546,1.366l-0.546,0.272l-0.547-1.092L14.748,45.337"/>
<path fill="none" stroke="#000000" stroke-width="2" d="M16.114,44.791l0.546,1.093l-0.546,0.546l-0.819-1.365L16.114,44.791"/>
<path fill="none" stroke="#000000" stroke-width="2" d="M17.206,43.972l0.819,1.365l-0.547,0.273l-0.819-1.365L17.206,43.972"/>
<path fill="none" stroke="#000000" stroke-width="2" d="M18.572,43.153l0.819,1.365l-0.819,0.273l-0.546-1.093L18.572,43.153"/>
<path fill="none" stroke="#000000" stroke-width="2" d="M19.937,42.607l0.547,1.092l-0.547,0.547l-0.819-1.366L19.937,42.607"/>
<path fill="none" stroke="#000000" stroke-width="2" d="M21.03,41.787l0.819,1.365l-0.546,0.273l-0.819-1.366L21.03,41.787"/>
<path fill="none" stroke="#000000" stroke-width="2" d="M22.395,40.968l0.819,1.365l-0.819,0.273l-0.546-1.093L22.395,40.968"/>
<path fill="none" stroke="#000000" stroke-width="2" d="M23.761,40.421l0.546,1.093l-0.546,0.273l-0.819-1.093L23.761,40.421"/>
<path fill="none" stroke="#000000" stroke-width="2" d="M24.853,39.602l0.819,1.093l-0.546,0.546l-0.819-1.365L24.853,39.602"/>
<path fill="none" stroke="#000000" stroke-width="2" d="M26.219,38.782l0.819,1.366l-0.819,0.272l-0.547-1.365L26.219,38.782"/>
<path fill="none" stroke="#000000" stroke-width="2" d="M27.584,37.963l0.546,1.366l-0.546,0.272l-0.819-1.092L27.584,37.963"/>
<path fill="none" stroke="#000000" stroke-width="2" d="M28.677,37.417l0.819,1.093l-0.547,0.546l-0.819-1.365L28.677,37.417"/>
<path fill="none" stroke="#000000" stroke-width="2" d="M30.042,36.598l0.819,1.365l-0.819,0.273l-0.546-1.365L30.042,36.598"/>
<path fill="none" stroke="#000000" stroke-width="2" d="M31.407,35.779l0.547,1.365l-0.547,0.273l-0.819-1.093L31.407,35.779"/>
<path fill="none" stroke="#000000" stroke-width="2" d="M32.5,35.233l0.819,1.092l-0.546,0.273l-0.819-1.093L32.5,35.233"/>
<path fill="none" stroke="#000000" stroke-width="2" d="M33.865,34.413l0.819,1.092l-0.819,0.547l-0.546-1.365L33.865,34.413"/>
<path fill="none" stroke="#000000" stroke-width="2" d="M35.232,33.594l0.546,1.365l-0.546,0.273l-0.819-1.093L35.232,33.594"/>
<path fill="none" stroke="#000000" stroke-width="2" d="M36.323,33.048l0.819,1.092l-0.546,0.273l-0.819-1.093L36.323,33.048"/>
<path fill="none" stroke="#000000" stroke-width="2" d="M37.69,32.229l0.819,1.092l-0.819,0.547l-0.547-1.366L37.69,32.229"/>
<path fill="none" stroke="#000000" stroke-width="2" d="M39.055,31.409l0.546,1.365l-0.546,0.273l-0.546-1.366L39.055,31.409"/>
<path fill="none" stroke="#000000" stroke-width="2" d="M40.148,30.59l0.819,1.365l-0.547,0.273l-0.819-1.093L40.148,30.59"/>
<path fill="none" stroke="#000000" stroke-width="2" d="M41.513,30.043l0.819,1.093l-0.546,0.546l-0.819-1.365L41.513,30.043"/>
<path fill="none" stroke="#000000" stroke-width="2" d="M42.878,29.224l0.547,1.366l-0.547,0.272l-0.546-1.365L42.878,29.224"/>
<path fill="none" stroke="#000000" stroke-width="2" d="M44.244,28.405l0.546,1.366l-0.546,0.272l-0.819-1.092L44.244,28.405"/>
<path fill="none" stroke="#000000" stroke-width="2" d="M45.336,27.859l0.819,1.093l-0.546,0.272l-0.819-1.092L45.336,27.859"/>
<path fill="none" stroke="#000000" stroke-width="2" d="M46.702,27.039l0.546,1.093l-0.546,0.546l-0.547-1.365L46.702,27.039"/>
<path fill="none" stroke="#000000" stroke-width="2" d="M48.068,26.22l0.546,1.365l-0.546,0.273l-0.819-1.093L48.068,26.22"/>
<path fill="none" stroke="#000000" stroke-width="2" d="M49.16,25.674l0.819,1.092l-0.547,0.273l-0.819-1.093L49.16,25.674"/>
<path fill="none" stroke="#000000" stroke-width="2" d="M50.526,24.855l0.819,1.092l-0.819,0.547l-0.546-1.366L50.526,24.855"/>
<path fill="none" stroke="#000000" stroke-width="2" d="M51.891,24.035l0.547,1.365l-0.547,0.273l-0.819-1.366L51.891,24.035"/>
<path fill="none" stroke="#000000" stroke-width="2" d="M52.984,23.216l0.819,1.365l-0.546,0.273l-0.819-1.093L52.984,23.216"/>
<path fill="none" stroke="#000000" stroke-width="2" d="M54.349,22.669l0.819,1.093l-0.819,0.546l-0.546-1.365L54.349,22.669"/>
<path fill="none" stroke="#000000" stroke-width="2" d="M55.715,21.85l0.546,1.366l-0.546,0.272l-0.819-1.365L55.715,21.85"/>
<path fill="none" stroke="#000000" stroke-width="2" d="M56.807,21.031l0.819,1.366l-0.546,0.272l-0.819-1.092L56.807,21.031"/>
<path fill="none" stroke="#000000" stroke-width="2" d="M58.173,20.485l0.819,1.093l-0.819,0.272l-0.547-1.092L58.173,20.485"/>
<path fill="none" stroke="#000000" stroke-width="2" d="M59.538,19.665l0.546,1.093l-0.546,0.546l-0.819-1.365L59.538,19.665"/>
<path fill="none" stroke="#000000" stroke-width="2" d="M60.631,18.846l0.819,1.365l-0.547,0.273l-0.819-1.093L60.631,18.846"/>
<path fill="none" stroke="#000000" stroke-width="2" d="M61.996,18.027l0.819,1.365l-0.819,0.273l-0.546-1.093L61.996,18.027"/>
<path fill="none" stroke="#000000" stroke-width="2" d="M63.362,17.481l0.547,1.092l-0.547,0.547l-0.819-1.366L63.362,17.481"/>
<path fill="none" stroke="#000000" stroke-width="2" d="M64.454,16.661l0.819,1.365L64.728,18.3l-0.819-1.366L64.454,16.661"/>
<path fill="none" stroke="#000000" stroke-width="2" d="M65.82,15.842l0.819,1.365l-0.819,0.273l-0.546-1.093L65.82,15.842"/>
<path fill="none" stroke="#000000" stroke-width="2" d="M67.185,15.295l0.547,1.093l-0.547,0.546l-0.819-1.365L67.185,15.295"/>
<path fill="none" stroke="#000000" stroke-width="2" d="M68.278,14.476l0.819,1.366l-0.546,0.272l-0.819-1.365L68.278,14.476"/>
<path fill="none" stroke="#000000" stroke-width="2" d="M69.643,13.656l0.819,1.366l-0.819,0.272l-0.546-1.092L69.643,13.656"/>
<path fill="none" stroke="#000000" stroke-width="2" d="M71.009,13.111l0.546,1.093l-0.546,0.272l-0.547-1.092L71.009,13.111"/>
<path fill="none" stroke="#000000" stroke-width="2" d="M72.101,12.291l0.819,1.093l-0.546,0.546l-0.819-1.365L72.101,12.291"/>
<path fill="none" stroke="#000000" stroke-width="2" d="M73.467,13.111l0.546,0.546L5.462,53.258l-0.273-0.547L73.467,13.111"/>
<path fill="none" stroke="#000000" stroke-width="2" d="M72.648,11.198l0.272,0.819L4.369,51.346L4.097,50.8L72.648,11.198"/>
<path stroke="#000000" stroke-width="2" d="M4.369,53.258H7.92v1.365H4.369V53.258z"/>
<path d="M5.189,53.258v-3.005H4.369v3.005H5.189z"/>
<path fill="none" stroke="#000000" stroke-width="2" d="M4.369,53.258h0.819v-3.005H4.369V53.258"/>
<path fill="#4C4C4C" stroke="#000000" stroke-width="2" d="M6.555,17.481L73.467,4.098l67.186,13.383H6.555z"/>
<path fill="#CCCCCC" d="M17.752,17.481L73.467,4.098L6.555,17.481H17.752z"/>
<path fill="#E5E5E5" d="M17.752,17.481h11.744L73.467,4.098L17.752,17.481z"/>
<path fill="#FFFFFF" d="M29.496,17.481h12.017L73.467,4.098L29.496,17.481z"/>
<path fill="#E5E5E5" d="M41.513,17.481H69.37l4.097-13.383L41.513,17.481z"/>
<path fill="#CCCCCC" d="M98.047,17.481L73.467,4.098L69.37,17.481H98.047z"/>
<path fill="#B2B2B2" d="M117.711,17.481L73.467,4.098l24.58,13.383H117.711z"/>
<path fill="#7F7F7F" d="M129.454,17.481L73.467,4.098l44.244,13.383H129.454z"/>
<path fill="#666666" d="M135.737,17.481L73.467,4.098l55.168,13.383H135.737z"/>
<path fill="none" stroke="#000000" stroke-width="2" d="M6.555,17.481L73.467,4.098l67.186,13.383H6.555"/>
<path fill="#4C4C4C" d="M11.471,16.934h127.815v76.744H11.471V16.934z"/>
<path fill="#666666" d="M9.559,16.934h126.45v76.744H9.559V16.934z"/>
<path fill="#7F7F7F" d="M9.559,16.934h119.623v76.744H9.559V16.934z"/>
<path fill="#B2B2B2" d="M9.559,16.934h107.879v76.744H9.559V16.934z"/>
<path fill="#CCCCCC" d="M9.559,16.934H97.5v76.744H9.559V16.934z"/>
<path fill="#E5E5E5" d="M9.559,16.934h60.084v76.744H9.559V16.934z"/>
<path fill="#FFFFFF" d="M9.559,16.934h31.954v76.744H9.559V16.934z"/>
<path fill="#E5E5E5" d="M9.559,16.934h19.938v76.744H9.559V16.934z"/>
<path fill="#CCCCCC" d="M7.647,16.934h10.105v76.744H7.647V16.934z"/>
<path fill="none" stroke="#000000" stroke-width="2" d="M7.647,16.934h131.64v76.744H7.647V16.934"/>
<path fill="#666666" d="M6.555,16.934h134.098V18.3H6.555V16.934z"/>
<path fill="none" stroke="#E5E5E5" stroke-width="2" d="M9.559,16.934H6.555V18.3"/>
<path fill="none" stroke="#E5E5E5" stroke-width="2" d="M140.653,16.934H9.559"/>
<path fill="none" stroke="#000000" stroke-width="2" d="M6.555,18.3h134.098v-1.366"/>
<path fill="none" stroke="#000000" stroke-width="2" d="M7.92,15.295h132.732"/>
<path fill="none" stroke="#000000" stroke-width="2" d="M9.285,16.934v-1.639"/>
<path fill="none" stroke="#000000" stroke-width="2" d="M16.114,16.934v-1.639"/>
<path fill="none" stroke="#000000" stroke-width="2" d="M22.668,16.934v-1.639"/>
<path fill="none" stroke="#000000" stroke-width="2" d="M29.496,16.934v-1.639"/>
<path fill="none" stroke="#000000" stroke-width="2" d="M36.051,16.934v-1.639"/>
<path fill="none" stroke="#000000" stroke-width="2" d="M42.878,16.934v-1.639"/>
<path fill="none" stroke="#000000" stroke-width="2" d="M49.433,16.934v-1.639"/>
<path fill="none" stroke="#000000" stroke-width="2" d="M56.261,16.934v-1.639"/>
<path fill="none" stroke="#000000" stroke-width="2" d="M63.089,16.934v-1.639"/>
<path fill="none" stroke="#000000" stroke-width="2" d="M69.643,16.934v-1.639"/>
<path fill="none" stroke="#000000" stroke-width="2" d="M76.471,16.934v-1.639"/>
<path fill="none" stroke="#000000" stroke-width="2" d="M83.026,16.934v-1.639"/>
<path fill="none" stroke="#000000" stroke-width="2" d="M89.854,16.934v-1.639"/>
<path fill="none" stroke="#000000" stroke-width="2" d="M96.408,16.934v-1.639"/>
<path fill="none" stroke="#000000" stroke-width="2" d="M103.236,16.934v-1.639"/>
<path fill="none" stroke="#000000" stroke-width="2" d="M109.79,16.934v-1.639"/>
<path fill="none" stroke="#000000" stroke-width="2" d="M116.618,16.934v-1.639"/>
<path fill="none" stroke="#000000" stroke-width="2" d="M123.447,16.934v-1.639"/>
<path fill="none" stroke="#000000" stroke-width="2" d="M130.001,16.934v-1.639"/>
<path fill="none" stroke="#000000" stroke-width="2" d="M136.828,16.934v-1.639"/>
<path fill="#7F7F7F" stroke="#000000" stroke-width="2" d="M71.555,91.493h3.551v1.365h-3.551V91.493z"/>
<path fill="#666666" d="M9.285,53.804l-0.819,1.365L7.92,54.623l0.819-1.093L9.285,53.804z M7.92,52.985L7.374,54.35l-0.819-0.272
	l0.819-1.366L7.92,52.985z M6.827,52.439l-0.819,1.092l-0.546-0.272l0.546-1.366L6.827,52.439z M10.652,54.623l-0.819,1.093
	l-0.547-0.273l0.547-1.093L10.652,54.623z M11.743,55.443l-0.546,1.093l-0.546-0.273l0.546-1.365L11.743,55.443z M13.11,55.989
	l-0.819,1.366l-0.547-0.273l0.819-1.365L13.11,55.989z M14.475,56.808l-0.819,1.366l-0.546-0.547l0.546-1.092L14.475,56.808z
	 M15.568,57.627l-0.547,1.093l-0.546-0.273l0.546-1.365L15.568,57.627z M16.933,58.174l-0.819,1.365l-0.546-0.273l0.819-1.365
	L16.933,58.174z M18.298,58.993l-0.819,1.365l-0.546-0.546l0.819-1.093L18.298,58.993z M19.391,59.813l-0.546,1.092l-0.547-0.272
	l0.547-1.093L19.391,59.813z M20.756,60.632l-0.546,1.092l-0.819-0.272l0.819-1.366L20.756,60.632z M22.122,61.178l-0.819,1.365
	l-0.547-0.546l0.819-1.093L22.122,61.178z M23.488,61.997l-0.819,1.093l-0.546-0.273l0.546-1.093L23.488,61.997z M24.58,62.817
	l-0.547,1.093l-0.819-0.273l0.819-1.365L24.58,62.817z M25.946,63.363l-0.819,1.366l-0.546-0.273L25.4,63.09L25.946,63.363z
	 M27.311,64.182l-0.819,1.366l-0.546-0.547l0.546-1.092L27.311,64.182z M28.404,65.001l-0.546,1.093l-0.819-0.273l0.819-1.365
	L28.404,65.001z M29.769,65.548l-0.819,1.365l-0.546-0.273l0.819-1.365L29.769,65.548z M31.135,66.367l-0.819,1.365l-0.547-0.546
	l0.547-1.093L31.135,66.367z M32.227,67.187l-0.546,1.092l-0.819-0.272l0.819-1.093L32.227,67.187z M33.593,68.006l-0.819,1.092
	l-0.547-0.272l0.819-1.366L33.593,68.006z M34.958,68.552l-0.819,1.365l-0.546-0.546l0.546-1.093L34.958,68.552z M36.051,69.371
	l-0.547,1.093l-0.819-0.273l0.819-1.093L36.051,69.371z M37.416,70.191l-0.819,1.093l-0.546-0.273l0.819-1.365L37.416,70.191z
	 M38.781,70.737l-0.819,1.366l-0.546-0.273l0.546-1.365L38.781,70.737z M39.874,71.556l-0.546,1.366l-0.819-0.547l0.819-1.092
	L39.874,71.556z M41.24,72.375l-0.819,1.093l-0.546-0.273l0.819-1.365L41.24,72.375z M42.606,72.922l-0.819,1.365l-0.547-0.273
	l0.547-1.365L42.606,72.922z M43.698,73.741l-0.546,1.365l-0.546-0.546l0.546-1.093L43.698,73.741z M45.064,74.561l-0.819,1.092
	l-0.547-0.272l0.819-1.093L45.064,74.561z M46.429,75.38l-0.819,1.092l-0.546-0.272l0.546-1.366L46.429,75.38z M47.522,75.926
	l-0.547,1.365l-0.546-0.546l0.546-1.093L47.522,75.926z M48.887,76.745l-0.819,1.093l-0.546-0.273l0.819-1.093L48.887,76.745z
	 M50.252,77.565l-0.819,1.093l-0.546-0.273l0.819-1.365L50.252,77.565z M51.345,78.111l-0.546,1.366l-0.547-0.273l0.547-1.365
	L51.345,78.111z M52.71,78.93l-0.546,1.366l-0.819-0.547l0.819-1.092L52.71,78.93z M54.076,79.749l-0.819,1.093l-0.547-0.273
	l0.819-1.365L54.076,79.749z M55.442,80.296l-0.819,1.365l-0.546-0.273l0.546-1.365L55.442,80.296z M56.534,81.115l-0.547,1.365
	l-0.819-0.546l0.819-1.093L56.534,81.115z M57.9,81.935l-0.819,1.092l-0.546-0.272l0.819-1.093L57.9,81.935z M59.265,82.754
	l-0.819,1.092L57.9,83.573l0.546-1.366L59.265,82.754z M60.358,83.3l-0.546,1.365l-0.819-0.272l0.819-1.366L60.358,83.3z
	 M61.723,84.119l-0.819,1.365l-0.546-0.546l0.819-1.093L61.723,84.119z M63.089,84.939l-0.819,1.093l-0.547-0.273l0.547-1.365
	L63.089,84.939z M64.181,85.485l-0.546,1.366l-0.819-0.273l0.819-1.365L64.181,85.485z M65.547,86.304l-0.819,1.366l-0.547-0.547
	L65,86.031L65.547,86.304z M66.912,87.123l-0.819,1.093l-0.546-0.273l0.546-1.365L66.912,87.123z M68.004,87.67l-0.546,1.365
	l-0.819-0.273l0.819-1.365L68.004,87.67z M69.37,88.49l-0.819,1.365l-0.547-0.546l0.819-1.093L69.37,88.49z M70.736,89.309
	l-0.819,1.092l-0.546-0.272l0.546-1.093L70.736,89.309z M71.828,90.128l-0.547,1.092l-0.819-0.272l0.819-1.366L71.828,90.128z
	 M73.194,90.674l-0.819,1.365l-0.546-0.272l0.819-1.366L73.194,90.674z M73.194,92.313l-0.546,0.546L4.369,53.531l0.273-0.546
	L73.194,92.313z M74.286,90.401L73.74,91.22L5.462,51.619l0.273-0.547L74.286,90.401z"/>
<path fill="none" stroke="#000000" stroke-width="2" d="M9.285,53.804l-0.819,1.365L7.92,54.623l0.819-1.093L9.285,53.804"/>
<path fill="none" stroke="#000000" stroke-width="2" d="M7.92,52.985L7.374,54.35l-0.819-0.272l0.819-1.366L7.92,52.985"/>
<path fill="none" stroke="#000000" stroke-width="2" d="M6.827,52.439l-0.819,1.092l-0.546-0.272l0.546-1.366L6.827,52.439"/>
<path fill="none" stroke="#000000" stroke-width="2" d="M10.652,54.623l-0.819,1.093l-0.547-0.273l0.547-1.093L10.652,54.623"/>
<path fill="none" stroke="#000000" stroke-width="2" d="M11.743,55.443l-0.546,1.093l-0.546-0.273l0.546-1.365L11.743,55.443"/>
<path fill="none" stroke="#000000" stroke-width="2" d="M13.11,55.989l-0.819,1.366l-0.547-0.273l0.819-1.365L13.11,55.989"/>
<path fill="none" stroke="#000000" stroke-width="2" d="M14.475,56.808l-0.819,1.366l-0.546-0.547l0.546-1.092L14.475,56.808"/>
<path fill="none" stroke="#000000" stroke-width="2" d="M15.568,57.627l-0.547,1.093l-0.546-0.273l0.546-1.365L15.568,57.627"/>
<path fill="none" stroke="#000000" stroke-width="2" d="M16.933,58.174l-0.819,1.365l-0.546-0.273l0.819-1.365L16.933,58.174"/>
<path fill="none" stroke="#000000" stroke-width="2" d="M18.298,58.993l-0.819,1.365l-0.546-0.546l0.819-1.093L18.298,58.993"/>
<path fill="none" stroke="#000000" stroke-width="2" d="M19.391,59.813l-0.546,1.092l-0.547-0.272l0.547-1.093L19.391,59.813"/>
<path fill="none" stroke="#000000" stroke-width="2" d="M20.756,60.632l-0.546,1.092l-0.819-0.272l0.819-1.366L20.756,60.632"/>
<path fill="none" stroke="#000000" stroke-width="2" d="M22.122,61.178l-0.819,1.365l-0.547-0.546l0.819-1.093L22.122,61.178"/>
<path fill="none" stroke="#000000" stroke-width="2" d="M23.488,61.997l-0.819,1.093l-0.546-0.273l0.546-1.093L23.488,61.997"/>
<path fill="none" stroke="#000000" stroke-width="2" d="M24.58,62.817l-0.547,1.093l-0.819-0.273l0.819-1.365L24.58,62.817"/>
<path fill="none" stroke="#000000" stroke-width="2" d="M25.946,63.363l-0.819,1.366l-0.546-0.273L25.4,63.09L25.946,63.363"/>
<path fill="none" stroke="#000000" stroke-width="2" d="M27.311,64.182l-0.819,1.366l-0.546-0.547l0.546-1.092L27.311,64.182"/>
<path fill="none" stroke="#000000" stroke-width="2" d="M28.404,65.001l-0.546,1.093l-0.819-0.273l0.819-1.365L28.404,65.001"/>
<path fill="none" stroke="#000000" stroke-width="2" d="M29.769,65.548l-0.819,1.365l-0.546-0.273l0.819-1.365L29.769,65.548"/>
<path fill="none" stroke="#000000" stroke-width="2" d="M31.135,66.367l-0.819,1.365l-0.547-0.546l0.547-1.093L31.135,66.367"/>
<path fill="none" stroke="#000000" stroke-width="2" d="M32.227,67.187l-0.546,1.092l-0.819-0.272l0.819-1.093L32.227,67.187"/>
<path fill="none" stroke="#000000" stroke-width="2" d="M33.593,68.006l-0.819,1.092l-0.547-0.272l0.819-1.366L33.593,68.006"/>
<path fill="none" stroke="#000000" stroke-width="2" d="M34.958,68.552l-0.819,1.365l-0.546-0.546l0.546-1.093L34.958,68.552"/>
<path fill="none" stroke="#000000" stroke-width="2" d="M36.051,69.371l-0.547,1.093l-0.819-0.273l0.819-1.093L36.051,69.371"/>
<path fill="none" stroke="#000000" stroke-width="2" d="M37.416,70.191l-0.819,1.093l-0.546-0.273l0.819-1.365L37.416,70.191"/>
<path fill="none" stroke="#000000" stroke-width="2" d="M38.781,70.737l-0.819,1.366l-0.546-0.273l0.546-1.365L38.781,70.737"/>
<path fill="none" stroke="#000000" stroke-width="2" d="M39.874,71.556l-0.546,1.366l-0.819-0.547l0.819-1.092L39.874,71.556"/>
<path fill="none" stroke="#000000" stroke-width="2" d="M41.24,72.375l-0.819,1.093l-0.546-0.273l0.819-1.365L41.24,72.375"/>
<path fill="none" stroke="#000000" stroke-width="2" d="M42.606,72.922l-0.819,1.365l-0.547-0.273l0.547-1.365L42.606,72.922"/>
<path fill="none" stroke="#000000" stroke-width="2" d="M43.698,73.741l-0.546,1.365l-0.546-0.546l0.546-1.093L43.698,73.741"/>
<path fill="none" stroke="#000000" stroke-width="2" d="M45.064,74.561l-0.819,1.092l-0.547-0.272l0.819-1.093L45.064,74.561"/>
<path fill="none" stroke="#000000" stroke-width="2" d="M46.429,75.38l-0.819,1.092l-0.546-0.272l0.546-1.366L46.429,75.38"/>
<path fill="none" stroke="#000000" stroke-width="2" d="M47.522,75.926l-0.547,1.365l-0.546-0.546l0.546-1.093L47.522,75.926"/>
<path fill="none" stroke="#000000" stroke-width="2" d="M48.887,76.745l-0.819,1.093l-0.546-0.273l0.819-1.093L48.887,76.745"/>
<path fill="none" stroke="#000000" stroke-width="2" d="M50.252,77.565l-0.819,1.093l-0.546-0.273l0.819-1.365L50.252,77.565"/>
<path fill="none" stroke="#000000" stroke-width="2" d="M51.345,78.111l-0.546,1.366l-0.547-0.273l0.547-1.365L51.345,78.111"/>
<path fill="none" stroke="#000000" stroke-width="2" d="M52.71,78.93l-0.546,1.366l-0.819-0.547l0.819-1.092L52.71,78.93"/>
<path fill="none" stroke="#000000" stroke-width="2" d="M54.076,79.749l-0.819,1.093l-0.547-0.273l0.819-1.365L54.076,79.749"/>
<path fill="none" stroke="#000000" stroke-width="2" d="M55.442,80.296l-0.819,1.365l-0.546-0.273l0.546-1.365L55.442,80.296"/>
<path fill="none" stroke="#000000" stroke-width="2" d="M56.534,81.115l-0.547,1.365l-0.819-0.546l0.819-1.093L56.534,81.115"/>
<path fill="none" stroke="#000000" stroke-width="2" d="M57.9,81.935l-0.819,1.092l-0.546-0.272l0.819-1.093L57.9,81.935"/>
<path fill="none" stroke="#000000" stroke-width="2" d="M59.265,82.754l-0.819,1.092L57.9,83.573l0.546-1.366L59.265,82.754"/>
<path fill="none" stroke="#000000" stroke-width="2" d="M60.358,83.3l-0.546,1.365l-0.819-0.272l0.819-1.366L60.358,83.3"/>
<path fill="none" stroke="#000000" stroke-width="2" d="M61.723,84.119l-0.819,1.365l-0.546-0.546l0.819-1.093L61.723,84.119"/>
<path fill="none" stroke="#000000" stroke-width="2" d="M63.089,84.939l-0.819,1.093l-0.547-0.273l0.547-1.365L63.089,84.939"/>
<path fill="none" stroke="#000000" stroke-width="2" d="M64.181,85.485l-0.546,1.366l-0.819-0.273l0.819-1.365L64.181,85.485"/>
<path fill="none" stroke="#000000" stroke-width="2" d="M65.547,86.304l-0.819,1.366l-0.547-0.547L65,86.031L65.547,86.304"/>
<path fill="none" stroke="#000000" stroke-width="2" d="M66.912,87.123l-0.819,1.093l-0.546-0.273l0.546-1.365L66.912,87.123"/>
<path fill="none" stroke="#000000" stroke-width="2" d="M68.004,87.67l-0.546,1.365l-0.819-0.273l0.819-1.365L68.004,87.67"/>
<path fill="none" stroke="#000000" stroke-width="2" d="M69.37,88.49l-0.819,1.365l-0.547-0.546l0.819-1.093L69.37,88.49"/>
<path fill="none" stroke="#000000" stroke-width="2" d="M70.736,89.309l-0.819,1.092l-0.546-0.272l0.546-1.093L70.736,89.309"/>
<path fill="none" stroke="#000000" stroke-width="2" d="M71.828,90.128l-0.547,1.092l-0.819-0.272l0.819-1.366L71.828,90.128"/>
<path fill="none" stroke="#000000" stroke-width="2" d="M73.194,90.674l-0.819,1.365l-0.546-0.272l0.819-1.366L73.194,90.674"/>
<path fill="none" stroke="#000000" stroke-width="2" d="M73.194,92.313l-0.546,0.546L4.369,53.531l0.273-0.546L73.194,92.313"/>
<path fill="none" stroke="#000000" stroke-width="2" d="M74.286,90.401L73.74,91.22L5.462,51.619l0.273-0.547L74.286,90.401"/>
<path fill="#666666" d="M6.555,92.586h134.098v1.092H6.555V92.586z"/>
<path fill="none" stroke="#E5E5E5" stroke-width="2" d="M9.559,92.586H6.555v1.092"/>
<path fill="none" stroke="#E5E5E5" stroke-width="2" d="M140.653,92.586H9.559"/>
<path fill="none" stroke="#000000" stroke-width="2" d="M6.555,93.678h134.098v-1.092"/>
</svg>
