<?xml version="1.0" encoding="utf-8"?>
<!-- Generator: Adobe Illustrator 14.0.0, SVG Export Plug-In . SVG Version: 6.00 Build 43363)  -->
<!DOCTYPE svg PUBLIC "-//W3C//DTD SVG 1.1//EN" "http://www.w3.org/Graphics/SVG/1.1/DTD/svg11.dtd">
<svg version="1.1" id="图层_1" xmlns="http://www.w3.org/2000/svg" xmlns:xlink="http://www.w3.org/1999/xlink" x="0px" y="0px"
	 width="52.445px" height="106.502px" viewBox="0 0 52.445 106.502" enable-background="new 0 0 52.445 106.502"
	 xml:space="preserve">
<path fill="none" stroke="#000000" stroke-width="2" d="M47.623,6.031V4.222"/>
<path fill="none" stroke="#000000" stroke-width="2" d="M43.202,6.031V4.222"/>
<path fill="none" stroke="#000000" stroke-width="2" d="M38.982,6.031V4.222"/>
<path fill="none" stroke="#000000" stroke-width="2" d="M34.762,6.031V4.222"/>
<path fill="none" stroke="#000000" stroke-width="2" d="M30.542,6.031V4.222"/>
<path fill="none" stroke="#000000" stroke-width="2" d="M26.323,6.031V4.222"/>
<path fill="none" stroke="#000000" stroke-width="2" d="M21.902,6.031V4.222"/>
<path fill="none" stroke="#000000" stroke-width="2" d="M17.683,6.031V4.222"/>
<path fill="none" stroke="#000000" stroke-width="2" d="M13.463,6.031V4.222"/>
<path fill="none" stroke="#000000" stroke-width="2" d="M9.243,6.031V4.222"/>
<path fill="none" stroke="#000000" stroke-width="2" d="M6.832,4.222h42.599"/>
<path fill="none" stroke="#000000" stroke-width="2" d="M6.832,5.227h42.599"/>
<path fill="#4C4C4C" d="M8.439,5.83h40.589v97.655H8.439V5.83z"/>
<path fill="#666666" d="M7.836,5.83h40.188v97.655H7.836V5.83z"/>
<path fill="#7F7F7F" d="M7.836,5.83h37.978v97.655H7.836V5.83z"/>
<path fill="#B2B2B2" d="M7.836,5.83h34.159v97.655H7.836V5.83z"/>
<path fill="#CCCCCC" d="M7.836,5.83h27.931v97.655H7.836V5.83z"/>
<path fill="#E5E5E5" d="M7.836,5.83h19.089v97.655H7.836V5.83z"/>
<path fill="#FFFFFF" d="M7.836,5.83h10.047v97.655H7.836V5.83z"/>
<path fill="#E5E5E5" d="M7.836,5.83h6.229v97.655H7.836V5.83z"/>
<path fill="#CCCCCC" d="M7.234,5.83h3.014v97.655H7.234V5.83z"/>
<path fill="none" stroke="#000000" stroke-width="2" d="M7.234,5.83h41.795v97.655H7.234V5.83"/>
<path fill="#666666" d="M6.832,101.878h42.599v1.607H6.832V101.878z"/>
<path fill="none" stroke="#E5E5E5" stroke-width="2" d="M7.836,101.878H6.832v1.607"/>
<path fill="none" stroke="#E5E5E5" stroke-width="2" d="M49.431,101.878H7.836"/>
<path fill="none" stroke="#000000" stroke-width="2" d="M6.832,103.486h42.599v-1.607"/>
<path fill="#666666" d="M6.832,6.031h42.599v1.407H6.832V6.031z"/>
<path fill="none" stroke="#E5E5E5" stroke-width="2" d="M7.836,6.031H6.832v1.407"/>
<path fill="none" stroke="#E5E5E5" stroke-width="2" d="M49.431,6.031H7.836"/>
<path fill="none" stroke="#000000" stroke-width="2" d="M6.832,7.438h42.599V6.031"/>
<path fill="#CCCCCC" stroke="#000000" stroke-width="2" d="M6.832,103.486H5.626V3.017h1.206V103.486z"/>
<path fill="#CCCCCC" stroke="#000000" stroke-width="2" d="M3.818,103.486H3.014V3.017h0.804V103.486z"/>
<path fill="#CCCCCC" stroke="#000000" stroke-width="2" d="M5.626,102.481H3.818v-0.804h1.809V102.481z"/>
<path fill="#CCCCCC" stroke="#000000" stroke-width="2" d="M5.626,100.672H3.818v-0.804h1.809V100.672z"/>
<path fill="#CCCCCC" stroke="#000000" stroke-width="2" d="M5.626,98.865H3.818V97.86h1.809V98.865z"/>
<path fill="#CCCCCC" stroke="#000000" stroke-width="2" d="M5.626,96.855H3.818v-0.804h1.809V96.855z"/>
<path fill="#CCCCCC" stroke="#000000" stroke-width="2" d="M5.626,95.046H3.818v-0.804h1.809V95.046z"/>
<path fill="#CCCCCC" stroke="#000000" stroke-width="2" d="M5.626,93.238H3.818v-1.004h1.809V93.238z"/>
<path fill="#CCCCCC" stroke="#000000" stroke-width="2" d="M5.626,91.229H3.818v-0.804h1.809V91.229z"/>
<path fill="#CCCCCC" stroke="#000000" stroke-width="2" d="M5.626,89.42H3.818v-0.804h1.809V89.42z"/>
<path fill="#CCCCCC" stroke="#000000" stroke-width="2" d="M5.626,87.612H3.818v-1.005h1.809V87.612z"/>
<path fill="#CCCCCC" stroke="#000000" stroke-width="2" d="M5.626,85.602H3.818v-0.804h1.809V85.602z"/>
<path fill="#CCCCCC" stroke="#000000" stroke-width="2" d="M5.626,83.794H3.818V82.99h1.809V83.794z"/>
<path fill="#CCCCCC" stroke="#000000" stroke-width="2" d="M5.626,81.986H3.818v-1.005h1.809V81.986z"/>
<path fill="#CCCCCC" stroke="#000000" stroke-width="2" d="M5.626,79.976H3.818v-0.804h1.809V79.976z"/>
<path fill="#CCCCCC" stroke="#000000" stroke-width="2" d="M5.626,78.167H3.818v-1.005h1.809V78.167z"/>
<path fill="#CCCCCC" stroke="#000000" stroke-width="2" d="M5.626,76.359H3.818v-1.004h1.809V76.359z"/>
<path fill="#CCCCCC" stroke="#000000" stroke-width="2" d="M5.626,74.35H3.818v-0.804h1.809V74.35z"/>
<path fill="#CCCCCC" stroke="#000000" stroke-width="2" d="M5.626,72.541H3.818v-1.005h1.809V72.541z"/>
<path fill="#CCCCCC" stroke="#000000" stroke-width="2" d="M5.626,70.733H3.818v-1.005h1.809V70.733z"/>
<path fill="#CCCCCC" stroke="#000000" stroke-width="2" d="M5.626,68.724H3.818V67.92h1.809V68.724z"/>
<path fill="#CCCCCC" stroke="#000000" stroke-width="2" d="M5.626,66.915H3.818V65.91h1.809V66.915z"/>
<path fill="#CCCCCC" stroke="#000000" stroke-width="2" d="M5.626,65.107H3.818v-1.005h1.809V65.107z"/>
<path fill="#CCCCCC" stroke="#000000" stroke-width="2" d="M5.626,63.097H3.818v-0.804h1.809V63.097z"/>
<path fill="#CCCCCC" stroke="#000000" stroke-width="2" d="M5.626,61.288H3.818v-1.004h1.809V61.288z"/>
<path fill="#CCCCCC" stroke="#000000" stroke-width="2" d="M5.626,59.481H3.818v-1.005h1.809V59.481z"/>
<path fill="#CCCCCC" stroke="#000000" stroke-width="2" d="M5.626,57.471H3.818v-0.804h1.809V57.471z"/>
<path fill="#CCCCCC" stroke="#000000" stroke-width="2" d="M5.626,55.662H3.818v-1.005h1.809V55.662z"/>
<path fill="#CCCCCC" stroke="#000000" stroke-width="2" d="M5.626,53.854H3.818v-1.005h1.809V53.854z"/>
<path fill="#CCCCCC" stroke="#000000" stroke-width="2" d="M5.626,51.845H3.818v-0.804h1.809V51.845z"/>
<path fill="#CCCCCC" stroke="#000000" stroke-width="2" d="M5.626,50.036H3.818v-1.005h1.809V50.036z"/>
<path fill="#CCCCCC" stroke="#000000" stroke-width="2" d="M5.626,48.027H3.818v-0.804h1.809V48.027z"/>
<path fill="#CCCCCC" stroke="#000000" stroke-width="2" d="M5.626,46.218H3.818v-0.804h1.809V46.218z"/>
<path fill="#CCCCCC" stroke="#000000" stroke-width="2" d="M5.626,44.41H3.818v-1.005h1.809V44.41z"/>
<path fill="#CCCCCC" stroke="#000000" stroke-width="2" d="M5.626,42.401H3.818v-0.804h1.809V42.401z"/>
<path fill="#CCCCCC" stroke="#000000" stroke-width="2" d="M5.626,40.592H3.818v-0.804h1.809V40.592z"/>
<path fill="#CCCCCC" stroke="#000000" stroke-width="2" d="M5.626,38.783H3.818v-1.005h1.809V38.783z"/>
<path fill="#CCCCCC" stroke="#000000" stroke-width="2" d="M5.626,36.775H3.818v-0.804h1.809V36.775z"/>
<path fill="#CCCCCC" stroke="#000000" stroke-width="2" d="M5.626,34.966H3.818v-0.804h1.809V34.966z"/>
<path fill="#CCCCCC" stroke="#000000" stroke-width="2" d="M5.626,33.157H3.818v-1.005h1.809V33.157z"/>
<path fill="#CCCCCC" stroke="#000000" stroke-width="2" d="M5.626,31.148H3.818v-0.804h1.809V31.148z"/>
<path fill="#CCCCCC" stroke="#000000" stroke-width="2" d="M5.626,29.339H3.818v-0.804h1.809V29.339z"/>
<path fill="#CCCCCC" stroke="#000000" stroke-width="2" d="M5.626,27.531H3.818v-1.005h1.809V27.531z"/>
<path fill="#CCCCCC" stroke="#000000" stroke-width="2" d="M5.626,25.522H3.818v-0.804h1.809V25.522z"/>
<path fill="#CCCCCC" stroke="#000000" stroke-width="2" d="M5.626,23.713H3.818v-1.005h1.809V23.713z"/>
<path fill="#CCCCCC" stroke="#000000" stroke-width="2" d="M5.626,21.905H3.818v-1.004h1.809V21.905z"/>
<path fill="#CCCCCC" stroke="#000000" stroke-width="2" d="M5.626,19.896H3.818v-0.804h1.809V19.896z"/>
<path fill="#CCCCCC" stroke="#000000" stroke-width="2" d="M5.626,18.087H3.818v-1.005h1.809V18.087z"/>
<path fill="#CCCCCC" stroke="#000000" stroke-width="2" d="M5.626,16.279H3.818v-1.005h1.809V16.279z"/>
<path fill="#CCCCCC" stroke="#000000" stroke-width="2" d="M5.626,14.269H3.818v-0.804h1.809V14.269z"/>
<path fill="#CCCCCC" stroke="#000000" stroke-width="2" d="M5.626,12.461H3.818v-1.005h1.809V12.461z"/>
<path fill="#CCCCCC" stroke="#000000" stroke-width="2" d="M5.626,10.653H3.818V9.648h1.809V10.653z"/>
<path fill="#CCCCCC" stroke="#000000" stroke-width="2" d="M5.626,5.026H3.818V4.022h1.809V5.026z"/>
<path fill="#CCCCCC" stroke="#000000" stroke-width="2" d="M5.626,6.834H3.818V5.83h1.809V6.834z"/>
<path fill="#CCCCCC" stroke="#000000" stroke-width="2" d="M5.626,8.643H3.818V7.839h1.809V8.643z"/>
</svg>
