<?xml version="1.0" encoding="utf-8"?>
<!-- Generator: Adobe Illustrator 14.0.0, SVG Export Plug-In . SVG Version: 6.00 Build 43363)  -->
<!DOCTYPE svg PUBLIC "-//W3C//DTD SVG 1.1//EN" "http://www.w3.org/Graphics/SVG/1.1/DTD/svg11.dtd">
<svg version="1.1" id="图层_1" xmlns="http://www.w3.org/2000/svg" xmlns:xlink="http://www.w3.org/1999/xlink" x="0px" y="0px"
	 width="144.749px" height="82.008px" viewBox="0 0 144.749 82.008" enable-background="new 0 0 144.749 82.008"
	 xml:space="preserve">
<path fill="#4C4C4C" stroke="#000000" stroke-width="2" d="M140.545,77.951H4.059l0.289-6.955l1.015-6.81l1.738-6.521l2.318-6.23
	l2.898-5.939l3.332-5.651l3.912-5.361l4.491-4.781l4.782-4.492l5.216-3.912l5.65-3.478l5.94-2.897l6.23-2.318l6.521-1.739
	l6.81-1.014l3.478-0.29l3.478-0.145l3.477,0.145l6.955,0.725l6.665,1.304l6.375,2.028l6.23,2.608l5.796,3.188l5.506,3.767
	l5.071,4.202l4.636,4.637l4.058,5.071l3.767,5.506l3.188,5.796l2.608,6.085l1.884,6.521l1.448,6.521l0.725,6.954V77.951z"/>
<path fill="#7F7F7F" d="M132.142,77.951H5.507l0.29-6.811l1.015-6.664l1.594-6.375l2.028-6.086l2.753-5.94l3.188-5.506l3.622-5.216
	l4.057-4.637l4.492-4.347l4.926-3.912l5.217-3.333l5.506-2.898l5.795-2.318l6.086-1.594l6.23-1.014l3.332-0.29h3.188h3.333
	l6.375,0.725l6.085,1.304l5.94,2.028l5.796,2.463l5.361,3.188l5.071,3.623l4.636,4.057l4.347,4.637l3.768,4.926l3.478,5.361
	l2.897,5.65l2.463,6.086l1.884,6.23l1.159,6.52l0.725,6.665V77.951z"/>
<path fill="#999999" d="M123.448,77.951H6.956l0.29-6.665l0.869-6.521l1.449-6.23l2.028-6.085l2.463-5.65l2.897-5.506l3.333-4.926
	l3.767-4.782l4.202-4.202l4.492-3.767l4.781-3.333l5.071-2.753l5.36-2.173l5.506-1.594l5.796-1.014l2.897-0.29h3.043h3.043
	l5.795,0.725l5.651,1.304l5.506,1.883l5.216,2.463l4.926,3.042l4.637,3.623l4.347,3.912l3.912,4.492l3.622,4.926l3.188,5.216
	l2.608,5.506l2.318,5.94l1.594,6.085l1.159,6.375l0.725,6.666V77.951z"/>
<path fill="#B2B2B2" d="M112.147,77.951H8.406l0.289-6.52l0.725-6.376l1.305-6.085l1.738-5.941l2.174-5.65l2.607-5.216l3.043-4.926
	l3.332-4.636l3.623-4.057l4.057-3.767l4.202-3.188l4.491-2.753l4.781-2.029l4.927-1.594l5.216-1.014l2.607-0.29h2.608h2.608
	l5.36,0.724l5.071,1.304l4.781,1.739l4.781,2.463l4.347,3.043l4.202,3.477l3.768,3.912l3.622,4.347l3.188,4.782l2.753,5.071
	l2.463,5.36l1.884,5.796l1.594,6.086l1.015,6.229l0.579,6.376V77.951z"/>
<path fill="none" stroke="#7F7F7F" stroke-width="2" d="M86.646,77.951H57.958v-6.955l0.289-6.81l0.29-6.521l0.579-6.23l0.58-5.939
	l0.725-5.651l0.869-5.361l0.869-4.781l1.015-4.492l1.159-3.912l1.738-5.071l1.884-3.622l2.753-2.753l0.725-0.29l0.725-0.145
	l0.724,0.145l3.623,3.043l1.883,3.622l1.884,5.071l1.159,3.912l1.015,4.492l0.869,4.781l0.869,5.361l0.725,5.651l0.579,5.939
	l0.58,6.23l0.29,6.521l0.289,6.81v3.478V77.951"/>
<path fill="none" stroke="#7F7F7F" stroke-width="2" d="M106.351,77.951H38.253l0.145-6.955l0.579-6.81l0.87-6.521l1.159-6.23
	l1.304-5.939l1.738-5.651l2.028-5.361l2.174-4.781l2.318-4.492l2.607-3.912l2.898-3.478l2.897-2.897l3.188-2.318l3.188-1.739
	l5.071-1.304l1.739-0.145l1.738,0.145l5.071,1.304l3.332,1.739l3.188,2.318l2.898,2.897l2.897,3.478l2.608,3.912l2.463,4.492
	l2.174,4.781l2.028,5.361l1.738,5.651l1.304,5.939l1.159,6.23l0.87,6.521l0.579,6.81l0.145,3.478V77.951"/>
<path fill="none" stroke="#7F7F7F" stroke-width="2" d="M123.448,77.951H21.156l0.29-6.955l0.725-6.81l1.304-6.521l1.738-6.23
	l2.174-5.939l2.463-5.651l2.898-5.361l3.332-4.781l3.622-4.492l3.912-3.912l4.202-3.478l4.491-2.897l4.637-2.318l4.926-1.739
	l5.071-1.014l2.608-0.29l2.608-0.145l2.607,0.145l5.216,0.725l4.927,1.304l4.926,2.028l4.637,2.608l4.347,3.188l4.058,3.767
	l3.767,4.202l3.478,4.637l3.188,5.071l2.753,5.506l2.318,5.796l2.028,6.085l1.449,6.521l1.014,6.521l0.58,6.954V77.951"/>
<path fill="none" stroke="#7F7F7F" stroke-width="2" d="M15.36,66.649h51.292"/>
<path fill="none" stroke="#7F7F7F" stroke-width="2" d="M25.502,60.854h51.002"/>
<path fill="none" stroke="#7F7F7F" stroke-width="2" d="M15.36,49.553h37.093"/>
<path fill="none" stroke="#7F7F7F" stroke-width="2" d="M69.549,55.059h36.802"/>
<path fill="none" stroke="#7F7F7F" stroke-width="2" d="M55.35,38.251h36.802"/>
<path fill="none" stroke="#7F7F7F" stroke-width="2" d="M24.053,32.456h36.803"/>
<path fill="none" stroke="#7F7F7F" stroke-width="2" d="M66.652,21.154h36.802"/>
<path fill="none" stroke="#7F7F7F" stroke-width="2" d="M95.05,72.155h37.092"/>
<path fill="#B2B2B2" stroke="#000000" stroke-width="2" d="M69.549,9.418l-4.347-5.361h14.199l-4.347,5.361H69.549z"/>
<path fill="#999999" d="M70.998,9.418l-4.347-5.361h12.75l-4.347,5.361H70.998z"/>
<path fill="#7F7F7F" d="M72.157,9.418L68.1,4.057h11.302l-4.347,5.361H72.157z"/>
<path fill="#4C4C4C" d="M73.606,9.418l-4.057-5.361h9.853l-4.347,5.361H73.606z"/>
<path fill="none" stroke="#000000" stroke-width="2" d="M69.549,9.418l-4.347-5.361h14.199l-4.347,5.361H69.549"/>
<path fill="none" stroke="#000000" stroke-width="2" d="M140.545,77.951H4.059l0.289-6.955l1.015-6.81l1.738-6.521l2.318-6.23
	l2.898-5.939l3.332-5.651l3.912-5.361l4.491-4.781l4.782-4.492l5.216-3.912l5.65-3.478l5.94-2.897l6.23-2.318l6.521-1.739
	l6.81-1.014l3.478-0.29l3.478-0.145l3.477,0.145l6.955,0.725l6.665,1.304l6.375,2.028l6.23,2.608l5.796,3.188l5.506,3.767
	l5.071,4.202l4.636,4.637l4.058,5.071l3.767,5.506l3.188,5.796l2.608,6.085l1.884,6.521l1.448,6.521l0.725,6.954V77.951"/>
</svg>
