<?xml version="1.0" encoding="utf-8"?>
<!-- Generator: Adobe Illustrator 14.0.0, SVG Export Plug-In . SVG Version: 6.00 Build 43363)  -->
<!DOCTYPE svg PUBLIC "-//W3C//DTD SVG 1.1//EN" "http://www.w3.org/Graphics/SVG/1.1/DTD/svg11.dtd">
<svg version="1.1" id="图层_1" xmlns="http://www.w3.org/2000/svg" xmlns:xlink="http://www.w3.org/1999/xlink" x="0px" y="0px"
	 width="144.749px" height="76.211px" viewBox="0 0 144.749 76.211" enable-background="new 0 0 144.749 76.211"
	 xml:space="preserve">
<path fill="#666666" stroke="#000000" stroke-width="2" d="M4.059,9.418h5.796v1.594H4.059V9.418z"/>
<path fill="#666666" d="M9.855,9.418h130.69v1.594H9.855V9.418z"/>
<path fill="#999999" d="M11.014,9.418h125.185v1.594H11.014V9.418z"/>
<path fill="#999999" d="M9.855,11.012h130.69v61.143H9.855V11.012z"/>
<path fill="#B2B2B2" d="M13.911,9.418h115.332v1.594H13.911V9.418z"/>
<path fill="#B2B2B2" d="M11.014,11.012h125.185v61.143H11.014V11.012z"/>
<path fill="#CCCCCC" d="M18.258,9.418h100.844v1.594H18.258V9.418z"/>
<path fill="#CCCCCC" d="M13.911,11.012h115.332v61.143H13.911V11.012z"/>
<path fill="none" stroke="#000000" stroke-width="2" d="M9.855,9.418h130.69v62.737H9.855V9.418"/>
<path fill="#E5E5E5" d="M18.258,11.012h100.844v61.143H18.258V11.012z"/>
<path fill="none" stroke="#999999" stroke-width="2" d="M9.855,15.358h130.69"/>
<path fill="none" stroke="#999999" stroke-width="2" d="M9.855,20.719h130.69"/>
<path fill="none" stroke="#999999" stroke-width="2" d="M9.855,26.66h130.69"/>
<path fill="none" stroke="#999999" stroke-width="2" d="M9.855,32.455h130.69"/>
<path fill="none" stroke="#999999" stroke-width="2" d="M9.855,37.961h130.69"/>
<path fill="none" stroke="#999999" stroke-width="2" d="M9.855,43.756h130.69"/>
<path fill="none" stroke="#999999" stroke-width="2" d="M9.855,49.552h130.69"/>
<path fill="none" stroke="#999999" stroke-width="2" d="M9.855,55.058h130.69"/>
<path fill="none" stroke="#999999" stroke-width="2" d="M9.855,60.854h130.69"/>
<path fill="none" stroke="#999999" stroke-width="2" d="M9.855,66.36h130.69"/>
<path fill="none" stroke="#000000" stroke-width="2" d="M22.605,15.358h2.897"/>
<path fill="none" stroke="#000000" stroke-width="2" d="M22.605,20.719h2.897"/>
<path fill="none" stroke="#000000" stroke-width="2" d="M22.605,26.66h2.897"/>
<path fill="none" stroke="#000000" stroke-width="2" d="M22.605,32.455h2.897"/>
<path fill="none" stroke="#000000" stroke-width="2" d="M22.605,37.961h2.897"/>
<path fill="none" stroke="#000000" stroke-width="2" d="M22.605,43.756h2.897"/>
<path fill="none" stroke="#000000" stroke-width="2" d="M22.605,49.552h2.897"/>
<path fill="none" stroke="#000000" stroke-width="2" d="M22.605,55.058h2.897"/>
<path fill="none" stroke="#000000" stroke-width="2" d="M22.605,60.854h2.897"/>
<path fill="none" stroke="#000000" stroke-width="2" d="M22.605,66.36h2.897"/>
<path fill="none" stroke="#000000" stroke-width="2" d="M56.509,15.358h2.897"/>
<path fill="none" stroke="#000000" stroke-width="2" d="M56.509,20.719h2.897"/>
<path fill="none" stroke="#000000" stroke-width="2" d="M56.509,26.66h2.897"/>
<path fill="none" stroke="#000000" stroke-width="2" d="M56.509,32.455h2.897"/>
<path fill="none" stroke="#000000" stroke-width="2" d="M56.509,37.961h2.897"/>
<path fill="none" stroke="#000000" stroke-width="2" d="M56.509,43.756h2.897"/>
<path fill="none" stroke="#000000" stroke-width="2" d="M56.509,49.552h2.897"/>
<path fill="none" stroke="#000000" stroke-width="2" d="M56.509,55.058h2.897"/>
<path fill="none" stroke="#000000" stroke-width="2" d="M56.509,60.854h2.897"/>
<path fill="none" stroke="#000000" stroke-width="2" d="M56.509,66.36h2.897"/>
<path fill="none" stroke="#000000" stroke-width="2" d="M90.703,15.358h2.897"/>
<path fill="none" stroke="#000000" stroke-width="2" d="M90.703,20.719h2.897"/>
<path fill="none" stroke="#000000" stroke-width="2" d="M90.703,26.66h2.897"/>
<path fill="none" stroke="#000000" stroke-width="2" d="M90.703,32.455h2.897"/>
<path fill="none" stroke="#000000" stroke-width="2" d="M90.703,37.961h2.897"/>
<path fill="none" stroke="#000000" stroke-width="2" d="M90.703,43.756h2.897"/>
<path fill="none" stroke="#000000" stroke-width="2" d="M90.703,49.552h2.897"/>
<path fill="none" stroke="#000000" stroke-width="2" d="M90.703,55.058h2.897"/>
<path fill="none" stroke="#000000" stroke-width="2" d="M90.703,60.854h2.897"/>
<path fill="none" stroke="#000000" stroke-width="2" d="M90.703,66.36h2.897"/>
<path fill="none" stroke="#000000" stroke-width="2" d="M124.897,15.358h2.898"/>
<path fill="none" stroke="#000000" stroke-width="2" d="M124.897,20.719h2.898"/>
<path fill="none" stroke="#000000" stroke-width="2" d="M124.897,26.66h2.898"/>
<path fill="none" stroke="#000000" stroke-width="2" d="M124.897,32.455h2.898"/>
<path fill="none" stroke="#000000" stroke-width="2" d="M124.897,37.961h2.898"/>
<path fill="none" stroke="#000000" stroke-width="2" d="M124.897,43.756h2.898"/>
<path fill="none" stroke="#000000" stroke-width="2" d="M124.897,49.552h2.898"/>
<path fill="none" stroke="#000000" stroke-width="2" d="M124.897,55.058h2.898"/>
<path fill="none" stroke="#000000" stroke-width="2" d="M124.897,60.854h2.898"/>
<path fill="none" stroke="#000000" stroke-width="2" d="M124.897,66.36h2.898"/>
<path fill="none" stroke="#000000" stroke-width="2" d="M4.059,9.418V4.057"/>
<path fill="none" stroke="#000000" stroke-width="2" d="M15.361,9.418V4.057"/>
<path fill="none" stroke="#000000" stroke-width="2" d="M26.661,9.418V4.057"/>
<path fill="none" stroke="#000000" stroke-width="2" d="M38.253,9.418V4.057"/>
<path fill="none" stroke="#000000" stroke-width="2" d="M49.554,9.418V4.057"/>
<path fill="none" stroke="#000000" stroke-width="2" d="M60.856,9.418V4.057"/>
<path fill="none" stroke="#000000" stroke-width="2" d="M72.157,9.418V4.057"/>
<path fill="none" stroke="#000000" stroke-width="2" d="M83.748,9.418V4.057"/>
<path fill="none" stroke="#000000" stroke-width="2" d="M95.05,9.418V4.057"/>
<path fill="none" stroke="#000000" stroke-width="2" d="M106.351,9.418V4.057"/>
<path fill="none" stroke="#000000" stroke-width="2" d="M117.653,9.418V4.057"/>
<path fill="none" stroke="#000000" stroke-width="2" d="M129.243,9.418V4.057"/>
<path fill="none" stroke="#000000" stroke-width="2" d="M140.545,9.418V4.057"/>
<path fill="none" stroke="#000000" stroke-width="2" d="M4.059,4.057h136.486"/>
<path fill="none" stroke="#000000" stroke-width="2" d="M4.059,6.52h136.486"/>
<path fill="none" stroke="#000000" stroke-width="2" d="M9.855,37.961L9.42,36.802l-0.58-1.304l-0.725-1.449l-0.725-1.594
	l-0.579-1.159l-0.435-1.449l-0.435-1.594l-0.435-1.739l-0.435-1.883l-0.29-2.173l-0.29-2.463l-0.145-1.304l-0.146-1.449v-1.449
	l-0.145-1.594v-1.594v-1.594h0.29H9.42h0.435v0.725v25.355V37.961"/>
<path fill="none" stroke="#000000" stroke-width="2" d="M4.059,11.736h5.796"/>
<path fill="none" stroke="#000000" stroke-width="2" d="M4.059,12.46h5.796"/>
<path fill="none" stroke="#000000" stroke-width="2" d="M4.059,13.185h5.796"/>
<path fill="none" stroke="#000000" stroke-width="2" d="M4.059,13.909h5.796"/>
<path fill="none" stroke="#000000" stroke-width="2" d="M4.059,14.634h5.796"/>
<path fill="none" stroke="#000000" stroke-width="2" d="M4.059,15.358h5.796"/>
<path fill="none" stroke="#000000" stroke-width="2" d="M4.059,16.083h5.796"/>
<path fill="none" stroke="#000000" stroke-width="2" d="M4.059,16.807h5.796"/>
<path fill="none" stroke="#000000" stroke-width="2" d="M4.059,17.532h5.796"/>
<path fill="none" stroke="#000000" stroke-width="2" d="M4.349,18.256h5.506"/>
<path fill="none" stroke="#000000" stroke-width="2" d="M4.349,18.98h5.506"/>
<path fill="none" stroke="#000000" stroke-width="2" d="M4.349,19.705h5.506"/>
<path fill="none" stroke="#000000" stroke-width="2" d="M4.349,20.43h5.506"/>
<path fill="none" stroke="#000000" stroke-width="2" d="M4.349,21.154h5.506"/>
<path fill="none" stroke="#000000" stroke-width="2" d="M4.349,21.878h5.506"/>
<path fill="none" stroke="#000000" stroke-width="2" d="M4.783,22.603h5.071"/>
<path fill="none" stroke="#000000" stroke-width="2" d="M4.783,23.327h5.071"/>
<path fill="none" stroke="#000000" stroke-width="2" d="M4.783,24.052h5.071"/>
<path fill="none" stroke="#000000" stroke-width="2" d="M5.073,24.776h4.781"/>
<path fill="none" stroke="#000000" stroke-width="2" d="M5.073,25.5h4.781"/>
<path fill="none" stroke="#000000" stroke-width="2" d="M5.508,26.225h4.347"/>
<path fill="none" stroke="#000000" stroke-width="2" d="M5.508,26.949h4.347"/>
<path fill="none" stroke="#000000" stroke-width="2" d="M5.797,27.674h4.058"/>
<path fill="none" stroke="#000000" stroke-width="2" d="M5.797,28.398h4.058"/>
<path fill="none" stroke="#000000" stroke-width="2" d="M6.233,29.123h3.622"/>
<path fill="none" stroke="#000000" stroke-width="2" d="M6.233,29.847h3.622"/>
<path fill="none" stroke="#000000" stroke-width="2" d="M6.522,30.572h3.333"/>
<path fill="none" stroke="#000000" stroke-width="2" d="M6.956,31.296h2.898"/>
<path fill="none" stroke="#000000" stroke-width="2" d="M6.956,32.021h2.898"/>
<path fill="none" stroke="#000000" stroke-width="2" d="M7.246,32.745h2.608"/>
<path fill="none" stroke="#000000" stroke-width="2" d="M7.681,33.47h2.174"/>
<path fill="none" stroke="#000000" stroke-width="2" d="M7.971,34.194h1.884"/>
<path fill="none" stroke="#000000" stroke-width="2" d="M8.406,34.918h1.449"/>
<path fill="none" stroke="#000000" stroke-width="2" d="M8.696,35.643h1.159"/>
<path fill="none" stroke="#000000" stroke-width="2" d="M9.13,36.367h0.725"/>
<path fill="none" stroke="#000000" stroke-width="2" d="M9.42,37.092h0.435"/>
</svg>
