<?xml version="1.0" encoding="utf-8"?>
<!-- Generator: Adobe Illustrator 14.0.0, SVG Export Plug-In . SVG Version: 6.00 Build 43363)  -->
<!DOCTYPE svg PUBLIC "-//W3C//DTD SVG 1.1//EN" "http://www.w3.org/Graphics/SVG/1.1/DTD/svg11.dtd">
<svg version="1.1" id="图层_1" xmlns="http://www.w3.org/2000/svg" xmlns:xlink="http://www.w3.org/1999/xlink" x="0px" y="0px"
	 width="144.749px" height="88.488px" viewBox="0 0 144.749 88.488" enable-background="new 0 0 144.749 88.488"
	 xml:space="preserve">
<path fill="#4C4C4C" d="M9.285,6.282h130.001v78.109H9.285V6.282z"/>
<path fill="#666666" d="M7.374,6.282h128.635v78.109H7.374V6.282z"/>
<path fill="#7F7F7F" d="M7.374,6.282h121.534v78.109H7.374V6.282z"/>
<path fill="#B2B2B2" d="M7.374,6.282h109.79v78.109H7.374V6.282z"/>
<path fill="#CCCCCC" d="M7.374,6.282h89.307v78.109H7.374V6.282z"/>
<path fill="#E5E5E5" d="M7.374,6.282h60.903v78.109H7.374V6.282z"/>
<path fill="#FFFFFF" d="M7.374,6.282h32.5v78.109h-32.5V6.282z"/>
<path fill="#E5E5E5" d="M7.374,6.282h20.21v78.109H7.374V6.282z"/>
<path fill="#CCCCCC" d="M5.462,6.282h10.105v78.109H5.462V6.282z"/>
<path fill="none" stroke="#000000" stroke-width="2" d="M5.462,6.282h133.824v78.109H5.462V6.282"/>
<path fill="#666666" d="M4.097,83.299h136.556v1.093H4.097V83.299z"/>
<path fill="none" stroke="#E5E5E5" stroke-width="2" d="M7.374,83.299H4.097v1.093"/>
<path fill="none" stroke="#E5E5E5" stroke-width="2" d="M140.653,83.299H7.374"/>
<path fill="none" stroke="#000000" stroke-width="2" d="M4.097,84.391h136.556v-1.093"/>
<path fill="#666666" d="M4.097,6.282h136.556v1.365H4.097V6.282z"/>
<path fill="none" stroke="#E5E5E5" stroke-width="2" d="M7.374,6.282H4.097v1.365"/>
<path fill="none" stroke="#E5E5E5" stroke-width="2" d="M140.653,6.282H7.374"/>
<path fill="none" stroke="#000000" stroke-width="2" d="M4.097,7.647h136.556V6.282"/>
<path fill="none" stroke="#000000" stroke-width="2" d="M5.462,4.643h135.19"/>
<path fill="none" stroke="#000000" stroke-width="2" d="M7.101,6.009V4.643"/>
<path fill="none" stroke="#000000" stroke-width="2" d="M13.929,6.009V4.643"/>
<path fill="none" stroke="#000000" stroke-width="2" d="M20.756,6.009V4.643"/>
<path fill="none" stroke="#000000" stroke-width="2" d="M27.584,6.009V4.643"/>
<path fill="none" stroke="#000000" stroke-width="2" d="M34.412,6.009V4.643"/>
<path fill="none" stroke="#000000" stroke-width="2" d="M41.24,6.009V4.643"/>
<path fill="none" stroke="#000000" stroke-width="2" d="M48.068,6.009V4.643"/>
<path fill="none" stroke="#000000" stroke-width="2" d="M54.896,6.009V4.643"/>
<path fill="none" stroke="#000000" stroke-width="2" d="M61.723,6.009V4.643"/>
<path fill="none" stroke="#000000" stroke-width="2" d="M68.551,6.009V4.643"/>
<path fill="none" stroke="#000000" stroke-width="2" d="M75.378,6.009V4.643"/>
<path fill="none" stroke="#000000" stroke-width="2" d="M82.206,6.009V4.643"/>
<path fill="none" stroke="#000000" stroke-width="2" d="M89.034,6.009V4.643"/>
<path fill="none" stroke="#000000" stroke-width="2" d="M95.862,6.009V4.643"/>
<path fill="none" stroke="#000000" stroke-width="2" d="M102.69,6.009V4.643"/>
<path fill="none" stroke="#000000" stroke-width="2" d="M109.518,6.009V4.643"/>
<path fill="none" stroke="#000000" stroke-width="2" d="M116.345,6.009V4.643"/>
<path fill="none" stroke="#000000" stroke-width="2" d="M123.173,6.009V4.643"/>
<path fill="none" stroke="#000000" stroke-width="2" d="M130.001,6.009V4.643"/>
<path fill="none" stroke="#000000" stroke-width="2" d="M136.828,6.009V4.643"/>
<path fill="#666666" stroke="#000000" stroke-width="2" d="M11.198,8.467H9.832V7.921h1.365V8.467z"/>
<path fill="#666666" stroke="#000000" stroke-width="2" d="M11.198,7.101H9.832V6.282h1.365V7.101z"/>
<path fill="#666666" stroke="#000000" stroke-width="2" d="M11.198,5.463H9.832V4.916h1.365V5.463z"/>
<path fill="#666666" stroke="#000000" stroke-width="2" d="M11.198,10.105H9.832V9.286h1.365V10.105z"/>
<path fill="#666666" stroke="#000000" stroke-width="2" d="M11.198,11.47H9.832v-0.546h1.365V11.47z"/>
<path fill="#666666" stroke="#000000" stroke-width="2" d="M11.198,13.109H9.832V12.29h1.365V13.109z"/>
<path fill="#666666" stroke="#000000" stroke-width="2" d="M11.198,14.474H9.832v-0.546h1.365V14.474z"/>
<path fill="#666666" stroke="#000000" stroke-width="2" d="M11.198,16.113H9.832v-0.819h1.365V16.113z"/>
<path fill="#666666" stroke="#000000" stroke-width="2" d="M11.198,17.479H9.832v-0.547h1.365V17.479z"/>
<path fill="#666666" stroke="#000000" stroke-width="2" d="M11.198,19.118H9.832v-0.819h1.365V19.118z"/>
<path fill="#666666" stroke="#000000" stroke-width="2" d="M11.198,20.483H9.832v-0.546h1.365V20.483z"/>
<path fill="#666666" stroke="#000000" stroke-width="2" d="M11.198,22.122H9.832v-0.819h1.365V22.122z"/>
<path fill="#666666" stroke="#000000" stroke-width="2" d="M11.198,23.487H9.832v-0.546h1.365V23.487z"/>
<path fill="#666666" stroke="#000000" stroke-width="2" d="M11.198,25.126H9.832v-0.819h1.365V25.126z"/>
<path fill="#666666" stroke="#000000" stroke-width="2" d="M11.198,26.492H9.832v-0.547h1.365V26.492z"/>
<path fill="#666666" stroke="#000000" stroke-width="2" d="M11.198,28.131H9.832v-0.819h1.365V28.131z"/>
<path fill="#666666" stroke="#000000" stroke-width="2" d="M11.198,29.496H9.832V28.95h1.365V29.496z"/>
<path fill="#666666" stroke="#000000" stroke-width="2" d="M11.198,31.135H9.832v-0.819h1.365V31.135z"/>
<path fill="#666666" stroke="#000000" stroke-width="2" d="M11.198,32.5H9.832v-0.546h1.365V32.5z"/>
<path fill="#666666" stroke="#000000" stroke-width="2" d="M11.198,34.138H9.832v-0.819h1.365V34.138z"/>
<path fill="#666666" stroke="#000000" stroke-width="2" d="M11.198,35.505H9.832v-0.547h1.365V35.505z"/>
<path fill="#666666" stroke="#000000" stroke-width="2" d="M11.198,37.143H9.832v-0.819h1.365V37.143z"/>
<path fill="#666666" stroke="#000000" stroke-width="2" d="M11.198,38.509H9.832v-0.546h1.365V38.509z"/>
<path fill="#666666" stroke="#000000" stroke-width="2" d="M11.198,40.147H9.832v-0.819h1.365V40.147z"/>
<path fill="#666666" stroke="#000000" stroke-width="2" d="M11.198,41.512H9.832v-0.546h1.365V41.512z"/>
<path fill="#666666" stroke="#000000" stroke-width="2" d="M11.198,43.151H9.832v-0.819h1.365V43.151z"/>
<path fill="#666666" stroke="#000000" stroke-width="2" d="M11.198,44.517H9.832V43.97h1.365V44.517z"/>
<path fill="#666666" stroke="#000000" stroke-width="2" d="M11.198,46.156H9.832v-0.819h1.365V46.156z"/>
<path fill="#666666" stroke="#000000" stroke-width="2" d="M11.198,47.521H9.832v-0.546h1.365V47.521z"/>
<path fill="#666666" stroke="#000000" stroke-width="2" d="M11.198,49.16H9.832v-0.819h1.365V49.16z"/>
<path fill="#666666" stroke="#000000" stroke-width="2" d="M11.198,50.525H9.832v-0.546h1.365V50.525z"/>
<path fill="#666666" stroke="#000000" stroke-width="2" d="M11.198,52.164H9.832v-0.819h1.365V52.164z"/>
<path fill="#666666" stroke="#000000" stroke-width="2" d="M11.198,53.53H9.832v-0.547h1.365V53.53z"/>
<path fill="#666666" stroke="#000000" stroke-width="2" d="M11.198,55.169H9.832v-0.819h1.365V55.169z"/>
<path fill="#666666" stroke="#000000" stroke-width="2" d="M11.198,56.534H9.832v-0.546h1.365V56.534z"/>
<path fill="#666666" stroke="#000000" stroke-width="2" d="M11.198,58.173H9.832v-0.819h1.365V58.173z"/>
<path fill="#666666" stroke="#000000" stroke-width="2" d="M11.198,59.538H9.832v-0.546h1.365V59.538z"/>
<path fill="#666666" stroke="#000000" stroke-width="2" d="M11.198,61.177H9.832v-0.819h1.365V61.177z"/>
<path fill="#666666" stroke="#000000" stroke-width="2" d="M11.198,62.543H9.832v-0.547h1.365V62.543z"/>
<path fill="#666666" stroke="#000000" stroke-width="2" d="M11.198,64.181H9.832v-0.819h1.365V64.181z"/>
<path fill="#666666" stroke="#000000" stroke-width="2" d="M11.198,65.547H9.832v-0.546h1.365V65.547z"/>
<path fill="#666666" stroke="#000000" stroke-width="2" d="M11.198,67.185H9.832v-0.819h1.365V67.185z"/>
<path fill="#666666" stroke="#000000" stroke-width="2" d="M11.198,68.551H9.832v-0.546h1.365V68.551z"/>
<path fill="#666666" stroke="#000000" stroke-width="2" d="M11.198,70.189H9.832V69.37h1.365V70.189z"/>
<path fill="#666666" stroke="#000000" stroke-width="2" d="M11.198,71.555H9.832v-0.547h1.365V71.555z"/>
<path fill="#666666" stroke="#000000" stroke-width="2" d="M11.198,73.194H9.832v-0.819h1.365V73.194z"/>
<path fill="#666666" stroke="#000000" stroke-width="2" d="M11.198,74.559H9.832v-0.546h1.365V74.559z"/>
<path fill="#666666" stroke="#000000" stroke-width="2" d="M11.198,76.198H9.832v-0.819h1.365V76.198z"/>
<path fill="#666666" stroke="#000000" stroke-width="2" d="M11.198,77.563H9.832v-0.546h1.365V77.563z"/>
<path fill="#666666" stroke="#000000" stroke-width="2" d="M11.198,79.202H9.832v-0.819h1.365V79.202z"/>
<path fill="#666666" stroke="#000000" stroke-width="2" d="M11.198,80.568H9.832v-0.547h1.365V80.568z"/>
<path fill="#666666" stroke="#000000" stroke-width="2" d="M11.198,82.207H9.832v-0.819h1.365V82.207z"/>
<path fill="#666666" stroke="#000000" stroke-width="2" d="M11.198,83.572H9.832v-0.546h1.365V83.572z"/>
<path fill="#666666" stroke="#000000" stroke-width="2" d="M9.832,84.391H9.013V4.096h0.819V84.391z"/>
<path fill="#666666" stroke="#000000" stroke-width="2" d="M12.017,84.391h-0.819V4.096h0.819V84.391z"/>
</svg>
