<?xml version="1.0" encoding="utf-8"?>
<!-- Generator: Adobe Illustrator 14.0.0, SVG Export Plug-In . SVG Version: 6.00 Build 43363)  -->
<!DOCTYPE svg PUBLIC "-//W3C//DTD SVG 1.1//EN" "http://www.w3.org/Graphics/SVG/1.1/DTD/svg11.dtd">
<svg version="1.1" id="图层_1" xmlns="http://www.w3.org/2000/svg" xmlns:xlink="http://www.w3.org/1999/xlink" x="0px" y="0px"
	 width="53.41px" height="106.502px" viewBox="0 0 53.41 106.502" enable-background="new 0 0 53.41 106.502" xml:space="preserve">
<path fill="#999999" stroke="#000000" stroke-width="2" d="M18.656,3.733l0.853,0.32l0.32,0.532l-0.32,0.854l-0.853,0.319
	l-0.959-0.319l-0.32-0.854l0.746-0.746L18.656,3.733z"/>
<path fill="none" stroke="#000000" stroke-width="2" d="M18.656,3.733l0.853,0.32l0.32,0.532l-0.32,0.854l-0.853,0.319l-0.959-0.319
	l-0.32-0.854l0.746-0.746L18.656,3.733"/>
<path fill="#999999" stroke="#000000" stroke-width="2" d="M20.682,2.987l0.853,0.319l0.32,0.854l-0.32,0.853l-0.853,0.32
	l-0.959-0.32l-0.32-0.853l0.32-0.854L20.682,2.987z"/>
<path fill="#B2B2B2" d="M20.682,2.987l0.64,0.64l0.106,0.533l-0.533,0.746l-0.213,0.106l-0.959-0.427l-0.32-0.426l0.533-0.854
	L20.682,2.987z"/>
<path fill="#B2B2B2" d="M18.656,3.733l0.746,0.533v0.319l-0.32,0.96l-0.426,0.213l-0.959-0.426l-0.32-0.747l0.746-0.746
	L18.656,3.733z"/>
<path fill="#CCCCCC" d="M20.682,3.306h0.213l0.107,0.107V3.52l-0.107,0.959l-0.106,0.106h-0.106l-0.746-0.532l-0.107-0.32V3.626
	l0.107-0.106L20.682,3.306z"/>
<path fill="#CCCCCC" d="M18.229,3.733l0.747,0.32l0.106,0.319l-0.106,0.746l-0.747,0.214h-0.106h-0.106l-0.213-0.427l0.106-0.96
	l0.107-0.106l0.106-0.106H18.229z"/>
<path fill="none" stroke="#000000" stroke-width="2" d="M20.682,2.987l0.853,0.319l0.32,0.854l-0.32,0.853l-0.853,0.32l-0.959-0.32
	l-0.32-0.853l0.32-0.854L20.682,2.987"/>
<path fill="#B2B2B2" stroke="#000000" stroke-width="2" d="M17.377,4.585h2.452v5.224h-2.452V4.585z"/>
<path fill="none" stroke="#000000" stroke-width="2" d="M17.377,4.585h2.452v5.224h-2.452V4.585"/>
<path fill="#B2B2B2" stroke="#000000" stroke-width="2" d="M19.402,4.159h2.452v4.797h-2.452V4.159z"/>
<path fill="#B2B2B2" stroke="#000000" stroke-width="2" d="M33.901,9.383V7.358H21.854v-1.6h12.047V5.012h1.173v4.371H33.901z"/>
<path fill="#999999" d="M21.428,4.159h0.426v4.797h-0.426V4.159z"/>
<path fill="#999999" d="M19.402,4.585h0.426v5.224h-0.426V4.585z"/>
<path fill="#CCCCCC" d="M19.402,4.159h0.426v4.797h-0.426V4.159z"/>
<path fill="#CCCCCC" d="M17.377,4.585h0.426v5.224h-0.426V4.585z"/>
<path fill="none" stroke="#000000" stroke-width="2" d="M19.402,4.159h2.452v4.797h-2.452V4.159"/>
<path fill="#CCCCCC" stroke="#000000" stroke-width="2" d="M40.724,8.531l7.248,0.426v1.6l-7.248-0.32V8.531z"/>
<path fill="#CCCCCC" stroke="#000000" stroke-width="2" d="M23.027,7.358h7.249v2.025h-7.249V7.358z"/>
<path fill="#E5E5E5" stroke="#000000" stroke-width="2" d="M50.425,101.81V10.556h-0.107l-2.879-0.747L44.134,9.49l-3.41-0.106
	l-3.838-0.214l-3.199-0.106l-3.411-0.106h-1.173h-1.279h-1.172h-3.625l-3.518,0.106l-3.198,0.106l-2.985,0.107L9.808,9.49
	L6.929,9.702l-2.878,0.427l-1.066,0.427l0,0v91.254v0.107l2.878,0.64l3.305,0.319l3.412,0.213l3.944,0.214l3.198,0.106h3.411h1.173
	h1.173h1.172h3.625h3.411l3.199-0.106l2.984-0.106l3.518-0.214l2.879-0.319l2.984-0.427l1.066-0.319L50.425,101.81z"/>
<path fill="#999999" d="M50.425,10.556h-0.107l-2.984-0.747L43.921,9.49l-0.746-0.106v93.706l2.984-0.319l3.092-0.533l1.066-0.319
	l0.107-0.107V10.556z"/>
<path fill="#CCCCCC" d="M43.602,103.089h-3.198l-2.984,0.214l-3.199,0.106h-0.426h-0.32h-0.426h-0.32V8.956h0.32l3.305,0.106
	l3.092,0.214l3.197,0.106h0.641h0.319V103.089z"/>
<path fill="#CCCCCC" d="M9.808,103.089V9.383L6.823,9.702l-2.878,0.533l-0.959,0.64v0.106v90.828v0.107l2.665,0.64l3.305,0.426
	L9.808,103.089z"/>
<path fill="none" stroke="#000000" stroke-width="2" d="M50.425,78.144h-0.107l-2.879,0.746l-3.305,0.32l-3.41,0.213l-3.838,0.106
	l-3.199,0.106l-3.411,0.106h-1.173h-1.279h-1.172h-3.625l-3.518-0.106l-3.198-0.106l-2.985-0.106L9.808,79.21l-2.878-0.214
	l-2.878-0.426l-1.066-0.427l0,0"/>
<path fill="none" stroke="#000000" stroke-width="2" d="M2.985,55.97h47.44"/>
<path fill="none" stroke="#000000" stroke-width="2" d="M2.985,34.328v-0.106l2.878-0.64l3.305-0.319l3.412-0.214l3.944-0.213
	l3.198-0.106h3.411h1.173h1.173h1.172h3.625h3.411l3.199,0.106l2.984,0.106l3.518,0.214l2.879,0.319l2.984,0.427l1.066,0.319
	l0.107,0.106"/>
<path fill="none" stroke="#000000" stroke-width="2" d="M27.824,8.21v95.199"/>
<path fill="none" stroke="#000000" stroke-width="2" d="M25.479,8.21v95.199"/>
<path fill="none" stroke="#000000" stroke-width="2" d="M25.479,9.383h2.345"/>
<path fill="none" stroke="#000000" stroke-width="2" d="M25.479,10.556h2.345"/>
<path fill="none" stroke="#000000" stroke-width="2" d="M25.479,11.835h2.345"/>
<path fill="none" stroke="#000000" stroke-width="2" d="M27.824,13.007h-2.345"/>
<path fill="none" stroke="#000000" stroke-width="2" d="M25.479,14.18h2.345"/>
<path fill="none" stroke="#000000" stroke-width="2" d="M25.479,15.459h2.345"/>
<path fill="none" stroke="#000000" stroke-width="2" d="M25.479,16.632h2.345"/>
<path fill="none" stroke="#000000" stroke-width="2" d="M25.479,17.805h2.345"/>
<path fill="none" stroke="#000000" stroke-width="2" d="M27.824,19.084h-2.345"/>
<path fill="none" stroke="#000000" stroke-width="2" d="M25.479,20.257h2.345"/>
<path fill="none" stroke="#000000" stroke-width="2" d="M25.479,21.429h2.345"/>
<path fill="none" stroke="#000000" stroke-width="2" d="M25.479,22.602h2.345"/>
<path fill="none" stroke="#000000" stroke-width="2" d="M25.479,23.455h2.345"/>
<path fill="none" stroke="#000000" stroke-width="2" d="M27.824,24.627h-2.345"/>
<path fill="none" stroke="#000000" stroke-width="2" d="M25.479,25.906h2.345"/>
<path fill="none" stroke="#000000" stroke-width="2" d="M25.479,27.079h2.345"/>
<path fill="none" stroke="#000000" stroke-width="2" d="M25.479,28.252h2.345"/>
<path fill="none" stroke="#000000" stroke-width="2" d="M25.479,29.531h2.345"/>
<path fill="none" stroke="#000000" stroke-width="2" d="M27.824,30.704h-2.345"/>
<path fill="none" stroke="#000000" stroke-width="2" d="M25.479,31.877h2.345"/>
<path fill="none" stroke="#000000" stroke-width="2" d="M25.479,33.049h2.345"/>
<path fill="none" stroke="#000000" stroke-width="2" d="M25.479,34.328h2.345"/>
<path fill="none" stroke="#000000" stroke-width="2" d="M25.479,35.501h2.345"/>
<path fill="none" stroke="#000000" stroke-width="2" d="M27.824,36.674h-2.345"/>
<path fill="none" stroke="#000000" stroke-width="2" d="M25.479,37.953h2.345"/>
<path fill="none" stroke="#000000" stroke-width="2" d="M25.479,39.126h2.345"/>
<path fill="none" stroke="#000000" stroke-width="2" d="M25.479,40.299h2.345"/>
<path fill="none" stroke="#000000" stroke-width="2" d="M25.479,41.578h2.345"/>
<path fill="none" stroke="#000000" stroke-width="2" d="M27.824,42.324h-2.345"/>
<path fill="none" stroke="#000000" stroke-width="2" d="M25.479,43.604h2.345"/>
<path fill="none" stroke="#000000" stroke-width="2" d="M25.479,44.776h2.345"/>
<path fill="none" stroke="#000000" stroke-width="2" d="M25.479,45.948h2.345"/>
<path fill="none" stroke="#000000" stroke-width="2" d="M25.479,47.121h2.345"/>
<path fill="none" stroke="#000000" stroke-width="2" d="M27.824,48.401h-2.345"/>
<path fill="none" stroke="#000000" stroke-width="2" d="M25.479,49.573h2.345"/>
<path fill="none" stroke="#000000" stroke-width="2" d="M25.479,50.746h2.345"/>
<path fill="none" stroke="#000000" stroke-width="2" d="M25.479,52.026h2.345"/>
<path fill="none" stroke="#000000" stroke-width="2" d="M25.479,53.198h2.345"/>
<path fill="none" stroke="#000000" stroke-width="2" d="M27.824,54.37h-2.345"/>
<path fill="none" stroke="#000000" stroke-width="2" d="M25.479,55.65h2.345"/>
<path fill="none" stroke="#000000" stroke-width="2" d="M25.479,56.823h2.345"/>
<path fill="none" stroke="#000000" stroke-width="2" d="M25.479,57.995h2.345"/>
<path fill="none" stroke="#000000" stroke-width="2" d="M25.479,59.275h2.345"/>
<path fill="none" stroke="#000000" stroke-width="2" d="M27.824,60.448h-2.345"/>
<path fill="none" stroke="#000000" stroke-width="2" d="M25.479,61.619h2.345"/>
<path fill="none" stroke="#000000" stroke-width="2" d="M25.479,62.792h2.345"/>
<path fill="none" stroke="#000000" stroke-width="2" d="M25.479,63.646h2.345"/>
<path fill="none" stroke="#000000" stroke-width="2" d="M25.479,64.818h2.345"/>
<path fill="none" stroke="#000000" stroke-width="2" d="M27.824,66.097h-2.345"/>
<path fill="none" stroke="#000000" stroke-width="2" d="M25.479,67.27h2.345"/>
<path fill="none" stroke="#000000" stroke-width="2" d="M25.479,68.443h2.345"/>
<path fill="none" stroke="#000000" stroke-width="2" d="M25.479,69.722h2.345"/>
<path fill="none" stroke="#000000" stroke-width="2" d="M25.479,70.895h2.345"/>
<path fill="none" stroke="#000000" stroke-width="2" d="M27.824,72.068h-2.345"/>
<path fill="none" stroke="#000000" stroke-width="2" d="M25.479,73.347h2.345"/>
<path fill="none" stroke="#000000" stroke-width="2" d="M25.479,74.519h2.345"/>
<path fill="none" stroke="#000000" stroke-width="2" d="M25.479,75.692h2.345"/>
<path fill="none" stroke="#000000" stroke-width="2" d="M25.479,76.865h2.345"/>
<path fill="none" stroke="#000000" stroke-width="2" d="M27.824,78.144h-2.345"/>
<path fill="none" stroke="#000000" stroke-width="2" d="M25.479,79.317h2.345"/>
<path fill="none" stroke="#000000" stroke-width="2" d="M25.479,80.49h2.345"/>
<path fill="none" stroke="#000000" stroke-width="2" d="M25.479,81.769h2.345"/>
<path fill="none" stroke="#000000" stroke-width="2" d="M25.479,82.941h2.345"/>
<path fill="none" stroke="#000000" stroke-width="2" d="M27.824,84.114h-2.345"/>
<path fill="none" stroke="#000000" stroke-width="2" d="M25.479,85.393h2.345"/>
<path fill="none" stroke="#000000" stroke-width="2" d="M25.479,86.139h2.345"/>
<path fill="none" stroke="#000000" stroke-width="2" d="M25.479,87.312h2.345"/>
<path fill="none" stroke="#000000" stroke-width="2" d="M25.479,88.591h2.345"/>
<path fill="none" stroke="#000000" stroke-width="2" d="M27.824,89.764h-2.345"/>
<path fill="none" stroke="#000000" stroke-width="2" d="M25.479,90.937h2.345"/>
<path fill="none" stroke="#000000" stroke-width="2" d="M25.479,92.216h2.345"/>
<path fill="none" stroke="#000000" stroke-width="2" d="M25.479,93.388h2.345"/>
<path fill="none" stroke="#000000" stroke-width="2" d="M25.479,94.561h2.345"/>
<path fill="none" stroke="#000000" stroke-width="2" d="M27.824,95.84h-2.345"/>
<path fill="none" stroke="#000000" stroke-width="2" d="M25.479,97.013h2.345"/>
<path fill="none" stroke="#000000" stroke-width="2" d="M25.479,98.186h2.345"/>
<path fill="none" stroke="#000000" stroke-width="2" d="M25.479,99.465h2.345"/>
<path fill="none" stroke="#000000" stroke-width="2" d="M25.479,100.638h2.345"/>
<path fill="none" stroke="#000000" stroke-width="2" d="M27.824,101.81h-2.345"/>
<path fill="none" stroke="#000000" stroke-width="2" d="M25.479,103.089h2.345"/>
<path fill="none" stroke="#000000" stroke-width="2" d="M50.425,101.81V10.556h-0.107l-2.879-0.747L44.134,9.49l-3.41-0.106
	l-3.838-0.214l-3.199-0.106l-3.411-0.106h-1.173h-1.279h-1.172h-3.625l-3.518,0.106l-3.198,0.106l-2.985,0.107L9.808,9.49
	L6.929,9.702l-2.878,0.427l-1.066,0.427l0,0v91.254v0.107l2.878,0.64l3.305,0.319l3.412,0.213l3.944,0.214l3.198,0.106h3.411h1.173
	h1.173h1.172h3.625h3.411l3.199-0.106l2.984-0.106l3.518-0.214l2.879-0.319l2.984-0.427l1.066-0.319L50.425,101.81"/>
</svg>
