<?xml version="1.0" encoding="utf-8"?>
<!-- Generator: Adobe Illustrator 14.0.0, SVG Export Plug-In . SVG Version: 6.00 Build 43363)  -->
<!DOCTYPE svg PUBLIC "-//W3C//DTD SVG 1.1//EN" "http://www.w3.org/Graphics/SVG/1.1/DTD/svg11.dtd">
<svg version="1.1" id="图层_1" xmlns="http://www.w3.org/2000/svg" xmlns:xlink="http://www.w3.org/1999/xlink" x="0px" y="0px"
	 width="119.693px" height="106.502px" viewBox="0 0 119.693 106.502" enable-background="new 0 0 119.693 106.502"
	 xml:space="preserve">
<path fill="#00FFFF" d="M3.358,103.024v-6.237h21.108V22.189V21.11v-1.08l0.12-0.959l0.24-1.079l0.24-0.84l0.24-0.96l0.24-0.839
	l0.359-0.96l0.36-0.72l0.48-0.839l0.479-0.84l0.48-0.72l0.6-0.6l0.6-0.72l0.72-0.6l0.719-0.6l0.72-0.6l0.72-0.6l0.72-0.479
	l0.839-0.479l0.72-0.48l0.719-0.359l0.72-0.479l0.84-0.24l0.719-0.359l0.72-0.24l0.839-0.24l0.72-0.239l0.72-0.12l0.72-0.12h0.839
	l0.72-0.12l1.439,0.12h1.559l1.319,0.24l1.319,0.359l1.319,0.24l1.199,0.479l1.08,0.479l1.079,0.6l1.08,0.72l0.959,0.72l0.959,0.84
	l0.839,0.959l0.72,0.84l0.719,1.079l0.84,1.199l0.6,1.199l0.839-1.199l0.959-1.199l0.84-1.079l1.079-1.079l0.959-0.96l1.08-0.72
	l1.199-0.839l1.08-0.72l1.199-0.6l1.199-0.48L71,4.319L72.2,3.959l1.199-0.24l1.199-0.24l1.199-0.119h1.199h0.84l0.959,0.119
	l0.84,0.24l0.84,0.12l0.84,0.239l0.839,0.24l0.72,0.24l0.72,0.359l0.839,0.36l0.721,0.479l0.719,0.479l0.72,0.36l0.72,0.6l0.72,0.6
	l0.6,0.6l0.72,0.6l0.6,0.6l0.6,0.839l0.479,0.72l0.479,0.72l0.48,0.72l0.479,0.72l0.36,0.84l0.359,0.839l0.359,0.84l0.359,0.84
	l0.24,0.839l0.24,0.96l0.119,0.839l0.24,0.96l0.12,0.959l0.12,0.96h8.395v74.598h12.953v6.237H3.358z M28.544,96.786h20.749V22.189
	h8.515l-0.12-0.96l-0.24-0.839l-0.24-0.84l-0.24-0.84l-0.24-0.719l-0.24-0.72l-0.36-0.72l-0.36-0.72l-0.36-0.72l-0.359-0.6
	l-0.36-0.6l-0.48-0.6l-0.36-0.6l-0.479-0.479l-0.48-0.48l-0.6-0.479l-1.079-0.84l-0.959-0.839l-1.2-0.6l-1.079-0.6l-1.199-0.36
	l-1.2-0.359l-1.199-0.12l-1.199-0.12h-0.839l-0.84,0.12l-0.839,0.12l-0.839,0.239l-0.84,0.24l-0.839,0.359l-0.84,0.36l-0.839,0.479
	L35.62,9.835l-0.84,0.6l-0.719,0.601l-0.72,0.6l-0.72,0.719l-0.6,0.72l-0.6,0.72l-0.6,0.84l-0.6,0.84l-0.36,0.839l-0.36,0.96
	l-0.36,0.959l-0.24,0.96l-0.12,0.959l-0.12,0.96l-0.12,1.079V96.786z M70.161,96.786h12.473V22.189h8.516l-0.12-0.96L90.79,20.51
	l-0.121-0.84l-0.239-0.72l-0.239-0.84l-0.24-0.719l-0.359-0.601l-0.24-0.719l-0.48-0.6l-0.359-0.72l-0.359-0.6l-0.36-0.6
	l-0.479-0.48l-0.48-0.6l-0.479-0.6l-0.48-0.479l-1.079-0.84l-1.079-0.839l-1.08-0.72l-1.199-0.6l-1.079-0.36l-1.199-0.359l-1.2-0.12
	l-1.199-0.12l-1.199,0.12l-1.318,0.12L73.04,8.036l-1.32,0.36l-1.199,0.6l-1.199,0.6l-1.199,0.839l-1.199,0.84l-0.6,0.479
	l-0.479,0.48l-0.479,0.479l-0.48,0.6l-0.479,0.6l-0.36,0.6l-0.359,0.72l-0.359,0.72l-0.359,0.6l-0.24,0.72l-0.24,0.72l-0.359,0.839
	l-0.12,0.84l-0.12,0.72l-0.12,0.839l-0.12,0.96h8.516V96.786z"/>
<path fill="none" stroke="#000000" stroke-width="2" d="M3.358,103.024v-6.237h21.108V21.11l0.6-3.958l1.199-3.479l2.039-2.998
	l2.758-2.519l2.999-2.039l2.998-1.438l2.999-0.84l3.718-0.12l4.198,0.6l3.598,1.199l3.118,2.039l2.519,2.639l2.159,3.478
	l1.799-2.398l2.878-3.118l3.359-2.278L71,4.319l3.598-0.84l1.199-0.119h1.199h0.84l3.479,0.719l3.117,1.2l2.879,1.919l2.639,2.398
	l2.039,2.998l1.559,3.238l0.959,3.478l0.48,2.879h8.395v74.598h12.953v6.237H3.358"/>
<path fill="none" stroke="#000000" stroke-width="2" d="M28.544,96.786h20.749V22.189h8.515l-0.12-0.96l-0.959-3.237l-1.319-2.879
	l-2.039-2.878l-3.118-2.639l-3.478-1.56l-2.399-0.479l-1.199-0.12h-0.839l-3.358,0.72L35.62,9.835l-2.999,2.519l-2.398,3.119
	l-1.319,3.718l-0.24,1.919l-0.12,1.079V96.786"/>
<path fill="none" stroke="#000000" stroke-width="2" d="M70.161,96.786h12.473V22.189h8.516l-0.12-0.96l-0.839-3.118l-1.32-2.638
	l-2.039-2.999l-3.117-2.758l-3.358-1.68l-2.399-0.479l-1.199-0.12l-1.199,0.12l-3.838,0.84l-3.598,2.038l-2.758,2.279l-2.039,3.238
	l-1.199,2.878l-0.36,2.398l-0.12,0.96h8.516V96.786"/>
</svg>
