<?xml version="1.0" encoding="utf-8"?>
<!-- Generator: Adobe Illustrator 14.0.0, SVG Export Plug-In . SVG Version: 6.00 Build 43363)  -->
<!DOCTYPE svg PUBLIC "-//W3C//DTD SVG 1.1//EN" "http://www.w3.org/Graphics/SVG/1.1/DTD/svg11.dtd">
<svg version="1.1" id="图层_1" xmlns="http://www.w3.org/2000/svg" xmlns:xlink="http://www.w3.org/1999/xlink" x="0px" y="0px"
	 width="112.946px" height="106.502px" viewBox="0 0 112.946 106.502" enable-background="new 0 0 112.946 106.502"
	 xml:space="preserve">
<path stroke="#000000" stroke-width="2" d="M3.165,9.497h106.502v93.839H3.165V9.497z"/>
<path fill="#333333" stroke="#000000" stroke-width="2" d="M6.331,9.497h97.005v93.839H6.331V9.497z"/>
<path fill="#4C4C4C" d="M9.497,9.497h84.568v93.839H9.497V9.497z"/>
<path fill="none" stroke="#000000" stroke-width="2" d="M3.165,9.497h106.502v93.839H3.165V9.497"/>
<path fill="#333333" d="M4.748,101.641h103.337v1.695H4.748V101.641z"/>
<path fill="#333333" d="M4.748,82.872h103.337v1.583H4.748V82.872z"/>
<path fill="#333333" d="M4.748,63.991h103.337v1.696H4.748V63.991z"/>
<path fill="#333333" d="M4.748,45.224h103.337v1.583H4.748V45.224z"/>
<path fill="#333333" d="M4.748,26.795h103.337v1.131H4.748V26.795z"/>
<path fill="none" stroke="#4C4C4C" stroke-width="2" d="M3.165,84.455h106.502"/>
<path fill="none" stroke="#4C4C4C" stroke-width="2" d="M3.165,65.688h106.502"/>
<path fill="none" stroke="#4C4C4C" stroke-width="2" d="M3.165,46.807h106.502"/>
<path fill="none" stroke="#4C4C4C" stroke-width="2" d="M3.165,27.926h106.502"/>
<path fill="#FFFF00" stroke="#FFFF00" stroke-width="2" d="M48.39,9.949V3.166H63.2v0.791H49.633v1.131H63.2V5.54H49.633v1.243H63.2
	v0.792H49.633v2.374H48.39z"/>
<path fill="#FFFF00" stroke="#FFFF00" stroke-width="2" d="M33.126,9.949V3.166H48.39v0.791H34.37v1.131h14.02V5.54H34.37v1.243
	h14.02v0.792H34.37v2.374H33.126z"/>
<path fill="#FFFF00" stroke="#FFFF00" stroke-width="2" d="M18.316,9.949V3.166h14.811v0.791H19.559v1.131h13.567V5.54H19.559v1.243
	h13.567v0.792H19.559v2.374H18.316z"/>
<path fill="#FFFF00" stroke="#FFFF00" stroke-width="2" d="M3.165,9.949V3.166h15.15v0.791H4.296v1.131h14.02V5.54H4.296v1.243
	h14.02v0.792H4.296v2.374H3.165z"/>
<ellipse fill="#FFFF00" stroke="#FFFF00" stroke-width="2" cx="109.103" cy="6.558" rx="0.564" ry="3.392"/>
<path fill="#FFFF00" stroke="#FFFF00" stroke-width="2" d="M93.274,9.949V3.166h15.264v0.791h-14.02v1.131h14.02V5.54h-14.02v1.243
	h14.02v0.792h-14.02v2.374H93.274z"/>
<path fill="#FFFF00" stroke="#FFFF00" stroke-width="2" d="M78.463,9.949V3.166h14.811v0.791H79.707v1.131h13.566V5.54H79.707v1.243
	h13.566v0.792H79.707v2.374H78.463z"/>
<path fill="#FFFF00" stroke="#FFFF00" stroke-width="2" d="M63.2,9.949V3.166h15.263v0.791h-14.02v1.131h14.02V5.54h-14.02v1.243
	h14.02v0.792h-14.02v2.374H63.2z"/>
<path fill="none" stroke="#000000" stroke-width="2" d="M64.444,5.088V3.957h14.02"/>
<path fill="none" stroke="#000000" stroke-width="2" d="M64.444,6.783V5.54h14.02"/>
<path fill="none" stroke="#000000" stroke-width="2" d="M64.444,9.949V7.575h14.02"/>
<path fill="none" stroke="#000000" stroke-width="2" d="M79.707,5.088V3.957h13.566"/>
<path fill="none" stroke="#000000" stroke-width="2" d="M79.707,6.783V5.54h13.566"/>
<path fill="none" stroke="#000000" stroke-width="2" d="M79.707,9.949V7.575h13.566"/>
<path fill="none" stroke="#000000" stroke-width="2" d="M94.518,5.088V3.957h14.02"/>
<path fill="none" stroke="#000000" stroke-width="2" d="M94.518,6.783V5.54h14.02"/>
<path fill="none" stroke="#000000" stroke-width="2" d="M94.518,9.949V7.575h14.02"/>
<path fill="none" stroke="#000000" stroke-width="2" d="M109.667,9.949V3.166"/>
<path fill="none" stroke="#000000" stroke-width="2" d="M4.296,5.088V3.957h14.02"/>
<path fill="none" stroke="#000000" stroke-width="2" d="M4.296,6.783V5.54h14.02"/>
<path fill="none" stroke="#000000" stroke-width="2" d="M4.296,9.949V7.575h14.02"/>
<path fill="none" stroke="#000000" stroke-width="2" d="M19.559,5.088V3.957h13.567"/>
<path fill="none" stroke="#000000" stroke-width="2" d="M19.559,6.783V5.54h13.567"/>
<path fill="none" stroke="#000000" stroke-width="2" d="M19.559,9.949V7.575h13.567"/>
<path fill="none" stroke="#000000" stroke-width="2" d="M34.37,5.088V3.957h14.02"/>
<path fill="none" stroke="#000000" stroke-width="2" d="M34.37,6.783V5.54h14.02"/>
<path fill="none" stroke="#000000" stroke-width="2" d="M34.37,9.949V7.575h14.02"/>
<path fill="none" stroke="#000000" stroke-width="2" d="M49.633,5.088V3.957H63.2"/>
<path fill="none" stroke="#000000" stroke-width="2" d="M49.633,6.783V5.54H63.2"/>
<path fill="none" stroke="#000000" stroke-width="2" d="M49.633,9.949V7.575H63.2"/>
</svg>
