<?xml version="1.0" encoding="utf-8"?>
<!-- Generator: Adobe Illustrator 14.0.0, SVG Export Plug-In . SVG Version: 6.00 Build 43363)  -->
<!DOCTYPE svg PUBLIC "-//W3C//DTD SVG 1.1//EN" "http://www.w3.org/Graphics/SVG/1.1/DTD/svg11.dtd">
<svg version="1.1" id="图层_1" xmlns="http://www.w3.org/2000/svg" xmlns:xlink="http://www.w3.org/1999/xlink" x="0px" y="0px"
	 width="123.71px" height="106.502px" viewBox="0 0 123.71 106.502" enable-background="new 0 0 123.71 106.502"
	 xml:space="preserve">
<path fill="#7F7F7F" stroke="#000000" stroke-width="2" d="M9.783,43.716h108.727v59.316H9.783V43.716z"/>
<path fill="#7F7F7F" stroke="#000000" stroke-width="2" d="M8.173,40.867h111.946v2.849H8.173V40.867z"/>
<path fill="#7F7F7F" d="M64.023,3.47l56.096,37.397H8.173L64.023,3.47z"/>
<path fill="#999999" d="M12.631,40.867L64.023,3.47l47.799,37.397H12.631z"/>
<path fill="#999999" d="M111.822,40.867v2.849H12.631v-2.849H111.822z"/>
<path fill="#999999" d="M14.241,43.716h95.972v59.316H14.241V43.716z"/>
<path fill="#B2B2B2" d="M18.204,40.867L64.023,3.47L99.81,40.867H18.204z"/>
<path fill="#B2B2B2" d="M99.81,40.867v2.849H18.204v-2.849H99.81z"/>
<path fill="#B2B2B2" d="M19.813,43.716h79.254v59.316H19.813V43.716z"/>
<path fill="#CCCCCC" d="M25.386,40.867L64.023,3.47l18.698,37.397H25.386z"/>
<path fill="#CCCCCC" d="M26.996,43.716h54.859v59.316H26.996V43.716z"/>
<path fill="#CCCCCC" d="M82.721,40.867v2.849H25.386v-2.849H82.721z"/>
<path fill="none" stroke="#000000" stroke-width="2" d="M8.173,40.867L64.023,3.47l56.096,37.397H8.173"/>
<path fill="none" stroke="#7F7F7F" stroke-width="2" d="M26.996,85.076h82.349"/>
<path fill="none" stroke="#7F7F7F" stroke-width="2" d="M58.821,64.397h59.688"/>
<path fill="none" stroke="#7F7F7F" stroke-width="2" d="M9.783,64.397h31.083"/>
<path fill="#666666" stroke="#000000" stroke-width="2" d="M14.241,103.032h-2.848v-9.535h-4.83v9.535H3.467v-1.981V99.07v-1.857
	V40.125l1.734-2.973l1.857-0.99H7.43h11.517l-4.706,3.096H8.173l-1.61,1.609V90.65h4.83V46.812h2.848V103.032z"/>
<path stroke="#000000" stroke-width="2" d="M8.173,37.648l-1.238,0.248L5.82,38.515l-0.619,0.991l-0.124,1.361h1.486l0.372-0.99
	l0.991-0.619h0.248V37.648z"/>
<path stroke="#000000" stroke-width="2" d="M8.173,39.258v-1.61h8.421l-2.353,1.61H8.173z"/>
<path stroke="#000000" stroke-width="2" d="M5.077,40.867h1.486v62.165H5.077V40.867z"/>
<path stroke="#000000" stroke-width="2" d="M12.631,46.812h1.61v56.221h-1.61V46.812z"/>
<path d="M12.631,45.325h0.372l0.372,0.124l0.248,0.124l0.248,0.248l0.124,0.123l0.124,0.372v0.247l0.124,0.248h-1.61V45.325z"/>
<path d="M6.563,92.259h6.068v1.238H6.563V92.259z"/>
<path fill="none" stroke="#000000" stroke-width="2" d="M12.631,46.812v-1.486h0.372l0.372,0.124l0.248,0.124l0.248,0.248
	l0.124,0.123l0.124,0.372v0.247l0.124,0.248H12.631"/>
<path fill="none" stroke="#000000" stroke-width="2" d="M6.563,92.259h6.068v1.238H6.563V92.259"/>
</svg>
