<?xml version="1.0" encoding="utf-8"?>
<!-- Generator: Adobe Illustrator 14.0.0, SVG Export Plug-In . SVG Version: 6.00 Build 43363)  -->
<!DOCTYPE svg PUBLIC "-//W3C//DTD SVG 1.1//EN" "http://www.w3.org/Graphics/SVG/1.1/DTD/svg11.dtd">
<svg version="1.1" id="图层_1" xmlns="http://www.w3.org/2000/svg" xmlns:xlink="http://www.w3.org/1999/xlink" x="0px" y="0px"
	 width="62.568px" height="106.502px" viewBox="0 0 62.568 106.502" enable-background="new 0 0 62.568 106.502"
	 xml:space="preserve">
<path fill="#FFFF00" stroke="#000000" stroke-width="2" d="M11.785,7.718h39.211v1.5H11.785V7.718z"/>
<path fill="#FFFF00" stroke="#000000" stroke-width="2" d="M13.285,10.932h36.211v1.5H13.285V10.932z"/>
<path fill="#CCCC33" d="M13.285,11.575h36.211v0.856H13.285V11.575z"/>
<path fill="#CCCC33" d="M11.785,8.575h39.211v0.643H11.785V8.575z"/>
<path fill="#FFFF00" d="M35.999,13.289V9.218l2.356-4.714h2.356l-2.356,4.714v4.071H35.999z"/>
<path fill="#FFFF00" d="M26.57,13.289V9.218l-2.357-4.714h-2.357l2.357,4.714v4.071H26.57z"/>
<path fill="#7F7F7F" d="M51.426,13.289h-40.07l-1.928,0.857l-1.5,0.856l-1.5,1.071l-1.071,1.071l-1.071,1.071l-0.643,1.286
	l-0.429,1.071L3,21.861v81.638h56.569V21.861l-0.215-1.286l-0.429-1.071l-0.643-1.286l-0.857-1.071l-1.071-1.071l-1.5-1.071
	l-1.5-0.856L51.426,13.289z"/>
<path fill="#999999" d="M49.284,13.289H13.499l-1.714,0.857l-1.5,0.856L9,16.074l-1.071,1.071l-0.857,1.071l-0.643,1.286
	l-0.214,1.071L6,21.861v81.638h50.783V21.861l-0.214-1.286l-0.215-1.071l-0.643-1.286l-0.857-1.071l-1.071-1.071l-1.286-1.071
	l-1.5-0.856L49.284,13.289z"/>
<path fill="#B2B2B2" d="M45.854,13.289H16.713l-1.286,0.857l-1.286,0.856l-0.857,1.071l-0.857,1.071l-0.857,1.071l-0.429,1.286
	l-0.214,1.071l-0.214,1.286v81.638h41.355V21.861l-0.215-1.286l-0.214-1.071l-0.429-1.286l-0.857-1.071l-0.857-1.071l-1.07-1.071
	l-1.286-0.856L45.854,13.289z"/>
<path fill="#CCCCCC" d="M41.355,13.289H21.427l-0.857,0.857l-0.857,0.856l-0.857,1.071l-0.428,1.071l-0.643,1.071l-0.429,1.286
	l-0.214,1.071v1.286v81.638h28.284V21.861v-1.286l-0.215-1.071l-0.428-1.286l-0.43-1.071l-0.643-1.071l-0.643-1.071l-0.857-0.856
	L41.355,13.289z"/>
<path fill="#E5E5E5" d="M36.426,13.289H26.355l-0.428,0.857l-0.429,0.856l-0.429,1.071l-0.214,1.071l-0.214,1.071l-0.214,1.286
	l-0.214,1.071v1.286v81.638h14.142V21.861v-1.286l-0.214-1.071v-1.286l-0.215-1.071l-0.428-1.071l-0.215-1.071l-0.429-0.856
	L36.426,13.289z"/>
<path fill="#FFFFFF" d="M32.999,13.289h-3.214l-0.214,0.857v0.856l-0.214,1.071l-0.214,1.071v1.071l-0.214,1.286v1.071v1.286v81.638
	h4.714V21.861v-1.286v-1.071v-1.286l-0.215-1.071v-1.071l-0.214-1.071v-0.856L32.999,13.289z"/>
<path fill="none" stroke="#000000" stroke-width="2" d="M51.426,13.289h-40.07l-1.928,0.857l-1.5,0.856l-1.5,1.071l-1.071,1.071
	l-1.071,1.071l-0.643,1.286l-0.429,1.071L3,21.861v81.638h56.569V21.861l-0.215-1.286l-0.429-1.071l-0.643-1.286l-0.857-1.071
	l-1.071-1.071l-1.5-1.071l-1.5-0.856L51.426,13.289"/>
<path fill="#7F7F7F" d="M10.5,15.218H8.571v88.28H10.5V15.218z"/>
<path fill="#7F7F7F" d="M18.213,103.498v-4.285H9.856v-1.286h8.357v-4.285H9.856v-1.285h8.357v-4.286H9.856v-1.285h8.357v-4.286
	H9.856v-1.5h8.357v-4.07H9.856v-1.5h8.357v-4.071H9.856v-1.5h8.357v-4.071H9.856v-1.5h8.357v-4.285H9.856v-1.286h8.357V54.43H9.856
	v-1.286h8.357v-4.285H9.856v-1.285h8.357v-4.286H9.856v-1.285h8.357v-4.286H9.856v-1.5h8.357v-4.07H9.856v-1.5h8.357v-4.071H9.856
	v-1.5h8.357v-4.286H9.856v-1.285h8.357v-4.285h2.143v88.28H18.213z"/>
<path fill="#FFFF00" stroke="#000000" stroke-width="2" d="M8.356,13.289H6.428v88.066h1.928V13.289z"/>
<path fill="#FFFF00" stroke="#000000" stroke-width="2" d="M16.07,101.356v-4.071H7.714v-1.5h8.356v-4.285H7.714v-1.286h8.356
	v-4.285H7.714v-1.285h8.356v-4.286H7.714v-1.285h8.356v-4.286H7.714V73.5h8.356v-4.285H7.714v-1.5h8.356v-4.071H7.714v-1.5h8.356
	v-4.071H7.714v-1.5h8.356v-4.071H7.714v-1.5h8.356v-4.285H7.714V45.43h8.356v-4.285H7.714V39.86h8.356v-4.286H7.714v-1.285h8.356
	v-4.286H7.714v-1.285h8.356v-4.285H7.714v-1.5h8.356v-4.071H7.714v-1.5h8.356v-4.071h2.143v88.066H16.07z"/>
<path fill="#CCCC33" d="M36.855,13.289V9.218l2.356-4.714h-0.856l-2.356,4.714v4.071H36.855z"/>
<path fill="#CCCC33" d="M25.927,13.289V9.218L23.57,4.504h0.643l2.357,4.714v4.071H25.927z"/>
<path fill="#FFFF00" stroke="#000000" stroke-width="2" d="M52.497,4.504H10.071l4.071,4.714v4.071h-2.357V9.218L6.214,3.004h50.355
	l-5.572,6.214v4.071H48.64V9.218L52.497,4.504z"/>
<path fill="#CCCC33" d="M13.285,13.289V9.218L8.571,3.862h47.141l-4.715,5.356v4.071H50.14V9.218l4.071-4.714H10.071l4.071,4.714
	v4.071H13.285z"/>
<path fill="none" stroke="#000000" stroke-width="2" d="M35.999,13.289V9.218l2.356-4.714h2.356l-2.356,4.714v4.071H35.999"/>
<path fill="none" stroke="#000000" stroke-width="2" d="M26.57,13.289V9.218l-2.357-4.714h-2.357l2.357,4.714v4.071H26.57"/>
</svg>
