<?xml version="1.0" encoding="utf-8"?>
<!-- Generator: Adobe Illustrator 14.0.0, SVG Export Plug-In . SVG Version: 6.00 Build 43363)  -->
<!DOCTYPE svg PUBLIC "-//W3C//DTD SVG 1.1//EN" "http://www.w3.org/Graphics/SVG/1.1/DTD/svg11.dtd">
<svg version="1.1" id="图层_1" xmlns="http://www.w3.org/2000/svg" xmlns:xlink="http://www.w3.org/1999/xlink" x="0px" y="0px"
	 width="30.917px" height="106.502px" viewBox="0 0 30.917 106.502" enable-background="new 0 0 30.917 106.502"
	 xml:space="preserve">
<path fill="#CCCCCC" stroke="#000000" stroke-width="2" d="M23.454,10.981h0.213h0.106h0.214h3.091l0.747,0.96v0.213v0.533v81.556
	l-0.64,1.173h-0.107h-2.451v-1.173l2.451-0.427V12.58v-0.107l-0.106-0.106l-2.984-0.213l-0.427,0.213l-0.106,0.106v0.533h-1.173
	V12.9L23.454,10.981z"/>
<path fill="#E5E5E5" stroke="#000000" stroke-width="2" d="M14.179,2.985l-4.371,1.6v9.275l4.371-1.706V2.985z"/>
<path fill="#CCCCCC" stroke="#000000" stroke-width="2" d="M14.179,12.154V2.985l4.052,0.32v9.275L14.179,12.154z"/>
<path fill="#E5E5E5" stroke="#000000" stroke-width="2" d="M25.906,102.239V13.433l-0.107-0.213l-2.984-0.64l-3.092-0.32h-3.198
	h-0.533l-0.64-0.106h-0.533l-3.305,0.106l-3.092,0.106L5.224,12.58l-2.238,0.64v0.106v0.106v88.806v0.106l2.984,0.746l2.985,0.213
	l2.985,0.106h0.64h0.532h0.533h3.519l3.092-0.106l2.984-0.213l2.559-0.746l0,0L25.906,102.239z"/>
<path fill="#B2B2B2" d="M25.906,102.239V13.433l-2.772-1.066l-0.853-0.213v90.938l2.878-0.32L25.906,102.239z"/>
<path fill="#CCCCCC" d="M6.184,103.091V12.154L3.411,12.9l-0.426,0.533v88.806l2.771,0.853H6.184z"/>
<path fill="#CCCCCC" d="M22.281,103.091V12.154h-8.103v91.257h3.412l2.984-0.106L22.281,103.091z"/>
<path fill="none" stroke="#CCCCCC" stroke-width="2" d="M25.906,92.963l-0.107,0.213l-0.853,0.32l-1.066,0.213l-1.065,0.106
	l-1.173,0.106l-1.386,0.107l-0.96,0.106h-1.065h-1.066h-1.173l-0.64,0.106h-0.533h-1.706l-1.172-0.106h-0.96H9.914H8.955L7.57,94.03
	L6.29,93.922l-1.066-0.106l-1.173-0.213l-0.853-0.32l-0.213-0.106V93.07v-0.106"/>
<path fill="none" stroke="#CCCCCC" stroke-width="2" d="M25.906,84.115l-0.107,0.106l-0.853,0.214l-1.066,0.106l-1.065,0.106
	l-1.173,0.106l-1.386,0.106h-0.96h-1.065l-1.066,0.106h-1.173h-0.64h-0.533h-1.706h-1.172l-0.96-0.106H9.914H8.955L7.57,84.754H6.29
	l-1.066-0.106l-1.173-0.213l-0.853-0.107l-0.213-0.106v-0.106"/>
<path fill="none" stroke="#CCCCCC" stroke-width="2" d="M25.906,29.105l-0.107-0.107l-0.853-0.213l-1.066-0.106l-1.065-0.106
	l-1.173-0.106l-1.386-0.107h-0.96h-1.065h-1.066l-1.173-0.106h-0.64h-0.533h-1.706h-1.172l-0.96,0.106H9.914H8.955L7.57,28.465
	L6.29,28.572H5.224l-1.173,0.213l-0.853,0.106l-0.213,0.106v0.107"/>
<path fill="none" stroke="#CCCCCC" stroke-width="2" d="M25.906,20.256l-0.107-0.214l-0.853-0.319l-1.066-0.214l-1.065-0.106
	l-1.173-0.106l-1.386-0.106l-0.96-0.106h-1.065h-1.066h-1.173h-0.64h-0.533h-1.706h-1.172h-0.96H9.914L8.955,19.19H7.57L6.29,19.296
	l-1.066,0.213l-1.173,0.107l-0.853,0.319l-0.213,0.106v0.106v0.107"/>
<path fill="none" stroke="#CCCCCC" stroke-width="2" d="M2.986,74.947h23.24"/>
<path fill="none" stroke="#CCCCCC" stroke-width="2" d="M2.986,65.671h23.24"/>
<path fill="none" stroke="#CCCCCC" stroke-width="2" d="M2.986,56.396h23.24"/>
<path fill="none" stroke="#CCCCCC" stroke-width="2" d="M2.986,47.548h23.24"/>
<path fill="none" stroke="#CCCCCC" stroke-width="2" d="M2.986,38.273h23.24"/>
<path fill="none" stroke="#000000" stroke-width="2" d="M25.906,102.239V13.433l-0.107-0.213l-2.984-0.64l-3.092-0.32h-3.198h-0.533
	l-0.64-0.106h-0.533l-3.305,0.106l-3.092,0.106L5.224,12.58l-2.238,0.64v0.106v0.106v88.806v0.106l2.984,0.746l2.985,0.213
	l2.985,0.106h0.64h0.532h0.533h3.519l3.092-0.106l2.984-0.213l2.559-0.746l0,0L25.906,102.239"/>
<path fill="#E5E5E5" stroke="#000000" stroke-width="2" d="M15.458,5.33h-0.106h-0.213h-0.107H4.584L3.411,6.397L3.305,6.61v0.427
	v53.411l1.066,1.173h0.213H6.93v-1.173l-2.346-1.279V7.356L7.463,6.61h7.568h0.107h0.106l0.213,0.746v4.798h1.173v-0.106V6.61
	L15.458,5.33z"/>
<path fill="#E5E5E5" stroke="#000000" stroke-width="2" d="M6.93,102.239H6.716H6.61H6.397l-2.665-0.96v-0.213v-0.214V63.219
	l0.64-1.173h0.213H6.93v1.173l-2.346,0.214v0.106v3.838v33.262v0.106v0.106l0.746,0.214h1.6V102.239z"/>
<path fill="#999999" stroke="#000000" stroke-width="2" d="M4.584,12.58V8.529l5.65-1.173h7.996l6.076,1.173v4.052h-0.853V8.955
	l-5.224-0.746v3.944h-0.427V8.209h-6.823v3.944h-0.746V8.209L5.33,8.955v3.625H4.584z"/>
<path fill="#7F7F7F" stroke="#000000" stroke-width="2" d="M5.33,10.981l4.904-0.746V9.808L5.33,10.554V10.981z"/>
<path fill="#7F7F7F" stroke="#000000" stroke-width="2" d="M18.231,9.808l5.224,0.746v0.427l-5.224-0.746V9.808z"/>
<path fill="#7F7F7F" stroke="#000000" stroke-width="2" d="M10.981,10.235h6.823V9.808h-6.823V10.235z"/>
</svg>
