<?xml version="1.0" encoding="utf-8"?>
<!-- Generator: Adobe Illustrator 14.0.0, SVG Export Plug-In . SVG Version: 6.00 Build 43363)  -->
<!DOCTYPE svg PUBLIC "-//W3C//DTD SVG 1.1//EN" "http://www.w3.org/Graphics/SVG/1.1/DTD/svg11.dtd">
<svg version="1.1" id="图层_1" xmlns="http://www.w3.org/2000/svg" xmlns:xlink="http://www.w3.org/1999/xlink" x="0px" y="0px"
	 width="108.562px" height="106.502px" viewBox="0 0 108.562 106.502" enable-background="new 0 0 108.562 106.502"
	 xml:space="preserve">
<path fill="#999999" stroke="#000000" stroke-width="2" d="M100.085,9.131V7.936H91.5L90.74,8.479v0.326v0.326H100.085z"/>
<path fill="#999999" stroke="#000000" stroke-width="2" d="M74.656,9.131V7.936h-8.585l-0.869,0.217l-0.326,0.652v0.326H74.656z"/>
<path fill="#999999" stroke="#000000" stroke-width="2" d="M48.902,9.131V7.936h-8.585l-0.761,0.543l-0.108,0.326v0.326H48.902z"/>
<path fill="#999999" stroke="#000000" stroke-width="2" d="M23.473,9.131V7.936h-8.585l-0.869,0.217l-0.326,0.652v0.326H23.473z"/>
<path fill="#E5E5E5" stroke="#000000" stroke-width="2" d="M85.415,9.131V9.023V9.131l-0.544-0.979l-0.761-0.217h-4.129V3.045
	h25.429v4.891h-0.435H91.5L90.74,8.479v0.326v0.326H85.415z"/>
<path fill="#E5E5E5" stroke="#000000" stroke-width="2" d="M59.551,9.131V9.023V9.131l-0.326-0.979l-0.869-0.217h-4.129V3.045
	h25.755v4.891h-0.435H66.072l-0.869,0.217l-0.326,0.652v0.326H59.551z"/>
<path fill="#E5E5E5" stroke="#000000" stroke-width="2" d="M34.122,9.131V9.023V9.131l-0.435-0.979l-0.761-0.217h-4.129V3.045
	h25.429v4.891h-0.435H40.317l-0.761,0.543l-0.108,0.326v0.326H34.122z"/>
<path fill="#E5E5E5" stroke="#000000" stroke-width="2" d="M8.367,9.131V9.023V9.131L8.041,8.153L7.064,7.936H3.043V3.045h25.755
	v4.891h-0.436H14.888l-0.869,0.217l-0.326,0.652v0.326H8.367z"/>
<path fill="none" stroke="#000000" stroke-width="2" d="M3.043,10.435h25.429v93.022H3.043V10.435"/>
<path fill="#4C4C4C" stroke="#000000" stroke-width="2" d="M3.043,9.131h25.755v1.304H3.043V9.131z"/>
<path fill="#4C4C4C" stroke="#000000" stroke-width="2" d="M28.798,9.131h25.429v1.304H28.798V9.131z"/>
<path fill="#4C4C4C" stroke="#000000" stroke-width="2" d="M54.227,9.131h25.755v1.304H54.227V9.131z"/>
<path fill="#4C4C4C" stroke="#000000" stroke-width="2" d="M79.982,9.131h25.429v1.304H79.982V9.131z"/>
<path fill="none" stroke="#000000" stroke-width="2" d="M28.798,10.435h25.429v93.022H28.798V10.435"/>
<path fill="none" stroke="#000000" stroke-width="2" d="M54.227,10.435h25.429v93.022H54.227V10.435"/>
<path fill="#B2B2B2" d="M79.982,103.457h0.869V10.435h-0.869V103.457z"/>
<path fill="#B2B2B2" d="M97.26,103.457h4.129V10.435H97.26V103.457z"/>
<path fill="#B2B2B2" d="M54.227,103.457h1.195V10.435h-1.195V103.457z"/>
<path fill="#B2B2B2" d="M71.831,103.457h3.694V10.435h-3.694V103.457z"/>
<path fill="#B2B2B2" d="M28.798,103.457h0.869V10.435h-0.869V103.457z"/>
<path fill="#B2B2B2" d="M46.076,103.457h4.021V10.435h-4.021V103.457z"/>
<path fill="#B2B2B2" d="M3.043,103.457h1.195V10.435H3.043V103.457z"/>
<path fill="#B2B2B2" d="M20.648,103.457h3.694V10.435h-3.694V103.457z"/>
<path fill="#E5E5E5" d="M82.481,103.457h8.259V10.435h-8.259V103.457z"/>
<path fill="#E5E5E5" d="M57.052,103.457h7.824V10.435h-7.824V103.457z"/>
<path fill="#E5E5E5" d="M31.297,103.457h8.15V10.435h-8.15V103.457z"/>
<path fill="#E5E5E5" d="M5.868,103.457h7.824V10.435H5.868V103.457z"/>
<path fill="#CCCCCC" d="M90.74,103.457h6.521V10.435H90.74V103.457z"/>
<path fill="#CCCCCC" d="M80.851,103.457h1.63V10.435h-1.63V103.457z"/>
<path fill="#CCCCCC" d="M64.876,103.457h6.955V10.435h-6.955V103.457z"/>
<path fill="#CCCCCC" d="M55.422,103.457h1.63V10.435h-1.63V103.457z"/>
<path fill="#CCCCCC" d="M39.448,103.457h6.629V10.435h-6.629V103.457z"/>
<path fill="#CCCCCC" d="M29.667,103.457h1.63V10.435h-1.63V103.457z"/>
<path fill="#CCCCCC" d="M13.693,103.457h6.955V10.435h-6.955V103.457z"/>
<path fill="#CCCCCC" d="M4.239,103.457h1.63V10.435h-1.63V103.457z"/>
<path fill="#999999" d="M101.389,103.457h2.392V10.435h-2.392V103.457z"/>
<path fill="#999999" d="M75.526,103.457h2.935V10.435h-2.935V103.457z"/>
<path fill="#999999" d="M50.097,103.457h2.499V10.435h-2.499V103.457z"/>
<path fill="#999999" d="M24.342,103.457h2.825V10.435h-2.825V103.457z"/>
<path fill="#666666" d="M103.781,103.457h1.63V10.435h-1.63V103.457z"/>
<path fill="#666666" d="M78.46,103.457h1.521V10.435H78.46V103.457z"/>
<path fill="#666666" d="M52.596,103.457h1.631V10.435h-1.631V103.457z"/>
<path fill="#666666" d="M27.167,103.457h1.631V10.435h-1.631V103.457z"/>
<path fill="#7F7F7F" d="M28.798,10.435H3.043l25.755,3.261V10.435z"/>
<path fill="#7F7F7F" d="M54.227,10.435H28.798l25.429,3.261V10.435z"/>
<path fill="#7F7F7F" d="M79.982,10.435H54.227l25.755,3.261V10.435z"/>
<path fill="#7F7F7F" d="M105.41,10.435H79.982l25.429,3.261V10.435z"/>
<path fill="#B2B2B2" d="M89.11,9.131V7.936h-9.128v-1.63h25.429v1.63H91.5L90.74,8.479v0.652H89.11z"/>
<path fill="#B2B2B2" d="M63.246,9.131V7.936h-9.02v-1.63h25.755v1.63h-13.91l-0.869,0.217l-0.326,0.979H63.246z"/>
<path fill="#B2B2B2" d="M37.818,9.131V7.936h-9.02v-1.63h25.429v1.63h-13.91l-0.761,0.543l-0.108,0.652H37.818z"/>
<path fill="#B2B2B2" d="M12.063,9.131V7.936h-9.02v-1.63h25.755v1.63h-13.91l-0.869,0.217l-0.326,0.979H12.063z"/>
<path fill="none" stroke="#000000" stroke-width="2" d="M85.415,9.131V9.023V9.131l-0.544-0.979l-0.761-0.217h-4.129V3.045h25.429
	v4.891h-0.435H91.5L90.74,8.479v0.326v0.326H85.415"/>
<path fill="none" stroke="#000000" stroke-width="2" d="M59.551,9.131V9.023V9.131l-0.326-0.979l-0.869-0.217h-4.129V3.045h25.755
	v4.891h-0.435H66.072l-0.869,0.217l-0.326,0.652v0.326H59.551"/>
<path fill="none" stroke="#000000" stroke-width="2" d="M34.122,9.131V9.023V9.131l-0.435-0.979l-0.761-0.217h-4.129V3.045h25.429
	v4.891h-0.435H40.317l-0.761,0.543l-0.108,0.326v0.326H34.122"/>
<path fill="none" stroke="#000000" stroke-width="2" d="M8.367,9.131V9.023V9.131L8.041,8.153L7.064,7.936H3.043V3.045h25.755v4.891
	h-0.436H14.888l-0.869,0.217l-0.326,0.652v0.326H8.367"/>
<path fill="none" stroke="#000000" stroke-width="2" d="M79.982,9.131h25.429v94.326H79.982V9.131"/>
<path fill="none" stroke="#000000" stroke-width="2" d="M54.227,9.131h25.755v94.326H54.227V9.131"/>
<path fill="none" stroke="#000000" stroke-width="2" d="M28.798,9.131h25.429v94.326H28.798V9.131"/>
<path fill="none" stroke="#000000" stroke-width="2" d="M3.043,9.131h25.755v94.326H3.043V9.131"/>
</svg>
