<?xml version="1.0" encoding="utf-8"?>
<!-- Generator: Adobe Illustrator 14.0.0, SVG Export Plug-In . SVG Version: 6.00 Build 43363)  -->
<!DOCTYPE svg PUBLIC "-//W3C//DTD SVG 1.1//EN" "http://www.w3.org/Graphics/SVG/1.1/DTD/svg11.dtd">
<svg version="1.1" id="图层_1" xmlns="http://www.w3.org/2000/svg" xmlns:xlink="http://www.w3.org/1999/xlink" x="0px" y="0px"
	 width="60.66px" height="106.502px" viewBox="0 0 60.66 106.502" enable-background="new 0 0 60.66 106.502" xml:space="preserve">
<path fill="#4C4C4C" stroke="#000000" stroke-width="2" d="M14.178,17.377l12.047,3.625h8.103l12.047-3.625H14.178z"/>
<path fill="#999999" stroke="#000000" stroke-width="2" d="M14.178,7.357v9.701h32.196V7.357L30.277,2.986L14.178,7.357z"/>
<path fill="#CCCCCC" stroke="#000000" stroke-width="2" d="M2.985,99.466V21.002l1.919-2.025l2.771-0.853l2.879-0.427l2.878-0.213
	l0.533-0.107h0.64l3.519,0.214l2.984,0.426l2.879,0.854l2.238,1.813v0.213v0.106v78.464l-1.599,2.132l-2.559,0.96l-2.879,0.64
	l-3.411,0.213h-0.533h-0.64l-3.411-0.106l-3.092-0.533l-2.879-0.853l-2.132-1.813l-0.106-0.427V99.466z"/>
<path fill="#CCCCCC" stroke="#000000" stroke-width="2" d="M34.328,99.466V21.002l2.025-2.025l2.665-0.853l2.985-0.427l2.771-0.213
	l0.64-0.107h0.533l3.519,0.214l2.984,0.426l2.879,0.854l2.238,1.813v0.213v0.106v78.464l-1.599,2.132l-2.559,0.96l-2.879,0.64
	l-3.411,0.213h-0.533h-0.64l-3.411-0.106l-3.092-0.533l-2.771-0.853l-2.239-1.813l-0.106-0.427V99.466z"/>
<path fill="#E5E5E5" d="M34.328,99.466V21.002l2.025-1.919l1.919-0.853v84.434l-2.559-1.279L34.328,99.466z"/>
<path fill="#E5E5E5" d="M2.985,99.466V21.002l2.025-1.919l1.919-0.853v84.434l-2.559-1.279L2.985,99.466z"/>
<path fill="#B2B2B2" d="M26.225,99.466V21.002L24.2,18.87l-1.599-0.64v84.434l2.559-1.279L26.225,99.466z"/>
<path fill="#B2B2B2" d="M57.568,99.466V21.002l-2.025-2.132l-1.492-0.64v84.434l2.452-1.279L57.568,99.466z"/>
<path fill="#B2B2B2" d="M26.225,21.002h8.103v79.637h-8.103V21.002z"/>
<path fill="none" stroke="#000000" stroke-width="2" d="M2.985,99.466V21.002l1.919-2.025l2.771-0.853l2.879-0.427l2.878-0.213
	l0.533-0.107h0.64l3.519,0.214l2.984,0.426l2.879,0.854l2.238,1.813v0.213v0.106v78.464l-1.599,2.132l-2.559,0.96l-2.879,0.64
	l-3.411,0.213h-0.533h-0.64l-3.411-0.106l-3.092-0.533l-2.879-0.853l-2.132-1.813l-0.106-0.427V99.466"/>
<path fill="none" stroke="#000000" stroke-width="2" d="M34.328,99.466V21.002l2.025-2.025l2.665-0.853l2.985-0.427l2.771-0.213
	l0.64-0.107h0.533l3.519,0.214l2.984,0.426l2.879,0.854l2.238,1.813v0.213v0.106v78.464l-1.599,2.132l-2.559,0.96l-2.879,0.64
	l-3.411,0.213h-0.533h-0.64l-3.411-0.106l-3.092-0.533l-2.771-0.853l-2.239-1.813l-0.106-0.427V99.466"/>
<path fill="none" stroke="#000000" stroke-width="2" d="M26.225,21.002h8.103v79.637h-8.103V21.002"/>
<path fill="none" stroke="#000000" stroke-width="2" d="M54.797,16.205v2.451"/>
<path fill="none" stroke="#000000" stroke-width="2" d="M49.573,15.458v1.919"/>
<path fill="none" stroke="#000000" stroke-width="2" d="M44.775,15.032v2.345"/>
<path fill="none" stroke="#000000" stroke-width="2" d="M39.552,15.032v2.345"/>
<path fill="none" stroke="#000000" stroke-width="2" d="M34.328,15.032v2.345"/>
<path fill="none" stroke="#000000" stroke-width="2" d="M57.568,21.002v-1.599"/>
<path fill="#B2B2B2" stroke="#000000" stroke-width="2" d="M46.375,103.09h2.452v-4.903h-2.452V103.09z"/>
<path fill="#B2B2B2" stroke="#000000" stroke-width="2" d="M14.605,103.09h2.452v-4.903h-2.452V103.09z"/>
<path fill="#B2B2B2" stroke="#000000" stroke-width="2" d="M38.272,17.058h2.452v-4.904h-2.452V17.058z"/>
<path fill="#7F7F7F" stroke="#000000" stroke-width="2" d="M12.153,103.09h2.452v-4.903h-2.452V103.09z"/>
<path fill="#7F7F7F" stroke="#000000" stroke-width="2" d="M43.923,103.09h2.452v-4.903h-2.452V103.09z"/>
<path fill="#7F7F7F" stroke="#000000" stroke-width="2" d="M35.927,17.058h2.346v-4.904h-2.346V17.058z"/>
<path fill="#666666" stroke="#000000" stroke-width="2" d="M57.568,20.683l-0.319-0.96l-0.746-0.64l-0.854-0.427l-1.065-0.426
	l-1.173-0.427l-0.96-0.213l-0.959-0.106l-0.96-0.214l-1.065-0.106l-1.173-0.106h-1.173h-0.533h-0.64h-11.62v0.319h11.62l1.173,0.107
	h1.173l1.173,0.106l1.065,0.106l0.96,0.106l0.959,0.213l0.96,0.214l1.173,0.319l1.065,0.427l0.854,0.533l0.746,0.64l0.319,0.746
	v0.106V20.683z"/>
<path fill="none" stroke="#000000" stroke-width="2" d="M57.568,19.083l-0.319-1.066l-0.746-0.853l-0.854-0.427l-1.065-0.426
	l-1.173-0.427l-0.96-0.213l-0.959-0.214l-0.96-0.106l-1.065-0.213l-1.173-0.106h-1.173h-0.533h-0.64h-11.62v0.746h11.62l1.173,0.106
	h1.173l1.173,0.106l1.065,0.214l0.96,0.106l0.959,0.213l0.96,0.32l1.173,0.319l1.065,0.533l0.854,0.533l0.746,0.64l0.319,0.746
	v0.213V19.083"/>
</svg>
