<?xml version="1.0" encoding="utf-8"?>
<!-- Generator: Adobe Illustrator 14.0.0, SVG Export Plug-In . SVG Version: 6.00 Build 43363)  -->
<!DOCTYPE svg PUBLIC "-//W3C//DTD SVG 1.1//EN" "http://www.w3.org/Graphics/SVG/1.1/DTD/svg11.dtd">
<svg version="1.1" id="图层_1" xmlns="http://www.w3.org/2000/svg" xmlns:xlink="http://www.w3.org/1999/xlink" x="0px" y="0px"
	 width="144.749px" height="95.918px" viewBox="0 0 144.749 95.918" enable-background="new 0 0 144.749 95.918"
	 xml:space="preserve">
<path fill="#336666" d="M104.903,77.082V73.17h3.912v-4.201h4.202V12.171h-4.202V8.114h-3.912V4.057h24.342v4.057h-4.057v4.058
	h-4.058v56.798h4.058v4.201h4.057v3.912H104.903z"/>
<path fill="#336666" d="M15.36,77.082V73.17h4.057v-4.201h4.058V12.171h-4.058V8.114H15.36V4.057h24.342v4.057h-3.912v4.058h-4.202
	v56.798h4.202v4.201h3.912v3.912H15.36z"/>
<path fill="#194C4C" d="M108.815,73.17v-4.201h4.202V12.171h-4.202V8.114h16.373v4.058h-4.058v56.798h4.058v4.201H108.815z"/>
<path fill="#194C4C" d="M19.416,73.17v-4.201h4.058V12.171h-4.058V8.114h16.373v4.058h-4.202v56.798h4.202v4.201H19.416z"/>
<path fill="#003333" d="M23.474,68.969V12.171h8.113v56.798H23.474z"/>
<path fill="#003333" d="M113.017,68.969V12.171h8.113v56.798H113.017z"/>
<path fill="none" stroke="#000000" stroke-width="2" d="M113.017,68.969h8.113"/>
<path fill="none" stroke="#000000" stroke-width="2" d="M125.188,73.17h-16.373"/>
<path fill="none" stroke="#000000" stroke-width="2" d="M108.815,8.114h16.373"/>
<path fill="none" stroke="#000000" stroke-width="2" d="M121.13,12.171h-8.113"/>
<path fill="none" stroke="#000000" stroke-width="2" d="M23.474,68.969h8.113"/>
<path fill="none" stroke="#000000" stroke-width="2" d="M35.789,73.17H19.416"/>
<path fill="none" stroke="#000000" stroke-width="2" d="M19.416,8.114h16.373"/>
<path fill="none" stroke="#000000" stroke-width="2" d="M31.587,12.171h-8.113"/>
<path fill="none" stroke="#000000" stroke-width="2" d="M104.903,77.082V73.17h3.912v-4.201h4.202V12.171h-4.202V8.114h-3.912V4.057
	h24.342v4.057h-4.057v4.058h-4.058v56.798h4.058v4.201h4.057v3.912H104.903"/>
<path fill="none" stroke="#000000" stroke-width="2" d="M15.36,77.082V73.17h4.057v-4.201h4.058V12.171h-4.058V8.114H15.36V4.057
	h24.342v4.057h-3.912v4.058h-4.202v56.798h4.202v4.201h3.912v3.912H15.36"/>
<path fill="#003333" stroke="#000000" stroke-width="2" d="M31.587,68.969l40.715-26.95l40.715,26.95v-5.941L76.359,39.12
	l36.658-21.009v-5.94L72.302,36.078L31.587,12.171v5.94L68.245,39.12L31.587,63.028V68.969z"/>
<path fill="#194C4C" stroke="#000000" stroke-width="2" d="M63.174,41.584l4.057-2.608l-4.057-2.463l3.478-5.071l5.65,3.622
	l5.65-3.622l3.478,5.071l-4.057,2.463l4.057,2.608l-3.478,5.071l-5.65-3.623l-5.65,3.623L63.174,41.584z"/>
<path fill="#7FB2B2" d="M111.278,91.862v-4.927h4.927v-4.926h4.926V13.765h-4.926V8.838h-4.927V4.057h29.269v4.781h-4.781v4.927
	h-4.927v68.244h4.927v4.926h4.781v4.927H111.278z"/>
<path fill="#7FB2B2" d="M4.058,91.862v-4.927h4.781v-4.926h4.927V13.765H8.839V8.838H4.058V4.057h29.269v4.781H28.4v4.927h-4.926
	v68.244H28.4v4.926h4.927v4.927H4.058z"/>
<path fill="#669999" d="M116.204,86.935v-4.926h4.926V13.765h-4.926V8.838h19.561v4.927h-4.927v68.244h4.927v4.926H116.204z"/>
<path fill="#669999" d="M8.839,86.935v-4.926h4.927V13.765H8.839V8.838H28.4v4.927h-4.926v68.244H28.4v4.926H8.839z"/>
<path fill="#4C7F7F" d="M13.766,82.009V13.765h9.708v68.244H13.766z"/>
<path fill="#4C7F7F" d="M121.13,82.009V13.765h9.708v68.244H121.13z"/>
<path fill="none" stroke="#000000" stroke-width="2" d="M121.13,82.009h9.708"/>
<path fill="none" stroke="#000000" stroke-width="2" d="M135.765,86.935h-19.561"/>
<path fill="none" stroke="#000000" stroke-width="2" d="M116.204,8.838h19.561"/>
<path fill="none" stroke="#000000" stroke-width="2" d="M130.838,13.765h-9.708"/>
<path fill="none" stroke="#000000" stroke-width="2" d="M13.766,82.009h9.708"/>
<path fill="none" stroke="#000000" stroke-width="2" d="M28.4,86.935H8.839"/>
<path fill="none" stroke="#000000" stroke-width="2" d="M8.839,8.838H28.4"/>
<path fill="none" stroke="#000000" stroke-width="2" d="M23.474,13.765h-9.708"/>
<path fill="none" stroke="#000000" stroke-width="2" d="M111.278,91.862v-4.927h4.927v-4.926h4.926V13.765h-4.926V8.838h-4.927
	V4.057h29.269v4.781h-4.781v4.927h-4.927v68.244h4.927v4.926h4.781v4.927H111.278"/>
<path fill="none" stroke="#000000" stroke-width="2" d="M4.058,91.862v-4.927h4.781v-4.926h4.927V13.765H8.839V8.838H4.058V4.057
	h29.269v4.781H28.4v4.927h-4.926v68.244H28.4v4.926h4.927v4.927H4.058"/>
<path fill="#336666" stroke="#000000" stroke-width="2" d="M23.474,82.009l48.828-32.312l48.828,32.312v-7.1L77.229,46.075
	l43.901-25.211v-7.1L72.302,42.453L23.474,13.765v7.1l43.901,25.211L23.474,74.909V82.009z"/>
<path fill="#669999" stroke="#000000" stroke-width="2" d="M61.29,49.118l4.926-3.043l-4.926-3.043l4.202-6.085l6.81,4.202
	l6.665-4.202l4.347,6.085l-4.927,3.043l4.927,3.043l-4.202,6.085l-6.81-4.347l-6.665,4.347L61.29,49.118z"/>
</svg>
