<?xml version="1.0" encoding="utf-8"?>
<!-- Generator: Adobe Illustrator 14.0.0, SVG Export Plug-In . SVG Version: 6.00 Build 43363)  -->
<!DOCTYPE svg PUBLIC "-//W3C//DTD SVG 1.1//EN" "http://www.w3.org/Graphics/SVG/1.1/DTD/svg11.dtd">
<svg version="1.1" id="图层_1" xmlns="http://www.w3.org/2000/svg" xmlns:xlink="http://www.w3.org/1999/xlink" x="0px" y="0px"
	 width="144.749px" height="73.75px" viewBox="0 0 144.749 73.75" enable-background="new 0 0 144.749 73.75" xml:space="preserve">
<path fill="#7F7F7F" stroke="#000000" stroke-width="2" d="M38.977,61.433h-8.838l17.531,8.259v-4.347L38.977,61.433z"/>
<path fill="#7F7F7F" stroke="#000000" stroke-width="2" d="M113.017,61.433h-8.839l17.532,8.259v-4.347L113.017,61.433z"/>
<path fill="#B2B2B2" stroke="#000000" stroke-width="2" d="M34.776,61.433h-8.983l17.531,8.259v-4.347L34.776,61.433z"/>
<path fill="#B2B2B2" stroke="#000000" stroke-width="2" d="M108.815,61.433h-9.273l17.822,8.259v-4.347L108.815,61.433z"/>
<path fill="#E0E0E0" stroke="#000000" stroke-width="2" d="M129.389,61.433l2.318-0.579l2.028-1.449l2.028-2.607l1.739-2.898
	l1.014-3.622l1.305-4.347l0.435-4.926l0.29-5.217l-0.29-4.781l-0.435-4.926l-1.305-4.347l-1.014-3.623l-1.739-2.897l-2.028-2.608
	l-2.028-1.448l-2.318-0.58V61.433z"/>
<path fill="#E5E5E5" d="M19.272,10.577l1.738,0.58l2.464,3.767l1.159,3.188l1.159,3.623l0.579,4.347l0.58,4.926v9.998l-0.58,4.926
	l-0.579,4.347l-1.159,3.622l-2.318,5.506l-1.305,1.449l-1.738,0.579H128.81l1.448-0.579l2.898-3.768l1.159-3.188l0.869-3.622
	l0.869-4.347l0.29-4.926l0.29-4.782l-0.29-5.216l-0.29-4.926l-0.869-4.347l-0.869-3.623l-2.608-5.506l-1.449-1.448l-1.448-0.58
	H19.272z"/>
<path fill="#E5E5E5" stroke="#000000" stroke-width="2" d="M18.547,10.577l-2.753,0.29l-5.506,4.057L8.26,18.111l-2.028,3.623
	l-1.159,4.347l-0.725,4.926l-0.29,5.216l0.29,4.782l0.725,4.926l1.159,4.347l2.028,3.622l2.028,3.188l5.506,4.058l3.043,0.579
	l1.449-0.579l2.897-4.058l1.159-2.897l0.869-3.912l0.869-4.347l0.29-4.637l0.29-5.071l-0.29-5.216l-0.29-4.926l-0.869-4.347
	l-0.869-3.623l-2.608-5.506l-1.448-1.448L18.547,10.577z"/>
<path fill="#B2B2B2" d="M8.84,42.163l2.897,5.217l3.767,4.491l2.898,0.58l3.622-0.29l3.478-3.622l-1.159,5.65l-1.159,2.897
	l-1.449,2.608l-1.448,1.449l-1.449,0.579l-3.043-0.579l-2.897-1.739l-2.608-2.318L8.26,53.899l-2.028-3.622L5.073,45.93
	l-0.725-4.926l-0.29-4.782l0.29-5.216l0.725-4.926l1.015-3.188v0.58l0.145,8.403l0.869,5.071L8.84,42.163z"/>
<path fill="#B2B2B2" d="M134.316,53.32H24.922l-0.289,0.579l-1.159,3.188l-1.159,2.318l-1.305,1.449l-1.738,0.579H128.81
	l1.448-0.579l1.449-1.449l1.449-2.318l1.159-3.188V53.32z"/>
<path fill="#CCCCCC" d="M134.316,53.32H24.922l0.87-3.043l0.289-2.028h109.394l-0.29,2.028L134.316,53.32z"/>
<path fill="#CCCCCC" d="M23.184,14.344h109.393l-0.869-1.739l-1.449-1.448l-1.448-0.58H19.272l1.738,0.58l1.305,1.448L23.184,14.344
	z"/>
<path fill="none" stroke="#000000" stroke-width="2" d="M19.272,10.577l1.738,0.58l2.464,3.767l1.159,3.188l1.159,3.623l0.579,4.347
	l0.58,4.926v9.998l-0.58,4.926l-0.579,4.347l-1.159,3.622l-2.318,5.506l-1.305,1.449l-1.738,0.579H128.81l1.448-0.579l2.898-3.768
	l1.159-3.188l0.869-3.622l0.869-4.347l0.29-4.926l0.29-4.782l-0.29-5.216l-0.29-4.926l-0.869-4.347l-0.869-3.623l-2.608-5.506
	l-1.449-1.448l-1.448-0.58H19.272"/>
<path fill="#CCCCCC" stroke="#000000" stroke-width="2" d="M43.904,40.425h4.637v25.211h-4.637V40.425z"/>
<path fill="#CCCCCC" stroke="#000000" stroke-width="2" d="M117.653,40.425h4.927v25.211h-4.927V40.425z"/>
<path fill="#CCCCCC" stroke="#000000" stroke-width="2" d="M43.323,69.692h1.159v-4.057h-1.159V69.692z"/>
<path fill="#CCCCCC" stroke="#000000" stroke-width="2" d="M117.364,69.692h0.869v-4.057h-0.869V69.692z"/>
<path fill="#CCCCCC" stroke="#000000" stroke-width="2" d="M47.67,69.692h0.87v-4.057h-0.87V69.692z"/>
<path fill="#CCCCCC" stroke="#000000" stroke-width="2" d="M121.71,69.692h0.869v-4.057h-0.869V69.692z"/>
<path fill="#B2B2B2" stroke="#000000" stroke-width="2" d="M43.323,40.135l-0.289,1.159l-0.29,4.637l-0.58,4.347l-0.869,3.912
	l-1.159,2.897l-1.159,2.608l-1.448,1.449l-1.305,0.579l-1.159-0.29l8.839,3.912V40.425L43.323,40.135z"/>
<path fill="#B2B2B2" stroke="#000000" stroke-width="2" d="M117.073,40.135v1.159l-0.29,4.637l-0.869,4.347l-0.869,3.912
	l-0.87,2.897l-1.448,2.608l-1.159,1.449l-1.739,0.579l-0.724-0.29l8.548,3.912V40.425L117.073,40.135z"/>
<path fill="#FFFFFF" d="M133.736,17.242H24.633l0.289,0.869l0.58,1.449h108.813l-0.29-1.449L133.736,17.242z"/>
<path fill="#B2B2B2" stroke="#000000" stroke-width="2" d="M43.034,40.425h3.477l-5.506-29.848H35.21l1.738,0.58l1.449,1.448
	l1.159,2.318l1.159,3.188l0.869,3.623l0.869,4.347l0.58,4.926v5.216V40.425z"/>
<path fill="#B2B2B2" stroke="#000000" stroke-width="2" d="M117.073,40.425h3.478l-5.796-29.848h-5.361l1.449,0.58l1.304,1.448
	l1.449,2.318l1.159,3.188l0.869,3.623l0.869,4.347l0.29,4.926l0.29,5.216V40.425z"/>
<path fill="#E5E5E5" stroke="#000000" stroke-width="2" d="M43.614,40.425h4.927v-5.216v-5.071l-0.58-4.637l-0.579-4.202
	l-1.159-3.767l-1.159-3.188l-1.159-2.318l-1.449-1.739l-1.738-0.289h-4.927l-0.579,0.289l2.318,0.29l1.448,1.449l1.449,2.318
	l1.159,3.188l0.869,3.767l0.58,4.202l0.579,4.637l0.29,5.071L43.614,40.425z"/>
<path fill="#E5E5E5" stroke="#000000" stroke-width="2" d="M117.653,40.425h4.927v-5.216l-0.29-5.071l-0.29-4.637l-0.869-4.202
	l-0.869-3.767l-1.159-3.188l-1.449-2.318l-1.448-1.739l-1.449-0.289h-4.927l-0.435,0.289l1.884,0.29l1.739,1.449l1.158,2.318
	l1.159,3.188l0.87,3.767l0.869,4.202l0.579,4.637v5.071V40.425z"/>
<path fill="#CCCCCC" d="M64.188,10.577h21.01V7.969h-21.01V10.577z"/>
<path fill="#B2B2B2" d="M64.188,10.577h1.015V7.969h-1.015V10.577z"/>
<path fill="#B2B2B2" d="M83.458,10.577h1.739V7.969h-1.739V10.577z"/>
<path fill="#F0F0F0" d="M60.566,6.23h28.398v1.738H60.566V6.23z"/>
<path fill="#F0F0F0" d="M60.566,6.23h28.398V4.636H60.566V6.23z"/>
<path fill="#FFFFFF" d="M64.478,6.23h0.869v1.738h-0.869V6.23z"/>
<path fill="#FFFFFF" d="M64.478,6.23h0.869V4.636h-0.869V6.23z"/>
<path fill="#B2B2B2" d="M83.458,6.23h5.506v1.738h-5.506V6.23z"/>
<path fill="#B2B2B2" d="M83.458,6.23h5.506V4.636h-5.506V6.23z"/>
<path fill="#B2B2B2" d="M60.566,6.23h2.028v1.738h-2.028V6.23z"/>
<path fill="#B2B2B2" d="M60.566,6.23h2.028V4.636h-2.028V6.23z"/>
<path fill="#F0F0F0" stroke="#000000" stroke-width="2" d="M61.146,8.549h1.159v-0.58h-1.159V8.549z"/>
<path fill="#F0F0F0" stroke="#000000" stroke-width="2" d="M64.912,8.549h0.725v-0.58h-0.725V8.549z"/>
<path fill="#F0F0F0" stroke="#000000" stroke-width="2" d="M68.534,8.549h0.87v-0.58h-0.87V8.549z"/>
<path fill="#F0F0F0" stroke="#000000" stroke-width="2" d="M72.302,8.549h0.869v-0.58h-0.869V8.549z"/>
<path fill="#F0F0F0" stroke="#000000" stroke-width="2" d="M76.07,8.549h0.869v-0.58H76.07V8.549z"/>
<path fill="#F0F0F0" stroke="#000000" stroke-width="2" d="M79.402,8.549h1.159v-0.58h-1.159V8.549z"/>
<path fill="#F0F0F0" stroke="#000000" stroke-width="2" d="M83.169,8.549h1.159v-0.58h-1.159V8.549z"/>
<path fill="#F0F0F0" stroke="#000000" stroke-width="2" d="M86.936,8.549h1.159v-0.58h-1.159V8.549z"/>
<path fill="#F0F0F0" stroke="#000000" stroke-width="2" d="M61.146,4.057h1.159v0.579h-1.159V4.057z"/>
<path fill="#F0F0F0" stroke="#000000" stroke-width="2" d="M64.912,4.057h0.725v0.579h-0.725V4.057z"/>
<path fill="#F0F0F0" stroke="#000000" stroke-width="2" d="M68.534,4.057h0.87v0.579h-0.87V4.057z"/>
<path fill="#F0F0F0" stroke="#000000" stroke-width="2" d="M72.302,4.057h0.869v0.579h-0.869V4.057z"/>
<path fill="#F0F0F0" stroke="#000000" stroke-width="2" d="M76.07,4.057h0.869v0.579H76.07V4.057z"/>
<path fill="#F0F0F0" stroke="#000000" stroke-width="2" d="M79.402,4.057h1.159v0.579h-1.159V4.057z"/>
<path fill="#F0F0F0" stroke="#000000" stroke-width="2" d="M83.169,4.057h1.159v0.579h-1.159V4.057z"/>
<path fill="#F0F0F0" stroke="#000000" stroke-width="2" d="M86.936,4.057h1.159v0.579h-1.159V4.057z"/>
<path fill="none" stroke="#000000" stroke-width="2" d="M60.566,6.23h28.398v1.738H60.566V6.23"/>
<path fill="none" stroke="#000000" stroke-width="2" d="M60.566,6.23h28.398V4.636H60.566V6.23"/>
<path fill="none" stroke="#000000" stroke-width="2" d="M64.188,10.577h21.01V7.969h-21.01V10.577"/>
</svg>
