<?xml version="1.0" encoding="utf-8"?>
<!-- Generator: Adobe Illustrator 14.0.0, SVG Export Plug-In . SVG Version: 6.00 Build 43363)  -->
<!DOCTYPE svg PUBLIC "-//W3C//DTD SVG 1.1//EN" "http://www.w3.org/Graphics/SVG/1.1/DTD/svg11.dtd">
<svg version="1.1" id="图层_1" xmlns="http://www.w3.org/2000/svg" xmlns:xlink="http://www.w3.org/1999/xlink" x="0px" y="0px"
	 width="72.828px" height="106.502px" viewBox="0 0 72.828 106.502" enable-background="new 0 0 72.828 106.502"
	 xml:space="preserve">
<path stroke="#000000" stroke-width="2" d="M14.327,72.354v3.104v2.865v3.104v2.865v2.866v3.104v2.865v3.104l0.955,0.717
	l1.194,0.238l1.193-0.238l0.717-0.717V73.786L14.327,72.354z"/>
<path stroke="#000000" stroke-width="2" d="M58.501,72.354v3.104v2.865v3.104v2.865v2.866v3.104v2.865v3.104l-0.955,0.717
	l-1.193,0.238l-1.194-0.238l-0.955-0.717V73.786L58.501,72.354z"/>
<path fill="#7F7F7F" stroke="#000000" stroke-width="2" d="M69.963,60.654V8.361l-0.717-1.194l-1.91-0.955l-3.104-0.955l-4.06-0.716
	l-5.015-0.717l-5.73-0.478l-6.208-0.478H29.847L23.4,3.346l-5.73,0.478L12.655,4.54L8.596,5.256L5.492,6.211l-1.91,0.955
	L2.865,8.361v52.293l0.717,1.193l1.91,0.955l3.104,0.955l4.059,0.717l5.015,0.717l5.73,0.478l6.447,0.478h13.372l6.208-0.478
	l5.73-0.478l5.015-0.717l4.06-0.717l3.104-0.955l1.91-0.955L69.963,60.654z"/>
<path fill="#7F7F7F" stroke="#000000" stroke-width="2" d="M69.963,61.369v-0.478v-0.238l-0.717,1.193l-1.91,0.955l-3.104,0.955
	l-4.06,0.717l-5.015,0.717l-5.73,0.478l-6.208,0.478H29.847L23.4,65.668l-5.73-0.478l-5.015-0.717l-4.059-0.717l-3.104-0.955
	l-1.91-0.955l-0.717-1.193v0.716l0.955,5.015l2.149,4.298l3.343,4.06l4.06,3.343l4.775,2.865l5.73,2.149l6.209,1.193l6.446,0.478
	l6.447-0.478l6.209-1.193l5.491-2.149l4.776-2.865l4.059-3.343l3.343-4.06l2.149-4.536L69.963,61.369z"/>
<path fill="#999999" d="M64.47,60.654V8.361l-0.478-1.194l-1.671-0.955l-2.627-0.955L56.352,4.54l-4.298-0.717l-4.776-0.478
	l-5.253-0.478H30.802L25.55,3.346l-4.775,0.478l-4.06,0.717l-3.582,0.716l-2.626,0.955L8.835,7.166L8.357,8.361v52.293l0.478,1.193
	l1.672,0.955l2.626,0.955l3.582,0.717l4.06,0.717l4.775,0.478l5.253,0.478h11.223l5.253-0.478l4.776-0.478l4.298-0.717l3.343-0.717
	l2.627-0.955l1.671-0.955L64.47,60.654z"/>
<path fill="#999999" d="M64.47,61.369v-0.478v-0.238l-0.478,1.193l-1.671,0.955l-2.627,0.955l-3.343,0.717l-4.298,0.717
	l-4.776,0.478l-5.253,0.478H30.802l-5.253-0.478l-4.775-0.478l-4.06-0.717l-3.582-0.717l-2.626-0.955l-1.672-0.955l-0.478-1.193
	v0.716l0.955,5.015l1.672,4.298l2.865,4.06l3.343,3.343l4.06,2.865l4.775,2.149l5.015,1.193l5.491,0.478l5.254-0.478l5.253-1.193
	l4.537-2.149l4.059-2.865l3.582-3.343l2.627-4.06l1.91-4.536L64.47,61.369z"/>
<path fill="#B2B2B2" d="M55.158,60.654V8.361L54.68,7.166l-2.626-1.91L49.667,4.54L47.04,3.823l-3.343-0.478l-3.343-0.478h-7.642
	L29.37,3.346l-3.343,0.478L23.162,4.54l-4.06,1.671l-0.955,0.955L17.67,8.361v52.293l0.478,1.193l2.865,1.91l2.149,0.717
	l2.865,0.717l3.343,0.478l3.343,0.478h7.642l3.343-0.478l3.343-0.478l2.627-0.717l2.388-0.717l2.626-1.91L55.158,60.654z"/>
<path fill="#B2B2B2" d="M55.158,61.369v-0.478v-0.238l-0.478,1.193l-2.626,1.91l-2.388,0.717l-2.627,0.717l-3.343,0.478
	l-3.343,0.478h-7.642l-3.343-0.478l-3.343-0.478l-2.865-0.717l-4.06-1.672l-0.955-0.955l-0.478-1.193v0.716l0.717,5.015l1.193,4.298
	l1.672,4.06l2.388,3.343l2.626,2.865l3.104,2.149l3.582,1.193l3.581,0.478l3.582-0.478l3.343-1.193l3.104-2.149l2.865-2.865
	l2.149-3.343l1.91-4.06l1.193-4.536L55.158,61.369z"/>
<path fill="#CCCCCC" d="M45.845,60.654V8.361l-1.671-3.104l-2.388-1.433l-3.343-0.955h-3.821L31.28,3.823l-2.626,1.433l-1.672,3.104
	v52.293l1.672,3.104l2.626,1.434l3.343,0.955h3.821l3.343-0.955l2.388-1.434L45.845,60.654z"/>
<path fill="#CCCCCC" d="M45.845,61.369v-0.478v-0.238l-0.238,1.193l-0.478,0.955l-0.955,0.955l-1.194,0.717l-1.193,0.717
	l-1.672,0.478l-1.671,0.478h-3.821l-1.91-0.478l-1.433-0.478l-1.433-0.717l-1.193-0.717l-0.955-0.955l-0.478-0.955l-0.239-1.193
	v0.716l0.239,5.015l0.716,4.298l0.955,4.06l1.194,3.343l1.433,2.865l1.433,2.149l1.671,1.193l1.91,0.478l1.672-0.478l1.672-1.193
	l1.671-2.149l1.433-2.865l0.955-3.343l0.955-4.06l0.717-4.536L45.845,61.369z"/>
<ellipse fill="none" stroke="#000000" stroke-width="2" cx="36.295" cy="8.361" rx="33.429" ry="5.492"/>
<path fill="none" stroke="#000000" stroke-width="2" d="M69.963,60.654l-0.717,1.193l-1.91,0.955l-3.104,0.955l-4.06,0.717
	l-5.015,0.717l-5.73,0.478l-6.208,0.478h-6.687h-6.686L23.4,65.668l-5.73-0.478l-5.015-0.717l-4.059-0.717l-3.104-0.955l-1.91-0.955
	l-0.717-1.193"/>
<ellipse fill="#7F7F7F" stroke="#000000" stroke-width="2" cx="36.295" cy="8.361" rx="33.429" ry="5.492"/>
<path fill="#333333" stroke="#000000" stroke-width="2" d="M6.925,65.906v4.775v4.537v4.298v4.537v4.537v4.298v4.537v4.775
	l1.194,0.955l1.91,0.478l1.91-0.478l1.193-0.955V74.264L6.925,65.906z"/>
<path fill="#4C4C4C" d="M7.88,66.862v4.537v4.537v4.298v4.298v4.298v4.298v4.537v4.537l0.955,0.955l1.194,0.478l1.193-0.478
	l0.955-0.955V73.309L7.88,66.862z"/>
<ellipse fill="#666666" cx="10.029" cy="86.203" rx="0.955" ry="17.192"/>
<path fill="#333333" stroke="#000000" stroke-width="2" d="M65.665,65.906v4.775v4.537v4.298v4.537v4.537v4.298v4.537v4.775
	l-1.194,0.955l-1.91,0.478l-1.91-0.478l-1.193-0.955V74.264L65.665,65.906z"/>
<path fill="#4C4C4C" d="M64.71,66.862v4.537v4.537v4.298v4.298v4.298v4.298v4.537v4.537l-0.955,0.955l-1.194,0.478l-1.193-0.478
	l-0.955-0.955V73.309L64.71,66.862z"/>
<ellipse fill="#666666" cx="62.56" cy="86.203" rx="0.955" ry="17.192"/>
</svg>
