<?xml version="1.0" encoding="utf-8"?>
<!-- Generator: Adobe Illustrator 14.0.0, SVG Export Plug-In . SVG Version: 6.00 Build 43363)  -->
<!DOCTYPE svg PUBLIC "-//W3C//DTD SVG 1.1//EN" "http://www.w3.org/Graphics/SVG/1.1/DTD/svg11.dtd">
<svg version="1.1" id="图层_1" xmlns="http://www.w3.org/2000/svg" xmlns:xlink="http://www.w3.org/1999/xlink" x="0px" y="0px"
	 width="71.496px" height="106.502px" viewBox="0 0 71.496 106.502" enable-background="new 0 0 71.496 106.502"
	 xml:space="preserve">
<path fill="#7F7F7F" d="M16.754,99.777h37.989v3.842H16.754V99.777z"/>
<path fill="#B2B2B2" d="M19.422,99.777h25.29v3.842h-25.29V99.777z"/>
<path fill="#CCCCCC" d="M21.982,99.777h15.366v3.842H21.982V99.777z"/>
<path fill="#E5E5E5" d="M24.223,99.777h6.509v3.842h-6.509V99.777z"/>
<path fill="none" stroke="#000000" stroke-width="2" d="M16.754,99.777h37.989v3.842H16.754V99.777"/>
<path fill="#0000BF" d="M23.37,3.951h24.863l1.601,6.936H21.343L23.37,3.951z"/>
<path fill="#0000C9" d="M24.01,3.951h21.556l1.388,6.936h-24.65L24.01,3.951z"/>
<path fill="#0D0DD1" d="M24.436,3.951h18.354l1.28,6.936H23.156L24.436,3.951z"/>
<path fill="#3333DB" d="M25.077,3.951h15.046l0.961,6.936H24.01L25.077,3.951z"/>
<path fill="#5959E3" d="M25.718,3.951h11.631l0.854,6.936H24.864L25.718,3.951z"/>
<path fill="#7F7FED" d="M26.251,3.951h8.43l0.428,6.936h-9.391L26.251,3.951z"/>
<path fill="#A6A6F5" d="M26.891,3.951h5.015l0.214,6.936h-5.655L26.891,3.951z"/>
<path fill="#CCCCFF" d="M27.318,3.951h1.921v6.936h-1.921V3.951z"/>
<path fill="none" stroke="#000000" stroke-width="2" d="M23.37,3.951h24.863l1.601,6.936H21.343L23.37,3.951"/>
<path fill="#0000BF" d="M26.251,9.393h18.888l8.964,1.494l7.47,3.521l5.016,5.442l1.921,6.616v58.478l-1.921,6.509l-5.016,5.442
	l-7.47,3.521l-8.964,1.494H26.251l-9.177-1.494l-7.257-3.521l-5.016-5.442l-1.92-6.509V26.467l1.92-6.616l5.016-5.442l7.257-3.521
	L26.251,9.393z"/>
<path fill="#0000C4" d="M25.718,9.607h17.287l8.323,1.28l7.149,3.521l4.589,5.442l1.707,6.616v58.264l-1.707,6.723l-4.589,5.442
	l-7.149,3.521l-8.323,1.28H25.718l-8.431-1.28l-6.829-3.734L5.869,91.24l-1.707-6.51V26.467l1.707-6.616l4.589-5.229l6.829-3.735
	L25.718,9.607z"/>
<path fill="#0000CC" d="M25.291,9.607H40.87l7.79,1.28l6.402,3.735l4.482,5.442l1.387,6.402v58.264l-1.387,6.51l-4.482,5.442
	l-6.402,3.734l-7.79,1.28H25.291l-7.79-1.494l-6.403-3.521L6.936,91.24l-1.707-6.723v-57.73l1.707-6.723l4.161-5.442l6.403-3.521
	L25.291,9.607z"/>
<path fill="#0A0AD1" d="M24.65,9.821l14.192-0.214l7.257,1.494l5.868,3.521l3.735,5.442l1.494,6.723v57.943l-1.494,6.51
	l-3.735,5.442l-5.868,3.734l-7.257,1.28l-14.192-0.213l-7.149-1.494l-5.869-3.521l-3.735-5.442l-1.493-6.509v-57.73l1.493-6.723
	l3.735-5.229l5.869-3.734L24.65,9.821z"/>
<path fill="#2121D6" d="M24.01,9.821h12.912l6.51,1.28l5.229,3.521l3.521,5.442l1.494,6.723v57.943l-1.494,6.51l-3.521,5.442
	l-5.229,3.521l-6.51,1.494l-12.912-0.427l-6.188-1.28l-5.229-3.735l-3.628-5.229l-1.28-6.723v-57.41l1.28-6.616l3.628-5.442
	l5.229-3.521L24.01,9.821z"/>
<path fill="#3838DB" d="M23.583,10.033l11.312-0.213l5.869,1.28l4.589,3.734l3.308,5.229l1.174,6.723v57.73L48.66,91.24
	l-3.308,5.442l-4.589,3.521l-5.869,1.494l-11.312-0.427l-5.762-1.494l-4.695-3.521l-3.095-5.441l-1.067-6.51v-57.41l1.067-6.616
	l3.095-5.229l4.695-3.735L23.583,10.033z"/>
<path fill="#5454E3" d="M22.943,10.033l9.817-0.213l5.229,1.493l4.161,3.521l2.988,5.442l0.961,6.51v57.73l-0.961,6.509
	l-2.988,5.442l-4.161,3.734l-5.229,1.281l-9.817-0.427l-5.016-1.281l-4.162-3.734L11.097,90.6l-1.066-6.402V27.214l1.066-6.723
	l2.668-5.442l4.162-3.521L22.943,10.033z"/>
<path fill="#6B6BE8" d="M22.516,10.247l8.216-0.427l4.482,1.493l3.628,3.521l2.562,5.442l0.96,6.616v57.624l-0.96,6.509
	l-2.562,5.442l-3.628,3.521l-4.482,1.494l-8.216-0.427l-4.376-1.494l-3.734-3.521L12.165,90.6l-0.854-6.723V27.214l0.854-6.723
	l2.241-5.229l3.734-3.734L22.516,10.247z"/>
<path fill="#8282ED" d="M21.982,10.46l6.616-0.427l3.948,1.28l3.095,3.735l2.134,5.229l0.854,6.616v57.41l-0.854,6.723l-2.134,5.442
	l-3.095,3.521l-3.948,1.494l-6.616-0.641L18.14,99.35l-2.881-3.521l-2.134-5.442l-0.534-6.509V27.321l0.534-6.616l2.134-5.442
	l2.881-3.628L21.982,10.46z"/>
<path fill="#9999F2" d="M21.555,10.46l5.229-0.427l3.095,1.28l2.668,3.735l1.707,5.442l0.641,6.402v57.41l-0.641,6.723l-1.707,5.442
	l-2.668,3.521l-3.095,1.494l-5.229-0.854l-3.201-1.281L15.9,95.615l-1.708-5.229l-0.427-6.615v-56.45l0.427-6.616l1.708-5.229
	l2.454-3.842L21.555,10.46z"/>
<path fill="#B5B5FA" d="M20.915,10.46l3.735-0.427l2.561,1.494l2.028,3.521l1.493,5.442l0.641,6.723v57.09l-0.641,6.723
	l-1.493,5.229l-2.028,3.735l-2.561,1.28l-3.735-0.64l-2.561-1.494l-1.921-3.521l-1.174-5.442l-0.427-6.616V27.534l0.427-6.616
	l1.174-5.442l1.921-3.521L20.915,10.46z"/>
<path fill="#CCCCFF" d="M20.275,10.674l2.241-0.427l1.92,1.28l1.388,3.521l1.387,5.442l0.107,6.723v57.09l-0.107,6.51l-1.387,5.441
	l-1.388,3.735l-1.92,1.28l-2.241-0.854l-1.708-1.28l-1.493-3.735l-0.747-5.442l-0.214-6.402V27.534l0.214-6.51l0.747-5.336
	l1.493-3.734L20.275,10.674z"/>
<path fill="none" stroke="#000000" stroke-width="2" d="M26.251,9.393h18.888l8.964,1.494l7.47,3.521l5.016,5.442l1.921,6.616
	v58.478l-1.921,6.509l-5.016,5.442l-7.47,3.521l-8.964,1.494H26.251l-9.177-1.494l-7.257-3.521l-5.016-5.442l-1.92-6.509V26.467
	l1.92-6.616l5.016-5.442l7.257-3.521L26.251,9.393"/>
<path fill="#7F7F7F" d="M19.848,2.884h31.692v1.067H19.848V2.884z"/>
<path fill="#B2B2B2" d="M22.089,2.884h21.129v1.067H22.089V2.884z"/>
<path fill="#CCCCCC" d="M24.223,2.884h12.698v1.067H24.223V2.884z"/>
<path fill="#E5E5E5" d="M26.144,2.884h5.335v1.067h-5.335V2.884z"/>
<path fill="none" stroke="#000000" stroke-width="2" d="M19.848,2.884h31.692v1.067H19.848V2.884"/>
</svg>
