<?xml version="1.0" encoding="utf-8"?>
<!-- Generator: Adobe Illustrator 14.0.0, SVG Export Plug-In . SVG Version: 6.00 Build 43363)  -->
<!DOCTYPE svg PUBLIC "-//W3C//DTD SVG 1.1//EN" "http://www.w3.org/Graphics/SVG/1.1/DTD/svg11.dtd">
<svg version="1.1" id="图层_1" xmlns="http://www.w3.org/2000/svg" xmlns:xlink="http://www.w3.org/1999/xlink" x="0px" y="0px"
	 width="81.339px" height="106.502px" viewBox="0 0 81.339 106.502" enable-background="new 0 0 81.339 106.502"
	 xml:space="preserve">
<path fill="#999999" d="M65.881,21.217h3.624v57.14h-3.624V21.217z"/>
<path fill="#999999" d="M11.833,21.217h3.838v57.14h-3.838V21.217z"/>
<path fill="#7F7F7F" stroke="#000000" stroke-width="2" d="M63.429,70.468l1.813-1.813L17.803,23.242l-1.812,1.813L63.429,70.468z"
	/>
<path fill="#7F7F7F" stroke="#000000" stroke-width="2" d="M15.031,90.403h2.558V2.988h-2.558V90.403z"/>
<path fill="#7F7F7F" stroke="#000000" stroke-width="2" d="M9.168,94.987v-2.239l4.264-2.345h5.65l4.158,2.345v2.239H9.168z"/>
<path fill="#7F7F7F" stroke="#000000" stroke-width="2" d="M65.241,23.455l-1.813-1.599L15.991,67.27l1.812,1.813L65.241,23.455z"/>
<path fill="#7F7F7F" stroke="#000000" stroke-width="2" d="M63.855,90.403h2.559V2.988h-2.559V90.403z"/>
<path fill="#7F7F7F" stroke="#000000" stroke-width="2" d="M57.992,94.987v-2.239l4.265-2.345h5.649l4.157,2.345v2.239H57.992z"/>
<path fill="none" stroke="#000000" stroke-width="2" d="M9.168,92.747H23.24"/>
<path fill="none" stroke="#000000" stroke-width="2" d="M57.992,92.747h14.071"/>
<path fill="#7F7F7F" d="M68.013,80.168l2.238-2.238L13.219,21.004l-2.239,2.238L68.013,80.168z"/>
<path fill="#E5E5E5" d="M68.652,79.316l0.853-0.64L12.579,21.857l-0.746,0.64L68.652,79.316z"/>
<path fill="none" stroke="#000000" stroke-width="2" d="M68.013,80.168l2.238-2.238L13.219,21.004l-2.239,2.238L68.013,80.168"/>
<path fill="#7F7F7F" d="M70.251,23.242l-2.238-2.238L10.98,77.93l2.239,2.238L70.251,23.242z"/>
<path fill="#E5E5E5" d="M69.505,22.496l-0.853-0.64L11.833,78.676l0.746,0.64L69.505,22.496z"/>
<path fill="none" stroke="#000000" stroke-width="2" d="M70.251,23.242l-2.238-2.238L10.98,77.93l2.239,2.238L70.251,23.242"/>
<path fill="#7F7F7F" d="M9.808,98.185h3.198V2.988H9.808V98.185z"/>
<path fill="#7F7F7F" d="M68.439,98.185h3.091V2.988h-3.091V98.185z"/>
<path fill="#7F7F7F" d="M61.616,103.408v-2.772l4.798-2.878h7.036l4.903,2.878v2.772H61.616z"/>
<path fill="#7F7F7F" d="M2.985,103.408v-2.772l4.797-2.878h7.036l4.797,2.878v2.772H2.985z"/>
<path fill="#B2B2B2" d="M64.602,103.408v-2.772l3.305-2.878h4.157l2.985,2.878v2.772H64.602z"/>
<path fill="#B2B2B2" d="M6.183,103.408v-2.772l2.985-2.878h4.477l2.985,2.878v2.772H6.183z"/>
<path fill="#E5E5E5" d="M9.808,103.408v-2.772l0.746-2.878h1.493l0.959,2.878v2.772H9.808z"/>
<path fill="#E5E5E5" d="M68.439,103.408v-2.772l0.853-2.878h1.387l0.852,2.878v2.772H68.439z"/>
<path fill="#E5E5E5" d="M69.505,98.185h0.96V2.988h-0.96V98.185z"/>
<path fill="#E5E5E5" d="M10.767,98.185h1.066V2.988h-1.066V98.185z"/>
<path fill="none" stroke="#000000" stroke-width="2" d="M2.985,100.636h16.63"/>
<path fill="none" stroke="#000000" stroke-width="2" d="M61.616,100.636h16.737"/>
<path fill="none" stroke="#000000" stroke-width="2" d="M61.616,103.408v-2.772l4.798-2.878h7.036l4.903,2.878v2.772H61.616"/>
<path fill="none" stroke="#000000" stroke-width="2" d="M68.439,97.758h3.091V2.988h-3.091V97.758"/>
<path fill="none" stroke="#000000" stroke-width="2" d="M9.808,97.758h3.198V2.988H9.808V97.758"/>
<path fill="none" stroke="#000000" stroke-width="2" d="M2.985,103.408v-2.772l4.797-2.878h7.036l4.797,2.878v2.772H2.985"/>
</svg>
