<?xml version="1.0" encoding="utf-8"?>
<!-- Generator: Adobe Illustrator 14.0.0, SVG Export Plug-In . SVG Version: 6.00 Build 43363)  -->
<!DOCTYPE svg PUBLIC "-//W3C//DTD SVG 1.1//EN" "http://www.w3.org/Graphics/SVG/1.1/DTD/svg11.dtd">
<svg version="1.1" id="图层_1" xmlns="http://www.w3.org/2000/svg" xmlns:xlink="http://www.w3.org/1999/xlink" x="0px" y="0px"
	 width="92.232px" height="106.502px" viewBox="0 0 92.232 106.502" enable-background="new 0 0 92.232 106.502"
	 xml:space="preserve">
<path fill="#7F7F7F" d="M10.248,103.487V3.016h71.736v100.471H10.248z"/>
<path fill="#999999" d="M14.669,103.487V3.016h62.693v100.471H14.669z"/>
<path fill="#B2B2B2" d="M21.5,103.487V3.016h49.23v100.471H21.5z"/>
<path fill="#CCCCCC" d="M30.543,103.487V3.016h31.146v100.471H30.543z"/>
<path fill="#E5E5E5" d="M38.179,103.487V3.016h15.673v100.471H38.179z"/>
<path fill="#FFFFFF" d="M44.81,103.487V3.016h2.411v100.471H44.81z"/>
<path fill="none" stroke="#000000" stroke-width="2" d="M10.047,103.487V3.016h71.937v100.471H10.047"/>
<path fill="#7F7F7F" d="M3.014,15.474l0.402-2.009l3.014-2.813l2.009-0.401h4.622h70.53l2.01,0.401l3.015,2.813l0.401,2.009v4.622
	v70.933l-0.401,2.009l-3.015,2.813l-2.01,0.401h-4.622H8.439L6.43,95.851l-3.014-2.813l-0.402-2.009v-4.823V15.474z"/>
<path fill="#999999" d="M8.239,15.474l0.402-2.009l2.612-2.813l1.808-0.401h4.019h62.09l1.809,0.401l2.412,2.813l0.401,2.009v4.622
	v70.933l-0.401,2.009l-2.412,2.813l-1.809,0.401h-4.219H13.061l-1.808-0.401l-2.612-2.813l-0.402-2.009v-4.823V15.474z"/>
<path fill="#B2B2B2" d="M16.477,15.474l1.206-3.616l1.206-1.206l1.406-0.401h3.215h48.427l1.407,0.401l1.808,2.813l0.401,2.009
	v4.622v70.933l-1.205,3.616l-1.004,1.206l-1.407,0.401h-3.216H20.295l-1.406-0.401l-2.01-2.813l-0.402-2.009v-4.823V15.474z"/>
<path fill="#CCCCCC" d="M27.127,15.474l0.804-3.616l0.804-1.206l0.804-0.401h2.009h30.945l0.804,0.401l1.407,2.813l0.2,2.009v4.622
	v70.933L64.1,94.645l-0.804,1.206l-0.804,0.401h-2.01H29.539l-0.804-0.401l-1.406-2.813l-0.201-2.009v-4.823V15.474z"/>
<path fill="#E5E5E5" d="M36.571,15.474l0.402-3.616l0.402-1.206l0.402-0.401h2.009h14.468l0.401,0.401l0.603,2.813l0.201,2.009
	v4.622v70.933l-0.401,3.616l-0.402,1.206l-0.401,0.401h-2.01H37.777l-0.402-0.401l-0.603-2.813l-0.201-2.009v-4.823V15.474z"/>
<ellipse fill="#FFFFFF" cx="46.016" cy="53.251" rx="1.206" ry="43.001"/>
<path fill="none" stroke="#000000" stroke-width="2" d="M3.014,15.474l0.402-2.009l3.014-2.813l2.009-0.401h4.622h70.731
	l2.009,0.401l3.015,2.813l0.401,2.009v4.622v70.933l-0.401,2.009l-3.015,2.813l-2.009,0.401H79.17H8.439L6.43,95.851l-3.014-2.813
	l-0.402-2.009v-4.823V15.474"/>
</svg>
