<?xml version="1.0" encoding="utf-8"?>
<!-- Generator: Adobe Illustrator 14.0.0, SVG Export Plug-In . SVG Version: 6.00 Build 43363)  -->
<!DOCTYPE svg PUBLIC "-//W3C//DTD SVG 1.1//EN" "http://www.w3.org/Graphics/SVG/1.1/DTD/svg11.dtd">
<svg version="1.1" id="图层_1" xmlns="http://www.w3.org/2000/svg" xmlns:xlink="http://www.w3.org/1999/xlink" x="0px" y="0px"
	 width="64.814px" height="106.502px" viewBox="0 0 64.814 106.502" enable-background="new 0 0 64.814 106.502"
	 xml:space="preserve">
<path fill="#7F7FFF" d="M61.616,5.014l-2.025,0.532l-2.878,0.32l-3.518,0.106L48.93,6.186L43.813,6.4l-5.649,0.213h-11.62
	L21.001,6.4l-4.903-0.214l-4.371-0.213L8.101,5.866l-4.477-0.64L3.198,4.8v96.796l0.533,0.426l4.37,0.64l3.625,0.213l4.371,0.427
	h4.903l5.543,0.106h11.939l5.33-0.106l4.904-0.213l4.478-0.214l3.518-0.213l4.264-0.64l0.64-0.426V5.014z"/>
<ellipse fill="#7F7FFF" stroke="#000000" stroke-width="2" cx="32.407" cy="4.801" rx="29.423" ry="1.812"/>
<path fill="none" stroke="#000000" stroke-width="2" d="M3.625,5.44l1.812-0.213L8.101,4.8l3.519-0.213l4.478-0.213l4.903-0.214
	l5.543-0.213h5.97h5.65l5.649,0.213l5.117,0.214l4.265,0.213L56.713,4.8l2.878,0.427l1.066,0.213"/>
<path fill="#8787FF" d="M60.657,5.227l-3.731,0.64l-3.73,0.106L48.93,6.186L43.813,6.4l-5.33,0.213H26.544L21.001,6.4l-4.903-0.214
	l-4.371-0.213L8.101,5.866l-4.477-0.64L3.198,4.8v96.796l0.533,0.426l4.37,0.64l3.625,0.213l4.371,0.427h4.903l5.543,0.106h11.939
	l5.33-0.106l4.904-0.213l4.478-0.214l3.518-0.213l3.944-0.64V5.227z"/>
<path fill="#8C8CFF" d="M58.311,5.546l-1.386,0.32l-3.73,0.106L48.93,6.186L43.813,6.4l-5.33,0.213H26.544L21.001,6.4l-4.903-0.214
	l-4.371-0.213L8.101,5.866l-4.477-0.64V5.014v96.795l0.106,0.213l4.37,0.64l3.625,0.213l4.371,0.427h4.903l5.543,0.106h11.939
	l5.33-0.106l4.904-0.213l4.478-0.214l3.518-0.213l1.599-0.213V5.546z"/>
<path fill="#9494FF" d="M55.86,5.866l-2.665,0.106L48.93,6.186L43.813,6.4l-5.33,0.213H26.544L21.001,6.4l-4.903-0.214l-4.371-0.213
	L8.101,5.866L4.584,5.44v96.796l3.518,0.426l3.625,0.213l4.371,0.427h4.903l5.543,0.106h11.939l5.33-0.106l4.904-0.213l4.478-0.214
	l2.665-0.213V5.866z"/>
<path fill="#9494FF" d="M55.86,5.866l-2.665,0.106L48.93,6.186L43.813,6.4l-5.33,0.213H26.544L21.001,6.4l-4.903-0.214l-4.371-0.213
	L8.101,5.866L4.584,5.44v96.796l3.518,0.426l3.625,0.213l4.371,0.427h4.903l5.543,0.106h11.939l5.33-0.106l4.904-0.213l4.478-0.214
	l2.665-0.213V5.866z"/>
<path fill="#9494FF" d="M55.86,5.866l-2.665,0.106L48.93,6.186L43.813,6.4l-5.33,0.213H26.544L21.001,6.4l-4.903-0.214l-4.371-0.213
	L8.101,5.866L4.584,5.44v96.796l3.518,0.426l3.625,0.213l4.371,0.427h4.903l5.543,0.106h11.939l5.33-0.106l4.904-0.213l4.478-0.214
	l2.665-0.213V5.866z"/>
<path fill="#9494FF" d="M55.86,5.866l-2.665,0.106L48.93,6.186L43.813,6.4l-5.33,0.213H26.544L21.001,6.4l-4.903-0.214l-4.371-0.213
	L8.101,5.866L4.584,5.44v96.796l3.518,0.426l3.625,0.213l4.371,0.427h4.903l5.543,0.106h11.939l5.33-0.106l4.904-0.213l4.478-0.214
	l2.665-0.213V5.866z"/>
<path fill="#9C9CFF" d="M53.408,5.973h-0.213L48.93,6.186L43.813,6.4l-5.33,0.213h-5.97h-5.97L21.001,6.4l-4.903-0.214l-4.371-0.213
	L8.101,5.866L5.65,5.546v96.689l2.451,0.426l3.625,0.213l4.371,0.427h4.903l5.543,0.106h5.97h5.97l5.33-0.106l4.904-0.213
	l4.478-0.214h0.213V5.973z"/>
<path fill="#A1A1FF" d="M50.956,6.186H48.93L43.813,6.4l-5.649,0.213h-5.65h-5.97L21.001,6.4l-4.903-0.214l-4.371-0.213L8.101,5.866
	l-1.492-0.32v96.902l1.492,0.213l3.625,0.213l4.371,0.427h4.903l5.543,0.106h5.97h5.97l5.33-0.106l5.117-0.213h2.025V6.186z"/>
<path fill="#A8A8FF" d="M48.505,6.186L43.813,6.4l-5.649,0.213h-5.65h-5.97L21.001,6.4l-4.903-0.214l-4.371-0.213L8.101,5.866H7.676
	v96.795h0.426l3.625,0.213l4.371,0.427h4.903l5.543,0.106h5.97h5.97l5.33-0.106l4.691-0.213V6.186z"/>
<path fill="#B0B0FF" d="M46.052,6.4h-2.239l-5.649,0.213h-5.65h-5.97L21.001,6.4l-4.903-0.214l-4.371-0.213L8.635,5.866v96.795
	l3.092,0.213l4.371,0.427h4.903l5.543,0.106h5.97h5.97l5.33-0.106h2.239V6.4z"/>
<path fill="#B5B5FF" d="M43.6,6.4l-5.437,0.213h-5.65h-5.97L21.001,6.4l-4.903-0.214l-4.371-0.213H9.701v96.688l2.025,0.213
	l4.371,0.427h4.903l5.543,0.106h5.97h5.97l5.117-0.106V6.4z"/>
<path fill="#BDBDFF" d="M41.148,6.613h-2.984h-5.65h-5.97L21.001,6.4l-4.903-0.214l-4.371-0.213h-0.959v96.901h0.959l4.371,0.427
	h4.903l5.543,0.106h5.97h5.97l2.665-0.106V6.613z"/>
<path fill="#C2C2FF" d="M38.591,6.613h-0.427h-5.65h-5.97L21.001,6.4l-4.903-0.214l-4.371-0.213v96.901l4.371,0.427h4.903
	l5.543,0.106h5.97h5.97h0.107V6.613z"/>
<path fill="#C9C9FF" d="M36.245,6.613h-3.731h-5.97L21.001,6.4l-4.903-0.214h-3.305v96.902l3.305,0.213h4.903l5.543,0.106h5.97
	h3.731V6.613z"/>
<path fill="#D1D1FF" d="M33.686,6.613h-1.173h-5.97L21.001,6.4l-4.903-0.214h-2.239v96.902l2.239,0.213h4.903l5.543,0.106h5.97
	h1.173V6.613z"/>
<path fill="#D6D6FF" d="M31.234,6.613h-4.69L21.001,6.4l-4.903-0.214h-1.279v96.902l1.279,0.213h4.903l5.543,0.106h4.69V6.613z"/>
<path fill="#DEDEFF" d="M28.996,6.613h-2.452L21.001,6.4l-4.903-0.214h-0.214v96.902l0.214,0.213h4.903l5.543,0.106h2.452V6.613z"/>
<path fill="#E5E5FF" d="M26.544,6.613L21.001,6.4l-4.157-0.214v97.115h4.157l5.543,0.106V6.613z"/>
<path fill="#EBEBFF" d="M24.093,6.613L21.001,6.4h-2.878v96.901h2.878h3.092V6.613z"/>
<path fill="#F2F2FF" d="M21.64,6.4h-0.64h-1.813v96.901h1.813h0.64V6.4z"/>
<path fill="none" stroke="#000000" stroke-width="2" d="M61.616,5.014l-2.025,0.532l-2.878,0.32l-3.518,0.106L48.93,6.186
	L43.813,6.4l-5.649,0.213h-11.62L21.001,6.4l-4.903-0.214l-4.371-0.213L8.101,5.866l-4.477-0.64L3.198,4.8v96.796l0.533,0.426
	l4.37,0.64l3.625,0.213l4.371,0.427h4.903l5.543,0.106h11.939l5.33-0.106l4.904-0.213l4.478-0.214l3.518-0.213l4.264-0.64
	l0.64-0.426V5.014"/>
</svg>
