<?xml version="1.0" encoding="utf-8"?>
<!-- Generator: Adobe Illustrator 14.0.0, SVG Export Plug-In . SVG Version: 6.00 Build 43363)  -->
<!DOCTYPE svg PUBLIC "-//W3C//DTD SVG 1.1//EN" "http://www.w3.org/Graphics/SVG/1.1/DTD/svg11.dtd">
<svg version="1.1" id="图层_1" xmlns="http://www.w3.org/2000/svg" xmlns:xlink="http://www.w3.org/1999/xlink" x="0px" y="0px"
	 width="107.251px" height="106.502px" viewBox="0 0 107.251 106.502" enable-background="new 0 0 107.251 106.502"
	 xml:space="preserve">
<path fill="#99CC66" d="M18.269,103.491h-5.158l-4.621-1.935l-3.761-3.546l-1.72-4.621V13.113l1.72-4.621L8.49,4.838l4.621-1.827
	h5.158l4.514,1.827l3.654,3.653l1.72,4.621V93.39l-1.72,4.621l-3.654,3.546L18.269,103.491z"/>
<path fill="#A3D175" d="M17.947,102.525h-4.514l-4.405-1.827l-3.01-3.331l-1.826-4.621V13.542l1.826-4.514l3.01-3.546l4.405-1.935
	h4.514l4.299,1.935l2.901,3.546l1.935,4.514v79.203l-1.935,4.621l-2.901,3.331L17.947,102.525z"/>
<path fill="#ADD684" d="M17.624,101.879H13.54l-3.653-1.826L7.2,96.399L5.803,92.1V14.295L7.2,9.567l2.687-3.117l3.653-1.935h4.084
	l3.654,1.935l2.794,3.117l1.396,4.729V92.1l-1.396,4.299l-2.794,3.654L17.624,101.879z"/>
<path fill="#B7DB94" d="M17.302,100.912h-3.331L10.854,99.3L8.49,95.754L7.2,91.24V14.832l1.289-4.084l2.364-3.869l3.117-1.719
	h3.331l3.009,1.719l2.472,3.332l1.505,4.621V91.24l-1.505,4.514L20.311,99.3L17.302,100.912z"/>
<path fill="#C1E0A3" d="M16.98,100.483h-2.794l-2.687-1.827l-1.935-3.331L8.49,90.703V15.369l1.075-4.191l1.935-3.331l2.687-1.827
	h2.794l2.687,1.827l1.935,3.331l1.182,4.191v75.334l-1.182,4.621l-1.935,3.331L16.98,100.483z"/>
<path fill="#CBE5B2" d="M16.657,99.407h-2.042l-2.149-1.719l-1.612-3.01l-0.967-4.62V16.014l0.967-4.19l1.612-3.332l2.149-1.935
	h2.042l2.042,1.935l1.934,3.332l0.646,4.19v74.045l-0.646,4.62l-1.934,3.01L16.657,99.407z"/>
<path fill="#D7EBC2" d="M16.335,98.763H14.83l-1.72-1.72l-1.289-3.331l-0.646-4.299V16.659l0.646-4.191l1.289-3.009l1.72-1.935
	h1.505l1.934,1.935l1.075,3.009l0.645,4.191v72.754l-0.645,4.299l-1.075,3.331L16.335,98.763z"/>
<ellipse fill="#E1F0D1" cx="15.582" cy="53.198" rx="2.795" ry="44.706"/>
<ellipse fill="#EBF5E1" cx="15.582" cy="53.198" rx="1.612" ry="44.169"/>
<path fill="none" stroke="#000000" stroke-width="2" d="M18.269,103.491h-5.158l-4.621-1.935l-3.761-3.546l-1.72-4.621V13.113
	l1.72-4.621L8.49,4.838l4.621-1.827h5.158l4.514,1.827l3.654,3.653l1.72,4.621V93.39l-1.72,4.621l-3.654,3.546L18.269,103.491"/>
<path fill="#99CC66" d="M43.631,103.491h-5.266l-4.514-1.935l-3.654-3.546l-1.826-4.621V13.113l1.826-4.621l3.654-3.653l4.514-1.827
	h5.266l4.406,1.827l3.762,3.653l1.934,4.621V93.39l-1.934,4.621l-3.762,3.546L43.631,103.491z"/>
<path fill="#A3D175" d="M43.309,102.525H38.58l-4.084-1.827l-3.009-3.331l-1.935-4.621V13.542l1.935-4.514l3.009-3.546l4.084-1.935
	h4.729l4.084,1.935l3.116,3.546l1.935,4.514v79.203l-1.935,4.621l-3.116,3.331L43.309,102.525z"/>
<path fill="#ADD684" d="M42.987,101.879H39.01l-3.761-1.826l-2.688-3.654L31.058,92.1V14.295l1.504-4.729l2.688-3.117l3.761-1.935
	h3.977l3.653,1.935l2.688,3.117l1.504,4.729V92.1l-1.504,4.299l-2.688,3.654L42.987,101.879z"/>
<path fill="#B7DB94" d="M42.664,100.912h-3.332L36.216,99.3l-2.364-3.546l-1.29-4.514V14.832l1.29-4.084l2.364-3.869l3.116-1.719
	h3.332l3.009,1.719l2.364,3.332l1.612,4.621V91.24l-1.612,4.514L45.673,99.3L42.664,100.912z"/>
<path fill="#C1E0A3" d="M42.342,100.483h-2.688l-2.794-1.827l-1.719-3.331l-1.29-4.621V15.369l1.29-4.191l1.719-3.331l2.794-1.827
	h2.688l2.687,1.827l1.935,3.331l1.074,4.191v75.334l-1.074,4.621l-1.935,3.331L42.342,100.483z"/>
<path fill="#CBE5B2" d="M42.019,99.407H39.87l-2.042-1.719l-1.612-3.01l-0.967-4.62V16.014l0.967-4.19l1.612-3.332l2.042-1.935
	h2.148l2.257,1.935l1.72,3.332l0.645,4.19v74.045l-0.645,4.62l-1.72,3.01L42.019,99.407z"/>
<path fill="#D7EBC2" d="M41.697,98.763H40.3l-1.935-1.72l-1.183-3.331l-0.645-4.299V16.659l0.645-4.191l1.183-3.009L40.3,7.525
	h1.396l1.935,1.935l1.075,3.009l0.645,4.191v72.754l-0.645,4.299l-1.075,3.331L41.697,98.763z"/>
<ellipse fill="#E1F0D1" cx="41.052" cy="53.198" rx="2.901" ry="44.706"/>
<ellipse fill="#EBF5E1" cx="40.945" cy="53.198" rx="1.612" ry="44.169"/>
<path fill="none" stroke="#000000" stroke-width="2" d="M43.631,103.491h-5.266l-4.514-1.935l-3.654-3.546l-1.826-4.621V13.113
	l1.826-4.621l3.654-3.653l4.514-1.827h5.266l4.406,1.827l3.762,3.653l1.934,4.621V93.39l-1.934,4.621l-3.762,3.546L43.631,103.491"
	/>
<path fill="#99CC66" d="M68.886,103.491H63.62l-4.406-1.935l-3.762-3.546l-1.72-4.621V13.113l1.72-4.621l3.762-3.653l4.406-1.827
	h5.266L73.4,4.838l3.761,3.653l1.72,4.621V93.39l-1.72,4.621l-3.761,3.546L68.886,103.491z"/>
<path fill="#A3D175" d="M68.671,102.525h-4.514l-4.299-1.827l-3.116-3.331l-1.935-4.621V13.542l1.935-4.514l3.116-3.546l4.299-1.935
	h4.514l4.299,1.935l3.009,3.546l1.72,4.514v79.203l-1.72,4.621l-3.009,3.331L68.671,102.525z"/>
<path fill="#ADD684" d="M68.241,101.879h-3.977l-3.654-1.826l-2.687-3.654L56.42,92.1V14.295l1.504-4.729l2.687-3.117l3.654-1.935
	h3.977l3.761,1.935l2.687,3.117l1.505,4.729V92.1l-1.505,4.299l-2.687,3.654L68.241,101.879z"/>
<path fill="#B7DB94" d="M68.026,100.912h-3.331L61.578,99.3l-2.364-3.546l-1.29-4.514V14.832l1.29-4.084l2.364-3.869l3.116-1.719
	h3.331l3.01,1.719l2.364,3.332l1.611,4.621V91.24L73.4,95.754L71.035,99.3L68.026,100.912z"/>
<path fill="#C1E0A3" d="M67.703,100.483h-2.794l-2.687-1.827l-1.72-3.331l-1.289-4.621V15.369l1.289-4.191l1.72-3.331l2.687-1.827
	h2.794l2.687,1.827l1.935,3.331l1.075,4.191v75.334l-1.075,4.621l-1.935,3.331L67.703,100.483z"/>
<path fill="#CBE5B2" d="M67.381,99.407h-2.042l-2.149-1.719l-1.611-3.01l-0.968-4.62V16.014l0.968-4.19l1.611-3.332l2.149-1.935
	h2.042l2.042,1.935l1.935,3.332l0.645,4.19v74.045l-0.645,4.62l-1.935,3.01L67.381,99.407z"/>
<path fill="#D7EBC2" d="M67.059,98.763h-1.505l-1.934-1.72l-1.075-3.331l-0.645-4.299V16.659l0.645-4.191l1.075-3.009l1.934-1.935
	h1.505l1.827,1.935l1.182,3.009l0.646,4.191v72.754l-0.646,4.299l-1.182,3.331L67.059,98.763z"/>
<ellipse fill="#E1F0D1" cx="66.414" cy="53.198" rx="2.901" ry="44.706"/>
<ellipse fill="#EBF5E1" cx="66.307" cy="53.198" rx="1.611" ry="44.169"/>
<path fill="none" stroke="#000000" stroke-width="2" d="M68.886,103.491H63.62l-4.406-1.935l-3.762-3.546l-1.72-4.621V13.113
	l1.72-4.621l3.762-3.653l4.406-1.827h5.266L73.4,4.838l3.761,3.653l1.72,4.621V93.39l-1.72,4.621l-3.761,3.546L68.886,103.491"/>
<path fill="#99CC66" d="M94.14,103.491h-5.158l-4.514-1.935l-3.653-3.546l-1.72-4.621V13.113l1.72-4.621l3.653-3.653l4.514-1.827
	h5.158l4.621,1.827l3.762,3.653l1.72,4.621V93.39l-1.72,4.621l-3.762,3.546L94.14,103.491z"/>
<path fill="#A3D175" d="M93.818,102.525h-4.514l-4.298-1.827l-2.902-3.331l-1.934-4.621V13.542l1.934-4.514l2.902-3.546l4.298-1.935
	h4.514l4.406,1.935l3.009,3.546l1.827,4.514v79.203l-1.827,4.621l-3.009,3.331L93.818,102.525z"/>
<path fill="#ADD684" d="M93.71,101.879h-4.083l-3.654-1.826l-2.687-3.654L81.781,92.1V14.295l1.505-4.729l2.687-3.117l3.654-1.935
	h4.083l3.654,1.935l2.687,3.117l1.397,4.729V92.1l-1.397,4.299l-2.687,3.654L93.71,101.879z"/>
<path fill="#B7DB94" d="M93.281,100.912h-3.331L86.94,99.3l-2.472-3.546l-1.182-4.514V14.832l1.182-4.084l2.472-3.869l3.01-1.719
	h3.331l3.116,1.719l2.364,3.332l1.612,4.621V91.24l-1.612,4.514L96.397,99.3L93.281,100.912z"/>
<path fill="#C1E0A3" d="M93.066,100.483h-2.794l-2.687-1.827l-1.935-3.331l-1.183-4.621V15.369l1.183-4.191l1.935-3.331l2.687-1.827
	h2.794l2.687,1.827l1.935,3.331l1.074,4.191v75.334l-1.074,4.621l-1.935,3.331L93.066,100.483z"/>
<path fill="#CBE5B2" d="M92.636,99.407h-2.042l-2.042-1.719l-1.612-3.01l-0.967-4.62V16.014l0.967-4.19l1.612-3.332l2.042-1.935
	h2.042l2.149,1.935l1.935,3.332l0.645,4.19v74.045l-0.645,4.62l-1.935,3.01L92.636,99.407z"/>
<path fill="#D7EBC2" d="M92.421,98.763h-1.505l-1.935-1.72l-1.074-3.331l-0.645-4.299V16.659l0.645-4.191l1.074-3.009l1.935-1.935
	h1.505l1.719,1.935l1.29,3.009l0.645,4.191v72.754l-0.645,4.299l-1.29,3.331L92.421,98.763z"/>
<ellipse fill="#E1F0D1" cx="91.668" cy="53.198" rx="2.795" ry="44.706"/>
<ellipse fill="#EBF5E1" cx="91.561" cy="53.198" rx="1.612" ry="44.169"/>
<path fill="none" stroke="#000000" stroke-width="2" d="M94.14,103.491h-5.158l-4.514-1.935l-3.653-3.546l-1.72-4.621V13.113
	l1.72-4.621l3.653-3.653l4.514-1.827h5.158l4.621,1.827l3.762,3.653l1.72,4.621V93.39l-1.72,4.621l-3.762,3.546L94.14,103.491"/>
</svg>
