<?xml version="1.0" encoding="utf-8"?>
<!-- Generator: Adobe Illustrator 14.0.0, SVG Export Plug-In . SVG Version: 6.00 Build 43363)  -->
<!DOCTYPE svg PUBLIC "-//W3C//DTD SVG 1.1//EN" "http://www.w3.org/Graphics/SVG/1.1/DTD/svg11.dtd">
<svg version="1.1" id="图层_1" xmlns="http://www.w3.org/2000/svg" xmlns:xlink="http://www.w3.org/1999/xlink" x="0px" y="0px"
	 width="106.503px" height="106.502px" viewBox="0 0 106.503 106.502" enable-background="new 0 0 106.503 106.502"
	 xml:space="preserve">
<path fill="#7F7F7F" stroke="#000000" stroke-width="2" d="M103.552,90.943V36.485l-0.269-3.487l-0.805-3.22l-1.073-3.219
	l-1.878-3.22l-2.146-2.951l-2.415-2.683l-2.95-2.414l-3.22-2.414l-3.487-2.146l-4.024-2.146l-4.024-1.609l-4.292-1.341l-4.561-1.073
	l-4.829-0.805l-5.097-0.537l-5.097-0.268l-5.097,0.268l-5.097,0.537l-4.829,0.805l-4.561,1.073l-4.561,1.341l-4.024,1.609
	l-4.024,2.146l-3.488,2.146l-3.219,2.414l-2.951,2.414l-2.415,2.683l-2.146,2.951l-1.878,3.22l-1.073,3.219l-0.805,3.22
	l-0.268,3.487v54.458l0.268,1.342l1.878,2.414l4.024,2.146l2.415,1.073l2.951,1.072l3.219,0.806l3.488,0.805l4.024,0.805
	l4.024,0.536l4.561,0.537l4.561,0.536l4.829,0.269l5.097,0.268h5.097h5.097l5.097-0.268l4.829-0.269l4.561-0.536l4.292-0.537
	l4.024-0.536l4.024-0.805l3.487-0.805l3.22-0.806l2.95-1.072l2.415-1.073l4.023-2.146l1.878-2.414L103.552,90.943z"/>
<path fill="#999999" d="M95.235,90.943V36.485l-0.805-6.707l-2.414-6.438l-4.025-5.634l-5.096-4.828l-6.171-4.293l-6.976-2.95
	l-8.047-1.878l-8.317-0.805l-8.584,0.805l-7.78,1.878l-7.243,2.95l-6.17,4.293l-5.097,4.828l-4.024,5.634l-2.414,6.438l-0.805,6.707
	v54.458l0.805,2.415l2.414,2.414l4.024,2.146l5.097,1.878l6.17,1.609l7.243,1.073l7.78,0.805l8.584,0.268l8.317-0.268l8.047-0.805
	l6.976-1.073l6.171-1.609l5.096-1.878l4.025-2.146l2.414-2.414L95.235,90.943z"/>
<path fill="#B2B2B2" d="M82.626,90.943V36.485l-0.536-6.707l-1.878-6.438l-2.683-5.634l-3.487-4.828l-4.293-4.293l-5.096-2.95
	l-5.366-1.878l-5.902-0.805l-5.902,0.805L41.85,5.634l-5.097,2.95l-4.292,4.293l-3.487,4.828l-2.683,5.634l-1.877,6.438
	l-0.537,6.707v54.458l0.537,2.415l1.877,2.414l2.683,2.146l3.487,1.878l4.292,1.609l5.097,1.073l5.634,0.805l5.902,0.268
	l5.902-0.268l5.366-0.805l5.096-1.073l4.293-1.609l3.487-1.878l2.683-2.146l1.878-2.414L82.626,90.943z"/>
<path fill="#CCCCCC" d="M65.726,90.943V36.485l-0.268-6.707l-0.805-6.438l-1.074-5.634l-1.609-4.828L60.36,8.584l-2.146-2.95
	L55.8,3.756l-2.415-0.805l-2.415,0.805l-2.414,1.878l-2.146,2.95l-1.877,4.293l-1.61,4.828l-1.073,5.634l-0.805,6.438l-0.268,6.707
	v54.458l0.268,2.415l0.805,2.414l2.683,4.024l4.024,2.683l2.414,0.805l2.415,0.268l2.415-0.268l2.414-0.805l3.756-2.683l2.684-4.024
	l0.805-2.414L65.726,90.943z"/>
<path fill="none" stroke="#000000" stroke-width="2" d="M2.951,36.485l0.268,1.341l1.878,2.415l4.024,2.146l2.415,1.073l2.951,1.073
	l3.219,0.805l3.488,0.805l4.024,0.805l4.024,0.537l4.561,0.536l4.561,0.537l4.829,0.268l5.097,0.269h10.194l5.097-0.269l4.829-0.268
	l4.561-0.537l4.292-0.536l4.024-0.537l4.024-0.805l3.487-0.805l3.22-0.805l2.95-1.073l2.415-1.073l4.023-2.146l1.878-2.415
	l0.269-1.341"/>
</svg>
