<?xml version="1.0" encoding="utf-8"?>
<!-- Generator: Adobe Illustrator 14.0.0, SVG Export Plug-In . SVG Version: 6.00 Build 43363)  -->
<!DOCTYPE svg PUBLIC "-//W3C//DTD SVG 1.1//EN" "http://www.w3.org/Graphics/SVG/1.1/DTD/svg11.dtd">
<svg version="1.1" id="图层_1" xmlns="http://www.w3.org/2000/svg" xmlns:xlink="http://www.w3.org/1999/xlink" x="0px" y="0px"
	 width="67.91px" height="106.502px" viewBox="0 0 67.91 106.502" enable-background="new 0 0 67.91 106.502" xml:space="preserve">
<path fill="#7F7F7F" d="M61.088,13.113V85.5H6.717V13.113H61.088z"/>
<path fill="#999999" d="M57.676,13.113V85.5H9.915V13.113H57.676z"/>
<path fill="#B2B2B2" d="M52.132,13.113V85.5h-36.46V13.113H52.132z"/>
<path fill="#CCCCCC" d="M46.268,13.113V85.5H21.535V13.113H46.268z"/>
<path fill="#E5E5E5" d="M41.897,13.113V85.5H25.8V13.113H41.897z"/>
<path fill="#FFFFFF" d="M37.207,13.113V85.5h-6.609V13.113H37.207z"/>
<path fill="none" stroke="#000000" stroke-width="2" d="M6.717,85.5V13.113"/>
<path fill="none" stroke="#000000" stroke-width="2" d="M61.088,13.113V85.5"/>
<path fill="#B2B2B2" stroke="#000000" stroke-width="2" d="M4.904,98.187h2.879v4.584H4.904V98.187z"/>
<path fill="#B2B2B2" stroke="#000000" stroke-width="2" d="M60.021,98.187h3.092v4.584h-3.092V98.187z"/>
<path fill="#B2B2B2" stroke="#000000" stroke-width="2" d="M2.985,103.41h6.823v-0.64H2.985V103.41z"/>
<path fill="#B2B2B2" stroke="#000000" stroke-width="2" d="M58.315,103.41h6.61v-0.64h-6.61V103.41z"/>
<path fill="#7F7F7F" stroke="#000000" stroke-width="2" d="M4.904,98.187h0.64v4.584h-0.64V98.187z"/>
<path fill="#7F7F7F" stroke="#000000" stroke-width="2" d="M60.021,98.187h0.64v4.584h-0.64V98.187z"/>
<path fill="#7F7F7F" stroke="#000000" stroke-width="2" d="M2.985,103.41h1.493v-0.64H2.985V103.41z"/>
<path fill="#7F7F7F" stroke="#000000" stroke-width="2" d="M58.315,103.41h1.279v-0.64h-1.279V103.41z"/>
<path fill="#4C4C4C" stroke="#000000" stroke-width="2" d="M12.58,5.33h42.644v5.331H12.58V5.33z"/>
<path fill="#CCCCCC" stroke="#000000" stroke-width="2" d="M6.717,13.113h54.371v-1.812L49.254,7.57L34.009,5.864L18.551,7.57
	L6.717,11.301V13.113z"/>
<path fill="#7F7F7F" stroke="#000000" stroke-width="2" d="M27.185,13.113h13.433V5.97L37.74,3.838l-3.731-0.854l-3.731,0.854
	L27.185,5.97V13.113z"/>
<path fill="none" stroke="#000000" stroke-width="2" d="M59.382,13.539v72.067"/>
<path fill="none" stroke="#000000" stroke-width="2" d="M55.65,13.539v72.067"/>
<path fill="none" stroke="#000000" stroke-width="2" d="M52.132,13.539v72.067"/>
<path fill="none" stroke="#000000" stroke-width="2" d="M48.294,13.539v72.067"/>
<path fill="none" stroke="#000000" stroke-width="2" d="M44.776,13.539v72.067"/>
<path fill="none" stroke="#000000" stroke-width="2" d="M41.045,13.539v72.067"/>
<path fill="none" stroke="#000000" stroke-width="2" d="M37.526,13.539v72.067"/>
<path fill="none" stroke="#000000" stroke-width="2" d="M34.009,13.539v72.067"/>
<path fill="none" stroke="#000000" stroke-width="2" d="M30.277,13.539v72.067"/>
<path fill="none" stroke="#000000" stroke-width="2" d="M26.76,13.539v72.067"/>
<path fill="none" stroke="#000000" stroke-width="2" d="M23.028,13.539v72.067"/>
<path fill="none" stroke="#000000" stroke-width="2" d="M19.403,13.539v72.067"/>
<path fill="none" stroke="#000000" stroke-width="2" d="M15.778,13.539v72.067"/>
<path fill="none" stroke="#000000" stroke-width="2" d="M12.154,13.539v72.067"/>
<path fill="none" stroke="#000000" stroke-width="2" d="M8.423,13.539v72.067"/>
<path fill="#F0F0F0" stroke="#000000" stroke-width="2" d="M18.976,40.192H48.72v7.463H18.976V40.192z"/>
<path fill="#4C4C4C" stroke="#000000" stroke-width="2" d="M4.264,98.4l14.712,0.854h15.032H48.72L63.539,98.4V85.607H4.264V98.4z"
	/>
<path fill="none" stroke="#000000" stroke-width="2" d="M6.717,13.113h54.371v72.494H6.717V13.113"/>
<path fill="#7F7F7F" stroke="#000000" stroke-width="2" d="M6.717,13.113h54.371v-2.451H6.717V13.113z"/>
<path fill="#7F7F7F" d="M7.143,13.113h1.705v1.066H7.143V13.113z"/>
<path fill="#7F7F7F" d="M56.717,13.113h1.813v1.066h-1.813V13.113z"/>
<path fill="#7F7F7F" d="M33.156,13.113h1.492v1.066h-1.492V13.113z"/>
<path fill="#7F7F7F" d="M45.095,13.113h1.493v1.066h-1.493V13.113z"/>
<path fill="#7F7F7F" d="M20.362,13.113h1.813v1.066h-1.813V13.113z"/>
<path fill="none" stroke="#000000" stroke-width="2" d="M20.362,41.898h8.103"/>
<path fill="none" stroke="#000000" stroke-width="2" d="M32.302,41.898h13.646"/>
<path fill="none" stroke="#000000" stroke-width="2" d="M36.674,43.496h10.555"/>
<path fill="none" stroke="#000000" stroke-width="2" d="M31.13,45.522h16.312"/>
<path fill="none" stroke="#000000" stroke-width="2" d="M33.156,43.496H20.149"/>
<path fill="none" stroke="#000000" stroke-width="2" d="M27.612,45.522h-7.25"/>
</svg>
