<?xml version="1.0" encoding="utf-8"?>
<!-- Generator: Adobe Illustrator 14.0.0, SVG Export Plug-In . SVG Version: 6.00 Build 43363)  -->
<!DOCTYPE svg PUBLIC "-//W3C//DTD SVG 1.1//EN" "http://www.w3.org/Graphics/SVG/1.1/DTD/svg11.dtd">
<svg version="1.1" id="图层_1" xmlns="http://www.w3.org/2000/svg" xmlns:xlink="http://www.w3.org/1999/xlink" x="0px" y="0px"
	 width="63.324px" height="106.502px" viewBox="0 0 63.324 106.502" enable-background="new 0 0 63.324 106.502"
	 xml:space="preserve">
<path fill="#669999" d="M2.985,5.012h57.354v1.919h-2.025v30.81h2.025v2.025h-2.025v28.783h2.025v2.025h-2.025v30.81h2.025v2.025
	H2.985v-2.025H5.01v-30.81H2.985v-2.025H5.01V39.766H2.985V37.74H5.01V6.931H2.985V5.012z"/>
<path fill="#7AADAD" d="M7.463,5.012h48.399v2.025h-1.706V37.74l1.706,0.106v2.025h-1.706v28.783h1.706v1.919h-1.706v30.81h1.706
	v2.025H7.463v-2.025h1.705v-30.81H7.463v-1.919h1.705V39.872H7.463V37.74h1.705V7.037H7.463V5.012z"/>
<path fill="#8FC2C2" d="M11.94,5.012h39.444v2.025h-1.493V37.74l1.493,0.106v2.025h-1.493v28.783h1.493v1.919h-1.493v30.81h1.493
	v2.025H11.94v-2.025h1.386v-30.81H11.94v-1.919h1.386V39.872H11.94V37.74h1.386V7.037H11.94V5.012z"/>
<path fill="#A3D6D6" d="M16.418,5.012h30.383v2.025h-1.066V37.74l1.066,0.106v2.025h-1.066v28.783h1.066v1.919h-1.066v30.81h1.066
	v2.025H16.418v-2.025h1.172v-30.81h-1.172v-1.919h1.172V39.872h-1.172V37.74h1.172V7.037h-1.172V5.012z"/>
<path fill="#B8EBEB" d="M21.002,5.012h21.321v2.025h-0.747V37.74l0.747,0.106v2.025h-0.747v28.783h0.747v1.919h-0.747v30.81h0.747
	v2.025H21.002v-2.025h0.746v-30.81h-0.746v-1.919h0.746V39.872h-0.746V37.74h0.746V7.037h-0.746V5.012z"/>
<path fill="#CCFFFF" d="M25.479,5.012h12.26v1.919h-0.32v30.81h0.32v2.025h-0.32v28.783h0.32v2.025h-0.32v30.81h0.32v2.025h-12.26
	v-2.025h0.426v-30.81h-0.426v-2.025h0.426V39.766h-0.426V37.74h0.426V6.931h-0.426V5.012z"/>
<path fill="none" stroke="#000000" stroke-width="2" d="M2.985,5.012h57.354v1.919h-2.025v30.81h2.025v2.025h-2.025v28.783h2.025
	v2.025h-2.025v30.81h2.025v2.025H2.985v-2.025H5.01v-30.81H2.985v-2.025H5.01V39.766H2.985V37.74H5.01V6.931H2.985V5.012"/>
<path fill="#99CCCC" stroke="#000000" stroke-width="2" d="M2.985,2.987h57.354v2.025H2.985V2.987z"/>
<path fill="#669999" stroke="#000000" stroke-width="2" d="M2.985,5.012h57.354v1.919H2.985V5.012z"/>
<path fill="#669999" stroke="#000000" stroke-width="2" d="M2.985,101.384h57.354v2.025H2.985V101.384z"/>
<path fill="#669999" stroke="#000000" stroke-width="2" d="M2.985,37.74h57.354v2.025H2.985V37.74z"/>
<path fill="#669999" stroke="#000000" stroke-width="2" d="M2.985,68.549h57.354v2.025H2.985V68.549z"/>
</svg>
