<?xml version="1.0" encoding="utf-8"?>
<!-- Generator: Adobe Illustrator 14.0.0, SVG Export Plug-In . SVG Version: 6.00 Build 43363)  -->
<!DOCTYPE svg PUBLIC "-//W3C//DTD SVG 1.1//EN" "http://www.w3.org/Graphics/SVG/1.1/DTD/svg11.dtd">
<svg version="1.1" id="图层_1" xmlns="http://www.w3.org/2000/svg" xmlns:xlink="http://www.w3.org/1999/xlink" x="0px" y="0px"
	 width="37.634px" height="106.502px" viewBox="0 0 37.634 106.502" enable-background="new 0 0 37.634 106.502"
	 xml:space="preserve">
<path fill="#CC9933" d="M14.393,2.985h8.209v7.783h-8.209V2.985z"/>
<path fill="#DEAB45" d="M15.459,2.985h6.077v7.996h-6.077V2.985z"/>
<path fill="#EDBA54" d="M16.632,2.985h3.837v7.996h-3.837V2.985z"/>
<path fill="#FFCC66" d="M17.804,2.985h1.599v7.783h-1.599V2.985z"/>
<path fill="none" stroke="#000000" stroke-width="2" d="M14.393,2.985h8.209v7.783h-8.209V2.985"/>
<path fill="#CC9933" d="M28.678,82.622l1.813-2.665l1.387-2.985l0.852-3.198l0.32-2.559v-0.854V21.002l-0.64-3.198l-1.812-2.772
	l-2.772-2.238l-3.519-1.6l-4.051-0.746l-1.493-0.106l-1.386,0.106l-4.158,0.746l-3.518,1.6L6.93,15.031l-1.919,2.772l-0.533,2.132
	l-0.107,1.066v49.359l0.32,3.412l0.853,3.198l1.386,2.985l1.493,2.025l0.533,0.64H28.678z"/>
<path fill="#D6A33D" d="M27.08,82.622l1.706-2.665l1.172-3.092l0.641-3.306l0.213-3.411v-6.396l0.106-3.731V56.61v-5.117V50.32
	V49.04v-6.61v-4.157v-5.011v-5.757v-3.198l-0.106-3.519l-0.533-3.091l-1.492-2.772l-2.346-2.238l-2.985-1.493l-3.411-0.746
	l-1.28-0.106l-1.279,0.106l-3.518,0.746l-2.985,1.493l-2.345,2.238l-1.493,2.772L6.61,19.723v1.065v1.493v4.904v3.73v3.519v5.011
	l0.107,4.051v5.117L6.61,52.772v4.903v5.758v3.305v3.411l0.213,3.411l0.746,3.306l1.173,3.092l1.173,2.025l0.426,0.64h1.066H27.08z"
	/>
<path fill="#E0AD47" d="M25.586,82.622l1.387-2.665l1.066-3.092l0.532-3.306l0.214-1.705l0.105-0.854v-0.853v-49.36l-0.532-3.091
	l-1.279-2.772l-1.919-2.238l-2.559-1.493l-2.771-0.746l-1.067-0.106l-0.959,0.106l-2.985,0.746l-2.452,1.493l-1.919,2.238
	l-1.279,2.772l-0.32,2.025l-0.106,1.065v1.493v48.72l0.32,3.412l0.64,3.198l1.066,2.985l0.64,1.386l0.427,0.64h0.746H25.586z"/>
<path fill="#EBB852" d="M23.988,82.622l1.173-2.665l0.853-3.092l0.427-3.306l0.106-1.705l0.106-0.854v-0.853v-49.36l-0.426-3.091
	l-0.96-2.772l-2.132-2.771l-2.772-1.6l-0.746-0.106l-0.853-0.106l-0.746,0.106l-2.985,1.173l-2.346,2.559l-1.279,2.559l-0.533,2.985
	l-0.107,1.065l0.107,1.493v3.731v3.092l0.106,3.624v3.519v10.554l-0.106,3.838v4.478v5.331v2.985v3.305l-0.107,3.411l0.213,3.411
	l0.533,3.306l0.746,3.092l0.853,2.025l0.213,0.64h0.64H23.988z"/>
<path fill="#F5C25C" d="M22.602,82.622l0.853-2.665l0.533-3.092l0.319-3.306l0.107-1.705v-0.854v-0.853v-49.36l-0.213-3.091
	l-0.747-2.772l-1.492-2.771l-2.56-1.706l-0.639-0.106l-0.533,0.106l-2.666,1.706l-1.599,2.771l-0.746,2.772l-0.213,2.025v1.065
	v1.493v48.72l0.213,3.412l0.32,3.198l0.64,2.985l0.32,1.386l0.32,0.64h0.426H22.602z"/>
<path fill="#FFCC66" d="M21.215,82.622l0.533-3.412l0.214-2.984l0.213-3.306v-0.853v-0.853v-0.854V21.002l-0.106-3.198l-0.426-2.772
	l-0.961-2.878l-1.599-1.706l-0.32-0.106l-0.32,0.106l-1.919,2.346l-0.959,3.092l-0.32,2.984v1.066l-0.106,1.066v49.359l0.106,3.412
	l0.213,3.198l0.32,2.985l0.32,2.025l0.106,0.64H21.215z"/>
<path fill="none" stroke="#000000" stroke-width="2" d="M28.678,82.622l1.813-2.665l1.387-2.985l0.852-3.198l0.32-2.559v-0.854
	V21.002l-0.64-3.198l-1.812-2.772l-2.772-2.238l-3.519-1.6l-4.051-0.746l-1.493-0.106l-1.386,0.106l-4.158,0.746l-3.518,1.6
	L6.93,15.031l-1.919,2.772l-0.533,2.132l-0.107,1.066v49.359l0.32,3.412l0.853,3.198l1.386,2.985l1.493,2.025l0.533,0.64H28.678"/>
<path fill="#4C4C4C" stroke="#000000" stroke-width="2" d="M2.986,99.573l0.959-2.665l0.959-3.411l0.959-3.519l0.959-3.518
	l1.066-2.985l0.32-0.853h1.279h19.723l1.066,2.771l0.959,3.411l1.066,3.519l0.959,3.518l1.066,2.985l0.32,0.746l-0.32-0.319
	l-1.813-2.346l-1.599-2.559l-1.706-2.238l-0.746-0.214h-0.746l-2.559,2.879L23.455,98.4l-1.599,3.412l-0.427,0.959l-0.427,0.64
	h-1.066h-3.731l-1.386-2.559l-1.493-3.624l-1.706-3.412l-1.919-1.919h-0.64l-0.64,0.214l-1.706,2.238l-1.706,2.559l-1.812,2.346
	L2.986,99.573z"/>
<path fill="#333333" stroke="#000000" stroke-width="2" d="M21.215,85.821l-1.813,15.031h-1.812l-1.813-15.031H21.215z"/>
<path fill="none" stroke="#000000" stroke-width="2" d="M4.798,72.174h28.251"/>
<path fill="none" stroke="#000000" stroke-width="2" d="M4.798,19.829h28.251"/>
<path fill="none" stroke="#000000" stroke-width="2" d="M22.602,5.543h-8.209"/>
</svg>
