<?xml version="1.0" encoding="utf-8"?>
<!-- Generator: Adobe Illustrator 14.0.0, SVG Export Plug-In . SVG Version: 6.00 Build 43363)  -->
<!DOCTYPE svg PUBLIC "-//W3C//DTD SVG 1.1//EN" "http://www.w3.org/Graphics/SVG/1.1/DTD/svg11.dtd">
<svg version="1.1" id="图层_1" xmlns="http://www.w3.org/2000/svg" xmlns:xlink="http://www.w3.org/1999/xlink" x="0px" y="0px"
	 width="88.416px" height="106.502px" viewBox="0 0 88.416 106.502" enable-background="new 0 0 88.416 106.502"
	 xml:space="preserve">
<path fill="#7F7F7F" stroke="#000000" stroke-width="2" d="M85.402,73.848V9.797L85.15,9.043l-3.014-2.01L78.369,6.03l-5.023-1.005
	l-3.015-0.503l-3.266-0.251l-3.265-0.502l-3.517-0.252l-3.768-0.251h-4.02l-4.019-0.251h-4.271h-4.27l-4.02,0.251H31.9l-3.768,0.251
	l-3.517,0.252L21.35,4.271l-3.266,0.251l-3.014,0.503L10.048,6.03L6.28,7.033L3.767,8.541L3.265,9.043L3.014,9.797v64.051
	l0.251,0.754l3.015,2.01l3.768,1.004l5.023,1.005l3.014,0.503l3.266,0.251l3.266,0.502l3.517,0.252l3.768,0.251h4.019l4.02,0.251
	h4.27h4.271l4.019-0.251h4.02l3.768-0.251l3.517-0.252l3.265-0.502l3.266-0.251l3.015-0.503l5.023-1.005l3.768-1.004l2.512-1.508
	l0.502-0.502L85.402,73.848z"/>
<path fill="#7F7F7F" stroke="#000000" stroke-width="2" d="M85.402,74.853v-0.502v-0.503l-0.252,0.754l-3.014,2.01l-3.768,1.004
	l-5.023,1.005l-3.015,0.503l-3.266,0.251l-3.265,0.502l-3.517,0.252l-3.768,0.251h-4.02l-4.019,0.251h-8.54l-4.02-0.251H31.9
	l-3.768-0.251l-3.517-0.252l-3.266-0.502l-3.266-0.251l-3.014-0.503l-5.023-1.005L6.28,76.612l-2.513-1.508l-0.502-0.502
	l-0.251-0.754v0.503v0.502l0.502,3.015l0.754,3.014l1.256,2.763l1.507,2.764l1.759,2.512l2.009,2.261l2.512,2.261l2.512,2.009
	l3.015,1.759l3.015,1.507l3.265,1.507l3.517,1.005l3.768,1.005l3.769,0.754l4.019,0.251l4.019,0.251l4.02-0.251l4.019-0.251
	l3.768-0.754l3.517-1.005l3.517-1.005l3.266-1.507l3.265-1.507l2.764-2.01l2.763-2.01l2.512-2.009l2.01-2.512l1.758-2.512
	l1.508-2.513l1.256-2.763l0.753-3.014L85.402,74.853z"/>
<path fill="#999999" d="M78.369,73.848V9.797l-0.754-1.256l-2.009-1.508L72.592,6.03l-4.271-1.005l-5.023-0.754L57.52,3.517
	l-6.53-0.251l-6.782-0.251l-6.781,0.251l-6.531,0.251l-5.777,0.754l-5.274,0.754l-4.02,1.005l-3.265,1.004l-2.01,1.508L9.796,9.797
	v64.051l0.754,1.256l2.01,1.508l3.265,1.004l4.02,1.005l5.274,0.754l5.777,0.754l6.531,0.251l6.781,0.251l6.782-0.251l6.53-0.251
	l5.777-0.754l5.023-0.754l4.271-1.005l3.015-1.004l2.009-1.508L78.369,73.848z"/>
<path fill="#999999" d="M78.369,74.853v-0.502v-0.503l-0.754,1.256l-2.009,1.508l-3.015,1.004l-4.271,1.005l-5.023,0.754
	l-5.777,0.754l-6.53,0.251l-6.782,0.251l-6.781-0.251l-6.531-0.251l-5.777-0.754l-5.274-0.754l-4.02-1.005l-3.265-1.004l-2.01-1.508
	l-0.754-1.256v1.005l1.005,6.028l2.261,5.526l3.266,4.772l4.27,4.27l5.024,3.266l5.777,2.512l6.279,1.759l6.53,0.502l6.531-0.502
	l6.279-1.759l5.777-2.512l5.023-3.517l4.271-4.019l3.265-5.023l2.01-5.275L78.369,74.853z"/>
<path fill="#B2B2B2" d="M67.065,73.848V9.797l-1.758-2.764L63.047,6.03l-2.763-1.005l-3.266-0.754L53,3.517l-4.271-0.251
	l-4.521-0.251l-4.521,0.251l-4.27,0.251l-4.019,0.754l-3.266,0.754L25.369,6.03l-2.26,1.004L21.35,9.797v64.051l1.759,2.764
	l2.26,1.004l2.764,1.005l3.266,0.754l4.019,0.754l4.27,0.251l4.521,0.251l4.521-0.251L53,80.128l4.019-0.754l3.266-0.754
	l2.763-1.005l2.261-1.004L67.065,73.848z"/>
<path fill="#B2B2B2" d="M67.065,74.853v-0.502v-0.503l-1.758,2.764l-2.261,1.004l-2.763,1.005l-3.266,0.754L53,80.128l-4.271,0.251
	l-4.521,0.251l-4.521-0.251l-4.27-0.251l-4.019-0.754l-3.266-0.754l-2.764-1.005l-2.26-1.004l-1.759-2.764v1.005l0.754,6.028
	l1.507,5.526l2.01,4.772l3.014,4.27l3.266,3.266l3.768,2.512l4.019,1.759l4.521,0.502l4.521-0.502l4.019-1.759l3.769-2.512
	l3.265-3.517l3.015-4.019l2.009-5.023l1.508-5.275L67.065,74.853z"/>
<path fill="#CCCCCC" d="M55.511,73.848V9.797l-1.005-2.764l-2.261-2.009l-3.517-1.508l-4.521-0.502l-4.521,0.502l-3.516,1.508
	l-2.513,2.009l-1.004,2.764v64.051l1.004,2.764l2.513,2.009l3.516,1.508l4.521,0.502l4.521-0.502l3.517-1.508l2.261-2.009
	L55.511,73.848z"/>
<path fill="#CCCCCC" d="M55.511,74.853v-0.502v-0.503l-0.252,1.256l-0.753,1.508l-1.005,1.004l-1.256,1.005l-1.759,0.754
	l-1.758,0.754l-2.261,0.251l-2.261,0.251l-2.261-0.251l-2.261-0.251l-2.009-0.754l-1.507-0.754l-1.508-1.005l-1.005-1.004
	l-0.753-1.508l-0.251-1.256v1.005l0.502,6.028l0.754,5.526l1.004,4.772l1.508,4.27l1.507,3.266l2.01,2.512l2.009,1.759l2.261,0.502
	l2.261-0.502l2.01-1.759l2.009-2.512l1.508-3.517l1.507-4.019l1.005-5.023l0.753-5.275L55.511,74.853z"/>
<ellipse fill="none" stroke="#000000" stroke-width="2" cx="44.208" cy="9.797" rx="41.194" ry="6.782"/>
<path fill="none" stroke="#000000" stroke-width="2" d="M85.402,73.848l-0.252,0.754l-3.014,2.01l-3.768,1.004l-5.023,1.005
	l-3.015,0.503l-3.266,0.251l-3.265,0.502l-3.517,0.252l-3.768,0.251h-4.02l-4.019,0.251h-8.54l-4.02-0.251H31.9l-3.768-0.251
	l-3.517-0.252l-3.266-0.502l-3.266-0.251l-3.014-0.503l-5.023-1.005L6.28,76.612l-2.513-1.508l-0.502-0.502l-0.251-0.754"/>
<ellipse fill="#7F7F7F" stroke="#000000" stroke-width="2" cx="44.208" cy="9.797" rx="41.194" ry="6.782"/>
<path fill="#7F7F7F" stroke="#000000" stroke-width="2" d="M65.558,72.592l2.763-0.502l2.261-1.507l1.508-2.261l0.502-2.764
	l-0.502-2.763l-1.508-2.01l-2.261-1.507l-2.763-0.502l-20.597,6.781L65.558,72.592z"/>
<path fill="#999999" d="M65.558,71.587l2.763-0.502l2.261-1.256l1.508-2.01l0.502-2.261l-0.502-2.261l-1.508-1.758l-2.261-1.256
	l-2.763-0.503l-20.597,5.777L65.558,71.587z"/>
<path fill="#B2B2B2" d="M65.558,69.075l2.763-0.251l2.261-0.754l1.508-1.004l0.502-1.508l-0.502-1.256l-1.508-1.005l-2.261-0.753
	l-2.763-0.251l-20.597,3.265L65.558,69.075z"/>
<path fill="#7F7F7F" stroke="#000000" stroke-width="2" d="M24.113,72.592L21.35,72.09l-2.261-1.507l-1.507-2.261l-0.502-2.764
	l0.502-2.763l1.507-2.01l2.261-1.507l2.763-0.502l20.849,6.781L24.113,72.592z"/>
<path fill="#999999" d="M24.113,71.587l-2.763-0.502l-2.261-1.256l-1.507-2.01l-0.502-2.261l0.502-2.261l1.507-1.758l2.261-1.256
	l2.763-0.503l20.849,5.777L24.113,71.587z"/>
<path fill="#B2B2B2" d="M24.113,69.075l-2.763-0.251l-2.261-0.754l-1.507-1.004l-0.502-1.508l0.502-1.256l1.507-1.005l2.261-0.753
	l2.763-0.251l20.849,3.265L24.113,69.075z"/>
<path fill="#7F7F7F" stroke="#000000" stroke-width="2" d="M47.975,62.294V17.081h-6.279v45.213l-0.502,0.753l-0.503,0.754
	l-0.251,0.753l-0.251,1.005l0.251,2.01l1.005,1.507l1.507,1.005l2.01,0.251l1.758-0.251l1.508-1.005l1.004-1.507l0.252-2.01v-1.005
	l-0.252-0.753l-0.502-0.754L47.975,62.294z"/>
<path fill="#999999" d="M47.473,62.042V17.834h-5.274v44.208l-0.503,0.754l-0.502,0.754l-0.251,0.753v0.754l0.251,1.507l1.005,1.256
	l1.256,1.005l1.507,0.251l1.507-0.251l1.256-1.005l1.005-1.256l0.251-1.507v-0.754l-0.251-0.753l-0.502-0.754L47.473,62.042z"/>
<path fill="#B2B2B2" d="M46.971,62.042V18.337h-4.271v43.705l-0.251,0.503l-0.503,0.502l-0.251,0.503v0.753l0.251,1.256l0.754,1.005
	l1.005,0.503l1.256,0.251l1.256-0.251l1.005-0.503l0.502-1.005l0.251-1.256V63.55l-0.251-0.503l-0.251-0.502L46.971,62.042z"/>
</svg>
