<?xml version="1.0" encoding="utf-8"?>
<!-- Generator: Adobe Illustrator 14.0.0, SVG Export Plug-In . SVG Version: 6.00 Build 43363)  -->
<!DOCTYPE svg PUBLIC "-//W3C//DTD SVG 1.1//EN" "http://www.w3.org/Graphics/SVG/1.1/DTD/svg11.dtd">
<svg version="1.1" id="图层_1" xmlns="http://www.w3.org/2000/svg" xmlns:xlink="http://www.w3.org/1999/xlink" x="0px" y="0px"
	 width="106.503px" height="106.502px" viewBox="0 0 106.503 106.502" enable-background="new 0 0 106.503 106.502"
	 xml:space="preserve">
<path fill="#7F7F7F" d="M3.014,9.243L4.22,6.029l2.813-2.411l1.206-0.402l1.206-0.201h5.426h82.188l3.416,1.206l2.412,2.813
	l0.401,1.005l0.201,1.205v5.426v82.59l-1.206,3.215l-2.813,2.411l-1.206,0.402l-1.206,0.201h-5.426H9.444l-3.416-1.206l-2.411-2.813
	l-0.402-1.005l-0.201-1.205v-5.426V9.243z"/>
<path fill="#999999" d="M9.244,9.243l1.005-3.215l2.411-2.411l1.005-0.402l1.005-0.201h4.823h72.341l3.015,1.206l2.009,2.813
	l0.201,1.005l0.201,1.205v5.426v82.59l-1.005,3.215l-2.411,2.411l-1.005,0.402l-1.005,0.201h-4.822H14.669l-3.015-1.206
	l-2.009-2.813l-0.201-1.005l-0.201-1.205v-5.426V9.243z"/>
<path fill="#B2B2B2" d="M18.688,9.243V8.038l1.407-3.015l2.21-1.809l0.804-0.201h3.818h56.466l2.411,1.206l1.607,2.813l0.402,1.005
	v1.205v89.221l-1.407,3.015l-2.21,1.809l-0.804,0.201h-3.818H23.109l-2.411-1.206l-1.608-2.813l-0.402-1.005v-1.205V9.243z"/>
<path fill="#CCCCCC" d="M31.147,9.243l0.603-3.215l1.206-2.411l0.402-0.402l0.603-0.201h2.412h36.17l0.604,0.201l1.607,2.813
	l0.401,1.005l0.201,1.005v1.205v89.221l-0.804,3.015l-1.406,1.809l-0.604,0.201h-2.411H33.96l-0.603-0.201l-1.607-2.813
	l-0.402-1.005l-0.201-1.005v-1.205V9.243z"/>
<path fill="#E5E5E5" d="M42.199,9.243L42.4,6.029l1.005-2.813l0.201-0.201h2.412h16.879l1.206,3.015v1.005l0.201,1.005v1.205v89.221
	l-0.402,3.015l-0.804,1.809l-0.201,0.201h-2.411h-16.88l-1.206-3.015v-1.005l-0.201-1.005v-1.205V9.243z"/>
<path fill="#FFFFFF" d="M51.644,9.243V8.038V7.033V6.029l0.201-2.813V3.014h0.804h2.009V4.22l0.201,0.804v1.005v95.45l-0.201,1.809
	v0.201h-0.803h-2.01l-0.201-3.015V9.243z"/>
<path fill="none" stroke="#000000" stroke-width="2" d="M3.014,9.243L4.22,6.029l2.813-2.411l1.005-0.402l1.206-0.201h5.426h82.589
	l3.215,1.206l2.412,2.813l0.401,1.005l0.201,1.205v5.426v82.59l-1.206,3.215l-2.813,2.411l-1.006,0.402l-1.205,0.201h-5.426H9.244
	l-3.215-1.206l-2.411-2.813l-0.402-1.005l-0.201-1.205v-5.426V9.243"/>
</svg>
