<?xml version="1.0" encoding="utf-8"?>
<!-- Generator: Adobe Illustrator 14.0.0, SVG Export Plug-In . SVG Version: 6.00 Build 43363)  -->
<!DOCTYPE svg PUBLIC "-//W3C//DTD SVG 1.1//EN" "http://www.w3.org/Graphics/SVG/1.1/DTD/svg11.dtd">
<svg version="1.1" id="图层_1" xmlns="http://www.w3.org/2000/svg" xmlns:xlink="http://www.w3.org/1999/xlink" x="0px" y="0px"
	 width="109.814px" height="106.502px" viewBox="0 0 109.814 106.502" enable-background="new 0 0 109.814 106.502"
	 xml:space="preserve">
<path fill="#4C4C4C" d="M96.969,103.393l3.314-6.423V12.848l-3.314-6.631h3.314l6.424,6.631V96.97l-6.424,6.423H96.969z"/>
<path fill="#7F7F7F" d="M12.846,103.393L9.531,96.97V12.848l3.315-6.631H9.531l-6.423,6.631V96.97l6.423,6.423H12.846z"/>
<path fill="#7F7F7F" d="M80.806,103.393l3.108-6.423V12.848l-3.108-6.631h8.081l3.315,6.631V96.97l-3.315,6.423H80.806z"/>
<path fill="#666666" d="M88.887,103.393l3.315-6.423V12.848l-3.315-6.631h8.081l3.314,6.631V96.97l-3.314,6.423H88.887z"/>
<path fill="#999999" d="M20.927,103.393l-3.314-6.423V12.848l3.314-6.631h-8.08l-3.315,6.631V96.97l3.315,6.423H20.927z"/>
<path fill="#999999" d="M72.726,103.393l3.107-6.423V12.848l-3.107-6.631h8.08l3.315,6.631V96.97l-3.315,6.423H72.726z"/>
<path fill="#B2B2B2" d="M29.008,103.393l-3.315-6.423V12.848l3.315-6.631h-8.081l-3.314,6.631V96.97l3.314,6.423H29.008z"/>
<path fill="#B2B2B2" d="M65.474,103.393l2.279-6.423V12.848l-2.279-6.631h7.252l3.315,6.631V96.97l-3.315,6.423H65.474z"/>
<path fill="#CCCCCC" d="M37.089,103.393l-3.315-6.423V12.848l3.315-6.631h-8.081l-3.315,6.631V96.97l3.315,6.423H37.089z"/>
<path fill="#CCCCCC" d="M58.222,103.393l1.45-6.423V12.848l-1.45-6.631h7.252l2.486,6.631V96.97l-2.486,6.423H58.222z"/>
<path fill="#E5E5E5" d="M44.341,103.393l-2.486-6.423V12.848l2.486-6.631h-7.252l-3.315,6.631V96.97l3.315,6.423H44.341z"/>
<path fill="#E5E5E5" d="M51.593,103.393l-1.658-6.423V12.848l1.658-6.631h6.63l1.45,6.631V96.97l-1.45,6.423H51.593z"/>
<path fill="#FFFFFF" d="M51.593,103.393l-1.658-6.423V12.848l1.658-6.631h-7.252l-2.486,6.631V96.97l2.486,6.423H51.593z"/>
<path fill="#7F7F7F" d="M80.806,6.217L54.907,3.11l45.376,3.107H80.806z"/>
<path fill="#B2B2B2" d="M54.907,3.11l6.423,3.107h19.477L54.907,3.11z"/>
<path fill="#E5E5E5" d="M54.907,3.11L43.511,6.217H61.33L54.907,3.11z"/>
<path fill="#CCCCCC" d="M43.511,6.217L54.907,3.11L27.35,6.217H43.511z"/>
<path fill="#B2B2B2" d="M54.907,3.11L27.35,6.217H9.531L54.907,3.11z"/>
<path fill="none" stroke="#000000" stroke-width="2" d="M9.531,6.217h90.752L54.907,3.11L9.531,6.217"/>
<path fill="none" stroke="#000000" stroke-width="2" d="M3.108,96.97l6.423,6.423h90.752l6.424-6.423V12.848l-6.424-6.631H9.531
	l-6.423,6.631V96.97"/>
<path fill="none" stroke="#B2B2B2" stroke-width="2" d="M106.707,94.484l-0.208,0.414l-3.729,1.243l-4.765,0.622l-3.108,0.414
	l-3.315,0.207l-3.522,0.207l-3.937,0.415l-4.351,0.207H75.42l-4.766,0.207l-4.973,0.207h-20.72l-4.973-0.207l-4.766-0.207h-4.351
	l-4.352-0.207l-3.937-0.415l-3.522-0.207l-3.315-0.207l-3.107-0.414l-4.766-0.622l-2.901-0.829l-0.828-0.414l-0.208-0.414"/>
<path fill="none" stroke="#B2B2B2" stroke-width="2" d="M106.707,15.127l-0.208-0.415l-3.729-1.243l-4.765-0.621l-3.108-0.207
	l-3.315-0.415l-3.522-0.207l-3.937-0.207l-4.351-0.207l-4.352-0.207h-4.766l-4.973-0.207h-20.72l-4.973,0.207h-4.766l-4.351,0.207
	l-4.352,0.207l-3.937,0.207l-3.522,0.207l-3.315,0.415l-3.107,0.207l-4.766,0.621l-2.901,0.829l-0.828,0.414l-0.208,0.415"/>
</svg>
