<?xml version="1.0" encoding="utf-8"?>
<!-- Generator: Adobe Illustrator 14.0.0, SVG Export Plug-In . SVG Version: 6.00 Build 43363)  -->
<!DOCTYPE svg PUBLIC "-//W3C//DTD SVG 1.1//EN" "http://www.w3.org/Graphics/SVG/1.1/DTD/svg11.dtd">
<svg version="1.1" id="图层_1" xmlns="http://www.w3.org/2000/svg" xmlns:xlink="http://www.w3.org/1999/xlink" x="0px" y="0px"
	 width="144.749px" height="73.742px" viewBox="0 0 144.749 73.742" enable-background="new 0 0 144.749 73.742"
	 xml:space="preserve">
<path fill="#336666" stroke="#000000" stroke-width="2" d="M50.799,7.648h22.668v7.374H50.799V7.648z"/>
<path fill="#4C7F7F" d="M52.984,7.648h18.298v7.374H52.984V7.648z"/>
<path fill="#669999" d="M56.534,7.648h11.197v7.374H56.534V7.648z"/>
<path fill="#99CCCC" d="M60.904,7.648h2.458v7.374h-2.458V7.648z"/>
<path fill="#194C4C" stroke="#000000" stroke-width="2" d="M131.64,69.645H13.11l-1.912-0.547l-3.004-4.096l-1.366-3.277
	l-1.092-4.098l-0.819-4.643l-0.547-5.188l-0.272-5.462l0.272-5.463l0.547-5.189l0.819-4.643l1.092-4.097l1.366-3.277l3.004-4.097
	l1.912-0.546h118.53l1.911,0.546l3.005,4.097l1.365,3.277l1.093,4.097l0.819,4.643l0.546,5.189l0.273,5.463l-0.273,5.462
	l-0.546,5.188l-0.819,4.643l-1.093,4.098l-1.365,3.277l-3.005,4.096L131.64,69.645z"/>
<path fill="#336666" d="M131.64,67.459H13.11l-1.912-0.545l-1.639-1.366l-2.731-5.462l-1.092-3.551l-0.819-4.369l-0.547-4.644
	l-0.272-5.188l0.272-5.189l0.547-4.643l0.819-4.37l1.092-3.551l2.731-5.462l1.639-1.366l1.912-0.546h118.53l1.911,0.546l1.639,1.366
	l2.731,5.462l1.093,3.551l0.819,4.37l0.546,4.643l0.273,5.189l-0.273,5.188l-0.546,4.644l-0.819,4.369l-1.093,3.551l-2.731,5.462
	l-1.639,1.366L131.64,67.459z"/>
<path fill="#4C7F7F" d="M131.64,63.909H13.11l-3.551-1.639l-2.731-4.644L5.736,54.35L4.916,50.8l-0.547-4.097l-0.272-4.369
	l0.272-4.37l0.547-4.097l0.819-3.551l2.458-6.008l1.365-1.912l3.551-1.639h118.53l3.55,1.639l2.731,4.643l1.093,3.277l0.819,3.551
	l0.546,4.097l0.273,4.37l-0.273,4.369l-0.546,4.097l-0.819,3.55l-2.458,6.01l-1.366,1.911L131.64,63.909z"/>
<path fill="#669999" d="M131.64,58.174H13.11L11.198,57.9l-3.004-2.457l-2.458-4.37l-1.366-5.462l-0.272-3.277l0.819-6.282
	l1.911-4.916l2.731-3.277l1.639-1.092l1.912-0.273h118.53l1.911,0.273l3.005,2.458l2.458,4.37l1.365,5.463l0.273,3.277l-0.819,6.281
	l-1.912,4.916l-2.731,3.277l-1.639,1.092L131.64,58.174z"/>
<path fill="#7FB2B2" d="M131.64,51.346H13.11l-3.551-0.818L5.736,47.25l-1.639-4.916l0.819-3.551l3.277-3.824l4.916-1.639h118.53
	l3.55,0.819l3.824,3.278l1.639,4.916l-0.819,3.55l-3.277,3.823L131.64,51.346z"/>
<ellipse fill="#99CCCC" cx="72.374" cy="42.333" rx="68.278" ry="2.185"/>
<path fill="none" stroke="#000000" stroke-width="2" d="M13.11,15.022v54.622"/>
<path fill="none" stroke="#000000" stroke-width="2" d="M131.64,15.022v54.622"/>
<path fill="#336666" d="M47.248,4.098h29.769v3.551H47.248V4.098z"/>
<path fill="#4C7F7F" d="M50.252,4.098h23.761v3.551H50.252V4.098z"/>
<path fill="#669999" d="M54.622,4.098h15.021v3.551H54.622V4.098z"/>
<path fill="#99CCCC" d="M60.631,4.098h3.004v3.551h-3.004V4.098z"/>
<path fill="none" stroke="#000000" stroke-width="2" d="M47.248,4.098h29.769v3.551H47.248V4.098"/>
</svg>
