<?xml version="1.0" encoding="utf-8"?>
<!-- Generator: Adobe Illustrator 14.0.0, SVG Export Plug-In . SVG Version: 6.00 Build 43363)  -->
<!DOCTYPE svg PUBLIC "-//W3C//DTD SVG 1.1//EN" "http://www.w3.org/Graphics/SVG/1.1/DTD/svg11.dtd">
<svg version="1.1" id="图层_1" xmlns="http://www.w3.org/2000/svg" xmlns:xlink="http://www.w3.org/1999/xlink" x="0px" y="0px"
	 width="77.565px" height="106.502px" viewBox="0 0 77.565 106.502" enable-background="new 0 0 77.565 106.502"
	 xml:space="preserve">
<path fill="#7F7F7F" stroke="#000000" stroke-width="2" d="M31.95,4.823l6.832-1.808l6.833,1.808H31.95z"/>
<path fill="#B2B2B2" d="M34.563,4.823l4.22-1.808l4.221,1.808H34.563z"/>
<path fill="#E5E5E5" d="M37.577,4.823l1.205-1.808l1.206,1.808H37.577z"/>
<path fill="#7F7F7F" stroke="#000000" stroke-width="2" d="M58.476,81.384h8.439v20.496h-8.439V81.384z"/>
<path fill="#B2B2B2" d="M59.882,81.384h5.426v20.496h-5.426V81.384z"/>
<path fill="#E5E5E5" d="M61.892,81.384h1.406v20.496h-1.406V81.384z"/>
<path fill="#7F7F7F" stroke="#000000" stroke-width="2" d="M10.651,81.384h8.641v20.496h-8.641V81.384z"/>
<path fill="#B2B2B2" d="M12.258,81.384h5.426v20.496h-5.426V81.384z"/>
<path fill="#E5E5E5" d="M14.267,81.384h1.407v20.496h-1.407V81.384z"/>
<path fill="#A6A6A6" d="M4.823,20.095l0.201-3.617l1.005-2.813l1.205-2.411l3.818-3.215l4.622-1.407l2.612-0.2h2.612H59.28
	l5.023,0.603l2.211,1.005l2.21,1.406l1.607,1.809l1.407,2.411l0.804,2.813l0.401,3.617v3.416v51.041l-0.401,3.616l-0.804,2.813
	l-1.407,2.411l-1.607,1.809l-2.21,1.407l-4.622,1.406l-2.612,0.201h-2.612H18.286l-5.023-0.603l-4.221-2.412l-1.809-1.809
	l-1.205-2.411l-1.005-2.813l-0.201-3.616v-3.416V20.095z"/>
<path fill="#B2B2B2" d="M8.239,20.095l0.201-3.617l0.804-2.813l1.206-2.411l3.416-3.215l4.22-1.407l2.411-0.2h2.211H57.27
	l4.421,0.603l4.02,2.411l1.607,1.809l1.205,2.411l0.804,2.813l0.201,3.617v3.416v51.041l-0.201,3.616l-0.804,2.813l-1.205,2.411
	L63.7,86.609l-4.22,1.406l-2.211,0.201h-2.21H20.496l-4.621-0.603l-3.818-2.412l-1.607-1.809l-1.206-2.411L8.44,78.168l-0.201-3.616
	v-3.416V20.095z"/>
<path fill="#BFBFBF" d="M13.263,20.095l0.2-3.617l0.604-2.813l1.004-2.411l2.813-3.215l3.617-1.407l2.01-0.2h3.817h26.727
	l3.817,0.603l3.216,2.411l1.406,1.809l1.005,2.411l0.603,2.813l0.201,3.617v3.416v51.041l-0.201,3.616l-0.603,2.813l-1.005,2.411
	l-2.813,3.216l-3.616,1.406l-2.01,0.201h-3.818H23.511l-3.818-0.603l-3.215-2.412l-1.407-1.809l-1.004-2.411l-0.604-2.813
	l-0.2-3.616v-3.416V20.095z"/>
<path fill="#CCCCCC" d="M20.095,20.095l0.201-3.617l0.401-2.813l1.607-4.22l2.411-2.411l1.407-0.402l1.406-0.2h2.813h19.692
	l2.813,0.603l2.411,2.411l1.608,4.22l0.401,2.813l0.201,3.617v3.416v51.041l-0.201,3.616l-0.401,2.813l-1.608,4.22l-2.411,2.412
	l-1.406,0.401l-1.407,0.201h-2.813H27.53l-2.813-0.603l-2.411-2.412l-1.607-4.22l-0.401-2.813l-0.201-3.616v-3.416V20.095z"/>
<path fill="#D9D9D9" d="M28.534,20.095v-3.617l0.402-2.813l0.804-4.22l1.406-2.411l0.804-0.402l0.804-0.2h1.607h10.65l2.211,1.607
	l1.005,3.215l0.401,2.411l0.402,2.813v3.617v58.073l-0.402,2.813l-0.804,4.22l-1.406,2.412l-0.604,0.401l-0.804,0.201h-1.607h-10.65
	l-1.607-0.603l-1.406-2.412l-0.804-4.22l-0.402-2.813v-3.616V20.095z"/>
<path fill="#E5E5E5" d="M35.366,20.095v-3.617l0.201-2.813l0.201-4.22l0.804-2.813l0.201-0.2h1.004h3.015l0.603,0.603l0.604,4.22
	v2.411l0.2,2.813v3.617v58.073l-0.2,2.813l-0.201,4.22l-0.402,2.412l-0.401,0.401l-0.201,0.201h-1.005h-3.014l-1.005-3.015
	l-0.201-4.22l-0.201-2.813v-3.616V20.095z"/>
<path fill="none" stroke="#000000" stroke-width="2" d="M4.823,20.095l0.201-3.617l1.005-2.813l1.205-2.411l3.818-3.215l4.622-1.407
	l2.612-0.2h2.612H59.28l5.023,0.603l2.211,1.005l2.21,1.406l1.607,1.809l1.407,2.411l0.804,2.813l0.401,3.617v3.416v51.041
	l-0.401,3.616l-0.804,2.813l-1.407,2.411l-1.607,1.809l-2.21,1.407l-4.622,1.406l-2.612,0.201h-2.612H18.286l-5.023-0.603
	l-4.221-2.412l-1.809-1.809l-1.205-2.411l-1.005-2.813l-0.201-3.616v-3.416V20.095"/>
<path fill="none" stroke="#7F7F7F" stroke-width="2" d="M4.823,18.286h68.121"/>
<path fill="none" stroke="#7F7F7F" stroke-width="2" d="M8.239,11.454h61.289"/>
<path fill="#999999" stroke="#000000" stroke-width="2" d="M3.014,36.171h71.537v1.004H3.014V36.171z"/>
<path fill="#7F7F7F" stroke="#000000" stroke-width="2" d="M8.239,103.488h13.464v-1.607H8.239V103.488z"/>
<path fill="#B2B2B2" d="M10.651,103.488h8.641v-1.607h-8.641V103.488z"/>
<path fill="#E5E5E5" d="M13.664,103.488h2.411v-1.607h-2.411V103.488z"/>
<path fill="#7F7F7F" stroke="#000000" stroke-width="2" d="M55.864,103.488h13.664v-1.607H55.864V103.488z"/>
<path fill="#B2B2B2" d="M58.476,103.488h8.439v-1.607h-8.439V103.488z"/>
<path fill="#E5E5E5" d="M61.49,103.488h2.412v-1.607H61.49V103.488z"/>
<path fill="#7F7F7F" stroke="#000000" stroke-width="2" d="M31.95,7.235h13.665V4.823H31.95V7.235z"/>
<path fill="#B2B2B2" d="M34.563,7.235h8.44V4.823h-8.44V7.235z"/>
<path fill="#E5E5E5" d="M37.577,7.235h2.411V4.823h-2.411V7.235z"/>
<path fill="none" stroke="#000000" stroke-width="2" d="M31.95,6.029h13.665"/>
</svg>
