<?xml version="1.0" encoding="utf-8"?>
<!-- Generator: Adobe Illustrator 14.0.0, SVG Export Plug-In . SVG Version: 6.00 Build 43363)  -->
<!DOCTYPE svg PUBLIC "-//W3C//DTD SVG 1.1//EN" "http://www.w3.org/Graphics/SVG/1.1/DTD/svg11.dtd">
<svg version="1.1" id="图层_1" xmlns="http://www.w3.org/2000/svg" xmlns:xlink="http://www.w3.org/1999/xlink" x="0px" y="0px"
	 width="94.666px" height="106.502px" viewBox="0 0 94.666 106.502" enable-background="new 0 0 94.666 106.502"
	 xml:space="preserve">
<path fill="#4C4C4C" d="M13.237,75.815h12.635v27.678H13.237V75.815z"/>
<path fill="#666666" d="M13.237,75.815H25.07v27.678H13.237V75.815z"/>
<path fill="#999999" d="M13.237,75.815h10.229v27.678H13.237V75.815z"/>
<path fill="#B2B2B2" d="M13.237,75.815h8.825v27.678h-8.825V75.815z"/>
<path fill="#CCCCCC" d="M13.237,75.815h7.22v27.678h-7.22V75.815z"/>
<path fill="#B2B2B2" d="M13.237,75.815h0.802v27.678h-0.802V75.815z"/>
<path fill="#FFFFFF" d="M14.842,75.815h3.209v27.678h-3.209V75.815z"/>
<path fill="none" stroke="#000000" stroke-width="2" d="M13.237,75.815h12.635v27.678H13.237V75.815"/>
<path fill="#333333" d="M69.395,75.815H82.03v27.678H69.395V75.815z"/>
<path fill="#4C4C4C" d="M69.395,75.815h11.833v27.678H69.395V75.815z"/>
<path fill="#7F7F7F" d="M69.395,75.815h10.229v27.678H69.395V75.815z"/>
<path fill="#999999" d="M69.395,75.815h8.824v27.678h-8.824V75.815z"/>
<path fill="#B2B2B2" d="M69.395,75.815h7.22v27.678h-7.22V75.815z"/>
<path fill="#7F7F7F" d="M69.395,75.815h0.802v27.678h-0.802V75.815z"/>
<path fill="#CCCCCC" d="M70.999,75.815h3.209v27.678h-3.209V75.815z"/>
<path fill="none" stroke="#000000" stroke-width="2" d="M69.395,75.815H82.03v27.678H69.395V75.815"/>
<circle fill="#4C4C4C" cx="47.333" cy="48.939" r="44.325"/>
<circle fill="#666666" cx="46.932" cy="48.538" r="43.121"/>
<circle fill="#7F7F7F" cx="46.129" cy="47.736" r="42.319"/>
<circle fill="#999999" cx="45.327" cy="46.933" r="40.714"/>
<circle fill="#B2B2B2" cx="44.124" cy="45.73" r="37.907"/>
<circle fill="#CCCCCC" cx="42.92" cy="44.527" r="35.099"/>
<circle fill="#E5E5E5" cx="41.316" cy="42.922" r="31.087"/>
<circle fill="none" stroke="#000000" stroke-width="2" cx="47.333" cy="48.939" r="44.325"/>
<ellipse fill="none" stroke="#CCCCCC" stroke-width="2" cx="47.132" cy="48.939" rx="30.687" ry="44.325"/>
<ellipse fill="none" stroke="#CCCCCC" stroke-width="2" cx="47.333" cy="48.939" rx="12.635" ry="44.325"/>
<path fill="none" stroke="#CCCCCC" stroke-width="2" d="M10.229,49.741h41.717"/>
<path fill="none" stroke="#CCCCCC" stroke-width="2" d="M18.853,41.719H60.77"/>
<path fill="none" stroke="#CCCCCC" stroke-width="2" d="M14.842,27.68h18.251"/>
<path fill="none" stroke="#CCCCCC" stroke-width="2" d="M29.082,21.262h41.917"/>
<path fill="none" stroke="#CCCCCC" stroke-width="2" d="M40.112,57.564H82.03"/>
<path fill="none" stroke="#CCCCCC" stroke-width="2" d="M18.853,73.407h33.896"/>
<path fill="#4C4C4C" d="M40.915,75.815H53.55v27.678H40.915V75.815z"/>
<path fill="#666666" d="M40.915,75.815h11.833v27.678H40.915V75.815z"/>
<path fill="#999999" d="M40.915,75.815h10.228v27.678H40.915V75.815z"/>
<path fill="#B2B2B2" d="M40.915,75.815h8.825v27.678h-8.825V75.815z"/>
<path fill="#CCCCCC" d="M40.915,75.815h7.22v27.678h-7.22V75.815z"/>
<path fill="#B2B2B2" d="M40.915,75.815h0.802v27.678h-0.802V75.815z"/>
<path fill="#FFFFFF" d="M42.52,75.815h3.209v27.678H42.52V75.815z"/>
<path fill="none" stroke="#000000" stroke-width="2" d="M40.915,75.815H53.55v27.678H40.915V75.815"/>
<path fill="#333333" d="M68.592,87.648h14.24v1.604h-14.24V87.648z"/>
<path fill="#333333" d="M68.592,101.085h14.24v1.604h-14.24V101.085z"/>
<path fill="#333333" d="M40.112,101.085h14.24v1.604h-14.24V101.085z"/>
<path fill="#333333" d="M40.112,87.648h14.24v1.604h-14.24V87.648z"/>
<path fill="#333333" d="M12.435,87.648h14.24v1.604h-14.24V87.648z"/>
<path fill="#333333" d="M12.435,101.085h14.24v1.604h-14.24V101.085z"/>
<path fill="#7F7F7F" d="M12.435,101.085h14.24v0.803h-14.24V101.085z"/>
<path fill="#7F7F7F" d="M40.112,101.085h14.24v0.803h-14.24V101.085z"/>
<path fill="#7F7F7F" d="M68.592,101.085h14.24v0.803h-14.24V101.085z"/>
<path fill="#7F7F7F" d="M68.592,87.648h14.24v0.803h-14.24V87.648z"/>
<path fill="#7F7F7F" d="M40.112,87.648h14.24v0.803h-14.24V87.648z"/>
<path fill="#7F7F7F" d="M12.435,87.648h14.24v0.803h-14.24V87.648z"/>
<path fill="none" stroke="#000000" stroke-width="2" d="M40.112,4.013h15.042"/>
<path fill="none" stroke="#000000" stroke-width="2" d="M40.112,3.211h15.042"/>
<path fill="none" stroke="#000000" stroke-width="2" d="M41.717,5.417V3.01"/>
<path fill="none" stroke="#000000" stroke-width="2" d="M53.55,5.417V3.01"/>
<path fill="none" stroke="#000000" stroke-width="2" d="M45.729,5.417V3.01"/>
<path fill="none" stroke="#000000" stroke-width="2" d="M49.54,5.417V3.01"/>
<path fill="none" stroke="#000000" stroke-width="2" d="M16.446,49.741v53.751"/>
<path fill="none" stroke="#000000" stroke-width="2" d="M18.652,49.741v53.751"/>
<path fill="none" stroke="#000000" stroke-width="2" d="M16.446,101.888h2.206"/>
<path fill="none" stroke="#000000" stroke-width="2" d="M16.446,100.283h2.206"/>
<path fill="none" stroke="#000000" stroke-width="2" d="M16.446,98.679h2.206"/>
<path fill="none" stroke="#000000" stroke-width="2" d="M16.446,97.275h2.206"/>
<path fill="none" stroke="#000000" stroke-width="2" d="M16.446,95.67h2.206"/>
<path fill="none" stroke="#000000" stroke-width="2" d="M16.446,94.066h2.206"/>
<path fill="none" stroke="#000000" stroke-width="2" d="M16.446,92.461h2.206"/>
<path fill="none" stroke="#000000" stroke-width="2" d="M16.446,90.857h2.206"/>
<path fill="none" stroke="#000000" stroke-width="2" d="M16.446,89.252h2.206"/>
<path fill="none" stroke="#000000" stroke-width="2" d="M16.446,87.648h2.206"/>
<path fill="none" stroke="#000000" stroke-width="2" d="M16.446,86.043h2.206"/>
<path fill="none" stroke="#000000" stroke-width="2" d="M16.446,84.439h2.206"/>
<path fill="none" stroke="#000000" stroke-width="2" d="M16.446,83.034h2.206"/>
<path fill="none" stroke="#000000" stroke-width="2" d="M16.446,81.23h2.206"/>
<path fill="none" stroke="#000000" stroke-width="2" d="M16.446,79.825h2.206"/>
<path fill="none" stroke="#000000" stroke-width="2" d="M16.446,78.221h2.206"/>
<path fill="none" stroke="#000000" stroke-width="2" d="M16.446,76.616h2.206"/>
<path fill="none" stroke="#000000" stroke-width="2" d="M16.446,75.012h2.206"/>
<path fill="none" stroke="#000000" stroke-width="2" d="M16.446,73.407h2.206"/>
<path fill="none" stroke="#000000" stroke-width="2" d="M16.446,71.803h2.206"/>
<path fill="none" stroke="#000000" stroke-width="2" d="M16.446,70.198h2.206"/>
<path fill="none" stroke="#000000" stroke-width="2" d="M16.446,68.594h2.206"/>
<path fill="none" stroke="#000000" stroke-width="2" d="M16.446,67.191h2.206"/>
<path fill="none" stroke="#000000" stroke-width="2" d="M16.446,65.586h2.206"/>
<path fill="none" stroke="#000000" stroke-width="2" d="M16.446,63.781h2.206"/>
<path fill="none" stroke="#000000" stroke-width="2" d="M16.446,62.377h2.206"/>
<path fill="none" stroke="#000000" stroke-width="2" d="M16.446,60.773h2.206"/>
<path fill="none" stroke="#000000" stroke-width="2" d="M16.446,59.168h2.206"/>
<path fill="none" stroke="#000000" stroke-width="2" d="M16.446,57.564h2.206"/>
<path fill="none" stroke="#000000" stroke-width="2" d="M16.446,55.959h2.206"/>
<path fill="none" stroke="#000000" stroke-width="2" d="M16.446,54.555h2.206"/>
<path fill="none" stroke="#000000" stroke-width="2" d="M16.446,52.95h2.206"/>
<path fill="none" stroke="#000000" stroke-width="2" d="M16.446,51.146h2.206"/>
<path fill="none" stroke="#000000" stroke-width="2" d="M16.446,48.137h2.407"/>
<path fill="none" stroke="#000000" stroke-width="2" d="M16.446,46.532h2.407"/>
<path fill="none" stroke="#000000" stroke-width="2" d="M16.446,44.928h2.407"/>
<path fill="none" stroke="#000000" stroke-width="2" d="M16.646,43.524h2.407"/>
<path fill="none" stroke="#000000" stroke-width="2" d="M16.847,41.919h2.206"/>
<path fill="none" stroke="#000000" stroke-width="2" d="M16.847,40.315h2.407"/>
<path fill="none" stroke="#000000" stroke-width="2" d="M17.249,38.71h2.407"/>
<path fill="none" stroke="#000000" stroke-width="2" d="M17.449,37.106h2.407"/>
<path fill="none" stroke="#000000" stroke-width="2" d="M17.649,35.501h2.407"/>
<path fill="none" stroke="#000000" stroke-width="2" d="M18.051,33.897h2.407"/>
<path fill="none" stroke="#000000" stroke-width="2" d="M18.652,32.292h2.407"/>
<path fill="none" stroke="#000000" stroke-width="2" d="M19.254,30.688h2.006"/>
<path fill="none" stroke="#000000" stroke-width="2" d="M19.655,29.284h2.206"/>
<path fill="none" stroke="#000000" stroke-width="2" d="M20.458,27.68h1.805"/>
<path fill="none" stroke="#000000" stroke-width="2" d="M20.858,26.075h2.006"/>
<path fill="none" stroke="#000000" stroke-width="2" d="M21.661,24.471h1.805"/>
<path fill="none" stroke="#000000" stroke-width="2" d="M22.263,22.866h2.005"/>
<path fill="none" stroke="#000000" stroke-width="2" d="M23.265,21.262h1.805"/>
<path fill="none" stroke="#000000" stroke-width="2" d="M24.067,19.657h1.805"/>
<path fill="none" stroke="#000000" stroke-width="2" d="M25.271,18.053h1.604"/>
<path fill="none" stroke="#000000" stroke-width="2" d="M26.474,16.448h1.404"/>
<path fill="none" stroke="#000000" stroke-width="2" d="M27.477,14.843h1.604"/>
<path fill="none" stroke="#000000" stroke-width="2" d="M28.881,13.44h1.404"/>
<path fill="none" stroke="#000000" stroke-width="2" d="M30.485,11.835h1.404"/>
<path fill="none" stroke="#000000" stroke-width="2" d="M32.491,10.03h1.203"/>
<path fill="none" stroke="#000000" stroke-width="2" d="M34.497,8.626H35.5"/>
<path fill="none" stroke="#000000" stroke-width="2" d="M16.446,49.741h2.407"/>
<path fill="none" stroke="#000000" stroke-width="2" d="M18.853,49.34v-0.2v-0.201l0.2-4.612l0.401-4.412l0.602-4.212l1.003-4.012
	l1.204-3.811l1.404-3.811l1.805-3.41l1.805-3.008l2.006-3.009l2.206-2.406l2.407-2.207l2.407-2.005l2.607-1.404l2.808-1.203
	l2.808-0.602l2.808-0.201"/>
<path fill="none" stroke="#000000" stroke-width="2" d="M16.446,49.34v-0.2v-0.201l0.2-4.612l0.401-4.412l0.802-4.212l1.003-4.012
	l1.404-3.811l1.404-3.811l1.805-3.41l2.006-3.008l2.206-3.009l2.407-2.406l2.607-2.207l2.607-2.005l2.808-1.404l3.008-1.203
	l3.009-0.602l3.209-0.201"/>
</svg>
