<?xml version="1.0" encoding="utf-8"?>
<!-- Generator: Adobe Illustrator 14.0.0, SVG Export Plug-In . SVG Version: 6.00 Build 43363)  -->
<!DOCTYPE svg PUBLIC "-//W3C//DTD SVG 1.1//EN" "http://www.w3.org/Graphics/SVG/1.1/DTD/svg11.dtd">
<svg version="1.1" id="图层_1" xmlns="http://www.w3.org/2000/svg" xmlns:xlink="http://www.w3.org/1999/xlink" x="0px" y="0px"
	 width="59.062px" height="106.502px" viewBox="0 0 59.062 106.502" enable-background="new 0 0 59.062 106.502"
	 xml:space="preserve">
<path fill="#666666" stroke="#000000" stroke-width="2" d="M18.444,77.398l1.279,1.279L9.168,89.125l-1.173-1.173L18.444,77.398z"/>
<path fill="#666666" stroke="#000000" stroke-width="2" d="M51.172,88.059l-1.173,1.279L39.446,78.784l1.279-1.173L51.172,88.059z"
	/>
<path fill="#999999" stroke="#000000" stroke-width="2" d="M47.761,77.398h5.011v24.841h-5.011V77.398z"/>
<path fill="#999999" stroke="#000000" stroke-width="2" d="M6.397,77.398h5.011v24.841H6.397V77.398z"/>
<path fill="#7F7F7F" d="M56.076,72.601V12.793l-1.279-2.879l-2.665-2.238l-2.985-1.492l-2.771-0.96l-3.092-0.853l-3.411-0.64
	l-3.731-0.533l-3.838-0.214l-1.387-0.106h-1.386L25.48,2.985l-3.838,0.427l-3.625,0.533l-3.305,0.64L11.62,5.543l-2.665,0.96
	l-2.771,1.6l-2.452,2.238l-0.746,2.025l-0.107,0.427v59.808l1.279,2.878l2.666,2.239l2.984,1.492l2.772,0.96l3.198,0.853l3.411,0.64
	l3.731,0.533l3.944,0.213l1.386,0.107h1.279l4.052-0.107l3.838-0.319l3.624-0.533l3.306-0.746l2.984-0.96l2.665-0.959l2.772-1.6
	l2.452-2.238l0.746-1.919L56.076,72.601z"/>
<path fill="#919191" d="M52.772,72.601v-1.813V69.19v-1.6V12.793l-0.96-2.879l-2.345-2.238l-2.772-1.492l-3.305-1.28l-2.771-0.746
	l-3.092-0.64l-3.305-0.426l-2.346-0.107l-1.173-0.106h-1.173l-3.518,0.106l-3.305,0.427L19.51,3.945l-2.879,0.64l-2.559,0.959
	L10.981,6.93L8.742,8.529l-1.919,2.346l-0.427,1.492v0.427v1.813v57.995l1.066,2.878l2.345,2.239l2.665,1.492l3.306,1.279
	l2.771,0.747l3.092,0.64l3.305,0.426l2.239,0.106l1.172,0.107h1.173l3.519-0.107l3.411-0.319l3.092-0.533l2.985-0.746l2.559-0.96
	l3.092-1.386l2.345-1.599l1.813-2.346L52.772,72.601z"/>
<path fill="#A3A3A3" d="M49.573,72.601v-1.813V69.19v-1.6V12.793l-0.96-2.879l-2.559-2.665L43.71,5.864l-2.985-1.279l-3.411-0.853
	l-3.731-0.64l-2.026-0.107l-2.025-0.106l-1.919,0.106l-3.944,0.427L20.15,4.157l-3.198,1.066l-2.772,1.279l-2.985,2.452
	l-1.492,2.878l-0.106,0.96v1.813v5.97v3.519v3.092l0.106,3.198v5.117v2.984v7.996v5.011v5.97l-0.106,3.411v7.569v4.158l0.959,2.878
	l2.452,2.666l2.452,1.386l2.985,1.279l3.411,0.853l3.731,0.64l2.025,0.106l1.919,0.107l2.025-0.107l3.945-0.319l3.518-0.853
	l3.198-1.066l2.772-1.279l2.984-2.452l1.493-2.879L49.573,72.601z"/>
<path fill="#B5B5B5" d="M46.161,72.601v-1.813V69.19v-1.6V12.793l-0.746-2.879l-2.132-2.665l-3.198-2.025L37.42,4.157l-2.985-0.746
	l-3.198-0.427l-1.706-0.106l-1.599,0.106l-3.198,0.427l-2.985,0.746l-2.665,1.066l-3.198,2.025l-2.133,2.665l-0.64,1.919
	l-0.106,0.96v1.813v57.995l0.746,2.878l2.133,2.666l3.198,2.025l2.665,1.066l2.985,0.853l3.198,0.319l1.599,0.107l1.706-0.107
	l3.198-0.319l2.985-0.853l2.665-1.066l3.198-2.025l2.132-2.666L46.161,72.601z"/>
<path fill="#C9C9C9" d="M42.963,72.601v-1.813V69.19v-1.6V12.793l-0.64-2.879l-1.705-2.665L38.06,5.224l-3.305-1.492l-3.839-0.747
	l-1.386-0.106l-1.279,0.106l-3.838,0.747l-3.305,1.492L18.55,7.249l-1.706,2.665l-0.532,1.919v0.96v1.813v57.995l0.532,2.878
	l1.706,2.666l2.559,2.025l3.305,1.492l3.838,0.746l1.279,0.107l1.386-0.107l3.839-0.746l3.305-1.492l2.559-2.025l1.705-2.666
	L42.963,72.601z"/>
<path fill="#DBDBDB" d="M39.446,72.601v-7.782l0.106-3.519v-3.092V55.01v-5.011v-1.492v-1.706v-7.889v-5.011v-5.97V24.52v-7.462
	l-0.106-4.265l-0.427-2.879l-1.173-2.665l-1.919-2.025l-2.452-1.492l-2.878-0.747l-1.066-0.106l-0.959,0.106l-2.772,0.747
	l-2.451,1.492l-1.919,2.025L20.15,9.914l-0.427,1.919v0.96v1.813v57.995l0.427,2.878l1.279,2.666l1.919,2.025l2.451,1.492
	l2.772,0.746l0.959,0.107l1.066-0.107l2.878-0.746l2.452-1.492l1.919-2.025l1.173-2.666L39.446,72.601z"/>
<path fill="#EDEDED" d="M36.247,72.601v-1.813V69.19v-1.6V12.793l-0.32-2.879l-0.853-2.665l-1.813-2.665l-2.346-1.492l-0.64-0.107
	l-0.746-0.106l-0.64,0.106l-2.452,1.173l-2.025,2.346L23.24,9.914l-0.319,1.919v0.96v1.813v57.995l0.319,2.878l0.854,2.666
	l1.813,2.665l2.345,1.492l0.64,0.106l0.64,0.107l0.746-0.107l2.452-1.172l2.026-2.346l1.172-3.412L36.247,72.601z"/>
<ellipse fill="#FFFFFF" cx="29.424" cy="42.643" rx="3.305" ry="39.765"/>
<path fill="none" stroke="#000000" stroke-width="2" d="M56.076,72.601V12.793l-1.279-2.879l-2.665-2.238l-2.985-1.492l-2.771-0.96
	l-3.092-0.853l-3.411-0.64l-3.731-0.533l-3.838-0.214l-1.387-0.106h-1.386L25.48,2.985l-3.838,0.427l-3.625,0.533l-3.305,0.64
	L11.62,5.543l-2.665,0.96l-2.771,1.6l-2.452,2.238l-0.746,2.025l-0.107,0.427v59.808l1.279,2.878l2.666,2.239l2.984,1.492
	l2.772,0.96l3.198,0.853l3.411,0.64l3.731,0.533l3.944,0.213l1.386,0.107h1.279l4.052-0.107l3.838-0.319l3.624-0.533l3.306-0.746
	l2.984-0.96l2.665-0.959l2.772-1.6l2.452-2.238l0.746-1.919L56.076,72.601"/>
<path fill="none" stroke="#000000" stroke-width="2" d="M2.878,12.793h53.198v3.198H2.878V12.793"/>
<path fill="#7F7F7F" stroke="#000000" stroke-width="2" d="M5.97,99.893v2.771h5.863v-2.771h0.747v3.625H5.117v-3.625H5.97z"/>
<path fill="#7F7F7F" stroke="#000000" stroke-width="2" d="M47.334,99.893v2.771h5.864v-2.771h0.853v3.625h-7.463v-3.625H47.334z"/>
</svg>
