<?xml version="1.0" encoding="utf-8"?>
<!-- Generator: Adobe Illustrator 14.0.0, SVG Export Plug-In . SVG Version: 6.00 Build 43363)  -->
<!DOCTYPE svg PUBLIC "-//W3C//DTD SVG 1.1//EN" "http://www.w3.org/Graphics/SVG/1.1/DTD/svg11.dtd">
<svg version="1.1" id="图层_1" xmlns="http://www.w3.org/2000/svg" xmlns:xlink="http://www.w3.org/1999/xlink" x="0px" y="0px"
	 width="88.171px" height="106.502px" viewBox="0 0 88.171 106.502" enable-background="new 0 0 88.171 106.502"
	 xml:space="preserve">
<path fill="#7F7F7F" stroke="#000000" stroke-width="2" d="M85.199,73.808V9.908l-0.742-1.485L81.98,7.184l-3.963-1.238L75.788,5.45
	l-2.725-0.495L70.091,4.46l-2.973-0.248l-3.467-0.495l-3.715-0.248l-3.715-0.247h-3.963l-3.963-0.248h-4.211h-4.21l-4.21,0.248
	H31.95l-3.963,0.247L24.52,3.717l-3.467,0.495l-3.22,0.248l-2.725,0.495L12.384,5.45L7.925,6.442L4.706,7.68L3.22,9.165L2.972,9.908
	v63.899l1.733,2.229l3.22,1.238l4.458,0.99l2.724,0.495l2.725,0.496l3.22,0.247L24.52,80l3.467,0.247l3.963,0.248h3.715l4.21,0.247
	h4.21h4.211l3.963-0.247h3.963l3.715-0.248L63.652,80l3.467-0.496l2.973-0.247l2.972-0.496l2.725-0.495l4.458-0.99l2.973-1.238
	l1.238-0.743l0.495-0.743L85.199,73.808z"/>
<path fill="#7F7F7F" stroke="#000000" stroke-width="2" d="M85.199,74.799v-0.496v-0.495l-0.247,0.743l-0.495,0.743l-2.477,1.238
	l-3.963,1.238l-2.229,0.495l-2.725,0.495l-2.972,0.496l-2.973,0.247L63.652,80l-3.715,0.247l-3.715,0.248h-3.963l-3.963,0.247
	h-8.421l-4.21-0.247H31.95l-3.963-0.248L24.52,80l-3.467-0.496l-3.22-0.247l-2.725-0.496l-2.724-0.495l-4.458-0.99l-3.22-1.238
	L3.22,74.551l-0.248-0.743v0.495v0.496l0.495,2.972l0.743,2.972l1.238,2.973l1.486,2.477l1.734,2.725l2.229,2.229l2.229,2.229
	l2.725,1.981l2.972,1.733l2.972,1.733l3.468,1.486l3.467,0.991l3.467,0.99l3.963,0.743l3.963,0.247l3.962,0.248l3.963-0.248
	l3.963-0.247l3.715-0.743l3.715-0.99l3.468-0.991l3.22-1.486l3.22-1.733l2.972-1.733l2.725-1.981l2.229-2.229l2.229-2.229
	l1.733-2.725l1.486-2.477l1.238-2.973l0.743-2.972L85.199,74.799z"/>
<path fill="#999999" d="M78.264,73.808V9.908l-0.743-1.485l-1.98-1.239L72.32,5.946l-3.963-0.99l-5.201-0.743L57.46,3.469
	l-6.439-0.247l-6.936-0.248l-6.935,0.248l-6.439,0.247l-5.944,0.743l-4.953,0.743l-4.21,0.99l-3.22,1.238l-1.981,1.239L9.659,9.908
	v63.899l0.743,1.486l1.981,1.238l3.22,1.238l4.21,0.99l4.953,0.743l5.944,0.743l6.439,0.248l6.935,0.247l6.936-0.247l6.439-0.248
	l5.695-0.743l5.201-0.743l3.963-0.99l3.221-1.238l1.98-1.238L78.264,73.808z"/>
<path fill="#999999" d="M78.264,74.799v-0.496v-0.495l-0.743,1.486l-1.98,1.238l-3.221,1.238l-3.963,0.99l-5.201,0.743l-5.695,0.743
	l-6.439,0.248l-6.936,0.247l-6.935-0.247l-6.439-0.248l-5.944-0.743l-4.953-0.743l-4.21-0.99l-3.22-1.238l-1.981-1.238l-0.743-1.486
	v0.991l0.991,5.943l2.229,5.449l3.22,4.953l4.458,4.211l4.954,3.467l5.696,2.478l6.192,1.733l6.687,0.495l6.688-0.495l6.191-1.733
	l5.697-2.478l4.953-3.467l4.21-4.211l3.22-4.953l2.229-5.449L78.264,74.799z"/>
<path fill="#B2B2B2" d="M66.872,73.808V9.908l-0.495-1.485l-1.238-1.239l-2.229-1.238l-2.725-0.99l-3.22-0.743l-3.963-0.743
	l-4.21-0.247l-4.706-0.248L39.38,3.222l-4.21,0.247l-3.963,0.743l-3.467,0.743l-2.725,0.99l-2.229,1.238l-1.238,1.239l-0.495,1.485
	v63.899l0.495,1.486l1.238,1.238l2.229,1.238l2.725,0.99l3.467,0.743l3.963,0.743l4.21,0.248l4.706,0.247l4.706-0.247l4.21-0.248
	l3.963-0.743l3.22-0.743l2.725-0.99l2.229-1.238l1.238-1.238L66.872,73.808z"/>
<path fill="#B2B2B2" d="M66.872,74.799v-0.496v-0.495l-0.495,1.486l-1.238,1.238l-2.229,1.238l-2.725,0.99l-3.22,0.743l-3.963,0.743
	l-4.21,0.248l-4.706,0.247l-4.706-0.247l-4.21-0.248l-3.963-0.743l-3.467-0.743l-2.725-0.99l-2.229-1.238l-1.238-1.238l-0.495-1.486
	v0.991l0.743,5.943l1.486,5.449l2.229,4.953l2.724,4.211l3.468,3.467l3.715,2.478l4.21,1.733l4.458,0.495l4.458-0.495l3.963-1.733
	l3.963-2.478l3.22-3.467l2.973-4.211l2.229-4.953l1.238-5.449L66.872,74.799z"/>
<path fill="#CCCCCC" d="M55.478,73.808V9.908l-0.247-1.485l-1.733-2.478l-2.973-1.733l-4.211-0.99l-2.229-0.248l-4.458,0.495
	l-3.715,1.486l-2.229,2.229L32.94,8.423l-0.248,1.485v63.899l0.248,1.486l1.733,2.477l2.972,1.733l4.21,0.991l2.229,0.247
	l4.458-0.495l3.468-1.486l2.477-2.229l0.743-1.238L55.478,73.808z"/>
<path fill="#CCCCCC" d="M55.478,74.799v-0.496v-0.495l-0.247,1.486l-0.743,1.238l-0.99,1.238l-1.486,0.99l-1.486,0.743l-1.981,0.743
	l-2.229,0.248l-2.229,0.247l-2.229-0.247l-2.229-0.248l-1.981-0.743l-1.733-0.743l-1.239-0.99l-0.99-1.238l-0.743-1.238
	l-0.248-1.486v0.991l0.248,5.943l0.743,5.449l0.99,4.953l1.486,4.211l1.734,3.467l1.733,2.478l2.229,1.733l2.229,0.495l2.229-0.495
	l1.982-1.733l1.98-2.478l1.734-3.467l1.238-4.211l1.238-4.953l0.743-5.449L55.478,74.799z"/>
<ellipse fill="none" stroke="#000000" stroke-width="2" cx="44.085" cy="9.661" rx="41.113" ry="6.687"/>
<path fill="none" stroke="#000000" stroke-width="2" d="M85.199,73.808l-0.742,1.486l-2.477,1.238l-3.963,1.238l-2.229,0.495
	l-2.725,0.495l-2.972,0.496l-2.973,0.247L63.652,80l-3.715,0.247l-3.715,0.248h-3.963l-3.963,0.247h-8.421l-4.21-0.247H31.95
	l-3.963-0.248L24.52,80l-3.467-0.496l-3.22-0.247l-2.725-0.496l-2.724-0.495l-4.458-0.99l-3.22-1.238l-1.733-2.229"/>
<ellipse fill="#7F7F7F" stroke="#000000" stroke-width="2" cx="44.085" cy="9.661" rx="41.113" ry="6.687"/>
</svg>
