<?xml version="1.0" encoding="utf-8"?>
<!-- Generator: Adobe Illustrator 14.0.0, SVG Export Plug-In . SVG Version: 6.00 Build 43363)  -->
<!DOCTYPE svg PUBLIC "-//W3C//DTD SVG 1.1//EN" "http://www.w3.org/Graphics/SVG/1.1/DTD/svg11.dtd">
<svg version="1.1" id="图层_1" xmlns="http://www.w3.org/2000/svg" xmlns:xlink="http://www.w3.org/1999/xlink" x="0px" y="0px"
	 width="81.598px" height="106.502px" viewBox="0 0 81.598 106.502" enable-background="new 0 0 81.598 106.502"
	 xml:space="preserve">
<path fill="#B2B2B2" stroke="#000000" stroke-width="2" d="M72.891,97.796V20.45l-0.811-2.43l-2.024-2.228l-3.239-1.822
	l-4.252-1.822l-2.43-0.81l-2.835-0.607l-2.835-0.607l-3.037-0.405l-3.239-0.405L44.95,8.909l-3.442-0.203h-3.645h-3.645
	l-3.442,0.203l-3.239,0.404l-3.24,0.405l-3.037,0.405l-2.834,0.607l-2.835,0.607l-2.43,0.81l-4.252,1.822L5.67,15.793l-2.025,2.228
	l-0.607,1.215L2.835,20.45v77.346l0.202,0.607l2.633,1.619l3.239,1.013l4.252,0.81l2.43,0.405l2.835,0.405l2.834,0.202l3.037,0.405
	l3.24,0.202h3.239l3.442,0.202h3.645h3.645l3.442-0.202h3.239l3.239-0.202l3.037-0.405l2.835-0.202l2.835-0.405l4.656-0.81
	l3.848-0.811l2.632-1.012l1.417-1.215L72.891,97.796z"/>
<path fill="#CCCCCC" d="M67.019,97.796V20.45l-0.607-2.43l-1.62-2.228l-2.632-1.822l-3.645-1.822l-4.252-1.417l-5.062-1.013
	l-5.467-0.81l-5.872-0.203l-5.872,0.203l-5.467,0.81l-4.859,1.013l-4.454,1.417l-3.442,1.822l-2.835,1.822l-1.619,2.228l-0.607,2.43
	v77.346l0.607,1.215l1.619,1.012l2.835,1.013l3.442,0.81l4.454,0.811l4.859,0.607l5.467,0.202l5.872,0.202l5.872-0.202l5.467-0.202
	l5.062-0.607l4.252-0.811l3.645-0.81l2.632-1.013l1.62-1.012L67.019,97.796z"/>
<path fill="#E5E5E5" d="M58.313,97.796V20.45l-0.405-2.43l-1.215-2.228l-1.822-1.822l-2.43-1.822l-3.037-1.417L45.76,9.719
	l-3.847-0.81l-4.05-0.203l-4.05,0.203l-3.847,0.81l-3.645,1.013l-2.835,1.417l-2.632,1.822l-1.822,1.822l-1.215,2.228l-0.405,2.43
	v77.346l0.405,1.215l3.037,2.024l2.632,0.81l2.835,0.811l3.645,0.607l3.847,0.202l4.05,0.202l4.05-0.202l3.847-0.202l3.645-0.607
	l3.037-0.811l2.43-0.81l3.037-2.024L58.313,97.796z"/>
<path fill="none" stroke="#000000" stroke-width="2" d="M2.835,20.45l2.835,1.215l3.239,0.404l4.252,0.405l2.43,0.202l2.835,0.203
	h2.834l3.037,0.202h3.24l3.239,0.202H44.95l3.239-0.202h3.239l3.037-0.202h2.835l2.835-0.203l4.656-0.404l3.848-0.405l2.632-0.607
	l1.62-0.81"/>
<path fill="#7F7F7F" stroke="#000000" stroke-width="2" d="M42.317,8.706L40.9,10.124h-5.872V7.289l4.252-4.454h35.028l4.454,4.454
	v90.507h-5.871V10.124l-1.418-1.418H42.317z"/>
<path fill="#4C4C4C" stroke="#000000" stroke-width="2" d="M72.891,99.213h5.871v-1.417h-4.454V8.706l-1.417-1.417H40.9l-1.62,1.417
	h-4.252v1.418H40.9l1.417-1.418h29.156l1.418,1.418V99.213z"/>
</svg>
