<?xml version="1.0" encoding="utf-8"?>
<!-- Generator: Adobe Illustrator 14.0.0, SVG Export Plug-In . SVG Version: 6.00 Build 43363)  -->
<!DOCTYPE svg PUBLIC "-//W3C//DTD SVG 1.1//EN" "http://www.w3.org/Graphics/SVG/1.1/DTD/svg11.dtd">
<svg version="1.1" id="图层_1" xmlns="http://www.w3.org/2000/svg" xmlns:xlink="http://www.w3.org/1999/xlink" x="0px" y="0px"
	 width="64.304px" height="106.502px" viewBox="0 0 64.304 106.502" enable-background="new 0 0 64.304 106.502"
	 xml:space="preserve">
<path fill="#4C4C4C" stroke="#000000" stroke-width="2" d="M41.194,84.398v14.67h-1.005v1.004h7.636v-1.004h-1.004v-14.67H41.194z"
	/>
<path fill="#4C4C4C" stroke="#000000" stroke-width="2" d="M17.081,84.398v14.67h-1.005v1.004h7.837l-0.201-1.004h-1.005v-14.67
	H17.081z"/>
<path fill="#4C4C4C" stroke="#000000" stroke-width="2" d="M14.87,102.885v0.604H5.828v-0.604h1.607h1.206h1.005h0.603h0.804h0.804
	h1.206H14.87z"/>
<path fill="#4C4C4C" stroke="#000000" stroke-width="2" d="M58.073,102.885v0.604h-9.042v-0.604h1.607h1.206h1.004h0.604h0.804
	h0.804h1.205H58.073z"/>
<path fill="#4C4C4C" d="M54.456,85.403l1.809-3.416l1.608-36.773L56.265,8.239l-1.809-3.416h1.809l3.417,3.416l1.607,36.975
	l-1.607,36.773l-3.417,3.416H54.456z"/>
<path fill="#7F7F7F" d="M9.444,85.403l-1.808-3.416L6.43,45.213L7.636,8.239l1.808-3.416H7.636L4.22,8.239L3.014,45.213L4.22,81.987
	l3.417,3.416H9.444z"/>
<path fill="#7F7F7F" d="M45.815,85.403l1.809-3.416l0.805-36.773L47.624,8.239l-1.809-3.416h4.422l1.607,3.416l1.607,36.975
	l-1.607,36.773l-1.607,3.416H45.815z"/>
<path fill="#666666" d="M50.237,85.403l1.607-3.416l1.607-36.773L51.845,8.239l-1.607-3.416h4.219l1.809,3.416l1.809,36.975
	l-1.809,36.773l-1.809,3.416H50.237z"/>
<path fill="#999999" d="M13.665,85.403l-1.608-3.416l-1.607-36.773l1.607-36.975l1.608-3.416h-4.22L7.636,8.239L6.43,45.213
	l1.206,36.773l1.808,3.416H13.665z"/>
<path fill="#999999" d="M41.597,85.403l1.607-3.416l0.803-36.773L43.204,8.239l-1.607-3.416h4.219l1.809,3.416l0.805,36.975
	l-0.805,36.773l-1.809,3.416H41.597z"/>
<path fill="#B2B2B2" d="M18.085,85.403l-1.809-3.416l-1.005-36.773l1.005-36.975l1.809-3.416h-4.421l-1.608,3.416l-1.607,36.975
	l1.607,36.773l1.608,3.416H18.085z"/>
<path fill="#B2B2B2" d="M37.577,85.403l1.406-3.416l0.604-36.773L38.983,8.239l-1.406-3.416h4.02l1.607,3.416l0.803,36.975
	l-0.803,36.773l-1.607,3.416H37.577z"/>
<path fill="#CCCCCC" d="M22.506,85.403l-1.809-3.416l-0.804-36.773l0.804-36.975l1.809-3.416h-4.421l-1.809,3.416l-0.804,36.975
	l0.804,36.773l1.809,3.416H22.506z"/>
<path fill="#CCCCCC" d="M33.759,85.403l0.805-3.416l0.603-36.773L34.563,8.239l-0.805-3.416h3.818l1.406,3.416l0.604,36.975
	l-0.604,36.773l-1.406,3.416H33.759z"/>
<path fill="#E5E5E5" d="M26.324,85.403l-1.206-3.416l-0.804-36.773l0.804-36.975l1.206-3.416h-4.019l-1.607,3.416l-0.804,36.975
	l0.804,36.773l1.607,3.416H26.324z"/>
<path fill="#E5E5E5" d="M30.142,85.403l-0.804-3.416l-0.402-36.773l0.402-36.975l0.804-3.416h3.617l0.805,3.416l0.603,36.975
	l-0.603,36.773l-0.805,3.416H30.142z"/>
<path fill="#FFFFFF" d="M30.142,85.403l-0.804-3.416l-0.402-36.773l0.402-36.975l0.804-3.416h-3.818l-1.407,3.416l-0.603,36.975
	l0.603,36.773l1.407,3.416H30.142z"/>
<path fill="#7F7F7F" d="M46.017,4.823L32.151,3.014l24.113,1.809H46.017z"/>
<path fill="#B2B2B2" d="M32.151,3.014l3.416,1.809h10.449L32.151,3.014z"/>
<path fill="#E5E5E5" d="M32.151,3.014l-6.229,1.809h9.645L32.151,3.014z"/>
<path fill="#CCCCCC" d="M25.922,4.823l6.229-1.809l-14.87,1.809H25.922z"/>
<path fill="#B2B2B2" d="M32.151,3.014l-14.87,1.809H7.837L32.151,3.014z"/>
<path fill="none" stroke="#000000" stroke-width="2" d="M7.636,4.823h48.628L31.75,3.014L7.636,4.823"/>
<path fill="none" stroke="#000000" stroke-width="2" d="M4.22,81.987l3.417,3.416h48.628l3.417-3.416l1.607-36.773L59.682,8.239
	l-3.417-3.616H7.636L4.22,8.239L3.014,45.213L4.22,81.987"/>
<path fill="none" stroke="#B2B2B2" stroke-width="2" d="M59.682,9.243l-0.603-0.401L57.472,8.44L55.06,8.038l-3.416-0.402
	l-4.02-0.201l-4.822-0.2l-5.023-0.201h-5.627h-5.425l-5.225,0.201l-4.622,0.2l-4.22,0.201L9.444,8.038L6.832,8.44L5.225,8.842
	L4.622,9.243"/>
<path fill="none" stroke="#B2B2B2" stroke-width="2" d="M59.682,80.781l-0.603,0.401l-1.607,0.402l-2.412,0.401l-3.416,0.201
	l-4.02,0.201l-4.822,0.2l-5.023,0.201h-5.627h-5.425l-5.225-0.201l-4.622-0.2l-4.22-0.201l-3.215-0.201l-2.612-0.401l-1.607-0.402
	l-0.603-0.401"/>
<path fill="#4C4C4C" stroke="#000000" stroke-width="2" d="M56.868,102.282h-1.607v-19.09l1.607-0.402V102.282z"/>
<path fill="#4C4C4C" stroke="#000000" stroke-width="2" d="M13.665,102.282h-1.608V83.795h1.608V102.282z"/>
<path fill="#666666" stroke="#000000" stroke-width="2" d="M55.261,102.282h-1.809V83.795l1.809-0.603V102.282z"/>
<path fill="#666666" stroke="#000000" stroke-width="2" d="M12.057,102.282h-1.607V83.795h1.607V102.282z"/>
<path fill="#7F7F7F" stroke="#000000" stroke-width="2" d="M53.452,102.282h-1.607V83.795h1.607V102.282z"/>
<path fill="#7F7F7F" stroke="#000000" stroke-width="2" d="M10.449,102.282H8.641v-19.09l1.809,0.603V102.282z"/>
<path fill="#B2B2B2" stroke="#000000" stroke-width="2" d="M51.845,102.282h6.229v0.603h-9.042v-0.603h1.206V83.795h1.607V102.282z"
	/>
<path fill="#B2B2B2" stroke="#000000" stroke-width="2" d="M8.641,102.282h6.229v0.603H5.828v-0.603h1.206V82.589l1.607,0.604
	V102.282z"/>
</svg>
