<?xml version="1.0" encoding="utf-8"?>
<!-- Generator: Adobe Illustrator 14.0.0, SVG Export Plug-In . SVG Version: 6.00 Build 43363)  -->
<!DOCTYPE svg PUBLIC "-//W3C//DTD SVG 1.1//EN" "http://www.w3.org/Graphics/SVG/1.1/DTD/svg11.dtd">
<svg version="1.1" id="图层_1" xmlns="http://www.w3.org/2000/svg" xmlns:xlink="http://www.w3.org/1999/xlink" x="0px" y="0px"
	 width="72.921px" height="106.502px" viewBox="0 0 72.921 106.502" enable-background="new 0 0 72.921 106.502"
	 xml:space="preserve">
<path fill="#999999" d="M69.936,13.433V61.62L44.777,90.831v12.579H28.039V90.831L2.985,61.62V13.433l1.066-2.559l2.239-1.919
	L8.636,7.57l2.985-1.173l3.518-1.066l3.944-0.853l2.878-0.427l2.985-0.427l3.198-0.319l3.198-0.213h1.706l1.706-0.107h1.706
	l3.412,0.107l3.305,0.106l3.198,0.213l3.092,0.427l2.878,0.426l2.771,0.533l3.838,0.96l3.306,1.066l2.772,1.279l2.878,1.705
	l1.812,2.559l0.214,0.533V13.433z"/>
<path fill="#A8A8A8" d="M65.458,13.433v8.849v1.492v1.493v25.159v4.478v5.97l-2.025,2.772L61.3,66.524l-1.918,2.772l-2.133,2.771
	l-2.025,2.771l-2.025,2.879l-2.025,2.771l-2.025,2.772l-2.026,2.878l-2.025,2.879l-1.386,1.813v3.091v6.29v2.346v0.853h-0.959h-3.52
	h-6.289h-3.731l0.106-3.198v-6.29l-0.106-3.091l-2.025-2.772l-2.026-2.878l-2.025-2.772l-2.026-2.878l-2.025-2.772l-2.025-2.771
	l-2.026-2.878l-2.025-2.772l-2.025-2.771l-2.132-2.879l-0.64-0.853l-0.746-0.96v-1.492v-7.463l0.106-2.984v-25.16l-0.106-4.371
	v-5.97l0.959-2.559l2.559-2.452l3.198-1.599l2.878-1.173l3.198-0.96l3.625-0.64l3.945-0.64l4.264-0.319l1.386-0.107h1.493h1.493
	l4.371,0.107l4.265,0.319l3.944,0.64l3.625,0.64l3.305,0.96l2.879,1.173l2.346,1.172l2.451,1.813l1.706,2.559L65.458,13.433z"/>
<path fill="#B8B8B8" d="M60.875,13.433v8.742v1.492v1.386v24.84v4.371v5.863l-1.706,2.879l-1.706,2.878l-1.705,2.879l-1.706,2.878
	l-1.706,2.879l-1.705,2.878l-1.706,2.879l-1.706,2.879l-1.813,2.878l-1.705,2.879l-1.173,1.919l0.106,3.091v6.29l-0.106,2.346v0.853
	h-0.747h-2.984h-5.331h-3.091v-3.198v-6.29v-3.091l-1.706-2.879l-1.706-2.878l-1.706-2.879l-1.706-2.879l-1.706-2.878l-1.706-2.879
	l-1.812-2.878l-1.706-2.879l-1.706-2.878l-1.706-2.879l-0.533-0.959l-0.64-0.96v-1.492v-7.249l0.106-4.371V23.667l-0.106-4.371
	v-5.863l0.746-2.559l2.239-2.452l2.666-1.599l3.305-1.493l2.772-0.853l3.198-0.64l3.412-0.533l3.625-0.32h1.279h1.173l3.731,0.107
	l3.519,0.319l3.305,0.64l3.092,0.64l2.771,0.96l3.198,1.492l2.346,1.706l1.919,2.452L60.875,13.433z"/>
<path fill="#C4C4C4" d="M56.396,13.433v8.635v1.387v1.492V49.36v4.371v5.757l-1.492,2.985l-1.279,2.879l-1.492,2.878l-1.386,2.985
	l-1.386,2.878l-1.387,2.985l-1.385,2.985l-1.387,2.878l-1.386,2.985l-1.493,2.985l-0.853,1.919v3.091v6.29v2.346v0.853h-0.64H37.74
	h-3.731H31.45l0.106-3.198v-6.29l-0.106-3.091l-1.386-2.879l-1.386-2.985l-1.386-2.984l-1.386-2.879l-1.386-2.985l-1.386-2.984
	l-1.386-2.879l-1.386-2.984l-1.386-2.879l-1.493-2.985l-0.426-0.959l-0.427-0.96v-1.492v-7.143v-4.371V23.454V19.19v-5.757
	l0.853-3.092l2.452-2.771l2.452-1.493l2.985-1.386l3.412-0.853l3.625-0.64l2.025-0.214h2.026h2.025l3.838,0.427l3.625,0.853
	l3.199,1.066l2.664,1.493l2.985,2.559l1.493,2.984L56.396,13.433z"/>
<path fill="#D4D4D4" d="M51.812,13.433v8.528l0.107,1.386v1.387v24.094l-0.107,4.264v5.65l-1.065,2.985l-1.066,3.092l-1.065,2.984
	l-1.066,2.985l-1.066,2.985l-1.066,2.984L44.35,79.85l-1.173,2.985l-1.066,2.985l-1.066,2.984l-0.746,2.026l0.107,3.091v6.29
	l-0.107,2.346v0.853h-0.426h-3.412h-3.305h-0.533v-3.198v-6.29v-3.091l-1.066-2.985l-1.066-2.985l-1.066-3.092l-1.066-2.984
	l-1.066-2.985l-1.066-2.985l-1.173-2.984l-1.066-3.092l-1.066-2.985l-1.066-2.985l-0.427-0.959l-0.32-1.066v-1.386V50.32v-4.265
	V23.347v-4.264v-5.65l0.747-3.092l1.919-2.771l2.878-2.239l2.452-1.066l2.771-0.853l2.985-0.427h1.599h1.599l2.984,0.427
	l2.772,0.853l2.452,1.066l2.879,2.239l2.025,2.771L51.812,13.433z"/>
<path fill="#E3E3E3" d="M47.335,13.433v8.315v1.386v1.493v23.667v4.157v5.65l-0.854,2.985l-0.746,3.092l-0.746,3.092l-0.746,3.091
	l-0.746,3.092l-0.746,2.985l-0.747,3.092l-0.746,3.092l-0.747,3.092l-0.852,3.091l-0.428,2.772v3.198v5.437v2.346v0.853h-0.426
	h-2.985h-2.026v-3.198v-6.29v-3.091l-0.853-3.092l-0.64-3.092l-0.853-3.092l-0.746-2.985l-0.747-3.092l-0.746-3.091l-0.746-3.092
	l-0.747-3.092l-0.746-3.092l-0.853-2.985l-0.213-1.065l-0.213-0.96v-1.386V49.68v-4.158V23.134v-4.157v-5.544l0.426-3.092
	l1.386-2.771l2.025-2.239l2.772-1.492l3.091-0.854h1.066h1.066l3.198,0.854L43.39,5.33l2.025,2.239l1.387,2.771L47.335,13.433z"/>
<path fill="#F2F2F2" d="M42.751,13.433v43.923L38.06,90.831v12.579h-3.198V90.831l-4.691-33.476V13.433l0.213-3.092l0.853-2.771
	l1.706-2.772l2.239-1.599l1.279-0.214l2.985,1.279l1.813,2.56l0.96,2.559l0.533,2.984V13.433z"/>
<path fill="none" stroke="#000000" stroke-width="2" d="M69.936,13.433V61.62L44.777,90.831v12.579H28.039V90.831L2.985,61.62
	V13.433l1.066-2.559l2.239-1.919L8.636,7.57l2.985-1.173l3.518-1.066l3.944-0.853l2.878-0.427l2.985-0.427l3.198-0.319l3.198-0.213
	h1.706l1.706-0.107h1.706l3.412,0.107l3.305,0.106l3.198,0.213l3.092,0.427l2.878,0.426l2.771,0.533l3.838,0.96l3.306,1.066
	l2.772,1.279l2.878,1.705l1.812,2.559l0.214,0.533V13.433"/>
<path fill="none" stroke="#000000" stroke-width="2" d="M28.039,90.831h16.738"/>
<path fill="none" stroke="#000000" stroke-width="2" d="M2.985,61.62v-0.214l2.666-1.492l2.985-0.64l2.985-0.533l3.518-0.319
	l3.944-0.427l4.371-0.213l3.092-0.214l3.198-0.106h3.305l1.706-0.106h1.706l3.412,0.106h3.305l3.198,0.106l3.092,0.214l2.878,0.106
	l4.158,0.319l3.625,0.427l3.092,0.427l3.411,0.746l2.665,0.959l0.64,0.64v0.214"/>
<path fill="#7F7F7F" d="M23.881,65.138l-0.64-2.025l1.919-0.64l0.747,1.919L23.881,65.138z"/>
<path fill="#7F7F7F" d="M26.013,71.109l-0.64-2.026l1.919-0.746l0.746,2.025L26.013,71.109z"/>
<path fill="#7F7F7F" d="M28.146,76.972l-0.747-2.025l2.026-0.747l0.746,2.026L28.146,76.972z"/>
<path fill="#7F7F7F" d="M30.277,82.835l-0.746-1.919l2.025-0.746l0.747,1.919L30.277,82.835z"/>
<path fill="#7F7F7F" d="M32.41,88.805l-0.746-2.025l2.025-0.746l0.64,2.025L32.41,88.805z"/>
<path fill="#7F7F7F" d="M21.322,16.631v-2.132h2.025v2.132H21.322z"/>
<path fill="#7F7F7F" d="M21.322,22.921v-2.133h2.025v2.133H21.322z"/>
<path fill="#7F7F7F" d="M21.322,29.211v-2.133h2.025v2.133H21.322z"/>
<path fill="#7F7F7F" d="M21.322,35.501v-2.133h2.025v2.133H21.322z"/>
<path fill="#7F7F7F" d="M21.322,41.684v-2.025h2.025v2.025H21.322z"/>
<path fill="#7F7F7F" d="M21.322,47.974v-2.025h2.025v2.025H21.322z"/>
<path fill="#7F7F7F" d="M21.322,54.264v-2.132h2.025v2.132H21.322z"/>
<path fill="#7F7F7F" d="M30.384,4.051l1.066-0.319l0.32,1.065l-1.173,0.32L30.384,4.051z"/>
<path fill="#7F7F7F" d="M25.907,5.864l1.279-0.746l0.853,1.279l-1.279,0.853L25.907,5.864z"/>
<path fill="#7F7F7F" d="M21.962,10.341l0.853-1.919l1.919,0.853l-0.853,1.919L21.962,10.341z"/>
<path fill="#7F7F7F" d="M6.717,60.448h2.132v2.132H6.717V60.448z"/>
<path fill="#7F7F7F" d="M13.113,59.594h0.533h1.066h0.533v0.533v1.066v0.533L14.18,61.62l-1.066,0.106V60.66V59.594z"/>
<path fill="#7F7F7F" d="M19.403,58.954h0.533h1.066h0.533v0.533v1.066v0.533h-1.066h-1.066l0.106-1.066L19.403,58.954z"/>
<path fill="#7F7F7F" d="M25.693,58.741l0.533-0.106h1.066l0.533,0.106v0.427v1.065v0.533h-1.066h-1.066l0.106-1.065L25.693,58.741z"
	/>
<path fill="#7F7F7F" d="M32.09,58.529h0.533h1.066h0.533v0.533v1.065v0.533h-1.066H32.09v-1.066V58.529z"/>
<path fill="#7F7F7F" d="M38.38,58.529l0.532-0.106h1.066l0.532,0.106v0.426v1.173v0.533l-1.065-0.106L38.38,60.66l0.105-1.066
	L38.38,58.529z"/>
<path fill="#7F7F7F" d="M44.669,58.635h0.533h1.066h0.533v0.533v1.065v0.533h-1.066h-1.066l0.107-1.065L44.669,58.635z"/>
<path fill="#7F7F7F" d="M51.066,58.954h0.533h1.066h0.533v0.533v1.066v0.533h-1.066h-1.066v-1.066V58.954z"/>
<path fill="#7F7F7F" d="M57.356,59.488h0.533h1.065h0.533v0.533v1.066v0.533h-1.065h-1.066v-1.066V59.488z"/>
<path fill="#7F7F7F" d="M63.646,60.448h2.133v2.025h-2.133V60.448z"/>
<path fill="none" stroke="#000000" stroke-width="2" d="M36.461,2.985l-1.706,0.107l-1.706,0.106L31.45,3.411l-1.493,0.427
	l-1.492,0.426l-1.386,0.533L25.8,5.33l-1.172,0.746l-1.066,0.747L22.495,7.57l-0.747,0.853l-0.746,0.96l-0.533,0.959l-0.426,0.96
	l-0.213,1.065l-0.106,1.066v43.923l12.58,33.476"/>
</svg>
