<?xml version="1.0" encoding="utf-8"?>
<!-- Generator: Adobe Illustrator 14.0.0, SVG Export Plug-In . SVG Version: 6.00 Build 43363)  -->
<!DOCTYPE svg PUBLIC "-//W3C//DTD SVG 1.1//EN" "http://www.w3.org/Graphics/SVG/1.1/DTD/svg11.dtd">
<svg version="1.1" id="图层_1" xmlns="http://www.w3.org/2000/svg" xmlns:xlink="http://www.w3.org/1999/xlink" x="0px" y="0px"
	 width="68.724px" height="106.502px" viewBox="0 0 68.724 106.502" enable-background="new 0 0 68.724 106.502"
	 xml:space="preserve">
<path fill="#7F7F7F" d="M62.696,72.14l-1.005,6.431l-2.01,5.827l-2.612,5.426l-3.617,4.622l-4.019,3.817l-4.622,2.813l-5.023,1.809
	l-5.426,0.604l-5.225-0.604l-5.023-1.809l-4.622-2.813l-4.22-3.817l-3.416-4.622l-2.813-5.426l-1.809-5.827L6.229,72.14
	l-3.215-3.215V18.689l3.215-3.015V3.014h56.466v12.66l3.014,3.015v50.236L62.696,72.14z"/>
<path fill="#999999" d="M58.475,72.14l-0.803,6.431l-1.809,5.827l-2.211,5.426l-3.014,4.622l-3.416,3.817l-4.02,2.813l-4.22,1.809
	l-4.622,0.604l-4.421-0.604l-4.42-1.809l-3.818-2.813l-3.416-3.817l-3.014-4.622l-2.411-5.426l-1.608-5.827l-0.804-6.431
	l-2.813-3.215V18.689l2.813-3.015V3.014h48.026v12.66l2.613,3.015v50.236L58.475,72.14z"/>
<path fill="#B2B2B2" d="M54.256,72.14l-0.805,6.431l-1.205,5.827l-2.01,5.426l-2.411,4.622l-3.015,3.817l-3.215,2.813l-3.416,1.809
	l-3.818,0.604l-3.617-0.604l-3.617-1.809l-3.215-2.813L21.1,94.446l-2.412-4.622l-2.009-5.426l-1.407-5.827l-0.603-6.431
	l-2.21-3.215V18.689l2.21-3.015V3.014h39.587v12.66l2.21,3.015v50.236L54.256,72.14z"/>
<path fill="#CCCCCC" d="M47.826,72.14l-0.402,6.431l-1.005,5.827l-1.205,5.426l-1.607,4.622l-2.01,3.817l-2.211,2.813l-2.411,1.809
	l-2.612,0.604l-2.411-0.604l-2.412-1.809l-2.21-2.813l-2.009-3.817l-1.607-4.622l-1.206-5.426l-1.004-5.827L21.1,72.14l-1.608-3.215
	V18.689l1.407-3.015V3.014h26.927v12.66l1.406,3.015v50.236L47.826,72.14z"/>
<path fill="#E5E5E5" d="M41.395,72.14l-0.201,6.431l-0.401,5.827l-0.804,5.426l-0.805,4.622l-1.004,3.817l-1.206,2.813l-1.206,1.809
	l-1.406,0.604l-1.406-0.604l-1.206-1.809l-1.004-2.813l-1.005-3.817l-1.005-4.622l-0.603-5.426l-0.603-5.827l-0.201-6.431
	l-0.804-3.215V18.689l0.804-3.015V3.014h14.066v12.66l0.804,3.015v50.236L41.395,72.14z"/>
<path fill="#FFFFFF" d="M35.768,72.14v6.431l-0.2,5.827v5.426l-0.201,4.622l-0.2,3.817l-0.201,2.813l-0.604,2.412l-0.402-2.412
	l-0.201-2.813l-0.201-3.817l-0.201-4.622l-0.201-5.426l-0.201-5.827V3.014h2.813v12.66l0.201,3.015v50.236L35.768,72.14z"/>
<path fill="none" stroke="#7F7F7F" stroke-width="2" d="M6.229,15.674h56.466"/>
<path fill="none" stroke="#7F7F7F" stroke-width="2" d="M3.014,18.689h62.695"/>
<path fill="none" stroke="#7F7F7F" stroke-width="2" d="M3.014,68.925h62.695"/>
<path fill="none" stroke="#7F7F7F" stroke-width="2" d="M6.229,72.14h56.466"/>
<path fill="none" stroke="#000000" stroke-width="2" d="M62.696,72.14l-1.005,6.431l-2.01,5.827l-2.612,5.426l-3.617,4.622
	l-4.019,3.817l-4.622,2.813l-5.023,1.809l-5.426,0.604l-5.225-0.604l-5.023-1.809l-4.622-2.813l-4.22-3.817l-3.416-4.622
	l-2.813-5.426l-1.809-5.827L6.229,72.14l-3.215-3.215V18.689l3.215-3.015V3.014h56.466v12.66l3.014,3.015v50.236L62.696,72.14"/>
</svg>
