<?xml version="1.0" encoding="utf-8"?>
<!-- Generator: Adobe Illustrator 14.0.0, SVG Export Plug-In . SVG Version: 6.00 Build 43363)  -->
<!DOCTYPE svg PUBLIC "-//W3C//DTD SVG 1.1//EN" "http://www.w3.org/Graphics/SVG/1.1/DTD/svg11.dtd">
<svg version="1.1" id="图层_1" xmlns="http://www.w3.org/2000/svg" xmlns:xlink="http://www.w3.org/1999/xlink" x="0px" y="0px"
	 width="50.746px" height="106.502px" viewBox="0 0 50.746 106.502" enable-background="new 0 0 50.746 106.502"
	 xml:space="preserve">
<path fill="#CC9933" d="M18.443,2.986H31.45v7.782H18.443V2.986z"/>
<path fill="#DEAB45" d="M20.149,3.092h9.488v7.782h-9.488V3.092z"/>
<path fill="#EDBA54" d="M21.961,3.092h5.97v7.782h-5.97V3.092z"/>
<path fill="#FFCC66" d="M23.667,2.986h2.559v7.782h-2.559V2.986z"/>
<path fill="none" stroke="#000000" stroke-width="2" d="M18.443,2.986H31.45v7.782H18.443V2.986"/>
<path fill="#CC9933" d="M40.724,86.78l2.346-2.132l1.919-2.239l1.386-2.559l0.959-2.559l0.428-2.665v-0.96V21.429l-0.641-2.772
	l-2.025-2.559l-2.451-1.813l-3.092-1.492l-2.559-0.959l-2.985-0.747l-3.092-0.532l-3.305-0.32h-1.173h-1.173l-3.412,0.106
	l-3.198,0.32l-2.985,0.64l-2.878,0.853l-2.452,0.96l-2.878,1.599l-2.239,1.813L3.412,19.19l-0.427,1.706v0.533v52.237l0.427,3.625
	l0.959,2.559l1.386,2.559l1.813,2.239l1.599,1.386l0.853,0.746H40.724z"/>
<path fill="#D6A33D" d="M38.378,86.78l2.026-2.132l1.599-2.239l1.173-2.559l0.853-2.559l0.32-2.665v-0.96v-1.599V21.429
	l-0.854-3.306l-2.451-2.984l-2.346-1.706l-2.771-1.279l-3.305-1.066l-3.519-0.64l-1.919-0.213h-1.919h-1.919l-3.731,0.427
	l-3.411,0.853l-2.985,1.279l-2.665,1.492l-2.878,2.772L6.29,20.363l-0.107,1.066v1.599l0.107,3.944v3.198v3.731v3.838v11.088v4.051
	v4.797v5.757l-0.107,3.092v3.519v3.624l0.427,3.625l0.746,2.559l1.279,2.559l1.599,2.239l1.279,1.386l0.64,0.746h0.853H38.378z"/>
<path fill="#E0AD47" d="M36.14,86.78l2.133-2.878l1.492-3.092l0.853-3.519l0.319-2.665v-0.96v-1.599V21.429l-0.746-3.306
	l-1.918-2.984l-3.092-2.346l-2.452-1.279l-2.772-0.853l-3.092-0.427h-1.599h-1.599l-3.092,0.427l-2.771,0.853l-2.452,1.279
	l-3.092,2.346l-1.919,2.984l-0.64,2.239l-0.106,1.066v1.599v50.639l0.32,3.625l0.959,3.519l1.599,3.092l1.493,2.132l0.64,0.746
	h1.172H36.14z"/>
<path fill="#EBB852" d="M33.689,86.78l1.812-2.878l1.173-3.092l0.746-3.519l0.213-1.813l0.107-0.853v-0.96V21.429l-0.533-3.306
	l-1.6-2.984l-2.451-2.346l-3.092-1.706l-3.519-0.853h-1.279h-1.279l-3.518,0.853l-3.092,1.706l-2.345,2.346l-1.493,2.984
	l-0.426,2.239l-0.106,1.066v1.599v51.599l0.32,3.519l0.853,3.411l1.386,3.092l0.746,1.386l0.533,0.746h0.959H33.689z"/>
<path fill="#F5C25C" d="M31.45,86.78l1.279-2.878l0.853-3.092l0.533-3.519l0.213-1.813v-0.853v-0.96V21.429l-0.426-3.306
	l-1.173-2.984l-1.706-2.346l-2.238-1.706l-2.559-0.853h-0.96h-0.853l-3.411,1.279l-2.026,1.919l-1.599,2.665l-0.959,3.092
	l-0.213,1.173v1.066v1.599l0.106,3.944v3.198v3.731v3.838v11.088v4.051v4.797v5.757l-0.106,3.092v3.519v3.624l0.213,3.625
	l0.533,3.519l0.853,3.092l0.853,2.132l0.427,0.746h0.64H31.45z"/>
<path fill="#FFCC66" d="M29.104,86.78l0.747-2.878l0.639-3.092l0.32-3.519v-1.813l0.106-0.853v-0.96V21.429l-0.319-3.306
	l-0.641-2.984l-1.599-2.985l-2.559-1.919h-0.533h-0.64l-2.559,1.919l-1.493,2.985l-0.746,2.984l-0.106,2.239l-0.107,1.066v52.237
	l0.107,3.625l0.426,3.519l0.533,3.092l0.533,2.132l0.213,0.746H29.104z"/>
<path fill="none" stroke="#000000" stroke-width="2" d="M40.724,86.78l2.346-2.132l1.919-2.239l1.386-2.559l0.959-2.559l0.428-2.665
	v-0.96V21.429l-0.641-2.772l-2.025-2.559l-2.451-1.813l-3.092-1.492l-2.559-0.959l-2.985-0.747l-3.092-0.532l-3.305-0.32h-1.173
	h-1.173l-3.412,0.106l-3.198,0.32l-2.985,0.64l-2.878,0.853l-2.452,0.96l-2.878,1.599l-2.239,1.813L3.412,19.19l-0.427,1.706v0.533
	v52.237l0.427,3.625l0.959,2.559l1.386,2.559l1.813,2.239l1.599,1.386l0.853,0.746H40.724"/>
<path fill="#4C4C4C" stroke="#000000" stroke-width="2" d="M2.985,99.573l1.386-2.452l1.386-2.452l1.386-2.345l1.386-2.452
	l1.386-2.452l0.533-0.853H11.3h28.998l1.386,2.452l1.386,2.451l1.386,2.452l1.386,2.452l1.387,2.452l0.533,0.746l-0.32-0.319
	l-2.133-2.133l-2.132-2.132l-2.025-2.132l-1.813-1.066l-0.853,0.106l-2.238,1.813l-1.92,3.411l-1.172,2.452l-1.706,3.198
	l-0.533,0.64h-0.853H19.829l-1.706-2.665l-1.173-2.452l-1.173-2.452l-2.025-2.984l-1.493-0.96l-0.853-0.106l-2.772,2.238
	l-2.132,2.026l-2.132,2.238l-1.066,0.96L2.985,99.573z"/>
<path fill="#333333" stroke="#000000" stroke-width="2" d="M28.677,90.405l-2.559,10.234h-2.665l-2.452-10.234H28.677z"/>
<path fill="none" stroke="#000000" stroke-width="2" d="M2.985,21.855h44.349"/>
<path fill="none" stroke="#000000" stroke-width="2" d="M2.985,74.093h44.349"/>
<path fill="none" stroke="#000000" stroke-width="2" d="M18.443,5.544H31.45"/>
</svg>
