<?xml version="1.0" encoding="utf-8"?>
<!-- Generator: Adobe Illustrator 14.0.0, SVG Export Plug-In . SVG Version: 6.00 Build 43363)  -->
<!DOCTYPE svg PUBLIC "-//W3C//DTD SVG 1.1//EN" "http://www.w3.org/Graphics/SVG/1.1/DTD/svg11.dtd">
<svg version="1.1" id="图层_1" xmlns="http://www.w3.org/2000/svg" xmlns:xlink="http://www.w3.org/1999/xlink" x="0px" y="0px"
	 width="56.261px" height="106.502px" viewBox="0 0 56.261 106.502" enable-background="new 0 0 56.261 106.502"
	 xml:space="preserve">
<path fill="#4C4C4C" d="M28.13,103.484L3.014,81.382h50.233L28.13,103.484z"/>
<path fill="#4C4C4C" d="M3.014,21.906h50.233v59.477H3.014V21.906z"/>
<path fill="#4C4C4C" d="M18.687,10.855h18.888l15.673,11.051H3.014L18.687,10.855z"/>
<path fill="#4C4C4C" d="M18.687,3.019h18.888v7.836H18.687V3.019z"/>
<path fill="#666666" d="M28.13,103.484L3.014,81.382h48.625L28.13,103.484z"/>
<path fill="#666666" d="M3.014,21.906h48.625v59.477H3.014V21.906z"/>
<path fill="#666666" d="M18.687,10.855h18.084l14.868,11.051H3.014L18.687,10.855z"/>
<path fill="#666666" d="M18.687,3.019h18.084v7.836H18.687V3.019z"/>
<path fill="#7F7F7F" d="M18.687,3.019h17.28v7.836h-17.28V3.019z"/>
<path fill="#7F7F7F" d="M3.014,21.906l15.673-11.051h17.28l12.658,11.051H3.014z"/>
<path fill="#7F7F7F" d="M48.625,21.906v59.477H3.014V21.906H48.625z"/>
<path fill="#7F7F7F" d="M28.13,103.484L3.014,81.382h45.611L28.13,103.484z"/>
<path fill="#B2B2B2" d="M18.687,3.019h16.477v7.836H18.687V3.019z"/>
<path fill="#B2B2B2" d="M3.014,21.906l15.673-11.051h16.477L45.41,21.906H3.014z"/>
<path fill="#B2B2B2" d="M45.41,21.906v59.477H3.014V21.906H45.41z"/>
<path fill="#B2B2B2" d="M28.13,103.484L3.014,81.382H45.41L28.13,103.484z"/>
<path fill="#CCCCCC" d="M18.687,3.019h14.869v7.836H18.687V3.019z"/>
<path fill="#CCCCCC" d="M3.014,21.906l15.673-11.051h14.869l4.019,11.051H3.014z"/>
<path fill="#CCCCCC" d="M37.574,21.906v59.477H3.014V21.906H37.574z"/>
<path fill="#CCCCCC" d="M28.13,103.484L3.014,81.382h34.561L28.13,103.484z"/>
<path fill="#E5E5E5" d="M18.687,3.019h9.443v7.836h-9.443V3.019z"/>
<path fill="#E5E5E5" d="M3.014,21.906l15.673-11.051h9.443l-1.607,11.051H3.014z"/>
<path fill="#E5E5E5" d="M26.523,21.906v59.477H3.014V21.906H26.523z"/>
<path fill="#E5E5E5" d="M28.13,103.484L3.014,81.382h23.509L28.13,103.484z"/>
<path fill="#FFFFFF" d="M18.687,3.019h4.822v7.836h-4.822V3.019z"/>
<path fill="#FFFFFF" d="M3.014,21.906l15.673-11.051h4.822l-7.836,11.051H3.014z"/>
<path fill="#FFFFFF" d="M15.673,21.906v59.477H3.014V21.906H15.673z"/>
<path fill="#FFFFFF" d="M28.13,103.484L3.014,81.382h12.659L28.13,103.484z"/>
<path fill="#E5E5E5" d="M18.687,3.019h3.215v7.836h-3.215V3.019z"/>
<path fill="#E5E5E5" d="M3.014,21.906l15.673-11.051h3.215L10.85,21.906H3.014z"/>
<path fill="#E5E5E5" d="M10.85,21.906v59.477H3.014V21.906H10.85z"/>
<path fill="#E5E5E5" d="M28.13,103.484L3.014,81.382h7.836L28.13,103.484z"/>
<path fill="#CCCCCC" d="M18.687,3.019h1.607v7.836h-1.607V3.019z"/>
<path fill="#CCCCCC" d="M3.014,21.906l15.673-11.051h1.607L6.229,21.906H3.014z"/>
<path fill="#CCCCCC" d="M6.229,21.906v59.477H3.014V21.906H6.229z"/>
<path fill="#CCCCCC" d="M28.13,103.484L3.014,81.382h3.215L28.13,103.484z"/>
<path fill="none" stroke="#000000" stroke-width="2" d="M3.014,21.906h50.233v59.677H3.014V21.906"/>
<path fill="none" stroke="#000000" stroke-width="2" d="M3.014,21.906l15.673-11.051h18.888l15.673,11.051H3.014"/>
<path fill="none" stroke="#000000" stroke-width="2" d="M18.687,10.855h18.888V3.019H18.687V10.855"/>
<path fill="none" stroke="#000000" stroke-width="2" d="M3.014,81.382l25.116,22.102l25.117-22.102H3.014"/>
</svg>
