<?xml version="1.0" encoding="utf-8"?>
<!-- Generator: Adobe Illustrator 14.0.0, SVG Export Plug-In . SVG Version: 6.00 Build 43363)  -->
<!DOCTYPE svg PUBLIC "-//W3C//DTD SVG 1.1//EN" "http://www.w3.org/Graphics/SVG/1.1/DTD/svg11.dtd">
<svg version="1.1" id="图层_1" xmlns="http://www.w3.org/2000/svg" xmlns:xlink="http://www.w3.org/1999/xlink" x="0px" y="0px"
	 width="47.822px" height="106.502px" viewBox="0 0 47.822 106.502" enable-background="new 0 0 47.822 106.502"
	 xml:space="preserve">
<path fill="#7F7F7F" stroke="#000000" stroke-width="2" d="M44.808,19.696l-0.401-3.416l-1.206-3.015l-2.01-2.813L38.78,7.84
	l-3.215-2.01l-3.416-1.607l-4.019-0.804l-4.22-0.401l-4.22,0.401l-3.817,0.804L12.257,5.83L9.243,7.84l-2.612,2.612l-2.009,2.813
	L3.416,16.28l-0.401,3.416v83.789h41.794V19.696z"/>
<path fill="#999999" d="M40.79,19.696l-0.402-3.416l-1.004-3.015l-1.407-2.813l-2.21-2.612l-2.411-2.01l-2.813-1.607l-3.215-0.804
	l-3.416-0.401l-3.416,0.401l-3.014,0.804L14.669,5.83l-2.612,2.01l-2.01,2.612L8.64,13.265L7.635,16.28l-0.402,3.416v83.789H40.79
	V19.696z"/>
<path fill="#B2B2B2" d="M34.36,19.696l-0.201-3.416l-0.603-3.015l-1.005-2.813L31.345,7.84l-1.607-2.01l-1.809-1.607l-1.808-0.804
	l-2.211-0.401l-2.21,0.401l-1.809,0.804L18.084,5.83l-1.607,2.01l-1.205,2.612l-1.005,2.813l-0.603,3.015l-0.201,3.416v83.789H34.36
	V19.696z"/>
<path fill="#CCCCCC" d="M28.131,19.696V16.28l-0.401-3.015l-0.201-2.813L26.926,7.84l-0.604-2.01l-0.804-1.607l-0.804-0.804
	l-0.804-0.401l-0.804,0.401l-0.804,0.804L21.701,5.83l-0.804,2.01l-0.402,2.612l-0.401,2.813l-0.402,3.015v3.416v83.789h8.439
	V19.696z"/>
<path fill="none" stroke="#000000" stroke-width="2" d="M3.014,19.696h41.794"/>
<path fill="none" stroke="#000000" stroke-width="2" d="M44.808,19.696l-0.401-3.416l-1.206-3.015l-2.01-2.813L38.78,7.84
	l-3.215-2.01l-3.416-1.607l-4.019-0.804l-4.22-0.401l-4.22,0.401l-3.817,0.804L12.257,5.83L9.243,7.84l-2.612,2.612l-2.009,2.813
	L3.416,16.28l-0.401,3.416v83.789h41.794V19.696"/>
</svg>
