<?xml version="1.0" encoding="utf-8"?>
<!-- Generator: Adobe Illustrator 14.0.0, SVG Export Plug-In . SVG Version: 6.00 Build 43363)  -->
<!DOCTYPE svg PUBLIC "-//W3C//DTD SVG 1.1//EN" "http://www.w3.org/Graphics/SVG/1.1/DTD/svg11.dtd">
<svg version="1.1" id="图层_1" xmlns="http://www.w3.org/2000/svg" xmlns:xlink="http://www.w3.org/1999/xlink" x="0px" y="0px"
	 width="41.58px" height="106.502px" viewBox="0 0 41.58 106.502" enable-background="new 0 0 41.58 106.502" xml:space="preserve">
<path fill="#666638" d="M14.287,103.41V90.405L2.986,73.987V18.55h35.501v55.437L27.293,90.405v13.006H14.287z"/>
<path fill="#7A7A51" d="M15.993,103.41V90.405L5.651,73.987V18.55h30.277v55.437L26.44,90.405v13.006H15.993z"/>
<path fill="#919170" d="M16.845,103.41V90.405L9.063,73.987V18.55H33.37v55.437l-7.782,16.418v13.006H16.845z"/>
<path fill="#A6A68A" d="M17.698,103.41V90.405l-6.076-16.418V18.55h19.083v55.437l-6.077,16.418v13.006H17.698z"/>
<path fill="#BABAA6" d="M18.552,103.41V90.405l-4.265-16.418V18.55h13.859v55.437l-4.371,16.418v13.006H18.552z"/>
<path fill="#D1D1C2" d="M19.51,103.41V90.405l-2.665-16.418V18.55h8.742v55.437l-2.665,16.418v13.006H19.51z"/>
<path fill="#E5E5DD" d="M20.364,103.41V90.405L19.51,73.987V18.55h3.412v55.437l-1.706,16.418v13.006H20.364z"/>
<path fill="none" stroke="#000000" stroke-width="2" d="M14.287,103.41V90.405L2.986,73.987V18.55h35.501v55.437L27.293,90.405
	v13.006H14.287"/>
<path fill="#333300" d="M9.916,18.55h22.602V2.985H9.916V18.55z"/>
<path fill="#47470F" d="M11.622,18.55h19.083V2.985H11.622V18.55z"/>
<path fill="#5E5E2E" d="M13.434,18.55h15.564V2.985H13.434V18.55z"/>
<path fill="#737348" d="M15.139,18.55h12.153V2.985H15.139V18.55z"/>
<path fill="#878763" d="M16.845,18.55h8.742V2.985h-8.742V18.55z"/>
<path fill="#9E9E7F" d="M18.552,18.55h5.224V2.985h-5.224V18.55z"/>
<path fill="#B2B29B" d="M20.364,18.55h1.705V2.985h-1.705V18.55z"/>
<path fill="none" stroke="#000000" stroke-width="2" d="M9.916,18.55h22.602V2.985H9.916V18.55"/>
<path fill="none" stroke="#000000" stroke-width="2" d="M2.986,74.093h35.501"/>
<path fill="none" stroke="#000000" stroke-width="2" d="M14.5,90.298h12.474"/>
</svg>
