<?xml version="1.0" encoding="utf-8"?>
<!-- Generator: Adobe Illustrator 14.0.0, SVG Export Plug-In . SVG Version: 6.00 Build 43363)  -->
<!DOCTYPE svg PUBLIC "-//W3C//DTD SVG 1.1//EN" "http://www.w3.org/Graphics/SVG/1.1/DTD/svg11.dtd">
<svg version="1.1" id="图层_1" xmlns="http://www.w3.org/2000/svg" xmlns:xlink="http://www.w3.org/1999/xlink" x="0px" y="0px"
	 width="72.921px" height="106.502px" viewBox="0 0 72.921 106.502" enable-background="new 0 0 72.921 106.502"
	 xml:space="preserve">
<path fill="#999999" d="M69.936,92.963v-79.53l-1.065-2.559l-2.239-1.919L64.179,7.57l-2.984-1.173L57.783,5.33l-4.051-0.853
	l-2.772-0.427l-2.985-0.427l-3.197-0.319l-3.199-0.213h-1.705l-1.706-0.107h-1.706l-3.412,0.107l-3.305,0.106l-3.198,0.213
	l-3.092,0.427l-2.985,0.426l-2.771,0.533l-3.731,0.96l-3.305,1.066L7.783,8.103L5.011,9.808l-1.919,2.559L2.985,12.9v0.533v79.53
	l1.066,2.559l2.239,2.025l2.345,1.279l2.985,1.173l3.518,1.066l3.944,0.853l2.878,0.427l2.985,0.426l3.198,0.32l3.198,0.213
	l1.706,0.106h1.706h1.706h3.412l3.305-0.213l3.198-0.213l3.092-0.427l2.878-0.427l2.771-0.426l3.838-0.96l3.306-1.173l2.772-1.173
	l2.878-1.812l1.812-2.559l0.214-0.533V92.963z"/>
<path fill="#A8A8A8" d="M65.458,92.963V78.037v-2.559v-2.451V30.81v-5.011V13.433L64.5,10.874l-2.559-2.452l-3.092-1.599
	L55.97,5.651l-3.305-0.96l-3.625-0.64l-3.944-0.64l-4.265-0.319l-1.386-0.107h-1.493h-1.492L32.09,3.092l-4.264,0.319l-3.945,0.64
	l-3.625,0.64l-3.198,0.96L14.18,6.823l-2.452,1.172L9.275,9.808l-1.599,2.559L7.57,12.9l-0.106,0.533v2.452v12.473l0.106,4.904
	v42.217L7.463,80.49v12.474l0.959,2.559l2.559,2.346l3.198,1.705l2.878,1.066l3.198,0.96l3.625,0.746l3.945,0.64l4.264,0.319h1.386
	l1.493,0.106h1.493l4.371-0.106l4.265-0.319l3.944-0.64l3.625-0.746l3.305-0.96l2.879-1.066l2.346-1.279l2.451-1.705l1.706-2.559
	L65.458,92.963z"/>
<path fill="#B8B8B8" d="M60.875,92.963V78.037v-2.559v-2.451V30.81v-5.011V13.433l-0.746-2.559l-2.239-2.452l-2.559-1.599
	L52.026,5.33l-2.878-0.853l-3.199-0.64l-3.411-0.533l-3.625-0.32H37.74h-1.279l-3.731,0.107l-3.518,0.319l-3.305,0.64l-3.092,0.64
	l-2.772,0.96l-3.092,1.492L14.5,8.849l-1.919,2.452L12.154,12.9l-0.106,0.533v2.452v12.473l0.106,4.904v42.217l-0.106,5.011v12.474
	l0.746,2.559l2.239,2.346l2.666,1.705l3.305,1.493l2.772,0.853l3.198,0.64l3.412,0.533l3.625,0.213l1.279,0.106h1.173l3.731-0.106
	l3.519-0.319l3.305-0.64l3.092-0.746l2.771-0.96l3.198-1.492l2.346-1.706l1.919-2.452L60.875,92.963z"/>
<path fill="#C4C4C4" d="M56.396,92.963V78.037v-2.559v-2.451V30.81v-5.011V13.433l-0.959-3.092L52.986,7.57l-2.453-1.493
	l-2.984-1.386l-3.305-0.853l-3.732-0.64l-2.025-0.214h-2.025h-2.026l-3.838,0.427l-3.625,0.853L23.774,5.33l-2.666,1.493
	l-2.985,2.559l-1.386,2.984l-0.107,1.066v2.452v12.473v4.904v42.217v5.011v12.474l0.853,3.092l2.452,2.771l2.452,1.493l2.985,1.279
	l3.412,0.959l3.625,0.64l2.025,0.106l2.026,0.106l2.025-0.106l3.838-0.319l3.625-0.854l3.199-1.065l2.664-1.493l2.985-2.559
	l1.493-2.984L56.396,92.963z"/>
<path fill="#D4D4D4" d="M51.812,92.963V78.037l0.107-2.559v-2.451V30.81l-0.107-5.011V13.433l-0.639-3.092L49.148,7.57L46.269,5.33
	l-2.452-1.066l-2.772-0.853L38.06,2.985h-1.599h-1.599l-2.985,0.427l-2.771,0.853L26.653,5.33L23.774,7.57l-1.919,2.771l-0.64,2.025
	l-0.107,1.066v2.452v12.473v4.904v42.217v5.011v12.474l0.747,3.092l1.919,2.771l2.878,2.239l2.452,1.065l2.771,0.854l2.985,0.319
	l1.599,0.106l1.599-0.106l2.984-0.319l2.772-0.854l2.452-1.065l2.879-2.239l2.025-2.771L51.812,92.963z"/>
<path fill="#E3E3E3" d="M47.335,92.963V78.037v-2.559v-2.451V30.81v-5.011V13.433l-0.533-3.092L45.416,7.57L43.39,5.33l-2.665-1.492
	l-3.198-0.854h-1.066h-1.066l-3.091,0.854L29.531,5.33L27.506,7.57l-1.386,2.771l-0.426,2.025v1.066v2.452v12.473v4.904v42.217
	v5.011v12.474l0.426,3.092l1.386,2.771l2.025,2.239l2.772,1.492l3.091,0.746l1.066,0.106l1.066-0.106l3.198-0.746l2.665-1.492
	l2.025-2.239l1.387-2.771L47.335,92.963z"/>
<path fill="#F2F2F2" d="M42.751,92.963v-79.53l-0.32-3.092L41.685,7.57l-1.706-2.772L37.74,3.198l-0.639-0.106l-0.64-0.107
	l-0.64,0.107l-2.878,1.705L31.237,7.57l-0.853,2.771l-0.213,2.025v1.066v79.53l0.213,3.092l0.853,2.771l1.706,2.879l2.239,1.492
	l0.64,0.213h0.64h0.64l2.878-1.705l1.706-2.879l0.746-2.771l0.32-2.025V92.963z"/>
<path fill="none" stroke="#000000" stroke-width="2" d="M69.936,92.963v-79.53l-1.065-2.559l-2.239-1.919L64.179,7.57l-2.984-1.173
	L57.783,5.33l-4.051-0.853l-2.772-0.427l-2.985-0.427l-3.197-0.319l-3.199-0.213h-1.705l-1.706-0.107h-1.706l-3.412,0.107
	l-3.305,0.106l-3.198,0.213l-3.092,0.427l-2.985,0.426l-2.771,0.533l-3.731,0.96l-3.305,1.066L7.783,8.103L5.011,9.808l-1.919,2.559
	L2.985,12.9v0.533v79.53l1.066,2.559l2.239,2.025l2.345,1.279l2.985,1.173l3.518,1.066l3.944,0.853l2.878,0.427l2.985,0.426
	l3.198,0.32l3.198,0.213l1.706,0.106h1.706h1.706h3.412l3.305-0.213l3.198-0.213l3.092-0.427l2.878-0.427l2.771-0.426l3.838-0.96
	l3.306-1.173l2.772-1.173l2.878-1.812l1.812-2.559l0.214-0.533V92.963"/>
<path fill="none" stroke="#000000" stroke-width="2" d="M2.985,92.963h66.951"/>
<path fill="none" stroke="#000000" stroke-width="2" d="M19.723,92.963v-79.53"/>
<path fill="none" stroke="#000000" stroke-width="2" d="M2.985,13.433h66.951"/>
<path fill="#7F7F7F" d="M7.144,10.341h2.132v2.025H7.144V10.341z"/>
<path fill="#7F7F7F" d="M13.433,10.341h2.132v2.025h-2.132V10.341z"/>
<path fill="#7F7F7F" d="M19.723,10.341h2.132v2.025h-2.132V10.341z"/>
<path fill="#7F7F7F" d="M26.013,10.341h2.025v2.025h-2.025V10.341z"/>
<path fill="#7F7F7F" d="M32.196,10.341h2.132v2.025h-2.132V10.341z"/>
<path fill="#7F7F7F" d="M38.486,10.341h2.133v2.025h-2.133V10.341z"/>
<path fill="#7F7F7F" d="M44.777,10.341h2.132v2.025h-2.132V10.341z"/>
<path fill="#7F7F7F" d="M51.066,10.341h2.133v2.025h-2.133V10.341z"/>
<path fill="#7F7F7F" d="M57.356,10.341h2.132v2.025h-2.132V10.341z"/>
<path fill="#7F7F7F" d="M63.646,10.341h2.133v2.025h-2.133V10.341z"/>
<path fill="#7F7F7F" d="M21.322,92.003v-2.132h2.025v2.132H21.322z"/>
<path fill="#7F7F7F" d="M21.322,85.714v-2.133h2.025v2.133H21.322z"/>
<path fill="#7F7F7F" d="M21.322,79.424v-2.133h2.025v2.133H21.322z"/>
<path fill="#7F7F7F" d="M21.322,73.134v-2.133h2.025v2.133H21.322z"/>
<path fill="#7F7F7F" d="M21.322,66.844v-2.025h2.025v2.025H21.322z"/>
<path fill="#7F7F7F" d="M21.322,60.554v-2.132h2.025v2.132H21.322z"/>
<path fill="#7F7F7F" d="M21.322,54.264v-2.132h2.025v2.132H21.322z"/>
<path fill="#7F7F7F" d="M21.322,47.974v-2.025h2.025v2.025H21.322z"/>
<path fill="#7F7F7F" d="M21.322,41.684v-2.025h2.025v2.025H21.322z"/>
<path fill="#7F7F7F" d="M21.322,35.501v-2.133h2.025v2.133H21.322z"/>
<path fill="#7F7F7F" d="M21.322,29.211v-2.133h2.025v2.133H21.322z"/>
<path fill="#7F7F7F" d="M21.322,22.921v-2.133h2.025v2.133H21.322z"/>
<path fill="#7F7F7F" d="M21.322,16.631v-2.132h2.025v2.132H21.322z"/>
<path fill="#7F7F7F" d="M7.144,94.03h2.132v2.132H7.144V94.03z"/>
<path fill="#7F7F7F" d="M13.433,94.03h2.132v2.132h-2.132V94.03z"/>
<path fill="#7F7F7F" d="M19.723,94.03h2.132v2.132h-2.132V94.03z"/>
<path fill="#7F7F7F" d="M26.013,94.03h2.025v2.132h-2.025V94.03z"/>
<path fill="#7F7F7F" d="M32.196,94.03h2.132v2.132h-2.132V94.03z"/>
<path fill="#7F7F7F" d="M38.486,94.03h2.133v2.132h-2.133V94.03z"/>
<path fill="#7F7F7F" d="M44.777,94.03h2.132v2.132h-2.132V94.03z"/>
<path fill="#7F7F7F" d="M51.066,94.03h2.133v2.132h-2.133V94.03z"/>
<path fill="#7F7F7F" d="M57.356,94.03h2.132v2.132h-2.132V94.03z"/>
<path fill="#7F7F7F" d="M63.646,94.03h2.133v2.132h-2.133V94.03z"/>
</svg>
