<?xml version="1.0" encoding="utf-8"?>
<!-- Generator: Adobe Illustrator 14.0.0, SVG Export Plug-In . SVG Version: 6.00 Build 43363)  -->
<!DOCTYPE svg PUBLIC "-//W3C//DTD SVG 1.1//EN" "http://www.w3.org/Graphics/SVG/1.1/DTD/svg11.dtd">
<svg version="1.1" id="图层_1" xmlns="http://www.w3.org/2000/svg" xmlns:xlink="http://www.w3.org/1999/xlink" x="0px" y="0px"
	 width="96.271px" height="106.502px" viewBox="0 0 96.271 106.502" enable-background="new 0 0 96.271 106.502"
	 xml:space="preserve">
<path fill="#4C4C4C" d="M3.811,49.741h12.636v53.751H3.811V49.741z"/>
<path fill="#666666" d="M3.811,49.741h11.833v53.751H3.811V49.741z"/>
<path fill="#999999" d="M3.811,49.741H14.04v53.751H3.811V49.741z"/>
<path fill="#B2B2B2" d="M3.811,49.741h8.625v53.751H3.811V49.741z"/>
<path fill="#CCCCCC" d="M3.811,49.741h7.221v53.751H3.811V49.741z"/>
<path fill="#B2B2B2" d="M3.811,49.741h0.802v53.751H3.811V49.741z"/>
<path fill="#FFFFFF" d="M5.415,49.741h3.209v53.751H5.415V49.741z"/>
<path fill="none" stroke="#000000" stroke-width="2" d="M3.811,49.741h12.636v53.751H3.811V49.741"/>
<path fill="#333333" d="M3.008,75.815h14.24v1.604H3.008V75.815z"/>
<path fill="#7F7F7F" d="M3.008,75.815h14.24v0.803H3.008V75.815z"/>
<path fill="#333333" d="M79.825,49.741H92.46v53.751H79.825V49.741z"/>
<path fill="#4C4C4C" d="M79.825,49.741h11.834v53.751H79.825V49.741z"/>
<path fill="#7F7F7F" d="M79.825,49.741h10.229v53.751H79.825V49.741z"/>
<path fill="#999999" d="M79.825,49.741h8.625v53.751h-8.625V49.741z"/>
<path fill="#B2B2B2" d="M79.825,49.741h7.02v53.751h-7.02V49.741z"/>
<path fill="#7F7F7F" d="M79.825,49.741h0.803v53.751h-0.803V49.741z"/>
<path fill="#CCCCCC" d="M81.229,49.741h3.209v53.751h-3.209V49.741z"/>
<path fill="none" stroke="#000000" stroke-width="2" d="M79.825,49.741H92.46v53.751H79.825V49.741"/>
<path fill="#333333" d="M78.823,75.815h14.439v1.604H78.823V75.815z"/>
<path fill="#7F7F7F" d="M78.823,75.815h14.439v0.803H78.823V75.815z"/>
<circle fill="#4C4C4C" cx="48.136" cy="48.939" r="44.325"/>
<circle fill="#666666" cx="47.734" cy="48.538" r="43.122"/>
<circle fill="#7F7F7F" cx="46.932" cy="47.736" r="42.319"/>
<circle fill="#999999" cx="46.13" cy="46.933" r="40.714"/>
<circle fill="#B2B2B2" cx="44.927" cy="45.73" r="37.907"/>
<circle fill="#CCCCCC" cx="43.723" cy="44.527" r="35.099"/>
<circle fill="#E5E5E5" cx="42.119" cy="42.922" r="31.088"/>
<circle fill="none" stroke="#000000" stroke-width="2" cx="48.136" cy="48.939" r="44.325"/>
<ellipse fill="none" stroke="#CCCCCC" stroke-width="2" cx="47.935" cy="48.939" rx="30.687" ry="44.325"/>
<ellipse fill="none" stroke="#CCCCCC" stroke-width="2" cx="48.136" cy="48.939" rx="12.635" ry="44.325"/>
<path fill="none" stroke="#CCCCCC" stroke-width="2" d="M11.031,49.741H52.95"/>
<path fill="none" stroke="#CCCCCC" stroke-width="2" d="M19.655,41.719h41.917"/>
<path fill="none" stroke="#CCCCCC" stroke-width="2" d="M15.644,27.679h18.251"/>
<path fill="none" stroke="#CCCCCC" stroke-width="2" d="M29.884,21.261h41.918"/>
<path fill="none" stroke="#CCCCCC" stroke-width="2" d="M40.915,57.564h41.918"/>
<path fill="none" stroke="#CCCCCC" stroke-width="2" d="M19.655,73.408h33.896"/>
<path fill="#4C4C4C" d="M41.717,49.741h12.636v53.751H41.717V49.741z"/>
<path fill="#666666" d="M41.717,49.741h11.834v53.751H41.717V49.741z"/>
<path fill="#999999" d="M41.717,49.741h10.43v53.751h-10.43V49.741z"/>
<path fill="#B2B2B2" d="M41.717,49.741h8.825v53.751h-8.825V49.741z"/>
<path fill="#CCCCCC" d="M41.717,49.741h7.221v53.751h-7.221V49.741z"/>
<path fill="#B2B2B2" d="M41.717,49.741h0.803v53.751h-0.803V49.741z"/>
<path fill="#FFFFFF" d="M43.322,49.741h3.209v53.751h-3.209V49.741z"/>
<path fill="none" stroke="#000000" stroke-width="2" d="M41.717,49.741h12.636v53.751H41.717V49.741"/>
<path fill="none" stroke="#000000" stroke-width="2" d="M40.915,4.013h15.042"/>
<path fill="none" stroke="#000000" stroke-width="2" d="M40.915,3.21h15.042"/>
<path fill="none" stroke="#000000" stroke-width="2" d="M42.52,5.416V3.01"/>
<path fill="none" stroke="#000000" stroke-width="2" d="M54.353,5.416V3.01"/>
<path fill="none" stroke="#000000" stroke-width="2" d="M46.531,5.416V3.01"/>
<path fill="none" stroke="#000000" stroke-width="2" d="M50.342,5.416V3.01"/>
<path fill="none" stroke="#000000" stroke-width="2" d="M17.249,49.741v53.751"/>
<path fill="none" stroke="#000000" stroke-width="2" d="M19.655,49.741v53.751"/>
<path fill="none" stroke="#000000" stroke-width="2" d="M17.249,101.888h2.407"/>
<path fill="none" stroke="#000000" stroke-width="2" d="M17.249,100.283h2.407"/>
<path fill="none" stroke="#000000" stroke-width="2" d="M17.249,98.679h2.407"/>
<path fill="none" stroke="#000000" stroke-width="2" d="M17.249,97.276h2.407"/>
<path fill="none" stroke="#000000" stroke-width="2" d="M17.249,95.671h2.407"/>
<path fill="none" stroke="#000000" stroke-width="2" d="M17.249,94.067h2.407"/>
<path fill="none" stroke="#000000" stroke-width="2" d="M17.249,92.462h2.407"/>
<path fill="none" stroke="#000000" stroke-width="2" d="M17.249,90.858h2.407"/>
<path fill="none" stroke="#000000" stroke-width="2" d="M17.249,89.252h2.407"/>
<path fill="none" stroke="#000000" stroke-width="2" d="M17.249,87.648h2.407"/>
<path fill="none" stroke="#000000" stroke-width="2" d="M17.249,86.043h2.407"/>
<path fill="none" stroke="#000000" stroke-width="2" d="M17.249,84.439h2.407"/>
<path fill="none" stroke="#000000" stroke-width="2" d="M17.249,83.035h2.407"/>
<path fill="none" stroke="#000000" stroke-width="2" d="M17.249,81.23h2.407"/>
<path fill="none" stroke="#000000" stroke-width="2" d="M17.249,79.826h2.407"/>
<path fill="none" stroke="#000000" stroke-width="2" d="M17.249,78.222h2.407"/>
<path fill="none" stroke="#000000" stroke-width="2" d="M17.249,76.617h2.407"/>
<path fill="none" stroke="#000000" stroke-width="2" d="M17.249,75.013h2.407"/>
<path fill="none" stroke="#000000" stroke-width="2" d="M17.249,73.408h2.407"/>
<path fill="none" stroke="#000000" stroke-width="2" d="M17.249,71.804h2.407"/>
<path fill="none" stroke="#000000" stroke-width="2" d="M17.249,70.199h2.407"/>
<path fill="none" stroke="#000000" stroke-width="2" d="M17.249,68.595h2.407"/>
<path fill="none" stroke="#000000" stroke-width="2" d="M17.249,67.191h2.407"/>
<path fill="none" stroke="#000000" stroke-width="2" d="M17.249,65.586h2.407"/>
<path fill="none" stroke="#000000" stroke-width="2" d="M17.249,63.781h2.407"/>
<path fill="none" stroke="#000000" stroke-width="2" d="M17.249,62.377h2.407"/>
<path fill="none" stroke="#000000" stroke-width="2" d="M17.249,60.773h2.407"/>
<path fill="none" stroke="#000000" stroke-width="2" d="M17.249,59.168h2.407"/>
<path fill="none" stroke="#000000" stroke-width="2" d="M17.249,57.564h2.407"/>
<path fill="none" stroke="#000000" stroke-width="2" d="M17.249,55.959h2.407"/>
<path fill="none" stroke="#000000" stroke-width="2" d="M17.249,54.555h2.407"/>
<path fill="none" stroke="#000000" stroke-width="2" d="M17.249,52.95h2.407"/>
<path fill="none" stroke="#000000" stroke-width="2" d="M17.249,51.146h2.407"/>
<path fill="none" stroke="#000000" stroke-width="2" d="M17.249,48.137h2.407"/>
<path fill="none" stroke="#000000" stroke-width="2" d="M17.249,46.532h2.407"/>
<path fill="none" stroke="#000000" stroke-width="2" d="M17.249,44.928h2.407"/>
<path fill="none" stroke="#000000" stroke-width="2" d="M17.449,43.524h2.407"/>
<path fill="none" stroke="#000000" stroke-width="2" d="M17.65,41.919h2.407"/>
<path fill="none" stroke="#000000" stroke-width="2" d="M17.65,40.315h2.407"/>
<path fill="none" stroke="#000000" stroke-width="2" d="M18.051,38.71h2.407"/>
<path fill="none" stroke="#000000" stroke-width="2" d="M18.251,37.106h2.407"/>
<path fill="none" stroke="#000000" stroke-width="2" d="M18.452,35.501h2.407"/>
<path fill="none" stroke="#000000" stroke-width="2" d="M18.853,33.897h2.407"/>
<path fill="none" stroke="#000000" stroke-width="2" d="M19.455,32.292h2.407"/>
<path fill="none" stroke="#000000" stroke-width="2" d="M20.057,30.688h2.005"/>
<path fill="none" stroke="#000000" stroke-width="2" d="M20.458,29.283h2.207"/>
<path fill="none" stroke="#000000" stroke-width="2" d="M21.26,27.679h1.805"/>
<path fill="none" stroke="#000000" stroke-width="2" d="M21.661,26.074h2.005"/>
<path fill="none" stroke="#000000" stroke-width="2" d="M22.463,24.47h1.805"/>
<path fill="none" stroke="#000000" stroke-width="2" d="M23.065,22.865h2.006"/>
<path fill="none" stroke="#000000" stroke-width="2" d="M24.068,21.261h1.805"/>
<path fill="none" stroke="#000000" stroke-width="2" d="M24.87,19.656h1.805"/>
<path fill="none" stroke="#000000" stroke-width="2" d="M26.073,18.052h1.604"/>
<path fill="none" stroke="#000000" stroke-width="2" d="M27.277,16.448h1.404"/>
<path fill="none" stroke="#000000" stroke-width="2" d="M28.28,14.843h1.604"/>
<path fill="none" stroke="#000000" stroke-width="2" d="M29.684,13.439h1.404"/>
<path fill="none" stroke="#000000" stroke-width="2" d="M31.288,11.834h1.404"/>
<path fill="none" stroke="#000000" stroke-width="2" d="M33.294,10.03h1.203"/>
<path fill="none" stroke="#000000" stroke-width="2" d="M35.299,8.625h1.003"/>
<path fill="none" stroke="#000000" stroke-width="2" d="M17.249,49.741h2.407"/>
<path fill="none" stroke="#000000" stroke-width="2" d="M19.655,49.34v-0.2v-0.201l0.201-4.612l0.401-4.413l0.602-4.212l1.003-4.011
	l1.203-3.811l1.404-3.812l1.805-3.409l1.805-3.009l2.006-3.008l2.206-2.407l2.407-2.206l2.407-2.006l2.607-1.403l2.808-1.204
	l2.808-0.602l2.808-0.2"/>
<path fill="none" stroke="#000000" stroke-width="2" d="M17.249,49.34v-0.2v-0.201l0.201-4.612l0.401-4.413l0.802-4.212l1.003-4.011
	l1.404-3.811l1.404-3.812l1.805-3.409l2.005-3.009l2.207-3.008l2.407-2.407l2.607-2.206l2.607-2.006L38.91,6.62l3.008-1.204
	l3.009-0.602l3.209-0.2"/>
<path fill="#333333" d="M78.823,101.086h14.439v1.604H78.823V101.086z"/>
<path fill="#333333" d="M40.915,75.815h14.24v1.604h-14.24V75.815z"/>
<path fill="#333333" d="M40.915,101.086h14.24v1.604h-14.24V101.086z"/>
<path fill="#333333" d="M3.008,101.086h14.24v1.604H3.008V101.086z"/>
<path fill="#7F7F7F" d="M40.915,75.815h14.24v0.803h-14.24V75.815z"/>
<path fill="#7F7F7F" d="M78.823,101.086h14.439v0.802H78.823V101.086z"/>
<path fill="#7F7F7F" d="M40.915,101.086h14.24v0.802h-14.24V101.086z"/>
<path fill="#7F7F7F" d="M3.008,101.086h14.24v0.802H3.008V101.086z"/>
</svg>
