<?xml version="1.0" encoding="utf-8"?>
<!-- Generator: Adobe Illustrator 14.0.0, SVG Export Plug-In . SVG Version: 6.00 Build 43363)  -->
<!DOCTYPE svg PUBLIC "-//W3C//DTD SVG 1.1//EN" "http://www.w3.org/Graphics/SVG/1.1/DTD/svg11.dtd">
<svg version="1.1" id="图层_1" xmlns="http://www.w3.org/2000/svg" xmlns:xlink="http://www.w3.org/1999/xlink" x="0px" y="0px"
	 width="144.749px" height="65.002px" viewBox="0 0 144.749 65.002" enable-background="new 0 0 144.749 65.002"
	 xml:space="preserve">
<path fill="#B2B2B2" stroke="#000000" stroke-width="2" d="M129.182,60.904H15.568l-2.186-0.546l-4.097-4.37l-1.911-3.277
	l-1.366-4.369l-1.092-4.644l-0.547-5.462l-0.272-5.735l0.272-5.735l0.547-5.189l1.092-4.916l1.366-4.097l1.911-3.55l4.097-4.37
	l2.186-0.546h113.614l2.185,0.546l4.097,4.37l1.912,3.55l1.365,4.097l1.093,4.916l0.546,5.189l0.273,5.735l-0.273,5.735
	l-0.546,5.462l-1.093,4.644l-1.365,4.369l-1.912,3.277l-4.097,4.37L129.182,60.904z"/>
<path fill="#7F7F7F" d="M15.568,4.917v7.101h4.916h6.008h6.828h7.647h8.193H57.9h9.013h9.013h9.013h9.013h8.739h8.193h7.647h6.827
	h6.009h4.916l-0.819-1.639l-1.093-2.185l-1.911-2.186l-2.458-1.092H15.568z"/>
<path fill="#7F7F7F" d="M15.568,60.358v-7.101h4.916h6.008h6.828h7.647h8.193H57.9h9.013h9.013h9.013h9.013h8.739h8.193h7.647h6.827
	h6.009h4.916l-0.819,1.639l-1.093,2.185l-1.911,1.912l-2.458,1.365H15.568z"/>
<path fill="#999999" d="M15.568,12.017v10.651h123.719l-0.819-4.643l-1.639-4.644l-0.546-1.365H15.568z"/>
<path fill="#999999" d="M15.568,53.258V42.606h123.719l-0.819,4.369l-1.639,4.916l-0.546,1.366H15.568z"/>
<ellipse fill="#999999" stroke="#000000" stroke-width="2" cx="15.294" cy="32.501" rx="11.197" ry="28.403"/>
<ellipse fill="none" stroke="#000000" stroke-width="2" cx="16.933" cy="32.501" rx="11.471" ry="28.403"/>
<path fill="#B2B2B2" stroke="#000000" stroke-width="2" d="M13.11,60.904H6.281l-0.819-0.546l-0.546-1.093l-0.547-1.639
	l-0.272-2.185l0.272-2.185l0.547-1.912l0.546-1.093l0.819-0.546h6.828l1.092,0.546l0.547,1.093l0.546,1.912l0.273,2.185
	l-0.273,2.185l-0.546,1.639l-0.547,1.093L13.11,60.904z"/>
<ellipse fill="#4C4C4C" stroke="#000000" stroke-width="2" cx="6.281" cy="55.169" rx="2.185" ry="5.462"/>
<path fill="none" stroke="#000000" stroke-width="2" d="M52.438,4.097l2.185,0.546l2.185,1.639l1.912,2.731l1.912,3.55l1.365,4.097
	l1.093,4.916l0.546,5.189l0.273,5.735l-0.273,5.735l-0.546,5.462l-1.093,4.644l-1.365,4.369l-1.912,3.277l-1.912,2.731l-2.185,1.639
	l-2.185,0.546"/>
<path fill="none" stroke="#000000" stroke-width="2" d="M92.312,4.097l2.185,0.546l2.185,1.639l1.912,2.731l1.912,3.55l1.365,4.097
	l1.093,4.916l0.546,5.189l0.273,5.735l-0.273,5.735l-0.546,5.462l-1.093,4.644l-1.365,4.369l-1.912,3.277l-1.912,2.731l-2.185,1.639
	l-2.185,0.546"/>
</svg>
