<?xml version="1.0" encoding="utf-8"?>
<!-- Generator: Adobe Illustrator 14.0.0, SVG Export Plug-In . SVG Version: 6.00 Build 43363)  -->
<!DOCTYPE svg PUBLIC "-//W3C//DTD SVG 1.1//EN" "http://www.w3.org/Graphics/SVG/1.1/DTD/svg11.dtd">
<svg version="1.1" id="图层_1" xmlns="http://www.w3.org/2000/svg" xmlns:xlink="http://www.w3.org/1999/xlink" x="0px" y="0px"
	 width="57.874px" height="106.502px" viewBox="0 0 57.874 106.502" enable-background="new 0 0 57.874 106.502"
	 xml:space="preserve">
<path fill="#4C4C4C" stroke="#000000" stroke-width="2" d="M37.577,85.604v13.664h-1.004v1.206l7.234-0.201v-1.005h-1.006V85.805
	L37.577,85.604z"/>
<path fill="#4C4C4C" stroke="#000000" stroke-width="2" d="M15.071,85.805v13.664h-1.004v1.005h7.234v-1.206h-1.005V85.805H15.071z"
	/>
<path fill="#4C4C4C" stroke="#000000" stroke-width="2" d="M12.861,102.885v0.604H4.622v-0.604h1.607h1.005h0.804h0.603h0.603h0.804
	h1.206H12.861z"/>
<path fill="#4C4C4C" stroke="#000000" stroke-width="2" d="M53.251,102.885v0.604h-8.439v-0.604h1.607h1.005h0.804h0.805h0.602
	h0.805h1.205H53.251z"/>
<path fill="#4C4C4C" d="M50.036,86.609l1.607-3.215V7.837l-1.607-3.215h1.607l3.215,3.215v75.557l-3.215,3.215H50.036z"/>
<path fill="#7F7F7F" d="M7.837,86.609l-1.608-3.215V7.837l1.608-3.215H6.229L3.015,7.837v75.557l3.215,3.215H7.837z"/>
<path fill="#7F7F7F" d="M41.798,86.609l1.607-3.215V7.837l-1.607-3.215h4.22l1.607,3.215v75.557l-1.607,3.215H41.798z"/>
<path fill="#666666" d="M46.018,86.609l1.607-3.215V7.837l-1.607-3.215h4.019l1.607,3.215v75.557l-1.607,3.215H46.018z"/>
<path fill="#999999" d="M11.856,86.609l-1.608-3.215V7.837l1.608-3.215H7.837L6.229,7.837v75.557l1.608,3.215H11.856z"/>
<path fill="#999999" d="M37.778,86.609l1.607-3.215V7.837l-1.607-3.215h4.02l1.607,3.215v75.557l-1.607,3.215H37.778z"/>
<path fill="#B2B2B2" d="M15.875,86.609l-1.607-3.215V7.837l1.607-3.215h-4.019l-1.608,3.215v75.557l1.608,3.215H15.875z"/>
<path fill="#B2B2B2" d="M34.161,86.609l1.206-3.215V7.837l-1.206-3.215h3.617l1.607,3.215v75.557l-1.607,3.215H34.161z"/>
<path fill="#CCCCCC" d="M20.095,86.609l-1.608-3.215V7.837l1.608-3.215h-4.22l-1.607,3.215v75.557l1.607,3.215H20.095z"/>
<path fill="#CCCCCC" d="M30.544,86.609l0.805-3.215V7.837l-0.805-3.215h3.617l1.206,3.215v75.557l-1.206,3.215H30.544z"/>
<path fill="#E5E5E5" d="M23.712,86.609l-1.206-3.215V7.837l1.206-3.215h-3.818l-1.607,3.215v75.557l1.607,3.215H23.712z"/>
<path fill="#E5E5E5" d="M27.329,86.609l-0.804-3.215V7.837l0.804-3.215h3.215l0.805,3.215v75.557l-0.805,3.215H27.329z"/>
<path fill="#FFFFFF" d="M27.329,86.609l-0.804-3.215V7.837l0.804-3.215h-3.617l-1.206,3.215v75.557l1.206,3.215H27.329z"/>
<path fill="#7F7F7F" d="M41.999,4.622L28.937,3.014l22.707,1.608H41.999z"/>
<path fill="#B2B2B2" d="M28.937,3.014l3.214,1.608h9.848L28.937,3.014z"/>
<path fill="#E5E5E5" d="M28.937,3.014L23.31,4.622h8.841L28.937,3.014z"/>
<path fill="#CCCCCC" d="M23.31,4.622l5.627-1.608L15.272,4.622H23.31z"/>
<path fill="#B2B2B2" d="M28.937,3.014L15.272,4.622H6.431L28.937,3.014z"/>
<path fill="none" stroke="#000000" stroke-width="2" d="M6.229,4.622h45.414L28.736,3.014L6.229,4.622"/>
<path fill="none" stroke="#000000" stroke-width="2" d="M3.015,83.394l3.215,3.215h45.414l3.215-3.215V7.636l-3.215-3.215H6.229
	L3.015,7.636V83.394"/>
<path fill="none" stroke="#B2B2B2" stroke-width="2" d="M54.858,82.188l-0.602,0.402l-1.407,0.401l-2.411,0.402l-3.215,0.2
	l-3.818,0.201l-4.221,0.201l-4.822,0.201h-5.225h-5.225l-4.823-0.201l-4.421-0.201l-3.818-0.201l-3.014-0.2l-2.412-0.402
	L4.019,82.59l-0.603-0.402"/>
<path fill="none" stroke="#B2B2B2" stroke-width="2" d="M54.858,8.641l-0.602-0.402L52.85,7.837l-2.411-0.201l-3.215-0.401
	l-3.818-0.201l-4.221-0.201l-4.822-0.201h-5.225h-5.225L19.09,6.832l-4.421,0.201l-3.818,0.201L7.837,7.636L5.426,7.837L4.019,8.239
	L3.417,8.641"/>
<path fill="#4C4C4C" stroke="#000000" stroke-width="2" d="M52.247,102.484H50.64V84.599l1.607-0.401V102.484z"/>
<path fill="#4C4C4C" stroke="#000000" stroke-width="2" d="M11.856,102.484h-1.608V85.202h1.608V102.484z"/>
<path fill="#666666" stroke="#000000" stroke-width="2" d="M50.64,102.484h-1.607V85.202l1.607-0.604V102.484z"/>
<path fill="#666666" stroke="#000000" stroke-width="2" d="M10.249,102.484H8.842V85.202h1.407V102.484z"/>
<path fill="#7F7F7F" stroke="#000000" stroke-width="2" d="M49.032,102.484h-1.608V85.202h1.608V102.484z"/>
<path fill="#7F7F7F" stroke="#000000" stroke-width="2" d="M8.842,102.484H7.234V84.599l1.607,0.604V102.484z"/>
<path fill="#B2B2B2" stroke="#000000" stroke-width="2" d="M47.424,102.484h5.827v0.401h-8.439v-0.401h1.005V85.202h1.607V102.484z"
	/>
<path fill="#B2B2B2" stroke="#000000" stroke-width="2" d="M7.234,102.484h5.626v0.401H4.622v-0.401h1.005V83.996l1.607,0.603
	V102.484z"/>
</svg>
