<?xml version="1.0" encoding="utf-8"?>
<!-- Generator: Adobe Illustrator 14.0.0, SVG Export Plug-In . SVG Version: 6.00 Build 43363)  -->
<!DOCTYPE svg PUBLIC "-//W3C//DTD SVG 1.1//EN" "http://www.w3.org/Graphics/SVG/1.1/DTD/svg11.dtd">
<svg version="1.1" id="图层_1" xmlns="http://www.w3.org/2000/svg" xmlns:xlink="http://www.w3.org/1999/xlink" x="0px" y="0px"
	 width="62.093px" height="106.502px" viewBox="0 0 62.093 106.502" enable-background="new 0 0 62.093 106.502"
	 xml:space="preserve">
<path fill="#336666" stroke="#000000" stroke-width="2" d="M41.395,4.22h8.44v7.636h-8.44V4.22z"/>
<path fill="#4C7F7F" d="M42.199,4.22h6.631v7.636h-6.631V4.22z"/>
<path fill="#669999" d="M43.606,4.22h4.019v7.636h-4.019V4.22z"/>
<path fill="#99CCCC" d="M45.213,4.22h0.804v7.636h-0.804V4.22z"/>
<path fill="#194C4C" stroke="#000000" stroke-width="2" d="M13.062,99.469V12.258L33.96,5.626l20.898,6.632v87.211H13.062z"/>
<path fill="#336666" d="M14.669,99.469V12.258L33.96,5.626l19.09,6.632v87.211H14.669z"/>
<path fill="#4C7F7F" d="M17.281,99.469V12.258L33.96,5.626l16.478,6.632v87.211H17.281z"/>
<path fill="#669999" d="M21.702,99.469V12.258L33.96,5.626l12.258,6.632v87.211H21.702z"/>
<path fill="#7FB2B2" d="M26.927,99.469V12.258l7.033-6.632l6.832,6.632v87.211H26.927z"/>
<path fill="#99CCCC" d="M32.152,99.469V12.258l1.809-6.632l1.607,6.632v87.211H32.152z"/>
<path fill="#666666" stroke="#000000" stroke-width="2" d="M8.842,99.268h50.236v4.221H8.842V99.268z"/>
<path fill="#336666" d="M40.19,3.014H51.04V4.22H40.19V3.014z"/>
<path fill="#4C7F7F" d="M41.195,3.014h8.641V4.22h-8.641V3.014z"/>
<path fill="#669999" d="M43.003,3.014h5.225V4.22h-5.225V3.014z"/>
<path fill="#99CCCC" d="M45.012,3.014h1.206V4.22h-1.206V3.014z"/>
<path fill="none" stroke="#000000" stroke-width="2" d="M40.19,3.014H51.04V4.22H40.19V3.014"/>
<path fill="#336666" stroke="#000000" stroke-width="2" d="M5.426,83.394V68.925h7.636v14.469H5.426z"/>
<path fill="#4C7F7F" d="M5.426,81.987V70.332h7.636v11.654H5.426z"/>
<path fill="#669999" d="M5.426,79.777v-7.234h7.636v7.234H5.426z"/>
<path fill="#99CCCC" d="M5.426,76.963v-1.607h7.636v1.607H5.426z"/>
<path fill="#336666" d="M3.014,85.403V66.915h2.412v18.487H3.014z"/>
<path fill="#4C7F7F" d="M3.014,83.594v-14.87h2.412v14.87H3.014z"/>
<path fill="#669999" d="M3.014,80.781v-9.244h2.412v9.244H3.014z"/>
<path fill="#99CCCC" d="M3.014,77.164v-2.01h2.412v2.01H3.014z"/>
<path fill="none" stroke="#000000" stroke-width="2" d="M3.014,85.403V66.915h2.412v18.487H3.014"/>
<path fill="none" stroke="#669999" stroke-width="2" d="M13.062,12.459h41.797"/>
</svg>
