<?xml version="1.0" encoding="utf-8"?>
<!-- Generator: Adobe Illustrator 14.0.0, SVG Export Plug-In . SVG Version: 6.00 Build 43363)  -->
<!DOCTYPE svg PUBLIC "-//W3C//DTD SVG 1.1//EN" "http://www.w3.org/Graphics/SVG/1.1/DTD/svg11.dtd">
<svg version="1.1" id="图层_1" xmlns="http://www.w3.org/2000/svg" xmlns:xlink="http://www.w3.org/1999/xlink" x="0px" y="0px"
	 width="56.182px" height="106.502px" viewBox="0 0 56.182 106.502" enable-background="new 0 0 56.182 106.502"
	 xml:space="preserve">
<path fill="#666666" stroke="#000000" stroke-width="2" d="M53.197,95.094V11.408L52.024,8.85l-2.452-1.813l-2.878-1.279
	l-2.666-0.853l-2.984-0.746l-3.198-0.533l-3.519-0.32l-3.73-0.319h-1.279h-1.279l-3.731,0.106l-3.731,0.319l-3.411,0.427
	l-3.092,0.64l-2.878,0.64L7.996,6.291L5.437,7.783l-2.133,2.346l-0.319,0.853v0.427v83.686l1.066,2.452l2.558,1.919l2.879,1.173
	l2.665,0.853l2.879,0.746l3.305,0.533l3.518,0.427l3.625,0.213h1.279h1.279l3.838-0.106l3.624-0.213l3.411-0.533l3.198-0.533
	l2.879-0.746l3.198-1.173l2.559-1.386l2.132-2.346l0.32-0.853V95.094z"/>
<path fill="#737373" d="M5.117,11.302l1.6-3.092l4.903-2.879l7.889-1.812l8.636-0.533l8.635,0.533l7.782,1.812l4.904,2.879
	l1.705,3.092v83.686l-1.705,3.198l-4.904,2.879l-7.782,1.705l-8.635,0.64l-8.636-0.64l-7.889-1.705l-4.903-2.879l-1.6-3.198V11.302z
	"/>
<path fill="#7D7D7D" d="M7.142,11.302L8.635,8.21l4.478-2.879l7.143-1.812l7.889-0.533l7.782,0.533l7.143,1.812l4.478,2.879
	l1.492,3.092v83.686l-1.492,3.198l-4.478,2.879l-7.143,1.705l-7.782,0.64l-7.889-0.64l-7.143-1.705l-4.478-2.879l-1.493-3.198
	V11.302z"/>
<path fill="#8A8A8A" d="M9.275,11.302l1.386-3.092l3.944-2.879l6.396-1.812l7.143-0.533L35.18,3.52l6.396,1.812l4.051,2.879
	l1.279,3.092v83.686l-1.279,3.198l-4.051,2.879l-6.396,1.705l-7.036,0.64l-7.143-0.64l-6.396-1.705l-3.944-2.879l-1.386-3.198
	V11.302z"/>
<path fill="#949494" d="M11.407,11.302L12.58,8.21l3.518-2.879l5.757-1.812l6.29-0.533l6.29,0.533l5.649,1.812l3.625,2.879
	l1.173,3.092v83.686l-1.173,3.198l-3.625,2.879l-5.649,1.705l-6.29,0.64l-6.29-0.64l-5.757-1.705l-3.518-2.879l-1.173-3.198V11.302z
	"/>
<path fill="#A1A1A1" d="M13.432,11.302l1.066-3.092l3.091-2.879L22.6,3.52l5.544-0.533l5.437,0.533l5.011,1.812l3.092,2.879
	l1.065,3.092v83.686l-1.065,3.198l-3.092,2.879l-5.011,1.705l-5.437,0.64l-5.544-0.64l-5.011-1.705l-3.091-2.879l-1.066-3.198
	V11.302z"/>
<path fill="#ABABAB" d="M15.564,11.302l0.854-3.092l2.665-2.879l4.264-1.812l4.798-0.533l4.69,0.533l4.265,1.812l2.665,2.879
	l0.853,3.092v83.686l-0.853,3.198l-2.665,2.879l-4.265,1.705l-4.69,0.64l-4.798-0.64l-4.264-1.705l-2.665-2.879l-0.854-3.198V11.302
	z"/>
<path fill="#B8B8B8" d="M17.59,11.302l0.854-3.092l2.132-2.879L24.2,3.52l3.944-0.533l3.838,0.533l3.624,1.812l2.239,2.879
	l0.746,3.092v83.686l-0.746,3.198l-2.239,2.879l-3.624,1.705l-3.838,0.64l-3.944-0.64l-3.625-1.705l-2.132-2.879l-0.854-3.198
	V11.302z"/>
<path fill="#C2C2C2" d="M19.722,11.302l0.64-3.092l1.705-2.879l2.879-1.812l3.198-0.533l3.092,0.533l2.878,1.812L35.82,8.21
	l0.64,3.092v83.686l-0.64,3.198l-1.706,2.879l-2.878,1.705l-3.092,0.64l-3.198-0.64l-2.879-1.705l-1.705-2.879l-0.64-3.198V11.302z"
	/>
<path fill="#CFCFCF" d="M21.854,11.302l0.427-3.092l1.386-2.879l2.025-1.812l2.452-0.533l2.345,0.533l2.133,1.812l1.279,2.879
	l0.533,3.092v83.686l-0.533,3.198l-1.279,2.879l-2.133,1.705l-2.345,0.64l-2.452-0.64l-2.025-1.705l-1.386-2.879l-0.427-3.198
	V11.302z"/>
<path fill="#D9D9D9" d="M23.88,11.302L24.2,8.21l0.853-2.879l1.492-1.812l1.6-0.533l1.492,0.533l1.492,1.812l0.854,2.879
	l0.319,3.092v83.686l-0.319,3.198l-0.854,2.879l-1.492,1.705l-1.492,0.64l-1.6-0.64l-1.492-1.705L24.2,98.186l-0.32-3.198V11.302z"
	/>
<ellipse fill="#E5E5E5" cx="28.038" cy="53.198" rx="2.025" ry="50.211"/>
<path fill="#666666" stroke="#000000" stroke-width="2" d="M5.117,15.566V90.83l4.158-4.158V19.724h37.632l4.157-4.158H5.117z"/>
<path fill="#CCCCCC" stroke="#000000" stroke-width="2" d="M51.064,90.83V15.566l-4.157,4.158v66.948H9.275L5.117,90.83H51.064z"/>
<path d="M9.275,19.724v66.948h37.632V19.724H9.275z"/>
</svg>
