<?xml version="1.0" encoding="utf-8"?>
<!-- Generator: Adobe Illustrator 14.0.0, SVG Export Plug-In . SVG Version: 6.00 Build 43363)  -->
<!DOCTYPE svg PUBLIC "-//W3C//DTD SVG 1.1//EN" "http://www.w3.org/Graphics/SVG/1.1/DTD/svg11.dtd">
<svg version="1.1" id="图层_1" xmlns="http://www.w3.org/2000/svg" xmlns:xlink="http://www.w3.org/1999/xlink" x="0px" y="0px"
	 width="83.793px" height="106.502px" viewBox="0 0 83.793 106.502" enable-background="new 0 0 83.793 106.502"
	 xml:space="preserve">
<path fill="#4C4C4C" stroke="#000000" stroke-width="2" d="M54.857,76.762v20.496H53.25v1.607h11.053v-1.607h-1.608V76.762H54.857z"
	/>
<path fill="#4C4C4C" stroke="#000000" stroke-width="2" d="M21.099,76.762v20.496h-1.607v1.607h11.052v-1.607h-1.607V76.762H21.099z
	"/>
<path fill="#4C4C4C" stroke="#000000" stroke-width="2" d="M18.085,102.684v0.804H5.425v-0.804h2.21h1.809h1.206h1.005h1.005h1.206
	h1.809H18.085z"/>
<path fill="#4C4C4C" stroke="#000000" stroke-width="2" d="M78.368,102.684v0.804H65.91v-0.804h2.21h1.809h1.206h1.004h1.005h1.206
	h1.607H78.368z"/>
<path fill="#4C4C4C" d="M73.545,78.369l2.412-5.023V10.249l-2.412-4.822h2.412l4.822,4.822v63.097l-4.822,5.023H73.545z"/>
<path fill="#7F7F7F" d="M10.449,78.369l-2.412-5.023V10.249l2.412-4.822H8.038l-5.023,4.822v63.097l5.023,5.023H10.449z"/>
<path fill="#7F7F7F" d="M61.288,78.369l2.411-5.023V10.249l-2.411-4.822h6.229l2.411,4.822v63.097l-2.411,5.023H61.288z"/>
<path fill="#666666" d="M67.518,78.369l2.411-5.023V10.249l-2.411-4.822h6.027l2.412,4.822v63.097l-2.412,5.023H67.518z"/>
<path fill="#999999" d="M16.478,78.369l-2.412-5.023V10.249l2.412-4.822h-6.028l-2.412,4.822v63.097l2.412,5.023H16.478z"/>
<path fill="#999999" d="M55.26,78.369l2.411-5.023V10.249L55.26,5.427h6.229l2.412,4.822v63.097l-2.412,5.023H55.26z"/>
<path fill="#B2B2B2" d="M22.506,78.369l-2.412-5.023V10.249l2.412-4.822h-6.028l-2.412,4.822v63.097l2.412,5.023H22.506z"/>
<path fill="#B2B2B2" d="M49.834,78.369l1.809-5.023V10.249l-1.809-4.822h5.426l2.411,4.822v63.097l-2.411,5.023H49.834z"/>
<path fill="#CCCCCC" d="M28.534,78.369l-2.412-5.023V10.249l2.412-4.822h-6.028l-2.412,4.822v63.097l2.412,5.023H28.534z"/>
<path fill="#CCCCCC" d="M44.408,78.369l1.206-5.023V10.249l-1.206-4.822h5.426l1.809,4.822v63.097l-1.809,5.023H44.408z"/>
<path fill="#E5E5E5" d="M33.959,78.369l-1.809-5.023V10.249l1.809-4.822h-5.425l-2.412,4.822v63.097l2.412,5.023H33.959z"/>
<path fill="#E5E5E5" d="M39.586,78.369l-1.206-5.023V10.249l1.206-4.822h4.822l1.206,4.822v63.097l-1.206,5.023H39.586z"/>
<path fill="#FFFFFF" d="M39.586,78.369l-1.206-5.023V10.249l1.206-4.822h-5.626l-1.809,4.822v63.097l1.809,5.023H39.586z"/>
<path fill="#7F7F7F" d="M61.288,5.427L41.997,3.015l33.96,2.412H61.288z"/>
<path fill="#B2B2B2" d="M41.997,3.015l4.823,2.412h14.468L41.997,3.015z"/>
<path fill="#E5E5E5" d="M41.997,3.015l-8.641,2.412H46.82L41.997,3.015z"/>
<path fill="#CCCCCC" d="M33.356,5.427l8.641-2.412L21.3,5.427H33.356z"/>
<path fill="#B2B2B2" d="M41.997,3.015L21.3,5.427H8.038L41.997,3.015z"/>
<path fill="none" stroke="#000000" stroke-width="2" d="M8.038,5.427h67.919l-33.96-2.412L8.038,5.427"/>
<path fill="none" stroke="#000000" stroke-width="2" d="M3.014,73.346l5.023,5.023h67.919l4.822-5.023V10.249l-4.822-4.822H8.038
	l-5.023,4.822V73.346"/>
<path fill="none" stroke="#B2B2B2" stroke-width="2" d="M80.779,71.537l-0.201,0.401l-2.813,0.804l-3.617,0.604l-4.622,0.401
	l-2.813,0.201l-3.014,0.201h-3.014l-3.416,0.201h-3.617l-3.617,0.2H34.563l-3.818-0.2h-3.417l-3.416-0.201h-3.215l-2.813-0.201
	l-2.813-0.201l-4.622-0.401l-3.617-0.604l-2.813-0.804l-0.201-0.401"/>
<path fill="none" stroke="#B2B2B2" stroke-width="2" d="M80.779,12.058l-0.804-0.603l-3.817-0.804l-4.221-0.402l-5.225-0.402
	l-3.014-0.2l-3.014-0.201L57.27,9.244h-3.617l-3.617-0.201H34.563l-3.818,0.201h-3.417l-3.416,0.201l-3.215,0.201l-2.813,0.2
	l-5.224,0.402l-4.22,0.402l-2.813,0.603l-1.005,0.201l-0.804,0.603"/>
<path fill="#4C4C4C" stroke="#000000" stroke-width="2" d="M76.961,101.88h-2.41V75.155l2.41-0.804V101.88z"/>
<path fill="#4C4C4C" stroke="#000000" stroke-width="2" d="M16.478,101.88h-2.412V75.958h2.412V101.88z"/>
<path fill="#666666" stroke="#000000" stroke-width="2" d="M74.551,101.88h-2.412V75.958l2.412-0.804V101.88z"/>
<path fill="#666666" stroke="#000000" stroke-width="2" d="M14.066,101.88h-2.411V75.958h2.411V101.88z"/>
<path fill="#7F7F7F" stroke="#000000" stroke-width="2" d="M72.139,101.88h-2.411V75.958h2.411V101.88z"/>
<path fill="#7F7F7F" stroke="#000000" stroke-width="2" d="M11.655,101.88h-2.21V75.155l2.21,0.804V101.88z"/>
<path fill="#B2B2B2" stroke="#000000" stroke-width="2" d="M69.728,101.88h8.641v0.804H65.91v-0.804h1.607V75.958h2.21V101.88z"/>
<path fill="#B2B2B2" stroke="#000000" stroke-width="2" d="M9.444,101.88h8.641v0.804H5.425v-0.804h1.608V74.351l2.411,0.804V101.88
	z"/>
</svg>
