<?xml version="1.0" encoding="utf-8"?>
<!-- Generator: Adobe Illustrator 14.0.0, SVG Export Plug-In . SVG Version: 6.00 Build 43363)  -->
<!DOCTYPE svg PUBLIC "-//W3C//DTD SVG 1.1//EN" "http://www.w3.org/Graphics/SVG/1.1/DTD/svg11.dtd">
<svg version="1.1" id="图层_1" xmlns="http://www.w3.org/2000/svg" xmlns:xlink="http://www.w3.org/1999/xlink" x="0px" y="0px"
	 width="43.603px" height="106.502px" viewBox="0 0 43.603 106.502" enable-background="new 0 0 43.603 106.502"
	 xml:space="preserve">
<path fill="#B2B2B2" stroke="#000000" stroke-width="2" d="M6.028,100.672V11.657l0.402-1.206l2.612-2.009l2.009-1.005l2.612-0.603
	l2.813-0.604l3.416-0.2l3.417-0.201l3.416,0.201l3.215,0.2l3.014,0.604l2.612,0.603l3.616,2.01l1.006,1.004l0.401,1.206v89.015
	l-0.401,0.603l-2.613,1.005l-4.621,0.804l-3.014,0.201l-3.215,0.201h-6.833l-3.416-0.201l-2.813-0.201l-4.622-0.804l-2.612-1.005
	L6.028,100.672z"/>
<path fill="#CCCCCC" d="M8.841,100.672V11.657l0.201-1.206l2.21-2.009l4.019-1.607l5.023-0.804l3.015-0.201l2.813,0.201l2.813,0.2
	l4.621,1.206l3.015,2.01l1.004,1.004l0.201,1.206v89.015l-0.201,0.603l-4.019,1.407l-4.621,0.603l-2.813,0.201h-5.827l-5.023-0.402
	l-4.019-0.804l-2.21-1.005L8.841,100.672z"/>
<path fill="#E5E5E5" d="M13.262,100.672V11.657l0.201-1.206l2.813-3.014l3.014-1.206l4.019-0.401l4.018,0.401l3.216,1.206
	l2.009,2.01l0.604,1.004l0.201,1.206v89.015l-0.201,0.603l-2.612,1.407l-3.216,0.603l-2.009,0.201h-4.019l-3.617-0.402l-2.813-0.804
	l-1.406-1.005L13.262,100.672z"/>
<path fill="none" stroke="#000000" stroke-width="2" d="M40.589,11.859l-0.401,0.2l-1.006,0.402l-1.607,0.201l-2.009,0.2
	l-2.612,0.201H29.94l-3.215,0.201h-3.416h-3.417l-3.416-0.201h-2.813l-2.612-0.201l-2.009-0.2l-1.607-0.201L6.43,12.059l-0.402-0.2"
	/>
<path fill="#7F7F7F" stroke="#000000" stroke-width="2" d="M21.098,5.83l0.804,0.804h2.813V5.228l-2.211-2.211H5.224l-2.21,2.211
	v95.444h3.014V6.634L6.631,5.83H21.098z"/>
<path fill="#4C4C4C" stroke="#000000" stroke-width="2" d="M6.028,101.275H3.014v-0.804h2.21V5.83l0.804-0.603h15.874l0.603,0.603
	h2.211v0.804h-2.813L21.098,5.83H6.631L6.028,6.634V101.275z"/>
</svg>
