<?xml version="1.0" encoding="utf-8"?>
<!-- Generator: Adobe Illustrator 14.0.0, SVG Export Plug-In . SVG Version: 6.00 Build 43363)  -->
<!DOCTYPE svg PUBLIC "-//W3C//DTD SVG 1.1//EN" "http://www.w3.org/Graphics/SVG/1.1/DTD/svg11.dtd">
<svg version="1.1" id="图层_1" xmlns="http://www.w3.org/2000/svg" xmlns:xlink="http://www.w3.org/1999/xlink" x="0px" y="0px"
	 width="74.549px" height="106.502px" viewBox="0 0 74.549 106.502" enable-background="new 0 0 74.549 106.502"
	 xml:space="preserve">
<path fill="#4C4C4C" d="M40.992,103.487l26.122-38.581V9.447l-2.01-4.22h2.01l4.421,4.22v55.459l-30.142,38.581H40.992z"/>
<path fill="#7F7F7F" d="M33.557,103.487L7.234,64.906V9.447l2.21-4.22h-2.21l-4.22,4.22v55.459l29.939,38.581H33.557z"/>
<path fill="#7F7F7F" d="M39.987,103.487l16.478-38.581V9.447l-2.211-4.22h5.426l2.21,4.22v55.459l-21.5,38.581H39.987z"/>
<path fill="#666666" d="M40.389,103.487l21.5-38.581V9.447l-2.21-4.22h5.425l2.01,4.22v55.459l-26.122,38.581H40.389z"/>
<path fill="#999999" d="M33.959,103.487l-21.3-38.581V9.447l2.01-4.22H9.444l-2.21,4.22v55.459l26.323,38.581H33.959z"/>
<path fill="#999999" d="M39.385,103.487l11.654-38.581V9.447l-2.01-4.22h5.426l2.01,4.22v55.459l-16.679,38.581H39.385z"/>
<path fill="#B2B2B2" d="M34.561,103.487L18.085,64.906V9.447l2.01-4.22h-5.426l-2.01,4.22v55.459l21.3,38.581H34.561z"/>
<path fill="#B2B2B2" d="M38.781,103.487l7.033-38.581V9.447l-1.607-4.22h4.822l2.211,4.22v55.459l-11.855,38.581H38.781z"/>
<path fill="#CCCCCC" d="M35.165,103.487L23.309,64.906V9.447l2.21-4.22h-5.425l-2.211,4.22v55.459l16.678,38.581H35.165z"/>
<path fill="#CCCCCC" d="M38.178,103.487l2.211-38.581V9.447l-1.005-4.22h4.822l1.607,4.22v55.459l-7.033,38.581H38.178z"/>
<path fill="#E5E5E5" d="M36.17,103.487l-7.436-38.581V9.447l1.607-4.22h-4.822l-2.21,4.22v55.459l11.855,38.581H36.17z"/>
<path fill="#E5E5E5" d="M37.174,103.487l-3.215-38.581V9.447l1.206-4.22h4.22l1.005,4.22v55.459l-2.211,38.581H37.174z"/>
<path fill="#FFFFFF" d="M37.174,103.487l-3.215-38.581V9.447l1.206-4.22h-4.823l-1.607,4.22v55.459l7.436,38.581H37.174z"/>
<path fill="#7F7F7F" d="M54.254,5.227l-17.08-2.211l29.94,2.211H54.254z"/>
<path fill="#B2B2B2" d="M37.174,3.016l4.421,2.211h12.659L37.174,3.016z"/>
<path fill="#E5E5E5" d="M37.174,3.016l-7.435,2.211h11.855L37.174,3.016z"/>
<path fill="#CCCCCC" d="M29.739,5.227l7.435-2.211L19.09,5.227H29.739z"/>
<path fill="#B2B2B2" d="M37.174,3.016L19.09,5.227H7.234L37.174,3.016z"/>
<path fill="none" stroke="#000000" stroke-width="2" d="M7.234,5.227h59.88l-29.94-2.211L7.234,5.227"/>
<path fill="none" stroke="#000000" stroke-width="2" d="M3.014,64.906l29.939,38.581h8.641l29.94-38.581V9.447l-4.421-4.22H7.234
	l-4.22,4.22V64.906"/>
<path fill="none" stroke="#B2B2B2" stroke-width="2" d="M71.535,63.298l-0.604,0.603l-3.415,0.805l-3.818,0.401l-4.622,0.402
	l-5.425,0.2l-2.813,0.201h-3.215l-3.215,0.201H30.744l-3.416-0.201h-3.014L21.3,65.709l-5.425-0.2l-4.622-0.402l-3.617-0.401
	l-3.416-0.805l-0.603-0.603"/>
<path fill="none" stroke="#B2B2B2" stroke-width="2" d="M71.535,11.054l-0.604-0.603l-3.415-0.804l-3.818-0.402l-4.622-0.201
	l-2.611-0.201l-2.813-0.2h-6.028l-3.215-0.201H30.744l-3.416,0.201H21.3l-2.813,0.2l-5.023,0.201L9.444,9.447l-3.215,0.603
	l-2.01,0.402l-0.603,0.603"/>
</svg>
