<?xml version="1.0" encoding="utf-8"?>
<!-- Generator: Adobe Illustrator 14.0.0, SVG Export Plug-In . SVG Version: 6.00 Build 43363)  -->
<!DOCTYPE svg PUBLIC "-//W3C//DTD SVG 1.1//EN" "http://www.w3.org/Graphics/SVG/1.1/DTD/svg11.dtd">
<svg version="1.1" id="图层_1" xmlns="http://www.w3.org/2000/svg" xmlns:xlink="http://www.w3.org/1999/xlink" x="0px" y="0px"
	 width="124.603px" height="106.502px" viewBox="0 0 124.603 106.502" enable-background="new 0 0 124.603 106.502"
	 xml:space="preserve">
<path fill="#B2B2B2" stroke="#000000" stroke-width="2" d="M12.46,94.041V30.564l0.235-1.881l2.116-3.526l4.231-3.056l2.821-1.646
	l3.056-1.41l3.527-1.176l3.762-1.175l4.231-1.176l4.467-0.94l4.702-0.705l5.172-0.471l5.172-0.47l5.172-0.471h5.642h5.643
	l5.172,0.471l5.173,0.47l5.173,0.471l4.701,0.705l4.467,0.94l4.232,1.176l3.762,1.175l3.525,1.176l3.057,1.41l2.821,1.646
	l4.231,3.056l2.117,3.526l0.234,1.881v63.478l-0.234,0.94l-3.998,2.586l-5.172,1.41l-3.057,0.706l-3.525,0.705l-3.762,0.47
	l-4.232,0.706l-4.467,0.234l-4.701,0.471l-5.173,0.235l-5.173,0.234l-5.172,0.235h-5.643h-5.642l-5.172-0.235l-5.172-0.234
	l-5.172-0.235l-4.702-0.471l-4.467-0.234l-4.231-0.706l-3.762-0.47l-3.527-0.705l-3.056-0.706l-5.172-1.41l-3.056-1.646l-0.94-0.94
	L12.46,94.041z"/>
<path fill="#CCCCCC" d="M21.629,94.041V30.564l0.94-3.526l2.586-3.526l4.232-3.057l2.586-1.41l2.821-1.176l3.292-1.175l3.526-1.176
	l3.526-0.94l3.997-0.705l4.232-0.471l4.232-0.47l4.467-0.471h4.702h4.703l4.467,0.471l4.231,0.47l4.231,0.471l3.997,0.705
	l3.761,0.94l3.527,1.176l3.057,1.175l3.056,1.176l4.937,3.057l3.292,3.056l1.881,3.526l0.235,1.881v63.478l-0.235,0.94l-0.705,0.94
	l-2.587,1.646l-4.23,1.41l-2.587,0.706l-3.056,0.705l-3.057,0.47l-3.527,0.706l-3.761,0.234l-3.997,0.471l-4.231,0.235l-4.231,0.234
	l-4.467,0.235h-4.703h-4.702L57.6,102.74l-4.232-0.234l-4.232-0.235l-3.997-0.471l-3.526-0.234l-3.526-0.706l-3.292-0.47
	l-5.407-1.411l-4.232-1.41l-2.586-1.646l-0.706-0.94L21.629,94.041z"/>
<path fill="#E5E5E5" d="M35.265,94.041V30.564l0.705-3.526l1.881-3.526l2.821-3.057l3.762-2.586l4.702-2.351l5.408-1.646l5.877-0.94
	l6.347-0.471l6.348,0.471l5.878,0.94l5.407,1.646l4.702,2.351l3.997,2.586l2.82,3.057l1.881,3.526l0.705,3.526v63.478l-0.705,1.881
	l-1.881,1.646l-2.82,1.41l-3.997,1.411l-4.702,1.176l-5.407,0.705l-5.878,0.47l-6.348,0.235l-6.347-0.235l-5.877-0.47l-5.408-0.705
	l-4.702-1.176l-3.762-1.411l-2.821-1.41l-1.881-1.646L35.265,94.041z"/>
<path fill="none" stroke="#000000" stroke-width="2" d="M121.077,30.564l-0.234,0.471l-3.998,1.41l-5.172,0.706l-3.057,0.234
	l-3.525,0.471l-3.762,0.234l-4.232,0.235l-4.467,0.235l-4.701,0.235h-5.173l-5.173,0.234H55.954l-5.172-0.234h-5.172l-4.702-0.235
	l-4.467-0.235l-4.231-0.235l-3.762-0.234l-3.527-0.471l-5.877-0.705l-4.231-0.705l-2.116-0.94l-0.235-0.471"/>
<path fill="#7F7F7F" stroke="#000000" stroke-width="2" d="M60.186,12.461l2.116,2.352h9.169v-4.468l-6.818-6.817H10.344
	l-6.818,6.817v83.696h8.934V14.813l2.351-2.352H60.186z"/>
<path fill="#4C4C4C" stroke="#000000" stroke-width="2" d="M12.46,94.041H3.526V91.69h6.818V12.461l2.116-2.116h49.841l2.351,2.116
	h6.818v2.352h-9.169l-2.116-2.352H14.812l-2.351,2.352V94.041z"/>
</svg>
