<?xml version="1.0" encoding="utf-8"?>
<!-- Generator: Adobe Illustrator 14.0.0, SVG Export Plug-In . SVG Version: 6.00 Build 43363)  -->
<!DOCTYPE svg PUBLIC "-//W3C//DTD SVG 1.1//EN" "http://www.w3.org/Graphics/SVG/1.1/DTD/svg11.dtd">
<svg version="1.1" id="图层_1" xmlns="http://www.w3.org/2000/svg" xmlns:xlink="http://www.w3.org/1999/xlink" x="0px" y="0px"
	 width="108.339px" height="106.502px" viewBox="0 0 108.339 106.502" enable-background="new 0 0 108.339 106.502"
	 xml:space="preserve">
<path fill="#7F7F7F" stroke="#000000" stroke-width="2" d="M99.549,71.546l0.204-3.884v-3.884l0.205-3.884l0.204-4.089l0.204-3.884
	v-3.884l0.205-3.884l0.204-3.884v-3.884l0.204-3.884v-3.884l0.205-4.088l0.203-3.884l0.205-3.884V12.88l0.205-3.884l-5.111-1.432
	l-5.314-1.021l-5.314-1.022l-5.314-0.817l-5.52-0.613l-5.52-0.613l-5.519-0.204L58.87,3.068l-5.519,0.205l-5.519,0.204L42.313,4.09
	l-5.315,0.613l-5.314,0.817l-5.315,1.022l-5.315,1.021l-5.11,1.432l-8.585,8.789l1.84,3.271l2.044,4.293l2.453,5.52l2.862,5.928
	l3.066,6.745l3.066,6.95l3.475,7.359l3.68,7.154l3.679,7.154l3.68,6.745l3.679,6.337l3.68,5.315l3.679,4.701l3.475,3.475
	l3.475,2.249l3.271,0.817l3.066-0.204l3.066-0.409l3.065-1.022l3.066-1.021l2.862-1.431l2.861-1.636l2.861-2.044l2.862-2.044
	l2.452-2.249l2.658-2.248l2.453-2.657l2.248-2.453l2.045-2.657l2.043-2.862l1.84-2.657L99.549,71.546z"/>
<path fill="#E5E5E5" stroke="#000000" stroke-width="2" d="M91.168,79.927l0.204-3.884v-3.884l0.205-3.884v-3.884l0.204-3.884
	v-3.884l0.204-3.884l0.205-3.884v-3.884l0.203-3.884l0.205-3.884v-4.089l0.205-3.884l0.203-3.884v-3.884l0.205-3.884l-5.11-1.431
	l-5.314-1.022l-5.315-1.021l-5.314-0.818l-5.52-0.613l-5.314-0.613l-5.519-0.204l-5.52-0.204l-5.519,0.204l-5.519,0.204
	l-5.314,0.613l-5.52,0.613l-5.314,0.818l-5.315,1.021l-5.314,1.022l-5.11,1.431l2.044,62.346l1.635,2.657l1.84,2.453l2.044,2.453
	l2.044,2.044l2.249,2.248l2.453,1.84l2.453,1.84l2.657,1.636l2.658,1.431l2.657,1.227l3.066,1.021l2.862,1.022l3.066,0.613
	l3.066,0.613l3.066,0.204l3.066,0.205l3.066-0.205l3.066-0.204l3.065-0.613l3.066-0.613l2.861-1.022l2.862-1.021l2.657-1.227
	l2.862-1.431l2.452-1.636l2.658-1.84l2.248-1.84l2.248-2.248l2.249-2.044l2.044-2.453l1.84-2.453L91.168,79.927z"/>
<path fill="#E5E5E5" stroke="#000000" stroke-width="2" d="M3.066,18.195h93.62v6.337H3.066V18.195z"/>
<path fill="#E5E5E5" stroke="#000000" stroke-width="2" d="M3.066,24.736h93.62v6.337H3.066V24.736z"/>
<path fill="#7F7F7F" stroke="#000000" stroke-width="2" d="M15.944,9.2l-8.585,8.585v0.409H3.066l8.585-8.381h3.68L15.944,9.2z"/>
<path fill="#7F7F7F" stroke="#000000" stroke-width="2" d="M96.687,18.195h-3.68v-0.817l8.791-8.381l-0.205,0.817h3.68
	L96.687,18.195z"/>
<path fill="none" stroke="#000000" stroke-width="2" d="M93.007,18.195l8.586-8.585"/>
<path fill="#7F7F7F" stroke="#000000" stroke-width="2" d="M96.687,31.073v-6.541l8.586-8.381v6.337L96.687,31.073z"/>
<path fill="#7F7F7F" stroke="#000000" stroke-width="2" d="M96.687,24.736v-6.541l8.586-8.381v6.337L96.687,24.736z"/>
</svg>
