<?xml version="1.0" encoding="utf-8"?>
<!-- Generator: Adobe Illustrator 14.0.0, SVG Export Plug-In . SVG Version: 6.00 Build 43363)  -->
<!DOCTYPE svg PUBLIC "-//W3C//DTD SVG 1.1//EN" "http://www.w3.org/Graphics/SVG/1.1/DTD/svg11.dtd">
<svg version="1.1" id="图层_1" xmlns="http://www.w3.org/2000/svg" xmlns:xlink="http://www.w3.org/1999/xlink" x="0px" y="0px"
	 width="70.121px" height="106.502px" viewBox="0 0 70.121 106.502" enable-background="new 0 0 70.121 106.502"
	 xml:space="preserve">
<path fill="#333333" stroke="#000000" stroke-width="2" d="M60.826,103.265v0.404h-8.084v-0.404h1.415h1.212h0.607h0.808h0.606
	h0.809h1.01H60.826z"/>
<path fill="#333333" stroke="#000000" stroke-width="2" d="M17.378,103.265v0.404H9.295v-0.404h1.617h1.01h0.809h0.606h0.606h0.808
	h1.011H17.378z"/>
<path fill="#333333" stroke="#000000" stroke-width="2" d="M17.985,79.42v20.208h-1.01v1.212l7.073-0.202v-1.01h-1.011V86.493
	L17.985,79.42z"/>
<path fill="#333333" stroke="#000000" stroke-width="2" d="M47.287,86.493v13.135h-1.011v1.212l7.073-0.202v-1.01h-1.012V79.42
	L47.287,86.493z"/>
<path fill="#4C4C4C" d="M38.597,97.608l24.855-36.172V8.896l-2.021-4.042h2.021l3.839,4.042v52.54L39.203,97.608H38.597z"/>
<path fill="#7F7F7F" d="M31.524,97.608L6.871,61.436V8.896l2.021-4.042H6.871L2.829,8.896v52.54L31.12,97.608H31.524z"/>
<path fill="#7F7F7F" d="M37.586,97.608l15.763-36.172V8.896l-2.021-4.042h5.052L58.4,8.896v52.54L38.193,97.608H37.586z"/>
<path fill="#666666" d="M38.193,97.608L58.4,61.436V8.896l-2.021-4.042h5.052l2.021,4.042v52.54L38.597,97.608H38.193z"/>
<path fill="#999999" d="M32.13,97.608L11.922,61.436V8.896l2.021-4.042H8.892L6.871,8.896v52.54l24.653,36.172H32.13z"/>
<path fill="#999999" d="M37.182,97.608l11.114-36.172V8.896l-2.021-4.042h5.052l2.021,4.042v52.54L37.586,97.608H37.182z"/>
<path fill="#B2B2B2" d="M32.535,97.608l-15.56-36.172V8.896l2.021-4.042h-5.052l-2.021,4.042v52.54L32.13,97.608H32.535z"/>
<path fill="#B2B2B2" d="M36.576,97.608l6.669-36.172V8.896l-1.616-4.042h4.647l2.021,4.042v52.54L37.182,97.608H36.576z"/>
<path fill="#CCCCCC" d="M33.141,97.608L22.026,61.436V8.896l2.021-4.042h-5.052l-2.021,4.042v52.54l15.56,36.172H33.141z"/>
<path fill="#CCCCCC" d="M36.171,97.608l2.021-36.172V8.896l-1.011-4.042h4.446l1.616,4.042v52.54l-6.669,36.172H36.171z"/>
<path fill="#E5E5E5" d="M33.949,97.608l-6.871-36.172V8.896l1.415-4.042h-4.445l-2.021,4.042v52.54l11.114,36.172H33.949z"/>
<path fill="#E5E5E5" d="M35.162,97.608L32.13,61.436V8.896l1.01-4.042h4.042l1.011,4.042v52.54l-2.021,36.172H35.162z"/>
<path fill="#FFFFFF" d="M35.162,97.608L32.13,61.436V8.896l1.01-4.042h-4.648l-1.415,4.042v52.54l6.871,36.172H35.162z"/>
<path fill="#7F7F7F" d="M51.328,4.854L35.162,2.833l28.291,2.021H51.328z"/>
<path fill="#B2B2B2" d="M35.162,2.833l4.041,2.021h12.125L35.162,2.833z"/>
<path fill="#E5E5E5" d="M35.162,2.833l-7.073,2.021h11.114L35.162,2.833z"/>
<path fill="#CCCCCC" d="M28.089,4.854l7.073-2.021L17.985,4.854H28.089z"/>
<path fill="#B2B2B2" d="M35.162,2.833L17.985,4.854H6.871L35.162,2.833z"/>
<path fill="none" stroke="#000000" stroke-width="2" d="M6.871,4.854h56.582L35.162,2.833L6.871,4.854"/>
<path fill="none" stroke="#000000" stroke-width="2" d="M2.829,61.436L31.12,97.608h8.083l28.089-36.172V8.896l-3.839-4.042H6.871
	L2.829,8.896V61.436"/>
<path fill="none" stroke="#B2B2B2" stroke-width="2" d="M67.292,59.819l-0.606,0.606l-1.818,0.404l-3.031,0.404l-3.84,0.403
	l-4.85,0.404l-5.455,0.202l-5.861,0.202h-6.466h-6.466l-5.86-0.202l-5.456-0.202l-4.85-0.404l-3.839-0.403L5.86,60.829l-1.819-0.404
	l-0.606-0.606"/>
<path fill="none" stroke="#B2B2B2" stroke-width="2" d="M67.292,10.512l-0.606-0.606l-1.818-0.404l-3.031-0.404l-3.84-0.403
	l-4.85-0.404l-5.455-0.202L41.83,7.885h-6.466h-6.466l-5.86,0.202l-5.456,0.202l-4.85,0.404L8.892,9.097L5.86,9.501L4.042,9.906
	l-0.606,0.606"/>
<path fill="#333333" stroke="#000000" stroke-width="2" d="M17.378,103.265v0.404H9.295v-0.404h1.617h1.01h0.809h0.606h0.606h0.808
	h1.011H17.378z"/>
<path fill="#4C4C4C" stroke="#000000" stroke-width="2" d="M16.368,102.659h-1.415v-27.28l1.415,2.021V102.659z"/>
<path fill="#666666" stroke="#000000" stroke-width="2" d="M14.954,102.659h-1.617V73.358l1.617,2.021V102.659z"/>
<path fill="#7F7F7F" stroke="#000000" stroke-width="2" d="M13.337,102.659h-1.415V71.337l1.415,2.223V102.659z"/>
<path fill="#4C4C4C" stroke="#000000" stroke-width="2" d="M59.815,102.659H58.4V71.337l1.415-1.818V102.659z"/>
<path fill="#4C4C4C" stroke="#000000" stroke-width="2" d="M16.368,102.659h-1.415v-27.28l1.415,2.021V102.659z"/>
<path fill="#666666" stroke="#000000" stroke-width="2" d="M58.4,102.659h-1.616V73.358l1.616-2.021V102.659z"/>
<path fill="#666666" stroke="#000000" stroke-width="2" d="M14.954,102.659h-1.617V73.358l1.617,2.021V102.659z"/>
<path fill="#7F7F7F" stroke="#000000" stroke-width="2" d="M56.784,102.659h-1.415v-27.28l1.415-1.819V102.659z"/>
<path fill="#7F7F7F" stroke="#000000" stroke-width="2" d="M13.337,102.659h-1.415V71.337l1.415,2.223V102.659z"/>
<path fill="#B2B2B2" stroke="#000000" stroke-width="2" d="M55.369,102.659h5.457v0.605h-8.084v-0.605h1.011V77.4l1.616-2.021
	V102.659z"/>
<path fill="#B2B2B2" stroke="#000000" stroke-width="2" d="M11.922,102.659h5.456v0.605H9.295v-0.605h1.011V69.317l1.616,2.021
	V102.659z"/>
</svg>
