<?xml version="1.0" encoding="utf-8"?>
<!-- Generator: Adobe Illustrator 14.0.0, SVG Export Plug-In . SVG Version: 6.00 Build 43363)  -->
<!DOCTYPE svg PUBLIC "-//W3C//DTD SVG 1.1//EN" "http://www.w3.org/Graphics/SVG/1.1/DTD/svg11.dtd">
<svg version="1.1" id="图层_1" xmlns="http://www.w3.org/2000/svg" xmlns:xlink="http://www.w3.org/1999/xlink" x="0px" y="0px"
	 width="106.503px" height="106.502px" viewBox="0 0 106.503 106.502" enable-background="new 0 0 106.503 106.502"
	 xml:space="preserve">
<path fill="#7F7F7F" stroke="#000000" stroke-width="2" d="M103.666,95.156V28.109l-0.259-2.579l-0.773-2.579l-1.289-2.32
	l-1.547-2.321l-2.321-2.32l-2.321-2.063l-3.094-1.805l-3.095-1.806l-3.61-1.805l-3.868-1.289l-4.126-1.29L72.979,4.9l-4.642-1.031
	l-4.899-0.516l-4.899-0.258L53.38,2.836l-5.158,0.259l-4.899,0.258l-4.9,0.516L33.782,4.9l-4.384,1.031l-4.126,1.29L21.146,8.51
	l-3.353,1.805l-3.353,1.806l-2.836,1.805l-2.579,2.063l-2.321,2.32L5.158,20.63l-1.29,2.32L3.095,25.53l-0.258,2.579v67.047
	l1.032,1.806l2.836,1.547l2.321,0.773l2.579,0.517l2.836,0.773l3.353,0.516l3.353,0.516l4.126,0.516l4.126,0.516l4.384,0.258
	l4.642,0.258l4.9,0.258l4.899,0.259h5.158h5.158l4.899-0.259l4.899-0.258l4.642-0.258l4.384-0.258l4.126-0.516l3.868-0.516
	l3.61-0.516l3.095-0.516l3.094-0.773l2.321-0.517l2.321-0.773l2.836-1.547l0.773-1.031L103.666,95.156z"/>
<path fill="#999999" d="M97.477,95.156V28.109l-0.258-2.579l-0.516-2.579l-1.29-2.32l-1.289-2.321l-2.063-2.32l-2.063-2.063
	l-2.58-1.805l-2.836-1.806L81.488,8.51l-3.61-1.289l-3.609-1.29L70.399,4.9l-3.867-1.031l-4.385-0.516l-4.383-0.258L53.38,2.836
	l-4.642,0.259l-4.384,0.258l-4.126,0.516L36.103,4.9l-3.868,1.031l-3.61,1.29L25.272,8.51l-3.353,1.805l-2.837,1.806l-2.579,1.805
	l-2.063,2.063l-1.805,2.32l-1.547,2.321l-1.29,2.32L9.284,25.53l-0.258,2.579v67.047l0.774,1.806l2.836,1.547l3.868,1.29
	l2.579,0.773l2.837,0.516l3.353,0.516l3.352,0.516l3.61,0.516l3.868,0.258l4.126,0.258l4.126,0.258l4.384,0.259h4.642h4.384
	l4.383-0.259l4.385-0.258l3.867-0.258l3.869-0.258l3.609-0.516l3.61-0.516l3.095-0.516l2.836-0.516l2.58-0.773l4.125-1.29
	l2.579-1.547l0.516-1.031L97.477,95.156z"/>
<path fill="#B2B2B2" d="M86.903,95.156V28.109L86.13,22.95l-1.805-4.642l-3.095-4.384l-4.126-3.61l-5.157-3.094L66.274,4.9
	l-6.189-1.547L53.38,2.836l-6.705,0.517L40.229,4.9l-5.673,2.321l-4.899,3.094l-4.384,3.61l-3.095,4.384l-1.805,4.642l-0.773,5.158
	v67.047l0.773,1.806l1.805,1.547l3.095,1.29l4.384,1.289l4.899,1.031l5.673,0.773l6.447,0.516l6.705,0.259l6.705-0.259l6.189-0.516
	l5.673-0.773l5.157-1.031l4.126-1.289l3.095-1.29l1.805-1.547L86.903,95.156z"/>
<path fill="#CCCCCC" d="M72.205,95.156V28.109l-0.258-5.158l-1.29-4.642l-1.805-4.384l-2.063-3.61l-2.837-3.094L60.601,4.9
	l-3.353-1.547L53.38,2.836l-3.868,0.517L45.902,4.9l-3.095,2.321l-2.836,3.094l-2.321,3.61l-1.805,4.384l-1.29,4.642l-0.258,5.158
	v67.047l0.258,1.806l3.095,2.837l2.321,1.289l2.836,1.031l3.095,0.773l3.61,0.516l3.868,0.259l3.868-0.259l3.353-0.516l3.353-0.773
	l2.837-1.031l2.063-1.289l3.095-2.837L72.205,95.156z"/>
<path fill="none" stroke="#000000" stroke-width="2" d="M103.666,28.109l-1.032,1.805l-2.836,1.548l-2.321,0.516l-2.321,0.773
	l-3.094,0.516l-3.095,0.773l-3.61,0.516l-3.868,0.516l-4.126,0.259l-4.384,0.516l-4.642,0.258h-4.899l-4.899,0.258H48.223
	l-4.899-0.258h-4.9l-4.642-0.258l-4.384-0.516l-4.126-0.259l-4.126-0.516l-3.353-0.516l-3.353-0.773l-2.836-0.516l-2.579-0.773
	l-3.868-1.29l-1.29-0.773l-1.032-1.805"/>
<path fill="none" stroke="#000000" stroke-width="2" d="M61.632,4.126l-0.258,0.258l-0.516,0.258L60.085,4.9l-1.031,0.258
	l-1.031,0.258h-1.548l-1.548,0.258H53.38h-1.805l-1.547-0.258h-1.29l-1.289-0.258L46.417,4.9l-0.773-0.258l-0.516-0.258L44.87,4.126
	"/>
<path fill="#333333" stroke="#000000" stroke-width="2" d="M13.41,103.666h1.805V30.687H13.41V103.666z"/>
<path fill="#333333" stroke="#000000" stroke-width="2" d="M21.146,103.666h1.805V30.687h-1.805V103.666z"/>
<path fill="#666666" stroke="#000000" stroke-width="2" d="M15.215,97.992v1.806h5.931v-1.806H15.215z"/>
<path fill="#666666" stroke="#000000" stroke-width="2" d="M15.215,92.062v2.063h5.931v-2.063H15.215z"/>
<path fill="#666666" stroke="#000000" stroke-width="2" d="M15.215,86.388v1.806h5.931v-1.806H15.215z"/>
<path fill="#666666" stroke="#000000" stroke-width="2" d="M15.215,80.715v1.805h5.931v-1.805H15.215z"/>
<path fill="#666666" stroke="#000000" stroke-width="2" d="M15.215,74.783v2.063h5.931v-2.063H15.215z"/>
<path fill="#666666" stroke="#000000" stroke-width="2" d="M15.215,69.111v1.805h5.931v-1.805H15.215z"/>
<path fill="#666666" stroke="#000000" stroke-width="2" d="M15.215,63.179v2.063h5.931v-2.063H15.215z"/>
<path fill="#666666" stroke="#000000" stroke-width="2" d="M15.215,57.506v2.063h5.931v-2.063H15.215z"/>
<path fill="#666666" stroke="#000000" stroke-width="2" d="M15.215,51.833v1.805h5.931v-1.805H15.215z"/>
<path fill="#666666" stroke="#000000" stroke-width="2" d="M15.215,45.902v2.063h5.931v-2.063H15.215z"/>
<path fill="#666666" stroke="#000000" stroke-width="2" d="M15.215,40.229v1.805h5.931v-1.805H15.215z"/>
<path fill="#666666" stroke="#000000" stroke-width="2" d="M15.215,34.555v1.806h5.931v-1.806H15.215z"/>
</svg>
