<?xml version="1.0" encoding="utf-8"?>
<!-- Generator: Adobe Illustrator 14.0.0, SVG Export Plug-In . SVG Version: 6.00 Build 43363)  -->
<!DOCTYPE svg PUBLIC "-//W3C//DTD SVG 1.1//EN" "http://www.w3.org/Graphics/SVG/1.1/DTD/svg11.dtd">
<svg version="1.1" id="图层_1" xmlns="http://www.w3.org/2000/svg" xmlns:xlink="http://www.w3.org/1999/xlink" x="0px" y="0px"
	 width="144.749px" height="59.551px" viewBox="0 0 144.749 59.551" enable-background="new 0 0 144.749 59.551"
	 xml:space="preserve">
<path fill="#666666" stroke="#000000" stroke-width="2" d="M136.49,18.692v0.869l0.29,6.375h3.188l0.58-3.767l-0.58-3.478H136.49z"
	/>
<path fill="#666666" stroke="#000000" stroke-width="2" d="M134.171,4.926l0.87,2.029l0.869,5.216l0.579,7.39l0.29,9.273
	l-0.29,9.128l-0.579,7.534l-0.869,5.071l-1.159,2.028H6.665V4.926h127.217H134.171z"/>
<path fill="#9C9C9C" d="M135.041,6.665l1.738,21.879L135.33,47.96H6.085l0.58-41.295H135.041z"/>
<path fill="#B8B8B8" d="M135.62,8.694l1.159,19.851l-0.29,7.969H6.665V8.694H135.62z"/>
<path fill="#D4D4D4" d="M136.78,28.254l-0.869-17.532H6.665v17.532H136.78z"/>
<path fill="#F0F0F0" d="M136.49,20.14l-0.579-7.679H6.665v7.679H136.49z"/>
<path fill="#FFFFFF" d="M136.2,16.083V13.62H6.665v2.463H136.2z"/>
<ellipse fill="#7F7F7F" stroke="#000000" stroke-width="2" cx="6.81" cy="28.689" rx="2.753" ry="23.763"/>
<path fill="#7F7F7F" stroke="#000000" stroke-width="2" d="M102.005,14.78l0.579,14.055L102.295,39.7l-1.449,13.186v0.29h4.927
	h0.289l2.029-16.663l0.289-7.679l-0.869-14.055l-1.449-10.723h-5.216L102.005,14.78z"/>
<path fill="#7F7F7F" stroke="#000000" stroke-width="2" d="M36.513,14.78l0.58,14.055L36.803,39.7l-1.159,13.186v0.29h4.927h0.289
	l2.029-16.663l0.289-7.679L42.309,14.78L40.86,4.057h-5.216L36.513,14.78z"/>
<path fill="#9C9C9C" d="M101.425,5.216l1.739,23.328l-0.58,16.662h4.637l0.58-16.372l-2.028-23.618H101.425z"/>
<path fill="#9C9C9C" d="M35.934,5.216l2.028,23.328l-0.869,16.662h4.926l0.58-16.372L40.571,5.216H35.934z"/>
<path fill="#B8B8B8" d="M102.005,7.534l1.159,21.01v7.679h4.637v-7.389l-1.449-21.3H102.005z"/>
<path fill="#B8B8B8" d="M36.513,7.534l1.159,21.01v7.679h4.927v-7.389l-1.449-21.3H36.513z"/>
<path fill="#D4D4D4" d="M103.164,27.095l-0.869-17.821h4.637l0.869,17.821H103.164z"/>
<path fill="#D4D4D4" d="M37.962,27.095L36.803,9.274h4.927l0.869,17.821H37.962z"/>
<path fill="#F0F0F0" d="M102.584,18.402l-0.579-7.1h4.637l0.579,7.1H102.584z"/>
<path fill="#F0F0F0" d="M37.093,18.402l-0.58-7.1h4.927l0.579,7.1H37.093z"/>
<path stroke="#000000" stroke-width="2" d="M102.874,41.73h2.028h2.608l-2.608,7.1l-2.028,6.665l-0.869-1.159l-1.159-1.159
	l1.159-5.651L102.874,41.73z"/>
<path stroke="#000000" stroke-width="2" d="M37.383,41.73h2.318h2.607l-2.607,7.1l-2.318,6.665l-0.87-1.159l-0.869-1.159
	l0.869-5.651L37.383,41.73z"/>
<path fill="#B2B2B2" stroke="#000000" stroke-width="2" d="M103.164,41.73h4.637v13.765h-4.637V41.73z"/>
<path fill="#B2B2B2" stroke="#000000" stroke-width="2" d="M37.672,41.73h4.927v13.765h-4.927V41.73z"/>
</svg>
