<?xml version="1.0" encoding="utf-8"?>
<!-- Generator: Adobe Illustrator 14.0.0, SVG Export Plug-In . SVG Version: 6.00 Build 43363)  -->
<!DOCTYPE svg PUBLIC "-//W3C//DTD SVG 1.1//EN" "http://www.w3.org/Graphics/SVG/1.1/DTD/svg11.dtd">
<svg version="1.1" id="图层_1" xmlns="http://www.w3.org/2000/svg" xmlns:xlink="http://www.w3.org/1999/xlink" x="0px" y="0px"
	 width="60.336px" height="106.502px" viewBox="0 0 60.336 106.502" enable-background="new 0 0 60.336 106.502"
	 xml:space="preserve">
<path fill="#666638" d="M2.985,103.406V12.05l10.873-7.249l16.31-1.813l17.163,1.813l9.914,7.249v91.356H2.985z"/>
<path fill="#78784F" d="M7.462,103.406V12.05l8.209-7.249l14.497-1.813l14.498,1.813l8.954,7.249v91.356H7.462z"/>
<path fill="#878763" d="M11.087,103.406V12.05l7.249-7.249l11.832-1.813l12.686,1.813l7.143,7.249v91.356H11.087z"/>
<path fill="#99997A" d="M14.711,103.406V12.05l6.396-7.249l9.061-1.813l9.914,1.813l5.437,7.249v91.356H14.711z"/>
<path fill="#ABAB91" d="M19.295,103.406V12.05l4.478-7.249l6.396-1.813l7.143,1.813l4.584,7.249v91.356H19.295z"/>
<path fill="#BABAA6" d="M22.919,103.406V12.05l2.665-7.249l4.584-1.813l4.478,1.813l2.665,7.249v91.356H22.919z"/>
<path fill="#CCCCBD" d="M27.396,103.406V12.05l0.96-7.249l1.812-1.813l2.665,1.813l0.854,7.249v91.356H27.396z"/>
<path fill="none" stroke="#000000" stroke-width="2" d="M2.985,103.406V12.05l10.873-7.249l16.31-1.813l17.163,1.813l9.914,7.249
	v91.356H2.985"/>
<path fill="none" stroke="#000000" stroke-width="2" d="M2.985,12.05h54.26"/>
</svg>
