<?xml version="1.0" encoding="utf-8"?>
<!-- Generator: Adobe Illustrator 14.0.0, SVG Export Plug-In . SVG Version: 6.00 Build 43363)  -->
<!DOCTYPE svg PUBLIC "-//W3C//DTD SVG 1.1//EN" "http://www.w3.org/Graphics/SVG/1.1/DTD/svg11.dtd">
<svg version="1.1" id="图层_1" xmlns="http://www.w3.org/2000/svg" xmlns:xlink="http://www.w3.org/1999/xlink" x="0px" y="0px"
	 width="64.605px" height="106.502px" viewBox="0 0 64.605 106.502" enable-background="new 0 0 64.605 106.502"
	 xml:space="preserve">
<path fill="#4C4C4C" stroke="#000000" stroke-width="2" d="M5.758,11.407h53.091v1.173H5.758V11.407z"/>
<path fill="#7F7F7F" d="M4.585,80.916V19.829h55.437v61.087H4.585z"/>
<path fill="#7F7F7F" d="M60.021,80.916L40.725,103.41H23.881L4.585,80.916H60.021z"/>
<path fill="#999999" d="M9.808,80.916V19.829h44.989v61.087H9.808z"/>
<path fill="#999999" d="M54.798,80.916L39.126,103.41H25.48L9.808,80.916H54.798z"/>
<path fill="#B2B2B2" d="M15.459,80.916V19.829h33.688v61.087H15.459z"/>
<path fill="#B2B2B2" d="M49.147,80.916l-11.62,22.494H27.079l-11.62-22.494H49.147z"/>
<path fill="#CCCCCC" d="M21.003,80.916V19.829h22.601v61.087H21.003z"/>
<path fill="#CCCCCC" d="M43.603,80.916l-8.103,22.494h-6.396l-8.102-22.494H43.603z"/>
<path fill="#E5E5E5" d="M26.652,80.916V19.829h11.301v61.087H26.652z"/>
<path fill="#E5E5E5" d="M37.953,80.916l-4.051,22.494h-3.198l-4.052-22.494H37.953z"/>
<path fill="#FFFFFF" d="M30.704,80.916V19.829h3.198v61.087H30.704z"/>
<path fill="#FFFFFF" d="M33.902,80.916l-1.173,22.494h-0.853l-1.173-22.494H33.902z"/>
<path fill="none" stroke="#000000" stroke-width="2" d="M4.585,80.916h55.437L40.725,103.41H23.881L4.585,80.916"/>
<path fill="none" stroke="#000000" stroke-width="2" d="M4.585,80.916V19.829h55.437v61.087H4.585"/>
<path fill="none" stroke="#000000" stroke-width="2" d="M4.585,19.829h55.437V2.985H4.585V19.829"/>
<path fill="#7F7F7F" stroke="#000000" stroke-width="2" d="M5.758,19.829V4.157h12.047v15.672h1.279V4.157H31.45v15.672h1.599V4.157
	h12.474v15.672h1.279V4.157h12.047v15.672h1.173V2.985H4.585v16.845H5.758z"/>
<path fill="#4C4C4C" stroke="#000000" stroke-width="2" d="M4.585,19.083h22.067v1.173H4.585V19.083z"/>
<path fill="#4C4C4C" stroke="#000000" stroke-width="2" d="M37.953,19.083h22.068v1.173H37.953V19.083z"/>
<path fill="#B2B2B2" stroke="#000000" stroke-width="2" d="M2.985,103.41V75.693h1.6v5.224l2.345,14.072h50.64l2.452-14.072v-5.224
	h1.599v27.718h-4.051v-3.944H6.929v3.944H2.985z"/>
<path fill="#666666" d="M5.01,103.41v-3.944l-1.279-18.55v-5.224h0.854v5.224l2.345,15.672h52.665l1.279-15.672v-5.224h0.746v27.718
	h-2.025v-3.944H6.929v3.944H5.01z"/>
<path fill="#999999" stroke="#000000" stroke-width="2" d="M28.252,7.782h8.103v1.173h-8.103V7.782z"/>
<path fill="#999999" stroke="#000000" stroke-width="2" d="M28.252,19.083h8.103v1.173h-8.103V19.083z"/>
<path fill="#999999" stroke="#000000" stroke-width="2" d="M28.252,30.277h8.103v1.173h-8.103V30.277z"/>
<path fill="#999999" stroke="#000000" stroke-width="2" d="M28.252,41.151h8.103v1.6h-8.103V41.151z"/>
<path fill="#999999" stroke="#000000" stroke-width="2" d="M28.252,52.345h8.103v1.706h-8.103V52.345z"/>
<path fill="#999999" stroke="#000000" stroke-width="2" d="M28.252,63.646h8.103v1.173h-8.103V63.646z"/>
<path fill="#999999" stroke="#000000" stroke-width="2" d="M28.252,74.947h8.103v1.172h-8.103V74.947z"/>
<path fill="#999999" stroke="#000000" stroke-width="2" d="M28.252,86.14h8.103v1.173h-8.103V86.14z"/>
<path fill="#999999" stroke="#000000" stroke-width="2" d="M28.252,97.014h8.103v1.6h-8.103V97.014z"/>
<path fill="#7F7F7F" stroke="#000000" stroke-width="2" d="M36.354,2.985h1.599V103.41h-1.599V2.985z"/>
<path fill="#7F7F7F" stroke="#000000" stroke-width="2" d="M26.652,2.985h1.6V103.41h-1.6V2.985z"/>
</svg>
