<?xml version="1.0" encoding="utf-8"?>
<!-- Generator: Adobe Illustrator 14.0.0, SVG Export Plug-In . SVG Version: 6.00 Build 43363)  -->
<!DOCTYPE svg PUBLIC "-//W3C//DTD SVG 1.1//EN" "http://www.w3.org/Graphics/SVG/1.1/DTD/svg11.dtd">
<svg version="1.1" id="图层_1" xmlns="http://www.w3.org/2000/svg" xmlns:xlink="http://www.w3.org/1999/xlink" x="0px" y="0px"
	 width="72.813px" height="106.502px" viewBox="0 0 72.813 106.502" enable-background="new 0 0 72.813 106.502"
	 xml:space="preserve">
<path fill="#7F7F7F" d="M69.828,74.626v0.213l-2.665,1.919l-3.092,1.279l-2.985,1.066l-3.518,1.066l-3.838,0.853l-2.879,0.533
	l-2.984,0.427l-3.092,0.426l-3.305,0.214l-3.412,0.106l-1.705,0.106l-1.706-0.106l-3.305-0.106l-3.305-0.214l-3.092-0.426
	l-2.985-0.427l-2.878-0.533l-3.945-0.853l-3.518-1.066l-2.985-1.066l-2.984-1.279l-2.559-1.705l-0.107-0.214v-0.213V11.727
	l1.493-2.559L7.036,7.57l2.559-1.066l3.198-0.959l3.624-0.854l4.052-0.64l2.878-0.426l3.092-0.214l3.198-0.319l3.305-0.106h1.706
	h1.706h3.411l3.305,0.106l3.198,0.319l3.092,0.214l2.985,0.426l4.051,0.64l3.625,0.854l3.092,0.959l2.665,1.066l2.559,1.599
	l1.492,2.133v0.426V74.626z"/>
<path fill="#8F8F8F" d="M66.204,74.626v0.213l-2.346,1.813l-2.772,1.173l-2.771,0.96l-3.092,0.853l-3.518,0.853l-3.838,0.64
	l-4.158,0.533l-2.878,0.213l-1.386,0.107h-1.6h-1.492h-2.985l-4.265-0.32l-4.051-0.533l-3.838-0.64l-3.411-0.853l-3.092-0.853
	l-2.665-0.96l-2.772-1.173l-2.238-1.813L6.93,74.626v-1.919l0.106-3.305v-4.265V61.62l0.106-3.306V47.548L7.036,43.71v-7.036v-2.772
	v-6.29v-3.518v-3.838L6.93,16.204v-4.478l1.386-2.559l2.238-1.599l3.198-1.386l2.985-0.854l3.305-0.746l3.731-0.64l3.944-0.426
	l4.265-0.214l1.386-0.106h1.492h1.493h3.092l4.264,0.213l4.158,0.427l3.838,0.533l3.518,0.64l3.092,0.853l2.771,0.96l2.772,1.492
	l2.025,2.132l0.32,0.854v0.426v1.919V74.626z"/>
<path fill="#9C9C9C" d="M62.259,74.626l-2.132,1.919l-3.092,1.386l-3.305,1.173l-2.985,0.64l-3.198,0.746l-3.518,0.427l-3.731,0.427
	h-1.279l-1.279,0.106h-1.386l-3.838-0.106l-3.625-0.427l-3.518-0.427l-3.198-0.746l-2.879-0.64l-3.305-1.173l-2.559-1.173
	l-2.346-1.705l-0.106-0.214v-0.213v-1.919v-60.98l1.173-2.559l2.452-1.919l2.984-1.386l2.665-0.853l2.985-0.64l3.305-0.533
	l3.519-0.427l3.731-0.213h1.279h1.279l3.944,0.106l3.731,0.214l3.518,0.426l3.198,0.64l2.985,0.746l2.559,0.854l2.771,1.386
	l2.346,1.919l0.746,1.813l0.106,0.426v1.919V74.626z"/>
<path fill="#ABABAB" d="M58.208,74.626l-2.132,2.025l-2.772,1.279l-2.984,1.066l-3.412,0.746l-2.984,0.533l-3.092,0.319
	l-2.239,0.214h-1.065h-1.173l-4.265-0.214l-4.051-0.426l-3.625-0.746l-3.305-0.96l-2.559-1.066l-2.772-1.492l-0.853-0.853
	l-0.106-0.427v-1.919v-60.98l0.959-2.559l2.772-2.345l2.559-1.173l3.305-1.066l3.625-0.746l4.051-0.533l2.132-0.106h2.133h1.173
	l3.198,0.106l3.198,0.32l2.878,0.533l3.411,0.853l2.985,1.173l2.346,1.386l2.238,2.346l0.427,3.73v3.306l0.106,4.157v3.519v6.716
	v1.279v1.279v10.768v4.904v2.771l-0.106,3.092v6.823v3.73v4.158V74.626z"/>
<path fill="#BABABA" d="M54.37,74.626l-2.132,2.132l-3.092,1.387l-2.665,0.853l-2.985,0.64l-3.305,0.427l-1.813,0.106l-1.813,0.106
	l-1.813-0.106l-3.411-0.32l-3.305-0.533l-2.879-0.746l-3.518-1.279l-2.666-1.919l-0.319-0.319l-0.106-0.427v-1.919v-60.98
	l0.853-2.559l2.239-2.345l3.411-1.813l2.879-0.853l3.198-0.64l3.411-0.32h1.813h1.919l3.518,0.32l3.198,0.64l2.879,0.853
	l2.452,1.173l2.665,2.132l1.279,2.559l0.106,0.853v1.919V74.626z"/>
<path fill="#C9C9C9" d="M50.426,74.626l-2.346,2.452l-2.665,1.173l-3.411,0.853l-3.945,0.533h-1.492h-1.386l-4.051-0.533
	l-3.519-0.853l-2.771-1.173l-2.133-1.706l-0.213-0.319l-0.106-0.427v-1.919v-60.98l1.066-3.411l2.132-2.132l2.985-1.6l3.73-1.065
	l2.666-0.32h1.386h1.492l4.051,0.64l3.412,1.173l2.665,1.813l1.813,2.345l0.64,4.478v6.184v3.625v3.305v3.411v5.225l0.106,1.599
	v1.706v8.315l-0.106,5.33v6.396v3.519v7.889V74.626z"/>
<path fill="#D6D6D6" d="M46.588,74.626l-1.706,2.239l-2.665,1.279l-3.625,0.746l-0.959,0.106h-1.066H35.5l-2.878-0.427l-3.305-1.065
	l-2.665-1.813l-0.427-0.747l-0.106-0.319l0.106-1.919v-3.305v-4.265l0.106-3.518v-6.717V41.577l-0.106-4.903v-2.772v-2.985v-6.822
	v-3.838v-4.052l-0.106-4.478l0.853-3.411l2.239-2.665l2.345-1.492l2.772-0.854l1.065-0.106h0.96h1.065l2.985,0.64l2.559,1.173
	l2.452,2.559l1.066,3.305l0.106,0.853v1.919V74.626z"/>
<path fill="#E5E5E5" d="M42.536,74.626l-1.279,2.346l-2.771,1.279l-1.279,0.106l-0.64,0.106l-0.64-0.106l-2.878-0.64l-2.559-1.706
	l-0.427-1.066l-0.106-0.319V11.727l0.533-3.305l1.386-2.878l2.025-1.919l1.813-0.64h0.64h0.64l2.878,1.492l1.6,2.452l0.959,3.092
	l0.106,0.853v0.853V74.626z"/>
<path fill="none" stroke="#000000" stroke-width="2" d="M69.828,74.626v0.213l-2.665,1.919l-3.092,1.279l-2.985,1.066l-3.518,1.066
	l-3.838,0.853l-2.879,0.533l-2.984,0.427l-3.092,0.426l-3.305,0.214l-3.412,0.106l-1.705,0.106l-1.706-0.106l-3.305-0.106
	l-3.305-0.214l-3.092-0.426l-2.985-0.427l-2.878-0.533l-3.945-0.853l-3.518-1.066l-2.985-1.066l-2.984-1.279l-2.559-1.705
	l-0.107-0.214v-0.213V11.727l1.493-2.559L7.036,7.57l2.559-1.066l3.198-0.959l3.624-0.854l4.052-0.64l2.878-0.426l3.092-0.214
	l3.198-0.319l3.305-0.106h1.706h1.706h3.411l3.305,0.106l3.198,0.319l3.092,0.214l2.985,0.426l4.051,0.64l3.625,0.854l3.092,0.959
	l2.665,1.066l2.559,1.599l1.492,2.133v0.426V74.626"/>
<path fill="#999999" stroke="#000000" stroke-width="2" d="M57.356,99.999V70.255l9.062,3.625v26.119h1.813v1.599H55.65v-1.599
	H57.356z"/>
<path fill="#999999" stroke="#000000" stroke-width="2" d="M15.778,99.999V70.255L6.61,73.88v26.119H5.011v1.813h12.366v-1.813
	H15.778z"/>
<path fill="#7F7F7F" stroke="#000000" stroke-width="2" d="M3.198,101.812h16.417v1.599H3.198V101.812z"/>
<path fill="#7F7F7F" stroke="#000000" stroke-width="2" d="M53.41,101.812h16.418v1.599H53.41V101.812z"/>
<path fill="#F2FFF2" stroke="#000000" stroke-width="2" d="M30.383,27.399H41.79v6.184H30.383V27.399z"/>
<ellipse fill="none" stroke="#7F7F7F" stroke-width="2" cx="36.673" cy="51.705" rx="16.737" ry="17.164"/>
<ellipse fill="#999999" stroke="#000000" stroke-width="2" cx="36.673" cy="51.812" rx="12.474" ry="13.006"/>
<circle fill="#CCCCCC" stroke="#000000" stroke-width="2" cx="36.673" cy="51.279" r="12.473"/>
<path fill="#999999" stroke="#000000" stroke-width="2" d="M17.804,57.569h12.579v2.025H17.804V57.569z"/>
<path fill="#999999" stroke="#000000" stroke-width="2" d="M17.804,42.963h12.579v2.026H17.804V42.963z"/>
<path fill="#B2B2B2" stroke="#000000" stroke-width="2" d="M55.437,49.147h3.518v6.29h-3.518V49.147z"/>
<path fill="#B2B2B2" stroke="#000000" stroke-width="2" d="M60.554,49.786h2.238v5.65h-2.238V49.786z"/>
</svg>
