<?xml version="1.0" encoding="utf-8"?>
<!-- Generator: Adobe Illustrator 14.0.0, SVG Export Plug-In . SVG Version: 6.00 Build 43363)  -->
<!DOCTYPE svg PUBLIC "-//W3C//DTD SVG 1.1//EN" "http://www.w3.org/Graphics/SVG/1.1/DTD/svg11.dtd">
<svg version="1.1" id="图层_1" xmlns="http://www.w3.org/2000/svg" xmlns:xlink="http://www.w3.org/1999/xlink" x="0px" y="0px"
	 width="106.503px" height="106.502px" viewBox="0 0 106.503 106.502" enable-background="new 0 0 106.503 106.502"
	 xml:space="preserve">
<path fill="#999999" d="M103.411,99.253V7.143H2.985v92.11v0.213l2.985,1.173l3.091,0.64l3.945,0.533l3.092,0.213l3.305,0.32
	l3.838,0.213l3.944,0.32l4.265,0.106l4.478,0.213l4.797,0.106l4.797,0.106h2.559h2.559h2.559h5.118l5.01-0.106l4.798-0.106
	l4.585-0.106l4.37-0.106l4.157-0.214l3.839-0.319l3.624-0.213l3.199-0.32l2.878-0.319l3.731-0.533l3.305-0.746l1.6-0.854V99.253z"/>
<path fill="#A8A8A8" d="M96.481,99.253V81.983l0.106-2.879v-2.878V27.292l-0.106-5.864V7.143H80.276l-2.665-0.106h-2.772H28.891
	l-5.437,0.106H12.687H9.915v2.879v14.392l0.107,5.757v48.934l-0.107,5.757v14.393l2.666,1.386l3.625,0.746l3.625,0.427l4.371,0.533
	l3.198,0.213l3.412,0.213l3.731,0.214l3.838,0.106l4.051,0.213l4.265,0.106h2.132h2.239h2.132h4.477l4.266-0.106l4.157-0.106
	l3.944-0.106l3.838-0.213l3.518-0.214l3.306-0.213l3.092-0.32l4.051-0.426l3.411-0.533l3.305-0.746L96.481,99.253z"/>
<path fill="#B8B8B8" d="M89.552,99.253V81.983v-2.879v-2.878V27.292v-5.864V7.143H75.905l-2.238-0.106h-2.238H32.835l-4.478,0.106
	h-9.168h-2.239v2.879v14.392v5.757v48.934v5.757v14.393v0.213l2.878,1.386l3.305,0.747l3.305,0.426l3.731,0.427l4.264,0.319
	l3.092,0.214l3.198,0.106l3.412,0.213l3.518,0.106h1.813h1.919h1.812h3.731l3.625-0.106l3.412-0.106l3.411-0.106l3.092-0.213
	l2.985-0.214l4.157-0.319l3.624-0.533l2.986-0.427l3.092-0.746l2.131-1.173L89.552,99.253z"/>
<path fill="#C4C4C4" d="M82.515,99.253V81.983l0.107-2.879v-2.878V27.292l-0.107-5.864V7.143h-10.98l-1.813-0.106H67.91H36.78
	l-3.625,0.106h-7.356H23.88v2.879v14.392l0.106,5.757v48.934l-0.106,5.757v14.393l0.106,0.213l2.239,1.386l2.772,0.747l3.518,0.532
	l3.198,0.427l3.518,0.32l3.945,0.213l4.158,0.213l2.878,0.106h1.493h1.492h2.985l4.371-0.106l4.051-0.213l3.838-0.32l3.412-0.319
	l3.092-0.427l3.305-0.64l2.984-0.959l1.279-0.96V99.253z"/>
<path fill="#D4D4D4" d="M75.586,99.253V81.983v-2.879v-2.878V27.292v-5.864V7.143h-8.423l-1.385-0.106h-1.387H40.725L36.46,7.143
	h-4.158h-1.386v2.879v14.392v5.757v48.934v5.757v14.393l0.107,0.427l2.559,1.492l3.091,0.853l3.198,0.533l3.731,0.427l2.985,0.213
	l3.305,0.213h1.066h1.173h1.066h3.412l3.305-0.213l2.985-0.213l3.625-0.427l3.197-0.533l3.092-0.853l2.453-1.279l0.213-0.213
	L75.586,99.253z"/>
<path fill="#E3E3E3" d="M68.55,99.253V81.983l0.106-2.879v-2.878V27.292l-0.106-5.864V7.143h-5.758l-0.959-0.106h-0.959H44.669
	l-3.944,0.106h-1.813h-1.066v2.879v14.392l0.106,5.757v48.934l-0.106,5.757v14.393l0.106,0.427l2.559,1.919l2.985,0.853l3.731,0.64
	l2.878,0.213l1.599,0.106h1.492h1.599l2.985-0.213l4.051-0.533l3.198-0.853l2.879-1.386l0.64-0.746V99.253z"/>
<path fill="#F2F2F2" d="M61.62,99.253V7.143H44.776v92.11l1.493,2.346l2.985,1.386l3.092,0.426h0.853l3.198-0.319l2.772-0.853
	l2.239-2.133L61.62,99.253z"/>
<path fill="none" stroke="#000000" stroke-width="2" d="M103.411,99.253V7.143H2.985v92.11v0.213l2.985,1.173l3.091,0.64
	l3.945,0.533l3.092,0.213l3.305,0.32l3.838,0.213l3.944,0.32l4.265,0.106l4.478,0.213l4.797,0.106l4.797,0.106h2.559h2.559h2.559
	h5.118l5.01-0.106l4.798-0.106l4.585-0.106l4.37-0.106l4.157-0.214l3.839-0.319l3.624-0.213l3.199-0.32l2.878-0.319l3.731-0.533
	l3.305-0.746l1.6-0.854V99.253"/>
<ellipse fill="#BFBFBF" stroke="#000000" stroke-width="2" cx="53.198" cy="7.143" rx="50.213" ry="4.158"/>
<path fill="none" stroke="#000000" stroke-width="2" d="M28.038,10.768v92.11"/>
<path fill="#7F7F7F" d="M23.88,13.433h2.132v2.132H23.88V13.433z"/>
<path fill="#7F7F7F" d="M23.88,21.748h2.132v2.132H23.88V21.748z"/>
<path fill="#7F7F7F" d="M23.88,30.17h2.132v2.133H23.88V30.17z"/>
<path fill="#7F7F7F" d="M23.88,38.486h2.132v2.133H23.88V38.486z"/>
<path fill="#7F7F7F" d="M23.88,46.908h2.132v2.132H23.88V46.908z"/>
<path fill="#7F7F7F" d="M23.88,55.224h2.132v2.132H23.88V55.224z"/>
<path fill="#7F7F7F" d="M23.88,63.646h2.132v2.132H23.88V63.646z"/>
<path fill="#7F7F7F" d="M23.88,72.068h2.132v2.025H23.88V72.068z"/>
<path fill="#7F7F7F" d="M23.88,80.383h2.132v2.133H23.88V80.383z"/>
<path fill="#7F7F7F" d="M23.88,88.805h2.132v2.026H23.88V88.805z"/>
<path fill="#7F7F7F" d="M23.88,97.12h2.132v2.133H23.88V97.12z"/>
<path fill="none" stroke="#000000" stroke-width="2" d="M69.936,10.768v92.11"/>
<path fill="#999999" d="M65.778,13.433h2.132v2.132h-2.132V13.433z"/>
<path fill="#999999" d="M65.778,21.748h2.132v2.132h-2.132V21.748z"/>
<path fill="#999999" d="M65.778,30.17h2.132v2.133h-2.132V30.17z"/>
<path fill="#999999" d="M65.778,38.486h2.132v2.133h-2.132V38.486z"/>
<path fill="#999999" d="M65.778,46.908h2.132v2.132h-2.132V46.908z"/>
<path fill="#999999" d="M65.778,55.224h2.132v2.132h-2.132V55.224z"/>
<path fill="#999999" d="M65.778,63.646h2.132v2.132h-2.132V63.646z"/>
<path fill="#999999" d="M65.778,72.068h2.132v2.025h-2.132V72.068z"/>
<path fill="#999999" d="M65.778,80.383h2.132v2.133h-2.132V80.383z"/>
<path fill="#999999" d="M65.778,88.805h2.132v2.026h-2.132V88.805z"/>
<path fill="#999999" d="M65.778,97.12h2.132v2.133h-2.132V97.12z"/>
</svg>
