<?xml version="1.0" encoding="utf-8"?>
<!-- Generator: Adobe Illustrator 14.0.0, SVG Export Plug-In . SVG Version: 6.00 Build 43363)  -->
<!DOCTYPE svg PUBLIC "-//W3C//DTD SVG 1.1//EN" "http://www.w3.org/Graphics/SVG/1.1/DTD/svg11.dtd">
<svg version="1.1" id="图层_1" xmlns="http://www.w3.org/2000/svg" xmlns:xlink="http://www.w3.org/1999/xlink" x="0px" y="0px"
	 width="64.605px" height="106.502px" viewBox="0 0 64.605 106.502" enable-background="new 0 0 64.605 106.502"
	 xml:space="preserve">
<path fill="#7F7F7F" d="M26.012,9.275h12.58v-6.29h-12.58V9.275z"/>
<path fill="#7F7F7F" d="M13.433,15.565h37.739v-6.29H13.433V15.565z"/>
<path fill="#7F7F7F" d="M7.143,21.748h50.213v-6.29H7.143V21.748z"/>
<path fill="#7F7F7F" d="M2.985,21.748H61.62v81.662H2.985V21.748z"/>
<path fill="#999999" d="M7.889,21.748h48.827v81.662H7.889V21.748z"/>
<path fill="#999999" d="M11.301,21.748h41.897v-6.29H11.301V21.748z"/>
<path fill="#999999" d="M16.525,15.565h31.449v-6.29H16.525V15.565z"/>
<path fill="#999999" d="M26.972,9.275h10.555v-6.29H26.972V9.275z"/>
<path fill="#A6A6A6" d="M15.565,21.748h33.368v-6.29H15.565V21.748z"/>
<path fill="#A6A6A6" d="M12.794,21.748h39.019v81.662H12.794V21.748z"/>
<path fill="#B2B2B2" d="M15.138,21.748H49.36v81.662H15.138V21.748z"/>
<path fill="#B2B2B2" d="M17.591,21.748h29.317v-6.29H17.591V21.748z"/>
<path fill="#B2B2B2" d="M21.535,15.565h21.429v-6.29H21.535V15.565z"/>
<path fill="#CCCCCC" d="M21.322,21.748h21.962v81.662H21.322V21.748z"/>
<path fill="#CCCCCC" d="M23.881,15.565h16.845v-6.29H23.881V15.565z"/>
<path fill="#CCCCCC" d="M28.571,9.275h7.356v-6.29h-7.356V9.275z"/>
<path fill="#CCCCCC" d="M22.814,21.748h18.87v-6.29h-18.87V21.748z"/>
<path fill="#E5E5E5" d="M31.237,9.275h2.025v-6.29h-2.025V9.275z"/>
<path fill="#E5E5E5" d="M29.104,15.565h6.29v-6.29h-6.29V15.565z"/>
<path fill="#E5E5E5" d="M28.039,21.748h8.422v-6.29h-8.422V21.748z"/>
<path fill="#E5E5E5" d="M27.399,21.748h9.808v81.662h-9.808V21.748z"/>
<path fill="none" stroke="#000000" stroke-width="2" d="M2.985,103.41H61.62V21.748h-4.264v-6.184h-6.184v-6.29h-12.58v-6.29h-12.58
	v6.29H13.433v6.29h-6.29v6.184H2.985V103.41"/>
<path fill="none" stroke="#000000" stroke-width="2" d="M26.012,9.275h12.58"/>
<path fill="none" stroke="#000000" stroke-width="2" d="M13.433,15.565h37.739"/>
<path fill="none" stroke="#000000" stroke-width="2" d="M7.143,21.748h50.213"/>
</svg>
