<?xml version="1.0" encoding="utf-8"?>
<!-- Generator: Adobe Illustrator 14.0.0, SVG Export Plug-In . SVG Version: 6.00 Build 43363)  -->
<!DOCTYPE svg PUBLIC "-//W3C//DTD SVG 1.1//EN" "http://www.w3.org/Graphics/SVG/1.1/DTD/svg11.dtd">
<svg version="1.1" id="图层_1" xmlns="http://www.w3.org/2000/svg" xmlns:xlink="http://www.w3.org/1999/xlink" x="0px" y="0px"
	 width="106.503px" height="106.502px" viewBox="0 0 106.503 106.502" enable-background="new 0 0 106.503 106.502"
	 xml:space="preserve">
<path fill="#7F7F7F" d="M88.797,13.145l8.585-10.193H9.389l8.316,10.193l-3.219,0.806l-2.951,1.072l-2.415,0.805l-2.146,1.073
	l-1.878,1.342l-1.073,1.073l-0.805,1.341L2.951,21.73v81.821h100.601V21.73l-0.269-1.073l-0.805-1.341l-1.073-1.073l-1.609-1.342
	l-2.146-1.073l-2.683-0.805l-2.95-1.072L88.797,13.145z"/>
<path fill="#999999" d="M85.041,13.145l7.78-10.193H13.95l7.512,10.193L18.51,13.95l-2.683,1.072l-2.146,0.805l-1.878,1.073
	l-1.609,1.342l-1.073,1.073l-0.537,1.341L8.316,21.73v81.821h89.87V21.73l-0.269-1.073l-0.536-1.341l-1.074-1.073l-1.609-1.342
	l-1.877-1.073l-2.146-0.805l-2.684-1.072L85.041,13.145z"/>
<path fill="#B2B2B2" d="M79.14,13.145l6.17-10.193H21.193l6.17,10.193l-2.415,0.806l-2.146,1.072l-1.878,0.805l-1.341,1.073
	l-1.341,1.342l-0.805,1.073l-0.537,1.341l-0.268,1.073v81.821H89.87V21.73l-0.269-1.073l-0.536-1.341l-0.805-1.073l-1.342-1.342
	l-1.342-1.073L83.7,15.023l-2.146-1.072L79.14,13.145z"/>
<path fill="#CCCCCC" d="M71.091,13.145l4.293-10.193H31.387l4.024,10.193l-1.609,0.806l-1.341,1.072l-1.341,0.805l-1.073,1.073
	l-0.805,1.342l-0.537,1.073l-0.537,1.341v1.073v81.821h50.167V21.73v-1.073l-0.537-1.341l-0.537-1.073l-0.805-1.342l-1.072-1.073
	l-1.342-0.805L72.7,13.95L71.091,13.145z"/>
<path fill="#E5E5E5" d="M62.238,13.145l2.146-10.193H42.386l1.878,10.193l-0.805,0.806l-0.537,1.072l-0.805,0.805l-0.269,1.073
	l-0.536,1.342l-0.269,1.073l-0.268,1.341v1.073v81.821h24.949V21.73v-1.073l-0.268-1.341l-0.27-1.073l-0.268-1.342l-0.537-1.073
	l-0.805-0.805l-0.536-1.072L62.238,13.145z"/>
<path fill="#FFFFFF" d="M56.337,13.145l0.536-10.193h-7.244l0.537,10.193l-0.268,0.806v1.072l-0.269,0.805l-0.268,1.073v1.342
	l-0.268,1.073v1.341v1.073v81.821h8.316V21.73v-1.073v-1.341l-0.268-1.073v-1.342l-0.269-1.073l-0.269-0.805V13.95L56.337,13.145z"
	/>
<path fill="none" stroke="#000000" stroke-width="2" d="M88.797,13.145l8.585-10.193H9.389l8.316,10.193l-3.219,0.806l-2.951,1.072
	l-2.415,0.805l-2.146,1.073l-1.878,1.342l-1.073,1.073l-0.805,1.341L2.951,21.73v81.821h100.601V21.73l-0.269-1.073l-0.805-1.341
	l-1.073-1.073l-1.609-1.342l-2.146-1.073l-2.683-0.805l-2.95-1.072L88.797,13.145"/>
<path fill="none" stroke="#7F7F7F" stroke-width="2" d="M17.706,13.145h71.091"/>
<path fill="none" stroke="#7F7F7F" stroke-width="2" d="M2.951,21.73h100.601"/>
</svg>
