<?xml version="1.0" encoding="utf-8"?>
<!-- Generator: Adobe Illustrator 14.0.0, SVG Export Plug-In . SVG Version: 6.00 Build 43363)  -->
<!DOCTYPE svg PUBLIC "-//W3C//DTD SVG 1.1//EN" "http://www.w3.org/Graphics/SVG/1.1/DTD/svg11.dtd">
<svg version="1.1" id="图层_1" xmlns="http://www.w3.org/2000/svg" xmlns:xlink="http://www.w3.org/1999/xlink" x="0px" y="0px"
	 width="144.749px" height="44.525px" viewBox="0 0 144.749 44.525" enable-background="new 0 0 144.749 44.525"
	 xml:space="preserve">
<path fill="#F0E8C4" stroke="#000000" stroke-width="2" d="M65.268,4.061h14.213v0.725H65.268V4.061z"/>
<path fill="#D1B270" stroke="#000000" stroke-width="2" d="M65.703,4.786h13.343v1.74H65.703V4.786z"/>
<path fill="#DDC694" stroke="#000000" stroke-width="2" d="M65.993,4.061h1.885v0.725h-1.885V4.061z"/>
<path fill="#DDC694" stroke="#000000" stroke-width="2" d="M68.894,4.061h1.886v0.725h-1.886V4.061z"/>
<path fill="#DDC694" stroke="#000000" stroke-width="2" d="M71.504,4.061h1.74v0.725h-1.74V4.061z"/>
<path fill="#DDC694" stroke="#000000" stroke-width="2" d="M73.97,4.061h1.885v0.725H73.97V4.061z"/>
<path fill="#DDC694" stroke="#000000" stroke-width="2" d="M76.87,4.061h1.886v0.725H76.87V4.061z"/>
<path fill="#F1E2C8" stroke="#000000" stroke-width="2" d="M20.453,39.739l-4.206-0.436l-3.626-1.45l-3.19-2.32L6.82,32.487
	l-1.74-3.48l-1.015-3.916v-0.87v-0.87v-0.87l0.725-4.062l1.596-3.771l2.466-3.046l3.045-2.61l3.626-1.596l4.062-0.87h0.87h103.843
	l4.206,0.58l3.625,1.596l3.191,2.32l2.61,3.046l1.74,3.626l1.016,3.916v0.87v0.87v0.87l-0.726,4.061l-1.596,3.626l-2.465,3.046
	l-3.046,2.465l-3.626,1.596l-4.061,0.726h-0.87H20.453z"/>
<path fill="#EAD3AD" d="M139.959,27.411l-1.45,3.771l-2.32,3.336l-3.046,2.61l-3.48,1.741l-4.062,0.87h-0.58h-0.725H20.453
	l-4.062-0.58l-3.626-1.45l-3.19-2.321l-2.61-3.045l-1.74-3.626l-0.29-0.726l-0.146-0.58l0.29,0.29l3.046,2.176l3.19,0.725h122.117
	l3.626-0.87l2.61-2.03L139.959,27.411z"/>
<path fill="#E3C491" d="M138.509,31.327l-2.61,3.336l-2.901,2.32l-3.335,1.74l-3.771,0.87l-1.015,0.146h-0.58H20.453l-4.352-0.58
	l-3.336-1.596l-3.19-2.176l-2.756-3.19l-0.29-0.436l-0.29-0.435l0.29,0.435l3.191,2.321l2.755,0.58h119.797l3.916-1.16l2.03-1.741
	L138.509,31.327z"/>
<path fill="none" stroke="#000000" stroke-width="2" d="M20.453,39.739l-4.206-0.436l-3.626-1.45l-3.19-2.32L6.82,32.487l-1.74-3.48
	l-1.015-3.916v-0.87v-0.87v-0.87l0.725-4.062l1.596-3.771l2.466-3.046l3.045-2.61l3.626-1.596l4.062-0.87h0.87h103.843l4.206,0.58
	l3.625,1.596l3.191,2.32l2.61,3.046l1.74,3.626l1.016,3.916v0.87v0.87v0.87l-0.726,4.061l-1.596,3.626l-2.465,3.046l-3.046,2.465
	l-3.626,1.596l-4.061,0.726h-0.87H20.453"/>
<path fill="#EAD3AD" stroke="#7F7F7F" stroke-width="2" d="M134.158,36.548l-0.436,0.146l-1.016-0.87l-0.58-1.45l-0.435-1.45
	l-0.436-1.596l-0.29-1.74l-0.145-1.306l-0.146-1.45l-0.145-1.306v-1.45v-1.45v-1.45l0.145-1.306v-1.45l0.29-1.305l0.146-1.74
	l0.435-1.741l0.29-1.305l0.436-1.16l0.725-1.16l0.871-0.29h0.145l0.146,0.145V9.718l-0.581-0.58h-0.145h-0.436l-1.015,0.87
	l-0.58,1.16l-0.436,1.16l-0.29,1.45l-0.29,1.596l-0.29,1.74l-0.145,1.885l-0.146,1.451v1.45v0.725v0.726v1.45v1.306l0.146,1.45
	l0.145,1.885l0.29,1.74l0.29,1.596l0.29,1.45l0.436,1.16l0.58,1.306l0.87,0.87h0.145h0.436h0.145L134.158,36.548z"/>
<path fill="#EAD3AD" stroke="#7F7F7F" stroke-width="2" d="M139.234,30.311l-0.29,0.726h-0.29l-0.725-1.16l-0.29-1.306l-0.29-1.45
	l-0.146-1.74l-0.145-1.596v-1.74l0.145-1.595l0.29-1.596l0.29-1.45l0.436-1.16l0.435-0.58h0.146l0,0l0.435,0.58v0.145v-0.145
	l-0.29-0.87v-0.29h-0.145v-0.146h-0.29l-0.87,1.016l-0.436,1.45l-0.29,1.885l-0.145,1.596v1.596v0.87v0.87v1.595l0.145,1.451
	l0.146,1.305l0.435,1.596l0.58,1.45h0.29l0.146,0.145h0.435l0.29-1.305V30.311z"/>
<path fill="#EAD3AD" stroke="#7F7F7F" stroke-width="2" d="M124.296,39.739l-1.16-0.436l-0.726-1.16l-0.58-1.16l-0.58-1.45
	l-0.29-1.74l-0.29-1.306l-0.29-1.306l-0.146-1.45l-0.145-1.45v-1.595l-0.146-1.596v-1.74v-1.74l0.146-1.596v-1.596l0.145-1.595
	l0.146-1.45l0.29-1.306l0.29-1.306l0.29-1.74l0.58-1.595l0.58-1.161l0.726-1.16l1.015-0.58h0.146l0,0l-0.58-0.29h-0.146h-0.29
	l-1.16,0.58l-0.87,1.016l-0.58,1.306l-0.436,1.595l-0.435,1.74l-0.29,1.306l-0.146,1.45l-0.145,1.45l-0.146,1.596l-0.145,1.595
	l-0.146,1.741v0.87v0.87v1.74l0.146,1.74l0.145,1.596l0.146,1.595l0.145,1.45l0.146,1.451l0.29,1.305l0.435,1.886l0.436,1.45
	l0.58,1.306l0.87,1.015l0.87,0.58h0.29h0.29L124.296,39.739z"/>
<path fill="#EAD3AD" stroke="#7F7F7F" stroke-width="2" d="M111.533,39.739l-1.161-0.726l-0.725-1.16l-0.436-1.306l-0.435-1.595
	l-0.436-1.74l-0.145-1.306l-0.29-1.45l-0.146-1.45l-0.145-1.596v-1.596V24.22v-1.74v-1.596v-1.74l0.145-1.45l0.146-1.596l0.29-1.45
	l0.145-1.306l0.29-1.16l0.436-1.74l0.435-1.45l0.436-1.016l0.87-1.015l0.58-0.436h0.146l0,0V6.382l-0.146-0.146h-0.145h-0.436
	l-1.16,0.58l-0.726,1.016l-0.58,1.306l-0.58,1.595l-0.29,1.74l-0.29,1.306l-0.29,1.45l-0.145,1.45l-0.146,1.596v1.595l-0.145,1.741
	v0.87v0.87v1.74l0.145,1.74v1.596l0.146,1.595l0.145,1.45l0.29,1.451l0.29,1.305l0.29,1.886l0.58,1.45l0.58,1.306l0.726,1.015
	l0.87,0.58h0.29h0.436h0.145L111.533,39.739z"/>
<path fill="#EAD3AD" stroke="#7F7F7F" stroke-width="2" d="M99.205,39.739l-1.16-0.726l-0.726-1.16l-0.58-1.306l-0.435-1.595
	l-0.29-1.74l-0.29-1.306l-0.146-1.45l-0.145-1.45l-0.146-1.596l-0.145-1.596V24.22v-1.74v-1.596l0.145-1.74l0.146-1.45l0.145-1.596
	l0.146-1.45l0.29-1.306l0.145-1.16l0.436-1.74l0.435-1.45l0.58-1.016l0.726-1.015l0.58-0.436h0.29l0,0L99.06,6.382V6.236h-0.29
	h-0.29l-1.16,0.58l-0.87,1.016l-0.58,1.306l-0.435,1.595l-0.436,1.74l-0.29,1.306l-0.145,1.45l-0.146,1.45l-0.145,1.596
	l-0.146,1.595v1.741v0.87v0.87v1.74v1.74l0.146,1.596l0.145,1.595l0.146,1.45l0.145,1.451l0.29,1.305l0.29,1.306l0.436,1.595
	l0.58,1.306l0.725,1.306l1.16,0.725h0.29h0.29h0.29L99.205,39.739z"/>
<path fill="#EAD3AD" stroke="#7F7F7F" stroke-width="2" d="M86.733,39.739l-1.16-0.726l-0.726-1.16l-0.435-1.306l-0.436-1.595
	l-0.435-1.74l-0.146-1.306l-0.29-1.45l-0.145-1.45l-0.146-1.596v-1.596V24.22v-1.74v-1.596v-1.74l0.146-1.45l0.145-1.596l0.29-1.45
	l0.146-1.306l0.29-1.16l0.435-1.74l0.436-1.45l0.58-1.016l0.725-1.015l0.58-0.436h0.146l0,0V6.382l-0.146-0.146h-0.145h-0.726
	l-1.16,0.726l-0.725,1.305l-0.58,1.306l-0.436,1.596l-0.29,1.885l-0.29,1.45l-0.146,1.451l-0.145,1.45l-0.146,1.74l-0.145,1.596
	v0.87v0.87v0.87v1.74l0.145,1.74v1.596l0.146,1.595l0.29,1.45l0.146,1.451l0.145,1.305l0.436,1.886l0.435,1.45l0.58,1.306
	l0.726,1.015l0.725,0.58h0.29h0.726l0.29-0.145V39.739z"/>
<path fill="#EAD3AD" stroke="#7F7F7F" stroke-width="2" d="M74.405,39.739l-1.16-0.726l-0.725-1.16l-0.58-1.306l-0.436-1.595
	l-0.29-1.74l-0.29-1.306l-0.145-1.45l-0.146-1.45l-0.146-1.596l-0.145-1.596V24.22v-1.74v-1.596l0.145-1.74l0.146-1.45l0.146-1.596
	l0.145-1.45l0.29-1.306l0.146-1.16l0.435-1.74l0.58-1.45l0.436-1.016l0.725-1.015l0.58-0.436h0.29l0,0L74.26,6.382V6.236h-0.29
	h-0.726l-1.16,0.726L71.36,8.266l-0.436,1.306l-0.436,1.596l-0.435,1.885l-0.146,1.45l-0.29,1.451l-0.145,1.45l-0.146,1.74v1.596
	v0.87v0.87v0.87v1.74v1.74l0.146,1.596l0.145,1.595l0.146,1.45l0.145,1.451l0.29,1.305l0.436,1.886l0.436,1.45l0.435,1.306
	l0.726,1.015l0.87,0.58h0.145h0.726h0.29L74.405,39.739z"/>
<path fill="#EAD3AD" stroke="#7F7F7F" stroke-width="2" d="M61.932,39.739l-1.16-0.726l-0.725-1.16l-0.436-1.306l-0.436-1.595
	l-0.435-1.74l-0.146-1.306l-0.29-1.45l-0.145-1.45v-1.596l-0.146-1.596V24.22v-1.74v-1.596l0.146-1.74v-1.45l0.145-1.596l0.29-1.45
	l0.146-1.306l0.29-1.16l0.436-1.74l0.435-1.45l0.58-1.016l0.726-1.015l0.58-0.436h0.145l0,0l-0.29-0.29l0,0h-0.725l-1.16,0.726
	l-0.726,1.305l-0.58,1.306l-0.436,1.596l-0.29,1.885l-0.29,1.45l-0.145,1.451l-0.146,1.45l-0.145,1.74l-0.146,1.596v0.87v0.87v0.87
	v1.74l0.146,1.74v1.596l0.145,1.595l0.29,1.45l0.146,1.451l0.29,1.305l0.29,1.886l0.435,1.45l0.58,1.306l0.726,1.015l0.726,0.58
	h0.29h0.725L61.932,39.739z"/>
<path fill="#EAD3AD" stroke="#7F7F7F" stroke-width="2" d="M49.605,39.739l-1.16-0.726l-0.726-1.16l-0.58-1.306l-0.436-1.595
	l-0.29-1.74l-0.29-1.306l-0.145-1.45l-0.146-1.45l-0.145-1.596v-1.596l-0.146-1.595v-1.74l0.146-1.596v-1.74l0.145-1.45l0.146-1.596
	l0.145-1.45l0.29-1.306l0.29-1.16l0.29-1.74l0.58-1.45l0.436-1.016l0.726-1.015l0.58-0.436h0.29l0,0l-0.29-0.29h-0.146h-0.725
	l-1.161,0.726l-0.725,1.305l-0.436,1.306l-0.435,1.596l-0.436,1.885l-0.145,1.45l-0.146,1.451l-0.29,1.45v1.74l-0.145,1.596v0.87
	v0.87v0.87v1.74v1.74l0.145,1.596l0.146,1.595l0.145,1.45l0.146,1.451l0.29,1.305l0.435,1.886l0.436,1.45l0.435,1.306l0.87,1.015
	l0.726,0.58h0.146h0.725L49.605,39.739z"/>
<path fill="#EAD3AD" stroke="#7F7F7F" stroke-width="2" d="M37.132,39.739l-1.161-0.726l-0.725-1.16l-0.436-1.306l-0.435-1.595
	l-0.436-1.74l-0.145-1.306l-0.146-1.45l-0.145-1.45l-0.146-1.596l-0.145-1.596V24.22v-1.74v-1.596l0.145-1.74l0.146-1.45
	l0.145-1.596l0.146-1.45l0.145-1.306l0.29-1.16l0.436-1.74l0.435-1.45l0.58-1.016l0.726-1.015l0.58-0.436h0.146l0,0l-0.58-0.29
	h-0.146h-0.29l-1.16,0.726l-0.726,1.305l-0.58,1.306l-0.435,1.596l-0.29,1.885l-0.29,1.45l-0.146,1.451l-0.145,1.45l-0.146,1.74
	v1.596l-0.145,0.87v0.87v0.87v1.74l0.145,1.74l0.146,1.596v1.595l0.29,1.45l0.145,1.451l0.29,1.305l0.29,1.886l0.58,1.45
	l0.436,1.306l0.725,1.015l0.726,0.58h0.29h0.29L37.132,39.739z"/>
<path fill="#EAD3AD" stroke="#7F7F7F" stroke-width="2" d="M24.804,39.739l-1.16-0.726l-0.87-1.16l-0.436-1.306l-0.58-1.595
	l-0.435-1.74l-0.146-1.306l-0.29-1.45l-0.145-1.45l-0.146-1.596l-0.145-1.596V24.22v-1.74v-1.596l0.145-1.74l0.146-1.45l0.145-1.596
	l0.29-1.45l0.146-1.306l0.29-1.16l0.435-1.74l0.58-1.45l0.58-1.016l0.726-1.015l0.725-0.436h0.146l0,0l-0.58-0.29h-0.146h-0.29
	l-1.305,0.726l-0.726,1.305l-0.435,1.306l-0.436,1.596l-0.435,1.885l-0.146,1.45l-0.145,1.451l-0.146,1.45l-0.145,1.74l-0.146,1.596
	v0.87v0.87v0.87v1.74v1.74l0.146,1.596l0.145,1.595l0.146,1.45l0.29,1.451l0.145,1.305l0.436,1.886l0.435,1.45l0.58,1.306
	l0.726,1.015l0.725,0.58h0.29h0.29L24.804,39.739z"/>
<path fill="#EAD3AD" stroke="#7F7F7F" stroke-width="2" d="M13.201,37.999l-1.16-0.726l-0.726-1.16l-0.435-1.16l-0.436-1.306
	l-0.29-1.595l-0.29-1.741l-0.145-1.885l-0.146-1.45v-1.451l-0.145-1.45v-1.45l0.145-1.45v-1.45l0.146-1.306l0.145-1.305l0.146-1.886
	l0.435-1.596l0.29-1.595l0.436-1.16l0.725-1.16l1.016-0.871l0.29-0.145l0,0l-0.146-0.146l-0.29-0.145h-0.145h-0.146l-1.305,0.435
	l-0.726,1.306l-0.435,1.16l-0.436,1.45l-0.435,1.596l-0.29,1.886l-0.146,1.305l-0.145,1.306l-0.146,1.45v1.45v0.87v0.726v1.45v1.45
	l0.146,1.45l0.145,1.306l0.146,1.305l0.29,1.886l0.435,1.596l0.436,1.45l0.435,1.16l0.58,1.16l0.87,0.726h0.146h0.435L13.201,37.999
	z"/>
<path fill="#EAD3AD" stroke="#7F7F7F" stroke-width="2" d="M6.24,31.327l-0.725-1.306l-0.436-1.305l-0.435-1.74l-0.146-1.306
	l-0.145-1.45v-1.74l0.145-1.596l0.146-1.45l0.435-1.74l0.436-1.306l0.725-1.015l0.146-0.29l0,0L6.24,14.938l-1.16,1.016l-0.435,1.45
	l-0.29,1.16l-0.146,1.45L4.065,21.61v0.87v0.87v0.87v1.595l0.145,1.451l0.29,1.305l0.436,1.596l0.58,1.16l0.435,0.29l0.29,0.145
	l0.146-0.145l0,0L6.24,31.327z"/>
</svg>
