<?xml version="1.0" encoding="utf-8"?>
<!-- Generator: Adobe Illustrator 14.0.0, SVG Export Plug-In . SVG Version: 6.00 Build 43363)  -->
<!DOCTYPE svg PUBLIC "-//W3C//DTD SVG 1.1//EN" "http://www.w3.org/Graphics/SVG/1.1/DTD/svg11.dtd">
<svg version="1.1" id="图层_1" xmlns="http://www.w3.org/2000/svg" xmlns:xlink="http://www.w3.org/1999/xlink" x="0px" y="0px"
	 width="66.269px" height="106.502px" viewBox="0 0 66.269 106.502" enable-background="new 0 0 66.269 106.502"
	 xml:space="preserve">
<path fill="#666666" d="M63.281,98.497V18.036l-2.134-1.814l-6.723-1.921l0.106-4.909l-6.296-0.64V3.737l-3.842-0.32L33.081,2.99
	L21.876,3.416l-3.842,0.32l0.106,5.016l-6.402,0.64v4.909l-6.616,1.921l-2.135,1.814v80.461l2.135,1.921l6.402,1.708l10.352,1.066
	l11.205,0.32l11.312-0.32l10.244-1.066l6.51-1.708L63.281,98.497z"/>
<path fill="#757575" d="M59.866,99.031V17.823l-1.921-1.921l-5.869-1.814V9.285l-5.55-0.641V3.737L43.219,3.31L33.188,2.99
	L23.156,3.31l-3.308,0.427v4.908l-5.656,0.641l0.106,4.802l-5.976,1.814l-1.814,1.921v81.209l1.921,1.707l5.656,1.494l9.07,0.96
	l10.031,0.32l10.031-0.32l8.964-0.96l5.763-1.494L59.866,99.031z"/>
<path fill="#858585" d="M56.345,99.671V17.609l-1.708-1.92l-5.016-1.708V9.179l-4.908-0.641L44.82,3.63l-2.988-0.32l-8.644-0.32
	l-8.75,0.32l-2.882,0.32l0.106,4.908l-5.015,0.641l0.106,4.802l-5.122,1.708l-1.708,1.92v82.063l1.708,1.388l5.016,1.387l7.79,0.747
	l8.75,0.32l8.644-0.32l7.897-0.747l5.015-1.387L56.345,99.671z"/>
<path fill="#969696" d="M52.823,100.312V17.396l-1.387-1.921l-4.269-1.601V9.073l-4.162-0.641V3.63l-2.454-0.32l-7.363-0.32
	l-7.47,0.32L23.37,3.63v4.802l-4.269,0.641l0.106,4.802l-4.375,1.601l-1.388,1.921v82.916l1.388,1.174l4.269,1.067l6.616,0.747
	l7.47,0.213l7.363-0.213l6.723-0.747l4.162-1.067L52.823,100.312z"/>
<path fill="#A6A6A6" d="M49.408,100.845v-83.77l-1.174-1.814l-3.521-1.601V9.073l-3.415-0.641V3.63l-2.027-0.428L33.188,2.99
	l-6.189,0.213L25.077,3.63v4.802l-3.415,0.641v4.588l-3.628,1.601l-1.067,1.814v83.77l1.174,0.961l3.415,0.96l5.549,0.534
	l6.083,0.213l6.083-0.213l5.442-0.534l3.521-0.96L49.408,100.845z"/>
<path fill="#B5B5B5" d="M45.887,101.486V16.863l-0.961-1.921l-2.668-1.388V8.965l-2.668-0.64V3.63L37.99,3.202L33.188,2.99
	l-4.802,0.213L26.785,3.63l0.106,4.695l-2.774,0.64v4.589l-2.774,1.388l-0.961,1.921v84.623l0.961,0.747l2.667,0.641l4.376,0.427
	l4.802,0.213l4.802-0.213l4.269-0.427l2.774-0.641L45.887,101.486z"/>
<path fill="#C4C4C4" d="M42.365,102.019v-85.37l-0.641-1.814l-2.027-1.494l0.106-4.375l-2.027-0.64V3.523l-1.067-0.32L33.188,2.99
	l-3.521,0.213l-1.174,0.32l0.106,4.695l-2.027,0.747v4.375l-2.027,1.494l-0.641,1.814v85.37l0.747,0.534l1.921,0.533l3.095,0.32
	l3.521,0.106l3.521-0.106l3.095-0.32l1.921-0.533L42.365,102.019z"/>
<path fill="#D6D6D6" d="M38.95,102.659V16.435l-0.427-1.92l-1.281-1.281V8.859l-1.174-0.641V3.523l-0.747-0.32L33.188,2.99
	l-2.241,0.213l-0.64,0.32v4.589l-1.281,0.747v4.375l-1.28,1.281l-0.32,1.92v86.225l0.427,0.32l1.174,0.32l1.921,0.106l2.241,0.106
	l2.134-0.106l2.028-0.106l1.174-0.32L38.95,102.659z"/>
<path fill="#E5E5E5" d="M35.429,103.3V16.222l-0.214-1.921l-0.427-1.174V8.752l-0.533-0.641V3.523l-0.214-0.32l-0.96-0.213
	l-0.854,0.213l-0.214,0.32v4.589l-0.533,0.641v4.375l-0.534,1.174l-0.106,1.921V103.3h0.214l0.427,0.106l0.747,0.106h0.854h0.96
	l0.747-0.106l0.427-0.106H35.429z"/>
<path fill="none" stroke="#000000" stroke-width="2" d="M18.141,8.752l3.735-0.32l11.205-0.427l11.312,0.427l3.948,0.32"/>
<path fill="none" stroke="#000000" stroke-width="2" d="M11.739,14.301l10.138-0.854l11.205-0.427l11.312,0.427l10.031,0.854"/>
<path fill="none" stroke="#000000" stroke-width="2" d="M63.281,98.497V18.036l-2.134-1.814l-6.723-1.921l0.106-4.909l-6.296-0.64
	V3.737l-3.842-0.32L33.081,2.99L21.876,3.416l-3.842,0.32l0.106,5.016l-6.402,0.64v4.909l-6.616,1.921l-2.135,1.814v80.461
	l2.135,1.921l6.402,1.708l10.352,1.066l11.205,0.32l11.312-0.32l10.244-1.066l6.51-1.708L63.281,98.497"/>
</svg>
