<?xml version="1.0" encoding="utf-8"?>
<!-- Generator: Adobe Illustrator 14.0.0, SVG Export Plug-In . SVG Version: 6.00 Build 43363)  -->
<!DOCTYPE svg PUBLIC "-//W3C//DTD SVG 1.1//EN" "http://www.w3.org/Graphics/SVG/1.1/DTD/svg11.dtd">
<svg version="1.1" id="图层_1" xmlns="http://www.w3.org/2000/svg" xmlns:xlink="http://www.w3.org/1999/xlink" x="0px" y="0px"
	 width="144.749px" height="76.363px" viewBox="0 0 144.749 76.363" enable-background="new 0 0 144.749 76.363"
	 xml:space="preserve">
<path fill="#666666" stroke="#000000" stroke-width="2" d="M123.449,72.305l4.347-1.16l3.043-2.173l2.753-3.478l1.884-3.188
	l1.594-3.768l1.449-4.201l1.014-4.492l0.58-4.781l0.289-3.479l0.146-1.738v-1.738l-0.146-5.071l-0.579-5.071l-1.015-4.637
	l-1.159-4.202l-1.594-3.912l-1.738-3.333l-2.753-3.767l-3.043-2.608l-4.202-1.449h-0.869H21.155l-4.347,1.014L13.62,7.392
	l-2.753,3.478l-1.884,3.188L7.39,17.824l-1.305,4.057l-1.014,4.637l-0.725,4.782l-0.29,3.333v1.739v1.739l0.146,5.216l0.579,4.927
	l0.869,4.637l1.305,4.347l1.448,3.912l1.884,3.333l2.608,3.621l3.188,2.609l4.202,1.594h0.869H123.449z"/>
<path fill="#737373" d="M4.057,38.109l1.304-11.736l3.623-10.578l5.796-6.81l6.375-2.173h102.295l6.521,2.173l5.796,6.81
	l3.622,10.578l1.159,11.736l-1.159,11.736l-3.622,10.577l-5.796,6.665l-6.521,2.318H21.155l-6.375-2.318l-5.796-6.665L5.361,49.846
	L4.057,38.109z"/>
<path fill="#7D7D7D" d="M4.057,38.109l1.304-10.578l3.623-9.708l5.796-6.086l6.375-2.028h102.295l6.521,2.028l5.796,6.086
	l3.622,9.708l1.159,10.578l-1.159,10.577l-3.622,9.708l-5.796,6.086l-6.521,2.027H21.155L14.78,64.48l-5.796-6.086l-3.623-9.708
	L4.057,38.109z"/>
<path fill="#8A8A8A" d="M4.057,38.109l1.304-9.563l3.623-8.694l5.796-5.506l6.375-1.884h102.295l6.521,1.884l5.796,5.506
	l3.622,8.694l1.159,9.563l-1.159,9.563l-3.622,8.693l-5.796,5.506l-6.521,1.885H21.155l-6.375-1.885l-5.796-5.506l-3.623-8.693
	L4.057,38.109z"/>
<path fill="#949494" d="M4.057,38.109l1.304-8.549l3.623-7.68l5.796-4.926l6.375-1.594h102.295l6.521,1.594l5.796,4.926l3.622,7.68
	l1.159,8.549l-1.159,8.549l-3.622,7.68l-5.796,4.926l-6.521,1.594H21.155l-6.375-1.594l-5.796-4.926l-3.623-7.68L4.057,38.109z"/>
<path fill="#A1A1A1" d="M4.057,38.109l1.304-7.535l3.623-6.665l5.796-4.347l6.375-1.449h102.295l6.521,1.449l5.796,4.347
	l3.622,6.665l1.159,7.535l-1.159,7.39l-3.622,6.81l-5.796,4.202l-6.521,1.594H21.155l-6.375-1.594l-5.796-4.202l-3.623-6.81
	L4.057,38.109z"/>
<path fill="#ABABAB" d="M4.057,38.109l1.304-6.375l3.623-5.796l5.796-3.767l6.375-1.159h102.439l6.376,1.159l5.796,3.767
	l3.622,5.796l1.159,6.375l-1.159,6.375l-3.622,5.796l-5.796,3.622l-6.521,1.305H21.155l-6.375-1.305L8.984,50.28l-3.623-5.796
	L4.057,38.109z"/>
<path fill="#B8B8B8" d="M4.057,38.109l1.304-5.361l3.623-4.781l5.796-3.043l6.375-1.014h102.439l6.376,1.014l5.796,3.043
	l3.622,4.781l1.159,5.361l-1.159,5.361l-3.622,4.781l-5.796,3.043l-6.521,1.014H21.155l-6.375-1.014l-5.796-3.043l-3.623-4.781
	L4.057,38.109z"/>
<path fill="#C2C2C2" d="M4.057,38.109l1.304-4.347l3.623-3.767l5.796-2.463l6.375-0.869h102.439l6.376,0.869l5.796,2.463
	l3.622,3.767l1.159,4.347l-1.159,4.347l-3.622,3.767l-5.796,2.464l-6.521,0.869H21.155l-6.375-0.869l-5.796-2.464l-3.623-3.767
	L4.057,38.109z"/>
<path fill="#CFCFCF" d="M4.057,38.109l1.304-3.188l3.623-2.898l5.796-1.883l6.375-0.58h102.439l6.376,0.58l5.796,1.883l3.622,2.898
	l1.159,3.188l-1.159,3.188l-3.622,2.898l-5.796,1.883l-6.521,0.58H21.155l-6.375-0.58l-5.796-1.883l-3.623-2.898L4.057,38.109z"/>
<path fill="#D9D9D9" d="M4.057,38.109l1.304-2.174l3.623-1.883l5.796-1.304l6.375-0.29h102.439l6.376,0.29l5.796,1.304l3.622,1.883
	l1.159,2.174l-1.159,2.174l-3.622,1.883l-5.796,1.159l-6.521,0.579H21.155l-6.375-0.579l-5.796-1.159l-3.623-1.883L4.057,38.109z"/>
<ellipse fill="#E5E5E5" cx="72.302" cy="38.109" rx="68.245" ry="2.753"/>
<path fill="none" stroke="#000000" stroke-width="2" d="M21.155,72.305V4.059"/>
<path fill="none" stroke="#000000" stroke-width="2" d="M123.449,72.305V4.059"/>
</svg>
