<?xml version="1.0" encoding="utf-8"?>
<!-- Generator: Adobe Illustrator 14.0.0, SVG Export Plug-In . SVG Version: 6.00 Build 43363)  -->
<!DOCTYPE svg PUBLIC "-//W3C//DTD SVG 1.1//EN" "http://www.w3.org/Graphics/SVG/1.1/DTD/svg11.dtd">
<svg version="1.1" id="图层_1" xmlns="http://www.w3.org/2000/svg" xmlns:xlink="http://www.w3.org/1999/xlink" x="0px" y="0px"
	 width="106.395px" height="106.502px" viewBox="0 0 106.395 106.502" enable-background="new 0 0 106.395 106.502"
	 xml:space="preserve">
<path fill="#4C4C4C" d="M103.409,97.12V13.433l-8.422-6.289l-41.79-4.158L11.301,7.144l-8.315,6.289V97.12v0.319l2.985,1.813
	l3.091,0.854l3.945,0.746l3.091,0.533l3.305,0.426l3.731,0.32l4.052,0.319l4.264,0.32l4.478,0.213l4.691,0.213l4.903,0.107
	l2.559,0.106h2.559h2.559h5.117l5.011-0.106l4.69-0.214l4.691-0.213l4.37-0.213l4.158-0.32l3.838-0.427l3.518-0.319l3.306-0.427
	l2.878-0.533l3.625-0.746l2.665-0.853l2.238-1.6L103.409,97.12z"/>
<path fill="#5C5C5C" d="M99.039,99.573v-86.14l-7.569-6.289L53.197,2.986L14.926,7.144l-7.569,6.289v86.033v0.106l2.771,0.64
	l2.771,0.533l3.519,0.532l4.371,0.427l3.305,0.32l3.518,0.319l3.731,0.32l4.051,0.213l4.158,0.213l4.371,0.106l4.584,0.107
	l2.346,0.106h2.345l4.69-0.106l4.585-0.107l4.37-0.213l4.158-0.213l4.051-0.214l3.731-0.319l3.519-0.32l3.305-0.319l2.984-0.32
	l3.838-0.532l3.092-0.427l2.985-0.533l0.533-0.106V99.573z"/>
<path fill="#6E6E6E" d="M94.774,100.531V13.433l-6.93-6.289L53.197,2.986L18.55,7.144l-6.93,6.289v87.099h0.107l3.198,0.533
	l3.837,0.533l3.625,0.319l4.371,0.427l3.198,0.213l3.411,0.214l3.625,0.213l3.838,0.106l4.051,0.214h4.052l2.132,0.106h2.132
	l4.265-0.106h4.051l4.051-0.214l3.731-0.106l3.731-0.213l3.411-0.214l3.198-0.213l2.879-0.319l3.944-0.32l3.305-0.427l3.092-0.426
	l1.813-0.32H94.774z"/>
<path fill="#7D7D7D" d="M90.403,101.278V13.433L84.22,7.144L53.197,2.986L22.175,7.144l-6.184,6.289v87.738l0,0l2.985,0.427
	l3.411,0.427l3.305,0.213l3.838,0.319l4.371,0.32l3.198,0.106l3.305,0.106l3.519,0.106l3.624,0.107h1.813l1.919,0.106h1.919
	l3.731-0.106h3.731l3.624-0.107l3.412-0.106l3.198-0.213l3.092-0.106l4.264-0.32l3.625-0.319l3.198-0.214l3.092-0.319
	L90.403,101.278L90.403,101.278z"/>
<path fill="#8C8C8C" d="M86.139,101.811V13.433l-5.544-6.289L53.197,2.986L25.799,7.144l-5.543,6.289v88.271h0.106l3.198,0.427
	l3.305,0.213l3.092,0.213l3.625,0.214l3.944,0.213l4.371,0.213l3.091,0.107h3.198h1.706l1.6,0.106h1.705h3.305l3.305-0.106
	l3.198-0.107l2.985-0.106l4.265-0.106l3.838-0.213l3.411-0.214l2.985-0.213l2.984-0.319l2.559-0.214H86.139z"/>
<path fill="#9E9E9E" d="M81.768,102.131V13.433l-4.691-6.289l-23.88-4.158l-23.88,4.158l-4.69,6.289v88.698l0,0l3.411,0.319
	l3.092,0.214l3.944,0.213l3.305,0.213l3.731,0.106l3.944,0.107h2.771l1.493,0.106h1.386h4.371l4.264-0.106l3.944-0.107l3.731-0.106
	l3.305-0.106l2.985-0.213l3.305-0.214l3.305-0.213L81.768,102.131L81.768,102.131z"/>
<path fill="#ADADAD" d="M77.397,102.45V13.433l-3.944-6.289L53.197,2.986L32.942,7.144l-3.945,6.289v89.018l0,0l2.879,0.32
	l3.411,0.213l3.412,0.106l2.984,0.106l3.198,0.107h3.412h1.172l1.279,0.106h1.173h3.731l3.625-0.106l3.305-0.107h3.198l3.731-0.213
	l3.091-0.106l2.879-0.213L77.397,102.45L77.397,102.45z"/>
<path fill="#BFBFBF" d="M73.133,102.771V13.433l-3.305-6.289L53.197,2.986L36.566,7.144l-3.305,6.289v89.338l3.411,0.213
	l3.838,0.106l3.198,0.106l3.519,0.107l3.944,0.106h4.051l3.944-0.106h3.519l3.198-0.107l3.838-0.213l2.985-0.106L73.133,102.771z"/>
<path fill="#CFCFCF" d="M68.761,102.984V13.433l-2.559-6.289L53.197,2.986L40.191,7.144l-2.559,6.289v89.551l0,0l3.518,0.213
	l3.306,0.107h4.157l1.386,0.106h6.396l4.265-0.106l3.518-0.107l3.412-0.106L68.761,102.984z"/>
<path fill="#DEDEDE" d="M64.498,103.09V13.433l-1.919-6.289l-9.382-4.158l-9.381,4.158l-1.919,6.289v89.657l3.305,0.106l3.624,0.107
	l2.133,0.106h5.543l3.838-0.106l3.198-0.107L64.498,103.09z"/>
<path fill="#F0F0F0" d="M60.127,103.09V13.433L59.06,7.144l-5.863-4.158l-5.863,4.158l-1.066,6.289v89.871h3.092l1.173,0.106h4.69
	l3.305-0.106l1.6-0.107V103.09z"/>
<path fill="#FFFFFF" d="M55.756,103.197V13.433L55.33,7.144l-2.133-4.158l-2.238,4.158l-0.427,6.289v89.764l0.106,0.107h0.106
	l0.214,0.106h0.319h0.427h0.427h0.532h0.533L55.756,103.197z"/>
<path fill="none" stroke="#000000" stroke-width="2" d="M103.409,97.12V13.433l-8.422-6.289l-41.79-4.158L11.301,7.144l-8.315,6.289
	V97.12v0.319l2.985,1.813l3.091,0.854l3.945,0.746l3.091,0.533l3.305,0.426l3.731,0.32l4.052,0.319l4.264,0.32l4.478,0.213
	l4.691,0.213l4.903,0.107l2.559,0.106h2.559h2.559h5.117l5.011-0.106l4.69-0.214l4.691-0.213l4.37-0.213l4.158-0.32l3.838-0.427
	l3.518-0.319l3.306-0.427l2.878-0.533l3.625-0.746l2.665-0.853l2.238-1.6L103.409,97.12"/>
<path fill="none" stroke="#7F7F7F" stroke-width="2" d="M11.834,7.144l41.363-0.96l41.79,0.96"/>
<path fill="none" stroke="#7F7F7F" stroke-width="2" d="M2.985,13.433v-0.106l2.985-0.64l3.091-0.213l3.945-0.32l3.091-0.106
	l3.305-0.106l3.731-0.213l4.052-0.106l4.264-0.107h4.478l4.691-0.106h4.903h2.559h2.559h7.676h5.011l4.69,0.106h4.691l4.37,0.107
	l4.158,0.106l3.838,0.106l3.518,0.106l3.306,0.213l4.157,0.214l3.411,0.213l2.879,0.427l0.959,0.319l0.106,0.106"/>
<path fill="none" stroke="#7F7F7F" stroke-width="2" d="M103.409,91.683l-0.106,0.107l-2.984,0.959l-3.092,0.533l-3.838,0.427
	l-3.092,0.213l-3.411,0.213l-3.731,0.214l-3.944,0.213l-4.371,0.106l-4.478,0.213l-4.69,0.107h-4.904h-2.452h-2.559h-2.559H48.08
	h-5.011l-4.797-0.107l-4.584-0.106l-4.371-0.106l-4.158-0.213l-3.944-0.214l-3.518-0.213l-3.305-0.213l-2.879-0.32L7.889,93.07
	l-3.306-0.533L2.985,91.79v-0.107"/>
</svg>
