<?xml version="1.0" encoding="utf-8"?>
<!-- Generator: Adobe Illustrator 14.0.0, SVG Export Plug-In . SVG Version: 6.00 Build 43363)  -->
<!DOCTYPE svg PUBLIC "-//W3C//DTD SVG 1.1//EN" "http://www.w3.org/Graphics/SVG/1.1/DTD/svg11.dtd">
<svg version="1.1" id="图层_1" xmlns="http://www.w3.org/2000/svg" xmlns:xlink="http://www.w3.org/1999/xlink" x="0px" y="0px"
	 width="89.654px" height="106.502px" viewBox="0 0 89.654 106.502" enable-background="new 0 0 89.654 106.502"
	 xml:space="preserve">
<path fill="#666666" d="M2.985,7.145v92.106l2.984,1.599l8.955,1.386l14.179,0.854l15.671,0.319l15.777-0.319l14.179-0.854
	l8.954-1.386l2.985-1.599V7.145l-2.985-1.492L74.73,4.159L60.552,3.307L44.774,2.988L29.103,3.307L14.925,4.159L5.969,5.653
	L2.985,7.145z"/>
<path fill="#6E6E6E" d="M5.544,6.932v92.532l2.771,1.492l8.422,1.279l13.325,0.854l14.818,0.319l14.711-0.319l13.326-0.854
	l8.422-1.279l2.878-1.492V6.932l-2.771-1.493l-8.528-1.386L59.592,3.307L44.881,2.988L30.062,3.307L16.737,4.053L8.315,5.439
	L5.544,6.932z"/>
<path fill="#757575" d="M7.995,6.612v93.066l2.666,1.386l7.889,1.279l12.473,0.746l13.858,0.319l13.858-0.319l12.473-0.746
	l7.889-1.279l2.559-1.386V6.612L79.1,5.226l-7.889-1.173L58.739,3.2L44.881,2.988L31.022,3.2L18.55,4.053l-7.889,1.173L7.995,6.612z
	"/>
<path fill="#7D7D7D" d="M10.553,6.399v93.599l2.452,1.279l7.355,1.066l11.62,0.746l12.899,0.319l12.899-0.319l11.619-0.746
	l7.356-1.066l2.451-1.279V6.399l-2.451-1.279l-7.356-1.173L57.78,3.2L44.881,2.988L31.981,3.2l-11.62,0.746l-7.355,1.173
	L10.553,6.399z"/>
<path fill="#858585" d="M13.006,6.078v94.132l2.239,1.173l6.822,1.066l10.874,0.746l11.939,0.213l11.939-0.213l10.768-0.746
	l6.822-1.066l2.238-1.173V6.078L74.41,4.906l-6.822-0.96L56.82,3.2L44.881,2.988L32.941,3.2L22.067,3.947l-6.716,0.96L13.006,6.078z
	"/>
<path fill="#8F8F8F" d="M15.564,5.865v94.665l2.025,1.065l6.29,0.96l10.021,0.64l10.98,0.213l10.98-0.213l9.914-0.64l6.289-0.96
	l2.133-1.065V5.865l-2.133-1.066L65.775,3.84L55.861,3.2l-10.98-0.213L33.9,3.2L23.88,3.84l-6.184,0.959L15.564,5.865z"/>
<path fill="#969696" d="M18.016,5.653v95.091l1.919,0.96l5.757,0.853l9.168,0.64l10.021,0.213l10.021-0.213l9.062-0.64l5.757-0.853
	l1.919-0.96V5.653l-1.919-1.066l-5.757-0.853L54.901,3.2L44.881,2.988L34.86,3.2l-9.168,0.533l-5.757,0.853L18.016,5.653z"/>
<path fill="#9E9E9E" d="M20.575,5.332v95.624l1.705,0.854l5.224,0.853l8.209,0.533l9.168,0.213l9.062-0.213l8.314-0.533l5.117-0.853
	l1.813-0.854V5.332L67.48,4.48l-5.224-0.853L53.942,3.2l-9.062-0.213L35.713,3.2l-8.209,0.427L22.28,4.48L20.575,5.332z"/>
<path fill="#A6A6A6" d="M23.026,5.119v96.157l1.6,0.746l4.69,0.746l7.355,0.427l8.209,0.213l8.102-0.213l7.463-0.427l4.584-0.746
	l1.599-0.746V5.119l-1.492-0.853l-4.69-0.64l-7.463-0.533l-8.102-0.106l-8.209,0.106l-7.355,0.533l-4.69,0.64L23.026,5.119z"/>
<path fill="#ADADAD" d="M25.585,4.799v96.69l1.386,0.746l4.158,0.64l6.503,0.32l7.249,0.213l7.249-0.213l6.503-0.32l4.157-0.64
	l1.386-0.746V4.799l-1.386-0.64l-4.157-0.64L52.13,3.094l-7.249-0.106l-7.249,0.106L31.129,3.52l-4.158,0.64L25.585,4.799z"/>
<path fill="#B5B5B5" d="M28.037,4.586v97.224l1.279,0.533l3.625,0.532l5.649,0.32l6.29,0.213l6.29-0.213l5.649-0.32l3.625-0.532
	l1.172-0.533V4.586l-1.172-0.533l-3.625-0.64l-5.649-0.319l-6.29-0.106l-6.29,0.106l-5.649,0.319l-3.625,0.64L28.037,4.586z"/>
<path fill="#BDBDBD" d="M30.595,4.267v97.756l1.066,0.427l2.984,0.533l4.904,0.319l5.33,0.106l5.33-0.106l4.797-0.319l3.092-0.533
	l1.066-0.427V4.267L58.099,3.84l-3.092-0.427l-4.797-0.319l-5.33-0.106l-5.33,0.106l-4.904,0.319L31.662,3.84L30.595,4.267z"/>
<path fill="#C4C4C4" d="M33.154,4.053v98.183l0.746,0.427l2.559,0.32l3.944,0.319l4.478,0.106l4.371-0.106l3.944-0.319l2.559-0.32
	l0.853-0.427V4.053l-0.853-0.426l-2.559-0.32l-3.944-0.213l-4.371-0.106l-4.478,0.106l-3.944,0.213l-2.452,0.32L33.154,4.053z"/>
<path fill="#CFCFCF" d="M35.606,3.84v98.609l0.64,0.319l2.025,0.32l3.092,0.213l3.518,0.106l3.411-0.106l3.198-0.213l1.919-0.32
	l0.64-0.319V3.84l-0.64-0.32L51.49,3.2l-3.198-0.106l-3.411-0.106l-3.518,0.106L38.271,3.2L36.246,3.52L35.606,3.84z"/>
<path fill="#D6D6D6" d="M38.165,3.52v99.249l0.426,0.214l1.493,0.213l2.238,0.106l2.559,0.106l2.452-0.106l2.345-0.106l1.386-0.213
	l0.533-0.214V3.52l-0.533-0.106L49.677,3.2l-2.345-0.213h-2.452h-2.559L40.084,3.2l-1.493,0.213L38.165,3.52z"/>
<path fill="#DEDEDE" d="M40.616,3.307v99.676l0.32,0.106l0.959,0.106l1.386,0.106l1.6,0.106l1.599-0.106l1.386-0.106l0.96-0.106
	l0.213-0.106V3.307L48.825,3.2l-0.96-0.106l-1.386-0.106h-1.599h-1.6l-1.386,0.106L40.936,3.2L40.616,3.307z"/>
<path fill="#E5E5E5" d="M43.068,3.094v100.208h0.213h0.32l0.533,0.106h0.64h0.64l0.64-0.106h0.319h0.106V3.094h-0.106h-0.319
	l-0.64-0.106h-0.64h-0.64l-0.533,0.106h-0.32H43.068z"/>
<path fill="none" stroke="#000000" stroke-width="2" d="M2.985,7.145v92.106l2.984,1.599l8.955,1.386l14.179,0.854l15.671,0.319
	l15.777-0.319l14.179-0.854l8.954-1.386l2.985-1.599V7.145l-2.985-1.492L74.73,4.159L60.552,3.307L44.774,2.988L29.103,3.307
	L14.925,4.159L5.969,5.653L2.985,7.145"/>
</svg>
