<?xml version="1.0" encoding="utf-8"?>
<!-- Generator: Adobe Illustrator 14.0.0, SVG Export Plug-In . SVG Version: 6.00 Build 43363)  -->
<!DOCTYPE svg PUBLIC "-//W3C//DTD SVG 1.1//EN" "http://www.w3.org/Graphics/SVG/1.1/DTD/svg11.dtd">
<svg version="1.1" id="图层_1" xmlns="http://www.w3.org/2000/svg" xmlns:xlink="http://www.w3.org/1999/xlink" x="0px" y="0px"
	 width="77.076px" height="106.502px" viewBox="0 0 77.076 106.502" enable-background="new 0 0 77.076 106.502"
	 xml:space="preserve">
<path fill="#666638" d="M71.959,99.251v0.214l-2.559,1.386l-3.092,0.746l-2.984,0.427l-3.519,0.426l-3.944,0.427l-4.37,0.213
	l-2.985,0.106l-3.305,0.107l-3.305,0.106H40.19h-1.705h-3.412l-3.305-0.106l-3.198-0.107l-3.091-0.106l-2.879-0.106l-4.157-0.426
	l-3.625-0.32l-3.092-0.427l-3.411-0.746l-2.559-0.959l-0.64-0.64L5.01,99.251V11.408H2.985l35.5-8.422l35.605,8.422h-2.132V99.251z"
	/>
<path fill="#75754C" d="M68.548,100.638l-2.985,0.746l-2.984,0.426l-2.879,0.427l-3.198,0.32l-3.73,0.319l-3.944,0.213l-4.265,0.214
	l-2.985,0.106h-1.492h-1.492H35.5l-2.985-0.106l-4.264-0.107l-3.944-0.213l-3.625-0.319l-3.305-0.32l-2.878-0.319l-2.985-0.427
	l-2.771-0.746l-0.106-0.106v-0.106V11.302H6.717l31.875-8.315l31.875,8.315h-1.919V100.638z"/>
<path fill="#82825C" d="M65.03,101.597l-3.198,0.32l-2.879,0.319l-3.518,0.32l-3.198,0.319l-3.411,0.213l-3.731,0.214l-3.838,0.106
	h-1.386h-1.279H34.54l-3.837-0.214l-3.625-0.213l-3.305-0.213l-2.985-0.213l-3.411-0.32l-3.198-0.427l-2.132-0.213V11.302h-1.6
	l28.145-8.315l28.144,8.315H65.03V101.597z"/>
<path fill="#919170" d="M61.511,102.13l-0.106-0.106l-3.198,0.319l-3.411,0.32l-3.412,0.319l-3.944,0.213l-3.198,0.107l-3.305,0.106
	h-1.172h-1.173h-3.519l-3.305-0.106l-3.198-0.214l-3.73-0.213l-3.306-0.319l-3.197-0.214l-2.666-0.319l-0.106,0.106V11.302h-1.386
	l24.413-8.315l24.412,8.315h-1.492V102.13z"/>
<path fill="#9E9E82" d="M57.994,102.449l-3.305,0.32l-3.731,0.213l-3.092,0.213l-3.518,0.107l-3.838,0.106h-3.944l-3.731-0.106
	l-3.519-0.107l-3.091-0.213l-3.838-0.319l-2.879-0.214h-0.426V11.302H17.91l20.682-8.315l20.682,8.315h-1.279V102.449z"/>
<path fill="#ADAD93" d="M54.475,102.77l-3.624,0.213l-3.412,0.213l-4.157,0.107l-3.092,0.106h-3.198l-3.198-0.106l-4.157-0.107
	l-3.411-0.213l-2.879-0.106L22.6,102.77V11.302h-0.959l16.95-8.315l16.95,8.315h-1.066V102.77z"/>
<path fill="#BABAA6" d="M51.064,102.983l-3.625,0.213l-4.051,0.107l-3.518,0.106h-3.838l-3.411-0.106l-3.625-0.107l-2.878-0.213
	V11.302h-0.747l13.22-8.315l13.219,8.315h-0.746V102.983z"/>
<path fill="#C9C9BA" d="M47.547,103.089l-3.306,0.214l-2.984,0.106h-0.853h-3.625l-3.198-0.106l-3.305-0.107l-0.64-0.106V11.302
	h-0.533l9.488-8.315l9.487,8.315h-0.532V103.089z"/>
<path fill="#D6D6C9" d="M44.028,103.303l-3.305,0.106H40.19h-3.731l-3.091-0.106h-0.106h-0.107l0,0V11.302h-0.319l5.757-8.315
	l5.757,8.315h-0.32V103.303z"/>
<path fill="#E5E5DD" d="M40.51,103.196L40.51,103.196l-0.214,0.107H40.19h-0.319l-0.214,0.106h-0.319h-0.427h-0.319h-0.427h-0.427
	h-0.213l-0.319-0.106h-0.214h-0.213l-0.106-0.107h-0.106V11.408h-0.107l2.133-8.422l2.025,8.422H40.51V103.196z"/>
<path fill="none" stroke="#000000" stroke-width="2" d="M71.959,99.251v0.214l-2.559,1.386l-3.092,0.746l-2.984,0.427l-3.519,0.426
	l-3.944,0.427l-4.37,0.213l-2.985,0.106l-3.305,0.107l-3.305,0.106H40.19h-1.705h-3.412l-3.305-0.106l-3.198-0.107l-3.091-0.106
	l-2.879-0.106l-4.157-0.426l-3.625-0.32l-3.092-0.427l-3.411-0.746l-2.559-0.959l-0.64-0.64L5.01,99.251V11.408H2.985l35.5-8.422
	l35.605,8.422h-2.132V99.251"/>
<path fill="#333300" d="M38.485,2.987l32.94,8.422v-1.066L38.485,2.987z M64.177,11.408v-1.066L38.485,2.987L64.177,11.408z
	 M56.821,11.408v-1.066L38.485,2.987L56.821,11.408z M49.466,11.408v-1.066l-10.98-7.355L49.466,11.408z M42.216,11.408v-1.066
	l-3.73-7.355L42.216,11.408z M34.86,11.408v-1.066l3.625-7.355L34.86,11.408z M27.505,11.408v-1.066l10.98-7.355L27.505,11.408z
	 M20.255,11.408v-1.066l18.23-7.355L20.255,11.408z M12.899,11.408v-1.066l25.586-7.355L12.899,11.408z M5.544,11.408v-1.066
	l32.941-7.355L5.544,11.408z"/>
<path fill="none" stroke="#4C4C16" stroke-width="2" d="M71.959,20.789H5.01"/>
<path fill="none" stroke="#4C4C16" stroke-width="2" d="M72.065,29.425l-33.474,0.533L5.117,29.425"/>
<path fill="none" stroke="#4C4C16" stroke-width="2" d="M72.065,38.166l-3.305,0.427l-3.411,0.106l-3.092,0.106l-3.731,0.106
	l-4.051,0.107h-4.478l-3.091,0.106h-1.6h-1.706h-1.599h-8.528H30.17l-3.092-0.106h-2.985l-4.264-0.107h-3.731l-3.411-0.106
	l-3.519-0.213L6.183,38.38l-1.066-0.214l0,0"/>
<path fill="none" stroke="#4C4C16" stroke-width="2" d="M72.065,46.908h-0.106l-3.198,0.533l-3.411,0.319l-3.092,0.106l-3.731,0.106
	l-4.051,0.107l-4.478,0.106l-3.091,0.106h-1.6h-1.706h-1.599h-8.528H30.17l-3.092-0.106h-2.985l-4.264-0.106l-3.731-0.107
	l-3.411-0.213l-3.519-0.213l-2.984-0.32l-1.066-0.319l0,0"/>
<path fill="none" stroke="#4C4C16" stroke-width="2" d="M72.065,55.65l-0.106,0.106l-0.106,0.107l-3.092,0.532l-3.411,0.32
	l-3.092,0.213l-3.731,0.213l-4.051,0.107l-4.478,0.106h-3.091l-3.306,0.106h-1.599h-1.706h-5.117h-3.411l-3.198-0.106h-3.091
	l-4.265-0.106l-3.944-0.214l-3.519-0.213l-2.984-0.106l-3.092-0.427l-2.452-0.426l-0.106-0.107V55.65"/>
<path fill="none" stroke="#4C4C16" stroke-width="2" d="M72.065,64.285l-0.106,0.213L69.4,65.244l-3.092,0.427l-2.984,0.213
	l-3.519,0.213l-3.944,0.214l-4.264,0.213h-3.092l-3.198,0.106h-1.706h-1.599h-1.706h-5.117h-3.411l-3.198-0.106h-3.091l-4.265-0.213
	l-3.944-0.214l-3.519-0.213l-2.984-0.213l-3.092-0.427l-2.559-0.746v-0.213"/>
<path fill="none" stroke="#4C4C16" stroke-width="2" d="M72.065,73.027l-0.106,0.213l-0.106,0.106l-3.092,0.96l-3.411,0.427
	l-3.092,0.319l-3.731,0.213l-4.051,0.214l-4.478,0.213l-3.091,0.106h-3.306h-1.599h-1.706h-5.117h-3.411l-3.198-0.106l-3.091-0.106
	l-4.265-0.106l-3.944-0.32l-3.519-0.213l-2.984-0.32l-3.092-0.532l-2.452-0.747L5.117,73.24v-0.213"/>
<path fill="none" stroke="#4C4C16" stroke-width="2" d="M72.065,81.768l-0.106,0.214L69.4,83.047l-3.092,0.533l-2.984,0.32
	l-3.519,0.426l-3.944,0.214l-4.264,0.213l-3.092,0.106l-3.198,0.106h-1.706l-1.599,0.107h-1.706h-5.117l-3.411-0.107L28.57,84.86
	l-3.091-0.106l-4.265-0.213l-3.944-0.214l-3.519-0.426l-2.984-0.32l-3.092-0.533l-2.559-1.065v-0.214"/>
<path fill="none" stroke="#4C4C16" stroke-width="2" d="M72.065,90.51l-0.106,0.213L69.4,92.002l-3.092,0.533l-2.984,0.533
	l-3.519,0.319l-3.944,0.32l-4.264,0.213l-3.092,0.106l-3.198,0.107l-3.305,0.106h-1.706h-1.705h-3.412l-3.411-0.106l-3.198-0.107
	l-3.091-0.106l-4.265-0.213l-3.944-0.32l-3.519-0.319l-2.984-0.533l-3.092-0.533l-2.452-1.173l-0.106-0.106V90.51"/>
<path fill="none" stroke="#4C4C16" stroke-width="2" d="M5.01,11.408h66.948"/>
<path fill="none" stroke="#4C4C16" stroke-width="2" d="M28.144,19.724v-8.315"/>
<path fill="none" stroke="#4C4C16" stroke-width="2" d="M7.249,19.724v-8.315"/>
<path fill="none" stroke="#4C4C16" stroke-width="2" d="M49.039,19.724v-8.315"/>
<path fill="none" stroke="#4C4C16" stroke-width="2" d="M69.933,19.724v-8.315"/>
<path fill="none" stroke="#4C4C16" stroke-width="2" d="M38.485,29.105v-8.315"/>
<path fill="none" stroke="#4C4C16" stroke-width="2" d="M17.59,29.105v-8.315"/>
<path fill="none" stroke="#4C4C16" stroke-width="2" d="M59.486,29.105v-8.315"/>
<path fill="none" stroke="#4C4C16" stroke-width="2" d="M28.144,38.06v-8.422"/>
<path fill="none" stroke="#4C4C16" stroke-width="2" d="M7.249,37.527v-7.889"/>
<path fill="none" stroke="#4C4C16" stroke-width="2" d="M49.039,38.06v-8.422"/>
<path fill="none" stroke="#4C4C16" stroke-width="2" d="M69.933,37.527v-7.889"/>
<path fill="none" stroke="#4C4C16" stroke-width="2" d="M38.485,47.442v-8.315"/>
<path fill="none" stroke="#4C4C16" stroke-width="2" d="M17.59,47.442v-8.315"/>
<path fill="none" stroke="#4C4C16" stroke-width="2" d="M59.486,47.442v-8.315"/>
<path fill="none" stroke="#4C4C16" stroke-width="2" d="M28.144,56.396v-8.422"/>
<path fill="none" stroke="#4C4C16" stroke-width="2" d="M7.249,55.864v-8.422"/>
<path fill="none" stroke="#4C4C16" stroke-width="2" d="M49.039,56.396v-8.422"/>
<path fill="none" stroke="#4C4C16" stroke-width="2" d="M69.933,55.864v-8.422"/>
<path fill="none" stroke="#4C4C16" stroke-width="2" d="M38.485,65.778v-8.422"/>
<path fill="none" stroke="#4C4C16" stroke-width="2" d="M17.59,65.778v-8.422"/>
<path fill="none" stroke="#4C4C16" stroke-width="2" d="M59.486,65.778v-8.422"/>
<path fill="none" stroke="#4C4C16" stroke-width="2" d="M28.144,75.158v-8.315"/>
<path fill="none" stroke="#4C4C16" stroke-width="2" d="M7.249,73.56v-8.315"/>
<path fill="none" stroke="#4C4C16" stroke-width="2" d="M49.039,75.158v-8.315"/>
<path fill="none" stroke="#4C4C16" stroke-width="2" d="M69.933,73.56v-8.315"/>
<path fill="none" stroke="#4C4C16" stroke-width="2" d="M38.485,84.114v-8.422"/>
<path fill="none" stroke="#4C4C16" stroke-width="2" d="M17.59,83.58v-8.422"/>
<path fill="none" stroke="#4C4C16" stroke-width="2" d="M59.486,83.58v-8.422"/>
<path fill="none" stroke="#4C4C16" stroke-width="2" d="M28.144,93.495v-8.422"/>
<path fill="none" stroke="#4C4C16" stroke-width="2" d="M7.249,91.363v-8.315"/>
<path fill="none" stroke="#4C4C16" stroke-width="2" d="M49.039,93.495v-8.422"/>
<path fill="none" stroke="#4C4C16" stroke-width="2" d="M69.933,91.363v-8.315"/>
<path fill="none" stroke="#4C4C16" stroke-width="2" d="M38.485,102.343v-8.315"/>
<path fill="none" stroke="#4C4C16" stroke-width="2" d="M17.59,101.81v-8.314"/>
<path fill="none" stroke="#4C4C16" stroke-width="2" d="M59.486,101.81v-8.314"/>
</svg>
