<?xml version="1.0" encoding="utf-8"?>
<!-- Generator: Adobe Illustrator 14.0.0, SVG Export Plug-In . SVG Version: 6.00 Build 43363)  -->
<!DOCTYPE svg PUBLIC "-//W3C//DTD SVG 1.1//EN" "http://www.w3.org/Graphics/SVG/1.1/DTD/svg11.dtd">
<svg version="1.1" id="图层_1" xmlns="http://www.w3.org/2000/svg" xmlns:xlink="http://www.w3.org/1999/xlink" x="0px" y="0px"
	 width="50.638px" height="106.502px" viewBox="0 0 50.638 106.502" enable-background="new 0 0 50.638 106.502"
	 xml:space="preserve">
<path fill="#336666" stroke="#000000" stroke-width="2" d="M47.546,2.987v33.475H2.985V2.987H47.546z"/>
<path fill="#4C7F7F" d="M44.775,3.947v31.555H5.757V3.947H44.775z"/>
<path fill="#669999" d="M40.723,3.947v31.555H10.021V3.947H40.723z"/>
<path fill="#7FB2B2" d="M35.713,3.947v31.555H14.819V3.947H35.713z"/>
<path fill="#B2E5E5" d="M28.037,3.947v31.555h-5.544V3.947H28.037z"/>
<path fill="none" stroke="#000000" stroke-width="2" d="M22.493,2.987v33.475"/>
<path fill="#336666" stroke="#000000" stroke-width="2" d="M2.985,69.935V36.461h44.562v33.474H2.985z"/>
<path fill="#4C7F7F" d="M5.757,68.869V37.527h39.018v31.343H5.757z"/>
<path fill="#669999" d="M10.021,68.869V37.527h30.702v31.343H10.021z"/>
<path fill="#7FB2B2" d="M14.819,68.869V37.527h20.895v31.343H14.819z"/>
<path fill="#B2E5E5" d="M22.493,68.869V37.527h5.544v31.343H22.493z"/>
<path fill="none" stroke="#000000" stroke-width="2" d="M36.566,69.935V36.461"/>
<path fill="#336666" stroke="#000000" stroke-width="2" d="M47.546,69.935v33.475H2.985V69.935H47.546z"/>
<path fill="#4C7F7F" d="M44.775,71.108v31.342H5.757V71.108H44.775z"/>
<path fill="#669999" d="M40.723,71.108v31.342H10.021V71.108H40.723z"/>
<path fill="#7FB2B2" d="M35.713,71.108v31.342H14.819V71.108H35.713z"/>
<path fill="#B2E5E5" d="M28.037,71.108v31.342h-5.544V71.108H28.037z"/>
<path fill="none" stroke="#000000" stroke-width="2" d="M17.057,69.935v33.475"/>
</svg>
