<?xml version="1.0" encoding="utf-8"?>
<!-- Generator: Adobe Illustrator 14.0.0, SVG Export Plug-In . SVG Version: 6.00 Build 43363)  -->
<!DOCTYPE svg PUBLIC "-//W3C//DTD SVG 1.1//EN" "http://www.w3.org/Graphics/SVG/1.1/DTD/svg11.dtd">
<svg version="1.1" id="图层_1" xmlns="http://www.w3.org/2000/svg" xmlns:xlink="http://www.w3.org/1999/xlink" x="0px" y="0px"
	 width="144.749px" height="68.68px" viewBox="0 0 144.749 68.68" enable-background="new 0 0 144.749 68.68" xml:space="preserve">
<path fill="#336666" stroke="#000000" stroke-width="2" d="M4.057,4.058h45.642v60.566H4.057V4.058z"/>
<path fill="#4C7F7F" d="M5.361,7.825h42.889v53.031H5.361V7.825z"/>
<path fill="#669999" d="M5.361,13.621h42.889V55.35H5.361V13.621z"/>
<path fill="#7FB2B2" d="M5.361,20.141h42.889V48.54H5.361V20.141z"/>
<path fill="#B2E5E5" d="M5.361,30.573h42.889v7.535H5.361V30.573z"/>
<path fill="none" stroke="#000000" stroke-width="2" d="M4.057,38.108h45.642"/>
<path fill="#336666" stroke="#000000" stroke-width="2" d="M94.906,64.624H49.698V4.058h45.207V64.624z"/>
<path fill="#4C7F7F" d="M93.602,60.856h-42.6V7.825h42.6V60.856z"/>
<path fill="#669999" d="M93.602,55.35h-42.6V13.621h42.6V55.35z"/>
<path fill="#7FB2B2" d="M93.602,48.54h-42.6V20.141h42.6V48.54z"/>
<path fill="#B2E5E5" d="M93.602,38.108h-42.6v-7.535h42.6V38.108z"/>
<path fill="none" stroke="#000000" stroke-width="2" d="M94.906,19.271H49.698"/>
<path fill="#336666" stroke="#000000" stroke-width="2" d="M94.906,4.058h45.642v60.566H94.906V4.058z"/>
<path fill="#4C7F7F" d="M96.644,7.825h42.599v53.031H96.644V7.825z"/>
<path fill="#669999" d="M96.644,13.621h42.599V55.35H96.644V13.621z"/>
<path fill="#7FB2B2" d="M96.644,20.141h42.599V48.54H96.644V20.141z"/>
<path fill="#B2E5E5" d="M96.644,30.573h42.599v7.535H96.644V30.573z"/>
<path fill="none" stroke="#000000" stroke-width="2" d="M94.906,45.788h45.642"/>
</svg>
