<?xml version="1.0" encoding="utf-8"?>
<!-- Generator: Adobe Illustrator 14.0.0, SVG Export Plug-In . SVG Version: 6.00 Build 43363)  -->
<!DOCTYPE svg PUBLIC "-//W3C//DTD SVG 1.1//EN" "http://www.w3.org/Graphics/SVG/1.1/DTD/svg11.dtd">
<svg version="1.1" id="图层_1" xmlns="http://www.w3.org/2000/svg" xmlns:xlink="http://www.w3.org/1999/xlink" x="0px" y="0px"
	 width="106.503px" height="106.502px" viewBox="0 0 106.503 106.502" enable-background="new 0 0 106.503 106.502"
	 xml:space="preserve">
<path fill="#336666" stroke="#000000" stroke-width="2" d="M2.985,72.494L26.226,49.36l31.023,30.917L33.902,103.41L2.985,72.494z"
	/>
<path fill="#4C7F7F" d="M5.757,73.667l21.748-21.642L54.37,79.104l-21.641,21.748L5.757,73.667z"/>
<path fill="#669999" d="M8.422,76.652l21.855-22.067l21.322,21.534L29.744,97.974L8.422,76.652z"/>
<path fill="#7FB2B2" d="M12.047,80.17l21.855-21.962l14.286,14.499L26.226,94.562L12.047,80.17z"/>
<path fill="#B2E5E5" d="M17.271,85.394l21.855-21.961l3.838,4.051L21.002,89.338L17.271,85.394z"/>
<path fill="none" stroke="#000000" stroke-width="2" d="M20.469,89.765l23.241-23.134"/>
<path fill="#336666" stroke="#000000" stroke-width="2" d="M80.276,57.249L57.249,80.277L26.226,49.36L49.36,26.226L80.276,57.249z"
	/>
<path fill="#4C7F7F" d="M77.505,55.756L55.757,77.505L28.891,50.639l21.748-21.748L77.505,55.756z"/>
<path fill="#669999" d="M74.733,52.985L52.985,74.733L31.663,53.198l21.535-21.534L74.733,52.985z"/>
<path fill="#7FB2B2" d="M71.534,49.573L49.573,71.534L35.074,56.823l21.749-21.748L71.534,49.573z"/>
<path fill="#B2E5E5" d="M66.098,44.136L44.136,66.098l-3.625-3.838L62.26,40.511L66.098,44.136z"/>
<path fill="none" stroke="#000000" stroke-width="2" d="M57.036,33.902L33.902,57.035"/>
<path fill="#336666" stroke="#000000" stroke-width="2" d="M49.36,26.226L72.494,2.985l30.917,30.917L80.276,57.249L49.36,26.226z"
	/>
<path fill="#4C7F7F" d="M52.238,27.292L73.667,5.757l27.186,26.972L79.104,54.157L52.238,27.292z"/>
<path fill="#669999" d="M54.797,30.064L76.651,8.422l21.322,21.322L76.118,51.599L54.797,30.064z"/>
<path fill="#7FB2B2" d="M58.422,33.689L80.17,12.047l14.392,14.179L72.708,48.188L58.422,33.689z"/>
<path fill="#B2E5E5" d="M63.646,38.912l21.748-21.642l3.945,3.731L67.696,42.963L63.646,38.912z"/>
<path fill="none" stroke="#000000" stroke-width="2" d="M70.469,47.334l23.134-23.027"/>
</svg>
