<?xml version="1.0" encoding="utf-8"?>
<!-- Generator: Adobe Illustrator 14.0.0, SVG Export Plug-In . SVG Version: 6.00 Build 43363)  -->
<!DOCTYPE svg PUBLIC "-//W3C//DTD SVG 1.1//EN" "http://www.w3.org/Graphics/SVG/1.1/DTD/svg11.dtd">
<svg version="1.1" id="图层_1" xmlns="http://www.w3.org/2000/svg" xmlns:xlink="http://www.w3.org/1999/xlink" x="0px" y="0px"
	 width="106.711px" height="106.502px" viewBox="0 0 106.711 106.502" enable-background="new 0 0 106.711 106.502"
	 xml:space="preserve">
<path fill="#336666" stroke="#000000" stroke-width="2" d="M33.968,2.993l23.393,23.18L26.277,57.15L2.991,33.971L33.968,2.993z"/>
<path fill="#4C7F7F" d="M32.793,5.557l21.684,21.791L27.559,54.48L5.768,32.795L32.793,5.557z"/>
<path fill="#669999" d="M29.695,8.441L51.7,30.339L30.336,51.702L8.438,29.698L29.695,8.441z"/>
<path fill="#7FB2B2" d="M26.277,11.86l22.004,21.897L33.968,48.284L12.07,26.28L26.277,11.86z"/>
<path fill="#B2E5E5" d="M21.043,17.093l22.005,21.898l-3.846,4.059L17.305,21.045L21.043,17.093z"/>
<path fill="none" stroke="#000000" stroke-width="2" d="M16.664,20.298l23.18,23.393"/>
<path fill="#336666" stroke="#000000" stroke-width="2" d="M49.457,80.329L26.277,57.15l31.084-30.977l23.072,23.072L49.457,80.329z
	"/>
<path fill="#4C7F7F" d="M50.632,77.659L28.948,55.975l27.025-27.238l21.684,21.897L50.632,77.659z"/>
<path fill="#669999" d="M53.302,74.882L31.725,53.091l21.363-21.363l21.791,21.79L53.302,74.882z"/>
<path fill="#7FB2B2" d="M56.934,71.464L35.143,49.673L49.67,35.038l21.898,21.898L56.934,71.464z"/>
<path fill="#B2E5E5" d="M62.382,66.016L40.591,44.225l3.632-3.845l22.004,21.79L62.382,66.016z"/>
<path fill="none" stroke="#000000" stroke-width="2" d="M72.423,57.15L49.457,34.184"/>
<path fill="#336666" stroke="#000000" stroke-width="2" d="M80.434,49.245l23.18,23.18l-30.977,30.978l-23.18-23.073L80.434,49.245z
	"/>
<path fill="#4C7F7F" d="M79.259,52.343l21.791,21.471l-27.239,27.025l-21.47-21.578L79.259,52.343z"/>
<path fill="#669999" d="M76.268,54.906l21.898,22.005L76.909,98.168L54.904,76.485L76.268,54.906z"/>
<path fill="#7FB2B2" d="M72.85,58.325l21.898,22.004L80.327,94.536L58.536,72.853L72.85,58.325z"/>
<path fill="#B2E5E5" d="M67.83,63.559l21.684,22.005l-3.953,3.738l-21.79-21.684L67.83,63.559z"/>
<path fill="none" stroke="#000000" stroke-width="2" d="M59.178,70.823l23.072,23.18"/>
</svg>
