<?xml version="1.0" encoding="utf-8"?>
<!-- Generator: Adobe Illustrator 14.0.0, SVG Export Plug-In . SVG Version: 6.00 Build 43363)  -->
<!DOCTYPE svg PUBLIC "-//W3C//DTD SVG 1.1//EN" "http://www.w3.org/Graphics/SVG/1.1/DTD/svg11.dtd">
<svg version="1.1" id="图层_1" xmlns="http://www.w3.org/2000/svg" xmlns:xlink="http://www.w3.org/1999/xlink" x="0px" y="0px"
	 width="83.686px" height="106.502px" viewBox="0 0 83.686 106.502" enable-background="new 0 0 83.686 106.502"
	 xml:space="preserve">
<path fill="#336666" stroke="#000000" stroke-width="2" d="M61.405,48.188L46.8,83.367L2.985,65.244l14.392-35.394L61.405,48.188z"
	/>
<path fill="#4C7F7F" d="M58.207,47.974L44.561,81.129L6.396,65.244L20.042,32.09L58.207,47.974z"/>
<path fill="#669999" d="M54.156,46.375L40.297,79.53L10.341,67.057l13.646-33.154L54.156,46.375z"/>
<path fill="#7FB2B2" d="M49.572,44.35L35.927,77.504l-20.682-8.422l13.432-33.154L49.572,44.35z"/>
<path fill="#B2E5E5" d="M41.896,41.365L28.251,74.519l-5.438-2.451l13.433-32.941L41.896,41.365z"/>
<path fill="#336666" stroke="#000000" stroke-width="2" d="M80.701,39.126L53.836,66.097L17.377,29.851L44.561,2.987L80.701,39.126z
	"/>
<path fill="#4C7F7F" d="M77.503,37.527L52.237,62.792L20.788,31.45L46.16,6.185L77.503,37.527z"/>
<path fill="#669999" d="M74.304,34.115L48.932,59.594L24.2,34.862L49.572,9.383L74.304,34.115z"/>
<path fill="#7FB2B2" d="M70.254,30.065L45.094,55.65L28.037,38.487l25.586-25.053L70.254,30.065z"/>
<path fill="#B2E5E5" d="M64.07,24.095L38.698,49.573l-4.157-4.584l25.052-25.372L64.07,24.095z"/>
<path fill="#336666" stroke="#000000" stroke-width="2" d="M53.942,65.244v38.165H2.985V65.244H53.942z"/>
<path fill="#4C7F7F" d="M50.745,66.417l0.213,35.819H6.396V66.63L50.745,66.417z"/>
<path fill="#669999" d="M46.16,66.63v35.606H11.194L10.98,66.417L46.16,66.63z"/>
<path fill="#7FB2B2" d="M40.297,66.63v35.606H16.418l0.213-35.819L40.297,66.63z"/>
<path fill="#B2E5E5" d="M31.662,66.417l-0.213,35.819h-6.184V66.63L31.662,66.417z"/>
</svg>
