<?xml version="1.0" encoding="utf-8"?>
<!-- Generator: Adobe Illustrator 14.0.0, SVG Export Plug-In . SVG Version: 6.00 Build 43363)  -->
<!DOCTYPE svg PUBLIC "-//W3C//DTD SVG 1.1//EN" "http://www.w3.org/Graphics/SVG/1.1/DTD/svg11.dtd">
<svg version="1.1" id="图层_1" xmlns="http://www.w3.org/2000/svg" xmlns:xlink="http://www.w3.org/1999/xlink" x="0px" y="0px"
	 width="135.533px" height="106.502px" viewBox="0 0 135.533 106.502" enable-background="new 0 0 135.533 106.502"
	 xml:space="preserve">
<path fill="#336666" stroke="#000000" stroke-width="2" d="M106.092,59.831l-44.77,18.315l-23.335-55.76L83.03,3.8L106.092,59.831z"
	/>
<path fill="#4C7F7F" d="M103.515,56.711L61.322,74.076L41.107,25.507L83.3,8.142L103.515,56.711z"/>
<path fill="#669999" d="M101.208,51.555L59.016,68.921L43.143,30.798l42.193-17.637L101.208,51.555z"/>
<path fill="#7FB2B2" d="M98.903,45.722L56.709,63.087L45.72,37.039l41.921-17.638L98.903,45.722z"/>
<path fill="#B2E5E5" d="M94.833,35.953L52.639,53.59l-2.849-7.19l41.921-17.365L94.833,35.953z"/>
<path fill="#336666" stroke="#000000" stroke-width="2" d="M131.598,68.921H83.03V3.8h48.568V68.921z"/>
<path fill="#4C7F7F" d="M130.106,64.579H84.522V8.142h45.584V64.579z"/>
<path fill="#669999" d="M130.377,58.745H84.522V14.246h45.855V58.745z"/>
<path fill="#7FB2B2" d="M130.377,51.284l-45.584,0.542V21.165l45.584,0.271V51.284z"/>
<path fill="#B2E5E5" d="M130.106,40.295l-45.721,0.271l0.408-7.869l45.313-0.271V40.295z"/>
<path fill="#336666" stroke="#000000" stroke-width="2" d="M84.114,68.514l-34.323,34.188L3.799,56.982l34.188-34.595L84.114,68.514
	z"/>
<path fill="#4C7F7F" d="M80.044,66.615L48.027,98.904L7.869,58.745l32.018-32.018L80.044,66.615z"/>
<path fill="#669999" d="M75.567,62.544L43.685,94.563L12.21,63.087l32.018-32.289L75.567,62.544z"/>
<path fill="#7FB2B2" d="M70.547,57.525L38.53,89.406L17.094,67.971l32.153-32.018L70.547,57.525z"/>
<path fill="#B2E5E5" d="M62.814,49.521L30.661,81.538l-5.698-5.698l32.018-31.882L62.814,49.521z"/>
</svg>
