<?xml version="1.0" encoding="utf-8"?>
<!-- Generator: Adobe Illustrator 14.0.0, SVG Export Plug-In . SVG Version: 6.00 Build 43363)  -->
<!DOCTYPE svg PUBLIC "-//W3C//DTD SVG 1.1//EN" "http://www.w3.org/Graphics/SVG/1.1/DTD/svg11.dtd">
<svg version="1.1" id="图层_1" xmlns="http://www.w3.org/2000/svg" xmlns:xlink="http://www.w3.org/1999/xlink" x="0px" y="0px"
	 width="135.359px" height="106.502px" viewBox="0 0 135.359 106.502" enable-background="new 0 0 135.359 106.502"
	 xml:space="preserve">
<path fill="#336666" stroke="#000000" stroke-width="2" d="M73.98,28.32L29.267,46.883l23.034,55.688l44.984-18.563L73.98,28.32z"/>
<path fill="#4C7F7F" d="M74.252,32.385l-42.14,17.344l20.189,48.778L94.44,80.892L74.252,32.385z"/>
<path fill="#669999" d="M76.284,37.533L34.145,55.148l15.853,38.074l42.139-17.479L76.284,37.533z"/>
<path fill="#7FB2B2" d="M78.858,43.36L36.719,60.975L47.423,86.99l42.139-17.072L78.858,43.36z"/>
<path fill="#B2E5E5" d="M82.652,53.115L40.513,70.459l3.116,7.182l41.869-17.615L82.652,53.115z"/>
<path fill="#336666" stroke="#000000" stroke-width="2" d="M85.498,3.795L51.217,37.941l46.068,46.068l34.146-34.28L85.498,3.795z"
	/>
<path fill="#4C7F7F" d="M87.53,7.861L55.282,39.973l39.972,39.971l32.111-32.248L87.53,7.861z"/>
<path fill="#669999" d="M91.865,11.925L59.482,44.173l31.436,31.435l32.383-32.248L91.865,11.925z"/>
<path fill="#7FB2B2" d="M97.015,17.073L64.496,49.051L86.311,70.73l31.842-32.519L97.015,17.073z"/>
<path fill="#B2E5E5" d="M104.603,24.933L72.219,57.181l5.826,5.284l32.248-31.842L104.603,24.933z"/>
<path fill="#336666" stroke="#000000" stroke-width="2" d="M52.301,37.805H3.794v64.767h48.507V37.805z"/>
<path fill="#4C7F7F" d="M50.54,41.869H5.284v56.638H50.54V41.869z"/>
<path fill="#669999" d="M50.54,47.696H5.284v44.714H50.54V47.696z"/>
<path fill="#7FB2B2" d="M50.54,55.148H5.284v30.08H50.54V55.148z"/>
<path fill="#B2E5E5" d="M50.54,66.123H5.284v8.13H50.54V66.123z"/>
</svg>
