<?xml version="1.0" encoding="utf-8"?>
<!-- Generator: Adobe Illustrator 14.0.0, SVG Export Plug-In . SVG Version: 6.00 Build 43363)  -->
<!DOCTYPE svg PUBLIC "-//W3C//DTD SVG 1.1//EN" "http://www.w3.org/Graphics/SVG/1.1/DTD/svg11.dtd">
<svg version="1.1" id="图层_1" xmlns="http://www.w3.org/2000/svg" xmlns:xlink="http://www.w3.org/1999/xlink" x="0px" y="0px"
	 width="83.793px" height="106.502px" viewBox="0 0 83.793 106.502" enable-background="new 0 0 83.793 106.502"
	 xml:space="preserve">
<path fill="#336666" stroke="#000000" stroke-width="2" d="M36.673,23.028L22.281,58.208l43.816,18.337l14.605-35.394L36.673,23.028
	z"/>
<path fill="#4C7F7F" d="M39.125,25.054L25.479,58.208l38.166,15.885l13.646-33.155L39.125,25.054z"/>
<path fill="#669999" d="M43.176,26.865L29.424,60.021l29.957,12.473l13.858-33.154L43.176,26.865z"/>
<path fill="#7FB2B2" d="M47.76,28.678L34.114,61.833l20.469,8.635l13.858-32.941L47.76,28.678z"/>
<path fill="#B2E5E5" d="M55.436,31.876L41.577,65.031l5.544,2.238l13.752-32.941L55.436,31.876z"/>
<path fill="#336666" stroke="#000000" stroke-width="2" d="M29.424,2.986v38.166h51.278V2.986H29.424z"/>
<path fill="#4C7F7F" d="M32.942,4.158v35.714h44.349V4.158H32.942z"/>
<path fill="#669999" d="M37.526,3.946v35.927h34.967V3.946H37.526z"/>
<path fill="#7FB2B2" d="M43.389,3.946l-0.426,35.819h24.094L66.843,3.946H43.389z"/>
<path fill="#B2E5E5" d="M52.024,4.158l-0.213,35.927l6.183-0.32l0.214-35.606H52.024z"/>
<path fill="#336666" stroke="#000000" stroke-width="2" d="M29.85,40.298L2.985,67.27l35.927,36.141l27.185-26.865L29.85,40.298z"/>
<path fill="#4C7F7F" d="M31.236,43.603L5.97,68.656l31.556,31.556l25.16-25.053L31.236,43.603z"/>
<path fill="#669999" d="M34.541,47.015L9.381,72.068L34.114,96.8l25.267-25.053L34.541,47.015z"/>
<path fill="#7FB2B2" d="M38.485,50.959L13.433,76.118l16.844,16.844l25.159-25.266L38.485,50.959z"/>
<path fill="#B2E5E5" d="M44.775,57.035l-25.16,25.267l4.478,4.478L49.146,61.62L44.775,57.035z"/>
</svg>
