<?xml version="1.0" encoding="utf-8"?>
<!-- Generator: Adobe Illustrator 14.0.0, SVG Export Plug-In . SVG Version: 6.00 Build 43363)  -->
<!DOCTYPE svg PUBLIC "-//W3C//DTD SVG 1.1//EN" "http://www.w3.org/Graphics/SVG/1.1/DTD/svg11.dtd">
<svg version="1.1" id="图层_1" xmlns="http://www.w3.org/2000/svg" xmlns:xlink="http://www.w3.org/1999/xlink" x="0px" y="0px"
	 width="83.88px" height="106.502px" viewBox="0 0 83.88 106.502" enable-background="new 0 0 83.88 106.502" xml:space="preserve">
<path fill="#336666" stroke="#000000" stroke-width="2" d="M22.304,48.236l14.62,35.216l43.86-18.142L66.378,29.88L22.304,48.236z"
	/>
<path fill="#4C7F7F" d="M25.506,48.022l13.659,33.189L77.369,65.31L63.71,32.121L25.506,48.022z"/>
<path fill="#669999" d="M29.561,46.421L43.434,79.61l29.987-12.485L59.655,33.936L29.561,46.421z"/>
<path fill="#7FB2B2" d="M34.15,44.394l13.66,33.188l20.702-8.431L55.066,35.963L34.15,44.394z"/>
<path fill="#B2E5E5" d="M41.833,41.406l13.659,33.188l5.443-2.454L47.382,39.164L41.833,41.406z"/>
<path fill="#336666" stroke="#000000" stroke-width="2" d="M2.989,39.164l26.893,27L66.378,29.88L39.165,2.989L2.989,39.164z"/>
<path fill="#4C7F7F" d="M6.191,37.564l25.291,25.292l31.375-31.268L37.565,6.19L6.191,37.564z"/>
<path fill="#669999" d="M9.392,34.149L34.79,59.655l24.651-24.759L34.15,9.391L9.392,34.149z"/>
<path fill="#7FB2B2" d="M13.447,30.094l25.078,25.611l17.182-17.181L30.095,13.447L13.447,30.094z"/>
<path fill="#B2E5E5" d="M19.636,24.117l25.398,25.506l4.162-4.589L24.118,19.636L19.636,24.117z"/>
<path fill="#336666" stroke="#000000" stroke-width="2" d="M29.667,65.31v38.204h51.117V65.31H29.667z"/>
<path fill="#4C7F7F" d="M32.976,66.484l-0.214,35.856h44.607V66.698L32.976,66.484z"/>
<path fill="#669999" d="M37.565,66.698v35.643h35.003l0.213-35.856L37.565,66.698z"/>
<path fill="#7FB2B2" d="M43.434,66.698v35.643h23.904l-0.213-35.856L43.434,66.698z"/>
<path fill="#B2E5E5" d="M52.078,66.484l0.213,35.856h6.189V66.698L52.078,66.484z"/>
</svg>
