<?xml version="1.0" encoding="utf-8"?>
<!-- Generator: Adobe Illustrator 14.0.0, SVG Export Plug-In . SVG Version: 6.00 Build 43363)  -->
<!DOCTYPE svg PUBLIC "-//W3C//DTD SVG 1.1//EN" "http://www.w3.org/Graphics/SVG/1.1/DTD/svg11.dtd">
<svg version="1.1" id="图层_1" xmlns="http://www.w3.org/2000/svg" xmlns:xlink="http://www.w3.org/1999/xlink" x="0px" y="0px"
	 width="135.533px" height="106.502px" viewBox="0 0 135.533 106.502" enable-background="new 0 0 135.533 106.502"
	 xml:space="preserve">
<path fill="#336666" stroke="#000000" stroke-width="2" d="M29.304,59.831l44.771,18.315l23.336-55.76L52.368,3.8L29.304,59.831z"/>
<path fill="#4C7F7F" d="M31.882,56.711l42.192,17.365L94.29,25.507L52.097,8.142L31.882,56.711z"/>
<path fill="#669999" d="M34.188,51.555l42.193,17.366l15.873-38.123L50.062,13.161L34.188,51.555z"/>
<path fill="#7FB2B2" d="M36.495,45.722l42.193,17.365l10.988-26.048L47.755,19.402L36.495,45.722z"/>
<path fill="#B2E5E5" d="M40.565,35.953L82.758,53.59l2.849-7.19L43.685,29.034L40.565,35.953z"/>
<path fill="#336666" stroke="#000000" stroke-width="2" d="M3.799,68.921h48.569V3.8H3.799V68.921z"/>
<path fill="#4C7F7F" d="M5.291,64.579h45.584V8.142H5.291V64.579z"/>
<path fill="#669999" d="M5.02,58.745h45.856V14.246H5.02V58.745z"/>
<path fill="#7FB2B2" d="M5.02,51.284l45.585,0.542V21.165L5.02,21.437V51.284z"/>
<path fill="#B2E5E5" d="M5.291,40.295l45.72,0.271l-0.407-7.869L5.291,32.426V40.295z"/>
<path fill="#336666" stroke="#000000" stroke-width="2" d="M51.283,68.514l34.324,34.188l45.991-45.721L97.411,22.387L51.283,68.514
	z"/>
<path fill="#4C7F7F" d="M55.488,66.615l31.882,32.289l40.157-40.158L95.647,26.728L55.488,66.615z"/>
<path fill="#669999" d="M59.83,62.544l31.882,32.019l31.476-31.476L91.169,30.798L59.83,62.544z"/>
<path fill="#7FB2B2" d="M64.85,57.389l32.018,32.018l21.436-21.436L86.149,35.953L64.85,57.389z"/>
<path fill="#B2E5E5" d="M72.583,49.521l32.153,32.018l5.698-5.698L78.417,43.958L72.583,49.521z"/>
</svg>
