<?xml version="1.0" encoding="utf-8"?>
<!-- Generator: Adobe Illustrator 14.0.0, SVG Export Plug-In . SVG Version: 6.00 Build 43363)  -->
<!DOCTYPE svg PUBLIC "-//W3C//DTD SVG 1.1//EN" "http://www.w3.org/Graphics/SVG/1.1/DTD/svg11.dtd">
<svg version="1.1" id="图层_1" xmlns="http://www.w3.org/2000/svg" xmlns:xlink="http://www.w3.org/1999/xlink" x="0px" y="0px"
	 width="83.686px" height="106.502px" viewBox="0 0 83.686 106.502" enable-background="new 0 0 83.686 106.502"
	 xml:space="preserve">
<path fill="#336666" stroke="#000000" stroke-width="2" d="M47.013,23.029l14.392,35.18L17.59,76.544L2.985,41.152L47.013,23.029z"
	/>
<path fill="#4C7F7F" d="M44.561,25.054l13.646,33.154L20.042,74.093L6.396,40.939L44.561,25.054z"/>
<path fill="#669999" d="M40.51,26.866l13.646,33.154l-29.85,12.473L10.341,39.339L40.51,26.866z"/>
<path fill="#7FB2B2" d="M35.927,28.679l13.646,33.154l-20.469,8.635L15.245,37.527L35.927,28.679z"/>
<path fill="#B2E5E5" d="M28.251,31.877l13.858,33.154l-5.65,2.238L22.813,34.328L28.251,31.877z"/>
<path fill="#336666" stroke="#000000" stroke-width="2" d="M54.156,2.987v38.165H2.985V2.987H54.156z"/>
<path fill="#4C7F7F" d="M50.745,4.159v35.819H6.396V4.159H50.745z"/>
<path fill="#669999" d="M46.16,3.946v36.033H11.194V3.946H46.16z"/>
<path fill="#7FB2B2" d="M40.297,3.946l0.427,35.82H16.631l0.213-35.82H40.297z"/>
<path fill="#B2E5E5" d="M31.662,4.159l0.213,36.032l-6.183-0.426L25.479,4.159H31.662z"/>
<path fill="#336666" stroke="#000000" stroke-width="2" d="M53.836,40.299L80.701,67.27l-35.927,36.14L17.59,76.544L53.836,40.299z"
	/>
<path fill="#4C7F7F" d="M52.344,43.496l25.372,25.159L46.16,100.211L21.002,75.158L52.344,43.496z"/>
<path fill="#669999" d="M49.145,47.015l25.159,25.053L49.572,96.8L24.306,71.641L49.145,47.015z"/>
<path fill="#7FB2B2" d="M45.201,50.959l25.053,25.159L53.41,92.962L28.251,67.697L45.201,50.959z"/>
<path fill="#B2E5E5" d="M38.911,57.035L64.07,82.301l-4.478,4.478L34.541,61.619L38.911,57.035z"/>
</svg>
