<?xml version="1.0" encoding="utf-8"?>
<!-- Generator: Adobe Illustrator 14.0.0, SVG Export Plug-In . SVG Version: 6.00 Build 43363)  -->
<!DOCTYPE svg PUBLIC "-//W3C//DTD SVG 1.1//EN" "http://www.w3.org/Graphics/SVG/1.1/DTD/svg11.dtd">
<svg version="1.1" id="图层_1" xmlns="http://www.w3.org/2000/svg" xmlns:xlink="http://www.w3.org/1999/xlink" x="0px" y="0px"
	 width="135.533px" height="106.502px" viewBox="0 0 135.533 106.502" enable-background="new 0 0 135.533 106.502"
	 xml:space="preserve">
<path fill="#336666" stroke="#000000" stroke-width="2" d="M61.322,28.356l44.77,18.587l-23.063,55.76L37.987,84.115L61.322,28.356z
	"/>
<path fill="#4C7F7F" d="M61.051,32.426l42.193,17.365L83.03,98.632L40.836,80.995L61.051,32.426z"/>
<path fill="#669999" d="M59.016,37.581l42.193,17.637L85.335,93.341L43.143,75.84L59.016,37.581z"/>
<path fill="#7FB2B2" d="M56.438,43.415l42.193,17.637L87.913,87.101L45.72,70.006L56.438,43.415z"/>
<path fill="#B2E5E5" d="M52.639,53.184l42.193,17.365l-3.121,7.055L49.791,59.967L52.639,53.184z"/>
<path fill="#336666" stroke="#000000" stroke-width="2" d="M49.791,3.8l34.323,34.188L37.987,84.115L3.799,49.791L49.791,3.8z"/>
<path fill="#4C7F7F" d="M47.755,7.87l32.289,32.153L40.022,80.046L7.869,47.757L47.755,7.87z"/>
<path fill="#669999" d="M43.414,11.941L75.838,44.23L44.364,75.704L11.939,43.415L43.414,11.941z"/>
<path fill="#7FB2B2" d="M38.258,17.096l32.561,31.882L48.977,70.821L17.094,38.26L38.258,17.096z"/>
<path fill="#B2E5E5" d="M30.661,24.964l32.425,32.289l-5.834,5.291L24.963,30.662L30.661,24.964z"/>
<path fill="#336666" stroke="#000000" stroke-width="2" d="M83.03,37.717h48.568v64.985H83.03V37.717z"/>
<path fill="#4C7F7F" d="M84.793,41.923h45.313v56.709H84.793V41.923z"/>
<path fill="#669999" d="M84.793,47.757h45.313v44.771H84.793V47.757z"/>
<path fill="#7FB2B2" d="M84.793,55.218h45.313v30.119H84.793V55.218z"/>
<path fill="#B2E5E5" d="M84.793,66.207h45.313v8.141H84.793V66.207z"/>
</svg>
