<?xml version="1.0" encoding="utf-8"?>
<!-- Generator: Adobe Illustrator 14.0.0, SVG Export Plug-In . SVG Version: 6.00 Build 43363)  -->
<!DOCTYPE svg PUBLIC "-//W3C//DTD SVG 1.1//EN" "http://www.w3.org/Graphics/SVG/1.1/DTD/svg11.dtd">
<svg version="1.1" id="图层_1" xmlns="http://www.w3.org/2000/svg" xmlns:xlink="http://www.w3.org/1999/xlink" x="0px" y="0px"
	 width="28.253px" height="106.502px" viewBox="0 0 28.253 106.502" enable-background="new 0 0 28.253 106.502"
	 xml:space="preserve">
<path fill="#336666" stroke="#000000" stroke-width="2" d="M25.267,2.985v16.632H2.986V2.985H25.267z"/>
<path fill="#4C7F7F" d="M23.881,3.518V19.19H4.371V3.518H23.881z"/>
<path fill="#669999" d="M21.856,3.518V19.19H6.398V3.518H21.856z"/>
<path fill="#7FB2B2" d="M19.191,3.518V19.19H8.742V3.518H19.191z"/>
<path fill="#B2E5E5" d="M15.353,3.518V19.19H12.58V3.518H15.353z"/>
<path fill="none" stroke="#000000" stroke-width="2" d="M12.58,2.985v16.632"/>
<path fill="#336666" stroke="#000000" stroke-width="2" d="M2.986,36.567v-16.95h22.281v16.95H2.986z"/>
<path fill="#4C7F7F" d="M4.371,35.927V20.256h19.51v15.671H4.371z"/>
<path fill="#669999" d="M6.398,35.927V20.256h15.458v15.671H6.398z"/>
<path fill="#7FB2B2" d="M8.742,35.927V20.256h10.448v15.671H8.742z"/>
<path fill="#B2E5E5" d="M12.58,35.927V20.256h2.772v15.671H12.58z"/>
<path fill="none" stroke="#000000" stroke-width="2" d="M19.616,36.567v-16.95"/>
<path fill="#336666" stroke="#000000" stroke-width="2" d="M25.267,36.567v16.631H2.986V36.567H25.267z"/>
<path fill="#4C7F7F" d="M23.881,36.887v15.671H4.371V36.887H23.881z"/>
<path fill="#669999" d="M21.856,36.887v15.671H6.398V36.887H21.856z"/>
<path fill="#7FB2B2" d="M19.191,36.887v15.671H8.742V36.887H19.191z"/>
<path fill="#B2E5E5" d="M15.353,36.887v15.671H12.58V36.887H15.353z"/>
<path fill="none" stroke="#000000" stroke-width="2" d="M10.022,36.567v16.631"/>
<path fill="#336666" stroke="#000000" stroke-width="2" d="M25.267,53.198v16.632H2.986V53.198H25.267z"/>
<path fill="#4C7F7F" d="M23.881,53.837v15.672H4.371V53.837H23.881z"/>
<path fill="#669999" d="M21.856,53.837v15.672H6.398V53.837H21.856z"/>
<path fill="#7FB2B2" d="M19.191,53.837v15.672H8.742V53.837H19.191z"/>
<path fill="#B2E5E5" d="M15.353,53.837v15.672H12.58V53.837H15.353z"/>
<path fill="none" stroke="#000000" stroke-width="2" d="M12.58,53.198v16.632"/>
<path fill="#336666" stroke="#000000" stroke-width="2" d="M2.986,86.78v-16.95h22.281v16.95H2.986z"/>
<path fill="#4C7F7F" d="M4.371,86.14V70.469h19.51V86.14H4.371z"/>
<path fill="#669999" d="M6.398,86.14V70.469h15.458V86.14H6.398z"/>
<path fill="#7FB2B2" d="M8.742,86.14V70.469h10.448V86.14H8.742z"/>
<path fill="#B2E5E5" d="M12.58,86.14V70.469h2.772V86.14H12.58z"/>
<path fill="none" stroke="#000000" stroke-width="2" d="M19.616,86.78v-16.95"/>
<path fill="#336666" stroke="#000000" stroke-width="2" d="M25.267,86.78v16.631H2.986V86.78H25.267z"/>
<path fill="#4C7F7F" d="M23.881,87.206v15.672H4.371V87.206H23.881z"/>
<path fill="#669999" d="M21.856,87.206v15.672H6.398V87.206H21.856z"/>
<path fill="#7FB2B2" d="M19.191,87.206v15.672H8.742V87.206H19.191z"/>
<path fill="#B2E5E5" d="M15.353,87.206v15.672H12.58V87.206H15.353z"/>
<path fill="none" stroke="#000000" stroke-width="2" d="M10.022,86.78v16.631"/>
</svg>
