<?xml version="1.0" encoding="utf-8"?>
<!-- Generator: Adobe Illustrator 14.0.0, SVG Export Plug-In . SVG Version: 6.00 Build 43363)  -->
<!DOCTYPE svg PUBLIC "-//W3C//DTD SVG 1.1//EN" "http://www.w3.org/Graphics/SVG/1.1/DTD/svg11.dtd">
<svg version="1.1" id="图层_1" xmlns="http://www.w3.org/2000/svg" xmlns:xlink="http://www.w3.org/1999/xlink" x="0px" y="0px"
	 width="106.503px" height="106.502px" viewBox="0 0 106.503 106.502" enable-background="new 0 0 106.503 106.502"
	 xml:space="preserve">
<path fill="#336666" stroke="#000000" stroke-width="2" d="M21.002,2.985l13.859,13.646L16.418,35.074L2.985,21.215L21.002,2.985z"
	/>
<path fill="#4C7F7F" d="M20.469,4.797L33.155,17.59L17.377,33.475L4.584,20.682L20.469,4.797z"/>
<path fill="#669999" d="M18.87,6.397L31.45,19.19L18.977,31.876L6.183,18.977L18.87,6.397z"/>
<path fill="#7FB2B2" d="M16.631,8.529l12.793,12.687l-8.636,8.636L7.996,17.271L16.631,8.529z"/>
<path fill="#B2E5E5" d="M13.433,11.62l13.006,12.687l-2.345,2.346L11.407,13.646L13.433,11.62z"/>
<path fill="none" stroke="#000000" stroke-width="2" d="M10.768,13.22l13.859,13.646"/>
<path fill="#336666" stroke="#000000" stroke-width="2" d="M30.49,48.827L16.418,35.074l18.443-18.443l13.752,14.072L30.49,48.827z"
	/>
<path fill="#4C7F7F" d="M30.917,47.121L18.017,34.328L34.115,18.23l12.9,12.9L30.917,47.121z"/>
<path fill="#669999" d="M32.729,45.522L19.616,32.729l12.899-12.899l12.9,12.899L32.729,45.522z"/>
<path fill="#7FB2B2" d="M34.542,43.39L21.855,30.703l8.635-8.636l12.687,13.007L34.542,43.39z"/>
<path fill="#B2E5E5" d="M37.953,40.085l-12.899-12.58l2.025-2.238l12.9,12.899L37.953,40.085z"/>
<path fill="none" stroke="#000000" stroke-width="2" d="M43.923,35.074L30.064,21.215"/>
<path fill="#336666" stroke="#000000" stroke-width="2" d="M48.614,30.703L62.26,44.136L43.923,62.473L30.49,48.827L48.614,30.703z"
	/>
<path fill="#4C7F7F" d="M47.761,32.089l12.9,12.687L44.563,60.873L31.876,47.761L47.761,32.089z"/>
<path fill="#669999" d="M45.948,33.689l13.113,12.687l-12.9,12.899L33.475,46.161L45.948,33.689z"/>
<path fill="#7FB2B2" d="M43.923,35.714l12.687,12.899L48.4,57.249L35.501,44.35L43.923,35.714z"/>
<path fill="#B2E5E5" d="M40.938,38.912l12.687,12.899l-2.026,2.025L38.699,41.151L40.938,38.912z"/>
<path fill="none" stroke="#000000" stroke-width="2" d="M35.927,42.963L49.787,56.61"/>
<path fill="#336666" stroke="#000000" stroke-width="2" d="M62.26,44.136l13.433,13.646L57.569,75.906L43.923,62.473L62.26,44.136z"
	/>
<path fill="#4C7F7F" d="M61.62,45.736l12.687,12.899L58.635,74.52L45.522,61.833L61.62,45.736z"/>
<path fill="#669999" d="M60.021,47.334l12.688,13.113L60.233,72.92L47.121,60.234L60.021,47.334z"/>
<path fill="#7FB2B2" d="M57.782,49.786l12.899,12.687l-8.636,8.422L49.147,57.995L57.782,49.786z"/>
<path fill="#B2E5E5" d="M54.584,52.772l12.899,12.687l-2.238,2.238L52.558,54.797L54.584,52.772z"/>
<path fill="none" stroke="#000000" stroke-width="2" d="M52.025,54.37l13.858,13.753"/>
<path fill="#336666" stroke="#000000" stroke-width="2" d="M71.321,89.978L57.569,75.906l18.123-18.123l14.072,13.752L71.321,89.978
	z"/>
<path fill="#4C7F7F" d="M72.067,88.379l-12.793-12.9l15.992-16.098l12.898,12.899L72.067,88.379z"/>
<path fill="#669999" d="M73.667,86.78L60.874,73.88l12.793-12.899L86.566,73.88L73.667,86.78z"/>
<path fill="#7FB2B2" d="M75.692,84.541L63.006,71.855l8.315-8.636l13.006,12.687L75.692,84.541z"/>
<path fill="#B2E5E5" d="M78.891,81.343l-12.579-12.9l1.918-2.025l12.9,12.899L78.891,81.343z"/>
<path fill="none" stroke="#000000" stroke-width="2" d="M85.181,76.332L71.321,62.473"/>
<path fill="#336666" stroke="#000000" stroke-width="2" d="M89.765,71.534l13.646,13.859l-18.23,18.017L71.321,89.978L89.765,71.534
	z"/>
<path fill="#4C7F7F" d="M88.806,73.24l12.793,12.687l-15.885,15.885L72.921,89.019L88.806,73.24z"/>
<path fill="#669999" d="M87.206,74.947l12.793,12.579l-12.58,12.687L74.52,87.419L87.206,74.947z"/>
<path fill="#7FB2B2" d="M85.181,76.972l12.687,12.793L89.125,98.4L76.546,85.607L85.181,76.972z"/>
<path fill="#B2E5E5" d="M82.089,79.957l12.687,13.006l-2.025,2.025L79.743,82.302L82.089,79.957z"/>
<path fill="none" stroke="#000000" stroke-width="2" d="M77.078,84.115l13.859,13.753"/>
</svg>
