<?xml version="1.0" encoding="utf-8"?>
<!-- Generator: Adobe Illustrator 14.0.0, SVG Export Plug-In . SVG Version: 6.00 Build 43363)  -->
<!DOCTYPE svg PUBLIC "-//W3C//DTD SVG 1.1//EN" "http://www.w3.org/Graphics/SVG/1.1/DTD/svg11.dtd">
<svg version="1.1" id="图层_1" xmlns="http://www.w3.org/2000/svg" xmlns:xlink="http://www.w3.org/1999/xlink" x="0px" y="0px"
	 width="106.503px" height="106.502px" viewBox="0 0 106.503 106.502" enable-background="new 0 0 106.503 106.502"
	 xml:space="preserve">
<path fill="#336666" stroke="#000000" stroke-width="2" d="M2.985,85.181l13.646-13.646l18.23,18.23L21.002,103.41L2.985,85.181z"/>
<path fill="#4C7F7F" d="M4.584,85.714L17.377,72.92l16.098,16.099l-12.793,12.793L4.584,85.714z"/>
<path fill="#669999" d="M6.183,87.313l12.9-12.793l12.793,12.793L18.87,100.212L6.183,87.313z"/>
<path fill="#7FB2B2" d="M8.422,89.765l12.58-13.113l8.742,8.742l-12.9,12.58L8.422,89.765z"/>
<path fill="#B2E5E5" d="M11.621,92.75l12.686-12.793l2.346,2.345l-12.9,12.687L11.621,92.75z"/>
<path fill="none" stroke="#000000" stroke-width="2" d="M13.22,95.628l13.646-13.859"/>
<path fill="#336666" stroke="#000000" stroke-width="2" d="M48.614,75.906L34.861,89.765l-18.23-18.23L30.49,57.569L48.614,75.906z"
	/>
<path fill="#4C7F7F" d="M47.015,75.266l-12.9,12.899L18.23,72.281l12.9-13.006L47.015,75.266z"/>
<path fill="#669999" d="M45.416,73.667l-12.9,12.899L19.829,73.88l12.9-12.899L45.416,73.667z"/>
<path fill="#7FB2B2" d="M43.39,71.534L30.704,84.541l-8.636-8.636l12.793-12.687L43.39,71.534z"/>
<path fill="#B2E5E5" d="M40.085,68.443l-12.58,12.9l-2.452-2.452l13.113-12.58L40.085,68.443z"/>
<path fill="none" stroke="#000000" stroke-width="2" d="M35.074,62.26L21.002,76.332"/>
<path fill="#336666" stroke="#000000" stroke-width="2" d="M30.49,57.569l13.646-13.433L62.26,62.26L48.614,75.906L30.49,57.569z"/>
<path fill="#4C7F7F" d="M31.876,58.635l12.687-12.899L60.661,61.62l-12.9,12.687L31.876,58.635z"/>
<path fill="#669999" d="M33.475,60.234l12.9-12.899l12.687,12.687l-12.9,12.687L33.475,60.234z"/>
<path fill="#7FB2B2" d="M35.714,62.26l12.9-12.9l8.635,8.636L44.136,70.895L35.714,62.26z"/>
<path fill="#B2E5E5" d="M38.699,65.458l12.899-12.9l2.238,2.239L41.151,67.697L38.699,65.458z"/>
<path fill="none" stroke="#000000" stroke-width="2" d="M42.963,70.042l13.432-13.646"/>
<path fill="#336666" stroke="#000000" stroke-width="2" d="M44.136,44.136L57.569,30.49l18.336,18.123L62.26,62.26L44.136,44.136z"
	/>
<path fill="#4C7F7F" d="M45.735,44.563l12.899-12.687l15.672,15.885L61.62,60.66L45.735,44.563z"/>
<path fill="#669999" d="M47.334,46.375l12.899-12.9l12.475,12.687l-12.688,12.9L47.334,46.375z"/>
<path fill="#7FB2B2" d="M49.36,48.614l12.9-12.899l8.636,8.422l-12.9,13.113L49.36,48.614z"/>
<path fill="#B2E5E5" d="M52.558,51.599l12.9-12.899l2.238,2.451L54.797,53.837L52.558,51.599z"/>
<path fill="none" stroke="#000000" stroke-width="2" d="M54.37,54.37l13.753-13.433"/>
<path fill="#336666" stroke="#000000" stroke-width="2" d="M89.765,34.862L75.905,48.614L57.569,30.49l13.965-13.859L89.765,34.862z
	"/>
<path fill="#4C7F7F" d="M88.165,34.115l-12.898,12.9L59.274,31.13l13.006-12.9L88.165,34.115z"/>
<path fill="#669999" d="M86.566,32.516L73.667,45.415L60.98,32.729L73.88,19.829L86.566,32.516z"/>
<path fill="#7FB2B2" d="M84.541,30.703L71.534,43.39l-8.314-8.528l12.686-12.794L84.541,30.703z"/>
<path fill="#B2E5E5" d="M81.343,27.505l-12.9,12.58l-2.131-1.919l12.579-13.113L81.343,27.505z"/>
<path fill="none" stroke="#000000" stroke-width="2" d="M76.332,21.002L62.26,35.074"/>
<path fill="#336666" stroke="#000000" stroke-width="2" d="M71.534,16.631L85.181,2.985l18.23,18.018L89.765,34.862L71.534,16.631z"
	/>
<path fill="#4C7F7F" d="M72.921,17.377L85.714,4.584l16.098,16.098L89.019,33.475L72.921,17.377z"/>
<path fill="#669999" d="M74.52,19.083L87.313,6.184l12.898,12.686L87.313,31.876L74.52,19.083z"/>
<path fill="#7FB2B2" d="M76.651,21.002l13.113-12.58l8.209,8.422l-12.58,12.9L76.651,21.002z"/>
<path fill="#B2E5E5" d="M79.956,24.307L92.75,11.62l2.239,2.132l-12.688,12.9L79.956,24.307z"/>
<path fill="none" stroke="#000000" stroke-width="2" d="M83.901,29.105l13.752-13.646"/>
</svg>
