<?xml version="1.0" encoding="utf-8"?>
<!-- Generator: Adobe Illustrator 14.0.0, SVG Export Plug-In . SVG Version: 6.00 Build 43363)  -->
<!DOCTYPE svg PUBLIC "-//W3C//DTD SVG 1.1//EN" "http://www.w3.org/Graphics/SVG/1.1/DTD/svg11.dtd">
<svg version="1.1" id="图层_1" xmlns="http://www.w3.org/2000/svg" xmlns:xlink="http://www.w3.org/1999/xlink" x="0px" y="0px"
	 width="144.749px" height="38.398px" viewBox="0 0 144.749 38.398" enable-background="new 0 0 144.749 38.398"
	 xml:space="preserve">
<path fill="#336666" stroke="#000000" stroke-width="2" d="M4.057,4.058H26.66V34.34H4.057V4.058z"/>
<path fill="#4C7F7F" d="M4.781,5.941h21.3v26.516h-21.3V5.941z"/>
<path fill="#669999" d="M4.781,8.694h21.3v21.01h-21.3V8.694z"/>
<path fill="#7FB2B2" d="M4.781,12.171h21.3v14.199h-21.3V12.171z"/>
<path fill="#B2E5E5" d="M4.781,17.388h21.3v3.622h-21.3V17.388z"/>
<path fill="none" stroke="#000000" stroke-width="2" d="M4.057,21.009H26.66"/>
<path fill="#336666" stroke="#000000" stroke-width="2" d="M49.698,34.34H26.66V4.058h23.038V34.34z"/>
<path fill="#4C7F7F" d="M48.829,32.457h-21.3V5.941h21.3V32.457z"/>
<path fill="#669999" d="M48.829,29.704h-21.3V8.694h21.3V29.704z"/>
<path fill="#7FB2B2" d="M48.829,26.371h-21.3V12.171h21.3V26.371z"/>
<path fill="#B2E5E5" d="M48.829,21.009h-21.3v-3.622h21.3V21.009z"/>
<path fill="none" stroke="#000000" stroke-width="2" d="M49.698,11.592H26.66"/>
<path fill="#336666" stroke="#000000" stroke-width="2" d="M49.698,4.058h22.604V34.34H49.698V4.058z"/>
<path fill="#4C7F7F" d="M50.133,5.941h21.3v26.516h-21.3V5.941z"/>
<path fill="#669999" d="M50.133,8.694h21.3v21.01h-21.3V8.694z"/>
<path fill="#7FB2B2" d="M50.133,12.171h21.3v14.199h-21.3V12.171z"/>
<path fill="#B2E5E5" d="M50.133,17.388h21.3v3.622h-21.3V17.388z"/>
<path fill="none" stroke="#000000" stroke-width="2" d="M49.698,24.777h22.604"/>
<path fill="#336666" stroke="#000000" stroke-width="2" d="M72.302,4.058h22.604V34.34H72.302V4.058z"/>
<path fill="#4C7F7F" d="M73.171,5.941h21.3v26.516h-21.3V5.941z"/>
<path fill="#669999" d="M73.171,8.694h21.3v21.01h-21.3V8.694z"/>
<path fill="#7FB2B2" d="M73.171,12.171h21.3v14.199h-21.3V12.171z"/>
<path fill="#B2E5E5" d="M73.171,17.388h21.3v3.622h-21.3V17.388z"/>
<path fill="none" stroke="#000000" stroke-width="2" d="M72.302,21.009h22.604"/>
<path fill="#336666" stroke="#000000" stroke-width="2" d="M117.944,34.34H94.906V4.058h23.038V34.34z"/>
<path fill="#4C7F7F" d="M117.074,32.457h-21.3V5.941h21.3V32.457z"/>
<path fill="#669999" d="M117.074,29.704h-21.3V8.694h21.3V29.704z"/>
<path fill="#7FB2B2" d="M117.074,26.371h-21.3V12.171h21.3V26.371z"/>
<path fill="#B2E5E5" d="M117.074,21.009h-21.3v-3.622h21.3V21.009z"/>
<path fill="none" stroke="#000000" stroke-width="2" d="M117.944,11.592H94.906"/>
<path fill="#336666" stroke="#000000" stroke-width="2" d="M117.944,4.058h22.604V34.34h-22.604V4.058z"/>
<path fill="#4C7F7F" d="M118.523,5.941h21.3v26.516h-21.3V5.941z"/>
<path fill="#669999" d="M118.523,8.694h21.3v21.01h-21.3V8.694z"/>
<path fill="#7FB2B2" d="M118.523,12.171h21.3v14.199h-21.3V12.171z"/>
<path fill="#B2E5E5" d="M118.523,17.388h21.3v3.622h-21.3V17.388z"/>
<path fill="none" stroke="#000000" stroke-width="2" d="M117.944,24.777h22.604"/>
</svg>
