<?xml version="1.0" encoding="utf-8"?>
<!-- Generator: Adobe Illustrator 14.0.0, SVG Export Plug-In . SVG Version: 6.00 Build 43363)  -->
<!DOCTYPE svg PUBLIC "-//W3C//DTD SVG 1.1//EN" "http://www.w3.org/Graphics/SVG/1.1/DTD/svg11.dtd">
<svg version="1.1" id="图层_1" xmlns="http://www.w3.org/2000/svg" xmlns:xlink="http://www.w3.org/1999/xlink" x="0px" y="0px"
	 width="106.503px" height="106.502px" viewBox="0 0 106.503 106.502" enable-background="new 0 0 106.503 106.502"
	 xml:space="preserve">
<path fill="#336666" stroke="#000000" stroke-width="2" d="M58.907,69.899v33.615h44.607V69.899H58.907z"/>
<path fill="#4C7F7F" d="M61.682,70.966v31.588h39.058V70.966H61.682z"/>
<path fill="#669999" d="M65.737,70.966v31.588h30.734V70.966H65.737z"/>
<path fill="#7FB2B2" d="M70.753,70.966v31.588h20.916V70.966H70.753z"/>
<path fill="#B2E5E5" d="M78.437,70.966v31.588h5.549V70.966H78.437z"/>
<path fill="#336666" stroke="#000000" stroke-width="2" d="M36.604,2.989v44.606l10.992,2.882l8.431,8.431l2.881,10.991h44.607
	l-8.431-33.295L69.899,11.418L36.604,2.989z"/>
<path fill="none" stroke="#000000" stroke-width="2" d="M47.595,50.477l22.304-39.059"/>
<path fill="none" stroke="#000000" stroke-width="2" d="M56.026,58.907l39.058-22.304"/>
<path fill="#4C7F7F" d="M37.777,44.821l9.284,2.348l19.316-33.722L37.991,5.763L37.777,44.821z"/>
<path fill="#669999" d="M37.991,40.979l10.885,2.988L64.35,17.074L37.991,9.818V40.979z"/>
<path fill="#7FB2B2" d="M37.991,36.177l13.446,3.628l10.458-18.782l-24.118-6.189L37.991,36.177z"/>
<path fill="#B2E5E5" d="M37.777,28.067l17.501,4.695l2.775-4.909l-20.063-5.336L37.777,28.067z"/>
<path fill="#4C7F7F" d="M50.583,49.409l6.937,6.616L90.815,36.39L70.112,15.367L50.583,49.409z"/>
<path fill="#669999" d="M52.611,45.994l8.111,8.11l26.785-15.794L68.191,18.995L52.611,45.994z"/>
<path fill="#7FB2B2" d="M55.065,41.832l9.818,9.818l18.568-10.885L65.737,23.264L55.065,41.832z"/>
<path fill="#B2E5E5" d="M59.12,34.896l12.699,12.699l4.803-2.774L61.896,30.094L59.12,34.896z"/>
<path fill="#4C7F7F" d="M58.907,59.441l2.348,9.071l39.059-0.214l-7.578-28.279L58.907,59.441z"/>
<path fill="#669999" d="M62.322,57.52l2.774,10.992l31.268-0.214L89.108,41.94L62.322,57.52z"/>
<path fill="#7FB2B2" d="M66.483,55.066l3.629,13.446l21.344-0.214l-6.617-23.904L66.483,55.066z"/>
<path fill="#B2E5E5" d="M73.421,51.01l4.588,17.502l5.656-0.214l-5.442-20.063L73.421,51.01z"/>
<path fill="#336666" stroke="#000000" stroke-width="2" d="M2.988,47.595h33.615V2.989H2.988V47.595z"/>
<path fill="#4C7F7F" d="M3.948,44.821h31.588V5.763H3.948V44.821z"/>
<path fill="#669999" d="M3.948,40.766h31.588V10.031H3.948V40.766z"/>
<path fill="#7FB2B2" d="M3.948,35.75h31.588V14.833H3.948V35.75z"/>
<path fill="#B2E5E5" d="M3.948,28.067h31.588v-5.55H3.948V28.067z"/>
</svg>
