<?xml version="1.0" encoding="utf-8"?>
<!-- Generator: Adobe Illustrator 14.0.0, SVG Export Plug-In . SVG Version: 6.00 Build 43363)  -->
<!DOCTYPE svg PUBLIC "-//W3C//DTD SVG 1.1//EN" "http://www.w3.org/Graphics/SVG/1.1/DTD/svg11.dtd">
<svg version="1.1" id="图层_1" xmlns="http://www.w3.org/2000/svg" xmlns:xlink="http://www.w3.org/1999/xlink" x="0px" y="0px"
	 width="106.503px" height="106.502px" viewBox="0 0 106.503 106.502" enable-background="new 0 0 106.503 106.502"
	 xml:space="preserve">
<path fill="#336666" stroke="#000000" stroke-width="2" d="M36.567,58.848H2.985v44.563h33.582V58.848z"/>
<path fill="#4C7F7F" d="M35.501,61.62H3.944v39.019h31.557V61.62z"/>
<path fill="#669999" d="M35.501,65.671H3.944v30.703h31.557V65.671z"/>
<path fill="#7FB2B2" d="M35.501,70.682H3.944v20.896h31.557V70.682z"/>
<path fill="#B2E5E5" d="M35.501,78.358H3.944v5.544h31.557V78.358z"/>
<path fill="#336666" stroke="#000000" stroke-width="2" d="M103.411,36.567H58.849L55.97,47.548l-8.422,8.422l-10.981,2.878v44.563
	l33.262-8.422l25.16-25.159L103.411,36.567z"/>
<path fill="none" stroke="#000000" stroke-width="2" d="M55.97,47.548l39.02,22.281"/>
<path fill="none" stroke="#000000" stroke-width="2" d="M47.548,55.97l22.281,39.019"/>
<path fill="#4C7F7F" d="M61.62,37.74l-2.346,9.275l33.688,19.189l7.676-28.252L61.62,37.74z"/>
<path fill="#669999" d="M65.458,37.952l-2.985,10.875l26.866,15.458l7.249-26.333H65.458z"/>
<path fill="#7FB2B2" d="M70.255,37.952l-3.624,13.434l18.763,10.447l6.184-24.094L70.255,37.952z"/>
<path fill="#B2E5E5" d="M78.357,37.74l-4.69,17.484l4.904,2.771l5.33-20.043L78.357,37.74z"/>
<path fill="#4C7F7F" d="M57.036,50.639l-6.61,6.823l19.616,33.369l20.896-20.789L57.036,50.639z"/>
<path fill="#669999" d="M60.447,52.558l-8.102,8.103l15.671,26.652l19.297-19.296L60.447,52.558z"/>
<path fill="#7FB2B2" d="M64.604,55.01l-9.808,9.809l10.874,18.55l17.484-17.697L64.604,55.01z"/>
<path fill="#B2E5E5" d="M71.429,59.062l-12.58,12.579l2.771,4.904l14.712-14.712L71.429,59.062z"/>
<path fill="#4C7F7F" d="M47.015,58.848l-9.062,2.346l0.213,39.019l28.251-7.676L47.015,58.848z"/>
<path fill="#669999" d="M48.934,62.26l-10.981,2.771l0.213,31.13l26.333-7.143L48.934,62.26z"/>
<path fill="#7FB2B2" d="M51.386,66.417l-13.433,3.625l0.213,21.321l23.88-6.609L51.386,66.417z"/>
<path fill="#B2E5E5" d="M55.437,73.24l-17.484,4.69l0.213,5.65l20.042-5.437L55.437,73.24z"/>
<path fill="#336666" stroke="#000000" stroke-width="2" d="M58.849,2.985v33.582h44.563V2.985H58.849z"/>
<path fill="#4C7F7F" d="M61.62,3.945v31.557h39.019V3.945H61.62z"/>
<path fill="#669999" d="M65.671,3.945v31.557h30.703V3.945H65.671z"/>
<path fill="#7FB2B2" d="M70.682,3.945v31.557h20.896V3.945H70.682z"/>
<path fill="#B2E5E5" d="M78.357,3.945v31.557h5.544V3.945H78.357z"/>
</svg>
