<?xml version="1.0" encoding="utf-8"?>
<!-- Generator: Adobe Illustrator 14.0.0, SVG Export Plug-In . SVG Version: 6.00 Build 43363)  -->
<!DOCTYPE svg PUBLIC "-//W3C//DTD SVG 1.1//EN" "http://www.w3.org/Graphics/SVG/1.1/DTD/svg11.dtd">
<svg version="1.1" id="图层_1" xmlns="http://www.w3.org/2000/svg" xmlns:xlink="http://www.w3.org/1999/xlink" x="0px" y="0px"
	 width="106.503px" height="106.502px" viewBox="0 0 106.503 106.502" enable-background="new 0 0 106.503 106.502"
	 xml:space="preserve">
<path fill="#336666" stroke="#000000" stroke-width="2" d="M47.548,69.829v33.581H2.985V69.829H47.548z"/>
<path fill="#4C7F7F" d="M44.776,70.895v31.557H5.757V70.895H44.776z"/>
<path fill="#669999" d="M40.725,70.895v31.557H10.021V70.895H40.725z"/>
<path fill="#7FB2B2" d="M35.714,70.895v31.557H14.819V70.895H35.714z"/>
<path fill="#B2E5E5" d="M28.038,70.895v31.557h-5.65V70.895H28.038z"/>
<path fill="#336666" stroke="#000000" stroke-width="2" d="M69.829,2.985v44.563l-10.98,2.878l-8.422,8.422l-2.878,10.981H2.985
	l8.422-33.263l25.16-25.159L69.829,2.985z"/>
<path fill="none" stroke="#000000" stroke-width="2" d="M58.849,50.426L36.567,11.407"/>
<path fill="none" stroke="#000000" stroke-width="2" d="M50.426,58.848L11.407,36.567"/>
<path fill="#4C7F7F" d="M68.656,44.776l-9.274,2.346L40.085,13.433l28.357-7.676L68.656,44.776z"/>
<path fill="#669999" d="M68.442,40.938l-10.768,2.985L42.11,17.058l26.332-7.25V40.938z"/>
<path fill="#7FB2B2" d="M68.442,36.141l-13.432,3.624L44.563,21.002l24.094-6.184L68.442,36.141z"/>
<path fill="#B2E5E5" d="M68.656,28.038l-17.484,4.69L48.4,27.825l20.042-5.438L68.656,28.038z"/>
<path fill="#4C7F7F" d="M55.757,49.36l-6.823,6.61L15.565,36.354l20.789-20.896L55.757,49.36z"/>
<path fill="#669999" d="M53.837,45.948l-8.102,8.103L19.083,38.273l19.189-19.189L53.837,45.948z"/>
<path fill="#7FB2B2" d="M51.386,41.79l-9.808,9.809l-18.55-10.874L40.725,23.24L51.386,41.79z"/>
<path fill="#B2E5E5" d="M47.334,34.862L34.648,47.548l-4.797-2.772l14.712-14.712L47.334,34.862z"/>
<path fill="#4C7F7F" d="M47.548,59.381l-2.346,9.062L6.183,68.23l7.569-28.358L47.548,59.381z"/>
<path fill="#669999" d="M44.136,57.462l-2.772,10.98l-31.13-0.213l7.143-26.332L44.136,57.462z"/>
<path fill="#7FB2B2" d="M39.872,55.01l-3.518,13.433L15.032,68.23l6.61-23.88L39.872,55.01z"/>
<path fill="#B2E5E5" d="M33.049,50.959l-4.584,17.483l-5.65-0.213l5.437-20.042L33.049,50.959z"/>
<path fill="#336666" stroke="#000000" stroke-width="2" d="M103.411,47.548H69.829V2.985h33.582V47.548z"/>
<path fill="#4C7F7F" d="M102.451,44.776H70.896V5.757h31.556V44.776z"/>
<path fill="#669999" d="M102.451,40.725H70.896V10.022h31.556V40.725z"/>
<path fill="#7FB2B2" d="M102.451,35.714H70.896V14.819h31.556V35.714z"/>
<path fill="#B2E5E5" d="M102.451,28.038H70.896v-5.65h31.556V28.038z"/>
</svg>
