<?xml version="1.0" encoding="utf-8"?>
<!-- Generator: Adobe Illustrator 14.0.0, SVG Export Plug-In . SVG Version: 6.00 Build 43363)  -->
<!DOCTYPE svg PUBLIC "-//W3C//DTD SVG 1.1//EN" "http://www.w3.org/Graphics/SVG/1.1/DTD/svg11.dtd">
<svg version="1.1" id="图层_1" xmlns="http://www.w3.org/2000/svg" xmlns:xlink="http://www.w3.org/1999/xlink" x="0px" y="0px"
	 width="106.503px" height="106.502px" viewBox="0 0 106.503 106.502" enable-background="new 0 0 106.503 106.502"
	 xml:space="preserve">
<path fill="#336666" stroke="#000000" stroke-width="2" d="M69.829,58.848h33.582v44.563H69.829V58.848z"/>
<path fill="#4C7F7F" d="M70.896,61.62h31.556v39.019H70.896V61.62z"/>
<path fill="#669999" d="M70.896,65.671h31.556v30.703H70.896V65.671z"/>
<path fill="#7FB2B2" d="M70.896,70.682h31.556v20.896H70.896V70.682z"/>
<path fill="#B2E5E5" d="M70.896,78.358h31.556v5.544H70.896V78.358z"/>
<path fill="#336666" stroke="#000000" stroke-width="2" d="M2.985,36.567h44.563l2.878,10.981l8.422,8.422l10.98,2.878v44.563
	l-33.262-8.422l-25.16-25.159L2.985,36.567z"/>
<path fill="none" stroke="#000000" stroke-width="2" d="M50.426,47.548L11.407,69.829"/>
<path fill="none" stroke="#000000" stroke-width="2" d="M58.849,55.97L36.567,94.989"/>
<path fill="#4C7F7F" d="M44.776,37.74l2.345,9.275L13.433,66.204L5.757,37.952L44.776,37.74z"/>
<path fill="#669999" d="M40.938,37.952l2.985,10.875L17.058,64.285l-7.25-26.333H40.938z"/>
<path fill="#7FB2B2" d="M36.141,37.952l3.625,13.434L21.002,61.833L14.819,37.74L36.141,37.952z"/>
<path fill="#B2E5E5" d="M28.038,37.74l4.691,17.484l-4.904,2.771l-5.331-20.043L28.038,37.74z"/>
<path fill="#4C7F7F" d="M49.36,50.532l6.61,6.93L36.354,90.724L15.458,70.042L49.36,50.532z"/>
<path fill="#669999" d="M45.948,52.558l8.103,8.103L38.379,87.313L19.083,68.017L45.948,52.558z"/>
<path fill="#7FB2B2" d="M41.684,55.01l9.915,9.809l-10.874,18.55L23.241,65.671L41.684,55.01z"/>
<path fill="#B2E5E5" d="M34.861,59.062l12.687,12.579l-2.772,4.904L30.064,61.833L34.861,59.062z"/>
<path fill="#4C7F7F" d="M59.382,58.848l9.061,2.346l-0.213,39.019l-28.251-7.676L59.382,58.848z"/>
<path fill="#669999" d="M57.462,62.26l10.98,2.771l-0.213,31.13l-26.332-7.143L57.462,62.26z"/>
<path fill="#7FB2B2" d="M55.011,66.417l13.432,3.625l-0.213,21.321l-23.88-6.609L55.011,66.417z"/>
<path fill="#B2E5E5" d="M50.959,73.347l17.483,4.584l-0.213,5.65l-20.042-5.437L50.959,73.347z"/>
<path fill="#336666" stroke="#000000" stroke-width="2" d="M47.548,2.985v33.582H2.985V2.985H47.548z"/>
<path fill="#4C7F7F" d="M44.776,3.945v31.557H5.757V3.945H44.776z"/>
<path fill="#669999" d="M40.725,3.945v31.557H10.021V3.945H40.725z"/>
<path fill="#7FB2B2" d="M35.714,3.945v31.557H14.819V3.945H35.714z"/>
<path fill="#B2E5E5" d="M28.038,3.945v31.557h-5.543V3.945H28.038z"/>
</svg>
