<?xml version="1.0" encoding="utf-8"?>
<!-- Generator: Adobe Illustrator 14.0.0, SVG Export Plug-In . SVG Version: 6.00 Build 43363)  -->
<!DOCTYPE svg PUBLIC "-//W3C//DTD SVG 1.1//EN" "http://www.w3.org/Graphics/SVG/1.1/DTD/svg11.dtd">
<svg version="1.1" id="图层_1" xmlns="http://www.w3.org/2000/svg" xmlns:xlink="http://www.w3.org/1999/xlink" x="0px" y="0px"
	 width="83.901px" height="106.502px" viewBox="0 0 83.901 106.502" enable-background="new 0 0 83.901 106.502"
	 xml:space="preserve">
<path fill="#336666" stroke="#000000" stroke-width="2" d="M36.354,103.41V69.829h44.563v33.581H36.354z"/>
<path fill="#4C7F7F" d="M39.125,102.451V70.895h39.232v31.557H39.125z"/>
<path fill="#669999" d="M43.39,102.451V70.895h30.703v31.557H43.39z"/>
<path fill="#7FB2B2" d="M48.188,102.451V70.895h20.896v31.557H48.188z"/>
<path fill="#B2E5E5" d="M55.97,102.451V70.895h5.437v31.557H55.97z"/>
<path fill="none" stroke="#000000" stroke-width="2" d="M61.406,103.41V69.829"/>
<path fill="#336666" stroke="#000000" stroke-width="2" d="M80.916,36.567v33.263H36.354V36.567H80.916z"/>
<path fill="#4C7F7F" d="M78.358,37.527v31.343H39.125V37.527H78.358z"/>
<path fill="#669999" d="M74.093,37.527v31.343H43.39V37.527H74.093z"/>
<path fill="#7FB2B2" d="M69.083,37.527v31.343H48.188V37.527H69.083z"/>
<path fill="#B2E5E5" d="M61.406,37.527v31.343H55.97V37.527H61.406z"/>
<path fill="none" stroke="#000000" stroke-width="2" d="M47.548,36.567v33.263"/>
<path fill="#336666" stroke="#000000" stroke-width="2" d="M36.354,36.567V2.985h44.563v33.582H36.354z"/>
<path fill="#4C7F7F" d="M39.125,35.287V3.945h39.232v31.343H39.125z"/>
<path fill="#669999" d="M43.39,35.287V3.945h30.703v31.343H43.39z"/>
<path fill="#7FB2B2" d="M48.188,35.287V3.945h20.896v31.343H48.188z"/>
<path fill="#B2E5E5" d="M55.97,35.287V3.945h5.437v31.343H55.97z"/>
<path fill="none" stroke="#000000" stroke-width="2" d="M67.057,36.567V2.985"/>
<path fill="#336666" d="M36.354,30.916l2.771,0.64l2.559,2.026l1.813,2.451l1.493,2.985l0.959,2.665l0.746,2.879l0.533,3.092
	l0.32,3.305v1.066v1.172v1.173l-0.214,3.305l-0.426,3.198l-0.747,2.985l-0.853,2.665l-1.386,3.198l-1.813,2.559l-2.452,2.239
	l-2.771,0.959h-0.533H2.986V30.916H36.354z"/>
<path fill="#4C7F7F" d="M36.354,33.689l2.771,0.64l2.559,1.705l1.813,2.133l1.493,2.559l1.172,3.198l0.854,3.411l0.427,2.879
	l0.106,2.025v0.959v0.96l-0.214,2.985l-0.426,2.771l-0.96,3.411l-1.279,2.985l-1.599,2.559l-2.346,2.346l-2.665,1.279l-1.173,0.213
	h-0.533H4.157V33.689H36.354z"/>
<path fill="#669999" d="M36.354,37.952l2.771,0.427l2.559,1.386l2.239,2.133l1.706,2.771l1.065,2.559l0.64,2.879l0.214,2.345v0.746
	v0.747l-0.32,3.091l-0.746,2.772l-1.173,2.559l-1.813,2.665l-2.345,1.919l-2.559,1.173l-1.706,0.319h-0.533H4.157v-30.49H36.354z"/>
<path fill="#7FB2B2" d="M36.354,42.75l3.305,0.427l2.985,1.386l2.346,1.919l1.705,2.665l0.854,2.985v1.065l-0.533,3.092
	l-1.386,2.772L43.496,61.3l-2.771,1.493l-3.305,0.746l-1.066,0.106H4.157V42.75H36.354z"/>
<path fill="#B2E5E5" d="M36.354,50.426l3.305,0.106l2.985,0.32l2.985,0.746l1.919,1.599L44.99,55.01l-3.306,0.64l-3.091,0.32h-2.239
	H4.157v-5.544H36.354z"/>
<path fill="none" stroke="#000000" stroke-width="2" d="M36.354,30.916l2.771,0.64l2.559,2.026l1.813,2.451l1.493,2.985l0.959,2.665
	l0.746,2.879l0.533,3.092l0.32,3.305v1.066v1.172v1.173l-0.214,3.305l-0.426,3.198l-0.747,2.985l-0.853,2.665l-1.386,3.198
	l-1.813,2.559l-2.452,2.239l-2.771,0.959h-0.533H2.986V30.916H36.354"/>
<path fill="none" stroke="#000000" stroke-width="2" d="M46.161,63.646H2.986"/>
</svg>
