<?xml version="1.0" encoding="utf-8"?>
<!-- Generator: Adobe Illustrator 14.0.0, SVG Export Plug-In . SVG Version: 6.00 Build 43363)  -->
<!DOCTYPE svg PUBLIC "-//W3C//DTD SVG 1.1//EN" "http://www.w3.org/Graphics/SVG/1.1/DTD/svg11.dtd">
<svg version="1.1" id="图层_1" xmlns="http://www.w3.org/2000/svg" xmlns:xlink="http://www.w3.org/1999/xlink" x="0px" y="0px"
	 width="83.901px" height="106.502px" viewBox="0 0 83.901 106.502" enable-background="new 0 0 83.901 106.502"
	 xml:space="preserve">
<path fill="#336666" stroke="#000000" stroke-width="2" d="M47.548,2.985v33.582H2.986V2.985H47.548z"/>
<path fill="#4C7F7F" d="M44.776,3.945v31.343H5.544V3.945H44.776z"/>
<path fill="#669999" d="M40.512,3.945v31.343H9.808V3.945H40.512z"/>
<path fill="#7FB2B2" d="M35.714,3.945v31.343H14.819V3.945H35.714z"/>
<path fill="#B2E5E5" d="M27.825,3.945v31.343h-5.438V3.945H27.825z"/>
<path fill="none" stroke="#000000" stroke-width="2" d="M22.388,2.985v33.582"/>
<path fill="#336666" stroke="#000000" stroke-width="2" d="M2.986,69.829V36.567h44.563v33.263H2.986z"/>
<path fill="#4C7F7F" d="M5.544,68.869V37.527h39.231v31.343H5.544z"/>
<path fill="#669999" d="M9.808,68.869V37.527h30.704v31.343H9.808z"/>
<path fill="#7FB2B2" d="M14.819,68.869V37.527h20.896v31.343H14.819z"/>
<path fill="#B2E5E5" d="M22.388,68.869V37.527h5.438v31.343H22.388z"/>
<path fill="none" stroke="#000000" stroke-width="2" d="M36.354,69.829V36.567"/>
<path fill="#336666" stroke="#000000" stroke-width="2" d="M47.548,69.829v33.581H2.986V69.829H47.548z"/>
<path fill="#4C7F7F" d="M44.776,70.895v31.557H5.544V70.895H44.776z"/>
<path fill="#669999" d="M40.512,70.895v31.557H9.808V70.895H40.512z"/>
<path fill="#7FB2B2" d="M35.714,70.895v31.557H14.819V70.895H35.714z"/>
<path fill="#B2E5E5" d="M27.825,70.895v31.557h-5.438V70.895H27.825z"/>
<path fill="none" stroke="#000000" stroke-width="2" d="M16.844,69.829v33.581"/>
<path fill="#336666" d="M47.548,75.479l-2.772-0.64l-2.559-2.025l-1.813-2.452l-1.492-2.984l-0.959-2.665l-0.747-2.879l-0.532-3.092
	l-0.32-3.305V54.37v-1.173v-1.172l0.213-3.306l0.427-3.198l0.64-2.984l0.96-2.666l1.386-3.198l1.705-2.559l2.559-2.238l2.772-0.96
	h0.533h33.368v44.563H47.548z"/>
<path fill="#4C7F7F" d="M47.548,72.707l-2.772-0.64l-2.559-1.706l-1.813-2.132l-1.492-2.559l-1.279-3.092l-0.853-3.518l-0.32-2.879
	l-0.106-2.025v-0.96v-0.959l0.213-2.985l0.427-2.771l0.96-3.411l1.279-2.985l1.599-2.559l2.346-2.346l2.665-1.279l1.173-0.213h0.533
	h32.195v39.019H47.548z"/>
<path fill="#669999" d="M47.548,68.443l-2.772-0.426l-2.559-1.386l-2.238-2.133l-1.706-2.771l-1.066-2.559l-0.64-2.879l-0.213-2.345
	v-0.747v-0.746l0.32-3.092l0.746-2.771l1.173-2.559l1.812-2.559l2.239-2.025l2.665-1.173l1.706-0.32h0.533h32.195v30.49H47.548z"/>
<path fill="#7FB2B2" d="M47.548,63.646l-3.306-0.427l-2.984-1.386l-2.346-2.025l-1.706-2.559l-0.853-2.985v-1.066l0.427-3.091
	l1.492-2.772l2.132-2.238l2.772-1.493l3.198-0.746l1.173-0.106h32.195v20.896H47.548z"/>
<path fill="#B2E5E5" d="M47.548,55.97l-3.306-0.106l-2.984-0.32l-2.985-0.746l-1.919-1.6l2.559-1.812l3.305-0.64l3.092-0.32h2.239
	h32.195v5.544H47.548z"/>
<path fill="none" stroke="#000000" stroke-width="2" d="M47.548,75.479l-2.772-0.64l-2.559-2.025l-1.813-2.452l-1.492-2.984
	l-0.959-2.665l-0.747-2.879l-0.532-3.092l-0.32-3.305V54.37v-1.173v-1.172l0.213-3.306l0.427-3.198l0.64-2.984l0.96-2.666
	l1.386-3.198l1.705-2.559l2.559-2.238l2.772-0.96h0.533h33.368v44.563H47.548"/>
<path fill="none" stroke="#000000" stroke-width="2" d="M37.74,42.75h43.177"/>
</svg>
