<?xml version="1.0" encoding="utf-8"?>
<!-- Generator: Adobe Illustrator 14.0.0, SVG Export Plug-In . SVG Version: 6.00 Build 43363)  -->
<!DOCTYPE svg PUBLIC "-//W3C//DTD SVG 1.1//EN" "http://www.w3.org/Graphics/SVG/1.1/DTD/svg11.dtd">
<svg version="1.1" id="图层_1" xmlns="http://www.w3.org/2000/svg" xmlns:xlink="http://www.w3.org/1999/xlink" x="0px" y="0px"
	 width="118.217px" height="106.502px" viewBox="0 0 118.217 106.502" enable-background="new 0 0 118.217 106.502"
	 xml:space="preserve">
<path fill="#336666" stroke="#000000" stroke-width="2" d="M81.297,3.314v33.252H36.921V3.314H81.297z"/>
<path fill="#4C7F7F" d="M78.693,4.379v31.24H39.642V4.379H78.693z"/>
<path fill="#669999" d="M74.432,4.379v31.24h-30.53V4.379H74.432z"/>
<path fill="#7FB2B2" d="M69.581,4.379v31.24H48.754V4.379H69.581z"/>
<path fill="#B2E5E5" d="M62.008,4.379v31.24h-5.68V4.379H62.008z"/>
<path fill="none" stroke="#000000" stroke-width="2" d="M56.328,3.314v33.252"/>
<path fill="#336666" stroke="#000000" stroke-width="2" d="M36.921,69.937V36.566h44.376v33.371H36.921z"/>
<path fill="#4C7F7F" d="M39.642,68.871v-31.24h39.051v31.24H39.642z"/>
<path fill="#669999" d="M43.902,68.871v-31.24h30.53v31.24H43.902z"/>
<path fill="#7FB2B2" d="M48.754,68.871v-31.24h20.827v31.24H48.754z"/>
<path fill="#B2E5E5" d="M56.328,68.871v-31.24h5.68v31.24H56.328z"/>
<path fill="none" stroke="#000000" stroke-width="2" d="M70.173,69.937V36.566"/>
<path fill="#336666" stroke="#000000" stroke-width="2" d="M81.297,69.937v33.252H36.921V69.937H81.297z"/>
<path fill="#4C7F7F" d="M78.693,70.883v31.478H39.642V70.883H78.693z"/>
<path fill="#669999" d="M74.432,70.883v31.478h-30.53V70.883H74.432z"/>
<path fill="#7FB2B2" d="M69.581,70.883v31.478H48.754V70.883H69.581z"/>
<path fill="#B2E5E5" d="M62.008,70.883v31.478h-5.68V70.883H62.008z"/>
<path fill="none" stroke="#000000" stroke-width="2" d="M50.765,69.937v33.252"/>
<path fill="#336666" d="M81.297,75.498l-3.195-0.946l-2.485-2.249l-1.656-2.604l-1.539-3.076l-1.064-3.669l-0.592-3.076
	l-0.474-3.195l-0.118-2.248v-1.184v-1.184l0.236-3.313l0.474-3.194l0.947-3.787l1.302-3.432l1.656-2.84l2.248-2.604l2.604-1.538
	l1.184-0.237h0.474h33.488v44.376H81.297z"/>
<path fill="#4C7F7F" d="M81.297,72.658l-3.195-0.829l-2.485-2.011l-2.13-2.841l-1.302-2.84l-1.064-3.313l-0.711-3.668l-0.236-2.959
	v-0.946v-0.946l0.355-3.905l0.828-3.55l1.064-3.195l1.539-2.722l2.13-2.722l2.485-1.775l2.248-0.592h0.474h32.187v38.814H81.297z"/>
<path fill="#669999" d="M81.297,68.635l-3.195-0.71l-2.959-1.894l-2.011-2.485l-1.539-2.958l-1.064-3.55l-0.355-2.959v-0.828v-0.828
	l0.592-3.669l1.065-3.432l1.656-2.84l2.604-2.604l3.076-1.538l1.657-0.236h0.474h32.187v30.53H81.297z"/>
<path fill="#7FB2B2" d="M81.297,63.783l-3.195-0.474l-2.959-1.302l-2.366-2.13l-1.656-2.604l-0.829-2.958l-0.118-1.065l0.592-3.077
	l1.42-2.84l2.958-2.84l2.959-1.302l3.195-0.474h32.187v21.064H81.297z"/>
<path fill="#B2E5E5" d="M81.297,56.091l-3.195-0.118l-3.787-0.474l-3.194-1.183l-0.947-1.065l2.604-1.775l3.313-0.592l4.142-0.236
	l1.065-0.118h32.187v5.562H81.297z"/>
<path fill="none" stroke="#000000" stroke-width="2" d="M81.297,75.498l-3.195-0.946l-2.485-2.249l-1.656-2.604l-1.539-3.076
	l-1.064-3.669l-0.592-3.076l-0.474-3.195l-0.118-2.248v-1.184v-1.184l0.236-3.313l0.474-3.194l0.947-3.787l1.302-3.432l1.656-2.84
	l2.248-2.604l2.604-1.538l1.184-0.237h0.474h33.488v44.376H81.297"/>
<path fill="none" stroke="#000000" stroke-width="2" d="M71.711,42.719h43.074"/>
<path fill="#336666" d="M36.565,31.122l3.313,1.065l2.485,2.13l1.656,2.604l1.421,3.076l1.183,3.669l0.71,4.023l0.237,3.313
	l0.118,1.064v1.184v1.184l-0.237,3.313l-0.473,3.194l-0.947,3.905l-1.183,3.432l-1.657,2.84l-2.248,2.722l-2.722,1.421l-1.184,0.236
	h-0.474H3.313V31.122H36.565z"/>
<path fill="#4C7F7F" d="M36.565,33.844l3.313,0.828l2.485,2.012l2.012,2.841l1.42,2.84l1.065,3.313l0.591,3.668l0.237,2.959v0.946
	v0.946l-0.355,3.905l-0.71,3.55l-1.183,3.195L44.02,67.57l-2.13,2.722l-2.604,1.775l-2.248,0.592h-0.474H4.615V33.844H36.565z"/>
<path fill="#669999" d="M36.565,38.105l3.313,0.591l2.959,1.894l2.012,2.485l1.538,2.958l0.946,3.432l0.355,2.959v0.828v0.828
	l-0.474,3.787l-1.184,3.313l-1.656,2.958l-2.012,2.248l-3.077,1.775l-2.248,0.474h-0.474H4.615v-30.53H36.565z"/>
<path fill="#7FB2B2" d="M36.565,42.719l3.313,0.474l2.959,1.302l2.366,2.13l1.657,2.485l0.71,3.076l0.118,1.065l-0.474,3.077
	l-1.42,2.84l-2.958,2.84l-2.959,1.302l-3.313,0.474H4.615V42.719H36.565z"/>
<path fill="#B2E5E5" d="M36.565,50.53l3.313,0.118l3.787,0.474l3.195,1.064l0.828,1.065l-2.485,1.775l-3.313,0.71l-4.26,0.354
	h-1.065H4.615V50.53H36.565z"/>
<path fill="none" stroke="#000000" stroke-width="2" d="M36.565,31.122l3.313,1.065l2.485,2.13l1.656,2.604l1.421,3.076l1.183,3.669
	l0.71,4.023l0.237,3.313l0.118,1.064v1.184v1.184l-0.237,3.313l-0.473,3.194l-0.947,3.905l-1.183,3.432l-1.657,2.84l-2.248,2.722
	l-2.722,1.421l-1.184,0.236h-0.474H3.313V31.122H36.565"/>
<path fill="none" stroke="#000000" stroke-width="2" d="M46.387,63.783H3.313"/>
</svg>
