<?xml version="1.0" encoding="utf-8"?>
<!-- Generator: Adobe Illustrator 14.0.0, SVG Export Plug-In . SVG Version: 6.00 Build 43363)  -->
<!DOCTYPE svg PUBLIC "-//W3C//DTD SVG 1.1//EN" "http://www.w3.org/Graphics/SVG/1.1/DTD/svg11.dtd">
<svg version="1.1" id="图层_1" xmlns="http://www.w3.org/2000/svg" xmlns:xlink="http://www.w3.org/1999/xlink" x="0px" y="0px"
	 width="93.816px" height="106.502px" viewBox="0 0 93.816 106.502" enable-background="new 0 0 93.816 106.502"
	 xml:space="preserve">
<path fill="#336666" stroke="#000000" stroke-width="2" d="M45.202,103.41v-31.77H2.985v31.77H45.202z"/>
<path fill="#4C7F7F" d="M42.537,102.451V72.707H5.544v29.744H42.537z"/>
<path fill="#669999" d="M38.486,102.451V72.707H9.595v29.744H38.486z"/>
<path fill="#7FB2B2" d="M33.902,102.451V72.707H14.179v29.744H33.902z"/>
<path fill="#B2E5E5" d="M26.652,102.451V72.707h-5.224v29.744H26.652z"/>
<path fill="none" stroke="#000000" stroke-width="2" d="M21.428,103.41v-31.77"/>
<path fill="#336666" stroke="#000000" stroke-width="2" d="M2.985,39.979v31.662h42.217V39.979H2.985z"/>
<path fill="#4C7F7F" d="M5.544,40.938v29.744h36.993V40.938H5.544z"/>
<path fill="#669999" d="M9.595,40.938v29.744h28.891V40.938H9.595z"/>
<path fill="#7FB2B2" d="M14.179,40.938v29.744h19.723V40.938H14.179z"/>
<path fill="#B2E5E5" d="M21.428,40.938v29.744h5.224V40.938H21.428z"/>
<path fill="none" stroke="#000000" stroke-width="2" d="M34.754,39.979v31.662"/>
<path fill="#336666" stroke="#000000" stroke-width="2" d="M45.202,39.979V8.209H2.985v31.77H45.202z"/>
<path fill="#4C7F7F" d="M42.537,38.912V9.168H5.544v29.744H42.537z"/>
<path fill="#669999" d="M38.486,38.912V9.168H9.595v29.744H38.486z"/>
<path fill="#7FB2B2" d="M33.902,38.912V9.168H14.179v29.744H33.902z"/>
<path fill="#B2E5E5" d="M26.652,38.912V9.168h-5.224v29.744H26.652z"/>
<path fill="none" stroke="#000000" stroke-width="2" d="M16.205,39.979V8.209"/>
<path fill="#336666" stroke="#000000" stroke-width="2" d="M41.897,22.068L60.98,2.985l29.744,29.744L49.147,74.947l-2.452,1.599
	l-1.279,0.32h-0.213h-0.533l-2.666-1.173l-1.813-2.133l-1.706-3.091l-1.066-2.772l-0.959-3.198l-0.747-3.518l-0.533-3.731
	l-0.32-4.052l-0.107-2.771v-1.492v-1.066l0.107-3.411l0.213-3.306l0.427-3.091l0.533-2.985l0.747-2.771l1.066-3.412l1.173-2.878
	l1.386-2.239L41.897,22.068z"/>
<path fill="#4C7F7F" d="M42.75,24.84L62.473,5.543l25.692,26.546L47.015,73.667l-1.599,0.64h-0.213h-0.426l-2.666-1.6l-1.706-2.132
	l-1.599-2.879l-1.066-2.665l-0.959-2.985l-0.747-3.305l-0.533-3.518l-0.32-3.625l-0.107-1.386v-1.279v-0.96l0.213-3.092l0.426-2.984
	l0.533-2.772l0.959-3.518l1.066-3.198l1.279-2.772l1.599-2.771L42.75,24.84z"/>
<path fill="#669999" d="M43.923,29.531l-1.492,2.346l-1.386,2.452l-1.173,3.092l-0.959,2.771l-0.64,2.985l-0.426,3.305L37.74,48.08
	v0.854v1.065l0.213,2.985l0.427,2.879l0.853,3.518l1.066,3.092l1.172,2.559l1.493,2.452l1.919,1.599h0.32h0.107l1.066-0.64
	L85.5,28.678L65.032,8.209L43.923,29.531z"/>
<path fill="#7FB2B2" d="M44.989,35.287l-1.493,2.346l-0.959,2.559l-0.853,3.198l-0.426,2.985l-0.107,1.279v0.64v0.64l0.213,3.411
	l0.533,3.092l0.746,2.559l1.173,2.771l1.279,1.706h0.106h0.107l0,0l0.213-0.213l36.78-36.567L68.23,11.62L44.989,35.287z"/>
<path fill="#B2E5E5" d="M45.202,45.202l-0.64,2.665v0.746l0.107,2.879l0.32,1.065h0.106h0.106h0.107v-0.213l31.982-31.876
	l-3.838-3.838L45.202,45.202z"/>
<path fill="none" stroke="#000000" stroke-width="2" d="M51.812,38.486l22.281-22.494"/>
<path fill="#336666" d="M67.484,53.411L39.552,25.48l-1.066,0.746L66.417,54.37L67.484,53.411z"/>
<path fill="none" stroke="#000000" stroke-width="2" d="M67.057,53.837L38.912,25.906"/>
</svg>
