<?xml version="1.0" encoding="utf-8"?>
<!-- Generator: Adobe Illustrator 14.0.0, SVG Export Plug-In . SVG Version: 6.00 Build 43363)  -->
<!DOCTYPE svg PUBLIC "-//W3C//DTD SVG 1.1//EN" "http://www.w3.org/Graphics/SVG/1.1/DTD/svg11.dtd">
<svg version="1.1" id="图层_1" xmlns="http://www.w3.org/2000/svg" xmlns:xlink="http://www.w3.org/1999/xlink" x="0px" y="0px"
	 width="120.78px" height="106.502px" viewBox="0 0 120.78 106.502" enable-background="new 0 0 120.78 106.502"
	 xml:space="preserve">
<path fill="#336666" stroke="#000000" stroke-width="2" d="M3.389,51.315h36.064V3.39H3.389V51.315z"/>
<path fill="#4C7F7F" d="M4.478,48.289h33.765V6.295H4.478V48.289z"/>
<path fill="#669999" d="M4.478,43.691h33.765V10.652H4.478V43.691z"/>
<path fill="#7FB2B2" d="M4.478,38.487h33.765V16.098H4.478V38.487z"/>
<path fill="#B2E5E5" d="M4.478,30.257h33.765v-5.93H4.478V30.257z"/>
<path fill="none" stroke="#000000" stroke-width="2" d="M3.389,24.327h36.064"/>
<path fill="#336666" stroke="#000000" stroke-width="2" d="M75.397,3.39H39.453v47.925h35.944V3.39z"/>
<path fill="#4C7F7F" d="M74.308,6.295H40.542v41.994h33.765V6.295z"/>
<path fill="#669999" d="M74.308,10.652H40.542v33.039h33.765V10.652z"/>
<path fill="#7FB2B2" d="M74.308,16.098H40.542v22.389h33.765V16.098z"/>
<path fill="#B2E5E5" d="M74.308,24.327H40.542v5.93h33.765V24.327z"/>
<path fill="none" stroke="#000000" stroke-width="2" d="M75.397,39.454H39.453"/>
<path fill="#336666" stroke="#000000" stroke-width="2" d="M75.397,51.315h36.064V3.39H75.397V51.315z"/>
<path fill="#4C7F7F" d="M76.606,48.289h33.766V6.295H76.606V48.289z"/>
<path fill="#669999" d="M76.606,43.691h33.766V10.652H76.606V43.691z"/>
<path fill="#7FB2B2" d="M76.606,38.487h33.766V16.098H76.606V38.487z"/>
<path fill="#B2E5E5" d="M76.606,30.257h33.766v-5.93H76.606V30.257z"/>
<path fill="none" stroke="#000000" stroke-width="2" d="M75.397,18.397h36.064"/>
<path fill="#336666" stroke="#000000" stroke-width="2" d="M95.729,47.563l21.663,21.663l-33.766,33.766L35.702,55.792l-1.815-2.783
	l-0.363-1.452v-0.242v-0.726l1.332-2.905l2.42-2.057l3.51-1.937l3.146-1.21l3.63-1.09l3.994-0.847l4.357-0.605l4.599-0.363
	l3.267-0.121h1.695h1.209l3.752,0.121l3.752,0.363l3.51,0.363l3.389,0.605l3.025,0.847l3.873,1.089l3.268,1.452l2.541,1.574
	L95.729,47.563z"/>
<path fill="#4C7F7F" d="M92.823,48.531l21.664,22.389l-29.893,29.167L37.154,53.372l-0.726-1.815v-0.242v-0.483l1.815-3.026
	l2.42-1.936l3.268-1.815l3.025-1.211l3.389-1.089l3.751-0.847l4.115-0.605l4.236-0.363h1.452l1.574-0.121l1.088,0.121l3.389,0.121
	l3.268,0.484l3.268,0.604l2.905,0.727l3.751,1.21l3.268,1.452l2.905,1.452l2.662,1.815L92.823,48.531z"/>
<path fill="#669999" d="M87.499,49.863l-2.662-1.694l-2.784-1.573l-3.509-1.331l-3.146-1.089l-3.51-0.727l-3.631-0.484l-1.937-0.121
	h-0.847h-1.211l-3.51,0.242l-3.268,0.484l-3.025,0.605l-3.752,1.21l-3.146,1.331l-2.904,1.694l-2.299,2.541v0.363v0.121l0.968,1.452
	l44.9,44.173l23.236-23.235L87.499,49.863z"/>
<path fill="#7FB2B2" d="M80.722,51.073l-2.662-1.694l-3.389-1.331L71.04,47.2l-3.389-0.363l-1.452-0.121h-0.726h-0.848l-3.752,0.242
	l-3.51,0.726l-3.388,1.09l-2.905,1.331l-1.21,1.089v0.121l0.121,0.121l0.121,0.121v0.121l41.753,41.753l15.732-15.976L80.722,51.073
	z"/>
<path fill="#B2E5E5" d="M69.467,51.315l-3.268-0.726h-0.363l-3.51,0.121l-1.21,0.483v0.121l0,0v0.121h0.242l36.186,36.307
	l4.356-4.356L69.467,51.315z"/>
<path fill="none" stroke="#000000" stroke-width="2" d="M77.091,58.819l25.535,25.293"/>
<path fill="#336666" d="M60.148,76.609l31.95-31.708l-1.089-1.21L59.301,75.399L60.148,76.609z"/>
<path fill="none" stroke="#000000" stroke-width="2" d="M59.664,76.124l31.708-31.949"/>
</svg>
