<?xml version="1.0" encoding="utf-8"?>
<!-- Generator: Adobe Illustrator 14.0.0, SVG Export Plug-In . SVG Version: 6.00 Build 43363)  -->
<!DOCTYPE svg PUBLIC "-//W3C//DTD SVG 1.1//EN" "http://www.w3.org/Graphics/SVG/1.1/DTD/svg11.dtd">
<svg version="1.1" id="图层_1" xmlns="http://www.w3.org/2000/svg" xmlns:xlink="http://www.w3.org/1999/xlink" x="0px" y="0px"
	 width="120.902px" height="106.502px" viewBox="0 0 120.902 106.502" enable-background="new 0 0 120.902 106.502"
	 xml:space="preserve">
<path fill="#336666" stroke="#000000" stroke-width="2" d="M3.388,55.188h36.065v47.925H3.388V55.188z"/>
<path fill="#4C7F7F" d="M4.478,58.092h33.765v41.995H4.478V58.092z"/>
<path fill="#669999" d="M4.478,62.691h33.765v32.798H4.478V62.691z"/>
<path fill="#7FB2B2" d="M4.478,67.895h33.765v22.39H4.478V67.895z"/>
<path fill="#B2E5E5" d="M4.478,76.124h33.765v5.931H4.478V76.124z"/>
<path fill="none" stroke="#000000" stroke-width="2" d="M3.388,82.055h36.065"/>
<path fill="#336666" stroke="#000000" stroke-width="2" d="M75.518,103.113H39.454V55.188h36.064V103.113z"/>
<path fill="#4C7F7F" d="M74.308,100.087H40.543V58.092h33.766V100.087z"/>
<path fill="#669999" d="M74.308,95.489H40.543V62.691h33.766V95.489z"/>
<path fill="#7FB2B2" d="M74.308,90.284H40.543v-22.39h33.766V90.284z"/>
<path fill="#B2E5E5" d="M74.308,82.055H40.543v-5.931h33.766V82.055z"/>
<path fill="none" stroke="#000000" stroke-width="2" d="M75.518,67.048H39.454"/>
<path fill="#336666" stroke="#000000" stroke-width="2" d="M75.518,55.188h35.944v47.925H75.518V55.188z"/>
<path fill="#4C7F7F" d="M76.608,58.092h33.766v41.995H76.608V58.092z"/>
<path fill="#669999" d="M76.608,62.691h33.766v32.798H76.608V62.691z"/>
<path fill="#7FB2B2" d="M76.608,67.895h33.766v22.39H76.608V67.895z"/>
<path fill="#B2E5E5" d="M76.608,76.124h33.766v5.931H76.608V76.124z"/>
<path fill="none" stroke="#000000" stroke-width="2" d="M75.518,87.985h35.944"/>
<path fill="#336666" stroke="#000000" stroke-width="2" d="M95.729,58.819l21.663-21.663L83.627,3.39L35.702,50.589l-1.815,2.783
	l-0.363,1.452v0.363v0.605l1.332,2.904l2.541,2.178l3.389,1.815l3.146,1.211l3.631,1.089l3.994,0.848l4.356,0.604l4.599,0.484
	l3.268,0.121h1.573h1.332l3.751-0.242l3.752-0.242l3.51-0.484l3.389-0.604l3.146-0.727l3.752-1.21l3.268-1.452l2.541-1.573
	L95.729,58.819z"/>
<path fill="#4C7F7F" d="M92.825,57.85l21.663-22.389L84.595,6.294L37.154,53.13l-0.726,1.815v0.242v0.484l1.814,2.904l2.421,1.937
	l3.268,1.815l3.025,1.21l3.389,1.089l3.752,0.848l4.115,0.604l4.235,0.363l1.452,0.121h1.452h1.211l3.389-0.242l3.268-0.363
	l3.268-0.726l3.025-0.727l3.631-1.21l3.268-1.452l2.904-1.452l2.663-1.815L92.825,57.85z"/>
<path fill="#669999" d="M87.258,56.519l-2.541,1.815l-2.784,1.452l-3.388,1.331l-3.147,1.09l-3.51,0.726l-3.63,0.484l-1.937,0.121
	h-0.969h-1.089l-3.51-0.242l-3.268-0.484l-3.146-0.604l-3.631-1.211l-3.146-1.331l-2.904-1.694l-2.3-2.541v-0.242v-0.242
	l0.968-1.331l44.9-44.295l23.236,23.236L87.258,56.519z"/>
<path fill="#7FB2B2" d="M80.722,55.43l-2.662,1.694l-3.268,1.21l-3.752,0.848l-3.389,0.483h-0.727H66.2h-0.848l-3.751-0.121
	l-3.51-0.604l-3.026-0.848l-2.904-1.21l-2.299-1.573v-0.121v-0.121l0.241-0.363L91.615,12.95l15.975,15.976L80.722,55.43z"/>
<path fill="#B2E5E5" d="M69.468,55.188L66.2,55.793h-0.363l-3.51-0.121l-1.21-0.484l0,0v-0.121v-0.121h0.242l36.186-36.307
	l4.357,4.356L69.468,55.188z"/>
<path fill="none" stroke="#000000" stroke-width="2" d="M77.092,47.563l25.536-25.294"/>
<path fill="#336666" d="M60.148,29.773l31.95,31.708l-1.089,1.21L59.302,30.983L60.148,29.773z"/>
<path fill="none" stroke="#000000" stroke-width="2" d="M59.665,30.257l31.708,31.95"/>
</svg>
