<?xml version="1.0" encoding="utf-8"?>
<!-- Generator: Adobe Illustrator 14.0.0, SVG Export Plug-In . SVG Version: 6.00 Build 43363)  -->
<!DOCTYPE svg PUBLIC "-//W3C//DTD SVG 1.1//EN" "http://www.w3.org/Graphics/SVG/1.1/DTD/svg11.dtd">
<svg version="1.1" id="图层_1" xmlns="http://www.w3.org/2000/svg" xmlns:xlink="http://www.w3.org/1999/xlink" x="0px" y="0px"
	 width="93.91px" height="106.502px" viewBox="0 0 93.91 106.502" enable-background="new 0 0 93.91 106.502" xml:space="preserve">
<path fill="#336666" stroke="#000000" stroke-width="2" d="M45.248,2.989v31.694H2.988V2.989H45.248z"/>
<path fill="#4C7F7F" d="M42.58,3.948v29.773H5.549V3.948H42.58z"/>
<path fill="#669999" d="M38.524,3.948v29.773H9.604V3.948H38.524z"/>
<path fill="#7FB2B2" d="M33.936,3.948v29.773H14.193V3.948H33.936z"/>
<path fill="#B2E5E5" d="M26.679,3.948v29.773H21.45V3.948H26.679z"/>
<path fill="none" stroke="#000000" stroke-width="2" d="M21.45,2.989v31.694"/>
<path fill="#336666" stroke="#000000" stroke-width="2" d="M2.988,66.484V34.683h42.26v31.801H2.988z"/>
<path fill="#4C7F7F" d="M5.549,65.524V35.75h37.03v29.773H5.549z"/>
<path fill="#669999" d="M9.604,65.524V35.75h28.92v29.773H9.604z"/>
<path fill="#7FB2B2" d="M14.193,65.524V35.75h19.742v29.773H14.193z"/>
<path fill="#B2E5E5" d="M21.45,65.524V35.75h5.229v29.773H21.45z"/>
<path fill="none" stroke="#000000" stroke-width="2" d="M34.789,66.484V34.683"/>
<path fill="#336666" stroke="#000000" stroke-width="2" d="M45.248,66.484v31.802H2.988V66.484H45.248z"/>
<path fill="#4C7F7F" d="M42.58,67.551v29.773H5.549V67.551H42.58z"/>
<path fill="#669999" d="M38.524,67.551v29.773H9.604V67.551H38.524z"/>
<path fill="#7FB2B2" d="M33.936,67.551v29.773H14.193V67.551H33.936z"/>
<path fill="#B2E5E5" d="M26.679,67.551v29.773H21.45V67.551H26.679z"/>
<path fill="none" stroke="#000000" stroke-width="2" d="M16.221,66.484v31.802"/>
<path fill="#336666" stroke="#000000" stroke-width="2" d="M41.939,84.412l19.209,19.102L90.921,73.74L49.196,31.482l-2.455-1.708
	l-1.28-0.213l-0.213-0.107l-0.534,0.107l-2.668,1.174l-1.814,2.134l-1.708,3.095l-1.067,2.774l-0.96,3.202l-0.747,3.521
	l-0.533,3.734l-0.32,4.056l-0.107,2.774v1.494v1.067l0.107,3.415l0.32,3.308l0.32,3.095l0.534,2.988l0.747,2.774l1.067,3.415
	l1.174,2.882l1.388,2.24L41.939,84.412z"/>
<path fill="#4C7F7F" d="M42.793,81.638l19.742,19.315l25.719-26.572L47.062,32.762l-1.601-0.641h-0.213H44.82l-2.561,1.601
	l-1.814,2.135l-1.601,2.881l-1.067,2.668l-0.96,2.988l-0.747,3.309l-0.534,3.521l-0.32,3.734v1.174l-0.107,1.388l0.107,0.961
	l0.106,3.095l0.427,2.987l0.534,2.775l0.747,2.667l1.067,3.309l1.174,2.881l1.28,2.455l1.601,2.348L42.793,81.638z"/>
<path fill="#669999" d="M43.967,77.049l-1.494-2.455l-1.387-2.454l-1.174-3.095l-0.96-2.774l-0.64-3.095l-0.427-3.202l-0.106-1.707
	V57.52v-1.067l0.213-2.987l0.427-2.882l0.854-3.521l1.067-3.095l1.174-2.562l1.494-2.454l1.921-1.601h0.32h0.106l1.067,0.64
	l39.271,39.806L65.096,98.285L43.967,77.049z"/>
<path fill="#7FB2B2" d="M45.034,71.179l-1.494-2.454l-1.174-2.988l-0.641-2.668l-0.427-2.987L41.192,58.8v-0.64V57.52l0.213-3.415
	l0.533-3.095l0.747-2.561l1.174-2.882l1.281-1.601h0.107h0.106h0.107l0.106,0.213l36.817,36.604L68.298,94.87L45.034,71.179z"/>
<path fill="#B2E5E5" d="M45.248,61.255l-0.641-2.668V57.84l0.107-2.882l0.32-1.066h0.107h0.107h0.106l0.107,0.213l31.908,31.908
	l-3.842,3.842L45.248,61.255z"/>
<path fill="none" stroke="#000000" stroke-width="2" d="M51.864,67.978l22.304,22.518"/>
<path fill="#336666" d="M67.55,53.037l-27.959,27.96l-1.067-0.747l27.959-28.173L67.55,53.037z"/>
<path fill="none" stroke="#000000" stroke-width="2" d="M67.125,52.611l-28.173,27.96"/>
</svg>
