<?xml version="1.0" encoding="utf-8"?>
<!-- Generator: Adobe Illustrator 14.0.0, SVG Export Plug-In . SVG Version: 6.00 Build 43363)  -->
<!DOCTYPE svg PUBLIC "-//W3C//DTD SVG 1.1//EN" "http://www.w3.org/Graphics/SVG/1.1/DTD/svg11.dtd">
<svg version="1.1" id="图层_1" xmlns="http://www.w3.org/2000/svg" xmlns:xlink="http://www.w3.org/1999/xlink" x="0px" y="0px"
	 width="93.91px" height="106.502px" viewBox="0 0 93.91 106.502" enable-background="new 0 0 93.91 106.502" xml:space="preserve">
<path fill="#336666" stroke="#000000" stroke-width="2" d="M48.662,103.514V71.713h42.153v31.801H48.662z"/>
<path fill="#4C7F7F" d="M51.224,102.554V72.781h37.029v29.773H51.224z"/>
<path fill="#669999" d="M55.065,102.554V72.781h29.134v29.773H55.065z"/>
<path fill="#7FB2B2" d="M59.867,102.554V72.781H79.61v29.773H59.867z"/>
<path fill="#B2E5E5" d="M67.125,102.554V72.781h5.229v29.773H67.125z"/>
<path fill="none" stroke="#000000" stroke-width="2" d="M72.353,103.514V71.713"/>
<path fill="#336666" stroke="#000000" stroke-width="2" d="M90.815,40.019v31.694H48.662V40.019H90.815z"/>
<path fill="#4C7F7F" d="M88.253,40.979v29.773H51.224V40.979H88.253z"/>
<path fill="#669999" d="M84.199,40.979v29.773H55.065V40.979H84.199z"/>
<path fill="#7FB2B2" d="M79.61,40.979v29.773H59.867V40.979H79.61z"/>
<path fill="#B2E5E5" d="M72.353,40.979v29.773h-5.229V40.979H72.353z"/>
<path fill="none" stroke="#000000" stroke-width="2" d="M59.121,40.019v31.694"/>
<path fill="#336666" stroke="#000000" stroke-width="2" d="M48.662,40.019V8.217h42.153v31.802H48.662z"/>
<path fill="#4C7F7F" d="M51.224,38.951V9.178h37.029v29.773H51.224z"/>
<path fill="#669999" d="M55.065,38.951V9.178h29.134v29.773H55.065z"/>
<path fill="#7FB2B2" d="M59.867,38.951V9.178H79.61v29.773H59.867z"/>
<path fill="#B2E5E5" d="M67.125,38.951V9.178h5.229v29.773H67.125z"/>
<path fill="none" stroke="#000000" stroke-width="2" d="M77.582,40.019V8.217"/>
<path fill="#336666" stroke="#000000" stroke-width="2" d="M51.864,22.09L32.762,2.989L2.988,32.762l41.619,42.259l2.455,1.602
	l1.281,0.319l0.319,0.107l0.534-0.107l2.562-1.174l1.92-2.134l1.602-3.095l1.066-2.774l0.961-3.202l0.747-3.521l0.534-3.734
	l0.319-4.056l0.106-2.774l0.107-1.494v-1.067L58.907,44.5l-0.214-3.308l-0.426-3.095l-0.534-2.988l-0.64-2.774l-1.068-3.415
	l-1.279-2.882l-1.388-2.24L51.864,22.09z"/>
<path fill="#4C7F7F" d="M51.009,24.865L31.375,5.549L5.549,32.121L46.848,73.74l1.494,0.641h0.319h0.32l2.562-1.601l2.134-2.775
	l1.602-3.095l0.961-2.774l0.96-3.095l0.747-3.308l0.533-3.629l0.213-3.734v-1.388v-0.961l-0.213-3.095l-0.32-2.987l-0.641-2.775
	l-0.64-2.667l-1.067-3.309l-1.28-2.881l-1.28-2.455l-1.602-2.241L51.009,24.865z"/>
<path fill="#669999" d="M49.835,29.453l1.494,2.348l1.281,2.562l1.174,3.095l0.854,2.774l0.747,3.095l0.32,3.202l0.106,1.601v0.854
	v1.067l-0.213,2.987l-0.32,2.882l-0.854,3.521l-0.961,3.095l-1.174,2.562l-1.494,2.454l-1.921,1.601h-0.214h-0.213l-1.28-0.64
	L8.217,28.706L28.707,8.217L49.835,29.453z"/>
<path fill="#7FB2B2" d="M48.662,35.323l1.388,2.348l0.96,2.561l0.854,3.202l0.427,2.987l0.107,1.281v0.64v0.641l-0.107,3.415
	l-0.533,3.095l-0.748,2.561l-1.066,2.775l-1.174,1.601l-0.107,0.106h-0.213v-0.106l-0.213-0.106L11.418,25.719l14.086-14.087
	L48.662,35.323z"/>
<path fill="#B2E5E5" d="M48.662,45.247l0.534,2.668v0.747l-0.214,2.882l-0.32,1.066h-0.213v-0.213L16.434,20.49l3.842-3.842
	L48.662,45.247z"/>
<path fill="none" stroke="#000000" stroke-width="2" d="M41.939,38.525L19.636,16.007"/>
<path fill="#336666" d="M26.252,53.465l27.959-27.96l1.067,0.747L27.106,54.425L26.252,53.465z"/>
<path fill="none" stroke="#000000" stroke-width="2" d="M26.679,53.892l27.959-27.96"/>
</svg>
