<?xml version="1.0" encoding="utf-8"?>
<!-- Generator: Adobe Illustrator 14.0.0, SVG Export Plug-In . SVG Version: 6.00 Build 43363)  -->
<!DOCTYPE svg PUBLIC "-//W3C//DTD SVG 1.1//EN" "http://www.w3.org/Graphics/SVG/1.1/DTD/svg11.dtd">
<svg version="1.1" id="图层_1" xmlns="http://www.w3.org/2000/svg" xmlns:xlink="http://www.w3.org/1999/xlink" x="0px" y="0px"
	 width="93.816px" height="106.502px" viewBox="0 0 93.816 106.502" enable-background="new 0 0 93.816 106.502"
	 xml:space="preserve">
<path fill="#336666" stroke="#000000" stroke-width="2" d="M48.614,2.985v31.77h42.11V2.985H48.614z"/>
<path fill="#4C7F7F" d="M51.172,3.945v29.744h36.993V3.945H51.172z"/>
<path fill="#669999" d="M55.01,3.945v29.744h29.104V3.945H55.01z"/>
<path fill="#7FB2B2" d="M59.808,3.945v29.744h19.723V3.945H59.808z"/>
<path fill="#B2E5E5" d="M67.057,3.945v29.744h5.224V3.945H67.057z"/>
<path fill="none" stroke="#000000" stroke-width="2" d="M72.281,2.985v31.77"/>
<path fill="#336666" stroke="#000000" stroke-width="2" d="M90.724,66.417V34.754h-42.11v31.663H90.724z"/>
<path fill="#4C7F7F" d="M88.166,65.458V35.714H51.172v29.744H88.166z"/>
<path fill="#669999" d="M84.115,65.458V35.714H55.01v29.744H84.115z"/>
<path fill="#7FB2B2" d="M79.531,65.458V35.714H59.808v29.744H79.531z"/>
<path fill="#B2E5E5" d="M72.281,65.458V35.714h-5.224v29.744H72.281z"/>
<path fill="none" stroke="#000000" stroke-width="2" d="M59.062,66.417V34.754"/>
<path fill="#336666" stroke="#000000" stroke-width="2" d="M48.614,66.417v31.77h42.11v-31.77H48.614z"/>
<path fill="#4C7F7F" d="M51.172,67.484v29.744h36.993V67.484H51.172z"/>
<path fill="#669999" d="M55.01,67.484v29.744h29.104V67.484H55.01z"/>
<path fill="#7FB2B2" d="M59.808,67.484v29.744h19.723V67.484H59.808z"/>
<path fill="#B2E5E5" d="M67.057,67.484v29.744h5.224V67.484H67.057z"/>
<path fill="none" stroke="#000000" stroke-width="2" d="M77.505,66.417v31.77"/>
<path fill="#336666" stroke="#000000" stroke-width="2" d="M51.812,84.327L32.729,103.41L2.985,73.667l41.578-42.218l2.452-1.599
	l1.28-0.32h0.319h0.533l2.559,1.173l1.919,2.132l1.6,3.092l1.065,2.772l0.96,3.198l0.746,3.518l0.533,3.731l0.319,4.051l0.106,2.772
	l0.107,1.492v1.066l-0.214,3.411l-0.214,3.305l-0.426,3.092l-0.533,2.985l-0.64,2.771l-1.065,3.412l-1.279,2.878l-1.387,2.239
	L51.812,84.327z"/>
<path fill="#4C7F7F" d="M50.958,81.556l-19.615,19.296L5.544,74.307l41.257-41.578l1.493-0.64h0.319h0.319l2.559,1.6l1.706,2.132
	l1.599,2.879l1.066,2.665l0.96,2.985l0.853,3.305l0.533,3.518l0.32,3.625l0.105,1.386v1.279v0.96l-0.213,3.092l-0.319,2.984
	l-0.64,2.772l-0.959,3.518l-1.066,3.198l-1.279,2.771l-1.6,2.772L50.958,81.556z"/>
<path fill="#669999" d="M49.787,76.865l1.492-2.346l1.279-2.452l1.173-3.092l0.853-2.771l0.746-2.985l0.427-3.305v-1.6l0.106-0.853
	l-0.106-1.066l-0.106-2.984l-0.426-2.879l-0.854-3.518l-0.959-3.092l-1.174-2.559l-1.492-2.452l-1.918-1.6h-0.214H48.4l-1.279,0.64
	L8.209,77.718l20.469,20.469L49.787,76.865z"/>
<path fill="#7FB2B2" d="M48.614,71.109l1.493-2.346l0.959-2.559l0.746-3.198l0.426-2.985l0.107-1.279v-0.64v-0.64l-0.107-3.411
	l-0.532-3.092l-0.853-3.092l-1.066-2.559l-1.066-1.386h-0.106H48.4l0,0l-0.213,0.213l-36.78,36.567l14.072,14.072L48.614,71.109z"/>
<path fill="#B2E5E5" d="M48.614,61.194l0.533-2.665v-0.746l-0.214-2.879l-0.319-1.066l0,0H48.4v0.214L16.418,85.927l3.838,3.838
	L48.614,61.194z"/>
<path fill="none" stroke="#000000" stroke-width="2" d="M41.897,67.91L19.616,90.405"/>
<path fill="#336666" d="M26.226,52.985l27.932,27.932l1.066-0.746L27.079,52.026L26.226,52.985z"/>
<path fill="none" stroke="#000000" stroke-width="2" d="M26.652,52.558L54.583,80.49"/>
</svg>
