<?xml version="1.0" encoding="utf-8"?>
<!-- Generator: Adobe Illustrator 14.0.0, SVG Export Plug-In . SVG Version: 6.00 Build 43363)  -->
<!DOCTYPE svg PUBLIC "-//W3C//DTD SVG 1.1//EN" "http://www.w3.org/Graphics/SVG/1.1/DTD/svg11.dtd">
<svg version="1.1" id="图层_1" xmlns="http://www.w3.org/2000/svg" xmlns:xlink="http://www.w3.org/1999/xlink" x="0px" y="0px"
	 width="120.902px" height="106.502px" viewBox="0 0 120.902 106.502" enable-background="new 0 0 120.902 106.502"
	 xml:space="preserve">
<path fill="#336666" stroke="#000000" stroke-width="2" d="M117.392,55.067H81.449v48.046h35.943V55.067z"/>
<path fill="#4C7F7F" d="M116.303,57.971H82.538v42.116h33.766V57.971z"/>
<path fill="#669999" d="M116.303,62.57H82.538v32.919h33.766V62.57z"/>
<path fill="#7FB2B2" d="M116.303,67.774H82.538v22.511h33.766V67.774z"/>
<path fill="#B2E5E5" d="M116.303,76.245H82.538v5.931h33.766V76.245z"/>
<path fill="none" stroke="#000000" stroke-width="2" d="M117.392,82.176H81.449"/>
<path fill="#336666" stroke="#000000" stroke-width="2" d="M45.505,103.113h35.944V55.067H45.505V103.113z"/>
<path fill="#4C7F7F" d="M46.594,100.087h33.765V57.971H46.594V100.087z"/>
<path fill="#669999" d="M46.594,95.489h33.765V62.57H46.594V95.489z"/>
<path fill="#7FB2B2" d="M46.594,90.284h33.765V67.774H46.594V90.284z"/>
<path fill="#B2E5E5" d="M46.594,82.176h33.765v-5.931H46.594V82.176z"/>
<path fill="none" stroke="#000000" stroke-width="2" d="M45.505,67.048h35.944"/>
<path fill="#336666" stroke="#000000" stroke-width="2" d="M45.505,55.067H9.319v48.046h36.186V55.067z"/>
<path fill="#4C7F7F" d="M44.295,57.971H10.408v42.116h33.887V57.971z"/>
<path fill="#669999" d="M44.295,62.57H10.408v32.919h33.887V62.57z"/>
<path fill="#7FB2B2" d="M44.295,67.774H10.408v22.511h33.887V67.774z"/>
<path fill="#B2E5E5" d="M44.295,76.245H10.408v5.931h33.887V76.245z"/>
<path fill="none" stroke="#000000" stroke-width="2" d="M45.505,87.985H9.319"/>
<path fill="#336666" stroke="#000000" stroke-width="2" d="M25.173,58.698L3.388,37.034L37.033,3.39L85.08,50.468l1.815,2.541
	l0.483,1.694v0.363v0.605l-1.452,2.904l-2.42,2.179l-3.389,1.936l-3.268,1.211l-3.51,1.089l-4.115,0.968l-4.235,0.605l-4.6,0.363
	l-3.268,0.121H55.55h-1.331l-3.873-0.121l-3.631-0.363L43.206,66.2l-3.389-0.726l-3.147-0.727l-3.751-1.21l-3.146-1.452
	l-3.147-2.058L25.173,58.698z"/>
<path fill="#4C7F7F" d="M28.198,57.971L6.294,35.702L36.307,6.294l47.44,46.715l0.605,1.815l0.121,0.242l-0.121,0.484l-1.694,2.904
	l-2.42,1.937l-3.389,1.937l-3.026,1.21l-3.389,1.089l-3.751,0.969L62.69,66.2l-4.236,0.363h-1.452l-1.452,0.121l-1.21-0.121
	l-3.389-0.121l-3.268-0.484l-3.146-0.604l-3.994-1.09l-3.631-1.21l-3.146-1.452l-2.662-1.452l-2.542-1.815L28.198,57.971z"/>
<path fill="#669999" d="M33.402,56.64l2.663,1.694l2.783,1.331l3.51,1.452l3.146,0.969l3.51,0.726l3.631,0.484l1.937,0.121h0.968
	h1.09l3.509-0.242l3.269-0.484l3.993-0.847l3.631-1.21l2.904-1.332l2.784-1.694l1.694-2.299l0.121-0.242l-0.121-0.242l-0.848-1.21
	L32.798,9.32L9.319,32.435L33.402,56.64z"/>
<path fill="#7FB2B2" d="M40.301,55.309l2.542,1.694l3.389,1.21l3.631,0.848l3.389,0.483h0.726h0.727h0.847l3.752-0.121l3.51-0.604
	l3.025-0.848l3.268-1.21l1.815-1.573v-0.121v-0.121l-0.121-0.121L29.046,12.95L13.191,28.805L40.301,55.309z"/>
<path fill="#B2E5E5" d="M51.435,55.309l3.268,0.604h0.362l3.51-0.241l1.211-0.484v-0.121v-0.121l-0.242-0.121L23.115,18.639
	l-3.993,4.356L51.435,55.309z"/>
<path fill="none" stroke="#000000" stroke-width="2" d="M43.689,47.684L18.153,22.269"/>
<path fill="#336666" d="M60.754,29.773L28.925,61.602l1.089,0.968l31.588-31.708L60.754,29.773z"/>
<path fill="none" stroke="#000000" stroke-width="2" d="M61.238,30.257l-31.95,31.829"/>
</svg>
