<?xml version="1.0" encoding="utf-8"?>
<!-- Generator: Adobe Illustrator 14.0.0, SVG Export Plug-In . SVG Version: 6.00 Build 43363)  -->
<!DOCTYPE svg PUBLIC "-//W3C//DTD SVG 1.1//EN" "http://www.w3.org/Graphics/SVG/1.1/DTD/svg11.dtd">
<svg version="1.1" id="图层_1" xmlns="http://www.w3.org/2000/svg" xmlns:xlink="http://www.w3.org/1999/xlink" x="0px" y="0px"
	 width="120.902px" height="106.502px" viewBox="0 0 120.902 106.502" enable-background="new 0 0 120.902 106.502"
	 xml:space="preserve">
<path fill="#336666" stroke="#000000" stroke-width="2" d="M117.392,51.436H81.449V3.39h35.943V51.436z"/>
<path fill="#4C7F7F" d="M116.303,48.41H82.538V6.294h33.766V48.41z"/>
<path fill="#669999" d="M116.303,43.933H82.538v-33.04h33.766V43.933z"/>
<path fill="#7FB2B2" d="M116.303,38.608H82.538V16.097h33.766V38.608z"/>
<path fill="#B2E5E5" d="M116.303,30.257H82.538v-5.931h33.766V30.257z"/>
<path fill="none" stroke="#000000" stroke-width="2" d="M117.392,24.326H81.449"/>
<path fill="#336666" stroke="#000000" stroke-width="2" d="M45.505,3.39h35.944v48.046H45.505V3.39z"/>
<path fill="#4C7F7F" d="M46.594,6.294h33.765V48.41H46.594V6.294z"/>
<path fill="#669999" d="M46.594,10.893h33.765v33.04H46.594V10.893z"/>
<path fill="#7FB2B2" d="M46.594,16.097h33.765v22.511H46.594V16.097z"/>
<path fill="#B2E5E5" d="M46.594,24.326h33.765v5.931H46.594V24.326z"/>
<path fill="none" stroke="#000000" stroke-width="2" d="M45.505,39.333h35.944"/>
<path fill="#336666" stroke="#000000" stroke-width="2" d="M45.505,51.436H9.319V3.39h36.186V51.436z"/>
<path fill="#4C7F7F" d="M44.295,48.41H10.408V6.294h33.887V48.41z"/>
<path fill="#669999" d="M44.295,43.933H10.408v-33.04h33.887V43.933z"/>
<path fill="#7FB2B2" d="M44.295,38.608H10.408V16.097h33.887V38.608z"/>
<path fill="#B2E5E5" d="M44.295,30.257H10.408v-5.931h33.887V30.257z"/>
<path fill="none" stroke="#000000" stroke-width="2" d="M45.505,18.397H9.319"/>
<path fill="#336666" stroke="#000000" stroke-width="2" d="M25.173,47.805L3.388,69.347l33.645,33.766L85.08,55.913l1.815-2.541
	l0.483-1.694v-0.242V50.83l-1.452-3.025l-2.42-2.178l-3.389-1.937L76.97,42.48l-3.63-1.089l-3.994-0.847l-4.356-0.727l-4.721-0.363
	l-3.146-0.121H55.55h-1.331l-3.873,0.121l-3.631,0.363l-3.63,0.484l-3.268,0.604l-3.147,0.727l-3.751,1.21l-3.146,1.452
	l-2.663,1.694L25.173,47.805z"/>
<path fill="#4C7F7F" d="M28.198,48.41L6.294,70.8l30.135,29.287l47.319-46.594l0.605-1.815v-0.242v-0.484l-1.694-3.025l-2.42-1.937
	l-3.389-1.815l-3.026-1.331l-3.389-1.089l-3.751-0.848l-3.994-0.726l-4.236-0.363h-1.452H55.55h-1.21l-3.389,0.242l-3.268,0.363
	l-3.146,0.604l-3.994,1.09l-3.631,1.331l-3.146,1.331l-2.662,1.452l-2.542,1.815L28.198,48.41z"/>
<path fill="#669999" d="M33.402,49.863l2.663-1.694l2.783-1.452l3.51-1.331l3.146-0.969l3.51-0.847l3.631-0.484l1.937-0.121h0.968
	h1.09l3.509,0.242l3.269,0.484l3.993,0.847l3.631,1.211l2.904,1.331l2.784,1.694l1.694,2.299l0.121,0.363v0.121l-0.969,1.21
	L32.677,97.183L9.319,73.947L33.402,49.863z"/>
<path fill="#7FB2B2" d="M40.179,51.194l2.663-1.694l3.389-1.21l3.631-0.968l3.389-0.363l1.452-0.121h0.847h0.727l3.752,0.242
	l3.389,0.726l3.509,0.969l2.784,1.331l1.21,1.21v0.121l0,0l-0.121,0.242L29.046,93.552L13.191,77.577L40.179,51.194z"/>
<path fill="#B2E5E5" d="M51.435,51.194l3.268-0.726h0.362l3.51,0.362l1.211,0.484v0.121l-0.242,0.242L23.115,87.864l-4.114-4.356
	L51.435,51.194z"/>
<path fill="none" stroke="#000000" stroke-width="2" d="M43.689,58.698L18.153,84.234"/>
<path fill="#336666" d="M60.754,76.609L28.803,44.78l1.21-0.847L61.601,75.52L60.754,76.609z"/>
<path fill="none" stroke="#000000" stroke-width="2" d="M61.238,76.245l-31.95-31.95"/>
</svg>
