<?xml version="1.0" encoding="utf-8"?>
<!-- Generator: Adobe Illustrator 14.0.0, SVG Export Plug-In . SVG Version: 6.00 Build 43363)  -->
<!DOCTYPE svg PUBLIC "-//W3C//DTD SVG 1.1//EN" "http://www.w3.org/Graphics/SVG/1.1/DTD/svg11.dtd">
<svg version="1.1" id="图层_1" xmlns="http://www.w3.org/2000/svg" xmlns:xlink="http://www.w3.org/1999/xlink" x="0px" y="0px"
	 width="135.05px" height="106.502px" viewBox="0 0 135.05 106.502" enable-background="new 0 0 135.05 106.502"
	 xml:space="preserve">
<path fill="#336666" stroke="#000000" stroke-width="2" d="M131.261,60.356H88.635V3.791h42.626V60.356z"/>
<path fill="#4C7F7F" d="M130.043,56.837H90.259V7.039h39.784V56.837z"/>
<path fill="#669999" d="M130.043,51.424H90.259V12.452h39.784V51.424z"/>
<path fill="#7FB2B2" d="M130.043,45.335H90.259V18.812h39.784V45.335z"/>
<path fill="#B2E5E5" d="M130.043,35.456H90.259v-6.901h39.784V35.456z"/>
<path fill="none" stroke="#000000" stroke-width="2" d="M131.261,28.555H88.635"/>
<path fill="#336666" stroke="#000000" stroke-width="2" d="M46.415,3.791h42.22v56.564h-42.22V3.791z"/>
<path fill="#4C7F7F" d="M47.633,7.039h39.785v49.798H47.633V7.039z"/>
<path fill="#669999" d="M47.633,12.452h39.785v38.972H47.633V12.452z"/>
<path fill="#7FB2B2" d="M47.633,18.812h39.785v26.523H47.633V18.812z"/>
<path fill="#B2E5E5" d="M47.633,28.555h39.785v6.901H47.633V28.555z"/>
<path fill="none" stroke="#000000" stroke-width="2" d="M46.415,46.147h42.22"/>
<path fill="#336666" stroke="#000000" stroke-width="2" d="M46.415,60.356H3.789V3.791h42.626V60.356z"/>
<path fill="#4C7F7F" d="M45.062,56.837H5.007V7.039h40.055V56.837z"/>
<path fill="#669999" d="M45.062,51.424H5.007V12.452h40.055V51.424z"/>
<path fill="#7FB2B2" d="M45.062,45.335H5.007V18.812h40.055V45.335z"/>
<path fill="#B2E5E5" d="M45.062,35.456H5.007v-6.901h40.055V35.456z"/>
<path fill="none" stroke="#000000" stroke-width="2" d="M46.415,21.383H3.789"/>
<path fill="#336666" d="M39.243,60.356l0.812-3.519l2.571-3.248l3.112-2.3l3.789-1.895l3.383-1.218l3.653-0.947l3.924-0.677
	l4.195-0.406h1.353h1.489h1.488l4.195,0.271l4.061,0.542l3.788,0.947l3.384,1.082l4.059,1.759l3.248,2.166l2.842,3.247l1.218,3.519
	v0.677v42.355H39.243V60.356z"/>
<path fill="#4C7F7F" d="M42.761,60.356l0.812-3.519l2.165-3.248l3.383-2.842l3.518-1.759L56.7,47.5l4.601-0.947l3.654-0.406h1.218
	h1.354h1.353l3.654,0.271l3.518,0.542l4.33,1.218l3.789,1.624l3.248,2.029l2.977,2.978l1.624,3.383l0.271,1.488v0.677v40.867H42.761
	V60.356z"/>
<path fill="#669999" d="M48.174,60.356l0.541-3.519l1.759-3.248l2.707-2.842l3.519-2.165l3.248-1.353l3.654-0.813l2.977-0.271h0.947
	h0.947l3.925,0.406l3.519,0.947l3.247,1.488l3.384,2.301l2.436,2.842l1.488,3.383l0.406,2.165v0.677v40.867H48.174V60.356z"/>
<path fill="#7FB2B2" d="M54.264,60.356l0.542-4.195l1.353-3.247l2.436-3.112l3.112-2.301l3.789-1.218l1.353-0.136h0.677h0.676
	l3.925,0.813l3.383,2.029l2.706,2.842l1.759,3.653l0.813,3.384v0.812v0.677v40.867H54.264V60.356z"/>
<path fill="#B2E5E5" d="M64.007,60.356l0.135-4.195l0.406-3.789l0.812-3.383l2.03-2.842h0.136h0.135l2.03,2.842l0.812,3.383
	l0.405,3.789l0.136,2.707v0.812v0.677v40.867h-7.037V60.356z"/>
<path fill="none" stroke="#000000" stroke-width="2" d="M39.243,60.356l0.812-3.519l2.571-3.248l3.112-2.3l3.789-1.895l3.383-1.218
	l3.653-0.947l3.924-0.677l4.195-0.406h1.353h1.489h1.488l4.195,0.271l4.061,0.542l3.788,0.947l3.384,1.082l4.059,1.759l3.248,2.166
	l2.842,3.247l1.218,3.519v0.677v42.355H39.243V60.356"/>
<path fill="none" stroke="#000000" stroke-width="2" d="M80.787,47.906v54.805"/>
</svg>
