<?xml version="1.0" encoding="utf-8"?>
<!-- Generator: Adobe Illustrator 14.0.0, SVG Export Plug-In . SVG Version: 6.00 Build 43363)  -->
<!DOCTYPE svg PUBLIC "-//W3C//DTD SVG 1.1//EN" "http://www.w3.org/Graphics/SVG/1.1/DTD/svg11.dtd">
<svg version="1.1" id="图层_1" xmlns="http://www.w3.org/2000/svg" xmlns:xlink="http://www.w3.org/1999/xlink" x="0px" y="0px"
	 width="135.187px" height="106.502px" viewBox="0 0 135.187 106.502" enable-background="new 0 0 135.187 106.502"
	 xml:space="preserve">
<path fill="#336666" stroke="#000000" stroke-width="2" d="M3.789,46.147h42.626v56.564H3.789V46.147z"/>
<path fill="#4C7F7F" d="M5.007,49.665h40.056v49.799H5.007V49.665z"/>
<path fill="#669999" d="M5.007,55.078h40.056v38.973H5.007V55.078z"/>
<path fill="#7FB2B2" d="M5.007,61.167h40.056v26.523H5.007V61.167z"/>
<path fill="#B2E5E5" d="M5.007,71.046h40.056v6.901H5.007V71.046z"/>
<path fill="none" stroke="#000000" stroke-width="2" d="M3.789,77.948h42.626"/>
<path fill="#336666" stroke="#000000" stroke-width="2" d="M88.636,102.711H46.416V46.147h42.221V102.711z"/>
<path fill="#4C7F7F" d="M87.418,99.464H47.633V49.665h39.785V99.464z"/>
<path fill="#669999" d="M87.418,94.051H47.633V55.078h39.785V94.051z"/>
<path fill="#7FB2B2" d="M87.418,87.691H47.633V61.167h39.785V87.691z"/>
<path fill="#B2E5E5" d="M87.418,77.948H47.633v-6.901h39.785V77.948z"/>
<path fill="none" stroke="#000000" stroke-width="2" d="M88.636,60.356H46.416"/>
<path fill="#336666" stroke="#000000" stroke-width="2" d="M88.636,46.147h42.627v56.564H88.636V46.147z"/>
<path fill="#4C7F7F" d="M90.26,49.665h39.784v49.799H90.26V49.665z"/>
<path fill="#669999" d="M90.26,55.078h39.784v38.973H90.26V55.078z"/>
<path fill="#7FB2B2" d="M90.26,61.167h39.784v26.523H90.26V61.167z"/>
<path fill="#B2E5E5" d="M90.26,71.046h39.784v6.901H90.26V71.046z"/>
<path fill="none" stroke="#000000" stroke-width="2" d="M88.636,85.119h42.627"/>
<path fill="#336666" d="M95.808,46.147l-0.812,3.519l-2.571,3.248l-3.112,2.3l-3.789,1.895l-3.384,1.218l-3.653,0.947l-3.925,0.677
	l-4.194,0.406h-1.353h-1.489h-1.488l-4.195-0.271l-4.06-0.541l-3.654-0.947l-3.518-1.083l-4.06-1.759l-3.248-2.301l-2.842-3.112
	l-1.218-3.519v-0.677V3.791h56.564V46.147z"/>
<path fill="#4C7F7F" d="M92.291,46.147l-0.813,3.519l-2.165,3.248l-3.384,2.842l-3.518,1.759l-4.061,1.488l-4.6,0.947l-3.654,0.406
	h-1.354h-1.218h-1.218l-3.789-0.271L59,59.544l-4.33-1.219l-3.789-1.623l-3.248-2.03l-2.977-2.978l-1.624-3.383l-0.271-1.488v-0.677
	V5.28h49.529V46.147z"/>
<path fill="#669999" d="M86.876,46.147l-0.541,3.519l-1.759,3.248l-2.706,2.842l-3.52,2.165l-3.247,1.353l-3.653,0.813l-2.978,0.271
	h-0.947h-0.947l-3.924-0.406l-3.519-0.947l-3.248-1.488l-3.383-2.301l-2.436-2.842l-1.489-3.383l-0.406-2.165v-0.677V5.28h38.702
	V46.147z"/>
<path fill="#7FB2B2" d="M80.788,46.147l-0.542,4.195l-1.353,3.112l-2.437,3.248l-3.111,2.3l-3.789,1.218l-1.354,0.136h-0.677h-0.677
	l-3.924-0.812l-3.383-2.03l-2.707-2.842l-1.759-3.653L54.264,47.5v-0.677v-0.677V5.28h26.523V46.147z"/>
<path fill="#B2E5E5" d="M71.044,46.147l-0.135,4.195l-0.406,3.789l-0.813,3.383l-2.03,2.842h-0.135h-0.135l-2.165-3.248
	l-0.812-3.653l-0.406-3.789V47.5v-0.677v-0.677V5.28h7.037V46.147z"/>
<path fill="none" stroke="#000000" stroke-width="2" d="M95.808,46.147l-0.812,3.519l-2.571,3.248l-3.112,2.3l-3.789,1.895
	l-3.384,1.218l-3.653,0.947l-3.925,0.677l-4.194,0.406h-1.353h-1.489h-1.488l-4.195-0.271l-4.06-0.541l-3.654-0.947l-3.518-1.083
	l-4.06-1.759l-3.248-2.301l-2.842-3.112l-1.218-3.519v-0.677V3.791h56.564V46.147"/>
<path fill="none" stroke="#000000" stroke-width="2" d="M54.264,58.597V3.791"/>
</svg>
