<?xml version="1.0" encoding="utf-8"?>
<!-- Generator: Adobe Illustrator 14.0.0, SVG Export Plug-In . SVG Version: 6.00 Build 43363)  -->
<!DOCTYPE svg PUBLIC "-//W3C//DTD SVG 1.1//EN" "http://www.w3.org/Graphics/SVG/1.1/DTD/svg11.dtd">
<svg version="1.1" id="图层_1" xmlns="http://www.w3.org/2000/svg" xmlns:xlink="http://www.w3.org/1999/xlink" x="0px" y="0px"
	 width="108.562px" height="106.502px" viewBox="0 0 108.562 106.502" enable-background="new 0 0 108.562 106.502"
	 xml:space="preserve">
<path fill="#336666" stroke="#000000" stroke-width="2" d="M32.71,43.363L3.043,72.92l30.536,30.537l20.647-20.974l20.864,20.756
	l30.319-30.21L75.743,43.363V3.045H32.71V43.363z"/>
<path fill="#4C7F7F" d="M35.426,44.775L4.999,74.333l27.059,26.189l22.169-21.517l22.168,21.517l26.407-26.189L73.027,44.775V3.589
	H35.426V44.775z"/>
<path fill="#669999" d="M39.448,46.079L8.585,76.942l20.864,20.973l24.56-24.233l25.212,24.233l20.647-20.973L69.006,46.079V3.589
	H39.448V46.079z"/>
<path fill="#7FB2B2" d="M43.794,48.035L11.41,80.201l14.562,14.345l28.037-27.819l28.254,28.036l14.345-14.344L64.224,48.035
	l0.218-44.446H43.794V48.035z"/>
<path fill="#B2E5E5" d="M51.618,51.404L17.17,85.743l3.694,3.695l33.362-34.014l33.579,33.579l3.478-3.261l-34.449-34.34V3.589
	h-5.216V51.404z"/>
<path fill="#336666" d="M73.678,42.928l0.652,1.63l-19.669,8.693l-0.869-1.63L73.678,42.928z"/>
<path fill="#336666" d="M33.906,44.775l0.869-1.847l19.887,8.693l-0.869,1.63L33.906,44.775z"/>
<path fill="#336666" d="M55.204,81.071h-1.956V52.382h1.956V81.071z"/>
<path fill="none" stroke="#000000" stroke-width="2" d="M54.227,52.164v30.319"/>
<path fill="none" stroke="#000000" stroke-width="2" d="M32.71,43.363l21.517,8.802l21.517-8.802"/>
</svg>
