<?xml version="1.0" encoding="utf-8"?>
<!-- Generator: Adobe Illustrator 14.0.0, SVG Export Plug-In . SVG Version: 6.00 Build 43363)  -->
<!DOCTYPE svg PUBLIC "-//W3C//DTD SVG 1.1//EN" "http://www.w3.org/Graphics/SVG/1.1/DTD/svg11.dtd">
<svg version="1.1" id="图层_1" xmlns="http://www.w3.org/2000/svg" xmlns:xlink="http://www.w3.org/1999/xlink" x="0px" y="0px"
	 width="104.472px" height="106.502px" viewBox="0 0 104.472 106.502" enable-background="new 0 0 104.472 106.502"
	 xml:space="preserve">
<path fill="#336666" stroke="#000000" stroke-width="2" d="M42.535,74.306l28.996,29.103l29.957-29.956L80.913,53.198l20.255-20.468
	L71.638,2.988L42.535,32.09H2.985v42.216H42.535z"/>
<path fill="#4C7F7F" d="M43.921,71.641l28.997,29.742l25.691-26.438L77.501,53.198L98.609,31.45L72.917,5.546L43.921,34.755H3.518
	v36.886H43.921z"/>
<path fill="#669999" d="M45.2,67.697l30.276,30.275l20.468-20.469L72.277,53.411l23.667-24.732L75.476,8.424L45.2,38.699H3.518
	v28.997H45.2z"/>
<path fill="#7FB2B2" d="M47.119,63.432l31.554,31.768l14.072-14.284L65.455,53.411l27.504-27.718L78.887,11.622L47.119,43.39
	L3.518,43.177v20.255H47.119z"/>
<path fill="#B2E5E5" d="M50.424,55.756L84.111,89.55l3.625-3.625L54.369,53.198l33.047-32.94l-3.305-3.411L50.424,50.64H3.518v5.116
	H50.424z"/>
<path fill="#336666" d="M42.108,34.115l1.706-0.64l8.421,19.296l-1.599,0.853L42.108,34.115z"/>
<path fill="#336666" d="M43.921,73.133l-1.813-0.853l8.528-19.509l1.599,0.853L43.921,73.133z"/>
<path fill="#336666" d="M79.527,52.239v1.919H51.383v-1.919H79.527z"/>
<path fill="none" stroke="#000000" stroke-width="2" d="M51.17,53.198h29.743"/>
<path fill="none" stroke="#000000" stroke-width="2" d="M42.535,74.306l8.635-21.108L42.535,32.09"/>
</svg>
