<?xml version="1.0" encoding="utf-8"?>
<!-- Generator: Adobe Illustrator 14.0.0, SVG Export Plug-In . SVG Version: 6.00 Build 43363)  -->
<!DOCTYPE svg PUBLIC "-//W3C//DTD SVG 1.1//EN" "http://www.w3.org/Graphics/SVG/1.1/DTD/svg11.dtd">
<svg version="1.1" id="图层_1" xmlns="http://www.w3.org/2000/svg" xmlns:xlink="http://www.w3.org/1999/xlink" x="0px" y="0px"
	 width="108.562px" height="106.502px" viewBox="0 0 108.562 106.502" enable-background="new 0 0 108.562 106.502"
	 xml:space="preserve">
<path fill="#336666" stroke="#000000" stroke-width="2" d="M75.743,63.031l29.667-29.449L74.874,3.045L54.227,23.91L33.362,3.263
	L3.043,33.365L32.71,63.031v40.316h43.033V63.031z"/>
<path fill="#4C7F7F" d="M73.027,61.618l30.318-29.558L76.395,5.871L54.227,27.388L32.058,5.871L5.651,32.061l29.775,29.558v41.187
	h37.601V61.618z"/>
<path fill="#669999" d="M69.006,60.423l30.862-30.971L79.003,8.588l-24.56,24.124L29.233,8.588L8.585,29.452l30.862,30.971v42.382
	h29.559V60.423z"/>
<path fill="#7FB2B2" d="M64.658,58.359l32.384-32.166L82.481,11.848L54.444,39.667L26.19,11.63L11.845,25.975l32.384,32.384
	l-0.218,44.446h20.647V58.359z"/>
<path fill="#B2E5E5" d="M56.834,54.99l34.449-34.34l-3.695-3.694L54.227,50.969L20.648,17.39l-3.478,3.26l34.448,34.34v47.815h5.216
	V54.99z"/>
<path fill="#336666" d="M34.775,63.466l-0.652-1.63l19.67-8.585l0.869,1.63L34.775,63.466z"/>
<path fill="#336666" d="M74.548,61.618l-0.87,1.848l-19.886-8.585l0.869-1.63L74.548,61.618z"/>
<path fill="#336666" d="M53.248,25.323h1.956v28.689h-1.956V25.323z"/>
<path fill="none" stroke="#000000" stroke-width="2" d="M54.227,54.229V23.91"/>
<path fill="none" stroke="#000000" stroke-width="2" d="M75.743,63.031l-21.517-8.803L32.71,63.031"/>
</svg>
