<?xml version="1.0" encoding="utf-8"?>
<!-- Generator: Adobe Illustrator 14.0.0, SVG Export Plug-In . SVG Version: 6.00 Build 43363)  -->
<!DOCTYPE svg PUBLIC "-//W3C//DTD SVG 1.1//EN" "http://www.w3.org/Graphics/SVG/1.1/DTD/svg11.dtd">
<svg version="1.1" id="图层_1" xmlns="http://www.w3.org/2000/svg" xmlns:xlink="http://www.w3.org/1999/xlink" x="0px" y="0px"
	 width="104.472px" height="106.502px" viewBox="0 0 104.472 106.502" enable-background="new 0 0 104.472 106.502"
	 xml:space="preserve">
<path fill="#336666" stroke="#000000" stroke-width="2" d="M61.831,32.09L32.94,2.988L2.985,32.944l20.468,20.254L3.091,73.666
	l29.636,29.742l29.103-29.103h39.657V32.09H61.831z"/>
<path fill="#4C7F7F" d="M60.445,34.755L31.448,4.906L5.757,31.45l21.107,21.747L5.757,74.946l25.691,25.904l28.997-29.209h40.402
	V34.755H60.445z"/>
<path fill="#669999" d="M59.272,38.699L28.89,8.318L8.315,28.892l23.773,24.093L8.315,77.717L28.89,98.078l30.382-30.382h41.575
	V38.699H59.272z"/>
<path fill="#7FB2B2" d="M57.247,42.964L25.691,11.196L11.62,25.481l27.291,27.504L11.407,80.701l14.072,14.072l31.768-31.769
	l43.601,0.214V42.964H57.247z"/>
<path fill="#B2E5E5" d="M54.048,50.532L20.255,16.846L16.63,20.47l33.367,32.728l-32.94,32.941l3.198,3.411l33.793-33.688h46.799
	v-5.33H54.048z"/>
<path fill="#336666" d="M62.257,72.281l-1.6,0.639l-8.422-19.295l1.6-0.853L62.257,72.281z"/>
<path fill="#336666" d="M60.445,33.263l1.813,0.853l-8.422,19.509l-1.6-0.853L60.445,33.263z"/>
<path fill="#336666" d="M24.839,54.157v-1.919h28.143v1.919H24.839z"/>
<path fill="none" stroke="#000000" stroke-width="2" d="M53.195,53.198H23.453"/>
<path fill="none" stroke="#000000" stroke-width="2" d="M61.831,32.09l-8.636,21.107l8.636,21.108"/>
</svg>
