<?xml version="1.0" encoding="utf-8"?>
<!-- Generator: Adobe Illustrator 14.0.0, SVG Export Plug-In . SVG Version: 6.00 Build 43363)  -->
<!DOCTYPE svg PUBLIC "-//W3C//DTD SVG 1.1//EN" "http://www.w3.org/Graphics/SVG/1.1/DTD/svg11.dtd">
<svg version="1.1" id="图层_1" xmlns="http://www.w3.org/2000/svg" xmlns:xlink="http://www.w3.org/1999/xlink" x="0px" y="0px"
	 width="144.749px" height="42.307px" viewBox="0 0 144.749 42.307" enable-background="new 0 0 144.749 42.307"
	 xml:space="preserve">
<path fill="#4C4C4C" stroke="#000000" stroke-width="2" d="M4.06,4.057h136.484v34.049H4.06V4.057z"/>
<path fill="#BFBFBF" stroke="#000000" stroke-width="2" d="M9.71,6.81h11.591v6.23H9.71V6.81z"/>
<path fill="#BFBFBF" stroke="#000000" stroke-width="2" d="M22.316,6.81h11.593v6.23H22.316V6.81z"/>
<path fill="#BFBFBF" stroke="#000000" stroke-width="2" d="M34.921,6.81h11.591v6.23H34.921V6.81z"/>
<path fill="#BFBFBF" stroke="#000000" stroke-width="2" d="M123.302,6.81h11.592v6.23h-11.592V6.81z"/>
<path fill="#BFBFBF" stroke="#000000" stroke-width="2" d="M47.527,6.81h11.593v6.23H47.527V6.81z"/>
<path fill="#BFBFBF" stroke="#000000" stroke-width="2" d="M60.131,6.81h11.592v6.23H60.131V6.81z"/>
<path fill="#BFBFBF" stroke="#000000" stroke-width="2" d="M72.881,6.81h11.446v6.23H72.881V6.81z"/>
<path fill="#BFBFBF" stroke="#000000" stroke-width="2" d="M85.487,6.81h11.593v6.23H85.487V6.81z"/>
<path fill="#BFBFBF" stroke="#000000" stroke-width="2" d="M98.092,6.81h11.591v6.23H98.092V6.81z"/>
<path fill="#BFBFBF" stroke="#000000" stroke-width="2" d="M110.698,6.81h11.591v6.23h-11.591V6.81z"/>
<path fill="#BFBFBF" stroke="#000000" stroke-width="2" d="M9.71,14.199h11.591v6.229H9.71V14.199z"/>
<path fill="#BFBFBF" stroke="#000000" stroke-width="2" d="M22.316,14.199h11.593v6.229H22.316V14.199z"/>
<path fill="#BFBFBF" stroke="#000000" stroke-width="2" d="M34.921,14.199h11.591v6.229H34.921V14.199z"/>
<path fill="#BFBFBF" stroke="#000000" stroke-width="2" d="M123.302,14.199h11.592v6.229h-11.592V14.199z"/>
<path fill="#BFBFBF" stroke="#000000" stroke-width="2" d="M47.527,14.199h11.593v6.229H47.527V14.199z"/>
<path fill="#BFBFBF" stroke="#000000" stroke-width="2" d="M60.131,14.199h11.592v6.229H60.131V14.199z"/>
<path fill="#BFBFBF" stroke="#000000" stroke-width="2" d="M72.881,14.199h11.446v6.229H72.881V14.199z"/>
<path fill="#BFBFBF" stroke="#000000" stroke-width="2" d="M85.487,14.199h11.593v6.229H85.487V14.199z"/>
<path fill="#BFBFBF" stroke="#000000" stroke-width="2" d="M98.092,14.199h11.591v6.229H98.092V14.199z"/>
<path fill="#BFBFBF" stroke="#000000" stroke-width="2" d="M110.698,14.199h11.591v6.229h-11.591V14.199z"/>
<path fill="#BFBFBF" stroke="#000000" stroke-width="2" d="M9.71,21.734h11.591v6.085H9.71V21.734z"/>
<path fill="#BFBFBF" stroke="#000000" stroke-width="2" d="M22.316,21.734h11.593v6.085H22.316V21.734z"/>
<path fill="#BFBFBF" stroke="#000000" stroke-width="2" d="M34.921,21.734h11.591v6.085H34.921V21.734z"/>
<path fill="#BFBFBF" stroke="#000000" stroke-width="2" d="M123.302,21.734h11.592v6.085h-11.592V21.734z"/>
<path fill="#BFBFBF" stroke="#000000" stroke-width="2" d="M47.527,21.734h11.593v6.085H47.527V21.734z"/>
<path fill="#BFBFBF" stroke="#000000" stroke-width="2" d="M60.131,21.734h11.592v6.085H60.131V21.734z"/>
<path fill="#BFBFBF" stroke="#000000" stroke-width="2" d="M72.881,21.734h11.446v6.085H72.881V21.734z"/>
<path fill="#BFBFBF" stroke="#000000" stroke-width="2" d="M85.487,21.734h11.593v6.085H85.487V21.734z"/>
<path fill="#BFBFBF" stroke="#000000" stroke-width="2" d="M98.092,21.734h11.591v6.085H98.092V21.734z"/>
<path fill="#BFBFBF" stroke="#000000" stroke-width="2" d="M110.698,21.734h11.591v6.085h-11.591V21.734z"/>
<path fill="#BFBFBF" stroke="#000000" stroke-width="2" d="M9.71,29.122h11.591v6.229H9.71V29.122z"/>
<path fill="#BFBFBF" stroke="#000000" stroke-width="2" d="M22.316,29.122h11.593v6.229H22.316V29.122z"/>
<path fill="#BFBFBF" stroke="#000000" stroke-width="2" d="M34.921,29.122h11.591v6.229H34.921V29.122z"/>
<path fill="#BFBFBF" stroke="#000000" stroke-width="2" d="M123.302,29.122h11.592v6.229h-11.592V29.122z"/>
<path fill="#BFBFBF" stroke="#000000" stroke-width="2" d="M47.527,29.122h11.593v6.229H47.527V29.122z"/>
<path fill="#BFBFBF" stroke="#000000" stroke-width="2" d="M60.131,29.122h11.592v6.229H60.131V29.122z"/>
<path fill="#BFBFBF" stroke="#000000" stroke-width="2" d="M72.881,29.122h11.446v6.229H72.881V29.122z"/>
<path fill="#BFBFBF" stroke="#000000" stroke-width="2" d="M85.487,29.122h11.593v6.229H85.487V29.122z"/>
<path fill="#BFBFBF" stroke="#000000" stroke-width="2" d="M98.092,29.122h11.591v6.229H98.092V29.122z"/>
<path fill="#BFBFBF" stroke="#000000" stroke-width="2" d="M110.698,29.122h11.591v6.229h-11.591V29.122z"/>
<path fill="#CC9933" d="M60.856,4.781H83.75v1.304H60.856V4.781z"/>
<image overflow="visible" width="188" height="47" xlink:href="Annunciator.png"  transform="matrix(1 0 0 1 -402.2659 -224.9011)">
</image>
<image overflow="visible" width="71" height="138" xlink:href="Black cursor arrow.png"  transform="matrix(1 0 0 1 -296.2659 -133.9011)">
</image>
</svg>
