<?xml version="1.0" encoding="utf-8"?>
<!-- Generator: Adobe Illustrator 14.0.0, SVG Export Plug-In . SVG Version: 6.00 Build 43363)  -->
<!DOCTYPE svg PUBLIC "-//W3C//DTD SVG 1.1//EN" "http://www.w3.org/Graphics/SVG/1.1/DTD/svg11.dtd">
<svg version="1.1" id="图层_1" xmlns="http://www.w3.org/2000/svg" xmlns:xlink="http://www.w3.org/1999/xlink" x="0px" y="0px"
	 width="83.901px" height="106.502px" viewBox="0 0 83.901 106.502" enable-background="new 0 0 83.901 106.502"
	 xml:space="preserve">
<path fill="#400D00" stroke="#000000" stroke-width="2" d="M80.916,17.271v80.063l-0.427,2.238l-1.386,2.133l-2.025,1.279
	l-2.346,0.426H9.062l-2.238-0.426l-2.133-1.279l-1.279-1.279l-0.426-2.133l6.076-87.206h65.671l2.133,0.427l2.238,1.386l1.386,2.025
	L80.916,17.271z"/>
<path fill="#7F4C00" stroke="#000000" stroke-width="2" d="M78.784,17.271l-0.427-2.239L76.972,12.9l-2.025-1.492l-2.346-0.32H9.062
	l-2.238,0.427L4.691,12.9l-1.386,2.025l-0.319,2.346v80.063l0.213,1.492l0.959,1.386l1.387,0.854l1.492,0.319h67.696l1.493-0.319
	l1.386-0.854l0.959-1.386l0.214-1.492V17.271z"/>
<path fill="#592600" d="M5.97,15.245h71.854v85.181H5.97V15.245z"/>
<path fill="#FFFFF7" d="M5.011,14.179h71.748V99.36H5.011V14.179z"/>
<path fill="#F2F2D8" d="M50.107,23.134l-0.32,0.853l-0.959,0.854l-1.493,0.427l-1.705,0.213l-1.706-0.213l-1.492-0.427l-0.96-0.854
	l-0.319-0.853h-8.423l-1.172-0.64l-1.066-2.452l-8.955-0.64l-3.198-1.813l2.025-3.411h42.004l6.184,5.224l-7.144,0.64l-2.025,2.452
	l-1.173,0.64H50.107z"/>
<path fill="#4C4C4C" d="M18.337,18.23v-0.64h45.096v0.64H18.337z"/>
<path fill="#4C4C4C" d="M44.776,5.757L42.75,4.904l-1.279-0.213l-1.279,0.213l-1.173,0.64l-0.746,1.173L38.06,7.995l0.213,1.279
	l0.64,1.279l-2.025-0.319V5.757l3.944-2.239L44.776,5.757z"/>
<path fill="#B2B2B2" d="M45.415,7.463h6.717l1.173,1.065l1.173,4.584l6.716,1.173H20.575l6.717-1.173l1.173-4.584l1.065-1.065h6.823
	l0.32-1.706l0.959-1.493l1.492-1.065l1.706-0.214v1.066l-1.279,0.213l-1.066,0.747L37.74,6.184l-0.213,1.279l0.213,1.279
	l0.746,1.172l1.066,0.747h2.559l1.173-0.747l0.746-1.172l0.213-1.279L44.03,6.184l-0.746-1.173l-1.173-0.747l-1.279-0.213V2.985
	l1.706,0.214l1.599,1.065l0.96,1.493L45.415,7.463z"/>
<path fill="#999999" d="M20.575,14.285l-2.238,3.305h45.096l-2.239-3.305H20.575z"/>
<path fill="none" stroke="#000000" stroke-width="2" d="M45.415,7.463l-0.319-1.706l-0.96-1.493l-1.599-1.065l-1.706-0.214
	l-1.706,0.214l-1.492,1.065l-0.959,1.493l-0.32,1.706h-6.823l-1.065,1.065l-1.173,4.584l-6.717,1.173l-2.238,3.305h45.096
	l-2.239-3.305l-6.716-1.173l-1.173-4.584l-1.173-1.065H45.415"/>
<circle fill="none" stroke="#000000" stroke-width="2" cx="40.831" cy="7.356" r="3.305"/>
<path fill="#FFFFFF" d="M28.678,13.113V12.58h24.413v0.532H28.678z"/>
<ellipse fill="#FFFFF7" cx="45.842" cy="23.028" rx="3.198" ry="1.706"/>
</svg>
