<?xml version="1.0" encoding="utf-8"?>
<!-- Generator: Adobe Illustrator 14.0.0, SVG Export Plug-In . SVG Version: 6.00 Build 43363)  -->
<!DOCTYPE svg PUBLIC "-//W3C//DTD SVG 1.1//EN" "http://www.w3.org/Graphics/SVG/1.1/DTD/svg11.dtd">
<svg version="1.1" id="图层_1" xmlns="http://www.w3.org/2000/svg" xmlns:xlink="http://www.w3.org/1999/xlink" x="0px" y="0px"
	 width="81.446px" height="106.502px" viewBox="0 0 81.446 106.502" enable-background="new 0 0 81.446 106.502"
	 xml:space="preserve">
<path fill="#FFFFFF" d="M11.513,53.198L3.198,49.04V3.2h75.05v45.84l-8.422,4.157v49.998H11.513V53.198z"/>
<path d="M2.985,49.04l0.106,0.213l8.315,4.158l0.214-0.427l-8.315-4.157l0.106,0.213H2.985v0.106l0.106,0.106L2.985,49.04z"/>
<path d="M3.198,2.987L2.985,3.2v45.84h0.427V3.2L3.198,3.413V2.987H2.985V3.2L3.198,2.987z"/>
<path d="M78.461,3.2l-0.213-0.214H3.198v0.427h75.05L78.035,3.2H78.461V2.987h-0.213L78.461,3.2z"/>
<path d="M78.355,49.253l0.106-0.213V3.2h-0.426v45.84l0.106-0.213L78.355,49.253l0.106-0.106V49.04L78.355,49.253z"/>
<path d="M70.147,53.198l-0.214,0.214l8.422-4.158l-0.213-0.426l-8.422,4.157l-0.106,0.213l0.106-0.213l-0.106,0.106v0.106H70.147z"
	/>
<path d="M69.826,103.409l0.32-0.214V53.198h-0.533v49.998l0.213-0.213V103.409h0.32v-0.214L69.826,103.409z"/>
<path d="M11.3,103.196l0.213,0.214h58.313v-0.427H11.513l0.214,0.213H11.3v0.214h0.213L11.3,103.196z"/>
<path d="M11.406,53.411L11.3,53.198v49.998h0.427V53.198l-0.106-0.213l0.106,0.213v-0.106l-0.106-0.106L11.406,53.411z"/>
<path fill="#FFFFFF" stroke="#7F7F7F" stroke-width="2" d="M15.671,50.107l-8.315-4.158V7.358h66.628v38.591l-8.314,4.158H15.671z"
	/>
<path fill="#FFFFFF" stroke="#7F7F7F" stroke-width="2" d="M15.671,53.198h49.998v45.841H15.671V53.198z"/>
<path fill="#7F7F7F" stroke="#000000" stroke-width="2" d="M10.448,15.673h60.445v25.052H10.448V15.673z"/>
<path fill="#E5E5E5" stroke="#000000" stroke-width="2" d="M13.646,19.83h54.155v16.737H13.646V19.83z"/>
<path fill="#FFFFFF" stroke="#000000" stroke-width="2" d="M18.336,54.797h7.249v5.97h-7.249V54.797z"/>
<path fill="#FFFFFF" stroke="#000000" stroke-width="2" d="M18.336,62.046h7.249v5.97h-7.249V62.046z"/>
<path fill="#FFFFFF" stroke="#000000" stroke-width="2" d="M18.336,69.402h7.249v5.97h-7.249V69.402z"/>
<path fill="#FFFFFF" stroke="#000000" stroke-width="2" d="M18.336,76.758h7.249v5.97h-7.249V76.758z"/>
<path fill="#FFFFFF" stroke="#000000" stroke-width="2" d="M18.336,84.007h7.249v5.97h-7.249V84.007z"/>
<path fill="#FF0000" stroke="#000000" stroke-width="2" d="M18.336,91.363h7.249v5.97h-7.249V91.363z"/>
<path fill="#FFFFFF" stroke="#000000" stroke-width="2" d="M27.611,54.904h7.355v5.97h-7.355V54.904z"/>
<path fill="#FFFFFF" stroke="#000000" stroke-width="2" d="M27.611,62.259h7.355v5.971h-7.355V62.259z"/>
<path fill="#FFFFFF" stroke="#000000" stroke-width="2" d="M27.611,69.508h7.355v5.971h-7.355V69.508z"/>
<path fill="#FFFFFF" stroke="#000000" stroke-width="2" d="M27.611,76.865h7.355v5.97h-7.355V76.865z"/>
<path fill="#FFFFFF" stroke="#000000" stroke-width="2" d="M27.611,84.22h7.355v5.97h-7.355V84.22z"/>
<path fill="#FFFFFF" stroke="#000000" stroke-width="2" d="M27.611,91.469h7.355v5.97h-7.355V91.469z"/>
<path fill="#FFFFFF" stroke="#000000" stroke-width="2" d="M36.992,54.904h7.355v5.97h-7.355V54.904z"/>
<path fill="#FFFFFF" stroke="#000000" stroke-width="2" d="M36.992,62.259h7.355v5.971h-7.355V62.259z"/>
<path fill="#FFFFFF" stroke="#000000" stroke-width="2" d="M36.992,69.508h7.355v5.971h-7.355V69.508z"/>
<path fill="#FFFFFF" stroke="#000000" stroke-width="2" d="M36.992,76.865h7.355v5.97h-7.355V76.865z"/>
<path fill="#FFFFFF" stroke="#000000" stroke-width="2" d="M36.992,84.22h7.355v5.97h-7.355V84.22z"/>
<path fill="#FFFFFF" stroke="#000000" stroke-width="2" d="M36.992,91.469h7.355v5.97h-7.355V91.469z"/>
<path fill="#FFFFFF" stroke="#000000" stroke-width="2" d="M46.48,54.904h7.249v5.97H46.48V54.904z"/>
<path fill="#FFFFFF" stroke="#000000" stroke-width="2" d="M46.48,62.259h7.249v5.971H46.48V62.259z"/>
<path fill="#FFFFFF" stroke="#000000" stroke-width="2" d="M46.48,69.508h7.249v5.971H46.48V69.508z"/>
<path fill="#FFFFFF" stroke="#000000" stroke-width="2" d="M46.48,76.865h7.249v5.97H46.48V76.865z"/>
<path fill="#FFFFFF" stroke="#000000" stroke-width="2" d="M46.48,84.22h7.249v5.97H46.48V84.22z"/>
<path fill="#FFFFFF" stroke="#000000" stroke-width="2" d="M55.754,54.904h7.356v5.97h-7.356V54.904z"/>
<path fill="#FFFFFF" stroke="#000000" stroke-width="2" d="M55.754,62.259h7.356v5.971h-7.356V62.259z"/>
<path fill="#FFFFFF" stroke="#000000" stroke-width="2" d="M55.754,69.508h7.356v5.971h-7.356V69.508z"/>
<path fill="#FFFFFF" stroke="#000000" stroke-width="2" d="M55.754,76.865h7.356v5.97h-7.356V76.865z"/>
<path fill="#FFFFFF" stroke="#000000" stroke-width="2" d="M55.754,84.22h7.356v5.97h-7.356V84.22z"/>
<path fill="#FFFFFF" stroke="#000000" stroke-width="2" d="M46.373,91.469h16.737v5.97H46.373V91.469z"/>
<path fill="#FFFFFF" stroke="#000000" stroke-width="2" d="M49.572,47.974l0.533,0.533l-0.533,0.533h-0.213l-0.32-0.319v-0.214
	v-0.213l0.32-0.213L49.572,47.974z"/>
</svg>
