<?xml version="1.0" encoding="utf-8"?>
<!-- Generator: Adobe Illustrator 14.0.0, SVG Export Plug-In . SVG Version: 6.00 Build 43363)  -->
<!DOCTYPE svg PUBLIC "-//W3C//DTD SVG 1.1//EN" "http://www.w3.org/Graphics/SVG/1.1/DTD/svg11.dtd">
<svg version="1.1" id="图层_1" xmlns="http://www.w3.org/2000/svg" xmlns:xlink="http://www.w3.org/1999/xlink" x="0px" y="0px"
	 width="56.289px" height="106.502px" viewBox="0 0 56.289 106.502" enable-background="new 0 0 56.289 106.502"
	 xml:space="preserve">
<path fill="#FF7F00" stroke="#000000" stroke-width="2" d="M2.985,7.143l1.386-2.771l2.025-1.279l0.747-0.107h1.386h40.618
	l2.771,1.387l1.279,2.025l0.107,0.746v2.879v89.231l-1.387,2.878l-2.025,1.173l-0.746,0.106h-1.386H7.143l-2.772-1.279l-1.279-2.132
	l-0.107-0.746v-2.879V7.143z"/>
<path fill="#FF9900" stroke="#000000" stroke-width="2" d="M2.985,15.565l1.386-2.878l2.025-1.173l0.747-0.106h1.386h40.618
	l2.771,1.279l1.279,2.132l0.107,0.746v2.879v72.601l-1.387,2.878l-2.025,1.173l-0.746,0.106h-1.386H7.143l-2.772-1.279L3.092,91.79
	l-0.107-0.746v-2.879V15.565z"/>
<path fill="#4C4C4C" stroke="#000000" stroke-width="2" d="M5.224,17.59l1.279-2.771l2.132-1.173l0.747-0.106h1.279h36.46
	l2.771,1.279l1.174,2.025v0.746v2.772v68.442l-1.174,2.985l-2.025,1.173l-0.746,0.106h-1.279H9.382L6.503,91.79l-1.279-2.132v-0.854
	v-2.771V17.59z"/>
<path stroke="#000000" stroke-width="2" d="M9.168,19.829h37.74V55.33H9.168V19.829z"/>
<path fill="#99CCCC" stroke="#000000" stroke-width="2" d="M12.367,21.855h31.556v31.45H12.367V21.855z"/>
<path fill="#0000FF" stroke="#000000" stroke-width="2" d="M9.382,58.529h5.757v3.198H9.382V58.529z"/>
<path fill="#0000FF" stroke="#000000" stroke-width="2" d="M17.377,58.529h5.863v3.198h-5.863V58.529z"/>
<path fill="#0000FF" stroke="#000000" stroke-width="2" d="M25.266,58.529h5.757v3.198h-5.757V58.529z"/>
<path fill="#0000FF" stroke="#000000" stroke-width="2" d="M33.262,58.529h5.758v3.198h-5.758V58.529z"/>
<path fill="#0000FF" stroke="#000000" stroke-width="2" d="M41.258,58.529h5.863v3.198h-5.863V58.529z"/>
<path fill="#0000FF" stroke="#000000" stroke-width="2" d="M40.618,67.163l3.305-2.984l3.198,2.984H40.618z"/>
<path fill="#0000FF" stroke="#000000" stroke-width="2" d="M47.121,69.722l-3.198,2.879l-3.305-2.879H47.121z"/>
<path fill="#FF7F00" stroke="#000000" stroke-width="2" d="M9.382,64.179h5.757v3.411H9.382V64.179z"/>
<path fill="#FF7F00" stroke="#000000" stroke-width="2" d="M9.382,69.403h5.757v3.411H9.382V69.403z"/>
<path fill="#333333" stroke="#000000" stroke-width="2" d="M33.262,69.403h5.758v3.411h-5.758V69.403z"/>
<path fill="#333333" stroke="#000000" stroke-width="2" d="M17.377,69.403h5.65v3.411h-5.65V69.403z"/>
<path fill="#333333" stroke="#000000" stroke-width="2" d="M30.277,64.179h8.422v3.411h-8.422V64.179z"/>
<path fill="#333333" stroke="#000000" stroke-width="2" d="M18.763,64.179h8.422v3.411h-8.422V64.179z"/>
<path fill="#333333" stroke="#000000" stroke-width="2" d="M9.382,82.622h5.757v3.198H9.382V82.622z"/>
<path fill="#333333" stroke="#000000" stroke-width="2" d="M17.377,82.622h5.65v3.198h-5.65V82.622z"/>
<path fill="#333333" stroke="#000000" stroke-width="2" d="M25.266,82.622h5.757v3.198h-5.757V82.622z"/>
<path fill="#333333" stroke="#000000" stroke-width="2" d="M33.262,82.622h5.758v3.198h-5.758V82.622z"/>
<path fill="#333333" stroke="#000000" stroke-width="2" d="M41.258,82.622h5.863v3.198h-5.863V82.622z"/>
<path fill="#99CCCC" stroke="#000000" stroke-width="2" d="M25.266,69.403h5.757v3.411h-5.757V69.403z"/>
<path fill="#99CCCC" stroke="#000000" stroke-width="2" d="M9.382,74.093h2.985v7.036H9.382V74.093z"/>
<path fill="#99CCCC" stroke="#000000" stroke-width="2" d="M16.631,74.093h3.198v7.036h-3.198V74.093z"/>
<path fill="#99CCCC" stroke="#000000" stroke-width="2" d="M36.461,74.093h3.197v7.036h-3.197V74.093z"/>
<path fill="#99CCCC" stroke="#000000" stroke-width="2" d="M43.923,74.093h3.198v7.036h-3.198V74.093z"/>
<path fill="#99CCCC" stroke="#000000" stroke-width="2" d="M31.236,74.52v2.878h-7.25V74.52H31.236z"/>
<path fill="#99CCCC" stroke="#000000" stroke-width="2" d="M31.236,78.358v2.771h-7.25v-2.771H31.236z"/>
<path fill="#0000FF" stroke="#000000" stroke-width="2" d="M9.382,87.846h5.757v3.198H9.382V87.846z"/>
<path fill="#0000FF" stroke="#000000" stroke-width="2" d="M17.377,87.846h5.863v3.198h-5.863V87.846z"/>
<path fill="#0000FF" stroke="#000000" stroke-width="2" d="M25.266,87.846h5.757v3.198h-5.757V87.846z"/>
<path fill="#0000FF" stroke="#000000" stroke-width="2" d="M33.262,87.846h5.758v3.198h-5.758V87.846z"/>
<path fill="#0000FF" stroke="#000000" stroke-width="2" d="M41.258,87.846h5.863v3.198h-5.863V87.846z"/>
</svg>
