<?xml version="1.0" encoding="utf-8"?>
<!-- Generator: Adobe Illustrator 14.0.0, SVG Export Plug-In . SVG Version: 6.00 Build 43363)  -->
<!DOCTYPE svg PUBLIC "-//W3C//DTD SVG 1.1//EN" "http://www.w3.org/Graphics/SVG/1.1/DTD/svg11.dtd">
<svg version="1.1" id="图层_1" xmlns="http://www.w3.org/2000/svg" xmlns:xlink="http://www.w3.org/1999/xlink" x="0px" y="0px"
	 width="54.101px" height="106.502px" viewBox="0 0 54.101 106.502" enable-background="new 0 0 54.101 106.502"
	 xml:space="preserve">
<path fill="#B2B2B2" stroke="#000000" stroke-width="2" d="M46.738,97.001l0.32-1.601l0.747-0.533h1.067v4.269h-1.067l-0.747-0.534
	L46.738,97.001z"/>
<path fill="#B2B2B2" stroke="#000000" stroke-width="2" d="M12.805,97.001l0.32-1.494l0.747-0.64h1.066v4.269h-1.066l-0.747-0.641
	L12.805,97.001z"/>
<path fill="#B2B2B2" stroke="#000000" stroke-width="2" d="M37.348,100.843l0.427-2.027l0.96-0.747h1.388v5.442h-1.388l-0.96-0.747
	L37.348,100.843z"/>
<path fill="#B2B2B2" stroke="#000000" stroke-width="2" d="M3.841,100.737l0.32-1.921l0.961-0.747h1.387v5.442H5.122l-0.961-0.747
	L3.841,100.737z"/>
<path fill="#333333" stroke="#000000" stroke-width="2" d="M47.805,97.001l0.32-1.601l0.747-0.533l0.747,0.533l0.319,1.601
	l-0.319,1.601l-0.747,0.534l-0.747-0.534L47.805,97.001z"/>
<path fill="#333333" stroke="#000000" stroke-width="2" d="M38.735,100.843l0.427-2.027l0.961-0.747l0.96,0.747l0.427,2.027
	l-0.427,1.921l-0.96,0.747l-0.961-0.747L38.735,100.843z"/>
<path fill="#333333" stroke="#000000" stroke-width="2" d="M13.872,97.001l0.319-1.494l0.747-0.64l0.854,0.64l0.319,1.494
	l-0.319,1.494l-0.854,0.641l-0.747-0.641L13.872,97.001z"/>
<path fill="#333333" stroke="#000000" stroke-width="2" d="M5.122,100.737l0.427-1.921l0.96-0.747l0.961,0.747l0.427,1.921
	l-0.427,2.027l-0.961,0.747l-0.96-0.747L5.122,100.737z"/>
<path fill="#001999" stroke="#000000" stroke-width="2" d="M49.939,92.626v1.601l-8.216,4.375v-1.601L49.939,92.626z"/>
<path fill="#004CCC" stroke="#000000" stroke-width="2" d="M3.522,97.001v1.601h38.201v-1.601H3.522z"/>
<path fill="#004CCC" stroke="#000000" stroke-width="2" d="M51.113,92.626V2.991l-8.75,4.376v89.634L51.113,92.626z"/>
<path fill="#007FFF" d="M2.988,97.001v-52.5l1.067-0.533v-5.976H2.988V7.367h39.375v30.625l1.067-0.641v6.616l-1.067,0.533v52.5
	H2.988z"/>
<path fill="#004CCC" d="M42.363,37.992l1.067-0.641v6.616H4.055v-5.976H42.363z"/>
<path fill="#7FBFFF" stroke="#000000" stroke-width="2" d="M2.988,7.367h39.375l8.75-4.376H11.738L2.988,7.367z"/>
<path fill="#0065E5" d="M9.497,11.742h26.25v17.5H9.497V11.742z"/>
<path fill="#004CCC" d="M11.738,11.742l-1.174,16.326l-1.066,1.174v-17.5H11.738z"/>
<path fill="#004CCC" d="M12.805,53.251v33.933l-1.067,1.067v-35H12.805z"/>
<path fill="#7FBFFF" d="M9.497,29.242l1.066-1.174h25.184v1.174H9.497z"/>
<path fill="#7FBFFF" d="M11.738,88.251l1.067-1.067h20.808v1.067H11.738z"/>
<path fill="#7FBFFF" d="M2.988,44.501h39.375l1.067-0.533H4.055L2.988,44.501z"/>
<path fill="none" stroke="#004CCC" stroke-width="2" d="M9.497,11.742h26.25"/>
<path fill="none" stroke="#004CCC" stroke-width="2" d="M11.738,53.358h21.875"/>
<path fill="none" stroke="#7FBFFF" stroke-width="2" d="M35.747,29.242v-17.5"/>
<path fill="none" stroke="#7FBFFF" stroke-width="2" d="M33.613,88.251V53.358"/>
<path d="M13.872,27.001l-1.067-1.067l1.067-12.058l1.066-1.174h17.5l1.174,1.174l-1.066,12.058l-1.174,1.067H13.872z"/>
<path fill="#263A59" d="M14.406,26.468l-1.067-1.067l1.067-10.991l1.067-1.066h16.433l1.067,1.066l-1.067,10.991l-1.067,1.067
	H14.406z"/>
<path fill="none" stroke="#FFFFFF" stroke-width="2" d="M26.997,19.319l-3.842-3.842"/>
<path fill="none" stroke="#FFFFFF" stroke-width="2" d="M21.555,24.867l-2.774-2.774"/>
<path fill="#FFFFFF" d="M27.531,23.159l-3.842-3.308l-3.841-5.442l4.375,4.375L27.531,23.159z"/>
<path fill="#333333" d="M37.348,40.98l0.64-1.387l1.281-0.534l1.387,0.534l0.533,1.387l-0.533,1.388l-1.387,0.533l-1.281-0.533
	L37.348,40.98z"/>
<path fill="#333333" d="M22.088,40.98l0.214-0.64l0.641-0.214l0.533,0.214l0.213,0.64l-0.213,0.533l-0.533,0.214l-0.641-0.214
	L22.088,40.98z"/>
<path fill="#333333" d="M6.189,40.98l0.534-1.387l1.387-0.534l1.388,0.534l0.533,1.387l-0.533,1.388L8.11,42.901l-1.387-0.533
	L6.189,40.98z"/>
<path fill="#004CCC" d="M2.988,9.501V8.968h38.201v0.533H2.988z"/>
<path fill="#666666" d="M37.988,27.001v-6.616h2.241v6.616H37.988z"/>
<path fill="#666666" d="M37.988,62.001v-6.616h2.241v6.616H37.988z"/>
<path fill="#666666" d="M37.988,86.011v-6.51h2.241v6.51H37.988z"/>
<path d="M39.055,84.944v-5.442h-1.067v6.51h2.135v-1.067H39.055z"/>
<path d="M39.055,60.934v-5.441h-1.067v6.509h2.135v-1.067H39.055z"/>
<path d="M39.055,25.934v-5.441h-1.067v6.509h2.135v-1.067H39.055z"/>
<path fill="none" stroke="#000000" stroke-width="2" d="M2.988,97.001v-52.5l1.067-0.533v-5.976H2.988V7.367h39.375v30.625
	l1.067-0.641v6.616l-1.067,0.533v52.5H2.988"/>
<path fill="none" stroke="#000000" stroke-width="2" d="M4.055,37.992h38.308"/>
<path fill="none" stroke="#000000" stroke-width="2" d="M43.43,96.468V6.727H4.588"/>
</svg>
