<?xml version="1.0" encoding="utf-8"?>
<!-- Generator: Adobe Illustrator 14.0.0, SVG Export Plug-In . SVG Version: 6.00 Build 43363)  -->
<!DOCTYPE svg PUBLIC "-//W3C//DTD SVG 1.1//EN" "http://www.w3.org/Graphics/SVG/1.1/DTD/svg11.dtd">
<svg version="1.1" id="图层_1" xmlns="http://www.w3.org/2000/svg" xmlns:xlink="http://www.w3.org/1999/xlink" x="0px" y="0px"
	 width="47.649px" height="106.502px" viewBox="0 0 47.649 106.502" enable-background="new 0 0 47.649 106.502"
	 xml:space="preserve">
<path fill="#0000FF" stroke="#000000" stroke-width="2" d="M5.863,2.99H41.68V38.7H5.863V2.99z"/>
<path fill="#0000FF" stroke="#000000" stroke-width="2" d="M4.477,50.64h38.695v47.649H4.477V50.64z"/>
<path stroke="#000000" stroke-width="2" d="M10.34,8.853h26.863v23.878H10.34V8.853z"/>
<path fill="#7F7F7F" stroke="#000000" stroke-width="2" d="M11.832,10.345H35.71v20.894H11.832V10.345z"/>
<path fill="#7F7F7F" stroke="#000000" stroke-width="2" d="M10.34,32.731l1.492-1.492H35.71V10.345l1.493-1.386v23.771H10.34z"/>
<path stroke="#000000" stroke-width="2" d="M10.34,34.223l1.066,0.427l0.426,1.066l-0.106,0.64l-0.746,0.746l-0.64,0.106
	l-0.533-0.106l-0.853-0.746v-0.64l0.213-0.854l0.96-0.64H10.34z"/>
<path stroke="#000000" stroke-width="2" d="M37.203,34.223l1.065,0.427l0.427,1.066l-0.106,0.64l-0.747,0.746l-0.639,0.106
	l-0.533-0.106l-0.853-0.746l-0.107-0.64l0.32-0.854l0.959-0.64H37.203z"/>
<path fill="#0000FF" stroke="#000000" stroke-width="2" d="M4.477,50.64V17.807l1.386-1.492V50.64H4.477z"/>
<path fill="#0000FF" stroke="#000000" stroke-width="2" d="M43.172,50.64V17.807l-1.492-1.492V50.64H43.172z"/>
<path stroke="#000000" stroke-width="2" d="M2.985,19.3h1.492v4.477H2.985V19.3z"/>
<path stroke="#000000" stroke-width="2" d="M43.172,19.3h1.493v4.477h-1.493V19.3z"/>
<path stroke="#000000" stroke-width="2" d="M2.985,31.239h1.492v4.478H2.985V31.239z"/>
<path stroke="#000000" stroke-width="2" d="M43.172,31.239h1.493v4.478h-1.493V31.239z"/>
<path stroke="#000000" stroke-width="2" d="M5.863,49.147H41.68v2.239H5.863V49.147z"/>
<path stroke="#000000" stroke-width="2" d="M5.863,49.147v-1.492l0.854-2.984H31.98l0.746,2.984v1.492H5.863z"/>
<path fill="#FFFFFF" stroke="#000000" stroke-width="2" d="M7.569,48.188l0.746-2.984h22.066l0.746,2.984H7.569z"/>
<path d="M26.01,48.401l0.64-0.213l-0.746-3.518l-1.279,0.319l0.746,3.519L26.01,48.401z"/>
<path stroke="#000000" stroke-width="2" d="M33.472,49.147v-3.73l0.746-2.984h5.97l0.746,2.984v3.73H33.472z"/>
<path fill="#FFFFFF" stroke="#000000" stroke-width="2" d="M34.218,45.416v0.746l5.97-0.106v-0.64H34.218z"/>
<path fill="none" stroke="#7F7F7F" stroke-width="2" d="M5.863,49.786h26.863"/>
<path fill="none" stroke="#7F7F7F" stroke-width="2" d="M33.472,49.786h7.462"/>
<path stroke="#000000" stroke-width="2" d="M23.772,53.624l1.065,0.427l0.427,1.065l-0.106,0.533l-0.853,0.853l-0.533,0.106
	l-0.533-0.106l-0.853-0.853l-0.106-0.533l0.213-0.853l0.959-0.64H23.772z"/>
<path stroke="#000000" stroke-width="2" d="M23.772,93.066l1.065,0.427l0.427,1.065l-0.106,0.64l-0.853,0.746l-0.533,0.107
	l-0.533-0.107l-0.853-0.746l-0.106-0.64l0.213-0.853l0.959-0.64H23.772z"/>
<path stroke="#000000" stroke-width="2" d="M40.188,61.086l1.066,0.427l0.426,1.065l-0.106,0.533l-0.853,0.853l-0.533,0.106
	l-0.533-0.106l-0.853-0.853l-0.106-0.533l0.213-0.853l0.959-0.64H40.188z"/>
<path stroke="#000000" stroke-width="2" d="M40.188,84.858l1.066,0.427l0.426,1.065l-0.106,0.64l-0.853,0.746l-0.533,0.106
	l-0.533-0.106l-0.853-0.746l-0.106-0.64l0.213-0.853l0.959-0.64H40.188z"/>
<path fill="none" stroke="#FFFFFF" stroke-width="2" d="M9.061,36.462l-0.106-0.214v-0.213v-0.106v-0.213v-0.214v-0.319l0.213-0.32
	l0.214-0.213l0.213-0.106l0.213-0.213l0.32-0.107h0.213h0.213h0.214l0.213,0.107l0.213,0.213"/>
<path fill="none" stroke="#FFFFFF" stroke-width="2" d="M35.924,36.462l-0.106-0.214v-0.213l-0.107-0.106v-0.213l0.107-0.214v-0.319
	l0.213-0.32l0.106-0.213l0.319-0.106l0.214-0.213l0.319-0.107h0.214h0.213h0.213l0.213,0.107l0.214,0.213"/>
<path fill="none" stroke="#FFFFFF" stroke-width="2" d="M22.492,55.756l-0.106-0.106v-0.213L22.28,55.33v-0.214l0.106-0.319v-0.214
	l0.106-0.319l0.213-0.213l0.214-0.214l0.319-0.106l0.213-0.106h0.32h0.213h0.213l0.214,0.106l0.213,0.106"/>
<path fill="none" stroke="#FFFFFF" stroke-width="2" d="M38.802,63.218v-0.106v-0.213l-0.106-0.214v-0.106l0.106-0.319v-0.32
	l0.106-0.213l0.213-0.213l0.214-0.214l0.319-0.106l0.213-0.106l0.32-0.106h0.213l0.214,0.106l0.213,0.106l0.213,0.106"/>
<path fill="none" stroke="#FFFFFF" stroke-width="2" d="M22.492,95.198l-0.106-0.106v-0.213l-0.106-0.106v-0.214l0.106-0.319v-0.213
	l0.106-0.32l0.213-0.213l0.214-0.106l0.319-0.214l0.213-0.106h0.32h0.213h0.213l0.214,0.106l0.213,0.214"/>
<path fill="none" stroke="#FFFFFF" stroke-width="2" d="M38.802,86.99v-0.106V86.67l-0.106-0.106V86.35l0.106-0.213v-0.319
	l0.106-0.32l0.213-0.213l0.214-0.106l0.319-0.214l0.213-0.106h0.32h0.213h0.214l0.213,0.106l0.213,0.214"/>
<path stroke="#000000" stroke-width="2" d="M8.954,98.289h29.741v4.477H8.954V98.289z"/>
<path d="M41.68,102.766v-0.639H5.863v1.278H41.68V102.766z"/>
</svg>
