<?xml version="1.0" encoding="utf-8"?>
<!-- Generator: Adobe Illustrator 14.0.0, SVG Export Plug-In . SVG Version: 6.00 Build 43363)  -->
<!DOCTYPE svg PUBLIC "-//W3C//DTD SVG 1.1//EN" "http://www.w3.org/Graphics/SVG/1.1/DTD/svg11.dtd">
<svg version="1.1" id="图层_1" xmlns="http://www.w3.org/2000/svg" xmlns:xlink="http://www.w3.org/1999/xlink" x="0px" y="0px"
	 width="120.766px" height="106.502px" viewBox="0 0 120.766 106.502" enable-background="new 0 0 120.766 106.502"
	 xml:space="preserve">
<path fill="#F2F2F2" stroke="#000000" stroke-width="2" d="M12.814,102.996v-9.43h-9.43V8.1h104.446v85.467h-9.55v9.43H12.814z"/>
<path fill="none" stroke="#000000" stroke-width="2" d="M12.814,93.567h85.467"/>
<path fill="none" stroke="#000000" stroke-width="2" d="M17.649,79.302V22.365h75.917v56.938H17.649"/>
<path fill="#7387A6" d="M17.649,79.302V22.365h75.917v56.938H17.649z"/>
<path fill="#A6BAD9" d="M95.863,67.455v-7.132h7.132v7.132H95.863z"/>
<path fill="#A6BAD9" d="M95.863,55.488v-7.012h7.132v7.012H95.863z"/>
<path fill="#A6BAD9" d="M95.863,43.641v-7.012h7.132v7.012H95.863z"/>
<path fill="#A6BAD9" d="M95.863,31.794v-7.133h7.132v7.133H95.863z"/>
<path fill="#A6BAD9" d="M17.649,81.72h7.012v7.133h-7.012V81.72z"/>
<path fill="#A6BAD9" d="M29.496,81.72h7.133v7.133h-7.133V81.72z"/>
<path fill="#A6BAD9" d="M41.344,81.72h7.132v7.133h-7.132V81.72z"/>
<path fill="#A6BAD9" d="M53.19,81.72h7.132v7.133H53.19V81.72z"/>
<path fill="#A6BAD9" d="M77.005,81.72h7.012v7.133h-7.012V81.72z"/>
<path fill="#A6BAD9" d="M65.037,81.72h7.133v7.133h-7.133V81.72z"/>
<path fill="#CCCCCC" stroke="#000000" stroke-width="2" d="M107.831,8.1l9.429-4.714v85.467l-9.429,4.714V8.1z"/>
<path fill="#999999" stroke="#000000" stroke-width="2" d="M98.281,102.996l9.55-4.715v-4.715h-9.55V102.996z"/>
<path fill="#FFFFFF" stroke="#000000" stroke-width="2" d="M107.831,8.1l9.429-4.714H12.814L3.385,8.1H107.831z"/>
<path fill="#405473" d="M17.649,79.302h2.297V24.661h73.62v-2.297H17.649V79.302z"/>
</svg>
