<?xml version="1.0" encoding="utf-8"?>
<!-- Generator: Adobe Illustrator 14.0.0, SVG Export Plug-In . SVG Version: 6.00 Build 43363)  -->
<!DOCTYPE svg PUBLIC "-//W3C//DTD SVG 1.1//EN" "http://www.w3.org/Graphics/SVG/1.1/DTD/svg11.dtd">
<svg version="1.1" id="图层_1" xmlns="http://www.w3.org/2000/svg" xmlns:xlink="http://www.w3.org/1999/xlink" x="0px" y="0px"
	 width="52.027px" height="106.502px" viewBox="0 0 52.027 106.502" enable-background="new 0 0 52.027 106.502"
	 xml:space="preserve">
<path fill="#0000BF" stroke="#000000" stroke-width="2" d="M29.212,71.961l6.184-8.315H14.5l6.29,8.315H29.212z"/>
<path fill="#0000BF" stroke="#000000" stroke-width="2" d="M20.79,91.897l-6.29,8.423l20.896-0.107l-6.29-8.315H20.79z"/>
<path fill="#0000BF" stroke="#000000" stroke-width="2" d="M4.052,56.289h41.79v5.864H4.052V56.289z"/>
<path fill="#0000FF" stroke="#000000" stroke-width="2" d="M4.052,100.32h41.79v3.091H4.052V100.32z"/>
<path fill="#0000FF" stroke="#000000" stroke-width="2" d="M20.79,63.646h8.315v36.674H20.79V63.646z"/>
<path fill="#0000FF" stroke="#000000" stroke-width="2" d="M4.052,2.985h41.79V49.04H4.052V2.985z"/>
<path fill="none" stroke="#000000" stroke-width="2" d="M6.078,5.011h37.739v39.871H6.078V5.011"/>
<path fill="#0000BF" stroke="#000000" stroke-width="2" d="M8.21,34.328l2.133-2.025l29.21-23.135l2.133-2.025H8.21V34.328z"/>
<path fill="#7F7FFF" stroke="#000000" stroke-width="2" d="M41.685,7.143l-2.133,2.025L10.235,32.303L8.21,34.328h33.476V7.143z"/>
<path fill="#333333" stroke="#000000" stroke-width="2" d="M10.343,9.168h29.21v23.135h-29.21V9.168z"/>
<path fill="#4C4C4C" stroke="#000000" stroke-width="2" d="M41.685,36.46h-2.133v6.29h2.133V36.46z"/>
<path fill="#0000D9" stroke="#000000" stroke-width="2" d="M4.052,49.04h41.79v6.184H4.052V49.04z"/>
<path fill="#0000FF" stroke="#000000" stroke-width="2" d="M45.843,47.974h1.066v12.047h-1.066V47.974z"/>
<path fill="#0000FF" stroke="#000000" stroke-width="2" d="M2.986,47.974h1.066v12.047H2.986V47.974z"/>
<path fill="#0000FF" stroke="#000000" stroke-width="2" d="M47.975,49.04h1.065v4.157h-1.065V49.04z"/>
<path fill="#0000BF" stroke="#000000" stroke-width="2" d="M47.975,50.532h-1.066v1.066h1.066V50.532z"/>
<path fill="#7F7FFF" stroke="#000000" stroke-width="2" d="M23.348,87.74h3.198v12.58h-3.198V87.74z"/>
<path fill="#000099" stroke="#000000" stroke-width="2" d="M6.611,62.046h36.673v1.6H6.611V62.046z"/>
<path stroke="#000000" stroke-width="2" d="M23.882,65.778h2.132v2.025h-2.132V65.778z"/>
<path stroke="#000000" stroke-width="2" d="M23.882,70.469h2.132v2.025h-2.132V70.469z"/>
<path fill="#4C4C4C" stroke="#000000" stroke-width="2" d="M8.21,35.394h8.849v1.066H8.21V35.394z"/>
<path fill="none" stroke="#7F7F7F" stroke-width="2" d="M23.348,28.572l9.488-8.955"/>
<path fill="none" stroke="#7F7F7F" stroke-width="2" d="M15.566,29.105l17.271-15.672"/>
<path fill="none" stroke="#7F7F7F" stroke-width="2" d="M18.658,19.616l6.822-6.184"/>
</svg>
