<?xml version="1.0" encoding="utf-8"?>
<!-- Generator: Adobe Illustrator 14.0.0, SVG Export Plug-In . SVG Version: 6.00 Build 43363)  -->
<!DOCTYPE svg PUBLIC "-//W3C//DTD SVG 1.1//EN" "http://www.w3.org/Graphics/SVG/1.1/DTD/svg11.dtd">
<svg version="1.1" id="图层_1" xmlns="http://www.w3.org/2000/svg" xmlns:xlink="http://www.w3.org/1999/xlink" x="0px" y="0px"
	 width="144.749px" height="65.059px" viewBox="0 0 144.749 65.059" enable-background="new 0 0 144.749 65.059"
	 xml:space="preserve">
<path stroke="#000000" stroke-width="2" d="M4.057,4.058h136.49v56.943H4.057V4.058z"/>
<ellipse fill="#FFFFFF" stroke="#000000" stroke-width="2" cx="137.649" cy="15.36" rx="2.753" ry="1.449"/>
<ellipse fill="#FFFFFF" stroke="#000000" stroke-width="2" cx="137.649" cy="49.41" rx="2.753" ry="1.304"/>
<ellipse fill="#FFFFFF" stroke="#000000" stroke-width="2" cx="6.81" cy="15.36" rx="2.753" ry="1.449"/>
<ellipse fill="#FFFFFF" stroke="#000000" stroke-width="2" cx="6.81" cy="49.41" rx="2.753" ry="1.304"/>
<path fill="#191919" stroke="#7F7F7F" stroke-width="2" d="M22.604,12.607h99.542v34.05H22.604V12.607z"/>
<path fill="#7F7F7F" d="M18.257,56.22V12.607l0,0v0.29L14.344,14.2l-1.738-1.304v-0.29l0,0V56.22l0,0l2.753,1.738L18.257,56.22
	L18.257,56.22z"/>
<path stroke="#7F7F7F" stroke-width="2" d="M18.257,56.074l-0.146,0.436l-0.145,0.435l-0.29,0.145l-0.29,0.29l-0.435,0.29
	l-0.435,0.145l-0.579,0.145h-0.58V14.346l0.58-0.146h0.579l0.435-0.145l0.435-0.29l0.29-0.29l0.29-0.289l0.145-0.29l0.146-0.435
	V56.074z"/>
<path fill="#7F7F7F" d="M131.998,56.22V12.607l0,0v0.29l-3.912,1.304l-1.594-1.304l-0.146-0.29l0,0V56.22l0,0l2.898,1.738
	L131.998,56.22L131.998,56.22z"/>
<path stroke="#7F7F7F" stroke-width="2" d="M131.998,56.074v0.436l-0.145,0.435l-0.29,0.145l-0.435,0.29l-0.435,0.29l-0.436,0.145
	l-0.579,0.145h-0.58V14.346l0.58-0.146h0.579l0.436-0.145l0.435-0.29l0.435-0.29l0.29-0.289l0.145-0.29v-0.435V56.074z"/>
<circle stroke="#7F7F7F" stroke-width="2" cx="24.342" cy="54.046" r="3.188"/>
<circle stroke="#FFFFFF" stroke-width="2" cx="24.342" cy="54.191" r="2.463"/>
<circle cx="24.342" cy="54.191" r="1.014"/>
<path fill="#7F7F7F" d="M26.081,54.192l-0.146-0.58l-0.435-0.579l-0.435-0.435l-0.725-0.146v1.304h0.145l0.146,0.146l0.145,0.145
	v0.146H26.081z"/>
<path fill="#7F7F7F" d="M24.342,55.93l0.725-0.145l0.435-0.435l0.435-0.436l0.146-0.724h-1.305v0.145l-0.145,0.145h-0.146
	l-0.145,0.146V55.93z"/>
<path fill="#7F7F7F" d="M22.748,54.192l0.145,0.724l0.29,0.436l0.435,0.435l0.725,0.145v-1.304l-0.145-0.146h-0.146v-0.145
	l-0.145-0.145H22.748z"/>
<path fill="#7F7F7F" d="M24.342,52.452l-0.725,0.146l-0.435,0.435l-0.29,0.579l-0.145,0.58h1.159l0.145-0.146v-0.145l0.146-0.146
	h0.145V52.452z"/>
<circle fill="#B2B2B2" stroke="#000000" stroke-width="2" cx="72.302" cy="18.113" r="2.753"/>
<path fill="#7F7F7F" d="M100.701,15.36h17.098v5.651h-17.098V15.36z"/>
<circle stroke="#000000" stroke-width="2" cx="28.544" cy="18.548" r="2.463"/>
<path d="M56.654,18.258H68.1v22.748H56.654V18.258z"/>
<path fill="none" stroke="#7F7F7F" stroke-width="2" d="M56.654,41.006h11.302V18.258"/>
<circle stroke="#000000" stroke-width="2" cx="28.544" cy="25.647" r="2.463"/>
<circle stroke="#000000" stroke-width="2" cx="28.544" cy="33.471" r="2.463"/>
<circle stroke="#000000" stroke-width="2" cx="34.195" cy="18.548" r="2.463"/>
<circle stroke="#000000" stroke-width="2" cx="34.195" cy="25.647" r="2.463"/>
<circle stroke="#000000" stroke-width="2" cx="34.195" cy="33.471" r="2.463"/>
<circle stroke="#000000" stroke-width="2" cx="42.743" cy="18.548" r="2.463"/>
<circle stroke="#000000" stroke-width="2" cx="42.743" cy="40.571" r="2.463"/>
<circle stroke="#000000" stroke-width="2" cx="42.743" cy="25.647" r="2.463"/>
<circle stroke="#000000" stroke-width="2" cx="42.743" cy="33.471" r="2.463"/>
<circle stroke="#000000" stroke-width="2" cx="48.539" cy="18.548" r="2.463"/>
<circle stroke="#000000" stroke-width="2" cx="48.539" cy="40.571" r="2.463"/>
<circle stroke="#000000" stroke-width="2" cx="48.539" cy="25.647" r="2.463"/>
<circle stroke="#000000" stroke-width="2" cx="48.539" cy="33.471" r="2.463"/>
<circle fill="#7F7F7F" stroke="#000000" stroke-width="2" cx="72.302" cy="18.258" r="2.173"/>
<path d="M71.867,16.084h0.869v4.202h-0.869V16.084z"/>
</svg>
