<?xml version="1.0" encoding="utf-8"?>
<!-- Generator: Adobe Illustrator 14.0.0, SVG Export Plug-In . SVG Version: 6.00 Build 43363)  -->
<!DOCTYPE svg PUBLIC "-//W3C//DTD SVG 1.1//EN" "http://www.w3.org/Graphics/SVG/1.1/DTD/svg11.dtd">
<svg version="1.1" id="图层_1" xmlns="http://www.w3.org/2000/svg" xmlns:xlink="http://www.w3.org/1999/xlink" x="0px" y="0px"
	 width="128.03px" height="106.502px" viewBox="0 0 128.03 106.502" enable-background="new 0 0 128.03 106.502"
	 xml:space="preserve">
<path stroke="#000000" stroke-width="2" d="M3.588,3.59h120.726v99.322H3.588V3.59z"/>
<path fill="#CCCCCC" stroke="#000000" stroke-width="2" d="M4.87,101.631l118.162-96.76l1.281-1.281H3.588v99.322L4.87,101.631z"/>
<path fill="#7F7F7F" stroke="#000000" stroke-width="2" d="M4.87,4.871h118.29v96.888H4.87V4.871z"/>
<path d="M117.778,96.633l0.257-0.257H85.354v0.513h32.681l0.256-0.256l-0.256,0.256h0.256v-0.256H117.778z"/>
<path d="M118.034,64.209l-0.257-0.257v32.681h0.513V63.952l-0.256-0.256l0.256,0.256v-0.256h-0.256V64.209z"/>
<path d="M85.61,63.952l-0.256,0.257h32.681v-0.513H85.354l-0.257,0.256l0.257-0.256h-0.257v0.256H85.61z"/>
<path d="M85.354,96.376l0.256,0.257V63.952h-0.513v32.681l0.257,0.256l-0.257-0.256v0.256h0.257V96.376z"/>
<circle fill="#CCCCCC" stroke="#E5E5E5" stroke-width="2" cx="101.63" cy="67.669" r="2.435"/>
<path fill="#CCCCCC" stroke="#E5E5E5" stroke-width="2" d="M11.15,77.793h69.206v13.842H11.15V77.793z"/>
<circle fill="#4C4C4C" stroke="#000000" stroke-width="2" cx="15.507" cy="84.586" r="3.076"/>
<path fill="#FFFFFF" stroke="#000000" stroke-width="2" d="M21.146,85.355h3.845v3.717h-3.845V85.355z"/>
<path fill="#FFFFFF" stroke="#000000" stroke-width="2" d="M21.146,80.229h3.845v3.845h-3.845V80.229z"/>
<path fill="#FFFFFF" stroke="#000000" stroke-width="2" d="M26.145,85.355h3.845v3.717h-3.845V85.355z"/>
<path fill="#FFFFFF" stroke="#000000" stroke-width="2" d="M26.145,80.229h3.845v3.845h-3.845V80.229z"/>
<path fill="#FFFFFF" stroke="#000000" stroke-width="2" d="M31.271,85.355h3.717v3.717h-3.717V85.355z"/>
<path fill="#FFFFFF" stroke="#000000" stroke-width="2" d="M31.271,80.229h3.717v3.845h-3.717V80.229z"/>
<path fill="#FFFFFF" stroke="#000000" stroke-width="2" d="M36.269,85.355h3.845v3.717h-3.845V85.355z"/>
<path fill="#FFFFFF" stroke="#000000" stroke-width="2" d="M36.269,80.229h3.845v3.845h-3.845V80.229z"/>
<path fill="#FFFFFF" stroke="#000000" stroke-width="2" d="M41.267,85.355h3.845v3.717h-3.845V85.355z"/>
<path fill="#FFFFFF" stroke="#000000" stroke-width="2" d="M41.267,80.229h3.845v3.845h-3.845V80.229z"/>
<path fill="#FFFFFF" stroke="#000000" stroke-width="2" d="M46.394,85.355h3.716v3.717h-3.716V85.355z"/>
<path fill="#FFFFFF" stroke="#000000" stroke-width="2" d="M46.394,80.229h3.716v3.845h-3.716V80.229z"/>
<path fill="#FFFFFF" stroke="#000000" stroke-width="2" d="M51.392,85.355h3.717v3.717h-3.717V85.355z"/>
<path fill="#FFFFFF" stroke="#000000" stroke-width="2" d="M51.392,80.229h3.717v3.845h-3.717V80.229z"/>
<path fill="#FFFFFF" stroke="#000000" stroke-width="2" d="M56.39,85.355h3.845v3.717H56.39V85.355z"/>
<path fill="#FFFFFF" stroke="#000000" stroke-width="2" d="M56.39,80.229h3.845v3.845H56.39V80.229z"/>
<path fill="#FFFFFF" stroke="#000000" stroke-width="2" d="M61.388,85.355h3.845v3.717h-3.845V85.355z"/>
<path fill="#FFFFFF" stroke="#000000" stroke-width="2" d="M61.388,80.229h3.845v3.845h-3.845V80.229z"/>
<path fill="#FFFFFF" stroke="#000000" stroke-width="2" d="M66.514,85.355h3.717v3.717h-3.717V85.355z"/>
<path fill="#FFFFFF" stroke="#000000" stroke-width="2" d="M66.514,80.229h3.717v3.845h-3.717V80.229z"/>
<path fill="#4C4C4C" stroke="#000000" stroke-width="2" d="M14.866,72.667l1.281-1.153l62.926-56.646l1.282-1.281H14.866V72.667z"/>
<path fill="none" stroke="#000000" stroke-width="2" d="M14.866,13.586h65.489v59.081H14.866V13.586"/>
<path stroke="#000000" stroke-width="2" d="M16.148,14.867h62.926v56.646H16.148V14.867z"/>
<path fill="#E5E5E5" stroke="#E5E5E5" stroke-width="2" d="M85.354,57.673h32.681V13.586H85.354V57.673z"/>
<path fill="#FFFFFF" stroke="#000000" stroke-width="2" d="M92.915,22.429h3.716v3.717h-3.716V22.429z"/>
<path fill="#FFFFFF" stroke="#000000" stroke-width="2" d="M92.915,17.431h3.716v3.717h-3.716V17.431z"/>
<path fill="#FFFFFF" stroke="#000000" stroke-width="2" d="M97.913,22.429h3.845v3.717h-3.845V22.429z"/>
<path fill="#FFFFFF" stroke="#000000" stroke-width="2" d="M97.913,17.431h3.845v3.717h-3.845V17.431z"/>
<path fill="#FFFFFF" stroke="#000000" stroke-width="2" d="M102.911,22.429h3.845v3.717h-3.845V22.429z"/>
<path fill="#FFFFFF" stroke="#000000" stroke-width="2" d="M102.911,17.431h3.845v3.717h-3.845V17.431z"/>
<path fill="#FFFFFF" stroke="#000000" stroke-width="2" d="M108.037,22.429h3.717v3.717h-3.717V22.429z"/>
<path fill="#FFFFFF" stroke="#000000" stroke-width="2" d="M108.037,17.431h3.717v3.717h-3.717V17.431z"/>
<path fill="#FFFFFF" stroke="#000000" stroke-width="2" d="M92.915,32.425h3.716v3.845h-3.716V32.425z"/>
<path fill="#FFFFFF" stroke="#000000" stroke-width="2" d="M92.915,27.427h3.716v3.845h-3.716V27.427z"/>
<path fill="#FFFFFF" stroke="#000000" stroke-width="2" d="M97.913,32.425h3.845v3.845h-3.845V32.425z"/>
<path fill="#FFFFFF" stroke="#000000" stroke-width="2" d="M97.913,27.427h3.845v3.845h-3.845V27.427z"/>
<path fill="#FFFFFF" stroke="#000000" stroke-width="2" d="M102.911,32.425h3.845v3.845h-3.845V32.425z"/>
<path fill="#FFFFFF" stroke="#000000" stroke-width="2" d="M102.911,27.427h3.845v3.845h-3.845V27.427z"/>
<path fill="#FFFFFF" stroke="#000000" stroke-width="2" d="M108.037,32.425h3.717v3.845h-3.717V32.425z"/>
<path fill="#FFFFFF" stroke="#000000" stroke-width="2" d="M108.037,27.427h3.717v3.845h-3.717V27.427z"/>
<path fill="#FFFFFF" stroke="#000000" stroke-width="2" d="M92.915,39.987h3.716v3.845h-3.716V39.987z"/>
<path fill="#FFFFFF" stroke="#000000" stroke-width="2" d="M97.913,39.987h3.845v3.845h-3.845V39.987z"/>
<path fill="#FFFFFF" stroke="#000000" stroke-width="2" d="M102.911,39.987h3.845v3.845h-3.845V39.987z"/>
<path fill="#FFFFFF" stroke="#000000" stroke-width="2" d="M108.037,39.987h3.717v3.845h-3.717V39.987z"/>
<path fill="#FFFFFF" stroke="#000000" stroke-width="2" d="M92.915,50.112h3.716v3.717h-3.716V50.112z"/>
<path fill="#FFFFFF" stroke="#000000" stroke-width="2" d="M92.915,45.114h3.716v3.716h-3.716V45.114z"/>
<path fill="#FFFFFF" stroke="#000000" stroke-width="2" d="M97.913,50.112h3.845v3.717h-3.845V50.112z"/>
<path fill="#FFFFFF" stroke="#000000" stroke-width="2" d="M97.913,45.114h3.845v3.716h-3.845V45.114z"/>
<path fill="#FFFFFF" stroke="#000000" stroke-width="2" d="M102.911,50.112h3.845v3.717h-3.845V50.112z"/>
<path fill="#FFFFFF" stroke="#000000" stroke-width="2" d="M102.911,45.114h3.845v3.716h-3.845V45.114z"/>
<path fill="#FFFFFF" stroke="#000000" stroke-width="2" d="M108.037,45.114h3.717v8.715h-3.717V45.114z"/>
<path stroke="#000000" stroke-width="2" d="M6.664,45.114l0.641,0.641l-0.641,0.513H6.536l-0.385-0.385v-0.128L6.664,45.114z"/>
<path stroke="#000000" stroke-width="2" d="M6.664,65.234l0.641,0.642l-0.641,0.513H6.407l-0.256-0.385l-0.128-0.128L6.664,65.234z"
	/>
<path stroke="#000000" stroke-width="2" d="M6.664,37.552l0.641,0.641l-0.641,0.513H6.536l-0.385-0.257v-0.256L6.664,37.552z"/>
<path stroke="#000000" stroke-width="2" d="M6.664,57.673l0.641,0.641l-0.641,0.641l-0.257-0.128L6.152,58.57l-0.128-0.256
	L6.664,57.673z"/>
<path stroke="#000000" stroke-width="2" d="M6.664,9.869l0.641,0.641l-0.641,0.642l-0.128-0.129l-0.385-0.256V10.51L6.664,9.869z"/>
<path stroke="#000000" stroke-width="2" d="M6.664,96.633l0.641,0.641l-0.641,0.641H6.536l-0.385-0.384v-0.257L6.664,96.633z"/>
<path stroke="#000000" stroke-width="2" d="M121.238,45.114l0.642,0.641l-0.642,0.513h-0.256l-0.385-0.385v-0.128L121.238,45.114z"
	/>
<path stroke="#000000" stroke-width="2" d="M121.11,65.234l0.641,0.642l-0.641,0.513h-0.128l-0.385-0.385v-0.128L121.11,65.234z"/>
<path stroke="#000000" stroke-width="2" d="M121.238,37.552l0.642,0.641l-0.642,0.513h-0.256l-0.385-0.257v-0.256L121.238,37.552z"
	/>
<path stroke="#000000" stroke-width="2" d="M121.11,57.673l0.641,0.641l-0.641,0.641l-0.128-0.128l-0.385-0.257v-0.256
	L121.11,57.673z"/>
<path stroke="#000000" stroke-width="2" d="M121.238,9.869l0.642,0.641l-0.642,0.642l-0.256-0.129l-0.385-0.256V10.51L121.238,9.869
	z"/>
<path stroke="#000000" stroke-width="2" d="M121.238,96.633l0.642,0.641l-0.642,0.641h-0.256l-0.385-0.384v-0.257L121.238,96.633z"
	/>
<path fill="none" stroke="#FFFFFF" stroke-width="2" d="M36.269,48.829l22.685-22.684"/>
<path fill="none" stroke="#FFFFFF" stroke-width="2" d="M37.55,60.108l31.399-31.398"/>
<path fill="none" stroke="#FFFFFF" stroke-width="2" d="M53.826,56.391l11.406-11.277"/>
<path fill="none" stroke="#FFFFFF" stroke-width="2" d="M29.99,39.987l17.558-17.558"/>
</svg>
