<?xml version="1.0" encoding="utf-8"?>
<!-- Generator: Adobe Illustrator 14.0.0, SVG Export Plug-In . SVG Version: 6.00 Build 43363)  -->
<!DOCTYPE svg PUBLIC "-//W3C//DTD SVG 1.1//EN" "http://www.w3.org/Graphics/SVG/1.1/DTD/svg11.dtd">
<svg version="1.1" id="图层_1" xmlns="http://www.w3.org/2000/svg" xmlns:xlink="http://www.w3.org/1999/xlink" x="0px" y="0px"
	 width="73.13px" height="106.502px" viewBox="0 0 73.13 106.502" enable-background="new 0 0 73.13 106.502" xml:space="preserve">
<path fill="#7F7F7F" d="M13.646,44.883L3.198,40.725V3.2h66.734v37.524l-10.447,4.158v58.313H13.646V44.883z"/>
<path d="M2.985,40.725l0.106,0.214l10.447,4.157l0.107-0.427L3.305,40.512l0.106,0.213H2.985v0.107l0.106,0.106L2.985,40.725z"/>
<path d="M3.198,2.988L2.985,3.2v37.524h0.426V3.2L3.198,3.413V2.988H2.985V3.2L3.198,2.988z"/>
<path d="M70.145,3.2l-0.213-0.213H3.198v0.426h66.734L69.612,3.2H70.145V2.988h-0.213L70.145,3.2z"/>
<path d="M69.932,40.939l0.213-0.214V3.2h-0.533v37.524l0.214-0.213L69.932,40.939l0.213-0.106v-0.107L69.932,40.939z"/>
<path d="M59.698,44.883l-0.213,0.213l10.447-4.157l-0.106-0.427l-10.447,4.157l-0.214,0.214l0.214-0.214h-0.214v0.214H59.698z"/>
<path d="M59.485,103.408l0.213-0.213V44.883h-0.533v58.313l0.32-0.214V103.408h0.213v-0.213L59.485,103.408z"/>
<path d="M13.326,103.196l0.32,0.213h45.839v-0.427H13.646l0.213,0.214H13.326v0.213h0.32L13.326,103.196z"/>
<path d="M13.539,45.096l-0.213-0.213v58.313h0.533V44.883l-0.213-0.214l0.213,0.214v-0.214h-0.213L13.539,45.096z"/>
<path stroke="#000000" stroke-width="2" d="M15.138,37.528h42.749v61.51H15.138V37.528z"/>
<path stroke="#000000" stroke-width="2" d="M5.224,5.226H67.8v31.342H5.224V5.226z"/>
<path fill="#99CCCC" stroke="#000000" stroke-width="2" d="M10.447,34.436h52.129V12.581H10.447V34.436z"/>
<path fill="none" stroke="#7F7F7F" stroke-width="2" d="M5.224,35.501H67.8"/>
<path fill="#FFFFFF" stroke="#000000" stroke-width="2" d="M18.869,46.695h5.97v6.077h-5.97V46.695z"/>
<path fill="#FFFFFF" stroke="#000000" stroke-width="2" d="M18.869,53.945h5.97v5.97h-5.97V53.945z"/>
<path fill="#FFFFFF" stroke="#000000" stroke-width="2" d="M18.869,61.194h5.97v5.97h-5.97V61.194z"/>
<path fill="#CCCCCC" stroke="#000000" stroke-width="2" d="M18.869,68.335h5.97v5.971h-5.97V68.335z"/>
<path fill="#CCCCCC" stroke="#000000" stroke-width="2" d="M18.869,75.585h5.97v5.97h-5.97V75.585z"/>
<path fill="#CCCCCC" stroke="#000000" stroke-width="2" d="M18.869,82.727h5.97v5.971h-5.97V82.727z"/>
<path fill="#0000FF" stroke="#000000" stroke-width="2" d="M18.869,89.977h5.97v5.97h-5.97V89.977z"/>
<path fill="#FFFFFF" stroke="#000000" stroke-width="2" d="M26.011,46.695h6.077v6.077h-6.077V46.695z"/>
<path fill="#FFFFFF" stroke="#000000" stroke-width="2" d="M26.011,53.945h6.077v5.97h-6.077V53.945z"/>
<path fill="#FFFFFF" stroke="#000000" stroke-width="2" d="M26.011,61.194h6.077v5.97h-6.077V61.194z"/>
<path fill="#CCCCCC" stroke="#000000" stroke-width="2" d="M26.011,68.335h6.077v5.971h-6.077V68.335z"/>
<path fill="#CCCCCC" stroke="#000000" stroke-width="2" d="M26.011,75.585h6.077v5.97h-6.077V75.585z"/>
<path fill="#CCCCCC" stroke="#000000" stroke-width="2" d="M26.011,82.727h6.077v5.971h-6.077V82.727z"/>
<path fill="#FFFFFF" stroke="#000000" stroke-width="2" d="M33.26,46.695h5.971v6.077H33.26V46.695z"/>
<path fill="#FFFFFF" stroke="#000000" stroke-width="2" d="M33.26,53.945h5.971v5.97H33.26V53.945z"/>
<path fill="#FFFFFF" stroke="#000000" stroke-width="2" d="M33.26,61.194h5.971v5.97H33.26V61.194z"/>
<path fill="#CCCCCC" stroke="#000000" stroke-width="2" d="M33.26,68.335h5.971v5.971H33.26V68.335z"/>
<path fill="#CCCCCC" stroke="#000000" stroke-width="2" d="M33.26,75.585h5.971v5.97H33.26V75.585z"/>
<path fill="#CCCCCC" stroke="#000000" stroke-width="2" d="M33.26,82.727h5.971v5.971H33.26V82.727z"/>
<path fill="#FFFFFF" stroke="#000000" stroke-width="2" d="M40.51,46.695h5.969v6.077H40.51V46.695z"/>
<path fill="#FFFFFF" stroke="#000000" stroke-width="2" d="M40.51,53.945h5.969v5.97H40.51V53.945z"/>
<path fill="#FFFFFF" stroke="#000000" stroke-width="2" d="M40.51,61.194h5.969v5.97H40.51V61.194z"/>
<path fill="#FFFFFF" stroke="#000000" stroke-width="2" d="M40.51,68.335h5.969v5.971H40.51V68.335z"/>
<path fill="#FFFFFF" stroke="#000000" stroke-width="2" d="M40.51,75.585h5.969v5.97H40.51V75.585z"/>
<path fill="#FFFFFF" stroke="#000000" stroke-width="2" d="M47.758,46.695h5.971v6.077h-5.971V46.695z"/>
<path fill="#FFFFFF" stroke="#000000" stroke-width="2" d="M47.758,53.945h5.971v5.97h-5.971V53.945z"/>
<path fill="#FFFFFF" stroke="#000000" stroke-width="2" d="M47.758,61.194h5.971v5.97h-5.971V61.194z"/>
<path fill="#FFFFFF" stroke="#000000" stroke-width="2" d="M47.758,68.335h5.971v5.971h-5.971V68.335z"/>
<path fill="#FFFFFF" stroke="#000000" stroke-width="2" d="M47.758,75.585h5.971v5.97h-5.971V75.585z"/>
<path fill="#FF0000" stroke="#000000" stroke-width="2" d="M26.011,89.869h13.22v6.077h-13.22V89.869z"/>
<path fill="#0000FF" stroke="#000000" stroke-width="2" d="M28.25,38.593h7.249v3.092H28.25V38.593z"/>
<path fill="#0000FF" stroke="#000000" stroke-width="2" d="M18.869,38.593h7.249v3.092h-7.249V38.593z"/>
<path fill="#0000FF" stroke="#000000" stroke-width="2" d="M47.012,38.593h7.25v3.092h-7.25V38.593z"/>
<path fill="#0000FF" stroke="#000000" stroke-width="2" d="M37.524,38.593h7.356v3.092h-7.356V38.593z"/>
<ellipse fill="#FF0000" stroke="#000000" stroke-width="2" cx="22.494" cy="44.349" rx="3.625" ry="1.599"/>
<path fill="#FFFFFF" stroke="#000000" stroke-width="2" d="M45.2,86.885l2.025-3.944l2.025,3.944H45.2z"/>
<path fill="#FFFFFF" stroke="#000000" stroke-width="2" d="M49.25,91.895l-2.025,4.052L45.2,91.895H49.25z"/>
<path fill="#FFFFFF" stroke="#000000" stroke-width="2" d="M44.667,91.363l-3.943-1.919l3.943-2.025V91.363z"/>
<path fill="#FFFFFF" stroke="#000000" stroke-width="2" d="M49.678,87.418l4.051,2.025l-4.051,1.919V87.418z"/>
<path fill="none" stroke="#FF00FF" stroke-width="2" d="M10.98,17.805h51.063"/>
<path fill="none" stroke="#FF00FF" stroke-width="2" d="M10.98,32.41h51.063"/>
<path fill="none" stroke="#FF00FF" stroke-width="2" d="M36.565,17.805v-4.69"/>
<path fill="none" stroke="#FF00FF" stroke-width="2" d="M49.571,17.805v-4.69"/>
<path fill="none" stroke="#FF00FF" stroke-width="2" d="M36.565,32.41v1.492"/>
<path fill="none" stroke="#FF00FF" stroke-width="2" d="M22.494,32.41v2.025"/>
<path fill="none" stroke="#FF00FF" stroke-width="2" d="M49.571,32.41v1.492"/>
</svg>
