<?xml version="1.0" encoding="utf-8"?>
<!-- Generator: Adobe Illustrator 14.0.0, SVG Export Plug-In . SVG Version: 6.00 Build 43363)  -->
<!DOCTYPE svg PUBLIC "-//W3C//DTD SVG 1.1//EN" "http://www.w3.org/Graphics/SVG/1.1/DTD/svg11.dtd">
<svg version="1.1" id="图层_1" xmlns="http://www.w3.org/2000/svg" xmlns:xlink="http://www.w3.org/1999/xlink" x="0px" y="0px"
	 width="114.523px" height="106.502px" viewBox="0 0 114.523 106.502" enable-background="new 0 0 114.523 106.502"
	 xml:space="preserve">
<path stroke="#000000" stroke-width="2" d="M40.352,80.822h33.704v22.469H40.352V80.822z"/>
<path stroke="#000000" stroke-width="2" d="M77.495,54.913h33.704v22.469H77.495V54.913z"/>
<path stroke="#000000" stroke-width="2" d="M40.352,54.913h33.704v22.469H40.352V54.913z"/>
<path stroke="#000000" stroke-width="2" d="M3.21,54.913h33.704v22.469H3.21V54.913z"/>
<path stroke="#000000" stroke-width="2" d="M3.21,29.12h33.704v22.469H3.21V29.12z"/>
<path stroke="#000000" stroke-width="2" d="M40.352,29.12h33.704v22.469H40.352V29.12z"/>
<path stroke="#000000" stroke-width="2" d="M77.381,29.12h33.818v22.469H77.381V29.12z"/>
<path stroke="#000000" stroke-width="2" d="M77.381,3.212h33.818v22.469H77.381V3.212z"/>
<path stroke="#000000" stroke-width="2" d="M40.352,3.212h33.704v22.469H40.352V3.212z"/>
<path stroke="#000000" stroke-width="2" d="M3.21,3.212h33.704v22.469H3.21V3.212z"/>
<path fill="#FFFFFF" stroke="#000000" stroke-width="2" d="M40.352,103.29l1.376-1.375L72.68,82.198l1.376-1.376H40.352V103.29z"/>
<path fill="#FFFFFF" stroke="#000000" stroke-width="2" d="M77.495,77.382l1.376-1.375l30.952-19.718l1.376-1.376H77.495V77.382z"/>
<path fill="#FFFFFF" stroke="#000000" stroke-width="2" d="M40.352,77.382l1.376-1.375L72.68,56.289l1.376-1.376H40.352V77.382z"/>
<path fill="#FFFFFF" stroke="#000000" stroke-width="2" d="M3.21,77.382l1.376-1.375l30.952-19.718l1.376-1.376H3.21V77.382z"/>
<path fill="#FFFFFF" stroke="#000000" stroke-width="2" d="M3.21,51.589l1.376-1.376l30.952-19.718l1.376-1.375H3.21V51.589z"/>
<path fill="#FFFFFF" stroke="#000000" stroke-width="2" d="M40.352,51.589l1.376-1.376L72.68,30.495l1.376-1.375H40.352V51.589z"/>
<path fill="#FFFFFF" stroke="#000000" stroke-width="2" d="M77.381,51.589l1.49-1.376l30.952-19.718l1.376-1.375H77.381V51.589z"/>
<path fill="#FFFFFF" stroke="#000000" stroke-width="2" d="M77.381,25.681l1.49-1.376l30.952-19.718l1.376-1.375H77.381V25.681z"/>
<path fill="#FFFFFF" stroke="#000000" stroke-width="2" d="M40.352,25.681l1.376-1.376L72.68,4.587l1.376-1.375H40.352V25.681z"/>
<path fill="#FFFFFF" stroke="#000000" stroke-width="2" d="M3.21,25.681l1.376-1.376L35.538,4.587l1.376-1.375H3.21V25.681z"/>
<path fill="#009900" stroke="#000000" stroke-width="2" d="M77.381,80.822h33.818v22.469H77.381V80.822z"/>
<path fill="#BFFFBF" stroke="#000000" stroke-width="2" d="M77.381,103.29l1.49-1.375l30.952-19.718l1.376-1.376H77.381V103.29z"/>
<path fill="#00FF00" stroke="#009900" stroke-width="2" d="M78.871,82.198h30.952v19.718H78.871V82.198z"/>
<path fill="#E5E5E5" stroke="#7F7F7F" stroke-width="2" d="M78.871,56.289h30.952v19.718H78.871V56.289z"/>
<path fill="#E5E5E5" stroke="#7F7F7F" stroke-width="2" d="M78.871,30.495h30.952v19.718H78.871V30.495z"/>
<path fill="#E5E5E5" stroke="#7F7F7F" stroke-width="2" d="M78.871,4.587h30.952v19.718H78.871V4.587z"/>
<path fill="#E5E5E5" stroke="#7F7F7F" stroke-width="2" d="M41.728,4.587H72.68v19.718H41.728V4.587z"/>
<path fill="#E5E5E5" stroke="#7F7F7F" stroke-width="2" d="M41.728,30.495H72.68v19.718H41.728V30.495z"/>
<path fill="#E5E5E5" stroke="#7F7F7F" stroke-width="2" d="M41.728,56.289H72.68v19.718H41.728V56.289z"/>
<path fill="#E5E5E5" stroke="#7F7F7F" stroke-width="2" d="M41.728,82.198H72.68v19.718H41.728V82.198z"/>
<path fill="#E5E5E5" stroke="#7F7F7F" stroke-width="2" d="M4.586,56.289h30.952v19.718H4.586V56.289z"/>
<path fill="#E5E5E5" stroke="#7F7F7F" stroke-width="2" d="M4.586,30.495h30.952v19.718H4.586V30.495z"/>
<path fill="#E5E5E5" stroke="#7F7F7F" stroke-width="2" d="M4.586,4.587h30.952v19.718H4.586V4.587z"/>
<path fill="#7F0000" stroke="#000000" stroke-width="2" d="M3.21,80.822h33.704v22.469H3.21V80.822z"/>
<path fill="#FFBFBF" stroke="#000000" stroke-width="2" d="M3.21,103.29l1.376-1.375l30.952-19.718l1.376-1.376H3.21V103.29z"/>
<path fill="#FF0000" stroke="#7F0000" stroke-width="2" d="M4.586,82.198h30.952v19.718H4.586V82.198z"/>
</svg>
