<?xml version="1.0" encoding="utf-8"?>
<!-- Generator: Adobe Illustrator 14.0.0, SVG Export Plug-In . SVG Version: 6.00 Build 43363)  -->
<!DOCTYPE svg PUBLIC "-//W3C//DTD SVG 1.1//EN" "http://www.w3.org/Graphics/SVG/1.1/DTD/svg11.dtd">
<svg version="1.1" id="图层_1" xmlns="http://www.w3.org/2000/svg" xmlns:xlink="http://www.w3.org/1999/xlink" x="0px" y="0px"
	 width="68.76px" height="106.502px" viewBox="0 0 68.76 106.502" enable-background="new 0 0 68.76 106.502" xml:space="preserve">
<path fill="#CCCCCC" d="M7.036,7.038h54.582v92.106H7.036V7.038z"/>
<path fill="#999999" d="M2.985,103.408l4.051-4.264h54.582V7.038l4.051-4.051v100.421H2.985z"/>
<path fill="#E5E5E5" d="M65.669,2.988l-4.051,4.051H7.249v92.106l-4.264,4.264V2.988H65.669z"/>
<path fill="none" stroke="#000000" stroke-width="2" d="M2.985,2.988h62.684v100.421H2.985V2.988"/>
<circle fill="#CCCCCC" stroke="#000000" stroke-width="2" cx="34.327" cy="28.039" r="2.025"/>
<path fill="#666666" stroke="#000000" stroke-width="2" d="M32.302,27.719h4.37v0.747h-4.37V27.719z"/>
<circle fill="#CCCCCC" stroke="#000000" stroke-width="2" cx="34.327" cy="78.25" r="2.025"/>
<path fill="#666666" stroke="#000000" stroke-width="2" d="M32.302,77.93h4.37v0.746h-4.37V77.93z"/>
<path fill="#CCCCCC" stroke="#000000" stroke-width="2" d="M30.169,42.537h8.315v21.001h-8.315V42.537z"/>
<path fill="#666666" stroke="#000000" stroke-width="2" d="M30.702,43.177h7.355v20.042h-7.355V43.177z"/>
<path fill="#E5E5E5" d="M33.367,44.777h6.29v-5.117h-6.29V44.777z"/>
<path fill="#B2B2B2" d="M31.235,52.132l1.919-7.355h6.503l-2.238,7.355H31.235z"/>
<path fill="#B2B2B2" d="M31.235,52.132h6.184v8.955h-6.184V52.132z"/>
<path fill="#7F7F7F" d="M31.235,62.153h6.184v-1.065h-6.184V62.153z"/>
<path fill="#CCCCCC" d="M33.367,39.659l-2.132,8.422v4.051l2.132-7.355V39.659z"/>
<path fill="none" stroke="#000000" stroke-width="2" d="M31.235,48.081v14.071h6.184V52.132l2.238-7.355v-5.117h-6.29L31.235,48.081
	"/>
<path fill="none" stroke="#000000" stroke-width="2" d="M31.235,52.132h6.184"/>
</svg>
