<?xml version="1.0" encoding="utf-8"?>
<!-- Generator: Adobe Illustrator 14.0.0, SVG Export Plug-In . SVG Version: 6.00 Build 43363)  -->
<!DOCTYPE svg PUBLIC "-//W3C//DTD SVG 1.1//EN" "http://www.w3.org/Graphics/SVG/1.1/DTD/svg11.dtd">
<svg version="1.1" id="图层_1" xmlns="http://www.w3.org/2000/svg" xmlns:xlink="http://www.w3.org/1999/xlink" x="0px" y="0px"
	 width="68.976px" height="106.502px" viewBox="0 0 68.976 106.502" enable-background="new 0 0 68.976 106.502"
	 xml:space="preserve">
<path fill="#CCCCCC" d="M7.25,7.036h54.371v92.11H7.25V7.036z"/>
<path fill="#999999" d="M2.985,103.41l4.265-4.264h54.371V7.036l4.051-4.052V103.41H2.985z"/>
<path fill="#E5E5E5" d="M65.991,2.985l-4.37,4.052H7.25v92.11l-4.265,4.264V2.985H65.991z"/>
<path fill="none" stroke="#000000" stroke-width="2" d="M2.985,2.985h62.687V103.41H2.985V2.985"/>
<circle fill="#CCCCCC" stroke="#000000" stroke-width="2" cx="34.435" cy="28.038" r="2.132"/>
<path fill="#666666" stroke="#000000" stroke-width="2" d="M32.303,27.718h4.371v0.747h-4.371V27.718z"/>
<circle fill="#CCCCCC" stroke="#000000" stroke-width="2" cx="34.435" cy="78.251" r="2.132"/>
<path fill="#666666" stroke="#000000" stroke-width="2" d="M32.303,77.931h4.371v0.746h-4.371V77.931z"/>
<path fill="#CCCCCC" stroke="#000000" stroke-width="2" d="M30.17,42.537h8.315v21.002H30.17V42.537z"/>
<path fill="#666666" stroke="#000000" stroke-width="2" d="M30.704,43.177h7.356v20.042h-7.356V43.177z"/>
<path fill="#B2B2B2" d="M33.369,61.62h6.29v5.117h-6.29V61.62z"/>
<path fill="#B2B2B2" d="M31.236,54.264h6.183v-9.488h-6.183V54.264z"/>
<path fill="#E5E5E5" d="M31.236,45.309h6.183v1.066h-6.183V45.309z"/>
<path fill="#999999" d="M33.369,66.738l-2.132-8.423v-4.051l2.132,7.356V66.738z"/>
<path fill="#E5E5E5" d="M31.236,54.264l2.132,7.356h6.29l-2.239-7.356H31.236z"/>
<path fill="none" stroke="#000000" stroke-width="2" d="M31.236,58.315V44.776h6.183v9.488l2.239,7.356v5.117h-6.29L31.236,58.315"
	/>
<path fill="none" stroke="#000000" stroke-width="2" d="M31.236,54.264h6.183"/>
</svg>
