<?xml version="1.0" encoding="utf-8"?>
<!-- Generator: Adobe Illustrator 14.0.0, SVG Export Plug-In . SVG Version: 6.00 Build 43363)  -->
<!DOCTYPE svg PUBLIC "-//W3C//DTD SVG 1.1//EN" "http://www.w3.org/Graphics/SVG/1.1/DTD/svg11.dtd">
<svg version="1.1" id="图层_1" xmlns="http://www.w3.org/2000/svg" xmlns:xlink="http://www.w3.org/1999/xlink" x="0px" y="0px"
	 width="144.749px" height="52.596px" viewBox="0 0 144.749 52.596" enable-background="new 0 0 144.749 52.596"
	 xml:space="preserve">
<path fill="#CCCCCC" stroke="#000000" stroke-width="2" d="M4.058,48.539V4.057h136.488v44.482H4.058z"/>
<path fill="#666666" d="M10.288,5.506l-0.29,0.725l1.159,2.173l-1.159,2.174H7.535L7.1,11.302h3.188l1.594-2.898L10.288,5.506z"/>
<path fill="#666666" d="M10.288,41.44l-0.29,0.579l1.159,2.174l-1.159,2.028H7.535L7.1,46.946h3.188l1.594-2.753L10.288,41.44z"/>
<path fill="#666666" d="M137.503,5.506l-0.435,0.725l1.159,2.173l-1.159,2.174h-2.463l-0.29,0.725h3.188l1.595-2.898L137.503,5.506z
	"/>
<path fill="#666666" d="M137.503,41.44l-0.435,0.579l1.159,2.174l-1.159,2.028h-2.463l-0.29,0.725h3.188l1.595-2.753L137.503,41.44z
	"/>
<path fill="#666666" d="M73.896,5.506l-0.435,0.725l1.159,2.173l-1.159,2.174h-2.318l-0.435,0.725h3.188l1.449-2.898L73.896,5.506z"
	/>
<path fill="#666666" d="M73.896,41.44l-0.435,0.579l1.159,2.174l-1.159,2.028h-2.318l-0.435,0.725h3.188l1.449-2.753L73.896,41.44z"
	/>
<path fill="#FFFFFF" d="M134.316,11.302l0.29-0.725l-1.159-2.174l1.159-2.173h2.463l0.435-0.725h-3.188l-1.738,2.897L134.316,11.302
	z"/>
<path fill="#FFFFFF" d="M134.316,46.946l0.29-0.725l-1.159-2.028l1.159-2.174h2.463l0.435-0.579h-3.188l-1.738,2.753L134.316,46.946
	z"/>
<path fill="#FFFFFF" d="M70.708,11.302l0.435-0.725l-1.159-2.174l1.159-2.173h2.318l0.435-0.725h-3.188l-1.594,2.897L70.708,11.302z
	"/>
<path fill="#FFFFFF" d="M70.708,46.946l0.435-0.725l-1.159-2.028l1.159-2.174h2.318l0.435-0.579h-3.188l-1.594,2.753L70.708,46.946z
	"/>
<path fill="#FFFFFF" d="M7.1,11.302l0.436-0.725L6.231,8.404l1.305-2.173h2.463l0.29-0.725H7.1L5.506,8.404L7.1,11.302z"/>
<path fill="#FFFFFF" d="M7.1,46.946l0.436-0.725l-1.305-2.028l1.305-2.174h2.463l0.29-0.579H7.1l-1.594,2.753L7.1,46.946z"/>
<path fill="#4C4C4C" d="M11.882,40.57V12.026h120.695V40.57H11.882z"/>
<path d="M11.882,40.57l2.463-2.318V14.344h115.914l2.318-2.318H11.882V40.57z"/>
<path fill="#7F7F7F" d="M132.722,12.026l-2.463,2.318v23.907H14.2l-2.318,2.318h120.84V12.026z"/>
<path fill="none" stroke="#FFFFFF" stroke-width="2" d="M11.882,40.57h120.695V12.026"/>
</svg>
