<?xml version="1.0" encoding="utf-8"?>
<!-- Generator: Adobe Illustrator 14.0.0, SVG Export Plug-In . SVG Version: 6.00 Build 43363)  -->
<!DOCTYPE svg PUBLIC "-//W3C//DTD SVG 1.1//EN" "http://www.w3.org/Graphics/SVG/1.1/DTD/svg11.dtd">
<svg version="1.1" id="图层_1" xmlns="http://www.w3.org/2000/svg" xmlns:xlink="http://www.w3.org/1999/xlink" x="0px" y="0px"
	 width="144.749px" height="81.145px" viewBox="0 0 144.749 81.145" enable-background="new 0 0 144.749 81.145"
	 xml:space="preserve">
<path fill="#CCCCCC" stroke="#000000" stroke-width="2" d="M4.057,77.085V4.058h136.49v73.026H4.057z"/>
<path fill="#4C4C4C" d="M11.881,69.116V11.883h120.696v57.233H11.881z"/>
<path d="M11.881,69.116l2.463-2.318V14.346h115.915l2.464-2.464H11.881V69.116z"/>
<path fill="#7F7F7F" d="M132.723,11.883l-2.464,2.464v52.451H14.344l-2.463,2.318h120.842V11.883z"/>
<path fill="none" stroke="#FFFFFF" stroke-width="2" d="M11.881,69.116h120.842V11.883"/>
<path fill="#FFFFFF" d="M134.317,75.491l0.29-0.724l-1.159-2.029l1.159-2.173h2.463l0.435-0.725h-3.188l-1.594,2.897L134.317,75.491
	z"/>
<path fill="#FFFFFF" d="M134.317,11.159l0.29-0.725l-1.159-2.028l1.159-2.174h2.463l0.435-0.579h-3.188l-1.594,2.753L134.317,11.159
	z"/>
<path fill="#FFFFFF" d="M70.708,75.491l0.435-0.724l-1.159-2.029l1.159-2.173h2.318l0.435-0.725h-3.188l-1.594,2.897L70.708,75.491z
	"/>
<path fill="#FFFFFF" d="M70.708,11.159l0.435-0.725l-1.159-2.028l1.159-2.174h2.318l0.435-0.579h-3.188l-1.594,2.753L70.708,11.159z
	"/>
<path fill="#FFFFFF" d="M7.244,75.491l0.29-0.724l-1.159-2.029l1.159-2.173h2.463l0.435-0.725H7.244l-1.594,2.897L7.244,75.491z"/>
<path fill="#FFFFFF" d="M7.244,11.159l0.29-0.725L6.375,8.406l1.159-2.174h2.463l0.435-0.579H7.244L5.651,8.406L7.244,11.159z"/>
<path fill="#666666" d="M137.504,69.841l-0.435,0.725l1.159,2.173l-1.159,2.029h-2.463l-0.29,0.724h3.188l1.449-2.753
	L137.504,69.841z"/>
<path fill="#666666" d="M137.504,5.653l-0.435,0.579l1.159,2.174l-1.159,2.028h-2.463l-0.29,0.725h3.188l1.449-2.753L137.504,5.653z
	"/>
<path fill="#666666" d="M73.896,69.841l-0.435,0.725l1.304,2.173l-1.304,2.029h-2.318l-0.435,0.724h3.188l1.594-2.753L73.896,69.841
	z"/>
<path fill="#666666" d="M73.896,5.653l-0.435,0.579l1.304,2.174l-1.304,2.028h-2.318l-0.435,0.725h3.188l1.594-2.753L73.896,5.653z"
	/>
<path fill="#666666" d="M10.432,69.841l-0.435,0.725l1.159,2.173l-1.159,2.029H7.534l-0.29,0.724h3.188l1.449-2.753L10.432,69.841z"
	/>
<path fill="#666666" d="M10.432,5.653L9.997,6.232l1.159,2.174l-1.159,2.028H7.534l-0.29,0.725h3.188l1.449-2.753L10.432,5.653z"/>
</svg>
