<?xml version="1.0" encoding="utf-8"?>
<!-- Generator: Adobe Illustrator 14.0.0, SVG Export Plug-In . SVG Version: 6.00 Build 43363)  -->
<!DOCTYPE svg PUBLIC "-//W3C//DTD SVG 1.1//EN" "http://www.w3.org/Graphics/SVG/1.1/DTD/svg11.dtd">
<svg version="1.1" id="图层_1" xmlns="http://www.w3.org/2000/svg" xmlns:xlink="http://www.w3.org/1999/xlink" x="0px" y="0px"
	 width="106.395px" height="106.502px" viewBox="0 0 106.395 106.502" enable-background="new 0 0 106.395 106.502"
	 xml:space="preserve">
<path fill="#E5E5E5" stroke="#000000" stroke-width="2" d="M2.985,2.986h100.424V103.41H2.985V2.986z"/>
<path fill="#B2B2B2" stroke="#000000" stroke-width="2" d="M5.01,17.058l12.047-11.94H89.87l11.94,11.94v72.28l-11.94,12.474H17.057
	L5.01,89.338V17.058z"/>
<path fill="#FFFFFF" d="M7.142,18.124l10.981-10.98h70.574l11.087,10.98v70.146L88.698,99.785H18.124L7.142,88.272V18.124z"/>
<path d="M18.124,6.93L17.91,7.036L6.929,18.018l0.427,0.319l10.98-10.98l-0.213,0.106L18.124,6.93h-0.108L17.91,7.036L18.124,6.93z"
	/>
<path d="M88.911,7.036L88.698,6.93H18.124v0.533h70.574l-0.107-0.106L88.911,7.036L88.805,6.93h-0.106L88.911,7.036z"/>
<path d="M99.998,18.124l-0.105-0.106L88.911,7.036l-0.32,0.32l10.979,10.98l-0.105-0.213L99.998,18.124v-0.107h-0.105L99.998,18.124
	z"/>
<path d="M99.891,88.485l0.106-0.213V18.124h-0.533v70.146l0.106-0.105L99.891,88.485l0.106-0.106v-0.106L99.891,88.485z"/>
<path d="M88.698,99.998l0.213-0.106l10.979-11.406l-0.32-0.319L88.591,99.573h0.106L88.698,99.998h0.106l0.105-0.106L88.698,99.998z
	"/>
<path d="M17.91,99.892l0.214,0.106h70.574v-0.426H18.124h0.213L17.91,99.892l0.106,0.106h0.107L17.91,99.892z"/>
<path d="M6.929,88.272v0.213l10.98,11.406l0.427-0.318L7.356,88.165v0.105H6.929v0.106v0.106V88.272z"/>
<path d="M6.929,18.018v0.106v70.146h0.427V18.124v0.213L6.929,18.018L6.929,18.018v0.106V18.018z"/>
<path fill="#0000FF" stroke="#000000" stroke-width="2" d="M7.25,83.048h92.535v5.225H7.25V83.048z"/>
<circle fill="#7F7F7F" stroke="#000000" stroke-width="2" cx="7.142" cy="7.143" r="2.132"/>
<path stroke="#000000" stroke-width="2" d="M6.929,5.865h0.32v2.559h-0.32V5.865z"/>
<path stroke="#000000" stroke-width="2" d="M5.863,7.357v-0.32h2.559v0.32H5.863z"/>
<circle fill="#7F7F7F" stroke="#000000" stroke-width="2" cx="99.678" cy="7.143" r="2.026"/>
<path stroke="#000000" stroke-width="2" d="M99.57,5.865h0.32v2.559h-0.32V5.865z"/>
<path stroke="#000000" stroke-width="2" d="M98.398,7.357v-0.32h2.666v0.32H98.398z"/>
<circle fill="#7F7F7F" stroke="#000000" stroke-width="2" cx="7.142" cy="99.679" r="2.132"/>
<path stroke="#000000" stroke-width="2" d="M6.929,98.506h0.32v2.56h-0.32V98.506z"/>
<path stroke="#000000" stroke-width="2" d="M5.863,99.892v-0.318h2.559v0.318H5.863z"/>
<circle fill="#7F7F7F" stroke="#000000" stroke-width="2" cx="99.678" cy="99.679" r="2.025"/>
<path stroke="#000000" stroke-width="2" d="M99.57,98.506h0.32v2.56h-0.32V98.506z"/>
<path stroke="#000000" stroke-width="2" d="M98.398,99.892v-0.318h2.666v0.318H98.398z"/>
<path fill="#FFFFFF" d="M22.814,17.591l2.132-2.025h56.502l2.133,2.025v58.635l-2.133,2.133H24.946l-2.132-2.133V17.591z"/>
<path d="M24.946,15.352h-0.213l-2.025,2.133l0.319,0.319l2.132-2.132l-0.213,0.106V15.352H24.84h-0.106H24.946z"/>
<path d="M81.662,15.352h-0.214H24.946v0.427h56.502l-0.214-0.106L81.662,15.352h-0.107h-0.105H81.662z"/>
<path d="M83.794,17.591l-0.106-0.106l-2.024-2.133l-0.427,0.32l2.132,2.132l-0.106-0.213H83.794v-0.106h-0.106L83.794,17.591z"/>
<path d="M83.688,76.438l0.105-0.213V17.591H83.26v58.635l0.106-0.213L83.688,76.438l0.105-0.106v-0.106L83.688,76.438z"/>
<path d="M81.448,78.571l0.214-0.106l2.025-2.024l-0.32-0.428l-2.133,2.133l0.214-0.106V78.571h0.106l0.106-0.106L81.448,78.571z"/>
<path d="M24.733,78.464l0.213,0.105h56.502v-0.532H24.946l0.213,0.106L24.733,78.464l0.106,0.105h0.106L24.733,78.464z"/>
<path d="M22.6,76.226l0.107,0.213l2.025,2.025l0.426-0.32l-2.132-2.132l0.106,0.214H22.6v0.105l0.107,0.107L22.6,76.226z"/>
<path d="M22.708,17.485L22.6,17.591v58.635h0.533V17.591l-0.106,0.213L22.708,17.485H22.6v0.106L22.708,17.485z"/>
<path fill="#0000FF" d="M42.004,50.107h7.676l1.065,0.213l0.747,0.64l0.106,0.533v8.635l-0.533,1.066l-0.96,0.318l-0.426,0.107
	h-7.676l-1.066-0.32l-0.64-0.64l-0.213-0.533v-8.635l0.64-1.066l0.959-0.319H42.004z"/>
<path d="M49.679,49.786h-7.676v0.533h7.676V49.786z"/>
<path d="M51.918,51.492l-0.106-0.32l-0.106-0.319l-0.213-0.32l-0.32-0.213l-0.319-0.213L50.534,50l-0.427-0.106l-0.426-0.106v0.533
	h0.426l0.32,0.106l0.319,0.106l0.214,0.106l0.213,0.214l0.106,0.213l0.106,0.213v0.214L51.918,51.492L51.918,51.492z"/>
<path d="M51.918,60.127v-8.635h-0.533v8.635H51.918z"/>
<path d="M49.679,61.833l0.426-0.105h0.427l0.32-0.215l0.319-0.213l0.32-0.213l0.213-0.32l0.106-0.318l0.106-0.32h-0.533v0.214
	l-0.106,0.214l-0.106,0.213l-0.213,0.213l-0.214,0.106l-0.319,0.106l-0.32,0.105h-0.426V61.833z"/>
<path d="M42.004,61.833h7.676V61.3h-7.676V61.833z"/>
<path d="M39.871,60.127v0.32l0.214,0.319l0.213,0.319L40.51,61.3l0.32,0.213l0.427,0.215h0.319l0.427,0.105V61.3h-0.32l-0.319-0.105
	l-0.32-0.106l-0.213-0.106l-0.213-0.213l-0.107-0.213l-0.106-0.214l-0.106-0.214L39.871,60.127L39.871,60.127z"/>
<path d="M39.871,51.492v8.635h0.427v-8.635H39.871z"/>
<path d="M42.004,49.786l-0.427,0.106l-0.319,0.106l-0.427,0.107l-0.32,0.213l-0.213,0.213l-0.213,0.32l-0.214,0.319v0.32h0.427
	l0.106-0.214l0.106-0.213l0.107-0.213l0.213-0.214l0.213-0.106l0.32-0.106l0.319-0.106h0.32v-0.532H42.004z"/>
<path fill="#0000FF" d="M27.398,50.107h7.676l1.066,0.213l0.64,0.64l0.213,0.533v8.635l-0.533,1.066l-1.066,0.318l-0.319,0.107
	h-7.676l-1.066-0.32l-0.746-0.64l-0.106-0.533v-8.635l0.533-1.066l0.959-0.319H27.398z"/>
<path d="M35.074,49.786h-7.676v0.533h7.676V49.786z"/>
<path d="M37.206,51.492v-0.32l-0.213-0.319l-0.213-0.32l-0.214-0.213l-0.319-0.213L35.927,50l-0.426-0.106l-0.427-0.106v0.533h0.319
	l0.32,0.106l0.319,0.106l0.214,0.106l0.213,0.214l0.213,0.213v0.213l0.107,0.214L37.206,51.492L37.206,51.492z"/>
<path d="M37.206,60.127v-8.635H36.78v8.635H37.206z"/>
<path d="M35.074,61.833l0.427-0.105h0.426l0.32-0.215l0.319-0.213l0.214-0.213l0.213-0.32l0.213-0.318v-0.32H36.78l-0.107,0.214
	v0.214l-0.213,0.213l-0.213,0.213l-0.214,0.106l-0.319,0.106l-0.32,0.105h-0.319L35.074,61.833L35.074,61.833z"/>
<path d="M27.398,61.833h7.676V61.3h-7.676V61.833z"/>
<path d="M25.266,60.127v0.32l0.106,0.319l0.213,0.319l0.32,0.213l0.319,0.214l0.32,0.213h0.426l0.427,0.106V61.3h-0.32l-0.426-0.105
	l-0.214-0.106l-0.319-0.106l-0.106-0.213l-0.214-0.213l-0.106-0.214v-0.214L25.266,60.127L25.266,60.127z"/>
<path d="M25.266,51.492v8.635h0.426v-8.635H25.266z"/>
<path d="M27.398,49.786l-0.427,0.106l-0.426,0.106l-0.32,0.107l-0.319,0.213l-0.32,0.213l-0.213,0.32l-0.106,0.319v0.32h0.426
	v-0.214l0.106-0.213l0.214-0.213l0.106-0.214l0.319-0.106l0.214-0.106l0.426-0.106h0.32V49.786z"/>
<path fill="#0000FF" d="M42.004,64.179h7.676l1.065,0.319l0.747,0.533l0.106,0.64v8.635l-0.533,0.961l-0.96,0.426h-0.426h-7.676
	l-1.066-0.213l-0.64-0.641l-0.213-0.533v-8.635l0.64-1.066l0.959-0.318L42.004,64.179z"/>
<path d="M49.679,63.965h-7.676v0.427h7.676V63.965z"/>
<path d="M51.918,65.671l-0.106-0.427l-0.106-0.319l-0.213-0.214l-0.32-0.319l-0.319-0.105l-0.32-0.214l-0.427-0.106h-0.426v0.428
	l0.426,0.105h0.32l0.319,0.213l0.214,0.107l0.213,0.213l0.106,0.213l0.106,0.214v0.213L51.918,65.671L51.918,65.671z"/>
<path d="M51.918,74.306v-8.635h-0.533v8.635H51.918z"/>
<path d="M49.679,75.906h0.426l0.427-0.106l0.32-0.107l0.319-0.213l0.32-0.213l0.213-0.319l0.106-0.319l0.106-0.32h-0.533v0.215
	l-0.106,0.213l-0.106,0.213l-0.213,0.214l-0.214,0.106l-0.319,0.105l-0.32,0.105h-0.426V75.906z"/>
<path d="M42.004,75.906h7.676v-0.427h-7.676V75.906z"/>
<path d="M39.871,74.306v0.32l0.214,0.318l0.213,0.32l0.213,0.213l0.32,0.213l0.427,0.107l0.319,0.105h0.427v-0.426h-0.32
	l-0.319-0.106l-0.32-0.106l-0.213-0.105l-0.213-0.215l-0.107-0.213l-0.106-0.213L40.3,74.306H39.871L39.871,74.306z"/>
<path d="M39.871,65.671v8.635h0.427v-8.635H39.871z"/>
<path d="M42.004,63.965h-0.427l-0.319,0.106l-0.427,0.214l-0.32,0.106l-0.213,0.318l-0.213,0.214l-0.214,0.319v0.427h0.427
	l0.106-0.213l0.106-0.214l0.107-0.213l0.213-0.213l0.213-0.107l0.32-0.213h0.319l0.32-0.105v-0.427H42.004z"/>
<path fill="#0000FF" d="M27.398,64.179h7.676l1.066,0.319l0.64,0.533l0.213,0.64v8.635l-0.533,0.961l-1.066,0.426h-0.319h-7.676
	l-1.066-0.213l-0.746-0.641l-0.106-0.533v-8.635l0.533-1.066l0.959-0.318L27.398,64.179z"/>
<path d="M35.074,63.965h-7.676v0.427h7.676V63.965z"/>
<path d="M37.206,65.671v-0.427l-0.213-0.319l-0.213-0.214l-0.214-0.319l-0.319-0.105l-0.32-0.214l-0.426-0.106h-0.427v0.428
	l0.319,0.105h0.32l0.319,0.213l0.214,0.107l0.213,0.213l0.213,0.213v0.214l0.107,0.213L37.206,65.671L37.206,65.671z"/>
<path d="M37.206,74.306v-8.635H36.78v8.635H37.206z"/>
<path d="M35.074,75.906h0.427l0.426-0.106l0.32-0.107l0.319-0.213l0.214-0.213l0.213-0.319l0.213-0.319v-0.32H36.78l-0.107,0.215
	v0.213l-0.213,0.213l-0.213,0.214l-0.214,0.106l-0.319,0.105l-0.32,0.105h-0.319L35.074,75.906L35.074,75.906z"/>
<path d="M27.398,75.906h7.676v-0.427h-7.676V75.906z"/>
<path d="M25.266,74.306v0.32l0.106,0.318l0.213,0.32l0.32,0.213l0.319,0.213l0.32,0.107l0.426,0.105h0.427v-0.426h-0.32
	l-0.426-0.106l-0.214-0.106l-0.319-0.105l-0.106-0.215l-0.214-0.213l-0.106-0.213v-0.213H25.266L25.266,74.306z"/>
<path d="M25.266,65.671v8.635h0.426v-8.635H25.266z"/>
<path d="M27.398,63.965h-0.427l-0.426,0.106l-0.32,0.214l-0.319,0.106l-0.32,0.318l-0.213,0.214l-0.106,0.319v0.427h0.426v-0.213
	l0.106-0.214l0.214-0.213l0.106-0.213l0.319-0.107l0.214-0.213h0.426l0.32-0.105V63.965z"/>
<path fill="#0000FF" d="M71.32,50.107h7.676l1.066,0.213l0.746,0.64l0.105,0.533v8.635l-0.532,1.066l-0.96,0.318l-0.427,0.107H71.32
	l-1.065-0.32l-0.746-0.64l-0.106-0.533v-8.635l0.533-1.066l0.959-0.319H71.32z"/>
<path d="M78.996,49.786H71.32v0.533h7.676V49.786z"/>
<path d="M81.129,51.492v-0.32l-0.214-0.319l-0.106-0.32L80.49,50.32l-0.32-0.213L79.852,50l-0.428-0.106l-0.427-0.106v0.533h0.319
	l0.32,0.106l0.319,0.106l0.319,0.106l0.106,0.214l0.214,0.213v0.213l0.105,0.214L81.129,51.492L81.129,51.492z"/>
<path d="M81.129,60.127v-8.635h-0.427v8.635H81.129z"/>
<path d="M78.996,61.833l0.427-0.105h0.427l0.319-0.215l0.319-0.213l0.32-0.213l0.105-0.32l0.214-0.318v-0.32h-0.427l-0.105,0.214
	v0.214l-0.214,0.213l-0.106,0.213l-0.319,0.106l-0.319,0.106l-0.32,0.105h-0.32V61.833z"/>
<path d="M71.32,61.833h7.676V61.3H71.32V61.833z"/>
<path d="M69.188,60.127v0.32l0.106,0.319l0.319,0.319l0.214,0.213l0.319,0.214l0.319,0.213h0.427l0.426,0.106V61.3H71l-0.32-0.105
	l-0.318-0.106l-0.213-0.106l-0.215-0.213l-0.213-0.213l-0.105-0.214v-0.214L69.188,60.127L69.188,60.127z"/>
<path d="M69.188,51.492v8.635h0.428v-8.635H69.188z"/>
<path d="M71.32,49.786l-0.426,0.106l-0.428,0.106l-0.318,0.107l-0.32,0.213l-0.213,0.213l-0.32,0.32l-0.105,0.319v0.32h0.427v-0.214
	l0.106-0.213l0.213-0.213l0.213-0.214l0.213-0.106l0.32-0.106l0.319-0.106h0.319V49.786z"/>
<path fill="#0000FF" d="M56.716,50.107h7.677l1.064,0.213l0.641,0.64l0.213,0.533v8.635l-0.64,1.066l-0.96,0.318l-0.318,0.107
	h-7.677L55.65,61.3l-0.746-0.64l-0.106-0.533v-8.635l0.533-1.066l0.959-0.319H56.716z"/>
<path d="M64.391,49.786h-7.676v0.533h7.676V49.786z"/>
<path d="M66.523,51.492v-0.32l-0.213-0.319l-0.215-0.32l-0.213-0.213l-0.32-0.213L65.137,50l-0.32-0.106l-0.426-0.106v0.533h0.319
	l0.319,0.106l0.32,0.106l0.213,0.106l0.213,0.214l0.106,0.213l0.106,0.213l0.105,0.214L66.523,51.492L66.523,51.492z"/>
<path d="M66.523,60.127v-8.635h-0.428v8.635H66.523z"/>
<path d="M64.391,61.833l0.426-0.105h0.32l0.426-0.215l0.32-0.213l0.213-0.213l0.215-0.32l0.213-0.318v-0.32h-0.428l-0.105,0.214
	l-0.106,0.214l-0.106,0.213l-0.213,0.213l-0.213,0.106l-0.319,0.106l-0.32,0.105h-0.319v0.533H64.391z"/>
<path d="M56.716,61.833h7.677V61.3h-7.677V61.833z"/>
<path d="M54.477,60.127l0.105,0.32l0.107,0.319l0.213,0.319l0.318,0.213l0.32,0.214l0.318,0.213h0.428l0.427,0.106V61.3h-0.427
	l-0.319-0.105l-0.214-0.106l-0.318-0.106l-0.215-0.213l-0.105-0.213l-0.106-0.214v-0.214L54.477,60.127L54.477,60.127z"/>
<path d="M54.477,51.492v8.635h0.532v-8.635H54.477z"/>
<path d="M56.716,49.786l-0.427,0.106l-0.428,0.106l-0.318,0.107l-0.32,0.213l-0.318,0.213l-0.213,0.32l-0.107,0.319l-0.105,0.32
	h0.533v-0.214l0.105-0.213l0.105-0.213l0.215-0.214l0.318-0.106l0.215-0.106l0.318-0.106h0.427V49.786z"/>
<path fill="#0000FF" d="M71.32,64.179h7.676l1.066,0.319l0.746,0.533l0.105,0.64v8.635l-0.532,0.961l-0.96,0.426h-0.427H71.32
	l-1.065-0.213l-0.746-0.641l-0.106-0.533v-8.635l0.533-1.066l0.959-0.318L71.32,64.179z"/>
<path d="M78.996,63.965H71.32v0.427h7.676V63.965z"/>
<path d="M81.129,65.671v-0.427l-0.214-0.319l-0.213-0.214l-0.214-0.319l-0.319-0.105l-0.319-0.214l-0.427-0.106h-0.427v0.428
	l0.32,0.105h0.318l0.32,0.213l0.318,0.107l0.107,0.213l0.213,0.213v0.214l0.106,0.213L81.129,65.671L81.129,65.671z"/>
<path d="M81.129,74.306v-8.635h-0.427v8.635H81.129z"/>
<path d="M78.996,75.906h0.427L79.85,75.8l0.319-0.107l0.319-0.213l0.214-0.213l0.213-0.319l0.214-0.319v-0.32h-0.427l-0.106,0.215
	v0.213l-0.213,0.213l-0.107,0.214l-0.318,0.106l-0.32,0.105l-0.318,0.105h-0.32v0.427H78.996z"/>
<path d="M71.32,75.906h7.676v-0.427H71.32V75.906z"/>
<path d="M69.188,74.306v0.32l0.106,0.318l0.319,0.32l0.214,0.213l0.319,0.213l0.319,0.107l0.427,0.105h0.426v-0.426H71l-0.32-0.106
	l-0.318-0.106l-0.213-0.105l-0.215-0.215l-0.213-0.213l-0.105-0.213v-0.213H69.188L69.188,74.306z"/>
<path d="M69.188,65.671v8.635h0.428v-8.635H69.188z"/>
<path d="M71.32,63.965h-0.426l-0.428,0.106l-0.318,0.214l-0.32,0.106l-0.213,0.318l-0.32,0.214l-0.105,0.319v0.427h0.427v-0.213
	l0.106-0.214l0.213-0.213l0.213-0.213l0.213-0.107l0.32-0.213h0.319l0.319-0.105V63.965z"/>
<path fill="#0000FF" d="M56.716,64.179h7.677l1.064,0.319l0.641,0.533l0.213,0.64v8.635l-0.64,0.961l-0.96,0.426h-0.318h-7.677
	l-1.065-0.213l-0.746-0.641l-0.106-0.533v-8.635l0.533-1.066l0.959-0.318L56.716,64.179z"/>
<path d="M64.391,63.965h-7.676v0.427h7.676V63.965z"/>
<path d="M66.523,65.671v-0.427l-0.213-0.319l-0.215-0.214l-0.213-0.319l-0.32-0.105l-0.426-0.214l-0.32-0.106h-0.426v0.428
	l0.319,0.105h0.319l0.32,0.213l0.213,0.107l0.213,0.213l0.106,0.213l0.106,0.214l0.105,0.213L66.523,65.671L66.523,65.671z"/>
<path d="M66.523,74.306v-8.635h-0.428v8.635H66.523z"/>
<path d="M64.391,75.906h0.426l0.32-0.106l0.426-0.107l0.32-0.213l0.213-0.213l0.215-0.319l0.213-0.319v-0.32h-0.428l-0.105,0.213
	l-0.106,0.213l-0.106,0.213l-0.213,0.214l-0.213,0.106l-0.319,0.105l-0.32,0.105h-0.319v0.429H64.391z"/>
<path d="M56.716,75.906h7.677v-0.427h-7.677V75.906z"/>
<path d="M54.477,74.306l0.105,0.32l0.107,0.318l0.213,0.32l0.318,0.213l0.32,0.213l0.318,0.107l0.428,0.105h0.427v-0.426h-0.427
	l-0.319-0.106l-0.214-0.106l-0.318-0.105l-0.215-0.215l-0.105-0.213l-0.105-0.211v-0.215H54.477z"/>
<path d="M54.477,65.671v8.635h0.532v-8.635H54.477z"/>
<path d="M56.716,63.965h-0.427l-0.428,0.106l-0.318,0.214l-0.32,0.106l-0.318,0.318l-0.213,0.214l-0.107,0.319l-0.105,0.427h0.533
	v-0.213l0.105-0.214l0.105-0.213l0.215-0.213l0.318-0.107l0.215-0.213h0.318l0.427-0.105V63.965z"/>
<path fill="#99CCCC" d="M25.479,17.591h55.436v29.317H25.479V17.591z"/>
<path d="M81.129,17.591l-0.214-0.213H25.479v0.532h55.436l-0.213-0.319H81.129v-0.213h-0.214L81.129,17.591z"/>
<path d="M80.915,47.228l0.214-0.319V17.591h-0.427v29.317l0.213-0.214V47.228h0.214v-0.319L80.915,47.228z"/>
<path d="M25.266,46.908l0.213,0.319h55.436v-0.533H25.479l0.213,0.214H25.266v0.319h0.213L25.266,46.908z"/>
<path d="M25.479,17.378l-0.213,0.213v29.317h0.426V17.591l-0.213,0.319V17.378h-0.213v0.213L25.479,17.378z"/>
<path fill="#7F7F7F" stroke="#000000" stroke-width="2" d="M85.818,78.358l0.854,0.531v0.215l-0.64,0.746h-0.214l-0.745-0.641
	v-0.105l0.64-0.746H85.818L85.818,78.358z"/>
<path fill="#7F7F7F" stroke="#000000" stroke-width="2" d="M85.818,75.159l0.746,0.531l0.106,0.32l-0.64,0.746h-0.213l-0.746-0.64
	v-0.106l0.64-0.853L85.818,75.159L85.818,75.159z"/>
<path fill="#7F7F7F" stroke="#000000" stroke-width="2" d="M85.818,72.067l0.854,0.641v0.105l-0.64,0.746h-0.214l-0.745-0.64v-0.106
	l0.64-0.746H85.818z"/>
<path fill="#7F7F7F" stroke="#000000" stroke-width="2" d="M85.818,68.869l0.854,0.64v0.106l-0.64,0.853h-0.214l-0.745-0.64v-0.213
	l0.64-0.746H85.818z"/>
<path fill="#FFFFFF" d="M30.17,68.976l1.066-2.132l1.066,2.132H30.17z"/>
<path fill="#FFFFFF" d="M31.449,66.737h-0.426l-1.066,2.133l0.427,0.105l1.065-2.024h-0.426L31.449,66.737l-0.213-0.426
	l-0.213,0.426H31.449z"/>
<path fill="#FFFFFF" d="M32.302,69.188l0.106-0.318l-0.96-2.132l-0.426,0.213l1.065,2.024l0.214-0.318L32.302,69.188h0.318
	l-0.213-0.318L32.302,69.188z"/>
<path fill="#FFFFFF" d="M29.957,68.869l0.213,0.319h2.133v-0.532H30.17l0.214,0.319L29.957,68.869l-0.106,0.319h0.319L29.957,68.869
	z"/>
<path fill="#FFFFFF" d="M46.801,71.001l-0.959,2.132l-1.066-2.132H46.801z"/>
<path fill="#FFFFFF" d="M45.628,73.24h0.427l0.96-2.134l-0.427-0.213l-0.96,2.133h0.427L45.628,73.24l0.214,0.426l0.213-0.426
	H45.628z"/>
<path fill="#FFFFFF" d="M44.775,70.788l-0.213,0.318l1.065,2.134l0.427-0.214l-1.066-2.133l-0.213,0.319V70.788h-0.427l0.214,0.318
	L44.775,70.788z"/>
<path fill="#FFFFFF" d="M47.014,71.108L46.8,70.789h-2.025v0.426H46.8l-0.213-0.319L47.014,71.108l0.213-0.319H46.8L47.014,71.108z"
	/>
<path fill="#FFFFFF" d="M59.273,71.001l-2.025-1.066l2.025-0.959V71.001z"/>
<path fill="#FFFFFF" d="M57.141,69.828v0.319l2.025,1.065l0.214-0.426l-2.024-1.065v0.426L57.141,69.828l-0.426,0.106l0.426,0.213
	V69.828z"/>
<path fill="#FFFFFF" d="M59.594,68.976l-0.427-0.213l-2.024,1.065l0.213,0.319l2.025-1.065l-0.32-0.106H59.594v-0.427l-0.427,0.214
	L59.594,68.976z"/>
<path fill="#FFFFFF" d="M59.167,71.214l0.427-0.213v-2.025h-0.533v2.025l0.319-0.213L59.167,71.214l0.427,0.214v-0.427
	L59.167,71.214z"/>
<path fill="#FFFFFF" d="M76.012,68.869l2.024,1.065L76.012,71V68.869z"/>
<path fill="#FFFFFF" d="M78.143,70.149v-0.428l-2.131-1.064l-0.107,0.426l2.025,1.066v-0.428L78.143,70.149l0.428-0.215
	l-0.428-0.213V70.149z"/>
<path fill="#FFFFFF" d="M75.691,71.001l0.32,0.213l2.131-1.064l-0.213-0.428l-2.025,1.066l0.32,0.213H75.691v0.427l0.32-0.214
	L75.691,71.001z"/>
<path fill="#FFFFFF" d="M76.012,68.656l-0.32,0.213v2.132h0.533v-2.132l-0.32,0.213L76.012,68.656l-0.32-0.107v0.32L76.012,68.656z"
	/>
<path fill="#FFFFFF" d="M31.236,73.133h0.213v-4.157h-0.533v4.157H31.236z"/>
<path fill="#FFFFFF" d="M45.842,66.844h-0.214v4.157h0.427v-4.157H45.842z"/>
<path fill="#FFFFFF" d="M63.538,70.042v-0.32h-4.265v0.533h4.265V70.042z"/>
<path fill="#FFFFFF" d="M71.747,69.935v0.215h4.265v-0.428h-4.265V69.935z"/>
<path fill="#7F7F7F" d="M64.924,24.414L64.711,24.2h-4.156v0.427h4.156l-0.213-0.213H64.924V24.2h-0.213L64.924,24.414z"/>
<path fill="#7F7F7F" d="M64.711,33.582l0.213-0.214v-8.954h-0.426v8.954l0.213-0.319V33.582h0.213v-0.214L64.711,33.582z"/>
<path fill="#7F7F7F" d="M60.34,33.368l0.215,0.214h4.156v-0.533h-4.156l0.213,0.319H60.34v0.214h0.215L60.34,33.368z"/>
<path fill="#7F7F7F" d="M60.553,24.2l-0.214,0.214v8.954h0.427v-8.954l-0.213,0.213V24.2H60.34v0.214L60.553,24.2z"/>
<path fill="#7F7F7F" d="M58.635,24.414L58.421,24.2h-4.157v0.427h4.157l-0.213-0.213H58.635V24.2h-0.214L58.635,24.414z"/>
<path fill="#7F7F7F" d="M58.421,33.582l0.214-0.214v-8.954h-0.427v8.954l0.213-0.319V33.582h0.214v-0.214L58.421,33.582z"/>
<path fill="#7F7F7F" d="M54.051,33.368l0.213,0.214h4.157v-0.533h-4.157l0.213,0.319H54.051v0.214h0.213L54.051,33.368z"/>
<path fill="#7F7F7F" d="M54.264,24.2l-0.214,0.214v8.954h0.427v-8.954l-0.213,0.213V24.2H54.05v0.214L54.264,24.2z"/>
</svg>
