<?xml version="1.0" encoding="utf-8"?>
<!-- Generator: Adobe Illustrator 14.0.0, SVG Export Plug-In . SVG Version: 6.00 Build 43363)  -->
<!DOCTYPE svg PUBLIC "-//W3C//DTD SVG 1.1//EN" "http://www.w3.org/Graphics/SVG/1.1/DTD/svg11.dtd">
<svg version="1.1" id="图层_1" xmlns="http://www.w3.org/2000/svg" xmlns:xlink="http://www.w3.org/1999/xlink" x="0px" y="0px"
	 width="72.921px" height="106.502px" viewBox="0 0 72.921 106.502" enable-background="new 0 0 72.921 106.502"
	 xml:space="preserve">
<path fill="#B2B2B2" stroke="#000000" stroke-width="2" d="M2.985,2.985h66.951V103.41H2.985V2.985z"/>
<path fill="#666666" stroke="#000000" stroke-width="2" d="M7.144,11.301h58.635v83.794H7.144V11.301z"/>
<path fill="#E5E5E5" stroke="#000000" stroke-width="2" d="M15.565,19.723h41.791V36.46H15.565V19.723z"/>
<path fill="#00FF00" d="M17.591,23.88h37.74v10.448h-37.74V23.88z"/>
<path fill="#00CC00" d="M17.591,21.748h37.74v3.198h-37.74V21.748z"/>
<path fill="none" stroke="#000000" stroke-width="2" d="M17.591,21.748h37.74v12.58h-37.74V21.748"/>
<path fill="#FF0000" stroke="#000000" stroke-width="2" d="M15.565,78.571h12.473v11.301H15.565V78.571z"/>
<path fill="#E5E5E5" stroke="#000000" stroke-width="2" d="M15.565,41.684h12.473v11.301H15.565V41.684z"/>
<path fill="#E5E5E5" stroke="#000000" stroke-width="2" d="M15.565,66.311h12.473v11.194H15.565V66.311z"/>
<path fill="#E5E5E5" stroke="#000000" stroke-width="2" d="M15.565,53.945h12.473v11.3H15.565V53.945z"/>
<path fill="#FFFF00" stroke="#000000" stroke-width="2" d="M44.777,78.571h12.579v11.301H44.777V78.571z"/>
<path fill="#E5E5E5" stroke="#000000" stroke-width="2" d="M44.777,41.684h12.579v11.301H44.777V41.684z"/>
<path fill="#E5E5E5" stroke="#000000" stroke-width="2" d="M44.777,66.311h12.579v11.194H44.777V66.311z"/>
<path fill="#FFFF00" stroke="#000000" stroke-width="2" d="M44.777,53.945h12.579v11.3H44.777V53.945z"/>
<path fill="#E5E5E5" stroke="#000000" stroke-width="2" d="M30.171,78.571h12.581v11.301H30.171V78.571z"/>
<path fill="#E5E5E5" stroke="#000000" stroke-width="2" d="M30.171,41.684h12.581v11.301H30.171V41.684z"/>
<path fill="#E5E5E5" stroke="#000000" stroke-width="2" d="M30.171,66.311h12.581v11.194H30.171V66.311z"/>
<path fill="#E5E5E5" stroke="#000000" stroke-width="2" d="M30.171,53.945h12.581v11.3H30.171V53.945z"/>
<path stroke="#000000" stroke-width="2" d="M46.375,63.859l4.798-8.422l4.69,8.422H46.375z"/>
<path stroke="#000000" stroke-width="2" d="M55.757,79.957l-4.584,8.422l-4.691-8.422H55.757z"/>
<circle fill="#4C4C4C" stroke="#000000" stroke-width="2" cx="9.169" cy="7.143" r="2.025"/>
<circle fill="#4C4C4C" stroke="#000000" stroke-width="2" cx="63.646" cy="7.143" r="2.025"/>
<circle fill="#4C4C4C" stroke="#000000" stroke-width="2" cx="9.169" cy="99.146" r="2.026"/>
<circle fill="#4C4C4C" stroke="#000000" stroke-width="2" cx="63.646" cy="99.146" r="2.026"/>
<path fill="#CC9933" stroke="#000000" stroke-width="2" d="M9.275,13.433h18.763v1.066H9.275V13.433z"/>
<path fill="#CC9933" stroke="#000000" stroke-width="2" d="M9.275,15.565h18.763v1.066H9.275V15.565z"/>
<path fill="#CC9933" stroke="#000000" stroke-width="2" d="M9.275,17.59h18.763v1.066H9.275V17.59z"/>
<path fill="#CCCCCC" stroke="#000000" stroke-width="2" d="M32.303,13.433h31.343v1.066H32.303V13.433z"/>
<path fill="#CCCCCC" stroke="#000000" stroke-width="2" d="M32.303,15.565h31.343v1.066H32.303V15.565z"/>
<path fill="#CCCCCC" stroke="#000000" stroke-width="2" d="M32.303,17.59h31.343v1.066H32.303V17.59z"/>
</svg>
