<?xml version="1.0" encoding="utf-8"?>
<!-- Generator: Adobe Illustrator 14.0.0, SVG Export Plug-In . SVG Version: 6.00 Build 43363)  -->
<!DOCTYPE svg PUBLIC "-//W3C//DTD SVG 1.1//EN" "http://www.w3.org/Graphics/SVG/1.1/DTD/svg11.dtd">
<svg version="1.1" id="图层_1" xmlns="http://www.w3.org/2000/svg" xmlns:xlink="http://www.w3.org/1999/xlink" x="0px" y="0px"
	 width="144.749px" height="79.258px" viewBox="0 0 144.749 79.258" enable-background="new 0 0 144.749 79.258"
	 xml:space="preserve">
<path stroke="#000000" stroke-width="2" d="M4.057,4.058h136.49V75.2H4.057V4.058z"/>
<path fill="#E5E5E5" stroke="#000000" stroke-width="2" d="M4.057,4.058h136.49l-1.449,2.173L5.506,73.752L4.057,75.2V4.058z"/>
<path fill="#7F7F7F" stroke="#000000" stroke-width="2" d="M5.361,5.506h133.882v68.246H5.361V5.506z"/>
<path fill="#CCCCCC" stroke="#7F7F7F" stroke-width="2" d="M9.708,16.808h86.791v45.641H9.708V16.808z"/>
<path fill="#00FF00" stroke="#000000" stroke-width="2" d="M15.359,23.039h75.489v33.18H15.359V23.039z"/>
<path fill="#009933" stroke="#00FF00" stroke-width="2" d="M16.083,23.908h5.216v7.39h-5.216V23.908z"/>
<path fill="#009933" stroke="#00FF00" stroke-width="2" d="M21.879,23.908h5.216v7.39h-5.216V23.908z"/>
<path fill="#009933" stroke="#00FF00" stroke-width="2" d="M27.53,23.908h5.217v7.39H27.53V23.908z"/>
<path fill="#009933" stroke="#00FF00" stroke-width="2" d="M33.325,23.908h5.216v7.39h-5.216V23.908z"/>
<path fill="#009933" stroke="#00FF00" stroke-width="2" d="M39.121,23.908h5.071v7.39h-5.071V23.908z"/>
<path fill="#009933" stroke="#00FF00" stroke-width="2" d="M44.772,23.908h5.217v7.39h-5.217V23.908z"/>
<path fill="#009933" stroke="#00FF00" stroke-width="2" d="M50.423,23.908h5.216v7.39h-5.216V23.908z"/>
<path fill="#009933" stroke="#00FF00" stroke-width="2" d="M56.219,23.908h5.216v7.39h-5.216V23.908z"/>
<path fill="#009933" stroke="#00FF00" stroke-width="2" d="M62.015,23.908h5.071v7.39h-5.071V23.908z"/>
<path fill="#009933" stroke="#00FF00" stroke-width="2" d="M67.665,23.908h5.216v7.39h-5.216V23.908z"/>
<path fill="#009933" stroke="#00FF00" stroke-width="2" d="M73.461,23.908h5.216v7.39h-5.216V23.908z"/>
<path fill="#009933" stroke="#00FF00" stroke-width="2" d="M79.112,23.908h5.217v7.39h-5.217V23.908z"/>
<path fill="#009933" stroke="#00FF00" stroke-width="2" d="M84.907,23.908h5.071v7.39h-5.071V23.908z"/>
<path fill="#009933" stroke="#00FF00" stroke-width="2" d="M16.228,31.877h5.071v7.39h-5.071V31.877z"/>
<path fill="#009933" stroke="#00FF00" stroke-width="2" d="M21.879,31.877h5.216v7.39h-5.216V31.877z"/>
<path fill="#009933" stroke="#00FF00" stroke-width="2" d="M27.53,31.877h5.217v7.39H27.53V31.877z"/>
<path fill="#009933" stroke="#00FF00" stroke-width="2" d="M33.325,31.877h5.216v7.39h-5.216V31.877z"/>
<path fill="#009933" stroke="#00FF00" stroke-width="2" d="M39.121,31.877h5.071v7.39h-5.071V31.877z"/>
<path fill="#009933" stroke="#00FF00" stroke-width="2" d="M44.772,31.877h5.217v7.39h-5.217V31.877z"/>
<path fill="#009933" stroke="#00FF00" stroke-width="2" d="M50.568,31.877h5.071v7.39h-5.071V31.877z"/>
<path fill="#009933" stroke="#00FF00" stroke-width="2" d="M56.219,31.877h5.216v7.39h-5.216V31.877z"/>
<path fill="#009933" stroke="#00FF00" stroke-width="2" d="M62.015,31.877h5.071v7.39h-5.071V31.877z"/>
<path fill="#009933" stroke="#00FF00" stroke-width="2" d="M67.665,31.877h5.216v7.39h-5.216V31.877z"/>
<path fill="#009933" stroke="#00FF00" stroke-width="2" d="M73.461,31.877h5.216v7.39h-5.216V31.877z"/>
<path fill="#009933" stroke="#00FF00" stroke-width="2" d="M79.112,31.877h5.217v7.39h-5.217V31.877z"/>
<path fill="#009933" stroke="#00FF00" stroke-width="2" d="M84.907,31.877h5.217v7.39h-5.217V31.877z"/>
<path fill="#009933" stroke="#00FF00" stroke-width="2" d="M16.083,39.846h5.216v7.39h-5.216V39.846z"/>
<path fill="#009933" stroke="#00FF00" stroke-width="2" d="M21.879,39.846h5.216v7.39h-5.216V39.846z"/>
<path fill="#009933" stroke="#00FF00" stroke-width="2" d="M27.53,39.846h5.217v7.39H27.53V39.846z"/>
<path fill="#009933" stroke="#00FF00" stroke-width="2" d="M33.325,39.846h5.216v7.39h-5.216V39.846z"/>
<path fill="#009933" stroke="#00FF00" stroke-width="2" d="M39.121,39.846h5.071v7.39h-5.071V39.846z"/>
<path fill="#009933" stroke="#00FF00" stroke-width="2" d="M44.772,39.846h5.217v7.39h-5.217V39.846z"/>
<path fill="#009933" stroke="#00FF00" stroke-width="2" d="M50.423,39.846h5.216v7.39h-5.216V39.846z"/>
<path fill="#009933" stroke="#00FF00" stroke-width="2" d="M56.219,39.846h5.216v7.39h-5.216V39.846z"/>
<path fill="#009933" stroke="#00FF00" stroke-width="2" d="M62.015,39.846h5.071v7.39h-5.071V39.846z"/>
<path fill="#009933" stroke="#00FF00" stroke-width="2" d="M67.665,39.846h5.216v7.39h-5.216V39.846z"/>
<path fill="#009933" stroke="#00FF00" stroke-width="2" d="M73.461,39.846h5.216v7.39h-5.216V39.846z"/>
<path fill="#009933" stroke="#00FF00" stroke-width="2" d="M79.112,39.846h5.217v7.39h-5.217V39.846z"/>
<path fill="#009933" stroke="#00FF00" stroke-width="2" d="M84.907,39.846h5.071v7.39h-5.071V39.846z"/>
<path fill="#009933" stroke="#00FF00" stroke-width="2" d="M16.228,47.96h5.071v7.39h-5.071V47.96z"/>
<path fill="#009933" stroke="#00FF00" stroke-width="2" d="M21.879,47.96h5.216v7.39h-5.216V47.96z"/>
<path fill="#009933" stroke="#00FF00" stroke-width="2" d="M27.53,47.96h5.217v7.39H27.53V47.96z"/>
<path fill="#009933" stroke="#00FF00" stroke-width="2" d="M33.325,47.96h5.216v7.39h-5.216V47.96z"/>
<path fill="#009933" stroke="#00FF00" stroke-width="2" d="M39.121,47.96h5.071v7.39h-5.071V47.96z"/>
<path fill="#009933" stroke="#00FF00" stroke-width="2" d="M44.772,47.96h5.217v7.39h-5.217V47.96z"/>
<path fill="#009933" stroke="#00FF00" stroke-width="2" d="M50.568,47.96h5.071v7.39h-5.071V47.96z"/>
<path fill="#009933" stroke="#00FF00" stroke-width="2" d="M56.219,47.96h5.216v7.39h-5.216V47.96z"/>
<path fill="#009933" stroke="#00FF00" stroke-width="2" d="M62.015,47.96h5.071v7.39h-5.071V47.96z"/>
<path fill="#009933" stroke="#00FF00" stroke-width="2" d="M67.665,47.96h5.216v7.39h-5.216V47.96z"/>
<path fill="#009933" stroke="#00FF00" stroke-width="2" d="M73.461,47.96h5.216v7.39h-5.216V47.96z"/>
<path fill="#009933" stroke="#00FF00" stroke-width="2" d="M79.112,47.96h5.217v7.39h-5.217V47.96z"/>
<path fill="#009933" stroke="#00FF00" stroke-width="2" d="M84.907,47.96h5.217v7.39h-5.217V47.96z"/>
<path fill="#FFFFFF" stroke="#000000" stroke-width="2" d="M100.701,12.606h34.194v54.045h-34.194V12.606z"/>
<path fill="#00FFFF" stroke="#000000" stroke-width="2" d="M103.599,15.359h12.751v8.549h-12.751V15.359z"/>
<path fill="#00FFFF" stroke="#000000" stroke-width="2" d="M103.599,25.357h12.751v8.548h-12.751V25.357z"/>
<path fill="#E5E5E5" stroke="#000000" stroke-width="2" d="M103.599,35.354h12.751v8.549h-12.751V35.354z"/>
<path fill="#E5E5E5" stroke="#000000" stroke-width="2" d="M103.599,45.352h12.751v8.404h-12.751V45.352z"/>
<path fill="#E5E5E5" stroke="#000000" stroke-width="2" d="M103.599,55.205h12.751v8.549h-12.751V55.205z"/>
<path fill="#00FFFF" stroke="#000000" stroke-width="2" d="M119.247,15.359h12.751v8.549h-12.751V15.359z"/>
<path fill="#00FFFF" stroke="#000000" stroke-width="2" d="M119.247,25.357h12.751v8.548h-12.751V25.357z"/>
<path fill="#E5E5E5" stroke="#000000" stroke-width="2" d="M119.247,35.354h12.751v8.549h-12.751V35.354z"/>
<path fill="#E5E5E5" stroke="#000000" stroke-width="2" d="M119.247,45.352h12.751v8.404h-12.751V45.352z"/>
<path fill="#00FFFF" stroke="#000000" stroke-width="2" d="M119.247,55.205h12.751v8.549h-12.751V55.205z"/>
<path d="M128.665,39.846l-0.145-0.58h-5.651v0.725h5.651l-0.29-0.58L128.665,39.846l0.58-0.58h-0.725L128.665,39.846z"/>
<path d="M125.623,42.454l0.289,0.146l2.753-2.753l-0.435-0.435l-2.753,2.752L125.623,42.454z"/>
<path d="M125.623,36.803l-0.146,0.145l2.753,2.898l0.435-0.435l-2.753-2.898L125.623,36.803z"/>
<path d="M106.932,39.412l0.145,0.58h5.796v-0.725h-5.796l0.29,0.58L106.932,39.412l-0.58,0.58h0.725L106.932,39.412z"/>
<path d="M109.974,36.803l-0.145-0.145l-2.897,2.753l0.435,0.435l2.897-2.753L109.974,36.803z"/>
<path d="M109.974,42.454l0.29-0.145l-2.897-2.898l-0.435,0.435l2.897,2.898L109.974,42.454z"/>
</svg>
