<?xml version="1.0" encoding="utf-8"?>
<!-- Generator: Adobe Illustrator 14.0.0, SVG Export Plug-In . SVG Version: 6.00 Build 43363)  -->
<!DOCTYPE svg PUBLIC "-//W3C//DTD SVG 1.1//EN" "http://www.w3.org/Graphics/SVG/1.1/DTD/svg11.dtd">
<svg version="1.1" id="图层_1" xmlns="http://www.w3.org/2000/svg" xmlns:xlink="http://www.w3.org/1999/xlink" x="0px" y="0px"
	 width="106.503px" height="106.502px" viewBox="0 0 106.503 106.502" enable-background="new 0 0 106.503 106.502"
	 xml:space="preserve">
<path stroke="#000000" stroke-width="2" d="M2.985,2.985h100.426V103.41H2.985V2.985z"/>
<path fill="#CCCCCC" stroke="#000000" stroke-width="2" d="M4.051,102.345l98.293-98.294l1.066-1.066H2.985V103.41L4.051,102.345z"
	/>
<path fill="#7F7F7F" stroke="#000000" stroke-width="2" d="M4.051,4.051h98.4v98.294h-98.4V4.051z"/>
<path fill="none" stroke="#FFFFFF" stroke-width="2" d="M12.367,13.433h63.859v49.146H12.367V13.433"/>
<path fill="#4C4C4C" stroke="#000000" stroke-width="2" d="M12.367,62.579l1.066-1.065l61.727-47.015l1.066-1.066H12.367V62.579z"/>
<path stroke="#000000" stroke-width="2" d="M13.433,14.499h61.727v47.015H13.433V14.499z"/>
<path fill="none" stroke="#FFFFFF" stroke-width="2" d="M30.17,42.75l18.763-18.87"/>
<path fill="none" stroke="#FFFFFF" stroke-width="2" d="M31.13,52.132l26.226-26.119"/>
<path fill="none" stroke="#FFFFFF" stroke-width="2" d="M44.776,49.04l9.381-9.488"/>
<path fill="none" stroke="#FFFFFF" stroke-width="2" d="M24.946,35.394l14.605-14.605"/>
<path fill="#E5E5E5" d="M77.292,17.59h16.737v8.423H77.292V17.59z"/>
<path fill="#7F7F7F" d="M94.242,17.59l-0.213-0.213H77.292v0.427h16.737l-0.214-0.214H94.242v-0.213h-0.213L94.242,17.59z"/>
<path fill="#7F7F7F" d="M94.029,26.226l0.213-0.213V17.59h-0.427v8.423l0.214-0.32V26.226h0.213v-0.213L94.029,26.226z"/>
<path fill="#7F7F7F" d="M77.078,26.013l0.214,0.213h16.737v-0.533H77.292l0.213,0.32H77.078v0.213h0.214L77.078,26.013z"/>
<path fill="#7F7F7F" d="M77.292,17.377l-0.214,0.213v8.423h0.427V17.59l-0.213,0.214V17.377h-0.214v0.213L77.292,17.377z"/>
<path fill="#E5E5E5" d="M77.292,26.013h16.737v8.315H77.292V26.013z"/>
<path fill="#7F7F7F" d="M94.242,26.013l-0.213-0.32H77.292v0.533h16.737l-0.214-0.213H94.242v-0.32h-0.213L94.242,26.013z"/>
<path fill="#7F7F7F" d="M94.029,34.541l0.213-0.213v-8.315h-0.427v8.315l0.214-0.214V34.541h0.213v-0.213L94.029,34.541z"/>
<path fill="#7F7F7F" d="M77.078,34.328l0.214,0.213h16.737v-0.427H77.292l0.213,0.214H77.078v0.213h0.214L77.078,34.328z"/>
<path fill="#7F7F7F" d="M77.292,25.693l-0.214,0.32v8.315h0.427v-8.315l-0.213,0.213V25.693h-0.214v0.32L77.292,25.693z"/>
<path fill="#E5E5E5" d="M77.292,34.328h16.737v8.422H77.292V34.328z"/>
<path fill="#7F7F7F" d="M94.242,34.328l-0.213-0.214H77.292v0.427h16.737l-0.214-0.213H94.242v-0.214h-0.213L94.242,34.328z"/>
<path fill="#7F7F7F" d="M94.029,42.963l0.213-0.213v-8.422h-0.427v8.422l0.214-0.32V42.963h0.213V42.75L94.029,42.963z"/>
<path fill="#7F7F7F" d="M77.078,42.75l0.214,0.213h16.737V42.43H77.292l0.213,0.32H77.078v0.213h0.214L77.078,42.75z"/>
<path fill="#7F7F7F" d="M77.292,34.115l-0.214,0.214v8.422h0.427v-8.422l-0.213,0.213V34.115h-0.214v0.214L77.292,34.115z"/>
<path fill="#E5E5E5" d="M77.292,42.75h16.737v8.315H77.292V42.75z"/>
<path fill="#7F7F7F" d="M94.242,42.75l-0.213-0.32H77.292v0.533h16.737l-0.214-0.213H94.242v-0.32h-0.213L94.242,42.75z"/>
<path fill="#7F7F7F" d="M94.029,51.279l0.213-0.213V42.75h-0.427v8.315l0.214-0.213V51.279h0.213v-0.213L94.029,51.279z"/>
<path fill="#7F7F7F" d="M77.078,51.066l0.214,0.213h16.737v-0.426H77.292l0.213,0.213H77.078v0.213h0.214L77.078,51.066z"/>
<path fill="#7F7F7F" d="M77.292,42.43l-0.214,0.32v8.315h0.427V42.75l-0.213,0.213V42.43h-0.214v0.32L77.292,42.43z"/>
<path fill="#E5E5E5" d="M77.292,51.066h16.737v8.422H77.292V51.066z"/>
<path fill="#7F7F7F" d="M94.242,51.066l-0.213-0.213H77.292v0.426h16.737l-0.214-0.213H94.242v-0.213h-0.213L94.242,51.066z"/>
<path fill="#7F7F7F" d="M94.029,59.701l0.213-0.214v-8.422h-0.427v8.422l0.214-0.213V59.701h0.213v-0.214L94.029,59.701z"/>
<path fill="#7F7F7F" d="M77.078,59.488l0.214,0.214h16.737v-0.427H77.292l0.213,0.213H77.078v0.214h0.214L77.078,59.488z"/>
<path fill="#7F7F7F" d="M77.292,50.853l-0.214,0.213v8.422h0.427v-8.422l-0.213,0.213V50.853h-0.214v0.213L77.292,50.853z"/>
<circle fill="#7F7F7F" cx="89.765" cy="21.748" r="3.092"/>
<path d="M93.177,21.748l-0.107-0.96l-0.426-0.853l-0.641-0.746l-0.852-0.533l-0.96-0.213h-0.319v0.426l1.065,0.214l0.96,0.64
	l0.639,0.959l0.214,1.066H93.177z"/>
<path d="M89.872,25.159l0.959-0.213l0.853-0.319l0.747-0.747l0.532-0.746l0.214-1.066v-0.319H92.75l-0.214,1.173l-0.639,0.853
	l-0.96,0.64l-1.065,0.32V25.159z"/>
<path d="M86.46,21.748l0.213,1.066l0.32,0.853l0.746,0.746l0.746,0.427l1.066,0.319h0.32v-0.426l-1.174-0.32l-0.853-0.64
	l-0.64-0.853l-0.213-1.173H86.46z"/>
<path d="M89.872,18.444l-1.066,0.106l-0.854,0.427l-0.746,0.64l-0.426,0.853l-0.32,0.959v0.32h0.533l0.213-1.066l0.64-0.959
	l0.853-0.64l1.174-0.214V18.444z"/>
<circle fill="#7F7F7F" cx="89.765" cy="30.064" r="3.092"/>
<path d="M93.177,30.17l-0.107-1.065l-0.426-0.854l-0.641-0.746l-0.852-0.427l-0.96-0.319h-0.319v0.533l1.065,0.213l0.96,0.64
	l0.639,0.853l0.214,1.173H93.177z"/>
<path d="M89.872,33.475l0.959-0.106l0.853-0.426l0.747-0.64l0.532-0.854l0.214-0.959v-0.32H92.75l-0.214,1.066l-0.639,0.959
	l-0.96,0.64l-1.065,0.214V33.475z"/>
<path d="M86.46,30.17l0.213,0.96l0.32,0.853l0.746,0.746l0.746,0.533l1.066,0.213h0.32v-0.426l-1.174-0.214l-0.853-0.64l-0.64-0.959
	l-0.213-1.066H86.46z"/>
<path d="M89.872,26.759l-1.066,0.213l-0.854,0.32l-0.746,0.746l-0.426,0.746l-0.32,1.066v0.319h0.533l0.213-1.173l0.64-0.853
	l0.853-0.64l1.174-0.213V26.759z"/>
<circle fill="#7F7F7F" cx="89.765" cy="38.486" r="3.092"/>
<path d="M93.177,38.486l-0.107-0.959l-0.426-0.854l-0.641-0.746l-0.852-0.533l-0.96-0.213h-0.319v0.427l1.065,0.213l0.96,0.64
	l0.639,0.96l0.214,1.065H93.177z"/>
<path d="M89.872,41.898l0.959-0.107l0.853-0.426l0.747-0.64l0.532-0.854l0.214-1.065v-0.32H92.75l-0.214,1.173l-0.639,0.96
	l-0.96,0.532l-1.065,0.32V41.898z"/>
<path d="M86.46,38.486l0.213,1.066l0.32,0.853l0.746,0.746l0.746,0.427l1.066,0.32h0.32v-0.427l-1.174-0.32l-0.853-0.532l-0.64-0.96
	l-0.213-1.173H86.46z"/>
<path d="M89.872,35.181l-1.066,0.106l-0.854,0.427l-0.746,0.64l-0.426,0.853l-0.32,0.96v0.319h0.533l0.213-1.065l0.64-0.96
	l0.853-0.64l1.174-0.213V35.181z"/>
<circle fill="#7F7F7F" cx="89.765" cy="46.802" r="3.091"/>
<path d="M93.177,46.908l-0.107-1.066l-0.426-0.853l-0.641-0.747l-0.852-0.426l-0.96-0.32h-0.319v0.533l1.065,0.213l0.96,0.64
	l0.639,0.854l0.214,1.173H93.177z"/>
<path d="M89.872,50.32l0.959-0.213l0.853-0.427l0.747-0.64l0.532-0.853l0.214-0.96v-0.319H92.75l-0.214,1.065l-0.639,0.96
	l-0.96,0.64l-1.065,0.213V50.32z"/>
<path d="M86.46,46.908l0.213,0.959l0.32,0.96l0.746,0.64l0.746,0.532l1.066,0.214l0.32,0.106v-0.533l-1.174-0.213l-0.853-0.64
	l-0.64-0.96l-0.213-1.065H86.46z"/>
<path d="M89.872,43.496l-1.066,0.214l-0.854,0.426l-0.746,0.64l-0.426,0.746l-0.32,1.066v0.32h0.533l0.213-1.173l0.64-0.854
	l0.853-0.64l1.174-0.213V43.496z"/>
<circle fill="#7F7F7F" cx="89.765" cy="55.223" r="3.091"/>
<path d="M93.177,55.224l-0.107-0.96l-0.426-0.853l-0.641-0.746l-0.852-0.533l-0.96-0.214h-0.319v0.427l1.065,0.213l0.96,0.64
	l0.639,0.96l0.214,1.066H93.177z"/>
<path d="M89.872,58.635l0.959-0.106l0.853-0.427l0.747-0.64l0.532-0.853l0.214-1.066v-0.319H92.75l-0.214,1.172l-0.639,0.96
	l-0.96,0.533l-1.065,0.319V58.635z"/>
<path d="M86.46,55.224l0.213,1.065l0.32,0.854l0.746,0.746l0.746,0.533l1.066,0.213h0.32v-0.427l-1.174-0.319l-0.853-0.533
	l-0.64-0.96l-0.213-1.172H86.46z"/>
<path d="M89.872,51.918l-1.066,0.107l-0.854,0.426l-0.746,0.64l-0.426,0.854l-0.32,0.959v0.32h0.533l0.213-1.066l0.64-0.96
	l0.853-0.64l1.174-0.213V51.918z"/>
<path fill="#B2B2B2" stroke="#FFFFFF" stroke-width="2" d="M12.367,68.869h81.663v26.119H12.367V68.869z"/>
<path fill="#4C4C4C" stroke="#000000" stroke-width="2" d="M12.367,95.095l1.066-1.065l79.53-24.094l1.066-1.066H12.367V95.095z"/>
<path fill="#7F7F7F" stroke="#000000" stroke-width="2" d="M13.433,69.936h79.637V94.03H13.433V69.936z"/>
<path fill="#B2B2B2" stroke="#000000" stroke-width="2" d="M14.499,71.001H24.52v7.25H14.499V71.001z"/>
<path fill="#B2B2B2" stroke="#000000" stroke-width="2" d="M24.52,71.001h10.021v7.25H24.52V71.001z"/>
<path fill="#B2B2B2" stroke="#000000" stroke-width="2" d="M34.542,71.001h10.127v7.25H34.542V71.001z"/>
<path fill="#B2B2B2" stroke="#000000" stroke-width="2" d="M44.669,71.001H54.69v7.25H44.669V71.001z"/>
<path fill="#B2B2B2" stroke="#000000" stroke-width="2" d="M54.69,71.001h10.021v7.25H54.69V71.001z"/>
<path fill="#B2B2B2" stroke="#000000" stroke-width="2" d="M14.499,78.251H24.52v7.355H14.499V78.251z"/>
<path fill="#B2B2B2" stroke="#000000" stroke-width="2" d="M24.52,78.251h10.021v7.355H24.52V78.251z"/>
<path fill="#B2B2B2" stroke="#000000" stroke-width="2" d="M34.542,78.251h10.127v7.355H34.542V78.251z"/>
<path fill="#B2B2B2" stroke="#000000" stroke-width="2" d="M44.669,78.251H54.69v7.355H44.669V78.251z"/>
<path fill="#B2B2B2" stroke="#000000" stroke-width="2" d="M54.69,78.251h10.021v7.355H54.69V78.251z"/>
<path fill="#B2B2B2" stroke="#000000" stroke-width="2" d="M14.499,85.607H24.52v7.356H14.499V85.607z"/>
<path fill="#B2B2B2" stroke="#000000" stroke-width="2" d="M24.52,85.607h10.021v7.356H24.52V85.607z"/>
<path fill="#B2B2B2" stroke="#000000" stroke-width="2" d="M34.542,85.607h10.127v7.356H34.542V85.607z"/>
<path fill="#B2B2B2" stroke="#000000" stroke-width="2" d="M44.669,85.607H54.69v7.356H44.669V85.607z"/>
<path fill="#B2B2B2" stroke="#000000" stroke-width="2" d="M54.69,85.607h10.021v7.356H54.69V85.607z"/>
<path fill="#000066" stroke="#000000" stroke-width="2" d="M66.844,71.001h9.382v21.962h-9.382V71.001z"/>
<path fill="#E5E5E5" stroke="#000000" stroke-width="2" d="M78.357,71.001h4.478v5.438h-4.478V71.001z"/>
<path fill="#E5E5E5" stroke="#000000" stroke-width="2" d="M78.357,76.439h4.478v5.544h-4.478V76.439z"/>
<path fill="#E5E5E5" stroke="#000000" stroke-width="2" d="M78.357,81.983h4.478v5.437h-4.478V81.983z"/>
<path fill="#E5E5E5" stroke="#000000" stroke-width="2" d="M78.357,87.419h4.478v5.544h-4.478V87.419z"/>
<path fill="#E5E5E5" stroke="#000000" stroke-width="2" d="M82.835,71.001h4.584v5.438h-4.584V71.001z"/>
<path fill="#E5E5E5" stroke="#000000" stroke-width="2" d="M82.835,76.439h4.584v5.544h-4.584V76.439z"/>
<path fill="#E5E5E5" stroke="#000000" stroke-width="2" d="M82.835,81.983h4.584v5.437h-4.584V81.983z"/>
<path fill="#E5E5E5" stroke="#000000" stroke-width="2" d="M82.835,87.419h4.584v5.544h-4.584V87.419z"/>
<path fill="#E5E5E5" stroke="#000000" stroke-width="2" d="M87.419,71.001h4.479v5.438h-4.479V71.001z"/>
<path fill="#E5E5E5" stroke="#000000" stroke-width="2" d="M87.419,76.439h4.479v5.544h-4.479V76.439z"/>
<path fill="#E5E5E5" stroke="#000000" stroke-width="2" d="M87.419,81.983h4.479v5.437h-4.479V81.983z"/>
<path fill="#E5E5E5" stroke="#000000" stroke-width="2" d="M87.419,87.419h4.479v5.544h-4.479V87.419z"/>
<ellipse fill="#7F7F7F" stroke="#FFFFFF" stroke-width="2" cx="80.597" cy="73.667" rx="1.705" ry="2.026"/>
<ellipse fill="#7F7F7F" stroke="#FFFFFF" stroke-width="2" cx="80.597" cy="79.211" rx="1.705" ry="2.026"/>
<ellipse fill="#7F7F7F" stroke="#FFFFFF" stroke-width="2" cx="80.597" cy="84.648" rx="1.705" ry="2.025"/>
<ellipse fill="#7F7F7F" stroke="#FFFFFF" stroke-width="2" cx="80.597" cy="90.191" rx="1.705" ry="2.026"/>
<ellipse fill="#7F7F7F" stroke="#FFFFFF" stroke-width="2" cx="85.181" cy="73.667" rx="1.705" ry="2.026"/>
<ellipse fill="#7F7F7F" stroke="#FFFFFF" stroke-width="2" cx="85.181" cy="79.211" rx="1.705" ry="2.026"/>
<ellipse fill="#7F7F7F" stroke="#FFFFFF" stroke-width="2" cx="85.181" cy="84.648" rx="1.705" ry="2.025"/>
<ellipse fill="#7F7F7F" stroke="#FFFFFF" stroke-width="2" cx="85.181" cy="90.191" rx="1.705" ry="2.026"/>
<ellipse fill="#7F7F7F" stroke="#FFFFFF" stroke-width="2" cx="89.658" cy="73.667" rx="1.706" ry="2.026"/>
<ellipse fill="#7F7F7F" stroke="#FFFFFF" stroke-width="2" cx="89.658" cy="79.211" rx="1.706" ry="2.026"/>
<ellipse fill="#7F7F7F" stroke="#FFFFFF" stroke-width="2" cx="89.658" cy="84.648" rx="1.706" ry="2.025"/>
<ellipse fill="#7F7F7F" stroke="#FFFFFF" stroke-width="2" cx="89.658" cy="90.191" rx="1.706" ry="2.026"/>
</svg>
