<?xml version="1.0" encoding="utf-8"?>
<!-- Generator: Adobe Illustrator 14.0.0, SVG Export Plug-In . SVG Version: 6.00 Build 43363)  -->
<!DOCTYPE svg PUBLIC "-//W3C//DTD SVG 1.1//EN" "http://www.w3.org/Graphics/SVG/1.1/DTD/svg11.dtd">
<svg version="1.1" id="图层_1" xmlns="http://www.w3.org/2000/svg" xmlns:xlink="http://www.w3.org/1999/xlink" x="0px" y="0px"
	 width="144.749px" height="82.152px" viewBox="0 0 144.749 82.152" enable-background="new 0 0 144.749 82.152"
	 xml:space="preserve">
<path fill="#CCCCCC" d="M4.059,15.358h136.485V77.95H4.059V15.358z"/>
<path fill="#B2B2B2" d="M4.059,4.056h136.485v11.302H4.059V4.056z"/>
<path fill="#A6BAD9" d="M21.156,26.804h68.242v29.847H21.156V26.804z"/>
<path fill="#7F7F7F" d="M95.049,26.804h11.446v4.202H95.049V26.804z"/>
<path fill="#7F7F7F" d="M109.248,26.804h11.446v4.202h-11.446V26.804z"/>
<path fill="#7F7F7F" d="M123.448,26.804h11.446v4.202h-11.446V26.804z"/>
<path fill="#7F7F7F" d="M95.049,32.455h11.446v4.347H95.049V32.455z"/>
<path fill="#7F7F7F" d="M109.248,32.455h11.446v4.347h-11.446V32.455z"/>
<path fill="#7F7F7F" d="M123.448,32.455h11.446v4.347h-11.446V32.455z"/>
<path fill="#7F7F7F" d="M95.049,38.106h11.446v4.347H95.049V38.106z"/>
<path fill="#7F7F7F" d="M109.248,38.106h11.446v4.347h-11.446V38.106z"/>
<path fill="#7F7F7F" d="M123.448,38.106h11.446v4.347h-11.446V38.106z"/>
<path fill="#7F7F7F" d="M95.049,43.901h11.446v4.202H95.049V43.901z"/>
<path fill="#7F7F7F" d="M109.248,43.901h11.446v4.202h-11.446V43.901z"/>
<path fill="#7F7F7F" d="M123.448,43.901h11.446v4.202h-11.446V43.901z"/>
<path fill="#7F7F7F" d="M95.049,49.552h11.446v4.202H95.049V49.552z"/>
<path fill="#7F7F7F" d="M109.248,49.552h25.646v4.202h-25.646V49.552z"/>
<path fill="#7F7F7F" d="M49.554,62.302h11.302v4.347H49.554V62.302z"/>
<path fill="#7F7F7F" d="M21.156,62.302h11.301v4.347H21.156V62.302z"/>
<path fill="#7F7F7F" d="M35.356,62.302h11.301v4.347H35.356V62.302z"/>
<path fill="#7F7F7F" d="M63.753,62.302h11.446v4.347H63.753V62.302z"/>
<path fill="#7F7F7F" d="M77.952,62.302h11.446v4.347H77.952V62.302z"/>
<path fill="#7F7F7F" d="M49.554,67.953h11.302V72.3H49.554V67.953z"/>
<path fill="#7F7F7F" d="M21.156,67.953h11.301V72.3H21.156V67.953z"/>
<path fill="#7F7F7F" d="M35.356,67.953h11.301V72.3H35.356V67.953z"/>
<path fill="#7F7F7F" d="M63.753,67.953h11.446V72.3H63.753V67.953z"/>
<path fill="#7F7F7F" d="M77.952,67.953h11.446V72.3H77.952V67.953z"/>
<path fill="#999999" d="M95.049,65.2h11.446v4.347H95.049V65.2z"/>
<path fill="#999999" d="M109.248,67.953h11.302V72.3h-11.302V67.953z"/>
<path fill="#999999" d="M123.448,65.2h11.446v4.347h-11.446V65.2z"/>
<path fill="#999999" d="M109.248,62.302h11.446v4.347h-11.446V62.302z"/>
<path fill="none" stroke="#000000" stroke-width="2" d="M4.059,4.056h136.485V77.95H4.059V4.056"/>
</svg>
