<?xml version="1.0" encoding="utf-8"?>
<!-- Generator: Adobe Illustrator 14.0.0, SVG Export Plug-In . SVG Version: 6.00 Build 43363)  -->
<!DOCTYPE svg PUBLIC "-//W3C//DTD SVG 1.1//EN" "http://www.w3.org/Graphics/SVG/1.1/DTD/svg11.dtd">
<svg version="1.1" id="图层_1" xmlns="http://www.w3.org/2000/svg" xmlns:xlink="http://www.w3.org/1999/xlink" x="0px" y="0px"
	 width="144.749px" height="102.01px" viewBox="0 0 144.749 102.01" enable-background="new 0 0 144.749 102.01"
	 xml:space="preserve">
<path fill="#7F7F7F" d="M4.057,18.259h136.49V97.95H4.057V18.259z"/>
<path fill="#CCCCCC" d="M9.708,18.259h125.188V97.95H9.708V18.259z"/>
<path fill="#999999" d="M4.057,4.059h136.49v14.2H4.057V4.059z"/>
<path fill="#A6BAD9" d="M18.257,23.91H95.05v51.292H18.257V23.91z"/>
<path fill="#B2B2B2" d="M9.708,4.059h125.188v14.2H9.708V4.059z"/>
<path fill="#7F7F7F" d="M122.146,23.91h8.549v4.347h-8.549V23.91z"/>
<path fill="#7F7F7F" d="M110.698,23.91h8.549v4.347h-8.549V23.91z"/>
<path fill="#7F7F7F" d="M99.397,23.91h8.549v4.347h-8.549V23.91z"/>
<path fill="#7F7F7F" d="M122.146,31.009h8.549v4.347h-8.549V31.009z"/>
<path fill="#7F7F7F" d="M110.698,31.009h8.549v4.347h-8.549V31.009z"/>
<path fill="#7F7F7F" d="M99.397,31.009h8.549v4.347h-8.549V31.009z"/>
<path fill="#7F7F7F" d="M122,38.109h8.549v4.347H122V38.109z"/>
<path fill="#7F7F7F" d="M110.698,38.109h8.549v4.347h-8.549V38.109z"/>
<path fill="#7F7F7F" d="M99.252,38.109h8.549v4.347h-8.549V38.109z"/>
<path fill="#7F7F7F" d="M122,45.209h8.549v4.347H122V45.209z"/>
<path fill="#7F7F7F" d="M110.698,45.209h8.549v4.347h-8.549V45.209z"/>
<path fill="#7F7F7F" d="M99.252,45.209h8.549v4.347h-8.549V45.209z"/>
<path fill="#7F7F7F" d="M110.698,52.454h19.851v4.201h-19.851V52.454z"/>
<path fill="#7F7F7F" d="M99.252,52.454h8.549v4.201h-8.549V52.454z"/>
<path fill="#7F7F7F" d="M86.501,79.403h8.549v4.348h-8.549V79.403z"/>
<path fill="#7F7F7F" d="M75.055,79.403h8.693v4.348h-8.693V79.403z"/>
<path fill="#7F7F7F" d="M63.753,79.403h8.549v4.348h-8.549V79.403z"/>
<path fill="#7F7F7F" d="M52.307,79.403h8.549v4.348h-8.549V79.403z"/>
<path fill="#7F7F7F" d="M41.005,79.403h8.549v4.348h-8.549V79.403z"/>
<path fill="#7F7F7F" d="M29.558,79.403h8.549v4.348h-8.549V79.403z"/>
<path fill="#7F7F7F" d="M18.257,79.403h8.548v4.348h-8.548V79.403z"/>
<path fill="#7F7F7F" d="M86.501,86.504h8.549v4.347h-8.549V86.504z"/>
<path fill="#7F7F7F" d="M75.055,86.504h8.693v4.347h-8.693V86.504z"/>
<path fill="#7F7F7F" d="M63.753,86.504h8.549v4.347h-8.549V86.504z"/>
<path fill="#7F7F7F" d="M52.307,86.504h8.549v4.347h-8.549V86.504z"/>
<path fill="#7F7F7F" d="M41.005,86.504h8.549v4.347h-8.549V86.504z"/>
<path fill="#7F7F7F" d="M29.558,86.504h8.549v4.347h-8.549V86.504z"/>
<path fill="#7F7F7F" d="M18.257,86.504h8.548v4.347h-8.548V86.504z"/>
<path fill="#999999" d="M110.698,79.403h8.549v4.348h-8.549V79.403z"/>
<path fill="#999999" d="M122,82.302h8.549v4.202H122V82.302z"/>
<path fill="#999999" d="M99.252,82.302h8.549v4.202h-8.549V82.302z"/>
<path fill="#999999" d="M110.698,85.2h8.549v4.201h-8.549V85.2z"/>
<path fill="none" stroke="#000000" stroke-width="2" d="M4.057,4.059h136.49V97.95H4.057V4.059"/>
</svg>
