<?xml version="1.0" encoding="utf-8"?>
<!-- Generator: Adobe Illustrator 14.0.0, SVG Export Plug-In . SVG Version: 6.00 Build 43363)  -->
<!DOCTYPE svg PUBLIC "-//W3C//DTD SVG 1.1//EN" "http://www.w3.org/Graphics/SVG/1.1/DTD/svg11.dtd">
<svg version="1.1" id="图层_1" xmlns="http://www.w3.org/2000/svg" xmlns:xlink="http://www.w3.org/1999/xlink" x="0px" y="0px"
	 width="124.438px" height="106.502px" viewBox="0 0 124.438 106.502" enable-background="new 0 0 124.438 106.502"
	 xml:space="preserve">
<path fill="#990000" stroke="#000000" stroke-width="2" d="M111.981,53.189v40.482H12.332V53.189l0.249-4.982l0.872-4.982
	l1.245-4.733l1.62-4.733l2.117-4.235l2.491-4.11l2.865-3.861l3.363-3.487l3.487-3.239l3.861-2.864l4.11-2.491l4.235-2.118
	l4.733-1.744l4.608-1.245l4.982-0.747l2.491-0.125h2.492h2.615l4.982,0.498l4.858,0.997l4.608,1.494l4.484,1.869l4.359,2.242
	l3.861,2.74l3.737,2.989l3.363,3.487l3.114,3.612l2.615,3.986l2.367,4.235l1.868,4.484l1.37,4.608l0.996,4.858l0.623,5.106V53.189z"
	/>
<path fill="#FF0000" stroke="#000000" stroke-width="2" d="M12.332,53.189l0.124-3.238l0.374-3.363l0.498-3.238l0.748-3.114
	l0.996-3.114l1.246-3.114l1.37-2.989l1.494-2.74l1.744-2.865l1.868-2.491l1.993-2.615l2.242-2.367l2.491-2.242l2.491-2.117
	l2.616-1.993l2.864-1.744v83.83H12.332V53.189z"/>
<path fill="#FF0000" stroke="#000000" stroke-width="2" d="M111.981,53.189V49.95l-0.498-3.363l-0.498-3.238l-0.748-3.114
	l-0.996-3.114l-1.121-3.114l-1.37-2.989l-1.495-2.74l-1.743-2.865l-1.869-2.491l-2.117-2.615l-2.242-2.367l-2.366-2.242
	l-2.491-2.117l-2.741-1.993L86.82,9.841v83.83h25.161V53.189z"/>
<circle fill="#FFFFFF" cx="62.157" cy="53.189" r="42.974"/>
<circle fill="#FF0000" stroke="#FFFFFF" stroke-width="2" cx="62.281" cy="52.94" r="40.607"/>
<circle fill="#E5E5E5" stroke="#FFFFFF" stroke-width="2" cx="62.406" cy="53.065" r="13.577"/>
<circle fill="none" stroke="#FFFFFF" stroke-width="2" cx="62.157" cy="53.064" r="18.186"/>
<path fill="#7F7F7F" stroke="#000000" stroke-width="2" d="M116.466,103.014H7.847l-2.989-1.37l-1.37-3.488l1.37-3.113l2.989-1.371
	h108.618l3.114,1.371l1.245,3.113l-1.245,3.488L116.466,103.014z"/>
<path fill="#4C4C4C" d="M116.466,103.014H7.847l-2.989-1.37l-1.37-3.488h117.337l-1.245,3.488L116.466,103.014z"/>
<path fill="none" stroke="#000000" stroke-width="2" d="M116.466,103.014H7.847l-2.989-1.37l-1.37-3.488l1.37-3.113l2.989-1.371
	h108.618l3.114,1.371l1.245,3.113l-1.245,3.488L116.466,103.014"/>
</svg>
