<?xml version="1.0" encoding="utf-8"?>
<!-- Generator: Adobe Illustrator 14.0.0, SVG Export Plug-In . SVG Version: 6.00 Build 43363)  -->
<!DOCTYPE svg PUBLIC "-//W3C//DTD SVG 1.1//EN" "http://www.w3.org/Graphics/SVG/1.1/DTD/svg11.dtd">
<svg version="1.1" id="图层_1" xmlns="http://www.w3.org/2000/svg" xmlns:xlink="http://www.w3.org/1999/xlink" x="0px" y="0px"
	 width="144.749px" height="87.805px" viewBox="0 0 144.749 87.805" enable-background="new 0 0 144.749 87.805"
	 xml:space="preserve">
<path fill="#CCCCCC" stroke="#000000" stroke-width="2" d="M4.058,83.747V4.057h136.488v79.689H4.058z"/>
<path fill="#666666" d="M134.895,6.81l-0.725,1.158l2.174,3.768l-2.174,3.912h-4.201l-0.725,1.159h5.65l2.898-5.071L134.895,6.81z"
	/>
<path fill="#666666" d="M134.895,70.851l-0.725,1.159l2.174,3.768l-2.174,3.912h-4.201l-0.725,1.159h5.65l2.898-5.071
	L134.895,70.851z"/>
<path fill="#666666" d="M15.505,6.81l-0.725,1.158l2.028,3.768l-2.028,3.912h-4.347l-0.725,1.159h5.796l2.753-5.071L15.505,6.81z"/>
<path fill="#666666" d="M15.505,70.851l-0.725,1.159l2.028,3.768l-2.028,3.912h-4.347l-0.725,1.159h5.796l2.753-5.071L15.505,70.851
	z"/>
<path fill="#FFFFFF" d="M9.709,80.849l0.725-1.159L8.26,75.778l2.174-3.768h4.347l0.725-1.159H9.709l-2.753,4.927L9.709,80.849z"/>
<path fill="#FFFFFF" d="M129.244,80.849l0.725-1.159l-2.174-3.912l2.174-3.768h4.201l0.725-1.159h-5.65l-2.898,4.927L129.244,80.849
	z"/>
<path fill="#FFFFFF" d="M129.244,16.807l0.725-1.159l-2.174-3.912l2.174-3.768h4.201l0.725-1.158h-5.65l-2.898,4.926L129.244,16.807
	z"/>
<path fill="#FFFFFF" d="M9.709,16.807l0.725-1.159L8.26,11.736l2.174-3.768h4.347l0.725-1.158H9.709l-2.753,4.926L9.709,16.807z"/>
<path fill="#4C4C4C" d="M18.258,69.548V18.257h108.088v51.291H18.258z"/>
<path d="M18.258,69.403l4.201-4.202V22.458h99.686l4.201-4.201H18.258V69.403z"/>
<path fill="#7F7F7F" d="M126.491,18.111l-4.347,4.347v42.743H22.459l-4.201,4.202h108.233V18.111z"/>
<path fill="none" stroke="#FFFFFF" stroke-width="2" d="M18.258,69.403h108.088V18.257"/>
</svg>
