<?xml version="1.0" encoding="utf-8"?>
<!-- Generator: Adobe Illustrator 14.0.0, SVG Export Plug-In . SVG Version: 6.00 Build 43363)  -->
<!DOCTYPE svg PUBLIC "-//W3C//DTD SVG 1.1//EN" "http://www.w3.org/Graphics/SVG/1.1/DTD/svg11.dtd">
<svg version="1.1" id="图层_1" xmlns="http://www.w3.org/2000/svg" xmlns:xlink="http://www.w3.org/1999/xlink" x="0px" y="0px"
	 width="72.921px" height="106.502px" viewBox="0 0 72.921 106.502" enable-background="new 0 0 72.921 106.502"
	 xml:space="preserve">
<path fill="#B2E5E5" stroke="#000000" stroke-width="2" d="M2.985,2.985h66.951V103.41H2.985V2.985z"/>
<path fill="none" stroke="#000000" stroke-width="2" d="M7.144,7.143h58.635v66.95H7.144V7.143"/>
<path fill="none" stroke="#000000" stroke-width="2" d="M28.039,11.301h16.738v6.289H28.039V11.301"/>
<path fill="none" stroke="#000000" stroke-width="2" d="M11.301,23.88h8.422v8.423h-8.422V23.88"/>
<path fill="none" stroke="#000000" stroke-width="2" d="M23.881,23.88h8.422v8.423h-8.422V23.88"/>
<path fill="none" stroke="#000000" stroke-width="2" d="M36.461,23.88h8.316v8.423h-8.316V23.88"/>
<path fill="none" stroke="#000000" stroke-width="2" d="M11.301,36.46h8.422v8.315h-8.422V36.46"/>
<path fill="none" stroke="#000000" stroke-width="2" d="M23.881,36.46h8.422v8.315h-8.422V36.46"/>
<path fill="none" stroke="#000000" stroke-width="2" d="M49.041,21.855h12.58v12.474h-12.58V21.855"/>
<path fill="none" stroke="#000000" stroke-width="2" d="M49.041,36.46h12.58v12.58h-12.58V36.46"/>
<path fill="none" stroke="#000000" stroke-width="2" d="M7.144,53.198h58.635"/>
<path fill="none" stroke="#000000" stroke-width="2" d="M50.853,68.123l-1.813-4.478l1.813-4.478l4.478-1.813l4.478,1.813
	l1.813,4.478l-1.813,4.478l-4.478,1.813L50.853,68.123"/>
</svg>
