<?xml version="1.0" standalone="no"?><!DOCTYPE svg PUBLIC "-//W3C//DTD SVG 1.1//EN" "http://www.w3.org/Graphics/SVG/1.1/DTD/svg11.dtd"><svg t="1715325243817" class="icon" viewBox="0 0 1024 1024" version="1.1" xmlns="http://www.w3.org/2000/svg" p-id="14087" xmlns:xlink="http://www.w3.org/1999/xlink" width="200" height="200"><path d="M497.4 185.3h32v656.8h-32z" fill="#f4ea2a" p-id="14088"></path><path d="M497.4 185.3h32v152.9h-32zM388.509 736.471l22.627-22.627 123.46 123.46-22.628 22.627z" fill="#f4ea2a" p-id="14089"></path><path d="M489.35 837.402l123.46-123.46 22.628 22.627-123.46 123.46z" fill="#f4ea2a" p-id="14090"></path><path d="M388.534 838.695l22.627-22.627 123.46 123.46-22.628 22.627z" p-id="14091" fill="#f4ea2a"></path><path d="M489.376 939.626l123.46-123.46 22.627 22.627-123.46 123.46z" p-id="14092" fill="#f4ea2a"></path><path d="M489.362 186.585l22.627-22.627 123.46 123.46-22.627 22.627z" fill="#f4ea2a" p-id="14093"></path><path d="M388.52 287.32l123.46-123.46 22.626 22.627-123.46 123.46z" fill="#f4ea2a" p-id="14094"></path><path d="M489.378 84.503l22.627-22.628 123.46 123.46-22.627 22.627z" p-id="14095" fill="#f4ea2a"></path><path d="M388.536 185.237l123.46-123.46 22.627 22.628-123.46 123.46z" p-id="14096" fill="#f4ea2a"></path><path d="M497.4 665.9h32v176.2h-32z" fill="#f4ea2a" p-id="14097"></path><path d="M431.6 332.7h160.7v375.1H431.6z" fill="#f4ea2a" p-id="14098"></path></svg>