<?xml version="1.0" encoding="utf-8"?>
<!-- Generator: Adobe Illustrator 14.0.0, SVG Export Plug-In . SVG Version: 6.00 Build 43363)  -->
<!DOCTYPE svg PUBLIC "-//W3C//DTD SVG 1.1//EN" "http://www.w3.org/Graphics/SVG/1.1/DTD/svg11.dtd">
<svg version="1.1" id="图层_1" xmlns="http://www.w3.org/2000/svg" xmlns:xlink="http://www.w3.org/1999/xlink" x="0px" y="0px"
	 width="106.502px" height="106.502px" viewBox="0 0 106.502 106.502" enable-background="new 0 0 106.502 106.502"
	 xml:space="preserve">
<path fill="#999999" stroke="#000000" stroke-width="2" d="M72.388,100.106l-12.475,3.305H46.481l-12.473-3.305l-11.407-6.609
	L12.9,83.794L6.29,72.388L2.985,59.914V46.482L6.29,34.008l6.61-11.407l9.701-9.701L34.008,6.29l12.473-3.306h13.432L72.388,6.29
	L83.794,12.9l9.701,9.701l6.61,11.407l3.305,12.474v13.433l-3.305,12.474l-6.61,11.406l-9.701,9.702L72.388,100.106z"/>
<path fill="#E5E5E5" stroke="#B2B2B2" stroke-width="2" d="M38.379,95.522l-12.047-5.117l-8.849-8.422l-6.077-10.448L8.209,59.488
	v-12.26l3.198-11.62l6.077-10.448l8.849-8.849l10.341-5.863L48.4,7.143h12.26l11.833,3.305l8.85,6.077l9.808,10.554L67.59,16.738
	l-45.416,60.66L38.379,95.522z"/>
<path fill="#33CC33" stroke="#000000" stroke-width="2" d="M68.23,89.871l-10.021,2.665H47.974l-9.915-2.665l-8.955-5.33
	l-7.25-7.144l-5.331-9.062l-2.665-9.914V48.188l2.665-10.021l5.331-9.063l7.143-7.143l9.062-5.224l9.915-2.665h10.234l10.021,2.665
	l9.062,5.224l7.144,7.143l5.223,9.063l2.666,10.021v10.234l-2.666,9.914l-5.223,9.062l-7.144,7.144L68.23,89.871z"/>
<path fill="#33CC33" stroke="#31B331" stroke-width="2" d="M59.167,83.262H47.228l-11.087-4.478l-8.529-8.529l-4.478-10.874v-11.94
	l4.478-11.087l8.529-8.529l10.874-4.478h11.94l11.088,4.478l8.528,8.529l4.478,10.874v12.153l-4.478,10.874l-8.528,8.529
	L59.167,83.262z"/>
<path fill="#33CC33" stroke="#31B331" stroke-width="2" d="M58.208,78.571H48.188l-9.382-3.838l-7.143-7.143l-3.838-9.168V48.401
	l3.838-9.488l7.143-7.143l9.168-3.731h10.021l9.488,3.731l7.143,7.143l3.73,9.275v10.234l-3.73,9.168l-7.143,7.143L58.208,78.571z"
	/>
<path fill="none" stroke="#FFFFFF" stroke-width="2" d="M84.435,29.104l5.223,9.063l2.666,10.021v10.234l-2.666,9.914l-5.223,9.062
	l-7.144,7.144l-9.062,5.33l-10.021,2.665H47.974l-9.915-2.665l-8.955-5.33l-7.25-7.144"/>
</svg>
