<?xml version="1.0" encoding="utf-8"?>
<!-- Generator: Adobe Illustrator 14.0.0, SVG Export Plug-In . SVG Version: 6.00 Build 43363)  -->
<!DOCTYPE svg PUBLIC "-//W3C//DTD SVG 1.1//EN" "http://www.w3.org/Graphics/SVG/1.1/DTD/svg11.dtd">
<svg version="1.1" id="图层_1" xmlns="http://www.w3.org/2000/svg" xmlns:xlink="http://www.w3.org/1999/xlink" x="0px" y="0px"
	 width="106.502px" height="106.502px" viewBox="0 0 106.502 106.502" enable-background="new 0 0 106.502 106.502"
	 xml:space="preserve">
<path fill="#999999" stroke="#000000" stroke-width="2" d="M72.281,99.999l-12.367,3.411H46.481l-12.367-3.411l-11.514-6.503
	L12.9,83.794L6.396,72.281L2.985,59.914V46.482l3.412-12.367L12.9,22.601l9.701-9.701l11.514-6.503l12.367-3.412h13.432
	l12.367,3.412L83.794,12.9l9.701,9.701L100,34.115l3.411,12.367v13.433L100,72.281l-6.504,11.514l-9.701,9.702L72.281,99.999z"/>
<path fill="#E5E5E5" stroke="#B2B2B2" stroke-width="2" d="M38.379,95.522l-12.047-5.117l-8.849-8.422l-6.077-10.448L8.209,59.488
	v-12.26l3.198-11.62l6.077-10.448l8.849-8.849l10.341-5.863L48.4,7.143h12.26l11.833,3.305l8.85,6.077l9.808,10.554L67.59,16.738
	l-45.416,60.66L38.379,95.522z"/>
<path fill="#FF0000" stroke="#000000" stroke-width="2" d="M68.23,89.871l-10.021,2.665H47.974l-9.915-2.665l-8.849-5.33
	l-7.356-7.144l-5.331-9.062l-2.665-9.914V48.188l2.665-10.021l5.331-8.955l7.143-7.25l9.062-5.224l9.915-2.665h10.234l10.021,2.665
	l8.955,5.224l7.25,7.25l5.223,8.955l2.666,10.021v10.234l-2.666,9.914l-5.223,9.062l-7.25,7.144L68.23,89.871z"/>
<path fill="none" stroke="#DC0000" stroke-width="2" d="M59.167,83.262H47.228l-11.087-4.478l-8.529-8.529l-4.478-10.98V47.441
	l4.478-11.087l8.529-8.529l10.98-4.478h11.833l11.088,4.478l8.528,8.529l4.478,10.874v12.047l-4.478,10.98l-8.528,8.529
	L59.167,83.262"/>
<path fill="none" stroke="#DC0000" stroke-width="2" d="M58.208,78.571H48.188l-9.382-3.838l-7.143-7.143l-3.838-9.168V48.401
	l3.838-9.382l7.143-7.249l9.168-3.731h10.021l9.381,3.731l7.25,7.249l3.73,9.169v10.234l-3.73,9.168l-7.25,7.143L58.208,78.571"/>
<path fill="none" stroke="#FFFFFF" stroke-width="2" d="M84.435,29.211l5.223,8.955l2.666,10.021v10.234l-2.666,9.914l-5.223,9.062
	l-7.25,7.144l-8.955,5.33l-10.021,2.665H47.974l-9.915-2.665l-8.849-5.33l-7.356-7.144"/>
</svg>
