<?xml version="1.0" encoding="utf-8"?>
<!-- Generator: Adobe Illustrator 14.0.0, SVG Export Plug-In . SVG Version: 6.00 Build 43363)  -->
<!DOCTYPE svg PUBLIC "-//W3C//DTD SVG 1.1//EN" "http://www.w3.org/Graphics/SVG/1.1/DTD/svg11.dtd">
<svg version="1.1" id="图层_1" xmlns="http://www.w3.org/2000/svg" xmlns:xlink="http://www.w3.org/1999/xlink" x="0px" y="0px"
	 width="106.502px" height="106.502px" viewBox="0 0 106.502 106.502" enable-background="new 0 0 106.502 106.502"
	 xml:space="preserve">
<path fill="#999999" stroke="#000000" stroke-width="2" d="M72.388,100.106l-12.475,3.412H46.481l-12.473-3.412l-11.514-6.609
	L12.9,83.902L6.29,72.388L2.878,59.914V46.482L6.29,34.008l6.61-11.514l9.595-9.595L34.008,6.29l12.473-3.412h13.432L72.388,6.29
	L83.902,12.9l9.594,9.595l6.61,11.514l3.411,12.474v13.433l-3.411,12.474l-6.61,11.514l-9.594,9.595L72.388,100.106z"/>
<path fill="#E5E5E5" stroke="#B2B2B2" stroke-width="2" d="M38.379,95.522l-12.047-5.117l-8.849-8.422l-6.077-10.342L8.209,59.488
	v-12.26l3.198-11.727l6.077-10.342l8.849-8.849l10.341-5.863L48.4,7.036h12.26l11.833,3.411l8.85,6.077l9.914,10.554L67.59,16.738
	l-45.416,60.66L38.379,95.522z"/>
<path fill="#333333" stroke="#333333" stroke-width="2" d="M72.494,100.106l-12.58,3.412H46.695l-30.17-32.517l49.573-57.889
	l34.009,20.789l3.411,12.58v13.22l-3.411,12.793l-6.61,11.514l-9.488,9.488L72.494,100.106z"/>
<path fill="#AA0000" stroke="#000000" stroke-width="2" d="M68.017,89.871l-9.596,2.665H47.761l-9.595-2.665l-9.062-5.117
	l-7.463-7.463l-5.117-9.062l-2.665-9.595V47.974l2.665-9.595l5.117-9.062l7.463-7.569l9.062-5.011l9.595-2.665h10.661l9.596,2.665
	l9.061,5.011l7.57,7.569l5.01,9.062l2.666,9.595v10.661l-2.666,9.595l-5.01,9.062l-7.57,7.463L68.017,89.871z"/>
<path fill="#FF0000" stroke="#000000" stroke-width="2" d="M59.701,81.343L49.68,84.008H39.552l-10.021-2.665l-8.849-5.225
	l-7.356-7.143l-5.331-9.062L5.437,49.893V39.765l2.559-10.021l5.331-9.063l7.143-7.143l9.062-5.33l10.021-2.666H49.68l10.021,2.666
	l9.063,5.33l7.143,7.143l5.33,9.063l2.666,10.021v10.128l-2.666,10.021l-5.33,9.062l-7.143,7.143L59.701,81.343z"/>
<path fill="none" stroke="#DC0000" stroke-width="2" d="M50.639,74.733H38.806l-11.194-4.478l-8.422-8.528l-4.584-10.874V39.019
	l4.584-11.194l8.422-8.528l10.98-4.478h11.834l11.194,4.478l8.422,8.528l4.584,10.981v12.047l-4.584,10.874l-8.422,8.528
	L50.639,74.733"/>
<path fill="none" stroke="#DC0000" stroke-width="2" d="M49.68,70.042h-9.915l-9.488-3.731l-7.143-7.143l-3.838-9.275V39.871
	l3.838-9.381l7.143-7.144l9.275-3.838h9.915l9.488,3.838l7.143,7.144l3.838,9.274v10.128l-3.838,9.275l-7.143,7.143L49.68,70.042"/>
</svg>
