<?xml version="1.0" encoding="utf-8"?>
<!-- Generator: Adobe Illustrator 14.0.0, SVG Export Plug-In . SVG Version: 6.00 Build 43363)  -->
<!DOCTYPE svg PUBLIC "-//W3C//DTD SVG 1.1//EN" "http://www.w3.org/Graphics/SVG/1.1/DTD/svg11.dtd">
<svg version="1.1" id="图层_1" xmlns="http://www.w3.org/2000/svg" xmlns:xlink="http://www.w3.org/1999/xlink" x="0px" y="0px"
	 width="106.502px" height="106.502px" viewBox="0 0 106.502 106.502" enable-background="new 0 0 106.502 106.502"
	 xml:space="preserve">
<path fill="#999999" stroke="#000000" stroke-width="2" d="M72.281,100.106l-12.367,3.412H46.481l-12.367-3.412l-11.62-6.609
	L12.9,83.902L6.29,72.281L2.878,59.914V46.482L6.29,34.115l6.61-11.62l9.595-9.595l11.62-6.609l12.367-3.412h13.432L72.281,6.29
	L83.902,12.9l9.594,9.595l6.61,11.62l3.411,12.367v13.433l-3.411,12.366l-6.61,11.621l-9.594,9.595L72.281,100.106z"/>
<path fill="#E5E5E5" stroke="#B2B2B2" stroke-width="2" d="M38.379,95.522l-12.047-5.117l-8.955-8.422l-5.97-10.448L8.209,59.488
	v-12.26l3.198-11.62l5.97-10.448l8.955-8.849l10.341-5.863L48.4,7.036h12.26l11.833,3.411l8.85,6.077l9.808,10.554L67.59,16.631
	L22.175,77.398L38.379,95.522z"/>
<path fill="#4C4C4C" stroke="#000000" stroke-width="2" d="M68.23,89.871l-10.021,2.665H47.974l-9.915-2.665l-8.955-5.224
	l-7.356-7.25l-5.224-9.062l-2.665-9.914V48.188l2.665-10.021l5.224-9.063l7.25-7.143l9.062-5.33l9.915-2.559h10.234l10.021,2.559
	l9.062,5.33l7.144,7.143l5.33,9.063l2.559,10.021v10.234l-2.559,9.914l-5.33,9.062l-7.144,7.25L68.23,89.871z"/>
<path fill="#4C4C4C" stroke="#999999" stroke-width="2" d="M59.167,83.262H47.228l-11.087-4.478l-8.529-8.529l-4.478-10.98V47.441
	l4.478-11.193l8.529-8.423l10.98-4.584h11.833l11.194,4.584l8.422,8.423l4.584,10.98v12.047l-4.584,10.98l-8.422,8.529
	L59.167,83.262z"/>
<path fill="#4C4C4C" stroke="#999999" stroke-width="2" d="M58.208,78.571H48.188l-9.382-3.731l-7.25-7.249l-3.731-9.168V48.401
	l3.731-9.488l7.25-7.143l9.168-3.731h10.021l9.488,3.731l7.143,7.143l3.73,9.275v10.234l-3.73,9.168l-7.143,7.249L58.208,78.571z"/>
<path fill="none" stroke="#FFFFFF" stroke-width="2" d="M84.435,29.104l5.33,9.063l2.559,10.021v10.234l-2.559,9.914l-5.33,9.062
	l-7.144,7.25l-9.062,5.224l-10.021,2.665H47.974l-9.915-2.665l-8.955-5.224l-7.356-7.25"/>
</svg>
