<?xml version="1.0" encoding="utf-8"?>
<!-- Generator: Adobe Illustrator 14.0.0, SVG Export Plug-In . SVG Version: 6.00 Build 43363)  -->
<!DOCTYPE svg PUBLIC "-//W3C//DTD SVG 1.1//EN" "http://www.w3.org/Graphics/SVG/1.1/DTD/svg11.dtd">
<svg version="1.1" id="图层_1" xmlns="http://www.w3.org/2000/svg" xmlns:xlink="http://www.w3.org/1999/xlink" x="0px" y="0px"
	 width="106.502px" height="106.502px" viewBox="0 0 106.502 106.502" enable-background="new 0 0 106.502 106.502"
	 xml:space="preserve">
<path fill="#999999" stroke="#000000" stroke-width="2" d="M72.281,100.106l-12.367,3.305H46.481l-12.367-3.305l-11.514-6.609
	L12.9,83.794L6.29,72.281L2.985,59.914V46.482L6.29,34.115l6.61-11.514l9.701-9.701L34.115,6.29l12.367-3.306h13.432L72.281,6.29
	L83.794,12.9l9.701,9.701l6.61,11.514l3.305,12.367v13.433l-3.305,12.366l-6.61,11.514l-9.701,9.702L72.281,100.106z"/>
<path fill="#E5E5E5" stroke="#B2B2B2" stroke-width="2" d="M38.379,95.522l-12.047-5.117l-8.849-8.422l-6.077-10.448L8.209,59.488
	v-12.26l3.198-11.62l6.077-10.448l8.849-8.849l10.341-5.863L48.4,7.143h12.26l11.833,3.305l8.955,6.077l9.702,10.554L67.59,16.738
	l-45.416,60.66L38.379,95.522z"/>
<path fill="#333333" stroke="#333333" stroke-width="2" d="M72.494,100.106l-12.58,3.305H46.695l-30.17-32.409l49.573-57.889
	l34.009,20.789l3.305,12.58v13.22l-3.305,12.793l-6.61,11.514l-9.488,9.488L72.494,100.106z"/>
<path fill="#003399" stroke="#000000" stroke-width="2" d="M68.017,89.871l-9.702,2.665H47.868l-9.702-2.665l-8.955-5.117
	l-7.569-7.569l-5.117-8.955l-2.665-9.701V48.08l2.665-9.701l5.117-9.062l7.569-7.463l8.955-5.117l9.702-2.665h10.447l9.702,2.665
	l9.061,5.117l7.463,7.463l5.117,9.062l2.666,9.701v10.448l-2.666,9.701l-5.117,8.955l-7.463,7.569L68.017,89.871z"/>
<path fill="#0000FF" stroke="#000000" stroke-width="2" d="M59.701,81.449L49.68,84.008H39.552l-10.021-2.559l-8.849-5.331
	l-7.356-7.143l-5.224-9.062L5.437,49.893V39.658l2.665-9.914l5.224-9.063l7.143-7.143l9.062-5.33l10.021-2.666H49.68l10.021,2.666
	l9.063,5.33l7.143,7.143l5.33,9.063l2.559,9.914v10.234l-2.559,10.021l-5.33,9.062l-7.143,7.143L59.701,81.449z"/>
<path fill="#0000FF" stroke="#6666CC" stroke-width="2" d="M50.639,74.839H38.806l-11.087-4.584l-8.529-8.422l-4.478-10.98v-11.94
	l4.478-11.088l8.529-8.528l10.874-4.478h11.834l11.194,4.478l8.422,8.528l4.584,10.981v12.047l-4.584,10.98l-8.422,8.422
	L50.639,74.839z"/>
<path fill="#0000FF" stroke="#6666CC" stroke-width="2" d="M49.68,70.042H39.659l-9.382-3.731l-7.143-7.143l-3.838-9.275v-9.914
	l3.838-9.488l7.143-7.144l9.275-3.838h10.021l9.381,3.838l7.143,7.144l3.732,9.168v10.234l-3.732,9.275l-7.143,7.143L49.68,70.042z"
	/>
</svg>
