<?xml version="1.0" encoding="utf-8"?>
<!-- Generator: Adobe Illustrator 14.0.0, SVG Export Plug-In . SVG Version: 6.00 Build 43363)  -->
<!DOCTYPE svg PUBLIC "-//W3C//DTD SVG 1.1//EN" "http://www.w3.org/Graphics/SVG/1.1/DTD/svg11.dtd">
<svg version="1.1" id="图层_1" xmlns="http://www.w3.org/2000/svg" xmlns:xlink="http://www.w3.org/1999/xlink" x="0px" y="0px"
	 width="106.502px" height="106.502px" viewBox="0 0 106.502 106.502" enable-background="new 0 0 106.502 106.502"
	 xml:space="preserve">
<path fill="#999999" stroke="#000000" stroke-width="2" d="M72.281,99.999l-12.367,3.411H46.481l-12.367-3.411l-11.62-6.503
	L12.9,83.902L6.396,72.281L2.985,59.914V46.482l3.412-12.367l6.503-11.62l9.595-9.595l11.62-6.503l12.367-3.412h13.432l12.367,3.412
	L83.902,12.9l9.594,9.595L100,34.115l3.411,12.367v13.433L100,72.281l-6.504,11.621l-9.594,9.595L72.281,99.999z"/>
<path fill="#E5E5E5" stroke="#B2B2B2" stroke-width="2" d="M38.379,95.522l-12.047-5.117l-8.849-8.422l-6.077-10.448L8.209,59.488
	v-12.26l3.198-11.62l6.077-10.448l8.849-8.849l10.341-5.757L48.4,7.143h12.26l11.833,3.411l8.85,5.971l9.914,10.554L67.59,16.738
	l-45.416,60.66L38.379,95.522z"/>
<path fill="#333333" stroke="#333333" stroke-width="2" d="M72.494,99.999l-12.58,3.411H46.695l-30.17-32.409l49.573-57.889
	L100,33.902l3.411,12.58v13.22L100,72.494l-6.504,11.514l-9.488,9.488L72.494,99.999z"/>
<path fill="#009933" stroke="#000000" stroke-width="2" d="M68.017,89.871l-9.596,2.665H47.868l-9.595-2.665l-9.168-5.117
	l-7.463-7.463l-5.117-9.168l-2.665-9.595V47.974l2.665-9.595l5.117-9.062l7.463-7.569l9.168-5.011l9.595-2.665h10.554l9.596,2.665
	l9.061,5.011l7.57,7.569l5.01,9.062l2.666,9.595v10.555l-2.666,9.595l-5.01,9.168l-7.57,7.463L68.017,89.871z"/>
<path fill="#33CC33" stroke="#000000" stroke-width="2" d="M59.701,81.343L49.68,84.008H39.552l-10.021-2.665l-8.849-5.225
	l-7.356-7.143l-5.331-9.062L5.437,49.893V39.658l2.559-9.914l5.331-9.063l7.143-7.143l9.062-5.33l10.021-2.666H49.68l10.021,2.666
	l9.063,5.33l7.143,7.143l5.33,9.063l2.666,9.914v10.234l-2.666,10.021l-5.33,9.062l-7.143,7.143L59.701,81.343z"/>
<path fill="none" stroke="#31B331" stroke-width="2" d="M50.639,74.733H38.806l-11.194-4.478l-8.422-8.528l-4.584-10.874V39.019
	l4.584-11.194l8.422-8.528l10.98-4.478h11.834l11.194,4.478l8.422,8.528l4.584,10.981v12.047l-4.584,10.874l-8.422,8.528
	L50.639,74.733"/>
<path fill="none" stroke="#31B331" stroke-width="2" d="M49.68,70.042H39.659l-9.382-3.731l-7.143-7.143l-3.838-9.275V39.871
	l3.838-9.381l7.143-7.144l9.275-3.838h10.021l9.381,3.838l7.143,7.144l3.838,9.168v10.234l-3.838,9.275l-7.143,7.143L49.68,70.042"
	/>
</svg>
