<?xml version="1.0" encoding="utf-8"?>
<!-- Generator: Adobe Illustrator 14.0.0, SVG Export Plug-In . SVG Version: 6.00 Build 43363)  -->
<!DOCTYPE svg PUBLIC "-//W3C//DTD SVG 1.1//EN" "http://www.w3.org/Graphics/SVG/1.1/DTD/svg11.dtd">
<svg version="1.1" id="图层_1" xmlns="http://www.w3.org/2000/svg" xmlns:xlink="http://www.w3.org/1999/xlink" x="0px" y="0px"
	 width="106.502px" height="106.502px" viewBox="0 0 106.502 106.502" enable-background="new 0 0 106.502 106.502"
	 xml:space="preserve">
<path fill="#999999" stroke="#000000" stroke-width="2" d="M72.46,100.1l-12.486,3.414H46.528L34.042,100.1l-11.419-6.51
	l-9.711-9.712L6.403,72.46L2.988,59.974V46.529l3.415-12.486l6.51-11.419l9.711-9.711l11.419-6.51l12.486-3.415h13.446L72.46,6.403
	l11.418,6.51l9.711,9.711l6.51,11.419l3.415,12.486v13.445l-3.415,12.486l-6.51,11.418l-9.711,9.712L72.46,100.1z"/>
<path fill="#E5E5E5" stroke="#B2B2B2" stroke-width="2" d="M38.417,95.617l-12.059-5.122l-8.857-8.538l-6.083-10.351l-3.201-12.06
	V47.275l3.201-11.632l6.083-10.458l8.857-8.857l10.352-5.763l11.739-3.521h12.272l11.846,3.521l8.857,5.977l9.817,10.564
	L67.658,16.754L22.197,77.476L38.417,95.617z"/>
<path fill="#FFFF00" stroke="#000000" stroke-width="2" d="M68.298,89.961l-10.031,2.668H48.022l-9.924-2.668l-8.857-5.336
	l-7.363-7.149l-5.336-9.071l-2.668-9.924V48.236l2.668-10.031l5.336-8.964l7.15-7.257l9.071-5.229l9.924-2.668h10.245l10.031,2.668
	l8.964,5.229l7.257,7.257l5.229,8.964l2.668,10.031v10.245l-2.668,9.924l-5.229,9.071l-7.257,7.149L68.298,89.961z"/>
<path fill="#FFFF00" stroke="#EBEB00" stroke-width="2" d="M59.227,83.345H47.275l-11.098-4.482l-8.537-8.537l-4.482-10.991V47.489
	L27.64,36.39l8.537-8.537l10.992-4.482h11.845l11.1,4.482l8.537,8.537l4.482,10.885v12.06L78.65,70.325l-8.537,8.537L59.227,83.345z
	"/>
<path fill="#FFFF00" stroke="#EBEB00" stroke-width="2" d="M58.267,78.65H48.235l-9.391-3.735l-7.257-7.257l-3.735-9.177V48.448
	l3.735-9.497l7.257-7.15l9.177-3.734h10.031l9.498,3.734l7.149,7.15l3.735,9.284v10.245l-3.735,9.177l-7.149,7.257L58.267,78.65z"/>
<path fill="none" stroke="#FFFFFF" stroke-width="2" d="M84.519,29.24l5.229,8.964l2.668,10.031v10.245l-2.668,9.924l-5.229,9.071
	l-7.257,7.149l-8.964,5.336l-10.031,2.668H48.022l-9.924-2.668l-8.857-5.336l-7.363-7.149"/>
</svg>
