<?xml version="1.0" encoding="utf-8"?>
<!-- Generator: Adobe Illustrator 14.0.0, SVG Export Plug-In . SVG Version: 6.00 Build 43363)  -->
<!DOCTYPE svg PUBLIC "-//W3C//DTD SVG 1.1//EN" "http://www.w3.org/Graphics/SVG/1.1/DTD/svg11.dtd">
<svg version="1.1" id="图层_1" xmlns="http://www.w3.org/2000/svg" xmlns:xlink="http://www.w3.org/1999/xlink" x="0px" y="0px"
	 width="106.286px" height="106.502px" viewBox="0 0 106.286 106.502" enable-background="new 0 0 106.286 106.502"
	 xml:space="preserve">
<circle cx="53.09" cy="53.198" r="49.999"/>
<path d="M101.276,40.192L101.276,40.192l1.705,13.006h0.213l-1.705-13.112l0,0l0,0l0,0L101.276,40.192z"/>
<path d="M96.266,28.252L96.266,28.252l5.011,11.939l0.213-0.106l-4.904-12.046h-0.106h0.106h-0.106L96.266,28.252z"/>
<path d="M88.271,17.911l7.995,10.341l0.213-0.213l-7.995-10.341L88.271,17.911z"/>
<path d="M78.143,9.915L78.143,9.915l10.128,7.996l0.213-0.213L78.355,9.702l0,0l0,0l0,0L78.143,9.915z"/>
<path d="M65.989,4.906L65.989,4.906l12.153,5.01l0.213-0.213l-12.26-5.011l0,0l0,0l0,0L65.989,4.906z"/>
<path d="M52.983,3.199L52.983,3.199l13.006,1.706l0.106-0.214L52.983,2.987l0,0l0,0l0,0l0,0V3.199z"/>
<path d="M40.19,4.906L40.19,4.906l12.793-1.706V2.987L40.084,4.692l0,0l0,0l0,0L40.19,4.906z"/>
<path d="M28.25,9.915L28.25,9.915l11.94-5.01l-0.106-0.214L28.038,9.702l0,0l0,0l0,0L28.25,9.915z"/>
<path d="M17.91,17.911L28.25,9.915l-0.213-0.213l-10.341,7.996L17.91,17.911z"/>
<path d="M9.915,28.252L9.915,28.252l7.995-10.341l-0.213-0.213L9.701,28.039l0,0l0,0l0,0L9.915,28.252z"/>
<path d="M4.904,40.192L4.904,40.192l5.011-11.939l-0.213-0.213L4.69,40.085l0,0l0,0l0,0L4.904,40.192z"/>
<path d="M3.198,53.198L3.198,53.198l1.706-13.006L4.69,40.085L2.985,53.198l0,0l0,0l0,0l0,0H3.198z"/>
<path d="M4.904,66.203L4.904,66.203L3.198,53.198H2.985L4.69,66.311l0,0l0,0l0,0L4.904,66.203z"/>
<path d="M9.915,78.144L9.915,78.144l-5.011-11.94L4.69,66.311l5.011,12.046l0,0l0,0l0,0L9.915,78.144z"/>
<path d="M17.91,88.591L9.915,78.144l-0.213,0.213l7.996,10.447L17.91,88.591z"/>
<path d="M28.25,96.48L28.25,96.48L17.91,88.591l-0.213,0.213l10.341,7.89l0,0l0,0l0,0L28.25,96.48z"/>
<path d="M40.19,101.49L40.19,101.49L28.25,96.48l-0.213,0.214l12.046,5.01l0,0l0,0l0,0L40.19,101.49z"/>
<path d="M52.983,103.197L52.983,103.197L40.19,101.49l-0.106,0.213l12.899,1.706l0,0l0,0l0,0l0,0V103.197z"/>
<path d="M65.989,101.49L65.989,101.49l-13.006,1.706v0.213l13.112-1.706l0,0l0,0l0,0L65.989,101.49z"/>
<path d="M78.143,96.48L78.143,96.48l-12.153,5.011l0.106,0.213l12.26-5.01l0,0l0,0l0,0L78.143,96.48z"/>
<path d="M88.271,88.591L78.143,96.48l0.213,0.214l10.128-7.89L88.271,88.591z"/>
<path d="M96.266,78.144L96.266,78.144l-7.995,10.447l0.213,0.213l7.995-10.447h0.106h-0.106h0.106L96.266,78.144z"/>
<path d="M101.276,66.203L101.276,66.203l-5.011,11.94l0.319,0.213l4.904-12.046l0,0l0,0l0,0L101.276,66.203z"/>
<path d="M102.981,53.198L102.981,53.198l-1.705,13.006l0.213,0.107l1.705-13.113l0,0l0,0l0,0l0,0H102.981z"/>
<path fill="#E5E5E5" stroke="#000000" stroke-width="2" d="M33.794,9.596L9.381,33.795l-0.746,2.346v34.114L9.381,72.6
	l24.413,24.413l2.346,0.64h33.9l2.452-0.64L96.798,72.6l0.747-2.345V36.141l-0.747-2.346L72.492,9.596L70.04,8.743h-33.9
	L33.794,9.596z"/>
<circle fill="#7F7F7F" stroke="#000000" stroke-width="2" cx="53.09" cy="53.198" r="41.79"/>
<path fill="#B2B2B2" stroke="#000000" stroke-width="2" d="M59.167,5.865v8.849l8.314,2.346l7.463,4.051l6.716,5.543l5.011,6.823
	l3.411,7.889l1.706,8.422l-0.107,8.742l-2.131,8.208l-3.838,7.676l-5.438,6.609l-6.609,5.224l-7.889,3.731l-8.315,1.813h-8.635
	l-8.422-1.813l-7.782-3.731l-6.716-5.224l-5.437-6.609l-3.838-7.676l-2.025-8.208l-0.426-8.742l1.706-8.422l3.625-7.889l5.011-6.823
	l6.503-5.543l7.676-4.051l8.528-2.346V5.865H59.167z"/>
<circle fill="#7F7F7F" cx="53.09" cy="53.198" r="33.368"/>
<circle fill="#B2B2B2" cx="53.09" cy="53.198" r="31.875"/>
<circle stroke="#000000" stroke-width="2" cx="53.09" cy="53.198" r="28.89"/>
<circle stroke="#000000" stroke-width="2" cx="53.09" cy="53.198" r="25.905"/>
</svg>
