<?xml version="1.0" encoding="iso-8859-1"?>
<!DOCTYPE svg PUBLIC "-//W3C//DTD SVG 20000303 Stylable//EN"
"http://www.w3.org/TR/2000/03/WD-SVG-20000303/DTD/svg-20000303-stylable.dtd">

<svg width="1.4777in" height="1.4792in" viewBox="0 0 998 999">

<circle style="fill:#000" cx="498" cy="499" r="469" />
<path style="fill:#000" d="M950,378 l0,0 17,121 2,0 -17,-121 0,-1 0,1 0,-1z" />
<path style="fill:#000" d="M903,265 l0,0 47,113 2,-1 -47,-113 0,-1 0,1 0,-1 0,0z" />
<path style="fill:#000" d="M830,168 l0,0 73,97 2,-2 -73,-96 -1,-1 1,1 0,-1 -1,0z" />
<path style="fill:#000" d="M733,93 l0,0 97,75 1,-2 -96,-75 -1,0 1,0 0,0 -1,0z" />
<path style="fill:#000" d="M620,47 l0,0 113,46 1,-2 -113,-46 -1,0 1,0 -1,0z" />
<path style="fill:#000" d="M498,30 l0,0 122,17 0,-2 -122,-17 0,0 0,0 0,0 0,0z" />
<path style="fill:#000" d="M376,47 l0,0 122,-17 0,-2 -122,17 -1,0 1,0 -1,0z" />
<path style="fill:#000" d="M265,93 l0,0 111,-46 -1,-2 -111,46 -1,0 1,0 -1,0 0,0z" />
<path style="fill:#000" d="M168,168 l0,0 97,-75 -2,-2 -96,75 -1,1 1,-1 -1,0 0,1z" />
<path style="fill:#000" d="M92,265 l0,0 76,-97 -2,-1 -76,96 0,1 0,-1 0,0 0,1z" />
<path style="fill:#000" d="M45,378 l0,0 47,-113 -2,-1 -47,113 0,1 0,-1 0,1z" />
<path style="fill:#000" d="M30,499 l0,0 15,-121 -2,0 -15,121 0,0 0,0 0,0 0,0z" />
<path style="fill:#000" d="M45,620 l0,0 -15,-121 -2,0 15,121 0,1 0,-1 0,1z" />
<path style="fill:#000" d="M92,733 l0,0 -47,-113 -2,1 47,113 0,1 0,-1 0,1 0,0z" />
<path style="fill:#000" d="M168,831 l0,0 -76,-98 -2,2 76,97 1,1 -1,-1 0,1 1,0z" />
<path style="fill:#000" d="M265,905 l0,0 -97,-74 -1,2 96,74 1,0 -1,0 0,0 1,0z" />
<path style="fill:#000" d="M376,953 l0,0 -111,-48 -1,2 111,48 1,0 -1,0 1,0z" />
<path style="fill:#000" d="M498,968 l0,0 -122,-15 0,2 122,15 0,0 0,0 0,0 0,0z" />
<path style="fill:#000" d="M620,953 l0,0 -122,15 0,2 122,-15 1,0 -1,0 1,0z" />
<path style="fill:#000" d="M733,905 l0,0 -113,48 1,2 113,-48 1,0 -1,0 1,0 0,0z" />
<path style="fill:#000" d="M830,831 l0,0 -97,74 2,2 96,-74 1,-1 -1,1 1,0 0,-1z" />
<path style="fill:#000" d="M903,733 l0,0 -73,98 2,1 73,-97 0,-1 0,1 0,0 0,-1z" />
<path style="fill:#000" d="M950,620 l0,0 -47,113 2,1 47,-113 0,-1 0,1 0,-1z" />
<path style="fill:#000" d="M967,499 l0,0 -17,121 2,0 17,-121 0,0 0,0 0,0 0,0z" />
<path style="fill:#e5e5e5;stroke:#000;stroke-width:2" d="M317,90 l-229,228 -6,22 0,319 6,21 229,230 22,6 318,0 22,-6 229,-230 7,-21 0,-319 -7,-22 -229,-228 -22,-8 -318,0 -22,8z" />
<circle style="fill:#7f7f7f;stroke:#000;stroke-width:2" cx="497" cy="499" r="392" />
<path style="fill:#b2b2b2;stroke:#000;stroke-width:2" d="M555,55 l0,82 77,22 72,38 61,53 48,64 33,74 16,79 -1,81 -21,78 -36,72 -51,62 -63,50 -73,35 -79,17 -79,0 -79,-17 -75,-35 -63,-50 -50,-62 -36,-72 -20,-78 -2,-81 16,-79 33,-74 49,-64 60,-53 73,-38 77,-22 0,-82 113,0z" />
<circle style="fill:#7f7f7f" cx="498" cy="499" r="313" />
<circle style="fill:#b2b2b2" cx="498" cy="499" r="299" />
<circle style="fill:#000;stroke:#000;stroke-width:2" cx="498" cy="499" r="271" />
<circle style="fill:#3c3;stroke:#000;stroke-width:2" cx="498" cy="499" r="242" />

</svg>
