<?xml version="1.0" encoding="utf-8"?>
<!-- Generator: Adobe Illustrator 14.0.0, SVG Export Plug-In . SVG Version: 6.00 Build 43363)  -->
<!DOCTYPE svg PUBLIC "-//W3C//DTD SVG 1.1//EN" "http://www.w3.org/Graphics/SVG/1.1/DTD/svg11.dtd">
<svg version="1.1" id="图层_1" xmlns="http://www.w3.org/2000/svg" xmlns:xlink="http://www.w3.org/1999/xlink" x="0px" y="0px"
	 width="106.395px" height="106.502px" viewBox="0 0 106.395 106.502" enable-background="new 0 0 106.395 106.502"
	 xml:space="preserve">
<circle cx="53.091" cy="53.198" r="49.999"/>
<path d="M101.383,40.192L101.383,40.192l1.705,13.006h0.215l-1.706-13.006v-0.106v0.106v-0.106l0,0L101.383,40.192z"/>
<path d="M96.267,28.359L96.267,28.359l5.116,11.833l0.214-0.106l-5.117-11.94l0,0l0,0l0,0L96.267,28.359z"/>
<path d="M88.377,17.91L88.377,17.91l7.89,10.448l0.213-0.214l-7.89-10.447l0,0l0,0l0,0l0,0L88.377,17.91z"/>
<path d="M78.036,9.915L78.036,9.915l10.342,7.995l0.213-0.213L78.25,9.702l0,0l0,0l0,0L78.036,9.915z"/>
<path d="M66.097,5.011L66.097,5.011l11.938,4.904l0.215-0.213L66.204,4.798h-0.106h0.106l0,0h-0.106V5.011z"/>
<path d="M53.091,3.198L53.091,3.198l13.006,1.813V4.798L53.091,2.986l0,0l0,0l0,0l0,0V3.198z"/>
<path d="M40.191,5.011L40.191,5.011l12.9-1.813V2.986l-12.9,1.813h-0.106h0.106h-0.106l0,0L40.191,5.011z"/>
<path d="M28.145,9.915L28.145,9.915l12.046-4.904l-0.106-0.213L28.037,9.702h-0.106h0.106h-0.106L28.145,9.915z"/>
<path d="M17.91,17.91L17.91,17.91l10.234-7.995L27.93,9.702l-10.234,7.995l0,0l0,0l0,0l0,0L17.91,17.91z"/>
<path d="M9.914,28.359L9.914,28.359L17.91,17.91l-0.214-0.213L9.701,28.145l0,0l0,0l0,0L9.914,28.359z"/>
<path d="M4.904,40.192L4.904,40.192l5.011-11.833l-0.213-0.214l-5.011,11.94v0.106v-0.106l0,0v0.106L4.904,40.192L4.904,40.192z"/>
<path d="M3.198,53.198L3.198,53.198l1.705-13.006H4.691L2.985,53.198l0,0l0,0l0,0l0,0H3.198z"/>
<path d="M4.904,66.204L4.904,66.204L3.198,53.198H2.985l1.706,13.007v0.106v-0.106v0.106l0,0L4.904,66.204z"/>
<path d="M9.914,78.037L9.914,78.037l-5.01-11.833L4.691,66.31l5.01,11.94l0,0l0,0l0,0L9.914,78.037z"/>
<path d="M17.91,88.592L17.91,88.592L9.914,78.037L9.701,78.25l7.995,10.556l0,0l0,0l0,0l0,0L17.91,88.592z"/>
<path d="M28.145,96.481L28.145,96.481l-10.235-7.89l-0.214,0.214l10.234,7.889h0.106H27.93h0.106L28.145,96.481z"/>
<path d="M40.191,101.491L40.191,101.491l-12.046-5.012l-0.107,0.213l12.047,5.012h0.106h-0.106l0,0h0.106V101.491z"/>
<path d="M53.091,103.196L53.091,103.196l-12.9-1.704v0.213l12.9,1.706l0,0l0,0l0,0l0,0V103.196z"/>
<path d="M66.097,101.491L66.097,101.491l-13.006,1.705v0.214l13.006-1.706h0.106h-0.106h0.106l0,0L66.097,101.491z"/>
<path d="M78.036,96.481L78.036,96.481l-11.938,5.011l0.106,0.213l12.047-5.011l0,0l0,0l0,0L78.036,96.481z"/>
<path d="M88.377,88.592L88.377,88.592l-10.342,7.89l0.215,0.213l10.34-7.889l0,0l0,0l0,0l0,0L88.377,88.592z"/>
<path d="M96.267,78.037L96.267,78.037l-7.89,10.555l0.213,0.214l7.89-10.556l0,0l0,0l0,0L96.267,78.037z"/>
<path d="M101.383,66.204L101.383,66.204l-5.116,11.833l0.213,0.213l5.117-11.938v-0.106v0.106l0,0v-0.106L101.383,66.204
	L101.383,66.204z"/>
<path d="M103.088,53.198L103.088,53.198l-1.705,13.007h0.214l1.706-13.007l0,0l0,0l0,0l0,0H103.088z"/>
<path fill="#E5E5E5" d="M33.794,9.489L9.381,33.902l-0.746,2.346v33.901l0.746,2.345l24.413,24.521l2.346,0.746h33.901l2.346-0.746
	l24.52-24.521l0.533-2.345V36.247l-0.533-2.346L72.387,9.489l-2.346-0.746H36.14L33.794,9.489z"/>
<path d="M9.489,33.902L9.489,33.902L33.794,9.595l-0.106-0.106L9.381,33.795H9.275h0.106l0,0H9.275L9.489,33.902z"/>
<path d="M8.635,36.247L8.635,36.247l0.854-2.346l-0.214-0.106l-0.746,2.452l0,0l0,0l0,0H8.635z"/>
<path d="M8.635,70.149L8.635,70.149V36.247H8.529v33.9l0,0l0,0l0,0h0.106V70.149z"/>
<path d="M9.489,72.493L9.489,72.493l-0.854-2.346H8.529l0.746,2.453h0.106H9.275h0.106l0,0L9.489,72.493z"/>
<path d="M33.794,96.907L33.794,96.907L9.489,72.493l-0.107,0.107l24.307,24.412v0.106v-0.106l0,0v0.106L33.794,96.907z"/>
<path d="M36.14,97.761L36.14,97.761l-2.346-0.854l-0.106,0.213l2.452,0.746l0,0l0,0l0,0V97.761z"/>
<path d="M70.042,97.761L70.042,97.761H36.14v0.105h33.901l0,0l0,0l0,0V97.761z"/>
<path d="M72.387,96.907L72.387,96.907l-2.346,0.853v0.106l2.451-0.746v-0.105v0.105v-0.105l0,0L72.387,96.907z"/>
<path d="M96.799,72.493L96.799,72.493L72.387,96.907l0.105,0.105l24.414-24.412h0.105h-0.105h0.105l0,0L96.799,72.493z"/>
<path d="M97.44,70.149L97.44,70.149l-0.641,2.345l0.214,0.106l0.532-2.451l0,0l0,0l0,0H97.44z"/>
<path d="M97.44,36.247L97.44,36.247v33.9h0.105v-33.9l0,0l0,0l0,0H97.44z"/>
<path d="M96.799,33.902L96.799,33.902l0.641,2.346h0.105l-0.532-2.452h-0.106h0.106l0,0h-0.106L96.799,33.902z"/>
<path d="M72.387,9.595L72.387,9.595l24.412,24.307l0.107-0.106L72.493,9.489V9.382v0.106l0,0V9.382L72.387,9.595z"/>
<path d="M70.042,8.742L70.042,8.742l2.346,0.853l0.105-0.213l-2.451-0.746l0,0l0,0l0,0V8.742z"/>
<path d="M36.14,8.742L36.14,8.742h33.901V8.636H36.14l0,0l0,0l0,0V8.742z"/>
<path d="M33.794,9.595L33.794,9.595l2.346-0.853V8.636l-2.452,0.746v0.106V9.382v0.106l0,0L33.794,9.595z"/>
<circle fill="#7F7F7F" cx="52.984" cy="53.198" r="41.791"/>
<path d="M93.815,43.923L93.815,43.923l0.96,9.274h0.213l-1.065-9.274v-0.106v0.106v-0.106L93.815,43.923z"/>
<path d="M90.723,34.968L90.723,34.968l3.092,8.955l0.105-0.106l-3.092-8.849l0,0l0,0l0,0l0,0H90.723z"/>
<path d="M85.82,27.079L85.82,27.079l4.903,7.889h0.105l-4.902-7.995l0,0l0,0l0,0L85.82,27.079z"/>
<path d="M79.209,20.576L79.209,20.576l6.609,6.503l0.105-0.106l-6.609-6.504l0,0l0,0l0,0L79.209,20.576z"/>
<path d="M71.321,15.566L71.321,15.566l7.889,5.011l0.106-0.107l-7.89-5.01h-0.105h0.105l0,0h-0.105V15.566z"/>
<path d="M62.366,12.474h-0.107l9.063,3.092V15.46l-8.955-3.092l0,0l0,0l0,0V12.474L62.366,12.474z"/>
<path d="M53.091,11.407l9.275,1.066v-0.106l-9.275-1.173V11.407z"/>
<path d="M43.816,12.474L43.816,12.474l9.275-1.066v-0.213l-9.275,1.173H43.71h0.106H43.71L43.816,12.474z"/>
<path d="M34.967,15.566L34.967,15.566l8.849-3.092l-0.106-0.106l-8.742,3.092l0,0l0,0l0,0l0,0L34.967,15.566L34.967,15.566z"/>
<path d="M26.972,20.576L26.972,20.576l7.995-5.011v-0.106l-8.102,5.01l0,0l0,0l0,0L26.972,20.576z"/>
<path d="M20.469,27.079L20.469,27.079l6.503-6.503l-0.106-0.107l-6.504,6.504l0,0l0,0l0,0L20.469,27.079z"/>
<path d="M15.458,34.968L15.458,34.968l5.011-7.889l-0.107-0.106l-5.01,7.995l0,0l0,0l0,0l0,0H15.458z"/>
<path d="M12.26,43.923L12.26,43.923l3.198-8.955h-0.106l-3.198,8.849v0.106v-0.106v0.106H12.26z"/>
<path d="M11.3,53.198l0.96-9.274h-0.106l-1.066,9.274H11.3z"/>
<path d="M12.26,62.579L12.26,62.579l-0.96-9.382h-0.213l1.066,9.382v0.105v-0.105v0.105L12.26,62.579z"/>
<path d="M15.458,71.429L15.458,71.429l-3.198-8.85l-0.106,0.105l3.198,8.742l0,0l0,0l0,0l0,0h0.106V71.429z"/>
<path d="M20.469,79.317L20.469,79.317l-5.011-7.889h-0.106l5.01,7.994l0,0l0,0l0,0L20.469,79.317z"/>
<path d="M26.972,85.926L26.972,85.926l-6.503-6.608l-0.107,0.105l6.504,6.61l0,0l0,0l0,0L26.972,85.926z"/>
<path d="M34.967,90.937L34.967,90.937l-7.995-5.011l-0.106,0.107l8.102,5.01l0,0l0,0l0,0l0,0L34.967,90.937L34.967,90.937z"/>
<path d="M43.816,94.136L43.816,94.136l-8.849-3.199v0.106l8.742,3.198h0.106h-0.106h0.106L43.816,94.136L43.816,94.136z"/>
<path d="M53.091,95.095l-9.275-0.959v0.105l9.275,1.066V95.095z"/>
<path d="M62.258,94.136h0.107l-9.275,0.959v0.213l9.275-1.065l0,0l0,0l0,0L62.258,94.136z"/>
<path d="M71.321,90.937L71.321,90.937l-9.063,3.198l0.107,0.106l8.954-3.198h0.106H71.32h0.106l0,0L71.321,90.937z"/>
<path d="M79.209,85.926L79.209,85.926l-7.89,5.011l0.106,0.106l7.889-5.01l0,0l0,0l0,0L79.209,85.926z"/>
<path d="M85.82,79.317L85.82,79.317l-6.61,6.608l0.106,0.107l6.61-6.61l0,0l0,0l0,0L85.82,79.317z"/>
<path d="M90.723,71.429L90.723,71.429l-4.903,7.889l0.106,0.105l4.902-7.994l0,0l0,0l0,0l0,0H90.723z"/>
<path d="M93.815,62.579L93.815,62.579l-3.092,8.85h0.105l3.092-8.742V62.58v0.106V62.58L93.815,62.579L93.815,62.579z"/>
<path d="M94.775,53.198l-0.96,9.382h0.105l1.066-9.382H94.775z"/>
<path fill="#B2B2B2" d="M59.167,5.865v8.848l8.209,2.346l7.676,3.944l6.504,5.65l5.117,6.93l3.518,7.676l1.706,8.528l-0.213,8.636
	l-2.134,8.314l-3.838,7.568l-5.33,6.717l-6.822,5.33l-7.889,3.731l-8.315,1.813h-8.528l-8.422-1.813l-7.782-3.731l-6.823-5.33
	l-5.33-6.717l-3.838-7.568l-2.133-8.314l-0.213-8.636l1.706-8.528l3.518-7.676l5.224-6.93l6.396-5.65l7.676-3.944l8.315-2.346V5.865
	H59.167z"/>
<path d="M59.274,14.606v0.106V5.865h-0.105v8.848v0.107v-0.107v0.107l0,0L59.274,14.606z"/>
<path d="M67.483,16.951L67.483,16.951l-8.209-2.346l-0.105,0.214l8.209,2.238l0,0L67.483,16.951L67.483,16.951z"/>
<path d="M75.051,21.002L75.051,21.002l-7.568-4.051l-0.105,0.106l7.676,4.051h-0.106L75.051,21.002L75.051,21.002L75.051,21.002z"/>
<path d="M81.661,26.653v-0.106l-6.609-5.544l-0.105,0.106l6.504,5.544l0,0H81.661v-0.106V26.653z"/>
<path d="M86.779,33.476L86.779,33.476l-5.116-6.823H81.45l5.116,6.93l0,0L86.779,33.476L86.779,33.476z"/>
<path d="M90.297,41.258L90.297,41.258l-3.52-7.782l-0.213,0.106l3.518,7.782v-0.106H90.297L90.297,41.258z"/>
<path d="M92.002,49.786L92.002,49.786l-1.705-8.528h-0.215l1.707,8.528l0,0H92.002L92.002,49.786z"/>
<path d="M91.79,58.422L91.79,58.422l0.213-8.636H91.79l-0.213,8.636l0,0H91.79L91.79,58.422z"/>
<path d="M89.657,66.737L89.657,66.737l2.133-8.314h-0.213l-2.134,8.314l0,0H89.657L89.657,66.737z"/>
<path d="M85.82,74.412L85.82,74.412l3.839-7.677h-0.215l-3.73,7.57l0,0L85.82,74.412L85.82,74.412L85.82,74.412z"/>
<path d="M80.381,81.129L80.381,81.129l5.438-6.717l-0.106-0.106l-5.438,6.717l0,0L80.381,81.129L80.381,81.129z"/>
<path d="M73.559,86.459L73.559,86.459l6.822-5.33l-0.105-0.106l-6.822,5.33v-0.105L73.559,86.459L73.559,86.459z"/>
<path d="M65.777,90.19L65.777,90.19l7.782-3.73l-0.105-0.213l-7.783,3.73l0,0L65.777,90.19L65.777,90.19z"/>
<path d="M57.355,92.003h0.106l8.314-1.813l-0.105-0.213l-8.315,1.813l0,0V92.003h0.106H57.355z"/>
<path d="M48.72,92.003h0.106h8.528V91.79h-8.528l0,0L48.72,92.003h0.106H48.72z"/>
<path d="M40.298,90.19L40.298,90.19l8.422,1.813l0.106-0.213l-8.422-1.813l0,0L40.298,90.19L40.298,90.19z"/>
<path d="M32.622,86.459L32.622,86.459l7.676,3.731l0.106-0.213l-7.676-3.731v0.106L32.622,86.459L32.622,86.459z"/>
<path d="M25.799,81.129L25.799,81.129l6.823,5.33l0.106-0.106l-6.823-5.33l0,0L25.799,81.129L25.799,81.129z"/>
<path d="M20.362,74.412L20.362,74.412l5.438,6.717l0.106-0.106l-5.437-6.717l0,0L20.362,74.412L20.362,74.412L20.362,74.412z"/>
<path d="M16.525,66.737L16.525,66.737l3.837,7.676l0.107-0.105l-3.731-7.57l0,0H16.525L16.525,66.737z"/>
<path d="M14.392,58.422L14.392,58.422l2.133,8.313h0.213l-2.132-8.313l0,0H14.392L14.392,58.422z"/>
<path d="M14.285,49.786L14.285,49.786l0.106,8.636h0.214l-0.214-8.636l0,0H14.285L14.285,49.786z"/>
<path d="M15.991,41.258L15.991,41.258l-1.706,8.528h0.106l1.706-8.528v0.106L15.991,41.258L15.991,41.258z"/>
<path d="M19.509,33.476h-0.106l-3.411,7.782l0.106,0.106l3.518-7.782l0,0L19.509,33.476h-0.106H19.509z"/>
<path d="M24.626,26.546v0.106l-5.117,6.823l0.106,0.106l5.224-6.93l0,0L24.626,26.546v0.106V26.546z"/>
<path d="M31.129,21.002L31.129,21.002l-6.503,5.544l0.213,0.106l6.396-5.544l0,0L31.129,21.002L31.129,21.002L31.129,21.002z"/>
<path d="M38.698,16.951L38.698,16.951l-7.569,4.051l0.106,0.106l7.569-4.051l0,0L38.698,16.951L38.698,16.951z"/>
<path d="M47.014,14.712v-0.106l-8.315,2.346l0.106,0.106l8.315-2.238v-0.107v0.107l0,0v-0.107L47.014,14.712L47.014,14.712z"/>
<path d="M47.12,5.865h-0.106v8.848h0.106V5.865v0.106V5.865h-0.106l0,0H47.12z"/>
<path d="M59.274,5.865h-0.105H47.12v0.106h12.046V5.865H59.274L59.274,5.865h-0.105H59.274z"/>
<circle fill="#7F7F7F" cx="53.091" cy="53.198" r="33.368"/>
<circle fill="#B2B2B2" cx="53.091" cy="53.198" r="31.769"/>
<circle cx="53.091" cy="53.198" r="28.891"/>
<path d="M81.022,45.842L81.022,45.842l0.96,7.355h0.106l-0.961-7.462l0,0l0,0l0,0L81.022,45.842z"/>
<path d="M78.036,38.806H77.93l3.092,7.036l0.105-0.106L78.144,38.7l0,0l0,0l0,0L78.036,38.806z"/>
<path d="M73.452,32.836L73.452,32.836l4.584,5.97l0.107-0.106l-4.585-5.971l0,0l0,0l0,0l0,0L73.452,32.836z"/>
<path d="M67.483,28.359L67.483,28.359l5.971,4.478l0.105-0.107l-5.971-4.584l0,0l0,0l0,0L67.483,28.359z"/>
<path d="M60.447,25.373L60.447,25.373l7.036,2.985l0.105-0.214l-7.035-2.984l0,0l0,0l0,0L60.447,25.373z"/>
<path d="M53.091,24.307L53.091,24.307l7.355,1.066l0.105-0.213L53.09,24.2l0,0l0,0l0,0l0,0L53.091,24.307L53.091,24.307z"/>
<path d="M45.628,25.373L45.628,25.373l7.463-1.066V24.2l-7.569,0.96l0,0l0,0l0,0L45.628,25.373z"/>
<path d="M38.592,28.359L38.592,28.359l7.036-2.985l-0.106-0.213l-7.036,2.984l0,0l0,0l0,0L38.592,28.359z"/>
<path d="M32.835,32.836L32.835,32.836l5.757-4.478l-0.106-0.214l-5.757,4.584l0,0l0,0l0,0l0,0L32.835,32.836z"/>
<path d="M28.145,38.806L28.145,38.806l4.69-5.97l-0.106-0.107L28.038,38.7h-0.106h0.106h-0.106L28.145,38.806z"/>
<path d="M25.266,45.736v0.106l2.879-7.036L27.931,38.7l-2.878,7.036l0,0l0,0l0,0l0,0H25.266z"/>
<path d="M24.307,53.198l0.959-7.462h-0.213l-0.854,7.462H24.307z"/>
<path d="M25.266,60.554v0.106l-0.959-7.463H24.2l0.854,7.463l0,0l0,0l0,0l0,0L25.266,60.554z"/>
<path d="M28.145,67.59L28.145,67.59l-2.879-7.036l-0.213,0.106l2.878,7.036h0.106h-0.106h0.106L28.145,67.59z"/>
<path d="M32.835,73.56L32.835,73.56l-4.69-5.97l-0.107,0.106l4.691,5.97l0,0l0,0l0,0l0,0L32.835,73.56z"/>
<path d="M38.592,78.25L38.592,78.25l-5.757-4.69l-0.106,0.106l5.757,4.69l0.106,0.106l-0.106-0.106l0.106,0.106V78.25z"/>
<path d="M45.628,81.022l-7.036-2.771v0.214l6.93,2.771L45.628,81.022z"/>
<path d="M53.091,82.088L53.091,82.088l-7.463-1.065l-0.106,0.213l7.569,0.961l0,0l0,0l0,0l0,0V82.088z"/>
<path d="M60.447,81.022l-7.355,1.065v0.106l7.462-0.959L60.447,81.022z"/>
<path d="M67.483,78.25L67.483,78.25l-7.036,2.772l0.106,0.213l7.035-2.771v-0.105v0.105v-0.105L67.483,78.25z"/>
<path d="M73.452,73.56L73.452,73.56l-5.97,4.69l0.106,0.106l5.97-4.69l0,0l0,0l0,0l0,0L73.452,73.56z"/>
<path d="M77.93,67.59h0.105l-4.584,5.97l0.106,0.106l4.585-5.97l0,0l0,0l0,0L77.93,67.59z"/>
<path d="M81.022,60.554L81.022,60.554L77.93,67.59l0.214,0.106l2.983-7.036l0,0l0,0l0,0L81.022,60.554z"/>
<path d="M81.982,53.198L81.982,53.198l-0.96,7.356l0.105,0.106l0.961-7.463l0,0l0,0l0,0l0,0L81.982,53.198L81.982,53.198z"/>
<circle fill="#FF0000" cx="53.091" cy="53.198" r="25.906"/>
<path d="M77.93,46.482l0.96,6.716h0.106l-0.854-6.716H77.93z"/>
<path d="M75.478,40.298L75.478,40.298l2.452,6.184h0.214l-2.56-6.184v-0.106v0.106v-0.106L75.478,40.298z"/>
<path d="M71.426,34.968v-0.106l4.052,5.437l0.106-0.106l-4.051-5.33l-0.107-0.106l0.107,0.106v-0.106h-0.107V34.968z"/>
<path d="M65.991,30.917L65.991,30.917l5.436,4.051v-0.213l-5.329-3.945l0,0l0,0l0,0L65.991,30.917z"/>
<path d="M59.7,28.359L59.7,28.359l6.291,2.559l0.105-0.107L59.7,28.145l0,0l0,0l0,0V28.359z"/>
<path d="M53.091,27.399L53.091,27.399l6.609,0.96v-0.214l-6.609-0.853l0,0l0,0l0,0l0,0V27.399z"/>
<path d="M46.374,28.359L46.374,28.359l6.717-0.96v-0.106l-6.717,0.853l0,0l0,0l0,0V28.359z"/>
<path d="M40.191,30.917L40.191,30.917l6.184-2.559v-0.214l-6.29,2.665l0,0l0,0l0,0L40.191,30.917z"/>
<path d="M34.861,34.862l-0.106,0.106l5.437-4.051l-0.106-0.107l-5.33,3.945l-0.106,0.106l0.106-0.106H34.65v0.106L34.861,34.862
	L34.861,34.862z"/>
<path d="M30.703,40.298L30.703,40.298l4.157-5.437h-0.213l-4.052,5.33l0,0l0,0l0,0L30.703,40.298z"/>
<path d="M28.145,46.482L28.145,46.482l2.559-6.184l-0.107-0.106l-2.665,6.29l0,0l0,0l0,0H28.145z"/>
<path d="M27.185,53.198L27.185,53.198l0.96-6.716h-0.214l-0.853,6.716l0,0l0,0l0,0l0,0H27.185z"/>
<path d="M28.145,60.021L28.145,60.021l-0.96-6.823h-0.106l0.853,6.823l0,0l0,0l0,0H28.145z"/>
<path d="M30.703,66.204L30.703,66.204l-2.559-6.184H27.93l2.665,6.289l0,0l0,0l0,0L30.703,66.204z"/>
<path d="M34.754,71.429l0.106,0.105l-4.157-5.33l-0.107,0.105l4.052,5.225l0.106,0.105l-0.106-0.105v0.105h0.106V71.429z"/>
<path d="M40.191,75.692L40.191,75.692l-5.437-4.264v0.213l5.33,4.157l0,0l0,0l0,0L40.191,75.692z"/>
<path d="M46.374,78.25L46.374,78.25l-6.184-2.56l-0.106,0.107l6.29,2.665l0,0l0,0l0,0V78.25z"/>
<path d="M53.091,79.21L53.091,79.21l-6.717-0.96v0.214l6.717,0.854l0,0l0,0l0,0l0,0V79.21z"/>
<path d="M59.7,78.25L59.7,78.25l-6.609,0.96v0.105l6.609-0.853l0,0l0,0l0,0V78.25z"/>
<path d="M65.991,75.692L65.991,75.692L59.7,78.25v0.214l6.396-2.665l0,0l0,0l0,0L65.991,75.692z"/>
<path d="M71.426,71.534v-0.105l-5.436,4.264l0.105,0.106l5.33-4.157l0.105-0.106l-0.105,0.106h0.105v-0.106L71.426,71.534
	L71.426,71.534z"/>
<path d="M75.478,66.204L75.478,66.204l-4.052,5.33h0.107l4.051-5.225v-0.105v0.105v-0.105H75.478z"/>
<path d="M77.93,60.021l-2.452,6.185h0.106l2.56-6.185H77.93z"/>
<path d="M78.89,53.198L78.89,53.198l-0.96,6.823h0.214l0.853-6.823l0,0l0,0l0,0l0,0H78.89z"/>
</svg>
