<?xml version="1.0" encoding="utf-8"?>
<!-- Generator: Adobe Illustrator 14.0.0, SVG Export Plug-In . SVG Version: 6.00 Build 43363)  -->
<!DOCTYPE svg PUBLIC "-//W3C//DTD SVG 1.1//EN" "http://www.w3.org/Graphics/SVG/1.1/DTD/svg11.dtd">
<svg version="1.1" id="图层_1" xmlns="http://www.w3.org/2000/svg" xmlns:xlink="http://www.w3.org/1999/xlink" x="0px" y="0px"
	 width="106.395px" height="106.502px" viewBox="0 0 106.395 106.502" enable-background="new 0 0 106.395 106.502"
	 xml:space="preserve">
<circle cx="53.091" cy="53.198" r="49.999"/>
<path d="M101.384,40.192L101.384,40.192l1.705,13.006h0.214l-1.706-13.006v-0.106v0.106v-0.106L101.384,40.192z"/>
<path d="M96.373,28.251L96.373,28.251l5.011,11.94l0.213-0.106l-5.011-11.94v-0.106v0.106v-0.106l0,0L96.373,28.251z"/>
<path d="M88.485,17.804L88.485,17.804l7.889,10.447l0.213-0.213l-7.889-10.341l-0.106-0.106l0.106,0.106v-0.106h-0.106
	L88.485,17.804z"/>
<path d="M78.144,9.915L78.144,9.915l10.341,7.889l0.106-0.213L78.357,9.702H78.25h0.106l0,0H78.25L78.144,9.915z"/>
<path d="M66.097,4.905L66.097,4.905l12.047,5.011l0.106-0.213L66.203,4.692h-0.106h0.106h-0.106V4.905z"/>
<path d="M53.091,3.198L53.091,3.198l13.006,1.706V4.692L53.091,2.986l0,0l0,0l0,0l0,0V3.198z"/>
<path d="M40.191,4.905L40.191,4.905l12.9-1.706V2.986l-12.9,1.706h-0.106h0.106h-0.106L40.191,4.905z"/>
<path d="M28.251,9.915L28.251,9.915l11.939-5.011l-0.106-0.213L28.145,9.702h-0.107h0.107h-0.107l0,0L28.251,9.915z"/>
<path d="M17.804,17.804L17.804,17.804l10.447-7.889l-0.214-0.213l-10.341,7.889l-0.106,0.106l0.106-0.106H17.59v0.106L17.804,17.804
	z"/>
<path d="M9.808,28.251L9.808,28.251l7.996-10.447l-0.214-0.106L9.595,28.038v0.106v-0.106l0,0v0.106L9.808,28.251z"/>
<path d="M4.904,40.192L4.904,40.192l4.904-11.94l-0.213-0.106l-4.904,11.94v0.106v-0.106v0.106H4.904z"/>
<path d="M3.198,53.198L3.198,53.198l1.705-13.006H4.691L2.985,53.198l0,0l0,0l0,0l0,0H3.198z"/>
<path d="M4.904,66.204L4.904,66.204L3.198,53.198H2.985l1.706,13.007v0.106v-0.106v0.106L4.904,66.204z"/>
<path d="M9.808,78.144L9.808,78.144L4.904,66.204l-0.213,0.106L9.595,78.25v0.107V78.25v0.107l0,0L9.808,78.144z"/>
<path d="M17.804,88.592L17.804,88.592L9.808,78.144l-0.213,0.214l7.995,10.341l0.106,0.106l-0.106-0.106v0.106h0.106L17.804,88.592z
	"/>
<path d="M28.251,96.481L28.251,96.481l-10.447-7.889l-0.107,0.213l10.341,7.889h0.107h-0.107l0,0h0.107L28.251,96.481z"/>
<path d="M40.191,101.491L40.191,101.491l-11.939-5.011l-0.106,0.213l11.939,5.011h0.106h-0.106h0.106V101.491z"/>
<path d="M53.091,103.197L53.091,103.197l-12.9-1.705v0.213l12.9,1.706l0,0l0,0l0,0l0,0V103.197z"/>
<path d="M66.097,101.491L66.097,101.491l-13.006,1.705v0.214l13.006-1.706h0.106h-0.106h0.106L66.097,101.491z"/>
<path d="M78.144,96.481L78.144,96.481l-12.047,5.011l0.106,0.213l12.047-5.011h0.106H78.25h0.106l0,0L78.144,96.481z"/>
<path d="M88.485,88.592L88.485,88.592l-10.341,7.889l0.213,0.213l10.234-7.889l0.106-0.106l-0.106,0.106h0.106v-0.106L88.485,88.592
	z"/>
<path d="M96.373,78.144L96.373,78.144l-7.889,10.448l0.213,0.106l7.889-10.341V78.25v0.107l0,0V78.25L96.373,78.144z"/>
<path d="M101.384,66.204L101.384,66.204l-5.011,11.939l0.213,0.106l5.011-11.939v-0.106v0.106v-0.106H101.384z"/>
<path d="M103.089,53.198L103.089,53.198l-1.705,13.007h0.213l1.706-13.007l0,0l0,0l0,0l0,0H103.089z"/>
<path fill="#E5E5E5" stroke="#000000" stroke-width="2" d="M33.902,9.489L9.381,33.902l-0.746,2.452v33.901l0.746,2.238
	l24.521,24.521l2.238,0.746h33.901l2.346-0.746l24.52-24.521l0.533-2.238V36.354l-0.533-2.452L72.387,9.489l-2.346-0.64H36.14
	L33.902,9.489z"/>
<circle fill="#7F7F7F" stroke="#000000" stroke-width="2" cx="53.091" cy="53.198" r="41.791"/>
<path fill="#B2B2B2" stroke="#000000" stroke-width="2" d="M59.061,5.865v8.848l8.315,2.239l7.676,4.051l6.503,5.544l5.117,7.036
	l3.625,7.782l1.599,8.422l-0.213,8.742l-2.133,8.315l-3.838,7.568l-5.33,6.61l-6.823,5.437l-7.889,3.519l-8.315,2.025h-8.422
	l-8.528-2.025l-7.782-3.519l-6.717-5.437l-5.33-6.61l-3.838-7.568l-2.239-8.315l-0.213-8.742l1.706-8.422l3.518-7.782l5.224-7.036
	l6.396-5.544l7.782-4.051l8.209-2.239V5.865H59.061z"/>
<circle fill="#7F7F7F" cx="53.091" cy="53.198" r="33.368"/>
<circle fill="#B2B2B2" cx="53.091" cy="53.198" r="31.769"/>
<circle stroke="#000000" stroke-width="2" cx="53.091" cy="53.198" r="28.891"/>
<circle fill="#FFFF00" stroke="#000000" stroke-width="2" cx="53.091" cy="53.198" r="25.799"/>
</svg>
