<?xml version="1.0" encoding="UTF-8"?>
<!DOCTYPE svg PUBLIC "-//W3C//DTD SVG 1.1//EN" "http://www.w3.org/Graphics/SVG/1.1/DTD/svg11.dtd">
<svg xmlns="http://www.w3.org/2000/svg" version="1.1" width="779px" height="479px" style="shape-rendering:geometricPrecision; text-rendering:geometricPrecision; image-rendering:optimizeQuality; fill-rule:evenodd; clip-rule:evenodd" xmlns:xlink="http://www.w3.org/1999/xlink">
<g><path style="opacity:0.395" fill="#28d9e1" d="M 7.5,-0.5 C 36.5,-0.5 65.5,-0.5 94.5,-0.5C 95.242,1.9798 96.242,4.31314 97.5,6.5C 68.1855,8.49213 38.5188,9.15879 8.5,8.5C 8.5,38.1667 8.5,67.8333 8.5,97.5C 6.18379,96.1944 3.85045,94.8611 1.5,93.5C 0.333465,64.5057 0.166799,35.5057 1,6.5C 2.01828,2.98529 4.18495,0.651961 7.5,-0.5 Z"/></g>
<g><path style="opacity:0.366" fill="#28d9e1" d="M 96.5,-0.5 C 101.167,-0.5 105.833,-0.5 110.5,-0.5C 112.42,2.33883 114.087,5.33883 115.5,8.5C 110.5,8.5 105.5,8.5 100.5,8.5C 98.9091,5.6484 97.5758,2.6484 96.5,-0.5 Z"/></g>
<g><path style="opacity:0.369" fill="#28d9e1" d="M 112.5,-0.5 C 116.833,-0.5 121.167,-0.5 125.5,-0.5C 126.913,2.66117 128.58,5.66117 130.5,8.5C 126.167,8.5 121.833,8.5 117.5,8.5C 115.58,5.66117 113.913,2.66117 112.5,-0.5 Z"/></g>
<g><path style="opacity:0.371" fill="#28d9e1" d="M 653.5,-0.5 C 657.833,-0.5 662.167,-0.5 666.5,-0.5C 664.58,2.33883 662.913,5.33883 661.5,8.5C 657.167,8.5 652.833,8.5 648.5,8.5C 650.42,5.66117 652.087,2.66117 653.5,-0.5 Z"/></g>
<g><path style="opacity:0.369" fill="#28d9e1" d="M 668.5,-0.5 C 673.167,-0.5 677.833,-0.5 682.5,-0.5C 681.424,2.6484 680.091,5.6484 678.5,8.5C 673.5,8.5 668.5,8.5 663.5,8.5C 664.913,5.33883 666.58,2.33883 668.5,-0.5 Z"/></g>
<g><path style="opacity:0.396" fill="#28d9e1" d="M 684.5,-0.5 C 713.5,-0.5 742.5,-0.5 771.5,-0.5C 774.833,0.833333 777.167,3.16667 778.5,6.5C 778.5,35.5 778.5,64.5 778.5,93.5C 775.5,94.8333 772.5,96.1667 769.5,97.5C 769.5,67.8333 769.5,38.1667 769.5,8.5C 739.814,9.1587 710.481,8.49203 681.5,6.5C 682.758,4.31314 683.758,1.9798 684.5,-0.5 Z"/></g>
<g><path style="opacity:0.059" fill="#22dddc" d="M 129.5,2.5 C 130.833,3.16667 130.833,3.16667 129.5,2.5 Z"/></g>
<g><path style="opacity:0.771" fill="#27dadf" d="M 97.5,6.5 C 98.2223,7.55114 99.2223,8.21781 100.5,8.5C 105.5,8.5 110.5,8.5 115.5,8.5C 116.167,8.5 116.833,8.5 117.5,8.5C 121.833,8.5 126.167,8.5 130.5,8.5C 161.167,8.5 191.833,8.5 222.5,8.5C 222.5,8.83333 222.5,9.16667 222.5,9.5C 151.5,9.5 80.5,9.5 9.5,9.5C 9.83174,45.3372 9.49841,81.0039 8.5,116.5C 7.83333,116.5 7.5,116.167 7.5,115.5C 8.50633,115.062 8.50633,114.396 7.5,113.5C 8.48612,109.03 8.81946,104.363 8.5,99.5C 8.5,98.8333 8.5,98.1667 8.5,97.5C 8.5,67.8333 8.5,38.1667 8.5,8.5C 38.5188,9.15879 68.1855,8.49213 97.5,6.5 Z"/></g>
<g><path style="opacity:0.177" fill="#26d7e1" d="M 222.5,9.5 C 222.5,9.16667 222.5,8.83333 222.5,8.5C 333.167,8.5 443.833,8.5 554.5,8.5C 554.5,8.83333 554.5,9.16667 554.5,9.5C 549.621,11.5498 545.121,14.2164 541,17.5C 540.617,16.944 540.117,16.6107 539.5,16.5C 438.982,16.87 338.315,16.87 237.5,16.5C 236.883,16.6107 236.383,16.944 236,17.5C 231.899,14.2485 227.399,11.5819 222.5,9.5 Z"/></g>
<g><path style="opacity:0.807" fill="#27dadf" d="M 681.5,6.5 C 710.481,8.49203 739.814,9.1587 769.5,8.5C 769.5,38.1667 769.5,67.8333 769.5,97.5C 769.328,98.4916 769.662,99.1583 770.5,99.5C 769.555,104.405 769.221,109.405 769.5,114.5C 769.5,115.167 769.5,115.833 769.5,116.5C 769.5,120.833 769.5,125.167 769.5,129.5C 769.5,202.5 769.5,275.5 769.5,348.5C 769.231,352.931 769.564,357.265 770.5,361.5C 769.494,361.938 769.494,362.604 770.5,363.5C 769.514,367.97 769.181,372.637 769.5,377.5C 769.5,378.167 769.5,378.833 769.5,379.5C 769.833,409.907 769.499,439.574 768.5,468.5C 768.49,315.655 768.49,162.655 768.5,9.5C 697.167,9.5 625.833,9.5 554.5,9.5C 554.5,9.16667 554.5,8.83333 554.5,8.5C 585.833,8.5 617.167,8.5 648.5,8.5C 652.833,8.5 657.167,8.5 661.5,8.5C 662.167,8.5 662.833,8.5 663.5,8.5C 668.5,8.5 673.5,8.5 678.5,8.5C 679.778,8.21781 680.778,7.55114 681.5,6.5 Z"/></g>
<g><path style="opacity:0.957" fill="#29dae0" d="M 222.5,9.5 C 227.399,11.5819 231.899,14.2485 236,17.5C 236.383,16.944 236.883,16.6107 237.5,16.5C 241.061,19.5325 245.061,22.0325 249.5,24C 261.495,24.4999 273.495,24.6665 285.5,24.5C 274.833,25.1667 264.167,25.8333 253.5,26.5C 248.156,26.334 242.823,26.5006 237.5,27C 235.308,27.926 233.308,29.0927 231.5,30.5C 231.5,29.8333 231.167,29.5 230.5,29.5C 231.574,28.1154 232.907,26.9487 234.5,26C 229.833,23.3333 225.167,20.6667 220.5,18C 153.167,17.5 85.8342,17.3333 18.5,17.5C 18.5,165.167 18.5,312.833 18.5,460.5C 85.5008,460.667 152.501,460.5 219.5,460C 223.5,457.667 227.5,455.333 231.5,453C 228.996,452.302 226.663,451.469 224.5,450.5C 224.5,450.167 224.5,449.833 224.5,449.5C 232.716,451.118 241.05,451.952 249.5,452C 269.481,452.186 288.815,452.353 307.5,452.5C 307.5,452.833 307.5,453.167 307.5,453.5C 287.53,453.565 267.53,453.732 247.5,454C 243.991,456.03 240.658,458.196 237.5,460.5C 232.44,462.355 227.44,465.021 222.5,468.5C 191.598,469.174 160.598,469.841 129.5,470.5C 129.631,469.761 129.464,469.094 129,468.5C 126.333,468.5 123.667,468.5 121,468.5C 119.887,469.305 118.721,469.972 117.5,470.5C 117.5,470.167 117.5,469.833 117.5,469.5C 81.1407,469.618 45.1407,469.451 9.5,469C 8.50463,439.574 8.1713,410.074 8.5,380.5C 8.5,379.833 8.5,379.167 8.5,378.5C 8.5,373.5 8.5,368.5 8.5,363.5C 8.5,362.833 8.5,362.167 8.5,361.5C 8.5,357.167 8.5,352.833 8.5,348.5C 9.15866,274.62 8.49199,200.953 6.5,127.5C 8.41365,124.316 9.08031,120.649 8.5,116.5C 9.49841,81.0039 9.83174,45.3372 9.5,9.5C 80.5,9.5 151.5,9.5 222.5,9.5 Z"/></g>
<g><path style="opacity:0.999" fill="#29dae0" d="M 554.5,9.5 C 625.833,9.5 697.167,9.5 768.5,9.5C 768.49,162.655 768.49,315.655 768.5,468.5C 739.167,468.833 709.833,469.167 680.5,469.5C 670.855,469.467 661.022,469.133 651,468.5C 650.283,469.044 649.783,469.711 649.5,470.5C 617.402,469.84 585.402,469.174 553.5,468.5C 549.698,465.196 545.031,462.196 539.5,459.5C 535.886,457.693 532.22,455.86 528.5,454C 492.835,453.5 457.168,453.333 421.5,453.5C 462.5,452.833 503.5,452.167 544.5,451.5C 548.261,451.352 551.761,450.352 555,448.5C 555.831,442.141 555.664,435.807 554.5,429.5C 549.681,427.603 544.681,426.603 539.5,426.5C 539.842,425.662 540.508,425.328 541.5,425.5C 558.101,424.808 563.601,432.475 558,448.5C 554.238,450.977 550.071,452.477 545.5,453C 549.5,455.333 553.5,457.667 557.5,460C 625.166,460.5 692.833,460.667 760.5,460.5C 760.5,312.833 760.5,165.167 760.5,17.5C 691.751,17.0068 623.084,17.5068 554.5,19C 550.664,21.0836 546.997,23.417 543.5,26C 550.149,29.3141 554.649,34.4808 557,41.5C 557.667,67.1667 557.667,92.8333 557,118.5C 556.626,120.491 555.793,122.158 554.5,123.5C 554.5,122.833 554.5,122.167 554.5,121.5C 554.995,119.518 555.495,117.518 556,115.5C 556.667,91.8333 556.667,68.1667 556,44.5C 552.6,32.5896 544.767,26.5896 532.5,26.5C 523.833,25.8333 515.167,25.1667 506.5,24.5C 513.508,24.6663 520.508,24.4996 527.5,24C 531.732,21.7254 535.732,19.2254 539.5,16.5C 540.117,16.6107 540.617,16.944 541,17.5C 545.121,14.2164 549.621,11.5498 554.5,9.5 Z"/></g>
<g><path style="opacity:0.882" fill="#27dadf" d="M 42.5,22.5 C 46.6321,25.1324 50.2987,28.299 53.5,32C 50.6992,35.9684 47.3659,39.4684 43.5,42.5C 42.4173,41.635 42.2506,40.635 43,39.5C 45.5402,37.2953 47.7068,34.7953 49.5,32C 46.3603,29.772 43.6936,27.1053 41.5,24C 42.056,23.6174 42.3893,23.1174 42.5,22.5 Z"/></g>
<g><path style="opacity:0.862" fill="#27dadf" d="M 66.5,22.5 C 70.7504,25.0786 74.417,28.4119 77.5,32.5C 74.5,36.1667 71.1667,39.5 67.5,42.5C 66.3861,41.277 66.2195,39.9437 67,38.5C 69.1667,36.3333 71.3333,34.1667 73.5,32C 70.7047,30.2068 68.2047,28.0402 66,25.5C 65.5304,24.4232 65.6971,23.4232 66.5,22.5 Z"/></g>
<g><path style="opacity:0.852" fill="#27dadf" d="M 78.5,22.5 C 82.7504,25.0786 86.417,28.4119 89.5,32.5C 86.5,36.1667 83.1667,39.5 79.5,42.5C 78.3861,41.277 78.2195,39.9437 79,38.5C 81.1667,36.3333 83.3333,34.1667 85.5,32C 82.7047,30.2068 80.2047,28.0402 78,25.5C 77.5304,24.4232 77.6971,23.4232 78.5,22.5 Z"/></g>
<g><path style="opacity:0.86" fill="#27d9df" d="M 101.5,22.5 C 106.15,24.6286 110.15,27.7952 113.5,32C 110.687,35.9805 107.353,39.4805 103.5,42.5C 102.5,42.1667 101.833,41.5 101.5,40.5C 103.833,37.8333 106.167,35.1667 108.5,32.5C 106.517,30.0163 104.35,27.6829 102,25.5C 101.517,24.552 101.351,23.552 101.5,22.5 Z"/></g>
<g><path style="opacity:0.849" fill="#27dadf" d="M 112.5,22.5 C 117.33,24.6487 121.33,27.982 124.5,32.5C 121.5,36.1667 118.167,39.5 114.5,42.5C 113.386,41.277 113.219,39.9437 114,38.5C 116.167,36.3333 118.333,34.1667 120.5,32C 116.492,29.8366 113.826,26.6699 112.5,22.5 Z"/></g>
<g><path style="opacity:0.86" fill="#27d9df" d="M 125.5,22.5 C 129.771,25.1009 133.437,28.4342 136.5,32.5C 133.5,36.1667 130.167,39.5 126.5,42.5C 125.692,42.1924 125.025,41.6924 124.5,41C 126.644,38.0211 128.978,35.1878 131.5,32.5C 129.517,30.0163 127.35,27.6829 125,25.5C 124.53,24.4232 124.697,23.4232 125.5,22.5 Z"/></g>
<g><path style="opacity:0.859" fill="#26d9df" d="M 136.5,22.5 C 141.15,24.6286 145.15,27.7952 148.5,32C 145.687,35.9805 142.353,39.4805 138.5,42.5C 137.5,42.1667 136.833,41.5 136.5,40.5C 138.833,37.8333 141.167,35.1667 143.5,32.5C 141.517,30.0163 139.35,27.6829 137,25.5C 136.517,24.552 136.351,23.552 136.5,22.5 Z"/></g>
<g><path style="opacity:0.861" fill="#27d9e0" d="M 148.5,22.5 C 153.15,24.6286 157.15,27.7952 160.5,32C 157.687,35.9805 154.353,39.4805 150.5,42.5C 149.5,42.1667 148.833,41.5 148.5,40.5C 150.833,37.8333 153.167,35.1667 155.5,32.5C 153.517,30.0163 151.35,27.6829 149,25.5C 148.517,24.552 148.351,23.552 148.5,22.5 Z"/></g>
<g><path style="opacity:0.852" fill="#27d9df" d="M 160.5,22.5 C 162.932,23.7502 165.266,25.2502 167.5,27C 169.448,28.439 170.781,30.2723 171.5,32.5C 169.242,36.4282 166.242,39.7615 162.5,42.5C 161.5,42.1667 160.833,41.5 160.5,40.5C 162.833,37.8333 165.167,35.1667 167.5,32.5C 165.517,30.0163 163.35,27.6829 161,25.5C 160.517,24.552 160.351,23.552 160.5,22.5 Z"/></g>
<g><path style="opacity:0.845" fill="#27dadf" d="M 172.5,22.5 C 177.221,24.3842 180.888,27.5508 183.5,32C 181.075,35.9301 178.075,39.4301 174.5,42.5C 173.5,42.1667 172.833,41.5 172.5,40.5C 174.833,37.8333 177.167,35.1667 179.5,32.5C 177.517,30.0163 175.35,27.6829 173,25.5C 172.517,24.552 172.351,23.552 172.5,22.5 Z"/></g>
<g><path style="opacity:0.851" fill="#27d9df" d="M 595.5,22.5 C 600.428,24.4272 604.095,27.7605 606.5,32.5C 604.242,36.4282 601.242,39.7615 597.5,42.5C 596.5,42.1667 595.833,41.5 595.5,40.5C 597.833,37.8333 600.167,35.1667 602.5,32.5C 600.517,30.0163 598.35,27.6829 596,25.5C 595.517,24.552 595.351,23.552 595.5,22.5 Z"/></g>
<g><path style="opacity:0.852" fill="#27dadf" d="M 607.5,22.5 C 610.603,24.4233 613.603,26.59 616.5,29C 617.804,29.804 618.471,30.9707 618.5,32.5C 616.062,37.2756 612.395,40.6089 607.5,42.5C 607.351,41.448 607.517,40.448 608,39.5C 610.35,37.3171 612.517,34.9837 614.5,32.5C 612.833,30.1667 610.833,28.1667 608.5,26.5C 607.571,25.3112 607.238,23.9778 607.5,22.5 Z"/></g>
<g><path style="opacity:0.886" fill="#28dadf" d="M 619.5,22.5 C 624.221,24.3842 627.888,27.5508 630.5,32C 627.716,35.787 624.549,39.287 621,42.5C 619.77,41.7248 619.437,40.7248 620,39.5C 622.54,37.2953 624.707,34.7953 626.5,32C 623.112,29.4687 620.779,26.302 619.5,22.5 Z"/></g>
<g><path style="opacity:0.854" fill="#27dadf" d="M 631.5,22.5 C 634.268,24.0872 636.935,25.9205 639.5,28C 640.899,29.0616 641.899,30.395 642.5,32C 640.029,36.1375 636.862,39.6375 633,42.5C 631.77,41.7248 631.437,40.7248 632,39.5C 634.35,37.3171 636.517,34.9837 638.5,32.5C 636.833,30.1667 634.833,28.1667 632.5,26.5C 631.754,25.2638 631.421,23.9305 631.5,22.5 Z"/></g>
<g><path style="opacity:0.878" fill="#27dadf" d="M 643.5,22.5 C 647.75,25.0786 651.417,28.4119 654.5,32.5C 651.446,36.2209 648.112,39.5542 644.5,42.5C 643.417,41.635 643.251,40.635 644,39.5C 646.54,37.2953 648.707,34.7953 650.5,32C 647.705,30.2068 645.205,28.0402 643,25.5C 642.53,24.4232 642.697,23.4232 643.5,22.5 Z"/></g>
<g><path style="opacity:0.847" fill="#27dadf" d="M 655.5,22.5 C 659.632,25.1324 663.299,28.299 666.5,32C 663.699,35.9684 660.366,39.4684 656.5,42.5C 655.386,41.277 655.219,39.9437 656,38.5C 658.167,36.3333 660.333,34.1667 662.5,32C 660,29.8333 657.5,27.6667 655,25.5C 654.53,24.4232 654.697,23.4232 655.5,22.5 Z"/></g>
<g><path style="opacity:0.868" fill="#27dadf" d="M 666.5,22.5 C 669.268,24.0872 671.935,25.9205 674.5,28C 675.899,29.0616 676.899,30.395 677.5,32C 674.721,36.0857 671.387,39.5857 667.5,42.5C 666.417,41.635 666.251,40.635 667,39.5C 669.35,37.3171 671.517,34.9837 673.5,32.5C 671.833,30.1667 669.833,28.1667 667.5,26.5C 666.571,25.3112 666.238,23.9778 666.5,22.5 Z"/></g>
<g><path style="opacity:0.874" fill="#27dadf" d="M 678.5,22.5 C 682.75,25.0786 686.417,28.4119 689.5,32.5C 686.376,36.6334 682.709,39.9668 678.5,42.5C 679.779,38.698 682.112,35.5313 685.5,33C 683.027,30.527 680.527,28.027 678,25.5C 677.53,24.4232 677.697,23.4232 678.5,22.5 Z"/></g>
<g><path style="opacity:0.85" fill="#27dadf" d="M 690.5,22.5 C 694.632,25.1324 698.299,28.299 701.5,32C 698.699,35.9684 695.366,39.4684 691.5,42.5C 690.386,41.277 690.219,39.9437 691,38.5C 693.167,36.3333 695.333,34.1667 697.5,32C 695,29.8333 692.5,27.6667 690,25.5C 689.53,24.4232 689.697,23.4232 690.5,22.5 Z"/></g>
<g><path style="opacity:0.846" fill="#27dadf" d="M 702.5,22.5 C 706.75,25.0786 710.417,28.4119 713.5,32.5C 710.5,36.1667 707.167,39.5 703.5,42.5C 702.417,41.635 702.251,40.635 703,39.5C 704.793,36.7047 706.96,34.2047 709.5,32C 706.705,30.2068 704.205,28.0402 702,25.5C 701.53,24.4232 701.697,23.4232 702.5,22.5 Z"/></g>
<g><path style="opacity:0.853" fill="#27dadf" d="M 714.5,22.5 C 718.75,25.0786 722.417,28.4119 725.5,32.5C 722.5,36.1667 719.167,39.5 715.5,42.5C 714.692,42.1924 714.025,41.6924 713.5,41C 715.644,38.0211 717.978,35.1878 720.5,32.5C 718.517,30.0163 716.35,27.6829 714,25.5C 713.53,24.4232 713.697,23.4232 714.5,22.5 Z"/></g>
<g><path style="opacity:0.849" fill="#27d9df" d="M 725.5,22.5 C 730.33,24.6487 734.33,27.982 737.5,32.5C 734.5,36.1667 731.167,39.5 727.5,42.5C 726.692,42.1924 726.025,41.6924 725.5,41C 727.795,37.7026 730.462,34.7026 733.5,32C 729.492,29.8366 726.826,26.6699 725.5,22.5 Z"/></g>
<g><path style="opacity:0.867" fill="#27dadf" d="M 54.5,22.5 C 58.7504,25.0786 62.417,28.4119 65.5,32.5C 62.5,36.1667 59.1667,39.5 55.5,42.5C 54.4173,41.635 54.2506,40.635 55,39.5C 57.1667,37.3333 59.3333,35.1667 61.5,33C 59,30.5 56.5,28 54,25.5C 53.5304,24.4232 53.6971,23.4232 54.5,22.5 Z"/></g>
<g><path style="opacity:0.631" fill="#27dade" d="M 285.5,24.5 C 359.166,25.7642 432.833,25.7642 506.5,24.5C 515.167,25.1667 523.833,25.8333 532.5,26.5C 439.5,26.5 346.5,26.5 253.5,26.5C 264.167,25.8333 274.833,25.1667 285.5,24.5 Z"/></g>
<g><path style="opacity:0.86" fill="#27dadf" d="M 90.5,22.5 C 94.7706,25.1009 98.4372,28.4342 101.5,32.5C 98.5,36.1667 95.1667,39.5 91.5,42.5C 90.6919,42.1924 90.0253,41.6924 89.5,41C 91.6445,38.0211 93.9778,35.1878 96.5,32.5C 94.517,30.0163 92.3504,27.6829 90,25.5C 89.5304,24.4232 89.6971,23.4232 90.5,22.5 Z"/></g>
<g><path style="opacity:0.407" fill="#28d9e1" d="M 259.5,38.5 C 345.999,37.3343 432.666,37.1676 519.5,38C 520.056,38.3826 520.389,38.8826 520.5,39.5C 433.541,38.5053 346.541,38.172 259.5,38.5 Z"/></g>
<g><path style="opacity:0.502" fill="#28dadf" d="M 259.5,38.5 C 346.541,38.172 433.541,38.5053 520.5,39.5C 524.645,42.1463 527.479,45.8129 529,50.5C 529.236,67.5982 529.736,84.4315 530.5,101C 530.427,110.48 526.427,117.813 518.5,123C 475.5,123.167 432.5,123.333 389.5,123.5C 345.751,123.662 302.084,123.162 258.5,122C 254.213,118.71 251.047,114.543 249,109.5C 248.333,89.8333 248.333,70.1667 249,50.5C 250.957,45.0496 254.457,41.0496 259.5,38.5 Z"/></g>
<g><path style="opacity:0.96" fill="#29dae0" d="M 236.5,39.5 C 243.953,42.5232 244.286,46.1899 237.5,50.5C 231.251,47.2777 230.918,43.611 236.5,39.5 Z"/></g>
<g><path style="opacity:0.96" fill="#29dae0" d="M 540.5,39.5 C 547.953,42.5232 548.286,46.1899 541.5,50.5C 535.251,47.2777 534.918,43.611 540.5,39.5 Z"/></g>
<g><path style="opacity:0.631" fill="#29dadf" d="M 33.5,129.5 C 32.8333,151.5 32.1667,173.5 31.5,195.5C 31.1667,150.828 31.5001,106.162 32.5,61.5C 33.4997,84.1569 33.833,106.824 33.5,129.5 Z"/></g>
<g><path style="opacity:0.631" fill="#28d9e0" d="M 749.5,61.5 C 750.833,81.4889 751.5,101.822 751.5,122.5C 750.171,192 750.171,261.5 751.5,331C 751.662,351.979 751.162,372.813 750,393.5C 749.5,282.834 749.333,172.167 749.5,61.5 Z"/></g>
<g><path style="opacity:0.369" fill="#28d9e0" d="M 8.5,99.5 C 8.81946,104.363 8.48612,109.03 7.5,113.5C 4.02026,112.443 1.3536,110.443 -0.5,107.5C -0.5,107.167 -0.5,106.833 -0.5,106.5C 0.833333,105.5 0.833333,104.5 -0.5,103.5C -0.5,103.167 -0.5,102.833 -0.5,102.5C 0.165283,100.302 0.831949,97.9688 1.5,95.5C 4.02366,96.5923 6.35699,97.9257 8.5,99.5 Z"/></g>
<g><path style="opacity:0.372" fill="#28d9e1" d="M 778.5,95.5 C 778.5,100.167 778.5,104.833 778.5,109.5C 775.634,111.432 772.634,113.099 769.5,114.5C 769.221,109.405 769.555,104.405 770.5,99.5C 772.883,97.6418 775.55,96.3084 778.5,95.5 Z"/></g>
<g><path style="opacity:0.96" fill="#29dae0" d="M 236.5,110.5 C 243.953,113.523 244.286,117.19 237.5,121.5C 231.251,118.278 230.918,114.611 236.5,110.5 Z"/></g>
<g><path style="opacity:0.96" fill="#29dae0" d="M 540.5,110.5 C 547.953,113.523 548.286,117.19 541.5,121.5C 535.251,118.278 534.918,114.611 540.5,110.5 Z"/></g>
<g><path style="opacity:0.368" fill="#28d9e1" d="M 7.5,115.5 C 7.5,116.167 7.83333,116.5 8.5,116.5C 9.08031,120.649 8.41365,124.316 6.5,127.5C 4.57424,126.758 2.74091,125.758 1,124.5C 0.333333,120.167 0.333333,115.833 1,111.5C 3.05188,113.058 5.21855,114.392 7.5,115.5 Z"/></g>
<g><path style="opacity:0.367" fill="#28d9e1" d="M 778.5,111.5 C 778.5,115.833 778.5,120.167 778.5,124.5C 775.661,126.42 772.661,128.087 769.5,129.5C 769.5,125.167 769.5,120.833 769.5,116.5C 772.661,115.087 775.661,113.42 778.5,111.5 Z"/></g>
<g><path style="opacity:0.314" fill="#29dae1" d="M 33.5,129.5 C 33.5,194.167 33.5,258.833 33.5,323.5C 32.8333,301.5 32.1667,279.5 31.5,257.5C 31.5,236.833 31.5,216.167 31.5,195.5C 32.1667,173.5 32.8333,151.5 33.5,129.5 Z"/></g>
<g><path style="opacity:0.502" fill="#28dae0" d="M 230.5,29.5 C 231.167,29.5 231.5,29.8333 231.5,30.5C 227.461,33.5538 224.627,37.5538 223,42.5C 222.333,67.5 222.333,92.5 223,117.5C 225.408,124.909 230.242,130.076 237.5,133C 338.833,133.667 440.167,133.667 541.5,133C 546.647,130.016 550.98,126.182 554.5,121.5C 554.5,122.167 554.5,122.833 554.5,123.5C 551.601,128.896 547.267,132.73 541.5,135C 521.927,135.173 502.427,135.673 483,136.5C 476.256,135.521 469.422,135.188 462.5,135.5C 460.167,134.167 457.833,134.167 455.5,135.5C 400.78,135.307 346.613,135.641 293,136.5C 274.24,135.673 255.407,135.173 236.5,135C 227.892,130.73 222.725,123.897 221,114.5C 220.333,91.8333 220.333,69.1667 221,46.5C 221.585,39.3246 224.752,33.658 230.5,29.5 Z"/></g>
<g><path style="opacity:0.176" fill="#26d7e1" d="M 455.5,135.5 C 457.833,134.167 460.167,134.167 462.5,135.5C 460.167,136.833 457.833,136.833 455.5,135.5 Z"/></g>
<g><path style="opacity:0.631" fill="#28dade" d="M 31.5,257.5 C 32.1667,279.5 32.8333,301.5 33.5,323.5C 33.8331,346.843 33.4997,370.176 32.5,393.5C 31.5001,348.172 31.1667,302.838 31.5,257.5 Z"/></g>
<g><path style="opacity:0.362" fill="#28d9e1" d="M 8.5,348.5 C 8.5,352.833 8.5,357.167 8.5,361.5C 6.35699,363.074 4.02366,364.408 1.5,365.5C -1.42464,357.303 0.90869,351.637 8.5,348.5 Z"/></g>
<g><path style="opacity:0.368" fill="#28d9e1" d="M 769.5,348.5 C 772.5,349.833 775.5,351.167 778.5,352.5C 778.5,356.833 778.5,361.167 778.5,365.5C 775.55,364.692 772.883,363.358 770.5,361.5C 769.564,357.265 769.231,352.931 769.5,348.5 Z"/></g>
<g><path style="opacity:0.371" fill="#28d9e1" d="M 8.5,363.5 C 8.5,368.5 8.5,373.5 8.5,378.5C 5.94757,379.693 3.44757,381.027 1,382.5C 0.171053,377.467 0.33772,372.467 1.5,367.5C 3.69793,365.902 6.03126,364.569 8.5,363.5 Z"/></g>
<g><path style="opacity:0.377" fill="#28d9e1" d="M 770.5,363.5 C 773.193,364.847 775.86,366.18 778.5,367.5C 778.5,372.5 778.5,377.5 778.5,382.5C 775.366,381.099 772.366,379.432 769.5,377.5C 769.181,372.637 769.514,367.97 770.5,363.5 Z"/></g>
<g><path style="opacity:0.394" fill="#28d9e1" d="M 769.5,379.5 C 772.339,381.42 775.339,383.087 778.5,384.5C 778.5,413.5 778.5,442.5 778.5,471.5C 776.802,476.202 773.469,478.535 768.5,478.5C 768.167,478.5 767.833,478.5 767.5,478.5C 766.833,477.167 766.167,477.167 765.5,478.5C 738.833,478.5 712.167,478.5 685.5,478.5C 683.58,475.661 681.913,472.661 680.5,469.5C 709.833,469.167 739.167,468.833 768.5,468.5C 769.499,439.574 769.833,409.907 769.5,379.5 Z"/></g>
<g><path style="opacity:0.393" fill="#28d9e0" d="M 8.5,380.5 C 8.1713,410.074 8.50463,439.574 9.5,469C 45.1407,469.451 81.1407,469.618 117.5,469.5C 116.504,469.414 115.671,469.748 115,470.5C 113.672,473.312 112.172,475.978 110.5,478.5C 105.833,478.5 101.167,478.5 96.5,478.5C 97.4202,475.492 98.7535,472.659 100.5,470C 100.167,469.833 99.8333,469.667 99.5,469.5C 97.2549,472.32 95.2549,475.32 93.5,478.5C 66.5,478.5 39.5,478.5 12.5,478.5C 11.8333,477.167 11.1667,477.167 10.5,478.5C 10.1667,478.5 9.83333,478.5 9.5,478.5C 5.08202,478.261 2.24868,475.928 1,471.5C 0.333333,442.5 0.333333,413.5 1,384.5C 3.47451,383.014 5.97451,381.681 8.5,380.5 Z"/></g>
<g><path style="opacity:0.631" fill="#26dbde" d="M 541.5,425.5 C 540.508,425.328 539.842,425.662 539.5,426.5C 437.499,426.333 335.499,426.5 233.5,427C 229.715,427.373 226.215,428.539 223,430.5C 221.943,437.114 222.443,443.447 224.5,449.5C 224.5,449.833 224.5,450.167 224.5,450.5C 222.983,450.489 221.816,449.823 221,448.5C 220.333,442.167 220.333,435.833 221,429.5C 225.542,427.155 230.375,425.655 235.5,425C 337.667,424.167 439.667,424.334 541.5,425.5 Z"/></g>
<g><path style="opacity:0.858" fill="#27dadf" d="M 42.5,433.5 C 46.9474,436.113 50.6141,439.613 53.5,444C 50.8561,448.486 47.1894,451.653 42.5,453.5C 42.3505,452.448 42.5172,451.448 43,450.5C 45.3504,448.317 47.517,445.984 49.5,443.5C 46.312,441.146 43.6453,438.312 41.5,435C 42.056,434.617 42.3893,434.117 42.5,433.5 Z"/></g>
<g><path style="opacity:0.847" fill="#27dadf" d="M 54.5,433.5 C 58.7706,436.101 62.4372,439.434 65.5,443.5C 63.0333,448.307 59.3666,451.64 54.5,453.5C 55.7786,449.698 58.1119,446.531 61.5,444C 59,441.5 56.5,439 54,436.5C 53.5304,435.423 53.6971,434.423 54.5,433.5 Z"/></g>
<g><path style="opacity:0.855" fill="#27d9df" d="M 66.5,433.5 C 70.7504,436.079 74.417,439.412 77.5,443.5C 74.5,447.167 71.1667,450.5 67.5,453.5C 66.4173,452.635 66.2506,451.635 67,450.5C 69.5106,448.495 71.3439,445.995 72.5,443C 70.3551,440.855 68.1884,438.688 66,436.5C 65.5304,435.423 65.6971,434.423 66.5,433.5 Z"/></g>
<g><path style="opacity:0.879" fill="#27dadf" d="M 78.5,433.5 C 82.7504,436.079 86.417,439.412 89.5,443.5C 86.5,447.167 83.1667,450.5 79.5,453.5C 78.4173,452.635 78.2506,451.635 79,450.5C 80.8762,448.297 82.7095,446.13 84.5,444C 82.7201,441.216 80.5535,438.716 78,436.5C 77.5304,435.423 77.6971,434.423 78.5,433.5 Z"/></g>
<g><path style="opacity:0.87" fill="#27dadf" d="M 90.5,433.5 C 94.7433,436.135 98.41,439.468 101.5,443.5C 98.5,447.167 95.1667,450.5 91.5,453.5C 90.6919,453.192 90.0253,452.692 89.5,452C 92.0687,449.547 94.402,446.88 96.5,444C 94.7201,441.216 92.5535,438.716 90,436.5C 89.5304,435.423 89.6971,434.423 90.5,433.5 Z"/></g>
<g><path style="opacity:0.866" fill="#27d9df" d="M 102.5,433.5 C 106.57,436.06 110.236,439.227 113.5,443C 110.687,446.981 107.353,450.481 103.5,453.5C 102.692,453.192 102.025,452.692 101.5,452C 103.644,449.021 105.978,446.188 108.5,443.5C 106.517,441.016 104.35,438.683 102,436.5C 101.53,435.423 101.697,434.423 102.5,433.5 Z"/></g>
<g><path style="opacity:0.882" fill="#27d9df" d="M 113.5,433.5 C 117.75,436.079 121.417,439.412 124.5,443.5C 121.5,447.167 118.167,450.5 114.5,453.5C 113.417,452.635 113.251,451.635 114,450.5C 116.024,448.31 117.857,445.977 119.5,443.5C 117.517,441.016 115.35,438.683 113,436.5C 112.53,435.423 112.697,434.423 113.5,433.5 Z"/></g>
<g><path style="opacity:0.863" fill="#27d9e0" d="M 137.5,433.5 C 141.589,436.083 145.256,439.25 148.5,443C 145.687,446.981 142.353,450.481 138.5,453.5C 137.692,453.192 137.025,452.692 136.5,452C 138.644,449.021 140.978,446.188 143.5,443.5C 141.517,441.016 139.35,438.683 137,436.5C 136.53,435.423 136.697,434.423 137.5,433.5 Z"/></g>
<g><path style="opacity:0.852" fill="#27dadf" d="M 149.5,433.5 C 153.771,436.101 157.437,439.434 160.5,443.5C 157.5,447.167 154.167,450.5 150.5,453.5C 149.5,453.167 148.833,452.5 148.5,451.5C 150.833,448.833 153.167,446.167 155.5,443.5C 153.517,441.016 151.35,438.683 149,436.5C 148.53,435.423 148.697,434.423 149.5,433.5 Z"/></g>
<g><path style="opacity:0.86" fill="#27dadf" d="M 161.5,433.5 C 165.173,436.506 168.506,439.839 171.5,443.5C 169.062,448.276 165.395,451.609 160.5,453.5C 160.351,452.448 160.517,451.448 161,450.5C 163.35,448.317 165.517,445.984 167.5,443.5C 165.81,440.976 163.643,438.976 161,437.5C 160.421,436.072 160.588,434.738 161.5,433.5 Z"/></g>
<g><path style="opacity:0.854" fill="#27dadf" d="M 172.5,433.5 C 174.932,434.75 177.266,436.25 179.5,438C 181.448,439.439 182.781,441.272 183.5,443.5C 181.242,447.428 178.242,450.762 174.5,453.5C 173.5,453.167 172.833,452.5 172.5,451.5C 174.833,448.833 177.167,446.167 179.5,443.5C 177.833,441.167 175.833,439.167 173.5,437.5C 172.571,436.311 172.238,434.978 172.5,433.5 Z"/></g>
<g><path style="opacity:0.86" fill="#27d9df" d="M 595.5,433.5 C 597.932,434.75 600.266,436.25 602.5,438C 604.448,439.439 605.781,441.272 606.5,443.5C 604.062,448.276 600.395,451.609 595.5,453.5C 595.351,452.448 595.517,451.448 596,450.5C 598.35,448.317 600.517,445.984 602.5,443.5C 600.833,441.167 598.833,439.167 596.5,437.5C 595.754,436.264 595.421,434.93 595.5,433.5 Z"/></g>
<g><path style="opacity:0.854" fill="#27d9df" d="M 608.5,433.5 C 612.344,436.511 615.678,440.011 618.5,444C 615.856,448.486 612.189,451.653 607.5,453.5C 607.351,452.448 607.517,451.448 608,450.5C 610.35,448.317 612.517,445.984 614.5,443.5C 612.209,441.712 610.043,439.712 608,437.5C 607.421,436.072 607.588,434.738 608.5,433.5 Z"/></g>
<g><path style="opacity:0.841" fill="#27dadf" d="M 619.5,433.5 C 622.603,435.423 625.603,437.59 628.5,440C 629.804,440.804 630.471,441.971 630.5,443.5C 628.062,448.276 624.395,451.609 619.5,453.5C 619.351,452.448 619.517,451.448 620,450.5C 622.35,448.317 624.517,445.984 626.5,443.5C 624.81,440.976 622.643,438.976 620,437.5C 619.51,436.207 619.343,434.873 619.5,433.5 Z"/></g>
<g><path style="opacity:0.862" fill="#27dadf" d="M 631.5,433.5 C 634.938,435.759 638.271,438.259 641.5,441C 642.059,441.725 642.392,442.558 642.5,443.5C 640.062,448.276 636.395,451.609 631.5,453.5C 631.351,452.448 631.517,451.448 632,450.5C 634.35,448.317 636.517,445.984 638.5,443.5C 636.209,441.712 634.043,439.712 632,437.5C 631.51,436.207 631.343,434.873 631.5,433.5 Z"/></g>
<g><path style="opacity:0.85" fill="#27dadf" d="M 643.5,433.5 C 647.968,436.134 651.635,439.634 654.5,444C 651.856,448.486 648.189,451.653 643.5,453.5C 644.779,449.698 647.112,446.531 650.5,444C 648,441.5 645.5,439 643,436.5C 642.53,435.423 642.697,434.423 643.5,433.5 Z"/></g>
<g><path style="opacity:0.87" fill="#27dadf" d="M 655.5,433.5 C 659.75,436.079 663.417,439.412 666.5,443.5C 663.5,447.167 660.167,450.5 656.5,453.5C 655.417,452.635 655.251,451.635 656,450.5C 657.833,448 660,445.833 662.5,444C 660,441.5 657.5,439 655,436.5C 654.53,435.423 654.697,434.423 655.5,433.5 Z"/></g>
<g><path style="opacity:0.857" fill="#27dadf" d="M 666.5,433.5 C 670.776,436.107 674.443,439.441 677.5,443.5C 675.062,448.276 671.395,451.609 666.5,453.5C 666.351,452.448 666.517,451.448 667,450.5C 669.35,448.317 671.517,445.984 673.5,443.5C 671.209,441.712 669.043,439.712 667,437.5C 666.51,436.207 666.343,434.873 666.5,433.5 Z"/></g>
<g><path style="opacity:0.844" fill="#27dadf" d="M 678.5,433.5 C 682.968,436.134 686.635,439.634 689.5,444C 686.856,448.486 683.189,451.653 678.5,453.5C 679.779,449.698 682.112,446.531 685.5,444C 683,441.5 680.5,439 678,436.5C 677.53,435.423 677.697,434.423 678.5,433.5 Z"/></g>
<g><path style="opacity:0.86" fill="#27dadf" d="M 690.5,433.5 C 694.75,436.079 698.417,439.412 701.5,443.5C 698.5,447.167 695.167,450.5 691.5,453.5C 690.417,452.635 690.251,451.635 691,450.5C 693.011,447.99 695.178,445.657 697.5,443.5C 694.849,441.35 692.349,439.017 690,436.5C 689.53,435.423 689.697,434.423 690.5,433.5 Z"/></g>
<g><path style="opacity:0.861" fill="#27d9df" d="M 702.5,433.5 C 706.75,436.079 710.417,439.412 713.5,443.5C 710.376,447.633 706.709,450.967 702.5,453.5C 703.779,449.698 706.112,446.531 709.5,444C 707,441.5 704.5,439 702,436.5C 701.53,435.423 701.697,434.423 702.5,433.5 Z"/></g>
<g><path style="opacity:0.88" fill="#27dadf" d="M 714.5,433.5 C 718.771,436.101 722.437,439.434 725.5,443.5C 722.5,447.167 719.167,450.5 715.5,453.5C 714.692,453.192 714.025,452.692 713.5,452C 716.083,449.462 718.417,446.795 720.5,444C 718.72,441.216 716.553,438.716 714,436.5C 713.53,435.423 713.697,434.423 714.5,433.5 Z"/></g>
<g><path style="opacity:0.86" fill="#27d9df" d="M 726.5,433.5 C 730.75,436.079 734.417,439.412 737.5,443.5C 734.5,447.167 731.167,450.5 727.5,453.5C 726.692,453.192 726.025,452.692 725.5,452C 727.644,449.021 729.978,446.188 732.5,443.5C 730.517,441.016 728.35,438.683 726,436.5C 725.53,435.423 725.697,434.423 726.5,433.5 Z"/></g>
<g><path style="opacity:0.86" fill="#27dadf" d="M 125.5,433.5 C 129.771,436.101 133.437,439.434 136.5,443.5C 133.5,447.167 130.167,450.5 126.5,453.5C 125.692,453.192 125.025,452.692 124.5,452C 127.022,449.312 129.356,446.479 131.5,443.5C 129.517,441.016 127.35,438.683 125,436.5C 124.53,435.423 124.697,434.423 125.5,433.5 Z"/></g>
<g><path style="opacity:0.502" fill="#25dcde" d="M 544.5,451.5 C 503.5,452.167 462.5,452.833 421.5,453.5C 383.5,453.5 345.5,453.5 307.5,453.5C 307.5,453.167 307.5,452.833 307.5,452.5C 380.125,451.937 459.125,451.603 544.5,451.5 Z"/></g>
<g><path style="opacity:0.177" fill="#26d7e1" d="M 539.5,459.5 C 545.031,462.196 549.698,465.196 553.5,468.5C 442.866,469.145 332.532,469.145 222.5,468.5C 227.44,465.021 232.44,462.355 237.5,460.5C 338.335,460.833 439.001,460.499 539.5,459.5 Z"/></g>
<g><path style="opacity:0.39" fill="#28dae0" d="M 129.5,470.5 C 128.167,473.167 126.833,475.833 125.5,478.5C 121.167,478.5 116.833,478.5 112.5,478.5C 113.68,475.46 115.347,472.794 117.5,470.5C 118.721,469.972 119.887,469.305 121,468.5C 123.667,468.5 126.333,468.5 129,468.5C 129.464,469.094 129.631,469.761 129.5,470.5 Z"/></g>
<g><path style="opacity:0.374" fill="#28dae0" d="M 680.5,469.5 C 679.761,469.369 679.094,469.536 678.5,470C 680.246,472.659 681.58,475.492 682.5,478.5C 677.833,478.5 673.167,478.5 668.5,478.5C 666.745,475.32 664.745,472.32 662.5,469.5C 662.167,469.667 661.833,469.833 661.5,470C 663.556,472.614 665.223,475.447 666.5,478.5C 662.167,478.5 657.833,478.5 653.5,478.5C 652.167,475.833 650.833,473.167 649.5,470.5C 649.783,469.711 650.283,469.044 651,468.5C 661.022,469.133 670.855,469.467 680.5,469.5 Z"/></g>
</svg>
