<?xml version="1.0" encoding="UTF-8"?>
<!DOCTYPE svg PUBLIC "-//W3C//DTD SVG 1.1//EN" "http://www.w3.org/Graphics/SVG/1.1/DTD/svg11.dtd">
<svg xmlns="http://www.w3.org/2000/svg" version="1.1" width="1000px" height="302px" style="shape-rendering:geometricPrecision; text-rendering:geometricPrecision; image-rendering:optimizeQuality; fill-rule:evenodd; clip-rule:evenodd" xmlns:xlink="http://www.w3.org/1999/xlink">
<g><path style="opacity:1" fill="#1c1f87" d="M 30.5,-0.5 C 341.5,-0.5 652.5,-0.5 963.5,-0.5C 975.167,11.8333 987.167,23.8333 999.5,35.5C 999.5,112.167 999.5,188.833 999.5,265.5C 989.5,275.167 979.5,284.833 969.5,294.5C 840.793,294.83 712.126,294.496 583.5,293.5C 579.854,291.183 576.52,288.516 573.5,285.5C 572.415,283.413 570.749,282.08 568.5,281.5C 567.738,279.738 566.404,278.738 564.5,278.5C 393.903,277.668 223.236,277.168 52.5,277C 41.2979,265.965 30.2979,254.798 19.5,243.5C 19.6667,205.499 19.5,167.499 19,129.5C 12.9955,122.329 6.49554,115.662 -0.5,109.5C -0.5,84.1667 -0.5,58.8333 -0.5,33.5C 2.90313,31.1002 5.5698,28.1002 7.5,24.5C 10.5481,20.7852 13.8815,17.4518 17.5,14.5C 22.562,10.4407 26.8953,5.77402 30.5,0.5C 30.5,0.166667 30.5,-0.166667 30.5,-0.5 Z M 941.5,268.5 C 646.166,268.667 350.833,268.5 55.5,268C 46,258.5 36.5,249 27,239.5C 26.5,170.834 26.3333,102.167 26.5,33.5C 35.2983,25.2023 43.965,16.7023 52.5,8C 355.5,7.33333 658.5,7.33333 961.5,8C 971.333,17.8333 981.167,27.6667 991,37.5C 991.667,53.1667 991.667,68.8333 991,84.5C 986.667,88.8333 982.333,93.1667 978,97.5C 977.667,142.5 977.333,187.5 977,232.5C 964.965,244.368 953.131,256.368 941.5,268.5 Z"/></g>
<g><path style="opacity:0.428" fill="#1b1c86" d="M 963.5,-0.5 C 964.167,-0.5 964.833,-0.5 965.5,-0.5C 976.5,11.1667 987.833,22.5 999.5,33.5C 999.5,34.1667 999.5,34.8333 999.5,35.5C 987.167,23.8333 975.167,11.8333 963.5,-0.5 Z"/></g>
<g><path style="opacity:0.516" fill="#1a1c86" d="M 30.5,0.5 C 26.8953,5.77402 22.562,10.4407 17.5,14.5C 21.1047,9.22598 25.438,4.55931 30.5,0.5 Z"/></g>
<g><path style="opacity:0.574" fill="#1a1c86" d="M 7.5,24.5 C 5.5698,28.1002 2.90313,31.1002 -0.5,33.5C -0.5,32.8333 -0.5,32.1667 -0.5,31.5C 2.16667,29.1667 4.83333,26.8333 7.5,24.5 Z"/></g>
<g><path style="opacity:0.485" fill="#1a1c85" d="M 26.5,33.5 C 26.3333,102.167 26.5,170.834 27,239.5C 36.5,249 46,258.5 55.5,268C 350.833,268.5 646.166,268.667 941.5,268.5C 794.168,269.833 646.502,270.5 498.5,270.5C 350.833,270.333 203.167,270.167 55.5,270C 45.3333,260.5 35.5,250.667 26,240.5C 25.1679,171.332 25.3345,102.332 26.5,33.5 Z"/></g>
<g><path style="opacity:0.501" fill="#1a1c85" d="M -0.5,109.5 C 6.49554,115.662 12.9955,122.329 19,129.5C 19.5,167.499 19.6667,205.499 19.5,243.5C 18.8826,243.389 18.3826,243.056 18,242.5C 17.6667,204.5 17.3333,166.5 17,128.5C 11.2981,122.63 5.46474,116.964 -0.5,111.5C -0.5,110.833 -0.5,110.167 -0.5,109.5 Z"/></g>
<g><path style="opacity:0.53" fill="#1a1e88" d="M -0.5,124.5 C -0.5,124.167 -0.5,123.833 -0.5,123.5C 1.40435,123.738 2.73769,124.738 3.5,126.5C 2.16698,146.822 1.50031,167.489 1.5,188.5C 1.66667,209.167 1.83333,229.833 2,250.5C 2.71719,251.044 3.21719,251.711 3.5,252.5C 2.5041,252.586 1.67076,252.252 1,251.5C 0.832655,208.998 0.332655,166.665 -0.5,124.5 Z"/></g>
<g><path style="opacity:1" fill="#1c1f88" d="M 3.5,126.5 C 3.97306,127.906 4.97306,128.573 6.5,128.5C 6.97306,129.906 7.97306,130.573 9.5,130.5C 10.1607,168.264 10.8274,205.931 11.5,243.5C 24.8333,256.167 37.8333,269.167 50.5,282.5C 216.999,283.333 383.666,283.833 550.5,284C 556.37,289.702 562.036,295.535 567.5,301.5C 395.833,301.5 224.167,301.5 52.5,301.5C 36.5,284.833 20.1667,268.5 3.5,252.5C 3.21719,251.711 2.71719,251.044 2,250.5C 1.83333,229.833 1.66667,209.167 1.5,188.5C 1.50031,167.489 2.16698,146.822 3.5,126.5 Z"/></g>
<g><path style="opacity:0.417" fill="#1b1d87" d="M 3.5,126.5 C 5.02694,126.427 6.02694,127.094 6.5,128.5C 4.97306,128.573 3.97306,127.906 3.5,126.5 Z"/></g>
<g><path style="opacity:0.459" fill="#1a1c86" d="M 6.5,128.5 C 8.02694,128.427 9.02694,129.094 9.5,130.5C 7.97306,130.573 6.97306,129.906 6.5,128.5 Z"/></g>
<g><path style="opacity:0.285" fill="#1b1c87" d="M 9.5,130.5 C 11.4939,167.819 12.1605,205.485 11.5,243.5C 10.8274,205.931 10.1607,168.264 9.5,130.5 Z"/></g>
<g><path style="opacity:0.427" fill="#1b1c86" d="M 3.5,252.5 C 20.1667,268.5 36.5,284.833 52.5,301.5C 51.8333,301.5 51.1667,301.5 50.5,301.5C 35.2018,285.701 19.7018,270.035 4,254.5C 3.53566,253.906 3.36899,253.239 3.5,252.5 Z"/></g>
<g><path style="opacity:0.447" fill="#1a1c86" d="M 564.5,278.5 C 566.404,278.738 567.738,279.738 568.5,281.5C 566.596,281.262 565.262,280.262 564.5,278.5 Z"/></g>
<g><path style="opacity:0.521" fill="#1a1d86" d="M 568.5,281.5 C 570.749,282.08 572.415,283.413 573.5,285.5C 571.251,284.92 569.585,283.587 568.5,281.5 Z"/></g>
<g><path style="opacity:0.533" fill="#1b1e88" d="M 50.5,282.5 C 217.5,282.333 384.5,282.5 551.5,283C 557.703,289.035 563.703,295.202 569.5,301.5C 568.833,301.5 568.167,301.5 567.5,301.5C 562.036,295.535 556.37,289.702 550.5,284C 383.666,283.833 216.999,283.333 50.5,282.5 Z"/></g>
<g><path style="opacity:0.54" fill="#1b1e88" d="M 583.5,293.5 C 712.126,294.496 840.793,294.83 969.5,294.5C 841.334,295.666 713.001,295.833 584.5,295C 583.944,294.617 583.611,294.117 583.5,293.5 Z"/></g>
</svg>
