<?xml version="1.0" encoding="UTF-8"?>
<!DOCTYPE svg PUBLIC "-//W3C//DTD SVG 1.1//EN" "http://www.w3.org/Graphics/SVG/1.1/DTD/svg11.dtd">
<svg xmlns="http://www.w3.org/2000/svg" version="1.1" width="905px" height="211px" style="shape-rendering:geometricPrecision; text-rendering:geometricPrecision; image-rendering:optimizeQuality; fill-rule:evenodd; clip-rule:evenodd" xmlns:xlink="http://www.w3.org/1999/xlink">
<g><path style="opacity:0.988" fill="#23bff1" d="M 863.5,-0.5 C 864.167,-0.5 864.833,-0.5 865.5,-0.5C 865.651,3.01904 865.318,6.68571 864.5,10.5C 863.761,10.369 863.094,10.5357 862.5,11C 863.517,12.0495 863.684,13.2161 863,14.5C 862.667,13.8333 862.333,13.1667 862,12.5C 861.333,13.8333 860.667,13.8333 860,12.5C 858.666,13.8779 858.499,15.2113 859.5,16.5C 856.351,17.1906 853.517,17.8573 851,18.5C 850.085,17.6721 849.419,16.6721 849,15.5C 847.855,16.6843 846.688,16.6843 845.5,15.5C 848.539,12.4602 851.873,9.79351 855.5,7.5C 854.859,8.48224 854.193,9.48224 853.5,10.5C 855.335,10.2586 857.001,10.7586 858.5,12C 861.279,8.95399 862.779,5.45399 863,1.5C 861.871,3.14117 860.371,4.14117 858.5,4.5C 859.861,2.47266 861.527,0.805998 863.5,-0.5 Z"/></g>
<g><path style="opacity:1" fill="#25cffc" d="M 855.5,7.5 C 856.167,6.16667 857.167,5.16667 858.5,4.5C 860.371,4.14117 861.871,3.14117 863,1.5C 862.779,5.45399 861.279,8.95399 858.5,12C 857.001,10.7586 855.335,10.2586 853.5,10.5C 854.193,9.48224 854.859,8.48224 855.5,7.5 Z"/></g>
<g><path style="opacity:1" fill="#22b2e4" d="M 681.5,10.5 C 683.012,15.5482 684.679,20.5482 686.5,25.5C 683.909,26.2543 682.076,27.921 681,30.5C 680.282,29.5494 679.449,29.3828 678.5,30C 678.421,31.9068 678.754,33.9068 679.5,36C 678.638,38.7344 677.805,38.9011 677,36.5C 676.609,39.943 675.775,43.2763 674.5,46.5C 673.178,46.67 672.011,46.3366 671,45.5C 668.304,47.4488 665.471,49.1154 662.5,50.5C 659.848,50.4095 657.515,51.0762 655.5,52.5C 651.216,53.2613 647.216,54.5947 643.5,56.5C 642.209,56.7373 641.209,56.404 640.5,55.5C 644.426,53.107 648.093,50.4404 651.5,47.5C 655.881,45.3163 659.881,42.6496 663.5,39.5C 667.595,36.8517 671.262,34.3517 674.5,32C 673.558,28.7523 672.225,28.2523 670.5,30.5C 670.891,29.2815 670.224,28.4482 668.5,28C 671.167,27.3333 671.167,26.6667 668.5,26C 669.849,24.4624 670.516,22.6291 670.5,20.5C 671.5,18.8333 672.833,17.5 674.5,16.5C 676.833,14.5 679.167,12.5 681.5,10.5 Z"/></g>
<g><path style="opacity:0.824" fill="#22bff1" d="M 681.5,10.5 C 679.167,12.5 676.833,14.5 674.5,16.5C 675.543,13.9438 677.21,11.7772 679.5,10C 680.437,9.30831 681.103,9.47498 681.5,10.5 Z"/></g>
<g><path style="opacity:1" fill="#24c7f8" d="M 681.5,10.5 C 685.655,11.7417 689.322,13.7417 692.5,16.5C 692.189,18.9096 692.522,21.0762 693.5,23C 692.646,24.0217 691.646,24.8551 690.5,25.5C 689.274,24.6371 687.94,24.6371 686.5,25.5C 684.679,20.5482 683.012,15.5482 681.5,10.5 Z"/></g>
<g><path style="opacity:1" fill="#24c7f7" d="M 864.5,10.5 C 864.756,14.2693 864.423,17.9359 863.5,21.5C 862.197,19.8577 860.864,18.1911 859.5,16.5C 858.499,15.2113 858.666,13.8779 860,12.5C 860.667,13.8333 861.333,13.8333 862,12.5C 862.333,13.1667 862.667,13.8333 863,14.5C 863.684,13.2161 863.517,12.0495 862.5,11C 863.094,10.5357 863.761,10.369 864.5,10.5 Z"/></g>
<g><path style="opacity:1" fill="#22b3e5" d="M 845.5,15.5 C 846.688,16.6843 847.855,16.6843 849,15.5C 849.419,16.6721 850.085,17.6721 851,18.5C 853.517,17.8573 856.351,17.1906 859.5,16.5C 860.864,18.1911 862.197,19.8577 863.5,21.5C 864.738,21.81 864.738,22.31 863.5,23C 861.753,23.3519 860.086,23.8519 858.5,24.5C 857.048,23.6981 855.382,23.1981 853.5,23C 852.167,22.3333 852.167,21.6667 853.5,21C 850.523,19.2981 847.856,19.7981 845.5,22.5C 842.843,22.9348 840.509,23.9348 838.5,25.5C 834.488,27.1897 833.822,26.523 836.5,23.5C 838.88,20.1195 841.88,17.4528 845.5,15.5 Z"/></g>
<g><path style="opacity:0.987" fill="#23bef0" d="M 858.5,24.5 C 855.216,24.7233 852.049,25.3899 849,26.5C 848.617,25.944 848.117,25.6107 847.5,25.5C 848.016,24.2418 847.35,23.2418 845.5,22.5C 847.856,19.7981 850.523,19.2981 853.5,21C 852.167,21.6667 852.167,22.3333 853.5,23C 855.382,23.1981 857.048,23.6981 858.5,24.5 Z"/></g>
<g><path style="opacity:1" fill="#24c9f8" d="M 845.5,22.5 C 847.35,23.2418 848.016,24.2418 847.5,25.5C 845.972,26.3092 844.306,26.9759 842.5,27.5C 841.167,26.8333 839.833,26.1667 838.5,25.5C 840.509,23.9348 842.843,22.9348 845.5,22.5 Z"/></g>
<g><path style="opacity:0.993" fill="#23bff0" d="M 670.5,20.5 C 670.516,22.6291 669.849,24.4624 668.5,26C 671.167,26.6667 671.167,27.3333 668.5,28C 670.224,28.4482 670.891,29.2815 670.5,30.5C 672.225,28.2523 673.558,28.7523 674.5,32C 671.262,34.3517 667.595,36.8517 663.5,39.5C 662.878,37.665 661.544,36.4983 659.5,36C 661.255,35.2801 662.089,34.1134 662,32.5C 659.672,33.9993 657.505,35.666 655.5,37.5C 660.135,31.5308 665.135,25.8641 670.5,20.5 Z"/></g>
<g><path style="opacity:0.992" fill="#23bff1" d="M 692.5,16.5 C 701.937,21.0523 711.27,25.8857 720.5,31C 719.437,32.1882 718.103,32.6882 716.5,32.5C 711.253,29.913 705.586,28.5797 699.5,28.5C 699.631,27.7611 699.464,27.0944 699,26.5C 697.667,27.8333 696.333,27.8333 695,26.5C 694,27.5 693,28.5 692,29.5C 691.78,32.406 690.947,35.2393 689.5,38C 689.748,39.7491 690.748,40.5824 692.5,40.5C 686.784,43.072 680.784,45.072 674.5,46.5C 675.775,43.2763 676.609,39.943 677,36.5C 677.805,38.9011 678.638,38.7344 679.5,36C 678.754,33.9068 678.421,31.9068 678.5,30C 679.449,29.3828 680.282,29.5494 681,30.5C 682.076,27.921 683.909,26.2543 686.5,25.5C 687.94,24.6371 689.274,24.6371 690.5,25.5C 691.646,24.8551 692.646,24.0217 693.5,23C 692.522,21.0762 692.189,18.9096 692.5,16.5 Z"/></g>
<g><path style="opacity:1" fill="#24cafa" d="M 699.5,28.5 C 698.732,29.2625 698.232,30.2625 698,31.5C 697.667,30.8333 697.333,30.1667 697,29.5C 696.535,30.9308 695.701,32.0975 694.5,33C 695.328,33.9147 696.328,34.5814 697.5,35C 696.833,35.3333 696.167,35.6667 695.5,36C 696.078,37.417 697.078,38.2504 698.5,38.5C 696.786,39.7384 694.786,40.405 692.5,40.5C 690.748,40.5824 689.748,39.7491 689.5,38C 690.947,35.2393 691.78,32.406 692,29.5C 693,28.5 694,27.5 695,26.5C 696.333,27.8333 697.667,27.8333 699,26.5C 699.464,27.0944 699.631,27.7611 699.5,28.5 Z"/></g>
<g><path style="opacity:0.824" fill="#23c0f1" d="M 836.5,23.5 C 833.822,26.523 834.488,27.1897 838.5,25.5C 839.833,26.1667 841.167,26.8333 842.5,27.5C 838.166,28.3369 833.832,28.8369 829.5,29C 831.441,26.5464 833.775,24.713 836.5,23.5 Z"/></g>
<g><path style="opacity:1" fill="#25cffc" d="M 699.5,28.5 C 705.586,28.5797 711.253,29.913 716.5,32.5C 710.784,35.072 704.784,37.072 698.5,38.5C 697.078,38.2504 696.078,37.417 695.5,36C 696.167,35.6667 696.833,35.3333 697.5,35C 696.328,34.5814 695.328,33.9147 694.5,33C 695.701,32.0975 696.535,30.9308 697,29.5C 697.333,30.1667 697.667,30.8333 698,31.5C 698.232,30.2625 698.732,29.2625 699.5,28.5 Z"/></g>
<g><path style="opacity:1" fill="#24c9f9" d="M 663.5,39.5 C 659.881,42.6496 655.881,45.3163 651.5,47.5C 652.494,45.6656 652.494,43.9989 651.5,42.5C 651.5,42.1667 651.5,41.8333 651.5,41.5C 652.5,39.8333 653.833,38.5 655.5,37.5C 657.505,35.666 659.672,33.9993 662,32.5C 662.089,34.1134 661.255,35.2801 659.5,36C 661.544,36.4983 662.878,37.665 663.5,39.5 Z"/></g>
<g><path style="opacity:0.514" fill="#23c4f5" d="M 613.5,38.5 C 525.836,37.5103 438.169,37.1769 350.5,37.5C 349.209,37.2627 348.209,37.596 347.5,38.5C 343.265,37.564 338.931,37.2307 334.5,37.5C 332.456,37.7996 330.456,38.133 328.5,38.5C 303.257,37.5412 278.423,37.2079 254,37.5C 252.176,38.7487 252.343,39.9153 254.5,41C 251.719,43.1117 251.385,45.2783 253.5,47.5C 252.166,50.5725 251.166,53.4059 250.5,56C 252.612,57.2166 252.279,58.3832 249.5,59.5C 247.821,59.1077 246.154,58.6077 244.5,58C 244.032,51.9649 245.365,45.7982 248.5,39.5C 248.291,38.914 247.957,38.414 247.5,38C 235.171,37.5001 222.838,37.3335 210.5,37.5C 177.498,37.3334 144.498,37.5 111.5,38C 110.956,38.7172 110.289,39.2172 109.5,39.5C 109.414,38.5041 109.748,37.6708 110.5,37C 278.833,36.3333 447.167,36.3333 615.5,37C 614.956,37.7172 614.289,38.2172 613.5,38.5 Z"/></g>
<g><path style="opacity:1" fill="#25d2fd" d="M 210.5,37.5 C 210.821,39.0481 211.821,39.7148 213.5,39.5C 212.538,42.4391 212.205,45.2724 212.5,48C 212.759,49.2613 213.426,50.2613 214.5,51C 213.756,52.0386 212.756,52.5386 211.5,52.5C 211.279,51.2652 210.612,50.2652 209.5,49.5C 209.846,48.3044 210.346,48.3044 211,49.5C 211.597,47.0759 210.763,45.2425 208.5,44C 208.86,42.3485 209.193,40.6818 209.5,39C 209.167,38.8333 208.833,38.6667 208.5,38.5C 207.749,39.376 207.249,40.376 207,41.5C 206.751,40.376 206.251,39.376 205.5,38.5C 205.167,38.6667 204.833,38.8333 204.5,39C 203.751,40.7337 203.251,42.567 203,44.5C 202.333,39.1667 201.667,39.1667 201,44.5C 200.667,43.5 200.333,42.5 200,41.5C 199.682,43.0609 198.849,44.2276 197.5,45C 198.943,46.0672 200.276,47.2338 201.5,48.5C 202.251,47.624 202.751,46.624 203,45.5C 203.465,46.9308 204.299,48.0975 205.5,49C 205.167,49.3333 204.833,49.6667 204.5,50C 205.738,49.9227 206.738,50.0894 207.5,50.5C 205.364,51.4724 204.197,53.1391 204,55.5C 203.439,53.2746 202.439,51.2746 201,49.5C 199.86,51.0778 199.36,52.7445 199.5,54.5C 198.624,55.2508 197.624,55.7508 196.5,56C 198.333,56.5 199.5,57.6667 200,59.5C 200.805,57.0989 201.638,57.2656 202.5,60C 201.958,62.2418 201.291,64.7418 200.5,67.5C 199.71,66.3915 199.21,65.0581 199,63.5C 198.667,64.8333 198.333,66.1667 198,67.5C 197.667,66.8333 197.333,66.1667 197,65.5C 196.5,66.6667 195.667,67.5 194.5,68C 196.333,68.5 197.5,69.6667 198,71.5C 198.667,68.8333 199.333,68.8333 200,71.5C 200.333,70.8333 200.667,70.1667 201,69.5C 201.5,70.6667 202.333,71.5 203.5,72C 202.167,72.3333 200.833,72.6667 199.5,73C 200.833,73.6667 202.167,74.3333 203.5,75C 202.667,75.8333 201.833,76.6667 201,77.5C 200.292,76.6195 199.458,75.9528 198.5,75.5C 198.585,74.0047 197.919,73.0047 196.5,72.5C 195.21,74.6565 194.376,76.9899 194,79.5C 193.536,77.3 193.036,74.9667 192.5,72.5C 191.178,72.33 190.011,72.6634 189,73.5C 185.458,69.6991 184.792,70.3657 187,75.5C 188.487,76.1552 189.653,77.1552 190.5,78.5C 189.975,79.1924 189.308,79.6924 188.5,80C 189.91,80.3678 190.91,81.2011 191.5,82.5C 190.878,85.3704 190.211,88.2037 189.5,91C 190.833,92 192.167,93 193.5,94C 192.285,96.0955 191.451,95.9288 191,93.5C 190.667,94.1667 190.333,94.8333 190,95.5C 188.388,95.048 187.388,93.7147 187,91.5C 186.333,95.5 185.667,95.5 185,91.5C 184.333,95.5 183.667,95.5 183,91.5C 182.667,92.5 182.333,93.5 182,94.5C 181.577,93.0439 180.744,92.5439 179.5,93C 180.634,94.016 180.301,94.6827 178.5,95C 179.416,95.2784 180.082,95.7784 180.5,96.5C 161.084,97.0931 141.084,97.4265 120.5,97.5C 119.5,97.5 118.5,97.5 117.5,97.5C 97.6596,97.8304 77.9929,97.4971 58.5,96.5C 58.5,95.8333 58.8333,95.5 59.5,95.5C 61.5869,94.4154 62.9202,92.7488 63.5,90.5C 64.8333,88.5 66.5,86.8333 68.5,85.5C 70.2624,84.7377 71.2624,83.4044 71.5,81.5C 72.8333,79.5 74.5,77.8333 76.5,76.5C 78.5869,75.4154 79.9202,73.7488 80.5,71.5C 81.5,69.8333 82.8333,68.5 84.5,67.5C 86.5869,66.4154 87.9202,64.7488 88.5,62.5C 89.5,60.8333 90.8333,59.5 92.5,58.5C 94.5869,57.4154 95.9202,55.7488 96.5,53.5C 97.5,51.8333 98.8333,50.5 100.5,49.5C 102.587,48.4154 103.92,46.7488 104.5,44.5C 105.833,42.5 107.5,40.8333 109.5,39.5C 110.289,39.2172 110.956,38.7172 111.5,38C 144.498,37.5 177.498,37.3334 210.5,37.5 Z"/></g>
<g><path style="opacity:1" fill="#25cafa" d="M 210.5,37.5 C 222.838,37.3335 235.171,37.5001 247.5,38C 247.957,38.414 248.291,38.914 248.5,39.5C 245.365,45.7982 244.032,51.9649 244.5,58C 246.154,58.6077 247.821,59.1077 249.5,59.5C 250.048,60.6885 250.381,61.8552 250.5,63C 249.299,63.9025 248.465,65.0692 248,66.5C 246.881,65.4479 246.381,64.2812 246.5,63C 248.929,62.5488 249.096,61.7155 247,60.5C 245.232,62.9124 244.065,65.5791 243.5,68.5C 242.68,70.1401 241.847,71.8068 241,73.5C 239.517,71.0542 238.351,71.3876 237.5,74.5C 237.457,77.0881 238.623,79.4214 241,81.5C 239.955,85.2826 241.121,88.4492 244.5,91C 243.102,93.7357 241.435,93.569 239.5,90.5C 238.653,92.061 238.986,93.561 240.5,95C 239.944,95.3826 239.611,95.8826 239.5,96.5C 225.401,97.2893 211.068,97.6227 196.5,97.5C 196.274,93.0909 197.941,89.2575 201.5,86C 200.939,84.324 199.939,82.9906 198.5,82C 199.956,81.5774 200.456,80.7441 200,79.5C 198.984,80.6341 198.317,80.3008 198,78.5C 197.667,79.1667 197.333,79.8333 197,80.5C 196.333,78.8333 196.333,77.1667 197,75.5C 197.779,78.0972 198.279,78.0972 198.5,75.5C 199.458,75.9528 200.292,76.6195 201,77.5C 201.833,76.6667 202.667,75.8333 203.5,75C 202.167,74.3333 200.833,73.6667 199.5,73C 200.833,72.6667 202.167,72.3333 203.5,72C 202.333,71.5 201.5,70.6667 201,69.5C 200.667,70.1667 200.333,70.8333 200,71.5C 199.333,68.8333 198.667,68.8333 198,71.5C 197.5,69.6667 196.333,68.5 194.5,68C 195.667,67.5 196.5,66.6667 197,65.5C 197.333,66.1667 197.667,66.8333 198,67.5C 198.333,66.1667 198.667,64.8333 199,63.5C 199.21,65.0581 199.71,66.3915 200.5,67.5C 201.469,68.3094 202.302,69.3094 203,70.5C 204.934,68.5812 204.767,67.0812 202.5,66C 203.126,65.2496 203.626,64.4162 204,63.5C 204.333,63.8333 204.667,64.1667 205,64.5C 206.667,63.5 208,62.1667 209,60.5C 209.893,61.7112 210.726,61.7112 211.5,60.5C 211.262,57.6182 211.262,54.9515 211.5,52.5C 212.756,52.5386 213.756,52.0386 214.5,51C 213.426,50.2613 212.759,49.2613 212.5,48C 212.205,45.2724 212.538,42.4391 213.5,39.5C 211.821,39.7148 210.821,39.0481 210.5,37.5 Z"/></g>
<g><path style="opacity:1" fill="#23bff1" d="M 328.5,38.5 C 329.289,38.7828 329.956,39.2828 330.5,40C 328.294,42.3841 327.627,45.0507 328.5,48C 326.692,50.0406 326.026,52.2072 326.5,54.5C 325.672,55.4147 324.672,56.0814 323.5,56.5C 321.9,54.3104 320.066,52.3104 318,50.5C 316.563,52.2212 317.063,53.7212 319.5,55C 318.692,55.3076 318.025,55.8076 317.5,56.5C 318.641,57.4255 318.641,58.2588 317.5,59C 320.096,60.7972 319.763,62.1305 316.5,63C 318.348,64.518 319.848,66.3513 321,68.5C 323.33,65.8179 323.83,66.1512 322.5,69.5C 323.313,70.8139 324.313,71.9805 325.5,73C 325.167,73.3333 324.833,73.6667 324.5,74C 325.744,74.4561 326.577,73.9561 327,72.5C 327.5,73.5 328,74.5 328.5,75.5C 326.645,77.5438 325.978,79.7105 326.5,82C 323.479,82.8488 322.979,84.3488 325,86.5C 326.085,84.3426 327.251,84.1759 328.5,86C 326.779,87.5272 324.779,88.5272 322.5,89C 323.833,89.6667 324.833,90.6667 325.5,92C 325.613,93.7468 325.279,95.5801 324.5,97.5C 298.306,97.3729 272.639,97.3729 247.5,97.5C 246.047,96.1751 246.381,95.3418 248.5,95C 247.167,94.3333 247.167,93.6667 248.5,93C 244.886,90.8587 244.886,88.5254 248.5,86C 247.332,84.5944 247.665,83.4277 249.5,82.5C 249.374,79.5758 248.041,76.9092 245.5,74.5C 247.991,73.4593 247.991,72.6259 245.5,72C 246.167,71.6667 246.833,71.3333 247.5,71C 246.529,69.5187 245.196,68.6854 243.5,68.5C 244.065,65.5791 245.232,62.9124 247,60.5C 249.096,61.7155 248.929,62.5488 246.5,63C 246.381,64.2812 246.881,65.4479 248,66.5C 248.465,65.0692 249.299,63.9025 250.5,63C 250.381,61.8552 250.048,60.6885 249.5,59.5C 252.279,58.3832 252.612,57.2166 250.5,56C 251.166,53.4059 252.166,50.5725 253.5,47.5C 251.385,45.2783 251.719,43.1117 254.5,41C 252.343,39.9153 252.176,38.7487 254,37.5C 278.423,37.2079 303.257,37.5412 328.5,38.5 Z"/></g>
<g><path style="opacity:1" fill="#22b1e3" d="M 334.5,37.5 C 338.931,37.2307 343.265,37.564 347.5,38.5C 344.709,40.987 344.876,43.3203 348,45.5C 348.667,42.8333 349.333,42.8333 350,45.5C 350.574,43.508 351.741,42.008 353.5,41C 351.944,40.2798 350.944,39.1132 350.5,37.5C 438.169,37.1769 525.836,37.5103 613.5,38.5C 597.5,55.1667 581.167,71.5 564.5,87.5C 562.555,90.1114 560.222,92.4447 557.5,94.5C 555.77,95.0256 554.436,96.0256 553.5,97.5C 490.17,97.4551 427.17,97.4551 364.5,97.5C 363.052,95.4449 361.719,93.2782 360.5,91C 362.158,90.2747 362.658,89.108 362,87.5C 360.702,86.4404 359.535,85.2737 358.5,84C 358.905,83.0546 359.572,82.3879 360.5,82C 359.167,80.6667 357.833,79.3333 356.5,78C 356.833,77.6667 357.167,77.3333 357.5,77C 355.951,75.786 354.785,74.286 354,72.5C 352.445,70.4848 350.611,70.1515 348.5,71.5C 349.623,73.4816 349.623,75.4816 348.5,77.5C 346.491,75.6222 346.158,73.4556 347.5,71C 346.833,70.6667 346.167,70.3333 345.5,70C 346.833,69.3333 346.833,68.6667 345.5,68C 346,67.5 346.5,67 347,66.5C 347.849,69.5215 349.349,70.0215 351.5,68C 348.972,66.6841 348.972,65.5174 351.5,64.5C 350.167,63.5 350.167,62.5 351.5,61.5C 351.333,61.1667 351.167,60.8333 351,60.5C 349.667,64.5 348.333,64.5 347,60.5C 346.667,61.1667 346.333,61.8333 346,62.5C 345.722,61.5842 345.222,60.9175 344.5,60.5C 345.598,59.603 345.598,58.7697 344.5,58C 345.469,56.2417 346.636,55.7417 348,56.5C 349.856,54.2626 349.356,52.4293 346.5,51C 347.167,50.6667 347.833,50.3333 348.5,50C 346.754,49.5291 345.087,48.8624 343.5,48C 344.022,47.4387 344.355,46.772 344.5,46C 343.014,45.7486 342.014,44.4153 341.5,42C 342.357,41.3109 343.023,40.4776 343.5,39.5C 340.297,40.0022 337.297,39.3355 334.5,37.5 Z"/></g>
<g><path style="opacity:1" fill="#23bcee" d="M 350.5,37.5 C 350.944,39.1132 351.944,40.2798 353.5,41C 351.741,42.008 350.574,43.508 350,45.5C 349.333,42.8333 348.667,42.8333 348,45.5C 344.876,43.3203 344.709,40.987 347.5,38.5C 348.209,37.596 349.209,37.2627 350.5,37.5 Z"/></g>
<g><path style="opacity:1" fill="#23bff2" d="M 651.5,41.5 C 651.5,41.8333 651.5,42.1667 651.5,42.5C 649.167,45.5 646.5,48.1667 643.5,50.5C 645.43,46.8998 648.097,43.8998 651.5,41.5 Z"/></g>
<g><path style="opacity:1" fill="#25cffb" d="M 651.5,42.5 C 652.494,43.9989 652.494,45.6656 651.5,47.5C 648.093,50.4404 644.426,53.107 640.5,55.5C 639.833,55.5 639.5,55.1667 639.5,54.5C 640.5,52.8333 641.833,51.5 643.5,50.5C 646.5,48.1667 649.167,45.5 651.5,42.5 Z"/></g>
<g><path style="opacity:0.824" fill="#23bef1" d="M 104.5,44.5 C 103.92,46.7488 102.587,48.4154 100.5,49.5C 101.08,47.2512 102.413,45.5846 104.5,44.5 Z"/></g>
<g><path style="opacity:0.824" fill="#23bff0" d="M 674.5,46.5 C 670.784,48.4053 666.784,49.7387 662.5,50.5C 665.471,49.1154 668.304,47.4488 671,45.5C 672.011,46.3366 673.178,46.67 674.5,46.5 Z"/></g>
<g><path style="opacity:1" fill="#22b1e3" d="M 778.5,61.5 C 778.5,64.1667 778.5,66.8333 778.5,69.5C 776.784,69.3713 775.117,69.038 773.5,68.5C 771.231,67.0242 768.898,65.5242 766.5,64C 767.167,63.3333 767.833,62.6667 768.5,62C 768.056,60.4667 767.723,58.9667 767.5,57.5C 766.914,57.7093 766.414,58.0426 766,58.5C 763.066,56.8073 759.899,55.8073 756.5,55.5C 752.523,54.7412 748.523,54.0746 744.5,53.5C 743.048,52.6981 741.382,52.1981 739.5,52C 747.085,51.463 754.585,50.6297 762,49.5C 762.667,50.1667 763.333,50.8333 764,51.5C 764.725,49.842 765.892,49.342 767.5,50C 766.044,50.4226 765.544,51.2559 766,52.5C 768.043,54.208 769.71,56.208 771,58.5C 772,58.1667 773,57.8333 774,57.5C 775.414,58.9914 776.914,60.3247 778.5,61.5 Z"/></g>
<g><path style="opacity:0.514" fill="#23c0f1" d="M 662.5,50.5 C 660.485,51.9238 658.152,52.5905 655.5,52.5C 657.515,51.0762 659.848,50.4095 662.5,50.5 Z"/></g>
<g><path style="opacity:1" fill="#23c0f1" d="M 780.5,67.5 C 780.859,65.629 781.859,64.129 783.5,63C 782.15,61.2817 780.983,59.4484 780,57.5C 778.812,58.5634 778.312,59.8967 778.5,61.5C 776.914,60.3247 775.414,58.9914 774,57.5C 773,57.8333 772,58.1667 771,58.5C 769.71,56.208 768.043,54.208 766,52.5C 765.544,51.2559 766.044,50.4226 767.5,50C 765.892,49.342 764.725,49.842 764,51.5C 763.333,50.8333 762.667,50.1667 762,49.5C 754.585,50.6297 747.085,51.463 739.5,52C 741.382,52.1981 743.048,52.6981 744.5,53.5C 744.062,53.4346 743.728,53.6012 743.5,54C 744.416,54.2784 745.082,54.7784 745.5,55.5C 742.148,54.9916 739.148,53.6582 736.5,51.5C 756.79,48.8362 777.123,47.5028 797.5,47.5C 791.815,54.2379 786.149,60.9046 780.5,67.5 Z"/></g>
<g><path style="opacity:1" fill="#25cafa" d="M 779.5,48.5 C 781.226,50.2279 782.559,52.2279 783.5,54.5C 783.631,55.2389 783.464,55.9056 783,56.5C 782.259,55.3595 781.425,55.3595 780.5,56.5C 779.416,55.3349 778.583,54.0016 778,52.5C 777.577,53.9561 776.744,54.4561 775.5,54C 776.337,52.9887 776.67,51.8221 776.5,50.5C 775.448,50.6495 774.448,50.4828 773.5,50C 775.436,49.187 777.436,48.687 779.5,48.5 Z"/></g>
<g><path style="opacity:1" fill="#25d2fd" d="M 783.5,54.5 C 782.559,52.2279 781.226,50.2279 779.5,48.5C 784.512,48.0801 789.512,47.9134 794.5,48C 791.108,50.6937 787.441,52.8604 783.5,54.5 Z"/></g>
<g><path style="opacity:0.514" fill="#23c1f2" d="M 655.5,52.5 C 651.915,54.8061 647.915,56.1394 643.5,56.5C 647.216,54.5947 651.216,53.2613 655.5,52.5 Z"/></g>
<g><path style="opacity:1" fill="#22b1e3" d="M 28.5,54.5 C 29.9413,57.7775 31.608,60.9442 33.5,64C 32.7471,65.487 31.9138,65.6537 31,64.5C 30.5348,65.9308 29.7014,67.0975 28.5,68C 30.3329,70.9985 32.6662,73.4985 35.5,75.5C 37.5,77.8333 39.5,80.1667 41.5,82.5C 42.2899,83.7942 43.2899,84.9609 44.5,86C 44.1667,86.1667 43.8333,86.3333 43.5,86.5C 38.4358,82.9693 33.1025,79.9693 27.5,77.5C 26.9862,75.6336 26.3195,73.8003 25.5,72C 27.1408,70.3542 26.8075,69.3542 24.5,69C 25.3081,68.6924 25.9747,68.1924 26.5,67.5C 24.6901,65.3766 23.3568,63.0433 22.5,60.5C 23.8897,59.1007 24.8897,57.4341 25.5,55.5C 26.391,54.8902 27.391,54.5569 28.5,54.5 Z"/></g>
<g><path style="opacity:1" fill="#25cefc" d="M 211.5,52.5 C 211.262,54.9515 211.262,57.6182 211.5,60.5C 210.726,61.7112 209.893,61.7112 209,60.5C 208,62.1667 206.667,63.5 205,64.5C 204.667,64.1667 204.333,63.8333 204,63.5C 203.626,64.4162 203.126,65.2496 202.5,66C 204.767,67.0812 204.934,68.5812 203,70.5C 202.302,69.3094 201.469,68.3094 200.5,67.5C 201.291,64.7418 201.958,62.2418 202.5,60C 201.638,57.2656 200.805,57.0989 200,59.5C 199.5,57.6667 198.333,56.5 196.5,56C 197.624,55.7508 198.624,55.2508 199.5,54.5C 199.36,52.7445 199.86,51.0778 201,49.5C 202.439,51.2746 203.439,53.2746 204,55.5C 204.197,53.1391 205.364,51.4724 207.5,50.5C 206.738,50.0894 205.738,49.9227 204.5,50C 204.833,49.6667 205.167,49.3333 205.5,49C 204.299,48.0975 203.465,46.9308 203,45.5C 202.751,46.624 202.251,47.624 201.5,48.5C 200.276,47.2338 198.943,46.0672 197.5,45C 198.849,44.2276 199.682,43.0609 200,41.5C 200.333,42.5 200.667,43.5 201,44.5C 201.667,39.1667 202.333,39.1667 203,44.5C 203.251,42.567 203.751,40.7337 204.5,39C 204.833,38.8333 205.167,38.6667 205.5,38.5C 206.251,39.376 206.751,40.376 207,41.5C 207.249,40.376 207.749,39.376 208.5,38.5C 208.833,38.6667 209.167,38.8333 209.5,39C 209.193,40.6818 208.86,42.3485 208.5,44C 210.763,45.2425 211.597,47.0759 211,49.5C 210.346,48.3044 209.846,48.3044 209.5,49.5C 210.612,50.2652 211.279,51.2652 211.5,52.5 Z"/></g>
<g><path style="opacity:1" fill="#24c9f9" d="M 25.5,55.5 C 24.8897,57.4341 23.8897,59.1007 22.5,60.5C 21.7784,60.9175 21.2784,61.5842 21,62.5C 20.0138,61.8288 18.8471,61.8288 17.5,62.5C 17.9528,61.5416 18.6195,60.7083 19.5,60C 17.4311,59.6758 17.0977,58.8425 18.5,57.5C 20.7067,56.3652 23.0401,55.6985 25.5,55.5 Z"/></g>
<g><path style="opacity:1" fill="#23bff1" d="M 96.5,53.5 C 95.9202,55.7488 94.5869,57.4154 92.5,58.5C 93.0798,56.2512 94.4131,54.5846 96.5,53.5 Z"/></g>
<g><path style="opacity:1" fill="#25cbfa" d="M 744.5,53.5 C 748.523,54.0746 752.523,54.7412 756.5,55.5C 758.69,56.3745 759.69,58.0411 759.5,60.5C 757.323,60.4139 755.323,59.7472 753.5,58.5C 752.893,58.6236 752.56,58.9569 752.5,59.5C 752.167,59.5 751.833,59.5 751.5,59.5C 750.513,56.9142 748.513,55.5809 745.5,55.5C 745.082,54.7784 744.416,54.2784 743.5,54C 743.728,53.6012 744.062,53.4346 744.5,53.5 Z"/></g>
<g><path style="opacity:0.976" fill="#23bff0" d="M 756.5,55.5 C 759.899,55.8073 763.066,56.8073 766,58.5C 766.414,58.0426 766.914,57.7093 767.5,57.5C 767.723,58.9667 768.056,60.4667 768.5,62C 767.833,62.6667 767.167,63.3333 766.5,64C 768.898,65.5242 771.231,67.0242 773.5,68.5C 766.227,66.0776 759.227,63.0776 752.5,59.5C 752.56,58.9569 752.893,58.6236 753.5,58.5C 755.323,59.7472 757.323,60.4139 759.5,60.5C 759.69,58.0411 758.69,56.3745 756.5,55.5 Z"/></g>
<g><path style="opacity:0.882" fill="#23bff0" d="M 639.5,54.5 C 639.5,55.1667 639.833,55.5 640.5,55.5C 641.209,56.404 642.209,56.7373 643.5,56.5C 641.065,58.4008 638.398,59.0675 635.5,58.5C 636.521,56.812 637.855,55.4787 639.5,54.5 Z"/></g>
<g><path style="opacity:0.968" fill="#23c0f2" d="M 28.5,54.5 C 27.391,54.5569 26.391,54.8902 25.5,55.5C 23.0401,55.6985 20.7067,56.3652 18.5,57.5C 17.0977,58.8425 17.4311,59.6758 19.5,60C 18.6195,60.7083 17.9528,61.5416 17.5,62.5C 18.8471,61.8288 20.0138,61.8288 21,62.5C 21.2784,61.5842 21.7784,60.9175 22.5,60.5C 23.3568,63.0433 24.6901,65.3766 26.5,67.5C 25.9747,68.1924 25.3081,68.6924 24.5,69C 26.8075,69.3542 27.1408,70.3542 25.5,72C 26.3195,73.8003 26.9862,75.6336 27.5,77.5C 18.1935,72.5453 8.86019,67.5453 -0.5,62.5C -0.5,62.1667 -0.5,61.8333 -0.5,61.5C 7.4252,58.9147 15.4252,56.4147 23.5,54C 25.3869,53.2204 27.0536,53.3871 28.5,54.5 Z"/></g>
<g><path style="opacity:0.824" fill="#23bfef" d="M 745.5,55.5 C 748.513,55.5809 750.513,56.9142 751.5,59.5C 749.322,58.3434 747.322,57.0101 745.5,55.5 Z"/></g>
<g><path style="opacity:1" fill="#24c8f8" d="M 780.5,67.5 C 778.986,72.0757 776.652,72.409 773.5,68.5C 775.117,69.038 776.784,69.3713 778.5,69.5C 778.5,66.8333 778.5,64.1667 778.5,61.5C 778.312,59.8967 778.812,58.5634 780,57.5C 780.983,59.4484 782.15,61.2817 783.5,63C 781.859,64.129 780.859,65.629 780.5,67.5 Z"/></g>
<g><path style="opacity:1" fill="#24cafa" d="M 17.5,62.5 C 19.3626,65.2111 20.0292,68.0445 19.5,71C 17.332,71.2494 15.6653,70.4161 14.5,68.5C 13.8288,67.1529 13.8288,65.9862 14.5,65C 13.8333,64.6667 13.1667,64.3333 12.5,64C 13.4158,63.7216 14.0825,63.2216 14.5,62.5C 15.5,61.1667 16.5,61.1667 17.5,62.5 Z"/></g>
<g><path style="opacity:1" fill="#25d2fd" d="M 14.5,62.5 C 14.0825,63.2216 13.4158,63.7216 12.5,64C 13.1667,64.3333 13.8333,64.6667 14.5,65C 13.8288,65.9862 13.8288,67.1529 14.5,68.5C 11.0651,66.9472 7.73173,65.1139 4.5,63C 7.42621,62.7822 10.2595,62.2822 13,61.5C 13.3826,62.056 13.8826,62.3893 14.5,62.5 Z"/></g>
<g><path style="opacity:1" fill="#23bdef" d="M 344.5,60.5 C 345.222,60.9175 345.722,61.5842 346,62.5C 346.333,61.8333 346.667,61.1667 347,60.5C 348.333,64.5 349.667,64.5 351,60.5C 351.167,60.8333 351.333,61.1667 351.5,61.5C 350.167,62.5 350.167,63.5 351.5,64.5C 348.972,65.5174 348.972,66.6841 351.5,68C 349.349,70.0215 347.849,69.5215 347,66.5C 346.5,67 346,67.5 345.5,68C 346.833,68.6667 346.833,69.3333 345.5,70C 346.167,70.3333 346.833,70.6667 347.5,71C 346.158,73.4556 346.491,75.6222 348.5,77.5C 348.423,78.7498 347.756,79.5831 346.5,80C 347.966,80.6355 349.3,81.4688 350.5,82.5C 351.192,81.9747 351.692,81.3081 352,80.5C 353.167,81.6667 354.333,82.8333 355.5,84C 354.809,85.0674 354.309,86.2341 354,87.5C 353.564,84.7164 352.064,83.5498 349.5,84C 350.308,84.3076 350.975,84.8076 351.5,85.5C 348.951,86.8312 347.284,85.9979 346.5,83C 346.833,82.6667 347.167,82.3333 347.5,82C 345.998,81.4169 344.665,80.5836 343.5,79.5C 343.251,77.6086 343.918,75.7752 345.5,74C 345.079,71.8154 344.579,69.6487 344,67.5C 343.667,68.1667 343.333,68.8333 343,69.5C 342.215,67.714 341.049,66.214 339.5,65C 342.7,65.6526 344.366,64.1526 344.5,60.5 Z"/></g>
<g><path style="opacity:0.988" fill="#23bff1" d="M 28.5,54.5 C 29.8846,55.5736 31.0513,56.9069 32,58.5C 35.1066,64.0847 37.9399,69.7514 40.5,75.5C 39.236,73.7299 37.736,72.0632 36,70.5C 35.5065,72.1341 35.3398,73.8008 35.5,75.5C 32.6662,73.4985 30.3329,70.9985 28.5,68C 29.7014,67.0975 30.5348,65.9308 31,64.5C 31.9138,65.6537 32.7471,65.487 33.5,64C 31.608,60.9442 29.9413,57.7775 28.5,54.5 Z"/></g>
<g><path style="opacity:1" fill="#23bff1" d="M 88.5,62.5 C 87.9202,64.7488 86.5869,66.4154 84.5,67.5C 85.0798,65.2512 86.4131,63.5846 88.5,62.5 Z"/></g>
<g><path style="opacity:1" fill="#25cbfa" d="M 40.5,75.5 C 41.086,77.8398 42.086,80.0065 43.5,82C 42.9056,82.4643 42.2389,82.631 41.5,82.5C 39.5,80.1667 37.5,77.8333 35.5,75.5C 35.3398,73.8008 35.5065,72.1341 36,70.5C 37.736,72.0632 39.236,73.7299 40.5,75.5 Z"/></g>
<g><path style="opacity:1" fill="#23c0f3" d="M 80.5,71.5 C 79.9202,73.7488 78.5869,75.4154 76.5,76.5C 77.0798,74.2512 78.4131,72.5846 80.5,71.5 Z"/></g>
<g><path style="opacity:1" fill="#24c6f7" d="M 243.5,68.5 C 245.196,68.6854 246.529,69.5187 247.5,71C 246.833,71.3333 246.167,71.6667 245.5,72C 247.991,72.6259 247.991,73.4593 245.5,74.5C 248.041,76.9092 249.374,79.5758 249.5,82.5C 247.665,83.4277 247.332,84.5944 248.5,86C 244.886,88.5254 244.886,90.8587 248.5,93C 247.167,93.6667 247.167,94.3333 248.5,95C 246.381,95.3418 246.047,96.1751 247.5,97.5C 244.615,97.8064 241.948,97.4731 239.5,96.5C 239.611,95.8826 239.944,95.3826 240.5,95C 238.986,93.561 238.653,92.061 239.5,90.5C 241.435,93.569 243.102,93.7357 244.5,91C 241.121,88.4492 239.955,85.2826 241,81.5C 238.623,79.4214 237.457,77.0881 237.5,74.5C 238.351,71.3876 239.517,71.0542 241,73.5C 241.847,71.8068 242.68,70.1401 243.5,68.5 Z"/></g>
<g><path style="opacity:1" fill="#25cefc" d="M 198.5,75.5 C 198.279,78.0972 197.779,78.0972 197,75.5C 196.333,77.1667 196.333,78.8333 197,80.5C 197.333,79.8333 197.667,79.1667 198,78.5C 198.317,80.3008 198.984,80.6341 200,79.5C 200.456,80.7441 199.956,81.5774 198.5,82C 199.939,82.9906 200.939,84.324 201.5,86C 197.941,89.2575 196.274,93.0909 196.5,97.5C 190.974,97.8214 185.64,97.4881 180.5,96.5C 180.082,95.7784 179.416,95.2784 178.5,95C 180.301,94.6827 180.634,94.016 179.5,93C 180.744,92.5439 181.577,93.0439 182,94.5C 182.333,93.5 182.667,92.5 183,91.5C 183.667,95.5 184.333,95.5 185,91.5C 185.667,95.5 186.333,95.5 187,91.5C 187.388,93.7147 188.388,95.048 190,95.5C 190.333,94.8333 190.667,94.1667 191,93.5C 191.451,95.9288 192.285,96.0955 193.5,94C 192.167,93 190.833,92 189.5,91C 190.211,88.2037 190.878,85.3704 191.5,82.5C 190.91,81.2011 189.91,80.3678 188.5,80C 189.308,79.6924 189.975,79.1924 190.5,78.5C 189.653,77.1552 188.487,76.1552 187,75.5C 184.792,70.3657 185.458,69.6991 189,73.5C 190.011,72.6634 191.178,72.33 192.5,72.5C 193.036,74.9667 193.536,77.3 194,79.5C 194.376,76.9899 195.21,74.6565 196.5,72.5C 197.919,73.0047 198.585,74.0047 198.5,75.5 Z"/></g>
<g><path style="opacity:0.824" fill="#23bef0" d="M 71.5,81.5 C 71.2624,83.4044 70.2624,84.7377 68.5,85.5C 68.7376,83.5956 69.7376,82.2623 71.5,81.5 Z"/></g>
<g><path style="opacity:0.924" fill="#23c0f1" d="M 40.5,75.5 C 43.5503,80.4088 46.8836,85.2421 50.5,90C 49.8333,90.1667 49.1667,90.3333 48.5,90.5C 40.9712,86.9083 33.9712,82.5749 27.5,77.5C 33.1025,79.9693 38.4358,82.9693 43.5,86.5C 43.8333,86.3333 44.1667,86.1667 44.5,86C 43.2899,84.9609 42.2899,83.7942 41.5,82.5C 42.2389,82.631 42.9056,82.4643 43.5,82C 42.086,80.0065 41.086,77.8398 40.5,75.5 Z"/></g>
<g><path style="opacity:1" fill="#23b9eb" d="M 328.5,38.5 C 330.456,38.133 332.456,37.7996 334.5,37.5C 337.297,39.3355 340.297,40.0022 343.5,39.5C 343.023,40.4776 342.357,41.3109 341.5,42C 342.014,44.4153 343.014,45.7486 344.5,46C 344.355,46.772 344.022,47.4387 343.5,48C 345.087,48.8624 346.754,49.5291 348.5,50C 347.833,50.3333 347.167,50.6667 346.5,51C 349.356,52.4293 349.856,54.2626 348,56.5C 346.636,55.7417 345.469,56.2417 344.5,58C 345.598,58.7697 345.598,59.603 344.5,60.5C 344.366,64.1526 342.7,65.6526 339.5,65C 341.049,66.214 342.215,67.714 343,69.5C 343.333,68.8333 343.667,68.1667 344,67.5C 344.579,69.6487 345.079,71.8154 345.5,74C 343.918,75.7752 343.251,77.6086 343.5,79.5C 344.665,80.5836 345.998,81.4169 347.5,82C 347.167,82.3333 346.833,82.6667 346.5,83C 347.284,85.9979 348.951,86.8312 351.5,85.5C 350.975,84.8076 350.308,84.3076 349.5,84C 352.064,83.5498 353.564,84.7164 354,87.5C 354.309,86.2341 354.809,85.0674 355.5,84C 354.333,82.8333 353.167,81.6667 352,80.5C 351.692,81.3081 351.192,81.9747 350.5,82.5C 349.3,81.4688 347.966,80.6355 346.5,80C 347.756,79.5831 348.423,78.7498 348.5,77.5C 349.623,75.4816 349.623,73.4816 348.5,71.5C 350.611,70.1515 352.445,70.4848 354,72.5C 354.785,74.286 355.951,75.786 357.5,77C 357.167,77.3333 356.833,77.6667 356.5,78C 357.833,79.3333 359.167,80.6667 360.5,82C 359.572,82.3879 358.905,83.0546 358.5,84C 359.535,85.2737 360.702,86.4404 362,87.5C 362.658,89.108 362.158,90.2747 360.5,91C 361.719,93.2782 363.052,95.4449 364.5,97.5C 351.167,97.5 337.833,97.5 324.5,97.5C 325.279,95.5801 325.613,93.7468 325.5,92C 324.833,90.6667 323.833,89.6667 322.5,89C 324.779,88.5272 326.779,87.5272 328.5,86C 327.251,84.1759 326.085,84.3426 325,86.5C 322.979,84.3488 323.479,82.8488 326.5,82C 325.978,79.7105 326.645,77.5438 328.5,75.5C 328,74.5 327.5,73.5 327,72.5C 326.577,73.9561 325.744,74.4561 324.5,74C 324.833,73.6667 325.167,73.3333 325.5,73C 324.313,71.9805 323.313,70.8139 322.5,69.5C 323.83,66.1512 323.33,65.8179 321,68.5C 319.848,66.3513 318.348,64.518 316.5,63C 319.763,62.1305 320.096,60.7972 317.5,59C 318.641,58.2588 318.641,57.4255 317.5,56.5C 318.025,55.8076 318.692,55.3076 319.5,55C 317.063,53.7212 316.563,52.2212 318,50.5C 320.066,52.3104 321.9,54.3104 323.5,56.5C 324.672,56.0814 325.672,55.4147 326.5,54.5C 326.026,52.2072 326.692,50.0406 328.5,48C 327.627,45.0507 328.294,42.3841 330.5,40C 329.956,39.2828 329.289,38.7828 328.5,38.5 Z"/></g>
<g><path style="opacity:1" fill="#25cbfb" d="M 564.5,87.5 C 612.33,88.4988 660.33,88.8322 708.5,88.5C 704.914,90.0428 701.08,91.0428 697,91.5C 695.901,88.9557 694.735,88.9557 693.5,91.5C 695.421,92.3239 696.754,93.6572 697.5,95.5C 650.664,95.8321 603.997,95.4988 557.5,94.5C 560.222,92.4447 562.555,90.1114 564.5,87.5 Z"/></g>
<g><path style="opacity:1" fill="#25d1fd" d="M 710.5,88.5 C 774.833,88.5 839.167,88.5 903.5,88.5C 902.89,89.391 902.557,90.391 902.5,91.5C 902.5,92.1667 902.167,92.5 901.5,92.5C 900.094,92.9731 899.427,93.9731 899.5,95.5C 898.974,97.2303 897.974,98.5637 896.5,99.5C 894.738,100.262 893.738,101.596 893.5,103.5C 892.094,103.973 891.427,104.973 891.5,106.5C 890.974,108.23 889.974,109.564 888.5,110.5C 887.094,110.973 886.427,111.973 886.5,113.5C 886.5,114.167 886.167,114.5 885.5,114.5C 884.094,114.973 883.427,115.973 883.5,117.5C 882.974,119.23 881.974,120.564 880.5,121.5C 879.094,121.973 878.427,122.973 878.5,124.5C 878.5,125.167 878.167,125.5 877.5,125.5C 876.094,125.973 875.427,126.973 875.5,128.5C 874.974,130.23 873.974,131.564 872.5,132.5C 871.094,132.973 870.427,133.973 870.5,135.5C 870.5,136.167 870.167,136.5 869.5,136.5C 868.094,136.973 867.427,137.973 867.5,139.5C 865.853,142.473 863.853,145.14 861.5,147.5C 860.094,147.973 859.427,148.973 859.5,150.5C 855.554,157.405 850.887,163.738 845.5,169.5C 844.094,169.973 843.427,170.973 843.5,172.5C 838.187,180.472 832.521,188.139 826.5,195.5C 825.094,195.973 824.427,196.973 824.5,198.5C 822.066,202.382 819.399,206.048 816.5,209.5C 782.456,209.234 749.623,209.234 718,209.5C 717.667,208.833 717.333,208.167 717,207.5C 716.722,208.416 716.222,209.082 715.5,209.5C 715.429,206.348 714.095,204.014 711.5,202.5C 744.835,202.667 778.168,202.5 811.5,202C 812.044,201.283 812.711,200.783 813.5,200.5C 814.906,200.027 815.573,199.027 815.5,197.5C 815.5,196.833 815.833,196.5 816.5,196.5C 817.906,196.027 818.573,195.027 818.5,193.5C 819.026,191.77 820.026,190.436 821.5,189.5C 822.906,189.027 823.573,188.027 823.5,186.5C 823.5,185.833 823.833,185.5 824.5,185.5C 825.906,185.027 826.573,184.027 826.5,182.5C 826.5,181.833 826.833,181.5 827.5,181.5C 828.906,181.027 829.573,180.027 829.5,178.5C 830.906,178.027 831.573,177.027 831.5,175.5C 831.5,174.833 831.833,174.5 832.5,174.5C 833.906,174.027 834.573,173.027 834.5,171.5C 834.5,170.833 834.833,170.5 835.5,170.5C 836.906,170.027 837.573,169.027 837.5,167.5C 838.026,165.77 839.026,164.436 840.5,163.5C 841.906,163.027 842.573,162.027 842.5,160.5C 842.5,159.833 842.833,159.5 843.5,159.5C 844.906,159.027 845.573,158.027 845.5,156.5C 845.5,155.833 845.833,155.5 846.5,155.5C 847.906,155.027 848.573,154.027 848.5,152.5C 849.906,152.027 850.573,151.027 850.5,149.5C 850.5,148.833 850.833,148.5 851.5,148.5C 852.906,148.027 853.573,147.027 853.5,145.5C 853.5,144.833 853.833,144.5 854.5,144.5C 855.906,144.027 856.573,143.027 856.5,141.5C 857.906,141.027 858.573,140.027 858.5,138.5C 858.5,137.833 858.833,137.5 859.5,137.5C 860.906,137.027 861.573,136.027 861.5,134.5C 861.5,133.833 861.833,133.5 862.5,133.5C 863.906,133.027 864.573,132.027 864.5,130.5C 865.906,130.027 866.573,129.027 866.5,127.5C 866.5,126.833 866.833,126.5 867.5,126.5C 868.906,126.027 869.573,125.027 869.5,123.5C 869.5,122.833 869.833,122.5 870.5,122.5C 871.906,122.027 872.573,121.027 872.5,119.5C 872.5,118.833 872.833,118.5 873.5,118.5C 874.906,118.027 875.573,117.027 875.5,115.5C 876.906,115.027 877.573,114.027 877.5,112.5C 877.5,111.833 877.833,111.5 878.5,111.5C 879.906,111.027 880.573,110.027 880.5,108.5C 880.5,107.833 880.833,107.5 881.5,107.5C 882.906,107.027 883.573,106.027 883.5,104.5C 884.906,104.027 885.573,103.027 885.5,101.5C 885.5,100.833 885.833,100.5 886.5,100.5C 887.906,100.027 888.573,99.0269 888.5,97.5C 889.043,97.44 889.376,97.1067 889.5,96.5C 840.599,95.831 791.766,95.1644 743,94.5C 735.766,95.0012 728.599,95.3345 721.5,95.5C 720.632,89.9687 719.798,89.6354 719,94.5C 718.333,89.1667 717.667,89.1667 717,94.5C 716.667,92.8333 716.333,91.1667 716,89.5C 715.333,92.1667 714.667,92.1667 714,89.5C 712.783,91.6124 711.617,91.2791 710.5,88.5 Z"/></g>
<g><path style="opacity:0.11" fill="#23bff2" d="M 903.5,88.5 C 903.833,88.5 904.167,88.5 904.5,88.5C 904.5,89.1667 904.5,89.8333 904.5,90.5C 903.833,90.8333 903.167,91.1667 902.5,91.5C 902.557,90.391 902.89,89.391 903.5,88.5 Z"/></g>
<g><path style="opacity:1" fill="#25cefc" d="M 708.5,88.5 C 709.167,88.5 709.833,88.5 710.5,88.5C 711.617,91.2791 712.783,91.6124 714,89.5C 714.667,92.1667 715.333,92.1667 716,89.5C 716.333,91.1667 716.667,92.8333 717,94.5C 717.667,89.1667 718.333,89.1667 719,94.5C 719.798,89.6354 720.632,89.9687 721.5,95.5C 713.5,95.5 705.5,95.5 697.5,95.5C 696.754,93.6572 695.421,92.3239 693.5,91.5C 694.735,88.9557 695.901,88.9557 697,91.5C 701.08,91.0428 704.914,90.0428 708.5,88.5 Z"/></g>
<g><path style="opacity:1" fill="#23bff1" d="M 63.5,90.5 C 62.9202,92.7488 61.5869,94.4154 59.5,95.5C 60.0798,93.2512 61.4131,91.5846 63.5,90.5 Z"/></g>
<g><path style="opacity:0.11" fill="#23bff1" d="M 901.5,92.5 C 901.573,94.0269 900.906,95.0269 899.5,95.5C 899.427,93.9731 900.094,92.9731 901.5,92.5 Z"/></g>
<g><path style="opacity:0.514" fill="#23c4f5" d="M 557.5,94.5 C 603.997,95.4988 650.664,95.8321 697.5,95.5C 705.5,95.5 713.5,95.5 721.5,95.5C 728.599,95.3345 735.766,95.0012 743,94.5C 791.766,95.1644 840.599,95.831 889.5,96.5C 889.376,97.1067 889.043,97.44 888.5,97.5C 777.667,96.3341 666.667,96.1674 555.5,97C 554.956,97.7172 554.289,98.2172 553.5,98.5C 553.5,98.1667 553.5,97.8333 553.5,97.5C 554.436,96.0256 555.77,95.0256 557.5,94.5 Z"/></g>
<g><path style="opacity:0.329" fill="#23c1ef" d="M 58.5,96.5 C 77.9929,97.4971 97.6596,97.8304 117.5,97.5C 115.285,98.2679 112.952,98.9346 110.5,99.5C 92.9954,98.8333 75.3287,98.1667 57.5,97.5C 57.6236,96.8933 57.9569,96.56 58.5,96.5 Z"/></g>
<g><path style="opacity:1" fill="#22b4e6" d="M 117.5,97.5 C 118.5,97.5 119.5,97.5 120.5,97.5C 120.5,97.8333 120.5,98.1667 120.5,98.5C 100.551,129.111 80.2178,159.444 59.5,189.5C 58.5768,188.697 57.5768,188.53 56.5,189C 53.9453,190.555 52.1119,192.722 51,195.5C 50.5,194.333 49.6667,193.5 48.5,193C 51.6984,192.043 52.6984,190.209 51.5,187.5C 70.6738,157.814 90.3405,128.48 110.5,99.5C 112.952,98.9346 115.285,98.2679 117.5,97.5 Z"/></g>
<g><path style="opacity:0.329" fill="#24c2ef" d="M 180.5,96.5 C 185.64,97.4881 190.974,97.8214 196.5,97.5C 211.068,97.6227 225.401,97.2893 239.5,96.5C 241.948,97.4731 244.615,97.8064 247.5,97.5C 272.639,97.3729 298.306,97.3729 324.5,97.5C 337.833,97.5 351.167,97.5 364.5,97.5C 427.17,97.4551 490.17,97.4551 553.5,97.5C 553.5,97.8333 553.5,98.1667 553.5,98.5C 409.167,98.5 264.833,98.5 120.5,98.5C 120.5,98.1667 120.5,97.8333 120.5,97.5C 141.084,97.4265 161.084,97.0931 180.5,96.5 Z"/></g>
<g><path style="opacity:1" fill="#23bff1" d="M 888.5,97.5 C 888.573,99.0269 887.906,100.027 886.5,100.5C 886.427,98.9731 887.094,97.9731 888.5,97.5 Z"/></g>
<g><path style="opacity:0.11" fill="#23c0f3" d="M 896.5,99.5 C 896.262,101.404 895.262,102.738 893.5,103.5C 893.738,101.596 894.738,100.262 896.5,99.5 Z"/></g>
<g><path style="opacity:1" fill="#23c0f3" d="M 885.5,101.5 C 885.573,103.027 884.906,104.027 883.5,104.5C 883.427,102.973 884.094,101.973 885.5,101.5 Z"/></g>
<g><path style="opacity:0.11" fill="#23bff1" d="M 893.5,103.5 C 893.573,105.027 892.906,106.027 891.5,106.5C 891.427,104.973 892.094,103.973 893.5,103.5 Z"/></g>
<g><path style="opacity:0.824" fill="#23c1f2" d="M 883.5,104.5 C 883.573,106.027 882.906,107.027 881.5,107.5C 881.427,105.973 882.094,104.973 883.5,104.5 Z"/></g>
<g><path style="opacity:1" fill="#23bff1" d="M 880.5,108.5 C 880.573,110.027 879.906,111.027 878.5,111.5C 878.427,109.973 879.094,108.973 880.5,108.5 Z"/></g>
<g><path style="opacity:0.11" fill="#23bff2" d="M 888.5,110.5 C 888.573,112.027 887.906,113.027 886.5,113.5C 886.427,111.973 887.094,110.973 888.5,110.5 Z"/></g>
<g><path style="opacity:1" fill="#23c0f2" d="M 877.5,112.5 C 877.573,114.027 876.906,115.027 875.5,115.5C 875.427,113.973 876.094,112.973 877.5,112.5 Z"/></g>
<g><path style="opacity:0.11" fill="#23bff1" d="M 885.5,114.5 C 885.573,116.027 884.906,117.027 883.5,117.5C 883.427,115.973 884.094,114.973 885.5,114.5 Z"/></g>
<g><path style="opacity:0.824" fill="#23c1f2" d="M 875.5,115.5 C 875.573,117.027 874.906,118.027 873.5,118.5C 873.427,116.973 874.094,115.973 875.5,115.5 Z"/></g>
<g><path style="opacity:1" fill="#23bff1" d="M 872.5,119.5 C 872.573,121.027 871.906,122.027 870.5,122.5C 870.427,120.973 871.094,119.973 872.5,119.5 Z"/></g>
<g><path style="opacity:0.11" fill="#23bef2" d="M 880.5,121.5 C 880.573,123.027 879.906,124.027 878.5,124.5C 878.427,122.973 879.094,121.973 880.5,121.5 Z"/></g>
<g><path style="opacity:1" fill="#23bff1" d="M 869.5,123.5 C 869.573,125.027 868.906,126.027 867.5,126.5C 867.427,124.973 868.094,123.973 869.5,123.5 Z"/></g>
<g><path style="opacity:0.11" fill="#23bff1" d="M 877.5,125.5 C 877.573,127.027 876.906,128.027 875.5,128.5C 875.427,126.973 876.094,125.973 877.5,125.5 Z"/></g>
<g><path style="opacity:0.824" fill="#23bff2" d="M 866.5,127.5 C 866.573,129.027 865.906,130.027 864.5,130.5C 864.427,128.973 865.094,127.973 866.5,127.5 Z"/></g>
<g><path style="opacity:1" fill="#22b2e3" d="M 71.5,131.5 C 67.3447,132.742 63.678,134.742 60.5,137.5C 58.4068,138.045 56.4068,138.878 54.5,140C 55.636,141.53 56.636,142.863 57.5,144C 56.2899,145.039 55.2899,146.206 54.5,147.5C 53.8333,148.833 52.8333,149.833 51.5,150.5C 50.5,150.5 49.5,150.5 48.5,150.5C 48.552,148.097 48.2186,145.764 47.5,143.5C 49.4109,143.426 50.5776,142.426 51,140.5C 51.3333,140.833 51.6667,141.167 52,141.5C 52.9862,139.222 53.8195,136.889 54.5,134.5C 59.6014,132.933 64.7681,131.6 70,130.5C 70.7648,130.57 71.2648,130.903 71.5,131.5 Z"/></g>
<g><path style="opacity:0.824" fill="#23c1f2" d="M 864.5,130.5 C 864.573,132.027 863.906,133.027 862.5,133.5C 862.427,131.973 863.094,130.973 864.5,130.5 Z"/></g>
<g><path style="opacity:0.989" fill="#23bff1" d="M 72.5,131.5 C 72.1667,131.5 71.8333,131.5 71.5,131.5C 71.2648,130.903 70.7648,130.57 70,130.5C 64.7681,131.6 59.6014,132.933 54.5,134.5C 53.8195,136.889 52.9862,139.222 52,141.5C 51.6667,141.167 51.3333,140.833 51,140.5C 50.5776,142.426 49.4109,143.426 47.5,143.5C 44.4761,143.053 44.1428,142.22 46.5,141C 45.273,139.413 45.6063,138.079 47.5,137C 46.436,135.489 45.1026,135.323 43.5,136.5C 41.2362,137.219 38.9029,137.552 36.5,137.5C 48.4531,134.057 60.9531,131.057 74,128.5C 74.8333,128.667 75.6667,128.833 76.5,129C 75.3066,130.095 73.9733,130.928 72.5,131.5 Z"/></g>
<g><path style="opacity:0.11" fill="#23bef2" d="M 872.5,132.5 C 872.573,134.027 871.906,135.027 870.5,135.5C 870.427,133.973 871.094,132.973 872.5,132.5 Z"/></g>
<g><path style="opacity:1" fill="#24c6f6" d="M 71.5,131.5 C 71.8333,131.5 72.1667,131.5 72.5,131.5C 70.1667,134.5 67.5,137.167 64.5,139.5C 62.5168,139.843 61.1834,139.176 60.5,137.5C 63.678,134.742 67.3447,132.742 71.5,131.5 Z"/></g>
<g><path style="opacity:1" fill="#23bff1" d="M 861.5,134.5 C 861.573,136.027 860.906,137.027 859.5,137.5C 859.427,135.973 860.094,134.973 861.5,134.5 Z"/></g>
<g><path style="opacity:1" fill="#25d2fd" d="M 43.5,136.5 C 43.6162,139.91 41.9496,141.244 38.5,140.5C 36.4357,140.313 34.4357,139.813 32.5,139C 34.0581,138.79 35.3915,138.29 36.5,137.5C 38.9029,137.552 41.2362,137.219 43.5,136.5 Z"/></g>
<g><path style="opacity:0.986" fill="#23c0f1" d="M 60.5,137.5 C 61.1834,139.176 62.5168,139.843 64.5,139.5C 61.4607,142.54 58.1274,145.206 54.5,147.5C 55.2899,146.206 56.2899,145.039 57.5,144C 56.636,142.863 55.636,141.53 54.5,140C 56.4068,138.878 58.4068,138.045 60.5,137.5 Z"/></g>
<g><path style="opacity:0.11" fill="#23bff1" d="M 869.5,136.5 C 869.573,138.027 868.906,139.027 867.5,139.5C 867.427,137.973 868.094,136.973 869.5,136.5 Z"/></g>
<g><path style="opacity:0.974" fill="#23c0f2" d="M 36.5,137.5 C 35.3915,138.29 34.0581,138.79 32.5,139C 34.4357,139.813 36.4357,140.313 38.5,140.5C 39.9516,141.302 41.6183,141.802 43.5,142C 43.3482,143.924 43.3482,145.758 43.5,147.5C 38.6646,145.247 34.3313,142.247 30.5,138.5C 32.396,137.534 34.396,137.201 36.5,137.5 Z"/></g>
<g><path style="opacity:1" fill="#23c0f3" d="M 858.5,138.5 C 858.573,140.027 857.906,141.027 856.5,141.5C 856.427,139.973 857.094,138.973 858.5,138.5 Z"/></g>
<g><path style="opacity:1" fill="#24c7f8" d="M 47.5,143.5 C 48.2186,145.764 48.552,148.097 48.5,150.5C 49.5,150.5 50.5,150.5 51.5,150.5C 51.2172,151.289 50.7172,151.956 50,152.5C 47.3129,151.418 45.1462,149.751 43.5,147.5C 43.3482,145.758 43.3482,143.924 43.5,142C 41.6183,141.802 39.9516,141.302 38.5,140.5C 41.9496,141.244 43.6162,139.91 43.5,136.5C 45.1026,135.323 46.436,135.489 47.5,137C 45.6063,138.079 45.273,139.413 46.5,141C 44.1428,142.22 44.4761,143.053 47.5,143.5 Z"/></g>
<g><path style="opacity:0.824" fill="#23c1f2" d="M 856.5,141.5 C 856.573,143.027 855.906,144.027 854.5,144.5C 854.427,142.973 855.094,141.973 856.5,141.5 Z"/></g>
<g><path style="opacity:1" fill="#23bff1" d="M 853.5,145.5 C 853.573,147.027 852.906,148.027 851.5,148.5C 851.427,146.973 852.094,145.973 853.5,145.5 Z"/></g>
<g><path style="opacity:0.11" fill="#23bff1" d="M 861.5,147.5 C 861.573,149.027 860.906,150.027 859.5,150.5C 859.427,148.973 860.094,147.973 861.5,147.5 Z"/></g>
<g><path style="opacity:1" fill="#23bff1" d="M 850.5,149.5 C 850.573,151.027 849.906,152.027 848.5,152.5C 848.427,150.973 849.094,149.973 850.5,149.5 Z"/></g>
<g><path style="opacity:0.824" fill="#23c1f2" d="M 848.5,152.5 C 848.573,154.027 847.906,155.027 846.5,155.5C 846.427,153.973 847.094,152.973 848.5,152.5 Z"/></g>
<g><path style="opacity:1" fill="#23bff1" d="M 845.5,156.5 C 845.573,158.027 844.906,159.027 843.5,159.5C 843.427,157.973 844.094,156.973 845.5,156.5 Z"/></g>
<g><path style="opacity:1" fill="#23c0f2" d="M 842.5,160.5 C 842.573,162.027 841.906,163.027 840.5,163.5C 840.427,161.973 841.094,160.973 842.5,160.5 Z"/></g>
<g><path style="opacity:0.824" fill="#23c1f2" d="M 837.5,167.5 C 837.573,169.027 836.906,170.027 835.5,170.5C 835.427,168.973 836.094,167.973 837.5,167.5 Z"/></g>
<g><path style="opacity:0.11" fill="#23bff2" d="M 845.5,169.5 C 845.573,171.027 844.906,172.027 843.5,172.5C 843.427,170.973 844.094,169.973 845.5,169.5 Z"/></g>
<g><path style="opacity:1" fill="#23bff1" d="M 834.5,171.5 C 834.573,173.027 833.906,174.027 832.5,174.5C 832.427,172.973 833.094,171.973 834.5,171.5 Z"/></g>
<g><path style="opacity:0.824" fill="#23bff2" d="M 831.5,175.5 C 831.573,177.027 830.906,178.027 829.5,178.5C 829.427,176.973 830.094,175.973 831.5,175.5 Z"/></g>
<g><path style="opacity:0.824" fill="#23c1f2" d="M 829.5,178.5 C 829.573,180.027 828.906,181.027 827.5,181.5C 827.427,179.973 828.094,178.973 829.5,178.5 Z"/></g>
<g><path style="opacity:1" fill="#23bff1" d="M 826.5,182.5 C 826.573,184.027 825.906,185.027 824.5,185.5C 824.427,183.973 825.094,182.973 826.5,182.5 Z"/></g>
<g><path style="opacity:1" fill="#23bff2" d="M 823.5,186.5 C 823.573,188.027 822.906,189.027 821.5,189.5C 821.427,187.973 822.094,186.973 823.5,186.5 Z"/></g>
<g><path style="opacity:1" fill="#23bff1" d="M 818.5,193.5 C 818.573,195.027 817.906,196.027 816.5,196.5C 816.427,194.973 817.094,193.973 818.5,193.5 Z"/></g>
<g><path style="opacity:0.992" fill="#23bbed" d="M 51.5,187.5 C 52.6984,190.209 51.6984,192.043 48.5,193C 49.6667,193.5 50.5,194.333 51,195.5C 52.1119,192.722 53.9453,190.555 56.5,189C 57.5768,188.53 58.5768,188.697 59.5,189.5C 57.1923,193.795 54.5256,197.795 51.5,201.5C 48.8711,203.733 47.8711,206.4 48.5,209.5C 45.8127,209.664 43.146,209.497 40.5,209C 40.879,206.812 42.0457,204.645 44,202.5C 44.765,200.934 44.5983,199.601 43.5,198.5C 45.9341,194.618 48.6007,190.952 51.5,187.5 Z"/></g>
<g><path style="opacity:0.11" fill="#23bff1" d="M 826.5,195.5 C 826.573,197.027 825.906,198.027 824.5,198.5C 824.427,196.973 825.094,195.973 826.5,195.5 Z"/></g>
<g><path style="opacity:1" fill="#23bff1" d="M 815.5,197.5 C 815.573,199.027 814.906,200.027 813.5,200.5C 813.427,198.973 814.094,197.973 815.5,197.5 Z"/></g>
<g><path style="opacity:1" fill="#24c0f2" d="M 51.5,201.5 C 155.665,202.499 259.999,202.833 364.5,202.5C 365.855,204.68 365.689,206.68 364,208.5C 362.447,204.701 361.114,204.701 360,208.5C 359.667,207.833 359.333,207.167 359,206.5C 357.194,209.684 355.194,210.017 353,207.5C 352.261,208.574 351.261,209.241 350,209.5C 347.181,209.399 344.348,209.399 341.5,209.5C 340.353,209.182 339.519,208.516 339,207.5C 338.667,208.167 338.333,208.833 338,209.5C 336.538,208.965 334.872,208.965 333,209.5C 331.342,209.325 330.009,208.658 329,207.5C 328.612,208.428 327.945,209.095 327,209.5C 325.85,208.576 324.85,208.576 324,209.5C 323.333,206.833 322.667,206.833 322,209.5C 234.582,209.276 143.415,209.276 48.5,209.5C 47.8711,206.4 48.8711,203.733 51.5,201.5 Z"/></g>
<g><path style="opacity:1" fill="#24cafa" d="M 370.5,202.5 C 481.167,202.5 591.833,202.5 702.5,202.5C 701.841,205.408 701.007,205.742 700,203.5C 698.192,203.888 696.525,203.888 695,203.5C 693.167,204.667 691.667,206.167 690.5,208C 691.056,208.383 691.389,208.883 691.5,209.5C 585.546,209.302 481.88,209.302 380.5,209.5C 379.922,207.74 378.922,205.74 377.5,203.5C 376.667,204.5 375.833,205.5 375,206.5C 374.716,204.114 373.716,203.448 372,204.5C 371.283,203.956 370.783,203.289 370.5,202.5 Z"/></g>
<g><path style="opacity:1" fill="#25cefc" d="M 702.5,202.5 C 705.5,202.5 708.5,202.5 711.5,202.5C 714.095,204.014 715.429,206.348 715.5,209.5C 707.686,209.136 699.686,209.136 691.5,209.5C 691.389,208.883 691.056,208.383 690.5,208C 691.667,206.167 693.167,204.667 695,203.5C 696.525,203.888 698.192,203.888 700,203.5C 701.007,205.742 701.841,205.408 702.5,202.5 Z"/></g>
<g><path style="opacity:0.514" fill="#23c4f5" d="M 43.5,198.5 C 44.5983,199.601 44.765,200.934 44,202.5C 42.0457,204.645 40.879,206.812 40.5,209C 43.146,209.497 45.8127,209.664 48.5,209.5C 143.415,209.276 234.582,209.276 322,209.5C 322.667,206.833 323.333,206.833 324,209.5C 324.85,208.576 325.85,208.576 327,209.5C 327.945,209.095 328.612,208.428 329,207.5C 330.009,208.658 331.342,209.325 333,209.5C 334.872,208.965 336.538,208.965 338,209.5C 338.333,208.833 338.667,208.167 339,207.5C 339.519,208.516 340.353,209.182 341.5,209.5C 344.348,209.399 347.181,209.399 350,209.5C 351.261,209.241 352.261,208.574 353,207.5C 355.194,210.017 357.194,209.684 359,206.5C 359.333,207.167 359.667,207.833 360,208.5C 361.114,204.701 362.447,204.701 364,208.5C 365.689,206.68 365.855,204.68 364.5,202.5C 366.5,202.5 368.5,202.5 370.5,202.5C 370.783,203.289 371.283,203.956 372,204.5C 373.716,203.448 374.716,204.114 375,206.5C 375.833,205.5 376.667,204.5 377.5,203.5C 378.922,205.74 379.922,207.74 380.5,209.5C 481.88,209.302 585.546,209.302 691.5,209.5C 699.686,209.136 707.686,209.136 715.5,209.5C 716.222,209.082 716.722,208.416 717,207.5C 717.333,208.167 717.667,208.833 718,209.5C 749.623,209.234 782.456,209.234 816.5,209.5C 816.5,209.833 816.5,210.167 816.5,210.5C 556.5,210.5 296.5,210.5 36.5,210.5C 38.317,206.199 40.6503,202.199 43.5,198.5 Z"/></g>
</svg>
