<?xml version="1.0" encoding="UTF-8"?>
<!DOCTYPE svg PUBLIC "-//W3C//DTD SVG 1.1//EN" "http://www.w3.org/Graphics/SVG/1.1/DTD/svg11.dtd">
<svg xmlns="http://www.w3.org/2000/svg" version="1.1" width="810px" height="483px" style="shape-rendering:geometricPrecision; text-rendering:geometricPrecision; image-rendering:optimizeQuality; fill-rule:evenodd; clip-rule:evenodd" xmlns:xlink="http://www.w3.org/1999/xlink">
<g><path style="opacity:0.756" fill="#00fffe" d="M 57.5,-0.5 C 113.167,-0.5 168.833,-0.5 224.5,-0.5C 224.5,1.16667 224.5,2.83333 224.5,4.5C 400.5,4.33333 576.5,4.5 752.5,5C 768,21.1667 783.5,37.3333 799,53.5C 799.667,51.8333 799.667,50.1667 799,48.5C 785,34.5 771,20.5 757,6.5C 756.517,5.55198 756.351,4.55198 756.5,3.5C 757.552,3.35055 758.552,3.51722 759.5,4C 773.667,18.1667 787.833,32.3333 802,46.5C 804.022,56.022 804.855,65.6886 804.5,75.5C 799.167,75.5 793.833,75.5 788.5,75.5C 788.5,130.5 788.5,185.5 788.5,240.5C 793.762,240.195 798.928,240.529 804,241.5C 804.5,281.165 804.667,320.832 804.5,360.5C 806.167,360.5 807.833,360.5 809.5,360.5C 809.5,381.5 809.5,402.5 809.5,423.5C 790.14,443.527 770.473,463.194 750.5,482.5C 750.167,482.5 749.833,482.5 749.5,482.5C 748.833,481.167 748.167,481.167 747.5,482.5C 747.167,482.5 746.833,482.5 746.5,482.5C 746.167,481.167 745.833,481.167 745.5,482.5C 745.167,482.5 744.833,482.5 744.5,482.5C 743.833,481.167 743.167,481.167 742.5,482.5C 742.167,482.5 741.833,482.5 741.5,482.5C 741.167,481.167 740.833,481.167 740.5,482.5C 740.167,482.5 739.833,482.5 739.5,482.5C 738.833,481.167 738.167,481.167 737.5,482.5C 737.167,482.5 736.833,482.5 736.5,482.5C 736.167,481.167 735.833,481.167 735.5,482.5C 735.167,482.5 734.833,482.5 734.5,482.5C 733.833,481.167 733.167,481.167 732.5,482.5C 732.167,482.5 731.833,482.5 731.5,482.5C 731.167,481.167 730.833,481.167 730.5,482.5C 730.167,482.5 729.833,482.5 729.5,482.5C 728.833,481.167 728.167,481.167 727.5,482.5C 727.167,482.5 726.833,482.5 726.5,482.5C 726.167,481.167 725.833,481.167 725.5,482.5C 725.167,482.5 724.833,482.5 724.5,482.5C 723.833,481.167 723.167,481.167 722.5,482.5C 722.167,482.5 721.833,482.5 721.5,482.5C 721.167,481.167 720.833,481.167 720.5,482.5C 720.167,482.5 719.833,482.5 719.5,482.5C 718.833,481.167 718.167,481.167 717.5,482.5C 717.167,482.5 716.833,482.5 716.5,482.5C 716.167,481.167 715.833,481.167 715.5,482.5C 715.167,482.5 714.833,482.5 714.5,482.5C 713.833,481.167 713.167,481.167 712.5,482.5C 712.167,482.5 711.833,482.5 711.5,482.5C 711.167,481.167 710.833,481.167 710.5,482.5C 710.167,482.5 709.833,482.5 709.5,482.5C 708.833,481.167 708.167,481.167 707.5,482.5C 707.167,482.5 706.833,482.5 706.5,482.5C 706.167,481.167 705.833,481.167 705.5,482.5C 705.167,482.5 704.833,482.5 704.5,482.5C 703.833,481.167 703.167,481.167 702.5,482.5C 702.167,482.5 701.833,482.5 701.5,482.5C 701.167,481.167 700.833,481.167 700.5,482.5C 700.167,482.5 699.833,482.5 699.5,482.5C 698.833,481.167 698.167,481.167 697.5,482.5C 697.167,482.5 696.833,482.5 696.5,482.5C 696.167,481.167 695.833,481.167 695.5,482.5C 695.167,482.5 694.833,482.5 694.5,482.5C 693.833,481.167 693.167,481.167 692.5,482.5C 692.167,482.5 691.833,482.5 691.5,482.5C 691.167,481.167 690.833,481.167 690.5,482.5C 690.167,482.5 689.833,482.5 689.5,482.5C 688.833,481.167 688.167,481.167 687.5,482.5C 687.167,482.5 686.833,482.5 686.5,482.5C 686.167,481.167 685.833,481.167 685.5,482.5C 685.167,482.5 684.833,482.5 684.5,482.5C 683.833,481.167 683.167,481.167 682.5,482.5C 682.167,482.5 681.833,482.5 681.5,482.5C 681.167,481.167 680.833,481.167 680.5,482.5C 680.167,482.5 679.833,482.5 679.5,482.5C 678.833,481.167 678.167,481.167 677.5,482.5C 677.167,482.5 676.833,482.5 676.5,482.5C 676.167,481.167 675.833,481.167 675.5,482.5C 675.167,482.5 674.833,482.5 674.5,482.5C 673.833,481.167 673.167,481.167 672.5,482.5C 672.167,482.5 671.833,482.5 671.5,482.5C 671.167,481.167 670.833,481.167 670.5,482.5C 670.167,482.5 669.833,482.5 669.5,482.5C 668.833,481.167 668.167,481.167 667.5,482.5C 667.167,482.5 666.833,482.5 666.5,482.5C 666.167,481.167 665.833,481.167 665.5,482.5C 665.167,482.5 664.833,482.5 664.5,482.5C 663.833,481.167 663.167,481.167 662.5,482.5C 662.167,482.5 661.833,482.5 661.5,482.5C 661.167,481.167 660.833,481.167 660.5,482.5C 660.167,482.5 659.833,482.5 659.5,482.5C 658.833,481.167 658.167,481.167 657.5,482.5C 657.167,482.5 656.833,482.5 656.5,482.5C 656.167,481.167 655.833,481.167 655.5,482.5C 655.167,482.5 654.833,482.5 654.5,482.5C 653.833,481.167 653.167,481.167 652.5,482.5C 652.167,482.5 651.833,482.5 651.5,482.5C 651.167,481.167 650.833,481.167 650.5,482.5C 650.167,482.5 649.833,482.5 649.5,482.5C 648.833,481.167 648.167,481.167 647.5,482.5C 647.167,482.5 646.833,482.5 646.5,482.5C 646.167,481.167 645.833,481.167 645.5,482.5C 645.167,482.5 644.833,482.5 644.5,482.5C 643.833,481.167 643.167,481.167 642.5,482.5C 642.167,482.5 641.833,482.5 641.5,482.5C 641.167,481.167 640.833,481.167 640.5,482.5C 640.167,482.5 639.833,482.5 639.5,482.5C 638.833,481.167 638.167,481.167 637.5,482.5C 637.167,482.5 636.833,482.5 636.5,482.5C 636.167,481.167 635.833,481.167 635.5,482.5C 635.167,482.5 634.833,482.5 634.5,482.5C 633.833,481.167 633.167,481.167 632.5,482.5C 632.167,482.5 631.833,482.5 631.5,482.5C 631.167,481.167 630.833,481.167 630.5,482.5C 630.167,482.5 629.833,482.5 629.5,482.5C 628.833,481.167 628.167,481.167 627.5,482.5C 627.167,482.5 626.833,482.5 626.5,482.5C 626.167,481.167 625.833,481.167 625.5,482.5C 625.167,482.5 624.833,482.5 624.5,482.5C 623.833,481.167 623.167,481.167 622.5,482.5C 622.167,482.5 621.833,482.5 621.5,482.5C 621.167,481.167 620.833,481.167 620.5,482.5C 620.167,482.5 619.833,482.5 619.5,482.5C 618.833,481.167 618.167,481.167 617.5,482.5C 617.167,482.5 616.833,482.5 616.5,482.5C 616.167,481.167 615.833,481.167 615.5,482.5C 615.167,482.5 614.833,482.5 614.5,482.5C 613.833,481.167 613.167,481.167 612.5,482.5C 612.167,482.5 611.833,482.5 611.5,482.5C 611.167,481.167 610.833,481.167 610.5,482.5C 610.167,482.5 609.833,482.5 609.5,482.5C 608.833,481.167 608.167,481.167 607.5,482.5C 607.167,482.5 606.833,482.5 606.5,482.5C 606.167,481.167 605.833,481.167 605.5,482.5C 605.167,482.5 604.833,482.5 604.5,482.5C 603.833,481.167 603.167,481.167 602.5,482.5C 602.167,482.5 601.833,482.5 601.5,482.5C 601.167,481.167 600.833,481.167 600.5,482.5C 600.167,482.5 599.833,482.5 599.5,482.5C 598.833,481.167 598.167,481.167 597.5,482.5C 597.167,482.5 596.833,482.5 596.5,482.5C 596.167,481.167 595.833,481.167 595.5,482.5C 595.167,482.5 594.833,482.5 594.5,482.5C 593.833,481.167 593.167,481.167 592.5,482.5C 592.167,482.5 591.833,482.5 591.5,482.5C 591.167,481.167 590.833,481.167 590.5,482.5C 590.167,482.5 589.833,482.5 589.5,482.5C 588.833,481.167 588.167,481.167 587.5,482.5C 587.167,482.5 586.833,482.5 586.5,482.5C 586.167,481.167 585.833,481.167 585.5,482.5C 585.167,482.5 584.833,482.5 584.5,482.5C 583.833,481.167 583.167,481.167 582.5,482.5C 582.167,482.5 581.833,482.5 581.5,482.5C 581.167,481.167 580.833,481.167 580.5,482.5C 580.167,482.5 579.833,482.5 579.5,482.5C 578.833,481.167 578.167,481.167 577.5,482.5C 577.167,482.5 576.833,482.5 576.5,482.5C 576.167,481.167 575.833,481.167 575.5,482.5C 575.167,482.5 574.833,482.5 574.5,482.5C 573.833,481.167 573.167,481.167 572.5,482.5C 572.167,482.5 571.833,482.5 571.5,482.5C 569.028,481.358 568.028,479.358 568.5,476.5C 398.833,476.667 229.166,476.5 59.5,476C 43.6667,460.167 27.8333,444.333 12,428.5C 11.1923,430.579 11.359,432.579 12.5,434.5C 26.8194,448.319 40.9861,462.319 55,476.5C 55.4828,477.448 55.6495,478.448 55.5,479.5C 52.5379,479.045 49.8713,477.879 47.5,476C 47.8333,475.667 48.1667,475.333 48.5,475C 47.0257,473.684 45.359,472.684 43.5,472C 43.8333,471.667 44.1667,471.333 44.5,471C 43.0257,469.684 41.359,468.684 39.5,468C 39.8333,467.667 40.1667,467.333 40.5,467C 39.0257,465.684 37.359,464.684 35.5,464C 35.8333,463.667 36.1667,463.333 36.5,463C 35.0257,461.684 33.359,460.684 31.5,460C 31.8333,459.667 32.1667,459.333 32.5,459C 28.3819,455.036 24.0486,451.37 19.5,448C 19.8333,447.667 20.1667,447.333 20.5,447C 19.0257,445.684 17.359,444.684 15.5,444C 15.8333,443.667 16.1667,443.333 16.5,443C 15.0257,441.684 13.359,440.684 11.5,440C 11.8333,439.667 12.1667,439.333 12.5,439C 11.354,438.355 10.354,437.522 9.5,436.5C 8.67346,432.541 8.17346,428.541 8,424.5C 3.52756,419.485 2.69422,413.985 5.5,408C 10.5,407.667 15.5,407.333 20.5,407C 20.4913,352.374 20.4913,297.541 20.5,242.5C 15.1667,242.5 9.83333,242.5 4.5,242.5C 4.5,201.5 4.5,160.5 4.5,119.5C 2.70848,119.634 1.04181,119.301 -0.5,118.5C -0.5,98.1667 -0.5,77.8333 -0.5,57.5C 18.4459,37.8874 37.7792,18.5541 57.5,-0.5 Z M 777.5,435.5 C 773.812,441.188 769.145,445.855 763.5,449.5C 758.083,455.091 752.75,460.925 747.5,467C 746.333,467.167 745.167,467.333 744,467.5C 716.18,467.51 688.347,467.177 660.5,466.5C 659.212,468.475 657.545,468.475 655.5,466.5C 627.167,467.833 598.833,467.833 570.5,466.5C 568.914,468.173 568.247,470.173 568.5,472.5C 399.166,472.667 229.833,472.5 60.5,472C 43.3333,454.833 26.1667,437.667 9,420.5C 8.50166,417.183 8.33499,413.85 8.5,410.5C 11.4877,410.439 14.3211,411.105 17,412.5C 19.059,411.382 21.2257,410.715 23.5,410.5C 23.6667,353.832 23.5,297.166 23,240.5C 18.2633,239.531 13.43,239.197 8.5,239.5C 8.5,199.5 8.5,159.5 8.5,119.5C 9.83333,119.5 11.1667,119.5 12.5,119.5C 12.3334,100.497 12.5001,81.4971 13,62.5C 29.5,46 46,29.5 62.5,13C 66.0669,11.9246 69.0669,12.758 71.5,15.5C 71.9976,14.3966 72.3309,13.3966 72.5,12.5C 73.8943,14.984 75.3943,14.984 77,12.5C 77.9503,13.0223 78.7836,13.689 79.5,14.5C 81.1667,11.8333 82.8333,11.8333 84.5,14.5C 86.1667,11.8333 87.8333,11.8333 89.5,14.5C 91.1667,11.8333 92.8333,11.8333 94.5,14.5C 96.1667,11.8333 97.8333,11.8333 99.5,14.5C 101.167,11.8333 102.833,11.8333 104.5,14.5C 106.167,11.8333 107.833,11.8333 109.5,14.5C 111.167,11.8333 112.833,11.8333 114.5,14.5C 116.167,11.8333 117.833,11.8333 119.5,14.5C 121.167,11.8333 122.833,11.8333 124.5,14.5C 126.167,11.8333 127.833,11.8333 129.5,14.5C 131.167,11.8333 132.833,11.8333 134.5,14.5C 136.167,11.8333 137.833,11.8333 139.5,14.5C 141.167,11.8333 142.833,11.8333 144.5,14.5C 146.167,11.8333 147.833,11.8333 149.5,14.5C 151.167,11.8333 152.833,11.8333 154.5,14.5C 156.167,11.8333 157.833,11.8333 159.5,14.5C 161.167,11.8333 162.833,11.8333 164.5,14.5C 166.167,11.8333 167.833,11.8333 169.5,14.5C 171.167,11.8333 172.833,11.8333 174.5,14.5C 176.167,11.8333 177.833,11.8333 179.5,14.5C 181.167,11.8333 182.833,11.8333 184.5,14.5C 186.167,11.8333 187.833,11.8333 189.5,14.5C 191.167,11.8333 192.833,11.8333 194.5,14.5C 196.167,11.8333 197.833,11.8333 199.5,14.5C 201.167,11.8333 202.833,11.8333 204.5,14.5C 206.167,11.8333 207.833,11.8333 209.5,14.5C 211.167,11.8333 212.833,11.8333 214.5,14.5C 216.167,11.8333 217.833,11.8333 219.5,14.5C 221.167,11.8333 222.833,11.8333 224.5,14.5C 225.706,12.5159 225.706,10.5159 224.5,8.5C 399.832,7.33334 575.166,7.16667 750.5,8C 767.278,25.4469 784.112,42.9469 801,60.5C 801.499,64.4862 801.666,68.4862 801.5,72.5C 796.238,72.1953 791.072,72.5286 786,73.5C 785.5,130.166 785.333,186.832 785.5,243.5C 787.167,243.5 788.833,243.5 790.5,243.5C 790.5,244.5 790.5,245.5 790.5,246.5C 792.288,246.785 793.955,246.452 795.5,245.5C 795.291,244.914 794.957,244.414 794.5,244C 796.81,243.503 799.143,243.337 801.5,243.5C 801.5,282.5 801.5,321.5 801.5,360.5C 799.833,360.5 798.167,360.5 796.5,360.5C 796.667,379.836 796.5,399.17 796,418.5C 790.257,424.684 784.09,430.351 777.5,435.5 Z"/></g>
<g><path style="opacity:0.39" fill="#00fffe" d="M 228.5,9.5 C 229.649,9.79106 230.316,10.6244 230.5,12C 230.167,12.8333 229.833,13.6667 229.5,14.5C 228.548,12.9547 228.215,11.288 228.5,9.5 Z"/></g>
<g><path style="opacity:0.39" fill="#00fffe" d="M 233.5,9.5 C 234.649,9.79106 235.316,10.6244 235.5,12C 235.167,12.8333 234.833,13.6667 234.5,14.5C 233.548,12.9547 233.215,11.288 233.5,9.5 Z"/></g>
<g><path style="opacity:0.35" fill="#00fffe" d="M 238.5,9.5 C 239.649,9.79106 240.316,10.6244 240.5,12C 240.167,12.8333 239.833,13.6667 239.5,14.5C 238.548,12.9547 238.215,11.288 238.5,9.5 Z"/></g>
<g><path style="opacity:0.39" fill="#00fffe" d="M 243.5,9.5 C 244.649,9.79106 245.316,10.6244 245.5,12C 245.167,12.8333 244.833,13.6667 244.5,14.5C 243.548,12.9547 243.215,11.288 243.5,9.5 Z"/></g>
<g><path style="opacity:0.369" fill="#00fffe" d="M 248.5,9.5 C 249.649,9.79106 250.316,10.6244 250.5,12C 250.167,12.8333 249.833,13.6667 249.5,14.5C 248.548,12.9547 248.215,11.288 248.5,9.5 Z"/></g>
<g><path style="opacity:0.39" fill="#00fffe" d="M 253.5,9.5 C 254.649,9.79106 255.316,10.6244 255.5,12C 255.167,12.8333 254.833,13.6667 254.5,14.5C 253.548,12.9547 253.215,11.288 253.5,9.5 Z"/></g>
<g><path style="opacity:0.35" fill="#00fffe" d="M 258.5,9.5 C 259.649,9.79106 260.316,10.6244 260.5,12C 260.167,12.8333 259.833,13.6667 259.5,14.5C 258.548,12.9547 258.215,11.288 258.5,9.5 Z"/></g>
<g><path style="opacity:0.35" fill="#00fffe" d="M 263.5,9.5 C 264.649,9.79106 265.316,10.6244 265.5,12C 265.167,12.8333 264.833,13.6667 264.5,14.5C 263.548,12.9547 263.215,11.288 263.5,9.5 Z"/></g>
<g><path style="opacity:0.39" fill="#00fffe" d="M 268.5,9.5 C 269.649,9.79106 270.316,10.6244 270.5,12C 270.167,12.8333 269.833,13.6667 269.5,14.5C 268.548,12.9547 268.215,11.288 268.5,9.5 Z"/></g>
<g><path style="opacity:0.369" fill="#00fffe" d="M 273.5,9.5 C 274.649,9.79106 275.316,10.6244 275.5,12C 275.167,12.8333 274.833,13.6667 274.5,14.5C 273.548,12.9547 273.215,11.288 273.5,9.5 Z"/></g>
<g><path style="opacity:0.567" fill="#00fffe" d="M 278.5,9.5 C 279.649,9.79106 280.316,10.6244 280.5,12C 280.167,12.8333 279.833,13.6667 279.5,14.5C 278.548,12.9547 278.215,11.288 278.5,9.5 Z"/></g>
<g><path style="opacity:0.369" fill="#00fffe" d="M 283.5,9.5 C 284.649,9.79106 285.316,10.6244 285.5,12C 285.167,12.8333 284.833,13.6667 284.5,14.5C 283.548,12.9547 283.215,11.288 283.5,9.5 Z"/></g>
<g><path style="opacity:0.39" fill="#00fffe" d="M 288.5,9.5 C 289.649,9.79106 290.316,10.6244 290.5,12C 290.167,12.8333 289.833,13.6667 289.5,14.5C 288.548,12.9547 288.215,11.288 288.5,9.5 Z"/></g>
<g><path style="opacity:0.35" fill="#00fffe" d="M 293.5,9.5 C 294.649,9.79106 295.316,10.6244 295.5,12C 295.167,12.8333 294.833,13.6667 294.5,14.5C 293.548,12.9547 293.215,11.288 293.5,9.5 Z"/></g>
<g><path style="opacity:0.35" fill="#00fffe" d="M 298.5,9.5 C 299.649,9.79106 300.316,10.6244 300.5,12C 300.167,12.8333 299.833,13.6667 299.5,14.5C 298.548,12.9547 298.215,11.288 298.5,9.5 Z"/></g>
<g><path style="opacity:0.39" fill="#00fffe" d="M 303.5,9.5 C 304.649,9.79106 305.316,10.6244 305.5,12C 305.167,12.8333 304.833,13.6667 304.5,14.5C 303.548,12.9547 303.215,11.288 303.5,9.5 Z"/></g>
<g><path style="opacity:0.387" fill="#00fffe" d="M 308.5,9.5 C 309.649,9.79106 310.316,10.6244 310.5,12C 310.167,12.8333 309.833,13.6667 309.5,14.5C 308.548,12.9547 308.215,11.288 308.5,9.5 Z"/></g>
<g><path style="opacity:0.381" fill="#00fffe" d="M 313.5,9.5 C 314.649,9.79106 315.316,10.6244 315.5,12C 315.167,12.8333 314.833,13.6667 314.5,14.5C 313.548,12.9547 313.215,11.288 313.5,9.5 Z"/></g>
<g><path style="opacity:0.35" fill="#00fffe" d="M 318.5,9.5 C 319.649,9.79106 320.316,10.6244 320.5,12C 320.167,12.8333 319.833,13.6667 319.5,14.5C 318.548,12.9547 318.215,11.288 318.5,9.5 Z"/></g>
<g><path style="opacity:0.377" fill="#00fffe" d="M 323.5,9.5 C 324.649,9.79106 325.316,10.6244 325.5,12C 325.167,12.8333 324.833,13.6667 324.5,14.5C 323.548,12.9547 323.215,11.288 323.5,9.5 Z"/></g>
<g><path style="opacity:0.39" fill="#00fffe" d="M 328.5,9.5 C 329.649,9.79106 330.316,10.6244 330.5,12C 330.167,12.8333 329.833,13.6667 329.5,14.5C 328.548,12.9547 328.215,11.288 328.5,9.5 Z"/></g>
<g><path style="opacity:0.35" fill="#00fffe" d="M 333.5,9.5 C 334.649,9.79106 335.316,10.6244 335.5,12C 335.167,12.8333 334.833,13.6667 334.5,14.5C 333.548,12.9547 333.215,11.288 333.5,9.5 Z"/></g>
<g><path style="opacity:0.535" fill="#00fffe" d="M 338.5,9.5 C 339.649,9.79106 340.316,10.6244 340.5,12C 340.167,12.8333 339.833,13.6667 339.5,14.5C 338.548,12.9547 338.215,11.288 338.5,9.5 Z"/></g>
<g><path style="opacity:0.369" fill="#00fffe" d="M 343.5,9.5 C 344.649,9.79106 345.316,10.6244 345.5,12C 345.167,12.8333 344.833,13.6667 344.5,14.5C 343.548,12.9547 343.215,11.288 343.5,9.5 Z"/></g>
<g><path style="opacity:0.39" fill="#00fffe" d="M 348.5,9.5 C 349.649,9.79106 350.316,10.6244 350.5,12C 350.167,12.8333 349.833,13.6667 349.5,14.5C 348.548,12.9547 348.215,11.288 348.5,9.5 Z"/></g>
<g><path style="opacity:0.35" fill="#00fffe" d="M 353.5,9.5 C 354.649,9.79106 355.316,10.6244 355.5,12C 355.167,12.8333 354.833,13.6667 354.5,14.5C 353.548,12.9547 353.215,11.288 353.5,9.5 Z"/></g>
<g><path style="opacity:0.35" fill="#00fffe" d="M 358.5,9.5 C 359.649,9.79106 360.316,10.6244 360.5,12C 360.167,12.8333 359.833,13.6667 359.5,14.5C 358.548,12.9547 358.215,11.288 358.5,9.5 Z"/></g>
<g><path style="opacity:0.39" fill="#00fffe" d="M 363.5,9.5 C 364.649,9.79106 365.316,10.6244 365.5,12C 365.167,12.8333 364.833,13.6667 364.5,14.5C 363.548,12.9547 363.215,11.288 363.5,9.5 Z"/></g>
<g><path style="opacity:0.369" fill="#00fffe" d="M 368.5,9.5 C 369.649,9.79106 370.316,10.6244 370.5,12C 370.167,12.8333 369.833,13.6667 369.5,14.5C 368.548,12.9547 368.215,11.288 368.5,9.5 Z"/></g>
<g><path style="opacity:0.399" fill="#00fffe" d="M 373.5,9.5 C 374.649,9.79106 375.316,10.6244 375.5,12C 375.167,12.8333 374.833,13.6667 374.5,14.5C 373.548,12.9547 373.215,11.288 373.5,9.5 Z"/></g>
<g><path style="opacity:0.365" fill="#00fffe" d="M 378.5,9.5 C 379.649,9.79106 380.316,10.6244 380.5,12C 380.167,12.8333 379.833,13.6667 379.5,14.5C 378.548,12.9547 378.215,11.288 378.5,9.5 Z"/></g>
<g><path style="opacity:0.39" fill="#00fffe" d="M 383.5,9.5 C 384.649,9.79106 385.316,10.6244 385.5,12C 385.167,12.8333 384.833,13.6667 384.5,14.5C 383.548,12.9547 383.215,11.288 383.5,9.5 Z"/></g>
<g><path style="opacity:0.35" fill="#00fffe" d="M 388.5,9.5 C 389.649,9.79106 390.316,10.6244 390.5,12C 390.167,12.8333 389.833,13.6667 389.5,14.5C 388.548,12.9547 388.215,11.288 388.5,9.5 Z"/></g>
<g><path style="opacity:0.35" fill="#00fffe" d="M 393.5,9.5 C 394.649,9.79106 395.316,10.6244 395.5,12C 395.167,12.8333 394.833,13.6667 394.5,14.5C 393.548,12.9547 393.215,11.288 393.5,9.5 Z"/></g>
<g><path style="opacity:0.535" fill="#00fffe" d="M 398.5,9.5 C 399.649,9.79106 400.316,10.6244 400.5,12C 400.167,12.8333 399.833,13.6667 399.5,14.5C 398.548,12.9547 398.215,11.288 398.5,9.5 Z"/></g>
<g><path style="opacity:0.387" fill="#00fffe" d="M 403.5,9.5 C 404.649,9.79106 405.316,10.6244 405.5,12C 405.167,12.8333 404.833,13.6667 404.5,14.5C 403.548,12.9547 403.215,11.288 403.5,9.5 Z"/></g>
<g><path style="opacity:0.39" fill="#00fffe" d="M 408.5,9.5 C 409.649,9.79106 410.316,10.6244 410.5,12C 410.167,12.8333 409.833,13.6667 409.5,14.5C 408.548,12.9547 408.215,11.288 408.5,9.5 Z"/></g>
<g><path style="opacity:0.35" fill="#00fffe" d="M 413.5,9.5 C 414.649,9.79106 415.316,10.6244 415.5,12C 415.167,12.8333 414.833,13.6667 414.5,14.5C 413.548,12.9547 413.215,11.288 413.5,9.5 Z"/></g>
<g><path style="opacity:0.364" fill="#00fffe" d="M 418.5,9.5 C 419.649,9.79106 420.316,10.6244 420.5,12C 420.167,12.8333 419.833,13.6667 419.5,14.5C 418.548,12.9547 418.215,11.288 418.5,9.5 Z"/></g>
<g><path style="opacity:0.39" fill="#00fffe" d="M 423.5,9.5 C 424.649,9.79106 425.316,10.6244 425.5,12C 425.167,12.8333 424.833,13.6667 424.5,14.5C 423.548,12.9547 423.215,11.288 423.5,9.5 Z"/></g>
<g><path style="opacity:0.35" fill="#00fffe" d="M 428.5,9.5 C 429.649,9.79106 430.316,10.6244 430.5,12C 430.167,12.8333 429.833,13.6667 429.5,14.5C 428.548,12.9547 428.215,11.288 428.5,9.5 Z"/></g>
<g><path style="opacity:0.344" fill="#00fffe" d="M 433.5,9.5 C 434.649,9.79106 435.316,10.6244 435.5,12C 435.167,12.8333 434.833,13.6667 434.5,14.5C 433.548,12.9547 433.215,11.288 433.5,9.5 Z"/></g>
<g><path style="opacity:0.369" fill="#00fffe" d="M 438.5,9.5 C 439.649,9.79106 440.316,10.6244 440.5,12C 440.167,12.8333 439.833,13.6667 439.5,14.5C 438.548,12.9547 438.215,11.288 438.5,9.5 Z"/></g>
<g><path style="opacity:0.39" fill="#00fffe" d="M 443.5,9.5 C 444.649,9.79106 445.316,10.6244 445.5,12C 445.167,12.8333 444.833,13.6667 444.5,14.5C 443.548,12.9547 443.215,11.288 443.5,9.5 Z"/></g>
<g><path style="opacity:0.35" fill="#00fffe" d="M 448.5,9.5 C 449.649,9.79106 450.316,10.6244 450.5,12C 450.167,12.8333 449.833,13.6667 449.5,14.5C 448.548,12.9547 448.215,11.288 448.5,9.5 Z"/></g>
<g><path style="opacity:0.35" fill="#00fffe" d="M 453.5,9.5 C 454.649,9.79106 455.316,10.6244 455.5,12C 455.167,12.8333 454.833,13.6667 454.5,14.5C 453.548,12.9547 453.215,11.288 453.5,9.5 Z"/></g>
<g><path style="opacity:0.535" fill="#00fffe" d="M 458.5,9.5 C 459.649,9.79106 460.316,10.6244 460.5,12C 460.167,12.8333 459.833,13.6667 459.5,14.5C 458.548,12.9547 458.215,11.288 458.5,9.5 Z"/></g>
<g><path style="opacity:0.369" fill="#00fffe" d="M 463.5,9.5 C 464.649,9.79106 465.316,10.6244 465.5,12C 465.167,12.8333 464.833,13.6667 464.5,14.5C 463.548,12.9547 463.215,11.288 463.5,9.5 Z"/></g>
<g><path style="opacity:0.381" fill="#00fffe" d="M 468.5,9.5 C 469.649,9.79106 470.316,10.6244 470.5,12C 470.167,12.8333 469.833,13.6667 469.5,14.5C 468.548,12.9547 468.215,11.288 468.5,9.5 Z"/></g>
<g><path style="opacity:0.35" fill="#00fffe" d="M 473.5,9.5 C 474.649,9.79106 475.316,10.6244 475.5,12C 475.167,12.8333 474.833,13.6667 474.5,14.5C 473.548,12.9547 473.215,11.288 473.5,9.5 Z"/></g>
<g><path style="opacity:0.39" fill="#00fffe" d="M 478.5,9.5 C 479.649,9.79106 480.316,10.6244 480.5,12C 480.167,12.8333 479.833,13.6667 479.5,14.5C 478.548,12.9547 478.215,11.288 478.5,9.5 Z"/></g>
<g><path style="opacity:0.39" fill="#00fffe" d="M 483.5,9.5 C 484.649,9.79106 485.316,10.6244 485.5,12C 485.167,12.8333 484.833,13.6667 484.5,14.5C 483.548,12.9547 483.215,11.288 483.5,9.5 Z"/></g>
<g><path style="opacity:0.35" fill="#00fffe" d="M 488.5,9.5 C 489.649,9.79106 490.316,10.6244 490.5,12C 490.167,12.8333 489.833,13.6667 489.5,14.5C 488.548,12.9547 488.215,11.288 488.5,9.5 Z"/></g>
<g><path style="opacity:0.344" fill="#00fffe" d="M 493.5,9.5 C 494.649,9.79106 495.316,10.6244 495.5,12C 495.167,12.8333 494.833,13.6667 494.5,14.5C 493.548,12.9547 493.215,11.288 493.5,9.5 Z"/></g>
<g><path style="opacity:0.369" fill="#00fffe" d="M 498.5,9.5 C 499.649,9.79106 500.316,10.6244 500.5,12C 500.167,12.8333 499.833,13.6667 499.5,14.5C 498.548,12.9547 498.215,11.288 498.5,9.5 Z"/></g>
<g><path style="opacity:0.39" fill="#00fffe" d="M 503.5,9.5 C 504.649,9.79106 505.316,10.6244 505.5,12C 505.167,12.8333 504.833,13.6667 504.5,14.5C 503.548,12.9547 503.215,11.288 503.5,9.5 Z"/></g>
<g><path style="opacity:0.35" fill="#00fffe" d="M 508.5,9.5 C 509.649,9.79106 510.316,10.6244 510.5,12C 510.167,12.8333 509.833,13.6667 509.5,14.5C 508.548,12.9547 508.215,11.288 508.5,9.5 Z"/></g>
<g><path style="opacity:0.35" fill="#00fffe" d="M 513.5,9.5 C 514.649,9.79106 515.316,10.6244 515.5,12C 515.167,12.8333 514.833,13.6667 514.5,14.5C 513.548,12.9547 513.215,11.288 513.5,9.5 Z"/></g>
<g><path style="opacity:0.535" fill="#00fffe" d="M 518.5,9.5 C 519.649,9.79106 520.316,10.6244 520.5,12C 520.167,12.8333 519.833,13.6667 519.5,14.5C 518.548,12.9547 518.215,11.288 518.5,9.5 Z"/></g>
<g><path style="opacity:0.369" fill="#00fffe" d="M 523.5,9.5 C 524.649,9.79106 525.316,10.6244 525.5,12C 525.167,12.8333 524.833,13.6667 524.5,14.5C 523.548,12.9547 523.215,11.288 523.5,9.5 Z"/></g>
<g><path style="opacity:0.399" fill="#00fffe" d="M 528.5,9.5 C 529.649,9.79106 530.316,10.6244 530.5,12C 530.167,12.8333 529.833,13.6667 529.5,14.5C 528.548,12.9547 528.215,11.288 528.5,9.5 Z"/></g>
<g><path style="opacity:0.369" fill="#00fffe" d="M 533.5,9.5 C 534.649,9.79106 535.316,10.6244 535.5,12C 535.167,12.8333 534.833,13.6667 534.5,14.5C 533.548,12.9547 533.215,11.288 533.5,9.5 Z"/></g>
<g><path style="opacity:0.39" fill="#00fffe" d="M 538.5,9.5 C 539.649,9.79106 540.316,10.6244 540.5,12C 540.167,12.8333 539.833,13.6667 539.5,14.5C 538.548,12.9547 538.215,11.288 538.5,9.5 Z"/></g>
<g><path style="opacity:0.35" fill="#00fffe" d="M 543.5,9.5 C 544.649,9.79106 545.316,10.6244 545.5,12C 545.167,12.8333 544.833,13.6667 544.5,14.5C 543.548,12.9547 543.215,11.288 543.5,9.5 Z"/></g>
<g><path style="opacity:0.35" fill="#00fffe" d="M 548.5,9.5 C 549.649,9.79106 550.316,10.6244 550.5,12C 550.167,12.8333 549.833,13.6667 549.5,14.5C 548.548,12.9547 548.215,11.288 548.5,9.5 Z"/></g>
<g><path style="opacity:0.344" fill="#00fffe" d="M 553.5,9.5 C 554.649,9.79106 555.316,10.6244 555.5,12C 555.167,12.8333 554.833,13.6667 554.5,14.5C 553.548,12.9547 553.215,11.288 553.5,9.5 Z"/></g>
<g><path style="opacity:0.387" fill="#00fffe" d="M 558.5,9.5 C 559.649,9.79106 560.316,10.6244 560.5,12C 560.167,12.8333 559.833,13.6667 559.5,14.5C 558.548,12.9547 558.215,11.288 558.5,9.5 Z"/></g>
<g><path style="opacity:0.381" fill="#00fffe" d="M 563.5,9.5 C 564.649,9.79106 565.316,10.6244 565.5,12C 565.167,12.8333 564.833,13.6667 564.5,14.5C 563.548,12.9547 563.215,11.288 563.5,9.5 Z"/></g>
<g><path style="opacity:0.35" fill="#00fffe" d="M 568.5,9.5 C 569.649,9.79106 570.316,10.6244 570.5,12C 570.167,12.8333 569.833,13.6667 569.5,14.5C 568.548,12.9547 568.215,11.288 568.5,9.5 Z"/></g>
<g><path style="opacity:0.377" fill="#00fffe" d="M 573.5,9.5 C 574.649,9.79106 575.316,10.6244 575.5,12C 575.167,12.8333 574.833,13.6667 574.5,14.5C 573.548,12.9547 573.215,11.288 573.5,9.5 Z"/></g>
<g><path style="opacity:0.567" fill="#00fffe" d="M 578.5,9.5 C 579.649,9.79106 580.316,10.6244 580.5,12C 580.167,12.8333 579.833,13.6667 579.5,14.5C 578.548,12.9547 578.215,11.288 578.5,9.5 Z"/></g>
<g><path style="opacity:0.35" fill="#00fffe" d="M 583.5,9.5 C 584.649,9.79106 585.316,10.6244 585.5,12C 585.167,12.8333 584.833,13.6667 584.5,14.5C 583.548,12.9547 583.215,11.288 583.5,9.5 Z"/></g>
<g><path style="opacity:0.344" fill="#00fffe" d="M 588.5,9.5 C 589.649,9.79106 590.316,10.6244 590.5,12C 590.167,12.8333 589.833,13.6667 589.5,14.5C 588.548,12.9547 588.215,11.288 588.5,9.5 Z"/></g>
<g><path style="opacity:0.369" fill="#00fffe" d="M 593.5,9.5 C 594.649,9.79106 595.316,10.6244 595.5,12C 595.167,12.8333 594.833,13.6667 594.5,14.5C 593.548,12.9547 593.215,11.288 593.5,9.5 Z"/></g>
<g><path style="opacity:0.39" fill="#00fffe" d="M 598.5,9.5 C 599.649,9.79106 600.316,10.6244 600.5,12C 600.167,12.8333 599.833,13.6667 599.5,14.5C 598.548,12.9547 598.215,11.288 598.5,9.5 Z"/></g>
<g><path style="opacity:0.35" fill="#00fffe" d="M 603.5,9.5 C 604.649,9.79106 605.316,10.6244 605.5,12C 605.167,12.8333 604.833,13.6667 604.5,14.5C 603.548,12.9547 603.215,11.288 603.5,9.5 Z"/></g>
<g><path style="opacity:0.35" fill="#00fffe" d="M 608.5,9.5 C 609.649,9.79106 610.316,10.6244 610.5,12C 610.167,12.8333 609.833,13.6667 609.5,14.5C 608.548,12.9547 608.215,11.288 608.5,9.5 Z"/></g>
<g><path style="opacity:0.344" fill="#00fffe" d="M 613.5,9.5 C 614.649,9.79106 615.316,10.6244 615.5,12C 615.167,12.8333 614.833,13.6667 614.5,14.5C 613.548,12.9547 613.215,11.288 613.5,9.5 Z"/></g>
<g><path style="opacity:0.369" fill="#00fffe" d="M 618.5,9.5 C 619.649,9.79106 620.316,10.6244 620.5,12C 620.167,12.8333 619.833,13.6667 619.5,14.5C 618.548,12.9547 618.215,11.288 618.5,9.5 Z"/></g>
<g><path style="opacity:0.399" fill="#00fffe" d="M 623.5,9.5 C 624.649,9.79106 625.316,10.6244 625.5,12C 625.167,12.8333 624.833,13.6667 624.5,14.5C 623.548,12.9547 623.215,11.288 623.5,9.5 Z"/></g>
<g><path style="opacity:0.365" fill="#00fffe" d="M 628.5,9.5 C 629.649,9.79106 630.316,10.6244 630.5,12C 630.167,12.8333 629.833,13.6667 629.5,14.5C 628.548,12.9547 628.215,11.288 628.5,9.5 Z"/></g>
<g><path style="opacity:0.39" fill="#00fffe" d="M 633.5,9.5 C 634.649,9.79106 635.316,10.6244 635.5,12C 635.167,12.8333 634.833,13.6667 634.5,14.5C 633.548,12.9547 633.215,11.288 633.5,9.5 Z"/></g>
<g><path style="opacity:0.542" fill="#00fffe" d="M 638.5,9.5 C 639.649,9.79106 640.316,10.6244 640.5,12C 640.167,12.8333 639.833,13.6667 639.5,14.5C 638.548,12.9547 638.215,11.288 638.5,9.5 Z"/></g>
<g><path style="opacity:0.35" fill="#00fffe" d="M 643.5,9.5 C 644.649,9.79106 645.316,10.6244 645.5,12C 645.167,12.8333 644.833,13.6667 644.5,14.5C 643.548,12.9547 643.215,11.288 643.5,9.5 Z"/></g>
<g><path style="opacity:0.344" fill="#00fffe" d="M 648.5,9.5 C 649.649,9.79106 650.316,10.6244 650.5,12C 650.167,12.8333 649.833,13.6667 649.5,14.5C 648.548,12.9547 648.215,11.288 648.5,9.5 Z"/></g>
<g><path style="opacity:0.387" fill="#00fffe" d="M 653.5,9.5 C 654.649,9.79106 655.316,10.6244 655.5,12C 655.167,12.8333 654.833,13.6667 654.5,14.5C 653.548,12.9547 653.215,11.288 653.5,9.5 Z"/></g>
<g><path style="opacity:0.39" fill="#00fffe" d="M 658.5,9.5 C 659.649,9.79106 660.316,10.6244 660.5,12C 660.167,12.8333 659.833,13.6667 659.5,14.5C 658.548,12.9547 658.215,11.288 658.5,9.5 Z"/></g>
<g><path style="opacity:0.35" fill="#00fffe" d="M 663.5,9.5 C 664.649,9.79106 665.316,10.6244 665.5,12C 665.167,12.8333 664.833,13.6667 664.5,14.5C 663.548,12.9547 663.215,11.288 663.5,9.5 Z"/></g>
<g><path style="opacity:0.364" fill="#00fffe" d="M 668.5,9.5 C 669.649,9.79106 670.316,10.6244 670.5,12C 670.167,12.8333 669.833,13.6667 669.5,14.5C 668.548,12.9547 668.215,11.288 668.5,9.5 Z"/></g>
<g><path style="opacity:0.35" fill="#00fffe" d="M 673.5,9.5 C 674.649,9.79106 675.316,10.6244 675.5,12C 675.167,12.8333 674.833,13.6667 674.5,14.5C 673.548,12.9547 673.215,11.288 673.5,9.5 Z"/></g>
<g><path style="opacity:0.35" fill="#00fffe" d="M 678.5,9.5 C 679.649,9.79106 680.316,10.6244 680.5,12C 680.167,12.8333 679.833,13.6667 679.5,14.5C 678.548,12.9547 678.215,11.288 678.5,9.5 Z"/></g>
<g><path style="opacity:0.344" fill="#00fffe" d="M 683.5,9.5 C 684.649,9.79106 685.316,10.6244 685.5,12C 685.167,12.8333 684.833,13.6667 684.5,14.5C 683.548,12.9547 683.215,11.288 683.5,9.5 Z"/></g>
<g><path style="opacity:0.369" fill="#00fffe" d="M 688.5,9.5 C 689.649,9.79106 690.316,10.6244 690.5,12C 690.167,12.8333 689.833,13.6667 689.5,14.5C 688.548,12.9547 688.215,11.288 688.5,9.5 Z"/></g>
<g><path style="opacity:0.39" fill="#00fffe" d="M 693.5,9.5 C 694.649,9.79106 695.316,10.6244 695.5,12C 695.167,12.8333 694.833,13.6667 694.5,14.5C 693.548,12.9547 693.215,11.288 693.5,9.5 Z"/></g>
<g><path style="opacity:0.557" fill="#00fffe" d="M 698.5,9.5 C 699.649,9.79106 700.316,10.6244 700.5,12C 700.167,12.8333 699.833,13.6667 699.5,14.5C 698.548,12.9547 698.215,11.288 698.5,9.5 Z"/></g>
<g><path style="opacity:0.35" fill="#00fffe" d="M 703.5,9.5 C 704.649,9.79106 705.316,10.6244 705.5,12C 705.167,12.8333 704.833,13.6667 704.5,14.5C 703.548,12.9547 703.215,11.288 703.5,9.5 Z"/></g>
<g><path style="opacity:0.344" fill="#00fffe" d="M 708.5,9.5 C 709.649,9.79106 710.316,10.6244 710.5,12C 710.167,12.8333 709.833,13.6667 709.5,14.5C 708.548,12.9547 708.215,11.288 708.5,9.5 Z"/></g>
<g><path style="opacity:0.369" fill="#00fffe" d="M 713.5,9.5 C 714.649,9.79106 715.316,10.6244 715.5,12C 715.167,12.8333 714.833,13.6667 714.5,14.5C 713.548,12.9547 713.215,11.288 713.5,9.5 Z"/></g>
<g><path style="opacity:0.381" fill="#00fffe" d="M 718.5,9.5 C 719.649,9.79106 720.316,10.6244 720.5,12C 720.167,12.8333 719.833,13.6667 719.5,14.5C 718.548,12.9547 718.215,11.288 718.5,9.5 Z"/></g>
<g><path style="opacity:0.35" fill="#00fffe" d="M 723.5,9.5 C 724.649,9.79106 725.316,10.6244 725.5,12C 725.167,12.8333 724.833,13.6667 724.5,14.5C 723.548,12.9547 723.215,11.288 723.5,9.5 Z"/></g>
<g><path style="opacity:0.39" fill="#00fffe" d="M 728.5,9.5 C 729.649,9.79106 730.316,10.6244 730.5,12C 730.167,12.8333 729.833,13.6667 729.5,14.5C 728.548,12.9547 728.215,11.288 728.5,9.5 Z"/></g>
<g><path style="opacity:0.382" fill="#00fffe" d="M 733.5,9.5 C 734.649,9.79106 735.316,10.6244 735.5,12C 735.167,12.8333 734.833,13.6667 734.5,14.5C 733.548,12.9547 733.215,11.288 733.5,9.5 Z"/></g>
<g><path style="opacity:0.35" fill="#00fffe" d="M 738.5,9.5 C 739.649,9.79106 740.316,10.6244 740.5,12C 740.167,12.8333 739.833,13.6667 739.5,14.5C 738.548,12.9547 738.215,11.288 738.5,9.5 Z"/></g>
<g><path style="opacity:0.339" fill="#00fffe" d="M 743.5,11.5 C 746.101,12.9225 745.934,14.2558 743,15.5C 742.5,15.1667 742,14.8333 741.5,14.5C 742.193,13.4822 742.859,12.4822 743.5,11.5 Z"/></g>
<g><path style="opacity:0.385" fill="#00fffe" d="M 64.5,14.5 C 67.7195,15.0211 68.7195,16.6878 67.5,19.5C 65.244,18.5791 64.244,16.9124 64.5,14.5 Z"/></g>
<g><path style="opacity:0.382" fill="#00fffe" d="M 746.5,15.5 C 749.101,16.9225 748.934,18.2558 746,19.5C 745.5,19.1667 745,18.8333 744.5,18.5C 745.193,17.4822 745.859,16.4822 746.5,15.5 Z"/></g>
<g><path style="opacity:0.351" fill="#00fffe" d="M 60.5,19.5 C 62.7073,18.1301 64.374,18.7968 65.5,21.5C 64.635,22.5827 63.635,22.7494 62.5,22C 61.9341,21.0053 61.2674,20.172 60.5,19.5 Z"/></g>
<g><path style="opacity:0.368" fill="#00fffe" d="M 750.5,18.5 C 753.047,20.2897 752.714,21.9564 749.5,23.5C 748.348,21.6029 748.681,19.9362 750.5,18.5 Z"/></g>
<g><path style="opacity:0.355" fill="#00fffe" d="M 57.5,21.5 C 59.5638,21.7619 60.8971,22.9286 61.5,25C 58.5096,25.8469 57.1762,24.6802 57.5,21.5 Z"/></g>
<g><path style="opacity:0.341" fill="#00fffe" d="M 753.5,22.5 C 757.208,23.5509 757.041,24.8842 753,26.5C 752.5,26.1667 752,25.8333 751.5,25.5C 752.612,24.7348 753.279,23.7348 753.5,22.5 Z"/></g>
<g><path style="opacity:0.364" fill="#00fffe" d="M 53.5,25.5 C 56.9318,25.2479 57.9318,26.5812 56.5,29.5C 54.7118,28.7174 53.7118,27.3841 53.5,25.5 Z"/></g>
<g><path style="opacity:0.385" fill="#00fffe" d="M 757.5,26.5 C 759.885,27.8673 759.552,29.2007 756.5,30.5C 756.167,30.1667 755.833,29.8333 755.5,29.5C 756.193,28.4822 756.859,27.4822 757.5,26.5 Z"/></g>
<g><path style="opacity:0.365" fill="#00fffe" d="M 50.5,28.5 C 54.0059,29.1164 54.8392,30.7831 53,33.5C 50.7097,32.1719 49.8764,30.5053 50.5,28.5 Z"/></g>
<g><path style="opacity:0.385" fill="#00fffe" d="M 761.5,29.5 C 762.801,31.456 762.301,33.1226 760,34.5C 758.12,32.2362 758.62,30.5696 761.5,29.5 Z"/></g>
<g><path style="opacity:0.404" fill="#00fffe" d="M 46.5,32.5 C 49.9318,32.2479 50.9318,33.5812 49.5,36.5C 47.7118,35.7174 46.7118,34.3841 46.5,32.5 Z"/></g>
<g><path style="opacity:0.509" fill="#00fffe" d="M 764.5,33.5 C 766.885,34.8673 766.552,36.2007 763.5,37.5C 763.167,37.1667 762.833,36.8333 762.5,36.5C 763.193,35.4822 763.859,34.4822 764.5,33.5 Z"/></g>
<g><path style="opacity:0.393" fill="#00fffe" d="M 42.5,35.5 C 44.3841,35.7118 45.7174,36.7118 46.5,38.5C 44.2192,39.2617 42.8859,38.2617 42.5,35.5 Z"/></g>
<g><path style="opacity:0.38" fill="#00fffe" d="M 767.5,37.5 C 768.552,37.3505 769.552,37.5172 770.5,38C 766.403,42.8121 765.403,42.6454 767.5,37.5 Z"/></g>
<g><path style="opacity:0.38" fill="#00fffe" d="M 39.5,39.5 C 41.3841,39.7118 42.7174,40.7118 43.5,42.5C 41.2192,43.2617 39.8859,42.2617 39.5,39.5 Z"/></g>
<g><path style="opacity:0.421" fill="#00fffe" d="M 771.5,40.5 C 773.885,41.8673 773.552,43.2007 770.5,44.5C 770.167,44.1667 769.833,43.8333 769.5,43.5C 770.193,42.4822 770.859,41.4822 771.5,40.5 Z"/></g>
<g><path style="opacity:0.407" fill="#00fffe" d="M 35.5,42.5 C 37.5901,42.4501 38.9234,43.4501 39.5,45.5C 37.2192,46.2617 35.8859,45.2617 35.5,42.5 Z"/></g>
<g><path style="opacity:0.37" fill="#00fffe" d="M 774.5,44.5 C 776.838,45.6484 776.671,46.9817 774,48.5C 773.5,48.1667 773,47.8333 772.5,47.5C 773.193,46.4822 773.859,45.4822 774.5,44.5 Z"/></g>
<g><path style="opacity:0.527" fill="#00fffe" d="M 32.5,45.5 C 33.9616,46.4577 35.2949,47.6244 36.5,49C 36,49.5 35.5,50 35,50.5C 33.117,49.3474 32.2837,47.6807 32.5,45.5 Z"/></g>
<g><path style="opacity:0.378" fill="#00fffe" d="M 778.5,47.5 C 779.376,47.3691 780.043,47.7025 780.5,48.5C 779.83,52.0766 778.164,52.9099 775.5,51C 776.71,49.9609 777.71,48.7942 778.5,47.5 Z"/></g>
<g><path style="opacity:0.422" fill="#00fffe" d="M 28.5,49.5 C 30.3841,49.7118 31.7174,50.7118 32.5,52.5C 30.2192,53.2617 28.8859,52.2617 28.5,49.5 Z"/></g>
<g><path style="opacity:0.325" fill="#00fffe" d="M 781.5,51.5 C 784.101,52.9225 783.934,54.2558 781,55.5C 780.5,55.1667 780,54.8333 779.5,54.5C 780.193,53.4822 780.859,52.4822 781.5,51.5 Z"/></g>
<g><path style="opacity:0.325" fill="#00fffe" d="M 25.5,52.5 C 27.7914,53.5421 28.7914,55.0421 28.5,57C 26.8126,56.8073 25.4792,55.8073 24.5,54C 25.056,53.6174 25.3893,53.1174 25.5,52.5 Z"/></g>
<g><path style="opacity:0.334" fill="#00fffe" d="M 785.5,54.5 C 788.047,56.2897 787.714,57.9564 784.5,59.5C 783.348,57.6029 783.681,55.9362 785.5,54.5 Z"/></g>
<g><path style="opacity:0.425" fill="#00fffe" d="M 21.5,56.5 C 23.3841,56.7118 24.7174,57.7118 25.5,59.5C 22.9428,60.5341 21.6095,59.5341 21.5,56.5 Z"/></g>
<g><path style="opacity:0.354" fill="#00fffe" d="M 788.5,58.5 C 790.885,59.8673 790.552,61.2007 787.5,62.5C 787.167,62.3333 786.833,62.1667 786.5,62C 787.305,60.8873 787.972,59.7206 788.5,58.5 Z"/></g>
<g><path style="opacity:0.395" fill="#00fffe" d="M 19.5,64.5 C 16.9153,58.6011 17.9153,58.1011 22.5,63C 21.7562,64.0386 20.7562,64.5386 19.5,64.5 Z"/></g>
<g><path style="opacity:0.379" fill="#00fffe" d="M 791.5,62.5 C 795.208,63.5509 795.041,64.8842 791,66.5C 790.5,66.1667 790,65.8333 789.5,65.5C 790.193,64.4822 790.859,63.4822 791.5,62.5 Z"/></g>
<g><path style="opacity:0.387" fill="#00fffe" d="M 19.5,64.5 C 19.2089,65.6491 18.3756,66.3158 17,66.5C 16.1667,66.1667 15.3333,65.8333 14.5,65.5C 16.0453,64.5481 17.712,64.2148 19.5,64.5 Z"/></g>
<g><path style="opacity:0.38" fill="#00fffe" d="M 790.5,68.5 C 792.199,68.3398 793.866,68.5065 795.5,69C 793.415,71.1391 791.749,70.9725 790.5,68.5 Z"/></g>
<g><path style="opacity:0.367" fill="#00fffe" d="M 14.5,69.5 C 16.288,69.2148 17.9547,69.5481 19.5,70.5C 18.6667,70.8333 17.8333,71.1667 17,71.5C 15.6244,71.3158 14.7911,70.6491 14.5,69.5 Z"/></g>
<g><path style="opacity:0.391" fill="#00fffe" d="M 14.5,74.5 C 16.4286,74.2308 18.0953,74.7308 19.5,76C 18.6667,76.1667 17.8333,76.3333 17,76.5C 15.6244,76.3158 14.7911,75.6491 14.5,74.5 Z"/></g>
<g><path style="opacity:0.395" fill="#00fffe" d="M 14.5,79.5 C 16.288,79.2148 17.9547,79.5481 19.5,80.5C 18.6667,80.8333 17.8333,81.1667 17,81.5C 15.6244,81.3158 14.7911,80.6491 14.5,79.5 Z"/></g>
<g><path style="opacity:0.896" fill="#00fffe" d="M 791.5,79.5 C 796.099,79.2 800.599,79.5333 805,80.5C 805.667,131.833 805.667,183.167 805,234.5C 800.599,235.467 796.099,235.8 791.5,235.5C 791.5,183.5 791.5,131.5 791.5,79.5 Z"/></g>
<g><path style="opacity:0.387" fill="#00fffe" d="M 14.5,84.5 C 16.288,84.2148 17.9547,84.5481 19.5,85.5C 18.6667,85.8333 17.8333,86.1667 17,86.5C 15.6244,86.3158 14.7911,85.6491 14.5,84.5 Z"/></g>
<g><path style="opacity:0.34" fill="#00fffe" d="M 14.5,89.5 C 16.288,89.2148 17.9547,89.5481 19.5,90.5C 18.6667,90.8333 17.8333,91.1667 17,91.5C 15.6244,91.3158 14.7911,90.6491 14.5,89.5 Z"/></g>
<g><path style="opacity:0.359" fill="#00fffe" d="M 14.5,94.5 C 16.288,94.2148 17.9547,94.5481 19.5,95.5C 18.6667,95.8333 17.8333,96.1667 17,96.5C 15.6244,96.3158 14.7911,95.6491 14.5,94.5 Z"/></g>
<g><path style="opacity:0.422" fill="#00fffe" d="M 14.5,99.5 C 16.4286,99.2308 18.0953,99.7308 19.5,101C 18.6667,101.167 17.8333,101.333 17,101.5C 15.6244,101.316 14.7911,100.649 14.5,99.5 Z"/></g>
<g><path style="opacity:0.381" fill="#00fffe" d="M 14.5,104.5 C 16.288,104.215 17.9547,104.548 19.5,105.5C 18.6667,105.833 17.8333,106.167 17,106.5C 15.6244,106.316 14.7911,105.649 14.5,104.5 Z"/></g>
<g><path style="opacity:0.553" fill="#00fffe" d="M 14.5,109.5 C 16.288,109.215 17.9547,109.548 19.5,110.5C 18.6667,110.833 17.8333,111.167 17,111.5C 15.6244,111.316 14.7911,110.649 14.5,109.5 Z"/></g>
<g><path style="opacity:0.377" fill="#00fffe" d="M 14.5,114.5 C 16.288,114.215 17.9547,114.548 19.5,115.5C 18.6667,115.833 17.8333,116.167 17,116.5C 15.6244,116.316 14.7911,115.649 14.5,114.5 Z"/></g>
<g><path style="opacity:0.381" fill="#00fffe" d="M 14.5,119.5 C 16.288,119.215 17.9547,119.548 19.5,120.5C 18.6667,120.833 17.8333,121.167 17,121.5C 15.6244,121.316 14.7911,120.649 14.5,119.5 Z"/></g>
<g><path style="opacity:0.371" fill="#00fffe" d="M 14.5,124.5 C 16.4286,124.231 18.0953,124.731 19.5,126C 18.6667,126.167 17.8333,126.333 17,126.5C 15.6244,126.316 14.7911,125.649 14.5,124.5 Z"/></g>
<g><path style="opacity:0.341" fill="#00fffe" d="M 14.5,129.5 C 16.288,129.215 17.9547,129.548 19.5,130.5C 18.6667,130.833 17.8333,131.167 17,131.5C 15.6244,131.316 14.7911,130.649 14.5,129.5 Z"/></g>
<g><path style="opacity:0.401" fill="#00fffe" d="M 14.5,134.5 C 16.4286,134.231 18.0953,134.731 19.5,136C 18.6667,136.167 17.8333,136.333 17,136.5C 15.6244,136.316 14.7911,135.649 14.5,134.5 Z"/></g>
<g><path style="opacity:0.381" fill="#00fffe" d="M 14.5,139.5 C 16.288,139.215 17.9547,139.548 19.5,140.5C 18.6667,140.833 17.8333,141.167 17,141.5C 15.6244,141.316 14.7911,140.649 14.5,139.5 Z"/></g>
<g><path style="opacity:0.387" fill="#00fffe" d="M 14.5,144.5 C 16.288,144.215 17.9547,144.548 19.5,145.5C 18.6667,145.833 17.8333,146.167 17,146.5C 15.6244,146.316 14.7911,145.649 14.5,144.5 Z"/></g>
<g><path style="opacity:0.34" fill="#00fffe" d="M 14.5,149.5 C 16.288,149.215 17.9547,149.548 19.5,150.5C 18.6667,150.833 17.8333,151.167 17,151.5C 15.6244,151.316 14.7911,150.649 14.5,149.5 Z"/></g>
<g><path style="opacity:0.359" fill="#00fffe" d="M 14.5,154.5 C 16.288,154.215 17.9547,154.548 19.5,155.5C 18.6667,155.833 17.8333,156.167 17,156.5C 15.6244,156.316 14.7911,155.649 14.5,154.5 Z"/></g>
<g><path style="opacity:0.422" fill="#00fffe" d="M 14.5,159.5 C 16.4286,159.231 18.0953,159.731 19.5,161C 18.6667,161.167 17.8333,161.333 17,161.5C 15.6244,161.316 14.7911,160.649 14.5,159.5 Z"/></g>
<g><path style="opacity:0.381" fill="#00fffe" d="M 14.5,164.5 C 16.288,164.215 17.9547,164.548 19.5,165.5C 18.6667,165.833 17.8333,166.167 17,166.5C 15.6244,166.316 14.7911,165.649 14.5,164.5 Z"/></g>
<g><path style="opacity:0.547" fill="#00fffe" d="M 14.5,169.5 C 16.288,169.215 17.9547,169.548 19.5,170.5C 18.6667,170.833 17.8333,171.167 17,171.5C 15.6244,171.316 14.7911,170.649 14.5,169.5 Z"/></g>
<g><path style="opacity:0.395" fill="#00fffe" d="M 14.5,174.5 C 16.288,174.215 17.9547,174.548 19.5,175.5C 18.6667,175.833 17.8333,176.167 17,176.5C 15.6244,176.316 14.7911,175.649 14.5,174.5 Z"/></g>
<g><path style="opacity:0.387" fill="#00fffe" d="M 14.5,179.5 C 16.288,179.215 17.9547,179.548 19.5,180.5C 18.6667,180.833 17.8333,181.167 17,181.5C 15.6244,181.316 14.7911,180.649 14.5,179.5 Z"/></g>
<g><path style="opacity:0.34" fill="#00fffe" d="M 14.5,184.5 C 16.288,184.215 17.9547,184.548 19.5,185.5C 18.6667,185.833 17.8333,186.167 17,186.5C 15.6244,186.316 14.7911,185.649 14.5,184.5 Z"/></g>
<g><path style="opacity:0.359" fill="#00fffe" d="M 14.5,189.5 C 16.288,189.215 17.9547,189.548 19.5,190.5C 18.6667,190.833 17.8333,191.167 17,191.5C 15.6244,191.316 14.7911,190.649 14.5,189.5 Z"/></g>
<g><path style="opacity:0.422" fill="#00fffe" d="M 14.5,194.5 C 16.4286,194.231 18.0953,194.731 19.5,196C 18.6667,196.167 17.8333,196.333 17,196.5C 15.6244,196.316 14.7911,195.649 14.5,194.5 Z"/></g>
<g><path style="opacity:0.381" fill="#00fffe" d="M 14.5,199.5 C 16.288,199.215 17.9547,199.548 19.5,200.5C 18.6667,200.833 17.8333,201.167 17,201.5C 15.6244,201.316 14.7911,200.649 14.5,199.5 Z"/></g>
<g><path style="opacity:0.387" fill="#00fffe" d="M 14.5,204.5 C 16.288,204.215 17.9547,204.548 19.5,205.5C 18.6667,205.833 17.8333,206.167 17,206.5C 15.6244,206.316 14.7911,205.649 14.5,204.5 Z"/></g>
<g><path style="opacity:0.358" fill="#00fffe" d="M 14.5,209.5 C 16.288,209.215 17.9547,209.548 19.5,210.5C 18.6667,210.833 17.8333,211.167 17,211.5C 15.6244,211.316 14.7911,210.649 14.5,209.5 Z"/></g>
<g><path style="opacity:0.383" fill="#00fffe" d="M 14.5,214.5 C 16.288,214.215 17.9547,214.548 19.5,215.5C 18.6667,215.833 17.8333,216.167 17,216.5C 15.6244,216.316 14.7911,215.649 14.5,214.5 Z"/></g>
<g><path style="opacity:0.34" fill="#00fffe" d="M 14.5,219.5 C 16.288,219.215 17.9547,219.548 19.5,220.5C 18.6667,220.833 17.8333,221.167 17,221.5C 15.6244,221.316 14.7911,220.649 14.5,219.5 Z"/></g>
<g><path style="opacity:0.341" fill="#00fffe" d="M 14.5,224.5 C 16.288,224.215 17.9547,224.548 19.5,225.5C 18.6667,225.833 17.8333,226.167 17,226.5C 15.6244,226.316 14.7911,225.649 14.5,224.5 Z"/></g>
<g><path style="opacity:0.547" fill="#00fffe" d="M 14.5,229.5 C 16.288,229.215 17.9547,229.548 19.5,230.5C 18.6667,230.833 17.8333,231.167 17,231.5C 15.6244,231.316 14.7911,230.649 14.5,229.5 Z"/></g>
<g><path style="opacity:0.395" fill="#00fffe" d="M 14.5,234.5 C 16.288,234.215 17.9547,234.548 19.5,235.5C 18.6667,235.833 17.8333,236.167 17,236.5C 15.6244,236.316 14.7911,235.649 14.5,234.5 Z"/></g>
<g><path style="opacity:0.902" fill="#00fffe" d="M 1.5,247.5 C 6.16667,247.5 10.8333,247.5 15.5,247.5C 15.6667,299.168 15.5,350.834 15,402.5C 10.6667,403.833 6.33333,403.833 2,402.5C 1.50001,350.834 1.33334,299.168 1.5,247.5 Z"/></g>
<g><path style="opacity:0.406" fill="#00fffe" d="M 790.5,249.5 C 792.199,249.34 793.866,249.506 795.5,250C 793.415,252.139 791.749,251.972 790.5,249.5 Z"/></g>
<g><path style="opacity:0.416" fill="#00fffe" d="M 790.5,253.5 C 792.429,253.231 794.095,253.731 795.5,255C 794.667,255.167 793.833,255.333 793,255.5C 791.624,255.316 790.791,254.649 790.5,253.5 Z"/></g>
<g><path style="opacity:0.38" fill="#00fffe" d="M 790.5,259.5 C 792.199,259.34 793.866,259.506 795.5,260C 793.415,262.139 791.749,261.972 790.5,259.5 Z"/></g>
<g><path style="opacity:0.306" fill="#00fffe" d="M 790.5,269.5 C 795.947,269.455 796.447,270.455 792,272.5C 790.961,271.756 790.461,270.756 790.5,269.5 Z"/></g>
<g><path style="opacity:0.433" fill="#00fffe" d="M 790.5,278.5 C 792.429,278.231 794.095,278.731 795.5,280C 794.667,280.167 793.833,280.333 793,280.5C 791.624,280.316 790.791,279.649 790.5,278.5 Z"/></g>
<g><path style="opacity:0.437" fill="#00fffe" d="M 790.5,284.5 C 792.199,284.34 793.866,284.506 795.5,285C 793.415,287.139 791.749,286.972 790.5,284.5 Z"/></g>
<g><path style="opacity:0.406" fill="#00fffe" d="M 790.5,288.5 C 792.429,288.231 794.095,288.731 795.5,290C 794.667,290.167 793.833,290.333 793,290.5C 791.624,290.316 790.791,289.649 790.5,288.5 Z"/></g>
<g><path style="opacity:0.38" fill="#00fffe" d="M 790.5,294.5 C 792.199,294.34 793.866,294.506 795.5,295C 793.415,297.139 791.749,296.972 790.5,294.5 Z"/></g>
<g><path style="opacity:0.406" fill="#00fffe" d="M 790.5,303.5 C 792.665,303.116 794.332,303.783 795.5,305.5C 793.955,306.452 792.288,306.785 790.5,306.5C 790.5,305.5 790.5,304.5 790.5,303.5 Z"/></g>
<g><path style="opacity:0.406" fill="#00fffe" d="M 790.5,309.5 C 792.199,309.34 793.866,309.506 795.5,310C 793.415,312.139 791.749,311.972 790.5,309.5 Z"/></g>
<g><path style="opacity:0.437" fill="#00fffe" d="M 790.5,313.5 C 792.429,313.231 794.095,313.731 795.5,315C 794.667,315.167 793.833,315.333 793,315.5C 791.624,315.316 790.791,314.649 790.5,313.5 Z"/></g>
<g><path style="opacity:0.433" fill="#00fffe" d="M 790.5,319.5 C 792.199,319.34 793.866,319.506 795.5,320C 793.415,322.139 791.749,321.972 790.5,319.5 Z"/></g>
<g><path style="opacity:0.63" fill="#00fffe" d="M 792.5,323.5 C 795.99,325.336 795.323,325.836 790.5,325C 791.416,324.722 792.082,324.222 792.5,323.5 Z"/></g>
<g><path style="opacity:0.37" fill="#00fffe" d="M 790.5,329.5 C 792.199,329.34 793.866,329.506 795.5,330C 793.415,332.139 791.749,331.972 790.5,329.5 Z"/></g>
<g><path style="opacity:0.38" fill="#00fffe" d="M 790.5,338.5 C 792.429,338.231 794.095,338.731 795.5,340C 794.667,340.167 793.833,340.333 793,340.5C 791.624,340.316 790.791,339.649 790.5,338.5 Z"/></g>
<g><path style="opacity:0.416" fill="#00fffe" d="M 790.5,344.5 C 792.199,344.34 793.866,344.506 795.5,345C 793.415,347.139 791.749,346.972 790.5,344.5 Z"/></g>
<g><path style="opacity:0.406" fill="#00fffe" d="M 790.5,348.5 C 792.429,348.231 794.095,348.731 795.5,350C 794.667,350.167 793.833,350.333 793,350.5C 791.624,350.316 790.791,349.649 790.5,348.5 Z"/></g>
<g><path style="opacity:0.38" fill="#00fffe" d="M 790.5,354.5 C 792.199,354.34 793.866,354.506 795.5,355C 793.415,357.139 791.749,356.972 790.5,354.5 Z"/></g>
<g><path style="opacity:0.419" fill="#00fffe" d="M 790.5,363.5 C 797.167,364.5 797.167,365.5 790.5,366.5C 790.5,365.5 790.5,364.5 790.5,363.5 Z"/></g>
<g><path style="opacity:0.487" fill="#00fffe" d="M 790.5,370.5 C 791.946,369.387 793.613,369.22 795.5,370C 793.977,371.788 792.31,371.955 790.5,370.5 Z"/></g>
<g><path style="opacity:0.433" fill="#00fffe" d="M 790.5,373.5 C 792.429,373.231 794.095,373.731 795.5,375C 794.667,375.167 793.833,375.333 793,375.5C 791.624,375.316 790.791,374.649 790.5,373.5 Z"/></g>
<g><path style="opacity:0.437" fill="#00fffe" d="M 790.5,379.5 C 792.199,379.34 793.866,379.506 795.5,380C 793.415,382.139 791.749,381.972 790.5,379.5 Z"/></g>
<g><path style="opacity:0.44" fill="#00fffe" d="M 790.5,383.5 C 792.429,383.231 794.095,383.731 795.5,385C 794.667,385.167 793.833,385.333 793,385.5C 791.624,385.316 790.791,384.649 790.5,383.5 Z"/></g>
<g><path style="opacity:0.38" fill="#00fffe" d="M 790.5,389.5 C 792.199,389.34 793.866,389.506 795.5,390C 793.415,392.139 791.749,391.972 790.5,389.5 Z"/></g>
<g><path style="opacity:0.38" fill="#00fffe" d="M 790.5,398.5 C 792.429,398.231 794.095,398.731 795.5,400C 794.667,400.167 793.833,400.333 793,400.5C 791.624,400.316 790.791,399.649 790.5,398.5 Z"/></g>
<g><path style="opacity:0.406" fill="#00fffe" d="M 790.5,404.5 C 792.199,404.34 793.866,404.506 795.5,405C 793.415,407.139 791.749,406.972 790.5,404.5 Z"/></g>
<g><path style="opacity:0.437" fill="#00fffe" d="M 790.5,408.5 C 792.429,408.231 794.095,408.731 795.5,410C 794.667,410.167 793.833,410.333 793,410.5C 791.624,410.316 790.791,409.649 790.5,408.5 Z"/></g>
<g><path style="opacity:0.382" fill="#00fffe" d="M 16.5,414.5 C 19.7755,414.882 19.7755,416.215 16.5,418.5C 14.2064,417.375 14.2064,416.041 16.5,414.5 Z"/></g>
<g><path style="opacity:0.422" fill="#00fffe" d="M 790.5,414.5 C 792.199,414.34 793.866,414.506 795.5,415C 793.415,417.139 791.749,416.972 790.5,414.5 Z"/></g>
<g><path style="opacity:0.34" fill="#00fffe" d="M 787.5,416.5 C 789.384,416.712 790.717,417.712 791.5,419.5C 789.219,420.262 787.886,419.262 787.5,416.5 Z"/></g>
<g><path style="opacity:0.36" fill="#00fffe" d="M 20.5,417.5 C 22.8379,418.648 22.6712,419.982 20,421.5C 19.5,421.167 19,420.833 18.5,420.5C 19.1925,419.482 19.8592,418.482 20.5,417.5 Z"/></g>
<g><path style="opacity:0.343" fill="#00fffe" d="M 784.5,419.5 C 786.145,420.479 787.479,421.812 788.5,423.5C 785.52,424.353 784.187,423.019 784.5,419.5 Z"/></g>
<g><path style="opacity:0.366" fill="#00fffe" d="M 24.5,420.5 C 27.0835,422.419 26.7502,424.086 23.5,425.5C 22.3482,423.603 22.6815,421.936 24.5,420.5 Z"/></g>
<g><path style="opacity:0.293" fill="#00fffe" d="M 780.5,423.5 C 783.719,424.021 784.719,425.688 783.5,428.5C 781.244,427.579 780.244,425.912 780.5,423.5 Z"/></g>
<g><path style="opacity:0.346" fill="#00fffe" d="M 27.5,424.5 C 29.9843,426.028 29.8177,427.694 27,429.5C 25.198,427.727 25.3647,426.06 27.5,424.5 Z"/></g>
<g><path style="opacity:0.306" fill="#00fffe" d="M 776.5,427.5 C 779.767,427.424 781.101,428.757 780.5,431.5C 778.192,431.035 776.858,429.701 776.5,427.5 Z"/></g>
<g><path style="opacity:0.435" fill="#00fffe" d="M 30.5,428.5 C 34.193,429.247 34.193,430.58 30.5,432.5C 29.7084,431.3 29.7084,429.967 30.5,428.5 Z"/></g>
<g><path style="opacity:0.371" fill="#00fffe" d="M 777.5,435.5 C 774.281,434.979 773.281,433.312 774.5,430.5C 776.756,431.421 777.756,433.088 777.5,435.5 Z"/></g>
<g><path style="opacity:0.407" fill="#00fffe" d="M 34.5,431.5 C 36.9843,433.028 36.8177,434.694 34,436.5C 32.198,434.727 32.3647,433.06 34.5,431.5 Z"/></g>
<g><path style="opacity:0.358" fill="#00fffe" d="M 769.5,434.5 C 772.932,434.248 773.932,435.581 772.5,438.5C 770.712,437.717 769.712,436.384 769.5,434.5 Z"/></g>
<g><path style="opacity:0.442" fill="#00fffe" d="M 37.5,435.5 C 41.193,436.247 41.193,437.58 37.5,439.5C 36.3744,438.192 36.3744,436.858 37.5,435.5 Z"/></g>
<g><path style="opacity:0.327" fill="#00fffe" d="M 766.5,437.5 C 770.006,438.116 770.839,439.783 769,442.5C 767.117,441.347 766.284,439.681 766.5,437.5 Z"/></g>
<g><path style="opacity:0.377" fill="#00fffe" d="M 41.5,438.5 C 45.246,439.698 45.0793,441.031 41,442.5C 40.5,442.333 40,442.167 39.5,442C 40.305,440.887 40.9717,439.721 41.5,438.5 Z"/></g>
<g><path style="opacity:0.423" fill="#00fffe" d="M 762.5,441.5 C 764.645,441.738 766.312,442.738 767.5,444.5C 764.688,445.719 763.021,444.719 762.5,441.5 Z"/></g>
<g><path style="opacity:0.435" fill="#00fffe" d="M 45.5,442.5 C 47.8852,443.867 47.5518,445.201 44.5,446.5C 44.1667,446.167 43.8333,445.833 43.5,445.5C 44.1925,444.482 44.8592,443.482 45.5,442.5 Z"/></g>
<g><path style="opacity:0.35" fill="#00fffe" d="M 763.5,449.5 C 760.281,448.979 759.281,447.312 760.5,444.5C 761.952,445.94 762.952,447.606 763.5,449.5 Z"/></g>
<g><path style="opacity:0.403" fill="#00fffe" d="M 49.5,445.5 C 50.2891,445.783 50.9558,446.283 51.5,447C 47.3167,451.634 46.65,451.134 49.5,445.5 Z"/></g>
<g><path style="opacity:0.392" fill="#00fffe" d="M 755.5,448.5 C 757.59,448.45 758.923,449.45 759.5,451.5C 757.219,452.262 755.886,451.262 755.5,448.5 Z"/></g>
<g><path style="opacity:0.385" fill="#00fffe" d="M 52.5,449.5 C 54.8852,450.867 54.5518,452.201 51.5,453.5C 51.1667,453.167 50.8333,452.833 50.5,452.5C 51.1925,451.482 51.8592,450.482 52.5,449.5 Z"/></g>
<g><path style="opacity:0.38" fill="#00fffe" d="M 751.5,453.5 C 753.707,452.13 755.374,452.797 756.5,455.5C 756.167,455.833 755.833,456.167 755.5,456.5C 754.148,455.476 752.815,454.476 751.5,453.5 Z"/></g>
<g><path style="opacity:0.393" fill="#00fffe" d="M 55.5,453.5 C 56.552,453.351 57.552,453.517 58.5,454C 57.3816,455.074 56.3816,456.24 55.5,457.5C 53.2064,456.375 53.2064,455.041 55.5,453.5 Z"/></g>
<g><path style="opacity:0.313" fill="#00fffe" d="M 748.5,455.5 C 750.384,455.712 751.717,456.712 752.5,458.5C 750.219,459.262 748.886,458.262 748.5,455.5 Z"/></g>
<g><path style="opacity:0.404" fill="#00fffe" d="M 59.5,456.5 C 62.0131,458.013 61.6798,459.346 58.5,460.5C 58.1667,460.167 57.8333,459.833 57.5,459.5C 58.1925,458.482 58.8592,457.482 59.5,456.5 Z"/></g>
<g><path style="opacity:0.423" fill="#00fffe" d="M 745.5,458.5 C 748.016,459.6 749.016,461.267 748.5,463.5C 746.244,462.579 745.244,460.912 745.5,458.5 Z"/></g>
<g><path style="opacity:0.308" fill="#00fffe" d="M 63.5,459.5 C 66.0976,461.704 65.5976,463.371 62,464.5C 61.5,464.167 61,463.833 60.5,463.5C 61.5244,462.148 62.5244,460.815 63.5,459.5 Z"/></g>
<g><path style="opacity:0.418" fill="#00fffe" d="M 741.5,462.5 C 743.384,462.712 744.717,463.712 745.5,465.5C 743.219,466.262 741.886,465.262 741.5,462.5 Z"/></g>
<g><path style="opacity:0.409" fill="#00fffe" d="M 66.5,463.5 C 68.8379,464.648 68.6712,465.982 66,467.5C 65.5,467.167 65,466.833 64.5,466.5C 65.1925,465.482 65.8592,464.482 66.5,463.5 Z"/></g>
<g><path style="opacity:0.446" fill="#00fffe" d="M 69.5,466.5 C 70.5862,466.62 71.2528,467.287 71.5,468.5C 71.1667,469.167 70.8333,469.833 70.5,470.5C 69.5713,469.311 69.238,467.978 69.5,466.5 Z"/></g>
<g><path style="opacity:0.501" fill="#00fffe" d="M 74.5,466.5 C 75.5862,466.62 76.2528,467.287 76.5,468.5C 76.1667,469.167 75.8333,469.833 75.5,470.5C 74.5713,469.311 74.238,467.978 74.5,466.5 Z"/></g>
<g><path style="opacity:0.441" fill="#00fffe" d="M 79.5,466.5 C 80.5862,466.62 81.2528,467.287 81.5,468.5C 81.1667,469.167 80.8333,469.833 80.5,470.5C 79.5713,469.311 79.238,467.978 79.5,466.5 Z"/></g>
<g><path style="opacity:0.441" fill="#00fffe" d="M 84.5,466.5 C 85.5862,466.62 86.2528,467.287 86.5,468.5C 86.1667,469.167 85.8333,469.833 85.5,470.5C 84.5713,469.311 84.238,467.978 84.5,466.5 Z"/></g>
<g><path style="opacity:0.681" fill="#00fffe" d="M 89.5,466.5 C 90.5862,466.62 91.2528,467.287 91.5,468.5C 91.1667,469.167 90.8333,469.833 90.5,470.5C 89.5713,469.311 89.238,467.978 89.5,466.5 Z"/></g>
<g><path style="opacity:0.446" fill="#00fffe" d="M 94.5,466.5 C 95.5862,466.62 96.2528,467.287 96.5,468.5C 96.1667,469.167 95.8333,469.833 95.5,470.5C 94.5713,469.311 94.238,467.978 94.5,466.5 Z"/></g>
<g><path style="opacity:0.478" fill="#00fffe" d="M 99.5,466.5 C 100.586,466.62 101.253,467.287 101.5,468.5C 101.167,469.167 100.833,469.833 100.5,470.5C 99.5713,469.311 99.238,467.978 99.5,466.5 Z"/></g>
<g><path style="opacity:0.441" fill="#00fffe" d="M 104.5,466.5 C 105.586,466.62 106.253,467.287 106.5,468.5C 106.167,469.167 105.833,469.833 105.5,470.5C 104.571,469.311 104.238,467.978 104.5,466.5 Z"/></g>
<g><path style="opacity:0.491" fill="#00fffe" d="M 109.5,466.5 C 110.586,466.62 111.253,467.287 111.5,468.5C 111.167,469.167 110.833,469.833 110.5,470.5C 109.571,469.311 109.238,467.978 109.5,466.5 Z"/></g>
<g><path style="opacity:0.474" fill="#00fffe" d="M 114.5,466.5 C 115.586,466.62 116.253,467.287 116.5,468.5C 116.167,469.167 115.833,469.833 115.5,470.5C 114.571,469.311 114.238,467.978 114.5,466.5 Z"/></g>
<g><path style="opacity:0.441" fill="#00fffe" d="M 119.5,466.5 C 120.586,466.62 121.253,467.287 121.5,468.5C 121.167,469.167 120.833,469.833 120.5,470.5C 119.571,469.311 119.238,467.978 119.5,466.5 Z"/></g>
<g><path style="opacity:0.425" fill="#00fffe" d="M 124.5,466.5 C 125.586,466.62 126.253,467.287 126.5,468.5C 126.167,469.167 125.833,469.833 125.5,470.5C 124.571,469.311 124.238,467.978 124.5,466.5 Z"/></g>
<g><path style="opacity:0.446" fill="#00fffe" d="M 129.5,466.5 C 130.586,466.62 131.253,467.287 131.5,468.5C 131.167,469.167 130.833,469.833 130.5,470.5C 129.571,469.311 129.238,467.978 129.5,466.5 Z"/></g>
<g><path style="opacity:0.501" fill="#00fffe" d="M 134.5,466.5 C 135.586,466.62 136.253,467.287 136.5,468.5C 136.167,469.167 135.833,469.833 135.5,470.5C 134.571,469.311 134.238,467.978 134.5,466.5 Z"/></g>
<g><path style="opacity:0.441" fill="#00fffe" d="M 139.5,466.5 C 140.586,466.62 141.253,467.287 141.5,468.5C 141.167,469.167 140.833,469.833 140.5,470.5C 139.571,469.311 139.238,467.978 139.5,466.5 Z"/></g>
<g><path style="opacity:0.441" fill="#00fffe" d="M 144.5,466.5 C 145.586,466.62 146.253,467.287 146.5,468.5C 146.167,469.167 145.833,469.833 145.5,470.5C 144.571,469.311 144.238,467.978 144.5,466.5 Z"/></g>
<g><path style="opacity:0.681" fill="#00fffe" d="M 149.5,466.5 C 150.586,466.62 151.253,467.287 151.5,468.5C 151.167,469.167 150.833,469.833 150.5,470.5C 149.571,469.311 149.238,467.978 149.5,466.5 Z"/></g>
<g><path style="opacity:0.456" fill="#00fffe" d="M 154.5,466.5 C 155.586,466.62 156.253,467.287 156.5,468.5C 156.167,469.167 155.833,469.833 155.5,470.5C 154.571,469.311 154.238,467.978 154.5,466.5 Z"/></g>
<g><path style="opacity:0.455" fill="#00fffe" d="M 159.5,466.5 C 160.586,466.62 161.253,467.287 161.5,468.5C 161.167,469.167 160.833,469.833 160.5,470.5C 159.571,469.311 159.238,467.978 159.5,466.5 Z"/></g>
<g><path style="opacity:0.446" fill="#00fffe" d="M 164.5,466.5 C 165.586,466.62 166.253,467.287 166.5,468.5C 166.167,469.167 165.833,469.833 165.5,470.5C 164.571,469.311 164.238,467.978 164.5,466.5 Z"/></g>
<g><path style="opacity:0.501" fill="#00fffe" d="M 169.5,466.5 C 170.586,466.62 171.253,467.287 171.5,468.5C 171.167,469.167 170.833,469.833 170.5,470.5C 169.571,469.311 169.238,467.978 169.5,466.5 Z"/></g>
<g><path style="opacity:0.441" fill="#00fffe" d="M 174.5,466.5 C 175.586,466.62 176.253,467.287 176.5,468.5C 176.167,469.167 175.833,469.833 175.5,470.5C 174.571,469.311 174.238,467.978 174.5,466.5 Z"/></g>
<g><path style="opacity:0.441" fill="#00fffe" d="M 179.5,466.5 C 180.586,466.62 181.253,467.287 181.5,468.5C 181.167,469.167 180.833,469.833 180.5,470.5C 179.571,469.311 179.238,467.978 179.5,466.5 Z"/></g>
<g><path style="opacity:0.425" fill="#00fffe" d="M 184.5,466.5 C 185.586,466.62 186.253,467.287 186.5,468.5C 186.167,469.167 185.833,469.833 185.5,470.5C 184.571,469.311 184.238,467.978 184.5,466.5 Z"/></g>
<g><path style="opacity:0.446" fill="#00fffe" d="M 189.5,466.5 C 190.586,466.62 191.253,467.287 191.5,468.5C 191.167,469.167 190.833,469.833 190.5,470.5C 189.571,469.311 189.238,467.978 189.5,466.5 Z"/></g>
<g><path style="opacity:0.478" fill="#00fffe" d="M 194.5,466.5 C 195.586,466.62 196.253,467.287 196.5,468.5C 196.167,469.167 195.833,469.833 195.5,470.5C 194.571,469.311 194.238,467.978 194.5,466.5 Z"/></g>
<g><path style="opacity:0.441" fill="#00fffe" d="M 199.5,466.5 C 200.586,466.62 201.253,467.287 201.5,468.5C 201.167,469.167 200.833,469.833 200.5,470.5C 199.571,469.311 199.238,467.978 199.5,466.5 Z"/></g>
<g><path style="opacity:0.474" fill="#00fffe" d="M 204.5,466.5 C 205.586,466.62 206.253,467.287 206.5,468.5C 206.167,469.167 205.833,469.833 205.5,470.5C 204.571,469.311 204.238,467.978 204.5,466.5 Z"/></g>
<g><path style="opacity:0.721" fill="#00fffe" d="M 209.5,466.5 C 210.586,466.62 211.253,467.287 211.5,468.5C 211.167,469.167 210.833,469.833 210.5,470.5C 209.571,469.311 209.238,467.978 209.5,466.5 Z"/></g>
<g><path style="opacity:0.441" fill="#00fffe" d="M 214.5,466.5 C 215.586,466.62 216.253,467.287 216.5,468.5C 216.167,469.167 215.833,469.833 215.5,470.5C 214.571,469.311 214.238,467.978 214.5,466.5 Z"/></g>
<g><path style="opacity:0.425" fill="#00fffe" d="M 219.5,466.5 C 220.586,466.62 221.253,467.287 221.5,468.5C 221.167,469.167 220.833,469.833 220.5,470.5C 219.571,469.311 219.238,467.978 219.5,466.5 Z"/></g>
<g><path style="opacity:0.446" fill="#00fffe" d="M 224.5,466.5 C 225.586,466.62 226.253,467.287 226.5,468.5C 226.167,469.167 225.833,469.833 225.5,470.5C 224.571,469.311 224.238,467.978 224.5,466.5 Z"/></g>
<g><path style="opacity:0.501" fill="#00fffe" d="M 229.5,466.5 C 230.586,466.62 231.253,467.287 231.5,468.5C 231.167,469.167 230.833,469.833 230.5,470.5C 229.571,469.311 229.238,467.978 229.5,466.5 Z"/></g>
<g><path style="opacity:0.441" fill="#00fffe" d="M 234.5,466.5 C 235.586,466.62 236.253,467.287 236.5,468.5C 236.167,469.167 235.833,469.833 235.5,470.5C 234.571,469.311 234.238,467.978 234.5,466.5 Z"/></g>
<g><path style="opacity:0.441" fill="#00fffe" d="M 239.5,466.5 C 240.586,466.62 241.253,467.287 241.5,468.5C 241.167,469.167 240.833,469.833 240.5,470.5C 239.571,469.311 239.238,467.978 239.5,466.5 Z"/></g>
<g><path style="opacity:0.425" fill="#00fffe" d="M 244.5,466.5 C 245.586,466.62 246.253,467.287 246.5,468.5C 246.167,469.167 245.833,469.833 245.5,470.5C 244.571,469.311 244.238,467.978 244.5,466.5 Z"/></g>
<g><path style="opacity:0.446" fill="#00fffe" d="M 249.5,466.5 C 250.586,466.62 251.253,467.287 251.5,468.5C 251.167,469.167 250.833,469.833 250.5,470.5C 249.571,469.311 249.238,467.978 249.5,466.5 Z"/></g>
<g><path style="opacity:0.495" fill="#00fffe" d="M 254.5,466.5 C 255.586,466.62 256.253,467.287 256.5,468.5C 256.167,469.167 255.833,469.833 255.5,470.5C 254.571,469.311 254.238,467.978 254.5,466.5 Z"/></g>
<g><path style="opacity:0.449" fill="#00fffe" d="M 259.5,466.5 C 260.586,466.62 261.253,467.287 261.5,468.5C 261.167,469.167 260.833,469.833 260.5,470.5C 259.571,469.311 259.238,467.978 259.5,466.5 Z"/></g>
<g><path style="opacity:0.501" fill="#00fffe" d="M 264.5,466.5 C 265.586,466.62 266.253,467.287 266.5,468.5C 266.167,469.167 265.833,469.833 265.5,470.5C 264.571,469.311 264.238,467.978 264.5,466.5 Z"/></g>
<g><path style="opacity:0.68" fill="#00fffe" d="M 269.5,466.5 C 270.586,466.62 271.253,467.287 271.5,468.5C 271.167,469.167 270.833,469.833 270.5,470.5C 269.571,469.311 269.238,467.978 269.5,466.5 Z"/></g>
<g><path style="opacity:0.441" fill="#00fffe" d="M 274.5,466.5 C 275.586,466.62 276.253,467.287 276.5,468.5C 276.167,469.167 275.833,469.833 275.5,470.5C 274.571,469.311 274.238,467.978 274.5,466.5 Z"/></g>
<g><path style="opacity:0.425" fill="#00fffe" d="M 279.5,466.5 C 280.586,466.62 281.253,467.287 281.5,468.5C 281.167,469.167 280.833,469.833 280.5,470.5C 279.571,469.311 279.238,467.978 279.5,466.5 Z"/></g>
<g><path style="opacity:0.446" fill="#00fffe" d="M 284.5,466.5 C 285.586,466.62 286.253,467.287 286.5,468.5C 286.167,469.167 285.833,469.833 285.5,470.5C 284.571,469.311 284.238,467.978 284.5,466.5 Z"/></g>
<g><path style="opacity:0.478" fill="#00fffe" d="M 289.5,466.5 C 290.586,466.62 291.253,467.287 291.5,468.5C 291.167,469.167 290.833,469.833 290.5,470.5C 289.571,469.311 289.238,467.978 289.5,466.5 Z"/></g>
<g><path style="opacity:0.441" fill="#00fffe" d="M 294.5,466.5 C 295.586,466.62 296.253,467.287 296.5,468.5C 296.167,469.167 295.833,469.833 295.5,470.5C 294.571,469.311 294.238,467.978 294.5,466.5 Z"/></g>
<g><path style="opacity:0.457" fill="#00fffe" d="M 299.5,466.5 C 300.586,466.62 301.253,467.287 301.5,468.5C 301.167,469.167 300.833,469.833 300.5,470.5C 299.571,469.311 299.238,467.978 299.5,466.5 Z"/></g>
<g><path style="opacity:0.445" fill="#00fffe" d="M 304.5,466.5 C 305.586,466.62 306.253,467.287 306.5,468.5C 306.167,469.167 305.833,469.833 305.5,470.5C 304.571,469.311 304.238,467.978 304.5,466.5 Z"/></g>
<g><path style="opacity:0.441" fill="#00fffe" d="M 309.5,466.5 C 310.586,466.62 311.253,467.287 311.5,468.5C 311.167,469.167 310.833,469.833 310.5,470.5C 309.571,469.311 309.238,467.978 309.5,466.5 Z"/></g>
<g><path style="opacity:0.425" fill="#00fffe" d="M 314.5,466.5 C 315.586,466.62 316.253,467.287 316.5,468.5C 316.167,469.167 315.833,469.833 315.5,470.5C 314.571,469.311 314.238,467.978 314.5,466.5 Z"/></g>
<g><path style="opacity:0.446" fill="#00fffe" d="M 319.5,466.5 C 320.586,466.62 321.253,467.287 321.5,468.5C 321.167,469.167 320.833,469.833 320.5,470.5C 319.571,469.311 319.238,467.978 319.5,466.5 Z"/></g>
<g><path style="opacity:0.501" fill="#00fffe" d="M 324.5,466.5 C 325.586,466.62 326.253,467.287 326.5,468.5C 326.167,469.167 325.833,469.833 325.5,470.5C 324.571,469.311 324.238,467.978 324.5,466.5 Z"/></g>
<g><path style="opacity:0.68" fill="#00fffe" d="M 329.5,466.5 C 330.586,466.62 331.253,467.287 331.5,468.5C 331.167,469.167 330.833,469.833 330.5,470.5C 329.571,469.311 329.238,467.978 329.5,466.5 Z"/></g>
<g><path style="opacity:0.441" fill="#00fffe" d="M 334.5,466.5 C 335.586,466.62 336.253,467.287 336.5,468.5C 336.167,469.167 335.833,469.833 335.5,470.5C 334.571,469.311 334.238,467.978 334.5,466.5 Z"/></g>
<g><path style="opacity:0.425" fill="#00fffe" d="M 339.5,466.5 C 340.586,466.62 341.253,467.287 341.5,468.5C 341.167,469.167 340.833,469.833 340.5,470.5C 339.571,469.311 339.238,467.978 339.5,466.5 Z"/></g>
<g><path style="opacity:0.446" fill="#00fffe" d="M 344.5,466.5 C 345.586,466.62 346.253,467.287 346.5,468.5C 346.167,469.167 345.833,469.833 345.5,470.5C 344.571,469.311 344.238,467.978 344.5,466.5 Z"/></g>
<g><path style="opacity:0.478" fill="#00fffe" d="M 349.5,466.5 C 350.586,466.62 351.253,467.287 351.5,468.5C 351.167,469.167 350.833,469.833 350.5,470.5C 349.571,469.311 349.238,467.978 349.5,466.5 Z"/></g>
<g><path style="opacity:0.441" fill="#00fffe" d="M 354.5,466.5 C 355.586,466.62 356.253,467.287 356.5,468.5C 356.167,469.167 355.833,469.833 355.5,470.5C 354.571,469.311 354.238,467.978 354.5,466.5 Z"/></g>
<g><path style="opacity:0.491" fill="#00fffe" d="M 359.5,466.5 C 360.586,466.62 361.253,467.287 361.5,468.5C 361.167,469.167 360.833,469.833 360.5,470.5C 359.571,469.311 359.238,467.978 359.5,466.5 Z"/></g>
<g><path style="opacity:0.484" fill="#00fffe" d="M 364.5,466.5 C 365.586,466.62 366.253,467.287 366.5,468.5C 366.167,469.167 365.833,469.833 365.5,470.5C 364.571,469.311 364.238,467.978 364.5,466.5 Z"/></g>
<g><path style="opacity:0.441" fill="#00fffe" d="M 369.5,466.5 C 370.586,466.62 371.253,467.287 371.5,468.5C 371.167,469.167 370.833,469.833 370.5,470.5C 369.571,469.311 369.238,467.978 369.5,466.5 Z"/></g>
<g><path style="opacity:0.425" fill="#00fffe" d="M 374.5,466.5 C 375.586,466.62 376.253,467.287 376.5,468.5C 376.167,469.167 375.833,469.833 375.5,470.5C 374.571,469.311 374.238,467.978 374.5,466.5 Z"/></g>
<g><path style="opacity:0.446" fill="#00fffe" d="M 379.5,466.5 C 380.586,466.62 381.253,467.287 381.5,468.5C 381.167,469.167 380.833,469.833 380.5,470.5C 379.571,469.311 379.238,467.978 379.5,466.5 Z"/></g>
<g><path style="opacity:0.501" fill="#00fffe" d="M 384.5,466.5 C 385.586,466.62 386.253,467.287 386.5,468.5C 386.167,469.167 385.833,469.833 385.5,470.5C 384.571,469.311 384.238,467.978 384.5,466.5 Z"/></g>
<g><path style="opacity:0.68" fill="#00fffe" d="M 389.5,466.5 C 390.586,466.62 391.253,467.287 391.5,468.5C 391.167,469.167 390.833,469.833 390.5,470.5C 389.571,469.311 389.238,467.978 389.5,466.5 Z"/></g>
<g><path style="opacity:0.441" fill="#00fffe" d="M 394.5,466.5 C 395.586,466.62 396.253,467.287 396.5,468.5C 396.167,469.167 395.833,469.833 395.5,470.5C 394.571,469.311 394.238,467.978 394.5,466.5 Z"/></g>
<g><path style="opacity:0.425" fill="#00fffe" d="M 399.5,466.5 C 400.586,466.62 401.253,467.287 401.5,468.5C 401.167,469.167 400.833,469.833 400.5,470.5C 399.571,469.311 399.238,467.978 399.5,466.5 Z"/></g>
<g><path style="opacity:0.456" fill="#00fffe" d="M 404.5,466.5 C 405.586,466.62 406.253,467.287 406.5,468.5C 406.167,469.167 405.833,469.833 405.5,470.5C 404.571,469.311 404.238,467.978 404.5,466.5 Z"/></g>
<g><path style="opacity:0.455" fill="#00fffe" d="M 409.5,466.5 C 410.586,466.62 411.253,467.287 411.5,468.5C 411.167,469.167 410.833,469.833 410.5,470.5C 409.571,469.311 409.238,467.978 409.5,466.5 Z"/></g>
<g><path style="opacity:0.446" fill="#00fffe" d="M 414.5,466.5 C 415.586,466.62 416.253,467.287 416.5,468.5C 416.167,469.167 415.833,469.833 415.5,470.5C 414.571,469.311 414.238,467.978 414.5,466.5 Z"/></g>
<g><path style="opacity:0.501" fill="#00fffe" d="M 419.5,466.5 C 420.586,466.62 421.253,467.287 421.5,468.5C 421.167,469.167 420.833,469.833 420.5,470.5C 419.571,469.311 419.238,467.978 419.5,466.5 Z"/></g>
<g><path style="opacity:0.484" fill="#00fffe" d="M 424.5,466.5 C 425.586,466.62 426.253,467.287 426.5,468.5C 426.167,469.167 425.833,469.833 425.5,470.5C 424.571,469.311 424.238,467.978 424.5,466.5 Z"/></g>
<g><path style="opacity:0.441" fill="#00fffe" d="M 429.5,466.5 C 430.586,466.62 431.253,467.287 431.5,468.5C 431.167,469.167 430.833,469.833 430.5,470.5C 429.571,469.311 429.238,467.978 429.5,466.5 Z"/></g>
<g><path style="opacity:0.425" fill="#00fffe" d="M 434.5,466.5 C 435.586,466.62 436.253,467.287 436.5,468.5C 436.167,469.167 435.833,469.833 435.5,470.5C 434.571,469.311 434.238,467.978 434.5,466.5 Z"/></g>
<g><path style="opacity:0.446" fill="#00fffe" d="M 439.5,466.5 C 440.586,466.62 441.253,467.287 441.5,468.5C 441.167,469.167 440.833,469.833 440.5,470.5C 439.571,469.311 439.238,467.978 439.5,466.5 Z"/></g>
<g><path style="opacity:0.478" fill="#00fffe" d="M 444.5,466.5 C 445.586,466.62 446.253,467.287 446.5,468.5C 446.167,469.167 445.833,469.833 445.5,470.5C 444.571,469.311 444.238,467.978 444.5,466.5 Z"/></g>
<g><path style="opacity:0.68" fill="#00fffe" d="M 449.5,466.5 C 450.586,466.62 451.253,467.287 451.5,468.5C 451.167,469.167 450.833,469.833 450.5,470.5C 449.571,469.311 449.238,467.978 449.5,466.5 Z"/></g>
<g><path style="opacity:0.474" fill="#00fffe" d="M 454.5,466.5 C 455.586,466.62 456.253,467.287 456.5,468.5C 456.167,469.167 455.833,469.833 455.5,470.5C 454.571,469.311 454.238,467.978 454.5,466.5 Z"/></g>
<g><path style="opacity:0.484" fill="#00fffe" d="M 459.5,466.5 C 460.586,466.62 461.253,467.287 461.5,468.5C 461.167,469.167 460.833,469.833 460.5,470.5C 459.571,469.311 459.238,467.978 459.5,466.5 Z"/></g>
<g><path style="opacity:0.441" fill="#00fffe" d="M 464.5,466.5 C 465.586,466.62 466.253,467.287 466.5,468.5C 466.167,469.167 465.833,469.833 465.5,470.5C 464.571,469.311 464.238,467.978 464.5,466.5 Z"/></g>
<g><path style="opacity:0.425" fill="#00fffe" d="M 469.5,466.5 C 470.586,466.62 471.253,467.287 471.5,468.5C 471.167,469.167 470.833,469.833 470.5,470.5C 469.571,469.311 469.238,467.978 469.5,466.5 Z"/></g>
<g><path style="opacity:0.446" fill="#00fffe" d="M 474.5,466.5 C 475.586,466.62 476.253,467.287 476.5,468.5C 476.167,469.167 475.833,469.833 475.5,470.5C 474.571,469.311 474.238,467.978 474.5,466.5 Z"/></g>
<g><path style="opacity:0.501" fill="#00fffe" d="M 479.5,466.5 C 480.586,466.62 481.253,467.287 481.5,468.5C 481.167,469.167 480.833,469.833 480.5,470.5C 479.571,469.311 479.238,467.978 479.5,466.5 Z"/></g>
<g><path style="opacity:0.473" fill="#00fffe" d="M 484.5,466.5 C 485.586,466.62 486.253,467.287 486.5,468.5C 486.167,469.167 485.833,469.833 485.5,470.5C 484.571,469.311 484.238,467.978 484.5,466.5 Z"/></g>
<g><path style="opacity:0.441" fill="#00fffe" d="M 489.5,466.5 C 490.586,466.62 491.253,467.287 491.5,468.5C 491.167,469.167 490.833,469.833 490.5,470.5C 489.571,469.311 489.238,467.978 489.5,466.5 Z"/></g>
<g><path style="opacity:0.425" fill="#00fffe" d="M 494.5,466.5 C 495.586,466.62 496.253,467.287 496.5,468.5C 496.167,469.167 495.833,469.833 495.5,470.5C 494.571,469.311 494.238,467.978 494.5,466.5 Z"/></g>
<g><path style="opacity:0.446" fill="#00fffe" d="M 499.5,466.5 C 500.586,466.62 501.253,467.287 501.5,468.5C 501.167,469.167 500.833,469.833 500.5,470.5C 499.571,469.311 499.238,467.978 499.5,466.5 Z"/></g>
<g><path style="opacity:0.495" fill="#00fffe" d="M 504.5,466.5 C 505.586,466.62 506.253,467.287 506.5,468.5C 506.167,469.167 505.833,469.833 505.5,470.5C 504.571,469.311 504.238,467.978 504.5,466.5 Z"/></g>
<g><path style="opacity:0.695" fill="#00fffe" d="M 509.5,466.5 C 510.586,466.62 511.253,467.287 511.5,468.5C 511.167,469.167 510.833,469.833 510.5,470.5C 509.571,469.311 509.238,467.978 509.5,466.5 Z"/></g>
<g><path style="opacity:0.501" fill="#00fffe" d="M 514.5,466.5 C 515.586,466.62 516.253,467.287 516.5,468.5C 516.167,469.167 515.833,469.833 515.5,470.5C 514.571,469.311 514.238,467.978 514.5,466.5 Z"/></g>
<g><path style="opacity:0.484" fill="#00fffe" d="M 519.5,466.5 C 520.586,466.62 521.253,467.287 521.5,468.5C 521.167,469.167 520.833,469.833 520.5,470.5C 519.571,469.311 519.238,467.978 519.5,466.5 Z"/></g>
<g><path style="opacity:0.441" fill="#00fffe" d="M 524.5,466.5 C 525.586,466.62 526.253,467.287 526.5,468.5C 526.167,469.167 525.833,469.833 525.5,470.5C 524.571,469.311 524.238,467.978 524.5,466.5 Z"/></g>
<g><path style="opacity:0.425" fill="#00fffe" d="M 529.5,466.5 C 530.586,466.62 531.253,467.287 531.5,468.5C 531.167,469.167 530.833,469.833 530.5,470.5C 529.571,469.311 529.238,467.978 529.5,466.5 Z"/></g>
<g><path style="opacity:0.446" fill="#00fffe" d="M 534.5,466.5 C 535.586,466.62 536.253,467.287 536.5,468.5C 536.167,469.167 535.833,469.833 535.5,470.5C 534.571,469.311 534.238,467.978 534.5,466.5 Z"/></g>
<g><path style="opacity:0.478" fill="#00fffe" d="M 539.5,466.5 C 540.586,466.62 541.253,467.287 541.5,468.5C 541.167,469.167 540.833,469.833 540.5,470.5C 539.571,469.311 539.238,467.978 539.5,466.5 Z"/></g>
<g><path style="opacity:0.437" fill="#00fffe" d="M 544.5,466.5 C 545.586,466.62 546.253,467.287 546.5,468.5C 546.167,469.167 545.833,469.833 545.5,470.5C 544.571,469.311 544.238,467.978 544.5,466.5 Z"/></g>
<g><path style="opacity:0.457" fill="#00fffe" d="M 549.5,466.5 C 550.586,466.62 551.253,467.287 551.5,468.5C 551.167,469.167 550.833,469.833 550.5,470.5C 549.571,469.311 549.238,467.978 549.5,466.5 Z"/></g>
<g><path style="opacity:0.445" fill="#00fffe" d="M 554.5,466.5 C 555.586,466.62 556.253,467.287 556.5,468.5C 556.167,469.167 555.833,469.833 555.5,470.5C 554.571,469.311 554.238,467.978 554.5,466.5 Z"/></g>
<g><path style="opacity:0.441" fill="#00fffe" d="M 559.5,466.5 C 560.586,466.62 561.253,467.287 561.5,468.5C 561.167,469.167 560.833,469.833 560.5,470.5C 559.571,469.311 559.238,467.978 559.5,466.5 Z"/></g>
<g><path style="opacity:0.425" fill="#00fffe" d="M 564.5,466.5 C 565.586,466.62 566.253,467.287 566.5,468.5C 566.167,469.167 565.833,469.833 565.5,470.5C 564.571,469.311 564.238,467.978 564.5,466.5 Z"/></g>
</svg>
