<?xml version="1.0" encoding="UTF-8"?>
<!DOCTYPE svg PUBLIC "-//W3C//DTD SVG 1.1//EN" "http://www.w3.org/Graphics/SVG/1.1/DTD/svg11.dtd">
<svg xmlns="http://www.w3.org/2000/svg" version="1.1" width="905px" height="143px" style="shape-rendering:geometricPrecision; text-rendering:geometricPrecision; image-rendering:optimizeQuality; fill-rule:evenodd; clip-rule:evenodd" xmlns:xlink="http://www.w3.org/1999/xlink">
<g><path style="opacity:0.836" fill="#00fffe" d="M 41.5,-0.5 C 44.5,-0.5 47.5,-0.5 50.5,-0.5C 52.4904,1.16345 54.157,3.16345 55.5,5.5C 126.068,6.16825 196.568,6.83491 267,7.5C 278.542,7.04548 290.042,6.71215 301.5,6.5C 473.46,7.332 645.46,7.832 817.5,8C 843.039,45.5755 868.206,83.4088 893,121.5C 895.28,123.037 897.78,124.203 900.5,125C 902.469,126.5 903.802,128.333 904.5,130.5C 904.5,132.167 904.5,133.833 904.5,135.5C 903.247,138.424 901.247,140.757 898.5,142.5C 895.833,142.5 893.167,142.5 890.5,142.5C 883.464,137.297 882.798,131.297 888.5,124.5C 864.042,87.7524 839.709,50.9191 815.5,14C 770.929,13.8305 726.429,13.3305 682,12.5C 670.458,12.9545 658.958,13.2879 647.5,13.5C 450.6,12.778 256.267,12.1113 64.5,11.5C 61.5,11.8333 58.5,12.1667 55.5,12.5C 52.4531,18.1393 47.7864,19.9726 41.5,18C 36.7795,14.7015 35.2795,10.2015 37,4.5C 38.3657,2.63834 39.8657,0.971672 41.5,-0.5 Z"/></g>
<g><path style="opacity:0.953" fill="#00fffe" d="M -0.5,28.5 C 7.85989,28.1688 16.1932,28.5021 24.5,29.5C 44.5,66.1667 64.5,102.833 84.5,139.5C 75.8333,140.833 67.1667,140.833 58.5,139.5C 39.0591,102.945 19.3925,66.6119 -0.5,30.5C -0.5,29.8333 -0.5,29.1667 -0.5,28.5 Z"/></g>
<g><path style="opacity:0.952" fill="#00fffe" d="M 32.5,29.5 C 40.9017,28.1721 49.4017,28.1721 58,29.5C 78.0397,66.4135 98.2063,103.247 118.5,140C 109.833,140.667 101.167,140.667 92.5,140C 72.5987,103.025 52.5987,66.1916 32.5,29.5 Z"/></g>
<g><path style="opacity:0.953" fill="#00fffe" d="M 69.5,28.5 C 77.8599,28.1688 86.1932,28.5021 94.5,29.5C 114.5,66.1667 134.5,102.833 154.5,139.5C 145.833,140.833 137.167,140.833 128.5,139.5C 108.373,102.717 88.7067,65.7168 69.5,28.5 Z"/></g>
<g><path style="opacity:0.99" fill="#00fffe" d="M 103.5,28.5 C 337.834,28.1667 572.168,28.5 806.5,29.5C 830.303,66.4683 854.303,103.302 878.5,140C 641.166,140.833 403.833,140.667 166.5,139.5C 145.223,102.608 124.223,65.6078 103.5,28.5 Z"/></g>
</svg>
