<?xml version="1.0" encoding="UTF-8"?>
<!DOCTYPE svg PUBLIC "-//W3C//DTD SVG 1.1//EN" "http://www.w3.org/Graphics/SVG/1.1/DTD/svg11.dtd">
<svg xmlns="http://www.w3.org/2000/svg" version="1.1" width="929px" height="432px" style="shape-rendering:geometricPrecision; text-rendering:geometricPrecision; image-rendering:optimizeQuality; fill-rule:evenodd; clip-rule:evenodd" xmlns:xlink="http://www.w3.org/1999/xlink">
<g><path style="opacity:0.932" fill="#49f5ff" d="M 1.5,-0.5 C 60.1667,-0.5 118.833,-0.5 177.5,-0.5C 177.5,2.83333 177.5,6.16667 177.5,9.5C 261.834,9.04579 346.167,8.87912 430.5,9C 433.503,12.8104 432.67,15.6437 428,17.5C 401.254,16.5408 373.421,16.2074 344.5,16.5C 321.994,16.1692 299.66,16.5026 277.5,17.5C 192.977,17.2955 106.977,17.6289 19.5,18.5C 19.1092,55.4994 18.7759,92.4994 18.5,129.5C 17.3922,144 16.8922,158.667 17,173.5C 17.1762,169.312 17.6762,165.312 18.5,161.5C 17.6623,244.497 16.9956,327.497 16.5,410.5C 47.8333,410.5 79.1667,410.5 110.5,410.5C 110.369,411.376 110.702,412.043 111.5,412.5C 131.436,411.894 151.436,411.227 171.5,410.5C 267.499,409.997 363.499,409.664 459.5,409.5C 441.338,410.332 423.005,410.832 404.5,411C 413.833,411.167 423.167,411.333 432.5,411.5C 461.779,411.302 491.113,411.135 520.5,411C 501.995,410.832 483.662,410.332 465.5,409.5C 561.501,409.664 657.501,409.997 753.5,410.5C 771.706,411.179 790.039,411.846 808.5,412.5C 809.598,411.385 810.765,411.385 812,412.5C 813.03,412.164 813.53,411.497 813.5,410.5C 824.167,410.5 834.833,410.5 845.5,410.5C 866.327,411.497 887.327,411.831 908.5,411.5C 909.166,403.007 909.5,394.34 909.5,385.5C 909.694,372.962 909.027,360.629 907.5,348.5C 906.487,236.864 905.821,126.864 905.5,18.5C 818.545,17.7326 732.545,17.3993 647.5,17.5C 626.34,16.5027 605.007,16.1694 583.5,16.5C 554.684,16.2789 526.184,16.6122 498,17.5C 494.678,17.3014 492.511,15.6347 491.5,12.5C 491.968,10.8662 492.968,9.69951 494.5,9C 569.5,8.73967 644.5,8.90633 719.5,9.5C 718.737,10.2679 717.737,10.7679 716.5,11C 719.333,11.1667 722.167,11.3333 725,11.5C 741.167,11.3948 757.667,11.2281 774.5,11C 763.326,10.8305 752.326,10.3305 741.5,9.5C 788.653,10.1656 829.487,10.1656 864,9.5C 879.851,10.0226 895.684,10.8559 911.5,12C 912,12.5 912.5,13 913,13.5C 913.998,46.4933 914.831,79.4933 915.5,112.5C 918.812,110.01 922.478,108.343 926.5,107.5C 926.823,111.226 926.489,114.893 925.5,118.5C 922.327,120.587 918.994,122.421 915.5,124C 914.217,126.795 914.217,129.628 915.5,132.5C 918.833,130.833 922.167,129.167 925.5,127.5C 926.659,131.122 926.825,134.789 926,138.5C 922.744,140.879 919.244,142.879 915.5,144.5C 914.167,147.5 914.167,150.5 915.5,153.5C 918.833,151.5 922.167,149.5 925.5,147.5C 926.66,151.459 926.827,155.459 926,159.5C 922.833,161.333 919.667,163.167 916.5,165C 914.496,167.841 913.996,171.007 915,174.5C 918.371,172.3 921.871,170.3 925.5,168.5C 926.204,171.704 926.87,174.871 927.5,178C 923.844,181.163 919.844,183.829 915.5,186C 914.663,187.011 914.33,188.178 914.5,189.5C 918.182,189.335 921.848,189.501 925.5,190C 926,190.5 926.5,191 927,191.5C 927.167,250.668 927.667,309.668 928.5,368.5C 928.5,389.167 928.5,409.833 928.5,430.5C 927.833,430.5 927.5,430.833 927.5,431.5C 925.167,431.5 922.833,431.5 920.5,431.5C 920.167,430.167 919.833,430.167 919.5,431.5C 919.167,431.5 918.833,431.5 918.5,431.5C 918.167,430.167 917.833,430.167 917.5,431.5C 917.167,431.5 916.833,431.5 916.5,431.5C 916.167,430.167 915.833,430.167 915.5,431.5C 911.833,431.5 908.167,431.5 904.5,431.5C 904.167,430.167 903.833,430.167 903.5,431.5C 901.833,431.5 900.167,431.5 898.5,431.5C 898.167,430.167 897.833,430.167 897.5,431.5C 897.167,431.5 896.833,431.5 896.5,431.5C 896.167,430.167 895.833,430.167 895.5,431.5C 895.167,431.5 894.833,431.5 894.5,431.5C 894.167,430.167 893.833,430.167 893.5,431.5C 893.167,431.5 892.833,431.5 892.5,431.5C 892.167,430.167 891.833,430.167 891.5,431.5C 891.167,431.5 890.833,431.5 890.5,431.5C 890.167,430.167 889.833,430.167 889.5,431.5C 889.167,431.5 888.833,431.5 888.5,431.5C 888.167,430.167 887.833,430.167 887.5,431.5C 887.167,431.5 886.833,431.5 886.5,431.5C 886.167,430.167 885.833,430.167 885.5,431.5C 885.167,431.5 884.833,431.5 884.5,431.5C 884.167,430.167 883.833,430.167 883.5,431.5C 883.167,431.5 882.833,431.5 882.5,431.5C 882.167,430.167 881.833,430.167 881.5,431.5C 881.167,431.5 880.833,431.5 880.5,431.5C 880.167,430.167 879.833,430.167 879.5,431.5C 879.167,431.5 878.833,431.5 878.5,431.5C 878.167,430.167 877.833,430.167 877.5,431.5C 877.167,431.5 876.833,431.5 876.5,431.5C 876.167,430.167 875.833,430.167 875.5,431.5C 875.167,431.5 874.833,431.5 874.5,431.5C 874.167,430.167 873.833,430.167 873.5,431.5C 873.167,431.5 872.833,431.5 872.5,431.5C 872.167,430.167 871.833,430.167 871.5,431.5C 871.167,431.5 870.833,431.5 870.5,431.5C 846.833,430.167 823.167,430.167 799.5,431.5C 799.167,431.5 798.833,431.5 798.5,431.5C 735.342,429.886 672.008,429.053 608.5,429C 607.833,428 607.167,427 606.5,426C 606.543,423.5 606.877,421 607.5,418.5C 597.554,418.277 587.554,417.944 577.5,417.5C 558.833,417.5 540.167,417.5 521.5,417.5C 482.167,417.5 442.833,417.5 403.5,417.5C 384.833,417.5 366.167,417.5 347.5,417.5C 296.837,418.038 244.337,418.705 190,419.5C 132.341,418.848 73.6739,418.848 14,419.5C 11.849,419.357 10.1824,418.357 9,416.5C 8.50009,401.837 8.33342,387.17 8.5,372.5C 10.337,353.357 10.837,334.024 10,314.5C 9.83048,325.674 9.33048,336.674 8.5,347.5C 9.3873,302.082 9.72063,258.915 9.5,218C 9.16667,217.5 8.83333,217 8.5,216.5C 5.864,217.971 3.364,219.637 1,221.5C 0.617425,220.944 0.117425,220.611 -0.5,220.5C -0.5,216.833 -0.5,213.167 -0.5,209.5C 4.55874,207.862 7.89207,204.696 9.5,200C 9.33333,198.5 9.16667,197 9,195.5C 6.16514,196.916 3.49848,198.583 1,200.5C 0.617425,199.944 0.117425,199.611 -0.5,199.5C -0.5,196.167 -0.5,192.833 -0.5,189.5C 2.29932,187.262 5.29932,185.262 8.5,183.5C 9.65476,180.554 9.82142,177.554 9,174.5C 1.12066,180.289 -1.54601,177.956 1,167.5C 3.76233,166.019 6.429,164.353 9,162.5C 9.8184,159.773 9.65173,157.106 8.5,154.5C 6.32953,156.086 3.99619,157.42 1.5,158.5C 0.818153,157.757 0.151487,157.091 -0.5,156.5C -0.5,156.167 -0.5,155.833 -0.5,155.5C 0.165957,152.642 0.832624,149.642 1.5,146.5C 4.07937,145.294 6.57937,143.961 9,142.5C 9.27338,140.899 9.77338,139.399 10.5,138C 9.61983,136.644 9.28649,135.144 9.5,133.5C 6.31479,133.98 3.48146,133.314 1,131.5C 0.177386,87.4588 0.344053,43.4588 1.5,-0.5 Z"/></g>
<g><path style="opacity:0.864" fill="#48f5ff" d="M 442.5,4.5 C 445.465,4.23137 448.798,4.73137 452.5,6C 455.293,10.4175 457.959,14.9175 460.5,19.5C 456.5,20.8333 452.5,20.8333 448.5,19.5C 445.634,15.1304 442.968,10.6304 440.5,6C 441.416,5.72158 442.082,5.22158 442.5,4.5 Z"/></g>
<g><path style="opacity:0.857" fill="#48f5ff" d="M 461.5,5.5 C 465.182,5.3347 468.848,5.50137 472.5,6C 476.099,10.3684 478.766,15.2017 480.5,20.5C 476.818,20.6653 473.152,20.4986 469.5,20C 466.414,15.3216 463.747,10.4883 461.5,5.5 Z"/></g>
<g><path style="opacity:0.059" fill="#44fffe" d="M 506.5,6.5 C 505.833,5.16667 505.833,5.16667 506.5,6.5 Z"/></g>
<g><path style="opacity:0.059" fill="#44fffe" d="M 506.5,6.5 C 507.833,7.16667 507.833,7.16667 506.5,6.5 Z"/></g>
<g><path style="opacity:0.654" fill="#48f2ff" d="M 719.5,9.5 C 726.833,9.5 734.167,9.5 741.5,9.5C 752.326,10.3305 763.326,10.8305 774.5,11C 757.667,11.2281 741.167,11.3948 725,11.5C 722.167,11.3333 719.333,11.1667 716.5,11C 717.737,10.7679 718.737,10.2679 719.5,9.5 Z"/></g>
<g><path style="opacity:0.059" fill="#44fffe" d="M 277.5,17.5 C 299.66,16.5026 321.994,16.1692 344.5,16.5C 327.098,17.173 309.598,17.8397 292,18.5C 287.109,18.0999 282.275,17.7665 277.5,17.5 Z"/></g>
<g><path style="opacity:0.059" fill="#44fffe" d="M 583.5,16.5 C 605.007,16.1694 626.34,16.5027 647.5,17.5C 643.562,17.3276 639.728,17.6609 636,18.5C 618.402,17.8397 600.902,17.173 583.5,16.5 Z"/></g>
<g><path style="opacity:0.562" fill="#47f5ff" d="M 687.5,22.5 C 690.166,22.0658 691.333,23.0658 691,25.5C 688.342,26.694 687.176,25.694 687.5,22.5 Z"/></g>
<g><path style="opacity:0.82" fill="#48f5ff" d="M 695.5,22.5 C 763.422,22.5022 830.755,23.0022 897.5,24C 898,24.5 898.5,25 899,25.5C 899.667,68.5 899.667,111.5 899,154.5C 898.047,156.592 896.714,156.925 895,155.5C 894.833,148.667 894.667,141.833 894.5,135C 895.498,99.3627 895.831,63.8627 895.5,28.5C 828.83,28.2365 761.83,27.5698 694.5,26.5C 694.433,25.0413 694.766,23.7079 695.5,22.5 Z"/></g>
<g><path style="opacity:0.938" fill="#49f5ff" d="M 25.5,23.5 C 31.1764,23.3339 36.8431,23.5006 42.5,24C 43.637,29.082 43.8037,34.2487 43,39.5C 42.5,40 42,40.5 41.5,41C 36.5,41.6667 31.5,41.6667 26.5,41C 25.5251,35.2588 25.1918,29.4254 25.5,23.5 Z"/></g>
<g><path style="opacity:0.616" fill="#47f6ff" d="M 680.5,22.5 C 682.505,23.254 683.172,24.4207 682.5,26C 678.447,26.4684 677.78,25.3017 680.5,22.5 Z"/></g>
<g><path style="opacity:0.336" fill="#47f1ff" d="M 18.5,129.5 C 18.5,140.167 18.5,150.833 18.5,161.5C 17.6762,165.312 17.1762,169.312 17,173.5C 16.8922,158.667 17.3922,144 18.5,129.5 Z"/></g>
<g><path style="opacity:0.365" fill="#47f2ff" d="M 895.5,161.5 C 898.861,162.203 899.194,163.537 896.5,165.5C 894.358,164.563 894.024,163.23 895.5,161.5 Z"/></g>
<g><path style="opacity:0.616" fill="#46f7ff" d="M 895.5,171.5 C 898.166,171.066 899.333,172.066 899,174.5C 895.371,176.033 894.204,175.033 895.5,171.5 Z"/></g>
<g><path style="opacity:0.574" fill="#47f5ff" d="M 23.5,281.5 C 24.9953,281.415 25.9953,282.081 26.5,283.5C 25.6798,285.111 24.3464,285.778 22.5,285.5C 22.4326,284.041 22.7659,282.708 23.5,281.5 Z"/></g>
<g><path style="opacity:0.555" fill="#46f8ff" d="M 22.5,291.5 C 27.5363,292.505 27.5363,293.838 22.5,295.5C 22.5,294.167 22.5,292.833 22.5,291.5 Z"/></g>
<g><path style="opacity:0.812" fill="#48f6ff" d="M 180.5,404.5 C 161.17,403.833 141.67,403.5 122,403.5C 102.155,403.5 82.655,404.167 63.5,405.5C 49.5877,405.823 35.7544,405.49 22,404.5C 21.1475,369.486 21.4808,334.486 23,299.5C 24,298.167 25,298.167 26,299.5C 26.5,333.165 26.6667,366.832 26.5,400.5C 78.1667,400.5 129.833,400.5 181.5,400.5C 181.768,402.099 181.434,403.432 180.5,404.5 Z"/></g>
<g><path style="opacity:0.54" fill="#48f2ff" d="M 8.5,372.5 C 8.5,364.167 8.5,355.833 8.5,347.5C 9.33048,336.674 9.83048,325.674 10,314.5C 10.837,334.024 10.337,353.357 8.5,372.5 Z"/></g>
<g><path style="opacity:0.646" fill="#48f2ff" d="M 907.5,348.5 C 909.027,360.629 909.694,372.962 909.5,385.5C 909.5,394.34 909.166,403.007 908.5,411.5C 908.83,395.325 908.496,379.325 907.5,363.5C 907.5,358.5 907.5,353.5 907.5,348.5 Z"/></g>
<g><path style="opacity:0.059" fill="#44fffe" d="M 907.5,363.5 C 908.496,379.325 908.83,395.325 908.5,411.5C 887.327,411.831 866.327,411.497 845.5,410.5C 866.167,410.5 886.833,410.5 907.5,410.5C 907.5,394.833 907.5,379.167 907.5,363.5 Z"/></g>
<g><path style="opacity:0.19" fill="#47f1ff" d="M 900.5,386.5 C 895.489,386.334 890.489,386.501 885.5,387C 884.573,392.384 884.24,397.55 884.5,402.5C 883.349,397.35 883.183,392.016 884,386.5C 889.599,385.175 895.099,385.175 900.5,386.5 Z"/></g>
<g><path style="opacity:0.928" fill="#49f5ff" d="M 900.5,386.5 C 901.651,391.65 901.817,396.984 901,402.5C 895.401,403.825 889.901,403.825 884.5,402.5C 884.24,397.55 884.573,392.384 885.5,387C 890.489,386.501 895.489,386.334 900.5,386.5 Z"/></g>
<g><path style="opacity:0.689" fill="#47f5ff" d="M 185.5,400.5 C 186.5,400.5 187.5,400.5 188.5,400.5C 188.5,401.833 188.5,403.167 188.5,404.5C 185.45,404.354 184.45,403.02 185.5,400.5 Z"/></g>
<g><path style="opacity:0.534" fill="#46f7ff" d="M 194.5,400.5 C 195.5,400.5 196.5,400.5 197.5,400.5C 197.228,404.814 195.895,405.314 193.5,402C 194.056,401.617 194.389,401.117 194.5,400.5 Z"/></g>
<g><path style="opacity:0.729" fill="#48f4ff" d="M 180.5,404.5 C 141.495,404.386 102.495,404.72 63.5,405.5C 82.655,404.167 102.155,403.5 122,403.5C 141.67,403.5 161.17,403.833 180.5,404.5 Z"/></g>
<g><path style="opacity:0.756" fill="#48f2ff" d="M 459.5,409.5 C 461.5,409.5 463.5,409.5 465.5,409.5C 483.662,410.332 501.995,410.832 520.5,411C 491.113,411.135 461.779,411.302 432.5,411.5C 423.167,411.333 413.833,411.167 404.5,411C 423.005,410.832 441.338,410.332 459.5,409.5 Z"/></g>
<g><path style="opacity:0.201" fill="#47f1ff" d="M 110.5,410.5 C 130.833,410.5 151.167,410.5 171.5,410.5C 151.436,411.227 131.436,411.894 111.5,412.5C 110.702,412.043 110.369,411.376 110.5,410.5 Z"/></g>
<g><path style="opacity:0.202" fill="#47f1ff" d="M 753.5,410.5 C 773.5,410.5 793.5,410.5 813.5,410.5C 813.53,411.497 813.03,412.164 812,412.5C 810.765,411.385 809.598,411.385 808.5,412.5C 790.039,411.846 771.706,411.179 753.5,410.5 Z"/></g>
<g><path style="opacity:0.059" fill="#44fffe" d="M 347.5,417.5 C 366.167,417.5 384.833,417.5 403.5,417.5C 402.469,418.249 401.302,418.915 400,419.5C 382.593,418.896 365.093,418.229 347.5,417.5 Z"/></g>
<g><path style="opacity:0.059" fill="#44fffe" d="M 521.5,417.5 C 540.167,417.5 558.833,417.5 577.5,417.5C 561.098,418.173 544.598,418.84 528,419.5C 525.696,419.788 523.529,419.121 521.5,417.5 Z"/></g>
</svg>
