<?xml version="1.0" encoding="UTF-8"?>
<!DOCTYPE svg PUBLIC "-//W3C//DTD SVG 1.1//EN" "http://www.w3.org/Graphics/SVG/1.1/DTD/svg11.dtd">
<svg xmlns="http://www.w3.org/2000/svg" version="1.1" width="881px" height="490px" style="shape-rendering:geometricPrecision; text-rendering:geometricPrecision; image-rendering:optimizeQuality; fill-rule:evenodd; clip-rule:evenodd" xmlns:xlink="http://www.w3.org/1999/xlink">
<g><path style="opacity:0.824" fill="#49f5ff" d="M 45.5,-0.5 C 71.8333,-0.5 98.1667,-0.5 124.5,-0.5C 335.335,0.199808 546.335,0.866475 757.5,1.5C 796.831,0.560627 836.164,0.39396 875.5,1C 877.503,1.33452 879.17,2.16786 880.5,3.5C 880.5,147.167 880.5,290.833 880.5,434.5C 865.152,452.518 850.152,470.851 835.5,489.5C 771.167,489.5 706.833,489.5 642.5,489.5C 642.167,488.167 641.833,488.167 641.5,489.5C 640.833,489.5 640.167,489.5 639.5,489.5C 639.167,488.167 638.833,488.167 638.5,489.5C 633.167,489.5 627.833,489.5 622.5,489.5C 622.167,488.167 621.833,488.167 621.5,489.5C 621.167,489.5 620.833,489.5 620.5,489.5C 620.167,488.167 619.833,488.167 619.5,489.5C 618.5,489.5 617.5,489.5 616.5,489.5C 616.167,488.167 615.833,488.167 615.5,489.5C 615.167,489.5 614.833,489.5 614.5,489.5C 614.167,488.167 613.833,488.167 613.5,489.5C 612.167,489.5 610.833,489.5 609.5,489.5C 608.833,488.167 608.167,488.167 607.5,489.5C 594.167,489.5 580.833,489.5 567.5,489.5C 567.167,488.167 566.833,488.167 566.5,489.5C 566.167,489.5 565.833,489.5 565.5,489.5C 564.833,488.167 564.167,488.167 563.5,489.5C 563.167,489.5 562.833,489.5 562.5,489.5C 561.833,488.167 561.167,488.167 560.5,489.5C 560.167,489.5 559.833,489.5 559.5,489.5C 558.833,488.167 558.167,488.167 557.5,489.5C 557.167,489.5 556.833,489.5 556.5,489.5C 555.833,488.167 555.167,488.167 554.5,489.5C 554.167,489.5 553.833,489.5 553.5,489.5C 552.833,488.167 552.167,488.167 551.5,489.5C 551.167,489.5 550.833,489.5 550.5,489.5C 537.5,488.167 524.5,488.167 511.5,489.5C 511.167,489.5 510.833,489.5 510.5,489.5C 509.833,488.167 509.167,488.167 508.5,489.5C 508.167,489.5 507.833,489.5 507.5,489.5C 506.5,488.167 505.5,488.167 504.5,489.5C 504.167,489.5 503.833,489.5 503.5,489.5C 502.833,488.167 502.167,488.167 501.5,489.5C 501.167,489.5 500.833,489.5 500.5,489.5C 498.833,488.167 497.167,488.167 495.5,489.5C 495.167,489.5 494.833,489.5 494.5,489.5C 491.833,488.167 489.167,488.167 486.5,489.5C 486.167,489.5 485.833,489.5 485.5,489.5C 475.5,488.167 465.5,488.167 455.5,489.5C 455.167,489.5 454.833,489.5 454.5,489.5C 454.167,488.167 453.833,488.167 453.5,489.5C 452.833,489.5 452.167,489.5 451.5,489.5C 451.167,488.167 450.833,488.167 450.5,489.5C 449.833,489.5 449.167,489.5 448.5,489.5C 448.167,488.167 447.833,488.167 447.5,489.5C 447.167,489.5 446.833,489.5 446.5,489.5C 446.167,488.167 445.833,488.167 445.5,489.5C 445.167,489.5 444.833,489.5 444.5,489.5C 444.167,488.167 443.833,488.167 443.5,489.5C 442.833,489.5 442.167,489.5 441.5,489.5C 441.167,488.167 440.833,488.167 440.5,489.5C 439.833,489.5 439.167,489.5 438.5,489.5C 438.167,488.167 437.833,488.167 437.5,489.5C 437.167,489.5 436.833,489.5 436.5,489.5C 428.167,488.167 419.833,488.167 411.5,489.5C 411.167,489.5 410.833,489.5 410.5,489.5C 409.833,488.167 409.167,488.167 408.5,489.5C 408.167,489.5 407.833,489.5 407.5,489.5C 406.833,488.167 406.167,488.167 405.5,489.5C 405.167,489.5 404.833,489.5 404.5,489.5C 402.167,488.167 399.833,488.167 397.5,489.5C 397.167,489.5 396.833,489.5 396.5,489.5C 395.833,488.167 395.167,488.167 394.5,489.5C 394.167,489.5 393.833,489.5 393.5,489.5C 392.833,488.167 392.167,488.167 391.5,489.5C 391.167,489.5 390.833,489.5 390.5,489.5C 389.833,488.167 389.167,488.167 388.5,489.5C 388.167,489.5 387.833,489.5 387.5,489.5C 386.833,488.167 386.167,488.167 385.5,489.5C 385.167,489.5 384.833,489.5 384.5,489.5C 383.833,488.167 383.167,488.167 382.5,489.5C 382.167,489.5 381.833,489.5 381.5,489.5C 379.5,488.167 377.5,488.167 375.5,489.5C 375.167,489.5 374.833,489.5 374.5,489.5C 372.5,488.167 370.5,488.167 368.5,489.5C 368.167,489.5 367.833,489.5 367.5,489.5C 358.167,488.167 348.833,488.167 339.5,489.5C 339.167,489.5 338.833,489.5 338.5,489.5C 337.5,488.167 336.5,488.167 335.5,489.5C 335.167,489.5 334.833,489.5 334.5,489.5C 333.5,488.167 332.5,488.167 331.5,489.5C 331.167,489.5 330.833,489.5 330.5,489.5C 329.5,488.167 328.5,488.167 327.5,489.5C 327.167,489.5 326.833,489.5 326.5,489.5C 325.5,488.167 324.5,488.167 323.5,489.5C 323.167,489.5 322.833,489.5 322.5,489.5C 321.5,488.167 320.5,488.167 319.5,489.5C 319.167,489.5 318.833,489.5 318.5,489.5C 317.5,488.167 316.5,488.167 315.5,489.5C 315.167,489.5 314.833,489.5 314.5,489.5C 313.5,488.167 312.5,488.167 311.5,489.5C 311.167,489.5 310.833,489.5 310.5,489.5C 309.5,488.167 308.5,488.167 307.5,489.5C 307.167,489.5 306.833,489.5 306.5,489.5C 305.833,488.167 305.167,488.167 304.5,489.5C 304.167,489.5 303.833,489.5 303.5,489.5C 302.833,488.167 302.167,488.167 301.5,489.5C 301.167,489.5 300.833,489.5 300.5,489.5C 299.833,488.167 299.167,488.167 298.5,489.5C 298.167,489.5 297.833,489.5 297.5,489.5C 296.833,488.167 296.167,488.167 295.5,489.5C 295.167,489.5 294.833,489.5 294.5,489.5C 293.833,488.167 293.167,488.167 292.5,489.5C 292.167,489.5 291.833,489.5 291.5,489.5C 290.833,488.167 290.167,488.167 289.5,489.5C 289.167,489.5 288.833,489.5 288.5,489.5C 287.833,488.167 287.167,488.167 286.5,489.5C 286.167,489.5 285.833,489.5 285.5,489.5C 284.833,488.167 284.167,488.167 283.5,489.5C 283.167,489.5 282.833,489.5 282.5,489.5C 281.833,488.167 281.167,488.167 280.5,489.5C 280.167,489.5 279.833,489.5 279.5,489.5C 278.833,488.167 278.167,488.167 277.5,489.5C 277.167,489.5 276.833,489.5 276.5,489.5C 275.833,488.167 275.167,488.167 274.5,489.5C 274.167,489.5 273.833,489.5 273.5,489.5C 272.833,488.167 272.167,488.167 271.5,489.5C 271.167,489.5 270.833,489.5 270.5,489.5C 269.833,488.167 269.167,488.167 268.5,489.5C 268.167,489.5 267.833,489.5 267.5,489.5C 266.833,488.167 266.167,488.167 265.5,489.5C 265.167,489.5 264.833,489.5 264.5,489.5C 263.833,488.167 263.167,488.167 262.5,489.5C 262.167,489.5 261.833,489.5 261.5,489.5C 260.5,488.167 259.5,488.167 258.5,489.5C 258.167,489.5 257.833,489.5 257.5,489.5C 256.167,488.167 254.833,488.167 253.5,489.5C 253.167,489.5 252.833,489.5 252.5,489.5C 201.998,488.476 151.331,487.976 100.5,488C 99.2625,488.232 98.2625,488.732 97.5,489.5C 97.1667,489.5 96.8333,489.5 96.5,489.5C 95.8333,488.167 95.1667,488.167 94.5,489.5C 94.1667,489.5 93.8333,489.5 93.5,489.5C 92.8333,488.167 92.1667,488.167 91.5,489.5C 91.1667,489.5 90.8333,489.5 90.5,489.5C 89.8333,488.167 89.1667,488.167 88.5,489.5C 88.1667,489.5 87.8333,489.5 87.5,489.5C 86.8333,488.167 86.1667,488.167 85.5,489.5C 85.1667,489.5 84.8333,489.5 84.5,489.5C 83.8333,488.167 83.1667,488.167 82.5,489.5C 82.1667,489.5 81.8333,489.5 81.5,489.5C 80.8333,488.167 80.1667,488.167 79.5,489.5C 79.1667,489.5 78.8333,489.5 78.5,489.5C 77.8333,488.167 77.1667,488.167 76.5,489.5C 76.1667,489.5 75.8333,489.5 75.5,489.5C 74.8333,488.167 74.1667,488.167 73.5,489.5C 73.1667,489.5 72.8333,489.5 72.5,489.5C 71.8333,488.167 71.1667,488.167 70.5,489.5C 70.1667,489.5 69.8333,489.5 69.5,489.5C 68.8333,488.167 68.1667,488.167 67.5,489.5C 67.1667,489.5 66.8333,489.5 66.5,489.5C 65.8333,488.167 65.1667,488.167 64.5,489.5C 64.1667,489.5 63.8333,489.5 63.5,489.5C 62.8333,488.167 62.1667,488.167 61.5,489.5C 61.1667,489.5 60.8333,489.5 60.5,489.5C 59.8333,488.167 59.1667,488.167 58.5,489.5C 58.1667,489.5 57.8333,489.5 57.5,489.5C 56.8333,488.167 56.1667,488.167 55.5,489.5C 55.1667,489.5 54.8333,489.5 54.5,489.5C 53.5,488.167 52.5,488.167 51.5,489.5C 51.1667,489.5 50.8333,489.5 50.5,489.5C 49.8333,488.167 49.1667,488.167 48.5,489.5C 48.1667,489.5 47.8333,489.5 47.5,489.5C 46.5,488.167 45.5,488.167 44.5,489.5C 44.1667,489.5 43.8333,489.5 43.5,489.5C 42.5,488.167 41.5,488.167 40.5,489.5C 40.1667,489.5 39.8333,489.5 39.5,489.5C 38.5,488.167 37.5,488.167 36.5,489.5C 36.1667,489.5 35.8333,489.5 35.5,489.5C 34.5,488.167 33.5,488.167 32.5,489.5C 32.1667,489.5 31.8333,489.5 31.5,489.5C 30.5,488.167 29.5,488.167 28.5,489.5C 28.1667,489.5 27.8333,489.5 27.5,489.5C 26.5,488.167 25.5,488.167 24.5,489.5C 24.1667,489.5 23.8333,489.5 23.5,489.5C 22.5,488.167 21.5,488.167 20.5,489.5C 20.1667,489.5 19.8333,489.5 19.5,489.5C 17.8333,488.167 16.1667,488.167 14.5,489.5C 14.1667,489.5 13.8333,489.5 13.5,489.5C 12.8333,488.167 12.1667,488.167 11.5,489.5C 11.1667,489.5 10.8333,489.5 10.5,489.5C 7.8289,488.702 4.99557,488.035 2,487.5C 0.970076,487.164 0.470076,486.497 0.5,485.5C 1.83333,442.167 1.83333,398.833 0.5,355.5C 0.831998,312.997 0.498664,270.663 -0.5,228.5C -0.5,170.833 -0.5,113.167 -0.5,55.5C 15.2112,37.1242 30.5445,18.4576 45.5,-0.5 Z M 78.5,7.5 C 79.7978,8.11568 80.7978,8.11568 81.5,7.5C 81.8333,7.5 82.1667,7.5 82.5,7.5C 89.2748,8.05876 95.9415,8.05876 102.5,7.5C 124.169,7.33337 145.836,7.50004 167.5,8C 164.714,11.074 162.048,14.2407 159.5,17.5C 123.49,18.2774 87.4904,18.6107 51.5,18.5C 39.4034,33.2514 27.7368,48.2514 16.5,63.5C 15.2831,80.5588 15.2831,97.2255 16.5,113.5C 13.1667,117.167 9.83333,120.833 6.5,124.5C 6.5,107.167 6.5,89.8333 6.5,72.5C 6.33418,67.8215 6.50085,63.1548 7,58.5C 20.8085,41.057 34.9752,23.8903 49.5,7C 59.1686,6.70818 68.8352,6.87485 78.5,7.5 Z M 190.5,7.5 C 194.846,7.33432 199.179,7.50098 203.5,8C 200.87,11.6317 197.87,14.965 194.5,18C 190.5,18.6667 186.5,18.6667 182.5,18C 185.383,14.6235 188.049,11.1235 190.5,7.5 Z M 226.5,7.5 C 231.511,7.33407 236.511,7.50074 241.5,8C 238.13,11.035 235.13,14.3683 232.5,18C 227.798,18.8283 223.131,18.6616 218.5,17.5C 221.175,14.1362 223.842,10.8029 226.5,7.5 Z M 264.5,7.5 C 269.511,7.33407 274.511,7.50074 279.5,8C 276.734,11.5221 273.734,14.8554 270.5,18C 265.5,18.6667 260.5,18.6667 255.5,18C 259.085,14.9219 262.085,11.4219 264.5,7.5 Z M 441.5,7.5 C 488.782,8.78226 533.448,8.78226 575.5,7.5C 605.783,7.74568 636.783,7.91234 668.5,8C 670.764,8.23622 672.931,8.73622 675,9.5C 707.524,8.64229 741.857,8.64229 778,9.5C 810.565,7.91555 841.898,7.24888 872,7.5C 872.692,8.02527 873.192,8.69194 873.5,9.5C 873.502,92.1114 873.335,176.111 873,261.5C 870.297,264.538 867.297,267.205 864,269.5C 863.833,187.165 863.333,104.831 862.5,22.5C 672.872,20.6118 483.205,19.1118 293.5,18C 296.734,14.8554 299.734,11.5221 302.5,8C 353.832,7.73965 400.165,7.57298 441.5,7.5 Z M 648.5,25.5 C 649.798,26.1157 650.798,26.1157 651.5,25.5C 716.94,26.067 786.273,26.4003 859.5,26.5C 859.115,157.569 858.948,290.569 859,425.5C 848.046,439.243 837.213,453.076 826.5,467C 558.183,465.456 289.85,464.289 21.5,463.5C 21.6163,330.494 21.4497,197.494 21,64.5C 32.0237,50.9772 42.857,37.3106 53.5,23.5C 87.0105,22.776 124.01,22.4427 164.5,22.5C 191.737,22.9396 218.904,23.6062 246,24.5C 297.669,24.1617 350.502,23.8283 404.5,23.5C 416.167,23.6667 427.833,23.8333 439.5,24C 441.764,24.2362 443.931,24.7362 446,25.5C 510.565,24.2458 578.065,24.2458 648.5,25.5 Z M 15.5,141.5 C 15.9242,146.108 16.2576,150.441 16.5,154.5C 13.4791,157.686 10.6458,161.02 8,164.5C 7.33333,160.167 7.33333,155.833 8,151.5C 10.7614,148.286 13.2614,144.953 15.5,141.5 Z M 15.5,181.5 C 18.8969,190.917 16.3969,198.25 8,203.5C 7.33333,199.167 7.33333,194.833 8,190.5C 11.0884,187.919 13.5884,184.919 15.5,181.5 Z M 15.5,220.5 C 16.1694,302.373 16.8361,384.373 17.5,466.5C 21.4592,467.327 25.4592,467.827 29.5,468C 59.0718,468.171 88.5718,468.671 118,469.5C 158.46,469.269 202.127,468.935 249,468.5C 283.073,468.814 317.073,469.481 351,470.5C 389.835,470.04 427.169,469.707 463,469.5C 504.429,470.33 545.929,470.83 587.5,471C 583.826,474.342 580.492,478.008 577.5,482C 429.501,481.884 281.501,481.384 133.5,480.5C 91.4999,480.894 49.4999,481.227 7.5,481.5C 7.33334,396.833 7.5,312.166 8,227.5C 10.4786,225.034 12.9786,222.701 15.5,220.5 Z M 872.5,285.5 C 873.645,289.311 873.812,293.311 873,297.5C 870,301.167 867,304.833 864,308.5C 863.333,303.5 863.333,298.5 864,293.5C 867.003,290.933 869.836,288.266 872.5,285.5 Z M 872.5,324.5 C 873.647,328.646 873.814,332.98 873,337.5C 869.761,340.983 866.761,344.65 864,348.5C 863.333,343.833 863.333,339.167 864,334.5C 867.442,331.568 870.275,328.235 872.5,324.5 Z M 872.5,365.5 C 873.117,365.611 873.617,365.944 874,366.5C 874.667,387.833 874.667,409.167 874,430.5C 859.714,447.575 845.547,464.741 831.5,482C 791.833,482.667 752.167,482.667 712.5,482C 715.266,478.478 718.266,475.145 721.5,472C 758.347,471.302 792.514,471.469 824,472.5C 825.734,471.751 827.567,471.251 829.5,471C 841,456.167 852.5,441.333 864,426.5C 864.333,409.5 864.667,392.5 865,375.5C 867.717,372.29 870.217,368.956 872.5,365.5 Z M 609.5,470.5 C 614.331,470.311 619.331,470.644 624.5,471.5C 621.313,474.853 618.313,478.353 615.5,482C 610.5,482.667 605.5,482.667 600.5,482C 604.12,478.559 607.12,474.725 609.5,470.5 Z M 648.5,470.5 C 653.214,470.173 657.88,470.507 662.5,471.5C 659.687,475.147 656.687,478.647 653.5,482C 648.5,482.667 643.5,482.667 638.5,482C 642.416,478.59 645.749,474.757 648.5,470.5 Z M 685.5,471.5 C 689.555,471.176 693.555,471.509 697.5,472.5C 694.645,475.52 691.979,478.687 689.5,482C 685.167,482.667 680.833,482.667 676.5,482C 679.336,478.333 682.336,474.833 685.5,471.5 Z"/></g>
<g><path style="opacity:0.035" fill="#55fffe" d="M 78.5,7.5 C 79.5,6.16667 80.5,6.16667 81.5,7.5C 80.7978,8.11568 79.7978,8.11568 78.5,7.5 Z"/></g>
<g><path style="opacity:0.035" fill="#55fffe" d="M 82.5,7.5 C 89.1667,6.16667 95.8333,6.16667 102.5,7.5C 95.9415,8.05876 89.2748,8.05876 82.5,7.5 Z"/></g>
<g><path style="opacity:0.42" fill="#4bf6ff" d="M 441.5,7.5 C 486.167,6.16667 530.833,6.16667 575.5,7.5C 533.448,8.78226 488.782,8.78226 441.5,7.5 Z"/></g>
<g><path style="opacity:0.035" fill="#55fffe" d="M 648.5,25.5 C 649.5,24.1667 650.5,24.1667 651.5,25.5C 650.798,26.1157 649.798,26.1157 648.5,25.5 Z"/></g>
<g><path style="opacity:0.82" fill="#49f5ff" d="M 725.5,32.5 C 732.863,32.1694 740.197,32.5027 747.5,33.5C 744.166,38.33 740.333,42.6634 736,46.5C 731.563,45.7625 726.896,45.7625 722,46.5C 720.175,45.8971 718.341,45.2304 716.5,44.5C 719.524,40.4815 722.524,36.4815 725.5,32.5 Z"/></g>
<g><path style="opacity:0.83" fill="#49f5ff" d="M 764.5,32.5 C 771.841,32.3337 779.174,32.5003 786.5,33C 783.257,36.8211 780.257,40.8211 777.5,45C 774.751,45.6055 772.251,46.1055 770,46.5C 765.216,45.8572 760.383,45.1906 755.5,44.5C 758.524,40.4815 761.524,36.4815 764.5,32.5 Z"/></g>
<g><path style="opacity:0.881" fill="#49f5ff" d="M 796.5,32.5 C 803.532,32.1697 810.532,32.503 817.5,33.5C 815.016,39.2103 811.183,43.5436 806,46.5C 804.333,46.5 802.667,46.5 801,46.5C 796.92,45.6998 792.753,45.1998 788.5,45C 791.562,41.0312 794.229,36.8645 796.5,32.5 Z"/></g>
<g><path style="opacity:0.867" fill="#49f5ff" d="M 831.5,32.5 C 837.833,32.5 844.167,32.5 850.5,32.5C 849.571,37.0245 847.571,41.0245 844.5,44.5C 838.279,45.1853 832.112,45.8519 826,46.5C 825.075,45.9535 824.242,45.2868 823.5,44.5C 825.8,40.2102 828.467,36.2102 831.5,32.5 Z"/></g>
<g><path style="opacity:0.42" fill="#4bf6ff" d="M 16.5,63.5 C 17.8333,80.1667 17.8333,96.8333 16.5,113.5C 15.2831,97.2255 15.2831,80.5588 16.5,63.5 Z"/></g>
<g><path style="opacity:0.42" fill="#47f3fe" d="M 6.5,72.5 C 6.5,89.8333 6.5,107.167 6.5,124.5C 5.22706,108.684 5.22706,91.3502 6.5,72.5 Z"/></g>
<g><path style="opacity:0.42" fill="#4bf6ff" d="M 0.5,355.5 C 1.83333,398.833 1.83333,442.167 0.5,485.5C 0.67158,484.508 0.338246,483.842 -0.5,483.5C -0.5,483.167 -0.5,482.833 -0.5,482.5C 0.833333,482.167 0.833333,481.833 -0.5,481.5C -0.5,481.167 -0.5,480.833 -0.5,480.5C 0.833333,480.167 0.833333,479.833 -0.5,479.5C -0.5,479.167 -0.5,478.833 -0.5,478.5C 0.833333,478.167 0.833333,477.833 -0.5,477.5C -0.5,477.167 -0.5,476.833 -0.5,476.5C 0.833333,476.167 0.833333,475.833 -0.5,475.5C -0.5,475.167 -0.5,474.833 -0.5,474.5C 0.833333,474.167 0.833333,473.833 -0.5,473.5C -0.5,473.167 -0.5,472.833 -0.5,472.5C 0.833333,472.167 0.833333,471.833 -0.5,471.5C -0.5,471.167 -0.5,470.833 -0.5,470.5C 0.833333,470.167 0.833333,469.833 -0.5,469.5C -0.5,469.167 -0.5,468.833 -0.5,468.5C 0.833333,468.167 0.833333,467.833 -0.5,467.5C -0.5,467.167 -0.5,466.833 -0.5,466.5C 0.833333,466.167 0.833333,465.833 -0.5,465.5C -0.5,465.167 -0.5,464.833 -0.5,464.5C 0.833333,464.167 0.833333,463.833 -0.5,463.5C -0.5,463.167 -0.5,462.833 -0.5,462.5C 0.833333,462.167 0.833333,461.833 -0.5,461.5C -0.5,461.167 -0.5,460.833 -0.5,460.5C 0.833333,460.167 0.833333,459.833 -0.5,459.5C -0.5,459.167 -0.5,458.833 -0.5,458.5C 0.833333,458.167 0.833333,457.833 -0.5,457.5C -0.5,457.167 -0.5,456.833 -0.5,456.5C 0.833333,456.167 0.833333,455.833 -0.5,455.5C -0.5,455.167 -0.5,454.833 -0.5,454.5C 0.833333,454.167 0.833333,453.833 -0.5,453.5C -0.5,453.167 -0.5,452.833 -0.5,452.5C 0.833333,452.167 0.833333,451.833 -0.5,451.5C -0.5,451.167 -0.5,450.833 -0.5,450.5C 0.833333,450.167 0.833333,449.833 -0.5,449.5C -0.5,449.167 -0.5,448.833 -0.5,448.5C 0.833333,448.167 0.833333,447.833 -0.5,447.5C -0.5,447.167 -0.5,446.833 -0.5,446.5C 0.833333,446.167 0.833333,445.833 -0.5,445.5C -0.5,445.167 -0.5,444.833 -0.5,444.5C 0.833333,444.167 0.833333,443.833 -0.5,443.5C -0.5,443.167 -0.5,442.833 -0.5,442.5C 0.833333,442.167 0.833333,441.833 -0.5,441.5C -0.5,441.167 -0.5,440.833 -0.5,440.5C 0.833333,440.167 0.833333,439.833 -0.5,439.5C -0.5,439.167 -0.5,438.833 -0.5,438.5C 0.833333,438.167 0.833333,437.833 -0.5,437.5C -0.5,437.167 -0.5,436.833 -0.5,436.5C 0.833333,436.167 0.833333,435.833 -0.5,435.5C -0.5,435.167 -0.5,434.833 -0.5,434.5C 0.833333,434.167 0.833333,433.833 -0.5,433.5C -0.5,433.167 -0.5,432.833 -0.5,432.5C 0.833333,432.167 0.833333,431.833 -0.5,431.5C -0.5,431.167 -0.5,430.833 -0.5,430.5C 0.833333,430.167 0.833333,429.833 -0.5,429.5C -0.5,429.167 -0.5,428.833 -0.5,428.5C 0.833333,428.167 0.833333,427.833 -0.5,427.5C -0.5,427.167 -0.5,426.833 -0.5,426.5C 0.833333,426.167 0.833333,425.833 -0.5,425.5C -0.5,425.167 -0.5,424.833 -0.5,424.5C 0.833333,424.167 0.833333,423.833 -0.5,423.5C -0.5,423.167 -0.5,422.833 -0.5,422.5C 0.833333,422.167 0.833333,421.833 -0.5,421.5C -0.5,421.167 -0.5,420.833 -0.5,420.5C 0.833333,420.167 0.833333,419.833 -0.5,419.5C -0.5,419.167 -0.5,418.833 -0.5,418.5C 0.833333,418.167 0.833333,417.833 -0.5,417.5C -0.5,417.167 -0.5,416.833 -0.5,416.5C 0.833333,416.167 0.833333,415.833 -0.5,415.5C -0.5,415.167 -0.5,414.833 -0.5,414.5C 0.833333,414.167 0.833333,413.833 -0.5,413.5C -0.5,413.167 -0.5,412.833 -0.5,412.5C 0.833333,412.167 0.833333,411.833 -0.5,411.5C -0.5,411.167 -0.5,410.833 -0.5,410.5C 0.833333,410.167 0.833333,409.833 -0.5,409.5C -0.5,409.167 -0.5,408.833 -0.5,408.5C 0.833333,408.167 0.833333,407.833 -0.5,407.5C -0.5,407.167 -0.5,406.833 -0.5,406.5C 0.833333,406.167 0.833333,405.833 -0.5,405.5C -0.5,405.167 -0.5,404.833 -0.5,404.5C 0.833333,404.167 0.833333,403.833 -0.5,403.5C -0.5,403.167 -0.5,402.833 -0.5,402.5C 0.833333,402.167 0.833333,401.833 -0.5,401.5C -0.5,401.167 -0.5,400.833 -0.5,400.5C 0.833333,400.167 0.833333,399.833 -0.5,399.5C -0.5,399.167 -0.5,398.833 -0.5,398.5C 0.833333,398.167 0.833333,397.833 -0.5,397.5C -0.5,397.167 -0.5,396.833 -0.5,396.5C 0.833333,396.167 0.833333,395.833 -0.5,395.5C -0.5,395.167 -0.5,394.833 -0.5,394.5C 0.833333,394.167 0.833333,393.833 -0.5,393.5C -0.5,393.167 -0.5,392.833 -0.5,392.5C 0.833333,392.167 0.833333,391.833 -0.5,391.5C -0.5,391.167 -0.5,390.833 -0.5,390.5C 0.833333,390.167 0.833333,389.833 -0.5,389.5C -0.5,389.167 -0.5,388.833 -0.5,388.5C 0.833333,388.167 0.833333,387.833 -0.5,387.5C -0.5,387.167 -0.5,386.833 -0.5,386.5C 0.833333,386.167 0.833333,385.833 -0.5,385.5C -0.5,385.167 -0.5,384.833 -0.5,384.5C 0.833333,384.167 0.833333,383.833 -0.5,383.5C -0.5,383.167 -0.5,382.833 -0.5,382.5C 0.833333,382.167 0.833333,381.833 -0.5,381.5C -0.5,381.167 -0.5,380.833 -0.5,380.5C 0.833333,380.167 0.833333,379.833 -0.5,379.5C -0.5,379.167 -0.5,378.833 -0.5,378.5C 0.833333,378.167 0.833333,377.833 -0.5,377.5C -0.5,377.167 -0.5,376.833 -0.5,376.5C 0.833333,376.167 0.833333,375.833 -0.5,375.5C -0.5,375.167 -0.5,374.833 -0.5,374.5C 0.833333,374.167 0.833333,373.833 -0.5,373.5C -0.5,373.167 -0.5,372.833 -0.5,372.5C 0.833333,372.167 0.833333,371.833 -0.5,371.5C -0.5,371.167 -0.5,370.833 -0.5,370.5C 0.833333,370.167 0.833333,369.833 -0.5,369.5C -0.5,369.167 -0.5,368.833 -0.5,368.5C 0.833333,368.167 0.833333,367.833 -0.5,367.5C -0.5,367.167 -0.5,366.833 -0.5,366.5C 0.833333,366.167 0.833333,365.833 -0.5,365.5C -0.5,365.167 -0.5,364.833 -0.5,364.5C 0.833333,364.167 0.833333,363.833 -0.5,363.5C -0.5,363.167 -0.5,362.833 -0.5,362.5C 0.833333,362.167 0.833333,361.833 -0.5,361.5C -0.5,361.167 -0.5,360.833 -0.5,360.5C 0.833333,360.167 0.833333,359.833 -0.5,359.5C -0.5,359.167 -0.5,358.833 -0.5,358.5C 0.833333,358.167 0.833333,357.833 -0.5,357.5C -0.5,357.167 -0.5,356.833 -0.5,356.5C 0.166667,356.5 0.5,356.167 0.5,355.5 Z"/></g>
<g><path style="opacity:0.889" fill="#4af5ff" d="M 52.5,436.5 C 58.4734,436.527 64.4734,436.527 70.5,436.5C 71.5,436.833 72.1667,437.5 72.5,438.5C 70.0251,442.142 67.3585,445.642 64.5,449C 60.7778,449.238 57.1111,449.738 53.5,450.5C 49.8406,449.899 46.1739,449.233 42.5,448.5C 45.8621,444.389 49.1955,440.389 52.5,436.5 Z"/></g>
<g><path style="opacity:0.877" fill="#4af6ff" d="M 92.5,436.5 C 98.3509,436.649 104.184,436.649 110,436.5C 110.5,437 111,437.5 111.5,438C 108.743,442.179 105.743,446.179 102.5,450C 95.5079,450.5 88.5079,450.666 81.5,450.5C 81.6079,448.217 82.4412,446.217 84,444.5C 86.2081,440.994 89.0415,438.327 92.5,436.5 Z"/></g>
<g><path style="opacity:0.85" fill="#4af5ff" d="M 123.5,436.5 C 129.746,436.921 135.913,436.921 142,436.5C 142.167,437.167 142.333,437.833 142.5,438.5C 140.431,442.297 138.098,445.964 135.5,449.5C 130.617,450.191 125.784,450.857 121,451.5C 118.853,450.887 116.686,450.221 114.5,449.5C 117.168,444.85 120.168,440.517 123.5,436.5 Z"/></g>
<g><path style="opacity:0.868" fill="#4af5ff" d="M 158.5,436.5 C 164.149,437.487 169.649,437.821 175,437.5C 174.442,442.127 172.608,446.294 169.5,450C 167.899,450.273 166.399,450.773 165,451.5C 159.552,450.854 154.052,450.188 148.5,449.5C 151.154,444.529 154.487,440.196 158.5,436.5 Z"/></g>
</svg>
