<?xml version="1.0" encoding="UTF-8" standalone="no"?>
<svg
   xmlns:dc="http://purl.org/dc/elements/1.1/"
   xmlns:cc="http://creativecommons.org/ns#"
   xmlns:rdf="http://www.w3.org/1999/02/22-rdf-syntax-ns#"
   xmlns:svg="http://www.w3.org/2000/svg"
   xmlns="http://www.w3.org/2000/svg"
   xmlns:sodipodi="http://sodipodi.sourceforge.net/DTD/sodipodi-0.dtd"
   xmlns:inkscape="http://www.inkscape.org/namespaces/inkscape"
   version="1.1"
   id="图层_1"
   x="0px"
   y="0px"
   viewBox="0 0 53.5 49.1"
   style="enable-background:new 0 0 53.5 49.1;"
   xml:space="preserve"
   sodipodi:docname="咖啡机_021.svg"><metadata
   id="metadata25"><rdf:RDF><cc:Work
       rdf:about=""><dc:format>image/svg+xml</dc:format><dc:type
         rdf:resource="http://purl.org/dc/dcmitype/StillImage" /></cc:Work></rdf:RDF></metadata><defs
   id="defs23" /><sodipodi:namedview
   pagecolor="#ffffff"
   bordercolor="#666666"
   borderopacity="1"
   objecttolerance="10"
   gridtolerance="10"
   guidetolerance="10"
   inkscape:pageopacity="0"
   inkscape:pageshadow="2"
   inkscape:window-width="640"
   inkscape:window-height="480"
   id="namedview21" />
<style
   type="text/css"
   id="style2">
	.st0{fill:#1296DB;}
</style>
<title
   id="title4">资源 21</title>
<g
   id="图层_2_1_">
	<g
   id="图层_2-2">
		<path
   class="st0"
   d="M18,12.4c0.3,1.4,1.1,2.5,2.3,3.3l0.3,0.2l1.8-2.4l-0.4-0.3c-1.6-1.2-1.6-1.8,0.3-4.5c0.8-1.1,2.3-3.1,2-5.3    C24.1,2.2,23.2,1,22,0.2L21.7,0l-1.8,2.4l0.4,0.3c1.6,1.2,1.6,1.8-0.3,4.5C19.2,8.2,17.7,10.2,18,12.4z"
   id="path6" />
		<path
   class="st0"
   d="M25.7,7.1c-0.8,1.1-2.3,3.1-2,5.3c0.3,1.4,1.1,2.5,2.3,3.3l0.3,0.2l1.8-2.4l-0.4-0.3    c-1.6-1.2-1.6-1.8,0.3-4.5c0.8-1.1,2.3-3.1,2-5.3C29.8,2.2,29,1,27.8,0.2L27.5,0l-1.8,2.4L26,2.6C27.6,3.8,27.6,4.4,25.7,7.1z"
   id="path8" />
		<path
   class="st0"
   d="M31.5,7.1c-0.8,1.1-2.3,3.1-2,5.3c0.3,1.4,1.1,2.5,2.3,3.3l0.3,0.2l1.8-2.4l-0.3-0.3    c-1.6-1.2-1.6-1.8,0.3-4.5c0.8-1.1,2.3-3.1,2-5.3c-0.3-1.4-1.1-2.5-2.3-3.3L33.2,0l-1.8,2.4l0.3,0.3C33.4,3.8,33.4,4.4,31.5,7.1z"
   id="path10" />
		<path
   class="st0"
   d="M44.2,16.4H5.3L5.4,18C6.6,32.4,9,45.3,25.1,45.3c6.4,0,13.3-1.3,16.8-11.2h2.2c6.1,0,9.3-4.5,9.3-8.9    S50.3,16.4,44.2,16.4z M50.5,25.2c0,2.9-2,5.9-6.3,5.9h-4.3l-0.3,1c-3,9.5-8.9,10.3-14.3,10.3c-9.4,0-14.9-3.7-16.7-23.2h35.6    C48.5,19.3,50.5,22.4,50.5,25.2z"
   id="path12" />
		<path
   class="st0"
   d="M44.6,20.7h-2.5L41.9,22c-0.1,1.1-0.3,2.2-0.6,3.6c-0.1,0.7-0.3,1.5-0.4,2.4l-0.3,1.8h3.9    c2.5,0.1,4.6-1.9,4.7-4.3c0-0.1,0-0.1,0-0.2c0-2.5-1.9-4.5-4.4-4.5C44.8,20.7,44.7,20.7,44.6,20.7z M46.3,25.2    c0,0.9-0.6,1.6-1.5,1.6c-0.1,0-0.1,0-0.2,0h-0.4c0.2-1,0.3-1.9,0.4-2.8l0.1-0.4c0.8,0,1.5,0.6,1.5,1.4    C46.3,25.1,46.3,25.2,46.3,25.2z"
   id="path14" />
		<path
   class="st0"
   d="M48.2,41.8c-0.1,0-8.6,4.4-23.2,4.4c-12.1,0-20.1-3-23-4.3c-0.2-0.1-0.3-0.1-0.4-0.1H1.4L0,44.5h0.6h0.1    c3,1.4,11.5,4.6,24.4,4.6c8.9,0,17.5-1.6,24.2-4.6h0.1l1.3,1l-2.2-3.9L48.2,41.8z"
   id="path16" />
	</g>
</g>
</svg>
