<?xml version="1.0" encoding="UTF-8"?>
<!DOCTYPE svg PUBLIC "-//W3C//DTD SVG 1.1//EN" "http://www.w3.org/Graphics/SVG/1.1/DTD/svg11.dtd">
<svg xmlns="http://www.w3.org/2000/svg" version="1.1" width="784px" height="250px" style="shape-rendering:geometricPrecision; text-rendering:geometricPrecision; image-rendering:optimizeQuality; fill-rule:evenodd; clip-rule:evenodd" xmlns:xlink="http://www.w3.org/1999/xlink">
<g><path style="opacity:0.669" fill="#02fffb" d="M 111.5,-0.5 C 111.833,-0.5 112.167,-0.5 112.5,-0.5C 112.833,0.833333 113.167,0.833333 113.5,-0.5C 117.5,-0.5 121.5,-0.5 125.5,-0.5C 125.5,6.5 125.5,13.5 125.5,20.5C 161.451,21.9723 189.785,37.3056 210.5,66.5C 396.166,67.3333 581.832,67.8333 767.5,68C 775.15,69.8214 780.483,74.3214 783.5,81.5C 783.5,116.833 783.5,152.167 783.5,187.5C 781.017,194.148 776.35,198.648 769.5,201C 579.167,201.333 388.833,201.667 198.5,202C 178.474,222.343 154.141,232.843 125.5,233.5C 125.5,238.833 125.5,244.167 125.5,249.5C 121.5,249.5 117.5,249.5 113.5,249.5C 113.167,248.167 112.833,248.167 112.5,249.5C 112.167,249.5 111.833,249.5 111.5,249.5C 61.7936,241.989 26.9603,214.989 7,168.5C 3.8363,159.244 1.3363,150.244 -0.5,141.5C -0.5,141.167 -0.5,140.833 -0.5,140.5C 0.833333,140.167 0.833333,139.833 -0.5,139.5C -0.5,129.5 -0.5,119.5 -0.5,109.5C 8.92261,56.2474 39.2559,21.0807 90.5,4C 97.5897,2.26914 104.59,0.769143 111.5,-0.5 Z M 125.5,42.5 C 146.051,44.0298 163.884,51.6965 179,65.5C 182.902,63.1306 186.735,60.6306 190.5,58C 191.759,57.0181 193.092,56.6848 194.5,57C 215.97,79.071 224.97,105.738 221.5,137C 214.962,138.731 208.795,141.231 203,144.5C 196.531,172.8 180.031,192.8 153.5,204.5C 152.833,210.833 152.167,217.167 151.5,223.5C 143.111,226.565 134.444,227.898 125.5,227.5C 125.5,218.833 125.5,210.167 125.5,201.5C 157.915,199.381 180.415,183.381 193,153.5C 204.164,113.306 191.997,82.4728 156.5,61C 146.665,56.4579 136.332,53.9579 125.5,53.5C 125.5,49.8333 125.5,46.1667 125.5,42.5 Z M 125.5,59.5 C 153.662,61.514 173.829,75.1807 186,100.5C 198.081,135.585 189.248,164.085 159.5,186C 149.047,191.93 137.881,195.43 126,196.5C 125.064,193.208 125.564,190.208 127.5,187.5C 127.192,186.692 126.692,186.025 126,185.5C 125.5,179.175 125.334,172.842 125.5,166.5C 148.391,163.777 160.391,150.944 161.5,128C 159.859,105.526 147.859,93.0258 125.5,90.5C 124.96,83.6102 125.627,76.9435 127.5,70.5C 125.779,67.0915 125.112,63.4249 125.5,59.5 Z M 215.5,73.5 C 399.5,73.3333 583.5,73.5 767.5,74C 773.66,76.4867 777.16,80.9867 778,87.5C 778.667,119.167 778.667,150.833 778,182.5C 776.833,190.333 772.333,194.833 764.5,196C 577.832,196.833 391.166,196.667 204.5,195.5C 229.349,163.073 235.182,127.407 222,88.5C 219.821,83.4785 217.654,78.4785 215.5,73.5 Z M 125.5,96.5 C 144.335,98.5029 154.669,109.003 156.5,128C 154.509,146.824 144.176,157.657 125.5,160.5C 125.5,158.167 125.5,155.833 125.5,153.5C 139.673,152.159 147.34,144.326 148.5,130C 147.182,115.849 139.515,107.683 125.5,105.5C 125.5,102.5 125.5,99.5 125.5,96.5 Z"/></g>
<g><path style="opacity:0.898" fill="#02fffb" d="M 618.5,38.5 C 628.855,38.1681 639.188,38.5014 649.5,39.5C 645.641,44.1914 641.975,49.0247 638.5,54C 627.833,54.6667 617.167,54.6667 606.5,54C 610.333,48.6718 614.333,43.5051 618.5,38.5 Z"/></g>
<g><path style="opacity:0.894" fill="#02fffc" d="M 656.5,38.5 C 665.839,38.3335 675.173,38.5002 684.5,39C 681.025,43.9753 677.359,48.8086 673.5,53.5C 664.5,54.8333 655.5,54.8333 646.5,53.5C 650.092,48.6434 653.425,43.6434 656.5,38.5 Z"/></g>
<g><path style="opacity:0.895" fill="#02fffc" d="M 692.5,38.5 C 701.839,38.3335 711.173,38.5002 720.5,39C 717.559,44.272 714.226,49.272 710.5,54C 701.482,54.832 692.482,54.6653 683.5,53.5C 686.774,48.6103 689.774,43.6103 692.5,38.5 Z"/></g>
<g><path style="opacity:0.892" fill="#02fffc" d="M 728.5,38.5 C 737.192,38.1686 745.859,38.502 754.5,39.5C 751.876,44.585 748.876,49.4183 745.5,54C 737.147,54.8317 728.813,54.6651 720.5,53.5C 723.956,48.9224 726.622,43.9224 728.5,38.5 Z"/></g>
<g><path style="opacity:0.682" fill="#01fffc" d="M 132.5,68.5 C 137.158,68.653 138.158,70.4863 135.5,74C 131.537,74.1177 130.537,72.2843 132.5,68.5 Z"/></g>
<g><path style="opacity:0.706" fill="#02fffc" d="M 142.5,70.5 C 145.966,71.109 146.966,72.9423 145.5,76C 140.289,76.5464 139.289,74.713 142.5,70.5 Z"/></g>
<g><path style="opacity:0.689" fill="#02fffc" d="M 151.5,74.5 C 154.966,75.109 155.966,76.9423 154.5,80C 151.763,81.0798 150.096,80.2464 149.5,77.5C 149.942,76.2613 150.609,75.2613 151.5,74.5 Z"/></g>
<g><path style="opacity:0.687" fill="#01fffc" d="M 158.5,80.5 C 164.175,80.8597 164.842,82.8597 160.5,86.5C 157.531,85.2351 156.865,83.2351 158.5,80.5 Z"/></g>
<g><path style="opacity:0.706" fill="#02fffc" d="M 166.5,86.5 C 169.999,87.1336 170.999,88.9669 169.5,92C 166.763,93.0798 165.096,92.2464 164.5,89.5C 164.942,88.2613 165.609,87.2613 166.5,86.5 Z"/></g>
<g><path style="opacity:0.713" fill="#02fffb" d="M 171.5,94.5 C 176.041,94.8152 177.041,96.6485 174.5,100C 170.537,100.118 169.537,98.2843 171.5,94.5 Z"/></g>
<g><path style="opacity:0.705" fill="#02fffc" d="M 175.5,103.5 C 181.175,103.86 181.842,105.86 177.5,109.5C 174.61,108.163 173.943,106.163 175.5,103.5 Z"/></g>
<g><path style="opacity:0.689" fill="#02fffc" d="M 178.5,112.5 C 182.909,111.899 184.242,113.566 182.5,117.5C 178.317,118.309 176.984,116.642 178.5,112.5 Z"/></g>
<g><path style="opacity:0.771" fill="#02fffb" d="M 181.5,121.5 C 183.913,122.68 184.913,124.68 184.5,127.5C 182.833,127.5 181.167,127.5 179.5,127.5C 179.259,125.114 179.925,123.114 181.5,121.5 Z"/></g>
<g><path style="opacity:0.71" fill="#02fffc" d="M 180.5,131.5 C 184.35,131.701 185.35,133.534 183.5,137C 178.722,137.073 177.722,135.24 180.5,131.5 Z"/></g>
<g><path style="opacity:0.703" fill="#01fffc" d="M 177.5,141.5 C 179.199,141.34 180.866,141.506 182.5,142C 183.833,143.333 183.833,144.667 182.5,146C 180.866,146.494 179.199,146.66 177.5,146.5C 177.5,144.833 177.5,143.167 177.5,141.5 Z"/></g>
<g><path style="opacity:0.784" fill="#02fffb" d="M 174.5,150.5 C 176.167,150.5 177.833,150.5 179.5,150.5C 179.849,153.045 179.016,155.045 177,156.5C 174.984,155.045 174.151,153.045 174.5,150.5 Z"/></g>
<g><path style="opacity:0.661" fill="#02fffc" d="M 170.5,158.5 C 174.521,158.244 175.854,159.91 174.5,163.5C 169.733,164.899 168.4,163.232 170.5,158.5 Z"/></g>
<g><path style="opacity:0.735" fill="#02fffb" d="M 164.5,166.5 C 170.432,167.129 170.932,169.129 166,172.5C 163.521,170.912 163.021,168.912 164.5,166.5 Z"/></g>
<g><path style="opacity:0.687" fill="#01fffc" d="M 157.5,172.5 C 161.225,172.537 162.558,174.204 161.5,177.5C 156.733,178.899 155.4,177.232 157.5,172.5 Z"/></g>
<g><path style="opacity:0.703" fill="#01fffc" d="M 150.5,177.5 C 155.229,178.926 155.562,180.926 151.5,183.5C 147.986,182.101 147.653,180.101 150.5,177.5 Z"/></g>
<g><path style="opacity:0.695" fill="#01fffc" d="M 140.5,181.5 C 144.225,181.537 145.558,183.204 144.5,186.5C 139.733,187.899 138.4,186.232 140.5,181.5 Z"/></g>
<g><path style="opacity:0.737" fill="#01fffb" d="M 132.5,183.5 C 134.913,184.68 135.913,186.68 135.5,189.5C 129.447,189.407 128.447,187.407 132.5,183.5 Z"/></g>
<g><path style="opacity:0.955" fill="#02fffb" d="M 196.5,218.5 C 207.172,218.333 217.839,218.5 228.5,219C 225.074,223.848 221.408,228.515 217.5,233C 206.833,233.667 196.167,233.667 185.5,233C 189.767,228.574 193.433,223.741 196.5,218.5 Z"/></g>
<g><path style="opacity:0.952" fill="#02fffb" d="M 235.5,218.5 C 244.839,218.334 254.173,218.5 263.5,219C 259.592,223.485 255.926,228.152 252.5,233C 243.5,233.667 234.5,233.667 225.5,233C 229.054,228.286 232.387,223.453 235.5,218.5 Z"/></g>
<g><path style="opacity:0.95" fill="#02fffc" d="M 271.5,218.5 C 280.839,218.334 290.173,218.5 299.5,219C 296.376,223.414 293.376,227.914 290.5,232.5C 281.167,233.833 271.833,233.833 262.5,232.5C 265.526,227.816 268.526,223.149 271.5,218.5 Z"/></g>
<g><path style="opacity:0.953" fill="#02fffb" d="M 307.5,218.5 C 316.192,218.169 324.859,218.502 333.5,219.5C 330.583,223.666 327.916,227.999 325.5,232.5C 316.853,233.665 308.186,233.832 299.5,233C 302.572,228.353 305.238,223.52 307.5,218.5 Z"/></g>
</svg>
