<?xml version="1.0" encoding="UTF-8"?>
<!DOCTYPE svg PUBLIC "-//W3C//DTD SVG 1.1//EN" "http://www.w3.org/Graphics/SVG/1.1/DTD/svg11.dtd">
<svg xmlns="http://www.w3.org/2000/svg" version="1.1" width="847px" height="169px" style="shape-rendering:geometricPrecision; text-rendering:geometricPrecision; image-rendering:optimizeQuality; fill-rule:evenodd; clip-rule:evenodd" xmlns:xlink="http://www.w3.org/1999/xlink">
<g><path style="opacity:0.173" fill="#00fdff" d="M 53.5,-0.5 C 53.8333,-0.5 54.1667,-0.5 54.5,-0.5C 55.1667,0.833333 55.8333,0.833333 56.5,-0.5C 56.8333,-0.5 57.1667,-0.5 57.5,-0.5C 58.1667,0.833333 58.8333,0.833333 59.5,-0.5C 59.8333,-0.5 60.1667,-0.5 60.5,-0.5C 61.1667,0.833333 61.8333,0.833333 62.5,-0.5C 62.8333,-0.5 63.1667,-0.5 63.5,-0.5C 64.1667,0.833333 64.8333,0.833333 65.5,-0.5C 65.8333,-0.5 66.1667,-0.5 66.5,-0.5C 67.1667,0.833333 67.8333,0.833333 68.5,-0.5C 68.8333,-0.5 69.1667,-0.5 69.5,-0.5C 70.1667,0.833333 70.8333,0.833333 71.5,-0.5C 71.8333,-0.5 72.1667,-0.5 72.5,-0.5C 73.1667,0.833333 73.8333,0.833333 74.5,-0.5C 74.8333,-0.5 75.1667,-0.5 75.5,-0.5C 76.1667,0.833333 76.8333,0.833333 77.5,-0.5C 77.8333,-0.5 78.1667,-0.5 78.5,-0.5C 79.1667,0.833333 79.8333,0.833333 80.5,-0.5C 80.8333,-0.5 81.1667,-0.5 81.5,-0.5C 82.1667,0.833333 82.8333,0.833333 83.5,-0.5C 83.8333,-0.5 84.1667,-0.5 84.5,-0.5C 85.1667,0.833333 85.8333,0.833333 86.5,-0.5C 86.8333,-0.5 87.1667,-0.5 87.5,-0.5C 88.1667,0.833333 88.8333,0.833333 89.5,-0.5C 89.8333,-0.5 90.1667,-0.5 90.5,-0.5C 91.1667,0.833333 91.8333,0.833333 92.5,-0.5C 92.8333,-0.5 93.1667,-0.5 93.5,-0.5C 94.1667,0.833333 94.8333,0.833333 95.5,-0.5C 95.8333,-0.5 96.1667,-0.5 96.5,-0.5C 97.1667,0.833333 97.8333,0.833333 98.5,-0.5C 98.8333,-0.5 99.1667,-0.5 99.5,-0.5C 100.167,0.833333 100.833,0.833333 101.5,-0.5C 101.833,-0.5 102.167,-0.5 102.5,-0.5C 103.167,0.833333 103.833,0.833333 104.5,-0.5C 104.833,-0.5 105.167,-0.5 105.5,-0.5C 106.167,0.833333 106.833,0.833333 107.5,-0.5C 107.833,-0.5 108.167,-0.5 108.5,-0.5C 109.167,0.833333 109.833,0.833333 110.5,-0.5C 110.833,-0.5 111.167,-0.5 111.5,-0.5C 112.167,0.833333 112.833,0.833333 113.5,-0.5C 113.833,-0.5 114.167,-0.5 114.5,-0.5C 115.167,0.833333 115.833,0.833333 116.5,-0.5C 116.833,-0.5 117.167,-0.5 117.5,-0.5C 118.167,0.833333 118.833,0.833333 119.5,-0.5C 119.833,-0.5 120.167,-0.5 120.5,-0.5C 121.167,0.833333 121.833,0.833333 122.5,-0.5C 122.833,-0.5 123.167,-0.5 123.5,-0.5C 124.167,0.833333 124.833,0.833333 125.5,-0.5C 125.833,-0.5 126.167,-0.5 126.5,-0.5C 127.167,0.833333 127.833,0.833333 128.5,-0.5C 128.833,-0.5 129.167,-0.5 129.5,-0.5C 130.167,0.833333 130.833,0.833333 131.5,-0.5C 131.833,-0.5 132.167,-0.5 132.5,-0.5C 133.167,0.833333 133.833,0.833333 134.5,-0.5C 134.833,-0.5 135.167,-0.5 135.5,-0.5C 136.167,0.833333 136.833,0.833333 137.5,-0.5C 137.833,-0.5 138.167,-0.5 138.5,-0.5C 139.167,0.833333 139.833,0.833333 140.5,-0.5C 140.833,-0.5 141.167,-0.5 141.5,-0.5C 142.167,0.833333 142.833,0.833333 143.5,-0.5C 143.833,-0.5 144.167,-0.5 144.5,-0.5C 145.167,0.833333 145.833,0.833333 146.5,-0.5C 146.833,-0.5 147.167,-0.5 147.5,-0.5C 148.167,0.833333 148.833,0.833333 149.5,-0.5C 149.833,-0.5 150.167,-0.5 150.5,-0.5C 151.167,0.833333 151.833,0.833333 152.5,-0.5C 152.833,-0.5 153.167,-0.5 153.5,-0.5C 154.167,0.833333 154.833,0.833333 155.5,-0.5C 155.833,-0.5 156.167,-0.5 156.5,-0.5C 157.167,0.833333 157.833,0.833333 158.5,-0.5C 158.833,-0.5 159.167,-0.5 159.5,-0.5C 160.167,0.833333 160.833,0.833333 161.5,-0.5C 161.833,-0.5 162.167,-0.5 162.5,-0.5C 163.167,0.833333 163.833,0.833333 164.5,-0.5C 164.833,-0.5 165.167,-0.5 165.5,-0.5C 166.167,0.833333 166.833,0.833333 167.5,-0.5C 167.833,-0.5 168.167,-0.5 168.5,-0.5C 169.167,0.833333 169.833,0.833333 170.5,-0.5C 170.833,-0.5 171.167,-0.5 171.5,-0.5C 172.167,0.833333 172.833,0.833333 173.5,-0.5C 173.833,-0.5 174.167,-0.5 174.5,-0.5C 175.167,0.833333 175.833,0.833333 176.5,-0.5C 176.833,-0.5 177.167,-0.5 177.5,-0.5C 178.167,0.833333 178.833,0.833333 179.5,-0.5C 179.833,-0.5 180.167,-0.5 180.5,-0.5C 181.167,0.833333 181.833,0.833333 182.5,-0.5C 182.833,-0.5 183.167,-0.5 183.5,-0.5C 184.167,0.833333 184.833,0.833333 185.5,-0.5C 185.833,-0.5 186.167,-0.5 186.5,-0.5C 187.167,0.833333 187.833,0.833333 188.5,-0.5C 188.833,-0.5 189.167,-0.5 189.5,-0.5C 190.167,0.833333 190.833,0.833333 191.5,-0.5C 191.833,-0.5 192.167,-0.5 192.5,-0.5C 193.167,0.833333 193.833,0.833333 194.5,-0.5C 194.833,-0.5 195.167,-0.5 195.5,-0.5C 196.167,0.833333 196.833,0.833333 197.5,-0.5C 197.833,-0.5 198.167,-0.5 198.5,-0.5C 199.167,0.833333 199.833,0.833333 200.5,-0.5C 200.833,-0.5 201.167,-0.5 201.5,-0.5C 202.167,0.833333 202.833,0.833333 203.5,-0.5C 203.833,-0.5 204.167,-0.5 204.5,-0.5C 205.167,0.833333 205.833,0.833333 206.5,-0.5C 206.833,-0.5 207.167,-0.5 207.5,-0.5C 208.167,0.833333 208.833,0.833333 209.5,-0.5C 209.833,-0.5 210.167,-0.5 210.5,-0.5C 211.167,0.833333 211.833,0.833333 212.5,-0.5C 212.833,-0.5 213.167,-0.5 213.5,-0.5C 214.167,0.833333 214.833,0.833333 215.5,-0.5C 215.833,-0.5 216.167,-0.5 216.5,-0.5C 217.167,0.833333 217.833,0.833333 218.5,-0.5C 218.833,-0.5 219.167,-0.5 219.5,-0.5C 220.167,0.833333 220.833,0.833333 221.5,-0.5C 221.833,-0.5 222.167,-0.5 222.5,-0.5C 223.167,0.833333 223.833,0.833333 224.5,-0.5C 224.833,-0.5 225.167,-0.5 225.5,-0.5C 226.167,0.833333 226.833,0.833333 227.5,-0.5C 227.833,-0.5 228.167,-0.5 228.5,-0.5C 229.167,0.833333 229.833,0.833333 230.5,-0.5C 230.833,-0.5 231.167,-0.5 231.5,-0.5C 232.167,0.833333 232.833,0.833333 233.5,-0.5C 233.833,-0.5 234.167,-0.5 234.5,-0.5C 235.167,0.833333 235.833,0.833333 236.5,-0.5C 236.833,-0.5 237.167,-0.5 237.5,-0.5C 238.167,0.833333 238.833,0.833333 239.5,-0.5C 239.833,-0.5 240.167,-0.5 240.5,-0.5C 241.167,0.833333 241.833,0.833333 242.5,-0.5C 242.833,-0.5 243.167,-0.5 243.5,-0.5C 244.167,0.833333 244.833,0.833333 245.5,-0.5C 245.833,-0.5 246.167,-0.5 246.5,-0.5C 247.167,0.833333 247.833,0.833333 248.5,-0.5C 248.833,-0.5 249.167,-0.5 249.5,-0.5C 250.167,0.833333 250.833,0.833333 251.5,-0.5C 251.833,-0.5 252.167,-0.5 252.5,-0.5C 253.167,0.833333 253.833,0.833333 254.5,-0.5C 254.833,-0.5 255.167,-0.5 255.5,-0.5C 256.167,0.833333 256.833,0.833333 257.5,-0.5C 257.833,-0.5 258.167,-0.5 258.5,-0.5C 259.167,0.833333 259.833,0.833333 260.5,-0.5C 260.833,-0.5 261.167,-0.5 261.5,-0.5C 262.167,0.833333 262.833,0.833333 263.5,-0.5C 263.833,-0.5 264.167,-0.5 264.5,-0.5C 265.167,0.833333 265.833,0.833333 266.5,-0.5C 266.833,-0.5 267.167,-0.5 267.5,-0.5C 268.167,0.833333 268.833,0.833333 269.5,-0.5C 269.833,-0.5 270.167,-0.5 270.5,-0.5C 271.167,0.833333 271.833,0.833333 272.5,-0.5C 272.833,-0.5 273.167,-0.5 273.5,-0.5C 274.167,0.833333 274.833,0.833333 275.5,-0.5C 275.833,-0.5 276.167,-0.5 276.5,-0.5C 277.167,0.833333 277.833,0.833333 278.5,-0.5C 278.833,-0.5 279.167,-0.5 279.5,-0.5C 280.167,0.833333 280.833,0.833333 281.5,-0.5C 281.833,-0.5 282.167,-0.5 282.5,-0.5C 283.167,0.833333 283.833,0.833333 284.5,-0.5C 284.833,-0.5 285.167,-0.5 285.5,-0.5C 286.167,0.833333 286.833,0.833333 287.5,-0.5C 287.833,-0.5 288.167,-0.5 288.5,-0.5C 289.167,0.833333 289.833,0.833333 290.5,-0.5C 290.833,-0.5 291.167,-0.5 291.5,-0.5C 292.167,0.833333 292.833,0.833333 293.5,-0.5C 293.833,-0.5 294.167,-0.5 294.5,-0.5C 295.167,0.833333 295.833,0.833333 296.5,-0.5C 296.833,-0.5 297.167,-0.5 297.5,-0.5C 298.167,0.833333 298.833,0.833333 299.5,-0.5C 299.833,-0.5 300.167,-0.5 300.5,-0.5C 301.167,0.833333 301.833,0.833333 302.5,-0.5C 302.833,-0.5 303.167,-0.5 303.5,-0.5C 304.167,0.833333 304.833,0.833333 305.5,-0.5C 305.833,-0.5 306.167,-0.5 306.5,-0.5C 307.167,0.833333 307.833,0.833333 308.5,-0.5C 308.833,-0.5 309.167,-0.5 309.5,-0.5C 310.167,0.833333 310.833,0.833333 311.5,-0.5C 311.833,-0.5 312.167,-0.5 312.5,-0.5C 313.167,0.833333 313.833,0.833333 314.5,-0.5C 314.833,-0.5 315.167,-0.5 315.5,-0.5C 316.167,0.833333 316.833,0.833333 317.5,-0.5C 317.833,-0.5 318.167,-0.5 318.5,-0.5C 319.167,0.833333 319.833,0.833333 320.5,-0.5C 320.833,-0.5 321.167,-0.5 321.5,-0.5C 322.167,0.833333 322.833,0.833333 323.5,-0.5C 323.833,-0.5 324.167,-0.5 324.5,-0.5C 325.167,0.833333 325.833,0.833333 326.5,-0.5C 326.833,-0.5 327.167,-0.5 327.5,-0.5C 328.167,0.833333 328.833,0.833333 329.5,-0.5C 329.833,-0.5 330.167,-0.5 330.5,-0.5C 331.167,0.833333 331.833,0.833333 332.5,-0.5C 332.833,-0.5 333.167,-0.5 333.5,-0.5C 334.167,0.833333 334.833,0.833333 335.5,-0.5C 335.833,-0.5 336.167,-0.5 336.5,-0.5C 337.167,0.833333 337.833,0.833333 338.5,-0.5C 338.833,-0.5 339.167,-0.5 339.5,-0.5C 340.167,0.833333 340.833,0.833333 341.5,-0.5C 341.833,-0.5 342.167,-0.5 342.5,-0.5C 343.167,0.833333 343.833,0.833333 344.5,-0.5C 344.833,-0.5 345.167,-0.5 345.5,-0.5C 346.167,0.833333 346.833,0.833333 347.5,-0.5C 347.833,-0.5 348.167,-0.5 348.5,-0.5C 349.167,0.833333 349.833,0.833333 350.5,-0.5C 350.833,-0.5 351.167,-0.5 351.5,-0.5C 352.167,0.833333 352.833,0.833333 353.5,-0.5C 353.833,-0.5 354.167,-0.5 354.5,-0.5C 355.167,0.833333 355.833,0.833333 356.5,-0.5C 356.833,-0.5 357.167,-0.5 357.5,-0.5C 358.167,0.833333 358.833,0.833333 359.5,-0.5C 359.833,-0.5 360.167,-0.5 360.5,-0.5C 360.833,0.833333 361.167,0.833333 361.5,-0.5C 361.833,-0.5 362.167,-0.5 362.5,-0.5C 362.833,2.16667 363.167,2.16667 363.5,-0.5C 363.833,-0.5 364.167,-0.5 364.5,-0.5C 364.833,0.833333 365.167,0.833333 365.5,-0.5C 365.833,-0.5 366.167,-0.5 366.5,-0.5C 366.833,0.833333 367.167,0.833333 367.5,-0.5C 367.833,-0.5 368.167,-0.5 368.5,-0.5C 368.833,0.833333 369.167,0.833333 369.5,-0.5C 369.833,-0.5 370.167,-0.5 370.5,-0.5C 370.833,2.16667 371.167,2.16667 371.5,-0.5C 371.833,-0.5 372.167,-0.5 372.5,-0.5C 372.833,0.833333 373.167,0.833333 373.5,-0.5C 373.833,-0.5 374.167,-0.5 374.5,-0.5C 374.833,0.833333 375.167,0.833333 375.5,-0.5C 375.833,-0.5 376.167,-0.5 376.5,-0.5C 376.833,0.833333 377.167,0.833333 377.5,-0.5C 377.833,-0.5 378.167,-0.5 378.5,-0.5C 378.833,2.16667 379.167,2.16667 379.5,-0.5C 379.833,-0.5 380.167,-0.5 380.5,-0.5C 380.833,0.833333 381.167,0.833333 381.5,-0.5C 381.833,-0.5 382.167,-0.5 382.5,-0.5C 382.833,0.833333 383.167,0.833333 383.5,-0.5C 383.833,-0.5 384.167,-0.5 384.5,-0.5C 384.833,0.833333 385.167,0.833333 385.5,-0.5C 385.833,-0.5 386.167,-0.5 386.5,-0.5C 386.833,2.16667 387.167,2.16667 387.5,-0.5C 387.833,-0.5 388.167,-0.5 388.5,-0.5C 388.833,0.833333 389.167,0.833333 389.5,-0.5C 389.833,-0.5 390.167,-0.5 390.5,-0.5C 390.833,0.833333 391.167,0.833333 391.5,-0.5C 391.833,-0.5 392.167,-0.5 392.5,-0.5C 392.833,0.833333 393.167,0.833333 393.5,-0.5C 393.833,-0.5 394.167,-0.5 394.5,-0.5C 394.833,2.16667 395.167,2.16667 395.5,-0.5C 395.833,-0.5 396.167,-0.5 396.5,-0.5C 396.833,0.833333 397.167,0.833333 397.5,-0.5C 397.833,-0.5 398.167,-0.5 398.5,-0.5C 398.833,0.833333 399.167,0.833333 399.5,-0.5C 399.833,-0.5 400.167,-0.5 400.5,-0.5C 400.833,0.833333 401.167,0.833333 401.5,-0.5C 401.833,-0.5 402.167,-0.5 402.5,-0.5C 402.833,2.16667 403.167,2.16667 403.5,-0.5C 403.833,-0.5 404.167,-0.5 404.5,-0.5C 404.833,0.833333 405.167,0.833333 405.5,-0.5C 405.833,-0.5 406.167,-0.5 406.5,-0.5C 406.833,0.833333 407.167,0.833333 407.5,-0.5C 407.833,-0.5 408.167,-0.5 408.5,-0.5C 408.833,0.833333 409.167,0.833333 409.5,-0.5C 409.833,-0.5 410.167,-0.5 410.5,-0.5C 410.833,2.16667 411.167,2.16667 411.5,-0.5C 411.833,-0.5 412.167,-0.5 412.5,-0.5C 412.833,0.833333 413.167,0.833333 413.5,-0.5C 413.833,-0.5 414.167,-0.5 414.5,-0.5C 414.833,0.833333 415.167,0.833333 415.5,-0.5C 415.833,-0.5 416.167,-0.5 416.5,-0.5C 416.833,0.833333 417.167,0.833333 417.5,-0.5C 417.833,-0.5 418.167,-0.5 418.5,-0.5C 418.833,2.16667 419.167,2.16667 419.5,-0.5C 419.833,-0.5 420.167,-0.5 420.5,-0.5C 420.833,0.833333 421.167,0.833333 421.5,-0.5C 421.833,-0.5 422.167,-0.5 422.5,-0.5C 422.833,0.833333 423.167,0.833333 423.5,-0.5C 423.833,-0.5 424.167,-0.5 424.5,-0.5C 424.833,0.833333 425.167,0.833333 425.5,-0.5C 425.833,-0.5 426.167,-0.5 426.5,-0.5C 426.833,2.16667 427.167,2.16667 427.5,-0.5C 427.833,-0.5 428.167,-0.5 428.5,-0.5C 428.833,0.833333 429.167,0.833333 429.5,-0.5C 429.833,-0.5 430.167,-0.5 430.5,-0.5C 430.833,0.833333 431.167,0.833333 431.5,-0.5C 431.833,-0.5 432.167,-0.5 432.5,-0.5C 432.833,0.833333 433.167,0.833333 433.5,-0.5C 433.833,-0.5 434.167,-0.5 434.5,-0.5C 434.833,2.16667 435.167,2.16667 435.5,-0.5C 435.833,-0.5 436.167,-0.5 436.5,-0.5C 436.833,0.833333 437.167,0.833333 437.5,-0.5C 437.833,-0.5 438.167,-0.5 438.5,-0.5C 438.833,0.833333 439.167,0.833333 439.5,-0.5C 439.833,-0.5 440.167,-0.5 440.5,-0.5C 440.833,0.833333 441.167,0.833333 441.5,-0.5C 441.833,-0.5 442.167,-0.5 442.5,-0.5C 442.833,2.16667 443.167,2.16667 443.5,-0.5C 443.833,-0.5 444.167,-0.5 444.5,-0.5C 444.833,0.833333 445.167,0.833333 445.5,-0.5C 445.833,-0.5 446.167,-0.5 446.5,-0.5C 446.833,0.833333 447.167,0.833333 447.5,-0.5C 447.833,-0.5 448.167,-0.5 448.5,-0.5C 448.833,0.833333 449.167,0.833333 449.5,-0.5C 449.833,-0.5 450.167,-0.5 450.5,-0.5C 450.833,2.16667 451.167,2.16667 451.5,-0.5C 451.833,-0.5 452.167,-0.5 452.5,-0.5C 452.833,0.833333 453.167,0.833333 453.5,-0.5C 453.833,-0.5 454.167,-0.5 454.5,-0.5C 454.833,0.833333 455.167,0.833333 455.5,-0.5C 455.833,-0.5 456.167,-0.5 456.5,-0.5C 456.833,0.833333 457.167,0.833333 457.5,-0.5C 457.833,-0.5 458.167,-0.5 458.5,-0.5C 458.833,2.16667 459.167,2.16667 459.5,-0.5C 459.833,-0.5 460.167,-0.5 460.5,-0.5C 460.833,0.833333 461.167,0.833333 461.5,-0.5C 461.833,-0.5 462.167,-0.5 462.5,-0.5C 462.833,0.833333 463.167,0.833333 463.5,-0.5C 463.833,-0.5 464.167,-0.5 464.5,-0.5C 464.833,0.833333 465.167,0.833333 465.5,-0.5C 465.833,-0.5 466.167,-0.5 466.5,-0.5C 466.833,2.16667 467.167,2.16667 467.5,-0.5C 467.833,-0.5 468.167,-0.5 468.5,-0.5C 468.833,0.833333 469.167,0.833333 469.5,-0.5C 469.833,-0.5 470.167,-0.5 470.5,-0.5C 470.833,0.833333 471.167,0.833333 471.5,-0.5C 471.833,-0.5 472.167,-0.5 472.5,-0.5C 472.833,0.833333 473.167,0.833333 473.5,-0.5C 473.833,-0.5 474.167,-0.5 474.5,-0.5C 474.833,2.16667 475.167,2.16667 475.5,-0.5C 475.833,-0.5 476.167,-0.5 476.5,-0.5C 476.833,0.833333 477.167,0.833333 477.5,-0.5C 477.833,-0.5 478.167,-0.5 478.5,-0.5C 478.833,0.833333 479.167,0.833333 479.5,-0.5C 479.833,-0.5 480.167,-0.5 480.5,-0.5C 480.833,0.833333 481.167,0.833333 481.5,-0.5C 481.833,-0.5 482.167,-0.5 482.5,-0.5C 482.833,2.16667 483.167,2.16667 483.5,-0.5C 483.833,-0.5 484.167,-0.5 484.5,-0.5C 485.548,1.93268 486.214,1.93268 486.5,-0.5C 486.833,-0.5 487.167,-0.5 487.5,-0.5C 488.167,0.833333 488.833,0.833333 489.5,-0.5C 489.833,-0.5 490.167,-0.5 490.5,-0.5C 491.548,1.93268 492.214,1.93268 492.5,-0.5C 492.833,-0.5 493.167,-0.5 493.5,-0.5C 494.167,0.833333 494.833,0.833333 495.5,-0.5C 495.833,-0.5 496.167,-0.5 496.5,-0.5C 497.548,1.93268 498.214,1.93268 498.5,-0.5C 498.833,-0.5 499.167,-0.5 499.5,-0.5C 500.167,0.833333 500.833,0.833333 501.5,-0.5C 501.833,-0.5 502.167,-0.5 502.5,-0.5C 503.548,1.93268 504.214,1.93268 504.5,-0.5C 504.833,-0.5 505.167,-0.5 505.5,-0.5C 506.167,0.833333 506.833,0.833333 507.5,-0.5C 507.833,-0.5 508.167,-0.5 508.5,-0.5C 509.548,1.93268 510.214,1.93268 510.5,-0.5C 510.833,-0.5 511.167,-0.5 511.5,-0.5C 512.167,0.833333 512.833,0.833333 513.5,-0.5C 513.833,-0.5 514.167,-0.5 514.5,-0.5C 515.548,1.93268 516.214,1.93268 516.5,-0.5C 516.833,-0.5 517.167,-0.5 517.5,-0.5C 518.167,0.833333 518.833,0.833333 519.5,-0.5C 519.833,-0.5 520.167,-0.5 520.5,-0.5C 521.548,1.93268 522.214,1.93268 522.5,-0.5C 522.833,-0.5 523.167,-0.5 523.5,-0.5C 524.167,0.833333 524.833,0.833333 525.5,-0.5C 525.833,-0.5 526.167,-0.5 526.5,-0.5C 527.548,1.93268 528.214,1.93268 528.5,-0.5C 528.833,-0.5 529.167,-0.5 529.5,-0.5C 530.167,0.833333 530.833,0.833333 531.5,-0.5C 531.833,-0.5 532.167,-0.5 532.5,-0.5C 533.548,1.93268 534.214,1.93268 534.5,-0.5C 534.833,-0.5 535.167,-0.5 535.5,-0.5C 536.167,0.833333 536.833,0.833333 537.5,-0.5C 537.833,-0.5 538.167,-0.5 538.5,-0.5C 539.548,1.93268 540.214,1.93268 540.5,-0.5C 540.833,-0.5 541.167,-0.5 541.5,-0.5C 542.167,0.833333 542.833,0.833333 543.5,-0.5C 543.833,-0.5 544.167,-0.5 544.5,-0.5C 545.548,1.93268 546.214,1.93268 546.5,-0.5C 546.833,-0.5 547.167,-0.5 547.5,-0.5C 548.167,0.833333 548.833,0.833333 549.5,-0.5C 549.833,-0.5 550.167,-0.5 550.5,-0.5C 551.548,1.93268 552.214,1.93268 552.5,-0.5C 552.833,-0.5 553.167,-0.5 553.5,-0.5C 554.167,0.833333 554.833,0.833333 555.5,-0.5C 555.833,-0.5 556.167,-0.5 556.5,-0.5C 557.548,1.93268 558.214,1.93268 558.5,-0.5C 558.833,-0.5 559.167,-0.5 559.5,-0.5C 560.167,0.833333 560.833,0.833333 561.5,-0.5C 561.833,-0.5 562.167,-0.5 562.5,-0.5C 563.548,1.93268 564.214,1.93268 564.5,-0.5C 564.833,-0.5 565.167,-0.5 565.5,-0.5C 566.167,0.833333 566.833,0.833333 567.5,-0.5C 567.833,-0.5 568.167,-0.5 568.5,-0.5C 569.548,1.93268 570.214,1.93268 570.5,-0.5C 570.833,-0.5 571.167,-0.5 571.5,-0.5C 572.167,0.833333 572.833,0.833333 573.5,-0.5C 573.833,-0.5 574.167,-0.5 574.5,-0.5C 575.548,1.93268 576.214,1.93268 576.5,-0.5C 576.833,-0.5 577.167,-0.5 577.5,-0.5C 578.167,0.833333 578.833,0.833333 579.5,-0.5C 579.833,-0.5 580.167,-0.5 580.5,-0.5C 581.548,1.93268 582.214,1.93268 582.5,-0.5C 582.833,-0.5 583.167,-0.5 583.5,-0.5C 584.167,0.833333 584.833,0.833333 585.5,-0.5C 585.833,-0.5 586.167,-0.5 586.5,-0.5C 587.548,1.93268 588.214,1.93268 588.5,-0.5C 588.833,-0.5 589.167,-0.5 589.5,-0.5C 590.167,0.833333 590.833,0.833333 591.5,-0.5C 591.833,-0.5 592.167,-0.5 592.5,-0.5C 593.548,1.93268 594.214,1.93268 594.5,-0.5C 594.833,-0.5 595.167,-0.5 595.5,-0.5C 596.167,0.833333 596.833,0.833333 597.5,-0.5C 597.833,-0.5 598.167,-0.5 598.5,-0.5C 599.548,1.93268 600.214,1.93268 600.5,-0.5C 600.833,-0.5 601.167,-0.5 601.5,-0.5C 602.167,0.833333 602.833,0.833333 603.5,-0.5C 603.833,-0.5 604.167,-0.5 604.5,-0.5C 605.548,1.93268 606.214,1.93268 606.5,-0.5C 606.833,-0.5 607.167,-0.5 607.5,-0.5C 608.167,0.833333 608.833,0.833333 609.5,-0.5C 609.833,-0.5 610.167,-0.5 610.5,-0.5C 611.548,1.93268 612.214,1.93268 612.5,-0.5C 612.833,-0.5 613.167,-0.5 613.5,-0.5C 614.167,0.833333 614.833,0.833333 615.5,-0.5C 615.833,-0.5 616.167,-0.5 616.5,-0.5C 617.548,1.93268 618.214,1.93268 618.5,-0.5C 618.833,-0.5 619.167,-0.5 619.5,-0.5C 620.167,0.833333 620.833,0.833333 621.5,-0.5C 621.833,-0.5 622.167,-0.5 622.5,-0.5C 623.548,1.93268 624.214,1.93268 624.5,-0.5C 624.833,-0.5 625.167,-0.5 625.5,-0.5C 626.167,0.833333 626.833,0.833333 627.5,-0.5C 627.833,-0.5 628.167,-0.5 628.5,-0.5C 629.548,1.93268 630.214,1.93268 630.5,-0.5C 630.833,-0.5 631.167,-0.5 631.5,-0.5C 632.167,0.833333 632.833,0.833333 633.5,-0.5C 633.833,-0.5 634.167,-0.5 634.5,-0.5C 635.548,1.93268 636.214,1.93268 636.5,-0.5C 636.833,-0.5 637.167,-0.5 637.5,-0.5C 638.167,0.833333 638.833,0.833333 639.5,-0.5C 639.833,-0.5 640.167,-0.5 640.5,-0.5C 641.548,1.93268 642.214,1.93268 642.5,-0.5C 642.833,-0.5 643.167,-0.5 643.5,-0.5C 644.167,0.833333 644.833,0.833333 645.5,-0.5C 645.833,-0.5 646.167,-0.5 646.5,-0.5C 647.548,1.93268 648.214,1.93268 648.5,-0.5C 648.833,-0.5 649.167,-0.5 649.5,-0.5C 650.167,0.833333 650.833,0.833333 651.5,-0.5C 651.833,-0.5 652.167,-0.5 652.5,-0.5C 653.548,1.93268 654.214,1.93268 654.5,-0.5C 654.833,-0.5 655.167,-0.5 655.5,-0.5C 656.167,0.833333 656.833,0.833333 657.5,-0.5C 657.833,-0.5 658.167,-0.5 658.5,-0.5C 659.548,1.93268 660.214,1.93268 660.5,-0.5C 660.833,-0.5 661.167,-0.5 661.5,-0.5C 662.167,0.833333 662.833,0.833333 663.5,-0.5C 663.833,-0.5 664.167,-0.5 664.5,-0.5C 665.548,1.93268 666.214,1.93268 666.5,-0.5C 666.833,-0.5 667.167,-0.5 667.5,-0.5C 668.167,0.833333 668.833,0.833333 669.5,-0.5C 669.833,-0.5 670.167,-0.5 670.5,-0.5C 671.548,1.93268 672.214,1.93268 672.5,-0.5C 672.833,-0.5 673.167,-0.5 673.5,-0.5C 674.167,0.833333 674.833,0.833333 675.5,-0.5C 675.833,-0.5 676.167,-0.5 676.5,-0.5C 677.548,1.93268 678.214,1.93268 678.5,-0.5C 678.833,-0.5 679.167,-0.5 679.5,-0.5C 680.167,0.833333 680.833,0.833333 681.5,-0.5C 681.833,-0.5 682.167,-0.5 682.5,-0.5C 683.548,1.93268 684.214,1.93268 684.5,-0.5C 684.833,-0.5 685.167,-0.5 685.5,-0.5C 686.167,0.833333 686.833,0.833333 687.5,-0.5C 687.833,-0.5 688.167,-0.5 688.5,-0.5C 689.548,1.93268 690.214,1.93268 690.5,-0.5C 690.833,-0.5 691.167,-0.5 691.5,-0.5C 692.167,0.833333 692.833,0.833333 693.5,-0.5C 693.833,-0.5 694.167,-0.5 694.5,-0.5C 695.548,1.93268 696.214,1.93268 696.5,-0.5C 696.833,-0.5 697.167,-0.5 697.5,-0.5C 698.167,0.833333 698.833,0.833333 699.5,-0.5C 699.833,-0.5 700.167,-0.5 700.5,-0.5C 701.548,1.93268 702.214,1.93268 702.5,-0.5C 702.833,-0.5 703.167,-0.5 703.5,-0.5C 704.167,0.833333 704.833,0.833333 705.5,-0.5C 705.833,-0.5 706.167,-0.5 706.5,-0.5C 707.548,1.93268 708.214,1.93268 708.5,-0.5C 708.833,-0.5 709.167,-0.5 709.5,-0.5C 710.167,0.833333 710.833,0.833333 711.5,-0.5C 711.833,-0.5 712.167,-0.5 712.5,-0.5C 713.548,1.93268 714.214,1.93268 714.5,-0.5C 714.833,-0.5 715.167,-0.5 715.5,-0.5C 716.167,0.833333 716.833,0.833333 717.5,-0.5C 717.833,-0.5 718.167,-0.5 718.5,-0.5C 719.548,1.93268 720.214,1.93268 720.5,-0.5C 720.833,-0.5 721.167,-0.5 721.5,-0.5C 722.167,0.833333 722.833,0.833333 723.5,-0.5C 723.833,-0.5 724.167,-0.5 724.5,-0.5C 725.548,1.93268 726.214,1.93268 726.5,-0.5C 726.833,-0.5 727.167,-0.5 727.5,-0.5C 728.167,0.833333 728.833,0.833333 729.5,-0.5C 729.833,-0.5 730.167,-0.5 730.5,-0.5C 731.548,1.93268 732.214,1.93268 732.5,-0.5C 732.833,-0.5 733.167,-0.5 733.5,-0.5C 734.167,0.833333 734.833,0.833333 735.5,-0.5C 735.833,-0.5 736.167,-0.5 736.5,-0.5C 737.548,1.93268 738.214,1.93268 738.5,-0.5C 738.833,-0.5 739.167,-0.5 739.5,-0.5C 740.167,0.833333 740.833,0.833333 741.5,-0.5C 741.833,-0.5 742.167,-0.5 742.5,-0.5C 743.548,1.93268 744.214,1.93268 744.5,-0.5C 744.833,-0.5 745.167,-0.5 745.5,-0.5C 746.167,0.833333 746.833,0.833333 747.5,-0.5C 747.833,-0.5 748.167,-0.5 748.5,-0.5C 749.548,1.93268 750.214,1.93268 750.5,-0.5C 750.833,-0.5 751.167,-0.5 751.5,-0.5C 752.167,0.833333 752.833,0.833333 753.5,-0.5C 753.833,-0.5 754.167,-0.5 754.5,-0.5C 755.548,1.93268 756.214,1.93268 756.5,-0.5C 756.833,-0.5 757.167,-0.5 757.5,-0.5C 758.167,0.833333 758.833,0.833333 759.5,-0.5C 759.833,-0.5 760.167,-0.5 760.5,-0.5C 761.548,1.93268 762.214,1.93268 762.5,-0.5C 762.833,-0.5 763.167,-0.5 763.5,-0.5C 764.167,0.833333 764.833,0.833333 765.5,-0.5C 765.833,-0.5 766.167,-0.5 766.5,-0.5C 767.548,1.93268 768.214,1.93268 768.5,-0.5C 768.833,-0.5 769.167,-0.5 769.5,-0.5C 770.167,0.833333 770.833,0.833333 771.5,-0.5C 771.833,-0.5 772.167,-0.5 772.5,-0.5C 773.548,1.93268 774.214,1.93268 774.5,-0.5C 774.833,-0.5 775.167,-0.5 775.5,-0.5C 776.167,0.833333 776.833,0.833333 777.5,-0.5C 777.833,-0.5 778.167,-0.5 778.5,-0.5C 779.548,1.93268 780.214,1.93268 780.5,-0.5C 780.833,-0.5 781.167,-0.5 781.5,-0.5C 782.167,0.833333 782.833,0.833333 783.5,-0.5C 783.833,-0.5 784.167,-0.5 784.5,-0.5C 785.548,1.93268 786.214,1.93268 786.5,-0.5C 786.833,-0.5 787.167,-0.5 787.5,-0.5C 788.172,0.267389 789.005,0.934056 790,1.5C 791.813,1.40658 793.646,1.07325 795.5,0.5C 797.557,2.53107 799.39,2.53107 801,0.5C 802.741,1.75766 804.574,2.75766 806.5,3.5C 807.29,4.40128 808.29,5.06795 809.5,5.5C 809.842,6.33825 810.508,6.67158 811.5,6.5C 813.815,9.85618 816.482,12.1895 819.5,13.5C 820.263,14.2679 821.263,14.7679 822.5,15C 820.068,16.0875 820.402,16.5875 823.5,16.5C 823.413,19.5983 823.913,19.9316 825,17.5C 825.949,19.0931 827.115,20.4264 828.5,21.5C 829.855,23.9289 831.522,25.2623 833.5,25.5C 833.369,26.2389 833.536,26.9056 834,27.5C 834.977,26.2264 835.811,26.2264 836.5,27.5C 835.167,27.8333 835.167,28.1667 836.5,28.5C 836.842,29.3382 837.508,29.6716 838.5,29.5C 838.918,30.2216 839.584,30.7216 840.5,31C 839.288,32.1068 839.621,32.6068 841.5,32.5C 841.953,33.4584 842.619,34.2917 843.5,35C 842.16,37.1785 842.493,37.6785 844.5,36.5C 844.954,44.7144 845.62,53.0477 846.5,61.5C 846.5,61.8333 846.5,62.1667 846.5,62.5C 845.167,64.8333 845.167,67.1667 846.5,69.5C 846.5,69.8333 846.5,70.1667 846.5,70.5C 845.167,80.5 845.167,90.5 846.5,100.5C 846.5,100.833 846.5,101.167 846.5,101.5C 845.989,111.125 844.989,120.792 843.5,130.5C 842.659,131.926 841.659,133.26 840.5,134.5C 839.833,134.5 839.5,134.833 839.5,135.5C 838.167,136.833 836.833,138.167 835.5,139.5C 835.167,138.167 834.833,138.167 834.5,139.5C 832.162,141.508 830.162,143.841 828.5,146.5C 824.839,149.129 821.172,151.796 817.5,154.5C 816.122,155.545 815.122,156.878 814.5,158.5C 813.883,158.389 813.383,158.056 813,157.5C 809.888,161.298 806.055,163.964 801.5,165.5C 790.328,166.208 778.661,166.542 766.5,166.5C 766.167,165.167 765.833,165.167 765.5,166.5C 695.497,167.017 625.831,167.017 556.5,166.5C 556.167,165.167 555.833,165.167 555.5,166.5C 527.203,165.887 499.536,165.887 472.5,166.5C 472.167,165.167 471.833,165.167 471.5,166.5C 470.5,166.5 469.5,166.5 468.5,166.5C 468.167,165.167 467.833,165.167 467.5,166.5C 464.006,167.495 460.339,167.495 456.5,166.5C 456.167,165.167 455.833,165.167 455.5,166.5C 453.833,166.5 452.167,166.5 450.5,166.5C 450.167,165.167 449.833,165.167 449.5,166.5C 447.833,166.5 446.167,166.5 444.5,166.5C 444.167,165.167 443.833,165.167 443.5,166.5C 441.833,166.5 440.167,166.5 438.5,166.5C 438.167,165.167 437.833,165.167 437.5,166.5C 426.167,166.5 414.833,166.5 403.5,166.5C 403.167,165.167 402.833,165.167 402.5,166.5C 400.833,166.5 399.167,166.5 397.5,166.5C 397.167,165.167 396.833,165.167 396.5,166.5C 394.833,166.5 393.167,166.5 391.5,166.5C 391.167,165.167 390.833,165.167 390.5,166.5C 387.5,166.5 384.5,166.5 381.5,166.5C 381.167,165.167 380.833,165.167 380.5,166.5C 270.924,166.258 162.258,166.258 54.5,166.5C 52.3104,165.456 50.1437,165.456 48,166.5C 45.9097,165.206 43.9097,164.206 42,163.5C 41.6667,163.833 41.3333,164.167 41,164.5C 36.9825,162.692 33.4825,159.692 30.5,155.5C 24.8949,150.834 19.5616,146.5 14.5,142.5C 13.8333,141.167 12.8333,140.167 11.5,139.5C 9.5,137.833 7.5,136.167 5.5,134.5C 3.09784,132.049 1.43117,128.549 0.5,124C 0.574262,98.1856 0.574262,72.019 0.5,45.5C 1.21611,43.4437 1.88278,41.277 2.5,39C 1.36589,37.984 1.69923,37.3173 3.5,37C 3.16667,36.6667 2.83333,36.3333 2.5,36C 3.46014,34.5806 4.29347,33.0806 5,31.5C 6.15902,32.566 6.99236,32.2327 7.5,30.5C 8.5,29.5 9.5,28.5 10.5,27.5C 11.3149,26.5707 12.1482,25.5707 13,24.5C 14.1068,25.7119 14.6068,25.3786 14.5,23.5C 15.4916,23.6716 16.1583,23.3382 16.5,22.5C 17.2216,22.0825 17.7216,21.4158 18,20.5C 20.0048,21.0317 21.1714,20.0317 21.5,17.5C 23.0744,17.0629 24.2411,16.0629 25,14.5C 25.3333,14.8333 25.6667,15.1667 26,15.5C 27.7398,14.2842 28.7398,12.6175 29,10.5C 29.6667,11.8333 30.3333,11.8333 31,10.5C 31.3589,7.45574 32.0255,7.12241 33,9.5C 33.6667,8.16667 34.3333,6.83333 35,5.5C 35.9745,7.87759 36.6411,7.54426 37,4.5C 37.3333,4.83333 37.6667,5.16667 38,5.5C 39.3513,3.98101 40.8513,2.64768 42.5,1.5C 45.4059,0.36022 48.2392,0.36022 51,1.5C 51.9947,0.934056 52.828,0.267389 53.5,-0.5 Z"/></g>
<g><path style="opacity:0.043" fill="#00fffe" d="M 806.5,2.5 C 805.833,1.16667 805.833,1.16667 806.5,2.5 Z"/></g>
<g><path style="opacity:0.043" fill="#00fffe" d="M 37.5,2.5 C 38.8333,3.16667 38.8333,3.16667 37.5,2.5 Z"/></g>
<g><path style="opacity:0.043" fill="#00fffe" d="M 806.5,2.5 C 807.833,3.16667 807.833,3.16667 806.5,2.5 Z"/></g>
<g><path style="opacity:0.043" fill="#00fffe" d="M 809.5,4.5 C 810.833,5.16667 810.833,5.16667 809.5,4.5 Z"/></g>
<g><path style="opacity:0.043" fill="#00fffe" d="M 811.5,5.5 C 812.833,6.16667 812.833,6.16667 811.5,5.5 Z"/></g>
<g><path style="opacity:0.043" fill="#00fffe" d="M 819.5,12.5 C 820.833,13.1667 820.833,13.1667 819.5,12.5 Z"/></g>
<g><path style="opacity:0.043" fill="#00fffe" d="M 823.5,15.5 C 824.833,16.1667 824.833,16.1667 823.5,15.5 Z"/></g>
<g><path style="opacity:0.043" fill="#00fffe" d="M 21.5,17.5 C 20.8333,16.1667 20.8333,16.1667 21.5,17.5 Z"/></g>
<g><path style="opacity:0.043" fill="#00fffe" d="M 828.5,20.5 C 829.833,21.1667 829.833,21.1667 828.5,20.5 Z"/></g>
<g><path style="opacity:0.043" fill="#00fffe" d="M 16.5,22.5 C 15.8333,21.1667 15.8333,21.1667 16.5,22.5 Z"/></g>
<g><path style="opacity:0.043" fill="#00fffe" d="M 831.5,21.5 C 832.833,22.1667 832.833,22.1667 831.5,21.5 Z"/></g>
<g><path style="opacity:0.043" fill="#00fffe" d="M 14.5,23.5 C 13.8333,22.1667 13.8333,22.1667 14.5,23.5 Z"/></g>
<g><path style="opacity:0.326" fill="#02fbff" d="M 833.5,40.5 C 833.436,41.3652 833.103,42.3652 832.5,43.5C 828.436,57.024 823.769,70.3574 818.5,83.5C 823.766,96.6316 828.433,109.965 832.5,123.5C 832.557,124.609 832.89,125.609 833.5,126.5C 822.987,136.509 811.987,146.009 800.5,155C 674.666,155.294 548.832,155.794 423,156.5C 297.168,155.794 171.334,155.294 45.5,155C 36.8333,147.667 28.1667,140.333 19.5,133C 16.5532,130.564 14.2199,127.731 12.5,124.5C 17.7247,111.025 22.7247,97.3581 27.5,83.5C 22.7247,69.6419 17.7247,55.9752 12.5,42.5C 14.2199,39.2689 16.5532,36.4356 19.5,34C 28.1667,26.6667 36.8333,19.3333 45.5,12C 171.334,11.7061 297.168,11.2061 423,10.5C 548.832,11.2061 674.666,11.7061 800.5,12C 811.987,20.9912 822.987,30.4912 833.5,40.5 Z"/></g>
<g><path style="opacity:0.043" fill="#00fffe" d="M 833.5,24.5 C 834.833,25.1667 834.833,25.1667 833.5,24.5 Z"/></g>
<g><path style="opacity:0.043" fill="#00fffe" d="M 10.5,27.5 C 9.83333,26.1667 9.83333,26.1667 10.5,27.5 Z"/></g>
<g><path style="opacity:0.043" fill="#00fffe" d="M 836.5,27.5 C 837.833,28.1667 837.833,28.1667 836.5,27.5 Z"/></g>
<g><path style="opacity:0.043" fill="#00fffe" d="M 838.5,28.5 C 839.833,29.1667 839.833,29.1667 838.5,28.5 Z"/></g>
<g><path style="opacity:0.043" fill="#00fffe" d="M 7.5,30.5 C 6.83333,29.1667 6.83333,29.1667 7.5,30.5 Z"/></g>
<g><path style="opacity:0.043" fill="#00fffe" d="M 841.5,31.5 C 842.833,32.1667 842.833,32.1667 841.5,31.5 Z"/></g>
<g><path style="opacity:0.043" fill="#00fffe" d="M 844.5,35.5 C 845.833,36.1667 845.833,36.1667 844.5,35.5 Z"/></g>
<g><path style="opacity:0.929" fill="#9cfffe" d="M 833.5,40.5 C 834.833,69.1667 834.833,97.8333 833.5,126.5C 832.89,125.609 832.557,124.609 832.5,123.5C 833.833,96.8333 833.833,70.1667 832.5,43.5C 833.103,42.3652 833.436,41.3652 833.5,40.5 Z"/></g>
<g><path style="opacity:1" fill="#fbfffe" d="M 12.5,42.5 C 17.7247,55.9752 22.7247,69.6419 27.5,83.5C 22.7247,97.3581 17.7247,111.025 12.5,124.5C 12.5,97.1667 12.5,69.8333 12.5,42.5 Z"/></g>
<g><path style="opacity:1" fill="#fbfffe" d="M 832.5,43.5 C 833.833,70.1667 833.833,96.8333 832.5,123.5C 828.433,109.965 823.766,96.6316 818.5,83.5C 823.769,70.3574 828.436,57.024 832.5,43.5 Z"/></g>
<g><path style="opacity:0.043" fill="#00fffe" d="M -0.5,44.5 C 0.166667,44.5 0.5,44.8333 0.5,45.5C 0.166667,45.1667 -0.166667,44.8333 -0.5,44.5 Z"/></g>
<g><path style="opacity:0.043" fill="#00fffe" d="M 846.5,125.5 C 846.5,125.833 846.5,126.167 846.5,126.5C 845.83,126.019 845.83,125.685 846.5,125.5 Z"/></g>
<g><path style="opacity:0.043" fill="#00fffe" d="M 843.5,130.5 C 844.833,131.167 844.833,131.167 843.5,130.5 Z"/></g>
<g><path style="opacity:0.043" fill="#00fffe" d="M 843.5,133.5 C 844.833,134.167 844.833,134.167 843.5,133.5 Z"/></g>
<g><path style="opacity:0.043" fill="#00fffe" d="M 5.5,134.5 C 4.83333,135.167 4.83333,135.167 5.5,134.5 Z"/></g>
<g><path style="opacity:0.043" fill="#00fffe" d="M 840.5,134.5 C 841.833,135.167 841.833,135.167 840.5,134.5 Z"/></g>
<g><path style="opacity:0.043" fill="#00fffe" d="M 839.5,135.5 C 839.833,135.5 840.167,135.5 840.5,135.5C 840.315,136.17 839.981,136.17 839.5,135.5 Z"/></g>
<g><path style="opacity:0.043" fill="#00fffe" d="M 7.5,138.5 C 8.83333,139.167 8.83333,139.167 7.5,138.5 Z"/></g>
<g><path style="opacity:0.043" fill="#00fffe" d="M 838.5,138.5 C 839.833,139.167 839.833,139.167 838.5,138.5 Z"/></g>
<g><path style="opacity:0.043" fill="#00fffe" d="M 11.5,139.5 C 10.8333,140.167 10.8333,140.167 11.5,139.5 Z"/></g>
<g><path style="opacity:0.043" fill="#00fffe" d="M 834.5,139.5 C 834.833,139.5 835.167,139.5 835.5,139.5C 835.5,139.833 835.5,140.167 835.5,140.5C 835.167,140.167 834.833,139.833 834.5,139.5 Z"/></g>
<g><path style="opacity:0.043" fill="#00fffe" d="M 10.5,140.5 C 9.83333,141.167 9.83333,141.167 10.5,140.5 Z"/></g>
<g><path style="opacity:0.043" fill="#00fffe" d="M 835.5,140.5 C 836.833,141.167 836.833,141.167 835.5,140.5 Z"/></g>
<g><path style="opacity:0.043" fill="#00fffe" d="M 11.5,141.5 C 12.8333,142.167 12.8333,142.167 11.5,141.5 Z"/></g>
<g><path style="opacity:0.043" fill="#00fffe" d="M 14.5,142.5 C 13.8333,143.167 13.8333,143.167 14.5,142.5 Z"/></g>
<g><path style="opacity:0.043" fill="#00fffe" d="M 833.5,142.5 C 834.833,143.167 834.833,143.167 833.5,142.5 Z"/></g>
<g><path style="opacity:0.043" fill="#00fffe" d="M 831.5,143.5 C 832.833,144.167 832.833,144.167 831.5,143.5 Z"/></g>
<g><path style="opacity:0.043" fill="#00fffe" d="M 15.5,146.5 C 16.8333,147.167 16.8333,147.167 15.5,146.5 Z"/></g>
<g><path style="opacity:0.043" fill="#00fffe" d="M 828.5,146.5 C 829.833,147.167 829.833,147.167 828.5,146.5 Z"/></g>
<g><path style="opacity:0.043" fill="#00fffe" d="M 19.5,148.5 C 18.8333,147.167 18.8333,147.167 19.5,148.5 Z"/></g>
<g><path style="opacity:0.043" fill="#00fffe" d="M 19.5,148.5 C 20.8333,149.167 20.8333,149.167 19.5,148.5 Z"/></g>
<g><path style="opacity:0.043" fill="#00fffe" d="M 826.5,148.5 C 827.833,149.167 827.833,149.167 826.5,148.5 Z"/></g>
<g><path style="opacity:0.043" fill="#00fffe" d="M 21.5,150.5 C 22.8333,151.167 22.8333,151.167 21.5,150.5 Z"/></g>
<g><path style="opacity:0.043" fill="#00fffe" d="M 24.5,152.5 C 23.8333,151.167 23.8333,151.167 24.5,152.5 Z"/></g>
<g><path style="opacity:0.043" fill="#00fffe" d="M 24.5,152.5 C 25.8333,153.167 25.8333,153.167 24.5,152.5 Z"/></g>
<g><path style="opacity:0.043" fill="#00fffe" d="M 821.5,153.5 C 822.833,154.167 822.833,154.167 821.5,153.5 Z"/></g>
<g><path style="opacity:0.043" fill="#00fffe" d="M 817.5,154.5 C 818.833,155.167 818.833,155.167 817.5,154.5 Z"/></g>
<g><path style="opacity:0.043" fill="#00fffe" d="M 27.5,155.5 C 28.8333,156.167 28.8333,156.167 27.5,155.5 Z"/></g>
<g><path style="opacity:0.043" fill="#00fffe" d="M 30.5,155.5 C 29.8333,156.167 29.8333,156.167 30.5,155.5 Z"/></g>
<g><path style="opacity:0.043" fill="#00fffe" d="M 31.5,158.5 C 30.8333,157.167 30.8333,157.167 31.5,158.5 Z"/></g>
<g><path style="opacity:0.043" fill="#00fffe" d="M 31.5,158.5 C 32.8333,159.167 32.8333,159.167 31.5,158.5 Z"/></g>
<g><path style="opacity:0.043" fill="#00fffe" d="M 814.5,158.5 C 815.833,159.167 815.833,159.167 814.5,158.5 Z"/></g>
<g><path style="opacity:0.043" fill="#00fffe" d="M 812.5,160.5 C 813.833,161.167 813.833,161.167 812.5,160.5 Z"/></g>
<g><path style="opacity:0.043" fill="#00fffe" d="M 36.5,162.5 C 37.8333,163.167 37.8333,163.167 36.5,162.5 Z"/></g>
<g><path style="opacity:0.043" fill="#00fffe" d="M 807.5,163.5 C 808.833,164.167 808.833,164.167 807.5,163.5 Z"/></g>
<g><path style="opacity:0.043" fill="#00fffe" d="M 38.5,164.5 C 39.8333,165.167 39.8333,165.167 38.5,164.5 Z"/></g>
<g><path style="opacity:0.043" fill="#00fffe" d="M 801.5,165.5 C 802.833,166.167 802.833,166.167 801.5,165.5 Z"/></g>
<g><path style="opacity:0.043" fill="#00fffe" d="M 804.5,165.5 C 805.833,166.167 805.833,166.167 804.5,165.5 Z"/></g>
<g><path style="opacity:0.043" fill="#00fffe" d="M 54.5,166.5 C 53.8333,167.167 53.8333,167.167 54.5,166.5 Z"/></g>
<g><path style="opacity:0.043" fill="#00fffe" d="M 380.5,166.5 C 380.833,166.5 381.167,166.5 381.5,166.5C 381.315,167.17 380.981,167.17 380.5,166.5 Z"/></g>
<g><path style="opacity:0.043" fill="#00fffe" d="M 390.5,166.5 C 390.833,166.5 391.167,166.5 391.5,166.5C 391.315,167.17 390.981,167.17 390.5,166.5 Z"/></g>
<g><path style="opacity:0.043" fill="#00fffe" d="M 396.5,166.5 C 396.833,166.5 397.167,166.5 397.5,166.5C 397.315,167.17 396.981,167.17 396.5,166.5 Z"/></g>
<g><path style="opacity:0.043" fill="#00fffe" d="M 402.5,166.5 C 402.833,166.5 403.167,166.5 403.5,166.5C 403.315,167.17 402.981,167.17 402.5,166.5 Z"/></g>
<g><path style="opacity:0.043" fill="#00fffe" d="M 437.5,166.5 C 437.833,166.5 438.167,166.5 438.5,166.5C 438.315,167.17 437.981,167.17 437.5,166.5 Z"/></g>
<g><path style="opacity:0.043" fill="#00fffe" d="M 443.5,166.5 C 443.833,166.5 444.167,166.5 444.5,166.5C 444.315,167.17 443.981,167.17 443.5,166.5 Z"/></g>
<g><path style="opacity:0.043" fill="#00fffe" d="M 449.5,166.5 C 449.833,166.5 450.167,166.5 450.5,166.5C 450.315,167.17 449.981,167.17 449.5,166.5 Z"/></g>
<g><path style="opacity:0.043" fill="#00fffe" d="M 455.5,166.5 C 455.833,166.5 456.167,166.5 456.5,166.5C 456.315,167.17 455.981,167.17 455.5,166.5 Z"/></g>
<g><path style="opacity:0.043" fill="#00fffe" d="M 467.5,166.5 C 467.833,166.5 468.167,166.5 468.5,166.5C 468.315,167.17 467.981,167.17 467.5,166.5 Z"/></g>
<g><path style="opacity:0.043" fill="#00fffe" d="M 471.5,166.5 C 471.833,166.5 472.167,166.5 472.5,166.5C 472.315,167.17 471.981,167.17 471.5,166.5 Z"/></g>
<g><path style="opacity:0.043" fill="#00fffe" d="M 555.5,166.5 C 555.833,166.5 556.167,166.5 556.5,166.5C 556.315,167.17 555.981,167.17 555.5,166.5 Z"/></g>
<g><path style="opacity:0.043" fill="#00fffe" d="M 765.5,166.5 C 765.833,166.5 766.167,166.5 766.5,166.5C 766.315,167.17 765.981,167.17 765.5,166.5 Z"/></g>
<g><path style="opacity:0.043" fill="#00fffe" d="M 75.5,168.5 C 74.8333,167.167 74.8333,167.167 75.5,168.5 Z"/></g>
<g><path style="opacity:0.043" fill="#00fffe" d="M 351.5,168.5 C 350.833,167.167 350.833,167.167 351.5,168.5 Z"/></g>
<g><path style="opacity:0.043" fill="#00fffe" d="M 362.5,168.5 C 361.833,167.167 361.833,167.167 362.5,168.5 Z"/></g>
<g><path style="opacity:0.043" fill="#00fffe" d="M 366.5,168.5 C 365.833,167.167 365.833,167.167 366.5,168.5 Z"/></g>
<g><path style="opacity:0.043" fill="#00fffe" d="M 384.5,168.5 C 383.833,167.167 383.833,167.167 384.5,168.5 Z"/></g>
<g><path style="opacity:0.043" fill="#00fffe" d="M 418.5,168.5 C 417.833,167.167 417.833,167.167 418.5,168.5 Z"/></g>
<g><path style="opacity:0.043" fill="#00fffe" d="M 431.5,168.5 C 430.833,167.167 430.833,167.167 431.5,168.5 Z"/></g>
<g><path style="opacity:0.043" fill="#00fffe" d="M 459.5,168.5 C 458.833,167.167 458.833,167.167 459.5,168.5 Z"/></g>
<g><path style="opacity:0.043" fill="#00fffe" d="M 465.5,168.5 C 464.833,167.167 464.833,167.167 465.5,168.5 Z"/></g>
<g><path style="opacity:0.043" fill="#00fffe" d="M 474.5,168.5 C 473.833,167.167 473.833,167.167 474.5,168.5 Z"/></g>
<g><path style="opacity:0.043" fill="#00fffe" d="M 479.5,168.5 C 478.833,167.167 478.833,167.167 479.5,168.5 Z"/></g>
<g><path style="opacity:0.043" fill="#00fffe" d="M 485.5,168.5 C 484.833,167.167 484.833,167.167 485.5,168.5 Z"/></g>
<g><path style="opacity:0.043" fill="#00fffe" d="M 496.5,168.5 C 495.833,167.167 495.833,167.167 496.5,168.5 Z"/></g>
<g><path style="opacity:0.043" fill="#00fffe" d="M 514.5,168.5 C 513.833,167.167 513.833,167.167 514.5,168.5 Z"/></g>
<g><path style="opacity:0.043" fill="#00fffe" d="M 519.5,168.5 C 518.833,167.167 518.833,167.167 519.5,168.5 Z"/></g>
<g><path style="opacity:0.043" fill="#00fffe" d="M 569.5,168.5 C 568.833,167.167 568.833,167.167 569.5,168.5 Z"/></g>
<g><path style="opacity:0.043" fill="#00fffe" d="M 582.5,168.5 C 581.833,167.167 581.833,167.167 582.5,168.5 Z"/></g>
<g><path style="opacity:0.043" fill="#00fffe" d="M 589.5,168.5 C 588.833,167.167 588.833,167.167 589.5,168.5 Z"/></g>
</svg>
