<?xml version="1.0" encoding="UTF-8"?>
<!DOCTYPE svg PUBLIC "-//W3C//DTD SVG 1.1//EN" "http://www.w3.org/Graphics/SVG/1.1/DTD/svg11.dtd">
<svg xmlns="http://www.w3.org/2000/svg" version="1.1" width="1000px" height="1000px" style="shape-rendering:geometricPrecision; text-rendering:geometricPrecision; image-rendering:optimizeQuality; fill-rule:evenodd; clip-rule:evenodd" xmlns:xlink="http://www.w3.org/1999/xlink">
<g><path style="opacity:1" fill="#b6ceff" d="M 627.5,50.5 C 620.415,49.353 613.581,47.6863 607,45.5C 605.365,47.6675 603.532,48.8341 601.5,49C 603.443,52.7359 605.943,53.2359 609,50.5C 609.238,55.3902 609.905,55.3902 611,50.5C 611.789,53.8001 610.956,56.6335 608.5,59C 613.179,61.4832 618.012,61.9832 623,60.5C 624.275,63.0448 626.108,65.0448 628.5,66.5C 598.457,57.5477 567.79,51.7144 536.5,49C 535.529,43.9283 535.195,38.7616 535.5,33.5C 566.975,35.5212 597.642,41.1879 627.5,50.5 Z"/></g>
<g><path style="opacity:1" fill="#b9d3ff" d="M 627.5,50.5 C 749.218,86.4225 842.052,159.089 906,268.5C 914.634,284.101 922.467,300.101 929.5,316.5C 925.032,320.257 920.032,321.924 914.5,321.5C 893.069,272.097 864.069,227.764 827.5,188.5C 822.5,181.5 816.5,175.5 809.5,170.5C 756.947,122.064 696.613,87.3971 628.5,66.5C 626.108,65.0448 624.275,63.0448 623,60.5C 618.012,61.9832 613.179,61.4832 608.5,59C 610.956,56.6335 611.789,53.8001 611,50.5C 609.905,55.3902 609.238,55.3902 609,50.5C 605.943,53.2359 603.443,52.7359 601.5,49C 603.532,48.8341 605.365,47.6675 607,45.5C 613.581,47.6863 620.415,49.353 627.5,50.5 Z"/></g>
<g><path style="opacity:1" fill="#aecfff" d="M 478.5,57.5 C 481.966,58.109 482.966,59.9423 481.5,63C 476.289,63.5464 475.289,61.713 478.5,57.5 Z"/></g>
<g><path style="opacity:1" fill="#adcdff" d="M 487.5,57.5 C 492.041,57.8152 493.041,59.6485 490.5,63C 487.888,63.7414 486.222,62.7414 485.5,60C 486.381,59.2917 487.047,58.4584 487.5,57.5 Z"/></g>
<g><path style="opacity:1" fill="#afcfff" d="M 507.5,57.5 C 512.158,57.653 513.158,59.4863 510.5,63C 506.537,63.1177 505.537,61.2843 507.5,57.5 Z"/></g>
<g><path style="opacity:1" fill="#b1cfff" d="M 517.5,57.5 C 521.35,57.7007 522.35,59.5341 520.5,63C 516.537,63.1177 515.537,61.2843 517.5,57.5 Z"/></g>
<g><path style="opacity:1" fill="#acceff" d="M 467.5,58.5 C 472.159,58.0146 473.492,59.848 471.5,64C 467.266,64.267 465.933,62.4336 467.5,58.5 Z"/></g>
<g><path style="opacity:0.992" fill="#aacbff" d="M 496.5,57.5 C 498.199,57.3398 499.866,57.5065 501.5,58C 502.813,61.692 501.48,63.3587 497.5,63C 495.17,61.5125 494.836,59.6791 496.5,57.5 Z"/></g>
<g><path style="opacity:1" fill="#accdff" d="M 526.5,58.5 C 530.909,57.899 532.242,59.5657 530.5,63.5C 529.167,64.8333 527.833,64.8333 526.5,63.5C 525.334,61.8327 525.334,60.166 526.5,58.5 Z"/></g>
<g><path style="opacity:1" fill="#b0cfff" d="M 537.5,58.5 C 542.561,60.5092 542.727,62.8425 538,65.5C 535.005,63.2425 534.839,60.9092 537.5,58.5 Z"/></g>
<g><path style="opacity:0.871" fill="#acceff" d="M 547.5,59.5 C 551.211,61.5416 551.378,63.875 548,66.5C 543.601,64.3204 543.434,61.987 547.5,59.5 Z"/></g>
<g><path style="opacity:1" fill="#adcbff" d="M 448.5,60.5 C 454.175,60.8597 454.842,62.8597 450.5,66.5C 447.61,65.1627 446.943,63.1627 448.5,60.5 Z"/></g>
<g><path style="opacity:0.871" fill="#aacdff" d="M 459.5,58.5 C 464.429,60.5721 464.596,62.9054 460,65.5C 455.601,63.3204 455.434,60.987 459.5,58.5 Z"/></g>
<g><path style="opacity:1" fill="#abcbff" d="M 438.5,61.5 C 443.159,61.0146 444.492,62.848 442.5,67C 438.266,67.267 436.933,65.4336 438.5,61.5 Z"/></g>
<g><path style="opacity:1" fill="#aecaff" d="M 429.5,62.5 C 433.068,62.7593 434.401,64.7593 433.5,68.5C 428.74,68.7993 427.406,66.7993 429.5,62.5 Z"/></g>
<g><path style="opacity:1" fill="#adcfff" d="M 555.5,61.5 C 561.175,61.8597 561.842,63.8597 557.5,67.5C 554.61,66.1627 553.943,64.1627 555.5,61.5 Z"/></g>
<g><path style="opacity:1" fill="#add2ff" d="M 565.5,62.5 C 570.041,62.8152 571.041,64.6485 568.5,68C 564.537,68.1177 563.537,66.2843 565.5,62.5 Z"/></g>
<g><path style="opacity:1" fill="#abcaff" d="M 419.5,64.5 C 425.175,64.8597 425.842,66.8597 421.5,70.5C 418.61,69.1627 417.943,67.1627 419.5,64.5 Z"/></g>
<g><path style="opacity:1" fill="#abd1ff" d="M 574.5,64.5 C 578.909,63.899 580.242,65.5657 578.5,69.5C 574.317,70.3087 572.984,68.642 574.5,64.5 Z"/></g>
<g><path style="opacity:1" fill="#aecdff" d="M 409.5,66.5 C 412.045,66.1505 414.045,66.9838 415.5,69C 413.966,71.3807 411.966,71.8807 409.5,70.5C 408.637,69.2736 408.637,67.9403 409.5,66.5 Z"/></g>
<g><path style="opacity:1" fill="#adcaff" d="M 400.5,68.5 C 404.138,67.7366 405.638,69.0699 405,72.5C 400.415,74.4126 398.915,73.0793 400.5,68.5 Z"/></g>
<g><path style="opacity:0.059" fill="#a6cdff" d="M 585.5,65.5 C 588.999,66.1336 589.999,67.9669 588.5,71C 585.763,72.0798 584.096,71.2464 583.5,68.5C 583.942,67.2613 584.609,66.2613 585.5,65.5 Z"/></g>
<g><path style="opacity:0.911" fill="#aaceff" d="M 593.5,68.5 C 595.167,68.5 596.833,68.5 598.5,68.5C 598.985,73.1585 597.152,74.4919 593,72.5C 592.421,71.0715 592.588,69.7382 593.5,68.5 Z"/></g>
<g><path style="opacity:1" fill="#adcbff" d="M 391.5,70.5 C 396.158,70.653 397.158,72.4863 394.5,76C 390.537,76.1177 389.537,74.2843 391.5,70.5 Z"/></g>
<g><path style="opacity:1" fill="#adcbff" d="M 382.5,72.5 C 386.013,73.0282 387.013,74.8615 385.5,78C 380.289,78.5464 379.289,76.713 382.5,72.5 Z"/></g>
<g><path style="opacity:0.537" fill="#a6ceff" d="M 602.5,70.5 C 608.936,70.1713 609.936,72.1713 605.5,76.5C 603.077,75.2882 602.077,73.2882 602.5,70.5 Z"/></g>
<g><path style="opacity:1" fill="#76a7ff" d="M 503.5,74.5 C 512.533,74.2841 521.533,74.6175 530.5,75.5C 533.166,75.98 535.666,76.98 538,78.5C 538.333,78.1667 538.667,77.8333 539,77.5C 538.787,79.7506 539.787,81.7506 542,83.5C 542.915,82.6721 543.581,81.6721 544,80.5C 544.9,81.7702 546.066,82.7702 547.5,83.5C 546.738,83.9106 545.738,84.0773 544.5,84C 544.957,84.414 545.291,84.914 545.5,85.5C 543.257,86.4742 540.924,86.8076 538.5,86.5C 531.476,86.5649 524.476,86.2316 517.5,85.5C 511.021,84.5093 504.354,84.176 497.5,84.5C 498.556,83.1235 499.889,82.2902 501.5,82C 500.549,81.2825 500.383,80.4491 501,79.5C 502.279,81.9371 503.779,82.4371 505.5,81C 502.833,79.6667 502.833,78.3333 505.5,77C 504.619,76.2917 503.953,75.4584 503.5,74.5 Z"/></g>
<g><path style="opacity:0.537" fill="#a5d1fe" d="M 621.5,75.5 C 626.828,75.0358 628.161,76.8691 625.5,81C 621.272,81.2717 619.938,79.4383 621.5,75.5 Z"/></g>
<g><path style="opacity:1" fill="#aacaff" d="M 372.5,75.5 C 376.903,74.8933 378.236,76.56 376.5,80.5C 371.733,81.8987 370.4,80.232 372.5,75.5 Z"/></g>
<g><path style="opacity:1" fill="#a4c0ff" d="M 236.5,132.5 C 235.496,131.317 234.662,129.984 234,128.5C 232.691,130.891 231.691,130.891 231,128.5C 229.927,129.28 228.76,129.113 227.5,128C 229.891,127.309 229.891,126.309 227.5,125C 228.167,124.667 228.833,124.333 229.5,124C 228.167,123 228.167,122 229.5,121C 229.167,120.833 228.833,120.667 228.5,120.5C 227.629,124.46 225.962,125.127 223.5,122.5C 247.526,105.055 273.026,89.7217 300,76.5C 303.778,80.866 305.944,85.6993 306.5,91C 281.714,102.67 258.381,116.504 236.5,132.5 Z"/></g>
<g><path style="opacity:0.745" fill="#82b2ff" d="M 456.5,76.5 C 452.353,77.7399 448.019,78.7399 443.5,79.5C 442.725,81.4753 441.391,82.3087 439.5,82C 440.167,81.3333 440.833,80.6667 441.5,80C 439.527,79.5045 437.527,79.3379 435.5,79.5C 442.286,77.941 449.286,76.941 456.5,76.5 Z"/></g>
<g><path style="opacity:0.149" fill="#a1ccff" d="M 613.5,72.5 C 617.35,72.7007 618.35,74.5341 616.5,78C 611.289,78.5464 610.289,76.713 613.5,72.5 Z"/></g>
<g><path style="opacity:1" fill="#7eabff" d="M 530.5,75.5 C 555.565,77.122 580.232,81.122 604.5,87.5C 603.602,88.1577 602.602,88.8243 601.5,89.5C 602.758,88.9836 603.758,89.6503 604.5,91.5C 603.606,93.5769 602.606,95.5769 601.5,97.5C 580.873,92.672 559.873,89.0054 538.5,86.5C 540.924,86.8076 543.257,86.4742 545.5,85.5C 545.291,84.914 544.957,84.414 544.5,84C 545.738,84.0773 546.738,83.9106 547.5,83.5C 546.066,82.7702 544.9,81.7702 544,80.5C 543.581,81.6721 542.915,82.6721 542,83.5C 539.787,81.7506 538.787,79.7506 539,77.5C 538.667,77.8333 538.333,78.1667 538,78.5C 535.666,76.98 533.166,75.98 530.5,75.5 Z"/></g>
<g><path style="opacity:1" fill="#aecbff" d="M 363.5,78.5 C 364.833,78.5 366.167,78.5 367.5,78.5C 367.66,80.1992 367.494,81.8659 367,83.5C 362.633,84.5748 361.466,82.9081 363.5,78.5 Z"/></g>
<g><path style="opacity:0.089" fill="#9ec7ff" d="M 631.5,79.5 C 632.601,78.4017 633.934,78.235 635.5,79C 636.946,81.4932 636.279,83.3265 633.5,84.5C 630.781,83.4236 630.114,81.7569 631.5,79.5 Z"/></g>
<g><path style="opacity:1" fill="#a9e3fe" d="M 631.5,79.5 C 636.833,80.5 636.833,81.5 631.5,82.5C 631.5,81.5 631.5,80.5 631.5,79.5 Z"/></g>
<g><path style="opacity:0.977" fill="#aac8ff" d="M 354.5,81.5 C 358.35,81.7007 359.35,83.5341 357.5,87C 352.722,87.0734 351.722,85.2401 354.5,81.5 Z"/></g>
<g><path style="opacity:1" fill="#a5d7fe" d="M 640.5,81.5 C 646.175,81.8597 646.842,83.8597 642.5,87.5C 639.61,86.1627 638.943,84.1627 640.5,81.5 Z"/></g>
<g><path style="opacity:1" fill="#6aa1ff" d="M 503.5,74.5 C 503.953,75.4584 504.619,76.2917 505.5,77C 502.833,78.3333 502.833,79.6667 505.5,81C 503.779,82.4371 502.279,81.9371 501,79.5C 500.383,80.4491 500.549,81.2825 501.5,82C 499.889,82.2902 498.556,83.1235 497.5,84.5C 491.974,84.1786 486.64,84.5119 481.5,85.5C 479.5,85.5 477.5,85.5 475.5,85.5C 471.629,85.185 467.962,85.5184 464.5,86.5C 428.354,89.6035 392.687,97.4368 357.5,110C 351.028,112.264 344.861,115.097 339,118.5C 336.356,115.891 334.189,112.891 332.5,109.5C 365.119,94.0901 399.452,84.0901 435.5,79.5C 437.527,79.3379 439.527,79.5045 441.5,80C 440.833,80.6667 440.167,81.3333 439.5,82C 441.391,82.3087 442.725,81.4753 443.5,79.5C 448.019,78.7399 452.353,77.7399 456.5,76.5C 472.111,74.8457 487.778,74.1791 503.5,74.5 Z"/></g>
<g><path style="opacity:0.102" fill="#91c1ff" d="M 481.5,85.5 C 486.64,84.5119 491.974,84.1786 497.5,84.5C 504.354,84.176 511.021,84.5093 517.5,85.5C 505.5,85.5 493.5,85.5 481.5,85.5 Z"/></g>
<g><path style="opacity:0.975" fill="#a9c8ff" d="M 345.5,84.5 C 349.35,84.7007 350.35,86.5341 348.5,90C 343.722,90.0734 342.722,88.2401 345.5,84.5 Z"/></g>
<g><path style="opacity:0.085" fill="#91c2ff" d="M 475.5,85.5 C 472.103,86.1982 468.603,86.8648 465,87.5C 464.601,87.2716 464.435,86.9382 464.5,86.5C 467.962,85.5184 471.629,85.185 475.5,85.5 Z"/></g>
<g><path style="opacity:0.745" fill="#9dc7ff" d="M 650.5,89.5 C 653.861,88.7968 654.194,87.4635 651.5,85.5C 650.817,85.8627 650.15,86.1961 649.5,86.5C 650.455,84.2901 651.955,83.9568 654,85.5C 655.075,88.5309 654.075,90.5309 651,91.5C 650.536,90.9056 650.369,90.2389 650.5,89.5 Z"/></g>
<g><path style="opacity:1" fill="#a9defe" d="M 650.5,89.5 C 648.618,88.779 648.285,87.779 649.5,86.5C 650.15,86.1961 650.817,85.8627 651.5,85.5C 654.194,87.4635 653.861,88.7968 650.5,89.5 Z"/></g>
<g><path style="opacity:1" fill="#89b0ff" d="M 604.5,87.5 C 626.721,93.2402 648.388,100.574 669.5,109.5C 670.099,112.168 671.766,114.002 674.5,115C 672.699,115.317 672.366,115.984 673.5,117C 673,117.5 672.5,118 672,118.5C 670.954,116.91 669.787,115.41 668.5,114C 667.668,113.312 667.002,113.479 666.5,114.5C 668.14,117.468 670.14,120.135 672.5,122.5C 649.427,112.365 625.761,104.032 601.5,97.5C 602.606,95.5769 603.606,93.5769 604.5,91.5C 603.758,89.6503 602.758,88.9836 601.5,89.5C 602.602,88.8243 603.602,88.1577 604.5,87.5 Z"/></g>
<g><path style="opacity:0.964" fill="#a8c8ff" d="M 335.5,88.5 C 339.909,87.899 341.242,89.5657 339.5,93.5C 335.317,94.3087 333.984,92.642 335.5,88.5 Z"/></g>
<g><path style="opacity:1" fill="#a5d6fe" d="M 660.5,87.5 C 664.457,89.63 664.457,91.63 660.5,93.5C 656.641,91.678 656.641,89.678 660.5,87.5 Z"/></g>
<g><path style="opacity:0.983" fill="#a7c7ff" d="M 327.5,91.5 C 331.35,91.7007 332.35,93.5341 330.5,97C 325.289,97.5464 324.289,95.713 327.5,91.5 Z"/></g>
<g><path style="opacity:1" fill="#a0d6fe" d="M 668.5,91.5 C 672.35,91.7007 673.35,93.5341 671.5,97C 666.676,97.1833 665.676,95.3499 668.5,91.5 Z"/></g>
<g><path style="opacity:0.975" fill="#a7c6ff" d="M 318.5,95.5 C 322.35,95.7007 323.35,97.5341 321.5,101C 316.676,101.183 315.676,99.3499 318.5,95.5 Z"/></g>
<g><path style="opacity:0.962" fill="#a7c8ff" d="M 309.5,99.5 C 313.225,99.5372 314.558,101.204 313.5,104.5C 308.733,105.899 307.4,104.232 309.5,99.5 Z"/></g>
<g><path style="opacity:1" fill="#86afff" d="M 530.5,104.5 C 530.631,105.239 530.464,105.906 530,106.5C 529.107,105.289 528.274,105.289 527.5,106.5C 528.183,109.461 529.016,109.795 530,107.5C 531.713,108.878 533.047,110.545 534,112.5C 534.667,109.833 535.333,109.833 536,112.5C 536.667,109.833 537.333,109.833 538,112.5C 538.667,109.833 539.333,109.833 540,112.5C 540.667,109.833 541.333,109.833 542,112.5C 542.667,109.833 543.333,109.833 544,112.5C 544.667,109.833 545.333,109.833 546,112.5C 546.805,110.099 547.638,110.266 548.5,113C 547.57,114.194 546.903,115.527 546.5,117C 548.029,118.582 548.529,120.415 548,122.5C 547.333,119.833 546.667,119.833 546,122.5C 543.847,119.51 542.514,116.51 542,113.5C 541.333,116.167 540.667,116.167 540,113.5C 539.333,116.167 538.667,116.167 538,113.5C 537.667,114.167 537.333,114.833 537,115.5C 536.29,114.027 535.124,113.36 533.5,113.5C 533.321,115.954 533.987,118.121 535.5,120C 535.257,120.902 534.923,121.735 534.5,122.5C 522.935,122.467 511.268,121.8 499.5,120.5C 494.9,121.443 490.233,121.777 485.5,121.5C 484.965,117.181 484.465,112.848 484,108.5C 483.326,107.422 482.326,106.755 481,106.5C 461.712,107.89 442.545,110.224 423.5,113.5C 422.375,112.652 422.375,111.652 423.5,110.5C 439.26,106.892 455.26,104.725 471.5,104C 491.24,103.18 510.907,103.347 530.5,104.5 Z"/></g>
<g><path style="opacity:0.97" fill="#a7c6ff" d="M 300.5,104.5 C 304.676,103.831 306.009,105.331 304.5,109C 302.866,109.494 301.199,109.66 299.5,109.5C 299.366,107.708 299.699,106.042 300.5,104.5 Z"/></g>
<g><path style="opacity:1" fill="#a2c4ff" d="M 291.5,108.5 C 296.159,108.015 297.492,109.848 295.5,114C 291.272,114.272 289.938,112.438 291.5,108.5 Z"/></g>
<g><path style="opacity:1" fill="#7dabff" d="M 530.5,104.5 C 588.282,108.764 642.282,125.098 692.5,153.5C 691.022,154.448 690.022,155.781 689.5,157.5C 688.043,155.215 686.043,153.382 683.5,152C 668.411,144.205 652.911,137.372 637,131.5C 634.341,134.808 632.175,138.475 630.5,142.5C 629.833,142.833 629.167,143.167 628.5,143.5C 597.781,132.647 566.448,125.647 534.5,122.5C 534.923,121.735 535.257,120.902 535.5,120C 533.987,118.121 533.321,115.954 533.5,113.5C 535.124,113.36 536.29,114.027 537,115.5C 537.333,114.833 537.667,114.167 538,113.5C 538.667,116.167 539.333,116.167 540,113.5C 540.667,116.167 541.333,116.167 542,113.5C 542.514,116.51 543.847,119.51 546,122.5C 546.667,119.833 547.333,119.833 548,122.5C 548.529,120.415 548.029,118.582 546.5,117C 546.903,115.527 547.57,114.194 548.5,113C 547.638,110.266 546.805,110.099 546,112.5C 545.333,109.833 544.667,109.833 544,112.5C 543.333,109.833 542.667,109.833 542,112.5C 541.333,109.833 540.667,109.833 540,112.5C 539.333,109.833 538.667,109.833 538,112.5C 537.333,109.833 536.667,109.833 536,112.5C 535.333,109.833 534.667,109.833 534,112.5C 533.047,110.545 531.713,108.878 530,107.5C 529.016,109.795 528.183,109.461 527.5,106.5C 528.274,105.289 529.107,105.289 530,106.5C 530.464,105.906 530.631,105.239 530.5,104.5 Z"/></g>
<g><path style="opacity:1" fill="#a3c4ff" d="M 283.5,113.5 C 289.175,113.86 289.842,115.86 285.5,119.5C 282.61,118.163 281.943,116.163 283.5,113.5 Z"/></g>
<g><path style="opacity:1" fill="#9bbbff" d="M 423.5,110.5 C 422.375,111.652 422.375,112.652 423.5,113.5C 397.817,118.781 372.817,126.615 348.5,137C 350.064,141.19 351.731,145.356 353.5,149.5C 339.195,156.404 325.028,163.737 311,171.5C 308.361,167.361 305.528,163.361 302.5,159.5C 301.583,160.127 300.583,160.461 299.5,160.5C 300.833,159.5 300.833,158.5 299.5,157.5C 337.865,134.373 379.198,118.706 423.5,110.5 Z"/></g>
<g><path style="opacity:1" fill="#95b8ff" d="M 669.5,109.5 C 687.1,116.963 703.766,125.963 719.5,136.5C 718.397,139.719 716.563,142.385 714,144.5C 700.2,137.018 686.367,129.684 672.5,122.5C 670.14,120.135 668.14,117.468 666.5,114.5C 667.002,113.479 667.668,113.312 668.5,114C 669.787,115.41 670.954,116.91 672,118.5C 672.5,118 673,117.5 673.5,117C 672.366,115.984 672.699,115.317 674.5,115C 671.766,114.002 670.099,112.168 669.5,109.5 Z"/></g>
<g><path style="opacity:0.745" fill="#a3c8ff" d="M 276.5,117.5 C 281.167,119.552 281.334,121.552 277,123.5C 272.612,121.75 272.445,119.75 276.5,117.5 Z"/></g>
<g><path style="opacity:1" fill="#99b8ff" d="M 236.5,132.5 C 210.701,150.957 187.035,171.957 165.5,195.5C 164.71,194.206 163.71,193.039 162.5,192C 164.394,190.899 165.061,189.566 164.5,188C 162.474,185.213 160.14,183.547 157.5,183C 158.5,182 159.5,181 160.5,180C 160.272,179.601 159.938,179.435 159.5,179.5C 178.997,158.331 200.33,139.331 223.5,122.5C 225.962,125.127 227.629,124.46 228.5,120.5C 228.833,120.667 229.167,120.833 229.5,121C 228.167,122 228.167,123 229.5,124C 228.833,124.333 228.167,124.667 227.5,125C 229.891,126.309 229.891,127.309 227.5,128C 228.76,129.113 229.927,129.28 231,128.5C 231.691,130.891 232.691,130.891 234,128.5C 234.662,129.984 235.496,131.317 236.5,132.5 Z"/></g>
<g><path style="opacity:1" fill="#a3c3ff" d="M 267.5,122.5 C 270.966,123.109 271.966,124.942 270.5,128C 265.289,128.546 264.289,126.713 267.5,122.5 Z"/></g>
<g><path style="opacity:1" fill="#a0c2ff" d="M 258.5,128.5 C 264.175,128.86 264.842,130.86 260.5,134.5C 257.61,133.163 256.943,131.163 258.5,128.5 Z"/></g>
<g><path style="opacity:1" fill="#9dc0ff" d="M 250.5,133.5 C 255.158,133.653 256.158,135.486 253.5,139C 249.537,139.118 248.537,137.284 250.5,133.5 Z"/></g>
<g><path style="opacity:1" fill="#9fc2ff" d="M 243.5,138.5 C 248.306,140.241 248.639,142.574 244.5,145.5C 240.967,143.58 240.633,141.246 243.5,138.5 Z"/></g>
<g><path style="opacity:1" fill="#9ad8fe" d="M 760.5,144.5 C 767.001,146.207 767.168,148.541 761,151.5C 759.336,149.214 759.17,146.881 760.5,144.5 Z"/></g>
<g><path style="opacity:1" fill="#9ec3ff" d="M 235.5,144.5 C 238.845,144.864 239.845,146.531 238.5,149.5C 235.556,148.632 234.556,146.965 235.5,144.5 Z"/></g>
<g><path style="opacity:1" fill="#98dafd" d="M 768.5,150.5 C 772.35,150.701 773.35,152.534 771.5,156C 766.722,156.073 765.722,154.24 768.5,150.5 Z"/></g>
<g><path style="opacity:0.104" fill="#95c3ff" d="M 779.5,161.5 C 779.778,159.654 779.111,158.32 777.5,157.5C 775.889,158.32 775.222,159.654 775.5,161.5C 773.823,157.014 775.323,155.681 780,157.5C 780.765,159.066 780.598,160.399 779.5,161.5 Z"/></g>
<g><path style="opacity:0.996" fill="#92e4fc" d="M 779.5,161.5 C 778.167,162.833 776.833,162.833 775.5,161.5C 775.222,159.654 775.889,158.32 777.5,157.5C 779.111,158.32 779.778,159.654 779.5,161.5 Z"/></g>
<g><path style="opacity:0.835" fill="#9ad5fd" d="M 787.5,165.5 C 786.292,164.766 784.959,164.433 783.5,164.5C 783.413,167.598 783.913,167.932 785,165.5C 785.342,167.619 786.175,167.953 787.5,166.5C 785.624,170.271 783.624,170.104 781.5,166C 783.624,161.896 785.624,161.729 787.5,165.5 Z"/></g>
<g><path style="opacity:0.996" fill="#7deefa" d="M 787.5,165.5 C 787.5,165.833 787.5,166.167 787.5,166.5C 786.175,167.953 785.342,167.619 785,165.5C 783.913,167.932 783.413,167.598 783.5,164.5C 784.959,164.433 786.292,164.766 787.5,165.5 Z"/></g>
<g><path style="opacity:1" fill="#a0c2ff" d="M 299.5,157.5 C 300.833,158.5 300.833,159.5 299.5,160.5C 270.224,178.755 243.224,200.089 218.5,224.5C 218.165,222.997 218.165,221.664 218.5,220.5C 242.415,195.394 269.415,174.394 299.5,157.5 Z"/></g>
<g><path style="opacity:0.996" fill="#91dcfc" d="M 790.5,169.5 C 795.158,169.653 796.158,171.486 793.5,175C 789.537,175.118 788.537,173.284 790.5,169.5 Z"/></g>
<g><path style="opacity:0.992" fill="#a3c3ff" d="M 809.5,170.5 C 816.5,175.5 822.5,181.5 827.5,188.5C 821.167,182.833 815.167,176.833 809.5,170.5 Z"/></g>
<g><path style="opacity:0.997" fill="#70a4ff" d="M 692.5,153.5 C 773.056,199.229 831.222,264.895 867,350.5C 877.464,376.691 884.964,403.691 889.5,431.5C 888.993,437.314 887.827,437.647 886,432.5C 885.333,433.167 884.667,433.833 884,434.5C 882.167,432.667 880.333,430.833 878.5,429C 878.833,428 879.167,427 879.5,426C 877.203,424.737 876.37,422.903 877,420.5C 877.333,420.833 877.667,421.167 878,421.5C 878.667,420.167 878.667,418.833 878,417.5C 876.933,419.283 875.433,419.783 873.5,419C 871.174,417.453 870.007,415.619 870,413.5C 869.617,414.056 869.117,414.389 868.5,414.5C 850.836,342.146 815.836,279.812 763.5,227.5C 765.938,223.558 768.938,220.058 772.5,217C 763.324,208.158 753.824,199.658 744,191.5C 740.297,194.867 736.964,198.534 734,202.5C 717.771,190.3 700.937,178.966 683.5,168.5C 685.274,164.611 687.274,160.945 689.5,157.5C 690.022,155.781 691.022,154.448 692.5,153.5 Z"/></g>
<g><path style="opacity:0.996" fill="#8eddfc" d="M 798.5,175.5 C 801.966,176.109 802.966,177.942 801.5,181C 796.289,181.546 795.289,179.713 798.5,175.5 Z"/></g>
<g><path style="opacity:0.996" fill="#8addfc" d="M 807.5,183.5 C 808.234,184.708 808.567,186.041 808.5,187.5C 804.506,189.349 803.006,188.015 804,183.5C 805.292,182.209 806.458,182.209 807.5,183.5 Z"/></g>
<g><path style="opacity:0.251" fill="#95c3ff" d="M 807.5,183.5 C 808.586,183.62 809.253,184.287 809.5,185.5C 809.457,186.416 809.124,187.083 808.5,187.5C 808.567,186.041 808.234,184.708 807.5,183.5 Z"/></g>
<g><path style="opacity:0.996" fill="#8edbfc" d="M 811.5,189.5 C 816.158,189.653 817.158,191.486 814.5,195C 810.537,195.118 809.537,193.284 811.5,189.5 Z"/></g>
<g><path style="opacity:0.996" fill="#86dcfc" d="M 818.5,196.5 C 823.041,196.815 824.041,198.649 821.5,202C 816.722,202.073 815.722,200.24 818.5,196.5 Z"/></g>
<g><path style="opacity:0.996" fill="#8bdafc" d="M 825.5,203.5 C 829.35,203.701 830.35,205.534 828.5,209C 823.289,209.546 822.289,207.713 825.5,203.5 Z"/></g>
<g><path style="opacity:1" fill="#8fb3ff" d="M 159.5,179.5 C 159.938,179.435 160.272,179.601 160.5,180C 159.5,181 158.5,182 157.5,183C 160.14,183.547 162.474,185.213 164.5,188C 165.061,189.566 164.394,190.899 162.5,192C 163.71,193.039 164.71,194.206 165.5,195.5C 156.69,205.131 148.357,215.131 140.5,225.5C 139.5,225.5 138.5,225.5 137.5,225.5C 137.519,223.94 137.852,222.44 138.5,221C 136.855,219.355 135.188,217.688 133.5,216C 135.657,214.915 135.824,213.749 134,212.5C 133.333,213.833 132.667,215.167 132,216.5C 131.667,215.833 131.333,215.167 131,214.5C 130.329,215.252 129.496,215.586 128.5,215.5C 138.115,202.885 148.448,190.885 159.5,179.5 Z"/></g>
<g><path style="opacity:1" fill="#87afff" d="M 140.5,225.5 C 124.492,246.185 110.492,268.185 98.5,291.5C 98.2252,289.158 97.3919,289.158 96,291.5C 95.3333,287.5 94.6667,287.5 94,291.5C 93.3333,287.5 92.6667,287.5 92,291.5C 91.3333,287.5 90.6667,287.5 90,291.5C 89.3333,287.5 88.6667,287.5 88,291.5C 87.3333,287.5 86.6667,287.5 86,291.5C 85.3333,287.5 84.6667,287.5 84,291.5C 82.8873,292.305 81.7206,292.972 80.5,293.5C 93.6975,265.666 109.698,239.666 128.5,215.5C 129.496,215.586 130.329,215.252 131,214.5C 131.333,215.167 131.667,215.833 132,216.5C 132.667,215.167 133.333,213.833 134,212.5C 135.824,213.749 135.657,214.915 133.5,216C 135.188,217.688 136.855,219.355 138.5,221C 137.852,222.44 137.519,223.94 137.5,225.5C 138.5,225.5 139.5,225.5 140.5,225.5 Z"/></g>
<g><path style="opacity:0.996" fill="#8cdefc" d="M 832.5,210.5 C 836.211,212.542 836.378,214.875 833,217.5C 828.601,215.32 828.434,212.987 832.5,210.5 Z"/></g>
<g><path style="opacity:0.986" fill="#acc7ff" d="M 814.5,214.5 C 817.783,218.121 821.116,221.787 824.5,225.5C 822.466,228.369 819.966,230.702 817,232.5C 814.052,229.716 811.219,226.716 808.5,223.5C 810.526,220.482 812.526,217.482 814.5,214.5 Z"/></g>
<g><path style="opacity:0.996" fill="#8adbfc" d="M 837.5,218.5 C 842.158,218.653 843.158,220.486 840.5,224C 836.537,224.118 835.537,222.284 837.5,218.5 Z"/></g>
<g><path style="opacity:0.984" fill="#acc7ff" d="M 218.5,220.5 C 218.165,221.664 218.165,222.997 218.5,224.5C 217.71,225.794 216.71,226.961 215.5,228C 218.393,231.396 221.726,234.229 225.5,236.5C 226.521,237.002 226.688,237.668 226,238.5C 218.128,246.703 210.628,255.203 203.5,264C 199.886,261.408 196.386,258.241 193,254.5C 172.892,279.037 156.059,305.704 142.5,334.5C 142.869,332.007 142.203,331.34 140.5,332.5C 159.603,290.269 185.603,252.936 218.5,220.5 Z"/></g>
<g><path style="opacity:0.996" fill="#8adffc" d="M 844.5,225.5 C 849.229,226.926 849.562,228.926 845.5,231.5C 841.986,230.101 841.653,228.101 844.5,225.5 Z"/></g>
<g><path style="opacity:1" fill="#67a0ff" d="M 85.5,511.5 C 85.6663,518.175 85.4996,524.842 85,531.5C 83.8118,530.437 83.3118,529.103 83.5,527.5C 79.4007,527.684 78.4007,529.184 80.5,532C 79.154,533.587 77.8206,533.42 76.5,531.5C 76.81,528.287 76.4767,525.287 75.5,522.5C 75.7901,505.647 75.4567,489.147 74.5,473C 75.4884,469.255 76.155,465.422 76.5,461.5C 78.0308,456.75 78.6975,451.75 78.5,446.5C 87.9436,369.645 116.11,300.645 163,239.5C 165.38,236.076 168.213,233.076 171.5,230.5C 173.854,232.705 175.854,235.205 177.5,238C 114.668,317.994 84.0009,409.161 85.5,511.5 Z"/></g>
<g><path style="opacity:0.996" fill="#8bddfc" d="M 849.5,233.5 C 854.041,233.815 855.041,235.649 852.5,239C 848.537,239.118 847.537,237.284 849.5,233.5 Z"/></g>
<g><path style="opacity:1" fill="#91b8ff" d="M 146.5,233.5 C 150.669,234.519 151.503,236.853 149,240.5C 144.647,239.079 143.813,236.746 146.5,233.5 Z"/></g>
<g><path style="opacity:0.996" fill="#8cdbfc" d="M 854.5,241.5 C 859.159,241.015 860.492,242.848 858.5,247C 854.272,247.272 852.938,245.438 854.5,241.5 Z"/></g>
<g><path style="opacity:1" fill="#8fb7ff" d="M 140.5,241.5 C 145.041,241.815 146.041,243.649 143.5,247C 139.537,247.118 138.537,245.284 140.5,241.5 Z"/></g>
<g><path style="opacity:1" fill="#8db7ff" d="M 135.5,249.5 C 139.35,249.701 140.35,251.534 138.5,255C 132.591,255.306 131.591,253.473 135.5,249.5 Z"/></g>
<g><path style="opacity:0.996" fill="#8bdcfc" d="M 860.5,249.5 C 865.158,249.653 866.158,251.486 863.5,255C 859.537,255.118 858.537,253.284 860.5,249.5 Z"/></g>
<g><path style="opacity:0.745" fill="#9ec7ff" d="M 869.5,258.5 C 868.041,258.433 866.708,258.766 865.5,259.5C 865.62,258.414 866.287,257.747 867.5,257.5C 868.416,257.543 869.083,257.876 869.5,258.5 Z"/></g>
<g><path style="opacity:0.996" fill="#86e4fb" d="M 869.5,258.5 C 870.833,259.833 870.833,261.167 869.5,262.5C 868.041,262.567 866.708,262.234 865.5,261.5C 864.167,260.833 864.167,260.167 865.5,259.5C 866.708,258.766 868.041,258.433 869.5,258.5 Z"/></g>
<g><path style="opacity:1" fill="#8bb4ff" d="M 129.5,257.5 C 133.225,257.537 134.558,259.204 133.5,262.5C 128.733,263.899 127.4,262.232 129.5,257.5 Z"/></g>
<g><path style="opacity:0.4" fill="#92c0ff" d="M 865.5,261.5 C 866.708,262.234 868.041,262.567 869.5,262.5C 869.083,263.124 868.416,263.457 867.5,263.5C 866.287,263.253 865.62,262.586 865.5,261.5 Z"/></g>
<g><path style="opacity:1" fill="#89b3ff" d="M 125.5,265.5 C 127.913,266.68 128.913,268.68 128.5,271.5C 122.447,271.407 121.447,269.407 125.5,265.5 Z"/></g>
<g><path style="opacity:0.996" fill="#8bdcfc" d="M 871.5,265.5 C 874.114,265.277 875.781,266.444 876.5,269C 874.484,272.015 872.317,272.182 870,269.5C 869.7,267.934 870.2,266.601 871.5,265.5 Z"/></g>
<g><path style="opacity:1" fill="#88b3ff" d="M 118.5,274.5 C 120.167,274.5 121.833,274.5 123.5,274.5C 123.66,276.199 123.494,277.866 123,279.5C 121.667,280.833 120.333,280.833 119,279.5C 118.506,277.866 118.34,276.199 118.5,274.5 Z"/></g>
<g><path style="opacity:0.996" fill="#89ddfc" d="M 876.5,273.5 C 880.985,274.965 881.485,277.299 878,280.5C 875.354,278.633 874.854,276.3 876.5,273.5 Z"/></g>
<g><path style="opacity:1" fill="#b5cdff" d="M 894.5,344.5 C 893.325,343.026 892.325,341.36 891.5,339.5C 891.488,342.26 890.155,342.76 887.5,341C 888.167,340.667 888.833,340.333 889.5,340C 888.333,339.5 887.5,338.667 887,337.5C 885.287,339.817 885.787,341.817 888.5,343.5C 887.038,343.065 886.038,343.898 885.5,346C 886.148,347.44 886.481,348.94 886.5,350.5C 876.779,327.058 865.445,304.391 852.5,282.5C 854.316,280.183 856.316,278.016 858.5,276C 859.635,275.251 860.635,275.417 861.5,276.5C 874.647,298.128 885.647,320.795 894.5,344.5 Z"/></g>
<g><path style="opacity:1" fill="#89b3ff" d="M 114.5,282.5 C 119.041,282.815 120.041,284.649 117.5,288C 113.537,288.118 112.537,286.284 114.5,282.5 Z"/></g>
<g><path style="opacity:0.996" fill="#8cddfc" d="M 881.5,282.5 C 885.35,282.701 886.35,284.534 884.5,288C 879.722,288.073 878.722,286.24 881.5,282.5 Z"/></g>
<g><path style="opacity:0.996" fill="#8adffc" d="M 885.5,295.5 C 885.433,294.041 885.766,292.708 886.5,291.5C 888.485,290.567 889.818,291.4 890.5,294C 890.355,294.772 890.022,295.439 889.5,296C 887.934,296.765 886.601,296.598 885.5,295.5 Z"/></g>
<g><path style="opacity:1" fill="#88b3ff" d="M 109.5,291.5 C 115.175,291.86 115.842,293.86 111.5,297.5C 108.61,296.163 107.943,294.163 109.5,291.5 Z"/></g>
<g><path style="opacity:0.251" fill="#94bfff" d="M 886.5,291.5 C 885.766,292.708 885.433,294.041 885.5,295.5C 884.876,295.083 884.543,294.416 884.5,293.5C 884.747,292.287 885.414,291.62 886.5,291.5 Z"/></g>
<g><path style="opacity:1" fill="#88b2ff" d="M 106.5,299.5 C 108.913,300.68 109.913,302.68 109.5,305.5C 103.526,305.278 102.526,303.278 106.5,299.5 Z"/></g>
<g><path style="opacity:0.996" fill="#8cdbfc" d="M 890.5,299.5 C 894.35,299.701 895.35,301.534 893.5,305C 888.722,305.073 887.722,303.24 890.5,299.5 Z"/></g>
<g><path style="opacity:1" fill="#7eabff" d="M 98.5,291.5 C 87.4321,313.962 77.7654,336.962 69.5,360.5C 69.6399,358.876 68.9733,357.71 67.5,357C 69.8776,356.026 69.5443,355.359 66.5,355C 67.3333,354.167 68.1667,353.333 69,352.5C 69.0343,350.82 69.201,349.32 69.5,348C 68.3333,346.833 67.1667,345.667 66,344.5C 65,344.5 64,344.5 63,344.5C 62.0853,343.672 61.4186,342.672 61,341.5C 60.6174,342.056 60.1174,342.389 59.5,342.5C 65.1621,325.518 72.1621,309.185 80.5,293.5C 81.7206,292.972 82.8873,292.305 84,291.5C 84.6667,287.5 85.3333,287.5 86,291.5C 86.6667,287.5 87.3333,287.5 88,291.5C 88.6667,287.5 89.3333,287.5 90,291.5C 90.6667,287.5 91.3333,287.5 92,291.5C 92.6667,287.5 93.3333,287.5 94,291.5C 94.6667,287.5 95.3333,287.5 96,291.5C 97.3919,289.158 98.2252,289.158 98.5,291.5 Z"/></g>
<g><path style="opacity:0.996" fill="#8cdffc" d="M 893.5,308.5 C 895.167,308.5 896.833,308.5 898.5,308.5C 898.949,310.977 898.283,312.977 896.5,314.5C 894.077,313.288 893.077,311.288 893.5,308.5 Z"/></g>
<g><path style="opacity:0.996" fill="#89e3fb" d="M 897.5,317.5 C 900.045,317.151 902.045,317.984 903.5,320C 901.966,322.381 899.966,322.881 897.5,321.5C 896.637,320.274 896.637,318.94 897.5,317.5 Z"/></g>
<g><path style="opacity:0.835" fill="#8ed9fc" d="M 902.5,325.5 C 905.114,325.277 906.781,326.444 907.5,329C 904.814,332.436 902.48,332.269 900.5,328.5C 901.193,327.482 901.859,326.482 902.5,325.5 Z"/></g>
<g><path style="opacity:1" fill="#b7ceff" d="M 142.5,334.5 C 145.989,338.273 149.989,341.606 154.5,344.5C 135.624,387.337 124.624,432.004 121.5,478.5C 121.666,473.821 121.499,469.155 121,464.5C 119.705,465.841 119.205,467.174 119.5,468.5C 117.729,467.965 117.396,467.131 118.5,466C 117.809,464.933 117.309,463.766 117,462.5C 116.586,462.957 116.086,463.291 115.5,463.5C 114.194,462.088 113.36,460.421 113,458.5C 111.796,459.471 111.296,460.471 111.5,461.5C 107.661,459.082 108.161,457.415 113,456.5C 113.718,457.451 114.551,457.617 115.5,457C 113.833,456 112.5,454.667 111.5,453C 113.575,451.419 113.575,449.585 111.5,447.5C 110.197,448.718 109.197,448.385 108.5,446.5C 107.279,451.591 106.279,456.591 105.5,461.5C 109.262,416.233 120.929,373.233 140.5,332.5C 142.203,331.34 142.869,332.007 142.5,334.5 Z"/></g>
<g><path style="opacity:0.996" fill="#8cdbfc" d="M 906.5,334.5 C 910.013,335.028 911.013,336.862 909.5,340C 904.289,340.546 903.289,338.713 906.5,334.5 Z"/></g>
<g><path style="opacity:1" fill="#b7d3ff" d="M 894.5,344.5 C 903.218,364.329 909.552,384.996 913.5,406.5C 916.702,423.044 919.035,439.711 920.5,456.5C 920.631,457.239 920.464,457.906 920,458.5C 919.667,457.167 919.333,455.833 919,454.5C 917.984,455.634 917.317,455.301 917,453.5C 916.333,454.833 915.667,454.833 915,453.5C 913.916,454.665 913.083,455.998 912.5,457.5C 913.167,457.833 913.833,458.167 914.5,458.5C 913.289,459.72 913.289,460.887 914.5,462C 913.619,462.708 912.953,463.542 912.5,464.5C 908.499,425.183 899.832,387.183 886.5,350.5C 886.481,348.94 886.148,347.44 885.5,346C 886.038,343.898 887.038,343.065 888.5,343.5C 885.787,341.817 885.287,339.817 887,337.5C 887.5,338.667 888.333,339.5 889.5,340C 888.833,340.333 888.167,340.667 887.5,341C 890.155,342.76 891.488,342.26 891.5,339.5C 892.325,341.36 893.325,343.026 894.5,344.5 Z"/></g>
<g><path style="opacity:0.996" fill="#8addfc" d="M 909.5,343.5 C 913.068,343.759 914.401,345.759 913.5,349.5C 908.74,349.799 907.406,347.799 909.5,343.5 Z"/></g>
<g><path style="opacity:1" fill="#77a7ff" d="M 69.5,360.5 C 63.8457,380.451 58.8457,400.451 54.5,420.5C 54.6602,418.801 54.4935,417.134 54,415.5C 53.6667,415.833 53.3333,416.167 53,416.5C 50.7935,413.614 50.6268,410.947 52.5,408.5C 51.5094,405.756 51.8427,403.089 53.5,400.5C 53.4435,399.263 52.9435,398.263 52,397.5C 50,398.833 48,398.833 46,397.5C 45.3828,398.449 45.5494,399.282 46.5,400C 44.7505,402.086 43.4172,404.419 42.5,407C 42.9054,407.945 43.572,408.612 44.5,409C 42.3909,409.907 41.0576,411.407 40.5,413.5C 44.8076,389.268 51.1409,365.601 59.5,342.5C 60.1174,342.389 60.6174,342.056 61,341.5C 61.4186,342.672 62.0853,343.672 63,344.5C 64,344.5 65,344.5 66,344.5C 67.1667,345.667 68.3333,346.833 69.5,348C 69.201,349.32 69.0343,350.82 69,352.5C 68.1667,353.333 67.3333,354.167 66.5,355C 69.5443,355.359 69.8776,356.026 67.5,357C 68.9733,357.71 69.6399,358.876 69.5,360.5 Z"/></g>
<g><path style="opacity:0.996" fill="#8adafc" d="M 913.5,352.5 C 916.966,353.109 917.966,354.942 916.5,358C 910.002,358.792 909.002,356.959 913.5,352.5 Z"/></g>
<g><path style="opacity:0.996" fill="#8adcfc" d="M 915.5,362.5 C 921.432,363.129 921.932,365.129 917,368.5C 914.408,366.992 913.908,364.992 915.5,362.5 Z"/></g>
<g><path style="opacity:0.059" fill="#99c5ff" d="M 918.5,372.5 C 918.917,371.876 919.584,371.543 920.5,371.5C 921.713,371.747 922.38,372.414 922.5,373.5C 921.292,372.766 919.959,372.433 918.5,372.5 Z"/></g>
<g><path style="opacity:0.996" fill="#82e8fa" d="M 918.5,372.5 C 919.959,372.433 921.292,372.766 922.5,373.5C 923.715,374.779 923.382,375.779 921.5,376.5C 920.5,376.5 919.5,376.5 918.5,376.5C 918.5,375.167 918.5,373.833 918.5,372.5 Z"/></g>
<g><path style="opacity:0.089" fill="#96c5ff" d="M 918.5,372.5 C 918.5,373.833 918.5,375.167 918.5,376.5C 919.5,376.5 920.5,376.5 921.5,376.5C 920.432,377.434 919.099,377.768 917.5,377.5C 917.216,375.585 917.549,373.919 918.5,372.5 Z"/></g>
<g><path style="opacity:0.996" fill="#8be0fc" d="M 921.5,380.5 C 924.114,380.277 925.781,381.444 926.5,384C 923.814,387.436 921.48,387.269 919.5,383.5C 920.193,382.482 920.859,381.482 921.5,380.5 Z"/></g>
<g><path style="opacity:1" fill="#b9d2ff" d="M 963.5,451.5 C 963.822,460.27 962.156,461.104 958.5,454C 957.234,453.691 956.067,453.191 955,452.5C 954.667,452.833 954.333,453.167 954,453.5C 953.727,451.899 953.227,450.399 952.5,449C 953.308,448.692 953.975,448.192 954.5,447.5C 954.154,446.304 953.654,446.304 953,447.5C 952.71,445.956 952.044,444.623 951,443.5C 950.805,445.207 950.805,446.874 951,448.5C 950.333,447.833 949.667,447.167 949,446.5C 948.333,441.833 947.667,437.167 947,432.5C 946.722,431.584 946.222,430.918 945.5,430.5C 943.711,416.056 940.711,401.889 936.5,388C 941.176,385.788 946.009,383.954 951,382.5C 957.962,404.931 962.128,427.931 963.5,451.5 Z"/></g>
<g><path style="opacity:0.996" fill="#8adbfc" d="M 923.5,390.5 C 929.175,390.86 929.842,392.86 925.5,396.5C 922.531,395.235 921.865,393.235 923.5,390.5 Z"/></g>
<g><path style="opacity:0.996" fill="#8adcfc" d="M 926.5,399.5 C 930.35,399.701 931.35,401.534 929.5,405C 924.541,405.232 923.541,403.399 926.5,399.5 Z"/></g>
<g><path style="opacity:0.996" fill="#6ca2ff" d="M 54.5,420.5 C 53.8735,428.552 52.8735,436.552 51.5,444.5C 49.8224,449.568 49.1557,454.902 49.5,460.5C 49.5,461.833 49.5,463.167 49.5,464.5C 48.6805,467.305 48.1805,470.305 48,473.5C 47.5002,483.828 47.3335,494.161 47.5,504.5C 42.8333,504.5 38.1667,504.5 33.5,504.5C 33.5,495.833 33.5,487.167 33.5,478.5C 33.3435,471.381 33.3435,464.214 33.5,457C 35.0855,449.253 36.4188,441.42 37.5,433.5C 37.3918,432.558 37.0585,431.725 36.5,431C 38.1967,425.296 39.5301,419.462 40.5,413.5C 41.0576,411.407 42.3909,409.907 44.5,409C 43.572,408.612 42.9054,407.945 42.5,407C 43.4172,404.419 44.7505,402.086 46.5,400C 45.5494,399.282 45.3828,398.449 46,397.5C 48,398.833 50,398.833 52,397.5C 52.9435,398.263 53.4435,399.263 53.5,400.5C 51.8427,403.089 51.5094,405.756 52.5,408.5C 50.6268,410.947 50.7935,413.614 53,416.5C 53.3333,416.167 53.6667,415.833 54,415.5C 54.4935,417.134 54.6602,418.801 54.5,420.5 Z"/></g>
<g><path style="opacity:0.996" fill="#88defc" d="M 927.5,409.5 C 933.175,409.86 933.842,411.86 929.5,415.5C 926.61,414.163 925.943,412.163 927.5,409.5 Z"/></g>
<g><path style="opacity:0.537" fill="#a4c9ff" d="M 913.5,406.5 C 920.347,433.611 923.68,461.277 923.5,489.5C 922.671,482.679 922.171,475.679 922,468.5C 921.667,467.167 921.333,465.833 921,464.5C 920.346,465.696 919.846,465.696 919.5,464.5C 921.634,461.926 921.968,459.259 920.5,456.5C 919.035,439.711 916.702,423.044 913.5,406.5 Z"/></g>
<g><path style="opacity:0.996" fill="#8bdbfc" d="M 929.5,418.5 C 933.485,418.629 934.818,420.463 933.5,424C 928.728,424.81 927.395,422.977 929.5,418.5 Z"/></g>
<g><path style="opacity:1" fill="#76a6ff" d="M 889.5,431.5 C 892.479,446.252 894.479,461.252 895.5,476.5C 895.473,492.032 895.473,507.198 895.5,522C 894.724,528.117 894.057,534.283 893.5,540.5C 891.983,540.489 890.816,539.823 890,538.5C 889.727,536.671 888.893,535.171 887.5,534C 888.833,533.333 890.167,532.667 891.5,532C 889.833,531 888.167,530 886.5,529C 888.929,528.549 889.096,527.715 887,526.5C 886.667,526.833 886.333,527.167 886,527.5C 885.667,526.167 885.333,524.833 885,523.5C 884.667,524.167 884.333,524.833 884,525.5C 882.757,523.167 881.091,522.5 879,523.5C 877.812,522.437 877.312,521.103 877.5,519.5C 877.783,501.782 877.283,483.782 876,465.5C 874.36,448.332 871.86,431.332 868.5,414.5C 869.117,414.389 869.617,414.056 870,413.5C 870.007,415.619 871.174,417.453 873.5,419C 875.433,419.783 876.933,419.283 878,417.5C 878.667,418.833 878.667,420.167 878,421.5C 877.667,421.167 877.333,420.833 877,420.5C 876.37,422.903 877.203,424.737 879.5,426C 879.167,427 878.833,428 878.5,429C 880.333,430.833 882.167,432.667 884,434.5C 884.667,433.833 885.333,433.167 886,432.5C 887.827,437.647 888.993,437.314 889.5,431.5 Z"/></g>
<g><path style="opacity:1" fill="#80afff" d="M 65.5,428.5 C 70.1672,430.552 70.3339,432.552 66,434.5C 61.6119,432.75 61.4452,430.75 65.5,428.5 Z"/></g>
<g><path style="opacity:0.996" fill="#89defc" d="M 931.5,428.5 C 932.833,428.5 934.167,428.5 935.5,428.5C 935.923,431.288 934.923,433.288 932.5,434.5C 929.529,432.662 929.195,430.662 931.5,428.5 Z"/></g>
<g><path style="opacity:0.996" fill="#8ddbfc" d="M 933.5,437.5 C 936.966,438.109 937.966,439.942 936.5,443C 933.763,444.08 932.096,443.246 931.5,440.5C 931.942,439.261 932.609,438.261 933.5,437.5 Z"/></g>
<g><path style="opacity:1" fill="#83b2ff" d="M 62.5,438.5 C 67.1585,438.015 68.4919,439.848 66.5,444C 61.7282,444.81 60.3948,442.977 62.5,438.5 Z"/></g>
<g><path style="opacity:1" fill="#b7cdff" d="M 945.5,430.5 C 946.222,430.918 946.722,431.584 947,432.5C 947.667,437.167 948.333,441.833 949,446.5C 949.667,447.167 950.333,447.833 951,448.5C 950.805,446.874 950.805,445.207 951,443.5C 952.044,444.623 952.71,445.956 953,447.5C 953.654,446.304 954.154,446.304 954.5,447.5C 953.975,448.192 953.308,448.692 952.5,449C 953.227,450.399 953.727,451.899 954,453.5C 954.333,453.167 954.667,452.833 955,452.5C 956.067,453.191 957.234,453.691 958.5,454C 962.156,461.104 963.822,460.27 963.5,451.5C 970.132,511.885 964.798,571.218 947.5,629.5C 946.691,630.469 945.691,631.302 944.5,632C 945.317,634.885 944.484,637.385 942,639.5C 940.956,638.377 940.29,637.044 940,635.5C 939.667,635.833 939.333,636.167 939,636.5C 938.581,632.148 937.914,631.815 937,635.5C 936.147,633.875 935.147,633.542 934,634.5C 932.46,631.279 932.293,627.946 933.5,624.5C 943.452,587.838 949.119,550.505 950.5,512.5C 951.833,503.167 951.833,493.833 950.5,484.5C 949.757,466.408 948.091,448.408 945.5,430.5 Z"/></g>
<g><path style="opacity:1" fill="#b7d2ff" d="M 121.5,478.5 C 120.706,503.295 122.039,527.961 125.5,552.5C 125.182,553.647 124.516,554.481 123.5,555C 119.57,556.477 115.57,557.644 111.5,558.5C 115.699,586.296 122.865,613.296 133,639.5C 137.212,637.862 141.545,636.529 146,635.5C 148.358,638.393 149.858,641.726 150.5,645.5C 148.54,642.823 147.04,639.823 146,636.5C 141.242,638.065 136.409,639.398 131.5,640.5C 131.509,638.692 131.009,637.025 130,635.5C 130.158,638.502 130.658,641.502 131.5,644.5C 107.606,584.912 98.9394,523.912 105.5,461.5C 106.279,456.591 107.279,451.591 108.5,446.5C 109.197,448.385 110.197,448.718 111.5,447.5C 113.575,449.585 113.575,451.419 111.5,453C 112.5,454.667 113.833,456 115.5,457C 114.551,457.617 113.718,457.451 113,456.5C 108.161,457.415 107.661,459.082 111.5,461.5C 111.296,460.471 111.796,459.471 113,458.5C 113.36,460.421 114.194,462.088 115.5,463.5C 116.086,463.291 116.586,462.957 117,462.5C 117.309,463.766 117.809,464.933 118.5,466C 117.396,467.131 117.729,467.965 119.5,468.5C 119.205,467.174 119.705,465.841 121,464.5C 121.499,469.155 121.666,473.821 121.5,478.5 Z"/></g>
<g><path style="opacity:0.996" fill="#89dafc" d="M 933.5,447.5 C 938.159,447.015 939.492,448.848 937.5,453C 933.126,453.424 931.792,451.591 933.5,447.5 Z"/></g>
<g><path style="opacity:0.745" fill="#87b7ff" d="M 51.5,444.5 C 51.2181,450.021 50.5514,455.354 49.5,460.5C 49.1557,454.902 49.8224,449.568 51.5,444.5 Z"/></g>
<g><path style="opacity:1" fill="#80afff" d="M 61.5,448.5 C 67.1755,448.86 67.8421,450.86 63.5,454.5C 60.5313,453.235 59.8646,451.235 61.5,448.5 Z"/></g>
<g><path style="opacity:0.745" fill="#87b5ff" d="M 78.5,446.5 C 78.6975,451.75 78.0308,456.75 76.5,461.5C 76.6084,456.29 77.2751,451.29 78.5,446.5 Z"/></g>
<g><path style="opacity:1" fill="#b2ddfe" d="M 920.5,456.5 C 921.968,459.259 921.634,461.926 919.5,464.5C 919.846,465.696 920.346,465.696 921,464.5C 921.333,465.833 921.667,467.167 922,468.5C 922.171,475.679 922.671,482.679 923.5,489.5C 923.5,495.5 923.5,501.5 923.5,507.5C 923.026,516.304 922.026,525.138 920.5,534C 921.38,535.356 921.714,536.856 921.5,538.5C 920.778,538.918 920.278,539.584 920,540.5C 918.418,539.04 917.085,537.373 916,535.5C 915.667,536.167 915.333,536.833 915,537.5C 914.066,536.142 913.232,534.808 912.5,533.5C 912.389,532.883 912.056,532.383 911.5,532C 912.144,527.066 912.81,522.233 913.5,517.5C 914.833,505.167 914.833,492.833 913.5,480.5C 913.821,474.974 913.488,469.64 912.5,464.5C 912.953,463.542 913.619,462.708 914.5,462C 913.289,460.887 913.289,459.72 914.5,458.5C 913.833,458.167 913.167,457.833 912.5,457.5C 913.083,455.998 913.916,454.665 915,453.5C 915.667,454.833 916.333,454.833 917,453.5C 917.317,455.301 917.984,455.634 919,454.5C 919.333,455.833 919.667,457.167 920,458.5C 920.464,457.906 920.631,457.239 920.5,456.5 Z"/></g>
<g><path style="opacity:0.996" fill="#89dffc" d="M 934.5,457.5 C 940.175,457.86 940.842,459.86 936.5,463.5C 933.61,462.163 932.943,460.163 934.5,457.5 Z"/></g>
<g><path style="opacity:1" fill="#7eadff" d="M 61.5,457.5 C 64.9656,458.109 65.9656,459.942 64.5,463C 58.542,463.264 57.542,461.431 61.5,457.5 Z"/></g>
<g><path style="opacity:0.996" fill="#87e2fb" d="M 939.5,468.5 C 939.306,470.912 937.973,471.912 935.5,471.5C 934.114,469.243 934.781,467.576 937.5,466.5C 938.522,466.855 939.189,467.522 939.5,468.5 Z"/></g>
<g><path style="opacity:1" fill="#7faeff" d="M 60.5,467.5 C 64.35,467.701 65.35,469.534 63.5,473C 58.6756,473.183 57.6756,471.35 60.5,467.5 Z"/></g>
<g><path style="opacity:0.059" fill="#95c4ff" d="M 939.5,468.5 C 940.791,469.542 940.791,470.708 939.5,472C 938.234,472.309 937.067,472.809 936,473.5C 935.536,472.906 935.369,472.239 935.5,471.5C 937.973,471.912 939.306,470.912 939.5,468.5 Z"/></g>
<g><path style="opacity:0.081" fill="#9ac5ff" d="M 912.5,464.5 C 913.488,469.64 913.821,474.974 913.5,480.5C 912.81,475.767 912.144,470.934 911.5,466C 912.056,465.617 912.389,465.117 912.5,464.5 Z"/></g>
<g><path style="opacity:0.996" fill="#8cdbfc" d="M 935.5,476.5 C 940.159,476.015 941.492,477.848 939.5,482C 935.272,482.272 933.938,480.438 935.5,476.5 Z"/></g>
<g><path style="opacity:1" fill="#7dadff" d="M 59.5,477.5 C 65.1755,477.86 65.8421,479.86 61.5,483.5C 58.5313,482.235 57.8646,480.235 59.5,477.5 Z"/></g>
<g><path style="opacity:0.4" fill="#8ebcff" d="M 33.5,478.5 C 33.5,487.167 33.5,495.833 33.5,504.5C 32.7109,504.217 32.0442,503.717 31.5,503C 32.0099,497.413 32.0099,491.413 31.5,485C 32.1172,482.723 32.7839,480.556 33.5,478.5 Z"/></g>
<g><path style="opacity:0.251" fill="#8cbaff" d="M 49.5,464.5 C 49.0828,478.001 48.4162,491.334 47.5,504.5C 47.3335,494.161 47.5002,483.828 48,473.5C 48.1805,470.305 48.6805,467.305 49.5,464.5 Z"/></g>
<g><path style="opacity:0.996" fill="#8be0fc" d="M 937.5,485.5 C 941.005,487.417 941.338,489.75 938.5,492.5C 934.99,490.573 934.656,488.24 937.5,485.5 Z"/></g>
<g><path style="opacity:1" fill="#7cacff" d="M 59.5,486.5 C 62.6973,487.112 64.0306,489.112 63.5,492.5C 61.8333,492.5 60.1667,492.5 58.5,492.5C 58.3253,490.379 58.6586,488.379 59.5,486.5 Z"/></g>
<g><path style="opacity:0.251" fill="#91beff" d="M 950.5,484.5 C 951.833,493.833 951.833,503.167 950.5,512.5C 950.384,503.182 950.384,493.848 950.5,484.5 Z"/></g>
<g><path style="opacity:0.537" fill="#a6ccff" d="M 913.5,480.5 C 914.833,492.833 914.833,505.167 913.5,517.5C 913.353,505.172 913.353,492.839 913.5,480.5 Z"/></g>
<g><path style="opacity:0.996" fill="#89e0fb" d="M 937.5,495.5 C 938.496,495.414 939.329,495.748 940,496.5C 940.494,498.134 940.66,499.801 940.5,501.5C 935.331,501.458 934.331,499.458 937.5,495.5 Z"/></g>
<g><path style="opacity:1" fill="#7cacff" d="M 59.5,496.5 C 63.35,496.701 64.35,498.534 62.5,502C 58.5369,502.118 57.5369,500.284 59.5,496.5 Z"/></g>
<g><path style="opacity:0.996" fill="#89e0fb" d="M 936.5,505.5 C 940.35,505.701 941.35,507.534 939.5,511C 935.537,511.118 934.537,509.284 936.5,505.5 Z"/></g>
<g><path style="opacity:1" fill="#7dacff" d="M 58.5,506.5 C 63.1585,506.015 64.4919,507.848 62.5,512C 61.2161,512.684 60.0495,512.517 59,511.5C 58.5065,509.866 58.3398,508.199 58.5,506.5 Z"/></g>
<g><path style="opacity:0.996" fill="#8cddfc" d="M 935.5,515.5 C 939.909,514.899 941.242,516.566 939.5,520.5C 935.322,521.314 933.989,519.647 935.5,515.5 Z"/></g>
<g><path style="opacity:1" fill="#7dadff" d="M 58.5,516.5 C 60.1992,516.34 61.8659,516.506 63.5,517C 64.8333,518.333 64.8333,519.667 63.5,521C 61.8659,521.494 60.1992,521.66 58.5,521.5C 58.5,519.833 58.5,518.167 58.5,516.5 Z"/></g>
<g><path style="opacity:1" fill="#7eabff" d="M 877.5,519.5 C 877.312,521.103 877.812,522.437 879,523.5C 881.091,522.5 882.757,523.167 884,525.5C 884.333,524.833 884.667,524.167 885,523.5C 885.333,524.833 885.667,526.167 886,527.5C 886.333,527.167 886.667,526.833 887,526.5C 889.096,527.715 888.929,528.549 886.5,529C 888.167,530 889.833,531 891.5,532C 890.167,532.667 888.833,533.333 887.5,534C 888.893,535.171 889.727,536.671 890,538.5C 890.816,539.823 891.983,540.489 893.5,540.5C 891.035,565.693 886.035,590.36 878.5,614.5C 877.069,614.119 876.236,613.119 876,611.5C 875.333,615.5 874.667,615.5 874,611.5C 873.333,615.5 872.667,615.5 872,611.5C 871.333,615.5 870.667,615.5 870,611.5C 869.333,615.5 868.667,615.5 868,611.5C 867.333,615.5 866.667,615.5 866,611.5C 865.517,612.448 865.351,613.448 865.5,614.5C 864.5,614.5 863.5,614.5 862.5,614.5C 862.33,613.178 862.663,612.011 863.5,611C 862.956,610.283 862.289,609.783 861.5,609.5C 869.862,579.723 875.196,549.723 877.5,519.5 Z"/></g>
<g><path style="opacity:1" fill="#7cacff" d="M 60.5,525.5 C 64.35,525.701 65.35,527.534 63.5,531C 58.7217,531.073 57.7217,529.24 60.5,525.5 Z"/></g>
<g><path style="opacity:0.996" fill="#8cddfc" d="M 936.5,524.5 C 939.966,525.109 940.966,526.942 939.5,530C 936.763,531.08 935.096,530.246 934.5,527.5C 934.942,526.261 935.609,525.261 936.5,524.5 Z"/></g>
<g><path style="opacity:0.095" fill="#92c2ff" d="M 75.5,522.5 C 76.4767,525.287 76.81,528.287 76.5,531.5C 76.5,531.833 76.5,532.167 76.5,532.5C 75.2188,529.212 74.8854,525.879 75.5,522.5 Z"/></g>
<g><path style="opacity:1" fill="#77a8ff" d="M 85.5,511.5 C 86.5973,529.738 88.2639,548.072 90.5,566.5C 90.4292,569.139 89.4292,571.306 87.5,573C 87.7591,574.261 88.4258,575.261 89.5,576C 89,576.5 88.5,577 88,577.5C 85.3195,575.473 83.6528,572.807 83,569.5C 82.7679,570.737 82.2679,571.737 81.5,572.5C 78.7196,559.591 77.0529,546.258 76.5,532.5C 76.5,532.167 76.5,531.833 76.5,531.5C 77.8206,533.42 79.154,533.587 80.5,532C 78.4007,529.184 79.4007,527.684 83.5,527.5C 83.3118,529.103 83.8118,530.437 85,531.5C 85.4996,524.842 85.6663,518.175 85.5,511.5 Z"/></g>
<g><path style="opacity:0.745" fill="#a5caff" d="M 923.5,507.5 C 924.017,525.122 922.684,542.455 919.5,559.5C 919.683,554.769 919.683,549.936 919.5,545C 920.669,542.993 921.335,540.827 921.5,538.5C 921.714,536.856 921.38,535.356 920.5,534C 922.026,525.138 923.026,516.304 923.5,507.5 Z"/></g>
<g><path style="opacity:0.996" fill="#8adafc" d="M 934.5,534.5 C 939.159,534.015 940.492,535.848 938.5,540C 933.728,540.81 932.395,538.977 934.5,534.5 Z"/></g>
<g><path style="opacity:1" fill="#80b0ff" d="M 60.5,535.5 C 65.1585,535.015 66.4919,536.848 64.5,541C 60.1258,541.424 58.7925,539.591 60.5,535.5 Z"/></g>
<g><path style="opacity:1" fill="#a9e2fe" d="M 912.5,533.5 C 913.232,534.808 914.066,536.142 915,537.5C 915.333,536.833 915.667,536.167 916,535.5C 917.085,537.373 918.418,539.04 920,540.5C 920.278,539.584 920.778,538.918 921.5,538.5C 921.335,540.827 920.669,542.993 919.5,545C 919.683,549.936 919.683,554.769 919.5,559.5C 918.812,562.02 917.812,564.52 916.5,567C 917.193,568.684 917.526,570.184 917.5,571.5C 917.5,571.833 917.5,572.167 917.5,572.5C 916.32,575.521 915.32,578.687 914.5,582C 914.728,582.399 915.062,582.565 915.5,582.5C 915.58,585.781 914.913,588.781 913.5,591.5C 912.504,591.414 911.671,591.748 911,592.5C 908.211,589.871 906.211,590.538 905,594.5C 904.536,593.906 904.369,593.239 904.5,592.5C 904.467,589.164 905.134,585.997 906.5,583C 906.272,582.601 905.938,582.435 905.5,582.5C 905.5,582.167 905.5,581.833 905.5,581.5C 908.546,572.203 910.213,562.536 910.5,552.5C 910.697,545.974 911.364,539.641 912.5,533.5 Z"/></g>
<g><path style="opacity:0.996" fill="#8cdbfc" d="M 933.5,544.5 C 937.909,543.899 939.242,545.566 937.5,549.5C 933.317,550.309 931.984,548.642 933.5,544.5 Z"/></g>
<g><path style="opacity:1" fill="#7cacff" d="M 61.5,545.5 C 65.1378,544.737 66.6378,546.07 66,549.5C 61.4155,551.413 59.9155,550.079 61.5,545.5 Z"/></g>
<g><path style="opacity:1" fill="#7faeff" d="M 63.5,554.5 C 67.35,554.701 68.35,556.534 66.5,560C 61.6756,560.183 60.6756,558.35 63.5,554.5 Z"/></g>
<g><path style="opacity:0.996" fill="#8addfc" d="M 933.5,553.5 C 936.966,554.109 937.966,555.942 936.5,559C 931.289,559.546 930.289,557.713 933.5,553.5 Z"/></g>
<g><path style="opacity:0.996" fill="#89ddfc" d="M 931.5,563.5 C 936.041,563.815 937.041,565.649 934.5,569C 931.888,569.741 930.222,568.741 929.5,566C 930.381,565.292 931.047,564.458 931.5,563.5 Z"/></g>
<g><path style="opacity:1" fill="#7eaeff" d="M 64.5,564.5 C 69.1584,564.653 70.1584,566.486 67.5,570C 63.5369,570.118 62.5369,568.284 64.5,564.5 Z"/></g>
<g><path style="opacity:0.745" fill="#a5caff" d="M 919.5,559.5 C 919.461,563.733 918.795,567.733 917.5,571.5C 917.526,570.184 917.193,568.684 916.5,567C 917.812,564.52 918.812,562.02 919.5,559.5 Z"/></g>
<g><path style="opacity:0.537" fill="#a4c9ff" d="M 910.5,552.5 C 910.213,562.536 908.546,572.203 905.5,581.5C 907.066,571.686 908.733,562.019 910.5,552.5 Z"/></g>
<g><path style="opacity:1" fill="#7eabff" d="M 90.5,566.5 C 93.9982,583.499 97.9982,600.499 102.5,617.5C 101.867,617.88 101.2,618.213 100.5,618.5C 103.705,623.141 103.872,628.141 101,633.5C 100.086,629.815 99.4189,630.148 99,634.5C 98.6401,632.392 97.9734,630.392 97,628.5C 96.6174,629.056 96.1174,629.389 95.5,629.5C 89.1326,611.029 84.466,592.029 81.5,572.5C 82.2679,571.737 82.7679,570.737 83,569.5C 83.6528,572.807 85.3195,575.473 88,577.5C 88.5,577 89,576.5 89.5,576C 88.4258,575.261 87.7591,574.261 87.5,573C 89.4292,571.306 90.4292,569.139 90.5,566.5 Z"/></g>
<g><path style="opacity:0.996" fill="#88defc" d="M 929.5,573.5 C 935.175,573.86 935.842,575.86 931.5,579.5C 928.61,578.163 927.943,576.163 929.5,573.5 Z"/></g>
<g><path style="opacity:1" fill="#7eadff" d="M 66.5,573.5 C 70.0131,574.028 71.0131,575.862 69.5,579C 64.2894,579.546 63.2894,577.713 66.5,573.5 Z"/></g>
<g><path style="opacity:0.104" fill="#9dc6ff" d="M 917.5,572.5 C 917.451,576.078 916.785,579.411 915.5,582.5C 915.062,582.565 914.728,582.399 914.5,582C 915.32,578.687 916.32,575.521 917.5,572.5 Z"/></g>
<g><path style="opacity:0.996" fill="#8bdcfc" d="M 928.5,582.5 C 932.35,582.701 933.35,584.534 931.5,588C 926.676,588.183 925.676,586.35 928.5,582.5 Z"/></g>
<g><path style="opacity:1" fill="#7faeff" d="M 67.5,583.5 C 73.1755,583.86 73.8421,585.86 69.5,589.5C 65.1465,588.527 64.4798,586.527 67.5,583.5 Z"/></g>
<g><path style="opacity:0.745" fill="#a3c9ff" d="M 905.5,582.5 C 905.938,582.435 906.272,582.601 906.5,583C 905.134,585.997 904.467,589.164 904.5,592.5C 902.988,597.548 901.321,602.548 899.5,607.5C 901.056,598.946 903.056,590.613 905.5,582.5 Z"/></g>
<g><path style="opacity:1" fill="#9fe2fd" d="M 913.5,591.5 C 912.927,597.455 911.593,603.122 909.5,608.5C 908.076,610.515 907.41,612.848 907.5,615.5C 891.361,672.954 864.361,724.454 826.5,770C 822.845,769.316 819.845,767.316 817.5,764C 855.706,717.763 883.039,665.596 899.5,607.5C 901.321,602.548 902.988,597.548 904.5,592.5C 904.369,593.239 904.536,593.906 905,594.5C 906.211,590.538 908.211,589.871 911,592.5C 911.671,591.748 912.504,591.414 913.5,591.5 Z"/></g>
<g><path style="opacity:0.996" fill="#8cddfc" d="M 925.5,592.5 C 931.175,592.86 931.842,594.86 927.5,598.5C 924.61,597.163 923.943,595.163 925.5,592.5 Z"/></g>
<g><path style="opacity:1" fill="#7cacff" d="M 70.5,592.5 C 73.9656,593.109 74.9656,594.942 73.5,598C 68.2894,598.546 67.2894,596.713 70.5,592.5 Z"/></g>
<g><path style="opacity:0.996" fill="#89dafc" d="M 923.5,601.5 C 927.692,601.403 929.025,603.236 927.5,607C 922.728,607.81 921.395,605.977 923.5,601.5 Z"/></g>
<g><path style="opacity:1" fill="#7eaeff" d="M 71.5,602.5 C 76.1585,602.015 77.4919,603.848 75.5,608C 71.2716,608.272 69.9383,606.438 71.5,602.5 Z"/></g>
<g><path style="opacity:1" fill="#86b0ff" d="M 861.5,609.5 C 862.289,609.783 862.956,610.283 863.5,611C 862.663,612.011 862.33,613.178 862.5,614.5C 863.5,614.5 864.5,614.5 865.5,614.5C 865.351,613.448 865.517,612.448 866,611.5C 866.667,615.5 867.333,615.5 868,611.5C 868.667,615.5 869.333,615.5 870,611.5C 870.667,615.5 871.333,615.5 872,611.5C 872.667,615.5 873.333,615.5 874,611.5C 874.667,615.5 875.333,615.5 876,611.5C 876.236,613.119 877.069,614.119 878.5,614.5C 864.559,659.387 843.559,700.387 815.5,737.5C 814.833,736.833 814.167,736.167 813.5,735.5C 835.829,704.921 853.829,671.754 867.5,636C 864.003,633.417 860.336,631.084 856.5,629C 855.941,628.275 855.608,627.442 855.5,626.5C 857.533,620.73 859.533,615.063 861.5,609.5 Z"/></g>
<g><path style="opacity:0.104" fill="#9bc7ff" d="M 909.5,608.5 C 909.59,611.152 908.924,613.485 907.5,615.5C 907.41,612.848 908.076,610.515 909.5,608.5 Z"/></g>
<g><path style="opacity:0.996" fill="#8ddefc" d="M 922.5,610.5 C 927.167,612.552 927.334,614.552 923,616.5C 918.657,614.969 918.49,612.969 922.5,610.5 Z"/></g>
<g><path style="opacity:1" fill="#7eaeff" d="M 74.5,611.5 C 78.2249,611.537 79.5582,613.204 78.5,616.5C 73.7329,617.899 72.3996,616.232 74.5,611.5 Z"/></g>
<g><path style="opacity:0.996" fill="#8edcfc" d="M 918.5,620.5 C 924.175,620.86 924.842,622.86 920.5,626.5C 917.61,625.163 916.943,623.163 918.5,620.5 Z"/></g>
<g><path style="opacity:1" fill="#7daeff" d="M 78.5,620.5 C 82.2109,622.542 82.3775,624.875 79,627.5C 74.5466,625.345 74.3799,623.012 78.5,620.5 Z"/></g>
<g><path style="opacity:1" fill="#87b0ff" d="M 102.5,617.5 C 108.394,636.004 115.394,654.171 123.5,672C 121.167,673.667 118.833,675.333 116.5,677C 115.365,677.749 114.365,677.583 113.5,676.5C 106.647,661.133 100.647,645.467 95.5,629.5C 96.1174,629.389 96.6174,629.056 97,628.5C 97.9734,630.392 98.6401,632.392 99,634.5C 99.4189,630.148 100.086,629.815 101,633.5C 103.872,628.141 103.705,623.141 100.5,618.5C 101.2,618.213 101.867,617.88 102.5,617.5 Z"/></g>
<g><path style="opacity:0.996" fill="#88d8fc" d="M 915.5,629.5 C 920.159,629.015 921.492,630.848 919.5,635C 914.728,635.81 913.395,633.977 915.5,629.5 Z"/></g>
<g><path style="opacity:1" fill="#7eadff" d="M 79.5,630.5 C 83.909,629.899 85.2424,631.566 83.5,635.5C 79.3169,636.309 77.9836,634.642 79.5,630.5 Z"/></g>
<g><path style="opacity:1" fill="#b9d4ff" d="M 150.5,645.5 C 170.992,693.471 200.159,735.471 238,771.5C 238.667,772.5 238.667,773.5 238,774.5C 235.297,777.371 232.464,780.038 229.5,782.5C 228.25,782.577 227.417,783.244 227,784.5C 226.329,783.748 225.496,783.414 224.5,783.5C 188.277,748.857 159.944,709.023 139.5,664C 136.144,657.763 133.478,651.263 131.5,644.5C 130.658,641.502 130.158,638.502 130,635.5C 131.009,637.025 131.509,638.692 131.5,640.5C 136.409,639.398 141.242,638.065 146,636.5C 147.04,639.823 148.54,642.823 150.5,645.5 Z"/></g>
<g><path style="opacity:0.99" fill="#b1c9ff" d="M 933.5,624.5 C 932.293,627.946 932.46,631.279 934,634.5C 935.147,633.542 936.147,633.875 937,635.5C 937.914,631.815 938.581,632.148 939,636.5C 939.333,636.167 939.667,635.833 940,635.5C 940.29,637.044 940.956,638.377 942,639.5C 944.484,637.385 945.317,634.885 944.5,632C 945.691,631.302 946.691,630.469 947.5,629.5C 943.117,647.657 936.784,664.991 928.5,681.5C 923.999,679.084 919.666,676.417 915.5,673.5C 922.32,657.364 928.32,641.031 933.5,624.5 Z"/></g>
<g><path style="opacity:0.996" fill="#8ddafc" d="M 913.5,638.5 C 918.927,641.085 918.76,643.418 913,645.5C 910.912,642.956 911.079,640.623 913.5,638.5 Z"/></g>
<g><path style="opacity:1" fill="#7cacff" d="M 83.5,639.5 C 87.35,639.701 88.35,641.534 86.5,645C 81.7217,645.073 80.7217,643.24 83.5,639.5 Z"/></g>
<g><path style="opacity:1" fill="#7eadff" d="M 86.5,648.5 C 88.6348,648.147 89.9681,648.98 90.5,651C 86.3151,655.669 84.9817,654.836 86.5,648.5 Z"/></g>
<g><path style="opacity:0.996" fill="#8ce0fc" d="M 910.5,647.5 C 915.794,650.95 915.127,652.95 908.5,653.5C 908.259,651.114 908.925,649.114 910.5,647.5 Z"/></g>
<g><path style="opacity:0.996" fill="#8edcfc" d="M 905.5,657.5 C 909.909,656.899 911.242,658.566 909.5,662.5C 905.317,663.309 903.984,661.642 905.5,657.5 Z"/></g>
<g><path style="opacity:0.996" fill="#8ddffc" d="M 903.5,665.5 C 908.429,667.572 908.596,669.905 904,672.5C 899.601,670.32 899.434,667.987 903.5,665.5 Z"/></g>
<g><path style="opacity:1" fill="#629eff" d="M 78.5,669.5 C 79.8221,669.33 80.9887,669.663 82,670.5C 137.485,798.496 231.319,884.829 363.5,929.5C 363.833,930.167 364.167,930.833 364.5,931.5C 363.314,935.761 362.647,940.094 362.5,944.5C 328.806,935.157 296.806,921.657 266.5,904C 174.117,849.48 107.45,772.98 66.5,674.5C 70.5906,672.81 74.5906,671.144 78.5,669.5 Z"/></g>
<g><path style="opacity:0.996" fill="#91dcfc" d="M 897.5,675.5 C 899.199,675.34 900.866,675.506 902.5,676C 903.833,677.333 903.833,678.667 902.5,680C 900.866,680.494 899.199,680.66 897.5,680.5C 897.5,678.833 897.5,677.167 897.5,675.5 Z"/></g>
<g><path style="opacity:0.745" fill="#a0caff" d="M 897.5,684.5 C 895.938,684.733 894.605,685.4 893.5,686.5C 893.958,683.691 895.291,683.024 897.5,684.5 Z"/></g>
<g><path style="opacity:0.996" fill="#8de3fb" d="M 897.5,684.5 C 899.088,685.635 899.421,686.969 898.5,688.5C 895.83,690.09 894.163,689.423 893.5,686.5C 894.605,685.4 895.938,684.733 897.5,684.5 Z"/></g>
<g><path style="opacity:0.996" fill="#96dafd" d="M 890.5,692.5 C 894.35,692.701 895.35,694.534 893.5,698C 888.722,698.073 887.722,696.24 890.5,692.5 Z"/></g>
<g><path style="opacity:1" fill="#9bd9fe" d="M 885.5,701.5 C 891.175,701.86 891.842,703.86 887.5,707.5C 884.61,706.163 883.943,704.163 885.5,701.5 Z"/></g>
<g><path style="opacity:1" fill="#9dd8fe" d="M 881.5,709.5 C 885.013,710.028 886.013,711.862 884.5,715C 879.289,715.546 878.289,713.713 881.5,709.5 Z"/></g>
<g><path style="opacity:1" fill="#9cd9fe" d="M 875.5,718.5 C 880.159,718.015 881.492,719.848 879.5,724C 875.272,724.272 873.938,722.438 875.5,718.5 Z"/></g>
<g><path style="opacity:1" fill="#9cd7fe" d="M 871.5,726.5 C 875.35,726.701 876.35,728.534 874.5,732C 869.722,732.073 868.722,730.24 871.5,726.5 Z"/></g>
<g><path style="opacity:1" fill="#9ed7fe" d="M 866.5,734.5 C 870.35,734.701 871.35,736.534 869.5,740C 864.289,740.546 863.289,738.713 866.5,734.5 Z"/></g>
<g><path style="opacity:1" fill="#9bbaff" d="M 177.5,759.5 C 178.898,764.068 178.398,764.402 176,760.5C 175.25,761.126 174.416,761.626 173.5,762C 173.833,762.333 174.167,762.667 174.5,763C 172.751,763.785 171.084,764.618 169.5,765.5C 162.914,758.74 157.248,751.24 152.5,743C 154.203,739.504 156.87,737.504 160.5,737C 166.054,744.619 171.721,752.119 177.5,759.5 Z"/></g>
<g><path style="opacity:1" fill="#7eadff" d="M 134.5,743.5 C 136.167,743.5 137.833,743.5 139.5,743.5C 139.5,745.167 139.5,746.833 139.5,748.5C 134.966,749.107 133.3,747.44 134.5,743.5 Z"/></g>
<g><path style="opacity:1" fill="#9dd8fe" d="M 861.5,742.5 C 866.229,743.926 866.562,745.926 862.5,748.5C 858.986,747.101 858.653,745.101 861.5,742.5 Z"/></g>
<g><path style="opacity:1" fill="#82b0ff" d="M 141.5,750.5 C 144.966,751.109 145.966,752.942 144.5,756C 139.289,756.546 138.289,754.713 141.5,750.5 Z"/></g>
<g><path style="opacity:1" fill="#81afff" d="M 146.5,758.5 C 150.225,758.537 151.558,760.204 150.5,763.5C 145.733,764.899 144.4,763.232 146.5,758.5 Z"/></g>
<g><path style="opacity:1" fill="#a5c1ff" d="M 177.5,759.5 C 195.467,780.467 214.8,800.134 235.5,818.5C 234.91,819.766 234.41,821.099 234,822.5C 232.008,823.328 230.508,824.661 229.5,826.5C 206.822,808.822 186.822,788.489 169.5,765.5C 171.084,764.618 172.751,763.785 174.5,763C 174.167,762.667 173.833,762.333 173.5,762C 174.416,761.626 175.25,761.126 176,760.5C 178.398,764.402 178.898,764.068 177.5,759.5 Z"/></g>
<g><path style="opacity:1" fill="#81aeff" d="M 152.5,766.5 C 156.35,766.701 157.35,768.534 155.5,772C 151.537,772.118 150.537,770.284 152.5,766.5 Z"/></g>
<g><path style="opacity:1" fill="#9abaff" d="M 813.5,735.5 C 814.167,736.167 814.833,736.833 815.5,737.5C 795.242,764.425 771.909,788.425 745.5,809.5C 743.767,808.992 743.434,808.159 744.5,807C 742.438,804.932 741.272,802.432 741,799.5C 739.899,797.606 738.566,796.939 737,797.5C 736.544,796.256 737.044,795.423 738.5,795C 737.584,794.722 736.918,794.222 736.5,793.5C 743.845,786.988 751.345,780.655 759,774.5C 762.988,777.154 766.321,780.488 769,784.5C 784.807,768.869 799.641,752.535 813.5,735.5 Z"/></g>
<g><path style="opacity:1" fill="#a1beff" d="M 833.5,824.5 C 832.527,822.851 831.527,821.184 830.5,819.5C 831.043,818.136 831.21,816.803 831,815.5C 829.667,814.833 828.667,813.833 828,812.5C 827.667,813.167 827.333,813.833 827,814.5C 826.292,813.619 825.458,812.953 824.5,812.5C 830.61,805.792 836.61,798.959 842.5,792C 843.5,791.333 844.5,791.333 845.5,792C 848.98,794.646 852.314,797.479 855.5,800.5C 849.082,809.332 841.749,817.332 833.5,824.5 Z"/></g>
<g><path style="opacity:1" fill="#a5c0ff" d="M 736.5,793.5 C 736.918,794.222 737.584,794.722 738.5,795C 737.044,795.423 736.544,796.256 737,797.5C 738.566,796.939 739.899,797.606 741,799.5C 741.272,802.432 742.438,804.932 744.5,807C 743.434,808.159 743.767,808.992 745.5,809.5C 715.381,833.909 682.047,853.242 645.5,867.5C 644.737,866.732 643.737,866.232 642.5,866C 644.991,865.374 644.991,864.541 642.5,863.5C 643.651,862.269 644.817,862.269 646,863.5C 648,862.5 648,861.5 646,860.5C 644.16,861.833 643.66,861.666 644.5,860C 642.234,858.143 642.568,856.476 645.5,855C 645.056,853.238 644.556,853.405 644,855.5C 643.712,852.713 642.212,851.047 639.5,850.5C 674.827,836.346 707.16,817.346 736.5,793.5 Z"/></g>
<g><path style="opacity:1" fill="#a0e2fd" d="M 665.5,889.5 C 662.759,889.707 660.426,890.707 658.5,892.5C 649.872,896.601 640.872,899.934 631.5,902.5C 630.178,902.67 629.011,902.337 628,901.5C 624.871,903.263 621.705,904.93 618.5,906.5C 617.432,907.434 616.099,907.768 614.5,907.5C 613.167,907.5 611.833,907.5 610.5,907.5C 609.847,906.193 609.18,904.86 608.5,903.5C 609.529,903.704 610.529,903.204 611.5,902C 610.269,900.817 610.269,899.651 611.5,898.5C 612.944,899.981 613.611,899.648 613.5,897.5C 616.152,897.59 618.485,896.924 620.5,895.5C 622.214,894.262 624.214,893.595 626.5,893.5C 630.915,893.139 634.915,891.806 638.5,889.5C 653.505,883.381 668.505,877.047 683.5,870.5C 686.331,869.921 688.664,868.588 690.5,866.5C 721.018,850.73 749.018,831.23 774.5,808C 777.945,809.407 780.945,811.741 783.5,815C 748.59,846.634 709.257,871.467 665.5,889.5 Z"/></g>
<g><path style="opacity:1" fill="#98b8ff" d="M 824.5,812.5 C 825.458,812.953 826.292,813.619 827,814.5C 827.333,813.833 827.667,813.167 828,812.5C 828.667,813.833 829.667,814.833 831,815.5C 831.21,816.803 831.043,818.136 830.5,819.5C 831.527,821.184 832.527,822.851 833.5,824.5C 806.986,852.565 777.319,876.565 744.5,896.5C 743.64,894.184 743.14,891.851 743,889.5C 743.626,891.991 744.459,891.991 745.5,889.5C 746.768,890.428 748.101,890.595 749.5,890C 748.333,889.5 747.5,888.667 747,887.5C 745.16,888.833 744.66,888.666 745.5,887C 745.198,885.345 743.864,884.012 741.5,883C 742.167,882.667 742.833,882.333 743.5,882C 742.584,881.722 741.918,881.222 741.5,880.5C 771.467,860.888 799.134,838.221 824.5,812.5 Z"/></g>
<g><path style="opacity:0.986" fill="#afc8ff" d="M 235.5,818.5 C 251.157,830.328 267.157,841.661 283.5,852.5C 282.504,852.414 281.671,852.748 281,853.5C 280.667,852.833 280.333,852.167 280,851.5C 278.709,854.824 276.543,857.157 273.5,858.5C 257.97,848.962 243.303,838.295 229.5,826.5C 230.508,824.661 232.008,823.328 234,822.5C 234.41,821.099 234.91,819.766 235.5,818.5 Z"/></g>
<g><path style="opacity:1" fill="#88b3ff" d="M 228.5,841.5 C 231.966,842.109 232.966,843.942 231.5,847C 228.763,848.08 227.096,847.246 226.5,844.5C 226.942,843.261 227.609,842.261 228.5,841.5 Z"/></g>
<g><path style="opacity:1" fill="#8ab4ff" d="M 235.5,847.5 C 239.35,847.701 240.35,849.534 238.5,853C 234.537,853.118 233.537,851.284 235.5,847.5 Z"/></g>
<g><path style="opacity:1" fill="#adcdff" d="M 229.5,782.5 C 230.203,784.716 231.536,786.549 233.5,788C 270.176,821.272 311.676,847.105 358,865.5C 358.232,864.263 358.732,863.263 359.5,862.5C 359.5,863.833 359.5,865.167 359.5,866.5C 357.901,866.232 356.568,866.566 355.5,867.5C 305.756,848.805 262.089,820.805 224.5,783.5C 225.496,783.414 226.329,783.748 227,784.5C 227.417,783.244 228.25,782.577 229.5,782.5 Z"/></g>
<g><path style="opacity:1" fill="#b9d2ff" d="M 366.5,853.5 C 367.014,855.868 368.18,857.868 370,859.5C 370.483,858.552 370.649,857.552 370.5,856.5C 373.238,855.965 375.072,856.965 376,859.5C 378.147,858.524 380.314,858.691 382.5,860C 381.167,860.667 381.167,861.333 382.5,862C 379.833,862.667 379.833,863.333 382.5,864C 380.641,864.684 378.974,865.684 377.5,867C 379.108,867.658 380.275,867.158 381,865.5C 382.987,867.679 382.82,869.512 380.5,871C 382.101,871.273 383.601,871.773 385,872.5C 385.311,871.258 384.811,870.258 383.5,869.5C 383.977,868.069 384.643,866.736 385.5,865.5C 385.911,866.262 386.077,867.262 386,868.5C 387.067,869.191 388.234,869.691 389.5,870C 388.529,871.204 387.529,871.704 386.5,871.5C 386.569,873.278 386.903,875.111 387.5,877C 385.892,877.658 384.725,877.158 384,875.5C 382.989,876.337 381.822,876.67 380.5,876.5C 371.722,874.465 363.389,871.465 355.5,867.5C 356.568,866.566 357.901,866.232 359.5,866.5C 359.5,865.167 359.5,863.833 359.5,862.5C 360.045,858.529 361.379,854.862 363.5,851.5C 364.739,851.942 365.739,852.609 366.5,853.5 Z"/></g>
<g><path style="opacity:1" fill="#89b3ff" d="M 242.5,853.5 C 247.159,853.015 248.492,854.848 246.5,859C 242.272,859.272 240.938,857.438 242.5,853.5 Z"/></g>
<g><path style="opacity:1" fill="#b7cdff" d="M 366.5,853.5 C 427.553,875.321 490.22,881.987 554.5,873.5C 556.103,873.312 557.437,873.812 558.5,875C 557.167,876.333 555.833,877.667 554.5,879C 555.727,880.587 555.394,881.921 553.5,883C 554.715,885.096 555.549,884.929 556,882.5C 558.113,884.271 557.947,885.771 555.5,887C 557.183,888.286 558.849,889.453 560.5,890.5C 550.646,891.961 540.812,893.294 531,894.5C 510.039,894.642 488.872,894.476 467.5,894C 437.638,891.794 408.638,885.961 380.5,876.5C 381.822,876.67 382.989,876.337 384,875.5C 384.725,877.158 385.892,877.658 387.5,877C 386.903,875.111 386.569,873.278 386.5,871.5C 387.529,871.704 388.529,871.204 389.5,870C 388.234,869.691 387.067,869.191 386,868.5C 386.077,867.262 385.911,866.262 385.5,865.5C 384.643,866.736 383.977,868.069 383.5,869.5C 384.811,870.258 385.311,871.258 385,872.5C 383.601,871.773 382.101,871.273 380.5,871C 382.82,869.512 382.987,867.679 381,865.5C 380.275,867.158 379.108,867.658 377.5,867C 378.974,865.684 380.641,864.684 382.5,864C 379.833,863.333 379.833,862.667 382.5,862C 381.167,861.333 381.167,860.667 382.5,860C 380.314,858.691 378.147,858.524 376,859.5C 375.072,856.965 373.238,855.965 370.5,856.5C 370.649,857.552 370.483,858.552 370,859.5C 368.18,857.868 367.014,855.868 366.5,853.5 Z"/></g>
<g><path style="opacity:0.99" fill="#b0c7ff" d="M 639.5,850.5 C 642.212,851.047 643.712,852.713 644,855.5C 644.556,853.405 645.056,853.238 645.5,855C 642.568,856.476 642.234,858.143 644.5,860C 643.66,861.666 644.16,861.833 646,860.5C 648,861.5 648,862.5 646,863.5C 644.817,862.269 643.651,862.269 642.5,863.5C 644.991,864.541 644.991,865.374 642.5,866C 643.737,866.232 644.737,866.732 645.5,867.5C 617.73,878.188 589.396,885.854 560.5,890.5C 558.849,889.453 557.183,888.286 555.5,887C 557.947,885.771 558.113,884.271 556,882.5C 555.549,884.929 554.715,885.096 553.5,883C 555.394,881.921 555.727,880.587 554.5,879C 555.833,877.667 557.167,876.333 558.5,875C 557.437,873.812 556.103,873.312 554.5,873.5C 583.461,868.508 611.795,860.841 639.5,850.5 Z"/></g>
<g><path style="opacity:1" fill="#86b1ff" d="M 252.5,858.5 C 256.457,860.63 256.457,862.63 252.5,864.5C 248.874,862.712 248.874,860.712 252.5,858.5 Z"/></g>
<g><path style="opacity:1" fill="#b5cdff" d="M 283.5,852.5 C 315.623,871.763 349.623,886.763 385.5,897.5C 381.27,898.391 378.937,900.725 378.5,904.5C 381.57,906.399 384.736,907.065 388,906.5C 388.953,908.592 390.286,908.925 392,907.5C 392.953,909.592 394.286,909.925 396,908.5C 397.57,909.549 399.07,910.549 400.5,911.5C 355.282,901.41 312.948,883.743 273.5,858.5C 276.543,857.157 278.709,854.824 280,851.5C 280.333,852.167 280.667,852.833 281,853.5C 281.671,852.748 282.504,852.414 283.5,852.5 Z"/></g>
<g><path style="opacity:1" fill="#8bb5ff" d="M 258.5,864.5 C 263.828,864.036 265.161,865.869 262.5,870C 258.272,870.272 256.938,868.438 258.5,864.5 Z"/></g>
<g><path style="opacity:0.745" fill="#9cc5ff" d="M 690.5,866.5 C 688.664,868.588 686.331,869.921 683.5,870.5C 685.336,868.412 687.669,867.079 690.5,866.5 Z"/></g>
<g><path style="opacity:1" fill="#8cb5ff" d="M 267.5,869.5 C 272.041,869.815 273.041,871.649 270.5,875C 266.537,875.118 265.537,873.284 267.5,869.5 Z"/></g>
<g><path style="opacity:1" fill="#8ab5ff" d="M 275.5,874.5 C 280.159,874.015 281.492,875.848 279.5,880C 274.728,880.81 273.395,878.977 275.5,874.5 Z"/></g>
<g><path style="opacity:1" fill="#90b6ff" d="M 283.5,879.5 C 288.159,879.015 289.492,880.848 287.5,885C 286.216,885.684 285.049,885.517 284,884.5C 283.506,882.866 283.34,881.199 283.5,879.5 Z"/></g>
<g><path style="opacity:1" fill="#90b7ff" d="M 293.5,883.5 C 298.038,884.948 298.538,887.282 295,890.5C 291.056,888.845 290.556,886.512 293.5,883.5 Z"/></g>
<g><path style="opacity:1" fill="#94b9ff" d="M 301.5,888.5 C 306.041,888.815 307.041,890.649 304.5,894C 300.537,894.118 299.537,892.284 301.5,888.5 Z"/></g>
<g><path style="opacity:0.537" fill="#a0c8ff" d="M 665.5,889.5 C 663.574,891.293 661.241,892.293 658.5,892.5C 660.426,890.707 662.759,889.707 665.5,889.5 Z"/></g>
<g><path style="opacity:0.992" fill="#a4c6ff" d="M 638.5,889.5 C 634.915,891.806 630.915,893.139 626.5,893.5C 630.216,891.595 634.216,890.261 638.5,889.5 Z"/></g>
<g><path style="opacity:1" fill="#94baff" d="M 310.5,892.5 C 314.35,892.701 315.35,894.534 313.5,898C 308.676,898.183 307.676,896.35 310.5,892.5 Z"/></g>
<g><path style="opacity:1" fill="#89b0ff" d="M 741.5,880.5 C 741.918,881.222 742.584,881.722 743.5,882C 742.833,882.333 742.167,882.667 741.5,883C 743.864,884.012 745.198,885.345 745.5,887C 744.66,888.666 745.16,888.833 747,887.5C 747.5,888.667 748.333,889.5 749.5,890C 748.101,890.595 746.768,890.428 745.5,889.5C 744.459,891.991 743.626,891.991 743,889.5C 743.14,891.851 743.64,894.184 744.5,896.5C 718.521,912.489 691.188,925.822 662.5,936.5C 662.033,933.174 660.866,932.841 659,935.5C 658.333,932.833 657.667,932.833 657,935.5C 656.042,932.426 654.875,929.426 653.5,926.5C 651.891,926.611 650.225,926.278 648.5,925.5C 680.929,913.452 711.929,898.452 741.5,880.5 Z"/></g>
<g><path style="opacity:0.992" fill="#a3c6ff" d="M 620.5,895.5 C 618.485,896.924 616.152,897.59 613.5,897.5C 615.515,896.076 617.848,895.41 620.5,895.5 Z"/></g>
<g><path style="opacity:1" fill="#96bcff" d="M 319.5,896.5 C 323.013,897.028 324.013,898.862 322.5,902C 317.289,902.546 316.289,900.713 319.5,896.5 Z"/></g>
<g><path style="opacity:1" fill="#b9d4ff" d="M 385.5,897.5 C 411.744,904.541 438.41,909.207 465.5,911.5C 467.5,912.167 469.5,912.833 471.5,913.5C 470.781,915.091 469.781,916.591 468.5,918C 469.328,918.915 470.328,919.581 471.5,920C 470.584,920.278 469.918,920.778 469.5,921.5C 449.358,919.861 429.358,917.194 409.5,913.5C 406.219,913.58 403.219,912.913 400.5,911.5C 399.07,910.549 397.57,909.549 396,908.5C 394.286,909.925 392.953,909.592 392,907.5C 390.286,908.925 388.953,908.592 388,906.5C 384.736,907.065 381.57,906.399 378.5,904.5C 378.937,900.725 381.27,898.391 385.5,897.5 Z"/></g>
<g><path style="opacity:1" fill="#aae2fe" d="M 613.5,897.5 C 613.611,899.648 612.944,899.981 611.5,898.5C 610.269,899.651 610.269,900.817 611.5,902C 610.529,903.204 609.529,903.704 608.5,903.5C 609.18,904.86 609.847,906.193 610.5,907.5C 606.5,908.833 602.5,910.167 598.5,911.5C 597.432,912.434 596.099,912.768 594.5,912.5C 583.096,914.289 571.763,916.289 560.5,918.5C 559.859,917.518 559.193,916.518 558.5,915.5C 560.69,913.993 562.024,911.993 562.5,909.5C 576.478,907.448 589.811,904.448 602.5,900.5C 605.854,898.742 609.521,897.742 613.5,897.5 Z"/></g>
<g><path style="opacity:1" fill="#96bcff" d="M 328.5,900.5 C 332.35,900.701 333.35,902.534 331.5,906C 326.289,906.546 325.289,904.713 328.5,900.5 Z"/></g>
<g><path style="opacity:0.059" fill="#9cc8ff" d="M 631.5,902.5 C 627.405,904.279 623.072,905.612 618.5,906.5C 621.705,904.93 624.871,903.263 628,901.5C 629.011,902.337 630.178,902.67 631.5,902.5 Z"/></g>
<g><path style="opacity:1" fill="#97bcff" d="M 336.5,904.5 C 340.909,903.899 342.242,905.566 340.5,909.5C 336.317,910.309 334.984,908.642 336.5,904.5 Z"/></g>
<g><path style="opacity:0.931" fill="#a6c9ff" d="M 602.5,900.5 C 589.811,904.448 576.478,907.448 562.5,909.5C 558.19,910.08 553.857,910.414 549.5,910.5C 567.147,907.705 584.813,904.372 602.5,900.5 Z"/></g>
<g><path style="opacity:1" fill="#98bdff" d="M 346.5,907.5 C 350.013,908.028 351.013,909.862 349.5,913C 344.289,913.546 343.289,911.713 346.5,907.5 Z"/></g>
<g><path style="opacity:1" fill="#b0ceff" d="M 650.5,907.5 C 654.35,907.701 655.35,909.534 653.5,913C 650.888,913.741 649.222,912.741 648.5,910C 649.381,909.292 650.047,908.458 650.5,907.5 Z"/></g>
<g><path style="opacity:1" fill="#b2defe" d="M 562.5,909.5 C 562.024,911.993 560.69,913.993 558.5,915.5C 559.193,916.518 559.859,917.518 560.5,918.5C 539.411,921.222 518.411,922.555 497.5,922.5C 498.706,921.12 498.373,919.953 496.5,919C 496.854,917.374 496.854,915.541 496.5,913.5C 503.022,913.823 509.355,913.49 515.5,912.5C 515.833,912.5 516.167,912.5 516.5,912.5C 518.134,913.161 519.967,913.494 522,913.5C 528.016,913.128 533.849,912.462 539.5,911.5C 542.728,910.586 546.061,910.253 549.5,910.5C 553.857,910.414 558.19,910.08 562.5,909.5 Z"/></g>
<g><path style="opacity:0.104" fill="#9dc8ff" d="M 610.5,907.5 C 611.833,907.5 613.167,907.5 614.5,907.5C 609.503,909.749 604.17,911.083 598.5,911.5C 602.5,910.167 606.5,908.833 610.5,907.5 Z"/></g>
<g><path style="opacity:1" fill="#aecdff" d="M 641.5,910.5 C 645.013,911.028 646.013,912.862 644.5,916C 639.289,916.546 638.289,914.713 641.5,910.5 Z"/></g>
<g><path style="opacity:1" fill="#98bdff" d="M 354.5,911.5 C 356.167,911.5 357.833,911.5 359.5,911.5C 359.5,913.167 359.5,914.833 359.5,916.5C 354.585,917.59 352.919,915.923 354.5,911.5 Z"/></g>
<g><path style="opacity:0.085" fill="#96c4ff" d="M 465.5,911.5 C 482.151,912.353 498.818,912.687 515.5,912.5C 509.355,913.49 503.022,913.823 496.5,913.5C 488.167,913.5 479.833,913.5 471.5,913.5C 469.5,912.833 467.5,912.167 465.5,911.5 Z"/></g>
<g><path style="opacity:0.537" fill="#a3caff" d="M 539.5,911.5 C 533.849,912.462 528.016,913.128 522,913.5C 519.967,913.494 518.134,913.161 516.5,912.5C 524.154,911.93 531.821,911.596 539.5,911.5 Z"/></g>
<g><path style="opacity:1" fill="#9abeff" d="M 365.5,913.5 C 370.429,915.572 370.596,917.905 366,920.5C 362.887,918.324 362.72,915.991 365.5,913.5 Z"/></g>
<g><path style="opacity:1" fill="#b8daff" d="M 471.5,913.5 C 479.833,913.5 488.167,913.5 496.5,913.5C 496.854,915.541 496.854,917.374 496.5,919C 498.373,919.953 498.706,921.12 497.5,922.5C 493.958,922.187 490.625,922.521 487.5,923.5C 487.167,923.5 486.833,923.5 486.5,923.5C 481.027,922.383 475.36,921.717 469.5,921.5C 469.918,920.778 470.584,920.278 471.5,920C 470.328,919.581 469.328,918.915 468.5,918C 469.781,916.591 470.781,915.091 471.5,913.5 Z"/></g>
<g><path style="opacity:0.537" fill="#a1c6ff" d="M 409.5,913.5 C 429.358,917.194 449.358,919.861 469.5,921.5C 475.36,921.717 481.027,922.383 486.5,923.5C 464.799,922.98 443.299,920.647 422,916.5C 421.228,916.645 420.561,916.978 420,917.5C 416.572,915.855 413.072,914.522 409.5,913.5 Z"/></g>
<g><path style="opacity:1" fill="#accbff" d="M 622.5,916.5 C 626.485,916.629 627.818,918.463 626.5,922C 621.728,922.81 620.395,920.977 622.5,916.5 Z"/></g>
<g><path style="opacity:1" fill="#afccff" d="M 632.5,913.5 C 635.966,914.109 636.966,915.942 635.5,919C 630.289,919.546 629.289,917.713 632.5,913.5 Z"/></g>
<g><path style="opacity:1" fill="#98bcff" d="M 374.5,916.5 C 379.543,918.467 379.71,920.8 375,923.5C 371.879,921.326 371.712,918.993 374.5,916.5 Z"/></g>
<g><path style="opacity:1" fill="#9ec1ff" d="M 383.5,919.5 C 387.35,919.701 388.35,921.534 386.5,925C 381.676,925.183 380.676,923.35 383.5,919.5 Z"/></g>
<g><path style="opacity:0.089" fill="#9fc8ff" d="M 594.5,912.5 C 559.485,921.102 523.818,924.769 487.5,923.5C 490.625,922.521 493.958,922.187 497.5,922.5C 518.411,922.555 539.411,921.222 560.5,918.5C 571.763,916.289 583.096,914.289 594.5,912.5 Z"/></g>
<g><path style="opacity:1" fill="#aecaff" d="M 613.5,919.5 C 617.35,919.701 618.35,921.534 616.5,925C 612.537,925.118 611.537,923.284 613.5,919.5 Z"/></g>
<g><path style="opacity:1" fill="#abc9ff" d="M 604.5,921.5 C 608.013,922.028 609.013,923.862 607.5,927C 602.289,927.546 601.289,925.713 604.5,921.5 Z"/></g>
<g><path style="opacity:0.537" fill="#a2c6ff" d="M 391.5,922.5 C 393.199,922.34 394.866,922.506 396.5,923C 397.995,926.841 396.661,928.174 392.5,927C 391.62,925.644 391.286,924.144 391.5,922.5 Z"/></g>
<g><path style="opacity:1" fill="#a0c2ff" d="M 401.5,924.5 C 406.877,924.689 407.711,926.689 404,930.5C 400.702,929.427 399.868,927.427 401.5,924.5 Z"/></g>
<g><path style="opacity:1" fill="#afcdff" d="M 593.5,924.5 C 596.045,924.151 598.045,924.984 599.5,927C 598.045,929.016 596.045,929.849 593.5,929.5C 593.5,927.833 593.5,926.167 593.5,924.5 Z"/></g>
<g><path style="opacity:1" fill="#a1c3ff" d="M 411.5,926.5 C 413.958,926.227 415.625,927.227 416.5,929.5C 414.449,933.466 412.449,933.466 410.5,929.5C 410.685,928.416 411.018,927.416 411.5,926.5 Z"/></g>
<g><path style="opacity:1" fill="#aecbff" d="M 584.5,926.5 C 588.138,925.737 589.638,927.07 589,930.5C 584.415,932.413 582.915,931.079 584.5,926.5 Z"/></g>
<g><path style="opacity:1" fill="#aecdff" d="M 576.5,927.5 C 581.254,928.967 581.587,930.967 577.5,933.5C 573.986,932.101 573.653,930.101 576.5,927.5 Z"/></g>
<g><path style="opacity:1" fill="#a2c2ff" d="M 420.5,928.5 C 424.138,927.737 425.638,929.07 425,932.5C 420.415,934.413 418.915,933.079 420.5,928.5 Z"/></g>
<g><path style="opacity:1" fill="#a0c3ff" d="M 430.5,929.5 C 434.225,929.537 435.558,931.204 434.5,934.5C 429.733,935.899 428.4,934.232 430.5,929.5 Z"/></g>
<g><path style="opacity:1" fill="#aac9ff" d="M 565.5,929.5 C 571.039,929.965 571.873,932.299 568,936.5C 564.564,935.086 563.73,932.753 565.5,929.5 Z"/></g>
<g><path style="opacity:0.745" fill="#a3c8ff" d="M 440.5,930.5 C 443.697,931.112 445.031,933.112 444.5,936.5C 438.541,937.222 437.207,935.222 440.5,930.5 Z"/></g>
<g><path style="opacity:1" fill="#a2c3ff" d="M 449.5,932.5 C 455.175,932.86 455.842,934.86 451.5,938.5C 448.61,937.163 447.943,935.163 449.5,932.5 Z"/></g>
<g><path style="opacity:0.745" fill="#a3c8ff" d="M 460.5,932.5 C 465.561,934.509 465.727,936.843 461,939.5C 457.887,937.324 457.72,934.991 460.5,932.5 Z"/></g>
<g><path style="opacity:1" fill="#accbff" d="M 547.5,931.5 C 552.306,933.241 552.639,935.574 548.5,938.5C 544.865,936.678 544.531,934.344 547.5,931.5 Z"/></g>
<g><path style="opacity:0.871" fill="#a9ccff" d="M 556.5,930.5 C 560.054,930.658 561.387,932.325 560.5,935.5C 554.6,937.273 553.267,935.607 556.5,930.5 Z"/></g>
<g><path style="opacity:0.959" fill="#aacaff" d="M 527.5,933.5 C 530.114,933.277 531.781,934.444 532.5,937C 530.167,940.333 527.833,940.333 525.5,937C 526.305,935.887 526.972,934.721 527.5,933.5 Z"/></g>
<g><path style="opacity:1" fill="#accbff" d="M 537.5,932.5 C 542.038,933.948 542.538,936.282 539,939.5C 535.056,937.845 534.556,935.512 537.5,932.5 Z"/></g>
<g><path style="opacity:1" fill="#7eabff" d="M 648.5,925.5 C 650.225,926.278 651.891,926.611 653.5,926.5C 654.875,929.426 656.042,932.426 657,935.5C 657.667,932.833 658.333,932.833 659,935.5C 660.866,932.841 662.033,933.174 662.5,936.5C 636.242,946.482 609.242,953.815 581.5,958.5C 577.155,950.953 578.322,949.953 585,955.5C 586.751,953.169 586.585,950.836 584.5,948.5C 586.636,944.913 585.303,943.246 580.5,943.5C 603.345,938.558 626.012,932.558 648.5,925.5 Z"/></g>
<g><path style="opacity:0.992" fill="#a3c6ff" d="M 469.5,933.5 C 473.35,933.701 474.35,935.534 472.5,939C 467.289,939.546 466.289,937.713 469.5,933.5 Z"/></g>
<g><path style="opacity:0.972" fill="#a5c6ff" d="M 478.5,934.5 C 483.937,934.649 484.771,936.649 481,940.5C 477.708,939.449 476.875,937.449 478.5,934.5 Z"/></g>
<g><path style="opacity:0.973" fill="#a7c7ff" d="M 488.5,934.5 C 492.225,934.537 493.558,936.204 492.5,939.5C 487.733,940.899 486.4,939.232 488.5,934.5 Z"/></g>
<g><path style="opacity:0.964" fill="#a8c7ff" d="M 498.5,934.5 C 502.35,934.701 503.35,936.534 501.5,940C 500.207,940.49 498.873,940.657 497.5,940.5C 497.325,938.379 497.659,936.379 498.5,934.5 Z"/></g>
<g><path style="opacity:0.983" fill="#a5c7ff" d="M 507.5,934.5 C 512.159,934.015 513.492,935.848 511.5,940C 506.728,940.81 505.395,938.977 507.5,934.5 Z"/></g>
<g><path style="opacity:0.992" fill="#a9c9ff" d="M 517.5,934.5 C 522.587,934.284 523.587,936.118 520.5,940C 516.537,940.118 515.537,938.284 517.5,934.5 Z"/></g>
<g><path style="opacity:1" fill="#75a6ff" d="M 580.5,943.5 C 585.303,943.246 586.636,944.913 584.5,948.5C 586.585,950.836 586.751,953.169 585,955.5C 578.322,949.953 577.155,950.953 581.5,958.5C 579.726,960.012 577.893,960.345 576,959.5C 572.141,959.951 568.474,960.951 565,962.5C 564.107,961.919 563.107,961.585 562,961.5C 553.552,962.442 545.219,963.775 537,965.5C 534.281,964.556 531.448,964.223 528.5,964.5C 524.958,964.187 521.625,964.521 518.5,965.5C 514.5,965.5 510.5,965.5 506.5,965.5C 506.5,960.5 506.5,955.5 506.5,950.5C 531.287,949.487 555.953,947.153 580.5,943.5 Z"/></g>
<g><path style="opacity:0.745" fill="#83b3ff" d="M 506.5,950.5 C 506.5,955.5 506.5,960.5 506.5,965.5C 505.503,965.53 504.836,965.03 504.5,964C 504.5,960 504.5,956 504.5,952C 504.836,950.97 505.503,950.47 506.5,950.5 Z"/></g>
<g><path style="opacity:0.4" fill="#8fbeff" d="M 518.5,965.5 C 521.625,964.521 524.958,964.187 528.5,964.5C 525.772,965.205 522.939,965.872 520,966.5C 519.617,965.944 519.117,965.611 518.5,965.5 Z"/></g>
</svg>
