<?xml version="1.0" encoding="UTF-8"?>
<!DOCTYPE svg PUBLIC "-//W3C//DTD SVG 1.1//EN" "http://www.w3.org/Graphics/SVG/1.1/DTD/svg11.dtd">
<svg xmlns="http://www.w3.org/2000/svg" version="1.1" width="679px" height="329px" style="shape-rendering:geometricPrecision; text-rendering:geometricPrecision; image-rendering:optimizeQuality; fill-rule:evenodd; clip-rule:evenodd" xmlns:xlink="http://www.w3.org/1999/xlink">
<g><path style="opacity:0.79" fill="#86fefc" d="M 290.5,-0.5 C 291.833,-0.5 293.167,-0.5 294.5,-0.5C 297.04,0.360865 299.04,2.02753 300.5,4.5C 383.165,5.66665 465.831,5.83332 548.5,5C 551.5,3 554.5,3 557.5,5C 596.5,5.33333 635.5,5.66667 674.5,6C 675.984,6.66218 677.317,7.49551 678.5,8.5C 678.5,17.1667 678.5,25.8333 678.5,34.5C 677.211,36.248 675.711,36.5814 674,35.5C 673.5,27.5069 673.334,19.5069 673.5,11.5C 635.499,11.3333 597.499,11.5 559.5,12C 555.167,18 550.833,18 546.5,12C 464.833,11.3333 383.167,11.3333 301.5,12C 295.5,20.6667 289.5,20.6667 283.5,12C 190.834,11.5 98.1673,11.3333 5.5,11.5C 5.66635,19.1739 5.49969,26.8406 5,34.5C 2.68826,37.1017 0.854923,36.7684 -0.5,33.5C -0.5,25.5 -0.5,17.5 -0.5,9.5C 0.748938,7.8639 2.4156,6.69724 4.5,6C 97.8351,5.83332 191.168,5.33332 284.5,4.5C 286.162,2.34834 288.162,0.681673 290.5,-0.5 Z"/></g>
<g><path style="opacity:0.396" fill="#86fffe" d="M 380.5,305.5 C 380.167,304.167 379.833,304.167 379.5,305.5C 363.665,305.838 347.331,305.838 330.5,305.5C 330.167,304.167 329.833,304.167 329.5,305.5C 325.5,306.833 321.5,306.833 317.5,305.5C 317.167,304.167 316.833,304.167 316.5,305.5C 255.775,306.049 195.441,306.049 135.5,305.5C 135.167,304.167 134.833,304.167 134.5,305.5C 121.45,305.6 108.45,305.6 95.5,305.5C 95.1667,304.167 94.8333,304.167 94.5,305.5C 75.6214,305.427 56.1214,305.76 36,306.5C 35.3333,303.833 34.6667,303.833 34,306.5C 32.0886,306.255 30.0886,306.255 28,306.5C 27.1667,305.667 26.3333,304.833 25.5,304C 25.5763,211.807 25.5763,117.974 25.5,22.5C 234.833,22.5 444.167,22.5 653.5,22.5C 653.624,117.368 653.457,211.702 653,305.5C 562.048,306.809 471.214,306.809 380.5,305.5 Z"/></g>
<g><path style="opacity:0.83" fill="#87fffc" d="M 678.5,293.5 C 678.5,302.5 678.5,311.5 678.5,320.5C 677.527,320.987 676.527,321.487 675.5,322C 592.498,322.167 509.498,322.667 426.5,323.5C 425.143,325.186 423.81,326.852 422.5,328.5C 419.833,328.5 417.167,328.5 414.5,328.5C 412.154,326.322 409.654,324.322 407,322.5C 308.517,322.875 210.017,323.042 111.5,323C 107.419,327.559 103.419,327.559 99.5,323C 67.5,322.667 35.5,322.333 3.5,322C 1.64977,321.31 0.316435,320.144 -0.5,318.5C -0.5,310.5 -0.5,302.5 -0.5,294.5C 1.09018,292.576 2.92351,292.243 5,293.5C 5.49971,301.493 5.66638,309.493 5.5,317.5C 36.8351,317.667 68.1684,317.5 99.5,317C 103.5,312.333 107.5,312.333 111.5,317C 210.017,316.958 308.517,317.125 407,317.5C 409.267,316.825 410.767,315.325 411.5,313C 418.263,308.792 423.596,310.125 427.5,317C 509.499,317.5 591.499,317.667 673.5,317.5C 673.334,309.493 673.5,301.493 674,293.5C 675.49,292.272 676.99,292.272 678.5,293.5 Z"/></g>
<g><path style="opacity:0.149" fill="#89fffe" d="M 94.5,305.5 C 94.8333,305.5 95.1667,305.5 95.5,305.5C 95.3147,306.17 94.9813,306.17 94.5,305.5 Z"/></g>
<g><path style="opacity:0.149" fill="#89fffe" d="M 134.5,305.5 C 134.833,305.5 135.167,305.5 135.5,305.5C 135.315,306.17 134.981,306.17 134.5,305.5 Z"/></g>
<g><path style="opacity:0.149" fill="#89fffe" d="M 316.5,305.5 C 316.833,305.5 317.167,305.5 317.5,305.5C 317.315,306.17 316.981,306.17 316.5,305.5 Z"/></g>
<g><path style="opacity:0.149" fill="#89fffe" d="M 329.5,305.5 C 329.833,305.5 330.167,305.5 330.5,305.5C 330.315,306.17 329.981,306.17 329.5,305.5 Z"/></g>
<g><path style="opacity:0.149" fill="#89fffe" d="M 379.5,305.5 C 379.833,305.5 380.167,305.5 380.5,305.5C 380.315,306.17 379.981,306.17 379.5,305.5 Z"/></g>
</svg>
