<?xml version="1.0" encoding="UTF-8"?>
<!DOCTYPE svg PUBLIC "-//W3C//DTD SVG 1.1//EN" "http://www.w3.org/Graphics/SVG/1.1/DTD/svg11.dtd">
<svg xmlns="http://www.w3.org/2000/svg" version="1.1" width="1000px" height="1500px" style="shape-rendering:geometricPrecision; text-rendering:geometricPrecision; image-rendering:optimizeQuality; fill-rule:evenodd; clip-rule:evenodd" xmlns:xlink="http://www.w3.org/1999/xlink">
<g><path style="opacity:0.568" fill="#b5b5b5" d="M -0.5,-0.5 C 12.1667,-0.5 24.8333,-0.5 37.5,-0.5C 85.1456,47.4791 132.812,95.4791 180.5,143.5C 160.014,164.486 139.347,185.32 118.5,206C 121.683,209.015 124.683,212.182 127.5,215.5C 123.167,220.167 118.833,224.833 114.5,229.5C 121.819,237.319 129.319,244.986 137,252.5C 204.368,184.965 271.868,117.632 339.5,50.5C 339.833,50.5 340.167,50.5 340.5,50.5C 341.5,51.5 342.5,52.5 343.5,53.5C 343.5,53.8333 343.5,54.1667 343.5,54.5C 275.368,123.132 207.035,191.632 138.5,260C 137.833,260.667 137.167,260.667 136.5,260C 127.667,251.167 118.833,242.333 110,233.5C 84.1667,259.333 58.3333,285.167 32.5,311C 31.8333,311.667 31.1667,311.667 30.5,311C 27.6667,308.167 24.8333,305.333 22,302.5C 14.6316,310.036 7.13158,317.369 -0.5,324.5C -0.5,309.833 -0.5,295.167 -0.5,280.5C 7.11003,287.273 14.61,294.273 22,301.5C 22.1667,301 22.3333,300.5 22.5,300C 15.3409,291.674 7.67421,283.841 -0.5,276.5C -0.5,235.833 -0.5,195.167 -0.5,154.5C 4.63128,149.87 9.63128,145.037 14.5,140C 15.1667,139.333 15.8333,139.333 16.5,140C 44.3333,167.833 72.1667,195.667 100,223.5C 101.983,222.234 102.983,220.568 103,218.5C 75.1667,190.667 47.3333,162.833 19.5,135C 23.3484,130.984 27.3484,127.151 31.5,123.5C 59.3196,150.82 86.9863,178.32 114.5,206C 115.635,206.749 116.635,206.583 117.5,205.5C 88.7923,176.289 59.7923,147.789 30.5,120C 26.6484,124.685 22.315,128.852 17.5,132.5C 11.4796,126.812 5.47959,121.145 -0.5,115.5C -0.5,76.8333 -0.5,38.1667 -0.5,-0.5 Z M 115.5,208.5 C 118.744,210.071 121.411,212.405 123.5,215.5C 119.849,219.652 116.016,223.652 112,227.5C 109.5,225 107,222.5 104.5,220C 108.37,216.298 112.037,212.464 115.5,208.5 Z M 99.5,224.5 C 103.304,226.131 105.804,228.798 107,232.5C 82.1667,257.333 57.3333,282.167 32.5,307C 29.5638,306.107 27.0638,304.274 25,301.5C 24.3333,300.833 24.3333,300.167 25,299.5C 50.0349,274.632 74.8682,249.632 99.5,224.5 Z"/></g>
<g><path style="opacity:0.566" fill="#bebebe" d="M 336.5,-0.5 C 337.5,-0.5 338.5,-0.5 339.5,-0.5C 331.855,7.47944 324.188,15.4794 316.5,23.5C 324.486,31.9858 332.652,40.3191 341,48.5C 352.681,36.986 364.181,25.3193 375.5,13.5C 371.145,8.81309 366.812,4.14642 362.5,-0.5C 365.167,-0.5 367.833,-0.5 370.5,-0.5C 374.463,3.96447 378.63,8.2978 383,12.5C 383.667,13.5 383.667,14.5 383,15.5C 370.5,28 358,40.5 345.5,53C 385.667,93.1667 425.833,133.333 466,173.5C 476.369,163.298 486.535,152.965 496.5,142.5C 497.167,142.5 497.833,142.5 498.5,142.5C 498.557,143.609 498.89,144.609 499.5,145.5C 498.078,145.709 496.745,146.209 495.5,147C 488.531,154.97 481.198,162.636 473.5,170C 470.689,171.644 468.356,173.81 466.5,176.5C 425.479,135.812 384.479,95.1456 343.5,54.5C 343.5,54.1667 343.5,53.8333 343.5,53.5C 344.507,51.732 343.841,50.3987 341.5,49.5C 340.893,49.6236 340.56,49.9569 340.5,50.5C 340.167,50.5 339.833,50.5 339.5,50.5C 330.855,41.5206 322.188,32.5206 313.5,23.5C 321.188,15.4794 328.855,7.47944 336.5,-0.5 Z"/></g>
<g><path style="opacity:0.808" fill="#909090" d="M 816.5,-0.5 C 818.167,-0.5 819.833,-0.5 821.5,-0.5C 816.833,4.5 812.167,9.5 807.5,14.5C 806.373,13.8783 805.373,13.045 804.5,12C 808.704,7.96443 812.704,3.79776 816.5,-0.5 Z"/></g>
<g><path style="opacity:0.563" fill="#b2b2b2" d="M 821.5,-0.5 C 836.167,-0.5 850.833,-0.5 865.5,-0.5C 868.963,3.46433 872.63,7.29766 876.5,11C 864.319,23.3475 851.986,35.5142 839.5,47.5C 828.479,37.1457 817.812,26.479 807.5,15.5C 807.5,15.1667 807.5,14.8333 807.5,14.5C 812.167,9.5 816.833,4.5 821.5,-0.5 Z"/></g>
<g><path style="opacity:0.569" fill="#e9e9e9" d="M 999.5,19.5 C 999.5,31.1667 999.5,42.8333 999.5,54.5C 972.507,80.66 946.007,107.327 920,134.5C 919.722,133.584 919.222,132.918 918.5,132.5C 912.314,127.494 907.147,121.827 903,115.5C 935.116,83.2172 967.282,51.2172 999.5,19.5 Z"/></g>
<g><path style="opacity:0.808" fill="#bcbcbc" d="M 537.5,-0.5 C 539.167,-0.5 540.833,-0.5 542.5,-0.5C 556.5,14.1667 570.833,28.5 585.5,42.5C 586.713,45.2254 588.546,47.5588 591,49.5C 595.833,44.6667 600.667,39.8333 605.5,35C 604.944,34.6174 604.611,34.1174 604.5,33.5C 608.75,30.9214 612.417,27.5881 615.5,23.5C 607.812,15.4794 600.145,7.47944 592.5,-0.5C 593.833,-0.5 595.167,-0.5 596.5,-0.5C 603.629,7.79643 611.296,15.6298 619.5,23C 615.721,27.6174 611.721,32.1174 607.5,36.5C 601.912,40.4171 596.912,45.0838 592.5,50.5C 604.906,63.9076 617.906,76.5743 631.5,88.5C 631.328,89.4916 631.662,90.1583 632.5,90.5C 647.812,106.479 663.479,122.146 679.5,137.5C 682.349,134.484 685.349,131.65 688.5,129C 690.79,127.223 692.457,125.056 693.5,122.5C 723.5,92.8333 753.5,63.1667 783.5,33.5C 784.5,31.8333 785.833,30.5 787.5,29.5C 792.464,24.0353 797.63,18.702 803,13.5C 803.333,12.1667 803.667,10.8333 804,9.5C 807.371,6.29747 810.538,2.96414 813.5,-0.5C 814.5,-0.5 815.5,-0.5 816.5,-0.5C 812.704,3.79776 808.704,7.96443 804.5,12C 805.373,13.045 806.373,13.8783 807.5,14.5C 807.5,14.8333 807.5,15.1667 807.5,15.5C 801.222,20.4397 795.222,25.7731 789.5,31.5C 788.167,32.8333 786.833,34.1667 785.5,35.5C 755.833,65.5 726.167,95.5 696.5,125.5C 690.228,129.937 684.728,135.27 680,141.5C 663.584,125.248 647.084,109.248 630.5,93.5C 630.167,92.5 629.5,91.8333 628.5,91.5C 616.217,78.2163 603.551,65.2163 590.5,52.5C 589.378,53.6302 588.044,54.2969 586.5,54.5C 588.911,51.5493 588.411,48.8826 585,46.5C 584.329,45.7476 583.496,45.4142 582.5,45.5C 567.5,30.1667 552.5,14.8333 537.5,-0.5 Z"/></g>
<g><path style="opacity:0.569" fill="#e7e7e7" d="M 604.5,33.5 C 604.611,34.1174 604.944,34.6174 605.5,35C 600.667,39.8333 595.833,44.6667 591,49.5C 588.546,47.5588 586.713,45.2254 585.5,42.5C 589.812,37.521 594.479,32.8544 599.5,28.5C 601.521,29.8545 603.188,31.5212 604.5,33.5 Z"/></g>
<g><path style="opacity:0.47" fill="#d6d6d6" d="M 718.5,-0.5 C 720.5,-0.5 722.5,-0.5 724.5,-0.5C 699.535,24.9653 674.368,50.2987 649,75.5C 648.536,76.0944 648.369,76.7611 648.5,77.5C 646.567,77.7286 644.9,78.5619 643.5,80C 640.184,83.9686 636.517,87.4686 632.5,90.5C 631.662,90.1583 631.328,89.4916 631.5,88.5C 636.229,83.7757 640.563,78.7757 644.5,73.5C 669.5,49.1667 694.167,24.5 718.5,-0.5 Z"/></g>
<g><path style="opacity:0.561" fill="#d4d4d4" d="M 751.5,-0.5 C 753.5,-0.5 755.5,-0.5 757.5,-0.5C 767.167,9.83333 777.167,19.8333 787.5,29.5C 785.833,30.5 784.5,31.8333 783.5,33.5C 783.631,32.7611 783.464,32.0944 783,31.5C 772.298,20.9651 761.798,10.2984 751.5,-0.5 Z"/></g>
<g><path style="opacity:0.569" fill="#e9e9e9" d="M 607.5,36.5 C 620.167,48.5 632.5,60.8333 644.5,73.5C 640.563,78.7757 636.229,83.7757 631.5,88.5C 617.906,76.5743 604.906,63.9076 592.5,50.5C 596.912,45.0838 601.912,40.4171 607.5,36.5 Z"/></g>
<g><path style="opacity:0.569" fill="#e8e8e8" d="M 582.5,45.5 C 583.496,45.4142 584.329,45.7476 585,46.5C 588.411,48.8826 588.911,51.5493 586.5,54.5C 584.5,55.8333 582.833,57.5 581.5,59.5C 579.833,60.5 578.5,61.8333 577.5,63.5C 575.833,64.5 574.5,65.8333 573.5,67.5C 571.5,68.8333 569.833,70.5 568.5,72.5C 566.833,73.5 565.5,74.8333 564.5,76.5C 562.833,77.5 561.5,78.8333 560.5,80.5C 558.5,81.8333 556.833,83.5 555.5,85.5C 553.833,86.5 552.5,87.8333 551.5,89.5C 549.833,90.5 548.5,91.8333 547.5,93.5C 545.5,94.8333 543.833,96.5 542.5,98.5C 540.833,99.5 539.5,100.833 538.5,102.5C 536.5,103.833 534.833,105.5 533.5,107.5C 531.833,108.5 530.5,109.833 529.5,111.5C 527.833,112.5 526.5,113.833 525.5,115.5C 523.5,116.833 521.833,118.5 520.5,120.5C 518.833,121.5 517.5,122.833 516.5,124.5C 514.833,125.5 513.5,126.833 512.5,128.5C 509.167,131.167 506.167,134.167 503.5,137.5C 501.5,138.833 499.833,140.5 498.5,142.5C 497.833,142.5 497.167,142.5 496.5,142.5C 494.37,140.873 492.37,139.04 490.5,137C 521.035,106.298 551.701,75.7985 582.5,45.5 Z"/></g>
<g><path style="opacity:0.714" fill="#989898" d="M 343.5,53.5 C 342.5,52.5 341.5,51.5 340.5,50.5C 340.56,49.9569 340.893,49.6236 341.5,49.5C 343.841,50.3987 344.507,51.732 343.5,53.5 Z"/></g>
<g><path style="opacity:0.569" fill="#eaeaea" d="M 628.5,91.5 C 611.661,107.506 595.327,124.006 579.5,141C 599.839,162.005 620.505,182.672 641.5,203C 640.944,203.383 640.611,203.883 640.5,204.5C 627.188,218.479 613.521,232.146 599.5,245.5C 565.812,212.479 532.479,179.146 499.5,145.5C 498.89,144.609 498.557,143.609 498.5,142.5C 501.167,141.833 502.833,140.167 503.5,137.5C 507.5,135.5 510.5,132.5 512.5,128.5C 514.833,128.167 516.167,126.833 516.5,124.5C 518.833,124.167 520.167,122.833 520.5,120.5C 523.167,119.833 524.833,118.167 525.5,115.5C 527.833,115.167 529.167,113.833 529.5,111.5C 531.833,111.167 533.167,109.833 533.5,107.5C 536.167,106.833 537.833,105.167 538.5,102.5C 540.833,102.167 542.167,100.833 542.5,98.5C 545.167,97.8333 546.833,96.1667 547.5,93.5C 549.833,93.1667 551.167,91.8333 551.5,89.5C 553.833,89.1667 555.167,87.8333 555.5,85.5C 558.167,84.8333 559.833,83.1667 560.5,80.5C 562.833,80.1667 564.167,78.8333 564.5,76.5C 566.833,76.1667 568.167,74.8333 568.5,72.5C 571.167,71.8333 572.833,70.1667 573.5,67.5C 575.833,67.1667 577.167,65.8333 577.5,63.5C 579.833,63.1667 581.167,61.8333 581.5,59.5C 584.167,58.8333 585.833,57.1667 586.5,54.5C 588.044,54.2969 589.378,53.6302 590.5,52.5C 603.551,65.2163 616.217,78.2163 628.5,91.5 Z"/></g>
<g><path style="opacity:0.808" fill="#bbbcbb" d="M 586.5,54.5 C 585.833,57.1667 584.167,58.8333 581.5,59.5C 582.833,57.5 584.5,55.8333 586.5,54.5 Z"/></g>
<g><path style="opacity:0.808" fill="#bbbcbb" d="M 581.5,59.5 C 581.167,61.8333 579.833,63.1667 577.5,63.5C 578.5,61.8333 579.833,60.5 581.5,59.5 Z"/></g>
<g><path style="opacity:0.569" fill="#eaeaea" d="M 999.5,61.5 C 999.5,112.167 999.5,162.833 999.5,213.5C 974.167,188.833 949.167,163.833 924.5,138.5C 924.389,137.883 924.056,137.383 923.5,137C 948.701,111.632 974.035,86.4651 999.5,61.5 Z"/></g>
<g><path style="opacity:0.808" fill="#bbbcbb" d="M 577.5,63.5 C 577.167,65.8333 575.833,67.1667 573.5,67.5C 574.5,65.8333 575.833,64.5 577.5,63.5 Z"/></g>
<g><path style="opacity:0.808" fill="#bbbcbb" d="M 573.5,67.5 C 572.833,70.1667 571.167,71.8333 568.5,72.5C 569.833,70.5 571.5,68.8333 573.5,67.5 Z"/></g>
<g><path style="opacity:0.808" fill="#bbbcbb" d="M 568.5,72.5 C 568.167,74.8333 566.833,76.1667 564.5,76.5C 565.5,74.8333 566.833,73.5 568.5,72.5 Z"/></g>
<g><path style="opacity:0.808" fill="#bbbcbb" d="M 564.5,76.5 C 564.167,78.8333 562.833,80.1667 560.5,80.5C 561.5,78.8333 562.833,77.5 564.5,76.5 Z"/></g>
<g><path style="opacity:0.569" fill="#e9e9e9" d="M 648.5,77.5 C 663.833,92.1667 678.833,107.167 693.5,122.5C 692.457,125.056 690.79,127.223 688.5,129C 685.349,131.65 682.349,134.484 679.5,137.5C 663.479,122.146 647.812,106.479 632.5,90.5C 636.517,87.4686 640.184,83.9686 643.5,80C 644.9,78.5619 646.567,77.7286 648.5,77.5 Z"/></g>
<g><path style="opacity:0.808" fill="#bbbcbb" d="M 560.5,80.5 C 559.833,83.1667 558.167,84.8333 555.5,85.5C 556.833,83.5 558.5,81.8333 560.5,80.5 Z"/></g>
<g><path style="opacity:0.808" fill="#bbbcbb" d="M 555.5,85.5 C 555.167,87.8333 553.833,89.1667 551.5,89.5C 552.5,87.8333 553.833,86.5 555.5,85.5 Z"/></g>
<g><path style="opacity:0.808" fill="#bbbcbb" d="M 551.5,89.5 C 551.167,91.8333 549.833,93.1667 547.5,93.5C 548.5,91.8333 549.833,90.5 551.5,89.5 Z"/></g>
<g><path style="opacity:0.808" fill="#bbbcbb" d="M 547.5,93.5 C 546.833,96.1667 545.167,97.8333 542.5,98.5C 543.833,96.5 545.5,94.8333 547.5,93.5 Z"/></g>
<g><path style="opacity:0.808" fill="#bbbcbb" d="M 542.5,98.5 C 542.167,100.833 540.833,102.167 538.5,102.5C 539.5,100.833 540.833,99.5 542.5,98.5 Z"/></g>
<g><path style="opacity:0.808" fill="#bbbcbb" d="M 538.5,102.5 C 537.833,105.167 536.167,106.833 533.5,107.5C 534.833,105.5 536.5,103.833 538.5,102.5 Z"/></g>
<g><path style="opacity:0.808" fill="#bbbcbb" d="M 533.5,107.5 C 533.167,109.833 531.833,111.167 529.5,111.5C 530.5,109.833 531.833,108.5 533.5,107.5 Z"/></g>
<g><path style="opacity:0.808" fill="#bbbcbb" d="M 529.5,111.5 C 529.167,113.833 527.833,115.167 525.5,115.5C 526.5,113.833 527.833,112.5 529.5,111.5 Z"/></g>
<g><path style="opacity:0.808" fill="#bbbcbb" d="M 525.5,115.5 C 524.833,118.167 523.167,119.833 520.5,120.5C 521.833,118.5 523.5,116.833 525.5,115.5 Z"/></g>
<g><path style="opacity:0.808" fill="#bbbcbb" d="M 520.5,120.5 C 520.167,122.833 518.833,124.167 516.5,124.5C 517.5,122.833 518.833,121.5 520.5,120.5 Z"/></g>
<g><path style="opacity:0.568" fill="#b4b4b4" d="M -0.5,123.5 C 4.29788,127.797 8.96455,132.297 13.5,137C 9.29472,142.04 4.62805,146.54 -0.5,150.5C -0.5,141.5 -0.5,132.5 -0.5,123.5 Z"/></g>
<g><path style="opacity:0.808" fill="#bbbcbb" d="M 516.5,124.5 C 516.167,126.833 514.833,128.167 512.5,128.5C 513.5,126.833 514.833,125.5 516.5,124.5 Z"/></g>
<g><path style="opacity:0.808" fill="#bbbcbb" d="M 512.5,128.5 C 510.5,132.5 507.5,135.5 503.5,137.5C 506.167,134.167 509.167,131.167 512.5,128.5 Z"/></g>
<g><path style="opacity:0.808" fill="#bbbcbb" d="M 503.5,137.5 C 502.833,140.167 501.167,141.833 498.5,142.5C 499.833,140.5 501.5,138.833 503.5,137.5 Z"/></g>
<g><path style="opacity:0.808" fill="#8f8f8f" d="M -0.5,115.5 C 5.47959,121.145 11.4796,126.812 17.5,132.5C 22.315,128.852 26.6484,124.685 30.5,120C 59.7923,147.789 88.7923,176.289 117.5,205.5C 116.635,206.583 115.635,206.749 114.5,206C 86.9863,178.32 59.3196,150.82 31.5,123.5C 27.3484,127.151 23.3484,130.984 19.5,135C 47.3333,162.833 75.1667,190.667 103,218.5C 102.983,220.568 101.983,222.234 100,223.5C 72.1667,195.667 44.3333,167.833 16.5,140C 15.8333,139.333 15.1667,139.333 14.5,140C 9.63128,145.037 4.63128,149.87 -0.5,154.5C -0.5,153.167 -0.5,151.833 -0.5,150.5C 4.62805,146.54 9.29472,142.04 13.5,137C 8.96455,132.297 4.29788,127.797 -0.5,123.5C -0.5,120.833 -0.5,118.167 -0.5,115.5 Z"/></g>
<g><path style="opacity:0.437" fill="#d5d5d5" d="M 789.5,31.5 C 825.167,67.5 860.833,103.5 896.5,139.5C 845.083,189.416 794.083,239.916 743.5,291C 744.044,291.717 744.711,292.217 745.5,292.5C 743.205,295.297 740.705,297.964 738,300.5C 705.86,269.027 674.027,237.194 642.5,205C 641.906,204.536 641.239,204.369 640.5,204.5C 640.611,203.883 640.944,203.383 641.5,203C 620.505,182.672 599.839,162.005 579.5,141C 595.327,124.006 611.661,107.506 628.5,91.5C 629.5,91.8333 630.167,92.5 630.5,93.5C 614.548,108.785 598.881,124.452 583.5,140.5C 603.238,161.239 623.571,181.239 644.5,200.5C 675.465,231.965 706.632,263.299 738,294.5C 789,243.5 840,192.5 891,141.5C 891.667,140.833 891.667,140.167 891,139.5C 856.25,104.248 821.083,69.5817 785.5,35.5C 786.833,34.1667 788.167,32.8333 789.5,31.5 Z"/></g>
<g><path style="opacity:0.569" fill="#eaeaea" d="M 630.5,93.5 C 647.084,109.248 663.584,125.248 680,141.5C 684.728,135.27 690.228,129.937 696.5,125.5C 700.631,129.13 704.631,132.963 708.5,137C 687.299,158.368 665.965,179.535 644.5,200.5C 623.571,181.239 603.238,161.239 583.5,140.5C 598.881,124.452 614.548,108.785 630.5,93.5 Z"/></g>
<g><path style="opacity:0.561" fill="#d7d7d7" d="M 999.5,54.5 C 999.5,56.8333 999.5,59.1667 999.5,61.5C 974.035,86.4651 948.701,111.632 923.5,137C 924.056,137.383 924.389,137.883 924.5,138.5C 916.088,145.407 908.088,152.907 900.5,161C 933.368,194.035 966.368,226.868 999.5,259.5C 999.5,262.5 999.5,265.5 999.5,268.5C 963.868,233.368 928.368,198.035 893,162.5C 892.333,161.5 892.333,160.5 893,159.5C 902.092,150.912 910.592,141.912 918.5,132.5C 919.222,132.918 919.722,133.584 920,134.5C 946.007,107.327 972.507,80.66 999.5,54.5 Z"/></g>
<g><path style="opacity:0.808" fill="#8d8d8d" d="M 111.5,228.5 C 113.028,228.517 113.528,229.184 113,230.5C 111.867,232.211 110.367,232.711 108.5,232C 109.71,230.961 110.71,229.794 111.5,228.5 Z"/></g>
<g><path style="opacity:0.562" fill="#b6b6b6" d="M 887.5,253.5 C 891.08,255.408 894.08,258.074 896.5,261.5C 894.167,264.5 891.5,267.167 888.5,269.5C 885.5,267.167 882.833,264.5 880.5,261.5C 882.856,258.814 885.189,256.147 887.5,253.5 Z"/></g>
<g><path style="opacity:0.567" fill="#b6b6b6" d="M 999.5,317.5 C 999.5,319.5 999.5,321.5 999.5,323.5C 978.868,303.368 958.368,283.035 938,262.5C 891.667,308.833 845.333,355.167 799,401.5C 798.333,402.167 798.333,402.833 799,403.5C 834.368,439.035 869.868,474.368 905.5,509.5C 905.5,509.833 905.5,510.167 905.5,510.5C 904.503,510.47 903.836,510.97 903.5,512C 903.95,513.285 904.617,514.452 905.5,515.5C 916.143,526.475 927.143,537.142 938.5,547.5C 958.854,527.479 979.187,507.479 999.5,487.5C 999.5,533.167 999.5,578.833 999.5,624.5C 968.535,594.035 937.701,563.368 907,532.5C 896.505,543.328 886.005,554.161 875.5,565C 875.836,566.03 876.503,566.53 877.5,566.5C 877.5,566.833 877.5,567.167 877.5,567.5C 856.085,587.413 835.085,607.913 814.5,629C 830.035,644.702 845.701,660.202 861.5,675.5C 861.5,676.167 861.833,676.5 862.5,676.5C 863.105,678.481 864.105,678.815 865.5,677.5C 865.351,678.552 865.517,679.552 866,680.5C 879.667,694.167 893.333,707.833 907,721.5C 927.5,701 948,680.5 968.5,660C 967.748,659.329 967.414,658.496 967.5,657.5C 968.167,657.833 968.833,658.167 969.5,658.5C 969.948,660.465 970.948,660.798 972.5,659.5C 981.341,650.596 990.341,641.93 999.5,633.5C 999.5,652.167 999.5,670.833 999.5,689.5C 989.557,680.725 980.057,671.392 971,661.5C 949.986,682.681 928.82,703.681 907.5,724.5C 893.014,710.514 878.681,696.347 864.5,682C 863.552,681.517 862.552,681.351 861.5,681.5C 862.815,680.105 862.481,679.105 860.5,678.5C 860.5,677.833 860.167,677.5 859.5,677.5C 843.521,661.187 827.521,644.854 811.5,628.5C 832.319,607.18 853.319,586.014 874.5,565C 870.693,561.528 866.859,558.028 863,554.5C 862.333,553.5 862.333,552.5 863,551.5C 876.014,538.653 888.847,525.653 901.5,512.5C 865.167,475.833 828.833,439.167 792.5,402.5C 840.32,354.18 888.32,306.014 936.5,258C 937.5,257.333 938.5,257.333 939.5,258C 959.368,278.035 979.368,297.868 999.5,317.5 Z"/></g>
<g><path style="opacity:0.431" fill="#dadada" d="M 896.5,139.5 C 897.525,139.897 897.692,140.563 897,141.5C 846.632,192.035 796.132,242.368 745.5,292.5C 744.711,292.217 744.044,291.717 743.5,291C 794.083,239.916 845.083,189.416 896.5,139.5 Z"/></g>
<g><path style="opacity:0.569" fill="#eaeaea" d="M 137.5,389.5 C 137.167,389.5 136.833,389.5 136.5,389.5C 116.92,368.418 96.7533,347.751 76,327.5C 75.5357,326.906 75.369,326.239 75.5,325.5C 95.1457,305.188 115.146,285.188 135.5,265.5C 156.653,286.153 177.653,306.986 198.5,328C 177.965,348.368 157.632,368.868 137.5,389.5 Z"/></g>
<g><path style="opacity:0.808" fill="#8f8f8f" d="M -0.5,276.5 C 7.67421,283.841 15.3409,291.674 22.5,300C 22.3333,300.5 22.1667,301 22,301.5C 14.61,294.273 7.11003,287.273 -0.5,280.5C -0.5,279.167 -0.5,277.833 -0.5,276.5 Z"/></g>
<g><path style="opacity:0.568" fill="#bfbfbf" d="M 75.5,325.5 C 75.369,326.239 75.5357,326.906 76,327.5C 96.7533,347.751 116.92,368.418 136.5,389.5C 135.761,389.631 135.094,389.464 134.5,389C 113.965,368.298 93.2986,347.798 72.5,327.5C 68.8814,323.881 65.2147,320.215 61.5,316.5C 60.549,315.674 59.549,315.508 58.5,316C 38.9653,335.702 19.2986,355.202 -0.5,374.5C -0.5,373.167 -0.5,371.833 -0.5,370.5C 19.2986,351.202 38.9653,331.702 58.5,312C 59.1667,311.333 59.8333,311.333 60.5,312C 65.0924,317.1 70.0924,321.6 75.5,325.5 Z"/></g>
<g><path style="opacity:0.263" fill="#cdcdcd" d="M 72.5,327.5 C 93.2986,347.798 113.965,368.298 134.5,389C 135.094,389.464 135.761,389.631 136.5,389.5C 136.5,390.167 136.5,390.833 136.5,391.5C 114.918,371.42 93.7513,350.753 73,329.5C 72.5357,328.906 72.369,328.239 72.5,327.5 Z"/></g>
<g><path style="opacity:0.567" fill="#bcbcbc" d="M 136.5,389.5 C 136.833,389.5 137.167,389.5 137.5,389.5C 144.632,396.131 151.632,402.964 158.5,410C 133.581,434.418 109.247,459.251 85.5,484.5C 85.1667,484.5 84.8333,484.5 84.5,484.5C 83.4061,482.164 82.0728,482.164 80.5,484.5C 78.6053,483.027 76.9387,481.36 75.5,479.5C 49.8284,454.828 24.4951,429.828 -0.5,404.5C -0.5,402.5 -0.5,400.5 -0.5,398.5C 27.4653,425.965 55.2987,453.632 83,481.5C 107.041,457.626 130.874,433.626 154.5,409.5C 148.452,403.452 142.452,397.452 136.5,391.5C 136.5,390.833 136.5,390.167 136.5,389.5 Z"/></g>
<g><path style="opacity:0.568" fill="#b5b5b5" d="M 999.5,415.5 C 999.5,437.833 999.5,460.167 999.5,482.5C 978.868,502.632 958.368,522.965 938,543.5C 926.965,532.632 916.131,521.632 905.5,510.5C 905.5,510.167 905.5,509.833 905.5,509.5C 936.5,477.833 967.833,446.5 999.5,415.5 Z"/></g>
<g><path style="opacity:0.565" fill="#bfbfbf" d="M -0.5,445.5 C 18.5,463.833 37.1667,482.5 55.5,501.5C 56.7574,502.818 58.0907,504.151 59.5,505.5C 60.1067,505.376 60.44,505.043 60.5,504.5C 60.5,504.167 60.5,503.833 60.5,503.5C 61.1667,503.5 61.5,503.167 61.5,502.5C 62.1667,502.5 62.5,502.167 62.5,501.5C 63.1667,501.5 63.5,501.167 63.5,500.5C 64.1667,500.5 64.5,500.167 64.5,499.5C 65.1667,499.5 65.5,499.167 65.5,498.5C 66.1667,498.5 66.5,498.167 66.5,497.5C 67.1667,497.5 67.5,497.167 67.5,496.5C 68.1667,496.5 68.5,496.167 68.5,495.5C 69.1667,495.5 69.5,495.167 69.5,494.5C 70.1667,494.5 70.5,494.167 70.5,493.5C 71.1667,493.5 71.5,493.167 71.5,492.5C 72.1667,492.5 72.5,492.167 72.5,491.5C 73.1667,491.5 73.5,491.167 73.5,490.5C 74.1667,490.5 74.5,490.167 74.5,489.5C 75.1667,489.5 75.5,489.167 75.5,488.5C 76.1667,488.5 76.5,488.167 76.5,487.5C 77.1667,487.5 77.5,487.167 77.5,486.5C 77.8333,486.5 78.1667,486.5 78.5,486.5C 79.1667,486.167 79.8333,485.833 80.5,485.5C 81.1667,485.5 81.5,485.833 81.5,486.5C 80.8333,487.167 80.1667,487.833 79.5,488.5C 73.3694,495.131 67.036,501.631 60.5,508C 59.0024,508.585 58.0024,508.085 57.5,506.5C 56.6551,504.238 55.3217,503.571 53.5,504.5C 36.2182,485.551 18.2182,467.217 -0.5,449.5C -0.5,448.167 -0.5,446.833 -0.5,445.5 Z"/></g>
<g><path style="opacity:0.561" fill="#d4d4d4" d="M 75.5,479.5 C 76.9387,481.36 78.6053,483.027 80.5,484.5C 80.5,484.833 80.5,485.167 80.5,485.5C 79.8333,485.833 79.1667,486.167 78.5,486.5C 78.1667,485.167 77.8333,485.167 77.5,486.5C 76.8333,486.5 76.5,486.833 76.5,487.5C 75.8333,487.5 75.5,487.833 75.5,488.5C 74.8333,488.5 74.5,488.833 74.5,489.5C 73.8333,489.5 73.5,489.833 73.5,490.5C 72.8333,490.5 72.5,490.833 72.5,491.5C 71.8333,491.5 71.5,491.833 71.5,492.5C 70.8333,492.5 70.5,492.833 70.5,493.5C 69.8333,493.5 69.5,493.833 69.5,494.5C 68.8333,494.5 68.5,494.833 68.5,495.5C 67.8333,495.5 67.5,495.833 67.5,496.5C 66.8333,496.5 66.5,496.833 66.5,497.5C 65.8333,497.5 65.5,497.833 65.5,498.5C 64.8333,498.5 64.5,498.833 64.5,499.5C 63.8333,499.5 63.5,499.833 63.5,500.5C 62.8333,500.5 62.5,500.833 62.5,501.5C 61.8333,501.5 61.5,501.833 61.5,502.5C 60.8333,502.5 60.5,502.833 60.5,503.5C 59.1667,503.833 59.1667,504.167 60.5,504.5C 60.44,505.043 60.1067,505.376 59.5,505.5C 58.0907,504.151 56.7574,502.818 55.5,501.5C 62.1315,495.369 68.6315,489.036 75,482.5C 75.4828,481.552 75.6495,480.552 75.5,479.5 Z"/></g>
<g><path style="opacity:0.808" fill="#929292" d="M 84.5,484.5 C 83.5,484.833 82.8333,485.5 82.5,486.5C 82.1667,486.5 81.8333,486.5 81.5,486.5C 81.5,485.833 81.1667,485.5 80.5,485.5C 80.5,485.167 80.5,484.833 80.5,484.5C 82.0728,482.164 83.4061,482.164 84.5,484.5 Z"/></g>
<g><path style="opacity:0.431" fill="#d6d6d6" d="M 81.5,486.5 C 81.8333,486.5 82.1667,486.5 82.5,486.5C 90.4643,494.965 98.631,503.298 107,511.5C 107.585,512.998 107.085,513.998 105.5,514.5C 98.0926,505.588 90.0926,497.088 81.5,489C 80.9056,488.536 80.2389,488.369 79.5,488.5C 80.1667,487.833 80.8333,487.167 81.5,486.5 Z"/></g>
<g><path style="opacity:0.808" fill="#8f8f8f" d="M 999.5,482.5 C 999.5,484.167 999.5,485.833 999.5,487.5C 979.187,507.479 958.854,527.479 938.5,547.5C 927.143,537.142 916.143,526.475 905.5,515.5C 904.617,514.452 903.95,513.285 903.5,512C 903.836,510.97 904.503,510.47 905.5,510.5C 916.131,521.632 926.965,532.632 938,543.5C 958.368,522.965 978.868,502.632 999.5,482.5 Z"/></g>
<g><path style="opacity:0.565" fill="#b8b8b8" d="M 84.5,484.5 C 84.8333,484.5 85.1667,484.5 85.5,484.5C 94.7984,493.298 103.965,502.298 113,511.5C 113.692,512.437 113.525,513.103 112.5,513.5C 110.833,514.5 109.5,515.833 108.5,517.5C 72.5,554.167 36.1667,590.5 -0.5,626.5C -0.5,624.167 -0.5,621.833 -0.5,619.5C 35.0642,584.937 70.3976,549.937 105.5,514.5C 107.085,513.998 107.585,512.998 107,511.5C 98.631,503.298 90.4643,494.965 82.5,486.5C 82.8333,485.5 83.5,484.833 84.5,484.5 Z"/></g>
<g><path style="opacity:0.808" fill="#898989" d="M 999.5,624.5 C 999.5,625.5 999.5,626.5 999.5,627.5C 985.5,613.833 971.5,600.167 957.5,586.5C 956.833,585.167 955.833,584.167 954.5,583.5C 939.188,567.521 923.521,551.854 907.5,536.5C 897.146,546.188 887.146,556.188 877.5,566.5C 876.503,566.53 875.836,566.03 875.5,565C 886.005,554.161 896.505,543.328 907,532.5C 937.701,563.368 968.535,594.035 999.5,624.5 Z"/></g>
<g><path style="opacity:0.568" fill="#b5b5b5" d="M 954.5,583.5 C 944.167,593.5 933.833,603.5 923.5,613.5C 923.167,612.5 922.5,611.833 921.5,611.5C 906.167,597.5 891.5,582.833 877.5,567.5C 877.5,567.167 877.5,566.833 877.5,566.5C 887.146,556.188 897.146,546.188 907.5,536.5C 923.521,551.854 939.188,567.521 954.5,583.5 Z"/></g>
<g><path style="opacity:0.552" fill="#d5d5d5" d="M 57.5,506.5 C 38.1667,525.5 18.8333,544.5 -0.5,563.5C -0.5,561.5 -0.5,559.5 -0.5,557.5C 17.5,539.833 35.5,522.167 53.5,504.5C 55.3217,503.571 56.6551,504.238 57.5,506.5 Z"/></g>
<g><path style="opacity:0.808" fill="#bcbcbc" d="M 954.5,583.5 C 955.833,584.167 956.833,585.167 957.5,586.5C 946.779,596.22 936.779,606.553 927.5,617.5C 926.833,617.5 926.167,617.5 925.5,617.5C 925.573,615.973 924.906,614.973 923.5,614.5C 923.5,614.167 923.5,613.833 923.5,613.5C 933.833,603.5 944.167,593.5 954.5,583.5 Z"/></g>
<g><path style="opacity:0.568" fill="#b5b5b5" d="M 957.5,586.5 C 971.5,600.167 985.5,613.833 999.5,627.5C 999.5,628.167 999.5,628.833 999.5,629.5C 989.726,639.362 979.726,649.029 969.5,658.5C 968.833,658.167 968.167,657.833 967.5,657.5C 953.5,644.833 940.167,631.5 927.5,617.5C 936.779,606.553 946.779,596.22 957.5,586.5 Z"/></g>
<g><path style="opacity:0.431" fill="#dadada" d="M 113.5,515.5 C 154.5,555.833 195.167,596.5 235.5,637.5C 235.217,638.289 234.717,638.956 234,639.5C 193.167,598.667 152.333,557.833 111.5,517C 112.044,516.283 112.711,515.783 113.5,515.5 Z"/></g>
<g><path style="opacity:0.569" fill="#e4e4e4" d="M 923.5,614.5 C 924.906,614.973 925.573,615.973 925.5,617.5C 905.833,637.833 885.833,657.833 865.5,677.5C 864.105,678.815 863.105,678.481 862.5,676.5C 882.833,655.833 903.167,635.167 923.5,614.5 Z"/></g>
<g><path style="opacity:0.808" fill="#8d8d8d" d="M 999.5,629.5 C 999.5,630.833 999.5,632.167 999.5,633.5C 990.341,641.93 981.341,650.596 972.5,659.5C 970.948,660.798 969.948,660.465 969.5,658.5C 979.726,649.029 989.726,639.362 999.5,629.5 Z"/></g>
<g><path style="opacity:0.561" fill="#cfcfcf" d="M 921.5,611.5 C 922.5,611.833 923.167,612.5 923.5,613.5C 923.5,613.833 923.5,614.167 923.5,614.5C 903.167,635.167 882.833,655.833 862.5,676.5C 861.833,676.5 861.5,676.167 861.5,675.5C 881.632,654.868 901.965,634.368 922.5,614C 921.748,613.329 921.414,612.496 921.5,611.5 Z"/></g>
<g><path style="opacity:0.569" fill="#eaeaea" d="M 73.5,676.5 C 93.8333,696.167 113.833,716.167 133.5,736.5C 133.611,737.117 133.944,737.617 134.5,738C 116.113,755.721 98.1126,773.721 80.5,792C 79.5,792.5 78.5,793 77.5,793.5C 61.2629,777.552 45.2629,761.385 29.5,745C 24.7888,740.286 19.7888,735.952 14.5,732C 29.2822,719.386 43.2822,705.886 56.5,691.5C 61.8896,686.106 67.5563,681.106 73.5,676.5 Z"/></g>
<g><path style="opacity:0.561" fill="#d0d0d0" d="M 73.5,676.5 C 67.5563,681.106 61.8896,686.106 56.5,691.5C 60.5675,685.925 65.2341,680.759 70.5,676C 71.7494,675.26 72.7494,675.427 73.5,676.5 Z"/></g>
<g><path style="opacity:0.569" fill="#e1e1e1" d="M 860.5,678.5 C 862.481,679.105 862.815,680.105 861.5,681.5C 810.368,733.132 759.035,784.632 707.5,836C 760.368,888.701 813.035,941.535 865.5,994.5C 865.163,997.336 863.829,998.002 861.5,996.5C 808.119,944.452 755.452,891.785 703.5,838.5C 702.697,837.577 702.53,836.577 703,835.5C 755.368,782.965 807.868,730.632 860.5,678.5 Z"/></g>
<g><path style="opacity:0.561" fill="#cfcfcf" d="M 859.5,677.5 C 860.167,677.5 860.5,677.833 860.5,678.5C 807.868,730.632 755.368,782.965 703,835.5C 702.53,836.577 702.697,837.577 703.5,838.5C 702.078,838.25 701.078,837.417 700.5,836C 753.368,782.965 806.368,730.132 859.5,677.5 Z"/></g>
<g><path style="opacity:0.563" fill="#b2b2b2" d="M 209.5,708.5 C 222.581,720.077 235.247,732.244 247.5,745C 235.319,757.348 222.986,769.514 210.5,781.5C 197.972,769.806 185.972,757.639 174.5,745C 185.993,732.673 197.66,720.507 209.5,708.5 Z"/></g>
<g><path style="opacity:0.431" fill="#dadada" d="M 233.5,643.5 C 202.167,675.5 170.5,707.167 138.5,738.5C 137.711,738.217 137.044,737.717 136.5,737C 168.333,705.167 200.167,673.333 232,641.5C 232.717,642.044 233.217,642.711 233.5,643.5 Z"/></g>
<g><path style="opacity:0.808" fill="#d4d4d4" d="M 112.5,513.5 C 112.833,514.167 113.167,514.833 113.5,515.5C 112.711,515.783 112.044,516.283 111.5,517C 152.333,557.833 193.167,598.667 234,639.5C 234.717,638.956 235.217,638.289 235.5,637.5C 236.478,637.811 237.145,638.478 237.5,639.5C 236.479,641.188 235.145,642.521 233.5,643.5C 233.217,642.711 232.717,642.044 232,641.5C 200.167,673.333 168.333,705.167 136.5,737C 137.044,737.717 137.711,738.217 138.5,738.5C 138.167,739.167 137.833,739.833 137.5,740.5C 117.609,759.555 97.776,778.888 78,798.5C 56.6667,777.167 35.3333,755.833 14,734.5C 13.6174,735.056 13.1174,735.389 12.5,735.5C 8.89529,730.226 4.56196,725.559 -0.5,721.5C -0.5,719.5 -0.5,717.5 -0.5,715.5C 4.81299,720.478 10.1463,725.478 15.5,730.5C 28.6527,717.847 41.6527,705.014 54.5,692C 55.0944,691.536 55.7611,691.369 56.5,691.5C 43.2822,705.886 29.2822,719.386 14.5,732C 19.7888,735.952 24.7888,740.286 29.5,745C 45.2629,761.385 61.2629,777.552 77.5,793.5C 78.5,793 79.5,792.5 80.5,792C 98.1126,773.721 116.113,755.721 134.5,738C 133.944,737.617 133.611,737.117 133.5,736.5C 166.763,704.904 199.43,672.571 231.5,639.5C 191.097,598.096 150.097,557.429 108.5,517.5C 109.5,515.833 110.833,514.5 112.5,513.5 Z"/></g>
<g><path style="opacity:0.569" fill="#eaeaea" d="M 137.5,740.5 C 167.965,770.465 198.299,800.632 228.5,831C 176.833,882.667 125.167,934.333 73.5,986C 68.847,983.531 64.847,980.031 61.5,975.5C 61.3893,974.883 61.056,974.383 60.5,974C 78.9862,956.014 97.3195,937.847 115.5,919.5C 77.1457,880.479 38.479,841.812 -0.5,803.5C -0.5,785.167 -0.5,766.833 -0.5,748.5C 4.16667,744.5 8.5,740.167 12.5,735.5C 13.1174,735.389 13.6174,735.056 14,734.5C 35.3333,755.833 56.6667,777.167 78,798.5C 97.776,778.888 117.609,759.555 137.5,740.5 Z"/></g>
<g><path style="opacity:0.561" fill="#d0d0d0" d="M 12.5,735.5 C 8.5,740.167 4.16667,744.5 -0.5,748.5C -0.5,747.833 -0.5,747.167 -0.5,746.5C 3.5594,742.435 7.89273,738.768 12.5,735.5 Z"/></g>
<g><path style="opacity:0.808" fill="#bbbbbb" d="M -0.5,803.5 C 38.479,841.812 77.1457,880.479 115.5,919.5C 97.3195,937.847 78.9862,956.014 60.5,974C 61.056,974.383 61.3893,974.883 61.5,975.5C 60.7611,975.369 60.0944,975.536 59.5,976C 39.6319,996.035 19.6319,1015.87 -0.5,1035.5C -0.5,1033.5 -0.5,1031.5 -0.5,1029.5C 18.8333,1010.5 38.1667,991.5 57.5,972.5C 75.5331,955.134 93.1998,937.467 110.5,919.5C 74.1742,881.508 37.1742,844.174 -0.5,807.5C -0.5,806.167 -0.5,804.833 -0.5,803.5 Z"/></g>
<g><path style="opacity:0.569" fill="#eaeaea" d="M -0.5,807.5 C 37.1742,844.174 74.1742,881.508 110.5,919.5C 93.1998,937.467 75.5331,955.134 57.5,972.5C 38.5,952.833 19.1667,933.5 -0.5,914.5C -0.5,878.833 -0.5,843.167 -0.5,807.5 Z"/></g>
<g><path style="opacity:0.558" fill="#cbcbcb" d="M 999.5,862.5 C 999.5,864.167 999.5,865.833 999.5,867.5C 994.521,871.812 989.854,876.479 985.5,881.5C 989.854,886.521 994.521,891.188 999.5,895.5C 999.5,914.833 999.5,934.167 999.5,953.5C 987.53,964.303 976.03,975.636 965,987.5C 950.943,974.277 937.443,960.61 924.5,946.5C 927.07,945.516 927.07,944.349 924.5,943C 925.252,942.329 925.586,941.496 925.5,940.5C 927.333,937.439 929.666,935.605 932.5,935C 931.742,933.636 932.242,932.469 934,931.5C 934.914,932.654 935.747,932.487 936.5,931C 936.167,930.667 935.833,930.333 935.5,930C 939.667,925.833 943.167,922.333 946,919.5C 946.914,920.654 947.747,920.487 948.5,919C 947.742,917.636 948.242,916.469 950,915.5C 950.914,916.654 951.747,916.487 952.5,915C 952.167,914.667 951.833,914.333 951.5,914C 955.667,909.833 959.167,906.333 962,903.5C 962.914,904.654 963.747,904.487 964.5,903C 963.742,901.636 964.242,900.469 966,899.5C 966.914,900.654 967.747,900.487 968.5,899C 967.742,897.636 968.242,896.469 970,895.5C 973.667,891.833 978,887.5 983,882.5C 983.563,881.275 983.23,880.275 982,879.5C 978.019,882.522 974.353,886.522 971,891.5C 970.667,891.167 970.333,890.833 970,890.5C 968.328,894.174 965.828,896.674 962.5,898C 962.833,898.333 963.167,898.667 963.5,899C 953.711,907.455 944.211,916.955 935,927.5C 934.667,927.167 934.333,926.833 934,926.5C 932.017,930.264 928.85,933.597 924.5,936.5C 924,937.5 923.5,938.5 923,939.5C 922.667,939.167 922.333,938.833 922,938.5C 920.991,940.025 920.491,941.692 920.5,943.5C 919.609,944.11 918.609,944.443 917.5,944.5C 918.626,943.142 918.626,941.808 917.5,940.5C 911.985,935.152 906.652,929.652 901.5,924C 922.167,903.333 942.833,882.667 963.5,862C 964.167,861.333 964.833,861.333 965.5,862C 971.015,867.682 976.681,873.182 982.5,878.5C 988.187,873.145 993.854,867.812 999.5,862.5 Z"/></g>
<g><path style="opacity:0.808" fill="#bbbbbb" d="M 925.5,940.5 C 924.078,941.925 922.411,942.925 920.5,943.5C 920.491,941.692 920.991,940.025 922,938.5C 922.333,938.833 922.667,939.167 923,939.5C 923.5,938.5 924,937.5 924.5,936.5C 928.85,933.597 932.017,930.264 934,926.5C 934.333,926.833 934.667,927.167 935,927.5C 944.211,916.955 953.711,907.455 963.5,899C 963.167,898.667 962.833,898.333 962.5,898C 965.828,896.674 968.328,894.174 970,890.5C 970.333,890.833 970.667,891.167 971,891.5C 974.353,886.522 978.019,882.522 982,879.5C 983.23,880.275 983.563,881.275 983,882.5C 978,887.5 973.667,891.833 970,895.5C 968.242,896.469 967.742,897.636 968.5,899C 967.747,900.487 966.914,900.654 966,899.5C 964.242,900.469 963.742,901.636 964.5,903C 963.747,904.487 962.914,904.654 962,903.5C 959.167,906.333 955.667,909.833 951.5,914C 951.833,914.333 952.167,914.667 952.5,915C 951.747,916.487 950.914,916.654 950,915.5C 948.242,916.469 947.742,917.636 948.5,919C 947.747,920.487 946.914,920.654 946,919.5C 943.167,922.333 939.667,925.833 935.5,930C 935.833,930.333 936.167,930.667 936.5,931C 935.747,932.487 934.914,932.654 934,931.5C 932.242,932.469 931.742,933.636 932.5,935C 929.666,935.605 927.333,937.439 925.5,940.5 Z"/></g>
<g><path style="opacity:0.569" fill="#e5e5e5" d="M 870.5,999.5 C 902.299,1030.8 933.965,1062.3 965.5,1094C 966.167,1094.67 966.833,1094.67 967.5,1094C 972.667,1088.83 977.833,1083.67 983,1078.5C 988.369,1084.04 993.869,1089.37 999.5,1094.5C 999.5,1105.83 999.5,1117.17 999.5,1128.5C 988.702,1118.2 978.035,1107.7 967.5,1097C 966.004,1096.49 964.837,1096.99 964,1098.5C 963.617,1097.94 963.117,1097.61 962.5,1097.5C 930.284,1065.99 898.284,1033.99 866.5,1001.5C 865.488,999.9 865.988,998.566 868,997.5C 868.417,998.756 869.25,999.423 870.5,999.5 Z"/></g>
<g><path style="opacity:0.561" fill="#d3d3d3" d="M 925.5,940.5 C 925.586,941.496 925.252,942.329 924.5,943C 927.07,944.349 927.07,945.516 924.5,946.5C 923.262,945.588 921.928,945.421 920.5,946C 903.667,962.833 886.833,979.667 870,996.5C 869.53,997.577 869.697,998.577 870.5,999.5C 869.25,999.423 868.417,998.756 868,997.5C 865.988,998.566 865.488,999.9 866.5,1001.5C 858.255,1008.24 850.422,1015.57 843,1023.5C 842.333,1024.17 842.333,1024.83 843,1025.5C 875.084,1058.09 907.584,1090.09 940.5,1121.5C 940.389,1122.12 940.056,1122.62 939.5,1123C 959.368,1143.04 979.368,1162.87 999.5,1182.5C 999.5,1183.83 999.5,1185.17 999.5,1186.5C 979.035,1166.54 958.701,1146.37 938.5,1126C 937.906,1125.54 937.239,1125.37 936.5,1125.5C 903.781,1092.28 870.947,1059.28 838,1026.5C 837.333,1025.5 837.333,1024.5 838,1023.5C 846.167,1015.33 854.333,1007.17 862.5,999C 861.748,998.329 861.414,997.496 861.5,996.5C 863.829,998.002 865.163,997.336 865.5,994.5C 866.239,994.631 866.906,994.464 867.5,994C 884.035,977.298 900.701,960.798 917.5,944.5C 918.609,944.443 919.609,944.11 920.5,943.5C 922.411,942.925 924.078,941.925 925.5,940.5 Z"/></g>
<g><path style="opacity:0.561" fill="#cbcbcb" d="M 89.5,1043.5 C 95.9509,1048.12 101.618,1053.62 106.5,1060C 101.651,1066.01 96.318,1071.51 90.5,1076.5C 84.6366,1071.47 79.3033,1065.97 74.5,1060C 79.3245,1054.34 84.3245,1048.84 89.5,1043.5 Z"/></g>
<g><path style="opacity:0.808" fill="#d6d6d6" d="M 999.5,1128.5 C 999.5,1130.5 999.5,1132.5 999.5,1134.5C 987.702,1123.2 976.035,1111.7 964.5,1100C 963.906,1099.54 963.239,1099.37 962.5,1099.5C 962.5,1098.83 962.5,1098.17 962.5,1097.5C 963.117,1097.61 963.617,1097.94 964,1098.5C 964.837,1096.99 966.004,1096.49 967.5,1097C 978.035,1107.7 988.702,1118.2 999.5,1128.5 Z"/></g>
<g><path style="opacity:0.563" fill="#b2b2b2" d="M 697.5,1098.5 C 708.246,1107.74 718.58,1117.58 728.5,1128C 718.653,1138.01 708.653,1147.85 698.5,1157.5C 688.347,1147.85 678.347,1138.01 668.5,1128C 678.369,1118.3 688.036,1108.47 697.5,1098.5 Z"/></g>
<g><path style="opacity:0.569" fill="#eaeaea" d="M 962.5,1099.5 C 963.239,1099.37 963.906,1099.54 964.5,1100C 976.035,1111.7 987.702,1123.2 999.5,1134.5C 999.5,1150.5 999.5,1166.5 999.5,1182.5C 979.368,1162.87 959.368,1143.04 939.5,1123C 940.056,1122.62 940.389,1122.12 940.5,1121.5C 947.5,1113.83 954.833,1106.5 962.5,1099.5 Z"/></g>
<g><path style="opacity:0.569" fill="#eaeaea" d="M 936.5,1125.5 C 937.239,1125.37 937.906,1125.54 938.5,1126C 958.701,1146.37 979.035,1166.54 999.5,1186.5C 999.5,1248.83 999.5,1311.17 999.5,1373.5C 993.869,1378.63 988.369,1383.96 983,1389.5C 930.916,1337.92 879.416,1285.92 828.5,1233.5C 864.167,1197.17 900.167,1161.17 936.5,1125.5 Z"/></g>
<g><path style="opacity:0.569" fill="#eaeaea" d="M 190.5,1211.5 C 190.649,1212.55 190.483,1213.55 190,1214.5C 138.667,1265.83 87.3333,1317.17 36,1368.5C 24.2471,1356.24 12.0804,1344.58 -0.5,1333.5C -0.5,1324.83 -0.5,1316.17 -0.5,1307.5C 13.5,1293.83 27.5,1280.17 41.5,1266.5C 47.5755,1271.07 53.2422,1276.24 58.5,1282C 59.1667,1282.67 59.8333,1282.67 60.5,1282C 72.3475,1270.32 84.0142,1258.49 95.5,1246.5C 91.5,1241.83 87.1667,1237.5 82.5,1233.5C 81.0476,1232.06 80.0476,1230.39 79.5,1228.5C 100.479,1206.85 121.812,1185.52 143.5,1164.5C 159.521,1179.85 175.188,1195.52 190.5,1211.5 Z"/></g>
<g><path style="opacity:0.563" fill="#b2b2b2" d="M 78.5,1228.5 C 66.9193,1240.92 55.086,1253.25 43,1265.5C 36.6315,1258.96 30.1315,1252.63 23.5,1246.5C 34.8123,1233.85 46.8123,1221.85 59.5,1210.5C 65.8538,1216.52 72.1871,1222.52 78.5,1228.5 Z"/></g>
<g><path style="opacity:0.569" fill="#eaeaea" d="M 196.5,1217.5 C 230.965,1251.47 265.299,1285.63 299.5,1320C 247.333,1372.17 195.167,1424.33 143,1476.5C 139.629,1473.3 136.462,1469.96 133.5,1466.5C 102.117,1434.12 70.1171,1402.45 37.5,1371.5C 88.2492,1319.25 139.582,1267.42 191.5,1216C 193.189,1216.13 194.856,1216.63 196.5,1217.5 Z"/></g>
<g><path style="opacity:0.808" fill="#bcbcbc" d="M 78.5,1228.5 C 78.8333,1228.5 79.1667,1228.5 79.5,1228.5C 80.0476,1230.39 81.0476,1232.06 82.5,1233.5C 87.1667,1237.5 91.5,1241.83 95.5,1246.5C 84.0142,1258.49 72.3475,1270.32 60.5,1282C 59.8333,1282.67 59.1667,1282.67 58.5,1282C 53.2422,1276.24 47.5755,1271.07 41.5,1266.5C 35.3694,1259.87 29.036,1253.37 22.5,1247C 22.7284,1246.6 23.0618,1246.43 23.5,1246.5C 30.1315,1252.63 36.6315,1258.96 43,1265.5C 55.086,1253.25 66.9193,1240.92 78.5,1228.5 Z"/></g>
<g><path style="opacity:0.398" fill="#cdcdcd" d="M 828.5,1233.5 C 879.416,1285.92 930.916,1337.92 983,1389.5C 988.369,1383.96 993.869,1378.63 999.5,1373.5C 999.5,1374.17 999.5,1374.83 999.5,1375.5C 994.369,1380.13 989.369,1384.96 984.5,1390C 983.5,1390.67 982.5,1390.67 981.5,1390C 930.333,1338.83 879.167,1287.67 828,1236.5C 827.26,1235.25 827.427,1234.25 828.5,1233.5 Z"/></g>
<g><path style="opacity:0.569" fill="#b5b5b5" d="M 575.5,1462.5 C 576.833,1464.5 578.5,1466.17 580.5,1467.5C 591.5,1477.83 602.167,1488.5 612.5,1499.5C 535.833,1499.5 459.167,1499.5 382.5,1499.5C 413.132,1468.37 443.965,1437.37 475,1406.5C 475.667,1405.83 475.667,1405.17 475,1404.5C 467.964,1397.63 461.131,1390.63 454.5,1383.5C 460.422,1377.18 466.422,1370.85 472.5,1364.5C 473.62,1363.17 474.953,1362.67 476.5,1363C 509.701,1396.03 542.701,1429.2 575.5,1462.5 Z"/></g>
<g><path style="opacity:0.568" fill="#bebebe" d="M 453.5,1383.5 C 452.89,1384.39 452.557,1385.39 452.5,1386.5C 452.167,1386.5 451.833,1386.5 451.5,1386.5C 380.549,1314.55 309.215,1242.88 237.5,1171.5C 223.181,1185.32 209.014,1199.32 195,1213.5C 194.7,1215.07 195.2,1216.4 196.5,1217.5C 194.856,1216.63 193.189,1216.13 191.5,1216C 139.582,1267.42 88.2492,1319.25 37.5,1371.5C 36.5084,1371.33 35.8417,1371.66 35.5,1372.5C 24.8547,1383.48 14.188,1394.48 3.5,1405.5C 34.5211,1436.85 65.5211,1468.19 96.5,1499.5C 94.8333,1499.5 93.1667,1499.5 91.5,1499.5C 61.1667,1468.5 30.5,1437.83 -0.5,1407.5C -0.5,1406.17 -0.5,1404.83 -0.5,1403.5C 11.1457,1392.52 22.479,1381.19 33.5,1369.5C 22.479,1357.81 11.1457,1346.48 -0.5,1335.5C -0.5,1334.83 -0.5,1334.17 -0.5,1333.5C 12.0804,1344.58 24.2471,1356.24 36,1368.5C 87.3333,1317.17 138.667,1265.83 190,1214.5C 190.483,1213.55 190.649,1212.55 190.5,1211.5C 206.415,1197.09 221.915,1182.09 237,1166.5C 309.368,1238.7 381.535,1311.03 453.5,1383.5 Z"/></g>
<g><path style="opacity:0.11" fill="#c4c4c4" d="M 35.5,1372.5 C 35.8417,1371.66 36.5084,1371.33 37.5,1371.5C 70.1171,1402.45 102.117,1434.12 133.5,1466.5C 122.167,1477.17 111.167,1488.17 100.5,1499.5C 99.5,1499.5 98.5,1499.5 97.5,1499.5C 108.298,1488.2 119.298,1477.03 130.5,1466C 99.2494,1434.25 67.5828,1403.08 35.5,1372.5 Z"/></g>
<g><path style="opacity:0.568" fill="#b5b5b5" d="M 451.5,1386.5 C 451.833,1386.5 452.167,1386.5 452.5,1386.5C 459.682,1392.5 465.849,1399.17 471,1406.5C 439.965,1437.37 409.132,1468.37 378.5,1499.5C 365.167,1499.5 351.833,1499.5 338.5,1499.5C 375.581,1461.09 413.248,1423.42 451.5,1386.5 Z"/></g>
<g><path style="opacity:0.487" fill="#d5d5d5" d="M 772.5,1499.5 C 771.833,1499.5 771.167,1499.5 770.5,1499.5C 733.868,1462.37 697.035,1425.37 660,1388.5C 658.812,1389.56 658.312,1390.9 658.5,1392.5C 657.577,1391.7 656.577,1391.53 655.5,1392C 630.298,1417.03 605.298,1442.2 580.5,1467.5C 578.5,1466.17 576.833,1464.5 575.5,1462.5C 602.477,1436.36 629.311,1410.02 656,1383.5C 695.328,1421.66 734.161,1460.33 772.5,1499.5 Z"/></g>
<g><path style="opacity:0.808" fill="#919191" d="M 453.5,1383.5 C 453.833,1383.5 454.167,1383.5 454.5,1383.5C 461.131,1390.63 467.964,1397.63 475,1404.5C 475.667,1405.17 475.667,1405.83 475,1406.5C 443.965,1437.37 413.132,1468.37 382.5,1499.5C 381.167,1499.5 379.833,1499.5 378.5,1499.5C 409.132,1468.37 439.965,1437.37 471,1406.5C 465.849,1399.17 459.682,1392.5 452.5,1386.5C 452.557,1385.39 452.89,1384.39 453.5,1383.5 Z"/></g>
<g><path style="opacity:0.561" fill="#d8d8d8" d="M 770.5,1499.5 C 768.167,1499.5 765.833,1499.5 763.5,1499.5C 763.631,1498.76 763.464,1498.09 763,1497.5C 727.665,1463 692.831,1428 658.5,1392.5C 658.312,1390.9 658.812,1389.56 660,1388.5C 697.035,1425.37 733.868,1462.37 770.5,1499.5 Z"/></g>
</svg>
