<?xml version="1.0" encoding="UTF-8"?>
<!DOCTYPE svg PUBLIC "-//W3C//DTD SVG 1.1//EN" "http://www.w3.org/Graphics/SVG/1.1/DTD/svg11.dtd">
<svg xmlns="http://www.w3.org/2000/svg" version="1.1" width="942px" height="584px" style="shape-rendering:geometricPrecision; text-rendering:geometricPrecision; image-rendering:optimizeQuality; fill-rule:evenodd; clip-rule:evenodd" xmlns:xlink="http://www.w3.org/1999/xlink">
<g><path style="opacity:0.511" fill="#00499e" d="M 115.5,-0.5 C 115.833,-0.5 116.167,-0.5 116.5,-0.5C 117.167,0.166667 117.833,0.833333 118.5,1.5C 117.188,3.74317 116.522,6.40984 116.5,9.5C 116.667,12.1667 116.833,14.8333 117,17.5C 117.671,16.7476 118.504,16.4142 119.5,16.5C 118.685,17.8366 117.518,18.8366 116,19.5C 115.502,16.5184 115.335,13.5184 115.5,10.5C 85.1667,10.5 54.8333,10.5 24.5,10.5C 24.5,47.1667 24.5,83.8333 24.5,120.5C 23.5,120.5 22.5,120.5 21.5,120.5C 21.5,82.8333 21.5,45.1667 21.5,7.5C 52.8333,7.5 84.1667,7.5 115.5,7.5C 115.5,4.83333 115.5,2.16667 115.5,-0.5 Z"/></g>
<g><path style="opacity:0.774" fill="#00489c" d="M 131.5,-0.5 C 131.833,-0.5 132.167,-0.5 132.5,-0.5C 133.833,0.5 135.167,1.5 136.5,2.5C 135.178,2.66997 134.011,2.33663 133,1.5C 132.183,7.01642 132.349,12.3497 133.5,17.5C 132.994,19.1054 132.327,19.4387 131.5,18.5C 132.036,15.3019 131.369,12.6353 129.5,10.5C 129.443,9.39105 129.11,8.39105 128.5,7.5C 130.232,5.28441 131.232,2.61774 131.5,-0.5 Z"/></g>
<g><path style="opacity:0.384" fill="#00489d" d="M 146.5,-0.5 C 147.167,-0.5 147.833,-0.5 148.5,-0.5C 148.833,0.166667 149.167,0.833333 149.5,1.5C 148.188,3.74317 147.522,6.40984 147.5,9.5C 147.667,12.1667 147.833,14.8333 148,17.5C 149.011,16.6634 150.178,16.33 151.5,16.5C 150.152,17.6006 148.652,18.6006 147,19.5C 146.818,16.7737 146.318,14.1071 145.5,11.5C 144.817,11.8627 144.15,12.1961 143.5,12.5C 144.502,10.9891 145.169,9.32239 145.5,7.5C 146.26,4.82841 146.594,2.16175 146.5,-0.5 Z"/></g>
<g><path style="opacity:1" fill="#004a9f" d="M 118.5,1.5 C 122.173,3.00025 125.506,5.00025 128.5,7.5C 129.11,8.39105 129.443,9.39105 129.5,10.5C 129.5,10.8333 129.5,11.1667 129.5,11.5C 126.45,13.6916 123.117,15.3583 119.5,16.5C 118.504,16.4142 117.671,16.7476 117,17.5C 116.833,14.8333 116.667,12.1667 116.5,9.5C 116.522,6.40984 117.188,3.74317 118.5,1.5 Z"/></g>
<g><path style="opacity:1" fill="#004a9f" d="M 136.5,2.5 C 139.661,3.91306 142.661,5.57973 145.5,7.5C 145.169,9.32239 144.502,10.9891 143.5,12.5C 140.45,14.6916 137.117,16.3583 133.5,17.5C 132.349,12.3497 132.183,7.01642 133,1.5C 134.011,2.33663 135.178,2.66997 136.5,2.5 Z"/></g>
<g><path style="opacity:1" fill="#004a9f" d="M 149.5,1.5 C 154.473,3.65243 159.14,6.31909 163.5,9.5C 159.505,11.8326 155.505,14.166 151.5,16.5C 150.178,16.33 149.011,16.6634 148,17.5C 147.833,14.8333 147.667,12.1667 147.5,9.5C 147.522,6.40984 148.188,3.74317 149.5,1.5 Z"/></g>
<g><path style="opacity:0.059" fill="#004399" d="M 129.5,11.5 C 129.5,11.1667 129.5,10.8333 129.5,10.5C 131.369,12.6353 132.036,15.3019 131.5,18.5C 130.833,16.1667 130.167,13.8333 129.5,11.5 Z"/></g>
<g><path style="opacity:0.713" fill="#00489d" d="M 797.5,51.5 C 795.456,50.9688 793.789,49.8022 792.5,48C 548.834,47.5 305.167,47.3333 61.5,47.5C 61.3333,186.167 61.5,324.834 62,463.5C 63.8022,464.789 64.9688,466.456 65.5,468.5C 63.5372,467.04 61.7038,465.373 60,463.5C 59.5,324.5 59.3333,185.5 59.5,46.5C 304.167,46.3333 548.834,46.5 793.5,47C 795.041,48.3712 796.375,49.8712 797.5,51.5 Z"/></g>
<g><path style="opacity:0.491" fill="#00499e" d="M 879.5,116.5 C 880.498,93.6727 880.831,70.6727 880.5,47.5C 857.327,47.1692 834.327,47.5025 811.5,48.5C 810.711,48.2172 810.044,47.7172 809.5,47C 833.498,46.5 857.498,46.3334 881.5,46.5C 881.833,70.1761 881.5,93.8427 880.5,117.5C 879.893,117.376 879.56,117.043 879.5,116.5 Z"/></g>
<g><path style="opacity:1" fill="#004a9f" d="M 797.5,51.5 C 825.167,78.5 852.5,105.833 879.5,133.5C 879.5,237.167 879.5,340.833 879.5,444.5C 831.166,444.333 782.832,444.5 734.5,445C 704.5,475 674.5,505 644.5,535C 473.46,535.831 302.46,535.664 131.5,534.5C 131.631,533.761 131.464,533.094 131,532.5C 123.911,524.906 116.411,517.906 108.5,511.5C 104.833,508.5 101.5,505.167 98.5,501.5C 98.631,500.761 98.4643,500.094 98,499.5C 90.9112,491.906 83.4112,484.906 75.5,478.5C 71.8333,475.5 68.5,472.167 65.5,468.5C 64.9688,466.456 63.8022,464.789 62,463.5C 61.5,324.834 61.3333,186.167 61.5,47.5C 305.167,47.3333 548.834,47.5 792.5,48C 793.789,49.8022 795.456,50.9688 797.5,51.5 Z M 791.5,53.5 C 818.833,81.5 846.5,109.167 874.5,136.5C 874.5,237.5 874.5,338.5 874.5,439.5C 827.165,439.333 779.832,439.5 732.5,440C 730.627,441.704 728.96,443.537 727.5,445.5C 699.035,473.465 670.701,501.632 642.5,530C 473.5,530.667 304.5,530.667 135.5,530C 112.667,507.167 89.8333,484.333 67,461.5C 66.5,325.167 66.3333,188.834 66.5,52.5C 308.236,52.1677 549.903,52.501 791.5,53.5 Z"/></g>
<g><path style="opacity:1" fill="#004a9f" d="M 879.5,116.5 C 856.506,94.1727 833.839,71.5061 811.5,48.5C 834.327,47.5025 857.327,47.1692 880.5,47.5C 880.831,70.6727 880.498,93.6727 879.5,116.5 Z"/></g>
<g><path style="opacity:0.441" fill="#00499e" d="M 791.5,53.5 C 549.903,52.501 308.236,52.1677 66.5,52.5C 66.3333,188.834 66.5,325.167 67,461.5C 89.8333,484.333 112.667,507.167 135.5,530C 304.5,530.667 473.5,530.667 642.5,530C 670.701,501.632 699.035,473.465 727.5,445.5C 727.5,445.833 727.5,446.167 727.5,446.5C 699.702,474.799 671.702,502.965 643.5,531C 473.833,531.667 304.167,531.667 134.5,531C 110.972,507.805 87.8049,484.305 65,460.5C 64.5,324.167 64.3333,187.834 64.5,51.5C 307.169,50.8343 549.502,51.5009 791.5,53.5 Z"/></g>
<g><path style="opacity:0.544" fill="#00499f" d="M 879.5,133.5 C 880.117,133.611 880.617,133.944 881,134.5C 881.5,238.166 881.667,341.833 881.5,445.5C 832.832,445.333 784.166,445.5 735.5,446C 705.5,476 675.5,506 645.5,536C 474.5,536.667 303.5,536.667 132.5,536C 131.944,535.617 131.611,535.117 131.5,534.5C 302.46,535.664 473.46,535.831 644.5,535C 674.5,505 704.5,475 734.5,445C 782.832,444.5 831.166,444.333 879.5,444.5C 879.5,340.833 879.5,237.167 879.5,133.5 Z"/></g>
<g><path style="opacity:0.799" fill="#00489c" d="M 874.5,136.5 C 876.498,237.495 877.164,338.828 876.5,440.5C 828.832,440.333 781.166,440.5 733.5,441C 731.63,443.04 729.63,444.873 727.5,446.5C 727.5,446.167 727.5,445.833 727.5,445.5C 728.96,443.537 730.627,441.704 732.5,440C 779.832,439.5 827.165,439.333 874.5,439.5C 874.5,338.5 874.5,237.5 874.5,136.5 Z"/></g>
<g><path style="opacity:1" fill="#004a9f" d="M 36.5,178.5 C 36.631,179.239 36.4643,179.906 36,180.5C 35.3292,179.748 34.4959,179.414 33.5,179.5C 32.5084,179.672 31.8417,179.338 31.5,178.5C 26.934,177.024 22.2674,176.024 17.5,175.5C 24.1508,173.688 30.4841,174.688 36.5,178.5 Z"/></g>
<g><path style="opacity:0.553" fill="#00489d" d="M 17.5,175.5 C 22.2674,176.024 26.934,177.024 31.5,178.5C 18.8024,174.991 9.46909,178.991 3.5,190.5C 3.63101,189.761 3.46434,189.094 3,188.5C 2.58309,189.756 1.74975,190.423 0.5,190.5C 3.39412,182.268 9.06079,177.268 17.5,175.5 Z"/></g>
<g><path style="opacity:0.678" fill="#00499e" d="M 3.5,190.5 C 3.16667,193.833 2.83333,197.167 2.5,200.5C 2.84316,202.483 2.17649,203.817 0.5,204.5C 0.767809,202.901 0.434475,201.568 -0.5,200.5C -0.5,198.5 -0.5,196.5 -0.5,194.5C 0.434475,193.432 0.767809,192.099 0.5,190.5C 1.74975,190.423 2.58309,189.756 3,188.5C 3.46434,189.094 3.63101,189.761 3.5,190.5 Z"/></g>
<g><path style="opacity:0.491" fill="#00499e" d="M 21.5,180.5 C 38.2712,183.71 43.1045,193.043 36,208.5C 28.2403,215.8 20.0736,216.3 11.5,210C 2.30946,196.173 5.64279,186.34 21.5,180.5 Z M 18.5,184.5 C 33.1605,183.973 38.6605,190.639 35,204.5C 25.3413,214.434 17.008,213.434 10,201.5C 8.60373,193.626 11.4371,187.959 18.5,184.5 Z M 26.5,202.5 C 24.1432,202.663 21.8098,202.497 19.5,202C 18.9341,201.005 18.2674,200.172 17.5,199.5C 17.5,198.167 17.5,196.833 17.5,195.5C 19.9535,192.542 22.9535,191.875 26.5,193.5C 27.6964,194.559 28.363,195.893 28.5,197.5C 27.8131,199.177 27.1465,200.844 26.5,202.5 Z"/></g>
<g><path style="opacity:0.552" fill="#00489d" d="M 17.5,199.5 C 18.2674,200.172 18.9341,201.005 19.5,202C 21.8098,202.497 24.1432,202.663 26.5,202.5C 23.8411,202.917 21.5078,203.917 19.5,205.5C 17.6593,204.598 16.326,203.264 15.5,201.5C 16.8333,201.5 17.5,200.833 17.5,199.5 Z"/></g>
<g><path style="opacity:1" fill="#004a9f" d="M 17.5,195.5 C 17.5,196.833 17.5,198.167 17.5,199.5C 17.5,200.833 16.8333,201.5 15.5,201.5C 15.5,201.167 15.5,200.833 15.5,200.5C 15.2978,198.011 15.7978,195.677 17,193.5C 17.4643,194.094 17.631,194.761 17.5,195.5 Z"/></g>
<g><path style="opacity:0.629" fill="#00489e" d="M 19.5,205.5 C 21.5078,203.917 23.8411,202.917 26.5,202.5C 27.1465,200.844 27.8131,199.177 28.5,197.5C 28.363,195.893 27.6964,194.559 26.5,193.5C 22.9535,191.875 19.9535,192.542 17.5,195.5C 17.631,194.761 17.4643,194.094 17,193.5C 15.7978,195.677 15.2978,198.011 15.5,200.5C 13.4515,193.961 15.9515,190.295 23,189.5C 30.8144,190.792 33.1478,195.126 30,202.5C 27.1103,205.854 23.6103,206.854 19.5,205.5 Z"/></g>
<g><path style="opacity:0.544" fill="#00499e" d="M 36.5,178.5 C 49.4016,190.587 49.735,203.087 37.5,216C 33.6901,218.992 29.3568,220.492 24.5,220.5C 24.3333,306.501 24.5,392.501 25,478.5C 56.1667,509.667 87.3333,540.833 118.5,572C 259.5,572.5 400.5,572.667 541.5,572.5C 542.137,575.456 542.637,578.456 543,581.5C 544.011,580.663 545.178,580.33 546.5,580.5C 545.167,581.5 543.833,582.5 542.5,583.5C 542.167,583.5 541.833,583.5 541.5,583.5C 541.5,580.833 541.5,578.167 541.5,575.5C 400.166,575.667 258.833,575.5 117.5,575C 86.5781,543.911 55.5781,513.078 24.5,482.5C 26.6569,481.947 26.4903,480.947 24,479.5C 23.1667,132.834 22.6667,132.834 22.5,479.5C 21.5006,393.335 21.1673,307.002 21.5,220.5C 10.9964,219.75 3.99635,214.416 0.5,204.5C 2.17649,203.817 2.84316,202.483 2.5,200.5C 8.86747,217.571 20.2008,221.738 36.5,213C 46.3915,200.851 45.3915,189.684 33.5,179.5C 34.4959,179.414 35.3292,179.748 36,180.5C 36.4643,179.906 36.631,179.239 36.5,178.5 Z"/></g>
<g><path style="opacity:1" fill="#004a9f" d="M 24.5,482.5 C 23.8333,481.5 23.1667,480.5 22.5,479.5C 22.6667,132.834 23.1667,132.834 24,479.5C 26.4903,480.947 26.6569,481.947 24.5,482.5 Z"/></g>
<g><path style="opacity:0.642" fill="#00499e" d="M 941.5,267.5 C 941.5,269.833 941.5,272.167 941.5,274.5C 938.718,285.986 931.718,292.653 920.5,294.5C 920.5,294.167 920.5,293.833 920.5,293.5C 919.124,292.212 917.124,292.212 914.5,293.5C 914.167,293.5 913.833,293.5 913.5,293.5C 902.01,290.5 895.677,283 894.5,271C 897.409,253.079 907.743,245.746 925.5,249C 933.98,252.633 939.313,258.8 941.5,267.5 Z M 914.5,250.5 C 930.302,250.801 938.136,258.801 938,274.5C 932.409,290.378 921.909,294.878 906.5,288C 894.125,275.557 894.791,263.891 908.5,253C 910.723,252.434 912.723,251.6 914.5,250.5 Z M 914.5,257.5 C 927.099,257.046 932.599,263.046 931,275.5C 925.492,285.192 917.992,287.025 908.5,281C 901.831,270.853 903.831,263.019 914.5,257.5 Z M 916.5,265.5 C 923.978,266.75 925.311,270.25 920.5,276C 914.667,276.833 912.167,274.333 913,268.5C 914.145,267.364 915.312,266.364 916.5,265.5 Z"/></g>
<g><path style="opacity:0.38" fill="#00499e" d="M 914.5,254.5 C 932.045,255.253 937.879,263.92 932,280.5C 922.667,289.833 913.333,289.833 904,280.5C 898.654,268.007 902.154,259.34 914.5,254.5 Z M 914.5,257.5 C 903.831,263.019 901.831,270.853 908.5,281C 917.992,287.025 925.492,285.192 931,275.5C 932.599,263.046 927.099,257.046 914.5,257.5 Z M 916.5,265.5 C 915.312,266.364 914.145,267.364 913,268.5C 912.167,274.333 914.667,276.833 920.5,276C 925.311,270.25 923.978,266.75 916.5,265.5 Z"/></g>
<g><path style="opacity:0.575" fill="#00499e" d="M 915.5,262.5 C 923.523,262.683 927.023,266.683 926,274.5C 920.29,281.33 914.957,280.997 910,273.5C 909.176,268.482 911.009,264.815 915.5,262.5 Z M 916.5,265.5 C 915.312,266.364 914.145,267.364 913,268.5C 912.167,274.333 914.667,276.833 920.5,276C 925.311,270.25 923.978,266.75 916.5,265.5 Z"/></g>
<g><path style="opacity:1" fill="#004aa0" d="M 914.5,293.5 C 917.124,292.212 919.124,292.212 920.5,293.5C 918.835,356.161 917.835,419.161 917.5,482.5C 916.893,482.376 916.56,482.043 916.5,481.5C 917.499,419.002 917.832,356.336 917.5,293.5C 916.5,293.5 915.5,293.5 914.5,293.5 Z"/></g>
<g><path style="opacity:0.379" fill="#00489d" d="M 913.5,293.5 C 913.833,293.5 914.167,293.5 914.5,293.5C 915.5,293.5 916.5,293.5 917.5,293.5C 917.832,356.336 917.499,419.002 916.5,481.5C 916.5,481.167 916.5,480.833 916.5,480.5C 916.5,418.5 916.5,356.5 916.5,294.5C 915.209,294.737 914.209,294.404 913.5,293.5 Z"/></g>
<g><path style="opacity:0.588" fill="#00499d" d="M 920.5,293.5 C 920.5,293.833 920.5,294.167 920.5,294.5C 919.501,357.331 919.168,420.331 919.5,483.5C 892.165,483.333 864.831,483.5 837.5,484C 836.956,484.717 836.289,485.217 835.5,485.5C 837.715,483.508 839.382,481.508 840.5,479.5C 865.478,481.491 890.811,482.157 916.5,481.5C 916.56,482.043 916.893,482.376 917.5,482.5C 917.835,419.161 918.835,356.161 920.5,293.5 Z"/></g>
<g><path style="opacity:1" fill="#004a9f" d="M 743.5,456.5 C 754.52,456.168 765.52,456.501 776.5,457.5C 750.347,484.153 724.014,510.653 697.5,537C 686.167,537.667 674.833,537.667 663.5,537C 690.007,509.993 716.674,483.159 743.5,456.5 Z"/></g>
<g><path style="opacity:0.618" fill="#00489d" d="M 819.5,457.5 C 808.828,457.333 798.161,457.5 787.5,458C 772.581,473.421 757.248,488.255 741.5,502.5C 756.353,487.148 771.353,471.981 786.5,457C 797.674,456.174 808.674,456.341 819.5,457.5 Z"/></g>
<g><path style="opacity:1" fill="#004a9f" d="M 819.5,457.5 C 819.938,457.435 820.272,457.601 820.5,458C 793.791,484.548 767.124,510.882 740.5,537C 729.167,537.667 717.833,537.667 706.5,537C 718.035,525.298 729.702,513.798 741.5,502.5C 757.248,488.255 772.581,473.421 787.5,458C 798.161,457.5 808.828,457.333 819.5,457.5 Z"/></g>
<g><path style="opacity:0.515" fill="#00499f" d="M 830.5,457.5 C 804.167,484.167 777.833,510.833 751.5,537.5C 750.761,537.631 750.094,537.464 749.5,537C 776.084,509.914 803.084,483.414 830.5,457.5 Z"/></g>
<g><path style="opacity:1" fill="#004a9f" d="M 830.5,457.5 C 840.839,457.334 851.172,457.5 861.5,458C 854.297,465.035 847.297,472.202 840.5,479.5C 839.382,481.508 837.715,483.508 835.5,485.5C 831.833,487.167 829.167,489.833 827.5,493.5C 813.314,508.186 798.981,522.686 784.5,537C 773.505,537.5 762.505,537.667 751.5,537.5C 777.833,510.833 804.167,484.167 830.5,457.5 Z"/></g>
<g><path style="opacity:0.49" fill="#00479c" d="M 830.5,457.5 C 835.656,456.834 840.989,456.501 846.5,456.5C 852.334,456.353 858.001,456.853 863.5,458C 856.298,465.369 848.965,472.536 841.5,479.5C 841.167,479.5 840.833,479.5 840.5,479.5C 847.297,472.202 854.297,465.035 861.5,458C 851.172,457.5 840.839,457.334 830.5,457.5 Z"/></g>
<g><path style="opacity:0.635" fill="#00499e" d="M 75.5,478.5 C 83.4112,484.906 90.9112,491.906 98,499.5C 98.4643,500.094 98.631,500.761 98.5,501.5C 90.5,494.167 82.8333,486.5 75.5,478.5 Z"/></g>
<g><path style="opacity:0.059" fill="#004399" d="M 840.5,479.5 C 840.833,479.5 841.167,479.5 841.5,479.5C 866.328,480.498 891.328,480.831 916.5,480.5C 916.5,480.833 916.5,481.167 916.5,481.5C 890.811,482.157 865.478,481.491 840.5,479.5 Z"/></g>
<g><path style="opacity:0.528" fill="#00489d" d="M 835.5,485.5 C 833.167,488.5 830.5,491.167 827.5,493.5C 829.167,489.833 831.833,487.167 835.5,485.5 Z"/></g>
<g><path style="opacity:0.635" fill="#00499e" d="M 108.5,511.5 C 116.411,517.906 123.911,524.906 131,532.5C 131.464,533.094 131.631,533.761 131.5,534.5C 123.5,527.167 115.833,519.5 108.5,511.5 Z"/></g>
<g><path style="opacity:0.32" fill="#00489e" d="M 561.5,566.5 C 560.178,566.67 559.011,566.337 558,565.5C 557.833,568.167 557.667,570.833 557.5,573.5C 557.522,576.59 558.188,579.257 559.5,581.5C 559.167,582.167 558.833,582.833 558.5,583.5C 557.833,583.5 557.167,583.5 556.5,583.5C 556.247,581.293 556.247,579.126 556.5,577C 556.164,575.97 555.497,575.47 554.5,575.5C 555.11,574.609 555.443,573.609 555.5,572.5C 555.297,570.061 555.63,567.727 556.5,565.5C 558.439,564.366 560.105,564.7 561.5,566.5 Z"/></g>
<g><path style="opacity:1" fill="#004a9f" d="M 555.5,572.5 C 555.443,573.609 555.11,574.609 554.5,575.5C 552.206,577.653 549.54,579.32 546.5,580.5C 545.178,580.33 544.011,580.663 543,581.5C 542.637,578.456 542.137,575.456 541.5,572.5C 541.187,569.753 541.52,567.086 542.5,564.5C 547.4,566.44 551.733,569.107 555.5,572.5 Z"/></g>
<g><path style="opacity:1" fill="#004a9f" d="M 574.5,583.5 C 573.833,583.5 573.167,583.5 572.5,583.5C 572.813,580.753 572.48,578.086 571.5,575.5C 567.563,577.697 563.563,579.697 559.5,581.5C 558.188,579.257 557.522,576.59 557.5,573.5C 557.667,570.833 557.833,568.167 558,565.5C 559.011,566.337 560.178,566.67 561.5,566.5C 565.217,568.109 568.717,570.109 572,572.5C 572.497,569.854 572.664,567.187 572.5,564.5C 578.715,566.609 584.381,569.776 589.5,574C 584.097,576.692 579.097,579.858 574.5,583.5 Z"/></g>
</svg>
