<?xml version="1.0" encoding="UTF-8"?>
<!DOCTYPE svg PUBLIC "-//W3C//DTD SVG 1.1//EN" "http://www.w3.org/Graphics/SVG/1.1/DTD/svg11.dtd">
<svg xmlns="http://www.w3.org/2000/svg" version="1.1" width="787px" height="583px" style="shape-rendering:geometricPrecision; text-rendering:geometricPrecision; image-rendering:optimizeQuality; fill-rule:evenodd; clip-rule:evenodd" xmlns:xlink="http://www.w3.org/1999/xlink">
<g><path style="opacity:0.966" fill="#0b77e3" d="M 225.5,-0.5 C 337.833,-0.5 450.167,-0.5 562.5,-0.5C 556.245,6.31921 549.912,13.1525 543.5,20C 443.833,20.6667 344.167,20.6667 244.5,20C 237.572,13.5772 231.238,6.74385 225.5,-0.5 Z"/></g>
<g><path style="opacity:0.934" fill="#0a77e3" d="M 786.5,136.5 C 786.5,271.167 786.5,405.833 786.5,540.5C 777.683,550.093 768.85,559.76 760,569.5C 734.572,568.339 709.072,568.172 683.5,569C 680.833,571.667 678.167,574.333 675.5,577C 631.168,577.5 586.835,577.667 542.5,577.5C 542.5,579.167 542.5,580.833 542.5,582.5C 443.5,582.5 344.5,582.5 245.5,582.5C 245.5,580.833 245.5,579.167 245.5,577.5C 201.165,577.667 156.832,577.5 112.5,577C 109.5,574.333 106.5,571.667 103.5,569C 78.261,568.173 53.0943,568.339 28,569.5C 24.7026,567.205 21.7026,564.538 19,561.5C 13.0061,553.675 6.50613,546.342 -0.5,539.5C -0.5,405.833 -0.5,272.167 -0.5,138.5C 3.59495,133.846 8.09495,129.513 13,125.5C 13.1736,92.1249 13.6736,58.7916 14.5,25.5C 21.6813,18.4856 28.6813,11.319 35.5,4C 97.5,3.33333 159.5,3.33333 221.5,4C 228.167,10.6667 234.833,17.3333 241.5,24C 343.167,24.6667 444.833,24.6667 546.5,24C 553.199,17.6359 559.532,10.9692 565.5,4C 627.5,3.33333 689.5,3.33333 751.5,4C 758.667,11.1667 765.833,18.3333 773,25.5C 773.333,58.8333 773.667,92.1667 774,125.5C 777.742,129.747 781.908,133.414 786.5,136.5 Z M 542.5,572.5 C 542.715,570.821 542.048,569.821 540.5,569.5C 442.167,569.5 343.833,569.5 245.5,569.5C 245.5,570.5 245.5,571.5 245.5,572.5C 201.832,572.667 158.165,572.5 114.5,572C 109.833,568.667 105.833,564.667 102.5,560C 164.499,559.5 226.499,559.333 288.5,559.5C 288.714,557.856 288.38,556.356 287.5,555C 223.497,554.833 159.497,554.333 95.5,553.5C 94.6364,551.803 93.3031,550.637 91.5,550C 74.8333,549.667 58.1667,549.333 41.5,549C 34.3719,540.203 26.8719,531.703 19,523.5C 18.3333,358.5 18.3333,193.5 19,28.5C 25.4459,22.0541 31.9459,15.5541 38.5,9C 98.5,8.33333 158.5,8.33333 218.5,9C 225.5,15.6667 232.5,22.3333 239.5,29C 342.5,29.6667 445.5,29.6667 548.5,29C 555.167,22.3333 561.833,15.6667 568.5,9C 628.833,8.33333 689.167,8.33333 749.5,9C 755.667,15.1667 761.833,21.3333 768,27.5C 768.667,192.833 768.667,358.167 768,523.5C 760.853,532.282 753.353,540.782 745.5,549C 728.833,549.333 712.167,549.667 695.5,550C 694.167,551.333 692.833,552.667 691.5,554C 627.501,554.5 563.501,554.667 499.5,554.5C 499.5,556.167 499.5,557.833 499.5,559.5C 561.501,559.333 623.501,559.5 685.5,560C 681.5,564 677.5,568 673.5,572C 629.835,572.5 586.168,572.667 542.5,572.5 Z M 97.5,562.5 C 74.6727,563.498 51.6727,563.831 28.5,563.5C 20.9021,554.73 13.0688,546.063 5,537.5C 4.33333,405.167 4.33333,272.833 5,140.5C 7.66667,137.833 10.3333,135.167 13,132.5C 13.3333,263.5 13.6667,394.5 14,525.5C 22.6298,535.798 31.6298,545.798 41,555.5C 57.1437,555.557 73.1437,555.224 89,554.5C 92.003,557.067 94.8363,559.734 97.5,562.5 Z M 773.5,132.5 C 776.999,135.166 779.999,138.333 782.5,142C 781.167,273.333 781.167,404.667 782.5,536C 774.833,545 767.167,554 759.5,563C 736.167,563.667 712.833,563.667 689.5,563C 692.393,559.604 695.726,556.771 699.5,554.5C 714.957,554.712 730.457,555.045 746,555.5C 755.313,545.85 764.313,535.85 773,525.5C 773.5,394.5 773.667,263.5 773.5,132.5 Z"/></g>
<g><path style="opacity:0.165" fill="#0672e0" d="M 97.5,562.5 C 98.0431,562.56 98.3764,562.893 98.5,563.5C 75.0035,564.829 51.6701,564.829 28.5,563.5C 51.6727,563.831 74.6727,563.498 97.5,562.5 Z"/></g>
<g><path style="opacity:0.165" fill="#0672e0" d="M 540.5,569.5 C 542.048,569.821 542.715,570.821 542.5,572.5C 541.599,571.71 540.932,570.71 540.5,569.5 Z"/></g>
</svg>
