<?xml version="1.0" encoding="utf-8"?>
<!-- Generator: Adobe Illustrator 14.0.0, SVG Export Plug-In . SVG Version: 6.00 Build 43363)  -->
<!DOCTYPE svg PUBLIC "-//W3C//DTD SVG 1.1//EN" "http://www.w3.org/Graphics/SVG/1.1/DTD/svg11.dtd">
<svg version="1.1" id="图层_1" xmlns="http://www.w3.org/2000/svg" xmlns:xlink="http://www.w3.org/1999/xlink" x="0px" y="0px"
	 width="132.825px" height="106.502px" viewBox="0 0 132.825 106.502" enable-background="new 0 0 132.825 106.502"
	 xml:space="preserve">
<path fill="#4C7F7F" d="M16.753,19.148H3.723v-5.186h13.03V19.148z"/>
<path fill="#4C7F7F" d="M3.723,60.897V19.148h5.186v41.749H3.723z"/>
<path fill="#5C8F8F" d="M16.753,18.748H3.723v-4.255h13.03V18.748z"/>
<path fill="#5C8F8F" d="M4.255,60.897V19.148h4.122v41.749H4.255z"/>
<path fill="#6B9E9E" d="M16.753,18.217H3.723v-3.191h13.03V18.217z"/>
<path fill="#6B9E9E" d="M4.653,60.897V19.148h3.324v41.749H4.653z"/>
<path fill="#7AADAD" d="M16.753,17.685H3.723v-2.261h13.03V17.685z"/>
<path fill="#7AADAD" d="M5.186,60.897V19.148h2.26v41.749H5.186z"/>
<path fill="#8ABDBD" d="M16.753,17.153H3.723v-1.196h13.03V17.153z"/>
<path fill="#8ABDBD" d="M5.717,60.897V19.148h1.197v41.749H5.717z"/>
<path fill="#99CCCC" d="M16.753,16.754H3.723v-0.266h13.03V16.754z"/>
<path fill="#99CCCC" d="M6.249,60.897V19.148h0.266v41.749H6.249z"/>
<path fill="#003333" d="M29.65,40.287h96.528v59.699H29.65V40.287z"/>
<path fill="#99CCCC" d="M16.753,8.644H29.65v94.135H16.753V8.644z"/>
<path fill="#94C7C7" d="M16.753,48.531l12.897-5.851v60.098H16.753V48.531z"/>
<path fill="#8FC2C2" d="M16.753,63.024l12.897-5.851v45.605H16.753V63.024z"/>
<path fill="#8ABDBD" d="M16.753,74.193l12.897-5.718v34.304H16.753V74.193z"/>
<path fill="none" stroke="#000000" stroke-width="2" d="M16.753,8.644H29.65v94.135H16.753V8.644"/>
<path fill="#4C7F7F" d="M32.442,40.287h96.528v54.646H32.442V40.287z"/>
<path fill="#548787" d="M32.442,42.681h96.528v49.594H32.442V42.681z"/>
<path fill="#5C8F8F" d="M32.442,45.207h96.528v44.541H32.442V45.207z"/>
<path fill="#639696" d="M32.442,47.999h96.528v38.957H32.442V47.999z"/>
<path fill="#6B9E9E" d="M32.442,50.393h96.528V84.43H32.442V50.393z"/>
<path fill="#73A6A6" d="M32.442,53.185h96.528v28.586H32.442V53.185z"/>
<path fill="#7AADAD" d="M32.442,55.711h96.528v23.533H32.442V55.711z"/>
<path fill="#82B5B5" d="M32.442,58.503h96.528v17.949H32.442V58.503z"/>
<path fill="#8ABDBD" d="M32.442,60.897h96.528v13.029H32.442V60.897z"/>
<path fill="#91C4C4" d="M32.442,63.422h96.528v8.111H32.442V63.422z"/>
<path fill="#99CCCC" d="M32.442,66.215h96.528v2.525H32.442V66.215z"/>
<path fill="none" stroke="#000000" stroke-width="2" d="M32.442,40.287h96.528v54.646H32.442V40.287"/>
<path fill="#336666" stroke="#000000" stroke-width="2" d="M29.65,97.46h99.32v5.318H29.65V97.46z"/>
<path fill="#669999" stroke="#000000" stroke-width="2" d="M34.968,97.46l2.792-5.186h2.526l2.659,5.186H34.968z"/>
<path fill="#669999" stroke="#000000" stroke-width="2" d="M118.466,97.46l2.793-5.186h2.525l2.394,5.186H118.466z"/>
<path fill="#99CCCC" d="M8.908,68.74h7.845v34.038H8.908V68.74z"/>
<path fill="#94C7C7" d="M8.908,82.967l7.845-1.994v21.806H8.908V82.967z"/>
<path fill="#8FC2C2" d="M8.908,88.285l7.845-2.127v16.62H8.908V88.285z"/>
<path fill="#8ABDBD" d="M8.908,92.407l7.845-1.861v12.232H8.908V92.407z"/>
<path fill="none" stroke="#000000" stroke-width="2" d="M8.908,68.74h7.845v34.038H8.908V68.74"/>
<path fill="none" stroke="#000000" stroke-width="2" d="M16.753,19.148H3.723v-5.186h13.03V19.148"/>
<path fill="none" stroke="#000000" stroke-width="2" d="M3.723,60.897V19.148h5.186v41.749H3.723"/>
<path fill="#336666" stroke="#000000" stroke-width="2" d="M8.908,37.495h7.845v18.216H8.908V37.495z"/>
<path fill="#669999" d="M86.688,68.74V13.962h3.59V68.74H86.688z"/>
<path fill="#669999" stroke="#000000" stroke-width="2" d="M63.421,69.007V13.962h3.324v55.045H63.421z"/>
<path fill="#99CCCC" d="M88.284,69.007V13.962h0.399v55.045H88.284z"/>
<path fill="#99CCCC" d="M65.017,69.007V13.962h0.266v55.045H65.017z"/>
<path fill="none" stroke="#000000" stroke-width="2" d="M86.688,68.74V13.962h3.59V68.74H86.688"/>
<path fill="#4C7F7F" stroke="#000000" stroke-width="2" d="M84.694,53.185V29.651h7.712v23.534H84.694z"/>
<path fill="#4C7F7F" stroke="#000000" stroke-width="2" d="M61.161,53.185V29.651h7.844v23.534H61.161z"/>
<path fill="#5C8F8F" d="M85.492,53.185V29.651h6.249v23.534H85.492z"/>
<path fill="#5C8F8F" d="M61.958,53.185V29.651h6.25v23.534H61.958z"/>
<path fill="#6B9E9E" d="M86.024,53.185V29.651h4.92v23.534H86.024z"/>
<path fill="#6B9E9E" d="M62.756,53.185V29.651h4.654v23.534H62.756z"/>
<path fill="#7AADAD" d="M63.421,53.185V29.651h3.324v23.534H63.421z"/>
<path fill="#7AADAD" d="M86.688,53.185V29.651h3.59v23.534H86.688z"/>
<path fill="#8ABDBD" d="M87.487,53.185V29.651h1.994v23.534H87.487z"/>
<path fill="#8ABDBD" d="M64.219,53.185V29.651h1.729v23.534H64.219z"/>
<path fill="#99CCCC" d="M88.284,53.185V29.651h0.399v23.534H88.284z"/>
<path fill="#99CCCC" d="M65.017,53.185V29.651h0.266v23.534H65.017z"/>
<path fill="#669999" d="M63.421,69.007V13.962h3.324v55.045H63.421z"/>
<path fill="#99CCCC" d="M65.017,69.007V13.962h0.266v55.045H65.017z"/>
<path fill="none" stroke="#000000" stroke-width="2" d="M63.421,69.007V13.962h3.324v55.045H63.421"/>
<path fill="#4C7F7F" d="M61.161,53.185V29.651h7.844v23.534H61.161z"/>
<path fill="#5C8F8F" d="M61.958,53.185V29.651h6.25v23.534H61.958z"/>
<path fill="#6B9E9E" d="M62.756,53.185V29.651h4.654v23.534H62.756z"/>
<path fill="#7AADAD" d="M63.421,53.185V29.651h3.324v23.534H63.421z"/>
<path fill="#8ABDBD" d="M64.219,53.185V29.651h1.729v23.534H64.219z"/>
<path fill="#99CCCC" d="M65.017,53.185V29.651h0.266v23.534H65.017z"/>
<path fill="none" stroke="#000000" stroke-width="2" d="M61.161,53.185V29.651h7.844v23.534H61.161"/>
<path fill="none" stroke="#000000" stroke-width="2" d="M15.423,68.74v-0.531l0.133-0.931l0.133-1.063l0.266-1.463l0.133-1.463
	l0.266-1.729v-1.861l0.133-1.861l-0.133-1.994l-0.133-1.861l-0.266-1.861l-0.532-1.729l-0.665-1.596l-0.798-1.463l-1.063-1.196
	l-1.462-0.931"/>
<path fill="none" stroke="#000000" stroke-width="2" d="M14.227,68.74v-1.729l0.133-1.462l0.133-1.596l0.133-1.861l0.133-2.127
	v-2.261v-1.063v-2.394v-2.26l-0.266-2.394l-0.266-2.128l-0.399-1.994l-0.399-1.861l-0.665-1.596l-0.798-1.329l-0.532-0.399"/>
<path fill="none" stroke="#000000" stroke-width="2" d="M14.227,82.036l4.521-0.133l4.122-0.266l3.59-0.399l4.653-0.931l3.59-1.196
	l3.59-1.861l2.792-2.526L42.68,71.4l0.266-2.127V68.74l-2.659-28.453"/>
<path fill="none" stroke="#000000" stroke-width="2" d="M14.227,86.956h4.521l4.122-0.266l3.59-0.399l4.653-0.931l3.59-1.063
	l3.59-1.861l2.792-2.526l1.596-3.324l0.266-2.127v-0.532l-2.659-28.719"/>
<path fill="#CCCCCC" d="M40.287,66.215h5.185v7.711h-5.185V66.215z"/>
<path fill="none" stroke="#FFFFFF" stroke-width="2" d="M40.287,73.926v-7.711h5.185"/>
<path fill="none" stroke="#000000" stroke-width="2" d="M40.287,73.926h5.185v-7.711"/>
<path fill="#E5E5E5" stroke="#000000" stroke-width="2" d="M64.485,9.707l-0.798-1.729V5.452l0.798-1.729h1.063l0.665,1.729v2.526
	l-0.665,1.729H64.485z"/>
<path fill="#CCCCCC" stroke="#000000" stroke-width="2" d="M64.751,9.707v4.255h0.797V9.707H64.751z"/>
<path fill="#336666" stroke="#000000" stroke-width="2" d="M69.005,66.215h-7.844v-1.197h7.844V66.215z"/>
<path fill="#336666" stroke="#000000" stroke-width="2" d="M92.406,66.215h-7.978v-1.197h7.978V66.215z"/>
</svg>
