<?xml version="1.0" encoding="utf-8"?>
<!-- Generator: Adobe Illustrator 14.0.0, SVG Export Plug-In . SVG Version: 6.00 Build 43363)  -->
<!DOCTYPE svg PUBLIC "-//W3C//DTD SVG 1.1//EN" "http://www.w3.org/Graphics/SVG/1.1/DTD/svg11.dtd">
<svg version="1.1" id="图层_1" xmlns="http://www.w3.org/2000/svg" xmlns:xlink="http://www.w3.org/1999/xlink" x="0px" y="0px"
	 width="81.338px" height="106.502px" viewBox="0 0 81.338 106.502" enable-background="new 0 0 81.338 106.502"
	 xml:space="preserve">
<path fill="#E5E5E5" d="M23.879,44.777h54.474v58.632H23.879V44.777z"/>
<path fill="#FFFFFF" d="M26.118,53.198h50.21v47.972h-50.21V53.198z"/>
<path fill="#004CE5" d="M26.118,53.198h50.21v18.869h-50.21V53.198z"/>
<path fill="none" stroke="#000000" stroke-width="2" d="M31.235,72.067V53.198"/>
<path fill="none" stroke="#000000" stroke-width="2" d="M36.139,72.067V53.198"/>
<path fill="none" stroke="#000000" stroke-width="2" d="M41.149,72.067V53.198"/>
<path fill="none" stroke="#000000" stroke-width="2" d="M45.947,72.067V53.198"/>
<path fill="none" stroke="#000000" stroke-width="2" d="M50.957,72.067V53.198"/>
<path fill="none" stroke="#000000" stroke-width="2" d="M55.966,72.067V53.198"/>
<path fill="none" stroke="#000000" stroke-width="2" d="M60.871,72.067V53.198"/>
<path fill="none" stroke="#000000" stroke-width="2" d="M65.88,72.067V53.198"/>
<path fill="none" stroke="#000000" stroke-width="2" d="M70.891,72.067V53.198"/>
<path fill="none" stroke="#000000" stroke-width="2" d="M26.118,59.381h50.21"/>
<path fill="none" stroke="#000000" stroke-width="2" d="M76.328,65.67h-50.21"/>
<path fill="none" stroke="#000000" stroke-width="2" d="M26.118,72.067h50.21"/>
<path fill="#E5E5E5" stroke="#000000" stroke-width="2" d="M14.604,98.611l-2.238,0.64h-2.132l-2.025-0.64l-2.025-1.065
	l-1.599-1.493L3.518,94.24l-0.533-2.239v-2.238l0.533-2.238l1.066-1.813l1.599-1.6l2.025-0.959l2.025-0.64h13.646v9.487h-4.264
	l-0.533,2.239l-1.066,1.812l-1.599,1.493L14.604,98.611z"/>
<circle fill="#D1D1D1" cx="11.3" cy="90.829" r="7.356"/>
<circle fill="#BFBFBF" cx="11.407" cy="90.829" r="5.223"/>
<circle fill="#A6A6A6" cx="11.3" cy="90.829" r="3.091"/>
<circle fill="#7F7F7F" stroke="#000000" stroke-width="2" cx="11.3" cy="90.829" r="2.132"/>
<path fill="#CCCCCC" stroke="#000000" stroke-width="2" d="M23.879,90.829l2.238-1.066v-5.224l-2.238-0.959V90.829z"/>
<path fill="#B2B2B2" d="M23.879,89.763l2.238-0.64v-3.731l-2.238-0.853V89.763z"/>
<path fill="#999999" d="M23.879,88.697l2.238-0.319v-2.239l-2.238-0.64V88.697z"/>
<path fill="#FF0000" d="M26.118,84.539l2.559-0.853l2.345-1.706l2.665-1.813l2.665-0.746l1.173-0.106l-0.64,1.173l2.239,2.132
	l3.091-1.066l2.559-1.599l2.771-1.066l2.985-0.64h0.214l0.105,0.107l-0.105,0.213l-1.492,2.345l-0.107,0.854l0.213,0.319
	l0.427,0.214l2.878,0.319l2.879-1.279l2.346-1.599l2.664-1.493l2.985-0.853l1.065-0.106l0.32,0.427l0.106,0.532l-1.173,2.772
	l-0.213,0.532l0.107,0.107l3.305-0.214l3.41-0.319l1.174,0.213l0.426,0.213l-0.533,0.32l-2.238,1.492l-1.387,1.173l-0.213,0.319
	l0.213,0.107l3.625,0.319l0.533,0.213v0.427l-2.346,1.279l-3.197,0.959l-0.854,0.533l-0.106,0.64v0.32l2.772,0.853l3.197,1.066
	l0.533,0.426h-3.625l-2.984-0.426l-3.518-0.427l-1.066,0.213l-0.32,0.32l-0.105,0.319l1.492,2.665l0.746,0.32l-3.198,0.319
	L56.82,94.24l-3.092-1.066l-1.919-0.106l-0.213,0.319l0.213,2.985l0.319,0.853l-2.558-0.959l-2.985-1.386l-2.771-0.854l-3.198-0.106
	l-1.706,0.106l-0.32,0.32l-0.106,2.878l-0.746,0.106l-0.747-0.106l-2.665-1.705l-1.919-2.025l-2.345-2.025l-2.878-1.493
	l-1.066-0.213v-0.64V84.539z"/>
<path fill="#FF1400" d="M26.438,84.966l2.985-1.066l2.559-2.132l2.878-1.386l1.812-0.214l-0.64,1.066l0.213,0.746l2.452,1.066
	l2.666-1.279l2.558-1.492l2.878-0.96l1.813-0.319l0.107,0.106l-1.387,2.345l-0.213,0.746l0.213,0.32l0.32,0.213h3.411l2.772-1.492
	l2.558-1.599l2.559-1.173l1.493-0.214l0.426-0.106h0.533l0.319,0.32l0.106,0.426l-1.065,2.559l-0.106,0.533l0.106,0.106h0.106
	l2.984-0.213l3.199-0.213l1.385,0.319l-2.451,1.6l-1.279,1.386l0.213,0.106l3.305,0.319l0.427,0.32l-0.106,0.64l-0.427,0.319
	l-3.411,0.854l-1.706,1.065l-0.106,0.32l0.106,0.426l3.092,0.96l2.239,0.746l0.532,0.319l-0.427,0.214l-3.73-0.214l-3.518-0.532
	l-2.346,0.106l-0.32,0.106l-0.106,0.319l1.279,2.665l0.533,0.32l-0.746,0.533l-3.198-0.746l-2.665-1.066l-2.878-0.427h-0.32
	l-0.213,0.214l0.426,3.518l-2.984-1.173l-2.771-1.173l-3.625-0.64l-2.665,0.214l-0.213,0.106l-0.213,2.665l-0.746,0.106l-0.64-0.106
	l-2.452-1.492l-2.559-2.346l-2.238-1.705l-2.878-1.066l-0.106-2.985v-0.64l-0.107-0.64V84.966z"/>
<path fill="#FF2900" d="M26.864,85.392l9.061-4.264l0.746,2.452l9.275-3.412l0.852,3.198l5.011-2.025l6.396-2.452l-0.64,3.412h7.035
	l-2.984,2.451l3.625,0.96l-4.797,2.665l5.223,2.559h-9.274l1.599,2.878l-8.635-1.599l-0.213,3.411l-10.447-2.452l-1.173,2.452
	l-10.234-5.863L26.864,85.392z"/>
<path fill="#FF3D00" d="M27.504,85.925l7.569-3.838l0.639,2.025l7.996-3.198l1.065,2.772l4.371-1.706l5.863-2.238l-0.426,2.984
	h6.396l-2.345,2.239l3.197,0.746l-4.051,2.451l4.691,2.346l-8.209,0.32l1.386,2.132l-7.675-1.173l-0.428,2.985l-9.274-2.133
	l-1.172,2.133L27.93,89.55L27.504,85.925z"/>
<path fill="#FF5200" d="M27.93,86.352l6.396-3.411l0.427,1.599l7.036-2.559l0.746,2.132l4.051-1.599l5.011-1.813v2.452h5.863
	l-2.026,1.813l2.985,0.746L55.22,87.95l3.838,2.025l-6.93,0.427l1.066,2.025l-6.609-1.066l-0.639,2.665l-7.996-1.812l-1.386,1.812
	l-8.102-4.477L27.93,86.352z"/>
<path fill="#FF6600" d="M28.25,86.778l5.224-2.878l0.426,1.279l5.65-2.452l0.746,1.813l3.625-1.386l4.478-1.6l0.213,2.026h5.011
	l-1.173,1.599l2.771,0.746l-2.771,1.813l3.305,1.813l-5.543,0.426l0.533,1.813L45.2,90.936l-0.64,2.238l-7.249-1.386l-1.172,1.599
	l-7.036-3.837L28.25,86.778z"/>
<path fill="#FF7A00" d="M28.89,87.204l4.051-2.452v0.96l4.584-2.025l0.746,1.279l3.092-1.279l3.837-1.386l0.319,1.599h4.479
	l-0.854,1.492l2.665,0.533l-2.025,1.6l2.772,1.599l-4.584,0.427l0.639,1.599l-4.903-0.64l-0.747,1.919l-6.076-1.066l-1.386,1.279
	l-5.757-3.091L28.89,87.204z"/>
<path fill="#FF8F00" d="M29.316,87.525l2.771-1.813l-0.213,0.64l3.411-1.813l0.853,0.853l2.345-1.065l3.305-1.173l0.746,1.173h3.838
	l-0.213,1.065l2.238,0.533l-1.279,1.386l2.238,1.279l-3.41,0.533l0.213,1.279l-3.838-0.213l-0.959,1.386l-4.798-0.64l-1.492,0.853
	l-4.797-2.238L29.316,87.525z"/>
<path fill="#FFA300" d="M29.742,88.163l1.493-1.599l-0.106,0.213l2.132-1.386l0.64,0.32l2.025-0.746l2.559-0.854l1.066,0.64h2.985
	l0.426,0.746l2.026,0.64l-0.64,1.066l1.813,0.959l-2.452,0.533v1.066h-2.772l-0.959,1.173l-3.837-0.533l-1.599,0.533l-3.838-1.6
	L29.742,88.163z"/>
<path fill="#FFB800" d="M30.062,88.59l0.427-1.065l-0.427-0.214l1.173-0.959l0.64-0.214l1.386-0.64l2.025-0.532l1.279,0.213h2.345
	l1.066,0.533l1.6,0.426l0.213,0.854l1.172,0.746l-1.172,0.64l-0.213,0.746l-2.026,0.213l-1.279,0.854l-2.559-0.214l-1.599,0.427
	l-2.878-1.066L30.062,88.59z"/>
<ellipse fill="#FFCC00" cx="34.433" cy="87.631" rx="5.33" ry="1.919"/>
<path fill="#B2B2B2" stroke="#000000" stroke-width="2" d="M42.748,19.617l-8.421,5.224v7.463h8.421v12.473h16.631V32.304h8.527
	v-6.396l-8.527-6.29V7.145l-8.422-0.746l-0.32-1.172L49.784,4.16l-0.96-0.746l-1.279-0.427H46.16l-1.173,0.427L43.92,4.16
	l-0.746,1.066l-0.427,1.172V19.617z"/>
<circle fill="#666666" stroke="#000000" stroke-width="2" cx="55.114" cy="7.145" r="4.158"/>
<path fill="none" stroke="#000000" stroke-width="2" d="M26.118,53.198h49.997v47.972H26.118V53.198"/>
<path fill="none" stroke="#000000" stroke-width="2" d="M23.879,44.777h54.474v58.632H23.879V44.777"/>
<path fill="none" stroke="#000000" stroke-width="2" d="M42.748,32.304h16.631"/>
<path fill="none" stroke="#000000" stroke-width="2" d="M59.378,19.617H42.748"/>
<path fill="none" stroke="#000000" stroke-width="2" d="M34.326,25.907h33.58"/>
</svg>
