<?xml version="1.0" encoding="utf-8"?>
<!-- Generator: Adobe Illustrator 14.0.0, SVG Export Plug-In . SVG Version: 6.00 Build 43363)  -->
<!DOCTYPE svg PUBLIC "-//W3C//DTD SVG 1.1//EN" "http://www.w3.org/Graphics/SVG/1.1/DTD/svg11.dtd">
<svg version="1.1" id="图层_1" xmlns="http://www.w3.org/2000/svg" xmlns:xlink="http://www.w3.org/1999/xlink" x="0px" y="0px"
	 width="124.149px" height="106.502px" viewBox="0 0 124.149 106.502" enable-background="new 0 0 124.149 106.502"
	 xml:space="preserve">
<path fill="#7F7FFF" stroke="#000000" stroke-width="2" d="M3.48,42.75v55.053h78.416V42.75H3.48z"/>
<path fill="#7F7FFF" stroke="#000000" stroke-width="2" d="M3.48,35.045l78.416-15.907V42.75H3.48V35.045z"/>
<path fill="#4C4CCC" stroke="#000000" stroke-width="2" d="M81.896,97.803l5.468-2.733V16.529l-5.468,2.609V97.803z"/>
<path fill="#7F7FFF" d="M120.546,98.797V7.705l-2.361-2.486l-3.106-0.994L111.1,3.728h-1.118h-0.994l-3.853,0.497l-2.982,0.994
	l-2.361,2.113l-0.124,0.373v91.092l2.485,2.734l2.982,0.994l3.853,0.497h0.994h1.118l3.978-0.497l3.106-0.994l2.361-2.361V98.797z"
	/>
<path fill="#A6A6FF" d="M116.569,98.797v-2.858v-2.857v-2.858V7.705l-1.864-2.983l-3.355-1.242h-0.621h-0.746h-0.621l-3.479,0.994
	l-2.237,2.361l-0.124,0.373v0.497v2.858v5.716v5.593l0.124,5.717v5.716V50.33v22.867v5.592l-0.124,5.717v5.717v5.716l0.124,3.729
	l2.237,2.361l3.479,0.994h0.621h0.746l3.479-0.994l2.236-2.361L116.569,98.797z"/>
<path fill="#CCCCFF" d="M112.841,98.797V7.705l-1.243-3.355l-1.615-0.622l-2.361,2.361l-0.124,1.616v91.092l1.118,3.479l1.367,0.746
	l2.609-2.609L112.841,98.797z"/>
<path fill="none" stroke="#000000" stroke-width="2" d="M120.546,98.797V7.705l-2.361-2.486l-3.106-0.994L111.1,3.728h-1.118h-0.994
	l-3.853,0.497l-2.982,0.994l-2.361,2.113l-0.124,0.373v91.092l2.485,2.734l2.982,0.994l3.853,0.497h0.994h1.118l3.978-0.497
	l3.106-0.994l2.361-2.361V98.797"/>
<path fill="none" stroke="#000000" stroke-width="2" d="M8.327,33.927v0.497v0.497v0.621v0.497v0.497v0.621v0.497v0.622v0.497v0.621
	v0.621v0.497v0.621v0.498v0.621v0.497"/>
<path fill="none" stroke="#000000" stroke-width="2" d="M13.298,32.933v0.621v0.621v0.621v0.622v0.621v0.621v0.622v0.621v0.621
	v0.621v0.622v0.621v0.621v0.497v0.622v0.621"/>
<path fill="none" stroke="#000000" stroke-width="2" d="M18.268,32.063v0.621v0.621v0.746v0.621v0.621v0.746v0.621v0.622v0.745
	v0.621v0.746v0.621v0.746v0.621v0.746v0.621"/>
<path fill="none" stroke="#000000" stroke-width="2" d="M23.115,31.069v0.745v0.746v0.621v0.746v0.745v0.746v0.745v0.746v0.745
	v0.746v0.745v0.746v0.745v0.746v0.621v0.746"/>
<path fill="none" stroke="#000000" stroke-width="2" d="M28.086,29.949v0.746v0.87v0.745v0.87v0.746v0.745v0.87v0.87v0.745v0.87
	v0.746v0.869v0.746v0.87v0.745v0.746"/>
<path fill="none" stroke="#000000" stroke-width="2" d="M32.932,28.955v0.87v0.87v0.87v0.87v0.745v0.87v0.87v0.869v0.87v0.87v0.87
	v0.87v0.869v0.87v0.994v0.746"/>
<path fill="none" stroke="#000000" stroke-width="2" d="M37.904,28.086v0.869v0.87v0.994v0.87v0.994v0.87v0.994v0.87v0.994v0.87
	v0.869v0.994v0.87v0.994v0.87v0.87"/>
<path fill="none" stroke="#000000" stroke-width="2" d="M42.751,27.092v0.994v0.994v0.869v0.994v0.995v0.994v0.994v0.994v0.994v0.87
	v0.994v0.994v0.994v0.994v0.994v0.994"/>
<path fill="none" stroke="#000000" stroke-width="2" d="M47.721,26.222v0.994v0.994v0.994v1.118v0.994v0.994v0.994v1.119v0.994
	v1.118v0.994v1.118v0.994v0.994v1.119v0.994"/>
<path fill="none" stroke="#000000" stroke-width="2" d="M52.692,25.228v1.118v0.994v1.118v1.119v0.994v1.118v1.118v1.119v1.118
	v1.118v1.119v1.118v1.118v1.118v1.119v0.994"/>
<path fill="none" stroke="#000000" stroke-width="2" d="M57.539,24.109v1.119v1.118v1.118v1.243v1.118v1.243v1.118v1.118v1.243
	v1.118v1.243v1.118v1.243v1.118v1.243v1.118"/>
<path fill="none" stroke="#000000" stroke-width="2" d="M62.51,23.115v1.243V25.6v1.243v1.243v1.118v1.242v1.243v1.243v1.242v1.243
	v1.242v1.243v1.242v1.243v1.118v1.243"/>
<path fill="none" stroke="#000000" stroke-width="2" d="M67.108,22.245l0.124,1.242v1.243v1.242v1.367l0.124,1.243v1.242v1.367
	v1.243v1.242v1.367v1.243l-0.124,1.242v1.367v1.242v1.367l-0.124,1.243"/>
<path fill="none" stroke="#000000" stroke-width="2" d="M72.327,21.251v1.366v1.243v1.367v1.367v1.242v1.367v1.367v1.367v1.366
	v1.367v1.367v1.367v1.242v1.367v1.367v1.367"/>
<path fill="none" stroke="#000000" stroke-width="2" d="M77.05,20.132v1.367v1.367l0.124,1.491v1.367v1.367v1.491v1.366v1.492v1.491
	v1.366v1.491v1.367v1.367l-0.124,1.491v1.367v1.367"/>
<path fill="#6565E5" stroke="#000000" stroke-width="2" d="M84.01,58.532h15.658v34.673H84.01V58.532z"/>
<path fill="#999999" stroke="#000000" stroke-width="2" d="M81.896,19.138l5.468-2.609L8.575,32.311L3.48,35.045L81.896,19.138z"/>
<path fill="#F0E808" d="M25.476,49.461v39.271h22.866V49.461H25.476z"/>
<path fill="#E3D40F" d="M36.412,49.461v39.271h11.558V49.461H36.412z"/>
<path fill="#D4BD17" d="M44.987,49.461v39.271h27.465V49.461H44.987z"/>
<path fill="#00B200" stroke="#000000" stroke-width="2" d="M41.632,88.732v-3.978H62.51v3.978H41.632z"/>
<path fill="#FFFF7F" d="M12.801,49.336h13.173v39.396H12.801V49.336z"/>
<path fill="#B2B2B2" stroke="#000000" stroke-width="2" d="M22.618,73.073h-5.344l-0.994-0.621l-0.621-1.243l-0.373-0.994
	l-0.249-1.242l-0.248-1.367V66.86l-0.124-0.746v-0.87l0.124-1.491l0.124-1.615l0.249-1.367l0.372-1.118l0.249-0.994l0.745-0.994
	l0.498-0.249l0.248-0.124h5.344l1.118,0.621l0.622,1.243l0.248,1.118l0.373,1.242l0.124,1.367l0.124,0.87v0.746v0.745v1.616
	l-0.248,1.366l-0.124,1.367l-0.373,1.118l-0.373,0.994L23.364,72.7l-0.373,0.248L22.618,73.073z"/>
<ellipse fill="#F2F2F2" stroke="#000000" stroke-width="2" cx="22.494" cy="65.119" rx="2.609" ry="7.829"/>
<ellipse stroke="#000000" stroke-width="2" cx="22.494" cy="65.119" rx="1.988" ry="5.965"/>
<path fill="#CC0000" d="M21.251,64.622l0.249-1.367v-1.367l0.124-1.242l0.994-0.746l1.615-0.248l1.616-0.125l1.988-0.248
	l2.112-0.124l1.988-0.125l1.74-0.124l1.242-0.124l1.119-0.124l1.864-0.249l1.242-0.124l1.243-0.124l1.242-0.125l1.119-0.124
	l1.242-0.124h0.994h0.746l0.869,0.248v0.125l-1.242,0.621l-1.367,0.373l-1.367,0.497l-0.87,0.745l-0.124,0.249l-1.367,0.248
	l-1.242,0.249l-1.491,0.372l-1.367,0.249l-1.243,0.373l-1.118,0.373l-0.124,0.248h11.185v0.249l-1.118,0.621l-1.367,0.373
	l-1.491,0.372l-1.616,0.373l-1.366,0.373l-1.243,0.124H36.04h-3.729l0.746,0.746l1.366,0.497l1.491,0.373l1.864,0.124l1.864,0.124
	l1.74-0.124h1.491h1.118l1.243-0.124h1.491l1.491,0.248l0.745,0.249l1.119,0.497l-2.113,0.248l-1.615,0.124l-1.367,0.249
	l-1.739,0.248l-1.243,0.249l-1.243,0.248h-1.242h-3.729l1.118,0.746l0.746,0.248l0.621,0.994l1.119,0.622l1.118,0.248l0.621,0.249
	L39.767,72.7l-1.118,0.124l-1.367,0.124h-0.745h-0.622H35.17h-1.243l-1.366-0.124l-1.119-0.373l-0.994-0.621l-0.87-0.622
	l-1.118-0.745l-0.124-0.124h-1.367l-1.864,0.124h-1.367l-0.124-0.249h-1.615l-0.373-1.118l-0.249-0.373l-0.124-0.124V64.622z"/>
<path fill="#ED9900" d="M21.5,64.87l0.621-0.869l0.249-1.367l-0.249-1.243l-0.124-0.373l0.124-0.372l0.994-0.373l1.243-0.124
	l1.366-0.125l1.492-0.124l1.242-0.124l1.243-0.124l1.491-0.249h1.118l0.373-0.124h0.497l0.994,0.124v0.124l-0.497,0.125h2.609h1.491
	h0.622h0.372L37.904,59.9l-1.74,0.497l-1.367,0.373l-0.994,0.373l-1.118,0.497l-0.87,0.621v0.124h-0.497l0,0l1.243,0.249
	l1.366,0.373l1.616,0.745l1.739,0.497l1.367,0.249l0.124,0.124h-2.236h-1.243h-1.242l-1.119,0.124h-1.491l-0.373,0.124l-0.124,0.249
	v0.248l1.119,0.373h0.248l1.491,0.497l1.988,0.124h1.491h0.249l-0.124,0.373l-0.995,0.249l-0.869,0.497l0.124,0.248l0.248,0.125
	l-0.124,0.124l-0.248,0.124h1.366l-0.869,0.373l-0.746,0.373l-0.87,0.745l-0.248,0.249l-0.994,0.248l-1.367,0.124h-0.249v0.125
	l0.498,0.994l0,0l0,0l-1.119-0.497l-1.242-0.373l-1.243-0.124l-1.242-0.249l-1.119-0.124H24.73l-1.242-0.249L22.37,69.22
	l-0.622-0.372l-0.124-0.373l0.497-1.491l0.249-1.119l-0.249-0.497L21.5,64.87z"/>
<path fill="#FFFF00" d="M21.748,65.119l0.746-0.994l0.373-0.746l-0.249-1.242l-0.373-0.87v-0.373l0.373-0.248l5.841-0.746
	l4.723-0.248l-1.367,0.372l-0.994,0.249l-1.367,0.497l-0.373,0.373l-0.124,0.124l0.124,0.248l0.994,0.373l0.497,0.125l-1.491,0.248
	l-1.491,0.124L26.47,62.51h-0.124v0.124l1.118,0.497l1.118,0.373l1.491,0.124l2.113,0.124l1.615,0.124h0.373l-1.491,0.373
	l-1.119,0.124l-1.118,0.249l-1.242,0.248l-1.119,0.249l-1.242,0.124h-0.249l0.124,0.373l0.125,0.248l1.367,0.373h1.118l1.118-0.124
	l1.243-0.124h0.124v0.124l-0.746,0.124l0.995,0.746l1.118,0.373l1.367,0.124h1.615l0.87-0.124h0.373l-0.373,0.124l-1.119,0.248
	l-1.366,0.373l-1.243,0.249l-1.242,0.124l-0.995,0.124v0.621l0.87,0.746l0.87,0.994l0.746,0.745l0.124,0.125l-1.118-0.622
	l-1.119-0.372l-0.994-0.373l-1.988-0.373l-1.615-0.124h-1.988l-1.119-0.124l-1.366-0.497l-0.373-0.249l-0.249-0.497l0.746-1.367
	l0.248-0.497l0.125-0.621l-0.373-0.497L21.748,65.119z"/>
<path fill="#007F00" stroke="#000000" stroke-width="2" d="M62.51,84.754H41.632l31.441-20.878V77.05L62.51,84.754z"/>
<path fill="#004C00" stroke="#000000" stroke-width="2" d="M62.51,84.754l10.563-7.704v5.841l-7.332,5.841H62.51V84.754z"/>
<path fill="#999999" stroke="#000000" stroke-width="2" d="M69.718,49.336h3.355v21.997h-3.355V49.336z"/>
<path fill="#999999" stroke="#000000" stroke-width="2" d="M66.486,49.336h3.231v24.358h-3.231V49.336z"/>
<path fill="#999999" stroke="#000000" stroke-width="2" d="M63.132,49.336h3.354v26.719h-3.354V49.336z"/>
<path fill="#999999" stroke="#000000" stroke-width="2" d="M59.154,49.336h3.978v29.08h-3.978V49.336z"/>
<path fill="#999999" stroke="#000000" stroke-width="2" d="M55.427,49.336h3.728v31.69h-3.728V49.336z"/>
<path fill="#999999" stroke="#000000" stroke-width="2" d="M51.449,49.336h3.729v34.176h-3.729V49.336z"/>
<path fill="#E5E5E5" d="M70.712,49.336h1.118v21.997h-1.118V49.336z"/>
<path fill="#E5E5E5" d="M67.605,49.336h0.994v24.358h-0.994V49.336z"/>
<path fill="#E5E5E5" d="M64.374,49.336h0.87v26.719h-0.87V49.336z"/>
<path fill="#E5E5E5" d="M60.645,49.336h1.119v29.08h-1.119V49.336z"/>
<path fill="#E5E5E5" d="M56.669,49.336h1.367v31.69h-1.367V49.336z"/>
<path fill="#E5E5E5" d="M52.692,49.336h1.367v34.176h-1.367V49.336z"/>
<path fill="none" stroke="#000000" stroke-width="2" d="M12.801,49.336h60.272v39.396H12.801V49.336"/>
<path d="M12.801,88.732V49.336h60.023v0.994H13.795v38.401H12.801z"/>
<path fill="#CCCCCC" d="M72.824,49.336v39.396H12.801l0.994-0.746H71.83V50.33L72.824,49.336z"/>
<path fill="none" stroke="#000000" stroke-width="2" d="M84.01,76.18h15.782"/>
<path fill="none" stroke="#000000" stroke-width="2" d="M91.714,58.532v34.673"/>
<path fill="none" stroke="#000000" stroke-width="2" d="M99.668,24.358l0.497-1.367l0.87-0.745l1.118-0.622l1.367-0.621l1.615-0.373
	L107,20.256l1.988-0.124h0.994h1.74l1.739,0.124l1.491,0.373l1.491,0.373l1.243,0.497l0.994,0.497l1.118,0.87l0.249,0.248"/>
<path fill="none" stroke="#000000" stroke-width="2" d="M99.668,43.247l0.124-0.249l1.243-0.869l1.118-0.373l1.367-0.373
	l1.615-0.124L107,41.01l1.988-0.124h1.864l1.739,0.124l1.616,0.124l1.491,0.249l1.367,0.124l1.118,0.373l1.367,0.497l0.497,0.373"/>
<path fill="none" stroke="#000000" stroke-width="2" d="M120.546,64.125v0.124l-0.124,0.249l-1.119,0.372l-1.118,0.249l-1.491,0.248
	l-1.615,0.249l-1.864,0.124H111.1h-1.988h-1.615l-1.615-0.124l-1.491-0.124l-1.367-0.125l-1.119-0.248l-1.366-0.249l-0.622-0.248"/>
<path fill="none" stroke="#000000" stroke-width="2" d="M120.546,82.394l-0.497,1.118l-0.746,0.745l-1.118,0.622l-1.491,0.497
	l-1.615,0.497l-1.864,0.248L111.1,86.37h-1.118h-1.615l-1.74-0.249l-1.491-0.248l-1.491-0.373l-1.243-0.373l-0.994-0.497
	l-1.118-0.994l-0.373-0.248"/>
</svg>
