<?xml version="1.0" encoding="utf-8"?>
<!-- Generator: Adobe Illustrator 14.0.0, SVG Export Plug-In . SVG Version: 6.00 Build 43363)  -->
<!DOCTYPE svg PUBLIC "-//W3C//DTD SVG 1.1//EN" "http://www.w3.org/Graphics/SVG/1.1/DTD/svg11.dtd">
<svg version="1.1" id="图层_1" xmlns="http://www.w3.org/2000/svg" xmlns:xlink="http://www.w3.org/1999/xlink" x="0px" y="0px"
	 width="144.749px" height="105.336px" viewBox="0 0 144.749 105.336" enable-background="new 0 0 144.749 105.336"
	 xml:space="preserve">
<path fill="#324C7F" stroke="#000000" stroke-width="2" d="M9.709,78.531h39.99v19.994H9.709V78.531z"/>
<path fill="#00194C" d="M18.258,87.949H35.5v6.23H18.258V87.949z"/>
<path fill="#333333" stroke="#000000" stroke-width="2" d="M112.726,5.361h-4.057v4.926h4.057V5.361z"/>
<path fill="#333333" stroke="#000000" stroke-width="2" d="M119.247,5.361H114.9v4.926h4.347V5.361z"/>
<path fill="#333333" stroke="#000000" stroke-width="2" d="M125.622,5.361h-4.202v4.926h4.202V5.361z"/>
<path fill="#333333" stroke="#000000" stroke-width="2" d="M54.48,5.361h19.995v4.926H54.48V5.361z"/>
<path fill="#98B2E5" d="M40.86,21.734h8.839v34.194H40.86V21.734z"/>
<path fill="#98B2E5" d="M49.699,10.287h90.847v90.992H49.699V10.287z"/>
<path fill="#93ADE0" d="M49.699,75.633l90.847-36.947v62.593H49.699V75.633z"/>
<path fill="#93ADE0" d="M40.86,38.686l8.839-3.623v20.864H40.86V38.686z"/>
<path fill="#8EA8DB" d="M49.699,79.4l90.847-36.802v58.681H49.699V79.4z"/>
<path fill="#8EA8DB" d="M40.86,40.28l8.839-3.478v19.125H40.86V40.28z"/>
<path fill="#89A3D6" d="M49.699,84.906l90.847-36.947v53.32H49.699V84.906z"/>
<path fill="#89A3D6" d="M40.86,41.439l8.839-3.333v17.821H40.86V41.439z"/>
<path fill="#98B2E5" stroke="#000000" stroke-width="2" d="M4.058,101.279l2.753-16.953h11.446v16.953H4.058z"/>
<path fill="#8EA8DB" d="M49.699,10.287h90.847V26.37H49.699V10.287z"/>
<path fill="#849ED1" d="M49.699,10.287h90.847v12.316H49.699V10.287z"/>
<path fill="#7C96C9" d="M49.699,10.287h90.847v9.853H49.699V10.287z"/>
<path fill="#728CBF" d="M49.699,10.287h90.847v7.679H49.699V10.287z"/>
<path fill="#6882B5" d="M49.699,10.287h90.847v5.796H49.699V10.287z"/>
<path fill="#5E78AB" d="M49.699,10.287h90.847v3.768H49.699V10.287z"/>
<path fill="#5670A3" d="M49.699,10.287h90.847v2.463H49.699V10.287z"/>
<path fill="#4C6699" d="M49.699,10.287h90.847v1.159H49.699V10.287z"/>
<path fill="none" stroke="#000000" stroke-width="2" d="M49.699,10.287h90.847v90.992H49.699V10.287"/>
<path fill="#324C7F" d="M49.699,61.724h-3.043v2.608H40.86v2.752H12.462v14.2H40.86v3.042h5.796v2.754h3.043V61.724z"/>
<path fill="none" stroke="#4C6699" stroke-width="2" d="M49.699,50.132h90.847"/>
<path fill="none" stroke="#4C6699" stroke-width="2" d="M49.699,94.904h90.847"/>
<circle fill="none" stroke="#4C6699" stroke-width="2" cx="74.475" cy="55.928" r="2.173"/>
<circle fill="none" stroke="#4C6699" stroke-width="2" cx="134.895" cy="89.978" r="2.173"/>
<path fill="none" stroke="#000000" stroke-width="2" d="M40.86,21.734h8.839v34.194H40.86V21.734"/>
<path fill="#445E91" d="M49.699,63.317h-3.043v2.464H41.15v2.463H12.462V80.27H41.15v2.463h5.506v2.318h3.043V63.317z"/>
<path fill="#546EA1" d="M49.699,65.201h-3.043v1.883H41.15v2.174H12.462v9.854H41.15v2.173h5.506v2.028h3.043V65.201z"/>
<path fill="#657FB2" d="M49.699,67.084h-3.043v1.739H41.15v1.594H12.462v7.824H41.15v1.449h5.506v1.594h3.043V67.084z"/>
<path fill="#7791C4" d="M49.699,68.969h-3.043v1.158H41.15v1.305H12.462v5.795H41.15v1.015h5.506V79.4h3.043V68.969z"/>
<path fill="#87A1D4" d="M49.699,70.996h-3.043v0.725H41.15v0.58H12.462v3.768H41.15v0.869h5.506v0.58h3.043V70.996z"/>
<path fill="#98B2E5" d="M49.699,72.881h-3.043v0.289H40.86v0.29H12.462v1.594H40.86v0.29h5.796v0.289h3.043V72.881z"/>
<path fill="none" stroke="#000000" stroke-width="2" d="M49.699,61.724h-3.043v2.608H40.86v2.752H12.462v14.2H40.86v3.042h5.796
	v2.754h3.043V61.724"/>
<path fill="#324C7F" stroke="#000000" stroke-width="2" d="M44.483,83.457h2.173v1.449h-2.173V83.457z"/>
<path fill="#324C7F" stroke="#000000" stroke-width="2" d="M44.483,77.807h2.173v1.305h-2.173V77.807z"/>
<path fill="#324C7F" stroke="#000000" stroke-width="2" d="M44.483,63.607h2.173v1.304h-2.173V63.607z"/>
<path fill="#324C7F" stroke="#000000" stroke-width="2" d="M44.483,69.258h2.173v1.449h-2.173V69.258z"/>
<path fill="none" stroke="#98B2E5" stroke-width="2" d="M40.86,81.284v-14.2"/>
<path fill="none" stroke="#98B2E5" stroke-width="2" d="M46.656,84.326V64.332"/>
<path fill="#666666" stroke="#000000" stroke-width="2" d="M54.48,4.057H43.903v6.23H54.48V4.057z"/>
<path fill="#666666" stroke="#000000" stroke-width="2" d="M47.381,10.287h-1.304v4.926h1.304V10.287z"/>
<path d="M127.796,35.063h-6.665v6.665h6.665V35.063z"/>
<path d="M16.084,87.949H9.709v6.23h6.375V87.949z"/>
<path fill="#999999" d="M129.099,33.035h9.273v12.75h-9.273V33.035z"/>
<path fill="#B2B2B2" stroke="#666666" stroke-width="2" d="M125.043,41.729v4.926h-8.693V8.114h1.594v37.092h5.506v-3.478H125.043z"
	/>
<path fill="#B2B2B2" stroke="#666666" stroke-width="2" d="M15.505,84.326v-2.173h23.183l1.594,1.304h24.921V8.114h1.305v76.792
	h-26.95l-1.449-1.449H16.808v0.869H15.505z"/>
<path fill="#CCCCCC" d="M53.177,35.063h7.679v6.665h-7.679V35.063z"/>
<path fill="#E5E5E5" d="M53.177,25.791h2.753v5.216h-2.753V25.791z"/>
<path d="M54.046,51.292l-0.579-1.159l0.579-1.014h1.304l0.58,1.014l-0.58,1.159H54.046z"/>
<path fill="none" stroke="#7F7F7F" stroke-width="2" d="M127.796,35.063v6.665h-6.376"/>
<path fill="none" stroke="#7F7F7F" stroke-width="2" d="M16.084,87.949v6.23H9.709"/>
<path fill="none" stroke="#E5E5E5" stroke-width="2" d="M121.131,41.729v-6.665h6.665"/>
<path fill="none" stroke="#E5E5E5" stroke-width="2" d="M9.709,94.18v-6.23h6.375"/>
<path fill="none" stroke="#000000" stroke-width="2" d="M18.258,97.223h11.446l5.796-1.739"/>
<path fill="none" stroke="#000000" stroke-width="2" d="M46.656,91.426l-0.579-6.52"/>
<path fill="none" stroke="#000000" stroke-width="2" d="M8.405,84.326l-0.29-0.289l-0.145-0.29l-0.146-0.435v-0.725v-0.725v-0.725
	l0.29-0.869l0.145-1.014l0.29-1.015l0.435-1.159l0.435-1.014l0.436-1.16l0.579-1.158l0.579-1.305l0.725-1.158l0.725-1.16"/>
<path fill="none" stroke="#000000" stroke-width="2" d="M23.908,92.73l0.725-1.305l0.58-1.303l0.724-1.305l0.725-1.305l0.58-1.448
	l0.579-1.448l0.146-0.436l-0.146-0.58l-0.435-1.448l-1.014-1.448l-1.159-1.16l-1.305-1.014l-1.304-0.58l-1.304-0.289l-1.449-0.145
	h-1.449l-1.594,0.145H15.07l-1.884-0.145l-2.028-0.291l-0.725-0.145l-0.145-0.289l-0.146-0.146l0.146-0.29l1.159-0.869l1.014-0.435"
	/>
<path fill="none" stroke="#000000" stroke-width="2" d="M44.483,92.73l2.173-1.305"/>
<circle fill="#4C4C4C" stroke="#000000" stroke-width="2" cx="39.122" cy="91.716" r="5.361"/>
<path fill="#4C6699" stroke="#000000" stroke-width="2" d="M48.83,15.213h-4.347v1.594h4.347V15.213z"/>
</svg>
