<?xml version="1.0" encoding="utf-8"?>
<!-- Generator: Adobe Illustrator 14.0.0, SVG Export Plug-In . SVG Version: 6.00 Build 43363)  -->
<!DOCTYPE svg PUBLIC "-//W3C//DTD SVG 1.1//EN" "http://www.w3.org/Graphics/SVG/1.1/DTD/svg11.dtd">
<svg version="1.1" id="图层_1" xmlns="http://www.w3.org/2000/svg" xmlns:xlink="http://www.w3.org/1999/xlink" x="0px" y="0px"
	 width="144.749px" height="95.774px" viewBox="0 0 144.749 95.774" enable-background="new 0 0 144.749 95.774"
	 xml:space="preserve">
<path fill="#99CCCC" stroke="#000000" stroke-width="2" d="M62.449,73.17l78.098,7.101v7.1l-78.098-7.1V73.17z"/>
<path fill="#003333" stroke="#000000" stroke-width="2" d="M26.95,77.518l2.753-3.623l62.015,2.029l39.121,3.477l-40.715,3.479
	L26.95,77.518z"/>
<path fill="#336666" d="M89.255,77.518l-65.058-3.623l-5.94-2.173l-5.216-4.058L8.694,61.87l-3.043-7.39l-1.594-7.824v-8.259
	l1.594-8.114l3.043-7.1l4.347-5.796l5.216-4.057l5.94-2.173l65.058-1.159V77.518z"/>
<path fill="#3D7070" d="M89.255,74.185l-66.94-3.042l-5.506-2.174l-4.637-3.478l-3.768-5.506l-2.753-6.521l-1.594-7.1v-7.679
	l1.594-7.1l2.753-6.521l3.768-5.216l4.637-3.768l5.506-2.028l66.94-0.725V74.185z"/>
<path fill="#477A7A" d="M89.255,71.143L20.14,68.245l-4.637-1.738l-4.202-3.479l-3.477-4.636l-2.464-5.796l-1.304-6.52v-6.81
	l1.304-6.521l2.464-5.795l3.477-4.637l4.202-3.333l4.637-1.884l69.114-0.724V71.143z"/>
<path fill="#528585" d="M89.255,67.956l-70.998-2.464l-4.202-1.594l-3.767-3.043l-3.043-4.057l-1.884-5.216l-1.304-5.796v-5.94
	l1.304-5.796l1.884-5.216l3.043-4.057l3.767-3.043l4.202-1.304l70.998-0.87V67.956z"/>
<path fill="#5C8F8F" d="M89.255,64.623l-73.171-2.174l-3.333-1.304l-3.332-2.463l-2.464-3.623l-1.884-4.637l-1.014-4.926v-5.071
	l1.014-4.926l1.884-4.782l2.464-3.478l3.332-2.463l3.333-1.304l73.171-0.58V64.623z"/>
<path fill="#669999" d="M89.255,61.434l-75.2-1.738l-2.897-1.304l-2.463-1.884L6.52,53.176l-1.738-3.912l-0.725-4.058V40.86
	l0.725-4.347l1.738-3.623l2.174-3.188l2.463-2.173l2.897-1.159l75.2-0.29V61.434z"/>
<path fill="#70A3A3" d="M89.255,58.392l-77.083-1.594l-2.464-0.87l-1.883-1.883l-1.884-2.463L4.782,48.25l-0.725-3.333v-3.478
	l0.725-3.478l1.159-3.042l1.884-2.463l1.883-2.028l2.464-0.725l77.083-0.58V58.392z"/>
<path fill="#7AADAD" d="M89.255,55.059L9.998,54.045l-1.594-0.869L6.81,51.872l-1.449-2.028L4.636,47.38l-0.579-2.608v-2.753
	l0.579-2.753l1.015-2.463l1.159-1.883l1.594-1.449l1.594-0.725l79.257-0.29V55.059z"/>
<path fill="#85B8B8" d="M89.255,51.872L8.114,51.002l-1.159-0.58l-1.014-0.869l-0.87-1.594l-0.435-1.594l-0.579-1.883v-1.884
	l0.579-2.173l0.435-1.739l0.87-1.304l1.014-1.159l1.159-0.58l81.141-0.145V51.872z"/>
<path fill="#8FC2C2" d="M89.255,48.829L6.23,48.25l-0.579-0.29l-0.58-0.869l-0.435-0.725l-0.289-1.159l-0.29-1.014v-1.449
	l0.29-1.015l0.289-1.159l0.435-0.725l0.58-0.58l0.579-0.29l83.024-0.29V48.829z"/>
<path fill="#99CCCC" d="M89.255,45.497H4.057v-0.29v-0.29v-0.145v-0.29v-0.58v-0.29v-0.58v-0.29v-0.435v-0.29h85.197V45.497z"/>
<path fill="none" stroke="#000000" stroke-width="2" d="M89.255,77.518l-65.058-3.623l-5.94-2.173l-5.216-4.058L8.694,61.87
	l-3.043-7.39l-1.594-7.824v-8.259l1.594-8.114l3.043-7.1l4.347-5.796l5.216-4.057l5.94-2.173l65.058-1.159V77.518"/>
<ellipse fill="#669999" stroke="#000000" stroke-width="2" cx="90.993" cy="43.758" rx="26.66" ry="33.76"/>
<path fill="#669999" stroke="#000000" stroke-width="2" d="M90.848,90.124l39.99-3.912v-7.1l-39.99,3.768V90.124z"/>
<path fill="#99CCCC" stroke="#000000" stroke-width="2" d="M26.95,77.518l78.098,7.1v7.1l-78.098-7.1V77.518z"/>
<path fill="none" stroke="#99CCCC" stroke-width="2" d="M72.592,61.725l-3.043-6.666l-1.594-7.389v-7.535l1.594-7.39l3.043-6.955
	l4.347-5.071l5.217-3.912l5.65-2.173h6.375l5.651,1.884l5.216,4.202"/>
<ellipse fill="#336666" cx="91.862" cy="66.072" rx="6.955" ry="9.853"/>
<ellipse fill="#669999" cx="90.993" cy="66.072" rx="6.086" ry="9.853"/>
<ellipse fill="none" stroke="#336666" stroke-width="2" cx="91.862" cy="66.072" rx="6.955" ry="9.853"/>
<path fill="#669999" stroke="#336666" stroke-width="2" d="M46.656,39.556h8.693v13.041l-8.693-0.725V39.556z"/>
<path fill="#99CCCC" stroke="#336666" stroke-width="2" d="M58.102,39.556h-2.753v13.041l2.753-0.725V39.556z"/>
<path fill="#003333" d="M58.102,5.651h1.594v51.438h-1.594V5.651z"/>
<path fill="#003333" d="M84.908,4.057v1.594H57.233V4.057H84.908z"/>
<path fill="#003333" d="M82.155,5.651h1.594v4.347h-1.594V5.651z"/>
<path fill="#669999" d="M71.432,22.604h7.1v3.477h-7.1V22.604z"/>
<path fill="none" stroke="#CCFFFF" stroke-width="2" d="M104.178,25.356v-3.623h7.245"/>
<path fill="none" stroke="#CCFFFF" stroke-width="2" d="M71.432,26.081v-3.477h7.1"/>
<path fill="none" stroke="#003333" stroke-width="2" d="M104.178,25.356h7.245v-3.623"/>
<path fill="none" stroke="#003333" stroke-width="2" d="M71.432,26.081h7.1v-3.477"/>
<path fill="#7F7F7F" stroke="#000000" stroke-width="2" d="M36.803,69.549h3.622l2.608,6.375l-2.608,1.594l-4.492,0.869
	l-2.753-2.463V73.17L36.803,69.549z"/>
<path fill="#B2B2B2" stroke="#000000" stroke-width="2" d="M36.803,72.591l6.23,0.579v4.348l-6.23-0.58V72.591z"/>
<path fill="#7F7F7F" stroke="#000000" stroke-width="2" d="M43.903,70.418h3.478l2.753,6.23l-2.753,1.738l-4.347,0.725l-2.608-2.463
	v-2.754L43.903,70.418z"/>
<path fill="#B2B2B2" stroke="#000000" stroke-width="2" d="M43.903,73.461l6.23,0.434v4.492l-6.23-0.29V73.461z"/>
<path fill="#7F7F7F" stroke="#000000" stroke-width="2" d="M51.003,71.143h3.478l2.753,6.375l-2.753,1.594l-4.347,1.159
	l-2.753-2.753v-2.753L51.003,71.143z"/>
<path fill="#B2B2B2" stroke="#000000" stroke-width="2" d="M51.872,74.475l6.23,0.29v4.636l-6.23-0.579V74.475z"/>
<path fill="#7F7F7F" stroke="#000000" stroke-width="2" d="M58.971,72.301h3.478l2.753,6.086l-2.753,1.884l-4.347,0.724
	l-2.753-2.607v-2.463L58.971,72.301z"/>
<path fill="#B2B2B2" stroke="#000000" stroke-width="2" d="M104.178,72.301l-12.751-1.158l-0.869-0.146l-0.725-0.869l-0.579-0.87
	l-0.58-1.303l-0.289-1.449v-1.305l0.289-1.304l0.58-1.159l0.579-1.014l0.725-0.58l0.869-0.58l15.504,1.16L104.178,72.301z"/>
<path fill="#7F7F7F" stroke="#000000" stroke-width="2" d="M114.9,86.501l-8.693-1.304l-2.463-0.87l-2.174-1.448l-1.738-1.885
	l-1.304-2.463l-0.58-2.607V73.17l1.884-7.389l3.912-3.623l2.463-0.434h2.463l6.23,0.724V86.501z"/>
<path fill="#CCCCCC" stroke="#000000" stroke-width="2" d="M117.074,85.342l-2.174,0.58h-2.463l-2.463-0.58l-2.174-1.305
	l-1.594-2.173l-1.449-2.173l-0.579-2.754v-2.753l2.028-7.679l3.768-3.188l2.463-0.87h2.463l2.174,0.87l3.912,3.188l1.884,7.679
	v2.753l-0.58,2.754l-1.304,2.173l-1.738,2.173L117.074,85.342z"/>
<path fill="none" stroke="#336666" stroke-width="2" d="M90.848,53.755V16.373"/>
<path fill="none" stroke="#003333" stroke-width="2" d="M87.371,31.297l0.725-0.869V26.95l-0.725-0.87"/>
<path fill="none" stroke="#003333" stroke-width="2" d="M92.732,31.297l0.869-0.869V26.95l-0.869-0.87"/>
<path fill="#333333" d="M70.708,39.556h3.188v5.216h-3.188V39.556z"/>
<path fill="none" stroke="#000000" stroke-width="2" d="M114.177,67.956l7.824-1.885l0.869-2.027l-2.753-1.595H114.9"/>
<path fill="none" stroke="#000000" stroke-width="2" d="M61.724,77.518l6.23-1.594l1.594-3.623l-0.869-6.23l-6.955-6.375
	l-4.491-7.824"/>
<path fill="none" stroke="#000000" stroke-width="2" d="M58.971,72.301l0.725-2.752v-4.348l-2.463-6.23l-6.23-6.375"/>
<path fill="#669999" stroke="#000000" stroke-width="2" d="M57.233,12.75h3.622v11.447h-3.622V12.75z"/>
<path fill="#CCCCCC" d="M86.502,12.75h8.838v4.347h-8.838V12.75z"/>
<path fill="#CCCCCC" d="M110.553,39.556h3.623v5.216h-3.623V39.556z"/>
<path fill="#E5E5E5" stroke="#000000" stroke-width="2" d="M112.147,70.418h7.101v9.853l-7.101,0.724V70.418z"/>
<path fill="#B2B2B2" stroke="#000000" stroke-width="2" d="M112.147,70.418h-2.753v9.853l2.753,0.724V70.418z"/>
</svg>
