<?xml version="1.0" encoding="utf-8"?>
<!-- Generator: Adobe Illustrator 14.0.0, SVG Export Plug-In . SVG Version: 6.00 Build 43363)  -->
<!DOCTYPE svg PUBLIC "-//W3C//DTD SVG 1.1//EN" "http://www.w3.org/Graphics/SVG/1.1/DTD/svg11.dtd">
<svg version="1.1" id="图层_1" xmlns="http://www.w3.org/2000/svg" xmlns:xlink="http://www.w3.org/1999/xlink" x="0px" y="0px"
	 width="60.444px" height="106.502px" viewBox="0 0 60.444 106.502" enable-background="new 0 0 60.444 106.502"
	 xml:space="preserve">
<path fill="#E5E5E5" d="M2.985,44.777h54.474v58.632H2.985V44.777z"/>
<path fill="#B2B2B2" stroke="#000000" stroke-width="2" d="M21.854,19.617l-8.421,5.224v7.463h8.421v12.473h16.63V32.304h8.528
	v-6.396l-8.528-6.29V7.146l-8.422-0.747l-0.426-1.279L28.89,4.16l-1.066-0.853l-1.172-0.32h-1.386l-1.173,0.32L23.026,4.16
	L22.28,5.119l-0.427,1.279V19.617z"/>
<circle fill="#666666" stroke="#000000" stroke-width="2" cx="34.22" cy="7.145" r="4.158"/>
<path fill="none" stroke="#000000" stroke-width="2" d="M2.985,44.777h54.474v58.632H2.985V44.777"/>
<path fill="none" stroke="#000000" stroke-width="2" d="M21.854,32.304h16.63"/>
<path fill="none" stroke="#000000" stroke-width="2" d="M38.484,19.617h-16.63"/>
<path fill="none" stroke="#000000" stroke-width="2" d="M13.432,25.907h33.58"/>
<path fill="#FFFFFF" stroke="#000000" stroke-width="2" d="M29.529,61.619l-0.853-0.959v-1.279l0.853-0.96h1.386l0.746,0.96v1.279
	l-0.746,0.959H29.529z"/>
<path fill="#FFFFFF" stroke="#000000" stroke-width="2" d="M13.752,61.406l-0.747-0.746v-1.493l0.747-0.746h1.492l0.746,0.746v1.493
	l-0.746,0.746H13.752z"/>
<path fill="#FFFFFF" stroke="#000000" stroke-width="2" d="M21.641,61.619l-0.747-0.959v-1.279l0.747-0.96h1.386l0.853,0.96v1.279
	l-0.853,0.959H21.641z"/>
<path fill="#FFFFFF" stroke="#000000" stroke-width="2" d="M6.183,61.406L5.117,60.66v-1.493l1.066-0.746h1.172l1.066,0.746v1.493
	l-1.066,0.746H6.183z"/>
<path fill="#FFFFFF" stroke="#000000" stroke-width="2" d="M45.414,61.406l-1.066-0.746v-1.493l1.066-0.746h1.172l0.959,0.746v1.493
	l-0.959,0.746H45.414z"/>
<path fill="#FFFFFF" stroke="#000000" stroke-width="2" d="M52.982,61.619l-0.746-0.959v-1.279l0.746-0.96h1.386l0.853,0.96v1.279
	l-0.853,0.959H52.982z"/>
<path fill="#FFFFFF" stroke="#000000" stroke-width="2" d="M37.525,61.406l-1.066-0.746v-1.493l1.066-0.746h1.172l1.066,0.746v1.493
	l-1.066,0.746H37.525z"/>
<path fill="#FFFF00" stroke="#000000" stroke-width="2" d="M2.985,97.652h54.474v2.559H2.985V97.652z"/>
<path fill="#CC1900" d="M4.584,67.909l2.559,20.894h46.052l2.559-20.894H4.584z"/>
<path fill="#CC1900" stroke="#000000" stroke-width="2" d="M7.143,88.803l0.746,3.092l0.64,2.771l0.533,2.025l0.107,0.533
	l0.64-0.106l2.345-1.706l1.812-1.386l2.239,1.6l2.452,1.599l2.665-1.386l2.345-1.492l0.746-0.32l2.452,1.6l3.198,1.599l2.452-1.492
	l2.771-1.813l2.665,1.492l2.665,1.493l1.173,0.319l0.533-0.106l2.345-2.132l1.066-0.854l0.64-0.106l2.559,2.239l2.238,0.959
	l0.854-2.878l0.639-2.771l0.533-2.559v-0.214l0,0H7.143z"/>
<path fill="#004CCC" stroke="#000000" stroke-width="2" d="M4.584,65.67v0.32v0.319v0.427v1.066v0.106h51.169v-0.106v-0.107v-0.319
	V65.67l-2.771,0.533l-1.813,0.106l-3.092-0.533l-1.065-0.106l-3.092,0.533l-1.173,0.106l-3.092-0.533l-1.172-0.106l-3.092,0.533
	l-1.066,0.106l-3.197-0.533l-1.066-0.106l-2.878,0.214l-2.771,0.532l-2.559-0.746l-0.64-0.106h-0.533l-3.092,0.746l-3.091-0.426
	l-3.305-0.214l-2.665,0.746l-2.772-0.532L4.584,65.67z"/>
<path fill="#BD1C00" d="M4.584,67.909l2.345,19.614h46.479l2.346-19.614H4.584z"/>
<path fill="#AB1F00" d="M4.584,67.909l2.132,18.442h46.906l2.132-18.442H4.584z"/>
<path fill="#9C2400" d="M4.584,67.909l2.132,17.27h47.119l1.919-17.27H4.584z"/>
<path fill="#8C260D" d="M4.584,67.909l2.025,15.777h47.225l1.919-15.777H4.584z"/>
<path fill="#7D291C" d="M4.584,67.909l1.812,14.604h47.652l1.705-14.604H4.584z"/>
<path fill="#6B2B2B" d="M4.584,67.909l1.599,13.432h47.971l1.6-13.432H4.584z"/>
<path fill="#5C303D" d="M4.584,67.909L5.97,80.168h48.398l1.386-12.259H4.584z"/>
<path fill="#4C334C" d="M4.584,67.909l1.172,10.979h48.825l1.172-10.979H4.584z"/>
<path fill="#3D365C" d="M4.584,67.909l1.172,9.808h48.825l1.172-9.808H4.584z"/>
<path fill="#2B386B" d="M4.584,67.909l0.959,8.635h49.251l0.959-8.635H4.584z"/>
<path fill="#1C3D7D" d="M4.584,67.909l0.746,7.355h49.677l0.746-7.355H4.584z"/>
<path fill="#0D408C" d="M4.584,67.909l0.533,6.183H55.22l0.533-6.183H4.584z"/>
<path fill="#00429C" d="M4.584,67.909l0.426,5.01h50.423l0.32-5.01H4.584z"/>
<path fill="#0045AB" d="M4.584,67.909l0.426,3.838h50.423l0.32-3.838H4.584z"/>
<path fill="#004ABD" d="M4.584,67.909l0.213,2.559h50.85l0.106-2.559H4.584z"/>
<path fill="#004CCC" d="M4.584,67.909v1.386h51.169v-1.386H4.584z"/>
<path fill="none" stroke="#000000" stroke-width="2" d="M4.584,67.909l2.559,20.894h46.052l2.559-20.894"/>
<path fill="none" stroke="#000000" stroke-width="2" d="M48.931,88.803l5.863-13.645"/>
<path fill="none" stroke="#000000" stroke-width="2" d="M49.998,66.31l-9.275,22.493h4.051l9.381-22.493"/>
<path fill="none" stroke="#000000" stroke-width="2" d="M41.789,66.31L32.3,88.803h4.158l9.487-22.493"/>
<path fill="none" stroke="#000000" stroke-width="2" d="M33.26,66.31l-9.381,22.493h4.158l9.488-22.493"/>
<path fill="none" stroke="#000000" stroke-width="2" d="M24.838,66.31l-9.167,22.493h3.944l9.488-22.493"/>
<path fill="none" stroke="#000000" stroke-width="2" d="M16.63,66.31L7.143,88.803h4.264l9.487-22.493"/>
<path fill="none" stroke="#000000" stroke-width="2" d="M6.183,80.914l6.183-14.604"/>
<path fill="none" stroke="#000000" stroke-width="2" d="M5.117,73.452l3.091-7.143"/>
</svg>
