<?xml version="1.0" encoding="utf-8"?>
<!-- Generator: Adobe Illustrator 14.0.0, SVG Export Plug-In . SVG Version: 6.00 Build 43363)  -->
<!DOCTYPE svg PUBLIC "-//W3C//DTD SVG 1.1//EN" "http://www.w3.org/Graphics/SVG/1.1/DTD/svg11.dtd">
<svg version="1.1" id="图层_1" xmlns="http://www.w3.org/2000/svg" xmlns:xlink="http://www.w3.org/1999/xlink" x="0px" y="0px"
	 width="144.749px" height="66.795px" viewBox="0 0 144.749 66.795" enable-background="new 0 0 144.749 66.795"
	 xml:space="preserve">
<path fill="#999999" d="M4.058,20.719h26.805v4.057H4.058V20.719z"/>
<path fill="#CC9933" stroke="#000000" stroke-width="2" d="M52.886,11.881h14.489V26.08H52.886V11.881z"/>
<path fill="#333333" d="M67.376,4.057h73.17v58.68h-73.17V4.057z"/>
<path fill="#4C4C4C" d="M67.376,4.781h73.17v18.401h-73.17V4.781z"/>
<path fill="#595959" d="M67.376,4.492h73.17V19.27h-73.17V4.492z"/>
<path fill="#666666" d="M67.376,4.492h73.17v11.301h-73.17V4.492z"/>
<path fill="#737373" d="M67.376,4.346h73.17v8.404h-73.17V4.346z"/>
<path fill="#7F7F7F" d="M67.376,4.346h73.17v5.361h-73.17V4.346z"/>
<path fill="#8C8C8C" d="M67.376,4.346h73.17v3.188h-73.17V4.346z"/>
<path fill="#999999" d="M67.376,4.057h73.17v1.304h-73.17V4.057z"/>
<path fill="none" stroke="#000000" stroke-width="2" d="M67.376,4.057h73.17v58.68h-73.17V4.057"/>
<path fill="#191919" d="M104.033,62.737v-7.389l1.015-1.305h6.375l1.014,1.305v7.389H104.033z"/>
<circle fill="#CCCCCC" stroke="#000000" stroke-width="2" cx="108.09" cy="58.391" r="3.623"/>
<path fill="#7F7F7F" d="M105.627,60.564l4.927-4.927l0.579,0.58l-4.927,4.926L105.627,60.564z"/>
<path fill="#FFCC66" stroke="#000000" stroke-width="2" d="M52.886,8.983h14.489v2.897H52.886V8.983z"/>
<path fill="#996600" stroke="#000000" stroke-width="2" d="M52.886,26.08h14.489v9.563H52.886V26.08z"/>
<path fill="#CC9933" d="M30.863,13.764H49.12l3.767-4.781v26.66l-3.767-4.637H30.863V13.764z"/>
<path fill="#D4A64D" d="M30.863,15.214H49.12l3.767-4.057V33.76l-3.767-4.057H30.863V15.214z"/>
<path fill="#DEB86B" d="M30.863,16.373H49.12l3.767-3.333v18.546l-3.767-3.332H30.863V16.373z"/>
<path fill="#E5C484" d="M30.863,17.677H49.12l3.767-2.753v14.779L49.12,26.95H30.863V17.677z"/>
<path fill="#EDD3A0" d="M30.863,18.98H49.12l3.767-1.883v10.722l-3.767-2.174H30.863V18.98z"/>
<path fill="#F7E3BC" d="M30.863,20.429H49.12l3.767-1.449v6.665l-3.767-1.159H30.863V20.429z"/>
<path fill="#FFF2D9" d="M30.863,21.444H49.12l3.767-0.29v2.463l-3.767-0.435H30.863V21.444z"/>
<path fill="none" stroke="#000000" stroke-width="2" d="M30.863,13.764H49.12l3.767-4.781v26.66l-3.767-4.637H30.863V13.764"/>
<path fill="none" stroke="#CC9933" stroke-width="2" d="M49.12,30.282V14.344"/>
<path fill="none" stroke="#000000" stroke-width="2" d="M45.497,30.862V13.764h-1.883v17.098H41.73V13.764h-1.594v17.098h-2.028
	V13.764h-1.884v17.098h-1.884V13.764h-1.594v17.098"/>
<path fill="#CCCCCC" d="M4.058,21.444h26.805v2.753H4.058V21.444z"/>
<path fill="#E5E5E5" d="M4.058,22.313h26.805v1.159H4.058V22.313z"/>
<path fill="none" stroke="#000000" stroke-width="2" d="M4.058,20.719h26.805v4.057H4.058V20.719"/>
</svg>
