<?xml version="1.0" encoding="utf-8"?>
<!-- Generator: Adobe Illustrator 14.0.0, SVG Export Plug-In . SVG Version: 6.00 Build 43363)  -->
<!DOCTYPE svg PUBLIC "-//W3C//DTD SVG 1.1//EN" "http://www.w3.org/Graphics/SVG/1.1/DTD/svg11.dtd">
<svg version="1.1" id="图层_1" xmlns="http://www.w3.org/2000/svg" xmlns:xlink="http://www.w3.org/1999/xlink" x="0px" y="0px"
	 width="106.502px" height="106.502px" viewBox="0 0 106.502 106.502" enable-background="new 0 0 106.502 106.502"
	 xml:space="preserve">
<path fill="#333333" d="M3.092,103.41V9.168h58.315v94.242H3.092z"/>
<path fill="#4C4C4C" d="M3.731,103.41V9.168h18.124v94.242H3.731z"/>
<path fill="#595959" d="M3.518,103.41V9.168H18.23v94.242H3.518z"/>
<path fill="#666666" d="M3.518,103.41V9.168h11.087v94.242H3.518z"/>
<path fill="#737373" d="M3.412,103.41V9.168h8.209v94.242H3.412z"/>
<path fill="#7F7F7F" d="M3.412,103.41V9.168h5.33v94.242H3.412z"/>
<path fill="#8C8C8C" d="M3.092,103.41V9.168h3.411v94.242H3.092z"/>
<path fill="#999999" d="M3.092,103.41V9.168h1.279v94.242H3.092z"/>
<path fill="none" stroke="#000000" stroke-width="2" d="M3.092,103.41V9.168h58.315v94.242H3.092"/>
<path fill="#191919" d="M61.407,62.046H55.65l-1.066-0.959v-5.224l1.066-1.066h5.757V62.046z"/>
<path fill="#999999" d="M103.411,22.494H85.714v2.559h17.696V22.494z"/>
<path fill="#CC9933" stroke="#000000" stroke-width="2" d="M71.322,16.631h-9.701v9.382h9.701V16.631z"/>
<path fill="#FFCC66" stroke="#000000" stroke-width="2" d="M71.322,14.606h-9.701v2.025h9.701V14.606z"/>
<path fill="#996600" stroke="#000000" stroke-width="2" d="M71.322,26.013h-9.701v6.503h9.701V26.013z"/>
<path fill="#CC9933" d="M85.714,17.804H73.667l-2.346-3.198v17.91l2.346-3.198h12.047V17.804z"/>
<path fill="#D4A64D" d="M85.714,18.656H73.667l-2.346-2.771V31.13l2.346-2.879h12.047V18.656z"/>
<path fill="#DEB86B" d="M85.714,19.403H73.667l-2.346-2.132v12.366l2.346-2.132h12.047V19.403z"/>
<path fill="#E5C484" d="M85.714,20.469H73.667l-2.346-1.813v9.808l2.346-1.812h12.047V20.469z"/>
<path fill="#EDD3A0" d="M85.714,21.215H73.667l-2.346-1.173v7.036l2.346-1.386h12.047V21.215z"/>
<path fill="#F7E3BC" d="M85.714,22.068H73.667l-2.346-0.853v4.478l2.346-0.853h12.047V22.068z"/>
<path fill="#FFF2D9" d="M85.714,23.028H73.667l-2.346-0.427v1.6l2.346-0.106h12.047V23.028z"/>
<path fill="none" stroke="#000000" stroke-width="2" d="M85.714,17.804H73.667l-2.346-3.198v17.91l2.346-3.198h12.047V17.804"/>
<path fill="none" stroke="#CC9933" stroke-width="2" d="M73.667,28.891V18.23"/>
<path fill="none" stroke="#000000" stroke-width="2" d="M76.119,29.318V17.804h1.173v11.514h1.173V17.804h1.279v11.514h1.172V17.804
	h1.279v11.514h1.174V17.804h1.172v11.514"/>
<path fill="#CCCCCC" d="M103.411,22.815H85.714v1.812h17.696V22.815z"/>
<path fill="#E5E5E5" d="M103.411,23.454H85.714v0.64h17.696V23.454z"/>
<path fill="none" stroke="#000000" stroke-width="2" d="M103.411,22.494H85.714v2.559h17.696V22.494"/>
<circle fill="#CCCCCC" stroke="#000000" stroke-width="2" cx="58.421" cy="58.422" r="3.198"/>
<path fill="#7F7F7F" d="M60.021,60.66L55.97,56.61l0.639-0.427l3.838,4.051L60.021,60.66z"/>
<path fill="#7F7F7F" stroke="#000000" stroke-width="2" d="M43.177,8.209h8.422v0.959h-8.422V8.209z"/>
<path fill="#7F7F7F" stroke="#000000" stroke-width="2" d="M44.349,7.143h6.184v1.066h-6.184V7.143z"/>
<path fill="#7F7F7F" stroke="#000000" stroke-width="2" d="M45.735,6.183h3.305v0.96h-3.305V6.183z"/>
<path fill="#7F0000" d="M46.375,2.985H48.4V5.97h-2.025V2.985z"/>
<path fill="#FF0000" d="M47.015,2.985h0.959V5.97h-0.959V2.985z"/>
<path fill="none" stroke="#000000" stroke-width="2" d="M46.375,2.985H48.4V5.97h-2.025V2.985"/>
<path fill="#E5E5E5" stroke="#000000" stroke-width="2" d="M2.985,42.75h2.559v27.079H2.985V42.75z"/>
</svg>
