<?xml version="1.0" encoding="utf-8"?>
<!-- Generator: Adobe Illustrator 14.0.0, SVG Export Plug-In . SVG Version: 6.00 Build 43363)  -->
<!DOCTYPE svg PUBLIC "-//W3C//DTD SVG 1.1//EN" "http://www.w3.org/Graphics/SVG/1.1/DTD/svg11.dtd">
<svg version="1.1" id="图层_1" xmlns="http://www.w3.org/2000/svg" xmlns:xlink="http://www.w3.org/1999/xlink" x="0px" y="0px"
	 width="72.922px" height="106.502px" viewBox="0 0 72.922 106.502" enable-background="new 0 0 72.922 106.502"
	 xml:space="preserve">
<path fill="#FFCC00" d="M2.985,2.985h16.631h16.737h16.844H69.83v12.474v12.58v12.473v12.687v12.474v12.687v12.474v12.579H53.198
	H36.354H19.617H2.985V90.831V78.358V65.671V53.198V40.511V28.038v-12.58V2.985z"/>
<path fill="#FFCC00" d="M47.549,99.999l-7.25,3.411h-7.783l-7.462-3.411l-6.61-6.609l-5.437-9.488L8.956,72.494L7.144,59.808v-13.22
	l1.812-12.899l4.051-11.301l5.437-9.382l6.61-6.609l7.462-3.412h7.783l7.463,3.412l6.609,6.609l5.438,9.382l3.838,11.514
	l2.025,12.687v13.22l-2.025,12.687l-3.838,11.407l-5.438,9.488L47.549,99.999z"/>
<path fill="#FFC400" d="M47.121,98.187l-7.035,3.411h-7.356l-7.25-3.411l-6.183-6.396l-5.437-8.849l-3.625-11.087L8.209,59.594
	V46.801l2.025-12.26l3.625-11.087l5.437-9.063l6.183-6.183l7.25-3.412h7.356l7.035,3.198l6.504,6.396l5.224,9.063l3.838,11.087
	l1.706,12.26v12.58l-1.706,12.474l-3.838,11.087l-5.224,8.849L47.121,98.187z"/>
<path fill="#FFBF00" d="M46.802,96.374l-6.823,3.412h-7.036l-6.823-3.412l-6.29-5.97l-5.01-8.636l-3.412-10.66L9.382,59.275v-12.26
	l2.025-11.94l3.412-10.448l5.01-8.741l6.29-6.077l6.823-3.198h7.036l6.823,3.198l6.184,6.077l5.011,8.741l3.411,10.448l2.026,11.94
	v12.26l-2.026,11.834l-3.411,10.66l-5.011,8.636L46.802,96.374z"/>
<path fill="#FFB800" d="M46.375,94.776l-6.609,2.984h-6.61l-6.716-2.984l-5.757-5.863l-4.797-8.423l-3.518-10.021l-1.813-11.407
	v-11.94l1.813-11.194l3.518-10.234l4.797-8.315l5.757-5.757l6.716-3.198h6.61l6.609,2.985l5.863,5.97l4.798,8.315l3.411,10.234
	l1.813,11.194v11.94l-1.813,11.407L57.036,80.49l-4.798,8.423L46.375,94.776z"/>
<path fill="#FFB200" d="M45.736,93.176l-6.184,2.772h-6.397l-6.29-2.772l-5.65-5.65l-4.584-7.995l-2.985-9.809l-1.813-10.874V47.547
	l1.813-10.98l2.985-9.701l4.584-7.996l5.65-5.649l6.29-2.985h6.397l6.396,2.985l5.438,5.649l4.584,7.996l3.305,9.701l1.705,10.98
	v11.301l-1.705,10.874l-3.305,9.809l-4.584,7.995L45.736,93.176z"/>
<path fill="#FFAB00" d="M45.416,91.364l-5.863,2.879h-6.29l-5.97-2.879l-5.224-5.437l-4.478-7.569l-2.985-9.275l-1.599-10.447
	V47.761l1.599-10.448l2.985-9.488l4.478-7.568l5.224-5.438l5.97-2.878h6.29l5.863,2.878l5.33,5.438l4.479,7.568l2.984,9.488
	l1.6,10.448v10.661l-1.6,10.66l-2.984,9.275l-4.479,7.569L45.416,91.364z"/>
<path fill="#FFA600" d="M44.99,89.765l-5.65,2.559h-5.864l-5.65-2.559l-5.011-5.224l-4.158-7.25l-3.092-9.062l-1.386-9.808V47.974
	l1.386-10.021l3.092-8.849l4.158-7.249l5.011-5.224l5.65-2.771h5.864l5.65,2.771L50,21.855l4.158,7.249l2.878,8.849l1.599,10.021
	v10.234L57.036,68.23l-2.878,9.062L50,84.541L44.99,89.765z"/>
<path fill="#FF9E00" d="M44.563,87.952l-5.437,2.559h-5.437l-5.437-2.559l-4.797-4.798l-3.838-7.036l-2.772-8.422l-1.386-9.701
	v-9.808l1.386-9.488l2.772-8.423l3.838-7.036l4.797-5.011l5.437-2.345h5.437l5.437,2.345l4.798,5.011l3.838,7.036l2.772,8.423
	l1.385,9.488v9.808l-1.385,9.701l-2.772,8.422l-3.838,7.036L44.563,87.952z"/>
<path fill="#FF9900" d="M43.924,86.354l-5.012,2.451h-5.223l-5.011-2.451l-4.371-4.798l-3.838-6.609l-2.665-8.103l-1.386-9.062
	v-9.382l1.386-9.062l2.665-8.103l3.838-6.61l4.371-4.584l5.011-2.452h5.223l5.225,2.452l4.371,4.584l3.838,6.61l2.451,8.315
	l1.387,8.849v9.382l-1.387,9.062l-2.451,8.103l-3.838,6.609L43.924,86.354z"/>
<path fill="#FF9100" d="M43.497,84.541l-4.585,2.452h-5.01l-4.797-2.452l-4.265-4.478l-3.412-6.184l-2.452-7.676l-1.386-8.636
	v-8.741l1.386-8.742l2.452-7.569l3.412-6.396l4.265-4.478l4.797-2.239h5.01l4.585,2.239l4.265,4.478l3.625,6.396l2.451,7.569
	l1.173,8.742v8.741l-1.173,8.636l-2.451,7.676l-3.625,6.184L43.497,84.541z"/>
<ellipse fill="#FF8C00" cx="36.354" cy="53.198" rx="17.484" ry="31.983"/>
<ellipse fill="#FF8500" cx="36.354" cy="53.198" rx="16.312" ry="30.17"/>
<ellipse fill="#FF7F00" cx="36.354" cy="53.092" rx="15.138" ry="28.251"/>
<ellipse fill="#FF7800" cx="36.354" cy="53.092" rx="13.966" ry="26.439"/>
<ellipse fill="#FF7300" cx="36.354" cy="53.091" rx="12.687" ry="24.627"/>
<ellipse fill="#FF6B00" cx="36.354" cy="53.091" rx="11.514" ry="22.814"/>
<ellipse fill="#FF6600" cx="36.248" cy="53.198" rx="10.448" ry="20.895"/>
<path fill="none" stroke="#000000" stroke-width="2" d="M2.985,2.985h16.631h16.737h16.844H69.83v12.474v12.58v12.473v12.687v12.474
	v12.687v12.474v12.579H53.198H36.354H19.617H2.985V90.831V78.358V65.671V53.198V40.511V28.038v-12.58V2.985"/>
</svg>
