<?xml version="1.0" encoding="utf-8"?>
<!-- Generator: Adobe Illustrator 14.0.0, SVG Export Plug-In . SVG Version: 6.00 Build 43363)  -->
<!DOCTYPE svg PUBLIC "-//W3C//DTD SVG 1.1//EN" "http://www.w3.org/Graphics/SVG/1.1/DTD/svg11.dtd">
<svg version="1.1" id="图层_1" xmlns="http://www.w3.org/2000/svg" xmlns:xlink="http://www.w3.org/1999/xlink" x="0px" y="0px"
	 width="102.233px" height="106.502px" viewBox="0 0 102.233 106.502" enable-background="new 0 0 102.233 106.502"
	 xml:space="preserve">
<path fill="#99997A" stroke="#000000" stroke-width="2" d="M92.958,89.869h6.289v7.249h-6.289V89.869z"/>
<path fill="#99997A" stroke="#000000" stroke-width="2" d="M9.274,89.869h-6.29v7.249h6.29V89.869z"/>
<path fill="#CCCCBD" stroke="#000000" stroke-width="2" d="M99.248,87.738h-6.289v2.132h6.289V87.738z"/>
<path fill="#CCCCBD" stroke="#000000" stroke-width="2" d="M2.985,87.738h6.29v2.132h-6.29V87.738z"/>
<circle stroke="#000000" stroke-width="2" cx="96.05" cy="93.92" r="2.025"/>
<circle stroke="#000000" stroke-width="2" cx="6.076" cy="93.92" r="2.025"/>
<path fill="#333300" d="M9.168,101.276h83.791v2.133H9.168V101.276z"/>
<path fill="#B2B29B" stroke="#000000" stroke-width="2" d="M9.168,2.988h83.791v98.288H9.168V2.988z"/>
<path fill="#E5E5DD" d="M11.3,40.618h79.526V99.25H11.3V40.618z"/>
<path fill="#E5E5DD" d="M11.3,5.013h79.526v33.474H11.3V5.013z"/>
<path fill="none" stroke="#000000" stroke-width="2" d="M90.826,40.618V99.25H11.3"/>
<path fill="none" stroke="#000000" stroke-width="2" d="M11.3,38.487h79.526V5.013"/>
<path fill="none" stroke="#FFFFFF" stroke-width="2" d="M90.826,5.013H11.3v33.474"/>
<path fill="none" stroke="#FFFFFF" stroke-width="2" d="M11.3,99.25V40.618h79.526"/>
<path fill="#333300" d="M11.3,41.685h1.066v1.066H11.3V41.685z"/>
<path fill="#333300" d="M11.3,67.909h1.066v0.959H11.3V67.909z"/>
<path fill="#333300" d="M89.76,41.685h1.065v1.066H89.76V41.685z"/>
<path fill="#333300" d="M89.76,67.909h1.065v0.959H89.76V67.909z"/>
<path fill="#333300" d="M11.3,6.079h1.066v1.065H11.3V6.079z"/>
<path fill="#333300" d="M11.3,36.461h1.066v1.066H11.3V36.461z"/>
<path fill="#333300" d="M11.3,20.79h1.066v0.96H11.3V20.79z"/>
<path fill="#333300" d="M89.76,6.079h1.065v1.065H89.76V6.079z"/>
<path fill="#333300" d="M89.76,36.461h1.065v1.066H89.76V36.461z"/>
<path fill="#333300" d="M89.76,20.79h1.065v0.96H89.76V20.79z"/>
<path fill="#666666" stroke="#000000" stroke-width="2" d="M97.116,92.961h-5.224v2.132h5.224V92.961z"/>
<path fill="#666666" stroke="#000000" stroke-width="2" d="M5.01,92.961h5.224v2.132H5.01V92.961z"/>
<path fill="#DEDED4" d="M12.366,99.25H89.76V58.421L12.366,73.027V99.25z"/>
<path fill="#DEDED4" d="M12.366,37.528H89.76V9.278L12.366,23.882V37.528z"/>
<path fill="#D4D4C7" d="M12.366,37.528H89.76V17.592L12.366,32.304V37.528z"/>
<path fill="#D4D4C7" d="M12.366,99.25H89.76V66.843L12.366,81.448V99.25z"/>
<path fill="#CCCCBD" d="M12.366,37.528H89.76V20.79L12.366,35.395V37.528z"/>
<path fill="#CCCCBD" d="M12.366,99.25H89.76V69.935L12.366,84.539V99.25z"/>
<path fill="#DEDED4" d="M10.234,86.671h81.658v15.671H10.234V86.671z"/>
<path fill="#333300" d="M14.392,89.869h4.157v0.96h-4.157V89.869z"/>
<path fill="#333300" d="M20.681,89.869h4.264v0.96h-4.264V89.869z"/>
<path fill="#333300" d="M26.971,89.869h4.158v0.96h-4.158V89.869z"/>
<path fill="#333300" d="M33.26,89.869h4.158v0.96H33.26V89.869z"/>
<path fill="#333300" d="M39.55,89.869h4.158v0.96H39.55V89.869z"/>
<path fill="#333300" d="M45.839,89.869h4.158v0.96h-4.158V89.869z"/>
<path fill="#333300" d="M52.128,89.869h4.158v0.96h-4.158V89.869z"/>
<path fill="#333300" d="M58.419,89.869h4.156v0.96h-4.156V89.869z"/>
<path fill="#333300" d="M64.601,89.869h4.265v0.96h-4.265V89.869z"/>
<path fill="#333300" d="M70.998,89.869h4.158v0.96h-4.158V89.869z"/>
<path fill="#333300" d="M77.288,89.869h4.157v0.96h-4.157V89.869z"/>
<path fill="#333300" d="M83.47,89.869h4.265v0.96H83.47V89.869z"/>
<path fill="#333300" d="M14.392,91.895h4.157v1.066h-4.157V91.895z"/>
<path fill="#333300" d="M20.681,91.895h4.264v1.066h-4.264V91.895z"/>
<path fill="#333300" d="M26.971,91.895h4.158v1.066h-4.158V91.895z"/>
<path fill="#333300" d="M33.26,91.895h4.158v1.066H33.26V91.895z"/>
<path fill="#333300" d="M39.55,91.895h4.158v1.066H39.55V91.895z"/>
<path fill="#333300" d="M45.839,91.895h4.158v1.066h-4.158V91.895z"/>
<path fill="#333300" d="M52.128,91.895h4.158v1.066h-4.158V91.895z"/>
<path fill="#333300" d="M58.419,91.895h4.156v1.066h-4.156V91.895z"/>
<path fill="#333300" d="M64.601,91.895h4.265v1.066h-4.265V91.895z"/>
<path fill="#333300" d="M70.998,91.895h4.158v1.066h-4.158V91.895z"/>
<path fill="#333300" d="M77.288,91.895h4.157v1.066h-4.157V91.895z"/>
<path fill="#333300" d="M83.47,91.895h4.265v1.066H83.47V91.895z"/>
<path fill="#333300" d="M14.392,94.027h4.157v1.066h-4.157V94.027z"/>
<path fill="#333300" d="M20.681,94.027h4.264v1.066h-4.264V94.027z"/>
<path fill="#333300" d="M26.971,94.027h4.158v1.066h-4.158V94.027z"/>
<path fill="#333300" d="M33.26,94.027h4.158v1.066H33.26V94.027z"/>
<path fill="#333300" d="M39.55,94.027h4.158v1.066H39.55V94.027z"/>
<path fill="#333300" d="M45.839,94.027h4.158v1.066h-4.158V94.027z"/>
<path fill="#333300" d="M52.128,94.027h4.158v1.066h-4.158V94.027z"/>
<path fill="#333300" d="M58.419,94.027h4.156v1.066h-4.156V94.027z"/>
<path fill="#333300" d="M64.601,94.027h4.265v1.066h-4.265V94.027z"/>
<path fill="#333300" d="M70.998,94.027h4.158v1.066h-4.158V94.027z"/>
<path fill="#333300" d="M77.288,94.027h4.157v1.066h-4.157V94.027z"/>
<path fill="#333300" d="M83.47,94.027h4.265v1.066H83.47V94.027z"/>
<path fill="#333300" d="M14.392,96.053h4.157v1.065h-4.157V96.053z"/>
<path fill="#333300" d="M20.681,96.053h4.264v1.065h-4.264V96.053z"/>
<path fill="#333300" d="M26.971,96.053h4.158v1.065h-4.158V96.053z"/>
<path fill="#333300" d="M70.998,96.053h4.158v1.065h-4.158V96.053z"/>
<path fill="#333300" d="M77.288,96.053h4.157v1.065h-4.157V96.053z"/>
<path fill="#333300" d="M83.47,96.053h4.265v1.065H83.47V96.053z"/>
<path fill="#333300" d="M14.392,98.185h4.157v1.065h-4.157V98.185z"/>
<path fill="#333300" d="M20.681,98.185h4.264v1.065h-4.264V98.185z"/>
<path fill="#333300" d="M77.288,98.185h4.157v1.065h-4.157V98.185z"/>
<path fill="#333300" d="M83.47,98.185h4.265v1.065H83.47V98.185z"/>
<path fill="#333300" d="M14.392,100.317h4.157v0.959h-4.157V100.317z"/>
<path fill="#333300" d="M83.47,100.317h4.265v0.959H83.47V100.317z"/>
<path fill="none" stroke="#FFFFFF" stroke-width="2" d="M10.234,102.342V86.671h81.658"/>
<path fill="#4C4C4C" d="M11.3,87.738h2.132v2.132H11.3V87.738z"/>
<path fill="#4C4C4C" d="M88.8,87.738h2.025v2.132H88.8V87.738z"/>
<circle fill="#99997A" cx="19.615" cy="32.197" r="4.158"/>
<circle fill="#FFFFFF" stroke="#000000" stroke-width="2" cx="19.615" cy="32.197" r="3.091"/>
<path fill="none" stroke="#FF0000" stroke-width="2" d="M19.722,32.304l-2.132-1.066"/>
<path fill="#B2B29B" d="M38.59,16.527h24.945V27.08H38.59V16.527z"/>
<path d="M39.55,17.592h23.026v8.422H39.55V17.592z"/>
<path fill="#7F0000" d="M40.616,24.948l3.092-6.289h5.224l-1.066,2.132h9.488l1.066-2.132h2.025l-1.066,2.132h2.132l-2.132,4.157
	H40.616z M52.128,19.725v-1.066h2.026v1.066H52.128z"/>
<path d="M4.051,85.606h2.025v2.132H4.051V85.606z"/>
</svg>
