<?xml version="1.0" encoding="utf-8"?>
<!-- Generator: Adobe Illustrator 14.0.0, SVG Export Plug-In . SVG Version: 6.00 Build 43363)  -->
<!DOCTYPE svg PUBLIC "-//W3C//DTD SVG 1.1//EN" "http://www.w3.org/Graphics/SVG/1.1/DTD/svg11.dtd">
<svg version="1.1" id="图层_1" xmlns="http://www.w3.org/2000/svg" xmlns:xlink="http://www.w3.org/1999/xlink" x="0px" y="0px"
	 width="115.646px" height="106.502px" viewBox="0 0 115.646 106.502" enable-background="new 0 0 115.646 106.502"
	 xml:space="preserve">
<path fill="#7F7F7F" d="M15.628,103.26V53.367l20.374-15.976V3.241h43.295v34.15l20.605,15.976v49.893H15.628z"/>
<path fill="#999999" d="M22.573,103.26V53.367l17.133-15.976V3.241h36.118v34.15l17.133,15.976v49.893H22.573z"/>
<path fill="#B2B2B2" d="M33.918,103.26V53.367l11.692-15.976V3.241h24.31v34.15l11.692,15.976v49.893H33.918z"/>
<path fill="#CCCCCC" d="M47.462,103.26V53.367l5.094-15.976V3.241h10.419v34.15l5.094,15.976v49.893H47.462z"/>
<path fill="none" stroke="#000000" stroke-width="2" d="M15.628,103.26V53.367l20.374-15.976V3.241h43.295v34.15l20.605,15.976
	v49.893H15.628"/>
<path fill="none" stroke="#7F7F7F" stroke-width="2" d="M36.002,37.392h43.295"/>
<path fill="none" stroke="#7F7F7F" stroke-width="2" d="M15.628,53.367h84.274"/>
<path fill="none" stroke="#7F7F7F" stroke-width="2" d="M58.807,37.392v11.345"/>
<path fill="#336666" stroke="#000000" stroke-width="2" d="M17.944,55.45h79.644v45.495H17.944V55.45z"/>
<path fill="#FFFF00" stroke="#000000" stroke-width="2" d="M26.973,87.285l-0.348,0.926l-0.348,0.231l-0.231-0.115l-1.505-3.705
	l-0.694-4.398l-0.463-3.589l-0.231-4.052l-0.579,2.895l-0.347,3.356l-1.042,2.895l-0.348,0.115l-0.463-0.231l-1.273-1.736
	l-0.694-1.736v1.736l0.347,4.283l0.348,3.705l0.579,3.241l0.578,3.01l0.463,3.01l2.663,1.736l3.589,1.273l4.398,0.463l2.084,0.231
	l2.547,0.116l1.62-0.116l4.283-0.231l4.052-0.116l3.937-0.115l4.052-0.116l4.398-0.347l4.515,0.231l4.399,0.347l3.125,0.116h3.357
	l3.704-0.231l4.052-0.694l4.746-1.042l3.705,0.463l3.356-1.273l2.2-2.894l1.157-3.242l0.463-1.968l0.463-2.431l-0.115-1.158
	l-0.463-3.356l-0.464-3.473l-0.463-3.357l-0.347-3.357l-0.463-3.473l-0.348,4.052l-0.231,0.811l-0.463,0.347l-0.463-0.231
	l-2.084-3.241l-1.273-1.62l-0.116,0.231l0.348,4.398l1.505,2.778l0.811,3.937l-1.042,2.777L90.99,86.36l-1.39,2.894l-0.348,0.231
	l-1.968-0.347l-0.347-3.126l1.041-2.895l0.579-2.546l-0.694-0.348l-0.463-0.694v-3.937l0.347-3.588l-0.231-0.348h-0.463
	l-3.473,2.315l-1.968,1.852l0.694,2.895l0.694,2.894l0.811,3.01l0.116,0.579l-1.505-3.01l-0.579-0.694l-0.348-0.116l-0.231,0.231
	l-0.115,3.937l0.347,4.283l0.116,3.704v0.694l-0.348-0.347l-0.694-3.474l-0.231-3.125l-0.463-1.39l-0.348-0.115l-0.579,0.115
	l-2.778,3.589l-1.389,2.431l1.273-3.473l1.042-3.241l0.926-3.704l0.231-3.704l-1.505-3.011l-1.736-2.546l-0.231-0.811l-2.547,2.315
	l-2.199,2.662l0.115,4.168l0.231,3.819l-0.926,1.621l-3.589-0.116l-1.505,0.348l-0.347,0.463l1.041-2.894l1.853-3.01l-0.579-3.589
	l-0.578-1.39l-1.621-2.778l-0.694-3.01l-0.694-3.473l-0.811-2.894l-0.811-1.505l-0.463-0.579v1.042l-0.926,2.778l-1.505,3.125
	l-1.39,3.589l-0.115,4.862l1.041,4.052l1.042,2.314l-1.852,2.778l-0.464,0.695h-0.347h-0.231l-0.811-3.82l-0.231-3.473l-0.694,0.347
	l-0.695,2.895l-0.231,1.157l-0.115,0.116h-0.116l-0.926-1.158l0.115-3.588l0.464-3.474l0.578-3.473l0.348-4.052l-0.116-0.811
	l-0.347-0.347l-0.463,0.115l-2.895,4.168l-0.463,0.347l-3.01-2.083l-1.853-1.158H43.99l-0.463,0.348l-0.694,3.82l0.115,5.44
	l1.736,2.547l0.927,3.126l-0.231,3.473l-2.315,2.547l-0.463,0.347h-0.579l-0.463-0.347l-0.348-0.811l1.042-2.778l-0.579-3.241
	l-0.926-1.968l-1.389-2.778l-1.042-3.357l-0.695-0.926h-0.347l-2.432,4.167l-0.926,2.432h-0.463l-3.126-1.273l-0.231,0.347
	l1.505,3.241l0.116,0.579l-0.463,3.473l1.157,3.82l1.505,4.052l-2.547-2.547l-1.736-2.547l-2.199-2.199L26.973,87.285z"/>
<path fill="#FF7F00" d="M28.824,90.874l-0.578,0.81l-0.348,0.231h-0.348l-2.199-2.546l-1.273-3.357l-0.579-3.01l-0.347-3.473
	l-0.579,3.588l-0.694,3.589l-0.463,0.926l-0.348,0.116l-0.463-0.231l-1.042-1.621l-0.579-1.505v1.505l0.464,3.357l1.041,3.01
	l1.505,3.01l0.579,2.315l2.778,1.389l3.241,0.695l3.82,0.347l3.589,0.231l2.431,0.231l1.273-0.115l3.82-0.231l3.704-0.116
	l3.473-0.115l3.589-0.231l4.052-0.231l4.052,0.115l3.936,0.348l4.283,0.231l4.862-0.231l3.704-0.579l4.168-0.926l3.125,0.463
	l4.168-0.463l3.01-1.736l2.315-3.705l0.811-3.936l0.81-2.199v-0.811v-0.694l-0.694-3.241l-1.042-3.705l-0.578-3.01l-0.232,3.357
	l-0.231,0.579h-0.231l-1.505-3.589l-0.926-3.241l-0.231-0.695l0.463,3.589l0.348,3.241l0.115,3.474l0.116,0.81l-1.39,2.547
	l-1.736,2.663l-2.315,2.431l-0.926,0.348l-1.389-0.464l0.115-3.704l1.273-3.241l0.116-1.157l-0.695-0.231l-0.81-3.126l0.463-3.357
	l0.115-0.694l-1.157,3.126l-0.694,1.968v3.82l-0.811,3.704l-1.158,2.778l-0.578,0.579h-0.348L79.76,87.98l-0.694-1.273h-0.116
	l0.695,3.01l0.694,2.895l0.231,2.199l-1.853-2.895l-0.463-0.578l-0.694-0.231l-3.704,1.273l0.463-3.01l0.811-3.126l0.81-3.357
	l0.231-3.125l-1.273-2.663l-1.852-3.01L71.31,76.52l-0.348,3.241l0.463,3.125l-0.115,4.283l-1.736,3.241l-2.432,1.621l-3.125-1.042
	l-1.042-3.704l1.389-2.895l1.505-2.547l-0.811-3.704l-1.505-2.778l-0.347-3.704l-1.042-3.126l-0.579-0.463l0.116,0.811l-1.158,2.778
	l-1.62,2.778l-0.463,3.125l0.578,3.011l1.621,3.819l-1.736,2.432l-2.547,2.083l-0.348-0.231l-1.042-3.588l-0.115-1.737l-0.579,0.348
	l-1.273,1.736h-0.347l-1.158-1.505l0.348-4.63l0.463-3.01l0.348-3.937l-0.116-1.62l-0.231-0.348l-0.463,0.231l-2.663,3.704
	l-0.347,0.231l-0.463-0.115l-2.2-2.895l-0.81-0.926l-0.348-0.116L44.8,70.732l-0.348,3.125l0.116,4.862l1.736,2.431l1.62,2.547
	l0.348,3.589l-0.115,1.273l-2.895,2.084l-3.126,1.505L40.401,91.8l-0.231-0.463l-0.115-4.052l-1.158-2.315l-0.578-3.82l0.347-3.589
	v-0.463l-0.115-0.231l-0.231,0.116l-1.273,3.01l-0.811,2.084l-0.348,0.115l-2.547-1.042l-0.231,0.231l1.158,2.778v0.579
	l-1.273,2.662l0.347,3.82l0.927,3.126l0.694,1.968l-2.315-1.853l-2.315-2.547L28.824,90.874z"/>
<path fill="#FF0000" d="M28.824,92.957l-1.736,2.778l-0.694,0.348l-0.348-0.116l-1.62-2.778l-0.231-2.546l-2.432-2.432l-0.115-0.231
	l-0.116-0.115v0.231l1.39,3.125l0.926,4.168l0.348,1.736l2.662,1.157l3.589,1.042l3.589,0.579l4.515,0.463l1.736,0.231l1.968,0.116
	l1.157-0.116l4.168-0.231l3.704-0.116l3.82-0.115l3.241-0.231l3.357,0.115l3.241,0.231l3.473,0.231l3.937-0.231l4.63-0.694
	l3.241-0.926l3.937-0.694l3.473-0.464l3.704-0.926l2.895-2.894l0.578-1.273l-2.199,1.852v-0.115l1.621-2.547l1.736-3.126
	l0.463-1.157l0.231-1.042v-0.926l-0.348-0.811l-0.578-0.579l-0.116,3.01l-0.231-0.115l-1.273-3.241l-0.926-2.895l-0.231-0.463
	l-0.116-0.231l0.463,3.473v3.357l0.116,2.199l-2.199,2.894l-2.778,2.432l-2.663,1.736l-3.589-0.116l-3.125-1.041l-1.273-1.158
	l-0.116-0.811l-0.81-0.231l-0.348-0.463l-0.116-0.231l0.116-0.116l0.231,0.116l-0.348,4.052l-2.546,2.315h-0.232l-0.347-0.116
	l-1.158-3.125l-1.157-0.927l0.579-3.241l0.578-3.01l0.116-1.853l-0.116-0.115h-0.115l-1.968,3.126l-1.853,3.356l-2.084,3.01
	l-1.852,1.39h-0.463l-1.39-3.473l-0.231-3.357l0.348-3.241l0.347-4.283v-1.968l-0.115-0.232l-0.231,0.116l-1.158,3.01l-0.694,3.01
	l-0.348,1.273l-2.083,2.315l-2.663,1.273l-2.662-1.273l-1.853-3.473l-0.926-2.895l-0.694-3.125l-0.116-0.927V79.53v0.115
	l0.463,4.399l0.348,4.167l0.115,2.663l-2.431,1.852l-2.895,1.158l-0.694-0.116l-0.463-0.579l-0.926,1.39l-0.579,0.231l-2.662-1.389
	l-1.737-1.273v0.231l0.927,3.01l0.926,1.968l-3.01-1.158l-3.357-1.272l-3.125-1.273L28.824,92.957z"/>
<path fill="#FFFF00" stroke="#000000" stroke-width="2" d="M81.265,70.384l-0.926-0.926L79.412,68.3l-0.347-1.273v-0.811
	l0.463-0.926l0.694-1.157l0.463-1.042l0.348-0.926l0.463-1.505l0.348-1.505l0.231-0.811l0.694,1.273l0.463,1.157l0.463,1.39
	l-0.115,1.157l0.115,0.348l-0.578,1.157l-0.694,1.389l-0.348,0.811l-0.348,1.39L81.265,70.384z"/>
<path fill="#FF7F00" d="M81.033,69.69l-0.811-0.811l-0.578-0.926l-0.348-1.042l0.231-1.39l0.579-0.926l0.694-1.39l0.463-1.272
	l0.348-1.158l0.231-0.694l0.579,1.157l0.463,1.505l0.115,0.348l-0.115,1.042l-0.348,1.273l-0.579,0.926l-0.347,0.694l-0.231,1.042
	L81.033,69.69z"/>
<ellipse fill="#FF0000" cx="81.033" cy="65.522" rx="1.157" ry="3.125"/>
<path fill="#FFFF00" stroke="#000000" stroke-width="2" d="M40.98,68.879l-0.926-0.811l-0.694-0.926l-0.348-1.158l0.348-1.505
	l0.578-0.926l0.463-0.811l0.464-1.389l0.347-1.158l0.231-1.389l0.694,1.157l0.464,0.811l0.347,1.158l-0.115,1.272l-0.348,1.042
	l-0.579,1.158l-0.347,0.694l-0.231,1.157L40.98,68.879z"/>
<ellipse fill="#FF7F00" cx="40.748" cy="64.249" rx="1.505" ry="3.936"/>
<ellipse fill="#FF0000" cx="40.748" cy="64.712" rx="1.042" ry="2.546"/>
<path fill="#7F7F7F" d="M3.241,75.824h109.048v9.146H3.241V75.824z"/>
<path fill="#999999" d="M3.241,76.404h109.048v7.987H3.241V76.404z"/>
<path fill="#B2B2B2" d="M3.241,77.446h109.048v6.251H3.241V77.446z"/>
<path fill="#CCCCCC" d="M3.241,78.488h109.048v4.052H3.241V78.488z"/>
<path fill="#E5E5E5" d="M3.241,79.298h109.048v2.546H3.241V79.298z"/>
<path fill="#FFFFFF" d="M3.241,79.992h109.048v1.042H3.241V79.992z"/>
<path fill="none" stroke="#000000" stroke-width="2" d="M3.241,84.97h109.048"/>
<path fill="none" stroke="#000000" stroke-width="2" d="M112.289,75.824H3.241"/>
<path fill="#FFFF00" stroke="#000000" stroke-width="2" d="M29.866,79.992l0.694-0.811l0.811-0.811l0.694-0.926l0.695-0.926
	l0.347-0.927l0.116-0.463l0.115-0.579l-0.115-0.578l-0.231-1.273l-0.348-0.694l-0.579-0.927l-0.463-0.926l-0.81-1.505l-0.579-1.273
	l-0.348-1.273l-0.347-1.042l-0.232-1.042l-0.347-1.157l-0.231-0.579l-0.116-0.694l-0.694,1.157l-0.463,0.811l-0.463,0.926
	l-0.579,1.273l-0.231,1.042v0.463l-0.116,0.348l0.116,0.348l0.115,1.157l-0.115,0.579l0.463,1.042l0.579,0.926l0.463,0.811
	l0.463,0.926l0.463,1.389l0.231,1.042l0.348,1.042l0.348,1.505L29.866,79.992z"/>
<path fill="#FF7F00" d="M30.098,78.719l1.158-1.273l1.042-1.39l0.463-1.505v-0.926l-0.348-1.042l-0.811-1.505l-0.694-1.157
	l-0.348-1.042l-0.347-1.042l-0.348-1.273l-0.231-0.926l-0.348-0.927l-0.231-0.463l-0.81,1.621l-0.579,1.273l-0.231,0.926
	l-0.231,1.273v1.39l0.578,1.041l0.579,0.811l0.348,1.042l0.463,1.042l0.348,1.621l0.347,1.157L30.098,78.719z"/>
<path fill="#FF0000" d="M30.098,77.098l0.927-0.81l0.694-0.927l0.347-1.042l-0.463-1.273l-0.578-1.041l-0.579-1.506l-0.348-1.157
	l-0.231-1.157l-0.347-0.579l-0.579,1.042l-0.579,1.389v1.158l-0.115,0.578l0.347,0.811l0.579,1.042l0.348,0.694l0.231,1.158
	L30.098,77.098z"/>
<path fill="#FFFF00" stroke="#000000" stroke-width="2" d="M68.069,78.14l0.694-0.579l0.694-0.694l1.042-1.389l0.463-1.853
	l-0.115-0.926l-0.464-1.273l-0.81-1.505l-0.579-1.273l-0.463-1.158l-0.348-0.926l-0.231-1.042l-0.348-1.389l-0.347-0.927
	l-0.231-0.463L66.1,64.365l-0.578,1.389l-0.348,0.927l-0.231,0.81l0.115,1.042v0.927l0.348,0.926l0.348,0.811l0.694,1.157
	l0.348,0.926l0.463,1.39l0.231,0.926l0.347,1.273L68.069,78.14z"/>
<path fill="#FF7F00" d="M68.3,77.098l1.041-0.926l0.927-1.042l0.347-1.389l-0.115-0.811l-0.348-0.926l-0.694-1.273l-0.463-1.042
	l-0.348-0.927l-0.463-1.505l-0.348-1.389l-0.231-0.811l-0.694,1.273l-0.463,1.157l-0.463,1.39l0.115,1.157l-0.115,0.348l0.579,1.157
	l0.694,1.39l0.347,0.926l0.348,1.273L68.3,77.098z"/>
</svg>
