<?xml version="1.0" encoding="utf-8"?>
<!-- Generator: Adobe Illustrator 14.0.0, SVG Export Plug-In . SVG Version: 6.00 Build 43363)  -->
<!DOCTYPE svg PUBLIC "-//W3C//DTD SVG 1.1//EN" "http://www.w3.org/Graphics/SVG/1.1/DTD/svg11.dtd">
<svg version="1.1" id="图层_1" xmlns="http://www.w3.org/2000/svg" xmlns:xlink="http://www.w3.org/1999/xlink" x="0px" y="0px"
	 width="90.512px" height="106.502px" viewBox="0 0 90.512 106.502" enable-background="new 0 0 90.512 106.502"
	 xml:space="preserve">
<path fill="#7F7F7F" d="M2.985,103.41V53.198l20.575-15.991V2.985h43.283v34.222l20.682,15.991v50.213H2.985z"/>
<path fill="#999999" d="M9.915,103.41V53.198l17.271-15.991V2.985h36.354v34.222L80.81,53.198v50.213H9.915z"/>
<path fill="#B2B2B2" d="M21.215,103.41V53.198l11.62-15.991V2.985h24.733v34.222l11.621,15.991v50.213H21.215z"/>
<path fill="#CCCCCC" d="M34.861,103.41V53.198l5.224-15.991V2.985h10.554v34.222l4.904,15.991v50.213H34.861z"/>
<path fill="none" stroke="#000000" stroke-width="2" d="M2.985,103.41V53.198l20.575-15.991V2.985h43.283v34.222l20.682,15.991
	v50.213H2.985"/>
<path fill="none" stroke="#7F7F7F" stroke-width="2" d="M23.561,37.206h43.283"/>
<path fill="none" stroke="#7F7F7F" stroke-width="2" d="M2.985,53.198h84.54"/>
<path fill="none" stroke="#7F7F7F" stroke-width="2" d="M46.481,37.206v11.407"/>
<path fill="#336666" stroke="#000000" stroke-width="2" d="M5.224,55.543h79.957v45.629H5.224V55.543z"/>
<path fill="#FFFF00" stroke="#000000" stroke-width="2" d="M14.286,87.526l-0.426,0.96l-0.32,0.106l-0.213-0.106l-1.173-2.559
	l-0.853-3.944l-0.427-3.412l-0.32-3.944l-0.106-2.025l-0.533,2.985l-0.32,3.305l-1.066,3.092l-0.426,0.106l-0.427-0.214L6.503,80.17
	l-0.747-1.706v1.706l0.107,2.984l0.426,3.839l0.533,3.305l0.533,2.984l0.533,2.985l0.213,0.96l2.239,1.492l2.985,1.386l3.625,0.533
	l3.945,0.319l2.665,0.214l1.493-0.106l2.878-0.214l4.051-0.213h3.944l4.051-0.106l4.264-0.32h2.986l3.091,0.106l3.092,0.214
	l2.985,0.213l3.305,0.213l3.518-0.106l3.838-0.426l4.371-0.747l2.346-0.64l2.985,0.427l3.411-0.853l2.346-2.239l1.386-2.665
	l0.853-3.838l0.427-2.346l-0.214-1.172l-0.426-3.412l-0.32-3.411l-0.426-3.412l-0.427-3.518l-0.213-3.411l-0.319,4.051l-0.32,0.959
	l-0.427,0.214l-0.532-0.106l-1.6-2.346l-1.387-2.346l-0.319-0.319l-0.213,0.106l0.427,4.371l1.172,2.452l0.854,2.878l0.319,1.706
	l-1.065,2.665l-0.96,3.092l-1.173,2.452l-0.64,0.64l-2.559-1.066L74.84,85.5l0.959-2.878l0.32-1.813l-0.64-0.427l-0.533-3.625
	l0.533-3.091v-1.493l-0.214-0.319l-0.533-0.106l-3.518,2.559l-2.025,1.812l0.746,2.879l0.746,2.878l0.746,2.772l0.107,0.533
	l-1.6-2.985l-0.533-0.64l-0.32-0.213l-0.213,0.319l-0.106,4.052l0.319,2.878l0.214,4.051l-0.106,1.813l-0.32-0.319l-0.639-3.625
	l-0.32-3.092l-0.427-1.279l-0.427-0.213l-0.533,0.106l-2.664,3.625l-1.387,2.452l0.854-2.559l0.959-2.666l1.066-3.731l0.533-3.091
	l-0.213-2.985l-1.6-2.665l-1.6-2.879l-2.132,1.919l-2.239,1.919l-0.639,2.985l0.639,4.051l-0.319,2.879l-2.559,0.959l-3.092-0.106
	l-0.746,0.854l0.746-2.666l1.706-2.132l0.213-3.625l-0.854-2.452l-1.705-2.878l-0.64-3.198l-0.64-3.411l-0.854-2.879l-0.746-1.492
	l-0.533-0.533v0.959l-0.852,2.879l-1.6,3.092l-1.279,3.624l-0.213,3.092l0.64,3.731l1.706,4.478l-1.599,2.346l-1.172,1.066
	l-0.213-0.107l-0.213-0.319l-0.64-3.519l-0.32-3.518l-0.32,0.106l-1.066,2.771l-0.32,1.706h-0.106l-0.959-1.279l0.106-3.519
	l0.533-3.305l0.533-3.518l0.32-2.985l-0.106-1.919l-0.32-0.319l-0.426,0.106l-2.985,4.157l-0.426,0.214l-2.452-1.387l-2.452-1.812
	l-0.533,0.106l-0.427,0.319l-0.746,3.838v2.559l0.106,3.092l1.706,2.346l0.959,3.092l-0.32,3.624l-2.132,2.559l-0.533,0.32h-0.426
	l-0.426-0.32l-0.427-0.746l0.959-2.878l-0.32-2.985l-1.066-2.132l-1.386-2.772l-0.747-2.771l-1.066-1.6h-0.426l-1.706,2.346
	l-1.706,4.265h-0.426l-2.452-1.173l-0.64-0.213l-0.213,0.426l1.386,2.985l0.213,0.64l-0.64,2.665l0.746,3.198l1.173,3.412
	l0.853,2.238l-2.132-1.919l-1.813-2.452l-1.706-2.238L14.286,87.526z"/>
<path fill="#FF7F00" d="M16.098,90.831l-0.533,0.959l-0.32,0.213h-0.426l-0.427-0.106l-1.812-2.345l-1.173-3.412l-0.64-3.092
	l-0.32-3.518l-0.533,2.665l-0.32,3.092l-0.64,2.238l-0.213,0.32l-0.427,0.213L6.93,86.14l-0.64-1.492v1.492l0.426,3.412l1.066,2.878
	l1.172,2.452l0.959,2.878l2.772,1.493l3.305,0.746l3.731,0.427l3.838,0.319l2.346,0.213l1.386-0.213l3.731-0.319l3.625-0.107
	l3.518-0.106l3.625-0.106l3.944-0.213l4.052,0.106l4.051,0.319l4.371,0.214l3.197-0.106l3.519-0.32l3.944-0.746l2.133-0.533
	l3.197,0.427l3.092-0.214l3.199-1.279l2.665-3.091l1.173-3.198l0.639-2.879l0.214-0.746l0.106-0.746v-0.854l-0.533-3.198
	l-0.959-3.518l-0.533-2.879l-0.106-1.065l-0.214,3.411l-0.319,0.64l-0.319-0.106l-1.066-2.346l-1.173-3.625l-0.533-1.599
	l0.427,3.625l0.426,3.198v3.518l0.107,0.853l-1.279,2.452l-1.813,2.666l-2.346,2.238l-0.854,0.32l-0.959-0.107l-0.746-0.64
	l0.426-3.305l1.066-2.665l0.32-1.813l-1.066-0.853l-0.426-3.412l0.533-2.771v-0.213l-1.066,2.984l-0.746,1.919l0.105,2.985
	l-0.426,2.772l-0.64,2.665l-1.599,2.452h-0.32l-1.386-2.772l-0.533-1.173l-0.214-0.106l0.747,3.092l0.64,2.879l0.213,2.238
	l-1.6-2.559l-2.984-0.853l-2.346,1.065l0.746-3.091l0.746-3.092l0.854-3.306l0.213-3.305l-1.279-2.771l-1.599-2.346l-0.214-0.64
	l-1.492,2.346l-0.853,2.771l0.532,3.625l0.107,3.092l-0.64,2.665l-2.132,2.771l-2.559,1.066l-0.747-0.106l-1.919-2.025l-0.533-2.772
	l1.066-2.665l1.813-2.346l-0.427-3.091l-0.427-1.173l-1.492-2.879l-0.213-2.984l-0.427-2.772l-0.532-1.065l-0.428-0.427v0.853
	l-1.279,2.665l-1.705,2.879l-0.426,3.198l0.532,2.985l1.599,3.944L46.375,87.1l-2.132,2.025h-0.426l-1.173-2.452l-0.32-3.092
	l-0.64,0.32l-1.279,1.813h-0.32l-1.066-1.6l0.106-3.092l0.427-2.985l0.426-3.091l0.213-3.625l-0.107-0.64l-0.32-0.32l-0.426,0.214
	l-2.666,3.731l-0.32,0.213l-2.239-2.239l-1.279-1.599l-0.32-0.106l-0.213,0.213l-0.427,3.198l0.213,5.011l1.706,2.452l1.386,2.452
	l0.32,3.624l-0.107,1.279l-2.239,1.706l-2.452,1.386l-2.666,0.427l-0.64-0.746l0.107-3.198l-1.066-2.559v-0.64l-0.64-2.772
	l0.213-3.092v-2.345l-0.106,0.213l-1.279,2.985l-0.853,2.132l-0.426,0.106l-2.772-1.173l-0.106,0.32l1.279,2.878L20.576,87.1
	l-0.106,3.198l0.533,2.771l1.279,3.731l-2.239-2.132l-2.345-2.772L16.098,90.831z"/>
<path fill="#FF0000" d="M16.098,93.176l-1.386,2.559l-1.386,0.533l-1.599-2.771l-0.32-2.665l-2.025-2.133l-0.533-0.533l0,0v0.107
	l1.279,3.305l1.066,4.157l0.213,1.813l2.772,1.066l3.625,0.959l3.625,0.533l2.878,0.32l3.518,0.319l1.919,0.213l1.066-0.106
	l3.092-0.213l3.838-0.106l3.944-0.106l3.198-0.214h3.305l3.198,0.214l3.411,0.213h3.731l2.878-0.213l3.199-0.64l3.197-0.854
	l2.772-0.533l3.624-0.532l2.986-0.427l2.559-1.173l2.025-2.452l0.533-1.173l-2.133,1.813l0,0l1.6-2.559l1.813-3.198l0.746-2.132
	l0.106-0.96l-0.214-0.853l-0.639-0.64l-0.214,3.092L83.155,87.1l-1.386-3.306l-0.96-2.878l-0.213-0.533l-0.106-0.106l0.426,3.411
	l0.213,3.198l0.214,2.452l-2.345,2.665l-2.026,1.919l-2.239,1.6l-2.664,1.279l-3.412-0.746l-2.665-1.386l-0.533-0.64l-0.106-0.854
	l-0.959-0.319l-0.428-0.32l-0.105-0.319l0.105-0.106l0.214,0.213l-0.106,3.944l-2.133,2.025l-0.746,0.32l-1.279-2.772l-1.599-1.386
	l0.746-2.559l0.746-3.624l0.106-1.813l-0.213-0.214l-0.106,0.107l-1.599,2.238l-1.387,2.452l-1.386,2.452l-2.026,2.771l-1.812,0.853
	l-1.493-3.518l-0.319-3.305L50,87.1l0.426-4.371V80.81l-0.213-0.214L50,80.703l-1.173,2.984l-0.747,2.985l-0.319,1.386l-2.025,2.239
	l-2.665,1.279l-2.772-1.386l-1.493-2.452l-1.066-2.985l-0.747-2.665l-0.32-2.239l-0.106-0.106h0.106l0.32,2.985l0.32,3.411
	l0.427,4.904l-2.452,1.919l-3.092,1.173l-0.64-0.106l-0.533-0.64l-0.427,0.959l-0.426,0.533l-0.64,0.106l-2.665-1.279l-1.599-1.386
	l-0.107,0.213l0.959,2.985l0.747,2.025l-2.878-1.066l-2.452-1.065l-2.559-0.96l-2.559-1.173L16.098,93.176z"/>
<path fill="#FFFF00" stroke="#000000" stroke-width="2" d="M16.844,77.931l0.853-0.746l0.746-0.853l0.64-0.746l0.64-0.96
	l0.427-0.959l0.106-0.533v-0.533v-0.64l-0.213-1.279l-0.32-0.746l-0.533-0.854l-0.533-0.853l-0.32-0.853l-0.64-1.387l-0.427-1.279
	l-0.426-1.172l-0.32-1.066l-0.213-1.066l-0.426-1.173l-0.32-0.532l-0.64,0.959l-0.426,0.96l-0.427,0.853l-0.533,1.279l-0.213,1.173
	l-0.106,0.319v0.427l0.106,1.173l-0.106,0.853l0.426,0.96l0.64,0.959l0.426,0.854l0.427,0.959l0.533,1.386l0.213,0.96l0.32,1.065
	l0.32,1.493L16.844,77.931z"/>
<path fill="#FF6600" d="M17.377,76.972l0.533-0.746l0.64-0.64l0.533-0.747l0.747-1.492l0.213-0.853l-0.213-0.96l-0.427-1.065
	l-0.746-1.387l-0.64-1.279l-0.427-0.959l-0.32-0.96l-0.213-0.959l-0.32-1.279l-0.213-0.96l-0.213-0.533l-0.853,1.706l-0.533,1.279
	l-0.32,0.96l-0.106,0.746v0.959v0.854l0.32,0.853l0.533,0.96l0.32,0.746l0.427,0.959l0.426,1.386l0.213,0.854l0.32,1.173
	L17.377,76.972z"/>
<path fill="#FF0000" d="M17.377,75.053l0.746-0.746l0.64-0.854l0.32-1.065l-0.426-1.387l-0.533-0.959l-0.64-1.492l-0.32-1.173
	l-0.32-1.173l-0.213-0.64l-0.533,1.066l-0.427,0.746l-0.32,1.065v0.96v0.319l0.533,0.854l0.64,1.173l0.213,0.746l0.32,1.065
	L17.377,75.053z"/>
<path fill="#FFFF00" stroke="#000000" stroke-width="2" d="M55.543,74.307l0.641-0.64l0.746-0.64l0.639-0.747l0.428-0.746
	l0.319-0.746l0.213-0.959l-0.213-0.96l-0.533-1.173l-0.427-0.853l-0.639-1.386l-0.533-1.173l-0.32-1.173l-0.32-0.96L55.33,61.3
	l-0.32-0.959l-0.319-0.96l-0.214-0.533l-0.959,1.706l-0.533,1.279l-0.426,0.959l-0.107,1.387l0.107,0.959l-0.107,0.427l0.32,0.853
	l0.533,0.854l0.533,0.746l0.533,1.279l0.426,1.492l0.213,0.96l0.214,1.172L55.543,74.307z"/>
<path fill="#FF6600" d="M55.756,73.347l1.174-1.173l0.853-1.065l0.427-1.279l-0.107-0.747l-0.319-0.959l-0.64-1.279l-0.533-0.96
	l-0.426-0.959l-0.32-1.173l-0.32-0.96l-0.319-1.172l-0.214-0.427l-0.746,1.279l-0.426,1.066l-0.427,1.279l0.106,1.172l-0.106,0.32
	l0.427,0.96l0.533,0.746l0.319,0.853l0.319,0.96l0.32,1.386l0.213,0.959L55.756,73.347z"/>
<path fill="#FFFF00" stroke="#000000" stroke-width="2" d="M68.869,70.682l-0.959-1.066l-0.854-1.173l-0.319-1.386l0.106-0.853
	l0.32-0.854l0.639-1.172l0.533-1.066l0.32-0.853l0.32-1.173l0.319-1.173l0.319-1.173l0.107-0.427l0.746,1.387l0.426,1.065
	l0.32,1.386v1.279v0.32l-0.32,0.959l-0.533,0.747l-0.319,0.853l-0.319,0.96l-0.427,1.386l-0.214,0.959L68.869,70.682z"/>
<path fill="#FF6600" d="M68.656,69.936l-0.746-0.96l-0.64-0.959l-0.319-1.066l0.213-1.386l0.533-0.854l0.426-0.853l0.533-1.279
	l0.32-1.173l0.426-1.279l0.64,1.173l0.319,0.853l0.32,1.066l-0.213,0.96l-0.213,0.959l-0.427,0.853l-0.533,1.173l-0.319,1.173
	L68.656,69.936z"/>
<ellipse fill="#FF0000" cx="68.656" cy="65.565" rx="1.173" ry="3.092"/>
<path fill="#FFFF00" stroke="#000000" stroke-width="2" d="M28.465,68.869l-0.959-0.746l-0.64-0.853l-0.32-1.173l0.106-0.747
	l0.213-0.853l0.533-0.959l0.427-0.747l0.426-1.386l0.32-1.173l0.426-1.386l0.64,1.173l0.32,0.853l0.32,1.173l-0.106,0.96
	l0.106,0.213l-0.32,1.066l-0.64,1.173l-0.213,0.64l-0.32,1.173L28.465,68.869z"/>
<ellipse fill="#FF6600" cx="28.145" cy="64.392" rx="1.492" ry="3.944"/>
<ellipse fill="#FF0000" cx="28.145" cy="64.712" rx="0.959" ry="2.559"/>
</svg>
