<?xml version="1.0" encoding="utf-8"?>
<!-- Generator: Adobe Illustrator 14.0.0, SVG Export Plug-In . SVG Version: 6.00 Build 43363)  -->
<!DOCTYPE svg PUBLIC "-//W3C//DTD SVG 1.1//EN" "http://www.w3.org/Graphics/SVG/1.1/DTD/svg11.dtd">
<svg version="1.1" id="图层_1" xmlns="http://www.w3.org/2000/svg" xmlns:xlink="http://www.w3.org/1999/xlink" x="0px" y="0px"
	 width="109.8px" height="106.502px" viewBox="0 0 109.8 106.502" enable-background="new 0 0 109.8 106.502" xml:space="preserve">
<path fill="#7F7F7F" stroke="#000000" stroke-width="2" d="M3.081,54.241h103.639v4.181H3.081V54.241z"/>
<path fill="#333333" d="M4.731,103.42V9.243h100.338v94.177H4.731z"/>
<path fill="#2E2E2E" d="M4.731,103.42V66.894l100.338-38.397v74.924H4.731z"/>
<path fill="#292929" d="M4.731,103.42V74.155l100.338-38.177v67.442H4.731z"/>
<path fill="#242424" d="M4.731,103.42V82.076l100.338-38.397v59.741H4.731z"/>
<path fill="#7F0000" d="M48.079,3.082h1.98v3.08h-1.98V3.082z"/>
<path fill="#7F0000" d="M16.063,3.082h2.09v3.08h-2.09V3.082z"/>
<path fill="#FF0000" d="M48.629,3.082h1.101v3.08h-1.101V3.082z"/>
<path fill="#FF0000" d="M16.723,3.082h0.99v3.08h-0.99V3.082z"/>
<path fill="#474747" d="M104.849,9.243v94.177h-8.031V9.243H104.849z"/>
<path fill="#474747" d="M5.171,103.42V9.243h7.812v94.177H5.171z"/>
<path fill="#595959" d="M104.849,9.243v94.177h-6.382V9.243H104.849z"/>
<path fill="#595959" d="M4.951,103.42V9.243h6.381v94.177H4.951z"/>
<path fill="#666666" d="M105.069,9.243v94.177h-4.951V9.243H105.069z"/>
<path fill="#666666" d="M4.951,103.42V9.243h4.951v94.177H4.951z"/>
<path fill="#737373" d="M105.069,9.243v94.177h-3.74V9.243H105.069z"/>
<path fill="#737373" d="M4.951,103.42V9.243h3.521v94.177H4.951z"/>
<path fill="#7F7F7F" d="M105.069,9.243v94.177h-2.42V9.243H105.069z"/>
<path fill="#7F7F7F" d="M4.951,103.42V9.243h2.2v94.177H4.951z"/>
<path fill="#8C8C8C" d="M4.951,103.42V9.243h1.431v94.177H4.951z"/>
<path fill="#8C8C8C" d="M105.069,9.243v94.177h-1.431V9.243H105.069z"/>
<path fill="#999999" d="M105.069,9.243v94.177h-0.44V9.243H105.069z"/>
<path fill="#999999" d="M4.731,103.42V9.243h0.55v94.177H4.731z"/>
<path fill="none" stroke="#000000" stroke-width="2" d="M4.731,103.42V9.243h100.558v94.177H4.731"/>
<path fill="#7F7F7F" stroke="#000000" stroke-width="2" d="M44.888,8.253h8.361v0.99h-8.361V8.253z"/>
<path fill="#7F7F7F" stroke="#000000" stroke-width="2" d="M45.988,7.153h6.161v1.101h-6.161V7.153z"/>
<path fill="#7F7F7F" stroke="#000000" stroke-width="2" d="M47.638,6.162h3.081v0.99h-3.081V6.162z"/>
<path fill="#7F7F7F" stroke="#000000" stroke-width="2" d="M12.982,8.253h8.361v0.99h-8.361V8.253z"/>
<path fill="#7F7F7F" stroke="#000000" stroke-width="2" d="M14.083,7.153h6.161v1.101h-6.161V7.153z"/>
<path fill="#7F7F7F" stroke="#000000" stroke-width="2" d="M15.733,6.162h3.08v0.99h-3.08V6.162z"/>
<path fill="#E5E5E5" stroke="#000000" stroke-width="2" d="M34.547,50.061h40.707v36.746H34.547V50.061z"/>
<path fill="#FFE566" stroke="#000000" stroke-width="2" d="M29.815,7.813h3.081v1.431h-3.081V7.813z"/>
<path fill="none" stroke="#B2B2B2" stroke-width="2" d="M5.171,10.343h99.458"/>
<path fill="#CCCCCC" d="M38.067,52.811h33.666v6.712H38.067V52.811z"/>
<path fill="#CCCCCC" d="M36.636,65.904h36.526v5.831H36.636V65.904z"/>
<path fill="#CCCCCC" d="M41.807,81.086h26.185v1.98H41.807V81.086z"/>
<path fill="none" stroke="#000000" stroke-width="2" d="M48.079,3.082h1.98v3.08h-1.98V3.082"/>
<path fill="none" stroke="#000000" stroke-width="2" d="M16.063,3.082h2.09v3.08h-2.09V3.082"/>
</svg>
