<?xml version="1.0" encoding="utf-8"?>
<!-- Generator: Adobe Illustrator 14.0.0, SVG Export Plug-In . SVG Version: 6.00 Build 43363)  -->
<!DOCTYPE svg PUBLIC "-//W3C//DTD SVG 1.1//EN" "http://www.w3.org/Graphics/SVG/1.1/DTD/svg11.dtd">
<svg version="1.1" id="图层_1" xmlns="http://www.w3.org/2000/svg" xmlns:xlink="http://www.w3.org/1999/xlink" x="0px" y="0px"
	 width="90.512px" height="106.502px" viewBox="0 0 90.512 106.502" enable-background="new 0 0 90.512 106.502"
	 xml:space="preserve">
<path fill="#7F7F7F" d="M2.985,103.41V53.198l20.575-15.991V2.985h43.283v34.222l20.682,15.991v50.213H2.985z"/>
<path fill="#999999" d="M9.915,103.41V53.198l16.951-15.991V2.985h36.353v34.222L80.49,53.198v50.213H9.915z"/>
<path fill="#B2B2B2" d="M21.215,103.41V53.198l11.62-15.991V2.985h24.733v34.222l11.621,15.991v50.213H21.215z"/>
<path fill="#CCCCCC" d="M34.861,103.41V53.198l4.904-15.991V2.985h10.554v34.222l5.224,15.991v50.213H34.861z"/>
<path fill="none" stroke="#000000" stroke-width="2" d="M2.985,103.41V53.198l20.575-15.991V2.985h43.283v34.222l20.682,15.991
	v50.213H2.985"/>
<path fill="none" stroke="#7F7F7F" stroke-width="2" d="M23.561,37.206h43.283"/>
<path fill="none" stroke="#7F7F7F" stroke-width="2" d="M2.985,53.198h84.54"/>
<path fill="none" stroke="#7F7F7F" stroke-width="2" d="M46.269,37.206v11.407"/>
</svg>
