<?xml version="1.0" encoding="utf-8"?>
<!-- Generator: Adobe Illustrator 14.0.0, SVG Export Plug-In . SVG Version: 6.00 Build 43363)  -->
<!DOCTYPE svg PUBLIC "-//W3C//DTD SVG 1.1//EN" "http://www.w3.org/Graphics/SVG/1.1/DTD/svg11.dtd">
<svg version="1.1" id="图层_1" xmlns="http://www.w3.org/2000/svg" xmlns:xlink="http://www.w3.org/1999/xlink" x="0px" y="0px"
	 width="70.25px" height="106.502px" viewBox="0 0 70.25 106.502" enable-background="new 0 0 70.25 106.502" xml:space="preserve">
<path fill="#666666" stroke="#000000" stroke-width="2" d="M5.01,98.397h55.22v4.051H5.01V98.397z"/>
<path fill="#CCCCCC" stroke="#000000" stroke-width="2" d="M2.985,102.448h59.271v0.96H2.985V102.448z"/>
<path fill="#CCCCCC" stroke="#000000" stroke-width="2" d="M2.985,97.438h59.271v0.959H2.985V97.438z"/>
<path fill="#CCCCCC" d="M5.01,6.933h55.22v90.505H5.01V6.933z"/>
<path fill="#C7C7C7" d="M5.01,71.107l55.22-37.844v64.175H5.01V71.107z"/>
<path fill="#C2C2C2" d="M5.01,74.945l55.22-37.844v60.337H5.01V74.945z"/>
<path fill="#BDBDBD" d="M5.01,80.488l55.22-37.736v54.687H5.01V80.488z"/>
<path fill="none" stroke="#000000" stroke-width="2" d="M5.01,6.933h55.22v90.505H5.01V6.933"/>
<path fill="#999999" d="M45.2,43.177h12.045v2.025H45.2V43.177z"/>
<path fill="#999999" d="M35.072,79.316H59.27v2.025H35.072V79.316z"/>
<path fill="#999999" d="M24.092,74.305h10.98v2.025h-10.98V74.305z"/>
<path fill="none" stroke="#4C4C4C" stroke-width="2" d="M45.2,43.177h12.045V31.131"/>
<path fill="none" stroke="#4C4C4C" stroke-width="2" d="M24.092,74.305h10.98"/>
<path fill="none" stroke="#4C4C4C" stroke-width="2" d="M35.072,79.316H59.27V63.218"/>
<path fill="#663333" stroke="#000000" stroke-width="2" d="M24.092,70.254H6.929v24.092h58.312v-2.025H9.061V72.28h15.031V70.254z"
	/>
<path fill="none" stroke="#CC9999" stroke-width="2" d="M23.026,71.321H7.995v22.066h56.286"/>
<path fill="none" stroke="#E5E5E5" stroke-width="2" d="M45.2,43.177V31.131h12.045"/>
<path fill="none" stroke="#E5E5E5" stroke-width="2" d="M24.092,74.305v-6.076h10.98"/>
<path fill="none" stroke="#E5E5E5" stroke-width="2" d="M35.072,79.316V63.218H59.27"/>
<path fill="none" stroke="#000000" stroke-width="2" d="M67.266,95.412h-5.971v-4.051h5.971"/>
<path fill="none" stroke="#4C4C4C" stroke-width="2" d="M13.005,57.248h4.051v-4.051h0.959v-5.97"/>
<path fill="none" stroke="#000000" stroke-width="2" d="M13.005,53.198h-0.959"/>
<path fill="none" stroke="#E5E5E5" stroke-width="2" d="M18.016,47.228h-5.97v5.97"/>
<path fill="none" stroke="#E5E5E5" stroke-width="2" d="M13.005,57.248v-4.051"/>
<path fill="#E5E5E5" d="M15.99,56.183v-2.985h-1.919v2.985H15.99z"/>
<path fill="none" stroke="#4C4C4C" stroke-width="2" d="M37.097,40.086v1.065H45.2"/>
<path fill="none" stroke="#000000" stroke-width="2" d="M31.127,19.085v3.944h16.098"/>
<path fill="none" stroke="#000000" stroke-width="2" d="M35.072,19.085v3.944"/>
<path fill="none" stroke="#000000" stroke-width="2" d="M39.123,19.085v3.944"/>
<path fill="none" stroke="#000000" stroke-width="2" d="M43.174,19.085v3.944"/>
<path fill="#FFFFFF" stroke="#000000" stroke-width="2" d="M42.321,19.085l-1.173-1.279v-1.599l1.173-1.173h1.6l1.279,1.173v1.599
	l-1.279,1.279H42.321z"/>
<path fill="#4C4C4C" d="M14.071,41.152h3.944v6.076h-3.944V41.152z"/>
<path fill="#4C4C4C" d="M35.072,40.086v-3.944h6.076v3.944H35.072z"/>
<path fill="#4C4C4C" d="M38.164,19.085v-4.051h1.919v4.051H38.164z"/>
<path fill="#4C4C4C" d="M34.112,19.085v-4.051h2.025v4.051H34.112z"/>
<path fill="#4C4C4C" d="M30.062,19.085v-4.051h2.025v4.051H30.062z"/>
<path fill="#CCCCCC" d="M42.214,15.994h1.919v1.065h-1.919V15.994z"/>
<path fill="none" stroke="#FF0000" stroke-width="2" d="M43.174,18.02l0.959-2.025"/>
<path fill="#333333" d="M15.031,12.05h7.995v19.081h-7.995V12.05z"/>
<path fill="#525252" d="M15.777,12.05h6.503v19.081h-6.503V12.05z"/>
<path fill="#737373" d="M16.63,12.05h5.01v19.081h-5.01V12.05z"/>
<path fill="#919191" d="M17.27,12.05h3.625v19.081H17.27V12.05z"/>
<path fill="#B2B2B2" d="M18.016,12.05h2.025v19.081h-2.025V12.05z"/>
<path fill="none" stroke="#000000" stroke-width="2" d="M15.031,12.05h7.995v19.081h-7.995V12.05"/>
<path fill="none" stroke="#7F7F7F" stroke-width="2" d="M51.808,10.025v21.106"/>
<path fill="none" stroke="#7F7F7F" stroke-width="2" d="M53.194,8.531v22.6"/>
<path fill="none" stroke="#FFFFFF" stroke-width="2" d="M20.041,8.531h33.153"/>
<path fill="none" stroke="#FFFFFF" stroke-width="2" d="M20.041,10.025h31.767"/>
<path fill="#663333" stroke="#000000" stroke-width="2" d="M18.016,12.05h2.025V5.014h-2.025V12.05z"/>
<path fill="#663333" stroke="#000000" stroke-width="2" d="M17.056,2.989H21v2.025h-3.944V2.989z"/>
<path fill="#999999" d="M42.534,69.295h9.274v4.37h-9.274V69.295z"/>
<path fill="#B2B2B2" stroke="#000000" stroke-width="2" d="M24.838,96.371h-1.599l-1.386-0.746L21,94.24v-1.599l0.853-1.493
	L21,88.803v-4.478h6.076v4.478l-0.853,2.345l0.853,1.493v1.599l-0.853,1.386L24.838,96.371z"/>
<path fill="#B2B2B2" stroke="#000000" stroke-width="2" d="M14.817,96.371h-1.599l-1.386-0.746L10.98,94.24v-1.599l0.853-1.493
	l-0.853-2.345v-4.478h6.076v4.478l-0.853,2.345l0.853,1.493v1.599l-0.853,1.386L14.817,96.371z"/>
<path fill="#7F7F7F" d="M24.838,96.371h-1.599l-1.386-0.746L21,94.24v-1.599l0.853-1.493L21,88.803h6.076l-0.853,2.345l0.853,1.493
	v1.599l-0.853,1.386L24.838,96.371z"/>
<path fill="#7F7F7F" d="M14.817,96.371h-1.599l-1.386-0.746L10.98,94.24v-1.599l0.853-1.493l-0.853-2.345h6.076l-0.853,2.345
	l0.853,1.493v1.599l-0.853,1.386L14.817,96.371z"/>
<circle fill="#B2B2B2" cx="23.559" cy="92.854" r="1.492"/>
<circle fill="#B2B2B2" cx="13.539" cy="92.854" r="1.492"/>
<path fill="#7F7F7F" d="M35.072,95.412v-2.025l4.051-1.066l-4.051-1.919v-3.091l4.051-1.919h4.052l4.051,1.919v3.091l-4.051,1.919
	l4.051,1.066v2.025H35.072z"/>
<path fill="#B2B2B2" d="M36.137,95.412v-2.025l3.412-1.066l-3.412-1.919v-3.091l3.412-1.919h3.197l3.412,1.919v3.091l-3.412,1.919
	l3.412,1.066v2.025H36.137z"/>
<path fill="#CCCCCC" d="M38.164,95.412v-2.025l1.919-1.066l-1.919-1.919v-3.091l1.919-1.919h2.132l1.919,1.919v3.091l-1.919,1.919
	l1.919,1.066v2.025H38.164z"/>
<path fill="none" stroke="#000000" stroke-width="2" d="M35.072,95.412v-2.025l4.051-1.066l-4.051-1.919v-3.091l4.051-1.919h4.052
	l4.051,1.919v3.091l-4.051,1.919l4.051,1.066v2.025H35.072"/>
<path fill="none" stroke="#000000" stroke-width="2" d="M39.123,92.321h4.052"/>
<path fill="none" stroke="#000000" stroke-width="2" d="M35.072,93.387h12.153"/>
</svg>
