<?xml version="1.0" encoding="utf-8"?>
<!-- Generator: Adobe Illustrator 14.0.0, SVG Export Plug-In . SVG Version: 6.00 Build 43363)  -->
<!DOCTYPE svg PUBLIC "-//W3C//DTD SVG 1.1//EN" "http://www.w3.org/Graphics/SVG/1.1/DTD/svg11.dtd">
<svg version="1.1" id="图层_1" xmlns="http://www.w3.org/2000/svg" xmlns:xlink="http://www.w3.org/1999/xlink" x="0px" y="0px"
	 width="136.224px" height="106.502px" viewBox="0 0 136.224 106.502" enable-background="new 0 0 136.224 106.502"
	 xml:space="preserve">
<path fill="#7F7F7F" d="M19.227,94.228V43.365H132.27v50.862H19.227z"/>
<path fill="#8A8A8A" d="M19.363,91.637V45.82H132.27v45.817H19.363z"/>
<path fill="#969696" d="M19.363,89.046V48.274H132.27v40.772H19.363z"/>
<path fill="#A1A1A1" d="M19.363,86.591V50.729H132.27v35.862H19.363z"/>
<path fill="#ADADAD" d="M19.363,84.137V53.32H132.27v30.817H19.363z"/>
<path fill="#B8B8B8" d="M19.363,81.546V55.774H132.27v25.772H19.363z"/>
<path fill="#C4C4C4" d="M19.363,79.091V58.365H132.27v20.727H19.363z"/>
<path fill="#CFCFCF" d="M19.363,76.5V60.82H132.27V76.5H19.363z"/>
<path fill="#DBDBDB" d="M19.363,74.046V63.41H132.27v10.636H19.363z"/>
<path fill="#E5E5E5" d="M19.227,71.592v-5.728H132.27v5.728H19.227z"/>
<path fill="none" stroke="#000000" stroke-width="2" d="M19.227,94.228V43.365H132.27v50.862H19.227"/>
<path fill="#7F7F7F" stroke="#000000" stroke-width="2" d="M22.227,102.682l2.728-8.454h101.725l2.863,8.454H22.227z"/>
<path fill="none" stroke="#000000" stroke-width="2" d="M30.681,85.773V68.728h14.045v17.045H30.681"/>
<path fill="#CCCCCC" stroke="#000000" stroke-width="2" d="M15.136,85.773V51.82h4.227v33.953H15.136z"/>
<path fill="#CCCCCC" stroke="#000000" stroke-width="2" d="M6.682,63.137V51.82h8.455v11.317H6.682z"/>
<path fill="#CCCCCC" stroke="#000000" stroke-width="2" d="M8.045,77.183v-5.591h7.091v5.591H8.045z"/>
<ellipse fill="#CCCCCC" stroke="#000000" stroke-width="2" cx="8.045" cy="77.183" rx="4.227" ry="5.591"/>
<path fill="#7F7F7F" d="M129.542,43.365h-8.59V3.821h8.59V43.365z"/>
<path fill="#A1A1A1" d="M128.588,43.229h-6.682V3.821h6.682V43.229z"/>
<path fill="#B8B8B8" d="M127.634,43.229h-4.773V3.821h4.773V43.229z"/>
<path fill="#CFCFCF" d="M126.679,43.229h-2.863V3.821h2.863V43.229z"/>
<path fill="#FFFFFF" d="M125.86,43.365h-1.091V3.821h1.091V43.365z"/>
<path fill="none" stroke="#000000" stroke-width="2" d="M129.542,43.365h-8.59V3.821h8.59V43.365"/>
</svg>
