<?xml version="1.0" encoding="utf-8"?>
<!-- Generator: Adobe Illustrator 14.0.0, SVG Export Plug-In . SVG Version: 6.00 Build 43363)  -->
<!DOCTYPE svg PUBLIC "-//W3C//DTD SVG 1.1//EN" "http://www.w3.org/Graphics/SVG/1.1/DTD/svg11.dtd">
<svg version="1.1" id="图层_1" xmlns="http://www.w3.org/2000/svg" xmlns:xlink="http://www.w3.org/1999/xlink" x="0px" y="0px"
	 width="106.502px" height="106.502px" viewBox="0 0 106.502 106.502" enable-background="new 0 0 106.502 106.502"
	 xml:space="preserve">
<path fill="#7F7F7F" stroke="#000000" stroke-width="2" d="M40.725,34.328l1.493-2.665l1.066-2.985l0.426-3.092l-0.32-3.731
	l-0.959-2.985l-1.386-2.771l-1.919-2.238l-2.239-2.026l-2.665-1.492l-2.878-0.96l-1.599-0.213l-1.6-0.106l-1.599,0.106l-3.091,0.746
	l-2.878,1.387l-2.666,1.705l-2.345,2.133l-2.132,2.132l-1.919,2.132l-2.452,2.879l-0.213,0.533l-0.107,0.532l0.107,0.64l1.386,3.306
	l1.813,2.665l1.919,2.452l1.599,1.919l-2.025,2.025l-2.026,2.025l-2.025,1.919l-0.427,0.427v50.106l0.853,2.984l2.132,2.239
	l2.878,1.173l4.904,0.106l4.265,0.106l4.158,0.213l4.158,0.32l4.158,0.319l4.158,0.427l4.051,0.427l4.158,0.426l4.051,0.427
	l4.157,0.427l4.051,0.319l4.158,0.32l4.158,0.319l4.264,0.213l4.158,0.214h2.133h2.238l2.879-1.386l2.345-2.026l1.706-2.345
	l1.386-3.198l0.214-2.985v-2.238h6.502l3.092-3.092l2.025-2.133l0.747-0.64l0.213-0.319v-1.066V46.907l-1.173-3.411l-2.771-2.238
	l-3.731-0.533H46.908l-2.026-2.025l-2.345-2.346L40.725,34.328z"/>
<path fill="#B2B2B2" stroke="#000000" stroke-width="2" d="M34.328,40.725l1.706-2.665l1.066-3.092l0.426-3.198l-0.32-3.838
	l-0.853-2.879l-1.492-2.665l-1.919-2.239l-2.346-1.919l-2.665-1.492l-2.985-0.853l-1.599-0.214l-1.599-0.106l-1.599,0.106
	l-3.091,0.533l-2.772,1.173l-2.452,1.706l-2.132,2.132l-1.6,2.452l-1.279,2.771L6.29,29.531v3.519l0.64,3.198l1.172,2.878l0.959,1.6
	L6.93,42.963l-2.346,2.346l-0.853,0.746l-0.747,0.853v1.6v48.827l1.173,3.198l2.772,2.346l1.066,0.426l1.066,0.106h2.239h66.951
	l2.878-0.853l2.346-2.025l1.173-2.665v-2.985v-7.249h11.833h0.853v-1.066V53.305l-0.853-2.879l-2.132-2.346l-2.879-1.173h-3.73
	H40.725l-2.025-2.025l-2.346-2.345L34.328,40.725z"/>
<path stroke="#000000" stroke-width="2" d="M9.062,70.469h26.866v20.362H9.062V70.469z"/>
<path fill="#7F7F7F" stroke="#000000" stroke-width="2" d="M9.062,90.831l1.706-1.6V72.068h23.561l1.599-1.599H9.062V90.831z"/>
<path fill="#E5E5E5" stroke="#000000" stroke-width="2" d="M35.927,70.469l-1.599,1.599v17.164H10.768l-1.386,1.6h26.545V70.469z"/>
<path fill="#E5E5E5" stroke="#000000" stroke-width="2" d="M72.068,73.667l3.198-3.198h12.366l-2.984,3.198H72.068z"/>
<path fill="#7F7F7F" stroke="#000000" stroke-width="2" d="M84.648,86.246l2.984-3.198V70.469l-2.984,3.198V86.246z"/>
<path fill="#7F7F7F" stroke="#000000" stroke-width="2" d="M84.648,72.068l1.599-1.599V6.183l-1.599,1.6V72.068z"/>
<path fill="#7F7F7F" stroke="#000000" stroke-width="2" d="M59.488,18.763l3.198-3.198V2.985l-3.198,3.198V18.763z"/>
<path fill="none" stroke="#000000" stroke-width="2" d="M34.328,40.725l6.396-6.396"/>
<path fill="none" stroke="#000000" stroke-width="2" d="M40.725,46.907l6.184-6.183"/>
<path fill="none" stroke="#000000" stroke-width="2" d="M90.832,46.907l6.502-6.183"/>
<path fill="none" stroke="#000000" stroke-width="2" d="M97.333,53.305l6.077-6.397"/>
<path fill="#FF0000" d="M25.479,89.232h0.32h0.533h0.533h2.026h1.493l1.386-0.106h1.173l0.959-0.106h0.106l0.213-1.173l0.213-1.066
	v-0.853l-0.213-1.173l-0.427-0.96l-0.959-0.746l-0.746-0.64l-0.213-0.959l-0.32-1.386l-0.32-1.387l-0.32-1.492l-0.32-1.386
	l-0.64,1.279l-0.426,1.279l-0.533,0.959l-0.32,0.214h-0.533l-0.319-0.214l-0.64-0.959l-0.426-1.279l-0.533-1.279l-0.106-1.066
	l-0.213-1.279l-0.426-0.853l-0.533-0.533v1.6l-0.106,1.279l-0.213,0.959l-0.32,0.96l-0.213,0.213h-0.107l-0.106-0.213l-0.426-0.96
	l-0.427-0.853h-0.106l-0.32,1.173l-0.213,0.959l-0.32,0.96l-0.533,0.959h-0.213l-0.213-1.386l-0.106-1.279l-0.213-1.492l-0.64-0.854
	l-0.746-0.64l-0.32-0.213l-0.32-1.173l-0.853,0.746l-0.853,1.386l-0.427,1.279v1.6v1.813l0.107,1.492l0.213,1.066l-0.32,1.065
	l-0.533,0.107l-0.32-0.107l-0.533-1.172l-0.32-0.747l-0.746-0.853l-1.066-0.959l-0.106,1.065l-0.213,1.066l-0.426,1.706
	l-0.426,1.279l-0.427,1.173l-0.32,0.853l-0.32,0.853l-0.106,0.854l-0.106,0.319l0.106,0.533l1.386,0.64l1.706,0.106h1.706h1.066
	h0.959l1.066-0.106l0.959-0.213l1.066-0.214l1.279,0.106l1.173,0.214l1.172,0.106L25.479,89.232z"/>
<path fill="#CC3300" d="M25.799,89.019h1.066l1.706-0.106l1.599-0.107l1.173-0.319l0.959-0.32l1.172-0.213l0.32-0.106l0.427-0.533
	v-0.319v-0.427l-0.64-1.386l-0.64-0.854l-0.747-1.065l-1.066-1.279l-0.32-1.173l-0.213-1.173l-0.32-1.279l-0.32-1.173l-0.32,0.96
	l-0.426,1.172l-0.533,0.96l-0.213,0.213l-0.32,0.106l-0.853-0.746l-0.533-1.065l-0.533-1.173l-0.213-0.427l-0.107-1.066l0.107-1.386
	l-0.427-0.959l-0.426-0.64v1.492l-0.213,1.173l-0.213,0.959L24.2,77.824l-0.213,0.213l-0.213,0.107l-0.213-0.107l-0.213-0.959
	l-0.213-0.533l-0.107-0.106h-0.106l-0.533,1.066l-0.32,1.065l-0.426,0.96l-0.213,0.106h-0.213l-0.64-1.066l0.106-1.279l-0.213-1.173
	l-0.533-1.172l-0.64-0.854l-0.427-0.959l-0.106-0.746l-0.426,0.426l-0.64,0.746l-0.427,0.854l-0.32,0.853l-0.213,1.279l0.213,1.173
	l0.213,1.066v1.705l0.213,1.279l0.106,0.854l-0.32,0.746h-0.533l-0.533-0.106l-0.747-0.96l-0.746-1.279l-0.959-1.173l-0.213,0.96
	l-0.426,1.492l-0.533,1.066l-0.213,1.279l0.106,0.853l-0.959,0.96l-0.213,0.426l-0.106,0.427l0.106,0.32l0.853,0.853l0.959,0.319
	l1.173,0.214h0.64h0.64h1.172l0.959-0.214l1.279-0.213l1.279-0.106h1.386l1.492,0.106l1.386,0.213L25.799,89.019z"/>
<path fill="#FF6600" d="M28.998,88.486l0.32-0.32l1.173-0.319l1.279-0.213l0.853-0.427l0.106-0.32l0.213-0.746l-0.107-0.64
	l-0.533-1.279l-0.533-0.64l-0.64-0.746l-0.853-0.853l-0.746-1.066l-0.959,0.427l-0.959,0.64l-0.533-1.066l-0.213-1.066l-0.106-0.213
	l-0.64-0.853l-0.746-0.854l-0.427-0.533l-0.32,1.279l-0.32,0.96l-0.426,0.959l-0.213-1.172l-0.32-1.173l-0.32-0.96l-0.213-0.106
	l-0.32,0.746l0.106,0.854l0.213,0.959l0.213,0.96l0.32,0.853l0.213,1.386l-0.213,0.427l-0.746-0.214l-0.32-0.532v-1.706l0.213-1.386
	l-0.213-0.214l-0.853,0.533h-0.32l-0.213-0.106l-0.213-0.959l-0.533-0.747l-0.426-1.279l-0.213-0.64l-0.64-0.746l-0.64-0.533v-0.106
	v0.64l-0.213,0.96l-0.32,0.853l-0.213,0.96v1.065l0.32,0.96l0.213,0.959l0.106,1.279l-0.213,0.64l-0.853,0.64l-0.747,0.214
	l-0.959-0.854l-0.64-0.64l-0.746-0.959l-0.32,1.386l-0.426,1.173l-0.533,1.279l-0.533,1.279l-0.32,0.959v0.32l0.107,0.106
	l0.106,0.106l0.853-0.426l0.32,0.746l0.533,0.426l1.173,0.107l1.173-0.32l1.279,0.106l1.066-0.106l1.066-0.106h1.066h1.386h1.279
	l1.066,0.106l1.173,0.106h1.173l0.746,0.106l0.32,0.107h0.426L28.998,88.486z"/>
<path fill="#FFCC00" d="M28.358,87.846l0.32-0.32l1.173-0.213h1.279l1.066-0.106l0.213-0.32l-0.64-0.532l-0.106-0.32l0.32-0.64
	l0.106-0.533l-0.32-0.746l-0.959-1.066l-1.599-1.599l-0.64,0.64l-0.64,0.746l-0.959,0.533l-0.213-0.32l-0.213-1.386l-0.213-1.066
	l-0.107-0.319l-0.213-0.213l-0.213,0.106l-0.533,0.959l-0.213,0.214l-0.213,0.106h-0.213l-0.533-0.214h-0.107l-0.106,1.066
	l0.106,0.96l-0.106,0.853l-0.959,0.319h-0.426l-0.853-0.746l-0.213-0.319l0.32-1.279l0.213-0.96v-0.213h-0.213l-0.853-0.533
	l-0.853-0.746l-0.213-0.64l-0.426-0.853l-0.32-0.854l-0.106-0.106h-0.213l-0.106,1.386v3.198l-0.107,1.279l-0.426,0.854l-0.32,0.426
	l-0.959,0.106l-1.386-0.106l-0.747-0.213l-0.213-0.213l-0.427,0.959l-0.106,0.854l-0.106,0.319l-0.213,0.213l-0.64,0.32
	l-0.213,0.213v0.32l0.213,0.426l0.64,0.64l1.279,0.107h1.279l0.959,0.106h1.493l1.386-0.106l1.279-0.107h1.173l0.959,0.214
	l1.172,0.106h0.533h0.426h0.32l0.959-0.213l1.279-0.214L28.358,87.846z"/>
<path fill="#FFFF00" d="M31.13,86.567l-0.106,0.106l-0.959,0.213L28.891,87.1l-1.066,0.319l-0.213,0.214l-1.173,0.319l-0.959,0.213
	h-0.32l-0.32,0.107h-0.213l-1.066-0.32l-1.066-0.319h-1.599l-1.173,0.106H17.59l-1.066-0.106h-1.066l-1.173-0.107l-0.213-0.106
	l-0.106-0.106l0.533-0.319l0.426-0.64v-0.96v-0.213l0.106-0.214l0.853,0.214l0.959,0.106h1.173l0.746-0.427l0.32-1.066v-1.065
	v-1.066l-0.106-1.066l0.106-1.279l0.106-0.319l0.107-0.213l0.533,0.746l0.64,1.492l0.32,1.6l0.213,1.065l0.64,0.854l0.853,0.64
	l1.066-0.106l0.853-0.427l0.106-0.214l0.106-1.386l0.107-0.746l0.106-0.213l0.746,0.64l0.533,0.746l0.533,1.066l0.106,0.106
	l1.173-0.533l0.853-0.533l0.959-0.533l-0.32,0.96l0.106,0.746l0.32,0.64l0.853,0.64l0.32,0.213l0.213,0.107L31.13,86.567z"/>
<path fill="#FFFF66" d="M20.682,87.313l0.32-0.213l0.64-0.106l0.106-0.427l-0.32-0.213l-0.533-1.173l-0.32-0.747l-0.32-0.853
	l-0.427-1.599l-0.32-0.533v1.492l-0.106,1.6l-0.213,1.386l-0.106,0.319l-1.279-0.213l-1.173-0.319l-0.106,0.959l-0.64,0.533
	l-0.106,0.106l0.959,0.213h1.492l1.493-0.106L20.682,87.313z"/>
<path fill="#FFFF66" d="M25.479,87.846L25.479,87.846h-0.213H25.16h-0.213l-0.853-0.427l-1.279-0.426l-0.213-0.107l-0.106-0.319
	h0.746l0.959-0.64l0.533-0.96l0.426-0.959l0.32-0.427l0.106,0.213l0.427,1.066l0.426,0.854l0.32,0.532l1.066-0.213l1.066-0.319
	l0.32-0.214l-0.106,0.32l-0.533,0.746L27.718,87.1l-0.64,0.533l-0.959,0.213H25.479z"/>
<path fill="#E5E5E5" stroke="#000000" stroke-width="2" d="M60.341,7.782l1.599-1.6h24.307l-1.599,1.6H60.341z"/>
<path fill="#E5E5E5" stroke="#000000" stroke-width="2" d="M46.908,6.183l3.198-3.198h12.58l-3.198,3.198H46.908z"/>
<path fill="#B2B2B2" stroke="#000000" stroke-width="2" d="M72.068,73.667h12.58v12.579h-12.58V73.667z"/>
<path fill="#B2B2B2" stroke="#000000" stroke-width="2" d="M75.266,15.352v56.716h9.382V7.462H60.341v7.89H75.266z"/>
<path fill="#B2B2B2" stroke="#000000" stroke-width="2" d="M46.908,6.183h12.58v12.58h-12.58V6.183z"/>
</svg>
