<?xml version="1.0" encoding="utf-8"?>
<!-- Generator: Adobe Illustrator 14.0.0, SVG Export Plug-In . SVG Version: 6.00 Build 43363)  -->
<!DOCTYPE svg PUBLIC "-//W3C//DTD SVG 1.1//EN" "http://www.w3.org/Graphics/SVG/1.1/DTD/svg11.dtd">
<svg version="1.1" id="图层_1" xmlns="http://www.w3.org/2000/svg" xmlns:xlink="http://www.w3.org/1999/xlink" x="0px" y="0px"
	 width="64.563px" height="106.502px" viewBox="0 0 64.563 106.502" enable-background="new 0 0 64.563 106.502"
	 xml:space="preserve">
<path fill="#CCCCCC" d="M2.881,2.882h54.531v94.336v1.174h-2.027v3.948h2.027v1.28H2.881v-1.28h2.027v-3.948H2.881V2.882z"/>
<path fill="#C7C7C7" d="M2.881,55.599l54.531-22.41v64.989H2.881V55.599z"/>
<path fill="#C2C2C2" d="M2.881,58.8l54.531-23.264v62.642H2.881V58.8z"/>
<path fill="#BDBDBD" d="M2.881,62.002l54.531-23.478v59.653H2.881V62.002z"/>
<path fill="none" stroke="#FFFFFF" stroke-width="2" d="M55.385,4.909v92.309H4.908"/>
<path fill="none" stroke="#999999" stroke-width="2" d="M55.385,4.909H4.908v92.309"/>
<path fill="#7F7F7F" d="M6.082,98.178h48.022v4.162H6.082V98.178z"/>
<path fill="none" stroke="#000000" stroke-width="2" d="M2.881,2.882h54.531v94.336v1.174h-2.027v3.948h2.027v1.28H2.881v-1.28
	h2.027v-3.948H2.881V2.882"/>
<path fill="#333333" d="M6.082,98.178h48.022v1.174H6.082V98.178z"/>
<path fill="#B2B2B2" stroke="#000000" stroke-width="2" d="M38.524,72.567h7.79v7.79h-7.79V72.567z"/>
<path fill="#7F7F7F" d="M6.51,76.729h7.47v11.098H6.51V76.729z"/>
<path fill="none" stroke="#B2B2B2" stroke-width="2" d="M7.15,80.997h6.189"/>
<path fill="#666666" stroke="#000000" stroke-width="2" d="M13.98,77.795h9.391v2.135H13.98V77.795z"/>
<path fill="#999999" stroke="#000000" stroke-width="2" d="M26.892,77.795h11.632v2.135H26.892V77.795z"/>
<path fill="#B2B2B2" d="M13.98,78.542h9.391v0.641H13.98V78.542z"/>
<path fill="#CCCCCC" d="M26.892,78.542h11.632v0.641H26.892V78.542z"/>
<path fill="#B2B2B2" stroke="#000000" stroke-width="2" d="M23.37,76.729h3.521v4.269H23.37V76.729z"/>
<path fill="none" stroke="#000000" stroke-width="2" d="M24.971,76.729v4.269"/>
<path fill="#7F7F7F" d="M30.734,65.737h7.257v10.992h-7.257V65.737z"/>
<path fill="none" stroke="#FFFFFF" stroke-width="2" d="M30.734,76.729V65.737h7.257"/>
<path fill="none" stroke="#000000" stroke-width="2" d="M30.734,76.729h7.257V65.737"/>
<path fill="#CCCCCC" d="M36.283,72.567V55.705h25.291v16.861H36.283z"/>
<path fill="#E5E5E5" d="M36.283,55.705l0.64-4.161h24.011l0.641,4.161H36.283z"/>
<path fill="none" stroke="#000000" stroke-width="2" d="M36.283,72.567V55.705l0.64-4.161h24.011l0.641,4.161v16.861H36.283"/>
<path fill="#4C4C4C" d="M32.121,55.705h4.162v9.071h-4.162V55.705z"/>
<path fill="#666666" d="M32.121,56.987h4.162v6.829h-4.162V56.987z"/>
<path fill="#7F7F7F" d="M32.121,57.947h4.162v4.589h-4.162V57.947z"/>
<path fill="#999999" d="M32.121,59.014h4.162v2.561h-4.162V59.014z"/>
<path fill="none" stroke="#000000" stroke-width="2" d="M32.121,55.705h4.162v9.071h-4.162V55.705"/>
<path fill="#4C4C4C" d="M55.171,55.385l-0.427-3.201h5.442l0.32,3.201H55.171z"/>
<path fill="none" stroke="#000000" stroke-width="2" d="M50.583,19.742v2.882v5.122l0.213,4.375l0.106,3.842l0.214,3.095
	l0.427,3.842l0.533,2.774l1.067,2.988l2.027,2.027l1.174,0.854"/>
<path fill="none" stroke="#000000" stroke-width="2" d="M14.94,87.826l2.775-0.106l2.454-0.427l2.134-0.747l1.814-1.067l1.494-1.174
	l1.28-1.494l1.174-1.493l0.961-1.602l0.854-1.601l0.854-1.601l0.747-1.387l0.747-1.281l0.854-1.067l0.961-0.746l1.067-0.428
	l1.174-0.106"/>
<path fill="none" stroke="#000000" stroke-width="2" d="M17.501,7.151l1.921,0.106l1.814,0.214l1.707,0.106l1.494,0.106l1.494,0.106
	l1.494,0.107h1.28H30.2h1.387h1.281l1.494-0.107l1.493-0.106l1.494-0.106l1.708-0.106l1.813-0.214l1.814-0.106"/>
<path d="M11.312,7.151h6.189v4.162h-6.189V7.151z"/>
<path fill="#C7C7C7" d="M42.686,16.328l10.458-5.016v8.43H42.686V16.328z"/>
<path fill="none" stroke="#FFFFFF" stroke-width="2" d="M39.591,79.397v-5.87h5.763"/>
<path fill="none" stroke="#FFFFFF" stroke-width="2" d="M42.686,19.742V7.151h10.458"/>
<path fill="none" stroke="#FFFFFF" stroke-width="2" d="M11.312,11.313V7.151h6.189"/>
<path fill="none" stroke="#FFFFFF" stroke-width="2" d="M6.51,87.826V76.729h7.47"/>
<path fill="none" stroke="#FFFFFF" stroke-width="2" d="M49.516,56.987v2.027"/>
<path fill="none" stroke="#999999" stroke-width="2" d="M42.686,19.742h10.458V7.151"/>
<path fill="none" stroke="#999999" stroke-width="2" d="M39.591,79.397h5.763v-5.87"/>
<path fill="none" stroke="#999999" stroke-width="2" d="M48.982,56.987v2.027"/>
<path fill="none" stroke="#000000" stroke-width="2" d="M53.144,55.385h-15.58"/>
<path fill="none" stroke="#000000" stroke-width="2" d="M53.144,54.745h-15.58"/>
<path fill="none" stroke="#000000" stroke-width="2" d="M53.144,53.784h-15.58"/>
<path fill="none" stroke="#000000" stroke-width="2" d="M53.144,52.718h-15.58"/>
<path fill="none" stroke="#000000" stroke-width="2" d="M6.51,87.826h7.47V76.729"/>
<path fill="none" stroke="#000000" stroke-width="2" d="M7.15,80.357h6.189"/>
<path fill="#666666" stroke="#000000" stroke-width="2" d="M7.15,90.388h13.02v2.134H7.15V90.388z"/>
<path fill="#666666" stroke="#000000" stroke-width="2" d="M12.272,86.76h2.668v3.628h-2.668V86.76z"/>
<path fill="#7F7F7F" stroke="#000000" stroke-width="2" d="M12.699,96.577l-1.388-1.388v-2.24l1.388-1.602h2.24l1.602,1.602v2.24
	l-1.602,1.388H12.699z"/>
</svg>
