<?xml version="1.0" encoding="utf-8"?>
<!-- Generator: Adobe Illustrator 14.0.0, SVG Export Plug-In . SVG Version: 6.00 Build 43363)  -->
<!DOCTYPE svg PUBLIC "-//W3C//DTD SVG 1.1//EN" "http://www.w3.org/Graphics/SVG/1.1/DTD/svg11.dtd">
<svg version="1.1" id="图层_1" xmlns="http://www.w3.org/2000/svg" xmlns:xlink="http://www.w3.org/1999/xlink" x="0px" y="0px"
	 width="144.749px" height="96.164px" viewBox="0 0 144.749 96.164" enable-background="new 0 0 144.749 96.164"
	 xml:space="preserve">
<path fill="#336666" stroke="#000000" stroke-width="2" d="M124.589,77.307h14.504v14.794h-14.504V77.307z"/>
<path fill="#336666" stroke="#000000" stroke-width="2" d="M114.725,16.246h2.466V32.78h-2.466V16.246z"/>
<path fill="#003333" d="M5.657,82.238h107.474v3.191H5.657V82.238z"/>
<path fill="#336666" d="M4.061,13.925V4.063h20.16v9.862H4.061z"/>
<path fill="#336666" d="M114.725,13.925v68.313H4.061V13.925H114.725z"/>
<path fill="#407373" d="M4.061,17.406h110.664v61.207H4.061V17.406z"/>
<path fill="#407373" d="M5.076,13.925V4.063h18.42v9.862H5.076z"/>
<path fill="#4C7F7F" d="M6.237,13.925V4.063h15.809v9.862H6.237z"/>
<path fill="#4C7F7F" d="M4.061,21.322h110.664v53.52H4.061V21.322z"/>
<path fill="#598C8C" d="M4.061,24.803h110.664v46.558H4.061V24.803z"/>
<path fill="#598C8C" d="M7.252,13.925V4.063h13.634v9.862H7.252z"/>
<path fill="#669999" d="M8.412,13.925V4.063H19.87v9.862H8.412z"/>
<path fill="#669999" d="M4.061,28.574h110.664v38.871H4.061V28.574z"/>
<path fill="#73A6A6" d="M4.061,32.2h110.664v31.764H4.061V32.2z"/>
<path fill="#73A6A6" d="M9.427,13.925V4.063h9.282v9.862H9.427z"/>
<path fill="#7FB2B2" d="M10.588,13.925V4.063h7.397v9.862H10.588z"/>
<path fill="#7FB2B2" d="M4.061,35.826h110.664v24.512H4.061V35.826z"/>
<path fill="#8CBFBF" d="M4.061,39.597h110.664v16.969H4.061V39.597z"/>
<path fill="#8CBFBF" d="M11.603,13.925V4.063h4.932v9.862H11.603z"/>
<path fill="#99CCCC" d="M12.763,13.925V4.063h3.046v9.862H12.763z"/>
<path fill="#99CCCC" d="M4.061,43.078h110.664v9.863H4.061V43.078z"/>
<path fill="#99CCCC" d="M4.061,85.429h130.1v6.672H4.061V85.429z"/>
<path fill="none" stroke="#000000" stroke-width="2" d="M4.061,13.925h110.664v68.313H4.061V13.925"/>
<path fill="none" stroke="#000000" stroke-width="2" d="M4.061,13.925V4.063h20.16v9.862H4.061"/>
<path fill="#669999" d="M4.061,87.169h130.1v3.336H4.061V87.169z"/>
<path fill="none" stroke="#000000" stroke-width="2" d="M4.061,85.429h130.1v6.672H4.061V85.429"/>
<path fill="#669999" stroke="#000000" stroke-width="2" d="M104.137,85.429l0.726-8.992h2.466l0.87,8.992H104.137z"/>
<path fill="#669999" stroke="#000000" stroke-width="2" d="M10.588,85.429l0.87-8.992h2.466l0.726,8.992H10.588z"/>
<path fill="#336666" d="M114.725,64.398h3.336v3.336h11.168v-3.336l1.596-2.465l1.74,2.465v3.336h8.122v5.657h-8.122v3.046
	l-1.74,2.465l-1.596-2.465v-3.046h-11.168v3.046h-3.336V64.398z"/>
<path fill="#669999" d="M114.725,66.139h3.336v2.466h11.168v-2.466l1.596-1.741l1.74,1.741v2.466h8.122v4.061h-8.122v2.176
	l-1.74,1.596l-1.596-1.596v-2.176h-11.168v2.176h-3.336V66.139z"/>
<path fill="#99CCCC" d="M114.725,68.025h3.336v1.305h11.168v-1.305l1.596-1.16l1.74,1.16v1.305h8.122v2.466h-8.122v1.45l-1.74,0.726
	l-1.596-0.726v-1.45h-11.168v1.45h-3.336V68.025z"/>
<path fill="none" stroke="#000000" stroke-width="2" d="M114.725,64.398h3.336v3.336h11.168v-3.336l1.596-2.465l1.74,2.465v3.336
	h8.122v5.657h-8.122v3.046l-1.74,2.465l-1.596-2.465v-3.046h-11.168v3.046h-3.336V64.398"/>
<path fill="#99CCCC" stroke="#000000" stroke-width="2" d="M121.253,66.865h14.648v14.504h-14.648V66.865z"/>
<path fill="none" stroke="#003333" stroke-width="2" d="M95.145,14.65v66.719"/>
<path fill="none" stroke="#CCFFFF" stroke-width="2" d="M87.169,54.681V41.482h5.511"/>
<path fill="none" stroke="#336666" stroke-width="2" d="M87.169,54.681h5.511V41.482"/>
<path fill="none" stroke="#99CCCC" stroke-width="2" d="M87.169,33.505v-9.718h5.511"/>
<path fill="none" stroke="#003333" stroke-width="2" d="M87.169,33.505h5.511v-9.718"/>
<path fill="#336666" d="M87.169,33.505h5.511v0.87h-5.511V33.505z"/>
<path fill="#669999" d="M30.023,82.238h97.901v2.467H30.023V82.238z"/>
<path fill="#CCFFFF" d="M30.023,83.253h97.901v0.58H30.023V83.253z"/>
<path fill="none" stroke="#000000" stroke-width="2" d="M30.023,82.238h97.901v2.467H30.023V82.238"/>
<path fill="#669999" stroke="#000000" stroke-width="2" d="M85.427,81.369h4.642v4.061h-4.642V81.369z"/>
<path fill="#669999" d="M74.84,81.369h4.932v4.061H74.84V81.369z"/>
<path fill="#669999" d="M64.107,81.369h5.076v4.061h-5.076V81.369z"/>
<path fill="#669999" d="M53.809,81.369h4.642v4.061h-4.642V81.369z"/>
<path fill="#669999" stroke="#000000" stroke-width="2" d="M43.077,81.369h4.931v4.061h-4.931V81.369z"/>
<path fill="#CCFFFF" d="M85.427,82.963h4.642v0.87h-4.642V82.963z"/>
<path fill="#CCFFFF" d="M74.84,82.963h4.932v0.87H74.84V82.963z"/>
<path fill="#CCFFFF" d="M64.107,82.963h5.076v0.87h-5.076V82.963z"/>
<path fill="#CCFFFF" d="M53.809,82.963h4.642v0.87h-4.642V82.963z"/>
<path fill="#CCFFFF" d="M43.077,82.963h4.931v0.87h-4.931V82.963z"/>
<path fill="none" stroke="#000000" stroke-width="2" d="M53.809,81.369h4.642v4.061h-4.642V81.369"/>
<path fill="none" stroke="#000000" stroke-width="2" d="M64.107,81.369h5.076v4.061h-5.076V81.369"/>
<path fill="none" stroke="#000000" stroke-width="2" d="M74.84,81.369h4.932v4.061H74.84V81.369"/>
<path fill="#003333" d="M133.291,73.971h1.74v1.595h-1.74V73.971z"/>
<path fill="none" stroke="#000000" stroke-width="2" d="M118.061,67.734v5.657"/>
<path fill="#003333" d="M56.275,10.589h0.87v3.336h-0.87V10.589z"/>
<path fill="#003333" d="M68.313,10.589h0.87v3.336h-0.87V10.589z"/>
</svg>
