<?xml version="1.0" encoding="utf-8"?>
<!-- Generator: Adobe Illustrator 14.0.0, SVG Export Plug-In . SVG Version: 6.00 Build 43363)  -->
<!DOCTYPE svg PUBLIC "-//W3C//DTD SVG 1.1//EN" "http://www.w3.org/Graphics/SVG/1.1/DTD/svg11.dtd">
<svg version="1.1" id="图层_1" xmlns="http://www.w3.org/2000/svg" xmlns:xlink="http://www.w3.org/1999/xlink" x="0px" y="0px"
	 width="88.913px" height="106.502px" viewBox="0 0 88.913 106.502" enable-background="new 0 0 88.913 106.502"
	 xml:space="preserve">
<path fill="#4C4C4C" stroke="#000000" stroke-width="2" d="M35.714,93.39h7.463v5.01h-7.463V93.39z"/>
<path fill="#B2B2B2" stroke="#000000" stroke-width="2" d="M38.167,25.48h46.588v70.361H38.167V25.48z"/>
<path fill="#CCCCCC" d="M2.985,2.985h35.181V98.4H2.985V2.985z"/>
<path fill="#C7C7C7" d="M2.985,40.298l35.181-21.854V98.4H2.985V40.298z"/>
<path fill="#C2C2C2" d="M2.985,55.224l35.181-22.068V98.4H2.985V55.224z"/>
<path fill="#BDBDBD" d="M2.985,73.453l35.181-21.854V98.4H2.985V73.453z"/>
<path fill="none" stroke="#000000" stroke-width="2" d="M2.985,2.985h35.181V98.4H2.985V2.985"/>
<path fill="none" stroke="#999999" stroke-width="2" d="M2.985,15.458h35.181"/>
<path fill="none" stroke="#999999" stroke-width="2" d="M38.167,85.714H2.985"/>
<path fill="none" stroke="#999999" stroke-width="2" d="M7.996,85.714V15.458"/>
<path fill="none" stroke="#999999" stroke-width="2" d="M33.156,15.458v70.256"/>
<path fill="none" stroke="#999999" stroke-width="2" d="M20.683,85.714V15.458"/>
<path fill="#7F7F7F" d="M18.23,52.558l0.533-1.705h1.279l0.64,1.705l-0.64,0.64l-0.64,5.011l-0.64-5.011L18.23,52.558z"/>
<path fill="#999999" stroke="#000000" stroke-width="2" d="M2.985,103.41h82.942V98.4H2.985V103.41z"/>
<path fill="#B2B2B2" d="M5.544,5.33h7.463v7.676H5.544V5.33z"/>
<path fill="#B2B2B2" d="M15.565,5.33h10.128v7.676H15.565V5.33z"/>
<path fill="#B2B2B2" d="M28.252,5.33h7.462v7.676h-7.462V5.33z"/>
<path fill="#B2B2B2" d="M5.544,88.379h7.463v7.462H5.544V88.379z"/>
<path fill="#B2B2B2" d="M15.565,88.379h10.128v7.462H15.565V88.379z"/>
<path fill="#B2B2B2" d="M28.252,88.379h7.462v7.462h-7.462V88.379z"/>
<path fill="none" stroke="#4C4C4C" stroke-width="2" d="M44.776,35.501v17.696"/>
<path fill="none" stroke="#4C4C4C" stroke-width="2" d="M48.828,35.501v17.696"/>
<path fill="none" stroke="#4C4C4C" stroke-width="2" d="M52.772,35.501v17.696"/>
<path fill="none" stroke="#4C4C4C" stroke-width="2" d="M56.824,35.501v17.696"/>
<path fill="#666666" d="M40.725,28.038h20.149v7.463H40.725V28.038z"/>
<path fill="none" stroke="#FFFFFF" stroke-width="2" d="M40.725,35.501v-7.463h20.149"/>
<path fill="none" stroke="#000000" stroke-width="2" d="M40.725,35.501h20.149v-7.463"/>
<path fill="#CCCCCC" stroke="#000000" stroke-width="2" d="M40.725,53.198h37.633V98.4H40.725V53.198z"/>
<path fill="none" stroke="#E5E5E5" stroke-width="2" d="M43.177,97.228V60.66h32.729"/>
<path fill="none" stroke="#999999" stroke-width="2" d="M43.177,97.228h32.729V60.66"/>
<path fill="#999999" d="M48.187,55.543h22.709v1.492H48.187V55.543z"/>
<path fill="#CCCCCC" stroke="#000000" stroke-width="2" d="M78.358,95.841h6.396l1.173,2.559h-7.569V95.841z"/>
<path fill="#E5E5E5" d="M72.068,39.339h7.676v11.193h-7.676V39.339z"/>
<path fill="#E5CB98" d="M72.068,39.339h7.676v-3.838h-7.676V39.339z"/>
<path fill="#FF4C4C" d="M23.028,34.328h7.676V30.49h-7.676V34.328z"/>
<path fill="#E5E5E5" d="M24.414,35.501h5.117v1.386h-5.117V35.501z"/>
<path fill="#333333" d="M24.414,29.318h5.117v-7.463h-5.117V29.318z"/>
<circle cx="68.337" cy="30.597" r="3.625"/>
<circle cx="77.079" cy="30.49" r="3.838"/>
<circle fill="#E5E5E5" cx="77.185" cy="30.597" r="3.305"/>
<circle fill="#E5E5E5" cx="68.337" cy="30.597" r="3.305"/>
</svg>
