<?xml version="1.0" encoding="utf-8"?>
<!-- Generator: Adobe Illustrator 14.0.0, SVG Export Plug-In . SVG Version: 6.00 Build 43363)  -->
<!DOCTYPE svg PUBLIC "-//W3C//DTD SVG 1.1//EN" "http://www.w3.org/Graphics/SVG/1.1/DTD/svg11.dtd">
<svg version="1.1" id="图层_1" xmlns="http://www.w3.org/2000/svg" xmlns:xlink="http://www.w3.org/1999/xlink" x="0px" y="0px"
	 width="135.879px" height="106.502px" viewBox="0 0 135.879 106.502" enable-background="new 0 0 135.879 106.502"
	 xml:space="preserve">
<path fill="#004C7F" stroke="#000000" stroke-width="2" d="M11.697,73.314h16.186l5.168,13.193H11.697V73.314z"/>
<path fill="#4CB2E5" d="M35.772,6.531h96.162v93.441H35.772V6.531z"/>
<path fill="#47ADE0" d="M35.772,72.906l96.162-39.036v66.103H35.772V72.906z"/>
<path fill="#42A8DB" d="M35.772,76.85l96.162-39.036v62.158H35.772V76.85z"/>
<path fill="#3DA3D6" d="M35.772,82.563l96.162-39.036v56.445H35.772V82.563z"/>
<path fill="#3DA3D6" stroke="#000000" stroke-width="2" d="M3.809,102.693h128.125v-2.721H3.809V102.693z"/>
<path fill="none" stroke="#000000" stroke-width="2" d="M35.772,6.531h96.162v93.441H35.772V6.531"/>
<path fill="#006699" stroke="#000000" stroke-width="2" d="M30.331,22.444h5.441v37.404h-5.441V22.444z"/>
<path fill="none" stroke="#006699" stroke-width="2" d="M67.871,6.531v93.441"/>
<path fill="none" stroke="#006699" stroke-width="2" d="M99.971,6.531v93.441"/>
<path fill="#4CB2E5" stroke="#000000" stroke-width="2" d="M8.977,65.153h10.745v21.354H8.977V65.153z"/>
<circle fill="#4CB2E5" stroke="#000000" stroke-width="2" cx="26.523" cy="77.258" r="6.529"/>
<path fill="#3399CC" stroke="#000000" stroke-width="2" d="M11.697,86.507h21.354v8.16H11.697V86.507z"/>
<path fill="#003366" stroke="#000000" stroke-width="2" d="M33.051,81.338h2.721v18.634h-2.721V81.338z"/>
<path fill="#B2B2B2" d="M42.573,9.25h11.833v1.225H42.573V9.25z"/>
<path fill="#B2B2B2" d="M54.406,14.419V9.25h1.496v5.169H54.406z"/>
<path fill="#B2B2B2" d="M59.846,82.563V22.444h1.36v60.119H59.846z"/>
<path fill="#B2B2B2" d="M10.473,82.563h50.733v1.496H10.473V82.563z"/>
<path fill="#B2B2B2" d="M61.342,28.565l4.081-6.937l1.224,0.544l-4.216,6.937L61.342,28.565z"/>
<path fill="#B2B2B2" stroke="#000000" stroke-width="2" d="M58.758,29.109l-4.081-6.937l1.224-0.544l3.944,6.937L58.758,29.109z"/>
<path fill="#FFFFFF" d="M60.391,82.563V22.444h0.272v60.119H60.391z"/>
<path fill="#FFFFFF" d="M10.473,82.97h50.733v0.544H10.473V82.97z"/>
<path fill="#FFFFFF" d="M59.167,28.836L55.222,21.9l0.272-0.271l3.945,6.937L59.167,28.836z"/>
<path fill="#FFFFFF" d="M61.615,28.836l4.216-6.937h0.272l-3.944,6.937H61.615z"/>
<path fill="#FFFFFF" d="M54.95,14.419V9.25h0.544v5.169H54.95z"/>
<path fill="#FFFFFF" d="M42.573,9.523h11.833v0.408H42.573V9.523z"/>
<path fill="none" stroke="#000000" stroke-width="2" d="M59.846,82.563V22.444h1.36v60.119H59.846"/>
<path fill="none" stroke="#000000" stroke-width="2" d="M10.473,82.563h50.733v1.496H10.473V82.563"/>
<path fill="none" stroke="#000000" stroke-width="2" d="M61.342,28.565l4.081-6.937l1.224,0.544l-4.216,6.937L61.342,28.565"/>
<path fill="none" stroke="#000000" stroke-width="2" d="M54.406,14.419V9.25h1.496v5.169H54.406"/>
<path fill="none" stroke="#000000" stroke-width="2" d="M42.573,9.25h11.833v1.225H42.573V9.25"/>
<path fill="#999999" d="M64.607,14.419h2.584v8.024h-2.584V14.419z"/>
<path fill="#999999" d="M53.998,14.419h2.448v8.024h-2.448V14.419z"/>
<path fill="#999999" d="M59.167,14.419h2.72v8.024h-2.72V14.419z"/>
<path fill="#CCCCCC" d="M58.35,27.884h4.081v7.89H58.35V27.884z"/>
<path fill="none" stroke="#000000" stroke-width="2" d="M62.703,27.884v7.89H58.35"/>
<path fill="none" stroke="#000000" stroke-width="2" d="M67.191,14.419v8.024h-2.584"/>
<path fill="none" stroke="#000000" stroke-width="2" d="M61.887,14.419v8.024h-2.72"/>
<path fill="none" stroke="#000000" stroke-width="2" d="M56.446,14.419v8.024h-2.448"/>
<path fill="none" stroke="#FFFFFF" stroke-width="2" d="M58.35,35.774v-7.89h4.081"/>
<path fill="none" stroke="#FFFFFF" stroke-width="2" d="M64.607,22.444v-8.024h2.584"/>
<path fill="none" stroke="#FFFFFF" stroke-width="2" d="M59.167,22.444v-8.024h2.72"/>
<path fill="none" stroke="#FFFFFF" stroke-width="2" d="M53.998,22.444v-8.024h2.448"/>
<path fill="#00194C" d="M32.644,23.124h2.448v36.044h-2.448V23.124z"/>
<path fill="none" stroke="#000000" stroke-width="2" d="M9.793,65.153v21.354"/>
<path fill="#003366" d="M15.642,91.267h0.816v0.681h-0.816V91.267z"/>
<path fill="#003366" d="M22.442,91.267h0.68v0.681h-0.68V91.267z"/>
<path fill="#666666" stroke="#000000" stroke-width="2" d="M41.076,55.224l-1.36-1.225v-1.496l1.36-1.225h1.632l1.088,1.225v1.496
	l-1.088,1.225H41.076z"/>
<path fill="#333333" d="M41.076,57.264V3.81h1.497v53.454H41.076z"/>
<path fill="#7F7F7F" d="M41.484,57.264V3.81h0.544v53.454H41.484z"/>
<path fill="none" stroke="#000000" stroke-width="2" d="M41.076,57.264V3.81h1.497v53.454H41.076"/>
<path fill="#B2B2B2" stroke="#000000" stroke-width="2" d="M41.076,62.704l-1.36-1.36v-1.632l1.36-1.36h1.632l1.088,1.36v1.632
	l-1.088,1.36H41.076z"/>
<path fill="#B2B2B2" d="M38.628,59.848h6.665v1.36h-6.665V59.848z"/>
<path fill="#FFFFFF" d="M38.628,60.392h6.665v0.272h-6.665V60.392z"/>
<path fill="none" stroke="#000000" stroke-width="2" d="M38.628,59.848h6.665v1.36h-6.665V59.848"/>
<path fill="#B2B2B2" d="M41.212,63.928v-6.664h1.36v6.664H41.212z"/>
<path fill="#FFFFFF" d="M41.756,63.928v-6.664h0.272v6.664H41.756z"/>
<path fill="none" stroke="#000000" stroke-width="2" d="M41.212,63.928v-6.664h1.36v6.664H41.212"/>
<path fill="#333333" d="M38.628,52.503h6.665v1.496h-6.665V52.503z"/>
<path fill="#7F7F7F" d="M38.628,52.911h6.665v0.544h-6.665V52.911z"/>
<path fill="none" stroke="#000000" stroke-width="2" d="M38.628,52.503h6.665v1.496h-6.665V52.503"/>
<path fill="#D9B366" d="M128.262,98.612l-0.952-0.952v-1.496l0.952-0.952h1.496l0.952,0.952v1.496l-0.952,0.952H128.262z"/>
<path fill="#D9B366" d="M129.214,35.365l-0.544-0.816v-0.68l0.544-0.816h0.815l0.681,0.816v0.68l-0.681,0.816H129.214z"/>
<path fill="#D9B366" d="M70.863,59.848l-0.271-0.408v-0.544l0.271-0.136h0.68l0.272,0.136v0.544l-0.272,0.408H70.863z"/>
<path fill="#D9B366" d="M72.088,70.593l-0.952-0.952v-1.224l0.952-1.089h1.496l0.952,1.089v1.224l-0.952,0.952H72.088z"/>
<path fill="#D9B366" d="M46.245,22.444l-0.952-0.815v-1.496l0.952-0.952h1.224l1.088,0.952v1.496l-1.088,0.815H46.245z"/>
</svg>
