<?xml version="1.0" encoding="utf-8"?>
<!-- Generator: Adobe Illustrator 14.0.0, SVG Export Plug-In . SVG Version: 6.00 Build 43363)  -->
<!DOCTYPE svg PUBLIC "-//W3C//DTD SVG 1.1//EN" "http://www.w3.org/Graphics/SVG/1.1/DTD/svg11.dtd">
<svg version="1.1" id="图层_1" xmlns="http://www.w3.org/2000/svg" xmlns:xlink="http://www.w3.org/1999/xlink" x="0px" y="0px"
	 width="144.749px" height="102.154px" viewBox="0 0 144.749 102.154" enable-background="new 0 0 144.749 102.154"
	 xml:space="preserve">
<path fill="#324C7F" stroke="#000000" stroke-width="2" d="M105.048,66.363h19.706l1.014-3.912l3.912-1.015V46.658l-7.969-4.202
	h-5.216l-3.478,3.043h-7.97V66.363z"/>
<path fill="#FFE5B2" stroke="#000000" stroke-width="2" d="M113.886,71.724l13.91-13.91l-1.449-1.304L112.148,70.42L113.886,71.724z
	"/>
<path fill="none" stroke="#000000" stroke-width="2" d="M116.784,82.157v-3.043l-1.883-1.884"/>
<path fill="#7F99CC" stroke="#000000" stroke-width="2" d="M106.931,88.097h19.706V84.04h-19.706V88.097z"/>
<path fill="#7F99CC" d="M113.017,86.214l-0.29,3.768h-4.347l-0.58-3.768H113.017z"/>
<path fill="#7F99CC" d="M118.668,86.214l-0.29,3.768h-4.347l-0.435-3.768H118.668z"/>
<path fill="#7F99CC" d="M124.754,86.214l-0.29,3.768h-4.347l-0.58-3.768H124.754z"/>
<path fill="#98B2E5" d="M120.117,82.157h4.347l0.29,4.057h-5.217L120.117,82.157z"/>
<path fill="#98B2E5" d="M114.031,82.157h4.347l0.29,4.057h-5.071L114.031,82.157z"/>
<path fill="#98B2E5" d="M108.381,82.157h4.347l0.29,4.057h-5.217L108.381,82.157z"/>
<path fill="none" stroke="#000000" stroke-width="2" d="M108.381,82.157h4.347l0.29,4.057l-0.29,3.768h-4.347l-0.58-3.768
	L108.381,82.157"/>
<path fill="none" stroke="#000000" stroke-width="2" d="M114.031,82.157h4.347l0.29,4.057l-0.29,3.768h-4.347l-0.435-3.768
	L114.031,82.157"/>
<path fill="none" stroke="#000000" stroke-width="2" d="M120.117,82.157h4.347l0.29,4.057l-0.29,3.768h-4.347l-0.58-3.768
	L120.117,82.157"/>
<path fill="#193366" stroke="#000000" stroke-width="2" d="M105.338,16.809h4.637V8.985h-4.637V16.809z"/>
<path fill="#98B2E5" d="M105.338,18.838h11.446v19.851h-11.446V18.838z"/>
<path fill="#93ADE0" d="M105.338,28.401l11.446-8.259v13.909h-11.446V28.401z"/>
<path fill="#8EA8DB" d="M105.338,32.892l11.446-8.113v13.185h-11.446V32.892z"/>
<path fill="#89A3D6" d="M105.338,37.385l11.446-8.259v9.563h-11.446V37.385z"/>
<path fill="none" stroke="#000000" stroke-width="2" d="M105.338,18.838h11.446v19.851h-11.446V18.838"/>
<path fill="#191919" stroke="#000000" stroke-width="2" d="M52.596,4.058h5.796v0.725h-5.796V4.058z"/>
<path fill="#191919" stroke="#000000" stroke-width="2" d="M93.022,4.058h6.085v0.725h-6.085V4.058z"/>
<path fill="#98B2E5" d="M5.94,4.783h99.688V92.01H5.94V4.783z"/>
<path fill="#93ADE0" d="M5.94,47.237l99.688-36.368v61.725H5.94V47.237z"/>
<path fill="#8EA8DB" d="M5.94,67.088l99.688-36.368v57.957H5.94V67.088z"/>
<path fill="#89A3D6" d="M5.94,87.083l99.688-36.658V92.01H5.94V87.083z"/>
<path fill="none" stroke="#000000" stroke-width="2" d="M5.94,4.783h99.688V92.01H5.94V4.783"/>
<path fill="#324C7F" d="M5.94,96.935h132.723v-3.912H5.94V96.935z"/>
<path fill="#7F99CC" stroke="#000000" stroke-width="2" d="M4.057,92.01h136.489v1.014H4.057V92.01z"/>
<path fill="#7F99CC" stroke="#000000" stroke-width="2" d="M4.057,96.935h136.489v1.015H4.057V96.935z"/>
<path fill="#7F99CC" stroke="#000000" stroke-width="2" d="M119.248,40.572h6.52l4.927,3.043v16.662h-11.446V40.572z"/>
<path fill="#191919" d="M124.174,49.121l-0.579-0.869l0.579-0.87h1.159l0.435,0.87l-0.435,0.869H124.174z"/>
<path fill="#98B2E5" d="M105.628,68.247h8.693l0.869,7.824h-10.143L105.628,68.247z"/>
<path fill="#7F99CC" d="M115.19,76.071l-0.869,7.969h-8.693l-0.58-7.969H115.19z"/>
<path fill="none" stroke="#000000" stroke-width="2" d="M105.628,68.247h8.693l0.869,7.824l-0.869,7.969h-8.693l-0.58-7.969
	L105.628,68.247"/>
<path fill="#FFB27F" d="M106.497,68.971h7.1v1.738h-7.1V68.971z"/>
<path fill="#E5E5E5" d="M106.497,74.477h7.1V70.71h-7.1V74.477z"/>
</svg>
