<?xml version="1.0" encoding="utf-8"?>
<!-- Generator: Adobe Illustrator 14.0.0, SVG Export Plug-In . SVG Version: 6.00 Build 43363)  -->
<!DOCTYPE svg PUBLIC "-//W3C//DTD SVG 1.1//EN" "http://www.w3.org/Graphics/SVG/1.1/DTD/svg11.dtd">
<svg version="1.1" id="图层_1" xmlns="http://www.w3.org/2000/svg" xmlns:xlink="http://www.w3.org/1999/xlink" x="0px" y="0px"
	 width="107.798px" height="106.502px" viewBox="0 0 107.798 106.502" enable-background="new 0 0 107.798 106.502"
	 xml:space="preserve">
<path fill="#324C7F" stroke="#000000" stroke-width="2" d="M66.578,69.706H87.62l1.295-4.315l3.992-0.972V48.341l-8.309-4.208
	h-5.611l-3.885,3.237h-8.524V69.706z"/>
<path fill="#FFE5B2" stroke="#000000" stroke-width="2" d="M75.966,75.533l14.891-14.999l-1.402-1.618L74.455,74.131L75.966,75.533z
	"/>
<path fill="none" stroke="#000000" stroke-width="2" d="M79.419,86.432V83.41l-2.266-2.266"/>
<path fill="#7F99CC" stroke="#000000" stroke-width="2" d="M68.628,92.906h21.258v-4.208H68.628V92.906z"/>
<path fill="#7F99CC" d="M75.318,90.748l-0.432,4.208h-4.64l-0.432-4.208H75.318z"/>
<path fill="#7F99CC" d="M81.36,90.748l-0.323,4.208H76.29l-0.324-4.208H81.36z"/>
<path fill="#7F99CC" d="M87.62,90.748l-0.324,4.208h-4.641l-0.432-4.208H87.62z"/>
<path fill="#98B2E5" d="M82.655,86.432h4.641l0.324,4.316h-5.396L82.655,86.432z"/>
<path fill="#98B2E5" d="M76.29,86.432h4.747l0.323,4.316h-5.395L76.29,86.432z"/>
<path fill="#98B2E5" d="M70.247,86.432h4.64l0.432,4.316h-5.503L70.247,86.432z"/>
<path fill="none" stroke="#000000" stroke-width="2" d="M70.247,86.432h4.64l0.432,4.316l-0.432,4.208h-4.64l-0.432-4.208
	L70.247,86.432"/>
<path fill="none" stroke="#000000" stroke-width="2" d="M76.29,86.432h4.747l0.323,4.316l-0.323,4.208H76.29l-0.324-4.208
	L76.29,86.432"/>
<path fill="none" stroke="#000000" stroke-width="2" d="M82.655,86.432h4.641l0.324,4.316l-0.324,4.208h-4.641l-0.432-4.208
	L82.655,86.432"/>
<path fill="#193366" stroke="#000000" stroke-width="2" d="M67.226,16.617h4.64V8.309h-4.64V16.617z"/>
<path fill="#98B2E5" d="M67.226,18.776h12.193v21.041H67.226V18.776z"/>
<path fill="#93ADE0" d="M67.226,29.134l12.193-8.956v14.999H67.226V29.134z"/>
<path fill="#8EA8DB" d="M67.226,33.99l12.193-8.956v14.027H67.226V33.99z"/>
<path fill="#89A3D6" d="M67.226,38.63l12.193-8.74v9.927H67.226V38.63z"/>
<path fill="none" stroke="#000000" stroke-width="2" d="M67.226,18.776h12.193v21.041H67.226V18.776"/>
<path fill="#191919" stroke="#000000" stroke-width="2" d="M10.467,3.022h6.367v0.971h-6.367V3.022z"/>
<path fill="#191919" stroke="#000000" stroke-width="2" d="M53.845,3.022h6.474v0.971h-6.474V3.022z"/>
<path fill="#98B2E5" d="M5.18,3.992h62.045v93.23H5.18V3.992z"/>
<path fill="#93ADE0" d="M5.18,49.204l62.045-38.953v66.038H5.18V49.204z"/>
<path fill="#8EA8DB" d="M5.18,70.462l62.045-38.954v62.046H5.18V70.462z"/>
<path fill="#89A3D6" d="M5.18,91.719l62.045-38.846v44.35H5.18V91.719z"/>
<path fill="none" stroke="#000000" stroke-width="2" d="M5.18,3.992h62.045v93.23H5.18V3.992"/>
<path fill="#324C7F" d="M5.18,102.51h97.331v-4.316H5.18V102.51z"/>
<path fill="#7F99CC" stroke="#000000" stroke-width="2" d="M3.022,97.223h101.647v0.971H3.022V97.223z"/>
<path fill="#7F99CC" stroke="#000000" stroke-width="2" d="M3.022,102.51h101.647v0.971H3.022V102.51z"/>
<path fill="#4C6699" d="M46.508,94.956h20.07V28.271l-20.07,15.862V94.956z"/>
<path fill="#7F99CC" stroke="#000000" stroke-width="2" d="M62.37,64.419h0.971v8.309H62.37V64.419z"/>
<path fill="#7F99CC" stroke="#000000" stroke-width="2" d="M47.587,46.4h0.971v8.416h-0.971V46.4z"/>
<path fill="#00194C" d="M12.518,86.432V37.874l15.97-19.099h16.833l8.524-12.733h12.733v14.783h-1.942v8.524L45.321,44.133v42.299
	H12.518z"/>
<path fill="#324C7F" d="M21.582,27.3h43.054v2.05l-8.524,6.475H14.784L21.582,27.3z"/>
<path fill="#324C7F" d="M12.518,44.133h32.803v8.524H12.518V44.133z"/>
<path fill="#324C7F" d="M12.518,86.432h32.803v8.524H12.518V86.432z"/>
<path fill="#00194C" d="M22.013,27.3h2.266v8.524h-2.266V27.3z"/>
<path fill="#00194C" d="M26.222,27.3h2.266v8.524h-2.266V27.3z"/>
<path fill="#00194C" d="M30.538,27.3h2.266v8.524h-2.266V27.3z"/>
<path fill="#00194C" d="M34.746,27.3h2.266v8.524h-2.266V27.3z"/>
<path fill="#00194C" d="M39.062,27.3h2.158v8.524h-2.158V27.3z"/>
<path fill="#00194C" d="M43.271,27.3h2.266v8.524h-2.266V27.3z"/>
<path fill="#00194C" d="M47.587,27.3h2.05v8.524h-2.05V27.3z"/>
<path fill="#00194C" d="M51.795,27.3h2.05v8.524h-2.05V27.3z"/>
<path fill="#00194C" d="M56.111,27.3h1.942v6.906l-1.942,1.618V27.3z"/>
<path fill="#00194C" d="M60.104,27.3h2.267v3.669l-2.267,1.618V27.3z"/>
<path fill="#00194C" d="M18.021,31.94l2.05-2.59v6.475h-2.05V31.94z"/>
<path fill="#00194C" d="M12.518,44.133h2.266v8.524h-2.266V44.133z"/>
<path fill="#00194C" d="M16.834,44.133h2.158v8.524h-2.158V44.133z"/>
<path fill="#00194C" d="M21.042,44.133h2.266v8.524h-2.266V44.133z"/>
<path fill="#00194C" d="M25.25,44.133h2.266v8.524H25.25V44.133z"/>
<path fill="#00194C" d="M29.566,44.133h1.942v8.524h-1.942V44.133z"/>
<path fill="#00194C" d="M33.775,44.133h2.05v8.524h-2.05V44.133z"/>
<path fill="#00194C" d="M37.983,44.133h2.05v8.524h-2.05V44.133z"/>
<path fill="#00194C" d="M15.755,86.432h2.266v8.524h-2.266V86.432z"/>
<path fill="#00194C" d="M20.071,86.432h1.942v8.524h-1.942V86.432z"/>
<path fill="#00194C" d="M24.279,86.432h1.942v8.524h-1.942V86.432z"/>
<path fill="#00194C" d="M28.487,86.432h2.05v8.524h-2.05V86.432z"/>
<path fill="#00194C" d="M32.804,86.432h1.942v8.524h-1.942V86.432z"/>
<path fill="#00194C" d="M37.012,86.432h2.05v8.524h-2.05V86.432z"/>
<path fill="#00194C" d="M41.112,86.432h2.158v8.524h-2.158V86.432z"/>
<path fill="#00194C" d="M42.299,44.133h2.05v8.524h-2.05V44.133z"/>
<path fill="none" stroke="#FFFFFF" stroke-width="2" d="M7.23,94.956h38.091V44.133L64.636,29.35v-8.524h1.942V6.042"/>
<path fill="#324C7F" d="M7.23,44.133l5.288-6.259v57.082H7.23V44.133z"/>
<path fill="#284275" d="M10.036,41.112l2.482-3.237v57.082h-2.482V41.112z"/>
<path fill="#1E386B" d="M10.683,39.817l1.834-1.942v57.082h-1.834V39.817z"/>
<path fill="#163063" d="M11.546,39.493l0.971-1.619v57.082h-0.971V39.493z"/>
<path fill="#0C2659" d="M12.086,38.414l0.432-0.54v57.082h-0.432V38.414z"/>
<path fill="none" stroke="#000000" stroke-width="2" d="M7.23,94.956V44.133l21.257-25.357h16.833l8.524-12.733h12.733"/>
<path fill="#324C7F" stroke="#000000" stroke-width="2" d="M32.588,13.489h5.396v-5.18h-5.396V13.489z"/>
<path fill="#E5E5E5" d="M33.235,12.948h4.208V8.632h-4.208V12.948z"/>
<path fill="#FF0000" d="M33.775,12.517l2.266-1.618l-0.863-0.647L33.775,12.517z"/>
<path fill="#7F99CC" stroke="#000000" stroke-width="2" d="M82.009,42.083h6.906l5.287,3.237v17.912H82.009V42.083z"/>
<path fill="#191919" d="M87.296,51.255l-0.647-0.863l0.647-0.972h0.971l0.648,0.972l-0.648,0.863H87.296z"/>
<path fill="#191919" d="M52.658,52.657h7.661v4.209h-7.661V52.657z"/>
<path fill="#191919" d="M54.816,59.132h3.237v0.971h-3.237V59.132z"/>
<path fill="#98B2E5" d="M67.441,71.649h9.28l0.863,8.524H66.578L67.441,71.649z"/>
<path fill="#7F99CC" d="M77.585,80.173l-0.863,8.525h-9.28l-0.863-8.525H77.585z"/>
<path fill="none" stroke="#000000" stroke-width="2" d="M67.441,71.649h9.28l0.863,8.524l-0.863,8.525h-9.28l-0.863-8.525
	L67.441,71.649"/>
<path fill="#FFB27F" d="M68.196,72.512h7.77v1.835h-7.77V72.512z"/>
<path fill="#E5E5E5" d="M68.196,78.555h7.77v-4.208h-7.77V78.555z"/>
</svg>
