<?xml version="1.0" encoding="utf-8"?>
<!-- Generator: Adobe Illustrator 14.0.0, SVG Export Plug-In . SVG Version: 6.00 Build 43363)  -->
<!DOCTYPE svg PUBLIC "-//W3C//DTD SVG 1.1//EN" "http://www.w3.org/Graphics/SVG/1.1/DTD/svg11.dtd">
<svg version="1.1" id="图层_1" xmlns="http://www.w3.org/2000/svg" xmlns:xlink="http://www.w3.org/1999/xlink" x="0px" y="0px"
	 width="144.749px" height="92.152px" viewBox="0 0 144.749 92.152" enable-background="new 0 0 144.749 92.152"
	 xml:space="preserve">
<path fill="#003333" stroke="#000000" stroke-width="2" d="M8.839,82.735h19.271V60.856H8.839V82.735z"/>
<path fill="#336666" stroke="#000000" stroke-width="2" d="M16.228,52.597h4.926v19.126H10.288v-13.62L16.228,52.597z"/>
<path fill="#669999" stroke="#000000" stroke-width="2" d="M4.057,69.839l1.304-7.68l5.506-1.304h4.057v16.373H4.057V69.839z"/>
<path fill="#333333" stroke="#000000" stroke-width="2" d="M30.718,8.694h5.506v8.114h-5.506V8.694z"/>
<path d="M30.718,16.808h5.506v60.421h-5.506V16.808z"/>
<path fill="#3366CC" d="M8.839,82.735h131.708v1.304H8.839V82.735z"/>
<path fill="#003399" d="M36.223,16.808h104.323v60.421H36.223V16.808z"/>
<path fill="#083BA1" d="M36.223,18.692h104.323v56.653H36.223V18.692z"/>
<path fill="#0F42A8" d="M36.223,20.72h104.323v52.741H36.223V20.72z"/>
<path fill="#174AB0" d="M36.223,22.894h104.323v48.395H36.223V22.894z"/>
<path fill="#1C4FB5" d="M36.223,24.777h104.323v44.482H36.223V24.777z"/>
<path fill="#2457BD" d="M36.223,26.66h104.323v40.716H36.223V26.66z"/>
<path fill="#2B5EC4" d="M36.223,28.544h104.323v36.948H36.223V28.544z"/>
<path fill="#3366CC" d="M36.223,30.428h104.323v33.181H36.223V30.428z"/>
<path fill="#3B6ED4" d="M36.223,32.456h104.323v29.269H36.223V32.456z"/>
<path fill="#4275DB" d="M36.223,34.63h104.323v24.776H36.223V34.63z"/>
<path fill="#4A7DE3" d="M36.223,36.513h104.323v21.01H36.223V36.513z"/>
<path fill="#4F82E8" d="M36.223,38.397h104.323v17.242H36.223V38.397z"/>
<path fill="#578AF0" d="M36.223,40.281h104.323v13.476H36.223V40.281z"/>
<path fill="#5E91F7" d="M36.223,42.309h104.323v9.563H36.223V42.309z"/>
<path fill="#6699FF" d="M36.223,44.483h104.323v5.361H36.223V44.483z"/>
<path fill="none" stroke="#000000" stroke-width="2" d="M36.223,16.808h104.323v60.421H36.223V16.808"/>
<path fill="#0A0A0A" d="M30.718,18.692h5.506v56.653h-5.506V18.692z"/>
<path fill="#121212" d="M30.718,20.72h5.506v52.741h-5.506V20.72z"/>
<path fill="#1C1C1C" d="M30.718,22.894h5.506v48.395h-5.506V22.894z"/>
<path fill="#242424" d="M30.718,24.777h5.506v44.482h-5.506V24.777z"/>
<path fill="#2E2E2E" d="M30.718,26.66h5.506v40.716h-5.506V26.66z"/>
<path fill="#363636" d="M30.718,28.544h5.506v36.948h-5.506V28.544z"/>
<path fill="#404040" d="M30.718,30.428h5.506v33.181h-5.506V30.428z"/>
<path fill="#4A4A4A" d="M30.718,32.456h5.506v29.269h-5.506V32.456z"/>
<path fill="#525252" d="M30.718,34.63h5.506v24.776h-5.506V34.63z"/>
<path fill="#5C5C5C" d="M30.718,36.513h5.506v21.01h-5.506V36.513z"/>
<path fill="#636363" d="M30.718,38.397h5.506v17.242h-5.506V38.397z"/>
<path fill="#6E6E6E" d="M30.718,40.281h5.506v13.476h-5.506V40.281z"/>
<path fill="#757575" d="M30.718,42.309h5.506v9.563h-5.506V42.309z"/>
<path fill="#7F7F7F" d="M30.718,44.483h5.506v5.361h-5.506V44.483z"/>
<path fill="none" stroke="#000000" stroke-width="2" d="M30.718,16.808h5.506v60.421h-5.506V16.808"/>
<path fill="#3366CC" stroke="#000000" stroke-width="2" d="M124.174,71.723h8.259v11.012h-8.259V71.723z"/>
<path fill="#3366CC" stroke="#000000" stroke-width="2" d="M44.482,71.723h8.404v11.012h-8.404V71.723z"/>
<path fill="#003399" d="M8.839,84.038h131.708v4.058H8.839V84.038z"/>
<path fill="none" stroke="#000000" stroke-width="2" d="M8.839,82.735h131.708v5.361H8.839V82.735"/>
<path fill="#336666" d="M22.603,60.856h2.608v21.879h-2.608V60.856z"/>
<path fill="#669999" d="M17.097,49.844h13.62v11.012h-13.62V49.844z"/>
<path fill="#78ABAB" d="M17.097,50.423h13.62v9.563h-13.62V50.423z"/>
<path fill="#87BABA" d="M17.097,51.292h13.62v7.97h-13.62V51.292z"/>
<path fill="#99CCCC" d="M17.097,52.017h13.62v6.375h-13.62V52.017z"/>
<path fill="#ABDEDE" d="M17.097,52.886h13.62v4.637h-13.62V52.886z"/>
<path fill="#BAEDED" d="M17.097,53.756h13.62v2.897h-13.62V53.756z"/>
<path fill="#CCFFFF" d="M17.097,54.48h13.62v1.449h-13.62V54.48z"/>
<path fill="none" stroke="#000000" stroke-width="2" d="M17.097,49.844h13.62v11.012h-13.62V49.844"/>
<path fill="none" stroke="#000000" stroke-width="2" d="M6.665,77.229l0.87,4.926l1.883,3.333l6.376,1.304l11.736-0.579
	l14.924-4.058l4.637-4.057l2.173-4.927l0.87-30.138L48.54,16.228"/>
<path fill="none" stroke="#003399" stroke-width="2" d="M140.547,38.977L37.093,44.483"/>
<path fill="none" stroke="#003399" stroke-width="2" d="M37.093,49.844l103.454,5.506"/>
<path fill="#E5E5E5" d="M45.207,44.483h8.839v8.693h-8.839V44.483z"/>
<path fill="none" stroke="#FFFFFF" stroke-width="2" d="M45.207,53.176v-8.693h8.839"/>
<path fill="none" stroke="#000000" stroke-width="2" d="M45.207,53.176h8.839v-8.693"/>
<path fill="#333333" stroke="#000000" stroke-width="2" d="M47.96,16.808h1.304V7.244H47.96V16.808z"/>
<path fill="#333333" stroke="#000000" stroke-width="2" d="M56.219,50.423h2.753V8.115h-2.753V50.423z"/>
<path fill="#999999" stroke="#000000" stroke-width="2" d="M54.77,12.751h5.506v23.473H54.77V12.751z"/>
<path fill="#E5E5E5" stroke="#000000" stroke-width="2" d="M47.96,9.998l-0.869-3.043l0.869-2.898h1.884l0.869,2.898l-0.869,3.043
	H47.96z"/>
</svg>
