<?xml version="1.0" encoding="utf-8"?>
<!-- Generator: Adobe Illustrator 14.0.0, SVG Export Plug-In . SVG Version: 6.00 Build 43363)  -->
<!DOCTYPE svg PUBLIC "-//W3C//DTD SVG 1.1//EN" "http://www.w3.org/Graphics/SVG/1.1/DTD/svg11.dtd">
<svg version="1.1" id="图层_1" xmlns="http://www.w3.org/2000/svg" xmlns:xlink="http://www.w3.org/1999/xlink" x="0px" y="0px"
	 width="144.749px" height="94.903px" viewBox="0 0 144.749 94.903" enable-background="new 0 0 144.749 94.903"
	 xml:space="preserve">
<path fill="#336666" stroke="#000000" stroke-width="2" d="M113.595,51.001h18.546v24.341h-18.546V51.001z"/>
<path fill="#999999" stroke="#000000" stroke-width="2" d="M5.363,86.5h133.878v3.043H5.363V86.5z"/>
<path fill="#CCCCCC" d="M4.058,11.157h102.438v74.039H4.058V11.157z"/>
<path fill="#C7C7C7" d="M4.058,63.752L106.496,32.6v52.596H4.058V63.752z"/>
<path fill="#C2C2C2" d="M4.058,66.794l102.438-30.862v49.263H4.058V66.794z"/>
<path fill="#BDBDBD" d="M4.058,71.431l102.438-30.862v44.626H4.058V71.431z"/>
<path fill="none" stroke="#000000" stroke-width="2" d="M4.058,11.157h102.438v74.039H4.058V11.157"/>
<path fill="#CCCCCC" stroke="#000000" stroke-width="2" d="M4.058,86.5h136.487v-1.304H4.058V86.5z"/>
<path fill="#CCCCCC" stroke="#000000" stroke-width="2" d="M4.058,90.846h136.487v-1.304H4.058V90.846z"/>
<path fill="#99CCCC" d="M106.496,56.797h22.604v16.807h-22.604V56.797z"/>
<path fill="#94C7C7" d="M106.496,66.504l22.604-7.1v12.026h-22.604V66.504z"/>
<path fill="#8FC2C2" d="M106.496,68.243l22.604-7.1V72.3h-22.604V68.243z"/>
<path fill="#8ABDBD" d="M106.496,69.547l22.604-7.1v11.156h-22.604V69.547z"/>
<path fill="none" stroke="#000000" stroke-width="2" d="M106.496,56.797h22.604v16.807h-22.604V56.797"/>
<path fill="#333333" d="M120.695,59.405h7.1V72.3h-7.1V59.405z"/>
<path fill="#FFB27F" d="M122,61.143h4.347v1.305H122V61.143z"/>
<path fill="#FFB27F" d="M112.147,59.405h7.1v4.348h-7.1V59.405z"/>
<path fill="#336666" d="M120.695,46.944v9.853h-14.199v-9.853H120.695z"/>
<path fill="#457878" d="M120.695,47.379v8.549h-14.199v-8.549H120.695z"/>
<path fill="#548787" d="M120.695,48.249v7.1h-14.199v-7.1H120.695z"/>
<path fill="#669999" d="M120.695,48.829v5.65h-14.199v-5.65H120.695z"/>
<path fill="#78ABAB" d="M120.695,49.698v4.346h-14.199v-4.346H120.695z"/>
<path fill="#87BABA" d="M120.695,50.132v3.042h-14.199v-3.042H120.695z"/>
<path fill="#99CCCC" d="M120.695,51.001v1.594h-14.199v-1.594H120.695z"/>
<path fill="none" stroke="#000000" stroke-width="2" d="M120.695,46.944v9.853h-14.199v-9.853H120.695"/>
<path fill="none" stroke="#000000" stroke-width="2" d="M126.346,56.797l-2.898-3.043l-4.201-1.449h-12.751"/>
<path fill="#191919" stroke="#000000" stroke-width="2" d="M106.496,28.253l4.058,4.202h4.347V19.85h1.448v-1.594h-7.244v1.594
	h1.449v5.506l-4.058-4.202V28.253z"/>
<path fill="#4C4C4C" stroke="#000000" stroke-width="2" d="M113.595,18.256V4.057h-18.69v7.1h1.449V5.361h15.793v12.896H113.595z"/>
<path fill="#CCCCCC" stroke="#000000" stroke-width="2" d="M51.003,11.157V9.708h1.305V8.404h-7.1v1.304h1.448v1.449H51.003z"/>
</svg>
