<?xml version="1.0" encoding="utf-8"?>
<!-- Generator: Adobe Illustrator 14.0.0, SVG Export Plug-In . SVG Version: 6.00 Build 43363)  -->
<!DOCTYPE svg PUBLIC "-//W3C//DTD SVG 1.1//EN" "http://www.w3.org/Graphics/SVG/1.1/DTD/svg11.dtd">
<svg version="1.1" id="图层_1" xmlns="http://www.w3.org/2000/svg" xmlns:xlink="http://www.w3.org/1999/xlink" x="0px" y="0px"
	 width="70.25px" height="106.502px" viewBox="0 0 70.25 106.502" enable-background="new 0 0 70.25 106.502" xml:space="preserve">
<path d="M2.985,71.321H5.01v3.944H2.985V71.321z"/>
<path d="M10.98,99.463h2.025v3.944H10.98V99.463z"/>
<path d="M59.165,99.463h2.025v3.944h-2.025V99.463z"/>
<path fill="#6699FF" d="M5.01,2.989h62.256v96.475H5.01V2.989z"/>
<path fill="#6194FA" d="M5.01,71.427l62.256-40.296v68.332H5.01V71.427z"/>
<path fill="#5C8FF5" d="M5.01,75.478l62.256-40.402v64.388H5.01V75.478z"/>
<path fill="#578AF0" d="M5.01,81.554l62.256-40.402v58.312H5.01V81.554z"/>
<path d="M6.929,8.958h58.312v4.051H6.929V8.958z"/>
<path fill="#4073D9" stroke="#000000" stroke-width="2" d="M6.929,89.336h58.312v8.102H6.929V89.336z"/>
<path d="M8.955,91.362h54.261v6.076H8.955V91.362z"/>
<path fill="#4C7FE5" d="M6.929,2.989h58.312v5.97H6.929V2.989z"/>
<path fill="none" stroke="#194CB2" stroke-width="2" d="M65.241,2.989v86.348"/>
<path fill="none" stroke="#194CB2" stroke-width="2" d="M6.929,89.336V2.989"/>
<path fill="none" stroke="#194CB2" stroke-width="2" d="M6.929,49.147h58.312"/>
<path fill="none" stroke="#000000" stroke-width="2" d="M5.01,2.989h62.256v96.475H5.01V2.989"/>
<path fill="#CCCCCC" d="M27.077,5.014h5.97v1.919h-5.97V5.014z"/>
<path fill="#333333" d="M33.046,5.014H45.2v1.919H33.046V5.014z"/>
<path fill="none" stroke="#D9E5FF" stroke-width="2" d="M45.2,5.014v1.919H27.077"/>
<path fill="none" stroke="#194CB2" stroke-width="2" d="M45.2,5.014H27.077v1.919"/>
<path fill="#666666" d="M2.985,65.243H5.01v4.052H2.985V65.243z"/>
</svg>
