<?xml version="1.0" encoding="utf-8"?>
<!-- Generator: Adobe Illustrator 14.0.0, SVG Export Plug-In . SVG Version: 6.00 Build 43363)  -->
<!DOCTYPE svg PUBLIC "-//W3C//DTD SVG 1.1//EN" "http://www.w3.org/Graphics/SVG/1.1/DTD/svg11.dtd">
<svg version="1.1" id="图层_1" xmlns="http://www.w3.org/2000/svg" xmlns:xlink="http://www.w3.org/1999/xlink" x="0px" y="0px"
	 width="77.076px" height="106.502px" viewBox="0 0 77.076 106.502" enable-background="new 0 0 77.076 106.502"
	 xml:space="preserve">
<path fill="#427542" d="M5.01,2.987h67.162v100.423H5.01V2.987z"/>
<path fill="none" stroke="#669966" stroke-width="2" d="M37.526,9.169v29.317H8.208"/>
<path fill="none" stroke="#336633" stroke-width="2" d="M37.526,9.169H8.208v29.317"/>
<path fill="#3D703D" d="M5.01,74.306l67.162-42.003v71.106H5.01V74.306z"/>
<path fill="#386B38" d="M5.01,78.57l67.162-42.002v66.842H5.01V78.57z"/>
<path fill="#336633" d="M5.01,84.753L72.172,42.75v60.659H5.01V84.753z"/>
<path fill="none" stroke="#000000" stroke-width="2" d="M5.01,2.987h67.162v100.423H5.01V2.987"/>
<path fill="#CCCCCC" d="M30.063,99.251h37.845v2.026H30.063V99.251z"/>
<path fill="#CCCCCC" stroke="#000000" stroke-width="2" d="M32.302,86.779H23.88l2.025,14.499h4.157L32.302,86.779z"/>
<path fill="#999999" d="M49.038,75.265l3.198-3.198l2.985,3.092l-3.198,3.198L49.038,75.265z"/>
<path fill="#CCCCCC" d="M50.957,74.093h2.239v25.158h-2.239V74.093z"/>
<path fill="#999999" stroke="#000000" stroke-width="2" d="M30.063,97.226h4.265v6.184h-4.265V97.226z"/>
<path fill="#999999" stroke="#000000" stroke-width="2" d="M38.485,97.226h4.265v6.184h-4.265V97.226z"/>
<path fill="#999999" stroke="#000000" stroke-width="2" d="M46.8,97.226h4.157v6.184H46.8V97.226z"/>
<path fill="#999999" stroke="#000000" stroke-width="2" d="M55.222,97.226h4.264v6.184h-4.264V97.226z"/>
<path fill="#999999" stroke="#000000" stroke-width="2" d="M63.644,97.226h4.264v6.184h-4.264V97.226z"/>
<path fill="#999999" d="M57.46,69.828h8.209v12.687H57.46V69.828z"/>
<path fill="none" stroke="#FFFFFF" stroke-width="2" d="M57.46,82.515V69.828h8.209"/>
<path fill="none" stroke="#000000" stroke-width="2" d="M57.46,82.515h8.209V69.828"/>
<circle fill="#B2B2B2" stroke="#000000" stroke-width="2" cx="51.064" cy="23.988" r="12.58"/>
<path fill="#BFBFBF" d="M55.222,33.903l-2.771,0.532h-3.092l-2.771-0.532l-2.666-1.6l-1.918-2.025l-1.706-2.665l-0.746-2.771v-2.985
	l0.746-2.878l1.706-2.559l1.918-2.025l2.666-1.6l2.771-0.853h3.092l2.771,0.853l2.665,1.6l1.919,2.025l1.599,2.559l0.64,2.878v2.985
	l-0.64,2.771l-1.599,2.665l-1.919,2.025L55.222,33.903z"/>
<circle fill="#CCCCCC" cx="50.638" cy="22.709" r="9.915"/>
<circle fill="#D9D9D9" cx="50.424" cy="22.176" r="8.635"/>
<circle fill="#E5E5E5" cx="50.105" cy="21.749" r="7.355"/>
<path d="M31.129,10.129h3.198v33.688h-3.198V10.129z"/>
<path d="M29.104,10.129h7.249V7.144h-7.249V10.129z"/>
<path fill="#333333" d="M61.085,69.828h-1.066v-7.249h1.066V69.828z"/>
<path fill="#333333" d="M69.934,61.406v1.173H50.957v-1.173H69.934z"/>
<path fill="#333333" d="M63.644,69.828h-1.173v-7.249h1.173V69.828z"/>
<path fill="#333333" d="M73.131,21.856h0.96v81.554h-0.96V21.856z"/>
<path fill="#333333" d="M69.934,9.169h0.959v94.24h-0.959V9.169z"/>
<path fill="#333333" d="M69.934,15.459v1.173H50.957v-1.173H69.934z"/>
<path fill="#333333" d="M69.934,31.13v1.173H50.957V31.13H69.934z"/>
<path fill="#333333" d="M69.934,41.685v1.065H50.957v-1.065H69.934z"/>
<path fill="#333333" d="M49.998,9.169h0.959v53.41h-0.959V9.169z"/>
<path fill="#333333" d="M49.998,41.685v1.065H28.144v-1.065H49.998z"/>
<path fill="#333333" d="M49.998,46.908v1.065H28.144v-1.065H49.998z"/>
<path fill="#333333" d="M26.865,20.576h1.279v37.845h-1.279V20.576z"/>
<path fill="#333333" d="M63.644,36.568h1.066v5.117h-1.066V36.568z"/>
<path fill="#333333" d="M63.644,10.129h1.066v5.33h-1.066V10.129z"/>
<path fill="none" stroke="#000000" stroke-width="2" d="M61.405,82.515v3.091l2.239,4.158l9.487,11.514"/>
<path fill="none" stroke="#000000" stroke-width="2" d="M50.957,94.988h-8.208l-6.396-2.025l-3.092-3.198"/>
<path fill="none" stroke="#000000" stroke-width="2" d="M50.957,94.028h-6.183l-4.265-1.065l-2.025-2.133"/>
<path fill="none" stroke="#000000" stroke-width="2" d="M28.144,45.736h41.79"/>
<path fill="none" stroke="#000000" stroke-width="2" d="M21.641,55.223h2.239l0.959-2.025l1.066-8.422l0.959-19.935"/>
<path fill="none" stroke="#003300" stroke-width="2" d="M5.01,6.185h66.949"/>
<path fill="#598C59" stroke="#000000" stroke-width="2" d="M33.688,89.977l3.198,0.853h3.305l3.198-0.853l2.771-1.599l2.452-2.452
	l1.599-2.771l0.746-3.198v-3.305l-0.746-3.092l-1.599-2.879L46.16,68.23L20.255,53.945l-3.198-0.747h-3.198l-3.305,0.747
	l-2.771,1.599L5.33,57.995l-1.599,2.878l-0.747,3.198v3.411l0.747,3.198L5.33,73.56l2.452,2.132L33.688,89.977z"/>
<circle fill="#669966" stroke="#000000" stroke-width="2" cx="15.458" cy="65.778" r="10.447"/>
<circle fill="#73A673" stroke="#000000" stroke-width="2" cx="15.458" cy="65.777" r="8.635"/>
<circle fill="#7FB27F" cx="15.351" cy="65.778" r="5.224"/>
<path fill="none" stroke="#CCFFCC" stroke-width="2" d="M8.529,66.63v-1.706l0.427-1.919l1.065-1.599l1.173-1.173l1.599-0.959
	l1.813-0.427h1.813l1.813,0.427"/>
<circle fill="#4C7F4C" stroke="#000000" stroke-width="2" cx="38.485" cy="78.25" r="8.422"/>
<circle fill="#333333" cx="38.485" cy="78.357" r="7.036"/>
<circle fill="#CCCCCC" cx="38.485" cy="78.25" r="6.184"/>
</svg>
