<?xml version="1.0" encoding="utf-8"?>
<!-- Generator: Adobe Illustrator 14.0.0, SVG Export Plug-In . SVG Version: 6.00 Build 43363)  -->
<!DOCTYPE svg PUBLIC "-//W3C//DTD SVG 1.1//EN" "http://www.w3.org/Graphics/SVG/1.1/DTD/svg11.dtd">
<svg version="1.1" id="图层_1" xmlns="http://www.w3.org/2000/svg" xmlns:xlink="http://www.w3.org/1999/xlink" x="0px" y="0px"
	 width="70.891px" height="106.502px" viewBox="0 0 70.891 106.502" enable-background="new 0 0 70.891 106.502"
	 xml:space="preserve">
<path fill="#CCCCCC" d="M2.985,13.435h64.922v87.841H2.985V13.435z"/>
<path fill="#D9D9D9" d="M5.117,13.435h60.657v87.841H5.117V13.435z"/>
<path fill="#E5E5E5" stroke="#B2B2B2" stroke-width="2" d="M7.143,13.435h54.474v87.841H7.143V13.435z"/>
<path fill="none" stroke="#000000" stroke-width="2" d="M2.985,13.435h64.922v87.841H2.985V13.435"/>
<path d="M2.985,101.276h64.922v2.133H2.985V101.276z"/>
<path fill="#666666" stroke="#000000" stroke-width="2" d="M61.617,95.093V42.751H7.143v52.342H61.617z"/>
<path fill="#666666" stroke="#000000" stroke-width="2" d="M5.117,57.356h54.368v29.315H5.117V57.356z"/>
<path fill="#A6A6A6" stroke="#000000" stroke-width="2" d="M5.117,57.356l2.025-12.579h54.474l-2.132,12.579H5.117z"/>
<path fill="#333333" stroke="#000000" stroke-width="2" d="M5.117,86.671l2.025,8.422h54.474l-2.132-8.422H5.117z"/>
<path fill="#F2F2F2" stroke="#000000" stroke-width="2" d="M23.879,17.592h20.895v18.869H23.879V17.592z"/>
<path fill="#CC9900" stroke="#000000" stroke-width="2" d="M26.011,19.725h16.737v16.736H26.011V19.725z"/>
<path fill="#4C4C4C" d="M30.275,33.796l-0.64-1.492l0.64-1.493l1.492-0.64l1.493,0.64l0.64,1.493l-0.64,1.492l-1.493,0.533
	L30.275,33.796z"/>
<path fill="#4C4C4C" d="M30.275,27.506l-0.64-1.492l0.64-1.492l1.492-0.64l1.493,0.64l0.64,1.492l-0.64,1.492l-1.493,0.64
	L30.275,27.506z"/>
<path fill="#BFBFBF" d="M27.291,22.603l-0.213-0.746l0.213-0.853l0.853-0.214l0.747,0.214l0.32,0.853l-0.32,0.746l-0.747,0.319
	L27.291,22.603z"/>
<path fill="#BFBFBF" d="M27.291,35.075l-0.213-0.746l0.213-0.746l0.853-0.32l0.747,0.32l0.32,0.746l-0.32,0.746l-0.747,0.319
	L27.291,35.075z"/>
<path fill="#CCCCCC" stroke="#000000" stroke-width="2" d="M31.235,20.79h6.289v2.025h-6.289V20.79z"/>
<path fill="#999999" d="M36.458,21.75h15.671v15.777H36.458V21.75z"/>
<path fill="#CCCCCC" d="M36.991,21.75h13.433v15.777H36.991V21.75z"/>
<path fill="none" stroke="#000000" stroke-width="2" d="M36.458,21.75h15.671v15.777H36.458V21.75"/>
<path fill="#F2F2F2" d="M47.333,33.263h1.492v3.731h-1.492V33.263z"/>
<path fill="#333333" d="M66.307,88.271h1.066v5.756h-1.066V88.271z"/>
<path fill="#E5E5E5" stroke="#000000" stroke-width="2" d="M11.3,11.303l8.422-8.315h33.473l6.29,8.315H11.3z"/>
<path d="M44.028,9.49l-1.279-2.345L44.028,4.8l3.197-1.066L50.317,4.8l1.279,2.346L50.317,9.49l-3.092,1.066L44.028,9.49z"/>
<path fill="#FFFFFF" d="M45.2,8.638l-0.853-1.492L45.2,5.653l2.025-0.64l1.919,0.64l0.853,1.493l-0.853,1.492l-1.919,0.64
	L45.2,8.638z"/>
<path fill="#FF0000" d="M46.585,6.932l0.533-0.64l2.345,1.813l-0.532,0.64L46.585,6.932z"/>
<path fill="#B2B2B2" stroke="#000000" stroke-width="2" d="M2.985,11.303h64.922v2.132H2.985V11.303z"/>
</svg>
