<?xml version="1.0" encoding="utf-8"?>
<!-- Generator: Adobe Illustrator 14.0.0, SVG Export Plug-In . SVG Version: 6.00 Build 43363)  -->
<!DOCTYPE svg PUBLIC "-//W3C//DTD SVG 1.1//EN" "http://www.w3.org/Graphics/SVG/1.1/DTD/svg11.dtd">
<svg version="1.1" id="图层_1" xmlns="http://www.w3.org/2000/svg" xmlns:xlink="http://www.w3.org/1999/xlink" x="0px" y="0px"
	 width="106.502px" height="106.502px" viewBox="0 0 106.502 106.502" enable-background="new 0 0 106.502 106.502"
	 xml:space="preserve">
<path fill="#CCCCC4" stroke="#000000" stroke-width="2" d="M21.748,23.987h59.701v3.945H21.748V23.987z"/>
<path fill="#CCCCC4" stroke="#000000" stroke-width="2" d="M84.648,7.143h8.422v8.422h-8.422V7.143z"/>
<path fill="#CCCCC4" stroke="#000000" stroke-width="2" d="M83.688,74.199h11.301V15.565H83.688V74.199z"/>
<path fill="#CCCCC4" stroke="#000000" stroke-width="2" d="M79.423,94.989h19.83v4.265h-19.83V94.989z"/>
<path fill="#CCCCC4" stroke="#000000" stroke-width="2" d="M23.987,27.932h55.437v71.321H23.987V27.932z"/>
<path fill="#CCCCC4" stroke="#000000" stroke-width="2" d="M7.143,94.989H17.59v4.265H7.143V94.989z"/>
<path fill="#CCCCC4" stroke="#000000" stroke-width="2" d="M2.985,99.253h100.426v4.157H2.985V99.253z"/>
<path d="M23.987,27.932h55.437v2.238H23.987V27.932z"/>
<path fill="#CCCCC4" stroke="#000000" stroke-width="2" d="M80.383,68.763h2.025v6.503h-2.025V68.763z"/>
<path fill="#CCCCC4" stroke="#000000" stroke-width="2" d="M67.803,65.778h12.58v12.367h-12.58V65.778z"/>
<path fill="#99998A" stroke="#000000" stroke-width="2" d="M84.648,2.985h8.422v4.158h-8.422V2.985z"/>
<path fill="#CCCCC4" stroke="#000000" stroke-width="2" d="M85.607,65.778l1.066,4.265l3.198,0.959l3.198-0.959l0.959-4.265V18.55
	L83.688,7.143H57.462L45.735,18.55v5.437h8.422v-4.264l5.224-5.117h21.002l5.224,5.117V65.778z"/>
<path fill="#CCCCC4" stroke="#000000" stroke-width="2" d="M74.2,74.199h29.211v20.789H74.2V74.199z"/>
<path fill="none" stroke="#000000" stroke-width="2" d="M85.607,19.723l8.422-1.173"/>
<path fill="none" stroke="#000000" stroke-width="2" d="M80.383,14.606l3.305-7.463"/>
<path fill="none" stroke="#000000" stroke-width="2" d="M59.381,14.606l-1.919-7.463"/>
<path fill="none" stroke="#000000" stroke-width="2" d="M54.158,19.723l-8.422-1.173"/>
<path fill="#CCCCC4" stroke="#000000" stroke-width="2" d="M10.448,79.424V16.525l4.158-4.158h33.369l4.264,4.158v7.462h-4.264
	V18.55l-2.239-2.025H16.524l-1.919,2.025v60.874H10.448z"/>
<circle fill="#CCCCC4" stroke="#000000" stroke-width="2" cx="12.367" cy="50.106" r="3.199"/>
<path fill="none" stroke="#000000" stroke-width="2" d="M14.605,18.55l-4.158-2.025"/>
<path fill="none" stroke="#000000" stroke-width="2" d="M16.524,16.525l-1.919-4.158"/>
<path fill="none" stroke="#000000" stroke-width="2" d="M45.735,16.525l2.239-4.158"/>
<path fill="none" stroke="#000000" stroke-width="2" d="M47.974,18.55l4.264-2.025"/>
<circle fill="#CCCCC4" stroke="#000000" stroke-width="2" cx="12.367" cy="87.633" r="9.381"/>
<circle fill="none" stroke="#000000" stroke-width="2" cx="12.367" cy="87.739" r="5.224"/>
</svg>
