<?xml version="1.0" encoding="utf-8"?>
<!-- Generator: Adobe Illustrator 14.0.0, SVG Export Plug-In . SVG Version: 6.00 Build 43363)  -->
<!DOCTYPE svg PUBLIC "-//W3C//DTD SVG 1.1//EN" "http://www.w3.org/Graphics/SVG/1.1/DTD/svg11.dtd">
<svg version="1.1" id="图层_1" xmlns="http://www.w3.org/2000/svg" xmlns:xlink="http://www.w3.org/1999/xlink" x="0px" y="0px"
	 width="77.263px" height="106.502px" viewBox="0 0 77.263 106.502" enable-background="new 0 0 77.263 106.502"
	 xml:space="preserve">
<path fill="#003399" stroke="#000000" stroke-width="2" d="M5.123,103.621V36.283l2.241-8.645l4.375-7.576l6.296-6.297l7.577-4.375
	l8.644-2.241h8.858l8.43,2.241l7.684,4.375l6.189,6.297l4.375,7.576l2.242,8.645v67.338H5.123z"/>
<path fill="#0A3DA3" stroke="#000000" stroke-width="2" d="M43.54,89.108l-3.201,0.854h-3.415l-3.202-0.854l-2.881-1.814
	l-2.348-2.24l-1.601-2.775l-0.854-3.201v-3.415l0.854-3.201l1.814-2.882l2.134-2.348l2.881-1.601l3.202-0.854h3.415l3.201,0.854
	l2.775,1.601l2.454,2.348l1.601,2.882l0.747,3.201v3.415l-0.747,3.201l-1.601,2.775l-2.454,2.454L43.54,89.108z"/>
<path fill="#000066" d="M9.178,62.215h58.907v-2.241H9.178V62.215z"/>
<path fill="#194CB2" d="M9.178,23.798h58.907v36.176H9.178V23.798z"/>
<path fill="#1447AD" d="M57.413,23.798h10.672v36.176H9.178V41.94L57.413,23.798z"/>
<path fill="#0F42A8" d="M67.872,26.893l0.213,33.081H9.178v-9.07L67.872,26.893z"/>
<path fill="#0A3DA3" d="M68.085,38.845v21.129H13.447L68.085,38.845z"/>
<path fill="none" stroke="#98B2E5" stroke-width="2" d="M9.178,59.974V23.798h58.907"/>
<path fill="none" stroke="#00004C" stroke-width="2" d="M68.085,23.798v36.176H9.178"/>
<path d="M36.497,28.067v4.161h0.96v12.699h2.241V32.228h1.068v-4.161H36.497z"/>
<circle fill="#3366CC" stroke="#000066" stroke-width="2" cx="38.525" cy="77.369" r="8.324"/>
<circle fill="#000033" cx="38.525" cy="77.369" r="4.055"/>
<path fill="#000033" d="M28.28,72.246l0.534-0.854l0.854,0.427l-0.427,0.961L28.28,72.246z"/>
<path fill="#000033" d="M38.098,66.377h0.96v1.067h-0.96V66.377z"/>
<path fill="#000033" d="M48.13,70.86l0.64,0.96l-1.067,0.641l-0.533-1.067L48.13,70.86z"/>
<path fill="#000033" d="M48.343,82.278l-0.427,0.961l-0.96-0.534l0.64-0.854L48.343,82.278z"/>
<path fill="none" stroke="#6699FF" stroke-width="2" d="M28.494,85.053l-1.601-2.775l-0.854-3.201v-3.415l0.854-3.201l1.814-2.882
	l2.134-2.348l2.881-1.601l3.202-0.854h3.415l3.201,0.854l2.775,1.601l2.454,2.348"/>
<path fill="#00197F" d="M2.882,99.353h71.393v4.269H2.882V99.353z"/>
<path fill="none" stroke="#98B2E5" stroke-width="2" d="M2.882,103.621v-4.269h71.393v4.269"/>
<path d="M36.497,84.625v8.538h4.27v-8.538H36.497z"/>
<path fill="#194CB2" d="M7.15,82.491h29.347v21.13H7.15V82.491z"/>
<path fill="#1447AD" d="M31.268,82.491h5.229v21.13H7.15V93.163L31.268,82.491z"/>
<path fill="#0F42A8" d="M36.497,84.306v19.315H7.15v-5.336L36.497,84.306z"/>
<path fill="#0A3DA3" d="M36.497,91.349v12.272H9.178L36.497,91.349z"/>
<path fill="none" stroke="#98B2E5" stroke-width="2" d="M7.15,103.621v-21.13h29.347"/>
<path fill="none" stroke="#00004C" stroke-width="2" d="M36.497,82.491v21.13H7.15"/>
<path fill="none" stroke="#000000" stroke-width="2" d="M38.738,84.625l2.028-2.134l8.323-4.056l12.485-2.134l8.431-6.297
	l4.269-12.592V40.658L72.247,30.2l-4.162-10.564l-6.51-6.297l-8.217-4.161l-12.592-4.27H34.47"/>
<path fill="#999999" d="M8.218,87.293H36.07v4.162H8.218V87.293z"/>
<path fill="none" stroke="#000000" stroke-width="2" d="M8.218,91.455v-4.162H36.07"/>
<path d="M8.218,100.313H36.07v-2.027H8.218V100.313z"/>
<path fill="#3366CC" stroke="#000066" stroke-width="2" d="M44.928,9.178h2.028v6.829h-2.028V9.178z"/>
<path fill="#3366CC" stroke="#000066" stroke-width="2" d="M33.296,9.178h2.241v6.829h-2.241V9.178z"/>
<path fill="#3366CC" stroke="#000066" stroke-width="2" d="M39.698,9.178h2.028v6.829h-2.028V9.178z"/>
<path fill="#3366CC" stroke="#000066" stroke-width="2" d="M28.067,9.178h2.134v6.829h-2.134V9.178z"/>
<path fill="#B2B2B2" stroke="#000000" stroke-width="2" d="M40.767,2.881v6.297h8.323V2.881H40.767z"/>
<path fill="#B2B2B2" stroke="#000000" stroke-width="2" d="M26.039,2.881v6.297h8.431V2.881H26.039z"/>
<path fill="none" stroke="#FFFFFF" stroke-width="2" d="M40.767,9.178V2.881h8.323"/>
<path fill="none" stroke="#FFFFFF" stroke-width="2" d="M26.039,9.178V2.881h8.431"/>
</svg>
