<?xml version="1.0" encoding="utf-8"?>
<!-- Generator: Adobe Illustrator 14.0.0, SVG Export Plug-In . SVG Version: 6.00 Build 43363)  -->
<!DOCTYPE svg PUBLIC "-//W3C//DTD SVG 1.1//EN" "http://www.w3.org/Graphics/SVG/1.1/DTD/svg11.dtd">
<svg version="1.1" id="图层_1" xmlns="http://www.w3.org/2000/svg" xmlns:xlink="http://www.w3.org/1999/xlink" x="0px" y="0px"
	 width="56.182px" height="106.502px" viewBox="0 0 56.182 106.502" enable-background="new 0 0 56.182 106.502"
	 xml:space="preserve">
<path fill="#F2E5CC" d="M2.985,2.987h50.212v100.423H2.985V2.987z"/>
<path fill="#EDE0C7" d="M2.985,53.198l50.212-24.945v66.735H2.985V53.198z"/>
<path fill="#E8DBC2" d="M2.985,61.619l50.212-24.839v58.207H2.985V61.619z"/>
<path fill="#E3D6BD" d="M2.985,70.255L53.197,44.99v49.998H2.985V70.255z"/>
<path fill="#665940" d="M5.011,94.988h46.16v8.422H5.011V94.988z"/>
<path fill="none" stroke="#000000" stroke-width="2" d="M2.985,94.988h50.212v8.422H2.985V94.988"/>
<path fill="none" stroke="#998C73" stroke-width="2" d="M2.985,72.068h50.212"/>
<path fill="#FF8C40" d="M44.775,15.459h8.422v25.053h-8.422V15.459z"/>
<path fill="#FF8C40" d="M19.615,15.459h16.95v2.132h-16.95V15.459z"/>
<path fill="#E5E5E5" d="M44.775,17.591h8.422v6.29h-8.422V17.591z"/>
<path fill="#E5E5E5" d="M44.775,25.8h8.422v6.503h-8.422V25.8z"/>
<path fill="#E5E5E5" d="M44.775,34.328h8.422v2.132h-8.422V34.328z"/>
<path fill="#333333" d="M19.615,13.434h16.95v2.025h-16.95V13.434z"/>
<path fill="#333333" d="M21.855,53.198h12.473v2.026H21.855V53.198z"/>
<path fill="#333333" d="M5.011,13.434h2.238v4.157H5.011V13.434z"/>
<path fill="#333333" d="M5.011,50.959h2.238v4.265H5.011V50.959z"/>
<path fill="#333333" d="M5.011,32.303h2.238v4.157H5.011V32.303z"/>
<path d="M3.945,91.363h1.066v1.066H3.945V91.363z"/>
<path d="M3.945,82.941h1.066v1.173H3.945V82.941z"/>
<path d="M3.945,74.093h1.066v0.959H3.945V74.093z"/>
<path d="M51.171,91.363h1.066v1.066h-1.066V91.363z"/>
<path d="M51.065,82.941h1.173v1.173h-1.173V82.941z"/>
<path d="M51.065,74.093h1.173v0.959h-1.173V74.093z"/>
<path fill="#98B2E5" d="M2.985,2.987h8.422l-8.422,8.422V2.987z"/>
<path fill="none" stroke="#000000" stroke-width="2" d="M2.985,2.987h50.212v92.001H2.985V2.987"/>
</svg>
