<?xml version="1.0" encoding="utf-8"?>
<!-- Generator: Adobe Illustrator 14.0.0, SVG Export Plug-In . SVG Version: 6.00 Build 43363)  -->
<!DOCTYPE svg PUBLIC "-//W3C//DTD SVG 1.1//EN" "http://www.w3.org/Graphics/SVG/1.1/DTD/svg11.dtd">
<svg version="1.1" id="图层_1" xmlns="http://www.w3.org/2000/svg" xmlns:xlink="http://www.w3.org/1999/xlink" x="0px" y="0px"
	 width="144.749px" height="103.457px" viewBox="0 0 144.749 103.457" enable-background="new 0 0 144.749 103.457"
	 xml:space="preserve">
<path fill="#333333" stroke="#000000" stroke-width="2" d="M104.613,20.866h3.188v3.042h-3.188V20.866z"/>
<path fill="#333333" stroke="#000000" stroke-width="2" d="M118.523,36.804h1.304v2.753h-1.304V36.804z"/>
<path fill="#4C4C4C" stroke="#000000" stroke-width="2" d="M103.744,53.757H129.1v38.542h-25.356V53.757z"/>
<path fill="#4C4C4C" stroke="#000000" stroke-width="2" d="M95.775,39.268v-1.159H4.057v1.159H95.775z"/>
<path fill="#4C4C4C" stroke="#000000" stroke-width="2" d="M95.775,78.1V76.65H4.057V78.1H95.775z"/>
<path fill="#4C4C4C" stroke="#000000" stroke-width="2" d="M95.775,58.684v-1.16H4.057v1.16H95.775z"/>
<path fill="#4C4C4C" stroke="#000000" stroke-width="2" d="M72.302,13.766v-1.883H4.057v1.883H72.302z"/>
<path fill="#4C4C4C" stroke="#000000" stroke-width="2" d="M28.834,6.232h-4.927v3.478h4.927V6.232z"/>
<path fill="#4C4C4C" stroke="#000000" stroke-width="2" d="M74.475,6.232H69.26v3.478h5.216V6.232z"/>
<path fill="#4C4C4C" stroke="#000000" stroke-width="2" d="M73.172,4.059h-2.174v26.95h2.174V4.059z"/>
<path fill="#4C4C4C" stroke="#000000" stroke-width="2" d="M27.53,4.059h-2.174v26.95h2.174V4.059z"/>
<path fill="none" stroke="#000000" stroke-width="2" d="M19.56,31.009l3.043-4.347h4.927l2.753,4.347"/>
<path fill="none" stroke="#000000" stroke-width="2" d="M22.603,31.009l1.015-4.347h2.463l1.449,4.347"/>
<path fill="none" stroke="#000000" stroke-width="2" d="M65.202,31.009l2.753-4.347h5.217l2.753,4.347"/>
<path fill="none" stroke="#000000" stroke-width="2" d="M67.955,31.009l1.305-4.347h2.463l1.449,4.347"/>
<path fill="#B2B2B2" stroke="#000000" stroke-width="2" d="M27.53,17.389h-4.927v9.273h4.927V17.389z"/>
<path fill="#B2B2B2" stroke="#000000" stroke-width="2" d="M73.172,17.389h-5.217v9.273h5.217V17.389z"/>
<path fill="#999999" d="M27.53,28.835h6.23v-4.347h-6.23V28.835z"/>
<path fill="#999999" d="M73.172,28.835h6.23v-4.347h-6.23V28.835z"/>
<path fill="#CCCCCC" d="M73.172,9.709h6.23v14.779h-6.23V9.709z"/>
<path fill="#CCCCCC" d="M27.53,9.709h6.23v14.779h-6.23V9.709z"/>
<path fill="#666666" d="M13.765,31.009h25.791v61.29H13.765V31.009z"/>
<path fill="#666666" d="M59.552,31.009h25.646v61.29H59.552V31.009z"/>
<path fill="#7A7A7A" d="M61.435,31.009h21.733v61.29H61.435V31.009z"/>
<path fill="#7A7A7A" d="M15.938,31.009h21.734v61.29H15.938V31.009z"/>
<path fill="#919191" d="M17.677,31.009h17.967v61.29H17.677V31.009z"/>
<path fill="#919191" d="M63.318,31.009h17.967v61.29H63.318V31.009z"/>
<path fill="#A6A6A6" d="M65.202,31.009h14.2v61.29h-14.2V31.009z"/>
<path fill="#A6A6A6" d="M19.56,31.009h14.2v61.29h-14.2V31.009z"/>
<path fill="#BABABA" d="M21.444,31.009h10.433v61.29H21.444V31.009z"/>
<path fill="#BABABA" d="M67.086,31.009h10.433v61.29H67.086V31.009z"/>
<path fill="#D1D1D1" d="M69.114,31.009h6.521v61.29h-6.521V31.009z"/>
<path fill="#D1D1D1" d="M23.328,31.009h6.955v61.29h-6.955V31.009z"/>
<path fill="#E5E5E5" d="M25.356,31.009h2.753v61.29h-2.753V31.009z"/>
<path fill="#E5E5E5" d="M70.998,31.009h2.608v61.29h-2.608V31.009z"/>
<circle fill="#B2B2B2" stroke="#000000" stroke-width="2" cx="26.805" cy="79.258" r="6.375"/>
<circle fill="#B2B2B2" stroke="#000000" stroke-width="2" cx="72.157" cy="79.258" r="6.375"/>
<path fill="#CCCCCC" d="M60.855,42.6h22.894v22.603H60.855V42.6z"/>
<path fill="#CCCCCC" d="M15.504,42.6h22.604v22.603H15.504V42.6z"/>
<path fill="#C7C7C7" d="M15.504,58.684l22.604-9.563v16.083H15.504V58.684z"/>
<path fill="#C7C7C7" d="M60.855,58.684l22.894-9.563v16.083H60.855V58.684z"/>
<path fill="#C2C2C2" d="M60.855,59.553l22.894-9.563v15.213H60.855V59.553z"/>
<path fill="#C2C2C2" d="M15.504,59.553l22.604-9.563v15.213H15.504V59.553z"/>
<path fill="#BDBDBD" d="M15.504,60.857l22.604-9.274v13.62H15.504V60.857z"/>
<path fill="#BDBDBD" d="M60.855,60.857l22.894-9.274v13.62H60.855V60.857z"/>
<path fill="none" stroke="#FFFFFF" stroke-width="2" d="M60.855,65.203V42.6h22.894"/>
<path fill="none" stroke="#FFFFFF" stroke-width="2" d="M15.504,65.203V42.6h22.604"/>
<path fill="none" stroke="#000000" stroke-width="2" d="M60.855,65.203h22.894V42.6"/>
<path fill="none" stroke="#000000" stroke-width="2" d="M15.504,65.203h22.604V42.6"/>
<path fill="#E5E5E5" d="M67.955,46.078h8.694v1.304h-8.694V46.078z"/>
<path fill="#E5E5E5" d="M22.603,46.078h8.404v1.304h-8.404V46.078z"/>
<path fill="#7F7F7F" stroke="#000000" stroke-width="2" d="M10.288,34.631h3.042v47.525h-3.042V34.631z"/>
<path fill="#7F7F7F" stroke="#000000" stroke-width="2" d="M55.929,34.631h2.753v47.525h-2.753V34.631z"/>
<path fill="#CCCCCC" stroke="#000000" stroke-width="2" d="M55.059,37.384h4.492v14.925h-4.492V37.384z"/>
<path fill="#CCCCCC" stroke="#000000" stroke-width="2" d="M9.708,37.384h4.058v14.925H9.708V37.384z"/>
<path fill="#CCCCCC" d="M4.057,92.299h136.489v4.057H4.057V92.299z"/>
<path fill="#B2B2B2" d="M4.057,99.398h136.489v-3.043H4.057V99.398z"/>
<path fill="#333333" d="M6.81,97.949h8.693v-1.594H6.81V97.949z"/>
<path fill="#333333" d="M38.107,97.949h8.549v-1.594h-8.549V97.949z"/>
<path fill="#333333" d="M52.306,97.949h8.549v-1.594h-8.549V97.949z"/>
<path fill="#333333" d="M83.749,97.949h8.549v-1.594h-8.549V97.949z"/>
<path fill="#333333" d="M97.948,97.949h8.549v-1.594h-8.549V97.949z"/>
<path fill="#333333" d="M129.1,97.949h8.839v-1.594H129.1V97.949z"/>
<path fill="none" stroke="#000000" stroke-width="2" d="M73.172,9.709h6.23v19.126h-6.23V9.709"/>
<path fill="none" stroke="#000000" stroke-width="2" d="M27.53,9.709h6.23v19.126h-6.23V9.709"/>
<path fill="none" stroke="#333333" stroke-width="2" d="M95.051,92.299v7.1"/>
<path fill="none" stroke="#333333" stroke-width="2" d="M4.057,96.355h136.489"/>
<path fill="none" stroke="#333333" stroke-width="2" d="M49.553,92.299v7.1"/>
<path fill="none" stroke="#000000" stroke-width="2" d="M4.057,92.299h136.489v7.1H4.057V92.299"/>
<path fill="none" stroke="#000000" stroke-width="2" d="M59.552,31.009h25.646v61.29H59.552V31.009"/>
<path fill="none" stroke="#000000" stroke-width="2" d="M59.552,33.762h25.646"/>
<path fill="none" stroke="#000000" stroke-width="2" d="M59.552,89.256h25.646"/>
<path fill="none" stroke="#000000" stroke-width="2" d="M13.765,31.009h25.791v61.29H13.765V31.009"/>
<path fill="none" stroke="#000000" stroke-width="2" d="M13.765,33.762h25.791"/>
<path fill="none" stroke="#000000" stroke-width="2" d="M13.765,89.256h25.791"/>
<path fill="#CCCCCC" stroke="#000000" stroke-width="2" d="M95.775,58.104h4.347v34.195h-4.347V58.104z"/>
<path fill="#CCCCCC" stroke="#000000" stroke-width="2" d="M105.048,58.104h4.058v34.195h-4.058V58.104z"/>
<path fill="#CCCCCC" stroke="#000000" stroke-width="2" d="M114.321,58.104h4.202v34.195h-4.202V58.104z"/>
<path fill="#CCCCCC" d="M119.827,46.657h19.416v45.642h-19.416V46.657z"/>
<path fill="#D4D4D4" d="M121.421,46.657h16.519v45.642h-16.519V46.657z"/>
<path fill="#DEDEDE" d="M122.87,46.657h13.33v45.642h-13.33V46.657z"/>
<path fill="#E5E5E5" d="M124.174,46.657h10.723v45.642h-10.723V46.657z"/>
<path fill="#EDEDED" d="M125.623,46.657h7.969v45.642h-7.969V46.657z"/>
<path fill="#F7F7F7" d="M127.217,46.657h4.927v45.642h-4.927V46.657z"/>
<path fill="#FFFFFF" d="M128.666,46.657h1.884v45.642h-1.884V46.657z"/>
<path fill="none" stroke="#000000" stroke-width="2" d="M119.827,46.657h19.416v45.642h-19.416V46.657"/>
<path d="M119.827,46.657h19.416v2.898h-19.416V46.657z"/>
<path fill="#CCCCCC" d="M101.86,7.536h8.983v13.331h-8.983V7.536z"/>
<path fill="#CCCCCC" d="M119.827,30.284h8.983v13.62h-8.983V30.284z"/>
<path fill="#CCCCCC" stroke="#000000" stroke-width="2" d="M95.775,23.909h22.748v34.195H95.775V23.909z"/>
<path fill="#C7C7C7" d="M101.86,17.099l8.983-5.651v9.418h-8.983V17.099z"/>
<path fill="#C7C7C7" d="M119.827,39.847l8.983-5.506v9.563h-8.983V39.847z"/>
<path fill="#C7C7C7" d="M95.775,48.251l22.748-14.489v24.342H95.775V48.251z"/>
<path fill="#C2C2C2" d="M101.86,17.678l8.983-5.795v8.983h-8.983V17.678z"/>
<path fill="#C2C2C2" d="M119.827,40.427l8.983-5.506v8.983h-8.983V40.427z"/>
<path fill="#C2C2C2" d="M95.775,49.555L118.523,35.5v22.603H95.775V49.555z"/>
<path fill="#BDBDBD" d="M101.86,18.548l8.983-5.506v7.824h-8.983V18.548z"/>
<path fill="#BDBDBD" d="M119.827,41.441l8.983-5.796v8.259h-8.983V41.441z"/>
<path fill="#BDBDBD" d="M95.775,51.874l22.748-14.49v20.72H95.775V51.874z"/>
<path fill="none" stroke="#000000" stroke-width="2" d="M101.86,7.536h8.983v13.331h-8.983V7.536"/>
<path fill="none" stroke="#000000" stroke-width="2" d="M119.827,30.284h8.983v13.62h-8.983V30.284"/>
<path fill="#E5E5E5" d="M102.15,31.878h9.998v-2.173h-9.998V31.878z"/>
<path fill="#FFB27F" d="M20.865,55.061h11.591v3.043H20.865V55.061z"/>
<path fill="#FFB27F" d="M66.507,55.061h11.591v3.043H66.507V55.061z"/>
<path fill="#FFB27F" d="M102.15,32.458h9.998V35.5h-9.998V32.458z"/>
<path fill="#FFB27F" d="M123.739,34.631h1.884v1.594h-1.884V34.631z"/>
<path fill="#191919" d="M123.739,34.631h1.884v-1.739h-1.884V34.631z"/>
<path fill="#191919" d="M102.15,32.458h9.998v-0.58h-9.998V32.458z"/>
<path fill="#191919" d="M23.183,47.961h7.1v6.521h-7.1V47.961z"/>
<path fill="#191919" d="M68.679,47.961h7.245v6.521h-7.245V47.961z"/>
<path fill="#6699FF" d="M69.549,50.135h5.507v3.622h-5.507V50.135z"/>
<path fill="#6699FF" d="M23.907,50.135h5.796v3.622h-5.796V50.135z"/>
</svg>
