<?xml version="1.0" encoding="utf-8"?>
<!-- Generator: Adobe Illustrator 14.0.0, SVG Export Plug-In . SVG Version: 6.00 Build 43363)  -->
<!DOCTYPE svg PUBLIC "-//W3C//DTD SVG 1.1//EN" "http://www.w3.org/Graphics/SVG/1.1/DTD/svg11.dtd">
<svg version="1.1" id="图层_1" xmlns="http://www.w3.org/2000/svg" xmlns:xlink="http://www.w3.org/1999/xlink" x="0px" y="0px"
	 width="106.395px" height="106.502px" viewBox="0 0 106.395 106.502" enable-background="new 0 0 106.395 106.502"
	 xml:space="preserve">
<path fill="#7F7F7F" d="M76.331,7.25v91.896H30.277V7.25l2.238-1.813L35.5,4.585l3.092-0.64l3.625-0.427l3.091-0.213l3.306-0.214
	l2.345-0.106h1.173h1.173h3.518l3.305,0.213l3.092,0.214l2.879,0.319l3.411,0.533l2.879,0.64l2.559,0.853l1.386,1.279V7.25z"/>
<path fill="#999999" d="M72.493,7.144v92.108H34.008v-2.878V81.982v-5.757V27.292v-5.757V7.144l0.106-0.427l2.238-1.6l3.306-0.959
	l2.878-0.533l3.198-0.319l3.625-0.214l1.919-0.106h1.919h2.025l3.731,0.213l3.411,0.214l3.092,0.533l3.731,0.853l2.878,1.492
	l0.32,0.427L72.493,7.144z"/>
<path fill="#B2B2B2" d="M68.762,7.144v92.108H37.74v-2.878V81.982l0.106-5.757V27.292l-0.106-5.757V7.144l0.106-0.427l2.559-1.919
	l2.984-0.853l3.838-0.64l2.879-0.214l1.599-0.106h1.493h1.599l2.985,0.213l4.051,0.427l3.305,0.853l2.879,1.387l0.64,0.853
	L68.762,7.144z"/>
<path fill="#CCCCCC" d="M64.924,7.144v92.108H41.577v-2.878V81.982v-5.757V27.292v-5.757V7.144l1.919-2.346l3.198-1.173l3.091-0.427
	l2.239-0.213h1.173h1.279l3.305,0.32l2.878,0.64l2.879,1.172l1.279,1.6L64.924,7.144z"/>
<path fill="#E5E5E5" d="M61.193,7.144v92.108H45.308v-2.878V81.982v-5.757V27.292v-5.757V7.144l1.387-2.346l2.771-1.386l2.985-0.427
	h0.746h0.853l2.985,0.427l2.771,1.386l1.386,1.919V7.144z"/>
<path fill="#FFFFFF" d="M57.355,7.25v91.896h-8.315V7.25l0.106-0.854l0.214-0.746l0.426-0.746l0.533-0.64l0.533-0.533l0.746-0.426
	l0.854-0.214l0.853-0.106l0.853,0.106l0.746,0.214l0.64,0.426l0.533,0.533l0.533,0.64l0.427,0.746l0.213,0.746L57.355,7.25z"/>
<path fill="none" stroke="#000000" stroke-width="2" d="M76.331,7.25v91.896H30.277V7.25l2.238-1.813L35.5,4.585l3.092-0.64
	l3.625-0.427l3.091-0.213l3.306-0.214l2.345-0.106h1.173h1.173h3.518l3.305,0.213l3.092,0.214l2.879,0.319l3.411,0.533l2.879,0.64
	l2.559,0.853l1.386,1.279V7.25"/>
<path fill="#999999" stroke="#000000" stroke-width="2" d="M2.985,99.146h100.425v4.265H2.985V99.146z"/>
<path fill="#999999" stroke="#000000" stroke-width="2" d="M9.381,86.566h16.631v2.133H9.381V86.566z"/>
<path fill="#999999" stroke="#000000" stroke-width="2" d="M72.067,23.881h6.184v23.027h-6.184V23.881z"/>
<path fill="#7F7F7F" d="M28.145,34.115v42.003H7.249V34.115l0.106-0.214l2.879-1.065l3.305-0.427l3.092-0.213h3.092l3.73,0.319
	l2.879,0.64l1.705,0.746L28.145,34.115z"/>
<path fill="#999999" d="M26.332,34.222v41.79H8.849v-1.279V34.222l0.106-0.214l0.106-0.213l2.985-1.066l2.984-0.319l0.854-0.106
	h0.853h0.853l3.411,0.106l3.306,0.533l1.919,0.853l0.106,0.213V34.222z"/>
<path fill="#B2B2B2" d="M24.626,34.222v41.79H10.554v-1.279V68.23l0.106-3.944V43.39l-0.106-3.944v-5.224l2.559-1.493l3.092-0.426
	h0.746h0.64l3.411,0.213l2.772,0.746l0.853,0.746V34.222z"/>
<path fill="#CCCCCC" d="M22.92,34.222v41.79H12.26V68.23l0.106-3.944V43.39l-0.106-3.944v-5.224l0.106-0.427l3.198-1.386
	l2.025-0.106l2.985,0.319l2.238,1.173L22.92,34.222z"/>
<path fill="#E5E5E5" d="M21.215,34.222v41.79h-7.249V68.23l0.106-3.944V43.39l-0.106-3.944v-5.224l0.106-0.427l2.771-1.492h0.746
	l2.985,0.853l0.64,0.64V34.222z"/>
<path fill="#FFFFFF" d="M19.615,34.115v42.003h-3.838V34.115l0.107-0.32l0.106-0.319l0.106-0.32l0.213-0.319l0.32-0.32l0.319-0.106
	l0.32-0.213h0.426h0.427l0.32,0.213l0.319,0.106l0.32,0.32l0.213,0.319l0.106,0.32l0.106,0.319L19.615,34.115z"/>
<path fill="none" stroke="#000000" stroke-width="2" d="M28.145,34.115v42.003H7.249V34.115l0.106-0.214l2.879-1.065l3.305-0.427
	l3.092-0.213h3.092l3.73,0.319l2.879,0.64l1.705,0.746L28.145,34.115"/>
<path fill="#7F7F7F" stroke="#000000" stroke-width="2" d="M7.249,65.138h2.132v34.008H7.249V65.138z"/>
<path fill="#7F7F7F" stroke="#000000" stroke-width="2" d="M26.012,65.138h2.133v34.008h-2.133V65.138z"/>
<path fill="#7F7F7F" stroke="#000000" stroke-width="2" d="M75.798,17.698h1.386V4.371l-1.386-1.386V17.698z"/>
<path fill="#7F7F7F" stroke="#000000" stroke-width="2" d="M78.25,46.908h2.132V26.013l-2.132-2.132V46.908z"/>
<path fill="#B2B2B2" stroke="#000000" stroke-width="2" d="M13.433,68.869h8.315v8.315h-8.315V68.869z"/>
<path fill="#B2B2B2" stroke="#000000" stroke-width="2" d="M72.067,2.986h3.731v14.712h-3.731V2.986z"/>
<path fill="#E5E5E5" stroke="#000000" stroke-width="2" d="M13.433,68.869h8.315v-1.066h-8.315V68.869z"/>
<path fill="#666666" stroke="#000000" stroke-width="2" d="M28.145,71.534l1.492-3.305l2.238-2.879l2.772-2.345l3.198-2.133
	l3.624-1.705l3.838-1.386l3.945-1.279l4.051-1.066l4.051-0.96l3.838-0.853l3.519-0.959l3.198-0.854l2.665-0.959l2.878-1.706
	l1.066-1.386l0.213-0.853h0.214h1.492h0.213l-0.533,0.959l-2.559,2.452l-2.451,1.386l-2.985,1.066l-3.305,1.065l-3.625,0.96
	l-3.838,0.853l-3.944,0.96l-4.051,1.065l-3.944,1.279l-3.731,1.387l-3.519,1.812l-3.305,2.026l-2.771,2.558l-2.239,2.985l-0.959,1.6
	l-0.746,1.812V72.92V71.534z"/>
<path fill="#4C4C4C" stroke="#000000" stroke-width="2" d="M74.198,13.433h-7.462v68.549H21.215v-7.249h-1.919v9.382h49.572V15.566
	h5.33V13.433z"/>
<path fill="#4C4C4C" d="M17.59,47.974l-0.746-0.319l-0.213-0.746l0.213-0.64l0.746-0.32l0.746,0.32l0.32,0.64l-0.32,0.746
	L17.59,47.974z"/>
<path fill="#4C4C4C" d="M17.59,54.264l-0.746-0.319l-0.213-0.747l0.213-0.746l0.746-0.319l0.746,0.319l0.32,0.746l-0.32,0.747
	L17.59,54.264z"/>
</svg>
