<?xml version="1.0" encoding="utf-8"?>
<!-- Generator: Adobe Illustrator 14.0.0, SVG Export Plug-In . SVG Version: 6.00 Build 43363)  -->
<!DOCTYPE svg PUBLIC "-//W3C//DTD SVG 1.1//EN" "http://www.w3.org/Graphics/SVG/1.1/DTD/svg11.dtd">
<svg version="1.1" id="图层_1" xmlns="http://www.w3.org/2000/svg" xmlns:xlink="http://www.w3.org/1999/xlink" x="0px" y="0px"
	 width="78.357px" height="106.502px" viewBox="0 0 78.357 106.502" enable-background="new 0 0 78.357 106.502"
	 xml:space="preserve">
<path fill="#657F65" stroke="#000000" stroke-width="2" d="M67.91,64.711v23.241h-5.225v12.899l10.661-8.422V66.844h1.919v-2.133
	H67.91z"/>
<path fill="#BFB299" stroke="#000000" stroke-width="2" d="M8.422,103.41v-1.599l0.96-2.559h6.396l1.065,2.559v1.599H8.422z"/>
<path fill="#F2E5CC" stroke="#000000" stroke-width="2" d="M4.157,75.266v-1.599l0.96-2.559h6.503l0.96,2.559v1.599H4.157z"/>
<circle fill="#BFB299" stroke="#000000" stroke-width="2" cx="12.687" cy="95.522" r="5.33"/>
<path fill="#BFB299" stroke="#000000" stroke-width="2" d="M13.752,98.4l-0.746,0.214h-0.853L11.407,98.4l-0.854-0.319l-0.532-0.64
	l-0.427-0.64l-0.213-0.746v-6.823h6.396v6.823l-0.214,0.746l-0.319,0.64l-0.64,0.64L13.752,98.4z"/>
<path fill="#99CC99" stroke="#000000" stroke-width="2" d="M15.779,7.143h19.083V5.011l10.66-2.026l23.561,4.158v59.701
	l-2.238,2.025v8.422h-2.133v8.636h-16.95v-0.96H24.84l-1.6,0.96h-4.584l-2.665,2.025l-0.213,0.853v0.427H9.382l0.64-4.478
	l2.771-3.411l4.051-1.813h30.917v-2.239h-2.239v-8.422l-1.919-2.025V41.365h-8.741V17.804h-4.158v2.238l-2.025,4.265h-2.239
	l-2.132-4.265v-2.238h-2.025v40.404L7.356,72.068l-4.371-5.224V7.143h6.397v54.264l-1.6,1.6l7.996-7.356v-1.599l-4.158-4.265V11.407
	l1.813-3.306L15.779,7.143z"/>
<circle fill="#F2E5CC" stroke="#000000" stroke-width="2" cx="8.422" cy="67.27" r="5.331"/>
<path fill="#F2E5CC" stroke="#000000" stroke-width="2" d="M7.356,70.149L6.61,69.722l-0.64-0.64l-0.427-0.746L5.33,67.484V66.63
	l0.213-0.746l0.427-0.64l4.798-4.797l4.478,4.371l-4.904,4.903l-0.533,0.427l-0.853,0.106H8.102L7.356,70.149z"/>
<path fill="#98B2E5" stroke="#000000" stroke-width="2" d="M26.439,24.307v25.479l14.926,14.925h2.238v-2.238h-1.705l-13.22-13.646
	v-24.52H26.439z"/>
<path fill="none" stroke="#000000" stroke-width="2" d="M24.307,20.042h6.396"/>
<path fill="none" stroke="#000000" stroke-width="2" d="M15.779,54.051h6.503"/>
<path fill="none" stroke="#000000" stroke-width="2" d="M47.761,79.531v5.437"/>
<path fill="none" stroke="#000000" stroke-width="2" d="M23.24,85.927v-6.396"/>
<path fill="none" stroke="#000000" stroke-width="2" d="M24.84,84.967v-5.437"/>
<path fill="none" stroke="#000000" stroke-width="2" d="M43.603,65.244h25.479"/>
<path fill="none" stroke="#000000" stroke-width="2" d="M43.603,62.046h25.479"/>
<path fill="none" stroke="#000000" stroke-width="2" d="M4.157,73.667h8.423"/>
<path fill="none" stroke="#000000" stroke-width="2" d="M8.422,101.812h8.422"/>
<path fill="#CC9933" stroke="#000000" stroke-width="2" d="M61.194,71.322l-3.411,0.213h-3.198l-3.198-0.213l-2.985-0.64
	l-2.452-0.853l-1.6-0.96l-0.746-0.96v-1.065h25.479v1.065l-0.959,0.96l-1.6,0.96l-2.452,0.853L61.194,71.322z"/>
<path fill="#98B2E5" d="M50.426,8.102v1.706h-8.528V8.102H50.426z"/>
<path fill="#98B2E5" d="M48.827,32.089h1.599v29.957h-1.599V32.089z"/>
<path fill="#98B2E5" d="M48.827,33.689h-8.423v-1.6h8.423V33.689z"/>
<path fill="#98B2E5" d="M64.711,7.143h1.6v54.903h-1.6V7.143z"/>
<path fill="#98B2E5" d="M61.62,6.61h1.599v55.437H61.62V6.61z"/>
<path fill="#98B2E5" d="M58.422,6.183h1.599v55.863h-1.599V6.183z"/>
<path fill="#98B2E5" d="M55.224,5.543h1.599v56.503h-1.599V5.543z"/>
<path fill="#98B2E5" d="M52.026,8.102h1.599v53.944h-1.599V8.102z"/>
<path fill="#98B2E5" d="M52.026,9.808H41.898V8.102h10.128V9.808z"/>
<circle fill="#98B2E5" stroke="#000000" stroke-width="2" cx="41.898" cy="13.432" r="5.331"/>
<circle fill="#98B2E5" stroke="#000000" stroke-width="2" cx="41.898" cy="32.836" r="5.331"/>
</svg>
