<?xml version="1.0" encoding="utf-8"?>
<!-- Generator: Adobe Illustrator 14.0.0, SVG Export Plug-In . SVG Version: 6.00 Build 43363)  -->
<!DOCTYPE svg PUBLIC "-//W3C//DTD SVG 1.1//EN" "http://www.w3.org/Graphics/SVG/1.1/DTD/svg11.dtd">
<svg version="1.1" id="图层_1" xmlns="http://www.w3.org/2000/svg" xmlns:xlink="http://www.w3.org/1999/xlink" x="0px" y="0px"
	 width="102.233px" height="106.502px" viewBox="0 0 102.233 106.502" enable-background="new 0 0 102.233 106.502"
	 xml:space="preserve">
<path fill="#B2B2B2" d="M7.143,28.039h92.105v75.369H7.143V28.039z"/>
<path fill="#BFBFBF" d="M7.143,28.039h92.105v56.5L7.143,92.961V28.039z"/>
<path fill="#CCCCCC" d="M7.143,28.039h92.105v52.343L7.143,88.804V28.039z"/>
<path fill="#D9D9D9" d="M7.143,28.039h92.105v44.027L7.143,80.382V28.039z"/>
<path fill="#E5E5E5" d="M7.143,28.039h92.105v25.158L7.143,61.619V28.039z"/>
<path fill="none" stroke="#000000" stroke-width="2" d="M7.143,28.039h92.105v75.369H7.143V28.039"/>
<path fill="#7F7F7F" d="M15.564,2.988h29.209v25.052H15.564V2.988z"/>
<path fill="#999999" d="M17.376,2.988h25.585v25.052H17.376V2.988z"/>
<path fill="#B2B2B2" d="M20.361,2.988h19.615v25.052H20.361V2.988z"/>
<path fill="#CCCCCC" d="M21.641,2.988h17.057v25.052H21.641V2.988z"/>
<path fill="#E5E5E5" d="M25.905,2.988h8.528v25.052h-8.528V2.988z"/>
<path fill="none" stroke="#000000" stroke-width="2" d="M15.564,2.988h29.209v25.052H15.564V2.988"/>
<path fill="#CCCCCC" stroke="#000000" stroke-width="2" d="M2.985,36.461h4.158v16.736H2.985V36.461z"/>
<path fill="#999999" stroke="#000000" stroke-width="2" d="M2.985,67.803h4.158v10.554H2.985V67.803z"/>
<path fill="#7F7F7F" d="M11.3,19.725h2.132v71.104H11.3V19.725z"/>
</svg>
