<?xml version="1.0" encoding="utf-8"?>
<!-- Generator: Adobe Illustrator 14.0.0, SVG Export Plug-In . SVG Version: 6.00 Build 43363)  -->
<!DOCTYPE svg PUBLIC "-//W3C//DTD SVG 1.1//EN" "http://www.w3.org/Graphics/SVG/1.1/DTD/svg11.dtd">
<svg version="1.1" id="图层_1" xmlns="http://www.w3.org/2000/svg" xmlns:xlink="http://www.w3.org/1999/xlink" x="0px" y="0px"
	 width="144.749px" height="103.018px" viewBox="0 0 144.749 103.018" enable-background="new 0 0 144.749 103.018"
	 xml:space="preserve">
<path d="M112.002,35.788h2.318v24.486h-2.318V35.788z"/>
<path d="M116.204,37.672h-1.884v-1.884h3.768v24.486h-1.884V37.672z"/>
<path fill="#333333" stroke="#000000" stroke-width="2" d="M106.931,23.183h3.188v24.776h-3.188V23.183z"/>
<path fill="#324C7F" stroke="#000000" stroke-width="2" d="M106.061,76.357h20.285l1.159-4.057l4.057-0.87V56.073l-8.259-4.057
	h-5.506l-3.478,3.042h-8.259V76.357z"/>
<path fill="#191919" stroke="#000000" stroke-width="2" d="M52.017,4.057h6.085v1.014h-6.085V4.057z"/>
<path fill="#191919" stroke="#000000" stroke-width="2" d="M93.746,4.057h6.23v1.014h-6.23V4.057z"/>
<path fill="#B2B2B2" d="M4.058,5.071h102.583v89.688H4.058V5.071z"/>
<path fill="#ADADAD" d="M4.058,48.684l102.583-37.527v63.607H4.058V48.684z"/>
<path fill="#A8A8A8" d="M4.058,69.258l102.583-37.527v59.84H4.058V69.258z"/>
<path fill="#A3A3A3" d="M4.058,89.542l102.583-37.525v42.742H4.058V89.542z"/>
<path fill="none" stroke="#000000" stroke-width="2" d="M4.058,5.071h102.583v89.688H4.058V5.071"/>
<path fill="#191919" stroke="#000000" stroke-width="2" d="M4.058,98.96h136.487v-4.201H4.058V98.96z"/>
<path fill="#B2B2B2" d="M106.931,29.558h5.07v11.736h-5.07V29.558z"/>
<path fill="#ADADAD" d="M106.931,35.208l5.07-4.926v8.548h-5.07V35.208z"/>
<path fill="#A8A8A8" d="M106.931,37.961l5.07-4.926v7.969h-5.07V37.961z"/>
<path fill="#A3A3A3" d="M106.931,40.714l5.07-4.926v5.506h-5.07V40.714z"/>
<path fill="none" stroke="#000000" stroke-width="2" d="M106.931,29.558h5.07v11.736h-5.07V29.558"/>
<path fill="#333333" stroke="#000000" stroke-width="2" d="M106.931,65.925h3.188l6.085,24.777h-9.272V65.925z"/>
<path fill="#98B2E5" d="M106.641,68.389h19.705v20.43h-19.705V68.389z"/>
<path fill="#93ADE0" d="M106.641,78.386l19.705-8.549v14.199h-19.705V78.386z"/>
<path fill="#8EA8DB" d="M106.641,83.022l19.705-8.549v13.475h-19.705V83.022z"/>
<path fill="#89A3D6" d="M106.641,87.659l19.705-8.838v9.997h-19.705V87.659z"/>
<path fill="none" stroke="#000000" stroke-width="2" d="M106.641,68.389h19.705v20.43h-19.705V68.389"/>
</svg>
