<?xml version="1.0" encoding="utf-8"?>
<!-- Generator: Adobe Illustrator 14.0.0, SVG Export Plug-In . SVG Version: 6.00 Build 43363)  -->
<!DOCTYPE svg PUBLIC "-//W3C//DTD SVG 1.1//EN" "http://www.w3.org/Graphics/SVG/1.1/DTD/svg11.dtd">
<svg version="1.1" id="图层_1" xmlns="http://www.w3.org/2000/svg" xmlns:xlink="http://www.w3.org/1999/xlink" x="0px" y="0px"
	 width="115.646px" height="106.502px" viewBox="0 0 115.646 106.502" enable-background="new 0 0 115.646 106.502"
	 xml:space="preserve">
<path fill="#7F7F7F" d="M3.241,3.241h109.048V103.26H3.241V3.241z"/>
<path fill="#4C4C4C" d="M3.241,103.26V62.281h4.746V5.442H3.241v-2.2h109.048v2.2h-4.283v56.839h4.283v40.979H3.241z"/>
<path stroke="#000000" stroke-width="2" d="M10.072,62.281V5.442h95.388v56.839H10.072z"/>
<path fill="#7F7F7F" d="M3.241,103.26V91.915h109.048v11.345H3.241z"/>
<path fill="#7F7F7F" d="M32.761,89.601V78.256H53.25v11.345H32.761z"/>
<path fill="#7F7F7F" d="M55.566,89.601V78.256H75.94v11.345H55.566z"/>
<path fill="#7F7F7F" d="M78.255,89.601V78.256h20.49v11.345H78.255z"/>
<path fill="#7F7F7F" d="M78.255,75.941V64.596h20.49v11.345H78.255z"/>
<path fill="#7F7F7F" d="M55.566,75.941V64.596H75.94v11.345H55.566z"/>
<path fill="#7F7F7F" d="M32.761,75.941V64.596H53.25v11.345H32.761z"/>
<path fill="#7F7F7F" d="M10.072,75.941V64.596h20.374v11.345H10.072z"/>
<path fill="#7F7F7F" d="M10.072,89.601V78.256h20.374v11.345H10.072z"/>
<path fill="#E5E5E5" d="M70.268,79.761l-4.515,7.524l-4.515-7.524H70.268z"/>
<path fill="#E5E5E5" d="M38.433,87.285l4.515-7.524l4.631,7.524H38.433z"/>
<path fill="none" stroke="#000000" stroke-width="2" d="M3.241,3.241h109.048V103.26H3.241V3.241"/>
<path fill="none" stroke="#B2B2B2" stroke-width="2" d="M10.072,62.281h95.388V5.442"/>
</svg>
