<?xml version="1.0" encoding="utf-8"?>
<!-- Generator: Adobe Illustrator 14.0.0, SVG Export Plug-In . SVG Version: 6.00 Build 43363)  -->
<!DOCTYPE svg PUBLIC "-//W3C//DTD SVG 1.1//EN" "http://www.w3.org/Graphics/SVG/1.1/DTD/svg11.dtd">
<svg version="1.1" id="图层_1" xmlns="http://www.w3.org/2000/svg" xmlns:xlink="http://www.w3.org/1999/xlink" x="0px" y="0px"
	 width="78.25px" height="106.502px" viewBox="0 0 78.25 106.502" enable-background="new 0 0 78.25 106.502" xml:space="preserve">
<path fill="#666638" stroke="#000000" stroke-width="2" d="M63.218,103.409l8.103-3.944v-4.051l-8.103,4.051V103.409z"/>
<path fill="#CCCCBD" stroke="#000000" stroke-width="2" d="M2.985,6.931H67.27v92.534H2.985V6.931z"/>
<path fill="#C4C4B2" d="M3.305,99.039h63.538V47.121L3.305,60.554V99.039z"/>
<path fill="#BABAA6" d="M3.305,99.039h63.538v-41.79L3.305,70.574V99.039z"/>
<path fill="#B2B29B" d="M3.305,99.039h63.538V65.244L3.305,78.677V99.039z"/>
<path fill="#7F7F59" stroke="#000000" stroke-width="2" d="M6.93,99.465h56.288v3.944H6.93V99.465z"/>
<path fill="#D4D4C7" stroke="#000000" stroke-width="2" d="M39.125,27.079h24.093V37.1H39.125V27.079z"/>
<path fill="#D4D4C7" stroke="#000000" stroke-width="2" d="M39.125,39.126h24.093v16.098H39.125V39.126z"/>
<path fill="#D4D4C7" stroke="#000000" stroke-width="2" d="M5.011,35.074h13.965v30.17H5.011V35.074z"/>
<path fill="#E5E5DD" stroke="#000000" stroke-width="2" d="M2.985,6.931l7.996-3.945h64.284L67.27,6.931H2.985z"/>
<path fill="#B2B29B" stroke="#000000" stroke-width="2" d="M67.27,99.465l7.995-4.051V2.986L67.27,6.931V99.465z"/>
<path fill="none" stroke="#000000" stroke-width="2" d="M13.006,51.918h3.305v3.306h-3.305V51.918"/>
<path fill="none" stroke="#000000" stroke-width="2" d="M13.006,47.015h3.305v3.198h-3.305V47.015"/>
<path fill="none" stroke="#000000" stroke-width="2" d="M13.006,42.004h3.305v3.305h-3.305V42.004"/>
<path fill="none" stroke="#000000" stroke-width="2" d="M13.006,37.1h3.305v3.306h-3.305V37.1"/>
<path fill="none" stroke="#000000" stroke-width="2" d="M6.93,37.1h4.051v26.119H6.93V37.1"/>
<path fill="none" stroke="#000000" stroke-width="2" d="M39.125,75.372h24.093"/>
<path fill="none" stroke="#000000" stroke-width="2" d="M63.218,78.037H39.125"/>
<path fill="none" stroke="#000000" stroke-width="2" d="M39.125,80.702h24.093"/>
<path fill="none" stroke="#000000" stroke-width="2" d="M63.218,83.367H39.125"/>
<path fill="none" stroke="#000000" stroke-width="2" d="M39.125,86.032h24.093"/>
<path fill="none" stroke="#000000" stroke-width="2" d="M63.218,88.698H39.125"/>
<path fill="none" stroke="#000000" stroke-width="2" d="M39.125,91.364h24.093"/>
<path fill="none" stroke="#000000" stroke-width="2" d="M35.074,99.465V23.029"/>
<path fill="none" stroke="#000000" stroke-width="2" d="M2.985,13.007H67.27"/>
<path fill="none" stroke="#000000" stroke-width="2" d="M2.985,16.418H67.27"/>
<path fill="none" stroke="#000000" stroke-width="2" d="M2.985,19.723H67.27"/>
<path fill="none" stroke="#000000" stroke-width="2" d="M2.985,23.029H67.27"/>
<path fill="none" stroke="#000000" stroke-width="2" d="M41.15,35.181h20.148"/>
<path fill="none" stroke="#000000" stroke-width="2" d="M61.299,33.902H41.15"/>
<path fill="none" stroke="#000000" stroke-width="2" d="M41.15,32.73h20.148"/>
<path fill="none" stroke="#000000" stroke-width="2" d="M61.299,31.45H41.15"/>
<path fill="none" stroke="#000000" stroke-width="2" d="M41.15,30.278h20.148"/>
<path fill="none" stroke="#000000" stroke-width="2" d="M61.299,29.105H41.15"/>
</svg>
