<?xml version="1.0" encoding="utf-8"?>
<!-- Generator: Adobe Illustrator 14.0.0, SVG Export Plug-In . SVG Version: 6.00 Build 43363)  -->
<!DOCTYPE svg PUBLIC "-//W3C//DTD SVG 1.1//EN" "http://www.w3.org/Graphics/SVG/1.1/DTD/svg11.dtd">
<svg version="1.1" id="图层_1" xmlns="http://www.w3.org/2000/svg" xmlns:xlink="http://www.w3.org/1999/xlink" x="0px" y="0px"
	 width="115.769px" height="106.502px" viewBox="0 0 115.769 106.502" enable-background="new 0 0 115.769 106.502"
	 xml:space="preserve">
<path fill="#4C4C4C" stroke="#000000" stroke-width="2" d="M3.129,3.131h109.396v82.162H3.129V3.131z"/>
<path fill="#4C4C4C" stroke="#000000" stroke-width="2" d="M112.524,21.209H94.446v64.084h18.078V21.209z"/>
<path fill="#4C4C4C" stroke="#000000" stroke-width="2" d="M3.129,103.255h109.396V85.293H3.129V103.255z"/>
<path fill="#4C4C4C" stroke="#000000" stroke-width="2" d="M21.554,21.209H3.129v64.084h18.426V21.209z"/>
<path fill="#191919" stroke="#000000" stroke-width="2" d="M4.288,87.843h107.077v5.91H4.288V87.843z"/>
<path fill="#CCCCCC" stroke="#000000" stroke-width="2" d="M28.16,78.224l-3.013-1.391l-1.275-2.201l-0.115-0.812v-1.158V42.531
	l1.391-3.36l2.201-1.274l0.812-0.116h1.97h57.363l3.013,1.391l1.275,2.434l0.115,0.927v1.159v30.13l-1.391,3.013l-2.201,1.275
	l-0.812,0.115h-1.854H28.16z"/>
<path fill="#333333" stroke="#000000" stroke-width="2" d="M30.362,56.554h25.031l1.043-0.116l1.158-0.811l0.464-1.275l-0.464-1.158
	l-1.158-0.928l-1.043-0.115H30.362l-1.159,0.348l-0.812,1.043l-0.231,0.811l0.231,0.928l0.812,0.927L30.362,56.554z"/>
<path fill="#333333" stroke="#000000" stroke-width="2" d="M30.362,50.296h32.447l2.55-1.738v-0.464l-2.55-2.201H30.362
	l-2.202,2.201L30.362,50.296z"/>
<ellipse fill="#333333" stroke="#000000" stroke-width="2" cx="83.437" cy="48.094" rx="4.056" ry="2.202"/>
<ellipse fill="#333333" stroke="#000000" stroke-width="2" cx="83.437" cy="42.88" rx="4.056" ry="2.202"/>
<ellipse fill="#333333" stroke="#000000" stroke-width="2" cx="83.437" cy="57.249" rx="4.056" ry="2.202"/>
<circle fill="#CCCCCC" cx="35.692" cy="49.369" r="0.463"/>
<circle fill="#CCCCCC" cx="40.096" cy="49.369" r="0.463"/>
<circle fill="#CCCCCC" cx="44.5" cy="49.369" r="0.463"/>
<circle fill="#CCCCCC" cx="49.367" cy="49.369" r="0.58"/>
<circle fill="#CCCCCC" cx="53.77" cy="49.369" r="0.58"/>
<circle fill="#CCCCCC" cx="58.522" cy="49.369" r="0.463"/>
<circle fill="#CCCCCC" cx="62.926" cy="49.369" r="0.463"/>
<circle fill="#CCCCCC" cx="35.692" cy="55.627" r="0.463"/>
<circle fill="#CCCCCC" cx="40.096" cy="55.627" r="0.463"/>
<circle fill="#CCCCCC" cx="44.5" cy="55.627" r="0.463"/>
<circle fill="#CCCCCC" cx="49.367" cy="55.627" r="0.58"/>
<circle fill="#CCCCCC" cx="53.77" cy="55.627" r="0.58"/>
<ellipse fill="#CCCCCC" cx="81.699" cy="57.249" rx="1.274" ry="1.043"/>
<circle fill="#CCCCCC" cx="81.583" cy="42.88" r="1.159"/>
<ellipse fill="#CCCCCC" cx="81.699" cy="47.979" rx="1.274" ry="1.043"/>
<path fill="#0000BF" stroke="#000000" stroke-width="2" d="M3.94,14.604h107.772v6.605H3.94V14.604z"/>
<path fill="#BF0000" stroke="#000000" stroke-width="2" d="M3.129,36.621h14.833v42.762H3.129V36.621z"/>
<path fill="#CCCCCC" stroke="#000000" stroke-width="2" d="M17.962,37.781H4.288v40.443h13.674V37.781z"/>
<path fill="#7F7F7F" stroke="#000000" stroke-width="2" d="M16.456,77.181H9.386v-6.604h7.069V77.181z"/>
<path fill="#7F7F7F" stroke="#000000" stroke-width="2" d="M16.456,69.417H9.386v-6.605h7.069V69.417z"/>
<path fill="#7F7F7F" stroke="#000000" stroke-width="2" d="M16.456,61.653H9.386v-6.605h7.069V61.653z"/>
<path fill="#7F7F7F" stroke="#000000" stroke-width="2" d="M16.456,53.889H9.386v-6.605h7.069V53.889z"/>
<path fill="#7F7F7F" stroke="#000000" stroke-width="2" d="M16.456,46.24H9.386v-6.605h7.069V46.24z"/>
<path fill="#333333" stroke="#000000" stroke-width="2" d="M7.185,72.315l1.043,0.463l0.463,1.043l-0.463,1.043l-1.043,0.464
	L6.142,74.98l-0.695-0.812l-0.116-0.348l0.579-1.043l0.928-0.348L7.185,72.315z"/>
<path fill="#333333" stroke="#000000" stroke-width="2" d="M7.185,64.319l1.043,0.463l0.463,0.928v0.463L8.228,67.1l-1.043,0.463
	l-1.043-0.231l-0.695-0.927l-0.116-0.232l0.348-1.158l0.812-0.58L7.185,64.319z"/>
<path fill="#333333" stroke="#000000" stroke-width="2" d="M7.185,56.554l1.043,0.464l0.463,0.927v0.464l-0.463,0.927l-1.043,0.464
	l-1.043-0.232L5.447,58.64l-0.116-0.231l0.348-1.043L6.49,56.67L7.185,56.554z"/>
<path fill="#333333" stroke="#000000" stroke-width="2" d="M7.185,48.789l1.043,0.464l0.463,1.043v0.348l-0.463,1.043l-1.043,0.464
	l-1.043-0.348l-0.695-0.812l-0.116-0.348l0.348-1.043l0.812-0.695L7.185,48.789z"/>
<path fill="#333333" stroke="#000000" stroke-width="2" d="M7.185,41.141l1.043,0.464l0.463,0.927v0.348l-0.463,1.043l-1.043,0.464
	l-1.043-0.231l-0.695-0.928l-0.116-0.348l0.348-1.043l0.812-0.579L7.185,41.141z"/>
<path fill="#333333" stroke="#000000" stroke-width="2" d="M11.241,3.131h6.721v9.271h-6.721V3.131z"/>
<path fill="#333333" stroke="#000000" stroke-width="2" d="M19.005,3.131h6.953v9.271h-6.953V3.131z"/>
<path fill="#333333" stroke="#000000" stroke-width="2" d="M27.117,3.131h6.953v9.271h-6.953V3.131z"/>
<path fill="#333333" stroke="#000000" stroke-width="2" d="M35.229,3.131h6.605v9.271h-6.605V3.131z"/>
<path fill="#333333" stroke="#000000" stroke-width="2" d="M42.878,3.131h7.068v9.271h-7.068V3.131z"/>
<path fill="#333333" stroke="#000000" stroke-width="2" d="M50.989,3.131h7.069v9.271h-7.069V3.131z"/>
<path fill="#333333" stroke="#000000" stroke-width="2" d="M59.101,3.131h6.605v9.271h-6.605V3.131z"/>
<path fill="#333333" stroke="#000000" stroke-width="2" d="M66.865,3.131h6.953v9.271h-6.953V3.131z"/>
<path fill="#333333" stroke="#000000" stroke-width="2" d="M74.977,3.131h6.953v9.271h-6.953V3.131z"/>
<path fill="#333333" stroke="#000000" stroke-width="2" d="M83.09,3.131h6.605v9.271H83.09V3.131z"/>
<path fill="#333333" stroke="#000000" stroke-width="2" d="M90.738,3.131h6.953v9.271h-6.953V3.131z"/>
<path fill="#333333" stroke="#000000" stroke-width="2" d="M98.849,3.131h6.605v9.271h-6.605V3.131z"/>
<ellipse fill="#191919" cx="14.601" cy="8.809" rx="2.897" ry="2.666"/>
<circle fill="#191919" cx="22.481" cy="8.81" r="2.781"/>
<ellipse fill="#191919" cx="30.362" cy="8.809" rx="2.896" ry="2.666"/>
<ellipse fill="#191919" cx="38.473" cy="8.809" rx="2.897" ry="2.666"/>
<circle fill="#191919" cx="46.354" cy="8.809" r="2.666"/>
<ellipse fill="#191919" cx="54.234" cy="8.809" rx="2.897" ry="2.666"/>
<ellipse fill="#191919" cx="62.346" cy="8.809" rx="2.896" ry="2.666"/>
<circle fill="#191919" cx="70.342" cy="8.81" r="2.781"/>
<ellipse fill="#191919" cx="78.222" cy="8.809" rx="2.896" ry="2.666"/>
<ellipse fill="#191919" cx="86.334" cy="8.809" rx="2.897" ry="2.666"/>
<circle fill="#191919" cx="94.215" cy="8.809" r="2.666"/>
<ellipse fill="#191919" cx="102.094" cy="8.809" rx="2.897" ry="2.666"/>
<path fill="#BF0000" stroke="#000000" stroke-width="2" d="M109.164,86.684h3.36v1.159h-3.36V86.684z"/>
</svg>
