<?xml version="1.0" encoding="utf-8"?>
<!-- Generator: Adobe Illustrator 14.0.0, SVG Export Plug-In . SVG Version: 6.00 Build 43363)  -->
<!DOCTYPE svg PUBLIC "-//W3C//DTD SVG 1.1//EN" "http://www.w3.org/Graphics/SVG/1.1/DTD/svg11.dtd">
<svg version="1.1" id="图层_1" xmlns="http://www.w3.org/2000/svg" xmlns:xlink="http://www.w3.org/1999/xlink" x="0px" y="0px"
	 width="144.749px" height="76.508px" viewBox="0 0 144.749 76.508" enable-background="new 0 0 144.749 76.508"
	 xml:space="preserve">
<path fill="#E5CB7F" d="M4.057,13.912h117.074v53.61H4.057V13.912z"/>
<path fill="#F2E5BF" stroke="#000000" stroke-width="2" d="M4.057,13.912l19.415-9.854h117.074l-19.415,9.854H4.057z"/>
<path fill="#D9B340" stroke="#000000" stroke-width="2" d="M121.132,67.522l19.415-9.708V4.058l-19.415,9.854V67.522z"/>
<path fill="#CC9900" stroke="#000000" stroke-width="2" d="M121.132,21.156l19.415-9.708v7.245l-19.415,9.853V21.156z"/>
<path fill="#D9B340" stroke="#000000" stroke-width="2" d="M4.057,21.156h117.074v7.39H4.057V21.156z"/>
<path fill="none" stroke="#000000" stroke-width="2" d="M28.399,13.912v53.61"/>
<path fill="none" stroke="#000000" stroke-width="2" d="M52.741,13.912v53.61"/>
<path fill="none" stroke="#000000" stroke-width="2" d="M96.644,13.912v53.61"/>
<path fill="none" stroke="#000000" stroke-width="2" d="M72.302,13.912v53.61"/>
<path d="M4.057,67.522v4.927h117.074l19.415-9.854v-4.781l-19.415,9.708H4.057z"/>
<path fill="none" stroke="#000000" stroke-width="2" d="M4.057,13.912h117.074v58.537H4.057V13.912"/>
<path fill="none" stroke="#BF7F00" stroke-width="2" d="M28.399,13.912L47.96,4.058"/>
<path fill="none" stroke="#BF7F00" stroke-width="2" d="M52.741,13.912l19.561-9.854"/>
<path fill="none" stroke="#BF7F00" stroke-width="2" d="M72.302,13.912l19.562-9.854"/>
<path fill="none" stroke="#BF7F00" stroke-width="2" d="M96.644,13.912l19.561-9.854"/>
</svg>
