<?xml version="1.0" encoding="utf-8"?>
<!-- Generator: Adobe Illustrator 14.0.0, SVG Export Plug-In . SVG Version: 6.00 Build 43363)  -->
<!DOCTYPE svg PUBLIC "-//W3C//DTD SVG 1.1//EN" "http://www.w3.org/Graphics/SVG/1.1/DTD/svg11.dtd">
<svg version="1.1" id="图层_1" xmlns="http://www.w3.org/2000/svg" xmlns:xlink="http://www.w3.org/1999/xlink" x="0px" y="0px"
	 width="144.749px" height="105.047px" viewBox="0 0 144.749 105.047" enable-background="new 0 0 144.749 105.047"
	 xml:space="preserve">
<path fill="#4C4C4C" stroke="#000000" stroke-width="2" d="M4.057,8.114h131.129v87.371H4.057V8.114z"/>
<path fill="none" stroke="#000000" stroke-width="2" d="M12.171,95.485V8.114"/>
<path fill="#7F7F7F" stroke="#000000" stroke-width="2" d="M135.186,81.865h5.36v10.867h-5.36V81.865z"/>
<path fill="#B2B2B2" d="M135.186,83.604h5.36v7.534h-5.36V83.604z"/>
<path fill="#E5E5E5" d="M135.186,85.632h5.36v3.333h-5.36V85.632z"/>
<path fill="#40CCFF" d="M36.803,13.62h90.123v76.503H36.803V13.62z"/>
<path fill="none" stroke="#000000" stroke-width="2" d="M36.803,87.372h90.123"/>
<path fill="none" stroke="#000000" stroke-width="2" d="M36.803,76.359h90.123"/>
<path fill="none" stroke="#000000" stroke-width="2" d="M36.803,65.493h90.123"/>
<path fill="none" stroke="#000000" stroke-width="2" d="M36.803,54.48h90.123"/>
<path fill="none" stroke="#000000" stroke-width="2" d="M36.803,43.613h90.123"/>
<path fill="none" stroke="#000000" stroke-width="2" d="M36.803,32.601h90.123"/>
<path fill="none" stroke="#000000" stroke-width="2" d="M36.803,21.734h90.123"/>
<path fill="none" stroke="#000000" stroke-width="2" d="M36.803,84.618h90.123"/>
<path fill="none" stroke="#000000" stroke-width="2" d="M36.803,73.75h90.123"/>
<path fill="none" stroke="#000000" stroke-width="2" d="M36.803,62.739h90.123"/>
<path fill="none" stroke="#000000" stroke-width="2" d="M36.803,40.86h90.123"/>
<path fill="none" stroke="#000000" stroke-width="2" d="M36.803,29.993h90.123"/>
<path fill="none" stroke="#000000" stroke-width="2" d="M36.803,18.981h90.123"/>
<path fill="none" stroke="#000000" stroke-width="2" d="M36.803,81.865h90.123"/>
<path fill="none" stroke="#000000" stroke-width="2" d="M36.803,70.853h90.123"/>
<path fill="none" stroke="#000000" stroke-width="2" d="M36.803,59.986h90.123"/>
<path fill="none" stroke="#000000" stroke-width="2" d="M36.803,49.119h90.123"/>
<path fill="none" stroke="#000000" stroke-width="2" d="M36.803,38.107h90.123"/>
<path fill="none" stroke="#000000" stroke-width="2" d="M36.803,27.24h90.123"/>
<path fill="none" stroke="#000000" stroke-width="2" d="M36.803,16.228h90.123"/>
<path fill="none" stroke="#000000" stroke-width="2" d="M36.803,79.112h90.123"/>
<path fill="none" stroke="#000000" stroke-width="2" d="M36.803,68.245h90.123"/>
<path fill="none" stroke="#000000" stroke-width="2" d="M36.803,57.233h90.123"/>
<path fill="none" stroke="#000000" stroke-width="2" d="M36.803,46.366h90.123"/>
<path fill="none" stroke="#000000" stroke-width="2" d="M36.803,35.354h90.123"/>
<path fill="none" stroke="#000000" stroke-width="2" d="M36.803,24.487h90.123"/>
<path fill="#666666" stroke="#000000" stroke-width="2" d="M12.171,8.114h24.633v87.371H12.171V8.114z"/>
<path fill="#666666" stroke="#000000" stroke-width="2" d="M135.186,8.114h-8.26v87.371h8.26V8.114z"/>
<path fill="#666666" stroke="#000000" stroke-width="2" d="M110.553,8.114h-8.259v87.371h8.259V8.114z"/>
<path fill="#666666" stroke="#000000" stroke-width="2" d="M85.922,8.114h-8.113v87.371h8.113V8.114z"/>
<path fill="#666666" stroke="#000000" stroke-width="2" d="M61.435,8.114h-8.26v87.371h8.26V8.114z"/>
<path fill="#40CCFF" d="M14.924,10.867H34.05v5.361H14.924V10.867z"/>
<path fill="#FFFFFF" d="M16.953,12.896h15.068V14.2H16.953V12.896z"/>
<path fill="#999999" d="M54.48,53.176h1.449v30.138H54.48V53.176z"/>
<path fill="#999999" d="M54.48,14.924h1.449v30.138H54.48V14.924z"/>
<path fill="#999999" d="M79.112,14.924h1.449v30.138h-1.449V14.924z"/>
<path fill="#999999" d="M79.112,53.176h1.449v30.138h-1.449V53.176z"/>
<path fill="#999999" d="M103.744,53.176h1.304v30.138h-1.304V53.176z"/>
<path fill="#999999" d="M103.744,14.924h1.304v30.138h-1.304V14.924z"/>
<path fill="#999999" d="M128.231,14.924h1.448v30.138h-1.448V14.924z"/>
<path fill="#999999" d="M128.231,53.176h1.448v30.138h-1.448V53.176z"/>
<path d="M50.423,4.057h1.449v4.057h-1.449V4.057z"/>
<path d="M75.055,4.057h1.304v4.057h-1.304V4.057z"/>
<path d="M38.107,91.428h2.753v2.753h-2.753V91.428z"/>
<path d="M62.739,91.428h2.753v2.753h-2.753V91.428z"/>
<path d="M87.371,91.428h2.753v2.753h-2.753V91.428z"/>
<path d="M112.003,91.428h2.608v2.753h-2.608V91.428z"/>
<path d="M14.924,98.238h16.373v-2.753h76.504v2.753h16.373v2.753H14.924V98.238z"/>
</svg>
