<?xml version="1.0" encoding="utf-8"?>
<!-- Generator: Adobe Illustrator 14.0.0, SVG Export Plug-In . SVG Version: 6.00 Build 43363)  -->
<!DOCTYPE svg PUBLIC "-//W3C//DTD SVG 1.1//EN" "http://www.w3.org/Graphics/SVG/1.1/DTD/svg11.dtd">
<svg version="1.1" id="图层_1" xmlns="http://www.w3.org/2000/svg" xmlns:xlink="http://www.w3.org/1999/xlink" x="0px" y="0px"
	 width="144.749px" height="96.934px" viewBox="0 0 144.749 96.934" enable-background="new 0 0 144.749 96.934"
	 xml:space="preserve">
<path fill="#8CA0BF" stroke="#000000" stroke-width="2" d="M33.036,8.259v10.288h85.487V8.259H33.036z"/>
<path fill="#8CA0BF" stroke="#000000" stroke-width="2" d="M7.535,10.867v81.865h20.43l5.071-2.464h80.271v2.464h13.62V10.867
	h-13.62v10.142H27.965V10.867H7.535z"/>
<path fill="#BFD3F2" stroke="#000000" stroke-width="2" d="M126.927,10.867h-13.62l5.071-2.608H33.036l-5.071,2.608H7.535
	l13.62-6.81h119.392L126.927,10.867z"/>
<path fill="#596D8C" stroke="#000000" stroke-width="2" d="M123.594,63.753V22.748l3.332-1.739V10.867l13.62-6.81v81.865
	l-13.62,6.811V62.014L123.594,63.753z"/>
<path fill="#596D8C" stroke="#000000" stroke-width="2" d="M27.965,92.732V10.867l5.071-2.608v82.01L27.965,92.732z"/>
<path fill="#8CA0BF" stroke="#000000" stroke-width="2" d="M4.057,63.753h119.537V22.748H4.057V63.753z"/>
<path fill="#405473" stroke="#000000" stroke-width="2" d="M33.036,90.269V63.753h80.271v26.516H33.036z"/>
<path fill="#BFD3F2" stroke="#000000" stroke-width="2" d="M126.927,21.009h-13.62v-2.463H33.036l-5.071,2.463H7.389l-3.332,1.739
	h119.537L126.927,21.009z"/>
<path fill="#8CA0BF" d="M27.965,63.753h8.404V22.748h-8.404V63.753z"/>
<path fill="#8CA0BF" d="M36.369,63.753h8.403V22.748h-8.403V63.753z"/>
<path fill="#8CA0BF" d="M44.772,63.753h8.404V22.748h-8.404V63.753z"/>
<path fill="#8CA0BF" d="M53.177,63.753h8.403V22.748h-8.403V63.753z"/>
<path fill="#8CA0BF" d="M61.58,63.753h8.404V22.748H61.58V63.753z"/>
<path fill="#8CA0BF" d="M69.984,63.753h8.403V22.748h-8.403V63.753z"/>
<path fill="#8CA0BF" d="M78.387,63.753h8.404V22.748h-8.404V63.753z"/>
<path fill="#8CA0BF" d="M86.792,63.753h8.403V22.748h-8.403V63.753z"/>
<path fill="#8CA0BF" d="M95.195,63.753h11.302V22.748H95.195V63.753z"/>
<path fill="#994C4C" d="M122.724,32.311v-8.693H4.927v8.693H122.724z"/>
<path fill="none" stroke="#BFD3F2" stroke-width="2" d="M6.666,61.145v-27.24h15.213"/>
<path fill="none" stroke="#BFD3F2" stroke-width="2" d="M22.749,33.036v28.978H5.796"/>
<path fill="none" stroke="#BFD3F2" stroke-width="2" d="M104.758,33.036v28.978H29.703"/>
<path fill="none" stroke="#BFD3F2" stroke-width="2" d="M30.427,61.145v-27.24h73.461"/>
<path fill="none" stroke="#263A59" stroke-width="2" d="M5.796,62.014V33.036h16.953"/>
<path fill="none" stroke="#263A59" stroke-width="2" d="M21.879,33.905v27.24H6.666"/>
<path fill="none" stroke="#263A59" stroke-width="2" d="M29.703,62.014V33.036h75.055"/>
<path fill="none" stroke="#263A59" stroke-width="2" d="M103.888,33.905v27.24H30.427"/>
<path fill="none" stroke="#000000" stroke-width="2" d="M43.323,63.753v26.516"/>
<path fill="none" stroke="#000000" stroke-width="2" d="M53.466,63.753v26.516"/>
<path fill="none" stroke="#000000" stroke-width="2" d="M63.608,63.753v26.516"/>
<path fill="none" stroke="#000000" stroke-width="2" d="M73.896,63.753v26.516"/>
<path fill="none" stroke="#000000" stroke-width="2" d="M84.328,63.753v26.516"/>
<path fill="none" stroke="#000000" stroke-width="2" d="M94.47,63.753v26.516"/>
<path fill="none" stroke="#000000" stroke-width="2" d="M104.613,63.753v26.516"/>
<path fill="#263A59" d="M27.095,70.563h0.869v15.359h-0.869V70.563z"/>
<path fill="#B2B2B2" d="M134.461,47.525v-19.85l3.623-1.739v19.85L134.461,47.525z"/>
<path fill="#4C4C4C" d="M134.461,45.931V27.675l2.754-1.449v18.257L134.461,45.931z"/>
<path fill="none" stroke="#000000" stroke-width="2" d="M134.461,47.525v-19.85l3.623-1.739v19.85L134.461,47.525"/>
<path d="M106.497,63.753h3.332V22.748l3.478-1.739v-1.594l-6.81,3.333V63.753z"/>
<path d="M24.487,63.753h3.478V22.748l8.549-4.202h-3.478l-8.549,4.202V63.753z"/>
<path fill="#E5E5CC" d="M32.167,36.513h2.463v3.333h-2.463V36.513z"/>
<path fill="#E5E5CC" d="M36.948,36.513h2.463v3.333h-2.463V36.513z"/>
<path fill="#E5E5CC" d="M41.875,36.513h2.463v3.333h-2.463V36.513z"/>
<path fill="#E5E5CC" d="M46.656,36.513h2.318v3.333h-2.318V36.513z"/>
<path fill="#E5E5CC" d="M51.437,36.513H53.9v3.333h-2.463V36.513z"/>
<path fill="#E5E5CC" d="M56.364,36.513h2.318v3.333h-2.318V36.513z"/>
<path fill="#E5E5CC" d="M61.145,36.513h2.463v3.333h-2.463V36.513z"/>
<path fill="#E5E5CC" d="M65.927,36.513h2.463v3.333h-2.463V36.513z"/>
<path fill="#E5E5CC" d="M70.853,36.513h2.318v3.333h-2.318V36.513z"/>
<path fill="#E5E5CC" d="M75.635,36.513h2.318v3.333h-2.318V36.513z"/>
<path fill="#E5E5CC" d="M80.416,36.513h2.464v3.333h-2.464V36.513z"/>
<path fill="#E5E5CC" d="M85.197,36.513h2.464v3.333h-2.464V36.513z"/>
<path fill="#E5E5CC" d="M90.124,36.513h2.318v3.333h-2.318V36.513z"/>
<path fill="#E5E5CC" d="M94.905,36.513h2.464v3.333h-2.464V36.513z"/>
<path fill="#E5E5CC" d="M99.832,36.513h2.318v3.333h-2.318V36.513z"/>
<path fill="#596D8C" stroke="#000000" stroke-width="2" d="M91.863,22.748l8.693-4.202v-2.608l-8.693,4.347V22.748z"/>
<path fill="#596D8C" stroke="#000000" stroke-width="2" d="M82.444,22.748l8.694-4.202v-2.608l-8.694,4.347V22.748z"/>
<path fill="#596D8C" stroke="#000000" stroke-width="2" d="M73.172,22.748l8.549-4.202v-2.608l-8.549,4.347V22.748z"/>
<path fill="#596D8C" stroke="#000000" stroke-width="2" d="M63.754,22.748l8.548-4.202v-2.608l-8.548,4.347V22.748z"/>
<path fill="#596D8C" stroke="#000000" stroke-width="2" d="M54.335,22.748l8.549-4.202v-2.608l-8.549,4.347V22.748z"/>
<path fill="#596D8C" stroke="#000000" stroke-width="2" d="M44.917,22.748l8.549-4.202v-2.608l-8.549,4.347V22.748z"/>
<path fill="#BFD3F2" stroke="#000000" stroke-width="2" d="M86.792,20.285l8.548-4.347h5.217l-8.549,4.347H86.792z"/>
<path fill="#BFD3F2" stroke="#000000" stroke-width="2" d="M77.373,20.285l8.694-4.347h5.071l-8.549,4.347H77.373z"/>
<path fill="#BFD3F2" stroke="#000000" stroke-width="2" d="M68.1,20.285l8.549-4.347h5.071l-8.549,4.347H68.1z"/>
<path fill="#BFD3F2" stroke="#000000" stroke-width="2" d="M58.682,20.285l8.548-4.347h5.071l-8.548,4.347H58.682z"/>
<path fill="#BFD3F2" stroke="#000000" stroke-width="2" d="M49.264,20.285l8.548-4.347h5.071l-8.549,4.347H49.264z"/>
<path fill="#BFD3F2" stroke="#000000" stroke-width="2" d="M39.845,20.285l8.549-4.347h5.071l-8.403,4.347H39.845z"/>
<path fill="#8CA0BF" stroke="#000000" stroke-width="2" d="M86.792,22.748v-2.463h5.071v2.463H86.792z"/>
<path fill="#8CA0BF" stroke="#000000" stroke-width="2" d="M77.373,22.748v-2.463h5.071v2.463H77.373z"/>
<path fill="#8CA0BF" stroke="#000000" stroke-width="2" d="M68.1,22.748v-2.463h5.071v2.463H68.1z"/>
<path fill="#8CA0BF" stroke="#000000" stroke-width="2" d="M58.682,22.748v-2.463h5.071v2.463H58.682z"/>
<path fill="#8CA0BF" stroke="#000000" stroke-width="2" d="M49.264,22.748v-2.463h5.07v2.463H49.264z"/>
<path fill="#8CA0BF" stroke="#000000" stroke-width="2" d="M39.845,22.748v-2.463h5.071v2.463H39.845z"/>
</svg>
