<?xml version="1.0" encoding="utf-8"?>
<!-- Generator: Adobe Illustrator 14.0.0, SVG Export Plug-In . SVG Version: 6.00 Build 43363)  -->
<!DOCTYPE svg PUBLIC "-//W3C//DTD SVG 1.1//EN" "http://www.w3.org/Graphics/SVG/1.1/DTD/svg11.dtd">
<svg version="1.1" id="图层_1" xmlns="http://www.w3.org/2000/svg" xmlns:xlink="http://www.w3.org/1999/xlink" x="0px" y="0px"
	 width="144.749px" height="96.934px" viewBox="0 0 144.749 96.934" enable-background="new 0 0 144.749 96.934"
	 xml:space="preserve">
<path fill="#8CA0BF" stroke="#000000" stroke-width="2" d="M33.036,8.259v10.288h85.487V8.259H33.036z"/>
<path fill="#8CA0BF" stroke="#000000" stroke-width="2" d="M7.535,10.867v81.865h20.43l5.071-2.464h80.271v2.464h13.62V10.867
	h-13.62v10.142H27.965V10.867H7.535z"/>
<path fill="#BFD3F2" stroke="#000000" stroke-width="2" d="M126.927,10.867h-13.62l5.071-2.608H33.036l-5.071,2.608H7.535
	l13.62-6.81h119.392L126.927,10.867z"/>
<path fill="#596D8C" stroke="#000000" stroke-width="2" d="M123.594,63.753V22.748l3.332-1.739V10.867l13.62-6.81v81.865
	l-13.62,6.811V62.014L123.594,63.753z"/>
<path fill="#596D8C" stroke="#000000" stroke-width="2" d="M27.965,92.732V10.867l5.071-2.608v82.01L27.965,92.732z"/>
<path fill="#8CA0BF" stroke="#000000" stroke-width="2" d="M4.057,63.753h20.43V22.748H4.057V63.753z"/>
<path fill="#405473" stroke="#000000" stroke-width="2" d="M33.036,90.269V63.753h80.271v26.516H33.036z"/>
<path fill="#BFD3F2" stroke="#000000" stroke-width="2" d="M126.927,21.009h-13.62v-2.463H33.036l-5.071,2.463H7.389l-3.332,1.739
	h119.537L126.927,21.009z"/>
<path fill="#8CA0BF" d="M27.965,63.753h10.143V22.748H27.965V63.753z"/>
<path fill="#8CA0BF" d="M38.252,63.753h10.143V22.748H38.252V63.753z"/>
<path fill="#8CA0BF" d="M48.394,63.753h10.288V22.748H48.394V63.753z"/>
<path fill="#8CA0BF" d="M58.682,63.753h10.287V22.748H58.682V63.753z"/>
<path fill="#8CA0BF" d="M68.969,63.753h10.143V22.748H68.969V63.753z"/>
<path fill="#8CA0BF" d="M79.112,63.753h10.287V22.748H79.112V63.753z"/>
<path fill="#8CA0BF" d="M89.399,63.753h10.143V22.748H89.399V63.753z"/>
<path fill="#8CA0BF" d="M99.687,63.753h10.142V22.748H99.687V63.753z"/>
<path fill="#8CA0BF" d="M109.829,63.753h13.766V22.748h-13.766V63.753z"/>
<path fill="#994C4C" d="M122.724,32.311v-8.693H4.927v8.693H122.724z"/>
<path d="M24.487,63.753h3.478V22.748l8.549-4.202h-3.478l-8.549,4.202V63.753z"/>
<path fill="#FFCC00" d="M29.703,33.036h2.464v3.478h-2.464V33.036z"/>
<path fill="#FFCC00" d="M33.18,33.036h2.464v3.478H33.18V33.036z"/>
<path fill="#FFCC00" d="M39.845,33.036h2.608v3.478h-2.608V33.036z"/>
<path fill="#FFCC00" d="M43.323,33.036h2.608v3.478h-2.608V33.036z"/>
<path fill="#FFCC00" d="M50.134,33.036h2.607v3.478h-2.607V33.036z"/>
<path fill="#FFCC00" d="M53.611,33.036h2.463v3.478h-2.463V33.036z"/>
<path fill="#FFCC00" d="M60.421,33.036h2.463v3.478h-2.463V33.036z"/>
<path fill="#FFCC00" d="M63.898,33.036h2.463v3.478h-2.463V33.036z"/>
<path d="M61.145,38.107h4.347v10.288h-4.347V38.107z"/>
<path d="M61.145,50.133h4.347v10.143h-4.347V50.133z"/>
<path d="M51.003,50.133h4.202v10.143h-4.202V50.133z"/>
<path d="M51.003,38.107h4.202v10.288h-4.202V38.107z"/>
<path d="M40.716,38.107h4.347v10.288h-4.347V38.107z"/>
<path d="M40.716,50.133h4.347v10.143h-4.347V50.133z"/>
<path d="M30.573,50.133h4.201v10.143h-4.201V50.133z"/>
<path d="M30.573,38.107h4.201v10.288h-4.201V38.107z"/>
<path fill="#666666" d="M31.298,51.002h2.607v8.549h-2.607V51.002z"/>
<path fill="#666666" d="M31.298,38.976h2.607v8.694h-2.607V38.976z"/>
<path fill="#666666" d="M41.585,38.976h2.608v8.694h-2.608V38.976z"/>
<path fill="#666666" d="M41.585,51.002h2.608v8.549h-2.608V51.002z"/>
<path fill="#666666" d="M51.872,51.002h2.463v8.549h-2.463V51.002z"/>
<path fill="#666666" d="M51.872,38.976h2.463v8.694h-2.463V38.976z"/>
<path fill="#666666" d="M62.16,51.002h2.463v8.549H62.16V51.002z"/>
<path fill="#666666" d="M62.16,38.976h2.463v8.694H62.16V38.976z"/>
<path fill="none" stroke="#BFD3F2" stroke-width="2" d="M6.666,61.145v-27.24h15.213"/>
<path fill="none" stroke="#263A59" stroke-width="2" d="M21.879,33.905v27.24H6.666"/>
<path fill="none" stroke="#BFD3F2" stroke-width="2" d="M22.749,33.036v28.978H5.796"/>
<path fill="none" stroke="#263A59" stroke-width="2" d="M5.796,62.014V33.036h16.953"/>
<path fill="none" stroke="#000000" stroke-width="2" d="M79.112,22.748v41.005"/>
<path fill="none" stroke="#000000" stroke-width="2" d="M89.399,22.748v41.005"/>
<path fill="none" stroke="#000000" stroke-width="2" d="M99.542,22.748v41.005"/>
<path fill="none" stroke="#000000" stroke-width="2" d="M109.829,22.748v41.005"/>
<path fill="none" stroke="#000000" stroke-width="2" d="M38.107,22.748v41.005"/>
<path fill="none" stroke="#000000" stroke-width="2" d="M48.394,22.748v41.005"/>
<path fill="none" stroke="#000000" stroke-width="2" d="M58.682,22.748v41.005"/>
<path fill="none" stroke="#000000" stroke-width="2" d="M68.969,22.748v41.005"/>
<path fill="none" stroke="#000000" stroke-width="2" d="M109.829,22.748l3.478-1.739"/>
<path fill="none" stroke="#000000" stroke-width="2" d="M99.542,22.748l8.693-4.202"/>
<path fill="none" stroke="#000000" stroke-width="2" d="M89.399,22.748l8.693-4.202"/>
<path fill="none" stroke="#000000" stroke-width="2" d="M79.112,22.748l8.693-4.202"/>
<path fill="none" stroke="#000000" stroke-width="2" d="M68.969,22.748l8.549-4.202"/>
<path fill="none" stroke="#000000" stroke-width="2" d="M58.682,22.748l8.548-4.202"/>
<path fill="none" stroke="#000000" stroke-width="2" d="M48.394,22.748l8.549-4.202"/>
<path fill="none" stroke="#000000" stroke-width="2" d="M38.107,22.748l8.549-4.202"/>
<path fill="none" stroke="#000000" stroke-width="2" d="M27.965,22.748h95.63"/>
<path fill="none" stroke="#000000" stroke-width="2" d="M123.594,63.753h-95.63"/>
<path fill="none" stroke="#000000" stroke-width="2" d="M43.323,63.753v26.516"/>
<path fill="none" stroke="#000000" stroke-width="2" d="M53.466,63.753v26.516"/>
<path fill="none" stroke="#000000" stroke-width="2" d="M63.608,63.753v26.516"/>
<path fill="none" stroke="#000000" stroke-width="2" d="M73.896,63.753v26.516"/>
<path fill="none" stroke="#000000" stroke-width="2" d="M84.328,63.753v26.516"/>
<path fill="none" stroke="#000000" stroke-width="2" d="M94.47,63.753v26.516"/>
<path fill="none" stroke="#000000" stroke-width="2" d="M104.613,63.753v26.516"/>
<path fill="#263A59" d="M27.095,70.563h0.869v15.359h-0.869V70.563z"/>
<path fill="#B2B2B2" d="M134.461,47.525v-19.85l3.623-1.739v19.85L134.461,47.525z"/>
<path fill="#4C4C4C" d="M134.461,45.931V27.675l2.754-1.449v18.257L134.461,45.931z"/>
<path fill="none" stroke="#000000" stroke-width="2" d="M134.461,47.525v-19.85l3.623-1.739v19.85L134.461,47.525"/>
</svg>
