<?xml version="1.0" encoding="utf-8"?>
<!-- Generator: Adobe Illustrator 14.0.0, SVG Export Plug-In . SVG Version: 6.00 Build 43363)  -->
<!DOCTYPE svg PUBLIC "-//W3C//DTD SVG 1.1//EN" "http://www.w3.org/Graphics/SVG/1.1/DTD/svg11.dtd">
<svg version="1.1" id="图层_1" xmlns="http://www.w3.org/2000/svg" xmlns:xlink="http://www.w3.org/1999/xlink" x="0px" y="0px"
	 width="144.749px" height="99.979px" viewBox="0 0 144.749 99.979" enable-background="new 0 0 144.749 99.979"
	 xml:space="preserve">
<path fill="#333333" stroke="#000000" stroke-width="2" d="M127.217,95.921v-82.3l13.33-9.563v82.59L127.217,95.921z"/>
<path fill="#666666" stroke="#000000" stroke-width="2" d="M7.535,13.331l13.619-9.273h119.393l-13.33,9.563L7.535,13.331z"/>
<path fill="#333333" stroke="#000000" stroke-width="2" d="M7.535,13.331h120.262v82.59H7.535V13.331z"/>
<path fill="#4C4C4C" stroke="#000000" stroke-width="2" d="M4.346,77.085h120.117l3.333,7.679H7.535L4.346,77.085z"/>
<path fill="#999999" stroke="#000000" stroke-width="2" d="M7.535,24.489h120.262l-3.333,7.534H4.346L7.535,24.489z"/>
<path fill="#666666" stroke="#000000" stroke-width="2" d="M4.057,32.023h120.116v45.063H4.057V32.023z"/>
<path fill="#CCCCCC" stroke="#000000" stroke-width="2" d="M34.05,39.412h2.174h2.028h2.174h53.756l3.332,2.463l0.145,0.725
	l0.146,0.725v0.435v22.169l-2.318,3.478l-0.58,0.145l-0.724,0.146h-2.174H34.05l-3.477-2.464l-0.29-0.579l-0.146-0.725v-0.58V43.324
	l2.464-3.622L34.05,39.412z"/>
<path fill="#666666" stroke="#000000" stroke-width="2" d="M101.57,35.935h22.604v37.383H101.57V35.935z"/>
<path fill="#666666" stroke="#000000" stroke-width="2" d="M4.057,35.935h22.604v37.383H4.057V35.935z"/>
<path fill="#191919" stroke="#000000" stroke-width="2" d="M4.057,40.572h17.677v28.109H4.057V40.572z"/>
<path fill="#999999" stroke="#000000" stroke-width="2" d="M13.33,43.324h2.898v22.604H13.33V43.324z"/>
<path fill="#999999" stroke="#000000" stroke-width="2" d="M18.981,43.324h1.159v22.604h-1.159V43.324z"/>
<path fill="#E5E5E5" d="M129.1,78.679V29.414l5.796-4.636v49.264L129.1,78.679z"/>
<path stroke="#000000" stroke-width="2" d="M22.603,8.115l-6.085,3.767h-1.015l5.94-3.767H22.603z"/>
<path stroke="#000000" stroke-width="2" d="M27.24,8.115l-6.086,3.767H20.14l5.94-3.767H27.24z"/>
<path stroke="#000000" stroke-width="2" d="M31.587,8.115l-6.085,3.767h-0.58l5.506-3.767H31.587z"/>
<path stroke="#000000" stroke-width="2" d="M36.223,8.115l-6.086,3.767h-0.724l5.94-3.767H36.223z"/>
<path stroke="#000000" stroke-width="2" d="M50.134,8.115l-6.086,3.767h-1.015l5.941-3.767H50.134z"/>
<path stroke="#000000" stroke-width="2" d="M54.77,8.115l-6.086,3.767H47.96l5.94-3.767H54.77z"/>
<path stroke="#000000" stroke-width="2" d="M59.696,8.115l-6.085,3.767h-1.015l5.94-3.767H59.696z"/>
<path stroke="#000000" stroke-width="2" d="M64.043,8.115l-5.796,3.767h-1.014l5.65-3.767H64.043z"/>
<path stroke="#000000" stroke-width="2" d="M68.679,8.115l-6.085,3.767H61.58l5.94-3.767H68.679z"/>
<path stroke="#000000" stroke-width="2" d="M73.316,8.115l-6.086,3.767h-0.724l5.94-3.767H73.316z"/>
<path stroke="#000000" stroke-width="2" d="M78.097,8.115l-5.94,3.767h-1.015l5.941-3.767H78.097z"/>
<path stroke="#000000" stroke-width="2" d="M82.59,8.115l-6.086,3.767h-0.725l5.941-3.767H82.59z"/>
<path stroke="#000000" stroke-width="2" d="M87.226,8.115l-6.086,3.767h-1.015l5.941-3.767H87.226z"/>
<path stroke="#000000" stroke-width="2" d="M91.718,8.115l-5.94,3.767h-0.869l6.085-3.767H91.718z"/>
<path stroke="#000000" stroke-width="2" d="M96.644,8.115l-5.94,3.767h-1.015l5.94-3.767H96.644z"/>
<path stroke="#000000" stroke-width="2" d="M100.991,8.115l-5.94,3.767h-0.869l5.795-3.767H100.991z"/>
<path stroke="#000000" stroke-width="2" d="M112.583,8.115l-5.796,3.767h-1.015l5.94-3.767H112.583z"/>
<path stroke="#000000" stroke-width="2" d="M117.219,8.115l-6.086,3.767h-0.58l5.507-3.767H117.219z"/>
<path stroke="#000000" stroke-width="2" d="M121.711,8.115l-5.65,3.767h-0.87l5.796-3.767H121.711z"/>
<path stroke="#000000" stroke-width="2" d="M126.637,8.115l-5.941,3.767h-1.014l5.94-3.767H126.637z"/>
<path stroke="#000000" stroke-width="2" d="M27.385,4.782l-4.347,2.753h-0.435l4.058-2.753H27.385z"/>
<path stroke="#000000" stroke-width="2" d="M32.021,4.782l-4.347,2.753H27.24l4.057-2.753H32.021z"/>
<path stroke="#000000" stroke-width="2" d="M36.513,4.782l-4.202,2.753h-0.725l4.347-2.753H36.513z"/>
<path stroke="#000000" stroke-width="2" d="M41.295,4.782l-4.637,2.753h-0.435l4.637-2.753H41.295z"/>
<path stroke="#000000" stroke-width="2" d="M54.915,4.782l-4.057,2.753h-0.725l4.347-2.753H54.915z"/>
<path stroke="#000000" stroke-width="2" d="M59.842,4.782l-4.637,2.753H54.77l4.347-2.753H59.842z"/>
<path stroke="#000000" stroke-width="2" d="M64.477,4.782l-4.347,2.753h-0.435l4.058-2.753H64.477z"/>
<path stroke="#000000" stroke-width="2" d="M68.825,4.782l-4.058,2.753h-0.725l4.347-2.753H68.825z"/>
<path stroke="#000000" stroke-width="2" d="M73.461,4.782l-4.057,2.753h-0.725l4.058-2.753H73.461z"/>
<path stroke="#000000" stroke-width="2" d="M78.387,4.782l-4.637,2.753h-0.435l4.347-2.753H78.387z"/>
<path stroke="#000000" stroke-width="2" d="M83.024,4.782l-4.347,2.753h-0.58L82.3,4.782H83.024z"/>
<path stroke="#000000" stroke-width="2" d="M87.371,4.782l-4.057,2.753H82.59l4.347-2.753H87.371z"/>
<path stroke="#000000" stroke-width="2" d="M92.008,4.782l-4.057,2.753h-0.725l4.057-2.753H92.008z"/>
<path stroke="#000000" stroke-width="2" d="M96.934,4.782l-4.637,2.753h-0.58l4.492-2.753H96.934z"/>
<path stroke="#000000" stroke-width="2" d="M101.57,4.782l-4.347,2.753h-0.579l4.202-2.753H101.57z"/>
<path stroke="#000000" stroke-width="2" d="M105.918,4.782l-4.058,2.753h-0.869l4.491-2.753H105.918z"/>
<path stroke="#000000" stroke-width="2" d="M117.364,4.782l-4.058,2.753h-0.724l4.347-2.753H117.364z"/>
<path stroke="#000000" stroke-width="2" d="M122.291,4.782l-4.348,2.753h-0.724l4.347-2.753H122.291z"/>
<path stroke="#000000" stroke-width="2" d="M126.927,4.782l-4.636,2.753h-0.58l4.492-2.753H126.927z"/>
<path stroke="#000000" stroke-width="2" d="M131.563,4.782l-4.347,2.753h-0.579l4.201-2.753H131.563z"/>
<path stroke="#000000" stroke-width="2" d="M129.1,90.125l9.853-6.23v-8.693l-9.853,6.81V90.125z"/>
</svg>
