<?xml version="1.0" encoding="utf-8"?>
<!-- Generator: Adobe Illustrator 14.0.0, SVG Export Plug-In . SVG Version: 6.00 Build 43363)  -->
<!DOCTYPE svg PUBLIC "-//W3C//DTD SVG 1.1//EN" "http://www.w3.org/Graphics/SVG/1.1/DTD/svg11.dtd">
<svg version="1.1" id="图层_1" xmlns="http://www.w3.org/2000/svg" xmlns:xlink="http://www.w3.org/1999/xlink" x="0px" y="0px"
	 width="144.749px" height="99.064px" viewBox="0 0 144.749 99.064" enable-background="new 0 0 144.749 99.064"
	 xml:space="preserve">
<path fill="#CCCCCC" stroke="#000000" stroke-width="2" d="M4.351,4.063h136.336v90.939H4.351V4.063z"/>
<path fill="#7F7F7F" stroke="#000000" stroke-width="2" d="M4.351,83.544h136.336v11.458H4.351V83.544z"/>
<path fill="#E5E5E5" stroke="#000000" stroke-width="2" d="M4.351,4.063h136.336v11.313H4.351V4.063z"/>
<path d="M138.222,26.399l-0.436-0.29H7.252v0.58h130.535l-0.29-0.29H138.222v-0.29h-0.436L138.222,26.399z"/>
<path d="M137.787,72.231l0.436-0.435V26.399h-0.726v45.397l0.29-0.29V72.231h0.436v-0.435L137.787,72.231z"/>
<path d="M6.962,71.796l0.29,0.435h130.535v-0.725H7.252l0.29,0.29H6.962v0.435h0.29L6.962,71.796z"/>
<path d="M7.252,26.109l-0.29,0.29v45.397h0.58V26.399l-0.29,0.29V26.109h-0.29v0.29L7.252,26.109z"/>
<path fill="none" stroke="#000000" stroke-width="2" d="M29.878,29.589h105.153V69.33H29.878V29.589"/>
<path fill="#999999" d="M75.421,32.49l-0.29-0.146L63.672,66.429l0.581,0.146L75.711,32.49H75.421z"/>
<path fill="#999999" d="M78.176,32.49l-0.29-0.146L66.573,66.429l0.58,0.146L78.466,32.49H78.176z"/>
<circle fill="#7F7F7F" stroke="#7F7F7F" stroke-width="2" cx="82.092" cy="34.956" r="2.466"/>
<path stroke="#000000" stroke-width="2" d="M32.779,35.246h1.45v2.9h-1.45V35.246z"/>
<path stroke="#000000" stroke-width="2" d="M35.679,35.246h1.306v2.9h-1.306V35.246z"/>
<path stroke="#000000" stroke-width="2" d="M38.435,35.246h1.45v2.9h-1.45V35.246z"/>
<path stroke="#000000" stroke-width="2" d="M41.336,35.246h1.306v2.9h-1.306V35.246z"/>
<path stroke="#000000" stroke-width="2" d="M44.092,35.246h1.45v2.9h-1.45V35.246z"/>
<path stroke="#000000" stroke-width="2" d="M46.993,35.246h1.45v2.9h-1.45V35.246z"/>
<path stroke="#000000" stroke-width="2" d="M49.749,35.246h1.45v2.9h-1.45V35.246z"/>
<path stroke="#000000" stroke-width="2" d="M52.649,35.246h1.45v2.9h-1.45V35.246z"/>
<path stroke="#000000" stroke-width="2" d="M55.55,35.246h1.306v2.9H55.55V35.246z"/>
<path stroke="#000000" stroke-width="2" d="M58.305,35.246h1.45v2.9h-1.45V35.246z"/>
<path stroke="#000000" stroke-width="2" d="M32.779,60.918h1.45v2.756h-1.45V60.918z"/>
<path stroke="#000000" stroke-width="2" d="M35.679,60.918h1.306v2.756h-1.306V60.918z"/>
<path stroke="#000000" stroke-width="2" d="M38.435,60.918h1.45v2.756h-1.45V60.918z"/>
<path stroke="#000000" stroke-width="2" d="M41.336,60.918h1.451v2.756h-1.451V60.918z"/>
<path stroke="#000000" stroke-width="2" d="M44.092,60.918h1.45v2.756h-1.45V60.918z"/>
<path stroke="#000000" stroke-width="2" d="M46.993,60.918h1.45v2.756h-1.45V60.918z"/>
<path fill="#7F7F7F" stroke="#000000" stroke-width="2" d="M32.779,54.536v-1.45h2.9v1.45H32.779z"/>
<path fill="#7F7F7F" stroke="#000000" stroke-width="2" d="M32.779,51.635v-1.45h2.9v1.45H32.779z"/>
<path fill="#7F7F7F" stroke="#000000" stroke-width="2" d="M32.779,48.735v-1.306h2.9v1.306H32.779z"/>
<path fill="#7F7F7F" stroke="#000000" stroke-width="2" d="M32.779,45.979v-1.45h2.9v1.45H32.779z"/>
<path fill="#CCCCCC" d="M4.351,32.49h24.222v33.358H4.351V32.49z"/>
<path d="M28.863,32.49l-0.29-0.29H4.351v0.58h24.222l-0.436-0.29H28.863V32.2h-0.29L28.863,32.49z"/>
<path d="M28.573,66.139l0.29-0.29V32.49h-0.726v33.358l0.436-0.29V66.139h0.29v-0.29L28.573,66.139z"/>
<path d="M4.061,65.849l0.29,0.29h24.222v-0.58H4.351l0.29,0.29H4.061v0.29h0.29L4.061,65.849z"/>
<path d="M4.351,32.2l-0.29,0.29v33.358h0.58V32.49l-0.29,0.29V32.2h-0.29v0.29L4.351,32.2z"/>
<circle fill="#B2B2B2" stroke="#000000" stroke-width="2" cx="26.397" cy="49.46" r="0.725"/>
<path fill="none" stroke="#000000" stroke-width="2" d="M95.291,34.521h39.74"/>
</svg>
