<?xml version="1.0" encoding="utf-8"?>
<!-- Generator: Adobe Illustrator 14.0.0, SVG Export Plug-In . SVG Version: 6.00 Build 43363)  -->
<!DOCTYPE svg PUBLIC "-//W3C//DTD SVG 1.1//EN" "http://www.w3.org/Graphics/SVG/1.1/DTD/svg11.dtd">
<svg version="1.1" id="图层_1" xmlns="http://www.w3.org/2000/svg" xmlns:xlink="http://www.w3.org/1999/xlink" x="0px" y="0px"
	 width="68.76px" height="106.502px" viewBox="0 0 68.76 106.502" enable-background="new 0 0 68.76 106.502" xml:space="preserve">
<path fill="#7F7F7F" stroke="#000000" stroke-width="2" d="M3.731,36.674h61.191v2.452H3.731V36.674z"/>
<path fill="#7F7F7F" stroke="#000000" stroke-width="2" d="M3.731,73.56h61.191v2.345H3.731V73.56z"/>
<path fill="#FFFFFF" stroke="#000000" stroke-width="2" d="M2.985,9.277h62.79v94.132H2.985V9.277z"/>
<path fill="#FFFFFF" stroke="#000000" stroke-width="2" d="M2.985,40.618h62.79v31.448H2.985V40.618z"/>
<path fill="#FFFFFF" stroke="#000000" stroke-width="2" d="M4.478,29.638h59.698v53.409H4.478V29.638z"/>
<path fill="none" stroke="#000000" stroke-width="2" d="M4.478,70.468h15.777v-28.25H4.478"/>
<path fill="#B2B2B2" stroke="#000000" stroke-width="2" d="M6.929,34.328h7.036v2.346H6.929V34.328z"/>
<path fill="#B2B2B2" stroke="#000000" stroke-width="2" d="M15.565,34.328H22.6v2.346h-7.035V34.328z"/>
<path fill="#B2B2B2" stroke="#000000" stroke-width="2" d="M24.199,34.328h7.036v2.346h-7.036V34.328z"/>
<path fill="#B2B2B2" stroke="#000000" stroke-width="2" d="M32.834,34.328h7.036v2.346h-7.036V34.328z"/>
<path fill="#B2B2B2" stroke="#000000" stroke-width="2" d="M41.469,34.328h7.036v2.346h-7.036V34.328z"/>
<path fill="#B2B2B2" stroke="#000000" stroke-width="2" d="M50.104,34.328h7.036v2.346h-7.036V34.328z"/>
<path fill="#B2B2B2" stroke="#000000" stroke-width="2" d="M11.62,31.238h7.035v2.345H11.62V31.238z"/>
<path fill="#B2B2B2" stroke="#000000" stroke-width="2" d="M20.255,31.238h7.036v2.345h-7.036V31.238z"/>
<path fill="#B2B2B2" stroke="#000000" stroke-width="2" d="M28.89,31.238h7.036v2.345H28.89V31.238z"/>
<path fill="#B2B2B2" stroke="#000000" stroke-width="2" d="M37.525,31.238h7.036v2.345h-7.036V31.238z"/>
<path fill="#B2B2B2" stroke="#000000" stroke-width="2" d="M46.159,31.238h7.036v2.345h-7.036V31.238z"/>
<path fill="#B2B2B2" stroke="#000000" stroke-width="2" d="M54.795,31.238h7.035v2.345h-7.035V31.238z"/>
<path fill="#B2B2B2" stroke="#000000" stroke-width="2" d="M6.929,79.103h7.036v2.346H6.929V79.103z"/>
<path fill="#B2B2B2" stroke="#000000" stroke-width="2" d="M15.565,79.103H22.6v2.346h-7.035V79.103z"/>
<path fill="#B2B2B2" stroke="#000000" stroke-width="2" d="M24.199,79.103h7.036v2.346h-7.036V79.103z"/>
<path fill="#B2B2B2" stroke="#000000" stroke-width="2" d="M32.834,79.103h7.036v2.346h-7.036V79.103z"/>
<path fill="#B2B2B2" stroke="#000000" stroke-width="2" d="M41.469,79.103h7.036v2.346h-7.036V79.103z"/>
<path fill="#B2B2B2" stroke="#000000" stroke-width="2" d="M50.104,79.103h7.036v2.346h-7.036V79.103z"/>
<path fill="#B2B2B2" stroke="#000000" stroke-width="2" d="M11.62,75.905h7.035v2.452H11.62V75.905z"/>
<path fill="#B2B2B2" stroke="#000000" stroke-width="2" d="M20.255,75.905h7.036v2.452h-7.036V75.905z"/>
<path fill="#B2B2B2" stroke="#000000" stroke-width="2" d="M28.89,75.905h7.036v2.452H28.89V75.905z"/>
<path fill="#B2B2B2" stroke="#000000" stroke-width="2" d="M37.525,75.905h7.036v2.452h-7.036V75.905z"/>
<path fill="#B2B2B2" stroke="#000000" stroke-width="2" d="M46.159,75.905h7.036v2.452h-7.036V75.905z"/>
<path fill="#B2B2B2" stroke="#000000" stroke-width="2" d="M54.795,75.905h7.035v2.452h-7.035V75.905z"/>
<circle fill="#B2B2B2" stroke="#000000" stroke-width="2" cx="60.658" cy="39.446" r="1.172"/>
<circle fill="#B2B2B2" stroke="#000000" stroke-width="2" cx="57.567" cy="39.446" r="1.172"/>
<circle fill="#B2B2B2" stroke="#000000" stroke-width="2" cx="54.368" cy="39.446" r="1.172"/>
<circle fill="#B2B2B2" stroke="#000000" stroke-width="2" cx="51.277" cy="39.446" r="1.172"/>
<circle fill="#B2B2B2" stroke="#000000" stroke-width="2" cx="48.186" cy="39.446" r="1.172"/>
<circle fill="#B2B2B2" stroke="#000000" stroke-width="2" cx="44.988" cy="39.446" r="1.172"/>
<circle fill="#B2B2B2" stroke="#000000" stroke-width="2" cx="41.789" cy="39.446" r="1.172"/>
<circle fill="#B2B2B2" stroke="#000000" stroke-width="2" cx="38.698" cy="39.446" r="1.172"/>
<ellipse fill="#B2B2B2" stroke="#000000" stroke-width="2" cx="26.438" cy="56.289" rx="3.092" ry="1.492"/>
<ellipse fill="#B2B2B2" stroke="#000000" stroke-width="2" cx="26.438" cy="50.852" rx="3.092" ry="1.599"/>
<ellipse fill="#B2B2B2" stroke="#000000" stroke-width="2" cx="26.438" cy="61.833" rx="3.092" ry="1.599"/>
<circle fill="#B2B2B2" stroke="#000000" stroke-width="2" cx="54.368" cy="73.24" r="1.173"/>
<circle fill="#B2B2B2" stroke="#000000" stroke-width="2" cx="51.277" cy="73.24" r="1.173"/>
<circle fill="#B2B2B2" stroke="#000000" stroke-width="2" cx="48.186" cy="73.24" r="1.173"/>
<circle fill="#B2B2B2" stroke="#000000" stroke-width="2" cx="44.988" cy="73.24" r="1.173"/>
<circle fill="#B2B2B2" stroke="#000000" stroke-width="2" cx="41.789" cy="73.24" r="1.173"/>
<circle fill="#B2B2B2" stroke="#000000" stroke-width="2" cx="38.698" cy="73.24" r="1.173"/>
<path fill="#B2B2B2" stroke="#000000" stroke-width="2" d="M6.823,20.257H57.14v7.782H6.823V20.257z"/>
<path fill="#B2B2B2" stroke="#000000" stroke-width="2" d="M11.62,10.769h50.317v7.89H11.62V10.769z"/>
<path fill="#FFFFFF" stroke="#000000" stroke-width="2" d="M10.021,20.257h1.6V10.023h-1.6V20.257z"/>
<path fill="#FFFFFF" stroke="#000000" stroke-width="2" d="M18.656,20.257h1.6V10.023h-1.6V20.257z"/>
<path fill="#FFFFFF" stroke="#000000" stroke-width="2" d="M27.291,20.257h1.599V10.023h-1.599V20.257z"/>
<path fill="#FFFFFF" stroke="#000000" stroke-width="2" d="M35.926,20.257h1.599V10.023h-1.599V20.257z"/>
<path fill="#FFFFFF" stroke="#000000" stroke-width="2" d="M44.561,20.257h1.599V10.023h-1.599V20.257z"/>
<path fill="#FFFFFF" stroke="#000000" stroke-width="2" d="M53.196,20.257h1.6V10.023h-1.6V20.257z"/>
<path fill="#FFFFFF" stroke="#000000" stroke-width="2" d="M61.83,20.257h1.6V10.023h-1.6V20.257z"/>
<path fill="#FFFFFF" stroke="#000000" stroke-width="2" d="M57.14,29.638h1.492V19.405H57.14V29.638z"/>
<path fill="#FFFFFF" stroke="#000000" stroke-width="2" d="M48.505,29.638h1.599V19.405h-1.599V29.638z"/>
<path fill="#FFFFFF" stroke="#000000" stroke-width="2" d="M39.87,29.638h1.599V19.405H39.87V29.638z"/>
<path fill="#FFFFFF" stroke="#000000" stroke-width="2" d="M31.236,29.638h1.599V19.405h-1.599V29.638z"/>
<path fill="#FFFFFF" stroke="#000000" stroke-width="2" d="M22.6,29.638h1.6V19.405h-1.6V29.638z"/>
<path fill="#FFFFFF" stroke="#000000" stroke-width="2" d="M5.33,29.638h1.599V19.405H5.33V29.638z"/>
<path fill="#FFFFFF" stroke="#000000" stroke-width="2" d="M13.965,29.638h1.6V19.405h-1.6V29.638z"/>
<path fill="#B2B2B2" stroke="#000000" stroke-width="2" d="M6.823,93.281h50.211v7.782H6.823V93.281z"/>
<path fill="#B2B2B2" stroke="#000000" stroke-width="2" d="M11.62,83.793h50.21v7.782H11.62V83.793z"/>
<path fill="#FFFFFF" stroke="#000000" stroke-width="2" d="M10.021,93.281h1.6V83.047h-1.6V93.281z"/>
<path fill="#FFFFFF" stroke="#000000" stroke-width="2" d="M18.656,93.281h1.6V83.047h-1.6V93.281z"/>
<path fill="#FFFFFF" stroke="#000000" stroke-width="2" d="M27.291,93.281h1.599V83.047h-1.599V93.281z"/>
<path fill="#FFFFFF" stroke="#000000" stroke-width="2" d="M35.926,93.281h1.599V83.047h-1.599V93.281z"/>
<path fill="#FFFFFF" stroke="#000000" stroke-width="2" d="M44.561,93.281h1.599V83.047h-1.599V93.281z"/>
<path fill="#FFFFFF" stroke="#000000" stroke-width="2" d="M53.196,93.281h1.6V83.047h-1.6V93.281z"/>
<path fill="#FFFFFF" stroke="#000000" stroke-width="2" d="M61.83,93.281h1.6V83.047h-1.6V93.281z"/>
<path fill="#FFFFFF" stroke="#000000" stroke-width="2" d="M57.14,102.662h1.492V92.428H57.14V102.662z"/>
<path fill="#FFFFFF" stroke="#000000" stroke-width="2" d="M13.965,102.662h1.6V92.428h-1.6V102.662z"/>
<path fill="#FFFFFF" stroke="#000000" stroke-width="2" d="M22.6,102.662h1.6V92.428h-1.6V102.662z"/>
<path fill="#FFFFFF" stroke="#000000" stroke-width="2" d="M31.236,102.662h1.599V92.428h-1.599V102.662z"/>
<path fill="#FFFFFF" stroke="#000000" stroke-width="2" d="M39.87,102.662h1.599V92.428H39.87V102.662z"/>
<path fill="#FFFFFF" stroke="#000000" stroke-width="2" d="M48.505,102.662h1.599V92.428h-1.599V102.662z"/>
<path fill="#FFFFFF" stroke="#000000" stroke-width="2" d="M5.33,102.662h1.599V92.428H5.33V102.662z"/>
<path d="M64.176,83.047v-0.746H4.478v1.492h59.698V83.047z"/>
<path fill="#7F7F7F" d="M6.076,7.678V9.17H2.985V2.988h3.092V4.48L5.864,4.586l-0.32,0.106L5.224,4.799L5.01,5.013L4.797,5.226
	L4.691,5.545l-0.106,0.32v0.213v0.32l0.106,0.319l0.106,0.214L5.01,7.251l0.214,0.213l0.319,0.107l0.32,0.106H6.076z"/>
<path fill="#7F7F7F" d="M6.076,4.48V2.988h3.198v6.289H6.076V7.678h0.32l0.319-0.106l0.213-0.214l0.32-0.213l0.213-0.213
	l0.106-0.214l0.107-0.319v-0.32V5.759l-0.107-0.32L7.462,5.226L7.249,5.013l-0.32-0.214L6.716,4.586H6.397L6.076,4.48z"/>
</svg>
