<?xml version="1.0" encoding="utf-8"?>
<!-- Generator: Adobe Illustrator 14.0.0, SVG Export Plug-In . SVG Version: 6.00 Build 43363)  -->
<!DOCTYPE svg PUBLIC "-//W3C//DTD SVG 1.1//EN" "http://www.w3.org/Graphics/SVG/1.1/DTD/svg11.dtd">
<svg version="1.1" id="图层_1" xmlns="http://www.w3.org/2000/svg" xmlns:xlink="http://www.w3.org/1999/xlink" x="0px" y="0px"
	 width="144.749px" height="83.167px" viewBox="0 0 144.749 83.167" enable-background="new 0 0 144.749 83.167"
	 xml:space="preserve">
<path stroke="#000000" stroke-width="2" d="M5.942,4.057h129.967v70.417H5.942V4.057z"/>
<path fill="#191919" d="M5.942,31.006h10.867v39.266H5.942V31.006z"/>
<path fill="none" stroke="#7F7F7F" stroke-width="2" d="M46.656,4.057V74.33"/>
<path fill="none" stroke="#7F7F7F" stroke-width="2" d="M76.359,4.057V74.33"/>
<path fill="none" stroke="#7F7F7F" stroke-width="2" d="M106.207,4.057V74.33"/>
<path stroke="#FFFF00" stroke-width="2" d="M13.476,35.063l1.449,0.725l0.435,1.014l0.145,0.29l-0.579,1.449l-1.159,0.58h-0.29
	l-1.449-0.58l-0.579-1.449l0.579-1.304L13.476,35.063z"/>
<path stroke="#FFFF00" stroke-width="2" d="M13.332,62.158l1.448,0.58l0.58,1.014v0.436l-0.58,1.448l-1.014,0.435l-0.435,0.145
	l-1.305-0.579l-0.579-1.448l0.579-1.449L13.332,62.158z"/>
<path stroke="#FFFF00" stroke-width="2" d="M13.332,56.797l1.448,0.579l0.58,1.015v0.435l-0.58,1.304l-1.014,0.579l-0.435,0.146
	l-1.305-0.725l-0.579-1.304l0.579-1.449L13.332,56.797z"/>
<path stroke="#FFFF00" stroke-width="2" d="M13.476,51.436l1.449,0.579l0.435,1.015l0.145,0.435l-0.579,1.305l-1.159,0.579h-0.29
	l-1.449-0.579l-0.579-1.305l0.579-1.449L13.476,51.436z"/>
<path stroke="#FFFF00" stroke-width="2" d="M13.476,45.93l1.449,0.579l0.435,1.16l0.145,0.289l-0.579,1.449l-1.159,0.58h-0.29
	l-1.449-0.58l-0.579-1.449l0.579-1.449L13.476,45.93z"/>
<path stroke="#FFFF00" stroke-width="2" d="M13.476,40.569l1.449,0.58l0.435,1.015l0.145,0.434l-0.579,1.305l-1.159,0.58
	l-0.29,0.145l-1.449-0.725l-0.579-1.305l0.579-1.448L13.476,40.569z"/>
<path fill="#191919" stroke="#7F7F7F" stroke-width="2" d="M56.074,58.101h10.722v10.867H56.074V58.101z"/>
<path fill="#191919" stroke="#7F7F7F" stroke-width="2" d="M56.074,43.177h10.722v10.867H56.074V43.177z"/>
<circle cx="62.739" cy="48.539" r="3.912"/>
<circle cx="62.739" cy="63.607" r="3.912"/>
<path fill="#FFFFFF" d="M69.549,62.158h4.058v1.305h-4.058V62.158z"/>
<path fill="#FFFFFF" d="M69.549,47.234h4.058v1.449h-4.058V47.234z"/>
<path fill="#FFFFFF" d="M69.549,36.512h4.058v1.304h-4.058V36.512z"/>
<path fill="#FFFFFF" d="M69.549,31.006h4.058v1.449h-4.058V31.006z"/>
<path fill="#FFFFFF" d="M69.549,25.646h4.058v1.304h-4.058V25.646z"/>
<path fill="#FFFFFF" d="M69.549,20.285h4.058v1.304h-4.058V20.285z"/>
<path fill="#FFFFFF" d="M69.549,14.779h4.058v1.449h-4.058V14.779z"/>
<path fill="#FFFFFF" d="M69.549,9.418h4.058v1.304h-4.058V9.418z"/>
<path fill="#0000FF" d="M95.34,22.893l8.114-8.114v8.114H95.34z"/>
<path fill="#FF0000" d="M125.042,22.893l8.114-8.114v8.114H125.042z"/>
<path fill="none" stroke="#7F7F7F" stroke-width="2" d="M114.32,8.114h5.361v1.304h-5.361V8.114"/>
<path fill="none" stroke="#7F7F7F" stroke-width="2" d="M114.32,10.722h5.361v1.304h-5.361V10.722"/>
<path fill="none" stroke="#7F7F7F" stroke-width="2" d="M114.32,13.475h5.361v1.304h-5.361V13.475"/>
<path fill="none" stroke="#7F7F7F" stroke-width="2" d="M114.32,16.228h5.361v1.304h-5.361V16.228"/>
<path fill="none" stroke="#7F7F7F" stroke-width="2" d="M122.434,8.114h5.36v1.304h-5.36V8.114"/>
<path fill="none" stroke="#7F7F7F" stroke-width="2" d="M122.434,10.722h5.36v1.304h-5.36V10.722"/>
<path fill="none" stroke="#7F7F7F" stroke-width="2" d="M122.434,13.475h5.36v1.304h-5.36V13.475"/>
<path fill="none" stroke="#7F7F7F" stroke-width="2" d="M122.434,16.228h5.36v1.304h-5.36V16.228"/>
<path fill="#FF0000" stroke="#7F7F7F" stroke-width="2" d="M114.32,8.114h5.361v1.304h-5.361V8.114z"/>
<path fill="none" stroke="#7F7F7F" stroke-width="2" d="M114.32,10.722h5.361v1.304h-5.361V10.722"/>
<path fill="#FF0000" stroke="#7F7F7F" stroke-width="2" d="M114.32,13.475h5.361v1.304h-5.361V13.475z"/>
<path fill="none" stroke="#7F7F7F" stroke-width="2" d="M114.32,16.228h5.361v1.304h-5.361V16.228"/>
<path fill="none" stroke="#7F7F7F" stroke-width="2" d="M122.434,8.114h5.36v1.304h-5.36V8.114"/>
<path fill="#FF0000" stroke="#7F7F7F" stroke-width="2" d="M122.434,10.722h5.36v1.304h-5.36V10.722z"/>
<path fill="none" stroke="#7F7F7F" stroke-width="2" d="M122.434,13.475h5.36v1.304h-5.36V13.475"/>
<path fill="#FF0000" stroke="#7F7F7F" stroke-width="2" d="M122.434,16.228h5.36v1.304h-5.36V16.228z"/>
<path fill="#FF0000" stroke="#7F7F7F" stroke-width="2" d="M84.472,8.114h5.361v1.304h-5.361V8.114z"/>
<path fill="#FF0000" stroke="#7F7F7F" stroke-width="2" d="M84.472,10.722h5.361v1.304h-5.361V10.722z"/>
<path fill="none" stroke="#7F7F7F" stroke-width="2" d="M84.472,13.475h5.361v1.304h-5.361V13.475"/>
<path fill="#FF0000" stroke="#7F7F7F" stroke-width="2" d="M84.472,16.228h5.361v1.304h-5.361V16.228z"/>
<path fill="none" stroke="#7F7F7F" stroke-width="2" d="M92.587,8.114h5.361v1.304h-5.361V8.114"/>
<path fill="none" stroke="#7F7F7F" stroke-width="2" d="M92.587,10.722h5.361v1.304h-5.361V10.722"/>
<path fill="#FF0000" stroke="#7F7F7F" stroke-width="2" d="M92.587,13.475h5.361v1.304h-5.361V13.475z"/>
<path fill="none" stroke="#7F7F7F" stroke-width="2" d="M92.587,16.228h5.361v1.304h-5.361V16.228"/>
<path fill="#FFFFFF" d="M8.695,16.228l0.869-6.81h18.111l-1.014,6.81H8.695z"/>
<path fill="#FFFFFF" d="M26.951,20.285L28.4,9.418h3.912l-1.304,10.867H26.951z"/>
<path fill="#FFFFFF" d="M31.732,20.285l1.305-10.867h4.057L35.79,20.285H31.732z"/>
<path fill="#FFFFFF" d="M36.369,20.285l1.449-10.867h4.057l-1.304,10.867H36.369z"/>
<path fill="#CCCCCC" d="M26.372,20.285l0.29-3.622H16.229l-0.435,3.622H26.372z"/>
<path d="M21.591,74.33h10.722v4.781H21.591V74.33z"/>
<path d="M109.539,74.33h10.867v4.781h-10.867V74.33z"/>
<path d="M135.909,73.605V62.882h4.637v10.723H135.909z"/>
<path stroke="#000000" stroke-width="2" d="M4.058,6.665h1.884v4.057H4.058V6.665z"/>
<path stroke="#000000" stroke-width="2" d="M4.058,14.199h1.884v4.057H4.058V14.199z"/>
<path stroke="#000000" stroke-width="2" d="M4.058,68.244h1.884V72.3H4.058V68.244z"/>
<path fill="none" stroke="#7F7F7F" stroke-width="2" d="M8.695,20.864h31.876"/>
<path fill="none" stroke="#FFFFFF" stroke-width="2" d="M77.663,72.3V24.342h27.095"/>
<path fill="none" stroke="#FFFFFF" stroke-width="2" d="M107.51,72.3V24.342h27.095"/>
<path fill="none" stroke="#7F7F7F" stroke-width="2" d="M134.605,24.197V72.3H107.51"/>
<path fill="none" stroke="#7F7F7F" stroke-width="2" d="M104.758,24.197V72.3H77.663"/>
<path fill="#FFFFFF" d="M22.17,67.664h17.677v2.029H22.17V67.664z"/>
<path fill="#FFFFFF" d="M22.17,62.882h7.534v2.029H22.17V62.882z"/>
<path fill="#FFFFFF" d="M22.17,31.731h10.143v2.028H22.17V31.731z"/>
<path fill="#FFFFFF" d="M22.17,34.484h10.143v2.028H22.17V34.484z"/>
</svg>
