<?xml version="1.0" encoding="utf-8"?>
<!-- Generator: Adobe Illustrator 14.0.0, SVG Export Plug-In . SVG Version: 6.00 Build 43363)  -->
<!DOCTYPE svg PUBLIC "-//W3C//DTD SVG 1.1//EN" "http://www.w3.org/Graphics/SVG/1.1/DTD/svg11.dtd">
<svg version="1.1" id="图层_1" xmlns="http://www.w3.org/2000/svg" xmlns:xlink="http://www.w3.org/1999/xlink" x="0px" y="0px"
	 width="144.749px" height="67.521px" viewBox="0 0 144.749 67.521" enable-background="new 0 0 144.749 67.521"
	 xml:space="preserve">
<path fill="#7F7F7F" stroke="#000000" stroke-width="2" d="M69.404,15.359H80.85v33.905H69.404V15.359z"/>
<path fill="#7F7F7F" stroke="#000000" stroke-width="2" d="M80.85,15.359h11.302v33.905H80.85V15.359z"/>
<path fill="#7F7F7F" stroke="#000000" stroke-width="2" d="M4.346,15.359h53.756v33.905H4.346V15.359z"/>
<path fill="#7F7F7F" stroke="#000000" stroke-width="2" d="M58.102,15.359h11.302v33.905H58.102V15.359z"/>
<path fill="#7F7F7F" stroke="#000000" stroke-width="2" d="M92.152,15.359h48.105v33.905H92.152V15.359z"/>
<path fill="#7F7F7F" stroke="#000000" stroke-width="2" d="M4.346,4.058h135.911v11.302H4.346V4.058z"/>
<path fill="#7F7F7F" stroke="#000000" stroke-width="2" d="M4.346,49.265h135.911v11.301H4.346V49.265z"/>
<path stroke="#000000" stroke-width="2" d="M7.245,60.565h130.114v2.898H7.245V60.565z"/>
<path fill="#CCCCCC" stroke="#000000" stroke-width="2" d="M70.563,18.112h2.753v2.898h-2.753V18.112z"/>
<path fill="#CCCCCC" stroke="#000000" stroke-width="2" d="M70.563,26.661h2.753v2.753h-2.753V26.661z"/>
<path fill="#CCCCCC" stroke="#000000" stroke-width="2" d="M70.563,35.21h2.753v2.753h-2.753V35.21z"/>
<path fill="#CCCCCC" stroke="#000000" stroke-width="2" d="M70.563,43.614h2.753v2.896h-2.753V43.614z"/>
<path fill="#CCCCCC" stroke="#000000" stroke-width="2" d="M70.563,22.459h2.753v2.753h-2.753V22.459z"/>
<path fill="#CCCCCC" stroke="#000000" stroke-width="2" d="M70.563,30.863h2.753v2.898h-2.753V30.863z"/>
<path fill="#CCCCCC" stroke="#000000" stroke-width="2" d="M70.563,39.411h2.753v2.754h-2.753V39.411z"/>
<path fill="#CCCCCC" stroke="#000000" stroke-width="2" d="M81.865,18.112h2.753v2.898h-2.753V18.112z"/>
<path fill="#CCCCCC" stroke="#000000" stroke-width="2" d="M81.865,26.661h2.753v2.753h-2.753V26.661z"/>
<path fill="#CCCCCC" stroke="#000000" stroke-width="2" d="M81.865,35.21h2.753v2.753h-2.753V35.21z"/>
<path fill="#CCCCCC" stroke="#000000" stroke-width="2" d="M81.865,43.614h2.753v2.896h-2.753V43.614z"/>
<path fill="#CCCCCC" stroke="#000000" stroke-width="2" d="M81.865,22.459h2.753v2.753h-2.753V22.459z"/>
<path fill="#CCCCCC" stroke="#000000" stroke-width="2" d="M81.865,30.863h2.753v2.898h-2.753V30.863z"/>
<path fill="#CCCCCC" stroke="#000000" stroke-width="2" d="M81.865,39.411h2.753v2.754h-2.753V39.411z"/>
<path fill="#CCCCCC" stroke="#000000" stroke-width="2" d="M59.261,18.112h2.753v2.898h-2.753V18.112z"/>
<path fill="#CCCCCC" stroke="#000000" stroke-width="2" d="M59.261,22.459h2.753v2.753h-2.753V22.459z"/>
<path stroke="#000000" stroke-width="2" d="M60.565,21.01l0.725,0.725l-0.725,0.724l-0.289-0.145l-0.29-0.29v-0.29v-0.29l0.29-0.435
	H60.565z"/>
<path stroke="#000000" stroke-width="2" d="M60.565,16.664l0.725,0.724l-0.725,0.725h-0.289l-0.29-0.435v-0.29v-0.29l0.29-0.29
	L60.565,16.664z"/>
<path stroke="#000000" stroke-width="2" d="M60.565,25.212l0.725,0.725l-0.725,0.725h-0.289l-0.29-0.435v-0.29v-0.29l0.29-0.29
	L60.565,25.212z"/>
<path stroke="#000000" stroke-width="2" d="M71.867,21.01l0.87,0.725l-0.87,0.724l-0.145-0.145l-0.435-0.29v-0.29v-0.29l0.435-0.435
	H71.867z"/>
<path stroke="#000000" stroke-width="2" d="M71.867,16.664l0.87,0.724l-0.87,0.725h-0.145l-0.435-0.435v-0.29v-0.29l0.435-0.29
	L71.867,16.664z"/>
<path stroke="#000000" stroke-width="2" d="M71.867,25.212l0.87,0.725l-0.87,0.725h-0.145l-0.435-0.435v-0.29v-0.29l0.435-0.29
	L71.867,25.212z"/>
<path stroke="#000000" stroke-width="2" d="M71.867,33.761l0.87,0.725l-0.87,0.58h-0.145l-0.435-0.436v-0.145v-0.29l0.435-0.435
	H71.867z"/>
<path stroke="#000000" stroke-width="2" d="M71.867,29.414l0.87,0.724l-0.87,0.725h-0.145l-0.435-0.435v-0.29v-0.29l0.435-0.29
	L71.867,29.414z"/>
<path stroke="#000000" stroke-width="2" d="M71.867,37.963l0.87,0.724l-0.87,0.725l-0.145-0.145l-0.435-0.289v-0.291v-0.289
	l0.435-0.435H71.867z"/>
<path stroke="#000000" stroke-width="2" d="M71.867,46.511l0.87,0.725l-0.87,0.58h-0.145l-0.435-0.435v-0.146v-0.289l0.435-0.436
	H71.867z"/>
<path stroke="#000000" stroke-width="2" d="M71.867,42.165l0.87,0.725l-0.87,0.725h-0.145l-0.435-0.436V42.89v-0.291l0.435-0.289
	L71.867,42.165z"/>
<path stroke="#000000" stroke-width="2" d="M83.314,21.01l0.725,0.725l-0.725,0.724l-0.29-0.145l-0.435-0.29v-0.29v-0.29
	l0.435-0.435H83.314z"/>
<path stroke="#000000" stroke-width="2" d="M83.314,16.664l0.725,0.724l-0.725,0.725h-0.29l-0.435-0.435v-0.29v-0.29l0.435-0.29
	L83.314,16.664z"/>
<path stroke="#000000" stroke-width="2" d="M83.314,25.212l0.725,0.725l-0.725,0.725h-0.29l-0.435-0.435v-0.29v-0.29l0.435-0.29
	L83.314,25.212z"/>
<path stroke="#000000" stroke-width="2" d="M83.314,33.761l0.725,0.725l-0.725,0.58h-0.29L82.59,34.63v-0.145v-0.29l0.435-0.435
	H83.314z"/>
<path stroke="#000000" stroke-width="2" d="M83.314,29.414l0.725,0.724l-0.725,0.725h-0.29l-0.435-0.435v-0.29v-0.29l0.435-0.29
	L83.314,29.414z"/>
<path stroke="#000000" stroke-width="2" d="M83.314,37.963l0.725,0.724l-0.725,0.725l-0.29-0.145l-0.435-0.289v-0.291v-0.289
	l0.435-0.435H83.314z"/>
<path stroke="#000000" stroke-width="2" d="M83.314,42.165l0.725,0.725l-0.725,0.725h-0.29l-0.435-0.436V42.89v-0.291l0.435-0.289
	L83.314,42.165z"/>
<path stroke="#000000" stroke-width="2" d="M83.314,46.511l0.725,0.725l-0.725,0.58h-0.29l-0.435-0.435v-0.146v-0.289l0.435-0.436
	H83.314z"/>
<path fill="none" stroke="#000000" stroke-width="2" d="M4.346,18.112h1.449v-5.651"/>
<path fill="none" stroke="#000000" stroke-width="2" d="M140.258,18.112h-1.449v-5.651"/>
<path fill="none" stroke="#000000" stroke-width="2" d="M140.258,46.511h-1.449v5.651"/>
<path fill="none" stroke="#000000" stroke-width="2" d="M4.346,46.511h1.449v5.651"/>
<path fill="none" stroke="#FFFFFF" stroke-width="2" d="M4.057,15.359h1.304"/>
<path fill="none" stroke="#FFFFFF" stroke-width="2" d="M4.057,49.265h1.304"/>
<path fill="none" stroke="#FFFFFF" stroke-width="2" d="M139.243,15.359h1.304"/>
<path fill="none" stroke="#FFFFFF" stroke-width="2" d="M139.243,49.265h1.304"/>
</svg>
