<?xml version="1.0" encoding="utf-8"?>
<!-- Generator: Adobe Illustrator 14.0.0, SVG Export Plug-In . SVG Version: 6.00 Build 43363)  -->
<!DOCTYPE svg PUBLIC "-//W3C//DTD SVG 1.1//EN" "http://www.w3.org/Graphics/SVG/1.1/DTD/svg11.dtd">
<svg version="1.1" id="图层_1" xmlns="http://www.w3.org/2000/svg" xmlns:xlink="http://www.w3.org/1999/xlink" x="0px" y="0px"
	 width="47.866px" height="106.502px" viewBox="0 0 47.866 106.502" enable-background="new 0 0 47.866 106.502"
	 xml:space="preserve">
<path stroke="#000000" stroke-width="2" d="M2.985,2.987h41.789v100.422H2.985V2.987z"/>
<path fill="none" stroke="#00FFFF" stroke-width="2" d="M5.117,13.434h37.631"/>
<path fill="none" stroke="#7F7F7F" stroke-width="2" d="M4.051,4.053h14.605v98.29H4.051V4.053"/>
<path fill="none" stroke="#7F7F7F" stroke-width="2" d="M18.656,4.053h10.447v98.29H18.656V4.053"/>
<path fill="none" stroke="#7F7F7F" stroke-width="2" d="M29.103,4.053h14.711v98.29H29.103V4.053"/>
<path fill="#00FF00" stroke="#000000" stroke-width="2" d="M6.29,39.126h10.021v16.736H6.29V39.126z"/>
<path fill="#7F7F7F" stroke="#000000" stroke-width="2" d="M6.716,39.659h9.168V55.33H6.716V39.659z"/>
<path fill="#00FF00" stroke="#000000" stroke-width="2" d="M8.742,39.126h5.01v16.736h-5.01V39.126z"/>
<path fill="none" stroke="#000000" stroke-width="2" d="M9.701,40.085v14.818"/>
<path fill="none" stroke="#000000" stroke-width="2" d="M12.792,40.085v14.818"/>
<path fill="#00FF00" stroke="#000000" stroke-width="2" d="M6.29,20.257h10.021v16.737H6.29V20.257z"/>
<path fill="#7F7F7F" stroke="#000000" stroke-width="2" d="M6.716,20.897h9.168v15.671H6.716V20.897z"/>
<path fill="#00FF00" stroke="#000000" stroke-width="2" d="M8.742,20.257h5.01v16.737h-5.01V20.257z"/>
<path fill="none" stroke="#000000" stroke-width="2" d="M9.701,21.323v14.711"/>
<path fill="none" stroke="#000000" stroke-width="2" d="M12.792,21.323v14.711"/>
<path fill="#00FF00" stroke="#000000" stroke-width="2" d="M6.503,60.021h10.021v13.325H6.503V60.021z"/>
<path fill="#7F7F7F" stroke="#000000" stroke-width="2" d="M6.929,60.447h9.275v12.58H6.929V60.447z"/>
<path fill="#00FF00" stroke="#000000" stroke-width="2" d="M8.955,60.021h5.011v13.325H8.955V60.021z"/>
<path fill="none" stroke="#000000" stroke-width="2" d="M9.914,60.873v11.833"/>
<path fill="none" stroke="#000000" stroke-width="2" d="M13.006,60.873v11.833"/>
<path fill="#00FF00" stroke="#000000" stroke-width="2" d="M6.503,75.158h10.021v13.433H6.503V75.158z"/>
<path fill="#7F7F7F" stroke="#000000" stroke-width="2" d="M6.929,75.692h9.275v12.473H6.929V75.692z"/>
<path fill="#00FF00" stroke="#000000" stroke-width="2" d="M8.955,75.158h5.011v13.433H8.955V75.158z"/>
<path fill="none" stroke="#000000" stroke-width="2" d="M9.914,76.011v11.833"/>
<path fill="none" stroke="#000000" stroke-width="2" d="M13.006,76.011v11.833"/>
<circle stroke="#7F7F7F" stroke-width="2" cx="7.676" cy="8.744" r="1.599"/>
<path fill="none" stroke="#FFFFFF" stroke-width="2" d="M6.609,9.81L6.503,9.703L6.396,9.597L6.29,9.49V9.277L6.183,9.17V9.064
	L6.077,8.85V8.743l0.106-0.319l0.106-0.32l0.107-0.213l0.213-0.32l0.213-0.106l0.213-0.213l0.32-0.106h0.32h0.213h0.107l0.106,0.106
	h0.213l0.106,0.106l0.106,0.106h0.106l0.107,0.106"/>
<circle stroke="#7F7F7F" stroke-width="2" cx="22.28" cy="8.744" r="1.493"/>
<path fill="none" stroke="#FFFFFF" stroke-width="2" d="M21.214,9.81l-0.106-0.106l-0.107-0.106L20.895,9.49V9.277L20.788,9.17
	V9.064V8.85V8.743V8.424l0.106-0.32l0.106-0.213l0.213-0.32l0.213-0.106l0.32-0.213l0.32-0.106h0.213h0.213H22.6l0.213,0.106h0.106
	l0.107,0.106l0.213,0.106h0.107l0.106,0.106"/>
<circle stroke="#7F7F7F" stroke-width="2" cx="32.728" cy="8.744" r="1.493"/>
<path fill="none" stroke="#FFFFFF" stroke-width="2" d="M31.662,9.81l-0.106-0.106l-0.106-0.106V9.49l-0.107-0.213V9.17
	l-0.105-0.106V8.85V8.743V8.424l0.105-0.32l0.107-0.213l0.213-0.32l0.32-0.106l0.213-0.213l0.32-0.106h0.319h0.106h0.213
	l0.107,0.106h0.105l0.214,0.106l0.106,0.106h0.107L33.9,7.571"/>
<circle fill="#663333" stroke="#7F7F7F" stroke-width="2" cx="7.889" cy="17.379" r="0.747"/>
<circle fill="#663333" stroke="#7F7F7F" stroke-width="2" cx="22.6" cy="17.379" r="0.747"/>
<circle fill="#FF0000" stroke="#FFFF00" stroke-width="2" cx="33.047" cy="17.379" r="0.747"/>
<path fill="#191919" d="M21.854,20.257h4.157v11.514h-4.157V20.257z"/>
<path fill="#7F7F7F" stroke="#000000" stroke-width="2" d="M23.879,21.323l0.747,0.319l0.318,0.746l-0.318,0.64l-0.747,0.32
	l-0.64-0.32l-0.32-0.64l0.32-0.746L23.879,21.323z"/>
<path fill="#7F7F7F" stroke="#000000" stroke-width="2" d="M23.879,24.948l0.64,0.32l0.32,0.746l-0.32,0.746l-0.64,0.213
	l-0.746-0.213l-0.32-0.746l0.32-0.746L23.879,24.948z"/>
<path fill="#7F7F7F" stroke="#000000" stroke-width="2" d="M23.879,28.573l0.853,0.532l0.213,0.533l-0.532,0.96l-0.533,0.213
	l-0.853-0.533l-0.213-0.64l0.426-0.853L23.879,28.573z"/>
<path fill="#191919" d="M21.854,74.625h4.157v11.514h-4.157V74.625z"/>
<path fill="#7F7F7F" stroke="#000000" stroke-width="2" d="M23.879,75.798l0.747,0.32l0.318,0.639l-0.318,0.747l-0.747,0.319
	l-0.64-0.319l-0.32-0.747l0.32-0.639L23.879,75.798z"/>
<path fill="#7F7F7F" stroke="#000000" stroke-width="2" d="M23.879,79.423l0.64,0.319l0.32,0.746l-0.32,0.64l-0.64,0.32l-0.746-0.32
	l-0.32-0.64l0.32-0.746L23.879,79.423z"/>
<path fill="#7F7F7F" stroke="#000000" stroke-width="2" d="M23.879,83.047l0.853,0.533l0.213,0.533l-0.532,0.853l-0.533,0.213
	l-0.853-0.532l-0.213-0.533l0.426-0.854L23.879,83.047z"/>
<path fill="#191919" d="M21.854,47.442h4.157v11.513h-4.157V47.442z"/>
<path fill="#7F7F7F" stroke="#000000" stroke-width="2" d="M23.879,48.507l0.747,0.32l0.318,0.746l-0.532,0.853l-0.533,0.106
	l-0.853-0.426l-0.213-0.533l0.533-0.853L23.879,48.507z"/>
<path fill="#7F7F7F" stroke="#000000" stroke-width="2" d="M23.879,52.239l0.64,0.319l0.32,0.64l-0.32,0.747l-0.64,0.319
	l-0.746-0.319l-0.32-0.747l0.32-0.64L23.879,52.239z"/>
<path fill="#7F7F7F" stroke="#000000" stroke-width="2" d="M23.879,55.863l0.747,0.214l0.318,0.746l-0.318,0.746l-0.747,0.213
	l-0.64-0.213l-0.32-0.746l0.32-0.746L23.879,55.863z"/>
<path fill="#7F7F7F" stroke="#000000" stroke-width="2" d="M24.945,71.001v-8.422l-2.025,1.065v6.29L24.945,71.001z"/>
<circle fill="#7F7F7F" stroke="#000000" stroke-width="2" cx="23.879" cy="62.046" r="1.066"/>
<circle fill="#7F7F7F" stroke="#000000" stroke-width="2" cx="23.879" cy="71.534" r="1.066"/>
<path fill="#663333" stroke="#000000" stroke-width="2" d="M21.854,34.328h4.157v4.158h-4.157V34.328z"/>
<path fill="#7F7F7F" d="M21.854,34.328h0.959v4.158h-0.959V34.328z"/>
<path fill="#191919" stroke="#7F7F7F" stroke-width="2" d="M32.301,23.881h8.315v6.823h-8.315V23.881z"/>
<path stroke="#000000" stroke-width="2" d="M33.367,24.948h2.666v0.533h-2.666V24.948z"/>
<path stroke="#000000" stroke-width="2" d="M33.367,27.079h2.666v0.533h-2.666V27.079z"/>
<path stroke="#000000" stroke-width="2" d="M33.367,29.105h2.666v0.533h-2.666V29.105z"/>
<path stroke="#000000" stroke-width="2" d="M36.885,24.948h0.853v0.533h-0.853V24.948z"/>
<path stroke="#000000" stroke-width="2" d="M36.885,27.079h0.853v0.533h-0.853V27.079z"/>
<path stroke="#000000" stroke-width="2" d="M36.885,29.105h0.853v0.533h-0.853V29.105z"/>
<ellipse stroke="#000000" stroke-width="2" cx="39.125" cy="25.161" rx="0.426" ry="0.213"/>
<ellipse stroke="#000000" stroke-width="2" cx="39.125" cy="29.318" rx="0.426" ry="0.213"/>
<ellipse stroke="#000000" stroke-width="2" cx="39.125" cy="27.293" rx="0.426" ry="0.213"/>
<path fill="none" stroke="#7F7F7F" stroke-width="2" d="M34.327,84.326V60.66l4.265-2.239v28.784L34.327,84.326"/>
<circle stroke="#7F7F7F" stroke-width="2" cx="7.676" cy="98.719" r="1.599"/>
<path fill="none" stroke="#FFFFFF" stroke-width="2" d="M6.609,99.784l-0.106-0.106l-0.106-0.107L6.29,99.464v-0.106l-0.106-0.213
	v-0.106l-0.106-0.107v-0.213l0.106-0.319l0.106-0.32l0.107-0.213l0.213-0.213l0.213-0.214l0.213-0.213l0.32-0.106h0.32h0.213h0.107
	l0.106,0.106h0.213l0.106,0.106l0.106,0.106l0.106,0.106l0.107,0.107"/>
<circle stroke="#7F7F7F" stroke-width="2" cx="22.28" cy="98.718" r="1.492"/>
<path fill="none" stroke="#FFFFFF" stroke-width="2" d="M21.214,99.784l-0.106-0.106l-0.107-0.107l-0.106-0.106v-0.106l-0.106-0.213
	v-0.106v-0.107v-0.213v-0.319l0.106-0.32l0.106-0.213l0.213-0.213l0.213-0.214l0.32-0.213l0.32-0.106h0.213h0.213H22.6l0.213,0.106
	h0.106l0.107,0.106l0.213,0.106l0.107,0.106l0.106,0.107"/>
<circle stroke="#7F7F7F" stroke-width="2" cx="32.728" cy="98.718" r="1.492"/>
<path fill="none" stroke="#FFFFFF" stroke-width="2" d="M31.662,99.784l-0.106-0.106l-0.106-0.107v-0.106l-0.107-0.106v-0.213
	l-0.105-0.106v-0.107v-0.213v-0.319l0.105-0.32l0.107-0.213l0.213-0.213l0.32-0.214l0.213-0.213l0.32-0.106h0.319h0.106h0.213
	l0.107,0.106h0.105l0.214,0.106l0.106,0.106l0.107,0.106l0.105,0.107"/>
<path fill="none" stroke="#FFFFFF" stroke-width="2" d="M3.944,4.053h39.764"/>
</svg>
