<?xml version="1.0" encoding="utf-8"?>
<!-- Generator: Adobe Illustrator 14.0.0, SVG Export Plug-In . SVG Version: 6.00 Build 43363)  -->
<!DOCTYPE svg PUBLIC "-//W3C//DTD SVG 1.1//EN" "http://www.w3.org/Graphics/SVG/1.1/DTD/svg11.dtd">
<svg version="1.1" id="图层_1" xmlns="http://www.w3.org/2000/svg" xmlns:xlink="http://www.w3.org/1999/xlink" x="0px" y="0px"
	 width="144.749px" height="84.183px" viewBox="0 0 144.749 84.183" enable-background="new 0 0 144.749 84.183"
	 xml:space="preserve">
<path fill="#E5CB7F" d="M4.057,4.057h126.201v73.46H4.057V4.057z"/>
<path fill="#99CCCC" d="M9.274,9.273h15.793v7.824H9.274V9.273z"/>
<path fill="#99CCCC" d="M27.676,9.273h15.793v7.824H27.676V9.273z"/>
<path fill="#99CCCC" d="M9.274,19.706h15.793v7.969H9.274V19.706z"/>
<path fill="#99CCCC" d="M27.676,19.706h15.793v7.969H27.676V19.706z"/>
<path fill="#990000" d="M51.293,51.292h10.432v10.432H51.293V51.292z"/>
<path fill="#990000" d="M67.086,51.292h10.433v10.432H67.086V51.292z"/>
<path fill="#990000" d="M82.879,51.292h10.433v10.432H82.879V51.292z"/>
<path fill="#990000" d="M98.527,51.292h10.577v10.432H98.527V51.292z"/>
<path fill="#D9B366" d="M130.114,19.706h10.433v5.361h-5.217v55.059h-5.216V19.706z"/>
<path fill="#D9B366" d="M64.477,14.489h23.618v23.617H64.477V14.489z"/>
<path fill="#D9B366" d="M32.891,32.891h23.763v5.216H32.891V32.891z"/>
<path fill="#D9B366" d="M95.92,27.674V9.273h5.36v18.401H95.92z"/>
<path fill="#D9B366" d="M106.497,27.674V9.273h5.216v18.401H106.497z"/>
<path fill="#D9B366" d="M116.928,27.674V9.273h5.361v18.401H116.928z"/>
<path fill="none" stroke="#000000" stroke-width="2" d="M4.057,4.057h126.201v73.46H4.057V4.057"/>
<path fill="#007F00" d="M14.49,46.076h15.793v26.226H14.49V46.076z"/>
<path fill="#007F00" d="M67.086,74.91h52.451v5.216H67.086V74.91z"/>
</svg>
