<?xml version="1.0" encoding="utf-8"?>
<!-- Generator: Adobe Illustrator 14.0.0, SVG Export Plug-In . SVG Version: 6.00 Build 43363)  -->
<!DOCTYPE svg PUBLIC "-//W3C//DTD SVG 1.1//EN" "http://www.w3.org/Graphics/SVG/1.1/DTD/svg11.dtd">
<svg version="1.1" id="图层_1" xmlns="http://www.w3.org/2000/svg" xmlns:xlink="http://www.w3.org/1999/xlink" x="0px" y="0px"
	 width="58.313px" height="106.502px" viewBox="0 0 58.313 106.502" enable-background="new 0 0 58.313 106.502"
	 xml:space="preserve">
<path stroke="#000000" stroke-width="2" d="M2.985,2.987h52.343v100.422H2.985V2.987z"/>
<path fill="#E5E5E5" stroke="#000000" stroke-width="2" d="M2.985,2.987h52.343l-1.065,1.066l-50.211,98.29l-1.066,1.065V2.987z"/>
<path fill="#7F7F7F" stroke="#000000" stroke-width="2" d="M4.051,4.053h50.211v98.29H4.051V4.053z"/>
<path stroke="#000000" stroke-width="2" d="M6.077,7.145h46.053v77.502H6.077V7.145z"/>
<path d="M55.328,5.545V5.332H2.985v0.427h52.343V5.545z"/>
<path fill="#00FFFF" stroke="#00FFFF" stroke-width="2" d="M11.833,47.974h2.665v33.475h-2.665V47.974z"/>
<path fill="#00FFFF" stroke="#00FFFF" stroke-width="2" d="M20.788,47.974h2.559v33.475h-2.559V47.974z"/>
<path fill="#00FFFF" stroke="#00FFFF" stroke-width="2" d="M24.945,47.974h2.666v33.475h-2.666V47.974z"/>
<path fill="none" stroke="#00FFFF" stroke-width="2" d="M15.991,81.448h3.198"/>
<path fill="none" stroke="#00FFFF" stroke-width="2" d="M15.991,73.027h3.198"/>
<path fill="none" stroke="#00FFFF" stroke-width="2" d="M15.991,64.711h3.198"/>
<path fill="none" stroke="#00FFFF" stroke-width="2" d="M15.991,56.289h3.198"/>
<path fill="none" stroke="#00FFFF" stroke-width="2" d="M15.991,47.974h3.198"/>
<path fill="none" stroke="#00FFFF" stroke-width="2" d="M15.991,39.552h3.198"/>
<path fill="none" stroke="#00FFFF" stroke-width="2" d="M40.083,23.349h2.665v5.224h-2.665V23.349"/>
<path fill="none" stroke="#00FFFF" stroke-width="2" d="M36.459,23.349h2.664v5.224h-2.664V23.349"/>
<path fill="none" stroke="#00FFFF" stroke-width="2" d="M32.834,23.349H35.5v5.224h-2.665V23.349"/>
<path fill="#7F7F7F" stroke="#000000" stroke-width="2" d="M6.077,85.393h8.635v7.675H6.077V85.393z"/>
<path fill="#7F7F7F" stroke="#000000" stroke-width="2" d="M6.077,93.707h8.635v7.676H6.077V93.707z"/>
<path fill="#7F7F7F" stroke="#000000" stroke-width="2" d="M15.458,85.393h8.635v7.675h-8.635V85.393z"/>
<path fill="#7F7F7F" stroke="#000000" stroke-width="2" d="M15.458,93.707h8.635v7.676h-8.635V93.707z"/>
<path fill="#7F7F7F" stroke="#000000" stroke-width="2" d="M24.839,85.393h8.635v7.675h-8.635V85.393z"/>
<path fill="#7F7F7F" stroke="#000000" stroke-width="2" d="M24.839,93.707h8.635v7.676h-8.635V93.707z"/>
<path fill="#7F7F7F" stroke="#000000" stroke-width="2" d="M34.22,85.393h8.635v7.675H34.22V85.393z"/>
<path fill="#7F7F7F" stroke="#000000" stroke-width="2" d="M34.22,93.707h8.635v7.676H34.22V93.707z"/>
<path fill="#7F7F7F" stroke="#000000" stroke-width="2" d="M43.495,85.393h8.635v7.675h-8.635V85.393z"/>
<path fill="#7F7F7F" stroke="#000000" stroke-width="2" d="M43.495,93.707h8.635v7.676h-8.635V93.707z"/>
<path fill="#FFFFFF" stroke="#000000" stroke-width="2" d="M17.59,99.784l2.345-4.158l2.452,4.158H17.59z"/>
<path fill="#FFFFFF" stroke="#000000" stroke-width="2" d="M41.149,95.626l-2.345,4.158l-2.345-4.158H41.149z"/>
<path fill="none" stroke="#CCCCCC" stroke-width="2" d="M6.609,89.337h7.356"/>
<path fill="none" stroke="#CCCCCC" stroke-width="2" d="M15.991,89.337h7.356"/>
<path fill="none" stroke="#CCCCCC" stroke-width="2" d="M25.372,89.337h7.355"/>
<path fill="none" stroke="#CCCCCC" stroke-width="2" d="M34.752,89.337h7.356"/>
<path fill="none" stroke="#CCCCCC" stroke-width="2" d="M44.134,89.337h7.356"/>
<path fill="none" stroke="#CCCCCC" stroke-width="2" d="M6.609,97.652h7.356"/>
<path fill="none" stroke="#CCCCCC" stroke-width="2" d="M44.134,97.652h7.356"/>
<path fill="none" stroke="#7F7F7F" stroke-width="2" d="M9.808,13.967h34.541v16.204H9.808V13.967"/>
<path fill="none" stroke="#00FFFF" stroke-width="2" d="M29.103,23.349h2.665v5.224h-2.665V23.349"/>
<path fill="none" stroke="#00FFFF" stroke-width="2" d="M40.083,15.567h2.665v5.224h-2.665V15.567"/>
<path fill="none" stroke="#00FFFF" stroke-width="2" d="M36.459,15.567h2.664v5.224h-2.664V15.567"/>
<path fill="none" stroke="#00FFFF" stroke-width="2" d="M32.834,15.567H35.5v5.224h-2.665V15.567"/>
<path fill="none" stroke="#00FFFF" stroke-width="2" d="M29.103,15.567h2.665v5.224h-2.665V15.567"/>
</svg>
