<?xml version="1.0" encoding="utf-8"?>
<!-- Generator: Adobe Illustrator 14.0.0, SVG Export Plug-In . SVG Version: 6.00 Build 43363)  -->
<!DOCTYPE svg PUBLIC "-//W3C//DTD SVG 1.1//EN" "http://www.w3.org/Graphics/SVG/1.1/DTD/svg11.dtd">
<svg version="1.1" id="图层_1" xmlns="http://www.w3.org/2000/svg" xmlns:xlink="http://www.w3.org/1999/xlink" x="0px" y="0px"
	 width="56.182px" height="106.502px" viewBox="0 0 56.182 106.502" enable-background="new 0 0 56.182 106.502"
	 xml:space="preserve">
<path fill="#E5E5E5" stroke="#000000" stroke-width="2" d="M2.985,2.987h50.212v100.423H2.985V2.987z"/>
<path stroke="#000000" stroke-width="2" d="M6.076,6.077h44.028v94.24H6.076V6.077z"/>
<path fill="#7F7F7F" d="M7.676,82.195h12.579v8.636H7.676V82.195z"/>
<path fill="#7F7F7F" d="M21.747,82.195h26.759v8.636H21.747V82.195z"/>
<path fill="#7F7F7F" d="M7.676,72.068h12.579v8.635H7.676V72.068z"/>
<path fill="#7F7F7F" d="M35.926,72.068h12.58v8.635h-12.58V72.068z"/>
<path fill="#7F7F7F" d="M21.747,72.068h12.58v8.635h-12.58V72.068z"/>
<path fill="#7F7F7F" d="M7.676,61.833h12.579v8.635H7.676V61.833z"/>
<path fill="#7F7F7F" d="M35.926,61.833h12.58v8.635h-12.58V61.833z"/>
<path fill="#7F7F7F" d="M21.747,61.833h12.58v8.635h-12.58V61.833z"/>
<ellipse fill="#7F7F7F" stroke="#000000" stroke-width="2" cx="13.859" cy="66.204" rx="4.69" ry="1.918"/>
<path fill="#333333" d="M10.874,68.122h6.076l0.319-0.106h0.214l0.319-0.213l0.214-0.106l0.213-0.32l0.106-0.213l0.213-0.213
	l0.107-0.32H9.275l0.106,0.32l0.106,0.213l0.107,0.319l0.213,0.214l0.319,0.213l0.214,0.106h0.213L10.874,68.122z"/>
<ellipse fill="#7F7F7F" stroke="#000000" stroke-width="2" cx="28.037" cy="66.204" rx="4.69" ry="1.918"/>
<path fill="#333333" d="M25.053,68.122h6.076l0.213-0.106h0.32l0.213-0.213l0.213-0.106l0.214-0.32l0.213-0.213l0.106-0.213
	l0.106-0.32h-9.381l0.106,0.32l0.106,0.213l0.214,0.319l0.213,0.214l0.213,0.213l0.214,0.106h0.319L25.053,68.122z"/>
<ellipse fill="#7F7F7F" stroke="#000000" stroke-width="2" cx="42.11" cy="66.204" rx="4.69" ry="1.918"/>
<path fill="#333333" d="M39.124,68.122h6.077l0.213-0.106h0.32l0.319-0.213l0.106-0.106l0.214-0.32l0.213-0.213L46.8,66.95
	l0.106-0.32h-9.381v0.32l0.213,0.213l0.106,0.319l0.214,0.214l0.319,0.213l0.213,0.106h0.214L39.124,68.122z"/>
<path fill="#7F7F7F" stroke="#000000" stroke-width="2" d="M10.981,78.357h5.97l0.959-0.426l0.64-0.854l0.107-0.64l-0.32-1.065
	l-0.746-0.746l-0.64-0.214h-5.97l-0.96,0.427l-0.319,0.213l-0.427,0.96l-0.106,0.426l0.319,0.96l0.854,0.746L10.981,78.357z"/>
<path fill="#333333" d="M10.874,78.357h6.076l0.319-0.106l0.214-0.106l0.319-0.106l0.214-0.213l0.213-0.214l0.106-0.213l0.213-0.32
	l0.107-0.319H9.275l0.106,0.319l0.106,0.32l0.107,0.213l0.213,0.214l0.319,0.213l0.214,0.106l0.213,0.106L10.874,78.357z"/>
<ellipse fill="#7F7F7F" stroke="#000000" stroke-width="2" cx="28.037" cy="76.331" rx="4.69" ry="1.919"/>
<path fill="#333333" d="M25.053,78.357h6.076l0.213-0.106l0.32-0.106l0.213-0.106l0.213-0.213l0.214-0.214l0.213-0.213l0.106-0.32
	l0.106-0.319h-9.381l0.106,0.319l0.106,0.32l0.214,0.213l0.213,0.214l0.213,0.213l0.214,0.106l0.319,0.106L25.053,78.357z"/>
<path fill="#7F7F7F" stroke="#000000" stroke-width="2" d="M39.231,78.357h5.971l0.959-0.426l0.64-0.854l0.106-0.64l-0.319-1.065
	l-0.746-0.746l-0.64-0.214h-5.971l-0.959,0.427l-0.32,0.213l-0.426,0.96l-0.106,0.426l0.319,0.96l0.746,0.746L39.231,78.357z"/>
<path fill="#333333" d="M39.124,78.357h6.077l0.213-0.106l0.32-0.106l0.319-0.106l0.106-0.213l0.214-0.214l0.213-0.213l0.213-0.32
	l0.106-0.319h-9.381v0.319l0.213,0.32l0.106,0.213l0.214,0.214l0.319,0.213l0.213,0.106l0.214,0.106L39.124,78.357z"/>
<path fill="#7F7F7F" stroke="#000000" stroke-width="2" d="M10.981,88.485h5.97l0.959-0.319l0.64-0.854l0.107-0.746l-0.32-1.066
	l-0.746-0.64l-0.64-0.213h-5.97l-0.96,0.32L9.701,85.18l-0.427,1.066l-0.106,0.319l0.319,1.066l0.854,0.64L10.981,88.485z"/>
<path fill="#333333" d="M10.874,88.485h6.076h0.319l0.214-0.106l0.319-0.213l0.214-0.107l0.213-0.213l0.106-0.319l0.213-0.214
	l0.107-0.319H9.275l0.106,0.319l0.106,0.32l0.107,0.213l0.213,0.213l0.319,0.214l0.214,0.106l0.213,0.106H10.874z"/>
<path fill="#7F7F7F" stroke="#000000" stroke-width="2" d="M39.231,88.485h5.971l0.959-0.319l0.64-0.854l0.106-0.746l-0.319-1.066
	l-0.746-0.64l-0.64-0.213h-5.971l-0.959,0.32l-0.32,0.213l-0.426,1.066l-0.106,0.319l0.319,1.066l0.746,0.64L39.231,88.485z"/>
<path fill="#333333" d="M39.124,88.485h6.077h0.213l0.32-0.106l0.319-0.213l0.106-0.107l0.214-0.213l0.213-0.319l0.213-0.214
	l0.106-0.319h-9.381v0.319l0.213,0.32l0.106,0.213l0.214,0.213l0.319,0.214l0.213,0.106l0.214,0.106H39.124z"/>
<path fill="none" stroke="#7F7F7F" stroke-width="2" d="M18.656,57.995h29.85V43.71h-29.85V57.995"/>
<path fill="none" stroke="#7F7F7F" stroke-width="2" d="M18.656,42.217h29.85V28.038h-29.85V42.217"/>
<path fill="none" stroke="#FFFFFF" stroke-width="2" d="M43.816,10.769V7.677h3.091"/>
<path fill="none" stroke="#FFFFFF" stroke-width="2" d="M43.816,9.276h3.091"/>
<circle stroke="#FFFFFF" stroke-width="2" cx="42.216" cy="8.423" r="0.746"/>
<path fill="none" stroke="#00FF00" stroke-width="2" d="M9.275,51.492h1.492v-0.854H9.275v-0.746h1.492"/>
<path fill="none" stroke="#00FF00" stroke-width="2" d="M11.62,49.893l0.746,1.6l0.746-1.6"/>
<circle fill="#FFFF00" cx="15.138" cy="50.32" r="0.427"/>
<path fill="none" stroke="#FF0000" stroke-width="2" d="M11.62,34.328l0.746,1.6l0.746-1.6"/>
<circle fill="#FF0000" cx="15.138" cy="34.755" r="0.426"/>
<path fill="none" stroke="#FF0000" stroke-width="2" d="M9.275,35.928v-1.6h1.492v0.853H9.275"/>
<path fill="none" stroke="#7F7F7F" stroke-width="2" d="M8.529,12.367h7.782v14.179H8.529V12.367"/>
<path fill="none" stroke="#7F7F7F" stroke-width="2" d="M16.311,12.367h7.889v14.179h-7.889V12.367"/>
<path fill="none" stroke="#7F7F7F" stroke-width="2" d="M24.199,12.367h7.889v14.179h-7.889V12.367"/>
<path fill="none" stroke="#7F7F7F" stroke-width="2" d="M32.088,12.367h7.782v14.179h-7.782V12.367"/>
<path fill="none" stroke="#7F7F7F" stroke-width="2" d="M39.87,12.367h7.89v14.179h-7.89V12.367"/>
<circle fill="#FFFF00" cx="12.366" cy="17.485" r="0.427"/>
<path fill="none" stroke="#7F7F7F" stroke-width="2" d="M13.113,14.713H11.62v1.599h1.492"/>
<path fill="none" stroke="#7F7F7F" stroke-width="2" d="M20.255,14.713h-1.599l0.106,1.599h1.492"/>
<path fill="none" stroke="#7F7F7F" stroke-width="2" d="M21.001,14.713h1.6v0.746h-1.6v0.853h1.6"/>
<path fill="none" stroke="#7F7F7F" stroke-width="2" d="M27.291,16.312v-1.599"/>
<path fill="none" stroke="#7F7F7F" stroke-width="2" d="M27.291,15.566h1.599"/>
<path fill="none" stroke="#7F7F7F" stroke-width="2" d="M28.89,16.312v-1.599"/>
<path fill="none" stroke="#7F7F7F" stroke-width="2" d="M35.18,14.713v1.599h1.493"/>
<path fill="none" stroke="#7F7F7F" stroke-width="2" d="M42.216,16.312v-1.599"/>
<path fill="none" stroke="#7F7F7F" stroke-width="2" d="M42.216,15.566h1.6"/>
<path fill="none" stroke="#7F7F7F" stroke-width="2" d="M43.816,16.312v-1.599"/>
<path fill="none" stroke="#7F7F7F" stroke-width="2" d="M44.562,15.566h0.746v-0.853h-0.746v1.599h1.599v-0.746h-0.853"/>
<path fill="#FFFFFF" stroke="#000000" stroke-width="2" d="M7.676,95.627h7.889v1.492H7.676V95.627z"/>
</svg>
