<?xml version="1.0" encoding="utf-8"?>
<!-- Generator: Adobe Illustrator 14.0.0, SVG Export Plug-In . SVG Version: 6.00 Build 43363)  -->
<!DOCTYPE svg PUBLIC "-//W3C//DTD SVG 1.1//EN" "http://www.w3.org/Graphics/SVG/1.1/DTD/svg11.dtd">
<svg version="1.1" id="图层_1" xmlns="http://www.w3.org/2000/svg" xmlns:xlink="http://www.w3.org/1999/xlink" x="0px" y="0px"
	 width="144.749px" height="87.805px" viewBox="0 0 144.749 87.805" enable-background="new 0 0 144.749 87.805"
	 xml:space="preserve">
<path fill="#7F7F7F" stroke="#000000" stroke-width="2" d="M4.058,4.057h136.487v79.689H4.058V4.057z"/>
<path fill="#FFFFFF" stroke="#000000" stroke-width="2" d="M5.508,82.299L139.096,5.506l1.449-1.448H4.058v79.689L5.508,82.299z"/>
<path stroke="#000000" stroke-width="2" d="M5.508,5.506h133.734v76.793H5.508V5.506z"/>
<path fill="#E5E5E5" stroke="#000000" stroke-width="2" d="M21.155,18.257h102.294v42.598H21.155V18.257z"/>
<path fill="#00FF00" stroke="#000000" stroke-width="2" d="M26.806,26.804h93.89v28.399h-93.89V26.804z"/>
<path fill="none" stroke="#FFFFFF" stroke-width="2" d="M9.709,63.752h11.446v11.447H9.709V63.752"/>
<path fill="none" stroke="#FFFFFF" stroke-width="2" d="M32.457,63.752h11.446v11.447H32.457V63.752"/>
<path stroke="#FFFFFF" stroke-width="2" d="M55.205,63.752h11.446v11.447H55.205V63.752z"/>
<path fill="none" stroke="#FFFFFF" stroke-width="2" d="M77.953,63.752h11.446v11.447H77.953V63.752"/>
<path fill="none" stroke="#FFFFFF" stroke-width="2" d="M100.701,63.752h11.446v11.447h-11.446V63.752"/>
<path fill="none" stroke="#FFFFFF" stroke-width="2" d="M123.449,63.752h11.446v11.447h-11.446V63.752"/>
<path fill="none" stroke="#FFFFFF" stroke-width="2" d="M124.897,41.005h11.446v11.446h-11.446V41.005"/>
<path fill="none" stroke="#FFFFFF" stroke-width="2" d="M124.897,18.257h11.446v11.301h-11.446V18.257"/>
<path fill="#FFFFFF" stroke="#FFFFFF" stroke-width="2" d="M56.654,73.75l4.201-8.549l4.347,8.549H56.654z"/>
<path fill="#FFFFFF" stroke="#FFFFFF" stroke-width="2" d="M87.95,65.201l-4.201,8.549l-4.347-8.549H87.95z"/>
<path fill="#FFFFFF" stroke="#FFFFFF" stroke-width="2" d="M110.698,73.75l-8.549-4.347l8.549-4.202V73.75z"/>
<path fill="#FFFFFF" stroke="#FFFFFF" stroke-width="2" d="M133.446,73.75l-8.549-4.347l8.549-4.202V73.75z"/>
<path fill="#009933" stroke="#000000" stroke-width="2" d="M26.806,26.804h93.89v7.1h-93.89V26.804z"/>
<path fill="#006633" stroke="#000000" stroke-width="2" d="M26.806,26.804h93.89v2.753h-93.89V26.804z"/>
</svg>
