<?xml version="1.0" encoding="utf-8"?>
<!-- Generator: Adobe Illustrator 14.0.0, SVG Export Plug-In . SVG Version: 6.00 Build 43363)  -->
<!DOCTYPE svg PUBLIC "-//W3C//DTD SVG 1.1//EN" "http://www.w3.org/Graphics/SVG/1.1/DTD/svg11.dtd">
<svg version="1.1" id="图层_1" xmlns="http://www.w3.org/2000/svg" xmlns:xlink="http://www.w3.org/1999/xlink" x="0px" y="0px"
	 width="144.749px" height="94.76px" viewBox="0 0 144.749 94.76" enable-background="new 0 0 144.749 94.76" xml:space="preserve">
<path d="M6.666,88.094v2.607h120.84l10.433-5.216v-2.028l-10.433,4.637H6.666z"/>
<path fill="#7387A6" stroke="#000000" stroke-width="2" d="M4.058,88.094V9.273h126.056v78.821H4.058z"/>
<path fill="#A6BAD9" stroke="#000000" stroke-width="2" d="M109.104,82.878V14.489h10.433v68.389H109.104z"/>
<path fill="#A6BAD9" stroke="#000000" stroke-width="2" d="M93.311,82.878V14.489h10.577v68.389H93.311z"/>
<path fill="#A6BAD9" stroke="#000000" stroke-width="2" d="M77.518,82.878V14.489h10.577v68.389H77.518z"/>
<path fill="#A6BAD9" stroke="#000000" stroke-width="2" d="M61.725,82.878V14.489h10.576v68.389H61.725z"/>
<path fill="#A6BAD9" stroke="#000000" stroke-width="2" d="M46.077,82.878V14.489h10.432v68.389H46.077z"/>
<path fill="#A6BAD9" stroke="#000000" stroke-width="2" d="M30.283,82.878V14.489h10.433v68.389H30.283z"/>
<path fill="#A6BAD9" stroke="#000000" stroke-width="2" d="M14.49,82.878V14.489h10.433v68.389H14.49z"/>
<path d="M17.098,48.683v-7.969h5.216v7.969H17.098z"/>
<path d="M17.098,66.94v-7.824h5.216v7.824H17.098z"/>
<path d="M17.098,56.508v-5.216h5.36v5.216H17.098z"/>
<path d="M17.098,74.909v-5.216h5.216v5.216H17.098z"/>
<path d="M32.747,48.683v-7.824h5.36v7.824H32.747z"/>
<path d="M32.747,67.085v-7.969h5.36v7.969H32.747z"/>
<path d="M32.891,56.653v-5.361h5.216v5.361H32.891z"/>
<path d="M32.747,74.909v-5.216h5.36v5.216H32.747z"/>
<path d="M48.54,48.683v-7.824h5.361v7.824H48.54z"/>
<path d="M48.54,67.085v-7.969h5.361v7.969H48.54z"/>
<path d="M48.684,56.653v-5.361h5.217v5.361H48.684z"/>
<path d="M48.54,74.909v-5.216h5.361v5.216H48.54z"/>
<path d="M34.195,82.878v-5.36h2.608v5.36H34.195z"/>
<path d="M18.402,82.878v-5.36h2.608v5.36H18.402z"/>
<path d="M18.402,19.705v-5.216h2.608v5.216H18.402z"/>
<path d="M34.195,19.705v-5.216h2.608v5.216H34.195z"/>
<path d="M49.989,19.705v-5.216h2.607v5.216H49.989z"/>
<path d="M49.989,82.878v-5.36h2.607v5.36H49.989z"/>
<path d="M113.016,47.38h2.608v2.608h-2.608V47.38z"/>
<path d="M113.016,42.164h2.608v2.607h-2.608V42.164z"/>
<path d="M113.016,52.595h2.608v2.608h-2.608V52.595z"/>
<path d="M113.016,36.802h2.608v2.753h-2.608V36.802z"/>
<path d="M113.016,57.812h2.608v2.607h-2.608V57.812z"/>
<path d="M113.016,31.587h2.608v2.607h-2.608V31.587z"/>
<path d="M113.016,63.028h2.608v2.753h-2.608V63.028z"/>
<path d="M97.223,47.38h2.608v2.608h-2.608V47.38z"/>
<path d="M97.223,42.164h2.608v2.607h-2.608V42.164z"/>
<path d="M97.223,52.595h2.608v2.608h-2.608V52.595z"/>
<path d="M97.223,36.802h2.608v2.753h-2.608V36.802z"/>
<path d="M97.223,57.812h2.608v2.607h-2.608V57.812z"/>
<path d="M97.223,31.587h2.608v2.607h-2.608V31.587z"/>
<path d="M97.223,63.028h2.608v2.753h-2.608V63.028z"/>
<path fill="#596D8C" stroke="#000000" stroke-width="2" d="M130.114,9.273l10.432-5.216v78.82l-10.432,5.217V9.273z"/>
<path fill="#BFD3F2" stroke="#000000" stroke-width="2" d="M130.114,9.273l10.432-5.216H14.49L4.058,9.273H130.114z"/>
</svg>
