<?xml version="1.0" encoding="utf-8"?>
<!-- Generator: Adobe Illustrator 14.0.0, SVG Export Plug-In . SVG Version: 6.00 Build 43363)  -->
<!DOCTYPE svg PUBLIC "-//W3C//DTD SVG 1.1//EN" "http://www.w3.org/Graphics/SVG/1.1/DTD/svg11.dtd">
<svg version="1.1" id="图层_1" xmlns="http://www.w3.org/2000/svg" xmlns:xlink="http://www.w3.org/1999/xlink" x="0px" y="0px"
	 width="115.646px" height="106.502px" viewBox="0 0 115.646 106.502" enable-background="new 0 0 115.646 106.502"
	 xml:space="preserve">
<path fill="#E5E5E5" d="M10.072,3.241h102.218V103.26H10.072V3.241z"/>
<path fill="#999999" d="M91.915,7.757h20.374v20.489H91.915V7.757z"/>
<path fill="#999999" d="M64.595,7.757h20.49v20.489h-20.49V7.757z"/>
<path fill="#999999" d="M37.391,7.757h20.374v20.489H37.391V7.757z"/>
<path fill="#999999" d="M10.072,7.757h20.374v20.489H10.072V7.757z"/>
<path fill="#8CA0BF" d="M10.072,32.761h20.374v70.499H10.072V32.761z"/>
<path fill="#999999" d="M41.096,89.601h8.335v13.659h-8.335V89.601z"/>
<path fill="#999999" d="M57.765,89.601H66.1v13.659h-8.335V89.601z"/>
<path fill="#999999" d="M74.435,89.601h8.335v13.659h-8.335V89.601z"/>
<path fill="#999999" d="M91.221,89.601h8.335v13.659h-8.335V89.601z"/>
<path fill="#999999" d="M91.221,30.446h8.335v20.49h-8.335V30.446z"/>
<path fill="#999999" d="M74.435,30.446h8.335v20.49h-8.335V30.446z"/>
<path fill="#999999" d="M57.765,30.446H66.1v20.49h-8.335V30.446z"/>
<path fill="#999999" d="M41.096,30.446h8.335v20.49h-8.335V30.446z"/>
<path fill="#B2B2B2" d="M32.761,89.601h8.335v13.659h-8.335V89.601z"/>
<path fill="#B2B2B2" d="M49.431,89.601h8.334v13.659h-8.334V89.601z"/>
<path fill="#B2B2B2" d="M66.1,89.601h8.451v13.659H66.1V89.601z"/>
<path fill="#B2B2B2" d="M82.77,89.601h8.451v13.659H82.77V89.601z"/>
<path fill="#B2B2B2" d="M99.44,89.601h8.335v13.659H99.44V89.601z"/>
<path fill="#B2B2B2" d="M99.44,30.446h8.335v20.49H99.44V30.446z"/>
<path fill="#B2B2B2" d="M82.77,30.446h8.451v20.49H82.77V30.446z"/>
<path fill="#B2B2B2" d="M66.1,30.446h8.451v20.49H66.1V30.446z"/>
<path fill="#B2B2B2" d="M32.761,30.446h8.335v20.49h-8.335V30.446z"/>
<path fill="#B2B2B2" d="M49.431,30.446h8.334v20.49h-8.334V30.446z"/>
<path fill="#CCCCCC" d="M10.072,12.272h-6.83v90.988h6.83V12.272z"/>
<path fill="none" stroke="#000000" stroke-width="2" d="M10.072,12.272v-9.03h102.218V103.26H3.241V12.272H10.072"/>
<path fill="#666666" d="M103.607,50.936h4.168v38.665h-4.168V50.936z"/>
<path fill="#666666" d="M95.273,50.936h4.283v38.665h-4.283V50.936z"/>
<path fill="#666666" d="M86.938,50.936h4.283v38.665h-4.283V50.936z"/>
<path fill="#666666" d="M78.603,50.936h4.167v38.665h-4.167V50.936z"/>
<path fill="#666666" d="M70.268,50.936h4.283v38.665h-4.283V50.936z"/>
<path fill="#666666" d="M61.933,50.936H66.1v38.665h-4.167V50.936z"/>
<path fill="#666666" d="M53.598,50.936h4.167v38.665h-4.167V50.936z"/>
<path fill="#666666" d="M45.263,50.936h4.168v38.665h-4.168V50.936z"/>
<path fill="#666666" d="M36.928,50.936h4.168v38.665h-4.168V50.936z"/>
<path fill="#BFD3F2" d="M12.271,80.455h15.976v15.976H12.271V80.455z"/>
<path fill="#BFD3F2" d="M12.271,48.62h15.976v15.976H12.271V48.62z"/>
<path fill="#596D8C" d="M12.271,35.076h15.976V48.62H12.271V35.076z"/>
<path fill="#990000" d="M16.902,35.076h6.83V48.62h-6.83V35.076z"/>
<path fill="#990000" d="M16.902,56.609l0.926-2.432l2.431-1.042l2.432,1.042l1.042,2.432l-1.042,2.431l-2.432,0.926l-2.431-0.926
	L16.902,56.609z"/>
</svg>
