<?xml version="1.0" encoding="utf-8"?>
<!-- Generator: Adobe Illustrator 14.0.0, SVG Export Plug-In . SVG Version: 6.00 Build 43363)  -->
<!DOCTYPE svg PUBLIC "-//W3C//DTD SVG 1.1//EN" "http://www.w3.org/Graphics/SVG/1.1/DTD/svg11.dtd">
<svg version="1.1" id="图层_1" xmlns="http://www.w3.org/2000/svg" xmlns:xlink="http://www.w3.org/1999/xlink" x="0px" y="0px"
	 width="126.36px" height="106.502px" viewBox="0 0 126.36 106.502" enable-background="new 0 0 126.36 106.502"
	 xml:space="preserve">
<path fill="#CC9933" stroke="#000000" stroke-width="2" d="M5.818,102.96l-2.277-2.656v-4.807h2.277v-2.529H3.542V20.87h2.277
	v-2.403H3.542V6.072l2.277-2.529h114.596l2.277,2.529v12.396h-2.277v2.403h2.277v72.098h-2.277v2.529h2.277v4.807l-2.277,2.656
	H5.818z"/>
<path fill="#666666" d="M24.539,8.475h89.426v89.426H24.539V8.475z"/>
<path fill="#999999" d="M25.677,97.901V15.938h9.992v81.963H25.677z"/>
<path fill="#999999" d="M13.534,102.96V15.938h11.004v87.022H13.534z"/>
<path fill="#B2B2B2" d="M15.938,43.385h6.198V73.11h-6.198V43.385z"/>
<path fill="#666666" d="M15.938,66.911h6.198v2.403h-6.198V66.911z"/>
<path fill="#666666" d="M33.266,65.015v11.257h-2.277V65.015H33.266z"/>
<path fill="#666666" d="M33.266,80.067v10.878h-2.277V80.067H33.266z"/>
<path fill="#999999" d="M115.356,3.542h1.139v99.418h-1.139V3.542z"/>
<path fill="#999999" d="M9.739,3.542h1.139v99.418H9.739V3.542z"/>
<path fill="#B2B2B2" d="M104.098,97.901V10.878h9.866v85.885h-2.403v1.138H104.098z"/>
<path fill="#B2B2B2" d="M92.967,97.901V10.878h9.74v85.885h-2.404v1.138H92.967z"/>
<path fill="#B2B2B2" d="M81.71,97.901V10.878h9.992v85.885h-2.53v1.138H81.71z"/>
<path fill="#B2B2B2" d="M70.58,97.901V10.878h9.992v85.885h-2.656v1.138H70.58z"/>
<path fill="#B2B2B2" d="M59.322,97.901V10.878h9.993v85.885h-2.656l0.252,1.138H59.322z"/>
<path fill="#B2B2B2" d="M48.065,97.901v-86.77h10.119v85.632h-2.656l0.127,1.138H48.065z"/>
<path fill="#B2B2B2" d="M36.808,97.901V10.878h10.119v85.885h-2.403v1.138H36.808z"/>
<path fill="#B2B2B2" d="M102.959,14.673V3.542h2.404v2.529h7.336v8.602H102.959z"/>
<path fill="#B2B2B2" d="M80.572,14.673V3.542h2.276v2.529h7.717v8.602H80.572z"/>
<path fill="#B2B2B2" d="M58.184,14.673V3.542h2.53v2.529h7.336v8.602H58.184z"/>
<path fill="#B2B2B2" d="M35.669,14.673V3.542h2.656v2.529h7.336v8.602H35.669z"/>
<path fill="#B2B2B2" stroke="#4C4C4C" stroke-width="2" d="M13.534,14.673V3.542h2.403v2.529h7.336v8.602H13.534z"/>
<path fill="#7F7F7F" d="M13.534,12.27h9.739v1.265h-9.739V12.27z"/>
<path fill="#7F7F7F" d="M35.669,12.27h9.993v1.265h-9.993V12.27z"/>
<path fill="#7F7F7F" d="M58.184,12.27h9.866v1.265h-9.866V12.27z"/>
<path fill="#7F7F7F" d="M80.572,12.27h9.993v1.265h-9.993V12.27z"/>
<path fill="#7F7F7F" d="M102.959,12.27h9.74v1.265h-9.74V12.27z"/>
<path fill="none" stroke="#4C4C4C" stroke-width="2" d="M35.669,14.673V3.542h2.656v2.529h7.336v8.602H35.669"/>
<path fill="none" stroke="#4C4C4C" stroke-width="2" d="M58.184,14.673V3.542h2.53v2.529h7.336v8.602H58.184"/>
<path fill="none" stroke="#4C4C4C" stroke-width="2" d="M80.572,14.673V3.542h2.276v2.529h7.717v8.602H80.572"/>
<path fill="none" stroke="#4C4C4C" stroke-width="2" d="M102.959,14.673V3.542h2.404v2.529h7.336v8.602H102.959"/>
<path fill="#CCCCCC" d="M105.364,56.919h7.336v3.795h-7.336V56.919z"/>
<path fill="#CCCCCC" d="M94.106,56.919h7.463v3.795h-7.463V56.919z"/>
<path fill="#CCCCCC" d="M82.848,56.919h7.463v3.795h-7.463V56.919z"/>
<path fill="#CCCCCC" d="M71.717,56.919h7.337v3.795h-7.337V56.919z"/>
<path fill="#CCCCCC" d="M60.46,56.919h7.589v3.795H60.46V56.919z"/>
<path fill="#CCCCCC" d="M49.33,56.919h7.589v3.795H49.33V56.919z"/>
<path fill="#CCCCCC" d="M38.325,56.919h7.336v3.795h-7.336V56.919z"/>
<path fill="#7F7F7F" d="M37.061,53.377h77.03v1.139h-77.03V53.377z"/>
<path fill="#C2C2C2" d="M105.364,60.714h7.336v3.541h-7.336V60.714z"/>
<path fill="#C2C2C2" d="M94.106,60.714h7.463v3.541h-7.463V60.714z"/>
<path fill="#C2C2C2" d="M82.848,60.714h7.717v3.541h-7.717V60.714z"/>
<path fill="#C2C2C2" d="M71.717,60.714h7.59v3.541h-7.59V60.714z"/>
<path fill="#C2C2C2" d="M60.46,60.714h7.589v3.541H60.46V60.714z"/>
<path fill="#C2C2C2" d="M49.583,60.714h7.336v3.541h-7.336V60.714z"/>
<path fill="#C2C2C2" d="M38.325,60.714h7.336v3.541h-7.336V60.714z"/>
<path fill="#B5B5B5" d="M105.364,64.255h7.336v3.795h-7.336V64.255z"/>
<path fill="#B5B5B5" d="M94.106,64.255h7.463v3.795h-7.463V64.255z"/>
<path fill="#B5B5B5" d="M82.848,64.255h7.717v3.795h-7.717V64.255z"/>
<path fill="#B5B5B5" d="M71.717,64.255h7.59v3.795h-7.59V64.255z"/>
<path fill="#B5B5B5" d="M60.46,64.255h7.589v3.795H60.46V64.255z"/>
<path fill="#B5B5B5" d="M49.583,64.255h7.336v3.795h-7.336V64.255z"/>
<path fill="#B5B5B5" d="M38.325,64.255h7.336v3.795h-7.336V64.255z"/>
<path fill="#ABABAB" d="M38.325,68.05h7.336v3.921h-7.336V68.05z"/>
<path fill="#ABABAB" d="M49.583,68.05h7.336v3.921h-7.336V68.05z"/>
<path fill="#ABABAB" d="M60.46,68.05h7.589v3.921H60.46V68.05z"/>
<path fill="#ABABAB" d="M71.717,68.05h7.59v3.921h-7.59V68.05z"/>
<path fill="#ABABAB" d="M82.848,68.05h7.717v3.921h-7.717V68.05z"/>
<path fill="#ABABAB" d="M94.106,68.05h7.463v3.921h-7.463V68.05z"/>
<path fill="#ABABAB" d="M105.364,68.05h7.336v3.921h-7.336V68.05z"/>
<path fill="#9E9E9E" d="M38.325,71.971h7.336v3.542h-7.336V71.971z"/>
<path fill="#9E9E9E" d="M49.583,71.971h7.336v3.542h-7.336V71.971z"/>
<path fill="#9E9E9E" d="M60.46,71.971h7.589v3.542H60.46V71.971z"/>
<path fill="#9E9E9E" d="M71.717,71.971h7.59v3.542h-7.59V71.971z"/>
<path fill="#9E9E9E" d="M82.848,71.971h7.717v3.542h-7.717V71.971z"/>
<path fill="#9E9E9E" d="M94.106,71.971h7.463v3.542h-7.463V71.971z"/>
<path fill="#9E9E9E" d="M105.364,71.971h7.336v3.542h-7.336V71.971z"/>
<path fill="#949494" d="M38.325,75.513h7.336v3.795h-7.336V75.513z"/>
<path fill="#949494" d="M49.583,75.513h7.336v3.795h-7.336V75.513z"/>
<path fill="#949494" d="M60.46,75.513h7.589v3.795H60.46V75.513z"/>
<path fill="#949494" d="M71.717,75.513h7.59v3.795h-7.59V75.513z"/>
<path fill="#949494" d="M82.848,75.513h7.717v3.795h-7.717V75.513z"/>
<path fill="#949494" d="M94.106,75.513h7.463v3.795h-7.463V75.513z"/>
<path fill="#949494" d="M105.364,75.513h7.336v3.795h-7.336V75.513z"/>
<path fill="#878787" d="M38.325,79.308h7.336v3.794h-7.336V79.308z"/>
<path fill="#878787" d="M49.583,79.308h7.336v3.794h-7.336V79.308z"/>
<path fill="#878787" d="M60.46,79.308h7.589v3.794H60.46V79.308z"/>
<path fill="#878787" d="M71.717,79.308h7.59v3.794h-7.59V79.308z"/>
<path fill="#878787" d="M82.848,79.308h7.717v3.794h-7.717V79.308z"/>
<path fill="#878787" d="M94.106,79.308h7.463v3.794h-7.463V79.308z"/>
<path fill="#878787" d="M105.364,79.308h7.336v3.794h-7.336V79.308z"/>
<path fill="#7D7D7D" d="M38.325,83.102h7.336v3.668h-7.336V83.102z"/>
<path fill="#7D7D7D" d="M49.583,83.102h7.336v3.668h-7.336V83.102z"/>
<path fill="#7D7D7D" d="M60.46,83.102h7.589v3.668H60.46V83.102z"/>
<path fill="#7D7D7D" d="M71.717,83.102h7.59v3.668h-7.59V83.102z"/>
<path fill="#7D7D7D" d="M82.848,83.102h7.717v3.668h-7.717V83.102z"/>
<path fill="#7D7D7D" d="M94.106,83.102h7.463v3.668h-7.463V83.102z"/>
<path fill="#7D7D7D" d="M105.364,83.102h7.336v3.668h-7.336V83.102z"/>
<path fill="#707070" d="M38.325,86.77h7.336v3.795h-7.336V86.77z"/>
<path fill="#707070" d="M49.583,86.77h7.336v3.795h-7.336V86.77z"/>
<path fill="#707070" d="M60.46,86.77h7.589v3.795H60.46V86.77z"/>
<path fill="#707070" d="M71.717,86.77h7.59v3.795h-7.59V86.77z"/>
<path fill="#707070" d="M82.848,86.77h7.717v3.795h-7.717V86.77z"/>
<path fill="#707070" d="M94.106,86.77h7.463v3.795h-7.463V86.77z"/>
<path fill="#707070" d="M105.364,86.77h7.336v3.795h-7.336V86.77z"/>
<path fill="#666666" d="M38.325,90.565h7.336v3.542h-7.336V90.565z"/>
<path fill="#666666" d="M49.33,90.565h7.589v3.542H49.33V90.565z"/>
<path fill="#666666" d="M60.46,90.565h7.589v3.542H60.46V90.565z"/>
<path fill="#666666" d="M71.717,90.565h7.337v3.542h-7.337V90.565z"/>
<path fill="#666666" d="M82.848,90.565h7.463v3.542h-7.463V90.565z"/>
<path fill="#666666" d="M94.106,90.565h7.463v3.542h-7.463V90.565z"/>
<path fill="#666666" d="M105.364,90.565h7.336v3.542h-7.336V90.565z"/>
<path fill="none" stroke="#4C4C4C" stroke-width="2" d="M105.364,56.919h7.336v37.188h-7.336V56.919"/>
<path fill="none" stroke="#4C4C4C" stroke-width="2" d="M107.766,60.714v33.393"/>
<path fill="none" stroke="#4C4C4C" stroke-width="2" d="M94.106,56.919h7.463v37.188h-7.463V56.919"/>
<path fill="none" stroke="#4C4C4C" stroke-width="2" d="M96.509,60.714v33.393"/>
<path fill="none" stroke="#4C4C4C" stroke-width="2" d="M82.848,56.919h7.463v37.188h-7.463V56.919"/>
<path fill="none" stroke="#4C4C4C" stroke-width="2" d="M85.504,60.714v33.393"/>
<path fill="none" stroke="#4C4C4C" stroke-width="2" d="M71.717,56.919h7.337v37.188h-7.337V56.919"/>
<path fill="none" stroke="#4C4C4C" stroke-width="2" d="M74.374,60.714v33.393"/>
<path fill="none" stroke="#4C4C4C" stroke-width="2" d="M60.46,56.919h7.589v37.188H60.46V56.919"/>
<path fill="none" stroke="#4C4C4C" stroke-width="2" d="M63.117,60.714v33.393"/>
<path fill="none" stroke="#4C4C4C" stroke-width="2" d="M49.33,56.919h7.589v37.188H49.33V56.919"/>
<path fill="none" stroke="#4C4C4C" stroke-width="2" d="M51.859,60.714v33.393"/>
<path fill="none" stroke="#4C4C4C" stroke-width="2" d="M38.325,56.919h7.336v37.188h-7.336V56.919"/>
<path fill="none" stroke="#4C4C4C" stroke-width="2" d="M40.729,60.714v33.393"/>
<path fill="#999999" d="M41.108,42.12l-0.885-1.139v-1.518l0.885-1.139h1.771l0.885,1.139v1.518l-0.885,1.139H41.108z"/>
<path fill="#999999" d="M52.365,42.12l-1.138-1.139v-1.518l1.138-1.139h1.518l1.138,1.139v1.518l-1.138,1.139H52.365z"/>
<path fill="#999999" d="M63.623,42.12l-1.265-1.139v-1.518l1.265-1.139h1.392l1.265,1.139v1.518l-1.265,1.139H63.623z"/>
<path fill="#999999" d="M74.753,42.12l-1.138-1.139v-1.518l1.138-1.139h1.519l1.138,1.139v1.518l-1.138,1.139H74.753z"/>
<path fill="#999999" d="M86.01,42.12l-1.138-1.139v-1.518l1.138-1.139h1.393l1.264,1.139v1.518l-1.264,1.139H86.01z"/>
<path fill="#999999" d="M97.268,42.12l-1.265-1.139v-1.518l1.265-1.139h1.392l1.138,1.139v1.518L98.66,42.12H97.268z"/>
<path fill="#999999" d="M108.146,42.12l-0.886-1.139v-1.518l0.886-1.139h1.771l0.886,1.139v1.518l-0.886,1.139H108.146z"/>
<path fill="none" stroke="#4C4C4C" stroke-width="2" d="M81.71,15.938h9.992"/>
<path fill="none" stroke="#4C4C4C" stroke-width="2" d="M82.848,15.938h7.717v7.589h-7.717V15.938"/>
<path fill="none" stroke="#4C4C4C" stroke-width="2" d="M92.967,15.938h9.992"/>
<path fill="none" stroke="#4C4C4C" stroke-width="2" d="M94.106,15.938h7.463v7.589h-7.463V15.938"/>
<path fill="none" stroke="#4C4C4C" stroke-width="2" d="M59.322,15.938h9.993"/>
<path fill="none" stroke="#4C4C4C" stroke-width="2" d="M60.713,15.938h7.336v7.589h-7.336V15.938"/>
<path fill="none" stroke="#4C4C4C" stroke-width="2" d="M70.58,15.938h9.992"/>
<path fill="none" stroke="#4C4C4C" stroke-width="2" d="M71.717,15.938h7.59v7.589h-7.59V15.938"/>
<path fill="none" stroke="#4C4C4C" stroke-width="2" d="M37.061,15.938h9.866"/>
<path fill="none" stroke="#4C4C4C" stroke-width="2" d="M38.325,15.938h7.336v7.589h-7.336V15.938"/>
<path fill="none" stroke="#4C4C4C" stroke-width="2" d="M48.065,15.938h10.119"/>
<path fill="none" stroke="#4C4C4C" stroke-width="2" d="M49.583,15.938h7.336v7.589h-7.336V15.938"/>
<path fill="none" stroke="#4C4C4C" stroke-width="2" d="M104.098,15.938h9.866"/>
<path fill="none" stroke="#4C4C4C" stroke-width="2" d="M105.364,15.938h7.336v7.589h-7.336V15.938"/>
<path fill="#7F7F7F" d="M43.764,24.665h1.897v3.668h-1.897V24.665z"/>
<path fill="#7F7F7F" d="M55.021,24.665h1.897v3.668h-1.897V24.665z"/>
<path fill="#7F7F7F" d="M66.279,24.665h1.771v3.668h-1.771V24.665z"/>
<path fill="#7F7F7F" d="M77.41,24.665h1.897v3.668H77.41V24.665z"/>
<path fill="#7F7F7F" d="M88.667,24.665h1.898v3.668h-1.898V24.665z"/>
<path fill="#7F7F7F" d="M99.797,24.665h1.771v3.668h-1.771V24.665z"/>
<path fill="#7F7F7F" d="M110.802,24.665h1.897v3.668h-1.897V24.665z"/>
<path fill="none" stroke="#4C4C4C" stroke-width="2" d="M30.23,63.117h3.794v29.851H30.23V63.117"/>
<path fill="none" stroke="#4C4C4C" stroke-width="2" d="M30.23,78.169h3.794"/>
<path fill="#999999" d="M24.539,5.44h9.992v8.095h-9.992V5.44z"/>
<path fill="#999999" stroke="#4C4C4C" stroke-width="2" d="M26.436,7.843h6.831v8.095h-6.831V7.843z"/>
<path fill="#7F0000" d="M15.938,20.617l-0.759-1.138l0.759-1.013h1.138l0.759,1.013l-0.759,1.138H15.938z"/>
<path fill="#7F0000" d="M15.938,25.424l-0.759-0.886l0.759-1.012h1.138l0.759,1.012l-0.759,0.886H15.938z"/>
<path fill="#7F0000" d="M15.938,30.484l-0.759-1.012l0.759-1.139h1.138l0.759,1.139l-0.759,1.012H15.938z"/>
<path fill="#007F00" d="M20.87,20.617l-0.632-1.138l0.632-1.013h1.265l0.632,1.013l-0.632,1.138H20.87z"/>
<path fill="#007F00" d="M20.87,25.424l-0.632-0.886l0.632-1.012h1.265l0.632,1.012l-0.632,0.886H20.87z"/>
<path fill="#007F00" d="M20.87,30.484l-0.632-1.012l0.632-1.139h1.265l0.632,1.139l-0.632,1.012H20.87z"/>
<path fill="#999999" d="M18.34,50.215l-1.265-1.138v-1.519l1.265-1.138h1.392l1.138,1.138v1.519l-1.138,1.138H18.34z"/>
<path fill="#7F7F7F" d="M29.978,39.464l-1.012-0.886v-1.771l1.012-0.886h1.644l1.012,0.886v1.771l-1.012,0.886H29.978z"/>
<path fill="#7F7F7F" d="M29.471,56.919l-1.644-1.897v-2.403l1.644-1.896h2.656l1.897,1.896v2.403l-1.897,1.897H29.471z"/>
<path fill="none" stroke="#4C4C4C" stroke-width="2" d="M32.127,21.629h2.403v11.637h-2.403V21.629"/>
<path fill="#666666" d="M18.34,36.429l-1.265-1.013v-1.644l1.265-1.013h1.392l1.138,1.013v1.644l-1.138,1.013H18.34z"/>
</svg>
