<?xml version="1.0" encoding="utf-8"?>
<!-- Generator: Adobe Illustrator 14.0.0, SVG Export Plug-In . SVG Version: 6.00 Build 43363)  -->
<!DOCTYPE svg PUBLIC "-//W3C//DTD SVG 1.1//EN" "http://www.w3.org/Graphics/SVG/1.1/DTD/svg11.dtd">
<svg version="1.1" id="图层_1" xmlns="http://www.w3.org/2000/svg" xmlns:xlink="http://www.w3.org/1999/xlink" x="0px" y="0px"
	 width="144.749px" height="86.213px" viewBox="0 0 144.749 86.213" enable-background="new 0 0 144.749 86.213"
	 xml:space="preserve">
<path fill="#DBB770" d="M4.057,13.766h117.074v68.245H4.057V13.766z"/>
<path fill="#EBD7AE" d="M91.863,13.766h14.634v68.245H91.863V13.766z"/>
<path fill="#EBD7AE" d="M79.547,13.766h7.39v68.245h-7.39V13.766z"/>
<path fill="#EBD7AE" d="M67.376,13.766h7.39v68.245h-7.39V13.766z"/>
<path fill="#EBD7AE" d="M55.205,13.766h7.39v68.245h-7.39V13.766z"/>
<path fill="#EBD7AE" d="M43.033,13.766h7.39v68.245h-7.39V13.766z"/>
<path fill="#EBD7AE" d="M30.862,13.766h7.39v68.245h-7.39V13.766z"/>
<path fill="#EBD7AE" d="M18.691,13.766h7.245v68.245h-7.245V13.766z"/>
<path fill="#F5EBD6" d="M4.057,13.766h14.634v17.097H4.057V13.766z"/>
<path fill="#007F00" d="M6.52,64.913h3.622v12.316H6.52V64.913z"/>
<path fill="#007F00" d="M12.606,64.913h3.622v12.316h-3.622V64.913z"/>
<path fill="#007F00" d="M6.52,51.003h3.622v12.172H6.52V51.003z"/>
<path fill="#007F00" d="M12.606,51.003h3.622v12.172h-3.622V51.003z"/>
<path fill="#990000" d="M7.245,24.053L6.52,22.314l0.725-1.738l1.738-0.725l1.739,0.725l0.579,1.738l-0.579,1.739l-1.739,0.58
	L7.245,24.053z"/>
<path fill="#990000" d="M12.606,25.357h2.317v2.463h-2.317V25.357z"/>
<path fill="#990000" d="M12.606,21.01h2.317v2.463h-2.317V21.01z"/>
<path fill="#990000" d="M12.606,16.808h2.317v2.463h-2.317V16.808z"/>
<path fill="#990000" d="M21.734,77.229h1.159v1.158h-1.159V77.229z"/>
<path fill="#990000" d="M27.82,77.229h1.158v1.158H27.82V77.229z"/>
<path fill="#990000" d="M33.905,77.229h1.159v1.158h-1.159V77.229z"/>
<path fill="#990000" d="M39.991,77.229h1.159v1.158h-1.159V77.229z"/>
<path fill="#990000" d="M46.076,77.229h1.159v1.158h-1.159V77.229z"/>
<path fill="#990000" d="M52.306,77.229h1.159v1.158h-1.159V77.229z"/>
<path fill="#990000" d="M58.247,77.229h1.159v1.158h-1.159V77.229z"/>
<path fill="#990000" d="M64.477,77.229h1.159v1.158h-1.159V77.229z"/>
<path fill="#990000" d="M70.563,77.229h1.159v1.158h-1.159V77.229z"/>
<path fill="#990000" d="M76.649,77.229h1.159v1.158h-1.159V77.229z"/>
<path fill="#990000" d="M82.734,77.229h1.159v1.158h-1.159V77.229z"/>
<path fill="#990000" d="M88.82,77.229h1.159v1.158H88.82V77.229z"/>
<path fill="#990000" d="M21.734,72.302h1.159v1.16h-1.159V72.302z"/>
<path fill="#990000" d="M27.82,72.302h1.158v1.16H27.82V72.302z"/>
<path fill="#990000" d="M33.905,72.302h1.159v1.16h-1.159V72.302z"/>
<path fill="#990000" d="M39.991,72.302h1.159v1.16h-1.159V72.302z"/>
<path fill="#990000" d="M46.076,72.302h1.159v1.16h-1.159V72.302z"/>
<path fill="#990000" d="M52.306,72.302h1.159v1.16h-1.159V72.302z"/>
<path fill="#990000" d="M58.247,72.302h1.159v1.16h-1.159V72.302z"/>
<path fill="#990000" d="M64.477,72.302h1.159v1.16h-1.159V72.302z"/>
<path fill="#990000" d="M70.563,72.302h1.159v1.16h-1.159V72.302z"/>
<path fill="#990000" d="M76.649,72.302h1.159v1.16h-1.159V72.302z"/>
<path fill="#990000" d="M82.734,72.302h1.159v1.16h-1.159V72.302z"/>
<path fill="#990000" d="M88.82,72.302h1.159v1.16H88.82V72.302z"/>
<path fill="#990000" d="M21.734,67.521h1.159v1.16h-1.159V67.521z"/>
<path fill="#990000" d="M27.82,67.521h1.158v1.16H27.82V67.521z"/>
<path fill="#990000" d="M33.905,67.521h1.159v1.16h-1.159V67.521z"/>
<path fill="#990000" d="M39.991,67.521h1.159v1.16h-1.159V67.521z"/>
<path fill="#990000" d="M46.076,67.521h1.159v1.16h-1.159V67.521z"/>
<path fill="#990000" d="M52.306,67.521h1.159v1.16h-1.159V67.521z"/>
<path fill="#990000" d="M58.247,67.521h1.159v1.16h-1.159V67.521z"/>
<path fill="#990000" d="M64.477,67.521h1.159v1.16h-1.159V67.521z"/>
<path fill="#990000" d="M70.563,67.521h1.159v1.16h-1.159V67.521z"/>
<path fill="#990000" d="M76.649,67.521h1.159v1.16h-1.159V67.521z"/>
<path fill="#990000" d="M82.734,67.521h1.159v1.16h-1.159V67.521z"/>
<path fill="#990000" d="M88.82,67.521h1.159v1.16H88.82V67.521z"/>
<path fill="#990000" d="M21.734,62.595h1.159v1.159h-1.159V62.595z"/>
<path fill="#990000" d="M27.82,62.595h1.158v1.159H27.82V62.595z"/>
<path fill="#990000" d="M33.905,62.595h1.159v1.159h-1.159V62.595z"/>
<path fill="#990000" d="M39.991,62.595h1.159v1.159h-1.159V62.595z"/>
<path fill="#990000" d="M46.076,62.595h1.159v1.159h-1.159V62.595z"/>
<path fill="#990000" d="M52.306,62.595h1.159v1.159h-1.159V62.595z"/>
<path fill="#990000" d="M58.247,62.595h1.159v1.159h-1.159V62.595z"/>
<path fill="#990000" d="M64.477,62.595h1.159v1.159h-1.159V62.595z"/>
<path fill="#990000" d="M70.563,62.595h1.159v1.159h-1.159V62.595z"/>
<path fill="#990000" d="M76.649,62.595h1.159v1.159h-1.159V62.595z"/>
<path fill="#990000" d="M82.734,62.595h1.159v1.159h-1.159V62.595z"/>
<path fill="#990000" d="M88.82,62.595h1.159v1.159H88.82V62.595z"/>
<path fill="#990000" d="M21.734,57.669h1.159v1.158h-1.159V57.669z"/>
<path fill="#990000" d="M27.82,57.669h1.158v1.158H27.82V57.669z"/>
<path fill="#990000" d="M33.905,57.669h1.159v1.158h-1.159V57.669z"/>
<path fill="#990000" d="M39.991,57.669h1.159v1.158h-1.159V57.669z"/>
<path fill="#990000" d="M46.076,57.669h1.159v1.158h-1.159V57.669z"/>
<path fill="#990000" d="M52.306,57.669h1.159v1.158h-1.159V57.669z"/>
<path fill="#990000" d="M58.247,57.669h1.159v1.158h-1.159V57.669z"/>
<path fill="#990000" d="M64.477,57.669h1.159v1.158h-1.159V57.669z"/>
<path fill="#990000" d="M70.563,57.669h1.159v1.158h-1.159V57.669z"/>
<path fill="#990000" d="M76.649,57.669h1.159v1.158h-1.159V57.669z"/>
<path fill="#990000" d="M82.734,57.669h1.159v1.158h-1.159V57.669z"/>
<path fill="#990000" d="M88.82,57.669h1.159v1.158H88.82V57.669z"/>
<path fill="#990000" d="M21.734,52.887h1.159v1.159h-1.159V52.887z"/>
<path fill="#990000" d="M27.82,52.887h1.158v1.159H27.82V52.887z"/>
<path fill="#990000" d="M33.905,52.887h1.159v1.159h-1.159V52.887z"/>
<path fill="#990000" d="M39.991,52.887h1.159v1.159h-1.159V52.887z"/>
<path fill="#990000" d="M46.076,52.887h1.159v1.159h-1.159V52.887z"/>
<path fill="#990000" d="M52.306,52.887h1.159v1.159h-1.159V52.887z"/>
<path fill="#990000" d="M58.247,52.887h1.159v1.159h-1.159V52.887z"/>
<path fill="#990000" d="M64.477,52.887h1.159v1.159h-1.159V52.887z"/>
<path fill="#990000" d="M70.563,52.887h1.159v1.159h-1.159V52.887z"/>
<path fill="#990000" d="M76.649,52.887h1.159v1.159h-1.159V52.887z"/>
<path fill="#990000" d="M82.734,52.887h1.159v1.159h-1.159V52.887z"/>
<path fill="#990000" d="M88.82,52.887h1.159v1.159H88.82V52.887z"/>
<path fill="#990000" d="M21.734,47.96h1.159v1.16h-1.159V47.96z"/>
<path fill="#990000" d="M27.82,47.96h1.158v1.16H27.82V47.96z"/>
<path fill="#990000" d="M33.905,47.96h1.159v1.16h-1.159V47.96z"/>
<path fill="#990000" d="M39.991,47.96h1.159v1.16h-1.159V47.96z"/>
<path fill="#990000" d="M46.076,47.96h1.159v1.16h-1.159V47.96z"/>
<path fill="#990000" d="M52.306,47.96h1.159v1.16h-1.159V47.96z"/>
<path fill="#990000" d="M58.247,47.96h1.159v1.16h-1.159V47.96z"/>
<path fill="#990000" d="M64.477,47.96h1.159v1.16h-1.159V47.96z"/>
<path fill="#990000" d="M70.563,47.96h1.159v1.16h-1.159V47.96z"/>
<path fill="#990000" d="M76.649,47.96h1.159v1.16h-1.159V47.96z"/>
<path fill="#990000" d="M82.734,47.96h1.159v1.16h-1.159V47.96z"/>
<path fill="#990000" d="M88.82,47.96h1.159v1.16H88.82V47.96z"/>
<path fill="#990000" d="M21.734,43.034h1.159v1.159h-1.159V43.034z"/>
<path fill="#990000" d="M27.82,43.034h1.158v1.159H27.82V43.034z"/>
<path fill="#990000" d="M33.905,43.034h1.159v1.159h-1.159V43.034z"/>
<path fill="#990000" d="M39.991,43.034h1.159v1.159h-1.159V43.034z"/>
<path fill="#990000" d="M46.076,43.034h1.159v1.159h-1.159V43.034z"/>
<path fill="#990000" d="M52.306,43.034h1.159v1.159h-1.159V43.034z"/>
<path fill="#990000" d="M58.247,43.034h1.159v1.159h-1.159V43.034z"/>
<path fill="#990000" d="M64.477,43.034h1.159v1.159h-1.159V43.034z"/>
<path fill="#990000" d="M70.563,43.034h1.159v1.159h-1.159V43.034z"/>
<path fill="#990000" d="M76.649,43.034h1.159v1.159h-1.159V43.034z"/>
<path fill="#990000" d="M82.734,43.034h1.159v1.159h-1.159V43.034z"/>
<path fill="#990000" d="M88.82,43.034h1.159v1.159H88.82V43.034z"/>
<path fill="#990000" d="M21.734,38.252h1.159v1.159h-1.159V38.252z"/>
<path fill="#990000" d="M27.82,38.252h1.158v1.159H27.82V38.252z"/>
<path fill="#990000" d="M33.905,38.252h1.159v1.159h-1.159V38.252z"/>
<path fill="#990000" d="M39.991,38.252h1.159v1.159h-1.159V38.252z"/>
<path fill="#990000" d="M46.076,38.252h1.159v1.159h-1.159V38.252z"/>
<path fill="#990000" d="M52.306,38.252h1.159v1.159h-1.159V38.252z"/>
<path fill="#990000" d="M58.247,38.252h1.159v1.159h-1.159V38.252z"/>
<path fill="#990000" d="M64.477,38.252h1.159v1.159h-1.159V38.252z"/>
<path fill="#990000" d="M70.563,38.252h1.159v1.159h-1.159V38.252z"/>
<path fill="#990000" d="M76.649,38.252h1.159v1.159h-1.159V38.252z"/>
<path fill="#990000" d="M82.734,38.252h1.159v1.159h-1.159V38.252z"/>
<path fill="#990000" d="M88.82,38.252h1.159v1.159H88.82V38.252z"/>
<path fill="#990000" d="M21.734,33.326h1.159v1.159h-1.159V33.326z"/>
<path fill="#990000" d="M27.82,33.326h1.158v1.159H27.82V33.326z"/>
<path fill="#990000" d="M33.905,33.326h1.159v1.159h-1.159V33.326z"/>
<path fill="#990000" d="M39.991,33.326h1.159v1.159h-1.159V33.326z"/>
<path fill="#990000" d="M46.076,33.326h1.159v1.159h-1.159V33.326z"/>
<path fill="#990000" d="M52.306,33.326h1.159v1.159h-1.159V33.326z"/>
<path fill="#990000" d="M58.247,33.326h1.159v1.159h-1.159V33.326z"/>
<path fill="#990000" d="M64.477,33.326h1.159v1.159h-1.159V33.326z"/>
<path fill="#990000" d="M70.563,33.326h1.159v1.159h-1.159V33.326z"/>
<path fill="#990000" d="M76.649,33.326h1.159v1.159h-1.159V33.326z"/>
<path fill="#990000" d="M82.734,33.326h1.159v1.159h-1.159V33.326z"/>
<path fill="#990000" d="M88.82,33.326h1.159v1.159H88.82V33.326z"/>
<path fill="#F2E5CC" stroke="#000000" stroke-width="2" d="M4.057,13.766l19.415-9.708h117.074l-19.415,9.708H4.057z"/>
<path fill="#D1A347" stroke="#000000" stroke-width="2" d="M121.132,82.011l19.415-9.709V4.058l-19.415,9.708V82.011z"/>
<path fill="none" stroke="#000000" stroke-width="2" d="M4.057,13.766h117.074v68.245H4.057V13.766"/>
</svg>
