<?xml version="1.0" encoding="utf-8"?>
<!-- Generator: Adobe Illustrator 14.0.0, SVG Export Plug-In . SVG Version: 6.00 Build 43363)  -->
<!DOCTYPE svg PUBLIC "-//W3C//DTD SVG 1.1//EN" "http://www.w3.org/Graphics/SVG/1.1/DTD/svg11.dtd">
<svg version="1.1" id="图层_1" xmlns="http://www.w3.org/2000/svg" xmlns:xlink="http://www.w3.org/1999/xlink" x="0px" y="0px"
	 width="144.749px" height="89.258px" viewBox="0 0 144.749 89.258" enable-background="new 0 0 144.749 89.258"
	 xml:space="preserve">
<path fill="#333333" d="M4.057,83.75l1.304,1.449h3.043l1.304-1.449h125.188l1.594,1.449h2.753l1.304-1.449v-1.594H4.057V83.75z"/>
<path fill="#E5E5E5" stroke="#000000" stroke-width="2" d="M4.057,4.059h136.489v78.388H4.057V4.059z"/>
<path fill="#D9D9D9" d="M6.81,6.812h130.983v8.693L6.81,43.905V6.812z"/>
<path fill="#191919" d="M9.708,6.812h125.188v9.998H9.708V6.812z"/>
<path fill="#3366CC" d="M9.708,22.606h125.188V16.81H9.708V22.606z"/>
<path d="M66.361,29.415h6.521l0.725-1.159l5.796,1.159v3.333l-5.796,1.014l-0.725-1.014h-6.521V29.415z"/>
<path fill="#CCCCCC" d="M66.361,30.865h6.521h0.725h5.796v0.435l-5.796,0.29l-0.725-0.29h-6.521V30.865z"/>
<path fill="#DEDEDE" d="M6.81,71l130.983-32.602v43.758H6.81V71z"/>
<path fill="none" stroke="#7F7F7F" stroke-width="2" d="M6.81,82.447V6.812h130.983v75.635"/>
<path fill="#CCCCCC" d="M12.461,65.204h59.841v16.952H12.461V65.204z"/>
<path fill="#F2F2F2" d="M25.356,79.404L12.461,65.204V35.501l17.532-23.328H54.77l17.531,23.328v29.703L58.102,79.404H25.356z"/>
<path fill="#191919" d="M19.56,35.501l11.447-19.996h22.748l11.446,19.996H19.56z"/>
<path fill="#3366CC" d="M19.56,35.501l5.796-10.143h34.05l5.796,10.143H19.56z"/>
<path fill="#B2B2B2" d="M19.56,35.501l3.043-5.217h39.556l3.043,5.217H19.56z"/>
<path fill="none" stroke="#000000" stroke-width="2" d="M19.56,35.501l11.447-19.996h22.748"/>
<path fill="none" stroke="#FFFFFF" stroke-width="2" d="M19.56,35.501h45.642L53.756,15.505"/>
<path fill="#E5E5E5" d="M72.302,58.105L52.306,46.657V49.7l19.995,11.157V58.105z"/>
<path fill="#E5E5E5" d="M12.461,58.105l19.995-11.447V49.7L12.461,60.858V58.105z"/>
<path fill="none" stroke="#000000" stroke-width="2" d="M25.356,79.404L12.461,65.204V35.501l17.532-23.328H54.77l17.531,23.328
	v29.703L58.102,79.404H25.356"/>
<path fill="#FFFFFF" d="M52.306,46.657H32.456V49.7h19.851V46.657z"/>
<circle fill="#4C4C4C" stroke="#000000" stroke-width="2" cx="42.309" cy="56.51" r="2.753"/>
<circle fill="#B2B2B2" cx="25.936" cy="67.378" r="2.029"/>
<circle fill="#B2B2B2" cx="58.827" cy="67.378" r="2.029"/>
<path fill="#999999" d="M63.754,78.1H136.2v1.304H63.754V78.1z"/>
</svg>
