<?xml version="1.0" encoding="utf-8"?>
<!-- Generator: Adobe Illustrator 14.0.0, SVG Export Plug-In . SVG Version: 6.00 Build 43363)  -->
<!DOCTYPE svg PUBLIC "-//W3C//DTD SVG 1.1//EN" "http://www.w3.org/Graphics/SVG/1.1/DTD/svg11.dtd">
<svg version="1.1" id="图层_1" xmlns="http://www.w3.org/2000/svg" xmlns:xlink="http://www.w3.org/1999/xlink" x="0px" y="0px"
	 width="52.027px" height="106.502px" viewBox="0 0 52.027 106.502" enable-background="new 0 0 52.027 106.502"
	 xml:space="preserve">
<path fill="#FF99CC" stroke="#000000" stroke-width="2" d="M2.986,8.102h41.791v95.309H2.986V8.102z"/>
<path fill="#E5E5E5" stroke="#000000" stroke-width="2" d="M4.905,8.102h37.847v95.309H4.905V8.102z"/>
<path fill="#E57FB2" stroke="#000000" stroke-width="2" d="M9.169,2.985l0.746,2.666L7.25,4.797l0.746-1.705l0.107-0.107H2.986
	v5.117h41.791V2.985h-5.224l0.533,0.427L39.34,6.183l-1.6-2.345l0.32-0.427l0.532-0.427H9.169z"/>
<path fill="#4C4C4C" stroke="#000000" stroke-width="2" d="M44.777,8.102h4.158v95.309h-4.158V8.102z"/>
<path fill="#4C4C4C" stroke="#000000" stroke-width="2" d="M13.327,28.251h4.264v54.371h-4.264V28.251z"/>
<circle fill="#CCCCCC" stroke="#000000" stroke-width="2" cx="26.973" cy="11.834" r="0.959"/>
<circle stroke="#000000" stroke-width="2" cx="26.973" cy="11.834" r="0.533"/>
<circle fill="#CCCCCC" stroke="#000000" stroke-width="2" cx="26.973" cy="21.216" r="0.959"/>
<circle stroke="#000000" stroke-width="2" cx="26.973" cy="21.215" r="0.533"/>
<path stroke="#000000" stroke-width="2" d="M28.679,19.829l-3.198-0.533V13.86l3.198-0.533V19.829z"/>
<path fill="#FFFFFF" stroke="#000000" stroke-width="2" d="M26.44,13.86h1.066v5.437H26.44V13.86z"/>
<circle fill="#CCCCCC" stroke="#000000" stroke-width="2" cx="32.73" cy="11.834" r="1.066"/>
<circle stroke="#000000" stroke-width="2" cx="32.73" cy="11.834" r="0.533"/>
<circle fill="#CCCCCC" stroke="#000000" stroke-width="2" cx="32.73" cy="21.215" r="1.066"/>
<circle stroke="#000000" stroke-width="2" cx="32.73" cy="21.215" r="0.533"/>
<path stroke="#000000" stroke-width="2" d="M34.436,19.829l-3.305-0.533V13.86l3.305-0.533V19.829z"/>
<path fill="#FFFFFF" stroke="#000000" stroke-width="2" d="M32.41,13.86h0.959v5.437H32.41V13.86z"/>
<path fill="#FFFFFF" d="M15.14,34.862h0.959v40.831H15.14V34.862z"/>
<circle fill="#CCCCCC" stroke="#000000" stroke-width="2" cx="13.967" cy="97.76" r="1.066"/>
<circle stroke="#000000" stroke-width="2" cx="13.753" cy="97.76" r="0.426"/>
<circle fill="#CCCCCC" stroke="#000000" stroke-width="2" cx="13.967" cy="88.272" r="1.066"/>
<circle stroke="#000000" stroke-width="2" cx="13.753" cy="88.272" r="0.426"/>
<path stroke="#000000" stroke-width="2" d="M12.367,89.765l3.198,0.533v5.224l-3.198,0.746V89.765z"/>
<path fill="#FFFFFF" stroke="#000000" stroke-width="2" d="M14.286,95.522h-0.959v-5.224h0.959V95.522z"/>
<path fill="#FF99CC" d="M19.83,29.637h6.609v0.533H19.83V29.637z"/>
<path fill="#FF99CC" d="M19.83,32.943h6.609v0.746H19.83V32.943z"/>
<path fill="#FF99CC" d="M19.83,36.354h6.609v0.533H19.83V36.354z"/>
<path fill="#FF99CC" d="M19.83,39.765h6.609v0.533H19.83V39.765z"/>
<path fill="#FF99CC" d="M19.83,43.07h6.609v0.533H19.83V43.07z"/>
<path fill="#FF99CC" d="M19.83,46.482h12.366v0.533H19.83V46.482z"/>
<path fill="#FF99CC" d="M19.83,49.786h12.366v0.427H19.83V49.786z"/>
<path fill="#FF99CC" d="M19.83,53.198h12.366v0.533H19.83V53.198z"/>
<path fill="#FF99CC" d="M19.83,56.396h12.366v0.533H19.83V56.396z"/>
<path fill="#FF99CC" d="M19.83,59.914h12.366v0.427H19.83V59.914z"/>
<path fill="#FF99CC" d="M19.83,63.113h17.271v0.746H19.83V63.113z"/>
<path fill="#FF99CC" d="M19.83,66.631h17.271v0.426H19.83V66.631z"/>
<path fill="#FF99CC" d="M19.83,69.829h6.184v0.64H19.83V69.829z"/>
<path fill="#FF99CC" d="M19.83,73.24h2.452v0.533H19.83V73.24z"/>
<path fill="#FF99CC" d="M19.83,76.758h13.539v0.427H19.83V76.758z"/>
<path fill="#FF99CC" d="M7.677,11.407h6.93v0.426h-6.93V11.407z"/>
<path fill="#FF99CC" d="M7.677,14.606h6.93v0.746h-6.93V14.606z"/>
<path fill="#FF99CC" d="M7.677,18.123h6.93v0.427h-6.93V18.123z"/>
<path fill="#FF99CC" d="M7.677,21.322h6.93v0.64h-6.93V21.322z"/>
<path fill="#333333" d="M15.566,11.407h2.025v0.426h-2.025V11.407z"/>
<path fill="#333333" d="M15.566,14.606h2.025v0.746h-2.025V14.606z"/>
<path fill="#333333" d="M15.566,18.123h2.025v0.427h-2.025V18.123z"/>
<path fill="#333333" d="M15.566,21.322h2.025v0.64h-2.025V21.322z"/>
<path fill="#FF99CC" d="M25.481,23.987h3.198v0.533h-3.198V23.987z"/>
<path fill="#FF99CC" d="M31.131,23.987h3.305v0.533h-3.305V23.987z"/>
<path fill="#FF99CC" d="M17.591,89.765h3.198v0.533h-3.198V89.765z"/>
<path fill="#FF99CC" d="M17.591,92.111h3.198v0.426h-3.198V92.111z"/>
</svg>
