<?xml version="1.0" encoding="utf-8"?>
<!-- Generator: Adobe Illustrator 14.0.0, SVG Export Plug-In . SVG Version: 6.00 Build 43363)  -->
<!DOCTYPE svg PUBLIC "-//W3C//DTD SVG 1.1//EN" "http://www.w3.org/Graphics/SVG/1.1/DTD/svg11.dtd">
<svg version="1.1" id="图层_1" xmlns="http://www.w3.org/2000/svg" xmlns:xlink="http://www.w3.org/1999/xlink" x="0px" y="0px"
	 width="106.502px" height="106.502px" viewBox="0 0 106.502 106.502" enable-background="new 0 0 106.502 106.502"
	 xml:space="preserve">
<path fill="#0000BF" stroke="#000000" stroke-width="2" d="M16.434,2.988h76.302l4.056,0.854l3.521,2.348l2.348,3.521l0.854,4.055
	v76.303l-0.854,4.161l-2.348,3.415l-3.521,2.455l-4.056,0.854H16.434l-4.162-0.854l-3.415-2.455L6.403,94.23l-0.854-4.161V13.766
	l0.854-4.055L8.857,6.19l3.415-2.348L16.434,2.988z"/>
<path fill="#7F7FFF" stroke="#000000" stroke-width="2" d="M13.766,5.549h76.302l4.162,0.854l3.415,2.455l2.454,3.415l0.854,4.161
	v76.302l-0.854,4.056l-2.454,3.521l-3.415,2.348l-4.162,0.854H13.766l-4.055-0.854l-3.521-2.348l-2.348-3.521l-0.854-4.056V16.434
	l0.854-4.161l2.348-3.415l3.521-2.455L13.766,5.549z"/>
<path fill="#0000BF" stroke="#000000" stroke-width="2" d="M17.928,15.367h67.978l3.735,1.494l1.494,3.734v38.845l-1.494,3.415
	l-3.735,1.601H17.928L14.3,62.856l-1.601-3.415V20.596l1.601-3.734L17.928,15.367z"/>
<path fill="#E8FF69" stroke="#000000" stroke-width="2" d="M19.422,17.074h64.989l3.522,1.28l1.28,3.522V58.16l-1.28,3.415
	l-3.522,1.28H19.422l-3.415-1.28l-1.601-3.415V21.877l1.601-3.522L19.422,17.074z"/>
<path fill="#0000BF" stroke="#000000" stroke-width="2" d="M12.699,67.018h78.436v30.414H12.699V67.018z"/>
<path fill="#E5E5E5" stroke="#000000" stroke-width="2" d="M14.3,68.831h23.371v26.893H14.3V68.831z"/>
<path fill="#E5E5E5" stroke="#000000" stroke-width="2" d="M63.175,68.831H39.698v26.893h23.477V68.831z"/>
<path fill="#E5E5E5" stroke="#000000" stroke-width="2" d="M65.523,68.831h23.479v26.893H65.523V68.831z"/>
<path fill="#7F7F7F" d="M26.252,72.033l8.857,8.75H17.501L26.252,72.033z M26.252,73.1l6.723,6.724H19.742L26.252,73.1z"/>
<path fill="none" stroke="#000000" stroke-width="2" d="M26.252,72.033l8.857,8.75H17.501L26.252,72.033"/>
<path fill="none" stroke="#000000" stroke-width="2" d="M26.252,73.1l6.723,6.724H19.742L26.252,73.1"/>
<path fill="#7F7F7F" d="M51.864,93.056l8.857-8.857l-17.608,0.214L51.864,93.056z M51.864,92.096l6.724-7.043H45.141L51.864,92.096z
	"/>
<path fill="none" stroke="#000000" stroke-width="2" d="M51.864,93.056l8.857-8.857l-17.608,0.214L51.864,93.056"/>
<path fill="none" stroke="#000000" stroke-width="2" d="M51.864,92.096l6.724-7.043H45.141L51.864,92.096"/>
<path fill="#7F7F7F" stroke="#000000" stroke-width="2" d="M85.266,72.887l0.854,0.641L68.298,91.349l-0.641-0.641L85.266,72.887z"
	/>
<path fill="#7F7F7F" stroke="#000000" stroke-width="2" d="M18.568,87.08h15.261v1.494H18.568V87.08z"/>
<path fill="#7F7F7F" stroke="#000000" stroke-width="2" d="M43.113,74.488h15.26v1.494h-15.26V74.488z"/>
</svg>
