<?xml version="1.0" encoding="utf-8"?>
<!-- Generator: Adobe Illustrator 14.0.0, SVG Export Plug-In . SVG Version: 6.00 Build 43363)  -->
<!DOCTYPE svg PUBLIC "-//W3C//DTD SVG 1.1//EN" "http://www.w3.org/Graphics/SVG/1.1/DTD/svg11.dtd">
<svg version="1.1" id="图层_1" xmlns="http://www.w3.org/2000/svg" xmlns:xlink="http://www.w3.org/1999/xlink" x="0px" y="0px"
	 width="89.654px" height="106.502px" viewBox="0 0 89.654 106.502" enable-background="new 0 0 89.654 106.502"
	 xml:space="preserve">
<path fill="#B2B2B2" stroke="#000000" stroke-width="2" d="M2.985,102.343h83.685V85.819h-4.157v-2.025h4.157V21.536h-4.157v-2.025
	h4.157V2.988H2.985v16.63h4.158v2.025H2.985v62.15h4.158v2.025H2.985V102.343z"/>
<path fill="#CCCCCC" stroke="#000000" stroke-width="2" d="M9.275,2.988H80.38v99.355H9.275V2.988z"/>
<path fill="#E5E5E5" stroke="#000000" stroke-width="2" d="M11.3,2.988h67.055v100.421H28.037v-5.224H17.59v5.224H11.3V2.988z"/>
<path fill="#BFBFBF" d="M12.686,5.759l-0.319-0.64l0.319-0.853l0.746-0.214l0.746,0.214l0.32,0.853l-0.32,0.64l-0.746,0.319
	L12.686,5.759z"/>
<path fill="#BFBFBF" d="M35.18,5.759l-0.32-0.64l0.32-0.853l0.746-0.214l0.746,0.214l0.319,0.853l-0.319,0.64l-0.746,0.319
	L35.18,5.759z"/>
<path fill="#BFBFBF" d="M49.784,5.759l-0.32-0.64l0.32-0.853l0.746-0.214l0.746,0.214l0.32,0.853l-0.32,0.64l-0.746,0.319
	L49.784,5.759z"/>
<path fill="#BFBFBF" d="M57.673,5.759l-0.32-0.64l0.32-0.853l0.746-0.214l0.746,0.214l0.32,0.853l-0.32,0.64l-0.746,0.319
	L57.673,5.759z"/>
<path fill="#BFBFBF" d="M72.278,5.759l-0.213-0.64l0.213-0.853l0.854-0.214l0.746,0.214l0.213,0.853l-0.213,0.64l-0.746,0.319
	L72.278,5.759z"/>
<path fill="#BFBFBF" d="M12.686,102.129l-0.319-0.746l0.319-0.746l0.746-0.32l0.746,0.32l0.32,0.746l-0.32,0.746l-0.746,0.214
	L12.686,102.129z"/>
<path fill="#BFBFBF" d="M35.18,102.129l-0.32-0.746l0.32-0.746l0.746-0.32l0.746,0.32l0.319,0.746l-0.319,0.746l-0.746,0.214
	L35.18,102.129z"/>
<path fill="#BFBFBF" d="M49.784,102.129l-0.32-0.746l0.32-0.746l0.746-0.32l0.746,0.32l0.32,0.746l-0.32,0.746l-0.746,0.214
	L49.784,102.129z"/>
<path fill="#BFBFBF" d="M57.673,102.129l-0.32-0.746l0.32-0.746l0.746-0.32l0.746,0.32l0.32,0.746l-0.32,0.746l-0.746,0.214
	L57.673,102.129z"/>
<path fill="#BFBFBF" d="M72.278,102.129l-0.213-0.746l0.213-0.746l0.854-0.32l0.746,0.32l0.213,0.746l-0.213,0.746l-0.746,0.214
	L72.278,102.129z"/>
<path fill="#CCCCCC" d="M54.795,2.988h1.065v100.421h-1.065V2.988z"/>
<path fill="#CCCCCC" d="M47.439,2.988h1.066v100.421h-1.066V2.988z"/>
<path fill="#CCCCCC" d="M32.301,2.988h0.96v100.421h-0.96V2.988z"/>
<path fill="#CCCCCC" d="M69.4,2.988h1.066v100.421H69.4V2.988z"/>
<path fill="none" stroke="#000000" stroke-width="2" d="M70.892,2.988v100.421"/>
<path fill="none" stroke="#000000" stroke-width="2" d="M55.967,2.988v100.421"/>
<path fill="none" stroke="#000000" stroke-width="2" d="M48.505,2.988v100.421"/>
<path fill="none" stroke="#000000" stroke-width="2" d="M33.687,2.988v100.421"/>
<path fill="#333333" stroke="#000000" stroke-width="2" d="M15.565,32.303h12.473v41.789H15.565V32.303z"/>
<path fill="#666666" d="M14.498,30.171h1.066v46.054h-1.066V30.171z"/>
<path fill="#666666" d="M28.037,30.171h1.065v46.054h-1.065V30.171z"/>
<path fill="#666666" d="M21.214,30.171h1.173v46.054h-1.173V30.171z"/>
<path fill="#666666" d="M18.976,30.171h1.173v46.054h-1.173V30.171z"/>
<path fill="#666666" d="M16.737,30.171h1.173v46.054h-1.173V30.171z"/>
<path fill="#666666" d="M23.453,30.171h1.172v46.054h-1.172V30.171z"/>
<path fill="#666666" d="M25.798,30.171h1.066v46.054h-1.066V30.171z"/>
<path fill="#333333" d="M15.565,86.672l-1.066-2.559l1.066-2.665l2.665-1.066l2.559,1.066l1.065,2.665l-1.065,2.559l-2.559,1.065
	L15.565,86.672z"/>
<path fill="#FFCC00" stroke="#000000" stroke-width="2" d="M15.565,89.869h9.381v6.184h-9.381V89.869z"/>
<path fill="#19E5CB" d="M13.432,8.211h11.514v2.132H13.432V8.211z"/>
<path fill="#4C4C4C" d="M49.997,35.395h4.265v59.698h-4.265V35.395z"/>
<path fill="#FFCC00" d="M49.997,36.461h4.265v1.065h-4.265V36.461z"/>
<path fill="#FFCC00" d="M49.997,42.75h4.265v1.066h-4.265V42.75z"/>
<path fill="#FFCC00" d="M49.997,39.553h4.265v1.065h-4.265V39.553z"/>
<path fill="#FFCC00" d="M49.997,45.842h4.265v1.066h-4.265V45.842z"/>
<path fill="#FFCC00" d="M49.997,49.04h4.265V50h-4.265V49.04z"/>
<path fill="#FFCC00" d="M49.997,52.132h4.265v1.065h-4.265V52.132z"/>
<path fill="#FFCC00" d="M49.997,55.33h4.265v1.065h-4.265V55.33z"/>
<path fill="#FFCC00" d="M49.997,58.421h4.265v1.066h-4.265V58.421z"/>
<path fill="#FFCC00" d="M49.997,64.711h4.265v1.066h-4.265V64.711z"/>
<path fill="#FFCC00" d="M49.997,61.619h4.265v0.96h-4.265V61.619z"/>
<path fill="#FFCC00" d="M49.997,67.803h4.265v1.065h-4.265V67.803z"/>
<path fill="#FFCC00" d="M49.997,71.001h4.265v1.065h-4.265V71.001z"/>
<path fill="#FFCC00" d="M49.997,74.092h4.265v1.066h-4.265V74.092z"/>
<path fill="#FFCC00" d="M49.997,77.29h4.265v1.066h-4.265V77.29z"/>
<path fill="#FFCC00" d="M49.997,80.382h4.265v1.066h-4.265V80.382z"/>
<path fill="#FFCC00" d="M49.997,86.672h4.265v1.065h-4.265V86.672z"/>
<path fill="#FFCC00" d="M49.997,83.58h4.265v0.959h-4.265V83.58z"/>
<path fill="#FFCC00" d="M49.997,89.763h4.265v1.066h-4.265V89.763z"/>
<path fill="#FFCC00" d="M49.997,92.961h4.265v1.066h-4.265V92.961z"/>
<path fill="#333333" d="M51.064,35.395h2.132v59.698h-2.132V35.395z"/>
<path fill="#333333" d="M36.459,67.909v-6.29l3.091-1.065v8.314L36.459,67.909z"/>
<path fill="#333333" d="M36.459,80.382v-6.183l3.091-1.066v8.315L36.459,80.382z"/>
<path fill="#333333" d="M36.459,92.961v-6.289l3.091-1.066v8.422L36.459,92.961z"/>
<path fill="#333333" d="M42.748,92.961v-6.289l3.092-1.066v8.422L42.748,92.961z"/>
<path fill="#333333" d="M58.419,59.488v-6.29l3.198-1.065v8.422L58.419,59.488z"/>
<path fill="#333333" d="M73.131,90.829v-6.183l3.091-1.066v8.315L73.131,90.829z"/>
<path fill="#333333" d="M73.131,76.225v-6.29l3.091-1.066v8.422L73.131,76.225z"/>
<path fill="#CCCCCC" stroke="#000000" stroke-width="2" d="M58.313,93.494V79.849l4.69-1.492v16.736L58.313,93.494z"/>
<path fill="#333333" d="M58.313,91.363v-9.382l4.69-1.599v12.579L58.313,91.363z"/>
<path fill="none" stroke="#FFFFFF" stroke-width="2" d="M37.525,51.066V32.303h6.29"/>
<path fill="none" stroke="#7F7F7F" stroke-width="2" d="M43.815,32.303v18.763h-6.29"/>
<path fill="#990000" d="M52.129,21.749h1.066v1.066h-1.066V21.749z"/>
<path fill="#990000" d="M52.129,17.592h1.066v1.066h-1.066V17.592z"/>
<path fill="#990000" d="M52.129,26.014h1.066v1.065h-1.066V26.014z"/>
<path fill="#990000" d="M52.129,13.435h1.066V14.5h-1.066V13.435z"/>
<path fill="#990000" d="M49.997,21.749h1.173v1.066h-1.173V21.749z"/>
<path fill="#990000" d="M49.997,17.592h1.173v1.066h-1.173V17.592z"/>
<path fill="#990000" d="M49.997,26.014h1.173v1.065h-1.173V26.014z"/>
<path fill="#990000" d="M49.997,13.435h1.173V14.5h-1.173V13.435z"/>
<path fill="#990000" d="M58.419,18.658h1.066v1.065h-1.066V18.658z"/>
<path fill="#990000" d="M58.419,13.435h1.066V14.5h-1.066V13.435z"/>
<path fill="#990000" d="M74.09,23.882h1.066v1.065H74.09V23.882z"/>
<path fill="#990000" d="M74.09,18.658h1.066v1.065H74.09V18.658z"/>
<path fill="#990000" d="M74.09,13.435h1.066V14.5H74.09V13.435z"/>
<path fill="#990000" d="M36.459,13.435h1.065V14.5h-1.065V13.435z"/>
<path fill="#990000" d="M36.459,18.658h1.065v1.065h-1.065V18.658z"/>
<path fill="#990000" d="M36.459,23.882h1.065v1.065h-1.065V23.882z"/>
<path fill="none" stroke="#FFFFFF" stroke-width="2" d="M76.222,39.553v8.421h-3.091"/>
<path fill="none" stroke="#7F7F7F" stroke-width="2" d="M73.131,47.974v-8.421h3.091"/>
<path fill="none" stroke="#000000" stroke-width="2" d="M17.59,103.408v-5.224h10.447v5.224H17.59"/>
</svg>
