<?xml version="1.0" encoding="utf-8"?>
<!-- Generator: Adobe Illustrator 14.0.0, SVG Export Plug-In . SVG Version: 6.00 Build 43363)  -->
<!DOCTYPE svg PUBLIC "-//W3C//DTD SVG 1.1//EN" "http://www.w3.org/Graphics/SVG/1.1/DTD/svg11.dtd">
<svg version="1.1" id="图层_1" xmlns="http://www.w3.org/2000/svg" xmlns:xlink="http://www.w3.org/1999/xlink" x="0px" y="0px"
	 width="144.749px" height="70.711px" viewBox="0 0 144.749 70.711" enable-background="new 0 0 144.749 70.711"
	 xml:space="preserve">
<path fill="#00FFFF" stroke="#000000" stroke-width="2" d="M4.057,15.361h136.489v45.496H4.057V15.361z"/>
<path fill="#00FFFF" stroke="#000000" stroke-width="2" d="M4.057,60.857l2.897,5.796h130.839l2.753-5.796H4.057z"/>
<path fill="#00FFFF" stroke="#000000" stroke-width="2" d="M4.057,15.361l2.897-5.651h130.839l2.753,5.651H4.057z"/>
<path fill="#00FFFF" stroke="#000000" stroke-width="2" d="M6.955,9.709l2.753-2.897h125.188l2.897,2.897H6.955z"/>
<path fill="#00FFFF" stroke="#000000" stroke-width="2" d="M15.504,6.956l2.753-2.897h108.091l2.897,2.897H15.504z"/>
<path fill="none" stroke="#000000" stroke-width="2" d="M17.677,15.361v45.496"/>
<path fill="none" stroke="#000000" stroke-width="2" d="M31.297,60.857V15.361"/>
<path fill="none" stroke="#000000" stroke-width="2" d="M45.062,60.857V15.361"/>
<path fill="none" stroke="#000000" stroke-width="2" d="M58.537,15.361v45.496"/>
<path fill="none" stroke="#000000" stroke-width="2" d="M72.302,60.857V15.361"/>
<path fill="none" stroke="#000000" stroke-width="2" d="M85.922,15.361v45.496"/>
<path fill="none" stroke="#000000" stroke-width="2" d="M99.542,60.857V15.361"/>
<path fill="none" stroke="#000000" stroke-width="2" d="M113.162,15.361v45.496"/>
<path fill="none" stroke="#000000" stroke-width="2" d="M126.927,60.857V15.361"/>
</svg>
