<?xml version="1.0" encoding="utf-8"?>
<!-- Generator: Adobe Illustrator 14.0.0, SVG Export Plug-In . SVG Version: 6.00 Build 43363)  -->
<!DOCTYPE svg PUBLIC "-//W3C//DTD SVG 1.1//EN" "http://www.w3.org/Graphics/SVG/1.1/DTD/svg11.dtd">
<svg version="1.1" id="图层_1" xmlns="http://www.w3.org/2000/svg" xmlns:xlink="http://www.w3.org/1999/xlink" x="0px" y="0px"
	 width="139.442px" height="106.502px" viewBox="0 0 139.442 106.502" enable-background="new 0 0 139.442 106.502"
	 xml:space="preserve">
<path fill="#00FFFF" stroke="#000000" stroke-width="2" d="M3.908,3.909h131.486v98.684H3.908V3.909z"/>
<path fill="none" stroke="#000000" stroke-width="2" d="M33.5,102.593V3.909"/>
<path fill="none" stroke="#000000" stroke-width="2" d="M50.529,3.909v60.299"/>
<path fill="none" stroke="#000000" stroke-width="2" d="M67.557,64.208V3.909"/>
<path fill="none" stroke="#000000" stroke-width="2" d="M84.447,3.909v98.684"/>
<path fill="none" stroke="#000000" stroke-width="2" d="M101.476,102.593V3.909"/>
<path fill="none" stroke="#000000" stroke-width="2" d="M118.505,102.593V3.909"/>
<path fill="none" stroke="#000000" stroke-width="2" d="M101.476,20.379H88.774v71.188h12.702"/>
<path fill="none" stroke="#000000" stroke-width="2" d="M118.505,20.379h-12.701v71.188h12.701"/>
<path fill="none" stroke="#000000" stroke-width="2" d="M135.394,20.379h-12.702v71.188h12.702"/>
<path fill="none" stroke="#000000" stroke-width="2" d="M42.014,102.593V64.208h42.433"/>
<path fill="none" stroke="#000000" stroke-width="2" d="M67.557,102.593V80.679"/>
<path fill="none" stroke="#000000" stroke-width="2" d="M50.529,102.593V97.01"/>
<path fill="none" stroke="#000000" stroke-width="2" d="M39.921,14.796h4.327v27.498h-4.327V14.796"/>
<path fill="none" stroke="#000000" stroke-width="2" d="M56.949,14.796h4.188v27.498h-4.188V14.796"/>
<path fill="none" stroke="#000000" stroke-width="2" d="M16.61,64.208h4.188v27.358H16.61V64.208"/>
</svg>
