<?xml version="1.0" encoding="utf-8"?>
<!-- Generator: Adobe Illustrator 14.0.0, SVG Export Plug-In . SVG Version: 6.00 Build 43363)  -->
<!DOCTYPE svg PUBLIC "-//W3C//DTD SVG 1.1//EN" "http://www.w3.org/Graphics/SVG/1.1/DTD/svg11.dtd">
<svg version="1.1" id="图层_1" xmlns="http://www.w3.org/2000/svg" xmlns:xlink="http://www.w3.org/1999/xlink" x="0px" y="0px"
	 width="144.749px" height="87.805px" viewBox="0 0 144.749 87.805" enable-background="new 0 0 144.749 87.805"
	 xml:space="preserve">
<path fill="#00FFFF" stroke="#000000" stroke-width="2" d="M26.806,80.849H4.058V6.81h22.748V4.057h90.991V6.81h22.748v74.039
	h-22.748v2.897H26.806V80.849z"/>
<path fill="none" stroke="#000000" stroke-width="2" d="M26.806,80.849V6.81"/>
<path fill="none" stroke="#000000" stroke-width="2" d="M117.798,80.849V6.81"/>
<path fill="none" stroke="#000000" stroke-width="2" d="M100.701,9.708h8.548v14.199h-8.548V9.708"/>
<path fill="none" stroke="#000000" stroke-width="2" d="M100.701,29.557h8.548v14.345h-8.548V29.557"/>
<path fill="none" stroke="#000000" stroke-width="2" d="M35.354,9.708h56.942v3.188H35.354V9.708"/>
<path fill="none" stroke="#000000" stroke-width="2" d="M35.354,22.748h56.942v3.188H35.354V22.748"/>
<path fill="none" stroke="#000000" stroke-width="2" d="M35.354,16.228h56.942v3.188H35.354V16.228"/>
<path fill="none" stroke="#000000" stroke-width="2" d="M35.354,35.788h56.942v3.188H35.354V35.788"/>
<path fill="none" stroke="#000000" stroke-width="2" d="M35.354,42.308h56.942v3.188H35.354V42.308"/>
<path fill="none" stroke="#000000" stroke-width="2" d="M35.354,29.268h56.942v3.188H35.354V29.268"/>
<path fill="none" stroke="#000000" stroke-width="2" d="M35.354,48.683h56.942v3.333H35.354V48.683"/>
<path fill="none" stroke="#000000" stroke-width="2" d="M35.354,61.723h56.942v3.188H35.354V61.723"/>
<path fill="none" stroke="#000000" stroke-width="2" d="M35.354,55.204h56.942v3.188H35.354V55.204"/>
<path fill="none" stroke="#000000" stroke-width="2" d="M35.354,74.763h56.942v3.188H35.354V74.763"/>
<path fill="none" stroke="#000000" stroke-width="2" d="M35.354,68.244h56.942v3.188H35.354V68.244"/>
</svg>
