<?xml version="1.0" encoding="utf-8"?>
<!-- Generator: Adobe Illustrator 14.0.0, SVG Export Plug-In . SVG Version: 6.00 Build 43363)  -->
<!DOCTYPE svg PUBLIC "-//W3C//DTD SVG 1.1//EN" "http://www.w3.org/Graphics/SVG/1.1/DTD/svg11.dtd">
<svg version="1.1" id="图层_1" xmlns="http://www.w3.org/2000/svg" xmlns:xlink="http://www.w3.org/1999/xlink" x="0px" y="0px"
	 width="144.749px" height="100.851px" viewBox="0 0 144.749 100.851" enable-background="new 0 0 144.749 100.851"
	 xml:space="preserve">
<path fill="#00FFFF" stroke="#000000" stroke-width="2" d="M125.913,4.059h14.634v92.587h-14.634V4.059z"/>
<path fill="#00FFFF" stroke="#000000" stroke-width="2" d="M111.278,4.059h14.635v92.587h-14.635V4.059z"/>
<path fill="#00FFFF" stroke="#000000" stroke-width="2" d="M96.644,4.059h14.634v92.587H96.644V4.059z"/>
<path fill="#00FFFF" stroke="#000000" stroke-width="2" d="M82.01,4.059h14.635v92.587H82.01V4.059z"/>
<path fill="#00FFFF" stroke="#000000" stroke-width="2" d="M67.376,4.059H82.01v92.587H67.376V4.059z"/>
<path fill="#00FFFF" stroke="#000000" stroke-width="2" d="M52.741,4.059h14.635v92.587H52.741V4.059z"/>
<path fill="#00FFFF" stroke="#000000" stroke-width="2" d="M38.107,4.059h14.634v92.587H38.107V4.059z"/>
<path fill="#00FFFF" stroke="#000000" stroke-width="2" d="M23.472,4.059h14.635v92.587H23.472V4.059z"/>
<path fill="#00FFFF" stroke="#000000" stroke-width="2" d="M4.057,4.059h19.415v92.587H4.057V4.059z"/>
<path fill="#00FFFF" stroke="#000000" stroke-width="2" d="M4.057,11.304h19.415v78.098H4.057V11.304z"/>
<path fill="#00FFFF" stroke="#000000" stroke-width="2" d="M125.913,11.304h14.634v78.098h-14.634V11.304z"/>
<path fill="#00FFFF" stroke="#000000" stroke-width="2" d="M111.278,11.304h14.635v78.098h-14.635V11.304z"/>
<path fill="#00FFFF" stroke="#000000" stroke-width="2" d="M96.644,11.304h14.634v78.098H96.644V11.304z"/>
<path fill="#00FFFF" stroke="#000000" stroke-width="2" d="M82.01,11.304h14.635v78.098H82.01V11.304z"/>
<path fill="#00FFFF" stroke="#000000" stroke-width="2" d="M67.376,11.304H82.01v78.098H67.376V11.304z"/>
<path fill="#00FFFF" stroke="#000000" stroke-width="2" d="M52.741,11.304h14.635v78.098H52.741V11.304z"/>
<path fill="#00FFFF" stroke="#000000" stroke-width="2" d="M38.107,11.304h14.634v78.098H38.107V11.304z"/>
<path fill="#00FFFF" stroke="#000000" stroke-width="2" d="M23.472,11.304h14.635v78.098H23.472V11.304z"/>
<path fill="#00FFFF" stroke="#000000" stroke-width="2" d="M113.162,81.288l-0.579-1.594l0.579-1.739l1.739-0.725l1.738,0.725
	l0.725,1.739l-0.725,1.594l-1.738,0.725L113.162,81.288z"/>
<path fill="#00FFFF" stroke="#000000" stroke-width="2" d="M127.797,81.288l-0.58-1.594l0.58-1.739l1.738-0.725l1.739,0.725
	l0.724,1.739l-0.724,1.594l-1.739,0.725L127.797,81.288z"/>
<path fill="#00FFFF" stroke="#000000" stroke-width="2" d="M25.502,94.763l-0.725-1.739l0.725-1.739l1.594-0.725l1.883,0.725
	l0.58,1.739l-0.58,1.739l-1.883,0.725L25.502,94.763z"/>
<path fill="#00FFFF" stroke="#000000" stroke-width="2" d="M40.135,94.763l-0.725-1.739l0.725-1.739l1.594-0.725l1.884,0.725
	l0.579,1.739l-0.579,1.739l-1.884,0.725L40.135,94.763z"/>
<path fill="#00FFFF" stroke="#000000" stroke-width="2" d="M54.77,94.763l-0.725-1.739l0.725-1.739l1.594-0.725l1.883,0.725
	l0.58,1.739l-0.58,1.739l-1.883,0.725L54.77,94.763z"/>
<path fill="#00FFFF" stroke="#000000" stroke-width="2" d="M69.404,94.763l-0.725-1.739l0.725-1.739l1.594-0.725l1.884,0.725
	l0.579,1.739l-0.579,1.739l-1.884,0.725L69.404,94.763z"/>
<path fill="#00FFFF" stroke="#000000" stroke-width="2" d="M84.039,94.763l-0.725-1.739l0.725-1.739l1.594-0.725l1.738,0.725
	l0.725,1.739l-0.725,1.739l-1.738,0.725L84.039,94.763z"/>
<path fill="#00FFFF" stroke="#000000" stroke-width="2" d="M98.528,94.763l-0.58-1.739l0.58-1.739l1.738-0.725l1.739,0.725
	l0.724,1.739l-0.724,1.739l-1.739,0.725L98.528,94.763z"/>
<path fill="#00FFFF" stroke="#000000" stroke-width="2" d="M27.385,39.269l-1.448-3.623l1.448-3.478l3.478-1.304l3.478,1.304
	l1.449,3.478l-1.449,3.623l-3.478,1.304L27.385,39.269z"/>
<path fill="#00FFFF" stroke="#000000" stroke-width="2" d="M42.019,39.269l-1.449-3.623l1.449-3.478l3.478-1.304l3.478,1.304
	l1.448,3.478l-1.448,3.623l-3.478,1.304L42.019,39.269z"/>
<path fill="#00FFFF" stroke="#000000" stroke-width="2" d="M56.653,39.269l-1.448-3.623l1.448-3.478l3.478-1.304l3.478,1.304
	l1.449,3.478l-1.449,3.623l-3.478,1.304L56.653,39.269z"/>
<path fill="#00FFFF" stroke="#000000" stroke-width="2" d="M71.288,39.269l-1.449-3.623l1.449-3.478l3.478-1.304l3.478,1.304
	l1.448,3.478l-1.448,3.623l-3.478,1.304L71.288,39.269z"/>
<path fill="#00FFFF" stroke="#000000" stroke-width="2" d="M85.922,39.269l-1.448-3.623l1.448-3.478l3.478-1.304l3.478,1.304
	l1.449,3.478l-1.449,3.623l-3.478,1.304L85.922,39.269z"/>
<path fill="#00FFFF" stroke="#000000" stroke-width="2" d="M100.556,39.269l-1.449-3.623l1.449-3.478l3.478-1.304l3.478,1.304
	l1.448,3.478l-1.448,3.623l-3.478,1.304L100.556,39.269z"/>
<path fill="#00FFFF" stroke="#000000" stroke-width="2" d="M115.19,39.269l-1.448-3.623l1.448-3.478l3.478-1.304l3.478,1.304
	l1.449,3.478l-1.449,3.623l-3.478,1.304L115.19,39.269z"/>
<path fill="#00FFFF" stroke="#000000" stroke-width="2" d="M129.825,39.269l-1.449-3.623l1.449-3.478l3.478-1.304l3.478,1.304
	l1.448,3.478l-1.448,3.623l-3.478,1.304L129.825,39.269z"/>
<path fill="#00FFFF" stroke="#000000" stroke-width="2" d="M11.302,78.39h4.927v4.926h-4.927V78.39z"/>
<path fill="#00FFFF" stroke="#000000" stroke-width="2" d="M43.033,78.39h4.927v4.926h-4.927V78.39z"/>
<path fill="#00FFFF" stroke="#000000" stroke-width="2" d="M130.839,47.962h7.39V71h-7.39V47.962z"/>
<path fill="#00FFFF" stroke="#000000" stroke-width="2" d="M100.991,50.28h7.245v23.183h-7.245V50.28z"/>
<path fill="#00FFFF" stroke="#000000" stroke-width="2" d="M72.302,60.133h4.927v13.33h-4.927V60.133z"/>
<path fill="#00FFFF" stroke="#000000" stroke-width="2" d="M72.302,78.39h4.927v4.926h-4.927V78.39z"/>
<path fill="#00FFFF" d="M10.288,56.366l-1.449-3.622l1.449-3.478l3.478-1.304l3.477,1.304l1.449,3.478l-1.449,3.622l-3.477,1.304
	L10.288,56.366z"/>
<path fill="#00FFFF" d="M6.376,18.693h11.012v2.318H6.376V18.693z"/>
<path fill="#00FFFF" d="M133.302,17.969h4.201v5.506h-4.201V17.969z"/>
<path fill="#00FFFF" d="M43.033,19.853h5.507v6.665h-5.507V19.853z"/>
<path fill="#00FFFF" d="M72.302,66.218h4.927v4.927h-4.927V66.218z"/>
<path fill="#00FFFF" d="M73.461,79.548h2.464v2.464h-2.464V79.548z"/>
<path fill="#00FFFF" d="M56.509,77.81h7.245v1.738h-7.245V77.81z"/>
<path fill="#00FFFF" d="M56.509,82.012h7.245v1.884h-7.245V82.012z"/>
</svg>
