<?xml version="1.0" encoding="utf-8"?>
<!-- Generator: Adobe Illustrator 14.0.0, SVG Export Plug-In . SVG Version: 6.00 Build 43363)  -->
<!DOCTYPE svg PUBLIC "-//W3C//DTD SVG 1.1//EN" "http://www.w3.org/Graphics/SVG/1.1/DTD/svg11.dtd">
<svg version="1.1" id="图层_1" xmlns="http://www.w3.org/2000/svg" xmlns:xlink="http://www.w3.org/1999/xlink" x="0px" y="0px"
	 width="144.749px" height="90.705px" viewBox="0 0 144.749 90.705" enable-background="new 0 0 144.749 90.705"
	 xml:space="preserve">
<path fill="#B2B2B2" d="M4.057,18.258h136.489v68.244H4.057V18.258z"/>
<path fill="#CCCCCC" d="M43.903,18.258h93.891V15.36h-14.345l-2.753-11.302H109.25l-2.753,11.302H75.2L72.302,4.058H60.855
	L58.102,15.36H43.903V18.258z"/>
<path fill="#999999" d="M4.057,38.253h39.846v32.456H4.057V38.253z"/>
<path fill="#999999" d="M43.903,70.854h96.644v15.648H43.903V70.854z"/>
<path fill="#999999" d="M43.903,18.258h15.648v19.85H43.903V18.258z"/>
<path fill="#999999" d="M75.055,18.258h15.793v19.85H75.055V18.258z"/>
<path fill="#999999" d="M106.497,18.258h15.648v19.85h-15.648V18.258z"/>
<path fill="#999999" d="M137.794,18.258h2.753v19.85h-2.753V18.258z"/>
<path fill="none" stroke="#000000" stroke-width="2" d="M140.547,86.502V18.258h-2.753V15.36h-14.345l-2.753-11.302H109.25
	l-2.753,11.302H75.2L72.302,4.058H60.855L58.102,15.36H43.903v2.898H4.057v68.244H140.547"/>
<path fill="#E5E5E5" stroke="#000000" stroke-width="2" d="M59.552,38.253h78.242v48.249H59.552V38.253z"/>
<path fill="none" stroke="#000000" stroke-width="2" d="M59.552,41.006h78.242"/>
<path fill="none" stroke="#000000" stroke-width="2" d="M59.552,46.656h78.242"/>
<path fill="none" stroke="#000000" stroke-width="2" d="M59.552,52.452h78.242"/>
<path fill="none" stroke="#000000" stroke-width="2" d="M59.552,58.104h78.242"/>
<path fill="none" stroke="#000000" stroke-width="2" d="M59.552,63.754h78.242"/>
<path fill="none" stroke="#000000" stroke-width="2" d="M59.552,69.55h78.242"/>
<path fill="none" stroke="#000000" stroke-width="2" d="M59.552,75.2h78.242"/>
<path fill="none" stroke="#000000" stroke-width="2" d="M59.552,80.852h78.242"/>
<path fill="none" stroke="#000000" stroke-width="2" d="M59.552,43.904h78.242"/>
<path fill="none" stroke="#000000" stroke-width="2" d="M59.552,49.555h78.242"/>
<path fill="none" stroke="#000000" stroke-width="2" d="M59.552,55.205h78.242"/>
<path fill="none" stroke="#000000" stroke-width="2" d="M59.552,60.857h78.242"/>
<path fill="none" stroke="#000000" stroke-width="2" d="M59.552,66.653h78.242"/>
<path fill="none" stroke="#000000" stroke-width="2" d="M59.552,72.303h78.242"/>
<path fill="none" stroke="#000000" stroke-width="2" d="M59.552,77.954h78.242"/>
<path fill="none" stroke="#000000" stroke-width="2" d="M59.552,83.749h78.242"/>
<path fill="none" stroke="#000000" stroke-width="2" d="M75.2,38.108v48.395"/>
<path fill="none" stroke="#000000" stroke-width="2" d="M90.848,38.108v48.395"/>
<path fill="none" stroke="#000000" stroke-width="2" d="M106.497,38.108v48.395"/>
<path fill="none" stroke="#000000" stroke-width="2" d="M122.145,38.108v48.395"/>
<path fill="#A6BAD9" d="M123.449,23.908v-2.753h12.896v2.753H123.449z"/>
<path fill="#A6BAD9" d="M107.801,23.908v-2.753h12.896v2.753H107.801z"/>
<path fill="#A6BAD9" d="M92.152,23.908v-2.753h12.896v2.753H92.152z"/>
<path fill="#A6BAD9" d="M76.649,23.908v-2.753h12.75v2.753H76.649z"/>
<path fill="#A6BAD9" d="M60.855,23.908v-2.753h12.896v2.753H60.855z"/>
<path fill="#A6BAD9" d="M45.207,23.908v-2.753h12.896v2.753H45.207z"/>
<path fill="#A6BAD9" d="M123.449,26.806h4.348v8.549h-4.348V26.806z"/>
<path fill="#A6BAD9" d="M109.974,26.806h8.549v8.549h-8.549V26.806z"/>
<path fill="#A6BAD9" d="M100.701,26.806h4.347v8.549h-4.347V26.806z"/>
<path fill="#A6BAD9" d="M63.029,26.806h8.549v8.549h-8.549V26.806z"/>
<path fill="#990000" d="M39.556,23.908v2.897h-4.202v-2.897H39.556z"/>
<path fill="#990000" d="M46.656,28.255h2.897v7.1h-2.897V28.255z"/>
<path fill="#990000" d="M78.097,28.255h2.753v7.1h-2.753V28.255z"/>
</svg>
