<?xml version="1.0" encoding="utf-8"?>
<!-- Generator: Adobe Illustrator 14.0.0, SVG Export Plug-In . SVG Version: 6.00 Build 43363)  -->
<!DOCTYPE svg PUBLIC "-//W3C//DTD SVG 1.1//EN" "http://www.w3.org/Graphics/SVG/1.1/DTD/svg11.dtd">
<svg version="1.1" id="图层_1" xmlns="http://www.w3.org/2000/svg" xmlns:xlink="http://www.w3.org/1999/xlink" x="0px" y="0px"
	 width="144.749px" height="68.969px" viewBox="0 0 144.749 68.969" enable-background="new 0 0 144.749 68.969"
	 xml:space="preserve">
<path fill="#7F7F7F" d="M4.347,19.561H35.5v28.398H4.347V19.561z"/>
<path d="M35.789,19.561l-0.289-0.29H4.347v0.58H35.5l-0.436-0.29H35.789v-0.29H35.5L35.789,19.561z"/>
<path d="M35.5,48.249l0.289-0.29V19.561h-0.725v28.398L35.5,47.67V48.249h0.289v-0.29L35.5,48.249z"/>
<path d="M4.057,47.959l0.29,0.29H35.5V47.67H4.347l0.29,0.289H4.057v0.29h0.29L4.057,47.959z"/>
<path d="M4.347,19.271l-0.29,0.29v28.398h0.58V19.561l-0.29,0.29V19.271h-0.29v0.29L4.347,19.271z"/>
<path fill="#E5E5E5" stroke="#000000" stroke-width="2" d="M35.5,19.561h14.778v28.398H35.5V19.561z"/>
<path fill="#E5E5E5" stroke="#000000" stroke-width="2" d="M50.278,19.561h15.648v28.398H50.278V19.561z"/>
<path fill="#E5E5E5" stroke="#000000" stroke-width="2" d="M65.636,19.561H80.85v28.398H65.636V19.561z"/>
<path fill="#E5E5E5" stroke="#000000" stroke-width="2" d="M80.561,19.561h14.924v28.398H80.561V19.561z"/>
<path fill="#E5E5E5" stroke="#000000" stroke-width="2" d="M95.485,19.561h14.924v28.398H95.485V19.561z"/>
<path fill="#E5E5E5" stroke="#000000" stroke-width="2" d="M110.409,19.561h14.924v28.398h-14.924V19.561z"/>
<path fill="#E5E5E5" stroke="#000000" stroke-width="2" d="M125.477,19.561h14.779v28.398h-14.779V19.561z"/>
<path fill="#7F7F7F" d="M4.347,5.506H35.5v14.055H4.347V5.506z"/>
<path d="M35.789,5.506L35.5,5.071H4.347v0.725H35.5l-0.436-0.29H35.789V5.071H35.5L35.789,5.506z"/>
<path d="M35.5,19.85l0.289-0.29V5.506h-0.725v14.055l0.436-0.29V19.85h0.289v-0.29L35.5,19.85z"/>
<path d="M4.057,19.561l0.29,0.29H35.5v-0.58H4.347l0.29,0.29H4.057v0.29h0.29L4.057,19.561z"/>
<path d="M4.347,5.071l-0.29,0.435v14.055h0.58V5.506l-0.29,0.29V5.071h-0.29v0.435L4.347,5.071z"/>
<path fill="#7F7F7F" d="M35.5,5.506h14.778v14.055H35.5V5.506z"/>
<path d="M50.713,5.506l-0.435-0.435H35.5v0.725h14.778l-0.29-0.29H50.713V5.071h-0.435L50.713,5.506z"/>
<path d="M50.278,19.85l0.435-0.29V5.506h-0.725v14.055l0.29-0.29V19.85h0.435v-0.29L50.278,19.85z"/>
<path d="M35.21,19.561l0.29,0.29h14.778v-0.58H35.5l0.289,0.29H35.21v0.29h0.29L35.21,19.561z"/>
<path d="M35.5,5.071l-0.29,0.435v14.055h0.579V5.506L35.5,5.796V5.071h-0.29v0.435L35.5,5.071z"/>
<path fill="#7F7F7F" d="M50.278,5.506h15.648v14.055H50.278V5.506z"/>
<path d="M66.217,5.506l-0.29-0.435H50.278v0.725h15.648l-0.29-0.29H66.217V5.071h-0.29L66.217,5.506z"/>
<path d="M65.927,19.85l0.29-0.29V5.506h-0.58v14.055l0.29-0.29V19.85h0.29v-0.29L65.927,19.85z"/>
<path d="M49.988,19.561l0.29,0.29h15.648v-0.58H50.278l0.435,0.29H49.988v0.29h0.29L49.988,19.561z"/>
<path d="M50.278,5.071l-0.29,0.435v14.055h0.725V5.506l-0.435,0.29V5.071h-0.29v0.435L50.278,5.071z"/>
<path fill="#7F7F7F" d="M65.636,5.506H80.85v14.055H65.636V5.506z"/>
<path d="M81.14,5.506l-0.29-0.435H65.636v0.725H80.85l-0.435-0.29H81.14V5.071h-0.29L81.14,5.506z"/>
<path d="M80.85,19.85l0.29-0.29V5.506h-0.725v14.055l0.435-0.29V19.85h0.29v-0.29L80.85,19.85z"/>
<path d="M65.347,19.561l0.289,0.29H80.85v-0.58H65.636l0.29,0.29H65.347v0.29h0.289L65.347,19.561z"/>
<path d="M65.636,5.071l-0.289,0.435v14.055h0.579V5.506l-0.29,0.29V5.071h-0.289v0.435L65.636,5.071z"/>
<path fill="#7F7F7F" d="M80.561,5.506h14.924v14.055H80.561V5.506z"/>
<path d="M95.774,5.506l-0.289-0.435H80.561v0.725h14.924l-0.435-0.29H95.774V5.071h-0.289L95.774,5.506z"/>
<path d="M95.485,19.85l0.289-0.29V5.506h-0.724v14.055l0.435-0.29V19.85h0.289v-0.29L95.485,19.85z"/>
<path d="M80.271,19.561l0.29,0.29h14.924v-0.58H80.561l0.289,0.29H80.271v0.29h0.29L80.271,19.561z"/>
<path d="M80.561,5.071l-0.29,0.435v14.055h0.579V5.506l-0.289,0.29V5.071h-0.29v0.435L80.561,5.071z"/>
<path fill="#7F7F7F" d="M95.485,5.506h14.924v14.055H95.485V5.506z"/>
<path d="M110.698,5.506l-0.289-0.435H95.485v0.725h14.924l-0.29-0.29H110.698V5.071h-0.289L110.698,5.506z"/>
<path d="M110.409,19.85l0.289-0.29V5.506h-0.579v14.055l0.29-0.29V19.85h0.289v-0.29L110.409,19.85z"/>
<path d="M95.195,19.561l0.29,0.29h14.924v-0.58H95.485l0.289,0.29H95.195v0.29h0.29L95.195,19.561z"/>
<path d="M95.485,5.071l-0.29,0.435v14.055h0.579V5.506l-0.289,0.29V5.071h-0.29v0.435L95.485,5.071z"/>
<path fill="#7F7F7F" d="M110.409,5.506h14.924v14.055h-14.924V5.506z"/>
<path d="M125.623,5.506l-0.29-0.435h-14.924v0.725h14.924l-0.29-0.29H125.623V5.071h-0.29L125.623,5.506z"/>
<path d="M125.333,19.85l0.29-0.29V5.506h-0.58v14.055l0.29-0.29V19.85h0.29v-0.29L125.333,19.85z"/>
<path d="M110.119,19.561l0.29,0.29h14.924v-0.58h-14.924l0.435,0.29H110.119v0.29h0.29L110.119,19.561z"/>
<path d="M110.409,5.071l-0.29,0.435v14.055h0.725V5.506l-0.435,0.29V5.071h-0.29v0.435L110.409,5.071z"/>
<path fill="#7F7F7F" d="M125.477,5.506h14.779v14.055h-14.779V5.506z"/>
<path d="M140.547,5.506l-0.29-0.435h-14.779v0.725h14.779l-0.29-0.29H140.547V5.071h-0.29L140.547,5.506z"/>
<path d="M140.257,19.85l0.29-0.29V5.506h-0.58v14.055l0.29-0.29V19.85h0.29v-0.29L140.257,19.85z"/>
<path d="M125.043,19.561l0.435,0.29h14.779v-0.58h-14.779l0.29,0.29H125.043v0.29h0.435L125.043,19.561z"/>
<path d="M125.477,5.071l-0.435,0.435v14.055h0.725V5.506l-0.29,0.29V5.071h-0.435v0.435L125.477,5.071z"/>
<path fill="#7F7F7F" d="M4.347,47.959H35.5v14.055H4.347V47.959z"/>
<path d="M35.789,47.959L35.5,47.67H4.347v0.579H35.5l-0.436-0.29H35.789V47.67H35.5L35.789,47.959z"/>
<path d="M35.5,62.449l0.289-0.436V47.959h-0.725v14.055l0.436-0.289V62.449h0.289v-0.436L35.5,62.449z"/>
<path d="M4.057,62.014l0.29,0.436H35.5v-0.725H4.347l0.29,0.289H4.057v0.436h0.29L4.057,62.014z"/>
<path d="M4.347,47.67l-0.29,0.289v14.055h0.58V47.959l-0.29,0.29V47.67h-0.29v0.289L4.347,47.67z"/>
<path fill="#E5E5E5" stroke="#000000" stroke-width="2" d="M35.5,47.959h14.778v14.055H35.5V47.959z"/>
<path fill="#E5E5E5" stroke="#000000" stroke-width="2" d="M50.278,47.959h15.648v14.055H50.278V47.959z"/>
<path fill="#E5E5E5" stroke="#000000" stroke-width="2" d="M65.636,47.959H80.85v14.055H65.636V47.959z"/>
<path fill="#E5E5E5" stroke="#000000" stroke-width="2" d="M80.561,47.959h14.924v14.055H80.561V47.959z"/>
<path fill="#E5E5E5" stroke="#000000" stroke-width="2" d="M95.485,47.959h14.924v14.055H95.485V47.959z"/>
<path fill="#E5E5E5" stroke="#000000" stroke-width="2" d="M110.409,47.959h14.924v14.055h-14.924V47.959z"/>
<path fill="#E5E5E5" stroke="#000000" stroke-width="2" d="M125.477,47.959h14.779v14.055h-14.779V47.959z"/>
<path fill="#E5E5E5" stroke="#000000" stroke-width="2" d="M36.223,6.085h13.476v2.898H36.223V6.085z"/>
<path fill="#E5E5E5" stroke="#000000" stroke-width="2" d="M51.147,6.085h13.476v2.898H51.147V6.085z"/>
<path fill="#E5E5E5" stroke="#000000" stroke-width="2" d="M66.507,6.085h13.475v2.898H66.507V6.085z"/>
<path fill="#E5E5E5" stroke="#000000" stroke-width="2" d="M81.43,6.085h13.475v2.898H81.43V6.085z"/>
<path fill="#E5E5E5" stroke="#000000" stroke-width="2" d="M96.499,6.085h13.476v2.898H96.499V6.085z"/>
<path fill="#E5E5E5" stroke="#000000" stroke-width="2" d="M111.423,6.085h13.476v2.898h-13.476V6.085z"/>
<path fill="#E5E5E5" stroke="#000000" stroke-width="2" d="M126.346,6.085h13.476v2.898h-13.476V6.085z"/>
<path fill="#CCCCCC" stroke="#000000" stroke-width="2" d="M4.347,5.506h135.909V4.057H4.347V5.506z"/>
<path stroke="#000000" stroke-width="2" d="M7.1,62.014h130.403v2.898H7.1V62.014z"/>
<path fill="#FF0000" stroke="#000000" stroke-width="2" d="M37.673,10.432h4.202v1.304h-4.202V10.432z"/>
<path fill="#00FF00" stroke="#000000" stroke-width="2" d="M37.673,12.461h4.202v1.449h-4.202V12.461z"/>
<path fill="#00FF00" stroke="#000000" stroke-width="2" d="M37.673,14.634h4.202v1.449h-4.202V14.634z"/>
<path fill="#FF0000" stroke="#000000" stroke-width="2" d="M37.673,16.808h4.202v1.304h-4.202V16.808z"/>
<path fill="#00FF00" stroke="#000000" stroke-width="2" d="M44.048,10.432h4.202v1.304h-4.202V10.432z"/>
<path fill="#FF0000" stroke="#000000" stroke-width="2" d="M44.048,12.461h4.202v1.449h-4.202V12.461z"/>
<path fill="#00FF00" stroke="#000000" stroke-width="2" d="M44.048,14.634h4.202v1.449h-4.202V14.634z"/>
<path fill="#00FF00" stroke="#000000" stroke-width="2" d="M44.048,16.808h4.202v1.304h-4.202V16.808z"/>
<path fill="#00FF00" stroke="#000000" stroke-width="2" d="M52.452,10.432h4.202v1.304h-4.202V10.432z"/>
<path fill="#00FF00" stroke="#000000" stroke-width="2" d="M52.452,12.461h4.202v1.449h-4.202V12.461z"/>
<path fill="#00FF00" stroke="#000000" stroke-width="2" d="M52.452,14.634h4.202v1.449h-4.202V14.634z"/>
<path fill="#FF0000" stroke="#000000" stroke-width="2" d="M52.452,16.808h4.202v1.304h-4.202V16.808z"/>
<path fill="#FF0000" stroke="#000000" stroke-width="2" d="M58.827,10.432h4.347v1.304h-4.347V10.432z"/>
<path fill="#FF0000" stroke="#000000" stroke-width="2" d="M58.827,12.461h4.347v1.449h-4.347V12.461z"/>
<path fill="#00FF00" stroke="#000000" stroke-width="2" d="M58.827,14.634h4.347v1.449h-4.347V14.634z"/>
<path fill="#FF0000" stroke="#000000" stroke-width="2" d="M58.827,16.808h4.347v1.304h-4.347V16.808z"/>
<path fill="#FF0000" stroke="#000000" stroke-width="2" d="M67.666,10.432h4.201v1.304h-4.201V10.432z"/>
<path fill="#FF0000" stroke="#000000" stroke-width="2" d="M67.666,12.461h4.201v1.449h-4.201V12.461z"/>
<path fill="#00FF00" stroke="#000000" stroke-width="2" d="M67.666,14.634h4.201v1.449h-4.201V14.634z"/>
<path fill="#FF0000" stroke="#000000" stroke-width="2" d="M67.666,16.808h4.201v1.304h-4.201V16.808z"/>
<path fill="#00FF00" stroke="#000000" stroke-width="2" d="M74.041,10.432h4.347v1.304h-4.347V10.432z"/>
<path fill="#FF0000" stroke="#000000" stroke-width="2" d="M74.041,12.461h4.347v1.449h-4.347V12.461z"/>
<path fill="#00FF00" stroke="#000000" stroke-width="2" d="M74.041,14.634h4.347v1.449h-4.347V14.634z"/>
<path fill="#00FF00" stroke="#000000" stroke-width="2" d="M74.041,16.808h4.347v1.304h-4.347V16.808z"/>
<path fill="#FF0000" stroke="#000000" stroke-width="2" d="M82.879,10.432h4.348v1.304h-4.348V10.432z"/>
<path fill="#00FF00" stroke="#000000" stroke-width="2" d="M82.879,12.461h4.348v1.449h-4.348V12.461z"/>
<path fill="#00FF00" stroke="#000000" stroke-width="2" d="M82.879,14.634h4.348v1.449h-4.348V14.634z"/>
<path fill="#FF0000" stroke="#000000" stroke-width="2" d="M82.879,16.808h4.348v1.304h-4.348V16.808z"/>
<path fill="#00FF00" stroke="#000000" stroke-width="2" d="M89.255,10.432h4.347v1.304h-4.347V10.432z"/>
<path fill="#FF0000" stroke="#000000" stroke-width="2" d="M89.255,12.461h4.347v1.449h-4.347V12.461z"/>
<path fill="#00FF00" stroke="#000000" stroke-width="2" d="M89.255,14.634h4.347v1.449h-4.347V14.634z"/>
<path fill="#FF0000" stroke="#000000" stroke-width="2" d="M89.255,16.808h4.347v1.304h-4.347V16.808z"/>
<path fill="#FF0000" stroke="#000000" stroke-width="2" d="M97.803,10.432h4.201v1.304h-4.201V10.432z"/>
<path fill="#FF0000" stroke="#000000" stroke-width="2" d="M97.803,12.461h4.201v1.449h-4.201V12.461z"/>
<path fill="#00FF00" stroke="#000000" stroke-width="2" d="M97.803,14.634h4.201v1.449h-4.201V14.634z"/>
<path fill="#FF0000" stroke="#000000" stroke-width="2" d="M97.803,16.808h4.201v1.304h-4.201V16.808z"/>
<path fill="#00FF00" stroke="#000000" stroke-width="2" d="M104.178,10.432h4.202v1.304h-4.202V10.432z"/>
<path fill="#FF0000" stroke="#000000" stroke-width="2" d="M104.178,12.461h4.202v1.449h-4.202V12.461z"/>
<path fill="#00FF00" stroke="#000000" stroke-width="2" d="M104.178,14.634h4.202v1.449h-4.202V14.634z"/>
<path fill="#FF0000" stroke="#000000" stroke-width="2" d="M104.178,16.808h4.202v1.304h-4.202V16.808z"/>
<path fill="#00FF00" stroke="#000000" stroke-width="2" d="M112.727,10.432h4.201v1.304h-4.201V10.432z"/>
<path fill="#FF0000" stroke="#000000" stroke-width="2" d="M112.727,12.461h4.201v1.449h-4.201V12.461z"/>
<path fill="#00FF00" stroke="#000000" stroke-width="2" d="M112.727,14.634h4.201v1.449h-4.201V14.634z"/>
<path fill="#00FF00" stroke="#000000" stroke-width="2" d="M112.727,16.808h4.201v1.304h-4.201V16.808z"/>
<path fill="#00FF00" stroke="#000000" stroke-width="2" d="M119.102,10.432h4.202v1.304h-4.202V10.432z"/>
<path fill="#00FF00" stroke="#000000" stroke-width="2" d="M119.102,12.461h4.202v1.449h-4.202V12.461z"/>
<path fill="#FF0000" stroke="#000000" stroke-width="2" d="M119.102,14.634h4.202v1.449h-4.202V14.634z"/>
<path fill="#FF0000" stroke="#000000" stroke-width="2" d="M119.102,16.808h4.202v1.304h-4.202V16.808z"/>
<path fill="#FF0000" stroke="#000000" stroke-width="2" d="M127.506,10.432h4.202v1.304h-4.202V10.432z"/>
<path fill="#FF0000" stroke="#000000" stroke-width="2" d="M127.506,12.461h4.202v1.449h-4.202V12.461z"/>
<path fill="#00FF00" stroke="#000000" stroke-width="2" d="M127.506,14.634h4.202v1.449h-4.202V14.634z"/>
<path fill="#00FF00" stroke="#000000" stroke-width="2" d="M127.506,16.808h4.202v1.304h-4.202V16.808z"/>
<path fill="#00FF00" stroke="#000000" stroke-width="2" d="M133.882,10.432h4.201v1.304h-4.201V10.432z"/>
<path fill="#FF0000" stroke="#000000" stroke-width="2" d="M133.882,12.461h4.201v1.449h-4.201V12.461z"/>
<path fill="#00FF00" stroke="#000000" stroke-width="2" d="M133.882,14.634h4.201v1.449h-4.201V14.634z"/>
<path fill="#FF0000" stroke="#000000" stroke-width="2" d="M133.882,16.808h4.201v1.304h-4.201V16.808z"/>
</svg>
