<?xml version="1.0" encoding="utf-8"?>
<!-- Generator: Adobe Illustrator 14.0.0, SVG Export Plug-In . SVG Version: 6.00 Build 43363)  -->
<!DOCTYPE svg PUBLIC "-//W3C//DTD SVG 1.1//EN" "http://www.w3.org/Graphics/SVG/1.1/DTD/svg11.dtd">
<svg version="1.1" id="图层_1" xmlns="http://www.w3.org/2000/svg" xmlns:xlink="http://www.w3.org/1999/xlink" x="0px" y="0px"
	 width="144.749px" height="102.11px" viewBox="0 0 144.749 102.11" enable-background="new 0 0 144.749 102.11"
	 xml:space="preserve">
<path fill="#7F7F7F" stroke="#000000" stroke-width="2" d="M126.619,13.49h8.558V4.063h-8.558V13.49z"/>
<path fill="#7F7F7F" stroke="#000000" stroke-width="2" d="M12.618,13.49h8.558V4.063h-8.558V13.49z"/>
<path fill="#E0E0E0" stroke="#000000" stroke-width="2" d="M4.061,16.681h131.115v81.366H4.061V16.681z"/>
<path fill="#B2B2B2" stroke="#000000" stroke-width="2" d="M140.687,11.459l-5.511,5.222v81.366l5.511-5.656V11.459z"/>
<path fill="#B2B2B2" stroke="#000000" stroke-width="2" d="M4.061,16.681h131.115l5.511-5.222H9.718L4.061,16.681z"/>
<path fill="#FFFFFF" stroke="#000000" stroke-width="2" d="M16.679,5.513l1.596,0.58l0.87,1.45l-0.87,1.741l-1.596,0.58l-1.45-0.58
	l-0.87-1.741l0.87-1.45L16.679,5.513z"/>
<path fill="#FFFFFF" stroke="#000000" stroke-width="2" d="M130.68,5.513l1.45,0.58l0.87,1.45l-0.87,1.741l-1.45,0.58l-1.741-0.58
	l-0.58-1.741l0.58-1.45L130.68,5.513z"/>
<path fill="#F0F0F0" stroke="#000000" stroke-width="2" d="M11.458,89.055l2.031,2.176l0.29,2.611l-2.031,2.175l-2.756,0.29
	l-2.03-2.176l-0.29-2.61l2.03-2.03L11.458,89.055z"/>
<path fill="#F0F0F0" stroke="#000000" stroke-width="2" d="M26.252,89.055l2.031,2.176v2.611l-1.741,2.175l-2.9,0.29l-2.176-2.176
	v-2.61l1.886-2.03L26.252,89.055z"/>
<path fill="#F0F0F0" stroke="#000000" stroke-width="2" d="M40.756,89.055l2.321,2.176v2.611l-1.741,2.175l-2.9,0.29l-2.176-2.176
	l-0.145-2.61l2.03-2.03L40.756,89.055z"/>
<path fill="#F0F0F0" stroke="#000000" stroke-width="2" d="M55.695,89.055l2.03,2.176l0.29,2.611l-2.176,2.175l-2.61,0.29
	l-2.03-2.176l-0.29-2.61l1.74-2.03L55.695,89.055z"/>
<path fill="#F0F0F0" stroke="#000000" stroke-width="2" d="M70.489,89.055l2.03,2.176v2.611l-1.74,2.175l-3.046,0.29l-2.03-2.176
	v-2.61l1.74-2.03L70.489,89.055z"/>
<path fill="#F0F0F0" stroke="#000000" stroke-width="2" d="M84.993,89.055l2.32,2.176v2.611l-1.74,2.175l-2.9,0.29l-2.176-2.176
	l-0.29-2.61l2.03-2.03L84.993,89.055z"/>
<path fill="#F0F0F0" stroke="#000000" stroke-width="2" d="M99.787,89.055l2.176,2.176l0.29,2.611l-2.176,2.175l-2.61,0.29
	l-2.466-2.176v-2.61l1.885-2.03L99.787,89.055z"/>
<path fill="#F0F0F0" stroke="#000000" stroke-width="2" d="M114.725,89.055l2.031,2.176v2.611l-1.741,2.175l-3.045,0.29
	l-2.031-2.176v-2.61l1.741-2.03L114.725,89.055z"/>
<path fill="#F0F0F0" stroke="#000000" stroke-width="2" d="M129.229,89.055l2.321,2.176v2.611l-2.031,2.175l-2.755,0.29
	l-2.031-2.176l-0.29-2.61l2.176-2.03L129.229,89.055z"/>
<path fill="#CCCCCC" stroke="#000000" stroke-width="2" d="M128.649,89.491l1.16,0.58l-2.32,5.946l-0.87-0.58L128.649,89.491z"/>
<path fill="#CCCCCC" stroke="#000000" stroke-width="2" d="M113.855,89.491l1.16,0.58l-2.175,5.946l-1.16-0.58L113.855,89.491z"/>
<path fill="#CCCCCC" stroke="#000000" stroke-width="2" d="M99.207,89.491l0.87,0.58l-2.03,5.946l-1.161-0.58L99.207,89.491z"/>
<path fill="#CCCCCC" stroke="#000000" stroke-width="2" d="M84.413,89.491l1.16,0.58l-2.32,5.946l-1.016-0.58L84.413,89.491z"/>
<path fill="#CCCCCC" stroke="#000000" stroke-width="2" d="M69.619,89.491l1.16,0.58l-2.176,5.946l-1.16-0.58L69.619,89.491z"/>
<path fill="#CCCCCC" stroke="#000000" stroke-width="2" d="M54.969,89.491l0.87,0.58l-2.03,5.946l-1.16-0.58L54.969,89.491z"/>
<path fill="#CCCCCC" stroke="#000000" stroke-width="2" d="M40.176,89.491l1.16,0.58l-2.03,5.946l-1.16-0.58L40.176,89.491z"/>
<path fill="#CCCCCC" stroke="#000000" stroke-width="2" d="M25.382,89.491l1.16,0.58l-2.03,5.946l-1.16-0.58L25.382,89.491z"/>
<path fill="#CCCCCC" stroke="#000000" stroke-width="2" d="M10.878,89.491l0.87,0.58l-2.03,5.946l-1.016-0.58L10.878,89.491z"/>
<path stroke="#000000" stroke-width="2" d="M68.169,36.986l6.816,1.451l5.222,3.481l3.916,5.656l1.45,6.817l-1.45,6.816
	l-5.076,6.963L54.389,43.513l6.817-5.076L68.169,36.986z"/>
<circle fill="#7F7F7F" stroke="#000000" stroke-width="2" cx="66.573" cy="55.842" r="17.55"/>
<path fill="#FFFFFF" stroke="#000000" stroke-width="2" d="M66.283,41.047l1.886,0.871l0.435,1.595l-0.435,1.74l-1.886,0.581
	l-1.45-0.581l-0.871-1.74l0.871-1.595L66.283,41.047z"/>
<path fill="none" stroke="#000000" stroke-width="2" d="M67.153,26.543v8.268"/>
<path fill="none" stroke="#000000" stroke-width="2" d="M58.595,27.704l2.031,8.412"/>
<path fill="none" stroke="#000000" stroke-width="2" d="M50.619,31.62l4.786,7.107"/>
<path fill="none" stroke="#000000" stroke-width="2" d="M44.092,37.566l6.527,5.512"/>
<path fill="none" stroke="#000000" stroke-width="2" d="M39.595,45.253l7.978,3.336"/>
<path fill="none" stroke="#000000" stroke-width="2" d="M37.565,54.101l8.558,0.58"/>
<path fill="none" stroke="#000000" stroke-width="2" d="M38.145,62.659l8.558-1.74"/>
<path fill="none" stroke="#000000" stroke-width="2" d="M41.336,71.071l7.397-4.207"/>
<path fill="none" stroke="#000000" stroke-width="2" d="M92.969,71.361l-7.396-4.497"/>
<path fill="none" stroke="#000000" stroke-width="2" d="M96.595,63.093l-8.412-1.886"/>
<path fill="none" stroke="#000000" stroke-width="2" d="M97.177,54.101l-8.558,0.58"/>
<path fill="none" stroke="#000000" stroke-width="2" d="M95.001,45.544l-7.978,3.045"/>
<path fill="none" stroke="#000000" stroke-width="2" d="M90.649,37.857l-6.526,5.221"/>
<path fill="none" stroke="#000000" stroke-width="2" d="M84.413,31.62l-5.076,7.107"/>
<path fill="none" stroke="#000000" stroke-width="2" d="M76.435,27.704l-2.756,7.977"/>
</svg>
