<?xml version="1.0" encoding="utf-8"?>
<!-- Generator: Adobe Illustrator 14.0.0, SVG Export Plug-In . SVG Version: 6.00 Build 43363)  -->
<!DOCTYPE svg PUBLIC "-//W3C//DTD SVG 1.1//EN" "http://www.w3.org/Graphics/SVG/1.1/DTD/svg11.dtd">
<svg version="1.1" id="图层_1" xmlns="http://www.w3.org/2000/svg" xmlns:xlink="http://www.w3.org/1999/xlink" x="0px" y="0px"
	 width="144.749px" height="88.82px" viewBox="0 0 144.749 88.82" enable-background="new 0 0 144.749 88.82" xml:space="preserve">
<path fill="#CCCCCC" stroke="#000000" stroke-width="2" d="M4.057,84.762v-74.62H128.23v74.62H4.057z"/>
<path fill="#E5E5E5" stroke="#000000" stroke-width="2" d="M4.057,10.143l12.316-6.085h124.173l-12.316,6.085H4.057z"/>
<path fill="#999999" stroke="#000000" stroke-width="2" d="M128.23,84.762v-74.62l12.316-6.085v74.475L128.23,84.762z"/>
<path fill="#FFFFFF" stroke="#000000" stroke-width="2" d="M13.331,22.603h83.893v9.273H13.331V22.603z"/>
<path fill="#FFFFFF" d="M90.993,78.532h27.965V41.294H90.993V78.532z"/>
<path fill="#FFFFFF" d="M13.331,78.532H69.26V41.294H13.331V78.532z"/>
<path fill="none" stroke="#000000" stroke-width="2" d="M87.805,31.876v-9.273"/>
<path fill="none" stroke="#000000" stroke-width="2" d="M22.459,31.876v-9.273"/>
<path fill="none" stroke="#000000" stroke-width="2" d="M90.993,78.532h27.965V41.294H90.993V78.532"/>
<path fill="none" stroke="#000000" stroke-width="2" d="M100.266,78.532V41.294"/>
<path fill="none" stroke="#000000" stroke-width="2" d="M109.54,78.532V41.294"/>
<path fill="none" stroke="#000000" stroke-width="2" d="M90.993,69.259h27.965"/>
<path fill="none" stroke="#000000" stroke-width="2" d="M118.958,59.841H90.993"/>
<path fill="none" stroke="#000000" stroke-width="2" d="M90.993,50.568h27.965"/>
<path fill="none" stroke="#000000" stroke-width="2" d="M13.331,78.532H69.26V41.294H13.331V78.532"/>
<path fill="none" stroke="#000000" stroke-width="2" d="M22.604,41.294v37.237"/>
<path fill="none" stroke="#000000" stroke-width="2" d="M32.022,78.532V41.294"/>
<path fill="none" stroke="#000000" stroke-width="2" d="M41.295,41.294v37.237"/>
<path fill="none" stroke="#000000" stroke-width="2" d="M50.568,78.532V41.294"/>
<path fill="none" stroke="#000000" stroke-width="2" d="M59.986,41.294v37.237"/>
<path fill="none" stroke="#000000" stroke-width="2" d="M69.26,69.259H13.331"/>
<path fill="none" stroke="#000000" stroke-width="2" d="M13.331,59.841H69.26"/>
<path fill="none" stroke="#000000" stroke-width="2" d="M69.26,50.568H13.331"/>
<path fill="#E56500" d="M103.309,13.33H122v21.734h-18.69V13.33z"/>
<path fill="#0000FF" d="M104.903,14.779h15.503V33.47h-15.503V14.779z"/>
</svg>
