<?xml version="1.0" encoding="UTF-8" standalone="no"?>
<svg
   xmlns:dc="http://purl.org/dc/elements/1.1/"
   xmlns:cc="http://creativecommons.org/ns#"
   xmlns:rdf="http://www.w3.org/1999/02/22-rdf-syntax-ns#"
   xmlns:svg="http://www.w3.org/2000/svg"
   xmlns="http://www.w3.org/2000/svg"
   xmlns:sodipodi="http://sodipodi.sourceforge.net/DTD/sodipodi-0.dtd"
   xmlns:inkscape="http://www.inkscape.org/namespaces/inkscape"
   version="1.1"
   id="图层_1"
   x="0px"
   y="0px"
   viewBox="0 0 77 77"
   style="enable-background:new 0 0 77 77;"
   xml:space="preserve"
   sodipodi:docname="立体按钮一_36.svg"><metadata
   id="metadata161"><rdf:RDF><cc:Work
       rdf:about=""><dc:format>image/svg+xml</dc:format><dc:type
         rdf:resource="http://purl.org/dc/dcmitype/StillImage" /></cc:Work></rdf:RDF></metadata><defs
   id="defs159" /><sodipodi:namedview
   pagecolor="#ffffff"
   bordercolor="#666666"
   borderopacity="1"
   objecttolerance="10"
   gridtolerance="10"
   guidetolerance="10"
   inkscape:pageopacity="0"
   inkscape:pageshadow="2"
   inkscape:window-width="640"
   inkscape:window-height="480"
   id="namedview157" />
<style
   type="text/css"
   id="style2">
	.st0{fill:url(#SVGID_1_);}
	.st1{fill:url(#SVGID_2_);}
	.st2{fill:url(#SVGID_3_);}
	.st3{fill:url(#SVGID_4_);}
	.st4{fill:url(#SVGID_5_);}
	.st5{fill:url(#SVGID_6_);}
	.st6{fill:#858585;}
	.st7{fill:#4C4C4C;}
	.st8{fill:#E5E5E5;}
	.st9{fill:#DEDEDE;}
</style>
<title
   id="title4">资源 36</title>
<g
   id="图层_2_1_">
	<g
   id="图层_1-2">
		
			<linearGradient
   id="SVGID_1_"
   gradientUnits="userSpaceOnUse"
   x1="0.4569"
   y1="39.0631"
   x2="38.9369"
   y2="77.5431"
   gradientTransform="matrix(1 0 0 -1 0 78)">
			<stop
   offset="1.000000e-02"
   style="stop-color:#ADB3B7"
   id="stop6" />
			<stop
   offset="0.16"
   style="stop-color:#B0B6B9"
   id="stop8" />
			<stop
   offset="0.28"
   style="stop-color:#B9BEC1"
   id="stop10" />
			<stop
   offset="0.37"
   style="stop-color:#C9CBCE"
   id="stop12" />
			<stop
   offset="0.4"
   style="stop-color:#CFD1D3"
   id="stop14" />
			<stop
   offset="0.5"
   style="stop-color:#E6E6E6"
   id="stop16" />
			<stop
   offset="0.55"
   style="stop-color:#E3E3E4"
   id="stop18" />
			<stop
   offset="0.58"
   style="stop-color:#DADBDC"
   id="stop20" />
			<stop
   offset="0.6"
   style="stop-color:#CFD1D3"
   id="stop22" />
			<stop
   offset="0.65"
   style="stop-color:#CFD1D3"
   id="stop24" />
			<stop
   offset="1"
   style="stop-color:#CFD1D3"
   id="stop26" />
		</linearGradient>
		<path
   class="st0"
   d="M38.5,0v38.5H0V3.1C0,1.4,1.4,0,3.1,0c0,0,0,0,0,0H38.5z"
   id="path29" />
		
			<linearGradient
   id="SVGID_2_"
   gradientUnits="userSpaceOnUse"
   x1="38.0331"
   y1="77.5532"
   x2="76.5331"
   y2="39.0532"
   gradientTransform="matrix(1 0 0 -1 0 78)">
			<stop
   offset="0"
   style="stop-color:#CFD1D3"
   id="stop31" />
			<stop
   offset="0.35"
   style="stop-color:#CFD1D3"
   id="stop33" />
			<stop
   offset="0.4"
   style="stop-color:#CFD1D3"
   id="stop35" />
			<stop
   offset="0.42"
   style="stop-color:#DADBDC"
   id="stop37" />
			<stop
   offset="0.45"
   style="stop-color:#E3E3E4"
   id="stop39" />
			<stop
   offset="0.5"
   style="stop-color:#E6E6E6"
   id="stop41" />
			<stop
   offset="0.6"
   style="stop-color:#CFD1D3"
   id="stop43" />
			<stop
   offset="0.63"
   style="stop-color:#C9CBCE"
   id="stop45" />
			<stop
   offset="0.72"
   style="stop-color:#B9BEC1"
   id="stop47" />
			<stop
   offset="0.84"
   style="stop-color:#B0B6B9"
   id="stop49" />
			<stop
   offset="0.99"
   style="stop-color:#ADB3B7"
   id="stop51" />
		</linearGradient>
		<path
   class="st1"
   d="M77,3.1v35.4H38.5V0h35.4C75.6,0,77,1.4,77,3.1C77,3.1,77,3.1,77,3.1z"
   id="path54" />
		
			<linearGradient
   id="SVGID_3_"
   gradientUnits="userSpaceOnUse"
   x1="0.4468"
   y1="39.9669"
   x2="38.9468"
   y2="1.4668"
   gradientTransform="matrix(1 0 0 -1 0 78)">
			<stop
   offset="1.000000e-02"
   style="stop-color:#ADB3B7"
   id="stop56" />
			<stop
   offset="0.33"
   style="stop-color:#ABB0B5"
   id="stop58" />
			<stop
   offset="0.4"
   style="stop-color:#A9AEB3"
   id="stop60" />
			<stop
   offset="0.5"
   style="stop-color:#767D83"
   id="stop62" />
			<stop
   offset="0.54"
   style="stop-color:#798086"
   id="stop64" />
			<stop
   offset="0.57"
   style="stop-color:#82888E"
   id="stop66" />
			<stop
   offset="0.59"
   style="stop-color:#92979C"
   id="stop68" />
			<stop
   offset="0.6"
   style="stop-color:#9A9FA3"
   id="stop70" />
			<stop
   offset="0.64"
   style="stop-color:#93979A"
   id="stop72" />
			<stop
   offset="0.73"
   style="stop-color:#888A8B"
   id="stop74" />
			<stop
   offset="0.83"
   style="stop-color:#828283"
   id="stop76" />
			<stop
   offset="1"
   style="stop-color:#808080"
   id="stop78" />
		</linearGradient>
		<path
   class="st2"
   d="M38.5,38.5V77H3.1C1.4,77,0,75.6,0,73.9c0,0,0,0,0,0V38.5H38.5z"
   id="path81" />
		
			<linearGradient
   id="SVGID_4_"
   gradientUnits="userSpaceOnUse"
   x1="38.0232"
   y1="1.4568"
   x2="76.5032"
   y2="39.9368"
   gradientTransform="matrix(1 0 0 -1 0 78)">
			<stop
   offset="0"
   style="stop-color:#808080"
   id="stop83" />
			<stop
   offset="0.17"
   style="stop-color:#828283"
   id="stop85" />
			<stop
   offset="0.27"
   style="stop-color:#888A8B"
   id="stop87" />
			<stop
   offset="0.36"
   style="stop-color:#93979A"
   id="stop89" />
			<stop
   offset="0.4"
   style="stop-color:#9A9FA3"
   id="stop91" />
			<stop
   offset="0.41"
   style="stop-color:#92979C"
   id="stop93" />
			<stop
   offset="0.43"
   style="stop-color:#82888E"
   id="stop95" />
			<stop
   offset="0.46"
   style="stop-color:#798086"
   id="stop97" />
			<stop
   offset="0.5"
   style="stop-color:#767D83"
   id="stop99" />
			<stop
   offset="0.6"
   style="stop-color:#A9AEB3"
   id="stop101" />
			<stop
   offset="0.67"
   style="stop-color:#ABB0B5"
   id="stop103" />
			<stop
   offset="0.99"
   style="stop-color:#ADB3B7"
   id="stop105" />
		</linearGradient>
		<path
   class="st3"
   d="M77,38.5v35.4c0,1.7-1.4,3.1-3.1,3.2c0,0-0.1,0-0.1,0H38.5V38.5H77z"
   id="path108" />
		
			<linearGradient
   id="SVGID_5_"
   gradientUnits="userSpaceOnUse"
   x1="38.48"
   y1="6.76"
   x2="38.48"
   y2="72.28"
   gradientTransform="matrix(1 0 0 -1 0 78)">
			<stop
   offset="0"
   style="stop-color:#989DA1"
   id="stop110" />
			<stop
   offset="0.31"
   style="stop-color:#BABEC1"
   id="stop112" />
			<stop
   offset="0.59"
   style="stop-color:#D1D5D7"
   id="stop114" />
			<stop
   offset="0.76"
   style="stop-color:#DADDDF"
   id="stop116" />
		</linearGradient>
		<path
   class="st4"
   d="M71.2,38.5L71.2,38.5c0,18.1-14.7,32.8-32.8,32.8l0,0c-18.1,0-32.8-14.7-32.8-32.8l0,0    c0-18.1,14.7-32.8,32.8-32.8l0,0C56.6,5.7,71.2,20.4,71.2,38.5z"
   id="path119" />
		
			<linearGradient
   id="SVGID_6_"
   gradientUnits="userSpaceOnUse"
   x1="38.48"
   y1="68.38"
   x2="38.48"
   y2="12.1"
   gradientTransform="matrix(1 0 0 -1 0 78)">
			<stop
   offset="0"
   style="stop-color:#858585"
   id="stop121" />
			<stop
   offset="0.31"
   style="stop-color:#9F9F9F"
   id="stop123" />
			<stop
   offset="0.48"
   style="stop-color:#BEBEBE"
   id="stop125" />
			<stop
   offset="0.66"
   style="stop-color:#D5D5D5"
   id="stop127" />
			<stop
   offset="0.76"
   style="stop-color:#DEDEDE"
   id="stop129" />
		</linearGradient>
		<path
   class="st5"
   d="M38.5,6.8L38.5,6.8C56,6.8,70.2,21,70.2,38.5v0C70.2,56,56,70.2,38.5,70.2h0C21,70.2,6.8,56,6.8,38.5v0    C6.8,21,21,6.8,38.5,6.8z"
   id="path132" />
		<path
   class="st6"
   d="M38.5,53.3c-7.5,0-13.5-6-13.5-13.5c0-5.1,2.8-9.7,7.3-12c0.9-0.5,2-0.3,2.5,0.6c0.5,0.9,0.3,2-0.6,2.5    C34.2,30.9,34.1,31,34,31c-4.8,2.5-6.7,8.4-4.3,13.3S38.2,51,43,48.5c4.8-2.5,6.7-8.4,4.3-13.3c-0.9-1.8-2.4-3.3-4.3-4.3    c-0.9-0.5-1.3-1.6-0.8-2.5s1.6-1.3,2.5-0.8l0,0c6.6,3.4,9.2,11.6,5.8,18.2C48.2,50.4,43.6,53.3,38.5,53.3L38.5,53.3z"
   id="path134" />
		<path
   class="st6"
   d="M38.5,35.3c-1,0-1.8-0.8-1.8-1.8l0,0v-8c0-1,0.8-1.8,1.8-1.8s1.8,0.8,1.8,1.8v8    C40.3,34.5,39.5,35.3,38.5,35.3L38.5,35.3z"
   id="path136" />
		<path
   class="st7"
   d="M52,39.8c0,0.2,0,0.3,0,0.5c-0.2-4.9-3-9.3-7.3-11.5c-0.9-0.5-2-0.1-2.5,0.8c0,0,0,0,0,0    c-0.1,0.1-0.1,0.2-0.1,0.3c-0.1-0.5-0.1-0.9,0.1-1.4c0.5-0.9,1.6-1.3,2.5-0.8c0,0,0,0,0,0C49.2,30.1,52,34.7,52,39.8z"
   id="path138" />
		<path
   class="st7"
   d="M40.3,25.5v1c0-1-0.8-1.8-1.8-1.8s-1.8,0.8-1.8,1.8v-1c0-1,0.8-1.8,1.8-1.8S40.3,24.5,40.3,25.5z"
   id="path140" />
		<path
   class="st7"
   d="M48.3,40.8c0,5.4-4.4,9.8-9.8,9.8s-9.8-4.4-9.8-9.8c0-0.2,0-0.3,0-0.5c0.3,5.4,5,9.5,10.5,9.2    c4.9-0.3,8.9-4.3,9.2-9.2C48.3,40.5,48.3,40.7,48.3,40.8z"
   id="path142" />
		<path
   class="st7"
   d="M34.9,29.9c0-0.1-0.1-0.2-0.1-0.3c-0.5-0.9-1.6-1.3-2.5-0.8c0,0,0,0,0,0c-4.3,2.2-7.1,6.6-7.3,11.5    c0-0.2,0-0.3,0-0.5c0-5.1,2.8-9.7,7.3-12c0.9-0.5,2-0.1,2.5,0.8C35,29,35.1,29.5,34.9,29.9L34.9,29.9z"
   id="path144" />
		<path
   class="st8"
   d="M52,40.3c-0.4,7.5-6.8,13.2-14.2,12.8c-6.9-0.4-12.4-5.9-12.8-12.8V40c0.4,7.5,6.8,13.2,14.2,12.8    C46.1,52.4,51.6,46.9,52,40C52,40.1,52,40.2,52,40.3z"
   id="path146" />
		<path
   class="st9"
   d="M28.6,40v-0.2c0-3.7,2-7.1,5.4-8.8c0.5-0.3,0.9-0.8,1-1.4c0.1,0.8-0.3,1.5-1,1.9C30.8,33.2,28.7,36.4,28.6,40    z"
   id="path148" />
		<path
   class="st9"
   d="M42,29.6c0.1,0.6,0.5,1.1,1,1.4c3.3,1.7,5.3,5.1,5.3,8.8V40c-0.1-3.6-2.1-6.8-5.3-8.5    C42.3,31.2,41.9,30.4,42,29.6z"
   id="path150" />
		<path
   class="st9"
   d="M40.3,33.5V34c0,1-0.8,1.8-1.8,1.8S36.6,35,36.6,34v-0.5c0,1,0.8,1.8,1.8,1.8S40.3,34.5,40.3,33.5L40.3,33.5z    "
   id="path152" />
	</g>
</g>
</svg>
