<?xml version="1.0" encoding="UTF-8" standalone="no"?>
<svg
   xmlns:dc="http://purl.org/dc/elements/1.1/"
   xmlns:cc="http://creativecommons.org/ns#"
   xmlns:rdf="http://www.w3.org/1999/02/22-rdf-syntax-ns#"
   xmlns:svg="http://www.w3.org/2000/svg"
   xmlns="http://www.w3.org/2000/svg"
   xmlns:sodipodi="http://sodipodi.sourceforge.net/DTD/sodipodi-0.dtd"
   xmlns:inkscape="http://www.inkscape.org/namespaces/inkscape"
   version="1.1"
   id="图层_1"
   x="0px"
   y="0px"
   viewBox="0 0 77 77"
   style="enable-background:new 0 0 77 77;"
   xml:space="preserve"
   sodipodi:docname="立体按钮一_40.svg"><metadata
   id="metadata163"><rdf:RDF><cc:Work
       rdf:about=""><dc:format>image/svg+xml</dc:format><dc:type
         rdf:resource="http://purl.org/dc/dcmitype/StillImage" /></cc:Work></rdf:RDF></metadata><defs
   id="defs161" /><sodipodi:namedview
   pagecolor="#ffffff"
   bordercolor="#666666"
   borderopacity="1"
   objecttolerance="10"
   gridtolerance="10"
   guidetolerance="10"
   inkscape:pageopacity="0"
   inkscape:pageshadow="2"
   inkscape:window-width="640"
   inkscape:window-height="480"
   id="namedview159" />
<style
   type="text/css"
   id="style2">
	.st0{fill:url(#SVGID_1_);}
	.st1{fill:url(#SVGID_2_);}
	.st2{fill:url(#SVGID_3_);}
	.st3{fill:url(#SVGID_4_);}
	.st4{fill:url(#SVGID_5_);}
	.st5{fill:url(#SVGID_6_);}
	.st6{fill:#772B22;}
	.st7{fill:#EDCBCA;}
	.st8{fill:#470C06;}
</style>
<title
   id="title4">资源 40</title>
<g
   id="图层_2_1_">
	<g
   id="图层_1-2">
		
			<linearGradient
   id="SVGID_1_"
   gradientUnits="userSpaceOnUse"
   x1="0.4569"
   y1="39.0631"
   x2="38.9369"
   y2="77.5431"
   gradientTransform="matrix(1 0 0 -1 0 78)">
			<stop
   offset="1.000000e-02"
   style="stop-color:#CD403D"
   id="stop6" />
			<stop
   offset="0.11"
   style="stop-color:#CE4340"
   id="stop8" />
			<stop
   offset="0.18"
   style="stop-color:#CF4C49"
   id="stop10" />
			<stop
   offset="0.24"
   style="stop-color:#D35B59"
   id="stop12" />
			<stop
   offset="0.29"
   style="stop-color:#D7716F"
   id="stop14" />
			<stop
   offset="0.34"
   style="stop-color:#DD8D8C"
   id="stop16" />
			<stop
   offset="0.39"
   style="stop-color:#E4AFAE"
   id="stop18" />
			<stop
   offset="0.4"
   style="stop-color:#E5B4B3"
   id="stop20" />
			<stop
   offset="0.5"
   style="stop-color:#F5E1E1"
   id="stop22" />
			<stop
   offset="0.54"
   style="stop-color:#F4DEDE"
   id="stop24" />
			<stop
   offset="0.56"
   style="stop-color:#F1D5D5"
   id="stop26" />
			<stop
   offset="0.58"
   style="stop-color:#EBC6C5"
   id="stop28" />
			<stop
   offset="0.6"
   style="stop-color:#E5B4B3"
   id="stop30" />
			<stop
   offset="0.65"
   style="stop-color:#E5B4B3"
   id="stop32" />
			<stop
   offset="1"
   style="stop-color:#E5B4B3"
   id="stop34" />
		</linearGradient>
		<path
   class="st0"
   d="M38.5,0v38.5H0V3.1C0,1.4,1.4,0,3.1,0c0,0,0,0,0,0H38.5z"
   id="path37" />
		
			<linearGradient
   id="SVGID_2_"
   gradientUnits="userSpaceOnUse"
   x1="38.0331"
   y1="77.5532"
   x2="76.5331"
   y2="39.0532"
   gradientTransform="matrix(1 0 0 -1 0 78)">
			<stop
   offset="0"
   style="stop-color:#E5B4B3"
   id="stop39" />
			<stop
   offset="0.35"
   style="stop-color:#E5B4B3"
   id="stop41" />
			<stop
   offset="0.4"
   style="stop-color:#E5B4B3"
   id="stop43" />
			<stop
   offset="0.42"
   style="stop-color:#EBC6C5"
   id="stop45" />
			<stop
   offset="0.44"
   style="stop-color:#F1D5D5"
   id="stop47" />
			<stop
   offset="0.46"
   style="stop-color:#F4DEDE"
   id="stop49" />
			<stop
   offset="0.5"
   style="stop-color:#F5E1E1"
   id="stop51" />
			<stop
   offset="0.6"
   style="stop-color:#E5B4B3"
   id="stop53" />
			<stop
   offset="0.61"
   style="stop-color:#E4AFAE"
   id="stop55" />
			<stop
   offset="0.66"
   style="stop-color:#DD8D8C"
   id="stop57" />
			<stop
   offset="0.71"
   style="stop-color:#D7716F"
   id="stop59" />
			<stop
   offset="0.76"
   style="stop-color:#D35B59"
   id="stop61" />
			<stop
   offset="0.82"
   style="stop-color:#CF4C49"
   id="stop63" />
			<stop
   offset="0.89"
   style="stop-color:#CE4340"
   id="stop65" />
			<stop
   offset="0.99"
   style="stop-color:#CD403D"
   id="stop67" />
		</linearGradient>
		<path
   class="st1"
   d="M77,3.1v35.4H38.5V0h35.4C75.6,0,77,1.4,77,3.1C77,3.1,77,3.1,77,3.1z"
   id="path70" />
		
			<linearGradient
   id="SVGID_3_"
   gradientUnits="userSpaceOnUse"
   x1="0.4468"
   y1="39.9669"
   x2="38.9468"
   y2="1.4668"
   gradientTransform="matrix(1 0 0 -1 0 78)">
			<stop
   offset="1.000000e-02"
   style="stop-color:#CD413E"
   id="stop72" />
			<stop
   offset="0.15"
   style="stop-color:#CC3E3B"
   id="stop74" />
			<stop
   offset="0.24"
   style="stop-color:#CA3532"
   id="stop76" />
			<stop
   offset="0.33"
   style="stop-color:#C62622"
   id="stop78" />
			<stop
   offset="0.4"
   style="stop-color:#C1130E"
   id="stop80" />
			<stop
   offset="0.5"
   style="stop-color:#880907"
   id="stop82" />
			<stop
   offset="0.55"
   style="stop-color:#8B0906"
   id="stop84" />
			<stop
   offset="0.58"
   style="stop-color:#940803"
   id="stop86" />
			<stop
   offset="0.6"
   style="stop-color:#A00700"
   id="stop88" />
			<stop
   offset="0.71"
   style="stop-color:#9F0B04"
   id="stop90" />
			<stop
   offset="1"
   style="stop-color:#9E0E07"
   id="stop92" />
		</linearGradient>
		<path
   class="st2"
   d="M38.5,38.5V77H3.1C1.4,77,0,75.6,0,73.9c0,0,0,0,0,0V38.5H38.5z"
   id="path95" />
		
			<linearGradient
   id="SVGID_4_"
   gradientUnits="userSpaceOnUse"
   x1="38.0232"
   y1="1.4568"
   x2="76.5032"
   y2="39.9368"
   gradientTransform="matrix(1 0 0 -1 0 78)">
			<stop
   offset="0"
   style="stop-color:#9E0E07"
   id="stop97" />
			<stop
   offset="0.29"
   style="stop-color:#9F0B04"
   id="stop99" />
			<stop
   offset="0.4"
   style="stop-color:#A00700"
   id="stop101" />
			<stop
   offset="0.42"
   style="stop-color:#940803"
   id="stop103" />
			<stop
   offset="0.45"
   style="stop-color:#8B0906"
   id="stop105" />
			<stop
   offset="0.5"
   style="stop-color:#880907"
   id="stop107" />
			<stop
   offset="0.6"
   style="stop-color:#C1130E"
   id="stop109" />
			<stop
   offset="0.67"
   style="stop-color:#C62622"
   id="stop111" />
			<stop
   offset="0.76"
   style="stop-color:#CA3532"
   id="stop113" />
			<stop
   offset="0.85"
   style="stop-color:#CC3E3B"
   id="stop115" />
			<stop
   offset="0.99"
   style="stop-color:#CD413E"
   id="stop117" />
		</linearGradient>
		<path
   class="st3"
   d="M77,38.5v35.4c0,1.7-1.4,3.1-3.1,3.2c0,0-0.1,0-0.1,0H38.5V38.5H77z"
   id="path120" />
		
			<linearGradient
   id="SVGID_5_"
   gradientUnits="userSpaceOnUse"
   x1="38.48"
   y1="6.76"
   x2="38.48"
   y2="72.28"
   gradientTransform="matrix(1 0 0 -1 0 78)">
			<stop
   offset="0"
   style="stop-color:#BA6B6A"
   id="stop122" />
			<stop
   offset="8.000000e-02"
   style="stop-color:#C17675"
   id="stop124" />
			<stop
   offset="0.38"
   style="stop-color:#DA9D9C"
   id="stop126" />
			<stop
   offset="0.62"
   style="stop-color:#E9B4B3"
   id="stop128" />
			<stop
   offset="0.76"
   style="stop-color:#EFBDBC"
   id="stop130" />
		</linearGradient>
		<path
   class="st4"
   d="M71.2,38.5L71.2,38.5c0,18.1-14.7,32.8-32.8,32.8l0,0c-18.1,0-32.8-14.7-32.8-32.8l0,0    c0-18.1,14.7-32.8,32.8-32.8l0,0C56.6,5.7,71.2,20.4,71.2,38.5z"
   id="path133" />
		
			<linearGradient
   id="SVGID_6_"
   gradientUnits="userSpaceOnUse"
   x1="38.48"
   y1="68.38"
   x2="38.48"
   y2="12.1"
   gradientTransform="matrix(1 0 0 -1 0 78)">
			<stop
   offset="0"
   style="stop-color:#871C1A"
   id="stop135" />
			<stop
   offset="0.3"
   style="stop-color:#A84644"
   id="stop137" />
			<stop
   offset="0.33"
   style="stop-color:#AD4C4A"
   id="stop139" />
			<stop
   offset="0.52"
   style="stop-color:#CB7371"
   id="stop141" />
			<stop
   offset="0.67"
   style="stop-color:#DE8A88"
   id="stop143" />
			<stop
   offset="0.76"
   style="stop-color:#E59391"
   id="stop145" />
		</linearGradient>
		<path
   class="st5"
   d="M38.5,6.8L38.5,6.8C56,6.8,70.2,21,70.2,38.5v0C70.2,56,56,70.2,38.5,70.2h0C21,70.2,6.8,56,6.8,38.5v0    C6.8,21,21,6.8,38.5,6.8z"
   id="path148" />
		<path
   class="st6"
   d="M52,40.4L31.4,52.1c-0.6,0.3-1.4,0.1-1.7-0.5c-0.1-0.2-0.2-0.4-0.2-0.6V27.5c0-0.7,0.6-1.3,1.3-1.3    c0.2,0,0.4,0.1,0.6,0.2L52,38.2c0.6,0.4,0.8,1.1,0.5,1.8C52.3,40.1,52.2,40.2,52,40.4z"
   id="path150" />
		<path
   class="st7"
   d="M52,40.9L31.4,52.6c-0.6,0.3-1.4,0.1-1.7-0.5c-0.1-0.2-0.2-0.4-0.2-0.6V51c0,0.7,0.6,1.3,1.3,1.3    c0.2,0,0.4-0.1,0.6-0.2L52,40.4c0.3-0.2,0.5-0.5,0.6-0.8C52.7,40.1,52.5,40.6,52,40.9z"
   id="path152" />
		<path
   class="st8"
   d="M52,40.4l-0.2,0.1c0.2-0.6,0-1.2-0.6-1.5L30.5,27.2c-0.3-0.2-0.7-0.2-1-0.1c0.2-0.7,0.9-1,1.6-0.8    c0.1,0,0.1,0.1,0.2,0.1L52,38.2c0.6,0.3,0.8,1.1,0.5,1.7C52.4,40.1,52.2,40.2,52,40.4z"
   id="path154" />
	</g>
</g>
</svg>
