<?xml version="1.0" encoding="UTF-8" standalone="no"?>
<svg
   xmlns:dc="http://purl.org/dc/elements/1.1/"
   xmlns:cc="http://creativecommons.org/ns#"
   xmlns:rdf="http://www.w3.org/1999/02/22-rdf-syntax-ns#"
   xmlns:svg="http://www.w3.org/2000/svg"
   xmlns="http://www.w3.org/2000/svg"
   xmlns:sodipodi="http://sodipodi.sourceforge.net/DTD/sodipodi-0.dtd"
   xmlns:inkscape="http://www.inkscape.org/namespaces/inkscape"
   version="1.1"
   id="图层_1"
   x="0px"
   y="0px"
   viewBox="0 0 77 77"
   style="enable-background:new 0 0 77 77;"
   xml:space="preserve"
   sodipodi:docname="立体按钮一_49.svg"><metadata
   id="metadata157"><rdf:RDF><cc:Work
       rdf:about=""><dc:format>image/svg+xml</dc:format><dc:type
         rdf:resource="http://purl.org/dc/dcmitype/StillImage" /></cc:Work></rdf:RDF></metadata><defs
   id="defs155" /><sodipodi:namedview
   pagecolor="#ffffff"
   bordercolor="#666666"
   borderopacity="1"
   objecttolerance="10"
   gridtolerance="10"
   guidetolerance="10"
   inkscape:pageopacity="0"
   inkscape:pageshadow="2"
   inkscape:window-width="640"
   inkscape:window-height="480"
   id="namedview153" />
<style
   type="text/css"
   id="style2">
	.st0{fill:url(#SVGID_1_);}
	.st1{fill:url(#SVGID_2_);}
	.st2{fill:url(#SVGID_3_);}
	.st3{fill:url(#SVGID_4_);}
	.st4{fill:url(#SVGID_5_);}
	.st5{fill:url(#SVGID_6_);}
	.st6{fill:#24781A;}
	.st7{fill:#B5FC97;}
	.st8{fill:#0E4805;}
</style>
<title
   id="title4">资源 49</title>
<g
   id="图层_2_1_">
	<g
   id="图层_1-2">
		
			<linearGradient
   id="SVGID_1_"
   gradientUnits="userSpaceOnUse"
   x1="0.4569"
   y1="39.0631"
   x2="38.9369"
   y2="77.5431"
   gradientTransform="matrix(1 0 0 -1 0 78)">
			<stop
   offset="1.000000e-02"
   style="stop-color:#5ECE2F"
   id="stop6" />
			<stop
   offset="0.12"
   style="stop-color:#60CF32"
   id="stop8" />
			<stop
   offset="0.19"
   style="stop-color:#67D13B"
   id="stop10" />
			<stop
   offset="0.26"
   style="stop-color:#74D54B"
   id="stop12" />
			<stop
   offset="0.32"
   style="stop-color:#85DB61"
   id="stop14" />
			<stop
   offset="0.38"
   style="stop-color:#9BE37D"
   id="stop16" />
			<stop
   offset="0.4"
   style="stop-color:#A5E68A"
   id="stop18" />
			<stop
   offset="0.5"
   style="stop-color:#C2F6AD"
   id="stop20" />
			<stop
   offset="0.54"
   style="stop-color:#C0F5AA"
   id="stop22" />
			<stop
   offset="0.57"
   style="stop-color:#B8F0A1"
   id="stop24" />
			<stop
   offset="0.59"
   style="stop-color:#ABE991"
   id="stop26" />
			<stop
   offset="0.6"
   style="stop-color:#A5E68A"
   id="stop28" />
			<stop
   offset="0.65"
   style="stop-color:#A5E68A"
   id="stop30" />
			<stop
   offset="1"
   style="stop-color:#A5E68A"
   id="stop32" />
		</linearGradient>
		<path
   class="st0"
   d="M38.5,0v38.5H0V3.1C0,1.4,1.4,0,3.1,0c0,0,0,0,0,0H38.5z"
   id="path35" />
		
			<linearGradient
   id="SVGID_2_"
   gradientUnits="userSpaceOnUse"
   x1="38.0331"
   y1="77.5532"
   x2="76.5331"
   y2="39.0532"
   gradientTransform="matrix(1 0 0 -1 0 78)">
			<stop
   offset="0"
   style="stop-color:#A5E68A"
   id="stop37" />
			<stop
   offset="0.35"
   style="stop-color:#A5E68A"
   id="stop39" />
			<stop
   offset="0.4"
   style="stop-color:#A5E68A"
   id="stop41" />
			<stop
   offset="0.41"
   style="stop-color:#ABE991"
   id="stop43" />
			<stop
   offset="0.43"
   style="stop-color:#B8F0A1"
   id="stop45" />
			<stop
   offset="0.46"
   style="stop-color:#C0F5AA"
   id="stop47" />
			<stop
   offset="0.5"
   style="stop-color:#C2F6AD"
   id="stop49" />
			<stop
   offset="0.6"
   style="stop-color:#A5E68A"
   id="stop51" />
			<stop
   offset="0.62"
   style="stop-color:#9BE37D"
   id="stop53" />
			<stop
   offset="0.68"
   style="stop-color:#85DB61"
   id="stop55" />
			<stop
   offset="0.74"
   style="stop-color:#74D54B"
   id="stop57" />
			<stop
   offset="0.81"
   style="stop-color:#67D13B"
   id="stop59" />
			<stop
   offset="0.88"
   style="stop-color:#60CF32"
   id="stop61" />
			<stop
   offset="0.99"
   style="stop-color:#5ECE2F"
   id="stop63" />
		</linearGradient>
		<path
   class="st1"
   d="M77,3.1v35.4H38.5V0h35.4C75.6,0,77,1.4,77,3.1C77,3.1,77,3.1,77,3.1z"
   id="path66" />
		
			<linearGradient
   id="SVGID_3_"
   gradientUnits="userSpaceOnUse"
   x1="0.4468"
   y1="39.9669"
   x2="38.9468"
   y2="1.4668"
   gradientTransform="matrix(1 0 0 -1 0 78)">
			<stop
   offset="1.000000e-02"
   style="stop-color:#5FCE30"
   id="stop68" />
			<stop
   offset="0.16"
   style="stop-color:#5DCD2D"
   id="stop70" />
			<stop
   offset="0.27"
   style="stop-color:#55CA24"
   id="stop72" />
			<stop
   offset="0.36"
   style="stop-color:#47C514"
   id="stop74" />
			<stop
   offset="0.4"
   style="stop-color:#3FC20B"
   id="stop76" />
			<stop
   offset="0.5"
   style="stop-color:#2D8905"
   id="stop78" />
			<stop
   offset="0.55"
   style="stop-color:#2D8C05"
   id="stop80" />
			<stop
   offset="0.58"
   style="stop-color:#2B9504"
   id="stop82" />
			<stop
   offset="0.6"
   style="stop-color:#29A104"
   id="stop84" />
			<stop
   offset="1"
   style="stop-color:#2B9F05"
   id="stop86" />
		</linearGradient>
		<path
   class="st2"
   d="M38.5,38.5V77H3.1C1.4,77,0,75.6,0,73.9c0,0,0,0,0,0V38.5H38.5z"
   id="path89" />
		
			<linearGradient
   id="SVGID_4_"
   gradientUnits="userSpaceOnUse"
   x1="38.0232"
   y1="1.4568"
   x2="76.5032"
   y2="39.9368"
   gradientTransform="matrix(1 0 0 -1 0 78)">
			<stop
   offset="0"
   style="stop-color:#2B9F05"
   id="stop91" />
			<stop
   offset="0.4"
   style="stop-color:#29A104"
   id="stop93" />
			<stop
   offset="0.42"
   style="stop-color:#2B9504"
   id="stop95" />
			<stop
   offset="0.45"
   style="stop-color:#2D8C05"
   id="stop97" />
			<stop
   offset="0.5"
   style="stop-color:#2D8905"
   id="stop99" />
			<stop
   offset="0.6"
   style="stop-color:#3FC20B"
   id="stop101" />
			<stop
   offset="0.64"
   style="stop-color:#47C514"
   id="stop103" />
			<stop
   offset="0.73"
   style="stop-color:#55CA24"
   id="stop105" />
			<stop
   offset="0.84"
   style="stop-color:#5DCD2D"
   id="stop107" />
			<stop
   offset="0.99"
   style="stop-color:#5FCE30"
   id="stop109" />
		</linearGradient>
		<path
   class="st3"
   d="M77,38.5v35.4c0,1.7-1.4,3.1-3.1,3.2c0,0-0.1,0-0.1,0H38.5V38.5H77z"
   id="path112" />
		
			<linearGradient
   id="SVGID_5_"
   gradientUnits="userSpaceOnUse"
   x1="38.48"
   y1="6.76"
   x2="38.48"
   y2="72.28"
   gradientTransform="matrix(1 0 0 -1 0 78)">
			<stop
   offset="0"
   style="stop-color:#71BB52"
   id="stop114" />
			<stop
   offset="0.3"
   style="stop-color:#8ED571"
   id="stop116" />
			<stop
   offset="0.58"
   style="stop-color:#A4E988"
   id="stop118" />
			<stop
   offset="0.76"
   style="stop-color:#ACF091"
   id="stop120" />
		</linearGradient>
		<path
   class="st4"
   d="M71.2,38.5L71.2,38.5c0,18.1-14.7,32.8-32.8,32.8l0,0c-18.1,0-32.8-14.7-32.8-32.8l0,0    c0-18.1,14.7-32.8,32.8-32.8l0,0C56.6,5.7,71.2,20.4,71.2,38.5z"
   id="path123" />
		
			<linearGradient
   id="SVGID_6_"
   gradientUnits="userSpaceOnUse"
   x1="38.48"
   y1="68.38"
   x2="38.48"
   y2="12.1"
   gradientTransform="matrix(1 0 0 -1 0 78)">
			<stop
   offset="0"
   style="stop-color:#378814"
   id="stop125" />
			<stop
   offset="0.3"
   style="stop-color:#57A934"
   id="stop127" />
			<stop
   offset="0.47"
   style="stop-color:#73C650"
   id="stop129" />
			<stop
   offset="0.65"
   style="stop-color:#8ADD67"
   id="stop131" />
			<stop
   offset="0.76"
   style="stop-color:#92E670"
   id="stop133" />
		</linearGradient>
		<path
   class="st5"
   d="M38.5,6.8L38.5,6.8C56,6.8,70.2,21,70.2,38.5v0C70.2,56,56,70.2,38.5,70.2h0C21,70.2,6.8,56,6.8,38.5v0    C6.8,21,21,6.8,38.5,6.8z"
   id="path136" />
		<path
   class="st6"
   d="M44.5,24.2c-1.6,0-2.8,1.3-2.9,2.8v22.9c0,1.6,1.3,2.9,2.9,2.9s2.9-1.3,2.9-2.9V27    C47.3,25.4,46,24.2,44.5,24.2z"
   id="path138" />
		<path
   class="st6"
   d="M32.5,24.2c-1.6,0-2.8,1.3-2.9,2.8v22.9c0,1.6,1.3,2.9,2.9,2.9c1.6,0,2.9-1.3,2.9-2.9V27    C35.3,25.4,34.1,24.2,32.5,24.2z"
   id="path140" />
		<path
   class="st7"
   d="M47.3,49.4v0.5c0,1.6-1.3,2.9-2.9,2.9s-2.9-1.3-2.9-2.9v-0.5c0,1.6,1.3,2.9,2.9,2.9S47.3,51,47.3,49.4z"
   id="path142" />
		<path
   class="st7"
   d="M35.4,49.4v0.5c0,1.6-1.3,2.9-2.9,2.9c-1.6,0-2.9-1.3-2.9-2.9v-0.5c0,1.6,1.3,2.9,2.9,2.9    C34.1,52.3,35.4,51,35.4,49.4C35.4,49.4,35.4,49.4,35.4,49.4z"
   id="path144" />
		<path
   class="st8"
   d="M47.3,27v1c0-1.6-1.3-2.9-2.9-2.9s-2.9,1.3-2.9,2.9v-1c0-1.6,1.3-2.9,2.9-2.9S47.3,25.4,47.3,27z"
   id="path146" />
		<path
   class="st8"
   d="M35.4,27v1c0-1.6-1.3-2.9-2.9-2.9c-1.6,0-2.9,1.3-2.9,2.9v-1c0-1.6,1.3-2.9,2.9-2.9    C34.1,24.1,35.4,25.4,35.4,27z"
   id="path148" />
	</g>
</g>
</svg>
