<?xml version="1.0" encoding="UTF-8" standalone="no"?>
<svg
   xmlns:dc="http://purl.org/dc/elements/1.1/"
   xmlns:cc="http://creativecommons.org/ns#"
   xmlns:rdf="http://www.w3.org/1999/02/22-rdf-syntax-ns#"
   xmlns:svg="http://www.w3.org/2000/svg"
   xmlns="http://www.w3.org/2000/svg"
   xmlns:sodipodi="http://sodipodi.sourceforge.net/DTD/sodipodi-0.dtd"
   xmlns:inkscape="http://www.inkscape.org/namespaces/inkscape"
   version="1.1"
   id="图层_1"
   x="0px"
   y="0px"
   viewBox="0 0 73.1 73.8"
   style="enable-background:new 0 0 73.1 73.8;"
   xml:space="preserve"
   sodipodi:docname="立体按钮一_57.svg"><metadata
   id="metadata101"><rdf:RDF><cc:Work
       rdf:about=""><dc:format>image/svg+xml</dc:format><dc:type
         rdf:resource="http://purl.org/dc/dcmitype/StillImage" /></cc:Work></rdf:RDF></metadata><defs
   id="defs99" /><sodipodi:namedview
   pagecolor="#ffffff"
   bordercolor="#666666"
   borderopacity="1"
   objecttolerance="10"
   gridtolerance="10"
   guidetolerance="10"
   inkscape:pageopacity="0"
   inkscape:pageshadow="2"
   inkscape:window-width="640"
   inkscape:window-height="480"
   id="namedview97" />
<style
   type="text/css"
   id="style2">
	.st0{fill:url(#SVGID_1_);}
	.st1{fill:#E8E7E6;}
	.st2{fill:#6F6C6A;}
	.st3{fill:url(#SVGID_2_);}
	.st4{fill:#BBBBBB;}
	.st5{fill:url(#SVGID_3_);}
	.st6{fill:url(#SVGID_4_);}
	.st7{fill:#858585;}
	.st8{fill:url(#SVGID_5_);}
	.st9{fill:url(#SVGID_6_);}
</style>
<title
   id="title4">资源 57</title>
<g
   id="图层_2_1_">
	<g
   id="图层_1-2">
		
			<linearGradient
   id="SVGID_1_"
   gradientUnits="userSpaceOnUse"
   x1="36.535"
   y1="2.93"
   x2="36.535"
   y2="76"
   gradientTransform="matrix(1 0 0 -1 0 76)">
			<stop
   offset="0"
   style="stop-color:#999694"
   id="stop6" />
			<stop
   offset="0.5"
   style="stop-color:#CAC8C5"
   id="stop8" />
			<stop
   offset="0.54"
   style="stop-color:#D0CECC"
   id="stop10" />
			<stop
   offset="0.84"
   style="stop-color:#F8F8F7"
   id="stop12" />
			<stop
   offset="1"
   style="stop-color:#FFFFFF"
   id="stop14" />
		</linearGradient>
		<path
   class="st0"
   d="M18.5,0h36.1c10.2,0,18.5,8.3,18.5,18.5v36.1c0,10.2-8.3,18.5-18.5,18.5H18.5C8.3,73.1,0,64.8,0,54.6V18.5    C0,8.3,8.3,0,18.5,0z"
   id="path17" />
		<path
   class="st1"
   d="M73.1,18.7v0.5c0-10.3-8.4-18.7-18.7-18.7H18.7C8.4,0.5,0,8.9,0,19.2v-0.5C0,8.4,8.4,0,18.7,0c0,0,0,0,0,0    h35.6C64.7,0,73.1,8.4,73.1,18.7C73.1,18.7,73.1,18.7,73.1,18.7z"
   id="path19" />
		<path
   class="st2"
   d="M73.1,54.3V55c0,10.3-8.4,18.7-18.7,18.7c0,0,0,0,0,0H18.7C8.4,73.8,0,65.4,0,55c0,0,0,0,0,0v-0.7    c0,10.3,8.4,18.7,18.7,18.7c0,0,0,0,0,0h35.6C64.7,73.1,73.1,64.7,73.1,54.3C73.1,54.4,73.1,54.3,73.1,54.3z"
   id="path21" />
		
			<linearGradient
   id="SVGID_2_"
   gradientUnits="userSpaceOnUse"
   x1="36.54"
   y1="12.72"
   x2="36.54"
   y2="66.2"
   gradientTransform="matrix(1 0 0 -1 0 76)">
			<stop
   offset="1.000000e-02"
   style="stop-color:#FBFAFA"
   id="stop23" />
			<stop
   offset="1"
   style="stop-color:#B9B9B9"
   id="stop25" />
		</linearGradient>
		<circle
   class="st3"
   cx="36.5"
   cy="36.5"
   r="26.7"
   id="circle28" />
		<path
   class="st4"
   d="M63.3,36.5v0.4C63,22.2,50.8,10.4,36,10.7C21.7,11,10.1,22.6,9.8,36.9v-0.4C9.5,21.8,21.3,9.6,36,9.3    C50.8,9,63,20.7,63.3,35.5C63.3,35.9,63.3,36.2,63.3,36.5z"
   id="path30" />
		
			<radialGradient
   id="SVGID_3_"
   cx="36.54"
   cy="39.46"
   r="24.21"
   gradientTransform="matrix(1 0 0 -1 0 76)"
   gradientUnits="userSpaceOnUse">
			<stop
   offset="1.000000e-02"
   style="stop-color:#FFF7E0"
   id="stop32" />
			<stop
   offset="0.17"
   style="stop-color:#DEDEDE"
   id="stop34" />
			<stop
   offset="0.5"
   style="stop-color:#CFCFCF"
   id="stop36" />
			<stop
   offset="0.83"
   style="stop-color:#BBBBBB"
   id="stop38" />
			<stop
   offset="0.92"
   style="stop-color:#9D9D9D"
   id="stop40" />
			<stop
   offset="1"
   style="stop-color:#767676"
   id="stop42" />
		</radialGradient>
		<circle
   class="st5"
   cx="36.5"
   cy="36.5"
   r="24.2"
   id="circle45" />
		
			<linearGradient
   id="SVGID_4_"
   gradientUnits="userSpaceOnUse"
   x1="27.6024"
   y1="23.9786"
   x2="47.3548"
   y2="58.1929"
   gradientTransform="matrix(1 0 0 -1 0 76)">
			<stop
   offset="0"
   style="stop-color:#BEBEBE"
   id="stop47" />
			<stop
   offset="0.15"
   style="stop-color:#C3C3C3"
   id="stop49" />
			<stop
   offset="0.33"
   style="stop-color:#D1D1D1"
   id="stop51" />
			<stop
   offset="0.4"
   style="stop-color:#D8D8D8"
   id="stop53" />
			<stop
   offset="1"
   style="stop-color:#DADADA"
   id="stop55" />
		</linearGradient>
		<circle
   class="st6"
   cx="36.5"
   cy="36.5"
   r="19.8"
   id="circle58" />
		<path
   class="st7"
   d="M56.3,37.8C56.5,48.7,47.9,57.7,37,58C26.1,58.2,17,49.6,16.8,38.7c0-0.3,0-0.6,0-0.9c0-0.2,0-0.4,0-0.6    c0.4,10.9,9.6,19.4,20.5,19c10.3-0.4,18.6-8.7,19-19C56.3,37.4,56.3,37.6,56.3,37.8z"
   id="path60" />
		
			<linearGradient
   id="SVGID_5_"
   gradientUnits="userSpaceOnUse"
   x1="36.5351"
   y1="47.88"
   x2="36.5351"
   y2="28.49"
   gradientTransform="matrix(1 0 0 -1 0 76)">
			<stop
   offset="1.000000e-02"
   style="stop-color:#F8F7F8"
   id="stop62" />
			<stop
   offset="0.12"
   style="stop-color:#EAEAEA"
   id="stop64" />
			<stop
   offset="0.33"
   style="stop-color:#C7C7C7"
   id="stop66" />
			<stop
   offset="0.43"
   style="stop-color:#B3B3B3"
   id="stop68" />
			<stop
   offset="0.67"
   style="stop-color:#D1D1D1"
   id="stop70" />
			<stop
   offset="1"
   style="stop-color:#F6F6F6"
   id="stop72" />
		</linearGradient>
		<path
   class="st8"
   d="M36.5,48.5c-6.2,0-11.2-5-11.2-11.2c0-3.3,1.5-6.5,4-8.6c0.6-0.5,1.5-0.5,2,0.1s0.5,1.5-0.1,2    c0,0-0.1,0.1-0.1,0.1c-3.5,2.9-4,8.2-1.1,11.7s8.2,4,11.7,1.1s4-8.2,1.1-11.7c-0.3-0.4-0.7-0.8-1.1-1.1c-0.6-0.5-0.6-1.5-0.1-2    c0.5-0.6,1.4-0.6,2-0.2c4.8,4,5.4,11,1.5,15.8C43,47,39.9,48.5,36.5,48.5z"
   id="path75" />
		
			<linearGradient
   id="SVGID_6_"
   gradientUnits="userSpaceOnUse"
   x1="36.635"
   y1="35.76"
   x2="36.635"
   y2="52.49"
   gradientTransform="matrix(1 0 0 -1 0 76)">
			<stop
   offset="1.000000e-02"
   style="stop-color:#D4D4D4"
   id="stop77" />
			<stop
   offset="0.44"
   style="stop-color:#FBFBFB"
   id="stop79" />
			<stop
   offset="1"
   style="stop-color:#FBFBFB"
   id="stop81" />
		</linearGradient>
		<path
   class="st9"
   d="M36.6,40.2c-0.8,0-1.4-0.6-1.4-1.4c0,0,0,0,0,0V25c0.1-0.8,0.8-1.4,1.6-1.3c0.7,0.1,1.3,0.6,1.3,1.3v13.8    C38.1,39.6,37.4,40.2,36.6,40.2C36.7,40.2,36.6,40.2,36.6,40.2z"
   id="path84" />
		<path
   class="st7"
   d="M47.7,37.8c0.2,6.2-4.7,11.4-10.9,11.5s-11.4-4.7-11.5-10.9c0-0.2,0-0.4,0-0.7c0-0.1,0-0.2,0-0.2    c0,6.2,5,11.2,11.2,11.2s11.2-5,11.2-11.2L47.7,37.8z"
   id="path86" />
		<path
   class="st7"
   d="M28.2,37.6c0-0.1,0-0.2,0-0.3c0-2.5,1.1-4.8,3-6.4c0.3-0.2,0.4-0.5,0.5-0.8c0.1,0.5-0.1,1-0.5,1.4    C29.4,32.9,28.3,35.2,28.2,37.6z"
   id="path88" />
		<path
   class="st7"
   d="M41.3,30c0.1,0.3,0.2,0.6,0.5,0.8c1.9,1.6,3,3.9,3,6.4c0,0.1,0,0.2,0,0.3c-0.1-2.4-1.2-4.6-3-6.1    C41.4,31.1,41.2,30.6,41.3,30z"
   id="path90" />
		<path
   class="st7"
   d="M38.1,38.4v0.5c0.1,0.8-0.5,1.5-1.3,1.6c-0.8,0.1-1.5-0.5-1.6-1.3c0-0.1,0-0.2,0-0.2v-0.5    c-0.1,0.8,0.5,1.5,1.3,1.6c0.8,0.1,1.5-0.5,1.6-1.3C38.1,38.5,38.1,38.4,38.1,38.4z"
   id="path92" />
	</g>
</g>
</svg>
