<?xml version="1.0" encoding="UTF-8" standalone="no"?>
<svg
   xmlns:dc="http://purl.org/dc/elements/1.1/"
   xmlns:cc="http://creativecommons.org/ns#"
   xmlns:rdf="http://www.w3.org/1999/02/22-rdf-syntax-ns#"
   xmlns:svg="http://www.w3.org/2000/svg"
   xmlns="http://www.w3.org/2000/svg"
   xmlns:sodipodi="http://sodipodi.sourceforge.net/DTD/sodipodi-0.dtd"
   xmlns:inkscape="http://www.inkscape.org/namespaces/inkscape"
   version="1.1"
   id="图层_1"
   x="0px"
   y="0px"
   viewBox="0 0 160 59.2"
   style="enable-background:new 0 0 160 59.2;"
   xml:space="preserve"
   sodipodi:docname="立体按钮一_6.svg"><metadata
   id="metadata45"><rdf:RDF><cc:Work
       rdf:about=""><dc:format>image/svg+xml</dc:format><dc:type
         rdf:resource="http://purl.org/dc/dcmitype/StillImage" /></cc:Work></rdf:RDF></metadata><defs
   id="defs43" /><sodipodi:namedview
   pagecolor="#ffffff"
   bordercolor="#666666"
   borderopacity="1"
   objecttolerance="10"
   gridtolerance="10"
   guidetolerance="10"
   inkscape:pageopacity="0"
   inkscape:pageshadow="2"
   inkscape:window-width="640"
   inkscape:window-height="480"
   id="namedview41" />
<style
   type="text/css"
   id="style2">
	.st0{fill:url(#SVGID_1_);}
	.st1{fill:url(#SVGID_2_);}
	.st2{fill:#B4B4B8;}
	.st3{fill:url(#SVGID_3_);}
	.st4{fill:url(#SVGID_4_);}
</style>
<title
   id="title4">资源 6</title>
<g
   id="图层_2_1_">
	<g
   id="图层_1-2">
		
			<linearGradient
   id="SVGID_1_"
   gradientUnits="userSpaceOnUse"
   x1="30.0825"
   y1="82.3225"
   x2="130.2625"
   y2="-17.8575"
   gradientTransform="matrix(1 0 0 -1 0 62)">
			<stop
   offset="0"
   style="stop-color:#E0EEFF"
   id="stop6" />
			<stop
   offset="1"
   style="stop-color:#676872"
   id="stop8" />
		</linearGradient>
		<path
   class="st0"
   d="M14.8,0h130.4c8.2,0,14.8,6.6,14.8,14.8v29.6c0,8.2-6.6,14.8-14.8,14.8H14.8C6.6,59.2,0,52.6,0,44.4V14.8    C0,6.6,6.6,0,14.8,0z"
   id="path11" />
		
			<linearGradient
   id="SVGID_2_"
   gradientUnits="userSpaceOnUse"
   x1="143.2104"
   y1="-30.7996"
   x2="34.5304"
   y2="77.8704"
   gradientTransform="matrix(1 0 0 -1 0 62)">
			<stop
   offset="0"
   style="stop-color:#E0EEFF"
   id="stop13" />
			<stop
   offset="1"
   style="stop-color:#676872"
   id="stop15" />
		</linearGradient>
		<path
   class="st1"
   d="M16.6,2.9h126.8c7.5,0,13.6,6.1,13.6,13.6v26c0,7.5-6.1,13.7-13.6,13.7H16.6C9,56.3,2.9,50.1,2.9,42.6v-26    C2.9,9,9,2.9,16.6,2.9z"
   id="path18" />
		<path
   class="st2"
   d="M145.3,56.4H14.7c-6.6,0-12-5.4-12-12V14.7c0-6.6,5.4-12,12-12h130.5c6.6,0,12,5.4,12,12v29.7    C157.3,51.1,151.9,56.4,145.3,56.4z M14.7,3.1C8.3,3.1,3.1,8.3,3.1,14.7v29.7c0,6.4,5.2,11.6,11.6,11.6h130.5    c6.4,0,11.6-5.2,11.6-11.6V14.7c0-6.4-5.2-11.6-11.6-11.6H14.7z"
   id="path20" />
		
			<linearGradient
   id="SVGID_3_"
   gradientUnits="userSpaceOnUse"
   x1="80"
   y1="65.18"
   x2="80"
   y2="10.25"
   gradientTransform="matrix(1 0 0 -1 0 62)">
			<stop
   offset="0"
   style="stop-color:#E0EEFF"
   id="stop22" />
			<stop
   offset="1"
   style="stop-color:#676872"
   id="stop24" />
		</linearGradient>
		<path
   class="st3"
   d="M16.3,7.2h127.4c5,0,9.1,4.1,9.1,9.1v26.6c0,5-4.1,9.1-9.1,9.1H16.3c-5,0-9.1-4.1-9.1-9.1V16.3    C7.2,11.3,11.3,7.2,16.3,7.2z"
   id="path27" />
		
			<linearGradient
   id="SVGID_4_"
   gradientUnits="userSpaceOnUse"
   x1="79.995"
   y1="53.2"
   x2="79.995"
   y2="11.19"
   gradientTransform="matrix(1 0 0 -1 0 62)">
			<stop
   offset="0"
   style="stop-color:#FEFEFE"
   id="stop29" />
			<stop
   offset="0.97"
   style="stop-color:#E8E8E8"
   id="stop31" />
			<stop
   offset="1"
   style="stop-color:#FFFFFF"
   id="stop33" />
		</linearGradient>
		<path
   class="st4"
   d="M16.3,8.4h127.3c4.4,0,8,3.6,8,8v26.5c0,4.4-3.6,8-8,8H16.3c-4.4,0-8-3.6-8-8V16.3    C8.4,11.9,11.9,8.4,16.3,8.4z"
   id="path36" />
	</g>
</g>
</svg>
