<?xml version="1.0" encoding="UTF-8" standalone="no"?>
<svg
   xmlns:dc="http://purl.org/dc/elements/1.1/"
   xmlns:cc="http://creativecommons.org/ns#"
   xmlns:rdf="http://www.w3.org/1999/02/22-rdf-syntax-ns#"
   xmlns:svg="http://www.w3.org/2000/svg"
   xmlns="http://www.w3.org/2000/svg"
   xmlns:sodipodi="http://sodipodi.sourceforge.net/DTD/sodipodi-0.dtd"
   xmlns:inkscape="http://www.inkscape.org/namespaces/inkscape"
   version="1.1"
   id="图层_1"
   x="0px"
   y="0px"
   viewBox="0 0 134.2 47.6"
   style="enable-background:new 0 0 134.2 47.6;"
   xml:space="preserve"
   sodipodi:docname="立体按钮一_62.svg"><metadata
   id="metadata110"><rdf:RDF><cc:Work
       rdf:about=""><dc:format>image/svg+xml</dc:format><dc:type
         rdf:resource="http://purl.org/dc/dcmitype/StillImage" /></cc:Work></rdf:RDF></metadata><defs
   id="defs108" /><sodipodi:namedview
   pagecolor="#ffffff"
   bordercolor="#666666"
   borderopacity="1"
   objecttolerance="10"
   gridtolerance="10"
   guidetolerance="10"
   inkscape:pageopacity="0"
   inkscape:pageshadow="2"
   inkscape:window-width="640"
   inkscape:window-height="480"
   id="namedview106" />
<style
   type="text/css"
   id="style2">
	.st0{fill:#002A4C;}
	.st1{fill:#00101E;}
	.st2{fill:url(#SVGID_1_);}
	.st3{fill:url(#SVGID_2_);}
	.st4{fill:url(#SVGID_3_);}
	.st5{fill:url(#SVGID_4_);}
	.st6{fill:url(#SVGID_5_);}
	.st7{fill:url(#SVGID_6_);}
	.st8{fill:url(#SVGID_7_);}
</style>
<title
   id="title4">资源 62</title>
<g
   id="图层_2_1_">
	<g
   id="图层_1-2">
		<path
   class="st0"
   d="M10.4,10.1h93c5.7,0,10.4,4.6,10.4,10.4V30c0,5.7-4.6,10.4-10.4,10.4h-93C4.6,40.4,0,35.8,0,30v-9.6    C0,14.8,4.6,10.1,10.4,10.1z"
   id="path6" />
		<path
   class="st1"
   d="M10.4,7.2h93c5.7,0,10.4,4.6,10.4,10.4v9.6c0,5.7-4.6,10.4-10.4,10.4h-93C4.6,37.5,0,32.8,0,27.1v-9.6    C0,11.8,4.6,7.2,10.4,7.2z"
   id="path8" />
		
			<radialGradient
   id="SVGID_1_"
   cx="81.311"
   cy="26.6"
   r="50.87"
   gradientTransform="matrix(0.98 0 0 -1 -22.8 50)"
   gradientUnits="userSpaceOnUse">
			<stop
   offset="0"
   style="stop-color:#1796FF"
   id="stop10" />
			<stop
   offset="1"
   style="stop-color:#004378"
   id="stop12" />
		</radialGradient>
		<path
   class="st2"
   d="M10.7,8.3h92.6c5.3,0,9.5,4.3,9.5,9.5V29c0,5.3-4.3,9.5-9.5,9.5H10.7c-5.3,0-9.5-4.3-9.5-9.5V17.8    C1.2,12.5,5.4,8.3,10.7,8.3z"
   id="path15" />
		
			<linearGradient
   id="SVGID_2_"
   gradientUnits="userSpaceOnUse"
   x1="57.36"
   y1="45.24"
   x2="57.36"
   y2="31.26"
   gradientTransform="matrix(1 0 0 -1 0 50)">
			<stop
   offset="0"
   style="stop-color:#FFFFFF"
   id="stop17" />
			<stop
   offset="1"
   style="stop-color:#FFFFFF;stop-opacity:0"
   id="stop19" />
		</linearGradient>
		<path
   class="st3"
   d="M110.8,12.4c-1.9-2.6-4.9-4.2-8.2-4.2H11.4c-2.9,0-5.6,1.2-7.5,3.3c1.1,4.6,5.2,7.9,9.9,7.9h87.4    C105.6,19.5,109.5,16.6,110.8,12.4z"
   id="path22" />
		
			<linearGradient
   id="SVGID_3_"
   gradientUnits="userSpaceOnUse"
   x1="110.4156"
   y1="-12.58"
   x2="110.4156"
   y2="42.96"
   gradientTransform="matrix(1 0 0 -1 0 50)">
			<stop
   offset="0"
   style="stop-color:#FFFFFF"
   id="stop24" />
			<stop
   offset="0.11"
   style="stop-color:#F8F8F8"
   id="stop26" />
			<stop
   offset="0.26"
   style="stop-color:#E5E5E6"
   id="stop28" />
			<stop
   offset="0.45"
   style="stop-color:#C5C6C8"
   id="stop30" />
			<stop
   offset="0.65"
   style="stop-color:#989B9E"
   id="stop32" />
			<stop
   offset="0.88"
   style="stop-color:#606469"
   id="stop34" />
			<stop
   offset="1"
   style="stop-color:#3E4249"
   id="stop36" />
		</linearGradient>
		<path
   class="st4"
   d="M111.2,25.9c-9.7,0-18.2-3.6-23.5-9.2c-3.9,12.5,3,25.9,15.6,29.8s25.9-3,29.8-15.6c1.3-4.2,1.4-8.7,0.4-13    C128.1,22.8,120.2,25.9,111.2,25.9z"
   id="path39" />
		
			<linearGradient
   id="SVGID_4_"
   gradientUnits="userSpaceOnUse"
   x1="110.595"
   y1="67.71"
   x2="110.595"
   y2="0.16"
   gradientTransform="matrix(1 0 0 -1 0 50)">
			<stop
   offset="0"
   style="stop-color:#FFFFFF"
   id="stop41" />
			<stop
   offset="0.17"
   style="stop-color:#F8F8F9"
   id="stop43" />
			<stop
   offset="0.41"
   style="stop-color:#E5E5E7"
   id="stop45" />
			<stop
   offset="0.7"
   style="stop-color:#C7C5CA"
   id="stop47" />
			<stop
   offset="1"
   style="stop-color:#9F9CA4"
   id="stop49" />
		</linearGradient>
		<path
   class="st5"
   d="M111.2,25.9c8.9,0,16.9-3.1,22.3-8c-3.3-12.7-16.2-20.4-29-17.1c-8,2-14.3,8.1-16.8,15.9    C93,22.2,101.6,25.9,111.2,25.9z"
   id="path52" />
		
			<radialGradient
   id="SVGID_5_"
   cx="110.42"
   cy="26.21"
   r="20.42"
   gradientTransform="matrix(1 0 0 -1 0 50)"
   gradientUnits="userSpaceOnUse">
			<stop
   offset="0"
   style="stop-color:#FFFFFF"
   id="stop54" />
			<stop
   offset="0.29"
   style="stop-color:#FDFDFD"
   id="stop56" />
			<stop
   offset="0.44"
   style="stop-color:#F5F5F6"
   id="stop58" />
			<stop
   offset="0.55"
   style="stop-color:#E8E8E9"
   id="stop60" />
			<stop
   offset="0.65"
   style="stop-color:#D5D6D8"
   id="stop62" />
			<stop
   offset="0.74"
   style="stop-color:#BDBEC1"
   id="stop64" />
			<stop
   offset="0.82"
   style="stop-color:#9FA0A5"
   id="stop66" />
			<stop
   offset="0.89"
   style="stop-color:#7B7D84"
   id="stop68" />
			<stop
   offset="0.96"
   style="stop-color:#53555E"
   id="stop70" />
			<stop
   offset="1"
   style="stop-color:#363943"
   id="stop72" />
		</radialGradient>
		<circle
   class="st6"
   cx="110.4"
   cy="23.8"
   r="20.4"
   id="circle75" />
		
			<radialGradient
   id="SVGID_6_"
   cx="-2238.7979"
   cy="-678.1766"
   r="18.8539"
   gradientTransform="matrix(-0.299 0.9542 0.9542 0.299 88.0056 2362.98)"
   gradientUnits="userSpaceOnUse">
			<stop
   offset="0"
   style="stop-color:#2FB5FF"
   id="stop77" />
			<stop
   offset="0.16"
   style="stop-color:#2EB2FB"
   id="stop79" />
			<stop
   offset="0.31"
   style="stop-color:#2BA9F0"
   id="stop81" />
			<stop
   offset="0.45"
   style="stop-color:#269BDD"
   id="stop83" />
			<stop
   offset="0.6"
   style="stop-color:#1F86C2"
   id="stop85" />
			<stop
   offset="0.74"
   style="stop-color:#166CA0"
   id="stop87" />
			<stop
   offset="0.87"
   style="stop-color:#0C4C77"
   id="stop89" />
			<stop
   offset="1"
   style="stop-color:#002A4A"
   id="stop91" />
		</radialGradient>
		<circle
   class="st7"
   cx="110.4"
   cy="23.8"
   r="18.9"
   id="circle94" />
		
			<linearGradient
   id="SVGID_7_"
   gradientUnits="userSpaceOnUse"
   x1="-1999.0367"
   y1="40.4918"
   x2="-1999.0367"
   y2="25.9117"
   gradientTransform="matrix(0.3469 0.9379 0.9379 -0.3469 784.3989 1906.2983)">
			<stop
   offset="0"
   style="stop-color:#FFFFFF"
   id="stop96" />
			<stop
   offset="1"
   style="stop-color:#FFFFFF;stop-opacity:0"
   id="stop98" />
		</linearGradient>
		<path
   class="st8"
   d="M124.5,14.5c2.8,3.7,3.6,8.5,2.4,13c-1.1,3.7-4,7.2-7.8,7.6c-1.1-1.8-1.3-4-0.8-6c0.4-2,1.2-4,1.6-6    s0-4.4-1.4-5.8c-1.2-1-2.5-1.7-3.9-2.1c-1.4-0.5-2.6-1.5-3.3-2.8c-1.5-4.1,3.8-3.7,6-3C120.1,10.3,122.6,12.1,124.5,14.5z"
   id="path101" />
	</g>
</g>
</svg>
