<?xml version="1.0" encoding="UTF-8" standalone="no"?>
<svg
   xmlns:dc="http://purl.org/dc/elements/1.1/"
   xmlns:cc="http://creativecommons.org/ns#"
   xmlns:rdf="http://www.w3.org/1999/02/22-rdf-syntax-ns#"
   xmlns:svg="http://www.w3.org/2000/svg"
   xmlns="http://www.w3.org/2000/svg"
   xmlns:sodipodi="http://sodipodi.sourceforge.net/DTD/sodipodi-0.dtd"
   xmlns:inkscape="http://www.inkscape.org/namespaces/inkscape"
   version="1.1"
   id="图层_1"
   x="0px"
   y="0px"
   viewBox="0 0 88.1 33.6"
   style="enable-background:new 0 0 88.1 33.6;"
   xml:space="preserve"
   sodipodi:docname="立体按钮一_72.svg"><metadata
   id="metadata35"><rdf:RDF><cc:Work
       rdf:about=""><dc:format>image/svg+xml</dc:format><dc:type
         rdf:resource="http://purl.org/dc/dcmitype/StillImage" /></cc:Work></rdf:RDF></metadata><defs
   id="defs33" /><sodipodi:namedview
   pagecolor="#ffffff"
   bordercolor="#666666"
   borderopacity="1"
   objecttolerance="10"
   gridtolerance="10"
   guidetolerance="10"
   inkscape:pageopacity="0"
   inkscape:pageshadow="2"
   inkscape:window-width="640"
   inkscape:window-height="480"
   id="namedview31" />
<style
   type="text/css"
   id="style2">
	.st0{fill:url(#SVGID_1_);}
	.st1{fill:url(#SVGID_2_);}
</style>
<title
   id="title4">资源 72</title>
<g
   id="图层_2_1_">
	<g
   id="图层_1-2">
		
			<linearGradient
   id="SVGID_1_"
   gradientUnits="userSpaceOnUse"
   x1="44.05"
   y1="33"
   x2="44.05"
   y2="5.41"
   gradientTransform="matrix(1 0 0 -1 0 36)">
			<stop
   offset="0"
   style="stop-color:#E61F19"
   id="stop6" />
			<stop
   offset="0.31"
   style="stop-color:#E61F19"
   id="stop8" />
			<stop
   offset="0.66"
   style="stop-color:#A11F24"
   id="stop10" />
			<stop
   offset="1"
   style="stop-color:#812428"
   id="stop12" />
		</linearGradient>
		<path
   class="st0"
   d="M16.7,3h54.7C79,3,85.1,9.1,85.1,16.7v7.1c0,3.7-3,6.8-6.8,6.8H9.8c-3.7,0-6.8-3-6.8-6.8v-7.1    C3,9.1,9.1,3,16.7,3C16.7,3,16.7,3,16.7,3z"
   id="path15" />
		
			<linearGradient
   id="SVGID_2_"
   gradientUnits="userSpaceOnUse"
   x1="44.05"
   y1="2.4"
   x2="44.05"
   y2="36"
   gradientTransform="matrix(1 0 0 -1 0 36)">
			<stop
   offset="0"
   style="stop-color:#E61F19"
   id="stop17" />
			<stop
   offset="0.31"
   style="stop-color:#E61F19"
   id="stop19" />
			<stop
   offset="0.66"
   style="stop-color:#A11F24"
   id="stop21" />
			<stop
   offset="1"
   style="stop-color:#AC1F22"
   id="stop23" />
		</linearGradient>
		<path
   class="st1"
   d="M78.3,33.6H9.8c-5.4,0-9.8-4.4-9.8-9.8v-7.1C0,7.5,7.5,0,16.7,0h54.7c9.2,0,16.7,7.5,16.7,16.7v7.1    C88.1,29.2,83.7,33.6,78.3,33.6z M16.7,6C10.8,6,6,10.8,6,16.7l0,0v7.1c0,2.1,1.7,3.8,3.8,3.8h68.6c2.1,0,3.8-1.7,3.8-3.8v-7.1    C82.1,10.8,77.3,6,71.4,6H16.7z"
   id="path26" />
	</g>
</g>
</svg>
