<?xml version="1.0" encoding="UTF-8" standalone="no"?>
<svg
   xmlns:dc="http://purl.org/dc/elements/1.1/"
   xmlns:cc="http://creativecommons.org/ns#"
   xmlns:rdf="http://www.w3.org/1999/02/22-rdf-syntax-ns#"
   xmlns:svg="http://www.w3.org/2000/svg"
   xmlns="http://www.w3.org/2000/svg"
   xmlns:sodipodi="http://sodipodi.sourceforge.net/DTD/sodipodi-0.dtd"
   xmlns:inkscape="http://www.inkscape.org/namespaces/inkscape"
   version="1.1"
   id="图层_1"
   x="0px"
   y="0px"
   viewBox="0 0 46.6 48.3"
   style="enable-background:new 0 0 46.6 48.3;"
   xml:space="preserve"
   sodipodi:docname="立体按钮一_86.svg"><metadata
   id="metadata33"><rdf:RDF><cc:Work
       rdf:about=""><dc:format>image/svg+xml</dc:format><dc:type
         rdf:resource="http://purl.org/dc/dcmitype/StillImage" /></cc:Work></rdf:RDF></metadata><defs
   id="defs31" /><sodipodi:namedview
   pagecolor="#ffffff"
   bordercolor="#666666"
   borderopacity="1"
   objecttolerance="10"
   gridtolerance="10"
   guidetolerance="10"
   inkscape:pageopacity="0"
   inkscape:pageshadow="2"
   inkscape:window-width="640"
   inkscape:window-height="480"
   id="namedview29" />
<style
   type="text/css"
   id="style2">
	.st0{fill:url(#SVGID_1_);}
	.st1{fill:url(#SVGID_2_);}
	.st2{fill:#FFFFFF;}
	.st3{opacity:0.4;fill:#FFFFFF;enable-background:new    ;}
</style>
<title
   id="title4">资源 86</title>
<g
   id="g26">
	<g
   id="图层_2_1_">
		<g
   id="图层_1-2">
			
				<linearGradient
   id="SVGID_1_"
   gradientUnits="userSpaceOnUse"
   x1="-3.977749e-05"
   y1="25.8335"
   x2="46.6001"
   y2="25.8335"
   gradientTransform="matrix(1 0 0 -1 0 50)">
				<stop
   offset="0"
   style="stop-color:#69B72D"
   id="stop6" />
				<stop
   offset="1"
   style="stop-color:#007C36"
   id="stop8" />
			</linearGradient>
			<path
   class="st0"
   d="M39.8,41.5c-9.1,9.1-23.8,9.1-32.9,0C2.4,37.1,0,31.2,0,25V8.9C0,4,4,0,8.9,0c0,0,0,0,0,0h28.8     c4.9,0,8.9,4,8.9,8.9V25C46.6,31.2,44.2,37.1,39.8,41.5z"
   id="path11" />
			
				<linearGradient
   id="SVGID_2_"
   gradientUnits="userSpaceOnUse"
   x1="4.68"
   y1="25.84"
   x2="41.91"
   y2="25.84"
   gradientTransform="matrix(1 0 0 -1 0 50)">
				<stop
   offset="0"
   style="stop-color:#007C36"
   id="stop13" />
				<stop
   offset="1"
   style="stop-color:#69B72D"
   id="stop15" />
			</linearGradient>
			<path
   class="st1"
   d="M4.7,23.3C4.7,13,13,4.7,23.3,4.7l0,0c10.3,0,18.6,8.3,18.6,18.6V25c0,10.3-8.3,18.6-18.6,18.6c0,0,0,0,0,0     l0,0C13,43.6,4.7,35.3,4.7,25c0,0,0,0,0,0V23.3z"
   id="path18" />
			<path
   class="st2"
   d="M23.6,39.7h-0.3c-8.1,0-14.6-6.6-14.6-14.6c0,0,0,0,0,0v-1.7c0-8.1,6.6-14.6,14.6-14.6s14.6,6.6,14.6,14.6     V25C38,33,31.6,39.5,23.6,39.7z M23.3,10.1c-7.3,0-13.2,5.9-13.2,13.2V25c0,7.3,5.9,13.2,13.1,13.3h0.1c7.3,0,13.2-5.9,13.2-13.3     v-1.7C36.5,16,30.6,10.1,23.3,10.1z"
   id="path20" />
			<path
   class="st3"
   d="M4.7,25l0.2,1.8c0.1,0.6,0.2,1.2,0.3,1.8s0.3,1.2,0.5,1.7s0.4,1.1,0.7,1.7s0.5,1.1,0.8,1.6s0.6,1,1,1.5     l1.1,1.4l1.2,1.3l1.4,1.2c0.5,0.3,1,0.7,1.4,1s1,0.6,1.5,0.9s1.1,0.5,1.6,0.8s1.1,0.4,1.7,0.6s1.1,0.3,1.7,0.4s1.2,0.2,1.8,0.3     l1.8,0.1L23,43.2l0.3-0.1l1.8-0.1c0.6-0.1,1.2-0.2,1.8-0.3s1.1-0.3,1.7-0.4s1.1-0.4,1.7-0.6s1.1-0.5,1.6-0.8s1-0.6,1.5-0.9     s1-0.7,1.5-1l1.3-1.2l1.2-1.3l1.1-1.4c0.3-0.5,0.7-1,1-1.5s0.5-1.1,0.8-1.6s0.5-1.1,0.7-1.7s0.3-1.2,0.5-1.7s0.2-1.2,0.3-1.8     l0.1-1.8v1.8c-0.1,0.6-0.1,1.2-0.2,1.8s-0.3,1.2-0.4,1.8s-0.4,1.2-0.6,1.8s-0.5,1.1-0.8,1.7s-0.6,1.1-1,1.6s-0.7,1-1.1,1.5     l-1.2,1.4l-1.4,1.3l-1.5,1.1c-0.5,0.3-1.1,0.7-1.6,1s-1.1,0.6-1.7,0.8s-1.2,0.4-1.8,0.6s-1.2,0.3-1.8,0.5S25.8,44,25.1,44     l-1.9,0.1l0.3-0.1l-0.3,0.1L21.4,44c-0.6-0.1-1.2-0.2-1.9-0.3s-1.2-0.3-1.8-0.5s-1.2-0.4-1.8-0.6s-1.1-0.5-1.7-0.8     s-1.1-0.7-1.6-1s-1-0.7-1.5-1.1l-1.4-1.2L8.6,37c-0.4-0.5-0.7-1-1.1-1.5s-0.6-1.1-0.9-1.6s-0.5-1.1-0.8-1.7s-0.4-1.2-0.6-1.8     S5,29.3,4.9,28.7s-0.2-1.2-0.2-1.8L4.7,25z"
   id="path22" />
		</g>
	</g>
</g>
</svg>
