<?xml version="1.0" encoding="UTF-8" standalone="no"?>
<svg
   xmlns:dc="http://purl.org/dc/elements/1.1/"
   xmlns:cc="http://creativecommons.org/ns#"
   xmlns:rdf="http://www.w3.org/1999/02/22-rdf-syntax-ns#"
   xmlns:svg="http://www.w3.org/2000/svg"
   xmlns="http://www.w3.org/2000/svg"
   xmlns:sodipodi="http://sodipodi.sourceforge.net/DTD/sodipodi-0.dtd"
   xmlns:inkscape="http://www.inkscape.org/namespaces/inkscape"
   version="1.1"
   id="图层_1"
   x="0px"
   y="0px"
   viewBox="0 0 51.6 51.6"
   style="enable-background:new 0 0 51.6 51.6;"
   xml:space="preserve"
   sodipodi:docname="立体按钮一_127.svg"><metadata
   id="metadata370"><rdf:RDF><cc:Work
       rdf:about=""><dc:format>image/svg+xml</dc:format><dc:type
         rdf:resource="http://purl.org/dc/dcmitype/StillImage" /></cc:Work></rdf:RDF></metadata><defs
   id="defs368" /><sodipodi:namedview
   pagecolor="#ffffff"
   bordercolor="#666666"
   borderopacity="1"
   objecttolerance="10"
   gridtolerance="10"
   guidetolerance="10"
   inkscape:pageopacity="0"
   inkscape:pageshadow="2"
   inkscape:window-width="640"
   inkscape:window-height="480"
   id="namedview366" />
<style
   type="text/css"
   id="style2">
	.st0{fill:url(#SVGID_1_);}
	.st1{fill:url(#SVGID_2_);}
	.st2{fill:url(#SVGID_3_);}
	.st3{fill:url(#SVGID_4_);}
	.st4{fill:url(#SVGID_5_);}
	.st5{fill:url(#SVGID_6_);}
	.st6{opacity:0.38;fill:url(#SVGID_7_);enable-background:new    ;}
	.st7{opacity:0.18;fill:#F7F8F8;enable-background:new    ;}
	.st8{opacity:6.000000e-02;fill:#F7F8F8;enable-background:new    ;}
	.st9{opacity:0.38;}
	.st10{fill:url(#SVGID_8_);}
	.st11{fill:url(#SVGID_9_);}
	.st12{fill:url(#SVGID_10_);}
	.st13{fill:url(#SVGID_11_);}
	.st14{fill:url(#SVGID_12_);}
	.st15{fill:url(#SVGID_13_);}
	.st16{fill:url(#SVGID_14_);}
	.st17{fill:url(#SVGID_15_);}
	.st18{fill:url(#SVGID_16_);}
	.st19{fill:url(#SVGID_17_);}
	.st20{fill:url(#SVGID_18_);}
	.st21{fill:url(#SVGID_19_);}
</style>
<title
   id="title4">资源 127</title>
<g
   id="g363">
	<g
   id="图层_2_1_">
		<g
   id="图层_1-2">
			
				<linearGradient
   id="SVGID_1_"
   gradientUnits="userSpaceOnUse"
   x1="-5.0902"
   y1="64.8498"
   x2="70.7998"
   y2="-25.1902"
   gradientTransform="matrix(1 0 0 -1 0 54)">
				<stop
   offset="0"
   style="stop-color:#727171"
   id="stop6" />
				<stop
   offset="2.000000e-02"
   style="stop-color:#666565"
   id="stop8" />
				<stop
   offset="5.000000e-02"
   style="stop-color:#5C5A5A"
   id="stop10" />
				<stop
   offset="9.000000e-02"
   style="stop-color:#595757"
   id="stop12" />
				<stop
   offset="0.1"
   style="stop-color:#6A6868"
   id="stop14" />
				<stop
   offset="0.12"
   style="stop-color:#908E8E"
   id="stop16" />
				<stop
   offset="0.15"
   style="stop-color:#B0AFAF"
   id="stop18" />
				<stop
   offset="0.17"
   style="stop-color:#CBCACA"
   id="stop20" />
				<stop
   offset="0.2"
   style="stop-color:#DFDFDF"
   id="stop22" />
				<stop
   offset="0.24"
   style="stop-color:#EEEEEE"
   id="stop24" />
				<stop
   offset="0.28"
   style="stop-color:#F6F6F6"
   id="stop26" />
				<stop
   offset="0.34"
   style="stop-color:#F9F9F9"
   id="stop28" />
				<stop
   offset="0.41"
   style="stop-color:#E1E1E1"
   id="stop30" />
				<stop
   offset="0.55"
   style="stop-color:#A3A2A2"
   id="stop32" />
				<stop
   offset="0.71"
   style="stop-color:#595757"
   id="stop34" />
				<stop
   offset="0.75"
   style="stop-color:#5E5C5C"
   id="stop36" />
				<stop
   offset="0.79"
   style="stop-color:#6E6C6C"
   id="stop38" />
				<stop
   offset="0.85"
   style="stop-color:#878585"
   id="stop40" />
				<stop
   offset="0.9"
   style="stop-color:#AAA9A9"
   id="stop42" />
				<stop
   offset="0.96"
   style="stop-color:#D7D6D6"
   id="stop44" />
				<stop
   offset="1"
   style="stop-color:#FFFFFF"
   id="stop46" />
			</linearGradient>
			<path
   class="st0"
   d="M7.4,0h36.9c4.1,0,7.4,3.3,7.4,7.4v36.9c0,4.1-3.3,7.4-7.4,7.4H7.4c-4.1,0-7.4-3.3-7.4-7.4V7.4     C0,3.3,3.3,0,7.4,0z"
   id="path49" />
			
				<linearGradient
   id="SVGID_2_"
   gradientUnits="userSpaceOnUse"
   x1="-14.9906"
   y1="68.5394"
   x2="77.2394"
   y2="-22.6706"
   gradientTransform="matrix(1 0 0 -1 0 54)">
				<stop
   offset="0"
   style="stop-color:#727171"
   id="stop51" />
				<stop
   offset="2.000000e-02"
   style="stop-color:#666565"
   id="stop53" />
				<stop
   offset="5.000000e-02"
   style="stop-color:#5C5A5A"
   id="stop55" />
				<stop
   offset="9.000000e-02"
   style="stop-color:#595757"
   id="stop57" />
				<stop
   offset="0.1"
   style="stop-color:#6A6868"
   id="stop59" />
				<stop
   offset="0.12"
   style="stop-color:#908E8E"
   id="stop61" />
				<stop
   offset="0.15"
   style="stop-color:#B0AFAF"
   id="stop63" />
				<stop
   offset="0.17"
   style="stop-color:#CBCACA"
   id="stop65" />
				<stop
   offset="0.2"
   style="stop-color:#DFDFDF"
   id="stop67" />
				<stop
   offset="0.24"
   style="stop-color:#EEEEEE"
   id="stop69" />
				<stop
   offset="0.28"
   style="stop-color:#F6F6F6"
   id="stop71" />
				<stop
   offset="0.34"
   style="stop-color:#F9F9F9"
   id="stop73" />
				<stop
   offset="0.44"
   style="stop-color:#E1E1E1"
   id="stop75" />
				<stop
   offset="0.64"
   style="stop-color:#A3A2A2"
   id="stop77" />
				<stop
   offset="0.85"
   style="stop-color:#595757"
   id="stop79" />
				<stop
   offset="0.87"
   style="stop-color:#5E5C5C"
   id="stop81" />
				<stop
   offset="0.9"
   style="stop-color:#6E6C6C"
   id="stop83" />
				<stop
   offset="0.92"
   style="stop-color:#878585"
   id="stop85" />
				<stop
   offset="0.95"
   style="stop-color:#AAA9A9"
   id="stop87" />
				<stop
   offset="0.98"
   style="stop-color:#D7D6D6"
   id="stop89" />
				<stop
   offset="1"
   style="stop-color:#FFFFFF"
   id="stop91" />
			</linearGradient>
			<path
   class="st1"
   d="M8.8,1.4h34.1c4.1,0,7.4,3.3,7.4,7.4v34.1c0,4.1-3.3,7.4-7.4,7.4H8.8c-4.1,0-7.4-3.3-7.4-7.4V8.8     C1.4,4.7,4.7,1.4,8.8,1.4z"
   id="path94" />
			
				<linearGradient
   id="SVGID_3_"
   gradientUnits="userSpaceOnUse"
   x1="25.8"
   y1="4.57"
   x2="25.8"
   y2="52.9"
   gradientTransform="matrix(1 0 0 -1 0 54)">
				<stop
   offset="0"
   style="stop-color:#727171"
   id="stop96" />
				<stop
   offset="2.000000e-02"
   style="stop-color:#666565"
   id="stop98" />
				<stop
   offset="5.000000e-02"
   style="stop-color:#5C5A5A"
   id="stop100" />
				<stop
   offset="9.000000e-02"
   style="stop-color:#595757"
   id="stop102" />
				<stop
   offset="0.39"
   style="stop-color:#DBDADA"
   id="stop104" />
				<stop
   offset="0.46"
   style="stop-color:#F9F9F9"
   id="stop106" />
				<stop
   offset="0.58"
   style="stop-color:#A5A4A4"
   id="stop108" />
				<stop
   offset="0.67"
   style="stop-color:#6E6C6C"
   id="stop110" />
				<stop
   offset="0.71"
   style="stop-color:#595757"
   id="stop112" />
				<stop
   offset="0.75"
   style="stop-color:#5E5C5C"
   id="stop114" />
				<stop
   offset="0.79"
   style="stop-color:#6E6C6C"
   id="stop116" />
				<stop
   offset="0.85"
   style="stop-color:#878585"
   id="stop118" />
				<stop
   offset="0.9"
   style="stop-color:#AAA9A9"
   id="stop120" />
				<stop
   offset="0.96"
   style="stop-color:#D7D6D6"
   id="stop122" />
				<stop
   offset="1"
   style="stop-color:#FFFFFF"
   id="stop124" />
			</linearGradient>
			<circle
   class="st2"
   cx="25.8"
   cy="25.8"
   r="21.8"
   id="circle127" />
			
				<linearGradient
   id="SVGID_4_"
   gradientUnits="userSpaceOnUse"
   x1="3.31"
   y1="28.2"
   x2="48.29"
   y2="28.2"
   gradientTransform="matrix(1 0 0 -1 0 54)">
				<stop
   offset="0"
   style="stop-color:#AAA6AA"
   id="stop129" />
				<stop
   offset="0.52"
   style="stop-color:#FFFFFF"
   id="stop131" />
				<stop
   offset="0.64"
   style="stop-color:#F1F0F1"
   id="stop133" />
				<stop
   offset="0.86"
   style="stop-color:#CCC9CC"
   id="stop135" />
				<stop
   offset="1"
   style="stop-color:#B1ADB1"
   id="stop137" />
			</linearGradient>
			<path
   class="st3"
   d="M25.8,48.3c-12.4,0-22.5-10.1-22.5-22.5S13.4,3.3,25.8,3.3s22.5,10.1,22.5,22.5     C48.3,38.2,38.2,48.3,25.8,48.3z M25.8,4.8c-11.6,0-21,9.4-21,21s9.4,21,21,21s21-9.4,21-21C46.8,14.2,37.4,4.8,25.8,4.8z"
   id="path140" />
			
				<linearGradient
   id="SVGID_5_"
   gradientUnits="userSpaceOnUse"
   x1="31.9121"
   y1="49.0594"
   x2="19.4121"
   y2="6.3994"
   gradientTransform="matrix(1 0 0 -1 0 54)">
				<stop
   offset="0"
   style="stop-color:#9F53DD"
   id="stop142" />
				<stop
   offset="0.5"
   style="stop-color:#7E1FC4"
   id="stop144" />
				<stop
   offset="1"
   style="stop-color:#9F53DD"
   id="stop146" />
			</linearGradient>
			<circle
   class="st4"
   cx="25.8"
   cy="25.8"
   r="20"
   id="circle149" />
			
				<linearGradient
   id="SVGID_6_"
   gradientUnits="userSpaceOnUse"
   x1="25.8"
   y1="7.64"
   x2="25.8"
   y2="48.76"
   gradientTransform="matrix(1 0 0 -1 0 54)">
				<stop
   offset="0"
   style="stop-color:#727171"
   id="stop151" />
				<stop
   offset="2.000000e-02"
   style="stop-color:#666565"
   id="stop153" />
				<stop
   offset="5.000000e-02"
   style="stop-color:#5C5A5A"
   id="stop155" />
				<stop
   offset="9.000000e-02"
   style="stop-color:#595757"
   id="stop157" />
				<stop
   offset="0.39"
   style="stop-color:#DBDADA"
   id="stop159" />
				<stop
   offset="0.46"
   style="stop-color:#F9F9F9"
   id="stop161" />
				<stop
   offset="0.58"
   style="stop-color:#A5A4A4"
   id="stop163" />
				<stop
   offset="0.67"
   style="stop-color:#6E6C6C"
   id="stop165" />
				<stop
   offset="0.71"
   style="stop-color:#595757"
   id="stop167" />
				<stop
   offset="0.75"
   style="stop-color:#5E5C5C"
   id="stop169" />
				<stop
   offset="0.79"
   style="stop-color:#6E6C6C"
   id="stop171" />
				<stop
   offset="0.85"
   style="stop-color:#878585"
   id="stop173" />
				<stop
   offset="0.9"
   style="stop-color:#AAA9A9"
   id="stop175" />
				<stop
   offset="0.96"
   style="stop-color:#D7D6D6"
   id="stop177" />
				<stop
   offset="1"
   style="stop-color:#FFFFFF"
   id="stop179" />
			</linearGradient>
			<path
   class="st5"
   d="M25.8,46.4c-11.4,0-20.6-9.2-20.6-20.6S14.4,5.2,25.8,5.2s20.6,9.2,20.6,20.6C46.3,37.2,37.2,46.3,25.8,46.4     z M25.8,6.4C15,6.4,6.3,15.1,6.3,25.8S15,45.3,25.8,45.3s19.5-8.7,19.5-19.5c0,0,0,0,0,0C45.3,15.1,36.5,6.3,25.8,6.4L25.8,6.4z"
   id="path182" />
			
				<linearGradient
   id="SVGID_7_"
   gradientUnits="userSpaceOnUse"
   x1="27.2363"
   y1="25.713"
   x2="21.2963"
   y2="38.383"
   gradientTransform="matrix(1 0 0 -1 0 54)">
				<stop
   offset="0.51"
   style="stop-color:#FFFFFF;stop-opacity:0"
   id="stop184" />
				<stop
   offset="0.57"
   style="stop-color:#F8F8F8;stop-opacity:8.000000e-02"
   id="stop186" />
				<stop
   offset="0.69"
   style="stop-color:#E7E6E7;stop-opacity:0.3"
   id="stop188" />
				<stop
   offset="0.85"
   style="stop-color:#CCC9CC;stop-opacity:0.66"
   id="stop190" />
				<stop
   offset="1"
   style="stop-color:#B1ADB1"
   id="stop192" />
			</linearGradient>
			<path
   class="st6"
   d="M37.5,11.6C34.1,9,30,7.7,25.7,7.8C16.1,8.4,8.4,16.1,7.8,25.7c0,0.1,0,0.1,0,0.2c-0.1,3,2.9,4.6,5.9,4     c8-1.9,15.7-5.1,22.7-9.5C39.7,18.2,40.6,14,37.5,11.6z"
   id="path195" />
			<path
   class="st7"
   d="M40.9,16.8c3.9,8.8-0.2,19.1-9,23c-7.8,3.4-16.9,0.7-21.6-6.5c3.9,8.8,14.1,12.9,23,9s12.9-14.1,9-23     C41.9,18.4,41.4,17.6,40.9,16.8z"
   id="path197" />
			<path
   class="st8"
   d="M22.6,11.6c1.1-1,2.5-1.6,4-1.9c5.8-1.1,11.5,3.8,12.9,11c0.9,4.1,0,8.5-2.6,11.8c3.3-2.7,5-7.8,3.9-13.2     c-1.4-7.2-7.2-12.1-12.9-11C25.8,8.9,23.9,10,22.6,11.6z"
   id="path199" />
			<g
   class="st9"
   id="g279">
				
					<linearGradient
   id="SVGID_8_"
   gradientUnits="userSpaceOnUse"
   x1="7.0107"
   y1="30.0075"
   x2="39.1907"
   y2="38.7875"
   gradientTransform="matrix(1 0 0 -1 0 54)">
					<stop
   offset="0.51"
   style="stop-color:#FFFFFF;stop-opacity:0"
   id="stop201" />
					<stop
   offset="0.57"
   style="stop-color:#F8F8F8;stop-opacity:8.000000e-02"
   id="stop203" />
					<stop
   offset="0.69"
   style="stop-color:#E7E6E7;stop-opacity:0.3"
   id="stop205" />
					<stop
   offset="0.85"
   style="stop-color:#CCC9CC;stop-opacity:0.66"
   id="stop207" />
					<stop
   offset="1"
   style="stop-color:#B1ADB1"
   id="stop209" />
				</linearGradient>
				<path
   class="st10"
   d="M25.8,15.2c-0.7,0.9-1.3,1.9-1.8,2.9c1.4,1.1,2.6,2.4,3.6,3.9c1.1-0.7,2.3-1.2,3.4-1.8      C29.6,18.3,27.9,16.6,25.8,15.2z"
   id="path212" />
				
					<linearGradient
   id="SVGID_9_"
   gradientUnits="userSpaceOnUse"
   x1="8.5511"
   y1="24.376"
   x2="40.7211"
   y2="33.156"
   gradientTransform="matrix(1 0 0 -1 0 54)">
					<stop
   offset="0.51"
   style="stop-color:#FFFFFF;stop-opacity:0"
   id="stop214" />
					<stop
   offset="0.57"
   style="stop-color:#F8F8F8;stop-opacity:8.000000e-02"
   id="stop216" />
					<stop
   offset="0.69"
   style="stop-color:#E7E6E7;stop-opacity:0.3"
   id="stop218" />
					<stop
   offset="0.85"
   style="stop-color:#CCC9CC;stop-opacity:0.66"
   id="stop220" />
					<stop
   offset="1"
   style="stop-color:#B1ADB1"
   id="stop222" />
				</linearGradient>
				<path
   class="st11"
   d="M29.5,25.3c0.7-0.1,1.4-0.2,2.1-0.1c0.6,0,1.3,0,1.9,0.1c-0.5-1.5-1.1-3-2-4.4c-1.2,0.5-2.3,1.1-3.4,1.7      C28.6,23.5,29.1,24.4,29.5,25.3z"
   id="path225" />
				
					<linearGradient
   id="SVGID_10_"
   gradientUnits="userSpaceOnUse"
   x1="8.8616"
   y1="23.2142"
   x2="41.0416"
   y2="31.9942"
   gradientTransform="matrix(1 0 0 -1 0 54)">
					<stop
   offset="0.51"
   style="stop-color:#FFFFFF;stop-opacity:0"
   id="stop227" />
					<stop
   offset="0.57"
   style="stop-color:#F8F8F8;stop-opacity:8.000000e-02"
   id="stop229" />
					<stop
   offset="0.69"
   style="stop-color:#E7E6E7;stop-opacity:0.3"
   id="stop231" />
					<stop
   offset="0.85"
   style="stop-color:#CCC9CC;stop-opacity:0.66"
   id="stop233" />
					<stop
   offset="1"
   style="stop-color:#B1ADB1"
   id="stop235" />
				</linearGradient>
				<path
   class="st12"
   d="M34.3,25.4c1.4,0.3,2.7,0.7,4,1.3c-0.3-2.6-1.1-5.1-2.4-7.3c-1.3,0.3-2.5,0.7-3.7,1.2      C33.1,22.1,33.8,23.7,34.3,25.4z"
   id="path238" />
				
					<linearGradient
   id="SVGID_11_"
   gradientUnits="userSpaceOnUse"
   x1="6.57"
   y1="31.6099"
   x2="38.75"
   y2="40.3899"
   gradientTransform="matrix(1 0 0 -1 0 54)">
					<stop
   offset="0.51"
   style="stop-color:#FFFFFF;stop-opacity:0"
   id="stop240" />
					<stop
   offset="0.57"
   style="stop-color:#F8F8F8;stop-opacity:8.000000e-02"
   id="stop242" />
					<stop
   offset="0.69"
   style="stop-color:#E7E6E7;stop-opacity:0.3"
   id="stop244" />
					<stop
   offset="0.85"
   style="stop-color:#CCC9CC;stop-opacity:0.66"
   id="stop246" />
					<stop
   offset="1"
   style="stop-color:#B1ADB1"
   id="stop248" />
				</linearGradient>
				<path
   class="st13"
   d="M31.3,10.8c-0.6,0.2-1.3,0.5-1.9,0.8c3,1.6,5.6,4,7.5,6.9c0.9-0.2,1.9-0.3,2.9-0.4      C38.1,14.7,35,12,31.3,10.8z"
   id="path251" />
				
					<linearGradient
   id="SVGID_12_"
   gradientUnits="userSpaceOnUse"
   x1="9.3573"
   y1="21.4198"
   x2="41.5273"
   y2="30.1998"
   gradientTransform="matrix(1 0 0 -1 0 54)">
					<stop
   offset="0.51"
   style="stop-color:#FFFFFF;stop-opacity:0"
   id="stop253" />
					<stop
   offset="0.57"
   style="stop-color:#F8F8F8;stop-opacity:8.000000e-02"
   id="stop255" />
					<stop
   offset="0.69"
   style="stop-color:#E7E6E7;stop-opacity:0.3"
   id="stop257" />
					<stop
   offset="0.85"
   style="stop-color:#CCC9CC;stop-opacity:0.66"
   id="stop259" />
					<stop
   offset="1"
   style="stop-color:#B1ADB1"
   id="stop261" />
				</linearGradient>
				<path
   class="st14"
   d="M37.3,19.2c1.7,3,2.6,6.5,2.5,10c0.2,0.2,0.4,0.4,0.7,0.6c1.3-3.6,1.2-7.5-0.3-11      C39.2,18.9,38.3,19,37.3,19.2z"
   id="path264" />
				
					<linearGradient
   id="SVGID_13_"
   gradientUnits="userSpaceOnUse"
   x1="6.6544"
   y1="31.3238"
   x2="38.8244"
   y2="40.1038"
   gradientTransform="matrix(1 0 0 -1 0 54)">
					<stop
   offset="0.51"
   style="stop-color:#FFFFFF;stop-opacity:0"
   id="stop266" />
					<stop
   offset="0.57"
   style="stop-color:#F8F8F8;stop-opacity:8.000000e-02"
   id="stop268" />
					<stop
   offset="0.69"
   style="stop-color:#E7E6E7;stop-opacity:0.3"
   id="stop270" />
					<stop
   offset="0.85"
   style="stop-color:#CCC9CC;stop-opacity:0.66"
   id="stop272" />
					<stop
   offset="1"
   style="stop-color:#B1ADB1"
   id="stop274" />
				</linearGradient>
				<path
   class="st15"
   d="M28.7,12.5c-0.9,0.6-1.7,1.4-2.4,2.2c2.1,1.4,4,3.2,5.4,5.3c1.2-0.5,2.4-0.9,3.7-1.2      C33.7,16.2,31.4,14,28.7,12.5z"
   id="path277" />
			</g>
			<g
   class="st9"
   id="g359">
				
					<linearGradient
   id="SVGID_14_"
   gradientUnits="userSpaceOnUse"
   x1="-1767.7332"
   y1="-1776.0841"
   x2="-1735.5631"
   y2="-1767.3041"
   gradientTransform="matrix(-0.38 -0.49 -0.48 0.37 -1496.05 -176.71)">
					<stop
   offset="0.51"
   style="stop-color:#FFFFFF;stop-opacity:0"
   id="stop281" />
					<stop
   offset="0.57"
   style="stop-color:#F8F8F8;stop-opacity:8.000000e-02"
   id="stop283" />
					<stop
   offset="0.69"
   style="stop-color:#E7E6E7;stop-opacity:0.3"
   id="stop285" />
					<stop
   offset="0.85"
   style="stop-color:#CCC9CC;stop-opacity:0.66"
   id="stop287" />
					<stop
   offset="1"
   style="stop-color:#B1ADB1"
   id="stop289" />
				</linearGradient>
				<path
   class="st16"
   d="M17.2,26.6c0.7,0,1.4-0.1,2.1-0.2c0-1.1,0.2-2.2,0.5-3.2c-0.7-0.3-1.4-0.6-2.1-1      C17.2,23.6,17,25.1,17.2,26.6z"
   id="path292" />
				
					<linearGradient
   id="SVGID_15_"
   gradientUnits="userSpaceOnUse"
   x1="-1766.1803"
   y1="-1781.7991"
   x2="-1734.0004"
   y2="-1773.019"
   gradientTransform="matrix(-0.38 -0.49 -0.48 0.37 -1496.05 -176.71)">
					<stop
   offset="0.51"
   style="stop-color:#FFFFFF;stop-opacity:0"
   id="stop294" />
					<stop
   offset="0.57"
   style="stop-color:#F8F8F8;stop-opacity:8.000000e-02"
   id="stop296" />
					<stop
   offset="0.69"
   style="stop-color:#E7E6E7;stop-opacity:0.3"
   id="stop298" />
					<stop
   offset="0.85"
   style="stop-color:#CCC9CC;stop-opacity:0.66"
   id="stop300" />
					<stop
   offset="1"
   style="stop-color:#B1ADB1"
   id="stop302" />
				</linearGradient>
				<path
   class="st17"
   d="M20.6,21c-0.3-0.3-0.6-0.6-0.9-1c-0.2-0.3-0.5-0.7-0.6-1c-0.6,0.8-1,1.7-1.4,2.6c0.7,0.4,1.4,0.7,2.1,1      C20.1,22.1,20.3,21.6,20.6,21z"
   id="path305" />
				
					<linearGradient
   id="SVGID_16_"
   gradientUnits="userSpaceOnUse"
   x1="-1765.8774"
   y1="-1782.896"
   x2="-1733.6975"
   y2="-1774.1161"
   gradientTransform="matrix(-0.38 -0.49 -0.48 0.37 -1496.05 -176.71)">
					<stop
   offset="0.51"
   style="stop-color:#FFFFFF;stop-opacity:0"
   id="stop307" />
					<stop
   offset="0.57"
   style="stop-color:#F8F8F8;stop-opacity:8.000000e-02"
   id="stop309" />
					<stop
   offset="0.69"
   style="stop-color:#E7E6E7;stop-opacity:0.3"
   id="stop311" />
					<stop
   offset="0.85"
   style="stop-color:#CCC9CC;stop-opacity:0.66"
   id="stop313" />
					<stop
   offset="1"
   style="stop-color:#B1ADB1"
   id="stop315" />
				</linearGradient>
				<path
   class="st18"
   d="M18.9,18.7c-0.4-0.8-0.7-1.6-0.9-2.4c-1.1,1.1-2,2.4-2.6,3.9c0.6,0.5,1.3,1,2,1.4      C17.7,20.5,18.2,19.5,18.9,18.7z"
   id="path318" />
				
					<linearGradient
   id="SVGID_17_"
   gradientUnits="userSpaceOnUse"
   x1="-1768.1632"
   y1="-1774.5216"
   x2="-1735.9833"
   y2="-1765.7417"
   gradientTransform="matrix(-0.38 -0.49 -0.48 0.37 -1496.05 -176.71)">
					<stop
   offset="0.51"
   style="stop-color:#FFFFFF;stop-opacity:0"
   id="stop320" />
					<stop
   offset="0.57"
   style="stop-color:#F8F8F8;stop-opacity:8.000000e-02"
   id="stop322" />
					<stop
   offset="0.69"
   style="stop-color:#E7E6E7;stop-opacity:0.3"
   id="stop324" />
					<stop
   offset="0.85"
   style="stop-color:#CCC9CC;stop-opacity:0.66"
   id="stop326" />
					<stop
   offset="1"
   style="stop-color:#B1ADB1"
   id="stop328" />
				</linearGradient>
				<path
   class="st19"
   d="M13,25.5c0.3,0.2,0.7,0.4,1.1,0.6c-0.4-2.1-0.2-4.2,0.5-6.2c-0.4-0.4-0.9-0.8-1.3-1.3      C12.3,20.8,12.2,23.3,13,25.5z"
   id="path331" />
				
					<linearGradient
   id="SVGID_18_"
   gradientUnits="userSpaceOnUse"
   x1="-1765.3752"
   y1="-1784.7509"
   x2="-1733.1953"
   y2="-1775.9708"
   gradientTransform="matrix(-0.38 -0.49 -0.48 0.37 -1496.05 -176.71)">
					<stop
   offset="0.51"
   style="stop-color:#FFFFFF;stop-opacity:0"
   id="stop333" />
					<stop
   offset="0.57"
   style="stop-color:#F8F8F8;stop-opacity:8.000000e-02"
   id="stop335" />
					<stop
   offset="0.69"
   style="stop-color:#E7E6E7;stop-opacity:0.3"
   id="stop337" />
					<stop
   offset="0.85"
   style="stop-color:#CCC9CC;stop-opacity:0.66"
   id="stop339" />
					<stop
   offset="1"
   style="stop-color:#B1ADB1"
   id="stop341" />
				</linearGradient>
				<path
   class="st20"
   d="M14.7,19.5c0.8-2,2.1-3.7,3.9-5c0-0.2,0-0.4,0-0.6c-1,0.3-1.9,0.8-2.8,1.4c-1,0.8-1.8,1.7-2.4,2.8      C13.9,18.7,14.3,19.1,14.7,19.5z"
   id="path344" />
				
					<linearGradient
   id="SVGID_19_"
   gradientUnits="userSpaceOnUse"
   x1="-1768.1011"
   y1="-1774.7631"
   x2="-1735.921"
   y2="-1765.983"
   gradientTransform="matrix(-0.38 -0.49 -0.48 0.37 -1496.05 -176.71)">
					<stop
   offset="0.51"
   style="stop-color:#FFFFFF;stop-opacity:0"
   id="stop346" />
					<stop
   offset="0.57"
   style="stop-color:#F8F8F8;stop-opacity:8.000000e-02"
   id="stop348" />
					<stop
   offset="0.69"
   style="stop-color:#E7E6E7;stop-opacity:0.3"
   id="stop350" />
					<stop
   offset="0.85"
   style="stop-color:#CCC9CC;stop-opacity:0.66"
   id="stop352" />
					<stop
   offset="1"
   style="stop-color:#B1ADB1"
   id="stop354" />
				</linearGradient>
				<path
   class="st21"
   d="M14.8,26.2c0.6,0.2,1.3,0.3,1.9,0.4c-0.1-1.6,0-3.1,0.5-4.6c-0.7-0.4-1.4-0.9-2-1.4      C14.6,22.4,14.5,24.3,14.8,26.2z"
   id="path357" />
			</g>
		</g>
	</g>
</g>
</svg>
