<?xml version="1.0" encoding="UTF-8" standalone="no"?>
<svg
   xmlns:dc="http://purl.org/dc/elements/1.1/"
   xmlns:cc="http://creativecommons.org/ns#"
   xmlns:rdf="http://www.w3.org/1999/02/22-rdf-syntax-ns#"
   xmlns:svg="http://www.w3.org/2000/svg"
   xmlns="http://www.w3.org/2000/svg"
   xmlns:sodipodi="http://sodipodi.sourceforge.net/DTD/sodipodi-0.dtd"
   xmlns:inkscape="http://www.inkscape.org/namespaces/inkscape"
   version="1.1"
   id="图层_1"
   x="0px"
   y="0px"
   viewBox="0 0 45 62.2"
   style="enable-background:new 0 0 45 62.2;"
   xml:space="preserve"
   sodipodi:docname="立体按钮一_135.svg"><metadata
   id="metadata44"><rdf:RDF><cc:Work
       rdf:about=""><dc:format>image/svg+xml</dc:format><dc:type
         rdf:resource="http://purl.org/dc/dcmitype/StillImage" /></cc:Work></rdf:RDF></metadata><defs
   id="defs42" /><sodipodi:namedview
   pagecolor="#ffffff"
   bordercolor="#666666"
   borderopacity="1"
   objecttolerance="10"
   gridtolerance="10"
   guidetolerance="10"
   inkscape:pageopacity="0"
   inkscape:pageshadow="2"
   inkscape:window-width="640"
   inkscape:window-height="480"
   id="namedview40" />
<style
   type="text/css"
   id="style2">
	.st0{fill:url(#SVGID_1_);}
	.st1{fill:#0A0027;}
	.st2{fill:url(#SVGID_2_);}
	.st3{fill:url(#SVGID_3_);}
</style>
<title
   id="title4">资源 135</title>
<g
   id="g37">
	<g
   id="图层_2_1_">
		<g
   id="图层_1-2">
			
				<linearGradient
   id="SVGID_1_"
   gradientUnits="userSpaceOnUse"
   x1="22.5"
   y1="64.2"
   x2="22.5"
   y2="-1.26"
   gradientTransform="matrix(1 0 0 -1 0 64)">
				<stop
   offset="0"
   style="stop-color:#CECECF"
   id="stop6" />
				<stop
   offset="1"
   style="stop-color:#404143"
   id="stop8" />
			</linearGradient>
			<path
   class="st0"
   d="M22.5,0L22.5,0C34.9,0,45,10.1,45,22.5v17.2c0,12.4-10.1,22.5-22.5,22.5l0,0C10.1,62.2,0,52.1,0,39.7V22.5     C0,10.1,10.1,0,22.5,0z"
   id="path11" />
			<path
   class="st1"
   d="M22.5,1.5L22.5,1.5c11.8,0,21.4,9.6,21.4,21.4v16.3c0,11.8-9.6,21.4-21.4,21.4h0c-11.8,0-21.4-9.6-21.4-21.4     V22.9C1.1,11.1,10.7,1.5,22.5,1.5z"
   id="path13" />
			
				<linearGradient
   id="SVGID_2_"
   gradientUnits="userSpaceOnUse"
   x1="2.19"
   y1="32.905"
   x2="42.8"
   y2="32.905"
   gradientTransform="matrix(1 0 0 -1 0 64)">
				<stop
   offset="0"
   style="stop-color:#FA5920"
   id="stop15" />
				<stop
   offset="1"
   style="stop-color:#F52F0F"
   id="stop17" />
			</linearGradient>
			<path
   class="st2"
   d="M22.5,3L22.5,3c11.2,0,20.3,9.1,20.3,20.3v15.5c0,11.2-9.1,20.3-20.3,20.3h0c-11.2,0-20.3-9.1-20.3-20.3     V23.3C2.2,12.1,11.3,3,22.5,3z"
   id="path20" />
			
				<linearGradient
   id="SVGID_3_"
   gradientUnits="userSpaceOnUse"
   x1="22.5"
   y1="59.68"
   x2="22.5"
   y2="23.85"
   gradientTransform="matrix(1 0 0 -1 0 64)">
				<stop
   offset="0"
   style="stop-color:#FFFFFF;stop-opacity:0.6"
   id="stop22" />
				<stop
   offset="7.000000e-02"
   style="stop-color:#FFFFFF;stop-opacity:0.56"
   id="stop24" />
				<stop
   offset="0.51"
   style="stop-color:#FFFFFF;stop-opacity:0.31"
   id="stop26" />
				<stop
   offset="0.83"
   style="stop-color:#FFFFFF;stop-opacity:0.16"
   id="stop28" />
				<stop
   offset="1"
   style="stop-color:#FFFFFF;stop-opacity:0.1"
   id="stop30" />
			</linearGradient>
			<path
   class="st3"
   d="M3.2,38.5V23.7c0-10.6,8.7-19.3,19.3-19.3l0,0c10.6,0,19.3,8.7,19.3,19.3L3.2,38.5z"
   id="path33" />
		</g>
	</g>
</g>
</svg>
