<?xml version="1.0" encoding="UTF-8" standalone="no"?>
<svg
   xmlns:dc="http://purl.org/dc/elements/1.1/"
   xmlns:cc="http://creativecommons.org/ns#"
   xmlns:rdf="http://www.w3.org/1999/02/22-rdf-syntax-ns#"
   xmlns:svg="http://www.w3.org/2000/svg"
   xmlns="http://www.w3.org/2000/svg"
   xmlns:sodipodi="http://sodipodi.sourceforge.net/DTD/sodipodi-0.dtd"
   xmlns:inkscape="http://www.inkscape.org/namespaces/inkscape"
   version="1.1"
   id="图层_1"
   x="0px"
   y="0px"
   viewBox="0 0 54.3 54.3"
   style="enable-background:new 0 0 54.3 54.3;"
   xml:space="preserve"
   sodipodi:docname="立体按钮一_102.svg"><metadata
   id="metadata43"><rdf:RDF><cc:Work
       rdf:about=""><dc:format>image/svg+xml</dc:format><dc:type
         rdf:resource="http://purl.org/dc/dcmitype/StillImage" /></cc:Work></rdf:RDF></metadata><defs
   id="defs41" /><sodipodi:namedview
   pagecolor="#ffffff"
   bordercolor="#666666"
   borderopacity="1"
   objecttolerance="10"
   gridtolerance="10"
   guidetolerance="10"
   inkscape:pageopacity="0"
   inkscape:pageshadow="2"
   inkscape:window-width="640"
   inkscape:window-height="480"
   id="namedview39" />
<style
   type="text/css"
   id="style2">
	.st0{fill:url(#SVGID_1_);}
	.st1{fill:url(#SVGID_2_);}
	.st2{fill:url(#SVGID_3_);}
	.st3{fill:url(#SVGID_4_);}
</style>
<title
   id="title4">资源 102</title>
<g
   id="图层_2_1_">
	<g
   id="图层_1-2">
		
			<linearGradient
   id="SVGID_1_"
   gradientUnits="userSpaceOnUse"
   x1="0.25"
   y1="28.865"
   x2="54.02"
   y2="28.865"
   gradientTransform="matrix(1 0 0 -1 0 56)">
			<stop
   offset="0"
   style="stop-color:#FDFBFB"
   id="stop6" />
			<stop
   offset="1"
   style="stop-color:#EBEDEE"
   id="stop8" />
		</linearGradient>
		<path
   class="st0"
   d="M6.3,0.3H48c3.3,0,6,2.7,6,6V48c0,3.3-2.7,6-6,6H6.3c-3.3,0-6-2.7-6-6V6.3C0.3,2.9,2.9,0.3,6.3,0.3z"
   id="path11" />
		
			<linearGradient
   id="SVGID_2_"
   gradientUnits="userSpaceOnUse"
   x1="6.23"
   y1="28.86"
   x2="48.05"
   y2="28.86"
   gradientTransform="matrix(1 0 0 -1 0 56)">
			<stop
   offset="0"
   style="stop-color:#FF6000"
   id="stop13" />
			<stop
   offset="0.83"
   style="stop-color:#F2A325"
   id="stop15" />
		</linearGradient>
		<circle
   class="st1"
   cx="27.1"
   cy="27.1"
   r="20.9"
   id="circle18" />
		
			<linearGradient
   id="SVGID_3_"
   gradientUnits="userSpaceOnUse"
   x1="37.8914"
   y1="19.4716"
   x2="15.2514"
   y2="39.2416"
   gradientTransform="matrix(1 0 0 -1 0 56)">
			<stop
   offset="0"
   style="stop-color:#FF6000"
   id="stop20" />
			<stop
   offset="0.83"
   style="stop-color:#F2A325"
   id="stop22" />
		</linearGradient>
		<circle
   class="st2"
   cx="27.1"
   cy="27.1"
   r="17.3"
   id="circle25" />
		
			<linearGradient
   id="SVGID_4_"
   gradientUnits="userSpaceOnUse"
   x1="1.8448"
   y1="54.1602"
   x2="52.4381"
   y2="3.5669"
   gradientTransform="matrix(1 0 0 -1 0 56)">
			<stop
   offset="0"
   style="stop-color:#EAE9E8"
   id="stop27" />
			<stop
   offset="0.34"
   style="stop-color:#E6E5E4"
   id="stop29" />
			<stop
   offset="0.94"
   style="stop-color:#CAC8C5"
   id="stop31" />
		</linearGradient>
		<path
   class="st3"
   d="M48,54.3H6.3C2.8,54.3,0,51.5,0,48V6.3C0,2.8,2.8,0,6.3,0H48c3.5,0,6.3,2.8,6.3,6.3V48    C54.3,51.5,51.5,54.3,48,54.3z M6.3,0.5c-3.2,0-5.8,2.6-5.8,5.8c0,0,0,0,0,0V48c0,3.2,2.6,5.8,5.8,5.8H48c3.2,0,5.8-2.6,5.8-5.8    V6.3c0-3.2-2.6-5.8-5.8-5.8H6.3z"
   id="path34" />
	</g>
</g>
</svg>
