<?xml version="1.0" encoding="UTF-8" standalone="no"?>
<svg
   xmlns:dc="http://purl.org/dc/elements/1.1/"
   xmlns:cc="http://creativecommons.org/ns#"
   xmlns:rdf="http://www.w3.org/1999/02/22-rdf-syntax-ns#"
   xmlns:svg="http://www.w3.org/2000/svg"
   xmlns="http://www.w3.org/2000/svg"
   xmlns:sodipodi="http://sodipodi.sourceforge.net/DTD/sodipodi-0.dtd"
   xmlns:inkscape="http://www.inkscape.org/namespaces/inkscape"
   version="1.1"
   id="图层_1"
   x="0px"
   y="0px"
   viewBox="0 0 102.4 34.8"
   style="enable-background:new 0 0 102.4 34.8;"
   xml:space="preserve"
   sodipodi:docname="立体按钮一_145.svg"><metadata
   id="metadata61"><rdf:RDF><cc:Work
       rdf:about=""><dc:format>image/svg+xml</dc:format><dc:type
         rdf:resource="http://purl.org/dc/dcmitype/StillImage" /></cc:Work></rdf:RDF></metadata><defs
   id="defs59" /><sodipodi:namedview
   pagecolor="#ffffff"
   bordercolor="#666666"
   borderopacity="1"
   objecttolerance="10"
   gridtolerance="10"
   guidetolerance="10"
   inkscape:pageopacity="0"
   inkscape:pageshadow="2"
   inkscape:window-width="640"
   inkscape:window-height="480"
   id="namedview57" />
<style
   type="text/css"
   id="style2">
	.st0{fill:url(#SVGID_1_);}
	.st1{fill:url(#SVGID_2_);}
	.st2{fill:url(#SVGID_3_);}
	.st3{fill:url(#SVGID_4_);}
</style>
<title
   id="title4">资源 145</title>
<g
   id="图层_2_1_">
	<g
   id="图层_1-2">
		
			<linearGradient
   id="SVGID_1_"
   gradientUnits="userSpaceOnUse"
   x1="50.6192"
   y1="58.17"
   x2="52.1092"
   y2="-45.13"
   gradientTransform="matrix(1 0 0 -1 0 36)">
			<stop
   offset="0.21"
   style="stop-color:#F9F9F9"
   id="stop6" />
			<stop
   offset="0.31"
   style="stop-color:#EAEAEA"
   id="stop8" />
			<stop
   offset="0.51"
   style="stop-color:#C3C3C3"
   id="stop10" />
			<stop
   offset="0.78"
   style="stop-color:#858585"
   id="stop12" />
			<stop
   offset="1"
   style="stop-color:#4D4D4D"
   id="stop14" />
		</linearGradient>
		<path
   class="st0"
   d="M13.3,34.8C6,34.8,0,27,0,17.4S6,0,13.3,0h75.7c7.3,0,13.3,7.8,13.3,17.4s-6,17.4-13.3,17.4H13.3z"
   id="path17" />
		
			<linearGradient
   id="SVGID_2_"
   gradientUnits="userSpaceOnUse"
   x1="50.5986"
   y1="-2.57"
   x2="52.5386"
   y2="66.88"
   gradientTransform="matrix(1 0 0 -1 0 36)">
			<stop
   offset="0.21"
   style="stop-color:#F9F9F9"
   id="stop19" />
			<stop
   offset="0.31"
   style="stop-color:#EAEAEA"
   id="stop21" />
			<stop
   offset="0.51"
   style="stop-color:#C3C3C3"
   id="stop23" />
			<stop
   offset="0.78"
   style="stop-color:#858585"
   id="stop25" />
			<stop
   offset="1"
   style="stop-color:#4D4D4D"
   id="stop27" />
		</linearGradient>
		<path
   class="st1"
   d="M17.1,1.4h68.2c8.9,0,16,7.2,16,16l0,0c0,8.9-7.2,16-16,16H17.1c-8.9,0-16-7.2-16-16l0,0    C1,8.5,8.2,1.4,17.1,1.4z"
   id="path30" />
		
			<linearGradient
   id="SVGID_3_"
   gradientUnits="userSpaceOnUse"
   x1="51.185"
   y1="33.05"
   x2="51.185"
   y2="6.53"
   gradientTransform="matrix(1 0 0 -1 0 36)">
			<stop
   offset="0"
   style="stop-color:#0B6A93"
   id="stop32" />
			<stop
   offset="0.83"
   style="stop-color:#04365D"
   id="stop34" />
			<stop
   offset="1"
   style="stop-color:#032A51"
   id="stop36" />
		</linearGradient>
		<path
   class="st2"
   d="M13.3,29.9c-5.3,0-9.6-5.6-9.6-12.5S8,4.9,13.3,4.9h75.7c5.3,0,9.6,5.6,9.6,12.5s-4.3,12.5-9.6,12.5H13.3z"
   id="path39" />
		
			<linearGradient
   id="SVGID_4_"
   gradientUnits="userSpaceOnUse"
   x1="50.7"
   y1="29.95"
   x2="50.7"
   y2="18.72"
   gradientTransform="matrix(1 0 0 -1 0 36)">
			<stop
   offset="0"
   style="stop-color:#FFFFFF;stop-opacity:0.6"
   id="stop41" />
			<stop
   offset="7.000000e-02"
   style="stop-color:#FFFFFF;stop-opacity:0.56"
   id="stop43" />
			<stop
   offset="0.51"
   style="stop-color:#FFFFFF;stop-opacity:0.31"
   id="stop45" />
			<stop
   offset="0.83"
   style="stop-color:#FFFFFF;stop-opacity:0.16"
   id="stop47" />
			<stop
   offset="1"
   style="stop-color:#FFFFFF;stop-opacity:0.1"
   id="stop49" />
		</linearGradient>
		<path
   class="st3"
   d="M17.8,17.5c-5,0-9.1-2.4-9.1-5.3s4.1-5.3,9.1-5.3h65.7c5,0,9.1,2.4,9.1,5.3s-4.1,5.3-9.1,5.3H17.8z"
   id="path52" />
	</g>
</g>
</svg>
