<?xml version="1.0" encoding="UTF-8" standalone="no"?>
<svg
   xmlns:dc="http://purl.org/dc/elements/1.1/"
   xmlns:cc="http://creativecommons.org/ns#"
   xmlns:rdf="http://www.w3.org/1999/02/22-rdf-syntax-ns#"
   xmlns:svg="http://www.w3.org/2000/svg"
   xmlns="http://www.w3.org/2000/svg"
   xmlns:sodipodi="http://sodipodi.sourceforge.net/DTD/sodipodi-0.dtd"
   xmlns:inkscape="http://www.inkscape.org/namespaces/inkscape"
   version="1.1"
   id="图层_1"
   x="0px"
   y="0px"
   viewBox="0 0 150 46.2"
   style="enable-background:new 0 0 150 46.2;"
   xml:space="preserve"
   sodipodi:docname="立体按钮一_151.svg"><metadata
   id="metadata137"><rdf:RDF><cc:Work
       rdf:about=""><dc:format>image/svg+xml</dc:format><dc:type
         rdf:resource="http://purl.org/dc/dcmitype/StillImage" /></cc:Work></rdf:RDF></metadata><defs
   id="defs135" /><sodipodi:namedview
   pagecolor="#ffffff"
   bordercolor="#666666"
   borderopacity="1"
   objecttolerance="10"
   gridtolerance="10"
   guidetolerance="10"
   inkscape:pageopacity="0"
   inkscape:pageshadow="2"
   inkscape:window-width="640"
   inkscape:window-height="480"
   id="namedview133" />
<style
   type="text/css"
   id="style2">
	.st0{fill:url(#SVGID_1_);}
	.st1{fill:url(#SVGID_2_);}
	.st2{fill:#002C44;}
	.st3{fill:url(#SVGID_3_);}
	.st4{fill:url(#SVGID_4_);}
	.st5{fill:url(#SVGID_5_);}
	.st6{fill:url(#SVGID_6_);}
	.st7{fill:url(#SVGID_7_);}
	.st8{fill:url(#SVGID_8_);}
	.st9{fill:url(#SVGID_9_);}
	.st10{fill:url(#SVGID_10_);}
	.st11{fill:url(#SVGID_11_);}
	.st12{fill:url(#SVGID_12_);}
	.st13{fill:url(#SVGID_13_);}
	.st14{fill:url(#SVGID_14_);}
</style>
<title
   id="title4">资源 151</title>
<g
   id="图层_2_1_">
	<g
   id="图层_1-2">
		
			<linearGradient
   id="SVGID_1_"
   gradientUnits="userSpaceOnUse"
   x1="75"
   y1="1.82"
   x2="75"
   y2="48"
   gradientTransform="matrix(1 0 0 -1 0 48)">
			<stop
   offset="0"
   style="stop-color:#7C7C7C"
   id="stop6" />
			<stop
   offset="1"
   style="stop-color:#3C3C3C"
   id="stop8" />
		</linearGradient>
		<rect
   class="st0"
   width="150"
   height="46.2"
   id="rect11" />
		
			<linearGradient
   id="SVGID_2_"
   gradientUnits="userSpaceOnUse"
   x1="75.005"
   y1="3.2"
   x2="75.005"
   y2="46.62"
   gradientTransform="matrix(1 0 0 -1 0 48)">
			<stop
   offset="0"
   style="stop-color:#3D3D3D"
   id="stop13" />
			<stop
   offset="1"
   style="stop-color:#B2B2B2"
   id="stop15" />
		</linearGradient>
		<rect
   x="1.4"
   y="1.4"
   class="st1"
   width="147.3"
   height="43.4"
   id="rect18" />
		<rect
   x="2"
   y="1.9"
   class="st2"
   width="146.1"
   height="42.3"
   id="rect20" />
		
			<linearGradient
   id="SVGID_3_"
   gradientUnits="userSpaceOnUse"
   x1="2.37"
   y1="44.76"
   x2="147.63"
   y2="44.76"
   gradientTransform="matrix(1 0 0 -1 0 48)">
			<stop
   offset="0"
   style="stop-color:#2FA6B0"
   id="stop22" />
			<stop
   offset="1"
   style="stop-color:#8CFAF5"
   id="stop24" />
		</linearGradient>
		<polygon
   class="st3"
   points="2.4,2.3 4.2,4.2 145.8,4.2 147.6,2.3   "
   id="polygon27" />
		
			<linearGradient
   id="SVGID_4_"
   gradientUnits="userSpaceOnUse"
   x1="-681.24"
   y1="116.64"
   x2="-535.98"
   y2="116.64"
   gradientTransform="matrix(-1 0 0 1 -533.61 -74.02)">
			<stop
   offset="0"
   style="stop-color:#2FA6B0"
   id="stop29" />
			<stop
   offset="1"
   style="stop-color:#8CFAF5"
   id="stop31" />
		</linearGradient>
		<polygon
   class="st4"
   points="147.6,43.5 145.8,41.7 4.2,41.7 2.4,43.5   "
   id="polygon34" />
		
			<linearGradient
   id="SVGID_5_"
   gradientUnits="userSpaceOnUse"
   x1="3.29"
   y1="45.68"
   x2="3.29"
   y2="4.46"
   gradientTransform="matrix(1 0 0 -1 0 48)">
			<stop
   offset="0"
   style="stop-color:#000D2B"
   id="stop36" />
			<stop
   offset="1"
   style="stop-color:#085689"
   id="stop38" />
		</linearGradient>
		<polygon
   class="st5"
   points="2.4,2.3 2.4,43.5 4.2,41.7 4.2,4.2   "
   id="polygon41" />
		
			<linearGradient
   id="SVGID_6_"
   gradientUnits="userSpaceOnUse"
   x1="146.71"
   y1="4.46"
   x2="146.71"
   y2="45.68"
   gradientTransform="matrix(1 0 0 -1 0 48)">
			<stop
   offset="0"
   style="stop-color:#000D2B"
   id="stop43" />
			<stop
   offset="1"
   style="stop-color:#085689"
   id="stop45" />
		</linearGradient>
		<polygon
   class="st6"
   points="147.6,2.3 147.6,43.5 145.8,41.7 145.8,4.2   "
   id="polygon48" />
		
			<radialGradient
   id="SVGID_7_"
   cx="182.2391"
   cy="-37.0814"
   r="70.44"
   gradientTransform="matrix(0.84 0 0 -0.84 -78.48 -39.97)"
   gradientUnits="userSpaceOnUse">
			<stop
   offset="0"
   style="stop-color:#8CFAF5"
   id="stop50" />
			<stop
   offset="1"
   style="stop-color:#2FA6B0"
   id="stop52" />
		</radialGradient>
		<rect
   x="4.2"
   y="4.2"
   class="st7"
   width="141.6"
   height="18.8"
   id="rect55" />
		
			<radialGradient
   id="SVGID_8_"
   cx="183.0891"
   cy="-120.5814"
   r="73.19"
   gradientTransform="matrix(0.84 0 0 -0.84 -78.48 -39.97)"
   gradientUnits="userSpaceOnUse">
			<stop
   offset="0"
   style="stop-color:#8CFAF5"
   id="stop57" />
			<stop
   offset="1"
   style="stop-color:#044E7E"
   id="stop59" />
		</radialGradient>
		<rect
   x="4.2"
   y="22.9"
   class="st8"
   width="141.6"
   height="18.8"
   id="rect62" />
		
			<radialGradient
   id="SVGID_9_"
   cx="182.7143"
   cy="-70.6894"
   r="61.7638"
   gradientTransform="matrix(0.84 0 0 -0.85 -78.48 -37.27)"
   gradientUnits="userSpaceOnUse">
			<stop
   offset="0"
   style="stop-color:#DCFAF5"
   id="stop64" />
			<stop
   offset="0.38"
   style="stop-color:#55FFE4;stop-opacity:0.5"
   id="stop66" />
			<stop
   offset="0.5"
   style="stop-color:#DCFAF5"
   id="stop68" />
			<stop
   offset="1"
   style="stop-color:#55FFE4"
   id="stop70" />
		</radialGradient>
		<path
   class="st9"
   d="M145.9,41.8H4.1V4h141.8V41.8z M4.3,41.6h141.4V4.3H4.3V41.6z"
   id="path73" />
		
			<radialGradient
   id="SVGID_10_"
   cx="182.7143"
   cy="-75.0655"
   r="64.7356"
   gradientTransform="matrix(0.84 0 0 -0.84 -78.48 -39.97)"
   gradientUnits="userSpaceOnUse">
			<stop
   offset="0"
   style="stop-color:#EFEFEF"
   id="stop75" />
			<stop
   offset="0.38"
   style="stop-color:#9FA0A0;stop-opacity:0.5"
   id="stop77" />
			<stop
   offset="0.5"
   style="stop-color:#EFEFEF"
   id="stop79" />
			<stop
   offset="1"
   style="stop-color:#B5B5B6"
   id="stop81" />
		</radialGradient>
		<path
   class="st10"
   d="M148.7,44.9H1.3V1.3h147.5V44.9z M1.5,44.7h147V1.5H1.5V44.7z"
   id="path84" />
		
			<radialGradient
   id="SVGID_11_"
   cx="182.7143"
   cy="-66.3514"
   r="59.6704"
   gradientTransform="matrix(0.84 0 0 -0.84 -78.48 -39.97)"
   gradientUnits="userSpaceOnUse">
			<stop
   offset="0"
   style="stop-color:#DCFAF5"
   id="stop86" />
			<stop
   offset="0.38"
   style="stop-color:#55FFE4;stop-opacity:0.5"
   id="stop88" />
			<stop
   offset="0.5"
   style="stop-color:#DCFAF5"
   id="stop90" />
			<stop
   offset="1"
   style="stop-color:#55FFE4"
   id="stop92" />
		</radialGradient>
		<polygon
   class="st11"
   points="96.8,19.4 71.5,19.4 67.8,15.7 50.3,15.7 47.6,18.3 37.1,18.3 31.1,12.3 21.9,12.3 18.2,16.1     4.2,16.1 4.2,15.8 18.1,15.8 21.8,12.1 31.2,12.1 37.2,18.1 47.5,18.1 50.2,15.4 67.9,15.4 71.6,19.2 96.7,19.2 99.8,16.1     115,16.1 118.5,12.6 133.5,12.6 137.5,16.6 145.8,16.6 145.8,16.8 137.4,16.8 133.4,12.8 118.6,12.8 115.1,16.3 99.9,16.3   "
   id="polygon95" />
		
			<radialGradient
   id="SVGID_12_"
   cx="-716.3491"
   cy="-60.6814"
   r="59.7"
   gradientTransform="matrix(-0.84 0 0 -0.84 -527.01 -39.97)"
   gradientUnits="userSpaceOnUse">
			<stop
   offset="0"
   style="stop-color:#DCFAF5"
   id="stop97" />
			<stop
   offset="0.38"
   style="stop-color:#55FFE4;stop-opacity:0.5"
   id="stop99" />
			<stop
   offset="0.5"
   style="stop-color:#DCFAF5"
   id="stop101" />
			<stop
   offset="1"
   style="stop-color:#55FFE4"
   id="stop103" />
		</radialGradient>
		<polygon
   class="st12"
   points="69.7,14.6 53.2,14.6 50.1,11.5 34.9,11.5 31.4,8 16.6,8 12.6,12.1 4.2,12.1 4.2,11.8 12.5,11.8     16.5,7.8 31.5,7.8 35,11.3 50.2,11.3 53.3,14.4 69.6,14.4 73.3,10.7 83.3,10.7 85.9,13.3 96.3,13.3 102.3,7.3 128.2,7.3     131.9,11.1 145.8,11.1 145.8,11.3 131.8,11.3 128.1,7.6 102.4,7.6 96.4,13.5 85.8,13.5 83.2,10.9 73.4,10.9   "
   id="polygon106" />
		
			<radialGradient
   id="SVGID_13_"
   cx="-716.3491"
   cy="418.8615"
   r="59.7"
   gradientTransform="matrix(-0.84 0 0 0.84 -527.01 -322.09)"
   gradientUnits="userSpaceOnUse">
			<stop
   offset="0"
   style="stop-color:#DCFAF5"
   id="stop108" />
			<stop
   offset="0.38"
   style="stop-color:#55FFE4;stop-opacity:0.5"
   id="stop110" />
			<stop
   offset="0.5"
   style="stop-color:#DCFAF5"
   id="stop112" />
			<stop
   offset="1"
   style="stop-color:#55FFE4"
   id="stop114" />
		</radialGradient>
		<polygon
   class="st13"
   points="128.2,33.6 118.8,33.6 112.8,27.6 102.5,27.6 99.8,30.3 82.1,30.3 78.4,26.5 53.3,26.5 50.2,29.6     35,29.6 31.5,33.1 16.5,33.1 12.5,29.1 4.2,29.1 4.2,28.9 12.6,28.9 16.6,32.9 31.4,32.9 34.9,29.4 50.1,29.4 53.2,26.3     78.5,26.3 82.2,30 99.7,30 102.4,27.4 112.9,27.4 118.9,33.3 128.1,33.3 131.8,29.6 145.8,29.6 145.8,29.9 131.9,29.9   "
   id="polygon117" />
		
			<radialGradient
   id="SVGID_14_"
   cx="182.7143"
   cy="424.5414"
   r="59.6775"
   gradientTransform="matrix(0.84 0 0 0.84 -78.48 -322.09)"
   gradientUnits="userSpaceOnUse">
			<stop
   offset="0"
   style="stop-color:#DCFAF5"
   id="stop119" />
			<stop
   offset="0.38"
   style="stop-color:#55FFE4;stop-opacity:0.5"
   id="stop121" />
			<stop
   offset="0.5"
   style="stop-color:#DCFAF5"
   id="stop123" />
			<stop
   offset="1"
   style="stop-color:#55FFE4"
   id="stop125" />
		</radialGradient>
		<polygon
   class="st14"
   points="47.7,38.3 21.8,38.3 18.1,34.6 4.2,34.6 4.2,34.4 18.2,34.4 21.9,38.1 47.6,38.1 53.6,32.1     64.2,32.1 66.8,34.8 76.6,34.8 80.3,31 96.8,31 99.9,34.2 115.1,34.2 118.6,37.7 133.4,37.7 137.4,33.6 145.8,33.6 145.8,33.9     137.5,33.9 133.5,37.9 118.5,37.9 115,34.4 99.8,34.4 96.7,31.3 80.4,31.3 76.7,35 66.7,35 64.1,32.4 53.7,32.4   "
   id="polygon128" />
	</g>
</g>
</svg>
