<?xml version="1.0" encoding="UTF-8" standalone="no"?>
<svg
   xmlns:dc="http://purl.org/dc/elements/1.1/"
   xmlns:cc="http://creativecommons.org/ns#"
   xmlns:rdf="http://www.w3.org/1999/02/22-rdf-syntax-ns#"
   xmlns:svg="http://www.w3.org/2000/svg"
   xmlns="http://www.w3.org/2000/svg"
   xmlns:sodipodi="http://sodipodi.sourceforge.net/DTD/sodipodi-0.dtd"
   xmlns:inkscape="http://www.inkscape.org/namespaces/inkscape"
   version="1.1"
   id="图层_1"
   x="0px"
   y="0px"
   viewBox="0 0 150 46.2"
   style="enable-background:new 0 0 150 46.2;"
   xml:space="preserve"
   sodipodi:docname="立体按钮一_158.svg"><metadata
   id="metadata141"><rdf:RDF><cc:Work
       rdf:about=""><dc:format>image/svg+xml</dc:format><dc:type
         rdf:resource="http://purl.org/dc/dcmitype/StillImage" /></cc:Work></rdf:RDF></metadata><defs
   id="defs139" /><sodipodi:namedview
   pagecolor="#ffffff"
   bordercolor="#666666"
   borderopacity="1"
   objecttolerance="10"
   gridtolerance="10"
   guidetolerance="10"
   inkscape:pageopacity="0"
   inkscape:pageshadow="2"
   inkscape:window-width="640"
   inkscape:window-height="480"
   id="namedview137" />
<style
   type="text/css"
   id="style2">
	.st0{fill:url(#SVGID_1_);}
	.st1{fill:url(#SVGID_2_);}
	.st2{fill:#3D3D3D;}
	.st3{fill:url(#SVGID_3_);}
	.st4{fill:url(#SVGID_4_);}
	.st5{fill:url(#SVGID_5_);}
	.st6{fill:url(#SVGID_6_);}
	.st7{fill:url(#SVGID_7_);}
	.st8{fill:url(#SVGID_8_);}
	.st9{fill:url(#SVGID_9_);}
	.st10{fill:url(#SVGID_10_);}
	.st11{fill:url(#SVGID_11_);}
	.st12{fill:url(#SVGID_12_);}
	.st13{fill:url(#SVGID_13_);}
	.st14{fill:url(#SVGID_14_);}
</style>
<title
   id="title4">资源 158</title>
<g
   id="图层_2_1_">
	<g
   id="图层_1-2">
		
			<linearGradient
   id="SVGID_1_"
   gradientUnits="userSpaceOnUse"
   x1="75"
   y1="1.82"
   x2="75"
   y2="48"
   gradientTransform="matrix(1 0 0 -1 0 48)">
			<stop
   offset="0"
   style="stop-color:#7C7C7C"
   id="stop6" />
			<stop
   offset="1"
   style="stop-color:#3C3C3C"
   id="stop8" />
		</linearGradient>
		<rect
   class="st0"
   width="150"
   height="46.2"
   id="rect11" />
		
			<linearGradient
   id="SVGID_2_"
   gradientUnits="userSpaceOnUse"
   x1="75.005"
   y1="3.2"
   x2="75.005"
   y2="46.62"
   gradientTransform="matrix(1 0 0 -1 0 48)">
			<stop
   offset="0"
   style="stop-color:#3D3D3D"
   id="stop13" />
			<stop
   offset="1"
   style="stop-color:#B2B2B2"
   id="stop15" />
		</linearGradient>
		<rect
   x="1.4"
   y="1.4"
   class="st1"
   width="147.3"
   height="43.4"
   id="rect18" />
		<rect
   x="2"
   y="1.9"
   class="st2"
   width="146.1"
   height="42.3"
   id="rect20" />
		
			<linearGradient
   id="SVGID_3_"
   gradientUnits="userSpaceOnUse"
   x1="2.37"
   y1="44.76"
   x2="147.63"
   y2="44.76"
   gradientTransform="matrix(1 0 0 -1 0 48)">
			<stop
   offset="0"
   style="stop-color:#AFAFAF"
   id="stop22" />
			<stop
   offset="1"
   style="stop-color:#D7D6D4"
   id="stop24" />
		</linearGradient>
		<polygon
   class="st3"
   points="2.4,2.3 4.2,4.2 145.8,4.2 147.6,2.3   "
   id="polygon27" />
		
			<linearGradient
   id="SVGID_4_"
   gradientUnits="userSpaceOnUse"
   x1="-1711.67"
   y1="226.96"
   x2="-1566.41"
   y2="226.96"
   gradientTransform="matrix(-1 0 0 1 -1564.04 -184.34)">
			<stop
   offset="0"
   style="stop-color:#C2C0BD"
   id="stop29" />
			<stop
   offset="1"
   style="stop-color:#D7D6D4"
   id="stop31" />
		</linearGradient>
		<polygon
   class="st4"
   points="147.6,43.5 145.8,41.7 4.2,41.7 2.4,43.5   "
   id="polygon34" />
		
			<linearGradient
   id="SVGID_5_"
   gradientUnits="userSpaceOnUse"
   x1="3.29"
   y1="45.68"
   x2="3.29"
   y2="4.46"
   gradientTransform="matrix(1 0 0 -1 0 48)">
			<stop
   offset="0"
   style="stop-color:#3D3D3D"
   id="stop36" />
			<stop
   offset="1"
   style="stop-color:#979797"
   id="stop38" />
		</linearGradient>
		<polygon
   class="st5"
   points="2.4,2.3 2.4,43.5 4.2,41.7 4.2,4.2   "
   id="polygon41" />
		
			<linearGradient
   id="SVGID_6_"
   gradientUnits="userSpaceOnUse"
   x1="157.5826"
   y1="12.4546"
   x2="137.4574"
   y2="37.5086"
   gradientTransform="matrix(1 0 0 -1 0 48)">
			<stop
   offset="0"
   style="stop-color:#3D3D3D"
   id="stop43" />
			<stop
   offset="1"
   style="stop-color:#979797"
   id="stop45" />
		</linearGradient>
		<polygon
   class="st6"
   points="147.6,2.3 147.6,43.5 145.8,41.7 145.8,4.2   "
   id="polygon48" />
		
			<linearGradient
   id="SVGID_7_"
   gradientUnits="userSpaceOnUse"
   x1="196.8453"
   y1="-74.2441"
   x2="365.3929"
   y2="-74.2441"
   gradientTransform="matrix(0.84 0 0 -0.84 -161.14 -48.82)">
			<stop
   offset="0.25"
   style="stop-color:#D7D6D4"
   id="stop50" />
			<stop
   offset="1"
   style="stop-color:#B9B7B4"
   id="stop52" />
		</linearGradient>
		<rect
   x="4.2"
   y="4.2"
   class="st7"
   width="141.6"
   height="18.8"
   id="rect55" />
		
			<radialGradient
   id="SVGID_8_"
   cx="281.1191"
   cy="-96.6214"
   r="60.2032"
   gradientTransform="matrix(0.84 0 0 -0.84 -161.14 -48.82)"
   gradientUnits="userSpaceOnUse">
			<stop
   offset="0"
   style="stop-color:#BEBEBE"
   id="stop57" />
			<stop
   offset="0.3"
   style="stop-color:#B0B0B0"
   id="stop59" />
			<stop
   offset="0.72"
   style="stop-color:#8A8A8A"
   id="stop61" />
			<stop
   offset="1"
   style="stop-color:#696969"
   id="stop63" />
		</radialGradient>
		<rect
   x="4.2"
   y="22.9"
   class="st8"
   width="141.6"
   height="18.8"
   id="rect66" />
		
			<radialGradient
   id="SVGID_9_"
   cx="281.1191"
   cy="-80.2594"
   r="61.8017"
   gradientTransform="matrix(0.84 0 0 -0.85 -161.14 -45.43)"
   gradientUnits="userSpaceOnUse">
			<stop
   offset="0"
   style="stop-color:#F3F3F2"
   id="stop68" />
			<stop
   offset="0.38"
   style="stop-color:#F1F1F0;stop-opacity:0.5"
   id="stop70" />
			<stop
   offset="0.5"
   style="stop-color:#F5F5F4"
   id="stop72" />
			<stop
   offset="1"
   style="stop-color:#DEDEDC"
   id="stop74" />
		</radialGradient>
		<path
   class="st9"
   d="M145.9,41.8H4.1V4h141.8V41.8z M4.3,41.6h141.4V4.3H4.3V41.6z"
   id="path77" />
		
			<radialGradient
   id="SVGID_10_"
   cx="281.1191"
   cy="-85.6012"
   r="64.825"
   gradientTransform="matrix(0.84 0 0 -0.84 -161.14 -48.82)"
   gradientUnits="userSpaceOnUse">
			<stop
   offset="0"
   style="stop-color:#EFEFEF"
   id="stop79" />
			<stop
   offset="0.38"
   style="stop-color:#A0A0A0;stop-opacity:0.5"
   id="stop81" />
			<stop
   offset="0.5"
   style="stop-color:#EFEFEF"
   id="stop83" />
			<stop
   offset="1"
   style="stop-color:#B6B6B6"
   id="stop85" />
		</radialGradient>
		<path
   class="st10"
   d="M148.7,44.9H1.3V1.3h147.5V44.9z M1.5,44.7h147V1.5H1.5V44.7z"
   id="path88" />
		
			<radialGradient
   id="SVGID_11_"
   cx="281.1191"
   cy="-76.9014"
   r="59.7637"
   gradientTransform="matrix(0.84 0 0 -0.84 -161.14 -48.82)"
   gradientUnits="userSpaceOnUse">
			<stop
   offset="0"
   style="stop-color:#F3F3F2"
   id="stop90" />
			<stop
   offset="0.38"
   style="stop-color:#F1F1F0;stop-opacity:0.5"
   id="stop92" />
			<stop
   offset="0.5"
   style="stop-color:#F5F5F4"
   id="stop94" />
			<stop
   offset="1"
   style="stop-color:#DEDEDC"
   id="stop96" />
		</radialGradient>
		<polygon
   class="st11"
   points="96.8,19.4 71.5,19.4 67.8,15.7 50.3,15.7 47.6,18.3 37.1,18.3 31.1,12.3 21.9,12.3 18.2,16.1     4.2,16.1 4.2,15.8 18.1,15.8 21.8,12.1 31.2,12.1 37.2,18.1 47.5,18.1 50.2,15.4 67.9,15.4 71.6,19.2 96.7,19.2 99.8,16.1     115,16.1 118.5,12.6 133.5,12.6 137.5,16.6 145.8,16.6 145.8,16.8 137.4,16.8 133.4,12.8 118.6,12.8 115.1,16.3 99.9,16.3   "
   id="polygon99" />
		
			<radialGradient
   id="SVGID_12_"
   cx="-1845.239"
   cy="-71.2214"
   r="59.7"
   gradientTransform="matrix(-0.84 0 0 -0.84 -1474.77 -48.82)"
   gradientUnits="userSpaceOnUse">
			<stop
   offset="0"
   style="stop-color:#F3F3F2"
   id="stop101" />
			<stop
   offset="0.38"
   style="stop-color:#F1F1F0;stop-opacity:0.5"
   id="stop103" />
			<stop
   offset="0.5"
   style="stop-color:#F5F5F4"
   id="stop105" />
			<stop
   offset="1"
   style="stop-color:#DEDEDC"
   id="stop107" />
		</radialGradient>
		<polygon
   class="st12"
   points="69.7,14.6 53.2,14.6 50.1,11.5 34.9,11.5 31.4,8 16.6,8 12.6,12.1 4.2,12.1 4.2,11.8 12.5,11.8     16.5,7.8 31.5,7.8 35,11.3 50.2,11.3 53.3,14.4 69.6,14.4 73.3,10.7 83.3,10.7 85.9,13.3 96.3,13.3 102.3,7.3 128.2,7.3     131.9,11.1 145.8,11.1 145.8,11.3 131.8,11.3 128.1,7.6 102.4,7.6 96.4,13.5 85.8,13.5 83.2,10.9 73.4,10.9   "
   id="polygon110" />
		
			<radialGradient
   id="SVGID_13_"
   cx="-1845.239"
   cy="539.7314"
   r="59.7"
   gradientTransform="matrix(-0.84 0 0 0.84 -1474.77 -423.57)"
   gradientUnits="userSpaceOnUse">
			<stop
   offset="0"
   style="stop-color:#F3F3F2"
   id="stop112" />
			<stop
   offset="0.38"
   style="stop-color:#F1F1F0;stop-opacity:0.5"
   id="stop114" />
			<stop
   offset="0.5"
   style="stop-color:#F5F5F4"
   id="stop116" />
			<stop
   offset="1"
   style="stop-color:#DEDEDC"
   id="stop118" />
		</radialGradient>
		<polygon
   class="st13"
   points="128.2,33.6 118.8,33.6 112.8,27.6 102.5,27.6 99.8,30.3 82.1,30.3 78.4,26.5 53.3,26.5 50.2,29.6     35,29.6 31.5,33.1 16.5,33.1 12.5,29.1 4.2,29.1 4.2,28.9 12.6,28.9 16.6,32.9 31.4,32.9 34.9,29.4 50.1,29.4 53.2,26.3     78.5,26.3 82.2,30 99.7,30 102.4,27.4 112.9,27.4 118.9,33.3 128.1,33.3 131.8,29.6 145.8,29.6 145.8,29.9 131.9,29.9   "
   id="polygon121" />
		
			<radialGradient
   id="SVGID_14_"
   cx="281.1191"
   cy="545.4014"
   r="59.7636"
   gradientTransform="matrix(0.84 0 0 0.84 -161.14 -423.57)"
   gradientUnits="userSpaceOnUse">
			<stop
   offset="0"
   style="stop-color:#F3F3F2"
   id="stop123" />
			<stop
   offset="0.38"
   style="stop-color:#F1F1F0;stop-opacity:0.5"
   id="stop125" />
			<stop
   offset="0.5"
   style="stop-color:#F5F5F4"
   id="stop127" />
			<stop
   offset="1"
   style="stop-color:#DEDEDC"
   id="stop129" />
		</radialGradient>
		<polygon
   class="st14"
   points="47.7,38.3 21.8,38.3 18.1,34.6 4.2,34.6 4.2,34.4 18.2,34.4 21.9,38.1 47.6,38.1 53.6,32.1     64.2,32.1 66.8,34.8 76.6,34.8 80.3,31 96.8,31 99.9,34.2 115.1,34.2 118.6,37.7 133.4,37.7 137.4,33.6 145.8,33.6 145.8,33.9     137.5,33.9 133.5,37.9 118.5,37.9 115,34.4 99.8,34.4 96.7,31.3 80.4,31.3 76.7,35 66.7,35 64.1,32.4 53.7,32.4   "
   id="polygon132" />
	</g>
</g>
</svg>
