<?xml version="1.0" encoding="UTF-8" standalone="no"?>
<svg
   xmlns:dc="http://purl.org/dc/elements/1.1/"
   xmlns:cc="http://creativecommons.org/ns#"
   xmlns:rdf="http://www.w3.org/1999/02/22-rdf-syntax-ns#"
   xmlns:svg="http://www.w3.org/2000/svg"
   xmlns="http://www.w3.org/2000/svg"
   xmlns:sodipodi="http://sodipodi.sourceforge.net/DTD/sodipodi-0.dtd"
   xmlns:inkscape="http://www.inkscape.org/namespaces/inkscape"
   version="1.1"
   id="图层_1"
   x="0px"
   y="0px"
   viewBox="0 0 66 57.6"
   style="enable-background:new 0 0 66 57.6;"
   xml:space="preserve"
   sodipodi:docname="立体按钮一_166.svg"><metadata
   id="metadata53"><rdf:RDF><cc:Work
       rdf:about=""><dc:format>image/svg+xml</dc:format><dc:type
         rdf:resource="http://purl.org/dc/dcmitype/StillImage" /></cc:Work></rdf:RDF></metadata><defs
   id="defs51" /><sodipodi:namedview
   pagecolor="#ffffff"
   bordercolor="#666666"
   borderopacity="1"
   objecttolerance="10"
   gridtolerance="10"
   guidetolerance="10"
   inkscape:pageopacity="0"
   inkscape:pageshadow="2"
   inkscape:window-width="640"
   inkscape:window-height="480"
   id="namedview49" />
<style
   type="text/css"
   id="style2">
	.st0{fill:url(#SVGID_1_);}
	.st1{fill:url(#SVGID_2_);}
	.st2{fill:url(#SVGID_3_);}
	.st3{fill:url(#SVGID_4_);}
</style>
<title
   id="title4">资源 166</title>
<g
   id="g46">
	<g
   id="图层_2_1_">
		<g
   id="图层_1-2">
			
				<linearGradient
   id="SVGID_1_"
   gradientUnits="userSpaceOnUse"
   x1="-118.2777"
   y1="-267.4731"
   x2="-118.2777"
   y2="-332.5931"
   gradientTransform="matrix(0.94 -0.34 -0.34 -0.94 35.11 -285.31)">
				<stop
   offset="0"
   style="stop-color:#CFCECE"
   id="stop6" />
				<stop
   offset="1"
   style="stop-color:#434040"
   id="stop8" />
			</linearGradient>
			<path
   class="st0"
   d="M65.9,55.8c0.3,0.5,0.2,1.1-0.3,1.4c-0.2,0.1-0.4,0.2-0.6,0.2l-32,0.1L1,57.6c-0.6,0-1-0.4-1-1     C0,56.4,0,56.2,0.1,56L16,28.3L31.9,0.5c0.3-0.5,0.9-0.7,1.4-0.4c0.2,0.1,0.3,0.2,0.4,0.4l16.1,27.6L65.9,55.8z"
   id="path11" />
			
				<linearGradient
   id="SVGID_2_"
   gradientUnits="userSpaceOnUse"
   x1="-117.777"
   y1="-268.8631"
   x2="-117.777"
   y2="-330.6531"
   gradientTransform="matrix(0.94 -0.34 -0.34 -0.94 35.11 -285.31)">
				<stop
   offset="0"
   style="stop-color:#CFCECE"
   id="stop13" />
				<stop
   offset="1"
   style="stop-color:#434040"
   id="stop15" />
			</linearGradient>
			<path
   class="st1"
   d="M64.2,54.3c0.3,0.5,0.2,1.1-0.3,1.4c-0.2,0.1-0.4,0.2-0.6,0.2L33,56L2.7,56.1c-0.6,0-1-0.4-1-1     c0-0.2,0-0.4,0.1-0.6l15.1-26.3L31.9,2c0.3-0.5,0.9-0.7,1.4-0.4c0.2,0.1,0.3,0.2,0.4,0.4l15.3,26.1L64.2,54.3z"
   id="path18" />
			
				<linearGradient
   id="SVGID_3_"
   gradientUnits="userSpaceOnUse"
   x1="-115.5939"
   y1="-269.8304"
   x2="-117.6654"
   y2="-327.9629"
   gradientTransform="matrix(0.94 -0.34 -0.34 -0.94 35.11 -285.31)">
				<stop
   offset="0"
   style="stop-color:#BEBEBE"
   id="stop20" />
				<stop
   offset="0.3"
   style="stop-color:#B0B0B0"
   id="stop22" />
				<stop
   offset="0.72"
   style="stop-color:#8A8A8A"
   id="stop24" />
				<stop
   offset="1"
   style="stop-color:#696969"
   id="stop26" />
			</linearGradient>
			<path
   class="st2"
   d="M62.6,53c0.3,0.5,0.1,1.1-0.3,1.4c-0.2,0.1-0.3,0.1-0.5,0.1L33,54.6L4.3,54.7c-0.6,0-1-0.4-1-1     c0-0.2,0-0.4,0.2-0.6l14.2-24.9L31.9,3.4c0.3-0.5,0.9-0.7,1.4-0.4c0.2,0.1,0.3,0.2,0.4,0.4l14.5,24.8L62.6,53z"
   id="path29" />
			
				<linearGradient
   id="SVGID_4_"
   gradientUnits="userSpaceOnUse"
   x1="-118.5825"
   y1="-271.4854"
   x2="-118.5825"
   y2="-307.3354"
   gradientTransform="matrix(0.94 -0.34 -0.34 -0.94 35.11 -285.31)">
				<stop
   offset="0"
   style="stop-color:#B1ADB1"
   id="stop31" />
				<stop
   offset="0.3"
   style="stop-color:#CCC9CC;stop-opacity:0.66"
   id="stop33" />
				<stop
   offset="0.63"
   style="stop-color:#E7E6E7;stop-opacity:0.3"
   id="stop35" />
				<stop
   offset="0.87"
   style="stop-color:#F8F8F8;stop-opacity:8.000000e-02"
   id="stop37" />
				<stop
   offset="1"
   style="stop-color:#FFFFFF;stop-opacity:0"
   id="stop39" />
			</linearGradient>
			<path
   class="st3"
   d="M7.3,51.5c-0.5,0.3-1.1,0.1-1.4-0.4c-0.2-0.3-0.2-0.7,0-1l12.5-21.8L31.9,4.7c0.3-0.5,0.9-0.7,1.4-0.4     c0.2,0.1,0.3,0.2,0.4,0.4l13.2,22.6c0.3,0.5,0.1,1.1-0.3,1.4c0,0,0,0,0,0L7.3,51.5z"
   id="path42" />
		</g>
	</g>
</g>
</svg>
