<?xml version="1.0" encoding="UTF-8" standalone="no"?>
<svg
   xmlns:dc="http://purl.org/dc/elements/1.1/"
   xmlns:cc="http://creativecommons.org/ns#"
   xmlns:rdf="http://www.w3.org/1999/02/22-rdf-syntax-ns#"
   xmlns:svg="http://www.w3.org/2000/svg"
   xmlns="http://www.w3.org/2000/svg"
   xmlns:sodipodi="http://sodipodi.sourceforge.net/DTD/sodipodi-0.dtd"
   xmlns:inkscape="http://www.inkscape.org/namespaces/inkscape"
   version="1.1"
   id="图层_1"
   x="0px"
   y="0px"
   viewBox="0 0 66 57.6"
   style="enable-background:new 0 0 66 57.6;"
   xml:space="preserve"
   sodipodi:docname="立体按钮一_169.svg"><metadata
   id="metadata49"><rdf:RDF><cc:Work
       rdf:about=""><dc:format>image/svg+xml</dc:format><dc:type
         rdf:resource="http://purl.org/dc/dcmitype/StillImage" /></cc:Work></rdf:RDF></metadata><defs
   id="defs47" /><sodipodi:namedview
   pagecolor="#ffffff"
   bordercolor="#666666"
   borderopacity="1"
   objecttolerance="10"
   gridtolerance="10"
   guidetolerance="10"
   inkscape:pageopacity="0"
   inkscape:pageshadow="2"
   inkscape:window-width="640"
   inkscape:window-height="480"
   id="namedview45" />
<style
   type="text/css"
   id="style2">
	.st0{fill:url(#SVGID_1_);}
	.st1{fill:url(#SVGID_2_);}
	.st2{fill:url(#SVGID_3_);}
	.st3{fill:url(#SVGID_4_);}
</style>
<title
   id="title4">资源 169</title>
<g
   id="g42">
	<g
   id="图层_2_1_">
		<g
   id="图层_1-2">
			
				<linearGradient
   id="SVGID_1_"
   gradientUnits="userSpaceOnUse"
   x1="293.8242"
   y1="1010.8997"
   x2="293.8242"
   y2="945.7797"
   gradientTransform="matrix(0.94 0.34 -0.34 0.94 82.64 -999.59)">
				<stop
   offset="0"
   style="stop-color:#CFCECE"
   id="stop6" />
				<stop
   offset="1"
   style="stop-color:#434040"
   id="stop8" />
			</linearGradient>
			<path
   class="st0"
   d="M65.9,1.8c0.3-0.5,0.2-1.1-0.3-1.4c-0.2-0.1-0.4-0.2-0.6-0.2L33,0.1L1,0C0.4,0,0,0.4,0,1     c0,0.2,0,0.4,0.1,0.5L16,29.3L31.9,57c0.3,0.5,0.9,0.7,1.4,0.4c0.2-0.1,0.3-0.2,0.4-0.4l16.1-27.6L65.9,1.8z"
   id="path11" />
			
				<linearGradient
   id="SVGID_2_"
   gradientUnits="userSpaceOnUse"
   x1="294.3128"
   y1="1009.5098"
   x2="294.3128"
   y2="947.7197"
   gradientTransform="matrix(0.94 0.34 -0.34 0.94 82.64 -999.59)">
				<stop
   offset="0"
   style="stop-color:#CFCECE"
   id="stop13" />
				<stop
   offset="1"
   style="stop-color:#434040"
   id="stop15" />
			</linearGradient>
			<path
   class="st1"
   d="M64.2,3.2c0.3-0.5,0.2-1.1-0.3-1.4c-0.2-0.1-0.4-0.2-0.6-0.2L33,1.6L2.7,1.5c-0.6,0-1,0.4-1,0.9     c0,0.2,0,0.4,0.2,0.6l15.1,26.3l15.1,26.3c0.3,0.5,0.9,0.7,1.4,0.4c0.2-0.1,0.3-0.2,0.4-0.4l15.3-26.2L64.2,3.2z"
   id="path18" />
			
				<linearGradient
   id="SVGID_3_"
   gradientUnits="userSpaceOnUse"
   x1="296.4886"
   y1="1008.5999"
   x2="294.4184"
   y2="950.5034"
   gradientTransform="matrix(0.94 0.34 -0.34 0.94 82.64 -999.59)">
				<stop
   offset="0"
   style="stop-color:#8CFAF5"
   id="stop20" />
				<stop
   offset="1"
   style="stop-color:#044E7E"
   id="stop22" />
			</linearGradient>
			<path
   class="st2"
   d="M62.6,4.6c0.3-0.5,0.2-1.1-0.3-1.4c-0.2-0.1-0.4-0.2-0.6-0.2L33,3L4.3,2.9c-0.6,0-1,0.4-1,1     c0,0.2,0,0.4,0.1,0.5l14.3,24.9l14.3,24.9c0.3,0.5,0.9,0.7,1.4,0.4c0.2-0.1,0.3-0.2,0.4-0.4l14.5-24.8L62.6,4.6z"
   id="path25" />
			
				<linearGradient
   id="SVGID_4_"
   gradientUnits="userSpaceOnUse"
   x1="293.5002"
   y1="1006.8798"
   x2="293.5002"
   y2="971.0297"
   gradientTransform="matrix(0.94 0.34 -0.34 0.94 82.64 -999.59)">
				<stop
   offset="0"
   style="stop-color:#FFFFFF;stop-opacity:0.6"
   id="stop27" />
				<stop
   offset="7.000000e-02"
   style="stop-color:#FFFFFF;stop-opacity:0.56"
   id="stop29" />
				<stop
   offset="0.51"
   style="stop-color:#FFFFFF;stop-opacity:0.31"
   id="stop31" />
				<stop
   offset="0.83"
   style="stop-color:#FFFFFF;stop-opacity:0.16"
   id="stop33" />
				<stop
   offset="1"
   style="stop-color:#FFFFFF;stop-opacity:0.1"
   id="stop35" />
			</linearGradient>
			<path
   class="st3"
   d="M7.3,6.1C6.9,5.8,6.3,6,6,6.5c-0.2,0.3-0.2,0.7,0,1l12.5,21.8l13.5,23.6c0.3,0.5,0.9,0.7,1.4,0.4     c0.2-0.1,0.3-0.2,0.4-0.4l13.2-22.6c0.3-0.5,0.1-1.1-0.3-1.4c0,0,0,0,0,0L7.3,6.1z"
   id="path38" />
		</g>
	</g>
</g>
</svg>
