<?xml version="1.0" encoding="UTF-8" standalone="no"?>
<svg
   xmlns:dc="http://purl.org/dc/elements/1.1/"
   xmlns:cc="http://creativecommons.org/ns#"
   xmlns:rdf="http://www.w3.org/1999/02/22-rdf-syntax-ns#"
   xmlns:svg="http://www.w3.org/2000/svg"
   xmlns="http://www.w3.org/2000/svg"
   xmlns:sodipodi="http://sodipodi.sourceforge.net/DTD/sodipodi-0.dtd"
   xmlns:inkscape="http://www.inkscape.org/namespaces/inkscape"
   version="1.1"
   id="图层_1"
   x="0px"
   y="0px"
   viewBox="0 0 75.3 75.3"
   style="enable-background:new 0 0 75.3 75.3;"
   xml:space="preserve"
   sodipodi:docname="立体按钮一_19.svg"><metadata
   id="metadata59"><rdf:RDF><cc:Work
       rdf:about=""><dc:format>image/svg+xml</dc:format><dc:type
         rdf:resource="http://purl.org/dc/dcmitype/StillImage" /></cc:Work></rdf:RDF></metadata><defs
   id="defs57" /><sodipodi:namedview
   pagecolor="#ffffff"
   bordercolor="#666666"
   borderopacity="1"
   objecttolerance="10"
   gridtolerance="10"
   guidetolerance="10"
   inkscape:pageopacity="0"
   inkscape:pageshadow="2"
   inkscape:window-width="640"
   inkscape:window-height="480"
   id="namedview55" />
<style
   type="text/css"
   id="style2">
	.st0{fill:url(#SVGID_1_);}
	.st1{fill:url(#SVGID_2_);}
	.st2{fill:#D6695A;}
	.st3{fill:url(#SVGID_3_);}
	.st4{fill:url(#SVGID_4_);}
	.st5{fill:url(#SVGID_5_);}
	.st6{fill:url(#SVGID_6_);}
</style>
<title
   id="title4">资源 19</title>
<g
   id="图层_2_1_">
	<g
   id="图层_1-2">
		
			<linearGradient
   id="SVGID_1_"
   gradientUnits="userSpaceOnUse"
   x1="11.14"
   y1="66.86"
   x2="64.63"
   y2="13.37"
   gradientTransform="matrix(1 0 0 -1 0 78)">
			<stop
   offset="0"
   style="stop-color:#E96472"
   id="stop6" />
			<stop
   offset="1"
   style="stop-color:#8C1D0C"
   id="stop8" />
		</linearGradient>
		<circle
   class="st0"
   cx="37.7"
   cy="37.7"
   r="37.7"
   id="circle11" />
		
			<linearGradient
   id="SVGID_2_"
   gradientUnits="userSpaceOnUse"
   x1="13.57"
   y1="64.43"
   x2="62.16"
   y2="15.84"
   gradientTransform="matrix(1 0 0 -1 0 78)">
			<stop
   offset="0"
   style="stop-color:#8C1D0C"
   id="stop13" />
			<stop
   offset="1"
   style="stop-color:#E96472"
   id="stop15" />
		</linearGradient>
		<circle
   class="st1"
   cx="37.7"
   cy="37.7"
   r="34.2"
   id="circle18" />
		<path
   class="st2"
   d="M37.7,72.1c-19,0-34.4-15.4-34.4-34.4S18.7,3.2,37.7,3.2s34.4,15.4,34.4,34.4l0,0    C72.1,56.7,56.7,72.1,37.7,72.1z M37.7,3.6c-18.8,0-34,15.2-34,34s15.2,34,34,34s34-15.2,34-34C71.6,18.9,56.4,3.7,37.7,3.6z"
   id="path20" />
		
			<linearGradient
   id="SVGID_3_"
   gradientUnits="userSpaceOnUse"
   x1="13.64"
   y1="64.36"
   x2="56.74"
   y2="21.26"
   gradientTransform="matrix(1 0 0 -1 0 78)">
			<stop
   offset="0"
   style="stop-color:#E96472"
   id="stop22" />
			<stop
   offset="1"
   style="stop-color:#8C1D0C"
   id="stop24" />
		</linearGradient>
		<circle
   class="st3"
   cx="37.7"
   cy="37.7"
   r="27.9"
   id="circle27" />
		
			<linearGradient
   id="SVGID_4_"
   gradientUnits="userSpaceOnUse"
   x1="14.99"
   y1="63.01"
   x2="55.67"
   y2="22.33"
   gradientTransform="matrix(1 0 0 -1 0 78)">
			<stop
   offset="0"
   style="stop-color:#FAFAFA"
   id="stop29" />
			<stop
   offset="0.97"
   style="stop-color:#D2D2D2"
   id="stop31" />
			<stop
   offset="1"
   style="stop-color:#FFFFFF"
   id="stop33" />
		</linearGradient>
		<circle
   class="st4"
   cx="37.7"
   cy="37.7"
   r="26.3"
   id="circle36" />
		
			<linearGradient
   id="SVGID_5_"
   gradientUnits="userSpaceOnUse"
   x1="37.6853"
   y1="57.17"
   x2="37.6853"
   y2="24.13"
   gradientTransform="matrix(1 0 0 -1 0 78)">
			<stop
   offset="0"
   style="stop-color:#E96472"
   id="stop38" />
			<stop
   offset="1"
   style="stop-color:#8C1D0C"
   id="stop40" />
		</linearGradient>
		<path
   class="st5"
   d="M37.7,54.6c-8.7,0-15.8-7.1-15.8-15.8c0-3.6,1.2-7.2,3.5-10c0.8-1,2.2-1.1,3.2-0.3c1,0.8,1.1,2.2,0.3,3.2    c-4,4.9-3.2,12,1.7,16s12,3.2,16-1.7c3.4-4.2,3.4-10.1,0-14.3c-0.8-1-0.6-2.4,0.3-3.2c1-0.8,2.4-0.6,3.2,0.3    c5.5,6.8,4.5,16.8-2.3,22.3C44.9,53.4,41.3,54.6,37.7,54.6L37.7,54.6z"
   id="path43" />
		
			<linearGradient
   id="SVGID_6_"
   gradientUnits="userSpaceOnUse"
   x1="37.67"
   y1="57.17"
   x2="37.67"
   y2="24.13"
   gradientTransform="matrix(1 0 0 -1 0 78)">
			<stop
   offset="0"
   style="stop-color:#E96472"
   id="stop45" />
			<stop
   offset="1"
   style="stop-color:#8C1D0C"
   id="stop47" />
		</linearGradient>
		<path
   class="st6"
   d="M37.7,41c-1.2,0-2.2-1-2.2-2.2v0V23c0-1.2,1-2.2,2.2-2.2s2.2,1,2.2,2.2c0,0,0,0,0,0v15.8    C39.9,40,38.9,41,37.7,41z"
   id="path50" />
	</g>
</g>
</svg>
