<?xml version="1.0" encoding="UTF-8" standalone="no"?>
<svg
   xmlns:dc="http://purl.org/dc/elements/1.1/"
   xmlns:cc="http://creativecommons.org/ns#"
   xmlns:rdf="http://www.w3.org/1999/02/22-rdf-syntax-ns#"
   xmlns:svg="http://www.w3.org/2000/svg"
   xmlns="http://www.w3.org/2000/svg"
   xmlns:sodipodi="http://sodipodi.sourceforge.net/DTD/sodipodi-0.dtd"
   xmlns:inkscape="http://www.inkscape.org/namespaces/inkscape"
   version="1.1"
   id="图层_1"
   x="0px"
   y="0px"
   viewBox="0 0 69.2 69.2"
   style="enable-background:new 0 0 69.2 69.2;"
   xml:space="preserve"
   sodipodi:docname="立体按钮一_22.svg"><metadata
   id="metadata45"><rdf:RDF><cc:Work
       rdf:about=""><dc:format>image/svg+xml</dc:format><dc:type
         rdf:resource="http://purl.org/dc/dcmitype/StillImage" /></cc:Work></rdf:RDF></metadata><defs
   id="defs43" /><sodipodi:namedview
   pagecolor="#ffffff"
   bordercolor="#666666"
   borderopacity="1"
   objecttolerance="10"
   gridtolerance="10"
   guidetolerance="10"
   inkscape:pageopacity="0"
   inkscape:pageshadow="2"
   inkscape:window-width="640"
   inkscape:window-height="480"
   id="namedview41" />
<style
   type="text/css"
   id="style2">
	.st0{fill:url(#SVGID_1_);}
	.st1{fill:url(#SVGID_2_);}
	.st2{fill:#D6695A;}
	.st3{fill:url(#SVGID_3_);}
	.st4{fill:url(#SVGID_4_);}
</style>
<title
   id="title4">资源 22</title>
<g
   id="图层_2_1_">
	<g
   id="图层_1-2">
		
			<linearGradient
   id="SVGID_1_"
   gradientUnits="userSpaceOnUse"
   x1="5.38"
   y1="66.62"
   x2="63.98"
   y2="8.02"
   gradientTransform="matrix(1 0 0 -1 0 72)">
			<stop
   offset="0"
   style="stop-color:#E96472"
   id="stop6" />
			<stop
   offset="1"
   style="stop-color:#8C1D0C"
   id="stop8" />
		</linearGradient>
		<path
   class="st0"
   d="M17.3,0h34.6c9.5,0,17.3,7.7,17.3,17.3v34.6c0,9.5-7.7,17.3-17.3,17.3H17.3C7.7,69.2,0,61.4,0,51.9V17.3    C0,7.7,7.7,0,17.3,0z"
   id="path11" />
		
			<linearGradient
   id="SVGID_2_"
   gradientUnits="userSpaceOnUse"
   x1="69.54"
   y1="2.46"
   x2="9.43"
   y2="62.57"
   gradientTransform="matrix(1 0 0 -1 0 72)">
			<stop
   offset="0"
   style="stop-color:#E96472"
   id="stop13" />
			<stop
   offset="1"
   style="stop-color:#8C1D0C"
   id="stop15" />
		</linearGradient>
		<path
   class="st1"
   d="M19.4,3.4h30.4c8.8,0,16,7.1,16,15.9v30.4c0,8.8-7.1,16-16,16H19.4c-8.8,0-15.9-7.1-15.9-16V19.4    C3.4,10.6,10.6,3.4,19.4,3.4z"
   id="path18" />
		<path
   class="st2"
   d="M52,65.9H17.2c-7.7,0-14-6.3-14-14V17.2c0-7.7,6.3-14,14-14H52c7.7,0,14,6.3,14,14V52    C66,59.7,59.7,65.9,52,65.9z M17.2,3.6C9.7,3.6,3.6,9.7,3.6,17.2V52c0,7.5,6.1,13.5,13.6,13.5H52c7.5,0,13.5-6.1,13.5-13.5V17.2    c0-7.5-6.1-13.5-13.5-13.6H17.2z"
   id="path20" />
		
			<linearGradient
   id="SVGID_3_"
   gradientUnits="userSpaceOnUse"
   x1="34.575"
   y1="75.71"
   x2="34.575"
   y2="11.53"
   gradientTransform="matrix(1 0 0 -1 0 72)">
			<stop
   offset="0"
   style="stop-color:#E96472"
   id="stop22" />
			<stop
   offset="1"
   style="stop-color:#8C1D0C"
   id="stop24" />
		</linearGradient>
		<path
   class="st3"
   d="M19.1,8.4h31c5.9,0,10.6,4.8,10.6,10.6v31c0,5.9-4.8,10.6-10.6,10.6h-31c-5.9,0-10.6-4.8-10.6-10.6v-31    C8.4,13.2,13.2,8.4,19.1,8.4z"
   id="path27" />
		
			<linearGradient
   id="SVGID_4_"
   gradientUnits="userSpaceOnUse"
   x1="34.575"
   y1="61.71"
   x2="34.575"
   y2="12.63"
   gradientTransform="matrix(1 0 0 -1 0 72)">
			<stop
   offset="0"
   style="stop-color:#FAFAFA"
   id="stop29" />
			<stop
   offset="0.97"
   style="stop-color:#D2D2D2"
   id="stop31" />
			<stop
   offset="1"
   style="stop-color:#FFFFFF"
   id="stop33" />
		</linearGradient>
		<path
   class="st4"
   d="M19.1,9.8h31c5.1,0,9.3,4.2,9.3,9.3v31c0,5.1-4.2,9.3-9.3,9.3h-31c-5.1,0-9.3-4.2-9.3-9.3v-31    C9.8,13.9,13.9,9.8,19.1,9.8z"
   id="path36" />
	</g>
</g>
</svg>
