<?xml version="1.0" encoding="UTF-8"?>
<svg width="82px" height="76px" viewBox="0 0 82 76" version="1.1" xmlns="http://www.w3.org/2000/svg" xmlns:xlink="http://www.w3.org/1999/xlink">
    <!-- Generator: Sketch 61 (89581) - https://sketch.com -->
    <title>编组 30</title>
    <desc>Created with Sketch.</desc>
    <defs>
        <filter x="-36.4%" y="-54.8%" width="172.7%" height="209.5%" filterUnits="objectBoundingBox" id="filter-1">
            <feOffset dx="0" dy="4" in="SourceAlpha" result="shadowOffsetOuter1"></feOffset>
            <feGaussianBlur stdDeviation="4" in="shadowOffsetOuter1" result="shadowBlurOuter1"></feGaussianBlur>
            <feColorMatrix values="0 0 0 0 0.780716086   0 0 0 0 0.288786101   0 0 0 0 0.907297328  0 0 0 0.100251311 0" type="matrix" in="shadowBlurOuter1" result="shadowMatrixOuter1"></feColorMatrix>
            <feMerge>
                <feMergeNode in="shadowMatrixOuter1"></feMergeNode>
                <feMergeNode in="SourceGraphic"></feMergeNode>
            </feMerge>
        </filter>
        <linearGradient x1="50%" y1="0%" x2="50%" y2="99.2266681%" id="linearGradient-2">
            <stop stop-color="#A0A2FF" offset="0%"></stop>
            <stop stop-color="#0080FF" offset="100%"></stop>
        </linearGradient>
        <linearGradient x1="50%" y1="0%" x2="50%" y2="99.2266681%" id="linearGradient-3">
            <stop stop-color="#686CF4" offset="0.469805743%"></stop>
            <stop stop-color="#044CF1" offset="100%"></stop>
        </linearGradient>
        <linearGradient x1="91.8905188%" y1="67.6899895%" x2="17.9431479%" y2="32.399528%" id="linearGradient-4">
            <stop stop-color="#0408CF" offset="0%"></stop>
            <stop stop-color="#4B00FF" offset="100%"></stop>
        </linearGradient>
        <linearGradient x1="96.8093455%" y1="32.015495%" x2="3.1906545%" y2="67.4034408%" id="linearGradient-5">
            <stop stop-color="#122AF8" offset="0%"></stop>
            <stop stop-color="#0073FF" offset="100%"></stop>
        </linearGradient>
        <polygon id="path-6" points="19.4098488 0 0.165515273 9.60153368 0.165515273 29.9011527 29.0968995 15.8584785"></polygon>
        <filter x="-118.1%" y="-135.8%" width="336.2%" height="371.6%" filterUnits="objectBoundingBox" id="filter-8">
            <feGaussianBlur stdDeviation="10.8571429" in="SourceGraphic"></feGaussianBlur>
        </filter>
        <linearGradient x1="50%" y1="17.5660418%" x2="50%" y2="100%" id="linearGradient-9">
            <stop stop-color="#FE7800" offset="0%"></stop>
            <stop stop-color="#FEED7E" offset="100%"></stop>
        </linearGradient>
    </defs>
    <g id="页面-1" stroke="none" stroke-width="1" fill="none" fill-rule="evenodd">
        <g id="3大数据可视化蓝色科技智慧车辆大屏后台统计" transform="translate(-1236.000000, -914.000000)">
            <g id="原创-icon" transform="translate(574.000000, 901.000000)">
                <g id="编组-30" transform="translate(670.000000, 13.000000)">
                    <rect id="矩形" fill-opacity="0.01" fill="#0B083D" x="2.62900812e-13" y="2.62900812e-13" width="66.9642857" height="66.9642857"></rect>
                    <g id="编组-2备份-2" filter="url(#filter-1)" transform="translate(0.000000, 22.000000)">
                        <polygon id="路径-4" stroke="#475EFF" stroke-width="1.01785714" stroke-linejoin="round" points="32.1566975 10.0446429 0 24.9193483 32.1566975 41.2946429 65.8482143 24.9193483"></polygon>
                        <polygon id="路径-5" fill="#2C34E8" points="32.6564222 10.0446429 4.54125616 22.868456 32.6564222 36.8303571 61.3069581 22.868456"></polygon>
                        <polygon id="路径-6" fill="url(#linearGradient-2)" opacity="0.885602679" points="32.2535829 0 14.7590825 7.11491266 32.2535829 16.7410714 51.0891318 7.11491266"></polygon>
                        <polygon id="路径-6" fill="url(#linearGradient-3)" points="32.9679171 2.23214286 19.3003387 7.92407299 32.9679171 15.625 47.6831897 7.92407299"></polygon>
                        <polygon id="路径-7" fill="url(#linearGradient-4)" opacity="0.697567894" points="15.05491 6.69642857 4.54125616 22.6783629 32.9241071 36.8303571 32.9241071 16.3727087"></polygon>
                        <g id="椭圆形" transform="translate(31.788793, 7.812500)">
                            <mask id="mask-7" fill="white">
                                <use xlink:href="#path-6"></use>
                            </mask>
                            <use id="蒙版" fill="url(#linearGradient-5)" opacity="0.697567894" xlink:href="#path-6"></use>
                            <ellipse fill="#2ACFF6" filter="url(#filter-8)" mask="url(#mask-7)" cx="-0.626803402" cy="21.8203125" rx="13.7896748" ry="11.9918033"></ellipse>
                        </g>
                    </g>
                    <g id="编组-40" transform="translate(17.000000, 3.000000)">
                        <circle id="椭圆形" fill="#0A073B" cx="15.625" cy="15.625" r="11.1607143"></circle>
                        <g id="车轮" fill-rule="nonzero">
                            <rect id="矩形" fill="#000000" opacity="0" x="0" y="0" width="31.25" height="31.25"></rect>
                            <path d="M15.625,2.23214286 C8.22817265,2.23214286 2.23214286,8.22816577 2.23214286,15.6250154 C2.23214286,23.0218035 8.22814197,29.0178571 15.625,29.0178571 C23.0217967,29.0178571 29.0178571,23.0218649 29.0178571,15.6250154 C29.0178571,8.22816577 23.0217967,2.23214286 15.625,2.23214286 Z M15.625,26.1399933 C9.82546674,26.1399933 5.11099221,21.4234677 5.11099221,15.6249846 C5.11099221,9.82650159 9.82546674,5.10991465 15.625,5.10991465 C21.4234897,5.10991465 26.1420771,9.8264709 26.1420771,15.6249846 C26.1420771,21.4234677 21.4234897,26.1399933 15.625,26.1399933 Z M15.625,6.30893509 C10.4787978,6.30893509 6.30893974,10.4798319 6.30893974,15.6249847 C6.30893974,20.7701067 10.4787978,24.9409729 15.625,24.9409729 C20.7711715,24.9409729 24.9409682,20.7700453 24.9409682,15.6249847 C24.9409682,10.4798319 20.7711715,6.30893509 15.625,6.30893509 Z M22.4134002,18.5153099 C22.4050517,18.5100921 22.3977467,18.4985822 22.391424,18.4933644 L19.0160234,16.2636437 C19.0536837,16.0556683 19.080847,15.8434571 19.080847,15.624954 C19.080847,15.4064201 19.056753,15.1942397 19.0160234,14.9861721 L22.391424,12.7564821 C22.3987289,12.7512643 22.4060645,12.7397851 22.4134002,12.7345366 C22.7918141,13.6230978 23.002955,14.5994101 23.002955,15.6249232 C23.0039947,16.6493928 22.7918141,17.6267794 22.4134002,18.5153099 Z M21.4715242,11.1394543 C21.4683628,11.1404978 21.4621015,11.1415414 21.4590015,11.142585 L17.8368599,12.9938922 C17.5295616,12.7346288 17.1803982,12.5276661 16.7957229,12.3876142 L16.5866729,8.33068027 C16.5866729,8.32543178 16.5824372,8.31812685 16.5824372,8.31290905 C18.5686423,8.57312396 20.3060192,9.62368253 21.4715242,11.1394543 Z M15.6229129,17.2682243 C14.7144923,17.2682243 13.9796407,16.5322378 13.9796407,15.6249846 C13.9796407,14.7176087 14.7144923,13.9816836 15.6229129,13.9816836 C16.5292156,13.9816836 17.264098,14.7176087 17.264098,15.6249846 C17.264098,16.5322992 16.5292156,17.2682243 15.6229129,17.2682243 Z M14.7291022,8.30449918 C14.728028,8.31284765 14.7228102,8.32432683 14.7217973,8.33169313 L14.4803048,12.379235 C14.0715969,12.5234919 13.7036186,12.7388337 13.3817105,13.0137505 L9.75435109,11.2001036 C9.74913328,11.1980165 9.7407848,11.1980165 9.73657986,11.1948551 C10.9136561,9.63310526 12.6917627,8.55222204 14.7291022,8.30449918 Z M8.80940589,12.8015394 C8.81358015,12.8046701 8.81775438,12.811975 8.82189795,12.8140621 L12.2265797,15.0197195 C12.193155,15.2162465 12.1659303,15.4169171 12.1659303,15.6250154 C12.1659303,15.8330215 12.1920808,16.0336921 12.2276232,16.2312627 L8.8229415,18.4359072 C8.81879795,18.4390379 8.81354943,18.4463428 8.80940589,18.4494121 C8.44667608,17.5786836 8.24486965,16.6253296 8.24486965,15.6250154 C8.24594392,14.6245784 8.44768894,13.6722986 8.80940589,12.8015394 Z M9.73762341,20.0561271 C9.74185903,20.0540706 9.75122041,20.052935 9.75542536,20.0509093 L13.3827234,18.2372317 C13.7046929,18.5142049 14.0726712,18.7285338 14.4813791,18.8707343 L14.7228409,22.9193504 C14.7228409,22.9265939 14.7291329,22.9381038 14.7291329,22.9454394 C12.6928062,22.6987601 10.914669,21.6178769 9.73762341,20.0561271 Z M16.5835422,22.9360781 C16.5835422,22.9308296 16.5877472,22.9245682 16.5877472,22.9193811 L16.7968278,18.8623858 C17.1804596,18.7211982 17.5306666,18.5152792 17.8379956,18.2560464 L21.4601065,20.1073229 C21.4632679,20.1083665 21.4684243,20.1093794 21.4716163,20.1104843 C20.3060192,21.6262561 18.5686423,22.6757711 16.5835422,22.9360781 Z" id="形状" fill="url(#linearGradient-9)"></path>
                        </g>
                    </g>
                </g>
            </g>
        </g>
    </g>
</svg>