<?xml version="1.0" encoding="utf-8"?>
<!-- Generator: Adobe Illustrator 14.0.0, SVG Export Plug-In . SVG Version: 6.00 Build 43363)  -->
<!DOCTYPE svg PUBLIC "-//W3C//DTD SVG 1.1//EN" "http://www.w3.org/Graphics/SVG/1.1/DTD/svg11.dtd">
<svg version="1.1" id="图层_1" xmlns="http://www.w3.org/2000/svg" xmlns:xlink="http://www.w3.org/1999/xlink" x="0px" y="0px"
	 width="56.182px" height="106.502px" viewBox="0 0 56.182 106.502" enable-background="new 0 0 56.182 106.502"
	 xml:space="preserve">
<path stroke="#000000" stroke-width="2" d="M2.985,36.46l2.133-13.432l1.492-5.971l3.198-5.224l4.157-4.264l5.224-2.985l5.864-1.599
	h5.97l5.863,1.599l5.437,2.985l4.265,4.264l2.984,5.224l1.6,5.971l2.025,13.432H2.985z"/>
<path fill="#B2B2B2" d="M36.033,45.523l-5.117,1.492h-5.438l-5.437-1.6l-4.904-2.665l-3.731-3.838l-2.878-4.797l-1.386-5.438v-5.437
	l1.386-5.437l2.878-4.584l3.731-4.052l4.904-2.559l5.224-1.492h5.65l5.117,1.492l4.903,2.559l3.838,4.052l2.771,4.797l1.386,5.224
	v5.437l-1.386,5.438l-2.771,4.797l-3.838,3.838L36.033,45.523z"/>
<path d="M24.626,103.409l-4.798-1.173v-7.249h16.631v7.249l-5.011,1.173H24.626z"/>
<path fill="#1F1F1F" d="M25.266,103.409l-4.051-1.173v-7.249h13.646v7.249l-3.944,1.173H25.266z"/>
<path fill="#404040" d="M25.799,103.409l-2.985-1.173v-7.249h10.447v7.249l-2.984,1.173H25.799z"/>
<path fill="#5E5E5E" d="M26.652,103.409l-2.238-1.173v-7.249h7.462v7.249l-2.238,1.173H26.652z"/>
<path fill="#7F7F7F" d="M27.291,103.409l-1.279-1.173v-7.249h4.265v7.249l-1.173,1.173H27.291z"/>
<path fill="none" stroke="#000000" stroke-width="2" d="M24.626,103.409l-4.798-1.173v-7.249h16.631v7.249l-5.011,1.173H24.626"/>
<path fill="#E54C00" d="M37.739,95.414l-6.29,0.213h-6.609l-6.396-0.213l-5.649-0.64l-4.798-0.746l-3.198-1.066l-1.813-0.96V36.46
	h50.212v55.542l-1.599,0.96l-3.412,1.066l-4.69,0.746L37.739,95.414z"/>
<path fill="#EB5200" d="M36.673,95.2l-5.65,0.427h-5.757L19.403,95.2l-5.011-0.426l-4.157-0.746l-3.092-1.066l-1.6-0.96V36.46
	h44.988v55.542l-1.386,0.96l-2.985,1.066l-4.264,0.746L36.673,95.2z"/>
<path fill="#F25900" d="M35.713,95.2l-5.011,0.427h-5.224L20.468,95.2l-4.69-0.426l-3.624-0.746l-2.559-1.066l-1.387-0.96V36.46
	h39.765v55.542l-1.279,0.96l-2.771,1.066l-3.625,0.746L35.713,95.2z"/>
<path fill="#F75E00" d="M34.647,95.2l-4.157,0.427h-4.69L21.428,95.2l-4.051-0.426l-3.198-0.746l-2.239-1.066l-1.173-0.96V36.46
	h34.541v55.542l-1.173,0.96l-2.238,1.066l-3.198,0.746L34.647,95.2z"/>
<path fill="#FF6600" d="M33.688,95.414l-3.625,0.213h-3.838l-3.838-0.213l-3.411-0.64l-2.559-0.746l-2.025-1.066l-0.959-0.96V36.46
	h29.316v55.542l-1.066,0.96l-1.705,1.066l-2.879,0.746L33.688,95.414z"/>
<path fill="none" stroke="#000000" stroke-width="2" d="M37.739,95.414l-6.29,0.213h-6.609l-6.396-0.213l-5.649-0.64l-4.798-0.746
	l-3.198-1.066l-1.813-0.96V36.46h50.212v55.542l-1.599,0.96l-3.412,1.066l-4.69,0.746L37.739,95.414"/>
<path fill="#FF6600" stroke="#000000" stroke-width="2" d="M23.774,36.46v-2.132l4.264,2.132l4.265-2.132v2.132H23.774z"/>
<path fill="#4C4C4C" stroke="#000000" stroke-width="2" d="M24.839,33.903l-3.624-2.772l-1.813-4.051l2.665-13.646l19.829,15.244
	l-12.58,5.864L24.839,33.903z"/>
<path fill="#FFFFFF" d="M31.236,33.689l-1.919,0.64h-2.238l-2.239-0.64l-1.813-0.959l-1.599-1.6l-0.96-1.813l-0.64-2.238V24.84
	l0.64-1.918l0.96-2.026l1.599-1.599l1.813-1.066l2.239-0.64h2.238l7.143-2.132l-0.533,7.463l0.533,1.918v2.239l-0.533,2.238
	l-1.279,1.813l-1.386,1.6L31.236,33.689z"/>
<path stroke="#000000" stroke-width="2" d="M29.85,32.303h-3.411l-2.985-1.813l-1.599-2.771v-3.518l1.599-2.985l2.985-1.6h3.411
	l2.878,1.6l1.706,2.985v3.518l-1.706,2.771L29.85,32.303z"/>
<path fill="#7F7F7F" stroke="#000000" stroke-width="2" d="M25.479,14.82l0.96,0.64l-0.746,0.746l-0.854-0.533L25.479,14.82z"/>
<path fill="#7F7F7F" stroke="#000000" stroke-width="2" d="M40.297,26.227l1.066,0.64l-0.854,0.853l-0.853-0.64L40.297,26.227z"/>
<path fill="#E5E5E5" stroke="#000000" stroke-width="2" d="M38.698,25.054l1.599,1.173l-0.64,0.853l-1.599-1.173L38.698,25.054z"/>
<path fill="#E5E5E5" stroke="#000000" stroke-width="2" d="M23.774,13.434l1.705,1.386l-0.64,0.853L23.24,14.18L23.774,13.434z"/>
<path fill="#E5E5E5" stroke="#000000" stroke-width="2" d="M26.652,11.621l0.746,0.64l-1.705,2.559l-1.066-0.853L26.652,11.621z"/>
<path fill="#E5E5E5" stroke="#000000" stroke-width="2" d="M41.576,23.029l0.746,0.853l-1.813,2.346l-0.959-0.533L41.576,23.029z"/>
<path fill="#E5E5E5" stroke="#000000" stroke-width="2" d="M34.861,34.115v-1.6l1.173-1.279h1.918l1.173,1.279v1.6l-1.173,1.173
	h-1.918L34.861,34.115z"/>
<path fill="#E5E5E5" stroke="#000000" stroke-width="2" d="M18.443,35.288l-1.386-1.173v-1.6l1.386-1.279h1.6l1.173,1.279v1.6
	l-1.173,1.173H18.443z"/>
<path fill="none" stroke="#000000" stroke-width="2" d="M19.189,35.288v-4.052"/>
<path fill="none" stroke="#000000" stroke-width="2" d="M35.5,34.755l2.984-3.092"/>
<path d="M14.605,82.941l-1.172-1.065V80.49l1.172-1.173h1.387l1.065,1.173v1.386l-1.065,1.065H14.605z"/>
<path fill="none" stroke="#000000" stroke-width="2" d="M14.392,77.717h-5.65"/>
<path fill="none" stroke="#000000" stroke-width="2" d="M8.741,76.758h5.65"/>
<path fill="none" stroke="#000000" stroke-width="2" d="M14.392,84.967h-5.65"/>
<path fill="none" stroke="#000000" stroke-width="2" d="M8.741,83.901h5.65"/>
<path fill="none" stroke="#000000" stroke-width="2" d="M40.724,44.776h6.183"/>
<path fill="none" stroke="#000000" stroke-width="2" d="M47.973,45.736h-8.849"/>
<path fill="none" stroke="#000000" stroke-width="2" d="M40.724,47.334h6.183"/>
<path fill="none" stroke="#000000" stroke-width="2" d="M45.948,49.04h-4.265"/>
<path fill="none" stroke="#000000" stroke-width="2" d="M40.724,56.823h7.249"/>
<path fill="none" stroke="#000000" stroke-width="2" d="M47.973,57.781h-7.889"/>
<path fill="none" stroke="#000000" stroke-width="2" d="M42.11,59.061h3.838"/>
<path fill="none" stroke="#000000" stroke-width="2" d="M40.724,65.671h8.208"/>
<path fill="none" stroke="#000000" stroke-width="2" d="M42.11,66.844h4.797"/>
<path fill="none" stroke="#000000" stroke-width="2" d="M40.724,68.23h8.208"/>
<path fill="none" stroke="#000000" stroke-width="2" d="M47.973,73.133h-6.29"/>
<path d="M2.985,78.357l8.422-10.447v-1.599l-8.422-2.025V78.357z"/>
</svg>
