<?xml version="1.0" encoding="utf-8"?>
<!-- Generator: Adobe Illustrator 14.0.0, SVG Export Plug-In . SVG Version: 6.00 Build 43363)  -->
<!DOCTYPE svg PUBLIC "-//W3C//DTD SVG 1.1//EN" "http://www.w3.org/Graphics/SVG/1.1/DTD/svg11.dtd">
<svg version="1.1" id="图层_1" xmlns="http://www.w3.org/2000/svg" xmlns:xlink="http://www.w3.org/1999/xlink" x="0px" y="0px"
	 width="42.113px" height="106.502px" viewBox="0 0 42.113 106.502" enable-background="new 0 0 42.113 106.502"
	 xml:space="preserve">
<path fill="#B2B2B2" stroke="#000000" stroke-width="2" d="M23.029,95.415h10.127v6.076H23.029V95.415z"/>
<path fill="#B2B2B2" stroke="#000000" stroke-width="2" d="M8.956,95.415h10.021v6.076H8.956V95.415z"/>
<path fill="#BFBFBF" d="M24.095,95.415h7.995v6.076h-7.995V95.415z"/>
<path fill="#BFBFBF" d="M10.022,95.415h7.996v6.076h-7.996V95.415z"/>
<path fill="#CCCCCC" d="M25.055,95.415h6.076v6.076h-6.076V95.415z"/>
<path fill="#CCCCCC" d="M10.982,95.415h6.077v6.076h-6.077V95.415z"/>
<path fill="#D9D9D9" d="M26.12,95.415h3.944v6.076H26.12V95.415z"/>
<path fill="#D9D9D9" d="M12.048,95.415h3.945v6.076h-3.945V95.415z"/>
<path fill="#E5E5E5" d="M27.08,95.415h2.025v6.076H27.08V95.415z"/>
<path fill="#E5E5E5" d="M13.007,95.415h2.026v6.076h-2.026V95.415z"/>
<path fill="#B2B2B2" stroke="#000000" stroke-width="2" d="M2.986,91.364v4.052h36.141v-4.052H2.986z"/>
<path fill="#CCCCCC" stroke="#000000" stroke-width="2" d="M2.986,87.419v3.944l14.072,4.052h7.996l14.072-4.052v-3.944H2.986z"/>
<path fill="#FFFFFF" stroke="#000000" stroke-width="2" d="M8.316,101.491h11.087v1.919H8.316V101.491z"/>
<path fill="#FFFFFF" stroke="#000000" stroke-width="2" d="M22.496,101.491h10.98v1.919h-10.98V101.491z"/>
<path fill="#FF6600" d="M35.076,2.985H6.931L2.986,6.93v80.489l3.944,3.944h28.146l4.051-3.944V6.93L35.076,2.985z"/>
<path fill="#FA6100" d="M2.986,56.183v31.236l3.944,3.944h28.146l4.051-3.944V39.765L2.986,56.183z"/>
<path fill="#F55C00" d="M2.986,58.208v29.211l3.944,3.944h28.146l4.051-3.944V41.471L2.986,58.208z"/>
<path fill="#F05700" d="M2.986,62.26v25.159l3.944,3.944h28.146l4.051-3.944V45.522L2.986,62.26z"/>
<path stroke="#999999" stroke-width="2" d="M26.867,78.358l-0.747-0.853v-1.387l0.747-0.853h1.172l1.066,0.853v1.387l-1.066,0.853
	H26.867z"/>
<path stroke="#999999" stroke-width="2" d="M6.931,8.955l-0.959-0.96V6.93l0.959-0.96h1.066l0.959,0.96v1.065l-0.959,0.96H6.931z"/>
<path stroke="#999999" stroke-width="2" d="M33.902,8.955l-0.746-0.746V6.716l0.746-0.746h1.387l0.853,0.746v1.493l-0.853,0.746
	H33.902z"/>
<path stroke="#999999" stroke-width="2" d="M6.717,89.338l-0.746-0.959v-1.173l0.746-0.853H8.21l0.746,0.853v1.173L8.21,89.338
	H6.717z"/>
<path stroke="#999999" stroke-width="2" d="M33.902,89.338l-0.746-0.959v-1.173l0.746-0.853h1.387l0.853,0.853v1.173l-0.853,0.959
	H33.902z"/>
<path stroke="#999999" stroke-width="2" d="M6.717,35.074l-0.746-0.746v-1.386l0.746-0.854H8.21l0.746,0.854v1.386L8.21,35.074
	H6.717z"/>
<path stroke="#999999" stroke-width="2" d="M33.902,35.074l-0.746-0.746v-1.386l0.746-0.854h1.387l0.853,0.854v1.386l-0.853,0.746
	H33.902z"/>
<path fill="#CCB27F" stroke="#999999" stroke-width="2" d="M20.47,52.132l-1.066-0.96v-1.173l1.066-0.853h1.172l0.854,0.853v1.173
	l-0.854,0.96H20.47z"/>
<path fill="#997F4C" stroke="#999999" stroke-width="2" d="M20.47,67.697l-1.066-0.853v-1.173l1.066-0.746h1.172l0.854,0.746v1.173
	l-0.854,0.853H20.47z"/>
<path d="M20.683,67.271l-0.64-0.64v-0.747l0.64-0.64h0.747l0.64,0.64v0.747l-0.64,0.64H20.683z"/>
<path fill="#CCB27F" stroke="#999999" stroke-width="2" d="M6.185,65.244l-1.173-1.173v-1.599l1.173-1.279h1.599l1.172,1.279v1.599
	l-1.172,1.173H6.185z"/>
<path d="M18.978,15.031l0.213-4.051h3.625l3.624,1.066l3.199,1.705l2.665,2.666l1.813,3.198l0.96,3.838l-0.96-2.239l-1.813-2.452
	l-2.665-1.705l-3.199-1.493l-3.624-0.533H18.978z"/>
<path fill="none" stroke="#FF6600" stroke-width="2" d="M23.029,10.981l-2.026,13.113"/>
<path fill="none" stroke="#FF6600" stroke-width="2" d="M27.08,10.981l-6.077,13.113"/>
<path fill="none" stroke="#FF6600" stroke-width="2" d="M31.131,12.047L21.003,24.094"/>
<path fill="none" stroke="#FF6600" stroke-width="2" d="M33.156,15.991l-12.153,8.103"/>
<path fill="none" stroke="#FF6600" stroke-width="2" d="M35.076,18.977l-14.073,5.117"/>
<path fill="#4C4C4C" stroke="#000000" stroke-width="2" d="M26.227,27.505l-1.599,1.599l-2.132,0.96h-2.453l-2.239-0.96
	l-1.812-1.599l-0.747-2.239v-2.451l0.747-2.133l1.599-1.919l2.452-0.746h2.239l2.132,0.746l1.813,1.919l1.066,2.133v2.238
	L26.227,27.505z"/>
<path fill="#B2B2B2" stroke="#000000" stroke-width="2" d="M19.617,26.865l4.478-4.158l5.544-1.492l2.879,2.879L21.216,35.287
	l-2.985-2.771L19.617,26.865z"/>
<circle cx="21.11" cy="23.88" r="3.092"/>
<path fill="#FF6600" d="M21.43,34.328h-0.64l-0.32-0.427v-0.64l0.32-0.319h0.64l0.426,0.319v0.64L21.43,34.328z"/>
<path fill="#FF6600" d="M31.131,24.626h-0.64l-0.64-0.319v-0.64l0.64-0.427h0.64l0.32,0.427v0.64L31.131,24.626z"/>
<path fill="#CCCCCC" stroke="#000000" stroke-width="2" d="M21.855,34.754l0.96-1.279l0.853,0.854l-0.959,0.959L21.855,34.754z"/>
<path fill="#CCCCCC" stroke="#000000" stroke-width="2" d="M30.064,26.439l1.066-0.959l0.746,0.533l-1.172,1.065L30.064,26.439z"/>
<path fill="#999999" stroke="#000000" stroke-width="2" d="M31.877,24.626l-0.746,0.854l0.746,0.533l0.641-0.533L31.877,24.626z"/>
<path fill="#999999" stroke="#000000" stroke-width="2" d="M23.668,32.943l-0.853,0.532l0.853,0.854l0.641-0.854L23.668,32.943z"/>
<path fill="#E5E5E5" stroke="#000000" stroke-width="2" d="M23.029,34.754l0.852-0.64l2.026,2.239l-0.64,0.533L23.029,34.754z"/>
<path fill="#E5E5E5" stroke="#000000" stroke-width="2" d="M31.238,26.653l0.639-0.747l2.239,2.133l-0.853,0.64L31.238,26.653z"/>
<path fill="#E5E5E5" stroke="#000000" stroke-width="2" d="M30.705,22.281l0.426-1.066h2.133v2.025l-1.174,0.427L30.705,22.281z"/>
<path fill="none" stroke="#000000" stroke-width="2" d="M35.076,2.985H6.931L2.986,6.93v80.489l3.944,3.944h28.146l4.051-3.944V6.93
	L35.076,2.985"/>
<path fill="none" stroke="#000000" stroke-width="2" d="M6.931,39.125h4.478"/>
<path fill="none" stroke="#000000" stroke-width="2" d="M13.007,40.085H5.012"/>
<path fill="none" stroke="#000000" stroke-width="2" d="M35.502,39.125h-9.063"/>
<path fill="none" stroke="#000000" stroke-width="2" d="M25.693,40.511h10.875"/>
<path fill="none" stroke="#000000" stroke-width="2" d="M28.039,42.111h5.438"/>
<path fill="none" stroke="#000000" stroke-width="2" d="M29.105,43.177h4.051"/>
<path fill="none" stroke="#000000" stroke-width="2" d="M28.039,47.121h6.077"/>
<path fill="none" stroke="#000000" stroke-width="2" d="M35.502,48.188h-9.063"/>
<path fill="none" stroke="#000000" stroke-width="2" d="M29.105,49.147h4.371"/>
<path fill="none" stroke="#000000" stroke-width="2" d="M29.105,50.213h4.371"/>
<path fill="none" stroke="#000000" stroke-width="2" d="M29.105,55.224h4.051"/>
<path fill="none" stroke="#000000" stroke-width="2" d="M33.477,56.183h-4.371"/>
<path fill="none" stroke="#000000" stroke-width="2" d="M18.978,67.697h-2.985"/>
<path fill="none" stroke="#000000" stroke-width="2" d="M23.455,67.697h2.984"/>
<path fill="none" stroke="#000000" stroke-width="2" d="M29.426,79.317h5.117"/>
<path fill="none" stroke="#000000" stroke-width="2" d="M29.426,78.145h5.117"/>
<path fill="none" stroke="#000000" stroke-width="2" d="M29.426,75.693h5.117"/>
<path fill="none" stroke="#000000" stroke-width="2" d="M34.543,74.733h-5.117"/>
<path fill="none" stroke="#000000" stroke-width="2" d="M17.059,87.419h7.996"/>
<path fill="none" stroke="#000000" stroke-width="2" d="M26.12,88.379H15.993"/>
<path fill="none" stroke="#000000" stroke-width="2" d="M15.993,89.338H26.12"/>
<path fill="#FFFFFF" stroke="#999999" stroke-width="2" d="M25.693,94.349h1.387v-1.386h-1.387V94.349z"/>
<path fill="#FFFFFF" stroke="#999999" stroke-width="2" d="M15.033,94.349h1.386v-1.386h-1.386V94.349z"/>
<path d="M20.47,95.415h1.172V91.79H20.47V95.415z"/>
</svg>
