<?xml version="1.0" encoding="utf-8"?>
<!-- Generator: Adobe Illustrator 14.0.0, SVG Export Plug-In . SVG Version: 6.00 Build 43363)  -->
<!DOCTYPE svg PUBLIC "-//W3C//DTD SVG 1.1//EN" "http://www.w3.org/Graphics/SVG/1.1/DTD/svg11.dtd">
<svg version="1.1" id="图层_1" xmlns="http://www.w3.org/2000/svg" xmlns:xlink="http://www.w3.org/1999/xlink" x="0px" y="0px"
	 width="62.258px" height="106.502px" viewBox="0 0 62.258 106.502" enable-background="new 0 0 62.258 106.502"
	 xml:space="preserve">
<path fill="#FFFFFF" stroke="#000000" stroke-width="2" d="M2.985,6.931L6.93,5.012h52.344l-4.052,1.919H2.985z"/>
<path fill="#BFBFBF" stroke="#000000" stroke-width="2" d="M54.583,103.409l4.051-2.025v-40.19l-4.051,2.025V103.409z"/>
<path fill="#E5E5E5" stroke="#000000" stroke-width="2" d="M3.518,5.012h51.277v98.397H3.518V5.012z"/>
<path fill="#F2F2F2" stroke="#000000" stroke-width="2" d="M2.985,6.931h52.237v56.288H2.985V6.931z"/>
<path fill="#737373" stroke="#000000" stroke-width="2" d="M6.93,63.219h39.231v39.231H6.93V63.219z"/>
<path fill="none" stroke="#000000" stroke-width="2" d="M6.93,72.068h39.231"/>
<path fill="none" stroke="#000000" stroke-width="2" d="M6.93,80.702h39.231"/>
<path fill="none" stroke="#000000" stroke-width="2" d="M6.93,89.337h39.231"/>
<path fill="none" stroke="#000000" stroke-width="2" d="M6.93,97.973h39.231"/>
<path fill="none" stroke="#000000" stroke-width="2" d="M6.93,67.697h39.231"/>
<path fill="none" stroke="#000000" stroke-width="2" d="M6.93,76.331h39.231"/>
<path fill="none" stroke="#000000" stroke-width="2" d="M6.93,84.967h39.231"/>
<path fill="none" stroke="#000000" stroke-width="2" d="M6.93,93.815h39.231"/>
<path fill="none" stroke="#000000" stroke-width="2" d="M6.93,65.457h39.231"/>
<path fill="none" stroke="#000000" stroke-width="2" d="M6.93,74.093h39.231"/>
<path fill="none" stroke="#000000" stroke-width="2" d="M6.93,82.728h39.231"/>
<path fill="none" stroke="#000000" stroke-width="2" d="M6.93,91.576h39.231"/>
<path fill="none" stroke="#000000" stroke-width="2" d="M6.93,100.211h39.231"/>
<path fill="none" stroke="#000000" stroke-width="2" d="M6.93,69.828h39.231"/>
<path fill="none" stroke="#000000" stroke-width="2" d="M6.93,78.464h39.231"/>
<path fill="none" stroke="#000000" stroke-width="2" d="M6.93,87.205h39.231"/>
<path fill="none" stroke="#000000" stroke-width="2" d="M6.93,95.841h39.231"/>
<path fill="#FFFFFF" stroke="#7F7F7F" stroke-width="2" d="M19.083,23.029h20.042v6.076H19.083V23.029z"/>
<path fill="#FF7F7F" d="M23.027,31.13h12.047v3.944H23.027V31.13z"/>
<path fill="#FF7F7F" d="M23.027,37.1h12.047v4.052H23.027V37.1z"/>
<path fill="#FF7F7F" d="M25.053,43.177h8.102v3.944h-8.102V43.177z"/>
<path fill="#00FF00" d="M20.469,23.668v2.984h17.057v-0.533H23.027l-1.599-2.451H20.469z"/>
<path fill="#CCCCCC" stroke="#000000" stroke-width="2" d="M55.222,63.219l4.052-2.025V5.012l-4.052,1.919V63.219z"/>
<path fill="#CCCCCC" stroke="#000000" stroke-width="2" d="M54.583,6.931l4.051-1.919V2.986l-4.051,2.026V6.931z"/>
<path fill="#FFFFFF" stroke="#000000" stroke-width="2" d="M3.518,5.012l4.051-2.026h51.278l-4.052,2.026H3.518z"/>
<path fill="#D9D9D9" d="M49.786,55.224L49.04,55.01l-0.213-0.746l0.213-0.746l0.746-0.32l0.746,0.32l0.32,0.746l-0.32,0.746
	L49.786,55.224z"/>
<path fill="#D9D9D9" d="M49.786,34.328l-0.746-0.319l-0.213-0.747l0.213-0.746l0.746-0.213l0.746,0.213l0.32,0.746l-0.32,0.747
	L49.786,34.328z"/>
<path fill="#D9D9D9" d="M49.786,13.434l-0.746-0.32l-0.213-0.746l0.213-0.746l0.746-0.32l0.746,0.32l0.32,0.746l-0.32,0.746
	L49.786,13.434z"/>
</svg>
