<?xml version="1.0" encoding="utf-8"?>
<!-- Generator: Adobe Illustrator 14.0.0, SVG Export Plug-In . SVG Version: 6.00 Build 43363)  -->
<!DOCTYPE svg PUBLIC "-//W3C//DTD SVG 1.1//EN" "http://www.w3.org/Graphics/SVG/1.1/DTD/svg11.dtd">
<svg version="1.1" id="图层_1" xmlns="http://www.w3.org/2000/svg" xmlns:xlink="http://www.w3.org/1999/xlink" x="0px" y="0px"
	 width="144.749px" height="90.072px" viewBox="0 0 144.749 90.072" enable-background="new 0 0 144.749 90.072"
	 xml:space="preserve">
<path fill="#CCCCCC" stroke="#000000" stroke-width="2" d="M8.557,13.055v66.862h115.451V13.055H8.557z"/>
<path fill="#999999" d="M8.557,13.055v66.862l3.046-3.046V16.1h109.359l3.046-3.045H8.557z"/>
<path fill="#E5E5E5" d="M124.443,79.918V13.055l-3.046,3.19v61.062H11.603l-3.046,2.61H124.443z"/>
<path fill="#4C4C4C" stroke="#000000" stroke-width="2" d="M10.153,14.65v63.817h28.862V14.65H10.153z"/>
<path fill="none" stroke="#999999" stroke-width="2" d="M34.374,14.65v63.817"/>
<path fill="none" stroke="#999999" stroke-width="2" d="M24.657,14.65v63.817"/>
<path fill="none" stroke="#999999" stroke-width="2" d="M14.794,14.65v63.817"/>
<path fill="none" stroke="#999999" stroke-width="2" d="M10.153,17.696h28.862"/>
<path fill="none" stroke="#999999" stroke-width="2" d="M10.153,26.834h28.862"/>
<path fill="none" stroke="#999999" stroke-width="2" d="M10.153,22.192h28.862"/>
<path fill="none" stroke="#999999" stroke-width="2" d="M10.153,31.475h28.862"/>
<path fill="none" stroke="#999999" stroke-width="2" d="M10.153,40.612h28.862"/>
<path fill="none" stroke="#999999" stroke-width="2" d="M10.153,35.971h28.862"/>
<path fill="none" stroke="#999999" stroke-width="2" d="M10.153,44.818h28.862"/>
<path fill="none" stroke="#999999" stroke-width="2" d="M10.153,53.956h28.862"/>
<path fill="none" stroke="#999999" stroke-width="2" d="M10.153,49.46h28.862"/>
<path fill="none" stroke="#999999" stroke-width="2" d="M10.153,58.597h28.862"/>
<path fill="none" stroke="#999999" stroke-width="2" d="M10.153,67.734h28.862"/>
<path fill="none" stroke="#999999" stroke-width="2" d="M10.153,63.094h28.862"/>
<path fill="none" stroke="#999999" stroke-width="2" d="M10.153,76.872h28.862"/>
<path fill="none" stroke="#999999" stroke-width="2" d="M10.153,72.231h28.862"/>
<path fill="#E5E5E5" d="M43.511,13.055h21.176v65.412H43.511V13.055z"/>
<path fill="#DEDEDE" d="M43.657,79.918h21.03l0.146-42.932l-21.321,4.932L43.657,79.918z"/>
<path fill="#D4D4D4" d="M43.657,79.918h21.03l0.146-32.344L43.511,52.65L43.657,79.918z"/>
<path fill="#CCCCCC" d="M43.511,79.918h21.321V52.07l-21.321,5.077V79.918z"/>
<path fill="none" stroke="#000000" stroke-width="2" d="M43.511,13.055h21.176v66.862H43.511V13.055"/>
<path fill="#B2B2B2" stroke="#000000" stroke-width="2" d="M48.008,67.734V51.055h12.184v16.679H48.008z"/>
<path fill="none" stroke="#FFFFFF" stroke-width="2" d="M48.008,67.734h12.184V51.055"/>
<path d="M55.695,61.788h1.45v1.45h-1.45V61.788z"/>
<path d="M55.695,55.696h1.45v1.451h-1.45V55.696z"/>
<path fill="#7F7F7F" d="M66.283,22.192v12.184h54.68V22.192H66.283z"/>
<path fill="#D9D9D9" d="M111.825,31.33l1.45,3.046h6.092l1.596-3.046H111.825z"/>
<path fill="#D9D9D9" d="M111.825,28.284l1.45,3.046h6.092l1.596-3.046H111.825z"/>
<path fill="#D9D9D9" d="M111.825,25.238l1.45,3.046h6.092l1.596-3.046H111.825z"/>
<path fill="#D9D9D9" d="M111.825,22.192l1.45,3.046h6.092l1.596-3.046H111.825z"/>
<path fill="#D9D9D9" d="M102.687,22.192l1.596,3.046h6.092l1.45-3.046H102.687z"/>
<path fill="#D9D9D9" d="M102.687,25.238l1.596,3.046h6.092l1.45-3.046H102.687z"/>
<path fill="#D9D9D9" d="M102.687,28.284l1.596,3.046h6.092l1.45-3.046H102.687z"/>
<path fill="#D9D9D9" d="M102.687,31.33l1.596,3.046h6.092l1.45-3.046H102.687z"/>
<path fill="#D9D9D9" d="M93.551,31.33l1.595,3.046h6.092l1.45-3.046H93.551z"/>
<path fill="#D9D9D9" d="M93.551,28.284l1.595,3.046h6.092l1.45-3.046H93.551z"/>
<path fill="#D9D9D9" d="M93.551,25.238l1.595,3.046h6.092l1.45-3.046H93.551z"/>
<path fill="#D9D9D9" d="M93.551,22.192l1.595,3.046h6.092l1.45-3.046H93.551z"/>
<path fill="#D9D9D9" d="M84.557,22.192l1.451,3.046h6.091l1.596-3.046H84.557z"/>
<path fill="#D9D9D9" d="M84.557,25.238l1.451,3.046h6.091l1.596-3.046H84.557z"/>
<path fill="#D9D9D9" d="M84.557,28.284l1.451,3.046h6.091l1.596-3.046H84.557z"/>
<path fill="#D9D9D9" d="M84.557,31.33l1.451,3.046h6.091l1.596-3.046H84.557z"/>
<path fill="#D9D9D9" d="M75.421,31.33l1.45,3.046h6.092l1.595-3.046H75.421z"/>
<path fill="#D9D9D9" d="M75.421,28.284l1.45,3.046h6.092l1.595-3.046H75.421z"/>
<path fill="#D9D9D9" d="M75.421,25.238l1.45,3.046h6.092l1.595-3.046H75.421z"/>
<path fill="#D9D9D9" d="M75.421,22.192l1.45,3.046h6.092l1.595-3.046H75.421z"/>
<path fill="#D9D9D9" d="M66.283,22.192l1.45,3.046h6.092l1.596-3.046H66.283z"/>
<path fill="#D9D9D9" d="M66.283,25.238l1.45,3.046h6.092l1.596-3.046H66.283z"/>
<path fill="#D9D9D9" d="M66.283,28.284l1.45,3.046h6.092l1.596-3.046H66.283z"/>
<path fill="#D9D9D9" d="M66.283,31.33l1.45,3.046h6.092l1.596-3.046H66.283z"/>
<path fill="#B2B2B2" stroke="#000000" stroke-width="2" d="M127.054,13.055l12.183-6.092v66.862l1.45,0.146l-12.038,5.946h-1.595
	V13.055z"/>
<path fill="#CCCCCC" stroke="#000000" stroke-width="2" d="M128.649,10.154l12.038-6.092v3.046l-12.038,5.947V10.154z"/>
<path fill="#CCCCCC" stroke="#000000" stroke-width="2" d="M128.649,79.918l12.038-5.946v6.092l-12.038,5.946V79.918z"/>
<path fill="#F2F2F2" stroke="#000000" stroke-width="2" d="M16.099,4.062h124.588l-12.038,6.092H4.061L16.099,4.062z"/>
<path fill="#E5E5E5" stroke="#000000" stroke-width="2" d="M4.061,86.01v-6.092h124.588v6.092H4.061z"/>
<path fill="#E5E5E5" stroke="#000000" stroke-width="2" d="M124.009,79.918V13.055h3.046v66.862H124.009z"/>
<path fill="#E5E5E5" stroke="#000000" stroke-width="2" d="M5.511,79.918V13.055h3.046v66.862H5.511z"/>
<path fill="#E5E5E5" stroke="#000000" stroke-width="2" d="M4.061,13.055v-2.901h124.588v2.901H4.061z"/>
<path fill="none" stroke="#000000" stroke-width="2" d="M127.054,79.918l12.183-6.092"/>
<path fill="none" stroke="#000000" stroke-width="2" d="M58.741,79.918v6.092"/>
<path fill="none" stroke="#000000" stroke-width="2" d="M70.779,79.918v6.092"/>
<path fill="#7F7F7F" stroke="#000000" stroke-width="2" d="M52.649,79.918v-4.496l1.45-1.45l1.596,1.45v4.496H52.649z"/>
<path fill="#4C4C4C" d="M25.237,84.559l-1.451-1.596l1.451-1.45h18.274l1.45,1.45l-1.45,1.596H25.237z"/>
<path fill="#4C4C4C" d="M17.695,84.559l-1.596-1.596l1.596-1.45l1.595,1.45L17.695,84.559z"/>
<path fill="#4C4C4C" d="M11.603,84.559l-1.45-1.596l1.45-1.45l1.596,1.45L11.603,84.559z"/>
<path fill="#4C4C4C" d="M92.099,84.559l-1.45-1.596l1.45-1.45h18.275l1.45,1.45l-1.45,1.596H92.099z"/>
<path fill="#4C4C4C" d="M84.557,84.559l-1.595-1.596l1.595-1.45l1.451,1.45L84.557,84.559z"/>
<path fill="#4C4C4C" d="M78.466,84.559l-1.595-1.596l1.595-1.45l1.451,1.45L78.466,84.559z"/>
</svg>
