<?xml version="1.0" encoding="utf-8"?>
<!-- Generator: Adobe Illustrator 14.0.0, SVG Export Plug-In . SVG Version: 6.00 Build 43363)  -->
<!DOCTYPE svg PUBLIC "-//W3C//DTD SVG 1.1//EN" "http://www.w3.org/Graphics/SVG/1.1/DTD/svg11.dtd">
<svg version="1.1" id="图层_1" xmlns="http://www.w3.org/2000/svg" xmlns:xlink="http://www.w3.org/1999/xlink" x="0px" y="0px"
	 width="73.987px" height="106.502px" viewBox="0 0 73.987 106.502" enable-background="new 0 0 73.987 106.502"
	 xml:space="preserve">
<path fill="#7F7F7F" d="M4.052,101.279l16.737,2.132V2.985L4.052,5.117V101.279z"/>
<path fill="#4C4C4C" d="M71.002,101.279l-16.737,2.132V2.985l16.737,2.133V101.279z"/>
<path fill="#B2B2B2" d="M54.264,103.41H20.789V2.985h33.476V103.41z"/>
<path fill="#E5E5E5" d="M54.264,5.011H20.789v94.242h33.476V5.011z"/>
<path fill="#CCCCCC" d="M4.052,97.12l16.737,2.133V5.011L4.052,7.143V97.12z"/>
<path fill="#999999" d="M71.002,97.12l-16.737,2.133V5.011l16.737,2.132V97.12z"/>
<path fill="none" stroke="#000000" stroke-width="2" d="M4.052,101.279l16.737,2.132h33.476l16.737-2.132V5.117L54.264,2.985H20.789
	L4.052,5.117V101.279"/>
<path fill="none" stroke="#000000" stroke-width="2" d="M58.742,20.788l8.742,1.066"/>
<path fill="none" stroke="#000000" stroke-width="2" d="M58.848,23.667l8.636,0.959"/>
<path fill="none" stroke="#000000" stroke-width="2" d="M58.848,26.653l8.636,0.853"/>
<path fill="none" stroke="#000000" stroke-width="2" d="M58.848,29.531l8.636,0.746"/>
<path fill="none" stroke="#000000" stroke-width="2" d="M58.848,32.516l8.636,0.64"/>
<path fill="none" stroke="#000000" stroke-width="2" d="M58.848,35.394l8.636,0.64"/>
<path fill="none" stroke="#000000" stroke-width="2" d="M58.848,38.273l8.636,0.533"/>
<path fill="none" stroke="#000000" stroke-width="2" d="M58.848,41.258l8.636,0.319"/>
<path fill="none" stroke="#000000" stroke-width="2" d="M58.848,44.136l8.636,0.32"/>
<path fill="none" stroke="#000000" stroke-width="2" d="M58.848,47.121l8.636,0.106"/>
<path fill="none" stroke="#000000" stroke-width="2" d="M58.848,49.999l8.636,0.107"/>
<path fill="none" stroke="#000000" stroke-width="2" d="M58.848,52.985l8.636-0.106"/>
<path fill="none" stroke="#000000" stroke-width="2" d="M58.848,55.864l8.636-0.107"/>
<path fill="none" stroke="#000000" stroke-width="2" d="M58.848,58.848l8.636-0.319"/>
<path fill="none" stroke="#000000" stroke-width="2" d="M58.848,61.727l8.636-0.32"/>
<path fill="none" stroke="#000000" stroke-width="2" d="M58.848,64.711l8.636-0.532"/>
<path fill="none" stroke="#000000" stroke-width="2" d="M58.848,67.59l8.636-0.533"/>
<path fill="none" stroke="#000000" stroke-width="2" d="M58.848,70.469l8.636-0.64"/>
<path fill="none" stroke="#000000" stroke-width="2" d="M58.848,73.453l8.636-0.746"/>
<path fill="none" stroke="#000000" stroke-width="2" d="M58.848,76.332l8.636-0.854"/>
<path fill="none" stroke="#000000" stroke-width="2" d="M58.848,79.317l8.636-0.959"/>
<path fill="none" stroke="#000000" stroke-width="2" d="M58.742,82.196l8.742-1.066"/>
<path fill="#666666" d="M22.814,67.803h29.317V97.12H22.814V67.803z"/>
<path fill="#FFFFFF" d="M52.239,67.803V97.12H22.922l0.532-0.532h28.252V68.336L52.239,67.803z"/>
<path d="M22.814,97.12V67.803h29.317l-0.532,0.533H23.347v28.252L22.814,97.12z"/>
<path fill="#FFFFFF" d="M22.814,60.554h6.29v4.157h-6.29V60.554z"/>
<path fill="#CCCCCC" stroke="#000000" stroke-width="2" d="M45.309,6.076h3.731v63.326h-1.066V42.217H20.256v-1.066h27.719V7.143
	h-2.665V6.076z"/>
<path fill="#4C4C4C" d="M32.836,60.554h-3.731v4.157h3.731V60.554z"/>
<path fill="#999999" stroke="#000000" stroke-width="2" d="M20.256,42.217H2.985v-1.066h17.271V42.217z"/>
<path fill="#7F7F7F" d="M39.552,8.209h6.29V5.011h-6.29V8.209z"/>
<path fill="#999999" d="M37.527,44.776h10.447v1.066H37.527V44.776z"/>
<path fill="#CCCCCC" stroke="#000000" stroke-width="2" d="M37.527,38.486h10.447v6.29H37.527V38.486z"/>
<path fill="none" stroke="#FFFFFF" stroke-width="2" d="M37.527,44.776v-6.29h10.447"/>
<path fill="#7F7F7F" d="M28.571,72.068H50v13.007H28.571V72.068z"/>
<path fill="#4C4C4C" d="M34.329,72.068h9.914v12.474h-9.914V72.068z"/>
<path fill="#B2B2B2" d="M60.021,75.159l6.29-0.64v-3.625l-6.29,0.64V75.159z"/>
<path fill="#B2B2B2" d="M60.021,51.172l6.29-0.106v3.625l-6.29,0.106V51.172z"/>
<path fill="#B2B2B2" d="M60.021,27.932l6.29,0.64v3.731l-6.29-0.747V27.932z"/>
<path fill="none" stroke="#000000" stroke-width="2" d="M60.021,27.932l6.29,0.64v3.731"/>
<path fill="none" stroke="#000000" stroke-width="2" d="M60.021,75.159l6.29-0.64v-3.625"/>
<path fill="none" stroke="#000000" stroke-width="2" d="M60.021,51.172l6.29-0.106v3.625"/>
<path fill="none" stroke="#B2B2B2" stroke-width="2" d="M39.552,8.209V30.17h8.422"/>
</svg>
