<?xml version="1.0" encoding="utf-8"?>
<!-- Generator: Adobe Illustrator 14.0.0, SVG Export Plug-In . SVG Version: 6.00 Build 43363)  -->
<!DOCTYPE svg PUBLIC "-//W3C//DTD SVG 1.1//EN" "http://www.w3.org/Graphics/SVG/1.1/DTD/svg11.dtd">
<svg version="1.1" id="图层_1" xmlns="http://www.w3.org/2000/svg" xmlns:xlink="http://www.w3.org/1999/xlink" x="0px" y="0px"
	 width="106.502px" height="106.502px" viewBox="0 0 106.502 106.502" enable-background="new 0 0 106.502 106.502"
	 xml:space="preserve">
<path fill="#F2E5CC" d="M2.985,2.985h100.426V103.41H2.985V2.985z"/>
<path fill="#EDE0C7" d="M2.985,74.307l100.426-42.004v71.107H2.985V74.307z"/>
<path fill="#E8DBC2" d="M2.985,78.571l100.426-42.11v66.95H2.985V78.571z"/>
<path fill="#E3D6BD" d="M2.985,84.754L103.411,42.75v60.66H2.985V84.754z"/>
<path fill="none" stroke="#000000" stroke-width="2" d="M2.985,2.985h100.426V103.41H2.985V2.985"/>
<path fill="#333333" d="M5.011,5.011h96.375V42.75H5.011V5.011z"/>
<path d="M9.168,9.168h88.06v29.317H9.168V9.168z"/>
<path fill="none" stroke="#666666" stroke-width="2" d="M9.168,38.486h88.06V9.168"/>
<path fill="none" stroke="#4C4C4C" stroke-width="2" d="M15.352,11.407v20.896"/>
<path fill="none" stroke="#4C4C4C" stroke-width="2" d="M17.59,15.352v18.977"/>
<path fill="none" stroke="#4C4C4C" stroke-width="2" d="M28.038,13.433v14.605"/>
<path fill="none" stroke="#4C4C4C" stroke-width="2" d="M39.552,14.819v2.132"/>
<path fill="none" stroke="#4C4C4C" stroke-width="2" d="M42.75,15.352v16.951"/>
<path fill="none" stroke="#4C4C4C" stroke-width="2" d="M51.172,13.433v12.473"/>
<path fill="none" stroke="#4C4C4C" stroke-width="2" d="M72.068,13.433v16.631"/>
<path fill="none" stroke="#4C4C4C" stroke-width="2" d="M82.515,17.59v14.713"/>
<path fill="none" stroke="#4C4C4C" stroke-width="2" d="M84.541,13.433v12.473"/>
<path fill="none" stroke="#4C4C4C" stroke-width="2" d="M92.962,17.59v14.713"/>
<path fill="none" stroke="#4C4C4C" stroke-width="2" d="M13.433,25.906h27.079"/>
<path fill="none" stroke="#4C4C4C" stroke-width="2" d="M40.511,17.59h18.87"/>
<path fill="none" stroke="#4C4C4C" stroke-width="2" d="M55.224,21.855h18.869"/>
<path fill="none" stroke="#4C4C4C" stroke-width="2" d="M69.935,34.328h18.87"/>
<path fill="none" stroke="#4C4C4C" stroke-width="2" d="M82.515,32.303h12.474"/>
<path fill="none" stroke="#4C4C4C" stroke-width="2" d="M78.357,13.433h8.423"/>
<path fill="none" stroke="#CCBFA6" stroke-width="2" d="M99.253,53.198v46.056H7.143"/>
<path fill="none" stroke="#998C73" stroke-width="2" d="M7.143,99.253V53.198h92.111v-8.209"/>
<path fill="#998C73" d="M5.011,92.963h6.396v2.025H5.011V92.963z"/>
<path fill="#998C73" d="M94.989,92.963h6.396v2.025h-6.396V92.963z"/>
<path fill="#998C73" d="M7.143,45.415h1.066v0.96H7.143V45.415z"/>
<path fill="#998C73" d="M7.143,49.999h1.066v0.96H7.143V49.999z"/>
<path fill="#998C73" d="M97.654,45.415h0.959v0.96h-0.959V45.415z"/>
<path fill="#998C73" d="M97.654,49.999h0.959v0.96h-0.959V49.999z"/>
</svg>
