<?xml version="1.0" encoding="utf-8"?>
<!-- Generator: Adobe Illustrator 14.0.0, SVG Export Plug-In . SVG Version: 6.00 Build 43363)  -->
<!DOCTYPE svg PUBLIC "-//W3C//DTD SVG 1.1//EN" "http://www.w3.org/Graphics/SVG/1.1/DTD/svg11.dtd">
<svg version="1.1" id="图层_1" xmlns="http://www.w3.org/2000/svg" xmlns:xlink="http://www.w3.org/1999/xlink" x="0px" y="0px"
	 width="131.84px" height="106.502px" viewBox="0 0 131.84 106.502" enable-background="new 0 0 131.84 106.502"
	 xml:space="preserve">
<path fill="#BF0000" stroke="#000000" stroke-width="2" d="M3.695,9.503h112.043v93.303H3.695V9.503z"/>
<path fill="#FF0000" d="M3.695,88.818h112.043v11.613H3.695V88.818z"/>
<path fill="#FF0000" d="M3.695,39.856h112.043v46.586H3.695V39.856z"/>
<path fill="#FF0000" d="M3.695,11.878h112.043v25.603H3.695V11.878z"/>
<path fill="none" stroke="#000000" stroke-width="2" d="M8.314,90.005v9.238"/>
<path fill="none" stroke="#000000" stroke-width="2" d="M10.689,90.005v9.238"/>
<path fill="none" stroke="#000000" stroke-width="2" d="M13.065,90.005v9.238"/>
<path fill="none" stroke="#000000" stroke-width="2" d="M15.44,90.005v9.238"/>
<path fill="none" stroke="#000000" stroke-width="2" d="M20.191,90.005v9.238"/>
<path fill="none" stroke="#000000" stroke-width="2" d="M22.699,90.005v9.238"/>
<path fill="none" stroke="#000000" stroke-width="2" d="M25.075,90.005v9.238"/>
<path fill="none" stroke="#000000" stroke-width="2" d="M27.45,90.005v9.238"/>
<path fill="none" stroke="#000000" stroke-width="2" d="M32.201,90.005v9.238"/>
<path fill="none" stroke="#000000" stroke-width="2" d="M34.577,90.005v9.238"/>
<path fill="none" stroke="#000000" stroke-width="2" d="M36.952,90.005v9.238"/>
<path fill="none" stroke="#000000" stroke-width="2" d="M39.328,90.005v9.238"/>
<path fill="none" stroke="#000000" stroke-width="2" d="M44.079,90.005v9.238"/>
<path fill="none" stroke="#000000" stroke-width="2" d="M46.454,90.005v9.238"/>
<path fill="none" stroke="#000000" stroke-width="2" d="M48.829,90.005v9.238"/>
<path fill="none" stroke="#000000" stroke-width="2" d="M51.205,90.005v9.238"/>
<path fill="none" stroke="#000000" stroke-width="2" d="M56.088,90.005v9.238"/>
<path fill="none" stroke="#000000" stroke-width="2" d="M58.463,90.005v9.238"/>
<path fill="none" stroke="#000000" stroke-width="2" d="M60.839,90.005v9.238"/>
<path fill="none" stroke="#000000" stroke-width="2" d="M63.214,90.005v9.238"/>
<path fill="none" stroke="#000000" stroke-width="2" d="M67.965,90.005v9.238"/>
<path fill="none" stroke="#000000" stroke-width="2" d="M70.341,90.005v9.238"/>
<path fill="none" stroke="#000000" stroke-width="2" d="M72.717,90.005v9.238"/>
<path fill="none" stroke="#000000" stroke-width="2" d="M75.092,90.005v9.238"/>
<path fill="none" stroke="#000000" stroke-width="2" d="M79.843,90.005v9.238"/>
<path fill="none" stroke="#000000" stroke-width="2" d="M82.35,90.005v9.238"/>
<path fill="none" stroke="#000000" stroke-width="2" d="M84.726,90.005v9.238"/>
<path fill="none" stroke="#000000" stroke-width="2" d="M87.102,90.005v9.238"/>
<path fill="none" stroke="#000000" stroke-width="2" d="M91.852,90.005v9.238"/>
<path fill="none" stroke="#000000" stroke-width="2" d="M94.228,90.005v9.238"/>
<path fill="none" stroke="#000000" stroke-width="2" d="M96.604,90.005v9.238"/>
<path fill="none" stroke="#000000" stroke-width="2" d="M98.979,90.005v9.238"/>
<path fill="none" stroke="#000000" stroke-width="2" d="M103.729,90.005v9.238"/>
<path fill="none" stroke="#000000" stroke-width="2" d="M106.105,90.005v9.238"/>
<path fill="none" stroke="#000000" stroke-width="2" d="M108.612,90.005v9.238"/>
<path fill="none" stroke="#000000" stroke-width="2" d="M110.855,90.005v9.238"/>
<path fill="none" stroke="#FFABAB" stroke-width="2" d="M78.259,16.497v16.364H41.043"/>
<path fill="none" stroke="#990000" stroke-width="2" d="M41.043,32.862V16.497h37.216"/>
<path fill="#333333" d="M44.474,19.928h30.354v9.37H44.474V19.928z"/>
<path fill="#E5E5E5" d="M72.584,24.944l-0.791,0.264l-0.66-1.319l-1.188-0.66l-1.32-0.132l-1.32,0.527l-0.923,1.056l-0.132,0.528
	l-0.792-0.264l0.528-1.188l0.792-0.792l1.056-0.528l1.319-0.264l1.057,0.264l1.056,0.528l0.792,0.792L72.584,24.944z"/>
<path fill="#990000" stroke="#000000" stroke-width="2" d="M115.738,9.503l12.273-5.808v93.304l-12.273,5.807V9.503z"/>
<path fill="#FF7F7F" stroke="#000000" stroke-width="2" d="M115.738,9.503l12.273-5.808H15.969L3.695,9.503H115.738z"/>
<path fill="none" stroke="#660000" stroke-width="2" d="M118.906,8.183v93.304"/>
<path fill="none" stroke="#BF0000" stroke-width="2" d="M118.378,7.523H8.182"/>
</svg>
