<?xml version="1.0" encoding="utf-8"?>
<!-- Generator: Adobe Illustrator 14.0.0, SVG Export Plug-In . SVG Version: 6.00 Build 43363)  -->
<!DOCTYPE svg PUBLIC "-//W3C//DTD SVG 1.1//EN" "http://www.w3.org/Graphics/SVG/1.1/DTD/svg11.dtd">
<svg version="1.1" id="图层_1" xmlns="http://www.w3.org/2000/svg" xmlns:xlink="http://www.w3.org/1999/xlink" x="0px" y="0px"
	 width="144.749px" height="71.871px" viewBox="0 0 144.749 71.871" enable-background="new 0 0 144.749 71.871"
	 xml:space="preserve">
<path fill="#333333" d="M5.361,66.363h86.646l11.157-5.217v0.725l-11.157,5.796H5.361V66.363z"/>
<path fill="#EDEDED" d="M4.057,9.275h89.109v57.088H4.057V9.275z"/>
<path fill="#E5E5E5" d="M4.057,66.363l88.819-0.29l0.435-37.383L4.057,47.672V66.363z"/>
<path fill="#DEDEDE" d="M4.057,66.363l88.819-0.29l0.435-32.601L4.057,52.163V66.363z"/>
<path fill="#D4D4D4" d="M4.057,66.363h89.254V42.89L4.057,61.726V66.363z"/>
<path fill="none" stroke="#000000" stroke-width="2" d="M4.057,9.275h89.109v57.088H4.057V9.275"/>
<path fill="none" stroke="#7F7F7F" stroke-width="2" d="M4.057,61.726h89.254"/>
<path fill="none" stroke="#7F7F7F" stroke-width="2" d="M6.665,11.883h26.227v47.235H6.665V11.883"/>
<path fill="none" stroke="#7F7F7F" stroke-width="2" d="M35.499,11.883h13.186v47.235H35.499V11.883"/>
<path fill="none" stroke="#7F7F7F" stroke-width="2" d="M51.293,11.883h39.411v47.235H51.293V11.883"/>
<path fill="none" stroke="#7F7F7F" stroke-width="2" d="M64.477,11.883v47.235"/>
<path fill="none" stroke="#7F7F7F" stroke-width="2" d="M80.271,59.118V11.883"/>
<path fill="none" stroke="#7F7F7F" stroke-width="2" d="M6.665,11.883h84.039"/>
<path fill="#FFFFFF" d="M14.635,19.707h10.432v5.361H14.635V19.707z"/>
<path fill="#FFA6A6" d="M17.822,14.491h4.057v2.608h-4.057V14.491z"/>
<path fill="#A6A6FF" d="M17.822,14.491h1.884v1.304h-1.884V14.491z"/>
<path fill="#333333" d="M68.389,49.99h2.608v2.608h-2.608V49.99z"/>
<path fill="#333333" d="M73.606,49.99h2.607v2.608h-2.607V49.99z"/>
<path fill="#333333" d="M72.882,36.804h2.608v2.608h-2.608V36.804z"/>
<path fill="#333333" d="M67.666,36.804h2.607v2.608h-2.607V36.804z"/>
<path fill="#333333" d="M74.331,31.589h2.607v2.607h-2.607V31.589z"/>
<path fill="#333333" d="M69.114,31.589h2.608v2.607h-2.608V31.589z"/>
<path fill="#333333" d="M73.606,18.403h2.607v2.608h-2.607V18.403z"/>
<path fill="#333333" d="M68.389,18.403h2.608v2.608h-2.608V18.403z"/>
<path fill="#CC4C4C" d="M72.882,38.108l1.304-1.304l1.305,1.304l-1.305,1.305L72.882,38.108z"/>
<path fill="#CC4C4C" d="M74.331,32.892l1.304-1.304l1.304,1.304l-1.304,1.304L74.331,32.892z"/>
<path fill="#CC4C4C" d="M73.606,19.707l1.304-1.304l1.304,1.304l-1.304,1.305L73.606,19.707z"/>
<path fill="#CC4C4C" d="M68.389,19.707l1.305-1.304l1.304,1.304l-1.304,1.305L68.389,19.707z"/>
<path fill="#CC4C4C" d="M69.114,32.892l1.305-1.304l1.304,1.304l-1.304,1.304L69.114,32.892z"/>
<path fill="#CC4C4C" d="M67.666,38.108l1.304-1.304l1.304,1.304l-1.304,1.305L67.666,38.108z"/>
<path fill="#CC4C4C" d="M68.389,51.294l1.305-1.304l1.304,1.304l-1.304,1.305L68.389,51.294z"/>
<path fill="#CC4C4C" d="M73.606,51.294l1.304-1.304l1.304,1.304l-1.304,1.305L73.606,51.294z"/>
<path fill="#CCCCCC" stroke="#000000" stroke-width="2" d="M4.057,9.275l10.432-5.217h89.399L93.311,9.275H4.057z"/>
<path fill="#999999" stroke="#000000" stroke-width="2" d="M93.311,66.363l10.577-5.217V4.058L93.311,9.275V66.363z"/>
<path fill="#4C4C4C" d="M93.311,61.146l36.804-31.586l10.432-5.217l-36.658,30.862L93.311,61.146z"/>
<path fill="#DEDEDE" d="M93.311,13.911l31.587,10.433l5.217,5.217L93.311,61.146V13.911z"/>
<path fill="#D4D4D4" d="M124.898,24.344l-31.587,6.521v30.282l36.804-31.586L124.898,24.344z"/>
<path fill="#CCCCCC" d="M128.81,28.256l-35.499,7.97v24.921l36.804-31.586L128.81,28.256z"/>
<path fill="#C4C4C4" d="M118.523,39.413l-25.212,5.94v15.793L118.523,39.413z"/>
<path fill="none" stroke="#000000" stroke-width="2" d="M93.311,13.911l31.587,10.433l5.217,5.217L93.311,61.146V13.911"/>
<path fill="#CCCCCC" d="M124.898,24.344l10.433-5.216L103.888,8.551l-10.577,5.36L124.898,24.344z"/>
<path fill="#B2B2B2" d="M124.898,24.344l10.433-5.216l5.216,5.216l-10.432,5.217L124.898,24.344z"/>
<path fill="none" stroke="#000000" stroke-width="2" d="M124.898,24.344l5.217,5.217l10.432-5.217l-5.216-5.216L103.888,8.551
	l-10.577,5.36L124.898,24.344"/>
<path fill="#666666" d="M13.185,40.717l-1.304-7.824v-1.304l1.304-3.912V40.717z"/>
<path fill="#B2B2B2" d="M11.882,32.892h14.489v-1.304H11.882V32.892z"/>
<path fill="#CCCCCC" d="M13.185,27.677l-1.304,3.912h14.489l1.304-3.912H13.185z"/>
<path fill="none" stroke="#FFFFFF" stroke-width="2" d="M26.371,31.589H11.882l1.304-3.912"/>
<path fill="#333333" d="M13.185,32.892h14.489v6.521H13.185V32.892z"/>
<path fill="#999999" d="M27.675,40.717l-1.304-7.824v-1.304l1.304-3.912V40.717z"/>
<path fill="none" stroke="#000000" stroke-width="2" d="M13.185,40.717l-1.304-7.824v-1.304l1.304-3.912h14.489v13.04l-0.29-1.304
	H13.185V40.717"/>
</svg>
