<?xml version="1.0" encoding="utf-8"?>
<!-- Generator: Adobe Illustrator 14.0.0, SVG Export Plug-In . SVG Version: 6.00 Build 43363)  -->
<!DOCTYPE svg PUBLIC "-//W3C//DTD SVG 1.1//EN" "http://www.w3.org/Graphics/SVG/1.1/DTD/svg11.dtd">
<svg version="1.1" id="图层_1" xmlns="http://www.w3.org/2000/svg" xmlns:xlink="http://www.w3.org/1999/xlink" x="0px" y="0px"
	 width="144.749px" height="53.662px" viewBox="0 0 144.749 53.662" enable-background="new 0 0 144.749 53.662"
	 xml:space="preserve">
<path fill="#CCCCCC" d="M9.72,40.899h125.308v7.977l-1.45,0.725H11.172L9.72,48.876V40.899z"/>
<path fill="#999999" d="M9.72,40.899h125.308v3.045H9.72V40.899z"/>
<path fill="#E5E5E5" stroke="#000000" stroke-width="2" d="M9.72,40.899L3.92,35.243V6.672l2.756-2.756h131.398l2.755,2.756v28.571
	l-5.801,5.656H9.72z"/>
<path fill="#333333" stroke="#000000" stroke-width="2" d="M135.028,38.143l3.046-2.9V9.718H78.176v28.426H135.028z"/>
<path fill="#333333" stroke="#000000" stroke-width="2" d="M9.72,38.143l-3.045-2.9V9.718h59.897v28.426H9.72z"/>
<path fill="none" stroke="#000000" stroke-width="2" d="M9.72,40.899h125.308v7.977l-1.45,0.725H11.172L9.72,48.876V40.899"/>
<ellipse fill="none" stroke="#7F7F7F" stroke-width="2" cx="72.375" cy="45.395" rx="11.457" ry="2.901"/>
<path fill="none" stroke="#B2B2B2" stroke-width="2" d="M9.72,38.143h125.308"/>
<path fill="none" stroke="#B2B2B2" stroke-width="2" d="M6.676,35.243h131.398"/>
<path fill="none" stroke="#B2B2B2" stroke-width="2" d="M6.676,32.342h131.398"/>
<path fill="none" stroke="#B2B2B2" stroke-width="2" d="M6.676,29.731h131.398"/>
<path fill="none" stroke="#B2B2B2" stroke-width="2" d="M6.676,26.685h131.398"/>
<path fill="none" stroke="#B2B2B2" stroke-width="2" d="M6.676,23.93h131.398"/>
<path fill="none" stroke="#B2B2B2" stroke-width="2" d="M6.676,20.885h131.398"/>
<path fill="none" stroke="#B2B2B2" stroke-width="2" d="M6.676,18.274h131.398"/>
<path fill="none" stroke="#B2B2B2" stroke-width="2" d="M6.676,15.518h131.398"/>
<path fill="none" stroke="#B2B2B2" stroke-width="2" d="M6.676,12.472h131.398"/>
<path fill="none" stroke="#B2B2B2" stroke-width="2" d="M6.676,9.718h131.398"/>
<path fill="none" stroke="#B2B2B2" stroke-width="2" d="M9.72,6.672h125.308"/>
<path fill="none" stroke="#B2B2B2" stroke-width="2" d="M72.375,6.672v31.472"/>
<path fill="none" stroke="#B2B2B2" stroke-width="2" d="M60.917,6.672v31.472"/>
<path fill="none" stroke="#B2B2B2" stroke-width="2" d="M49.604,6.672v31.472"/>
<path fill="none" stroke="#B2B2B2" stroke-width="2" d="M38.147,6.672v31.472"/>
<path fill="none" stroke="#B2B2B2" stroke-width="2" d="M26.689,6.672v31.472"/>
<path fill="none" stroke="#B2B2B2" stroke-width="2" d="M15.522,6.672v31.472"/>
<path fill="none" stroke="#B2B2B2" stroke-width="2" d="M9.72,6.672L6.676,9.718v25.525l3.045,2.9"/>
<path fill="none" stroke="#B2B2B2" stroke-width="2" d="M84.122,6.672v31.472"/>
<path fill="none" stroke="#B2B2B2" stroke-width="2" d="M95.434,6.672v31.472"/>
<path fill="none" stroke="#B2B2B2" stroke-width="2" d="M106.892,6.672v31.472"/>
<path fill="none" stroke="#B2B2B2" stroke-width="2" d="M118.059,6.672v31.472"/>
<path fill="none" stroke="#B2B2B2" stroke-width="2" d="M129.516,6.672v31.472"/>
<path fill="none" stroke="#B2B2B2" stroke-width="2" d="M135.028,6.672l3.046,3.046v25.525l-3.046,2.9"/>
<path fill="#FFFFFF" d="M83.832,47.426h1.45v1.45h-1.45V47.426z"/>
<path fill="#FFFFFF" d="M59.467,47.426h1.45v1.45h-1.45V47.426z"/>
<path fill="#7F7F7F" d="M63.963,48.006h0.435v0.87h-0.435V48.006z"/>
<path fill="#7F7F7F" d="M80.351,48.006h0.435v0.87h-0.435V48.006z"/>
<path fill="#4C4C4C" d="M13.782,47.426h1.74v1.45h-1.74V47.426z"/>
<path fill="#4C4C4C" d="M129.226,47.426h1.451v1.45h-1.451V47.426z"/>
</svg>
