<?xml version="1.0" encoding="utf-8"?>
<!-- Generator: Adobe Illustrator 14.0.0, SVG Export Plug-In . SVG Version: 6.00 Build 43363)  -->
<!DOCTYPE svg PUBLIC "-//W3C//DTD SVG 1.1//EN" "http://www.w3.org/Graphics/SVG/1.1/DTD/svg11.dtd">
<svg version="1.1" id="图层_1" xmlns="http://www.w3.org/2000/svg" xmlns:xlink="http://www.w3.org/1999/xlink" x="0px" y="0px"
	 width="144.749px" height="67.809px" viewBox="0 0 144.749 67.809" enable-background="new 0 0 144.749 67.809"
	 xml:space="preserve">
<path fill="#999999" stroke="#000000" stroke-width="2" d="M4.057,11.012h102.294v52.741H4.057V11.012z"/>
<path fill="#666666" stroke="#000000" stroke-width="2" d="M106.351,11.012V9.128l10.143-5.071v1.739L106.351,11.012z"/>
<path fill="#CCCCCC" stroke="#000000" stroke-width="2" d="M116.494,4.057l-10.143,5.071H4.057L14.2,4.057H116.494z"/>
<path fill="#7F7F7F" stroke="#000000" stroke-width="2" d="M99.832,56.797V46.655l1.448-0.725v10.143L99.832,56.797z"/>
<path fill="#7F7F7F" stroke="#000000" stroke-width="2" d="M106.351,63.752l10.143-5.071V5.796l-10.143,5.216V63.752z"/>
<path fill="#7F7F7F" stroke="#000000" stroke-width="2" d="M4.057,9.128h102.294v1.883H4.057V9.128z"/>
<path fill="#666666" d="M90.268,61.87V12.461h0.725V61.87H90.268z"/>
<path fill="#666666" d="M75.779,61.87V12.461h0.725V61.87H75.779z"/>
<path fill="#666666" d="M21.88,49.553h52.451v1.159H21.88V49.553z"/>
<path fill="#666666" d="M38.542,23.618V12.461h0.87v11.157H38.542z"/>
<path fill="#666666" d="M21.88,23.618h52.451v0.869H21.88V23.618z"/>
<path fill="#666666" d="M5.797,61.87V12.461h0.725V61.87H5.797z"/>
<path fill="#666666" d="M20.43,61.87V12.461h0.725V61.87H20.43z"/>
<path fill="#999999" stroke="#000000" stroke-width="2" d="M89.255,46.655l1.738-0.725h10.287l-1.448,0.725H89.255z"/>
<path fill="#B2B2B2" stroke="#000000" stroke-width="2" d="M23.618,22.893h3.333v40.859h-3.333V22.893z"/>
<path fill="#E5E5E5" d="M24.343,23.328h1.884v39.99h-1.884V23.328z"/>
<circle fill="#B2B2B2" stroke="#000000" stroke-width="2" cx="25.502" cy="21.01" r="2.608"/>
<path fill="#E5E5E5" d="M25.502,19.271l1.159,0.87l0.29,1.014l-0.435,1.159l-1.015,0.58l-1.304-0.58l-0.58-1.159l0.58-1.304
	L25.502,19.271z"/>
<path fill="#7F7F7F" stroke="#000000" stroke-width="2" d="M96.209,19.706h-0.145h-1.449l-1.014-0.58l-0.725-1.159v-0.435
	l0.435-1.304l0.725-0.58l2.463-1.014l0.869-0.435l1.449,0.435l0.869,1.014l0.146,0.725l-0.435,1.304l-0.725,0.58L96.209,19.706z"/>
<path fill="#7F7F7F" stroke="#000000" stroke-width="2" d="M32.457,19.995l-1.159,0.435l-1.159-0.435l-0.869-1.014l-0.146-0.725
	l0.435-1.304l0.725-0.58l2.464-1.449l1.158-0.29l1.159,0.435l0.87,0.869l0.145,0.87l-0.435,1.304l-0.725,0.435L32.457,19.995z"/>
<path fill="#B2B2B2" stroke="#000000" stroke-width="2" d="M89.255,46.655h10.143v10.143H89.255V46.655z"/>
<path fill="#B2B2B2" stroke="#000000" stroke-width="2" d="M95.051,15.648l1.448,0.58l0.725,1.304l-0.435,1.304l-1.304,0.87h-0.435
	l-1.449-0.58l-0.725-1.159v-0.435l0.725-1.304L95.051,15.648z"/>
<circle fill="#B2B2B2" stroke="#000000" stroke-width="2" cx="31.298" cy="18.256" r="2.173"/>
<path fill="#999999" stroke="#000000" stroke-width="2" d="M108.235,46.655V12.461h5.071l20.43,17.097L108.235,46.655z"/>
<path fill="#CCCCCC" stroke="#000000" stroke-width="2" d="M108.235,12.461l6.811-3.333h5.07l-6.81,3.333H108.235z"/>
<path fill="#B2B2B2" stroke="#000000" stroke-width="2" d="M113.306,12.461l6.81-3.333l20.431,17.097l-6.811,3.333L113.306,12.461z"
	/>
<path stroke="#000000" stroke-width="2" d="M133.736,29.558l6.811-3.333l-25.501,17.097l-6.811,3.332L133.736,29.558z"/>
<path fill="#C46300" stroke="#000000" stroke-width="2" d="M104.903,55.348v-8.693l0.724-0.434v8.403L104.903,55.348z"/>
<path fill="#FFD166" stroke="#000000" stroke-width="2" d="M100.845,46.655l0.725-0.434h4.057l-0.724,0.434H100.845z"/>
<path fill="#FF9E0F" stroke="#000000" stroke-width="2" d="M100.845,46.655h4.058v8.693h-4.058V46.655z"/>
</svg>
