<?xml version="1.0" encoding="utf-8"?>
<!-- Generator: Adobe Illustrator 14.0.0, SVG Export Plug-In . SVG Version: 6.00 Build 43363)  -->
<!DOCTYPE svg PUBLIC "-//W3C//DTD SVG 1.1//EN" "http://www.w3.org/Graphics/SVG/1.1/DTD/svg11.dtd">
<svg version="1.1" id="图层_1" xmlns="http://www.w3.org/2000/svg" xmlns:xlink="http://www.w3.org/1999/xlink" x="0px" y="0px"
	 width="131.025px" height="106.502px" viewBox="0 0 131.025 106.502" enable-background="new 0 0 131.025 106.502"
	 xml:space="preserve">
<path fill="#333366" stroke="#000000" stroke-width="2" d="M75.809,3.674h35.937v2.492H75.809V3.674z"/>
<path fill="#333366" stroke="#000000" stroke-width="2" d="M19.018,3.674h36.068v2.492H19.018V3.674z"/>
<path fill="#47477A" d="M78.301,3.674h31.215v2.492H78.301V3.674z"/>
<path fill="#47477A" d="M21.641,3.674h30.953v2.492H21.641V3.674z"/>
<path fill="#5E5E91" d="M80.792,3.674h25.97v2.492h-25.97V3.674z"/>
<path fill="#5E5E91" d="M24.133,3.674h25.969v2.492H24.133V3.674z"/>
<path fill="#7373A6" d="M83.284,3.674h20.985v2.492H83.284V3.674z"/>
<path fill="#7373A6" d="M26.625,3.674H47.61v2.492H26.625V3.674z"/>
<path fill="#8787BA" d="M85.777,3.674h16.001v2.492H85.777V3.674z"/>
<path fill="#8787BA" d="M29.116,3.674h16.133v2.492H29.116V3.674z"/>
<path fill="#9E9ED1" d="M88.269,3.674h11.017v2.492H88.269V3.674z"/>
<path fill="#9E9ED1" d="M31.609,3.674h11.148v2.492H31.609V3.674z"/>
<path fill="#B2B2E5" d="M90.629,3.674h6.296v2.492h-6.296V3.674z"/>
<path fill="#B2B2E5" d="M34.101,3.674h6.164v2.492h-6.164V3.674z"/>
<path fill="#333366" stroke="#000000" stroke-width="2" d="M7.607,35.807L6.164,12.593H124.73l-1.442,23.214H7.607z"/>
<path fill="none" stroke="#999999" stroke-width="2" d="M14.033,35.807l-1.442-23.214"/>
<path fill="none" stroke="#999999" stroke-width="2" d="M116.861,35.807l1.312-23.214"/>
<path fill="none" stroke="#999999" stroke-width="2" d="M65.448,35.807V12.593"/>
<path fill="none" stroke="#999999" stroke-width="2" d="M32.133,35.807L30.56,12.593"/>
<path fill="none" stroke="#999999" stroke-width="2" d="M98.892,35.807l1.443-23.214"/>
<path fill="none" stroke="#999999" stroke-width="2" d="M82.236,35.807V12.593"/>
<path fill="none" stroke="#999999" stroke-width="2" d="M48.659,35.807V12.593"/>
<path fill="#B2B2E5" d="M3.672,35.807h123.55v67.021H3.672V35.807z"/>
<path fill="#ADADE0" d="M3.672,83.286l123.55-27.937v47.479H3.672V83.286z"/>
<path fill="#A8A8DB" d="M3.672,86.303l123.55-28.067v44.593H3.672V86.303z"/>
<path fill="#A3A3D6" d="M3.672,90.499l123.55-28.198v40.527H3.672V90.499z"/>
<path fill="none" stroke="#000000" stroke-width="2" d="M3.672,35.807h123.55v67.021H3.672V35.807"/>
<path fill="#333366" d="M57.84,83.548h7.607v1.181H57.84V83.548z"/>
<path fill="#333366" d="M57.84,59.022h7.607v1.181H57.84V59.022z"/>
<path fill="#B2B2E5" stroke="#000000" stroke-width="2" d="M3.672,35.807V6.166h123.55v29.641h-2.492V12.593H6.164v23.214H3.672z"/>
<path fill="none" stroke="#4C4C7F" stroke-width="2" d="M3.672,38.299h123.55"/>
<path fill="none" stroke="#4C4C7F" stroke-width="2" d="M3.672,97.582h123.55"/>
<path fill="none" stroke="#4C4C7F" stroke-width="2" d="M52.331,38.299v59.283"/>
<path fill="none" stroke="#4C4C7F" stroke-width="2" d="M55.086,38.299v59.283"/>
<path fill="none" stroke="#4C4C7F" stroke-width="2" d="M34.625,38.299v59.283"/>
<path fill="none" stroke="#4C4C7F" stroke-width="2" d="M57.84,97.582V46.169h38.561v51.413"/>
<path fill="none" stroke="#4C4C7F" stroke-width="2" d="M21.641,71.875h10.492v20.592H21.641V71.875"/>
<path fill="none" stroke="#4C4C7F" stroke-width="2" d="M3.672,7.346h123.55"/>
</svg>
