<?xml version="1.0" encoding="utf-8"?>
<!-- Generator: Adobe Illustrator 14.0.0, SVG Export Plug-In . SVG Version: 6.00 Build 43363)  -->
<!DOCTYPE svg PUBLIC "-//W3C//DTD SVG 1.1//EN" "http://www.w3.org/Graphics/SVG/1.1/DTD/svg11.dtd">
<svg version="1.1" id="图层_1" xmlns="http://www.w3.org/2000/svg" xmlns:xlink="http://www.w3.org/1999/xlink" x="0px" y="0px"
	 width="65.988px" height="106.502px" viewBox="0 0 65.988 106.502" enable-background="new 0 0 65.988 106.502"
	 xml:space="preserve">
<path fill="#4C4C4C" d="M40.936,103.302l-5.223,0.106h-5.438l-5.224-0.106l-4.69-0.427l-3.731-0.426l-2.878-0.64l-1.386-0.747v-0.64
	l1.386-0.746l1.279-1.705v-10.98h35.926v10.98l1.066,1.705l1.385,0.746v0.64l-1.385,0.747l-2.666,0.64l-3.838,0.426L40.936,103.302z
	"/>
<path fill="#666666" d="M40.936,101.81l-5.223,0.213h-5.438l-5.224-0.213l-4.69-0.214l-3.731-0.533l-2.878-1.386l1.279-1.705v-10.98
	h35.926v10.98l1.066,1.705l-2.666,1.386l-3.838,0.533L40.936,101.81z"/>
<path fill="#707070" d="M40.297,101.81l-4.798,0.213h-5.01l-4.797-0.213l-4.264-0.32l-3.625-0.427l-2.345-1.279l0.959-1.599V86.991
	H49.57v11.193l1.066,1.599l-2.451,1.279l-3.625,0.427L40.297,101.81z"/>
<path fill="#7A7A7A" d="M39.764,101.81l-4.478,0.213h-4.584l-4.478-0.213l-3.838-0.214l-3.305-0.319l-2.239-1.279l0.959-1.386
	v-11.62h30.383v11.62l0.959,1.386l-2.346,1.279l-3.197,0.319L39.764,101.81z"/>
<path fill="#858585" d="M39.123,101.81l-4.051,0.213h-4.157l-4.051-0.213l-3.625-0.214l-2.878-0.319l-1.919-1.066l0.747-1.173
	V86.991h27.61v12.046l0.746,1.173l-2.025,1.066l-2.984,0.319L39.123,101.81z"/>
<path fill="#919191" d="M38.484,101.81l-3.625,0.213h-3.731l-3.625-0.213l-3.305-0.214l-2.559-0.106l-1.812-1.066l0.853-1.172
	v-12.26h24.733v12.26l0.746,1.172l-1.813,1.066l-2.559,0.106L38.484,101.81z"/>
<path fill="#9C9C9C" d="M37.951,102.023h-3.305h-3.412H28.25l-2.985-0.427l-2.452-0.106l-1.599-0.853l0.853-0.96V86.991h21.854
	v12.686l0.64,0.96l-1.6,0.853l-2.238,0.106L37.951,102.023z"/>
<path fill="#A6A6A6" d="M37.312,102.023h-2.772h-3.091H28.89l-2.665-0.213l-2.025-0.32l-1.386-0.64l0.64-0.853V86.991h19.082v13.006
	l0.64,0.853l-1.386,0.64l-2.025,0.32L37.312,102.023z"/>
<path fill="#B0B0B0" d="M36.672,102.023h-2.346h-2.665h-2.239l-2.132-0.213l-1.812-0.214l-1.279-0.533l0.64-0.64V86.991h16.311
	v13.432l0.64,0.64l-1.279,0.533l-1.813,0.214L36.672,102.023z"/>
<path fill="#BABABA" d="M36.139,102.023h-2.025h-2.239h-1.812l-1.813-0.213l-1.386-0.214l-1.066-0.319l0.426-0.64V86.991h13.539
	v13.646l0.319,0.64l-0.96,0.319l-1.385,0.214L36.139,102.023z"/>
<path fill="#C4C4C4" d="M35.499,102.023h-1.812h-1.6h-1.386l-1.386-0.213h-1.279l-0.747-0.32l0.32-0.427V86.991h10.661v14.071
	l0.426,0.427l-0.746,0.32h-1.279L35.499,102.023z"/>
<path fill="#D1D1D1" d="M34.859,102.023h-1.386h-0.959h-1.279h-0.959l-0.959-0.213l-0.639-0.214l0.426-0.106V86.991h7.782v14.498
	l0.213,0.106l-0.426,0.214l-0.959,0.213H34.859z"/>
<path fill="#DBDBDB" d="M34.326,102.023h-1.065h-0.533h-0.853h-0.746h-0.426l-0.427-0.213l0.213-0.214V86.991h5.01v14.604
	l0.214,0.214l-0.427,0.213h-0.64H34.326z"/>
<path fill="#E5E5E5" d="M33.474,102.023h-0.426h-0.32h-0.213h-0.426h-0.213h-0.213V86.991h2.452v15.031h0.213h-0.213h-0.426H33.474z
	"/>
<path fill="none" stroke="#000000" stroke-width="2" d="M40.936,103.302l-5.223,0.106h-5.438l-5.224-0.106l-4.69-0.427l-3.731-0.426
	l-2.878-0.64l-1.386-0.747v-0.64l1.386-0.746l1.279-1.705v-10.98h35.926v10.98l1.066,1.705l1.385,0.746v0.64l-1.385,0.747
	l-2.666,0.64l-3.838,0.426L40.936,103.302"/>
<ellipse fill="#999999" stroke="#000000" stroke-width="2" cx="32.834" cy="86.885" rx="17.803" ry="2.345"/>
<path fill="#B2B2B2" d="M49.357,86.352L63.003,4.906H2.985L16.63,86.352v0.959l0.959,0.533l2.239,0.32l2.985,0.426l3.837,0.427
	h4.264h4.157h4.265l3.624-0.427l3.199-0.426l2.025-0.32l1.172-0.533V86.352z"/>
<path fill="#7F7F7F" d="M2.985,4.906L16.63,86.352v0.959l0.959,0.533l2.239,0.32l2.985,0.426L2.985,4.906z"/>
<path fill="#7F7F7F" d="M49.357,86.352L63.003,4.906L42.961,88.59l3.199-0.426l2.025-0.32l1.172-0.533V86.352z"/>
<path fill="none" stroke="#000000" stroke-width="2" d="M49.357,86.352L63.003,4.906H2.985L16.63,86.352v0.959l0.959,0.533
	l2.239,0.32l2.985,0.426l3.837,0.427h4.264h4.157h4.265l3.624-0.427l3.199-0.426l2.025-0.32l1.172-0.533V86.352"/>
<path fill="#CCCCCC" d="M28.037,88.164l-2.772-17.483l-1.066-19.935l2.452,21.107l0.64,5.437L28.037,88.164z"/>
<path fill="#CCCCCC" d="M32.941,88.377l-1.066-12.899l0.427-14.498l0.64,15.564v4.051V88.377z"/>
<path fill="#CCCCCC" d="M37.098,88.377l1.174-17.696l-0.533-19.935l-0.641,21.107v5.649V88.377z"/>
<path fill="#CCCCCC" d="M39.977,87.525l1.173-8.209l0.213-9.381l-1.065,10.021l-0.214,2.559L39.977,87.525z"/>
<path fill="#999999" d="M39.977,87.525l1.173-8.209l0.213-9.381l0.427,10.234l-1.279,7.675L39.977,87.525z"/>
<path fill="#999999" d="M37.098,88.377l1.174-17.696l-0.533-19.935l2.025,21.107l-1.492,16.523H37.098z"/>
<path fill="#999999" d="M32.941,88.377l-1.066-12.899l0.427-14.498l-1.386,15.564l0.959,11.833H32.941z"/>
<path fill="#999999" d="M28.037,88.164l-2.772-17.483l-1.066-19.935l-0.213,21.32l2.665,16.311L28.037,88.164z"/>
<path fill="#191919" d="M2.985,4.906V4.373h60.018v0.533H2.985z"/>
<path fill="#666666" stroke="#000000" stroke-width="2" d="M2.985,4.373V2.988h60.018v1.386H2.985z"/>
<path fill="#D94000" stroke="#000000" stroke-width="2" d="M55.647,97.972l-0.853-0.533l0.853-0.853l-0.853-3.944l0.853-4.265
	l-0.853-0.533l0.853-0.853h2.559l0.853,0.853l-0.853,0.533l0.853,4.265l-0.853,3.944l0.853,0.853l-0.853,0.533H55.647z"/>
<path fill="#D94000" stroke="#000000" stroke-width="2" d="M7.569,97.972l-0.64-0.533l0.64-0.853l-0.64-3.944l0.64-4.265
	l-0.64-0.533l0.64-0.853h2.772l0.64,0.853l-0.64,0.533l0.64,4.265l-0.64,3.944l0.64,0.853l-0.64,0.533H7.569z"/>
<path fill="#E5E5E5" stroke="#000000" stroke-width="2" d="M8.422,86.352h1.386v0.64H8.422V86.352z"/>
<path fill="#E5E5E5" stroke="#000000" stroke-width="2" d="M56.18,86.352h1.387v0.64H56.18V86.352z"/>
<path fill="none" stroke="#000000" stroke-width="2" d="M10.341,86.991h5.437"/>
<path fill="none" stroke="#000000" stroke-width="2" d="M49.998,86.991h5.649"/>
<path fill="#7F7F7F" stroke="#000000" stroke-width="2" d="M26.864,90.403h12.259v10.234H26.864V90.403z"/>
<path fill="#CCCCCC" d="M27.504,91.149h10.768v8.849H27.504V91.149z"/>
<path fill="#CBE5CB" d="M30.275,92.642h5.438v1.919h-5.438V92.642z"/>
<path fill="none" stroke="#000000" stroke-width="2" d="M30.275,94.561v-1.919h5.438"/>
<path fill="none" stroke="#FFFFFF" stroke-width="2" d="M35.713,92.428v2.133h-5.438"/>
<path fill="#B2B2B2" d="M30.275,95.199h5.438v4.265h-5.438V95.199z"/>
<path d="M28.25,97.226h0.64v0.746h-0.64V97.226z"/>
</svg>
