<?xml version="1.0" encoding="utf-8"?>
<!-- Generator: Adobe Illustrator 14.0.0, SVG Export Plug-In . SVG Version: 6.00 Build 43363)  -->
<!DOCTYPE svg PUBLIC "-//W3C//DTD SVG 1.1//EN" "http://www.w3.org/Graphics/SVG/1.1/DTD/svg11.dtd">
<svg version="1.1" id="图层_1" xmlns="http://www.w3.org/2000/svg" xmlns:xlink="http://www.w3.org/1999/xlink" x="0px" y="0px"
	 width="144.749px" height="96.934px" viewBox="0 0 144.749 96.934" enable-background="new 0 0 144.749 96.934"
	 xml:space="preserve">
<path fill="none" stroke="#859985" stroke-width="2" d="M16.807,8.114h54.046"/>
<path fill="none" stroke="#859985" stroke-width="2" d="M14.635,10.288h58.392"/>
<path fill="none" stroke="#859985" stroke-width="2" d="M11.882,12.461h64.043"/>
<path fill="#859985" stroke="#000000" stroke-width="2" d="M25.356,6.085h2.898v7.1h-2.898V6.085z"/>
<path fill="#859985" stroke="#000000" stroke-width="2" d="M42.454,6.085h2.897v7.1h-2.897V6.085z"/>
<path fill="#859985" stroke="#000000" stroke-width="2" d="M59.552,6.085h2.897v7.1h-2.897V6.085z"/>
<path fill="#333333" d="M4.057,16.083h136.489v71.143H4.057V16.083z"/>
<path fill="none" stroke="#476647" stroke-width="2" d="M4.057,24.632h136.489"/>
<path fill="none" stroke="#476647" stroke-width="2" d="M4.057,36.079h136.489"/>
<path fill="none" stroke="#476647" stroke-width="2" d="M4.057,47.38h136.489"/>
<path fill="none" stroke="#476647" stroke-width="2" d="M4.057,58.682h136.489"/>
<path fill="none" stroke="#476647" stroke-width="2" d="M4.057,70.129h136.489"/>
<path fill="none" stroke="#476647" stroke-width="2" d="M4.057,81.43h136.489"/>
<path fill="none" stroke="#859985" stroke-width="2" d="M8.983,24.632H135.62"/>
<path fill="none" stroke="#859985" stroke-width="2" d="M8.983,36.079H135.62"/>
<path fill="none" stroke="#859985" stroke-width="2" d="M8.983,47.38H135.62"/>
<path fill="none" stroke="#859985" stroke-width="2" d="M8.983,58.682H135.62"/>
<path fill="none" stroke="#859985" stroke-width="2" d="M8.983,70.129H135.62"/>
<path fill="none" stroke="#859985" stroke-width="2" d="M8.983,81.43H135.62"/>
<path fill="none" stroke="#A3B2A3" stroke-width="2" d="M16.084,24.632H128.52"/>
<path fill="none" stroke="#A3B2A3" stroke-width="2" d="M16.084,36.079H128.52"/>
<path fill="none" stroke="#A3B2A3" stroke-width="2" d="M16.084,47.38H128.52"/>
<path fill="none" stroke="#A3B2A3" stroke-width="2" d="M16.084,58.682H128.52"/>
<path fill="none" stroke="#A3B2A3" stroke-width="2" d="M16.084,70.129H128.52"/>
<path fill="none" stroke="#A3B2A3" stroke-width="2" d="M16.084,81.43H128.52"/>
<path d="M10.432,90.123h123.739v2.754H10.432V90.123z"/>
<path fill="#A3B2A3" d="M97.948,16.083h2.753v71.143h-2.753V16.083z"/>
<path fill="#A3B2A3" d="M80.85,16.083h2.898v71.143H80.85V16.083z"/>
<path fill="#A3B2A3" d="M63.754,16.083h2.897v71.143h-2.897V16.083z"/>
<path fill="#A3B2A3" d="M46.656,16.083h2.897v71.143h-2.897V16.083z"/>
<path fill="#859985" d="M117.799,16.083h2.897v71.143h-2.897V16.083z"/>
<path fill="#859985" d="M29.703,16.083h2.754v71.143h-2.754V16.083z"/>
<path fill="#476647" d="M134.896,16.083h2.897v71.143h-2.897V16.083z"/>
<path fill="#476647" d="M12.606,16.083h2.753v71.143h-2.753V16.083z"/>
<path fill="#476647" d="M4.057,87.226h136.489l-2.174,2.753H6.23L4.057,87.226z"/>
<path fill="#476647" d="M6.23,13.185h132.143l2.174,2.898H4.057L6.23,13.185z"/>
<path fill="#859985" stroke="#000000" stroke-width="2" d="M12.606,13.185l7.824-7.1h46.945l10.577,7.1h2.897L67.955,4.057H19.706
	l-9.998,9.128H12.606z"/>
<path fill="#859985" d="M8.983,87.226H135.62l-2.028,2.753H11.012L8.983,87.226z"/>
<path fill="#859985" d="M11.012,13.185h122.579l2.028,2.898H8.983L11.012,13.185z"/>
<path fill="#A3B2A3" d="M16.084,87.226H128.52l-1.884,2.753H17.967L16.084,87.226z"/>
<path fill="#A3B2A3" d="M17.967,13.185h108.67l1.884,2.898H16.084L17.967,13.185z"/>
<path fill="none" stroke="#000000" stroke-width="2" d="M4.057,87.226h136.489l-2.174,2.753H6.23L4.057,87.226"/>
<path fill="none" stroke="#000000" stroke-width="2" d="M6.23,13.185h132.143l2.174,2.898H4.057L6.23,13.185"/>
<path fill="#DDE5DD" stroke="#000000" stroke-width="2" d="M60.855,44.482h22.894v8.549H60.855V44.482z"/>
</svg>
