<?xml version="1.0" encoding="utf-8"?>
<!-- Generator: Adobe Illustrator 14.0.0, SVG Export Plug-In . SVG Version: 6.00 Build 43363)  -->
<!DOCTYPE svg PUBLIC "-//W3C//DTD SVG 1.1//EN" "http://www.w3.org/Graphics/SVG/1.1/DTD/svg11.dtd">
<svg version="1.1" id="图层_1" xmlns="http://www.w3.org/2000/svg" xmlns:xlink="http://www.w3.org/1999/xlink" x="0px" y="0px"
	 width="116.15px" height="106.502px" viewBox="0 0 116.15 106.502" enable-background="new 0 0 116.15 106.502"
	 xml:space="preserve">
<path fill="#663300" stroke="#000000" stroke-width="2" d="M61.97,95.805v-5.813h5.697l-0.465,6.859L61.97,95.805z"/>
<path fill="#663300" stroke="#000000" stroke-width="2" d="M57.436,95.805v-5.813h-5.813l0.697,6.859L57.436,95.805z"/>
<path fill="#330000" d="M61.97,91.155v-1.163h5.697v1.163H61.97z"/>
<path fill="#330000" d="M57.436,91.155v-1.163h-5.813l0.232,1.163H57.436z"/>
<path fill="#E5E5E5" stroke="#000000" stroke-width="2" d="M67.202,96.851l0.465-3.371l-2.209-0.582l-2.907,0.582l-1.046-0.582
	l1.046,5.232L67.202,96.851z"/>
<path fill="#E5E5E5" stroke="#000000" stroke-width="2" d="M52.32,96.851l-0.697-3.371l2.441-0.582l2.907,0.582l1.046-0.582
	l-1.046,5.232L52.32,96.851z"/>
<path fill="#FFFFFF" stroke="#000000" stroke-width="2" d="M61.97,95.805l1.744,1.046l0.697-1.046h1.512l1.279,1.046v-1.046
	l0.465,0.581l1.046,2.209l2.907,2.441l-0.465,1.512l-4.651,0.698l-4.999-1.163l-0.581-2.441L61.97,95.805z"/>
<path fill="#FFFFFF" stroke="#000000" stroke-width="2" d="M57.436,95.805l-1.628,1.046l-0.697-1.046h-1.628l-1.163,1.046v-1.046
	l-0.697,0.581l-1.046,2.209l-2.907,2.441l0.697,1.512l4.651,0.698l4.999-1.163l0.582-2.441L57.436,95.805z"/>
<path fill="none" stroke="#000000" stroke-width="2" d="M64.411,98.13l2.791,2.209h2.209"/>
<path fill="none" stroke="#000000" stroke-width="2" d="M55.111,98.13l-2.791,2.209h-2.209"/>
<path fill="#6666FF" d="M65.923,102.548l-2.209-1.512l-1.744-0.697l-0.465-1.744v2.441l1.744,1.047L65.923,102.548z"/>
<path fill="#6666FF" d="M53.483,102.548l2.325-1.512l1.628-0.697l0.581-1.744v2.441l-1.744,1.047L53.483,102.548z"/>
<path fill="#6666CC" stroke="#000000" stroke-width="2" d="M48.832,58.018v31.974h9.185V62.553l2.209,27.438h9.186V58.018H48.832z"
	/>
<path fill="#000066" d="M62.551,89.991l-4.534-27.438l2.209,27.438H62.551z"/>
<path fill="#000066" d="M55.808,89.991V76.504l2.209-11.626v25.113H55.808z"/>
<path fill="#CC9966" stroke="#000000" stroke-width="2" d="M96.85,95.805v-5.813h5.697l-0.465,6.859L96.85,95.805z"/>
<path fill="#CC9966" stroke="#000000" stroke-width="2" d="M92.199,95.805v-5.813h-5.697l0.698,6.859L92.199,95.805z"/>
<path fill="#7F4C00" d="M96.85,91.155v-1.163h5.697v1.163H96.85z"/>
<path fill="#7F4C00" d="M92.199,91.155v-1.163h-5.697l0.232,1.163H92.199z"/>
<path fill="#FFFFFF" stroke="#000000" stroke-width="2" d="M102.082,96.851l0.465-3.371l-2.209-0.582l-2.906,0.582l-1.047-0.582
	l1.047,5.232L102.082,96.851z"/>
<path fill="#FFFFFF" stroke="#000000" stroke-width="2" d="M87.2,96.851l-0.698-3.371l2.441-0.582l2.907,0.582l1.046-0.582
	l-1.046,5.232L87.2,96.851z"/>
<path fill="#333333" stroke="#000000" stroke-width="2" d="M96.85,95.805l1.744,1.046l0.465-1.046h1.744l1.279,1.046v-1.046
	l0.465,0.581l1.047,2.209l2.906,2.441l-0.465,1.512l-4.65,0.698l-5-1.163l-0.581-2.441L96.85,95.805z"/>
<path fill="#333333" stroke="#000000" stroke-width="2" d="M92.199,95.805l-1.744,1.046l-0.465-1.046h-1.744L87.2,96.851v-1.046
	l-0.698,0.581l-1.046,2.209l-2.907,2.441l0.698,1.512l4.418,0.698l5.231-1.163l0.466-2.441L92.199,95.805z"/>
<path fill="none" stroke="#000000" stroke-width="2" d="M99.059,98.13l3.023,2.209h2.209"/>
<path fill="none" stroke="#000000" stroke-width="2" d="M89.99,98.13l-2.79,2.209h-2.442"/>
<path d="M100.803,102.548l-2.209-1.512l-1.744-0.697l-0.465-1.744v2.441l1.512,1.047L100.803,102.548z"/>
<path d="M88.246,102.548l2.209-1.512l1.744-0.697l0.697-1.744v2.441l-1.744,1.047L88.246,102.548z"/>
<path fill="#333333" stroke="#000000" stroke-width="2" d="M83.712,58.018v31.974h9.185V62.553l2.209,27.438h9.186V58.018H83.712z"
	/>
<path fill="#191919" d="M97.432,89.991l-4.535-27.438l2.209,27.438H97.432z"/>
<path fill="#191919" d="M90.455,89.991V76.504l2.441-11.626v25.113H90.455z"/>
<path fill="#FFCC99" stroke="#000000" stroke-width="2" d="M25.578,95.805v-5.813h5.697l-0.697,6.859L25.578,95.805z"/>
<path fill="#FFCC99" stroke="#000000" stroke-width="2" d="M20.928,95.805v-5.813h-5.697l0.465,6.859L20.928,95.805z"/>
<path fill="#996600" d="M25.578,91.155v-1.163h5.697l-0.232,1.163H25.578z"/>
<path fill="#996600" d="M20.928,91.155v-1.163h-5.697v1.163H20.928z"/>
<path fill="#FFFFFF" stroke="#000000" stroke-width="2" d="M30.578,96.851l0.697-3.371l-2.441-0.582l-2.79,0.582l-1.163-0.582
	l1.163,5.232L30.578,96.851z"/>
<path fill="#FFFFFF" stroke="#000000" stroke-width="2" d="M15.696,96.851l-0.465-3.371l2.209-0.582l2.791,0.582l1.162-0.582
	l-1.162,5.232L15.696,96.851z"/>
<path fill="#E5E5E5" stroke="#000000" stroke-width="2" d="M25.578,95.805l1.512,1.046l0.697-1.046h1.744l1.047,1.046v-1.046
	l0.697,0.581l1.047,2.209l2.906,2.441l-0.697,1.512l-4.535,0.698l-5.115-1.163l-0.349-2.441L25.578,95.805z"/>
<path fill="#E5E5E5" stroke="#000000" stroke-width="2" d="M20.928,95.805l-1.744,1.046l-0.581-1.046h-1.628l-1.279,1.046v-1.046
	l-0.465,0.581l-1.046,2.209l-3.14,2.441l0.698,1.512l4.65,0.698l4.999-1.163l0.698-2.441L20.928,95.805z"/>
<path fill="none" stroke="#000000" stroke-width="2" d="M27.787,98.13l2.791,2.209h2.209"/>
<path fill="none" stroke="#000000" stroke-width="2" d="M18.603,98.13l-2.907,2.209h-2.209"/>
<path fill="#999999" d="M29.531,102.548l-2.441-1.512l-1.512-0.697l-0.697-1.744v2.441l1.744,1.047L29.531,102.548z"/>
<path fill="#999999" d="M16.975,102.548l2.209-1.512l1.744-0.697l0.465-1.744v2.441l-1.511,1.047L16.975,102.548z"/>
<path fill="#663300" stroke="#000000" stroke-width="2" d="M12.441,58.018v31.974h8.952V62.553l2.441,27.438h8.953V58.018H12.441z"
	/>
<path fill="#4C1900" d="M26.044,89.991l-4.651-27.438l2.441,27.438H26.044z"/>
<path fill="#4C1900" d="M19.184,89.991V76.504l2.209-11.626v25.113H19.184z"/>
<path fill="#99CCCC" stroke="#000000" stroke-width="2" d="M3.139,60.46v-9.302L19.184,35.23h20.579v-9.185l9.069-18.254V3.14h18.37
	v4.651l9.068,18.254v9.185H96.85l16.045,15.929v9.302H3.139z"/>
<path fill="none" stroke="#000000" stroke-width="2" d="M3.139,51.158h109.756"/>
<path fill="none" stroke="#000000" stroke-width="2" d="M39.763,35.23h36.508"/>
<path fill="none" stroke="#000000" stroke-width="2" d="M39.763,26.045h36.508"/>
<path fill="none" stroke="#000000" stroke-width="2" d="M39.763,30.579h36.508"/>
<path fill="none" stroke="#000000" stroke-width="2" d="M48.832,7.791h18.37l-9.186,18.254L48.832,7.791"/>
</svg>
