<?xml version="1.0" encoding="utf-8"?>
<!-- Generator: Adobe Illustrator 14.0.0, SVG Export Plug-In . SVG Version: 6.00 Build 43363)  -->
<!DOCTYPE svg PUBLIC "-//W3C//DTD SVG 1.1//EN" "http://www.w3.org/Graphics/SVG/1.1/DTD/svg11.dtd">
<svg version="1.1" id="图层_1" xmlns="http://www.w3.org/2000/svg" xmlns:xlink="http://www.w3.org/1999/xlink" x="0px" y="0px"
	 width="87.631px" height="106.502px" viewBox="0 0 87.631 106.502" enable-background="new 0 0 87.631 106.502"
	 xml:space="preserve">
<path fill="#A6A6A6" stroke="#000000" stroke-width="2" d="M82.514,43.817h2.132v20.895h-2.132V43.817z"/>
<path fill="#A6A6A6" stroke="#000000" stroke-width="2" d="M5.117,7.144V2.986h75.265v4.158L65.777,5.011V4.052h-4.158v0.959H23.88
	V4.052h-4.158v0.959L5.117,7.144z"/>
<path fill="#E5E5E5" stroke="#000000" stroke-width="2" d="M2.985,9.276l4.158-4.265h71.214l4.157,4.265v89.977l-4.157,4.158H7.143
	l-4.158-4.158V9.276z"/>
<path fill="#A6A6A6" d="M28.038,7.144h49.253l3.092,3.198v87.844l-3.092,3.092H28.038V7.144z"/>
<path fill="#4C4C4C" d="M10.341,22.175h3.625v3.731h-3.625V22.175z"/>
<path fill="#4C4C4C" d="M10.341,17.591h3.625v3.731h-3.625V17.591z"/>
<path fill="#4C4C4C" d="M14.925,17.591h3.731v3.731h-3.731V17.591z"/>
<path fill="#4C4C4C" d="M14.925,22.175h3.731v3.731h-3.731V22.175z"/>
<path fill="#D8E5D8" d="M40.617,32.303h23.027v6.183H40.617V32.303z"/>
<path fill="#D8E5D8" d="M40.617,49.04h23.027v6.184H40.617V49.04z"/>
<path fill="#F2F2F2" d="M40.617,40.618h18.87v2.132h-18.87V40.618z"/>
<path fill="#F2F2F2" d="M40.617,57.356h18.87v2.132h-18.87V57.356z"/>
<path fill="none" stroke="#000000" stroke-width="2" d="M40.617,55.224V49.04h23.027"/>
<path fill="none" stroke="#000000" stroke-width="2" d="M40.617,38.486v-6.183h23.027"/>
<path fill="none" stroke="#FFFFFF" stroke-width="2" d="M28.038,101.278V7.144"/>
<path fill="none" stroke="#000000" stroke-width="2" d="M27.718,101.278V7.144"/>
</svg>
