<?xml version="1.0" encoding="utf-8"?>
<!-- Generator: Adobe Illustrator 14.0.0, SVG Export Plug-In . SVG Version: 6.00 Build 43363)  -->
<!DOCTYPE svg PUBLIC "-//W3C//DTD SVG 1.1//EN" "http://www.w3.org/Graphics/SVG/1.1/DTD/svg11.dtd">
<svg version="1.1" id="图层_1" xmlns="http://www.w3.org/2000/svg" xmlns:xlink="http://www.w3.org/1999/xlink" x="0px" y="0px"
	 width="114.897px" height="106.502px" viewBox="0 0 114.897 106.502" enable-background="new 0 0 114.897 106.502"
	 xml:space="preserve">
<path fill="#FF7F00" stroke="#000000" stroke-width="2" d="M44.855,19.898l1.84-5.866l5.636-5.865l8.741-3.796l9.775-1.149h14.837
	l9.661,1.149l8.856,3.796l5.521,5.865l1.84,6.441V86.03l-1.84,6.441l-5.521,5.865l-8.856,3.681l-9.661,1.265H70.847l-9.775-1.265
	l-8.741-3.681l-5.636-5.865l-1.84-5.866H3.22V19.898H44.855z"/>
<path fill="none" stroke="#000000" stroke-width="2" d="M44.855,86.605V19.898"/>
<path fill="none" stroke="#000000" stroke-width="2" d="M69.927,103.281V3.221"/>
<path fill="none" stroke="#000000" stroke-width="2" d="M86.604,103.281V3.221"/>
<ellipse fill="none" stroke="#000000" stroke-width="2" cx="24.038" cy="40.715" rx="6.211" ry="12.537"/>
<ellipse fill="none" stroke="#000000" stroke-width="2" cx="24.038" cy="65.673" rx="6.211" ry="12.421"/>
</svg>
