<?xml version="1.0" encoding="utf-8"?>
<!-- Generator: Adobe Illustrator 14.0.0, SVG Export Plug-In . SVG Version: 6.00 Build 43363)  -->
<!DOCTYPE svg PUBLIC "-//W3C//DTD SVG 1.1//EN" "http://www.w3.org/Graphics/SVG/1.1/DTD/svg11.dtd">
<svg version="1.1" id="图层_1" xmlns="http://www.w3.org/2000/svg" xmlns:xlink="http://www.w3.org/1999/xlink" x="0px" y="0px"
	 width="144.749px" height="56.361px" viewBox="0 0 144.749 56.361" enable-background="new 0 0 144.749 56.361"
	 xml:space="preserve">
<path fill="#666666" d="M109.103,4.057h14.199v2.608h-14.199V4.057z"/>
<path fill="#666666" d="M92.297,4.057h14.199v2.608H92.297V4.057z"/>
<path fill="#666666" d="M75.054,4.057h14.199v2.608H75.054V4.057z"/>
<path fill="#666666" d="M58.103,4.057h14.198v2.608H58.103V4.057z"/>
<path fill="#666666" d="M40.861,4.057H55.06v2.608H40.861V4.057z"/>
<path fill="#666666" d="M23.909,4.057h14.199v2.608H23.909V4.057z"/>
<path fill="#666666" d="M6.668,4.057h14.344v2.608H6.668V4.057z"/>
<path fill="#787878" d="M110.262,4.057h12.315v2.608h-12.315V4.057z"/>
<path fill="#787878" d="M93.31,4.057h12.026v2.608H93.31V4.057z"/>
<path fill="#787878" d="M76.069,4.057h12.315v2.608H76.069V4.057z"/>
<path fill="#787878" d="M59.117,4.057h12.026v2.608H59.117V4.057z"/>
<path fill="#787878" d="M42.02,4.057h12.315v2.608H42.02V4.057z"/>
<path fill="#787878" d="M25.068,4.057h12.026v2.608H25.068V4.057z"/>
<path fill="#787878" d="M7.827,4.057h12.315v2.608H7.827V4.057z"/>
<path fill="#878787" d="M111.422,4.057h9.997v2.608h-9.997V4.057z"/>
<path fill="#878787" d="M94.469,4.057h9.853v2.608h-9.853V4.057z"/>
<path fill="#878787" d="M77.228,4.057H87.37v2.608H77.228V4.057z"/>
<path fill="#878787" d="M60.276,4.057h9.853v2.608h-9.853V4.057z"/>
<path fill="#878787" d="M43.035,4.057h10.142v2.608H43.035V4.057z"/>
<path fill="#878787" d="M26.227,4.057h9.708v2.608h-9.708V4.057z"/>
<path fill="#878787" d="M8.986,4.057h9.997v2.608H8.986V4.057z"/>
<path fill="#999999" d="M112.436,4.057h7.969v2.608h-7.969V4.057z"/>
<path fill="#999999" d="M95.194,4.057h8.259v2.608h-8.259V4.057z"/>
<path fill="#999999" d="M78.387,4.057h7.824v2.608h-7.824V4.057z"/>
<path fill="#999999" d="M61.145,4.057h8.114v2.608h-8.114V4.057z"/>
<path fill="#999999" d="M44.193,4.057h7.97v2.608h-7.97V4.057z"/>
<path fill="#999999" d="M26.952,4.057h8.259v2.608h-8.259V4.057z"/>
<path fill="#999999" d="M10,4.057h7.969v2.608H10V4.057z"/>
<path fill="#ABABAB" d="M113.595,4.057h5.65v2.608h-5.65V4.057z"/>
<path fill="#ABABAB" d="M96.353,4.057h5.94v2.608h-5.94V4.057z"/>
<path fill="#ABABAB" d="M79.401,4.057h5.796v2.608h-5.796V4.057z"/>
<path fill="#ABABAB" d="M62.16,4.057h6.085v2.608H62.16V4.057z"/>
<path fill="#ABABAB" d="M45.208,4.057h5.796v2.608h-5.796V4.057z"/>
<path fill="#ABABAB" d="M27.967,4.057h6.085v2.608h-6.085V4.057z"/>
<path fill="#ABABAB" d="M11.159,4.057h5.65v2.608h-5.65V4.057z"/>
<path fill="#BABABA" d="M114.32,4.057h4.057v2.608h-4.057V4.057z"/>
<path fill="#BABABA" d="M97.368,4.057h3.912v2.608h-3.912V4.057z"/>
<path fill="#BABABA" d="M80.271,4.057h4.057v2.608h-4.057V4.057z"/>
<path fill="#BABABA" d="M63.319,4.057h3.767v2.608h-3.767V4.057z"/>
<path fill="#BABABA" d="M46.077,4.057h4.057v2.608h-4.057V4.057z"/>
<path fill="#BABABA" d="M29.125,4.057h3.768v2.608h-3.768V4.057z"/>
<path fill="#BABABA" d="M11.884,4.057h4.202v2.608h-4.202V4.057z"/>
<path fill="#CCCCCC" d="M115.478,4.057h1.884v2.608h-1.884V4.057z"/>
<path fill="#CCCCCC" d="M98.527,4.057h1.594v2.608h-1.594V4.057z"/>
<path fill="#CCCCCC" d="M81.285,4.057h1.884v2.608h-1.884V4.057z"/>
<path fill="#CCCCCC" d="M64.333,4.057h1.739v2.608h-1.739V4.057z"/>
<path fill="#CCCCCC" d="M47.236,4.057h1.884v2.608h-1.884V4.057z"/>
<path fill="#CCCCCC" d="M30.284,4.057h1.594v2.608h-1.594V4.057z"/>
<path fill="#CCCCCC" d="M13.043,4.057h1.884v2.608h-1.884V4.057z"/>
<path fill="#333333" stroke="#000000" stroke-width="2" d="M15.506,49.406v-8.548h45.351v-2.753H95.05v-5.65h22.893v8.403h14.199
	v8.548H15.506z"/>
<path fill="#CCCCCC" stroke="#000000" stroke-width="2" d="M4.059,6.665h136.485v42.741h-8.403V32.455H4.059V6.665z"/>
<path fill="#BFBFBF" stroke="#000000" stroke-width="2" d="M4.059,49.406v2.898h136.485v-2.898H4.059z"/>
<path fill="#BFBFBF" stroke="#000000" stroke-width="2" d="M103.743,32.455v16.951h2.753V32.455H103.743z"/>
<path fill="#BFBFBF" stroke="#000000" stroke-width="2" d="M83.748,32.455v16.951h2.753V32.455H83.748z"/>
<path fill="#BFBFBF" stroke="#000000" stroke-width="2" d="M63.898,32.455v16.951h2.608V32.455H63.898z"/>
<path fill="#BFBFBF" stroke="#000000" stroke-width="2" d="M43.904,32.455v16.951h2.753V32.455H43.904z"/>
<path fill="#BFBFBF" stroke="#000000" stroke-width="2" d="M23.909,32.455v16.951h2.753V32.455H23.909z"/>
<path fill="#BFBFBF" stroke="#000000" stroke-width="2" d="M4.059,32.455v16.951h2.608V32.455H4.059z"/>
<path fill="#666666" stroke="#000000" stroke-width="2" d="M100.7,49.406V38.106h25.646v11.301H100.7z"/>
<path fill="#666666" stroke="#000000" stroke-width="2" d="M11.884,49.406V35.208h16.952v14.198H11.884z"/>
<path fill="#B2B2B2" d="M6.668,10.287v17.241h117.504V10.287H6.668z"/>
<path fill="none" stroke="#000000" stroke-width="2" d="M6.668,26.949h17.241"/>
<path fill="none" stroke="#000000" stroke-width="2" d="M23.909,23.906H6.668"/>
<path fill="none" stroke="#000000" stroke-width="2" d="M6.668,21.299h17.241"/>
<path fill="none" stroke="#000000" stroke-width="2" d="M23.909,18.256H6.668"/>
<path fill="none" stroke="#000000" stroke-width="2" d="M6.668,15.503h17.241"/>
<path fill="none" stroke="#000000" stroke-width="2" d="M23.909,12.46H6.668"/>
<path fill="none" stroke="#000000" stroke-width="2" d="M6.668,25.356h17.241"/>
<path fill="none" stroke="#000000" stroke-width="2" d="M23.909,22.603H6.668"/>
<path fill="none" stroke="#000000" stroke-width="2" d="M6.668,19.85h17.241"/>
<path fill="none" stroke="#000000" stroke-width="2" d="M23.909,16.807H6.668"/>
<path fill="none" stroke="#000000" stroke-width="2" d="M6.668,14.054h17.241"/>
<path fill="none" stroke="#000000" stroke-width="2" d="M23.909,11.156H6.668"/>
<path fill="none" stroke="#000000" stroke-width="2" d="M26.662,26.949h17.242"/>
<path fill="none" stroke="#000000" stroke-width="2" d="M43.904,23.906H26.662"/>
<path fill="none" stroke="#000000" stroke-width="2" d="M26.662,21.299h17.242"/>
<path fill="none" stroke="#000000" stroke-width="2" d="M43.904,18.256H26.662"/>
<path fill="none" stroke="#000000" stroke-width="2" d="M26.662,15.503h17.242"/>
<path fill="none" stroke="#000000" stroke-width="2" d="M43.904,12.46H26.662"/>
<path fill="none" stroke="#000000" stroke-width="2" d="M26.662,25.356h17.242"/>
<path fill="none" stroke="#000000" stroke-width="2" d="M43.904,22.603H26.662"/>
<path fill="none" stroke="#000000" stroke-width="2" d="M26.662,19.85h17.242"/>
<path fill="none" stroke="#000000" stroke-width="2" d="M43.904,16.807H26.662"/>
<path fill="none" stroke="#000000" stroke-width="2" d="M26.662,14.054h17.242"/>
<path fill="none" stroke="#000000" stroke-width="2" d="M43.904,11.156H26.662"/>
<path fill="none" stroke="#000000" stroke-width="2" d="M46.657,26.949h17.241"/>
<path fill="none" stroke="#000000" stroke-width="2" d="M63.898,23.906H46.657"/>
<path fill="none" stroke="#000000" stroke-width="2" d="M46.657,21.299h17.241"/>
<path fill="none" stroke="#000000" stroke-width="2" d="M63.898,18.256H46.657"/>
<path fill="none" stroke="#000000" stroke-width="2" d="M46.657,15.503h17.241"/>
<path fill="none" stroke="#000000" stroke-width="2" d="M63.898,12.46H46.657"/>
<path fill="none" stroke="#000000" stroke-width="2" d="M46.657,25.356h17.241"/>
<path fill="none" stroke="#000000" stroke-width="2" d="M63.898,22.603H46.657"/>
<path fill="none" stroke="#000000" stroke-width="2" d="M46.657,19.85h17.241"/>
<path fill="none" stroke="#000000" stroke-width="2" d="M63.898,16.807H46.657"/>
<path fill="none" stroke="#000000" stroke-width="2" d="M46.657,14.054h17.241"/>
<path fill="none" stroke="#000000" stroke-width="2" d="M63.898,11.156H46.657"/>
<path fill="none" stroke="#000000" stroke-width="2" d="M66.507,26.949h17.241"/>
<path fill="none" stroke="#000000" stroke-width="2" d="M83.748,23.906H66.507"/>
<path fill="none" stroke="#000000" stroke-width="2" d="M66.507,21.299h17.241"/>
<path fill="none" stroke="#000000" stroke-width="2" d="M83.748,18.256H66.507"/>
<path fill="none" stroke="#000000" stroke-width="2" d="M66.507,15.503h17.241"/>
<path fill="none" stroke="#000000" stroke-width="2" d="M83.748,12.46H66.507"/>
<path fill="none" stroke="#000000" stroke-width="2" d="M66.507,25.356h17.241"/>
<path fill="none" stroke="#000000" stroke-width="2" d="M83.748,22.603H66.507"/>
<path fill="none" stroke="#000000" stroke-width="2" d="M66.507,19.85h17.241"/>
<path fill="none" stroke="#000000" stroke-width="2" d="M83.748,16.807H66.507"/>
<path fill="none" stroke="#000000" stroke-width="2" d="M66.507,14.054h17.241"/>
<path fill="none" stroke="#000000" stroke-width="2" d="M83.748,11.156H66.507"/>
<path fill="none" stroke="#000000" stroke-width="2" d="M86.501,26.949h17.242"/>
<path fill="none" stroke="#000000" stroke-width="2" d="M103.743,23.906H86.501"/>
<path fill="none" stroke="#000000" stroke-width="2" d="M86.501,21.299h17.242"/>
<path fill="none" stroke="#000000" stroke-width="2" d="M103.743,18.256H86.501"/>
<path fill="none" stroke="#000000" stroke-width="2" d="M86.501,15.503h17.242"/>
<path fill="none" stroke="#000000" stroke-width="2" d="M103.743,12.46H86.501"/>
<path fill="none" stroke="#000000" stroke-width="2" d="M86.501,25.356h17.242"/>
<path fill="none" stroke="#000000" stroke-width="2" d="M103.743,22.603H86.501"/>
<path fill="none" stroke="#000000" stroke-width="2" d="M86.501,19.85h17.242"/>
<path fill="none" stroke="#000000" stroke-width="2" d="M103.743,16.807H86.501"/>
<path fill="none" stroke="#000000" stroke-width="2" d="M86.501,14.054h17.242"/>
<path fill="none" stroke="#000000" stroke-width="2" d="M103.743,11.156H86.501"/>
<path fill="none" stroke="#000000" stroke-width="2" d="M106.496,26.949h16.807"/>
<path fill="none" stroke="#000000" stroke-width="2" d="M123.302,23.906h-16.807"/>
<path fill="none" stroke="#000000" stroke-width="2" d="M106.496,21.299h16.807"/>
<path fill="none" stroke="#000000" stroke-width="2" d="M123.302,18.256h-16.807"/>
<path fill="none" stroke="#000000" stroke-width="2" d="M106.496,15.503h16.807"/>
<path fill="none" stroke="#000000" stroke-width="2" d="M123.302,12.46h-16.807"/>
<path fill="none" stroke="#000000" stroke-width="2" d="M106.496,25.356h16.807"/>
<path fill="none" stroke="#000000" stroke-width="2" d="M123.302,22.603h-16.807"/>
<path fill="none" stroke="#000000" stroke-width="2" d="M106.496,19.85h16.807"/>
<path fill="none" stroke="#000000" stroke-width="2" d="M123.302,16.807h-16.807"/>
<path fill="none" stroke="#000000" stroke-width="2" d="M106.496,14.054h16.807"/>
<path fill="none" stroke="#000000" stroke-width="2" d="M123.302,11.156h-16.807"/>
<path fill="none" stroke="#000000" stroke-width="2" d="M6.668,4.057h14.344v2.608H6.668V4.057"/>
<path fill="none" stroke="#000000" stroke-width="2" d="M23.909,4.057h14.199v2.608H23.909V4.057"/>
<path fill="none" stroke="#000000" stroke-width="2" d="M40.861,4.057H55.06v2.608H40.861V4.057"/>
<path fill="none" stroke="#000000" stroke-width="2" d="M58.103,4.057h14.198v2.608H58.103V4.057"/>
<path fill="none" stroke="#000000" stroke-width="2" d="M75.054,4.057h14.199v2.608H75.054V4.057"/>
<path fill="none" stroke="#000000" stroke-width="2" d="M92.297,4.057h14.199v2.608H92.297V4.057"/>
<path fill="none" stroke="#000000" stroke-width="2" d="M109.103,4.057h14.199v2.608h-14.199V4.057"/>
<path fill="none" stroke="#B2B2B2" stroke-width="2" d="M132.141,32.455V6.665"/>
</svg>
