<?xml version="1.0" encoding="utf-8"?>
<!-- Generator: Adobe Illustrator 14.0.0, SVG Export Plug-In . SVG Version: 6.00 Build 43363)  -->
<!DOCTYPE svg PUBLIC "-//W3C//DTD SVG 1.1//EN" "http://www.w3.org/Graphics/SVG/1.1/DTD/svg11.dtd">
<svg version="1.1" id="图层_1" xmlns="http://www.w3.org/2000/svg" xmlns:xlink="http://www.w3.org/1999/xlink" x="0px" y="0px"
	 width="62.475px" height="106.502px" viewBox="0 0 62.475 106.502" enable-background="new 0 0 62.475 106.502"
	 xml:space="preserve">
<path d="M6.93,99.253h46.269v4.157H6.93V99.253z"/>
<path fill="#666666" d="M2.986,7.143h50.213v92.11H2.986V7.143z"/>
<path fill="#616161" d="M2.986,72.494l50.213-38.38v65.139H2.986V72.494z"/>
<path fill="#5C5C5C" d="M2.986,76.332l50.213-38.38v61.301H2.986V76.332z"/>
<path fill="#575757" d="M2.986,82.196l50.213-38.699v55.757H2.986V82.196z"/>
<path fill="none" stroke="#000000" stroke-width="2" d="M2.986,7.143h50.213v92.11H2.986V7.143"/>
<path fill="#7F7F7F" stroke="#000000" stroke-width="2" d="M53.198,2.985h4.265V103.41h-4.265V2.985z"/>
<path d="M57.25,84.008h2.238v0.533H57.25V84.008z"/>
<path d="M57.25,21.855h2.238v0.533H57.25V21.855z"/>
<path d="M57.25,63.646h2.238v0.64H57.25V63.646z"/>
<path d="M57.25,42.75h2.238v0.64H57.25V42.75z"/>
</svg>
