<?xml version="1.0" encoding="utf-8"?>
<!-- Generator: Adobe Illustrator 14.0.0, SVG Export Plug-In . SVG Version: 6.00 Build 43363)  -->
<!DOCTYPE svg PUBLIC "-//W3C//DTD SVG 1.1//EN" "http://www.w3.org/Graphics/SVG/1.1/DTD/svg11.dtd">
<svg version="1.1" id="图层_1" xmlns="http://www.w3.org/2000/svg" xmlns:xlink="http://www.w3.org/1999/xlink" x="0px" y="0px"
	 width="122.148px" height="106.502px" viewBox="0 0 122.148 106.502" enable-background="new 0 0 122.148 106.502"
	 xml:space="preserve">
<path fill="#A6A6A6" stroke="#000000" stroke-width="2" d="M91.336,103.076l4.769-2.445h-4.769V103.076z"/>
<path fill="#A6A6A6" stroke="#000000" stroke-width="2" d="M15.406,103.076l4.769-2.445h-4.769V103.076z"/>
<path fill="#4C4C4C" stroke="#000000" stroke-width="2" d="M3.423,13.085h95.983v87.912H3.423V13.085z"/>
<path d="M7.336,16.998h88.035V93.05H7.336V16.998z"/>
<path fill="#7F3F0C" d="M11.371,21.033h80.087v67.981H11.371V21.033z"/>
<path fill="none" stroke="#000000" stroke-width="2" d="M11.371,24.946h80.087"/>
<path fill="none" stroke="#000000" stroke-width="2" d="M11.371,33.016h80.087"/>
<path fill="none" stroke="#000000" stroke-width="2" d="M11.371,40.963h80.087"/>
<path fill="none" stroke="#000000" stroke-width="2" d="M11.371,49.032h80.087"/>
<path fill="none" stroke="#000000" stroke-width="2" d="M11.371,56.981h80.087"/>
<path fill="none" stroke="#000000" stroke-width="2" d="M11.371,65.05h80.087"/>
<path fill="none" stroke="#000000" stroke-width="2" d="M11.371,72.998h80.087"/>
<path fill="none" stroke="#000000" stroke-width="2" d="M11.371,81.068h80.087"/>
<path fill="none" stroke="#000000" stroke-width="2" d="M91.458,28.981H11.371"/>
<path fill="none" stroke="#000000" stroke-width="2" d="M91.458,37.05H11.371"/>
<path fill="none" stroke="#000000" stroke-width="2" d="M91.458,44.998H11.371"/>
<path fill="none" stroke="#000000" stroke-width="2" d="M91.458,53.068H11.371"/>
<path fill="none" stroke="#000000" stroke-width="2" d="M91.458,61.015H11.371"/>
<path fill="none" stroke="#000000" stroke-width="2" d="M91.458,69.085H11.371"/>
<path fill="none" stroke="#000000" stroke-width="2" d="M91.458,77.032H11.371"/>
<path fill="none" stroke="#000000" stroke-width="2" d="M91.458,85.103H11.371"/>
<path fill="#CC6633" d="M11.371,89.015l1.957-1.956h76.051V22.99l2.079-1.956v67.981H11.371z"/>
<path fill="#663300" d="M91.458,20.91l-2.079,2.079H13.328v64.069l-1.957,1.956V20.91H91.458z"/>
<path fill="#999999" d="M11.371,90.972h80.087v2.078H11.371V90.972z"/>
<path d="M11.371,100.997h4.035v2.079h-4.035V100.997z"/>
<path d="M87.424,100.997h4.034v2.079h-4.034V100.997z"/>
<path stroke="#000000" stroke-width="2" d="M99.406,12.963l19.195-9.537v87.546l-19.195,9.659V12.963z"/>
<path fill="#7F7F7F" stroke="#000000" stroke-width="2" d="M99.406,12.963l19.195-9.537H22.62L3.423,12.963H99.406z"/>
</svg>
