<?xml version="1.0" encoding="utf-8"?>
<!-- Generator: Adobe Illustrator 14.0.0, SVG Export Plug-In . SVG Version: 6.00 Build 43363)  -->
<!DOCTYPE svg PUBLIC "-//W3C//DTD SVG 1.1//EN" "http://www.w3.org/Graphics/SVG/1.1/DTD/svg11.dtd">
<svg version="1.1" id="图层_1" xmlns="http://www.w3.org/2000/svg" xmlns:xlink="http://www.w3.org/1999/xlink" x="0px" y="0px"
	 width="72.489px" height="106.502px" viewBox="0 0 72.489 106.502" enable-background="new 0 0 72.489 106.502"
	 xml:space="preserve">
<path d="M15.031,99.783h3.625v3.73h-3.625V99.783z"/>
<path d="M62.256,99.783h3.624v3.73h-3.624V99.783z"/>
<path d="M37.95,99.783h3.625v3.73H37.95V99.783z"/>
<path fill="#F2E5CC" d="M11.406,2.881h58.099v96.902H11.406V2.881z"/>
<path fill="#EDE0C7" d="M11.406,71.64l58.099-40.402v68.546H11.406V71.64z"/>
<path fill="#E8DBC2" d="M11.406,75.691l58.099-40.402v64.495H11.406V75.691z"/>
<path fill="#E3D6BD" d="M11.406,81.767l58.099-40.401v58.418H11.406V81.767z"/>
<path fill="none" stroke="#000000" stroke-width="2" d="M11.406,2.881h58.099v96.902H11.406V2.881"/>
<path fill="#F2E5CC" stroke="#000000" stroke-width="2" d="M11.406,7.785H8.955l-4.797,7.249v31.554h7.249V7.785z"/>
<path fill="none" stroke="#B2A58C" stroke-width="2" d="M13.751,7.785h29.209v36.352H13.751V7.785"/>
<path fill="#333333" d="M21,46.588h14.711v4.798H21V46.588z"/>
<path fill="none" stroke="#FFF2D9" stroke-width="2" d="M62.256,97.438V70.681"/>
<path fill="none" stroke="#B2A58C" stroke-width="2" d="M59.804,97.438V70.681"/>
<path fill="#EBDEC5" d="M57.458,58.635h7.25v7.249h-7.25V58.635z"/>
<path fill="none" stroke="#B2A58C" stroke-width="2" d="M60.443,63.432l-0.64-0.64v-0.96l0.64-0.746h0.96l0.853,0.746v0.96
	l-0.853,0.64H60.443"/>
<path fill="#B2A58C" d="M28.037,84.539l-0.747-1.386l0.747-1.6h1.812l0.853,1.6l-0.853,1.386H28.037z"/>
<path fill="#B2A58C" d="M21.854,74.945L21,73.452l0.853-1.492h1.812l0.747,1.492l-0.747,1.492H21.854z"/>
<path fill="#4C3F26" d="M28.037,13.435l-0.959-1.599l0.959-1.706h1.812l0.853,1.706l-0.853,1.599H28.037z"/>
<path fill="none" stroke="#000000" stroke-width="2" d="M2.878,46.588l1.279-1.492"/>
<path fill="none" stroke="#000000" stroke-width="2" d="M2.878,17.593l1.279-1.386"/>
<path fill="none" stroke="#000000" stroke-width="2" d="M2.878,23.456l1.279-1.387"/>
<path fill="none" stroke="#000000" stroke-width="2" d="M2.878,29.319l1.279-1.705"/>
<path fill="none" stroke="#000000" stroke-width="2" d="M2.878,34.863l1.279-1.386"/>
<path fill="none" stroke="#000000" stroke-width="2" d="M2.878,40.726l1.279-1.387"/>
</svg>
