<?xml version="1.0" encoding="utf-8"?>
<!-- Generator: Adobe Illustrator 14.0.0, SVG Export Plug-In . SVG Version: 6.00 Build 43363)  -->
<!DOCTYPE svg PUBLIC "-//W3C//DTD SVG 1.1//EN" "http://www.w3.org/Graphics/SVG/1.1/DTD/svg11.dtd">
<svg version="1.1" id="图层_1" xmlns="http://www.w3.org/2000/svg" xmlns:xlink="http://www.w3.org/1999/xlink" x="0px" y="0px"
	 width="144.749px" height="70.128px" viewBox="0 0 144.749 70.128" enable-background="new 0 0 144.749 70.128"
	 xml:space="preserve">
<path fill="#336666" stroke="#000000" stroke-width="2" d="M4.057,60.275v2.754l5.651,3.042h125.187l5.651-3.042v-2.754h-5.651
	V9.128H9.709v51.146H4.057z"/>
<path fill="#CCCCCC" d="M78.532,11.881h53.61v25.646h-53.61V11.881z"/>
<path fill="#CCCCCC" d="M12.462,11.881h53.32v25.646h-53.32V11.881z"/>
<path fill="#B2B2B2" d="M114.9,12.75h16.373v24.052H114.9V12.75z"/>
<path fill="#B2B2B2" d="M97.079,12.75h16.518v24.052H97.079V12.75z"/>
<path fill="#B2B2B2" d="M79.402,12.75h16.372v24.052H79.402V12.75z"/>
<path fill="#B2B2B2" d="M48.83,12.75h16.372v24.052H48.83V12.75z"/>
<path fill="#B2B2B2" d="M31.008,12.75h16.518v24.052H31.008V12.75z"/>
<path fill="#B2B2B2" d="M13.331,12.75h16.373v24.052H13.331V12.75z"/>
<path fill="#FFFFFF" d="M132.722,12.75h1.304V27.53h-1.304V12.75z"/>
<path fill="#FFFFFF" d="M71.432,14.055h1.739v14.779h-1.739V14.055z"/>
<path fill="#FFFFFF" d="M10.288,12.75h1.594V27.53h-1.594V12.75z"/>
<path fill="none" stroke="#99CCCC" stroke-width="2" d="M75.779,11.881v45.642h-6.954"/>
<path fill="none" stroke="#99CCCC" stroke-width="2" d="M131.273,40.281v16.951H78.532"/>
<path fill="none" stroke="#99CCCC" stroke-width="2" d="M65.782,40.281v16.951H13.331"/>
<path fill="none" stroke="#003333" stroke-width="2" d="M75.779,11.881h-6.954v45.642"/>
<path fill="#003333" d="M78.532,40.281h52.741v17.242H78.532V40.281z"/>
<path fill="#003333" d="M13.331,40.281h52.451v17.242H13.331V40.281z"/>
<path fill="none" stroke="#000000" stroke-width="2" d="M78.532,57.523V40.281h52.741"/>
<path fill="none" stroke="#000000" stroke-width="2" d="M13.331,57.523V40.281h52.451"/>
<path fill="#001919" d="M60.855,63.029h4.927v0.725h-4.927V63.029z"/>
<path fill="#001919" d="M78.532,63.029h5.217v0.725h-5.217V63.029z"/>
<path fill="#666666" d="M47.96,14.055h0.87v0.58h-0.87V14.055z"/>
<path fill="#666666" d="M47.96,34.629h0.87v0.725h-0.87V34.629z"/>
<path fill="#666666" d="M47.96,24.777h0.87v0.869h-0.87V24.777z"/>
<path fill="#666666" d="M29.704,14.055h0.579v0.58h-0.579V14.055z"/>
<path fill="#666666" d="M29.704,34.629h0.579v0.725h-0.579V34.629z"/>
<path fill="#666666" d="M29.704,24.777h0.579v0.869h-0.579V24.777z"/>
<path fill="#666666" d="M12.462,14.055h0.869v0.58h-0.869V14.055z"/>
<path fill="#666666" d="M12.462,34.629h0.869v0.725h-0.869V34.629z"/>
<path fill="#666666" d="M12.462,24.777h0.869v0.869h-0.869V24.777z"/>
<path fill="#666666" d="M65.202,14.055h0.58v0.58h-0.58V14.055z"/>
<path fill="#666666" d="M65.202,34.629h0.58v0.725h-0.58V34.629z"/>
<path fill="#666666" d="M65.202,24.777h0.58v0.869h-0.58V24.777z"/>
<path fill="#666666" d="M114.321,14.055h0.579v0.58h-0.579V14.055z"/>
<path fill="#666666" d="M114.321,34.629h0.579v0.725h-0.579V34.629z"/>
<path fill="#666666" d="M114.321,24.777h0.579v0.869h-0.579V24.777z"/>
<path fill="#666666" d="M95.774,14.055h0.87v0.58h-0.87V14.055z"/>
<path fill="#666666" d="M95.774,34.629h0.87v0.725h-0.87V34.629z"/>
<path fill="#666666" d="M95.774,24.777h0.87v0.869h-0.87V24.777z"/>
<path fill="#666666" d="M78.822,14.055h0.58v0.58h-0.58V14.055z"/>
<path fill="#666666" d="M78.822,34.629h0.58v0.725h-0.58V34.629z"/>
<path fill="#666666" d="M78.822,24.777h0.58v0.869h-0.58V24.777z"/>
<path fill="#666666" d="M131.273,14.055h0.869v0.58h-0.869V14.055z"/>
<path fill="#666666" d="M131.273,34.629h0.869v0.725h-0.869V34.629z"/>
<path fill="#666666" d="M131.273,24.777h0.869v0.869h-0.869V24.777z"/>
<path fill="#336666" d="M49.553,40.281h1.449v17.242h-1.449V40.281z"/>
<path fill="#336666" d="M93.601,40.281h1.449v17.242h-1.449V40.281z"/>
<path fill="#001919" d="M56.653,41.15h5.507v15.503h-5.507V41.15z"/>
<path fill="#001919" d="M51.003,44.626h5.65v9.998h-5.65V44.626z"/>
<path fill="#001919" d="M38.976,44.626h10.577v9.998H38.976V44.626z"/>
<path fill="#001919" d="M16.808,46.945h22.168v9.708H16.808V46.945z"/>
<path fill="#001919" d="M115.769,48.25h10.577v8.403h-10.577V48.25z"/>
<path fill="#001919" d="M109.974,43.323h5.795v11.302h-5.795V43.323z"/>
<path fill="#001919" d="M95.051,46.945h14.924v9.708H95.051V46.945z"/>
<path fill="#001919" d="M78.822,44.626h9.853v9.998h-9.853V44.626z"/>
<path fill="#001919" d="M82.444,54.625h8.983v2.028h-8.983V54.625z"/>
<path fill="#4C7F7F" stroke="#000000" stroke-width="2" d="M36.803,64.623V4.781h70.997v59.841h-2.753V7.535H39.556v57.088H36.803z"
	/>
<path fill="#336666" stroke="#000000" stroke-width="2" d="M102.875,4.057h5.795v5.651h-4.347l-1.448-1.304V4.057z"/>
<path fill="#336666" stroke="#000000" stroke-width="2" d="M35.934,9.708V4.057h5.795v4.347l-1.448,1.304H35.934z"/>
</svg>
