<?xml version="1.0" encoding="utf-8"?>
<!-- Generator: Adobe Illustrator 14.0.0, SVG Export Plug-In . SVG Version: 6.00 Build 43363)  -->
<!DOCTYPE svg PUBLIC "-//W3C//DTD SVG 1.1//EN" "http://www.w3.org/Graphics/SVG/1.1/DTD/svg11.dtd">
<svg version="1.1" id="图层_1" xmlns="http://www.w3.org/2000/svg" xmlns:xlink="http://www.w3.org/1999/xlink" x="0px" y="0px"
	 width="144.749px" height="75.204px" viewBox="0 0 144.749 75.204" enable-background="new 0 0 144.749 75.204"
	 xml:space="preserve">
<path fill="#666666" d="M15.214,38.979v-1.884H9.129l-0.58-5.506l-1.884,6.81L15.214,38.979z"/>
<path fill="#999999" d="M138.663,26.373H15.794v21.879h122.869V26.373z"/>
<path fill="#4C4C4C" d="M15.214,26.373h0.58v21.879h-0.58V26.373z"/>
<path fill="#4C4C4C" d="M15.794,36.226v-0.58h2.173v0.58H15.794z"/>
<path fill="#4C4C4C" d="M15.794,33.762v-0.869h2.173v0.869H15.794z"/>
<path fill="#4C4C4C" d="M15.794,31.009v-0.725h2.173v0.725H15.794z"/>
<path fill="#4C4C4C" d="M15.794,28.256v-0.435h2.173v0.435H15.794z"/>
<path fill="#4C4C4C" d="M15.794,38.979v-0.58h2.173v0.58H15.794z"/>
<path fill="#4C4C4C" d="M15.794,41.731v-0.869h2.173v0.869H15.794z"/>
<path fill="#4C4C4C" d="M15.794,44.195v-0.579h2.173v0.579H15.794z"/>
<path fill="#4C4C4C" d="M15.794,46.948v-0.58h2.173v0.58H15.794z"/>
<path fill="#4C4C4C" d="M138.663,48.251h-0.724V26.373h0.724V48.251z"/>
<path fill="#4C4C4C" d="M137.939,38.399v0.58h-1.884v-0.58H137.939z"/>
<path fill="#4C4C4C" d="M137.939,40.862v0.58h-1.884v-0.58H137.939z"/>
<path fill="#4C4C4C" d="M137.939,43.616v0.579h-1.884v-0.579H137.939z"/>
<path fill="#4C4C4C" d="M137.939,46.079v0.869h-1.884v-0.869H137.939z"/>
<path fill="#4C4C4C" d="M137.939,35.646v0.58h-1.884v-0.58H137.939z"/>
<path fill="#4C4C4C" d="M137.939,32.893v0.58h-1.884v-0.58H137.939z"/>
<path fill="#4C4C4C" d="M137.939,30.285v0.725h-1.884v-0.725H137.939z"/>
<path fill="#4C4C4C" d="M137.939,27.822v0.435h-1.884v-0.435H137.939z"/>
<path fill="#CCCCCC" d="M138.663,11.014H15.794v11.591h122.869V11.014z"/>
<path fill="#7F7F7F" d="M15.214,11.014h0.58v11.591h-0.58V11.014z"/>
<path fill="#7F7F7F" d="M15.794,21.157v-0.725h2.173v0.725H15.794z"/>
<path fill="#7F7F7F" d="M15.794,18.404v-0.435h2.173v0.435H15.794z"/>
<path fill="#7F7F7F" d="M15.794,15.795v-0.58h2.173v0.58H15.794z"/>
<path fill="#7F7F7F" d="M15.794,13.333v-0.87h2.173v0.87H15.794z"/>
<path fill="#7F7F7F" d="M138.663,22.605h-0.724V11.014h0.724V22.605z"/>
<path fill="#7F7F7F" d="M137.939,12.463v0.87h-1.884v-0.87H137.939z"/>
<path fill="#7F7F7F" d="M137.939,15.216v0.58h-1.884v-0.58H137.939z"/>
<path fill="#7F7F7F" d="M137.939,17.969v0.435h-1.884v-0.435H137.939z"/>
<path fill="#7F7F7F" d="M137.939,20.432v0.725h-1.884v-0.725H137.939z"/>
<path fill="none" stroke="#000000" stroke-width="2" d="M139.243,11.014H15.214v11.591h124.029V11.014"/>
<path fill="none" stroke="#000000" stroke-width="2" d="M139.243,26.373H15.214v21.879h124.029V26.373"/>
<path fill="#336666" d="M19.271,7.826h116.204v58.248H19.271V7.826z"/>
<path fill="#386B6B" d="M19.271,9.42h116.204v54.914H19.271V9.42z"/>
<path fill="#407373" d="M19.271,11.014h116.204v51.727H19.271V11.014z"/>
<path fill="#457878" d="M19.271,12.753h116.204v48.394H19.271V12.753z"/>
<path fill="#4C7F7F" d="M19.271,14.347h116.204v45.062H19.271V14.347z"/>
<path fill="#528585" d="M19.271,15.94h116.204v41.875H19.271V15.94z"/>
<path fill="#598C8C" d="M19.271,17.679h116.204v38.542H19.271V17.679z"/>
<path fill="#5E9191" d="M19.271,19.273h116.204v35.354H19.271V19.273z"/>
<path fill="#669999" d="M19.271,20.867h116.204v32.021H19.271V20.867z"/>
<path fill="#6B9E9E" d="M19.271,22.605h116.204v28.689H19.271V22.605z"/>
<path fill="#73A6A6" d="M19.271,24.489h116.204v24.777H19.271V24.489z"/>
<path fill="#78ABAB" d="M19.271,26.083h116.204v21.589H19.271V26.083z"/>
<path fill="#7FB2B2" d="M19.271,27.822h116.204v18.257H19.271V27.822z"/>
<path fill="#85B8B8" d="M19.271,29.416h116.204v15.069H19.271V29.416z"/>
<path fill="#8CBFBF" d="M19.271,31.009h116.204v11.736H19.271V31.009z"/>
<path fill="#91C4C4" d="M19.271,32.748h116.204v8.404H19.271V32.748z"/>
<path fill="#99CCCC" d="M19.271,34.342h116.204v5.216H19.271V34.342z"/>
<path fill="none" stroke="#000000" stroke-width="2" d="M19.271,7.826h116.204v58.248H19.271V7.826"/>
<path fill="none" stroke="#003333" stroke-width="2" d="M19.271,55.352h116.204"/>
<path fill="none" stroke="#003333" stroke-width="2" d="M19.271,23.62h116.204"/>
<path fill="#669999" stroke="#000000" stroke-width="2" d="M13.91,66.074h126.782v5.071H13.91V66.074z"/>
<path fill="#669999" d="M126.203,23.185h1.304v5.94h-1.304V23.185z"/>
<path fill="#669999" d="M117.364,23.185h1.449v28.979h-1.449V23.185z"/>
<path fill="#669999" d="M115.48,23.185h1.304v28.979h-1.304V23.185z"/>
<path fill="#669999" d="M113.596,23.185h1.305v28.979h-1.305V23.185z"/>
<path fill="#669999" d="M111.713,23.185h1.305v28.979h-1.305V23.185z"/>
<path fill="#669999" d="M79.981,21.157h2.463v44.917h-2.463V21.157z"/>
<path fill="#669999" d="M75.344,26.373h1.305v34.485h-1.305V26.373z"/>
<path fill="#669999" d="M59.986,18.404h1.449v13.185h-1.449V18.404z"/>
<path fill="#669999" d="M58.102,18.404h1.304v13.185h-1.304V18.404z"/>
<path fill="#669999" d="M56.219,18.404h1.305v26.515h-1.305V18.404z"/>
<path fill="#669999" d="M42.309,18.404h1.304v35.788h-1.304V18.404z"/>
<path fill="#669999" d="M40.28,18.404h1.449v35.788H40.28V18.404z"/>
<path fill="#669999" d="M38.397,18.404h1.159v47.67h-1.159V18.404z"/>
<path fill="#CCFFFF" d="M126.637,23.185h0.289v5.94h-0.289V23.185z"/>
<path fill="#CCFFFF" d="M117.943,23.185h0.29v28.979h-0.29V23.185z"/>
<path fill="#CCFFFF" d="M116.06,23.185h0.289v28.979h-0.289V23.185z"/>
<path fill="#CCFFFF" d="M114.177,23.185h0.145v28.979h-0.145V23.185z"/>
<path fill="#CCFFFF" d="M112.293,23.185h0.145v28.979h-0.145V23.185z"/>
<path fill="#CCFFFF" d="M80.706,21.157h0.869v44.917h-0.869V21.157z"/>
<path fill="#CCFFFF" d="M75.925,26.373h0.145v34.485h-0.145V26.373z"/>
<path fill="#CCFFFF" d="M60.565,18.404h0.29v13.185h-0.29V18.404z"/>
<path fill="#CCFFFF" d="M58.682,18.404h0.289v13.185h-0.289V18.404z"/>
<path fill="#CCFFFF" d="M56.653,18.404h0.29v26.515h-0.29V18.404z"/>
<path fill="#CCFFFF" d="M42.744,18.404h0.289v35.788h-0.289V18.404z"/>
<path fill="#CCFFFF" d="M40.86,18.404h0.29v35.788h-0.29V18.404z"/>
<path fill="#CCFFFF" d="M38.686,18.404h0.58v47.67h-0.58V18.404z"/>
<path fill="none" stroke="#999999" stroke-width="2" d="M106.207,5.363h18.547v13.041h-18.547V5.363"/>
<path fill="#669999" stroke="#000000" stroke-width="2" d="M110.264,52.164h10.722v1.304h-10.722V52.164z"/>
<path fill="#CCCCCC" stroke="#000000" stroke-width="2" d="M124.754,29.125h4.057v2.463h-4.057V29.125z"/>
<path fill="#E5E5E5" stroke="#000000" stroke-width="2" d="M129.969,26.373h3.188v5.216h-3.188V26.373z"/>
<path fill="#669999" d="M40.28,54.192h5.217v11.882H40.28V54.192z"/>
<path fill="#CCFFFF" d="M42.309,54.192h1.304v11.882h-1.304V54.192z"/>
<path fill="none" stroke="#000000" stroke-width="2" d="M40.28,54.192h5.217v11.882H40.28V54.192"/>
<path fill="none" stroke="#336666" stroke-width="2" d="M62.159,37.095l1.159-1.449v-3.333"/>
<path fill="none" stroke="#000000" stroke-width="2" d="M126.203,23.185h1.304v5.94h-1.304V23.185"/>
<path fill="none" stroke="#000000" stroke-width="2" d="M117.364,23.185h1.449v28.979h-1.449V23.185"/>
<path fill="none" stroke="#000000" stroke-width="2" d="M115.48,23.185h1.304v28.979h-1.304V23.185"/>
<path fill="none" stroke="#000000" stroke-width="2" d="M113.596,23.185h1.305v28.979h-1.305V23.185"/>
<path fill="none" stroke="#000000" stroke-width="2" d="M111.713,23.185h1.305v28.979h-1.305V23.185"/>
<path fill="none" stroke="#000000" stroke-width="2" d="M75.344,26.373h1.305v34.485h-1.305V26.373"/>
<path fill="none" stroke="#000000" stroke-width="2" d="M79.981,21.157h2.463v44.917h-2.463V21.157"/>
<path fill="none" stroke="#000000" stroke-width="2" d="M59.986,18.404h1.449v13.185h-1.449V18.404"/>
<path fill="none" stroke="#000000" stroke-width="2" d="M58.102,18.404h1.304v13.185h-1.304V18.404"/>
<path fill="none" stroke="#000000" stroke-width="2" d="M56.219,18.404h1.305v26.515h-1.305V18.404"/>
<path fill="none" stroke="#000000" stroke-width="2" d="M38.397,18.404h1.159v47.67h-1.159V18.404"/>
<path fill="none" stroke="#000000" stroke-width="2" d="M40.28,18.404h1.449v35.788H40.28V18.404"/>
<path fill="none" stroke="#000000" stroke-width="2" d="M42.309,18.404h1.304v35.788h-1.304V18.404"/>
<path fill="#007F00" d="M126.203,31.009l-0.58-0.725l0.58-0.58l0.435,0.58L126.203,31.009z"/>
<path fill="#7F0000" d="M127.507,31.009l-0.869-0.725l0.869-0.58l0.579,0.58L127.507,31.009z"/>
<path fill="#669999" d="M95.775,60.858v2.463h-21.01v-2.463H95.775z"/>
<path fill="#CCFFFF" d="M95.775,61.583v0.869h-21.01v-0.869H95.775z"/>
<path fill="none" stroke="#000000" stroke-width="2" d="M95.775,60.858v2.463h-21.01v-2.463H95.775"/>
<path fill="#99CCCC" stroke="#000000" stroke-width="2" d="M37.673,5.363h60.565v13.041H37.673V5.363z"/>
<path fill="#99CCCC" stroke="#000000" stroke-width="2" d="M128.81,56.221h5.217v9.853h-5.217V56.221z"/>
<path fill="#99CCCC" stroke="#000000" stroke-width="2" d="M93.891,44.918h3.332v9.854h-3.332V44.918z"/>
<path fill="#99CCCC" stroke="#000000" stroke-width="2" d="M87.951,58.104h36.803v7.97H87.951V58.104z"/>
<path fill="none" stroke="#336666" stroke-width="2" d="M47.381,5.943v12.026"/>
<path fill="none" stroke="#CCFFFF" stroke-width="2" d="M48.25,5.943v12.026"/>
<path fill="#BFCCCC" stroke="#000000" stroke-width="2" d="M100.991,3.914h28.979v19.271h-28.979V3.914z"/>
<path fill="#BFCCCC" stroke="#000000" stroke-width="2" d="M73.461,21.157h5.071v5.216h-5.071V21.157z"/>
<path fill="#BFCCCC" stroke="#000000" stroke-width="2" d="M55.349,31.589h6.81v7.969h-6.81V31.589z"/>
<path fill="#BFCCCC" stroke="#000000" stroke-width="2" d="M85.197,44.195h7.825v19.126h-7.825V44.195z"/>
<path fill="#BFCCCC" stroke="#000000" stroke-width="2" d="M51.582,58.104h23.184v7.97H51.582V58.104z"/>
<path fill="#BFCCCC" stroke="#000000" stroke-width="2" d="M20.43,56.221h5.36v9.853h-5.36V56.221z"/>
<path fill="none" stroke="#336666" stroke-width="2" d="M55.349,66.074l-0.725-2.028v-1.884l0.725-1.594l1.884-1.159h1.884
	l2.028,1.159l1.014,1.594v1.884l-1.014,2.028H55.349"/>
<path fill="none" stroke="#336666" stroke-width="2" d="M65.202,66.074l-1.159-2.028v-1.884l1.159-1.594l1.594-1.159h2.174
	l1.738,1.159l1.015,1.594v1.884l-1.015,2.028H65.202"/>
<circle fill="#99CCCC" stroke="#669999" stroke-width="2" cx="89.11" cy="48.107" r="2.608"/>
<path fill="#FF6600" d="M56.653,31.009l-1.304-1.304l1.304-1.449l1.449,1.449L56.653,31.009z"/>
<path fill="#FF6600" d="M60.855,31.009l-1.449-1.304l1.449-1.449l1.015,1.449L60.855,31.009z"/>
<path fill="#FF6600" d="M63.608,33.762l-1.449-1.449l1.449-1.304l1.015,1.304L63.608,33.762z"/>
<path fill="#FF6600" d="M56.653,42.746l-1.304-1.015l1.304-1.448l1.449,1.448L56.653,42.746z"/>
<path fill="#FF6600" d="M138.663,12.463h0.58v7.969h-0.58V12.463z"/>
<path fill="#FF6600" d="M138.663,26.952h0.58v7.824h-0.58V26.952z"/>
<path fill="#FF6600" d="M138.663,39.558h0.58v7.824h-0.58V39.558z"/>
<path fill="#FF6600" d="M14.635,13.912h0.579v7.825h-0.579V13.912z"/>
<path fill="#4C4C4C" d="M14.635,14.347h-4.058l-1.448,0.869v5.941h5.506V14.347z"/>
<path fill="#333333" d="M9.129,15.216L3.912,34.776v3.623l2.028,2.463l9.273,0.869v-3.332h-7.39v-2.753l4.637-14.489l-2.463-2.174
	L9.129,15.216z"/>
</svg>
