<?xml version="1.0" encoding="utf-8"?>
<!-- Generator: Adobe Illustrator 14.0.0, SVG Export Plug-In . SVG Version: 6.00 Build 43363)  -->
<!DOCTYPE svg PUBLIC "-//W3C//DTD SVG 1.1//EN" "http://www.w3.org/Graphics/SVG/1.1/DTD/svg11.dtd">
<svg version="1.1" id="图层_1" xmlns="http://www.w3.org/2000/svg" xmlns:xlink="http://www.w3.org/1999/xlink" x="0px" y="0px"
	 width="68.652px" height="106.502px" viewBox="0 0 68.652 106.502" enable-background="new 0 0 68.652 106.502"
	 xml:space="preserve">
<path d="M2.985,2.989h62.682v100.419H2.985V2.989z"/>
<path fill="#080808" d="M4.797,2.989h59.059v100.419H4.797V2.989z"/>
<path fill="#0F0F0F" d="M6.609,2.989h55.434v100.419H6.609V2.989z"/>
<path fill="#171717" d="M8.421,2.989H60.23v100.419H8.421V2.989z"/>
<path fill="#1F1F1F" d="M10.234,2.989h48.184v100.419H10.234V2.989z"/>
<path fill="#292929" d="M12.046,2.989h44.56v100.419h-44.56V2.989z"/>
<path fill="#303030" d="M13.858,2.989h40.935v100.419H13.858V2.989z"/>
<path fill="#383838" d="M15.777,2.989h36.99v100.419h-36.99V2.989z"/>
<path fill="#404040" d="M17.696,2.989h33.367v100.419H17.696V2.989z"/>
<path fill="#474747" d="M19.402,2.989h29.742v100.419H19.402V2.989z"/>
<path fill="#4F4F4F" d="M21.214,2.989h26.118v100.419H21.214V2.989z"/>
<path fill="#575757" d="M23.026,2.989H45.52v100.419H23.026V2.989z"/>
<path fill="#5E5E5E" d="M24.838,2.989h18.975v100.419H24.838V2.989z"/>
<path fill="#696969" d="M26.65,2.989h15.352v100.419H26.65V2.989z"/>
<path fill="#707070" d="M28.463,2.989h11.619v100.419H28.463V2.989z"/>
<path fill="#787878" d="M30.488,2.989h7.889v100.419h-7.889V2.989z"/>
<path fill="#7F7F7F" d="M32.301,2.989h4.051v100.419h-4.051V2.989z"/>
<path fill="#999999" d="M2.985,7.146h62.682V99.25H2.985V7.146z"/>
<path fill="#9E9E9E" d="M4.797,7.146h59.059V99.25H4.797V7.146z"/>
<path fill="#A3A3A3" d="M6.609,7.146h55.434V99.25H6.609V7.146z"/>
<path fill="#A8A8A8" d="M8.421,7.146H60.23V99.25H8.421V7.146z"/>
<path fill="#ABABAB" d="M10.234,7.146h48.184V99.25H10.234V7.146z"/>
<path fill="#B0B0B0" d="M12.046,7.146h44.56V99.25h-44.56V7.146z"/>
<path fill="#B5B5B5" d="M13.858,7.146h40.935V99.25H13.858V7.146z"/>
<path fill="#BABABA" d="M15.777,7.146h36.99V99.25h-36.99V7.146z"/>
<path fill="#BFBFBF" d="M17.696,7.146h33.367V99.25H17.696V7.146z"/>
<path fill="#C4C4C4" d="M19.402,7.146h29.742V99.25H19.402V7.146z"/>
<path fill="#C9C9C9" d="M21.214,7.146h26.118V99.25H21.214V7.146z"/>
<path fill="#CFCFCF" d="M23.026,7.146H45.52V99.25H23.026V7.146z"/>
<path fill="#D1D1D1" d="M24.838,7.146h18.975V99.25H24.838V7.146z"/>
<path fill="#D6D6D6" d="M26.65,7.146h15.352V99.25H26.65V7.146z"/>
<path fill="#DBDBDB" d="M28.463,7.146h11.619V99.25H28.463V7.146z"/>
<path fill="#E0E0E0" d="M30.488,7.146h7.889V99.25h-7.889V7.146z"/>
<path fill="#E5E5E5" d="M32.301,7.146h4.051V99.25h-4.051V7.146z"/>
<path fill="#F2F2F2" d="M33.687,7.146l0.64,71.21l0.426-71.21H33.687z"/>
<path fill="#8C8C8C" d="M33.687,7.146V2.989h1.066v4.157H33.687z"/>
<path fill="none" stroke="#000000" stroke-width="2" d="M2.985,2.989h62.682v100.419H2.985V2.989"/>
<path fill="#FFFFFF" d="M29.529,28.039v-8.421h9.381v8.421H29.529z"/>
<path fill="none" stroke="#000000" stroke-width="2" d="M29.529,28.039h9.381"/>
</svg>
