<?xml version="1.0" encoding="utf-8"?>
<!-- Generator: Adobe Illustrator 14.0.0, SVG Export Plug-In . SVG Version: 6.00 Build 43363)  -->
<!DOCTYPE svg PUBLIC "-//W3C//DTD SVG 1.1//EN" "http://www.w3.org/Graphics/SVG/1.1/DTD/svg11.dtd">
<svg version="1.1" id="图层_1" xmlns="http://www.w3.org/2000/svg" xmlns:xlink="http://www.w3.org/1999/xlink" x="0px" y="0px"
	 width="144.749px" height="91.721px" viewBox="0 0 144.749 91.721" enable-background="new 0 0 144.749 91.721"
	 xml:space="preserve">
<path fill="#999999" stroke="#000000" stroke-width="2" d="M9.998,87.662l-5.94-6.085V9.999l5.94-5.94h124.608l5.94,5.94v71.578
	l-5.94,6.085H9.998z"/>
<path fill="#191919" d="M6.955,9.999h130.694v71.578H6.955V9.999z"/>
<path fill="#993300" d="M17.387,17.389h4.637v-1.159l-3.478-3.188H13.62l-3.622,3.188v56.363h4.347V17.389l1.738-0.869
	L17.387,17.389z"/>
<path fill="#993300" d="M24.777,72.593h4.637v1.015l-3.478,3.622H21.01l-3.622-3.622V17.389h4.637v55.204l1.448,0.87L24.777,72.593z
	"/>
<path fill="#993300" d="M32.456,17.389h4.348v-1.159l-3.333-3.188h-5.216l-3.188,3.188v56.363h4.348V17.389l1.304-0.869
	L32.456,17.389z"/>
<path fill="#993300" d="M39.845,72.593h4.637v1.015l-3.622,3.622h-4.927l-3.478-3.622V17.389h4.348v55.204l1.594,0.87L39.845,72.593
	z"/>
<path fill="#993300" d="M47.235,17.389h4.492v-1.159l-3.478-3.188h-4.927l-3.478,3.188v56.363h4.637V17.389l1.305-0.869
	L47.235,17.389z"/>
<path fill="#993300" d="M54.77,72.593h4.491v1.015l-3.622,3.622h-4.927l-3.478-3.622V17.389h4.492v55.204l1.448,0.87L54.77,72.593z"
	/>
<path fill="#993300" d="M62.159,17.389h4.637v-1.159l-3.478-3.188h-4.926l-3.622,3.188v56.363h4.491V17.389l1.594-0.869
	L62.159,17.389z"/>
<path fill="#993300" d="M69.549,72.593h4.637v1.015l-3.478,3.622h-4.926l-3.623-3.622V17.389h4.637v55.204l1.449,0.87L69.549,72.593
	z"/>
<path fill="#993300" d="M77.228,17.389h4.347v-1.159l-3.622-3.188h-4.781l-3.623,3.188v56.363h4.637V17.389l1.449-0.869
	L77.228,17.389z"/>
<path fill="#993300" d="M84.618,72.593h4.347v1.015l-3.332,3.622h-4.927l-3.478-3.622V17.389h4.347v55.204l1.594,0.87L84.618,72.593
	z"/>
<path fill="#993300" d="M92.008,17.389h4.637v-1.159l-3.622-3.188h-4.927l-3.478,3.188v56.363h4.637V17.389l1.304-0.869
	L92.008,17.389z"/>
<path fill="#993300" d="M99.687,72.593h4.347v1.015l-3.623,3.622h-4.926l-3.478-3.622V17.389h4.637v55.204l1.304,0.87L99.687,72.593
	z"/>
<path fill="#993300" d="M106.931,17.389h4.492v-1.159l-3.333-3.188h-4.926l-3.478,3.188v56.363h4.347V17.389l1.594-0.869
	L106.931,17.389z"/>
<path fill="#993300" d="M114.321,72.593h4.781v1.015l-3.622,3.622h-4.927l-3.622-3.622V17.389h4.492v55.204l1.594,0.87
	L114.321,72.593z"/>
<path fill="#993300" d="M122.001,17.389h4.347v-1.159l-3.478-3.188h-4.927l-3.332,3.188v56.363h4.491V17.389l1.305-0.869
	L122.001,17.389z"/>
<path fill="#993300" d="M129.39,72.593h4.637v1.015l-3.478,3.622h-4.927l-3.622-3.622V17.389h4.347v55.204l1.738,0.87L129.39,72.593
	z"/>
<path fill="#993300" d="M136.78,16.52v-3.478h-3.912l-3.478,3.188v56.363h4.637V17.389l1.304-0.869H136.78z"/>
<path fill="#993300" d="M6.955,73.463v3.767h4.202l3.188-3.622v-1.015H9.998l-1.594,0.87H6.955z"/>
</svg>
