<?xml version="1.0" encoding="utf-8"?>
<!-- Generator: Adobe Illustrator 14.0.0, SVG Export Plug-In . SVG Version: 6.00 Build 43363)  -->
<!DOCTYPE svg PUBLIC "-//W3C//DTD SVG 1.1//EN" "http://www.w3.org/Graphics/SVG/1.1/DTD/svg11.dtd">
<svg version="1.1" id="图层_1" xmlns="http://www.w3.org/2000/svg" xmlns:xlink="http://www.w3.org/1999/xlink" x="0px" y="0px"
	 width="144.749px" height="71.504px" viewBox="0 0 144.749 71.504" enable-background="new 0 0 144.749 71.504"
	 xml:space="preserve">
<path fill="#CCCCCC" d="M4.062,25.092h136.479V36.55H4.062V25.092z"/>
<path fill="#D4D4D4" d="M4.207,25.816h136.48v10.008H4.207V25.816z"/>
<path fill="#DEDEDE" d="M4.207,26.687h136.48v8.267H4.207V26.687z"/>
<path fill="#E5E5E5" d="M4.207,27.557h136.48v6.526H4.207V27.557z"/>
<path fill="#EDEDED" d="M4.207,28.427h136.48v4.786H4.207V28.427z"/>
<path fill="#F7F7F7" d="M4.207,29.152h136.48v3.336H4.207V29.152z"/>
<path fill="#FFFFFF" d="M4.062,30.022h136.479v1.596H4.062V30.022z"/>
<path fill="none" stroke="#000000" stroke-width="2" d="M4.062,25.092h136.479V36.55H4.062V25.092"/>
<path fill="#596666" d="M107.328,57.58H23.642l-4.642-7.397l-1.596-12.328V23.641l1.596-12.184l4.642-7.396h83.686v3.48l16.68,16.68
	h3.336V37.71h-3.336l-16.68,16.389V57.58z"/>
<path fill="#637070" d="M107.328,54.678H23.642l-4.642-6.381L17.405,37.13V24.511l1.596-11.168l4.642-6.526h83.686v2.9l16.68,15.084
	h3.336V36.84h-3.336l-16.68,14.794V54.678z"/>
<path fill="#6B7878" d="M107.328,51.924H23.642l-4.642-5.802l-1.596-9.862V25.092l1.596-9.862l4.642-5.512h83.686v2.466
	l16.68,13.488h3.336v10.298h-3.336l-16.68,13.198V51.924z"/>
<path fill="#758282" d="M107.328,48.878H23.642l-4.642-4.642l-1.596-8.412V25.816l1.596-8.412l4.642-4.931h83.686v2.176
	l16.68,11.603h3.336v9.282h-3.336l-16.68,11.168V48.878z"/>
<path fill="#7F8C8C" d="M107.328,46.122H23.642l-4.642-4.062l-1.596-7.106v-8.267l1.596-7.107l4.642-4.351h83.686v2.175l16.68,9.573
	h3.336v7.687h-3.336l-16.68,9.572V46.122z"/>
<path fill="#899696" d="M107.328,43.366H23.642l-4.642-3.48l-1.596-5.802v-6.816l1.596-5.802l4.642-3.19h83.686v1.595l16.68,7.688
	h3.336v6.236h-3.336l-16.68,7.977V43.366z"/>
<path fill="#919E9E" d="M107.328,40.61H23.642l-4.642-2.756l-1.596-4.641v-5.076l1.596-4.496l4.642-2.611h83.686v1.306l16.68,6.092
	h3.336v4.786h-3.336l-16.68,6.092V40.61z"/>
<path fill="#9BA8A8" d="M107.328,37.71H23.642l-4.642-1.886l-1.596-3.046v-3.916l1.596-3.19l4.642-2.03h83.686v0.87l16.68,4.351
	h3.336v3.626h-3.336l-16.68,4.352V37.71z"/>
<path fill="#A5B2B2" d="M107.328,34.954H23.642l-4.642-1.16l-1.596-1.886v-2.176l1.596-1.885l4.642-1.16h83.686v0.58l16.68,2.465
	h3.336v2.176h-3.336l-16.68,2.466V34.954z"/>
<path fill="none" stroke="#000000" stroke-width="2" d="M107.328,57.58H23.642l-4.642-7.397l-1.596-12.328V23.641l1.596-12.184
	l4.642-7.396h83.686v3.48l16.68,16.68h3.336V37.71h-3.336l-16.68,16.389V57.58"/>
<path fill="none" stroke="#BFCCCC" stroke-width="2" d="M23.932,57.58V4.061"/>
<path fill="none" stroke="#BFCCCC" stroke-width="2" d="M107.328,54.098V7.252"/>
<path fill="none" stroke="#BFCCCC" stroke-width="2" d="M124.008,37.42V24.221"/>
<path fill="#6B7878" d="M30.459,50.762h3.626v16.68h-3.626V50.762z"/>
<path fill="#E5E5B2" d="M30.459,64.106h3.626v3.336h-3.626V64.106z"/>
<path fill="none" stroke="#000000" stroke-width="2" d="M30.894,50.762v16.68h3.19v-16.68"/>
<path fill="none" stroke="#000000" stroke-width="2" d="M69.039,17.404v26.832"/>
<path fill="none" stroke="#000000" stroke-width="2" d="M70.779,17.404v26.832"/>
<path fill="none" stroke="#000000" stroke-width="2" d="M72.375,22.336v16.68"/>
<path fill="none" stroke="#000000" stroke-width="2" d="M77.305,17.404v26.832"/>
<path fill="none" stroke="#000000" stroke-width="2" d="M78.901,28.427v8.122"/>
<path fill="none" stroke="#000000" stroke-width="2" d="M39.886,15.809v26.687"/>
<path fill="none" stroke="#000000" stroke-width="2" d="M41.771,15.809v26.687"/>
</svg>
