<?xml version="1.0" encoding="utf-8"?>
<!-- Generator: Adobe Illustrator 14.0.0, SVG Export Plug-In . SVG Version: 6.00 Build 43363)  -->
<!DOCTYPE svg PUBLIC "-//W3C//DTD SVG 1.1//EN" "http://www.w3.org/Graphics/SVG/1.1/DTD/svg11.dtd">
<svg version="1.1" id="图层_1" xmlns="http://www.w3.org/2000/svg" xmlns:xlink="http://www.w3.org/1999/xlink" x="0px" y="0px"
	 width="144.749px" height="91.137px" viewBox="0 0 144.749 91.137" enable-background="new 0 0 144.749 91.137"
	 xml:space="preserve">
<path fill="#CC9933" d="M16.808,6.52h7.1v5.071h-7.1V6.52z"/>
<path fill="#CC9933" d="M16.808,26.371h7.1v5.216h-7.1V26.371z"/>
<path fill="#CC9933" d="M16.808,59.407h7.1v4.926h-7.1V59.407z"/>
<path fill="#CC9933" d="M16.808,79.112h7.1v5.216h-7.1V79.112z"/>
<path fill="#CC9933" d="M130.983,39.556h9.563v12.027h-9.563V39.556z"/>
<path fill="#D1A34A" d="M130.983,40.28h9.563v10.432h-9.563V40.28z"/>
<path fill="#D9B366" d="M16.808,79.981h7.1v3.478h-7.1V79.981z"/>
<path fill="#D9B366" d="M17.097,59.986h6.811v3.912h-6.811V59.986z"/>
<path fill="#D9B366" d="M16.808,27.24h7.1v3.623h-7.1V27.24z"/>
<path fill="#D9B366" d="M16.808,7.245h7.1v3.623h-7.1V7.245z"/>
<path fill="#D9B366" d="M131.273,41.149h9.273v8.548h-9.273V41.149z"/>
<path fill="#DEBD7D" d="M130.983,42.019h9.563v6.81h-9.563V42.019z"/>
<path fill="#E5CB98" d="M16.808,80.706h7.1v2.174h-7.1V80.706z"/>
<path fill="#E5CB98" d="M17.097,60.855h6.811v2.173h-6.811V60.855z"/>
<path fill="#E5CB98" d="M16.808,28.109h7.1v1.883h-7.1V28.109z"/>
<path fill="#E5CB98" d="M16.808,8.114h7.1v2.174h-7.1V8.114z"/>
<path fill="#E5CB98" d="M131.273,42.888h9.273v5.071h-9.273V42.888z"/>
<path fill="#EBD7B0" d="M130.983,43.902h9.563v3.188h-9.563V43.902z"/>
<path fill="#F2E5CC" d="M130.983,44.772h9.563v1.594h-9.563V44.772z"/>
<path fill="#F2E5CC" d="M16.808,81.575h7.1v0.58h-7.1V81.575z"/>
<path fill="#F2E5CC" d="M16.808,8.983h7.1v0.435h-7.1V8.983z"/>
<path fill="#F2E5CC" d="M16.808,28.544h7.1v0.869h-7.1V28.544z"/>
<path fill="#F2E5CC" d="M16.808,61.724h7.1v0.435h-7.1V61.724z"/>
<path fill="#596666" d="M23.908,87.081V4.057h13.765v10.287h65.781l3.478-3.477h10.433l3.332,3.477l3.478,24.052h6.81v13.91h-6.81
	l-3.478,24.343l-3.332,3.332h-10.433l-3.478-3.332H37.673v10.432H23.908z"/>
<path fill="#999999" d="M6.81,4.057h9.998v83.023H6.81V4.057z"/>
<path fill="#637070" d="M23.908,82.155V8.693h14.055v9.273h65.491l3.478-3.333h10.433l3.332,3.333l3.478,21.299h7.1v12.316h-7.1
	l-3.478,21.299l-3.332,3.188h-10.433l-3.478-3.188H37.963v9.273H23.908z"/>
<path fill="#6B7878" d="M23.908,77.518V13.33h14.055v8.114h65.491l3.478-2.608h10.433l3.332,2.608l3.478,18.691h7.1v10.577h-7.1
	l-3.478,18.546l-3.332,2.754h-10.433l-3.478-2.754H37.963v8.26H23.908z"/>
<path fill="#758282" d="M23.908,72.591V18.256h14.055v6.81h65.491l3.478-2.463h10.433l3.332,2.463l3.478,15.793h7.1v8.983h-7.1
	l-3.478,15.938l-3.332,2.463h-10.433l-3.478-2.463H37.963v6.81H23.908z"/>
<path fill="#7F8C8C" d="M23.908,67.955V22.893h14.055v5.651h65.491l3.478-1.884h10.433l3.332,1.884l3.478,13.185h7.1v7.39h-7.1
	l-3.478,13.04l-3.332,1.884h-10.433l-3.478-1.884H37.963v5.796H23.908z"/>
<path fill="#899696" d="M23.908,63.028V27.819h14.055v4.347h65.491l3.478-1.594h10.433l3.332,1.594l3.478,10.433h7.1v5.651h-7.1
	l-3.478,10.433l-3.332,1.594h-10.433l-3.478-1.594H37.963v4.346H23.908z"/>
<path fill="#919E9E" d="M23.908,58.391V32.456h14.055v3.188h65.491l3.478-1.014h10.433l3.332,1.014l3.478,7.679h7.1v4.057h-7.1
	l-3.478,7.68l-3.332,1.159h-10.433l-3.478-1.159H37.963v3.332H23.908z"/>
<path fill="#9BA8A8" d="M23.908,53.755V37.382h14.055v1.884h65.491l3.478-0.87h10.433l3.332,0.87l3.478,4.926h7.1v2.462h-7.1
	l-3.478,4.928l-3.332,0.724h-10.433l-3.478-0.724H37.963v2.173H23.908z"/>
<path fill="#A5B2B2" d="M23.908,48.829v-6.81h13.765v0.869h65.781l3.478-0.29h10.433l3.332,0.29l3.478,2.173h6.81v1.014h-6.81
	l-3.478,1.884l-3.332,0.29h-10.433l-3.478-0.29H37.673v0.869H23.908z"/>
<path fill="#A3A3A3" d="M6.81,8.693h10.287v73.461H6.81V8.693z"/>
<path fill="#ABABAB" d="M6.81,13.33h10.287v64.188H6.81V13.33z"/>
<path fill="#B5B5B5" d="M6.81,18.256h10.287v54.335H6.81V18.256z"/>
<path fill="#BFBFBF" d="M6.81,22.893h10.287v45.062H6.81V22.893z"/>
<path fill="#C9C9C9" d="M6.81,27.819h10.287v35.208H6.81V27.819z"/>
<path fill="#D1D1D1" d="M6.81,32.456h10.287v25.935H6.81V32.456z"/>
<path fill="#DBDBDB" d="M6.81,37.382h10.287v16.373H6.81V37.382z"/>
<path fill="#E5E5E5" d="M6.81,42.019h9.998v6.81H6.81V42.019z"/>
<path fill="none" stroke="#596666" stroke-width="2" d="M103.454,73.17V17.677"/>
<path fill="#F2E5CC" stroke="#000000" stroke-width="2" d="M4.057,24.777H6.81v3.477H4.057V24.777z"/>
<path fill="#F2E5CC" stroke="#000000" stroke-width="2" d="M4.057,4.781H6.81v3.623H4.057V4.781z"/>
<path fill="#F2E5CC" stroke="#000000" stroke-width="2" d="M4.057,77.518H6.81v3.477H4.057V77.518z"/>
<path fill="#F2E5CC" stroke="#000000" stroke-width="2" d="M4.057,57.522H6.81v3.623H4.057V57.522z"/>
<path fill="#F2E5CC" stroke="#000000" stroke-width="2" d="M37.673,24.777h2.608v3.477h-2.608V24.777z"/>
<path fill="#F2E5CC" stroke="#000000" stroke-width="2" d="M37.673,4.781h2.608v3.623h-2.608V4.781z"/>
<path fill="#F2E5CC" stroke="#000000" stroke-width="2" d="M37.673,77.518h2.608v3.477h-2.608V77.518z"/>
<path fill="#F2E5CC" stroke="#000000" stroke-width="2" d="M37.673,57.522h2.608v3.623h-2.608V57.522z"/>
<path fill="#CC9933" stroke="#000000" stroke-width="2" d="M37.673,80.995h2.608v4.927h-2.608V80.995z"/>
<path fill="#CC9933" stroke="#000000" stroke-width="2" d="M37.673,61.145h2.608v5.216h-2.608V61.145z"/>
<path fill="#CC9933" stroke="#000000" stroke-width="2" d="M37.673,28.254h2.608v4.927h-2.608V28.254z"/>
<path fill="#CC9933" stroke="#000000" stroke-width="2" d="M37.673,8.404h2.608v5.216h-2.608V8.404z"/>
<path fill="#CC9933" stroke="#000000" stroke-width="2" d="M4.057,80.995H6.81v4.927H4.057V80.995z"/>
<path fill="#CC9933" stroke="#000000" stroke-width="2" d="M4.057,61.145H6.81v5.216H4.057V61.145z"/>
<path fill="#CC9933" stroke="#000000" stroke-width="2" d="M4.057,28.254H6.81v4.927H4.057V28.254z"/>
<path fill="#CC9933" stroke="#000000" stroke-width="2" d="M4.057,8.404H6.81v5.216H4.057V8.404z"/>
<path fill="#6699FF" d="M47.96,73.17V38.396h48.685V73.17H47.96z"/>
<path fill="#E5E5E5" d="M49.844,54.045V40.28H94.76v13.765H49.844z"/>
<path fill="#B2B2B2" d="M49.844,72.301v-8.693H94.76v8.693H49.844z"/>
<path fill="#CCCCCC" d="M49.844,61.87v-0.725h32.891v0.725H49.844z"/>
<path fill="#CCCCCC" d="M49.844,60.276v-1.16H94.76v1.16H49.844z"/>
<path fill="#CCCCCC" d="M49.844,58.391v-0.869H94.76v0.869H49.844z"/>
<path fill="#CCCCCC" d="M49.844,56.797v-0.869H94.76v0.869H49.844z"/>
<path fill="none" stroke="#000000" stroke-width="2" d="M37.673,76.649V14.344"/>
<path fill="none" stroke="#000000" stroke-width="2" d="M16.808,59.407h7.1v4.926h-7.1V59.407"/>
<path fill="none" stroke="#000000" stroke-width="2" d="M16.808,79.112h7.1v5.216h-7.1V79.112"/>
<path fill="none" stroke="#000000" stroke-width="2" d="M16.808,26.371h7.1v5.216h-7.1V26.371"/>
<path fill="none" stroke="#000000" stroke-width="2" d="M16.808,6.52h7.1v5.071h-7.1V6.52"/>
<path fill="none" stroke="#000000" stroke-width="2" d="M130.983,39.556h9.563v12.027h-9.563V39.556"/>
<path fill="none" stroke="#000000" stroke-width="2" d="M23.908,87.081V4.057h13.765v10.287h65.781l3.478-3.477h10.433l3.332,3.477
	l3.478,24.052h6.81v13.91h-6.81l-3.478,24.343l-3.332,3.332h-10.433l-3.478-3.332H37.673v10.432H23.908"/>
<path fill="none" stroke="#000000" stroke-width="2" d="M6.81,4.057h9.998v83.023H6.81V4.057"/>
</svg>
