<?xml version="1.0" encoding="utf-8"?>
<!-- Generator: Adobe Illustrator 14.0.0, SVG Export Plug-In . SVG Version: 6.00 Build 43363)  -->
<!DOCTYPE svg PUBLIC "-//W3C//DTD SVG 1.1//EN" "http://www.w3.org/Graphics/SVG/1.1/DTD/svg11.dtd">
<svg version="1.1" id="图层_1" xmlns="http://www.w3.org/2000/svg" xmlns:xlink="http://www.w3.org/1999/xlink" x="0px" y="0px"
	 width="114.775px" height="106.502px" viewBox="0 0 114.775 106.502" enable-background="new 0 0 114.775 106.502"
	 xml:space="preserve">
<path fill="#333333" d="M81.342,86.626h28.033l0.229-24.931h-5.399v-2.183h7.353v29.182H81.342V86.626z"/>
<path fill="#191919" d="M86.627,69.853h-9.536v10.914h1.034v10.8h1.264v11.719h4.825V91.567h1.034v-10.8h1.379V69.853z"/>
<path fill="#191919" d="M67.555,69.853H58.02v10.914h1.264v10.8h1.034v11.719h4.825V91.567h1.148v-10.8h1.264V69.853z"/>
<path fill="#191919" d="M48.368,69.853h-9.421v10.914h1.264v10.8h1.149v11.719h4.71V91.567h1.265v-10.8h1.033V69.853z"/>
<path fill="#191919" d="M29.412,69.853h-9.536v10.914h1.264v10.8h1.034v11.719h4.825V91.567h1.264v-10.8h1.149V69.853z"/>
<path fill="#99CCCC" d="M34.582,69.853H7.468l-1.953-2.298l-1.493-4.366l-0.919-5.859V51.24l0.919-5.859l1.493-4.251l1.953-2.412
	h26.884L34.582,69.853z"/>
<path fill="#669999" d="M71.806,38.718H98.92l1.953,2.412l1.493,4.251l0.919,5.859v6.089l-0.919,5.859l-1.493,4.366l-1.953,2.298
	H71.806V38.718z"/>
<path fill="#336666" d="M7.239,38.718H99.15v31.135H7.239V38.718z"/>
<path fill="#407373" d="M7.468,39.751H99.15v28.838H7.468V39.751z"/>
<path fill="#4C7F7F" d="M7.468,41.13H99.15v26.425H7.468V41.13z"/>
<path fill="#598C8C" d="M7.468,42.394H99.15v23.897H7.468V42.394z"/>
<path fill="#669999" d="M7.468,43.428H99.15v21.714H7.468V43.428z"/>
<path fill="#73A6A6" d="M7.468,44.807H99.15v19.071H7.468V44.807z"/>
<path fill="#7FB2B2" d="M7.468,45.841H99.15V62.5H7.468V45.841z"/>
<path fill="#8CBFBF" d="M7.468,47.105H99.15v14.361H7.468V47.105z"/>
<path fill="#99CCCC" d="M7.468,48.368H99.15v11.719H7.468V48.368z"/>
<path fill="#A6D9D9" d="M7.468,49.517H99.15v9.536H7.468V49.517z"/>
<path fill="#B2E5E5" d="M7.468,50.781H99.15v7.008H7.468V50.781z"/>
<path fill="#BFF2F2" d="M7.468,52.159H99.15v4.251H7.468V52.159z"/>
<path fill="#CCFFFF" d="M7.239,53.194H99.15v2.183H7.239V53.194z"/>
<path fill="#99CCCC" d="M44.807,19.876V5.515l1.264-1.034l2.298-0.919l3.103-0.46h3.446l3.103,0.46l2.298,0.919l1.148,1.034v14.361
	H44.807z"/>
<path fill="#669999" d="M61.466,19.876v14.476l-1.148,1.034l-2.298,0.689l-3.103,0.459h-3.446l-3.103-0.459l-2.298-0.689
	l-1.264-1.034V19.876H61.466z"/>
<path fill="#669999" d="M45.037,5.744h16.429v28.148H45.037V5.744z"/>
<path fill="#70A3A3" d="M45.612,5.744h15.165v28.148H45.612V5.744z"/>
<path fill="#7AADAD" d="M46.531,5.744h13.442v28.148H46.531V5.744z"/>
<path fill="#85B8B8" d="M47.335,5.744h11.948v28.148H47.335V5.744z"/>
<path fill="#8FC2C2" d="M48.024,5.744h10.455v28.148H48.024V5.744z"/>
<path fill="#99CCCC" d="M48.828,5.744h8.961v28.148h-8.961V5.744z"/>
<path fill="#A3D6D6" d="M49.518,5.744h7.353v28.148h-7.353V5.744z"/>
<path fill="#ADE0E0" d="M50.437,5.744h5.63v28.148h-5.63V5.744z"/>
<path fill="#B8EBEB" d="M51.241,5.744h4.136v28.148h-4.136V5.744z"/>
<path fill="#C2F5F5" d="M51.93,5.744h2.643v28.148H51.93V5.744z"/>
<path fill="#CCFFFF" d="M52.735,5.744h0.919v28.148h-0.919V5.744z"/>
<path fill="none" stroke="#000000" stroke-width="2" d="M61.466,34.352l-1.148,1.034l-2.298,0.689l-3.103,0.459h-3.446l-3.103-0.459
	l-2.298-0.689l-1.264-1.034V5.515l1.264-1.034l2.298-0.919l3.103-0.46h3.446l3.103,0.46l2.298,0.919l1.148,1.034V34.352"/>
<path fill="none" stroke="#000000" stroke-width="2" d="M98.92,38.718l1.953,2.412l1.493,4.251l0.919,5.859v6.089l-0.919,5.859
	l-1.493,4.366l-1.953,2.298H7.468l-1.953-2.298l-1.493-4.366l-0.919-5.859V51.24l0.919-5.859l1.493-4.251l1.953-2.412H98.92"/>
<circle fill="#CCFFFF" stroke="#336666" stroke-width="2" cx="52.85" cy="13.902" r="5.515"/>
<path d="M51.011,25.046v-1.953h4.366v1.953H51.011z"/>
<path fill="#99CCCC" stroke="#000000" stroke-width="2" d="M42.854,25.046h2.184v13.672h-2.184V25.046z"/>
<path fill="#99CCCC" stroke="#000000" stroke-width="2" d="M61.696,25.046h1.953v13.672h-1.953V25.046z"/>
<path fill="#99CCCC" stroke="#000000" stroke-width="2" d="M92.831,65.831h4.136v37.454h-4.136V65.831z"/>
<path fill="#99CCCC" stroke="#000000" stroke-width="2" d="M9.421,65.831h4.136v37.454H9.421V65.831z"/>
<path fill="#99CCCC" stroke="#000000" stroke-width="2" d="M13.557,82.95h79.274v2.067H13.557V82.95z"/>
<path fill="#99CCCC" stroke="#000000" stroke-width="2" d="M13.557,101.103h79.274v2.183H13.557V101.103z"/>
<path fill="#333333" d="M21.369,90.763h63.649v2.067H21.369V90.763z"/>
<path fill="#669999" d="M9.421,92.83h4.136v1.149H9.421V92.83z"/>
<path fill="#669999" d="M92.831,92.83h4.136v1.149h-4.136V92.83z"/>
<path fill="#99CCCC" stroke="#000000" stroke-width="2" d="M91.797,82.49h10.34v10.34h-10.34V82.49z"/>
<path fill="#99CCCC" stroke="#000000" stroke-width="2" d="M4.251,82.49h10.34v10.34H4.251V82.49z"/>
<path d="M95.933,88.695h2.068v3.791h-2.068V88.695z"/>
<path d="M8.387,88.695h2.068v3.791H8.387V88.695z"/>
<path fill="#FFB27F" d="M95.243,83.525h3.217v0.459h-3.217V83.525z"/>
<path fill="#FFB27F" d="M7.928,83.525h2.987v0.459H7.928V83.525z"/>
<path fill="#E5E5E5" d="M7.928,83.984h2.987v3.677H7.928V83.984z"/>
<path fill="#E5E5E5" d="M95.243,83.984h3.217v3.677h-3.217V83.984z"/>
<path fill="#669999" d="M65.602,35.041h2.184V73.53h-2.184V35.041z"/>
<path fill="#CCFFFF" d="M66.406,35.041h0.689V73.53h-0.689V35.041z"/>
<path fill="#669999" d="M92.831,71.461v2.068H13.557v-2.068H92.831z"/>
<path fill="#CCFFFF" d="M92.831,72.265v0.46H13.557v-0.46H92.831z"/>
<path fill="#669999" d="M39.178,35.041h2.183V73.53h-2.183V35.041z"/>
<path fill="#CCFFFF" d="M39.752,35.041h0.689V73.53h-0.689V35.041z"/>
<path fill="#CCFFFF" stroke="#000000" stroke-width="2" d="M101.103,59.513h3.103v2.183h-3.103V59.513z"/>
<path fill="none" stroke="#000000" stroke-width="2" d="M102.597,53.194h5.859V39.177h-4.251v-1.953H89.155v1.494"/>
<path fill="none" stroke="#003333" stroke-width="2" d="M41.705,38.718v11.948l2.643,11.029l9.306,9.766l9.307-8.272l1.723-7.813
	l0.46-16.658"/>
</svg>
