<?xml version="1.0" encoding="utf-8"?>
<!-- Generator: Adobe Illustrator 14.0.0, SVG Export Plug-In . SVG Version: 6.00 Build 43363)  -->
<!DOCTYPE svg PUBLIC "-//W3C//DTD SVG 1.1//EN" "http://www.w3.org/Graphics/SVG/1.1/DTD/svg11.dtd">
<svg version="1.1" id="图层_1" xmlns="http://www.w3.org/2000/svg" xmlns:xlink="http://www.w3.org/1999/xlink" x="0px" y="0px"
	 width="103.083px" height="106.502px" viewBox="0 0 103.083 106.502" enable-background="new 0 0 103.083 106.502"
	 xml:space="preserve">
<path fill="#4C4C4C" stroke="#000000" stroke-width="2" d="M15.366,70.112h66.908v2.027H15.366V70.112z"/>
<path fill="#B2B2B2" d="M56.663,4.378l0.534,0.319v25.931l-0.534,0.32l-1.174,0.641l-1.707,0.427l-1.92,0.213l-2.454,0.214H47.06
	l-2.241-0.214l-2.027-0.213l-1.601-0.427l-1.174-0.641l-0.641-0.32V4.698l0.641-0.319l1.174-0.641l1.601-0.427l2.027-0.106
	L47.06,2.99h2.348l2.454,0.214l1.92,0.106l1.707,0.427L56.663,4.378z"/>
<path fill="#B2B2B2" stroke="#000000" stroke-width="2" d="M91.131,68.831l-1.602,1.28H8.323l-1.601-1.28l-1.387-2.135l-1.174-3.201
	l-0.854-3.842l-0.32-4.161V51.01l0.32-4.161l0.854-3.842l1.174-3.201l1.387-2.135l1.601-1.28H89.53l1.602,1.28l1.387,2.135
	l1.174,3.201l0.854,3.842l0.427,4.161v4.482l-0.427,4.161l-0.854,3.842l-1.174,3.201L91.131,68.831z"/>
<path fill="#B8B8B8" d="M56.023,4.378l0.64,0.319v25.931l-0.64,0.32l-1.174,0.641l-1.388,0.427l-2.027,0.213l-2.027,0.214h-2.134
	l-2.028-0.214l-2.027-0.213l-1.601-0.427l-0.96-0.641l-0.64-0.32V4.698l0.64-0.319l0.96-0.641l1.601-0.427l2.027-0.106l2.028-0.214
	h2.134l2.027,0.214l2.027,0.106l1.388,0.427L56.023,4.378z"/>
<path fill="#B8B8B8" d="M91.131,67.657l-1.602,0.96H8.323l-1.601-0.96l-1.387-2.028l-1.174-2.987l-0.854-3.415l-0.32-3.948v-4.055
	l0.32-3.948l0.854-3.628l1.174-2.775l1.387-2.027l1.601-1.174H89.53l1.602,1.174l1.387,2.027l1.174,2.775l0.854,3.628l0.427,3.948
	v4.055l-0.427,3.948l-0.854,3.415l-1.174,2.987L91.131,67.657z"/>
<path fill="#BABABA" d="M55.489,4.378l0.32,0.319v25.931l-0.32,0.32l-1.066,0.641l-1.387,0.427l-1.814,0.213l-2.028,0.214h-1.92
	l-1.921-0.214l-1.708-0.213l-1.494-0.427l-0.96-0.641l-0.534-0.32V4.698l0.534-0.319l0.96-0.641l1.494-0.427l1.708-0.106
	l1.921-0.214h1.92l2.028,0.214l1.814,0.106l1.387,0.427L55.489,4.378z"/>
<path fill="#BABABA" d="M91.131,66.484l-1.602,0.96H8.323l-1.601-0.96l-1.387-1.814l-1.174-2.562l-0.854-3.414l-0.32-3.628v-3.842
	l0.32-3.628l0.854-3.202l1.174-2.561l1.387-2.027l1.601-0.961H89.53l1.602,0.961l1.387,2.027l1.174,2.561l0.854,3.202l0.427,3.628
	v3.842l-0.427,3.628l-0.854,3.414l-1.174,2.562L91.131,66.484z"/>
<path fill="#BFBFBF" d="M54.849,4.378l0.427,0.319v25.931l-0.427,0.32l-1.067,0.641l-1.174,0.427l-1.6,0.213l-1.814,0.214h-1.814
	l-1.814-0.214l-1.494-0.213l-1.494-0.427l-0.747-0.641l-0.427-0.32V4.698l0.427-0.319l0.747-0.641l1.494-0.427l1.494-0.106
	l1.814-0.214h1.814l1.814,0.214l1.6,0.106l1.174,0.427L54.849,4.378z"/>
<path fill="#BFBFBF" d="M91.131,65.416L89.53,66.27H8.323l-1.601-0.854l-1.387-1.707l-1.174-2.455l-0.854-2.987l-0.32-3.201v-3.629
	l0.32-3.201l0.854-2.987l1.174-2.455l1.387-1.707l1.601-0.854H89.53l1.602,0.854l1.387,1.707l1.174,2.455l0.854,2.987l0.427,3.201
	v3.629l-0.427,3.201l-0.854,2.987l-1.174,2.455L91.131,65.416z"/>
<path fill="#C4C4C4" d="M54.209,4.378l0.426,0.319v25.931l-0.426,0.32l-0.748,0.641l-1.174,0.427l-1.493,0.213l-1.708,0.214h-1.708
	l-1.601-0.214l-1.387-0.213l-1.174-0.427l-0.854-0.641l-0.32-0.32V4.698l0.32-0.319l0.854-0.641l1.174-0.427l1.387-0.106
	l1.601-0.214h1.708l1.708,0.214l1.493,0.106l1.174,0.427L54.209,4.378z"/>
<path fill="#C4C4C4" d="M91.131,64.242l-1.602,0.854H8.323l-1.601-0.854l-1.387-1.601l-1.174-2.135L3.308,57.84l-0.32-2.988v-3.201
	l0.32-2.988l0.854-2.668l1.174-2.134l1.387-1.601l1.601-0.854H89.53l1.602,0.854l1.387,1.601l1.174,2.134l0.854,2.668l0.427,2.988
	v3.201l-0.427,2.988l-0.854,2.667l-1.174,2.135L91.131,64.242z"/>
<path fill="#C7C7C7" d="M53.675,4.378l0.32,0.319v25.931l-0.32,0.32l-0.854,0.641l-0.96,0.427l-1.387,0.213l-1.387,0.214h-1.494
	l-1.601-0.214l-1.174-0.213l-0.96-0.427l-0.854-0.641l-0.427-0.32V4.698l0.427-0.319l0.854-0.641l0.96-0.427l1.174-0.106
	l1.601-0.214h1.494l1.387,0.214l1.387,0.106l0.96,0.427L53.675,4.378z"/>
<path fill="#C7C7C7" d="M91.131,63.069l-1.602,0.854H8.323l-1.601-0.854l-1.387-1.388l-1.174-2.027l-0.854-2.454l-0.32-2.562v-2.774
	l0.32-2.774l0.854-2.454l1.174-2.027l1.387-1.388l1.601-0.64H89.53l1.602,0.64l1.387,1.388l1.174,2.027l0.854,2.454l0.427,2.774
	v2.774l-0.427,2.562l-0.854,2.454l-1.174,2.027L91.131,63.069z"/>
<path fill="#CCCCCC" d="M53.036,4.378l0.213,0.319v25.931l-0.213,0.32l-0.748,0.641l-0.853,0.427l-1.174,0.213l-1.174,0.214h-1.494
	l-1.174-0.214l-1.174-0.213l-1.067-0.427l-0.534-0.641l-0.427-0.32V4.698l0.427-0.319l0.534-0.641l1.067-0.427l1.174-0.106
	l1.174-0.214h1.494l1.174,0.214l1.174,0.106l0.853,0.427L53.036,4.378z"/>
<path fill="#CCCCCC" d="M91.131,62.108l-1.602,0.534H8.323l-1.601-0.534l-1.387-1.387l-1.174-1.707l-0.854-2.135l-0.32-2.454v-2.348
	l0.32-2.454l0.854-2.135l1.174-1.921l1.387-1.174l1.601-0.533H89.53l1.602,0.533l1.387,1.174l1.174,1.921l0.854,2.135l0.427,2.454
	v2.348l-0.427,2.454l-0.854,2.135l-1.174,1.707L91.131,62.108z"/>
<path fill="#D1D1D1" d="M52.395,4.378l0.213,0.319v25.931l-0.213,0.32l-0.534,0.641l-0.854,0.427l-0.96,0.213l-1.174,0.214h-1.067
	l-1.174-0.214l-1.067-0.213l-0.747-0.427l-0.64-0.641l-0.107-0.32V4.698l0.107-0.319l0.64-0.641l0.747-0.427l1.067-0.106
	l1.174-0.214h1.067l1.174,0.214l0.96,0.106l0.854,0.427L52.395,4.378z"/>
<path fill="#D1D1D1" d="M91.131,60.935l-1.602,0.533H8.323l-1.601-0.533l-1.387-1.067l-1.174-1.601l-0.854-1.814l-0.32-2.241v-2.134
	l0.32-2.027l0.854-1.814l1.174-1.601l1.387-1.067l1.601-0.533H89.53l1.602,0.533l1.387,1.067l1.174,1.601l0.854,1.814l0.427,2.027
	v2.134l-0.427,2.241l-0.854,1.814l-1.174,1.601L91.131,60.935z"/>
<path fill="#D4D4D4" d="M51.861,4.378l0.213,0.319v25.931l-0.213,0.32l-0.64,0.641l-0.641,0.427l-0.747,0.213l-0.96,0.214h-1.067
	l-0.96-0.214l-0.854-0.213l-0.64-0.427l-0.534-0.641l-0.213-0.32V4.698l0.213-0.319l0.534-0.641l0.64-0.427l0.854-0.106l0.96-0.214
	h1.067l0.96,0.214l0.747,0.106l0.641,0.427L51.861,4.378z"/>
<path fill="#D4D4D4" d="M91.131,59.654l-1.602,0.641H8.323l-1.601-0.641l-1.387-0.747l-1.174-1.493l-0.854-1.602l-0.32-1.813v-1.707
	l0.32-1.814l0.854-1.601l1.174-1.28l1.387-0.961l1.601-0.427H89.53l1.602,0.427l1.387,0.961l1.174,1.28l0.854,1.601l0.427,1.814
	v1.707l-0.427,1.813l-0.854,1.602l-1.174,1.493L91.131,59.654z"/>
<path fill="#D9D9D9" d="M51.008,4.378l0.427,0.319v25.931l-0.427,0.32l-0.213,0.641l-0.534,0.427l-0.854,0.213l-0.747,0.214h-0.854
	l-0.747-0.214l-0.641-0.213l-0.64-0.427l-0.427-0.641l-0.107-0.32V4.698l0.107-0.319l0.427-0.641l0.64-0.427l0.641-0.106
	l0.747-0.214h0.854l0.747,0.214l0.854,0.106l0.534,0.427L51.008,4.378z"/>
<path fill="#D9D9D9" d="M91.131,58.694l-1.602,0.32H8.323l-1.601-0.32L5.335,57.84l-1.174-1.174l-0.854-1.174l-0.32-1.494v-1.494
	l0.32-1.494l0.854-1.387l1.174-0.961l1.387-0.854l1.601-0.32H89.53l1.602,0.32l1.387,0.854l1.174,0.961l0.854,1.387l0.427,1.494
	v1.494l-0.427,1.494l-0.854,1.174l-1.174,1.174L91.131,58.694z"/>
<path fill="#DEDEDE" d="M50.581,4.378v0.319v25.931v0.32l-0.32,0.641l-0.427,0.427l-0.641,0.213l-0.533,0.214H48.02l-0.64-0.214
	l-0.534-0.213l-0.427-0.427l-0.427-0.641l-0.213-0.32V4.698l0.213-0.319l0.427-0.641l0.427-0.427l0.534-0.106l0.64-0.214h0.641
	l0.533,0.214l0.641,0.106l0.427,0.427L50.581,4.378z"/>
<path fill="#DEDEDE" d="M91.131,57.413l-1.602,0.213H8.323l-1.601-0.213l-1.387-0.534l-1.174-0.854l-0.854-0.96l-0.32-1.174v-1.281
	l0.32-1.174l0.854-0.96l1.174-0.854l1.387-0.534l1.601-0.427H89.53l1.602,0.427l1.387,0.534l1.174,0.854l0.854,0.96l0.427,1.174
	v1.281l-0.427,1.174l-0.854,0.96l-1.174,0.854L91.131,57.413z"/>
<path fill="#E0E0E0" d="M50.047,4.378v0.319v25.931v0.32l-0.427,0.641l-0.213,0.427l-0.32,0.213l-0.64,0.214H48.02l-0.427-0.214
	l-0.32-0.213l-0.427-0.427l-0.213-0.641v-0.32V4.698V4.378l0.213-0.641l0.427-0.427l0.32-0.106L48.02,2.99h0.427l0.64,0.214
	l0.32,0.106l0.213,0.427L50.047,4.378z"/>
<path fill="#E0E0E0" d="M91.131,56.24l-1.602,0.213H8.323L6.723,56.24l-1.387-0.428l-1.174-0.533l-0.854-0.854l-0.32-0.747v-0.854
	l0.32-0.961l0.854-0.64l1.174-0.534l1.387-0.64l1.601-0.214H89.53l1.602,0.214l1.387,0.64l1.174,0.534l0.854,0.64l0.427,0.961v0.854
	l-0.427,0.747l-0.854,0.854l-1.174,0.533L91.131,56.24z"/>
<ellipse fill="#E5E5E5" cx="48.34" cy="17.717" rx="1.067" ry="14.726"/>
<ellipse fill="#E5E5E5" cx="48.98" cy="53.251" rx="45.992" ry="2.027"/>
<path fill="none" stroke="#000000" stroke-width="2" d="M56.663,4.378l0.534,0.319v25.931l-0.534,0.32l-1.174,0.641l-1.707,0.427
	l-1.92,0.213l-2.454,0.214H47.06l-2.241-0.214l-2.027-0.213l-1.601-0.427l-1.174-0.641l-0.641-0.32V4.698l0.641-0.319l1.174-0.641
	l1.601-0.427l2.027-0.106L47.06,2.99h2.348l2.454,0.214l1.92,0.106l1.707,0.427L56.663,4.378"/>
<path d="M64.667,90.92v8.43h-0.641v-8.43H64.667z"/>
<path d="M52.075,90.92v8.43h-0.64v-8.43H52.075z"/>
<path d="M39.376,90.92v8.43h-0.427v-8.43H39.376z"/>
<path d="M26.998,90.92v8.43h-0.64v-8.43H26.998z"/>
<path d="M63.493,74.06h8.43v10.03h-8.43V74.06z"/>
<path d="M64.667,84.09h6.189v2.668h-6.189V84.09z"/>
<path d="M65.627,86.758h4.268V99.35h-4.268V86.758z"/>
<path d="M64.026,99.35h7.257v0.961h-7.257V99.35z"/>
<path d="M51.008,74.06h8.43v10.03h-8.43V74.06z"/>
<path d="M52.075,84.09h6.189v2.668h-6.189V84.09z"/>
<path d="M53.036,86.758h4.161V99.35h-4.161V86.758z"/>
<path d="M51.435,99.35h7.363v0.961h-7.363V99.35z"/>
<path d="M38.416,74.06h8.43v10.03h-8.43V74.06z"/>
<path d="M39.376,84.09h6.403v2.668h-6.403V84.09z"/>
<path d="M40.657,86.758h4.162V99.35h-4.162V86.758z"/>
<path d="M38.949,99.35h7.256v0.961h-7.256V99.35z"/>
<path d="M25.824,74.06h8.324v10.03h-8.324V74.06z"/>
<path d="M26.998,84.09h6.189v2.668h-6.189V84.09z"/>
<path d="M27.958,86.758h4.269V99.35h-4.269V86.758z"/>
<path d="M26.357,99.35h7.47v0.961h-7.47V99.35z"/>
<path d="M28.385,30.201V74.06h-0.96V30.201H28.385z"/>
<path d="M60.504,30.201V75.34h-1.066V30.201H60.504z"/>
<path d="M96.893,60.721h3.201v0.96h-3.201V60.721z"/>
<path d="M100.094,61.681v19.208h-0.96V61.681H100.094z"/>
<path d="M92.945,79.929h6.189v0.96h-6.189V79.929z"/>
<path fill="#999999" stroke="#000000" stroke-width="2" d="M93.905,60.721h2.988v0.96h-2.988V60.721z"/>
<path fill="#999999" stroke="#000000" stroke-width="2" d="M94.333,52.611h2.24v1.281h-2.24V52.611z"/>
<path fill="#999999" stroke="#000000" stroke-width="2" d="M15.366,100.311h66.908v3.201H15.366V100.311z"/>
<path fill="#B2B2B2" stroke="#000000" stroke-width="2" d="M11.098,65.843v36.495h4.269V82.49h66.908v19.849h4.269V65.843h-4.269
	v14.619H15.366V65.843H11.098z"/>
<path fill="#CCCCCC" stroke="#000000" stroke-width="2" d="M15.366,78.328h66.908v2.134H15.366V78.328z"/>
<path fill="#CCCCCC" stroke="#000000" stroke-width="2" d="M80.247,78.328h12.698v16.86H80.247V78.328z"/>
<path fill="#CCCCCC" stroke="#000000" stroke-width="2" d="M4.909,78.328h12.699v16.86H4.909V78.328z"/>
<path fill="#C7C7C7" d="M80.247,90.386l12.698-7.042v11.845H80.247V90.386z"/>
<path fill="#C7C7C7" d="M4.909,90.386l12.699-7.042v11.845H4.909V90.386z"/>
<path fill="#C2C2C2" d="M80.247,90.92l12.698-6.937v11.205H80.247V90.92z"/>
<path fill="#C2C2C2" d="M4.909,90.92l12.699-6.937v11.205H4.909V90.92z"/>
<path fill="#BDBDBD" d="M80.247,91.88l12.698-6.936v10.244H80.247V91.88z"/>
<path fill="#BDBDBD" d="M4.909,91.88l12.699-6.936v10.244H4.909V91.88z"/>
<path fill="#333333" d="M9.177,86.758h4.162v6.189H9.177V86.758z"/>
<path fill="#333333" d="M82.274,86.758h8.43v4.162h-8.43V86.758z"/>
<path fill="#FF6600" d="M82.274,80.462h8.43v2.027h-8.43V80.462z"/>
<path fill="#FF6600" d="M6.936,80.462h8.43v2.027h-8.43V80.462z"/>
<path d="M9.177,102.338h8.43v1.174h-8.43V102.338z"/>
<path d="M80.247,102.338h8.43v1.174h-8.43V102.338z"/>
<path d="M19.528,89.959h60.719v0.961H19.528V89.959z"/>
<path d="M20.595,90.92v9.391h-1.067V90.92H20.595z"/>
<path fill="none" stroke="#999999" stroke-width="2" d="M43.858,55.492l-0.854-1.067l0.854-1.174h1.174l0.747,1.174l-0.747,1.067
	H43.858"/>
<path fill="none" stroke="#999999" stroke-width="2" d="M50.047,55.492l-0.64-1.067l0.64-1.174h1.387l0.64,1.174l-0.64,1.067H50.047
	"/>
<path fill="none" stroke="#999999" stroke-width="2" d="M43.858,27.214l-0.854-0.961l0.854-1.28h1.174l0.747,1.28l-0.747,0.961
	H43.858"/>
<path fill="none" stroke="#999999" stroke-width="2" d="M50.047,27.214l-0.64-0.961l0.64-1.28h1.387l0.64,1.28l-0.64,0.961H50.047"
	/>
<path fill="#A6A6A6" d="M44.605,32.443v4.589l3.201,0.64h1.067l3.201-0.64v-4.589H44.605z"/>
<path fill="#B2B2B2" d="M45.779,32.443v4.589l2.241,0.64h0.854l2.134-0.64v-4.589H45.779z"/>
<path fill="#BFBFBF" d="M47.379,32.443v4.589l0.854,0.64h0.213l0.96-0.64v-4.589H47.379z"/>
<path fill="none" stroke="#000000" stroke-width="2" d="M44.605,32.443v4.589l3.201,0.64h1.067l3.201-0.64v-4.589H44.605"/>
<path fill="#CCCCCC" stroke="#000000" stroke-width="2" d="M56.663,19.744h1.602v18.247h-1.602V19.744z"/>
<path fill="#CCCCCC" stroke="#000000" stroke-width="2" d="M38.416,19.744h1.601v18.247h-1.601V19.744z"/>
<path fill="#CCCCCC" d="M55.596,37.991h3.628v3.201h-3.628V37.991z"/>
<path fill="#CCCCCC" d="M37.456,37.991h3.521v3.201h-3.521V37.991z"/>
<path fill="none" stroke="#000000" stroke-width="2" d="M37.456,41.193v-3.201h3.521v3.201"/>
<path fill="none" stroke="#000000" stroke-width="2" d="M55.596,41.193v-3.201h3.842v3.201"/>
<path fill="#CCCCCC" stroke="#000000" stroke-width="2" d="M46.846,68.831h4.162v3.841h-4.162V68.831z"/>
<path fill="none" stroke="#999999" stroke-width="2" d="M59.438,37.671l-4.803,11.952l-0.96,13.019l-4.268,6.829l-8.964-3.201
	l-9.817-13.659l-2.241-16.646"/>
<path fill="none" stroke="#7F7F7F" stroke-width="2" d="M47.273,69.471l-10.885-0.96l-8.003-2.241"/>
<path fill="#4C4C4C" stroke="#000000" stroke-width="2" d="M60.292,56.452l1.707-1.387v-2.028l-1.707-1.174h-2.24v-3.841h-1.814
	v7.043l1.6,1.387H60.292z"/>
<path fill="#4C4C4C" stroke="#000000" stroke-width="2" d="M26.144,40.233l-1.174-1.388v-2.027l1.174-1.174h1.814v-3.842h1.601
	v7.043l-1.387,1.388H26.144z"/>
<path fill="#4C4C4C" stroke="#000000" stroke-width="2" d="M26.144,68.831l-1.174-1.174v-2.028l1.174-1.387h1.814v-3.521h1.601
	v6.937l-1.387,1.174H26.144z"/>
<path fill="none" stroke="#000000" stroke-width="2" d="M43.645,15.582h-6.83"/>
<path fill="none" stroke="#000000" stroke-width="2" d="M43.645,12.381h-6.83"/>
<path fill="none" stroke="#000000" stroke-width="2" d="M43.645,9.393h-6.83"/>
<path fill="none" stroke="#000000" stroke-width="2" d="M96.573,52.611V37.671h-2.24v-3.308H82.274v2.027"/>
<path fill="#B2B2B2" d="M49.834,18.144h-2.988l-2.667-1.601l-1.601-2.562v-3.095l1.601-2.774l2.667-1.387h2.988l2.774,1.387
	l1.388,2.774v3.095l-1.388,2.562L49.834,18.144z"/>
<circle fill="#BFBFBF" cx="47.806" cy="11.847" r="4.162"/>
<circle fill="#CCCCCC" cx="47.593" cy="11.634" r="2.774"/>
<path fill="none" stroke="#000000" stroke-width="2" d="M49.834,18.144h-2.988l-2.667-1.601l-1.601-2.562v-3.095l1.601-2.774
	l2.667-1.387h2.988l2.774,1.387l1.388,2.774v3.095l-1.388,2.562L49.834,18.144"/>
</svg>
