<?xml version="1.0" encoding="utf-8"?>
<!-- Generator: Adobe Illustrator 14.0.0, SVG Export Plug-In . SVG Version: 6.00 Build 43363)  -->
<!DOCTYPE svg PUBLIC "-//W3C//DTD SVG 1.1//EN" "http://www.w3.org/Graphics/SVG/1.1/DTD/svg11.dtd">
<svg version="1.1" id="图层_1" xmlns="http://www.w3.org/2000/svg" xmlns:xlink="http://www.w3.org/1999/xlink" x="0px" y="0px"
	 width="95.84px" height="106.502px" viewBox="0 0 95.84 106.502" enable-background="new 0 0 95.84 106.502" xml:space="preserve">
<circle fill="#666666" stroke="#000000" stroke-width="2" cx="83.686" cy="87.952" r="7.356"/>
<path fill="none" stroke="#000000" stroke-width="2" d="M80.594,48.934l-0.318,4.69l-0.32,3.731l-0.107,3.092v2.345l0.107,1.813
	l0.213,1.386l0.213,1.066l0.32,0.853l0.32,0.64l0.319,0.746l0.319,0.746l0.427,0.96l0.319,1.279l0.32,1.706l0.213,2.238l0.213,2.665
	"/>
<path fill="none" stroke="#000000" stroke-width="2" d="M77.289,48.934l-0.213,4.584l-0.106,3.518v2.559l0.214,1.919l0.426,1.279
	l0.427,0.746l0.64,0.32l0.64,0.106l0.64-0.106h0.639l0.641,0.106l0.746,0.32l0.533,0.746l0.533,1.279l0.426,1.919l0.32,2.665"/>
<path fill="#336666" d="M28.677,97.013V77.717l-2.132-2.025v-65.35l1.493-2.132l2.878-1.813l3.838-1.6l5.01-1.279l5.437-0.532h5.65
	l5.437,0.532l4.798,1.279l3.943,1.6l2.879,1.813l1.387,2.132v65.35l-2.239,2.025v19.296H28.677z"/>
<path fill="#3B6E6E" d="M30.169,97.013V77.717l-2.132-2.025l0.32-65.35L29.53,8.21l2.559-1.813l3.625-1.6l4.69-1.279l5.011-0.532
	h5.224l5.01,0.532l4.371,1.279l3.625,1.6l2.664,1.813l1.387,2.132v65.35l-1.813,2.025L65.67,97.013H30.169z"/>
<path fill="#457878" d="M31.556,97.013l0.106-19.296l-1.919-2.025v-65.35l1.386-2.132l2.346-1.813l3.305-1.6l4.158-1.279
	l4.584-0.532h4.904l4.584,0.532l4.052,1.279l3.41,1.6l2.453,1.813l1.172,2.132v65.35l-1.813,2.025v19.296H31.556z"/>
<path fill="#4C7F7F" d="M33.155,97.013V77.717l-1.813-2.025v-65.35l1.173-2.132l2.239-1.813l2.985-1.6l3.838-1.279l4.158-0.532
	h4.477l4.266,0.532l3.624,1.279l3.198,1.6l2.132,1.813l1.066,2.132v65.35l-1.599,2.025v19.296H33.155z"/>
<path fill="#548787" d="M34.541,97.013V77.717l-1.599-2.025v-65.35l0.959-2.132l2.025-1.813l2.878-1.6l3.412-1.279l3.731-0.532
	h3.838l4.051,0.532l3.412,1.279l2.664,1.6l1.92,1.813l1.066,2.132v65.35l-1.493,2.025v19.296H34.541z"/>
<path fill="#5E9191" d="M35.926,97.013V77.717l-1.386-2.025v-65.35L35.5,8.21l1.813-1.813l2.452-1.6l2.985-1.279l3.412-0.532h3.412
	l3.411,0.532l3.305,1.279l2.346,1.6l1.812,1.813l0.854,2.132v65.35l-1.279,2.025v19.296H35.926z"/>
<path fill="#669999" d="M37.313,97.013V77.717l-1.173-2.025v-65.35l0.853-2.132l1.599-1.813l2.132-1.6l2.665-1.279l2.985-0.532
	h2.985l3.091,0.532l2.772,1.279l2.025,1.6l1.599,1.813l0.746,2.132v65.35l-0.959,2.025v19.296H37.313z"/>
<path fill="#6EA1A1" d="M38.805,97.013V77.717l-1.066-2.025v-65.35l0.853-2.132l1.173-1.813l2.025-1.6l2.239-1.279l2.559-0.532
	h2.559l2.665,0.532l2.452,1.279l1.706,1.6l1.492,1.813l0.64,2.132v65.35l-1.065,2.025v19.296H38.805z"/>
<path fill="#78ABAB" d="M40.404,97.013V77.717l-1.066-2.025v-65.35l0.64-2.132l1.172-1.813l1.599-1.6l1.813-1.279L46.8,2.987h2.239
	l2.132,0.532l2.026,1.279l1.599,1.6l1.065,1.813l0.533,2.132v65.35l-0.746,2.025v19.296H40.404z"/>
<path fill="#7FB2B2" d="M41.79,97.013V77.717l-0.853-2.025v-65.35l0.426-2.132l0.959-1.813l1.386-1.6l1.706-1.279l1.599-0.532h1.813
	l1.813,0.532l1.599,1.279l1.173,1.6l1.066,1.813l0.319,2.132v65.35l-0.533,2.025v19.296H41.79z"/>
<path fill="#87BABA" d="M43.176,97.013V77.717l-0.64-2.025v-65.35l0.426-2.132l0.746-1.813l0.853-1.6l1.386-1.279l1.279-0.532h1.386
	l1.386,0.532l1.173,1.279l1.066,1.6l0.746,1.813l0.214,2.132v65.35l-0.428,2.025v19.296H43.176z"/>
<path fill="#91C4C4" d="M44.562,97.013V77.717l-0.426-2.025v-65.35l0.213-2.132l0.64-1.813l0.533-1.6l1.066-1.279l0.747-0.532h1.066
	l0.96,0.532l0.852,1.279l0.747,1.6l0.427,1.813l0.426,2.132v65.35l-0.426,2.025v19.296H44.562z"/>
<path fill="#99CCCC" d="M45.947,97.013V77.717l-0.213-2.025v-65.35l0.213-2.132l0.213-1.813l0.426-1.6l0.427-1.279l0.533-0.532h0.64
	l0.64,0.532l0.319,1.279l0.427,1.6l0.426,1.813v2.132v65.35l-0.213,2.025v19.296H45.947z"/>
<path fill="none" stroke="#000000" stroke-width="2" d="M28.677,97.013V77.717l-2.132-2.025v-65.35l1.493-2.132l2.878-1.813
	l3.838-1.6l5.01-1.279l5.437-0.532h5.65l5.437,0.532l4.798,1.279l3.943,1.6l2.879,1.813l1.387,2.132v65.35l-2.239,2.025v19.296
	H28.677"/>
<path fill="none" stroke="#336666" stroke-width="2" d="M67.056,78.144l-1.173,0.319l-2.665,0.64l-3.625,0.427l-4.157,0.213
	l-5.011,0.214h-5.01l-4.904-0.214L36.14,79.53l-3.625-0.427l-2.666-0.64l-1.172-0.319"/>
<path fill="none" stroke="#336666" stroke-width="2" d="M69.295,75.692l-1.387,0.427l-2.879,0.533l-3.943,0.426l-4.798,0.214
	l-5.437,0.213h-5.65l-5.437-0.213l-5.01-0.214l-3.838-0.426l-2.878-0.533l-1.493-0.427"/>
<path fill="none" stroke="#99CCCC" stroke-width="2" d="M69.295,75.158l-1.387,0.533l-2.879,0.64l-3.943,0.32l-4.798,0.213
	l-5.437,0.213h-5.65l-5.437-0.213l-4.797-0.213l-4.051-0.32l-2.878-0.64l-1.386-0.533"/>
<path fill="none" stroke="#99CCCC" stroke-width="2" d="M67.056,77.717l-1.173,0.427l-2.665,0.533l-3.625,0.426l-4.157,0.214
	l-5.011,0.213h-5.01l-4.904-0.213l-4.371-0.214l-3.625-0.426l-2.666-0.533l-1.172-0.427"/>
<path fill="#669999" d="M5.224,98.613h85.392v3.198H5.224V98.613z"/>
<path fill="#336666" d="M5.224,98.613h85.392v1.599H5.224V98.613z"/>
<path fill="#99CCCC" d="M2.985,98.613h89.869v-1.6H2.985V98.613z"/>
<path fill="#99CCCC" d="M2.985,103.409h89.869v-1.599H2.985V103.409z"/>
<path fill="none" stroke="#000000" stroke-width="2" d="M2.985,103.409v-1.599h2.239v-3.198H2.985v-1.6h89.869v1.6h-2.238v3.198
	h2.238v1.599H2.985"/>
<circle fill="#E5E5E5" stroke="#000000" stroke-width="2" cx="47.866" cy="52.025" r="2.132"/>
<circle fill="#CCCCCC" stroke="#000000" stroke-width="2" cx="47.866" cy="62.899" r="2.132"/>
<path fill="#336666" stroke="#000000" stroke-width="2" d="M45.734,13.54h4.264v25.799h-4.264V13.54z"/>
<path fill="#336666" stroke="#000000" stroke-width="2" d="M60.659,24.308v4.37H49.998v-4.37H60.659z"/>
<path fill="#336666" d="M39.551,34.862l-2.238-2.985l-1.173-3.624v-3.625l1.173-3.624l2.238-2.985l2.985-2.239l3.411-0.959h3.838
	l3.625,0.959l2.984,2.239l2.025,2.985l1.173,3.624v3.625l-1.173,3.624l-2.132,2.985L53.41,37.1l-3.625,1.173h-3.838L42.536,37.1
	L39.551,34.862z"/>
<circle fill="#457878" cx="47.866" cy="26.333" r="10.874"/>
<circle fill="#548787" cx="47.653" cy="26.333" r="10.127"/>
<circle fill="#669999" cx="47.653" cy="26.12" r="9.381"/>
<circle fill="#78ABAB" cx="47.44" cy="26.12" r="8.529"/>
<circle fill="#87BABA" cx="47.44" cy="25.907" r="7.462"/>
<circle fill="#8FC2C2" cx="47.333" cy="25.907" r="4.797"/>
<path fill="none" stroke="#000000" stroke-width="2" d="M39.551,34.862l-2.238-2.985l-1.173-3.624v-3.625l1.173-3.624l2.238-2.985
	l2.985-2.239l3.411-0.959h3.838l3.625,0.959l2.984,2.239l2.025,2.985l1.173,3.624v3.625l-1.173,3.624l-2.132,2.985L53.41,37.1
	l-3.625,1.173h-3.838L42.536,37.1L39.551,34.862"/>
<path fill="#CCCCCC" d="M66.096,32.303h17.057v16.631H66.096V32.303z"/>
<path fill="#C7C7C7" d="M66.096,44.136l17.057-6.822v11.62H66.096V44.136z"/>
<path fill="#C2C2C2" d="M66.096,44.776l17.057-6.822v10.98H66.096V44.776z"/>
<path fill="#BDBDBD" d="M66.096,45.948l17.057-7.036v10.021H66.096V45.948z"/>
<path fill="none" stroke="#000000" stroke-width="2" d="M66.096,32.303h17.057v16.631H66.096V32.303"/>
<path fill="#E5E5E5" d="M67.695,33.903h5.756v4.37h-5.756V33.903z"/>
<path fill="#999999" d="M83.152,36.141h2.239v60.872h-2.239V36.141z"/>
<path fill="#999999" stroke="#000000" stroke-width="2" d="M83.152,65.457v2.239H67.056v-2.239H83.152z"/>
<path fill="#999999" d="M83.152,52.239v2.132H67.056v-2.132H83.152z"/>
<path fill="#999999" d="M87.418,14.82v1.599H69.295V14.82H87.418z"/>
<path fill="#CCCCCC" d="M87.418,15.246v0.532H69.295v-0.532H87.418z"/>
<path fill="#CCCCCC" d="M83.899,36.141h0.64v60.872h-0.64V36.141z"/>
<path fill="#CCCCCC" d="M83.152,52.772v0.853H67.056v-0.853H83.152z"/>
<path fill="#CCCCCC" d="M83.152,66.311v0.533H67.056v-0.533H83.152z"/>
<path fill="none" stroke="#000000" stroke-width="2" d="M83.152,36.141h2.239v60.872h-2.239V36.141"/>
<path fill="none" stroke="#000000" stroke-width="2" d="M83.152,52.239v2.132H67.056v-2.132H83.152"/>
<path fill="none" stroke="#000000" stroke-width="2" d="M87.418,14.82v1.599H69.295V14.82H87.418"/>
<path fill="none" stroke="#000000" stroke-width="2" d="M83.152,43.604l0.533-0.747l0.32-1.065l0.213-1.279l0.107-1.706v-1.813
	v-2.025l-0.107-2.132l-0.106-2.239l-0.106-2.238l-0.106-2.239v-2.025l0.106-2.025l0.213-1.813l0.32-1.599l0.533-1.279l0.639-0.96"/>
<path fill="#999999" d="M80.594,13.86v3.625h-4.477V13.86H80.594z"/>
<path fill="#CCCCCC" d="M80.594,15.032v1.173h-4.477v-1.173H80.594z"/>
<path fill="none" stroke="#000000" stroke-width="2" d="M80.594,13.86v3.625h-4.477V13.86H80.594"/>
<path fill="#7F7F7F" d="M49.998,86.353h40.191v5.224H49.998V86.353z"/>
<path fill="#999999" d="M49.998,86.779h40.191v4.584H49.998V86.779z"/>
<path fill="#B2B2B2" d="M49.998,87.205h40.191v3.518H49.998V87.205z"/>
<path fill="#CCCCCC" d="M49.998,87.739h40.191v2.452H49.998V87.739z"/>
<path fill="#E5E5E5" d="M49.998,88.165h40.191v1.599H49.998V88.165z"/>
<path fill="#FFFFFF" d="M49.998,88.805h40.191v0.532H49.998V88.805z"/>
<path fill="none" stroke="#000000" stroke-width="2" d="M49.998,86.353h40.191v5.224H49.998V86.353"/>
<path fill="#7F7F7F" stroke="#000000" stroke-width="2" d="M58.634,86.353l2.025,1.065l2.239-1.065l-0.641-0.64h-3.197
	L58.634,86.353z"/>
<path stroke="#000000" stroke-width="2" d="M60.232,85.713h1.066v-1.6h0.959v-0.319h-3.197v0.319h1.172V85.713z"/>
<circle stroke="#000000" stroke-width="2" cx="47.866" cy="71.321" r="1.066"/>
<circle stroke="#000000" stroke-width="2" cx="60.445" cy="70.894" r="0.853"/>
<path stroke="#000000" stroke-width="2" d="M73.132,46.801l-0.427-0.853l0.427-0.853h0.96l0.426,0.853l-0.426,0.853H73.132z"/>
<path stroke="#000000" stroke-width="2" d="M68.654,46.801l-0.319-0.853l0.319-0.853h1.066l0.426,0.853l-0.426,0.853H68.654z"/>
<path stroke="#000000" stroke-width="2" d="M77.93,46.801l-0.32-0.853l0.32-0.853h0.959l0.533,0.853l-0.533,0.853H77.93z"/>
</svg>
