<?xml version="1.0" encoding="utf-8"?>
<!-- Generator: Adobe Illustrator 14.0.0, SVG Export Plug-In . SVG Version: 6.00 Build 43363)  -->
<!DOCTYPE svg PUBLIC "-//W3C//DTD SVG 1.1//EN" "http://www.w3.org/Graphics/SVG/1.1/DTD/svg11.dtd">
<svg version="1.1" id="图层_1" xmlns="http://www.w3.org/2000/svg" xmlns:xlink="http://www.w3.org/1999/xlink" x="0px" y="0px"
	 width="140.407px" height="106.502px" viewBox="0 0 140.407 106.502" enable-background="new 0 0 140.407 106.502"
	 xml:space="preserve">
<path fill="#333333" d="M121.977,80.475v18.57h-2.11v-18.57H121.977z"/>
<path fill="#333333" d="M22.51,40.519h95.387v1.267H22.51V40.519z"/>
<path fill="#8C8C8C" d="M20.4,41.785h99.467v60.777H20.4V41.785z"/>
<path fill="#878787" d="M20.4,85.117l99.467-25.465v42.91H20.4V85.117z"/>
<path fill="#828282" d="M20.4,87.509l99.467-25.184v40.237H20.4V87.509z"/>
<path fill="#7D7D7D" d="M20.4,91.167l99.467-25.184v36.579H20.4V91.167z"/>
<path fill="none" stroke="#000000" stroke-width="2" d="M20.4,41.785h99.467v60.777H20.4V41.785"/>
<path fill="none" stroke="#333333" stroke-width="2" d="M97.778,44.458h19.415V99.89H97.778V44.458"/>
<path fill="none" stroke="#333333" stroke-width="2" d="M62.044,44.458h30.248V99.89H62.044V44.458"/>
<path fill="none" stroke="#333333" stroke-width="2" d="M31.514,44.458h24.901V99.89H31.514V44.458"/>
<circle fill="#333333" cx="77.097" cy="87.227" r="2.673"/>
<path fill="#7F7F7F" stroke="#000000" stroke-width="2" d="M6.612,43.192H20.4v59.371H6.612V43.192z"/>
<path fill="#8C8C8C" d="M3.939,70.767H20.4v31.796H3.939V70.767z"/>
<path fill="#4C4C4C" d="M3.939,70.767H20.4l-0.563,1.548H5.206v4.783h14.631v2.11H5.206v5.628h14.631v2.673H5.206v13.646
	l-1.267,1.407V70.767z"/>
<path fill="#B2B2B2" d="M5.206,76.254h14.631v1.406H5.206V76.254z"/>
<path fill="#B2B2B2" d="M5.206,83.148h14.631v2.954H5.206V83.148z"/>
<path fill="#858585" d="M5.206,91.448h14.631v5.064H5.206V91.448z"/>
<path fill="#7D7D7D" d="M5.206,96.513h14.631v4.643H5.206V96.513z"/>
<path fill="none" stroke="#000000" stroke-width="2" d="M3.939,70.767H20.4v31.796H3.939V70.767"/>
<path fill="#999999" d="M37.141,3.94h35.173v36.579H37.141V3.94z"/>
<path fill="#949494" d="M37.141,29.967l35.173-15.476v26.027H37.141V29.967z"/>
<path fill="#8F8F8F" d="M37.141,31.515l35.173-15.476v24.479H37.141V31.515z"/>
<path fill="#8A8A8A" d="M37.141,33.625l35.173-15.194v22.088H37.141V33.625z"/>
<path fill="none" stroke="#000000" stroke-width="2" d="M37.141,3.94h35.173v36.579H37.141V3.94"/>
<path fill="#666666" stroke="#000000" stroke-width="2" d="M27.294,40.519l9.848-8.16v-1.406l-11.255,9.566H27.294z"/>
<path fill="#666666" stroke="#000000" stroke-width="2" d="M81.881,40.519l-9.566-8.16v-1.406l10.833,9.566H81.881z"/>
<path fill="#7F7F7F" stroke="#000000" stroke-width="2" d="M100.733,29.405h12.943v11.114h-12.943V29.405z"/>
<path fill="#E5E5E5" stroke="#000000" stroke-width="2" d="M108.893,35.736l-1.267-1.548v-1.829l1.267-1.406h1.828l1.688,1.406
	v1.829l-1.688,1.548H108.893z"/>
<path fill="#E5E5E5" stroke="#000000" stroke-width="2" d="M103.406,35.736l-1.407-1.548v-1.829l1.407-1.406h2.11l1.267,1.406v1.829
	l-1.267,1.548H103.406z"/>
<path fill="#4C4C4C" stroke="#000000" stroke-width="2" d="M119.867,61.763l3.376-2.673v2.11h2.955V45.302h-2.955v2.11l-3.376-2.11
	V61.763z"/>
<path fill="#999999" stroke="#000000" stroke-width="2" d="M125.353,59.934l8.441-2.954v-2.674h-8.441V59.934z"/>
<path fill="#7F7F7F" d="M126.198,47.412h10.27v6.894h-10.27V47.412z"/>
<path fill="#919191" d="M126.198,47.976h10.27v5.486h-10.27V47.976z"/>
<path fill="#A6A6A6" d="M126.198,48.679h10.27v4.08h-10.27V48.679z"/>
<path fill="#B8B8B8" d="M126.198,49.241h10.27v2.954h-10.27V49.241z"/>
<path fill="#CCCCCC" d="M126.198,50.086h10.27v1.266h-10.27V50.086z"/>
<path fill="none" stroke="#000000" stroke-width="2" d="M126.198,47.412h10.27v6.894h-10.27V47.412"/>
<path fill="#CCCCCC" d="M49.522,18.993h12.521v8.301H49.522V18.993z"/>
<path fill="#CCCCCC" d="M40.518,45.302h6.894v2.11h-6.894V45.302z"/>
<path fill="#CCCCCC" d="M73.58,45.302h6.894v2.11H73.58V45.302z"/>
<path fill="#CCCCCC" d="M104.109,45.302h6.895v2.11h-6.895V45.302z"/>
<path fill="#CCCCCC" d="M102.562,37.001h3.376v1.407h-3.376V37.001z"/>
<path fill="#CCCCCC" d="M108.049,37.001h3.518v1.407h-3.518V37.001z"/>
<path d="M55.15,24.621h1.266v1.266H55.15V24.621z"/>
<path d="M59.09,20.401h1.266v1.547H59.09V20.401z"/>
<path d="M55.15,20.401h1.266v1.547H55.15V20.401z"/>
<path d="M50.789,20.401h1.406v1.547h-1.406V20.401z"/>
</svg>
