<?xml version="1.0" encoding="utf-8"?>
<!-- Generator: Adobe Illustrator 14.0.0, SVG Export Plug-In . SVG Version: 6.00 Build 43363)  -->
<!DOCTYPE svg PUBLIC "-//W3C//DTD SVG 1.1//EN" "http://www.w3.org/Graphics/SVG/1.1/DTD/svg11.dtd">
<svg version="1.1" id="图层_1" xmlns="http://www.w3.org/2000/svg" xmlns:xlink="http://www.w3.org/1999/xlink" x="0px" y="0px"
	 width="144.749px" height="52.309px" viewBox="0 0 144.749 52.309" enable-background="new 0 0 144.749 52.309"
	 xml:space="preserve">
<path fill="#CCCCCC" stroke="#000000" stroke-width="2" d="M4.057,18.258v-5.651h136.489v5.651H4.057z"/>
<path fill="#CCCCCC" stroke="#000000" stroke-width="2" d="M32.456,29.704v-5.65h79.692v5.65H32.456z"/>
<path fill="#CCCCCC" stroke="#000000" stroke-width="2" d="M49.553,38.977v-5.796h45.497v5.796H49.553z"/>
<path fill="#CCCCCC" stroke="#000000" stroke-width="2" d="M60.855,46.802v-5.796h22.894v5.796H60.855z"/>
<path fill="#999999" stroke="#000000" stroke-width="2" d="M4.057,18.258h136.489l-34.05,5.796h-68.39L4.057,18.258z"/>
<path fill="#999999" stroke="#000000" stroke-width="2" d="M32.456,29.704h79.692l-19.996,3.478h-39.7L32.456,29.704z"/>
<path fill="#999999" stroke="#000000" stroke-width="2" d="M49.553,38.977h45.497l-11.302,2.028H60.855L49.553,38.977z"/>
<path fill="#999999" stroke="#000000" stroke-width="2" d="M60.855,46.802h22.894l-5.796,1.449H66.651L60.855,46.802z"/>
<path fill="#333333" d="M43.903,24.053l16.952-5.796h22.894l16.952,5.796H43.903z"/>
<path fill="#333333" d="M55.639,33.181l9.997-3.478h13.331l9.997,3.478H55.639z"/>
<path fill="#333333" d="M62.739,41.006l5.796-2.028h7.534l5.796,2.028H62.739z"/>
<path fill="#333333" d="M67.52,48.251l2.898-1.449h3.767l2.898,1.449H67.52z"/>
<path fill="#7F7F7F" d="M55.205,4.057h34.194v8.549H55.205V4.057z"/>
<path fill="#999999" d="M58.827,4.057h27.095v8.549H58.827V4.057z"/>
<path fill="#B2B2B2" d="M62.449,4.057H82.3v8.549H62.449V4.057z"/>
<path fill="#CCCCCC" d="M63.754,4.057H80.85v8.549H63.754V4.057z"/>
<path fill="#E5E5E5" d="M69.404,4.057H75.2v8.549h-5.796V4.057z"/>
<path fill="none" stroke="#000000" stroke-width="2" d="M55.205,4.057h34.194v8.549H55.205V4.057"/>
</svg>
