<?xml version="1.0" encoding="utf-8"?>
<!-- Generator: Adobe Illustrator 14.0.0, SVG Export Plug-In . SVG Version: 6.00 Build 43363)  -->
<!DOCTYPE svg PUBLIC "-//W3C//DTD SVG 1.1//EN" "http://www.w3.org/Graphics/SVG/1.1/DTD/svg11.dtd">
<svg version="1.1" id="图层_1" xmlns="http://www.w3.org/2000/svg" xmlns:xlink="http://www.w3.org/1999/xlink" x="0px" y="0px"
	 width="106.502px" height="106.502px" viewBox="0 0 106.502 106.502" enable-background="new 0 0 106.502 106.502"
	 xml:space="preserve">
<path fill="#B2B2B2" stroke="#000000" stroke-width="2" d="M2.878,103.518V2.878h100.639l-8.528,2.025H11.407v96.375L2.878,103.518z
	"/>
<path fill="#E5E5E5" stroke="#000000" stroke-width="2" d="M103.517,2.878v100.64H2.878l8.529-2.026h83.582V4.904L103.517,2.878z"/>
<path fill="#D8E5E5" d="M97.228,101.279l2.025-96.375l4.264-2.025l-2.025,98.4H97.228z"/>
<path fill="#999999" d="M103.517,2.878v100.64h-2.025V3.305L103.517,2.878z"/>
<path fill="#FFFFFF" d="M97.228,101.279V4.904h2.025L97.228,101.279z"/>
<path fill="#BFCCCC" d="M11.407,101.279V4.904H9.168l-4.265,96.375H11.407z"/>
<path fill="#FFFFFF" d="M4.904,94.989l4.265-83.581L4.904,47.015V94.989z"/>
<path fill="#333333" d="M2.878,25.799h2.025v5.65H2.878V25.799z"/>
<path fill="#333333" d="M101.492,25.799h2.025v5.65h-2.025V25.799z"/>
<path fill="#333333" d="M101.492,74.947h2.025v5.437h-2.025V74.947z"/>
<path fill="#333333" d="M2.878,74.947h2.025v5.437H2.878V74.947z"/>
<path fill="none" stroke="#000000" stroke-width="2" d="M4.904,2.878v98.4"/>
<path fill="none" stroke="#000000" stroke-width="2" d="M101.492,103.518V4.904"/>
<path fill="#D8E5E5" d="M97.228,93.07v1.919H9.168V93.07l4.158-33.688H93.07L97.228,93.07z"/>
<path fill="#D8E5E5" stroke="#000000" stroke-width="2" d="M97.228,47.015v1.919H9.168v-1.919l4.158-33.688H93.07L97.228,47.015z"/>
<path fill="#D1DEDE" d="M97.228,47.015v1.919H9.168v-1.919l1.386-11.301l83.262-15.672L97.228,47.015z"/>
<path fill="#D1DEDE" d="M97.228,93.07v1.919H9.168V93.07l1.386-11.301l83.262-15.671L97.228,93.07z"/>
<path fill="#C9D6D6" d="M97.228,93.07v1.919H9.168V93.07l0.746-6.503l84.541-15.885L97.228,93.07z"/>
<path fill="#C9D6D6" d="M97.228,47.015v1.919H9.168v-1.919l0.746-6.504l84.541-15.885L97.228,47.015z"/>
<path fill="#A5B2B2" d="M97.228,47.015v1.919H9.168v-1.919H97.228z"/>
<path fill="#A5B2B2" d="M97.228,93.07v1.919H9.168V93.07H97.228z"/>
<path fill="none" stroke="#000000" stroke-width="2" d="M97.228,93.07v1.919H9.168V93.07l4.158-33.688H93.07L97.228,93.07"/>
<path fill="none" stroke="#FFFFFF" stroke-width="2" d="M13.326,26.013H93.07"/>
<path fill="none" stroke="#FFFFFF" stroke-width="2" d="M11.407,44.776h83.582"/>
<path fill="none" stroke="#FFFFFF" stroke-width="2" d="M13.326,72.068H93.07"/>
<path fill="none" stroke="#FFFFFF" stroke-width="2" d="M11.407,90.831h83.582"/>
<path fill="none" stroke="#336666" stroke-width="2" d="M13.326,15.352H93.07"/>
<path fill="none" stroke="#336666" stroke-width="2" d="M13.326,28.038H93.07"/>
<path fill="none" stroke="#336666" stroke-width="2" d="M13.326,61.62H93.07"/>
<path fill="none" stroke="#336666" stroke-width="2" d="M13.326,74.093H93.07"/>
</svg>
