<?xml version="1.0" encoding="utf-8"?>
<!-- Generator: Adobe Illustrator 14.0.0, SVG Export Plug-In . SVG Version: 6.00 Build 43363)  -->
<!DOCTYPE svg PUBLIC "-//W3C//DTD SVG 1.1//EN" "http://www.w3.org/Graphics/SVG/1.1/DTD/svg11.dtd">
<svg version="1.1" id="图层_1" xmlns="http://www.w3.org/2000/svg" xmlns:xlink="http://www.w3.org/1999/xlink" x="0px" y="0px"
	 width="69.509px" height="106.502px" viewBox="0 0 69.509 106.502" enable-background="new 0 0 69.509 106.502"
	 xml:space="preserve">
<path fill="#FF0000" d="M16.631,75.693L2.985,2.986h63.432L52.984,75.693H16.631z"/>
<path fill="#333333" d="M16.631,75.693v6.609h36.354v-6.609H16.631z"/>
<path fill="#4C4C4C" d="M16.631,82.515l-4.584,20.362h45.309l-4.371-20.362H16.631z"/>
<path fill="none" stroke="#000000" stroke-width="2" d="M16.631,82.515l-4.584,20.362h45.309l-4.371-20.362v-7.036H16.631V82.515"/>
<path fill="#CCCCCC" d="M13.219,99.466v2.346h8.422v-2.346H13.219z"/>
<path fill="#7F7F7F" stroke="#000000" stroke-width="2" d="M25.053,77.291v24.946h19.296V77.291H25.053z"/>
<path d="M26.865,83.581v18.656H42.75V83.581H26.865z"/>
<path fill="#191919" d="M26.865,83.581v-6.29H42.75v6.29H26.865z"/>
<path fill="#B2B2B2" d="M29.104,82.729v-4.371h11.193v4.371H29.104z"/>
<path fill="#B2B2B2" d="M31.236,93.603v-4.265h6.93v4.265H31.236z"/>
<path fill="#B2B2B2" d="M29.104,101.279v-6.93h11.193v6.93H29.104z"/>
<path fill="none" stroke="#7F0000" stroke-width="2" d="M4.158,4.157h61.3"/>
<path stroke="#000000" stroke-width="2" d="M34.115,81.875l-1.066-1.172V67.697l1.066-1.279h1.386l1.066,1.279v13.007l-1.066,1.172
	H34.115z"/>
<path fill="#F70000" d="M16.631,75.693L9.808,39.339l51.599-9.063l-8.423,45.416H16.631z"/>
<path fill="#F00000" d="M16.631,75.693L10.554,43.71l50.105-8.956l-7.676,40.938H16.631z"/>
<path fill="#E80000" d="M16.631,75.693L11.62,48.401l48.081-9.062l-6.717,36.354H16.631z"/>
<path fill="none" stroke="#000000" stroke-width="2" d="M16.631,75.693L2.985,2.986h63.432L52.984,75.693H16.631"/>
<path d="M12.58,102.877h1.279v0.533H12.58V102.877z"/>
<path d="M55.757,102.877h1.065v0.533h-1.065V102.877z"/>
</svg>
