<?xml version="1.0" encoding="utf-8"?>
<!-- Generator: Adobe Illustrator 14.0.0, SVG Export Plug-In . SVG Version: 6.00 Build 43363)  -->
<!DOCTYPE svg PUBLIC "-//W3C//DTD SVG 1.1//EN" "http://www.w3.org/Graphics/SVG/1.1/DTD/svg11.dtd">
<svg version="1.1" id="图层_1" xmlns="http://www.w3.org/2000/svg" xmlns:xlink="http://www.w3.org/1999/xlink" x="0px" y="0px"
	 width="144.749px" height="89.258px" viewBox="0 0 144.749 89.258" enable-background="new 0 0 144.749 89.258"
	 xml:space="preserve">
<path fill="#B2CCB2" stroke="#000000" stroke-width="2" d="M65.202,4.059h2.753v1.304h-2.753V4.059z"/>
<path fill="#B2CCB2" d="M4.057,5.363H129.1v79.837H4.057V5.363z"/>
<path fill="#ADC7AD" d="M4.057,61.871L129.1,28.546v56.653H4.057V61.871z"/>
<path fill="#A8C2A8" d="M4.057,65.493L129.1,32.168v53.031H4.057V65.493z"/>
<path fill="#A3BDA3" d="M4.057,70.42L129.1,37.095v48.104H4.057V70.42z"/>
<path fill="none" stroke="#000000" stroke-width="2" d="M4.057,5.363H129.1v79.837H4.057V5.363"/>
<path fill="none" stroke="#7F997F" stroke-width="2" d="M80.85,6.812h14.055v69.839H80.85V6.812"/>
<path fill="none" stroke="#7F997F" stroke-width="2" d="M63.754,6.812h14.344v69.839H63.754V6.812"/>
<path fill="none" stroke="#7F997F" stroke-width="2" d="M32.456,6.812h28.399v69.839H32.456V6.812"/>
<path fill="none" stroke="#98B298" stroke-width="2" d="M4.057,6.812H129.1"/>
<path fill="#CBE5CB" d="M96.644,8.406h31.152v21.3H96.644V8.406z"/>
<path fill="#BFD9BF" d="M96.644,32.458h31.152v-2.753H96.644V32.458z"/>
<path fill="#5B755B" d="M96.644,45.209h31.152V33.762H96.644V45.209z"/>
<path fill="#5B755B" d="M96.644,60.858h31.152V49.7H96.644V60.858z"/>
<path fill="#6B856B" d="M96.644,60.858h31.152v-9.854H96.644V60.858z"/>
<path fill="#6B856B" d="M96.644,45.209h31.152v-9.708H96.644V45.209z"/>
<path fill="#7C967C" d="M96.644,45.209h31.152v-8.404H96.644V45.209z"/>
<path fill="#7C967C" d="M96.644,60.858h31.152v-8.549H96.644V60.858z"/>
<path fill="#8CA68C" d="M96.644,60.858h31.152v-7.101H96.644V60.858z"/>
<path fill="#8CA68C" d="M96.644,45.209h31.152v-7.101H96.644V45.209z"/>
<path fill="#9BB59B" d="M96.644,60.858h31.152v-5.796H96.644V60.858z"/>
<path fill="#9BB59B" d="M96.644,45.209h31.152v-5.651H96.644V45.209z"/>
<path fill="#AAC4AA" d="M96.644,45.209h31.152v-4.348H96.644V45.209z"/>
<path fill="#AAC4AA" d="M96.644,60.858h31.152v-4.202H96.644V60.858z"/>
<path fill="#BCD6BC" d="M96.644,63.755h31.152v-5.65H96.644V63.755z"/>
<path fill="#BCD6BC" d="M96.644,47.962h31.152v-5.361H96.644V47.962z"/>
<path fill="#CBE5CB" d="M96.644,45.209h31.152v-1.305H96.644V45.209z"/>
<path fill="#CBE5CB" d="M96.644,60.858h31.152v-1.449H96.644V60.858z"/>
<path fill="#4C664C" d="M96.644,66.508h31.152v-2.753H96.644V66.508z"/>
<path fill="#4C664C" d="M96.644,45.209l1.304-11.447h28.399l1.449,11.447V32.458H96.644V45.209z"/>
<path fill="#4C664C" d="M96.644,60.858L97.948,49.7h28.399l1.449,11.157V47.962H96.644V60.858z"/>
<path fill="none" stroke="#000000" stroke-width="2" d="M96.644,8.406h31.152v55.35H96.644V8.406"/>
<path fill="none" stroke="#000000" stroke-width="2" d="M96.644,32.458h31.152"/>
<path fill="none" stroke="#000000" stroke-width="2" d="M96.644,47.962h31.152"/>
<path fill="#7F997F" d="M26.661,79.404h11.446v2.753H26.661V79.404z"/>
<path fill="#7F997F" d="M94.905,79.404h11.592v2.753H94.905V79.404z"/>
<path fill="none" stroke="#657F65" stroke-width="2" d="M31.008,66.508h2.753v-2.753"/>
<path fill="none" stroke="#657F65" stroke-width="2" d="M31.008,19.563h2.753V16.81"/>
<path fill="none" stroke="#657F65" stroke-width="2" d="M62.449,66.508h2.753v-2.753"/>
<path fill="none" stroke="#657F65" stroke-width="2" d="M62.449,19.563h2.753V16.81"/>
<path fill="none" stroke="#657F65" stroke-width="2" d="M79.402,66.508h3.042v-2.753"/>
<path fill="none" stroke="#657F65" stroke-width="2" d="M79.402,19.563h3.042V16.81"/>
<path fill="none" stroke="#FFFFFF" stroke-width="2" d="M79.402,66.508v-2.753h3.042"/>
<path fill="none" stroke="#FFFFFF" stroke-width="2" d="M79.402,19.563V16.81h3.042"/>
<path fill="none" stroke="#FFFFFF" stroke-width="2" d="M62.449,66.508v-2.753h2.753"/>
<path fill="none" stroke="#FFFFFF" stroke-width="2" d="M62.449,19.563V16.81h2.753"/>
<path fill="none" stroke="#FFFFFF" stroke-width="2" d="M31.008,66.508v-2.753h2.753"/>
<path fill="none" stroke="#FFFFFF" stroke-width="2" d="M31.008,19.563V16.81h2.753"/>
<path fill="#FFFFFF" d="M6.955,9.71h21.3v4.201h-21.3V9.71z"/>
<path fill="#FFFFFF" d="M86.502,11.158h3.043v5.651h-3.043V11.158z"/>
<path fill="#FFFFFF" d="M69.549,11.158h2.753v5.651h-2.753V11.158z"/>
<path fill="#FFFFFF" d="M45.207,11.158h3.043v5.651h-3.043V11.158z"/>
<path fill="none" stroke="#FF6600" stroke-width="2" d="M45.207,12.463h3.043"/>
<path fill="none" stroke="#FF6600" stroke-width="2" d="M69.549,12.463h2.753"/>
<path fill="none" stroke="#FF6600" stroke-width="2" d="M86.502,12.463h3.043"/>
<path fill="#98B298" stroke="#000000" stroke-width="2" d="M129.1,39.558h11.446v5.651l-7.1,11.446H129.1V39.558z"/>
<path fill="none" stroke="#E5FFE5" stroke-width="2" d="M4.057,5.363H129.1"/>
<path fill="none" stroke="#E5FFE5" stroke-width="2" d="M129.39,39.558h11.156"/>
<path fill="none" stroke="#E5FFE5" stroke-width="2" d="M65.202,4.059h2.753"/>
</svg>
