<?xml version="1.0" encoding="utf-8"?>
<!-- Generator: Adobe Illustrator 14.0.0, SVG Export Plug-In . SVG Version: 6.00 Build 43363)  -->
<!DOCTYPE svg PUBLIC "-//W3C//DTD SVG 1.1//EN" "http://www.w3.org/Graphics/SVG/1.1/DTD/svg11.dtd">
<svg version="1.1" id="图层_1" xmlns="http://www.w3.org/2000/svg" xmlns:xlink="http://www.w3.org/1999/xlink" x="0px" y="0px"
	 width="81.338px" height="106.502px" viewBox="0 0 81.338 106.502" enable-background="new 0 0 81.338 106.502"
	 xml:space="preserve">
<path fill="#7F7F7F" d="M9.168,5.013h62.896v96.263H9.168V5.013z"/>
<path fill="#7A7A7A" d="M11.193,5.013h59.058v96.263H11.193V5.013z"/>
<path fill="#787878" d="M13.006,5.013h55.433v96.263H13.006V5.013z"/>
<path fill="#737373" d="M14.818,5.013h51.809v96.263H14.818V5.013z"/>
<path fill="#6E6E6E" d="M16.63,5.013h47.971v96.263H16.63V5.013z"/>
<path fill="#6B6B6B" d="M18.442,5.013h44.454v96.263H18.442V5.013z"/>
<path fill="#666666" d="M20.255,5.013h40.829v96.263H20.255V5.013z"/>
<path fill="#616161" d="M22.067,5.013h37.204v96.263H22.067V5.013z"/>
<path fill="#5E5E5E" d="M24.092,5.013h33.367v96.263H24.092V5.013z"/>
<path fill="#595959" d="M25.905,5.013h29.636v96.263H25.905V5.013z"/>
<path fill="#545454" d="M27.717,5.013h26.119v96.263H27.717V5.013z"/>
<path fill="#525252" d="M29.422,5.013h22.601v96.263H29.422V5.013z"/>
<path fill="#4C4C4C" d="M31.235,5.013h18.763v96.263H31.235V5.013z"/>
<path fill="#CCCCCC" d="M72.064,101.276v2.133H9.168v-2.133H72.064z"/>
<path fill="#CCCCCC" d="M72.064,36.461v2.025H9.168v-2.025H72.064z"/>
<path fill="#CCCCCC" d="M72.064,2.988v2.025H9.168V2.988H72.064z"/>
<path fill="#CCCCCC" d="M74.089,2.988v100.421h-2.025V2.988H74.089z"/>
<path fill="#CCCCCC" d="M39.55,5.013h2.239v31.448H39.55V5.013z"/>
<path fill="#CCCCCC" d="M7.143,2.988h2.025v100.421H7.143V2.988z"/>
<path fill="#CCCCCC" d="M40.723,38.487l31.128,31.448l-31.128,31.341L9.381,69.935L40.723,38.487z"/>
<path fill="#CCCCCC" stroke="#000000" stroke-width="2" d="M74.089,7.145h4.264v17.696h-4.264V7.145z"/>
<path fill="none" stroke="#000000" stroke-width="2" d="M74.089,3.948H7.143"/>
<path fill="none" stroke="#000000" stroke-width="2" d="M9.168,38.487h62.896v62.789H9.168V38.487"/>
<path fill="none" stroke="#000000" stroke-width="2" d="M41.789,5.013h30.275v31.448H41.789V5.013"/>
<path fill="none" stroke="#000000" stroke-width="2" d="M9.168,5.013H39.55v31.448H9.168V5.013"/>
<path fill="none" stroke="#000000" stroke-width="2" d="M7.143,2.988h66.947v100.421H7.143V2.988"/>
<path fill="none" stroke="#000000" stroke-width="2" d="M74.089,102.448H7.143"/>
<path fill="none" stroke="#000000" stroke-width="2" d="M77.288,7.145v17.696"/>
<path fill="none" stroke="#000000" stroke-width="2" d="M40.509,101.276v2.133"/>
<path fill="none" stroke="#000000" stroke-width="2" d="M7.143,69.935h2.025"/>
<path fill="none" stroke="#000000" stroke-width="2" d="M72.064,69.935h2.025"/>
<path fill="none" stroke="#000000" stroke-width="2" d="M40.509,38.487v-2.025"/>
<path fill="none" stroke="#000000" stroke-width="2" d="M40.723,38.487l31.128,31.448l-31.128,31.341L9.381,69.935L40.723,38.487"/>
<path fill="#4C4C4C" d="M15.351,11.409h16.95v25.052h-16.95V11.409z"/>
<path fill="#595959" d="M15.671,13.008h16.63v23.347h-16.63V13.008z"/>
<path fill="#666666" d="M15.671,14.608h16.63v21.747h-16.63V14.608z"/>
<path fill="#737373" d="M15.671,16.206h16.63v20.148h-16.63V16.206z"/>
<path fill="#7F7F7F" d="M15.671,18.019h16.63v18.336h-16.63V18.019z"/>
<path fill="#8C8C8C" d="M15.671,19.617h16.63v16.737h-16.63V19.617z"/>
<path fill="#999999" d="M15.671,21.217h16.63v15.138h-16.63V21.217z"/>
<path fill="#A6A6A6" d="M15.671,23.03h16.63v13.325h-16.63V23.03z"/>
<path fill="#B2B2B2" d="M15.671,24.628h16.63v11.727h-16.63V24.628z"/>
<path fill="#BFBFBF" d="M15.671,28.039h16.63v8.315h-16.63V28.039z"/>
<path fill="none" stroke="#000000" stroke-width="2" d="M15.351,11.409h16.95v25.052h-16.95V11.409"/>
<path fill="#FFFFFF" d="M40.723,40.725l29.208,29.21L40.723,99.25L11.407,69.935L40.723,40.725z"/>
<path fill="#FAFAFA" d="M69.931,69.935L40.723,99.25L26.118,84.539L69.931,69.935z"/>
<path fill="#F5F5F5" d="M62.576,77.29L40.723,99.25l-10.98-10.873L62.576,77.29z"/>
<path fill="#4C4C4C" stroke="#000000" stroke-width="2" d="M45.733,11.409h23.133v25.052H45.733V11.409z"/>
<path fill="#4C4C4C" d="M2.985,61.619h4.158v25.158H2.985V61.619z"/>
<path fill="#4C4C4C" stroke="#000000" stroke-width="2" d="M2.985,11.409h4.158v20.895H2.985V11.409z"/>
<path fill="#5C5C5C" d="M45.947,12.582h22.919v22.493H45.947V12.582z"/>
<path fill="#5C5C5C" d="M2.985,62.899h4.158v22.493H2.985V62.899z"/>
<path fill="#5C5C5C" d="M2.985,12.368h4.158v18.763H2.985V12.368z"/>
<path fill="#6B6B6B" d="M45.947,13.862h22.919V33.69H45.947V13.862z"/>
<path fill="#6B6B6B" d="M2.985,64.072h4.158v19.935H2.985V64.072z"/>
<path fill="#6B6B6B" d="M2.985,13.435h4.158v16.63H2.985V13.435z"/>
<path fill="#7D7D7D" d="M45.947,15.247h22.919v17.27H45.947V15.247z"/>
<path fill="#7D7D7D" d="M2.985,65.457h4.158v17.27H2.985V65.457z"/>
<path fill="#7D7D7D" d="M2.985,14.608h4.158v14.284H2.985V14.608z"/>
<path fill="#8C8C8C" d="M45.947,16.633h22.919v14.498H45.947V16.633z"/>
<path fill="#8C8C8C" d="M2.985,66.843h4.158v14.498H2.985V66.843z"/>
<path fill="#8C8C8C" d="M2.985,15.673h4.158v12.26H2.985V15.673z"/>
<path fill="#9C9C9C" d="M45.947,17.806h22.919v12.046H45.947V17.806z"/>
<path fill="#9C9C9C" d="M2.985,68.122h4.158v12.046H2.985V68.122z"/>
<path fill="#9C9C9C" d="M2.985,16.846h4.158v9.808H2.985V16.846z"/>
<path fill="#ABABAB" d="M45.947,19.192h22.919v9.274H45.947V19.192z"/>
<path fill="#ABABAB" d="M2.985,17.806h4.158v7.889H2.985V17.806z"/>
<path fill="#ABABAB" d="M2.985,69.508h4.158v9.168H2.985V69.508z"/>
<path fill="#BDBDBD" d="M45.947,20.471h22.919v6.822H45.947V20.471z"/>
<path fill="#BDBDBD" d="M2.985,70.681h4.158v6.822H2.985V70.681z"/>
<path fill="#BDBDBD" d="M2.985,18.871h4.158v5.757H2.985V18.871z"/>
<path fill="#CCCCCC" d="M45.733,22.816h23.133v2.025H45.733V22.816z"/>
<path fill="#CCCCCC" d="M2.985,20.897h4.158v1.813H2.985V20.897z"/>
<path fill="#CCCCCC" d="M2.985,73.133h4.158v2.025H2.985V73.133z"/>
<path fill="none" stroke="#000000" stroke-width="2" d="M2.985,61.619h4.158v25.158H2.985V61.619"/>
</svg>
