<?xml version="1.0" encoding="utf-8"?>
<!-- Generator: Adobe Illustrator 14.0.0, SVG Export Plug-In . SVG Version: 6.00 Build 43363)  -->
<!DOCTYPE svg PUBLIC "-//W3C//DTD SVG 1.1//EN" "http://www.w3.org/Graphics/SVG/1.1/DTD/svg11.dtd">
<svg version="1.1" id="图层_1" xmlns="http://www.w3.org/2000/svg" xmlns:xlink="http://www.w3.org/1999/xlink" x="0px" y="0px"
	 width="144.749px" height="85.054px" viewBox="0 0 144.749 85.054" enable-background="new 0 0 144.749 85.054"
	 xml:space="preserve">
<path fill="#4C4C4C" d="M20.43,69.549v11.302h103.743V69.549H20.43z"/>
<path fill="#5E5E5E" d="M28.255,69.549v11.302h88.095V69.549H28.255z"/>
<path fill="#6E6E6E" d="M36.079,69.549v11.302h72.446V69.549H36.079z"/>
<path fill="#7F7F7F" d="M43.903,69.549v11.302h56.798V69.549H43.903z"/>
<path fill="#919191" d="M51.727,69.549v11.302h41.149V69.549H51.727z"/>
<path fill="#A1A1A1" d="M59.552,69.549v11.302h25.501V69.549H59.552z"/>
<path fill="#B2B2B2" d="M67.376,69.549v11.302h9.853V69.549H67.376z"/>
<path fill="#666666" stroke="#000000" stroke-width="2" d="M4.057,69.549l2.753-7.679l4.347-8.26l6.375-6.955l9.273-2.752v-14.2
	l2.173-8.549l3.478-8.548l4.348-5.651l7.1-2.898h56.798l7.824,2.898l3.623,5.651l3.477,8.548l2.174,8.549v14.2l9.128,2.752
	l6.521,6.955l4.347,8.26l2.753,7.679H4.057z"/>
<path fill="#7A7A7A" d="M14.344,69.549l2.318-7.679l3.768-8.404l5.506-6.811l7.824-2.752v-14.2l1.738-8.549l3.043-8.548l3.622-5.651
	l6.086-2.898h48.249l6.666,2.898l3.042,5.651l2.898,8.548l1.884,8.549v14.2l7.824,2.752l5.506,6.811l3.622,8.404l2.318,7.679H14.344
	z"/>
<path fill="#919191" d="M24.632,69.549l2.029-7.679l3.042-8.404l4.492-6.811l6.375-2.752v-14.2l1.449-8.549l2.463-8.548l3.043-5.651
	l4.927-2.898h39.7l5.506,2.898l2.464,5.651l2.463,8.548l1.594,8.549v14.2l6.375,2.752l4.492,6.811l3.043,8.404l1.884,7.679H24.632z"
	/>
<path fill="#A6A6A6" d="M34.92,69.549l1.594-7.679l2.318-8.404l3.622-6.811l4.927-2.752v-14.2l1.159-8.549l2.028-8.548l2.318-5.651
	l3.912-2.898h31.152l4.201,2.898l1.884,5.651l2.028,8.548l1.159,8.549v14.2l5.071,2.752l3.478,6.811l2.464,8.404l1.448,7.679H34.92z
	"/>
<path fill="#BABABA" d="M45.351,69.549l1.015-7.679l1.738-8.404l2.608-6.811l3.622-2.752v-14.2l0.87-8.549l1.448-8.548l1.594-5.651
	l2.754-2.898h22.603l3.188,2.898l1.304,5.651l1.449,8.548l0.869,8.549v14.2l3.622,2.752l2.463,6.811l1.739,8.404l1.159,7.679H45.351
	z"/>
<path fill="#D1D1D1" d="M55.639,69.549l0.579-7.679l1.159-8.404l1.594-6.811l2.174-2.752v-14.2l0.579-8.549l0.87-8.548l1.014-5.651
	l1.739-2.898h13.909l2.028,2.898l0.87,5.651l0.869,8.548l0.435,8.549v14.2l2.318,2.752l1.594,6.811l1.015,8.404l0.725,7.679H55.639z
	"/>
<path fill="#E5E5E5" d="M65.927,69.549l0.29-7.679l0.29-8.26l0.724-6.955l0.725-2.752v-14.2l0.29-8.549l0.29-8.548l0.435-5.651
	l0.579-2.898h5.507l0.724,2.898l0.29,5.651l0.29,8.548l0.29,8.549v14.2l0.724,2.752l0.725,6.955l0.29,8.26l0.29,7.679H65.927z"/>
<path fill="none" stroke="#000000" stroke-width="2" d="M26.805,29.704h90.993"/>
<path fill="none" stroke="#000000" stroke-width="2" d="M27.53,43.904h90.269"/>
<path fill="none" stroke="#000000" stroke-width="2" d="M4.057,69.549l2.753-7.679l4.347-8.26l6.375-6.955l9.273-2.752v-14.2
	l2.173-8.549l3.478-8.548l4.348-5.651l7.1-2.898h56.798l7.824,2.898l3.623,5.651l3.477,8.548l2.174,8.549v14.2l9.128,2.752
	l6.521,6.955l4.347,8.26l2.753,7.679H4.057"/>
<path fill="none" stroke="#000000" stroke-width="2" d="M20.43,69.549v11.302h103.743V69.549H20.43"/>
</svg>
