<?xml version="1.0" encoding="utf-8"?>
<!-- Generator: Adobe Illustrator 14.0.0, SVG Export Plug-In . SVG Version: 6.00 Build 43363)  -->
<!DOCTYPE svg PUBLIC "-//W3C//DTD SVG 1.1//EN" "http://www.w3.org/Graphics/SVG/1.1/DTD/svg11.dtd">
<svg version="1.1" id="图层_1" xmlns="http://www.w3.org/2000/svg" xmlns:xlink="http://www.w3.org/1999/xlink" x="0px" y="0px"
	 width="68.868px" height="106.502px" viewBox="0 0 68.868 106.502" enable-background="new 0 0 68.868 106.502"
	 xml:space="preserve">
<path fill="#333333" d="M19.829,28.038v50.318h0.64h0.64h27.397h0.64V28.038h-0.64h-0.64h-0.639H20.469H19.829z"/>
<path fill="#383838" d="M19.829,30.278v45.628h29.316V30.278H19.829z"/>
<path fill="#3D3D3D" d="M19.829,32.73v40.937h29.316V32.73H19.829z"/>
<path fill="#424242" d="M19.829,34.968v36.246h29.316V34.968H19.829z"/>
<path fill="#474747" d="M19.829,37.314v31.769h29.316V37.314H19.829z"/>
<path fill="#4C4C4C" d="M19.829,39.552V66.63h29.316V39.552H19.829z"/>
<path fill="#525252" d="M19.829,41.898v22.601h29.316V41.898H19.829z"/>
<path fill="#575757" d="M19.829,44.136v17.91h29.316v-17.91H19.829z"/>
<path fill="#5C5C5C" d="M19.829,46.375v13.433h29.316V46.375H19.829z"/>
<path fill="#616161" d="M19.829,48.72v8.955h29.316V48.72H19.829z"/>
<path fill="#666666" d="M19.829,51.172v4.052h0.64h0.64h27.397h0.64v-4.052h-0.64h-0.64h-0.639H20.469H19.829z"/>
<path fill="none" stroke="#000000" stroke-width="2" d="M19.829,28.038v50.318h0.64h0.64h27.397h0.64V28.038h-0.64h-0.64h-0.639
	H20.469H19.829"/>
<path fill="#4C4C4C" stroke="#000000" stroke-width="2" d="M59.38,19.616h6.503v67.162H59.38V19.616z"/>
<path fill="#4C4C4C" d="M49.145,21.856h4.052V84.54h-4.052V21.856z"/>
<path fill="#4C4C4C" stroke="#000000" stroke-width="2" d="M32.302,21.856h4.158V84.54h-4.158V21.856z"/>
<path fill="#4C4C4C" stroke="#000000" stroke-width="2" d="M15.564,21.856h4.265V84.54h-4.265V21.856z"/>
<path fill="#4C4C4C" d="M2.985,19.616h6.396v67.162H2.985V19.616z"/>
<path fill="#545454" d="M59.594,22.708h6.289v60.979h-6.289V22.708z"/>
<path fill="#545454" d="M49.145,24.414h4.052v57.354h-4.052V24.414z"/>
<path fill="#545454" d="M32.302,24.414h4.158v57.354h-4.158V24.414z"/>
<path fill="#545454" d="M15.564,24.414h4.265v57.354h-4.265V24.414z"/>
<path fill="#545454" d="M3.198,22.708h6.184v60.979H3.198V22.708z"/>
<path fill="#5C5C5C" d="M59.594,25.48h6.289v55.223h-6.289V25.48z"/>
<path fill="#5C5C5C" d="M49.145,27.292h4.052v51.812h-4.052V27.292z"/>
<path fill="#5C5C5C" d="M32.302,27.292h4.158v51.812h-4.158V27.292z"/>
<path fill="#5C5C5C" d="M15.564,27.292h4.265v51.812h-4.265V27.292z"/>
<path fill="#5C5C5C" d="M3.198,25.48h6.184v55.223H3.198V25.48z"/>
<path fill="#636363" d="M59.594,28.465h6.289v49.466h-6.289V28.465z"/>
<path fill="#636363" d="M49.145,30.064h4.052v46.268h-4.052V30.064z"/>
<path fill="#636363" d="M32.302,30.064h4.158v46.268h-4.158V30.064z"/>
<path fill="#636363" d="M15.564,30.064h4.265v46.268h-4.265V30.064z"/>
<path fill="#636363" d="M3.198,28.465h6.184v49.466H3.198V28.465z"/>
<path fill="#6B6B6B" d="M59.594,31.343h6.289v43.603h-6.289V31.343z"/>
<path fill="#6B6B6B" d="M49.145,32.73h4.052v40.83h-4.052V32.73z"/>
<path fill="#6B6B6B" d="M32.302,32.73h4.158v40.83h-4.158V32.73z"/>
<path fill="#6B6B6B" d="M15.564,32.73h4.265v40.83h-4.265V32.73z"/>
<path fill="#6B6B6B" d="M3.198,31.343h6.184v43.603H3.198V31.343z"/>
<path fill="#737373" d="M59.594,34.328h6.289v37.739h-6.289V34.328z"/>
<path fill="#737373" d="M49.145,35.501h4.052v35.394h-4.052V35.501z"/>
<path fill="#737373" d="M32.302,35.501h4.158v35.394h-4.158V35.501z"/>
<path fill="#737373" d="M15.564,35.501h4.265v35.394h-4.265V35.501z"/>
<path fill="#737373" d="M3.198,34.328h6.184v37.739H3.198V34.328z"/>
<path fill="#7A7A7A" d="M59.594,37.314h6.289v31.769h-6.289V37.314z"/>
<path fill="#7A7A7A" d="M49.145,38.379h4.052v29.637h-4.052V38.379z"/>
<path fill="#7A7A7A" d="M32.302,38.379h4.158v29.637h-4.158V38.379z"/>
<path fill="#7A7A7A" d="M15.564,38.379h4.265v29.637h-4.265V38.379z"/>
<path fill="#7A7A7A" d="M3.198,37.314h6.184v31.769H3.198V37.314z"/>
<path fill="#828282" d="M59.594,40.085h6.289v26.012h-6.289V40.085z"/>
<path fill="#828282" d="M49.145,40.938h4.052v24.307h-4.052V40.938z"/>
<path fill="#828282" d="M32.302,40.938h4.158v24.307h-4.158V40.938z"/>
<path fill="#828282" d="M15.564,40.938h4.265v24.307h-4.265V40.938z"/>
<path fill="#828282" d="M3.198,40.085h6.184v26.012H3.198V40.085z"/>
<path fill="#8A8A8A" d="M59.594,43.177h6.289v20.042h-6.289V43.177z"/>
<path fill="#8A8A8A" d="M49.145,43.71h4.052v18.976h-4.052V43.71z"/>
<path fill="#8A8A8A" d="M32.302,43.71h4.158v18.976h-4.158V43.71z"/>
<path fill="#8A8A8A" d="M15.564,43.71h4.265v18.976h-4.265V43.71z"/>
<path fill="#8A8A8A" d="M3.198,43.177h6.184v20.042H3.198V43.177z"/>
<path fill="#919191" d="M59.594,45.948h6.289v14.285h-6.289V45.948z"/>
<path fill="#919191" d="M49.145,46.588h4.052v13.22h-4.052V46.588z"/>
<path fill="#919191" d="M32.302,46.588h4.158v13.22h-4.158V46.588z"/>
<path fill="#919191" d="M15.564,46.588h4.265v13.22h-4.265V46.588z"/>
<path fill="#919191" d="M3.198,45.948h6.184v14.285H3.198V45.948z"/>
<path fill="#999999" d="M59.38,48.934h6.503v8.528H59.38V48.934z"/>
<path fill="#999999" d="M49.145,49.147h4.052v7.889h-4.052V49.147z"/>
<path fill="#999999" d="M32.302,49.147h4.158v7.889h-4.158V49.147z"/>
<path fill="#999999" d="M15.564,49.147h4.265v7.889h-4.265V49.147z"/>
<path fill="#999999" d="M2.985,48.934h6.396v8.528H2.985V48.934z"/>
<path fill="none" stroke="#000000" stroke-width="2" d="M49.145,21.856h4.052V84.54h-4.052V21.856"/>
<path fill="none" stroke="#000000" stroke-width="2" d="M2.985,19.616h6.396v67.162H2.985V19.616"/>
<path fill="#7F0000" stroke="#000000" stroke-width="2" d="M59.594,103.409V2.986h-6.396v100.424H59.594z"/>
<path fill="#7F0000" stroke="#000000" stroke-width="2" d="M15.564,103.409V2.986H9.382v100.424H15.564z"/>
<path fill="#8A0000" d="M59.594,99.572V6.823H53.41v92.748H59.594z"/>
<path fill="#8A0000" d="M15.564,99.572V6.823H9.382v92.748H15.564z"/>
<path fill="#940000" d="M59.594,95.841V10.555H53.41v85.286H59.594z"/>
<path fill="#940000" d="M15.564,95.841V10.555H9.382v85.286H15.564z"/>
<path fill="#9E0000" d="M59.594,91.789V14.393H53.41v77.396H59.594z"/>
<path fill="#9E0000" d="M15.564,91.789V14.393H9.382v77.396H15.564z"/>
<path fill="#AB0000" d="M59.594,87.951V18.231H53.41v69.721H59.594z"/>
<path fill="#AB0000" d="M15.564,87.951V18.231H9.382v69.721H15.564z"/>
<path fill="#B50000" d="M59.594,84.114V22.069H53.41v62.045H59.594z"/>
<path fill="#B50000" d="M15.564,84.114V22.069H9.382v62.045H15.564z"/>
<path fill="#BF0000" d="M59.594,80.276V25.906H53.41v54.369H59.594z"/>
<path fill="#BF0000" d="M15.564,80.276V25.906H9.382v54.369H15.564z"/>
<path fill="#C90000" d="M59.594,76.545V29.638H53.41v46.907H59.594z"/>
<path fill="#C90000" d="M15.564,76.545V29.638H9.382v46.907H15.564z"/>
<path fill="#D40000" d="M59.594,72.707V33.689H53.41v39.019H59.594z"/>
<path fill="#D40000" d="M15.564,72.707V33.689H9.382v39.019H15.564z"/>
<path fill="#DE0000" d="M59.594,68.869V37.527H53.41v31.343H59.594z"/>
<path fill="#DE0000" d="M15.564,68.869V37.527H9.382v31.343H15.564z"/>
<path fill="#EB0000" d="M59.594,65.031V41.365H53.41v23.667H59.594z"/>
<path fill="#EB0000" d="M15.564,65.031V41.365H9.382v23.667H15.564z"/>
<path fill="#F50000" d="M59.594,61.194V45.202H53.41v15.991H59.594z"/>
<path fill="#F50000" d="M15.564,61.194V45.202H9.382v15.991H15.564z"/>
<path fill="#FF0000" d="M59.594,57.462v-8.528h-6.396v8.528H59.594z"/>
<path fill="#FF0000" d="M15.564,57.462v-8.528H9.382v8.528H15.564z"/>
<path fill="none" stroke="#000000" stroke-width="2" d="M9.382,4.905l2.025,2.239v6.503l-2.025,2.132v6.29l2.025,2.132v6.503
	l-2.025,2.133v6.503l2.025,2.025v6.396l-2.025,2.238v6.396l2.025,2.239v6.183l-2.025,2.239v6.503l2.025,2.132v6.503l-2.025,1.919
	v6.503l2.025,2.133v6.503l-2.025,2.025"/>
<path fill="none" stroke="#000000" stroke-width="2" d="M59.594,101.278l-2.239-2.025v-6.503l2.239-2.133v-6.503l-2.239-2.132
	v-6.503l2.239-1.919v-6.503l-2.239-2.239v-6.396l2.239-2.025v-6.396l-2.239-2.238v-6.396l2.239-2.238V32.73l-2.239-2.026V24.2
	l2.239-2.132v-6.396l-2.239-2.025V7.144l2.239-2.239"/>
<path fill="none" stroke="#B2B2B2" stroke-width="2" d="M34.541,82.515V23.881"/>
</svg>
