<?xml version="1.0" encoding="utf-8"?>
<!-- Generator: Adobe Illustrator 14.0.0, SVG Export Plug-In . SVG Version: 6.00 Build 43363)  -->
<!DOCTYPE svg PUBLIC "-//W3C//DTD SVG 1.1//EN" "http://www.w3.org/Graphics/SVG/1.1/DTD/svg11.dtd">
<svg version="1.1" id="图层_1" xmlns="http://www.w3.org/2000/svg" xmlns:xlink="http://www.w3.org/1999/xlink" x="0px" y="0px"
	 width="98.079px" height="106.502px" viewBox="0 0 98.079 106.502" enable-background="new 0 0 98.079 106.502"
	 xml:space="preserve">
<path fill="#657F65" stroke="#000000" stroke-width="2" d="M2.985,103.409V2.986h66.949v100.424H2.985z"/>
<path fill="#476647" stroke="#000000" stroke-width="2" d="M69.934,101.278V36.46h25.159v64.817H69.934z"/>
<path fill="none" stroke="#B2BFB2" stroke-width="2" d="M5.117,59.488V5.012h62.792"/>
<path fill="none" stroke="#B2BFB2" stroke-width="2" d="M5.117,101.278V63.646h62.792"/>
<path fill="none" stroke="#1A401A" stroke-width="2" d="M67.909,63.646v37.632H5.117"/>
<path fill="none" stroke="#1A401A" stroke-width="2" d="M67.909,5.012v54.369H5.117"/>
<path fill="#E5E5E5" stroke="#000000" stroke-width="2" d="M72.067,38.487v2.132h4.157v-2.132H72.067z"/>
<circle fill="#B2B2B2" stroke="#000000" stroke-width="2" cx="36.459" cy="44.776" r="12.58"/>
<path fill="#577357" d="M38.592,34.328h2.025v6.29h-2.025V34.328z"/>
<path fill="#577357" d="M35.394,34.328h2.132v6.29h-2.132V34.328z"/>
<path fill="#577357" d="M32.302,34.328h2.026v6.29h-2.026V34.328z"/>
<path fill="#577357" d="M26.332,48.294l-1.066-1.813l5.437-3.198l1.066,1.813L26.332,48.294z"/>
<path fill="#577357" d="M27.931,50.959l-1.066-1.813l5.437-3.092l1.066,1.706L27.931,50.959z"/>
<path fill="#577357" d="M29.423,53.731l-0.959-1.813l5.437-3.198l0.959,1.813L29.423,53.731z"/>
<path fill="#577357" d="M47.653,46.482l-1.066,1.813l-5.437-3.198l1.066-1.813L47.653,46.482z"/>
<path fill="#758C75" d="M32.302,74.093V44.776h33.474v29.317H32.302z"/>
<path fill="#859985" d="M53.197,72.068V61.619h4.157v10.448H53.197z"/>
<path fill="#859985" d="M34.328,72.068V61.619h4.264v10.448H34.328z"/>
<path fill="#859985" d="M40.617,72.068V61.619h4.264v10.448H40.617z"/>
<path fill="#859985" d="M46.907,72.068V61.619h4.264v10.448H46.907z"/>
<path fill="#859985" d="M59.487,72.068V61.619h4.158v10.448H59.487z"/>
<path fill="none" stroke="#000000" stroke-width="2" d="M19.722,7.144v20.895H7.143"/>
<path fill="none" stroke="#B2BFB2" stroke-width="2" d="M7.143,28.038V7.144h12.58"/>
<path fill="none" stroke="#000000" stroke-width="2" d="M37.526,9.276v16.631H20.789"/>
<path fill="none" stroke="#B2BFB2" stroke-width="2" d="M20.789,26.013V9.276h16.737"/>
<circle fill="#A6A6A6" stroke="#000000" stroke-width="2" cx="29.104" cy="17.591" r="6.29"/>
<circle fill="#333333" cx="29.104" cy="17.591" r="5.224"/>
<path fill="#8C8C8C" d="M39.551,19.723V7.144h9.488v12.579H39.551z"/>
<path fill="#8C8C8C" stroke="#000000" stroke-width="2" d="M51.171,23.881V7.144h14.604v16.737H51.171z"/>
<path fill="#666666" stroke="#000000" stroke-width="2" d="M51.171,23.881v8.422h14.604v-8.422H51.171z"/>
<path fill="#F2F2F2" d="M8.208,31.237h8.315v2.025H8.208V31.237z"/>
<path fill="none" stroke="#FFFFFF" stroke-width="2" d="M39.551,19.723V7.144h9.488"/>
<path fill="#476647" stroke="#000000" stroke-width="2" d="M21.854,28.038h6.183v6.29h-6.183V28.038z"/>
<path fill="#B2B2B2" stroke="#000000" stroke-width="2" d="M43.815,19.723l0.106,1.6l0.32,1.492l0.64,1.6l0.747,1.599l0.32,0.746
	l0.533,0.747l0.427,0.853l0.533,0.746l0.533,0.853l0.533,0.746l0.426,0.747l0.64,0.853l0.533,0.746l0.426,0.746l0.64,0.854
	l0.427,0.746l0.533,0.746l0.426,0.853l0.533,0.746l0.426,0.747l0.32,0.853l0.64,1.599l0.533,1.493l0.213,1.599v0.746h0.319h1.6
	h0.213V44.03l-0.319-1.599l-0.427-1.6l-0.319-0.746l-0.319-0.853l-0.428-0.854l-0.319-0.746l-0.532-0.853l-0.428-0.853l-0.532-0.747
	l-0.533-0.853l-0.532-0.853l-0.533-0.746l-0.533-0.854l-0.533-0.853l-0.533-0.746l-0.533-0.854l-0.533-0.746l-0.427-0.746
	l-0.533-0.853l-0.427-0.746l-0.853-1.493l-0.64-1.599l-0.427-1.386l-0.213-1.493l-0.107-0.64h-0.213h-1.599H43.815z"/>
<path fill="none" stroke="#B2BFB2" stroke-width="2" d="M32.302,74.093V44.882H65.67"/>
<path fill="none" stroke="#000000" stroke-width="2" d="M49.039,7.144v12.579h-9.381"/>
<path fill="#B2B2B2" stroke="#000000" stroke-width="2" d="M71,53.198l1.492,3.731l1.173,3.519l1.065,3.411l0.854,3.198l0.64,2.985
	l0.532,2.771l0.428,5.011l-0.107,4.157l-0.64,3.519l-0.96,2.665l-2.131,2.451l-3.412,0.32l-2.771-1.919l-1.706-2.452l-1.599-3.305
	l-1.279-4.051l-0.96-5.117l0,0h-2.025h-0.214h0.107l0.426,5.224l1.066,4.371l1.706,3.731l2.025,2.878l2.345,2.132l2.559,1.173
	l1.279,0.32l1.174,0.106l1.279-0.214l3.305-1.812l1.813-2.346l1.172-3.411l0.427-2.133l0.213-2.345V79.21l-0.319-2.879l-0.427-3.198
	l-0.746-3.411l-0.96-3.731l-1.279-3.944l-1.492-4.264l-1.919-4.585h-0.319H71z"/>
<path fill="none" stroke="#1A401A" stroke-width="2" d="M65.776,44.776v29.317H32.302"/>
<path fill="#8C8C8C" stroke="#000000" stroke-width="2" d="M69.934,53.198V40.618h10.447v12.579H69.934z"/>
<path fill="none" stroke="#000000" stroke-width="2" d="M82.514,36.46v4.158h12.579"/>
<path fill="none" stroke="#000000" stroke-width="2" d="M88.803,40.618V36.46"/>
<path fill="#BFBFBF" d="M85.073,39.019l-0.213-0.64l0.213-0.64l0.746-0.213l0.639,0.213l0.214,0.64l-0.214,0.64l-0.639,0.32
	L85.073,39.019z"/>
<path fill="#BFBFBF" d="M91.362,39.019l-0.213-0.64l0.213-0.64l0.746-0.213l0.641,0.213l0.213,0.64l-0.213,0.64l-0.641,0.32
	L91.362,39.019z"/>
<path fill="#BFBFBF" d="M24.413,31.663l-0.213-0.64l0.213-0.64l0.64-0.213l0.64,0.213l0.32,0.64l-0.32,0.64l-0.64,0.319
	L24.413,31.663z"/>
</svg>
