<?xml version="1.0" encoding="utf-8"?>
<!-- Generator: Adobe Illustrator 14.0.0, SVG Export Plug-In . SVG Version: 6.00 Build 43363)  -->
<!DOCTYPE svg PUBLIC "-//W3C//DTD SVG 1.1//EN" "http://www.w3.org/Graphics/SVG/1.1/DTD/svg11.dtd">
<svg version="1.1" id="图层_1" xmlns="http://www.w3.org/2000/svg" xmlns:xlink="http://www.w3.org/1999/xlink" x="0px" y="0px"
	 width="144.749px" height="42.164px" viewBox="0 0 144.749 42.164" enable-background="new 0 0 144.749 42.164"
	 xml:space="preserve">
<path fill="#7F7F7F" d="M17.533,27.095h109.538v0.869H17.533V27.095z"/>
<path d="M19.127,27.095h1.159v0.869h-1.159V27.095z"/>
<path d="M124.318,27.095h1.159v0.869h-1.159V27.095z"/>
<path d="M71.432,27.095h0.869v0.869h-0.869V27.095z"/>
<path fill="#CCCCCC" d="M16.664,4.057H127.94v23.038H16.664V4.057z"/>
<path fill="#C7C7C7" d="M16.664,20.575l111.276-9.998v16.518H16.664V20.575z"/>
<path fill="#C2C2C2" d="M16.664,21.299l111.276-9.563v15.359H16.664V21.299z"/>
<path fill="#BDBDBD" d="M16.664,22.748L127.94,13.04v14.055H16.664V22.748z"/>
<path fill="none" stroke="#000000" stroke-width="2" d="M16.664,4.057H127.94v23.038H16.664V4.057"/>
<path fill="none" stroke="#7F7F7F" stroke-width="2" d="M17.533,4.781h109.538"/>
<path fill="#E5E5E5" d="M17.533,27.964L4.058,38.107h136.487l-13.475-10.143H17.533z"/>
<path fill="#E0E0E0" d="M7.536,35.353l-3.478,2.754h136.487l-11.012-8.26L7.536,35.353z"/>
<path fill="#DBDBDB" d="M5.942,36.512l-1.884,1.595h136.487l-8.404-6.23L5.942,36.512z"/>
<path fill="none" stroke="#000000" stroke-width="2" d="M17.533,27.964L4.058,38.107h136.487l-13.475-10.143H17.533"/>
<path fill="none" stroke="#FFFFFF" stroke-width="2" d="M17.533,5.651h109.538"/>
<path fill="none" stroke="#FFFFFF" stroke-width="2" d="M5.652,37.237h133.3"/>
</svg>
