<?xml version="1.0" encoding="utf-8"?>
<!-- Generator: Adobe Illustrator 14.0.0, SVG Export Plug-In . SVG Version: 6.00 Build 43363)  -->
<!DOCTYPE svg PUBLIC "-//W3C//DTD SVG 1.1//EN" "http://www.w3.org/Graphics/SVG/1.1/DTD/svg11.dtd">
<svg version="1.1" id="图层_1" xmlns="http://www.w3.org/2000/svg" xmlns:xlink="http://www.w3.org/1999/xlink" x="0px" y="0px"
	 width="144.749px" height="56.218px" viewBox="0 0 144.749 56.218" enable-background="new 0 0 144.749 56.218"
	 xml:space="preserve">
<path fill="#4C4C4C" stroke="#000000" stroke-width="2" d="M52.886,23.617L54.19,8.693h82.588l-1.304,14.924H52.886z"/>
<path fill="#CCCCCC" stroke="#000000" stroke-width="2" d="M52.886,12.171h83.892v3.042H52.886V12.171z"/>
<path d="M16.808,28.833H8.985L5.942,26.95l-1.884-3.043V20.14l1.884-3.042l3.043-1.884h7.823V28.833z"/>
<path fill="#CCCCCC" d="M16.808,4.057h36.078V39.99H16.808V4.057z"/>
<path fill="#C7C7C7" d="M16.808,29.703l36.078-15.069V39.99H16.808V29.703z"/>
<path fill="#C2C2C2" d="M16.808,31.007l36.078-14.924V39.99H16.808V31.007z"/>
<path fill="#BDBDBD" d="M16.808,33.47l36.078-15.214V39.99H16.808V33.47z"/>
<path fill="none" stroke="#000000" stroke-width="2" d="M16.808,4.057h36.078V39.99H16.808V4.057"/>
<path fill="none" stroke="#000000" stroke-width="2" d="M19.851,9.998h4.058"/>
<path fill="none" stroke="#000000" stroke-width="2" d="M28.256,9.998h4.347"/>
<path fill="none" stroke="#000000" stroke-width="2" d="M37.094,9.998h4.057"/>
<path fill="none" stroke="#000000" stroke-width="2" d="M45.497,9.998h4.347"/>
<path fill="none" stroke="#000000" stroke-width="2" d="M19.851,13.04h4.058"/>
<path fill="none" stroke="#000000" stroke-width="2" d="M28.256,13.04h4.347"/>
<path fill="none" stroke="#000000" stroke-width="2" d="M37.094,13.04h4.057"/>
<path fill="none" stroke="#000000" stroke-width="2" d="M45.497,13.04h4.347"/>
<path fill="none" stroke="#000000" stroke-width="2" d="M19.851,31.007h4.058"/>
<path fill="none" stroke="#000000" stroke-width="2" d="M28.256,31.007h4.347"/>
<path fill="none" stroke="#000000" stroke-width="2" d="M37.094,31.007h4.057"/>
<path fill="none" stroke="#000000" stroke-width="2" d="M45.497,31.007h4.347"/>
<path fill="none" stroke="#000000" stroke-width="2" d="M19.851,34.049h4.058"/>
<path fill="none" stroke="#000000" stroke-width="2" d="M28.256,34.049h4.347"/>
<path fill="none" stroke="#000000" stroke-width="2" d="M37.094,34.049h4.057"/>
<path fill="none" stroke="#000000" stroke-width="2" d="M45.497,34.049h4.347"/>
<ellipse fill="#7F7F7F" cx="34.92" cy="18.981" rx="8.983" ry="2.898"/>
<circle fill="#4C4C4C" cx="10.723" cy="22.023" r="5.94"/>
<path fill="#CCCCCC" d="M15.505,25.936l-1.159,1.014l-2.173-0.29l-2.464-1.304l-2.173-2.173L6.232,20.43l-0.29-1.884l1.014-1.159
	H9.13l2.463,1.304l2.463,2.608l1.449,2.318V25.936z"/>
<path d="M7.536,19.85l0.579-0.58L9.13,20.43l-0.435,0.58L7.536,19.85z"/>
<path d="M9.709,22.023l0.58-0.58l1.014,1.159l-0.435,0.58L9.709,22.023z"/>
<path d="M11.883,24.197l0.579-0.58l1.159,1.159l-0.579,0.58L11.883,24.197z"/>
<path d="M8.695,18.691l0.435-0.435l1.159,1.014l-0.58,0.58L8.695,18.691z"/>
<path d="M10.868,21.009l0.435-0.58l1.159,1.014l-0.579,0.58L10.868,21.009z"/>
<path d="M13.042,23.183l0.579-0.58l1.015,1.014l-0.58,0.58L13.042,23.183z"/>
<circle fill="none" stroke="#000000" stroke-width="2" cx="10.723" cy="22.023" r="5.94"/>
<path fill="#7F7F7F" d="M58.102,25.066L54.19,8.693h82.588l3.768,16.373H58.102z"/>
<path fill="#8C8C8C" d="M56.219,16.807L54.19,8.693h82.588l1.884,8.114H56.219z"/>
<path fill="#999999" d="M55.349,12.75L54.19,8.693h82.588l1.159,4.057H55.349z"/>
<path fill="none" stroke="#000000" stroke-width="2" d="M58.102,25.066L54.19,8.693h82.588l3.768,16.373H58.102"/>
<path fill="#666666" stroke="#000000" stroke-width="2" d="M19.851,39.99h3.043v12.171h-3.043V39.99z"/>
<path fill="none" stroke="#CCCCCC" stroke-width="2" d="M21.301,39.99v12.171"/>
</svg>
