<?xml version="1.0" encoding="utf-8"?>
<!-- Generator: Adobe Illustrator 14.0.0, SVG Export Plug-In . SVG Version: 6.00 Build 43363)  -->
<!DOCTYPE svg PUBLIC "-//W3C//DTD SVG 1.1//EN" "http://www.w3.org/Graphics/SVG/1.1/DTD/svg11.dtd">
<svg version="1.1" id="图层_1" xmlns="http://www.w3.org/2000/svg" xmlns:xlink="http://www.w3.org/1999/xlink" x="0px" y="0px"
	 width="72.922px" height="106.502px" viewBox="0 0 72.922 106.502" enable-background="new 0 0 72.922 106.502"
	 xml:space="preserve">
<path fill="#F2E5CC" d="M2.985,2.985h66.95V103.41H2.985V2.985z"/>
<path fill="#EDE0C7" d="M2.985,74.307l66.95-42.004v71.107H2.985V74.307z"/>
<path fill="#E8DBC2" d="M2.985,78.571l66.95-42.11v66.95H2.985V78.571z"/>
<path fill="#E3D6BD" d="M2.985,84.754l66.95-42.004v60.66H2.985V84.754z"/>
<path fill="none" stroke="#000000" stroke-width="2" d="M2.985,2.985h66.95V103.41H2.985V2.985"/>
<path fill="#333333" d="M3.945,61.62h57.676v39.658H3.945V61.62z"/>
<path fill="none" stroke="#4C4C4C" stroke-width="2" d="M11.408,94.989h31.343"/>
<path fill="none" stroke="#4C4C4C" stroke-width="2" d="M17.591,92.963h33.582"/>
<path fill="none" stroke="#4C4C4C" stroke-width="2" d="M32.303,80.277h20.895"/>
<path fill="none" stroke="#4C4C4C" stroke-width="2" d="M40.725,74.093v8.422"/>
<path fill="none" stroke="#4C4C4C" stroke-width="2" d="M28.039,69.936v20.788"/>
<path fill="none" stroke="#4C4C4C" stroke-width="2" d="M26.12,65.671v18.87"/>
<path fill="none" stroke="#4C4C4C" stroke-width="2" d="M9.169,72.068v16.737"/>
<path fill="none" stroke="#4C4C4C" stroke-width="2" d="M55.438,65.671V86.78"/>
<path fill="none" stroke="#4C4C4C" stroke-width="2" d="M34.329,67.91H11.408"/>
<path fill="none" stroke="#CCBFA6" stroke-width="2" d="M3.945,60.448h51.493V44.776"/>
<path fill="none" stroke="#CCBFA6" stroke-width="2" d="M3.945,43.709h51.493V3.945"/>
<path fill="none" stroke="#FFFAF0" stroke-width="2" d="M3.945,43.709V3.945h51.493"/>
<path fill="none" stroke="#FFFAF0" stroke-width="2" d="M3.945,60.448V44.776h51.493"/>
<path fill="none" stroke="#000000" stroke-width="2" d="M6.184,56.396h3.625"/>
<path fill="none" stroke="#000000" stroke-width="2" d="M11.621,56.396h3.625"/>
<path fill="none" stroke="#000000" stroke-width="2" d="M17.058,56.396h3.518"/>
<path fill="none" stroke="#000000" stroke-width="2" d="M22.495,56.396h3.625"/>
<path fill="none" stroke="#000000" stroke-width="2" d="M27.826,56.396h3.625"/>
<path fill="none" stroke="#000000" stroke-width="2" d="M33.263,56.396h3.625"/>
<path fill="none" stroke="#000000" stroke-width="2" d="M38.699,56.396h3.625"/>
<path fill="none" stroke="#000000" stroke-width="2" d="M44.137,56.396h3.625"/>
<path fill="none" stroke="#000000" stroke-width="2" d="M49.574,56.396h3.624"/>
<path fill="none" stroke="#000000" stroke-width="2" d="M6.184,54.584h3.625"/>
<path fill="none" stroke="#000000" stroke-width="2" d="M11.621,54.584h3.625"/>
<path fill="none" stroke="#000000" stroke-width="2" d="M17.058,54.584h3.518"/>
<path fill="none" stroke="#000000" stroke-width="2" d="M22.495,54.584h3.625"/>
<path fill="none" stroke="#000000" stroke-width="2" d="M27.826,54.584h3.625"/>
<path fill="none" stroke="#000000" stroke-width="2" d="M33.263,54.584h3.625"/>
<path fill="none" stroke="#000000" stroke-width="2" d="M38.699,54.584h3.625"/>
<path fill="none" stroke="#000000" stroke-width="2" d="M44.137,54.584h3.625"/>
<path fill="none" stroke="#000000" stroke-width="2" d="M49.574,54.584h3.624"/>
<path fill="none" stroke="#000000" stroke-width="2" d="M6.184,52.558h3.625"/>
<path fill="none" stroke="#000000" stroke-width="2" d="M11.621,52.558h3.625"/>
<path fill="none" stroke="#000000" stroke-width="2" d="M17.058,52.558h3.518"/>
<path fill="none" stroke="#000000" stroke-width="2" d="M22.495,52.558h3.625"/>
<path fill="none" stroke="#000000" stroke-width="2" d="M27.826,52.558h3.625"/>
<path fill="none" stroke="#000000" stroke-width="2" d="M33.263,52.558h3.625"/>
<path fill="none" stroke="#000000" stroke-width="2" d="M38.699,52.558h3.625"/>
<path fill="none" stroke="#000000" stroke-width="2" d="M44.137,52.558h3.625"/>
<path fill="none" stroke="#000000" stroke-width="2" d="M49.574,52.558h3.624"/>
<path fill="none" stroke="#000000" stroke-width="2" d="M6.184,50.853h3.625"/>
<path fill="none" stroke="#000000" stroke-width="2" d="M11.621,50.853h3.625"/>
<path fill="none" stroke="#000000" stroke-width="2" d="M17.058,50.853h3.518"/>
<path fill="none" stroke="#000000" stroke-width="2" d="M22.495,50.853h3.625"/>
<path fill="none" stroke="#000000" stroke-width="2" d="M27.826,50.853h3.625"/>
<path fill="none" stroke="#000000" stroke-width="2" d="M33.263,50.853h3.625"/>
<path fill="none" stroke="#000000" stroke-width="2" d="M38.699,50.853h3.625"/>
<path fill="none" stroke="#000000" stroke-width="2" d="M44.137,50.853h3.625"/>
<path fill="none" stroke="#000000" stroke-width="2" d="M49.574,50.853h3.624"/>
<path fill="none" stroke="#000000" stroke-width="2" d="M6.184,48.72h3.625"/>
<path fill="none" stroke="#000000" stroke-width="2" d="M11.621,48.72h3.625"/>
<path fill="none" stroke="#000000" stroke-width="2" d="M17.058,48.72h3.518"/>
<path fill="none" stroke="#000000" stroke-width="2" d="M22.495,48.72h3.625"/>
<path fill="none" stroke="#000000" stroke-width="2" d="M27.826,48.72h3.625"/>
<path fill="none" stroke="#000000" stroke-width="2" d="M33.263,48.72h3.625"/>
<path fill="none" stroke="#000000" stroke-width="2" d="M38.699,48.72h3.625"/>
<path fill="none" stroke="#000000" stroke-width="2" d="M44.137,48.72h3.625"/>
<path fill="none" stroke="#000000" stroke-width="2" d="M49.574,48.72h3.624"/>
<path fill="none" stroke="#000000" stroke-width="2" d="M6.184,46.801h3.625"/>
<path fill="none" stroke="#000000" stroke-width="2" d="M11.621,46.801h3.625"/>
<path fill="none" stroke="#000000" stroke-width="2" d="M17.058,46.801h3.518"/>
<path fill="none" stroke="#000000" stroke-width="2" d="M22.495,46.801h3.625"/>
<path fill="none" stroke="#000000" stroke-width="2" d="M27.826,46.801h3.625"/>
<path fill="none" stroke="#000000" stroke-width="2" d="M33.263,46.801h3.625"/>
<path fill="none" stroke="#000000" stroke-width="2" d="M38.699,46.801h3.625"/>
<path fill="none" stroke="#000000" stroke-width="2" d="M44.137,46.801h3.625"/>
<path fill="none" stroke="#000000" stroke-width="2" d="M49.574,46.801h3.624"/>
<path fill="none" stroke="#000000" stroke-width="2" d="M6.184,58.422h3.625"/>
<path fill="none" stroke="#000000" stroke-width="2" d="M11.621,58.422h3.625"/>
<path fill="none" stroke="#000000" stroke-width="2" d="M17.058,58.422h3.518"/>
<path fill="none" stroke="#000000" stroke-width="2" d="M22.495,58.422h3.625"/>
<path fill="none" stroke="#000000" stroke-width="2" d="M27.826,58.422h3.625"/>
<path fill="none" stroke="#000000" stroke-width="2" d="M33.263,58.422h3.625"/>
<path fill="none" stroke="#000000" stroke-width="2" d="M38.699,58.422h3.625"/>
<path fill="none" stroke="#000000" stroke-width="2" d="M44.137,58.422h3.625"/>
<path fill="none" stroke="#000000" stroke-width="2" d="M49.574,58.422h3.624"/>
<path fill="none" stroke="#000000" stroke-width="2" d="M6.184,55.543h3.625"/>
<path fill="none" stroke="#000000" stroke-width="2" d="M11.621,55.543h3.625"/>
<path fill="none" stroke="#000000" stroke-width="2" d="M17.058,55.543h3.518"/>
<path fill="none" stroke="#000000" stroke-width="2" d="M22.495,55.543h3.625"/>
<path fill="none" stroke="#000000" stroke-width="2" d="M27.826,55.543h3.625"/>
<path fill="none" stroke="#000000" stroke-width="2" d="M33.263,55.543h3.625"/>
<path fill="none" stroke="#000000" stroke-width="2" d="M38.699,55.543h3.625"/>
<path fill="none" stroke="#000000" stroke-width="2" d="M44.137,55.543h3.625"/>
<path fill="none" stroke="#000000" stroke-width="2" d="M49.574,55.543h3.624"/>
<path fill="none" stroke="#000000" stroke-width="2" d="M6.184,53.624h3.625"/>
<path fill="none" stroke="#000000" stroke-width="2" d="M11.621,53.624h3.625"/>
<path fill="none" stroke="#000000" stroke-width="2" d="M17.058,53.624h3.518"/>
<path fill="none" stroke="#000000" stroke-width="2" d="M22.495,53.624h3.625"/>
<path fill="none" stroke="#000000" stroke-width="2" d="M27.826,53.624h3.625"/>
<path fill="none" stroke="#000000" stroke-width="2" d="M33.263,53.624h3.625"/>
<path fill="none" stroke="#000000" stroke-width="2" d="M38.699,53.624h3.625"/>
<path fill="none" stroke="#000000" stroke-width="2" d="M44.137,53.624h3.625"/>
<path fill="none" stroke="#000000" stroke-width="2" d="M49.574,53.624h3.624"/>
<path fill="none" stroke="#000000" stroke-width="2" d="M6.184,51.812h3.625"/>
<path fill="none" stroke="#000000" stroke-width="2" d="M11.621,51.812h3.625"/>
<path fill="none" stroke="#000000" stroke-width="2" d="M17.058,51.812h3.518"/>
<path fill="none" stroke="#000000" stroke-width="2" d="M22.495,51.812h3.625"/>
<path fill="none" stroke="#000000" stroke-width="2" d="M27.826,51.812h3.625"/>
<path fill="none" stroke="#000000" stroke-width="2" d="M33.263,51.812h3.625"/>
<path fill="none" stroke="#000000" stroke-width="2" d="M38.699,51.812h3.625"/>
<path fill="none" stroke="#000000" stroke-width="2" d="M44.137,51.812h3.625"/>
<path fill="none" stroke="#000000" stroke-width="2" d="M49.574,51.812h3.624"/>
<path fill="none" stroke="#000000" stroke-width="2" d="M6.184,49.786h3.625"/>
<path fill="none" stroke="#000000" stroke-width="2" d="M11.621,49.786h3.625"/>
<path fill="none" stroke="#000000" stroke-width="2" d="M17.058,49.786h3.518"/>
<path fill="none" stroke="#000000" stroke-width="2" d="M22.495,49.786h3.625"/>
<path fill="none" stroke="#000000" stroke-width="2" d="M27.826,49.786h3.625"/>
<path fill="none" stroke="#000000" stroke-width="2" d="M33.263,49.786h3.625"/>
<path fill="none" stroke="#000000" stroke-width="2" d="M38.699,49.786h3.625"/>
<path fill="none" stroke="#000000" stroke-width="2" d="M44.137,49.786h3.625"/>
<path fill="none" stroke="#000000" stroke-width="2" d="M49.574,49.786h3.624"/>
<path fill="none" stroke="#000000" stroke-width="2" d="M6.184,47.974h3.625"/>
<path fill="none" stroke="#000000" stroke-width="2" d="M11.621,47.974h3.625"/>
<path fill="none" stroke="#000000" stroke-width="2" d="M17.058,47.974h3.518"/>
<path fill="none" stroke="#000000" stroke-width="2" d="M22.495,47.974h3.625"/>
<path fill="none" stroke="#000000" stroke-width="2" d="M27.826,47.974h3.625"/>
<path fill="none" stroke="#000000" stroke-width="2" d="M33.263,47.974h3.625"/>
<path fill="none" stroke="#000000" stroke-width="2" d="M38.699,47.974h3.625"/>
<path fill="none" stroke="#000000" stroke-width="2" d="M44.137,47.974h3.625"/>
<path fill="none" stroke="#000000" stroke-width="2" d="M49.574,47.974h3.624"/>
<path fill="none" stroke="#000000" stroke-width="2" d="M6.184,45.948h3.625"/>
<path fill="none" stroke="#000000" stroke-width="2" d="M11.621,45.948h3.625"/>
<path fill="none" stroke="#000000" stroke-width="2" d="M17.058,45.948h3.518"/>
<path fill="none" stroke="#000000" stroke-width="2" d="M22.495,45.948h3.625"/>
<path fill="none" stroke="#000000" stroke-width="2" d="M27.826,45.948h3.625"/>
<path fill="none" stroke="#000000" stroke-width="2" d="M33.263,45.948h3.625"/>
<path fill="none" stroke="#000000" stroke-width="2" d="M38.699,45.948h3.625"/>
<path fill="none" stroke="#000000" stroke-width="2" d="M44.137,45.948h3.625"/>
<path fill="none" stroke="#000000" stroke-width="2" d="M49.574,45.948h3.624"/>
<path fill="none" stroke="#000000" stroke-width="2" d="M6.184,57.675h3.625"/>
<path fill="none" stroke="#000000" stroke-width="2" d="M11.621,57.675h3.625"/>
<path fill="none" stroke="#000000" stroke-width="2" d="M17.058,57.675h3.518"/>
<path fill="none" stroke="#000000" stroke-width="2" d="M22.495,57.675h3.625"/>
<path fill="none" stroke="#000000" stroke-width="2" d="M27.826,57.675h3.625"/>
<path fill="none" stroke="#000000" stroke-width="2" d="M33.263,57.675h3.625"/>
<path fill="none" stroke="#000000" stroke-width="2" d="M38.699,57.675h3.625"/>
<path fill="none" stroke="#000000" stroke-width="2" d="M44.137,57.675h3.625"/>
<path fill="none" stroke="#000000" stroke-width="2" d="M49.574,57.675h3.624"/>
<path d="M48.934,11.407h4.904v2.559h-4.904V11.407z"/>
<path d="M48.614,34.328h5.65v2.132h-5.65V34.328z"/>
<path fill="#999999" d="M45.949,42.111h7.249v0.64h-7.249V42.111z"/>
<path fill="#E5D8BF" d="M57.463,28.038h9.381v4.265h-9.381V28.038z"/>
<path fill="#BFB299" d="M57.463,32.729h9.381v-0.426h-9.381V32.729z"/>
<path fill="none" stroke="#CCBFA6" stroke-width="2" d="M57.463,28.038v4.265h9.381v-4.265"/>
<path fill="#E5E5E5" d="M57.463,10.341h6.822v9.275h-6.822V10.341z"/>
<path fill="#CCCCCC" d="M57.463,11.833h6.822v6.184h-6.822V11.833z"/>
<path fill="none" stroke="#FFFFFF" stroke-width="2" d="M57.463,18.017v-6.184h6.822"/>
<path fill="none" stroke="#000000" stroke-width="2" d="M64.285,11.833v6.184h-6.822"/>
<path fill="none" stroke="#7F7F7F" stroke-width="2" d="M57.463,19.616h6.822"/>
<path fill="none" stroke="#998C73" stroke-width="2" d="M3.945,102.451H68.87"/>
</svg>
