<?xml version="1.0" encoding="utf-8"?>
<!-- Generator: Adobe Illustrator 14.0.0, SVG Export Plug-In . SVG Version: 6.00 Build 43363)  -->
<!DOCTYPE svg PUBLIC "-//W3C//DTD SVG 1.1//EN" "http://www.w3.org/Graphics/SVG/1.1/DTD/svg11.dtd">
<svg version="1.1" id="图层_1" xmlns="http://www.w3.org/2000/svg" xmlns:xlink="http://www.w3.org/1999/xlink" x="0px" y="0px"
	 width="144.749px" height="99.107px" viewBox="0 0 144.749 99.107" enable-background="new 0 0 144.749 99.107"
	 xml:space="preserve">
<path fill="#B2B2B2" stroke="#000000" stroke-width="2" d="M4.057,4.058h136.489v90.993H4.057V4.058z"/>
<path fill="#666666" stroke="#000000" stroke-width="2" d="M9.708,89.4l5.651-5.65V15.359h51.292l5.65-5.65H9.708V89.4z"/>
<path fill="#CCCCCC" stroke="#000000" stroke-width="2" d="M72.302,9.708l-5.795,5.65v68.391H15.359L9.708,89.4h62.594V9.708z"/>
<path fill="#666666" stroke="#000000" stroke-width="2" d="M83.749,89.4l5.65-5.65V15.359h39.846l5.651-5.65H83.749V89.4z"/>
<path fill="#CCCCCC" stroke="#000000" stroke-width="2" d="M134.896,9.708l-5.796,5.65v68.391H89.255l-5.651,5.65h51.293V9.708z"/>
<path fill="#FFCC00" stroke="#000000" stroke-width="2" d="M15.359,15.359h51.292v65.492H15.359V15.359z"/>
<path fill="#FFCC00" stroke="#000000" stroke-width="2" d="M89.399,15.359h39.846v65.492H89.399V15.359z"/>
<path fill="none" stroke="#000000" stroke-width="2" d="M89.399,21.155h39.846"/>
<path fill="none" stroke="#000000" stroke-width="2" d="M89.399,27.096h39.846"/>
<path fill="none" stroke="#000000" stroke-width="2" d="M89.399,33.036h39.846"/>
<path fill="none" stroke="#000000" stroke-width="2" d="M89.399,39.121h39.846"/>
<path fill="none" stroke="#000000" stroke-width="2" d="M89.399,45.063h39.846"/>
<path fill="none" stroke="#000000" stroke-width="2" d="M89.399,51.003h39.846"/>
<path fill="none" stroke="#000000" stroke-width="2" d="M89.399,57.088h39.846"/>
<path fill="none" stroke="#000000" stroke-width="2" d="M89.399,63.03h39.846"/>
<path fill="none" stroke="#000000" stroke-width="2" d="M89.399,68.97h39.846"/>
<path fill="none" stroke="#000000" stroke-width="2" d="M89.399,75.055h39.846"/>
<path fill="none" stroke="#000000" stroke-width="2" d="M15.359,21.155h51.292"/>
<path fill="none" stroke="#000000" stroke-width="2" d="M15.359,27.096h51.292"/>
<path fill="none" stroke="#000000" stroke-width="2" d="M15.359,33.036h51.292"/>
<path fill="none" stroke="#000000" stroke-width="2" d="M15.359,39.121h51.292"/>
<path fill="none" stroke="#000000" stroke-width="2" d="M15.359,45.063h51.292"/>
<path fill="none" stroke="#000000" stroke-width="2" d="M15.359,51.003h51.292"/>
<path fill="none" stroke="#000000" stroke-width="2" d="M15.359,57.088h51.292"/>
<path fill="none" stroke="#000000" stroke-width="2" d="M15.359,63.03h51.292"/>
<path fill="none" stroke="#000000" stroke-width="2" d="M15.359,68.97h51.292"/>
<path fill="none" stroke="#000000" stroke-width="2" d="M15.359,75.055h51.292"/>
<path fill="none" stroke="#000000" stroke-width="2" d="M92.152,80.851V15.359"/>
<path fill="none" stroke="#000000" stroke-width="2" d="M94.905,15.359v65.492"/>
<path fill="none" stroke="#000000" stroke-width="2" d="M97.803,80.851V15.359"/>
<path fill="none" stroke="#000000" stroke-width="2" d="M100.701,15.359v65.492"/>
<path fill="none" stroke="#000000" stroke-width="2" d="M103.599,80.851V15.359"/>
<path fill="none" stroke="#000000" stroke-width="2" d="M106.352,15.359v65.492"/>
<path fill="none" stroke="#000000" stroke-width="2" d="M109.25,80.851V15.359"/>
<path fill="none" stroke="#000000" stroke-width="2" d="M112.003,15.359v65.492"/>
<path fill="none" stroke="#000000" stroke-width="2" d="M120.552,80.851V15.359"/>
<path fill="none" stroke="#000000" stroke-width="2" d="M123.449,15.359v65.492"/>
<path fill="none" stroke="#000000" stroke-width="2" d="M126.347,80.851V15.359"/>
<path fill="none" stroke="#000000" stroke-width="2" d="M18.257,80.851V15.359"/>
<path fill="none" stroke="#000000" stroke-width="2" d="M21.154,15.359v65.492"/>
<path fill="none" stroke="#000000" stroke-width="2" d="M23.907,80.851V15.359"/>
<path fill="none" stroke="#000000" stroke-width="2" d="M26.805,15.359v65.492"/>
<path fill="none" stroke="#000000" stroke-width="2" d="M29.703,80.851V15.359"/>
<path fill="none" stroke="#000000" stroke-width="2" d="M32.456,15.359v65.492"/>
<path fill="none" stroke="#000000" stroke-width="2" d="M35.354,80.851V15.359"/>
<path fill="none" stroke="#000000" stroke-width="2" d="M38.107,15.359v65.492"/>
<path fill="none" stroke="#000000" stroke-width="2" d="M41.005,80.851V15.359"/>
<path fill="none" stroke="#000000" stroke-width="2" d="M43.903,15.359v65.492"/>
<path fill="none" stroke="#000000" stroke-width="2" d="M52.452,80.851V15.359"/>
<path fill="none" stroke="#000000" stroke-width="2" d="M55.205,15.359v65.492"/>
<path fill="none" stroke="#000000" stroke-width="2" d="M58.102,80.851V15.359"/>
<path fill="none" stroke="#000000" stroke-width="2" d="M60.855,15.359v65.492"/>
<path fill="none" stroke="#000000" stroke-width="2" d="M63.754,80.851V15.359"/>
<path fill="#999999" stroke="#000000" stroke-width="2" d="M117.799,15.359h-2.753v68.391h2.753V15.359z"/>
<path fill="#999999" stroke="#000000" stroke-width="2" d="M49.553,15.359h-2.897v68.391h2.897V15.359z"/>
<path fill="#4C4C4C" d="M136.925,15.359h1.449v1.449h-1.449V15.359z"/>
<path fill="#4C4C4C" d="M136.925,32.456h1.449v1.449h-1.449V32.456z"/>
<path fill="#4C4C4C" d="M136.925,49.554h1.449v1.449h-1.449V49.554z"/>
<path fill="#4C4C4C" d="M136.925,66.652h1.449v1.304h-1.449V66.652z"/>
<path fill="#4C4C4C" d="M136.925,83.749h1.449v1.304h-1.449V83.749z"/>
<path fill="#4C4C4C" d="M6.23,15.359h1.305v1.449H6.23V15.359z"/>
<path fill="#4C4C4C" d="M6.23,32.456h1.305v1.449H6.23V32.456z"/>
<path fill="#4C4C4C" d="M6.23,49.554h1.305v1.449H6.23V49.554z"/>
<path fill="#4C4C4C" d="M6.23,66.652h1.305v1.304H6.23V66.652z"/>
<path fill="#4C4C4C" d="M6.23,83.749h1.305v1.304H6.23V83.749z"/>
<path fill="#4C4C4C" d="M11.882,6.231h1.448v1.304h-1.448V6.231z"/>
<path fill="#4C4C4C" d="M28.978,6.231h1.305v1.304h-1.305V6.231z"/>
<path fill="#4C4C4C" d="M45.931,6.231h1.449v1.304h-1.449V6.231z"/>
<path fill="#4C4C4C" d="M63.029,6.231h1.448v1.304h-1.448V6.231z"/>
<path fill="#4C4C4C" d="M80.126,6.231h1.449v1.304h-1.449V6.231z"/>
<path fill="#4C4C4C" d="M97.223,6.231h1.449v1.304h-1.449V6.231z"/>
<path fill="#4C4C4C" d="M114.321,6.231h1.304v1.304h-1.304V6.231z"/>
<path fill="#4C4C4C" d="M131.274,6.231h1.448v1.304h-1.448V6.231z"/>
<path fill="#4C4C4C" d="M11.882,91.573h1.448v1.304h-1.448V91.573z"/>
<path fill="#4C4C4C" d="M28.978,91.573h1.305v1.304h-1.305V91.573z"/>
<path fill="#4C4C4C" d="M45.931,91.573h1.449v1.304h-1.449V91.573z"/>
<path fill="#4C4C4C" d="M63.029,91.573h1.448v1.304h-1.448V91.573z"/>
<path fill="#4C4C4C" d="M80.126,91.573h1.449v1.304h-1.449V91.573z"/>
<path fill="#4C4C4C" d="M97.223,91.573h1.449v1.304h-1.449V91.573z"/>
<path fill="#4C4C4C" d="M114.321,91.573h1.304v1.304h-1.304V91.573z"/>
<path fill="#4C4C4C" d="M131.274,91.573h1.448v1.304h-1.448V91.573z"/>
<path fill="#4C4C4C" d="M74.475,15.359h1.449v1.449h-1.449V15.359z"/>
<path fill="#4C4C4C" d="M74.475,32.456h1.449v1.449h-1.449V32.456z"/>
<path fill="#4C4C4C" d="M74.475,49.554h1.449v1.449h-1.449V49.554z"/>
<path fill="#4C4C4C" d="M74.475,66.652h1.449v1.304h-1.449V66.652z"/>
<path fill="#4C4C4C" d="M74.475,83.749h1.449v1.304h-1.449V83.749z"/>
<path fill="#4C4C4C" d="M80.126,15.359h1.449v1.449h-1.449V15.359z"/>
<path fill="#4C4C4C" d="M80.126,32.456h1.449v1.449h-1.449V32.456z"/>
<path fill="#4C4C4C" d="M80.126,49.554h1.449v1.449h-1.449V49.554z"/>
<path fill="#4C4C4C" d="M80.126,66.652h1.449v1.304h-1.449V66.652z"/>
<path fill="#4C4C4C" d="M80.126,83.749h1.449v1.304h-1.449V83.749z"/>
</svg>
