<?xml version="1.0" encoding="utf-8"?>
<!-- Generator: Adobe Illustrator 14.0.0, SVG Export Plug-In . SVG Version: 6.00 Build 43363)  -->
<!DOCTYPE svg PUBLIC "-//W3C//DTD SVG 1.1//EN" "http://www.w3.org/Graphics/SVG/1.1/DTD/svg11.dtd">
<svg version="1.1" id="图层_1" xmlns="http://www.w3.org/2000/svg" xmlns:xlink="http://www.w3.org/1999/xlink" x="0px" y="0px"
	 width="72.993px" height="106.502px" viewBox="0 0 72.993 106.502" enable-background="new 0 0 72.993 106.502"
	 xml:space="preserve">
<path fill="#99CCCC" d="M2.988,2.989h67.017v100.525H2.988V2.989z"/>
<path fill="#94C7C7" d="M2.988,61.895l67.017-42.046v83.665H2.988V61.895z"/>
<path fill="#8FC2C2" d="M2.988,64.456L70.005,22.41v81.104H2.988V64.456z"/>
<path fill="#8ABDBD" d="M2.988,70.752l67.017-42.046v74.808H2.988V70.752z"/>
<path fill="none" stroke="#669999" stroke-width="2" d="M6.937,51.01h61.041V4.909"/>
<path fill="none" stroke="#669999" stroke-width="2" d="M6.937,64.67h61.041"/>
<path fill="#263333" d="M9.178,65.737H63.71v37.244H9.178V65.737z"/>
<path fill="#669999" d="M5.976,2.989h0.96v100.525h-0.96V2.989z"/>
<path fill="none" stroke="#000000" stroke-width="2" d="M6.937,103.514V2.989"/>
<path fill="none" stroke="#000000" stroke-width="2" d="M2.988,2.989h67.017v100.525H2.988V2.989"/>
<path fill="#336666" d="M11.205,61.682h50.263v1.601H11.205V61.682z"/>
<path fill="none" stroke="#CCFFFF" stroke-width="2" d="M11.205,61.682v-8.431h50.263"/>
<path fill="none" stroke="#003333" stroke-width="2" d="M11.205,61.682h50.263v-8.431"/>
<path d="M33.295,7.15h6.296v2.028h-6.296V7.15z"/>
<path fill="#E5E5E5" d="M56.88,63.176h0.96v1.494h-0.96V63.176z"/>
<path fill="#B2B2B2" d="M56.88,62.109h0.96v1.067h-0.96V62.109z"/>
<path fill="none" stroke="#000000" stroke-width="2" d="M13.446,70.005h33.402"/>
<path fill="none" stroke="#000000" stroke-width="2" d="M57.306,72.14H32.122"/>
<path fill="none" stroke="#000000" stroke-width="2" d="M13.446,84.625h14.62"/>
<path fill="none" stroke="#000000" stroke-width="2" d="M19.636,86.866H36.39"/>
<path fill="none" stroke="#000000" stroke-width="2" d="M42.793,93.056h16.755"/>
<path fill="none" stroke="#000000" stroke-width="2" d="M40.552,99.353H23.904"/>
<path fill="none" stroke="#000000" stroke-width="2" d="M55.278,97.324V76.196"/>
<path fill="none" stroke="#000000" stroke-width="2" d="M28.066,90.922V74.167"/>
<path fill="none" stroke="#000000" stroke-width="2" d="M17.608,74.167v-6.189"/>
</svg>
