<?xml version="1.0" encoding="utf-8"?>
<!-- Generator: Adobe Illustrator 14.0.0, SVG Export Plug-In . SVG Version: 6.00 Build 43363)  -->
<!DOCTYPE svg PUBLIC "-//W3C//DTD SVG 1.1//EN" "http://www.w3.org/Graphics/SVG/1.1/DTD/svg11.dtd">
<svg version="1.1" id="图层_1" xmlns="http://www.w3.org/2000/svg" xmlns:xlink="http://www.w3.org/1999/xlink" x="0px" y="0px"
	 width="144.749px" height="97.035px" viewBox="0 0 144.749 97.035" enable-background="new 0 0 144.749 97.035"
	 xml:space="preserve">
<path fill="#CCCCCC" d="M4.061,4.063h133.146v88.764H4.061V4.063z"/>
<path fill="#F2F2F2" d="M4.061,48.59L137.207,4.063V48.59L4.061,92.827V48.59z"/>
<path fill="none" stroke="#000000" stroke-width="2" d="M4.061,4.063h133.146v88.764H4.061V4.063"/>
<path d="M6.672,6.673h127.779v83.397H6.672V6.673z"/>
<path fill="#330000" d="M15.229,15.231h110.954v66.428H15.229V15.231z"/>
<path fill="#3D0000" d="M19,15.231h103.413v66.428H19V15.231z"/>
<path fill="#450000" d="M22.626,15.231h96.016v66.428H22.626V15.231z"/>
<path fill="#4F0000" d="M26.397,15.231h88.328v66.428H26.397V15.231z"/>
<path fill="#570000" d="M30.313,15.231h80.932v66.428H30.313V15.231z"/>
<path fill="#610000" d="M34.084,15.231h73.245v66.428H34.084V15.231z"/>
<path fill="#690300" d="M37.71,15.231h65.848v66.428H37.71V15.231z"/>
<path fill="#730D00" d="M41.481,15.231h58.16v66.428h-58.16V15.231z"/>
<path fill="#7D1700" d="M45.397,15.231h50.764v66.428H45.397V15.231z"/>
<path fill="#851F00" d="M49.168,15.231h43.222v66.428H49.168V15.231z"/>
<path fill="#8F2900" d="M52.939,15.231h35.534v66.428H52.939V15.231z"/>
<path fill="#963000" d="M56.565,15.231h28.138v66.428H56.565V15.231z"/>
<path fill="#A13B08" d="M60.336,15.231h20.741v66.428H60.336V15.231z"/>
<path fill="#A8420F" d="M64.253,15.231h13.053v66.428H64.253V15.231z"/>
<path fill="#B24C19" d="M68.023,15.231h5.512v66.428h-5.512V15.231z"/>
<path fill="#4C4C4C" stroke="#000000" stroke-width="2" d="M12.473,18.567h116.466v2.9H12.473V18.567z"/>
<path fill="#4C4C4C" stroke="#000000" stroke-width="2" d="M12.473,30.605h116.466v2.611H12.473V30.605z"/>
<path fill="#4C4C4C" stroke="#000000" stroke-width="2" d="M12.473,41.483h116.466v2.756H12.473V41.483z"/>
<path fill="#4C4C4C" stroke="#000000" stroke-width="2" d="M12.473,52.651h116.466v2.756H12.473V52.651z"/>
<path fill="#4C4C4C" stroke="#000000" stroke-width="2" d="M12.473,63.673h116.466v2.901H12.473V63.673z"/>
<path fill="#4C4C4C" stroke="#000000" stroke-width="2" d="M12.473,74.841h116.466v2.756H12.473V74.841z"/>
<path fill="#A13B08" d="M12.473,19.582h116.466v0.87H12.473V19.582z"/>
<path fill="#A13B08" d="M12.473,31.33h116.466v0.87H12.473V31.33z"/>
<path fill="#A13B08" d="M12.473,42.498h116.466v0.58H12.473V42.498z"/>
<path fill="#A13B08" d="M12.473,53.811h116.466v0.58H12.473V53.811z"/>
<path fill="#A13B08" d="M12.473,64.689h116.466v0.87H12.473V64.689z"/>
<path fill="#A13B08" d="M12.473,75.857h116.466v0.58H12.473V75.857z"/>
<path fill="#B2B2B2" stroke="#000000" stroke-width="2" d="M137.207,29.735h3.48v37.42h-3.48V29.735z"/>
</svg>
