<?xml version="1.0" encoding="utf-8"?>
<!-- Generator: Adobe Illustrator 14.0.0, SVG Export Plug-In . SVG Version: 6.00 Build 43363)  -->
<!DOCTYPE svg PUBLIC "-//W3C//DTD SVG 1.1//EN" "http://www.w3.org/Graphics/SVG/1.1/DTD/svg11.dtd">
<svg version="1.1" id="图层_1" xmlns="http://www.w3.org/2000/svg" xmlns:xlink="http://www.w3.org/1999/xlink" x="0px" y="0px"
	 width="144.749px" height="84.766px" viewBox="0 0 144.749 84.766" enable-background="new 0 0 144.749 84.766"
	 xml:space="preserve">
<path fill="#F2E5CC" d="M6.665,3.914h131.274v71.143h-4.348l-29.848-56.799v56.799H6.665V3.914z"/>
<path fill="#EDE0C7" d="M137.939,18.693v56.364h-4.348L112.727,35.21L137.939,18.693z"/>
<path fill="#EDE0C7" d="M6.665,54.481l48.395-29.703v50.278H6.665V54.481z"/>
<path fill="#EDE0C7" d="M55.059,54.481l48.395-29.703v50.278H55.059V54.481z"/>
<path fill="#E8DBC2" d="M137.939,21.735v53.321h-4.348l-19.705-37.673L137.939,21.735z"/>
<path fill="#E8DBC2" d="M55.059,57.524l48.395-29.704v47.236H55.059V57.524z"/>
<path fill="#E8DBC2" d="M6.665,57.524l48.395-29.704v47.236H6.665V57.524z"/>
<path fill="#E3D6BD" d="M55.059,61.871l48.395-29.703v42.889H55.059V61.871z"/>
<path fill="#E3D6BD" d="M6.665,61.727l48.395-29.559v42.889H6.665V61.727z"/>
<path fill="#E3D6BD" d="M137.939,25.792v49.264h-4.348L115.48,40.137L137.939,25.792z"/>
<path fill="none" stroke="#FFFFFF" stroke-width="2" d="M100.701,49.41v22.893H60.855"/>
<path fill="none" stroke="#FFFFFF" stroke-width="2" d="M100.701,6.667v39.991H60.855"/>
<path fill="none" stroke="#FFFFFF" stroke-width="2" d="M52.306,6.667v65.636H9.708"/>
<path fill="none" stroke="#FFFFFF" stroke-width="2" d="M120.117,37.094l5.94-5.796l6.086,5.796"/>
<path fill="none" stroke="#FFFFFF" stroke-width="2" d="M19.56,6.667v65.636"/>
<path fill="none" stroke="#FFFFFF" stroke-width="2" d="M18.257,16.519v12.316h-7.245"/>
<path fill="none" stroke="#000000" stroke-width="2" d="M62.159,58.104h5.796v-0.579h-5.796V57.09h5.796v-0.725h-5.796v-0.145h5.796
	v-0.58h-5.796v-0.58h5.796v-0.579h-5.796v-0.146h5.796v-0.579h-5.796v-0.579h5.796v-0.29h-5.796v-0.579h5.796"/>
<path fill="none" stroke="#000000" stroke-width="2" d="M68.969,58.104h5.796v-0.579h-5.796V57.09h5.796v-0.725h-5.796v-0.145h5.796
	v-0.58h-5.796v-0.58h5.796v-0.579h-5.796v-0.146h5.796v-0.579h-5.796v-0.579h5.796v-0.29h-5.796v-0.579h5.796"/>
<path fill="none" stroke="#000000" stroke-width="2" d="M76.069,58.104h5.506v-0.579h-5.506V57.09h5.506v-0.725h-5.506v-0.145h5.506
	v-0.58h-5.506v-0.58h5.506v-0.579h-5.506v-0.146h5.506v-0.579h-5.506v-0.579h5.506v-0.29h-5.506v-0.579h5.506"/>
<path fill="none" stroke="#000000" stroke-width="2" d="M87.081,58.104h5.506v-0.579h-5.506V57.09h5.506v-0.725h-5.506v-0.145h5.506
	v-0.58h-5.506v-0.58h5.506v-0.579h-5.506v-0.146h5.506v-0.579h-5.506v-0.579h5.506v-0.29h-5.506v-0.579h5.506"/>
<path fill="none" stroke="#000000" stroke-width="2" d="M93.891,58.104h5.506v-0.579h-5.506V57.09h5.506v-0.725h-5.506v-0.145h5.506
	v-0.58h-5.506v-0.58h5.506v-0.579h-5.506v-0.146h5.506v-0.579h-5.506v-0.579h5.506v-0.29h-5.506v-0.579h5.506"/>
<path fill="none" stroke="#000000" stroke-width="2" d="M6.665,3.914h131.274v71.143h-4.348l-29.848-56.799v56.799H6.665V3.914"/>
<path fill="none" stroke="#000000" stroke-width="2" d="M103.744,18.258V3.914"/>
<path fill="#CCCCCC" d="M3.912,75.057h136.78v5.65H3.912V75.057z"/>
<path d="M6.665,77.52h1.739v0.725H6.665V77.52z"/>
<path d="M11.011,77.52h1.449v0.725h-1.449V77.52z"/>
<path d="M53.756,76.36h11.446v3.043H53.756V76.36z"/>
<path d="M99.832,76.36h11.592v3.043H99.832V76.36z"/>
<path d="M132.143,77.52h1.448v0.725h-1.448V77.52z"/>
<path d="M136.2,77.52h1.739v0.725H136.2V77.52z"/>
<path fill="#E5E5E5" d="M61.724,40.861h10.577v4.926H61.724V40.861z"/>
<path fill="#FFB27F" d="M61.724,39.557h10.577v1.304H61.724V39.557z"/>
<path fill="none" stroke="#7F7F7F" stroke-width="2" d="M61.724,45.787h10.577v-6.23"/>
<path fill="none" stroke="#BFB299" stroke-width="2" d="M18.257,16.519h-7.245v12.316"/>
<path fill="none" stroke="#BFB299" stroke-width="2" d="M100.701,49.41H60.855v22.893"/>
<path fill="none" stroke="#BFB299" stroke-width="2" d="M52.306,6.667H9.708v65.636"/>
<path fill="none" stroke="#BFB299" stroke-width="2" d="M55.059,75.057V3.914"/>
<path fill="none" stroke="#BFB299" stroke-width="2" d="M100.701,6.667H60.855v39.991"/>
<path fill="none" stroke="#BFB299" stroke-width="2" d="M120.117,37.094l5.94,5.941l6.086-5.941"/>
<path fill="none" stroke="#BFB299" stroke-width="2" d="M20.865,6.667v65.636"/>
<path fill="#998C73" d="M58.102,39.557h2.753v1.304h-2.753V39.557z"/>
<path fill="#998C73" d="M58.102,64.334h2.753v1.449h-2.753V64.334z"/>
<path fill="#998C73" d="M18.981,66.508h2.753v1.449h-2.753V66.508z"/>
<path fill="#998C73" d="M18.981,39.557h2.753v1.304h-2.753V39.557z"/>
<path fill="#998C73" d="M18.981,11.013h2.753v1.449h-2.753V11.013z"/>
<path fill="#998C73" d="M58.102,13.332h2.753v1.304h-2.753V13.332z"/>
<path fill="#998C73" d="M58.102,53.757h2.753v1.304h-2.753V53.757z"/>
<path fill="#D9CCB3" stroke="#000000" stroke-width="2" d="M5.361,5.942h1.304v31.152H5.361V5.942z"/>
<path fill="#D9CCB3" stroke="#000000" stroke-width="2" d="M5.361,38.398h1.304v30.862H5.361V38.398z"/>
<path fill="none" stroke="#665940" stroke-width="2" d="M6.665,5.362h131.274"/>
<path fill="none" stroke="#665940" stroke-width="2" d="M53.756,75.057V5.362"/>
<path fill="#7F7F7F" d="M3.912,79.982h136.78v0.725H3.912V79.982z"/>
<path fill="#7F7F7F" d="M3.912,75.057h136.78v0.869H3.912V75.057z"/>
<path fill="none" stroke="#000000" stroke-width="2" d="M3.912,75.057h136.78v5.65H3.912V75.057"/>
</svg>
