<?xml version="1.0" encoding="utf-8"?>
<!-- Generator: Adobe Illustrator 14.0.0, SVG Export Plug-In . SVG Version: 6.00 Build 43363)  -->
<!DOCTYPE svg PUBLIC "-//W3C//DTD SVG 1.1//EN" "http://www.w3.org/Graphics/SVG/1.1/DTD/svg11.dtd">
<svg version="1.1" id="图层_1" xmlns="http://www.w3.org/2000/svg" xmlns:xlink="http://www.w3.org/1999/xlink" x="0px" y="0px"
	 width="144.749px" height="46.656px" viewBox="0 0 144.749 46.656" enable-background="new 0 0 144.749 46.656"
	 xml:space="preserve">
<path fill="#003300" stroke="#000000" stroke-width="2" d="M17.677,8.839l-1.305,3.622h16.083V8.839H17.677z"/>
<path fill="#003300" d="M4.781,39.556h123.885v2.173H4.781V39.556z"/>
<path fill="#669966" d="M4.781,41.729h123.885v0.725H4.781V41.729z"/>
<path fill="none" stroke="#000000" stroke-width="2" d="M4.781,39.556h123.885v2.897H4.781V39.556"/>
<path fill="#99CC99" d="M32.456,5.361H129.1v34.195H32.456V5.361z"/>
<path fill="#96C996" d="M103.744,29.703L129.1,9.129v30.428h-25.356V29.703z"/>
<path fill="#96C996" d="M92.298,29.703l11.446-14.199v24.053H92.298V29.703z"/>
<path fill="#96C996" d="M66.651,29.703L92.298,9.129v30.428H66.651V29.703z"/>
<path fill="#96C996" d="M49.553,29.703l17.098-14.199v24.053H49.553V29.703z"/>
<path fill="#96C996" d="M32.456,29.703l17.098-14.199v24.053H32.456V29.703z"/>
<path fill="#94C794" d="M32.456,31.008l17.098-14.2v22.749H32.456V31.008z"/>
<path fill="#94C794" d="M49.553,31.008l17.098-14.2v22.749H49.553V31.008z"/>
<path fill="#94C794" d="M66.651,31.008l25.646-20.141v28.689H66.651V31.008z"/>
<path fill="#94C794" d="M92.298,31.008l11.446-14.2v22.749H92.298V31.008z"/>
<path fill="#94C794" d="M103.744,31.008L129.1,10.867v28.689h-25.356V31.008z"/>
<path fill="#91C491" d="M103.744,33.18l25.356-20.14v26.516h-25.356V33.18z"/>
<path fill="#91C491" d="M92.298,33.18l11.446-14.199v20.575H92.298V33.18z"/>
<path fill="#91C491" d="M66.651,33.18l25.646-20.14v26.516H66.651V33.18z"/>
<path fill="#91C491" d="M49.553,33.18l17.098-14.199v20.575H49.553V33.18z"/>
<path fill="#91C491" d="M32.456,33.18l17.098-14.199v20.575H32.456V33.18z"/>
<path fill="none" stroke="#CCFFCC" stroke-width="2" d="M49.844,39.556V5.361"/>
<path fill="none" stroke="#CCFFCC" stroke-width="2" d="M104.034,39.556V5.361"/>
<path fill="none" stroke="#CCFFCC" stroke-width="2" d="M92.732,39.556V5.361"/>
<path fill="none" stroke="#CCFFCC" stroke-width="2" d="M67.086,39.556V5.361"/>
<path fill="none" stroke="#336633" stroke-width="2" d="M103.744,39.556V5.361"/>
<path fill="none" stroke="#336633" stroke-width="2" d="M92.298,39.556V5.361"/>
<path fill="none" stroke="#336633" stroke-width="2" d="M66.796,39.556V5.361"/>
<path fill="none" stroke="#336633" stroke-width="2" d="M49.553,39.556V5.361"/>
<path fill="none" stroke="#000000" stroke-width="2" d="M32.456,5.361H129.1v34.195H32.456V5.361"/>
<path fill="#99CC99" stroke="#000000" stroke-width="2" d="M4.057,12.461h28.398v27.096H4.057V12.461z"/>
<path fill="none" stroke="#000000" stroke-width="2" d="M8.839,14.054H6.23v0.58h2.608v0.579H6.23v0.58h2.608v0.579H6.23v0.435
	h2.608v0.58H6.23v0.579h2.608v0.436H6.23v0.579h2.608v0.579H6.23v0.58h2.608v0.579H6.23v0.436h2.608v0.579H6.23v0.58h2.608v0.579
	H6.23v0.58h2.608v0.435H6.23v0.579h2.608v0.58H6.23v0.435h2.608v0.579H6.23v0.58h2.608v0.579H6.23v0.58h2.608v0.435H6.23v0.579
	h2.608v0.58H6.23v0.579h2.608v0.58H6.23v0.435h2.608v0.579H6.23v0.58h2.608v0.579H6.23v0.435h2.608v0.58H6.23v0.579h2.608v0.58H6.23
	v0.435h2.608v0.579H6.23v0.58h2.608v0.579H6.23v0.58h2.608v0.435H6.23"/>
<path fill="none" stroke="#000000" stroke-width="2" d="M13.33,14.054h-2.753v0.58h2.753v0.579h-2.753v0.58h2.753v0.579h-2.753
	v0.435h2.753v0.58h-2.753v0.579h2.753v0.436h-2.753v0.579h2.753v0.579h-2.753v0.58h2.753v0.579h-2.753v0.436h2.753v0.579h-2.753
	v0.58h2.753v0.579h-2.753v0.58h2.753v0.435h-2.753v0.579h2.753v0.58h-2.753v0.435h2.753v0.579h-2.753v0.58h2.753v0.579h-2.753v0.58
	h2.753v0.435h-2.753v0.579h2.753v0.58h-2.753v0.579h2.753v0.58h-2.753v0.435h2.753v0.579h-2.753v0.58h2.753v0.579h-2.753v0.435
	h2.753v0.58h-2.753v0.579h2.753v0.58h-2.753v0.435h2.753v0.579h-2.753v0.58h2.753v0.579h-2.753v0.58h2.753v0.435h-2.753"/>
<path fill="none" stroke="#000000" stroke-width="2" d="M17.677,14.054h-3.043v0.58h3.043v0.579h-3.043v0.58h3.043v0.579h-3.043
	v0.435h3.043v0.58h-3.043v0.579h3.043v0.436h-3.043v0.579h3.043v0.579h-3.043v0.58h3.043v0.579h-3.043v0.436h3.043v0.579h-3.043
	v0.58h3.043v0.579h-3.043v0.58h3.043v0.435h-3.043v0.579h3.043v0.58h-3.043v0.435h3.043v0.579h-3.043v0.58h3.043v0.579h-3.043v0.58
	h3.043v0.435h-3.043v0.579h3.043v0.58h-3.043v0.579h3.043v0.58h-3.043v0.435h3.043v0.579h-3.043v0.58h3.043v0.579h-3.043v0.435
	h3.043v0.58h-3.043v0.579h3.043v0.58h-3.043v0.435h3.043v0.579h-3.043v0.58h3.043v0.579h-3.043v0.58h3.043v0.435h-3.043"/>
<path fill="none" stroke="#000000" stroke-width="2" d="M21.734,14.054h-2.753v0.58h2.753v0.579h-2.753v0.58h2.753v0.579h-2.753
	v0.435h2.753v0.58h-2.753v0.579h2.753v0.436h-2.753v0.579h2.753v0.579h-2.753v0.58h2.753v0.579h-2.753v0.436h2.753v0.579h-2.753
	v0.58h2.753v0.579h-2.753v0.58h2.753v0.435h-2.753v0.579h2.753v0.58h-2.753v0.435h2.753v0.579h-2.753v0.58h2.753v0.579h-2.753v0.58
	h2.753v0.435h-2.753v0.579h2.753v0.58h-2.753v0.579h2.753v0.58h-2.753v0.435h2.753v0.579h-2.753v0.58h2.753v0.579h-2.753v0.435
	h2.753v0.58h-2.753v0.579h2.753v0.58h-2.753v0.435h2.753v0.579h-2.753v0.58h2.753v0.579h-2.753v0.58h2.753v0.435h-2.753"/>
<path fill="none" stroke="#000000" stroke-width="2" d="M26.081,14.054h-3.043v0.58h3.043v0.579h-3.043v0.58h3.043v0.579h-3.043
	v0.435h3.043v0.58h-3.043v0.579h3.043v0.436h-3.043v0.579h3.043v0.579h-3.043v0.58h3.043v0.579h-3.043v0.436h3.043v0.579h-3.043
	v0.58h3.043v0.579h-3.043v0.58h3.043v0.435h-3.043v0.579h3.043v0.58h-3.043v0.435h3.043v0.579h-3.043v0.58h3.043v0.579h-3.043v0.58
	h3.043v0.435h-3.043v0.579h3.043v0.58h-3.043v0.579h3.043v0.58h-3.043v0.435h3.043v0.579h-3.043v0.58h3.043v0.579h-3.043v0.435
	h3.043v0.58h-3.043v0.579h3.043v0.58h-3.043v0.435h3.043v0.579h-3.043v0.58h3.043v0.579h-3.043v0.58h3.043v0.435h-3.043"/>
<path fill="none" stroke="#000000" stroke-width="2" d="M30.137,14.054H27.53v0.58h2.607v0.579H27.53v0.58h2.607v0.579H27.53v0.435
	h2.607v0.58H27.53v0.579h2.607v0.436H27.53v0.579h2.607v0.579H27.53v0.58h2.607v0.579H27.53v0.436h2.607v0.579H27.53v0.58h2.607
	v0.579H27.53v0.58h2.607v0.435H27.53v0.579h2.607v0.58H27.53v0.435h2.607v0.579H27.53v0.58h2.607v0.579H27.53v0.58h2.607v0.435
	H27.53v0.579h2.607v0.58H27.53v0.579h2.607v0.58H27.53v0.435h2.607v0.579H27.53v0.58h2.607v0.579H27.53v0.435h2.607v0.58H27.53
	v0.579h2.607v0.58H27.53v0.435h2.607v0.579H27.53v0.58h2.607v0.579H27.53v0.58h2.607v0.435H27.53"/>
<path fill="#99CC99" stroke="#000000" stroke-width="2" d="M140.547,19.56l-7.824-11.156H129.1V19.56H140.547z"/>
<path fill="#99CC99" stroke="#000000" stroke-width="2" d="M133.447,33.76l-2.897-4.058H129.1v4.058H133.447z"/>
<path fill="#99CC99" stroke="#000000" stroke-width="2" d="M90.848,5.361V4.057l-1.304,1.304H90.848z"/>
<path fill="none" stroke="#CCFFCC" stroke-width="2" d="M51.003,11.157V6.23h15.068"/>
<path fill="none" stroke="#CCFFCC" stroke-width="2" d="M51.003,18.981v-7.1h15.068"/>
<path fill="none" stroke="#CCFFCC" stroke-width="2" d="M51.003,33.18V19.56h15.068"/>
<path fill="none" stroke="#CCFFCC" stroke-width="2" d="M51.003,38.976V33.76h15.068"/>
<path fill="none" stroke="#336633" stroke-width="2" d="M51.003,38.976h15.068V33.76"/>
<path fill="none" stroke="#336633" stroke-width="2" d="M51.003,33.18h15.068V19.56"/>
<path fill="none" stroke="#336633" stroke-width="2" d="M51.003,18.981h15.068v-7.1"/>
<path fill="none" stroke="#336633" stroke-width="2" d="M51.003,11.157h15.068V6.23"/>
<path fill="#E5FFE5" d="M55.349,12.461v2.174h6.23v-2.174H55.349z"/>
<path fill="#003300" d="M56.653,15.504v1.304h3.623v-1.304H56.653z"/>
<path fill="#003300" d="M63.754,34.63v0.725h1.448V34.63H63.754z"/>
<path fill="#003300" d="M90.124,22.603v0.435h1.304v-0.435H90.124z"/>
</svg>
