<?xml version="1.0" encoding="utf-8"?>
<!-- Generator: Adobe Illustrator 14.0.0, SVG Export Plug-In . SVG Version: 6.00 Build 43363)  -->
<!DOCTYPE svg PUBLIC "-//W3C//DTD SVG 1.1//EN" "http://www.w3.org/Graphics/SVG/1.1/DTD/svg11.dtd">
<svg version="1.1" id="图层_1" xmlns="http://www.w3.org/2000/svg" xmlns:xlink="http://www.w3.org/1999/xlink" x="0px" y="0px"
	 width="39.441px" height="106.502px" viewBox="0 0 39.441 106.502" enable-background="new 0 0 39.441 106.502"
	 xml:space="preserve">
<path fill="#99CCCC" stroke="#000000" stroke-width="2" d="M2.985,2.99h33.473v100.416H2.985V2.99z"/>
<path fill="#FFFFFF" stroke="#000000" stroke-width="2" d="M8.421,101.274l-1.279-1.279v-1.599l1.279-1.173h1.813l1.173,1.173v1.599
	l-1.173,1.279H8.421z"/>
<path fill="#FFFFFF" stroke="#000000" stroke-width="2" d="M29.315,101.274l-1.279-1.279v-1.599l1.279-1.173h1.813l1.172,1.173
	v1.599l-1.172,1.279H29.315z"/>
<path fill="#FFFFFF" stroke="#000000" stroke-width="2" d="M8.421,85.924l-1.279-1.173v-1.813l1.279-1.172h1.813l1.173,1.172v1.813
	l-1.173,1.173H8.421z"/>
<path fill="#FFFFFF" stroke="#000000" stroke-width="2" d="M29.528,85.924l-1.492-1.173v-1.813l1.492-1.172h1.6l1.172,1.172v1.813
	l-1.172,1.173H29.528z"/>
<path fill="#FFFFFF" stroke="#000000" stroke-width="2" d="M8.421,70.467l-1.279-1.173v-1.599l1.279-1.279h1.813l1.173,1.279v1.599
	l-1.173,1.173H8.421z"/>
<path fill="#FFFFFF" stroke="#000000" stroke-width="2" d="M29.528,70.467l-1.492-1.173v-1.599l1.492-1.279h1.6l1.172,1.279v1.599
	l-1.172,1.173H29.528z"/>
<path fill="#FFFFFF" stroke="#000000" stroke-width="2" d="M8.421,55.223l-1.279-1.172v-1.813l1.279-1.279h1.813l1.173,1.279v1.813
	l-1.173,1.172H8.421z"/>
<path fill="#FFFFFF" stroke="#000000" stroke-width="2" d="M29.528,55.223l-1.492-1.172v-1.813l1.492-1.279h1.6l1.172,1.279v1.813
	l-1.172,1.172H29.528z"/>
<path fill="#FFFFFF" stroke="#000000" stroke-width="2" d="M8.421,39.98L7.142,38.7v-1.813l1.279-1.172h1.813l1.173,1.172V38.7
	l-1.173,1.279H8.421z"/>
<path fill="#FFFFFF" stroke="#000000" stroke-width="2" d="M29.528,39.98L28.035,38.7v-1.813l1.492-1.172h1.6l1.172,1.172V38.7
	l-1.172,1.279H29.528z"/>
<path fill="#FFFFFF" stroke="#000000" stroke-width="2" d="M8.421,24.416l-1.279-1.173v-1.599l1.279-1.386h1.813l1.173,1.386v1.599
	l-1.173,1.173H8.421z"/>
<path fill="#FFFFFF" stroke="#000000" stroke-width="2" d="M29.528,24.416l-1.492-1.173v-1.599l1.492-1.386h1.6l1.172,1.386v1.599
	l-1.172,1.173H29.528z"/>
<path fill="#FFFFFF" stroke="#000000" stroke-width="2" d="M8.421,9.172L7.142,8V6.188l1.279-1.279h1.813l1.173,1.279V8
	l-1.173,1.172H8.421z"/>
<path fill="#FFFFFF" stroke="#000000" stroke-width="2" d="M29.315,9.172L28.035,8V6.188l1.279-1.279h1.813l1.172,1.279V8
	l-1.172,1.172H29.315z"/>
</svg>
