<?xml version="1.0" encoding="utf-8"?>
<!-- Generator: Adobe Illustrator 14.0.0, SVG Export Plug-In . SVG Version: 6.00 Build 43363)  -->
<!DOCTYPE svg PUBLIC "-//W3C//DTD SVG 1.1//EN" "http://www.w3.org/Graphics/SVG/1.1/DTD/svg11.dtd">
<svg version="1.1" id="图层_1" xmlns="http://www.w3.org/2000/svg" xmlns:xlink="http://www.w3.org/1999/xlink" x="0px" y="0px"
	 width="56.182px" height="106.502px" viewBox="0 0 56.182 106.502" enable-background="new 0 0 56.182 106.502"
	 xml:space="preserve">
<path fill="#7F1900" stroke="#000000" stroke-width="2" d="M11.3,74.093H5.011V21.856h8.422v-2.132H2.985v56.501H11.3V74.093z"/>
<path fill="none" stroke="#FFCC00" stroke-width="2" d="M13.433,20.789H4.051v54.369H11.3"/>
<path fill="#999999" d="M30.169,2.987v2.025h8.422V2.987H30.169z"/>
<path fill="#CCCCCC" d="M31.769,2.987v2.025h5.224V2.987H31.769z"/>
<path fill="#FFFFFF" d="M33.794,2.987v2.025h1.066V2.987H33.794z"/>
<path fill="none" stroke="#000000" stroke-width="2" d="M30.169,2.987v2.025h8.422V2.987H30.169"/>
<path fill="#4C4C4C" d="M44.881,41.152v3.624h6.29v-3.624H44.881z"/>
<path fill="#4C4C4C" d="M13.433,41.152v3.624h6.289v-3.624H13.433z"/>
<path fill="#7F7F7F" d="M46.054,41.152v3.624h3.944v-3.624H46.054z"/>
<path fill="#7F7F7F" d="M14.605,41.152v3.624h3.944v-3.624H14.605z"/>
<path fill="#7F7F7F" d="M28.144,41.152v3.624h6.184v-3.624H28.144z"/>
<path fill="#B2B2B2" d="M29.317,41.152v3.624h3.838v-3.624H29.317z"/>
<path fill="#B2B2B2" d="M47.654,41.152v3.624H48.4v-3.624H47.654z"/>
<path fill="#B2B2B2" d="M16.204,41.152v3.624h0.746v-3.624H16.204z"/>
<path fill="#999999" stroke="#000000" stroke-width="2" d="M53.197,99.252V44.776H11.3v54.477l0.106,0.426l2.452,1.6l3.625,0.959
	l3.092,0.533l3.518,0.32l3.944,0.213l4.265,0.106l4.157-0.106l3.944-0.213l3.519-0.32l3.198-0.533l3.518-0.959l2.452-1.6
	L53.197,99.252z"/>
<path fill="#ABABAB" d="M50.531,101.064V44.776H14.073v56.288l5.224,1.279l6.183,0.747l6.823,0.319l6.822-0.319l6.184-0.747
	L50.531,101.064z"/>
<path fill="#B8B8B8" d="M47.866,101.703V44.776H16.738v56.928l9.701,1.493l5.863,0.213l5.863-0.213L47.866,101.703z"/>
<path fill="#C4C4C4" d="M45.201,102.237V44.776H19.403v57.461l8.102,0.96l4.798,0.213l4.797-0.213L45.201,102.237z"/>
<path fill="#D1D1D1" d="M42.429,102.557V44.776H22.068v57.781l6.396,0.64l3.838,0.213l3.838-0.213L42.429,102.557z"/>
<path fill="#DEDEDE" d="M39.764,102.983V44.776H24.839v58.207l7.463,0.427L39.764,102.983z"/>
<path fill="#EBEBEB" d="M37.099,102.876V44.776h-9.595v58.101l1.386,0.214l3.412,0.319l3.411-0.319L37.099,102.876z"/>
<path fill="#F7F7F7" d="M34.327,103.197V44.776h-4.158v58.421h0.107h0.532l0.64,0.106l0.854,0.106l0.746-0.106l0.746-0.106h0.427
	H34.327z"/>
<path fill="#4C4C4C" d="M11.3,44.776h41.896v2.133H11.3V44.776z"/>
<path fill="#4C4C4C" d="M53.197,99.252v-2.133l-0.106,0.427l-2.452,1.6l-3.518,0.959l-3.198,0.533l-3.519,0.319l-3.944,0.214
	l-4.157,0.106l-4.265-0.106l-3.944-0.214l-3.518-0.319l-3.092-0.533l-3.625-0.959l-2.452-1.6L11.3,97.119v2.133l0.106,0.426
	l2.452,1.6l3.625,0.959l3.092,0.533l3.518,0.32l3.944,0.213l2.132,0.106h2.133h2.132l4.051-0.213l3.731-0.214l3.305-0.532
	l2.879-0.533l3.198-1.066l1.492-1.173L53.197,99.252z"/>
<path fill="#E5E5E5" d="M30.809,41.152v3.624h0.854v-3.624H30.809z"/>
<path fill="#CCCCCC" stroke="#000000" stroke-width="2" d="M11.3,40.618h37.739V30.171l1.492-2.133V13.434h1.599V5.118H17.59v8.315
	h-4.157v14.604L11.3,30.171V40.618z"/>
<path fill="#E5E5E5" stroke="#000000" stroke-width="2" d="M11.3,30.171h37.739l1.492-2.133H13.433L11.3,30.171z"/>
<path fill="#B2B2B2" stroke="#000000" stroke-width="2" d="M49.039,40.618l4.157,0.533V5.118H52.13v8.315h-1.599v14.604
	l-1.492,2.133V40.618z"/>
<path fill="none" stroke="#000000" stroke-width="2" d="M17.59,13.434h33.581"/>
<path fill="#E5E5E5" d="M15.565,16.526h14.604v8.422H15.565V16.526z"/>
<path fill="none" stroke="#7F7F7F" stroke-width="2" d="M15.565,24.948h14.604v-8.422"/>
<path d="M53.197,41.152l-4.157-0.533H11.3v0.533H53.197z"/>
<path fill="#999999" d="M18.123,14.499h28.783v1.066H18.123V14.499z"/>
<path fill="#999999" d="M18.123,26.013h28.783v1.066H18.123V26.013z"/>
<ellipse fill="#333333" cx="16.844" cy="90.83" rx="3.944" ry="6.716"/>
<path fill="#7F1900" stroke="#000000" stroke-width="2" d="M11.3,82.515H8.208V36.46H11.3v-2.132H6.076V84.54H11.3V82.515z"/>
<path fill="none" stroke="#FFCC00" stroke-width="2" d="M11.3,35.395H7.143V83.58H11.3"/>
</svg>
