<?xml version="1.0" encoding="utf-8"?>
<!-- Generator: Adobe Illustrator 14.0.0, SVG Export Plug-In . SVG Version: 6.00 Build 43363)  -->
<!DOCTYPE svg PUBLIC "-//W3C//DTD SVG 1.1//EN" "http://www.w3.org/Graphics/SVG/1.1/DTD/svg11.dtd">
<svg version="1.1" id="图层_1" xmlns="http://www.w3.org/2000/svg" xmlns:xlink="http://www.w3.org/1999/xlink" x="0px" y="0px"
	 width="97.013px" height="106.502px" viewBox="0 0 97.013 106.502" enable-background="new 0 0 97.013 106.502"
	 xml:space="preserve">
<path fill="#B2B2B2" stroke="#000000" stroke-width="2" d="M6.077,65.884l21.961-3.198h25.159l21.854,3.198H6.077z"/>
<path fill="#CCCCCC" d="M2.879,65.884h75.478v37.633H2.879V65.884z"/>
<path fill="#C7C7C7" d="M2.879,92.643l75.478-15.885v26.759H2.879V92.643z"/>
<path fill="#C2C2C2" d="M2.879,94.241l75.478-15.884v25.159H2.879V94.241z"/>
<path fill="#BDBDBD" d="M2.879,96.374l75.478-15.672v22.814H2.879V96.374z"/>
<path fill="#B2B2B2" stroke="#000000" stroke-width="2" d="M78.356,100.212h6.184l9.488-28.145H78.356V100.212z"/>
<path fill="#CCCCCC" stroke="#000000" stroke-width="2" d="M28.038,65.884h25.159v-6.503H28.038V65.884z"/>
<path fill="#999999" d="M31.236,59.381l-3.198-9.382V31.343l6.29-12.686V2.879h12.579v15.778l6.29,12.686v18.656l-3.198,9.382
	H31.236z"/>
<path fill="#A6A6A6" d="M32.728,59.381l-2.878-9.382V31.13l5.437-12.473V2.879h10.661v15.778l5.437,12.473v18.869l-2.665,9.382
	H32.728z"/>
<path fill="#B2B2B2" d="M34.114,59.381l-2.451-9.382V31.13l4.584-12.473V2.879h8.848v15.778l4.478,12.473v18.869l-2.238,9.382
	H34.114z"/>
<path fill="#BFBFBF" d="M35.287,59.381l-1.813-9.382V31.13l3.625-12.473V2.879h7.036v15.778L47.76,31.13v18.869l-1.813,9.382H35.287
	z"/>
<path fill="#CCCCCC" d="M36.673,59.381l-1.172-9.382V31.13l2.559-12.473V2.879h5.224v15.778l2.665,12.473v18.869l-1.386,9.382
	H36.673z"/>
<path fill="#D9D9D9" d="M38.059,59.381l-0.747-9.382V31.13l1.6-12.473V2.879h3.411v15.778l1.6,12.473v18.869l-0.747,9.382H38.059z"
	/>
<path fill="#E5E5E5" d="M39.552,59.381l-0.427-9.382V31.343l0.746-12.686V2.879h1.493v15.778l0.746,12.686v18.656l-0.427,9.382
	H39.552z"/>
<path fill="none" stroke="#7F7F7F" stroke-width="2" d="M28.784,31.343h23.561"/>
<path fill="none" stroke="#7F7F7F" stroke-width="2" d="M28.784,49.999h23.561"/>
<ellipse fill="#666666" stroke="#000000" stroke-width="2" cx="40.618" cy="38.273" rx="4.69" ry="10.98"/>
<path fill="none" stroke="#000000" stroke-width="2" d="M31.236,59.381l-3.198-9.382V31.343l6.29-12.686V2.879h12.579v15.778
	l6.29,12.686v18.656l-3.198,9.382H31.236"/>
<path fill="none" stroke="#000000" stroke-width="2" d="M32.728,2.879H48.4"/>
<path fill="none" stroke="#000000" stroke-width="2" d="M32.728,17.058H48.4"/>
<path fill="none" stroke="#000000" stroke-width="2" d="M34.328,18.657h12.579"/>
<path fill="none" stroke="#000000" stroke-width="2" d="M2.879,68.869h75.478"/>
<path fill="none" stroke="#000000" stroke-width="2" d="M6.077,100.212h3.092"/>
<path fill="none" stroke="#000000" stroke-width="2" d="M72.066,100.212h2.985"/>
<path fill="none" stroke="#000000" stroke-width="2" d="M2.879,65.884h75.478v37.633H2.879V65.884"/>
<path fill="none" stroke="#000000" stroke-width="2" d="M28.038,61.087h25.159"/>
</svg>
