<?xml version="1.0" encoding="utf-8"?>
<!-- Generator: Adobe Illustrator 14.0.0, SVG Export Plug-In . SVG Version: 6.00 Build 43363)  -->
<!DOCTYPE svg PUBLIC "-//W3C//DTD SVG 1.1//EN" "http://www.w3.org/Graphics/SVG/1.1/DTD/svg11.dtd">
<svg version="1.1" id="图层_1" xmlns="http://www.w3.org/2000/svg" xmlns:xlink="http://www.w3.org/1999/xlink" x="0px" y="0px"
	 width="74.52px" height="106.502px" viewBox="0 0 74.52 106.502" enable-background="new 0 0 74.52 106.502" xml:space="preserve">
<path d="M2.985,101.066h68.443v2.345H2.985V101.066z"/>
<path fill="#F2F2F2" d="M2.985,2.985h68.336v97.867H2.985V2.985z"/>
<path fill="#F0F0F0" d="M2.985,55.864l68.336-40.299v85.287H2.985V55.864z"/>
<path fill="#EDEDED" d="M2.985,60.66l68.443-40.404v80.596H2.985V60.66z"/>
<path fill="#EBEBEB" d="M2.985,65.244l68.443-40.618v76.226H2.985V65.244z"/>
<path fill="#E8E8E8" d="M2.985,69.722l68.443-40.404v71.534H2.985V69.722z"/>
<path fill="#E5E5E5" d="M2.985,74.093l68.443-40.404v67.163H2.985V74.093z"/>
<path fill="#E3E3E3" d="M2.985,78.677l68.443-40.298v62.473H2.985V78.677z"/>
<path fill="#E0E0E0" d="M2.985,83.155L71.428,42.75v58.102H2.985V83.155z"/>
<path fill="#DEDEDE" d="M2.985,87.526l68.443-40.298v53.624H2.985V87.526z"/>
<path fill="#DBDBDB" d="M2.985,92.217l68.443-40.405v49.04H2.985V92.217z"/>
<path fill="#D9D9D9" d="M2.985,96.588l68.336-40.405v44.669H2.985V96.588z"/>
<path fill="#4C4C4C" d="M2.985,7.782h68.443v9.808H2.985V7.782z"/>
<path fill="none" stroke="#000000" stroke-width="2" d="M2.985,2.985h68.336v97.867H2.985V2.985"/>
<path fill="#E5E5E5" d="M51.812,9.808h17.271v5.971H51.812V9.808z"/>
<path fill="none" stroke="#000000" stroke-width="2" d="M55.756,15.245l-1.386-1.6v-1.813l1.386-1.599h2.025l1.387,1.599v1.813
	l-1.387,1.6H55.756"/>
<path fill="none" stroke="#000000" stroke-width="2" d="M63.219,15.245l-1.6-1.6v-1.813l1.6-1.599h1.813l1.6,1.599v1.813l-1.6,1.6
	H63.219"/>
<path fill="#CCCCCC" d="M5.331,9.808h2.452v3.625H5.331V9.808z"/>
</svg>
