<?xml version="1.0" encoding="utf-8"?>
<!-- Generator: Adobe Illustrator 14.0.0, SVG Export Plug-In . SVG Version: 6.00 Build 43363)  -->
<!DOCTYPE svg PUBLIC "-//W3C//DTD SVG 1.1//EN" "http://www.w3.org/Graphics/SVG/1.1/DTD/svg11.dtd">
<svg version="1.1" id="图层_1" xmlns="http://www.w3.org/2000/svg" xmlns:xlink="http://www.w3.org/1999/xlink" x="0px" y="0px"
	 width="110.599px" height="106.502px" viewBox="0 0 110.599 106.502" enable-background="new 0 0 110.599 106.502"
	 xml:space="preserve">
<path fill="#B2B2B2" d="M76.245,19.728V5.1l2.105-1.995h12.522v12.522l-2.105,2.105v1.995H76.245z"/>
<path fill="#B2B2B2" d="M59.511,19.728V5.1l2.105-1.995H74.14v12.522l-2.105,2.105v1.995H59.511z"/>
<path fill="#B2B2B2" d="M55.3,19.728V5.1l-2.106-1.995H40.671v12.522l2.105,2.105v1.995H55.3z"/>
<path fill="#B2B2B2" d="M38.565,19.728V5.1L36.46,3.105H23.938v12.522l2.105,2.105v1.995H38.565z"/>
<path fill="#7F7F7F" d="M23.938,15.627l2.105,2.105H36.46v-2.105H23.938z"/>
<path fill="#7F7F7F" d="M40.671,15.627l2.105,2.105h10.417v-2.105H40.671z"/>
<path fill="#7F7F7F" d="M90.873,15.627l-2.105,2.105H78.351v-2.105H90.873z"/>
<path fill="#7F7F7F" d="M74.14,15.627l-2.105,2.105H61.616v-2.105H74.14z"/>
<path fill="#4C4C4C" d="M90.873,3.105H78.351v12.522h12.522V3.105z"/>
<path fill="#4C4C4C" d="M74.14,3.105H61.616v12.522H74.14V3.105z"/>
<path fill="#4C4C4C" d="M40.671,3.105h12.522v12.522H40.671V3.105z"/>
<path fill="#4C4C4C" d="M23.938,3.105H36.46v12.522H23.938V3.105z"/>
<path fill="none" stroke="#B2B2B2" stroke-width="2" d="M23.938,13.522H36.46"/>
<path fill="none" stroke="#B2B2B2" stroke-width="2" d="M36.46,10.751H23.938"/>
<path fill="none" stroke="#B2B2B2" stroke-width="2" d="M36.46,7.87H23.938"/>
<path fill="none" stroke="#B2B2B2" stroke-width="2" d="M36.46,5.1H23.938"/>
<path fill="none" stroke="#B2B2B2" stroke-width="2" d="M40.671,13.522h12.522"/>
<path fill="none" stroke="#B2B2B2" stroke-width="2" d="M53.194,10.751H40.671"/>
<path fill="none" stroke="#B2B2B2" stroke-width="2" d="M53.194,7.87H40.671"/>
<path fill="none" stroke="#B2B2B2" stroke-width="2" d="M53.194,5.1H40.671"/>
<path fill="none" stroke="#B2B2B2" stroke-width="2" d="M90.873,13.522H78.351"/>
<path fill="none" stroke="#B2B2B2" stroke-width="2" d="M78.351,10.751h12.522"/>
<path fill="none" stroke="#B2B2B2" stroke-width="2" d="M78.351,7.87h12.522"/>
<path fill="none" stroke="#B2B2B2" stroke-width="2" d="M78.351,5.1h12.522"/>
<path fill="none" stroke="#B2B2B2" stroke-width="2" d="M74.14,13.522H61.616"/>
<path fill="none" stroke="#B2B2B2" stroke-width="2" d="M61.616,10.751H74.14"/>
<path fill="none" stroke="#B2B2B2" stroke-width="2" d="M61.616,7.87H74.14"/>
<path fill="none" stroke="#B2B2B2" stroke-width="2" d="M61.616,5.1H74.14"/>
<path fill="#CCCCCC" d="M7.203,23.939h100.293v79.459H7.203V23.939z"/>
<path fill="#C7C7C7" d="M7.203,80.347l100.293-33.246v56.297H7.203V80.347z"/>
<path fill="#C2C2C2" d="M7.203,83.671l100.293-33.135v52.861H7.203V83.671z"/>
<path fill="#BDBDBD" d="M7.203,88.548l100.293-33.247v48.097H7.203V88.548z"/>
<path fill="none" stroke="#000000" stroke-width="2" d="M7.203,23.939h100.293v79.459H7.203V23.939"/>
<path fill="none" stroke="#7F7F7F" stroke-width="2" d="M7.203,101.292h100.293"/>
<path fill="none" stroke="#7F7F7F" stroke-width="2" d="M74.14,23.939v54.413"/>
<path fill="none" stroke="#7F7F7F" stroke-width="2" d="M40.671,23.939v54.413"/>
<path fill="none" stroke="#7F7F7F" stroke-width="2" d="M7.203,78.352h100.293"/>
<path fill="none" stroke="#7F7F7F" stroke-width="2" d="M7.203,80.347h100.293"/>
<path fill="#B2B2B2" stroke="#000000" stroke-width="2" d="M3.103,82.452h4.1v14.629h-4.1V82.452z"/>
<path fill="#999999" stroke="#000000" stroke-width="2" d="M76.245,82.452h29.256v16.734H76.245V82.452z"/>
<path fill="#999999" stroke="#000000" stroke-width="2" d="M42.777,82.452h29.257v16.734H42.777V82.452z"/>
<path fill="#999999" stroke="#000000" stroke-width="2" d="M9.309,82.452h29.256v16.734H9.309V82.452z"/>
<path fill="none" stroke="#000000" stroke-width="2" d="M76.245,82.452l16.623,16.734"/>
<path fill="none" stroke="#000000" stroke-width="2" d="M76.245,90.875l8.311,8.312"/>
<path fill="none" stroke="#000000" stroke-width="2" d="M84.556,82.452l16.734,16.734"/>
<path fill="none" stroke="#000000" stroke-width="2" d="M92.868,82.452l12.633,12.522"/>
<path fill="none" stroke="#000000" stroke-width="2" d="M101.29,82.452l4.211,4.211"/>
<path fill="none" stroke="#000000" stroke-width="2" d="M78.351,82.452l16.623,16.734"/>
<path fill="none" stroke="#000000" stroke-width="2" d="M76.245,88.769l10.417,10.418"/>
<path fill="none" stroke="#000000" stroke-width="2" d="M76.245,97.081l2.105,2.105"/>
<path fill="none" stroke="#000000" stroke-width="2" d="M86.662,82.452l16.733,16.734"/>
<path fill="none" stroke="#000000" stroke-width="2" d="M94.974,82.452l10.527,10.417"/>
<path fill="none" stroke="#000000" stroke-width="2" d="M103.396,82.452l2.105,2.105"/>
<path fill="none" stroke="#000000" stroke-width="2" d="M80.345,82.452l16.734,16.734"/>
<path fill="none" stroke="#000000" stroke-width="2" d="M76.245,86.663l12.522,12.523"/>
<path fill="none" stroke="#000000" stroke-width="2" d="M76.245,94.975l4.1,4.212"/>
<path fill="none" stroke="#000000" stroke-width="2" d="M88.768,82.452l16.733,16.734"/>
<path fill="none" stroke="#000000" stroke-width="2" d="M97.079,82.452l8.422,8.423"/>
<path fill="none" stroke="#000000" stroke-width="2" d="M82.45,82.452l16.734,16.734"/>
<path fill="none" stroke="#000000" stroke-width="2" d="M76.245,84.558l14.628,14.629"/>
<path fill="none" stroke="#000000" stroke-width="2" d="M76.245,92.869l6.205,6.317"/>
<path fill="none" stroke="#000000" stroke-width="2" d="M90.873,82.452l14.628,14.629"/>
<path fill="none" stroke="#000000" stroke-width="2" d="M99.185,82.452l6.316,6.316"/>
<path fill="none" stroke="#000000" stroke-width="2" d="M105.501,82.452L88.768,99.187"/>
<path fill="none" stroke="#000000" stroke-width="2" d="M105.501,90.875l-8.422,8.312"/>
<path fill="none" stroke="#000000" stroke-width="2" d="M97.079,82.452L80.345,99.187"/>
<path fill="none" stroke="#000000" stroke-width="2" d="M88.768,82.452L76.245,94.975"/>
<path fill="none" stroke="#000000" stroke-width="2" d="M80.345,82.452l-4.1,4.211"/>
<path fill="none" stroke="#000000" stroke-width="2" d="M103.396,82.452L86.662,99.187"/>
<path fill="none" stroke="#000000" stroke-width="2" d="M105.501,88.769L94.974,99.187"/>
<path fill="none" stroke="#000000" stroke-width="2" d="M105.501,97.081l-2.105,2.105"/>
<path fill="none" stroke="#000000" stroke-width="2" d="M94.974,82.452L78.351,99.187"/>
<path fill="none" stroke="#000000" stroke-width="2" d="M86.662,82.452L76.245,92.869"/>
<path fill="none" stroke="#000000" stroke-width="2" d="M78.351,82.452l-2.105,2.105"/>
<path fill="none" stroke="#000000" stroke-width="2" d="M101.29,82.452L84.556,99.187"/>
<path fill="none" stroke="#000000" stroke-width="2" d="M105.501,86.663L92.868,99.187"/>
<path fill="none" stroke="#000000" stroke-width="2" d="M105.501,94.975l-4.211,4.212"/>
<path fill="none" stroke="#000000" stroke-width="2" d="M92.868,82.452L76.245,99.187"/>
<path fill="none" stroke="#000000" stroke-width="2" d="M84.556,82.452l-8.311,8.423"/>
<path fill="none" stroke="#000000" stroke-width="2" d="M99.185,82.452L82.45,99.187"/>
<path fill="none" stroke="#000000" stroke-width="2" d="M105.501,84.558L90.873,99.187"/>
<path fill="none" stroke="#000000" stroke-width="2" d="M105.501,92.869l-6.316,6.317"/>
<path fill="none" stroke="#000000" stroke-width="2" d="M90.873,82.452L76.245,97.081"/>
<path fill="none" stroke="#000000" stroke-width="2" d="M82.45,82.452l-6.205,6.316"/>
<path fill="none" stroke="#000000" stroke-width="2" d="M42.777,82.452l16.734,16.734"/>
<path fill="none" stroke="#000000" stroke-width="2" d="M42.777,90.875l8.312,8.312"/>
<path fill="none" stroke="#000000" stroke-width="2" d="M51.088,82.452l16.734,16.734"/>
<path fill="none" stroke="#000000" stroke-width="2" d="M59.511,82.452l12.523,12.522"/>
<path fill="none" stroke="#000000" stroke-width="2" d="M67.822,82.452l4.212,4.211"/>
<path fill="none" stroke="#000000" stroke-width="2" d="M44.882,82.452l16.734,16.734"/>
<path fill="none" stroke="#000000" stroke-width="2" d="M42.777,88.769l10.417,10.418"/>
<path fill="none" stroke="#000000" stroke-width="2" d="M42.777,97.081l2.105,2.105"/>
<path fill="none" stroke="#000000" stroke-width="2" d="M53.194,82.452l16.734,16.734"/>
<path fill="none" stroke="#000000" stroke-width="2" d="M61.616,82.452l10.418,10.417"/>
<path fill="none" stroke="#000000" stroke-width="2" d="M69.928,82.452l2.106,2.105"/>
<path fill="none" stroke="#000000" stroke-width="2" d="M46.988,82.452l16.623,16.734"/>
<path fill="none" stroke="#000000" stroke-width="2" d="M42.777,86.663L55.3,99.187"/>
<path fill="none" stroke="#000000" stroke-width="2" d="M42.777,94.975l4.211,4.212"/>
<path fill="none" stroke="#000000" stroke-width="2" d="M55.3,82.452l16.734,16.734"/>
<path fill="none" stroke="#000000" stroke-width="2" d="M63.611,82.452l8.423,8.423"/>
<path fill="none" stroke="#000000" stroke-width="2" d="M48.983,82.452l16.734,16.734"/>
<path fill="none" stroke="#000000" stroke-width="2" d="M42.777,84.558l14.628,14.629"/>
<path fill="none" stroke="#000000" stroke-width="2" d="M42.777,92.869l6.206,6.317"/>
<path fill="none" stroke="#000000" stroke-width="2" d="M57.405,82.452l14.629,14.629"/>
<path fill="none" stroke="#000000" stroke-width="2" d="M65.717,82.452l6.317,6.316"/>
<path fill="none" stroke="#000000" stroke-width="2" d="M72.034,82.452L55.3,99.187"/>
<path fill="none" stroke="#000000" stroke-width="2" d="M72.034,90.875l-8.423,8.312"/>
<path fill="none" stroke="#000000" stroke-width="2" d="M63.611,82.452L46.988,99.187"/>
<path fill="none" stroke="#000000" stroke-width="2" d="M55.3,82.452L42.777,94.975"/>
<path fill="none" stroke="#000000" stroke-width="2" d="M46.988,82.452l-4.211,4.211"/>
<path fill="none" stroke="#000000" stroke-width="2" d="M69.928,82.452L53.194,99.187"/>
<path fill="none" stroke="#000000" stroke-width="2" d="M72.034,88.769L61.616,99.187"/>
<path fill="none" stroke="#000000" stroke-width="2" d="M72.034,97.081l-2.106,2.105"/>
<path fill="none" stroke="#000000" stroke-width="2" d="M61.616,82.452L44.882,99.187"/>
<path fill="none" stroke="#000000" stroke-width="2" d="M53.194,82.452L42.777,92.869"/>
<path fill="none" stroke="#000000" stroke-width="2" d="M44.882,82.452l-2.105,2.105"/>
<path fill="none" stroke="#000000" stroke-width="2" d="M67.822,82.452L51.088,99.187"/>
<path fill="none" stroke="#000000" stroke-width="2" d="M72.034,86.663L59.511,99.187"/>
<path fill="none" stroke="#000000" stroke-width="2" d="M72.034,94.975l-4.212,4.212"/>
<path fill="none" stroke="#000000" stroke-width="2" d="M59.511,82.452L42.777,99.187"/>
<path fill="none" stroke="#000000" stroke-width="2" d="M51.088,82.452l-8.312,8.423"/>
<path fill="none" stroke="#000000" stroke-width="2" d="M65.717,82.452L48.983,99.187"/>
<path fill="none" stroke="#000000" stroke-width="2" d="M72.034,84.558L57.405,99.187"/>
<path fill="none" stroke="#000000" stroke-width="2" d="M72.034,92.869l-6.317,6.317"/>
<path fill="none" stroke="#000000" stroke-width="2" d="M57.405,82.452L42.777,97.081"/>
<path fill="none" stroke="#000000" stroke-width="2" d="M48.983,82.452l-6.206,6.316"/>
<path fill="none" stroke="#000000" stroke-width="2" d="M9.309,82.452l16.734,16.734"/>
<path fill="none" stroke="#000000" stroke-width="2" d="M9.309,90.875l8.422,8.312"/>
<path fill="none" stroke="#000000" stroke-width="2" d="M17.731,82.452l16.734,16.734"/>
<path fill="none" stroke="#000000" stroke-width="2" d="M26.043,82.452l12.522,12.522"/>
<path fill="none" stroke="#000000" stroke-width="2" d="M34.465,82.452l4.1,4.211"/>
<path fill="none" stroke="#000000" stroke-width="2" d="M11.415,82.452l16.734,16.734"/>
<path fill="none" stroke="#000000" stroke-width="2" d="M9.309,88.769l10.417,10.418"/>
<path fill="none" stroke="#000000" stroke-width="2" d="M9.309,97.081l2.105,2.105"/>
<path fill="none" stroke="#000000" stroke-width="2" d="M19.726,82.452L36.46,99.187"/>
<path fill="none" stroke="#000000" stroke-width="2" d="M28.148,82.452l10.417,10.417"/>
<path fill="none" stroke="#000000" stroke-width="2" d="M36.46,82.452l2.105,2.105"/>
<path fill="none" stroke="#000000" stroke-width="2" d="M13.52,82.452l16.734,16.734"/>
<path fill="none" stroke="#000000" stroke-width="2" d="M9.309,86.663l12.522,12.523"/>
<path fill="none" stroke="#000000" stroke-width="2" d="M9.309,94.975l4.211,4.212"/>
<path fill="none" stroke="#000000" stroke-width="2" d="M21.832,82.452l16.734,16.734"/>
<path fill="none" stroke="#000000" stroke-width="2" d="M30.254,82.452l8.312,8.423"/>
<path fill="none" stroke="#000000" stroke-width="2" d="M15.626,82.452l16.623,16.734"/>
<path fill="none" stroke="#000000" stroke-width="2" d="M9.309,84.558l14.628,14.629"/>
<path fill="none" stroke="#000000" stroke-width="2" d="M9.309,92.869l6.317,6.317"/>
<path fill="none" stroke="#000000" stroke-width="2" d="M23.938,82.452l14.628,14.629"/>
<path fill="none" stroke="#000000" stroke-width="2" d="M32.249,82.452l6.316,6.316"/>
<path fill="none" stroke="#000000" stroke-width="2" d="M38.565,82.452L21.832,99.187"/>
<path fill="none" stroke="#000000" stroke-width="2" d="M38.565,90.875l-8.312,8.312"/>
<path fill="none" stroke="#000000" stroke-width="2" d="M30.254,82.452L13.52,99.187"/>
<path fill="none" stroke="#000000" stroke-width="2" d="M21.832,82.452L9.309,94.975"/>
<path fill="none" stroke="#000000" stroke-width="2" d="M13.52,82.452l-4.211,4.211"/>
<path fill="none" stroke="#000000" stroke-width="2" d="M36.46,82.452L19.726,99.187"/>
<path fill="none" stroke="#000000" stroke-width="2" d="M38.565,88.769L28.148,99.187"/>
<path fill="none" stroke="#000000" stroke-width="2" d="M38.565,97.081l-2.105,2.105"/>
<path fill="none" stroke="#000000" stroke-width="2" d="M28.148,82.452L11.415,99.187"/>
<path fill="none" stroke="#000000" stroke-width="2" d="M19.726,82.452L9.309,92.869"/>
<path fill="none" stroke="#000000" stroke-width="2" d="M11.415,82.452l-2.105,2.105"/>
<path fill="none" stroke="#000000" stroke-width="2" d="M34.465,82.452L17.731,99.187"/>
<path fill="none" stroke="#000000" stroke-width="2" d="M38.565,86.663L26.043,99.187"/>
<path fill="none" stroke="#000000" stroke-width="2" d="M38.565,94.975l-4.1,4.212"/>
<path fill="none" stroke="#000000" stroke-width="2" d="M26.043,82.452L9.309,99.187"/>
<path fill="none" stroke="#000000" stroke-width="2" d="M17.731,82.452l-8.422,8.423"/>
<path fill="none" stroke="#000000" stroke-width="2" d="M32.249,82.452L15.626,99.187"/>
<path fill="none" stroke="#000000" stroke-width="2" d="M38.565,84.558L23.938,99.187"/>
<path fill="none" stroke="#000000" stroke-width="2" d="M38.565,92.869l-6.316,6.317"/>
<path fill="none" stroke="#000000" stroke-width="2" d="M23.938,82.452L9.309,97.081"/>
<path fill="none" stroke="#000000" stroke-width="2" d="M15.626,82.452l-6.317,6.316"/>
<path fill="#B2B2B2" stroke="#000000" stroke-width="2" d="M11.415,19.728h91.981v4.211H11.415V19.728z"/>
<path fill="none" stroke="#000000" stroke-width="2" d="M76.245,19.728V5.1l2.105-1.995h12.522v12.522l-2.105,2.105v1.995H76.245"/>
<path fill="none" stroke="#000000" stroke-width="2" d="M59.511,19.728V5.1l2.105-1.995H74.14v12.522l-2.105,2.105v1.995H59.511"/>
<path fill="none" stroke="#000000" stroke-width="2" d="M38.565,19.728V5.1L36.46,3.105H23.938v12.522l2.105,2.105v1.995H38.565"/>
<path fill="none" stroke="#000000" stroke-width="2" d="M55.3,19.728V5.1l-2.106-1.995H40.671v12.522l2.105,2.105v1.995H55.3"/>
</svg>
