<?xml version="1.0" encoding="utf-8"?>
<!-- Generator: Adobe Illustrator 14.0.0, SVG Export Plug-In . SVG Version: 6.00 Build 43363)  -->
<!DOCTYPE svg PUBLIC "-//W3C//DTD SVG 1.1//EN" "http://www.w3.org/Graphics/SVG/1.1/DTD/svg11.dtd">
<svg version="1.1" id="图层_1" xmlns="http://www.w3.org/2000/svg" xmlns:xlink="http://www.w3.org/1999/xlink" x="0px" y="0px"
	 width="144.749px" height="76.436px" viewBox="0 0 144.749 76.436" enable-background="new 0 0 144.749 76.436"
	 xml:space="preserve">
<path fill="#CCCCCC" stroke="#000000" stroke-width="2" d="M32.489,4.061h108.198v68.313H32.489V4.061z"/>
<path fill="#CCCCCC" stroke="#000000" stroke-width="2" d="M32.489,55.115h-8.558L4.061,26.687l19.87-19.87h8.558V55.115z"/>
<path fill="#C7C7C7" d="M32.489,52.359l108.198-28.428v48.442H32.489V52.359z"/>
<path fill="#C7C7C7" d="M32.489,55.115h-8.558L8.703,33.504l23.786-8.702V55.115z"/>
<path fill="#C2C2C2" d="M32.489,55.405l108.198-28.718v45.687H32.489V55.405z"/>
<path fill="#C2C2C2" d="M32.489,55.115h-8.558L10.298,35.679l22.191-8.412V55.115z"/>
<path fill="#BDBDBD" d="M32.489,59.466l108.198-28.428v41.336H32.489V59.466z"/>
<path fill="#BDBDBD" d="M32.489,55.115h-8.558l-11.458-16.39l20.016-7.688V55.115z"/>
<path fill="none" stroke="#7F7F7F" stroke-width="2" d="M35.389,6.817h102.542v62.511H35.389V6.817"/>
<path fill="none" stroke="#7F7F7F" stroke-width="2" d="M109.359,6.817v62.511"/>
<path fill="none" stroke="#7F7F7F" stroke-width="2" d="M66.573,6.817v62.511"/>
<path fill="none" stroke="#7F7F7F" stroke-width="2" d="M72.375,6.817v62.511"/>
<path fill="#999999" stroke="#000000" stroke-width="2" d="M32.489,46.702h-2.756V29.733h2.756V46.702z"/>
</svg>
