<?xml version="1.0" encoding="utf-8"?>
<!-- Generator: Adobe Illustrator 14.0.0, SVG Export Plug-In . SVG Version: 6.00 Build 43363)  -->
<!DOCTYPE svg PUBLIC "-//W3C//DTD SVG 1.1//EN" "http://www.w3.org/Graphics/SVG/1.1/DTD/svg11.dtd">
<svg version="1.1" id="图层_1" xmlns="http://www.w3.org/2000/svg" xmlns:xlink="http://www.w3.org/1999/xlink" x="0px" y="0px"
	 width="74.52px" height="106.502px" viewBox="0 0 74.52 106.502" enable-background="new 0 0 74.52 106.502" xml:space="preserve">
<circle fill="#FF6600" stroke="#000000" stroke-width="2" cx="44.35" cy="99.893" r="3.625"/>
<circle fill="#FF6600" stroke="#000000" stroke-width="2" cx="6.503" cy="99.893" r="3.625"/>
<path fill="#999999" stroke="#000000" stroke-width="2" d="M42.538,96.268v3.625l1.813,1.705l1.812-1.705v-3.625H42.538z"/>
<path fill="#999999" stroke="#000000" stroke-width="2" d="M4.797,96.268v3.625l1.706,1.705l1.812-1.705v-3.625H4.797z"/>
<path fill="#99CCCC" d="M32.516,24.094H3.518v72.174h43.391V38.486L32.516,24.094z"/>
<path fill="#94C7C7" d="M3.518,75.372l43.283-30.17v51.065H3.518V75.372z"/>
<path fill="#8FC2C2" d="M3.518,78.358l43.283-30.17v48.08H3.518V78.358z"/>
<path fill="#8ABDBD" d="M3.518,82.729l43.283-30.171v43.71H3.518V82.729z"/>
<path fill="none" stroke="#000000" stroke-width="2" d="M32.516,24.094H3.518v72.174h43.391V38.486L32.516,24.094"/>
<path fill="#E5E5E5" stroke="#000000" stroke-width="2" d="M37.954,25.053l6.609-6.396l6.076-5.33l5.117-3.945l4.265-2.451
	l2.025-0.854l5.864,10.342l-2.666,0.746l-3.625,2.238l-4.584,3.412l-5.224,4.478l-6.077,5.65L37.954,25.053z"/>
<path fill="#B3D9D9" stroke="#000000" stroke-width="2" d="M71.535,15.352L64.286,2.878l-3.199,1.919l7.25,12.367L71.535,15.352z"/>
<path fill="#B3D9D9" stroke="#000000" stroke-width="2" d="M46.909,34.115L36.674,24.094l-2.346,2.345L44.35,36.673L46.909,34.115z"
	/>
<path fill="none" stroke="#999999" stroke-width="2" d="M46.909,31.663l-7.57-7.569"/>
<path fill="none" stroke="#999999" stroke-width="2" d="M48.401,30.064l-0.533-0.533l-0.426-0.427l-0.533-0.532l-0.428-0.427
	l-0.532-0.533l-0.427-0.533l-0.533-0.426l-0.426-0.533l-0.427-0.427l-0.427-0.533l-0.533-0.533L42.75,24.2l-0.427-0.533
	l-0.532-0.427l-0.428-0.533l-0.426-0.532"/>
<path fill="none" stroke="#999999" stroke-width="2" d="M49.787,28.891l-0.427-0.533l-0.533-0.533l-0.426-0.532l-0.427-0.533
	l-0.427-0.533l-0.533-0.427l-0.426-0.533l-0.427-0.532l-0.427-0.427l-0.426-0.533l-0.533-0.533l-0.426-0.533l-0.428-0.426
	l-0.532-0.533l-0.427-0.427l-0.426-0.533"/>
<path fill="none" stroke="#999999" stroke-width="2" d="M51.172,27.505l-0.426-0.533l-0.427-0.533l-0.427-0.533l-0.533-0.532
	l-0.426-0.533l-0.427-0.533l-0.533-0.533l-0.319-0.533l-0.533-0.533l-0.427-0.532l-0.427-0.533l-0.426-0.427l-0.427-0.533
	l-0.427-0.533l-0.426-0.426l-0.427-0.533"/>
<path fill="none" stroke="#999999" stroke-width="2" d="M52.772,26.226l-0.427-0.533l-0.427-0.533l-0.426-0.533l-0.533-0.532
	l-0.427-0.533l-0.427-0.533l-0.426-0.533l-0.32-0.427l-0.533-0.532l-0.319-0.533l-0.533-0.533l-0.319-0.533l-0.427-0.533
	l-0.427-0.533l-0.426-0.532l-0.427-0.533"/>
<path fill="none" stroke="#999999" stroke-width="2" d="M54.158,25.053l-0.319-0.64l-0.533-0.533l-0.32-0.533l-0.426-0.532
	l-0.428-0.533l-0.426-0.533l-0.426-0.64l-0.32-0.533l-0.533-0.533l-0.32-0.533l-0.426-0.532l-0.427-0.533l-0.427-0.533l-0.426-0.64
	l-0.427-0.533l-0.427-0.533"/>
<path fill="none" stroke="#999999" stroke-width="2" d="M55.756,23.667l-0.319-0.64l-0.427-0.533l-0.32-0.533l-0.426-0.533
	l-0.426-0.64l-0.32-0.532l-0.427-0.533l-0.427-0.533l-0.426-0.64l-0.427-0.533l-0.319-0.533l-0.427-0.533l-0.427-0.532l-0.426-0.533
	l-0.427-0.533l-0.427-0.533"/>
<path fill="none" stroke="#999999" stroke-width="2" d="M57.356,22.494l-0.32-0.64l-0.426-0.533l-0.32-0.533l-0.426-0.64
	l-0.427-0.532l-0.319-0.64l-0.428-0.533l-0.426-0.533l-0.426-0.533l-0.32-0.64l-0.427-0.533l-0.319-0.533l-0.427-0.64l-0.427-0.532
	l-0.426-0.533l-0.32-0.64"/>
<path fill="none" stroke="#999999" stroke-width="2" d="M59.061,21.215l-0.426-0.64l-0.32-0.533l-0.426-0.64l-0.32-0.64
	l-0.426-0.533l-0.32-0.64l-0.426-0.532l-0.428-0.64l-0.319-0.64l-0.427-0.533l-0.319-0.533l-0.427-0.64l-0.319-0.533l-0.427-0.64
	l-0.426-0.533l-0.32-0.64"/>
<path fill="none" stroke="#999999" stroke-width="2" d="M60.448,20.042l-0.427-0.64l-0.214-0.64l-0.426-0.533l-0.32-0.64
	l-0.319-0.64l-0.427-0.532l-0.319-0.64l-0.319-0.533l-0.428-0.64l-0.319-0.64l-0.427-0.64l-0.319-0.533l-0.319-0.64l-0.427-0.64
	l-0.214-0.533l-0.426-0.64"/>
<path fill="none" stroke="#999999" stroke-width="2" d="M62.473,18.763l-0.427-0.533l-0.319-0.64l-0.32-0.64l-0.426-0.532
	l-0.427-0.64l-0.319-0.533l-0.32-0.64l-0.32-0.64l-0.319-0.64l-0.427-0.533l-0.32-0.64l-0.319-0.533l-0.319-0.64l-0.427-0.64
	l-0.319-0.533l-0.32-0.64"/>
<path fill="none" stroke="#999999" stroke-width="2" d="M64.286,17.59l-0.427-0.64l-0.319-0.64l-0.32-0.64l-0.32-0.64l-0.319-0.64
	L62.26,13.86l-0.32-0.64l-0.32-0.64l-0.319-0.64l-0.427-0.64l-0.319-0.641l-0.214-0.532l-0.319-0.64l-0.319-0.64l-0.32-0.64
	l-0.32-0.64"/>
<path fill="none" stroke="#999999" stroke-width="2" d="M66.098,16.844l-5.65-10.128"/>
<path fill="#333333" d="M6.503,31.343h1.812v7.143H6.503V31.343z"/>
<path fill="#E5E5E5" d="M5.544,67.91h0.959v0.746H5.544V67.91z"/>
<path fill="#E5E5E5" d="M43.922,67.91h0.854v0.746h-0.854V67.91z"/>
<path fill="#E5E5E5" d="M25.053,67.91h0.853v0.746h-0.853V67.91z"/>
<path fill="#E5E5E5" d="M7.569,71.109h0.746v0.746H7.569V71.109z"/>
<path fill="#E5E5E5" d="M21.855,71.109h0.746v0.746h-0.746V71.109z"/>
<path fill="none" stroke="#669999" stroke-width="2" d="M5.544,70.042h18.55v25.373H5.544V70.042"/>
<path fill="none" stroke="#669999" stroke-width="2" d="M4.371,69.296h42.43"/>
<path fill="#FFFFFF" d="M39.872,35.927h1.92v2.133h-1.92V35.927z"/>
<path fill="#CCCCCC" d="M39.872,39.552h3.625v3.944h-3.625V39.552z"/>
<path fill="#CCCCCC" d="M39.872,44.776h3.625v9.595h-3.625V44.776z"/>
</svg>
