<?xml version="1.0" encoding="utf-8"?>
<!-- Generator: Adobe Illustrator 14.0.0, SVG Export Plug-In . SVG Version: 6.00 Build 43363)  -->
<!DOCTYPE svg PUBLIC "-//W3C//DTD SVG 1.1//EN" "http://www.w3.org/Graphics/SVG/1.1/DTD/svg11.dtd">
<svg version="1.1" id="图层_1" xmlns="http://www.w3.org/2000/svg" xmlns:xlink="http://www.w3.org/1999/xlink" x="0px" y="0px"
	 width="54.158px" height="106.502px" viewBox="0 0 54.158 106.502" enable-background="new 0 0 54.158 106.502"
	 xml:space="preserve">
<path fill="#CCCCCC" stroke="#000000" stroke-width="2" d="M43.177,103.41l7.996-3.944V2.985L43.177,6.93V103.41z"/>
<path fill="#F2F2F2" stroke="#000000" stroke-width="2" d="M2.986,6.93h44.136v96.48H2.986V6.93z"/>
<path fill="#F2F2F2" stroke="#000000" stroke-width="2" d="M6.93,10.981h36.247v52.238H6.93V10.981z"/>
<path fill="#E5E5E5" stroke="#000000" stroke-width="2" d="M6.93,63.219h36.247v36.247H6.93V63.219z"/>
<path fill="#666666" stroke="#000000" stroke-width="2" d="M8.955,65.244h32.196v32.196H8.955V65.244z"/>
<path fill="#D9D9D9" d="M10.022,66.311h14.605v1.919H10.022V66.311z"/>
<path fill="#D9D9D9" d="M10.022,70.255h14.605v2.025H10.022V70.255z"/>
<path fill="#D9D9D9" d="M10.022,74.307h14.605v2.025H10.022V74.307z"/>
<path fill="#D9D9D9" d="M10.022,78.358h14.605v1.919H10.022V78.358z"/>
<path fill="#D9D9D9" d="M10.022,82.302h14.605v2.025H10.022V82.302z"/>
<path fill="#D9D9D9" d="M10.022,86.354h14.605v2.025H10.022V86.354z"/>
<path fill="#D9D9D9" d="M10.022,90.405h14.605v2.025H10.022V90.405z"/>
<path fill="#D9D9D9" d="M10.022,94.349h14.605v2.025H10.022V94.349z"/>
<path fill="#D9D9D9" d="M25.48,66.311h14.605v1.919H25.48V66.311z"/>
<path fill="#D9D9D9" d="M25.48,70.255h14.605v2.025H25.48V70.255z"/>
<path fill="#D9D9D9" d="M25.48,74.307h14.605v2.025H25.48V74.307z"/>
<path fill="#D9D9D9" d="M25.48,78.358h14.605v1.919H25.48V78.358z"/>
<path fill="#D9D9D9" d="M25.48,82.302h14.605v2.025H25.48V82.302z"/>
<path fill="#D9D9D9" d="M25.48,86.354h14.605v2.025H25.48V86.354z"/>
<path fill="#D9D9D9" d="M25.48,90.405h14.605v2.025H25.48V90.405z"/>
<path fill="#D9D9D9" d="M25.48,94.349h14.605v2.025H25.48V94.349z"/>
<circle fill="#7F7F7F" stroke="#000000" stroke-width="2" cx="25.054" cy="21.002" r="5.97"/>
<path fill="#FFFFFF" d="M25.054,21.002l-5.011,1.492v-1.492l0.106-0.96l0.319-0.959l0.427-0.96l0.64-0.746l0.746-0.64l0.854-0.533
	l0.853-0.319l1.066-0.106l1.065,0.106l0.96,0.319l0.853,0.533l0.854,0.64l0.64,0.746l0.426,0.96l0.32,0.959l0.106,0.96l-0.106,1.065
	l-0.106,0.427L25.054,21.002z"/>
<path fill="#FF0000" d="M20.896,19.083h8.422v1.173h-8.422V19.083z"/>
<path fill="#00FF00" d="M23.667,19.083h2.985v1.173h-2.985V19.083z"/>
<path fill="none" stroke="#000000" stroke-width="2" d="M24.414,21.215L24.414,21.215v-0.106l0,0v-0.106l0.106-0.214l0.106-0.213
	l0.213-0.106h0.214h0.319l0.214,0.106v0.213l0.106,0.214v0.106l0,0v0.106l0,0"/>
<path stroke="#000000" stroke-width="2" d="M25.054,20.469l0.213-3.198v3.198H25.054z"/>
<path fill="#FF7F7F" d="M15.991,63.859h5.011v0.96h-5.011V63.859z"/>
<path fill="#00FF00" d="M20.043,32.089h16.098v1.066H20.043V32.089z"/>
<path fill="#333333" d="M20.043,34.115h7.463v0.64h-7.463V34.115z"/>
<path fill="#333333" d="M20.043,35.074h7.463v0.64h-7.463V35.074z"/>
<path fill="#00FF00" stroke="#CCCCCC" stroke-width="2" d="M19.083,33.156l-5.117-3.092v3.092H19.083z"/>
<path fill="#FFFFFF" stroke="#CCCCCC" stroke-width="2" d="M13.966,30.064l5.117,3.092v-3.092H13.966z"/>
<path fill="#FFFFFF" stroke="#000000" stroke-width="2" d="M51.173,2.985L43.177,6.93H6.93l8.103-3.945H51.173z"/>
<path fill="#4C4C4C" d="M31.663,55.224l-0.746-0.214l-0.32-0.746l0.32-0.746l0.746-0.32l0.746,0.32l0.214,0.746l-0.214,0.746
	L31.663,55.224z"/>
<path fill="#4C4C4C" d="M31.663,51.066l-0.746-0.319l-0.32-0.747l0.32-0.64l0.746-0.319l0.746,0.319l0.214,0.64l-0.214,0.747
	L31.663,51.066z"/>
<path fill="#4C4C4C" d="M31.663,46.907l-0.746-0.319l-0.32-0.746l0.32-0.746l0.746-0.32l0.746,0.32l0.214,0.746l-0.214,0.746
	L31.663,46.907z"/>
<path fill="#4C4C4C" d="M31.663,42.75l-0.746-0.32l-0.32-0.746l0.32-0.746l0.746-0.319l0.746,0.319l0.214,0.746l-0.214,0.746
	L31.663,42.75z"/>
<path fill="#4C4C4C" d="M31.663,38.486l-0.746-0.213l-0.32-0.746l0.32-0.746l0.746-0.32l0.746,0.32l0.214,0.746l-0.214,0.746
	L31.663,38.486z"/>
</svg>
