<?xml version="1.0" encoding="utf-8"?>
<!-- Generator: Adobe Illustrator 14.0.0, SVG Export Plug-In . SVG Version: 6.00 Build 43363)  -->
<!DOCTYPE svg PUBLIC "-//W3C//DTD SVG 1.1//EN" "http://www.w3.org/Graphics/SVG/1.1/DTD/svg11.dtd">
<svg version="1.1" id="图层_1" xmlns="http://www.w3.org/2000/svg" xmlns:xlink="http://www.w3.org/1999/xlink" x="0px" y="0px"
	 width="144.749px" height="66.571px" viewBox="0 0 144.749 66.571" enable-background="new 0 0 144.749 66.571"
	 xml:space="preserve">
<path fill="#859999" d="M11.46,60.625H7.834v1.886H4.063v-9.282h3.771v1.886h3.626V60.625z"/>
<path fill="#859999" stroke="#000000" stroke-width="2" d="M11.46,13.633H7.834v1.885H4.063V6.526h3.771v1.596h3.626V13.633z"/>
<path fill="#859999" d="M133.289,55.114h3.626v-1.886h3.771v9.282h-3.771v-1.886h-3.626V55.114z"/>
<path fill="#859999" d="M133.289,8.122h3.626V6.526h3.771v8.992h-3.771v-1.885h-3.626V8.122z"/>
<path fill="#D1D9D9" d="M133.289,56.274h3.626v-1.16h3.771v5.511h-3.771v-1.16h-3.626V56.274z"/>
<path fill="#D1D9D9" d="M133.289,9.282h3.626v-1.16h3.771v5.511h-3.771v-1.16h-3.626V9.282z"/>
<path fill="#D1D9D9" d="M11.46,59.464H7.834v1.16H4.063v-5.511h3.771v1.16h3.626V59.464z"/>
<path fill="#D1D9D9" d="M11.46,12.473H7.834v1.16H4.063V8.122h3.771v1.16h3.626V12.473z"/>
<path fill="none" stroke="#000000" stroke-width="2" d="M7.834,8.122v5.511"/>
<path fill="none" stroke="#000000" stroke-width="2" d="M11.46,60.625H7.834v1.886H4.063v-9.282h3.771v1.886h3.626V60.625"/>
<path fill="none" stroke="#000000" stroke-width="2" d="M7.834,55.114v5.511"/>
<path fill="none" stroke="#000000" stroke-width="2" d="M133.289,55.114h3.626v-1.886h3.771v9.282h-3.771v-1.886h-3.626V55.114"/>
<path fill="none" stroke="#000000" stroke-width="2" d="M136.915,60.625v-5.511"/>
<path fill="none" stroke="#000000" stroke-width="2" d="M133.289,8.122h3.626V6.526h3.771v8.992h-3.771v-1.885h-3.626V8.122"/>
<path fill="none" stroke="#000000" stroke-width="2" d="M136.915,13.633V8.122"/>
<path fill="#98B2B2" stroke="#000000" stroke-width="2" d="M11.46,6.526h121.829V62.51H11.46V6.526z"/>
<path fill="#CCCCCC" stroke="#000000" stroke-width="2" d="M16.39,4.061h111.968V62.51H16.39V4.061z"/>
<path fill="#004C4C" d="M21.177,8.992h48.732v48.586H21.177V8.992z"/>
<path fill="#004C4C" d="M74.84,8.992h48.732v48.586H74.84V8.992z"/>
<path fill="none" stroke="#CCCCCC" stroke-width="2" d="M123.717,52.648H21.177"/>
<path fill="none" stroke="#CCCCCC" stroke-width="2" d="M21.177,42.786h102.54"/>
<path fill="none" stroke="#CCCCCC" stroke-width="2" d="M123.717,33.068H21.177"/>
<path fill="none" stroke="#CCCCCC" stroke-width="2" d="M21.177,23.496h102.54"/>
<path fill="none" stroke="#CCCCCC" stroke-width="2" d="M21.177,13.633h102.54"/>
<path fill="none" stroke="#000000" stroke-width="2" d="M21.177,4.061V62.51"/>
<path fill="none" stroke="#000000" stroke-width="2" d="M123.717,4.061V62.51"/>
<path fill="none" stroke="#000000" stroke-width="2" d="M21.177,57.579h102.54"/>
<path fill="none" stroke="#000000" stroke-width="2" d="M21.177,8.992h102.54"/>
<path fill="none" stroke="#004C4C" stroke-width="2" d="M23.642,8.992v48.586"/>
<path fill="none" stroke="#004C4C" stroke-width="2" d="M33.215,8.992v48.586"/>
<path fill="none" stroke="#004C4C" stroke-width="2" d="M43.077,8.992v48.586"/>
<path fill="none" stroke="#004C4C" stroke-width="2" d="M52.939,8.992v48.586"/>
<path fill="none" stroke="#004C4C" stroke-width="2" d="M62.802,8.992v48.586"/>
<path fill="none" stroke="#004C4C" stroke-width="2" d="M82.237,8.992v48.586"/>
<path fill="none" stroke="#004C4C" stroke-width="2" d="M91.809,8.992v48.586"/>
<path fill="none" stroke="#004C4C" stroke-width="2" d="M101.672,8.992v48.586"/>
<path fill="none" stroke="#004C4C" stroke-width="2" d="M111.534,8.992v48.586"/>
<path fill="none" stroke="#004C4C" stroke-width="2" d="M121.252,8.992v48.586"/>
<path fill="none" stroke="#CCCCCC" stroke-width="2" d="M21.177,55.114h102.54"/>
<path fill="none" stroke="#CCCCCC" stroke-width="2" d="M21.177,50.182h102.54"/>
<path fill="none" stroke="#CCCCCC" stroke-width="2" d="M21.177,47.717h102.54"/>
<path fill="none" stroke="#CCCCCC" stroke-width="2" d="M123.717,45.25H21.177"/>
<path fill="none" stroke="#CCCCCC" stroke-width="2" d="M123.717,40.32H21.177"/>
<path fill="none" stroke="#CCCCCC" stroke-width="2" d="M21.177,37.854h102.54"/>
<path fill="none" stroke="#CCCCCC" stroke-width="2" d="M21.177,35.389h102.54"/>
<path fill="none" stroke="#CCCCCC" stroke-width="2" d="M21.177,30.748h102.54"/>
<path fill="none" stroke="#CCCCCC" stroke-width="2" d="M123.717,28.282H21.177"/>
<path fill="none" stroke="#CCCCCC" stroke-width="2" d="M21.177,25.961h102.54"/>
<path fill="none" stroke="#CCCCCC" stroke-width="2" d="M123.717,21.03H21.177"/>
<path fill="none" stroke="#CCCCCC" stroke-width="2" d="M21.177,18.564h102.54"/>
<path fill="none" stroke="#CCCCCC" stroke-width="2" d="M123.717,16.099H21.177"/>
<path fill="none" stroke="#CCCCCC" stroke-width="2" d="M21.177,11.458h102.54"/>
</svg>
