<?xml version="1.0" encoding="utf-8"?>
<!-- Generator: Adobe Illustrator 14.0.0, SVG Export Plug-In . SVG Version: 6.00 Build 43363)  -->
<!DOCTYPE svg PUBLIC "-//W3C//DTD SVG 1.1//EN" "http://www.w3.org/Graphics/SVG/1.1/DTD/svg11.dtd">
<svg version="1.1" id="图层_1" xmlns="http://www.w3.org/2000/svg" xmlns:xlink="http://www.w3.org/1999/xlink" x="0px" y="0px"
	 width="144.749px" height="49.558px" viewBox="0 0 144.749 49.558" enable-background="new 0 0 144.749 49.558"
	 xml:space="preserve">
<path fill="#CC9933" stroke="#000000" stroke-width="2" d="M15.794,30.429H9.998l-5.94,7.68l5.94,4.348h5.796V30.429z"/>
<path fill="#CC9933" stroke="#000000" stroke-width="2" d="M15.794,5.363L6.955,20.432l7.39,7.39h1.449V5.363z"/>
<path fill="none" stroke="#996600" stroke-width="2" d="M16.518,5.363L7.824,20.432"/>
<path fill="none" stroke="#996600" stroke-width="2" d="M16.518,31.298H9.998l-5.217,6.811"/>
<path fill="#E5B24C" d="M15.794,4.059h124.753v41.439H15.794V4.059z"/>
<path fill="#E0AD47" d="M15.794,33.472L140.547,6.957v38.542H15.794V33.472z"/>
<path fill="#DBA842" d="M15.794,35.21L140.547,8.406v37.093H15.794V35.21z"/>
<path fill="#D6A33D" d="M15.794,37.82l124.753-26.516v34.195H15.794V37.82z"/>
<path fill="#996600" stroke="#000000" stroke-width="2" d="M113.886,5.363h23.763v16.373h-23.763V5.363z"/>
<path fill="#996600" stroke="#000000" stroke-width="2" d="M113.886,26.083h23.763v16.373h-23.763V26.083z"/>
<path fill="#663300" d="M127.217,29.125h8.983v13.331h-8.983V29.125z"/>
<path fill="#663300" d="M127.217,26.083h3.043v3.042h-3.043V26.083z"/>
<path fill="#663300" d="M127.217,21.736h3.043V11.304h-3.043V21.736z"/>
<path fill="#663300" d="M113.886,11.304h13.33v3.043h-13.33V11.304z"/>
<path fill="#663300" d="M113.886,26.083h13.33v9.127h-13.33V26.083z"/>
<path fill="none" stroke="#000000" stroke-width="2" d="M113.886,5.363l13.62,16.373"/>
<path fill="none" stroke="#000000" stroke-width="2" d="M113.886,13.622l6.81,8.114"/>
<path fill="none" stroke="#000000" stroke-width="2" d="M120.696,5.363l13.62,16.373"/>
<path fill="none" stroke="#000000" stroke-width="2" d="M127.507,5.363l10.143,12.316"/>
<path fill="none" stroke="#000000" stroke-width="2" d="M134.316,5.363l3.333,4.057"/>
<path fill="none" stroke="#000000" stroke-width="2" d="M115.77,5.363l13.33,16.373"/>
<path fill="none" stroke="#000000" stroke-width="2" d="M113.886,11.304l8.404,10.432"/>
<path fill="none" stroke="#000000" stroke-width="2" d="M113.886,19.563l1.884,2.173"/>
<path fill="none" stroke="#000000" stroke-width="2" d="M122.291,5.363l13.619,16.373"/>
<path fill="none" stroke="#000000" stroke-width="2" d="M129.1,5.363l8.549,10.143"/>
<path fill="none" stroke="#000000" stroke-width="2" d="M135.91,5.363l1.739,1.884"/>
<path fill="none" stroke="#000000" stroke-width="2" d="M117.364,5.363l13.33,16.373"/>
<path fill="none" stroke="#000000" stroke-width="2" d="M113.886,9.42l10.287,12.316"/>
<path fill="none" stroke="#000000" stroke-width="2" d="M113.886,17.679l3.478,4.057"/>
<path fill="none" stroke="#000000" stroke-width="2" d="M124.174,5.363l13.476,16.373"/>
<path fill="none" stroke="#000000" stroke-width="2" d="M130.694,5.363l6.955,8.259"/>
<path fill="none" stroke="#000000" stroke-width="2" d="M118.958,5.363l13.765,16.373"/>
<path fill="none" stroke="#000000" stroke-width="2" d="M113.886,7.537l12.026,14.199"/>
<path fill="none" stroke="#000000" stroke-width="2" d="M113.886,15.505l5.071,6.23"/>
<path fill="none" stroke="#000000" stroke-width="2" d="M125.913,5.363l11.736,14.2"/>
<path fill="none" stroke="#000000" stroke-width="2" d="M132.722,5.363l4.927,5.941"/>
<path fill="none" stroke="#000000" stroke-width="2" d="M137.649,5.363l-13.765,16.373"/>
<path fill="none" stroke="#000000" stroke-width="2" d="M137.649,13.622l-6.955,8.114"/>
<path fill="none" stroke="#000000" stroke-width="2" d="M130.694,5.363l-13.33,16.373"/>
<path fill="none" stroke="#000000" stroke-width="2" d="M123.885,5.363l-9.998,12.316"/>
<path fill="none" stroke="#000000" stroke-width="2" d="M117.364,5.363l-3.478,4.057"/>
<path fill="none" stroke="#000000" stroke-width="2" d="M135.91,5.363l-13.619,16.373"/>
<path fill="none" stroke="#000000" stroke-width="2" d="M137.649,11.304L129.1,21.736"/>
<path fill="none" stroke="#000000" stroke-width="2" d="M137.649,19.563l-1.739,2.173"/>
<path fill="none" stroke="#000000" stroke-width="2" d="M129.1,5.363l-13.33,16.373"/>
<path fill="none" stroke="#000000" stroke-width="2" d="M122.291,5.363l-8.404,10.143"/>
<path fill="none" stroke="#000000" stroke-width="2" d="M115.77,5.363l-1.884,1.884"/>
<path fill="none" stroke="#000000" stroke-width="2" d="M134.316,5.363l-13.62,16.373"/>
<path fill="none" stroke="#000000" stroke-width="2" d="M137.649,9.42l-10.143,12.316"/>
<path fill="none" stroke="#000000" stroke-width="2" d="M137.649,17.679l-3.333,4.057"/>
<path fill="none" stroke="#000000" stroke-width="2" d="M127.507,5.363l-13.62,16.373"/>
<path fill="none" stroke="#000000" stroke-width="2" d="M120.696,5.363l-6.81,8.259"/>
<path fill="none" stroke="#000000" stroke-width="2" d="M132.432,5.363l-13.475,16.373"/>
<path fill="none" stroke="#000000" stroke-width="2" d="M137.649,7.537l-11.736,14.199"/>
<path fill="none" stroke="#000000" stroke-width="2" d="M137.649,15.505l-5.217,6.23"/>
<path fill="none" stroke="#000000" stroke-width="2" d="M125.913,5.363l-12.026,14.2"/>
<path fill="none" stroke="#000000" stroke-width="2" d="M118.958,5.363l-5.071,5.941"/>
<path fill="none" stroke="#000000" stroke-width="2" d="M113.886,26.083l13.62,16.373"/>
<path fill="none" stroke="#000000" stroke-width="2" d="M113.886,34.341l6.81,8.115"/>
<path fill="none" stroke="#000000" stroke-width="2" d="M120.696,26.083l13.62,16.373"/>
<path fill="none" stroke="#000000" stroke-width="2" d="M127.507,26.083l10.143,12.315"/>
<path fill="none" stroke="#000000" stroke-width="2" d="M134.316,26.083l3.333,4.201"/>
<path fill="none" stroke="#000000" stroke-width="2" d="M115.77,26.083l13.33,16.373"/>
<path fill="none" stroke="#000000" stroke-width="2" d="M113.886,32.168l8.404,10.288"/>
<path fill="none" stroke="#000000" stroke-width="2" d="M113.886,40.283l1.884,2.174"/>
<path fill="none" stroke="#000000" stroke-width="2" d="M122.291,26.083l13.619,16.373"/>
<path fill="none" stroke="#000000" stroke-width="2" d="M129.1,26.083l8.549,10.143"/>
<path fill="none" stroke="#000000" stroke-width="2" d="M135.91,26.083l1.739,2.173"/>
<path fill="none" stroke="#000000" stroke-width="2" d="M117.364,26.083l13.33,16.373"/>
<path fill="none" stroke="#000000" stroke-width="2" d="M113.886,30.285l10.287,12.172"/>
<path fill="none" stroke="#000000" stroke-width="2" d="M113.886,38.399l3.478,4.058"/>
<path fill="none" stroke="#000000" stroke-width="2" d="M124.174,26.083l13.476,16.373"/>
<path fill="none" stroke="#000000" stroke-width="2" d="M130.694,26.083l6.955,8.258"/>
<path fill="none" stroke="#000000" stroke-width="2" d="M118.958,26.083l13.765,16.373"/>
<path fill="none" stroke="#000000" stroke-width="2" d="M113.886,28.256l12.026,14.2"/>
<path fill="none" stroke="#000000" stroke-width="2" d="M113.886,36.226l5.071,6.23"/>
<path fill="none" stroke="#000000" stroke-width="2" d="M125.913,26.083l11.736,14.199"/>
<path fill="none" stroke="#000000" stroke-width="2" d="M132.722,26.083l4.927,6.085"/>
<path fill="none" stroke="#000000" stroke-width="2" d="M137.649,26.083l-13.765,16.373"/>
<path fill="none" stroke="#000000" stroke-width="2" d="M137.649,34.341l-6.955,8.115"/>
<path fill="none" stroke="#000000" stroke-width="2" d="M130.694,26.083l-13.33,16.373"/>
<path fill="none" stroke="#000000" stroke-width="2" d="M123.885,26.083l-9.998,12.315"/>
<path fill="none" stroke="#000000" stroke-width="2" d="M117.364,26.083l-3.478,4.201"/>
<path fill="none" stroke="#000000" stroke-width="2" d="M135.91,26.083l-13.619,16.373"/>
<path fill="none" stroke="#000000" stroke-width="2" d="M137.649,32.168L129.1,42.457"/>
<path fill="none" stroke="#000000" stroke-width="2" d="M137.649,40.283l-1.739,2.174"/>
<path fill="none" stroke="#000000" stroke-width="2" d="M129.1,26.083l-13.33,16.373"/>
<path fill="none" stroke="#000000" stroke-width="2" d="M122.291,26.083l-8.404,10.143"/>
<path fill="none" stroke="#000000" stroke-width="2" d="M115.77,26.083l-1.884,2.173"/>
<path fill="none" stroke="#000000" stroke-width="2" d="M134.316,26.083l-13.62,16.373"/>
<path fill="none" stroke="#000000" stroke-width="2" d="M137.649,30.285l-10.143,12.172"/>
<path fill="none" stroke="#000000" stroke-width="2" d="M137.649,38.399l-3.333,4.058"/>
<path fill="none" stroke="#000000" stroke-width="2" d="M127.507,26.083l-13.62,16.373"/>
<path fill="none" stroke="#000000" stroke-width="2" d="M120.696,26.083l-6.81,8.258"/>
<path fill="none" stroke="#000000" stroke-width="2" d="M132.432,26.083l-13.475,16.373"/>
<path fill="none" stroke="#000000" stroke-width="2" d="M137.649,28.256l-11.736,14.2"/>
<path fill="none" stroke="#000000" stroke-width="2" d="M137.649,36.226l-5.217,6.23"/>
<path fill="none" stroke="#000000" stroke-width="2" d="M125.913,26.083l-12.026,14.199"/>
<path fill="none" stroke="#000000" stroke-width="2" d="M118.958,26.083l-5.071,6.085"/>
<path fill="none" stroke="#000000" stroke-width="2" d="M15.794,4.059h124.753v41.439H15.794V4.059"/>
<path fill="#E5E5E5" d="M18.691,20.432h13.476v7.39H18.691V20.432z"/>
<path fill="#7F7F7F" d="M18.691,27.822l1.739-6.086h10.287l1.449,6.086v-7.39H18.691V27.822z"/>
<path fill="none" stroke="#663300" stroke-width="2" d="M18.691,20.432h13.476v7.39H18.691V20.432"/>
<path fill="#663300" d="M18.257,38.109h1.304v0.58h-1.304V38.109z"/>
<path fill="#663300" d="M18.257,29.125h1.304v0.87h-1.304V29.125z"/>
<path fill="#663300" d="M38.976,38.109h1.304v0.58h-1.304V38.109z"/>
<path fill="#663300" d="M38.976,9.13h1.304v0.58h-1.304V9.13z"/>
<path fill="#663300" d="M38.976,23.91h1.304v0.869h-1.304V23.91z"/>
<path fill="#663300" d="M53.756,38.109h1.304v0.58h-1.304V38.109z"/>
<path fill="#663300" d="M53.756,9.13h1.304v0.58h-1.304V9.13z"/>
<path fill="#663300" d="M53.756,23.91h1.304v0.869h-1.304V23.91z"/>
<path fill="#663300" d="M68.825,38.109h1.304v0.58h-1.304V38.109z"/>
<path fill="#663300" d="M68.825,9.13h1.304v0.58h-1.304V9.13z"/>
<path fill="#663300" d="M68.825,23.91h1.304v0.869h-1.304V23.91z"/>
<path fill="#663300" d="M81.865,38.109h1.594v0.58h-1.594V38.109z"/>
<path fill="#663300" d="M81.865,9.13h1.594v0.58h-1.594V9.13z"/>
<path fill="#663300" d="M81.865,23.91h1.594v0.869h-1.594V23.91z"/>
<path fill="#663300" d="M101.281,38.109h1.304v0.58h-1.304V38.109z"/>
<path fill="#663300" d="M101.281,9.13h1.304v0.58h-1.304V9.13z"/>
<path fill="#663300" d="M101.281,23.91h1.304v0.869h-1.304V23.91z"/>
<path fill="#663300" d="M124.174,43.326h5.217v1.304h-5.217V43.326z"/>
<path fill="#663300" d="M93.022,43.326h5.216v1.304h-5.216V43.326z"/>
<path fill="#663300" d="M61.145,43.326h5.071v1.304h-5.071V43.326z"/>
<path fill="#663300" d="M29.993,43.326h5.216v1.304h-5.216V43.326z"/>
<path fill="none" stroke="#CC9933" stroke-width="2" d="M128.086,43.326v1.304"/>
<path fill="none" stroke="#CC9933" stroke-width="2" d="M96.934,43.326v1.304"/>
<path fill="none" stroke="#CC9933" stroke-width="2" d="M64.913,43.326v1.304"/>
<path fill="none" stroke="#CC9933" stroke-width="2" d="M33.76,43.326v1.304"/>
<path fill="none" stroke="#F2E5CC" stroke-width="2" d="M94.47,43.326v1.304"/>
<path fill="none" stroke="#F2E5CC" stroke-width="2" d="M125.913,43.326v1.304"/>
<path fill="none" stroke="#F2E5CC" stroke-width="2" d="M31.587,43.326v1.304"/>
<path fill="none" stroke="#F2E5CC" stroke-width="2" d="M62.739,43.326v1.304"/>
<path fill="#CCCCCC" d="M18.691,5.363h13.476v0.87H18.691V5.363z"/>
<path fill="none" stroke="#996600" stroke-width="2" d="M18.691,5.363h92.152v37.094H18.691V5.363"/>
<path fill="none" stroke="#996600" stroke-width="2" d="M32.167,27.822l0.289,14.635"/>
<path fill="none" stroke="#996600" stroke-width="2" d="M39.845,5.363v37.094"/>
<path fill="none" stroke="#996600" stroke-width="2" d="M53.176,5.363v37.094"/>
<path fill="none" stroke="#996600" stroke-width="2" d="M54.48,5.363v37.094"/>
<path fill="none" stroke="#996600" stroke-width="2" d="M67.955,5.363v37.094"/>
<path fill="none" stroke="#996600" stroke-width="2" d="M69.26,5.363v37.094"/>
<path fill="none" stroke="#996600" stroke-width="2" d="M82.734,5.363v37.094"/>
<path fill="none" stroke="#996600" stroke-width="2" d="M91.718,5.363v37.094"/>
<path fill="none" stroke="#996600" stroke-width="2" d="M101.86,5.363v37.094"/>
<path fill="#FFCC66" stroke="#CC9933" stroke-width="2" d="M18.691,6.232h13.476v14.2H18.691V6.232z"/>
</svg>
