<?xml version="1.0" encoding="utf-8"?>
<!-- Generator: Adobe Illustrator 14.0.0, SVG Export Plug-In . SVG Version: 6.00 Build 43363)  -->
<!DOCTYPE svg PUBLIC "-//W3C//DTD SVG 1.1//EN" "http://www.w3.org/Graphics/SVG/1.1/DTD/svg11.dtd">
<svg version="1.1" id="图层_1" xmlns="http://www.w3.org/2000/svg" xmlns:xlink="http://www.w3.org/1999/xlink" x="0px" y="0px"
	 width="132.66px" height="106.502px" viewBox="0 0 132.66 106.502" enable-background="new 0 0 132.66 106.502"
	 xml:space="preserve">
<path fill="#4C4C4C" d="M19.122,95.081V71.576H3.718V60.953l2.391-7.702l8.101-7.702V8.899l4.913-5.18h94.018l5.179,5.18v36.65
	l8.101,7.702l2.39,7.702v10.623H113.14v23.505H19.122z"/>
<path fill="#575757" d="M22.176,94.816V71.576H7.437V60.953l2.522-7.702l7.171-7.702V8.899l5.046-5.18h88.175l5.046,5.18v36.65
	l7.171,7.702l2.523,7.702v10.623h-14.74v23.239H22.176z"/>
<path fill="#5E5E5E" d="M24.965,94.816V71.576H11.155V60.953l2.258-7.702l7.038-7.702V8.899l4.515-5.18h82.597l4.781,5.18v36.65
	l6.772,7.702l2.257,7.702v10.623h-13.811v23.239H24.965z"/>
<path fill="#696969" d="M27.754,94.816V71.576H15.005V60.953l1.992-7.702l6.507-7.702V8.899l4.25-5.18h77.02l4.249,5.18v36.65
	l6.507,7.702l1.992,7.702v10.623h-12.748v23.239H27.754z"/>
<path fill="#737373" d="M30.409,94.816V71.576H18.724V60.953l1.992-7.702l5.71-7.702V8.899l3.983-5.18h71.708l3.984,5.18v36.65
	l5.71,7.702l1.991,7.702v10.623h-11.686v23.239H30.409z"/>
<path fill="#7D7D7D" d="M33.464,94.816V71.576H22.442V60.953l1.727-7.702l5.577-7.702V8.899l3.719-5.18h65.865l3.452,5.18v36.65
	l5.577,7.702l1.727,7.702v10.623H99.329v23.239H33.464z"/>
<path fill="#858585" d="M36.252,94.816V71.576H26.16V60.953l1.594-7.702l4.913-7.702V8.899l3.585-5.18h60.022l3.586,5.18v36.65
	l4.913,7.702l1.859,7.702v10.623H96.275v23.239H36.252z"/>
<path fill="#8F8F8F" d="M38.908,94.816V71.576h-8.897V60.953l1.461-7.702l4.515-7.702V8.899l2.922-5.18h54.711l2.921,5.18v36.65
	l4.78,7.702l1.461,7.702v10.623h-9.162v23.239H38.908z"/>
<path fill="#999999" d="M41.697,94.816V71.576h-8.232V60.953l1.46-7.702l3.984-7.702V8.899l2.788-5.18H90.83l2.789,5.18v36.65
	l3.983,7.702l1.461,7.702v10.623H90.83v23.239H41.697z"/>
<path fill="#A3A3A3" d="M44.486,94.816V71.576h-7.304V60.953l1.328-7.702l3.718-7.702V8.899l2.258-5.18h43.556l2.258,5.18v36.65
	l3.718,7.702l1.328,7.702v10.623h-7.304v23.239H44.486z"/>
<path fill="#ABABAB" d="M47.54,94.816V71.576h-6.64V60.953l1.327-7.702l3.055-7.702V8.899l2.258-5.18h37.713l1.991,5.18v36.65
	l3.32,7.702l1.063,7.702v10.623h-6.374v23.239H47.54z"/>
<path fill="#B5B5B5" d="M50.196,94.816V71.576h-5.444V60.953l0.93-7.702l2.788-7.702V8.899l1.727-5.18h32.136l1.992,5.18v36.65
	l2.523,7.702l0.929,7.702v10.623h-5.444v23.239H50.196z"/>
<path fill="#BFBFBF" d="M52.985,94.816V71.576h-4.516V60.953l0.797-7.702l2.258-7.702V8.899l1.461-5.18h26.559l1.46,5.18v36.65
	l2.258,7.702l0.797,7.702v10.623h-4.515v23.239H52.985z"/>
<path fill="#C9C9C9" d="M55.773,94.816V71.576h-3.585V60.953l0.797-7.702l1.46-7.702V8.899l1.328-5.18h20.981l1.328,5.18v36.65
	l1.727,7.702l0.531,7.702v10.623h-3.586v23.239H55.773z"/>
<path fill="#D1D1D1" d="M58.562,94.816V71.576h-2.523V60.953l0.531-7.702l1.195-7.702V8.899l0.797-5.18h15.404l0.796,5.18v36.65
	l1.195,7.702l0.531,7.702v10.623h-2.522v23.239H58.562z"/>
<path fill="#DBDBDB" d="M61.483,94.816V71.576h-1.726V60.953l0.266-7.702l0.664-7.702V8.899l0.796-5.18h9.827l0.531,5.18v36.65
	l0.664,7.702l0.266,7.702v10.623H71.31v23.239H61.483z"/>
<path fill="#E5E5E5" d="M64.272,95.081V71.576h-0.797V60.953v-7.702l0.531-7.702V8.899l0.266-5.18h3.983l0.266,5.18v36.65
	l0.531,7.702v7.702v10.623h-0.797v23.505H64.272z"/>
<path fill="none" stroke="#000000" stroke-width="2" d="M19.122,95.081V71.576H3.718V60.953l2.391-7.702l8.101-7.702V8.899
	l4.913-5.18h94.018l5.179,5.18v36.65l8.101,7.702l2.39,7.702v10.623H113.14v23.505H19.122"/>
<path fill="#CCCCCC" d="M14.209,94.284h104.109v8.498H14.209V94.284z"/>
<path fill="#BFBFBF" d="M97.603,102.782l5.179-8.498h10.358l-5.047,8.498H97.603z"/>
<path fill="#BFBFBF" d="M71.575,102.782l5.179-8.498H86.98l-5.18,8.498H71.575z"/>
<path fill="#BFBFBF" d="M45.548,102.782l4.913-8.498h10.49l-5.179,8.498H45.548z"/>
<path fill="#BFBFBF" d="M19.122,102.782l5.312-8.498h10.49l-5.179,8.498H19.122z"/>
<path fill="#B2B2B2" d="M100.789,102.782l5.313-8.498h3.187l-5.179,8.498H100.789z"/>
<path fill="#B2B2B2" d="M74.762,102.782l5.313-8.498h3.187l-5.179,8.498H74.762z"/>
<path fill="#B2B2B2" d="M48.735,102.782l5.047-8.498h3.187l-4.913,8.498H48.735z"/>
<path fill="#B2B2B2" d="M22.442,102.782l5.313-8.498h3.187l-5.179,8.498H22.442z"/>
<path fill="none" stroke="#000000" stroke-width="2" d="M14.209,94.284h104.109v8.498H14.209V94.284"/>
<path fill="none" stroke="#000000" stroke-width="2" d="M19.122,71.576h94.018"/>
<path fill="none" stroke="#000000" stroke-width="2" d="M118.319,45.549H14.209"/>
<path fill="none" stroke="#000000" stroke-width="2" d="M3.718,60.953h125.091"/>
<path fill="none" stroke="#000000" stroke-width="2" d="M12.615,19.92h107.031"/>
</svg>
