<?xml version="1.0" encoding="utf-8"?>
<!-- Generator: Adobe Illustrator 14.0.0, SVG Export Plug-In . SVG Version: 6.00 Build 43363)  -->
<!DOCTYPE svg PUBLIC "-//W3C//DTD SVG 1.1//EN" "http://www.w3.org/Graphics/SVG/1.1/DTD/svg11.dtd">
<svg version="1.1" id="图层_1" xmlns="http://www.w3.org/2000/svg" xmlns:xlink="http://www.w3.org/1999/xlink" x="0px" y="0px"
	 width="144.749px" height="53.611px" viewBox="0 0 144.749 53.611" enable-background="new 0 0 144.749 53.611"
	 xml:space="preserve">
<path fill="#43A143" stroke="#000000" stroke-width="2" d="M140.547,5.072l-5.36,3.477v41.005l5.36-3.332V5.072z"/>
<path fill="#82E082" stroke="#000000" stroke-width="2" d="M4.057,8.549h26.226v41.005H4.057V8.549z"/>
<path fill="#82E082" stroke="#000000" stroke-width="2" d="M56.653,8.549h-26.37v41.005h26.37V8.549z"/>
<path fill="#82E082" d="M82.88,8.549v41.005H56.653V8.549H82.88z"/>
<path fill="#82E082" d="M109.25,49.554H82.88V38.831h26.37V49.554z"/>
<path fill="#82E082" d="M109.25,8.549h25.937v41.005H109.25V8.549z"/>
<path fill="#82E082" d="M135.186,8.549l5.36-3.477H9.418l-5.36,3.477H135.186z"/>
<path fill="none" stroke="#000000" stroke-width="2" d="M56.653,8.549H82.88v41.005H56.653V8.549"/>
<path fill="none" stroke="#000000" stroke-width="2" d="M109.25,49.554H82.88V38.831h26.37V49.554"/>
<path fill="none" stroke="#000000" stroke-width="2" d="M109.25,8.549h25.937v41.005H109.25V8.549"/>
<path fill="none" stroke="#000000" stroke-width="2" d="M4.057,8.549h131.129l5.36-3.477H9.418L4.057,8.549"/>
<path fill="#217F21" d="M112.872,17.822h1.449v4.347h-1.449V17.822z M113.162,18.112h0.869V21.3h-0.869V18.112z M12.751,17.243
	h8.983v8.838h-8.983V17.243z M13.62,17.532h7.68v7.68h-7.68V17.532z M26.661,25.792h2.173v7.389h-2.173V25.792z M26.661,26.081
	h1.594v5.941h-1.594V26.081z M21.3,10.722v2.608h-7.39v-2.608H21.3z M21.01,11.447v0.725h-5.65v-0.725H21.01z M31.442,25.792h2.318
	v7.389h-2.318V25.792z M31.732,26.081h1.448v5.941h-1.448V26.081z M78.968,25.792h2.317v7.389h-2.317V25.792z M79.257,26.081h1.449
	v5.941h-1.449V26.081z M109.25,8.549H82.88v30.282h26.37V8.549z"/>
<ellipse fill="#F0F0F0" stroke="#000000" stroke-width="2" cx="127.941" cy="5.361" rx="4.057" ry="0.725"/>
<path fill="#F0F0F0" d="M128.956,6.231h-0.29h-0.725h-1.449l-1.448,0.29l-1.449-0.29h-1.304h-0.87h-0.289l-0.29-0.29V7.39l0.29,0.29
	h0.289h0.87l1.014,0.29h1.739h1.738l1.159-0.29h1.015l0.289-0.29V5.941L128.956,6.231z"/>
<path fill="none" stroke="#000000" stroke-width="2" d="M129.245,5.941v0.29V5.941"/>
<path fill="none" stroke="#000000" stroke-width="2" d="M129.245,5.941l-0.289,0.29h-0.29h-0.725h-1.449l-1.448,0.29l-1.449-0.29
	h-1.304h-0.87h-0.289l-0.29-0.29V7.39l0.29,0.29h0.289h0.87l1.014,0.29h1.739h1.738l1.159-0.29h1.015l0.289-0.29V5.941"/>
<path fill="#92F0B0" d="M107.801,9.708H84.328v1.014h23.473V9.708z"/>
<path fill="#92F0B0" d="M107.801,11.447H84.328v1.014h23.473V11.447z"/>
<path fill="#92F0B0" d="M107.801,13.041H84.328V14.2h23.473V13.041z"/>
<path fill="#92F0B0" d="M107.801,14.779H84.328v1.159h23.473V14.779z"/>
<path fill="#92F0B0" d="M107.801,16.518H84.328v1.014h23.473V16.518z"/>
<path fill="#92F0B0" d="M107.801,18.112H84.328v1.159h23.473V18.112z"/>
<path fill="#92F0B0" d="M107.801,19.851H84.328v1.159h23.473V19.851z"/>
<path fill="#92F0B0" d="M107.801,21.589H84.328v1.159h23.473V21.589z"/>
<path fill="#92F0B0" d="M107.801,23.183H84.328v1.159h23.473V23.183z"/>
<path fill="#92F0B0" d="M107.801,24.922H84.328v1.159h23.473V24.922z"/>
<path fill="#92F0B0" d="M107.801,26.661H84.328v1.159h23.473V26.661z"/>
<path fill="#92F0B0" d="M107.801,28.255H84.328v1.158h23.473V28.255z"/>
<path fill="#92F0B0" d="M107.801,29.993H84.328v0.869h23.473V29.993z"/>
<path fill="#92F0B0" d="M107.801,31.731H84.328v1.16h23.473V31.731z"/>
<path fill="#92F0B0" d="M107.801,33.471H84.328v1.015h23.473V33.471z"/>
<path fill="#92F0B0" d="M107.801,35.064H84.328v0.87h23.473V35.064z"/>
<path fill="#92F0B0" d="M107.801,36.804H84.328v0.869h23.473V36.804z"/>
<path fill="#E0E0E0" d="M123.885,5.651h0.289V4.782l-0.289-0.145V5.651z"/>
<path fill="#E0E0E0" d="M121.421,6.231V7.68h-0.289V7.39V6.231H121.421z"/>
<path fill="#E0E0E0" d="M126.492,6.521V7.68h0.29h1.159h1.015V7.39h0.289V6.231h-0.289h-0.29h-0.725L126.492,6.521z"/>
<path fill="#E0E0E0" d="M129.245,4.782v1.449h0.29h1.449l0.869-0.29h0.29V4.637l-0.29,0.145h-0.29h-0.869h-1.159H129.245z"/>
<path fill="#7F7F7F" d="M139.822,7.969l-3.477,2.608v35.208l3.477-2.173V7.969z"/>
<path fill="#7F7F7F" d="M111.713,29.124h21.01v18.691h-21.01V29.124z"/>
<ellipse fill="#7F7F7F" cx="127.941" cy="4.492" rx="4.057" ry="0.145"/>
<ellipse fill="#7F7F7F" cx="125.044" cy="6.086" rx="4.201" ry="0.435"/>
<path fill="none" stroke="#000000" stroke-width="2" d="M111.713,14.779h21.01v10.143h-21.01V14.779"/>
<path fill="#82E082" d="M10.142,5.651h1.159V4.637h-1.159V5.651z M9.998,4.347l0.725-0.29l0.869,0.29l0.29,0.435v0.869H9.708V4.782
	L9.998,4.347z M6.81,7.969h1.159V7.1H6.81V7.969z M6.52,6.81l0.869-0.579L8.549,6.81l0.29,0.58v0.87H6.23V7.39L6.52,6.81z
	 M137.504,5.651h0.87V4.637h-0.87V5.651z M136.925,4.347l0.869-0.29l1.159,0.29v0.435v0.869h-2.318V4.782L136.925,4.347z
	 M133.302,7.969h0.869V7.1h-0.869V7.969z M132.722,6.81l1.159-0.579l0.725,0.579l0.29,0.58v0.87h-2.464V7.39L132.722,6.81z"/>
<path fill="none" stroke="#000000" stroke-width="2" d="M10.142,5.651h1.159V4.637h-1.159V5.651"/>
<path fill="none" stroke="#000000" stroke-width="2" d="M9.998,4.347l0.725-0.29l0.869,0.29l0.29,0.435v0.869H9.708V4.782
	L9.998,4.347"/>
<path fill="none" stroke="#000000" stroke-width="2" d="M6.81,7.969h1.159V7.1H6.81V7.969"/>
<path fill="none" stroke="#000000" stroke-width="2" d="M6.52,6.81l0.869-0.579L8.549,6.81l0.29,0.58v0.87H6.23V7.39L6.52,6.81"/>
<path fill="none" stroke="#000000" stroke-width="2" d="M137.504,5.651h0.87V4.637h-0.87V5.651"/>
<path fill="none" stroke="#000000" stroke-width="2" d="M136.925,4.347l0.869-0.29l1.159,0.29v0.435v0.869h-2.318V4.782
	L136.925,4.347"/>
<path fill="none" stroke="#000000" stroke-width="2" d="M133.302,7.969h0.869V7.1h-0.869V7.969"/>
<path fill="none" stroke="#000000" stroke-width="2" d="M132.722,6.81l1.159-0.579l0.725,0.579l0.29,0.58v0.87h-2.464V7.39
	L132.722,6.81"/>
</svg>
