<?xml version="1.0" encoding="utf-8"?>
<!-- Generator: Adobe Illustrator 14.0.0, SVG Export Plug-In . SVG Version: 6.00 Build 43363)  -->
<!DOCTYPE svg PUBLIC "-//W3C//DTD SVG 1.1//EN" "http://www.w3.org/Graphics/SVG/1.1/DTD/svg11.dtd">
<svg version="1.1" id="图层_1" xmlns="http://www.w3.org/2000/svg" xmlns:xlink="http://www.w3.org/1999/xlink" x="0px" y="0px"
	 width="106.502px" height="106.502px" viewBox="0 0 106.502 106.502" enable-background="new 0 0 106.502 106.502"
	 xml:space="preserve">
<path fill="#CCFFFF" d="M69.365,80.677l-10.671,1.921H47.809l-10.671-1.921l-9.711-3.842l-7.79-5.442l-5.442-6.83l-2.775-7.47
	v-7.684l2.775-7.47l5.442-6.83l7.79-5.442l9.711-3.842l10.671-1.921h10.885l10.671,1.921l9.712,3.842l7.79,5.442l5.442,6.83
	l2.774,7.47v7.684l-2.774,7.47l-5.442,6.83l-7.79,5.442L69.365,80.677z"/>
<path fill="#BFF2F2" d="M69.365,80.677l-10.671,1.921H47.809l-10.671-1.921l-9.711-3.842l25.825-27.853L37.137,25.825l10.671-1.921
	h10.885l10.671,1.921L53.251,48.983l25.826,27.853L69.365,80.677z"/>
<path fill="#E5FFFF" d="M69.365,80.677l-10.671,1.921H47.809l-10.671-1.921l16.114-31.694l-5.442-25.078h10.885l-5.443,25.078
	L69.365,80.677z"/>
<path fill="none" stroke="#000000" stroke-width="2" d="M69.365,80.677l-10.671,1.921H47.809l-10.671-1.921l-9.711-3.842
	l-7.79-5.442l-5.442-6.83l-2.775-7.47v-7.684l2.775-7.47l5.442-6.83l7.79-5.442l9.711-3.842l10.671-1.921h10.885l10.671,1.921
	l9.712,3.842l7.79,5.442l5.442,6.83l2.774,7.47v7.684l-2.774,7.47l-5.442,6.83l-7.79,5.442L69.365,80.677"/>
<path fill="#99CCCC" stroke="#000000" stroke-width="2" d="M95.083,57.093l-2.774,7.47l-5.442,6.83l-7.79,5.442l-9.712,3.842
	l-10.671,1.921H47.809l-10.671-1.921l-9.711-3.842l-7.79-5.442l-5.442-6.83l-2.775-7.47v-2.454l2.775,7.043l5.442,6.296l7.79,5.016
	l9.711,3.629l10.671,1.813h10.885l10.671-1.813l9.712-3.629l7.79-5.016l5.442-6.296l2.774-7.043V57.093z"/>
<path fill="#CBE5E5" d="M46.421,2.881L33.722,6.403L22.304,13.02l-9.284,9.284L6.403,33.722L2.881,46.635v13.232l3.521,12.699
	l6.617,11.525l9.391,9.391l11.525,6.617l12.699,3.521h13.233l12.699-3.521l11.525-6.617l9.391-9.391l6.616-11.525l3.521-12.699
	V46.635l-3.521-12.913L93.483,22.41l-9.284-9.391L72.567,6.403L59.868,2.881H46.421l1.601,2.027h10.672l10.671,3.309l9.712,6.403
	l7.79,9.07l5.442,10.885l2.774,12.272v12.593l-2.774,12.272l-5.442,11.099l-7.79,9.07l-9.712,6.297l-10.671,3.414H47.809
	l-10.671-3.414l-9.711-6.297l-7.79-9.07l-5.442-11.099l-2.775-12.272V46.848l2.775-12.272l5.442-10.885l7.79-9.07l9.498-6.297
	l11.098-3.415L46.421,2.881z"/>
<path fill="none" stroke="#000000" stroke-width="2" d="M72.567,100.1l-12.699,3.521H46.635L33.936,100.1L22.41,93.483l-9.391-9.391
	L6.403,72.567L2.881,59.867V46.635l3.521-12.913L13.02,22.41l9.391-9.391l11.525-6.617l12.699-3.521h13.233l12.699,3.521
	l11.632,6.617l9.284,9.391l6.616,11.525l3.521,12.699v13.232l-3.521,12.699l-6.616,11.525l-9.391,9.391L72.567,100.1"/>
<path fill="none" stroke="#000000" stroke-width="2" d="M69.365,98.179l-10.671,3.414H47.809l-10.671-3.414l-9.711-6.297l-7.79-9.07
	l-5.442-10.886l-2.775-12.271V46.848l2.775-12.272l5.442-10.885l7.79-9.07l9.711-6.297l10.671-3.415h10.885l10.671,3.309
	l9.712,6.403l7.79,9.07l5.442,10.885l2.774,12.272v12.593l-2.774,12.272l-5.442,11.099l-7.79,9.07L69.365,98.179"/>
<path fill="#E5FFFF" d="M70.966,100.1l9.284-6.617l8.217-9.391l5.87-11.525l2.987-12.699V46.635l-2.987-12.913l-5.87-11.312
	L80.25,13.02l-9.284-6.617l11.846,6.617l8.857,9.391l6.51,11.312l3.201,12.913v13.232l-3.201,12.699l-6.297,11.525l-9.07,9.391
	L70.966,100.1z"/>
<path fill="#E5FFFF" d="M35.536,100.1l-9.284-6.617l-8.217-9.391l-5.87-11.525L9.178,59.867V46.635l2.988-12.913l5.87-11.418
	l8.217-9.284l9.071-6.617L23.691,13.02l-9.071,9.284L8.324,33.722L4.909,46.635v13.232l3.415,12.699l6.296,11.525l9.071,9.391
	L35.536,100.1z"/>
<path fill="#99CCCC" d="M11.418,47.062h83.665v3.948H11.418V47.062z"/>
<path fill="#CCFFFF" d="M11.418,45.461h83.665v1.601H11.418V45.461z"/>
<path fill="none" stroke="#000000" stroke-width="2" d="M11.418,45.461h83.665v5.549H11.418V45.461"/>
<path fill="none" stroke="#000000" stroke-width="2" d="M11.846,47.062h82.278"/>
</svg>
