<?xml version="1.0" encoding="utf-8"?>
<!-- Generator: Adobe Illustrator 14.0.0, SVG Export Plug-In . SVG Version: 6.00 Build 43363)  -->
<!DOCTYPE svg PUBLIC "-//W3C//DTD SVG 1.1//EN" "http://www.w3.org/Graphics/SVG/1.1/DTD/svg11.dtd">
<svg version="1.1" id="图层_1" xmlns="http://www.w3.org/2000/svg" xmlns:xlink="http://www.w3.org/1999/xlink" x="0px" y="0px"
	 width="144.749px" height="67.377px" viewBox="0 0 144.749 67.377" enable-background="new 0 0 144.749 67.377"
	 xml:space="preserve">
<path fill="#99CCCC" d="M130.55,27.821h9.997v6.23h-9.997V27.821z M115.19,24.778h15.359v12.316H115.19V24.778z M9.998,14.635
	H115.19v32.602H9.998V14.635z M9.998,38.978h-5.94V22.894h5.94v1.884H6.23v12.316h3.768V38.978z M8.983,15.794h1.015v1.884H8.983
	V15.794z M8.983,44.194h1.015v1.884H8.983V44.194z M8.983,29.994h1.015v1.883H8.983V29.994z"/>
<path fill="none" stroke="#000000" stroke-width="2" d="M130.55,27.821h9.997v6.23h-9.997V27.821"/>
<path fill="none" stroke="#000000" stroke-width="2" d="M115.19,24.778h15.359v12.316H115.19V24.778"/>
<path fill="none" stroke="#000000" stroke-width="2" d="M9.998,14.635H115.19v32.602H9.998V14.635"/>
<path fill="none" stroke="#000000" stroke-width="2" d="M9.998,38.978h-5.94V22.894h5.94v1.884H6.23v12.316h3.768V38.978"/>
<path fill="none" stroke="#000000" stroke-width="2" d="M8.983,15.794h1.015v1.884H8.983V15.794"/>
<path fill="none" stroke="#000000" stroke-width="2" d="M8.983,44.194h1.015v1.884H8.983V44.194"/>
<path fill="none" stroke="#000000" stroke-width="2" d="M8.983,29.994h1.015v1.883H8.983V29.994"/>
<path fill="#99CCCC" stroke="#000000" stroke-width="2" d="M102.15,16.519l-3.043-1.015v-4.636l3.043-1.159h4.057l2.898,1.159v4.636
	l-2.898,1.015H102.15z"/>
<path fill="#99CCCC" stroke="#000000" stroke-width="2" d="M99.107,10.578h-4.202l-0.724,1.014h-3.333V6.666h3.333l0.724,0.869
	h4.202V10.578z"/>
<path fill="none" stroke="#000000" stroke-width="2" d="M130.55,28.835h9.997"/>
<path fill="none" stroke="#000000" stroke-width="2" d="M140.547,32.892h-9.997"/>
<path fill="none" stroke="#000000" stroke-width="2" d="M12.171,47.237V14.635"/>
<path fill="none" stroke="#000000" stroke-width="2" d="M92.008,6.666v4.926"/>
<path fill="none" stroke="#000000" stroke-width="2" d="M94.181,6.666v4.926"/>
<path fill="#99CCCC" stroke="#000000" stroke-width="2" d="M12.171,61.436h34.485v1.884H12.171V61.436z"/>
<path fill="#99CCCC" stroke="#000000" stroke-width="2" d="M36.223,45.063l4.202,2.174v13.909l-22.169,0.29V47.237l4.057-2.174
	l4.058-0.869h6.085L36.223,45.063z"/>
<path fill="#99CCCC" stroke="#000000" stroke-width="2" d="M63.608,61.436h34.63v1.884h-34.63V61.436z"/>
<path fill="#99CCCC" stroke="#000000" stroke-width="2" d="M88.095,45.063l3.912,2.174v13.909l-22.169,0.29V47.237l4.058-2.174
	l4.201-0.869h5.941L88.095,45.063z"/>
<path fill="#99CCCC" stroke="#000000" stroke-width="2" d="M101.57,12.172l-3.622-1.304V5.362l3.622-1.304h5.217l3.478,1.304v5.507
	l-3.478,1.304H101.57z"/>
<path fill="#99CCCC" stroke="#000000" stroke-width="2" d="M101.57,51.293l-4.347-0.869v-1.015l4.347-0.869h5.941l4.347,0.869v1.015
	l-4.347,0.869H101.57z"/>
<path fill="#99CCCC" stroke="#000000" stroke-width="2" d="M97.223,48.25v-1.304l4.347-0.869h5.941l4.347,0.869v1.304H97.223z"/>
</svg>
