<?xml version="1.0" encoding="utf-8"?>
<!-- Generator: Adobe Illustrator 14.0.0, SVG Export Plug-In . SVG Version: 6.00 Build 43363)  -->
<!DOCTYPE svg PUBLIC "-//W3C//DTD SVG 1.1//EN" "http://www.w3.org/Graphics/SVG/1.1/DTD/svg11.dtd">
<svg version="1.1" id="图层_1" xmlns="http://www.w3.org/2000/svg" xmlns:xlink="http://www.w3.org/1999/xlink" x="0px" y="0px"
	 width="106.502px" height="106.502px" viewBox="0 0 106.502 106.502" enable-background="new 0 0 106.502 106.502"
	 xml:space="preserve">
<path fill="#99CCCC" stroke="#000000" stroke-width="2" d="M45.735,69.509l-8.849-8.849L14.179,83.155l2.239,2.239L2.985,99.039
	l4.371,4.371l13.646-13.433l2.239,2.239L45.735,69.509z"/>
<path fill="#99CCCC" stroke="#000000" stroke-width="2" d="M100.638,27.078l2.56-2.559L81.875,2.985l-2.771,2.772l2.771,2.559
	L33.688,56.61l-2.772-2.772l-2.665,2.772l21.535,21.321l2.559-2.665l-2.559-2.771l48.08-47.975L100.638,27.078z"/>
<path fill="#99CCCC" stroke="#000000" stroke-width="2" d="M87.207,8.316l3.944-3.944l10.661,10.66l-3.945,3.945l-1.279-1.387
	l2.666-2.559L91.151,6.93l-2.559,2.878L87.207,8.316z"/>
<path fill="#99CCCC" stroke="#000000" stroke-width="2" d="M31.45,27.824h-3.198v25.373h3.198v-2.984h11.3l7.676-4.052l6.609-5.65
	l4.798-9.595H31.45V27.824z"/>
<path fill="#99CCCC" stroke="#000000" stroke-width="2" d="M100.212,53.198h3.198V27.824h-3.198v3.092H89.019l-7.676,4.052
	l-6.61,5.543l-4.903,9.702h30.383V53.198z"/>
<path fill="#99CCCC" stroke="#000000" stroke-width="2" d="M41.151,61.62l2.772,0.426l2.452-2.238l-0.213-2.239l2.985-1.599
	l-3.412-3.412l-1.813,2.879h-2.132l-2.239,2.132l0.533,2.879L41.151,61.62z"/>
<path fill="none" stroke="#000000" stroke-width="2" d="M41.151,61.62l2.772,0.426l2.452-2.238l-0.213-2.239l2.985-1.599
	l-3.412-3.412l-1.813,2.879h-2.132l-2.239,2.132l0.533,2.879L41.151,61.62"/>
<path fill="none" stroke="#000000" stroke-width="2" d="M40.938,61.3h2.239l2.132-2.346l0.427-1.705l2.665-2.025l-2.025-2.026
	l-2.026,2.559l-1.812,0.427l-2.239,2.239l-0.213,2.238L40.938,61.3"/>
<path fill="none" stroke="#000000" stroke-width="2" d="M40.725,61.087l1.599-0.64l2.239-2.239l0.746-1.386l2.452-2.238
	l-0.746-0.747l-2.239,2.346l-1.386,0.853l-2.239,2.133l-0.64,1.705L40.725,61.087"/>
<path fill="#99CCCC" stroke="#000000" stroke-width="2" d="M50.746,71.109l2.878,0.532l2.132-2.132v-2.238l2.878-1.813l-3.197-3.412
	l-1.813,2.772h-2.239l-2.239,2.452l0.426,2.771L50.746,71.109z"/>
<path fill="none" stroke="#000000" stroke-width="2" d="M50.746,71.109l2.878,0.532l2.132-2.132v-2.238l2.878-1.813l-3.197-3.412
	l-1.813,2.772h-2.239l-2.239,2.452l0.426,2.771L50.746,71.109"/>
<path fill="none" stroke="#000000" stroke-width="2" d="M50.639,70.895h2.132l2.239-2.452l0.427-1.812l2.559-1.813l-2.025-2.133
	l-1.92,2.559l-1.812,0.427L50,67.91l-0.213,2.132L50.639,70.895"/>
<path fill="none" stroke="#000000" stroke-width="2" d="M50.426,70.682l1.599-0.64l2.132-2.346l0.853-1.386l2.345-2.025
	l-0.746-0.854l-2.238,2.239l-1.386,0.96l-2.239,2.238l-0.533,1.6L50.426,70.682"/>
</svg>
