<?xml version="1.0" encoding="utf-8"?>
<!-- Generator: Adobe Illustrator 14.0.0, SVG Export Plug-In . SVG Version: 6.00 Build 43363)  -->
<!DOCTYPE svg PUBLIC "-//W3C//DTD SVG 1.1//EN" "http://www.w3.org/Graphics/SVG/1.1/DTD/svg11.dtd">
<svg version="1.1" id="图层_1" xmlns="http://www.w3.org/2000/svg" xmlns:xlink="http://www.w3.org/1999/xlink" x="0px" y="0px"
	 width="144.749px" height="87.805px" viewBox="0 0 144.749 87.805" enable-background="new 0 0 144.749 87.805"
	 xml:space="preserve">
<path fill="#B2B2B2" stroke="#000000" stroke-width="2" d="M4.058,83.747V4.057h136.487l-11.446,2.897H15.505v73.75L4.058,83.747z"
	/>
<path fill="#E5E5E5" stroke="#000000" stroke-width="2" d="M140.546,4.057v79.689H4.058l11.446-2.753h113.595V6.955L140.546,4.057z"
	/>
<path fill="#D8E5E5" d="M132.142,80.705l2.753-72.301l5.65-1.449l-2.608,73.75H132.142z"/>
<path fill="#999999" d="M140.546,4.057v79.689h-2.608V4.492L140.546,4.057z"/>
<path fill="#FFFFFF" d="M132.142,80.705V6.955h2.753L132.142,80.705z"/>
<path fill="#BFCCCC" d="M15.505,80.705V8.404h-3.043L6.667,80.705H15.505z"/>
<path fill="#FFFFFF" d="M6.667,76.068l5.795-64.477L6.667,38.975V76.068z"/>
<path fill="#333333" d="M137.937,45.061h2.608v7.244h-2.608V45.061z"/>
<path fill="#333333" d="M4.058,45.061h2.608v7.244H4.058V45.061z"/>
<path fill="none" stroke="#000000" stroke-width="2" d="M6.667,6.955v75.198"/>
<path fill="none" stroke="#000000" stroke-width="2" d="M137.937,83.747V8.404"/>
<path fill="#D8E5E5" d="M132.142,69.548v2.753H12.462v-2.753l5.651-45.641h108.378L132.142,69.548z"/>
<path fill="#D1DEDE" d="M132.142,69.548v2.753H12.462v-2.753l1.884-15.358l113.16-21.299L132.142,69.548z"/>
<path fill="#C9D6D6" d="M132.142,69.548v2.753H12.462v-2.753l1.159-8.693L128.23,39.265L132.142,69.548z"/>
<path fill="#A5B2B2" d="M132.142,69.548v2.753H12.462v-2.753H132.142z"/>
<path fill="none" stroke="#000000" stroke-width="2" d="M132.142,69.548v2.753H12.462v-2.753l5.651-45.641h108.378L132.142,69.548"
	/>
<path fill="none" stroke="#FFFFFF" stroke-width="2" d="M18.113,41.149h108.378"/>
<path fill="none" stroke="#FFFFFF" stroke-width="2" d="M15.505,66.505h113.595"/>
<path fill="none" stroke="#336666" stroke-width="2" d="M18.113,26.95h108.378"/>
<path fill="none" stroke="#336666" stroke-width="2" d="M18.113,43.902h108.378"/>
</svg>
