<?xml version="1.0" encoding="utf-8"?>
<!-- Generator: Adobe Illustrator 14.0.0, SVG Export Plug-In . SVG Version: 6.00 Build 43363)  -->
<!DOCTYPE svg PUBLIC "-//W3C//DTD SVG 1.1//EN" "http://www.w3.org/Graphics/SVG/1.1/DTD/svg11.dtd">
<svg version="1.1" id="图层_1" xmlns="http://www.w3.org/2000/svg" xmlns:xlink="http://www.w3.org/1999/xlink" x="0px" y="0px"
	 width="108.563px" height="106.502px" viewBox="0 0 108.563 106.502" enable-background="new 0 0 108.563 106.502"
	 xml:space="preserve">
<path d="M4.999,102.806h17.278v0.651H4.999V102.806z"/>
<path d="M86.176,102.806h17.278v0.651H86.176V102.806z"/>
<path fill="#191919" stroke="#000000" stroke-width="2" d="M99.542,26.627h-6.955V10.544l0.761,0.543l0.762,0.435l0.652,0.543
	l0.651,0.652l0.543,0.761l0.543,0.761l0.544,0.869l0.436,0.979l0.435,1.087l0.435,1.086l0.219,1.195l0.326,1.305l0.217,1.304
	l0.218,1.413l0.108,1.521L99.542,26.627z"/>
<path fill="#4C4C4C" d="M45.641,26.627h55.53v55.422h-55.53V26.627z"/>
<path fill="#474747" d="M45.641,62.054l55.53-11.737v31.732h-55.53V62.054z"/>
<path fill="#424242" d="M45.641,64.444l55.53-11.845v29.45h-55.53V64.444z"/>
<path fill="#3D3D3D" d="M45.641,67.704l55.53-10.76v25.104h-55.53V67.704z"/>
<path fill="none" stroke="#000000" stroke-width="2" d="M45.641,26.627h55.53v55.422h-55.53V26.627"/>
<path fill="#4C4C4C" d="M3.043,82.049H105.41v20.757H3.043V82.049z"/>
<path fill="#474747" d="M3.043,96.828l102.367-8.804v14.779H3.043V96.828z"/>
<path fill="#424242" d="M3.043,97.698l102.367-8.586v13.693H3.043V97.698z"/>
<path fill="#3D3D3D" d="M3.043,98.894l102.367-8.586v12.498H3.043V98.894z"/>
<path fill="none" stroke="#000000" stroke-width="2" d="M3.043,82.049H105.41v20.757H3.043V82.049"/>
<path fill="#CCCCCC" d="M3.043,39.233h42.599v42.816H3.043V39.233z"/>
<path d="M4.999,39.233h38.578v42.816H4.999V39.233z"/>
<path fill="none" stroke="#CCCCCC" stroke-width="2" d="M4.999,43.579h38.578"/>
<path fill="none" stroke="#CCCCCC" stroke-width="2" d="M4.999,47.818h38.578"/>
<path fill="none" stroke="#CCCCCC" stroke-width="2" d="M4.999,52.164h38.578"/>
<path fill="none" stroke="#CCCCCC" stroke-width="2" d="M4.999,56.511h38.578"/>
<path fill="none" stroke="#CCCCCC" stroke-width="2" d="M4.999,60.858h38.578"/>
<path fill="none" stroke="#CCCCCC" stroke-width="2" d="M4.999,64.879h38.578"/>
<path fill="none" stroke="#CCCCCC" stroke-width="2" d="M4.999,69.226h38.578"/>
<path fill="none" stroke="#CCCCCC" stroke-width="2" d="M4.999,73.464h38.578"/>
<path fill="none" stroke="#CCCCCC" stroke-width="2" d="M4.999,77.812h38.578"/>
<path fill="none" stroke="#000000" stroke-width="2" d="M3.043,39.233h42.599v42.816H3.043V39.233"/>
<path fill="#7F7F7F" d="M54.226,26.627V9.566h38.579v17.062L54.226,26.627L54.226,26.627z"/>
<path fill="#999999" d="M54.226,22.281V11.63h38.579v10.65L54.226,22.281L54.226,22.281z"/>
<path fill="#B2B2B2" d="M54.226,17.934v-4.348h38.579v4.348H54.226z"/>
<path fill="none" stroke="#000000" stroke-width="2" d="M54.226,26.627V9.566h38.579v17.062L54.226,26.627"/>
<path fill="#B2B2B2" d="M71.18,3.045h17.277v12.823H71.18V3.045z"/>
<path fill="none" stroke="#000000" stroke-width="2" d="M71.18,15.868V3.045h17.277v12.823"/>
<path fill="none" stroke="#000000" stroke-width="2" d="M56.291,9.566v17.062"/>
<path d="M71.18,5.219H39.23v0.435h31.95V5.219z"/>
<path d="M54.226,17.934H39.23v0.651h14.996V17.934z"/>
<path d="M39.23,18.585V5.219h-0.544v13.366H39.23z"/>
<path d="M45.641,30.213H30.645v0.652h14.996V30.213z"/>
<path d="M30.645,30.213L7.063,39.45l0.218,0.435l23.581-9.021L30.645,30.213z"/>
<path fill="#999999" d="M44.554,6.306v-1.63h4.348l4.347,0.543v0.435l-4.347,0.652H44.554z"/>
<path fill="#E5E5E5" d="M44.554,5.654V5.219h4.348l4.347,0.217v0.218h-4.347H44.554z"/>
<path fill="none" stroke="#000000" stroke-width="2" d="M44.554,6.306v-1.63h4.348l4.347,0.543v0.435l-4.347,0.652H44.554"/>
<path fill="#CCCCCC" d="M84.219,38.906h12.605v9.998H84.219V38.906z"/>
<path fill="#999999" d="M84.219,38.906h12.605V36.19H84.219V38.906z"/>
<path fill="#333333" d="M84.219,70.203h12.605V48.905H84.219V70.203z"/>
<path fill="#666666" d="M56.291,44.558h16.191v27.927H56.291V44.558z"/>
<path fill="#333333" d="M58.573,68.14h2.065v2.063h-2.065V68.14z"/>
<path fill="#333333" d="M61.616,68.14h2.282v2.063h-2.282V68.14z"/>
<path fill="#333333" d="M64.876,68.14h2.065v2.063h-2.065V68.14z"/>
<path fill="#333333" d="M68.137,68.14H70.2v2.063h-2.063V68.14z"/>
<path fill="#333333" d="M58.573,64.879h2.065v2.282h-2.065V64.879z"/>
<path fill="#333333" d="M61.616,64.879h2.282v2.282h-2.282V64.879z"/>
<path fill="#333333" d="M64.876,64.879h2.065v2.282h-2.065V64.879z"/>
<path fill="#333333" d="M68.137,64.879H70.2v2.282h-2.063V64.879z"/>
<path fill="#333333" d="M58.573,61.836h2.065v2.063h-2.065V61.836z"/>
<path fill="#333333" d="M61.616,61.836h2.282v2.063h-2.282V61.836z"/>
<path fill="#333333" d="M64.876,61.836h2.065v2.063h-2.065V61.836z"/>
<path fill="#333333" d="M68.137,61.836H70.2v2.063h-2.063V61.836z"/>
<path fill="#333333" d="M58.573,58.576h2.065v2.28h-2.065V58.576z"/>
<path fill="#333333" d="M61.616,58.576h2.282v2.28h-2.282V58.576z"/>
<path fill="#333333" d="M64.876,58.576h2.065v2.28h-2.065V58.576z"/>
<path fill="#333333" d="M68.137,58.576H70.2v2.28h-2.063V58.576z"/>
<path fill="#333333" d="M58.573,48.905h11.628v3.26H58.573V48.905z"/>
<path fill="none" stroke="#B2B2B2" stroke-width="2" d="M56.291,72.485h15.975V44.558"/>
<path fill="none" stroke="#000000" stroke-width="2" d="M72.266,44.558H56.291v27.927"/>
<path fill="#CCCCCC" d="M73.896,11.63h12.932v5.325H73.896V11.63z"/>
</svg>
