<?xml version="1.0" encoding="utf-8"?>
<!-- Generator: Adobe Illustrator 14.0.0, SVG Export Plug-In . SVG Version: 6.00 Build 43363)  -->
<!DOCTYPE svg PUBLIC "-//W3C//DTD SVG 1.1//EN" "http://www.w3.org/Graphics/SVG/1.1/DTD/svg11.dtd">
<svg version="1.1" id="图层_1" xmlns="http://www.w3.org/2000/svg" xmlns:xlink="http://www.w3.org/1999/xlink" x="0px" y="0px"
	 width="115.77px" height="106.502px" viewBox="0 0 115.77 106.502" enable-background="new 0 0 115.77 106.502"
	 xml:space="preserve">
<path fill="#E5E5CB" d="M7.764,7.534v93.52h100.125V7.534H7.764L3.129,3.131h109.396v100.124H3.129V3.131L7.764,7.534z"/>
<path fill="none" stroke="#000000" stroke-width="2" d="M3.129,3.131h109.396v100.124H3.129V3.131"/>
<path fill="none" stroke="#000000" stroke-width="2" d="M7.764,14.604h47.86v86.45h4.403v-86.45h47.859v-7.07H7.764V14.604"/>
<path fill="none" stroke="#000000" stroke-width="2" d="M7.764,7.534h100.125v93.52H7.764V7.534"/>
<path fill="#CCCCB2" d="M7.764,14.604h47.86v86.45h4.403v-86.45h47.859v-7.07H7.764V14.604z"/>
<path fill="#B2B298" d="M7.764,12.17h100.125v2.434H7.764V12.17z"/>
<path fill="#FFFFE5" d="M6.721,7.534h1.043v93.52H6.721V7.534z"/>
<path fill="#FFFFE5" d="M107.889,7.534h1.043v93.52h-1.043V7.534z"/>
<path fill="#FFFFE5" d="M108.932,6.491v1.043H6.721V6.491H108.932z"/>
<path fill="#FFFFE5" d="M57.132,7.534h1.392v93.52h-1.392V7.534z"/>
<path fill="none" stroke="#B2B265" stroke-width="2" d="M6.721,101.054V6.491h102.21v94.563"/>
<path d="M7.764,17.385h49.367v3.94H7.764V17.385z"/>
<path d="M5.331,17.385h1.391v3.94H5.331V17.385z"/>
<path d="M108.932,17.385h1.391v3.94h-1.391V17.385z"/>
<path d="M58.521,17.385h49.367v3.94H58.521V17.385z"/>
<path d="M7.764,46.472h49.367v3.94H7.764V46.472z"/>
<path d="M5.331,46.472h1.391v3.94H5.331V46.472z"/>
<path d="M108.932,46.472h1.391v3.94h-1.391V46.472z"/>
<path d="M58.521,46.472h49.367v3.94H58.521V46.472z"/>
<path d="M7.764,75.56h49.367v3.939H7.764V75.56z"/>
<path d="M5.331,75.56h1.391v3.939H5.331V75.56z"/>
<path d="M108.932,75.56h1.391v3.939h-1.391V75.56z"/>
<path d="M58.521,75.56h49.367v3.939H58.521V75.56z"/>
</svg>
