<?xml version="1.0" encoding="utf-8"?>
<!-- Generator: Adobe Illustrator 14.0.0, SVG Export Plug-In . SVG Version: 6.00 Build 43363)  -->
<!DOCTYPE svg PUBLIC "-//W3C//DTD SVG 1.1//EN" "http://www.w3.org/Graphics/SVG/1.1/DTD/svg11.dtd">
<svg version="1.1" id="图层_1" xmlns="http://www.w3.org/2000/svg" xmlns:xlink="http://www.w3.org/1999/xlink" x="0px" y="0px"
	 width="115.77px" height="106.502px" viewBox="0 0 115.77 106.502" enable-background="new 0 0 115.77 106.502"
	 xml:space="preserve">
<path fill="#E5E5CB" d="M7.764,7.534v93.402h100.125V7.534H7.764L3.129,3.131h109.396v100.124H3.129V3.131L7.764,7.534z"/>
<path fill="none" stroke="#000000" stroke-width="2" d="M3.129,3.131h109.396v100.124H3.129V3.131"/>
<path fill="none" stroke="#000000" stroke-width="2" d="M7.764,14.488h47.86v86.451h4.403V14.488h47.859V7.534H7.764V14.488"/>
<path fill="none" stroke="#000000" stroke-width="2" d="M7.764,7.534h100.125v93.635H7.764V7.534"/>
<path fill="#CCCCB2" d="M7.764,14.488h47.86v86.451h4.403V14.488h47.859V7.534H7.764V14.488z"/>
<path fill="#B2B298" d="M7.764,12.17h100.125v2.317H7.764V12.17z"/>
<path fill="#FFFFE5" d="M6.721,7.534h1.043v93.402H6.721V7.534z"/>
<path fill="#FFFFE5" d="M107.889,7.534h1.043v93.402h-1.043V7.534z"/>
<path fill="#FFFFE5" d="M108.932,6.491v1.043H6.721V6.491H108.932z"/>
<path fill="#FFFFE5" d="M57.132,7.534h1.392v93.402h-1.392V7.534z"/>
<path fill="none" stroke="#B2B265" stroke-width="2" d="M6.721,100.938V6.491h102.21v94.445"/>
<path fill="#E5E5CB" d="M60.607,14.488h46.586l1.738,25.031H58.87L60.607,14.488z"/>
<path fill="#E5E5CB" d="M8.228,14.488h46.817l1.738,25.031H6.721L8.228,14.488z"/>
<path fill="#E5E5CB" d="M60.607,43.343h46.586l1.738,25.146H58.87L60.607,43.343z"/>
<path fill="#E5E5CB" d="M8.228,43.343h46.817l1.738,25.146H6.721L8.228,43.343z"/>
<path fill="#E5E5CB" stroke="#000000" stroke-width="2" d="M60.607,72.431h46.586l1.738,25.146H58.87L60.607,72.431z"/>
<path fill="#E5E5CB" stroke="#000000" stroke-width="2" d="M8.228,72.431h46.817l1.738,25.146H6.721L8.228,72.431z"/>
<path fill="#D9D9BF" d="M60.607,14.488h46.586l0.231,4.867L59.797,30.944L60.607,14.488z"/>
<path fill="#D9D9BF" d="M8.228,14.488h46.817l0.115,4.867L7.533,30.944L8.228,14.488z"/>
<path fill="#D9D9BF" d="M60.607,43.343h46.586l0.231,5.099L59.797,60.03L60.607,43.343z"/>
<path fill="#D9D9BF" d="M8.228,43.343h46.817l0.115,5.099L7.533,60.03L8.228,43.343z"/>
<path fill="#D9D9BF" d="M60.607,72.431h46.586l0.231,5.098L59.797,88.886L60.607,72.431z"/>
<path fill="#D9D9BF" d="M8.228,72.431h46.817l0.115,5.098L7.533,88.886L8.228,72.431z"/>
<path fill="#F2F2D8" d="M107.657,22.136l1.274,17.383H58.87l0.927-5.679L107.657,22.136z"/>
<path fill="#F2F2D8" d="M55.161,22.368l1.623,17.15H6.721l0.812-5.679L55.161,22.368z"/>
<path fill="#F2F2D8" d="M107.657,51.339l1.274,17.15H58.87l0.927-5.678L107.657,51.339z"/>
<path fill="#F2F2D8" d="M55.161,51.339l1.623,17.15H6.721l0.812-5.678L55.161,51.339z"/>
<path fill="#F2F2D8" d="M107.657,80.31l1.274,17.269H58.87l0.927-5.679L107.657,80.31z"/>
<path fill="#F2F2D8" d="M55.161,80.31l1.623,17.269H6.721l0.812-5.679L55.161,80.31z"/>
<path fill="#99997F" d="M60.607,14.488h46.586l0.231,3.129H60.492L60.607,14.488z"/>
<path fill="#99997F" d="M8.228,14.488h46.817l0.115,3.129H8.228V14.488z"/>
<path fill="#99997F" d="M60.607,43.343h46.586l0.231,3.36H60.492L60.607,43.343z"/>
<path fill="#99997F" d="M8.228,43.343h46.817l0.115,3.36H8.228V43.343z"/>
<path fill="#99997F" d="M60.607,72.431h46.586l0.231,3.359H60.492L60.607,72.431z"/>
<path fill="#99997F" d="M8.228,72.431h46.817l0.115,3.359H8.228V72.431z"/>
<path d="M7.764,17.385h49.367v3.94H7.764V17.385z"/>
<path d="M5.331,17.385h1.391v3.94H5.331V17.385z"/>
<path d="M108.932,17.385h1.391v3.94h-1.391V17.385z"/>
<path d="M58.521,17.385h49.367v3.94H58.521V17.385z"/>
<path d="M7.764,46.472h49.367v3.94H7.764V46.472z"/>
<path d="M5.331,46.472h1.391v3.94H5.331V46.472z"/>
<path d="M108.932,46.472h1.391v3.94h-1.391V46.472z"/>
<path d="M58.521,46.472h49.367v3.94H58.521V46.472z"/>
<path d="M7.764,75.327h49.367v4.172H7.764V75.327z"/>
<path d="M5.331,75.327h1.391v4.172H5.331V75.327z"/>
<path d="M108.932,75.327h1.391v4.172h-1.391V75.327z"/>
<path d="M58.521,75.327h49.367v4.172H58.521V75.327z"/>
<path fill="none" stroke="#000000" stroke-width="2" d="M60.607,43.343h46.586l1.738,25.146H58.87L60.607,43.343"/>
<path fill="none" stroke="#000000" stroke-width="2" d="M8.228,43.343h46.817l1.738,25.146H6.721L8.228,43.343"/>
<path fill="none" stroke="#000000" stroke-width="2" d="M60.607,14.488h46.586l1.738,25.031H58.87L60.607,14.488"/>
<path fill="none" stroke="#000000" stroke-width="2" d="M8.228,14.488h46.817l1.738,25.031H6.721L8.228,14.488"/>
</svg>
