<?xml version="1.0" encoding="utf-8"?>
<!-- Generator: Adobe Illustrator 14.0.0, SVG Export Plug-In . SVG Version: 6.00 Build 43363)  -->
<!DOCTYPE svg PUBLIC "-//W3C//DTD SVG 1.1//EN" "http://www.w3.org/Graphics/SVG/1.1/DTD/svg11.dtd">
<svg version="1.1" id="图层_1" xmlns="http://www.w3.org/2000/svg" xmlns:xlink="http://www.w3.org/1999/xlink" x="0px" y="0px"
	 width="131.35px" height="106.502px" viewBox="0 0 131.35 106.502" enable-background="new 0 0 131.35 106.502"
	 xml:space="preserve">
<path fill="#333333" d="M21.168,75.997h6.18v1.973h-6.18V75.997z"/>
<path fill="#CCCCCC" d="M11.833,69.817h8.415V96.64h-8.415V69.817z"/>
<path fill="#CCCCCC" d="M20.248,77.97H28.4v22.877h-8.151L20.248,77.97L20.248,77.97z"/>
<path fill="#C7C7C7" d="M20.248,94.142l8.151-9.467v16.172h-8.151V94.142z"/>
<path fill="#C7C7C7" d="M11.833,88.882l8.415-11.176V96.64h-8.415V88.882z"/>
<path fill="#C2C2C2" d="M20.248,95.062l8.151-9.334v15.119h-8.151V95.062z"/>
<path fill="#C2C2C2" d="M11.833,89.935l8.415-11.177V96.64h-8.415V89.935z"/>
<path fill="#BDBDBD" d="M20.248,96.64l8.151-9.467v13.674h-8.151V96.64z"/>
<path fill="#BDBDBD" d="M11.833,91.644l8.415-11.176V96.64h-8.415V91.644z"/>
<path fill="#657F7F" d="M36.683,12.098h4.076v82.438h-4.076V12.098z"/>
<path fill="#657F7F" d="M115.177,12.098h4.207v82.438h-4.207V12.098z"/>
<path fill="none" stroke="#000000" stroke-width="2" d="M40.759,12.098v82.438"/>
<path fill="none" stroke="#000000" stroke-width="2" d="M115.177,12.098v82.438"/>
<path fill="#D8E5E5" d="M121.357,35.633v1.052L34.58,36.816v-1.183l4.208-17.355h78.362L121.357,35.633z"/>
<path fill="#D8E5E5" d="M121.357,60.351v1.053L34.58,61.667v-1.314l4.208-17.355h78.362L121.357,60.351z"/>
<path fill="#D8E5E5" d="M121.357,85.201v1.052L34.58,86.384v-1.183l4.208-17.354h78.362L121.357,85.201z"/>
<path fill="#D1DEDE" d="M121.357,85.201v1.052L34.58,86.384v-1.183l1.578-5.917l82.044-8.151L121.357,85.201z"/>
<path fill="#D1DEDE" d="M121.357,60.351v1.053L34.58,61.667v-1.314l1.578-5.916l82.044-8.152L121.357,60.351z"/>
<path fill="#D1DEDE" d="M121.357,35.633v1.052L34.58,36.816v-1.183l1.578-6.049l82.044-8.151L121.357,35.633z"/>
<path fill="#C9D6D6" d="M121.357,35.633v1.052L34.58,36.816v-1.183l0.789-3.287l83.359-8.415L121.357,35.633z"/>
<path fill="#C9D6D6" d="M121.357,60.351v1.053L34.58,61.667v-1.314l0.789-3.156l83.359-8.414L121.357,60.351z"/>
<path fill="#C9D6D6" d="M121.357,85.201v1.052L34.58,86.384v-1.183l0.789-3.156l83.359-8.546L121.357,85.201z"/>
<path fill="#A5B2B2" d="M121.357,85.201v1.052L34.58,86.384v-1.183H121.357z"/>
<path fill="#A5B2B2" d="M121.357,60.351v1.053L34.58,61.667v-1.314h86.777V60.351z"/>
<path fill="#A5B2B2" d="M121.357,35.633v1.052L34.58,36.816v-1.183H121.357z"/>
<path fill="none" stroke="#336666" stroke-width="2" d="M38.787,25.64h78.362"/>
<path fill="none" stroke="#336666" stroke-width="2" d="M38.787,19.198h78.362"/>
<path fill="none" stroke="#336666" stroke-width="2" d="M38.787,50.49h78.362"/>
<path fill="none" stroke="#336666" stroke-width="2" d="M38.787,44.047h78.362"/>
<path fill="none" stroke="#336666" stroke-width="2" d="M38.787,75.34h78.362"/>
<path fill="none" stroke="#336666" stroke-width="2" d="M38.787,68.767h78.362"/>
<path fill="none" stroke="#FFFFFF" stroke-width="2" d="M36.683,84.149h82.701"/>
<path fill="none" stroke="#FFFFFF" stroke-width="2" d="M38.787,74.288h78.362"/>
<path fill="none" stroke="#FFFFFF" stroke-width="2" d="M36.683,59.431h82.701"/>
<path fill="none" stroke="#FFFFFF" stroke-width="2" d="M38.787,49.57h78.362"/>
<path fill="none" stroke="#FFFFFF" stroke-width="2" d="M36.683,34.581h82.701"/>
<path fill="none" stroke="#FFFFFF" stroke-width="2" d="M38.787,24.72h78.362"/>
<path fill="none" stroke="#000000" stroke-width="2" d="M121.357,85.201v1.052L34.58,86.384v-1.183l4.208-17.354h78.362
	L121.357,85.201"/>
<path fill="none" stroke="#000000" stroke-width="2" d="M121.357,60.351v1.053L34.58,61.667v-1.314l4.208-17.355h78.362
	L121.357,60.351"/>
<path fill="none" stroke="#000000" stroke-width="2" d="M121.357,35.633v1.052L34.58,36.816v-1.183l4.208-17.355h78.362
	L121.357,35.633"/>
<path fill="#B2CCCC" d="M71.789,12.098H83.49l10.387,2.629l9.468,5.522l7.626,7.626l5.521,9.467l2.893,10.387v10.913l-2.893,10.65
	l-5.521,9.466l-7.626,7.626l-9.468,5.26L83.49,94.536H72.578l-10.52-2.893l-9.335-5.392l-7.758-7.495l-5.391-9.466l-2.893-10.649
	V47.729l2.893-10.387l5.391-9.467l7.758-7.626l9.335-5.522L71.789,12.098V3.683H28.4v99.136h99.137V3.683H71.789V12.098z"/>
<path fill="#AAC4C4" d="M116.492,37.342l2.893,10.387v10.913l-2.893,10.65l-5.521,9.466l-7.627,7.626l-9.467,5.26L83.49,94.536
	H72.578l-10.52-2.893l-9.335-5.392l-7.758-7.495l-5.391-9.466l-2.893-10.649L28.4,61.666v41.153h99.137v-70.21L116.492,37.342z"/>
<path fill="#A3BDBD" d="M117.675,41.549l1.709,6.18v10.913l-2.893,10.65l-5.521,9.466l-7.626,7.626l-9.468,5.26L83.49,94.536H72.578
	l-10.52-2.893l-9.335-5.392l-7.758-7.495l-5.391-9.466l-1.709-6.181l-9.465,2.5v37.209h99.137V36.816L117.675,41.549z"/>
<path fill="none" stroke="#CCFFFF" stroke-width="2" d="M110.97,27.875l5.521,9.467l2.893,10.387v10.913l-2.893,10.52l-5.521,9.598
	l-7.626,7.626l-9.468,5.261L83.49,94.536H72.578l-10.52-2.893l-9.335-5.392l-7.758-7.495"/>
<path fill="none" stroke="#000000" stroke-width="2" d="M28.4,3.683h99.137v99.136H28.4V3.683"/>
<path fill="none" stroke="#003333" stroke-width="2" d="M44.966,78.758l-5.391-9.466l-2.893-10.65V47.729l2.893-10.387l5.391-9.467
	l7.758-7.626l9.335-5.522l10.519-2.629H83.49l10.387,2.629l9.468,5.522l7.626,7.626"/>
<path fill="none" stroke="#000000" stroke-width="2" d="M20.248,77.97H28.4v22.877h-8.151L20.248,77.97"/>
<path fill="none" stroke="#000000" stroke-width="2" d="M11.833,69.817h8.415V96.64h-8.415V69.817"/>
<path fill="#CCCCCC" stroke="#000000" stroke-width="2" d="M20.248,69.817H28.4v6.181h-8.151L20.248,69.817L20.248,69.817z"/>
<path fill="#7F7F7F" d="M3.682,92.563h8.151v1.974H3.682V92.563z"/>
<path fill="#B2B2B2" d="M3.682,92.958h8.151v1.184H3.682V92.958z"/>
<path fill="#E5E5E5" d="M3.682,93.353h8.151v0.264H3.682V93.353z"/>
<path fill="none" stroke="#000000" stroke-width="2" d="M3.682,92.563h8.151v1.974H3.682V92.563"/>
<path fill="#333333" stroke="#000000" stroke-width="2" d="M20.248,69.817V59.431l0.92-1.973l7.231,0.921v-1.974l-6.705-0.92h-1.446
	l-1.709,1.973l-0.526,2.893v9.467H20.248z"/>
</svg>
