<?xml version="1.0" encoding="utf-8"?>
<!-- Generator: Adobe Illustrator 14.0.0, SVG Export Plug-In . SVG Version: 6.00 Build 43363)  -->
<!DOCTYPE svg PUBLIC "-//W3C//DTD SVG 1.1//EN" "http://www.w3.org/Graphics/SVG/1.1/DTD/svg11.dtd">
<svg version="1.1" id="图层_1" xmlns="http://www.w3.org/2000/svg" xmlns:xlink="http://www.w3.org/1999/xlink" x="0px" y="0px"
	 width="115.77px" height="106.502px" viewBox="0 0 115.77 106.502" enable-background="new 0 0 115.77 106.502"
	 xml:space="preserve">
<path fill="#CCCCB2" d="M7.764,14.604h47.86v86.334h4.403V14.604h47.859v-7.07H7.764V14.604z"/>
<path fill="#E5E5CB" d="M60.027,14.604h47.861v86.913H60.027V14.604z"/>
<path fill="#E5E5CB" d="M7.764,14.604h47.86v86.913H7.764V14.604z"/>
<path fill="#D9D9BF" d="M60.027,14.604h47.861v7.185L60.027,32.683V14.604z"/>
<path fill="#D9D9BF" d="M60.027,43.459h47.861v7.416L60.027,61.537V43.459z"/>
<path fill="#D9D9BF" d="M60.027,72.431h47.861v7.531L60.027,90.624V72.431z"/>
<path fill="#D9D9BF" d="M7.764,14.604h47.86v7.185L7.764,32.682V14.604z"/>
<path fill="#D9D9BF" d="M7.764,43.459h47.86v7.416L7.764,61.537V43.459z"/>
<path fill="#D9D9BF" d="M7.764,72.431h47.86v7.531L7.764,90.624V72.431z"/>
<path fill="#F2F2D8" d="M107.889,82.28v19.236H60.027v-7.879L107.889,82.28z"/>
<path fill="#F2F2D8" d="M107.889,53.194v19.237H60.027v-7.765L107.889,53.194z"/>
<path fill="#F2F2D8" d="M107.889,24.222v19.237H60.027v-7.881L107.889,24.222z"/>
<path fill="#F2F2D8" d="M55.625,82.28v19.236H7.764v-7.879L55.625,82.28z"/>
<path fill="#F2F2D8" d="M55.625,53.194v19.237H7.764v-7.765L55.625,53.194z"/>
<path fill="#F2F2D8" d="M55.625,24.222v19.237H7.764v-7.881L55.625,24.222z"/>
<path fill="none" stroke="#000000" stroke-width="2" d="M60.027,72.431h47.861v29.086H60.027V72.431"/>
<path fill="none" stroke="#000000" stroke-width="2" d="M60.027,14.604h47.861v28.855H60.027V14.604"/>
<path fill="none" stroke="#000000" stroke-width="2" d="M60.027,43.459h47.861v28.972H60.027V43.459"/>
<path fill="none" stroke="#000000" stroke-width="2" d="M7.764,72.431h47.86v29.086H7.764V72.431"/>
<path fill="none" stroke="#000000" stroke-width="2" d="M7.764,14.604h47.86v28.855H7.764V14.604"/>
<path fill="none" stroke="#000000" stroke-width="2" d="M7.764,43.459h47.86v28.972H7.764V43.459"/>
<path fill="#E5E5CB" d="M7.764,7.534v93.402h100.125V7.534H7.764L3.129,3.131h109.396v100.124H3.129V3.131L7.764,7.534z"/>
<path fill="none" stroke="#000000" stroke-width="2" d="M3.129,3.131h109.396v100.124H3.129V3.131"/>
<path fill="none" stroke="#000000" stroke-width="2" d="M7.764,14.604h47.86v86.334h4.403V14.604h47.859v-7.07H7.764V14.604"/>
<path fill="none" stroke="#000000" stroke-width="2" d="M7.764,7.534h100.125v93.52H7.764V7.534"/>
<path fill="#B2B298" d="M7.764,12.17h100.125v2.434H7.764V12.17z"/>
<path fill="#FFFFE5" d="M6.721,7.534h1.043v93.402H6.721V7.534z"/>
<path fill="#FFFFE5" d="M107.889,7.534h1.043v93.402h-1.043V7.534z"/>
<path fill="#FFFFE5" d="M108.932,6.491v1.043H6.721V6.491H108.932z"/>
<path fill="#FFFFE5" d="M57.132,7.534h1.392v93.402h-1.392V7.534z"/>
<path fill="none" stroke="#B2B265" stroke-width="2" d="M6.721,100.938V6.491h102.21v94.445"/>
<path d="M7.764,17.385h49.367v3.94H7.764V17.385z"/>
<path d="M5.331,17.385h1.391v3.94H5.331V17.385z"/>
<path d="M108.932,17.385h1.391v3.94h-1.391V17.385z"/>
<path d="M58.521,17.385h49.367v3.94H58.521V17.385z"/>
<path d="M7.764,46.24h49.367v4.172H7.764V46.24z"/>
<path d="M5.331,46.24h1.391v4.172H5.331V46.24z"/>
<path d="M108.932,46.24h1.391v4.172h-1.391V46.24z"/>
<path d="M58.521,46.24h49.367v4.172H58.521V46.24z"/>
<path d="M7.764,75.327h49.367v3.939H7.764V75.327z"/>
<path d="M5.331,75.327h1.391v3.939H5.331V75.327z"/>
<path d="M108.932,75.327h1.391v3.939h-1.391V75.327z"/>
<path d="M58.521,75.327h49.367v3.939H58.521V75.327z"/>
</svg>
