<?xml version="1.0" encoding="utf-8"?>
<!-- Generator: Adobe Illustrator 14.0.0, SVG Export Plug-In . SVG Version: 6.00 Build 43363)  -->
<!DOCTYPE svg PUBLIC "-//W3C//DTD SVG 1.1//EN" "http://www.w3.org/Graphics/SVG/1.1/DTD/svg11.dtd">
<svg version="1.1" id="图层_1" xmlns="http://www.w3.org/2000/svg" xmlns:xlink="http://www.w3.org/1999/xlink" x="0px" y="0px"
	 width="144.749px" height="64.915px" viewBox="0 0 144.749 64.915" enable-background="new 0 0 144.749 64.915"
	 xml:space="preserve">
<path fill="#F2E5CC" d="M4.057,4.059h136.489v45.352H4.057V4.059z"/>
<path fill="#EDE0C7" d="M4.057,36.225l136.489-19.126v32.312H4.057V36.225z"/>
<path fill="#E8DBC2" d="M4.057,38.108l136.489-19.125v30.428H4.057V38.108z"/>
<path fill="#E3D6BD" d="M4.057,40.862l136.489-18.836v27.385H4.057V40.862z"/>
<path fill="none" stroke="#000000" stroke-width="2" d="M4.057,4.059h136.489v45.352H4.057V4.059"/>
<path fill="#BDB097" d="M6.665,49.411h131.274v11.446H6.665V49.411z"/>
<path fill="#C2B59C" d="M6.665,57.524l131.274-4.926v8.259H6.665V57.524z"/>
<path fill="#C7BAA1" d="M6.665,58.104l131.274-4.927v7.68H6.665V58.104z"/>
<path fill="#CCBFA6" d="M6.665,58.683l131.274-4.636v6.81H6.665V58.683z"/>
<path fill="none" stroke="#000000" stroke-width="2" d="M6.665,49.411h131.274v11.446H6.665V49.411"/>
<path fill="none" stroke="#998C73" stroke-width="2" d="M6.665,49.411V4.059"/>
<path fill="none" stroke="#998C73" stroke-width="2" d="M18.257,6.667h58.393v39.99H18.257V6.667"/>
<path fill="none" stroke="#998C73" stroke-width="2" d="M79.402,6.667h58.537v39.99H79.402V6.667"/>
<path fill="none" stroke="#000000" stroke-width="2" d="M80.85,12.462h5.651v-0.58H80.85v-0.435h5.651v-0.29H80.85v-0.58h5.651
	v-0.58H80.85v-0.58h5.651"/>
<path fill="none" stroke="#000000" stroke-width="2" d="M87.805,12.462h5.796v-0.58h-5.796v-0.435h5.796v-0.29h-5.796v-0.58h5.796
	v-0.58h-5.796v-0.58h5.796"/>
<path fill="none" stroke="#000000" stroke-width="2" d="M94.905,12.462h5.796v-0.58h-5.796v-0.435h5.796v-0.29h-5.796v-0.58h5.796
	v-0.58h-5.796v-0.58h5.796"/>
<path fill="none" stroke="#000000" stroke-width="2" d="M102.006,12.462h5.795v-0.58h-5.795v-0.435h5.795v-0.29h-5.795v-0.58h5.795
	v-0.58h-5.795v-0.58h5.795"/>
<path fill="none" stroke="#000000" stroke-width="2" d="M109.105,12.462h5.796v-0.58h-5.796v-0.435h5.796v-0.29h-5.796v-0.58h5.796
	v-0.58h-5.796v-0.58h5.796"/>
<path fill="none" stroke="#000000" stroke-width="2" d="M116.349,12.462h5.651v-0.58h-5.651v-0.435h5.651v-0.29h-5.651v-0.58h5.651
	v-0.58h-5.651v-0.58h5.651"/>
<path fill="none" stroke="#000000" stroke-width="2" d="M123.449,12.462h5.651v-0.58h-5.651v-0.435h5.651v-0.29h-5.651v-0.58h5.651
	v-0.58h-5.651v-0.58h5.651"/>
<path fill="none" stroke="#000000" stroke-width="2" d="M130.55,12.462h5.65v-0.58h-5.65v-0.435h5.65v-0.29h-5.65v-0.58h5.65v-0.58
	h-5.65v-0.58h5.65"/>
<path fill="none" stroke="#000000" stroke-width="2" d="M19.56,12.462h5.796v-0.58H19.56v-0.435h5.796v-0.29H19.56v-0.58h5.796
	v-0.58H19.56v-0.58h5.796"/>
<path fill="none" stroke="#000000" stroke-width="2" d="M26.661,12.462h5.795v-0.58h-5.795v-0.435h5.795v-0.29h-5.795v-0.58h5.795
	v-0.58h-5.795v-0.58h5.795"/>
<path fill="none" stroke="#000000" stroke-width="2" d="M33.76,12.462h5.796v-0.58H33.76v-0.435h5.796v-0.29H33.76v-0.58h5.796
	v-0.58H33.76v-0.58h5.796"/>
<path fill="none" stroke="#000000" stroke-width="2" d="M40.86,12.462h5.796v-0.58H40.86v-0.435h5.796v-0.29H40.86v-0.58h5.796
	v-0.58H40.86v-0.58h5.796"/>
<path fill="none" stroke="#000000" stroke-width="2" d="M47.96,12.462h5.796v-0.58H47.96v-0.435h5.796v-0.29H47.96v-0.58h5.796
	v-0.58H47.96v-0.58h5.796"/>
<path fill="none" stroke="#000000" stroke-width="2" d="M55.059,12.462h5.796v-0.58h-5.796v-0.435h5.796v-0.29h-5.796v-0.58h5.796
	v-0.58h-5.796v-0.58h5.796"/>
<path fill="none" stroke="#000000" stroke-width="2" d="M62.449,12.462h5.506v-0.58h-5.506v-0.435h5.506v-0.29h-5.506v-0.58h5.506
	v-0.58h-5.506v-0.58h5.506"/>
<path fill="none" stroke="#000000" stroke-width="2" d="M69.549,12.462h5.507v-0.58h-5.507v-0.435h5.507v-0.29h-5.507v-0.58h5.507
	v-0.58h-5.507v-0.58h5.507"/>
<path fill="none" stroke="#000000" stroke-width="2" d="M15.504,57.814h16.952v-0.29H15.504v-0.579h16.952V56.51H15.504v-0.29
	h16.952v-0.579H15.504v-0.58h16.952v-0.58H15.504v-0.145h16.952v-0.58H15.504v-0.579h16.952v-0.579H15.504v-0.29h16.952"/>
<path fill="none" stroke="#000000" stroke-width="2" d="M33.76,57.814h28.398v-0.29H33.76v-0.579h28.398V56.51H33.76v-0.29h28.398
	v-0.579H33.76v-0.58h28.398v-0.58H33.76v-0.145h28.398v-0.58H33.76v-0.579h28.398v-0.579H33.76v-0.29h28.398"/>
<path fill="none" stroke="#000000" stroke-width="2" d="M63.754,57.814H80.85v-0.29H63.754v-0.579H80.85V56.51H63.754v-0.29H80.85
	v-0.579H63.754v-0.58H80.85v-0.58H63.754v-0.145H80.85v-0.58H63.754v-0.579H80.85v-0.579H63.754v-0.29H80.85"/>
<path fill="none" stroke="#000000" stroke-width="2" d="M82.155,57.814h28.688v-0.29H82.155v-0.579h28.688V56.51H82.155v-0.29
	h28.688v-0.579H82.155v-0.58h28.688v-0.58H82.155v-0.145h28.688v-0.58H82.155v-0.579h28.688v-0.579H82.155v-0.29h28.688"/>
<path fill="none" stroke="#000000" stroke-width="2" d="M112.148,57.814H129.1v-0.29h-16.952v-0.579H129.1V56.51h-16.952v-0.29
	H129.1v-0.579h-16.952v-0.58H129.1v-0.58h-16.952v-0.145H129.1v-0.58h-16.952v-0.579H129.1v-0.579h-16.952v-0.29H129.1"/>
<path d="M23.907,7.536h2.754v1.449h-2.754V7.536z"/>
<path d="M67.955,7.536h2.898v1.449h-2.898V7.536z"/>
<path d="M85.197,7.536h2.608v1.449h-2.608V7.536z"/>
<path d="M129.1,7.536h3.043v1.449H129.1V7.536z"/>
</svg>
