<?xml version="1.0" encoding="utf-8"?>
<!-- Generator: Adobe Illustrator 14.0.0, SVG Export Plug-In . SVG Version: 6.00 Build 43363)  -->
<!DOCTYPE svg PUBLIC "-//W3C//DTD SVG 1.1//EN" "http://www.w3.org/Graphics/SVG/1.1/DTD/svg11.dtd">
<svg version="1.1" id="图层_1" xmlns="http://www.w3.org/2000/svg" xmlns:xlink="http://www.w3.org/1999/xlink" x="0px" y="0px"
	 width="144.749px" height="49.262px" viewBox="0 0 144.749 49.262" enable-background="new 0 0 144.749 49.262"
	 xml:space="preserve">
<path fill="#7F7F7F" stroke="#000000" stroke-width="2" d="M15.506,11.012h11.156v25.79H15.506V11.012z"/>
<path fill="#7F7F7F" d="M97.947,45.205l2.753-1.304v-7.1h2.753v7.1l3.043,1.304H97.947z"/>
<path fill="#7F7F7F" d="M4.059,45.205l2.897-1.304v-4.927h42.598v4.927l2.753,1.304H4.059z"/>
<path fill="#CCCCCC" d="M26.662,6.231h91.28v28.397h-91.28V6.231z"/>
<path fill="#E5E5E5" d="M117.942,7.534h22.603l-11.446,24.341h-11.156V7.534z"/>
<path fill="#E5E5E5" stroke="#000000" stroke-width="2" d="M26.662,34.628h91.28v2.174h-91.28V34.628z"/>
<path fill="#E5E5E5" stroke="#000000" stroke-width="2" d="M6.957,36.802h42.598v2.173H6.957V36.802z"/>
<path fill="#C7C7C7" d="M26.662,30.281l91.28-16.952v21.299h-91.28V30.281z"/>
<path fill="#C2C2C2" d="M26.662,31.875l91.28-17.241v19.994h-91.28V31.875z"/>
<path fill="#BDBDBD" d="M26.662,33.18l91.28-16.952v18.4h-91.28V33.18z"/>
<path fill="#E0E0E0" d="M117.942,18.981l18.836-3.478l-7.68,16.372h-11.156V18.981z"/>
<path fill="#DBDBDB" d="M136.198,17.097l-7.1,14.778h-11.156V20.429L136.198,17.097z"/>
<path fill="#D6D6D6" d="M135.184,18.981l-6.086,12.895h-11.156V21.734L135.184,18.981z"/>
<path fill="#B2B2B2" d="M4.059,45.205l2.897-1.304h42.598l2.753,1.304H4.059z"/>
<path fill="#B2B2B2" d="M97.947,45.205l2.753-1.304h2.753l3.043,1.304H97.947z"/>
<path fill="#B2B2B2" d="M29.705,17.676h15.503v1.305H29.705V17.676z"/>
<path d="M31.009,14.634h1.449v1.448h-1.449V14.634z"/>
<path fill="#CCCCCC" d="M10.579,35.933l0.435,0.869h14.345l1.304-1.304V21.154l-1.304,1.449v12.896H11.013L10.579,35.933z"/>
<path fill="#CCCCCC" d="M13.332,17.097l0.435,0.579h11.881l1.015-1.158V6.231l-1.015,1.014v9.273H13.766L13.332,17.097z"/>
<path fill="#F2F2F2" d="M25.358,22.603l1.304-1.449H11.013L9.71,22.603v12.896l0.869,0.435l0.435-0.435V22.603H25.358z"/>
<path fill="#F2F2F2" d="M25.647,7.244l1.015-1.014H13.766l-1.304,1.014v9.273l0.869,0.579l0.435-0.579V7.244H25.647z"/>
<path fill="#E5E5E5" d="M13.766,7.244h11.881v9.273H13.766V7.244z"/>
<path fill="#E5E5E5" d="M11.013,22.603h14.345v12.896H11.013V22.603z"/>
<path fill="#B2B2B2" d="M117.652,18.981V7.534h1.594v11.446H117.652z"/>
<path fill="#ADADAD" d="M117.652,18.981v1.448h1.594v-1.448H117.652z"/>
<path fill="#A8A8A8" d="M117.652,20.429v1.305h1.594v-1.305H117.652z"/>
<path fill="#A3A3A3" d="M117.652,31.875V21.734h1.594v10.142H117.652z"/>
<path d="M49.554,36.802h68.388v0.579H49.554V36.802z"/>
<path fill="#4C4C4C" d="M6.957,38.975h42.598v0.58H6.957V38.975z"/>
<path fill="none" stroke="#000000" stroke-width="2" d="M97.947,45.205l2.753-1.304v-7.1h2.753v7.1l3.043,1.304H97.947"/>
<path fill="none" stroke="#000000" stroke-width="2" d="M4.059,45.205l2.897-1.304v-4.927h42.598v4.927l2.753,1.304H4.059"/>
<path fill="none" stroke="#000000" stroke-width="2" d="M117.942,7.534h22.603l-11.446,24.341h-11.156V7.534"/>
<path fill="none" stroke="#000000" stroke-width="2" d="M26.662,6.231h91.28v28.397h-91.28V6.231"/>
<path fill="none" stroke="#000000" stroke-width="2" d="M26.662,16.518V6.231H13.766l-1.304,1.014v9.273l1.304,1.158h11.881
	L26.662,16.518"/>
<path fill="none" stroke="#000000" stroke-width="2" d="M26.662,35.498V21.154H11.013L9.71,22.603v12.896l1.304,1.304h14.345
	L26.662,35.498"/>
<path fill="#CCCCCC" stroke="#000000" stroke-width="2" d="M14.635,4.057h10.723v2.174H14.635V4.057z"/>
<path fill="#CCCCCC" stroke="#000000" stroke-width="2" d="M28.835,4.057h0.87v2.174h-0.87V4.057z"/>
<path fill="#CCCCCC" stroke="#000000" stroke-width="2" d="M116.348,4.057h0.725v2.174h-0.725V4.057z"/>
</svg>
