<?xml version="1.0" encoding="utf-8"?>
<!-- Generator: Adobe Illustrator 14.0.0, SVG Export Plug-In . SVG Version: 6.00 Build 43363)  -->
<!DOCTYPE svg PUBLIC "-//W3C//DTD SVG 1.1//EN" "http://www.w3.org/Graphics/SVG/1.1/DTD/svg11.dtd">
<svg version="1.1" id="图层_1" xmlns="http://www.w3.org/2000/svg" xmlns:xlink="http://www.w3.org/1999/xlink" x="0px" y="0px"
	 width="120.766px" height="106.502px" viewBox="0 0 120.766 106.502" enable-background="new 0 0 120.766 106.502"
	 xml:space="preserve">
<path fill="#B2B2B2" stroke="#000000" stroke-width="2" d="M3.385,98.403H117.26v4.714H3.385V98.403z"/>
<path fill="#999999" d="M22.243,98.403V79.423H8.1l-4.715-4.715V27.2L8.1,22.486h14.144v-7.253l-2.297-2.297V5.803l2.297-2.417
	h76.158l2.297,2.417v7.133l-2.297,2.297v7.253h14.144l4.715,4.715v47.508l-4.715,4.715H98.402v18.979H22.243z"/>
<path fill="#9E9E9E" d="M24.54,98.403V79.423H11.121l-4.594-4.715V27.079l4.594-4.594H24.54v-7.253l-2.297-2.297V5.803l2.297-2.417
	h71.564l2.297,2.417v7.133l-2.297,2.297v7.253h13.418l4.594,4.594v47.629l-4.594,4.715H96.105v18.979H24.54z"/>
<path fill="#A6A6A6" d="M26.837,98.403V79.423H14.023l-4.11-4.715V27.079l4.11-4.594h12.814v-7.253l-2.297-2.297V5.803l2.297-2.417
	H94.05l2.055,2.417v7.133l-2.055,2.297v7.253h12.572l4.109,4.594v47.629l-4.109,4.715H94.05v18.979H26.837z"/>
<path fill="#ABABAB" d="M28.892,98.403V79.423H17.045l-3.868-4.715V27.079l3.868-4.594h11.847v-7.253l-2.055-2.297V5.803
	l2.055-2.417h62.861l2.055,2.417v7.133l-2.055,2.297v7.253H103.6l3.868,4.594v47.629l-3.868,4.715H91.753v18.979H28.892z"/>
<path fill="#B2B2B2" d="M31.189,98.403V79.423H19.947l-3.627-4.715V27.079l3.627-4.594h11.242v-7.253l-1.935-2.297V5.803
	l1.935-2.417h58.509l1.813,2.417v7.133l-1.813,2.297v7.253h11.001l3.627,4.594v47.629l-3.627,4.715H89.698v18.979H31.189z"/>
<path fill="#B8B8B8" d="M33.243,98.403V79.423H23.21l-3.506-4.715V27.079l3.506-4.594h10.033v-7.253l-1.692-2.297V5.803l1.692-2.417
	h54.157l1.813,2.417v7.133l-1.813,2.297v7.253h10.275l3.144,4.594v47.629l-3.144,4.715H87.401v18.979H33.243z"/>
<path fill="#BFBFBF" d="M35.42,98.403V79.423h-9.309l-3.144-4.715V27.079l3.144-4.594h9.309v-7.253l-1.572-2.297V5.803l1.572-2.417
	h49.805l1.571,2.417v7.133l-1.571,2.297v7.253h9.309l3.143,4.594v47.629l-3.143,4.715h-9.309v18.979H35.42z"/>
<path fill="#C4C4C4" d="M37.475,98.403V79.423h-8.341l-3.022-4.715V27.079l3.022-4.594h8.341v-7.253l-1.33-2.297V5.803l1.33-2.417
	H83.17l1.329,2.417v7.133l-1.329,2.297v7.253h8.341l3.022,4.594v47.629l-3.022,4.715H83.17v18.979H37.475z"/>
<path fill="#CCCCCC" d="M39.772,98.403V79.423h-7.736l-2.539-4.715V27.079l2.539-4.594h7.736v-7.253l-1.33-2.297V5.803l1.33-2.417
	h41.102l1.329,2.417v7.133l-1.329,2.297v7.253h7.736l2.539,4.594v47.629l-2.539,4.715h-7.736v18.979H39.772z"/>
<path fill="#D1D1D1" d="M41.826,98.403V79.423h-6.77l-2.297-4.715V27.079l2.297-4.594h6.77v-7.253l-1.088-2.297V5.803l1.088-2.417
	h36.991l1.088,2.417v7.133l-1.088,2.297v7.253h6.77l2.297,4.594v47.629l-2.297,4.715h-6.77v18.979H41.826z"/>
<path fill="#D9D9D9" d="M44.123,98.403V79.423h-6.165l-2.055-4.715V27.079l2.055-4.594h6.165v-7.253l-1.088-2.297V5.803l1.088-2.417
	h32.397l1.088,2.417v7.133l-1.088,2.297v7.253h6.166l2.055,4.594v47.629l-2.055,4.715h-6.166v18.979H44.123z"/>
<path fill="#DEDEDE" d="M46.179,98.403V79.423h-5.198l-1.571-4.715V27.079l1.571-4.594h5.198v-7.253l-0.726-2.297V5.803l0.726-2.417
	h28.287l0.847,2.417v7.133l-0.847,2.297v7.253h5.198l1.813,4.594v47.629l-1.813,4.715h-5.198v18.979H46.179z"/>
<path fill="#E5E5E5" d="M48.476,98.403V79.423h-4.594l-1.33-4.715V27.079l1.33-4.594h4.594v-7.253l-0.726-2.297V5.803l0.726-2.417
	h23.693l0.726,2.417v7.133l-0.726,2.297v7.253h4.594l1.33,4.594v47.629l-1.33,4.715h-4.594v18.979H48.476z"/>
<path fill="#EBEBEB" d="M50.773,98.403V79.423h-3.627l-1.45-4.715V27.079l1.45-4.594h3.627v-7.253l-0.726-2.297V5.803l0.726-2.417
	h19.342l0.483,2.417v7.133l-0.483,2.297v7.253h3.626l1.209,4.594v47.629l-1.209,4.715h-3.626v18.979H50.773z"/>
<path fill="#F2F2F2" d="M52.827,98.403V79.423h-2.78l-0.967-4.715V27.079l0.967-4.594h2.78v-7.253l-0.483-2.297V5.803l0.483-2.417
	h14.99l0.483,2.417v7.133l-0.483,2.297v7.253h2.78l1.088,4.594v47.629l-1.088,4.715h-2.78v18.979H52.827z"/>
<path fill="#F7F7F7" d="M55.124,98.403V79.423H53.07l-0.726-4.715V27.079l0.726-4.594h2.055v-7.253l-0.483-2.297V5.803l0.483-2.417
	h10.396l0.483,2.417v7.133l-0.483,2.297v7.253h2.055l0.726,4.594v47.629l-0.726,4.715h-2.055v18.979H55.124z"/>
<path fill="#FFFFFF" d="M57.059,98.403V79.423H55.97l-0.483-4.715V27.2l0.483-4.715h1.089v-7.253l-0.121-2.297V5.803l0.121-2.417
	h6.406l0.242,2.417v7.133l-0.242,2.297v7.253h1.209l0.363,4.715v47.508l-0.363,4.715h-1.209v18.979H57.059z"/>
<path fill="#666666" d="M22.243,84.259v-4.836H8.1l-4.715-4.715H117.26l-4.715,4.715H98.402v4.836H22.243z"/>
<path fill="#6B6B6B" d="M24.54,84.017v-4.594H11.121l-4.594-4.715h107.589l-4.594,4.715H96.105v4.594H24.54z"/>
<path fill="#737373" d="M26.837,84.017v-4.594H14.023l-4.11-4.715h100.819l-4.109,4.715H94.05v4.594H26.837z"/>
<path fill="#787878" d="M28.892,84.017v-4.594H17.045l-3.868-4.715h94.291l-3.868,4.715H91.753v4.594H28.892z"/>
<path fill="#7F7F7F" d="M31.189,84.017v-4.594H19.947l-3.627-4.715h88.006l-3.627,4.715H89.698v4.594H31.189z"/>
<path fill="#858585" d="M33.243,84.017v-4.594H23.21l-3.506-4.715h81.115l-3.144,4.715H87.401v4.594H33.243z"/>
<path fill="#8C8C8C" d="M35.42,84.017v-4.594h-9.309l-3.144-4.715h74.708l-3.143,4.715h-9.309v4.594H35.42z"/>
<path fill="#919191" d="M37.475,84.017v-4.594h-8.341l-3.022-4.715h68.422l-3.022,4.715H83.17v4.594H37.475z"/>
<path fill="#999999" d="M39.772,84.017v-4.594h-7.736l-2.539-4.715h61.652l-2.539,4.715h-7.736v4.594H39.772z"/>
<path fill="#9E9E9E" d="M41.826,84.017v-4.594h-6.77l-2.297-4.715h55.124l-2.297,4.715h-6.77v4.594H41.826z"/>
<path fill="#A6A6A6" d="M44.123,84.017v-4.594h-6.165l-2.055-4.715h48.838l-2.055,4.715h-6.166v4.594H44.123z"/>
<path fill="#ABABAB" d="M46.179,84.017v-4.594h-5.198l-1.571-4.715h42.068l-1.813,4.715h-5.198v4.594H46.179z"/>
<path fill="#B2B2B2" d="M48.476,84.017v-4.594h-4.594l-1.33-4.715h35.541l-1.33,4.715h-4.594v4.594H48.476z"/>
<path fill="#B8B8B8" d="M50.773,84.017v-4.594h-3.627l-1.45-4.715h29.254l-1.209,4.715h-3.626v4.594H50.773z"/>
<path fill="#BFBFBF" d="M52.827,84.017v-4.594h-2.78l-0.967-4.715h22.605l-1.088,4.715h-2.78v4.594H52.827z"/>
<path fill="#C4C4C4" d="M55.124,84.017v-4.594H53.07l-0.726-4.715h15.957l-0.726,4.715h-2.055v4.594H55.124z"/>
<path fill="#CCCCCC" d="M57.059,84.259v-4.836H55.97l-0.483-4.715h9.551l-0.363,4.715h-1.209v4.836H57.059z"/>
<path fill="none" stroke="#000000" stroke-width="2" d="M22.243,98.403V79.423H8.1l-4.715-4.715V27.2L8.1,22.486h14.144v-7.253
	l-2.297-2.297V5.803l2.297-2.417h76.158l2.297,2.417v7.133l-2.297,2.297v7.253h14.144l4.715,4.715v47.508l-4.715,4.715H98.402
	v18.979H22.243"/>
<path fill="none" stroke="#000000" stroke-width="2" d="M22.243,79.423h76.158"/>
<path fill="none" stroke="#7F7F7F" stroke-width="2" d="M22.243,22.486h76.158"/>
<path fill="none" stroke="#7F7F7F" stroke-width="2" d="M22.243,15.233h76.158"/>
<path d="M16.32,100.699h1.209v1.329H16.32V100.699z"/>
<path d="M102.874,100.699h1.451v1.329h-1.451V100.699z"/>
</svg>
