<?xml version="1.0" encoding="utf-8"?>
<!-- Generator: Adobe Illustrator 14.0.0, SVG Export Plug-In . SVG Version: 6.00 Build 43363)  -->
<!DOCTYPE svg PUBLIC "-//W3C//DTD SVG 1.1//EN" "http://www.w3.org/Graphics/SVG/1.1/DTD/svg11.dtd">
<svg version="1.1" id="图层_1" xmlns="http://www.w3.org/2000/svg" xmlns:xlink="http://www.w3.org/1999/xlink" x="0px" y="0px"
	 width="43.07px" height="106.502px" viewBox="0 0 43.07 106.502" enable-background="new 0 0 43.07 106.502" xml:space="preserve">
<path fill="#999999" stroke="#000000" stroke-width="2" d="M36.46,99.253V5.011H2.986v94.242l2.025,2.025l2.878,0.959l3.838,0.747
	l2.985,0.213l3.305,0.213h1.706l3.305-0.106l3.198-0.213l2.772-0.32l3.624-0.853l2.559-1.066L36.46,99.253z"/>
<path fill="#A6A6A6" d="M5.224,5.011h28.998v96.161l-4.158,1.173l-4.903,0.746l-5.438,0.319l-5.438-0.319l-4.903-0.746l-4.158-1.173
	V5.011z"/>
<path fill="#B5B5B5" d="M7.463,5.011h24.52v96.907l-3.518,0.746l-4.158,0.533l-4.584,0.213l-4.584-0.213l-4.158-0.533l-3.518-0.746
	V5.011z"/>
<path fill="#C2C2C2" d="M9.701,5.011h20.043v97.44l-2.879,0.533l-3.411,0.213l-3.731,0.213l-3.731-0.213l-3.411-0.213l-2.772-0.533
	L9.701,5.011z"/>
<path fill="#CFCFCF" d="M11.941,5.011h15.564v97.867l-2.238,0.213l-5.544,0.319l-5.544-0.319l-2.238-0.213V5.011z"/>
<path fill="#DBDBDB" d="M14.179,5.011h11.088v98.08l-3.412,0.213l-2.132,0.106l-2.025-0.106l-3.519-0.213V5.011z"/>
<path fill="#EBEBEB" d="M16.418,5.011h6.609v98.187l-3.305,0.213l-3.305-0.213V5.011z"/>
<path fill="#F7F7F7" d="M18.656,5.011h2.133v98.187h-0.107l-0.213,0.106H20.15l-0.427,0.106l-0.427-0.106h-0.319l-0.214-0.106
	h-0.106V5.011z"/>
<path fill="#4C4C4C" stroke="#000000" stroke-width="2" d="M2.986,7.143V5.011H36.46v2.132l-1.173,0.746l-3.624,0.746l-5.65,0.427
	l-6.29,0.213l-6.29-0.213l-5.65-0.427L4.157,7.889L2.986,7.143z"/>
<ellipse fill="#666666" stroke="#000000" stroke-width="2" cx="19.723" cy="5.01" rx="16.737" ry="2.026"/>
<path fill="none" stroke="#000000" stroke-width="2" d="M36.46,97.12l-1.173,1.6l-3.624,1.492l-5.65,0.854l-6.29,0.319l-6.29-0.319
	l-5.65-0.854L4.157,98.72l-1.172-1.6"/>
<path fill="none" stroke="#000000" stroke-width="2" d="M12.9,30.17h13.646v-4.157H12.9V30.17"/>
<path fill="#FFFFFF" stroke="#000000" stroke-width="2" d="M13.433,29.637h12.58v-3.092h-12.58V29.637z"/>
<path fill="#006600" d="M19.723,28.572h5.224v-1.066h-5.224V28.572z"/>
<path fill="#FF0000" d="M14.499,28.572h3.624v-1.066h-3.624V28.572z"/>
<path d="M18.123,96.161h3.198v3.092h-3.198V96.161z"/>
<path d="M32.303,20.788l0.533-2.238l1.492-0.96l1.492,0.96l0.64,2.238l-0.64,2.239l-1.492,0.853l-1.492-0.853L32.303,20.788z"/>
<path fill="#7F1900" stroke="#000000" stroke-width="2" d="M34.328,19.723l-0.533,1.065l0.533,0.96h5.224v-2.025H34.328z"/>
<path fill="#7F1900" stroke="#000000" stroke-width="2" d="M18.656,83.581h2.133V97.12h-2.133V83.581z"/>
<path fill="none" stroke="#FFCC00" stroke-width="2" d="M34.328,20.788h4.69"/>
<path fill="none" stroke="#FFCC00" stroke-width="2" d="M19.723,96.588V84.115"/>
<circle fill="#B2B2B2" stroke="#000000" stroke-width="2" cx="19.723" cy="80.383" r="3.625"/>
<circle fill="#E5E5E5" cx="20.469" cy="81.236" r="2.345"/>
<path d="M40.085,20.788l-0.533-1.065l-0.533,1.065l0.533,0.96L40.085,20.788z"/>
</svg>
