<?xml version="1.0" encoding="utf-8"?>
<!-- Generator: Adobe Illustrator 14.0.0, SVG Export Plug-In . SVG Version: 6.00 Build 43363)  -->
<!DOCTYPE svg PUBLIC "-//W3C//DTD SVG 1.1//EN" "http://www.w3.org/Graphics/SVG/1.1/DTD/svg11.dtd">
<svg version="1.1" id="图层_1" xmlns="http://www.w3.org/2000/svg" xmlns:xlink="http://www.w3.org/1999/xlink" x="0px" y="0px"
	 width="144.749px" height="90.562px" viewBox="0 0 144.749 90.562" enable-background="new 0 0 144.749 90.562"
	 xml:space="preserve">
<path fill="#FFFFFF" d="M4.057,4.059h136.489v82.445H4.057V4.059z"/>
<path fill="#FAFAFA" d="M4.057,52.598l136.489-48.54v82.445H4.057V52.598z"/>
<path fill="#F5F5F5" d="M4.057,57.525l136.489-48.54v77.519H4.057V57.525z"/>
<path fill="#F0F0F0" d="M4.057,64.914l136.489-48.829v70.419H4.057V64.914z"/>
<path fill="none" stroke="#000000" stroke-width="2" d="M4.057,4.059h136.489v82.445H4.057V4.059"/>
<path fill="#E5E5E5" d="M103.744,63.755h31.152v17.097h-31.152V63.755z"/>
<path fill="none" stroke="#FFFFFF" stroke-width="2" d="M134.896,63.61v17.242h-31.152"/>
<path fill="none" stroke="#999999" stroke-width="2" d="M134.896,63.61h-31.152v17.242"/>
<path fill="#333333" d="M103.744,9.709h31.152v48.395h-31.152V9.709z"/>
<path fill="#CCCCCC" d="M112.148,9.709h2.753v48.395h-2.753V9.709z"/>
<path fill="#CCCCCC" d="M123.304,9.709h3.043v48.395h-3.043V9.709z"/>
<path fill="#CCCCCC" d="M103.744,18.258v-3.043h31.152v3.043H103.744z"/>
<path fill="#CCCCCC" d="M103.744,26.662v-2.753h31.152v2.753H103.744z"/>
<path fill="#CCCCCC" d="M103.744,35.21v-2.753h31.152v2.753H103.744z"/>
<path fill="#CCCCCC" d="M103.744,43.904v-3.043h31.152v3.043H103.744z"/>
<path fill="#CCCCCC" d="M103.744,52.308V49.41h31.152v2.898H103.744z"/>
<path fill="none" stroke="#7F7F7F" stroke-width="2" d="M97.948,84.33V6.232"/>
<path fill="#CCCCCC" d="M9.708,80.852H21.01v2.608H9.708V80.852z"/>
<path fill="none" stroke="#7F7F7F" stroke-width="2" d="M92.298,8.985H9.708v1.304h82.59v1.594H9.708v1.449h82.59v1.304H9.708v1.449
	h82.59v1.594H9.708v1.304h82.59v1.449H9.708v1.594h82.59v1.304H9.708v1.449h82.59v1.304H9.708v1.739h82.59v1.304H9.708v1.304h82.59
	v1.449H9.708v1.594h82.59v1.449H9.708v1.304h82.59v1.449H9.708v1.594h82.59v1.304H9.708v1.449h82.59v1.304H9.708v1.739h82.59v1.304
	H9.708v1.304h82.59v1.449H9.708v1.594h82.59v1.449H9.708v1.304h82.59v1.304H9.708v1.739h82.59v1.304H9.708v1.305h82.59v1.448H9.708
	v1.595h82.59v1.448H9.708v1.304h82.59v1.594H9.708v1.449h82.59v1.305H9.708v1.448h82.59v1.595H9.708v1.448h82.59v1.304H9.708v1.594
	h82.59v1.449H9.708"/>
<path fill="#E5E5E5" stroke="#7F7F7F" stroke-width="2" d="M123.16,75.781l-2.318-3.477l2.318-3.479h4.057L123.16,75.781z"/>
<path fill="#E5E5E5" stroke="#7F7F7F" stroke-width="2" d="M111.424,75.781l-2.318-3.477l2.318-3.479h4.057L111.424,75.781z"/>
<path fill="#B2B2B2" stroke="#000000" stroke-width="2" d="M123.16,75.781l4.057-6.955l1.884,3.479l-1.884,3.477H123.16z"/>
<path fill="#B2B2B2" stroke="#000000" stroke-width="2" d="M111.424,75.781l4.057-6.955l1.884,3.479l-1.884,3.477H111.424z"/>
<path fill="#FFFFFF" stroke="#B2B2B2" stroke-width="2" d="M123.16,75.781l2.897-6.955h1.159l0.58,0.725L123.16,75.781z"/>
<path fill="#FFFFFF" stroke="#B2B2B2" stroke-width="2" d="M111.424,75.781l2.897-6.955h1.159l0.58,0.725L111.424,75.781z"/>
<path fill="none" stroke="#7F7F7F" stroke-width="2" d="M5.361,5.363h133.882v79.836H5.361V5.363"/>
</svg>
