<?xml version="1.0" standalone="no"?><!DOCTYPE svg PUBLIC "-//W3C//DTD SVG 1.1//EN" "http://www.w3.org/Graphics/SVG/1.1/DTD/svg11.dtd"><svg t="1748855559746" class="icon" viewBox="0 0 1792 1024" version="1.1" xmlns="http://www.w3.org/2000/svg" p-id="11050" xmlns:xlink="http://www.w3.org/1999/xlink" width="350" height="200"><path d="M1221.376 330.24c12.672-47.0784 18.0992-137.5744-65.152-150.2464-68.7872-7.2448-148.4288 36.1984-190.0544 65.1776a324.2496 324.2496 0 0 0-43.4432-3.6352c-108.6208-1.792-179.2 34.4064-240.7424 114.048-21.7088 28.928-41.6256 77.824-48.8704 132.1216 30.7712-52.48 124.9024-148.4288 222.6432-186.4192 0 0-150.2464 106.7776-222.6432 258.816v1.8176c-3.6096 7.2448-7.2448 12.672-10.8544 21.7088-72.3968 179.2-12.672 257.024 41.6256 269.696 50.688 12.672 121.2672-10.8544 177.3824-72.3968 95.9232 21.7344 191.872-3.6096 226.2528-21.7088 66.9696-36.1984 114.0224-103.168 124.9024-170.1376h-182.8096s-9.0624 57.9072-106.8032 57.9072c-90.496 0-95.9232-104.96-95.9232-104.96H1197.824s7.2448-114.048-48.896-190.08c-32.5632-41.6256-74.1888-79.616-132.096-99.5584 18.0736-12.6464 48.8448-34.3808 76.0064-39.808 50.688-12.672 83.2512-5.4272 104.96 32.5888 28.9792 50.688-16.2816 166.5024-16.2816 166.5024s25.344-32.5632 39.8336-81.4336zM815.9232 775.5008c-77.824 63.36-141.184 56.1152-166.528 18.0992-21.7088-34.3808-25.344-92.3136 0-173.7472 12.672 30.7456 30.7712 61.5168 57.9328 88.6784a277.504 277.504 0 0 0 108.5952 66.9696z m-3.6096-327.6032s3.6096-76.032 85.0688-81.4592c72.3968-7.2448 108.5952 25.344 119.4496 85.0688l-204.544-3.6096z" fill="#1865FF" p-id="11051"></path><path d="M307.2 153.6a15.36 15.36 0 0 1 15.36 15.36l-0.0256 46.0544L368.64 215.04a15.36 15.36 0 1 1 0 30.72h-46.1056l0.0256 46.08a15.36 15.36 0 1 1-30.72 0l-0.0256-46.08H245.76a15.36 15.36 0 1 1 0-30.72l46.0544-0.0256L291.84 168.96A15.36 15.36 0 0 1 307.2 153.6z" fill="#1865FF" opacity=".5" p-id="11052"></path><path d="M1459.2 435.2a15.36 15.36 0 0 1 15.36 15.36l-0.0256 46.0544 46.1056 0.0256a15.36 15.36 0 1 1 0 30.72h-46.1056l0.0256 46.08a15.36 15.36 0 1 1-30.72 0l-0.0256-46.08H1397.76a15.36 15.36 0 0 1 0-30.72l46.0544-0.0256 0.0256-46.0544a15.36 15.36 0 0 1 15.36-15.36z" fill="#1865FF" opacity=".2" p-id="11053"></path><path d="M435.2 793.6c5.632 0 10.24 4.608 10.24 10.24l-0.0256 30.72H476.16a10.24 10.24 0 1 1 0 20.48h-30.7456l0.0256 30.72a10.24 10.24 0 1 1-20.48 0l-0.0256-30.72H394.24a10.24 10.24 0 1 1 0-20.48h30.6944l0.0256-30.72c0-5.632 4.608-10.24 10.24-10.24z" fill="#1865FF" opacity=".3" p-id="11054"></path></svg>