<?xml version="1.0" standalone="no"?><!DOCTYPE svg PUBLIC "-//W3C//DTD SVG 1.1//EN" "http://www.w3.org/Graphics/SVG/1.1/DTD/svg11.dtd"><svg t="1748744880697" class="icon" viewBox="0 0 1510 1024" version="1.1" xmlns="http://www.w3.org/2000/svg" p-id="34984" xmlns:xlink="http://www.w3.org/1999/xlink" width="294.921875" height="200"><path d="M776.669867 746.752l-3.882667-80.068267 40.0128-25.002666 98.193067-4.548267-3.5328 110.848c-0.068267 2.1504-0.4864 4.3264-1.7664 6.058667-5.5808 7.5776-22.459733 19.592533-58.3424 23.125333-36.369067 3.566933-58.769067-11.682133-67.7888-22.3232-1.902933-2.2528-2.747733-5.1456-2.8928-8.0896z" fill="#A8A8A8" p-id="34985"></path><path d="M806.1952 772.497067c36.078933-37.546667 43.204267-89.403733 44.100267-121.301334h-38.997334c-0.324267 0.2816-2.986667 2.858667-11.1104 10.973867-8.1152 8.1152-21.290667 12.4416-26.862933 13.5936 0.964267 19.908267 2.944 61.422933 3.1744 68.224 0.2304 6.792533 2.218667 10.171733 3.191467 11.008 9.557333 9.3696 14.865067 12.458667 26.504533 17.501867z" fill="#9E9E9E" p-id="34986"></path><path d="M990.609067 519.765333l-3.694934-20.829866c-59.101867 44.544-179.754667 137.1136-189.5936 150.929066 39.748267 4.1728 89.2416-0.5376 116.309334-4.411733a16.571733 16.571733 0 0 0 13.1072-10.632533l16.529066-43.605334 44.1344-58.146133c2.875733-3.7888 4.0448-8.618667 3.208534-13.303467z" fill="#414142" p-id="34987"></path><path d="M1108.514133 524.578133c-29.422933 99.285333-9.949867 211.584 4.002134 257.245867 2.978133 7.5008 8.789333 12.228267 24.823466 20.770133 25.4464 13.550933 77.9008 26.129067 100.087467 30.318934l-9.258667-320.512-87.2192-13.44c-8.200533-0.4352-26.154667 4.0704-32.4352 25.617066z" fill="#9E9E9E" p-id="34988"></path><path d="M1134.173867 734.208l-26.308267 30.609067s-2.269867-9.216-3.5328-15.104c-1.2544-5.870933-2.730667-15.086933-2.730667-15.086934l32.571734-0.426666z" fill="#7D7D7D" p-id="34989"></path><path d="M1134.634667 734.208l-226.7648 3.072 2.594133-81.493333c96.4096-9.480533 199.202133-26.052267 208.3072-26.811734 11.374933-0.9472 37.7856 14.549333 40.1408 53.0176 1.621333 26.453333-8.3456 42.734933-16.384 49.629867-2.176 1.860267-5.034667 2.542933-7.893333 2.5856z" fill="#414142" p-id="34990"></path><path d="M994.3296 646.263467c-37.7344 9.002667-72.4992 49.8176-85.162667 69.102933l1.015467-59.485867c16.145067-1.757867 55.5776-6.135467 84.1472-9.617066z" fill="#222222" p-id="34991"></path><path d="M445.610667 547.345067l-81.92 64.187733-5.162667-7.714133-76.100267-190.020267h122.368l40.814934 133.546667z" fill="#303030" p-id="34992"></path><path d="M1060.949333 433.288533l-5.9648-43.025066-223.394133 228.3776 44.526933-11.127467c2.7136-0.682667 5.2224-2.013867 7.296-3.8912l172.066134-155.3152a17.083733 17.083733 0 0 0 5.469866-15.018667z" fill="#D0D2D4" p-id="34993"></path><path d="M1092.462933 365.166933l-6.792533-78.506666L377.796267 413.098667l35.882666 220.177066a51.2 51.2 0 0 0 50.5344 42.965334h300.782934a51.2 51.2 0 0 0 35.968-14.762667l286.481066-282.692267a17.066667 17.066667 0 0 0 5.0176-13.6192z" fill="#414142" p-id="34994"></path><path d="M377.992533 415.470933l26.368 154.2656s6.289067-65.800533 21.333334-97.3312c16.221867-34.0224 49.032533-56.192 49.032533-56.192l-96.733867-0.7424z" fill="#303030" p-id="34995"></path><path d="M782.165333 190.72L291.549867 402.466133l392.192-0.7424a34.133333 34.133333 0 0 1 31.744 21.418667l81.536 203.008 228.8128-220.288a17.066667 17.066667 0 0 0 5.0944-10.154667l6.7072-53.188266c0.452267-3.584 2.0224-6.929067 4.488533-9.557334l65.211733-69.4272a17.092267 17.092267 0 0 0 4.027734-16.170666l-11.733334-43.016534A34.141867 34.141867 0 0 0 1066.2656 179.2l-244.8384 3.131733a102.4 102.4 0 0 0-39.2704 8.379734z" fill="#B7B9BD" p-id="34996"></path><path d="M347.246933 611.5584h16.631467l-73.813333-184.832a8.533333 8.533333 0 0 1 7.9872-11.6992l388.181333 2.440533a17.066667 17.066667 0 0 1 15.752533 10.7776l79.121067 199.569067 15.752533-1.7408-81.3568-202.9056a34.133333 34.133333 0 0 0-31.744-21.435733l-393.642666 0.682666a17.066667 17.066667 0 0 0-15.854934 23.313067l72.9856 185.8304z" fill="#9E9E9E" p-id="34997"></path><path d="M1235.5328 832.110933c-28.322133-24.234667-44.936533-116.650667-42.615467-156.398933 0-55.483733 21.563733-161.6896 33.8432-163.549867 12.270933-1.860267 15.8976 12.296533 15.8976 20.590934V816.981333c0 9.4464-2.372267 18.602667-7.125333 15.121067z" fill="#414142" p-id="34998"></path><path d="M488.8064 604.5952l-22.306133-132.906667a17.066667 17.066667 0 0 1 16.827733-19.882666h184.200533a17.066667 17.066667 0 0 1 16.913067 14.805333l17.749333 132.898133a17.066667 17.066667 0 0 1-16.913066 19.328H505.634133a17.066667 17.066667 0 0 1-16.827733-14.242133z" fill="#A8A8A8" p-id="34999"></path><path d="M504.8832 588.458667l-21.691733-136.661334h186.666666a17.066667 17.066667 0 0 1 16.955734 15.104l15.377066 132.650667-180.138666 3.3024a17.066667 17.066667 0 0 1-17.169067-14.3872z" fill="#303030" p-id="35000"></path><path d="M539.793067 527.701333a62.830933 62.830933 0 1 1 125.661866 0 62.830933 62.830933 0 0 1-125.661866 0z" fill="#FFFFFF" p-id="35001"></path><path d="M556.253867 527.701333a46.370133 46.370133 0 1 1 92.740266 0 46.370133 46.370133 0 0 1-92.740266 0z" fill="#303030" p-id="35002"></path><path d="M601.924267 507.392a28.535467 28.535467 0 1 1 57.0624 0 28.535467 28.535467 0 0 1-57.0624 0z" fill="#FFFFFF" fill-opacity=".098" p-id="35003"></path><path d="M614.621867 505.070933a19.003733 19.003733 0 1 1 38.016 0 19.003733 19.003733 0 0 1-38.016 0z" fill="#FFFFFF" p-id="35004"></path><path d="M663.0912 578.7136a11.844267 11.844267 0 1 1 23.688533 0 11.844267 11.844267 0 0 1-23.688533 0z" fill="#F74848" p-id="35005"></path><path d="M1080.891733 182.272L707.259733 410.888533s5.632 5.504 9.002667 14.0544c3.3792 8.541867 80.930133 201.361067 80.930133 201.361067a129684.053333 129684.053333 0 0 0 226.235734-218.180267c4.283733-4.283733 6.8352-5.794133 7.978666-15.240533 1.536-12.8 4.8128-40.055467 5.589334-46.6688 0.776533-6.6048 4.855467-12.8 6.801066-15.061333 18.9952-20.164267 60.177067-63.317333 64.392534-68.010667 4.215467-4.693333 4.232533-11.178667 2.423466-17.8432-2.6624-9.864533-8.4224-31.812267-11.0848-41.233067-2.653867-9.4208-8.149333-16.298667-18.6368-21.8112z" fill="#BEC0C4" p-id="35006"></path></svg>