<?xml version="1.0" standalone="no"?><!DOCTYPE svg PUBLIC "-//W3C//DTD SVG 1.1//EN" "http://www.w3.org/Graphics/SVG/1.1/DTD/svg11.dtd"><svg t="1748858125494" class="icon" viewBox="0 0 1024 1024" version="1.1" xmlns="http://www.w3.org/2000/svg" p-id="11726" xmlns:xlink="http://www.w3.org/1999/xlink" width="200" height="200"><path d="M206.777347 280.806992h574.639658v251.274929l-227.773939 372.90564h-103.620163l-243.245556-372.90564z" fill="#49158E" p-id="11727"></path><path d="M177.643102 408.73743l269.761528 190.467506A31.73665 31.73665 0 0 1 460.829233 625.133779v303.243694a31.73665 31.73665 0 0 1-50.905587 25.29411l-269.761528-204.463369A31.73665 31.73665 0 0 1 127.594405 723.914103V434.666273a31.73665 31.73665 0 0 1 50.048697-25.928843z" fill="#FD9834" p-id="11728"></path><path d="M538.155581 607.02802l269.761527-183.929756A31.73665 31.73665 0 0 1 857.537361 449.312737V725.643751a31.73665 31.73665 0 0 1-12.647055 25.357583l-269.761527 203.03522A31.73665 31.73665 0 0 1 524.302533 928.663103V633.242494a31.73665 31.73665 0 0 1 13.853048-26.214474z" fill="#FFBC59" p-id="11729"></path><path d="M516.725523 100.566064l312.374682 189.424038a31.73665 31.73665 0 0 1 1.639911 53.200874l-314.058617 217.899213a31.73665 31.73665 0 0 1-36.284865-0.077301l-324.728117-227.362162a31.73665 31.73665 0 0 1 2.256593-53.4558l310.211586-180.099296a47.604975 47.604975 0 0 1 48.588827 0.470434z" fill="#FFDA59" p-id="11730"></path></svg>