<?xml version="1.0" standalone="no"?><!DOCTYPE svg PUBLIC "-//W3C//DTD SVG 1.1//EN" "http://www.w3.org/Graphics/SVG/1.1/DTD/svg11.dtd"><svg t="1748749293708" class="icon" viewBox="0 0 1024 1024" version="1.1" xmlns="http://www.w3.org/2000/svg" p-id="7287" xmlns:xlink="http://www.w3.org/1999/xlink" width="200" height="200"><path d="M541.681159 499.279503m-248.049689 0a248.049689 248.049689 0 1 0 496.099379 0 248.049689 248.049689 0 1 0-496.099379 0Z" fill="#A6589B" opacity=".34" p-id="7288"></path><path d="M535.320911 514.120083m-407.055901 0a407.055901 407.055901 0 1 0 814.111802 0 407.055901 407.055901 0 1 0-814.111802 0Z" fill="#A6589B" opacity=".34" p-id="7289"></path><path d="M390.048596 543.805482a31.801242 31.801242 0 0 1-31.466269-27.488993c-16.490004-120.463106 9.311404-227.794418 74.609955-310.388605 69.581118-88.008878 179.45653-143.427843 309.383685-156.042335a31.797002 31.797002 0 1 1 6.144 63.301432c-112.546716 10.926907-206.886161 57.869781-265.633656 132.182924-54.316522 68.699164-75.576712 159.404787-61.490882 262.317847a31.801242 31.801242 0 0 1-31.546833 36.11773z" fill="#C572E3" p-id="7290"></path><path d="M425.771992 630.00381a31.669797 31.669797 0 0 1-19.207951-6.470493c-96.836903-73.520232-154.486195-167.656149-166.714832-272.231354-13.034269-111.435793 25.474915-228.315959 108.425275-329.108936a31.801242 31.801242 0 0 1 49.109599 40.417259c-71.853847 87.309251-105.368116 187.211793-94.364886 281.301068 10.172157 86.982758 59.273275 166.15513 142.003147 228.960464a31.801242 31.801242 0 0 1-19.250352 57.131992z" fill="#E396FF" p-id="7291"></path><path d="M446.994021 670.259942c-92.321126 0-174.677863-26.963213-241.070377-79.447983-88.013118-69.581118-143.432083-179.45653-156.046576-309.383686a31.801242 31.801242 0 0 1 63.301433-6.144c10.926907 112.546716 57.874021 206.886161 132.187164 265.637897 68.703404 54.312282 159.413267 75.580952 262.313606 61.482401a31.801242 31.801242 0 1 1 8.628737 63.013102c-23.634683 3.235246-46.773267 4.842269-69.313987 4.842269z" fill="#E3B3F5" p-id="7292"></path><path d="M308.438128 786.639768c-98.130153 0-198.308306-38.543106-286.245101-110.918493a31.805482 31.805482 0 0 1 40.417259-49.109598c87.309251 71.858087 187.207553 105.359636 281.292588 94.373366 86.982758-10.167917 166.159371-59.273275 228.968944-142.007387a31.801242 31.801242 0 1 1 50.657259 38.462543c-73.524472 96.841143-167.660389 154.494675-272.239835 166.719072-14.204555 1.653665-28.506634 2.480497-42.851114 2.480497z" fill="#CC9BDE" p-id="7293"></path><path d="M278.311752 974.271337a31.801242 31.801242 0 0 1-3.035959-63.454078c112.550957-10.931147 206.890402-57.874021 265.642137-132.195644 54.312282-68.694923 75.568232-159.400547 61.482401-262.305126a31.801242 31.801242 0 1 1 63.013102-8.624497c16.494244 120.458865-9.302923 227.785938-74.605715 310.380124-69.576878 88.017358-179.45653 143.436323-309.387925 156.055056a33.344663 33.344663 0 0 1-3.108041 0.144165z" fill="#BB7FD1" p-id="7294"></path><path d="M651.145275 1013.399586a31.809723 31.809723 0 0 1-24.537838-52.014112c71.858087-87.30501 105.376596-187.203313 94.373366-281.296828-10.172157-86.982758-59.273275-166.159371-142.007387-228.964704a31.801242 31.801242 0 1 1 38.462543-50.657259c96.841143 73.520232 154.494675 167.656149 166.719072 272.235594 13.030029 111.435793-25.479155 228.315959-108.433756 329.104696a31.75036 31.75036 0 0 1-24.576 11.592613z" fill="#AC64C7" p-id="7295"></path><path d="M942.431934 777.451329a31.801242 31.801242 0 0 1-31.614675-28.731362c-10.931147-112.546716-57.874021-206.886161-132.191404-265.637897-68.694923-54.312282-159.383586-75.576712-262.309366-61.482401a31.771561 31.771561 0 0 1-35.82092-27.196423 31.801242 31.801242 0 0 1 27.196423-35.820919c120.454625-16.498484 227.785938 9.302923 310.384364 74.605714 88.013118 69.581118 143.432083 179.45653 156.050816 309.387926a31.801242 31.801242 0 0 1-31.695238 34.875362z" fill="#AA63C4" p-id="7296"></path><path d="M425.771992 457.594435a31.801242 31.801242 0 0 1-25.305309-51.034634c73.520232-96.836903 167.656149-154.490435 272.231354-166.719072 111.435793-13.042749 228.315959 25.474915 329.108936 108.429515a31.801242 31.801242 0 0 1-40.417259 49.109599c-87.313491-71.853847-187.207553-105.385077-281.305308-94.369127-86.982758 10.172157-166.159371 59.277516-228.964704 142.007388a31.74188 31.74188 0 0 1-25.34771 12.576331z" fill="#B86AD4" p-id="7297"></path><path d="M512 512m-121.913242 0a121.913242 121.913242 0 1 0 243.826484 0 121.913242 121.913242 0 1 0-243.826484 0Z" fill="#FFFFFF" p-id="7298"></path><path d="M512 665.714484c-84.756671 0-153.714484-68.957814-153.714484-153.714484s68.957814-153.714484 153.714484-153.714484 153.714484 68.957814 153.714484 153.714484-68.957814 153.714484-153.714484 153.714484z m0-243.826484c-49.686261 0-90.112 40.425739-90.112 90.112 0 49.690501 40.425739 90.112 90.112 90.112 49.690501 0 90.112-40.421499 90.112-90.112 0-49.686261-40.421499-90.112-90.112-90.112z" fill="#9657AD" p-id="7299"></path></svg>