<?xml version="1.0" standalone="no"?><!DOCTYPE svg PUBLIC "-//W3C//DTD SVG 1.1//EN" "http://www.w3.org/Graphics/SVG/1.1/DTD/svg11.dtd"><svg t="1751552406583" class="icon" viewBox="0 0 1024 1024" version="1.1" xmlns="http://www.w3.org/2000/svg" p-id="48288" xmlns:xlink="http://www.w3.org/1999/xlink" width="128" height="128"><path d="M512 0a512 512 0 1 0 0 1024A512 512 0 0 0 512 0z" fill="#0aa6f7" p-id="48289" data-spm-anchor-id="a313x.search_index.0.i42.57363a81S6AW0u" class=""></path><path d="M612.205714 192.292571c28.672 0 52.077714 23.405714 52.077715 52.077715v96.621714H561.737143v-46.08H335.286857v434.249143H561.737143v-46.153143h102.546286v96.621714c0 28.745143-23.405714 52.077714-52.077715 52.077715H285.110857a52.224 52.224 0 0 1-52.077714-52.077715V244.370286c0-28.672 23.405714-52.077714 52.077714-52.077715H612.205714z m91.209143 181.101715l187.904 146.358857-187.904 130.852571V563.273143H531.894857v52.224H429.641143v-206.994286h102.326857v52.224h171.52V373.394286z" fill="#FFFFFF" p-id="48290"></path></svg>