<?xml version="1.0" standalone="no"?><!DOCTYPE svg PUBLIC "-//W3C//DTD SVG 1.1//EN" "http://www.w3.org/Graphics/SVG/1.1/DTD/svg11.dtd"><svg t="1748922312659" class="icon" viewBox="0 0 1024 1024" version="1.1" xmlns="http://www.w3.org/2000/svg" p-id="10668" xmlns:xlink="http://www.w3.org/1999/xlink" width="200" height="200"><path d="M411.1 761l-85.5-46.5V698l85.5 46.6z" fill="#7BB7FF" p-id="10669"></path><path d="M411.1 744.6L325.6 698l196.6-27.6 85.5 46.5z" fill="#D5E1FF" p-id="10670"></path><path d="M607.7 716.9v16.5L411.1 761v-16.4z" fill="#BBD2FF" p-id="10671"></path><path d="M434.4 711.6l-9.7-5.3 0.1-77.2 9.8 5.3z" fill="#7BB7FF" p-id="10672"></path><path d="M434.6 634.4l-9.8-5.3 67.6-9.5 9.8 5.3z" fill="#ACACAC" p-id="10673"></path><path d="M502.2 624.9l-0.2 77.2-67.6 9.5 0.2-77.2z" fill="#BBD2FF" p-id="10674"></path><path d="M162.9 680.4l-12.2-6.7 0.1-50.8 12.2 6.7z" fill="#7BB7FF" p-id="10675"></path><path d="M163 629.6l-12.2-6.7 623.3-87.6 12.3 6.7z" fill="#ACACAC" p-id="10676"></path><path d="M786.4 542l-0.1 50.8-623.4 87.6 0.1-50.8z" fill="#BBD2FF" p-id="10677"></path><path d="M162.9 631.6l-12.2-6.7 0.7-378.2 12.2 6.6z" fill="#203040" p-id="10678"></path><path d="M163.6 253.3l-12.2-6.6 623.4-87.6 12.3 6.6z" fill="#2E465C" p-id="10679"></path><path d="M787.1 165.7l-0.8 378.3-623.4 87.6 0.7-378.3z" fill="#344D66" p-id="10680"></path><path d="M768.5 178l-0.6 358.3-590.5 83 0.7-358.3z" fill="#7BB7FF" p-id="10681"></path><path d="M177.4 615.1H652v4.2H177.4zM177.4 610.8H652v4.2H177.4z" fill="#7BB7FF" p-id="10682"></path><path d="M177.4 606.6H652v4.2H177.4zM177.4 602.4H652v4.2H177.4z" fill="#7CB7FF" p-id="10683"></path><path d="M177.4 598.2H652v4.2H177.4zM177.4 593.9H652v4.2H177.4z" fill="#7DB8FF" p-id="10684"></path><path d="M177.4 589.7H652v4.2H177.4zM177.4 585.5H652v4.2H177.4z" fill="#7EB8FF" p-id="10685"></path><path d="M177.4 581.3H652v4.2H177.4z" fill="#7FB9FF" p-id="10686"></path><path d="M177.4 577.1H652v4.2H177.4z" fill="#7FB9FF" p-id="10687"></path><path d="M177.4 572.8H652v4.2H177.4z" fill="#80B9FF" p-id="10688"></path><path d="M177.4 568.6H652v4.2H177.4zM177.4 564.4H652v4.2H177.4z" fill="#81BAFF" p-id="10689"></path><path d="M177.4 560.2H652v4.2H177.4z" fill="#82BAFF" p-id="10690"></path><path d="M177.4 555.9H652v4.2H177.4z" fill="#83BBFF" p-id="10691"></path><path d="M177.4 551.7H652v4.2H177.4zM177.4 547.5H652v4.2H177.4z" fill="#84BBFF" p-id="10692"></path><path d="M177.4 543.3H652v4.2H177.4z" fill="#85BCFF" p-id="10693"></path><path d="M177.4 539.1H652v4.2H177.4z" fill="#86BCFF" p-id="10694"></path><path d="M177.4 534.8H652v4.2H177.4z" fill="#87BCFF" p-id="10695"></path><path d="M177.4 530.6H652v4.2H177.4zM177.4 526.4H652v4.2H177.4z" fill="#88BDFF" p-id="10696"></path><path d="M177.4 522.2H652v4.2H177.4z" fill="#89BEFF" p-id="10697"></path><path d="M177.4 517.9H652v4.2H177.4z" fill="#8ABEFF" p-id="10698"></path><path d="M177.4 513.7H652v4.2H177.4z" fill="#8BBEFF" p-id="10699"></path><path d="M177.4 509.5H652v4.2H177.4z" fill="#8CBFFF" p-id="10700"></path><path d="M177.4 505.3H652v4.2H177.4z" fill="#8DBFFF" p-id="10701"></path><path d="M177.4 501.1H652v4.2H177.4z" fill="#8EC0FF" p-id="10702"></path><path d="M177.4 496.8H652v4.2H177.4z" fill="#8FC0FF" p-id="10703"></path><path d="M177.4 492.6H652v4.2H177.4z" fill="#8FC1FF" p-id="10704"></path><path d="M177.4 488.4H652v4.2H177.4z" fill="#90C1FF" p-id="10705"></path><path d="M177.4 484.2H652v4.2H177.4z" fill="#91C1FF" p-id="10706"></path><path d="M177.4 479.9H652v4.2H177.4z" fill="#92C2FF" p-id="10707"></path><path d="M177.4 475.7H652v4.2H177.4z" fill="#93C2FF" p-id="10708"></path><path d="M177.4 471.5H652v4.2H177.4z" fill="#94C3FF" p-id="10709"></path><path d="M177.4 467.3H652v4.2H177.4z" fill="#95C3FF" p-id="10710"></path><path d="M177.4 463.1H652v4.2H177.4z" fill="#96C4FF" p-id="10711"></path><path d="M177.4 458.8H652v4.2H177.4z" fill="#97C4FF" p-id="10712"></path><path d="M177.4 454.6H652v4.2H177.4z" fill="#98C5FF" p-id="10713"></path><path d="M177.4 450.4H652v4.2H177.4z" fill="#99C5FF" p-id="10714"></path><path d="M177.4 446.2H652v4.2H177.4z" fill="#9AC6FF" p-id="10715"></path><path d="M177.4 441.9H652v4.2H177.4z" fill="#9BC6FF" p-id="10716"></path><path d="M177.4 437.7H652v4.2H177.4z" fill="#9CC7FF" p-id="10717"></path><path d="M177.4 433.5H652v4.2H177.4z" fill="#9DC7FF" p-id="10718"></path><path d="M177.4 429.3H652v4.2H177.4z" fill="#9FC8FF" p-id="10719"></path><path d="M177.4 425.1H652v4.2H177.4z" fill="#A0C8FF" p-id="10720"></path><path d="M177.4 420.8H652v4.2H177.4z" fill="#A1C9FF" p-id="10721"></path><path d="M177.4 416.6H652v4.2H177.4z" fill="#A2C9FF" p-id="10722"></path><path d="M177.4 412.4H652v4.2H177.4z" fill="#A3CAFF" p-id="10723"></path><path d="M177.4 408.2H652v4.2H177.4z" fill="#A4CAFF" p-id="10724"></path><path d="M177.4 403.9H652v4.2H177.4z" fill="#A5CBFF" p-id="10725"></path><path d="M177.4 399.7H652v4.2H177.4z" fill="#A6CBFF" p-id="10726"></path><path d="M177.4 395.5H652v4.2H177.4z" fill="#A7CCFF" p-id="10727"></path><path d="M177.4 391.3H652v4.2H177.4z" fill="#A8CCFF" p-id="10728"></path><path d="M177.4 387.1H652v4.2H177.4z" fill="#AACDFF" p-id="10729"></path><path d="M177.4 382.8H652v4.2H177.4z" fill="#ABCDFF" p-id="10730"></path><path d="M177.4 378.6H652v4.2H177.4z" fill="#ACCEFF" p-id="10731"></path><path d="M177.4 374.4H652v4.2H177.4z" fill="#ADCEFF" p-id="10732"></path><path d="M177.4 370.2H652v4.2H177.4z" fill="#AECFFF" p-id="10733"></path><path d="M177.4 365.9H652v4.2H177.4z" fill="#AFCFFF" p-id="10734"></path><path d="M177.4 361.7H652v4.2H177.4z" fill="#B0D0FF" p-id="10735"></path><path d="M177.4 357.5H652v4.2H177.4z" fill="#B2D1FF" p-id="10736"></path><path d="M177.4 353.3H652v4.2H177.4z" fill="#B3D1FF" p-id="10737"></path><path d="M177.4 349.1H652v4.2H177.4z" fill="#B4D2FF" p-id="10738"></path><path d="M177.4 344.8H652v4.2H177.4z" fill="#B5D2FF" p-id="10739"></path><path d="M177.4 340.6H652v4.2H177.4z" fill="#B6D3FF" p-id="10740"></path><path d="M177.4 336.4H652v4.2H177.4z" fill="#B8D3FF" p-id="10741"></path><path d="M177.4 332.2H652v4.2H177.4z" fill="#B9D4FF" p-id="10742"></path><path d="M177.4 327.9H652v4.2H177.4z" fill="#BAD4FF" p-id="10743"></path><path d="M177.4 323.7H652v4.2H177.4z" fill="#BBD5FF" p-id="10744"></path><path d="M177.4 319.5H652v4.2H177.4z" fill="#BDD6FF" p-id="10745"></path><path d="M177.4 315.3H652v4.2H177.4z" fill="#BED6FF" p-id="10746"></path><path d="M177.4 311.1H652v4.2H177.4z" fill="#BFD7FF" p-id="10747"></path><path d="M177.4 306.8H652v4.2H177.4z" fill="#C0D7FF" p-id="10748"></path><path d="M177.4 302.6H652v4.2H177.4z" fill="#C2D8FF" p-id="10749"></path><path d="M177.4 298.4H652v4.2H177.4z" fill="#C3D9FF" p-id="10750"></path><path d="M177.4 294.2H652v4.2H177.4z" fill="#C4D9FF" p-id="10751"></path><path d="M177.4 289.9H652v4.2H177.4z" fill="#C5DAFF" p-id="10752"></path><path d="M177.4 285.7H652v4.2H177.4z" fill="#C7DAFF" p-id="10753"></path><path d="M177.4 281.5H652v4.2H177.4z" fill="#C8DBFF" p-id="10754"></path><path d="M177.4 277.3H652v4.2H177.4z" fill="#C9DBFF" p-id="10755"></path><path d="M177.4 273.1H652v4.2H177.4z" fill="#CADCFF" p-id="10756"></path><path d="M177.4 268.8H652v4.2H177.4z" fill="#CCDDFF" p-id="10757"></path><path d="M177.4 264.6H652v4.2H177.4z" fill="#CDDDFF" p-id="10758"></path><path d="M177.4 260.4H652v4.2H177.4z" fill="#CEDEFF" p-id="10759"></path><path d="M177.4 256.2H652v4.2H177.4z" fill="#D0DFFF" p-id="10760"></path><path d="M177.4 251.9H652v4.2H177.4z" fill="#D1DFFF" p-id="10761"></path><path d="M177.4 247.7H652v4.2H177.4z" fill="#D2E0FF" p-id="10762"></path><path d="M177.4 243.5H652v4.2H177.4z" fill="#D4E0FF" p-id="10763"></path><path d="M177.4 239.3H652v4.2H177.4z" fill="#D5E1FF" p-id="10764"></path><path d="M854.5 831.5c-5.4-41.8-75.6-83.8-113.2-69.3-5.7 2.2-11 7.1-14.7 10-12.5 10-11.4 26.9 3.3 36.9l63.2 43c14.7 10 36.9 10.4 49.6 0.8l3.4-2.6c6.8-5.1 9.5-12 8.4-18.8z" fill="#1B1C63" p-id="10765"></path><path d="M854.8 825.1c-0.2 5.6-3 10.9-8.6 15.1l-3.4 2.6c-12.7 9.6-35 9.2-49.6-0.8L730 799c-7.8-5.3-11.9-12.3-12.1-19.1v6.7c0.1 6.9 4.2 14 12.1 19.3l63.2 43c14.7 10 36.9 10.4 49.6 0.8l3.4-2.6c5.6-4.2 8.5-9.7 8.6-15.4v-6.6z" fill="#203040" p-id="10766"></path><path d="M854.8 823.7c0 0.7 1.5 10-12 19.1-12.7 9.6-35 9.2-49.7-0.8l-63.3-43c-7.2-4.9-11.3-11.3-12-17.6 0.2 6.8 4.3 13.8 12.1 19.1l63.2 43c14.7 10 36.9 10.4 49.6 0.8l3.4-2.6c5.6-4.2 8.5-9.7 8.6-15.4l0.1-2.6z" fill="#7BB7FF" p-id="10767"></path><path d="M854.6 821.4c-5.4-41.8-75.6-83.8-113.2-69.3-5.7 2.2-11 7.1-14.7 10-12.5 10-11.4 26.9 3.3 36.9l63.2 43c14.7 10 36.9 10.4 49.6 0.8l3.4-2.6c6.8-5.1 9.6-12 8.4-18.8z" fill="#D5E1FF" p-id="10768"></path></svg>