<?xml version="1.0" standalone="no"?><!DOCTYPE svg PUBLIC "-//W3C//DTD SVG 1.1//EN" "http://www.w3.org/Graphics/SVG/1.1/DTD/svg11.dtd"><svg t="1748919868814" class="icon" viewBox="0 0 1024 1024" version="1.1" xmlns="http://www.w3.org/2000/svg" p-id="6506" xmlns:xlink="http://www.w3.org/1999/xlink" width="200" height="200"><path d="M947.79 894.06L720.92 667.19c51.69-63.53 82.67-144.58 82.67-232.86 0-203.94-165.32-369.26-369.26-369.26S65.07 230.39 65.07 434.33s165.32 369.26 369.26 369.26c88.28 0 169.31-30.98 232.84-82.66L894.05 947.8c7.42 7.42 17.14 11.13 26.87 11.13 9.72 0 19.45-3.71 26.87-11.13 14.84-14.84 14.84-38.9 0-53.74zM434.34 727.59c-39.62 0-78.02-7.74-114.13-23.01-34.91-14.77-66.28-35.92-93.24-62.88-26.96-26.96-48.11-58.33-62.88-93.24-15.27-36.11-23.01-74.5-23.01-114.13s7.74-78.02 23.01-114.13c14.77-34.91 35.92-66.28 62.88-93.24 26.96-26.96 58.33-48.11 93.24-62.88 36.11-15.27 74.5-23.01 114.13-23.01 39.62 0 78.02 7.74 114.13 23.01 34.91 14.77 66.28 35.92 93.24 62.88s48.11 58.33 62.88 93.24c15.27 36.11 23.01 74.5 23.01 114.13s-7.74 78.02-23.01 114.13c-14.77 34.91-35.92 66.28-62.88 93.24-26.96 26.96-58.33 48.11-93.24 62.88-36.11 15.26-74.51 23.01-114.13 23.01z" fill="#ffffff" p-id="6507"></path></svg>