<?xml version="1.0" standalone="no"?><!DOCTYPE svg PUBLIC "-//W3C//DTD SVG 1.1//EN" "http://www.w3.org/Graphics/SVG/1.1/DTD/svg11.dtd"><svg t="1748743626585" class="icon" viewBox="0 0 1024 1024" version="1.1" xmlns="http://www.w3.org/2000/svg" p-id="12936" xmlns:xlink="http://www.w3.org/1999/xlink" width="200" height="200"><path d="M7.936 826.624l527.616 162.624 483.776-248.256v-71.36L635.52 554.88 7.936 755.2v71.424z" fill="#666666" p-id="12937"></path><path d="M4.672 750.592l533.76 163.584 480.768-244.928-521.984-169.792-492.544 251.136z" fill="#CCCCCC" p-id="12938"></path><path d="M173.696 735.616l360.896 110.08V554.88L173.696 448.64v287.04z" fill="#51D05D" p-id="12939"></path><path d="M903.232 661.312l-368.64 184.448V554.88l368.64-180.672v287.104z" fill="#1A8721" p-id="12940"></path><path d="M613.312 553.088m17.088 0l0 0q17.088 0 17.088 17.088l0 167.552q0 17.088-17.088 17.088l0 0q-17.088 0-17.088-17.088l0-167.552q0-17.088 17.088-17.088Z" fill="#006006" p-id="12941"></path><path d="M718.976 497.472m17.088 0l0 0q17.088 0 17.088 17.088l0 167.552q0 17.088-17.088 17.088l0 0q-17.088 0-17.088-17.088l0-167.552q0-17.088 17.088-17.088Z" fill="#006006" p-id="12942"></path><path d="M824.576 448.512m17.088 0l0 0q17.088 0 17.088 17.088l0 167.552q0 17.088-17.088 17.088l0 0q-17.088 0-17.088-17.088l0-167.552q0-17.088 17.088-17.088Z" fill="#006006" p-id="12943"></path><path d="M173.696 448.512l360.96 106.24 368.64-180.608-328-88.256-401.6 162.624z" fill="#666666" p-id="12944"></path><path d="M198.4 455.808l-24.704-7.296 23.872-9.6 377.728-152.96 304.512 81.92 23.488 6.272-21.824 10.688-346.816 169.92L198.4 455.808z m23.872-9.664l310.976 91.52 324.736-159.168-281.6-75.712-354.112 143.36z" fill="#DFDDD5" p-id="12945"></path><path d="M617.408 94.656q-7.104 0-14.08 4.992-4.736 3.456-14.08 13.568-9.92 10.688-15.872 15.36-10.56 8.384-22.144 11.072-22.144 5.056-35.84-0.128-9.088-3.392-23.296-16.64l-2.56-2.368q-12.608-11.776-46.336 1.536l-5.888-14.848q43.136-17.024 63.168 1.536l2.56 2.432q11.904 11.136 17.92 13.376 9.28 3.456 26.688-0.512 8.064-1.856 15.808-8 4.928-3.904 14.016-13.696 10.432-11.264 16.512-15.68 11.136-8 23.424-8v16z" fill="#FFB126" p-id="12946"></path><path d="M617.408 210.688q-7.104 0-14.08 4.992-4.736 3.456-14.08 13.568-9.92 10.688-15.872 15.36-10.56 8.448-22.144 11.072-22.144 5.12-35.84-0.128-9.088-3.328-23.296-16.64l-2.56-2.368q-12.608-11.712-46.336 1.6l-5.888-14.912q43.136-16.96 63.168 1.6l2.56 2.432q11.904 11.072 17.92 13.312 9.28 3.52 26.688-0.512 8.064-1.792 15.808-7.936 4.928-3.968 14.016-13.696 10.432-11.328 16.512-15.744 11.136-8 23.424-8v16z" fill="#FFB126" p-id="12947"></path><path d="M617.408 319.68q-7.104 0-14.08 4.928-4.736 3.456-14.08 13.632-9.92 10.624-15.872 15.36-10.56 8.384-22.144 11.008-22.144 5.12-35.84-0.064-9.088-3.392-23.296-16.64l-2.56-2.432q-12.608-11.712-46.336 1.6l-5.888-14.912q43.136-16.96 63.168 1.6l2.56 2.432q11.904 11.072 17.92 13.376 9.28 3.456 26.688-0.512 8.064-1.92 15.808-8 4.928-3.968 14.016-13.696 10.432-11.328 16.512-15.68 11.136-8 23.424-8v16z" fill="#FFB126" p-id="12948"></path><path d="M627.328 397.184q10.56 6.784 21.12 6.784t21.12-6.784v-37.952h-42.24v37.952z" fill="#1C2D58" p-id="12949"></path><path d="M703.04 344.768c0 19.136-24.96 31.808-55.04 31.808-30.144 0-54.144 0-54.144-22.208 0-19.584 38.976-48.704 54.144-48.704 20.608 0 55.04 19.52 55.04 39.104z" fill="#E3F6FF" p-id="12950"></path><path d="M703.04 342.4c0 17.92-20.48 29.888-45.248 29.888-24.768 0-44.48 0-44.48-20.864 0-18.432 32-45.76 44.48-45.76 16.96 0 45.248 18.368 45.248 36.736z" fill="#000000" fill-opacity=".1" p-id="12951"></path><path d="M703.04 293.312c0 19.136-24.96 31.808-55.04 31.808-30.144 0-54.144 0-54.144-22.208 0-19.584 38.976-48.704 54.144-48.704 20.608 0 55.04 19.52 55.04 39.104z" fill="#E3F6FF" p-id="12952"></path><path d="M703.04 290.944c0 17.92-20.48 29.888-45.248 29.888-24.768 0-44.48 0-44.48-20.864 0-18.432 32-45.76 44.48-45.76 16.96 0 45.248 18.368 45.248 36.736z" fill="#000000" fill-opacity=".1" p-id="12953"></path><path d="M703.04 241.856c0 19.072-24.96 31.808-55.04 31.808-30.144 0-54.144 0-54.144-22.208 0-19.584 38.976-48.704 54.144-48.704 20.608 0 55.04 19.52 55.04 39.104z" fill="#E3F6FF" p-id="12954"></path><path d="M703.04 239.488c0 17.92-20.48 29.888-45.248 29.888-24.768 0-44.48 0-44.48-20.864 0-18.432 32-45.76 44.48-45.76 16.96 0 45.248 18.304 45.248 36.736z" fill="#000000" fill-opacity=".1" p-id="12955"></path><path d="M703.04 190.4c0 19.072-24.96 31.808-55.04 31.808-30.144 0-54.144 0-54.144-22.208 0-19.584 38.976-48.704 54.144-48.704 20.608 0 55.04 19.52 55.04 39.04z" fill="#E3F6FF" p-id="12956"></path><path d="M703.04 188.032c0 17.92-20.48 29.888-45.248 29.888-24.768 0-44.48 0-44.48-20.928 0-18.368 32-45.696 44.48-45.696 16.96 0 45.248 18.304 45.248 36.736z" fill="#000000" fill-opacity=".1" p-id="12957"></path><path d="M703.04 133.568c0 19.072-24.96 31.808-55.04 31.808-30.144 0-54.144 0-54.144-22.272 0-19.584 38.976-48.64 54.144-48.64 20.608 0 55.04 19.52 55.04 39.04z" fill="#E3F6FF" p-id="12958"></path><path d="M703.04 131.2c0 17.92-20.48 29.824-45.248 29.824-24.768 0-44.48 0-44.48-20.864 0-18.368 32-45.76 44.48-45.76 16.96 0 45.248 18.368 45.248 36.736z" fill="#000000" fill-opacity=".1" p-id="12959"></path><path d="M703.04 73.856c0 19.072-24.96 31.808-55.04 31.808-30.144 0-54.144 0-54.144-22.208 0-19.584 38.976-48.768 54.144-48.768 20.608 0 55.04 19.584 55.04 39.168z" fill="#E3F6FF" p-id="12960"></path><path d="M703.04 71.488c0 17.92-20.48 29.824-45.248 29.824-24.768 0-44.48 0-44.48-20.864 0-18.368 32-45.76 44.48-45.76 16.96 0 45.248 18.368 45.248 36.8z" fill="#000000" fill-opacity=".1" p-id="12961"></path><path d="M389.76 432.64q10.496 6.848 21.12 6.848 10.56 0 21.12-6.848v-37.952h-42.24v37.952z" fill="#1C2D58" p-id="12962"></path><path d="M465.408 380.224c0 19.136-24.832 31.808-55.04 31.808-30.08 0-54.08 0-54.08-22.208 0-19.584 38.976-48.64 54.144-48.64 20.608 0 55.04 19.456 55.04 39.04z" fill="#E3F6FF" p-id="12963"></path><path d="M465.408 377.856c0 17.92-20.48 29.888-45.248 29.888-24.768 0-44.48 0-44.48-20.864 0-18.368 32-45.76 44.48-45.76 17.024 0 45.248 18.368 45.248 36.736z" fill="#000000" fill-opacity=".1" p-id="12964"></path><path d="M465.408 328.768c0 19.136-24.832 31.808-55.04 31.808-30.08 0-54.08 0-54.08-22.208 0-19.584 38.976-48.64 54.144-48.64 20.608 0 55.04 19.456 55.04 39.04z" fill="#E3F6FF" p-id="12965"></path><path d="M465.408 326.4c0 17.92-20.48 29.888-45.248 29.888-24.768 0-44.48 0-44.48-20.864 0-18.368 32-45.76 44.48-45.76 17.024 0 45.248 18.368 45.248 36.736z" fill="#000000" fill-opacity=".1" p-id="12966"></path><path d="M465.408 277.312c0 19.136-24.832 31.808-55.04 31.808-30.08 0-54.08 0-54.08-22.208 0-19.584 38.976-48.704 54.144-48.704 20.608 0 55.04 19.52 55.04 39.104z" fill="#E3F6FF" p-id="12967"></path><path d="M465.408 274.944c0 17.92-20.48 29.888-45.248 29.888-24.768 0-44.48 0-44.48-20.864 0-18.432 32-45.76 44.48-45.76 17.024 0 45.248 18.368 45.248 36.736z" fill="#000000" fill-opacity=".1" p-id="12968"></path><path d="M465.408 225.856c0 19.072-24.832 31.808-55.04 31.808-30.08 0-54.08 0-54.08-22.208 0-19.584 38.976-48.704 54.144-48.704 20.608 0 55.04 19.52 55.04 39.104z" fill="#E3F6FF" p-id="12969"></path><path d="M465.408 223.488c0 17.92-20.48 29.888-45.248 29.888-24.768 0-44.48 0-44.48-20.864 0-18.432 32-45.76 44.48-45.76 17.024 0 45.248 18.304 45.248 36.736z" fill="#000000" fill-opacity=".1" p-id="12970"></path><path d="M465.408 168.96c0 19.2-24.832 31.872-55.04 31.872-30.08 0-54.08 0-54.08-22.208 0-19.584 38.976-48.704 54.144-48.704 20.608 0 55.04 19.52 55.04 39.04z" fill="#E3F6FF" p-id="12971"></path><path d="M465.408 166.656c0 17.92-20.48 29.888-45.248 29.888-24.768 0-44.48 0-44.48-20.928 0-18.368 32-45.696 44.48-45.696 17.024 0 45.248 18.304 45.248 36.736z" fill="#000000" fill-opacity=".1" p-id="12972"></path><path d="M465.408 109.312c0 19.072-24.832 31.808-55.04 31.808-30.08 0-54.08 0-54.08-22.208 0-19.584 38.976-48.704 54.144-48.704 20.608 0 55.04 19.52 55.04 39.04z" fill="#E3F6FF" p-id="12973"></path><path d="M465.408 106.88c0 17.984-20.48 29.952-45.248 29.952-24.768 0-44.48 0-44.48-20.864 0-18.432 32-45.76 44.48-45.76 17.024 0 45.248 18.304 45.248 36.736z" fill="#000000" fill-opacity=".1" p-id="12974"></path><path d="M308.48 661.312h33.92l-15.36 79.808 77.12-94.528-35.2-17.408 29.184-63.104-55.808-12.992-33.856 108.224z" fill="#FFE45C" p-id="12975"></path></svg>