<?xml version="1.0" standalone="no"?><!DOCTYPE svg PUBLIC "-//W3C//DTD SVG 1.1//EN" "http://www.w3.org/Graphics/SVG/1.1/DTD/svg11.dtd"><svg t="1748859960386" class="icon" viewBox="0 0 1024 1024" version="1.1" xmlns="http://www.w3.org/2000/svg" p-id="5625" xmlns:xlink="http://www.w3.org/1999/xlink" width="200" height="200"><path d="M651.4 634.6c-25.2 39.7-64.8 65.3-109.5 65.3-66.6 0-122.1-56.9-134.9-132.6h401.4c1.4-10.9 2.1-22.1 2.1-33.4 0-148.3-120.3-268.6-268.6-268.6S273.3 385.5 273.3 533.8s120.3 268.6 268.6 268.6c112.7 0 209.2-69.4 249-167.8H651.4zM541.9 367.8c66.4 0 121.8 56.7 134.8 132.1H407.1c13-75.4 68.4-132.1 134.8-132.1z" fill="#003DF0" p-id="5626"></path><path d="M421.3 773.9c-61.3 25.5-112.7 27.7-139.8 0.6-54.9-54.9 10.4-209.1 145.7-344.5s289.6-200.6 344.5-145.7c24.4 24.4 25 68.4 6.4 121.6 2 3.6 3.9 7.3 5.7 11 29.1-74.2 29.5-138.2-5.8-173.5-68.2-68.2-243.8-3.3-392.2 145.1s-213.3 324-145.1 392.2c38.1 38.1 109.8 34.7 191.4-1.7-3.7-1.7-7.3-3.4-10.8-5.1z" fill="#FFC12A" p-id="5627"></path></svg>