<?xml version="1.0" standalone="no"?><!DOCTYPE svg PUBLIC "-//W3C//DTD SVG 1.1//EN" "http://www.w3.org/Graphics/SVG/1.1/DTD/svg11.dtd"><svg t="1748855525279" class="icon" viewBox="0 0 1024 1024" version="1.1" xmlns="http://www.w3.org/2000/svg" p-id="9544" xmlns:xlink="http://www.w3.org/1999/xlink" width="200" height="200"><path d="M511.903232 922.7264a392.8064 392.8064 0 0 1-158.72-33.28 405.8624 405.8624 0 0 1-129.5872-90.624 422.8608 422.8608 0 0 1-87.3984-134.4 433.92 433.92 0 0 1-32.0512-164.6592c0-57.088 10.752-112.4864 32.0512-164.6592A422.656 422.656 0 0 1 223.596032 200.704a406.016 406.016 0 0 1 129.5872-90.624 392.8064 392.8064 0 0 1 158.72-33.28c55.04 0 108.4416 11.2128 158.72 33.28a405.8624 405.8624 0 0 1 129.6384 90.624 422.8608 422.8608 0 0 1 87.3984 134.4c21.248 52.224 32.0512 107.52 32.0512 164.6592 0 57.088-10.752 112.4864-32.0512 164.6592a422.656 422.656 0 0 1-87.3984 134.4 406.016 406.016 0 0 1-129.5872 90.624c-50.3296 22.0672-103.7312 33.28-158.72 33.28z m0-773.12c-186.112 0-337.5616 157.0816-337.5616 350.1568 0 193.024 151.4496 350.1056 337.5616 350.1056 186.1632 0 337.6128-157.0816 337.6128-350.1056s-151.4496-350.1568-337.6128-350.1568zM271.160832 719.104c-27.7504 0-54.1184-1.1776-78.7968-3.584-50.1248-4.7616-91.2384-14.4384-122.112-28.672-48.9984-22.528-64.4096-53.6576-68.7104-75.8272-3.6864-18.9952-2.56-48.9984 23.9104-83.968 16.5376-21.9648 41.5744-44.032 74.3936-65.5872a34.3552 34.3552 0 0 1 48.4352 11.264 37.2224 37.2224 0 0 1-10.8544 50.2272c-57.088 37.5296-68.8128 64.6144-67.072 73.728 1.0752 5.632 9.1136 14.7456 28.3648 23.6544 23.552 10.8544 58.2144 18.688 100.1472 22.7328 92.0064 8.8576 210.944-0.4608 334.848-26.2656s237.056-64.8192 318.6688-109.8752c37.1712-20.5312 66.2016-41.6768 83.8656-61.0816 14.4896-15.872 18.4832-27.5968 17.408-33.1776-1.792-9.0624-22.5792-29.2864-88.8832-41.0624a36.352 36.352 0 0 1-28.672-42.0352 35.2768 35.2768 0 0 1 40.5504-29.696c38.144 6.7584 69.3248 17.0496 92.672 30.6688 37.2736 21.6576 49.4592 48.7936 53.1456 67.7888 4.3008 22.1184 1.6896 57.0368-35.1744 97.4848-23.1936 25.4976-57.4976 50.8416-101.9392 75.3664-87.4496 48.2816-207.4112 89.856-337.8176 116.992-97.792 20.3776-193.2288 30.9248-276.3776 30.9248z" fill="#417DFF" p-id="9545"></path><path d="M699.602432 467.6608a40.5504 40.5504 0 0 1-38.5024-29.3376 245.248 245.248 0 0 0-118.272-145.152 42.5984 42.5984 0 0 1-17.5616-56.32 39.68 39.68 0 0 1 54.3232-18.176c75.4176 39.9872 133.1712 110.9504 158.5152 194.56 6.656 22.016-5.12 45.568-26.4192 52.48a38.6048 38.6048 0 0 1-12.0832 1.9456z" fill="#FF9900" p-id="9546"></path></svg>