<?xml version="1.0" standalone="no"?><!DOCTYPE svg PUBLIC "-//W3C//DTD SVG 1.1//EN" "http://www.w3.org/Graphics/SVG/1.1/DTD/svg11.dtd"><svg t="1751551604753" class="icon" viewBox="0 0 1024 1024" version="1.1" xmlns="http://www.w3.org/2000/svg" p-id="20992" xmlns:xlink="http://www.w3.org/1999/xlink" width="128" height="128"><path d="M511.418842 511.418842m-511.418842 0a511.418842 511.418842 0 1 0 1022.837684 0 511.418842 511.418842 0 1 0-1022.837684 0Z" fill="#59C1C0" p-id="20993"></path><path d="M695.064699 763.641317H327.772985c-20.92168 0-37.194098-18.597049-37.194097-40.681045v-111.582292c0-8.136209 6.973893-16.272418 16.272417-16.272418s16.272418 6.973893 16.272418 16.272418v111.582292c0 4.649262 3.486947 9.298524 5.811578 9.298525h367.291714c2.324631 0 5.811578-3.486947 5.811578-9.298525V298.715096c0-5.811578-3.486947-9.298524-5.811578-9.298524H327.772985c-2.324631 0-5.811578 3.486947-5.811578 9.298524v111.582293c0 8.136209-6.973893 16.272418-16.272417 16.272418-8.136209 0-16.272418-6.973893-16.272418-16.272418v-111.582293c0-22.083995 16.272418-40.681044 37.194098-40.681044h367.291714c20.92168 0 37.194098 18.597049 37.194097 40.681044V721.797957c1.162316 23.246311-15.110102 41.84336-36.031782 41.84336z" fill="#FFFFFF" p-id="20994"></path><path d="M582.320091 526.528944H306.851305c-8.136209 0-16.272418-6.973893-16.272417-16.272417 0-8.136209 6.973893-16.272418 16.272417-16.272418h276.631101c8.136209 0 16.272418 6.973893 16.272418 16.272418-1.162316 9.298524-8.136209 16.272418-17.434733 16.272417z" fill="#FFFFFF" p-id="20995"></path><path d="M534.665153 600.91714c-8.136209 0-16.272418-6.973893-16.272417-16.272418 0-3.486947 1.162316-6.973893 3.486946-10.46084l62.76504-74.388195c5.811578-6.973893 16.272418-6.973893 22.083995-1.162316 6.973893 5.811578 6.973893 15.110102 2.324631 22.083996L546.288309 596.267877c-3.486947 3.486947-6.973893 4.649262-11.623156 4.649263z" fill="#FFFFFF" p-id="20996"></path><path d="M597.430193 526.528944c-4.649262 0-9.298524-2.324631-11.623156-5.811577L523.041998 446.329171c-5.811578-6.973893-4.649262-16.272418 2.324631-22.083995 6.973893-5.811578 16.272418-4.649262 22.083995 2.324631l62.76504 74.388195c5.811578 6.973893 4.649262 16.272418-2.324631 22.083996-3.486947 2.324631-6.973893 3.486947-10.46084 3.486946z" fill="#FFFFFF" p-id="20997"></path></svg>