<?xml version="1.0" standalone="no"?><!DOCTYPE svg PUBLIC "-//W3C//DTD SVG 1.1//EN" "http://www.w3.org/Graphics/SVG/1.1/DTD/svg11.dtd"><svg t="1751551498901" class="icon" viewBox="0 0 1024 1024" version="1.1" xmlns="http://www.w3.org/2000/svg" p-id="13137" xmlns:xlink="http://www.w3.org/1999/xlink" width="128" height="128"><path d="M512 1024C229.232 1024 0 794.768 0 512 0 229.232 229.232 0 512 0c282.768 0 512 229.232 512 512 0 282.768-229.232 512-512 512z m281.376-524.4l-79.2-99.008a19.648 19.648 0 0 0-15.568-7.392 19.2 19.2 0 0 0-6.608 1.056 19.936 19.936 0 0 0-13.2 18.752v59.392h-158.4A39.552 39.552 0 0 0 480.8 512a39.552 39.552 0 0 0 39.6 39.6h158.4v59.408c0 8.448 5.28 15.84 13.2 18.736a20.432 20.432 0 0 0 22.176-6.336l79.2-98.992a20.592 20.592 0 0 0 0-24.816zM599.6 670.4h-158.656a39.488 39.488 0 0 1-39.344-39.6V392.944a39.488 39.488 0 0 1 39.6-39.344h158.4a39.552 39.552 0 0 0 39.6-39.6 39.552 39.552 0 0 0-39.6-39.6H401.6a79.088 79.088 0 0 0-79.2 79.2v316.8a79.088 79.088 0 0 0 79.2 79.2h198a39.552 39.552 0 0 0 39.6-39.6 39.552 39.552 0 0 0-39.6-39.6z" fill="#1296db" p-id="13138"></path></svg>