<?xml version="1.0" standalone="no"?><!DOCTYPE svg PUBLIC "-//W3C//DTD SVG 1.1//EN" "http://www.w3.org/Graphics/SVG/1.1/DTD/svg11.dtd"><svg t="1751551662418" class="icon" viewBox="0 0 1024 1024" version="1.1" xmlns="http://www.w3.org/2000/svg" p-id="23026" xmlns:xlink="http://www.w3.org/1999/xlink" width="128" height="128"><path d="M577.28 768h-263.68A57.58976 57.58976 0 0 1 256 710.4v-396.8A57.58976 57.58976 0 0 1 313.6 256h263.68A57.58976 57.58976 0 0 1 634.88 313.6v396.8A57.58976 57.58976 0 0 1 577.28 768z" fill="#D2F2FF" p-id="23027"></path><path d="M887.86944 492.31872L700.59008 304.95744a26.9312 26.9312 0 0 0-38.12352 0 26.99264 26.99264 0 0 0 0 38.12352l141.38368 141.38368H304.9472a26.85952 26.85952 0 0 0-26.92096 26.92096 26.91072 26.91072 0 0 0 26.92096 26.92096h498.90304L661.85216 680.2944a26.99264 26.99264 0 0 0 0 38.12352 27.16672 27.16672 0 0 0 19.06688 7.85408c6.88128 0 13.76256-2.65216 19.06688-7.85408L887.9616 530.432c10.40384-10.57792 10.496-27.61728-0.09216-38.11328z m0 0" fill="#48C3FF" p-id="23028"></path><path d="M740.39296 780.9024a26.91072 26.91072 0 0 0-26.92096 26.92096v6.97344c0 14.90944-14.6432 26.92096-32.73728 26.92096H214.48704c-18.00192 0-32.74752-12.00128-32.74752-26.92096V208.49664c0.09216-14.82752 14.73536-26.92096 32.74752-26.92096h466.24768c18.00192 0 32.73728 12.00128 32.73728 26.92096v6.61504a26.91072 26.91072 0 1 0 53.84192 0v-6.61504c0-44.56448-38.83008-80.75264-86.5792-80.75264H214.48704c-47.74912 0-86.48704 36.18816-86.48704 80.75264V814.7968c0 44.56448 38.83008 80.75264 86.48704 80.75264h466.24768c47.74912 0 86.5792-36.17792 86.5792-80.75264v-6.97344a26.9824 26.9824 0 0 0-26.92096-26.92096z m0 0" fill="#48C3FF" p-id="23029"></path></svg>