<?xml version="1.0" encoding="utf-8"?>
<!-- Generator: Adobe Illustrator 14.0.0, SVG Export Plug-In . SVG Version: 6.00 Build 43363)  -->
<!DOCTYPE svg PUBLIC "-//W3C//DTD SVG 1.1//EN" "http://www.w3.org/Graphics/SVG/1.1/DTD/svg11.dtd">
<svg version="1.1" id="图层_1" xmlns="http://www.w3.org/2000/svg" xmlns:xlink="http://www.w3.org/1999/xlink" x="0px" y="0px"
	 width="141.862px" height="106.502px" viewBox="0 0 141.862 106.502" enable-background="new 0 0 141.862 106.502"
	 xml:space="preserve">
<path stroke="#000000" stroke-width="2" d="M3.976,74.835V3.976h133.768v70.859H3.976z"/>
<path fill="#B2B2B2" stroke="#000000" stroke-width="2" d="M70.86,70.86V7.952h62.907V70.86H70.86z"/>
<path fill="#7F7F7F" stroke="#000000" stroke-width="2" d="M70.86,70.86l-55.097,31.524V39.335L70.86,7.952V70.86z"/>
<path fill="#CCCCCC" stroke="#000000" stroke-width="2" d="M7.952,39.335v6.39l0.142,6.248l0.284,6.106l0.142,5.68l0.426,5.538
	l0.284,5.255l0.568,4.828l0.426,4.544l0.568,4.118l0.852,5.254l0.994,4.118l1.562,3.692l1.136,1.277h0.426V39.335l-2.556-3.408
	L12.07,31.95l-0.852-4.26l-0.71-3.834L9.94,19.596L9.373,14.91L8.946,9.798L8.804,7.952H7.952V39.335z"/>
</svg>
