<?xml version="1.0" encoding="utf-8"?>
<!-- Generator: Adobe Illustrator 14.0.0, SVG Export Plug-In . SVG Version: 6.00 Build 43363)  -->
<!DOCTYPE svg PUBLIC "-//W3C//DTD SVG 1.1//EN" "http://www.w3.org/Graphics/SVG/1.1/DTD/svg11.dtd">
<svg version="1.1" id="图层_1" xmlns="http://www.w3.org/2000/svg" xmlns:xlink="http://www.w3.org/1999/xlink" x="0px" y="0px"
	 width="142.235px" height="106.502px" viewBox="0 0 142.235 106.502" enable-background="new 0 0 142.235 106.502"
	 xml:space="preserve">
<path stroke="#000000" stroke-width="2" d="M138.106,74.75V3.989H3.987V74.75H138.106z"/>
<path fill="#7F7F7F" stroke="#000000" stroke-width="2" d="M71.047,71.048V7.69H7.973v63.358H71.047z"/>
<path fill="#B2B2B2" stroke="#000000" stroke-width="2" d="M71.047,71.048l55.243,31.466V39.441L71.047,7.69V71.048z"/>
<path fill="#7F7F7F" stroke="#000000" stroke-width="2" d="M134.12,39.441v6.407l-0.143,6.265l-0.284,6.122l-0.143,5.695
	l-0.427,5.553l-0.285,5.125l-0.569,4.841l-0.427,4.557l-0.57,3.986l-0.854,5.268l-0.997,4.271l-1.565,3.56l-1.14,1.281l-0.427,0.143
	V39.441l2.563-3.417l1.139-3.987l0.854-4.413l0.712-3.702l0.569-4.414l0.569-4.698l0.428-5.268l0.143-1.852h0.854V39.441z"/>
</svg>
