<?xml version="1.0" encoding="utf-8"?>
<!-- Generator: Adobe Illustrator 14.0.0, SVG Export Plug-In . SVG Version: 6.00 Build 43363)  -->
<!DOCTYPE svg PUBLIC "-//W3C//DTD SVG 1.1//EN" "http://www.w3.org/Graphics/SVG/1.1/DTD/svg11.dtd">
<svg version="1.1" id="图层_1" xmlns="http://www.w3.org/2000/svg" xmlns:xlink="http://www.w3.org/1999/xlink" x="0px" y="0px"
	 width="79.74px" height="106.502px" viewBox="0 0 79.74 106.502" enable-background="new 0 0 79.74 106.502" xml:space="preserve">
<path stroke="#000000" stroke-width="2" d="M23.453,103.408h53.302V2.988H23.453V103.408z"/>
<path fill="#7F7F7F" stroke="#000000" stroke-width="2" d="M26.438,53.198h47.226V5.972H26.438V53.198z"/>
<path fill="#B2B2B2" stroke="#000000" stroke-width="2" d="M26.438,53.198L2.985,94.561H50.21l23.453-41.363H26.438z"/>
<path fill="#7F7F7F" stroke="#000000" stroke-width="2" d="M50.21,100.424h-4.903l-4.69-0.107l-4.478-0.213l-4.371-0.106
	l-4.157-0.32l-3.838-0.213l-3.624-0.427l-3.306-0.319l-3.091-0.427l-3.944-0.64l-3.092-0.746l-2.771-1.173l-0.96-0.853v-0.319H50.21
	l2.452,1.918l3.092,0.854l3.092,0.64l2.878,0.533l3.198,0.426l3.518,0.427l3.838,0.319l1.386,0.107v0.64H50.21z"/>
</svg>
