<?xml version="1.0" encoding="utf-8"?>
<!-- Generator: Adobe Illustrator 14.0.0, SVG Export Plug-In . SVG Version: 6.00 Build 43363)  -->
<!DOCTYPE svg PUBLIC "-//W3C//DTD SVG 1.1//EN" "http://www.w3.org/Graphics/SVG/1.1/DTD/svg11.dtd">
<svg version="1.1" id="图层_1" xmlns="http://www.w3.org/2000/svg" xmlns:xlink="http://www.w3.org/1999/xlink" x="0px" y="0px"
	 width="79.956px" height="106.502px" viewBox="0 0 79.956 106.502" enable-background="new 0 0 79.956 106.502"
	 xml:space="preserve">
<path stroke="#000000" stroke-width="2" d="M23.667,2.986h53.197V103.41H23.667V2.986z"/>
<path fill="#B2B2B2" stroke="#000000" stroke-width="2" d="M26.652,53.198H73.88v47.228H26.652V53.198z"/>
<path fill="#7F7F7F" stroke="#000000" stroke-width="2" d="M26.652,53.198L2.985,11.834h47.228L73.88,53.198H26.652z"/>
<path fill="#CCCCCC" stroke="#000000" stroke-width="2" d="M50.213,5.971h-4.798l-4.69,0.106L36.14,6.29l-4.265,0.106l-4.157,0.32
	L23.881,6.93l-3.625,0.427l-3.411,0.319l-2.985,0.427l-4.051,0.64L6.717,9.489l-2.772,1.173l-0.959,0.853v0.32h47.228l2.452-1.919
	l3.091-0.854l3.198-0.64l2.879-0.532l3.198-0.427l3.625-0.427l3.838-0.319l1.386-0.106v-0.64H50.213z"/>
</svg>
