<?xml version="1.0" encoding="utf-8"?>
<!-- Generator: Adobe Illustrator 14.0.0, SVG Export Plug-In . SVG Version: 6.00 Build 43363)  -->
<!DOCTYPE svg PUBLIC "-//W3C//DTD SVG 1.1//EN" "http://www.w3.org/Graphics/SVG/1.1/DTD/svg11.dtd">
<svg version="1.1" id="图层_1" xmlns="http://www.w3.org/2000/svg" xmlns:xlink="http://www.w3.org/1999/xlink" x="0px" y="0px"
	 width="106.502px" height="106.502px" viewBox="0 0 106.502 106.502" enable-background="new 0 0 106.502 106.502"
	 xml:space="preserve">
<circle fill="#333333" cx="45.948" cy="45.948" r="42.964"/>
<path fill="#4C4C4C" d="M6.823,43.283l2.666-13.966l7.889-12.58l12.687-7.996l13.965-2.665l13.859,2.665l12.58,7.996l7.996,12.58
	l2.665,13.966l-2.665,13.859l-7.996,12.687l-12.58,7.889l-13.859,2.665l-13.965-2.665l-12.687-7.889L9.488,57.143L6.823,43.283z"/>
<path fill="#666666" d="M10.981,40.085l2.239-11.728l6.716-10.66l10.661-6.717L42.43,8.741l11.728,2.239l10.66,6.717l6.717,10.66
	l2.238,11.728l-2.238,11.833l-6.717,10.661l-10.66,6.717L42.43,71.534l-11.833-2.238l-10.661-6.717L13.22,51.918L10.981,40.085z"/>
<path fill="#7F7F7F" d="M14.712,37.527l1.813-9.595l5.543-8.742l8.636-5.544l9.595-1.813l9.595,1.813l8.741,5.544l5.545,8.742
	l1.813,9.595l-1.813,9.595l-5.545,8.742L49.893,61.3l-9.595,1.813L30.704,61.3l-8.636-5.437l-5.543-8.742L14.712,37.527z"/>
<circle fill="#999999" cx="37.953" cy="34.648" r="20.149"/>
<path fill="#B2B2B2" d="M21.961,31.77l1.066-5.544l3.092-4.904l5.011-3.198l5.543-1.065l5.437,1.065l5.011,3.198l3.092,4.904
	l1.066,5.544l-1.066,5.437l-3.092,5.011l-5.011,3.092l-5.437,1.066l-5.543-1.066l-5.011-3.092l-3.092-5.011L21.961,31.77z"/>
<path fill="#999999" stroke="#000000" stroke-width="2" d="M28.998,42.644l13.646-13.646l60.767,60.98L89.978,103.41L28.998,42.644z
	"/>
<path fill="none" stroke="#FFFFFF" stroke-width="2" d="M28.998,42.644l13.646-13.646"/>
<path stroke="#000000" stroke-width="2" d="M45.948,52.665l6.717-6.717L37.42,37.42L45.948,52.665z"/>
<path fill="none" stroke="#FFFFFF" stroke-width="2" d="M45.948,52.665l6.717-6.717"/>
</svg>
