<?xml version="1.0" encoding="utf-8"?>
<!-- Generator: Adobe Illustrator 14.0.0, SVG Export Plug-In . SVG Version: 6.00 Build 43363)  -->
<!DOCTYPE svg PUBLIC "-//W3C//DTD SVG 1.1//EN" "http://www.w3.org/Graphics/SVG/1.1/DTD/svg11.dtd">
<svg version="1.1" id="图层_1" xmlns="http://www.w3.org/2000/svg" xmlns:xlink="http://www.w3.org/1999/xlink" x="0px" y="0px"
	 width="109.461px" height="106.502px" viewBox="0 0 109.461 106.502" enable-background="new 0 0 109.461 106.502"
	 xml:space="preserve">
<path d="M106.065,59.278l0.109-56.1L3.178,3.287l0.11,55.99l16.764,9.313l3.506,8.766l5.807,7.451l7.341,5.588l8.656,3.615
	l9.313,1.206l9.313-1.206l8.547-3.615l7.451-5.588l5.697-7.451l3.507-8.766L106.065,59.278z"/>
<path d="M106.174,3.287l-0.109-0.109l-0.109,56.1h0.219l0.109-56.1l-0.109-0.11l0.109,0.11v-0.11h-0.109V3.287z"/>
<path d="M3.288,3.287l-0.11,0.109l102.997-0.109v-0.22L3.178,3.178L3.068,3.287l0.109-0.109H3.068v0.109H3.288z"/>
<path d="M3.288,59.278h0.109L3.288,3.287H3.068l0.109,55.99v0.109v-0.109v0.109l0,0L3.288,59.278z"/>
<path d="M20.161,68.591h-0.109L3.288,59.278l-0.11,0.109L19.942,68.7v-0.109H20.161L20.161,68.591h-0.109H20.161z"/>
<path d="M23.667,77.247v0.109l-3.506-8.766h-0.219l3.506,8.766l0,0l0,0l0,0L23.667,77.247z"/>
<path d="M29.365,84.698L29.365,84.698l-5.698-7.45l-0.219,0.109l5.808,7.451v0.109v-0.109v0.109l0,0L29.365,84.698z"/>
<path d="M36.707,90.286v0.109l-7.341-5.698l-0.109,0.22l7.341,5.588l0,0l0,0l0,0L36.707,90.286z"/>
<path d="M45.362,93.902l-8.656-3.615l-0.11,0.219l8.766,3.616V93.902z"/>
<path d="M54.676,95.107L54.676,95.107l-9.313-1.205v0.22l9.313,1.205l0,0l0,0l0,0l0,0V95.107z"/>
<path d="M63.989,93.902l-9.313,1.205v0.22l9.313-1.205V93.902z"/>
<path d="M72.536,90.396v-0.109l-8.547,3.615v0.22l8.547-3.616h0.109h-0.109h0.109L72.536,90.396z"/>
<path d="M79.987,84.698L79.987,84.698l-7.451,5.698l0.109,0.109l7.451-5.588v-0.109v0.109l0,0v-0.109L79.987,84.698z"/>
<path d="M85.575,77.357v-0.109l-5.588,7.45l0.109,0.11l5.588-7.451h0.109h-0.109h0.109H85.575z"/>
<path d="M89.081,68.591L89.081,68.591l-3.506,8.766h0.219l3.507-8.766L89.191,68.7L89.081,68.591L89.081,68.591L89.081,68.591z"/>
<path d="M105.956,59.278h0.109l-16.984,9.313l0.11,0.109l16.983-9.313v-0.109v0.109l0,0v-0.109H105.956z"/>
<path fill="#E5E5E5" stroke="#000000" stroke-width="2" d="M40.87,28.05L23.229,45.581l-0.548,1.534v24.434l0.548,1.754
	L40.87,90.724l1.534,0.438h24.434l1.644-0.438l17.422-17.421l0.548-1.754V47.115l-0.548-1.534L68.482,28.05l-1.644-0.548H42.404
	L40.87,28.05z"/>
<path fill="#7F7F7F" stroke="#000000" stroke-width="2" d="M84.479,59.278l-0.548-6.574l-2.301-6.355l-3.396-5.697l-4.821-4.821
	l-5.807-3.396l-6.355-2.301l-6.684-0.768l-6.684,0.768l-6.246,2.301l-5.698,3.396l-4.821,4.821l-3.506,5.697l-2.191,6.355
	l-0.767,6.574l0.767,6.684l2.191,6.465l3.506,5.808l4.821,4.602l5.698,3.506l6.246,2.302l6.684,0.657l6.684-0.657l6.355-2.302
	l5.807-3.506l4.821-4.602l3.396-5.808l2.301-6.465L84.479,59.278z"/>
<path fill="#B2B2B2" stroke="#000000" stroke-width="2" d="M59.059,25.42v6.246l5.697,1.753l5.588,2.958l4.712,3.944l3.507,4.931
	l2.629,5.589l1.096,6.026v6.245l-1.533,5.917l-2.74,5.479l-3.944,4.821l-4.712,3.615l-5.697,2.739l-5.916,1.205h-6.137l-6.026-1.205
	l-5.588-2.739l-4.931-3.615l-3.945-4.821l-2.629-5.479l-1.424-5.917l-0.219-6.245l1.096-6.026l2.629-5.589l3.506-4.931l4.711-3.944
	l5.588-2.958l5.917-1.753V25.42H59.059z"/>
<circle cx="54.566" cy="59.278" r="23.776"/>
<path stroke="#7F7F7F" stroke-width="2" d="M36.707,54.238l13.916-13.916l49.416,50.95l-12.162,12.163L36.707,54.238z"/>
<path fill="#E5E5E5" stroke="#7F7F7F" stroke-width="2" d="M45.801,49.635l5.807,0.986l-1.315,1.205l6.356,6.355l-2.083,2.191
	l-6.465-6.245l-1.314,1.205L45.801,49.635z"/>
<path fill="none" stroke="#7F7F7F" stroke-width="2" d="M64.208,54.347l-4.054,2.521l-3.616,3.287l-3.177,3.615l-2.63,3.944"/>
<path fill="none" stroke="#7F7F7F" stroke-width="2" d="M83.165,98.723l12.162-12.271"/>
<path fill="none" stroke="#7F7F7F" stroke-width="2" d="M82.726,98.284l12.053-12.381"/>
<path fill="none" stroke="#7F7F7F" stroke-width="2" d="M77.795,93.573l12.381-12.601"/>
<path fill="none" stroke="#7F7F7F" stroke-width="2" d="M77.248,93.135l12.382-12.601"/>
<path fill="none" stroke="#7F7F7F" stroke-width="2" d="M72.317,88.314l12.491-12.71"/>
<path fill="none" stroke="#7F7F7F" stroke-width="2" d="M71.659,87.875L84.37,75.056"/>
<path fill="none" stroke="#7F7F7F" stroke-width="2" d="M66.838,83.164l12.71-12.82"/>
<path fill="none" stroke="#7F7F7F" stroke-width="2" d="M66.4,82.726l12.819-12.93"/>
<path fill="none" stroke="#7F7F7F" stroke-width="2" d="M61.469,77.905l12.93-13.148"/>
<path fill="none" stroke="#7F7F7F" stroke-width="2" d="M60.812,77.466L73.96,64.208"/>
<path fill="none" stroke="#7F7F7F" stroke-width="2" d="M55.991,72.865l13.148-13.368"/>
<path fill="none" stroke="#7F7F7F" stroke-width="2" d="M55.553,72.317l13.038-13.368"/>
<path fill="none" stroke="#7F7F7F" stroke-width="2" d="M86.342,77.247l13.695,14.024"/>
<path fill="none" stroke="#7F7F7F" stroke-width="2" d="M87.875,103.435l12.162-12.163"/>
<path fill="none" stroke="#7F7F7F" stroke-width="2" d="M73.96,89.848l13.915,13.587"/>
<path fill="none" stroke="#7F7F7F" stroke-width="2" d="M57.525,61.14"/>
<path fill="none" stroke="#7F7F7F" stroke-width="2" d="M94.012,97.298"/>
<path fill="none" stroke="#7F7F7F" stroke-width="2" d="M87.875,103.435l12.162-12.163"/>
</svg>
