<?xml version="1.0" encoding="utf-8"?>
<!-- Generator: Adobe Illustrator 14.0.0, SVG Export Plug-In . SVG Version: 6.00 Build 43363)  -->
<!DOCTYPE svg PUBLIC "-//W3C//DTD SVG 1.1//EN" "http://www.w3.org/Graphics/SVG/1.1/DTD/svg11.dtd">
<svg version="1.1" id="图层_1" xmlns="http://www.w3.org/2000/svg" xmlns:xlink="http://www.w3.org/1999/xlink" x="0px" y="0px"
	 width="106.502px" height="106.502px" viewBox="0 0 106.502 106.502" enable-background="new 0 0 106.502 106.502"
	 xml:space="preserve">
<circle fill="#333333" cx="60.341" cy="45.948" r="42.964"/>
<path fill="#4C4C4C" d="M21.322,43.283l2.559-13.966l7.996-12.58l12.58-7.996l14.073-2.665l13.859,2.665l12.579,7.996l7.995,12.58
	l2.666,13.966l-2.666,13.966l-7.995,12.58l-12.579,7.995l-13.859,2.559l-14.073-2.559l-12.58-7.995l-7.996-12.58L21.322,43.283z"/>
<path fill="#666666" d="M25.479,40.085l2.239-11.728l6.716-10.66l10.661-6.717l11.833-2.239l11.727,2.239l10.661,6.717l6.717,10.66
	l2.239,11.728l-2.239,11.833l-6.717,10.661l-10.661,6.717l-11.727,2.238l-11.833-2.238l-10.661-6.717l-6.716-10.661L25.479,40.085z"
	/>
<path fill="#7F7F7F" d="M29.104,37.527l1.812-9.702l5.544-8.635l8.635-5.544l9.701-1.813l9.702,1.813l8.636,5.544l5.543,8.635
	l1.706,9.702l-1.706,9.595l-5.543,8.742l-8.636,5.543l-9.702,1.706l-9.701-1.706l-8.635-5.543l-5.544-8.742L29.104,37.527z"/>
<circle fill="#999999" cx="52.452" cy="34.648" r="20.149"/>
<path fill="#B2B2B2" d="M36.46,31.77l1.066-5.544l3.092-4.904l4.904-3.198l5.544-1.065l5.543,1.065l5.012,3.198l3.091,4.904
	l1.066,5.544l-1.066,5.543l-3.091,4.904l-5.012,3.092l-5.543,1.066l-5.544-1.066l-4.904-3.092l-3.092-4.904L36.46,31.77z"/>
<path fill="#999999" stroke="#000000" stroke-width="2" d="M63.751,28.997l13.646,13.646l-60.98,60.767L2.985,89.978L63.751,28.997z
	"/>
<path fill="none" stroke="#FFFFFF" stroke-width="2" d="M63.751,28.997L2.985,89.978"/>
<path stroke="#000000" stroke-width="2" d="M53.731,45.948l6.716,6.717l8.529-15.245L53.731,45.948z"/>
<path fill="none" stroke="#FFFFFF" stroke-width="2" d="M68.976,37.42l-8.529,15.245"/>
</svg>
