<?xml version="1.0" encoding="utf-8"?>
<!-- Generator: Adobe Illustrator 14.0.0, SVG Export Plug-In . SVG Version: 6.00 Build 43363)  -->
<!DOCTYPE svg PUBLIC "-//W3C//DTD SVG 1.1//EN" "http://www.w3.org/Graphics/SVG/1.1/DTD/svg11.dtd">
<svg version="1.1" id="图层_1" xmlns="http://www.w3.org/2000/svg" xmlns:xlink="http://www.w3.org/1999/xlink" x="0px" y="0px"
	 width="33.797px" height="106.502px" viewBox="0 0 33.797 106.502" enable-background="new 0 0 33.797 106.502"
	 xml:space="preserve">
<path stroke="#7F7F7F" stroke-width="2" d="M2.986,2.985h27.719l-1.386,100.213l-24.2,0.213L2.986,2.985z"/>
<path fill="#E5E5E5" stroke="#7F7F7F" stroke-width="2" d="M16.739,7.356l4.798,6.823H18.87l0.106,12.687h-4.264l-0.106-12.687
	h-2.666L16.739,7.356z"/>
<path fill="none" stroke="#7F7F7F" stroke-width="2" d="M30.384,30.597l-6.716-1.386l-6.717-0.427l-6.716,0.427l-6.717,1.386"/>
<path fill="none" stroke="#7F7F7F" stroke-width="2" d="M4.905,93.922l24.627-0.213"/>
<path fill="none" stroke="#7F7F7F" stroke-width="2" d="M4.905,92.963l24.627-0.106"/>
<path fill="none" stroke="#7F7F7F" stroke-width="2" d="M4.692,83.262l24.946-0.107"/>
<path fill="none" stroke="#7F7F7F" stroke-width="2" d="M4.692,82.408l24.946-0.106"/>
<path fill="none" stroke="#7F7F7F" stroke-width="2" d="M4.479,72.707l25.266-0.106"/>
<path fill="none" stroke="#7F7F7F" stroke-width="2" d="M4.479,71.641l25.266-0.106"/>
<path fill="none" stroke="#7F7F7F" stroke-width="2" d="M4.372,62.046l25.586-0.213"/>
<path fill="none" stroke="#7F7F7F" stroke-width="2" d="M4.372,61.087l25.586-0.106"/>
<path fill="none" stroke="#7F7F7F" stroke-width="2" d="M3.946,51.492l26.119-0.214"/>
<path fill="none" stroke="#7F7F7F" stroke-width="2" d="M3.946,50.426l26.119-0.106"/>
<path fill="none" stroke="#7F7F7F" stroke-width="2" d="M3.733,40.725l26.438-0.106"/>
<path fill="none" stroke="#7F7F7F" stroke-width="2" d="M3.733,39.765l26.545-0.106"/>
<path fill="none" stroke="#7F7F7F" stroke-width="2" d="M29.744,75.479l-0.426,27.719"/>
<path fill="none" stroke="#7F7F7F" stroke-width="2" d="M5.118,103.41l24.2-0.213"/>
<path fill="none" stroke="#7F7F7F" stroke-width="2" d="M4.585,76.012l0.533,27.398"/>
<path fill="none" stroke="#7F7F7F" stroke-width="2" d="M16.845,30.703"/>
<path fill="none" stroke="#7F7F7F" stroke-width="2" d="M17.165,103.304"/>
<path fill="none" stroke="#7F7F7F" stroke-width="2" d="M5.118,103.41l24.2-0.213"/>
</svg>
