<?xml version="1.0" encoding="utf-8"?>
<!-- Generator: Adobe Illustrator 14.0.0, SVG Export Plug-In . SVG Version: 6.00 Build 43363)  -->
<!DOCTYPE svg PUBLIC "-//W3C//DTD SVG 1.1//EN" "http://www.w3.org/Graphics/SVG/1.1/DTD/svg11.dtd">
<svg version="1.1" id="图层_1" xmlns="http://www.w3.org/2000/svg" xmlns:xlink="http://www.w3.org/1999/xlink" x="0px" y="0px"
	 width="98.827px" height="106.502px" viewBox="0 0 98.827 106.502" enable-background="new 0 0 98.827 106.502"
	 xml:space="preserve">
<path stroke="#000000" stroke-width="2" d="M95.842,53.624V2.985L2.985,3.092l0.106,50.532l15.032,8.422l3.198,7.676l5.224,6.717
	l6.717,5.224l7.782,3.305l8.315,1.066l8.422-1.066l7.783-3.305l6.609-5.224l5.117-6.717l3.305-7.676L95.842,53.624z"/>
<path fill="#E5E5E5" stroke="#000000" stroke-width="2" d="M36.887,25.48L21.216,41.151l-0.533,1.387v22.174l0.533,1.493
	l15.672,15.778l1.599,0.319h21.748l1.6-0.319l15.671-15.778l0.64-1.493V42.537l-0.64-1.387L61.834,25.48l-1.6-0.533H38.486
	L36.887,25.48z"/>
<path fill="#7F7F7F" stroke="#000000" stroke-width="2" d="M76.333,53.624L75.8,47.761l-2.133-5.757l-3.091-5.224l-4.265-4.265
	l-5.117-3.092l-5.757-2.239l-6.077-0.64l-6.076,0.64l-5.757,2.239l-5.011,3.092l-4.158,4.265l-3.305,5.224l-2.025,5.757l-0.64,5.863
	l0.64,6.077l2.025,5.649l3.305,5.225l4.158,4.264l5.011,3.306l5.757,1.812l6.076,0.64l6.077-0.64l5.757-1.812l5.117-3.306
	l4.265-4.264l3.091-5.225l2.133-5.649L76.333,53.624z"/>
<path fill="#B2B2B2" stroke="#000000" stroke-width="2" d="M53.304,23.028v5.65l5.331,1.492l4.903,2.665l4.371,3.625l3.198,4.478
	l2.133,5.117l1.065,5.331v5.649l-1.279,5.331l-2.559,5.011l-3.518,4.264l-4.265,3.412l-5.117,2.345l-5.33,1.279h-5.65l-5.438-1.279
	l-4.903-2.345l-4.478-3.412l-3.412-4.264L25.8,62.366l-1.386-5.331l-0.106-5.649l1.065-5.331l2.239-5.117l3.198-4.478l4.371-3.625
	l4.904-2.665l5.437-1.492v-5.65H53.304z"/>
<circle cx="49.36" cy="53.624" r="21.642"/>
<path stroke="#7F7F7F" stroke-width="2" d="M40.511,39.446h17.697l-0.746,63.965H42.005L40.511,39.446z"/>
<path fill="#E5E5E5" stroke="#7F7F7F" stroke-width="2" d="M49.36,42.323l3.092,4.265h-1.599v8.209h-2.772v-8.103h-1.813
	L49.36,42.323z"/>
<path fill="none" stroke="#7F7F7F" stroke-width="2" d="M57.996,57.035l-4.158-0.959l-4.371-0.106l-4.264,0.106l-4.265,0.959"/>
<path fill="none" stroke="#7F7F7F" stroke-width="2" d="M41.684,97.441h15.778"/>
<path fill="none" stroke="#7F7F7F" stroke-width="2" d="M41.684,96.907l15.778-0.106"/>
<path fill="none" stroke="#7F7F7F" stroke-width="2" d="M41.684,90.724l15.885-0.106"/>
<path fill="none" stroke="#7F7F7F" stroke-width="2" d="M41.684,90.084l15.885-0.213"/>
<path fill="none" stroke="#7F7F7F" stroke-width="2" d="M41.578,83.902l15.991-0.214"/>
<path fill="none" stroke="#7F7F7F" stroke-width="2" d="M41.578,83.368l16.098-0.214"/>
<path fill="none" stroke="#7F7F7F" stroke-width="2" d="M41.365,77.185l16.417-0.213"/>
<path fill="none" stroke="#7F7F7F" stroke-width="2" d="M41.365,76.439l16.417-0.106"/>
<path fill="none" stroke="#7F7F7F" stroke-width="2" d="M41.365,70.362l16.417-0.213"/>
<path fill="none" stroke="#7F7F7F" stroke-width="2" d="M41.151,69.722l16.845-0.213"/>
<path fill="none" stroke="#7F7F7F" stroke-width="2" d="M41.045,63.539l16.951-0.107"/>
<path fill="none" stroke="#7F7F7F" stroke-width="2" d="M41.045,62.9l16.951-0.107"/>
<path fill="none" stroke="#7F7F7F" stroke-width="2" d="M57.569,85.714l-0.106,17.696"/>
<path fill="none" stroke="#7F7F7F" stroke-width="2" d="M42.005,103.41h15.458"/>
<path fill="none" stroke="#7F7F7F" stroke-width="2" d="M41.578,86.033l0.427,17.377"/>
<path fill="none" stroke="#7F7F7F" stroke-width="2" d="M49.36,57.035v0.107"/>
<path fill="none" stroke="#7F7F7F" stroke-width="2" d="M49.68,103.41"/>
<path fill="none" stroke="#7F7F7F" stroke-width="2" d="M42.005,103.41h15.458"/>
</svg>
