<?xml version="1.0" encoding="utf-8"?>
<!-- Generator: Adobe Illustrator 14.0.0, SVG Export Plug-In . SVG Version: 6.00 Build 43363)  -->
<!DOCTYPE svg PUBLIC "-//W3C//DTD SVG 1.1//EN" "http://www.w3.org/Graphics/SVG/1.1/DTD/svg11.dtd">
<svg version="1.1" id="图层_1" xmlns="http://www.w3.org/2000/svg" xmlns:xlink="http://www.w3.org/1999/xlink" x="0px" y="0px"
	 width="118.346px" height="106.502px" viewBox="0 0 118.346 106.502" enable-background="new 0 0 118.346 106.502"
	 xml:space="preserve">
<path d="M114.792,64.209V3.437L3.436,3.555l0.118,60.654l18.125,10.069l3.909,9.358l6.16,8.175l7.937,6.041l9.359,3.91l9.951,1.303
	l10.188-1.303l9.359-3.91l7.938-6.041l6.16-8.175l3.79-9.358L114.792,64.209z"/>
<path d="M114.792,3.555l-0.119-0.118v60.772h0.238V3.437l-0.119-0.118l0.119,0.118V3.319h-0.119V3.555z"/>
<path d="M3.554,3.555L3.436,3.674l111.357-0.119V3.319L3.436,3.437L3.317,3.555l0.119-0.118H3.317v0.118H3.554z"/>
<path d="M3.554,64.091l0.119,0.118L3.554,3.555H3.317l0.119,60.654l0,0l0,0l0,0l0,0L3.554,64.091z"/>
<path d="M21.679,74.279V74.16L3.554,64.091l-0.118,0.118l18.125,10.188v-0.118H21.679V74.16l0,0V74.279z"/>
<path d="M25.588,83.519v0.118l-3.909-9.358h-0.119l3.909,9.358l0,0l0,0l0,0L25.588,83.519z"/>
<path d="M31.749,91.693h0.119l-6.279-8.174l-0.119,0.118l6.16,8.175l0,0l0,0l0,0l0,0L31.749,91.693z"/>
<path d="M39.804,97.735L39.804,97.735l-8.056-6.042l-0.119,0.119l8.056,6.041l0,0l0,0l0,0L39.804,97.735z"/>
<path d="M49.044,101.644L49.044,101.644l-9.24-3.909l-0.119,0.118l9.359,3.91v0.118v-0.118v0.118V101.644z"/>
<path d="M58.996,102.948l-9.951-1.304v0.237l9.951,1.303l0,0l0,0h0.118L58.996,102.948z"/>
<path d="M69.183,101.644L69.183,101.644l-10.188,1.304v0.236l10.188-1.303v-0.118v0.118v-0.118V101.644z"/>
<path d="M78.423,97.735L78.423,97.735l-9.24,3.909v0.119l9.359-3.91l0,0l0,0l0,0L78.423,97.735z"/>
<path d="M86.361,91.693h0.119l-8.057,6.042l0.119,0.118l8.055-6.041l0,0l0,0l0,0l0,0L86.361,91.693z"/>
<path d="M92.64,83.637v-0.118l-6.279,8.174l0.236,0.119l6.16-8.175l0,0l0,0l0,0H92.64z"/>
<path d="M96.43,74.16l-0.118,0.118l-3.672,9.358h0.117l3.791-9.358v0.118L96.43,74.16h-0.118v0.118L96.43,74.16z"/>
<path d="M114.673,64.209l0.119-0.118L96.43,74.16l0.118,0.236l18.363-10.188l0,0l0,0l0,0l0,0H114.673z"/>
<path fill="#E5E5E5" stroke="#000000" stroke-width="2" d="M44.306,30.447L25.115,49.282l-0.474,1.777v26.417l0.474,1.777
	L44.306,98.09l1.659,0.593h26.181l2.015-0.593l18.836-18.836l0.592-1.777V51.06l-0.592-1.777L74.16,30.447l-2.015-0.711H45.964
	L44.306,30.447z"/>
<circle fill="#7F7F7F" stroke="#000000" stroke-width="2" cx="59.114" cy="64.209" r="32.341"/>
<path fill="#B2B2B2" stroke="#000000" stroke-width="2" d="M63.853,27.485v6.753l6.396,1.896l5.805,3.198l5.331,4.384l3.791,5.212
	l2.487,6.042l1.422,6.634v6.634l-1.658,6.516l-2.844,5.805l-4.383,5.213l-5.213,4.028l-6.041,3.08l-6.397,1.303h-6.871L49.4,92.878
	l-6.16-3.08l-5.212-4.028l-4.146-5.213l-3.08-5.805l-1.658-6.516l-0.237-6.634l1.303-6.634l2.843-6.042l4.028-5.212l4.976-4.384
	l5.805-3.198l6.634-1.896v-6.753H63.853z"/>
<circle cx="59.114" cy="64.209" r="25.825"/>
</svg>
