<?xml version="1.0" encoding="utf-8"?>
<!-- Generator: Adobe Illustrator 14.0.0, SVG Export Plug-In . SVG Version: 6.00 Build 43363)  -->
<!DOCTYPE svg PUBLIC "-//W3C//DTD SVG 1.1//EN" "http://www.w3.org/Graphics/SVG/1.1/DTD/svg11.dtd">
<svg version="1.1" id="图层_1" xmlns="http://www.w3.org/2000/svg" xmlns:xlink="http://www.w3.org/1999/xlink" x="0px" y="0px"
	 width="106.502px" height="106.502px" viewBox="0 0 106.502 106.502" enable-background="new 0 0 106.502 106.502"
	 xml:space="preserve">
<path stroke="#000000" stroke-width="2" d="M3.092,103.304V3.092h100.106v100.212H3.092z"/>
<circle fill="#E5E5E5" stroke="#000000" stroke-width="2" cx="53.198" cy="53.198" r="50.213"/>
<circle stroke="#000000" stroke-width="2" cx="53.198" cy="53.198" r="42.963"/>
<path fill="none" stroke="#999999" stroke-width="2" d="M86.566,3.092l16.632,16.524"/>
<path fill="none" stroke="#999999" stroke-width="2" d="M103.198,86.567l-16.632,16.737"/>
<path fill="none" stroke="#000000" stroke-width="2" d="M10.981,61.62h0.426"/>
<path fill="none" stroke="#000000" stroke-width="2" d="M11.407,44.776h-0.426"/>
<path fill="none" stroke="#999999" stroke-width="2" d="M19.616,3.092L3.092,19.616"/>
<path fill="none" stroke="#999999" stroke-width="2" d="M3.092,86.567l16.524,16.737"/>
<path fill="#4C4C4C" stroke="#7F7F7F" stroke-width="2" d="M12.58,63.219l0.959,1.6l2.025,0.426l24.946-2.025h25.373l25.053,2.025
	l1.813-0.426l1.279-1.706l1.173-9.915l-1.173-10.021l-1.279-1.6l-1.813-0.427l-25.053,2.026H40.511l-24.946-2.026l-2.025,0.427
	l-1.173,1.6l-1.173,10.021L12.58,63.219z"/>
<path fill="#E5E5E5" stroke="#000000" stroke-width="2" d="M73.88,57.462h17.91V49.04H73.88l-1.066,0.106l-0.533,0.213l0,0
	l-0.32,0.107l-0.532,0.319l-0.747,0.746l-0.426,0.854l-0.32,0.959v0.213H69.83v0.107l0.105,1.065l0.32,0.96l0.106,0.64l0.747,0.64
	l0.639,0.746l0.854,0.427l0.746,0.213l0.106,0.106h0.106H73.88z"/>
</svg>
