<?xml version="1.0" encoding="utf-8"?>
<!-- Generator: Adobe Illustrator 14.0.0, SVG Export Plug-In . SVG Version: 6.00 Build 43363)  -->
<!DOCTYPE svg PUBLIC "-//W3C//DTD SVG 1.1//EN" "http://www.w3.org/Graphics/SVG/1.1/DTD/svg11.dtd">
<svg version="1.1" id="图层_1" xmlns="http://www.w3.org/2000/svg" xmlns:xlink="http://www.w3.org/1999/xlink" x="0px" y="0px"
	 width="109.461px" height="106.502px" viewBox="0 0 109.461 106.502" enable-background="new 0 0 109.461 106.502"
	 xml:space="preserve">
<path d="M3.178,59.387V3.178l102.997,0.109l-0.109,56.1L89.191,68.7l-3.397,8.656l-5.807,7.451l-7.342,5.588l-8.656,3.615
	l-9.203,1.206l-9.423-1.206l-8.656-3.615l-7.341-5.588l-5.807-7.451L20.161,68.7L3.178,59.387z"/>
<path d="M3.178,3.178L3.178,3.178v56.209H3.068V3.178l0.109-0.11l-0.109,0.11v-0.11h0.109V3.178z"/>
<path d="M106.174,3.287v0.109L3.178,3.178v-0.11l102.997,0.11l0.109,0.109l-0.109-0.109h0.109v0.109H106.174z"/>
<path d="M106.065,59.387h-0.109l0.219-56.1h0.109l-0.109,56.1v0.109v-0.109v0.109l0,0L106.065,59.387z"/>
<path d="M89.191,68.591L89.191,68.591l16.874-9.204l0.109,0.109L89.3,68.7l0,0L89.191,68.591L89.191,68.591L89.191,68.591z"/>
<path d="M85.684,77.247L85.684,77.247l3.507-8.656L89.3,68.7l-3.396,8.656l0,0l0,0l0,0L85.684,77.247z"/>
<path d="M79.987,84.698l-0.109,0.11l5.807-7.561l0.22,0.109l-5.808,7.561l0,0l0,0l0,0l0,0L79.987,84.698z"/>
<path d="M72.645,90.396L72.645,90.396l7.342-5.698l0.109,0.22l-7.342,5.588l0,0l0,0l0,0L72.645,90.396z"/>
<path d="M63.989,94.011h-0.109l8.766-3.615l0.109,0.109l-8.766,3.616l0,0l0,0l0,0V94.011z"/>
<path d="M54.786,95.217h-0.11l9.313-1.206v0.11l-9.203,1.205h-0.11h0.11l0,0h-0.11L54.786,95.217z"/>
<path d="M45.472,94.011h-0.11l9.423,1.206l-0.11,0.109l-9.313-1.205l0,0l0,0l0,0L45.472,94.011z"/>
<path d="M36.707,90.396L36.707,90.396l8.766,3.615l-0.11,0.11l-8.766-3.616l0,0l0,0l0,0L36.707,90.396z"/>
<path d="M29.475,84.808l-0.109-0.11l7.341,5.698l-0.11,0.109l-7.341-5.588l0,0l0,0l0,0l0,0L29.475,84.808z"/>
<path d="M23.667,77.247L23.667,77.247l5.807,7.561l-0.219,0.109l-5.808-7.561l0,0l0,0l0,0L23.667,77.247z"/>
<path d="M20.161,68.591L20.161,68.591l3.506,8.656l-0.219,0.109L20.052,68.7l0,0L20.161,68.591L20.161,68.591L20.161,68.591z"/>
<path d="M3.178,59.387L3.178,59.387l16.983,9.204L20.052,68.7L3.068,59.496v-0.109v0.109l0,0v-0.109H3.178z"/>
<path fill="#E5E5E5" stroke="#000000" stroke-width="2" d="M68.482,28.159l17.531,17.313l0.548,1.644v24.434l-0.548,1.644
	L68.482,90.724l-1.753,0.438H42.623l-1.753-0.438L23.339,73.193l-0.548-1.644V47.115l0.548-1.644L40.87,28.159l1.753-0.657h24.106
	L68.482,28.159z"/>
<circle fill="#7F7F7F" stroke="#000000" stroke-width="2" cx="54.566" cy="59.387" r="29.913"/>
<path fill="#B2B2B2" stroke="#000000" stroke-width="2" d="M50.293,25.42v6.355l-5.807,1.534l-5.479,2.958l-4.821,4.054
	l-3.616,4.931l-2.41,5.589l-1.206,6.026l0.11,6.245l1.424,5.917l2.739,5.479l3.944,4.821l4.711,3.725l5.808,2.739l5.807,1.206h6.355
	l5.807-1.206l5.697-2.739l4.822-3.725l3.943-4.821l2.74-5.479l1.424-5.917l0.219-6.245l-1.205-6.026l-2.52-5.589l-3.616-4.931
	l-4.603-4.054l-5.697-2.958l-6.025-1.534V25.42H50.293z"/>
<circle cx="54.676" cy="59.387" r="23.886"/>
<path stroke="#7F7F7F" stroke-width="2" d="M72.645,54.347L58.73,40.432L9.314,91.272l12.053,12.163L72.645,54.347z"/>
<path fill="#E5E5E5" stroke="#7F7F7F" stroke-width="2" d="M63.551,49.526l-5.917,1.096l1.425,1.205l-6.465,6.355l2.191,2.191
	l6.355-6.245l1.314,1.314L63.551,49.526z"/>
<path fill="none" stroke="#7F7F7F" stroke-width="2" d="M45.144,54.347l3.944,2.63l3.616,3.067l3.287,3.835l2.52,3.945"/>
<path fill="none" stroke="#7F7F7F" stroke-width="2" d="M26.078,98.723L13.916,86.451"/>
<path fill="none" stroke="#7F7F7F" stroke-width="2" d="M26.626,98.284L14.464,85.904"/>
<path fill="none" stroke="#7F7F7F" stroke-width="2" d="M31.666,93.463L19.175,81.082"/>
<path fill="none" stroke="#7F7F7F" stroke-width="2" d="M31.995,93.135L19.723,80.534"/>
<path fill="none" stroke="#7F7F7F" stroke-width="2" d="M36.926,88.314l-12.491-12.71"/>
<path fill="none" stroke="#7F7F7F" stroke-width="2" d="M37.474,87.875L24.873,75.056"/>
<path fill="none" stroke="#7F7F7F" stroke-width="2" d="M42.404,83.054l-12.82-12.819"/>
<path fill="none" stroke="#7F7F7F" stroke-width="2" d="M42.842,82.726l-12.71-13.039"/>
<path fill="none" stroke="#7F7F7F" stroke-width="2" d="M47.773,78.014l-12.82-13.148"/>
<path fill="none" stroke="#7F7F7F" stroke-width="2" d="M48.431,77.466L35.392,64.318"/>
<path fill="none" stroke="#7F7F7F" stroke-width="2" d="M53.251,72.755L40.213,59.387"/>
<path fill="none" stroke="#7F7F7F" stroke-width="2" d="M53.799,72.207L40.542,58.839"/>
<path fill="none" stroke="#7F7F7F" stroke-width="2" d="M22.9,77.247L9.314,91.272"/>
<path fill="none" stroke="#7F7F7F" stroke-width="2" d="M21.367,103.435L9.314,91.272"/>
<path fill="none" stroke="#7F7F7F" stroke-width="2" d="M35.392,89.957l-14.025,13.478"/>
<path fill="none" stroke="#7F7F7F" stroke-width="2" d="M51.827,61.14"/>
<path fill="none" stroke="#7F7F7F" stroke-width="2" d="M15.34,97.298"/>
<path fill="none" stroke="#7F7F7F" stroke-width="2" d="M21.367,103.435L9.314,91.272"/>
</svg>
