<?xml version="1.0" encoding="utf-8"?>
<!-- Generator: Adobe Illustrator 14.0.0, SVG Export Plug-In . SVG Version: 6.00 Build 43363)  -->
<!DOCTYPE svg PUBLIC "-//W3C//DTD SVG 1.1//EN" "http://www.w3.org/Graphics/SVG/1.1/DTD/svg11.dtd">
<svg version="1.1" id="图层_1" xmlns="http://www.w3.org/2000/svg" xmlns:xlink="http://www.w3.org/1999/xlink" x="0px" y="0px"
	 width="106.502px" height="106.502px" viewBox="0 0 106.502 106.502" enable-background="new 0 0 106.502 106.502"
	 xml:space="preserve">
<path stroke="#000000" stroke-width="2" d="M3.198,103.198V3.198h100v99.999H3.198z"/>
<circle fill="#E5E5E5" stroke="#000000" stroke-width="2" cx="53.198" cy="53.198" r="50.213"/>
<circle stroke="#000000" stroke-width="2" cx="53.198" cy="53.198" r="42.963"/>
<path fill="none" stroke="#999999" stroke-width="2" d="M86.566,3.198l16.632,16.418"/>
<path fill="none" stroke="#999999" stroke-width="2" d="M103.198,86.567l-16.632,16.631"/>
<path fill="none" stroke="#000000" stroke-width="2" d="M10.981,61.62h0.426"/>
<path fill="none" stroke="#000000" stroke-width="2" d="M11.407,44.776h-0.426"/>
<path fill="none" stroke="#999999" stroke-width="2" d="M19.616,3.198L3.198,19.616"/>
<path fill="none" stroke="#999999" stroke-width="2" d="M3.198,86.567l16.418,16.631"/>
<path fill="#4C4C4C" stroke="#7F7F7F" stroke-width="2" d="M93.816,43.177l-1.066-1.6l-2.025-0.427l-24.84,2.026H40.511
	l-25.053-2.026l-1.813,0.427l-1.279,1.813l-1.173,9.808l1.173,10.021l1.279,1.6l1.813,0.426l25.053-2.025h25.373l24.84,2.025
	l2.025-0.426l1.279-1.6l1.173-10.021L93.816,43.177z"/>
<path fill="#E5E5E5" stroke="#000000" stroke-width="2" d="M32.516,48.934h-17.91v8.528h17.91l1.066-0.213l0.533-0.214l0,0
	l0.747-0.426l0.853-0.746l0.427-0.854l0.32-0.959v-0.214h0.106v-0.106l-0.106-1.065l-0.32-0.96l-0.213-0.853l-0.853-0.746
	l-0.746-0.64l-0.959-0.32l-0.32-0.106l-0.106-0.106h-0.107H32.516z"/>
</svg>
