<?xml version="1.0" encoding="utf-8"?>
<!-- Generator: Adobe Illustrator 14.0.0, SVG Export Plug-In . SVG Version: 6.00 Build 43363)  -->
<!DOCTYPE svg PUBLIC "-//W3C//DTD SVG 1.1//EN" "http://www.w3.org/Graphics/SVG/1.1/DTD/svg11.dtd">
<svg version="1.1" id="图层_1" xmlns="http://www.w3.org/2000/svg" xmlns:xlink="http://www.w3.org/1999/xlink" x="0px" y="0px"
	 width="106.502px" height="106.502px" viewBox="0 0 106.502 106.502" enable-background="new 0 0 106.502 106.502"
	 xml:space="preserve">
<path stroke="#000000" stroke-width="2" d="M3.092,103.304V3.092h100.106v100.212H3.092z"/>
<circle fill="#E5E5E5" stroke="#000000" stroke-width="2" cx="53.198" cy="53.198" r="50.213"/>
<circle stroke="#000000" stroke-width="2" cx="53.198" cy="53.198" r="42.963"/>
<path fill="none" stroke="#999999" stroke-width="2" d="M86.566,3.092l16.632,16.524"/>
<path fill="none" stroke="#999999" stroke-width="2" d="M103.198,86.567l-16.632,16.737"/>
<path fill="none" stroke="#000000" stroke-width="2" d="M10.981,61.62h0.426"/>
<path fill="none" stroke="#000000" stroke-width="2" d="M11.407,44.776h-0.426"/>
<path fill="none" stroke="#999999" stroke-width="2" d="M19.616,3.092L3.092,19.616"/>
<path fill="none" stroke="#999999" stroke-width="2" d="M3.092,86.567l16.524,16.737"/>
<path fill="#4C4C4C" stroke="#7F7F7F" stroke-width="2" d="M63.219,93.816l1.599-0.959l0.427-2.025l-2.025-24.947V40.511
	l2.025-25.053l-0.427-1.813l-1.813-1.279l-9.808-1.173l-10.021,1.173l-1.599,1.279l-0.427,1.813l2.026,25.053v25.373l-2.026,24.947
	l0.427,2.025l1.599,1.173l10.021,1.172L63.219,93.816z"/>
<path fill="#E5E5E5" stroke="#000000" stroke-width="2" d="M57.355,32.516v-17.91h-8.421v17.91l0.213,1.066l0.213,0.532l0,0
	l0.107,0.32l0.32,0.533l0.746,0.746l0.853,0.427l0.959,0.319h0.213v0.106h0.107l1.066-0.106l0.96-0.319l0.639-0.107l0.641-0.746
	l0.746-0.64l0.426-0.853l0.213-0.746v-0.106v-0.107V32.516z"/>
</svg>
