<?xml version="1.0" encoding="utf-8"?>
<!-- Generator: Adobe Illustrator 14.0.0, SVG Export Plug-In . SVG Version: 6.00 Build 43363)  -->
<!DOCTYPE svg PUBLIC "-//W3C//DTD SVG 1.1//EN" "http://www.w3.org/Graphics/SVG/1.1/DTD/svg11.dtd">
<svg version="1.1" id="图层_1" xmlns="http://www.w3.org/2000/svg" xmlns:xlink="http://www.w3.org/1999/xlink" x="0px" y="0px"
	 width="57.563px" height="106.502px" viewBox="0 0 57.563 106.502" enable-background="new 0 0 57.563 106.502"
	 xml:space="preserve">
<path fill="#C0C0C0" stroke="#FFFFFF" stroke-width="2" d="M54.579,2.99v99.351H4.904l2.878-3.197l43.6-93.063L54.579,2.99z"/>
<path stroke="#000000" stroke-width="2" d="M4.904,102.34V2.99h49.675L51.382,6.08l-43.6,93.063L4.904,102.34z"/>
<path fill="#7F7F7F" stroke="#000000" stroke-width="2" d="M7.782,6.08h43.6v93.063h-43.6V6.08z"/>
<path fill="#870000" stroke="#000000" stroke-width="2" d="M2.985,101.914V51.386h42.107l6.183-3.731v50.528l-6.183,3.731H2.985z"/>
<path fill="#A90000" stroke="#000000" stroke-width="2" d="M2.985,68.655V56.502h36.137l5.97-3.518v12.152l-5.97,3.518H2.985z"/>
<path fill="#FF5454" stroke="#000000" stroke-width="2" d="M2.985,56.502l6.076-3.518h36.031l-5.97,3.518H2.985z"/>
<path fill="none" stroke="#000000" stroke-width="2" d="M39.122,68.655V56.502"/>
<path fill="#A90000" stroke="#000000" stroke-width="2" d="M2.985,86.137V74.091h36.137l5.97-3.837V82.3l-5.97,3.837H2.985z"/>
<path fill="#FF5454" stroke="#000000" stroke-width="2" d="M2.985,74.091l6.076-3.837h36.031l-5.97,3.837H2.985z"/>
<path fill="none" stroke="#000000" stroke-width="2" d="M39.122,86.137V74.091"/>
<path fill="#A90000" stroke="#000000" stroke-width="2" d="M2.985,103.406V91.361h36.137l5.97-3.838v12.046l-5.97,3.838H2.985z"/>
<path fill="#FF5454" stroke="#000000" stroke-width="2" d="M2.985,91.361l6.076-3.838h36.031l-5.97,3.838H2.985z"/>
<path fill="none" stroke="#000000" stroke-width="2" d="M39.122,103.406V91.361"/>
<path fill="none" stroke="#000000" stroke-width="2" d="M45.092,101.914V51.386"/>
<path fill="#FF5454" stroke="#000000" stroke-width="2" d="M2.985,51.386l6.076-3.731h42.213l-6.183,3.731H2.985z"/>
</svg>
