<?xml version="1.0" encoding="utf-8"?>
<!-- Generator: Adobe Illustrator 14.0.0, SVG Export Plug-In . SVG Version: 6.00 Build 43363)  -->
<!DOCTYPE svg PUBLIC "-//W3C//DTD SVG 1.1//EN" "http://www.w3.org/Graphics/SVG/1.1/DTD/svg11.dtd">
<svg version="1.1" id="图层_1" xmlns="http://www.w3.org/2000/svg" xmlns:xlink="http://www.w3.org/1999/xlink" x="0px" y="0px"
	 width="144.749px" height="78.609px" viewBox="0 0 144.749 78.609" enable-background="new 0 0 144.749 78.609"
	 xml:space="preserve">
<path fill="#C0C0C0" stroke="#FFFFFF" stroke-width="2" d="M140.542,4.061v68.312H4.062l4.062-4.352L136.336,8.412L140.542,4.061z"
	/>
<path stroke="#000000" stroke-width="2" d="M4.062,72.373V4.061h136.624l-4.351,4.351L8.414,68.313L4.062,72.373z"/>
<path fill="#7F7F7F" stroke="#000000" stroke-width="2" d="M8.414,68.313v-59.9h127.922v59.9H8.414z"/>
<path fill="#870000" stroke="#000000" stroke-width="2" d="M82.672,74.549H13.925V16.824L8.704,8.702h68.747l5.221,8.122V74.549z"/>
<path fill="#A90000" stroke="#000000" stroke-width="2" d="M37.421,74.549H20.886V25.091L16.1,16.824h16.389l4.932,8.267V74.549z"/>
<path fill="#FF5454" stroke="#000000" stroke-width="2" d="M20.886,74.549L16.1,66.137V16.824l4.786,8.267V74.549z"/>
<path fill="none" stroke="#000000" stroke-width="2" d="M37.421,25.091H20.886"/>
<path fill="#A90000" stroke="#000000" stroke-width="2" d="M61.061,74.549H44.817V25.091l-5.221-8.267h16.534l4.931,8.267V74.549z"
	/>
<path fill="#FF5454" stroke="#000000" stroke-width="2" d="M44.817,74.549l-5.221-8.412V16.824l5.221,8.267V74.549z"/>
<path fill="none" stroke="#000000" stroke-width="2" d="M61.061,25.091H44.817"/>
<path fill="#A90000" stroke="#000000" stroke-width="2" d="M84.847,74.549H68.459V25.091l-5.222-8.267h16.244l5.366,8.267V74.549z"
	/>
<path fill="#FF5454" stroke="#000000" stroke-width="2" d="M68.459,74.549l-5.222-8.412V16.824l5.222,8.267V74.549z"/>
<path fill="none" stroke="#000000" stroke-width="2" d="M84.847,25.091H68.459"/>
<path fill="none" stroke="#000000" stroke-width="2" d="M82.672,16.824H13.925"/>
<path fill="#FF5454" stroke="#000000" stroke-width="2" d="M13.925,74.549l-5.221-8.412V8.702l5.221,8.122V74.549z"/>
</svg>
