<?xml version="1.0" encoding="utf-8"?>
<!-- Generator: Adobe Illustrator 14.0.0, SVG Export Plug-In . SVG Version: 6.00 Build 43363)  -->
<!DOCTYPE svg PUBLIC "-//W3C//DTD SVG 1.1//EN" "http://www.w3.org/Graphics/SVG/1.1/DTD/svg11.dtd">
<svg version="1.1" id="图层_1" xmlns="http://www.w3.org/2000/svg" xmlns:xlink="http://www.w3.org/1999/xlink" x="0px" y="0px"
	 width="58.204px" height="106.502px" viewBox="0 0 58.204 106.502" enable-background="new 0 0 58.204 106.502"
	 xml:space="preserve">
<path fill="#C0C0C0" stroke="#FFFFFF" stroke-width="2" d="M55.22,2.989v100.419H5.01l2.985-3.198L52.022,6.187L55.22,2.989z"/>
<path stroke="#000000" stroke-width="2" d="M5.01,103.407V2.989H55.22l-3.197,3.198L7.995,100.209L5.01,103.407z"/>
<path fill="#7F7F7F" stroke="#000000" stroke-width="2" d="M7.995,6.187h44.027v94.022H7.995V6.187z"/>
<path fill="#870000" stroke="#000000" stroke-width="2" d="M2.985,61.193V10.024h42.641l6.183-3.73v51.063l-6.183,3.837H2.985z"/>
<path fill="#A90000" stroke="#000000" stroke-width="2" d="M2.985,27.507v-12.26H39.55l6.076-3.518v12.259l-6.076,3.519H2.985z"/>
<path fill="#FF5454" stroke="#000000" stroke-width="2" d="M2.985,15.247l6.183-3.518h36.458l-6.076,3.518H2.985z"/>
<path fill="none" stroke="#000000" stroke-width="2" d="M39.55,27.507v-12.26"/>
<path fill="#A90000" stroke="#000000" stroke-width="2" d="M2.985,45.202V33.05H39.55l6.076-3.838v12.153l-6.076,3.837H2.985z"/>
<path fill="#FF5454" stroke="#000000" stroke-width="2" d="M2.985,33.05l6.183-3.838h36.458L39.55,33.05H2.985z"/>
<path fill="none" stroke="#000000" stroke-width="2" d="M39.55,45.202V33.05"/>
<path fill="#A90000" stroke="#000000" stroke-width="2" d="M2.985,62.686V50.532H39.55l6.076-3.837v12.152l-6.076,3.838H2.985z"/>
<path fill="#FF5454" stroke="#000000" stroke-width="2" d="M2.985,50.532l6.183-3.837h36.458l-6.076,3.837H2.985z"/>
<path fill="none" stroke="#000000" stroke-width="2" d="M39.55,62.686V50.532"/>
<path fill="none" stroke="#000000" stroke-width="2" d="M45.626,61.193V10.024"/>
<path fill="#FF5454" stroke="#000000" stroke-width="2" d="M2.985,10.024l6.183-3.73h42.641l-6.183,3.73H2.985z"/>
</svg>
