<?xml version="1.0" encoding="utf-8"?>
<!-- Generator: Adobe Illustrator 14.0.0, SVG Export Plug-In . SVG Version: 6.00 Build 43363)  -->
<!DOCTYPE svg PUBLIC "-//W3C//DTD SVG 1.1//EN" "http://www.w3.org/Graphics/SVG/1.1/DTD/svg11.dtd">
<svg version="1.1" id="图层_1" xmlns="http://www.w3.org/2000/svg" xmlns:xlink="http://www.w3.org/1999/xlink" x="0px" y="0px"
	 width="144.749px" height="77.811px" viewBox="0 0 144.749 77.811" enable-background="new 0 0 144.749 77.811"
	 xml:space="preserve">
<path fill="#C0C0C0" stroke="#FFFFFF" stroke-width="2" d="M139.387,4.058v67.81H4.057l4.057-4.346L135.331,8.405L139.387,4.058z"/>
<path stroke="#000000" stroke-width="2" d="M4.057,71.868V4.058h135.62l-4.347,4.347L8.404,67.812L4.057,71.868z"/>
<path fill="#7F7F7F" stroke="#000000" stroke-width="2" d="M8.404,67.812V8.405h126.927v59.406H8.404z"/>
<path fill="#870000" stroke="#000000" stroke-width="2" d="M138.374,73.752H70.129V16.519l-5.216-8.114h68.244l5.217,8.114V73.752z"
	/>
<path fill="#A90000" stroke="#000000" stroke-width="2" d="M93.457,73.752H77.084V24.633l-4.637-8.114H88.53l4.927,8.114V73.752z"/>
<path fill="#FF5454" stroke="#000000" stroke-width="2" d="M77.084,73.752l-4.637-8.259V16.519l4.637,8.114V73.752z"/>
<path fill="none" stroke="#000000" stroke-width="2" d="M93.457,24.633H77.084"/>
<path fill="#A90000" stroke="#000000" stroke-width="2" d="M116.929,73.752h-16.083V24.633l-5.217-8.114h16.373l4.927,8.114V73.752z
	"/>
<path fill="#FF5454" stroke="#000000" stroke-width="2" d="M100.846,73.752l-5.217-8.259V16.519l5.217,8.114V73.752z"/>
<path fill="none" stroke="#000000" stroke-width="2" d="M116.929,24.633h-16.083"/>
<path fill="#A90000" stroke="#000000" stroke-width="2" d="M140.547,73.752h-16.228V24.633l-5.217-8.114h16.229l5.216,8.114V73.752z
	"/>
<path fill="#FF5454" stroke="#000000" stroke-width="2" d="M124.319,73.752l-5.217-8.259V16.519l5.217,8.114V73.752z"/>
<path fill="none" stroke="#000000" stroke-width="2" d="M140.547,24.633h-16.228"/>
<path fill="none" stroke="#000000" stroke-width="2" d="M138.374,16.519H70.129"/>
<path fill="#FF5454" stroke="#000000" stroke-width="2" d="M70.129,73.752l-5.216-8.259V8.405l5.216,8.114V73.752z"/>
</svg>
