<?xml version="1.0" encoding="utf-8"?>
<!-- Generator: Adobe Illustrator 14.0.0, SVG Export Plug-In . SVG Version: 6.00 Build 43363)  -->
<!DOCTYPE svg PUBLIC "-//W3C//DTD SVG 1.1//EN" "http://www.w3.org/Graphics/SVG/1.1/DTD/svg11.dtd">
<svg version="1.1" id="图层_1" xmlns="http://www.w3.org/2000/svg" xmlns:xlink="http://www.w3.org/1999/xlink" x="0px" y="0px"
	 width="144.749px" height="87.947px" viewBox="0 0 144.749 87.947" enable-background="new 0 0 144.749 87.947"
	 xml:space="preserve">
<path fill="#7F7F7F" stroke="#000000" stroke-width="2" d="M89.399,60.998v22.893H4.059V60.998H89.399z"/>
<path fill="#7F7F7F" stroke="#000000" stroke-width="2" d="M89.399,4.057v22.748H4.059V4.057H89.399z"/>
<path d="M86.646,64.041v16.952H6.957V64.041H86.646z"/>
<path d="M86.646,6.954v17.098H6.957V6.954H86.646z"/>
<path fill="#7F7F7F" stroke="#000000" stroke-width="2" d="M95.05,49.698v28.398H46.802V66.65h36.946V21.154H46.802V9.853H95.05
	v28.398h29.268v11.446H95.05z"/>
<path fill="#E5E5E5" d="M91.572,46.074v28.398H47.381v-4.201h39.845V17.677H47.381v-4.348h44.191v28.544h26.95v4.201H91.572z"/>
<circle fill="#FF0000" stroke="#000000" stroke-width="2" cx="130.548" cy="43.757" r="9.998"/>
<circle fill="#FFD9D9" cx="127.505" cy="40.859" r="3.042"/>
</svg>
