<?xml version="1.0" encoding="utf-8"?>
<!-- Generator: Adobe Illustrator 14.0.0, SVG Export Plug-In . SVG Version: 6.00 Build 43363)  -->
<!DOCTYPE svg PUBLIC "-//W3C//DTD SVG 1.1//EN" "http://www.w3.org/Graphics/SVG/1.1/DTD/svg11.dtd">
<svg version="1.1" id="图层_1" xmlns="http://www.w3.org/2000/svg" xmlns:xlink="http://www.w3.org/1999/xlink" x="0px" y="0px"
	 width="64.713px" height="106.502px" viewBox="0 0 64.713 106.502" enable-background="new 0 0 64.713 106.502"
	 xml:space="preserve">
<path fill="#7F7F7F" stroke="#000000" stroke-width="2" d="M19.724,65.778H2.986V2.985h16.738V65.778z"/>
<path fill="#7F7F7F" stroke="#000000" stroke-width="2" d="M61.728,65.778H44.883V2.985h16.845V65.778z"/>
<path d="M17.591,63.752H5.012V5.117h12.58V63.752z"/>
<path d="M59.489,63.752H47.015V5.117h12.474V63.752z"/>
<path fill="#7F7F7F" stroke="#000000" stroke-width="2" d="M28.146,69.936H7.25V34.435h8.315V61.62h33.475V34.435h8.423v35.501
	H36.568v21.535h-8.422V69.936z"/>
<path fill="#E5E5E5" d="M30.811,67.377H9.809V34.862h3.198v29.317h38.699V34.862h3.092v32.516H33.903v19.829h-3.092V67.377z"/>
<circle fill="#FF0000" stroke="#000000" stroke-width="2" cx="32.41" cy="96.054" r="7.356"/>
<circle fill="#FFD9D9" cx="30.171" cy="93.816" r="2.239"/>
</svg>
