<?xml version="1.0" encoding="utf-8"?>
<!-- Generator: Adobe Illustrator 14.0.0, SVG Export Plug-In . SVG Version: 6.00 Build 43363)  -->
<!DOCTYPE svg PUBLIC "-//W3C//DTD SVG 1.1//EN" "http://www.w3.org/Graphics/SVG/1.1/DTD/svg11.dtd">
<svg version="1.1" id="图层_1" xmlns="http://www.w3.org/2000/svg" xmlns:xlink="http://www.w3.org/1999/xlink" x="0px" y="0px"
	 width="64.713px" height="106.502px" viewBox="0 0 64.713 106.502" enable-background="new 0 0 64.713 106.502"
	 xml:space="preserve">
<path fill="#7F7F7F" stroke="#000000" stroke-width="2" d="M44.883,40.618h16.845v62.792H44.883V40.618z"/>
<path fill="#7F7F7F" stroke="#000000" stroke-width="2" d="M2.986,40.618h16.738v62.792H2.986V40.618z"/>
<path d="M47.015,42.75h12.58v58.528h-12.58V42.75z"/>
<path d="M5.118,42.75h12.58v58.528H5.118V42.75z"/>
<path fill="#7F7F7F" stroke="#000000" stroke-width="2" d="M36.461,36.46h21.002v35.501h-8.423V44.776H15.566v27.186H7.25V36.46
	h20.895V15.031h8.316V36.46z"/>
<path fill="#E5E5E5" d="M33.903,39.019h20.896v32.516h-3.092V42.217H13.007v29.317H9.809V39.019h20.896V19.19h3.198V39.019z"/>
<circle fill="#FF0000" stroke="#000000" stroke-width="2" cx="32.304" cy="10.341" r="7.356"/>
<circle fill="#FFD9D9" cx="30.065" cy="7.996" r="2.239"/>
</svg>
