<?xml version="1.0" encoding="utf-8"?>
<!-- Generator: Adobe Illustrator 14.0.0, SVG Export Plug-In . SVG Version: 6.00 Build 43363)  -->
<!DOCTYPE svg PUBLIC "-//W3C//DTD SVG 1.1//EN" "http://www.w3.org/Graphics/SVG/1.1/DTD/svg11.dtd">
<svg version="1.1" id="图层_1" xmlns="http://www.w3.org/2000/svg" xmlns:xlink="http://www.w3.org/1999/xlink" x="0px" y="0px"
	 width="144.749px" height="87.947px" viewBox="0 0 144.749 87.947" enable-background="new 0 0 144.749 87.947"
	 xml:space="preserve">
<path fill="#7F7F7F" stroke="#000000" stroke-width="2" d="M55.205,26.805V3.912h85.485v22.893H55.205z"/>
<path fill="#7F7F7F" stroke="#000000" stroke-width="2" d="M55.205,83.891V60.998h85.485v22.893H55.205z"/>
<path d="M57.958,23.906V6.81h79.689v17.097H57.958z"/>
<path d="M57.958,80.993V63.897h79.689v17.097H57.958z"/>
<path fill="#7F7F7F" stroke="#000000" stroke-width="2" d="M49.409,38.251V9.707h48.394v11.446H60.855V66.65h36.947v11.446H49.409
	V49.698H20.287V38.251H49.409z"/>
<path fill="#E5E5E5" d="M53.032,41.728V13.329h44.191v4.348h-39.99v52.595h39.99v4.347H53.032V46.074H25.937v-4.347H53.032z"/>
<circle fill="#FF0000" stroke="#000000" stroke-width="2" cx="13.912" cy="44.047" r="9.998"/>
<circle fill="#FFD9D9" cx="11.013" cy="41.004" r="3.042"/>
</svg>
