<?xml version="1.0" standalone="no"?><!DOCTYPE svg PUBLIC "-//W3C//DTD SVG 1.1//EN" "http://www.w3.org/Graphics/SVG/1.1/DTD/svg11.dtd"><svg t="1762128559920" class="icon" viewBox="0 0 1553 1024" version="1.1" xmlns="http://www.w3.org/2000/svg" p-id="10444" xmlns:xlink="http://www.w3.org/1999/xlink" width="303.3203125" height="200"><path d="M324.785057 853.014925h137.870647v137.870647H324.785057z" fill="#20349B" p-id="10445"></path><path d="M273.839783 956.81592h240.39801v49.353234H273.839783z" fill="#3663CC" p-id="10446"></path><path d="M1139.909435 853.014925h137.870647v137.870647H1139.909435z" fill="#20349C" p-id="10447"></path><path d="M1088.645754 956.81592h240.39801v49.353234h-240.39801z" fill="#3764CD" p-id="10448"></path><path d="M74.5164 987.701493h1474.865672v34.388059H74.5164z" fill="#4D9CEA" p-id="10449"></path><path d="M307.591027 386.865672v-95.522388A267.144279 267.144279 0 0 1 573.143266 25.472637h497.671642v170.985074H573.143266a95.522388 95.522388 0 0 0-95.522388 95.522389v95.522388z" fill="#8AD2F1" p-id="10450"></path><path d="M477.620878 292.298507a95.522388 95.522388 0 0 1 95.522388-95.522388h497.671642v-85.970149H573.143266a181.492537 181.492537 0 0 0-181.492537 181.492537v95.522389H477.620878v-95.522389z" fill="#4D9CEA" p-id="10451"></path><path d="M329.242769 292.298507A244.537313 244.537313 0 0 1 573.143266 47.761194h497.034826v-22.288557H573.143266a267.462687 267.462687 0 0 0-266.189055 266.82587v95.522389h21.651742v-95.522389z" fill="#4B97E9" p-id="10452"></path><path d="M477.620878 292.298507a95.522388 95.522388 0 0 1 95.522388-95.522388h497.671642v-22.288557H573.143266a117.810945 117.810945 0 0 0-117.810945 117.810945v95.522389h22.288557v-95.522389z" fill="#355ECB" p-id="10453"></path><path d="M1093.740281 199.323383V23.562189a22.925373 22.925373 0 1 0-45.850746 0v175.761194a22.925373 22.925373 0 0 0 45.850746 0z" fill="#3867CE" p-id="10454"></path><path d="M1048.526351 23.562189v175.761194a22.925373 22.925373 0 0 0 22.925373 22.925373V0a22.925373 22.925373 0 0 0-22.925373 22.925373z" fill="#182690" p-id="10455"></path><path d="M1524.227843 509.452736v235.303483a14.00995 14.00995 0 0 1 0 5.094527v2.865672a4.139303 4.139303 0 0 1 0 2.865672v1.910447a18.467662 18.467662 0 0 1 0 4.457712 20.378109 20.378109 0 0 1 0 2.865671V776.278607a2.228856 2.228856 0 0 1 0 2.228856 24.835821 24.835821 0 0 1 0 4.457711v2.228856l-14.965174 10.82587a43.621891 43.621891 0 0 1-4.776119 6.686568 31.840796 31.840796 0 0 1-2.865672 4.139303l-5.731343 6.686567a25.472637 25.472637 0 0 1-4.139304 4.139304l-5.094527 5.094527h-4.457712s-2.547264 0-3.502487 2.865672a31.840796 31.840796 0 0 0-4.139304 2.865671h-7.323383a8.915423 8.915423 0 0 0-4.139303 2.228856l-3.18408 1.59204h-5.731343l-6.049751 1.910448h-4.139304a2.228856 2.228856 0 0 0-1.910448 0h-21.970149a10.189055 10.189055 0 0 0-4.457711 0h-636.815921a115.263682 115.263682 0 0 1-75.781094-28.656717 113.353234 113.353234 0 0 1-23.243781-28.656716 109.21393 109.21393 0 0 1-11.144279-12.736319 123.860697 123.860697 0 0 1-3.502487-28.656716v-234.348259a13.054726 13.054726 0 0 1 0-5.094527v-1.910448-4.457711a9.233831 9.233831 0 0 1 0-4.457712v-4.139303-1.59204a19.422886 19.422886 0 0 1 0-4.139303v-2.865672-2.228856-2.228856c0-0.318408 1.910448-5.412935 2.865671-7.641791a4.139303 4.139303 0 0 1 0-2.228855l3.502488-7.004975a26.109453 26.109453 0 0 1 3.820895-6.36816c2.228856-3.18408 4.776119-6.049751 7.004975-8.915422l3.502488-4.139304a22.606965 22.606965 0 0 1 3.820895-4.139303l5.094528-5.094528 2.865671-2.228856a71.960199 71.960199 0 0 1 9.870647-7.323383l3.502488-2.547263a41.074627 41.074627 0 0 0 5.094527-2.865672h2.228856l4.139303-2.228856 7.960199-3.502487 4.77612-1.910448 5.094527-1.910448h1.910448a21.970149 21.970149 0 0 1 6.368159 0h1.59204a14.965174 14.965174 0 0 1 5.094527 0H1411.193017a113.671642 113.671642 0 0 1 14.965174 0 5.094527 5.094527 0 0 1 2.865672 0 42.029851 42.029851 0 0 1 10.189055 2.228856h5.412935a28.0199 28.0199 0 0 0 4.776119 1.59204l7.960199 3.502487a23.880597 23.880597 0 0 1 3.820896 2.228856l3.502488 1.910448h3.502487l4.77612 2.865671 4.457711 3.502488 4.457711 3.502488a4.457711 4.457711 0 0 1 2.547264 2.228855l5.094527 5.094528 3.820896 4.139303a38.845771 38.845771 0 0 1 6.368159 7.960199 31.840796 31.840796 0 0 1 4.457712 7.004975 15.283582 15.283582 0 0 1 2.865671 4.457712l3.502488 7.004975v2.228856a39.164179 39.164179 0 0 1 2.865671 7.323383v2.228855a8.915423 8.915423 0 0 1 0 2.547264 25.154229 25.154229 0 0 1 0 2.865672V478.248756a4.139303 4.139303 0 0 0 0 1.910448v25.472637z" fill="#4C9BE9" p-id="10456"></path><path d="M1524.227843 509.452736v28.656717h-859.701492v-34.706468a14.00995 14.00995 0 0 1 0-5.094527v-1.910448-4.457711a15.60199 15.60199 0 0 1 0-4.457712v-4.139303a1.910448 1.910448 0 0 1 0-1.59204 19.422886 19.422886 0 0 0 4.139303-4.139304v-2.865671-2.228856a6.686567 6.686567 0 0 1 0-2.228856 54.129353 54.129353 0 0 0 2.865672-7.641791 5.412935 5.412935 0 0 1 0-2.228856l3.502487-6.686567a17.830846 17.830846 0 0 1 3.820896-6.368159l7.004975-9.233831 3.502487-4.139303a21.651741 21.651741 0 0 1 3.820896-3.820896l5.412935-5.412935a12.736318 12.736318 0 0 1 2.865672-2.228856 69.094527 69.094527 0 0 1 9.552239-7.323383l3.502487-2.228856 5.094528-2.865671h2.547263a23.880597 23.880597 0 0 0 3.820896-2.228856l7.960199-3.502488h4.776119l5.412936-1.910447h1.592039a22.606965 22.606965 0 0 1 6.36816 0h1.592039a15.920398 15.920398 0 0 1 5.412936 0H1410.556201a113.671642 113.671642 0 0 1 14.965174 0 5.094527 5.094527 0 0 1 2.865672 0l10.189055 2.228855h1.910448l5.094527 1.59204 4.776119 1.910448 7.960199 3.18408a14.646766 14.646766 0 0 1 4.139304 2.547263l3.184079 1.59204h3.502488l4.776119 2.865672 4.457712 3.502487 4.776119 3.502488a7.323383 7.323383 0 0 1 2.228856 2.228856l9.552239 9.870646a31.840796 31.840796 0 0 1 6.368159 7.960199 45.532338 45.532338 0 0 1 4.776119 7.004975s1.59204 2.865672 2.865672 4.457712l3.18408 7.004975v2.228856a25.154229 25.154229 0 0 1 2.865671 7.323383v2.547263a3.502488 3.502488 0 0 1 0 2.228856 14.965174 14.965174 0 0 0 0 2.865672v3.820895a2.228856 2.228856 0 0 0 0 1.910448 16.875622 16.875622 0 0 0 0 3.820896 49.353234 49.353234 0 0 0 0 4.776119V510.089552z" fill="#8AD2F1" p-id="10457"></path><path d="M1524.227843 710.049751v34.38806a14.00995 14.00995 0 0 1 0 5.094527v2.865672a4.139303 4.139303 0 0 1 0 2.865672v1.910447a18.467662 18.467662 0 0 1 0 4.457712 20.378109 20.378109 0 0 1 0 2.865671V775.960199a2.228856 2.228856 0 0 1 0 2.228856 24.835821 24.835821 0 0 1 0 4.457711v2.228856l-14.965174 11.144278a43.621891 43.621891 0 0 1-4.776119 6.686568 31.840796 31.840796 0 0 1-2.865672 4.139303l-5.731343 6.686567a25.472637 25.472637 0 0 1-4.139304 4.139304l-5.094527 5.094527h-4.457712s-2.547264 0-3.502487 2.865672a31.840796 31.840796 0 0 0-4.139304 2.865671h-7.323383a8.915423 8.915423 0 0 0-4.139303 2.228856l-3.18408 1.59204h-5.731343l-6.049751 1.910448h-4.139304a2.228856 2.228856 0 0 0-1.910448 0h-21.970149a10.189055 10.189055 0 0 0-4.457711 0h-636.815921a115.263682 115.263682 0 0 1-75.781094-28.656717 113.353234 113.353234 0 0 1-23.243781-28.656716 109.21393 109.21393 0 0 1-11.144279-12.736319 123.860697 123.860697 0 0 1-3.502487-28.656716v-28.656716h859.701492z" fill="#345FCB" p-id="10458"></path><path d="M1523.591027 502.766169v6.686567l-3.502487-28.656716v4.139303a15.60199 15.60199 0 0 0 0 4.457712v4.776119z m-3.502487 264.597015a19.422886 19.422886 0 0 0 0 4.139304v7.323383l-1.910448 4.457711v2.228856l-3.502488 6.686567z" fill="#19A1DD" p-id="10459"></path><path d="M1317.581077 824.676617v28.656716H764.188042a95.522388 95.522388 0 0 1-66.865672-28.656716z m0-57.313433v28.656716H676.625853a102.208955 102.208955 0 0 1-10.507463-28.656716z m-654.328358-57.313433h654.328358v28.656717H663.252719z" fill="#1A2790" p-id="10460"></path><path d="M663.252719 652.736318h654.328358v28.656717H663.252719z m0-57.63184h654.328358v28.656716H663.252719z m0-57.313433h654.328358v28.656716H663.252719z" fill="#3153C5" p-id="10461"></path><path d="M1317.581077 480.477612v28.975124H663.252719l2.865671-28.656716z m-620.577114-57.313433h619.940298v28.656717H676.625853a59.223881 59.223881 0 0 1 3.18408-6.36816c1.910448-3.502488 4.139303-6.368159 5.731343-9.233831l3.502488-4.139303s2.228856-2.865672 3.502487-3.820896 3.502488-3.502488 4.457712-5.094527z" fill="#4C9BE9" p-id="10462"></path><path d="M1334.775107 384v475.701493a17.19403 17.19403 0 1 1-34.38806 0V384a17.512438 17.512438 0 0 1 17.19403-18.467662 18.467662 18.467662 0 0 1 12.099502 5.412936 20.059701 20.059701 0 0 1 5.094528 13.054726z" fill="#2338A1" p-id="10463"></path><path d="M1334.775107 384v475.701493a17.512438 17.512438 0 0 1-17.19403 18.467661v-509.452736a18.467662 18.467662 0 0 1 12.099502 5.412935 20.059701 20.059701 0 0 1 5.094528 13.054727z" fill="#3E74D6" p-id="10464"></path><path d="M772.466649 351.840796v537.791045a19.741294 19.741294 0 0 1-17.19403 21.333333 19.422886 19.422886 0 0 1-17.512438-21.333333V351.840796a19.741294 19.741294 0 0 1 17.512438-21.333333 15.283582 15.283582 0 0 1 11.781095 6.368159 26.746269 26.746269 0 0 1 5.412935 14.965174z" fill="#20349C" p-id="10465"></path><path d="M772.466649 351.840796v537.791045a19.741294 19.741294 0 0 1-17.19403 21.333333V331.144279a14.328358 14.328358 0 0 1 11.781095 6.368159 23.243781 23.243781 0 0 1 5.412935 14.328358z" fill="#3665CD" p-id="10466"></path><path d="M737.760181 351.840796v537.791045a17.512438 17.512438 0 1 1-34.388059 0V351.840796a19.741294 19.741294 0 0 1 17.19403-21.333333 15.283582 15.283582 0 0 1 12.099502 6.368159 26.427861 26.427861 0 0 1 5.094527 14.965174z" fill="#1F349B" p-id="10467"></path><path d="M737.760181 351.840796v537.791045a19.422886 19.422886 0 0 1-17.194029 21.333333V331.144279a14.646766 14.646766 0 0 1 12.099502 6.368159 22.925373 22.925373 0 0 1 5.094527 14.328358z" fill="#3662CA" p-id="10468"></path><path d="M1524.227843 509.452736v235.303483a14.00995 14.00995 0 0 1 0 5.094527 33.432836 33.432836 0 0 1-28.0199-31.840796v-198.686567a31.840796 31.840796 0 0 1 26.42786-31.840796V508.497512z" fill="#18258F" p-id="10469"></path><path d="M703.372122 359.800995l-90.427861 120.676617h-219.383085v286.567164h219.383085l90.427861 114.945274z" fill="#0F77B2" p-id="10470"></path><path d="M703.372122 359.800995v522.507463l-28.656717-36.935324-61.771144-78.00995h-219.383085v-286.567164h219.383085l61.771144-82.78607z" fill="#4D9EEB" p-id="10471"></path><path d="M42.357196 538.427861h172.258707v172.258706H42.357196z" fill="#8BD3F2" p-id="10472"></path><path d="M42.357196 624.716418h172.258707v85.970149H42.357196z" fill="#4D9CEA" p-id="10473"></path><path d="M42.357196 687.761194h172.258707v22.925373H42.357196z" fill="#345CCA" p-id="10474"></path><path d="M42.357196 538.427861h172.258707v22.925373H42.357196z" fill="#4899E9" p-id="10475"></path><path d="M0.008938 533.333333v181.17413a22.925373 22.925373 0 0 0 23.243781 23.562189 23.243781 23.243781 0 0 0 23.562189-23.562189v-181.17413a23.243781 23.243781 0 0 0-23.562189-23.880597 22.925373 22.925373 0 0 0-23.243781 23.562189z" fill="#08607F" p-id="10476"></path><path d="M46.814908 713.870647v-180.537314a23.243781 23.243781 0 0 0-23.562189-23.880597v227.661692a23.562189 23.562189 0 0 0 23.562189-23.562189z" fill="#033751" p-id="10477"></path><path d="M0.008938 533.333333v181.17413a22.925373 22.925373 0 0 0 23.243781 23.562189 23.243781 23.243781 0 0 0 23.562189-23.562189v-181.17413a23.243781 23.243781 0 0 0-23.562189-23.880597 22.925373 22.925373 0 0 0-23.243781 23.562189z" fill="#3968D0" p-id="10478"></path><path d="M46.814908 713.870647v-180.537314a23.243781 23.243781 0 0 0-23.562189-23.880597v227.661692a23.562189 23.562189 0 0 0 23.562189-23.562189z" fill="#18268F" p-id="10479"></path><path d="M703.372122 755.900498v127.363184l-28.656717-36.935324-61.771144-78.965174H439.411923v-68.776119h172.258706l63.681592 39.482587z" fill="#345FCB" p-id="10480"></path><path d="M583.013913 395.462687v456.278607a53.810945 53.810945 0 0 1-53.492538 53.492537H256.964162a53.810945 53.810945 0 0 1-53.492538-53.492537V395.462687a53.810945 53.810945 0 0 1 53.492538-53.492538h272.557213a54.129353 54.129353 0 0 1 53.492538 53.492538z" fill="#1D3097" p-id="10481"></path><path d="M204.10844 622.169154V395.462687a53.810945 53.810945 0 0 1 53.492537-53.492538h272.557214a53.492537 53.492537 0 0 1 53.492538 53.492538v226.706467" fill="#345DCA" p-id="10482"></path><path d="M703.372122 359.800995v114.945274l-28.656717 20.059701-60.179104 42.985075H382.09849v-57.313433h230.845771l61.771144-82.78607z" fill="#8BD3F2" p-id="10483"></path><path d="M583.013913 767.363184v31.840796a53.492537 53.492537 0 0 1-53.492538 53.174129H256.964162a53.492537 53.492537 0 0 1-53.492538-53.174129v-31.840796z" fill="#08607F" p-id="10484"></path><path d="M533.660679 861.930348H252.824858a48.716418 48.716418 0 0 1-48.716418-48.716418V434.626866a49.034826 49.034826 0 0 1 48.716418-49.034826h280.835821a49.034826 49.034826 0 0 1 48.716418 49.034826V812.577114a48.39801 48.39801 0 0 1-48.716418 49.353234z" fill="#4C9BE9" p-id="10485"></path><path d="M583.013913 606.567164v206.00995a49.034826 49.034826 0 0 1-48.716418 49.034826H252.824858a49.034826 49.034826 0 0 1-48.716418-49.034826v-206.00995" fill="#345FCB" p-id="10486"></path><path d="M543.849734 773.094527H242.635803a39.164179 39.164179 0 0 1-39.164179-38.845771V513.273632a39.164179 39.164179 0 0 1 39.164179-39.164179h301.213931a39.164179 39.164179 0 0 1 39.164179 39.164179v220.975124a39.482587 39.482587 0 0 1-39.164179 38.845771z" fill="#8BD2F1" p-id="10487"></path><path d="M703.372122 359.800995v522.507463l-28.656717-36.935324V397.691542z" fill="#345DCC" p-id="10488"></path><path d="M703.372122 755.900498v127.363184l-28.656717-36.935324v-108.258706z" fill="#1D3097" p-id="10489"></path><path d="M703.372122 359.800995v114.945274l-28.656717 20.059701v-95.522388z" fill="#4EA2ED" p-id="10490"></path><path d="M278.297495 624.39801a114.626866 114.626866 0 1 0 57.313433-99.343284 114.945274 114.945274 0 0 0-57.313433 99.343284z" fill="#345FCB" p-id="10491"></path></svg>