<?xml version="1.0" standalone="no"?><!DOCTYPE svg PUBLIC "-//W3C//DTD SVG 1.1//EN" "http://www.w3.org/Graphics/SVG/1.1/DTD/svg11.dtd"><svg t="1762128479839" class="icon" viewBox="0 0 1553 1024" version="1.1" xmlns="http://www.w3.org/2000/svg" p-id="9934" xmlns:xlink="http://www.w3.org/1999/xlink" width="303.3203125" height="200"><path d="M325.588269 854.503741h138.214464v138.214463H325.588269z" fill="#A26F00" p-id="9935"></path><path d="M274.51595 958.563591h240.997506v49.476309H274.51595z" fill="#E29B00" p-id="9936"></path><path d="M1142.745377 854.503741h138.214463v138.214463H1142.745377z" fill="#A26F00" p-id="9937"></path><path d="M1091.353855 958.563591h240.997507v49.476309h-240.997507z" fill="#E29B00" p-id="9938"></path><path d="M74.695501 989.526185h1478.543641v34.473815H74.695501z" fill="#FFA227" p-id="9939"></path><path d="M308.351362 387.19202v-95.760599A268.129676 268.129676 0 0 1 574.565825 24.897756h498.912719v171.411471H574.565825a95.760599 95.760599 0 0 0-95.760598 95.760598v95.760599z" fill="#FFB88D" p-id="9940"></path><path d="M478.805227 292.389027a95.760599 95.760599 0 0 1 95.760598-95.760598h498.912719v-86.184539H574.565825a181.945137 181.945137 0 0 0-181.625935 181.945137v95.760599H478.805227v-95.760599z" fill="#FFA227" p-id="9941"></path><path d="M330.376299 292.389027A245.147132 245.147132 0 0 1 574.565825 47.241895h498.274315v-22.344139H574.565825a268.129676 268.129676 0 0 0-266.852867 267.491271v95.760599h22.024937v-95.760599z" fill="#FFA227" p-id="9942"></path><path d="M478.805227 292.389027a95.760599 95.760599 0 0 1 95.760598-95.760598h498.912719v-22.34414H574.565825a118.104738 118.104738 0 0 0-117.785536 118.104738v95.760599H478.805227v-95.760599z" fill="#DE9700" p-id="9943"></path><path d="M1096.461087 199.182045V22.982544a22.982544 22.982544 0 1 0-45.965087 0v176.199501a23.301746 23.301746 0 0 0 22.982544 22.982544 22.663342 22.663342 0 0 0 22.982543-22.982544z" fill="#DE9C00" p-id="9944"></path><path d="M1051.134404 22.982544v176.199501a22.982544 22.982544 0 0 0 22.982544 22.982544V0a22.982544 22.982544 0 0 0-22.982544 22.982544z" fill="#966300" p-id="9945"></path><path d="M1528.022185 510.723192v235.890274a14.044888 14.044888 0 0 1 0 5.107232v2.872818a7.98005 7.98005 0 0 1 0 2.872818v1.915212a10.533666 10.533666 0 0 1 0 4.468828 20.428928 20.428928 0 0 1 0 2.872818v2.234414a19.471322 19.471322 0 0 1 0 4.149626v5.107232a2.553616 2.553616 0 0 1 0 2.234414 24.897756 24.897756 0 0 0 0 4.468828v2.234414l-15.002494 10.852868a40.857855 40.857855 0 0 1-4.468828 6.703241s0 2.872818-2.872818 4.149626a63.840399 63.840399 0 0 1-5.745636 6.703242 22.663342 22.663342 0 0 1-3.830424 4.149626l-5.426434 5.107232-2.234414 1.59601h-2.553616l-3.511222 2.872818s-2.872818 1.59601-3.830424 2.872818a4.149626 4.149626 0 0 1-2.234414 0h-2.553616a4.78803 4.78803 0 0 1-2.872818 0 7.98005 7.98005 0 0 0-3.830424 2.234414l-3.511221 1.59601h-2.553616a11.17207 11.17207 0 0 0-3.511222 0l-6.38404 1.915212h-4.149626-4.468828a2.234414 2.234414 0 0 0-1.915212 0h-7.98005a9.57606 9.57606 0 0 0-4.468828 0h-638.40399a115.551122 115.551122 0 0 1-99.591022-57.456359A121.61596 121.61596 0 0 1 670.326424 766.084788a124.169576 124.169576 0 0 1-3.511222-28.72818v-235.571072a15.9601 15.9601 0 0 1 0-5.426434v-1.59601-4.468828a9.256858 9.256858 0 0 1 0-4.468828 19.471322 19.471322 0 0 1 0-4.149626v-1.59601-4.149625-2.872818-2.234414a3.19202 3.19202 0 0 1 0-2.234414 54.264339 54.264339 0 0 1 2.872818-7.660848 3.511222 3.511222 0 0 1 0-2.234414l3.511222-7.022444a27.451372 27.451372 0 0 1 4.149626-6.38404l6.703242-8.937656 3.511222-4.149626a25.53616 25.53616 0 0 1 4.149626-4.149626l5.107232-5.107232a11.17207 11.17207 0 0 1 2.872817-2.234414 56.817955 56.817955 0 0 1 9.895262-7.341645l3.19202-2.553616 5.426434-2.872818h2.234414a13.406484 13.406484 0 0 0 3.830424-2.553616l8.299252-3.19202 4.468828-1.915212H743.742883a23.94015 23.94015 0 0 1 6.38404 0h1.915212a13.087282 13.087282 0 0 1 5.107232 0h657.556109a109.486284 109.486284 0 0 1 15.002494 0 4.78803 4.78803 0 0 1 2.872818 0 36.389027 36.389027 0 0 1 10.214464 2.234414h1.915212l5.107232 1.59601 4.468828 1.59601 7.98005 3.511222 4.149626 2.234414 3.511221 1.915212h3.511222l4.468828 2.872817 4.468828 3.511222 4.78803 3.511222a5.107232 5.107232 0 0 1 2.234414 2.234414l5.107232 5.107232 4.149626 4.149626a53.945137 53.945137 0 0 1 6.38404 7.98005c0 2.234414 3.19202 4.468828 4.468828 6.703242a31.9202 31.9202 0 0 1 2.872818 4.78803l3.511222 7.022444v2.234414a18.513716 18.513716 0 0 1 2.872818 7.341646v2.234414a4.78803 4.78803 0 0 1 0 2.553616 7.660848 7.660848 0 0 1 0 2.872818v3.830423a2.234414 2.234414 0 0 0 0 1.915212 16.917706 16.917706 0 0 1 0 3.830424V509.765586z" fill="#FFA227" p-id="9946"></path><path d="M1528.022185 510.723192v28.72818h-861.845387v-35.431422a27.451372 27.451372 0 0 1 0-5.107232v-1.915212-4.468828a9.256858 9.256858 0 0 1 0-4.468828 19.471322 19.471322 0 0 0 0-4.149626v-4.149625a15.002494 15.002494 0 0 0 0-2.872818v-2.234414a4.149626 4.149626 0 0 1 0-2.234414c0-2.234414 1.59601-5.107232 2.872818-7.660848v-2.234414l3.511222-7.022444a20.428928 20.428928 0 0 1 4.149626-6.064838c2.234414-3.511222 4.468828-6.38404 6.703242-9.256858l3.511222-4.149626a49.157107 49.157107 0 0 1 4.149626-3.830424l5.107232-5.426434 2.872817-2.234414a56.817955 56.817955 0 0 1 9.895262-7.341646 13.087282 13.087282 0 0 1 3.511222-2.234413 26.493766 26.493766 0 0 1 5.107232-2.872818h2.234414l4.149626-2.234414 7.98005-3.511222 4.468828-1.915212 5.107232-1.915212h1.915212a39.900249 39.900249 0 0 1 6.064838 0h1.915212a14.044888 14.044888 0 0 1 5.107232 0H1414.067072a105.336658 105.336658 0 0 1 15.002494 0 4.149626 4.149626 0 0 1 2.872818 0 61.925187 61.925187 0 0 1 10.533666 2.234414h1.59601l5.107232 1.59601 4.468828 1.59601 8.299252 3.511222a13.406484 13.406484 0 0 1 3.830424 2.553616h3.511221l3.511222 1.59601 4.468828 2.872817a45.645885 45.645885 0 0 0 4.78803 3.511222l4.468828 3.511222a5.107232 5.107232 0 0 1 2.234414 2.234414l9.895262 9.895262a53.945137 53.945137 0 0 1 6.38404 7.98005 31.9202 31.9202 0 0 1 4.468828 7.022444 15.321696 15.321696 0 0 1 2.872818 4.468828l3.511222 7.022444v2.234414a39.261845 39.261845 0 0 1 2.872818 7.341646v2.553616a3.511222 3.511222 0 0 1 0 2.234414 25.216958 25.216958 0 0 1 0 2.872817 16.917706 16.917706 0 0 0 0 3.830424 2.234414 2.234414 0 0 0 0 1.915212v3.830424a18.194514 18.194514 0 0 0 0 4.78803v16.279302z" fill="#FFB88D" p-id="9947"></path><path d="M1528.022185 711.182045v34.473815a14.044888 14.044888 0 0 1 0 5.107232v2.872818a7.98005 7.98005 0 0 1 0 2.872818v1.915212a10.533666 10.533666 0 0 1 0 4.468828 20.428928 20.428928 0 0 1 0 2.872818v2.234414a19.471322 19.471322 0 0 1 0 4.149626v5.107232a2.553616 2.553616 0 0 1 0 2.234414 24.897756 24.897756 0 0 0 0 4.468828v2.234414l-15.002494 11.810474a40.857855 40.857855 0 0 1-4.468828 6.703241s0 2.872818-2.872818 4.149626a63.840399 63.840399 0 0 1-5.745636 6.703242 22.663342 22.663342 0 0 1-3.830424 4.149626l-5.426434 5.107232-2.234414 1.59601h-2.553616l-3.511222 2.872818s-2.872818 1.59601-3.830424 2.872818a4.149626 4.149626 0 0 1-2.234414 0h-2.553616a4.78803 4.78803 0 0 1-2.872818 0 7.98005 7.98005 0 0 0-3.830424 2.234414l-3.511221 1.59601h-2.553616a11.17207 11.17207 0 0 0-3.511222 0l-6.38404 1.915212h-4.149626-4.468828a2.234414 2.234414 0 0 0-1.915212 0h-7.98005a9.57606 9.57606 0 0 0-4.468828 0h-638.40399a115.551122 115.551122 0 0 1-99.591022-57.456359A121.61596 121.61596 0 0 1 670.326424 766.084788a124.169576 124.169576 0 0 1-3.511222-28.72818v-28.728179h861.845387z" fill="#DE9700" p-id="9948"></path><path d="M1527.383781 503.381546V510.723192l-3.19202-28.72818v4.149626a40.538653 40.538653 0 0 0 0 4.468828v4.468828z m-3.19202 265.256858V777.895262a3.19202 3.19202 0 0 1 0 2.234414l-1.59601 4.78803v2.553616l-3.19202 6.703242z" fill="#19A1DD" p-id="9949"></path><path d="M1320.86009 826.094763v28.72818H766.087022a95.760599 95.760599 0 0 1-66.713217-28.72818z m0-57.456359V798.004988H678.306474a117.785536 117.785536 0 0 1-10.214464-28.72818z m-655.640898-57.456359h655.640898v28.728179H665.219192z" fill="#A26F00" p-id="9950"></path><path d="M665.219192 653.725686h655.640898v28.728179H665.219192z m0-57.775561h655.640898v28.728179H665.219192z m0-57.456359h655.640898v28.728179H665.219192z" fill="#D89300" p-id="9951"></path><path d="M1320.86009 481.037406V510.723192H665.219192l2.872818-28.72818z m-621.805487-57.456359h621.486285v28.72818H678.306474a38.304239 38.304239 0 0 1 3.511222-6.38404 63.840399 63.840399 0 0 1 5.745636-9.256858l3.511222-4.149626a38.304239 38.304239 0 0 1 3.511222-3.830424c0-2.234414 3.19202-3.511222 4.468827-5.107232z" fill="#FFA022" p-id="9952"></path><path d="M1338.096998 383.042394v476.568579a17.55611 17.55611 0 0 1-17.236908 18.194513 17.55611 17.55611 0 0 1-17.236908-18.194513V383.042394a16.917706 16.917706 0 0 1 29.366584-13.087282 20.109726 20.109726 0 0 1 5.107232 13.087282z" fill="#A26F00" p-id="9953"></path><path d="M1338.096998 383.042394v476.568579a17.55611 17.55611 0 0 1-17.236908 18.194513v-510.723192a17.875312 17.875312 0 0 1 12.129676 5.426434 20.109726 20.109726 0 0 1 5.107232 13.087282z" fill="#E69D00" p-id="9954"></path><path d="M774.386274 351.122195v540.089775a19.471322 19.471322 0 0 1-17.236907 21.386534 19.15212 19.15212 0 0 1-17.236908-21.386534V351.122195a19.471322 19.471322 0 0 1 17.236908-21.386534 15.9601 15.9601 0 0 1 12.129675 6.38404 26.493766 26.493766 0 0 1 5.107232 15.002494z" fill="#A26F00" p-id="9955"></path><path d="M774.386274 351.122195v540.089775a19.471322 19.471322 0 0 1-17.236907 21.386534V331.331671a15.002494 15.002494 0 0 1 12.129675 6.38404 22.982544 22.982544 0 0 1 5.107232 14.364089z" fill="#E69D00" p-id="9956"></path><path d="M739.912459 351.122195v540.089775a19.790524 19.790524 0 0 1-17.236908 21.386534 19.15212 19.15212 0 0 1-17.236908-21.386534V351.122195a19.471322 19.471322 0 0 1 17.236908-21.386534 15.9601 15.9601 0 0 1 12.129676 6.38404 26.493766 26.493766 0 0 1 5.107232 15.002494z" fill="#936500" p-id="9957"></path><path d="M739.912459 351.122195v540.089775a19.790524 19.790524 0 0 1-17.236908 21.386534V331.331671a15.002494 15.002494 0 0 1 12.129676 6.38404 22.982544 22.982544 0 0 1 5.107232 14.364089z" fill="#E69D00" p-id="9958"></path><path d="M1528.022185 510.723192v235.890274a14.044888 14.044888 0 0 1 0 5.107232 33.835411 33.835411 0 0 1-28.089776-31.920199v-199.820449a31.9202 31.9202 0 0 1 26.493766-31.9202V509.127182z" fill="#A26F00" p-id="9959"></path><path d="M705.438643 360.05985l-90.972568 120.977556h-219.930175v287.281796h219.930175l90.972568 115.23192z" fill="#0F77B2" p-id="9960"></path><path d="M705.438643 360.05985v523.810474l-28.728179-37.027431-62.244389-78.204489h-219.930175v-287.281796h219.930175l62.244389-82.992518z" fill="#FFA227" p-id="9961"></path><path d="M42.4561 539.13217h172.688279v172.688279H42.4561z" fill="#FFB88D" p-id="9962"></path><path d="M42.4561 625.63591h172.688279v86.184539H42.4561z" fill="#FFA026" p-id="9963"></path><path d="M42.4561 688.837905h172.688279v22.982544H42.4561z" fill="#E59C00" p-id="9964"></path><path d="M42.4561 539.13217h172.688279v22.982543H42.4561z" fill="#FFA026" p-id="9965"></path><path d="M0.002234 534.024938v181.625935a23.301746 23.301746 0 0 0 23.620948 23.620947 23.301746 23.301746 0 0 0 23.620948-23.620947v-181.625935A23.301746 23.301746 0 0 0 23.623182 510.723192a23.301746 23.301746 0 0 0-23.620948 23.620948z" fill="#08607F" p-id="9966"></path><path d="M47.24413 715.012469v-180.987531A23.301746 23.301746 0 0 0 23.623182 510.723192v228.229426a23.620948 23.620948 0 0 0 23.620948-23.620947z" fill="#033751" p-id="9967"></path><path d="M0.002234 534.024938v181.625935a23.301746 23.301746 0 0 0 23.620948 23.620947 23.301746 23.301746 0 0 0 23.620948-23.620947v-181.625935A23.301746 23.301746 0 0 0 23.623182 510.723192a23.301746 23.301746 0 0 0-23.620948 23.620948z" fill="#E59C00" p-id="9968"></path><path d="M47.24413 715.012469v-180.987531A23.301746 23.301746 0 0 0 23.623182 510.723192v228.229426a23.620948 23.620948 0 0 0 23.620948-23.620947z" fill="#A26F00" p-id="9969"></path><path d="M705.438643 757.147132v127.680798l-28.728179-37.027431-62.244389-78.204489h-173.645885v-69.905237h172.369077l63.840399 39.581047z" fill="#DD9900" p-id="9970"></path><path d="M584.461087 395.810474v457.416459a53.625935 53.625935 0 0 1-53.306733 53.625935H257.598244a53.945137 53.945137 0 0 1-53.306733-53.625935V395.810474a53.945137 53.945137 0 0 1 53.306733-53.625935h273.55611a53.945137 53.945137 0 0 1 53.306733 53.625935z" fill="#A26F00" p-id="9971"></path><path d="M204.929915 623.082294V395.810474a53.625935 53.625935 0 0 1 53.306733-53.625935h273.236908a53.625935 53.625935 0 0 1 53.625935 53.625935v227.27182" fill="#DE9700" p-id="9972"></path><path d="M705.438643 360.05985v115.231921l-28.728179 20.109725-60.648379 43.09227H383.044628v-57.45636h231.421447l62.244389-82.992518z" fill="#FFB88D" p-id="9973"></path><path d="M584.461087 768.638404v31.920199a53.306733 53.306733 0 0 1-53.306733 53.306734H257.598244a53.625935 53.625935 0 0 1-53.306733-52.349128v-31.920199z" fill="#08607F" p-id="9974"></path><path d="M534.984778 863.441397H255.36383a48.518703 48.518703 0 0 1-48.837905-48.837906V435.072319A48.837905 48.837905 0 0 1 255.36383 385.915212h281.216958a48.837905 48.837905 0 0 1 48.837905 49.157107V813.965087a48.518703 48.518703 0 0 1-48.837905 49.47631z" fill="#FFA227" p-id="9975"></path><path d="M584.461087 606.483791v207.481296a48.837905 48.837905 0 0 1-48.837905 47.8803H255.36383a48.837905 48.837905 0 0 1-50.433915-47.8803V606.483791" fill="#DD9900" p-id="9976"></path><path d="M545.518444 774.38404H243.234155A39.261845 39.261845 0 0 1 204.291511 734.164589v-220.249377a39.261845 39.261845 0 0 1 38.942644-39.261845h302.284289a39.261845 39.261845 0 0 1 38.942643 39.261845V734.164589a39.581047 39.581047 0 0 1-38.942643 39.261845z" fill="#FFB68D" p-id="9977"></path><path d="M705.438643 360.05985v523.810474l-28.728179-37.027431V398.044888z" fill="#DD9900" p-id="9978"></path><path d="M705.438643 757.147132v127.680798l-28.728179-37.027431v-108.528679z" fill="#9D6A00" p-id="9979"></path><path d="M705.438643 360.05985v115.231921l-28.728179 20.109725v-95.760598z" fill="#FFA129" p-id="9980"></path><path d="M278.984778 625.316708a115.23192 115.23192 0 1 0 57.456359-99.591022 115.23192 115.23192 0 0 0-57.456359 99.591022z" fill="#DE9700" p-id="9981"></path></svg>