<?xml version="1.0" encoding="utf-8"?>
<!-- Generator: Adobe Illustrator 14.0.0, SVG Export Plug-In . SVG Version: 6.00 Build 43363)  -->
<!DOCTYPE svg PUBLIC "-//W3C//DTD SVG 1.1//EN" "http://www.w3.org/Graphics/SVG/1.1/DTD/svg11.dtd">
<svg version="1.1" id="图层_1" xmlns="http://www.w3.org/2000/svg" xmlns:xlink="http://www.w3.org/1999/xlink" x="0px" y="0px"
	 width="65.88px" height="106.502px" viewBox="0 0 65.88 106.502" enable-background="new 0 0 65.88 106.502" xml:space="preserve">
<path fill="#666666" d="M11.939,96.798h42.108v2.025H11.939V96.798z"/>
<path fill="#666666" d="M6.183,100.636V54.797h53.407v45.839h-5.543V70.041H11.939v30.595H6.183z"/>
<path fill="#CCCCCC" stroke="#000000" stroke-width="2" d="M9.381,99.25h47.012v2.025H9.381V99.25z"/>
<path fill="#D9D9D9" d="M2.985,69.295l15.03,14.817H47.97l14.925-14.817H2.985z"/>
<path fill="#D1D1D1" d="M4.584,70.894l13.432,13.219H47.97l13.219-13.219H4.584z"/>
<path fill="#CCCCCC" d="M6.396,72.492l11.619,11.62H47.97l11.62-11.62H6.396z"/>
<path fill="#C4C4C4" d="M7.995,74.092l10.021,10.021H47.97l10.021-10.021H7.995z"/>
<path fill="#BFBFBF" d="M9.594,75.691l8.421,8.422H47.97l8.209-8.422H9.594z"/>
<path fill="#B8B8B8" d="M11.193,77.29l6.822,6.822H47.97l6.609-6.822H11.193z"/>
<path fill="#B2B2B2" d="M12.792,78.889l5.224,5.224H47.97l5.011-5.224H12.792z"/>
<path fill="#ABABAB" d="M14.391,80.488l3.624,3.625H47.97l3.412-3.625H14.391z"/>
<path fill="#A6A6A6" d="M15.99,82.3l2.025,1.813H47.97l1.813-1.813H15.99z"/>
<path fill="none" stroke="#000000" stroke-width="2" d="M2.985,69.295l15.03,14.817H47.97l14.925-14.817"/>
<path fill="#191919" stroke="#000000" stroke-width="2" d="M18.015,84.113l2.025,6.503h25.691l2.238-6.503H18.015z"/>
<path fill="#333333" stroke="#000000" stroke-width="2" d="M20.041,97.011v-6.396h25.691v6.396H20.041z"/>
<path fill="#E5E5E5" d="M2.985,103.407V52.132h59.91v51.275h-6.503V69.295H9.381v34.112H2.985z"/>
<circle fill="#666666" cx="25.371" cy="59.594" r="5.33"/>
<circle fill="#666666" cx="40.402" cy="59.594" r="5.33"/>
<path fill="#E5E5E5" stroke="#000000" stroke-width="2" d="M3.944,13.649h7.676v3.198H54.26v-3.198h7.568v6.396H3.944V13.649z"/>
<path fill="#F2F2F2" d="M3.944,20.045h57.885l1.066,32.087H2.985L3.944,20.045z"/>
<circle cx="25.371" cy="59.594" r="4.264"/>
<circle cx="40.402" cy="59.594" r="4.264"/>
<path fill="#7F7F7F" stroke="#000000" stroke-width="2" d="M43.174,43.391l-1.279,0.106H23.879l-1.173-0.106l-1.065-0.64
	l-0.746-0.854l-0.427-0.959l-0.427-0.959v-9.701l0.427-1.173l0.427-1.065l0.746-0.747l1.065-0.426l1.173-0.427h18.016l1.279,0.427
	l0.96,0.426l0.853,0.747l0.319,1.065l0.427,1.173v9.701l-0.427,0.959l-0.319,0.959l-0.853,0.854L43.174,43.391z"/>
<path fill="#333333" d="M41.894,42.112l-0.959,0.426H24.839l-0.96-0.426l-1.065-0.32l-0.747-0.853l-0.64-0.959L21.107,38.7v-7.355
	l0.319-1.279l0.64-0.747l0.747-0.853l1.065-0.533l0.96-0.426h16.097l1.173,0.426l0.853,0.533l0.746,0.853l0.64,0.747l0.427,1.279
	V38.7l-0.427,1.279l-0.64,0.959l-0.746,0.853L41.894,42.112z"/>
<path fill="none" stroke="#FFFFFF" stroke-width="2" d="M28.676,39.34l8.422-8.635"/>
<path fill="none" stroke="#FFFFFF" stroke-width="2" d="M35.072,36.142l5.224-5.437"/>
<path fill="none" stroke="#FFFFFF" stroke-width="2" d="M26.437,35.075l5.437-5.33"/>
<path fill="none" stroke="#000000" stroke-width="2" d="M2.985,103.407V52.132l0.959-32.087h57.885l1.066,32.3v51.063h-6.503V69.295
	H9.381v34.112H2.985"/>
<path fill="#CCCCCC" stroke="#000000" stroke-width="2" d="M11.62,14.822H54.26v2.025H11.62V14.822z"/>
<path fill="#333333" stroke="#000000" stroke-width="2" d="M47.97,2.989h7.463v11.833H47.97V2.989z"/>
<path fill="none" stroke="#666666" stroke-width="2" d="M48.93,6.187v8.635"/>
<path fill="none" stroke="#666666" stroke-width="2" d="M49.996,6.187v8.635"/>
<path fill="none" stroke="#666666" stroke-width="2" d="M50.956,6.187v8.635"/>
<path fill="none" stroke="#666666" stroke-width="2" d="M52.129,6.187v8.635"/>
<path fill="none" stroke="#666666" stroke-width="2" d="M53.194,6.187v8.635"/>
<path fill="none" stroke="#666666" stroke-width="2" d="M54.26,6.187v8.635"/>
<path stroke="#000000" stroke-width="2" d="M46.799,6.187h4.157v5.437h-4.157V6.187z"/>
<path fill="none" stroke="#000000" stroke-width="2" d="M33.899,14.822l8.635-2.239l2.239-0.959l2.025-2.239"/>
</svg>
