<?xml version="1.0" encoding="utf-8"?>
<!-- Generator: Adobe Illustrator 14.0.0, SVG Export Plug-In . SVG Version: 6.00 Build 43363)  -->
<!DOCTYPE svg PUBLIC "-//W3C//DTD SVG 1.1//EN" "http://www.w3.org/Graphics/SVG/1.1/DTD/svg11.dtd">
<svg version="1.1" id="图层_1" xmlns="http://www.w3.org/2000/svg" xmlns:xlink="http://www.w3.org/1999/xlink" x="0px" y="0px"
	 width="106.502px" height="106.502px" viewBox="0 0 106.502 106.502" enable-background="new 0 0 106.502 106.502"
	 xml:space="preserve">
<path fill="#4C4C4C" d="M79.531,67.91v20.895H25.906V67.91H79.531z"/>
<path fill="#333333" d="M32.303,67.91l9.275,20.895h16.844V67.91H32.303z"/>
<ellipse fill="#666666" stroke="#000000" stroke-width="2" cx="86.673" cy="6.076" rx="16.737" ry="3.092"/>
<ellipse fill="#666666" stroke="#000000" stroke-width="2" cx="53.198" cy="6.076" rx="16.737" ry="3.092"/>
<ellipse fill="#666666" stroke="#000000" stroke-width="2" cx="19.616" cy="6.076" rx="16.631" ry="3.092"/>
<path fill="#7F7F7F" d="M88.805,95.201H17.59V65.884H86.78v2.026H19.616v22.813l67.164,0.214V65.884h2.025V95.201z"/>
<path fill="#CCCCCC" d="M2.985,7.143h100.426v58.528H2.985V7.143z"/>
<path fill="#C7C7C7" d="M2.985,48.72l100.426-24.413v41.364H2.985V48.72z"/>
<path fill="#C2C2C2" d="M2.985,51.172l100.426-24.52v39.019H2.985V51.172z"/>
<path fill="#BDBDBD" d="M2.985,54.797l100.426-24.521v73.134H2.985l14.605-8.422h71.215V65.671H17.59v29.317L2.985,103.41V54.797z"
	/>
<path fill="none" stroke="#000000" stroke-width="2" d="M2.985,7.143h100.426v96.268H2.985V7.143"/>
<path fill="#B2B2B2" d="M17.59,11.407h71.215v43.816H17.59V11.407z"/>
<path fill="#A6A6A6" d="M32.303,11.407h41.791v43.816H32.303V11.407z"/>
<path fill="#B2B2B2" d="M44.776,11.407h16.845v43.816H44.776V11.407z"/>
<path fill="none" stroke="#000000" stroke-width="2" d="M17.59,55.224V11.407h71.215"/>
<path fill="none" stroke="#FFFFFF" stroke-width="2" d="M88.805,11.407v43.816H17.59"/>
<path fill="none" stroke="#666666" stroke-width="2" d="M24.84,45.736h39.765"/>
<path fill="none" stroke="#666666" stroke-width="2" d="M25.906,44.776h39.766"/>
<path fill="none" stroke="#666666" stroke-width="2" d="M19.616,43.709h39.765"/>
<path fill="none" stroke="#666666" stroke-width="2" d="M47.015,21.855h25.053"/>
<path fill="none" stroke="#666666" stroke-width="2" d="M49.147,23.88h24.946"/>
<path fill="none" stroke="#666666" stroke-width="2" d="M41.791,28.038h24.84"/>
<path fill="none" stroke="#666666" stroke-width="2" d="M28.038,18.656h25.16"/>
<path fill="none" stroke="#666666" stroke-width="2" d="M25.906,17.59h25.053"/>
<path fill="none" stroke="#666666" stroke-width="2" d="M28.038,15.671h25.16"/>
<path fill="none" stroke="#666666" stroke-width="2" d="M28.038,34.328H67.91"/>
<path fill="none" stroke="#000000" stroke-width="2" d="M17.59,94.989V65.671h71.215"/>
<path fill="none" stroke="#FFFFFF" stroke-width="2" d="M88.805,65.671v29.317H17.59"/>
<path fill="#999999" d="M36.354,88.805h33.582v1.919H36.354V88.805z"/>
<path fill="#666666" d="M19.616,86.78h16.737v3.944H19.616V86.78z"/>
<path fill="#666666" d="M69.935,86.78H86.78v3.944H69.935V86.78z"/>
<path fill="#999999" d="M54.158,67.91v20.895h-1.919V67.91H54.158z"/>
<path fill="none" stroke="#000000" stroke-width="2" d="M32.303,84.541h41.791"/>
<path fill="none" stroke="#000000" stroke-width="2" d="M49.04,84.541V67.91"/>
<path fill="none" stroke="#000000" stroke-width="2" d="M72.068,76.118V67.91"/>
<circle fill="#666666" cx="78.251" cy="80.383" r="8.315"/>
<path fill="#666666" d="M31.236,88.165l-2.132,0.64h-2.239l-2.025-0.64l-1.919-0.959L21.428,85.5l-1.172-2.025l-0.64-1.919v-2.239
	l0.64-2.238l1.172-1.813l1.493-1.599l1.919-0.96l2.025-0.64h2.239l2.132,0.64l1.919,0.96l1.493,1.599l1.279,1.813l0.426,2.238v2.239
	l-0.426,1.919L34.648,85.5l-1.493,1.706L31.236,88.165z"/>
<path fill="#333333" d="M9.168,30.064l-4.158-4.158l4.158-4.051l4.264,4.051L9.168,30.064z"/>
<path fill="none" stroke="#FFFFFF" stroke-width="2" d="M5.011,34.328V21.855h8.422"/>
<path fill="none" stroke="#999999" stroke-width="2" d="M5.011,34.328h8.422V21.855"/>
<path fill="none" stroke="#E5E5E5" stroke-width="2" d="M89.765,11.407v44.988H16.418"/>
<path fill="none" stroke="#7F7F7F" stroke-width="2" d="M16.418,55.224V10.235h73.347"/>
<path fill="none" stroke="#E5E5E5" stroke-width="2" d="M89.765,65.458v32.729H16.418"/>
<path fill="none" stroke="#7F7F7F" stroke-width="2" d="M16.418,97.441V64.605h73.347"/>
</svg>
