<?xml version="1.0" encoding="utf-8"?>
<!-- Generator: Adobe Illustrator 14.0.0, SVG Export Plug-In . SVG Version: 6.00 Build 43363)  -->
<!DOCTYPE svg PUBLIC "-//W3C//DTD SVG 1.1//EN" "http://www.w3.org/Graphics/SVG/1.1/DTD/svg11.dtd">
<svg version="1.1" id="图层_1" xmlns="http://www.w3.org/2000/svg" xmlns:xlink="http://www.w3.org/1999/xlink" x="0px" y="0px"
	 width="29.527px" height="106.502px" viewBox="0 0 29.527 106.502" enable-background="new 0 0 29.527 106.502"
	 xml:space="preserve">
<path fill="#CCCCCC" stroke="#000000" stroke-width="2" d="M3.944,12.584l1.279-5.436L3.944,2.991h2.879l0.959,4.157l-0.959,5.436
	H3.944z"/>
<path fill="none" stroke="#000000" stroke-width="2" d="M3.624,18.448H26.01"/>
<path fill="#E5E5E5" d="M6.183,20.046h17.055v80.161H6.183V20.046z M8.954,57.994l1.065-0.959v-1.492l-1.065-0.96H7.569l-0.96,0.96
	v1.492l0.96,0.959H8.954z M13.431,56.609l0.96-1.065v-1.386l-0.96-0.96h-1.599l-0.853,0.96v1.386l0.853,1.065H13.431z
	 M17.588,57.994l1.066-0.959v-1.492l-1.066-0.96h-1.386l-0.959,0.96v1.492l0.959,0.959H17.588z M21.852,56.609l0.96-1.065v-1.386
	l-0.96-0.96h-1.386l-1.065,0.96v1.386l1.065,1.065H21.852z M8.954,53.837l1.065-1.065v-1.386l-1.065-0.96H7.569l-0.96,0.96v1.386
	l0.96,1.065H8.954z M13.431,52.451l0.96-1.065V50l-0.96-0.96h-1.599L10.98,50v1.386l0.853,1.065H13.431z M17.588,53.837l1.066-1.065
	v-1.386l-1.066-0.96h-1.386l-0.959,0.96v1.386l0.959,1.065H17.588z M21.852,52.451l0.96-1.065V50l-0.96-0.96h-1.386L19.401,50v1.386
	l1.065,1.065H21.852z M8.954,49.361l1.065-0.746v-1.386l-1.065-1.066H7.569l-0.96,1.066v1.386l0.96,0.746H8.954z M13.431,47.975
	l0.96-0.96v-1.492l-0.96-0.959h-1.599l-0.853,0.959v1.492l0.853,0.96H13.431z M17.588,49.361l1.066-0.746v-1.386l-1.066-1.066
	h-1.386l-0.959,1.066v1.386l0.959,0.746H17.588z M21.852,47.975l0.96-0.96v-1.492l-0.96-0.959h-1.386l-1.065,0.959v1.492l1.065,0.96
	H21.852z M8.954,45.203l1.065-1.066v-1.386l-1.065-1.065H7.569l-0.96,1.065v1.386l0.96,1.066H8.954z M13.431,43.711l0.96-0.96
	v-1.386l-0.96-1.065h-1.599l-0.853,1.065v1.386l0.853,0.96H13.431z M17.588,45.203l1.066-1.066v-1.386l-1.066-1.065h-1.386
	l-0.959,1.065v1.386l0.959,1.066H17.588z M21.852,43.711l0.96-0.96v-1.386l-0.96-1.065h-1.386l-1.065,1.065v1.386l1.065,0.96H21.852
	z M8.954,40.94l1.065-1.066v-1.386l-1.065-0.959H7.569l-0.96,0.959v1.386l0.96,1.066H8.954z M13.431,39.554l0.96-1.066v-1.386
	l-0.96-0.959h-1.599l-0.853,0.959v1.386l0.853,1.066H13.431z M17.588,40.94l1.066-1.066v-1.386l-1.066-0.959h-1.386l-0.959,0.959
	v1.386l0.959,1.066H17.588z M21.852,39.554l0.96-1.066v-1.386l-0.96-0.959h-1.386l-1.065,0.959v1.386l1.065,1.066H21.852z
	 M8.954,36.675l1.065-0.959V34.33l-1.065-1.066H7.569l-0.96,1.066v1.386l0.96,0.959H8.954z M13.431,35.183l0.96-0.853v-1.386
	l-0.96-1.066h-1.599l-0.853,1.066v1.386l0.853,0.853H13.431z M17.588,36.675l1.066-0.959V34.33l-1.066-1.066h-1.386l-0.959,1.066
	v1.386l0.959,0.959H17.588z M21.852,35.183l0.96-0.853v-1.386l-0.96-1.066h-1.386l-1.065,1.066v1.386l1.065,0.853H21.852z
	 M8.954,32.305l1.065-0.959v-1.493l-1.065-0.746H7.569l-0.96,0.746v1.493l0.96,0.959H8.954z M13.431,30.919l0.96-1.066v-1.386
	l-0.96-0.959h-1.599l-0.853,0.959v1.386l0.853,1.066H13.431z M17.588,32.305l1.066-0.959v-1.493l-1.066-0.746h-1.386l-0.959,0.746
	v1.493l0.959,0.959H17.588z M21.852,30.919l0.96-1.066v-1.386l-0.96-0.959h-1.386l-1.065,0.959v1.386l1.065,1.066H21.852z
	 M8.954,28.041l1.065-0.96v-1.386L8.954,24.63H7.569l-0.96,1.065v1.386l0.96,0.96H8.954z M13.431,26.656l0.96-0.96v-1.492
	l-0.96-0.959h-1.599l-0.853,0.959v1.492l0.853,0.96H13.431z M17.588,28.041l1.066-0.96v-1.386l-1.066-1.065h-1.386l-0.959,1.065
	v1.386l0.959,0.96H17.588z M21.852,26.656l0.96-0.96v-1.492l-0.96-0.959h-1.386l-1.065,0.959v1.492l1.065,0.96H21.852z
	 M8.954,23.884l1.065-1.066v-1.386l-1.065-0.959H7.569l-0.96,0.959v1.386l0.96,1.066H8.954z M13.431,22.498l0.96-1.066v-1.386
	l-0.96-0.959h-1.599l-0.853,0.959v1.386l0.853,1.066H13.431z M17.588,23.884l1.066-1.066v-1.386l-1.066-0.959h-1.386l-0.959,0.959
	v1.386l0.959,1.066H17.588z M21.852,22.498l0.96-1.066v-1.386l-0.96-0.959h-1.386l-1.065,0.959v1.386l1.065,1.066H21.852z
	 M8.954,99.781l1.065-0.959v-1.386l-1.065-1.066H7.569l-0.96,1.066v1.386l0.96,0.959H8.954z M13.431,98.182l0.96-0.96v-1.386
	l-0.96-1.065h-1.599l-0.853,1.065v1.386l0.853,0.96H13.431z M17.588,99.781l1.066-0.959v-1.386l-1.066-1.066h-1.386l-0.959,1.066
	v1.386l0.959,0.959H17.588z M21.852,98.182l0.96-0.96v-1.386l-0.96-1.065h-1.386l-1.065,1.065v1.386l1.065,0.96H21.852z
	 M8.954,95.623l1.065-1.066v-1.386l-1.065-0.959H7.569l-0.96,0.959v1.386l0.96,1.066H8.954z M13.431,94.025l0.96-1.066v-1.386
	l-0.96-0.959h-1.599l-0.853,0.959v1.386l0.853,1.066H13.431z M17.588,95.623l1.066-1.066v-1.386l-1.066-0.959h-1.386l-0.959,0.959
	v1.386l0.959,1.066H17.588z M21.852,94.025l0.96-1.066v-1.386l-0.96-0.959h-1.386l-1.065,0.959v1.386l1.065,1.066H21.852z
	 M8.954,91.146l1.065-0.959v-1.386l-1.065-1.065H7.569l-0.96,1.065v1.386l0.96,0.959H8.954z M13.431,89.547l0.96-0.959v-1.279
	l-0.96-0.96h-1.599l-0.853,0.96v1.279l0.853,0.959H13.431z M17.588,91.146l1.066-0.959v-1.386l-1.066-1.065h-1.386l-0.959,1.065
	v1.386l0.959,0.959H17.588z M21.852,89.547l0.96-0.959v-1.279l-0.96-0.96h-1.386l-1.065,0.96v1.279l1.065,0.959H21.852z
	 M8.954,86.989l1.065-1.065v-1.386l-1.065-0.96H7.569l-0.96,0.96v1.386l0.96,1.065H8.954z M13.431,85.39l0.96-1.065v-1.386
	l-0.96-0.96h-1.599l-0.853,0.96v1.386l0.853,1.065H13.431z M17.588,86.989l1.066-1.065v-1.386l-1.066-0.96h-1.386l-0.959,0.96v1.386
	l0.959,1.065H17.588z M21.852,85.39l0.96-1.065v-1.386l-0.96-0.96h-1.386l-1.065,0.96v1.386l1.065,1.065H21.852z M8.954,82.725
	l1.065-0.959V80.38l-1.065-1.066H7.569l-0.96,1.066v1.386l0.96,0.959H8.954z M13.431,81.126l0.96-0.959v-1.493l-0.96-0.959h-1.599
	l-0.853,0.959v1.493l0.853,0.959H13.431z M17.588,82.725l1.066-0.959V80.38l-1.066-1.066h-1.386l-0.959,1.066v1.386l0.959,0.959
	H17.588z M21.852,81.126l0.96-0.959v-1.493l-0.96-0.959h-1.386l-1.065,0.959v1.493l1.065,0.959H21.852z M8.954,78.355l1.065-1.066
	v-1.172L8.954,75.05H7.569l-0.96,1.066v1.172l0.96,1.066H8.954z M13.431,76.863l0.96-0.96v-1.386l-0.96-1.065h-1.599l-0.853,1.065
	v1.386l0.853,0.96H13.431z M17.588,78.355l1.066-1.066v-1.172l-1.066-1.066h-1.386l-0.959,1.066v1.172l0.959,1.066H17.588z
	 M21.852,76.863l0.96-0.96v-1.386l-0.96-1.065h-1.386l-1.065,1.065v1.386l1.065,0.96H21.852z M8.954,74.091l1.065-0.96v-1.492
	L8.954,70.68H7.569l-0.96,0.959v1.492l0.96,0.96H8.954z M13.431,72.491l0.96-1.065V70.04l-0.96-0.96h-1.599l-0.853,0.96v1.386
	l0.853,1.065H13.431z M17.588,74.091l1.066-0.96v-1.492l-1.066-0.959h-1.386l-0.959,0.959v1.492l0.959,0.96H17.588z M21.852,72.491
	l0.96-1.065V70.04l-0.96-0.96h-1.386l-1.065,0.96v1.386l1.065,1.065H21.852z M8.954,69.827l1.065-0.96v-1.386l-1.065-0.959H7.569
	l-0.96,0.959v1.386l0.96,0.96H8.954z M13.431,68.228l0.96-0.959v-1.386l-0.96-1.066h-1.599l-0.853,1.066v1.386l0.853,0.959H13.431z
	 M17.588,69.827l1.066-0.96v-1.386l-1.066-0.959h-1.386l-0.959,0.959v1.386l0.959,0.96H17.588z M21.852,68.228l0.96-0.959v-1.386
	l-0.96-1.066h-1.386l-1.065,1.066v1.386l1.065,0.959H21.852z M8.954,65.669l1.065-0.959v-1.492l-1.065-0.959H7.569l-0.96,0.959
	v1.492l0.96,0.959H8.954z M13.431,64.071l0.96-1.065v-1.386l-0.96-0.96h-1.599l-0.853,0.96v1.386l0.853,1.065H13.431z
	 M17.588,65.669l1.066-0.959v-1.492l-1.066-0.959h-1.386l-0.959,0.959v1.492l0.959,0.959H17.588z M21.852,64.071l0.96-1.065v-1.386
	l-0.96-0.96h-1.386l-1.065,0.96v1.386l1.065,1.065H21.852z"/>
<path fill="none" stroke="#7F7F7F" stroke-width="2" d="M6.183,20.046h17.055v80.161H6.183V20.046"/>
<path fill="none" stroke="#7F7F7F" stroke-width="2" d="M8.954,57.994l1.065-0.959v-1.492l-1.065-0.96H7.569l-0.96,0.96v1.492
	l0.96,0.959H8.954"/>
<path fill="none" stroke="#7F7F7F" stroke-width="2" d="M13.431,56.609l0.96-1.065v-1.386l-0.96-0.96h-1.599l-0.853,0.96v1.386
	l0.853,1.065H13.431"/>
<path fill="none" stroke="#7F7F7F" stroke-width="2" d="M17.588,57.994l1.066-0.959v-1.492l-1.066-0.96h-1.386l-0.959,0.96v1.492
	l0.959,0.959H17.588"/>
<path fill="none" stroke="#7F7F7F" stroke-width="2" d="M21.852,56.609l0.96-1.065v-1.386l-0.96-0.96h-1.386l-1.065,0.96v1.386
	l1.065,1.065H21.852"/>
<path fill="none" stroke="#7F7F7F" stroke-width="2" d="M8.954,53.837l1.065-1.065v-1.386l-1.065-0.96H7.569l-0.96,0.96v1.386
	l0.96,1.065H8.954"/>
<path fill="none" stroke="#7F7F7F" stroke-width="2" d="M13.431,52.451l0.96-1.065V50l-0.96-0.96h-1.599L10.98,50v1.386l0.853,1.065
	H13.431"/>
<path fill="none" stroke="#7F7F7F" stroke-width="2" d="M17.588,53.837l1.066-1.065v-1.386l-1.066-0.96h-1.386l-0.959,0.96v1.386
	l0.959,1.065H17.588"/>
<path fill="none" stroke="#7F7F7F" stroke-width="2" d="M21.852,52.451l0.96-1.065V50l-0.96-0.96h-1.386L19.401,50v1.386
	l1.065,1.065H21.852"/>
<path fill="none" stroke="#7F7F7F" stroke-width="2" d="M8.954,49.361l1.065-0.746v-1.386l-1.065-1.066H7.569l-0.96,1.066v1.386
	l0.96,0.746H8.954"/>
<path fill="none" stroke="#7F7F7F" stroke-width="2" d="M13.431,47.975l0.96-0.96v-1.492l-0.96-0.959h-1.599l-0.853,0.959v1.492
	l0.853,0.96H13.431"/>
<path fill="none" stroke="#7F7F7F" stroke-width="2" d="M17.588,49.361l1.066-0.746v-1.386l-1.066-1.066h-1.386l-0.959,1.066v1.386
	l0.959,0.746H17.588"/>
<path fill="none" stroke="#7F7F7F" stroke-width="2" d="M21.852,47.975l0.96-0.96v-1.492l-0.96-0.959h-1.386l-1.065,0.959v1.492
	l1.065,0.96H21.852"/>
<path fill="none" stroke="#7F7F7F" stroke-width="2" d="M8.954,45.203l1.065-1.066v-1.386l-1.065-1.065H7.569l-0.96,1.065v1.386
	l0.96,1.066H8.954"/>
<path fill="none" stroke="#7F7F7F" stroke-width="2" d="M13.431,43.711l0.96-0.96v-1.386l-0.96-1.065h-1.599l-0.853,1.065v1.386
	l0.853,0.96H13.431"/>
<path fill="none" stroke="#7F7F7F" stroke-width="2" d="M17.588,45.203l1.066-1.066v-1.386l-1.066-1.065h-1.386l-0.959,1.065v1.386
	l0.959,1.066H17.588"/>
<path fill="none" stroke="#7F7F7F" stroke-width="2" d="M21.852,43.711l0.96-0.96v-1.386l-0.96-1.065h-1.386l-1.065,1.065v1.386
	l1.065,0.96H21.852"/>
<path fill="none" stroke="#7F7F7F" stroke-width="2" d="M8.954,40.94l1.065-1.066v-1.386l-1.065-0.959H7.569l-0.96,0.959v1.386
	l0.96,1.066H8.954"/>
<path fill="none" stroke="#7F7F7F" stroke-width="2" d="M13.431,39.554l0.96-1.066v-1.386l-0.96-0.959h-1.599l-0.853,0.959v1.386
	l0.853,1.066H13.431"/>
<path fill="none" stroke="#7F7F7F" stroke-width="2" d="M17.588,40.94l1.066-1.066v-1.386l-1.066-0.959h-1.386l-0.959,0.959v1.386
	l0.959,1.066H17.588"/>
<path fill="none" stroke="#7F7F7F" stroke-width="2" d="M21.852,39.554l0.96-1.066v-1.386l-0.96-0.959h-1.386l-1.065,0.959v1.386
	l1.065,1.066H21.852"/>
<path fill="none" stroke="#7F7F7F" stroke-width="2" d="M8.954,36.675l1.065-0.959V34.33l-1.065-1.066H7.569l-0.96,1.066v1.386
	l0.96,0.959H8.954"/>
<path fill="none" stroke="#7F7F7F" stroke-width="2" d="M13.431,35.183l0.96-0.853v-1.386l-0.96-1.066h-1.599l-0.853,1.066v1.386
	l0.853,0.853H13.431"/>
<path fill="none" stroke="#7F7F7F" stroke-width="2" d="M17.588,36.675l1.066-0.959V34.33l-1.066-1.066h-1.386l-0.959,1.066v1.386
	l0.959,0.959H17.588"/>
<path fill="none" stroke="#7F7F7F" stroke-width="2" d="M21.852,35.183l0.96-0.853v-1.386l-0.96-1.066h-1.386l-1.065,1.066v1.386
	l1.065,0.853H21.852"/>
<path fill="none" stroke="#7F7F7F" stroke-width="2" d="M8.954,32.305l1.065-0.959v-1.493l-1.065-0.746H7.569l-0.96,0.746v1.493
	l0.96,0.959H8.954"/>
<path fill="none" stroke="#7F7F7F" stroke-width="2" d="M13.431,30.919l0.96-1.066v-1.386l-0.96-0.959h-1.599l-0.853,0.959v1.386
	l0.853,1.066H13.431"/>
<path fill="none" stroke="#7F7F7F" stroke-width="2" d="M17.588,32.305l1.066-0.959v-1.493l-1.066-0.746h-1.386l-0.959,0.746v1.493
	l0.959,0.959H17.588"/>
<path fill="none" stroke="#7F7F7F" stroke-width="2" d="M21.852,30.919l0.96-1.066v-1.386l-0.96-0.959h-1.386l-1.065,0.959v1.386
	l1.065,1.066H21.852"/>
<path fill="none" stroke="#7F7F7F" stroke-width="2" d="M8.954,28.041l1.065-0.96v-1.386L8.954,24.63H7.569l-0.96,1.065v1.386
	l0.96,0.96H8.954"/>
<path fill="none" stroke="#7F7F7F" stroke-width="2" d="M13.431,26.656l0.96-0.96v-1.492l-0.96-0.959h-1.599l-0.853,0.959v1.492
	l0.853,0.96H13.431"/>
<path fill="none" stroke="#7F7F7F" stroke-width="2" d="M17.588,28.041l1.066-0.96v-1.386l-1.066-1.065h-1.386l-0.959,1.065v1.386
	l0.959,0.96H17.588"/>
<path fill="none" stroke="#7F7F7F" stroke-width="2" d="M21.852,26.656l0.96-0.96v-1.492l-0.96-0.959h-1.386l-1.065,0.959v1.492
	l1.065,0.96H21.852"/>
<path fill="none" stroke="#7F7F7F" stroke-width="2" d="M8.954,23.884l1.065-1.066v-1.386l-1.065-0.959H7.569l-0.96,0.959v1.386
	l0.96,1.066H8.954"/>
<path fill="none" stroke="#7F7F7F" stroke-width="2" d="M13.431,22.498l0.96-1.066v-1.386l-0.96-0.959h-1.599l-0.853,0.959v1.386
	l0.853,1.066H13.431"/>
<path fill="none" stroke="#7F7F7F" stroke-width="2" d="M17.588,23.884l1.066-1.066v-1.386l-1.066-0.959h-1.386l-0.959,0.959v1.386
	l0.959,1.066H17.588"/>
<path fill="none" stroke="#7F7F7F" stroke-width="2" d="M21.852,22.498l0.96-1.066v-1.386l-0.96-0.959h-1.386l-1.065,0.959v1.386
	l1.065,1.066H21.852"/>
<path fill="none" stroke="#7F7F7F" stroke-width="2" d="M8.954,99.781l1.065-0.959v-1.386l-1.065-1.066H7.569l-0.96,1.066v1.386
	l0.96,0.959H8.954"/>
<path fill="none" stroke="#7F7F7F" stroke-width="2" d="M13.431,98.182l0.96-0.96v-1.386l-0.96-1.065h-1.599l-0.853,1.065v1.386
	l0.853,0.96H13.431"/>
<path fill="none" stroke="#7F7F7F" stroke-width="2" d="M17.588,99.781l1.066-0.959v-1.386l-1.066-1.066h-1.386l-0.959,1.066v1.386
	l0.959,0.959H17.588"/>
<path fill="none" stroke="#7F7F7F" stroke-width="2" d="M21.852,98.182l0.96-0.96v-1.386l-0.96-1.065h-1.386l-1.065,1.065v1.386
	l1.065,0.96H21.852"/>
<path fill="none" stroke="#7F7F7F" stroke-width="2" d="M8.954,95.623l1.065-1.066v-1.386l-1.065-0.959H7.569l-0.96,0.959v1.386
	l0.96,1.066H8.954"/>
<path fill="none" stroke="#7F7F7F" stroke-width="2" d="M13.431,94.025l0.96-1.066v-1.386l-0.96-0.959h-1.599l-0.853,0.959v1.386
	l0.853,1.066H13.431"/>
<path fill="none" stroke="#7F7F7F" stroke-width="2" d="M17.588,95.623l1.066-1.066v-1.386l-1.066-0.959h-1.386l-0.959,0.959v1.386
	l0.959,1.066H17.588"/>
<path fill="none" stroke="#7F7F7F" stroke-width="2" d="M21.852,94.025l0.96-1.066v-1.386l-0.96-0.959h-1.386l-1.065,0.959v1.386
	l1.065,1.066H21.852"/>
<path fill="none" stroke="#7F7F7F" stroke-width="2" d="M8.954,91.146l1.065-0.959v-1.386l-1.065-1.065H7.569l-0.96,1.065v1.386
	l0.96,0.959H8.954"/>
<path fill="none" stroke="#7F7F7F" stroke-width="2" d="M13.431,89.547l0.96-0.959v-1.279l-0.96-0.96h-1.599l-0.853,0.96v1.279
	l0.853,0.959H13.431"/>
<path fill="none" stroke="#7F7F7F" stroke-width="2" d="M17.588,91.146l1.066-0.959v-1.386l-1.066-1.065h-1.386l-0.959,1.065v1.386
	l0.959,0.959H17.588"/>
<path fill="none" stroke="#7F7F7F" stroke-width="2" d="M21.852,89.547l0.96-0.959v-1.279l-0.96-0.96h-1.386l-1.065,0.96v1.279
	l1.065,0.959H21.852"/>
<path fill="none" stroke="#7F7F7F" stroke-width="2" d="M8.954,86.989l1.065-1.065v-1.386l-1.065-0.96H7.569l-0.96,0.96v1.386
	l0.96,1.065H8.954"/>
<path fill="none" stroke="#7F7F7F" stroke-width="2" d="M13.431,85.39l0.96-1.065v-1.386l-0.96-0.96h-1.599l-0.853,0.96v1.386
	l0.853,1.065H13.431"/>
<path fill="none" stroke="#7F7F7F" stroke-width="2" d="M17.588,86.989l1.066-1.065v-1.386l-1.066-0.96h-1.386l-0.959,0.96v1.386
	l0.959,1.065H17.588"/>
<path fill="none" stroke="#7F7F7F" stroke-width="2" d="M21.852,85.39l0.96-1.065v-1.386l-0.96-0.96h-1.386l-1.065,0.96v1.386
	l1.065,1.065H21.852"/>
<path fill="none" stroke="#7F7F7F" stroke-width="2" d="M8.954,82.725l1.065-0.959V80.38l-1.065-1.066H7.569l-0.96,1.066v1.386
	l0.96,0.959H8.954"/>
<path fill="none" stroke="#7F7F7F" stroke-width="2" d="M13.431,81.126l0.96-0.959v-1.493l-0.96-0.959h-1.599l-0.853,0.959v1.493
	l0.853,0.959H13.431"/>
<path fill="none" stroke="#7F7F7F" stroke-width="2" d="M17.588,82.725l1.066-0.959V80.38l-1.066-1.066h-1.386l-0.959,1.066v1.386
	l0.959,0.959H17.588"/>
<path fill="none" stroke="#7F7F7F" stroke-width="2" d="M21.852,81.126l0.96-0.959v-1.493l-0.96-0.959h-1.386l-1.065,0.959v1.493
	l1.065,0.959H21.852"/>
<path fill="none" stroke="#7F7F7F" stroke-width="2" d="M8.954,78.355l1.065-1.066v-1.172L8.954,75.05H7.569l-0.96,1.066v1.172
	l0.96,1.066H8.954"/>
<path fill="none" stroke="#7F7F7F" stroke-width="2" d="M13.431,76.863l0.96-0.96v-1.386l-0.96-1.065h-1.599l-0.853,1.065v1.386
	l0.853,0.96H13.431"/>
<path fill="none" stroke="#7F7F7F" stroke-width="2" d="M17.588,78.355l1.066-1.066v-1.172l-1.066-1.066h-1.386l-0.959,1.066v1.172
	l0.959,1.066H17.588"/>
<path fill="none" stroke="#7F7F7F" stroke-width="2" d="M21.852,76.863l0.96-0.96v-1.386l-0.96-1.065h-1.386l-1.065,1.065v1.386
	l1.065,0.96H21.852"/>
<path fill="none" stroke="#7F7F7F" stroke-width="2" d="M8.954,74.091l1.065-0.96v-1.492L8.954,70.68H7.569l-0.96,0.959v1.492
	l0.96,0.96H8.954"/>
<path fill="none" stroke="#7F7F7F" stroke-width="2" d="M13.431,72.491l0.96-1.065V70.04l-0.96-0.96h-1.599l-0.853,0.96v1.386
	l0.853,1.065H13.431"/>
<path fill="none" stroke="#7F7F7F" stroke-width="2" d="M17.588,74.091l1.066-0.96v-1.492l-1.066-0.959h-1.386l-0.959,0.959v1.492
	l0.959,0.96H17.588"/>
<path fill="none" stroke="#7F7F7F" stroke-width="2" d="M21.852,72.491l0.96-1.065V70.04l-0.96-0.96h-1.386l-1.065,0.96v1.386
	l1.065,1.065H21.852"/>
<path fill="none" stroke="#7F7F7F" stroke-width="2" d="M8.954,69.827l1.065-0.96v-1.386l-1.065-0.959H7.569l-0.96,0.959v1.386
	l0.96,0.96H8.954"/>
<path fill="none" stroke="#7F7F7F" stroke-width="2" d="M13.431,68.228l0.96-0.959v-1.386l-0.96-1.066h-1.599l-0.853,1.066v1.386
	l0.853,0.959H13.431"/>
<path fill="none" stroke="#7F7F7F" stroke-width="2" d="M17.588,69.827l1.066-0.96v-1.386l-1.066-0.959h-1.386l-0.959,0.959v1.386
	l0.959,0.96H17.588"/>
<path fill="none" stroke="#7F7F7F" stroke-width="2" d="M21.852,68.228l0.96-0.959v-1.386l-0.96-1.066h-1.386l-1.065,1.066v1.386
	l1.065,0.959H21.852"/>
<path fill="none" stroke="#7F7F7F" stroke-width="2" d="M8.954,65.669l1.065-0.959v-1.492l-1.065-0.959H7.569l-0.96,0.959v1.492
	l0.96,0.959H8.954"/>
<path fill="none" stroke="#7F7F7F" stroke-width="2" d="M13.431,64.071l0.96-1.065v-1.386l-0.96-0.96h-1.599l-0.853,0.96v1.386
	l0.853,1.065H13.431"/>
<path fill="none" stroke="#7F7F7F" stroke-width="2" d="M17.588,65.669l1.066-0.959v-1.492l-1.066-0.959h-1.386l-0.959,0.959v1.492
	l0.959,0.959H17.588"/>
<path fill="none" stroke="#7F7F7F" stroke-width="2" d="M21.852,64.071l0.96-1.065v-1.386l-0.96-0.96h-1.386l-1.065,0.96v1.386
	l1.065,1.065H21.852"/>
<path fill="none" stroke="#000000" stroke-width="2" d="M3.624,60.234H26.01"/>
<path fill="none" stroke="#000000" stroke-width="2" d="M3.624,101.806H26.01"/>
<path fill="#CCCCCC" d="M3.944,100.207V20.046h2.239v80.161H3.944z"/>
<path fill="#CCCCCC" d="M23.238,100.207V20.046h2.239v80.161H23.238z"/>
<path fill="#E5E5E5" d="M3.944,100.207h21.533v3.197H3.944V100.207z"/>
<path fill="#E5E5E5" d="M3.944,16.849h21.533v3.197H3.944V16.849z"/>
<path fill="#E5E5E5" d="M3.944,58.634h21.533v3.198H3.944V58.634z"/>
<path fill="none" stroke="#000000" stroke-width="2" d="M6.183,20.046h17.055v38.588H6.183V20.046"/>
<path fill="none" stroke="#000000" stroke-width="2" d="M6.183,61.832h17.055v38.375H6.183V61.832"/>
<path fill="none" stroke="#000000" stroke-width="2" d="M3.944,16.849h21.533v86.556H3.944V16.849"/>
<path fill="#B2B2B2" stroke="#000000" stroke-width="2" d="M4.583,12.584h1.6v4.265h-1.6V12.584z"/>
<path fill="#E5E5E5" stroke="#000000" stroke-width="2" d="M5.543,8.427H2.985l0.959-5.436h2.879L5.543,8.427z"/>
<path fill="#CCCCCC" stroke="#000000" stroke-width="2" d="M25.477,12.584L24.41,7.149l1.066-4.157h-2.665l-1.173,4.157l1.173,5.436
	H25.477z"/>
<path fill="#B2B2B2" stroke="#000000" stroke-width="2" d="M24.837,12.584h-1.6v4.265h1.6V12.584z"/>
<path fill="#E5E5E5" stroke="#000000" stroke-width="2" d="M23.877,8.427h2.559l-0.959-5.436h-2.665L23.877,8.427z"/>
</svg>
