<?xml version="1.0" encoding="utf-8"?>
<!-- Generator: Adobe Illustrator 14.0.0, SVG Export Plug-In . SVG Version: 6.00 Build 43363)  -->
<!DOCTYPE svg PUBLIC "-//W3C//DTD SVG 1.1//EN" "http://www.w3.org/Graphics/SVG/1.1/DTD/svg11.dtd">
<svg version="1.1" id="图层_1" xmlns="http://www.w3.org/2000/svg" xmlns:xlink="http://www.w3.org/1999/xlink" x="0px" y="0px"
	 width="28.461px" height="106.502px" viewBox="0 0 28.461 106.502" enable-background="new 0 0 28.461 106.502"
	 xml:space="preserve">
<path fill="none" stroke="#000000" stroke-width="2" d="M2.985,59.807h22.492"/>
<path fill="none" stroke="#000000" stroke-width="2" d="M2.985,101.807h22.492"/>
<path fill="none" stroke="#000000" stroke-width="2" d="M2.985,18.021h22.492"/>
<path fill="#7F7F7F" d="M3.731,99.248V20.686h2.985v78.563H3.731z"/>
<path fill="#7F7F7F" d="M21.426,99.248V20.686h3.197v78.563H21.426z"/>
<path fill="#7F7F7F" d="M3.731,99.248h20.893v3.198H3.731V99.248z"/>
<path fill="#7F7F7F" d="M3.731,17.381h20.893v3.305H3.731V17.381z"/>
<path fill="#CCCCCC" d="M3.305,100.207V19.619h3.304v80.588H3.305z"/>
<path fill="#CCCCCC" d="M21.639,100.207V19.619h3.198v80.588H21.639z"/>
<path fill="#E5E5E5" d="M3.305,100.207h21.533v3.198H3.305V100.207z"/>
<path fill="#E5E5E5" d="M3.305,16.422h21.533v3.197H3.305V16.422z"/>
<path fill="#E5E5E5" d="M3.305,58.208h21.533v3.197H3.305V58.208z"/>
<path fill="none" stroke="#000000" stroke-width="2" d="M3.305,16.422h21.533v86.983H3.305V16.422"/>
<path fill="none" stroke="#000000" stroke-width="2" d="M6.609,21.858l2.239-2.238h2.132l-4.371,4.264v2.133l6.396-6.396h2.239
	l-8.635,8.635v2.025l10.767-10.66h2.238L6.609,32.518v2.132l15.03-15.03v2.238L6.609,36.675v2.238l15.03-15.03v2.133L6.609,41.153
	v2.238l15.03-15.137v2.025L6.609,45.31v2.238l15.03-15.03v2.132L6.609,49.786v2.025l15.03-15.137v2.238l-15.03,15.03v2.239
	l15.03-15.03v2.238L6.609,58.208h2.239L21.639,45.31v2.238l-10.66,10.66h2.025l8.634-8.422v2.025l-6.396,6.396h2.132l4.264-4.265
	v2.239l-2.025,2.025"/>
<path fill="none" stroke="#999999" stroke-width="2" d="M21.639,21.858l-2.025-2.238h-2.238l4.264,4.264v2.133l-6.396-6.396h-2.025
	l8.421,8.635v2.025l-10.66-10.66H8.848l12.792,12.898v2.132L6.716,19.619v2.238l14.923,14.817v2.238L6.716,23.883v2.133
	l14.923,15.137v2.238L6.716,28.254v2.025l14.923,15.03v2.238L6.716,32.518v2.132l14.923,15.137v2.025L6.716,36.675v2.238
	l14.923,15.03v2.239L6.716,41.153v2.238l14.923,14.817h-2.025L6.716,45.31v2.238l10.66,10.66h-2.132l-8.528-8.422v2.025l6.502,6.396
	h-2.239l-4.264-4.265v2.239l2.132,2.025"/>
<path fill="none" stroke="#000000" stroke-width="2" d="M6.609,19.619h15.03v38.589H6.609V19.619"/>
<path fill="none" stroke="#000000" stroke-width="2" d="M6.609,63.645l2.239-2.239h2.132l-4.371,4.478v2.238l6.396-6.716h2.239
	L6.609,70.04v2.238l10.767-10.873h2.238L6.609,74.518v2.025l15.03-15.138v2.239l-15.03,15.03v2.238l15.03-15.03v2.238L6.609,82.939
	v2.238l15.03-15.137v2.238L6.609,87.415v2.133l15.03-15.03v2.025l-15.03,15.03v2.238l15.03-15.137v2.238L6.609,96.05v1.919
	l15.03-15.03v2.238l-15.03,15.03h2.239l12.792-12.792v2.133l-10.66,10.659h2.025l8.634-8.634v2.238l-6.396,6.396h2.132l4.264-4.157
	v1.919l-2.025,2.238"/>
<path fill="none" stroke="#999999" stroke-width="2" d="M21.639,63.645l-2.025-2.239h-2.238l4.264,4.478v2.238l-6.396-6.716h-2.025
	l8.421,8.635v2.238l-10.66-10.873H8.848l12.792,13.112v2.025L6.716,61.406v2.239l14.923,15.03v2.238L6.716,65.883v2.238
	l14.923,14.817v2.238L6.716,70.04v2.238l14.923,15.137v2.133L6.716,74.518v2.025l14.923,15.03v2.238L6.716,78.675v2.238
	L21.639,96.05v1.919L6.716,82.939v2.238l14.923,15.03h-2.025L6.716,87.415v2.133l10.66,10.659h-2.132l-8.528-8.634v2.238
	l6.502,6.396h-2.239L6.716,96.05v1.919l2.132,2.238"/>
<path fill="none" stroke="#000000" stroke-width="2" d="M6.609,61.406h15.03v38.802H6.609V61.406"/>
<path fill="#B2B2B2" stroke="#000000" stroke-width="2" d="M7.782,2.99h2.025v13.432H7.782V2.99z"/>
<path fill="#B2B2B2" stroke="#000000" stroke-width="2" d="M18.442,2.99h2.238v13.432h-2.238V2.99z"/>
<path fill="#E5E5E5" stroke="#000000" stroke-width="2" d="M7.782,2.99h2.025L8.848,8.853H6.609L7.782,2.99z"/>
<path fill="#E5E5E5" stroke="#000000" stroke-width="2" d="M18.442,2.99h2.238l0.959,5.862h-2.238L18.442,2.99z"/>
</svg>
