<?xml version="1.0" encoding="utf-8"?>
<!-- Generator: Adobe Illustrator 14.0.0, SVG Export Plug-In . SVG Version: 6.00 Build 43363)  -->
<!DOCTYPE svg PUBLIC "-//W3C//DTD SVG 1.1//EN" "http://www.w3.org/Graphics/SVG/1.1/DTD/svg11.dtd">
<svg version="1.1" id="图层_1" xmlns="http://www.w3.org/2000/svg" xmlns:xlink="http://www.w3.org/1999/xlink" x="0px" y="0px"
	 width="81.425px" height="106.502px" viewBox="0 0 81.425 106.502" enable-background="new 0 0 81.425 106.502"
	 xml:space="preserve">
<path fill="#7F7F7F" d="M55.279,103.087l-9.711,0.427H35.75l-9.711-0.427l-8.431-0.747l-7.043-1.174L5.55,99.672l-2.562-1.601
	v-57.52h75.448v57.52l-2.668,1.601l-5.016,1.494l-7.043,1.174L55.279,103.087z"/>
<path fill="#999999" d="M54.105,103.087l-8.964,0.427h-8.965l-8.857-0.427l-7.896-0.747l-6.403-1.174L8.43,99.672l-2.24-1.601
	v-57.52h69.045v57.52l-2.455,1.601l-4.481,1.494l-6.403,1.174L54.105,103.087z"/>
<path fill="#A6A6A6" d="M50.37,103.087l-6.402,0.427h-6.616l-6.403-0.427l-5.656-0.747l-4.695-1.174l-3.415-1.494l-1.601-1.601
	v-57.52h50.156v57.52l-1.601,1.601l-3.415,1.494l-4.695,1.174L50.37,103.087z"/>
<path fill="none" stroke="#000000" stroke-width="2" d="M55.279,103.087l-9.711,0.427H35.75l-9.711-0.427l-8.431-0.747l-7.043-1.174
	L5.55,99.672l-2.562-1.601v-57.52h75.448v57.52l-2.668,1.601l-5.016,1.494l-7.043,1.174L55.279,103.087"/>
<path fill="#7F7F7F" stroke="#000000" stroke-width="2" d="M75.235,40.552h3.201V35.75l-2.668-9.712l-5.016-8.644l-6.829-7.043
	l-8.645-4.803l-9.711-2.562H35.75l-9.711,2.562l-8.644,4.803l-6.83,7.043L5.55,26.038L2.988,35.75v4.802l2.988,0.214v-4.589
	L8.43,27.32l4.589-7.897l6.403-6.402l7.896-4.589l8.857-2.455h8.965l8.964,2.455l7.79,4.589l6.403,6.402l4.695,7.897l2.241,8.857
	V40.552z"/>
<path fill="#B2B2B2" stroke="#000000" stroke-width="2" d="M78.436,98.072l-2.668,1.601l-5.016,1.494l-7.043,1.174l-8.431,0.747
	l-9.711,0.427H35.75l-9.711-0.427l-8.644-0.747l-7.044-1.174L5.55,99.672l-2.562-1.601v-7.79l2.562,1.174l4.802,1.067l7.044,0.747
	l8.644,0.641l9.711,0.213h9.818l9.711-0.213l8.431-0.641l7.043-0.747l5.016-1.067l2.668-1.174V98.072z"/>
<path fill="#B2B2B2" stroke="#000000" stroke-width="2" d="M55.279,53.037l-9.711,0.214H35.75l-9.711-0.214l-8.431-0.427
	l-7.043-0.64L5.55,51.224l-2.562-0.641v-0.96v-8.857l75.448-0.214v10.031l-2.668,0.641l-5.016,0.747l-7.043,0.64L55.279,53.037z"/>
<ellipse fill="#B2B2B2" stroke="#000000" stroke-width="2" cx="40.659" cy="40.658" rx="37.671" ry="3.095"/>
<path fill="none" stroke="#666666" stroke-width="2" d="M21.877,84.625l31.375-25.078"/>
<path fill="none" stroke="#666666" stroke-width="2" d="M24.865,84.625l31.588-25.078"/>
<path fill="none" stroke="#666666" stroke-width="2" d="M28.066,84.625l31.481-25.078"/>
<path fill="none" stroke="#666666" stroke-width="2" d="M31.268,84.625l31.48-25.078"/>
<path fill="none" stroke="#666666" stroke-width="2" d="M46.742,84.625L19.423,62.749"/>
<path fill="none" stroke="#666666" stroke-width="2" d="M43.754,84.625L20.276,65.737"/>
<path fill="none" stroke="#666666" stroke-width="2" d="M40.552,84.625L21.023,68.939"/>
<path fill="none" stroke="#666666" stroke-width="2" d="M37.564,84.625L21.877,72.14"/>
<path fill="none" stroke="#666666" stroke-width="2" d="M68.939,87.827l-12.486-9.392"/>
<path fill="none" stroke="#666666" stroke-width="2" d="M72.14,87.827l-12.593-9.392"/>
<path fill="none" stroke="#666666" stroke-width="2" d="M75.235,87.827l-12.486-9.392"/>
<path fill="#B2B2B2" d="M15.474,53.251h3.201v40.872h-3.201V53.251z"/>
<path fill="#B2B2B2" d="M62.749,53.251h3.202v40.872h-3.202V53.251z"/>
</svg>
