<?xml version="1.0" encoding="utf-8"?>
<!-- Generator: Adobe Illustrator 14.0.0, SVG Export Plug-In . SVG Version: 6.00 Build 43363)  -->
<!DOCTYPE svg PUBLIC "-//W3C//DTD SVG 1.1//EN" "http://www.w3.org/Graphics/SVG/1.1/DTD/svg11.dtd">
<svg version="1.1" id="图层_1" xmlns="http://www.w3.org/2000/svg" xmlns:xlink="http://www.w3.org/1999/xlink" x="0px" y="0px"
	 width="130.702px" height="106.502px" viewBox="0 0 130.702 106.502" enable-background="new 0 0 130.702 106.502"
	 xml:space="preserve">
<path fill="#7F0000" d="M24.989,3.665h10.729v34.802H24.989V3.665z"/>
<path fill="#8F0000" d="M26.036,3.665h8.896v34.802h-8.896V3.665z"/>
<path fill="#9E0000" d="M26.952,3.665h6.934v34.802h-6.934V3.665z"/>
<path fill="#B00000" d="M28.26,3.665h4.71v34.802h-4.71V3.665z"/>
<path fill="#BF0000" d="M29.045,3.665h2.617v34.802h-2.617V3.665z"/>
<path fill="none" stroke="#000000" stroke-width="2" d="M24.989,3.665h10.729v34.802H24.989V3.665"/>
<path fill="none" stroke="#000000" stroke-width="2" d="M6.28,100.089V41.215"/>
<path fill="none" stroke="#000000" stroke-width="2" d="M19.756,38.467v58.875"/>
<path fill="#8C0000" stroke="#000000" stroke-width="2" d="M31.662,24.991h15.045v13.476H31.662V24.991z"/>
<path fill="#7F0000" stroke="#000000" stroke-width="2" d="M49.193,32.972h5.364v5.495h-5.364V32.972z"/>
<path fill="#990000" stroke="#000000" stroke-width="2" d="M51.81,35.72h56.52v2.747H51.81V35.72z"/>
<path fill="#4C0000" stroke="#000000" stroke-width="2" d="M19.756,97.342h85.826v5.495H19.756V97.342z"/>
<path fill="none" stroke="#000000" stroke-width="2" d="M108.33,54.56h18.578v42.782H108.33V54.56"/>
<path fill="#7F0000" stroke="#000000" stroke-width="2" d="M4.841,41.215h12.167v57.696H4.841V41.215z"/>
<path fill="#7F0000" d="M17.008,38.467h91.321V54.56h18.578v42.782H17.008V38.467z"/>
<path fill="#7A0000" d="M17.008,70.782l91.321-21.587v48.146H17.008V70.782z"/>
<path fill="#750000" d="M17.008,73.269l91.321-21.457v45.53H17.008V73.269z"/>
<path fill="#700000" d="M17.008,78.764l91.321-21.719v40.297H17.008V78.764z"/>
<path fill="none" stroke="#000000" stroke-width="2" d="M17.008,38.467h91.321V54.56h18.578v42.782H17.008V38.467"/>
<path fill="#4C0000" d="M103.357,82.95l-1.308,0.523h-1.438l-1.57-0.523l-0.916-0.523l-1.309-1.047l-1.701-5.888l-0.262-1.569
	v-1.439l0.262-1.178l0.785-1.309l0.916-0.915l1.309-0.785l1.439-0.262h1.308l1.439,0.262l1.308,0.785l0.916,0.915l1.832,6.019
	l0.262,1.439v1.309l-0.262,1.438l-0.785,1.178l-1.047,1.047L103.357,82.95z"/>
<circle fill="#8C0000" stroke="#000000" stroke-width="2" cx="100.218" cy="73.4" r="5.364"/>
<path fill="none" stroke="#4C0000" stroke-width="2" d="M108.33,97.342V54.56"/>
<path fill="none" stroke="#B20000" stroke-width="2" d="M108.33,39.645H17.008"/>
<path fill="#4C0000" d="M112.254,58.615h2.747v32.054h-2.747V58.615z"/>
<path fill="#990000" stroke="#4C0000" stroke-width="2" d="M111.077,57.045h2.485v32.315h-2.485V57.045z"/>
<path fill="#7F0000" stroke="#000000" stroke-width="2" d="M4.841,41.215H3.663v58.874h1.178V41.215z"/>
<path fill="#191919" d="M9.158,46.448h5.103v21.588H9.158V46.448z"/>
<path fill="none" stroke="#FFFFFF" stroke-width="2" d="M10.336,49.196h2.747"/>
<path fill="none" stroke="#FFFFFF" stroke-width="2" d="M10.336,50.635h2.747"/>
<path fill="none" stroke="#FFFFFF" stroke-width="2" d="M13.083,53.12h1.178"/>
<path fill="none" stroke="#FFFFFF" stroke-width="2" d="M10.336,55.867h1.308"/>
<path fill="none" stroke="#FFFFFF" stroke-width="2" d="M9.158,62.54h1.178"/>
<path fill="#BF0000" stroke="#000000" stroke-width="2" d="M59.791,35.72l21.588-5.233h2.747v5.233h-2.747v-4.056L63.977,35.72
	H59.791z"/>
<circle fill="#A60000" cx="99.957" cy="72.876" r="3.271"/>
</svg>
