<?xml version="1.0" encoding="utf-8"?>
<!-- Generator: Adobe Illustrator 14.0.0, SVG Export Plug-In . SVG Version: 6.00 Build 43363)  -->
<!DOCTYPE svg PUBLIC "-//W3C//DTD SVG 1.1//EN" "http://www.w3.org/Graphics/SVG/1.1/DTD/svg11.dtd">
<svg version="1.1" id="图层_1" xmlns="http://www.w3.org/2000/svg" xmlns:xlink="http://www.w3.org/1999/xlink" x="0px" y="0px"
	 width="144.749px" height="101.527px" viewBox="0 0 144.749 101.527" enable-background="new 0 0 144.749 101.527"
	 xml:space="preserve">
<path fill="#E0E0E0" d="M19.725,74.26l-0.29-25.382l10.298-9.572l0.87-27.268l98.626,0.58l1.161,68.023l-91.375-1.886l-8.412-4.496
	H19.725z"/>
<path fill="#BF1400" stroke="#000000" stroke-width="2" d="M97.467,79.771h7.977V12.618h-7.977V79.771z"/>
<path fill="#BF1400" stroke="#000000" stroke-width="2" d="M55.985,79.771h7.687V12.618h-7.687V79.771z"/>
<path fill="#E0E0E0" stroke="#000000" stroke-width="2" d="M50.619,87.748l1.16,2.611l1.015,1.885v1.887l-1.015,2.32l-1.596,1.016
	h-2.176l-1.595-1.016l-0.726-1.596V92.68l0.436-0.725l0.58-0.291l0.58,0.291v1.305l0.725,1.596l0.87,0.29l1.306-0.58l0.436-1.306
	l-0.726-2.03l-1.016-1.16l-0.29-1.306l-0.29-1.016v-1.596h2.321V87.748z"/>
<path fill="#B2B2B2" stroke="#000000" stroke-width="2" d="M47.718,87.168h3.191v-1.596h-3.191V87.168z"/>
<path fill="#E0E0E0" stroke="#000000" stroke-width="2" d="M117.627,87.748l-1.596,2.611l-0.58,1.885l-0.436,1.887l1.016,2.32
	l1.886,1.016h1.886l2.03-1.016l0.58-1.596V92.68l-0.29-0.725l-0.58-0.291l-1.016,0.291v1.305l-0.725,1.596l-0.871,0.29l-1.015-0.58
	l-0.58-1.306l0.58-2.03l1.015-1.16l0.581-1.306l0.29-1.016v-1.596h-2.176V87.748z"/>
<path fill="#B2B2B2" stroke="#000000" stroke-width="2" d="M120.237,87.168h-2.9v-1.596h2.9V87.168z"/>
<path fill="#F0F0F0" stroke="#000000" stroke-width="2" d="M42.931,26.107h81.077v2.901H42.931V26.107z"/>
<path fill="#CCCC33" stroke="#000000" stroke-width="2" d="M130.825,20.306h-6.816v51.489h6.816V20.306z"/>
<path fill="#CCCC33" stroke="#000000" stroke-width="2" d="M46.123,20.306h-6.817v51.489h6.817V20.306z"/>
<path fill="#FF9933" stroke="#000000" stroke-width="2" d="M4.061,39.596h21.756v26.396H4.061V39.596z"/>
<path fill="#FF6600" stroke="#000000" stroke-width="2" d="M4.061,39.596h21.756l2.32-1.886h-21.9L4.061,39.596z"/>
<path fill="#FF6600" stroke="#000000" stroke-width="2" d="M28.137,37.71l-2.32,1.886v26.396l2.32-2.32V37.71z"/>
<path fill="#FFFFFF" stroke="#000000" stroke-width="2" d="M6.527,41.191h17.404v7.107H6.527V41.191z"/>
<path fill="#FF0000" d="M7.832,42.497h14.794v1.885H7.832V42.497z"/>
<path d="M7.832,46.413h14.794v-1.306H7.832V46.413z"/>
<path fill="#FF9933" stroke="#000000" stroke-width="2" d="M26.397,75.855V18.13h0.435v57.726H26.397z"/>
<path fill="#FF9933" stroke="#000000" stroke-width="2" d="M27.122,17.55l-0.725,0.58h0.435l0.581-0.58H27.122z"/>
<path fill="#FF9933" stroke="#000000" stroke-width="2" d="M27.703,75.275V17.55l-0.871,0.58v57.726L27.703,75.275z"/>
<path fill="#FF6600" stroke="#000000" stroke-width="2" d="M32.199,75.565V17.84h-4.786v57.726H32.199z"/>
<path fill="#FF6600" stroke="#000000" stroke-width="2" d="M32.634,17.55l-0.435,0.29h-4.786v-0.29H32.634z"/>
<path fill="#FF9933" stroke="#000000" stroke-width="2" d="M31.909,75.855V18.13h0.29v57.726H31.909z"/>
<path fill="#FF9933" stroke="#000000" stroke-width="2" d="M32.634,17.55l-0.725,0.58h0.29l1.015-0.58H32.634z"/>
<path fill="#FF9933" stroke="#000000" stroke-width="2" d="M33.214,75.275V17.55l-1.015,0.58v57.726L33.214,75.275z"/>
<path fill="#FF9933" stroke="#000000" stroke-width="2" d="M17.84,17.84h121.253v-0.725H17.84V17.84z"/>
<path fill="#FF9933" stroke="#000000" stroke-width="2" d="M140.687,16.535l-1.595,1.305v-0.725l1.595-1.596V16.535z"/>
<path fill="#FF9933" stroke="#000000" stroke-width="2" d="M19.435,15.519h121.252l-1.595,1.596H17.84L19.435,15.519z"/>
<path fill="#FF6600" stroke="#000000" stroke-width="2" d="M18.71,5.657h121.397v10.587H18.71V5.657z"/>
<path fill="#FF6600" stroke="#000000" stroke-width="2" d="M140.397,5.221l-0.29,0.436v10.587l0.29-0.435V5.221z"/>
<path fill="#FF9933" stroke="#000000" stroke-width="2" d="M17.84,6.527h121.253v-0.87H17.84V6.527z"/>
<path fill="#FF9933" stroke="#000000" stroke-width="2" d="M140.687,4.931l-1.595,1.596v-0.87l1.595-1.306V4.931z"/>
<path fill="#FF9933" stroke="#000000" stroke-width="2" d="M19.435,4.061h121.252l-1.595,1.596H17.84L19.435,4.061z"/>
<path fill="#FF9933" stroke="#000000" stroke-width="2" d="M36.985,85.863h93.84v-0.58h-93.84V85.863z"/>
<path fill="#FF9933" stroke="#000000" stroke-width="2" d="M132.131,84.558l-1.306,1.306v-0.58l1.306-1.306V84.558z"/>
<path fill="#FF9933" stroke="#000000" stroke-width="2" d="M38,83.978h94.131l-1.306,1.306h-93.84L38,83.978z"/>
<path fill="#FF6600" stroke="#000000" stroke-width="2" d="M37.42,76.291h93.985v8.267H37.42V76.291z"/>
<path fill="#FF6600" stroke="#000000" stroke-width="2" d="M131.841,76.291h-0.436v8.267l0.436-0.29V76.291z"/>
<path fill="#FF9933" stroke="#000000" stroke-width="2" d="M36.985,76.871h93.84v-0.58h-93.84V76.871z"/>
<path fill="#FF9933" stroke="#000000" stroke-width="2" d="M132.131,75.565l-1.306,1.306v-0.58l1.306-1.016V75.565z"/>
<path fill="#FF9933" stroke="#000000" stroke-width="2" d="M38,75.275h94.131l-1.306,1.016h-93.84L38,75.275z"/>
<path fill="#FF6600" stroke="#000000" stroke-width="2" d="M20.015,66.283l2.32,0.58l1.886,1.305l1.306,1.886l0.58,2.321
	l-0.58,2.609l-1.306,1.887l-1.016,1.015l-8.557-8.702l0.87-1.016l2.03-1.305L20.015,66.283z"/>
<circle fill="#FF6600" stroke="#000000" stroke-width="2" cx="19" cy="73.39" r="6.092"/>
<circle cx="19.435" cy="73.39" r="1.595"/>
<path fill="none" stroke="#000000" stroke-width="2" d="M17.115,68.894l2.03-0.435"/>
<path fill="none" stroke="#000000" stroke-width="2" d="M14.649,71.504l0.87-1.74"/>
<path fill="none" stroke="#000000" stroke-width="2" d="M14.649,75.275l-0.29-2.031"/>
<path fill="none" stroke="#000000" stroke-width="2" d="M17.115,77.886l-1.596-1.015"/>
<path fill="none" stroke="#000000" stroke-width="2" d="M21.031,77.886l-1.886,0.58"/>
<path fill="none" stroke="#000000" stroke-width="2" d="M23.496,75.275l-0.87,1.596"/>
<path fill="none" stroke="#000000" stroke-width="2" d="M23.496,71.504l0.726,1.74"/>
<path fill="none" stroke="#000000" stroke-width="2" d="M21.031,68.894l1.595,0.87"/>
<path fill="none" stroke="#000000" stroke-width="2" d="M16.535,70.779l1.305-0.726"/>
<path fill="none" stroke="#000000" stroke-width="2" d="M15.519,73.244v-1.16"/>
<path fill="none" stroke="#000000" stroke-width="2" d="M16.535,75.855l-1.016-0.871"/>
<path fill="none" stroke="#000000" stroke-width="2" d="M19.145,77.16l-1.306-0.289"/>
<path fill="none" stroke="#000000" stroke-width="2" d="M21.611,75.855l-0.87,1.016"/>
<path fill="none" stroke="#000000" stroke-width="2" d="M22.916,73.244l-0.29,1.74"/>
<path fill="none" stroke="#000000" stroke-width="2" d="M21.611,70.779l1.015,1.305"/>
<path fill="none" stroke="#000000" stroke-width="2" d="M19.145,69.764l1.596,0.29"/>
<circle fill="#FF6600" stroke="#000000" stroke-width="2" cx="19.145" cy="73.39" r="1.595"/>
<path fill="#E0E0E0" d="M38.29,68.894h8.413v6.672H38.29V68.894z M39.595,71.068h5.802v2.611h-5.802V71.068z M123.138,68.894h8.267
	v6.672h-8.267V68.894z M124.443,71.068h5.657v2.611h-5.657V71.068z"/>
<path fill="none" stroke="#000000" stroke-width="2" d="M38.29,68.894h8.413v6.672H38.29V68.894"/>
<path fill="none" stroke="#000000" stroke-width="2" d="M39.595,71.068h5.802v2.611h-5.802V71.068"/>
<path fill="none" stroke="#000000" stroke-width="2" d="M123.138,68.894h8.267v6.672h-8.267V68.894"/>
<path fill="none" stroke="#000000" stroke-width="2" d="M124.443,71.068h5.657v2.611h-5.657V71.068"/>
<path fill="#7F7F7F" stroke="#000000" stroke-width="2" d="M124.009,74.984h2.03v0.871h-2.03V74.984z"/>
<path fill="#7F7F7F" stroke="#000000" stroke-width="2" d="M39.305,74.984h2.176v0.871h-2.176V74.984z"/>
<path fill="#7F7F7F" stroke="#000000" stroke-width="2" d="M128.215,74.984h2.176v0.871h-2.176V74.984z"/>
<path fill="#7F7F7F" stroke="#000000" stroke-width="2" d="M43.802,74.984h1.886v0.871h-1.886V74.984z"/>
<path fill="#FF6600" stroke="#000000" stroke-width="2" d="M78.757,34.084h0.725l0.29-0.58V21.611l-0.29-0.58h-0.725H63.382
	l-0.29,6.672l0.29,6.381H78.757z"/>
<path fill="#FF6600" stroke="#000000" stroke-width="2" d="M83.543,34.084h-0.58v-0.58V21.611v-0.58h0.58h15.809l0.29,6.672
	l-0.29,6.381H83.543z"/>
<path fill="#FF6600" stroke="#000000" stroke-width="2" d="M80.351,35.535v-15.81h1.016v15.81H80.351z"/>
<path fill="#FF6600" stroke="#000000" stroke-width="2" d="M80.351,34.084V21.031l-0.58,0.29v12.183L80.351,34.084z"/>
<path fill="#FF6600" stroke="#000000" stroke-width="2" d="M82.092,35.535v-15.81h-0.725v15.81H82.092z"/>
<path fill="#FF6600" stroke="#000000" stroke-width="2" d="M82.092,34.084V21.031l0.871,0.29v12.183L82.092,34.084z"/>
<path fill="#E07A14" stroke="#000000" stroke-width="2" d="M63.382,20.306l-0.29,1.305h15.665h0.435l-0.435-0.87l-0.581-0.435
	H63.382z"/>
<path fill="#E07A14" stroke="#000000" stroke-width="2" d="M63.092,22.046v0.87h16.1v-0.29l-0.435-0.29l-0.581-0.29H63.092z"/>
<path fill="#E07A14" stroke="#000000" stroke-width="2" d="M99.351,20.306v1.305H83.543h-0.29l0.725-0.87l0.29-0.435H99.351z"/>
<path fill="#E07A14" stroke="#000000" stroke-width="2" d="M99.351,22.046v0.87H83.253v-0.29l0.29-0.29l0.725-0.29H99.351z"/>
<path fill="#BF1400" stroke="#000000" stroke-width="2" d="M63.092,27.703v-0.29h15.084l1.306,0.29h-0.29H63.092z"/>
<path fill="#BF1400" stroke="#000000" stroke-width="2" d="M63.092,28.718v0.58h16.1v-0.29l-1.016-0.29H63.092z"/>
<path fill="#BF1400" stroke="#000000" stroke-width="2" d="M63.092,29.733v0.87h16.1l-1.016-0.87H63.092z"/>
<path fill="#BF1400" stroke="#000000" stroke-width="2" d="M63.092,30.893v1.016h16.1l-1.016-1.016H63.092z"/>
<path fill="#BF1400" stroke="#000000" stroke-width="2" d="M63.092,32.199v1.305h16.1v-0.29l-1.016-1.015H63.092z"/>
<path fill="#BF1400" stroke="#000000" stroke-width="2" d="M99.641,27.703v-0.29H84.267l-1.015,0.29H99.641z"/>
<path fill="#BF1400" stroke="#000000" stroke-width="2" d="M99.641,28.718v0.58H83.253v-0.29l1.015-0.29H99.641z"/>
<path fill="#BF1400" stroke="#000000" stroke-width="2" d="M99.641,29.733l-0.29,0.87H83.253l1.015-0.87H99.641z"/>
<path fill="#BF1400" stroke="#000000" stroke-width="2" d="M99.351,30.893v1.016H83.253l1.015-1.016H99.351z"/>
<path fill="#BF1400" stroke="#000000" stroke-width="2" d="M99.351,32.199v1.305H83.253v-0.29l1.015-1.015H99.351z"/>
<path fill="#FF9933" stroke="#000000" stroke-width="2" d="M99.351,23.206v1.016H83.253v-0.291l1.015-0.725H99.351z"/>
<path fill="#FF9933" stroke="#000000" stroke-width="2" d="M99.351,24.512l0.29,1.015H83.253v-0.29l1.015-0.725H99.351z"/>
<path fill="#FF9933" stroke="#000000" stroke-width="2" d="M99.641,25.817v1.015H83.253v-0.435l1.015-0.58H99.641z"/>
<path fill="#FF9933" stroke="#000000" stroke-width="2" d="M63.092,23.206v1.016h16.1v-0.291l-1.016-0.725H63.092z"/>
<path fill="#FF9933" stroke="#000000" stroke-width="2" d="M63.092,24.512v1.015h16.1v-0.29l-1.016-0.725H63.092z"/>
<path fill="#FF9933" stroke="#000000" stroke-width="2" d="M63.092,25.817v1.015h16.1v-0.435l-1.016-0.58H63.092z"/>
<path fill="#F0F0F0" stroke="#000000" stroke-width="2" d="M80.061,34.809v-0.29h0.29v0.29H80.061z"/>
<path fill="#F0F0F0" stroke="#000000" stroke-width="2" d="M80.061,20.015v0.726h0.29v-0.726H80.061z"/>
<path fill="#F0F0F0" stroke="#000000" stroke-width="2" d="M80.061,23.931v0.291h0.29v-0.291H80.061z"/>
<path fill="#F0F0F0" stroke="#000000" stroke-width="2" d="M80.061,27.703v0.725h0.29v-0.725H80.061z"/>
<path fill="#F0F0F0" stroke="#000000" stroke-width="2" d="M80.061,31.619v0.29h0.29v-0.29H80.061z"/>
<path fill="#F0F0F0" stroke="#000000" stroke-width="2" d="M82.383,34.809v-0.29h-0.291v0.29H82.383z"/>
<path fill="#F0F0F0" stroke="#000000" stroke-width="2" d="M82.383,20.015v0.726h-0.291v-0.726H82.383z"/>
<path fill="#F0F0F0" stroke="#000000" stroke-width="2" d="M82.383,23.931v0.291h-0.291v-0.291H82.383z"/>
<path fill="#F0F0F0" stroke="#000000" stroke-width="2" d="M82.383,27.703v0.725h-0.291v-0.725H82.383z"/>
<path fill="#F0F0F0" stroke="#000000" stroke-width="2" d="M82.383,31.619v0.29h-0.291v-0.29H82.383z"/>
<path stroke="#000000" stroke-width="2" d="M60.481,31.909v-8.993l0.29-1.885l0.726-0.725h1.885v14.213h-1.885l-0.726-1.015
	L60.481,31.909z"/>
<path stroke="#000000" stroke-width="2" d="M101.817,31.909v-8.993l-0.29-1.885l-0.58-0.725h-1.596v14.213h1.596l0.58-1.015
	L101.817,31.909z"/>
</svg>
