<?xml version="1.0" encoding="utf-8"?>
<!-- Generator: Adobe Illustrator 14.0.0, SVG Export Plug-In . SVG Version: 6.00 Build 43363)  -->
<!DOCTYPE svg PUBLIC "-//W3C//DTD SVG 1.1//EN" "http://www.w3.org/Graphics/SVG/1.1/DTD/svg11.dtd">
<svg version="1.1" id="图层_1" xmlns="http://www.w3.org/2000/svg" xmlns:xlink="http://www.w3.org/1999/xlink" x="0px" y="0px"
	 width="106.502px" height="106.502px" viewBox="0 0 106.502 106.502" enable-background="new 0 0 106.502 106.502"
	 xml:space="preserve">
<path fill="#CC3300" stroke="#000000" stroke-width="2" d="M57.462,17.59h8.422v50.32h-8.422V17.59z"/>
<path fill="#D94000" stroke="#000000" stroke-width="2" d="M82.515,17.59h6.29v25.16h-6.29V17.59z"/>
<path fill="#D94000" stroke="#000000" stroke-width="2" d="M21.855,55.224h25.053V17.59H42.75v33.369H21.855V55.224z"/>
<path fill="#7F7F7F" d="M51.172,17.59h4.265v85.928h-4.265V17.59z"/>
<path fill="#B2B2B2" d="M52.025,17.59h2.345v85.928h-2.345V17.59z"/>
<path fill="#FFFFFF" d="M52.771,17.59h0.853v85.928h-0.853V17.59z"/>
<path fill="none" stroke="#000000" stroke-width="2" d="M51.172,17.59h4.265v85.928h-4.265V17.59"/>
<path fill="#7F7F7F" d="M67.91,17.59h4.158v85.928H67.91V17.59z"/>
<path fill="#B2B2B2" d="M68.656,17.59h2.666v85.928h-2.666V17.59z"/>
<path fill="#FFFFFF" d="M69.722,17.59h0.533v85.928h-0.533V17.59z"/>
<path fill="none" stroke="#000000" stroke-width="2" d="M67.91,17.59h4.158v85.928H67.91V17.59"/>
<path fill="#194C19" d="M103.517,15.352h-4.264v-4.158h4.264V15.352z"/>
<path fill="#194C19" d="M7.143,15.352H2.878v-4.158h4.264V15.352z"/>
<path fill="#CCCC33" stroke="#000000" stroke-width="2" d="M38.486,17.59h6.503v64.925h-6.503V17.59z"/>
<path fill="#CCCC33" stroke="#000000" stroke-width="2" d="M76.332,17.59h6.184v64.925h-6.184V17.59z"/>
<path fill="#FF6600" stroke="#000000" stroke-width="2" d="M48.934,101.279h25.16v2.239h-25.16V101.279z"/>
<path fill="#FF7D26" d="M51.172,67.91h25.159v20.895H51.172V67.91z"/>
<path fill="#FF6600" stroke="#000000" stroke-width="2" d="M46.908,17.59h4.264v71.215h-4.264V17.59z"/>
<path fill="#E54C00" stroke="#000000" stroke-width="2" d="M9.168,11.407h85.82v6.183H9.168V11.407z"/>
<path fill="#FF6600" stroke="#000000" stroke-width="2" d="M15.565,88.805h81.663v4.158H15.565V88.805z"/>
<path fill="#FF6600" stroke="#000000" stroke-width="2" d="M13.433,57.462h4.158v20.896h-4.158V57.462z"/>
<path fill="#FF6600" stroke="#000000" stroke-width="2" d="M15.565,11.407h6.29v43.816h-6.29V11.407z"/>
<path fill="#FF6600" d="M2.878,2.878h100.639v8.529H2.878V2.878z"/>
<path fill="#FF6600" d="M2.878,38.486h16.738v18.977H2.878V38.486z"/>
<path fill="#336633" d="M103.517,15.352h-4.264v-1.919h4.264V15.352z"/>
<path fill="#336633" d="M7.143,15.352H2.878v-1.919h4.264V15.352z"/>
<path fill="none" stroke="#000000" stroke-width="2" d="M99.253,11.407h4.264v3.944h-4.264V11.407"/>
<path fill="none" stroke="#000000" stroke-width="2" d="M2.878,11.407h4.264v3.944H2.878V11.407"/>
<path fill="#FF8C40" d="M51.172,80.277h25.159v8.528H51.172V80.277z"/>
<path fill="none" stroke="#000000" stroke-width="2" d="M51.172,67.91h25.159v20.895H51.172V67.91"/>
<circle fill="#E54C00" stroke="#000000" stroke-width="2" cx="5.97" cy="60.554" r="3.092"/>
<path fill="#E5E5E5" d="M5.117,38.486H17.59v8.422H5.117V38.486z"/>
<path fill="none" stroke="#000000" stroke-width="2" d="M2.878,38.486h16.738v18.977H2.878V38.486"/>
<path fill="#999999" stroke="#000000" stroke-width="2" d="M38.486,88.805h6.503v-6.29h-6.503V88.805z"/>
<path fill="#999999" stroke="#000000" stroke-width="2" d="M76.332,88.805h6.184v-6.29h-6.184V88.805z"/>
<path fill="#999999" stroke="#000000" stroke-width="2" d="M38.486,80.277h6.503v-1.919h-6.503V80.277z"/>
<path fill="#999999" stroke="#000000" stroke-width="2" d="M76.332,80.277h6.184v-1.919h-6.184V80.277z"/>
<path fill="#7F7F7F" d="M92.962,30.064v2.239H21.855v-2.239H92.962z"/>
<path fill="#B2B2B2" d="M92.962,30.49v1.386H21.855V30.49H92.962z"/>
<path fill="#FFFFFF" d="M92.962,31.024v0.426H21.855v-0.426H92.962z"/>
<path fill="none" stroke="#000000" stroke-width="2" d="M92.962,30.064v2.239H21.855v-2.239H92.962"/>
<path fill="#B21900" d="M48.934,23.88h29.423v14.605H48.934V23.88z"/>
<path fill="#C22900" d="M48.934,25.053h29.423v12.26H48.934V25.053z"/>
<path fill="#D13800" d="M48.934,26.226h29.423v9.701H48.934V26.226z"/>
<path fill="#E04700" d="M48.934,27.399h29.423v7.249H48.934V27.399z"/>
<path fill="#F05700" d="M48.934,28.891h29.423v4.584H48.934V28.891z"/>
<path fill="#FF6600" d="M48.934,30.064h29.423v2.239H48.934V30.064z"/>
<path fill="none" stroke="#000000" stroke-width="2" d="M48.934,23.88h29.423v14.605H48.934V23.88"/>
<path fill="#7F7F7F" d="M86.78,13.433v2.132H21.855v-2.132H86.78z"/>
<path fill="#B2B2B2" d="M86.78,13.752v1.279H21.855v-1.279H86.78z"/>
<path fill="#FFFFFF" d="M86.78,14.179v0.427H21.855v-0.427H86.78z"/>
<path fill="none" stroke="#000000" stroke-width="2" d="M86.78,13.433v2.132H21.855v-2.132H86.78"/>
<path fill="#FF6600" stroke="#000000" stroke-width="2" d="M86.78,11.407h8.209V36.46H86.78V11.407z"/>
<path fill="#D94000" d="M2.878,4.904h100.639v4.265H2.878V4.904z"/>
<path fill="none" stroke="#000000" stroke-width="2" d="M2.878,2.878h100.639v8.529H2.878V2.878"/>
<path fill="#FFCC00" d="M13.433,50.959h4.158v4.265h-4.158V50.959z"/>
<path fill="#333333" d="M54.796,72.92h17.911v6.61H54.796V72.92z"/>
<path fill="#FF6600" stroke="#000000" stroke-width="2" d="M55.437,74.093h16.631v4.265H55.437V74.093z"/>
<path fill="#FF6600" d="M55.437,73.453h16.631v5.544H55.437V73.453z"/>
<path fill="#333333" d="M33.049,89.232h61.407v3.198H33.049V89.232z"/>
<path fill="#FF6600" d="M33.902,89.658H93.39v2.132H33.902V89.658z"/>
</svg>
