<?xml version="1.0" encoding="utf-8"?>
<!-- Generator: Adobe Illustrator 14.0.0, SVG Export Plug-In . SVG Version: 6.00 Build 43363)  -->
<!DOCTYPE svg PUBLIC "-//W3C//DTD SVG 1.1//EN" "http://www.w3.org/Graphics/SVG/1.1/DTD/svg11.dtd">
<svg version="1.1" id="图层_1" xmlns="http://www.w3.org/2000/svg" xmlns:xlink="http://www.w3.org/1999/xlink" x="0px" y="0px"
	 width="64.39px" height="106.502px" viewBox="0 0 64.39 106.502" enable-background="new 0 0 64.39 106.502" xml:space="preserve">
<path fill="#4C4C4C" d="M2.985,32.09h3.411v9.274l51.384,0.214V32.09h3.625v41.043H57.78v-9.488H6.396v9.488H2.985V32.09z"/>
<path fill="#595959" d="M2.985,35.075h3.624v7.889l51.384,0.213v-8.102h3.412v34.966h-3.412v-7.782H6.609v7.782H2.985V35.075z"/>
<path fill="#666666" d="M2.985,37.953h3.624v6.609l51.384,0.213v-6.822h3.412V67.27h-3.412V60.66H6.609v6.609H2.985V37.953z"/>
<path fill="#737373" d="M2.985,40.939h3.624v5.224l51.384,0.213v-5.437h3.412v23.346h-3.412v-5.224H6.609v5.224H2.985V40.939z"/>
<path fill="#7F7F7F" d="M2.985,43.923h3.624v3.838h51.384v-3.838h3.412v17.271h-3.412v-3.731H6.609v3.731H2.985V43.923z"/>
<path fill="#8C8C8C" d="M2.985,46.802h3.624v2.558h51.384v-2.558h3.412v11.619h-3.412v-2.665H6.609v2.665H2.985V46.802z"/>
<path fill="#999999" d="M2.985,49.786h3.411v1.173l51.384,0.213v-1.386h3.625v5.757H57.78v-1.279H6.396v1.279H2.985V49.786z"/>
<path fill="none" stroke="#000000" stroke-width="2" d="M2.985,32.09h3.411v9.274l51.384,0.214V32.09h3.625v41.043H57.78v-9.488
	H6.396v9.488H2.985V32.09"/>
<path fill="#999999" d="M13.432,15.78h37.312v84.218H13.432V15.78z"/>
<path fill="#949494" d="M13.432,75.479l37.312-35.18v59.698H13.432V75.479z"/>
<path fill="#8F8F8F" d="M13.432,79.103l37.312-35.18v56.074H13.432V79.103z"/>
<path fill="#8A8A8A" d="M13.432,84.326l37.312-35.18v50.851H13.432V84.326z"/>
<path fill="none" stroke="#000000" stroke-width="2" d="M13.432,15.78h37.312v84.218H13.432V15.78"/>
<path fill="#999999" stroke="#000000" stroke-width="2" d="M8.742,99.997h46.8v3.412h-46.8V99.997z"/>
<path fill="#F2F2F2" stroke="#7F7F7F" stroke-width="2" d="M22.813,52.026h18.763v14.071H22.813V52.026z"/>
<path fill="#7F7F7F" stroke="#000000" stroke-width="2" d="M20.469,12.368V2.987h23.453v9.382h-3.625V6.398H23.986v5.971H20.469z"/>
<path fill="#333333" stroke="#000000" stroke-width="2" d="M11.193,12.368V8.743h-1.172V7.571h7.035v1.173h-1.279v3.625H11.193z"/>
<path fill="#333333" stroke="#000000" stroke-width="2" d="M48.612,12.368V8.743h-1.279V7.571h7.036v1.173h-1.173v3.625H48.612z"/>
<path fill="#333333" stroke="#000000" stroke-width="2" d="M22.813,12.368V8.743h-1.172V7.571h7.035v1.173h-1.279v3.625H22.813z"/>
<path fill="#333333" stroke="#000000" stroke-width="2" d="M36.885,12.368V8.743h-1.173V7.571h7.036v1.173h-1.173v3.625H36.885z"/>
<path fill="#7F7F7F" d="M13.432,18.232h37.312V15.78H13.432V18.232z"/>
<path fill="#999999" stroke="#000000" stroke-width="2" d="M8.742,12.368h46.8v3.411h-46.8V12.368z"/>
<path fill="#E5E5E5" d="M31.129,53.198h9.168v4.584h-9.168V53.198z"/>
</svg>
