<?xml version="1.0" encoding="utf-8"?>
<!-- Generator: Adobe Illustrator 14.0.0, SVG Export Plug-In . SVG Version: 6.00 Build 43363)  -->
<!DOCTYPE svg PUBLIC "-//W3C//DTD SVG 1.1//EN" "http://www.w3.org/Graphics/SVG/1.1/DTD/svg11.dtd">
<svg version="1.1" id="图层_1" xmlns="http://www.w3.org/2000/svg" xmlns:xlink="http://www.w3.org/1999/xlink" x="0px" y="0px"
	 width="92.643px" height="106.502px" viewBox="0 0 92.643 106.502" enable-background="new 0 0 92.643 106.502"
	 xml:space="preserve">
<path fill="#99CC99" d="M2.985,35.395h54.264v67.376H2.985V35.395z"/>
<path fill="#94C794" d="M2.985,83.048L57.248,55.01v47.761H2.985V83.048z"/>
<path fill="#8FC28F" d="M2.985,86.033l54.264-28.145v44.882H2.985V86.033z"/>
<path fill="#8ABD8A" d="M2.985,90.084l54.264-28.038v40.725H2.985V90.084z"/>
<path fill="none" stroke="#000000" stroke-width="2" d="M2.985,35.395h54.264v67.376H2.985V35.395"/>
<path fill="#8ABD8A" stroke="#000000" stroke-width="2" d="M2.985,35.181h54.478L89.657,2.986H41.684L2.985,35.181z"/>
<path fill="#669966" stroke="#000000" stroke-width="2" d="M89.657,2.986L57.462,35.181v67.59l32.195-39.231V2.986z"/>
<path fill="none" stroke="#333333" stroke-width="2" d="M5.117,46.801h50.426v55.97H5.117V46.801"/>
<path fill="#E0E0E0" stroke="#666666" stroke-width="2" d="M29.104,46.801h2.133v55.97h-2.133V46.801z"/>
<path fill="#7F7F7F" stroke="#000000" stroke-width="2" d="M26.652,74.093v3.198l0.533,0.213v1.493l-0.533,0.213H25.48l-0.533-0.213
	v-1.493l0.533-0.213v-3.198l-0.533-0.427v-1.172l0.533-0.32h1.172l0.533,0.32v1.172L26.652,74.093z"/>
<path fill="#7F7F7F" stroke="#000000" stroke-width="2" d="M34.967,74.093v3.198l0.214,0.213v1.493l-0.214,0.213h-1.492
	l-0.319-0.213v-1.493l0.319-0.213h0.213v-3.198h-0.213l-0.319-0.427v-1.172l0.319-0.32h1.492l0.214,0.32v1.172L34.967,74.093z"/>
<path fill="#F0F0F0" stroke="#000000" stroke-width="2" d="M32.942,98.826h1.493v0.746h0.213v2.452h-2.132v-2.452h0.426V98.826z"/>
<path stroke="#000000" stroke-width="2" d="M32.942,100.319h1.493v2.879v0.213h-1.493v-0.213V100.319z"/>
<path fill="#F0F0F0" stroke="#000000" stroke-width="2" d="M26.226,98.826h1.386v0.746h0.319v2.452h-2.238v-2.452h0.533V98.826z"/>
<path stroke="#000000" stroke-width="2" d="M26.226,100.319h1.386v2.879v0.213h-1.386v-0.213V100.319z"/>
<path fill="none" stroke="#7F7F7F" stroke-width="2" d="M11.194,47.015v55.223"/>
<path fill="none" stroke="#7F7F7F" stroke-width="2" d="M38.805,47.015v55.223"/>
<path fill="none" stroke="#7F7F7F" stroke-width="2" d="M21.642,47.015v55.223"/>
<path fill="none" stroke="#7F7F7F" stroke-width="2" d="M49.147,47.015v55.223"/>
<path fill="none" stroke="#000000" stroke-width="2" d="M10.235,29.318h52.984v66.204"/>
<path fill="none" stroke="#000000" stroke-width="2" d="M19.829,21.323h51.172V85.82"/>
<path fill="none" stroke="#000000" stroke-width="2" d="M28.891,13.86h49.572v62.686"/>
<path fill="none" stroke="#000000" stroke-width="2" d="M37.1,7.036h48.72v60.767"/>
<path fill="#CCCCCC" stroke="#000000" stroke-width="2" d="M61.3,59.914h3.198v16.418H61.3V59.914z"/>
<path fill="#CCCCCC" stroke="#000000" stroke-width="2" d="M61.3,59.914h3.198l5.33-5.33H66.63L61.3,59.914z"/>
<path fill="#7F7F7F" stroke="#000000" stroke-width="2" d="M69.828,54.584l-5.33,5.33v16.418l5.33-5.544V54.584z"/>
<path stroke="#000000" stroke-width="2" d="M67.376,60.554l0.427,0.533v1.173v1.492l-0.427,0.427l-0.533-0.427L66.63,62.26
	l0.213-1.173L67.376,60.554z"/>
<path stroke="#000000" stroke-width="2" d="M67.376,66.204l0.427,0.426v1.173v1.493l-0.427,0.532l-0.533-0.532l-0.213-1.493
	l0.213-1.173L67.376,66.204z"/>
<path fill="#00FF00" stroke="#000000" stroke-width="2" d="M67.376,60.767l0.213,0.533l0.214,0.96l-0.214,1.279l-0.213,0.213
	l-0.319-0.213l-0.214-1.279l0.214-0.96L67.376,60.767z"/>
<path fill="#FF0000" stroke="#000000" stroke-width="2" d="M67.376,66.417l0.213,0.427l0.214,0.959l-0.214,1.279l-0.213,0.214
	l-0.319-0.214l-0.214-1.279l0.214-0.959L67.376,66.417z"/>
<path fill="#7F7F7F" stroke="#000000" stroke-width="2" d="M80.169,7.782L78.996,8.53l-3.624,0.213L71.747,8.53l-1.492-0.747V3.945
	h9.914V7.782z"/>
<path stroke="#000000" stroke-width="2" d="M75.372,3.198l3.624,0.214l1.386,0.532l-1.386,0.64l-3.624,0.32l-3.625-0.32l-1.492-0.64
	l1.492-0.532L75.372,3.198z"/>
<path fill="none" stroke="#FFFFFF" stroke-width="2" d="M19.615,43.177v-4.584h20.896"/>
<path fill="none" stroke="#669966" stroke-width="2" d="M19.615,43.177h20.896v-4.584"/>
</svg>
