<?xml version="1.0" encoding="utf-8"?>
<!-- Generator: Adobe Illustrator 14.0.0, SVG Export Plug-In . SVG Version: 6.00 Build 43363)  -->
<!DOCTYPE svg PUBLIC "-//W3C//DTD SVG 1.1//EN" "http://www.w3.org/Graphics/SVG/1.1/DTD/svg11.dtd">
<svg version="1.1" id="图层_1" xmlns="http://www.w3.org/2000/svg" xmlns:xlink="http://www.w3.org/1999/xlink" x="0px" y="0px"
	 width="144.749px" height="104.76px" viewBox="0 0 144.749 104.76" enable-background="new 0 0 144.749 104.76"
	 xml:space="preserve">
<path fill="#CCCCCC" d="M4.057,16.809H123.16v83.894H4.057V16.809z"/>
<path fill="#C7C7C7" d="M4.057,76.36L123.16,41.441v59.262H4.057V76.36z"/>
<path fill="#C2C2C2" d="M4.057,79.983L123.16,44.918v55.784H4.057V79.983z"/>
<path fill="#BDBDBD" d="M4.057,85.198L123.16,50.134v50.568H4.057V85.198z"/>
<path fill="none" stroke="#000000" stroke-width="2" d="M4.057,16.809H123.16v83.894H4.057V16.809"/>
<path fill="none" stroke="#B2B2B2" stroke-width="2" d="M109.684,21.446v74.62"/>
<path fill="#B2B2B2" stroke="#000000" stroke-width="2" d="M123.16,16.809l17.387-8.404v83.604l-17.387,8.694V16.809z"/>
<path fill="#E5E5E5" stroke="#000000" stroke-width="2" d="M123.16,16.809l17.387-8.404H21.444L4.057,16.809H123.16z"/>
<path fill="#E5E5E5" stroke="#000000" stroke-width="2" d="M17.387,12.751L34.92,4.058v4.347l-17.532,8.404V12.751z"/>
<path fill="none" stroke="#B2B2B2" stroke-width="2" d="M96.644,21.446v74.62"/>
<path fill="none" stroke="#B2B2B2" stroke-width="2" d="M83.169,21.446v74.62"/>
<path fill="none" stroke="#B2B2B2" stroke-width="2" d="M70.129,21.446v74.62"/>
<path fill="none" stroke="#B2B2B2" stroke-width="2" d="M56.653,21.446v74.62"/>
<path fill="none" stroke="#B2B2B2" stroke-width="2" d="M43.613,21.446v74.62"/>
<path fill="none" stroke="#B2B2B2" stroke-width="2" d="M30.573,21.446v74.62"/>
<path fill="none" stroke="#B2B2B2" stroke-width="2" d="M17.387,21.446v74.62"/>
<path fill="#7F6565" stroke="#FFFFFF" stroke-width="2" d="M26.081,25.792h44.048v8.838H26.081V25.792z"/>
<path fill="#E5E5E5" d="M30.573,28.545h35.209v3.043H30.573V28.545z"/>
<circle fill="#D9D9D9" cx="17.097" cy="43.324" r="4.347"/>
<path fill="none" stroke="#FFFFFF" stroke-width="2" d="M13.62,46.077l-0.579-1.159l-0.29-1.015v-1.159l0.29-1.014l0.579-1.159
	l0.725-0.725l1.159-0.58l1.015-0.289h1.159l1.304,0.289l0.869,0.58l0.869,0.725"/>
<path fill="none" stroke="#999999" stroke-width="2" d="M20.719,40.572l0.435,1.159l0.29,1.014v1.159l-0.29,1.015l-0.435,1.159
	l-0.869,0.869l-0.869,0.435l-1.304,0.29h-1.159l-1.015-0.29l-1.159-0.435l-0.725-0.869"/>
</svg>
