<?xml version="1.0" encoding="utf-8"?>
<!-- Generator: Adobe Illustrator 14.0.0, SVG Export Plug-In . SVG Version: 6.00 Build 43363)  -->
<!DOCTYPE svg PUBLIC "-//W3C//DTD SVG 1.1//EN" "http://www.w3.org/Graphics/SVG/1.1/DTD/svg11.dtd">
<svg version="1.1" id="图层_1" xmlns="http://www.w3.org/2000/svg" xmlns:xlink="http://www.w3.org/1999/xlink" x="0px" y="0px"
	 width="105.005px" height="106.502px" viewBox="0 0 105.005 106.502" enable-background="new 0 0 105.005 106.502"
	 xml:space="preserve">
<path d="M3.518,102.023h97.755v1.492H3.518V102.023z"/>
<path fill="#B2B2B2" d="M2.879,2.881h99.142v99.142H2.879V2.881z"/>
<path fill="#ADADAD" d="M2.879,73.346l99.142-41.469v70.146H2.879V73.346z"/>
<path fill="#A8A8A8" d="M2.879,77.503l99.142-41.362v65.882H2.879V77.503z"/>
<path fill="#A3A3A3" d="M2.879,83.58l99.142-41.47v59.912H2.879V83.58z"/>
<path fill="none" stroke="#000000" stroke-width="2" d="M2.879,2.881h99.142v99.142H2.879V2.881"/>
<path fill="#E5E5E5" d="M40.083,4.373h24.732v10.98H40.083V4.373z"/>
<path fill="none" stroke="#CCCCCC" stroke-width="2" d="M21.001,20.79v78.461"/>
<path fill="none" stroke="#CCCCCC" stroke-width="2" d="M36.672,20.79v78.461"/>
<path fill="none" stroke="#CCCCCC" stroke-width="2" d="M68.333,20.79v78.461"/>
<path fill="none" stroke="#CCCCCC" stroke-width="2" d="M84.004,20.79v78.461"/>
<path fill="#CCCCCC" d="M49.784,19.405h5.437v81.232h-5.437V19.405z"/>
<path fill="#7F7F7F" d="M45.52,66.31h2.878v8.209H45.52V66.31z"/>
<path fill="none" stroke="#E5E5E5" stroke-width="2" d="M45.52,74.519V66.31h2.878"/>
<path fill="none" stroke="#000000" stroke-width="2" d="M48.398,66.31v8.209H45.52"/>
<path fill="#7F7F7F" d="M56.606,66.31h2.772v8.209h-2.772V66.31z"/>
<path fill="none" stroke="#E5E5E5" stroke-width="2" d="M56.606,74.519V66.31h2.772"/>
<path fill="none" stroke="#000000" stroke-width="2" d="M59.379,66.31v8.209h-2.772"/>
<path fill="#7F7F7F" d="M96.583,22.282h1.279v5.33h-1.279V22.282z"/>
<path fill="#7F7F7F" d="M96.583,92.428h1.279v5.65h-1.279V92.428z"/>
<path fill="#7F7F7F" d="M96.583,70.468h1.279v5.437h-1.279V70.468z"/>
<path fill="#7F7F7F" d="M96.583,45.523h1.279v5.649h-1.279V45.523z"/>
<path fill="#7F7F7F" d="M7.142,22.282h1.173v5.33H7.142V22.282z"/>
<path fill="#7F7F7F" d="M7.142,92.428h1.173v5.65H7.142V92.428z"/>
<path fill="#7F7F7F" d="M7.142,70.468h1.173v5.437H7.142V70.468z"/>
<path fill="#7F7F7F" d="M7.142,45.523h1.173v5.649H7.142V45.523z"/>
<path fill="none" stroke="#CCCCCC" stroke-width="2" d="M8.315,100.637V19.405h88.268"/>
<path fill="none" stroke="#4C4C4C" stroke-width="2" d="M8.315,100.637h88.268V19.405"/>
<path fill="none" stroke="#999999" stroke-width="2" d="M20.255,20.79v78.461"/>
<path fill="none" stroke="#999999" stroke-width="2" d="M35.926,20.79v78.461"/>
<path fill="none" stroke="#999999" stroke-width="2" d="M67.48,20.79v78.461"/>
<path fill="none" stroke="#999999" stroke-width="2" d="M83.364,20.79v78.461"/>
<path fill="none" stroke="#7F7F7F" stroke-width="2" d="M49.784,100.637V19.405"/>
<path fill="#E5E5E5" stroke="#7F7F7F" stroke-width="2" d="M48.398,20.79l-1.386-2.771v-1.386h10.98v1.386l-1.387,2.771
	l-2.771-1.386H51.17L48.398,20.79z"/>
<path fill="#B2B2B2" d="M48.398,20.79l2.771-1.386h2.665l2.771,1.386v-2.771h-2.771l-1.492,1.386l-1.173-1.386h-2.771V20.79z"/>
<path fill="#333333" d="M49.784,103.515h-2.025v-6.93h2.025V103.515z"/>
<path fill="#4C4C4C" d="M49.784,103.088h-2.025v-6.076h2.025V103.088z"/>
<path fill="#666666" d="M49.784,102.236h-2.025v-4.584h2.025V102.236z"/>
<path fill="#7F7F7F" d="M49.784,101.277h-2.025v-2.665h2.025V101.277z"/>
<path fill="none" stroke="#000000" stroke-width="2" d="M49.784,103.515h-2.025v-6.93h2.025V103.515"/>
<path fill="#B2B2B2" stroke="#000000" stroke-width="2" d="M46.373,95.199h4.051v1.386h-4.051V95.199z"/>
<path fill="#CCCCCC" stroke="#000000" stroke-width="2" d="M48.398,95.199h1.386V89.55h-1.386V95.199z"/>
<path fill="#333333" d="M55.22,103.515h2.025v-6.93H55.22V103.515z"/>
<path fill="#4C4C4C" d="M55.22,103.088h2.025v-6.076H55.22V103.088z"/>
<path fill="#666666" d="M55.22,102.236h2.025v-4.584H55.22V102.236z"/>
<path fill="#7F7F7F" d="M55.22,101.277h2.025v-2.665H55.22V101.277z"/>
<path fill="none" stroke="#000000" stroke-width="2" d="M55.22,103.515h2.025v-6.93H55.22V103.515"/>
<path fill="#B2B2B2" stroke="#000000" stroke-width="2" d="M58.633,95.199h-4.052v1.386h4.052V95.199z"/>
<path fill="#CCCCCC" stroke="#000000" stroke-width="2" d="M56.606,95.199H55.22V89.55h1.386V95.199z"/>
</svg>
