<?xml version="1.0" encoding="utf-8"?>
<!-- Generator: Adobe Illustrator 14.0.0, SVG Export Plug-In . SVG Version: 6.00 Build 43363)  -->
<!DOCTYPE svg PUBLIC "-//W3C//DTD SVG 1.1//EN" "http://www.w3.org/Graphics/SVG/1.1/DTD/svg11.dtd">
<svg version="1.1" id="图层_1" xmlns="http://www.w3.org/2000/svg" xmlns:xlink="http://www.w3.org/1999/xlink" x="0px" y="0px"
	 width="90.828px" height="106.502px" viewBox="0 0 90.828 106.502" enable-background="new 0 0 90.828 106.502"
	 xml:space="preserve">
<path fill="#0000AD" stroke="#000000" stroke-width="2" d="M13.219,30.384h4.478V95.84h-4.478V30.384z"/>
<path fill="#0000AD" stroke="#000000" stroke-width="2" d="M13.219,30.384h4.478l1.599-1.599h-4.477L13.219,30.384z"/>
<path fill="#0000AD" stroke="#000000" stroke-width="2" d="M19.295,28.785l-1.599,1.599V95.84l1.599-1.599V28.785z"/>
<path fill="#003399" stroke="#000000" stroke-width="2" d="M81.34,82.515v-4.798H14.392v4.798H81.34z"/>
<path fill="#0000E0" stroke="#000000" stroke-width="2" d="M2.985,37.953h4.478l1.493-1.279H4.478L2.985,37.953z"/>
<path fill="#00007F" stroke="#000000" stroke-width="2" d="M8.955,36.674l-1.493,1.279v65.456l1.493-1.493V36.674z"/>
<path fill="#0000E0" stroke="#000000" stroke-width="2" d="M75.796,94.241l-1.599,1.599H6.929l1.813-1.599H75.796z"/>
<path fill="#0000AD" stroke="#000000" stroke-width="2" d="M81.767,30.384h4.478V95.84h-4.478V30.384z"/>
<path fill="#0000AD" stroke="#000000" stroke-width="2" d="M81.767,30.384h4.478l1.599-1.599h-4.478L81.767,30.384z"/>
<path fill="#0000AD" stroke="#000000" stroke-width="2" d="M87.843,28.785l-1.599,1.599V95.84l1.599-1.599V28.785z"/>
<path fill="#0000FF" stroke="#000000" stroke-width="2" d="M5.65,10.342h71.959v52.877H5.65V10.342z"/>
<path fill="#0000BF" stroke="#000000" stroke-width="2" d="M84.858,2.987l-7.249,7.355v52.877l7.249-7.143V2.987z"/>
<path fill="#0000FF" stroke="#000000" stroke-width="2" d="M5.65,10.342h71.959l7.249-7.355H13.006L5.65,10.342z"/>
<path fill="#003399" stroke="#000000" stroke-width="2" d="M45.84,76.651l31.769-13.432H5.65L45.84,76.651z"/>
<path fill="#0000FF" stroke="#000000" stroke-width="2" d="M2.985,37.953h4.478v65.456H2.985V37.953z"/>
<path fill="#0000FF" stroke="#000000" stroke-width="2" d="M74.624,100.318V95.84H6.929v4.478H74.624z"/>
<path fill="#0000FF" stroke="#000000" stroke-width="2" d="M74.41,37.953h4.691v65.456H74.41V37.953z"/>
<path fill="#00007F" stroke="#000000" stroke-width="2" d="M80.7,36.674l-1.599,1.279v65.456l1.599-1.493V36.674z"/>
<path fill="#000066" stroke="#000000" stroke-width="2" d="M45.627,4.266l14.712,0.64l5.97,1.813l-5.97,1.599l-14.712,0.64
	l-14.498-0.64l-6.077-1.599l6.077-1.813L45.627,4.266z"/>
<path fill="#003399" stroke="#000000" stroke-width="2" d="M25.479,19.937h32.195v14.925H25.479V19.937z"/>
<path fill="#999999" d="M28.357,22.602h24.626v2.452H28.357V22.602z"/>
</svg>
