<?xml version="1.0" encoding="utf-8"?>
<!-- Generator: Adobe Illustrator 14.0.0, SVG Export Plug-In . SVG Version: 6.00 Build 43363)  -->
<!DOCTYPE svg PUBLIC "-//W3C//DTD SVG 1.1//EN" "http://www.w3.org/Graphics/SVG/1.1/DTD/svg11.dtd">
<svg version="1.1" id="图层_1" xmlns="http://www.w3.org/2000/svg" xmlns:xlink="http://www.w3.org/1999/xlink" x="0px" y="0px"
	 width="88.683px" height="106.502px" viewBox="0 0 88.683 106.502" enable-background="new 0 0 88.683 106.502"
	 xml:space="preserve">
<path fill="#4C4C4C" stroke="#000000" stroke-width="2" d="M77.797,88.04v6.403H10.779V88.04H77.797z"/>
<path fill="#4C4C4C" stroke="#000000" stroke-width="2" d="M6.51,41.193h4.269v59.547H6.51V41.193z"/>
<path fill="#4C4C4C" stroke="#000000" stroke-width="2" d="M77.797,41.193h4.269v59.547h-4.269V41.193z"/>
<path fill="#CCCCCC" d="M3.522,8.217h81.531v55.706H3.522V8.217z"/>
<path fill="#C7C7C7" d="M3.522,47.809l81.531-23.371v39.485H3.522V47.809z"/>
<path fill="#C2C2C2" d="M3.522,50.263l81.531-23.37v37.03H3.522V50.263z"/>
<path fill="#BDBDBD" d="M3.522,53.678l81.531-23.371v33.616H3.522V53.678z"/>
<path fill="none" stroke="#000000" stroke-width="2" d="M3.522,8.217h81.531v55.706H3.522V8.217"/>
<path fill="#666666" stroke="#000000" stroke-width="2" d="M21.664,96.685v6.937H7.578v-6.937H21.664z"/>
<path fill="#E5E5E5" d="M4.802,12.806h11.633v7.043H4.802V12.806z"/>
<path fill="none" stroke="#000000" stroke-width="2" d="M25.719,12.806h37.137v12.912H25.719V12.806"/>
<path fill="#E5E5E5" d="M29.135,27.853h30.307v10.458H29.135V27.853z"/>
<path fill="#E5E5E5" d="M38.525,51.224h11.525v10.458H38.525V51.224z"/>
<path fill="#7F7F7F" stroke="#000000" stroke-width="2" d="M7.578,63.923v2.454l34.469,23.264h4.589l34.362-23.264v-2.454H7.578z"/>
<path fill="#FFFFFF" d="M30.308,29.133h27.959v8.218H30.308V29.133z"/>
<path fill="#333333" d="M20.49,97.751v4.589H8.752v-4.589H20.49z"/>
<path fill="#666666" stroke="#000000" stroke-width="2" d="M80.998,96.685v6.937H66.912v-6.937H80.998z"/>
<path fill="#333333" d="M79.824,97.751v4.589H68.192v-4.589H79.824z"/>
<path fill="#BFBFBF" stroke="#000000" stroke-width="2" d="M80.998,89.641v6.937H7.578v-6.937H80.998z"/>
<path fill="#CCBFBF" d="M5.977,13.98h3.414v2.241H5.977V13.98z"/>
<path fill="#CCBFBF" d="M11.739,13.98h3.522v2.241h-3.522V13.98z"/>
<path fill="#CCBFBF" d="M5.977,16.862h9.284v2.348H5.977V16.862z"/>
<path fill="#E5E5E5" d="M71.18,12.806h11.525v7.043H71.18V12.806z"/>
<path fill="#CCBFBF" d="M72.354,13.98h3.415v2.241h-3.415V13.98z"/>
<path fill="#CCBFBF" d="M78.01,13.98h3.414v2.241H78.01V13.98z"/>
<path fill="#CCBFBF" d="M72.354,16.862h9.284v2.348h-9.284V16.862z"/>
<path fill="#CCCCCC" d="M80.998,90.281v5.869H7.578v-5.869H80.998z"/>
<path fill="#D9D9D9" d="M80.998,90.708v4.803H7.578v-4.803H80.998z"/>
<path fill="#CCCCCC" stroke="#000000" stroke-width="2" d="M2.883,38.311h4.695v65.311H2.883V38.311z"/>
<path fill="#CCCCCC" stroke="#000000" stroke-width="2" d="M80.998,38.311h4.695v65.311h-4.695V38.311z"/>
<path fill="#72727F" d="M23.264,8.217V5.122h42.047v3.095H23.264z"/>
<path fill="#7F7F8C" d="M25.079,8.217V5.122h38.204v3.095H25.079z"/>
<path fill="#8C8C99" d="M27.106,8.217V5.122h34.363v3.095H27.106z"/>
<path fill="#9999A6" d="M28.921,8.217V5.122h30.734v3.095H28.921z"/>
<path fill="#A5A5B2" d="M30.735,8.217V5.122h27.105v3.095H30.735z"/>
<path fill="#B2B2BF" d="M32.762,8.217V5.122H55.92v3.095H32.762z"/>
<path fill="#BFBFCC" d="M34.577,8.217V5.122h19.528v3.095H34.577z"/>
<path fill="#CCCCD9" d="M36.39,8.217V5.122h15.794v3.095H36.39z"/>
<path fill="#D8D8E5" d="M38.205,8.217V5.122h12.06v3.095H38.205z"/>
<path fill="#E5E5F2" d="M40.126,8.217V5.122h8.324v3.095H40.126z"/>
<path fill="#F2F2FF" d="M42.047,8.217V5.122h4.589v3.095H42.047z"/>
<path fill="none" stroke="#000000" stroke-width="2" d="M23.264,8.217V5.122h42.047v3.095H23.264"/>
<path fill="#72727F" d="M34.363,5.122V2.881h7.044v2.241H34.363z"/>
<path fill="#7F7F8C" d="M34.79,5.122V2.881h6.189v2.241H34.79z"/>
<path fill="#8C8C99" d="M34.897,5.122V2.881h5.869v2.241H34.897z"/>
<path fill="#9999A6" d="M35.324,5.122V2.881h5.016v2.241H35.324z"/>
<path fill="#A5A5B2" d="M35.537,5.122V2.881h4.589v2.241H35.537z"/>
<path fill="#B2B2BF" d="M35.964,5.122V2.881h3.842v2.241H35.964z"/>
<path fill="#BFBFCC" d="M36.39,5.122V2.881h3.202v2.241H36.39z"/>
<path fill="#CCCCD9" d="M36.604,5.122V2.881h2.562v2.241H36.604z"/>
<path fill="#D8D8E5" d="M36.925,5.122V2.881h2.027v2.241H36.925z"/>
<path fill="#E5E5F2" d="M37.137,5.122V2.881h1.388v2.241H37.137z"/>
<path fill="#F2F2FF" d="M37.565,5.122V2.881h0.746v2.241H37.565z"/>
<path fill="none" stroke="#000000" stroke-width="2" d="M34.363,5.122V2.881h7.044v2.241H34.363"/>
</svg>
