<?xml version="1.0" encoding="utf-8"?>
<!-- Generator: Adobe Illustrator 14.0.0, SVG Export Plug-In . SVG Version: 6.00 Build 43363)  -->
<!DOCTYPE svg PUBLIC "-//W3C//DTD SVG 1.1//EN" "http://www.w3.org/Graphics/SVG/1.1/DTD/svg11.dtd">
<svg version="1.1" id="图层_1" xmlns="http://www.w3.org/2000/svg" xmlns:xlink="http://www.w3.org/1999/xlink" x="0px" y="0px"
	 width="113.069px" height="106.502px" viewBox="0 0 113.069 106.502" enable-background="new 0 0 113.069 106.502"
	 xml:space="preserve">
<path fill="#666666" d="M3.172,79.649h89.956v-1.359H3.172V79.649z"/>
<path d="M4.418,78.516h2.379v22.886H4.418V78.516z"/>
<path d="M89.39,78.516h2.379v22.886H89.39V78.516z"/>
<path fill="#4C4C4C" stroke="#000000" stroke-width="2" d="M3.172,78.289h2.266v25.038H3.172V78.289z"/>
<path fill="#4C4C4C" stroke="#000000" stroke-width="2" d="M90.523,78.289h2.605v25.038h-2.605V78.289z"/>
<path fill="#CCCCCC" stroke="#000000" stroke-width="2" d="M55.288,51.665h36.481v4.871H55.288V51.665z"/>
<path fill="#333333" d="M4.418,55.29h50.87v1.246H4.418V55.29z"/>
<path fill="#B2B2B2" d="M3.172,56.536h89.956v21.753H3.172V56.536z"/>
<path fill="#ADADAD" d="M93.128,61.862v16.428H35.801L93.128,61.862z"/>
<path fill="#999999" stroke="#000000" stroke-width="2" d="M109.896,56.536v1.021H93.128v-1.021H109.896z"/>
<path fill="#B2B2B2" d="M3.172,55.29V31.158l7.251-7.251h38.86l7.25,7.251V55.29H3.172z"/>
<path fill="#ADADAD" d="M3.172,55.29V43.055l53.362-9.631V55.29H3.172z"/>
<path fill="#A8A8A8" d="M3.172,55.29v-9.63l53.362-9.856V55.29H3.172z"/>
<path fill="#A3A3A3" d="M3.172,55.29v-7.364l53.362-9.517V55.29H3.172z"/>
<path fill="none" stroke="#000000" stroke-width="2" d="M3.172,55.29V31.158l7.251-7.251h38.86l7.25,7.251V55.29H3.172"/>
<path fill="#7F7F7F" stroke="#000000" stroke-width="2" d="M93.128,76.024l14.502-18.467H93.128V76.024z"/>
<path fill="#333333" d="M22.546,43.055v1.359H5.438v-1.359H22.546z"/>
<path fill="#333333" d="M22.546,50.306v1.359H5.438v-1.359H22.546z"/>
<path fill="#333333" d="M54.155,43.055v1.359H37.047v-1.359H54.155z"/>
<path fill="#333333" d="M54.155,50.306v1.359H37.047v-1.359H54.155z"/>
<path fill="#333333" d="M54.155,35.804v1.246H37.047v-1.246H54.155z"/>
<path fill="#CCCCCC" stroke="#000000" stroke-width="2" d="M11.669,52.911h6.005v3.625h-6.005V52.911z"/>
<path fill="#B2B2B2" stroke="#000000" stroke-width="2" d="M21.299,53.931h3.625v2.605h-3.625V53.931z"/>
<path fill="#CCCCCC" stroke="#000000" stroke-width="2" d="M38.407,52.911h15.748v3.625H38.407V52.911z"/>
<path fill="#E5E5E5" stroke="#000000" stroke-width="2" d="M91.769,51.665l3.625,0.793v2.152l-3.625,0.68V51.665z"/>
<path fill="#BABABA" d="M12.689,78.289l4.985-21.753h9.856l-4.985,21.753H12.689z"/>
<path fill="#C2C2C2" d="M15.295,78.289l4.985-21.753h4.645L20.28,78.289H15.295z"/>
<path fill="#D9D9D9" d="M16.994,78.289l4.985-21.753h1.246l-4.872,21.753H16.994z"/>
<path fill="#BABABA" d="M32.176,78.289l4.872-21.753h9.857l-4.872,21.753H32.176z"/>
<path fill="#C2C2C2" d="M34.782,78.289l4.645-21.753h4.985l-4.985,21.753H34.782z"/>
<path fill="#D9D9D9" d="M36.481,78.289l4.872-21.753h1.359l-4.985,21.753H36.481z"/>
<path fill="none" stroke="#000000" stroke-width="2" d="M3.172,56.536h89.956v21.753H3.172V56.536"/>
<path fill="#7F7F7F" d="M23.905,23.681v-4.758h12.123v4.758H23.905z"/>
<path fill="#8C8C8C" d="M24.245,23.681v-4.758h11.103v4.758H24.245z"/>
<path fill="#999999" d="M24.925,23.681v-4.758h10.083v4.758H24.925z"/>
<path fill="#A6A6A6" d="M25.378,23.681v-4.758h8.951v4.758H25.378z"/>
<path fill="#B2B2B2" d="M25.945,23.681v-4.758h7.704v4.758H25.945z"/>
<path fill="#BFBFBF" d="M26.398,23.681v-4.758h6.911v4.758H26.398z"/>
<path fill="#CCCCCC" d="M27.078,23.681v-4.758h5.551v4.758H27.078z"/>
<path fill="#D9D9D9" d="M27.531,23.681v-4.758h4.645v4.758H27.531z"/>
<path fill="#E5E5E5" d="M28.097,23.681v-4.758h3.512v4.758H28.097z"/>
<path fill="#F2F2F2" d="M28.55,23.681v-4.758h2.606v4.758H28.55z"/>
<path fill="#FFFFFF" d="M29.23,23.681v-4.758h1.247v4.758H29.23z"/>
<path fill="none" stroke="#000000" stroke-width="2" d="M23.905,23.681v-4.758h12.123v4.758H23.905"/>
<path fill="#CCCCCC" d="M37.047,18.923v-2.606l2.606-1.02v-3.625l-3.625-6.231V3.175H23.905v2.266l-3.625,6.231v3.625l2.266,1.02
	v2.606H37.047z"/>
<path fill="#D1D1D1" d="M36.481,18.697v-2.38l2.153-1.246v-3.625l-3.286-6.005V3.175H24.472v2.266l-3.172,6.005v3.625l2.153,1.246
	v2.38H36.481z"/>
<path fill="#D9D9D9" d="M35.575,18.697v-2.38l1.926-1.246v-3.625l-2.719-6.005V3.175h-9.63v2.266l-2.832,6.005v3.625l1.926,1.246
	v2.38H35.575z"/>
<path fill="#DEDEDE" d="M34.782,18.697v-2.38l1.699-1.246v-3.625l-2.379-6.005V3.175h-8.384v2.266l-2.266,6.005v3.625l1.473,1.246
	v2.38H34.782z"/>
<path fill="#E5E5E5" d="M34.102,18.697v-2.38l1.246-1.246v-3.625l-2.039-6.005V3.175h-6.911v2.266l-1.926,6.005v3.625l1.247,1.246
	v2.38H34.102z"/>
<path fill="#EBEBEB" d="M33.309,18.697v-2.38l1.02-1.246v-3.625l-1.7-6.005V3.175h-5.551v2.266l-1.473,6.005v3.625l1.02,1.246v2.38
	H33.309z"/>
<path fill="#F2F2F2" d="M32.402,18.697v-2.38l0.907-1.246v-3.625l-1.36-6.005V3.175h-4.305v2.266l-1.246,6.005v3.625l0.906,1.246
	v2.38H32.402z"/>
<path fill="#F7F7F7" d="M31.609,18.697v-2.38l0.566-1.246v-3.625l-0.793-6.005V3.175H28.55v2.266l-0.906,6.005v3.625l0.453,1.246
	v2.38H31.609z"/>
<path fill="#FFFFFF" d="M30.703,18.923v-2.606l0.453-1.02v-3.625l-0.453-6.231V3.175h-1.7v2.266l-0.453,6.231v3.625l0.453,1.02
	v2.606H30.703z"/>
<path fill="#B2B2B2" d="M20.28,15.297h19.374l-2.606,1.02H22.546L20.28,15.297z"/>
<path fill="none" stroke="#000000" stroke-width="2" d="M37.047,18.923v-2.606l2.606-1.02v-3.625l-3.625-6.231V3.175H23.905v2.266
	l-3.625,6.231v3.625l2.266,1.02v2.606H37.047"/>
</svg>
