<?xml version="1.0" encoding="utf-8"?>
<!-- Generator: Adobe Illustrator 14.0.0, SVG Export Plug-In . SVG Version: 6.00 Build 43363)  -->
<!DOCTYPE svg PUBLIC "-//W3C//DTD SVG 1.1//EN" "http://www.w3.org/Graphics/SVG/1.1/DTD/svg11.dtd">
<svg version="1.1" id="图层_1" xmlns="http://www.w3.org/2000/svg" xmlns:xlink="http://www.w3.org/1999/xlink" x="0px" y="0px"
	 width="74.376px" height="106.502px" viewBox="0 0 74.376 106.502" enable-background="new 0 0 74.376 106.502"
	 xml:space="preserve">
<path fill="#7F7F7F" stroke="#000000" stroke-width="2" d="M10.031,34.151l-4.056,2.027v64.132h4.056V34.151z"/>
<path fill="#7F7F7F" stroke="#000000" stroke-width="2" d="M4.909,100.31h6.082v1.067H4.909V100.31z"/>
<path fill="#7F7F7F" stroke="#000000" stroke-width="2" d="M64.345,34.151l3.842,2.027v64.132h-3.842V34.151z"/>
<path fill="#7F7F7F" stroke="#000000" stroke-width="2" d="M69.147,100.31h-5.869v1.067h5.869V100.31z"/>
<path fill="#7F7F7F" stroke="#000000" stroke-width="2" d="M10.031,78.221h54.101v2.027H10.031V78.221z"/>
<path fill="#CCCCCC" d="M8.217,6.193H66.16v40.656H8.217V6.193z"/>
<path fill="#C7C7C7" d="M8.217,34.898l57.943-16.86v28.812H8.217V34.898z"/>
<path fill="#C2C2C2" d="M8.217,36.711L66.16,19.638v27.211H8.217V36.711z"/>
<path fill="#BDBDBD" d="M8.217,39.165L66.16,22.306v24.543H8.217V39.165z"/>
<path fill="#B2B2B2" d="M8.217,46.849l25.717,32.119h6.402L66.16,46.849H8.217z"/>
<path fill="#ABABAB" d="M10.991,50.263l22.942,28.491h6.402l22.942-28.491H10.991z"/>
<path fill="#A6A6A6" d="M13.765,53.892l20.168,24.862h6.402l20.168-24.862H13.765z"/>
<path fill="#9E9E9E" d="M16.646,57.306l17.287,21.448h6.402l17.394-21.448H16.646z"/>
<path fill="#999999" d="M19.421,60.934l14.513,17.82h6.402l14.513-17.82H19.421z"/>
<path fill="#919191" d="M22.302,64.349l11.631,14.405h6.402l11.738-14.405H22.302z"/>
<path fill="#8C8C8C" d="M25.077,67.764l8.856,10.99h6.402l8.857-10.99H25.077z"/>
<path fill="#858585" d="M27.851,71.392l6.082,7.362h6.402l6.083-7.362H27.851z"/>
<path fill="#7F7F7F" d="M30.732,75.02l3.201,3.948h6.402l3.309-3.948H30.732z"/>
<path fill="none" stroke="#000000" stroke-width="2" d="M8.217,6.193H66.16v40.656L40.336,78.968h-6.402L8.217,46.849V6.193"/>
<path fill="#E5E5E5" d="M8.217,31.909l-4.269,2.027v68.614h4.269V31.909z"/>
<path fill="#FFFFFF" d="M6.51,32.763L5.549,33.19v69.361H6.51V32.763z"/>
<path fill="none" stroke="#000000" stroke-width="2" d="M8.217,31.909l-4.269,2.027v68.614h4.269V31.909"/>
<path fill="#CCCCCC" stroke="#000000" stroke-width="2" d="M2.988,102.551H9.39v0.96H2.988V102.551z"/>
<path fill="#E5E5E5" d="M66.16,31.909l4.161,2.027v68.614H66.16V31.909z"/>
<path fill="#FFFFFF" d="M67.76,32.763l0.96,0.427v69.361h-0.96V32.763z"/>
<path fill="none" stroke="#000000" stroke-width="2" d="M66.16,31.909l4.161,2.027v68.614H66.16V31.909"/>
<path fill="#CCCCCC" stroke="#000000" stroke-width="2" d="M71.388,102.551h-6.51v0.96h6.51V102.551z"/>
<path fill="#CCCCCC" stroke="#000000" stroke-width="2" d="M8.217,78.968H66.16v2.027H8.217V78.968z"/>
<path fill="#999999" d="M13.659,42.58h29.985V5.125H13.659V42.58z"/>
<path fill="#CCCCCC" stroke="#000000" stroke-width="2" d="M6.189,5.125h61.998v1.067H6.189V5.125z"/>
<path fill="#999999" stroke="#666666" stroke-width="2" d="M35.961,40.339v2.241h-0.96v1.067h4.161V42.58h-0.96v-2.241H35.961z"/>
<path fill="#CCCCCC" d="M12.592,2.991h29.771v37.348H12.592V2.991z"/>
<path fill="none" stroke="#FFFFFF" stroke-width="2" d="M12.592,40.339V2.991h29.771"/>
<path fill="none" stroke="#333333" stroke-width="2" d="M12.592,40.339h29.771V2.991"/>
</svg>
