<?xml version="1.0" encoding="utf-8"?>
<!-- Generator: Adobe Illustrator 14.0.0, SVG Export Plug-In . SVG Version: 6.00 Build 43363)  -->
<!DOCTYPE svg PUBLIC "-//W3C//DTD SVG 1.1//EN" "http://www.w3.org/Graphics/SVG/1.1/DTD/svg11.dtd">
<svg version="1.1" id="图层_1" xmlns="http://www.w3.org/2000/svg" xmlns:xlink="http://www.w3.org/1999/xlink" x="0px" y="0px"
	 width="124.726px" height="106.502px" viewBox="0 0 124.726 106.502" enable-background="new 0 0 124.726 106.502"
	 xml:space="preserve">
<path d="M34.709,20.853h1.498v1.123h-1.498V20.853z"/>
<circle fill="#003300" stroke="#000000" stroke-width="2" cx="35.583" cy="19.354" r="1.998"/>
<path fill="#265926" d="M24.845,26.72h80.278v48.317H24.845V26.72z"/>
<path fill="#1F521F" d="M24.845,62.303l80.278-23.597v36.331H24.845V62.303z"/>
<path fill="none" stroke="#000000" stroke-width="2" d="M24.845,26.72h80.278v48.317H24.845V26.72"/>
<path fill="#003300" stroke="#000000" stroke-width="2" d="M105.124,49.319h8.24v29.465h-8.24V49.319z"/>
<path fill="#CCCCCC" d="M58.305,20.104h47.567v44.821H58.305V20.104z"/>
<path fill="#C7C7C7" d="M58.305,51.941l47.567-18.853v31.837H58.305V51.941z"/>
<path fill="#C2C2C2" d="M58.305,53.813l47.567-18.853v29.965H58.305V53.813z"/>
<path fill="#BDBDBD" d="M58.305,56.685l47.567-18.853v27.093H58.305V56.685z"/>
<path fill="none" stroke="#000000" stroke-width="2" d="M58.305,20.104h47.567v44.821H58.305V20.104"/>
<path fill="none" stroke="#FFFFFF" stroke-width="2" d="M89.143,44.199h11.985"/>
<path fill="#E5E5E5" d="M98.133,32.214h6.991v5.368h-6.991V32.214z"/>
<path fill="#E5E5E5" d="M86.271,26.72h7.366v7.366h-7.366V26.72z"/>
<path fill="#003300" d="M71.29,21.102h22.973v3.995H71.29V21.102z"/>
<path fill="#003300" stroke="#000000" stroke-width="2" d="M25.594,21.976h26.094v4.744H25.594V21.976z"/>
<path fill="#336633" stroke="#000000" stroke-width="2" d="M22.348,99.009h82.775v3.995H22.348V99.009z"/>
<path fill="#336633" stroke="#000000" stroke-width="2" d="M108.495,53.064h12.61v26.843h-12.61V53.064z"/>
<path fill="#336633" stroke="#000000" stroke-width="2" d="M63.674,8.617h21.475v11.486H63.674V8.617z"/>
<circle fill="#669966" stroke="#000000" stroke-width="2" cx="75.909" cy="9.116" r="5.618"/>
<circle fill="#333333" stroke="#000000" stroke-width="2" cx="90.017" cy="30.466" r="2.996"/>
<path fill="#666666" stroke="#000000" stroke-width="2" d="M89.393,30.466l4.494,7.616l0.375-0.25l-4.12-7.491L89.393,30.466z"/>
<path fill="#CC9999" d="M98.133,32.214h6.991v1.373h-6.991V32.214z"/>
<path fill="#7F0000" d="M77.158,49.568h1.123v1.249h-1.123V49.568z"/>
<path fill="#7F0000" d="M77.158,45.573h1.123v1.124h-1.123V45.573z"/>
<path d="M67.669,45.573h1.249v1.124h-1.249V45.573z"/>
<path d="M67.669,41.577h1.249v1.124h-1.249V41.577z"/>
<path fill="#7F0000" d="M77.158,41.577h1.123v1.124h-1.123V41.577z"/>
<path fill="#7F0000" d="M77.158,37.582h1.123v1.124h-1.123V37.582z"/>
<path d="M67.669,37.582h1.249v1.124h-1.249V37.582z"/>
<path fill="#333333" d="M83.774,44.199h2.497v1.373h-2.497V44.199z"/>
<path fill="#333333" d="M83.774,49.568h2.497v1.249h-2.497V49.568z"/>
<path fill="#4C4C4C" d="M94.262,41.577h1.498v1.124h-1.498V41.577z"/>
<path fill="#4C4C4C" d="M91.765,41.577h1.373v1.124h-1.373V41.577z"/>
<path fill="#4C4C4C" d="M97.134,41.577h1.124v1.124h-1.124V41.577z"/>
<path fill="none" stroke="#003300" stroke-width="2" d="M108.495,55.436h12.61"/>
<path fill="#336633" stroke="#000000" stroke-width="2" d="M20.85,75.037h85.522v19.977H20.85V75.037z"/>
<path fill="#003300" d="M30.339,53.064h6.492v34.709h-6.492V53.064z"/>
<path d="M67.669,49.568h1.249v1.249h-1.249V49.568z"/>
<path fill="#194C19" d="M30.714,53.064h5.618v34.709h-5.618V53.064z"/>
<path fill="#336633" d="M31.213,53.064h4.744v34.709h-4.744V53.064z"/>
<path fill="#4C7F4C" d="M31.712,53.064h3.746v34.709h-3.746V53.064z"/>
<path fill="#669966" d="M32.212,53.064h2.746v34.709h-2.746V53.064z"/>
<path fill="#7FB27F" d="M32.711,53.064h1.748v34.709h-1.748V53.064z"/>
<path fill="#99CC99" d="M33.086,53.064h0.998v34.709h-0.998V53.064z"/>
<path fill="none" stroke="#000000" stroke-width="2" d="M30.339,53.064h6.492v34.709h-6.492V53.064"/>
<path fill="#7F7F7F" d="M70.291,91.019H27.468v-3.246h42.823V91.019z"/>
<path fill="#B2B2B2" d="M70.291,90.519H27.468v-2.247h42.823V90.519z"/>
<path fill="#CCCCCC" d="M70.291,90.145H27.468v-1.498h42.823V90.145z"/>
<path fill="#E5E5E5" d="M70.291,89.895H27.468v-0.999h42.823V89.895z"/>
<path fill="#7F7F7F" d="M49.565,59.057v28.716h-3.246V59.057H49.565z"/>
<path fill="#7F7F7F" d="M49.565,59.057H36.831v-3.621h12.734V59.057z"/>
<path fill="#B2B2B2" d="M49.565,58.308H36.831v-2.123h12.734V58.308z"/>
<path fill="#CCCCCC" d="M49.565,58.058H36.831v-1.623h12.734V58.058z"/>
<path fill="#E5E5E5" d="M49.565,57.808H36.831v-1.123h12.734V57.808z"/>
<path fill="#B2B2B2" d="M49.066,58.308v29.964h-2.372V58.308H49.066z"/>
<path fill="#CCCCCC" d="M48.692,58.308v30.588h-1.499V58.308H48.692z"/>
<path fill="#E5E5E5" d="M48.442,57.559v31.337h-0.999V57.559H48.442z"/>
<path fill="none" stroke="#000000" stroke-width="2" d="M36.831,55.436h12.734v32.337h20.726v3.246H27.468v-3.246h18.852V59.057
	h-9.488V55.436"/>
<path fill="#003300" stroke="#000000" stroke-width="2" d="M22.348,99.009l1.873-3.995h78.78l2.122,3.995H22.348z"/>
<path fill="none" stroke="#99CC99" stroke-width="2" d="M79.03,93.64v-7.366h19.228"/>
<path fill="none" stroke="#003300" stroke-width="2" d="M79.03,93.64h19.228v-7.366"/>
<path fill="#E5F2E5" d="M30.963,65.549h5.244v3.371h-5.244V65.549z"/>
<path fill="#265926" d="M3.496,51.441h21.35v16.105H3.496V51.441z"/>
<path fill="#1F521F" d="M3.496,63.177l21.35-7.741v12.11H3.496V63.177z"/>
<path fill="none" stroke="#000000" stroke-width="2" d="M3.496,51.441h21.35v16.105H3.496V51.441"/>
<path fill="#003300" stroke="#000000" stroke-width="2" d="M6.742,48.195h18.104v3.246H6.742V48.195z"/>
<circle fill="none" stroke="#99CC99" stroke-width="2" cx="76.034" cy="9.117" r="3.621"/>
<path fill="#E5F2E5" d="M28.841,28.219h5.493v3.246h-5.493V28.219z"/>
<path fill="#003300" d="M10.737,55.436h6.867v3.621h-6.867V55.436z"/>
</svg>
