<?xml version="1.0" encoding="utf-8"?>
<!-- Generator: Adobe Illustrator 14.0.0, SVG Export Plug-In . SVG Version: 6.00 Build 43363)  -->
<!DOCTYPE svg PUBLIC "-//W3C//DTD SVG 1.1//EN" "http://www.w3.org/Graphics/SVG/1.1/DTD/svg11.dtd">
<svg version="1.1" id="图层_1" xmlns="http://www.w3.org/2000/svg" xmlns:xlink="http://www.w3.org/1999/xlink" x="0px" y="0px"
	 width="102.024px" height="106.502px" viewBox="0 0 102.024 106.502" enable-background="new 0 0 102.024 106.502"
	 xml:space="preserve">
<path fill="#7F7F7F" stroke="#000000" stroke-width="2" d="M15.458,96.801h3.838v-4.265h-3.838V96.801z"/>
<path fill="#7F7F7F" stroke="#000000" stroke-width="2" d="M25.906,64.072h65.458v-4.264H25.906V64.072z"/>
<path fill="#7F7F7F" stroke="#000000" stroke-width="2" d="M25.906,70.682h65.458v-4.478H25.906V70.682z"/>
<path fill="#7F7F7F" stroke="#000000" stroke-width="2" d="M25.906,77.291h65.458V72.92H25.906V77.291z"/>
<path fill="#7F7F7F" stroke="#000000" stroke-width="2" d="M25.906,83.794h65.458v-4.264H25.906V83.794z"/>
<path fill="#7F7F7F" stroke="#000000" stroke-width="2" d="M25.906,90.405h65.458v-4.478H25.906V90.405z"/>
<path fill="#7F7F7F" stroke="#000000" stroke-width="2" d="M25.906,96.801h65.458v-4.265H25.906V96.801z"/>
<path fill="#7F7F7F" stroke="#000000" stroke-width="2" d="M25.906,57.675h65.458v-4.478H25.906V57.675z"/>
<path fill="#7F7F7F" d="M26.865,50.959v52.451H18.23V50.959H26.865z"/>
<path fill="#999999" d="M26.332,50.959v52.451h-7.676V50.959H26.332z"/>
<path fill="#B2B2B2" d="M25.479,50.959v52.451h-5.864V50.959H25.479z"/>
<path fill="#CCCCCC" d="M24.413,50.959v52.451h-3.731V50.959H24.413z"/>
<path fill="#E5E5E5" d="M23.88,50.959v52.451h-2.666V50.959H23.88z"/>
<path fill="#FFFFFF" d="M23.027,50.959v52.451h-0.959V50.959H23.027z"/>
<path fill="none" stroke="#000000" stroke-width="2" d="M26.865,50.959v52.451H18.23V50.959H26.865"/>
<path fill="#7F7F7F" d="M99.04,50.959v52.451h-8.636V50.959H99.04z"/>
<path fill="#999999" d="M98.399,50.959v52.451h-7.568V50.959H98.399z"/>
<path fill="#B2B2B2" d="M97.653,50.959v52.451H91.79V50.959H97.653z"/>
<path fill="#CCCCCC" d="M96.586,50.959v52.451h-4.051V50.959H96.586z"/>
<path fill="#E5E5E5" d="M96.053,50.959v52.451h-2.664V50.959H96.053z"/>
<path fill="#FFFFFF" d="M95.202,50.959v52.451h-0.96V50.959H95.202z"/>
<path fill="none" stroke="#000000" stroke-width="2" d="M99.04,50.959v52.451h-8.636V50.959H99.04"/>
<path fill="#7F7F7F" d="M24.626,50.959V15.991h-4.158v34.968H24.626z"/>
<path fill="#999999" d="M24.413,50.959V15.991h-3.731v34.968H24.413z"/>
<path fill="#B2B2B2" d="M24.093,50.959V15.991h-2.985v34.968H24.093z"/>
<path fill="#CCCCCC" d="M23.454,50.959V15.991h-1.812v34.968H23.454z"/>
<path fill="#E5E5E5" d="M23.241,50.959V15.991h-1.386v34.968H23.241z"/>
<path fill="#FFFFFF" d="M22.814,50.959V15.991h-0.533v34.968H22.814z"/>
<path fill="none" stroke="#000000" stroke-width="2" d="M24.626,50.959V15.991h-4.158v34.968H24.626"/>
<path fill="#7F7F7F" d="M25.906,2.986v13.006h-6.61V2.986H25.906z"/>
<path fill="#999999" d="M25.479,2.986v13.006h-5.864V2.986H25.479z"/>
<path fill="#B2B2B2" d="M24.626,2.986v13.006h-4.158V2.986H24.626z"/>
<path fill="#CCCCCC" d="M24.093,2.986v13.006h-2.985V2.986H24.093z"/>
<path fill="#E5E5E5" d="M23.454,2.986v13.006h-1.812V2.986H23.454z"/>
<path fill="#FFFFFF" d="M22.814,2.986v13.006h-0.746V2.986H22.814z"/>
<path fill="none" stroke="#000000" stroke-width="2" d="M25.906,2.986v13.006h-6.61V2.986H25.906"/>
<path fill="#7F7F7F" d="M8.422,85.927V15.991H3.944v69.936H8.422z"/>
<path fill="#999999" d="M7.996,85.927V15.991H4.371v69.936H7.996z"/>
<path fill="#B2B2B2" d="M7.569,85.927V15.991H4.797v69.936H7.569z"/>
<path fill="#CCCCCC" d="M7.25,85.927V15.991H5.117v69.936H7.25z"/>
<path fill="#E5E5E5" d="M6.823,85.927V15.991H5.543v69.936H6.823z"/>
<path fill="#FFFFFF" d="M6.396,85.927V15.991H5.97v69.936H6.396z"/>
<path fill="none" stroke="#000000" stroke-width="2" d="M8.422,85.927V15.991H3.944v69.936H8.422"/>
<path fill="#7F7F7F" d="M9.381,2.986v13.006H2.985V2.986H9.381z"/>
<path fill="#999999" d="M8.955,2.986v13.006H3.412V2.986H8.955z"/>
<path fill="#B2B2B2" d="M8.422,2.986v13.006H3.944V2.986H8.422z"/>
<path fill="#CCCCCC" d="M7.782,2.986v13.006H4.797V2.986H7.782z"/>
<path fill="#E5E5E5" d="M7.25,2.986v13.006H5.117V2.986H7.25z"/>
<path fill="#FFFFFF" d="M6.61,2.986v13.006H5.757V2.986H6.61z"/>
<path fill="none" stroke="#000000" stroke-width="2" d="M9.381,2.986v13.006H2.985V2.986H9.381"/>
<path fill="#999999" d="M25.906,57.249h65.458v-3.625H25.906V57.249z"/>
<path fill="#B2B2B2" d="M24.626,56.823h67.803v-2.878H24.626V56.823z"/>
<path fill="#CCCCCC" d="M24.2,56.396h68.762V54.37H24.2V56.396z"/>
<path fill="#E5E5E5" d="M23.027,55.97h71v-1.173h-71V55.97z"/>
<path fill="#FFFFFF" d="M22.494,55.65h72.067v-0.426H22.494V55.65z"/>
<path fill="#999999" d="M25.906,63.859h65.458v-3.838H25.906V63.859z"/>
<path fill="#B2B2B2" d="M24.626,63.432h67.803v-2.984H24.626V63.432z"/>
<path fill="#CCCCCC" d="M24.2,62.9h68.762v-1.919H24.2V62.9z"/>
<path fill="#E5E5E5" d="M23.027,62.686h71v-1.492h-71V62.686z"/>
<path fill="#FFFFFF" d="M22.494,62.26h72.067v-0.64H22.494V62.26z"/>
<path fill="#999999" d="M25.906,70.468h65.458V66.63H25.906V70.468z"/>
<path fill="#B2B2B2" d="M24.626,69.936h67.803v-2.879H24.626V69.936z"/>
<path fill="#CCCCCC" d="M24.2,69.509h68.762v-2.025H24.2V69.509z"/>
<path fill="#E5E5E5" d="M23.027,69.082h71v-1.279h-71V69.082z"/>
<path fill="#FFFFFF" d="M22.494,68.869h72.067v-0.64H22.494V68.869z"/>
<path fill="#999999" d="M25.906,76.972h65.458v-3.838H25.906V76.972z"/>
<path fill="#B2B2B2" d="M24.626,76.545h67.803v-2.879H24.626V76.545z"/>
<path fill="#CCCCCC" d="M24.2,76.118h68.762v-2.025H24.2V76.118z"/>
<path fill="#E5E5E5" d="M23.027,75.693h71V74.52h-71V75.693z"/>
<path fill="#FFFFFF" d="M22.494,75.266h72.067v-0.533H22.494V75.266z"/>
<path fill="#999999" d="M25.906,83.581h65.458v-3.838H25.906V83.581z"/>
<path fill="#B2B2B2" d="M24.626,83.155h67.803v-3.092H24.626V83.155z"/>
<path fill="#CCCCCC" d="M24.2,82.515h68.762v-1.813H24.2V82.515z"/>
<path fill="#E5E5E5" d="M23.027,82.302h71v-1.386h-71V82.302z"/>
<path fill="#FFFFFF" d="M22.494,81.982h72.067v-0.64H22.494V81.982z"/>
<path fill="#999999" d="M25.906,89.978h65.458V86.14H25.906V89.978z"/>
<path fill="#B2B2B2" d="M24.626,89.551h67.803V86.78H24.626V89.551z"/>
<path fill="#CCCCCC" d="M24.2,89.232h68.762v-2.133H24.2V89.232z"/>
<path fill="#E5E5E5" d="M23.027,88.805h71v-1.279h-71V88.805z"/>
<path fill="#FFFFFF" d="M22.494,88.378h72.067v-0.426H22.494V88.378z"/>
<path fill="#999999" d="M25.906,96.587h65.458v-3.838H25.906V96.587z"/>
<path fill="#B2B2B2" d="M24.626,96.161h67.803v-2.985H24.626V96.161z"/>
<path fill="#CCCCCC" d="M24.2,95.841h68.762v-2.025H24.2V95.841z"/>
<path fill="#E5E5E5" d="M23.027,95.414h71v-1.172h-71V95.414z"/>
<path fill="#FFFFFF" d="M22.494,94.989h72.067v-0.64H22.494V94.989z"/>
<ellipse fill="#7F7F7F" stroke="#000000" stroke-width="2" cx="8.315" cy="28.359" rx="0.533" ry="1.279"/>
<path fill="#B2B2B2" stroke="#000000" stroke-width="2" d="M8.422,28.038h2.132v0.64H8.422V28.038z"/>
<path fill="#999999" d="M15.458,96.587h3.838v-3.838h-3.838V96.587z"/>
<path fill="#B2B2B2" d="M15.458,96.161h5.011v-2.985h-5.011V96.161z"/>
<path fill="#CCCCCC" d="M15.458,95.841h5.437v-2.025h-5.437V95.841z"/>
<path fill="#E5E5E5" d="M15.458,95.414h6.61v-1.172h-6.61V95.414z"/>
<path fill="#FFFFFF" d="M15.458,94.989h7.036v-0.64h-7.036V94.989z"/>
<path fill="#7F7F7F" d="M16.844,92.536l-8.422-8.422l-4.478,1.813l11.514,10.874L16.844,92.536z"/>
<path fill="#999999" d="M16.631,92.749l-8.422-8.422l-3.838,1.386l11.3,10.874L16.631,92.749z"/>
<path fill="#B2B2B2" d="M16.631,93.176L7.569,84.54l-2.772,0.854l10.98,10.768L16.631,93.176z"/>
<path fill="#CCCCCC" d="M16.417,93.816L7.25,84.754L5.117,85.18l10.874,10.448L16.417,93.816z"/>
<path fill="#E5E5E5" d="M16.205,94.242l-9.382-9.488l-1.279,0.213l10.448,10.447L16.205,94.242z"/>
<path fill="#FFFFFF" d="M16.205,94.349l-9.808-9.595L5.97,84.967l10.234,10.021V94.349z"/>
<path fill="none" stroke="#000000" stroke-width="2" d="M3.944,85.927l11.514,10.874"/>
<path fill="none" stroke="#000000" stroke-width="2" d="M16.844,92.536l-8.422-8.422"/>
<path d="M26.865,58.208h63.539v-0.533H26.865V58.208z"/>
<path d="M26.865,64.711h63.539v-0.64H26.865V64.711z"/>
<path d="M26.865,71.322h63.539v-0.64H26.865V71.322z"/>
<path d="M26.865,77.718h63.539v-0.427H26.865V77.718z"/>
<path d="M26.865,84.327h63.539v-0.533H26.865V84.327z"/>
<path d="M26.865,90.937h63.539v-0.532H26.865V90.937z"/>
<path d="M26.865,97.441h63.539v-0.427H26.865V97.441z"/>
</svg>
