<?xml version="1.0" encoding="utf-8"?>
<!-- Generator: Adobe Illustrator 14.0.0, SVG Export Plug-In . SVG Version: 6.00 Build 43363)  -->
<!DOCTYPE svg PUBLIC "-//W3C//DTD SVG 1.1//EN" "http://www.w3.org/Graphics/SVG/1.1/DTD/svg11.dtd">
<svg version="1.1" id="图层_1" xmlns="http://www.w3.org/2000/svg" xmlns:xlink="http://www.w3.org/1999/xlink" x="0px" y="0px"
	 width="108.015px" height="106.502px" viewBox="0 0 108.015 106.502" enable-background="new 0 0 108.015 106.502"
	 xml:space="preserve">
<path fill="#4C6699" d="M3.027,8.218h90.066v95.256H3.027V8.218z"/>
<path fill="#476194" d="M3.027,75.903l90.066-39.681v67.252H3.027V75.903z"/>
<path fill="#425C8F" d="M3.027,80.012l90.066-39.789v63.251H3.027V80.012z"/>
<path fill="#3D578A" d="M3.027,85.742l90.066-39.789v57.521H3.027V85.742z"/>
<path fill="#324C7F" stroke="#000000" stroke-width="2" d="M103.473,3.029l-10.38,5.189v95.256l10.38-5.189V3.029z"/>
<path fill="#7F99CC" stroke="#000000" stroke-width="2" d="M103.473,3.029l-10.38,5.189H3.027l10.597-5.189H103.473z"/>
<path fill="none" stroke="#000000" stroke-width="2" d="M3.027,8.218h90.066v95.256H3.027V8.218"/>
<path d="M14.813,42.818h51.682v22.273H14.813V42.818z"/>
<path fill="none" stroke="#4C6699" stroke-width="2" d="M62.495,65.091V42.818h-3.784v22.273H54.71V42.818h-4.108v22.273H46.6
	V42.818h-3.784v22.273h-4V42.818h-4.001v22.273h-4.108V42.818h-3.784v22.273h-4.001V42.818h-4v22.273"/>
<path fill="none" stroke="#4C6699" stroke-width="2" d="M14.813,46.602h51.682v5.406H14.813v5.298h51.682v5.189H14.813"/>
<path fill="none" stroke="#B2CCFF" stroke-width="2" d="M66.495,42.601v22.49H15.029"/>
<path fill="none" stroke="#193366" stroke-width="2" d="M66.495,42.601H15.029v22.49"/>
<path d="M14.813,69.091h51.682V91.58H14.813V69.091z"/>
<path fill="none" stroke="#4C6699" stroke-width="2" d="M62.495,91.58V69.091h-3.784V91.58H54.71V69.091h-4.108V91.58H46.6V69.091
	h-3.784V91.58h-4V69.091h-4.001V91.58h-4.108V69.091h-3.784V91.58h-4.001V69.091h-4V91.58"/>
<path fill="none" stroke="#4C6699" stroke-width="2" d="M14.813,73.092h51.682v5.298H14.813v5.406h51.682v5.189H14.813"/>
<path fill="none" stroke="#B2CCFF" stroke-width="2" d="M66.495,69.091V91.58H15.029"/>
<path fill="none" stroke="#193366" stroke-width="2" d="M66.495,69.091H15.029V91.58"/>
<path d="M75.794,55.792h6.596v9.299h-6.596V55.792z"/>
<path stroke="#000000" stroke-width="2" d="M74.497,41.411H90.39v7.785H74.497V41.411z"/>
<path fill="#669966" d="M77.2,57.306h3.784v1.297H77.2V57.306z"/>
<path fill="#336633" d="M78.388,44.007H81.2v2.595h-2.812V44.007z"/>
<path fill="#FFCC00" d="M81.2,44.007h2.595v2.595H81.2V44.007z"/>
<path fill="#7F0000" d="M83.795,44.007h2.596v2.595h-2.596V44.007z"/>
<path fill="#333333" stroke="#000000" stroke-width="2" d="M11.028,55.792h2.596v2.811h-2.596V55.792z"/>
<path fill="#333333" stroke="#000000" stroke-width="2" d="M67.684,55.792h2.92v2.811h-2.92V55.792z"/>
<path fill="#333333" stroke="#000000" stroke-width="2" d="M11.028,82.39h2.596v2.596h-2.596V82.39z"/>
<path fill="#333333" stroke="#000000" stroke-width="2" d="M67.684,82.39h2.92v2.596h-2.92V82.39z"/>
<path fill="#00194C" d="M102.284,37.303l-6.271,3.677v22.272l6.271-3.352V37.303z"/>
<path fill="#00194C" d="M102.284,63.902l-6.271,3.352v22.598l6.271-3.46V63.902z"/>
<path fill="#B2B2B2" d="M100.122,8.218l3.027-1.838v25.192l-3.027,1.838V8.218z"/>
<path fill="none" stroke="#000000" stroke-width="2" d="M37.41,5.623h6.596"/>
<path fill="none" stroke="#000000" stroke-width="2" d="M62.711,5.623h6.596"/>
<path fill="#657FB2" stroke="#000000" stroke-width="2" d="M103.473,3.029l-10.38,5.189l1.189,2.812l10.596-5.406L103.473,3.029z"/>
</svg>
