<?xml version="1.0" encoding="utf-8"?>
<!-- Generator: Adobe Illustrator 14.0.0, SVG Export Plug-In . SVG Version: 6.00 Build 43363)  -->
<!DOCTYPE svg PUBLIC "-//W3C//DTD SVG 1.1//EN" "http://www.w3.org/Graphics/SVG/1.1/DTD/svg11.dtd">
<svg version="1.1" id="图层_1" xmlns="http://www.w3.org/2000/svg" xmlns:xlink="http://www.w3.org/1999/xlink" x="0px" y="0px"
	 width="135.015px" height="106.502px" viewBox="0 0 135.015 106.502" enable-background="new 0 0 135.015 106.502"
	 xml:space="preserve">
<path fill="#E0E0E0" d="M117.716,71.496V37.304H16.893v34.192H117.716z M117.716,73.929v18.65h2.838V34.33l0,0h-2.838H13.921v58.249
	h2.973v-18.65H117.716z"/>
<path fill="none" stroke="#000000" stroke-width="2" d="M117.716,71.496V37.304H16.893v34.192H117.716"/>
<path fill="none" stroke="#000000" stroke-width="2" d="M117.716,73.929v18.65h2.838V34.33h-2.838H13.921v58.249h2.973v-18.65
	H117.716"/>
<path fill="#E0E0E0" stroke="#000000" stroke-width="2" d="M6.623,81.633H3.784l10.137-10.137h2.973L6.623,81.633z"/>
<path fill="#E0E0E0" stroke="#000000" stroke-width="2" d="M110.687,81.633h-2.838l9.866-10.137h2.838L110.687,81.633z"/>
<path fill="#E5E5E5" stroke="#000000" stroke-width="2" d="M16.893,71.496L4.054,84.2v2.838l12.839-13.109V71.496z"/>
<path fill="#E5E5E5" stroke="#000000" stroke-width="2" d="M120.553,71.496L107.849,84.2v2.838l12.704-13.109V71.496z"/>
<path fill="#E0E0E0" d="M107.849,81.227V47.034H6.623v34.192H107.849z M107.849,84.2v18.516h2.838v-58.25l0,0h-2.838H4.054v58.25
	h2.568V84.2H107.849z"/>
<path fill="none" stroke="#000000" stroke-width="2" d="M107.849,81.227V47.034H6.623v34.192H107.849"/>
<path fill="none" stroke="#000000" stroke-width="2" d="M107.849,84.2v18.516h2.838v-58.25h-2.838H4.054v58.25h2.568V84.2H107.849"
	/>
<path fill="#F0F0F0" stroke="#000000" stroke-width="2" d="M4.46,44.466h105.957v-9.055H4.46V44.466z"/>
<path fill="#E0E0E0" stroke="#000000" stroke-width="2" d="M131.095,23.788l-20.679,20.678v-9.055l20.679-20.407V23.788z"/>
<path fill="#F0F0F0" stroke="#000000" stroke-width="2" d="M24.462,15.409h106.363l-20.408,20.002H4.46L24.462,15.409z"/>
<path fill="#FFFFFF" stroke="#000000" stroke-width="2" d="M6.217,36.492l0.406,0.405l0.405,0.406L6.623,37.98H6.217h-0.27
	l-0.406-0.676l0.406-0.406L6.217,36.492z"/>
<path fill="#FFFFFF" stroke="#000000" stroke-width="2" d="M103.795,36.492l0.812,0.405v0.406v0.676h-0.812h-0.271l-0.405-0.676
	l0.405-0.406L103.795,36.492z"/>
<path fill="#FFFFFF" stroke="#000000" stroke-width="2" d="M6.217,41.628l0.406,0.271l0.405,0.405l-0.405,0.811H6.217h-0.27
	l-0.406-0.811l0.406-0.405L6.217,41.628z"/>
<path fill="#FFFFFF" stroke="#000000" stroke-width="2" d="M103.795,41.628l0.812,0.271v0.405v0.811h-0.812h-0.271l-0.405-0.811
	l0.405-0.405L103.795,41.628z"/>
<path fill="#FFFFFF" stroke="#000000" stroke-width="2" d="M10.271,36.492l0.811,0.405v0.406v0.676h-0.811h-0.271l-0.405-0.676
	l0.405-0.406L10.271,36.492z"/>
<path fill="#FFFFFF" stroke="#000000" stroke-width="2" d="M108.255,36.492l0.271,0.405l0.405,0.406l-0.405,0.676h-0.271h-0.811
	v-0.676v-0.406L108.255,36.492z"/>
<path fill="#FFFFFF" stroke="#000000" stroke-width="2" d="M10.271,41.628l0.811,0.271v0.405v0.811h-0.811h-0.271l-0.405-0.811
	l0.405-0.405L10.271,41.628z"/>
<path fill="#FFFFFF" stroke="#000000" stroke-width="2" d="M108.255,41.628l0.271,0.271l0.405,0.405l-0.405,0.811h-0.271h-0.811
	v-0.811v-0.405L108.255,41.628z"/>
<path fill="#003399" d="M12.433,23.788h93.523v7.974H12.433V23.788z M8.514,21.626h101.497V34.33H8.514V21.626z"/>
<path fill="none" stroke="#000000" stroke-width="2" d="M12.433,23.788h93.523v7.974H12.433V23.788"/>
<path fill="none" stroke="#000000" stroke-width="2" d="M8.514,21.626h101.497V34.33H8.514V21.626"/>
<path fill="#003399" d="M119.067,14.734l-8.65,8.649v7.974l8.65-8.649V14.734z M119.472,12.165l-9.461,9.461V34.33l9.461-9.461
	V12.165z"/>
<path fill="none" stroke="#000000" stroke-width="2" d="M119.067,14.734l-8.65,8.649v7.974l8.65-8.649V14.734"/>
<path fill="none" stroke="#000000" stroke-width="2" d="M119.472,12.165l-9.461,9.461V34.33l9.461-9.461V12.165"/>
<path fill="#003399" d="M14.326,19.734h93.523l6.622-6.486H20.408L14.326,19.734z M8.514,21.626h101.497l10.137-9.866H18.245
	L8.514,21.626z"/>
<path fill="none" stroke="#000000" stroke-width="2" d="M14.326,19.734h93.523l6.622-6.486H20.408L14.326,19.734"/>
<path fill="none" stroke="#000000" stroke-width="2" d="M8.514,21.626h101.497l10.137-9.866H18.245L8.514,21.626"/>
<path fill="#003399" stroke="#000000" stroke-width="2" d="M18.65,12.165h101.228l7.974-8.379H27.03L18.65,12.165z"/>
<path fill="none" stroke="#000000" stroke-width="2" d="M20.813,13.247l-3.244,2.838v4.055"/>
<path fill="none" stroke="#000000" stroke-width="2" d="M24.868,13.247l-2.839,2.838v4.055"/>
<path fill="none" stroke="#000000" stroke-width="2" d="M29.192,13.247l-2.838,2.838v4.055"/>
<path fill="none" stroke="#000000" stroke-width="2" d="M33.517,13.247l-3.244,2.838v4.055"/>
<path fill="none" stroke="#000000" stroke-width="2" d="M37.572,13.247l-2.839,2.838v4.055"/>
<path fill="none" stroke="#000000" stroke-width="2" d="M41.896,13.247l-2.838,2.838v4.055"/>
<path fill="none" stroke="#000000" stroke-width="2" d="M46.356,13.247l-3.243,2.838v4.055"/>
<path fill="none" stroke="#000000" stroke-width="2" d="M50.411,13.247l-2.974,2.838v4.055"/>
<path fill="none" stroke="#000000" stroke-width="2" d="M54.735,13.247l-2.973,2.838v4.055"/>
<path fill="none" stroke="#000000" stroke-width="2" d="M59.06,13.247l-3.243,2.838v4.055"/>
<path fill="none" stroke="#000000" stroke-width="2" d="M63.115,13.247l-2.974,2.838v4.055"/>
<path fill="none" stroke="#000000" stroke-width="2" d="M67.439,13.247l-2.838,2.838v4.055"/>
<path fill="none" stroke="#000000" stroke-width="2" d="M71.764,13.247l-3.243,2.838v4.055"/>
<path fill="none" stroke="#000000" stroke-width="2" d="M75.819,13.247l-2.974,2.838v4.055"/>
<path fill="none" stroke="#000000" stroke-width="2" d="M80.143,13.247l-2.838,2.838v4.055"/>
<path fill="none" stroke="#000000" stroke-width="2" d="M84.469,13.247l-3.243,2.838v4.055"/>
<path fill="none" stroke="#000000" stroke-width="2" d="M88.523,13.247l-2.838,2.838v4.055"/>
<path fill="none" stroke="#000000" stroke-width="2" d="M92.983,13.247l-2.974,2.838v4.055"/>
<path fill="none" stroke="#000000" stroke-width="2" d="M97.307,13.247l-3.243,2.838v4.055"/>
<path fill="none" stroke="#000000" stroke-width="2" d="M101.362,13.247l-2.974,2.838v4.055"/>
<path fill="none" stroke="#000000" stroke-width="2" d="M105.687,13.247l-2.974,2.838v4.055"/>
<path fill="none" stroke="#000000" stroke-width="2" d="M110.011,13.247l-3.243,2.838v4.055"/>
</svg>
