<?xml version="1.0" encoding="utf-8"?>
<!-- Generator: Adobe Illustrator 14.0.0, SVG Export Plug-In . SVG Version: 6.00 Build 43363)  -->
<!DOCTYPE svg PUBLIC "-//W3C//DTD SVG 1.1//EN" "http://www.w3.org/Graphics/SVG/1.1/DTD/svg11.dtd">
<svg version="1.1" id="图层_1" xmlns="http://www.w3.org/2000/svg" xmlns:xlink="http://www.w3.org/1999/xlink" x="0px" y="0px"
	 width="100.534px" height="106.502px" viewBox="0 0 100.534 106.502" enable-background="new 0 0 100.534 106.502"
	 xml:space="preserve">
<path fill="#99CCCC" d="M2.986,11.087h86.354v92.323H2.986V11.087z"/>
<path fill="#94C7C7" d="M2.986,76.652L89.339,38.06v65.351H2.986V76.652z"/>
<path fill="#8FC2C2" d="M2.986,80.49l86.354-38.592v61.513H2.986V80.49z"/>
<path fill="#8ABDBD" d="M2.986,86.14l86.354-38.485v55.756H2.986V86.14z"/>
<path fill="none" stroke="#000000" stroke-width="2" d="M2.986,11.087h86.354v92.323H2.986V11.087"/>
<path fill="#99CCCC" stroke="#000000" stroke-width="2" d="M2.986,11.087h86.354l8.102-8.103H11.088L2.986,11.087z"/>
<path fill="#669999" stroke="#000000" stroke-width="2" d="M97.441,2.985l-8.102,8.103v92.323l8.102-8.102V2.985z"/>
<path d="M74.734,59.594h6.503l0.746,0.64v9.382l-0.746,0.427h-6.503l-0.641-0.427v-9.382L74.734,59.594z"/>
<path fill="#217F21" d="M75.373,61.087h5.331v7.676h-5.331V61.087z"/>
<path fill="#00FF00" d="M75.373,61.087h5.331v3.624h-5.331V61.087z"/>
<path d="M69.83,44.03h15.991v7.036H69.83V44.03z"/>
<path fill="#FF6600" d="M70.896,44.669h13.752v5.757H70.896V44.669z"/>
<path fill="#00FF00" d="M70.896,44.669h4.477v5.757h-4.477V44.669z"/>
<path fill="#FF0000" d="M80.277,44.669h4.371v5.757h-4.371V44.669z"/>
<path fill="#FFFF00" stroke="#000000" stroke-width="2" d="M32.517,24.947l2.345-3.198l9.595,2.985l-1.493,1.599l9.168,2.771
	l-1.066,1.28l8.529,3.411l-11.301-1.492l1.066-1.279l-10.448-2.772l1.492-1.706L32.517,24.947z"/>
<path fill="#7F7F7F" stroke="#000000" stroke-width="2" d="M90.725,42.111l5.649-5.757v41.791l-5.649,5.649V42.111z"/>
<path fill="none" stroke="#FFFFFF" stroke-width="2" d="M23.348,38.486V16.631H68.55"/>
<path fill="none" stroke="#669999" stroke-width="2" d="M23.348,38.486H68.55V16.631"/>
<path fill="none" stroke="#FFFFFF" stroke-width="2" d="M14.713,61.3V45.096h2.345"/>
<path fill="none" stroke="#669999" stroke-width="2" d="M14.713,61.3h2.345V45.096"/>
<path fill="none" stroke="#FFFFFF" stroke-width="2" d="M18.444,61.3V45.096h2.346"/>
<path fill="none" stroke="#669999" stroke-width="2" d="M18.444,61.3h2.346V45.096"/>
<path fill="none" stroke="#FFFFFF" stroke-width="2" d="M22.389,61.3V45.096h2.345"/>
<path fill="none" stroke="#669999" stroke-width="2" d="M22.389,61.3h2.345V45.096"/>
<path fill="none" stroke="#FFFFFF" stroke-width="2" d="M25.907,61.3V45.096h2.345"/>
<path fill="none" stroke="#669999" stroke-width="2" d="M25.907,61.3h2.345V45.096"/>
<path fill="none" stroke="#FFFFFF" stroke-width="2" d="M29.745,61.3V45.096h2.345"/>
<path fill="none" stroke="#669999" stroke-width="2" d="M29.745,61.3h2.345V45.096"/>
<path fill="none" stroke="#FFFFFF" stroke-width="2" d="M33.583,61.3V45.096h2.345"/>
<path fill="none" stroke="#669999" stroke-width="2" d="M33.583,61.3h2.345V45.096"/>
<path fill="none" stroke="#FFFFFF" stroke-width="2" d="M37.42,61.3V45.096h2.345"/>
<path fill="none" stroke="#669999" stroke-width="2" d="M37.42,61.3h2.345V45.096"/>
<path fill="none" stroke="#FFFFFF" stroke-width="2" d="M41.258,61.3V45.096h2.345"/>
<path fill="none" stroke="#669999" stroke-width="2" d="M41.258,61.3h2.345V45.096"/>
<path fill="none" stroke="#FFFFFF" stroke-width="2" d="M44.883,61.3V45.096h2.346"/>
<path fill="none" stroke="#669999" stroke-width="2" d="M44.883,61.3h2.346V45.096"/>
<path fill="none" stroke="#FFFFFF" stroke-width="2" d="M48.721,61.3V45.096h2.345"/>
<path fill="none" stroke="#669999" stroke-width="2" d="M48.721,61.3h2.345V45.096"/>
<path fill="none" stroke="#FFFFFF" stroke-width="2" d="M52.559,61.3V45.096h2.345"/>
<path fill="none" stroke="#669999" stroke-width="2" d="M52.559,61.3h2.345V45.096"/>
<path fill="none" stroke="#FFFFFF" stroke-width="2" d="M56.397,61.3V45.096h2.345"/>
<path fill="none" stroke="#669999" stroke-width="2" d="M56.397,61.3h2.345V45.096"/>
<path fill="none" stroke="#FFFFFF" stroke-width="2" d="M14.713,80.916V64.711h2.345"/>
<path fill="none" stroke="#669999" stroke-width="2" d="M14.713,80.916h2.345V64.711"/>
<path fill="none" stroke="#FFFFFF" stroke-width="2" d="M18.444,80.916V64.711h2.346"/>
<path fill="none" stroke="#669999" stroke-width="2" d="M18.444,80.916h2.346V64.711"/>
<path fill="none" stroke="#FFFFFF" stroke-width="2" d="M22.389,80.916V64.711h2.345"/>
<path fill="none" stroke="#669999" stroke-width="2" d="M22.389,80.916h2.345V64.711"/>
<path fill="none" stroke="#FFFFFF" stroke-width="2" d="M25.907,80.916V64.711h2.345"/>
<path fill="none" stroke="#669999" stroke-width="2" d="M25.907,80.916h2.345V64.711"/>
<path fill="none" stroke="#FFFFFF" stroke-width="2" d="M29.745,80.916V64.711h2.345"/>
<path fill="none" stroke="#669999" stroke-width="2" d="M29.745,80.916h2.345V64.711"/>
<path fill="none" stroke="#FFFFFF" stroke-width="2" d="M33.583,80.916V64.711h2.345"/>
<path fill="none" stroke="#669999" stroke-width="2" d="M33.583,80.916h2.345V64.711"/>
<path fill="none" stroke="#FFFFFF" stroke-width="2" d="M37.42,80.916V64.711h2.345"/>
<path fill="none" stroke="#669999" stroke-width="2" d="M37.42,80.916h2.345V64.711"/>
<path fill="none" stroke="#FFFFFF" stroke-width="2" d="M41.258,80.916V64.711h2.345"/>
<path fill="none" stroke="#669999" stroke-width="2" d="M41.258,80.916h2.345V64.711"/>
<path fill="none" stroke="#FFFFFF" stroke-width="2" d="M44.883,80.916V64.711h2.346"/>
<path fill="none" stroke="#669999" stroke-width="2" d="M44.883,80.916h2.346V64.711"/>
<path fill="none" stroke="#FFFFFF" stroke-width="2" d="M48.721,80.916V64.711h2.345"/>
<path fill="none" stroke="#669999" stroke-width="2" d="M48.721,80.916h2.345V64.711"/>
<path fill="none" stroke="#FFFFFF" stroke-width="2" d="M52.559,80.916V64.711h2.345"/>
<path fill="none" stroke="#669999" stroke-width="2" d="M52.559,80.916h2.345V64.711"/>
<path fill="none" stroke="#FFFFFF" stroke-width="2" d="M56.397,80.916V64.711h2.345"/>
<path fill="none" stroke="#669999" stroke-width="2" d="M56.397,80.916h2.345V64.711"/>
</svg>
