<?xml version="1.0" encoding="utf-8"?>
<!-- Generator: Adobe Illustrator 14.0.0, SVG Export Plug-In . SVG Version: 6.00 Build 43363)  -->
<!DOCTYPE svg PUBLIC "-//W3C//DTD SVG 1.1//EN" "http://www.w3.org/Graphics/SVG/1.1/DTD/svg11.dtd">
<svg version="1.1" id="图层_1" xmlns="http://www.w3.org/2000/svg" xmlns:xlink="http://www.w3.org/1999/xlink" x="0px" y="0px"
	 width="89.979px" height="106.502px" viewBox="0 0 89.979 106.502" enable-background="new 0 0 89.979 106.502"
	 xml:space="preserve">
<path fill="#191919" stroke="#000000" stroke-width="2" d="M8.955,28.464v2.985H25.48v-1.599H11.941v-1.387H8.955z"/>
<path fill="#333333" d="M82.516,38.912v3.092H28.465v-3.092H82.516z"/>
<path fill="#666666" d="M28.465,40.511h2.559v58.315h-2.559V40.511z"/>
<path fill="#666666" d="M79.743,40.511h2.772v58.315h-2.772V40.511z"/>
<path fill="#666666" d="M79.743,78.571v2.559h-48.72v-2.559H79.743z"/>
<path fill="#4C4C4C" stroke="#000000" stroke-width="2" d="M40.512,10.341h2.771v3.092h28.571v-1.492h4.69v4.478H40.512V10.341z"/>
<path fill="#999999" stroke="#000000" stroke-width="2" d="M76.545,4.371h7.356v12.047h-7.356V4.371z"/>
<path fill="#666666" stroke="#000000" stroke-width="2" d="M5.97,16.418H2.986v13.433H5.97V16.418z"/>
<path fill="#CCCCCC" d="M25.48,16.418h54.051v-4.478h5.863v28.357H25.48V16.418z"/>
<path fill="#C7C7C7" d="M25.48,33.475l59.914-10.021v16.844H25.48V33.475z"/>
<path fill="#C2C2C2" d="M25.48,34.541l59.914-10.128v15.885H25.48V34.541z"/>
<path fill="#BDBDBD" d="M25.48,35.927l59.914-10.021v14.393H25.48V35.927z"/>
<path fill="#FFFFFF" d="M26.865,18.017h12.047v6.077H26.865V18.017z"/>
<path fill="#FF6600" d="M26.865,18.017h12.047v2.985H26.865V18.017z"/>
<path fill="#B2B2B2" stroke="#000000" stroke-width="2" d="M25.48,40.298h2.985v63.112H25.48V40.298z"/>
<path fill="#B2B2B2" stroke="#000000" stroke-width="2" d="M82.302,40.298h3.092v63.112h-3.092V40.298z"/>
<path fill="none" stroke="#000000" stroke-width="2" d="M26.865,18.017h12.047v6.077H26.865V18.017"/>
<path fill="none" stroke="#000000" stroke-width="2" d="M25.48,16.418h54.051v-4.478h5.863v28.357H25.48V16.418"/>
<path fill="#7F7F7F" d="M79.531,15.031H40.512v-1.599h39.019V15.031z"/>
<path fill="#999999" d="M79.531,14.819H40.512v-1.173h39.019V14.819z"/>
<path fill="#B2B2B2" d="M79.531,14.606H40.512v-0.854h39.019V14.606z"/>
<path fill="#CCCCCC" d="M79.531,14.606H40.512v-0.854h39.019V14.606z"/>
<path fill="#E5E5E5" d="M79.531,14.392H40.512v-0.426h39.019V14.392z"/>
<path fill="none" stroke="#000000" stroke-width="2" d="M40.512,13.433h39.019"/>
<path fill="none" stroke="#000000" stroke-width="2" d="M79.531,15.031H40.512"/>
<path fill="#7F7F7F" d="M79.531,15.031H40.512v-1.599h39.019V15.031z"/>
<path fill="#B2B2B2" d="M79.531,14.606H40.512v-0.854h39.019V14.606z"/>
<path fill="#CCCCCC" d="M79.531,14.606H40.512v-0.854h39.019V14.606z"/>
<path fill="none" stroke="#000000" stroke-width="2" d="M40.512,13.433h39.019"/>
<path fill="none" stroke="#000000" stroke-width="2" d="M79.531,15.031H40.512"/>
<path fill="#CCCCCC" d="M25.48,4.371h15.032v12.26H25.48V4.371z"/>
<path fill="#C7C7C7" d="M25.48,10.021L40.512,7.57v4.264H25.48V10.021z"/>
<path fill="#C2C2C2" d="M25.48,11.407l15.032-2.452v4.051H25.48V11.407z"/>
<path fill="#BDBDBD" d="M25.48,13.006l15.032-2.665v6.077H25.48V13.006z"/>
<path fill="none" stroke="#000000" stroke-width="2" d="M25.48,4.371h15.032v12.26H25.48V4.371"/>
<path fill="#FFFFFF" d="M26.865,5.97h5.971v7.463h-5.971V5.97z"/>
<path fill="#FF6600" d="M26.865,5.97h5.971v1.386h-5.971V5.97z"/>
<path fill="none" stroke="#000000" stroke-width="2" d="M26.865,5.97h5.971v7.463h-5.971V5.97"/>
<path fill="#E5E5E5" d="M10.341,18.017H25.48v10.447H10.341V18.017z"/>
<path fill="#CCCCCC" d="M10.341,19.403H25.48v2.985H10.341V19.403z"/>
<path fill="#CCCCCC" d="M10.341,23.88H25.48v2.985H10.341V23.88z"/>
<path fill="none" stroke="#000000" stroke-width="2" d="M10.341,18.017H25.48v10.447H10.341V18.017"/>
<path stroke="#000000" stroke-width="2" d="M10.341,18.017h-5.97v10.447h5.97V18.017z"/>
<path fill="none" stroke="#CCCCCC" stroke-width="2" d="M5.97,26.865v-7.463"/>
<path fill="#B2B2B2" stroke="#000000" stroke-width="2" d="M82.516,80.916v3.092H28.465v-3.092H82.516z"/>
<path fill="#999999" d="M65.885,35.927v2.985h-6.077v-2.985H65.885z"/>
<path fill="#4C4C4C" d="M29.851,37.527v1.386h-1.386v-1.386H29.851z"/>
<path fill="#4C4C4C" d="M82.516,37.527v1.386h-1.6v-1.386H82.516z"/>
<path fill="#4C4C4C" d="M55.437,37.527v1.386h-1.492v-1.386H55.437z"/>
<path fill="#CCCCCC" stroke="#000000" stroke-width="2" d="M61.407,8.955H62.9v7.463h-1.492V8.955z"/>
<path fill="#B2B2B2" stroke="#000000" stroke-width="2" d="M73.453,4.371h13.54V2.985h-13.54V4.371z"/>
</svg>
