<?xml version="1.0" encoding="utf-8"?>
<!-- Generator: Adobe Illustrator 14.0.0, SVG Export Plug-In . SVG Version: 6.00 Build 43363)  -->
<!DOCTYPE svg PUBLIC "-//W3C//DTD SVG 1.1//EN" "http://www.w3.org/Graphics/SVG/1.1/DTD/svg11.dtd">
<svg version="1.1" id="图层_1" xmlns="http://www.w3.org/2000/svg" xmlns:xlink="http://www.w3.org/1999/xlink" x="0px" y="0px"
	 width="134.504px" height="106.502px" viewBox="0 0 134.504 106.502" enable-background="new 0 0 134.504 106.502"
	 xml:space="preserve">
<path fill="#7F7F7F" stroke="#000000" stroke-width="2" d="M25.042,67.321h73.917v35.41H25.042V67.321z"/>
<path stroke="#000000" stroke-width="2" d="M25.042,67.321h73.917l20.6-20.33H45.373L25.042,67.321z"/>
<path stroke="#000000" stroke-width="2" d="M119.559,46.99l-20.6,20.33v35.41l20.6-20.6V46.99z"/>
<path fill="#F0F0F0" stroke="#000000" stroke-width="2" d="M3.635,56.146h116.462v10.367l-29.082,1.615H32.717L3.635,66.513V56.146z
	"/>
<path fill="#F0F0F0" stroke="#000000" stroke-width="2" d="M3.635,56.146h116.462l10.636-10.502H14.541L3.635,56.146z"/>
<path fill="#B2B2B2" stroke="#000000" stroke-width="2" d="M120.098,66.513l10.636-10.637V45.644l-10.636,10.502V66.513z"/>
<path fill="#E0E0E0" stroke="#000000" stroke-width="2" d="M26.793,24.237h74.186v35.141H26.793V24.237z"/>
<path fill="#E0E0E0" stroke="#000000" stroke-width="2" d="M26.793,24.237h74.186l20.33-20.6H47.393L26.793,24.237z"/>
<path fill="#CCCCCC" stroke="#000000" stroke-width="2" d="M121.309,3.906l-20.33,20.33v35.141l20.33-20.33V3.906z"/>
<path fill="#CCCCCC" stroke="#000000" stroke-width="2" d="M23.965,26.526h20.465v42.007H23.965V26.526z"/>
<path fill="#CCCCCC" stroke="#000000" stroke-width="2" d="M23.965,26.526h20.465l2.962-2.827h-20.6L23.965,26.526z"/>
<path fill="#CCCCCC" stroke="#000000" stroke-width="2" d="M47.393,23.698l-2.962,2.827v42.007l2.962-3.231V23.698z"/>
<path d="M28.813,29.083l2.02,2.02l-2.02,1.616l-2.02-1.616L28.813,29.083z"/>
<path d="M28.813,33.392l2.02,2.02l-2.02,1.885l-2.02-1.885L28.813,33.392z"/>
<path d="M37.564,33.661l1.75,2.02l-1.75,1.885l-1.885-1.885L37.564,33.661z"/>
<path d="M28.813,38.508l2.02,2.02l-2.02,1.616l-2.02-1.616L28.813,38.508z"/>
<path d="M28.813,43.086l2.02,2.02l-2.02,1.885l-2.02-1.885L28.813,43.086z"/>
<path d="M28.813,47.933l2.02,2.02l-2.02,1.616l-2.02-1.616L28.813,47.933z"/>
<path d="M28.813,52.511l2.02,2.02l-2.02,1.885l-2.02-1.885L28.813,52.511z"/>
<path d="M28.813,57.358l2.02,2.02l-2.02,2.02l-2.02-2.02L28.813,57.358z"/>
<path d="M28.813,61.936l2.02,2.02l-2.02,1.885l-2.02-1.885L28.813,61.936z"/>
<path fill="#FF0000" d="M28.139,29.892h0.942v2.02h-0.942V29.892z"/>
<path fill="#FF0000" d="M28.139,34.199h0.942v2.289h-0.942V34.199z"/>
<path fill="#FF0000" d="M28.139,34.199h0.942v2.289h-0.942V34.199z"/>
<path fill="#00FF00" d="M37.025,34.469h0.942v2.289h-0.942V34.469z"/>
<path fill="#FF0000" d="M28.139,39.316h0.942v2.021h-0.942V39.316z"/>
<path fill="#FF0000" d="M28.139,43.894h0.942v2.289h-0.942V43.894z"/>
<path fill="#FF0000" d="M28.139,48.74h0.942v2.289h-0.942V48.74z"/>
<path fill="#FF0000" d="M28.139,53.319h0.942v2.289h-0.942V53.319z"/>
<path fill="#FF0000" d="M28.139,58.165h0.942v2.289h-0.942V58.165z"/>
<path fill="#FF0000" d="M28.139,62.743h0.942v2.289h-0.942V62.743z"/>
<path d="M33.121,41.336h8.751l-1.077,5.116h-6.059L33.121,41.336z"/>
<path fill="#FFFFFF" stroke="#000000" stroke-width="2" d="M33.929,41.874h7.405l-0.539,2.962h-6.059L33.929,41.874z"/>
<path fill="none" stroke="#000000" stroke-width="2" d="M38.237,42.817l-0.673,2.02"/>
<path fill="none" stroke="#000000" stroke-width="2" d="M34.467,41.874v0.673"/>
<path fill="none" stroke="#000000" stroke-width="2" d="M35.41,41.874v0.673"/>
<path fill="none" stroke="#000000" stroke-width="2" d="M35.948,41.874v0.673"/>
<path fill="none" stroke="#000000" stroke-width="2" d="M36.756,41.874v0.673"/>
<path fill="none" stroke="#000000" stroke-width="2" d="M37.564,41.874v0.673"/>
<path fill="none" stroke="#000000" stroke-width="2" d="M38.506,41.874v0.673"/>
<path fill="none" stroke="#000000" stroke-width="2" d="M39.314,41.874v0.673"/>
<path fill="none" stroke="#000000" stroke-width="2" d="M40.257,41.874v0.673"/>
<path fill="none" stroke="#000000" stroke-width="2" d="M41.064,41.874v0.673"/>
<path fill="#F0F0F0" stroke="#000000" stroke-width="2" d="M51.566,29.892h41.199v39.987H51.566V29.892z"/>
<path fill="#F0F0F0" stroke="#000000" stroke-width="2" d="M51.566,29.892h41.199l2.289-2.02H53.586L51.566,29.892z"/>
<path fill="#F0F0F0" stroke="#000000" stroke-width="2" d="M95.055,27.872l-2.289,2.02v39.987l2.289-2.289V27.872z"/>
<path fill="#FF0000" stroke="#000000" stroke-width="2" d="M71.896,34.469l2.559,0.942l1.211,2.559l-1.211,2.558l-2.559,0.809
	l-2.289-0.809l-1.076-2.558l1.076-2.559L71.896,34.469z"/>
<path fill="#FF0000" stroke="#000000" stroke-width="2" d="M93.573,34.739h0.942v2.02h-0.942V34.739z"/>
<path fill="#00FF00" stroke="#000000" stroke-width="2" d="M93.573,38.508h0.942v2.02h-0.942V38.508z"/>
<path fill="#B2B2B2" stroke="#000000" stroke-width="2" d="M25.312,71.091h10.636v9.424l-0.539,0.539l-10.636-9.425L25.312,71.091z"
	/>
<path fill="#F0F0F0" stroke="#000000" stroke-width="2" d="M24.773,71.629H35.41v9.425H24.773V71.629z"/>
<path fill="#7F7F7F" stroke="#000000" stroke-width="2" d="M29.351,71.36h2.02v-0.538h-2.02V71.36z"/>
<path stroke="#000000" stroke-width="2" d="M29.62,68.802h1.481v2.02H29.62V68.802z"/>
<path fill="#F0F0F0" stroke="#000000" stroke-width="2" d="M103.268,39.585l15.752-15.618h5.386l-15.349,32.448h-5.789V39.585z"/>
<path fill="#7F7F7F" stroke="#000000" stroke-width="2" d="M108.787,39.585l15.618-15.618v17.1l-15.618,15.349V39.585z"/>
</svg>
