<?xml version="1.0" encoding="utf-8"?>
<!-- Generator: Adobe Illustrator 14.0.0, SVG Export Plug-In . SVG Version: 6.00 Build 43363)  -->
<!DOCTYPE svg PUBLIC "-//W3C//DTD SVG 1.1//EN" "http://www.w3.org/Graphics/SVG/1.1/DTD/svg11.dtd">
<svg version="1.1" id="图层_1" xmlns="http://www.w3.org/2000/svg" xmlns:xlink="http://www.w3.org/1999/xlink" x="0px" y="0px"
	 width="43.279px" height="106.502px" viewBox="0 0 43.279 106.502" enable-background="new 0 0 43.279 106.502"
	 xml:space="preserve">
<path d="M8.102,10.026h26.97v91.462H8.102V10.026z"/>
<path fill="#212121" d="M8.741,10.026H31.98v91.462H8.741V10.026z"/>
<path fill="#454545" d="M9.381,10.026h19.721v91.462H9.381V10.026z"/>
<path fill="#666666" d="M10.021,10.026H26.01v91.462H10.021V10.026z"/>
<path fill="#8A8A8A" d="M10.659,10.026h12.366v91.462H10.659V10.026z"/>
<path fill="#ABABAB" d="M11.406,10.026h8.527v91.462h-8.527V10.026z"/>
<path fill="#CFCFCF" d="M12.046,10.026h4.903v91.462h-4.903V10.026z"/>
<path fill="#F0F0F0" d="M12.578,10.026h1.386v91.462h-1.386V10.026z"/>
<path fill="none" stroke="#000000" stroke-width="2" d="M8.102,10.026h26.97v91.462H8.102V10.026"/>
<path fill="#B2B2B2" stroke="#000000" stroke-width="2" d="M4.264,11.411h1.492v90.608H4.264V11.411z"/>
<path fill="#FFFFFF" d="M4.904,11.518H4.37V101.7h0.533V11.518z"/>
<path fill="#B2B2B2" d="M11.086,26.442h20.36v8.635h-20.36V26.442z"/>
<path fill="#BABABA" d="M11.513,26.442h17.589v8.635H11.513V26.442z"/>
<path fill="#C4C4C4" d="M12.046,26.442h14.816v8.635H12.046V26.442z"/>
<path fill="#CCCCCC" d="M12.153,26.442h12.365v8.635H12.153V26.442z"/>
<path fill="#D6D6D6" d="M12.578,26.442h9.487v8.635h-9.487V26.442z"/>
<path fill="#DEDEDE" d="M13.112,26.442h6.609v8.635h-6.609V26.442z"/>
<path fill="#E8E8E8" d="M13.218,26.442h4.157v8.635h-4.157V26.442z"/>
<path fill="#F0F0F0" d="M13.751,26.442h1.279v8.635h-1.279V26.442z"/>
<path fill="none" stroke="#000000" stroke-width="2" d="M11.086,26.442h20.36v8.635h-20.36V26.442"/>
<path fill="#B2B2B2" stroke="#000000" stroke-width="2" d="M37.416,11.411h1.599v90.608h-1.599V11.411z"/>
<path fill="#FFFFFF" d="M38.056,11.518h-0.427V101.7h0.427V11.518z"/>
<path fill="#B2B2B2" stroke="#000000" stroke-width="2" d="M21,11.411h1.599v90.608H21V11.411z"/>
<path fill="#FFFFFF" d="M21.64,11.518h-0.32V101.7h0.32V11.518z"/>
<path d="M2.878,8.107h37.416v5.649H2.878V8.107z"/>
<path fill="#212121" d="M3.837,8.107h32.3v5.649h-32.3V8.107z"/>
<path fill="#454545" d="M4.691,8.107H31.98v5.649H4.691V8.107z"/>
<path fill="#666666" d="M5.756,8.107h21.96v5.649H5.756V8.107z"/>
<path fill="#8A8A8A" d="M6.61,8.107h17.056v5.649H6.61V8.107z"/>
<path fill="#ABABAB" d="M7.462,8.107h11.832v5.649H7.462V8.107z"/>
<path fill="#CFCFCF" d="M8.315,8.107h6.929v5.649H8.315V8.107z"/>
<path fill="#F0F0F0" d="M9.167,8.107h1.706v5.649H9.167V8.107z"/>
<path fill="none" stroke="#000000" stroke-width="2" d="M2.878,8.107h37.416v5.649H2.878V8.107"/>
<path d="M9.594,8.107h8.208V2.883H9.594V8.107z"/>
<path fill="#212121" d="M9.807,8.107h7.143V2.883H9.807V8.107z"/>
<path fill="#454545" d="M10.021,8.107h6.076V2.883h-6.076V8.107z"/>
<path fill="#666666" d="M10.234,8.107h4.797V2.883h-4.797V8.107z"/>
<path fill="#8A8A8A" d="M10.447,8.107h3.731V2.883h-3.731V8.107z"/>
<path fill="#ABABAB" d="M10.659,8.107h2.559V2.883h-2.559V8.107z"/>
<path fill="#CFCFCF" d="M10.659,8.107h1.493V2.883h-1.493V8.107z"/>
<path fill="#F0F0F0" d="M10.873,8.107h0.533V2.883h-0.533V8.107z"/>
<path fill="none" stroke="#000000" stroke-width="2" d="M9.594,8.107h8.208V2.883H9.594V8.107"/>
<path d="M2.878,97.863h37.416v5.65H2.878V97.863z"/>
<path fill="#212121" d="M3.837,97.863h32.3v5.65h-32.3V97.863z"/>
<path fill="#454545" d="M4.691,97.863H31.98v5.65H4.691V97.863z"/>
<path fill="#666666" d="M5.756,97.863h21.96v5.65H5.756V97.863z"/>
<path fill="#8A8A8A" d="M6.61,97.863h17.056v5.65H6.61V97.863z"/>
<path fill="#ABABAB" d="M7.462,97.863h11.832v5.65H7.462V97.863z"/>
<path fill="#CFCFCF" d="M8.315,97.863h6.929v5.65H8.315V97.863z"/>
<path fill="#F0F0F0" d="M9.167,97.863h1.706v5.65H9.167V97.863z"/>
<path fill="none" stroke="#000000" stroke-width="2" d="M2.878,97.863h37.416v5.65H2.878V97.863"/>
<path d="M2.878,50.853h37.416v5.33H2.878V50.853z"/>
<path fill="#212121" d="M3.837,50.853h32.3v5.33h-32.3V50.853z"/>
<path fill="#454545" d="M4.691,50.853H31.98v5.33H4.691V50.853z"/>
<path fill="#666666" d="M5.756,50.853h21.96v5.33H5.756V50.853z"/>
<path fill="#8A8A8A" d="M6.61,50.853h17.056v5.33H6.61V50.853z"/>
<path fill="#ABABAB" d="M7.462,50.853h11.832v5.33H7.462V50.853z"/>
<path fill="#CFCFCF" d="M8.315,50.853h6.929v5.33H8.315V50.853z"/>
<path fill="#F0F0F0" d="M9.167,50.853h1.706v5.33H9.167V50.853z"/>
<path fill="none" stroke="#000000" stroke-width="2" d="M2.878,50.853h37.416v5.33H2.878V50.853"/>
</svg>
