<?xml version="1.0" encoding="utf-8"?>
<!-- Generator: Adobe Illustrator 14.0.0, SVG Export Plug-In . SVG Version: 6.00 Build 43363)  -->
<!DOCTYPE svg PUBLIC "-//W3C//DTD SVG 1.1//EN" "http://www.w3.org/Graphics/SVG/1.1/DTD/svg11.dtd">
<svg version="1.1" id="图层_1" xmlns="http://www.w3.org/2000/svg" xmlns:xlink="http://www.w3.org/1999/xlink" x="0px" y="0px"
	 width="90.936px" height="106.502px" viewBox="0 0 90.936 106.502" enable-background="new 0 0 90.936 106.502"
	 xml:space="preserve">
<path fill="#0000E0" d="M7.356,78.677h4.371l3.945-0.64l3.944-1.173l0.426-0.426h0.213l3.305-1.6l2.985-2.346l11.3-11.3l1.599-2.346
	l0.213-1.813v-0.213v26.012l-1.172,1.706l-11.94,11.727l-2.985,2.559l-3.944,1.813l-3.944,1.386l-3.945,0.533H7.356l-2.985-0.533
	l-1.386-1.386V76.865l1.386,1.173L7.356,78.677z"/>
<path fill="#0000AD" d="M14.499,76.652v25.692l1.173-0.32l3.944-1.386l3.944-1.813l1.813-1.599l1.173-0.96l11.94-11.727l0.746-0.959
	l0.426-0.747V56.823l-2.025,4.371l-11.087,11.3l-2.985,2.346l-3.305,1.6L14.499,76.652z"/>
<path fill="#0000BF" d="M5.011,102.024V76.865H2.985v23.561v0.213l1.386,1.386H5.011z"/>
<path fill="#0000FF" stroke="#000000" stroke-width="2" d="M7.356,78.677h4.371l3.945-0.427l3.944-1.386l3.944-2.025l2.985-2.346
	l11.3-11.3l1.599-2.346l0.213-2.025l-1.386-1.173l-2.985-0.746h-4.371l-3.944,0.746l-3.944,1.173l-3.838,2.025l-3.305,2.346
	l-11.087,11.3l-1.599,2.346l-0.213,2.025l1.386,1.386L7.356,78.677z"/>
<path fill="none" stroke="#000000" stroke-width="2" d="M7.356,78.677h4.371l3.945-0.64l3.944-1.173l0.426-0.426h0.213l3.305-1.6
	l2.985-2.346l11.3-11.3l1.599-2.346l0.213-1.813v-0.213v26.012l-1.172,1.706l-11.94,11.727l-2.985,2.559l-3.944,1.813l-3.944,1.386
	l-3.945,0.533H7.356l-2.985-0.533l-1.386-1.386V76.865l1.386,1.173L7.356,78.677"/>
<path fill="#F0F0F0" stroke="#000000" stroke-width="2" d="M60.02,50.746l-5.331,5.543l-0.639,2.559v26.865l0.639,1.492l5.331-5.224
	l23.773-1.386V53.731L60.02,50.746z"/>
<path fill="#F0F0F0" stroke="#000000" stroke-width="2" d="M56.289,87.739h23.134l2.772-0.533l5.33-5.224l-1.813-0.213H62.579
	l-2.772,0.213l-5.33,5.224L56.289,87.739z"/>
<path fill="#F0F0F0" stroke="#000000" stroke-width="2" d="M56.289,56.823h23.134l2.345,2.025v26.865l-2.345,2.025H56.289
	l-2.025-2.025V58.848L56.289,56.823z"/>
<path fill="#E0E0E0" stroke="#000000" stroke-width="2" d="M56.289,56.823h23.134l2.772-0.533l5.33-5.543l-1.813-0.214H62.579
	l-2.772,0.427l-5.33,5.33L56.289,56.823z"/>
<path fill="#E0E0E0" stroke="#000000" stroke-width="2" d="M87.525,50.746l-5.33,5.543l-0.428,2.559v26.865l0.428,1.492l5.33-5.224
	l0.426-2.771V52.345L87.525,50.746z"/>
<path fill="#00007F" d="M23.24,24.414h15.245v35.606H23.24V24.414z"/>
<path fill="#0000E0" d="M24.2,24.414h6.184v35.606H24.2V24.414z"/>
<path fill="#0000FF" d="M24.946,24.414h1.066v35.606h-1.066V24.414z"/>
<path fill="none" stroke="#000000" stroke-width="2" d="M23.24,24.414h15.245v35.606H23.24V24.414"/>
<path fill="#000066" stroke="#000000" stroke-width="2" d="M38.485,59.808l-0.64,0.64l-1.706,0.426l-2.239,0.32l-2.985,0.213
	l-2.985-0.213l-2.345-0.32l-1.813-0.426l-0.533-0.64v-1.706l0.533,0.746l1.813,0.533l2.345,0.106l2.985,0.32l2.985-0.32l2.239-0.106
	l1.706-0.533l0.64-0.746V59.808z"/>
<path fill="#00007F" d="M62.579,24.414H77.61v29.316H62.579V24.414z"/>
<path fill="#0000E0" d="M63.539,24.414h6.183v29.316h-6.183V24.414z"/>
<path fill="#0000FF" d="M63.964,24.414h1.173v29.316h-1.173V24.414z"/>
<path fill="none" stroke="#000000" stroke-width="2" d="M62.579,24.414H77.61v29.316H62.579V24.414"/>
<path fill="#000066" stroke="#000000" stroke-width="2" d="M77.824,53.518l-0.746,0.533l-1.6,0.64l-2.238,0.213l-2.985,0.213
	l-3.092-0.213l-2.559-0.213l-1.599-0.64l-0.641-0.533v-1.6l0.641,0.747l1.599,0.426l2.559,0.214l3.092,0.213l2.985-0.213
	l2.238-0.214l1.6-0.426l0.746-0.747V53.518z"/>
<path fill="#0000BF" stroke="#000000" stroke-width="2" d="M78.462,21.856l-1.599-7.356l-3.944-6.076l-6.184-3.838l-7.249-1.6
	H42.643l-7.356,1.6l-5.97,3.838l-2.559,2.665l-2.985,10.768l10.874,5.117l2.452-2.559v-2.559l1.706-3.625l3.838-1.706h16.844
	l16.524,10.448l2.451-2.559V21.856z"/>
<path fill="#0000E0" stroke="#000000" stroke-width="2" d="M76.011,24.414l-1.706-7.356l-3.944-5.97l-6.184-3.944l-7.143-1.706
	H40.191l-7.462,1.706l-5.97,3.944l-4.158,5.97l-1.386,7.356v2.559H34.86l-0.213-2.559l1.492-3.731l4.051-1.493h16.844l3.731,1.493
	l1.599,3.731v2.559h13.646V24.414z"/>
<path fill="#F0F0F0" stroke="#000000" stroke-width="2" d="M41.577,66.524l-5.437,5.224l-0.426,2.879v26.758l0.426,1.6l5.437-5.33
	l23.773-1.387V69.509L41.577,66.524z"/>
<path fill="#F0F0F0" stroke="#000000" stroke-width="2" d="M37.846,103.409h23.027l2.879-0.426l5.224-5.33l-1.813-0.427H44.029
	l-2.452,0.427l-5.437,5.33L37.846,103.409z"/>
<path fill="#F0F0F0" stroke="#000000" stroke-width="2" d="M37.846,72.493h23.027l2.346,2.133v26.758l-2.346,2.025H37.846
	l-2.132-2.025V74.626L37.846,72.493z"/>
<path fill="#E0E0E0" stroke="#000000" stroke-width="2" d="M37.846,72.493h23.027l2.879-0.532l5.224-5.438l-1.813-0.319H44.029
	l-2.452,0.532l-5.437,5.225L37.846,72.493z"/>
<path fill="#E0E0E0" stroke="#000000" stroke-width="2" d="M68.975,66.524l-5.224,5.224l-0.533,2.879v26.758l0.533,1.6l5.224-5.33
	l0.746-2.772V68.123L68.975,66.524z"/>
<path fill="#00007F" d="M45.948,37.846h15.245v31.663H45.948V37.846z"/>
<path fill="#0000E0" d="M47.013,37.846h6.291v31.663h-6.291V37.846z"/>
<path fill="#0000FF" d="M47.546,37.846h1.174v31.663h-1.174V37.846z"/>
<path fill="none" stroke="#000000" stroke-width="2" d="M45.948,37.846h15.245v31.663H45.948V37.846"/>
<path fill="#000066" stroke="#000000" stroke-width="2" d="M20.042,75.479l-0.426,0.533l-1.706,0.64l-2.452,0.213l-2.985,0.214
	l-3.092-0.214l-2.239-0.213l-1.706-0.64l-0.64-0.533V73.88l0.64,0.746l1.706,0.426l2.239,0.214l3.092,0.213l2.985-0.213l2.452-0.214
	l1.706-0.426l0.426-0.746V75.479z"/>
<path fill="#000066" stroke="#000000" stroke-width="2" d="M61.406,69.295l-0.64,0.427l-1.706,0.64l-2.559,0.32l-2.771,0.213
	l-2.984-0.213l-2.453-0.32l-1.705-0.64l-0.64-0.427V67.59l0.64,0.746l1.705,0.427l2.453,0.213l2.984,0.319l2.771-0.319l2.559-0.213
	l1.706-0.427l0.64-0.746V69.295z"/>
<path fill="#FF6600" stroke="#000000" stroke-width="2" d="M31.769,65.351l-0.213,0.854l-0.64,0.319H16.844l-0.533-0.319
	l-0.213-0.854V47.015l7.889-0.427l7.782,0.427V65.351z"/>
<path fill="#E07A14" stroke="#000000" stroke-width="2" d="M15.458,47.015h1.599v18.336l-0.533,0.427l-0.853-0.64l-0.213-0.533
	V47.015z"/>
<path fill="#E07A14" stroke="#000000" stroke-width="2" d="M17.057,47.015l1.386-0.106v18.869H18.23l-0.747-0.427l-0.426-0.746
	V47.015z"/>
<path fill="#FF9933" stroke="#000000" stroke-width="2" d="M18.87,46.908h0.959v18.869h-0.213l-0.746-1.173V46.908z"/>
<path fill="#FF9933" stroke="#000000" stroke-width="2" d="M20.255,46.908l1.173-0.32v19.189h-0.213l-0.959-1.173V46.908z"/>
<path fill="#FF9933" stroke="#000000" stroke-width="2" d="M21.854,46.588h0.959v18.977l-0.213,0.213l-0.746-1.173V46.588z"/>
<path fill="#BF1400" stroke="#000000" stroke-width="2" d="M24.2,46.588h-0.426H23.56v18.017l0.64,1.386v-0.426V46.588z"/>
<path fill="#BF1400" stroke="#000000" stroke-width="2" d="M25.159,46.588h0.64v19.189l-0.64-1.173V46.588z"/>
<path fill="#BF1400" stroke="#000000" stroke-width="2" d="M26.545,46.908h0.853v18.656v0.213l-0.853-1.173V46.908z"/>
<path fill="#BF1400" stroke="#000000" stroke-width="2" d="M27.931,46.908h1.066v18.656v0.213l-1.066-1.173V46.908z"/>
<path fill="#BF1400" stroke="#000000" stroke-width="2" d="M29.317,46.908l1.386,0.106v18.55l-0.32,0.213l-1.066-1.173V46.908z"/>
<path stroke="#000000" stroke-width="2" d="M28.784,43.817H18.443l-2.132,0.213l-0.853,0.746v2.239h16.311v-2.239l-0.64-0.746
	L28.784,43.817z"/>
<path fill="#BF1400" stroke="#000000" stroke-width="2" d="M31.769,66.204l-0.64,0.746l-1.813,0.426l-2.559,0.533h-2.985h-3.198
	l-2.665-0.533l-1.599-0.426l-0.64-0.746v-1.6l0.64,0.746l1.599,0.427l2.665,0.427h3.198h2.985l2.559-0.427l1.813-0.427l0.64-0.746
	V66.204z"/>
<path fill="#00007F" d="M4.797,38.806h15.245v36.673H4.797V38.806z"/>
<path fill="#0000E0" d="M5.97,38.806h5.97v36.673H5.97V38.806z"/>
<path fill="#0000FF" d="M6.396,38.806h1.173v36.673H6.396V38.806z"/>
<path fill="none" stroke="#000000" stroke-width="2" d="M4.797,38.806h15.245v36.673H4.797V38.806"/>
<path fill="#0000BF" stroke="#000000" stroke-width="2" d="M61.832,36.034l-1.385-7.463l-4.158-5.97l-5.97-4.158l-7.463-1.386
	H26.012l-7.143,1.386l-6.184,4.158l-2.345,2.559L7.143,36.034l11.087,4.797l2.452-2.559v-2.238l1.599-3.944l3.731-1.706h16.844
	L59.38,40.831l2.451-2.559V36.034z"/>
<path fill="#0000E0" stroke="#000000" stroke-width="2" d="M59.38,38.486l-1.492-7.355l-4.158-5.97l-5.97-4.158l-7.356-1.386H23.56
	l-7.249,1.386l-6.183,4.158l-3.945,5.97l-1.599,7.355v2.559H18.23v-2.559l1.599-3.837l3.731-1.6h16.844l3.838,1.6l1.706,3.837v2.559
	h13.539L59.38,38.486z"/>
</svg>
