<?xml version="1.0" encoding="utf-8"?>
<!-- Generator: Adobe Illustrator 14.0.0, SVG Export Plug-In . SVG Version: 6.00 Build 43363)  -->
<!DOCTYPE svg PUBLIC "-//W3C//DTD SVG 1.1//EN" "http://www.w3.org/Graphics/SVG/1.1/DTD/svg11.dtd">
<svg version="1.1" id="图层_1" xmlns="http://www.w3.org/2000/svg" xmlns:xlink="http://www.w3.org/1999/xlink" x="0px" y="0px"
	 width="72.706px" height="106.502px" viewBox="0 0 72.706 106.502" enable-background="new 0 0 72.706 106.502"
	 xml:space="preserve">
<path fill="#336666" stroke="#000000" stroke-width="2" d="M68.441,95.2l-1.492,1.6V58.208l1.492-1.599V95.2z"/>
<path fill="#336666" stroke="#000000" stroke-width="2" d="M18.763,95.2l-1.599,1.6V58.208l1.599-1.599V95.2z"/>
<path fill="#8ABDBD" stroke="#000000" stroke-width="2" d="M62.578,96.8h4.371V58.208h-4.371V96.8z"/>
<path fill="#8ABDBD" stroke="#000000" stroke-width="2" d="M12.793,96.8h4.371V58.208h-4.371V96.8z"/>
<path fill="#336666" stroke="#000000" stroke-width="2" d="M10.98,101.811l-1.706,1.599V65.031l1.706-1.6V101.811z"/>
<path fill="#99CCCC" d="M2.985,12.794h58.421v52.237H2.985V12.794z"/>
<path fill="#94C7C7" d="M2.985,49.999l58.421-21.961v36.993H2.985V49.999z"/>
<path fill="#8FC2C2" d="M2.985,52.026l58.421-21.854v34.86H2.985V52.026z"/>
<path fill="#8ABDBD" d="M2.985,55.437l58.421-21.854v31.449H2.985V55.437z"/>
<path fill="none" stroke="#000000" stroke-width="2" d="M2.985,12.794h58.421v52.237H2.985V12.794"/>
<path fill="#336666" stroke="#000000" stroke-width="2" d="M61.192,101.811l-1.599,1.599V65.031l1.599-1.6V101.811z"/>
<path fill="#8ABDBD" stroke="#000000" stroke-width="2" d="M2.985,12.794h58.207l8.209-8.209H11.194L2.985,12.794z"/>
<path fill="#4C4C4C" stroke="#000000" stroke-width="2" d="M15.245,5.865h47.333l-5.01,5.33H10.021L15.245,5.865z"/>
<path fill="#336666" stroke="#000000" stroke-width="2" d="M69.72,4.585l-8.528,8.209v52.237l8.528-8.103V4.585z"/>
<path fill="#8ABDBD" stroke="#000000" stroke-width="2" d="M5.011,103.409h4.264V65.031H5.011V103.409z"/>
<path fill="#8ABDBD" stroke="#000000" stroke-width="2" d="M55.329,103.409h4.265V65.031h-4.265V103.409z"/>
<path fill="#8ABDBD" stroke="#000000" stroke-width="2" d="M10.021,10.555h5.757v2.239h-5.757V10.555z"/>
<path fill="#336666" stroke="#000000" stroke-width="2" d="M23.027,2.987l-7.249,7.568v2.239l7.249-7.356V2.987z"/>
<path fill="#8ABDBD" stroke="#000000" stroke-width="2" d="M10.021,10.555h5.757l7.569-7.568H17.59L10.021,10.555z"/>
<path fill="#8ABDBD" stroke="#000000" stroke-width="2" d="M49.999,10.555h5.649v2.239h-5.649V10.555z"/>
<path fill="#336666" stroke="#000000" stroke-width="2" d="M63.004,2.987l-7.356,7.568v2.239l7.356-7.356V2.987z"/>
<path fill="#8ABDBD" stroke="#000000" stroke-width="2" d="M49.999,10.555h5.649l7.57-7.568h-5.65L49.999,10.555z"/>
<path stroke="#000000" stroke-width="2" d="M16.417,22.069l-0.64-1.599l-1.599-0.64l-1.599,0.64l-0.746,1.599l0.746,1.919
	l1.599,0.64l1.599-0.64L16.417,22.069z"/>
<path stroke="#000000" stroke-width="2" d="M16.417,30.171l-0.64-1.6l-1.599-0.746l-1.599,0.746l-0.746,1.6l0.746,1.599l1.599,0.64
	l1.599-0.64L16.417,30.171z"/>
<path fill="#FF0000" d="M15.991,22.069l-0.427-1.065l-1.386-0.533l-1.173,0.533l-0.746,1.065l0.746,1.493l1.173,0.426l1.386-0.426
	L15.991,22.069z"/>
<path fill="#00FF00" d="M15.991,30.171l-0.427-1.173l-1.386-0.746l-1.173,0.746l-0.746,1.173l0.746,1.386l1.173,0.427l1.386-0.427
	L15.991,30.171z"/>
<path fill="none" stroke="#FFFFFF" stroke-width="2" d="M7.036,35.821V17.378h14.179"/>
<path fill="none" stroke="#999999" stroke-width="2" d="M7.036,35.821h14.179V17.378"/>
</svg>
