<?xml version="1.0" encoding="utf-8"?>
<!-- Generator: Adobe Illustrator 14.0.0, SVG Export Plug-In . SVG Version: 6.00 Build 43363)  -->
<!DOCTYPE svg PUBLIC "-//W3C//DTD SVG 1.1//EN" "http://www.w3.org/Graphics/SVG/1.1/DTD/svg11.dtd">
<svg version="1.1" id="图层_1" xmlns="http://www.w3.org/2000/svg" xmlns:xlink="http://www.w3.org/1999/xlink" x="0px" y="0px"
	 width="144.749px" height="96.645px" viewBox="0 0 144.749 96.645" enable-background="new 0 0 144.749 96.645"
	 xml:space="preserve">
<path fill="#CCCCCC" stroke="#000000" stroke-width="2" d="M4.057,25.067h1.594l15.214-14.924h-1.594L4.057,25.067z"/>
<path fill="#CCCCCC" stroke="#000000" stroke-width="2" d="M4.057,81.286h1.594l15.214-15.213h-1.594L4.057,81.286z"/>
<path fill="#E0E0E0" stroke="#000000" stroke-width="2" d="M7.679,19.707h116.35v71.722H7.679V19.707z"/>
<path fill="#CCCCCC" stroke="#000000" stroke-width="2" d="M7.679,19.707h116.35l14.634-14.634H22.313L7.679,19.707z"/>
<path fill="#999999" stroke="#000000" stroke-width="2" d="M138.663,5.072l-14.634,14.634v71.722l14.634-14.924V5.072z"/>
<path fill="#F0F0F0" stroke="#000000" stroke-width="2" d="M16.953,19.707h2.463v72.882h-2.463V19.707z"/>
<path fill="#F0F0F0" stroke="#000000" stroke-width="2" d="M16.953,19.707h2.463L35.209,4.058h-2.463L16.953,19.707z"/>
<path fill="#7F7F7F" stroke="#000000" stroke-width="2" d="M20.575,19.707h-1.159L35.209,4.058v1.015L20.575,19.707z"/>
<path fill="#7F7F7F" stroke="#000000" stroke-width="2" d="M20.575,19.707h-1.159v72.882l1.159-1.16V19.707z"/>
<path fill="#F0F0F0" stroke="#000000" stroke-width="2" d="M110.553,19.707h2.753v72.882h-2.753V19.707z"/>
<path fill="#F0F0F0" stroke="#000000" stroke-width="2" d="M110.553,19.707h2.753L128.81,4.058h-2.607L110.553,19.707z"/>
<path fill="#7F7F7F" stroke="#000000" stroke-width="2" d="M114.466,19.707h-1.159L129.1,4.058v1.015L114.466,19.707z"/>
<path fill="#7F7F7F" stroke="#000000" stroke-width="2" d="M114.177,19.707h-0.87v72.882l0.87-1.16V19.707z"/>
<path fill="#F0F0F0" stroke="#000000" stroke-width="2" d="M46.656,19.707h2.607v72.882h-2.607V19.707z"/>
<path fill="#F0F0F0" stroke="#000000" stroke-width="2" d="M46.656,19.707h2.607L64.913,4.058h-2.464L46.656,19.707z"/>
<path fill="#7F7F7F" stroke="#000000" stroke-width="2" d="M50.423,19.707h-1.159L64.913,4.058v1.015L50.423,19.707z"/>
<path fill="#7F7F7F" stroke="#000000" stroke-width="2" d="M50.134,19.707h-0.87v72.882l0.87-1.16V19.707z"/>
<path fill="#F0F0F0" stroke="#000000" stroke-width="2" d="M79.112,19.707h2.463v72.882h-2.463V19.707z"/>
<path fill="#F0F0F0" stroke="#000000" stroke-width="2" d="M79.112,19.707h2.463L97.369,4.058H94.76L79.112,19.707z"/>
<path fill="#7F7F7F" stroke="#000000" stroke-width="2" d="M82.734,19.707h-1.159L97.369,4.058v1.015L82.734,19.707z"/>
<path fill="#7F7F7F" stroke="#000000" stroke-width="2" d="M82.444,19.707h-0.869v72.882l0.869-1.16V19.707z"/>
<path fill="#E0E0E0" stroke="#000000" stroke-width="2" d="M4.057,25.067h121.275v7.679H4.057V25.067z"/>
<path fill="#E0E0E0" stroke="#000000" stroke-width="2" d="M4.057,81.286h121.275v7.391H4.057V81.286z"/>
<path fill="#CCCCCC" stroke="#000000" stroke-width="2" d="M140.547,10.143l-15.214,14.924v7.679l15.214-15.214V10.143z"/>
<path fill="#CCCCCC" stroke="#000000" stroke-width="2" d="M140.547,66.073l-15.214,15.213v7.391l15.214-14.925V66.073z"/>
<path fill="#E0E0E0" stroke="#000000" stroke-width="2" d="M4.057,25.067h121.275l2.028-1.739H5.94L4.057,25.067z"/>
<path fill="#E0E0E0" stroke="#000000" stroke-width="2" d="M4.057,81.286h121.275l2.028-2.027H5.94L4.057,81.286z"/>
<path fill="#CCCCCC" stroke="#000000" stroke-width="2" d="M123.739,25.067h1.594l15.214-14.924h-1.594L123.739,25.067z"/>
<path fill="#CCCCCC" stroke="#000000" stroke-width="2" d="M123.739,81.286h1.594l15.214-15.213h-1.594L123.739,81.286z"/>
</svg>
