<?xml version="1.0" encoding="utf-8"?>
<!-- Generator: Adobe Illustrator 14.0.0, SVG Export Plug-In . SVG Version: 6.00 Build 43363)  -->
<!DOCTYPE svg PUBLIC "-//W3C//DTD SVG 1.1//EN" "http://www.w3.org/Graphics/SVG/1.1/DTD/svg11.dtd">
<svg version="1.1" id="图层_1" xmlns="http://www.w3.org/2000/svg" xmlns:xlink="http://www.w3.org/1999/xlink" x="0px" y="0px"
	 width="100.958px" height="106.502px" viewBox="0 0 100.958 106.502" enable-background="new 0 0 100.958 106.502"
	 xml:space="preserve">
<path fill="#F0F0F0" stroke="#000000" stroke-width="2" d="M2.985,8.742h94.881v94.668H2.985V8.742z"/>
<path fill="#7F7F7F" d="M94.242,11.833H26.545V2.986H25.16v8.848h-0.64h-0.533h-0.533h-0.64h-0.533h-0.64h-0.533h-0.533h-0.64
	h-0.533H18.87h-0.64h-0.533h-0.64h-0.533h-0.64v2.346v2.346v2.346v2.345v2.346v2.346v2.345v2.346v2.452v2.345v2.346v2.346v2.345
	v2.346v2.452v2.239v2.451v2.346v2.346v2.345v2.452v2.346v2.346v2.345v2.452v2.239v2.452v2.345v2.346v2.346v2.451v2.346h58.208v8.209
	H10.128V2.986H8.742v94.241h85.5V11.833z M34.541,13.22h58.208v6.396H34.541V13.22z M26.545,13.22h6.61v24.093h59.594v7.356H26.545
	V13.22z M17.377,13.22h7.782v53.837h57.888v8.636h-65.67V13.22z M34.541,21.002h58.208v6.823H34.541V21.002z M34.541,29.211h58.208
	v6.609H34.541V29.211z M84.754,46.161h7.995v8.955h-7.995V46.161z M26.545,46.161h56.502v8.955H26.545V46.161z M84.754,56.61h7.995
	v9.062h-7.995V56.61z M26.545,56.61h56.502v9.062H26.545V56.61z M84.754,67.057h7.995v8.636h-7.995V67.057z M84.754,77.185h7.995
	v8.849h-7.995V77.185z M75.692,77.185h7.355v8.849h-7.355V77.185z M17.377,77.185h56.715v8.849H17.377V77.185z M84.754,87.419h7.995
	v8.209h-7.995V87.419z M75.692,87.419h7.355v8.209h-7.355V87.419z"/>
<path fill="none" stroke="#000000" stroke-width="2" d="M94.242,11.833H26.545V2.986H25.16v8.848h-9.275v75.586h58.208v8.209H10.128
	V2.986H8.742v94.241h85.5V11.833"/>
<path fill="none" stroke="#000000" stroke-width="2" d="M34.541,13.22h58.208v6.396H34.541V13.22"/>
<path fill="none" stroke="#000000" stroke-width="2" d="M26.545,13.22h6.61v24.093h59.594v7.356H26.545V13.22"/>
<path fill="none" stroke="#000000" stroke-width="2" d="M17.377,13.22h7.782v53.837h57.888v8.636h-65.67V13.22"/>
<path fill="none" stroke="#000000" stroke-width="2" d="M34.541,21.002h58.208v6.823H34.541V21.002"/>
<path fill="none" stroke="#000000" stroke-width="2" d="M34.541,29.211h58.208v6.609H34.541V29.211"/>
<path fill="none" stroke="#000000" stroke-width="2" d="M84.754,46.161h7.995v8.955h-7.995V46.161"/>
<path fill="none" stroke="#000000" stroke-width="2" d="M26.545,46.161h56.502v8.955H26.545V46.161"/>
<path fill="none" stroke="#000000" stroke-width="2" d="M84.754,56.61h7.995v9.062h-7.995V56.61"/>
<path fill="none" stroke="#000000" stroke-width="2" d="M26.545,56.61h56.502v9.062H26.545V56.61"/>
<path fill="none" stroke="#000000" stroke-width="2" d="M84.754,67.057h7.995v8.636h-7.995V67.057"/>
<path fill="none" stroke="#000000" stroke-width="2" d="M84.754,77.185h7.995v8.849h-7.995V77.185"/>
<path fill="none" stroke="#000000" stroke-width="2" d="M75.692,77.185h7.355v8.849h-7.355V77.185"/>
<path fill="none" stroke="#000000" stroke-width="2" d="M17.377,77.185h56.715v8.849H17.377V77.185"/>
<path fill="none" stroke="#000000" stroke-width="2" d="M84.754,87.419h7.995v8.209h-7.995V87.419"/>
<path fill="none" stroke="#000000" stroke-width="2" d="M75.692,87.419h7.355v8.209h-7.355V87.419"/>
<path fill="#F0F0F0" d="M93.39,11.194H26.013V2.986h-1.706v8.208h-0.533h-0.533h-0.64h-0.533h-0.64h-0.533h-0.64h-0.533h-0.533
	h-0.64h-0.533h-0.64h-0.533h-0.64h-0.533h-0.64v2.346v2.346v2.346v2.345v2.346v2.346v2.451v2.346v2.346v2.345V37.1v2.346v2.452
	v2.345v2.346v2.346v2.452v2.345v2.346v2.346v2.451v2.346v2.346v2.345v2.346v2.346v2.452v2.345v2.346v2.346v2.345v2.346h58.421v8.209
	H9.595V2.986H7.889v93.709h85.5V11.194z M34.008,12.58h57.888v6.396H34.008V12.58z M26.013,12.58h6.396v24.093h59.487v7.356H26.013
	V12.58z M16.524,12.58h7.782v53.837h58.208v8.636h-65.99V12.58z M34.008,20.363h57.888v6.823H34.008V20.363z M34.008,28.678h57.888
	v6.503H34.008V28.678z M83.901,45.736h7.995v8.741h-7.995V45.736z M26.013,45.736h56.502v8.741H26.013V45.736z M83.901,55.97h7.995
	v9.062h-7.995V55.97z M26.013,55.97h56.502v9.062H26.013V55.97z M83.901,66.417h7.995v8.636h-7.995V66.417z M83.901,76.545h7.995
	v8.849h-7.995V76.545z M74.839,76.545h7.676v8.849h-7.676V76.545z M16.524,76.545h56.929v8.849H16.524V76.545z M83.901,86.78h7.995
	v8.209h-7.995V86.78z M74.839,86.78h7.676v8.209h-7.676V86.78z"/>
<path fill="none" stroke="#000000" stroke-width="2" d="M93.39,11.194H26.013V2.986h-1.706v8.208h-9.275V86.78h58.421v8.209H9.595
	V2.986H7.889v93.709h85.5V11.194"/>
<path fill="none" stroke="#000000" stroke-width="2" d="M34.008,12.58h57.888v6.396H34.008V12.58"/>
<path fill="none" stroke="#000000" stroke-width="2" d="M26.013,12.58h6.396v24.093h59.487v7.356H26.013V12.58"/>
<path fill="none" stroke="#000000" stroke-width="2" d="M16.524,12.58h7.782v53.837h58.208v8.636h-65.99V12.58"/>
<path fill="none" stroke="#000000" stroke-width="2" d="M34.008,20.363h57.888v6.823H34.008V20.363"/>
<path fill="none" stroke="#000000" stroke-width="2" d="M34.008,28.678h57.888v6.503H34.008V28.678"/>
<path fill="none" stroke="#000000" stroke-width="2" d="M83.901,45.736h7.995v8.741h-7.995V45.736"/>
<path fill="none" stroke="#000000" stroke-width="2" d="M26.013,45.736h56.502v8.741H26.013V45.736"/>
<path fill="none" stroke="#000000" stroke-width="2" d="M83.901,55.97h7.995v9.062h-7.995V55.97"/>
<path fill="none" stroke="#000000" stroke-width="2" d="M26.013,55.97h56.502v9.062H26.013V55.97"/>
<path fill="none" stroke="#000000" stroke-width="2" d="M83.901,66.417h7.995v8.636h-7.995V66.417"/>
<path fill="none" stroke="#000000" stroke-width="2" d="M83.901,76.545h7.995v8.849h-7.995V76.545"/>
<path fill="none" stroke="#000000" stroke-width="2" d="M74.839,76.545h7.676v8.849h-7.676V76.545"/>
<path fill="none" stroke="#000000" stroke-width="2" d="M16.524,76.545h56.929v8.849H16.524V76.545"/>
<path fill="none" stroke="#000000" stroke-width="2" d="M83.901,86.78h7.995v8.209h-7.995V86.78"/>
<path fill="none" stroke="#000000" stroke-width="2" d="M74.839,86.78h7.676v8.209h-7.676V86.78"/>
</svg>
