<?xml version="1.0" encoding="utf-8"?>
<!-- Generator: Adobe Illustrator 14.0.0, SVG Export Plug-In . SVG Version: 6.00 Build 43363)  -->
<!DOCTYPE svg PUBLIC "-//W3C//DTD SVG 1.1//EN" "http://www.w3.org/Graphics/SVG/1.1/DTD/svg11.dtd">
<svg version="1.1" id="图层_1" xmlns="http://www.w3.org/2000/svg" xmlns:xlink="http://www.w3.org/1999/xlink" x="0px" y="0px"
	 width="117.432px" height="106.502px" viewBox="0 0 117.432 106.502" enable-background="new 0 0 117.432 106.502"
	 xml:space="preserve">
<path fill="#191919" stroke="#000000" stroke-width="2" d="M20.219,18.574h77.583v64.887H20.219V18.574z"/>
<path fill="#7F7F7F" stroke="#000000" stroke-width="2" d="M18.808,24.451l8.463-8.464v56.659l-8.463,8.346V24.451z"/>
<path fill="#7F7F7F" stroke="#000000" stroke-width="2" d="M27.271,72.647h72.646l-8.464,8.346H18.808L27.271,72.647z"/>
<path fill="#7F7FFF" d="M18.808,24.451h72.646v56.541H18.808V24.451z M6.113,13.167h98.036v87.456H6.113V13.167z"/>
<path fill="none" stroke="#000000" stroke-width="2" d="M18.808,24.451h72.646v56.541H18.808V24.451"/>
<path fill="none" stroke="#000000" stroke-width="2" d="M6.113,13.167h98.036v87.456H6.113V13.167"/>
<path fill="#0000E0" stroke="#000000" stroke-width="2" d="M114.023,3.292l-9.874,9.875v87.456l9.874-9.874V3.292z"/>
<path fill="#7F7FFF" stroke="#000000" stroke-width="2" d="M6.113,13.167h98.036l9.874-9.875H16.222L6.113,13.167z"/>
<path fill="#7F7FFF" stroke="#000000" stroke-width="2" d="M3.292,90.044h98.271v13.166H3.292V90.044z"/>
<path fill="#0000E0" stroke="#000000" stroke-width="2" d="M104.149,87.458l-2.586,2.586v13.166l2.586-2.587V87.458z"/>
<path fill="#7F7FFF" stroke="#000000" stroke-width="2" d="M3.292,89.809h98.271l2.586-2.586H6.113L3.292,89.809z"/>
<path fill="#F0F0F0" d="M21.629,18.339h67.944l7.288,2.821l3.057,7.053v48.665l-3.057,7.054l-7.288,2.821H21.629l-7.288-2.821
	l-3.056-7.054V28.213l3.056-7.053L21.629,18.339z M22.334,21.63h66.533l5.407,2.116l2.115,4.937v47.608l-2.115,5.055l-5.407,2.115
	H22.334l-5.407-2.115l-2.116-5.055V28.683l2.116-4.937L22.334,21.63z"/>
<path fill="none" stroke="#000000" stroke-width="2" d="M21.629,18.339h67.944l7.288,2.821l3.057,7.053v48.665l-3.057,7.054
	l-7.288,2.821H21.629l-7.288-2.821l-3.056-7.054V28.213l3.056-7.053L21.629,18.339"/>
<path fill="none" stroke="#000000" stroke-width="2" d="M22.334,21.63h66.533l5.407,2.116l2.115,4.937v47.608l-2.115,5.055
	l-5.407,2.115H22.334l-5.407-2.115l-2.116-5.055V28.683l2.116-4.937L22.334,21.63"/>
<path fill="#F0F0F0" stroke="#000000" stroke-width="2" d="M65.005,90.985H37.381v11.285h27.625V90.985z"/>
<path fill="#7F7F7F" stroke="#000000" stroke-width="2" d="M57.952,91.69h0.705l0.47,0.471v0.94l-0.47,0.234h-0.705l-0.47-0.234
	v-0.94L57.952,91.69z"/>
<path fill="#7F7F7F" stroke="#000000" stroke-width="2" d="M55.131,91.69H53.25l-0.235,0.471v0.94l0.235,0.234h1.881l0.47-0.234
	v-0.94L55.131,91.69z"/>
<path fill="#7F7F7F" stroke="#000000" stroke-width="2" d="M55.131,94.276H53.25l-0.235,0.471v0.94l0.235,0.235h1.881l0.47-0.235
	v-0.94L55.131,94.276z"/>
<path fill="#7F7F7F" stroke="#000000" stroke-width="2" d="M55.131,96.863H53.25l-0.235,0.47v0.94l0.235,0.235h1.881l0.47-0.235
	v-0.94L55.131,96.863z"/>
<path fill="#7F7F7F" stroke="#000000" stroke-width="2" d="M57.952,94.276h0.705l0.47,0.471v0.94l-0.47,0.235h-0.705l-0.47-0.235
	v-0.94L57.952,94.276z"/>
<path fill="#7F7F7F" stroke="#000000" stroke-width="2" d="M57.952,96.863h0.705l0.47,0.47v0.705l-0.47,0.471h-0.705l-0.47-0.471
	v-0.705L57.952,96.863z"/>
<path fill="#7F7F7F" stroke="#000000" stroke-width="2" d="M57.952,99.213h3.056l0.47,0.235v0.94l-0.47,0.47h-3.056l-0.47-0.47
	v-0.94L57.952,99.213z"/>
<path fill="#7F7F7F" stroke="#000000" stroke-width="2" d="M60.302,91.69h0.941l0.234,0.471v0.94l-0.234,0.234h-0.941l-0.47-0.234
	v-0.94L60.302,91.69z"/>
<path fill="#7F7F7F" stroke="#000000" stroke-width="2" d="M60.302,94.276h0.941l0.234,0.471v0.94l-0.234,0.235h-0.941l-0.47-0.235
	v-0.94L60.302,94.276z"/>
<path fill="#7F7F7F" stroke="#000000" stroke-width="2" d="M60.302,96.863h0.941l0.234,0.47v0.705l-0.234,0.471h-0.941l-0.47-0.471
	v-0.705L60.302,96.863z"/>
<path fill="#7F7F7F" stroke="#000000" stroke-width="2" d="M62.654,91.69h0.94l0.235,0.471v0.94l-0.235,0.234h-0.94l-0.471-0.234
	v-0.94L62.654,91.69z"/>
<path fill="#7F7F7F" stroke="#000000" stroke-width="2" d="M62.654,94.276h0.94l0.235,0.471v0.94l-0.235,0.235h-0.94l-0.471-0.235
	v-0.94L62.654,94.276z"/>
<path fill="#7F7F7F" stroke="#000000" stroke-width="2" d="M62.654,96.863h0.94l0.235,0.47v0.705l-0.235,0.471h-0.94l-0.471-0.471
	v-0.705L62.654,96.863z"/>
<path fill="#7F7F7F" stroke="#000000" stroke-width="2" d="M62.654,99.213h0.94l0.235,0.235v0.94l-0.235,0.47h-0.94l-0.471-0.47
	v-0.94L62.654,99.213z"/>
<path d="M38.792,91.925h11.637l-1.646,6.583H41.26L38.792,91.925z"/>
<path fill="#FFFFFF" stroke="#000000" stroke-width="2" d="M39.732,92.395h9.992l-0.94,3.997H41.26L39.732,92.395z"/>
<path fill="none" stroke="#000000" stroke-width="2" d="M45.727,93.571l-1.058,2.586"/>
<path fill="none" stroke="#000000" stroke-width="2" d="M40.437,92.63v0.705"/>
<path fill="none" stroke="#000000" stroke-width="2" d="M41.612,92.63v0.705"/>
<path fill="none" stroke="#000000" stroke-width="2" d="M42.67,92.63v0.705"/>
<path fill="none" stroke="#000000" stroke-width="2" d="M43.846,92.63v0.705"/>
<path fill="none" stroke="#000000" stroke-width="2" d="M44.904,92.63v0.705"/>
<path fill="none" stroke="#000000" stroke-width="2" d="M45.962,92.63v0.705"/>
<path fill="none" stroke="#000000" stroke-width="2" d="M47.137,92.63v0.705"/>
<path fill="none" stroke="#000000" stroke-width="2" d="M47.96,92.63v0.705"/>
<path fill="none" stroke="#000000" stroke-width="2" d="M49.253,92.63v0.705"/>
<path fill="none" stroke="#000000" stroke-width="2" d="M25.626,72.411l0.705-1.293l0.235-1.175l-0.235-0.94l-0.705,0.353
	l-4.938,4.937l-0.94,0.353l-0.47-0.587l1.41-2.939l4.938-4.702l0.94-2.351l-0.235-0.705l-0.705,0.235l-4.938,4.701l-0.94,0.471
	l-0.47-0.471l0.47-1.41l0.94-1.41l4.938-4.702l0.705-1.176l0.235-1.41l-0.235-0.706l-0.705,0.235l-4.938,4.938l-0.94,0.47
	l-0.47-0.705l1.41-2.821l4.938-4.702l0.705-1.176l0.235-1.41l-0.235-0.705l-0.705,0.235l-4.938,4.937l-0.94,0.471l-0.47-0.706
	l1.41-2.821l4.938-4.701l0.94-2.352l-0.235-0.705l-0.705,0.235l-4.938,4.702l-0.94,0.705l-0.47-0.705l1.41-2.821l4.938-4.82
	l0.705-1.058l0.235-1.41l-0.235-0.823l-0.705,0.235l-4.938,5.055l-0.94,0.47l-0.47-0.705l1.41-2.821l4.938-4.702l0.94-2.469
	l-0.235-0.587l-0.705,0.234l-4.938,4.702l-0.94,0.588l-0.47-0.588l1.41-2.938l4.938-4.702l0.94-2.586l-0.235-0.705l-0.705,0.234
	l-4.938,4.702l-0.94,0.706l-0.47-0.706l1.41-2.821l4.702-4.701"/>
<path fill="none" stroke="#FFFFFF" stroke-width="2" d="M25.626,72.999l0.705-1.175l0.235-1.059l-0.235-1.058l-0.705,0.47
	l-4.938,4.702l-0.94,0.588l-0.47-0.588l1.41-2.821l4.938-4.937l0.94-2.352l-0.235-0.705l-0.705,0.235l-4.938,4.702l-0.94,0.705
	l-0.47-0.705l0.47-1.411l0.94-1.41l4.938-4.702l0.705-1.176l0.235-1.176l-0.235-0.939l-0.705,0.234l-4.938,4.938l-0.94,0.47
	l-0.47-0.705l1.41-2.821l4.938-4.702l0.94-2.351l-0.235-0.94l-0.705,0.235l-4.938,4.937l-0.94,0.471l-0.47-0.471l1.41-2.821
	l4.938-4.937l0.705-0.94l0.235-1.411l-0.235-0.705l-0.705,0.235l-4.938,4.938l-0.94,0.47l-0.47-0.705l1.41-2.821l4.938-4.702
	l0.94-2.469l-0.235-0.822l-0.705,0.234l-4.938,4.938l-0.94,0.353l-0.47-0.588l1.41-2.821l4.938-4.819l0.94-2.351l-0.235-0.706
	l-0.705,0.235l-4.938,4.702l-0.94,0.823l-0.47-0.823l1.41-2.821l4.938-4.702l0.705-1.058l0.235-1.528l-0.235-0.705l-0.705,0.235
	l-4.938,4.702l-0.94,0.705l-0.47-0.705l1.41-2.704l4.702-4.819"/>
</svg>
