<?xml version="1.0" encoding="utf-8"?>
<!-- Generator: Adobe Illustrator 14.0.0, SVG Export Plug-In . SVG Version: 6.00 Build 43363)  -->
<!DOCTYPE svg PUBLIC "-//W3C//DTD SVG 1.1//EN" "http://www.w3.org/Graphics/SVG/1.1/DTD/svg11.dtd">
<svg version="1.1" id="图层_1" xmlns="http://www.w3.org/2000/svg" xmlns:xlink="http://www.w3.org/1999/xlink" x="0px" y="0px"
	 width="133.999px" height="106.502px" viewBox="0 0 133.999 106.502" enable-background="new 0 0 133.999 106.502"
	 xml:space="preserve">
<path fill="#E0E0E0" d="M53.922,77.395h66.933v12.743H53.922V77.395z"/>
<path fill="#F0F0F0" d="M57.677,77.395h7.646v12.743h-7.646V77.395z"/>
<path fill="#FFFFFF" d="M59.823,77.395h3.22v12.743h-3.22V77.395z"/>
<path fill="none" stroke="#000000" stroke-width="2" d="M53.922,77.395h66.933v12.743H53.922V77.395"/>
<path fill="#E0E0E0" d="M9.389,77.395h7.377v-48.02H9.389V77.395z"/>
<path fill="#F0F0F0" d="M9.926,77.395h0.537v-48.02H9.926V77.395z"/>
<path fill="#FFFFFF" d="M9.926,77.395h0.537v-48.02H9.926V77.395z"/>
<path fill="none" stroke="#000000" stroke-width="2" d="M9.389,77.395h7.377v-48.02H9.389V77.395"/>
<path fill="#E0E0E0" d="M9.121,77.395h7.914l3.89,12.743H5.097L9.121,77.395z"/>
<path fill="#F0F0F0" d="M9.389,77.395h0.805L7.645,90.138H5.902L9.389,77.395z"/>
<path fill="#FFFFFF" d="M9.658,77.395h0.536L7.109,90.138H6.573L9.658,77.395z"/>
<path fill="none" stroke="#000000" stroke-width="2" d="M9.121,77.395h7.914l3.89,12.743H5.097L9.121,77.395"/>
<path fill="#E0E0E0" d="M3.756,102.746h117.099V90.138H3.756V102.746z"/>
<path fill="#F0F0F0" d="M9.926,102.746h13.279V90.138H9.926V102.746z"/>
<path fill="#FFFFFF" d="M13.816,102.746h5.633V90.138h-5.633V102.746z"/>
<path fill="none" stroke="#000000" stroke-width="2" d="M3.756,102.746h117.099V90.138H3.756V102.746"/>
<path fill="#E0E0E0" d="M55.933,40.643v7.646l-0.536,0.269l-3.622,3.219l-2.28,3.622l-0.938,3.621l0.938,3.622l2.28,3.756
	l3.622,3.085l0.536,0.268v7.646h29.644l2.012,0.269l1.878-0.269h29.778v-7.646l0.268-0.268l3.622-3.085l2.28-3.756l0.805-3.622
	l-0.805-3.621l-2.28-3.622l-3.622-3.219l-0.268-0.269v-7.646H55.933z"/>
<path fill="#F0F0F0" d="M59.287,40.643h7.109v36.752h-7.109V40.643z"/>
<path fill="#FFFFFF" d="M61.299,40.643h3.085v36.752h-3.085V40.643z"/>
<ellipse fill="#E5E5E5" cx="81.687" cy="58.214" rx="31.387" ry="15.828"/>
<ellipse fill="#EDEDED" cx="76.187" cy="57.275" rx="24.145" ry="12.876"/>
<ellipse fill="#F2F2F2" cx="70.42" cy="56.47" rx="16.767" ry="10.194"/>
<path fill="#FAFAFA" d="M66.396,48.288l1.609,0.269l1.744,0.536l1.475,0.939l1.342,0.805l0.938,1.475l0.537,1.073l0.269,1.342v1.476
	l-0.537,1.476l-0.938,1.341l-1.073,1.073l-1.476,1.207l-1.342,0.537l-1.743,0.536l-1.878,0.671h-2.012l-1.744-0.402l-1.744-0.537
	l-1.341-0.805l-1.073-1.207l-1.207-1.073l-0.536-1.073l-0.269-1.476v-1.341l0.536-1.744l0.805-1.073l1.208-1.207l1.341-1.072
	l1.476-0.939l1.878-0.536l1.743-0.269H66.396z"/>
<path fill="#FFFFFF" d="M61.031,50.3l0.805,1.476v2.146l-0.537,1.743l-0.938,1.744l-1.073,1.073l-0.536,0.536h-0.537l-0.268,0.269
	h-0.537l-0.402-0.269l-0.536-1.073v-2.28l0.536-1.743l0.939-1.61l1.072-1.207l1.073-0.805H61.031z"/>
<path fill="none" stroke="#000000" stroke-width="2" d="M55.933,40.643v7.646l-0.536,0.269l-3.622,3.219l-2.28,3.622l-0.938,3.621
	l0.938,3.622l2.28,3.756l3.622,3.085l0.536,0.268v7.646h29.644l2.012,0.269l1.878-0.269h29.778v-7.646l0.268-0.268l3.622-3.085
	l2.28-3.756l0.805-3.622l-0.805-3.621l-2.28-3.622l-3.622-3.219l-0.268-0.269v-7.646H55.933"/>
<path fill="#7F0000" d="M96.04,40.643V50.3H72.298v-9.657H54.19v-3.354h66.933v3.354H96.04z"/>
<path fill="#9E1E1E" d="M57.946,37.289h7.646v3.354h-7.646V37.289z"/>
<path fill="#E0C1C1" d="M60.092,37.289h3.22v3.354h-3.22V37.289z"/>
<path fill="none" stroke="#000000" stroke-width="2" d="M96.04,40.643V50.3H72.298v-9.657H54.19v-3.354h66.933v3.354H96.04"/>
<path d="M77.663,40.643h15.828v7.109H77.663V40.643z"/>
<path fill="#E0E0E0" d="M119.781,12.743l-0.269-1.476l-67.2,15.827l0.268,1.744l-42.386,9.926l-2.28-9.121L118.037,3.756l2.28,8.987
	H119.781z"/>
<path fill="#F0F0F0" d="M13.816,28.302l12.474-3.085l2.28,9.256l-12.474,2.816L13.816,28.302z"/>
<path fill="#FFFFFF" d="M17.571,27.364l5.098-1.342l2.28,9.256l-5.231,1.207L17.571,27.364z"/>
<path fill="none" stroke="#000000" stroke-width="2" d="M119.781,12.743l-0.269-1.476l-67.2,15.827l0.268,1.744l-42.386,9.926
	l-2.28-9.121L118.037,3.756l2.28,8.987H119.781"/>
<path fill="#7F0000" stroke="#000000" stroke-width="2" d="M76.187,21.461l15.56-3.621l-0.805-4.292l-15.56,3.755L76.187,21.461z"/>
<path fill="#F0F0F0" stroke="#000000" stroke-width="2" d="M25.218,93.491h8.45v8.45h-8.45V93.491z"/>
<path fill="#F0F0F0" stroke="#000000" stroke-width="2" d="M25.218,93.491h8.45l1.341-1.073h-8.45L25.218,93.491z"/>
<path fill="#CCCCCC" stroke="#000000" stroke-width="2" d="M35.009,92.418l-1.341,1.073v8.45l1.341-1.342V92.418z"/>
<circle fill="#B2B2B2" stroke="#000000" stroke-width="2" cx="12.877" cy="33.4" r="2.683"/>
<path fill="#B2B2B2" stroke="#000000" stroke-width="2" d="M128.231,57.678l-2.548-1.208l-5.902,12.743l2.549,1.073L128.231,57.678z
	"/>
<path fill="#F0F0F0" stroke="#000000" stroke-width="2" d="M129.573,54.458l0.536,0.269l-8.986,19.047h-0.269l-0.269-1.207
	l0.805-2.28l1.207-3.085l1.61-3.622l1.743-3.756l1.744-2.816l1.341-1.878L129.573,54.458z"/>
<path fill="#E0E0E0" stroke="#000000" stroke-width="2" d="M130.109,54.727v0.938l-0.536,2.28l-1.342,3.085l-1.476,3.622
	l-1.878,3.621l-1.743,2.951l-1.073,2.012l-0.938,0.537v-0.939l0.938-2.28l1.073-3.085l1.743-3.621l1.61-3.756l1.743-3.085
	l1.073-1.609L130.109,54.727z"/>
<path fill="#7F7F7F" stroke="#000000" stroke-width="2" d="M129.573,55.934v0.269l-0.269,0.805l-0.536,0.671v0.268v-0.268
	l0.268-0.939l0.269-0.536L129.573,55.934z"/>
<path fill="#7F7F7F" stroke="#000000" stroke-width="2" d="M122.866,70.554l-0.269,0.403l-0.268,0.805l-0.269,0.536l-0.402,0.269
	v-0.269l0.671-0.805l0.268-0.536L122.866,70.554z"/>
<path fill="#7F7F7F" stroke="#000000" stroke-width="2" d="M125.415,66.128v0.536l-0.269,0.537l-0.671,0.805v0.268v-0.536
	l0.402-0.536l0.269-0.805L125.415,66.128z"/>
<path fill="#7F7F7F" stroke="#000000" stroke-width="2" d="M124.475,65.86l-0.268,0.269l-0.269,0.805l-0.269,0.536l-0.268,0.269
	l0.268-0.269l0.269-0.805l0.269-0.536L124.475,65.86z"/>
<path fill="#7F7F7F" stroke="#000000" stroke-width="2" d="M127.427,59.556l-0.269,0.268l-0.402,0.537l-0.268,0.938l-0.269,0.269
	v-0.269l0.536-0.938l0.402-0.537L127.427,59.556z"/>
<path fill="#7F7F7F" stroke="#000000" stroke-width="2" d="M128.231,59.823v0.269l-0.268,0.938l-0.269,0.806h-0.269v-0.269
	l0.269-0.537l0.269-0.938L128.231,59.823z"/>
<path fill="#B2B2B2" stroke="#000000" stroke-width="2" d="M45.739,57.678l2.817-1.208l5.901,12.743l-2.683,1.073L45.739,57.678z"/>
<path fill="#F0F0F0" stroke="#000000" stroke-width="2" d="M44.398,54.458l-0.536,0.269l8.986,19.047h0.537v-1.207l-0.537-2.28
	l-1.476-3.085l-1.609-3.622l-1.744-3.756l-1.743-2.816l-1.073-1.878L44.398,54.458z"/>
<path fill="#E0E0E0" stroke="#000000" stroke-width="2" d="M43.862,54.727v0.938l0.805,2.28l1.072,3.085l1.744,3.622l1.609,3.621
	l1.744,2.951l1.207,2.012l0.805,0.537v-0.939l-0.536-2.28l-1.476-3.085l-1.342-3.621l-2.012-3.756l-1.744-3.085l-1.072-1.609
	L43.862,54.727z"/>
<path fill="#7F7F7F" stroke="#000000" stroke-width="2" d="M44.398,55.934l0.269,0.269l0.268,0.805l0.269,0.671l0.269,0.268
	l-0.269-0.268l-0.269-0.939l-0.268-0.536L44.398,55.934z"/>
<path fill="#7F7F7F" stroke="#000000" stroke-width="2" d="M51.373,70.554v0.403l0.402,0.805l0.269,0.536l0.269,0.269v-0.269
	l-0.269-0.805l-0.671-0.536V70.554z"/>
<path fill="#7F7F7F" stroke="#000000" stroke-width="2" d="M48.556,66.128l0.269,0.536l0.268,0.537l0.402,0.805l0.269,0.268
	l-0.269-0.536l-0.402-0.536l-0.268-0.805L48.556,66.128z"/>
<path fill="#7F7F7F" stroke="#000000" stroke-width="2" d="M49.763,65.86v0.269l0.269,0.805l0.268,0.536l0.269,0.269v-0.269
	L50.3,66.664l-0.536-0.536V65.86z"/>
<path fill="#7F7F7F" stroke="#000000" stroke-width="2" d="M46.812,59.556v0.268l0.402,0.537l0.269,0.938l0.269,0.269v-0.269
	l-0.269-0.938l-0.671-0.537V59.556z"/>
<path fill="#7F7F7F" stroke="#000000" stroke-width="2" d="M45.739,59.823v0.269l0.269,0.938l0.537,0.806v-0.269l-0.269-0.537
	l-0.269-0.938L45.739,59.823z"/>
</svg>
