<?xml version="1.0" encoding="utf-8"?>
<!-- Generator: Adobe Illustrator 14.0.0, SVG Export Plug-In . SVG Version: 6.00 Build 43363)  -->
<!DOCTYPE svg PUBLIC "-//W3C//DTD SVG 1.1//EN" "http://www.w3.org/Graphics/SVG/1.1/DTD/svg11.dtd">
<svg version="1.1" id="图层_1" xmlns="http://www.w3.org/2000/svg" xmlns:xlink="http://www.w3.org/1999/xlink" x="0px" y="0px"
	 width="144.749px" height="89.344px" viewBox="0 0 144.749 89.344" enable-background="new 0 0 144.749 89.344"
	 xml:space="preserve">
<path fill="#336666" stroke="#000000" stroke-width="2" d="M133.001,80.062l-1.16,0.87V56.42l1.16-1.16V80.062z"/>
<path fill="#336666" stroke="#000000" stroke-width="2" d="M19.58,80.062l-1.16,0.87V56.42l1.16-1.16V80.062z"/>
<path fill="#8ABDBD" stroke="#000000" stroke-width="2" d="M129.229,80.932h2.611V56.42h-2.611V80.932z"/>
<path fill="#8ABDBD" stroke="#000000" stroke-width="2" d="M15.809,80.932h2.61V56.42h-2.61V80.932z"/>
<path fill="#336666" stroke="#000000" stroke-width="2" d="M14.649,83.978l-1.16,1.16V60.481l1.16-0.869V83.978z"/>
<path fill="#336666" stroke="#000000" stroke-width="2" d="M128.359,83.978l-1.16,1.16V60.481l1.16-0.869V83.978z"/>
<path fill="#8ABDBD" stroke="#000000" stroke-width="2" d="M9.863,27.413h118.786v33.068H9.863V27.413z"/>
<path fill="#99CCCC" stroke="#000000" stroke-width="2" d="M9.863,27.413h118.786l5.222-5.511H14.939L9.863,27.413z"/>
<path fill="#336666" stroke="#000000" stroke-width="2" d="M133.871,21.901l-5.222,5.511v33.068l5.222-5.221V21.901z"/>
<path fill="#8ABDBD" stroke="#000000" stroke-width="2" d="M10.588,85.138h2.901V60.481h-2.901V85.138z"/>
<path fill="#8ABDBD" stroke="#000000" stroke-width="2" d="M124.299,85.138h2.9V60.481h-2.9V85.138z"/>
<path fill="#E0E0E0" stroke="#000000" stroke-width="2" d="M118.497,34.229h7.542v15.519h-7.542V34.229z"/>
<path stroke="#000000" stroke-width="2" d="M119.947,45.977l0.87,1.451l1.74,0.87l1.451-0.87l0.87-1.451l-0.87-1.595l-1.451-1.015
	l-1.74,1.015L119.947,45.977z"/>
<path stroke="#000000" stroke-width="2" d="M119.947,38l0.87,1.451l1.74,0.87l1.451-0.87l0.87-1.451l-0.87-1.74l-1.451-0.87
	l-1.74,0.87L119.947,38z"/>
<path fill="#FF0000" d="M120.527,45.977l0.58,1.161l1.45,0.58l1.161-0.58l0.58-1.161l-0.58-1.305l-1.161-0.725l-1.45,0.725
	L120.527,45.977z"/>
<path fill="#00FF00" d="M120.527,38l0.58,1.161l1.45,0.58l1.161-0.58l0.58-1.161l-0.58-1.45l-1.161-0.58l-1.45,0.58L120.527,38z"/>
<path fill="#669999" stroke="#000000" stroke-width="2" d="M4.061,13.489h135.176v-0.871H4.061V13.489z"/>
<path fill="#669999" stroke="#000000" stroke-width="2" d="M140.687,12.039l-1.45,1.451v-0.871l1.45-1.45V12.039z"/>
<path fill="#669999" stroke="#000000" stroke-width="2" d="M5.511,11.168h135.176l-1.45,1.45H4.061L5.511,11.168z"/>
<path fill="#669999" stroke="#000000" stroke-width="2" d="M4.641,5.802h135.176v6.237H4.641V5.802z"/>
<path fill="#669999" stroke="#000000" stroke-width="2" d="M140.397,5.222l-0.58,0.58v6.237l0.58-0.58V5.222z"/>
<path fill="#669999" stroke="#000000" stroke-width="2" d="M4.061,6.382h135.176V5.512H4.061V6.382z"/>
<path fill="#669999" stroke="#000000" stroke-width="2" d="M140.687,4.932l-1.45,1.451V5.512l1.45-1.45V4.932z"/>
<path fill="#669999" stroke="#000000" stroke-width="2" d="M5.511,4.062h135.176l-1.45,1.45H4.061L5.511,4.062z"/>
<circle fill="#336666" stroke="#000000" stroke-width="2" cx="13.053" cy="11.023" r="1.305"/>
<circle fill="#336666" stroke="#000000" stroke-width="2" cx="18.565" cy="11.023" r="1.305"/>
<path fill="#336666" stroke="#000000" stroke-width="2" d="M12.618,10.878H19l-1.74,4.351h-2.61L12.618,10.878z"/>
<path fill="#336666" stroke="#000000" stroke-width="2" d="M16.389,16.1l0.58,0.871l0.29,0.58v0.87L16.969,19l-0.87,0.29h-0.58
	L14.939,19l-0.29-0.58v-0.58v-0.29l0.29-0.29l0.29,0.29v0.58l0.29,0.29l0.29,0.29l0.29-0.29l0.29-0.29l-0.29-0.87l-0.29-0.581
	l-0.29-0.29V16.1v-0.58h0.87V16.1z"/>
<path fill="#336666" stroke="#000000" stroke-width="2" d="M15.519,15.81h0.87v-0.58h-0.87V15.81z"/>
<path fill="none" stroke="#FFFFFF" stroke-width="2" d="M15.809,33.069v-2.321h93.26"/>
<path fill="none" stroke="#669999" stroke-width="2" d="M15.809,33.069h93.26v-2.321"/>
<path fill="none" stroke="#FFFFFF" stroke-width="2" d="M15.809,35.97v-2.321h93.26"/>
<path fill="none" stroke="#669999" stroke-width="2" d="M15.809,35.97h93.26v-2.321"/>
<path fill="none" stroke="#FFFFFF" stroke-width="2" d="M15.809,38.871v-2.32h93.26"/>
<path fill="none" stroke="#669999" stroke-width="2" d="M15.809,38.871h93.26v-2.32"/>
<path fill="none" stroke="#FFFFFF" stroke-width="2" d="M15.809,41.771v-2.32h93.26"/>
<path fill="none" stroke="#669999" stroke-width="2" d="M15.809,41.771h93.26v-2.32"/>
<path fill="none" stroke="#FFFFFF" stroke-width="2" d="M15.809,44.672v-2.03h93.26"/>
<path fill="none" stroke="#669999" stroke-width="2" d="M15.809,44.672h93.26v-2.03"/>
<path fill="none" stroke="#FFFFFF" stroke-width="2" d="M15.809,47.428v-2.031h93.26"/>
<path fill="none" stroke="#669999" stroke-width="2" d="M15.809,47.428h93.26v-2.031"/>
<path fill="none" stroke="#FFFFFF" stroke-width="2" d="M15.809,50.329v-2.03h93.26"/>
<path fill="none" stroke="#669999" stroke-width="2" d="M15.809,50.329h93.26v-2.03"/>
<path fill="none" stroke="#FFFFFF" stroke-width="2" d="M15.809,53.229V51.2h93.26"/>
<path fill="none" stroke="#669999" stroke-width="2" d="M15.809,53.229h93.26V51.2"/>
</svg>
