<?xml version="1.0" encoding="utf-8"?>
<!-- Generator: Adobe Illustrator 14.0.0, SVG Export Plug-In . SVG Version: 6.00 Build 43363)  -->
<!DOCTYPE svg PUBLIC "-//W3C//DTD SVG 1.1//EN" "http://www.w3.org/Graphics/SVG/1.1/DTD/svg11.dtd">
<svg version="1.1" id="图层_1" xmlns="http://www.w3.org/2000/svg" xmlns:xlink="http://www.w3.org/1999/xlink" x="0px" y="0px"
	 width="144.749px" height="82.814px" viewBox="0 0 144.749 82.814" enable-background="new 0 0 144.749 82.814"
	 xml:space="preserve">
<path fill="#D9D9D9" d="M4.063,36.984h123.134v41.769H4.063V36.984z"/>
<path fill="#C7C7C7" d="M4.063,66.86l123.134-17.693v29.586H4.063V66.86z"/>
<path fill="#C2C2C2" d="M4.063,68.312l123.134-17.26v27.701H4.063V68.312z"/>
<path fill="#BDBDBD" d="M4.063,71.067l123.134-17.55v25.235H4.063V71.067z"/>
<path fill="none" stroke="#000000" stroke-width="2" d="M4.063,36.984h123.134v41.769H4.063V36.984"/>
<path fill="#B2B2B2" stroke="#000000" stroke-width="2" d="M140.685,65.12l-13.488,13.633V31.617l13.488-13.488V65.12z"/>
<path fill="#E5E5E5" stroke="#000000" stroke-width="2" d="M7.545,29.297h122.263l10.878-10.877H18.422L7.545,29.297z"/>
<path fill="#E5E5E5" stroke="#000000" stroke-width="2" d="M7.255,29.297l122.553-0.29l-2.61,7.977H4.063L7.255,29.297z"/>
<path fill="#7F7F7F" stroke="#000000" stroke-width="2" d="M64.977,29.297l10.878-10.877V4.351l-4.786,3.626L64.977,29.297z"/>
<path fill="#CCCCCC" stroke="#000000" stroke-width="2" d="M17.552,29.297h47.136l7.397-21.32H24.803L17.552,29.297z"/>
<path fill="#7F7FFF" stroke="#000000" stroke-width="2" d="M21.902,26.396h39.885l5.512-15.954H27.414L21.902,26.396z"/>
<path fill="#CCCCCC" stroke="#000000" stroke-width="2" d="M29.01,4.061h47.136l-4.061,3.916H24.803L29.01,4.061z"/>
<path fill="none" stroke="#000000" stroke-width="2" d="M5.079,44.091h107.76"/>
<path fill="none" stroke="#000000" stroke-width="2" d="M5.079,72.952h107.76"/>
<path fill="none" stroke="#000000" stroke-width="2" d="M113.129,37.999v39.885"/>
<path stroke="#000000" stroke-width="2" d="M117.625,50.616h4.496v10.008l-1.015,0.871l-4.352-10.153L117.625,50.616z"/>
<path fill="#7F7F7F" stroke="#000000" stroke-width="2" d="M116.755,51.342h4.642v10.153h-4.642V51.342z"/>
<path fill="none" stroke="#000000" stroke-width="2" d="M117.045,55.403h3.771"/>
<path fill="none" stroke="#000000" stroke-width="2" d="M117.045,56.708h3.771"/>
<path stroke="#000000" stroke-width="2" d="M116.32,38.579l1.595,0.58l0.726,1.885l-0.726,1.741l-1.595,0.58l-1.886-0.58
	l-0.58-1.741l0.58-1.885L116.32,38.579z"/>
<path stroke="#000000" stroke-width="2" d="M123.717,38.579l1.596,0.58l0.87,1.885l-0.87,1.741l-1.596,0.58l-1.886-0.58
	l-0.725-1.741l0.725-1.885L123.717,38.579z"/>
<path fill="#00FF00" stroke="#000000" stroke-width="2" d="M116.32,39.159l1.305,0.435l0.58,1.45l-0.58,1.306l-1.305,0.435
	l-1.451-0.435l-0.435-1.306l0.435-1.45L116.32,39.159z"/>
<path fill="#FF0000" stroke="#000000" stroke-width="2" d="M123.717,39.159l1.015,0.435l0.581,1.45l-0.581,1.306l-1.015,0.435
	l-1.306-0.435l-0.58-1.306l0.58-1.45L123.717,39.159z"/>
<path fill="#BFBFFF" d="M36.116,25.816l3.771-3.19l3.191-4.206l3.19-4.061l4.061-3.191h7.688l-3.771,3.191l-3.48,4.061l-3.19,4.206
	l-3.191,3.19H36.116z"/>
<path d="M97.32,75.272h11.022v0.871H97.32V75.272z"/>
<path fill="#FF0000" d="M97.32,76.868h11.022v-0.725H97.32V76.868z"/>
<path fill="none" stroke="#FFFFFF" stroke-width="2" d="M49.024,65.7V49.747h6.091"/>
<path fill="none" stroke="#999999" stroke-width="2" d="M49.024,65.7h6.091V49.747"/>
<path fill="none" stroke="#FFFFFF" stroke-width="2" d="M60.337,65.7V49.747h6.236"/>
<path fill="none" stroke="#999999" stroke-width="2" d="M60.337,65.7h6.236V49.747"/>
</svg>
