<?xml version="1.0" encoding="utf-8"?>
<!-- Generator: Adobe Illustrator 14.0.0, SVG Export Plug-In . SVG Version: 6.00 Build 43363)  -->
<!DOCTYPE svg PUBLIC "-//W3C//DTD SVG 1.1//EN" "http://www.w3.org/Graphics/SVG/1.1/DTD/svg11.dtd">
<svg version="1.1" id="图层_1" xmlns="http://www.w3.org/2000/svg" xmlns:xlink="http://www.w3.org/1999/xlink" x="0px" y="0px"
	 width="125.467px" height="106.502px" viewBox="0 0 125.467 106.502" enable-background="new 0 0 125.467 106.502"
	 xml:space="preserve">
<path fill="#F0F0F0" stroke="#000000" stroke-width="2" d="M7.033,10.424h103.488v57.521H7.033V10.424z"/>
<path fill="#F0F0F0" stroke="#000000" stroke-width="2" d="M7.033,45.464h103.488v57.647H7.033V45.464z"/>
<path d="M7.033,44.711h103.488v2.763H7.033V44.711z"/>
<path fill="#E0E0E0" stroke="#000000" stroke-width="2" d="M7.033,10.424h103.488l5.526-3.894H12.56L7.033,10.424z"/>
<path fill="#F0F0F0" stroke="#000000" stroke-width="2" d="M7.033,10.424L3.391,9.042v57.271l3.642,1.633V10.424z"/>
<path fill="#F0F0F0" stroke="#000000" stroke-width="2" d="M7.033,45.464l-3.642-1.381v57.396l3.642,1.633V45.464z"/>
<path fill="#E5E5E5" stroke="#000000" stroke-width="2" d="M116.047,6.531l-5.526,3.894v57.521l5.526-2.512V6.531z"/>
<path fill="#E5E5E5" stroke="#000000" stroke-width="2" d="M116.047,41.948l-5.526,3.517v57.647l5.526-2.512V41.948z"/>
<path fill="#CCCCCC" stroke="#000000" stroke-width="2" d="M121.951,3.391l-5.903,3.14v59.154l5.903-3.517V3.391z"/>
<path fill="#CCCCCC" stroke="#000000" stroke-width="2" d="M121.951,38.557l-5.903,3.391V100.6l5.903-4.396V38.557z"/>
<path fill="#B2B2B2" stroke="#000000" stroke-width="2" d="M12.56,6.531h103.488l5.526-3.14H17.834L12.56,6.531z"/>
<path fill="#F0F0F0" stroke="#000000" stroke-width="2" d="M3.768,9.042l10.173-5.274h4.145L6.782,10.424L3.768,9.042z"/>
<path d="M7.033,44.711l-3.642-1.382v2.763l3.642,1.382V44.711z"/>
<path d="M121.951,37.427l-11.43,7.284v2.763l11.43-6.907V37.427z"/>
<path fill="none" stroke="#000000" stroke-width="2" d="M111.401,93.692l3.015-2.009"/>
<path fill="none" stroke="#000000" stroke-width="2" d="M111.401,89.17l3.015-1.884"/>
<path fill="none" stroke="#000000" stroke-width="2" d="M111.401,84.524l3.015-2.01"/>
<path fill="none" stroke="#000000" stroke-width="2" d="M111.401,80.128l3.015-1.884"/>
<path fill="none" stroke="#000000" stroke-width="2" d="M111.401,75.356l3.015-1.884"/>
<path fill="none" stroke="#000000" stroke-width="2" d="M111.401,70.96l3.015-1.885"/>
<path fill="none" stroke="#000000" stroke-width="2" d="M111.401,66.313l3.015-2.01"/>
<path fill="none" stroke="#000000" stroke-width="2" d="M111.401,61.791l3.015-1.884"/>
<path fill="none" stroke="#000000" stroke-width="2" d="M111.401,57.145l3.015-1.884"/>
<path fill="none" stroke="#000000" stroke-width="2" d="M111.401,52.749l3.015-2.01"/>
<path stroke="#000000" stroke-width="2" d="M94.195,67.444h5.023v11.303L98.087,79.5l-4.771-11.053L94.195,67.444z"/>
<path fill="#7F7F7F" stroke="#000000" stroke-width="2" d="M93.316,68.448h5.023V79.5h-5.023V68.448z"/>
<path fill="none" stroke="#000000" stroke-width="2" d="M93.693,72.844h4.145"/>
<path fill="none" stroke="#000000" stroke-width="2" d="M93.693,74.225h3.893"/>
<path stroke="#000000" stroke-width="2" d="M92.562,53.753l1.884,0.88l0.879,2.009l-0.879,1.884l-1.884,0.88l-1.885-0.88
	l-0.879-1.884l0.879-2.009L92.562,53.753z"/>
<path stroke="#000000" stroke-width="2" d="M100.851,53.753l2.01,0.88l0.753,2.009l-0.753,1.884l-2.01,0.88l-1.885-0.88
	l-0.879-1.884l0.879-2.009L100.851,53.753z"/>
<path fill="#00FF00" stroke="#000000" stroke-width="2" d="M92.562,54.633l1.381,0.628l0.503,1.381l-0.503,1.256l-1.381,0.88
	l-1.382-0.88l-0.503-1.256l0.503-1.381L92.562,54.633z"/>
<path fill="#FF0000" stroke="#000000" stroke-width="2" d="M100.851,54.633l1.381,0.628l0.629,1.381l-0.629,1.256l-1.381,0.88
	l-1.382-0.88l-0.503-1.256l0.503-1.381L100.851,54.633z"/>
<path d="M92.31,98.339h12.184v0.879H92.31V98.339z"/>
<path fill="#FF0000" d="M92.31,99.972h12.184v-0.754H92.31V99.972z"/>
<path fill="none" stroke="#FFFFFF" stroke-width="2" d="M47.097,31.398V20.346h9.796"/>
<path fill="none" stroke="#999999" stroke-width="2" d="M47.097,31.398h9.796V20.346"/>
<path fill="none" stroke="#FFFFFF" stroke-width="2" d="M59.405,31.398V20.346h9.67"/>
<path fill="none" stroke="#999999" stroke-width="2" d="M59.405,31.398h9.67V20.346"/>
</svg>
