<?xml version="1.0" encoding="utf-8"?>
<!-- Generator: Adobe Illustrator 14.0.0, SVG Export Plug-In . SVG Version: 6.00 Build 43363)  -->
<!DOCTYPE svg PUBLIC "-//W3C//DTD SVG 1.1//EN" "http://www.w3.org/Graphics/SVG/1.1/DTD/svg11.dtd">
<svg version="1.1" id="图层_1" xmlns="http://www.w3.org/2000/svg" xmlns:xlink="http://www.w3.org/1999/xlink" x="0px" y="0px"
	 width="91.36px" height="106.502px" viewBox="0 0 91.36 106.502" enable-background="new 0 0 91.36 106.502" xml:space="preserve">
<path fill="#B2B2B2" stroke="#000000" stroke-width="2" d="M13.646,98.825h58.526V40.831H13.646V98.825z"/>
<path fill="#E5E5E5" stroke="#000000" stroke-width="2" d="M15.564,43.283l3.091-3.305v58.847l-3.091,2.984V43.283z"/>
<path fill="#F0F0F0" stroke="#000000" stroke-width="2" d="M68.334,101.81V44.136h-52.77v57.674H2.985V23.241h80.167v78.568H68.334z
	"/>
<path fill="#F0F0F0" stroke="#000000" stroke-width="2" d="M49.038,44.136h2.452v17.591h-2.452V44.136z"/>
<path fill="#FFFFFF" d="M49.571,44.35h0.533v17.057h-0.533V44.35z"/>
<path fill="#B2B2B2" stroke="#000000" stroke-width="2" d="M83.152,23.241l5.224-5.224v78.568l-5.224,5.224V23.241z"/>
<path fill="#E0E0E0" stroke="#000000" stroke-width="2" d="M2.985,23.241h80.167l5.224-5.224H8.102L2.985,23.241z"/>
<path fill="#7F7F7F" stroke="#000000" stroke-width="2" d="M8.955,21.856h70.573l2.771-2.984H11.727L8.955,21.856z"/>
<ellipse stroke="#000000" stroke-width="2" cx="57.993" cy="20.683" rx="6.503" ry="0.426"/>
<path d="M51.81,3.52h12.687V20.79H51.81V3.52z"/>
<path fill="#1F1F1F" d="M52.13,3.52h10.447V20.79H52.13V3.52z"/>
<path fill="#3B3B3B" d="M52.343,3.52h8.529V20.79h-8.529V3.52z"/>
<path fill="#595959" d="M52.343,3.52h6.609V20.79h-6.609V3.52z"/>
<path fill="#787878" d="M52.663,3.52h4.69V20.79h-4.69V3.52z"/>
<path fill="#949494" d="M52.876,3.52h2.771V20.79h-2.771V3.52z"/>
<path fill="#B2B2B2" d="M53.196,3.52h0.853V20.79h-0.853V3.52z"/>
<ellipse stroke="#000000" stroke-width="2" cx="57.993" cy="3.2" rx="6.503" ry="0.213"/>
<path fill="#7F7F7F" stroke="#000000" stroke-width="2" d="M29.53,62.046h28.676l2.453,1.066l0.852,2.451v33.794l-0.852,2.452
	l-2.453,1.066H29.53l-2.452-1.066l-0.746-2.452V65.564l0.746-2.451L29.53,62.046z"/>
<path d="M46.054,60.34h8.741v2.772h-8.741V60.34z"/>
<path fill="none" stroke="#FFFFFF" stroke-width="2" d="M46.906,60.34v2.452"/>
<path fill="none" stroke="#FFFFFF" stroke-width="2" d="M48.825,60.34v2.452"/>
<path fill="none" stroke="#FFFFFF" stroke-width="2" d="M50.744,60.34v2.452"/>
<path fill="none" stroke="#FFFFFF" stroke-width="2" d="M52.663,60.34v2.452"/>
<path fill="none" stroke="#FFFFFF" stroke-width="2" d="M54.582,60.34v2.452"/>
<path fill="#E5E5E5" stroke="#000000" stroke-width="2" d="M28.997,62.792h28.357l2.452,0.853l1.066,2.452v33.794l-1.066,2.452
	l-2.452,1.066H28.997l-2.452-1.066l-0.853-2.452V66.097l0.853-2.452L28.997,62.792z"/>
<path fill="#F0F0F0" d="M30.169,63.113l-1.173,0.532l-1.066,1.387l-0.853,1.919v33.261l1.173,1.279l1.919,0.532h26.652l1.065-1.065
	l0.533-2.132V66.097l-1.386-1.065l-2.452-0.854l-7.462-1.065H30.169z"/>
<path fill="#FFFFFF" d="M28.25,64.498l-0.32,1.065v34.86v1.066l-0.853-1.279V66.95l0.853-1.919L28.25,64.498z"/>
<path fill="#FFFFFF" stroke="#000000" stroke-width="2" d="M23.24,43.604l2.452,1.065l1.386,2.985l-1.386,2.452l-2.452,1.386
	l-2.985-1.386l-1.066-2.452l1.066-2.985L23.24,43.604z"/>
<path d="M23.24,47.655h-0.213l2.665-2.132L23.24,47.655z"/>
<path fill="#FF0000" stroke="#000000" stroke-width="2" d="M14.179,29.319l-0.853,1.919l-1.919,0.853l-1.599-0.853l-0.853-1.919
	l0.853-1.706l1.599-0.746l1.919,0.746L14.179,29.319z"/>
<path d="M14.179,36.993l-0.853,1.919l-1.919,0.854l-1.599-0.854l-0.853-1.919l0.853-1.599l1.599-0.853l1.919,0.853L14.179,36.993z"
	/>
<path fill="none" stroke="#FFFFFF" stroke-width="2" d="M29.53,36.141v-6.609h26.651"/>
<path fill="none" stroke="#999999" stroke-width="2" d="M29.53,36.141h26.651v-6.609"/>
</svg>
