<?xml version="1.0" encoding="utf-8"?>
<!-- Generator: Adobe Illustrator 14.0.0, SVG Export Plug-In . SVG Version: 6.00 Build 43363)  -->
<!DOCTYPE svg PUBLIC "-//W3C//DTD SVG 1.1//EN" "http://www.w3.org/Graphics/SVG/1.1/DTD/svg11.dtd">
<svg version="1.1" id="图层_1" xmlns="http://www.w3.org/2000/svg" xmlns:xlink="http://www.w3.org/1999/xlink" x="0px" y="0px"
	 width="111.06px" height="106.502px" viewBox="0 0 111.06 106.502" enable-background="new 0 0 111.06 106.502"
	 xml:space="preserve">
<path fill="#CCCCCC" d="M3.113,26.237H85.38v77.042H3.113V26.237z"/>
<path fill="#C7C7C7" d="M3.113,81.044l82.267-32.24v54.475H3.113V81.044z"/>
<path fill="#C2C2C2" d="M3.113,84.156L85.38,52.14v51.139H3.113V84.156z"/>
<path fill="#BDBDBD" d="M3.113,88.937L85.38,56.92v46.358H3.113V88.937z"/>
<path fill="none" stroke="#000000" stroke-width="2" d="M3.113,26.237H85.38v77.042H3.113V26.237"/>
<path fill="#666666" stroke="#000000" stroke-width="2" d="M3.113,26.237h82.489l9.783-9.783H12.896L3.113,26.237z"/>
<path fill="#666666" stroke="#000000" stroke-width="2" d="M95.718,16.231L85.602,26.237v77.042l10.116-10.006V16.231z"/>
<path fill="#E0E0E0" d="M4.335,46.136h78.376v56.03H4.335V46.136z M5.447,47.359h76.041v53.585H5.447V47.359z"/>
<path fill="none" stroke="#000000" stroke-width="2" d="M4.335,46.136h78.376v56.03H4.335V46.136"/>
<path fill="none" stroke="#000000" stroke-width="2" d="M5.447,47.359h76.041v53.585H5.447V47.359"/>
<path fill="#7F0000" d="M103.834,51.583l0.667,0.334l1.223,0.667l0.89,0.667l0.556,1.001l0.445,0.777v38.688H93.495V55.475
	l0.223-0.223l0.333-1l0.667-1.001l1-0.667l0.891-0.667l1-0.334H103.834z"/>
<path fill="#940000" d="M103.834,51.583l0.667,0.334l1.223,0.667v41.133H94.051V54.808v-0.556l0.667-1.001l1-0.667l0.891-0.667
	l1-0.334H103.834z"/>
<path fill="#AB0000" d="M103.834,51.583h-6.226l-1,0.334l-0.891,0.667l-1,0.667l-0.445,0.778v39.688h9.562V51.583z"/>
<path fill="#BF0000" d="M94.495,53.807l0.223-0.556l1-0.667l0.891-0.667l1-0.334h4.559v42.134h-7.672V53.807z"/>
<path fill="#D40000" d="M94.718,53.251l1-0.667l0.891-0.667l1-0.334h2.668v42.134h-5.559V53.251z"/>
<path fill="#EB0000" d="M94.94,53.14l0.777-0.556l0.891-0.667l1-0.334h0.667v42.134H94.94V53.14z"/>
<path fill="#FF0000" d="M95.163,52.807l0.555-0.223l0.891-0.667v41.8h-1.445V52.807z"/>
<path fill="none" stroke="#000000" stroke-width="2" d="M103.834,51.583l0.667,0.334l1.223,0.667l0.89,0.667l0.556,1.001
	l0.445,0.777v38.688H93.495V55.475l0.223-0.223l0.333-1l0.667-1.001l1-0.667l0.891-0.667l1-0.334H103.834"/>
<path fill="#E0E0E0" stroke="#000000" stroke-width="2" d="M98.053,49.916v0.333h-0.667v-0.333v2.001h6.448v-2.001h-0.778v0.333
	h-0.667v-0.333h-0.778v0.333h-0.667v-0.333h-1.223v0.333h-0.667v-0.333H98.053z"/>
<path fill="#B2B2B2" d="M93.495,92.606h14.341v2.557H93.495V92.606z"/>
<path fill="#F0F0F0" d="M94.94,92.606h0.444v2.557H94.94V92.606z"/>
<path fill="#7F7F7F" d="M106.169,92.606h1.667v2.557h-1.667V92.606z"/>
<path fill="none" stroke="#000000" stroke-width="2" d="M93.495,92.606h14.341v2.557H93.495V92.606"/>
<path d="M10.45,78.709V70.26h0.333l0.222-0.222v-2.112l-0.222-0.223H8.338l-0.222,0.223v2.112l0.222,0.222H8.56v8.449l-0.444,0.445
	v1.89l0.444,0.222h1.89l0.556-0.222v-1.89L10.45,78.709z"/>
<path fill="#E0E0E0" stroke="#000000" stroke-width="2" d="M8.783,68.148l0.222,0.223H8.783v0.223L8.56,68.37v-0.223H8.783z"/>
<path fill="#E0E0E0" stroke="#000000" stroke-width="2" d="M8.783,80.599l0.222,0.223l-0.222,0.223H8.56v-0.223v-0.223H8.783z"/>
<path fill="#E0E0E0" stroke="#000000" stroke-width="2" d="M10.228,68.148h0.223v0.223l-0.223,0.223l-0.222-0.223v-0.223H10.228z"/>
<path fill="#E0E0E0" stroke="#000000" stroke-width="2" d="M10.228,80.599h0.223v0.223v0.223h-0.223h-0.222v-0.223v-0.223H10.228z"
	/>
<path fill="#E0E0E0" stroke="#000000" stroke-width="2" d="M79.153,52.14h2.335V61.7h-2.335V52.14z"/>
<path fill="#F0F0F0" stroke="#000000" stroke-width="2" d="M83.267,52.14h-1.778V61.7h1.778V52.14z"/>
<path fill="#E0E0E0" stroke="#000000" stroke-width="2" d="M83.267,52.14h2.113V61.7h-2.113V52.14z"/>
<path fill="#FFFFFF" stroke="#000000" stroke-width="2" d="M80.377,52.807l0.222,0.333l0.223,0.111l-0.223,0.333l-0.222,0.223
	l-0.223-0.223l-0.333-0.333l0.333-0.111L80.377,52.807z"/>
<path fill="#FFFFFF" stroke="#000000" stroke-width="2" d="M80.377,59.477h0.222l0.223,0.556l-0.223,0.223l-0.222,0.223
	l-0.223-0.223l-0.333-0.223l0.333-0.556H80.377z"/>
<path fill="#FFFFFF" stroke="#000000" stroke-width="2" d="M84.379,52.807l0.333,0.333v0.111v0.333l-0.333,0.223l-0.444-0.223
	v-0.333V53.14L84.379,52.807z"/>
<path fill="#FFFFFF" stroke="#000000" stroke-width="2" d="M84.379,59.477h0.333v0.556v0.223l-0.333,0.223l-0.444-0.223v-0.223
	v-0.556H84.379z"/>
<path fill="#E0E0E0" stroke="#000000" stroke-width="2" d="M79.153,87.491h2.335v9.562h-2.335V87.491z"/>
<path fill="#F0F0F0" stroke="#000000" stroke-width="2" d="M83.267,87.491h-1.778v9.562h1.778V87.491z"/>
<path fill="#E0E0E0" stroke="#000000" stroke-width="2" d="M83.267,87.491h2.113v9.562h-2.113V87.491z"/>
<path fill="#FFFFFF" stroke="#000000" stroke-width="2" d="M80.377,88.492h0.222l0.223,0.444l-0.223,0.223h-0.222h-0.223
	l-0.333-0.223l0.333-0.444H80.377z"/>
<path fill="#FFFFFF" stroke="#000000" stroke-width="2" d="M80.377,94.941l0.222,0.222l0.223,0.223l-0.223,0.556h-0.222h-0.223
	l-0.333-0.556l0.333-0.223L80.377,94.941z"/>
<path fill="#FFFFFF" stroke="#000000" stroke-width="2" d="M84.379,88.492h0.333v0.444v0.223h-0.333h-0.444v-0.223v-0.444H84.379z"
	/>
<path fill="#FFFFFF" stroke="#000000" stroke-width="2" d="M84.379,94.941l0.333,0.222v0.223v0.556h-0.333h-0.444v-0.556v-0.223
	L84.379,94.941z"/>
<path fill="#0000BF" stroke="#000000" stroke-width="2" d="M49.805,18.343V3.113h11.229v15.23H49.805z"/>
<path fill="#0000AD" stroke="#000000" stroke-width="2" d="M47.137,18.343v5.337h14.007v-5.337H47.137z"/>
<path fill="none" stroke="#000000" stroke-width="2" d="M50.917,5.003v5.447"/>
<path fill="none" stroke="#000000" stroke-width="2" d="M52.362,5.225v4.113"/>
<path fill="none" stroke="#000000" stroke-width="2" d="M55.03,5.67v5.336"/>
<path fill="none" stroke="#000000" stroke-width="2" d="M56.919,5.448v3.891"/>
<path fill="#0000AD" d="M49.805,17.232l-2.446,0.667l-2.112,1.223l-1.556,2.112l-0.445,2.446l-10.784,0.222l0.556-3.557l1-3.113
	l1.667-3.112l1.89-2.446l2.557-2.112l2.891-1.667l3.335-1.001l3.446-0.444V17.232z"/>
<path fill="#0000E0" d="M49.805,8.782l-2.001,0.556l-3.335,1.668l-2.557,1.668l-2.001,2.112l-1.668,2.445l-1.223,2.779l-0.445,2.891
	v1h-4.113l0.556-3.557l1-3.113l1.667-3.112l1.89-2.446l2.557-2.112l2.891-1.667l3.335-1.001l3.446-0.444V8.782z"/>
<path fill="none" stroke="#000000" stroke-width="2" d="M34.019,17.232l10.005,4.002"/>
<path fill="none" stroke="#000000" stroke-width="2" d="M45.469,19.344l-7.671-7.671"/>
<path fill="none" stroke="#000000" stroke-width="2" d="M47.359,17.676l-4.113-9.561"/>
<path fill="none" stroke="#000000" stroke-width="2" d="M49.805,17.232l-2.446,0.667l-2.112,1.223l-1.556,2.112l-0.445,2.446
	l-10.784,0.222l0.556-3.557l1-3.113l1.667-3.112l1.89-2.446l2.557-2.112l2.891-1.667l3.335-1.001l3.446-0.444V17.232"/>
<path fill="none" stroke="#000000" stroke-width="2" d="M3.558,35.353h81.377"/>
<path fill="#E0E0E0" stroke="#000000" stroke-width="2" d="M87.047,32.24h9.339v47.582h-9.339V32.24z"/>
<path fill="#E0E0E0" stroke="#000000" stroke-width="2" d="M87.047,32.24h9.339l2.111-2.334h-9.338L87.047,32.24z"/>
<path fill="#7F7F7F" stroke="#000000" stroke-width="2" d="M98.72,29.906l-2.334,2.334v47.582l2.334-2.335V29.906z"/>
<path stroke="#000000" stroke-width="2" d="M93.272,56.698l-0.444,1.111l-1.224,0.557l-1.223-0.557l-0.444-1.111l0.444-1.223
	l1.223-0.445l1.224,0.445L93.272,56.698z"/>
<path stroke="#000000" stroke-width="2" d="M93.272,64.368l-0.444,1.111l-1.224,0.778l-1.223-0.778l-0.444-1.111l0.444-1.223
	l1.223-0.445l1.224,0.445L93.272,64.368z"/>
<path stroke="#000000" stroke-width="2" d="M93.272,72.484l-0.444,1.112l-1.224,0.556l-1.223-0.556l-0.444-1.112l0.444-1.223
	l1.223-0.444l1.224,0.444L93.272,72.484z"/>
<path stroke="#000000" stroke-width="2" d="M89.716,42.023l0.443,1.223l1.224,0.445l1.223-0.445l0.444-1.223l-0.444-1.111
	l-1.223-0.778l-1.224,0.778L89.716,42.023z"/>
<path stroke="#000000" stroke-width="2" d="M89.716,36.131l0.443,1.223l1.224,0.444l1.223-0.444l0.444-1.223l-0.444-1.224
	l-1.223-0.444l-1.224,0.444L89.716,36.131z"/>
<path fill="#FF0000" d="M90.159,42.023l0.223,0.778l1.001,0.444l0.89-0.444l0.556-0.778l-0.556-0.89l-0.89-0.444l-1.001,0.444
	L90.159,42.023z"/>
<path fill="#00FF00" d="M90.159,36.131l0.223,0.889l1.001,0.557l0.89-0.557l0.556-0.889l-0.556-1.001l-0.89-0.223l-1.001,0.223
	L90.159,36.131z"/>
<path fill="#E0E0E0" d="M93.05,57.142l-0.222,0.557l-2.446-1.557l0.223-0.445L93.05,57.142z"/>
<path fill="#E0E0E0" d="M93.05,65.035l-0.222,0.223l-2.446-1.445l0.223-0.223L93.05,65.035z"/>
<path fill="#E0E0E0" d="M93.05,72.929l-0.222,0.444l-2.446-1.445l0.223-0.444L93.05,72.929z"/>
<path d="M87.714,47.804h8.004l-1.223,4.336h-5.336L87.714,47.804z"/>
<path fill="#FFFFFF" stroke="#000000" stroke-width="2" d="M88.271,48.027h6.893l-0.668,2.668h-5.336L88.271,48.027z"/>
<path fill="none" stroke="#000000" stroke-width="2" d="M92.272,48.804l-0.668,1.891"/>
<path fill="none" stroke="#000000" stroke-width="2" d="M88.714,48.248v0.556"/>
<path fill="none" stroke="#000000" stroke-width="2" d="M89.716,48.248v0.556"/>
<path fill="none" stroke="#000000" stroke-width="2" d="M90.382,48.248v0.556"/>
<path fill="none" stroke="#000000" stroke-width="2" d="M91.16,48.248v0.556"/>
<path fill="none" stroke="#000000" stroke-width="2" d="M91.827,48.248v0.556"/>
<path fill="none" stroke="#000000" stroke-width="2" d="M92.605,48.248v0.556"/>
<path fill="none" stroke="#000000" stroke-width="2" d="M93.272,48.248v0.556"/>
<path fill="none" stroke="#000000" stroke-width="2" d="M94.051,48.248v0.556"/>
<path fill="none" stroke="#000000" stroke-width="2" d="M94.718,48.248v0.556"/>
<path fill="none" stroke="#FFFFFF" stroke-width="2" d="M33.685,44.024v-6.67H57.81"/>
<path fill="none" stroke="#999999" stroke-width="2" d="M33.685,44.024H57.81v-6.67"/>
</svg>
