<?xml version="1.0" encoding="utf-8"?>
<!-- Generator: Adobe Illustrator 14.0.0, SVG Export Plug-In . SVG Version: 6.00 Build 43363)  -->
<!DOCTYPE svg PUBLIC "-//W3C//DTD SVG 1.1//EN" "http://www.w3.org/Graphics/SVG/1.1/DTD/svg11.dtd">
<svg version="1.1" id="图层_1" xmlns="http://www.w3.org/2000/svg" xmlns:xlink="http://www.w3.org/1999/xlink" x="0px" y="0px"
	 width="31.024px" height="106.502px" viewBox="0 0 31.024 106.502" enable-background="new 0 0 31.024 106.502"
	 xml:space="preserve">
<path fill="#669999" d="M20.257,103.091l-2.985,0.319h-3.518l-3.198-0.319l-2.772-0.854l-2.452-1.172l-1.599-1.387l-0.746-1.705
	V8.422l0.746-1.706L5.331,5.33l2.452-1.173l2.772-0.853l3.198-0.32h3.518l3.198,0.32l2.771,0.853L25.48,5.33l1.812,1.386
	l0.747,1.706v89.552l-0.747,1.705l-1.812,1.387l-2.239,1.172L20.257,103.091z"/>
<path fill="#6B9E9E" d="M19.83,103.091l-2.772,0.319h-3.091l-2.772-0.319l-2.559-0.854l-2.132-1.172l-1.599-1.387l-0.533-1.705
	V8.422l0.533-1.706L6.504,5.33l2.132-1.173l2.559-0.853l2.772-0.32h3.091l2.772,0.32l2.559,0.853l2.025,1.173l1.599,1.386
	l0.854,1.706v89.552l-0.854,1.705l-1.599,1.387l-2.025,1.172L19.83,103.091z"/>
<path fill="#73A6A6" d="M19.403,103.091l-2.559,0.319H14.18l-2.345-0.319l-2.452-0.854l-1.813-1.172l-1.172-1.387l-0.853-1.705
	V8.422l0.853-1.706L7.57,5.33l1.813-1.173l2.239-0.853l2.559-0.32h2.665l2.559,0.32l2.239,0.853l1.812,1.173l1.387,1.386l0.64,1.706
	v89.552l-0.64,1.705l-1.387,1.387l-1.812,1.172L19.403,103.091z"/>
<path fill="#78ABAB" d="M18.87,103.091l-2.238,0.319h-2.239l-2.239-0.319l-1.919-0.854l-1.599-1.172L7.57,99.679l-0.64-1.705V8.422
	l0.64-1.706L8.636,5.33l1.599-1.173l1.919-0.853l2.239-0.32h2.239l2.238,0.32l1.92,0.853l1.599,1.173l1.279,1.386l0.64,1.706v89.552
	l-0.64,1.705l-1.279,1.387l-1.599,1.172L18.87,103.091z"/>
<path fill="#7FB2B2" d="M18.444,103.091l-2.025,0.319h-1.813l-1.813-0.319l-1.813-0.854l-1.386-1.172l-0.853-1.387l-0.533-1.705
	V8.422l0.533-1.706L9.596,5.33l1.386-1.173l1.599-0.853l2.026-0.32h1.813l2.025,0.32l1.6,0.853l1.385,1.173l0.854,1.386l0.533,1.706
	v89.552l-0.427,1.705l-0.96,1.387l-1.385,1.172L18.444,103.091z"/>
<path fill="#85B8B8" d="M17.805,103.091l-1.386,0.319h-1.6l-1.599-0.319l-1.386-0.854l-1.066-1.172l-0.746-1.387l-0.426-1.705V8.422
	l0.426-1.706l0.746-1.386l1.066-1.173l1.386-0.853l1.599-0.32h1.6l1.386,0.32l1.386,0.853L20.47,5.33l0.533,1.386l0.426,1.706
	v89.552l-0.426,1.705l-0.533,1.387l-1.279,1.172L17.805,103.091z"/>
<path fill="#8CBFBF" d="M17.378,103.091l-1.172,0.319h-1.173l-1.279-0.319l-1.173-0.854l-0.746-1.172l-0.64-1.387l-0.427-1.705
	V8.422l0.427-1.706l0.64-1.386l0.746-1.173l1.173-0.853l1.279-0.32h1.173l1.172,0.32l1.066,0.853L19.19,5.33l0.64,1.386l0.427,1.706
	v89.552l-0.427,1.705l-0.64,1.387l-0.746,1.172L17.378,103.091z"/>
<path fill="#91C4C4" d="M16.845,103.091l-0.853,0.319h-0.959l-0.853-0.319l-0.853-0.854l-0.533-1.172l-0.426-1.387l-0.213-1.705
	V8.422l0.213-1.706l0.426-1.386l0.533-1.173l0.853-0.853l0.853-0.32h0.959l0.853,0.32l0.746,0.853l0.641,1.173l0.426,1.386
	l0.213,1.706v89.552l-0.213,1.705l-0.426,1.387l-0.641,1.172L16.845,103.091z"/>
<ellipse fill="#99CCCC" cx="15.459" cy="53.198" rx="1.066" ry="50.213"/>
<path fill="none" stroke="#99CCCC" stroke-width="2" d="M2.986,12.366l0.746-0.959l1.599-1.066l2.452-0.533l2.772-0.64l3.198-0.213
	h3.518l3.198,0.213l2.771,0.64l2.239,0.533l1.812,1.066l0.747,0.959"/>
<path fill="none" stroke="#99CCCC" stroke-width="2" d="M2.986,17.377l0.746-0.746l1.813-0.853l2.239-0.747l2.772-0.426l3.198-0.214
	h3.518l3.198,0.214l2.771,0.426l2.452,0.747l1.599,0.853l0.747,0.746"/>
<path fill="none" stroke="#99CCCC" stroke-width="2" d="M2.986,22.601l0.746-0.746l1.813-0.853l2.239-0.533l2.772-0.427l3.198-0.213
	h3.518l3.198,0.213l2.771,0.427l2.452,0.533l1.599,0.853l0.747,0.746"/>
<path fill="none" stroke="#99CCCC" stroke-width="2" d="M2.986,27.612l0.746-0.533l1.813-0.64l2.239-0.533l2.772-0.426l3.198-0.214
	h3.518l3.198,0.214l2.771,0.426l2.452,0.533l1.599,0.64l0.747,0.533"/>
<path fill="none" stroke="#99CCCC" stroke-width="2" d="M2.986,32.729l0.746-0.426l1.813-0.64l2.239-0.32l2.772-0.213l3.198-0.214
	h3.518l3.198,0.214l2.771,0.213l2.452,0.32l1.599,0.64l0.747,0.426"/>
<path fill="none" stroke="#99CCCC" stroke-width="2" d="M2.986,37.952l0.746-0.64L5.544,37.1l2.239-0.427l2.772-0.213l3.198-0.213
	h3.518l3.198,0.213l2.771,0.213l2.452,0.427l1.599,0.213l0.747,0.64"/>
<path fill="none" stroke="#99CCCC" stroke-width="2" d="M2.986,42.963l0.746-0.426l1.813-0.214l2.239-0.213l2.772-0.213h3.198h3.518
	h3.198l2.771,0.213l2.452,0.213l1.599,0.214l0.747,0.426"/>
<path fill="none" stroke="#99CCCC" stroke-width="2" d="M2.986,48.188l0.746-0.427h1.813l2.239-0.214l2.772-0.213h3.198h3.518h3.198
	l2.771,0.213l2.452,0.214h1.599l0.747,0.427"/>
<path fill="none" stroke="#99CCCC" stroke-width="2" d="M2.986,53.198l0.746-0.213h1.813h2.239l2.772-0.213h3.198h3.518h3.198
	l2.771,0.213h2.452h1.599l0.747,0.213"/>
<path fill="none" stroke="#99CCCC" stroke-width="2" d="M2.986,58.208h0.746l1.813,0.214l2.239-0.214l2.772,0.214h3.198h3.518h3.198
	l2.771-0.214l2.452,0.214l1.599-0.214h0.747"/>
<path fill="none" stroke="#99CCCC" stroke-width="2" d="M2.986,63.432h0.746l1.813,0.214h2.239l2.772,0.213h3.198h3.518h3.198
	l2.771-0.213h2.452l1.599-0.214h0.747"/>
<path fill="none" stroke="#99CCCC" stroke-width="2" d="M2.986,68.443l0.746,0.214l1.813,0.213l2.239,0.213l2.772,0.214h3.198h3.518
	h3.198l2.771-0.214l2.452-0.213l1.599-0.213l0.747-0.214"/>
<path fill="none" stroke="#99CCCC" stroke-width="2" d="M2.986,73.667l0.746,0.213l1.813,0.427l2.239,0.213l2.772,0.213l3.198,0.214
	h3.518l3.198-0.214l2.771-0.213l2.452-0.213l1.599-0.427l0.747-0.213"/>
<path fill="none" stroke="#99CCCC" stroke-width="2" d="M2.986,78.784l0.746,0.319l1.813,0.427l2.239,0.426l2.772,0.214l3.198,0.213
	h3.518l3.198-0.213l2.771-0.214l2.452-0.426l1.599-0.427l0.747-0.319"/>
<path fill="none" stroke="#99CCCC" stroke-width="2" d="M2.986,83.794l0.746,0.533l1.813,0.64l2.239,0.427l2.772,0.427h3.198h3.518
	h3.198l2.771-0.427l2.452-0.427l1.599-0.64l0.747-0.533"/>
<path fill="none" stroke="#99CCCC" stroke-width="2" d="M2.986,89.019l0.746,0.533l1.813,0.64l2.239,0.64l2.772,0.319l3.198,0.213
	h3.518l3.198-0.213l2.771-0.319l2.452-0.64l1.599-0.64l0.747-0.533"/>
<path fill="none" stroke="#99CCCC" stroke-width="2" d="M2.986,94.03l0.746,0.746l1.599,0.853l2.452,0.533l2.772,0.427l3.198,0.213
	h3.518l3.198-0.213l2.771-0.427l2.239-0.533l1.812-0.853l0.747-0.746"/>
<path fill="none" stroke="#669999" stroke-width="2" d="M2.986,13.22l0.746-1.066l1.599-0.96l2.452-0.64l2.772-0.533l3.198-0.213
	h3.518l3.198,0.213l2.771,0.533l2.239,0.64l1.812,0.96l0.747,1.066"/>
<path fill="none" stroke="#669999" stroke-width="2" d="M2.986,18.23l0.746-0.853l1.813-0.746l2.239-0.853l2.772-0.32l3.198-0.213
	h3.518l3.198,0.213l2.771,0.32l2.452,0.853l1.599,0.746l0.747,0.853"/>
<path fill="none" stroke="#669999" stroke-width="2" d="M2.986,23.454l0.746-0.854l1.813-0.746l2.239-0.64l2.772-0.427l3.198-0.213
	h3.518l3.198,0.213l2.771,0.427l2.452,0.64l1.599,0.746l0.747,0.854"/>
<path fill="none" stroke="#669999" stroke-width="2" d="M2.986,28.464l0.746-0.64l1.813-0.532l2.239-0.64l2.772-0.214l3.198-0.213
	h3.518l3.198,0.213l2.771,0.214l2.452,0.64l1.599,0.532l0.747,0.64"/>
<path fill="none" stroke="#669999" stroke-width="2" d="M2.986,33.689l0.746-0.64l1.813-0.533l2.239-0.427l2.772-0.213l3.198-0.213
	h3.518l3.198,0.213l2.771,0.213l2.452,0.427l1.599,0.533l0.747,0.64"/>
<path fill="none" stroke="#669999" stroke-width="2" d="M2.986,38.699l0.746-0.32l1.813-0.427l2.239-0.426l2.772-0.214l3.198-0.213
	h3.518l3.198,0.213l2.771,0.214l2.452,0.426l1.599,0.427l0.747,0.32"/>
<path fill="none" stroke="#669999" stroke-width="2" d="M2.986,43.709l0.746-0.213l1.813-0.319l2.239-0.214l2.772-0.213h3.198h3.518
	h3.198l2.771,0.213l2.452,0.214l1.599,0.319l0.747,0.213"/>
<path fill="none" stroke="#669999" stroke-width="2" d="M2.986,48.934l0.746-0.106l1.813-0.214l2.239-0.213l2.772-0.213h3.198h3.518
	h3.198l2.771,0.213l2.452,0.213l1.599,0.214l0.747,0.106"/>
<path fill="none" stroke="#669999" stroke-width="2" d="M2.986,54.051h0.746l1.813-0.214h2.239h2.772l3.198-0.213h3.518l3.198,0.213
	h2.771h2.452l1.599,0.214h0.747"/>
<path fill="none" stroke="#669999" stroke-width="2" d="M2.986,59.062l0.746,0.106h1.813h2.239h2.772h3.198h3.518h3.198h2.771h2.452
	h1.599l0.747-0.106"/>
<path fill="none" stroke="#669999" stroke-width="2" d="M2.986,64.285l0.746,0.213h1.813l2.239,0.106h2.772h3.198h3.518h3.198h2.771
	l2.452-0.106h1.599l0.747-0.213"/>
<path fill="none" stroke="#669999" stroke-width="2" d="M2.986,69.296l0.746,0.426l1.813,0.214h2.239l2.772,0.213h3.198h3.518h3.198
	l2.771-0.213h2.452l1.599-0.214l0.747-0.426"/>
<path fill="none" stroke="#669999" stroke-width="2" d="M2.986,74.52l0.746,0.427l1.813,0.106l2.239,0.213l2.772,0.213l3.198,0.214
	h3.518l3.198-0.214l2.771-0.213l2.452-0.213l1.599-0.106l0.747-0.427"/>
<path fill="none" stroke="#669999" stroke-width="2" d="M2.986,79.531l0.746,0.426l1.813,0.533l2.239,0.214l2.772,0.426h3.198h3.518
	h3.198l2.771-0.426l2.452-0.214l1.599-0.533l0.747-0.426"/>
<path fill="none" stroke="#669999" stroke-width="2" d="M2.986,84.541l0.746,0.64l1.813,0.64l2.239,0.319l2.772,0.427l3.198,0.213
	h3.518l3.198-0.213l2.771-0.427l2.452-0.319l1.599-0.64l0.747-0.64"/>
<path fill="none" stroke="#669999" stroke-width="2" d="M2.986,89.765l0.746,0.64l1.813,0.746l2.239,0.427l2.772,0.426l3.198,0.214
	h3.518l3.198-0.214l2.771-0.426l2.452-0.427l1.599-0.746l0.747-0.64"/>
<path fill="none" stroke="#669999" stroke-width="2" d="M2.986,94.776l0.746,1.065l1.599,0.533l2.452,0.64l2.772,0.427l3.198,0.213
	h3.518l3.198-0.213l2.771-0.427l2.239-0.64l1.812-0.533l0.747-1.065"/>
<path fill="none" stroke="#000000" stroke-width="2" d="M20.257,103.091l-2.985,0.319h-3.518l-3.198-0.319l-2.772-0.854
	l-2.452-1.172l-1.599-1.387l-0.746-1.705V8.422l0.746-1.706L5.331,5.33l2.452-1.173l2.772-0.853l3.198-0.32h3.518l3.198,0.32
	l2.771,0.853L25.48,5.33l1.812,1.386l0.747,1.706v89.552l-0.747,1.705l-1.812,1.387l-2.239,1.172L20.257,103.091"/>
</svg>
