<?xml version="1.0" encoding="utf-8"?>
<!-- Generator: Adobe Illustrator 14.0.0, SVG Export Plug-In . SVG Version: 6.00 Build 43363)  -->
<!DOCTYPE svg PUBLIC "-//W3C//DTD SVG 1.1//EN" "http://www.w3.org/Graphics/SVG/1.1/DTD/svg11.dtd">
<svg version="1.1" id="图层_1" xmlns="http://www.w3.org/2000/svg" xmlns:xlink="http://www.w3.org/1999/xlink" x="0px" y="0px"
	 width="90.403px" height="106.502px" viewBox="0 0 90.403 106.502" enable-background="new 0 0 90.403 106.502"
	 xml:space="preserve">
<path fill="#F0F0F0" d="M86.032,102.771V17.485H4.264V92.11L86.032,102.771z"/>
<path fill="#E0E0E0" d="M18.123,17.91h54.051L45.202,2.879L18.123,17.91z M19.189,17.91h51.918L45.202,3.625L19.189,17.91z"/>
<path fill="none" stroke="#000000" stroke-width="2" d="M18.123,17.91h54.051L45.202,2.879L18.123,17.91"/>
<path fill="none" stroke="#000000" stroke-width="2" d="M19.189,17.91h51.918L45.202,3.625L19.189,17.91"/>
<path fill="#E0E0E0" stroke="#000000" stroke-width="2" d="M2.879,18.977h2.665v84.54H2.879V18.977z"/>
<path fill="#E0E0E0" stroke="#000000" stroke-width="2" d="M84.54,18.977h2.878v84.54H84.54V18.977z"/>
<path fill="#E0E0E0" stroke="#000000" stroke-width="2" d="M2.879,18.977v-2.559h84.539v2.559H2.879z"/>
<path fill="#E0E0E0" stroke="#000000" stroke-width="2" d="M2.879,93.389V90.83h84.539v2.559H2.879z"/>
<path fill="#E0E0E0" stroke="#000000" stroke-width="2" d="M2.879,56.289v-2.665h84.539v2.665H2.879z"/>
<path fill="#E0E0E0" stroke="#000000" stroke-width="2" d="M2.879,36.034v-2.879h84.539v2.879H2.879z"/>
<path fill="#E0E0E0" stroke="#000000" stroke-width="2" d="M2.879,74.093v-2.559h84.539v2.559H2.879z"/>
<path fill="none" stroke="#000000" stroke-width="2" d="M8.529,75.372l0.213-2.346h0.427v13.007h0.532l0.214-1.493"/>
<path fill="none" stroke="#000000" stroke-width="2" d="M15.564,75.372l0.214-2.346h0.64v13.007h0.213l0.427-1.493"/>
<path fill="none" stroke="#000000" stroke-width="2" d="M22.494,75.372l0.214-2.346h0.64v13.007h0.213l0.427-1.493"/>
<path fill="none" stroke="#000000" stroke-width="2" d="M29.53,75.372l0.214-2.346h0.426v13.007h0.427l0.427-1.493"/>
<path fill="none" stroke="#000000" stroke-width="2" d="M36.46,75.372l0.213-2.346h0.427v13.007h0.427l0.426-1.493"/>
<path fill="none" stroke="#000000" stroke-width="2" d="M43.389,75.372l0.213-2.346h0.427v13.007h0.427l0.213-1.493"/>
<path fill="none" stroke="#000000" stroke-width="2" d="M50.319,75.372l0.213-2.346h0.427v13.007h0.426l0.32-1.493"/>
<path fill="none" stroke="#000000" stroke-width="2" d="M57.355,75.372l0.213-2.346h0.427v13.007h0.426l0.214-1.493"/>
<path fill="none" stroke="#000000" stroke-width="2" d="M64.284,75.372l0.214-2.346h0.426v13.007h0.427l0.213-1.493"/>
<path fill="none" stroke="#000000" stroke-width="2" d="M71.32,75.372l0.214-2.346h0.426v13.007h0.427l0.213-1.493"/>
<path fill="none" stroke="#000000" stroke-width="2" d="M78.25,75.372l0.214-2.346h0.426v13.007h0.427l0.213-1.493"/>
<path fill="none" stroke="#000000" stroke-width="2" d="M8.529,57.143l0.213-2.452h0.427v13.112h0.532l0.214-1.813"/>
<path fill="none" stroke="#000000" stroke-width="2" d="M15.564,57.143l0.214-2.452h0.64v13.112h0.213l0.427-1.813"/>
<path fill="none" stroke="#000000" stroke-width="2" d="M22.494,57.143l0.214-2.452h0.64v13.112h0.213l0.427-1.813"/>
<path fill="none" stroke="#000000" stroke-width="2" d="M29.53,57.143l0.214-2.452h0.426v13.112h0.427l0.427-1.813"/>
<path fill="none" stroke="#000000" stroke-width="2" d="M36.46,57.143l0.213-2.452h0.427v13.112h0.427l0.426-1.813"/>
<path fill="none" stroke="#000000" stroke-width="2" d="M43.389,57.143l0.213-2.452h0.427v13.112h0.427l0.213-1.813"/>
<path fill="none" stroke="#000000" stroke-width="2" d="M50.319,57.143l0.213-2.452h0.427v13.112h0.426l0.32-1.813"/>
<path fill="none" stroke="#000000" stroke-width="2" d="M57.355,57.143l0.213-2.452h0.427v13.112h0.426l0.214-1.813"/>
<path fill="none" stroke="#000000" stroke-width="2" d="M64.284,57.143l0.214-2.452h0.426v13.112h0.427l0.213-1.813"/>
<path fill="none" stroke="#000000" stroke-width="2" d="M71.32,57.143l0.214-2.452h0.426v13.112h0.427l0.213-1.813"/>
<path fill="none" stroke="#000000" stroke-width="2" d="M78.25,57.143l0.214-2.452h0.426v13.112h0.427l0.213-1.813"/>
<path fill="none" stroke="#000000" stroke-width="2" d="M8.529,36.887l0.213-2.239l0.427-0.213v13.326h0.532l0.214-1.706"/>
<path fill="none" stroke="#000000" stroke-width="2" d="M15.564,36.887l0.214-2.239l0.64-0.213v13.326h0.213l0.427-1.706"/>
<path fill="none" stroke="#000000" stroke-width="2" d="M22.494,36.887l0.214-2.239l0.64-0.213v13.326h0.213l0.427-1.706"/>
<path fill="none" stroke="#000000" stroke-width="2" d="M29.53,36.887l0.214-2.239l0.426-0.213v13.326h0.427l0.427-1.706"/>
<path fill="none" stroke="#000000" stroke-width="2" d="M36.46,36.887l0.213-2.239l0.427-0.213v13.326h0.427l0.426-1.706"/>
<path fill="none" stroke="#000000" stroke-width="2" d="M43.389,36.887l0.213-2.239l0.427-0.213v13.326h0.427l0.213-1.706"/>
<path fill="none" stroke="#000000" stroke-width="2" d="M50.319,36.887l0.213-2.239l0.427-0.213v13.326h0.426l0.32-1.706"/>
<path fill="none" stroke="#000000" stroke-width="2" d="M57.355,36.887l0.213-2.239l0.427-0.213v13.326h0.426l0.214-1.706"/>
<path fill="none" stroke="#000000" stroke-width="2" d="M64.284,36.887l0.214-2.239l0.426-0.213v13.326h0.427l0.213-1.706"/>
<path fill="none" stroke="#000000" stroke-width="2" d="M71.32,36.887l0.214-2.239l0.426-0.213v13.326h0.427l0.213-1.706"/>
<path fill="none" stroke="#000000" stroke-width="2" d="M78.25,36.887l0.214-2.239l0.426-0.213v13.326h0.427l0.213-1.706"/>
<path fill="none" stroke="#000000" stroke-width="2" d="M8.529,19.937l0.213-2.452h0.427V30.81h0.532l0.214-1.705"/>
<path fill="none" stroke="#000000" stroke-width="2" d="M15.564,19.937l0.214-2.452h0.64V30.81h0.213l0.427-1.705"/>
<path fill="none" stroke="#000000" stroke-width="2" d="M22.494,19.937l0.214-2.452h0.64V30.81h0.213l0.427-1.705"/>
<path fill="none" stroke="#000000" stroke-width="2" d="M29.53,19.937l0.214-2.452h0.426V30.81h0.427l0.427-1.705"/>
<path fill="none" stroke="#000000" stroke-width="2" d="M36.46,19.937l0.213-2.452h0.427V30.81h0.427l0.426-1.705"/>
<path fill="none" stroke="#000000" stroke-width="2" d="M43.389,19.937l0.213-2.452h0.427V30.81h0.427l0.213-1.705"/>
<path fill="none" stroke="#000000" stroke-width="2" d="M50.319,19.937l0.213-2.452h0.427V30.81h0.426l0.32-1.705"/>
<path fill="none" stroke="#000000" stroke-width="2" d="M57.355,19.937l0.213-2.452h0.427V30.81h0.426l0.214-1.705"/>
<path fill="none" stroke="#000000" stroke-width="2" d="M64.284,19.937l0.214-2.452h0.426V30.81h0.427l0.213-1.705"/>
<path fill="none" stroke="#000000" stroke-width="2" d="M71.32,19.937l0.214-2.452h0.426V30.81h0.427l0.213-1.705"/>
<path fill="none" stroke="#000000" stroke-width="2" d="M78.25,19.937l0.214-2.452h0.426V30.81h0.427l0.213-1.705"/>
</svg>
