<?xml version="1.0" encoding="utf-8"?>
<!-- Generator: Adobe Illustrator 14.0.0, SVG Export Plug-In . SVG Version: 6.00 Build 43363)  -->
<!DOCTYPE svg PUBLIC "-//W3C//DTD SVG 1.1//EN" "http://www.w3.org/Graphics/SVG/1.1/DTD/svg11.dtd">
<svg version="1.1" id="图层_1" xmlns="http://www.w3.org/2000/svg" xmlns:xlink="http://www.w3.org/1999/xlink" x="0px" y="0px"
	 width="144.749px" height="77.89px" viewBox="0 0 144.749 77.89" enable-background="new 0 0 144.749 77.89" xml:space="preserve">
<path fill="#0000E0" stroke="#000000" stroke-width="2" d="M140.107,68.025l-1.305,1.016V41.917l1.305-1.015V68.025z"/>
<path fill="#0000E0" stroke="#000000" stroke-width="2" d="M15.084,68.025l-1.015,1.016V41.917l1.015-1.015V68.025z"/>
<path fill="#7F7FFF" stroke="#000000" stroke-width="2" d="M135.757,69.041h3.046V41.917h-3.046V69.041z"/>
<path fill="#7F7FFF" stroke="#000000" stroke-width="2" d="M10.733,69.041h3.336V41.917h-3.336V69.041z"/>
<path fill="#F0F0F0" stroke="#000000" stroke-width="2" d="M8.992,44.819H130.39L85.137,69.041H54.535L8.992,44.819z"/>
<path fill="#B2B2B2" stroke="#000000" stroke-width="2" d="M136.771,43.224l-6.381,1.595L85.137,69.041l12.764-4.352L136.771,43.224
	z"/>
<path fill="#0000E0" stroke="#000000" stroke-width="2" d="M9.283,72.667l-0.871,1.015V46.56l0.871-1.016V72.667z"/>
<path fill="#0000E0" stroke="#000000" stroke-width="2" d="M134.741,72.667l-1.015,1.015V46.56l1.015-1.016V72.667z"/>
<path fill="#7F7FFF" stroke="#000000" stroke-width="2" d="M4.061,9.719h130.97V46.56H4.061V9.719z"/>
<path fill="#7F7FFF" stroke="#000000" stroke-width="2" d="M4.061,9.719h130.97l5.656-5.656H9.718L4.061,9.719z"/>
<path fill="#0000E0" stroke="#000000" stroke-width="2" d="M140.687,4.063l-5.656,5.656V46.56l5.656-5.657V4.063z"/>
<path fill="#F0F0F0" stroke="#000000" stroke-width="2" d="M64.977,26.399h2.32v3.771h-2.32V26.399z"/>
<path fill="#7F7F7F" stroke="#000000" stroke-width="2" d="M64.977,27.849h2.32v0.581h-2.32V27.849z"/>
<path fill="#7F7FFF" stroke="#000000" stroke-width="2" d="M5.366,73.681h3.046V46.56H5.366V73.681z"/>
<path fill="#7F7FFF" stroke="#000000" stroke-width="2" d="M130.68,73.681h3.046V46.56h-3.046V73.681z"/>
<path fill="#F0F0F0" stroke="#000000" stroke-width="2" d="M71.069,26.399h2.32v3.771h-2.32V26.399z"/>
<path fill="#7F7F7F" stroke="#000000" stroke-width="2" d="M71.069,27.849h2.32v0.581h-2.32V27.849z"/>
<path fill="#CCCCCC" stroke="#000000" stroke-width="2" d="M6.672,12.04h17.405v17.405l-0.581,0.435L6.382,12.765L6.672,12.04z"/>
<path fill="#E0E0E0" stroke="#000000" stroke-width="2" d="M5.947,12.765h17.549V29.88H5.947V12.765z"/>
<path stroke="#000000" stroke-width="2" d="M12.038,23.788l-1.305,0.29l-0.29,1.306l0.29,1.015l1.305,0.725l1.016-0.725l0.726-1.015
	l-0.726-1.306L12.038,23.788z"/>
<path stroke="#000000" stroke-width="2" d="M17.695,23.788l-1.016,0.29l-0.58,1.306l0.58,1.015l1.016,0.725L19,26.399l0.436-1.015
	L19,24.078L17.695,23.788z"/>
<path fill="#FF0000" d="M12.038,24.078l-1.015,0.435l-0.29,0.871l0.29,1.015l1.015,0.435l1.016-0.435l0.29-1.015l-0.29-0.871
	L12.038,24.078z"/>
<path fill="#00FF00" d="M17.695,24.078l-1.016,0.435l-0.29,0.871l0.29,1.015l1.016,0.435l1.015-0.435L19,25.384l-0.29-0.871
	L17.695,24.078z"/>
<path d="M8.702,14.071h11.749l-1.741,6.672h-7.687L8.702,14.071z"/>
<path fill="#FFFFFF" stroke="#000000" stroke-width="2" d="M9.718,14.361h10.008l-1.016,4.061h-7.687L9.718,14.361z"/>
<path fill="none" stroke="#000000" stroke-width="2" d="M15.664,15.666l-0.87,2.756"/>
<path fill="none" stroke="#000000" stroke-width="2" d="M10.443,14.796v0.58"/>
<path fill="none" stroke="#000000" stroke-width="2" d="M11.458,14.796v0.58"/>
<path fill="none" stroke="#000000" stroke-width="2" d="M12.763,14.796v0.58"/>
<path fill="none" stroke="#000000" stroke-width="2" d="M13.779,14.796v0.58"/>
<path fill="none" stroke="#000000" stroke-width="2" d="M14.794,14.796v0.58"/>
<path fill="none" stroke="#000000" stroke-width="2" d="M16.099,14.796v0.58"/>
<path fill="none" stroke="#000000" stroke-width="2" d="M17.115,14.796v0.58"/>
<path fill="none" stroke="#000000" stroke-width="2" d="M18.13,14.796v0.58"/>
<path fill="none" stroke="#000000" stroke-width="2" d="M19.435,14.796v0.58"/>
<path fill="none" stroke="#6699FF" stroke-width="2" d="M45.833,45.253V11.46h22.48"/>
<path fill="none" stroke="#333333" stroke-width="2" d="M45.833,45.253h22.48V11.46"/>
<path fill="none" stroke="#6699FF" stroke-width="2" d="M69.763,45.253V11.46h22.771"/>
<path fill="none" stroke="#333333" stroke-width="2" d="M69.763,45.253h22.771V11.46"/>
<path fill="none" stroke="#6699FF" stroke-width="2" d="M113.855,25.384V15.086h4.786"/>
<path fill="none" stroke="#333333" stroke-width="2" d="M113.855,25.384h4.786V15.086"/>
<path fill="none" stroke="#6699FF" stroke-width="2" d="M120.237,25.384V15.086h4.786"/>
<path fill="none" stroke="#333333" stroke-width="2" d="M120.237,25.384h4.786V15.086"/>
</svg>
