<?xml version="1.0" encoding="utf-8"?>
<!-- Generator: Adobe Illustrator 14.0.0, SVG Export Plug-In . SVG Version: 6.00 Build 43363)  -->
<!DOCTYPE svg PUBLIC "-//W3C//DTD SVG 1.1//EN" "http://www.w3.org/Graphics/SVG/1.1/DTD/svg11.dtd">
<svg version="1.1" id="图层_1" xmlns="http://www.w3.org/2000/svg" xmlns:xlink="http://www.w3.org/1999/xlink" x="0px" y="0px"
	 width="135.879px" height="106.502px" viewBox="0 0 135.879 106.502" enable-background="new 0 0 135.879 106.502"
	 xml:space="preserve">
<path fill="#0000FF" stroke="#000000" stroke-width="2" d="M125.541,96.844l-0.816,0.815v5.033l0.816-0.816V96.844z"/>
<path fill="#0000FF" stroke="#000000" stroke-width="2" d="M10.201,91.131h120.916V96.3H10.201V91.131z"/>
<path fill="#0000FF" stroke="#000000" stroke-width="2" d="M131.117,91.131l0.816-0.816v5.033l-0.816,0.952V91.131z"/>
<path fill="#0000FF" stroke="#000000" stroke-width="2" d="M3.809,97.659h120.916v5.033H3.809V97.659z"/>
<path fill="#0000AD" stroke="#000000" stroke-width="2" d="M3.809,97.659h120.916l7.209-7.345H11.017L3.809,97.659z"/>
<path fill="#0000BF" d="M50.189,18.907h32.1v75.08h-32.1V18.907z"/>
<path fill="#0000C9" d="M51.277,18.907h27.066v75.08H51.277V18.907z"/>
<path fill="#0000D4" d="M52.638,18.907H74.4v75.08H52.638V18.907z"/>
<path fill="#1F1FDE" d="M53.726,18.907h17.138v75.08H53.726V18.907z"/>
<path fill="#4040EB" d="M54.95,18.907h11.969v75.08H54.95V18.907z"/>
<path fill="#6161F5" d="M56.038,18.907h6.937v75.08h-6.937V18.907z"/>
<path fill="#7F7FFF" d="M57.126,18.907h1.904v75.08h-1.904V18.907z"/>
<path fill="none" stroke="#000000" stroke-width="2" d="M50.189,18.907h32.1v75.08h-32.1V18.907"/>
<path fill="#0000BF" d="M90.586,60.12h13.465v31.419H90.586V60.12z"/>
<path fill="#0000C9" d="M91.13,60.12h11.289v31.419H91.13V60.12z"/>
<path fill="#0000D4" d="M91.81,60.12h9.113v31.419H91.81V60.12z"/>
<path fill="#1F1FDE" d="M92.354,60.12h6.938v31.419h-6.938V60.12z"/>
<path fill="#4040EB" d="M92.626,60.12h5.032v31.419h-5.032V60.12z"/>
<path fill="#6161F5" d="M93.17,60.12h3.129v31.419H93.17V60.12z"/>
<path fill="#7F7FFF" d="M93.714,60.12h0.815v31.419h-0.815V60.12z"/>
<path fill="none" stroke="#000000" stroke-width="2" d="M90.586,60.12h13.465v31.419H90.586V60.12"/>
<path fill="#0000AD" stroke="#7F7F7F" stroke-width="2" d="M90.586,60.528l2.04,0.272h9.521l1.36-0.272h0.544v-0.544l-1.088-0.544
	l-1.633-0.68h-1.224l-1.36-0.272h-2.855l-1.088,0.272h-1.089l-1.088,0.271l-1.496,0.544L90.586,60.528z"/>
<path fill="#8282A1" d="M86.641,4.626h21.355v48.285l-7.89,6.528h-5.304l-8.162-6.528V4.626z"/>
<path fill="#8A8CAB" d="M87.049,4.626h18.906v48.285l-6.393,6.528h-4.76l-7.754-6.528V4.626z"/>
<path fill="#8F96B5" d="M87.594,4.626h16.457v48.285l-4.76,6.528h-4.217l-7.48-6.528V4.626z"/>
<path fill="#96A0BF" d="M87.865,4.626h14.281v48.285l-3.128,6.528h-3.673l-7.48-6.528V4.626z"/>
<path fill="#9BAAC9" d="M88.137,4.626h12.242v48.285l-1.633,6.528h-3.128l-7.481-6.528V4.626z"/>
<path fill="#A6B7D6" d="M88.409,4.626h10.065v48.285v6.528h-2.584l-7.481-6.528V4.626z"/>
<path fill="#AAC1E0" d="M88.682,4.626h7.752v48.285l1.77,6.528h-1.904l-7.617-6.528V4.626z"/>
<path fill="#B3CCEB" d="M88.953,4.626h5.576v48.285l3.4,6.528h-1.631l-7.346-6.528V4.626z"/>
<path fill="#B8D6F5" d="M89.226,4.626h3.4v48.285l5.032,6.528h-1.225l-7.208-6.528V4.626z"/>
<path fill="#BFE0FF" d="M89.498,4.626h1.088v48.285l6.801,6.528h-0.545l-7.344-6.528V4.626z"/>
<path fill="none" stroke="#000000" stroke-width="2" d="M86.641,4.626h21.355v48.285l-7.89,6.528h-5.304l-8.162-6.528V4.626"/>
<path fill="#6666FF" stroke="#000000" stroke-width="2" d="M107.996,52.911l-0.816,0.271l-2.313,0.272l-3.4,0.271h-4.08H93.17
	l-3.4-0.271l-2.176-0.272l-0.953-0.271v-0.816l0.953,0.272l2.176,0.271h3.4l4.217,0.272l4.08-0.272h3.4l2.313-0.271l0.816-0.272
	V52.911z"/>
<ellipse fill="#70707F" stroke="#000000" stroke-width="2" cx="97.25" cy="4.49" rx="10.609" ry="0.68"/>
<ellipse stroke="#000000" stroke-width="2" cx="97.25" cy="59.303" rx="2.721" ry="0.272"/>
<path fill="#0000FF" stroke="#000000" stroke-width="2" d="M83.921,7.754h2.585v87.321h-2.585V7.754z"/>
<path fill="#B2B2B2" stroke="#7F7F7F" stroke-width="2" d="M92.354,79.706l2.992,0.544l2.584,1.768l1.633,2.448l0.816,3.129
	l-0.816,2.992l-2.176,3.128L86.098,82.834l3.4-2.584L92.354,79.706z"/>
<ellipse fill="#B2B2B2" stroke="#7F7F7F" stroke-width="2" cx="91.674" cy="88.275" rx="7.753" ry="8.025"/>
<circle fill="#B2B2B2" stroke="#7F7F7F" stroke-width="2" cx="91.674" cy="88.275" r="5.577"/>
<ellipse fill="#B2B2B2" stroke="#7F7F7F" stroke-width="2" cx="91.674" cy="88.275" rx="3.264" ry="3.537"/>
<path fill="#B2B2B2" stroke="#7F7F7F" stroke-width="2" d="M91.81,87.323l0.544,0.272l0.545,0.816l-0.545,0.544l-0.544,0.271
	l-0.815-0.271l-0.408-0.544l0.408-0.816L91.81,87.323z"/>
<path fill="#F0F0F0" d="M7.889,64.609h34.684V96.98H7.889V64.609z"/>
<path fill="#E5E5E5" d="M42.573,67.193L7.889,93.444v3.536h34.684V67.193z"/>
<path fill="#E0E0E0" d="M42.573,79.162L18.906,96.98h23.667V79.162z"/>
<path fill="#CCCCCC" d="M42.573,87.866l-11.97,9.113h11.97V87.866z"/>
<path fill="none" stroke="#000000" stroke-width="2" d="M7.889,64.609h34.684V96.98H7.889V64.609"/>
<path fill="#E0E0E0" stroke="#000000" stroke-width="2" d="M48.421,58.488l-5.848,6.121V96.98l5.848-5.984V58.488z"/>
<path fill="#F0F0F0" stroke="#000000" stroke-width="2" d="M7.889,64.609h34.684l5.848-6.121H14.146L7.889,64.609z"/>
<path stroke="#000000" stroke-width="2" d="M12.105,68.281l1.496,0.544l0.544,1.496l-0.544,1.36l-1.496,0.272l-1.36-0.272
	l-0.544-1.36l0.544-1.496L12.105,68.281z"/>
<path stroke="#000000" stroke-width="2" d="M20.538,68.281l1.36,0.544l0.544,1.496l-0.544,1.36l-1.36,0.272l-1.36-0.272l-0.544-1.36
	l0.544-1.496L20.538,68.281z"/>
<path stroke="#000000" stroke-width="2" d="M29.107,68.281l1.496,0.544l0.544,1.496l-0.544,1.36l-1.496,0.272l-1.088-0.272
	l-0.544-1.36l0.544-1.496L29.107,68.281z"/>
<path stroke="#000000" stroke-width="2" d="M38.084,68.281l-1.36,0.544l-0.544,1.496l0.544,1.36l1.36,0.272l1.224-0.272l0.544-1.36
	l-0.544-1.496L38.084,68.281z"/>
<path stroke="#000000" stroke-width="2" d="M22.17,87.595l-1.088,0.544l-0.544,1.36l0.544,1.088l1.088,0.544l1.36-0.544l0.544-1.088
	l-0.544-1.36L22.17,87.595z"/>
<path stroke="#000000" stroke-width="2" d="M28.563,87.595l-1.36,0.544l-0.544,1.36l0.544,1.088l1.36,0.544l1.496-0.544l0.272-1.088
	l-0.272-1.36L28.563,87.595z"/>
<path fill="#FF0000" d="M22.17,88.139l-0.816,0.272l-0.544,1.088l0.544,0.815l0.816,0.681l1.088-0.681l0.272-0.815l-0.272-1.088
	L22.17,88.139z"/>
<path fill="#00FF00" d="M28.563,88.139l-1.088,0.272l-0.272,1.088l0.272,0.815l1.088,0.681l0.952-0.681l0.544-0.815l-0.544-1.088
	L28.563,88.139z"/>
<path fill="#E0E0E0" d="M12.649,68.824l0.544,0.272l-1.632,2.584l-0.272-0.271L12.649,68.824z"/>
<path fill="#E0E0E0" d="M21.082,68.824l0.544,0.272l-1.632,2.584l-0.272-0.271L21.082,68.824z"/>
<path fill="#E0E0E0" d="M29.787,68.824l0.544,0.272l-1.768,2.584l-0.136-0.271L29.787,68.824z"/>
<path fill="#E0E0E0" d="M37.268,68.824l-0.272,0.272l1.768,2.584l0.136-0.271L37.268,68.824z"/>
<path d="M21.082,76.306h8.433l-1.088,4.896h-5.713L21.082,76.306z"/>
<path fill="#FFFFFF" stroke="#000000" stroke-width="2" d="M21.626,76.714h7.345l-0.544,2.72h-5.713L21.626,76.714z"/>
<path fill="none" stroke="#000000" stroke-width="2" d="M26.115,77.53l-0.816,1.904"/>
<path fill="none" stroke="#000000" stroke-width="2" d="M22.17,76.986v0.544"/>
<path fill="none" stroke="#000000" stroke-width="2" d="M22.986,76.986v0.544"/>
<path fill="none" stroke="#000000" stroke-width="2" d="M23.938,76.986v0.544"/>
<path fill="none" stroke="#000000" stroke-width="2" d="M24.754,76.986v0.544"/>
<path fill="none" stroke="#000000" stroke-width="2" d="M25.299,76.986v0.544"/>
<path fill="none" stroke="#000000" stroke-width="2" d="M26.115,76.986v0.544"/>
<path fill="none" stroke="#000000" stroke-width="2" d="M26.931,76.986v0.544"/>
<path fill="none" stroke="#000000" stroke-width="2" d="M27.747,76.986v0.544"/>
<path fill="none" stroke="#000000" stroke-width="2" d="M28.563,76.986v0.544"/>
<path fill="#0000E0" stroke="#000000" stroke-width="2" d="M110.443,40.67h3.945v52.773h-3.945V40.67z"/>
<path fill="#0000E0" stroke="#000000" stroke-width="2" d="M123.909,44.206l0.272,0.952v7.48l-0.545,1.088l-0.136,0.272
	l-0.815,0.272h-5.033l-1.088-0.545l-0.137-0.136l-0.135-0.952v-8.433h-1.904v12.377h11.697V44.206H123.909z"/>
</svg>
