<?xml version="1.0" encoding="utf-8"?>
<!-- Generator: Adobe Illustrator 14.0.0, SVG Export Plug-In . SVG Version: 6.00 Build 43363)  -->
<!DOCTYPE svg PUBLIC "-//W3C//DTD SVG 1.1//EN" "http://www.w3.org/Graphics/SVG/1.1/DTD/svg11.dtd">
<svg version="1.1" id="图层_1" xmlns="http://www.w3.org/2000/svg" xmlns:xlink="http://www.w3.org/1999/xlink" x="0px" y="0px"
	 width="57.355px" height="106.502px" viewBox="0 0 57.355 106.502" enable-background="new 0 0 57.355 106.502"
	 xml:space="preserve">
<path fill="#8282A1" d="M46.268,50.107v2.878h6.93v-2.878H46.268z"/>
<path fill="#8F96B5" d="M46.268,50.32v2.238h6.93V50.32H46.268z"/>
<path fill="#9BAAC9" d="M46.268,50.32v1.706h6.93V50.32H46.268z"/>
<path fill="#AAC1E0" d="M46.268,50.32v1.173h6.93V50.32H46.268z"/>
<path fill="#B8D6F5" d="M46.268,50.639v0.427h6.93v-0.427H46.268z"/>
<path fill="none" stroke="#000000" stroke-width="2" d="M46.268,50.107v2.878h6.93v-2.878H46.268"/>
<path fill="#8282A1" d="M50.105,47.015v9.062h-0.746v-9.062H50.105z"/>
<path fill="#8F96B5" d="M50.105,47.548v6.822h-0.746v-6.822H50.105z"/>
<path fill="#9BAAC9" d="M50.105,47.761v5.011h-0.746v-5.011H50.105z"/>
<path fill="#AAC1E0" d="M50.105,47.974v3.092h-0.746v-3.092H50.105z"/>
<path fill="#B8D6F5" d="M50.105,48.188v1.492h-0.746v-1.492H50.105z"/>
<path fill="none" stroke="#000000" stroke-width="2" d="M50.105,47.015v9.062h-0.746v-9.062H50.105"/>
<path fill="#8282A1" d="M46.801,11.941v2.132h5.225v-2.132H46.801z"/>
<path fill="#8F96B5" d="M46.801,12.154v1.493h5.225v-1.493H46.801z"/>
<path fill="#9BAAC9" d="M46.801,12.154v1.279h5.225v-1.279H46.801z"/>
<path fill="#AAC1E0" d="M46.801,12.154V12.9h5.225v-0.746H46.801z"/>
<path fill="#B8D6F5" d="M46.801,12.154v0.533h5.225v-0.533H46.801z"/>
<path fill="none" stroke="#000000" stroke-width="2" d="M46.801,11.941v2.132h5.225v-2.132H46.801"/>
<path fill="#E0E0E0" stroke="#000000" stroke-width="2" d="M18.87,17.591h16.525v1.919H18.87V17.591z"/>
<path fill="#E0E0E0" stroke="#000000" stroke-width="2" d="M18.87,69.509h18.443v1.919H18.87V69.509z"/>
<path fill="#8282A1" d="M27.398,8.636H48.4v49.039l-7.783,6.396h-5.437l-7.782-6.396V8.636z"/>
<path fill="#8A8CAB" d="M27.611,8.636h18.977v49.039l-6.396,6.396h-4.797l-7.783-6.396V8.636z"/>
<path fill="#8F96B5" d="M27.825,8.636h16.844v49.039l-4.69,6.396h-4.371l-7.783-6.396V8.636z"/>
<path fill="#96A0BF" d="M28.251,8.636H42.75v49.039l-3.092,6.396h-3.731l-7.676-6.396V8.636z"/>
<path fill="#9BAAC9" d="M28.571,8.636h12.26v49.039l-1.386,6.396h-3.305l-7.57-6.396V8.636z"/>
<path fill="#A6B7D6" d="M28.784,8.636h10.234v49.039v6.396h-2.665l-7.569-6.396V8.636z"/>
<path fill="#AAC1E0" d="M28.998,8.636H37.1v49.039l1.6,6.396h-2.133l-7.569-6.396V8.636z"/>
<path fill="#B3CCEB" d="M29.53,8.636h5.65v49.039l3.305,6.396h-1.599l-7.356-6.396V8.636z"/>
<path fill="#B8D6F5" d="M29.744,8.636h3.305v49.039l5.01,6.396H37.1l-7.355-6.396V8.636z"/>
<path fill="#BFE0FF" d="M29.957,8.636h1.172v49.039l6.61,6.396h-0.427l-7.355-6.396V8.636z"/>
<path fill="none" stroke="#000000" stroke-width="2" d="M27.398,8.636H48.4v49.039l-7.783,6.396h-5.437l-7.782-6.396V8.636"/>
<path fill="#6666FF" stroke="#000000" stroke-width="2" d="M48.72,57.675l-0.96,0.32l-2.345,0.213l-3.305,0.214h-4.052h-4.264
	l-3.412-0.214l-2.345-0.213l-0.959-0.32v-0.959l0.959,0.319l2.345,0.214l3.412,0.213h4.264h4.052l3.305-0.213l2.345-0.214
	l0.96-0.319V57.675z"/>
<path fill="#E5E5E5" stroke="#000000" stroke-width="2" d="M48.72,19.51l-0.96,0.213h-2.345l-3.305,0.32h-4.052h-4.264l-3.412-0.32
	h-2.345l-0.959-0.213v-2.133l0.959,0.214l2.345,0.319h3.412h4.264h4.052h3.305l2.345-0.319l0.96-0.214V19.51z"/>
<ellipse fill="#70707F" stroke="#000000" stroke-width="2" cx="38.059" cy="8.636" rx="10.661" ry="0.746"/>
<path fill="#CCCCCC" stroke="#000000" stroke-width="2" d="M2.985,99.466h42.216v3.944H2.985V99.466z"/>
<path fill="#CCCCCC" stroke="#000000" stroke-width="2" d="M54.37,90.191l-9.169,9.275v3.944l9.169-9.168V90.191z"/>
<path fill="#E0E0E0" stroke="#000000" stroke-width="2" d="M2.985,99.466h42.216l9.169-9.275H12.153L2.985,99.466z"/>
<path fill="#8282A1" d="M14.072,95.095h5.437V3.198h-5.437V95.095z"/>
<path fill="#8A8CAB" d="M14.072,95.095h5.011V3.198h-5.011V95.095z"/>
<path fill="#8F96B5" d="M14.286,95.095h4.371V3.198h-4.371V95.095z"/>
<path fill="#96A0BF" d="M14.286,95.095h3.838V3.198h-3.838V95.095z"/>
<path fill="#9BAAC9" d="M14.286,95.095h3.305V3.198h-3.305V95.095z"/>
<path fill="#A6B7D6" d="M14.499,95.095h2.666V3.198h-2.666V95.095z"/>
<path fill="#AAC1E0" d="M14.499,95.095h2.026V3.198h-2.026V95.095z"/>
<path fill="#B3CCEB" d="M14.499,95.095h1.493V3.198h-1.493V95.095z"/>
<path fill="#B8D6F5" d="M14.818,95.095h0.64V3.198h-0.64V95.095z"/>
<path fill="#BFE0FF" d="M14.818,95.095h0.213V3.198h-0.213V95.095z"/>
<path fill="none" stroke="#000000" stroke-width="2" d="M14.072,95.095h5.437V3.198h-5.437V95.095"/>
<ellipse fill="#7F7F7F" stroke="#000000" stroke-width="2" cx="16.631" cy="94.988" rx="2.772" ry="0.32"/>
<ellipse fill="#70707F" stroke="#000000" stroke-width="2" cx="16.737" cy="3.199" rx="2.666" ry="0.213"/>
<path fill="#8282A1" d="M36.141,76.439l0.213-0.214l0.959-0.746l1.173-0.959l0.96-0.96l0.959-0.959l0.427-0.427v-8.103h-5.65v12.367
	H36.141z"/>
<path fill="#8A8CAB" d="M36.141,76.439l0.213-0.214l0.959-0.746l1.173-0.959l0.96-0.96l0.746-0.959v-8.529h-4.797v12.367H36.141z"/>
<path fill="#8F96B5" d="M36.141,76.439l0.213-0.214l0.959-0.746l1.173-0.959l0.96-0.96l0.213-0.426v-9.063h-4.264v12.367H36.141z"/>
<path fill="#96A0BF" d="M36.141,76.439l0.213-0.214l0.959-0.746l1.173-0.959l0.747-0.96v-9.488h-3.838v12.367H36.141z"/>
<path fill="#9BAAC9" d="M36.141,76.439l0.213-0.214l0.959-0.746l1.173-0.959l0.214-0.214V64.072h-3.092v12.367H36.141z"/>
<path fill="#A6B7D6" d="M36.141,76.439l0.213-0.214l0.959-0.746l0.96-0.959V64.072h-2.665v12.367H36.141z"/>
<path fill="#AAC1E0" d="M36.141,76.439l0.213-0.214l0.959-0.746l0.427-0.533V64.072h-2.132v12.367H36.141z"/>
<path fill="#B3CCEB" d="M36.141,76.439l0.213-0.214l0.959-0.746V64.072h-1.386v12.367H36.141z"/>
<path fill="#B8D6F5" d="M36.141,76.439l0.213-0.214l0.533-0.213v-11.94h-0.96v12.367H36.141z"/>
<path fill="#BFE0FF" d="M36.141,76.439h-0.214V64.072h0.214V76.439z"/>
<path fill="none" stroke="#000000" stroke-width="2" d="M36.141,76.439l0.213-0.214l0.959-0.746l1.173-0.959l0.96-0.96l0.959-0.959
	l0.427-0.427v-8.103h-5.65v12.367H36.141"/>
<ellipse stroke="#000000" stroke-width="2" cx="37.846" cy="64.072" rx="2.879" ry="0.213"/>
<path fill="#E5E5E5" stroke="#000000" stroke-width="2" d="M19.509,19.296l-0.213,0.214H18.87H17.91h-1.173h-0.959h-0.959h-0.746
	v-0.214v-1.919v0.214h0.746h0.959h0.959h1.173h0.959h0.426l0.213-0.214V19.296z"/>
<path fill="#E5E5E5" stroke="#000000" stroke-width="2" d="M19.509,71.428h-0.213H18.87l-0.959,0.213h-1.173h-0.959l-0.959-0.213
	h-0.746v-1.919h0.746h0.959h0.959h1.173h0.959h0.426h0.213V71.428z"/>
<path fill="#E5E5E5" stroke="#000000" stroke-width="2" d="M40.831,71.428h-0.214h-0.639l-0.96,0.213h-0.96h-1.172l-0.96-0.213
	h-0.532h-0.214v-1.919h0.214h0.532h0.96h1.172h0.96h0.96h0.639h0.214V71.428z"/>
<path fill="#8282A1" d="M32.089,72.601h9.488v-0.746h-9.488V72.601z"/>
<path fill="#8F96B5" d="M32.303,72.601h7.355v-0.746h-7.355V72.601z"/>
<path fill="#9BAAC9" d="M32.622,72.601h5.437v-0.746h-5.437V72.601z"/>
<path fill="#AAC1E0" d="M32.836,72.601h3.518v-0.746h-3.518V72.601z"/>
<path fill="#B8D6F5" d="M33.262,72.601h1.492v-0.746h-1.492V72.601z"/>
<path fill="none" stroke="#000000" stroke-width="2" d="M32.089,72.601h9.488v-0.746h-9.488V72.601"/>
<path fill="#A0C1E0" stroke="#000000" stroke-width="2" d="M43.176,72.601v0.319l-0.426,0.64l-0.64,0.214l-0.533-0.427l-0.746,0.427
	l-3.944,6.396l-0.533-0.427l4.264-6.396l0.427-0.746l0.533-0.746l0.746-0.214l3.519-3.305l1.172-0.427l0.746,0.214l0.428,0.533
	l0.532,1.386l-0.746,1.386l-0.427,0.213l-0.959,0.214h-0.32l-0.426-0.214L43.176,72.601z"/>
<path fill="#B2B2B2" stroke="#000000" stroke-width="2" d="M42.75,72.601l-0.213-0.214l-0.214-0.213l-0.532,0.213l-0.214,0.214
	l0.214,0.533h0.319h0.427L42.75,72.601z"/>
</svg>
