<?xml version="1.0" encoding="utf-8"?>
<!-- Generator: Adobe Illustrator 14.0.0, SVG Export Plug-In . SVG Version: 6.00 Build 43363)  -->
<!DOCTYPE svg PUBLIC "-//W3C//DTD SVG 1.1//EN" "http://www.w3.org/Graphics/SVG/1.1/DTD/svg11.dtd">
<svg version="1.1" id="图层_1" xmlns="http://www.w3.org/2000/svg" xmlns:xlink="http://www.w3.org/1999/xlink" x="0px" y="0px"
	 width="43.603px" height="106.502px" viewBox="0 0 43.603 106.502" enable-background="new 0 0 43.603 106.502"
	 xml:space="preserve">
<path fill="#E0E0E0" stroke="#000000" stroke-width="2" d="M2.878,16.418h34.008l3.731-3.731H6.716L2.878,16.418z"/>
<path fill="#B2B2B2" stroke="#000000" stroke-width="2" d="M36.673,16.418l3.732-3.731v86.779l-3.732,3.731V16.418z"/>
<path fill="#003399" stroke="#000000" stroke-width="2" d="M39.765,11.301l-0.746-1.28l-1.492-0.959H14.392l-0.426,0.319
	l0.426,1.279h22.495l0.853,0.427l0.427,0.854v89.125h1.599V11.301z"/>
<path fill="#B2B2B2" stroke="#000000" stroke-width="2" d="M9.488,101.279h23.027V60.021H9.488V101.279z"/>
<path fill="#E0E0E0" stroke="#000000" stroke-width="2" d="M18.763,61.194h2.666v14.072h-2.666V61.194z"/>
<path fill="#7F7FFF" stroke="#000000" stroke-width="2" d="M18.337,68.656h-0.64v2.878h0.64v1.066h3.518v-1.066h0.64v-2.878h-0.64
	v-1.173h-3.518V68.656z"/>
<path fill="#FF0000" d="M20.362,68.656l0.853,0.213l0.426,1.066h-1.279V68.656z M21.642,70.149l-0.426,1.173l-0.853,0.213v-1.386
	H21.642z M19.936,71.534l-0.959-0.213l-0.427-1.173h1.386V71.534z M18.55,69.936l0.427-1.066l0.959-0.213v1.279H18.55z
	 M20.149,68.23l1.28,0.427l0.64,1.492l-0.64,1.386l-1.28,0.64l-1.386-0.64l-0.64-1.386l0.64-1.492L20.149,68.23z"/>
<path fill="none" stroke="#000000" stroke-width="2" d="M20.362,68.656l0.853,0.213l0.426,1.066h-1.279V68.656"/>
<path fill="none" stroke="#000000" stroke-width="2" d="M21.642,70.149l-0.426,1.173l-0.853,0.213v-1.386H21.642"/>
<path fill="none" stroke="#000000" stroke-width="2" d="M19.936,71.534l-0.959-0.213l-0.427-1.173h1.386V71.534"/>
<path fill="none" stroke="#000000" stroke-width="2" d="M18.55,69.936l0.427-1.066l0.959-0.213v1.279H18.55"/>
<path fill="none" stroke="#000000" stroke-width="2" d="M20.149,68.23l1.28,0.427l0.64,1.492l-0.64,1.386l-1.28,0.64l-1.386-0.64
	l-0.64-1.386l0.64-1.492L20.149,68.23"/>
<path fill="#E5E5E5" stroke="#000000" stroke-width="2" d="M8.209,61.513l2.239-2.132v41.897l-2.239,2.239V61.513z"/>
<path fill="#F0F0F0" stroke="#000000" stroke-width="2" d="M30.704,103.198V62.26H8.209v40.938H2.878V16.418h34.008v86.779H30.704z"
	/>
<path fill="#CCCCCC" stroke="#000000" stroke-width="2" d="M5.97,20.363h28.891v29.104l-1.066,0.64L5.117,21.428L5.97,20.363z"/>
<path fill="#E0E0E0" stroke="#000000" stroke-width="2" d="M4.904,21.428h29.104V50.32H4.904V21.428z"/>
<path fill="#003399" stroke="#000000" stroke-width="2" d="M11.087,11.514V2.878h6.396v8.636H11.087z"/>
<path fill="#003399" stroke="#000000" stroke-width="2" d="M9.488,11.514v3.092h8.209v-3.092H9.488z"/>
<path fill="none" stroke="#000000" stroke-width="2" d="M11.727,4.051v3.092"/>
<path fill="none" stroke="#000000" stroke-width="2" d="M12.687,4.264v2.239"/>
<path fill="none" stroke="#000000" stroke-width="2" d="M14.179,4.478V7.57"/>
<path fill="none" stroke="#000000" stroke-width="2" d="M15.032,4.264v2.239"/>
<path stroke="#000000" stroke-width="2" d="M8.849,23.667l1.173,0.427l0.426,1.065l-0.426,1.173l-1.173,0.427l-1.066-0.427
	l-0.427-1.173l0.427-1.065L8.849,23.667z"/>
<path stroke="#000000" stroke-width="2" d="M15.458,23.667l1.066,0.427l0.533,1.065l-0.533,1.173l-1.066,0.427l-0.853-0.427
	l-0.426-1.173l0.426-1.065L15.458,23.667z"/>
<path stroke="#000000" stroke-width="2" d="M22.495,23.667l1.172,0.427l0.427,1.065l-0.427,1.173l-1.172,0.427l-1.066-0.427
	l-0.427-1.173l0.427-1.065L22.495,23.667z"/>
<path stroke="#000000" stroke-width="2" d="M29.638,23.667l-1.173,0.427l-0.427,1.065l0.427,1.173l1.173,0.427l0.853-0.427
	l0.427-1.173l-0.427-1.065L29.638,23.667z"/>
<path stroke="#000000" stroke-width="2" d="M17.058,39.019l-1.173,0.533l-0.426,1.066l0.426,1.065l1.173,0.533l0.853-0.533
	l0.427-1.065l-0.427-1.066L17.058,39.019z"/>
<path stroke="#000000" stroke-width="2" d="M22.068,39.019l-1.066,0.533l-0.426,1.066l0.426,1.065l1.066,0.533l0.96-0.533
	l0.426-1.065l-0.426-1.066L22.068,39.019z"/>
<path fill="#FF0000" d="M17.058,39.552l-0.853,0.213l-0.533,0.854l0.533,0.853l0.853,0.213l0.64-0.213l0.426-0.853l-0.426-0.854
	L17.058,39.552z"/>
<path fill="#00FF00" d="M22.068,39.552l-0.853,0.213l-0.426,0.854l0.426,0.853l0.853,0.213l0.64-0.213l0.533-0.853l-0.533-0.854
	L22.068,39.552z"/>
<path fill="#E0E0E0" d="M9.275,24.094l0.427,0.213l-1.279,2.025l-0.213-0.319L9.275,24.094z"/>
<path fill="#E0E0E0" d="M15.885,24.094l0.533,0.213l-1.386,2.025l-0.213-0.319L15.885,24.094z"/>
<path fill="#E0E0E0" d="M23.028,24.094l0.426,0.213l-1.386,2.025l-0.213-0.319L23.028,24.094z"/>
<path fill="#E0E0E0" d="M29.211,24.094l-0.533,0.213l1.386,2.025l0.213-0.319L29.211,24.094z"/>
<path d="M15.885,30.064h6.823l-0.853,3.944h-4.584L15.885,30.064z"/>
<path fill="#FFFFFF" stroke="#000000" stroke-width="2" d="M16.524,30.49h5.757l-0.426,2.238h-4.584L16.524,30.49z"/>
<path fill="none" stroke="#000000" stroke-width="2" d="M19.936,31.13l-0.427,1.599"/>
<path fill="none" stroke="#000000" stroke-width="2" d="M16.844,30.49v0.426"/>
<path fill="none" stroke="#000000" stroke-width="2" d="M17.484,30.49v0.426"/>
<path fill="none" stroke="#000000" stroke-width="2" d="M18.124,30.49v0.426"/>
<path fill="none" stroke="#000000" stroke-width="2" d="M18.763,30.49v0.426"/>
<path fill="none" stroke="#000000" stroke-width="2" d="M19.509,30.49v0.426"/>
<path fill="none" stroke="#000000" stroke-width="2" d="M20.149,30.49v0.426"/>
<path fill="none" stroke="#000000" stroke-width="2" d="M20.789,30.49v0.426"/>
<path fill="none" stroke="#000000" stroke-width="2" d="M21.429,30.49v0.426"/>
<path fill="none" stroke="#000000" stroke-width="2" d="M22.068,30.49v0.426"/>
<path fill="#FFFFFF" stroke="#000000" stroke-width="2" d="M7.356,11.087l1.493,0.64l0.64,1.6l-0.64,1.492l-1.493,0.64l-1.599-0.64
	l-0.64-1.492l0.64-1.6L7.356,11.087z"/>
<path d="M7.356,13.539l-0.213-0.213l1.492-1.386L7.356,13.539z"/>
<path fill="#FFFFFF" stroke="#000000" stroke-width="2" d="M35.501,11.087l1.6,0.64l0.639,1.6l-0.639,1.492l-1.6,0.64l-1.492-0.64
	l-0.641-1.492l0.641-1.6L35.501,11.087z"/>
<path d="M35.501,13.539l-0.213-0.213l1.599-1.386L35.501,13.539z"/>
<path fill="#F0F0F0" stroke="#000000" stroke-width="2" d="M29.211,102.131l-2.025,0.427h-6.823h-6.61l-2.239-0.427l-0.426-25.799
	h18.763L29.211,102.131z"/>
<path fill="#FFFFFF" d="M12.687,77.505h1.279v24.84l-1.279-0.214V77.505z"/>
<path fill="#FFFFFF" stroke="#000000" stroke-width="2" d="M30.276,76.545v0.213h-0.852l-2.026,0.214l-3.091,0.213h-3.945h-3.838
	l-2.985-0.213l-2.239-0.214h-0.853v-0.426L30.276,76.545z"/>
<ellipse fill="#F0F0F0" stroke="#000000" stroke-width="2" cx="20.469" cy="80.277" rx="9.595" ry="0.427"/>
<ellipse fill="#F0F0F0" stroke="#000000" stroke-width="2" cx="20.469" cy="81.449" rx="9.595" ry="0.426"/>
<ellipse fill="#7F7F7F" stroke="#000000" stroke-width="2" cx="20.362" cy="76.439" rx="9.914" ry="0.533"/>
</svg>
