<?xml version="1.0" encoding="utf-8"?>
<!-- Generator: Adobe Illustrator 14.0.0, SVG Export Plug-In . SVG Version: 6.00 Build 43363)  -->
<!DOCTYPE svg PUBLIC "-//W3C//DTD SVG 1.1//EN" "http://www.w3.org/Graphics/SVG/1.1/DTD/svg11.dtd">
<svg version="1.1" id="图层_1" xmlns="http://www.w3.org/2000/svg" xmlns:xlink="http://www.w3.org/1999/xlink" x="0px" y="0px"
	 width="97.438px" height="106.502px" viewBox="0 0 97.438 106.502" enable-background="new 0 0 97.438 106.502"
	 xml:space="preserve">
<path fill="#E0E0E0" stroke="#000000" stroke-width="2" d="M34.327,78.783l2.984-2.985V20.257l-2.984,2.984V78.783z"/>
<path fill="#7F7F7F" stroke="#000000" stroke-width="2" d="M83.153,78.57V24.627H34.327V78.57H23.24V15.886H94.24V78.57H83.153z"/>
<path fill="#7F7F7F" stroke="#000000" stroke-width="2" d="M2.878,99.038l20.148-20.255V16.099L2.878,36.141V99.038z"/>
<path fill="#E0E0E0" stroke="#000000" stroke-width="2" d="M13.965,99.038l2.985-2.985V40.512l-2.985,2.984V99.038z"/>
<path fill="#F0F0F0" stroke="#000000" stroke-width="2" d="M62.898,99.038V44.883H13.965v54.155H2.878V36.141h71.106v62.897H62.898z
	"/>
<path fill="#E0E0E0" stroke="#000000" stroke-width="2" d="M94.452,78.57L73.985,99.038V36.141l20.468-20.255V78.57z"/>
<path fill="#F0F0F0" stroke="#000000" stroke-width="2" d="M23.24,15.886h71.212L73.985,36.141H2.878L23.24,15.886z"/>
<path fill="#F0F0F0" stroke="#000000" stroke-width="2" d="M26.438,15.14h29.957v18.016H26.438V15.14z"/>
<path fill="#F0F0F0" stroke="#000000" stroke-width="2" d="M26.438,15.14h29.957L68.441,2.88H38.485L26.438,15.14z"/>
<path fill="#E0E0E0" stroke="#000000" stroke-width="2" d="M68.441,2.88L56.395,15.14v18.016L68.441,21.11V2.88z"/>
<path fill="#F0F0F0" stroke="#000000" stroke-width="2" d="M64.07,23.029v-6.503h-3.944v6.503H64.07z"/>
<path fill="#F0F0F0" stroke="#000000" stroke-width="2" d="M64.07,23.029v-6.503l2.666-2.771v6.716L64.07,23.029z"/>
<path fill="#E0E0E0" stroke="#000000" stroke-width="2" d="M66.736,13.754l-2.666,2.771h-3.944l2.559-2.771H66.736z"/>
<path fill="#F0F0F0" stroke="#000000" stroke-width="2" d="M3.411,50.639h3.411v52.877H3.411V50.639z"/>
<path fill="#F0F0F0" stroke="#000000" stroke-width="2" d="M3.411,50.639h3.411l6.717-4.584H9.808L3.411,50.639z"/>
<path fill="#E0E0E0" stroke="#000000" stroke-width="2" d="M13.539,46.055l-6.717,4.584v52.877l6.717-4.904V46.055z"/>
<path fill="#F0F0F0" stroke="#000000" stroke-width="2" d="M61.725,50.213h3.624v52.557h-3.624V50.213z"/>
<path fill="#F0F0F0" stroke="#000000" stroke-width="2" d="M61.725,50.213h3.624l1.387-4.798h-3.625L61.725,50.213z"/>
<path fill="#E0E0E0" stroke="#000000" stroke-width="2" d="M66.736,45.415l-1.387,4.798v52.557l1.387-4.798V45.415z"/>
<path fill="#F0F0F0" stroke="#000000" stroke-width="2" d="M29.956,27.613v-0.96H47.44v0.96H29.956z"/>
<path fill="#F0F0F0" stroke="#000000" stroke-width="2" d="M29.956,24.414v-0.959h8.741v0.959H29.956z"/>
<path fill="#F0F0F0" stroke="#000000" stroke-width="2" d="M29.956,21.323V20.47h8.741v0.853H29.956z"/>
<path fill="#F0F0F0" stroke="#000000" stroke-width="2" d="M29.956,17.911v-0.64h18.123v0.64H29.956z"/>
<path fill="#F0F0F0" stroke="#000000" stroke-width="2" d="M28.571,19.937h0.853v-1.279h-0.853V19.937z"/>
<path fill="#F0F0F0" stroke="#000000" stroke-width="2" d="M28.571,24.841h0.853v1.386h-0.853V24.841z"/>
<path fill="#F0F0F0" stroke="#000000" stroke-width="2" d="M47.227,17.911h0.853v10.128h-0.853V17.911z"/>
<path stroke="#000000" stroke-width="2" d="M28.571,18.657h0.64l0.213-0.319v-0.214l0.213-0.213h0.32v-0.64h-0.32h-0.213
	l-0.213,0.213h-0.214l-0.319,0.214l-0.106,0.426v0.214V18.657z"/>
<path stroke="#000000" stroke-width="2" d="M28.571,19.724h0.64l0.213,0.213v0.32l0.213,0.213h0.32v0.853h-0.32l-0.213-0.213H29.21
	l-0.214-0.213l-0.319-0.214l-0.106-0.213v-0.533V19.724z"/>
<path stroke="#000000" stroke-width="2" d="M28.571,24.841h0.64l0.213-0.214v-0.213h0.213l0.32-0.319v-0.64h-0.32h-0.213
	l-0.213,0.213l-0.214,0.213l-0.319,0.214l-0.106,0.319v0.213V24.841z"/>
<path stroke="#000000" stroke-width="2" d="M28.571,25.906h0.64l0.213,0.32v0.213l0.213,0.213h0.32v0.96h-0.32l-0.213-0.32H29.21
	l-0.214-0.106l-0.319-0.319l-0.106-0.214v-0.426V25.906z"/>
<path stroke="#000000" stroke-width="2" d="M40.297,21.856h-0.96v-0.213l-0.213-0.32h-0.213l-0.214-0.213v-0.64h0.214h0.426
	l0.214,0.213l0.319,0.214v0.213l0.106,0.213v0.32L40.297,21.856z"/>
<path stroke="#000000" stroke-width="2" d="M39.337,23.029v-1.173h0.64v1.173H39.337z"/>
<path stroke="#000000" stroke-width="2" d="M40.297,22.708h-0.96v0.533l-0.213,0.214h-0.213h-0.214v0.959h0.214l0.426-0.319h0.214
	l0.319-0.214v-0.213l0.106-0.213v-0.214L40.297,22.708z"/>
<path fill="#7F7F7F" stroke="#000000" stroke-width="2" d="M38.698,20.47h0.214v0.853h-0.214V20.47z"/>
<path fill="#7F7F7F" stroke="#000000" stroke-width="2" d="M40.297,21.643v0.426h-1.173v-0.426H40.297z"/>
<path fill="#7F7F7F" stroke="#000000" stroke-width="2" d="M40.297,23.241v-0.533h-1.173v0.533H40.297z"/>
<path fill="#7F7F7F" stroke="#000000" stroke-width="2" d="M38.698,24.414h0.214v-0.959h-0.214V24.414z"/>
<path fill="#7F7F7F" stroke="#000000" stroke-width="2" d="M30.063,16.952h-0.427v1.172h0.427V16.952z"/>
<path fill="#7F7F7F" stroke="#000000" stroke-width="2" d="M28.571,18.338v0.319h0.853v-0.319H28.571z"/>
<path fill="#7F7F7F" stroke="#000000" stroke-width="2" d="M28.571,19.937v-0.213h0.853v0.213H28.571z"/>
<path fill="#7F7F7F" stroke="#000000" stroke-width="2" d="M30.063,21.323h-0.427v-1.065h0.427V21.323z"/>
<path fill="#7F7F7F" stroke="#000000" stroke-width="2" d="M30.063,23.455h-0.427v0.959h0.427V23.455z"/>
<path fill="#7F7F7F" stroke="#000000" stroke-width="2" d="M28.571,24.627v0.427h0.853v-0.427H28.571z"/>
<path fill="#7F7F7F" stroke="#000000" stroke-width="2" d="M28.571,26.227v-0.32h0.853v0.32H28.571z"/>
<path fill="#7F7F7F" stroke="#000000" stroke-width="2" d="M30.063,27.613h-0.427V26.44h0.427V27.613z"/>
<path fill="#FFFFFF" stroke="#000000" stroke-width="2" d="M39.124,27.186l0.427-1.386l1.386-0.533l1.705,0.533l0.427,1.386
	l-0.427,1.493l-1.705,0.532l-1.386-0.532L39.124,27.186z"/>
<path fill="#FFFFFF" stroke="#000000" stroke-width="2" d="M45.521,18.338l0.533-1.066l1.173-0.533l1.065,0.533l0.533,1.066
	l-0.533,1.172l-1.065,0.427l-1.173-0.427L45.521,18.338z"/>
<path d="M41.256,27.292h-0.319l-0.64-0.853L41.256,27.292z"/>
<path fill="#7F7F7F" stroke="#000000" stroke-width="2" d="M50.211,17.911h5.544v5.757l-0.427,0.427l-5.65-5.757L50.211,17.911z"/>
<path fill="#F0F0F0" stroke="#000000" stroke-width="2" d="M49.678,18.338h5.65v5.757h-5.65V18.338z"/>
<path fill="#FF0000" stroke="#000000" stroke-width="2" d="M51.064,19.297h0.533v0.427v0.533l-0.533,0.213l-0.426-0.213
	l-0.214-0.533l0.214-0.427H51.064z"/>
<path d="M53.622,19.297h0.427l0.32,0.427l-0.32,0.533l-0.427,0.213l-0.426-0.213l-0.214-0.533l0.214-0.427H53.622z"/>
<path fill="#00007F" stroke="#000000" stroke-width="2" d="M46.906,27.613V26.44h1.386v1.173H46.906z"/>
<path d="M55.435,20.47h0.746h0.533l5.437-2.985v0.427l-5.437,2.985h-0.746h-0.533V20.47z"/>
<path fill="#CCCCCC" stroke="#000000" stroke-width="2" d="M94.452,21.11l-8.315,35.606l8.315,18.123v3.518l-1.813,2.025
	L84.965,61.94l-7.782,33.688l-2.985,2.984v-5.543l7.995-34.86l-7.995-19.296v-2.984l2.025-1.919l7.676,17.59l7.569-33.261
	l2.984-2.985V21.11z"/>
</svg>
