<?xml version="1.0" encoding="utf-8"?>
<!-- Generator: Adobe Illustrator 14.0.0, SVG Export Plug-In . SVG Version: 6.00 Build 43363)  -->
<!DOCTYPE svg PUBLIC "-//W3C//DTD SVG 1.1//EN" "http://www.w3.org/Graphics/SVG/1.1/DTD/svg11.dtd">
<svg version="1.1" id="图层_1" xmlns="http://www.w3.org/2000/svg" xmlns:xlink="http://www.w3.org/1999/xlink" x="0px" y="0px"
	 width="144.749px" height="105.775px" viewBox="0 0 144.749 105.775" enable-background="new 0 0 144.749 105.775"
	 xml:space="preserve">
<path fill="#B2B2B2" stroke="#000000" stroke-width="2" d="M8.983,100.848l-0.869,0.869V90.126l0.869-0.87V100.848z"/>
<path fill="#B2B2B2" stroke="#000000" stroke-width="2" d="M111.858,100.848l-1.015,0.869V90.126l1.015-0.87V100.848z"/>
<path fill="#7F7F7F" stroke="#000000" stroke-width="2" d="M129.679,84.475l-1.014,1.015V73.897l1.014-1.015V84.475z"/>
<path fill="#CCCCCC" stroke="#000000" stroke-width="2" d="M4.057,34.921h110.264v55.205H4.057V34.921z"/>
<path fill="#F0F0F0" stroke="#000000" stroke-width="2" d="M4.927,101.717h3.188V90.126H4.927V101.717z"/>
<path fill="#F0F0F0" stroke="#000000" stroke-width="2" d="M107.656,101.717h3.188V90.126h-3.188V101.717z"/>
<path fill="#E5E5E5" stroke="#000000" stroke-width="2" d="M125.188,85.489h3.478V73.897h-3.478V85.489z"/>
<path fill="#F0F0F0" stroke="#000000" stroke-width="2" d="M4.057,34.921h110.264l15.938-15.504H20.865L4.057,34.921z"/>
<path fill="#999999" stroke="#000000" stroke-width="2" d="M129.969,19.417l-15.648,15.504v55.205l15.648-16.953V19.417z"/>
<path fill="#336666" stroke="#000000" stroke-width="2" d="M55.059,50.135h50.423v44.772H55.059V50.135z"/>
<path fill="#336666" stroke="#000000" stroke-width="2" d="M55.059,50.135h50.423l4.782-5.071H60.131L55.059,50.135z"/>
<path fill="#336666" stroke="#000000" stroke-width="2" d="M110.264,45.063l-4.782,5.071v44.772l4.782-4.781V45.063z"/>
<path stroke="#000000" stroke-width="2" d="M59.117,60.422l0.725-1.304l1.159-0.58l1.014,0.58l0.58,1.304l-0.58,1.304l-1.014,0.291
	l-1.159-0.291L59.117,60.422z"/>
<path stroke="#000000" stroke-width="2" d="M59.117,55.062l0.725-0.869l1.159-0.725l1.014,0.725l0.58,0.869l-0.58,1.304
	l-1.014,0.579l-1.159-0.579L59.117,55.062z"/>
<path stroke="#000000" stroke-width="2" d="M65.347,60.422l0.724-1.304l1.305-0.58l0.869,0.58l0.58,1.304l-0.58,1.304l-0.869,0.291
	l-1.305-0.291L65.347,60.422z"/>
<path stroke="#000000" stroke-width="2" d="M65.347,55.062l0.724-0.869l1.305-0.725l0.869,0.725l0.58,0.869l-0.58,1.304
	l-0.869,0.579l-1.305-0.579L65.347,55.062z"/>
<path stroke="#000000" stroke-width="2" d="M72.012,60.422l0.289-1.304l1.305-0.58l1.159,0.58l0.725,1.304l-0.725,1.304
	l-1.159,0.291l-1.305-0.291L72.012,60.422z"/>
<path stroke="#000000" stroke-width="2" d="M72.012,55.062l0.289-0.869l1.305-0.725l1.159,0.725l0.725,0.869l-0.725,1.304
	l-1.159,0.579l-1.305-0.579L72.012,55.062z"/>
<path fill="#00FF00" stroke="#000000" stroke-width="2" d="M59.842,60.422l0.289-1.015l0.87-0.289l0.724,0.289l0.58,1.015
	l-0.58,0.87l-0.724,0.434l-0.87-0.434L59.842,60.422z"/>
<path fill="#00FF00" stroke="#000000" stroke-width="2" d="M65.782,60.422l0.579-1.015l1.015-0.289l0.579,0.289l0.29,1.015
	l-0.29,0.87l-0.579,0.434l-1.015-0.434L65.782,60.422z"/>
<path fill="#00FF00" stroke="#000000" stroke-width="2" d="M72.302,60.422l0.29-1.015l1.015-0.289l0.869,0.289l0.29,1.015
	l-0.29,0.87l-0.869,0.434l-1.015-0.434L72.302,60.422z"/>
<path fill="#FF0000" stroke="#000000" stroke-width="2" d="M59.842,55.062l0.289-0.58l0.87-0.725l0.724,0.725l0.58,0.58l-0.58,1.014
	l-0.724,0.29l-0.87-0.29L59.842,55.062z"/>
<path fill="#FF0000" stroke="#000000" stroke-width="2" d="M65.782,55.062l0.579-0.58l1.015-0.725l0.579,0.725l0.29,0.58
	l-0.29,1.014l-0.579,0.29l-1.015-0.29L65.782,55.062z"/>
<path fill="#FF0000" stroke="#000000" stroke-width="2" d="M72.302,55.062l0.29-0.58l1.015-0.725l0.869,0.725l0.29,0.58l-0.29,1.014
	l-0.869,0.29l-1.015-0.29L72.302,55.062z"/>
<path fill="#E0E0E0" stroke="#000000" stroke-width="2" d="M59.117,70.42h4.057v5.94h-4.057V70.42z"/>
<path stroke="#000000" stroke-width="2" d="M59.117,72.883h4.057v1.015h-4.057V72.883z"/>
<path fill="#F0F0F0" stroke="#000000" stroke-width="2" d="M131.563,79.548l0.29-2.318l5.94-1.738l2.174-3.188l0.579-2.754
	l-0.579-3.188l-1.594-2.463l-2.464-1.594l-3.188-0.58l-3.043,0.58l-2.897,1.884L131.563,79.548z"/>
<path fill="#F0F0F0" stroke="#000000" stroke-width="2" d="M124.319,79.548h7.244v-1.883l0.58,0.289l3.188-0.869l2.463-1.594
	l1.594-2.608l0.58-3.042l-0.58-2.898l-1.594-2.463l-2.463-1.884l-3.188-0.579l-3.043,0.579l-2.608,1.884l-1.594,2.463l-0.579,2.898
	V79.548z"/>
<circle fill="#CCCCCC" stroke="#000000" stroke-width="2" cx="132.288" cy="69.84" r="5.216"/>
<path fill="#666666" stroke="#000000" stroke-width="2" d="M9.998,33.182h46.366l12.461-12.606H23.472L9.998,33.182z"/>
<path fill="#666666" stroke="#000000" stroke-width="2" d="M96.789,33.182H64.477l12.606-12.606h32.166L96.789,33.182z"/>
<path fill="none" stroke="#000000" stroke-width="2" d="M17.532,27.821v-2.608l3.622-3.333v2.463"/>
<path fill="none" stroke="#000000" stroke-width="2" d="M60.131,27.821v-2.608l3.333-3.333v2.463"/>
<path fill="none" stroke="#000000" stroke-width="2" d="M70.998,27.821v-2.608l3.768-3.333v2.463"/>
<path fill="none" stroke="#000000" stroke-width="2" d="M100.556,27.821v-2.608l3.767-3.333v2.463"/>
<path fill="#F0F0F0" d="M122.725,76.65h8.838v4.781h-8.838V76.65z"/>
<path fill="#FFFFFF" d="M122.725,77.085h8.838v0.58h-8.838V77.085z"/>
<path fill="#B2B2B2" d="M122.725,81.142h8.838v0.29h-8.838V81.142z"/>
<path fill="none" stroke="#000000" stroke-width="2" d="M122.725,76.65h8.838v4.781h-8.838V76.65"/>
<path fill="#F0F0F0" stroke="#000000" stroke-width="2" d="M107.077,4.348h14.055v23.183h-14.055V4.348z"/>
<path fill="#FFFFFF" d="M107.656,4.638h1.015v22.603h-1.015V4.638z"/>
<path fill="#7F7F7F" d="M119.972,4.638h0.869v22.893h-0.869V4.638z"/>
<path fill="#F0F0F0" stroke="#000000" stroke-width="2" d="M123.739,12.752h-10.722v5.941h10.722V12.752z"/>
<path fill="#FFFFFF" d="M123.739,13.042h-10.722v0.724h10.722V13.042z"/>
<path fill="#7F7F7F" d="M123.739,18.403h-10.722v0.29h10.722V18.403z"/>
<path fill="none" stroke="#000000" stroke-width="2" d="M123.739,12.752h-10.722v5.941h10.722V12.752"/>
<path fill="#F0F0F0" stroke="#000000" stroke-width="2" d="M108.091,8.115h6.23v16.229h-6.23V8.115z"/>
<path fill="#B2B2B2" d="M108.091,21.88h6.23v2.463h-6.23V21.88z"/>
<path fill="#FFFFFF" d="M108.091,8.985h6.23v2.463h-6.23V8.985z"/>
<path fill="#F0F0F0" stroke="#000000" stroke-width="2" d="M118.668,74.187h4.058v9.129h-4.058V74.187z"/>
<path fill="#F0F0F0" stroke="#000000" stroke-width="2" d="M118.668,74.187h4.058l1.014-1.304h-3.767L118.668,74.187z"/>
<path fill="#CCCCCC" stroke="#000000" stroke-width="2" d="M123.739,72.883l-1.014,1.304v9.129l1.014-1.305V72.883z"/>
<path d="M119.537,80.707l-0.145,0.435l1.159,1.16l1.304-1.16l-1.014-1.304l-0.869-3.188l0.579,0.579l1.304-1.158l-1.014-1.305
	l-4.347-19.416h-7.824v-0.289h-0.58v1.883h0.58v-0.289h6.81l4.057,19.125l-4.347-15.648h-7.1v1.885h0.58v-0.291h5.65L119.537,80.707
	z"/>
<path fill="#7F7F7F" stroke="#000000" stroke-width="2" d="M114.031,4.059l5.506,0.29l2.608,0.29l-2.608,0.29h-5.506h-5.65
	l-2.174-0.29l2.174-0.29L114.031,4.059z"/>
<path fill="#F0F0F0" stroke="#000000" stroke-width="2" d="M121.132,27.821l-1.739,0.29h-5.361h-5.071l-2.173-0.29v-1.014
	l2.173,0.435h5.071h5.361l1.739-0.435V27.821z"/>
<path fill="none" stroke="#000000" stroke-width="2" d="M108.091,8.115h6.23v16.229h-6.23V8.115"/>
<path fill="#FFFFFF" stroke="#000000" stroke-width="2" d="M105.772,89.546l3.912-3.768v-6.52l-3.912,4.057V89.546z"/>
<path fill="none" stroke="#FFFFFF" stroke-width="2" d="M15.504,56.075V43.18h28.254"/>
<path fill="none" stroke="#999999" stroke-width="2" d="M15.504,56.075h28.254V43.18"/>
</svg>
