<?xml version="1.0" encoding="utf-8"?>
<!-- Generator: Adobe Illustrator 14.0.0, SVG Export Plug-In . SVG Version: 6.00 Build 43363)  -->
<!DOCTYPE svg PUBLIC "-//W3C//DTD SVG 1.1//EN" "http://www.w3.org/Graphics/SVG/1.1/DTD/svg11.dtd">
<svg version="1.1" id="图层_1" xmlns="http://www.w3.org/2000/svg" xmlns:xlink="http://www.w3.org/1999/xlink" x="0px" y="0px"
	 width="131.516px" height="106.502px" viewBox="0 0 131.516 106.502" enable-background="new 0 0 131.516 106.502"
	 xml:space="preserve">
<path fill="#0000BF" stroke="#000000" stroke-width="2" d="M100.71,3.686l1.448,0.527l0.658,1.843v26.461l-1.316,0.395l-1.186-0.395
	V7.636l-0.526-0.922L98.867,6.32H40.416V3.686H100.71z"/>
<path fill="#CCCCCC" d="M65.034,8.821l52,39.889l8.162,40.679L13.033,93.865l0.658-41.206L65.034,8.821z"/>
<path fill="#7F7F7F" stroke="#000000" stroke-width="2" d="M3.686,102.817H115.85v-4.345H3.686V102.817z"/>
<path fill="#7F7F7F" stroke="#000000" stroke-width="2" d="M127.697,91.232l-11.848,11.585v-4.345l11.848-11.453V91.232z"/>
<path fill="#E5E5E5" stroke="#000000" stroke-width="2" d="M14.876,87.281h112.558l-11.584,11.19H3.686L14.876,87.281z"/>
<path stroke="#000000" stroke-width="2" d="M71.484,74.776H71.09l-1.844,0.395l-2.633,0.264l-3.686,0.263l-4.608,0.396l-5.134,0.263
	h-5.398h-6.187h-6.056h-5.792l-5.134-0.263l-4.213-0.396l-3.686-0.263l-3.028-0.264l-1.448-0.395l-0.658-0.264V11.19h59.899V74.776z
	"/>
<path fill="#4C4C4C" d="M31.332,76.355H25.54l-5.134-0.263h-1.58V11.19h12.506V76.355z"/>
<path fill="#7F7F7F" d="M26.724,76.355H25.54h-2.106V11.19h3.291V76.355z"/>
<path stroke="#7F7F7F" stroke-width="2" d="M11.585,11.585l5.134,0.921l3.686,0.264l4.476,0.264h5.266l5.397,0.395h12.243
	l5.398-0.395h5.134l4.345-0.264l3.686-0.264l4.477-0.658l0.658-0.263l-0.658-1.58L66.35,7.372l-3.686-1.316l-4.345-0.922
	l-5.134-0.921l-5.398-0.264l-6.187-0.264l-6.056,0.264l-5.397,0.264l-5.266,0.921l-4.476,0.922l-3.686,1.316l-4.476,2.633
	L11.585,11.585z"/>
<path stroke="#7F7F7F" stroke-width="2" d="M71.748,74.512l-5.135,0.922l-3.686,0.263l-4.608,0.396l-5.134,0.263H29.752
	l-5.134-0.263l-4.213-0.396l-3.949-0.263h-2.765l-2.106-0.922l0.658,1.58l4.213,2.896l3.949,0.921l4.213,1.316l5.134,0.527
	l5.792,0.658h12.243l5.398-0.658l5.134-0.527l4.608-1.316l3.686-0.921l4.477-2.896L71.748,74.512z"/>
<path fill="#7F7F7F" stroke="#000000" stroke-width="2" d="M81.489,49.763h1.448v44.102h-1.448V49.763z"/>
<path fill="#7F7F7F" stroke="#000000" stroke-width="2" d="M114.928,49.763h1.58v44.102h-1.58V49.763z"/>
<path fill="none" stroke="#000000" stroke-width="2" d="M87.545,50.157v28.041l1.316,3.027l2.633,3.028l5.529,3.027h17.641"/>
<path fill="none" stroke="#000000" stroke-width="2" d="M89.125,50.157V77.54l1.185,3.291l2.765,3.027l5.135,2.765h16.455"/>
<path fill="none" stroke="#000000" stroke-width="2" d="M90.573,50.157v26.987l1.316,3.423l2.37,2.765l4.87,3.028h15.534"/>
<path fill="none" stroke="#000000" stroke-width="2" d="M92.416,50.157v26.856l0.922,2.896l2.369,3.028l4.345,2.765h14.612"/>
<path fill="none" stroke="#000000" stroke-width="2" d="M93.864,50.157v26.461l0.921,3.028l2.238,3.027l4.213,2.765h13.428"/>
<path fill="none" stroke="#000000" stroke-width="2" d="M95.443,50.157v26.197l1.054,3.028l1.975,2.633l3.687,2.765h12.506"/>
<path fill="none" stroke="#000000" stroke-width="2" d="M97.287,50.157v25.539l0.658,3.028l1.843,3.028l3.555,2.501h11.321"/>
<path fill="none" stroke="#000000" stroke-width="2" d="M98.867,50.157v25.276l0.526,3.027l1.843,2.765l3.027,2.633h10.4"/>
<path fill="none" stroke="#000000" stroke-width="2" d="M100.314,50.157V75.17l0.658,3.028l1.449,2.633l3.027,2.501h9.215"/>
<path fill="none" stroke="#000000" stroke-width="2" d="M101.895,50.157v24.618l0.527,2.765l1.579,2.765l2.501,2.633h8.162"/>
<path fill="none" stroke="#000000" stroke-width="2" d="M103.738,50.157v24.354l0.263,2.633l1.185,2.765l2.106,2.502h7.372"/>
<path fill="none" stroke="#000000" stroke-width="2" d="M105.186,50.157v23.696l0.264,3.16l1.316,2.369l1.711,2.633h6.188"/>
<path fill="none" stroke="#000000" stroke-width="2" d="M106.766,50.157v23.434l0.264,3.027l0.921,2.37l1.448,2.501h5.266"/>
<path fill="none" stroke="#000000" stroke-width="2" d="M108.346,50.157v23.17l0.131,2.765l0.658,2.633l1.186,2.501h4.344"/>
<path fill="#CCCCCC" stroke="#000000" stroke-width="2" d="M81.489,11.19h37.651v37.52l-1.448,1.054L80.305,12.77L81.489,11.19z"/>
<path fill="#E0E0E0" stroke="#000000" stroke-width="2" d="M80.305,12.506h37.388v37.257H80.305V12.506z"/>
<path fill="#191919" stroke="#000000" stroke-width="2" d="M68.457,52.658h3.554v41.601h-3.554V52.658z"/>
<path fill="#191919" stroke="#000000" stroke-width="2" d="M11.19,52.658h3.686v41.601H11.19V52.658z"/>
<path fill="#0000BF" stroke="#000000" stroke-width="2" d="M96.629,59.241l1.58,0.658l0.921,1.711v26.593l-1.579,0.264l-1.054-0.264
	V63.323l-0.396-0.922l-0.921-0.395H7.372v-2.765H96.629z"/>
<path fill="#0000BF" stroke="#000000" stroke-width="2" d="M27.646,58.714H12.77v4.213h14.876V58.714z"/>
<path fill="#0000BF" stroke="#000000" stroke-width="2" d="M25.54,57.398H14.876v7.109H25.54V57.398z"/>
<path fill="#B2B2B2" stroke="#000000" stroke-width="2" d="M21.195,57.398H19.22v-1.185h1.975V57.398z"/>
<ellipse fill="#F0F0F0" stroke="#000000" stroke-width="2" cx="15.534" cy="55.818" rx="6.978" ry="1.053"/>
<path fill="#FF0000" stroke="#000000" stroke-width="2" d="M18.826,54.765H9.742v2.106h9.084V54.765z"/>
<path fill="#0000BF" stroke="#000000" stroke-width="2" d="M91.231,85.176l1.843,0.921l0.79,1.843v3.95l-1.448,0.263l-1.448-0.263
	v-2.238l-0.395-1.185l-1.185-0.264H6.319v-3.027H91.231z"/>
<path fill="#0000BF" d="M29.752,84.517H13.033v4.871h16.719V84.517z"/>
<path fill="#0000AD" d="M29.752,88.467H13.033v0.921h16.719V88.467z"/>
<path fill="#0000BF" d="M27.382,82.938H15.139v8.03h12.243V82.938z"/>
<path fill="#0000AD" d="M27.382,82.938H15.139v1.316h12.243V82.938z"/>
<path fill="#0000AD" d="M27.382,87.94H15.139v3.028h12.243V87.94z"/>
<path fill="#B2B2B2" stroke="#000000" stroke-width="2" d="M22.512,82.938h-2.37V81.49h2.37V82.938z"/>
<ellipse fill="#F0F0F0" stroke="#000000" stroke-width="2" cx="15.929" cy="80.963" rx="8.031" ry="1.053"/>
<path fill="#FF0000" stroke="#000000" stroke-width="2" d="M19.747,79.909h-10.4v2.106h10.4V79.909z"/>
<path fill="none" stroke="#000000" stroke-width="2" d="M27.382,82.938H15.139v8.03h12.243V82.938"/>
<path fill="#217F21" stroke="#000000" stroke-width="2" d="M94.26,84.254h16.455v12.243H94.26V84.254z"/>
<path fill="#005E00" stroke="#000000" stroke-width="2" d="M94.26,81.49h-5.793v15.534h5.793V81.49z"/>
<path fill="#F0F0F0" stroke="#000000" stroke-width="2" d="M85.702,87.545h2.765v3.028h-2.765V87.545z"/>
<path fill="none" stroke="#000000" stroke-width="2" d="M108.872,85.702h-6.056"/>
<path fill="none" stroke="#000000" stroke-width="2" d="M108.477,87.281h-4.476"/>
<path fill="none" stroke="#000000" stroke-width="2" d="M107.95,90.046h-5.792"/>
<path fill="none" stroke="#000000" stroke-width="2" d="M108.346,92.153h-4.082"/>
<path fill="none" stroke="#FFFFFF" stroke-width="2" d="M31.332,18.825h19.747v4.607H31.332V18.825"/>
<path fill="#CCCCCC" stroke="#FFFFFF" stroke-width="2" d="M36.466,44.76h9.479v-7.636h-9.479V44.76z"/>
<path stroke="#000000" stroke-width="2" d="M85.439,15.534l1.184,0.526l0.658,1.58l-0.658,1.185l-1.184,0.658l-1.58-0.658
	l-0.527-1.185l0.527-1.58L85.439,15.534z"/>
<path stroke="#000000" stroke-width="2" d="M93.864,15.534l1.579,0.526l0.264,1.58l-0.264,1.185l-1.579,0.658l-1.054-0.658
	l-0.658-1.185l0.658-1.58L93.864,15.534z"/>
<path stroke="#000000" stroke-width="2" d="M103.08,15.534l1.184,0.526l0.658,1.58l-0.658,1.185l-1.184,0.658l-1.58-0.658
	l-0.527-1.185l0.527-1.58L103.08,15.534z"/>
<path stroke="#000000" stroke-width="2" d="M111.9,15.534l-1.186,0.526l-0.658,1.58l0.658,1.185l1.186,0.658l1.447-0.658
	l0.658-1.185l-0.658-1.58L111.9,15.534z"/>
<path stroke="#000000" stroke-width="2" d="M95.707,35.545l-1.447,0.658l-0.396,1.185l0.396,1.185l1.447,0.658l1.316-0.658
	l0.527-1.185l-0.527-1.185L95.707,35.545z"/>
<path stroke="#000000" stroke-width="2" d="M102.158,35.545l-1.186,0.658l-0.658,1.185l0.658,1.185l1.186,0.658l1.58-0.658
	l0.525-1.185l-0.525-1.185L102.158,35.545z"/>
<path fill="#FF0000" d="M95.707,35.94l-0.922,0.526l-0.525,0.922l0.525,0.921l0.922,0.658l0.922-0.658l0.658-0.921l-0.658-0.922
	L95.707,35.94z"/>
<path fill="#00FF00" d="M102.158,35.94l-0.922,0.526l-0.264,0.922l0.264,0.921l0.922,0.658l1.185-0.658l0.396-0.921l-0.396-0.922
	L102.158,35.94z"/>
<path fill="#E0E0E0" d="M86.098,16.061l0.263,0.396l-1.579,2.369l-0.527-0.264L86.098,16.061z"/>
<path fill="#E0E0E0" d="M94.654,16.061l0.131,0.396l-1.447,2.369l-0.264-0.264L94.654,16.061z"/>
<path fill="#E0E0E0" d="M103.738,16.061l0.263,0.396l-1.579,2.369l-0.527-0.264L103.738,16.061z"/>
<path fill="#E0E0E0" d="M111.242,16.061l-0.264,0.396l1.58,2.369l0.525-0.264L111.242,16.061z"/>
<path d="M94.654,23.697h8.688l-1.448,5.134h-5.793L94.654,23.697z"/>
<path fill="#FFFFFF" stroke="#000000" stroke-width="2" d="M95.181,24.355h7.636l-0.922,2.765h-5.793L95.181,24.355z"/>
<path fill="none" stroke="#000000" stroke-width="2" d="M99.788,24.881l-0.921,2.238"/>
<path fill="none" stroke="#000000" stroke-width="2" d="M95.707,24.355v0.526"/>
<path fill="none" stroke="#000000" stroke-width="2" d="M96.497,24.355v0.526"/>
<path fill="none" stroke="#000000" stroke-width="2" d="M97.287,24.355v0.526"/>
<path fill="none" stroke="#000000" stroke-width="2" d="M98.209,24.355v0.526"/>
<path fill="none" stroke="#000000" stroke-width="2" d="M99.13,24.355v0.526"/>
<path fill="none" stroke="#000000" stroke-width="2" d="M99.788,24.355v0.526"/>
<path fill="none" stroke="#000000" stroke-width="2" d="M100.71,24.355v0.526"/>
<path fill="none" stroke="#000000" stroke-width="2" d="M101.5,24.355v0.526"/>
<path fill="none" stroke="#000000" stroke-width="2" d="M102.422,24.355v0.526"/>
</svg>
