<?xml version="1.0" encoding="utf-8"?>
<!-- Generator: Adobe Illustrator 14.0.0, SVG Export Plug-In . SVG Version: 6.00 Build 43363)  -->
<!DOCTYPE svg PUBLIC "-//W3C//DTD SVG 1.1//EN" "http://www.w3.org/Graphics/SVG/1.1/DTD/svg11.dtd">
<svg version="1.1" id="图层_1" xmlns="http://www.w3.org/2000/svg" xmlns:xlink="http://www.w3.org/1999/xlink" x="0px" y="0px"
	 width="73.555px" height="106.502px" viewBox="0 0 73.555 106.502" enable-background="new 0 0 73.555 106.502"
	 xml:space="preserve">
<path fill="#7F7F7F" d="M14.285,50h46.051v6.716H14.285V50z"/>
<path fill="#B2B2B2" d="M14.285,50.64h46.051v5.543H14.285V50.64z"/>
<path fill="#E5E5E5" d="M14.285,51.492h46.051v3.624H14.285V51.492z"/>
<path fill="#FFFFFF" d="M14.285,52.665h46.051v1.279H14.285V52.665z"/>
<path fill="none" stroke="#000000" stroke-width="2" d="M14.285,56.716h46.051"/>
<path fill="none" stroke="#000000" stroke-width="2" d="M60.336,50H14.285"/>
<path fill="#7F7F7F" d="M40.722,29.532V86.99h-6.716V29.532H40.722z"/>
<path fill="#B2B2B2" d="M40.082,29.532V86.99h-5.437V29.532H40.082z"/>
<path fill="#E5E5E5" d="M39.229,29.532V86.99h-3.838V29.532H39.229z"/>
<path fill="#FFFFFF" d="M37.844,29.532V86.99h-1.173V29.532H37.844z"/>
<path fill="none" stroke="#000000" stroke-width="2" d="M34.006,29.532V86.99"/>
<path fill="none" stroke="#000000" stroke-width="2" d="M40.722,86.99V29.532"/>
<path fill="#7F7F7F" d="M40.936,46.589v3.197h3.197v6.823h-3.197v3.411h-6.716V56.61h-3.411v-6.823h3.411v-3.197H40.936z"/>
<path fill="#B2B2B2" d="M40.082,46.589v4.051h4.051v5.33h-4.051v4.051h-5.223V55.97h-4.051v-5.33h4.051v-4.051H40.082z"/>
<path fill="#E5E5E5" d="M39.229,46.589v4.903h4.903v3.624h-4.903v4.904h-3.518v-4.904h-4.903v-3.624h4.903v-4.903H39.229z"/>
<path fill="#FFFFFF" d="M38.057,46.589v6.076h6.076v1.279h-6.076v6.076h-1.172v-6.076h-6.076v-1.279h6.076v-6.076H38.057z"/>
<path fill="none" stroke="#000000" stroke-width="2" d="M40.936,46.589V50h3.197"/>
<path fill="none" stroke="#000000" stroke-width="2" d="M44.133,56.716h-3.197v3.305"/>
<path fill="none" stroke="#000000" stroke-width="2" d="M34.219,60.021v-3.305h-3.411"/>
<path fill="none" stroke="#000000" stroke-width="2" d="M30.808,50h3.411v-3.411"/>
<path fill="#7F7F7F" d="M36.671,30.385H9.274l0.533-5.543l1.599-5.117l1.173-2.345l2.985-4.371l3.731-3.731l4.371-2.984l2.452-1.173
	l5.117-1.599l5.437-0.533l5.544,0.533l2.664,0.746l2.559,0.853l2.346,1.173l4.371,2.984l3.837,3.731l2.985,4.371l1.065,2.345
	l1.599,5.117l0.641,5.543H36.671z"/>
<path fill="#999999" d="M36.671,30.385H11.939l0.426-5.543l1.493-5.117l2.345-4.69l2.985-4.051l3.625-3.305l4.264-2.559l4.584-1.599
	l5.01-0.533l5.011,0.533l4.689,1.599l4.265,2.559l3.624,3.305l3.092,4.051l2.346,4.69l1.386,5.117l0.532,5.543H36.671z"/>
<path fill="#B2B2B2" d="M36.671,30.491H16.95l0.426-5.543l1.173-5.117l1.812-4.69l2.452-4.051l2.878-3.411l3.305-2.559l3.731-1.599
	l3.944-0.533l4.051,0.533l3.731,1.599l3.305,2.559l2.984,3.411l2.452,4.051l1.812,4.69l1.174,5.117l0.426,5.543H36.671z"/>
<path fill="#CCCCCC" d="M36.671,30.385H22.28v-2.771l0.32-2.771l0.32-2.559l0.533-2.559l0.533-2.345l0.746-2.346l0.853-2.025
	l0.853-2.025l1.066-1.706l1.172-1.599l1.066-1.386l1.386-1.173l1.279-0.853l1.386-0.746l1.386-0.427l1.492-0.106l1.493,0.106
	l1.492,0.427l1.385,0.746L42.32,5.12L43.6,6.293l1.279,1.386l1.066,1.599l1.066,1.706l0.959,2.025l0.854,2.025l0.746,2.346
	l0.533,2.345l0.532,2.559l0.319,2.559l0.32,2.771v2.771H36.671z"/>
<path fill="#E5E5E5" d="M36.884,30.385H27.29l0.106-2.771l0.107-2.771l0.32-2.559l0.213-2.559l0.427-2.345l0.426-2.346l0.64-2.025
	l0.64-2.025l0.64-1.706l0.746-1.599L32.3,6.293l0.853-1.173l0.853-0.853l0.959-0.746l0.959-0.427l0.959-0.106l0.959,0.106
	l0.853,0.427l0.96,0.746l0.853,0.853l0.746,1.173l0.746,1.386l0.746,1.599l0.747,1.706l0.532,2.025l0.533,2.025l0.533,2.346
	l0.319,2.345l0.32,2.559l0.319,2.559l0.106,2.771v2.771H36.884z"/>
<path fill="none" stroke="#000000" stroke-width="2" d="M36.671,30.385H9.274l0.533-5.543l1.599-5.117l1.173-2.345l2.985-4.371
	l3.731-3.731l4.371-2.984l2.452-1.173l5.117-1.599l5.437-0.533l5.544,0.533l2.664,0.746l2.559,0.853l2.346,1.173l4.371,2.984
	l3.837,3.731l2.985,4.371l1.065,2.345l1.599,5.117l0.641,5.543H36.671"/>
<path fill="#FFFFFF" d="M36.671,30.385h-2.452v-2.771v-2.771l0.106-2.559l0.106-2.559l0.107-2.345l0.106-2.346l0.106-2.025
	l0.107-2.025l0.213-1.706l0.213-1.599l0.213-1.386l0.213-1.173l0.213-0.853l0.533-1.173l0.213-0.106l0.32,0.106l0.533,1.173
	l0.213,0.853l0.214,1.173l0.319,1.386l0.107,1.599l0.213,1.706l0.106,2.025l0.214,2.025l0.105,2.346l0.107,2.345l0.106,2.559v2.559
	v2.771v2.771H36.671z"/>
<path fill="#7F7F7F" d="M2.985,103.407V69.721l67.585,33.687V69.721L2.985,103.407z"/>
<path fill="#999999" d="M2.985,101.809V71.427l67.585,30.382V71.427L2.985,101.809z"/>
<path fill="#B2B2B2" d="M2.985,98.397V74.838L70.57,98.397V74.838L2.985,98.397z"/>
<path fill="#CCCCCC" d="M2.985,94.879v-16.63l67.585,16.63v-16.63L2.985,94.879z"/>
<path fill="#E5E5E5" d="M2.985,92.321V80.914L70.57,92.321V80.914L2.985,92.321z"/>
<path fill="#FFFFFF" d="M2.985,88.803v-4.478l67.585,4.478v-4.478L2.985,88.803z"/>
<path fill="none" stroke="#000000" stroke-width="2" d="M2.985,103.407V69.721l67.585,33.687V69.721L2.985,103.407"/>
</svg>
