<?xml version="1.0" encoding="utf-8"?>
<!-- Generator: Adobe Illustrator 14.0.0, SVG Export Plug-In . SVG Version: 6.00 Build 43363)  -->
<!DOCTYPE svg PUBLIC "-//W3C//DTD SVG 1.1//EN" "http://www.w3.org/Graphics/SVG/1.1/DTD/svg11.dtd">
<svg version="1.1" id="图层_1" xmlns="http://www.w3.org/2000/svg" xmlns:xlink="http://www.w3.org/1999/xlink" x="0px" y="0px"
	 width="67.903px" height="106.502px" viewBox="0 0 67.903 106.502" enable-background="new 0 0 67.903 106.502"
	 xml:space="preserve">
<path fill="#7F7F7F" d="M9.498,52.544v45.673H2.829V52.544H9.498z"/>
<path fill="#B2B2B2" d="M8.892,52.544v45.673H3.436V52.544H8.892z"/>
<path fill="#E5E5E5" d="M8.084,52.544v45.673h-3.84V52.544H8.084z"/>
<path fill="#FFFFFF" d="M6.871,52.544v45.673H5.658V52.544H6.871z"/>
<path fill="none" stroke="#000000" stroke-width="2" d="M2.829,52.544v45.673"/>
<path fill="none" stroke="#000000" stroke-width="2" d="M9.498,98.217V52.544"/>
<path fill="#7F7F7F" d="M65.073,52.544v45.673h-6.669V52.544H65.073z"/>
<path fill="#B2B2B2" d="M64.467,52.544v45.673h-5.456V52.544H64.467z"/>
<path fill="#E5E5E5" d="M63.659,52.544v45.673h-3.638V52.544H63.659z"/>
<path fill="#FFFFFF" d="M62.447,52.544v45.673h-1.213V52.544H62.447z"/>
<path fill="none" stroke="#000000" stroke-width="2" d="M58.405,52.544v45.673"/>
<path fill="none" stroke="#000000" stroke-width="2" d="M65.073,98.217V52.544"/>
<path fill="#7F7F7F" d="M37.185,29.707v19.604h-6.669V29.707H37.185z"/>
<path fill="#B2B2B2" d="M36.578,29.707v19.604h-5.456V29.707H36.578z"/>
<path fill="#E5E5E5" d="M35.771,29.707v19.604h-3.84V29.707H35.771z"/>
<path fill="#FFFFFF" d="M34.558,29.707v19.604h-1.415V29.707H34.558z"/>
<path fill="none" stroke="#000000" stroke-width="2" d="M30.516,29.707v19.604"/>
<path fill="none" stroke="#000000" stroke-width="2" d="M37.185,49.311V29.707"/>
<path fill="#7F7F7F" d="M33.951,30.516H6.063l0.606-5.658l1.617-5.053l2.627-4.851l3.436-4.041l4.042-3.436l4.647-2.426l5.255-1.616
	l5.658-0.606l5.659,0.606l5.254,1.616l4.851,2.426l4.042,3.436l3.436,4.041l2.627,4.851l1.616,5.053l0.606,5.658H33.951z"/>
<path fill="#999999" d="M33.951,30.516H8.69l0.606-5.456l1.415-5.255l2.223-4.648l3.233-4.243l3.638-3.233l4.244-2.628L28.9,3.436
	l5.052-0.606l5.053,0.606l4.85,1.616l4.244,2.628l3.84,3.233l3.031,4.243l2.425,4.648l1.415,5.255l0.606,5.456H33.951z"/>
<path fill="#B2B2B2" d="M33.951,30.516H13.945l0.404-5.456l1.212-5.255l1.819-4.648l2.425-4.243l3.031-3.233l3.436-2.628
	l3.638-1.616l4.042-0.606l4.042,0.606l3.84,1.616l3.436,2.628l3.031,3.233l2.425,4.243l1.819,4.648l1.213,5.255l0.403,5.456H33.951z
	"/>
<path fill="#CCCCCC" d="M33.951,30.516H19.198l0.202-5.658l1.011-5.053l1.415-4.851l1.818-4.041l2.021-3.436l2.627-2.426
	l2.627-1.616l3.031-0.606l3.031,0.606l2.83,1.616l2.425,2.426l2.223,3.436l1.819,4.041l1.414,4.851l1.011,5.053l0.202,5.658H33.951z
	"/>
<path fill="#E5E5E5" d="M33.951,30.516h-9.498l0.202-5.658l0.606-5.053l0.808-4.851l1.213-4.041l1.415-3.436l1.616-2.426
	l1.819-1.616l1.818-0.606l2.021,0.606l1.818,1.616l1.617,2.426l1.414,3.436l1.213,4.041l0.809,4.851l0.605,5.053l0.202,5.658H33.951
	z"/>
<path fill="none" stroke="#000000" stroke-width="2" d="M33.951,30.516H6.063l0.606-5.658l1.617-5.053l2.627-4.851l3.436-4.041
	l4.042-3.436l4.647-2.426l5.255-1.616l5.658-0.606l5.659,0.606l5.254,1.616l4.851,2.426l4.042,3.436l3.436,4.041l2.627,4.851
	l1.616,5.053l0.606,5.658H33.951"/>
<path fill="#FFFFFF" d="M33.951,30.516h-2.627v-5.658l0.202-5.053l0.202-4.851l0.404-4.041l0.404-3.436l0.403-2.426l0.404-1.616
	l0.606-0.606l0.606,0.606l0.404,1.616l0.606,2.426l0.404,3.436l0.202,4.041l0.201,4.851l0.202,5.053v5.658H33.951z"/>
<circle fill="#7F7F7F" cx="33.951" cy="75.784" r="27.889"/>
<circle fill="#999999" cx="33.951" cy="75.784" r="25.464"/>
<circle fill="#B2B2B2" cx="33.951" cy="75.784" r="21.624"/>
<circle fill="#CCCCCC" cx="33.951" cy="75.784" r="15.965"/>
<circle fill="#E5E5E5" cx="33.951" cy="75.784" r="11.317"/>
<circle fill="none" stroke="#000000" stroke-width="2" cx="33.951" cy="75.784" r="27.889"/>
<circle fill="#FFFFFF" cx="33.951" cy="75.784" r="6.467"/>
</svg>
