<?xml version="1.0" encoding="utf-8"?>
<!-- Generator: Adobe Illustrator 14.0.0, SVG Export Plug-In . SVG Version: 6.00 Build 43363)  -->
<!DOCTYPE svg PUBLIC "-//W3C//DTD SVG 1.1//EN" "http://www.w3.org/Graphics/SVG/1.1/DTD/svg11.dtd">
<svg version="1.1" id="图层_1" xmlns="http://www.w3.org/2000/svg" xmlns:xlink="http://www.w3.org/1999/xlink" x="0px" y="0px"
	 width="144.749px" height="73.109px" viewBox="0 0 144.749 73.109" enable-background="new 0 0 144.749 73.109"
	 xml:space="preserve">
<path fill="#7F7F7F" d="M18.574,26.237v42.744H3.835V26.237H18.574z"/>
<path fill="#B2B2B2" d="M17.101,26.237v42.744H5.309V26.237H17.101z"/>
<path fill="#E5E5E5" d="M15.332,26.237v42.744H7.077V26.237H15.332z"/>
<path fill="#FFFFFF" d="M12.384,26.237v42.744H9.731V26.237H12.384z"/>
<path fill="none" stroke="#000000" stroke-width="2" d="M3.835,26.237v42.744"/>
<path fill="none" stroke="#000000" stroke-width="2" d="M18.574,68.981V26.237"/>
<path fill="#7F7F7F" d="M25.65,22.404l-7.37-4.127l7.37-12.676l7.37,4.422L25.65,22.404z"/>
<path fill="#B2B2B2" d="M26.534,21.225l-7.37-4.127L25.06,6.78l7.075,4.422L26.534,21.225z"/>
<path fill="#E5E5E5" d="M27.418,19.751l-7.37-4.127l4.128-7.075l7.074,4.128L27.418,19.751z"/>
<path fill="#FFFFFF" d="M28.598,17.392l-7.37-4.127l1.474-2.358l7.37,4.128L28.598,17.392z"/>
<path fill="none" stroke="#000000" stroke-width="2" d="M33.02,10.023l-7.37-4.422"/>
<path fill="none" stroke="#000000" stroke-width="2" d="M18.28,18.277l7.37,4.127"/>
<path fill="#7F7F7F" d="M18.574,18.277H4.13v-1.769l0.589-1.769l0.295-1.77l0.885-1.769l1.769-2.358L9.731,6.78l2.358-1.474
	l2.653-0.885l2.948-0.589l2.652,0.294l2.948,0.59l2.653,1.18L18.574,18.277z"/>
<path fill="#B2B2B2" d="M18.574,18.277H5.604v-1.474l0.59-1.769l0.295-1.77l0.884-1.474l1.474-2.063l1.77-1.769l2.358-1.18
	l2.358-0.884l2.358-0.59h2.357l2.653,0.59l2.358,1.179L18.574,18.277z"/>
<path fill="#E5E5E5" d="M18.574,18.277H7.077v-1.474l0.59-1.475l0.295-1.179l0.884-1.474l1.18-1.77l1.769-1.474l1.769-1.179
	l2.063-0.885l2.064-0.295h2.357l2.064,0.59l2.063,0.884L18.574,18.277z"/>
<path fill="#FFFFFF" d="M18.574,18.277h-8.549v-1.179l0.295-0.885l0.295-1.179l0.589-0.885l0.885-1.474l1.474-1.18l1.18-0.885
	l1.769-0.589l1.474-0.295h1.77l1.769,0.59l1.474,0.589L18.574,18.277z"/>
<path fill="#E5E5E5" d="M18.574,18.277h-5.896v-0.59l0.295-0.884l0.294-0.885l0.295-0.59l1.475-1.769l2.063-0.884h2.358l2.063,0.589
	L18.574,18.277z"/>
<path fill="#B2B2B2" d="M18.574,18.277h-3.242v-0.295l0.294-0.295v-0.589l0.295-0.295l0.885-0.885l0.885-0.59h1.179l1.179,0.295
	L18.574,18.277z"/>
<path fill="#7F7F7F" d="M18.574,18.277h-1.474l0.295-0.295v-0.295l0.295-0.295l0.589-0.294h0.295h0.59L18.574,18.277z"/>
<path fill="none" stroke="#000000" stroke-width="2" d="M4.13,18.277v-1.769l0.589-1.769l0.295-1.77l0.885-1.769l1.769-2.358
	L9.731,6.78l2.358-1.474l2.653-0.885l2.948-0.589l2.652,0.294l2.948,0.59l2.653,1.18"/>
<path fill="#7F7F7F" d="M3.835,26.531v-8.254h14.739v8.254H3.835z"/>
<path fill="#B2B2B2" d="M5.309,26.531v-8.254h11.792v8.254H5.309z"/>
<path fill="#E5E5E5" d="M7.077,26.531v-8.254h8.255v8.254H7.077z"/>
<path fill="#FFFFFF" d="M9.731,26.531v-8.254h2.948v8.254H9.731z"/>
<path fill="none" stroke="#000000" stroke-width="2" d="M18.574,26.531v-8.254"/>
<path fill="none" stroke="#000000" stroke-width="2" d="M3.835,18.277v8.254"/>
<path fill="#7F7F7F" d="M126.469,46.872V3.833h14.445v43.039H126.469z"/>
<path fill="#B2B2B2" d="M127.943,46.872V3.833h11.792v43.039H127.943z"/>
<path fill="#E5E5E5" d="M129.712,46.872V3.833h7.959v43.039H129.712z"/>
<path fill="#FFFFFF" d="M132.365,46.872V3.833h2.653v43.039H132.365z"/>
<path fill="none" stroke="#000000" stroke-width="2" d="M140.914,46.872V3.833"/>
<path fill="none" stroke="#000000" stroke-width="2" d="M126.469,3.833v43.039"/>
<path fill="#7F7F7F" d="M119.099,50.41l7.37,4.422l-7.37,12.676l-7.369-4.422L119.099,50.41z"/>
<path fill="#B2B2B2" d="M118.51,51.884l7.369,4.127l-5.896,10.023l-7.37-4.127L118.51,51.884z"/>
<path fill="#E5E5E5" d="M117.625,53.357l7.075,4.128l-3.832,7.074l-7.37-4.127L117.625,53.357z"/>
<path fill="#FFFFFF" d="M116.152,55.716l7.369,4.128l-1.474,2.357l-7.075-4.127L116.152,55.716z"/>
<path fill="none" stroke="#000000" stroke-width="2" d="M111.73,63.086l7.369,4.422"/>
<path fill="none" stroke="#000000" stroke-width="2" d="M126.469,54.832l-7.37-4.422"/>
<path fill="#7F7F7F" d="M126.174,54.537h14.74l-0.295,2.063l-0.295,1.769l-0.59,1.769l-0.884,1.77l-1.77,2.358l-2.063,2.063
	l-2.358,1.474l-2.653,0.885l-2.652,0.589l-2.948-0.295l-2.653-0.589l-2.653-1.18L126.174,54.537z"/>
<path fill="#B2B2B2" d="M126.174,54.537h12.971v1.769l-0.294,1.769l-0.59,1.475l-0.885,1.474l-1.474,2.063l-1.769,1.769
	l-2.358,1.475l-2.358,0.884l-2.358,0.295H124.7l-2.653-0.295l-2.358-1.179L126.174,54.537z"/>
<path fill="#E5E5E5" d="M126.174,54.537h11.497v1.474l-0.295,1.475l-0.59,1.474l-0.589,1.474l-1.475,1.769l-1.474,1.475
	l-2.063,1.179l-2.063,0.59l-2.063,0.59H124.7l-2.063-0.59l-2.063-0.885L126.174,54.537z"/>
<path fill="#FFFFFF" d="M126.174,54.537h8.844v1.179l-0.295,1.18l-0.589,1.179l-0.295,0.885l-0.885,1.474l-1.474,1.18l-1.18,0.884
	l-1.769,0.59l-1.474,0.295h-1.769l-1.77-0.59l-1.474-0.59L126.174,54.537z"/>
<path fill="#E5E5E5" d="M126.174,54.537h5.896v0.885l-0.295,0.589v0.885l-0.295,0.59l-1.475,1.769l-2.063,1.179h-2.358l-2.358-0.589
	L126.174,54.537z"/>
<path fill="#B2B2B2" d="M126.174,54.537h3.243v0.295v0.59v0.294l-0.295,0.59l-0.885,0.885l-1.179,0.589h-1.18l-1.179-0.294
	L126.174,54.537z"/>
<path fill="#7F7F7F" d="M126.174,54.537h1.475v0.295v0.295l-0.295,0.295l-0.295,0.294l-0.59,0.295h-0.295l-0.59-0.295
	L126.174,54.537z"/>
<path fill="none" stroke="#000000" stroke-width="2" d="M140.914,54.537l-0.295,2.063l-0.295,1.769l-0.59,1.769l-0.884,1.77
	l-1.77,2.358l-2.063,2.063l-2.358,1.474l-2.653,0.885l-2.652,0.589l-2.948-0.295l-2.653-0.589l-2.653-1.18"/>
<path fill="#7F7F7F" d="M140.914,46.577v8.255h-14.445v-8.255H140.914z"/>
<path fill="#B2B2B2" d="M139.44,46.577v8.255h-11.791v-8.255H139.44z"/>
<path fill="#E5E5E5" d="M137.671,46.577v8.255h-7.959v-8.255H137.671z"/>
<path fill="#FFFFFF" d="M135.018,46.577v8.255h-2.653v-8.255H135.018z"/>
<path fill="none" stroke="#000000" stroke-width="2" d="M126.469,46.577v8.255"/>
<path fill="none" stroke="#000000" stroke-width="2" d="M140.914,54.832v-8.255"/>
<path fill="#7F7F7F" d="M113.793,64.854L24.47,22.109l6.191-13.266l89.617,43.04L113.793,64.854z"/>
<path fill="#B2B2B2" d="M114.677,63.676L25.06,20.635l5.012-10.612l89.617,43.04L114.677,63.676z"/>
<path fill="#E5E5E5" d="M115.267,61.907L25.65,19.162l3.537-7.37l89.617,43.04L115.267,61.907z"/>
<path fill="#FFFFFF" d="M116.446,59.549L26.828,16.803l1.18-2.653l89.617,43.04L116.446,59.549z"/>
<path fill="none" stroke="#000000" stroke-width="2" d="M120.279,51.884L30.661,8.844"/>
<path fill="none" stroke="#000000" stroke-width="2" d="M24.47,22.109l89.323,42.745"/>
<circle fill="#7F7F7F" cx="72.227" cy="36.26" r="15.919"/>
<circle fill="#999999" cx="72.227" cy="36.554" r="14.74"/>
<circle fill="#B2B2B2" cx="72.227" cy="36.26" r="12.381"/>
<circle fill="#CCCCCC" cx="72.227" cy="36.26" r="9.139"/>
<circle fill="#E5E5E5" cx="72.227" cy="36.554" r="6.485"/>
<circle fill="none" stroke="#000000" stroke-width="2" cx="72.227" cy="36.26" r="15.919"/>
<circle fill="#FFFFFF" cx="72.227" cy="36.554" r="3.832"/>
</svg>
