<?xml version="1.0" encoding="utf-8"?>
<!-- Generator: Adobe Illustrator 14.0.0, SVG Export Plug-In . SVG Version: 6.00 Build 43363)  -->
<!DOCTYPE svg PUBLIC "-//W3C//DTD SVG 1.1//EN" "http://www.w3.org/Graphics/SVG/1.1/DTD/svg11.dtd">
<svg version="1.1" id="图层_1" xmlns="http://www.w3.org/2000/svg" xmlns:xlink="http://www.w3.org/1999/xlink" x="0px" y="0px"
	 width="73.512px" height="106.502px" viewBox="0 0 73.512 106.502" enable-background="new 0 0 73.512 106.502"
	 xml:space="preserve">
<path fill="#7F7F7F" d="M14.254,50.095h46.225v6.72H14.254V50.095z"/>
<path fill="#B2B2B2" d="M14.254,50.705h46.225v5.499H14.254V50.705z"/>
<path fill="#E5E5E5" d="M14.254,51.521h46.225v3.665H14.254V51.521z"/>
<path fill="#FFFFFF" d="M14.254,52.742h46.225v1.222H14.254V52.742z"/>
<path fill="none" stroke="#000000" stroke-width="2" d="M14.254,56.815h46.225"/>
<path fill="none" stroke="#000000" stroke-width="2" d="M60.479,50.095H14.254"/>
<path fill="#7F7F7F" d="M40.727,29.528v57.629h-6.72V29.528H40.727z"/>
<path fill="#B2B2B2" d="M40.116,29.528v57.629h-5.499V29.528H40.116z"/>
<path fill="#E5E5E5" d="M39.301,29.528v57.629h-3.868V29.528H39.301z"/>
<path fill="#FFFFFF" d="M37.876,29.528v57.629h-1.222V29.528H37.876z"/>
<path fill="none" stroke="#000000" stroke-width="2" d="M34.007,29.528v57.629"/>
<path fill="none" stroke="#000000" stroke-width="2" d="M40.727,87.156V29.528"/>
<path fill="#7F7F7F" d="M40.931,46.633v3.258h3.258v6.721h-3.258v3.461h-6.72v-3.461h-3.461v-6.721h3.461v-3.258H40.931z"/>
<path fill="#B2B2B2" d="M40.116,46.633v4.072h4.072V56h-4.072v4.072h-5.295V56h-4.072v-5.295h4.072v-4.072H40.116z"/>
<path fill="#E5E5E5" d="M39.301,46.633v4.888h4.888v3.665h-4.888v4.887h-3.665v-4.887h-4.887v-3.665h4.887v-4.888H39.301z"/>
<path fill="#FFFFFF" d="M38.08,46.633v6.109h6.108v1.222H38.08v6.108h-1.222v-6.108h-6.109v-1.222h6.109v-6.109H38.08z"/>
<path fill="none" stroke="#000000" stroke-width="2" d="M40.931,46.633v3.462h3.258"/>
<path fill="none" stroke="#000000" stroke-width="2" d="M44.188,56.815h-3.258v3.258"/>
<path fill="none" stroke="#000000" stroke-width="2" d="M34.21,60.073v-3.258h-3.461"/>
<path fill="none" stroke="#000000" stroke-width="2" d="M30.749,50.095h3.461v-3.462"/>
<path fill="#7F7F7F" d="M14.254,39.099h46.225v6.72H14.254V39.099z"/>
<path fill="#B2B2B2" d="M14.254,39.709h46.225v5.498H14.254V39.709z"/>
<path fill="#E5E5E5" d="M14.254,40.524h46.225v3.666H14.254V40.524z"/>
<path fill="#FFFFFF" d="M14.254,41.746h46.225v1.222H14.254V41.746z"/>
<path fill="none" stroke="#000000" stroke-width="2" d="M14.254,45.819h46.225"/>
<path fill="none" stroke="#000000" stroke-width="2" d="M60.479,39.099H14.254"/>
<path fill="#7F7F7F" d="M40.931,35.637v3.258h3.258v6.72h-3.258v3.462h-6.72v-3.462h-3.461v-6.72h3.461v-3.258H40.931z"/>
<path fill="#B2B2B2" d="M40.116,35.637v4.072h4.072v5.295h-4.072v4.072h-5.295v-4.072h-4.072v-5.295h4.072v-4.072H40.116z"/>
<path fill="#E5E5E5" d="M39.301,35.637v4.887h4.888v3.666h-4.888v4.887h-3.665V44.19h-4.887v-3.666h4.887v-4.887H39.301z"/>
<path fill="#FFFFFF" d="M38.08,35.637v6.109h6.108v1.222H38.08v6.108h-1.222v-6.108h-6.109v-1.222h6.109v-6.109H38.08z"/>
<path fill="none" stroke="#000000" stroke-width="2" d="M40.931,35.637v3.258h3.258"/>
<path fill="none" stroke="#000000" stroke-width="2" d="M44.188,45.615h-3.258v3.462"/>
<path fill="none" stroke="#000000" stroke-width="2" d="M34.21,49.076v-3.462h-3.461"/>
<path fill="none" stroke="#000000" stroke-width="2" d="M30.749,38.895h3.461v-3.258"/>
<path fill="#7F7F7F" d="M36.654,30.342H9.164l0.611-5.498l1.629-5.091l2.444-4.684l3.462-4.072l4.073-3.462l4.684-2.443l5.091-1.63
	l5.498-0.61l5.498,0.61l5.295,1.63l4.684,2.443l4.072,3.462l3.462,4.072l2.443,4.684l1.63,5.091l0.61,5.498H36.654z"/>
<path fill="#999999" d="M36.654,30.342H11.811l0.407-5.498l1.629-5.091l2.24-4.684l3.055-4.072l3.666-3.462l4.276-2.443l4.684-1.63
	l4.887-0.61l5.091,0.61l4.684,1.63l4.276,2.443l3.666,3.462l3.054,4.072l2.24,4.684l1.629,5.091l0.407,5.498H36.654z"/>
<path fill="#B2B2B2" d="M36.654,30.546H16.902l0.407-5.498l1.222-5.295l1.833-4.684l2.444-4.072l2.851-3.462l3.258-2.443l3.869-1.63
	l3.869-0.61l4.072,0.61l3.666,1.63l3.461,2.443l2.852,3.462l2.443,4.072l1.833,4.684l1.222,5.295l0.407,5.498H36.654z"/>
<path fill="#CCCCCC" d="M36.654,30.342H22.196l0.204-5.498l1.018-5.091l1.222-4.684l1.833-4.072l2.036-3.462l2.444-2.443l2.851-1.63
	l2.851-0.61l3.055,0.61l2.646,1.63l2.443,2.443l2.24,3.462l1.833,4.072l1.222,4.684l1.019,5.091l0.204,5.498H36.654z"/>
<path fill="#E5E5E5" d="M36.858,30.342h-9.571l0.204-5.498l0.611-5.091l0.814-4.684l1.222-4.072l1.426-3.462l1.629-2.443l1.833-1.63
	l1.833-0.61l1.833,0.61l1.833,1.63l1.629,2.443l1.222,3.462l1.222,4.072l0.814,4.684l0.611,5.091l0.203,5.498H36.858z"/>
<path fill="none" stroke="#000000" stroke-width="2" d="M36.654,30.342H9.164l0.611-5.498l1.629-5.091l2.444-4.684l3.462-4.072
	l4.073-3.462l4.684-2.443l5.091-1.63l5.498-0.61l5.498,0.61l5.295,1.63l4.684,2.443l4.072,3.462l3.462,4.072l2.443,4.684l1.63,5.091
	l0.61,5.498H36.654"/>
<path fill="#FFFFFF" d="M36.654,30.342H34.21v-5.498l0.204-5.091l0.204-4.684l0.204-4.072l0.407-3.462l0.408-2.443l0.407-1.63
	l0.611-0.61l0.611,0.61l0.406,1.63l0.611,2.443l0.407,3.462l0.204,4.072l0.203,4.684l0.203,5.091v5.498H36.654z"/>
<path fill="#7F7F7F" d="M2.851,103.651V69.847l67.81,33.804V69.847L2.851,103.651z"/>
<path fill="#999999" d="M2.851,102.022V71.477l67.81,30.545V71.477L2.851,102.022z"/>
<path fill="#B2B2B2" d="M2.851,98.56V74.939l67.81,23.621V74.939L2.851,98.56z"/>
<path fill="#CCCCCC" d="M2.851,95.098V78.4l67.81,16.698V78.4L2.851,95.098z"/>
<path fill="#E5E5E5" d="M2.851,92.45V81.047l67.81,11.403V81.047L2.851,92.45z"/>
<path fill="#FFFFFF" d="M2.851,88.99v-4.48l67.81,4.48v-4.48L2.851,88.99z"/>
<path fill="none" stroke="#000000" stroke-width="2" d="M2.851,103.651V69.847l67.81,33.804V69.847L2.851,103.651"/>
</svg>
