<?xml version="1.0" encoding="utf-8"?>
<!-- Generator: Adobe Illustrator 14.0.0, SVG Export Plug-In . SVG Version: 6.00 Build 43363)  -->
<!DOCTYPE svg PUBLIC "-//W3C//DTD SVG 1.1//EN" "http://www.w3.org/Graphics/SVG/1.1/DTD/svg11.dtd">
<svg version="1.1" id="图层_1" xmlns="http://www.w3.org/2000/svg" xmlns:xlink="http://www.w3.org/1999/xlink" x="0px" y="0px"
	 width="129.464px" height="106.502px" viewBox="0 0 129.464 106.502" enable-background="new 0 0 129.464 106.502"
	 xml:space="preserve">
<path fill="#7F7F7F" d="M11.236,68.396H3.664V37.863h7.572V68.396z"/>
<path fill="#B2B2B2" d="M10.503,68.396H4.397V37.863h6.106V68.396z"/>
<path fill="#E5E5E5" d="M9.526,68.396H5.374V37.863h4.152V68.396z"/>
<path fill="#FFFFFF" d="M8.305,68.396H6.839V37.863h1.466V68.396z"/>
<path fill="none" stroke="#000000" stroke-width="2" d="M3.664,68.396V37.863"/>
<path fill="none" stroke="#000000" stroke-width="2" d="M11.236,68.396V37.863"/>
<path fill="#7F7F7F" d="M11.236,60.823H3.664V45.679h7.572v3.664h7.572v7.572h-7.572V60.823z"/>
<path fill="#B2B2B2" d="M10.503,60.823H4.397V50.075v-4.396h6.106v4.396h8.305v6.352h-8.305V60.823z"/>
<path fill="#E5E5E5" d="M9.526,60.823H5.374v-9.771v-5.374h4.152v5.618l9.282-0.244v4.152H9.526V60.823z"/>
<path fill="#FFFFFF" d="M8.305,60.823H6.839v-8.305v-6.84h1.466v6.84h10.503v1.465H8.305V60.823z"/>
<path fill="none" stroke="#000000" stroke-width="2" d="M11.236,60.823v-3.908h7.572"/>
<path fill="none" stroke="#000000" stroke-width="2" d="M18.809,49.343h-7.572v-3.664"/>
<path fill="none" stroke="#000000" stroke-width="2" d="M3.664,45.679v3.664v11.48"/>
<path fill="#7F7F7F" d="M80.12,49.343v7.572H19.053v-7.572H80.12z"/>
<path fill="#B2B2B2" d="M80.12,50.075v6.107H19.053v-6.107H80.12z"/>
<path fill="#E5E5E5" d="M80.12,51.053v4.152H19.053v-4.152H80.12z"/>
<path fill="#FFFFFF" d="M80.12,52.519v1.465H19.053v-1.465H80.12z"/>
<path fill="none" stroke="#000000" stroke-width="2" d="M80.12,56.915H19.053"/>
<path fill="none" stroke="#000000" stroke-width="2" d="M80.12,49.343H19.053"/>
<path fill="#7F7F7F" d="M125.8,102.838L76.212,53.251L125.8,3.664V102.838z"/>
<path fill="#999999" d="M125.8,98.197L76.212,53.251L125.8,8.306V98.197z"/>
<path fill="#B2B2B2" d="M125.8,87.204L76.212,53.251L125.8,19.053V87.204z"/>
<path fill="#CCCCCC" d="M125.8,77.922L76.212,53.251L125.8,28.335V77.922z"/>
<path fill="#E5E5E5" d="M125.8,70.35L76.212,53.251L125.8,36.153V70.35z"/>
<path fill="#FFFFFF" d="M125.8,59.358l-49.588-6.106l49.588-6.106V59.358z"/>
<path fill="none" stroke="#000000" stroke-width="2" d="M125.8,102.838L76.212,53.251L125.8,3.664V102.838"/>
<path fill="#7F7F7F" d="M26.625,3.664l49.586,49.587L125.8,3.664H26.625z"/>
<path fill="#999999" d="M31.267,3.664l44.945,49.587l44.946-49.587H31.267z"/>
<path fill="#B2B2B2" d="M42.015,3.664l34.197,49.587L110.41,3.664H42.015z"/>
<path fill="#CCCCCC" d="M51.297,3.664l24.915,49.587l24.672-49.587H51.297z"/>
<path fill="#E5E5E5" d="M59.113,3.664l17.099,49.587l17.1-49.587H59.113z"/>
<path fill="#FFFFFF" d="M70.105,3.664l6.106,49.587l6.107-49.587H70.105z"/>
<path fill="none" stroke="#000000" stroke-width="2" d="M26.625,3.664l49.586,49.587L125.8,3.664H26.625"/>
</svg>
