<?xml version="1.0" encoding="utf-8"?>
<!-- Generator: Adobe Illustrator 14.0.0, SVG Export Plug-In . SVG Version: 6.00 Build 43363)  -->
<!DOCTYPE svg PUBLIC "-//W3C//DTD SVG 1.1//EN" "http://www.w3.org/Graphics/SVG/1.1/DTD/svg11.dtd">
<svg version="1.1" id="图层_1" xmlns="http://www.w3.org/2000/svg" xmlns:xlink="http://www.w3.org/1999/xlink" x="0px" y="0px"
	 width="129.305px" height="106.502px" viewBox="0 0 129.305 106.502" enable-background="new 0 0 129.305 106.502"
	 xml:space="preserve">
<path fill="#7F7F7F" d="M118.145,37.846v7.764H57.01v-7.764H118.145z"/>
<path fill="#B2B2B2" d="M118.145,38.574v6.308H57.01v-6.308H118.145z"/>
<path fill="#E5E5E5" d="M118.145,39.787v4.124H57.01v-4.124H118.145z"/>
<path fill="#FFFFFF" d="M118.145,41v1.455H57.01V41H118.145z"/>
<path fill="none" stroke="#000000" stroke-width="2" d="M118.145,45.61H57.01"/>
<path fill="none" stroke="#000000" stroke-width="2" d="M118.145,37.846H57.01"/>
<path fill="#7F7F7F" d="M102.862,54.1h-7.764V29.356h7.764V54.1z"/>
<path fill="#B2B2B2" d="M102.134,54.1h-6.308V29.356h6.308V54.1z"/>
<path fill="#E5E5E5" d="M100.921,54.1h-3.882V29.356h3.882V54.1z"/>
<path fill="#FFFFFF" d="M99.708,54.1h-1.455V29.356h1.455V54.1z"/>
<path fill="none" stroke="#000000" stroke-width="2" d="M95.098,54.1V29.356"/>
<path fill="none" stroke="#000000" stroke-width="2" d="M102.862,54.1V29.356"/>
<path fill="#7F7F7F" d="M92.429,57.982h-7.763V25.474h7.763V57.982z"/>
<path fill="#B2B2B2" d="M91.702,57.982h-6.308V25.474h6.308V57.982z"/>
<path fill="#E5E5E5" d="M90.489,57.982h-4.124V25.474h4.124V57.982z"/>
<path fill="#FFFFFF" d="M89.276,57.982H87.82V25.474h1.456V57.982z"/>
<path fill="none" stroke="#000000" stroke-width="2" d="M84.667,57.982V25.474"/>
<path fill="none" stroke="#000000" stroke-width="2" d="M92.429,57.982V25.474"/>
<path fill="#7F7F7F" d="M80.785,45.61v-7.521h3.882v-3.882h7.521v3.882h3.882v7.521h-3.882v3.881h-7.521V45.61H80.785z"/>
<path fill="#B2B2B2" d="M80.785,44.882v-6.065h4.609v-4.609h6.065v4.609h4.609v6.065H91.46v4.608h-6.065v-4.608H80.785z"/>
<path fill="#E5E5E5" d="M80.785,43.911v-4.124h5.58v-5.58h4.124v5.58h5.58v4.124h-5.58v5.579h-4.124v-5.579H80.785z"/>
<path fill="#FFFFFF" d="M80.785,42.455V41h7.035v-6.793h1.456V41h6.793v1.455h-6.793v7.035H87.82v-7.035H80.785z"/>
<path fill="none" stroke="#000000" stroke-width="2" d="M80.785,45.61h3.882v3.881"/>
<path fill="none" stroke="#000000" stroke-width="2" d="M92.187,49.49V45.61h3.882"/>
<path fill="none" stroke="#000000" stroke-width="2" d="M96.069,38.089h-3.882v-3.882"/>
<path fill="none" stroke="#000000" stroke-width="2" d="M84.667,34.207v3.882h-3.882"/>
<path fill="#7F7F7F" d="M91.46,45.61v-7.521h3.639v-3.882h7.764v3.882h3.639v7.521h-3.639v3.881h-7.764V45.61H91.46z"/>
<path fill="#B2B2B2" d="M91.46,44.882v-6.065h4.366v-4.609h6.308v4.609h4.367v6.065h-4.367v4.608h-6.308v-4.608H91.46z"/>
<path fill="#E5E5E5" d="M91.46,43.911v-4.124h5.579v-5.58h3.882v5.58h5.58v4.124h-5.58v5.579h-3.882v-5.579H91.46z"/>
<path fill="#FFFFFF" d="M91.46,42.455V41h6.793v-6.793h1.455V41h6.793v1.455h-6.793v7.035h-1.455v-7.035H91.46z"/>
<path fill="none" stroke="#000000" stroke-width="2" d="M91.46,45.61h3.639v3.881"/>
<path fill="none" stroke="#000000" stroke-width="2" d="M102.862,49.49V45.61h3.639"/>
<path fill="none" stroke="#000000" stroke-width="2" d="M106.501,38.089h-3.639v-3.882"/>
<path fill="none" stroke="#000000" stroke-width="2" d="M95.098,34.207v3.882H91.46"/>
<path fill="#7F7F7F" d="M102.862,45.61v-7.521h3.639v-3.882h7.763v3.882h3.882v7.521h-3.882v3.881h-7.763V45.61H102.862z"/>
<path fill="#B2B2B2" d="M102.862,44.882v-6.065h4.366v-4.609h6.308v4.609h4.609v6.065h-4.609v4.608h-6.308v-4.608H102.862z"/>
<path fill="#E5E5E5" d="M102.862,43.911v-4.124h5.579v-5.58h3.882l0.242,5.58h5.58v4.124h-5.822l0.242,5.579h-4.124v-5.579H102.862z
	"/>
<path fill="#FFFFFF" d="M102.862,42.455V41h6.792v-6.793h1.456V41h7.035v1.455h-7.035v7.035h-1.456v-7.035H102.862z"/>
<path fill="none" stroke="#000000" stroke-width="2" d="M102.862,45.61h3.639v3.881"/>
<path fill="none" stroke="#000000" stroke-width="2" d="M114.263,49.49V45.61h3.882"/>
<path fill="none" stroke="#000000" stroke-width="2" d="M118.145,38.089h-3.882v-3.882"/>
<path fill="none" stroke="#000000" stroke-width="2" d="M106.501,34.207v3.882h-3.639"/>
<path fill="#7F7F7F" d="M125.666,95.342v7.521H3.639v-7.521H125.666z"/>
<path fill="#B2B2B2" d="M125.666,95.827v6.308H3.639v-6.308H125.666z"/>
<path fill="#E5E5E5" d="M125.666,97.04v4.124H3.639V97.04H125.666z"/>
<path fill="#FFFFFF" d="M125.666,98.253v1.456H3.639v-1.456H125.666z"/>
<path fill="none" stroke="#000000" stroke-width="2" d="M125.666,102.863H3.639"/>
<path fill="none" stroke="#000000" stroke-width="2" d="M125.666,95.342H3.639"/>
<path fill="#7F7F7F" d="M68.413,87.579h-7.521V77.147h7.521V87.579z"/>
<path fill="#B2B2B2" d="M67.685,87.579H61.62V77.147h6.065V87.579z"/>
<path fill="#E5E5E5" d="M66.715,87.579h-4.124V77.147h4.124V87.579z"/>
<path fill="#FFFFFF" d="M65.259,87.579h-1.455V77.147h1.455V87.579z"/>
<path fill="none" stroke="#000000" stroke-width="2" d="M60.892,87.579V77.147"/>
<path fill="none" stroke="#000000" stroke-width="2" d="M68.413,87.579V77.147"/>
<path fill="#7F7F7F" d="M72.295,95.342v7.521H57.01v-7.521h3.882v-7.763h7.521v7.763H72.295z"/>
<path fill="#B2B2B2" d="M72.295,96.07v6.065H61.62H57.01v-6.308l4.609,0.242v-8.49h6.065v8.49H72.295z"/>
<path fill="#E5E5E5" d="M72.295,97.04v4.124h-9.704h-5.58V97.04h5.58v-9.461h4.124v9.461H72.295z"/>
<path fill="#FFFFFF" d="M72.295,98.253v1.456h-8.491H57.01v-1.456h6.793V87.579h1.455v10.674H72.295z"/>
<path fill="none" stroke="#000000" stroke-width="2" d="M72.295,95.342h-3.882v-7.763"/>
<path fill="none" stroke="#000000" stroke-width="2" d="M60.892,87.579v7.763H57.01"/>
<path fill="none" stroke="#000000" stroke-width="2" d="M57.01,102.863h3.882h11.402"/>
<path fill="#7F7F7F" d="M26.443,80.058l38.088-38.33L26.443,3.64V80.058z"/>
<path fill="#999999" d="M26.443,76.419l38.088-34.691L26.443,7.279V76.419z"/>
<path fill="#B2B2B2" d="M26.443,68.171l38.088-26.443l-38.088-26.2V68.171z"/>
<path fill="#CCCCCC" d="M26.443,60.893l38.088-19.165L26.443,22.805V60.893z"/>
<path fill="#E5E5E5" d="M26.443,54.828l38.088-13.101L26.443,28.627V54.828z"/>
<path fill="#FFFFFF" d="M26.443,46.579l38.088-4.852l-38.088-4.609V46.579z"/>
<path fill="none" stroke="#000000" stroke-width="2" d="M26.443,80.058l38.088-38.33L26.443,3.64V80.058"/>
<path fill="#7F7F7F" d="M26.443,80.058l38.088-38.33l38.331,38.33H26.443z"/>
<path fill="#999999" d="M30.082,80.058l34.449-38.33l34.691,38.33H30.082z"/>
<path fill="#B2B2B2" d="M38.331,80.058l26.2-38.33l26.443,38.33H38.331z"/>
<path fill="#CCCCCC" d="M45.608,80.058l18.923-38.33l19.165,38.33H45.608z"/>
<path fill="#E5E5E5" d="M51.43,80.058l13.101-38.33l13.101,38.33H51.43z"/>
<path fill="#FFFFFF" d="M59.922,80.058l4.609-38.33l4.853,38.33H59.922z"/>
<path fill="none" stroke="#000000" stroke-width="2" d="M26.443,80.058l38.088-38.33l38.331,38.33H26.443"/>
</svg>
