<?xml version="1.0" encoding="utf-8"?>
<!-- Generator: Adobe Illustrator 14.0.0, SVG Export Plug-In . SVG Version: 6.00 Build 43363)  -->
<!DOCTYPE svg PUBLIC "-//W3C//DTD SVG 1.1//EN" "http://www.w3.org/Graphics/SVG/1.1/DTD/svg11.dtd">
<svg version="1.1" id="图层_1" xmlns="http://www.w3.org/2000/svg" xmlns:xlink="http://www.w3.org/1999/xlink" x="0px" y="0px"
	 width="61.085px" height="106.502px" viewBox="0 0 61.085 106.502" enable-background="new 0 0 61.085 106.502"
	 xml:space="preserve">
<path fill="#7F7F7F" d="M33.557,49.233h-6.229V16.48h6.229V49.233z"/>
<path fill="#B2B2B2" d="M32.953,49.233H27.93V16.48h5.023V49.233z"/>
<path fill="#E5E5E5" d="M32.15,49.233h-3.416V16.48h3.416V49.233z"/>
<path fill="#FFFFFF" d="M31.145,49.233H29.94V16.48h1.205V49.233z"/>
<path fill="none" stroke="#000000" stroke-width="2" d="M27.327,49.233V16.279"/>
<path fill="none" stroke="#000000" stroke-width="2" d="M33.557,49.233V16.279"/>
<path fill="#7F7F7F" d="M16.879,48.429l13.663,27.528l13.664-27.528H16.879z"/>
<path fill="#999999" d="M18.084,48.429l12.458,27.528L43,48.429H18.084z"/>
<path fill="#B2B2B2" d="M21.098,48.429l9.444,27.528l9.444-27.528H21.098z"/>
<path fill="#CCCCCC" d="M23.71,48.429l6.832,27.528l6.832-27.528H23.71z"/>
<path fill="#E5E5E5" d="M25.72,48.429l4.822,27.528l4.622-27.528H25.72z"/>
<path fill="#FFFFFF" d="M28.734,48.429l1.809,27.528l1.607-27.528H28.734z"/>
<path fill="none" stroke="#000000" stroke-width="2" d="M16.879,48.429l13.663,27.528l13.664-27.528H16.879"/>
<path fill="#7F7F7F" d="M16.879,103.486l13.663-27.528l13.664,27.528H16.879z"/>
<path fill="#999999" d="M18.084,103.486l12.458-27.528L43,103.486H18.084z"/>
<path fill="#B2B2B2" d="M21.098,103.486l9.444-27.528l9.444,27.528H21.098z"/>
<path fill="#CCCCCC" d="M23.71,103.486l6.832-27.528l6.832,27.528H23.71z"/>
<path fill="#E5E5E5" d="M25.72,103.486l4.822-27.528l4.622,27.528H25.72z"/>
<path fill="#FFFFFF" d="M28.734,103.486l1.809-27.528l1.607,27.528H28.734z"/>
<path fill="none" stroke="#000000" stroke-width="2" d="M16.879,103.486l13.663-27.528l13.664,27.528H16.879"/>
<path fill="#7F7F7F" d="M58.071,3.017L30.542,16.681l27.528,13.864V3.017z"/>
<path fill="#999999" d="M58.071,4.223L30.542,16.681l27.528,12.458V4.223z"/>
<path fill="#B2B2B2" d="M58.071,7.237l-27.528,9.444l27.528,9.443V7.237z"/>
<path fill="#CCCCCC" d="M58.071,9.849l-27.528,6.832l27.528,6.832V9.849z"/>
<path fill="#E5E5E5" d="M58.071,12.059l-27.528,4.622l27.528,4.822V12.059z"/>
<path fill="#FFFFFF" d="M58.071,15.073l-27.528,1.607l27.528,1.809V15.073z"/>
<path fill="none" stroke="#000000" stroke-width="2" d="M58.071,3.017L30.542,16.681l27.528,13.864V3.017"/>
<path fill="#7F7F7F" d="M3.014,3.017l27.528,13.664L3.014,30.545V3.017z"/>
<path fill="#999999" d="M3.014,4.223l27.528,12.458L3.014,29.139V4.223z"/>
<path fill="#B2B2B2" d="M3.014,7.237l27.528,9.444L3.014,26.124V7.237z"/>
<path fill="#CCCCCC" d="M3.014,9.849l27.528,6.832L3.014,23.513V9.849z"/>
<path fill="#E5E5E5" d="M3.014,12.059l27.528,4.622L3.014,21.503V12.059z"/>
<path fill="#FFFFFF" d="M3.014,15.073l27.528,1.607L3.014,18.49V15.073z"/>
<path fill="none" stroke="#000000" stroke-width="2" d="M3.014,3.017l27.528,13.664L3.014,30.545V3.017"/>
</svg>
