<?xml version="1.0" encoding="utf-8"?>
<!-- Generator: Adobe Illustrator 14.0.0, SVG Export Plug-In . SVG Version: 6.00 Build 43363)  -->
<!DOCTYPE svg PUBLIC "-//W3C//DTD SVG 1.1//EN" "http://www.w3.org/Graphics/SVG/1.1/DTD/svg11.dtd">
<svg version="1.1" id="图层_1" xmlns="http://www.w3.org/2000/svg" xmlns:xlink="http://www.w3.org/1999/xlink" x="0px" y="0px"
	 width="109.714px" height="106.502px" viewBox="0 0 109.714 106.502" enable-background="new 0 0 109.714 106.502"
	 xml:space="preserve">
<path stroke="#000000" stroke-width="2" d="M88.285,6.216l18.429,18.643L88.285,43.287L69.643,24.859L88.285,6.216z"/>
<path fill="#7F7F7F" d="M79.499,31.93L50.143,61.501l-4.714-4.929l29.357-29.356L79.499,31.93z"/>
<path fill="#B2B2B2" d="M79.071,31.501L49.714,60.859l-3.857-3.644l29.357-29.571L79.071,31.501z"/>
<path fill="#E5E5E5" d="M78.429,30.859L49.071,60.43L46.5,57.644l29.357-29.356L78.429,30.859z"/>
<path fill="#FFFFFF" d="M77.571,30.001L48.214,59.573l-0.857-1.071l29.357-29.357L77.571,30.001z"/>
<path fill="none" stroke="#000000" stroke-width="2" d="M74.785,27.216L45.428,56.573"/>
<path fill="none" stroke="#000000" stroke-width="2" d="M50.143,61.501L79.499,31.93"/>
<path fill="#7F7F7F" stroke="#000000" stroke-width="2" d="M85.285,3.001l18.214,18.643L85.285,40.073L66.643,21.644L85.285,3.001z"
	/>
<path fill="none" stroke="#000000" stroke-width="2" d="M75.856,24.001l6.857,6.857l5.785-6l-6.643-6.643l5.785-5.786l6.857,6.643"
	/>
<path fill="#7F7F7F" d="M3,103.501l24-23.786l-24-24V103.501z"/>
<path fill="#999999" d="M3,101.358l24-21.643L3,58.073V101.358z"/>
<path fill="#B2B2B2" d="M3,96.001l24-16.286l-24-16.5V96.001z"/>
<path fill="#CCCCCC" d="M3,91.501l24-11.786l-24-12V91.501z"/>
<path fill="#E5E5E5" d="M3,87.858l24-8.143L3,71.359V87.858z"/>
<path fill="#FFFFFF" d="M3,82.501l24-2.786l-24-3V82.501z"/>
<path fill="none" stroke="#000000" stroke-width="2" d="M3,103.501l24-23.786l-24-24V103.501"/>
<path fill="#7F7F7F" d="M50.785,103.501L27,79.715l23.785-24V103.501z"/>
<path fill="#999999" d="M50.785,101.358L27,79.715l23.785-21.643V101.358z"/>
<path fill="#B2B2B2" d="M50.785,96.001L27,79.715l23.785-16.5V96.001z"/>
<path fill="#CCCCCC" d="M50.785,91.501L27,79.715l23.785-12V91.501z"/>
<path fill="#E5E5E5" d="M50.785,87.858L27,79.715l23.785-8.356V87.858z"/>
<path fill="#FFFFFF" d="M50.785,82.501L27,79.715l23.785-3V82.501z"/>
<path fill="none" stroke="#000000" stroke-width="2" d="M50.785,103.501L27,79.715l23.785-24V103.501"/>
<path fill="#7F7F7F" d="M3,55.715l24,24l23.785-24H3z"/>
<path fill="#999999" d="M5.143,55.715l21.857,24l21.643-24H5.143z"/>
<path fill="#B2B2B2" d="M10.5,55.715l16.5,24l16.286-24H10.5z"/>
<path fill="#CCCCCC" d="M15,55.715l12,24l11.786-24H15z"/>
<path fill="#E5E5E5" d="M18.643,55.715l8.357,24l8.143-24H18.643z"/>
<path fill="#FFFFFF" d="M24,55.715l3,24l2.786-24H24z"/>
<path fill="none" stroke="#000000" stroke-width="2" d="M3,55.715l24,24l23.785-24H3"/>
<path fill="#7F7F7F" d="M3,103.501l24-23.786l23.785,23.786H3z"/>
<path fill="#999999" d="M5.143,103.501L27,79.715l21.643,23.786H5.143z"/>
<path fill="#B2B2B2" d="M10.5,103.501L27,79.715l16.286,23.786H10.5z"/>
<path fill="#CCCCCC" d="M15,103.501l12-23.786l11.786,23.786H15z"/>
<path fill="#E5E5E5" d="M18.643,103.501L27,79.715l8.143,23.786H18.643z"/>
<path fill="#FFFFFF" d="M24,103.501l3-23.786l2.786,23.786H24z"/>
<path fill="none" stroke="#000000" stroke-width="2" d="M3,103.501l24-23.786l23.785,23.786H3"/>
</svg>
