<?xml version="1.0" encoding="utf-8"?>
<!-- Generator: Adobe Illustrator 14.0.0, SVG Export Plug-In . SVG Version: 6.00 Build 43363)  -->
<!DOCTYPE svg PUBLIC "-//W3C//DTD SVG 1.1//EN" "http://www.w3.org/Graphics/SVG/1.1/DTD/svg11.dtd">
<svg version="1.1" id="图层_1" xmlns="http://www.w3.org/2000/svg" xmlns:xlink="http://www.w3.org/1999/xlink" x="0px" y="0px"
	 width="106.301px" height="106.502px" viewBox="0 0 106.301 106.502" enable-background="new 0 0 106.301 106.502"
	 xml:space="preserve">
<path fill="#7F7F7F" d="M103.293,103.493L53.15,53.151l50.143-50.142V103.493z"/>
<path fill="#999999" d="M103.293,98.68L53.15,53.151l50.143-45.328V98.68z"/>
<path fill="#B2B2B2" d="M103.293,87.649L53.15,53.151l50.143-34.497V87.649z"/>
<path fill="#CCCCCC" d="M103.293,78.222L53.15,53.151l50.143-25.07V78.222z"/>
<path fill="#E5E5E5" d="M103.293,70.4L53.15,53.151l50.143-17.248V70.4z"/>
<path fill="#FFFFFF" d="M103.293,59.368L53.15,53.151l50.143-6.218V59.368z"/>
<path fill="none" stroke="#000000" stroke-width="2" d="M103.293,103.493L53.15,53.151l50.143-50.142V103.493"/>
<path fill="#7F7F7F" d="M3.009,103.293L53.15,53.151l50.143,50.343L3.009,103.293z"/>
<path fill="#999999" d="M7.622,103.293L53.15,53.151l45.529,50.343L7.622,103.293z"/>
<path fill="#B2B2B2" d="M18.653,103.293L53.15,53.151l34.498,50.343L18.653,103.293z"/>
<path fill="#CCCCCC" d="M28.08,103.293l25.07-50.143l25.071,50.343L28.08,103.293z"/>
<path fill="#E5E5E5" d="M35.901,103.293L53.15,53.151l17.249,50.343L35.901,103.293z"/>
<path fill="#FFFFFF" d="M46.932,103.493l6.218-50.343l6.218,50.343H46.932z"/>
<path fill="none" stroke="#000000" stroke-width="2" d="M3.009,103.293L53.15,53.151l50.143,50.343L3.009,103.293"/>
</svg>
