<?xml version="1.0" encoding="utf-8"?>
<!-- Generator: Adobe Illustrator 14.0.0, SVG Export Plug-In . SVG Version: 6.00 Build 43363)  -->
<!DOCTYPE svg PUBLIC "-//W3C//DTD SVG 1.1//EN" "http://www.w3.org/Graphics/SVG/1.1/DTD/svg11.dtd">
<svg version="1.1" id="图层_1" xmlns="http://www.w3.org/2000/svg" xmlns:xlink="http://www.w3.org/1999/xlink" x="0px" y="0px"
	 width="118.642px" height="106.502px" viewBox="0 0 118.642 106.502" enable-background="new 0 0 118.642 106.502"
	 xml:space="preserve">
<path fill="#7F7F7F" d="M65.963,9.161l3.436-5.955l46.036,26.568l-3.436,5.955L65.963,9.161z"/>
<path fill="#B2B2B2" d="M66.421,8.475l2.748-4.811l46.037,26.568l-2.978,4.811L66.421,8.475z"/>
<path fill="#E5E5E5" d="M66.879,7.787l1.832-3.207l46.037,26.568l-1.833,3.207L66.879,7.787z"/>
<path fill="#FFFFFF" d="M67.337,6.642l0.688-1.145l46.036,26.568l-0.688,1.145L67.337,6.642z"/>
<path fill="none" stroke="#000000" stroke-width="2" d="M69.399,3.206l46.036,26.568"/>
<path fill="none" stroke="#000000" stroke-width="2" d="M65.963,9.161l46.036,26.568"/>
<path fill="#7F7F7F" d="M61.154,77.644l-5.955-3.436l27.484-47.64l5.726,3.436L61.154,77.644z"/>
<path fill="#B2B2B2" d="M60.466,77.186l-4.81-2.749l27.484-47.41l4.81,2.748L60.466,77.186z"/>
<path fill="#E5E5E5" d="M59.779,76.728l-3.206-1.832l27.484-47.411l2.978,1.832L59.779,76.728z"/>
<path fill="#FFFFFF" d="M58.634,76.27l-1.146-0.688l27.484-47.64l1.146,0.688L58.634,76.27z"/>
<path fill="none" stroke="#000000" stroke-width="2" d="M55.198,74.208l27.484-47.64"/>
<path fill="none" stroke="#000000" stroke-width="2" d="M61.154,77.644l27.255-47.64"/>
<path fill="#7F7F7F" d="M83.141,19.01l3.436-5.955l11.91,6.871l-3.436,5.955l-2.978-1.832l-3.436,5.955l-5.955-3.436l3.436-5.955
	L83.141,19.01z"/>
<path fill="#B2B2B2" d="M83.369,18.323l2.749-4.811l8.475,4.811l3.436,2.061l-2.749,4.811l-3.436-2.062l-3.894,6.642l-4.81-2.748
	l3.894-6.643L83.369,18.323z"/>
<path fill="#E5E5E5" d="M83.827,17.636l1.833-3.207l7.558,4.353L97.57,21.3l-1.832,3.207l-4.352-2.52l-4.123,7.329l-3.206-1.832
	l4.123-7.329L83.827,17.636z"/>
<path fill="#FFFFFF" d="M84.515,16.49l0.688-1.145l6.413,3.894l5.496,2.978l-0.687,1.145l-5.497-2.978l-4.81,8.246l-1.146-0.688
	l4.81-8.245L84.515,16.49z"/>
<path fill="none" stroke="#000000" stroke-width="2" d="M83.141,19.01l2.978,1.604l-3.436,5.955"/>
<path fill="none" stroke="#000000" stroke-width="2" d="M88.638,30.004l3.436-5.955l2.978,1.832"/>
<path fill="none" stroke="#000000" stroke-width="2" d="M98.487,19.926l-2.978-1.832l-8.933-5.039"/>
<path fill="#7F7F7F" d="M3.206,103.296V48.327l109.709,54.969V48.327L3.206,103.296z"/>
<path fill="#999999" d="M3.206,100.547V51.304l109.709,49.243V51.304L3.206,100.547z"/>
<path fill="#B2B2B2" d="M3.206,94.822V56.801l109.709,38.021V56.801L3.206,94.822z"/>
<path fill="#CCCCCC" d="M3.206,89.324V62.528l109.709,26.797V62.528L3.206,89.324z"/>
<path fill="#E5E5E5" d="M3.206,84.973V66.65l109.709,18.323V66.65L3.206,84.973z"/>
<path fill="#FFFFFF" d="M3.206,79.247v-6.871l109.709,6.871v-6.871L3.206,79.247z"/>
<path fill="none" stroke="#000000" stroke-width="2" d="M3.206,103.296V48.327l109.709,54.969V48.327L3.206,103.296"/>
</svg>
