<?xml version="1.0" encoding="utf-8"?>
<!-- Generator: Adobe Illustrator 14.0.0, SVG Export Plug-In . SVG Version: 6.00 Build 43363)  -->
<!DOCTYPE svg PUBLIC "-//W3C//DTD SVG 1.1//EN" "http://www.w3.org/Graphics/SVG/1.1/DTD/svg11.dtd">
<svg version="1.1" id="图层_1" xmlns="http://www.w3.org/2000/svg" xmlns:xlink="http://www.w3.org/1999/xlink" x="0px" y="0px"
	 width="112.277px" height="106.502px" viewBox="0 0 112.277 106.502" enable-background="new 0 0 112.277 106.502"
	 xml:space="preserve">
<path fill="#7F7F7F" d="M62.875,26.519v51.754H50.257V26.519H62.875z"/>
<path fill="#B2B2B2" d="M61.591,26.519v51.754H51.541V26.519H61.591z"/>
<path fill="#E5E5E5" d="M60.095,26.519v51.754h-7.058V26.519H60.095z"/>
<path fill="#FFFFFF" d="M57.742,26.519v51.754H55.39V26.519H57.742z"/>
<path fill="none" stroke="#000000" stroke-width="2" d="M50.257,26.519v51.754"/>
<path fill="none" stroke="#000000" stroke-width="2" d="M62.875,78.273V26.519"/>
<path fill="#7F7F7F" d="M8.982,2.994h94.312v12.403H8.982V2.994z"/>
<path fill="#B2B2B2" d="M8.982,4.064h94.312v10.265H8.982V4.064z"/>
<path fill="#E5E5E5" d="M8.982,5.775h94.312v6.843H8.982V5.775z"/>
<path fill="#FFFFFF" d="M8.982,8.127h94.312v2.352H8.982V8.127z"/>
<path fill="none" stroke="#000000" stroke-width="2" d="M8.982,15.398h94.312"/>
<path fill="none" stroke="#000000" stroke-width="2" d="M103.294,2.994H8.982"/>
<path fill="#7F7F7F" d="M62.875,28.016V15.398h6.416V2.994H43.841v12.403h6.416v12.618H62.875z"/>
<path fill="#B2B2B2" d="M61.591,28.016V14.115h7.699V4.064H43.841v10.051h7.485v13.901H61.591z"/>
<path fill="#E5E5E5" d="M59.88,28.016V12.404h9.41V5.775H43.841v6.629h9.196v15.612H59.88z"/>
<path fill="#FFFFFF" d="M57.742,28.016V10.479h11.549V7.913H43.841v2.565h11.334v17.537H57.742z"/>
<path fill="none" stroke="#000000" stroke-width="2" d="M62.875,28.016V15.398h6.416"/>
<path fill="none" stroke="#000000" stroke-width="2" d="M50.257,28.016V15.398h-6.416"/>
<path fill="none" stroke="#000000" stroke-width="2" d="M43.841,2.994h25.449"/>
<path fill="#7F7F7F" d="M2.994,103.508V50.257l106.289,53.251V50.257L2.994,103.508z"/>
<path fill="#999999" d="M2.994,100.728V52.823l106.289,47.904V52.823L2.994,100.728z"/>
<path fill="#B2B2B2" d="M2.994,95.168V58.384l106.289,36.784V58.384L2.994,95.168z"/>
<path fill="#CCCCCC" d="M2.994,89.822V63.731l106.289,26.091V63.731L2.994,89.822z"/>
<path fill="#E5E5E5" d="M2.994,85.758V67.794l106.289,17.964V67.794L2.994,85.758z"/>
<path fill="#FFFFFF" d="M2.994,80.198v-6.844l106.289,6.844v-6.844L2.994,80.198z"/>
<path fill="none" stroke="#000000" stroke-width="2" d="M2.994,103.508V50.257l106.289,53.251V50.257L2.994,103.508"/>
</svg>
