<?xml version="1.0" encoding="utf-8"?>
<!-- Generator: Adobe Illustrator 14.0.0, SVG Export Plug-In . SVG Version: 6.00 Build 43363)  -->
<!DOCTYPE svg PUBLIC "-//W3C//DTD SVG 1.1//EN" "http://www.w3.org/Graphics/SVG/1.1/DTD/svg11.dtd">
<svg version="1.1" id="图层_1" xmlns="http://www.w3.org/2000/svg" xmlns:xlink="http://www.w3.org/1999/xlink" x="0px" y="0px"
	 width="106.301px" height="106.502px" viewBox="0 0 106.301 106.502" enable-background="new 0 0 106.301 106.502"
	 xml:space="preserve">
<path fill="#7F7F7F" d="M3.009,103.493L53.15,53.352L3.009,3.009V103.493z"/>
<path fill="#999999" d="M3.009,98.68L53.15,53.352L3.009,7.823V98.68z"/>
<path fill="#B2B2B2" d="M3.009,87.849L53.15,53.352L3.009,18.854V87.849z"/>
<path fill="#CCCCCC" d="M3.009,78.422l50.142-25.07L3.009,28.281V78.422z"/>
<path fill="#E5E5E5" d="M3.009,70.6L53.15,53.352L3.009,36.103V70.6z"/>
<path fill="#FFFFFF" d="M3.009,59.569l50.142-6.217L3.009,47.134V59.569z"/>
<path fill="none" stroke="#000000" stroke-width="2" d="M3.009,103.493L53.15,53.352L3.009,3.009V103.493"/>
<path fill="#7F7F7F" d="M103.293,103.493L53.15,53.352l50.143-50.343V103.493z"/>
<path fill="#999999" d="M103.293,98.68L53.15,53.352l50.143-45.529V98.68z"/>
<path fill="#B2B2B2" d="M103.293,87.849L53.15,53.352l50.143-34.498V87.849z"/>
<path fill="#CCCCCC" d="M103.293,78.422L53.15,53.352l50.143-25.071V78.422z"/>
<path fill="#E5E5E5" d="M103.293,70.6L53.15,53.352l50.143-17.249V70.6z"/>
<path fill="#FFFFFF" d="M103.293,59.569L53.15,53.352l50.143-6.218V59.569z"/>
<path fill="none" stroke="#000000" stroke-width="2" d="M103.293,103.493L53.15,53.352l50.143-50.343V103.493"/>
<path fill="#7F7F7F" d="M3.009,3.009L53.15,53.352l50.143-50.343H3.009z"/>
<path fill="#999999" d="M7.622,3.009L53.15,53.352L98.679,3.009H7.622z"/>
<path fill="#B2B2B2" d="M18.653,3.009L53.15,53.352L87.648,3.009H18.653z"/>
<path fill="#CCCCCC" d="M28.08,3.009l25.07,50.343L78.221,3.009H28.08z"/>
<path fill="#E5E5E5" d="M35.901,3.009L53.15,53.352L70.399,3.009H35.901z"/>
<path fill="#FFFFFF" d="M46.932,3.009l6.218,50.343l6.218-50.343H46.932z"/>
<path fill="none" stroke="#000000" stroke-width="2" d="M3.009,3.009L53.15,53.352l50.143-50.343H3.009"/>
<path fill="#7F7F7F" d="M3.009,103.493L53.15,53.352l50.143,50.142H3.009z"/>
<path fill="#999999" d="M7.622,103.493L53.15,53.352l45.529,50.142H7.622z"/>
<path fill="#B2B2B2" d="M18.653,103.493L53.15,53.352l34.498,50.142H18.653z"/>
<path fill="#CCCCCC" d="M28.08,103.493l25.07-50.142l25.071,50.142H28.08z"/>
<path fill="#E5E5E5" d="M35.901,103.493L53.15,53.352l17.249,50.142H35.901z"/>
<path fill="#FFFFFF" d="M46.932,103.493l6.218-50.142l6.218,50.142H46.932z"/>
<path fill="none" stroke="#000000" stroke-width="2" d="M3.009,103.493L53.15,53.352l50.143,50.142H3.009"/>
</svg>
