<?xml version="1.0" encoding="utf-8"?>
<!-- Generator: Adobe Illustrator 14.0.0, SVG Export Plug-In . SVG Version: 6.00 Build 43363)  -->
<!DOCTYPE svg PUBLIC "-//W3C//DTD SVG 1.1//EN" "http://www.w3.org/Graphics/SVG/1.1/DTD/svg11.dtd">
<svg version="1.1" id="图层_1" xmlns="http://www.w3.org/2000/svg" xmlns:xlink="http://www.w3.org/1999/xlink" x="0px" y="0px"
	 width="97.762px" height="106.502px" viewBox="0 0 97.762 106.502" enable-background="new 0 0 97.762 106.502"
	 xml:space="preserve">
<path stroke="#000000" stroke-width="2" d="M14.024,5.895h76.218v29.268H14.024V5.895z"/>
<path fill="#7F7F7F" d="M52.031,31.91v49.592h-6.707V31.91H52.031z"/>
<path fill="#B2B2B2" d="M51.422,31.91v49.592h-5.488V31.91H51.422z"/>
<path fill="#E5E5E5" d="M50.608,31.91v49.592H46.95V31.91H50.608z"/>
<path fill="#FFFFFF" d="M49.388,31.91v49.592H48.17V31.91H49.388z"/>
<path fill="none" stroke="#000000" stroke-width="2" d="M45.324,31.91v49.592"/>
<path fill="none" stroke="#000000" stroke-width="2" d="M52.031,81.502V31.91"/>
<path fill="#7F7F7F" d="M2.845,103.656V57.113l92.07,46.544V57.113L2.845,103.656z"/>
<path fill="#999999" d="M2.845,101.217V59.552l92.07,41.665V59.552L2.845,101.217z"/>
<path fill="#B2B2B2" d="M2.845,96.339V64.227l92.07,32.112V64.227L2.845,96.339z"/>
<path fill="#CCCCCC" d="M2.845,91.665V68.902l92.07,22.764V68.902L2.845,91.665z"/>
<path fill="#E5E5E5" d="M2.845,88.006V72.56l92.07,15.446V72.56L2.845,88.006z"/>
<path fill="#FFFFFF" d="M2.845,83.331v-5.894l92.07,5.894v-5.894L2.845,83.331z"/>
<path fill="none" stroke="#000000" stroke-width="2" d="M2.845,103.656V57.113l92.07,46.544V57.113L2.845,103.656"/>
<path fill="#7F7F7F" stroke="#000000" stroke-width="2" d="M10.772,2.846h76.014v29.268H10.772V2.846z"/>
</svg>
