<?xml version="1.0" encoding="utf-8"?>
<!-- Generator: Adobe Illustrator 14.0.0, SVG Export Plug-In . SVG Version: 6.00 Build 43363)  -->
<!DOCTYPE svg PUBLIC "-//W3C//DTD SVG 1.1//EN" "http://www.w3.org/Graphics/SVG/1.1/DTD/svg11.dtd">
<svg version="1.1" id="图层_1" xmlns="http://www.w3.org/2000/svg" xmlns:xlink="http://www.w3.org/1999/xlink" x="0px" y="0px"
	 width="96.336px" height="106.502px" viewBox="0 0 96.336 106.502" enable-background="new 0 0 96.336 106.502"
	 xml:space="preserve">
<path stroke="#000000" stroke-width="2" d="M77.434,26.423L93.491,42.48L77.434,58.535L61.379,42.48L77.434,26.423z"/>
<path stroke="#000000" stroke-width="2" d="M18.089,5.49h27.844v27.844H18.089V5.49z"/>
<path fill="#7F7F7F" d="M25.811,90.241V30.489h7.113v59.753H25.811z"/>
<path fill="#B2B2B2" d="M26.625,90.241V30.489h5.487v59.753H26.625z"/>
<path fill="#E5E5E5" d="M27.437,90.241V30.489h3.861v59.753H27.437z"/>
<path fill="#FFFFFF" d="M28.657,90.241V30.489h1.423v59.753H28.657z"/>
<path fill="none" stroke="#000000" stroke-width="2" d="M32.925,90.241V30.489"/>
<path fill="none" stroke="#000000" stroke-width="2" d="M25.811,30.489v59.753"/>
<path fill="#7F7F7F" d="M64.224,43.698H39.022v-6.91h25.202V43.698z"/>
<path fill="#B2B2B2" d="M64.224,43.089H39.022v-5.69h25.202V43.089z"/>
<path fill="#E5E5E5" d="M64.224,42.277H39.022v-3.862h25.202V42.277z"/>
<path fill="#FFFFFF" d="M64.224,40.854H39.022v-1.22h25.202V40.854z"/>
<path fill="none" stroke="#000000" stroke-width="2" d="M64.224,36.788H39.022"/>
<path fill="none" stroke="#000000" stroke-width="2" d="M39.022,43.698h25.202"/>
<path fill="#7F7F7F" d="M39.835,36.788h-6.91V33.13h-7.113v14.228h7.113v-3.455h6.91V36.788z"/>
<path fill="#B2B2B2" d="M39.835,37.399h-7.723V33.13h-5.69v14.228h5.69v-4.269h7.723V37.399z"/>
<path fill="#E5E5E5" d="M39.835,38.414h-8.739V33.13h-3.658v14.228h3.658v-5.081h8.739V38.414z"/>
<path fill="#FFFFFF" d="M39.835,39.634h-9.958V33.13h-1.423v14.228h1.423v-6.301h9.958V39.634z"/>
<path fill="none" stroke="#000000" stroke-width="2" d="M39.835,36.788h-6.91V33.13"/>
<path fill="none" stroke="#000000" stroke-width="2" d="M39.835,43.903h-6.91v3.455"/>
<path fill="none" stroke="#000000" stroke-width="2" d="M25.811,47.358V33.13"/>
<path fill="#7F7F7F" stroke="#000000" stroke-width="2" d="M74.182,23.781l16.057,16.056L74.182,55.894L58.127,39.837L74.182,23.781
	z"/>
<path fill="#7F7F7F" stroke="#000000" stroke-width="2" d="M14.837,2.848H42.68v27.641H14.837V2.848z"/>
<path fill="none" stroke="#000000" stroke-width="2" d="M68.289,47.358v-15.04h12.601v7.52H70.727l10.162,7.521"/>
<path fill="none" stroke="#000000" stroke-width="2" d="M23.576,25.611h10.162v-8.739H23.576V7.929h10.162"/>
<path fill="#7F7F7F" d="M2.845,103.655l26.421-13.21L2.845,77.234V103.655z"/>
<path fill="#999999" d="M2.845,102.436l26.421-11.991L2.845,78.453V102.436z"/>
<path fill="#B2B2B2" d="M2.845,99.59l26.421-9.146L2.845,81.298V99.59z"/>
<path fill="#CCCCCC" d="M2.845,96.948l26.421-6.503L2.845,83.738V96.948z"/>
<path fill="#E5E5E5" d="M2.845,94.915l26.421-4.471L2.845,85.973V94.915z"/>
<path fill="#FFFFFF" d="M2.845,92.071l26.421-1.626L2.845,88.819V92.071z"/>
<path fill="none" stroke="#000000" stroke-width="2" d="M2.845,103.655l26.421-13.21L2.845,77.234V103.655"/>
<path fill="#7F7F7F" d="M55.688,103.655l-26.422-13.21l26.422-13.211V103.655z"/>
<path fill="#999999" d="M55.688,102.436L29.266,90.445l26.422-11.991V102.436z"/>
<path fill="#B2B2B2" d="M55.688,99.59l-26.422-9.146l26.422-9.146V99.59z"/>
<path fill="#CCCCCC" d="M55.688,96.948l-26.422-6.503l26.422-6.707V96.948z"/>
<path fill="#E5E5E5" d="M55.688,94.915l-26.422-4.471l26.422-4.472V94.915z"/>
<path fill="#FFFFFF" d="M55.688,92.071l-26.422-1.626l26.422-1.626V92.071z"/>
<path fill="none" stroke="#000000" stroke-width="2" d="M55.688,103.655l-26.422-13.21l26.422-13.211V103.655"/>
<path fill="#7F7F7F" d="M2.845,103.655l26.421-13.21l26.422,13.21H2.845z"/>
<path fill="#999999" d="M5.284,103.655l23.982-13.21l23.982,13.21H5.284z"/>
<path fill="#B2B2B2" d="M11.178,103.655l18.088-13.21l18.089,13.21H11.178z"/>
<path fill="#CCCCCC" d="M16.056,103.655l13.21-13.21l13.211,13.21H16.056z"/>
<path fill="#E5E5E5" d="M20.121,103.655l9.146-13.21l9.146,13.21H20.121z"/>
<path fill="#FFFFFF" d="M26.014,103.655l3.252-13.21l3.252,13.21H26.014z"/>
<path fill="none" stroke="#000000" stroke-width="2" d="M2.845,103.655l26.421-13.21l26.422,13.21H2.845"/>
</svg>
