<?xml version="1.0" encoding="utf-8"?>
<!-- Generator: Adobe Illustrator 14.0.0, SVG Export Plug-In . SVG Version: 6.00 Build 43363)  -->
<!DOCTYPE svg PUBLIC "-//W3C//DTD SVG 1.1//EN" "http://www.w3.org/Graphics/SVG/1.1/DTD/svg11.dtd">
<svg version="1.1" id="图层_1" xmlns="http://www.w3.org/2000/svg" xmlns:xlink="http://www.w3.org/1999/xlink" x="0px" y="0px"
	 width="90.23px" height="106.502px" viewBox="0 0 90.23 106.502" enable-background="new 0 0 90.23 106.502" xml:space="preserve">
<path stroke="#000000" stroke-width="2" d="M34.238,58.831h16.646v16.836H34.238V58.831z"/>
<path fill="#7F7F7F" d="M34.238,20.999v69.422h-6.242V20.999H34.238z"/>
<path fill="#B2B2B2" d="M33.671,20.999v69.422h-5.107V20.999H33.671z"/>
<path fill="#E5E5E5" d="M32.914,20.999v69.422H29.32V20.999H32.914z"/>
<path fill="#FFFFFF" d="M31.591,20.999v69.422h-1.136V20.999H31.591z"/>
<path fill="none" stroke="#000000" stroke-width="2" d="M27.996,20.999v69.422"/>
<path fill="none" stroke="#000000" stroke-width="2" d="M34.238,90.421V20.999"/>
<path fill="#7F7F7F" d="M81.907,20.999v29.509h-6.242V20.999H81.907z"/>
<path fill="#B2B2B2" d="M81.34,20.999v29.509h-5.107V20.999H81.34z"/>
<path fill="#E5E5E5" d="M80.583,20.999v29.509h-3.594V20.999H80.583z"/>
<path fill="#FFFFFF" d="M79.259,20.999v29.509h-1.135V20.999H79.259z"/>
<path fill="none" stroke="#000000" stroke-width="2" d="M75.665,20.999v29.509"/>
<path fill="none" stroke="#000000" stroke-width="2" d="M81.907,50.508V20.999"/>
<path fill="#7F7F7F" d="M40.481,55.994H69.99v6.432H40.481V55.994z"/>
<path fill="#B2B2B2" d="M40.481,56.562H69.99v5.107H40.481V56.562z"/>
<path fill="#E5E5E5" d="M40.481,57.507H69.99v3.405H40.481V57.507z"/>
<path fill="#FFFFFF" d="M40.481,58.643H69.99v1.135H40.481V58.643z"/>
<path fill="none" stroke="#000000" stroke-width="2" d="M40.481,62.426H69.99"/>
<path fill="none" stroke="#000000" stroke-width="2" d="M69.99,55.994H40.481"/>
<path fill="#7F7F7F" d="M40.481,15.513V9.271H27.996l6.242,6.242H40.481z"/>
<path fill="#7F7F7F" d="M34.238,21.756h-6.242V9.082l6.242,6.242V21.756z"/>
<path fill="#B2B2B2" d="M28.563,21.756h5.107v-6.811L28.563,9.65V21.756z"/>
<path fill="#B2B2B2" d="M40.481,9.838v5.107h-6.811l-5.107-5.107H40.481z"/>
<path fill="#E5E5E5" d="M29.32,21.756h3.405V14l-3.405-3.405V21.756z"/>
<path fill="#E5E5E5" d="M40.481,10.595V14h-7.567l-3.594-3.405H40.481z"/>
<path fill="#FFFFFF" d="M40.481,11.73v1.136h-8.702l-1.324-1.136H40.481z"/>
<path fill="#FFFFFF" d="M30.455,21.756h1.136v-8.891l-1.136-1.136V21.756z"/>
<path fill="none" stroke="#000000" stroke-width="2" d="M27.996,21.756V9.082"/>
<path fill="none" stroke="#000000" stroke-width="2" d="M34.238,15.324v6.432"/>
<path fill="none" stroke="#000000" stroke-width="2" d="M40.481,9.082H27.996"/>
<path fill="none" stroke="#000000" stroke-width="2" d="M34.238,15.513h6.243"/>
<path fill="#7F7F7F" d="M75.475,21.567h6.243V9.082l-6.243,6.242V21.567z"/>
<path fill="#7F7F7F" d="M69.233,15.324V9.082h12.674l-6.242,6.242H69.233z"/>
<path fill="#B2B2B2" d="M69.233,9.65v5.107h6.811L81.15,9.65H69.233z"/>
<path fill="#B2B2B2" d="M81.15,21.567h-5.106v-6.81L81.15,9.65V21.567z"/>
<path fill="#E5E5E5" d="M69.233,10.595V14h7.756l3.405-3.405H69.233z"/>
<path fill="#E5E5E5" d="M80.394,21.567h-3.405V14l3.405-3.405V21.567z"/>
<path fill="#FFFFFF" d="M79.259,21.567h-1.135v-8.701l1.135-1.136V21.567z"/>
<path fill="#FFFFFF" d="M69.233,11.73v1.136h8.891l1.135-1.136H69.233z"/>
<path fill="none" stroke="#000000" stroke-width="2" d="M69.233,9.082h12.674"/>
<path fill="none" stroke="#000000" stroke-width="2" d="M75.665,15.324h-6.432"/>
<path fill="none" stroke="#000000" stroke-width="2" d="M81.907,21.567V9.082"/>
<path fill="none" stroke="#000000" stroke-width="2" d="M75.475,15.324v6.242"/>
<path fill="#7F7F7F" d="M39.724,9.082H69.99v6.431H39.724V9.082z"/>
<path fill="#B2B2B2" d="M39.724,9.65H69.99v5.107H39.724V9.65z"/>
<path fill="#E5E5E5" d="M39.724,10.595H69.99V14H39.724V10.595z"/>
<path fill="#FFFFFF" d="M39.724,11.73H69.99v1.136H39.724V11.73z"/>
<path fill="none" stroke="#000000" stroke-width="2" d="M39.724,15.513H69.99"/>
<path fill="none" stroke="#000000" stroke-width="2" d="M69.99,9.082H39.724"/>
<path fill="#7F7F7F" d="M69.423,55.994v6.242h12.484l-6.242-6.242H69.423z"/>
<path fill="#7F7F7F" d="M75.665,49.752h6.242v12.484l-6.242-6.242V49.752z"/>
<path fill="#B2B2B2" d="M81.34,49.752h-5.107v6.81l5.107,5.107V49.752z"/>
<path fill="#B2B2B2" d="M69.423,61.669v-5.107h6.81l5.107,5.107H69.423z"/>
<path fill="#E5E5E5" d="M80.394,49.752h-3.405v7.566l3.405,3.594V49.752z"/>
<path fill="#E5E5E5" d="M69.423,60.723v-3.404h7.566l3.405,3.404H69.423z"/>
<path fill="#FFFFFF" d="M69.423,59.588v-1.135h8.701l1.135,1.135H69.423z"/>
<path fill="#FFFFFF" d="M79.259,49.752h-1.135v8.701l1.135,1.324V49.752z"/>
<path fill="none" stroke="#000000" stroke-width="2" d="M81.907,49.752v12.484"/>
<path fill="none" stroke="#000000" stroke-width="2" d="M75.665,55.994v-6.242"/>
<path fill="none" stroke="#000000" stroke-width="2" d="M69.233,62.237h12.674"/>
<path fill="none" stroke="#000000" stroke-width="2" d="M75.665,55.994h-6.432"/>
<path fill="#7F7F7F" d="M40.481,55.805h-6.243v-3.026h-6.432v12.484h6.432v-3.216h6.243V55.805z"/>
<path fill="#B2B2B2" d="M40.481,56.562h-6.999v-3.783h-4.919v12.484h4.919V61.48h6.999V56.562z"/>
<path fill="#E5E5E5" d="M40.481,57.319h-7.756v-4.54H29.32v12.484h3.405v-4.54h7.756V57.319z"/>
<path fill="#FFFFFF" d="M40.481,58.264h-8.891v-5.485h-1.136v12.484h1.136v-5.675h8.891V58.264z"/>
<path fill="none" stroke="#000000" stroke-width="2" d="M40.481,55.805h-6.243v-3.026"/>
<path fill="none" stroke="#000000" stroke-width="2" d="M40.481,62.047h-6.243v3.216"/>
<path fill="none" stroke="#000000" stroke-width="2" d="M27.806,65.263V52.779"/>
<path fill="#7F7F7F" d="M2.838,103.663V75.667l56.181,27.996V75.667L2.838,103.663z"/>
<path fill="#999999" d="M2.838,102.339V76.991l56.181,25.348V76.991L2.838,102.339z"/>
<path fill="#B2B2B2" d="M2.838,99.312V80.018l56.181,19.294V80.018L2.838,99.312z"/>
<path fill="#CCCCCC" d="M2.838,96.475v-13.62l56.181,13.62v-13.62L2.838,96.475z"/>
<path fill="#E5E5E5" d="M2.838,94.394v-9.458l56.181,9.458v-9.458L2.838,94.394z"/>
<path fill="#FFFFFF" d="M2.838,91.367v-3.594l56.181,3.594v-3.594L2.838,91.367z"/>
<path fill="none" stroke="#000000" stroke-width="2" d="M2.838,103.663V75.667l56.181,27.996V75.667L2.838,103.663"/>
<path d="M81.15,37.834l-1.892-4.54l-4.161,4.162l3.783,3.783l4.162-4.162l-1.893-4.539l1.893,4.539l4.351-4.539H81.15V37.834z"/>
<path d="M75.097,33.294l1.892,4.54h4.161v-5.296h-4.161l1.892,4.539L75.097,33.294l-4.351,4.54h6.242L75.097,33.294z"/>
<path d="M81.15,31.025l-1.892-1.892l-4.161,4.161l3.783,3.783l4.162-4.161L81.15,31.025z"/>
<path d="M57.506,9.082l-4.54-1.892l-4.162,4.161l3.783,3.783l4.162-4.161l-4.54-1.892H57.506V2.839l-4.54,4.352L57.506,9.082z"/>
<path d="M52.966,11.352l4.54,1.892V9.082h-5.297v4.161l4.54,1.892l-4.54-1.892v6.242l4.54-4.351L52.966,11.352z"/>
<path d="M59.208,9.082l-1.892-1.892l-4.351,4.161l3.783,3.783l4.351-4.161L59.208,9.082z"/>
<path fill="#7F7F7F" stroke="#000000" stroke-width="2" d="M31.022,56.183h16.646v16.646H31.022V56.183z"/>
<path fill="#7F7F7F" d="M30.834,43.888H7.945l0.378-4.729l1.514-4.54l2.08-3.972l2.838-3.405l3.405-3.026l3.783-2.081l4.351-1.324
	l4.54-0.567l4.54,0.567l4.351,1.324l3.972,2.081l3.405,3.026l2.648,3.405l2.27,3.972l1.324,4.54l0.379,4.729H30.834z"/>
<path fill="#999999" d="M30.834,43.888H10.215l0.379-4.729l1.323-4.54l1.893-3.972l2.459-3.405l3.026-3.026l3.594-2.081l3.783-1.324
	l4.162-0.567l4.161,0.567l3.973,1.324l3.594,2.081l3.026,3.026l2.46,3.405l1.892,3.972l1.324,4.54l0.378,4.729H30.834z"/>
<path fill="#B2B2B2" d="M30.834,43.888H14.377l0.378-4.729l0.946-4.54l1.513-3.972l2.081-3.405l2.27-3.026l2.838-2.081l3.026-1.324
	l3.405-0.567l3.404,0.567l3.027,1.324l2.837,2.081l2.459,3.026l1.892,3.405l1.514,3.972l0.945,4.54l0.379,4.729H30.834z"/>
<path fill="#CCCCCC" d="M30.834,43.888H18.727l0.188-4.729l0.757-4.54l1.135-3.972l1.514-3.405l1.702-3.026l2.081-2.081l2.271-1.324
	l2.459-0.567l2.459,0.567l2.27,1.324l2.081,2.081l1.892,3.026l1.514,3.405l1.135,3.972l0.757,4.54l0.188,4.729H30.834z"/>
<path fill="#E5E5E5" d="M30.834,43.888h-7.756l0.189-4.729l0.378-4.54l0.757-3.972l0.945-3.405l1.136-3.026l1.323-2.081l1.514-1.324
	l1.514-0.567l1.513,0.567l1.514,1.324l1.324,2.081l1.324,3.026l0.945,3.405l0.757,3.972l0.378,4.54l0.189,4.729H30.834z"/>
<path fill="none" stroke="#000000" stroke-width="2" d="M30.834,43.888H7.945l0.378-4.729l1.514-4.54l2.08-3.972l2.838-3.405
	l3.405-3.026l3.783-2.081l4.351-1.324l4.54-0.567l4.54,0.567l4.351,1.324l3.972,2.081l3.405,3.026l2.648,3.405l2.27,3.972
	l1.324,4.54l0.379,4.729H30.834"/>
<path fill="#FFFFFF" d="M30.834,43.888h-2.081v-4.729l0.189-4.54l0.188-3.972l0.189-3.405l0.378-3.026l0.379-2.081l0.378-1.324
	l0.379-0.567l0.567,0.567l0.378,1.324l0.379,2.081l0.378,3.026l0.189,3.405l0.188,3.972l0.189,4.54v4.729H30.834z"/>
</svg>
