<?xml version="1.0" encoding="utf-8"?>
<!-- Generator: Adobe Illustrator 14.0.0, SVG Export Plug-In . SVG Version: 6.00 Build 43363)  -->
<!DOCTYPE svg PUBLIC "-//W3C//DTD SVG 1.1//EN" "http://www.w3.org/Graphics/SVG/1.1/DTD/svg11.dtd">
<svg version="1.1" id="图层_1" xmlns="http://www.w3.org/2000/svg" xmlns:xlink="http://www.w3.org/1999/xlink" x="0px" y="0px"
	 width="106.503px" height="106.502px" viewBox="0 0 106.503 106.502" enable-background="new 0 0 106.503 106.502"
	 xml:space="preserve">
<path fill="#7F7F7F" d="M63.499,22.707v6.229H43.003v-6.229H63.499z"/>
<path fill="#B2B2B2" d="M63.499,23.31v5.023H43.003V23.31H63.499z"/>
<path fill="#E5E5E5" d="M63.499,24.114v3.416H43.003v-3.416H63.499z"/>
<path fill="#FFFFFF" d="M63.499,25.118v1.206H43.003v-1.206H63.499z"/>
<path fill="none" stroke="#000000" stroke-width="2" d="M63.499,28.937H43.003"/>
<path fill="none" stroke="#000000" stroke-width="2" d="M63.499,22.707H43.003"/>
<path fill="#7F7F7F" d="M66.514,31.348v6.229H39.989v-6.229H66.514z"/>
<path fill="#B2B2B2" d="M66.514,31.75v5.225H39.989V31.75H66.514z"/>
<path fill="#E5E5E5" d="M66.514,32.754v3.216H39.989v-3.216H66.514z"/>
<path fill="#FFFFFF" d="M66.514,33.759v1.206H39.989v-1.206H66.514z"/>
<path fill="none" stroke="#000000" stroke-width="2" d="M66.715,37.577H39.989"/>
<path fill="none" stroke="#000000" stroke-width="2" d="M66.715,31.348H39.989"/>
<path fill="#7F7F7F" d="M103.488,97.259v6.229H3.014v-6.229H103.488z"/>
<path fill="#B2B2B2" d="M103.488,97.862v5.023H3.014v-5.023H103.488z"/>
<path fill="#E5E5E5" d="M103.488,98.665v3.416H3.014v-3.416H103.488z"/>
<path fill="#FFFFFF" d="M103.488,99.67v1.206H3.014V99.67H103.488z"/>
<path fill="none" stroke="#000000" stroke-width="2" d="M103.488,103.489H3.014"/>
<path fill="none" stroke="#000000" stroke-width="2" d="M103.488,97.259H3.014"/>
<path fill="#7F7F7F" d="M56.466,90.828h-6.229V3.014h6.229V90.828z"/>
<path fill="#B2B2B2" d="M55.863,90.828h-5.225V3.014h5.225V90.828z"/>
<path fill="#E5E5E5" d="M54.858,90.828h-3.215V3.014h3.215V90.828z"/>
<path fill="#FFFFFF" d="M53.854,90.828h-1.206V3.014h1.206V90.828z"/>
<path fill="none" stroke="#000000" stroke-width="2" d="M50.237,91.03V3.014"/>
<path fill="none" stroke="#000000" stroke-width="2" d="M56.466,91.03V3.014"/>
<path fill="#7F7F7F" d="M59.48,97.259v6.229H47.022v-6.229h3.014V91.03h6.43v6.229H59.48z"/>
<path fill="#B2B2B2" d="M59.48,97.862v5.023h-8.842h-3.617v-5.023h3.617V91.03h5.225v6.832H59.48z"/>
<path fill="#E5E5E5" d="M59.48,98.665v3.416h-7.837h-4.622v-3.416h4.622V91.03h3.215v7.636H59.48z"/>
<path fill="#FFFFFF" d="M59.48,99.67v1.206h-6.832h-5.626V99.67h5.626V91.03h1.206v8.641H59.48z"/>
<path fill="none" stroke="#000000" stroke-width="2" d="M59.48,97.259h-3.015V91.03"/>
<path fill="none" stroke="#000000" stroke-width="2" d="M50.036,91.03v6.229h-3.014"/>
<path fill="none" stroke="#000000" stroke-width="2" d="M47.022,103.489h3.014h9.444"/>
<path fill="#7F7F7F" d="M56.466,40.591h-6.43v-3.014h-3.014v-6.229h3.014v-3.215h6.43v3.215h3.015v6.229h-3.015V40.591z"/>
<path fill="#B2B2B2" d="M55.863,40.591h-5.225v-3.616h-3.617V31.95h3.617v-3.817h5.225v3.817h3.617v5.024h-3.617V40.591z"/>
<path fill="#E5E5E5" d="M54.858,40.591h-3.215v-4.42h-4.622v-3.417h4.622v-4.621h3.215v4.621h4.622v3.216h-4.622V40.591z"/>
<path fill="#FFFFFF" d="M53.854,40.591h-1.206v-5.626h-5.626v-1.206h5.626v-5.626h1.206v5.626h5.626v1.206h-5.626V40.591z"/>
<path fill="none" stroke="#000000" stroke-width="2" d="M56.466,40.591v-3.014h3.015"/>
<path fill="none" stroke="#000000" stroke-width="2" d="M59.48,31.348h-3.015v-3.215"/>
<path fill="none" stroke="#000000" stroke-width="2" d="M50.036,28.133v3.215h-3.014"/>
<path fill="none" stroke="#000000" stroke-width="2" d="M47.022,37.577h3.014v3.014"/>
<path fill="#7F7F7F" d="M56.466,31.95h-6.43v-3.014h-3.014v-6.229h3.014v-3.215h6.43v3.215h3.015v6.229h-3.015V31.95z"/>
<path fill="#B2B2B2" d="M55.863,31.95h-5.225v-3.617h-3.617V23.31h3.617v-3.817h5.225v3.817h3.617v5.023h-3.617V31.95z"/>
<path fill="#E5E5E5" d="M54.858,31.95h-3.215V27.53h-4.622v-3.416h4.622v-4.621h3.215v4.621h4.622v3.216h-4.622V31.95z"/>
<path fill="#FFFFFF" d="M53.854,31.95h-1.206v-5.626h-5.626v-1.206h5.626v-5.626h1.206v5.626h5.626v1.206h-5.626V31.95z"/>
<path fill="none" stroke="#000000" stroke-width="2" d="M56.466,31.95v-3.014h3.015"/>
<path fill="none" stroke="#000000" stroke-width="2" d="M59.48,22.707h-3.015v-3.215"/>
<path fill="none" stroke="#000000" stroke-width="2" d="M50.036,19.492v3.215h-3.014"/>
<path fill="none" stroke="#000000" stroke-width="2" d="M47.022,28.937h3.014v3.014"/>
<path fill="#7F7F7F" d="M56.466,22.707h-6.43v-3.215h-3.014v-6.229h3.014v-3.216h6.43v3.216h3.015v6.229h-3.015V22.707z"/>
<path fill="#B2B2B2" d="M55.863,22.707h-5.225v-3.818h-3.617v-5.023h3.617v-3.818h5.225v3.818h3.617v5.023h-3.617V22.707z"/>
<path fill="#E5E5E5" d="M54.858,22.707h-3.215v-4.622h-4.622v-3.416h4.622v-4.622h3.215v4.622h4.622v3.416h-4.622V22.707z"/>
<path fill="#FFFFFF" d="M53.854,22.707h-1.206V16.88h-5.626v-1.005h5.626v-5.828h1.206v5.828h5.626v1.005h-5.626V22.707z"/>
<path fill="none" stroke="#000000" stroke-width="2" d="M56.466,22.707v-3.215h3.015"/>
<path fill="none" stroke="#000000" stroke-width="2" d="M59.48,13.263h-3.015v-3.216"/>
<path fill="none" stroke="#000000" stroke-width="2" d="M50.036,10.047v3.216h-3.014"/>
<path fill="none" stroke="#000000" stroke-width="2" d="M47.022,19.492h3.014v3.215"/>
<path fill="#7F7F7F" d="M21.903,84.599l31.348-31.348L21.903,21.904V84.599z"/>
<path fill="#999999" d="M21.903,81.785l31.348-28.534L21.903,24.717V81.785z"/>
<path fill="#B2B2B2" d="M21.903,74.953l31.348-21.702L21.903,31.549V74.953z"/>
<path fill="#CCCCCC" d="M21.903,68.925l31.348-15.674L21.903,37.577V68.925z"/>
<path fill="#E5E5E5" d="M21.903,64.103l31.348-10.852L21.903,42.4V64.103z"/>
<path fill="#FFFFFF" d="M21.903,57.07l31.348-3.818l-31.348-3.818V57.07z"/>
<path fill="none" stroke="#000000" stroke-width="2" d="M21.903,84.599l31.348-31.348L21.903,21.904V84.599"/>
<path fill="#7F7F7F" d="M21.903,84.599l31.348-31.348l31.348,31.348H21.903z"/>
<path fill="#999999" d="M24.717,84.599l28.534-31.348l28.535,31.348H24.717z"/>
<path fill="#B2B2B2" d="M31.549,84.599l21.702-31.348l21.703,31.348H31.549z"/>
<path fill="#CCCCCC" d="M37.577,84.599l15.674-31.348l15.674,31.348H37.577z"/>
<path fill="#E5E5E5" d="M42.4,84.599l10.851-31.348l10.852,31.348H42.4z"/>
<path fill="#FFFFFF" d="M49.433,84.599l3.818-31.348l3.818,31.348H49.433z"/>
<path fill="none" stroke="#000000" stroke-width="2" d="M21.903,84.599l31.348-31.348l31.348,31.348H21.903"/>
</svg>
