<?xml version="1.0" encoding="utf-8"?>
<!-- Generator: Adobe Illustrator 14.0.0, SVG Export Plug-In . SVG Version: 6.00 Build 43363)  -->
<!DOCTYPE svg PUBLIC "-//W3C//DTD SVG 1.1//EN" "http://www.w3.org/Graphics/SVG/1.1/DTD/svg11.dtd">
<svg version="1.1" id="图层_1" xmlns="http://www.w3.org/2000/svg" xmlns:xlink="http://www.w3.org/1999/xlink" x="0px" y="0px"
	 width="109.937px" height="106.502px" viewBox="0 0 109.937 106.502" enable-background="new 0 0 109.937 106.502"
	 xml:space="preserve">
<path fill="#7F7F7F" d="M61.152,8.475l3.207-5.497l42.601,24.507l-3.206,5.497L61.152,8.475z"/>
<path fill="#B2B2B2" d="M61.381,7.787l2.749-4.352l42.6,24.507l-2.748,4.581L61.381,7.787z"/>
<path fill="#E5E5E5" d="M61.839,7.101l1.832-2.978l42.602,24.735l-1.833,2.749L61.839,7.101z"/>
<path fill="#FFFFFF" d="M62.527,6.185l0.458-1.146l42.601,24.735l-0.459,0.917L62.527,6.185z"/>
<path fill="none" stroke="#000000" stroke-width="2" d="M64.359,2.978l42.601,24.507"/>
<path fill="none" stroke="#000000" stroke-width="2" d="M61.152,8.475l42.602,24.507"/>
<path fill="#7F7F7F" d="M9.391,102.379H2.978V61.611h6.413V102.379z"/>
<path fill="#B2B2B2" d="M8.703,102.379H3.665V61.611h5.039V102.379z"/>
<path fill="#E5E5E5" d="M7.787,102.379H4.581V61.611h3.207V102.379z"/>
<path fill="#FFFFFF" d="M6.871,102.379H5.497V61.611h1.374V102.379z"/>
<path fill="none" stroke="#000000" stroke-width="2" d="M2.978,102.379V61.611"/>
<path fill="none" stroke="#000000" stroke-width="2" d="M9.391,102.379V61.611"/>
<path fill="#7F7F7F" d="M15.345,54.969l-3.207,5.497l-2.748-1.604l3.207-5.497L15.345,54.969z"/>
<path fill="#B2B2B2" d="M14.887,55.427l-2.52,4.352L9.62,58.405l2.519-4.581L14.887,55.427z"/>
<path fill="#E5E5E5" d="M14.658,56.115l-1.832,2.978l-2.749-1.604l1.832-2.978L14.658,56.115z"/>
<path fill="#FFFFFF" d="M13.971,57.031l-0.458,1.145l-2.749-1.603l0.458-0.916L13.971,57.031z"/>
<path fill="none" stroke="#000000" stroke-width="2" d="M12.139,60.466l-2.748-1.604"/>
<path fill="none" stroke="#000000" stroke-width="2" d="M15.345,54.969l-2.748-1.604"/>
<path fill="#7F7F7F" d="M9.391,58.863H2.978v-0.916l0.229-0.688l0.229-0.916l0.458-0.687l0.687-0.917l0.917-0.916l1.145-0.687
	l1.145-0.458l1.145-0.229h1.375l1.145,0.458l1.146,0.458L9.391,58.863z"/>
<path fill="#B2B2B2" d="M9.391,58.863H3.665v-0.916l0.229-0.688l0.229-0.687l0.229-0.688l0.687-0.916l0.917-0.688l0.916-0.687
	l0.916-0.458h1.145h1.146l0.916,0.229l1.145,0.458L9.391,58.863z"/>
<path fill="#E5E5E5" d="M9.391,58.863h-4.81v-0.688l0.229-0.687l0.229-0.688l0.229-0.458l1.146-1.374l1.603-0.916h2.062l1.832,0.458
	L9.391,58.863z"/>
<path fill="#FFFFFF" d="M9.391,58.863H5.497v-0.458l0.229-0.458l0.229-0.458l0.229-0.458L7.1,55.885l1.374-0.687h1.375l1.374,0.458
	L9.391,58.863z"/>
<path fill="#E5E5E5" d="M9.391,58.863h-2.52v-0.458v-0.229v-0.458L7.1,57.489l0.687-0.688l0.916-0.458H9.62l1.145,0.229
	L9.391,58.863z"/>
<path fill="#B2B2B2" d="M9.391,58.863H7.787v-0.229l0.229-0.229v-0.229l0.458-0.458l0.458-0.458H9.62l0.458,0.229L9.391,58.863z"/>
<path fill="#7F7F7F" d="M9.391,58.863H8.703v-0.229h0.229v-0.229l0.229-0.229h0.229l0.229,0.229L9.391,58.863z"/>
<path fill="none" stroke="#000000" stroke-width="2" d="M2.978,58.863v-0.916l0.229-0.688l0.229-0.916l0.458-0.687l0.687-0.917
	l0.917-0.916l1.145-0.687l1.145-0.458l1.145-0.229h1.375l1.145,0.458l1.146,0.458"/>
<path fill="#7F7F7F" d="M2.978,58.863h6.413v3.206H2.978V58.863z"/>
<path fill="#B2B2B2" d="M3.665,58.863h5.039v3.206H3.665V58.863z"/>
<path fill="#E5E5E5" d="M4.581,58.863h3.207v3.206H4.581V58.863z"/>
<path fill="#FFFFFF" d="M5.497,58.863h1.374v3.206H5.497V58.863z"/>
<path fill="none" stroke="#000000" stroke-width="2" d="M9.391,58.863v3.206"/>
<path fill="none" stroke="#000000" stroke-width="2" d="M2.978,58.863v3.206"/>
<path fill="#7F7F7F" d="M89.324,52.449h6.184v41.913h-6.184V52.449z"/>
<path fill="#B2B2B2" d="M89.782,52.449h5.268v41.913h-5.268V52.449z"/>
<path fill="#E5E5E5" d="M90.698,52.449h3.436v41.913h-3.436V52.449z"/>
<path fill="#FFFFFF" d="M91.843,52.449h1.145v41.913h-1.145V52.449z"/>
<path fill="none" stroke="#000000" stroke-width="2" d="M95.507,52.449v41.913"/>
<path fill="none" stroke="#000000" stroke-width="2" d="M89.324,52.449v41.913"/>
<path fill="#7F7F7F" d="M83.369,101.005l3.207-5.497l2.748,1.604l-3.207,5.497L83.369,101.005z"/>
<path fill="#B2B2B2" d="M83.597,100.547l2.52-4.352l2.749,1.603l-2.52,4.353L83.597,100.547z"/>
<path fill="#E5E5E5" d="M84.056,99.86l1.604-2.978l2.748,1.604l-1.604,2.978L84.056,99.86z"/>
<path fill="#FFFFFF" d="M84.513,98.944l0.688-1.146l2.748,1.604l-0.687,1.146L84.513,98.944z"/>
<path fill="none" stroke="#000000" stroke-width="2" d="M86.576,95.508l2.748,1.604"/>
<path fill="none" stroke="#000000" stroke-width="2" d="M83.369,101.005l2.748,1.604"/>
<path fill="#7F7F7F" d="M89.324,97.112h6.184v0.916l-0.229,0.688l-0.229,0.916l-0.229,0.687l-0.687,0.916l-0.916,0.917l-1.146,0.687
	l-1.145,0.458l-1.146,0.229h-1.374l-1.146-0.458l-1.146-0.458L89.324,97.112z"/>
<path fill="#B2B2B2" d="M89.324,97.112h5.726v0.916l-0.229,0.688l-0.229,0.687l-0.458,0.688l-0.687,0.916l-0.688,0.687l-0.916,0.688
	l-1.146,0.458h-1.146h-0.916l-1.145-0.229l-1.146-0.458L89.324,97.112z"/>
<path fill="#E5E5E5" d="M89.324,97.112h4.81v0.687l-0.229,0.688l-0.229,0.688l-0.229,0.458l-1.375,1.374l-1.604,0.916l-1.832,0.229
	l-1.832-0.688L89.324,97.112z"/>
<path fill="#FFFFFF" d="M89.324,97.112h3.664v0.458l-0.229,0.458v0.688l-0.229,0.458l-1.146,0.916l-1.145,0.687l-1.604,0.229
	l-1.374-0.458L89.324,97.112z"/>
<path fill="#E5E5E5" d="M89.324,97.112h2.52v0.229l-0.229,0.458v0.229l-0.229,0.458l-0.687,0.688l-0.916,0.458h-0.916l-0.917-0.229
	L89.324,97.112z"/>
<path fill="#B2B2B2" d="M89.324,97.112h1.374v0.229v0.229v0.229l-0.229,0.229l-0.229,0.458l-0.458,0.229h-0.687l-0.688-0.229
	L89.324,97.112z"/>
<path fill="#7F7F7F" d="M89.324,97.112h0.458v0.229v0.229l-0.229,0.229h-0.229h-0.229h-0.229L89.324,97.112z"/>
<path fill="none" stroke="#000000" stroke-width="2" d="M95.507,97.112v0.916l-0.229,0.688l-0.229,0.916l-0.229,0.687l-0.687,0.916
	l-0.916,0.917l-1.146,0.687l-1.145,0.458l-1.146,0.229h-1.374l-1.146-0.458l-1.146-0.458"/>
<path fill="#7F7F7F" d="M95.507,97.112h-6.184v-2.978h6.184V97.112z"/>
<path fill="#B2B2B2" d="M95.049,97.112h-5.268v-2.978h5.268V97.112z"/>
<path fill="#E5E5E5" d="M94.133,97.112h-3.436v-2.978h3.436V97.112z"/>
<path fill="#FFFFFF" d="M92.988,97.112h-1.145v-2.978h1.145V97.112z"/>
<path fill="none" stroke="#000000" stroke-width="2" d="M89.324,97.112v-2.978"/>
<path fill="none" stroke="#000000" stroke-width="2" d="M95.507,97.112v-2.978"/>
<path fill="#7F7F7F" d="M86.804,95.966l-3.207,5.497L12.139,60.237l2.978-5.497L86.804,95.966z"/>
<path fill="#B2B2B2" d="M86.346,96.424l-2.52,4.581L12.368,59.779l2.52-4.58L86.346,96.424z"/>
<path fill="#E5E5E5" d="M85.888,97.34l-1.604,2.749L12.826,58.863l1.603-2.978L85.888,97.34z"/>
<path fill="#FFFFFF" d="M85.43,98.257l-0.687,0.916L13.284,57.947l0.687-0.916L85.43,98.257z"/>
<path fill="none" stroke="#000000" stroke-width="2" d="M83.597,101.463L12.139,60.237"/>
<path fill="none" stroke="#000000" stroke-width="2" d="M86.804,95.966L15.116,54.74"/>
<path fill="#7F7F7F" d="M56.343,78.56l-3.207,5.497l-10.994-6.413l3.207-5.497l2.748,1.604l3.207-5.497l5.497,3.206l-3.206,5.497
	L56.343,78.56z"/>
<path fill="#B2B2B2" d="M56.114,79.018l-2.52,4.58l-7.787-4.58l-3.207-1.832l2.52-4.581l3.206,2.062l3.436-6.185l4.582,2.749
	l-3.436,5.955L56.114,79.018z"/>
<path fill="#E5E5E5" d="M55.656,79.934l-1.604,2.748l-7.1-3.894l-4.123-2.29l1.832-2.978l4.123,2.29l3.894-6.871l2.748,1.833
	l-3.894,6.642L55.656,79.934z"/>
<path fill="#FFFFFF" d="M55.197,80.85l-0.687,0.916l-5.955-3.436l-5.039-2.978l0.458-0.916l5.039,2.749l4.581-7.559l0.916,0.458
	l-4.352,7.787L55.197,80.85z"/>
<path fill="none" stroke="#000000" stroke-width="2" d="M56.343,78.56l-2.749-1.604l3.206-5.497"/>
<path fill="none" stroke="#000000" stroke-width="2" d="M51.304,68.253l-3.207,5.497l-2.748-1.604"/>
<path fill="none" stroke="#000000" stroke-width="2" d="M42.143,77.644l2.748,1.603l8.246,4.811"/>
<path fill="#7F7F7F" d="M56.572,71.689l-5.497-2.978l25.423-44.204l5.497,3.207L56.572,71.689z"/>
<path fill="#B2B2B2" d="M56.114,71.459l-4.581-2.52l25.423-43.975l4.581,2.52L56.114,71.459z"/>
<path fill="#E5E5E5" d="M55.197,71.001l-2.748-1.604l25.423-43.975l2.748,1.604L55.197,71.001z"/>
<path fill="#FFFFFF" d="M54.281,70.543l-0.916-0.687l25.423-43.976l0.916,0.688L54.281,70.543z"/>
<path fill="none" stroke="#000000" stroke-width="2" d="M51.075,68.711l25.423-44.204"/>
<path fill="none" stroke="#000000" stroke-width="2" d="M56.572,71.689l25.423-43.975"/>
<path fill="#7F7F7F" d="M76.956,17.407l3.206-5.497l10.994,6.413l-3.207,5.497l-2.748-1.604l-3.206,5.497l-5.497-3.207l3.207-5.497
	L76.956,17.407z"/>
<path fill="#B2B2B2" d="M77.185,16.949l2.748-4.352l7.559,4.352l3.436,1.832l-2.748,4.581l-3.207-1.833l-3.436,5.955l-4.581-2.52
	l3.665-6.184L77.185,16.949z"/>
<path fill="#E5E5E5" d="M77.643,16.262l1.832-2.978l6.871,4.123l4.122,2.29l-1.832,2.978l-3.893-2.52l-3.895,6.871l-2.977-1.604
	l3.893-6.871L77.643,16.262z"/>
<path fill="#FFFFFF" d="M78.33,15.346l0.459-1.146l6.184,3.436l4.81,2.978l-0.458,0.916l-5.039-2.748l-4.58,7.787l-0.916-0.688
	l4.352-7.787L78.33,15.346z"/>
<path fill="none" stroke="#000000" stroke-width="2" d="M76.956,17.407l2.749,1.603l-3.207,5.497"/>
<path fill="none" stroke="#000000" stroke-width="2" d="M81.995,27.714l3.206-5.497l2.748,1.604"/>
<path fill="none" stroke="#000000" stroke-width="2" d="M91.156,18.323l-2.748-1.604l-8.246-4.81"/>
</svg>
