<?xml version="1.0" encoding="utf-8"?>
<!-- Generator: Adobe Illustrator 14.0.0, SVG Export Plug-In . SVG Version: 6.00 Build 43363)  -->
<!DOCTYPE svg PUBLIC "-//W3C//DTD SVG 1.1//EN" "http://www.w3.org/Graphics/SVG/1.1/DTD/svg11.dtd">
<svg version="1.1" id="图层_1" xmlns="http://www.w3.org/2000/svg" xmlns:xlink="http://www.w3.org/1999/xlink" x="0px" y="0px"
	 width="144.749px" height="72.965px" viewBox="0 0 144.749 72.965" enable-background="new 0 0 144.749 72.965"
	 xml:space="preserve">
<path fill="#7F7F7F" d="M18.534,26.185v42.66H3.824v-42.66H18.534z"/>
<path fill="#B2B2B2" d="M17.064,26.185v42.66H5.296v-42.66H17.064z"/>
<path fill="#E5E5E5" d="M15.299,26.185v42.66H7.355v-42.66H15.299z"/>
<path fill="#FFFFFF" d="M12.651,26.185v42.66h-2.647v-42.66H12.651z"/>
<path fill="none" stroke="#000000" stroke-width="2" d="M3.824,26.185v42.66"/>
<path fill="none" stroke="#000000" stroke-width="2" d="M18.534,68.845v-42.66"/>
<path fill="#7F7F7F" d="M25.89,22.36l-7.355-4.119L25.89,5.591l7.062,4.413L25.89,22.36z"/>
<path fill="#B2B2B2" d="M26.479,21.184l-7.355-4.119l5.884-10.297l7.355,4.413L26.479,21.184z"/>
<path fill="#E5E5E5" d="M27.361,19.713l-7.354-4.119l4.119-7.061l7.354,4.119L27.361,19.713z"/>
<path fill="#FFFFFF" d="M28.832,17.359l-7.355-4.119l1.177-2.354l7.355,4.119L28.832,17.359z"/>
<path fill="none" stroke="#000000" stroke-width="2" d="M32.951,10.004L25.89,5.591"/>
<path fill="none" stroke="#000000" stroke-width="2" d="M18.534,18.242l7.355,4.119"/>
<path fill="#7F7F7F" d="M18.534,18.242H4.118v-1.765l0.589-1.765l0.589-1.766l0.882-1.765l1.766-2.354l2.06-2.06l2.354-1.471
	l2.647-0.883l2.648-0.588l2.941,0.294l2.648,0.588l2.647,1.177L18.534,18.242z"/>
<path fill="#B2B2B2" d="M18.534,18.242H5.59l0.294-1.471l0.294-1.765l0.589-1.765l0.588-1.471L8.826,9.71l1.765-1.766l2.354-1.177
	l2.354-0.882l2.354-0.588h2.354l2.647,0.588l2.354,1.177L18.534,18.242z"/>
<path fill="#E5E5E5" d="M18.534,18.242H7.355v-1.471L7.65,15.3l0.588-1.177l0.589-1.471l1.471-1.765l1.471-1.471l2.06-1.177
	l2.06-0.883l2.06-0.294h2.06L22.36,7.65l2.06,0.882L18.534,18.242z"/>
<path fill="#FFFFFF" d="M18.534,18.242h-8.531v-1.177l0.294-0.883l0.294-1.177l0.589-0.882l0.883-1.471l1.471-1.177l1.177-0.883
	l1.766-0.588l1.471-0.294h1.766l1.765,0.588l1.471,0.588L18.534,18.242z"/>
<path fill="#E5E5E5" d="M18.534,18.242h-5.884v-0.588l0.294-0.883l0.295-0.882l0.294-0.588l1.471-1.766l2.06-0.882h2.354l2.06,0.588
	L18.534,18.242z"/>
<path fill="#B2B2B2" d="M18.534,18.242h-2.941v-0.294v-0.294v-0.588l0.294-0.294l0.883-0.882l1.177-0.588h1.177l1.177,0.294
	L18.534,18.242z"/>
<path fill="#7F7F7F" d="M18.534,18.242h-1.177v-0.294v-0.294l0.589-0.294l0.588-0.294h0.295h0.588L18.534,18.242z"/>
<path fill="none" stroke="#000000" stroke-width="2" d="M4.118,18.242v-1.765l0.589-1.765l0.589-1.766l0.882-1.765l1.766-2.354
	l2.06-2.06l2.354-1.471l2.647-0.883l2.648-0.588l2.941,0.294l2.648,0.588l2.647,1.177"/>
<path fill="#7F7F7F" d="M4.118,26.479v-8.238h14.416v8.238H4.118z"/>
<path fill="#B2B2B2" d="M5.59,26.479v-8.238h11.474v8.238H5.59z"/>
<path fill="#E5E5E5" d="M7.355,26.479v-8.238h7.944v8.238H7.355z"/>
<path fill="#FFFFFF" d="M10.003,26.479v-8.238h2.647v8.238H10.003z"/>
<path fill="none" stroke="#000000" stroke-width="2" d="M18.534,26.479v-8.238"/>
<path fill="none" stroke="#000000" stroke-width="2" d="M4.118,18.242v8.238"/>
<path fill="#7F7F7F" d="M126.214,46.779V3.826h14.71v42.954H126.214z"/>
<path fill="#B2B2B2" d="M127.685,46.779V3.826h11.769v42.954H127.685z"/>
<path fill="#E5E5E5" d="M129.45,46.779V3.826h7.943v42.954H129.45z"/>
<path fill="#FFFFFF" d="M132.098,46.779V3.826h2.647v42.954H132.098z"/>
<path fill="none" stroke="#000000" stroke-width="2" d="M140.924,46.779V3.826"/>
<path fill="none" stroke="#000000" stroke-width="2" d="M126.214,3.826v42.954"/>
<path fill="#7F7F7F" d="M118.859,50.311l7.355,4.412l-7.355,12.357l-7.061-4.119L118.859,50.311z"/>
<path fill="#B2B2B2" d="M118.271,51.781l7.354,4.119l-5.884,10.002l-7.355-4.118L118.271,51.781z"/>
<path fill="#E5E5E5" d="M117.388,53.252l7.354,4.119l-4.118,7.061l-7.355-4.119L117.388,53.252z"/>
<path fill="#FFFFFF" d="M115.916,55.605l7.355,4.119l-1.177,2.354l-7.355-4.119L115.916,55.605z"/>
<path fill="none" stroke="#000000" stroke-width="2" d="M111.798,62.961l7.061,4.119"/>
<path fill="none" stroke="#000000" stroke-width="2" d="M126.214,54.723l-7.355-4.412"/>
<path fill="#7F7F7F" d="M126.214,54.429h14.416v2.06l-0.589,1.766l-0.588,1.765l-0.883,1.766l-1.766,2.354l-2.06,1.765l-2.354,1.472
	l-2.647,1.177l-2.647,0.588l-2.942-0.294l-2.647-0.589l-2.648-1.176L126.214,54.429z"/>
<path fill="#B2B2B2" d="M126.214,54.429h12.944l-0.294,1.766l-0.294,1.765l-0.589,1.471l-0.588,1.472l-1.471,2.06l-1.766,1.766
	l-2.354,1.471l-2.354,0.883l-2.354,0.294h-2.354l-2.647-0.589l-2.354-1.177L126.214,54.429z"/>
<path fill="#E5E5E5" d="M126.214,54.429h11.18V55.9l-0.294,1.471l-0.589,1.471l-0.588,1.471l-1.472,1.766l-1.471,1.471l-2.06,1.178
	l-1.766,0.588l-2.354,0.588h-2.06l-2.354-0.588l-2.06-0.883L126.214,54.429z"/>
<path fill="#FFFFFF" d="M126.214,54.429h8.531v1.177l-0.294,1.178l-0.294,1.176l-0.589,0.883l-0.882,1.471l-1.472,1.178
	l-1.177,0.883l-1.765,0.588l-1.472,0.294h-1.765l-1.766-0.589l-1.471-0.588L126.214,54.429z"/>
<path fill="#E5E5E5" d="M126.214,54.429h5.884v0.883l-0.294,0.589l-0.294,0.883l-0.295,0.588l-1.471,1.766l-2.06,1.176h-2.354
	l-2.06-0.588L126.214,54.429z"/>
<path fill="#B2B2B2" d="M126.214,54.429h2.941v0.294v0.589v0.294l-0.294,0.589l-0.883,0.882l-1.177,0.589h-1.177l-1.177-0.294
	L126.214,54.429z"/>
<path fill="#7F7F7F" d="M126.214,54.429h1.177v0.294v0.295v0.294l-0.589,0.294l-0.294,0.295h-0.588l-0.589-0.295L126.214,54.429z"/>
<path fill="none" stroke="#000000" stroke-width="2" d="M140.63,54.429v2.06l-0.589,1.766l-0.588,1.765l-0.883,1.766l-1.766,2.354
	l-2.06,1.765l-2.354,1.472l-2.647,1.177l-2.647,0.588l-2.942-0.294l-2.647-0.589l-2.648-1.176"/>
<path fill="#7F7F7F" d="M140.63,46.485v7.943h-14.416v-7.943H140.63z"/>
<path fill="#B2B2B2" d="M139.158,46.485v7.943h-11.474v-7.943H139.158z"/>
<path fill="#E5E5E5" d="M137.394,46.485v7.943h-7.943v-7.943H137.394z"/>
<path fill="#FFFFFF" d="M134.745,46.485v7.943h-2.647v-7.943H134.745z"/>
<path fill="none" stroke="#000000" stroke-width="2" d="M126.214,46.485v7.943"/>
<path fill="none" stroke="#000000" stroke-width="2" d="M140.63,54.429v-7.943"/>
<path fill="#7F7F7F" d="M113.858,64.727l-89.438-42.66l6.178-13.239l89.438,42.954L113.858,64.727z"/>
<path fill="#B2B2B2" d="M114.446,63.549L25.007,20.595l5.002-10.591l89.438,42.954L114.446,63.549z"/>
<path fill="#E5E5E5" d="M115.328,61.784L25.89,19.124l3.53-7.355l89.145,42.954L115.328,61.784z"/>
<path fill="#FFFFFF" d="M116.211,59.43L27.067,16.477l1.177-2.354l89.145,42.953L116.211,59.43z"/>
<path fill="none" stroke="#000000" stroke-width="2" d="M120.035,51.781L30.597,8.827"/>
<path fill="none" stroke="#000000" stroke-width="2" d="M24.419,22.066l89.438,42.66"/>
</svg>
