<?xml version="1.0" encoding="utf-8"?>
<!-- Generator: Adobe Illustrator 14.0.0, SVG Export Plug-In . SVG Version: 6.00 Build 43363)  -->
<!DOCTYPE svg PUBLIC "-//W3C//DTD SVG 1.1//EN" "http://www.w3.org/Graphics/SVG/1.1/DTD/svg11.dtd">
<svg version="1.1" id="图层_1" xmlns="http://www.w3.org/2000/svg" xmlns:xlink="http://www.w3.org/1999/xlink" x="0px" y="0px"
	 width="82.987px" height="106.502px" viewBox="0 0 82.987 106.502" enable-background="new 0 0 82.987 106.502"
	 xml:space="preserve">
<path fill="#7F7F7F" d="M52.445,88.616V16.077h-7.032v72.539H52.445z"/>
<path fill="#B2B2B2" d="M51.641,88.616V16.077h-5.626v72.539H51.641z"/>
<path fill="#E5E5E5" d="M50.837,88.616V16.077H47.02v72.539H50.837z"/>
<path fill="#FFFFFF" d="M49.431,88.616V16.077h-1.206v72.539H49.431z"/>
<path fill="none" stroke="#000000" stroke-width="2" d="M45.412,88.616V16.077"/>
<path fill="none" stroke="#000000" stroke-width="2" d="M52.445,16.077v72.539"/>
<path fill="#7F7F7F" d="M38.58,10.05V3.017h13.864l-7.032,7.033H38.58z"/>
<path fill="#7F7F7F" d="M45.412,16.881h7.032V3.017l-7.032,7.033V16.881z"/>
<path fill="#B2B2B2" d="M51.842,16.881h-5.827V9.447l5.827-5.827V16.881z"/>
<path fill="#B2B2B2" d="M38.58,3.619v5.827h7.435l5.827-5.827H38.58z"/>
<path fill="#E5E5E5" d="M50.837,16.881H47.02V8.443l3.817-3.818V16.881z"/>
<path fill="#E5E5E5" d="M38.58,4.624v3.818h8.439l3.817-3.818H38.58z"/>
<path fill="#FFFFFF" d="M38.58,5.83v1.406h9.645l1.406-1.406H38.58z"/>
<path fill="#FFFFFF" d="M49.631,16.881h-1.406V7.237l1.406-1.406V16.881z"/>
<path fill="none" stroke="#000000" stroke-width="2" d="M52.445,16.881V3.017"/>
<path fill="none" stroke="#000000" stroke-width="2" d="M45.412,10.05v6.831"/>
<path fill="none" stroke="#000000" stroke-width="2" d="M38.379,3.017h14.065"/>
<path fill="none" stroke="#000000" stroke-width="2" d="M45.412,10.05h-7.033"/>
<path fill="#7F7F7F" d="M10.047,17.082H3.014V3.017l7.033,7.033V17.082z"/>
<path fill="#7F7F7F" d="M17.079,10.05V3.017H3.014l7.033,7.033H17.079z"/>
<path fill="#B2B2B2" d="M17.079,3.619v5.827H9.444L3.616,3.619H17.079z"/>
<path fill="#B2B2B2" d="M3.616,17.082h5.827V9.447L3.616,3.619V17.082z"/>
<path fill="#E5E5E5" d="M17.079,4.624v3.818H8.44L4.621,4.624H17.079z"/>
<path fill="#E5E5E5" d="M4.621,17.082H8.44v-8.64L4.621,4.624V17.082z"/>
<path fill="#FFFFFF" d="M6.029,17.082h1.205V7.237L6.029,6.031V17.082z"/>
<path fill="#FFFFFF" d="M17.079,5.83v1.406H7.234L5.827,5.83H17.079z"/>
<path fill="none" stroke="#000000" stroke-width="2" d="M17.079,3.017H3.014"/>
<path fill="none" stroke="#000000" stroke-width="2" d="M10.047,10.05h7.032"/>
<path fill="none" stroke="#000000" stroke-width="2" d="M3.014,17.082V3.017"/>
<path fill="none" stroke="#000000" stroke-width="2" d="M10.047,10.05v7.032"/>
<path fill="#7F7F7F" d="M10.047,88.616V17.082H3.014v71.534H10.047z"/>
<path fill="#B2B2B2" d="M9.444,88.616V17.082H3.818v71.534H9.444z"/>
<path fill="#E5E5E5" d="M8.44,88.616V17.082H4.621v71.534H8.44z"/>
<path fill="#FFFFFF" d="M7.234,88.616V17.082H5.827v71.534H7.234z"/>
<path fill="none" stroke="#000000" stroke-width="2" d="M3.014,88.616V17.082"/>
<path fill="none" stroke="#000000" stroke-width="2" d="M10.047,17.082v71.534"/>
<path fill="#7F7F7F" d="M16.276,10.05h22.907V3.017H16.276V10.05z"/>
<path fill="#B2B2B2" d="M16.276,9.246h22.907V3.619H16.276V9.246z"/>
<path fill="#E5E5E5" d="M16.276,8.443h22.907V4.624H16.276V8.443z"/>
<path fill="#FFFFFF" d="M16.276,7.237h22.907V5.83H16.276V7.237z"/>
<path fill="none" stroke="#000000" stroke-width="2" d="M16.276,3.017h22.907"/>
<path fill="none" stroke="#000000" stroke-width="2" d="M39.183,10.05H16.276"/>
<path fill="#7F7F7F" d="M48.627,37.578h25.117l-0.604-5.023l-1.406-4.823l-2.411-4.219l-3.014-3.617l-3.818-3.215l-4.22-2.211
	l-4.621-1.406l-5.023-0.603l-5.023,0.603l-4.823,1.406l-4.22,2.211l-3.616,3.215l-3.215,3.617l-2.211,4.219l-1.406,4.823
	l-0.603,5.023H48.627z"/>
<path fill="#999999" d="M48.627,37.578h22.706l-0.402-5.023l-1.406-4.823l-2.01-4.219l-2.813-3.617l-3.415-3.215l-3.818-2.211
	l-4.22-1.406l-4.621-0.603l-4.622,0.603l-4.22,1.406l-4.019,2.211l-3.416,3.215l-2.813,3.617l-2.009,4.219l-1.406,4.823
	l-0.402,5.023H48.627z"/>
<path fill="#B2B2B2" d="M48.627,37.578H66.51l-0.401-5.023l-1.005-4.823l-1.607-4.219l-2.21-3.617l-2.612-3.215l-3.015-2.211
	l-3.416-1.406l-3.616-0.603l-3.617,0.603l-3.416,1.406l-3.014,2.211l-2.813,3.215l-2.21,3.617l-1.607,4.219l-1.005,4.823
	l-0.402,5.023H48.627z"/>
<path fill="#CCCCCC" d="M48.627,37.578h13.262l-0.201-5.023l-0.804-4.823l-1.206-4.219l-1.607-3.617l-2.009-3.215l-2.211-2.211
	l-2.611-1.406l-2.612-0.603l-2.813,0.603l-2.411,1.406l-2.21,2.211l-2.01,3.215l-1.809,3.617l-1.205,4.219l-0.804,4.823
	l-0.201,5.023H48.627z"/>
<path fill="#E5E5E5" d="M48.627,37.578h8.64l-0.2-5.023l-0.402-4.823l-1.005-4.219l-1.005-3.617l-1.205-3.215l-1.607-2.211
	l-1.607-1.406l-1.607-0.603l-1.809,0.603l-1.607,1.406l-1.407,2.211l-1.205,3.215l-1.206,3.617l-0.804,4.219l-0.401,4.823
	l-0.201,5.023H48.627z"/>
<path fill="none" stroke="#000000" stroke-width="2" d="M48.627,37.578h25.117l-0.604-5.023l-1.406-4.823l-2.411-4.219l-3.014-3.617
	l-3.818-3.215l-4.22-2.211l-4.621-1.406l-5.023-0.603l-5.023,0.603l-4.823,1.406l-4.22,2.211l-3.616,3.215l-3.215,3.617
	l-2.211,4.219l-1.406,4.823l-0.603,5.023H48.627"/>
<path fill="#FFFFFF" d="M48.627,37.578h2.21v-5.023l-0.201-4.823l-0.2-4.219l-0.201-3.617l-0.402-3.215l-0.401-2.211l-0.402-1.406
	l-0.401-0.603l-0.604,0.603l-0.401,1.406l-0.402,2.211l-0.401,3.215l-0.201,3.617l-0.201,4.219l-0.2,4.823v5.023H48.627z"/>
<path fill="#7F7F7F" d="M79.973,103.486V72.943l-62.09,30.543V72.943L79.973,103.486z"/>
<path fill="#999999" d="M79.973,101.878V74.35l-62.09,27.528V74.35L79.973,101.878z"/>
<path fill="#B2B2B2" d="M79.973,98.865v-21.3l-62.09,21.3v-21.3L79.973,98.865z"/>
<path fill="#CCCCCC" d="M79.973,95.649V80.78l-62.09,14.869V80.78L79.973,95.649z"/>
<path fill="#E5E5E5" d="M79.973,93.238V82.99l-62.09,10.248V82.99L79.973,93.238z"/>
<path fill="#FFFFFF" d="M79.973,90.224v-4.019l-62.09,4.019v-4.019L79.973,90.224z"/>
<path fill="none" stroke="#000000" stroke-width="2" d="M79.973,103.486V72.943l-62.09,30.543V72.943L79.973,103.486"/>
</svg>
