<?xml version="1.0" encoding="utf-8"?>
<!-- Generator: Adobe Illustrator 14.0.0, SVG Export Plug-In . SVG Version: 6.00 Build 43363)  -->
<!DOCTYPE svg PUBLIC "-//W3C//DTD SVG 1.1//EN" "http://www.w3.org/Graphics/SVG/1.1/DTD/svg11.dtd">
<svg version="1.1" id="图层_1" xmlns="http://www.w3.org/2000/svg" xmlns:xlink="http://www.w3.org/1999/xlink" x="0px" y="0px"
	 width="73.591px" height="106.502px" viewBox="0 0 73.591 106.502" enable-background="new 0 0 73.591 106.502"
	 xml:space="preserve">
<path fill="#7F7F7F" d="M40.68,29.641v57.646h-6.747V29.641H40.68z"/>
<path fill="#B2B2B2" d="M40.067,29.641v57.646h-5.52V29.641H40.067z"/>
<path fill="#E5E5E5" d="M39.249,29.641v57.646h-3.68V29.641H39.249z"/>
<path fill="#FFFFFF" d="M38.022,29.641v57.646h-1.227V29.641H38.022z"/>
<path fill="none" stroke="#000000" stroke-width="2" d="M33.934,29.641v57.646"/>
<path fill="none" stroke="#000000" stroke-width="2" d="M40.68,87.287V29.641"/>
<path fill="#7F7F7F" d="M36.795,30.458H9.199l0.613-5.52l1.635-5.11l2.453-4.701l3.271-4.089l4.088-3.475l4.702-2.453l5.315-1.636
	l5.519-0.613l5.52,0.613l5.11,1.636l4.702,2.453l4.088,3.475l3.475,4.089l2.453,4.701l1.636,5.11l0.613,5.52H36.795z"/>
<path fill="#999999" d="M36.795,30.458H11.652l0.409-5.52l1.635-5.11l2.249-4.701l3.066-4.089l3.68-3.475l4.292-2.453l4.702-1.636
	l5.11-0.613l4.906,0.613l4.701,1.636l4.293,2.453l3.68,3.475l3.066,4.089l2.248,4.701l1.636,5.11l0.409,5.52H36.795z"/>
<path fill="#B2B2B2" d="M36.795,30.458H16.967l0.409-5.52l1.226-5.11l1.636-4.701l2.453-4.089l3.066-3.475l3.271-2.453l3.679-1.636
	l4.088-0.613l3.885,0.613l3.883,1.636l3.271,2.453l2.861,3.475l2.453,4.089l1.84,4.701l1.227,5.11l0.408,5.52H36.795z"/>
<path fill="#CCCCCC" d="M36.795,30.458H22.078l0.204-5.52l1.022-5.11l1.227-4.701l1.84-4.089l2.249-3.475l2.453-2.453l2.658-1.636
	l3.066-0.613l2.861,0.613l2.863,1.636l2.452,2.453l2.044,3.475l1.84,4.089l1.227,4.701l1.022,5.11l0.204,5.52H36.795z"/>
<path fill="#E5E5E5" d="M36.795,30.458h-9.607l0.204-5.52l0.613-5.11l0.818-4.701l1.227-4.089l1.431-3.475l1.636-2.453l1.84-1.636
	l1.839-0.613l1.84,0.613l1.84,1.636l1.635,2.453l1.227,3.475l1.227,4.089l0.818,4.701l0.613,5.11l0.204,5.52H36.795z"/>
<path fill="none" stroke="#000000" stroke-width="2" d="M36.795,30.458H9.199l0.613-5.52l1.635-5.11l2.453-4.701l3.271-4.089
	l4.088-3.475l4.702-2.453l5.315-1.636l5.519-0.613l5.52,0.613l5.11,1.636l4.702,2.453l4.088,3.475l3.475,4.089l2.453,4.701
	l1.636,5.11l0.613,5.52H36.795"/>
<path fill="#FFFFFF" d="M36.795,30.458h-2.657v-5.52l0.205-5.11l0.204-4.701l0.409-4.089l0.409-3.475l0.409-2.453l0.409-1.636
	l0.613-0.613l0.613,0.613l0.409,1.636l0.409,2.453l0.408,3.475l0.205,4.089l0.204,4.701l0.204,5.11v5.52H36.795z"/>
<path fill="#7F7F7F" d="M2.862,103.641V69.707l67.867,33.934V69.707L2.862,103.641z"/>
<path fill="#999999" d="M2.862,102.005V71.547l67.867,30.458V71.547L2.862,102.005z"/>
<path fill="#B2B2B2" d="M2.862,98.531V75.022l67.867,23.509V75.022L2.862,98.531z"/>
<path fill="#CCCCCC" d="M2.862,95.055V78.497l67.867,16.558V78.497L2.862,95.055z"/>
<path fill="#E5E5E5" d="M2.862,92.398V81.155l67.867,11.243V81.155L2.862,92.398z"/>
<path fill="#FFFFFF" d="M2.862,88.922v-4.293l67.867,4.293v-4.293L2.862,88.922z"/>
<path fill="none" stroke="#000000" stroke-width="2" d="M2.862,103.641V69.707l67.867,33.934V69.707L2.862,103.641"/>
</svg>
