<?xml version="1.0" encoding="utf-8"?>
<!-- Generator: Adobe Illustrator 14.0.0, SVG Export Plug-In . SVG Version: 6.00 Build 43363)  -->
<!DOCTYPE svg PUBLIC "-//W3C//DTD SVG 1.1//EN" "http://www.w3.org/Graphics/SVG/1.1/DTD/svg11.dtd">
<svg version="1.1" id="图层_1" xmlns="http://www.w3.org/2000/svg" xmlns:xlink="http://www.w3.org/1999/xlink" x="0px" y="0px"
	 width="96.191px" height="106.502px" viewBox="0 0 96.191 106.502" enable-background="new 0 0 96.191 106.502"
	 xml:space="preserve">
<path fill="#7F7F7F" d="M51.127,29.708v51.733h-6.668V29.708H51.127z"/>
<path fill="#B2B2B2" d="M50.521,29.708v51.733h-5.457V29.708H50.521z"/>
<path fill="#E5E5E5" d="M49.511,29.708v51.733h-3.638V29.708H49.511z"/>
<path fill="#FFFFFF" d="M48.298,29.708v51.733h-1.212V29.708H48.298z"/>
<path fill="none" stroke="#000000" stroke-width="2" d="M44.458,29.708v51.733"/>
<path fill="none" stroke="#000000" stroke-width="2" d="M51.127,81.442V29.708"/>
<path fill="#7F7F7F" d="M47.692,39.004H10.71l0.202-3.638l0.606-3.637l0.809-3.436l1.212-3.436l1.617-3.031l1.819-3.031l2.223-2.829
	l2.425-2.627l2.627-2.224l2.829-2.021l3.031-1.818l3.233-1.617l3.436-1.213l3.436-0.808l3.637-0.606l3.84-0.202l3.839,0.202
	l3.638,0.606l3.436,0.808L62.04,5.66l3.233,1.617l3.232,1.818l2.83,2.021l2.627,2.224l2.425,2.627l2.021,2.829l2.021,3.031
	l1.414,3.031l1.415,3.436l0.808,3.436l0.607,3.637l0.201,3.638H47.692z"/>
<path fill="#999999" d="M47.692,39.004H14.146l0.202-3.638l0.404-3.637l0.809-3.436l1.212-3.233l1.415-3.233l1.617-3.031
	l2.021-2.829l2.223-2.426l2.223-2.425l2.627-2.021l2.829-1.818l2.829-1.617l3.233-1.213l3.031-0.808l3.436-0.606l3.436-0.202
	l3.435,0.202l3.436,0.606l3.031,0.808l3.233,1.213l2.829,1.617l2.83,1.818l2.627,2.021l2.424,2.425l2.021,2.426l2.021,2.829
	l1.616,3.031l1.415,3.233l1.212,3.233l0.808,3.436l0.404,3.637l0.203,3.638H47.692z"/>
<path fill="#B2B2B2" d="M47.692,39.004H21.017l0.202-3.638l0.404-3.637l0.606-3.436l0.809-3.233l1.212-3.233l1.415-3.031
	l1.415-2.829l1.819-2.426l1.819-2.425l2.021-2.021l2.223-1.818l2.425-1.617l2.425-1.213l2.425-0.808l2.627-0.606l2.829-0.202
	l2.83,0.202l2.627,0.606l2.425,0.808l2.425,1.213l2.426,1.617l2.223,1.818l2.021,2.021l1.819,2.425l1.818,2.426l1.414,2.829
	l1.415,3.031l1.212,3.233l0.809,3.233l0.606,3.436l0.404,3.637l0.202,3.638H47.692z"/>
<path fill="#CCCCCC" d="M47.692,39.004H28.09v-3.638l0.404-3.637l0.404-3.436l0.809-3.436l0.808-3.031l0.809-3.031l1.212-2.829
	l1.212-2.627l1.415-2.224l1.617-2.021l3.233-3.436L43.65,3.64l4.042-0.809l4.042,0.809l3.638,2.021l3.436,3.436l1.414,2.021
	l1.415,2.224l1.415,2.627l1.01,2.829l1.011,3.031l0.808,3.031l0.809,3.436l0.404,3.436l0.202,3.637l0.202,3.638H47.692z"/>
<path fill="#E5E5E5" d="M47.692,39.004H34.96v-3.638l0.202-3.637l0.404-3.436l0.404-3.436l0.606-3.031l0.606-3.031l0.606-2.829
	l0.809-2.627l1.01-2.224l2.021-3.839l2.223-2.83l2.627-1.414l1.212-0.202l2.626,0.809l2.426,2.021l2.021,3.436l1.011,2.021
	l1.01,2.224l0.809,2.627l0.606,2.829l0.606,3.031l0.605,3.031l0.404,3.436l0.404,3.436l0.203,3.637v3.638H47.692z"/>
<path fill="none" stroke="#000000" stroke-width="2" d="M47.692,39.004H10.71l0.202-3.638l0.606-3.637l0.809-3.436l1.212-3.436
	l1.617-3.031l1.819-3.031l2.223-2.829l2.425-2.627l2.627-2.224l2.829-2.021l3.031-1.818l3.233-1.617l3.436-1.213l3.436-0.808
	l3.637-0.606l3.84-0.202l3.839,0.202l3.638,0.606l3.436,0.808L62.04,5.66l3.233,1.617l3.232,1.818l2.83,2.021l2.627,2.224
	l2.425,2.627l2.021,2.829l2.021,3.031l1.414,3.031l1.415,3.436l0.808,3.436l0.607,3.637l0.201,3.638H47.692"/>
<path fill="#FFFFFF" d="M47.692,39.004h-3.436V31.73l0.202-3.436v-3.436l0.202-3.031l0.202-3.031l0.202-2.829l0.202-2.627
	l0.606-4.244l0.606-3.436l0.808-2.627l0.404-0.202l0.404,0.202l1.01,2.627l0.606,3.436l0.404,4.244l0.201,2.627l0.203,2.829
	l0.201,3.031l0.203,3.031v3.436l0.201,3.436v7.274H47.692z"/>
<path fill="#7F7F7F" d="M2.829,103.671V58.607l90.534,45.064V58.607L2.829,103.671z"/>
<path fill="#999999" d="M2.829,101.448V61.031l90.534,40.417V61.031L2.829,101.448z"/>
<path fill="#B2B2B2" d="M2.829,96.8V65.679L93.363,96.8V65.679L2.829,96.8z"/>
<path fill="#CCCCCC" d="M2.829,92.153V70.125l90.534,22.027V70.125L2.829,92.153z"/>
<path fill="#E5E5E5" d="M2.829,88.717V73.561l90.534,15.156V73.561L2.829,88.717z"/>
<path fill="#FFFFFF" d="M2.829,84.069v-5.86l90.534,5.86v-5.86L2.829,84.069z"/>
<path fill="none" stroke="#000000" stroke-width="2" d="M2.829,103.671V58.607l90.534,45.064V58.607L2.829,103.671"/>
</svg>
