<?xml version="1.0" encoding="utf-8"?>
<!-- Generator: Adobe Illustrator 14.0.0, SVG Export Plug-In . SVG Version: 6.00 Build 43363)  -->
<!DOCTYPE svg PUBLIC "-//W3C//DTD SVG 1.1//EN" "http://www.w3.org/Graphics/SVG/1.1/DTD/svg11.dtd">
<svg version="1.1" id="图层_1" xmlns="http://www.w3.org/2000/svg" xmlns:xlink="http://www.w3.org/1999/xlink" x="0px" y="0px"
	 width="112.291px" height="106.502px" viewBox="0 0 112.291 106.502" enable-background="new 0 0 112.291 106.502"
	 xml:space="preserve">
<path fill="#7F7F7F" d="M62.867,26.678v51.699H50.252V26.678H62.867z"/>
<path fill="#B2B2B2" d="M61.626,26.678v51.699H51.493V26.678H61.626z"/>
<path fill="#E5E5E5" d="M59.971,26.678v51.699h-6.824V26.678H59.971z"/>
<path fill="#FFFFFF" d="M57.697,26.678v51.699h-2.275V26.678H57.697z"/>
<path fill="none" stroke="#000000" stroke-width="2" d="M50.252,26.678v51.699"/>
<path fill="none" stroke="#000000" stroke-width="2" d="M62.867,78.377V26.678"/>
<path fill="#7F7F7F" d="M73.827,3.103h29.365v12.614H73.827V3.103z"/>
<path fill="#B2B2B2" d="M73.827,4.344h29.365v10.133H73.827V4.344z"/>
<path fill="#E5E5E5" d="M73.827,5.791h29.365v7.031H73.827V5.791z"/>
<path fill="#FFFFFF" d="M73.827,8.066h29.365v2.481H73.827V8.066z"/>
<path fill="none" stroke="#000000" stroke-width="2" d="M73.827,15.717h29.365"/>
<path fill="none" stroke="#000000" stroke-width="2" d="M103.192,3.103H73.827"/>
<path fill="#7F7F7F" d="M75.067,15.717V3.31H50.252L62.66,15.717H75.067z"/>
<path fill="#7F7F7F" d="M62.66,28.125H50.252V3.103L62.66,15.717V28.125z"/>
<path fill="#B2B2B2" d="M51.286,28.125h10.34V14.684l-10.34-10.34V28.125z"/>
<path fill="#B2B2B2" d="M75.067,4.344v10.34H61.626l-10.34-10.34H75.067z"/>
<path fill="#E5E5E5" d="M52.94,28.125h6.824V12.823L52.94,5.998V28.125z"/>
<path fill="#E5E5E5" d="M75.067,6.204v6.825H59.971l-6.824-6.825H75.067z"/>
<path fill="#FFFFFF" d="M75.067,8.48v2.274h-17.37L55.422,8.48H75.067z"/>
<path fill="#FFFFFF" d="M55.215,28.125h2.275V10.754l-2.275-2.481V28.125z"/>
<path fill="none" stroke="#000000" stroke-width="2" d="M50.252,28.125V3.103"/>
<path fill="none" stroke="#000000" stroke-width="2" d="M62.66,15.717v12.408"/>
<path fill="none" stroke="#000000" stroke-width="2" d="M75.274,3.103H50.252"/>
<path fill="none" stroke="#000000" stroke-width="2" d="M62.66,15.717h12.614"/>
<path fill="#7F7F7F" d="M3.102,103.4V50.253L109.189,103.4V50.253L3.102,103.4z"/>
<path fill="#999999" d="M3.102,100.711V52.941l106.087,47.771V52.941L3.102,100.711z"/>
<path fill="#B2B2B2" d="M3.102,95.128V58.525l106.087,36.604V58.525L3.102,95.128z"/>
<path fill="#CCCCCC" d="M3.102,89.751v-25.85l106.087,25.85v-25.85L3.102,89.751z"/>
<path fill="#E5E5E5" d="M3.102,85.615V67.83l106.087,17.785V67.83L3.102,85.615z"/>
<path fill="#FFFFFF" d="M3.102,80.239v-6.824l106.087,6.824v-6.824L3.102,80.239z"/>
<path fill="none" stroke="#000000" stroke-width="2" d="M3.102,103.4V50.253L109.189,103.4V50.253L3.102,103.4"/>
</svg>
