<?xml version="1.0" encoding="utf-8"?>
<!-- Generator: Adobe Illustrator 14.0.0, SVG Export Plug-In . SVG Version: 6.00 Build 43363)  -->
<!DOCTYPE svg PUBLIC "-//W3C//DTD SVG 1.1//EN" "http://www.w3.org/Graphics/SVG/1.1/DTD/svg11.dtd">
<svg version="1.1" id="图层_1" xmlns="http://www.w3.org/2000/svg" xmlns:xlink="http://www.w3.org/1999/xlink" x="0px" y="0px"
	 width="144.749px" height="76.355px" viewBox="0 0 144.749 76.355" enable-background="new 0 0 144.749 76.355"
	 xml:space="preserve">
<path fill="#7F7F7F" d="M3.846,72.511V3.845l137.057,68.666V3.845L3.846,72.511z"/>
<path fill="#999999" d="M3.846,68.94V7.416L140.903,68.94V7.416L3.846,68.94z"/>
<path fill="#B2B2B2" d="M3.846,61.799V14.282l137.057,47.517V14.282L3.846,61.799z"/>
<path fill="#CCCCCC" d="M3.846,54.933V21.424l137.057,33.509V21.424L3.846,54.933z"/>
<path fill="#E5E5E5" d="M3.846,49.439V26.642l137.057,22.797V26.642L3.846,49.439z"/>
<path fill="#FFFFFF" d="M3.846,42.573v-8.789l137.057,8.789v-8.789L3.846,42.573z"/>
<path fill="none" stroke="#000000" stroke-width="2" d="M3.846,72.511V3.845l137.057,68.666V3.845L3.846,72.511"/>
</svg>
