<?xml version="1.0" encoding="utf-8"?>
<!-- Generator: Adobe Illustrator 14.0.0, SVG Export Plug-In . SVG Version: 6.00 Build 43363)  -->
<!DOCTYPE svg PUBLIC "-//W3C//DTD SVG 1.1//EN" "http://www.w3.org/Graphics/SVG/1.1/DTD/svg11.dtd">
<svg version="1.1" id="图层_1" xmlns="http://www.w3.org/2000/svg" xmlns:xlink="http://www.w3.org/1999/xlink" x="0px" y="0px"
	 width="71.136px" height="106.502px" viewBox="0 0 71.136 106.502" enable-background="new 0 0 71.136 106.502"
	 xml:space="preserve">
<path fill="#7F7F7F" d="M38.984,29.74v53.452h-7.033V29.74H38.984z"/>
<path fill="#B2B2B2" d="M38.381,29.74v53.452h-5.626V29.74H38.381z"/>
<path fill="#E5E5E5" d="M37.376,29.74v53.452h-3.818V29.74H37.376z"/>
<path fill="#FFFFFF" d="M36.171,29.74v53.452h-1.407V29.74H36.171z"/>
<path fill="none" stroke="#000000" stroke-width="2" d="M31.951,29.74v53.452"/>
<path fill="none" stroke="#000000" stroke-width="2" d="M38.984,83.193V29.74"/>
<path fill="#7F7F7F" d="M7.636,103.489V61.892l55.06,41.597V61.892L7.636,103.489z"/>
<path fill="#999999" d="M7.636,101.479V64.103l55.06,37.376V64.103L7.636,101.479z"/>
<path fill="#B2B2B2" d="M7.636,97.058V68.323l55.06,28.735V68.323L7.636,97.058z"/>
<path fill="#CCCCCC" d="M7.636,92.838V72.542l55.06,20.296V72.542L7.636,92.838z"/>
<path fill="#E5E5E5" d="M7.636,89.623V75.757l55.06,13.866V75.757L7.636,89.623z"/>
<path fill="#FFFFFF" d="M7.636,85.403v-5.425l55.06,5.425v-5.425L7.636,85.403z"/>
<path fill="none" stroke="#000000" stroke-width="2" d="M7.636,103.489V61.892l55.06,41.597V61.892L7.636,103.489"/>
<ellipse fill="#7F7F7F" cx="35.568" cy="17.08" rx="27.932" ry="14.066"/>
<ellipse fill="#999999" cx="35.568" cy="17.08" rx="25.319" ry="14.066"/>
<ellipse fill="#B2B2B2" cx="35.568" cy="17.08" rx="20.095" ry="14.066"/>
<ellipse fill="#CCCCCC" cx="35.568" cy="17.08" rx="14.87" ry="14.066"/>
<ellipse fill="#E5E5E5" cx="35.568" cy="17.08" rx="9.646" ry="14.066"/>
<ellipse fill="none" stroke="#000000" stroke-width="2" cx="35.568" cy="17.08" rx="27.932" ry="14.066"/>
<ellipse fill="#FFFFFF" cx="35.568" cy="17.08" rx="2.612" ry="14.066"/>
<path fill="#7F7F7F" d="M9.445,13.263h52.447v6.832H9.445V13.263z"/>
<path fill="#B2B2B2" d="M9.445,13.865h52.447v5.627H9.445V13.865z"/>
<path fill="#E5E5E5" d="M9.445,14.669h52.447v4.019H9.445V14.669z"/>
<path fill="#FFFFFF" d="M9.445,16.075h52.447v1.206H9.445V16.075z"/>
<path fill="none" stroke="#000000" stroke-width="2" d="M9.445,20.095h52.447"/>
<path fill="none" stroke="#000000" stroke-width="2" d="M61.892,13.263H9.445"/>
<path fill="#7F7F7F" d="M64.706,13.263h-3.617v7.033h3.617l1.206-0.201l1.205-0.804l0.804-1.206l0.201-1.406l-0.201-1.407
	l-0.804-1.005l-1.205-0.804L64.706,13.263z"/>
<path fill="#B2B2B2" d="M64.706,13.865h-3.617v5.627h3.617l1.206-0.201l1.205-0.604l0.804-0.804l0.201-1.205l-0.201-1.206
	l-0.804-0.804l-1.205-0.603L64.706,13.865z"/>
<path fill="#E5E5E5" d="M64.706,14.669h-3.617v4.019h3.617l1.206-0.2l1.205-0.402l0.804-0.603l0.201-0.804l-0.201-0.804
	l-0.804-0.604l-1.205-0.401L64.706,14.669z"/>
<path fill="#FFFFFF" d="M64.706,16.075h-3.617v1.206h3.617h1.206l1.205-0.201l0.804-0.2l0.201-0.201l-0.201-0.201l-0.804-0.201
	l-1.205-0.201H64.706z"/>
<path fill="none" stroke="#000000" stroke-width="2" d="M61.088,20.296h3.617l1.206-0.201l1.205-0.804l0.804-1.206l0.201-1.406
	l-0.201-1.407l-0.804-1.005l-1.205-0.804l-1.206-0.2h-3.617"/>
<path fill="#7F7F7F" d="M6.431,20.296h3.617v-7.234H6.431l-1.206,0.201l-1.206,0.804l-0.804,1.205l-0.201,1.407l0.201,1.406
	l0.804,1.206l1.206,0.804L6.431,20.296z"/>
<path fill="#B2B2B2" d="M6.431,19.492h3.617v-5.627H6.431l-1.206,0.201l-1.206,0.603l-0.804,0.804l-0.201,1.206l0.201,1.205
	l0.804,0.804l1.206,0.604L6.431,19.492z"/>
<path fill="#E5E5E5" d="M6.431,18.688h3.617v-4.019H6.431L5.225,14.87l-1.206,0.401l-0.804,0.604l-0.201,0.804l0.201,0.804
	l0.804,0.603l1.206,0.402L6.431,18.688z"/>
<path fill="#FFFFFF" d="M6.431,17.281h3.617v-1.206H6.431H5.225l-1.206,0.201l-0.804,0.201l-0.201,0.201l0.201,0.201l0.804,0.2
	l1.206,0.201H6.431z"/>
<path fill="none" stroke="#000000" stroke-width="2" d="M10.048,13.062H6.431l-1.206,0.201l-1.206,0.804l-0.804,1.205l-0.201,1.407
	l0.201,1.406l0.804,1.206l1.206,0.804l1.206,0.201h3.617"/>
</svg>
