<?xml version="1.0" encoding="utf-8"?>
<!-- Generator: Adobe Illustrator 14.0.0, SVG Export Plug-In . SVG Version: 6.00 Build 43363)  -->
<!DOCTYPE svg PUBLIC "-//W3C//DTD SVG 1.1//EN" "http://www.w3.org/Graphics/SVG/1.1/DTD/svg11.dtd">
<svg version="1.1" id="图层_1" xmlns="http://www.w3.org/2000/svg" xmlns:xlink="http://www.w3.org/1999/xlink" x="0px" y="0px"
	 width="74.347px" height="106.502px" viewBox="0 0 74.347 106.502" enable-background="new 0 0 74.347 106.502"
	 xml:space="preserve">
<path fill="#7F7F7F" d="M40.187,30.545v56.464h-6.63V30.545H40.187z"/>
<path fill="#B2B2B2" d="M39.585,30.545v56.464H34.16V30.545H39.585z"/>
<path fill="#E5E5E5" d="M38.781,30.545v56.464h-3.617V30.545H38.781z"/>
<path fill="#FFFFFF" d="M37.576,30.545v56.464H36.37V30.545H37.576z"/>
<path fill="none" stroke="#000000" stroke-width="2" d="M33.557,30.545v56.464"/>
<path fill="none" stroke="#000000" stroke-width="2" d="M40.187,87.009V30.545"/>
<path fill="#7F7F7F" d="M47.019,46.419h-6.832v-3.416h-6.63v13.262h6.63V53.05h6.832V46.419z"/>
<path fill="#B2B2B2" d="M47.019,47.022h-7.434v-4.019H34.16v13.262h5.426v-4.019h7.434V47.022z"/>
<path fill="#E5E5E5" d="M47.019,47.825H38.58v-4.822h-3.416v13.262h3.416v-4.822h8.439V47.825z"/>
<path fill="#FFFFFF" d="M47.019,49.031h-9.443v-6.028h-1.407v13.262h1.407v-6.027h9.443V49.031z"/>
<path fill="none" stroke="#000000" stroke-width="2" d="M47.019,46.419h-6.832v-3.416"/>
<path fill="none" stroke="#000000" stroke-width="2" d="M47.019,53.05h-6.832v3.215"/>
<path fill="none" stroke="#000000" stroke-width="2" d="M33.557,56.265V43.003"/>
<path fill="#7F7F7F" d="M46.216,46.218h12.457v6.631H46.216V46.218z"/>
<path fill="#B2B2B2" d="M46.216,46.822h12.457v5.425H46.216V46.822z"/>
<path fill="#E5E5E5" d="M46.216,47.825h12.457v3.617H46.216V47.825z"/>
<path fill="#FFFFFF" d="M46.216,49.031h12.457v1.206H46.216V49.031z"/>
<path fill="none" stroke="#000000" stroke-width="2" d="M46.216,52.849h12.457"/>
<path fill="none" stroke="#000000" stroke-width="2" d="M58.673,46.218H46.216"/>
<path fill="#7F7F7F" d="M64.501,60.284V39.788h6.832v20.496H64.501z"/>
<path fill="#B2B2B2" d="M65.104,60.284V39.788h5.425v20.496H65.104z"/>
<path fill="#E5E5E5" d="M66.109,60.284V39.788h3.617v20.496H66.109z"/>
<path fill="#FFFFFF" d="M67.314,60.284V39.788h1.206v20.496H67.314z"/>
<path fill="none" stroke="#000000" stroke-width="2" d="M71.333,60.284V39.788"/>
<path fill="none" stroke="#000000" stroke-width="2" d="M64.501,39.788v20.496"/>
<path fill="#7F7F7F" d="M57.871,52.849h6.631v3.416h6.631V43.003h-6.631v3.215h-6.631V52.849z"/>
<path fill="#B2B2B2" d="M57.871,52.246h7.435v4.019h5.224V43.003h-5.224v4.019h-7.435V52.246z"/>
<path fill="#E5E5E5" d="M57.871,51.443h8.238v4.822h3.617V43.003h-3.617v4.822h-8.238V51.443z"/>
<path fill="#FFFFFF" d="M57.871,50.238h9.443v6.027h1.206V43.003h-1.206v6.028h-9.443V50.238z"/>
<path fill="none" stroke="#000000" stroke-width="2" d="M57.871,52.849h6.631v3.416"/>
<path fill="none" stroke="#000000" stroke-width="2" d="M57.871,46.218h6.631v-3.215"/>
<path fill="none" stroke="#000000" stroke-width="2" d="M71.132,43.003v13.262"/>
<path fill="#7F7F7F" d="M36.771,30.545H9.243l0.603-5.626l1.607-5.023l2.612-4.823l3.215-4.019l4.22-3.416l4.622-2.411l5.224-1.607
	l5.425-0.603l5.425,0.603l5.225,1.607l4.621,2.411l4.221,3.416l3.215,4.019l2.611,4.823l1.607,5.023l0.604,5.626H36.771z"/>
<path fill="#999999" d="M36.771,30.545H11.855l0.603-5.426l1.407-5.224l2.21-4.622l3.215-4.22l3.617-3.215l4.22-2.612l4.622-1.607
	l5.023-0.603l5.024,0.603l4.622,1.607l4.219,2.612l3.617,3.215l3.014,4.22l2.211,4.622l1.607,5.224l0.402,5.426H36.771z"/>
<path fill="#B2B2B2" d="M36.771,30.545H17.08l0.402-5.426l1.206-5.224l1.808-4.622l2.411-4.22l2.813-3.215l3.416-2.612l3.617-1.607
	l4.019-0.603l4.019,0.603l3.617,1.607l3.416,2.612l2.813,3.215l2.412,4.22l1.808,4.622l1.206,5.224l0.402,5.426H36.771z"/>
<path fill="#CCCCCC" d="M36.771,30.545H22.103l0.201-5.626l1.005-5.023l1.406-4.823l1.809-4.019l2.009-3.416l2.612-2.411
	l2.612-1.607l3.014-0.603l3.014,0.603l2.612,1.607l2.411,2.411l2.21,3.416l1.809,4.019l1.206,4.823l1.005,5.023l0.201,5.626H36.771z
	"/>
<path fill="#E5E5E5" d="M36.771,30.545h-9.444l0.201-5.626l0.603-5.023l0.804-4.823l1.206-4.019l1.407-3.416l1.607-2.411
	l1.809-1.607l1.808-0.603l1.808,0.603l1.809,1.607l1.607,2.411l1.407,3.416l1.206,4.019l0.803,4.823l0.604,5.023l0.201,5.626H36.771
	z"/>
<path fill="none" stroke="#000000" stroke-width="2" d="M36.771,30.545H9.243l0.603-5.626l1.607-5.023l2.612-4.823l3.215-4.019
	l4.22-3.416l4.622-2.411l5.224-1.607l5.425-0.603l5.425,0.603l5.225,1.607l4.621,2.411l4.221,3.416l3.215,4.019l2.611,4.823
	l1.607,5.023l0.604,5.626H36.771"/>
<path fill="#FFFFFF" d="M36.771,30.545H34.16v-5.626l0.201-5.023l0.201-4.823l0.402-4.019l0.402-3.416l0.402-2.411l0.402-1.607
	l0.603-0.603l0.603,0.603l0.402,1.607l0.401,2.411l0.401,3.416l0.402,4.019l0.201,4.823l0.201,5.023v5.626H36.771z"/>
<path fill="#7F7F7F" d="M3.014,103.486V69.728l67.515,33.758V69.728L3.014,103.486z"/>
<path fill="#999999" d="M3.014,101.677V71.335l67.515,30.342V71.335L3.014,101.677z"/>
<path fill="#B2B2B2" d="M3.014,98.261V74.952l67.515,23.309V74.952L3.014,98.261z"/>
<path fill="#CCCCCC" d="M3.014,94.845V78.368l67.515,16.477V78.368L3.014,94.845z"/>
<path fill="#E5E5E5" d="M3.014,92.234V80.78l67.515,11.454V80.78L3.014,92.234z"/>
<path fill="#FFFFFF" d="M3.014,88.616v-4.22l67.515,4.22v-4.22L3.014,88.616z"/>
<path fill="none" stroke="#000000" stroke-width="2" d="M3.014,103.486V69.728l67.515,33.758V69.728L3.014,103.486"/>
</svg>
