<?xml version="1.0" encoding="utf-8"?>
<!-- Generator: Adobe Illustrator 14.0.0, SVG Export Plug-In . SVG Version: 6.00 Build 43363)  -->
<!DOCTYPE svg PUBLIC "-//W3C//DTD SVG 1.1//EN" "http://www.w3.org/Graphics/SVG/1.1/DTD/svg11.dtd">
<svg version="1.1" id="图层_1" xmlns="http://www.w3.org/2000/svg" xmlns:xlink="http://www.w3.org/1999/xlink" x="0px" y="0px"
	 width="82.987px" height="106.502px" viewBox="0 0 82.987 106.502" enable-background="new 0 0 82.987 106.502"
	 xml:space="preserve">
<path fill="#7F7F7F" d="M30.542,88.616V16.077h7.033v72.539H30.542z"/>
<path fill="#B2B2B2" d="M31.346,88.616V16.077h5.627v72.539H31.346z"/>
<path fill="#E5E5E5" d="M32.15,88.616V16.077h3.818v72.539H32.15z"/>
<path fill="#FFFFFF" d="M33.356,88.616V16.077h1.406v72.539H33.356z"/>
<path fill="none" stroke="#000000" stroke-width="2" d="M37.575,88.616V16.077"/>
<path fill="none" stroke="#000000" stroke-width="2" d="M30.542,16.077v72.539"/>
<path fill="#7F7F7F" d="M44.407,10.05V3.017H30.542l7.033,7.033H44.407z"/>
<path fill="#7F7F7F" d="M37.374,17.082h-6.832V3.017l6.832,7.033V17.082z"/>
<path fill="#B2B2B2" d="M31.146,17.082h5.626V9.447l-5.626-5.827V17.082z"/>
<path fill="#B2B2B2" d="M44.407,3.619v5.827h-7.435l-5.827-5.827H44.407z"/>
<path fill="#E5E5E5" d="M32.15,17.082h3.818v-8.64L32.15,4.624V17.082z"/>
<path fill="#E5E5E5" d="M44.407,4.624v3.818h-8.439L32.15,4.624H44.407z"/>
<path fill="#FFFFFF" d="M44.407,6.031v1.206h-9.646l-1.406-1.206H44.407z"/>
<path fill="#FFFFFF" d="M33.356,17.082h1.205V7.237L33.356,5.83V17.082z"/>
<path fill="none" stroke="#000000" stroke-width="2" d="M30.542,17.082V3.017"/>
<path fill="none" stroke="#000000" stroke-width="2" d="M37.374,10.05v7.032"/>
<path fill="none" stroke="#000000" stroke-width="2" d="M44.407,3.017H30.542"/>
<path fill="none" stroke="#000000" stroke-width="2" d="M37.575,10.05h6.832"/>
<path fill="#7F7F7F" d="M72.941,17.082h6.831V3.017l-6.831,7.033V17.082z"/>
<path fill="#7F7F7F" d="M65.907,10.05V3.017h14.065l-7.032,7.033H65.907z"/>
<path fill="#B2B2B2" d="M65.907,3.619v5.827h7.636l5.626-5.827H65.907z"/>
<path fill="#B2B2B2" d="M79.169,17.082h-5.626V9.447l5.626-5.626V17.082z"/>
<path fill="#E5E5E5" d="M65.907,4.624v3.818h8.641l3.817-3.818H65.907z"/>
<path fill="#E5E5E5" d="M78.164,17.082h-3.616v-8.64l3.616-3.818V17.082z"/>
<path fill="#FFFFFF" d="M76.959,17.082h-1.206V7.237l1.206-1.206V17.082z"/>
<path fill="#FFFFFF" d="M65.907,5.83v1.406h9.846l1.206-1.406H65.907z"/>
<path fill="none" stroke="#000000" stroke-width="2" d="M65.907,3.017h14.065"/>
<path fill="none" stroke="#000000" stroke-width="2" d="M72.941,10.05h-7.033"/>
<path fill="none" stroke="#000000" stroke-width="2" d="M79.973,17.082V3.017"/>
<path fill="none" stroke="#000000" stroke-width="2" d="M72.941,10.05v7.032"/>
<path fill="#7F7F7F" d="M72.941,88.616V17.082h7.032v71.534H72.941z"/>
<path fill="#B2B2B2" d="M73.543,88.616V17.082h5.626v71.534H73.543z"/>
<path fill="#E5E5E5" d="M74.548,88.616V17.082h3.817v71.534H74.548z"/>
<path fill="#FFFFFF" d="M75.753,88.616V17.082h1.206v71.534H75.753z"/>
<path fill="none" stroke="#000000" stroke-width="2" d="M79.973,88.616V17.082"/>
<path fill="none" stroke="#000000" stroke-width="2" d="M72.941,17.082v71.534"/>
<path fill="#7F7F7F" d="M66.51,10.05H43.804V3.017H66.51V10.05z"/>
<path fill="#B2B2B2" d="M66.51,9.246H43.804V3.619H66.51V9.246z"/>
<path fill="#E5E5E5" d="M66.51,8.443H43.804V4.624H66.51V8.443z"/>
<path fill="#FFFFFF" d="M66.51,7.237H43.804V5.83H66.51V7.237z"/>
<path fill="none" stroke="#000000" stroke-width="2" d="M66.51,3.017H43.804"/>
<path fill="none" stroke="#000000" stroke-width="2" d="M43.804,10.05H66.51"/>
<path fill="#7F7F7F" d="M34.361,37.578H9.243l0.603-5.023l1.406-4.823l2.211-4.219l3.215-3.617l3.617-3.215l4.219-2.211l4.823-1.406
	l5.023-0.603l5.023,0.603l4.822,1.406l4.22,2.211l3.617,3.215l3.215,3.617l2.21,4.219l1.406,4.823l0.604,5.023H34.361z"/>
<path fill="#999999" d="M34.361,37.578H11.655l0.401-5.023l1.407-4.823l2.009-4.219l2.813-3.617l3.416-3.215l3.817-2.211l4.22-1.406
	l4.622-0.603l4.621,0.603l4.22,1.406l3.818,2.211l3.416,3.215l2.813,3.617l2.01,4.219l1.406,4.823l0.402,5.023H34.361z"/>
<path fill="#B2B2B2" d="M34.361,37.578H16.276l0.402-5.023l1.005-4.823l1.808-4.219l2.211-3.617l2.612-3.215l3.014-2.211
	l3.416-1.406l3.617-0.603l3.616,0.603l3.416,1.406l3.015,2.211l2.813,3.215l2.211,3.617l1.607,4.219l1.005,4.823l0.401,5.023H34.361
	z"/>
<path fill="#CCCCCC" d="M34.361,37.578H21.099l0.2-5.023l0.804-4.823l1.206-4.219l1.809-3.617l1.809-3.215l2.411-2.211l2.411-1.406
	l2.612-0.603l2.813,0.603l2.411,1.406l2.211,2.211l2.009,3.215l1.809,3.617l1.206,4.219l0.804,4.823l0.201,5.023H34.361z"/>
<path fill="#E5E5E5" d="M34.361,37.578H25.72l0.201-5.023l0.401-4.823l1.005-4.219l1.005-3.617l1.205-3.215l1.608-2.211l1.607-1.406
	l1.607-0.603l1.809,0.603l1.607,1.406l1.406,2.211l1.406,3.215l1.005,3.617l0.804,4.219l0.402,4.823l0.2,5.023H34.361z"/>
<path fill="none" stroke="#000000" stroke-width="2" d="M34.361,37.578H9.243l0.603-5.023l1.406-4.823l2.211-4.219l3.215-3.617
	l3.617-3.215l4.219-2.211l4.823-1.406l5.023-0.603l5.023,0.603l4.822,1.406l4.22,2.211l3.617,3.215l3.215,3.617l2.21,4.219
	l1.406,4.823l0.604,5.023H34.361"/>
<path fill="#FFFFFF" d="M34.361,37.578h-2.411v-5.023l0.2-4.823l0.201-4.219l0.402-3.617l0.401-3.215l0.402-2.211l0.401-1.406
	l0.402-0.603l0.603,0.603l0.402,1.406l0.401,2.211l0.402,3.215l0.2,3.617l0.201,4.219l0.201,4.823v5.023H34.361z"/>
<path fill="#7F7F7F" d="M3.014,103.486V72.943l61.889,30.543V72.943L3.014,103.486z"/>
<path fill="#999999" d="M3.014,101.878V74.35l61.889,27.528V74.35L3.014,101.878z"/>
<path fill="#B2B2B2" d="M3.014,98.865v-21.3l61.889,21.3v-21.3L3.014,98.865z"/>
<path fill="#CCCCCC" d="M3.014,95.649V80.78l61.889,14.869V80.78L3.014,95.649z"/>
<path fill="#E5E5E5" d="M3.014,93.238V82.99l61.889,10.248V82.99L3.014,93.238z"/>
<path fill="#FFFFFF" d="M3.014,90.224v-4.019l61.889,4.019v-4.019L3.014,90.224z"/>
<path fill="none" stroke="#000000" stroke-width="2" d="M3.014,103.486V72.943l61.889,30.543V72.943L3.014,103.486"/>
</svg>
