<?xml version="1.0" encoding="utf-8"?>
<!-- Generator: Adobe Illustrator 14.0.0, SVG Export Plug-In . SVG Version: 6.00 Build 43363)  -->
<!DOCTYPE svg PUBLIC "-//W3C//DTD SVG 1.1//EN" "http://www.w3.org/Graphics/SVG/1.1/DTD/svg11.dtd">
<svg version="1.1" id="图层_1" xmlns="http://www.w3.org/2000/svg" xmlns:xlink="http://www.w3.org/1999/xlink" x="0px" y="0px"
	 width="64.073px" height="106.502px" viewBox="0 0 64.073 106.502" enable-background="new 0 0 64.073 106.502"
	 xml:space="preserve">
<path stroke="#000000" stroke-width="2" d="M5.757,5.757h55.224v55.224H5.757V5.757z"/>
<path fill="#7F7F7F" d="M33.901,57.782v32.195h-6.609V57.782H33.901z"/>
<path fill="#B2B2B2" d="M33.263,57.782v32.195h-5.438V57.782H33.263z"/>
<path fill="#E5E5E5" d="M32.516,57.782v32.195h-3.838V57.782H32.516z"/>
<path fill="#FFFFFF" d="M31.237,57.782v32.195h-1.386V57.782H31.237z"/>
<path fill="none" stroke="#000000" stroke-width="2" d="M27.292,57.782v32.195"/>
<path fill="none" stroke="#000000" stroke-width="2" d="M33.901,89.978V57.782"/>
<path fill="#7F7F7F" d="M2.985,103.41V75.906l55.65,27.505V75.906L2.985,103.41z"/>
<path fill="#999999" d="M2.985,102.025V77.291l55.65,24.733V77.291L2.985,102.025z"/>
<path fill="#B2B2B2" d="M2.985,99.253V80.17l55.65,19.083V80.17L2.985,99.253z"/>
<path fill="#CCCCCC" d="M2.985,96.374V82.942l55.65,13.433V82.942L2.985,96.374z"/>
<path fill="#E5E5E5" d="M2.985,94.242v-9.275l55.65,9.275v-9.275L2.985,94.242z"/>
<path fill="#FFFFFF" d="M2.985,91.364V87.74l55.65,3.624V87.74L2.985,91.364z"/>
<path fill="none" stroke="#000000" stroke-width="2" d="M2.985,103.41V75.906l55.65,27.505V75.906L2.985,103.41"/>
<path fill="#7F7F7F" stroke="#000000" stroke-width="2" d="M2.985,2.985h55.224v55.224H2.985V2.985z"/>
<path d="M30.704,30.49h-0.533v27.292h0.959V30.49H30.704z"/>
<path d="M58.209,30.49v-0.533H2.985v1.066h55.224V30.49z"/>
</svg>
