<?xml version="1.0" encoding="utf-8"?>
<!-- Generator: Adobe Illustrator 14.0.0, SVG Export Plug-In . SVG Version: 6.00 Build 43363)  -->
<!DOCTYPE svg PUBLIC "-//W3C//DTD SVG 1.1//EN" "http://www.w3.org/Graphics/SVG/1.1/DTD/svg11.dtd">
<svg version="1.1" id="图层_1" xmlns="http://www.w3.org/2000/svg" xmlns:xlink="http://www.w3.org/1999/xlink" x="0px" y="0px"
	 width="144.749px" height="76.471px" viewBox="0 0 144.749 76.471" enable-background="new 0 0 144.749 76.471"
	 xml:space="preserve">
<path fill="#7F7F7F" d="M140.653,72.374L72.374,38.236l68.278-34.139V72.374z"/>
<path fill="#7F7F7F" stroke="#000000" stroke-width="2" d="M4.097,72.374l68.277-34.139L4.097,4.097V72.374z"/>
<path fill="#999999" d="M140.653,69.097L72.374,38.236l68.278-31.135V69.097z"/>
<path fill="#999999" d="M4.097,69.097l68.277-30.861L4.097,7.101V69.097z"/>
<path fill="#B2B2B2" d="M140.653,61.723L72.374,38.236l68.278-23.487V61.723z"/>
<path fill="#B2B2B2" d="M4.097,61.723l68.277-23.487L4.097,14.748V61.723z"/>
<path fill="#CCCCCC" d="M140.653,55.168L72.374,38.236l68.278-17.206V55.168z"/>
<path fill="#CCCCCC" d="M4.097,55.168l68.277-16.933L4.097,21.03V55.168z"/>
<path fill="#E5E5E5" d="M140.653,49.98L72.374,38.236l68.278-11.744V49.98z"/>
<path fill="#E5E5E5" d="M4.097,49.98l68.277-11.744L4.097,26.491V49.98z"/>
<path fill="#FFFFFF" d="M140.653,42.332l-68.278-4.097l68.278-4.37V42.332z"/>
<path fill="#FFFFFF" d="M4.097,42.332l68.277-4.097l-68.277-4.37V42.332z"/>
<path fill="none" stroke="#000000" stroke-width="2" d="M140.653,72.374L72.374,38.236l68.278-34.139V72.374"/>
<path fill="#7F7F7F" stroke="#000000" stroke-width="2" d="M49.98,58.446h1.092v-40.42H49.98V58.446z"/>
<path fill="#7F7F7F" stroke="#000000" stroke-width="2" d="M93.677,58.446h1.093v-40.42h-1.093V58.446z"/>
</svg>
