<?xml version="1.0" encoding="utf-8"?>
<!-- Generator: Adobe Illustrator 14.0.0, SVG Export Plug-In . SVG Version: 6.00 Build 43363)  -->
<!DOCTYPE svg PUBLIC "-//W3C//DTD SVG 1.1//EN" "http://www.w3.org/Graphics/SVG/1.1/DTD/svg11.dtd">
<svg version="1.1" id="图层_1" xmlns="http://www.w3.org/2000/svg" xmlns:xlink="http://www.w3.org/1999/xlink" x="0px" y="0px"
	 width="61.689px" height="106.502px" viewBox="0 0 61.689 106.502" enable-background="new 0 0 61.689 106.502"
	 xml:space="preserve">
<circle fill="#7F7F7F" cx="30.544" cy="30.545" r="27.529"/>
<circle fill="#999999" cx="30.343" cy="30.344" r="25.118"/>
<circle fill="#B2B2B2" cx="30.544" cy="30.344" r="21.501"/>
<circle fill="#CCCCCC" cx="30.544" cy="30.344" r="15.875"/>
<circle fill="#E5E5E5" cx="30.544" cy="30.344" r="11.253"/>
<circle fill="none" stroke="#000000" stroke-width="2" cx="30.544" cy="30.545" r="27.529"/>
<circle fill="#FFFFFF" cx="30.544" cy="30.344" r="6.631"/>
<path fill="#7F7F7F" d="M34.361,58.073v32.151H27.73V58.073H34.361z"/>
<path fill="#B2B2B2" d="M33.759,58.073v32.151h-5.426V58.073H33.759z"/>
<path fill="#E5E5E5" d="M32.955,58.073v32.151h-3.818V58.073H32.955z"/>
<path fill="#FFFFFF" d="M31.549,58.073v32.151h-1.206V58.073H31.549z"/>
<path fill="none" stroke="#000000" stroke-width="2" d="M27.73,58.073v32.151"/>
<path fill="none" stroke="#000000" stroke-width="2" d="M34.361,90.225V58.073"/>
<path fill="#7F7F7F" d="M3.014,103.488V75.958l55.661,27.529V75.958L3.014,103.488z"/>
<path fill="#999999" d="M3.014,102.08V77.365l55.661,24.716V77.365L3.014,102.08z"/>
<path fill="#B2B2B2" d="M3.014,99.267V80.178l55.661,19.089V80.178L3.014,99.267z"/>
<path fill="#CCCCCC" d="M3.014,96.454V82.99l55.661,13.464V82.99L3.014,96.454z"/>
<path fill="#E5E5E5" d="M3.014,94.243v-9.042l55.661,9.042v-9.042L3.014,94.243z"/>
<path fill="#FFFFFF" d="M3.014,91.431v-3.416l55.661,3.416v-3.416L3.014,91.431z"/>
<path fill="none" stroke="#000000" stroke-width="2" d="M3.014,103.488V75.958l55.661,27.529V75.958L3.014,103.488"/>
<path fill="none" stroke="#000000" stroke-width="2" d="M20.697,43.204V13.063l10.047,30.142l10.048-30.142v30.142"/>
</svg>
