<?xml version="1.0" encoding="utf-8"?>
<!-- Generator: Adobe Illustrator 14.0.0, SVG Export Plug-In . SVG Version: 6.00 Build 43363)  -->
<!DOCTYPE svg PUBLIC "-//W3C//DTD SVG 1.1//EN" "http://www.w3.org/Graphics/SVG/1.1/DTD/svg11.dtd">
<svg version="1.1" id="图层_1" xmlns="http://www.w3.org/2000/svg" xmlns:xlink="http://www.w3.org/1999/xlink" x="0px" y="0px"
	 width="144.749px" height="76.227px" viewBox="0 0 144.749 76.227" enable-background="new 0 0 144.749 76.227"
	 xml:space="preserve">
<path fill="#7F7F7F" d="M3.853,72.374V3.853l137.043,68.521V3.853L3.853,72.374z"/>
<path fill="#999999" d="M3.853,68.797V7.155l137.043,61.642V7.155L3.853,68.797z"/>
<path fill="#B2B2B2" d="M3.853,61.642V14.31l137.043,47.332V14.31L3.853,61.642z"/>
<path fill="#CCCCCC" d="M3.853,54.762V21.189l137.043,33.572V21.189L3.853,54.762z"/>
<path fill="#E5E5E5" d="M3.853,49.533V26.418l137.043,23.115V26.418L3.853,49.533z"/>
<path fill="#FFFFFF" d="M3.853,42.379v-8.806l137.043,8.806v-8.806L3.853,42.379z"/>
<path fill="none" stroke="#000000" stroke-width="2" d="M3.853,72.374V3.853l137.043,68.521V3.853L3.853,72.374"/>
<circle fill="#7F7F7F" cx="72.374" cy="37.976" r="15.961"/>
<circle fill="#999999" cx="72.374" cy="37.976" r="14.585"/>
<circle fill="#B2B2B2" cx="72.374" cy="37.976" r="12.384"/>
<circle fill="#CCCCCC" cx="72.099" cy="37.976" r="9.081"/>
<circle fill="#E5E5E5" cx="72.374" cy="37.976" r="6.604"/>
<circle fill="none" stroke="#000000" stroke-width="2" cx="72.374" cy="37.976" r="15.961"/>
<circle fill="#FFFFFF" cx="72.374" cy="37.976" r="3.853"/>
</svg>
