<?xml version="1.0" encoding="utf-8"?>
<!-- Generator: Adobe Illustrator 14.0.0, SVG Export Plug-In . SVG Version: 6.00 Build 43363)  -->
<!DOCTYPE svg PUBLIC "-//W3C//DTD SVG 1.1//EN" "http://www.w3.org/Graphics/SVG/1.1/DTD/svg11.dtd">
<svg version="1.1" id="图层_1" xmlns="http://www.w3.org/2000/svg" xmlns:xlink="http://www.w3.org/1999/xlink" x="0px" y="0px"
	 width="40.723px" height="106.502px" viewBox="0 0 40.723 106.502" enable-background="new 0 0 40.723 106.502"
	 xml:space="preserve">
<path fill="#7F7F7F" stroke="#000000" stroke-width="2" d="M14.605,76.331h11.407v11.62H14.605V76.331z"/>
<path fill="#7F7F7F" stroke="#000000" stroke-width="2" d="M16.417,74.519h7.782v1.813h-7.782V74.519z"/>
<path fill="#7F7F7F" stroke="#000000" stroke-width="2" d="M18.443,66.63h3.837v7.889h-3.837V66.63z"/>
<path fill="#999999" d="M16.204,76.331h8.422v11.62h-8.422V76.331z"/>
<path fill="#999999" d="M17.59,74.519h5.438v1.813H17.59V74.519z"/>
<path fill="#999999" d="M18.976,66.63h2.878v7.889h-2.878V66.63z"/>
<path fill="#B2B2B2" d="M17.803,76.331h5.01v11.62h-5.01V76.331z"/>
<path fill="#B2B2B2" d="M18.656,74.519h3.412v1.813h-3.412V74.519z"/>
<path fill="#B2B2B2" d="M19.615,66.63h1.6v7.889h-1.6V66.63z"/>
<path fill="#CCCCCC" d="M19.402,76.331h1.813v11.62h-1.813V76.331z"/>
<path fill="#CCCCCC" d="M19.829,74.519h1.173v1.813h-1.173V74.519z"/>
<path fill="#CCCCCC" d="M20.042,66.63h0.64v7.889h-0.64V66.63z"/>
<path fill="#CCCCCC" d="M17.376,78.357h5.864v2.025h-5.864V78.357z"/>
<path fill="#595959" stroke="#000000" stroke-width="2" d="M30.063,67.697h1.813v0.959h-1.813V67.697z"/>
<path fill="#595959" stroke="#000000" stroke-width="2" d="M8.742,67.697h1.812v0.959H8.742V67.697z"/>
<path fill="#7F7F7F" d="M4.904,66.63v11.727l1.813,2.025H33.9l1.813-2.025V66.63L33.9,64.818H20.255v1.813h12.579l1.066,1.066v9.594
	l-1.066,1.066H7.782L6.716,77.29v-9.594l1.066-1.066h12.473v-1.813H6.716L4.904,66.63z"/>
<path fill="#999999" stroke="#000000" stroke-width="2" d="M28.996,66.63h3.838v1.066h-3.838V66.63z"/>
<path fill="#999999" stroke="#000000" stroke-width="2" d="M7.782,66.63h3.731v1.066H7.782V66.63z"/>
<path fill="#7F7F7F" d="M7.782,64.818h25.052v1.813H7.782V64.818z"/>
<path fill="#BFBFBF" d="M5.757,18.445h29.103v38.591H5.757V18.445z"/>
<path fill="#D1D1D1" d="M9.381,18.338h21.96v38.697H9.381V18.338z"/>
<path fill="#E0E0E0" d="M12.899,18.338h14.817v38.697H12.899V18.338z"/>
<path fill="#F2F2F2" d="M16.417,18.445h7.782v38.591h-7.782V18.445z"/>
<path fill="none" stroke="#000000" stroke-width="2" d="M5.757,18.445h29.103v38.591H5.757V18.445"/>
<path fill="none" stroke="#000000" stroke-width="2" d="M7.782,57.035h3.731v-1.812H7.782V57.035"/>
<path fill="#8C8C8C" stroke="#000000" stroke-width="2" d="M28.996,57.035h3.838v-1.812h-3.838V57.035z"/>
<path fill="#8C8C8C" d="M7.782,57.035h3.731v-1.812H7.782V57.035z"/>
<path fill="#D9D9D9" d="M30.063,57.035h1.813v-1.812h-1.813V57.035z"/>
<path fill="#D9D9D9" d="M8.742,57.035h1.812v-1.812H8.742V57.035z"/>
<path fill="#B2B2B2" stroke="#000000" stroke-width="2" d="M19.402,18.445h1.813v38.591h-1.813V18.445z"/>
<path fill="#B2B2B2" stroke="#000000" stroke-width="2" d="M3.944,18.445h1.813v38.591H3.944V18.445z"/>
<path fill="#B2B2B2" stroke="#000000" stroke-width="2" d="M34.859,18.445h1.813v38.591h-1.813V18.445z"/>
<path fill="#FFFFFF" d="M35.5,18.445h0.533v38.591H35.5V18.445z"/>
<path fill="#FFFFFF" d="M20.042,18.445h0.64v38.591h-0.64V18.445z"/>
<path fill="#FFFFFF" d="M4.584,18.445h0.533v38.591H4.584V18.445z"/>
<path fill="#CC9933" d="M6.716,99.678v-7.889h4.797v-3.838h17.483v3.838H33.9v7.889H6.716z"/>
<path fill="#A6730D" d="M6.716,96.586H33.9v3.092H6.716V96.586z"/>
<path fill="#F2BF59" d="M6.716,91.789H33.9v2.025H6.716V91.789z"/>
<path fill="#CC9933" d="M14.605,87.951h11.407v8.635H14.605V87.951z"/>
<path fill="#D9A640" d="M16.097,87.951h8.422v8.741h-8.422V87.951z"/>
<path fill="#E5B24C" d="M17.803,87.951h5.117v8.741h-5.117V87.951z"/>
<path fill="#F2BF59" d="M19.402,87.951h1.813v8.635h-1.813V87.951z"/>
<path fill="none" stroke="#003333" stroke-width="2" d="M6.716,99.678v-7.889h4.797v-3.838h17.483v3.838H33.9v7.889H6.716"/>
<circle fill="#CC9933" stroke="#000000" stroke-width="2" cx="20.148" cy="98.612" r="4.797"/>
<circle fill="#BA8721" stroke="#000000" stroke-width="2" cx="20.255" cy="98.612" r="2.878"/>
<path fill="#B2B2B2" d="M17.376,10.556h5.864V2.88h-5.864V10.556z"/>
<path fill="#999999" d="M17.376,2.88h2.026v7.676h-2.026V2.88z"/>
<path fill="#7F7F7F" d="M22.28,2.88h0.96v7.676h-0.96V2.88z"/>
<path fill="none" stroke="#000000" stroke-width="2" d="M17.376,2.88h5.864v7.676h-5.864V2.88"/>
<path fill="#7F7F7F" d="M7.782,78.357h25.052v2.025H7.782V78.357z"/>
<path fill="#FF7F00" d="M2.878,10.769h34.86v7.676H2.878V10.769z"/>
<path fill="#FF9933" d="M7.462,10.662h25.798v7.782H7.462V10.662z"/>
<path fill="#FFB266" d="M12.046,10.662h16.63v7.782h-16.63V10.662z"/>
<path fill="#FFCC99" d="M16.524,10.769h7.675v7.676h-7.675V10.769z"/>
<path fill="none" stroke="#000000" stroke-width="2" d="M2.878,10.769h34.86v7.676H2.878V10.769"/>
<path fill="#FF7F00" d="M2.878,57.035h34.86v7.782H2.878V57.035z"/>
<path fill="#FF9933" d="M7.462,57.035h25.798v7.782H7.462V57.035z"/>
<path fill="#FFB266" d="M12.046,57.035h16.63v7.782h-16.63V57.035z"/>
<path fill="#FFCC99" d="M16.524,57.035h7.675v7.782h-7.675V57.035z"/>
<path fill="none" stroke="#000000" stroke-width="2" d="M2.878,57.035h34.86v7.782H2.878V57.035"/>
<path fill="#999999" d="M10.98,64.818h18.656v1.919H10.98V64.818z"/>
<path fill="#999999" d="M10.98,78.357h18.656v1.919H10.98V78.357z"/>
<path fill="#B2B2B2" d="M14.179,78.357h12.259v1.919H14.179V78.357z"/>
<path fill="#B2B2B2" d="M14.179,64.818h12.259v1.919H14.179V64.818z"/>
<path fill="#CCCCCC" d="M17.376,64.818h5.864v1.813h-5.864V64.818z"/>
<path fill="#CCCCCC" d="M17.376,78.357h5.864v2.025h-5.864V78.357z"/>
<path fill="none" stroke="#000000" stroke-width="2" d="M6.716,64.818L4.904,66.63v11.727l1.813,2.025H33.9l1.813-2.025V66.63
	L33.9,64.818"/>
<path fill="none" stroke="#000000" stroke-width="2" d="M7.782,66.63l-1.066,1.066v9.594l1.066,1.066h25.052L33.9,77.29v-9.594
	l-1.066-1.066H7.782"/>
</svg>
