<?xml version="1.0" encoding="utf-8"?>
<!-- Generator: Adobe Illustrator 14.0.0, SVG Export Plug-In . SVG Version: 6.00 Build 43363)  -->
<!DOCTYPE svg PUBLIC "-//W3C//DTD SVG 1.1//EN" "http://www.w3.org/Graphics/SVG/1.1/DTD/svg11.dtd">
<svg version="1.1" id="图层_1" xmlns="http://www.w3.org/2000/svg" xmlns:xlink="http://www.w3.org/1999/xlink" x="0px" y="0px"
	 width="144.749px" height="61.293px" viewBox="0 0 144.749 61.293" enable-background="new 0 0 144.749 61.293"
	 xml:space="preserve">
<path fill="#7F7F7F" d="M4.057,48.831h68.245v8.403H4.057V48.831z"/>
<path fill="#B2B2B2" d="M4.057,31.589h68.245v17.242H4.057V31.589z"/>
<path fill="#CCCCCC" d="M4.057,23.185h68.245v8.404H4.057V23.185z"/>
<path fill="none" stroke="#000000" stroke-width="2" d="M4.057,23.185h68.245v34.05H4.057V23.185"/>
<path fill="#666666" d="M26.66,48.831v8.403h1.594v-7.1h31.152v-1.304H26.66z"/>
<path fill="#999999" d="M59.406,31.589h-1.304v17.242h1.304V31.589z"/>
<path fill="#B2B2B2" stroke="#000000" stroke-width="2" d="M26.66,31.589h31.442v17.242H26.66V31.589z"/>
<path fill="#B2B2B2" d="M28.254,23.185H26.66v8.404h1.594V23.185z"/>
<path fill="#7F7F7F" d="M26.66,23.185H15.503v34.05H26.66V23.185z"/>
<path fill="#999999" d="M26.66,25.359H15.503v29.703H26.66V25.359z"/>
<path fill="#B2B2B2" d="M26.66,28.835H15.503v22.749H26.66V28.835z"/>
<path fill="#CCCCCC" d="M26.66,33.037H15.503v14.055H26.66V33.037z"/>
<path fill="#E5E5E5" d="M26.66,37.384H15.503v5.651H26.66V37.384z"/>
<path fill="none" stroke="#000000" stroke-width="2" d="M26.66,23.185H15.503v34.05H26.66V23.185"/>
<path fill="#B2B2B2" stroke="#000000" stroke-width="2" d="M26.66,23.909v-6.521h8.693l2.174-0.435l1.884-0.29l1.738-0.145
	l0.869-0.145h0.87h0.724l1.739,0.145l1.594,0.29l1.738,0.289l1.015,0.29v0.435v6.086l-1.884,0.435l-1.738,0.29l-1.594,0.289h-0.87
	h-0.724H41.15l-1.738-0.289l-1.884-0.29l-2.174-0.435H26.66z"/>
<path fill="#999999" d="M44.772,24.489l4.058-0.579v-6.521l-4.058-0.869V24.489z"/>
<path fill="#CCCCCC" d="M40.281,24.489l-4.347-0.579v-6.521l4.347-0.869V24.489z"/>
<path fill="#B2B2B2" stroke="#000000" stroke-width="2" d="M36.803,8.115h11.446v4.348H36.803V8.115z"/>
<path fill="#CCCCCC" stroke="#000000" stroke-width="2" d="M36.803,15.216h11.446v1.304H36.803V15.216z"/>
<path fill="#E5E5E5" stroke="#000000" stroke-width="2" d="M39.556,8.115h5.651v4.348h-5.651V8.115z"/>
<path fill="#FF6600" d="M61.579,4.059h78.968V9.42H61.579V4.059z"/>
<path fill="#D94000" d="M61.579,9.42h78.968v1.738H61.579V9.42z"/>
<path fill="#FF8C00" d="M61.579,5.943h78.968v1.594H61.579V5.943z"/>
<path fill="none" stroke="#000000" stroke-width="2" d="M61.579,4.059h78.968v7.1H61.579V4.059"/>
<path fill="#E5E5E5" stroke="#000000" stroke-width="2" d="M38.107,7.536h8.549v0.579h-8.549V7.536z"/>
<path fill="#E5E5E5" d="M32.456,17.389l0.145-1.304l0.725-0.869h1.594h18.257l1.304-1.015l0.725-1.015l0.725-1.159l0.869-1.159
	l0.725-1.014l1.015-0.869h1.594h1.159h0.289V8.55V6.377V5.943h-0.435h-3.912l-1.159,1.014L55.35,7.971L54.625,9.13l-0.87,1.304
	l-0.724,1.015l-1.015,1.015h-1.594H31.007l-0.869,0.869l-0.29,1.304l-0.145,1.304v0.436v0.289v0.435v0.29h0.29H32.456z"/>
<path fill="#B2B2B2" d="M32.456,17.389l0.145-1.304l0.725-0.869h1.594h18.257l1.304-1.015l0.725-1.015l0.725-1.159l0.869-1.159
	l0.725-1.014l1.015-0.869h1.594h1.159h0.289V8.55V7.826v-0.29H61.29h-3.188L56.798,8.55l-0.725,1.015l-0.869,1.159l-0.725,1.159
	l-0.869,1.015l-1.015,0.869l-1.594,0.145H33.181l-1.305,0.58l-0.724,1.594l-0.146,0.725v0.579h0.435H32.456z"/>
<path fill="none" stroke="#000000" stroke-width="2" d="M32.456,17.389l0.145-1.304l0.725-0.869h1.594h18.257l1.304-1.015
	l0.725-1.015l0.725-1.159l0.869-1.159l0.725-1.014l1.015-0.869h1.594h1.159h0.289V8.55V6.377V5.943h-0.435h-3.912l-1.159,1.014
	L55.35,7.971L54.625,9.13l-0.87,1.304l-0.724,1.015l-1.015,1.015h-1.594H31.007l-0.869,0.869l-0.29,1.304l-0.145,1.304v0.436v0.289
	v0.435v0.29h0.29H32.456"/>
</svg>
