<?xml version="1.0" encoding="utf-8"?>
<!-- Generator: Adobe Illustrator 14.0.0, SVG Export Plug-In . SVG Version: 6.00 Build 43363)  -->
<!DOCTYPE svg PUBLIC "-//W3C//DTD SVG 1.1//EN" "http://www.w3.org/Graphics/SVG/1.1/DTD/svg11.dtd">
<svg version="1.1" id="图层_1" xmlns="http://www.w3.org/2000/svg" xmlns:xlink="http://www.w3.org/1999/xlink" x="0px" y="0px"
	 width="97.013px" height="106.502px" viewBox="0 0 97.013 106.502" enable-background="new 0 0 97.013 106.502"
	 xml:space="preserve">
<path d="M20.042,33.369l2.025-3.945H37.1l2.025,3.945H20.042z"/>
<path fill="#999999" d="M48.506,103.41v-3.731h11.301V80.702H48.506v-3.731h-5.543v1.706H4.904l-1.919,7.676v7.676l1.919,7.676
	h38.06v1.706H48.506z"/>
<path fill="#B2B2B2" d="M48.506,99.679v-2.665h11.301V83.367H48.506v-2.665h-5.543v1.386H4.904l-1.919,5.438v5.437l1.919,5.225
	h38.06v1.492H48.506z"/>
<path fill="#CCCCCC" d="M48.506,95.841v-1.6h11.301V86.14H48.506v-1.6h-5.543v0.854H4.904l-1.919,3.198v3.198l1.919,3.198h38.06
	v0.853H48.506z"/>
<path fill="#E5E5E5" d="M48.506,92.003v-0.427h11.301v-2.771H48.506v-0.427h-5.543v0.214H4.904l-1.919,0.959v1.173l1.919,1.066
	h38.06v0.213H48.506z"/>
<path fill="none" stroke="#000000" stroke-width="2" d="M48.506,103.41v-3.731h11.301V80.702H48.506v-3.731h-5.543v1.706H4.904
	l-1.919,7.676v7.676l1.919,7.676h38.06v1.706H48.506"/>
<path fill="#FF4000" d="M44.775,33.369l3.731-30.384H90.19l3.838,30.384H44.775z"/>
<path fill="#FA3B00" d="M44.775,33.369l0.96-8.742l46.055-9.595l2.238,18.337H44.775z"/>
<path fill="#333333" d="M94.028,33.369H18.23V55.97v5.65h22.708v-5.65h15.244v-7.569h37.846V33.369z"/>
<path fill="#404040" d="M18.23,48.401h37.952v2.025H18.23V48.401z"/>
<path fill="none" stroke="#000000" stroke-width="2" d="M18.23,48.401h37.952"/>
<path fill="none" stroke="#999999" stroke-width="2" d="M18.23,50.426h37.952"/>
<path fill="#FF6633" d="M44.775,33.369l3.731-30.384h1.919l-1.919,30.384H44.775z"/>
<path fill="#E52600" d="M90.19,33.369L88.377,2.986h1.813l3.838,30.384H90.19z"/>
<path fill="none" stroke="#000000" stroke-width="2" d="M44.775,33.369l3.731-30.384H90.19l3.838,30.384H44.775"/>
<path fill="#333333" d="M23.774,25.694h11.514V10.555H2.985v7.463l20.789,2.025V25.694z"/>
<path fill="#4C4C4C" d="M25.906,25.694h7.463V10.555h-7.463V25.694z"/>
<path fill="#666666" d="M27.718,25.694h3.731V10.555h-3.731V25.694z"/>
<path fill="none" stroke="#000000" stroke-width="2" d="M23.774,25.694h11.514V10.555H2.985v7.463l20.789,2.025V25.694"/>
<path fill="none" stroke="#7F7F7F" stroke-width="2" d="M23.774,20.043v-7.676"/>
<path fill="#333333" d="M24.52,25.694h10.234v7.676H24.52V25.694z"/>
<path fill="#4C4C4C" d="M26.118,25.694h7.036v7.676h-7.036V25.694z"/>
<path fill="#666666" d="M27.824,25.694h3.411v7.676h-3.411V25.694z"/>
<path fill="#7F7F7F" d="M29.104,25.694h0.96v7.676h-0.96V25.694z"/>
<path fill="none" stroke="#000000" stroke-width="2" d="M24.52,25.694h10.234v7.676H24.52V25.694"/>
<path fill="none" stroke="#666666" stroke-width="2" d="M40.938,55.97H18.23"/>
<path fill="none" stroke="#000000" stroke-width="2" d="M94.028,33.369H18.23V55.97v5.65h22.708v-5.65h15.244v-7.569h37.846V33.369"
	/>
<path fill="#999999" d="M39.125,80.702V65.458H20.042v15.244l2.559,3.625l4.478,2.025h5.011l4.371-2.025L39.125,80.702z"/>
<path fill="#B2B2B2" d="M37.1,80.702V65.458H22.068v15.244l2.025,3.625l3.625,2.025h3.944l3.411-2.025L37.1,80.702z"/>
<path fill="#CCCCCC" d="M35.287,80.702V65.458H23.774v15.244l1.705,3.625l2.559,2.025h2.985l2.665-2.025L35.287,80.702z"/>
<path fill="#E5E5E5" d="M31.449,80.702V65.458h-3.731v15.244l0.533,3.625l0.853,2.025h0.96l0.959-2.025L31.449,80.702z"/>
<path fill="none" stroke="#000000" stroke-width="2" d="M39.125,80.702V65.458H20.042v15.244l2.559,3.625l4.478,2.025h5.011
	l4.371-2.025L39.125,80.702"/>
<path fill="#999999" stroke="#000000" stroke-width="2" d="M18.23,61.62h22.708v3.838H18.23V61.62z"/>
<path fill="none" stroke="#000000" stroke-width="2" d="M42.963,101.704V78.677"/>
<path fill="none" stroke="#000000" stroke-width="2" d="M48.506,80.702v18.977"/>
</svg>
