<?xml version="1.0" encoding="utf-8"?>
<!-- Generator: Adobe Illustrator 14.0.0, SVG Export Plug-In . SVG Version: 6.00 Build 43363)  -->
<!DOCTYPE svg PUBLIC "-//W3C//DTD SVG 1.1//EN" "http://www.w3.org/Graphics/SVG/1.1/DTD/svg11.dtd">
<svg version="1.1" id="图层_1" xmlns="http://www.w3.org/2000/svg" xmlns:xlink="http://www.w3.org/1999/xlink" x="0px" y="0px"
	 width="39.975px" height="106.502px" viewBox="0 0 39.975 106.502" enable-background="new 0 0 39.975 106.502"
	 xml:space="preserve">
<path fill="#FFF091" stroke="#000000" stroke-width="2" d="M18.868,43.178H21v14.816h-2.132V43.178z"/>
<path fill="#FFFFFF" d="M19.614,43.71h0.64v13.538h-0.64V43.71z"/>
<path fill="#333333" stroke="#000000" stroke-width="2" d="M18.441,52.345h2.771v1.492h-2.771V52.345z"/>
<path fill="#0000CC" stroke="#000000" stroke-width="2" d="M12.579,74.091h14.71v0.853h-14.71V74.091z"/>
<path fill="#0000CC" stroke="#000000" stroke-width="2" d="M15.67,38.167h8.422v0.746H15.67V38.167z"/>
<path fill="#0000CC" stroke="#000000" stroke-width="2" d="M17.802,38.913h4.265v4.265h-4.265V38.913z"/>
<path fill="#0000CC" stroke="#000000" stroke-width="2" d="M17.802,47.335h4.265v4.264h-4.265V47.335z"/>
<path fill="#0000CC" stroke="#000000" stroke-width="2" d="M16.416,51.599h7.036v0.746h-7.036V51.599z"/>
<path fill="#0000CC" stroke="#000000" stroke-width="2" d="M15.67,57.994h8.422v2.025H15.67V57.994z"/>
<path fill="#0000CC" stroke="#000000" stroke-width="2" d="M14.177,60.873h11.3v11.192h-11.3V60.873z"/>
<path fill="#0000FF" stroke="#000000" stroke-width="2" d="M7.355,103.406v-2.771l2.878-1.386h19.614l2.878,1.386v2.771H7.355z"/>
<path fill="#0000FF" stroke="#000000" stroke-width="2" d="M5.757,81.98l1.492-0.427l1.386-0.746l1.386-0.746l0.64-0.213
	l0.746-0.107h1.066h15.776l1.599,0.32l1.386,0.746l1.386,0.746l0.64,0.32l0.853,0.106v0.533v8.634l-1.492,0.32l-1.386,0.746
	l-1.386,0.64l-1.386,0.319v5.437v0.214h-0.213h-16.63v-5.65l-1.599-0.319l-1.279-0.64l-1.492-0.746l-0.64-0.214l-0.853-0.106v-0.64
	V81.98z"/>
<path fill="#0000FF" stroke="#000000" stroke-width="2" d="M11.406,74.944h16.843v4.797H11.406V74.944z"/>
<path fill="#0000FF" stroke="#000000" stroke-width="2" d="M11.406,72.066h16.843v2.025H11.406V72.066z"/>
<path fill="#0000FF" stroke="#000000" stroke-width="2" d="M11.833,70.68h2.025v1.386h-2.025V70.68z"/>
<path fill="#0000FF" stroke="#000000" stroke-width="2" d="M25.903,70.68h2.132v1.386h-2.132V70.68z"/>
<path fill="#0000FF" stroke="#000000" stroke-width="2" d="M18.868,70.68H21v1.386h-2.132V70.68z"/>
<path fill="#0000FF" stroke="#000000" stroke-width="2" d="M22.598,70.68h2.239v1.386h-2.239V70.68z"/>
<path fill="#0000FF" stroke="#000000" stroke-width="2" d="M15.03,70.68h2.025v1.386H15.03V70.68z"/>
<path fill="#0000FF" stroke="#000000" stroke-width="2" d="M34.111,79.74h2.771v13.432h-2.771V79.74z"/>
<path fill="#0000FF" stroke="#000000" stroke-width="2" d="M2.985,79.74h2.771v13.432H2.985V79.74z"/>
<path fill="#0000FF" stroke="#000000" stroke-width="2" d="M11.406,38.488l0.106-0.427l0.64-0.959l1.066-0.746l0.959-0.427
	l0.427-0.213v0.319v1.919l-1.066,0.319L13.219,38.7v0.213v23.346l0.106,0.426l0.213,0.32l0.32,0.106l1.065,0.106h10.873l0.746-0.426
	l0.106-0.32V38.913V38.7l-0.853-0.64l-0.533-0.106v-2.238l0.854,0.426l1.065,0.64l0.746,0.746l0.32,0.533v0.427v1.599v22.706
	l-0.214,0.959l-0.639,0.746l-0.854,0.427l-0.533,0.106h-0.532h-0.746H14.177l-0.959-0.106l-0.96-0.427l-0.64-0.746l-0.106-0.427
	l-0.106-0.532v-1.493V38.488z"/>
<path fill="#0000E5" stroke="#000000" stroke-width="2" d="M2.985,7.148h33.897V8.64H2.985V7.148z"/>
<path fill="#0000FF" stroke="#000000" stroke-width="2" d="M11.406,16.421l2.238,1.386v1.173v1.173l0.106,1.173v1.172l0.107,1.173
	v1.279v1.173l0.106,1.172v1.173v1.173v1.173l0.106,1.172v1.173l0.106,1.279v1.173v1.065l0.32,1.066l0.106,0.213l0.319,0.106v0.106
	h0.106h9.914v-0.106l0.213-0.106l0.32-1.279l0.746-18.868l2.025-1.386v-2.238H11.406V16.421z"/>
<path fill="#0000FF" stroke="#000000" stroke-width="2" d="M34.111,4.376v0.853v0.427v0.106v0.64v0.746h-0.106H5.863H5.757V6.402
	V4.376l0.532-0.96l0.64-0.426h0.214h1.599h23.771l1.066,0.426L34.111,4.376z"/>
<path fill="#0000CC" stroke="#000000" stroke-width="2" d="M13.644,17.807l-2.238-1.386h16.843l-2.025,1.386H13.644z"/>
<path fill="#0000CC" stroke="#000000" stroke-width="2" d="M2.985,8.64h33.897v1.386H2.985V8.64z"/>
<path fill="#0000CC" stroke="#000000" stroke-width="2" d="M5.757,12.797v-0.746v-0.533v-0.106v-0.64v-0.746h0.106h28.142h0.106
	v0.746v2.025l-0.532,1.066l-0.64,0.319h-0.214h-1.599H7.142l-0.854-0.319L5.757,12.797z"/>
<path fill="#4C4CFF" stroke="#000000" stroke-width="2" d="M22.066,31.132h-4.265l-0.959-0.427l-0.427-1.065l0.427-0.96l0.959-0.426
	h4.265l0.959,0.426l0.427,0.96l-0.427,1.065L22.066,31.132z"/>
<ellipse fill="#00007F" stroke="#000000" stroke-width="2" cx="22.066" cy="29.746" rx="0.426" ry="0.213"/>
<circle fill="#00007F" stroke="#000000" stroke-width="2" cx="17.695" cy="29.746" r="0.32"/>
<path fill="#00007F" stroke="#000000" stroke-width="2" d="M16.416,60.02h7.036v0.854h-7.036V60.02z"/>
<ellipse fill="#4C4CFF" cx="19.72" cy="85.711" rx="11.087" ry="5.223"/>
<path fill="#4C4CFF" d="M3.411,80.167H5.33v2.771H3.411V80.167z"/>
<path fill="#4C4CFF" d="M34.325,80.167h2.238v2.771h-2.238V80.167z"/>
<path fill="#4C4CFF" stroke="#000000" stroke-width="2" d="M3.731,7.148h1.492V6.615H3.731V7.148z"/>
<path fill="#4C4CFF" stroke="#000000" stroke-width="2" d="M34.751,7.148h1.386V6.615h-1.386V7.148z"/>
<path fill="#4C4CFF" stroke="#000000" stroke-width="2" d="M19.187,7.148h1.493V6.615h-1.493V7.148z"/>
<path fill="#4C4CFF" stroke="#000000" stroke-width="2" d="M8.635,7.148h1.386V6.615H8.635V7.148z"/>
<path fill="#4C4CFF" stroke="#000000" stroke-width="2" d="M13.644,7.148h1.386V6.615h-1.386V7.148z"/>
<path fill="#4C4CFF" stroke="#000000" stroke-width="2" d="M24.838,7.148h1.386V6.615h-1.386V7.148z"/>
<path fill="#4C4CFF" stroke="#000000" stroke-width="2" d="M29.847,7.148h1.492V6.615h-1.492V7.148z"/>
<path fill="#0000CC" stroke="#000000" stroke-width="2" d="M3.731,10.772h1.492v-0.746H3.731V10.772z"/>
<path fill="#0000CC" stroke="#000000" stroke-width="2" d="M34.751,10.772h1.386v-0.746h-1.386V10.772z"/>
<path fill="#0000CC" stroke="#000000" stroke-width="2" d="M19.187,10.772h1.493v-0.746h-1.493V10.772z"/>
<path fill="#0000CC" stroke="#000000" stroke-width="2" d="M8.635,10.772h1.386v-0.746H8.635V10.772z"/>
<path fill="#0000CC" stroke="#000000" stroke-width="2" d="M13.644,10.772h1.386v-0.746h-1.386V10.772z"/>
<path fill="#0000CC" stroke="#000000" stroke-width="2" d="M24.838,10.772h1.386v-0.746h-1.386V10.772z"/>
<path fill="#0000CC" stroke="#000000" stroke-width="2" d="M29.847,10.772h1.492v-0.746h-1.492V10.772z"/>
<path fill="#0000CC" d="M11.833,94.025h16.202v4.371H11.833V94.025z"/>
<path fill="#0000CC" d="M34.325,88.588h2.238v4.158h-2.238V88.588z"/>
<path fill="#0000CC" d="M3.411,88.588H5.33v4.158H3.411V88.588z"/>
<path fill="#0000B2" stroke="#000000" stroke-width="2" d="M11.833,98.823h16.202v0.426H11.833V98.823z"/>
<path fill="none" stroke="#000000" stroke-width="2" d="M7.355,100.634h25.37"/>
<path fill="none" stroke="#000000" stroke-width="2" d="M14.39,100.634l0.64-1.386"/>
<path fill="none" stroke="#000000" stroke-width="2" d="M25.69,100.634l-0.853-1.386"/>
<path fill="none" stroke="#000000" stroke-width="2" d="M20.041,100.634v-1.386"/>
<path fill="none" stroke="#000000" stroke-width="2" d="M8.741,100.634l1.706-1.386"/>
<path fill="none" stroke="#000000" stroke-width="2" d="M31.34,100.634l-2.238-1.386"/>
</svg>
