<?xml version="1.0" encoding="utf-8"?>
<!-- Generator: Adobe Illustrator 14.0.0, SVG Export Plug-In . SVG Version: 6.00 Build 43363)  -->
<!DOCTYPE svg PUBLIC "-//W3C//DTD SVG 1.1//EN" "http://www.w3.org/Graphics/SVG/1.1/DTD/svg11.dtd">
<svg version="1.1" id="图层_1" xmlns="http://www.w3.org/2000/svg" xmlns:xlink="http://www.w3.org/1999/xlink" x="0px" y="0px"
	 width="43.603px" height="106.502px" viewBox="0 0 43.603 106.502" enable-background="new 0 0 43.603 106.502"
	 xml:space="preserve">
<path fill="#FFF091" stroke="#000000" stroke-width="2" d="M20.682,47.761h2.346v16.524h-2.346V47.761z"/>
<path fill="#FFFFFF" d="M21.429,48.401h0.853v15.032h-0.853V48.401z"/>
<path fill="#0000CC" stroke="#000000" stroke-width="2" d="M13.646,82.302h16.418v0.64H13.646V82.302z"/>
<path fill="#0000CC" stroke="#000000" stroke-width="2" d="M17.058,42.111h9.381v0.853h-9.381V42.111z"/>
<path fill="#0000CC" stroke="#000000" stroke-width="2" d="M19.403,42.963h4.691v4.798h-4.691V42.963z"/>
<path fill="#0000CC" stroke="#000000" stroke-width="2" d="M19.403,52.345h4.691v4.904h-4.691V52.345z"/>
<path fill="#0000CC" stroke="#000000" stroke-width="2" d="M17.804,57.249h7.889v0.533h-7.889V57.249z"/>
<path fill="#0000CC" stroke="#000000" stroke-width="2" d="M17.058,64.285h9.381v2.132h-9.381V64.285z"/>
<path fill="#0000CC" stroke="#000000" stroke-width="2" d="M15.458,67.271h12.579v12.687H15.458V67.271z"/>
<path fill="#0000FF" stroke="#000000" stroke-width="2" d="M12.367,42.537l1.919-2.239l1.066-0.533l0.427-0.213v0.213v2.025
	l-1.386,2.772V69.19l0.427,0.746l0.426,0.106h13.113l0.959-2.771V42.963l-0.105-0.319l-1.279-0.854h-0.214v-2.238l2.772,1.599
	l0.639,0.854l0.214,0.533v0.853v26.332l-2.132,2.239l-0.533,0.106h-0.641h-0.746H15.458l-2.772-1.386l-0.213-0.427l-0.106-0.533
	v-0.959V42.537z"/>
<path fill="#0000E5" stroke="#000000" stroke-width="2" d="M2.985,7.57h37.527v1.599H2.985V7.57z"/>
<path fill="#0000FF" stroke="#000000" stroke-width="2" d="M12.367,17.804l2.452,1.599v1.386l0.106,1.279v1.279v1.387l0.106,1.279
	v1.386l0.107,1.279v1.279v1.386v1.279l0.106,1.386v1.386l0.106,1.279v1.387v1.279l0.107,1.386l0.213,1.065l0.107,0.214l0.32,0.106
	h0.106l0,0h11.087l0.427-0.106l0.319-1.279l0.854-21.322l2.452-1.599v-2.133H12.367V17.804z"/>
<path fill="#0000FF" stroke="#000000" stroke-width="2" d="M37.526,4.584v0.959V5.97v0.214v0.64v0.959H37.42H6.29H6.184V6.823
	l0.213-3.092L7.25,2.985h0.32h0.853h27.505L37.526,4.584z"/>
<path fill="#0000CC" stroke="#000000" stroke-width="2" d="M14.819,19.403l-2.452-1.599h18.977l-2.452,1.599H14.819z"/>
<path fill="#0000CC" stroke="#000000" stroke-width="2" d="M2.985,9.168h37.527v1.6H2.985V9.168z"/>
<path fill="#0000CC" stroke="#000000" stroke-width="2" d="M6.184,13.966v-0.854V12.58v-0.107v-0.746v-0.959H6.29h31.13h0.105v0.959
	l-0.319,3.092l-0.96,0.746l-0.319,0.106h-0.853H7.569L6.184,13.966z"/>
<ellipse fill="#4C4CFF" stroke="#000000" stroke-width="2" cx="21.749" cy="32.836" rx="3.944" ry="1.493"/>
<circle fill="#00007F" stroke="#000000" stroke-width="2" cx="24.094" cy="32.836" r="0.213"/>
<circle fill="#00007F" stroke="#000000" stroke-width="2" cx="19.403" cy="32.836" r="0.32"/>
<path fill="#00007F" stroke="#000000" stroke-width="2" d="M17.804,66.417h7.889v0.854h-7.889V66.417z"/>
<path fill="#333333" stroke="#000000" stroke-width="2" d="M20.256,57.782h3.198v1.599h-3.198V57.782z"/>
<path fill="#0000FF" stroke="#000000" stroke-width="2" d="M6.184,90.938l3.091-1.173l2.239-1.066l0.853-0.106h1.173h17.804
	l2.985,1.173l2.345,1.066l0.853,0.106v0.746v9.382l-3.197,1.173l-2.239,1.065l-0.746,0.106h-1.279H12.367l-3.092-1.172l-2.345-1.066
	l-0.746-0.106v-0.746V90.938z"/>
<path fill="#0000FF" stroke="#000000" stroke-width="2" d="M12.367,82.942h18.977v5.65H12.367V82.942z"/>
<path fill="#0000FF" stroke="#000000" stroke-width="2" d="M12.367,79.957h18.977v2.345H12.367V79.957z"/>
<path fill="#0000FF" stroke="#000000" stroke-width="2" d="M12.793,78.358h2.239v1.6h-2.239V78.358z"/>
<path fill="#0000FF" stroke="#000000" stroke-width="2" d="M28.465,78.358h2.451v1.6h-2.451V78.358z"/>
<path fill="#0000FF" stroke="#000000" stroke-width="2" d="M20.682,78.358h2.346v1.6h-2.346V78.358z"/>
<path fill="#0000FF" stroke="#000000" stroke-width="2" d="M24.84,78.358h2.451v1.6H24.84V78.358z"/>
<path fill="#0000FF" stroke="#000000" stroke-width="2" d="M16.205,78.358h2.452v1.6h-2.452V78.358z"/>
<path fill="#0000FF" stroke="#000000" stroke-width="2" d="M37.526,88.592h2.986v14.818h-2.986V88.592z"/>
<path fill="#0000FF" stroke="#000000" stroke-width="2" d="M2.985,88.592h3.198v14.818H2.985V88.592z"/>
<ellipse fill="#4C4CFF" cx="21.535" cy="95.202" rx="12.367" ry="5.864"/>
<path fill="#4C4CFF" d="M3.412,89.019h2.345v2.984H3.412V89.019z"/>
<path fill="#4C4CFF" d="M37.953,89.019h2.132v2.984h-2.132V89.019z"/>
<path fill="#4C4CFF" stroke="#000000" stroke-width="2" d="M3.731,7.57h1.599V6.93H3.731V7.57z"/>
<path fill="#4C4CFF" stroke="#000000" stroke-width="2" d="M38.379,7.57h1.6V6.93h-1.6V7.57z"/>
<path fill="#4C4CFF" stroke="#000000" stroke-width="2" d="M21.002,7.57h1.599V6.93h-1.599V7.57z"/>
<path fill="#4C4CFF" stroke="#000000" stroke-width="2" d="M9.168,7.57h1.599V6.93H9.168V7.57z"/>
<path fill="#4C4CFF" stroke="#000000" stroke-width="2" d="M14.819,7.57h1.386V6.93h-1.386V7.57z"/>
<path fill="#4C4CFF" stroke="#000000" stroke-width="2" d="M27.292,7.57h1.6V6.93h-1.6V7.57z"/>
<path fill="#4C4CFF" stroke="#000000" stroke-width="2" d="M32.729,7.57h1.6V6.93h-1.6V7.57z"/>
<path fill="#0000CC" stroke="#000000" stroke-width="2" d="M3.731,11.62h1.599v-0.853H3.731V11.62z"/>
<path fill="#0000CC" stroke="#000000" stroke-width="2" d="M38.379,11.62h1.6v-0.853h-1.6V11.62z"/>
<path fill="#0000CC" stroke="#000000" stroke-width="2" d="M21.002,11.62h1.599v-0.853h-1.599V11.62z"/>
<path fill="#0000CC" stroke="#000000" stroke-width="2" d="M9.168,11.62h1.599v-0.853H9.168V11.62z"/>
<path fill="#0000CC" stroke="#000000" stroke-width="2" d="M14.819,11.62h1.386v-0.853h-1.386V11.62z"/>
<path fill="#0000CC" stroke="#000000" stroke-width="2" d="M27.292,11.62h1.6v-0.853h-1.6V11.62z"/>
<path fill="#0000CC" stroke="#000000" stroke-width="2" d="M32.729,11.62h1.6v-0.853h-1.6V11.62z"/>
<path fill="#0000CC" d="M3.412,98.4h2.345v4.585H3.412V98.4z"/>
<path fill="#0000CC" d="M37.953,98.4h2.132v4.585h-2.132V98.4z"/>
</svg>
