<?xml version="1.0" encoding="utf-8"?>
<!-- Generator: Adobe Illustrator 14.0.0, SVG Export Plug-In . SVG Version: 6.00 Build 43363)  -->
<!DOCTYPE svg PUBLIC "-//W3C//DTD SVG 1.1//EN" "http://www.w3.org/Graphics/SVG/1.1/DTD/svg11.dtd">
<svg version="1.1" id="图层_1" xmlns="http://www.w3.org/2000/svg" xmlns:xlink="http://www.w3.org/1999/xlink" x="0px" y="0px"
	 width="121.781px" height="106.502px" viewBox="0 0 121.781 106.502" enable-background="new 0 0 121.781 106.502"
	 xml:space="preserve">
<path fill="#7F7F7F" d="M24.174,51.997h73.433V90.31H24.174V51.997z"/>
<path fill="#999999" d="M24.174,54.278h73.433V88.03H24.174V54.278z"/>
<path fill="#B2B2B2" d="M24.174,58.382h73.433v25.542H24.174V58.382z"/>
<path fill="#CCCCCC" d="M24.174,62.488h73.433v17.56H24.174V62.488z"/>
<path fill="#E5E5E5" d="M24.174,65.452h73.433v11.402H24.174V65.452z"/>
<path fill="#FFFFFF" d="M24.174,68.873h73.433v4.561H24.174V68.873z"/>
<path fill="none" stroke="#000000" stroke-width="2" d="M24.174,90.31h73.433"/>
<path fill="none" stroke="#000000" stroke-width="2" d="M97.607,51.997H24.174"/>
<path fill="#7F7F7F" stroke="#000000" stroke-width="2" d="M24.402,52.453l2.965-1.141v-7.981l-2.965-1.369V52.453z"/>
<path fill="#7F7F7F" stroke="#000000" stroke-width="2" d="M24.402,76.399l2.965-1.141v-7.981l-2.965-1.368V76.399z"/>
<path fill="#7F7F7F" stroke="#000000" stroke-width="2" d="M24.402,100.344l2.965-1.14v-7.982l-2.965-1.368V100.344z"/>
<path fill="#7F7F7F" stroke="#000000" stroke-width="2" d="M6.386,52.453l-2.965-1.141v-7.981l2.965-1.369V52.453z"/>
<path fill="#7F7F7F" stroke="#000000" stroke-width="2" d="M6.386,76.399l-2.965-1.141v-7.981l2.965-1.368V76.399z"/>
<path fill="#7F7F7F" stroke="#000000" stroke-width="2" d="M6.386,100.344l-2.965-1.14v-7.982l2.965-1.368V100.344z"/>
<path fill="#B2B2B2" stroke="#000000" stroke-width="2" d="M24.402,50.628l2.965-0.684v-6.613l-2.965-1.369V50.628z"/>
<path fill="#B2B2B2" stroke="#000000" stroke-width="2" d="M24.402,74.574l2.965-0.685v-6.613l-2.965-1.368V74.574z"/>
<path fill="#B2B2B2" stroke="#000000" stroke-width="2" d="M24.402,98.52l2.965-0.684v-6.614l-2.965-1.368V98.52z"/>
<path fill="#B2B2B2" stroke="#000000" stroke-width="2" d="M6.386,50.628l-2.965-0.684v-6.613l2.965-1.369V50.628z"/>
<path fill="#B2B2B2" stroke="#000000" stroke-width="2" d="M6.386,74.574L3.421,73.89v-6.613l2.965-1.368V74.574z"/>
<path fill="#B2B2B2" stroke="#000000" stroke-width="2" d="M6.386,98.52l-2.965-0.684v-6.614l2.965-1.368V98.52z"/>
<path fill="#7F7F7F" d="M6.386,39.226h9.122v63.855H6.386V39.226z"/>
<path fill="#999999" d="M6.386,43.103h9.122v56.102H6.386V43.103z"/>
<path fill="#B2B2B2" d="M6.386,49.945h9.122V92.59H6.386V49.945z"/>
<path fill="#CCCCCC" d="M6.386,56.558h9.122v29.419H6.386V56.558z"/>
<path fill="#E5E5E5" d="M6.386,61.803h9.122v18.701H6.386V61.803z"/>
<path fill="#FFFFFF" d="M6.386,67.277h9.122v7.754H6.386V67.277z"/>
<path fill="none" stroke="#000000" stroke-width="2" d="M6.386,39.226h9.122v63.855H6.386V39.226"/>
<path fill="#E5E5E5" stroke="#000000" stroke-width="2" d="M3.421,44.471v-1.14l2.965-1.369v2.053L3.421,44.471z"/>
<path fill="#E5E5E5" stroke="#000000" stroke-width="2" d="M3.421,68.417v-1.141l2.965-1.368v2.053L3.421,68.417z"/>
<path fill="#E5E5E5" stroke="#000000" stroke-width="2" d="M3.421,92.363v-1.141l2.965-1.368v1.824L3.421,92.363z"/>
<path fill="#E5E5E5" stroke="#000000" stroke-width="2" d="M27.367,44.471v-1.14l-2.965-1.369v2.053L27.367,44.471z"/>
<path fill="#E5E5E5" stroke="#000000" stroke-width="2" d="M27.367,68.417v-1.141l-2.965-1.368v2.053L27.367,68.417z"/>
<path fill="#E5E5E5" stroke="#000000" stroke-width="2" d="M27.367,92.363v-1.141l-2.965-1.368v1.824L27.367,92.363z"/>
<path fill="#7F7F7F" d="M24.402,39.226h-8.894v63.855h8.894V39.226z"/>
<path fill="#999999" d="M24.402,43.103h-8.894v56.102h8.894V43.103z"/>
<path fill="#B2B2B2" d="M24.402,49.945h-8.894V92.59h8.894V49.945z"/>
<path fill="#CCCCCC" d="M24.402,56.558h-8.894v29.419h8.894V56.558z"/>
<path fill="#E5E5E5" d="M24.402,61.803h-8.894v18.701h8.894V61.803z"/>
<path fill="#FFFFFF" d="M24.402,67.277h-8.894v7.754h8.894V67.277z"/>
<path fill="none" stroke="#000000" stroke-width="2" d="M24.402,39.226h-8.894v63.855h8.894V39.226"/>
<path fill="#7F7F7F" stroke="#000000" stroke-width="2" d="M115.396,52.453l2.964-1.141v-7.981l-2.964-1.369V52.453z"/>
<path fill="#7F7F7F" stroke="#000000" stroke-width="2" d="M115.396,76.399l2.964-1.141v-7.981l-2.964-1.368V76.399z"/>
<path fill="#7F7F7F" stroke="#000000" stroke-width="2" d="M115.396,100.344l2.964-1.14v-7.982l-2.964-1.368V100.344z"/>
<path fill="#7F7F7F" stroke="#000000" stroke-width="2" d="M97.378,52.453l-2.964-1.141v-7.981l2.964-1.369V52.453z"/>
<path fill="#7F7F7F" stroke="#000000" stroke-width="2" d="M97.378,76.399l-2.964-1.141v-7.981l2.964-1.368V76.399z"/>
<path fill="#7F7F7F" stroke="#000000" stroke-width="2" d="M97.378,100.344l-2.964-1.14v-7.982l2.964-1.368V100.344z"/>
<path fill="#B2B2B2" stroke="#000000" stroke-width="2" d="M115.396,50.628l2.964-0.684v-6.613l-2.964-1.369V50.628z"/>
<path fill="#B2B2B2" stroke="#000000" stroke-width="2" d="M115.396,74.574l2.964-0.685v-6.613l-2.964-1.368V74.574z"/>
<path fill="#B2B2B2" stroke="#000000" stroke-width="2" d="M115.396,98.52l2.964-0.684v-6.614l-2.964-1.368V98.52z"/>
<path fill="#B2B2B2" stroke="#000000" stroke-width="2" d="M97.378,50.628l-2.964-0.684v-6.613l2.964-1.369V50.628z"/>
<path fill="#B2B2B2" stroke="#000000" stroke-width="2" d="M97.378,74.574l-2.964-0.685v-6.613l2.964-1.368V74.574z"/>
<path fill="#B2B2B2" stroke="#000000" stroke-width="2" d="M97.378,98.52l-2.964-0.684v-6.614l2.964-1.368V98.52z"/>
<path fill="#7F7F7F" d="M97.378,39.226h8.895v63.855h-8.895V39.226z"/>
<path fill="#999999" d="M97.378,43.103h8.895v56.102h-8.895V43.103z"/>
<path fill="#B2B2B2" d="M97.378,49.945h8.895V92.59h-8.895V49.945z"/>
<path fill="#CCCCCC" d="M97.378,56.558h8.895v29.419h-8.895V56.558z"/>
<path fill="#E5E5E5" d="M97.378,61.803h8.895v18.701h-8.895V61.803z"/>
<path fill="#FFFFFF" d="M97.378,67.277h8.895v7.754h-8.895V67.277z"/>
<path fill="none" stroke="#000000" stroke-width="2" d="M97.378,39.226h8.895v63.855h-8.895V39.226"/>
<path fill="#E5E5E5" stroke="#000000" stroke-width="2" d="M94.415,44.471v-1.14l2.964-1.369v2.053L94.415,44.471z"/>
<path fill="#E5E5E5" stroke="#000000" stroke-width="2" d="M94.415,68.417v-1.141l2.964-1.368v2.053L94.415,68.417z"/>
<path fill="#E5E5E5" stroke="#000000" stroke-width="2" d="M94.415,92.363v-1.141l2.964-1.368v1.824L94.415,92.363z"/>
<path fill="#E5E5E5" stroke="#000000" stroke-width="2" d="M118.36,44.471v-1.14l-2.964-1.369v2.053L118.36,44.471z"/>
<path fill="#E5E5E5" stroke="#000000" stroke-width="2" d="M118.36,68.417v-1.141l-2.964-1.368v2.053L118.36,68.417z"/>
<path fill="#E5E5E5" stroke="#000000" stroke-width="2" d="M118.36,92.363v-1.141l-2.964-1.368v1.824L118.36,92.363z"/>
<path fill="#7F7F7F" d="M115.396,39.226h-9.123v63.855h9.123V39.226z"/>
<path fill="#999999" d="M115.396,43.103h-9.123v56.102h9.123V43.103z"/>
<path fill="#B2B2B2" d="M115.396,49.945h-9.123V92.59h9.123V49.945z"/>
<path fill="#CCCCCC" d="M115.396,56.558h-9.123v29.419h9.123V56.558z"/>
<path fill="#E5E5E5" d="M115.396,61.803h-9.123v18.701h9.123V61.803z"/>
<path fill="#FFFFFF" d="M115.396,67.277h-9.123v7.754h9.123V67.277z"/>
<path fill="none" stroke="#000000" stroke-width="2" d="M115.396,39.226h-9.123v63.855h9.123V39.226"/>
<path fill="#4C4C4C" stroke="#000000" stroke-width="2" d="M28.051,42.875l27.138-26.911l-5.701-5.701L22.349,37.402L28.051,42.875z
	"/>
<path fill="#666666" stroke="#000000" stroke-width="2" d="M20.069,35.121L47.207,7.983l2.281,2.28L22.349,37.402L20.069,35.121z"/>
<path fill="#999999" stroke="#000000" stroke-width="2" d="M22.349,32.84l6.842-6.841l-3.421-3.421l-6.841,6.841L22.349,32.84z"/>
<path fill="#B2B2B2" stroke="#000000" stroke-width="2" d="M25.77,22.578l11.403-11.175l3.193,3.421L29.191,25.999L25.77,22.578z"/>
<path fill="#CCCCCC" stroke="#000000" stroke-width="2" d="M37.173,11.404l4.333-4.562l3.421,3.421l-4.561,4.562L37.173,11.404z"/>
<path fill="#7F7F7F" d="M22.349,3.421l11.403,11.403l-6.842,6.613L15.508,10.263L22.349,3.421z"/>
<path fill="#999999" d="M21.893,3.877l11.403,11.175l-5.929,6.157L15.964,9.807L21.893,3.877z"/>
<path fill="#B2B2B2" d="M21.209,4.562l11.403,11.402l-4.561,4.333L16.648,9.122L21.209,4.562z"/>
<path fill="#CCCCCC" d="M20.525,5.246l11.403,11.402l-3.193,2.965L17.56,8.439L20.525,5.246z"/>
<path fill="#E5E5E5" d="M20.069,5.93l11.174,11.175l-2.052,2.053L18.016,7.754L20.069,5.93z"/>
<path fill="#FFFFFF" d="M19.385,6.386l11.402,11.403l-0.912,0.684L18.7,7.298L19.385,6.386z"/>
<path fill="none" stroke="#000000" stroke-width="2" d="M15.736,10.263l6.613-6.842l11.403,11.403l-6.842,6.613L15.736,10.263"/>
<path fill="#7F7F7F" d="M58.382,73.434L28.051,43.103l27.138-27.139l36.033,36.033l-9.578,21.665L58.382,73.434z"/>
<path fill="#999999" d="M61.575,73.434L29.647,41.279l23.718-23.718L90.31,54.278l-8.666,19.156H61.575z"/>
<path fill="#B2B2B2" d="M67.276,73.662l-34.664-35.12l18.016-18.017l38.313,37.856l-7.297,15.052L67.276,73.662z"/>
<path fill="#CCCCCC" d="M72.75,73.662L35.348,35.577l12.315-12.315l39.454,39.226l-5.473,10.946L72.75,73.662z"/>
<path fill="#E5E5E5" d="M77.539,73.434l-39.91-39.909l7.982-7.982l39.909,39.91l-3.876,7.981H77.539z"/>
<path fill="#FFFFFF" d="M82.328,73.662L39.91,31.244l3.42-3.421l40.593,41.05L82.328,73.662z"/>
<path fill="none" stroke="#000000" stroke-width="2" d="M55.189,15.964l36.033,36.033"/>
<path fill="none" stroke="#000000" stroke-width="2" d="M58.382,73.434L28.051,43.103"/>
</svg>
