<?xml version="1.0" encoding="utf-8"?>
<!-- Generator: Adobe Illustrator 14.0.0, SVG Export Plug-In . SVG Version: 6.00 Build 43363)  -->
<!DOCTYPE svg PUBLIC "-//W3C//DTD SVG 1.1//EN" "http://www.w3.org/Graphics/SVG/1.1/DTD/svg11.dtd">
<svg version="1.1" id="图层_1" xmlns="http://www.w3.org/2000/svg" xmlns:xlink="http://www.w3.org/1999/xlink" x="0px" y="0px"
	 width="92.851px" height="106.502px" viewBox="0 0 92.851 106.502" enable-background="new 0 0 92.851 106.502"
	 xml:space="preserve">
<path fill="#7F7F7F" d="M47.439,21.111v64.175H14.072V21.111H47.439z"/>
<path fill="#999999" d="M45.52,21.111v64.175H16.097V21.111H45.52z"/>
<path fill="#B2B2B2" d="M41.895,21.111v64.175h-22.28V21.111H41.895z"/>
<path fill="#CCCCCC" d="M38.377,21.111v64.175H23.026V21.111H38.377z"/>
<path fill="#E5E5E5" d="M35.712,21.111v64.175h-9.914V21.111H35.712z"/>
<path fill="#FFFFFF" d="M32.833,21.111v64.175h-4.051V21.111H32.833z"/>
<path fill="none" stroke="#000000" stroke-width="2" d="M14.072,21.111v64.175"/>
<path fill="none" stroke="#000000" stroke-width="2" d="M47.439,85.285V21.111"/>
<path fill="#7F7F7F" stroke="#000000" stroke-width="2" d="M47.119,21.323l0.959,2.559h6.93l1.279-2.559H47.119z"/>
<path fill="#7F7F7F" stroke="#000000" stroke-width="2" d="M26.224,21.323l0.959,2.559h7.036l1.172-2.559H26.224z"/>
<path fill="#7F7F7F" stroke="#000000" stroke-width="2" d="M5.33,21.323l1.066,2.559h6.929l1.173-2.559H5.33z"/>
<path fill="#7F7F7F" stroke="#000000" stroke-width="2" d="M47.119,5.546l0.959-2.559h6.93l1.279,2.559H47.119z"/>
<path fill="#7F7F7F" stroke="#000000" stroke-width="2" d="M26.224,5.546l0.959-2.559h7.036l1.172,2.559H26.224z"/>
<path fill="#7F7F7F" stroke="#000000" stroke-width="2" d="M5.33,5.546l1.066-2.559h6.929l1.173,2.559H5.33z"/>
<path fill="#B2B2B2" stroke="#000000" stroke-width="2" d="M48.718,21.323l0.532,2.559h5.757l1.279-2.559H48.718z"/>
<path fill="#B2B2B2" stroke="#000000" stroke-width="2" d="M27.823,21.323l0.64,2.559h5.757l1.172-2.559H27.823z"/>
<path fill="#B2B2B2" stroke="#000000" stroke-width="2" d="M6.929,21.323l0.64,2.559h5.756l1.173-2.559H6.929z"/>
<path fill="#B2B2B2" stroke="#000000" stroke-width="2" d="M48.718,5.546l0.532-2.559h5.757l1.279,2.559H48.718z"/>
<path fill="#B2B2B2" stroke="#000000" stroke-width="2" d="M27.823,5.546l0.64-2.559h5.757l1.172,2.559H27.823z"/>
<path fill="#B2B2B2" stroke="#000000" stroke-width="2" d="M6.929,5.546l0.64-2.559h5.756l1.173,2.559H6.929z"/>
<path fill="#7F7F7F" d="M58.632,5.546v7.995H2.985V5.546H58.632z"/>
<path fill="#999999" d="M55.22,5.546v7.995H6.396V5.546H55.22z"/>
<path fill="#B2B2B2" d="M49.25,5.546v7.995H12.153V5.546H49.25z"/>
<path fill="#CCCCCC" d="M43.494,5.546v7.995H17.909V5.546H43.494z"/>
<path fill="#E5E5E5" d="M38.91,5.546v7.995H22.6V5.546H38.91z"/>
<path fill="#FFFFFF" d="M34.22,5.546v7.995h-6.823V5.546H34.22z"/>
<path fill="none" stroke="#000000" stroke-width="2" d="M58.632,5.546v7.995H2.985V5.546H58.632"/>
<path fill="#E5E5E5" stroke="#000000" stroke-width="2" d="M54.048,2.988h0.959l1.279,2.559h-1.813L54.048,2.988z"/>
<path fill="#E5E5E5" stroke="#000000" stroke-width="2" d="M33.153,2.988h1.066l1.172,2.559H33.58L33.153,2.988z"/>
<path fill="#E5E5E5" stroke="#000000" stroke-width="2" d="M12.259,2.988h1.066l1.173,2.559h-1.599L12.259,2.988z"/>
<path fill="#E5E5E5" stroke="#000000" stroke-width="2" d="M54.048,23.882h0.959l1.279-2.559h-1.813L54.048,23.882z"/>
<path fill="#E5E5E5" stroke="#000000" stroke-width="2" d="M33.153,23.882h1.066l1.172-2.559H33.58L33.153,23.882z"/>
<path fill="#E5E5E5" stroke="#000000" stroke-width="2" d="M12.259,23.882h1.066l1.173-2.559h-1.599L12.259,23.882z"/>
<path fill="#7F7F7F" d="M58.632,21.323v-7.782H2.985v7.782H58.632z"/>
<path fill="#999999" d="M55.22,21.323v-7.782H6.396v7.782H55.22z"/>
<path fill="#B2B2B2" d="M49.25,21.323v-7.782H12.153v7.782H49.25z"/>
<path fill="#CCCCCC" d="M43.494,21.323v-7.782H17.909v7.782H43.494z"/>
<path fill="#E5E5E5" d="M38.91,21.323v-7.782H22.6v7.782H38.91z"/>
<path fill="#FFFFFF" d="M34.22,21.323v-7.782h-6.823v7.782H34.22z"/>
<path fill="none" stroke="#000000" stroke-width="2" d="M58.632,21.323v-7.782H2.985v7.782H58.632"/>
<path fill="#7F7F7F" stroke="#000000" stroke-width="2" d="M47.119,100.85l0.959,2.558h6.93l1.279-2.558H47.119z"/>
<path fill="#7F7F7F" stroke="#000000" stroke-width="2" d="M26.224,100.85l0.959,2.558h7.036l1.172-2.558H26.224z"/>
<path fill="#7F7F7F" stroke="#000000" stroke-width="2" d="M5.33,100.85l1.066,2.558h6.929l1.173-2.558H5.33z"/>
<path fill="#7F7F7F" stroke="#000000" stroke-width="2" d="M47.119,85.073l0.959-2.559h6.93l1.279,2.559H47.119z"/>
<path fill="#7F7F7F" stroke="#000000" stroke-width="2" d="M26.224,85.073l0.959-2.559h7.036l1.172,2.559H26.224z"/>
<path fill="#7F7F7F" stroke="#000000" stroke-width="2" d="M5.33,85.073l1.066-2.559h6.929l1.173,2.559H5.33z"/>
<path fill="#B2B2B2" stroke="#000000" stroke-width="2" d="M48.718,100.85l0.532,2.558h5.757l1.279-2.558H48.718z"/>
<path fill="#B2B2B2" stroke="#000000" stroke-width="2" d="M27.823,100.85l0.64,2.558h5.757l1.172-2.558H27.823z"/>
<path fill="#B2B2B2" stroke="#000000" stroke-width="2" d="M6.929,100.85l0.64,2.558h5.756l1.173-2.558H6.929z"/>
<path fill="#B2B2B2" stroke="#000000" stroke-width="2" d="M48.718,85.073l0.532-2.559h5.757l1.279,2.559H48.718z"/>
<path fill="#B2B2B2" stroke="#000000" stroke-width="2" d="M27.823,85.073l0.64-2.559h5.757l1.172,2.559H27.823z"/>
<path fill="#B2B2B2" stroke="#000000" stroke-width="2" d="M6.929,85.073l0.64-2.559h5.756l1.173,2.559H6.929z"/>
<path fill="#7F7F7F" d="M58.632,85.073v7.781H2.985v-7.781H58.632z"/>
<path fill="#999999" d="M55.22,85.073v7.781H6.396v-7.781H55.22z"/>
<path fill="#B2B2B2" d="M49.25,85.073v7.781H12.153v-7.781H49.25z"/>
<path fill="#CCCCCC" d="M43.494,85.073v7.781H17.909v-7.781H43.494z"/>
<path fill="#E5E5E5" d="M38.91,85.073v7.781H22.6v-7.781H38.91z"/>
<path fill="#FFFFFF" d="M34.22,85.073v7.781h-6.823v-7.781H34.22z"/>
<path fill="none" stroke="#000000" stroke-width="2" d="M58.632,85.073v7.781H2.985v-7.781H58.632"/>
<path fill="#E5E5E5" stroke="#000000" stroke-width="2" d="M54.048,82.514h0.959l1.279,2.559h-1.813L54.048,82.514z"/>
<path fill="#E5E5E5" stroke="#000000" stroke-width="2" d="M33.153,82.514h1.066l1.172,2.559H33.58L33.153,82.514z"/>
<path fill="#E5E5E5" stroke="#000000" stroke-width="2" d="M12.259,82.514h1.066l1.173,2.559h-1.599L12.259,82.514z"/>
<path fill="#E5E5E5" stroke="#000000" stroke-width="2" d="M54.048,103.407h0.959l1.279-2.558h-1.813L54.048,103.407z"/>
<path fill="#E5E5E5" stroke="#000000" stroke-width="2" d="M33.153,103.407h1.066l1.172-2.558H33.58L33.153,103.407z"/>
<path fill="#E5E5E5" stroke="#000000" stroke-width="2" d="M12.259,103.407h1.066l1.173-2.558h-1.599L12.259,103.407z"/>
<path fill="#7F7F7F" d="M58.632,100.85v-7.996H2.985v7.996H58.632z"/>
<path fill="#999999" d="M55.22,100.85v-7.996H6.396v7.996H55.22z"/>
<path fill="#B2B2B2" d="M49.25,100.85v-7.996H12.153v7.996H49.25z"/>
<path fill="#CCCCCC" d="M43.494,100.85v-7.996H17.909v7.996H43.494z"/>
<path fill="#E5E5E5" d="M38.91,100.85v-7.996H22.6v7.996H38.91z"/>
<path fill="#FFFFFF" d="M34.22,100.85v-7.996h-6.823v7.996H34.22z"/>
<path fill="none" stroke="#000000" stroke-width="2" d="M58.632,100.85v-7.996H2.985v7.996H58.632"/>
<path fill="#4C4C4C" stroke="#000000" stroke-width="2" d="M55.433,24.522l23.453,23.666l5.01-4.904L60.23,19.511L55.433,24.522z"/>
<path fill="#666666" stroke="#000000" stroke-width="2" d="M62.256,17.486l23.56,23.772l-1.92,2.025L60.23,19.511L62.256,17.486z"/>
<path fill="#999999" stroke="#000000" stroke-width="2" d="M64.175,19.511l5.969,5.97l2.986-2.984l-5.971-5.97L64.175,19.511z"/>
<path fill="#B2B2B2" stroke="#000000" stroke-width="2" d="M73.13,22.496l9.7,10.021l-2.985,2.771l-9.701-9.808L73.13,22.496z"/>
<path fill="#CCCCCC" stroke="#000000" stroke-width="2" d="M82.831,32.517l4.051,3.731l-2.985,2.984l-4.051-3.944L82.831,32.517z"/>
<path fill="#7F7F7F" d="M89.867,19.511l-10.021,9.914l-5.756-5.97l9.807-9.914L89.867,19.511z"/>
<path fill="#999999" d="M89.44,19.085l-9.7,10.021l-5.438-5.224l10.021-9.914L89.44,19.085z"/>
<path fill="#B2B2B2" d="M88.8,18.552l-9.914,9.914l-3.73-3.944l9.7-10.021L88.8,18.552z"/>
<path fill="#CCCCCC" d="M88.267,17.912L78.247,27.933l-2.559-2.878l9.808-9.701L88.267,17.912z"/>
<path fill="#E5E5E5" d="M87.627,17.486l-9.7,9.808l-1.813-1.813l9.914-9.807L87.627,17.486z"/>
<path fill="#FFFFFF" d="M87.201,16.953l-9.914,9.914l-0.533-0.747l9.701-9.807L87.201,16.953z"/>
<path fill="none" stroke="#000000" stroke-width="2" d="M83.896,13.755l5.971,5.756l-10.021,9.914l-5.756-5.97L83.896,13.755"/>
<path fill="#7F7F7F" d="M28.783,50.959L55.22,24.522l23.666,23.666L47.439,79.742L28.57,71.321L28.783,50.959z"/>
<path fill="#999999" d="M28.783,53.837l28.037-27.93L77.5,46.588L45.52,78.889l-16.737-7.568V53.837z"/>
<path fill="#B2B2B2" d="M28.57,58.741l30.701-30.275l15.671,15.777L41.895,77.717l-13.112-6.396L28.57,58.741z"/>
<path fill="#CCCCCC" d="M28.57,63.538l33.26-32.62l10.66,10.767L38.377,76.117l-9.594-4.797L28.57,63.538z"/>
<path fill="#E5E5E5" d="M28.783,67.696l34.859-34.858l6.93,7.035l-34.86,34.859l-6.929-3.411V67.696z"/>
<path fill="#FFFFFF" d="M28.57,71.96l36.991-37.098l2.985,2.984L32.833,73.346L28.57,71.96z"/>
<path fill="none" stroke="#000000" stroke-width="2" d="M78.886,48.188L47.439,79.742"/>
<path fill="none" stroke="#000000" stroke-width="2" d="M28.783,50.959L55.22,24.522"/>
</svg>
