<?xml version="1.0" encoding="utf-8"?>
<!-- Generator: Adobe Illustrator 14.0.0, SVG Export Plug-In . SVG Version: 6.00 Build 43363)  -->
<!DOCTYPE svg PUBLIC "-//W3C//DTD SVG 1.1//EN" "http://www.w3.org/Graphics/SVG/1.1/DTD/svg11.dtd">
<svg version="1.1" id="图层_1" xmlns="http://www.w3.org/2000/svg" xmlns:xlink="http://www.w3.org/1999/xlink" x="0px" y="0px"
	 width="64.987px" height="106.502px" viewBox="0 0 64.987 106.502" enable-background="new 0 0 64.987 106.502"
	 xml:space="preserve">
<path fill="#FFFF00" stroke="#000000" stroke-width="2" d="M2.988,21.345h10.138v13.019H2.988V21.345z"/>
<path fill="#FFFF00" stroke="#000000" stroke-width="2" d="M2.988,2.99h5.55v10.991h-5.55V2.99z"/>
<path fill="#FFFF00" stroke="#000000" stroke-width="2" d="M56.45,2.99h5.549v10.991H56.45V2.99z"/>
<path fill="#FFFF00" stroke="#000000" stroke-width="2" d="M51.862,21.345h10.138v13.019H51.862V21.345z"/>
<path fill="#FFCC00" stroke="#000000" stroke-width="2" d="M13.125,32.443h38.736v36.922H13.125V32.443z"/>
<path fill="#FFCC00" stroke="#000000" stroke-width="2" d="M26.891,69.365H37.99v5.549H26.891V69.365z"/>
<path fill="#FFFF66" stroke="#000000" stroke-width="2" d="M47.273,95.295v-7.47h3.735v7.47H47.273z"/>
<path fill="#FFFF66" stroke="#000000" stroke-width="2" d="M40.764,74.913v3.735h-4.589v-3.735H40.764z"/>
<path fill="#FFFF66" stroke="#000000" stroke-width="2" d="M14.086,95.295v-7.47h3.734v7.47H14.086z"/>
<path fill="#FFFF99" stroke="#000000" stroke-width="2" d="M47.273,83.238h3.735v4.588h-3.735V83.238z"/>
<path fill="#FFFF99" stroke="#000000" stroke-width="2" d="M28.705,74.913h7.47v3.735h-7.47V74.913z"/>
<path fill="#FFFF99" stroke="#000000" stroke-width="2" d="M14.086,83.238h3.734v4.588h-3.734V83.238z"/>
<path fill="#FFFF99" stroke="#000000" stroke-width="2" d="M8.537,2.99H56.45v10.991H8.537V2.99z"/>
<path fill="#FFFF66" stroke="#000000" stroke-width="2" d="M8.537,21.345H56.45v11.098H8.537V21.345z"/>
<path fill="#FFFF00" stroke="#000000" stroke-width="2" d="M2.988,13.982h59.012v7.363H2.988V13.982z"/>
<path fill="#FFFF00" stroke="#000000" stroke-width="2" d="M14.086,32.443h36.922v36.922H14.086V32.443z"/>
<path fill="#FFFF00" stroke="#000000" stroke-width="2" d="M14.086,95.189h3.734v4.695h-3.734V95.189z"/>
<path fill="#FFFF00" stroke="#000000" stroke-width="2" d="M43.645,99.884l-0.427,0.106l-0.641,0.427l-0.746,0.854l-0.641,0.96
	l-0.427,0.32l-0.961,0.32l-1.066,0.213l-1.067,0.214h-0.961l-1.066,0.106h-1.067h-1.067l-1.066,0.106l-1.067-0.106h-0.961h-1.066
	l-0.961-0.106h-1.067l-1.066-0.214l-1.067-0.213l-1.067-0.32l-0.64-0.747l-0.641-0.96l-0.747-0.641l-0.32-0.214l-0.319-0.106
	l-3.629-0.96l-0.106-14.727l5.549-1.814v-1.921h18.461v1.921l5.549,1.814v14.727l-0.96,0.213l-0.854,0.214l-0.961,0.32
	L43.645,99.884z"/>
<path fill="#FFFF00" stroke="#000000" stroke-width="2" d="M47.273,95.189h3.735v4.695h-3.735V95.189z"/>
<path fill="#FFFF00" stroke="#000000" stroke-width="2" d="M28.812,74.913v3.735h-4.695v-3.735H28.812z"/>
<path fill="#FFFF00" stroke="#000000" stroke-width="2" d="M23.263,78.649h18.461v1.813H23.263V78.649z"/>
<path d="M61.999,17.716v-0.854H2.988v1.707h59.012V17.716z"/>
<path fill="#CCCCCC" stroke="#000000" stroke-width="2" d="M6.723,13.982h4.589v-2.668H6.723V13.982z"/>
<path fill="#CCCCCC" d="M53.782,13.982h4.589v-2.668h-4.589V13.982z"/>
<path fill="#CCCCCC" d="M22.303,13.982h4.588v-2.668h-4.588V13.982z"/>
<path fill="#CCCCCC" d="M37.99,13.982h4.695v-2.668H37.99V13.982z"/>
<path fill="#CCCCCC" d="M6.723,25.079h4.589v-2.668H6.723V25.079z"/>
<path fill="#CCCCCC" d="M53.782,25.079h4.589v-2.668h-4.589V25.079z"/>
<path fill="#CCCCCC" d="M22.303,25.079h4.588v-2.668h-4.588V25.079z"/>
<path fill="#CCCCCC" d="M37.99,25.079h4.695v-2.668H37.99V25.079z"/>
<path fill="#CCCCCC" d="M5.762,21.345h6.403v0.96H5.762V21.345z"/>
<path fill="#CCCCCC" d="M21.342,21.345h6.51v0.96h-6.51V21.345z"/>
<path fill="#CCCCCC" d="M37.136,21.345h6.509v0.96h-6.509V21.345z"/>
<path fill="#CCCCCC" d="M52.823,21.345h6.402v0.96h-6.402V21.345z"/>
<path fill="#CCCCCC" d="M7.576,25.079h2.774v1.814H7.576V25.079z"/>
<path fill="#CCCCCC" d="M23.263,25.079h2.774v1.814h-2.774V25.079z"/>
<path fill="#CCCCCC" d="M38.949,25.079h2.774v1.814h-2.774V25.079z"/>
<path fill="#CCCCCC" d="M54.636,25.079h2.774v1.814h-2.774V25.079z"/>
<path fill="none" stroke="#000000" stroke-width="2" d="M9.391,11.314v2.668"/>
<path fill="none" stroke="#000000" stroke-width="2" d="M53.782,13.982h4.589v-2.668h-4.589V13.982"/>
<path fill="none" stroke="#000000" stroke-width="2" d="M55.597,11.314v2.668"/>
<path fill="none" stroke="#000000" stroke-width="2" d="M22.303,13.982h4.588v-2.668h-4.588V13.982"/>
<path fill="none" stroke="#000000" stroke-width="2" d="M25.077,11.314v2.668"/>
<path fill="none" stroke="#000000" stroke-width="2" d="M37.99,13.982h4.695v-2.668H37.99V13.982"/>
<path fill="none" stroke="#000000" stroke-width="2" d="M39.91,11.314v2.668"/>
<path fill="none" stroke="#000000" stroke-width="2" d="M6.723,25.079h4.589v-2.668H6.723V25.079"/>
<path fill="none" stroke="#000000" stroke-width="2" d="M9.391,22.411v2.668"/>
<path fill="none" stroke="#000000" stroke-width="2" d="M53.782,25.079h4.589v-2.668h-4.589V25.079"/>
<path fill="none" stroke="#000000" stroke-width="2" d="M55.597,22.411v2.668"/>
<path fill="none" stroke="#000000" stroke-width="2" d="M22.303,25.079h4.588v-2.668h-4.588V25.079"/>
<path fill="none" stroke="#000000" stroke-width="2" d="M25.077,22.411v2.668"/>
<path fill="none" stroke="#000000" stroke-width="2" d="M37.99,25.079h4.695v-2.668H37.99V25.079"/>
<path fill="none" stroke="#000000" stroke-width="2" d="M39.91,22.411v2.668"/>
<path fill="none" stroke="#000000" stroke-width="2" d="M5.762,21.345h6.403v0.96H5.762V21.345"/>
<path fill="none" stroke="#000000" stroke-width="2" d="M21.342,21.345h6.51v0.96h-6.51V21.345"/>
<path fill="none" stroke="#000000" stroke-width="2" d="M37.136,21.345h6.509v0.96h-6.509V21.345"/>
<path fill="none" stroke="#000000" stroke-width="2" d="M52.823,21.345h6.402v0.96h-6.402V21.345"/>
<path fill="none" stroke="#000000" stroke-width="2" d="M7.576,25.079h2.774v1.814H7.576V25.079"/>
<path fill="none" stroke="#000000" stroke-width="2" d="M23.263,25.079h2.774v1.814h-2.774V25.079"/>
<path fill="none" stroke="#000000" stroke-width="2" d="M38.949,25.079h2.774v1.814h-2.774V25.079"/>
<path fill="none" stroke="#000000" stroke-width="2" d="M54.636,25.079h2.774v1.814h-2.774V25.079"/>
<path fill="#FFFF66" d="M41.297,97.323l-0.96,0.319L39.27,98.07l-1.067,0.428l-1.066,0.213l-1.174,0.214l-1.174,0.213l-1.067,0.106
	h-2.348l-1.174-0.106l-1.174-0.213l-1.174-0.214l-1.067-0.213l-1.067-0.428l-1.066-0.427l-1.067-0.427l-0.641,1.494l1.067,0.533
	l1.174,0.428l1.174,0.319l1.174,0.32l1.28,0.32l1.174,0.106l1.281,0.107h2.561l1.174-0.107l1.174-0.106l1.28-0.32l1.281-0.32
	l1.174-0.319l1.066-0.428l1.067-0.533L41.297,97.323z"/>
<circle fill="#CCCCCC" stroke="#000000" stroke-width="2" cx="16.861" cy="49.09" r="1.814"/>
<circle fill="#CCCCCC" cx="47.166" cy="49.09" r="1.814"/>
<path fill="none" stroke="#000000" stroke-width="2" d="M16.754,47.276v3.628"/>
<circle fill="none" stroke="#000000" stroke-width="2" cx="47.166" cy="49.09" r="1.814"/>
<path fill="none" stroke="#000000" stroke-width="2" d="M47.166,47.276v3.628"/>
</svg>
