<?xml version="1.0" encoding="utf-8"?>
<!-- Generator: Adobe Illustrator 14.0.0, SVG Export Plug-In . SVG Version: 6.00 Build 43363)  -->
<!DOCTYPE svg PUBLIC "-//W3C//DTD SVG 1.1//EN" "http://www.w3.org/Graphics/SVG/1.1/DTD/svg11.dtd">
<svg version="1.1" id="图层_1" xmlns="http://www.w3.org/2000/svg" xmlns:xlink="http://www.w3.org/1999/xlink" x="0px" y="0px"
	 width="65.88px" height="106.502px" viewBox="0 0 65.88 106.502" enable-background="new 0 0 65.88 106.502" xml:space="preserve">
<path fill="#CCCCCC" stroke="#000000" stroke-width="2" d="M32.3,34.116h3.625v18.868H32.3V34.116z"/>
<path fill="#FFFFFF" d="M33.473,34.116h1.173v18.868h-1.173V34.116z"/>
<path fill="#999999" stroke="#000000" stroke-width="2" d="M13.325,61.086h2.345v1.173h-2.345V61.086z"/>
<path fill="#999999" stroke="#000000" stroke-width="2" d="M19.295,36.994H9.488v6.929h9.808V36.994z"/>
<path fill="#999999" stroke="#000000" stroke-width="2" d="M30.489,30.491h7.142v3.625h-7.142V30.491z"/>
<path fill="#999999" stroke="#000000" stroke-width="2" d="M24.625,36.994h1.813v8.955h-1.813V36.994z"/>
<path fill="#4C4C4C" stroke="#000000" stroke-width="2" d="M23.986,43.604v-0.64h4.157v-10.66h12.152v0.64H28.782v10.66H23.986z"/>
<path fill="#4C4C4C" stroke="#000000" stroke-width="2" d="M30.489,56.929h7.142v1.173h-7.142V56.929z"/>
<path fill="#4C4C4C" stroke="#000000" stroke-width="2" d="M19.295,38.274h7.675v1.173h-7.675V38.274z"/>
<path fill="#CCCCCC" stroke="#000000" stroke-width="2" d="M41.468,26.974h4.797v10.021h-4.797V26.974z"/>
<path fill="#666666" stroke="#000000" stroke-width="2" d="M24.625,98.717H43.92v4.69H24.625V98.717z"/>
<path fill="#666666" stroke="#000000" stroke-width="2" d="M55.753,89.23v8.314h-4.798V89.23H55.753z"/>
<path fill="#666666" stroke="#000000" stroke-width="2" d="M17.483,89.23v8.314h-4.797V89.23H17.483z"/>
<path fill="#666666" stroke="#000000" stroke-width="2" d="M24.625,63.965H43.92v4.797H24.625V63.965z"/>
<path fill="#666666" stroke="#000000" stroke-width="2" d="M28.143,58.102h12.152v3.518H28.143V58.102z"/>
<path fill="#999999" stroke="#000000" stroke-width="2" d="M31.66,58.102h5.97v3.518h-5.97V58.102z"/>
<path fill="#999999" stroke="#000000" stroke-width="2" d="M28.143,63.965h9.487v4.797h-9.487V63.965z"/>
<path fill="#999999" stroke="#000000" stroke-width="2" d="M55.753,79.741v9.488h-4.798v-9.488H55.753z"/>
<path fill="#999999" stroke="#000000" stroke-width="2" d="M17.483,79.741v9.488h-4.797v-9.488H17.483z"/>
<path fill="#999999" stroke="#000000" stroke-width="2" d="M29.955,98.717h9.7v4.69h-9.7V98.717z"/>
<path fill="#0000FF" stroke="#000000" stroke-width="2" d="M19.828,30.491L21,28.04l2.665-1.813l1.493-0.746l3.411,0.319h3.198
	h1.172v3.519h-7.781l-2.346,1.812v28.144l2.985,1.812H43.92l1.705-2.984V31.131l-2.345-1.812h-7.995v-3.519l0.106-0.213l1.173-0.106
	l0.533-0.106h0.746l3.624,0.106h1.813l2.452,1.279l2.238,2.132l0.533,0.746l0.106,0.853v1.279v28.676l-1.492,2.665l-2.346,0.854
	H43.92h-1.279H24.625l-3.305-0.854L19.935,61.3l-0.106-0.854v-1.279V30.491z"/>
<path fill="#B2B2B2" stroke="#000000" stroke-width="2" d="M31.66,53.411h5.117v3.518H31.66V53.411z"/>
<path fill="#0000E5" stroke="#000000" stroke-width="2" d="M5.33,14.822h57.458v2.345H5.33V14.822z"/>
<path fill="#0000FF" stroke="#000000" stroke-width="2" d="M58.098,10.024v1.387v0.746v0.213v1.066v1.386h-0.106H10.447H10.34
	v-1.386v-3.412l1.919-2.238l0.427-0.106h1.386h41.682l2.345,1.919V10.024z"/>
<path fill="#0000CC" stroke="#000000" stroke-width="2" d="M10.34,24.628v-1.386v-0.746v-0.213v-1.066v-1.386h0.106h47.545h0.106
	v1.386v3.411l-1.919,2.239l-0.426,0.106h-1.386H12.686l-2.239-1.919L10.34,24.628z"/>
<path fill="#0000CC" stroke="#000000" stroke-width="2" d="M5.33,17.166h57.458v2.665H5.33V17.166z"/>
<path fill="#4C4CFF" stroke="#000000" stroke-width="2" d="M6.503,14.822h2.345v-1.173H6.503V14.822z"/>
<path fill="#4C4CFF" stroke="#000000" stroke-width="2" d="M59.271,14.822h2.345v-1.173h-2.345V14.822z"/>
<path fill="#4C4CFF" stroke="#000000" stroke-width="2" d="M32.94,14.822h2.346v-1.173H32.94V14.822z"/>
<path fill="#4C4CFF" stroke="#000000" stroke-width="2" d="M15.138,14.822h2.345v-1.173h-2.345V14.822z"/>
<path fill="#4C4CFF" stroke="#000000" stroke-width="2" d="M23.452,14.822h2.346v-1.173h-2.346V14.822z"/>
<path fill="#4C4CFF" stroke="#000000" stroke-width="2" d="M42.641,14.822h2.345v-1.173h-2.345V14.822z"/>
<path fill="#4C4CFF" stroke="#000000" stroke-width="2" d="M50.955,14.822h2.452v-1.173h-2.452V14.822z"/>
<path fill="#0000CC" stroke="#000000" stroke-width="2" d="M6.503,21.004h2.665v-1.173H6.503V21.004z"/>
<path fill="#0000CC" stroke="#000000" stroke-width="2" d="M59.271,21.004h2.665v-1.173h-2.665V21.004z"/>
<path fill="#0000CC" stroke="#000000" stroke-width="2" d="M32.94,21.004h2.665v-1.173H32.94V21.004z"/>
<path fill="#0000CC" stroke="#000000" stroke-width="2" d="M14.818,21.004h2.665v-1.173h-2.665V21.004z"/>
<path fill="#0000CC" stroke="#000000" stroke-width="2" d="M23.452,21.004h2.665v-1.173h-2.665V21.004z"/>
<path fill="#0000CC" stroke="#000000" stroke-width="2" d="M42.641,21.004h2.345v-1.173h-2.345V21.004z"/>
<path fill="#0000CC" stroke="#000000" stroke-width="2" d="M50.955,21.004h2.452v-1.173h-2.452V21.004z"/>
<path fill="#0000CC" stroke="#000000" stroke-width="2" d="M29.316,26.974h9.487v3.518h-9.487V26.974z"/>
<path fill="#999999" d="M24.625,68.762H43.92v3.518H24.625V68.762z"/>
<path fill="#B2B2B2" d="M26.438,68.762h15.67v3.518h-15.67V68.762z"/>
<path fill="#CCCCCC" d="M28.782,68.762h10.873v3.518H28.782V68.762z"/>
<path fill="#E5E5E5" d="M31.128,68.762h5.862v3.518h-5.862V68.762z"/>
<path fill="#FFFFFF" d="M33.473,68.762h1.173v3.518h-1.173V68.762z"/>
<path fill="none" stroke="#000000" stroke-width="2" d="M24.625,68.762H43.92v3.518H24.625V68.762"/>
<path fill="#B2B2B2" stroke="#000000" stroke-width="2" d="M9.488,51.599v1.813h1.173v-0.64h7.462v0.64h1.173v-1.813H9.488z"/>
<path fill="#B2B2B2" stroke="#000000" stroke-width="2" d="M10.66,52.772h7.462v8.314H10.66V52.772z"/>
<path fill="#B2B2B2" stroke="#000000" stroke-width="2" d="M24.625,72.28v2.452l-1.173,1.173h-4.797l-1.173-1.173v21.64l1.173-1.172
	h4.797l1.173,1.172v2.346H43.92v-2.346l1.065-1.172h4.798l1.172,1.172v-21.64l-1.172,1.173h-4.798l-1.065-1.173V72.28H24.625z"/>
<path fill="#CCCCCC" stroke="#000000" stroke-width="2" d="M55.753,73.452v6.289h-4.798v-6.289H55.753z"/>
<path fill="#CCCCCC" stroke="#000000" stroke-width="2" d="M17.483,73.452v6.289h-4.797v-6.289H17.483z"/>
<path fill="#999999" d="M18.122,89.23h6.503v5.33h-6.503V89.23z"/>
<path fill="#999999" d="M25.158,95.199h18.122v2.878H25.158V95.199z"/>
<path fill="#999999" d="M42.641,93.92l-0.32-1.279l-0.106-0.96l-0.106-1.065l-0.213-1.066v-1.065l-0.106-1.173v-1.066v-1.813V83.26
	l0.106-1.173l0.106-1.066l0.106-1.065l0.106-0.96l0.214-0.959l0.106-0.533l0.106-0.427l-0.427,0.107l-0.853,0.213l-0.959,0.213
	l-1.066,0.213L38.27,77.93l-1.172,0.106l-1.173,0.106l-1.279,0.106h-1.173l-1.065-0.106l-1.173-0.106l-1.066-0.106l-1.173-0.107
	l-0.959-0.213l-0.96-0.213l-0.853-0.213l-0.426-0.107l0.106,0.427l0.213,0.959l0.106,0.96l0.214,1.066l0.106,1.065v1.173
	l0.106,1.173v1.172v1.706v1.173l-0.106,1.065l-0.106,1.066l-0.107,1.066l-0.106,1.065l-0.213,0.853l-0.106,0.427l-0.106,0.427
	l0.426-0.106l0.853-0.214l0.96-0.106l0.959-0.106l1.173-0.213h1.066l1.173-0.107h1.065h1.813h1.173l1.172,0.107l1.173,0.106
	l1.066,0.106l1.065,0.106l0.854,0.213L42.641,93.92z"/>
<path fill="#999999" d="M43.92,89.23h6.503v5.33H43.92V89.23z"/>
<path fill="#666666" stroke="#000000" stroke-width="2" d="M43.92,32.304l0.746,0.319l0.319,0.854l-0.319,0.853l-0.746,0.32
	l-0.853-0.32l-0.427-0.853l0.427-0.854L43.92,32.304z"/>
<path fill="#666666" stroke="#000000" stroke-width="2" d="M19.295,43.923H9.488v7.676h9.808V43.923z"/>
<path fill="#FFEDCC" stroke="#000000" stroke-width="2" d="M15.138,36.994l-2.239-3.411L11.3,31.131L9.594,28.68l-1.599-2.452
	L6.183,23.03L5.33,19.831V9.598l1.173-2.452L9.488,6.08l3.198-0.107h14.817h4.157V3.522h-0.426h-0.427h-0.533H12.153L9.275,3.735
	L6.076,4.587L3.624,6.506l-0.64,1.706v0.64v0.746v11.406l1.173,3.411l1.599,3.092l1.919,2.878l1.919,2.771l1.919,2.879l0.64,0.959
	h0.32H15.138z"/>
<path fill="#CC9933" stroke="#000000" stroke-width="2" d="M36.458,7.679v-4.69H31.66v3.518h1.279v1.173H36.458z"/>
<path fill="#CC9933" stroke="#000000" stroke-width="2" d="M30.489,2.989h-2.985v3.518h2.985V2.989z"/>
<path fill="none" stroke="#000000" stroke-width="2" d="M32.94,6.506l1.173-1.173"/>
<path fill="none" stroke="#000000" stroke-width="2" d="M43.92,32.304v2.346"/>
</svg>
