<?xml version="1.0" encoding="utf-8"?>
<!-- Generator: Adobe Illustrator 14.0.0, SVG Export Plug-In . SVG Version: 6.00 Build 43363)  -->
<!DOCTYPE svg PUBLIC "-//W3C//DTD SVG 1.1//EN" "http://www.w3.org/Graphics/SVG/1.1/DTD/svg11.dtd">
<svg version="1.1" id="图层_1" xmlns="http://www.w3.org/2000/svg" xmlns:xlink="http://www.w3.org/1999/xlink" x="0px" y="0px"
	 width="83.995px" height="106.502px" viewBox="0 0 83.995 106.502" enable-background="new 0 0 83.995 106.502"
	 xml:space="preserve">
<path fill="#7F7F7F" d="M23.511,70.131h57.47v28.534h-57.47V70.131z"/>
<path fill="#999999" d="M23.511,71.739h57.47v25.318h-57.47V71.739z"/>
<path fill="#B2B2B2" d="M23.511,74.953h57.47v19.09h-57.47V74.953z"/>
<path fill="#CCCCCC" d="M23.511,77.767h57.47v13.262h-57.47V77.767z"/>
<path fill="#E5E5E5" d="M23.511,80.178h57.47v8.439h-57.47V80.178z"/>
<path fill="#FFFFFF" d="M23.511,82.589h57.47v3.617h-57.47V82.589z"/>
<path fill="none" stroke="#000000" stroke-width="2" d="M23.511,98.665h57.47"/>
<path fill="none" stroke="#000000" stroke-width="2" d="M80.981,70.131h-57.47"/>
<path fill="#7F7F7F" d="M28.333,65.308h9.646v38.18h-9.646V65.308z"/>
<path fill="#999999" d="M28.333,67.519h9.646v33.759h-9.646V67.519z"/>
<path fill="#B2B2B2" d="M28.333,71.739h9.646v25.52h-9.646V71.739z"/>
<path fill="#CCCCCC" d="M28.333,75.556h9.646V93.24h-9.646V75.556z"/>
<path fill="#E5E5E5" d="M28.333,78.772h9.646v11.253h-9.646V78.772z"/>
<path fill="#FFFFFF" d="M28.333,81.987h9.646v4.622h-9.646V81.987z"/>
<path fill="none" stroke="#000000" stroke-width="2" d="M28.333,65.308h9.646v38.18h-9.646V65.308"/>
<path fill="#7F7F7F" d="M66.714,65.308h9.444v38.18h-9.444V65.308z"/>
<path fill="#999999" d="M66.714,67.519h9.444v33.759h-9.444V67.519z"/>
<path fill="#B2B2B2" d="M66.714,71.739h9.444v25.52h-9.444V71.739z"/>
<path fill="#CCCCCC" d="M66.714,75.556h9.444V93.24h-9.444V75.556z"/>
<path fill="#E5E5E5" d="M66.714,78.772h9.444v11.253h-9.444V78.772z"/>
<path fill="#FFFFFF" d="M66.714,81.987h9.444v4.622h-9.444V81.987z"/>
<path fill="none" stroke="#000000" stroke-width="2" d="M66.714,65.308h9.444v38.18h-9.444V65.308"/>
<path fill="#7F7F7F" d="M47.423,69.93V55.662h9.646V69.93l-0.402,1.809l-1.004,1.607l-1.608,1.005l-1.809,0.401l-1.808-0.401
	l-1.608-1.005l-1.004-1.607L47.423,69.93z"/>
<path fill="#999999" d="M48.026,72.341l0.804,1.005l1.005,0.804l1.206,0.401l1.205,0.201l1.407-0.201l1.005-0.401l1.005-0.804
	l0.804-1.005V55.662h-8.44V72.341z"/>
<path fill="#B2B2B2" d="M49.031,73.547l0.804,0.603l0.804,0.201l0.804,0.401h0.804h0.805l1.004-0.401l0.804-0.201l0.604-0.603
	V55.662h-6.431V73.547z"/>
<path fill="#CCCCCC" d="M50.035,74.351l0.603,0.2h0.604l0.603,0.201h0.401h0.604l0.603-0.201h0.603l0.402-0.2V55.662h-4.421V74.351z
	"/>
<path fill="#E5E5E5" d="M50.839,74.551l0.402,0.201h0.401h0.201h0.401h0.402h0.402h0.401l0.402-0.201V55.662h-3.015V74.551z"/>
<path fill="#FFFFFF" d="M51.643,74.752h0.201h0.201h0.2h0.201h0.201h0.201v-19.09h-1.206V74.752z"/>
<path fill="none" stroke="#000000" stroke-width="2" d="M57.069,55.662V69.93l-0.402,1.809l-1.004,1.607l-1.608,1.005l-1.809,0.401
	l-1.808-0.401l-1.608-1.005l-1.004-1.607l-0.402-1.809V55.662"/>
<path fill="#999999" stroke="#000000" stroke-width="2" d="M31.749,55.261l-4.019-4.02V10.249l4.019-4.22h40.993l4.22,4.22v40.992
	l-4.22,4.02H31.749z"/>
<path fill="#7F7F7F" d="M74.952,8.038l2.01,2.211v40.992l-4.22,4.02H31.749l-2.01-2.01l3.617-3.617l1.607,1.607h34.764l3.015-3.215
	V13.263l-1.407-1.607L74.952,8.038z"/>
<path fill="#CCCCCC" d="M29.74,53.251l-2.009-2.01V10.249l4.019-4.22h40.993l2.21,2.009l-3.617,3.617l-1.607-1.406H34.964
	l-3.215,3.014v34.764l1.607,1.607L29.74,53.251z"/>
<path fill="none" stroke="#000000" stroke-width="2" d="M31.749,55.261l-4.019-4.02V10.249l4.019-4.22h40.993l4.22,4.22v40.992
	l-4.22,4.02H31.749"/>
<path fill="#999999" stroke="#000000" stroke-width="2" d="M80.579,34.764H24.114l-0.603-0.401v-7.234l0.603-0.603h56.466
	l0.401,0.603v7.234L80.579,34.764z"/>
<path fill="#CCCCCC" d="M24.114,34.764l-0.603-0.401v-7.234l0.603-0.603h56.466l-0.604,1.005H24.515v6.229L24.114,34.764z"/>
<path fill="#7F7F7F" d="M80.579,26.526l0.401,0.603v7.234l-0.401,0.401H24.114l0.401-1.004h55.461v-6.229L80.579,26.526z"/>
<path fill="none" stroke="#000000" stroke-width="2" d="M80.579,34.764H24.114l-0.603-0.401v-7.234l0.603-0.603h56.466l0.401,0.603
	v7.234L80.579,34.764"/>
<path fill="#7F7F7F" stroke="#000000" stroke-width="2" d="M41.997,6.03l-0.603-3.015h-4.822L35.969,6.03H41.997z"/>
<path fill="#B2B2B2" stroke="#000000" stroke-width="2" d="M40.992,6.03l-0.401-3.015h-4.019L35.969,6.03H40.992z"/>
<path fill="#E5E5E5" stroke="#000000" stroke-width="2" d="M37.376,3.015h-0.804L35.969,6.03h1.005L37.376,3.015z"/>
<path fill="#7F7F7F" stroke="#000000" stroke-width="2" d="M27.731,50.238h-3.216V37.779h3.216V50.238z"/>
<path fill="#999999" stroke="#000000" stroke-width="2" d="M24.515,41.998H7.234l-3.215,1.005l-1.005,3.014v24.114h4.22V47.022
	l1.005-1.005h16.276V41.998z"/>
<path fill="#CCCCCC" d="M5.225,70.131H3.014V46.017l1.005-3.014l3.215-1.005h17.281v2.01H7.234l-1.607,0.603l-0.401,1.406V70.131z"
	/>
<path fill="none" stroke="#000000" stroke-width="2" d="M24.515,41.998H7.234l-3.215,1.005l-1.005,3.014v24.114h4.22V47.022
	l1.005-1.005h16.276V41.998"/>
</svg>
