<?xml version="1.0" encoding="utf-8"?>
<!-- Generator: Adobe Illustrator 14.0.0, SVG Export Plug-In . SVG Version: 6.00 Build 43363)  -->
<!DOCTYPE svg PUBLIC "-//W3C//DTD SVG 1.1//EN" "http://www.w3.org/Graphics/SVG/1.1/DTD/svg11.dtd">
<svg version="1.1" id="图层_1" xmlns="http://www.w3.org/2000/svg" xmlns:xlink="http://www.w3.org/1999/xlink" x="0px" y="0px"
	 width="135.05px" height="106.502px" viewBox="0 0 135.05 106.502" enable-background="new 0 0 135.05 106.502"
	 xml:space="preserve">
<path fill="#7F7F7F" d="M46.009,29.773v72.938H9.878V29.773H46.009z"/>
<path fill="#999999" d="M43.979,29.773v72.938H11.908V29.773H43.979z"/>
<path fill="#B2B2B2" d="M39.92,29.773v72.938H15.697V29.773H39.92z"/>
<path fill="#CCCCCC" d="M36.401,29.773v72.938H19.486V29.773H36.401z"/>
<path fill="#E5E5E5" d="M33.289,29.773v72.938h-10.69V29.773H33.289z"/>
<path fill="#FFFFFF" d="M30.312,29.773v72.938h-4.601V29.773H30.312z"/>
<path fill="none" stroke="#000000" stroke-width="2" d="M9.878,29.773v72.938"/>
<path fill="none" stroke="#000000" stroke-width="2" d="M46.009,102.711V29.773"/>
<path fill="#7F7F7F" d="M52.234,35.863v12.314H3.654V35.863H52.234z"/>
<path fill="#999999" d="M49.392,35.863v12.314H6.496V35.863H49.392z"/>
<path fill="#B2B2B2" d="M43.979,35.863v12.314H11.638V35.863H43.979z"/>
<path fill="#CCCCCC" d="M39.243,35.863v12.314H16.645V35.863H39.243z"/>
<path fill="#E5E5E5" d="M35.184,35.863v12.314H20.839V35.863H35.184z"/>
<path fill="#FFFFFF" d="M30.988,35.863v12.314H25.17V35.863H30.988z"/>
<path fill="none" stroke="#000000" stroke-width="2" d="M52.234,35.863v12.314H3.654V35.863H52.234"/>
<path fill="#7F7F7F" d="M52.234,84.713v11.908H3.654V84.713H52.234z"/>
<path fill="#999999" d="M49.392,84.713v11.908H6.496V84.713H49.392z"/>
<path fill="#B2B2B2" d="M43.979,84.713v11.908H11.638V84.713H43.979z"/>
<path fill="#CCCCCC" d="M39.243,84.713v11.908H16.645V84.713H39.243z"/>
<path fill="#E5E5E5" d="M35.184,84.713v11.908H20.839V84.713H35.184z"/>
<path fill="#FFFFFF" d="M30.988,84.713v11.908H25.17V84.713H30.988z"/>
<path fill="none" stroke="#000000" stroke-width="2" d="M52.234,84.713v11.908H3.654V84.713H52.234"/>
<path fill="#7F7F7F" d="M46.28,60.085h18.269v12.313H46.28l-2.3-0.541l-2.03-1.353l-1.218-1.895l-0.541-2.437l0.541-2.165
	l1.218-2.165l2.03-1.218L46.28,60.085z"/>
<path fill="#999999" d="M43.303,60.897l-1.353,0.947l-0.947,1.354l-0.542,1.488l-0.271,1.488l0.271,1.895l0.542,1.218l0.947,1.219
	l1.353,1.082h21.246v-10.69H43.303z"/>
<path fill="#B2B2B2" d="M41.679,62.115l-0.676,1.083l-0.271,1.082l-0.541,0.947v0.947v1.083l0.541,1.354l0.271,0.947l0.676,0.812
	h22.87v-8.255H41.679z"/>
<path fill="#CCCCCC" d="M40.731,63.468l-0.271,0.812v0.677l-0.271,0.813v0.405v0.813l0.271,0.812v0.813l0.271,0.405h23.817v-5.548
	H40.731z"/>
<path fill="#E5E5E5" d="M40.461,64.415l-0.271,0.541v0.541v0.271v0.405v0.542v0.541v0.541l0.271,0.541h24.087v-3.924H40.461z"/>
<path fill="#FFFFFF" d="M40.19,65.497v0.271v0.271v0.135v0.271v0.271v0.271h24.358v-1.489H40.19z"/>
<path fill="none" stroke="#000000" stroke-width="2" d="M64.548,72.399H46.28l-2.3-0.541l-2.03-1.353l-1.218-1.895l-0.541-2.437
	l0.541-2.165l1.218-2.165l2.03-1.218l2.3-0.541h18.269"/>
<path fill="#999999" stroke="#000000" stroke-width="2" d="M64.954,40.193l5.142-5.142h52.099l5.413,5.142v52.099l-5.413,5.413
	H70.096l-5.142-5.413V40.193z"/>
<path fill="#7F7F7F" d="M124.902,95.133l-2.707,2.571H70.096l-5.142-5.413V40.193l2.571-2.571l4.601,4.602l-2.03,2.029v44.115
	l4.06,3.924h44.25l2.029-1.759L124.902,95.133z"/>
<path fill="#CCCCCC" d="M67.525,37.621l2.571-2.57h52.099l5.413,5.142v52.099l-2.706,2.842l-4.467-4.601l1.76-2.165V44.252
	l-3.789-4.06h-44.25l-2.029,2.03L67.525,37.621z"/>
<path fill="none" stroke="#000000" stroke-width="2" d="M64.954,40.193l5.142-5.142h52.099l5.413,5.142v52.099l-5.413,5.413H70.096
	l-5.142-5.413V40.193"/>
<path fill="#999999" stroke="#000000" stroke-width="2" d="M91.072,102.305v-71.72l0.405-0.813h9.202l0.812,0.813v71.72
	l-0.812,0.406h-9.202L91.072,102.305z"/>
<path fill="#CCCCCC" d="M91.072,30.585l0.405-0.813h9.202l0.812,0.813v71.72l-1.353-0.812V30.99h-7.85L91.072,30.585z"/>
<path fill="#7F7F7F" d="M101.491,102.305l-0.812,0.406h-9.202l-0.405-0.406v-71.72l1.217,0.405v70.503h7.85L101.491,102.305z"/>
<path fill="none" stroke="#000000" stroke-width="2" d="M91.072,102.305v-71.72l0.405-0.813h9.202l0.812,0.813v71.72l-0.812,0.406
	h-9.202L91.072,102.305"/>
<path fill="#7F7F7F" stroke="#000000" stroke-width="2" d="M127.608,53.184l3.788-0.677v-6.225l-3.788-0.677V53.184z"/>
<path fill="#B2B2B2" stroke="#000000" stroke-width="2" d="M127.608,51.966l3.788-0.542v-5.142l-3.788-0.677V51.966z"/>
<path fill="#E5E5E5" stroke="#000000" stroke-width="2" d="M131.396,47.365v-1.082l-3.788-0.677v1.218L131.396,47.365z"/>
<path fill="#7F7F7F" stroke="#000000" stroke-width="2" d="M71.314,35.051V30.99h15.833v4.061H71.314z"/>
<path fill="#999999" stroke="#000000" stroke-width="2" d="M81.869,30.99V9.069l-1.353-4.06l-3.789-1.353H46.009v5.412h29.365
	l1.353,1.218V30.99H81.869z"/>
<path fill="#CCCCCC" d="M46.009,6.498V3.656h30.718l3.789,1.353l1.353,4.06V30.99h-2.57V9.069l-0.813-2.029l-1.759-0.541H46.009z"/>
<path fill="none" stroke="#000000" stroke-width="2" d="M81.869,30.99V9.069l-1.353-4.06l-3.789-1.353H46.009v5.412h29.365
	l1.353,1.218V30.99H81.869"/>
</svg>
