<?xml version="1.0" encoding="utf-8"?>
<!-- Generator: Adobe Illustrator 14.0.0, SVG Export Plug-In . SVG Version: 6.00 Build 43363)  -->
<!DOCTYPE svg PUBLIC "-//W3C//DTD SVG 1.1//EN" "http://www.w3.org/Graphics/SVG/1.1/DTD/svg11.dtd">
<svg version="1.1" id="图层_1" xmlns="http://www.w3.org/2000/svg" xmlns:xlink="http://www.w3.org/1999/xlink" x="0px" y="0px"
	 width="41.363px" height="106.502px" viewBox="0 0 41.363 106.502" enable-background="new 0 0 41.363 106.502"
	 xml:space="preserve">
<path fill="#FFF091" stroke="#000000" stroke-width="2" d="M19.403,44.99h2.239v15.458h-2.239V44.99z"/>
<path fill="#FFFFFF" d="M20.255,45.522h0.747v14.072h-0.747V45.522z"/>
<path fill="#0000CC" stroke="#000000" stroke-width="2" d="M14.818,63.219h11.621v2.665H14.818V63.219z"/>
<path fill="#4C4C4C" stroke="#000000" stroke-width="2" d="M12.793,77.291h15.458v0.853H12.793V77.291z"/>
<path fill="#0000CC" stroke="#000000" stroke-width="2" d="M16.205,39.765h8.848v0.747h-8.848V39.765z"/>
<path fill="#0000CC" stroke="#000000" stroke-width="2" d="M18.443,40.512h4.371v4.478h-4.371V40.512z"/>
<path fill="#0000CC" stroke="#000000" stroke-width="2" d="M18.443,49.36h4.371v4.478h-4.371V49.36z"/>
<path fill="#0000CC" stroke="#000000" stroke-width="2" d="M17.057,53.837h7.25v0.533h-7.25V53.837z"/>
<path fill="#0000CC" stroke="#000000" stroke-width="2" d="M16.205,60.448h8.848v2.238h-8.848V60.448z"/>
<path fill="#0000FF" stroke="#000000" stroke-width="2" d="M11.833,40.085v-0.427l2.239-2.132l0.533-0.213l0.426-0.214v0.32v1.919
	h-0.106l-1.279,0.959v3.305v21.429l0.106,0.427l3.198,0.426h9.808l0.746-0.426l0.214-0.427v-24.52l-0.107-0.214l-1.386-0.959h-0.106
	V37.1l2.559,1.6l0.746,0.959l0.106,0.427v1.706v23.667l-1.919,2.132h-0.533l-0.639,0.106h-0.641h-10.98l-2.452-0.853l-0.533-0.854
	v-0.532v-1.6V40.085z"/>
<path fill="#0000E5" stroke="#000000" stroke-width="2" d="M2.985,7.357h35.394v1.386H2.985V7.357z"/>
<path fill="#0000FF" stroke="#000000" stroke-width="2" d="M11.833,17.058l2.132,1.386l0.106,1.279v1.173l0.106,1.279v1.279v1.173
	l0.107,1.279v1.279v1.173l0.106,1.279l0.106,1.172v1.279v1.279l0.107,1.173v1.279l0.106,1.279l0.106,1.279l0.213,0.96l0.213,0.319
	h0.106v0.106h0.106h10.448v-0.106l0.319-0.106l0.214-1.173l0.852-19.936l2.239-1.386v-2.239H11.833V17.058z"/>
<path fill="#0000FF" stroke="#000000" stroke-width="2" d="M35.287,4.371v0.853v0.427v0.213v0.64v0.854h-0.106H6.077H5.97V6.503
	V4.371l0.426-0.96l0.746-0.426h0.213h0.853h25.692l0.96,0.426L35.287,4.371z"/>
<path fill="#0000CC" stroke="#000000" stroke-width="2" d="M13.966,18.444l-2.132-1.386H29.53l-2.239,1.386H13.966z"/>
<path fill="#0000CC" stroke="#000000" stroke-width="2" d="M2.985,8.742h35.394v1.706H2.985V8.742z"/>
<path fill="#0000CC" stroke="#000000" stroke-width="2" d="M5.97,13.22v-0.853v-0.427v-0.106v-0.64v-0.746h0.106h29.104h0.106v0.746
	v2.025l-0.426,1.066l-0.641,0.532h-0.319h-0.853H7.356l-0.959-0.532L5.97,13.539V13.22z"/>
<path fill="#4C4CFF" stroke="#000000" stroke-width="2" d="M22.814,32.516h-4.371l-1.066-0.533l-0.32-0.853v-0.213l0.32-1.066
	l1.066-0.32h4.371l1.066,0.32l0.426,1.066l-0.426,1.065L22.814,32.516z"/>
<circle fill="#00007F" stroke="#000000" stroke-width="2" cx="22.814" cy="30.917" r="0.32"/>
<circle fill="#00007F" stroke="#000000" stroke-width="2" cx="18.443" cy="30.917" r="0.426"/>
<path fill="#00007F" stroke="#000000" stroke-width="2" d="M17.057,62.686h7.25v0.533h-7.25V62.686z"/>
<path fill="#333333" stroke="#000000" stroke-width="2" d="M19.189,54.37h2.879v1.6h-2.879V54.37z"/>
<path fill="#E5E5E5" stroke="#000000" stroke-width="2" d="M11.833,78.144H29.53v13.22H11.833V78.144z"/>
<path fill="#4C4CFF" stroke="#000000" stroke-width="2" d="M3.731,7.357h1.492V6.611H3.731V7.357z"/>
<path fill="#4C4CFF" stroke="#000000" stroke-width="2" d="M36.141,7.357h1.385V6.611h-1.385V7.357z"/>
<path fill="#4C4CFF" stroke="#000000" stroke-width="2" d="M19.829,7.357h1.599V6.611h-1.599V7.357z"/>
<path fill="#4C4CFF" stroke="#000000" stroke-width="2" d="M8.742,7.357h1.706V6.611H8.742V7.357z"/>
<path fill="#4C4CFF" stroke="#000000" stroke-width="2" d="M13.966,7.357h1.492V6.611h-1.492V7.357z"/>
<path fill="#4C4CFF" stroke="#000000" stroke-width="2" d="M25.692,7.357h1.599V6.611h-1.599V7.357z"/>
<path fill="#4C4CFF" stroke="#000000" stroke-width="2" d="M30.916,7.357h1.6V6.611h-1.6V7.357z"/>
<path fill="#0000CC" stroke="#000000" stroke-width="2" d="M3.731,10.981h1.492v-0.532H3.731V10.981z"/>
<path fill="#0000CC" stroke="#000000" stroke-width="2" d="M36.141,10.981h1.385v-0.532h-1.385V10.981z"/>
<path fill="#0000CC" stroke="#000000" stroke-width="2" d="M19.829,10.981h1.599v-0.532h-1.599V10.981z"/>
<path fill="#0000CC" stroke="#000000" stroke-width="2" d="M8.742,10.981h1.706v-0.532H8.742V10.981z"/>
<path fill="#0000CC" stroke="#000000" stroke-width="2" d="M13.966,10.981h1.492v-0.532h-1.492V10.981z"/>
<path fill="#0000CC" stroke="#000000" stroke-width="2" d="M25.692,10.981h1.599v-0.532h-1.599V10.981z"/>
<path fill="#0000CC" stroke="#000000" stroke-width="2" d="M30.916,10.981h1.6v-0.532h-1.6V10.981z"/>
<path fill="#B2B2B2" stroke="#000000" stroke-width="2" d="M14.818,92.749h11.621v10.661H14.818V92.749z"/>
<path fill="#666666" stroke="#000000" stroke-width="2" d="M18.017,78.358h5.224v2.132h-5.224V78.358z"/>
<path fill="#B2B2B2" stroke="#000000" stroke-width="2" d="M11.833,98.613H29.53v2.985H11.833V98.613z"/>
<path fill="#B2B2B2" d="M11.833,75.053H29.53v2.238H11.833V75.053z"/>
<path fill="#B2B2B2" d="M11.833,89.125H5.97l-1.599-1.6v-5.757l1.599-1.492h5.863V89.125z"/>
<path fill="#B2B2B2" d="M13.219,91.364h14.819v1.386H13.219V91.364z"/>
<path fill="#B2B2B2" d="M14.818,67.697h11.621v7.356H14.818V67.697z"/>
<path fill="#CCCCCC" d="M13.966,98.613h13.325v2.985H13.966V98.613z"/>
<path fill="#CCCCCC" d="M13.966,75.053h13.325v2.238H13.966V75.053z"/>
<path fill="#CCCCCC" d="M11.833,87.952H5.97l-1.599-0.96v-4.69l1.599-0.96h5.863V87.952z"/>
<path fill="#CCCCCC" d="M15.032,91.364h11.087v1.386H15.032V91.364z"/>
<path fill="#CCCCCC" d="M16.205,67.697h8.848v7.356h-8.848V67.697z"/>
<path fill="#E5E5E5" d="M17.057,98.613h7.25v2.985h-7.25V98.613z"/>
<path fill="#E5E5E5" d="M17.057,75.053h7.25v2.238h-7.25V75.053z"/>
<path fill="#E5E5E5" d="M11.833,86.567H5.97l-1.599-0.64v-2.559l1.599-0.64h5.863V86.567z"/>
<path fill="#E5E5E5" d="M17.59,91.364h6.077v1.386H17.59V91.364z"/>
<path fill="#E5E5E5" d="M18.23,67.697h4.797v7.356H18.23V67.697z"/>
<path fill="#FFFFFF" d="M19.829,98.613h1.599v2.985h-1.599V98.613z"/>
<path fill="#FFFFFF" d="M11.833,85.394H5.97L4.371,85.18v-1.065l1.599-0.214h5.863V85.394z"/>
<path fill="#FFFFFF" d="M19.829,75.053h1.599v2.238h-1.599V75.053z"/>
<path fill="#FFFFFF" d="M19.829,91.364h1.599v1.386h-1.599V91.364z"/>
<path fill="#FFFFFF" d="M20.042,67.697h1.172v7.356h-1.172V67.697z"/>
<path fill="none" stroke="#000000" stroke-width="2" d="M5.97,80.277v8.849"/>
<path fill="none" stroke="#000000" stroke-width="2" d="M11.833,89.125H5.97l-1.599-1.6v-5.757l1.599-1.492h5.863V89.125"/>
<path fill="none" stroke="#000000" stroke-width="2" d="M11.833,75.053H29.53v2.238H11.833V75.053"/>
<path fill="none" stroke="#000000" stroke-width="2" d="M13.219,91.364h14.819v1.386H13.219V91.364"/>
<path fill="none" stroke="#000000" stroke-width="2" d="M14.818,67.697h11.621v7.356H14.818V67.697"/>
<path fill="#CCCCCC" stroke="#000000" stroke-width="2" d="M15.458,97.227h2.132v1.386h-2.132V97.227z"/>
<path fill="#CCCCCC" stroke="#000000" stroke-width="2" d="M23.667,97.227h2.025v1.386h-2.025V97.227z"/>
<path fill="#CCCCCC" stroke="#000000" stroke-width="2" d="M19.403,97.227h2.239v1.386h-2.239V97.227z"/>
<path fill="#CCCCCC" stroke="#000000" stroke-width="2" d="M26.865,97.227h2.238v1.386h-2.238V97.227z"/>
<path fill="#CCCCCC" stroke="#000000" stroke-width="2" d="M12.153,97.227h2.239v1.386h-2.239V97.227z"/>
<path fill="#CCCCCC" stroke="#000000" stroke-width="2" d="M15.458,73.666h2.132v1.387h-2.132V73.666z"/>
<path fill="#CCCCCC" stroke="#000000" stroke-width="2" d="M23.667,73.666h2.025v1.387h-2.025V73.666z"/>
<path fill="#CCCCCC" stroke="#000000" stroke-width="2" d="M19.403,73.666h2.239v1.387h-2.239V73.666z"/>
<path fill="#CCCCCC" stroke="#000000" stroke-width="2" d="M26.865,73.666h2.238v1.387h-2.238V73.666z"/>
<path fill="#CCCCCC" stroke="#000000" stroke-width="2" d="M12.153,73.666h2.239v1.387h-2.239V73.666z"/>
</svg>
