<?xml version="1.0" encoding="utf-8"?>
<!-- Generator: Adobe Illustrator 14.0.0, SVG Export Plug-In . SVG Version: 6.00 Build 43363)  -->
<!DOCTYPE svg PUBLIC "-//W3C//DTD SVG 1.1//EN" "http://www.w3.org/Graphics/SVG/1.1/DTD/svg11.dtd">
<svg version="1.1" id="图层_1" xmlns="http://www.w3.org/2000/svg" xmlns:xlink="http://www.w3.org/1999/xlink" x="0px" y="0px"
	 width="143.582px" height="106.502px" viewBox="0 0 143.582 106.502" enable-background="new 0 0 143.582 106.502"
	 xml:space="preserve">
<path fill="#FF0000" stroke="#000000" stroke-width="2" d="M73.301,7.043h66.113v43.118H73.301V7.043z"/>
<path fill="#FFFFFF" stroke="#FFFFFF" stroke-width="2" d="M74.881,8.624h63.096v6.181H74.881V8.624z"/>
<path stroke="#000000" stroke-width="2" d="M74.881,45.562h63.096v3.019H74.881V45.562z"/>
<path fill="#FF0000" stroke="#000000" stroke-width="2" d="M8.48,56.341h3.162v4.6H8.48V56.341z"/>
<path fill="#FF0000" stroke="#000000" stroke-width="2" d="M11.642,7.043h-1.581v44.699h1.581V7.043z"/>
<path fill="#FF0000" stroke="#000000" stroke-width="2" d="M4.024,102.478V65.54l7.617-7.618V4.025h53.897v53.897l-7.618,7.618
	v36.938H4.024z"/>
<path fill="#FF0000" stroke="#000000" stroke-width="2" d="M7.042,16.241h3.019v4.743H7.042V16.241z"/>
<path fill="#FF0000" stroke="#000000" stroke-width="2" d="M17.822,57.922h32.338v41.537H17.822V57.922z"/>
<circle stroke="#000000" stroke-width="2" cx="33.919" cy="78.619" r="13.079"/>
<circle fill="#B2B2B2" cx="33.919" cy="78.619" r="3.737"/>
<path fill="none" stroke="#FFFFFF" stroke-width="2" d="M24.721,87.961l-0.862-1.006l-0.718-1.007l-0.719-1.149l-0.575-1.149
	l-0.431-1.15l-0.287-1.293l-0.144-1.294l-0.144-0.575v-0.719l0.144-1.293l0.144-1.294l0.287-1.293l0.431-1.15l0.575-1.149
	l0.719-1.006l0.718-1.15l0.862-0.862l0.862-0.862l1.15-0.719l1.006-0.719l1.15-0.574l1.149-0.432l1.294-0.287l1.293-0.287h1.293
	h1.293l1.293,0.287l1.293,0.287l1.15,0.432l1.15,0.574l1.15,0.719l1.006,0.719l1.006,0.862"/>
<circle stroke="#7F7F7F" stroke-width="2" cx="34.063" cy="61.659" r="2.3"/>
<circle stroke="#7F7F7F" stroke-width="2" cx="34.063" cy="95.578" r="2.3"/>
<path fill="none" stroke="#000000" stroke-width="2" d="M13.223,5.462h50.879v50.879H13.223V5.462"/>
<path stroke="#000000" stroke-width="2" d="M14.804,10.062h47.717V54.76H14.804V10.062z"/>
<circle fill="#FF0000" stroke="#7F7F7F" stroke-width="2" cx="18.541" cy="13.942" r="2.299"/>
<path fill="none" stroke="#FFFFFF" stroke-width="2" d="M16.959,15.667l-0.144-0.288l-0.144-0.144l-0.144-0.144v-0.287l-0.144-0.145
	v-0.287l-0.144-0.144v-0.288l0.144-0.431l0.144-0.432l0.144-0.431l0.287-0.287l0.431-0.288l0.288-0.287l0.431-0.144h0.431h0.288
	h0.288l0.287,0.144l0.288,0.144l0.144,0.144l0.288,0.144l0.144,0.288l0.144,0.144"/>
<circle fill="#FF0000" stroke="#7F7F7F" stroke-width="2" cx="58.64" cy="13.942" r="2.299"/>
<path fill="none" stroke="#FFFFFF" stroke-width="2" d="M56.916,15.667l-0.144-0.288l-0.144-0.144v-0.144l-0.144-0.287l-0.144-0.145
	v-0.287V14.23v-0.288v-0.431l0.144-0.432l0.144-0.431l0.288-0.287l0.431-0.288l0.431-0.287l0.431-0.144h0.431h0.288h0.288
	l0.144,0.144l0.288,0.144l0.287,0.144l0.144,0.144l0.144,0.288l0.288,0.144"/>
<circle fill="#FF0000" stroke="#7F7F7F" stroke-width="2" cx="18.541" cy="50.88" r="2.299"/>
<path fill="none" stroke="#FFFFFF" stroke-width="2" d="M16.959,52.605l-0.144-0.288l-0.144-0.144l-0.144-0.144v-0.287l-0.144-0.145
	v-0.287l-0.144-0.144V50.88l0.144-0.432l0.144-0.431l0.144-0.432l0.287-0.287l0.431-0.288l0.288-0.144l0.431-0.144l0.431-0.144
	h0.288l0.288,0.144h0.287l0.288,0.144l0.144,0.144l0.288,0.145l0.144,0.287l0.144,0.144"/>
<circle fill="#FF0000" stroke="#7F7F7F" stroke-width="2" cx="58.64" cy="50.88" r="2.299"/>
<path fill="none" stroke="#FFFFFF" stroke-width="2" d="M56.916,52.605l-0.144-0.288l-0.144-0.144V52.03l-0.144-0.287l-0.144-0.145
	v-0.287v-0.144V50.88v-0.432l0.144-0.431l0.144-0.432l0.288-0.287l0.431-0.288l0.431-0.144l0.431-0.144l0.431-0.144h0.288
	l0.288,0.144h0.144l0.288,0.144l0.287,0.144l0.144,0.145l0.144,0.287l0.288,0.144"/>
<path fill="#FFFFFF" stroke="#FFFFFF" stroke-width="2" d="M25.583,43.981h26.158v6.181H25.583V43.981z"/>
<path fill="#FFFFFF" stroke="#FFFFFF" stroke-width="2" d="M25.583,11.643h26.158v4.599H25.583V11.643z"/>
<path fill="#FF0000" stroke="#000000" stroke-width="2" d="M57.921,82.499h7.618v15.379h-7.618V82.499z"/>
<path fill="#FFFFFF" d="M57.921,25.441l-1.581-1.438l1.581-1.581V25.441z"/>
<path fill="#FFFFFF" d="M54.041,21.703h1.581v1.581h-1.581V21.703z"/>
<path fill="#FFFFFF" d="M54.041,24.722h1.581v1.581h-1.581V24.722z"/>
<path fill="#FFFFFF" d="M20.122,21.703h1.581v1.581h-1.581V21.703z"/>
<path fill="#FFFFFF" d="M20.122,24.722h1.581v1.581h-1.581V24.722z"/>
<path fill="#FFFFFF" d="M22.421,25.441l-1.581-1.438l1.581-1.581V25.441z"/>
<path fill="#FFFFFF" d="M38.662,35.645h-1.581h-1.725l-1.581,0.144h-1.581l-1.581,0.144l-1.438,0.145l-1.437,0.287l-1.438,0.144
	l-1.437,0.144l-1.293,0.288l-1.15,0.287l-1.15,0.287l-2.156,0.719l-1.725,0.575l0.575,1.293l1.725-0.718l2.012-0.575l1.006-0.287
	l1.15-0.145l1.293-0.287l1.294-0.287l1.437-0.145l1.438-0.144l1.437-0.144l1.581-0.144l1.581-0.144H35.5l1.581-0.144h1.581V35.645z"
	/>
<path fill="#FFFFFF" d="M59.646,38.663l-1.869-0.575l-2.012-0.719l-1.15-0.287l-1.293-0.144l-1.293-0.288l-1.293-0.144l-1.438-0.287
	l-1.437-0.144l-1.438-0.145l-1.437-0.144l-1.581-0.144h-1.581h-1.581h-1.581v1.294h1.581l1.581,0.144h1.438l1.581,0.144l1.437,0.144
	l1.438,0.144l1.437,0.144l1.438,0.145l1.149,0.287l1.294,0.144l1.293,0.288l2.012,0.431l1.868,0.719l0.862,0.287L59.646,38.663z"/>
<path fill="#FFFFFF" d="M37.8,27.021h-0.575v9.343h1.293v-9.343H37.8z"/>
<path fill="#FFFFFF" d="M48.723,30.183l-0.719-0.144l-0.862,6.899l1.438,0.287l0.718-7.043H48.723z"/>
<path fill="#FFFFFF" d="M57.921,33.92h-0.718l-0.862,4.6l1.437,0.144l0.719-4.6L57.921,33.92z"/>
<path fill="#FFFFFF" d="M27.883,30.183h-0.719l0.719,7.043l1.438-0.287l-0.862-6.899L27.883,30.183z"/>
<path fill="#FFFFFF" d="M18.541,33.92l-0.575,0.144l0.719,4.6l1.437-0.144l-0.862-4.6H18.541z"/>
<path fill="#E5E5E5" stroke="#FFFFFF" stroke-width="2" d="M41.681,11.643h10.061v4.599H41.681V11.643z"/>
<circle stroke="#7F7F7F" stroke-width="2" cx="18.541" cy="13.942" r="0.718"/>
<circle stroke="#7F7F7F" stroke-width="2" cx="58.497" cy="13.942" r="0.718"/>
<circle stroke="#7F7F7F" stroke-width="2" cx="18.541" cy="50.88" r="0.718"/>
<circle stroke="#7F7F7F" stroke-width="2" cx="58.497" cy="50.88" r="0.718"/>
<path fill="#FF0000" stroke="#000000" stroke-width="2" d="M114.838,4.025h16.959v49.154h-16.959V4.025z"/>
<path fill="#FFFFFF" stroke="#FFFFFF" stroke-width="2" d="M116.418,5.462h13.798v7.762h-13.798V5.462z"/>
<path stroke="#000000" stroke-width="2" d="M116.418,50.161h13.798v1.581h-13.798V50.161z"/>
<path fill="#FF0000" stroke="#000000" stroke-width="2" d="M65.539,7.043h7.762v43.118h-7.762V7.043z"/>
<path fill="none" stroke="#FFFFFF" stroke-width="2" d="M13.223,5.462h50.879"/>
<path fill="none" stroke="#FFFFFF" stroke-width="2" d="M17.822,57.922h32.338"/>
</svg>
