<?xml version="1.0" encoding="utf-8"?>
<!-- Generator: Adobe Illustrator 14.0.0, SVG Export Plug-In . SVG Version: 6.00 Build 43363)  -->
<!DOCTYPE svg PUBLIC "-//W3C//DTD SVG 1.1//EN" "http://www.w3.org/Graphics/SVG/1.1/DTD/svg11.dtd">
<svg version="1.1" id="图层_1" xmlns="http://www.w3.org/2000/svg" xmlns:xlink="http://www.w3.org/1999/xlink" x="0px" y="0px"
	 width="106.503px" height="106.502px" viewBox="0 0 106.503 106.502" enable-background="new 0 0 106.503 106.502"
	 xml:space="preserve">
<path fill="#7F0000" d="M61.62,53.198V19.723H44.776v33.475H61.62z"/>
<path fill="#7F0000" d="M69.936,2.985v16.738H36.46V2.985H69.936z"/>
<path fill="#990000" d="M60.874,53.198V19.723H45.522v33.475H60.874z"/>
<path fill="#990000" d="M68.55,2.985v16.738H37.846V2.985H68.55z"/>
<path fill="#B20000" d="M59.487,53.198V19.723H46.908v33.475H59.487z"/>
<path fill="#B20000" d="M65.778,2.985v16.738h-25.16V2.985H65.778z"/>
<path fill="#CC0000" d="M58.741,53.198V19.723H47.654v33.475H58.741z"/>
<path fill="#CC0000" d="M64.392,2.985v16.738H42.004V2.985H64.392z"/>
<path fill="#E50000" d="M57.675,53.198V19.723h-9.061v33.475H57.675z"/>
<path fill="#E50000" d="M62.26,2.985v16.738H44.136V2.985H62.26z"/>
<path fill="#FF0000" d="M55.224,53.198V19.723h-4.158v33.475H55.224z"/>
<path fill="#FF0000" d="M57.355,2.985v16.738H49.04V2.985H57.355z"/>
<path fill="#7F7F7F" d="M2.985,65.778h100.426v25.054H2.985V65.778z"/>
<path fill="#999999" d="M2.985,66.844h100.426v23.027H2.985V66.844z"/>
<path fill="#A6A6A6" d="M2.985,68.869h100.426v18.87H2.985V68.869z"/>
<path fill="#B2B2B2" d="M2.985,69.936h100.426v16.737H2.985V69.936z"/>
<path fill="#CCCCCC" d="M2.985,71.534h100.426v13.54H2.985V71.534z"/>
<path fill="#E5E5E5" d="M2.985,75.159h100.426v6.29H2.985V75.159z"/>
<path fill="none" stroke="#000000" stroke-width="2" d="M2.985,65.778h100.426v25.054H2.985V65.778"/>
<path fill="#7F0000" d="M36.46,53.198h33.475v50.213H36.46V53.198z"/>
<path fill="#990000" d="M36.46,55.224h33.475v46.161H36.46V55.224z"/>
<path fill="#B20000" d="M36.46,59.488h33.475V97.12H36.46V59.488z"/>
<path fill="#CC0000" d="M36.46,61.62h33.475v33.475H36.46V61.62z"/>
<path fill="#E50000" d="M36.46,64.712h33.475v27.185H36.46V64.712z"/>
<path fill="#FF0000" d="M36.46,72.068h33.475v12.58H36.46V72.068z"/>
<path fill="#7F7F7F" d="M90.831,57.356h8.422v41.897h-8.422V57.356z"/>
<path fill="#7F7F7F" d="M76.226,55.224h8.422v46.161h-8.422V55.224z"/>
<path fill="#7F7F7F" d="M21.855,55.224h8.315v46.161h-8.315V55.224z"/>
<path fill="#7F7F7F" d="M7.143,57.356h8.422v41.897H7.143V57.356z"/>
<path fill="#999999" d="M90.831,59.168h8.422v38.379h-8.422V59.168z"/>
<path fill="#999999" d="M76.226,57.143h8.422v42.323h-8.422V57.143z"/>
<path fill="#999999" d="M21.855,57.143h8.315v42.323h-8.315V57.143z"/>
<path fill="#999999" d="M7.143,59.168h8.422v38.379H7.143V59.168z"/>
<path fill="#A6A6A6" d="M90.831,62.579h8.422v31.45h-8.422V62.579z"/>
<path fill="#A6A6A6" d="M76.226,61.087h8.422v34.541h-8.422V61.087z"/>
<path fill="#A6A6A6" d="M21.855,60.981h8.315v34.647h-8.315V60.981z"/>
<path fill="#A6A6A6" d="M7.143,62.579h8.422v31.45H7.143V62.579z"/>
<path fill="#BFBFBF" d="M90.831,64.392h8.422v27.932h-8.422V64.392z"/>
<path fill="#BFBFBF" d="M76.226,62.9h8.422v30.81h-8.422V62.9z"/>
<path fill="#BFBFBF" d="M21.855,62.9h8.315v30.81h-8.315V62.9z"/>
<path fill="#BFBFBF" d="M7.143,64.392h8.422v27.932H7.143V64.392z"/>
<path fill="#D9D9D9" d="M90.831,66.95h8.422v22.708h-8.422V66.95z"/>
<path fill="#D9D9D9" d="M76.226,65.778h8.422v25.054h-8.422V65.778z"/>
<path fill="#D9D9D9" d="M21.855,65.884h8.315v24.84h-8.315V65.884z"/>
<path fill="#D9D9D9" d="M7.143,66.95h8.422v22.708H7.143V66.95z"/>
<path fill="#FFFFFF" d="M90.831,73.028h8.422v10.554h-8.422V73.028z"/>
<path fill="#FFFFFF" d="M76.226,72.601h8.422v11.514h-8.422V72.601z"/>
<path fill="#FFFFFF" d="M21.855,72.494h8.315v11.62h-8.315V72.494z"/>
<path fill="#FFFFFF" d="M7.143,73.134h8.422v10.447H7.143V73.134z"/>
<path fill="none" stroke="#000000" stroke-width="2" d="M36.46,53.198h33.475v50.213H36.46V53.198"/>
<path fill="none" stroke="#000000" stroke-width="2" d="M76.226,55.224h8.422v46.161h-8.422V55.224"/>
<path fill="none" stroke="#000000" stroke-width="2" d="M90.831,57.356h8.422v41.897h-8.422V57.356"/>
<path fill="none" stroke="#000000" stroke-width="2" d="M21.855,55.224h8.315v46.161h-8.315V55.224"/>
<path fill="none" stroke="#000000" stroke-width="2" d="M7.143,57.356h8.422v41.897H7.143V57.356"/>
<path fill="none" stroke="#000000" stroke-width="2" d="M36.46,2.985h33.475v16.738H36.46V2.985"/>
<path fill="none" stroke="#000000" stroke-width="2" d="M44.776,53.198H61.62V19.723H44.776V53.198"/>
<path fill="#7F7F7F" d="M67.91,32.303v8.315H38.486v-8.315H67.91z"/>
<path fill="#999999" d="M66.631,32.303v8.315H39.765v-8.315H66.631z"/>
<path fill="#A6A6A6" d="M64.179,32.303v8.315H42.217v-8.315H64.179z"/>
<path fill="#BFBFBF" d="M63.006,32.303v8.315H43.39v-8.315H63.006z"/>
<path fill="#D9D9D9" d="M61.087,32.303v8.315H45.309v-8.315H61.087z"/>
<path fill="#FFFFFF" d="M56.823,32.303v8.315h-7.25v-8.315H56.823z"/>
<path fill="none" stroke="#000000" stroke-width="2" d="M38.486,32.303H67.91v8.315H38.486V32.303"/>
<path fill="#7F0000" stroke="#000000" stroke-width="2" d="M38.592,40.618l6.184,4.157H61.62l6.29-4.157H38.592z"/>
</svg>
