<?xml version="1.0" encoding="utf-8"?>
<!-- Generator: Adobe Illustrator 14.0.0, SVG Export Plug-In . SVG Version: 6.00 Build 43363)  -->
<!DOCTYPE svg PUBLIC "-//W3C//DTD SVG 1.1//EN" "http://www.w3.org/Graphics/SVG/1.1/DTD/svg11.dtd">
<svg version="1.1" id="图层_1" xmlns="http://www.w3.org/2000/svg" xmlns:xlink="http://www.w3.org/1999/xlink" x="0px" y="0px"
	 width="58.421px" height="106.502px" viewBox="0 0 58.421 106.502" enable-background="new 0 0 58.421 106.502"
	 xml:space="preserve">
<path fill="#7F7F7F" stroke="#000000" stroke-width="2" d="M22.388,44.99h18.017v15.031H22.388V44.99z"/>
<path fill="#7F7F7F" stroke="#000000" stroke-width="2" d="M10.021,23.988l10.661,1.492l21.321-0.106l10.661-1.386L52.45,10.448
	L41.684,9.063H20.362l-10.66,1.386L10.021,23.988z"/>
<path fill="#7F7F7F" stroke="#000000" stroke-width="2" d="M7.356,15.139h48.08v2.665H7.356V15.139z"/>
<path fill="none" stroke="#000000" stroke-width="2" d="M7.356,16.418h48.08"/>
<path stroke="#000000" stroke-width="2" d="M23.88,25.48h15.031v1.493H23.88V25.48z"/>
<path fill="#7F7F7F" stroke="#000000" stroke-width="2" d="M25.372,26.973h12.047V44.99H25.372V26.973z"/>
<circle stroke="#000000" stroke-width="2" cx="31.343" cy="44.883" r="4.477"/>
<circle fill="#7F7F7F" stroke="#7F7F7F" stroke-width="2" cx="31.449" cy="44.989" r="2.985"/>
<circle fill="#FFFFFF" stroke="#000000" stroke-width="2" cx="26.972" cy="55.437" r="2.985"/>
<circle fill="#FFFFFF" stroke="#000000" stroke-width="2" cx="35.82" cy="55.437" r="2.985"/>
<path fill="none" stroke="#FF0000" stroke-width="2" d="M26.865,55.437l1.599-1.492"/>
<path fill="none" stroke="#000000" stroke-width="2" d="M23.88,55.437h2.985"/>
<path fill="none" stroke="#FF0000" stroke-width="2" d="M35.927,55.437v-1.492"/>
<path fill="none" stroke="#000000" stroke-width="2" d="M38.911,55.437h-2.984"/>
<path stroke="#000000" stroke-width="2" d="M23.987,60.021h14.925V62.9H23.987V60.021z"/>
<path fill="#7F7F7F" stroke="#000000" stroke-width="2" d="M25.372,62.9h3.092v7.568h-3.092V62.9z"/>
<path fill="#7F7F7F" stroke="#000000" stroke-width="2" d="M34.327,62.9h3.092v7.568h-3.092V62.9z"/>
<path fill="#7F7F7F" stroke="#000000" stroke-width="2" d="M22.388,46.375l-2.985,3.092v21.001l2.985,2.985h18.017l2.984-2.985
	V49.36l-2.984-2.984v21.108l-1.493,2.984H23.88l-1.492-2.984V46.375z"/>
<path fill="#7F7F7F" stroke="#000000" stroke-width="2" d="M22.388,82.408l2.984-8.955h12.047l2.985,8.955H22.388z"/>
<path fill="#7F7F7F" stroke="#000000" stroke-width="2" d="M19.403,82.408h23.986v1.599H19.403V82.408z"/>
<path fill="#7F7F7F" stroke="#000000" stroke-width="2" d="M19.403,84.007v2.985l-4.478,1.386v9.062l4.478,4.584h23.986l4.478-4.584
	v-9.062l-4.478-1.492v-2.879H19.403z"/>
<path stroke="#000000" stroke-width="2" d="M14.925,97.44h-1.492v-8.955h1.492V97.44z"/>
<path stroke="#000000" stroke-width="2" d="M49.36,97.44h-1.493v-8.955h1.493V97.44z"/>
<path fill="#7F7F7F" stroke="#000000" stroke-width="2" d="M10.448,82.408h2.985v21.108h-2.985V82.408z"/>
<path fill="#7F7F7F" stroke="#000000" stroke-width="2" d="M49.466,82.408h2.984v21.108h-2.984V82.408z"/>
<path stroke="#000000" stroke-width="2" d="M19.403,80.916h1.492v1.492h-1.492V80.916z"/>
<path stroke="#000000" stroke-width="2" d="M41.897,80.916h1.492v1.492h-1.492V80.916z"/>
<path fill="#FFFFFF" stroke="#000000" stroke-width="2" d="M22.388,58.422H2.878V2.879h28.571v6.077h-1.6V4.371H4.371v52.558h18.017
	V58.422z"/>
</svg>
