<?xml version="1.0" encoding="utf-8"?>
<!-- Generator: Adobe Illustrator 14.0.0, SVG Export Plug-In . SVG Version: 6.00 Build 43363)  -->
<!DOCTYPE svg PUBLIC "-//W3C//DTD SVG 1.1//EN" "http://www.w3.org/Graphics/SVG/1.1/DTD/svg11.dtd">
<svg version="1.1" id="图层_1" xmlns="http://www.w3.org/2000/svg" xmlns:xlink="http://www.w3.org/1999/xlink" x="0px" y="0px"
	 width="66.629px" height="106.502px" viewBox="0 0 66.629 106.502" enable-background="new 0 0 66.629 106.502"
	 xml:space="preserve">
<path fill="#7F7F7F" stroke="#000000" stroke-width="2" d="M30.17,99.252l7.355-4.158h10.447l7.25,4.158h-4.158l-3.092-1.6H37.525
	l-3.198,1.6H30.17z"/>
<path fill="#CCCCCC" stroke="#000000" stroke-width="2" d="M40.617,69.935h4.157v25.159h-4.157V69.935z"/>
<path fill="#FFFFFF" d="M42.216,69.935h1.066v25.159h-1.066V69.935z"/>
<path fill="#7F7F7F" stroke="#000000" stroke-width="2" d="M38.485,74.626l8.102-2.133l0.427,1.493l-8.103,2.238L38.485,74.626z"/>
<path fill="#7F7F7F" stroke="#000000" stroke-width="2" d="M38.485,78.89l8.102-2.132l0.427,1.492l-8.103,2.239L38.485,78.89z"/>
<path fill="#7F7F7F" stroke="#000000" stroke-width="2" d="M38.485,83.048l8.102-2.239l0.427,1.6l-8.103,2.132L38.485,83.048z"/>
<path fill="#7F7F7F" stroke="#000000" stroke-width="2" d="M38.485,87.205l8.102-2.132l0.427,1.492l-8.103,2.238L38.485,87.205z"/>
<path fill="#7F7F7F" stroke="#000000" stroke-width="2" d="M38.485,91.363l8.102-2.132l0.427,1.492l-8.103,2.239L38.485,91.363z"/>
<path fill="#7F7F7F" stroke="#000000" stroke-width="2" d="M38.485,95.627l8.102-2.239l0.427,1.6l-8.103,2.132L38.485,95.627z"/>
<path fill="#7F7F7F" stroke="#000000" stroke-width="2" d="M38.485,70.468l8.102-2.132l0.427,1.492l-8.103,2.239L38.485,70.468z"/>
<path fill="#999999" d="M36.46,28.039v-3.625L18.123,34.862l-6.289-10.98L36.46,9.809V7.144h12.579v20.896H36.46z"/>
<path fill="#B2B2B2" d="M37.419,28.146v-5.757L17.59,33.795l-5.224-8.848l25.159-14.605l-0.106-3.198h10.554v21.002H37.419z"/>
<path fill="#CCCCCC" d="M39.551,28.039v-9.382L16.524,31.77l-3.092-4.69l26.118-15.244V7.144h6.29v20.896H39.551z"/>
<path fill="#E5E5E5" d="M41.683,28.039V15.032L15.564,30.171l-1.065-1.6l27.185-15.671V7.144h2.025v20.896H41.683z"/>
<path fill="#999999" d="M26.011,2.987h33.475v4.157H26.011V2.987z"/>
<path fill="#999999" stroke="#000000" stroke-width="2" d="M36.46,69.935V53.198l-4.158-4.157V28.039h20.895V49.04l-4.157,4.157
	v16.737H36.46z"/>
<path fill="none" stroke="#000000" stroke-width="2" d="M36.46,28.039v-3.625L18.123,34.862l-6.289-10.98L36.46,9.809V7.144h12.579
	v20.896H36.46"/>
<path fill="#B2B2B2" d="M28.784,2.987h27.824v4.157H28.784V2.987z"/>
<path fill="#CCCCCC" d="M34.327,2.987h16.737v4.157H34.327V2.987z"/>
<path fill="#E5E5E5" d="M39.977,2.987h5.437v4.157h-5.437V2.987z"/>
<path fill="none" stroke="#000000" stroke-width="2" d="M26.011,2.987h33.475v4.157H26.011V2.987"/>
<path fill="#999999" d="M6.609,14.713L23.346,43.71l-3.624,2.132L2.985,16.845L6.609,14.713z"/>
<path fill="#B2B2B2" d="M7.996,17.272l13.965,23.986l-3.624,2.132L4.371,19.297L7.996,17.272z"/>
<path fill="#CCCCCC" d="M10.767,21.962l8.422,14.605l-3.625,2.025L7.142,24.094L10.767,21.962z"/>
<path fill="#E5E5E5" d="M13.539,26.866l2.771,4.797l-3.518,2.025l-2.878-4.69L13.539,26.866z"/>
<path fill="none" stroke="#000000" stroke-width="2" d="M6.609,14.713L23.346,43.71l-3.624,2.132L2.985,16.845L6.609,14.713"/>
<path fill="#4C4C4C" stroke="#000000" stroke-width="2" d="M39.551,33.795h6.29v8.955h-6.29V33.795z"/>
<path fill="#CCCCCC" d="M41.257,28.039h2.985V42.75h-2.985V28.039z"/>
<path fill="none" stroke="#000000" stroke-width="2" d="M39.551,28.039h6.29v5.756h-6.29V28.039"/>
<path fill="#CCCCCC" d="M47.44,46.375V28.039h4.157v19.935l-5.224,5.224v16.737h-7.355V53.198l-5.225-5.224V28.039h4.158v18.336
	l4.797,4.69L47.44,46.375z"/>
<path fill="#B2B2B2" d="M39.551,43.283v2.559l3.198,3.198l3.092-3.198v-2.559H39.551z"/>
<path fill="#F2F2F2" d="M48.932,47.442V28.039h1.065v19.935l-5.756,5.757v16.204H41.15V53.731l-5.757-5.757V28.039h1.066v19.402
	l6.289,6.289L48.932,47.442z"/>
<path fill="none" stroke="#000000" stroke-width="2" d="M32.302,28.039h20.895v5.756H32.302V28.039"/>
<path fill="#666666" stroke="#000000" stroke-width="2" d="M49.039,19.191h3.092v3.625h-3.092V19.191z"/>
<path fill="#999999" stroke="#000000" stroke-width="2" d="M49.039,12.367h3.092v6.823h-3.092V12.367z"/>
<path fill="#B2B2B2" stroke="#000000" stroke-width="2" d="M52.131,16.526h2.132v4.264h-2.132V16.526z"/>
<path fill="#E5E5E5" stroke="#000000" stroke-width="2" d="M52.131,14.5h2.132v2.025h-2.132V14.5z"/>
<path fill="#999999" d="M61.618,103.409H23.88l-2.132-2.025l0.64-1.492l1.492-0.64h37.738l2.026,2.132L61.618,103.409z"/>
<path fill="#BFBFBF" d="M55.969,103.409H29.53h-0.32l-0.746-0.533l-0.426-1.065v-0.427l0.319-1.173l0.64-0.746l0.213-0.213h0.32
	h26.438l0.746,0.319l0.533,0.96l0.106,0.853l-0.214,1.173l-0.639,0.746L55.969,103.409z"/>
<path fill="#E5E5E5" d="M49.358,103.409H36.139h-0.106l-0.533-0.853l-0.106-0.746l0.106-1.279l0.213-0.96l0.32-0.319h0.106h13.219
	h0.107l0.106,0.213l0.426,1.066v0.426v1.173l-0.319,0.959l-0.106,0.214l-0.106,0.106H49.358z"/>
<path fill="none" stroke="#000000" stroke-width="2" d="M61.618,103.409H23.88l-2.132-2.025l0.64-1.492l1.492-0.64h37.738
	l2.026,2.132L61.618,103.409"/>
<path fill="#A6A6A6" stroke="#000000" stroke-width="2" d="M37.525,99.252v-4.158h10.447v4.158H37.525z"/>
<path fill="none" stroke="#000000" stroke-width="2" d="M36.46,66.844h12.579"/>
<circle fill="#E5E5E5" stroke="#000000" stroke-width="2" cx="42.642" cy="63.645" r="2.026"/>
<circle cx="42.749" cy="63.645" r="1.066"/>
</svg>
