<?xml version="1.0" encoding="utf-8"?>
<!-- Generator: Adobe Illustrator 14.0.0, SVG Export Plug-In . SVG Version: 6.00 Build 43363)  -->
<!DOCTYPE svg PUBLIC "-//W3C//DTD SVG 1.1//EN" "http://www.w3.org/Graphics/SVG/1.1/DTD/svg11.dtd">
<svg version="1.1" id="图层_1" xmlns="http://www.w3.org/2000/svg" xmlns:xlink="http://www.w3.org/1999/xlink" x="0px" y="0px"
	 width="64.073px" height="106.502px" viewBox="0 0 64.073 106.502" enable-background="new 0 0 64.073 106.502"
	 xml:space="preserve">
<path fill="#7F7F7F" stroke="#000000" stroke-width="2" d="M7.57,43.71h7.889v7.889H7.57V43.71z"/>
<path fill="#FFFFFF" stroke="#000000" stroke-width="2" d="M7.676,40.511l3.092-14.072l18.87-3.198v1.6l-17.271,3.092L9.169,40.511
	H7.676z"/>
<path stroke="#7F7F7F" stroke-width="2" d="M10.128,47.655l0.959,0.746l0.64,0.959l0.533,1.173l0.107,0.533v0.533l-0.107,0.959
	l-0.213,0.854l-0.427,0.853l-0.64,0.746l-0.64,0.533L9.489,55.97l-0.853,0.213l-0.959,0.106l-0.959-0.106L5.757,55.97l-0.746-0.427
	l-0.64-0.533l-0.64-0.746l-0.427-0.853l-0.32-0.854l-0.106-0.959l0.106-0.533l0.32-1.173l0.533-1.065l0.746-0.854l0.427-0.319
	l-0.853-0.746l-0.64-0.96l-0.426-1.066L2.879,43.71l0.106-0.96l0.32-0.853l0.427-0.747l0.64-0.746l0.64-0.64l0.746-0.319l0.959-0.32
	l0.959-0.106l0.959,0.106l0.853,0.32l0.853,0.319l0.64,0.64l0.64,0.746l0.427,0.747l0.213,0.853l0.107,0.96l-0.107,1.172
	l-0.533,1.066l-0.64,0.96L10.128,47.655z"/>
<circle fill="#FFFFFF" stroke="#7F7F7F" stroke-width="2" cx="7.57" cy="51.492" r="3.092"/>
<path fill="#0000FF" stroke="#000000" stroke-width="2" d="M13.433,18.656l11.194,1.492l22.388-0.106l11.194-1.386L57.89,4.371
	L46.695,2.878H24.307L13.113,4.371L13.433,18.656z"/>
<path stroke="#000000" stroke-width="2" d="M28.039,20.149h15.779v1.493H28.039V20.149z"/>
<path fill="#0000FF" stroke="#000000" stroke-width="2" d="M29.638,21.642h12.58v18.869h-12.58V21.642z"/>
<circle fill="#FFFFFF" stroke="#7F7F7F" stroke-width="2" cx="7.57" cy="43.71" r="3.091"/>
<path fill="none" stroke="#FF0000" stroke-width="2" d="M7.676,51.599l-1.599-1.6"/>
<path fill="none" stroke="#000000" stroke-width="2" d="M7.676,54.797v-3.198"/>
<path fill="none" stroke="#FF0000" stroke-width="2" d="M7.676,43.71H6.077"/>
<path fill="none" stroke="#000000" stroke-width="2" d="M7.676,40.511v3.199"/>
<path stroke="#000000" stroke-width="2" d="M28.039,56.289h15.779v3.198H28.039V56.289z"/>
<path fill="#0000FF" stroke="#000000" stroke-width="2" d="M29.531,59.488h12.687v7.783H29.531V59.488z"/>
<path fill="#0000FF" stroke="#000000" stroke-width="2" d="M29.638,40.511V37.42l-6.29,3.091v26.866l3.092,3.092h18.87l3.197-3.092
	V39.019l-6.289-1.599v3.091h3.092v23.668l-1.6,3.198H28.039l-1.599-3.198V40.511H29.638z"/>
<path fill="#0000FF" stroke="#000000" stroke-width="2" d="M26.439,79.85l3.198-9.381h12.58l3.092,9.381H26.439z"/>
<path fill="#0000FF" stroke="#000000" stroke-width="2" d="M23.348,79.85h25.159v1.6H23.348V79.85z"/>
<path fill="#0000FF" stroke="#000000" stroke-width="2" d="M23.348,81.449v3.198l-4.691,1.492v9.488l4.691,4.691h25.159l4.691-4.691
	V86.14l-4.691-1.599v-3.092H23.348z"/>
<path stroke="#000000" stroke-width="2" d="M18.55,95.628h-1.493V86.14h1.493V95.628z"/>
<path stroke="#000000" stroke-width="2" d="M54.798,95.628h-1.6V86.14h1.6V95.628z"/>
<path fill="#0000FF" stroke="#000000" stroke-width="2" d="M13.859,79.85h3.198v22.068h-3.198V79.85z"/>
<path fill="#0000FF" stroke="#000000" stroke-width="2" d="M54.798,79.85h3.092v22.068h-3.092V79.85z"/>
<path stroke="#000000" stroke-width="2" d="M23.348,78.358h1.493v1.492h-1.493V78.358z"/>
<path stroke="#000000" stroke-width="2" d="M46.908,78.358h1.599v1.492h-1.599V78.358z"/>
<path stroke="#000000" stroke-width="2" d="M10.768,101.918h9.381v1.6h-9.381V101.918z"/>
<path stroke="#000000" stroke-width="2" d="M51.706,101.918h9.381v1.6h-9.381V101.918z"/>
<path stroke="#000000" stroke-width="2" d="M12.367,39.019h17.271v17.377H12.367V39.019z"/>
<circle stroke="#7F7F7F" stroke-width="2" cx="24.84" cy="51.492" r="3.092"/>
<path fill="#7F7F7F" stroke="#7F7F7F" stroke-width="2" d="M13.859,46.908h14.179v-1.6H13.859V46.908z"/>
<path stroke="#000000" stroke-width="2" d="M17.058,35.821h7.889v3.198h-7.889V35.821z"/>
<path fill="#0000FF" stroke="#000000" stroke-width="2" d="M32.729,40.511h6.29v15.778h-6.29V40.511z"/>
<path fill="#0000FF" stroke="#000000" stroke-width="2" d="M31.237,46.908h9.381v4.69h-9.381V46.908z"/>
<path fill="#0000FF" stroke="#000000" stroke-width="2" d="M12.367,12.26h3.091v1.6h-3.091V12.26z"/>
<path stroke="#000000" stroke-width="2" d="M12.367,9.062h3.091v3.198h-3.091V9.062z"/>
<path fill="#0000FF" stroke="#000000" stroke-width="2" d="M56.396,12.26h3.092v1.6h-3.092V12.26z"/>
<path stroke="#000000" stroke-width="2" d="M56.396,9.062h3.092v3.198h-3.092V9.062z"/>
<path fill="#0000FF" stroke="#000000" stroke-width="2" d="M31.237,12.26h3.092v1.6h-3.092V12.26z"/>
<path stroke="#000000" stroke-width="2" d="M31.237,9.062h3.092v3.198h-3.092V9.062z"/>
<path fill="#0000FF" stroke="#000000" stroke-width="2" d="M24.947,12.26h3.092v1.6h-3.092V12.26z"/>
<path stroke="#000000" stroke-width="2" d="M24.947,9.062h3.092v3.198h-3.092V9.062z"/>
<path fill="#0000FF" stroke="#000000" stroke-width="2" d="M18.657,12.26h3.092v1.6h-3.092V12.26z"/>
<path stroke="#000000" stroke-width="2" d="M18.657,9.062h3.092v3.198h-3.092V9.062z"/>
<path fill="#0000FF" stroke="#000000" stroke-width="2" d="M37.526,12.26h3.092v1.6h-3.092V12.26z"/>
<path stroke="#000000" stroke-width="2" d="M37.526,9.062h3.092v3.198h-3.092V9.062z"/>
<path fill="#0000FF" stroke="#000000" stroke-width="2" d="M43.817,12.26h3.091v1.6h-3.091V12.26z"/>
<path stroke="#000000" stroke-width="2" d="M43.817,9.062h3.091v3.198h-3.091V9.062z"/>
<path fill="#0000FF" stroke="#000000" stroke-width="2" d="M50.106,12.26h3.092v1.6h-3.092V12.26z"/>
<path stroke="#000000" stroke-width="2" d="M50.106,9.062h3.092v3.198h-3.092V9.062z"/>
<path fill="#0000FF" stroke="#000000" stroke-width="2" d="M10.768,9.275h50.319v2.772H10.768V9.275z"/>
<path stroke="#000000" stroke-width="2" d="M15.458,54.691h3.198v3.198h-3.198V54.691z"/>
</svg>
