<?xml version="1.0" encoding="utf-8"?>
<!-- Generator: Adobe Illustrator 14.0.0, SVG Export Plug-In . SVG Version: 6.00 Build 43363)  -->
<!DOCTYPE svg PUBLIC "-//W3C//DTD SVG 1.1//EN" "http://www.w3.org/Graphics/SVG/1.1/DTD/svg11.dtd">
<svg version="1.1" id="图层_1" xmlns="http://www.w3.org/2000/svg" xmlns:xlink="http://www.w3.org/1999/xlink" x="0px" y="0px"
	 width="106.503px" height="106.502px" viewBox="0 0 106.503 106.502" enable-background="new 0 0 106.503 106.502"
	 xml:space="preserve">
<path fill="#7F7F7F" d="M3.014,62.696h100.474v31.348H3.014V62.696z"/>
<path fill="#999999" d="M3.014,64.705h100.474v27.329H3.014V64.705z"/>
<path fill="#B2B2B2" d="M3.014,67.719h100.474v21.502H3.014V67.719z"/>
<path fill="#CCCCCC" d="M3.014,71.537h100.474v13.665H3.014V71.537z"/>
<path fill="#E5E5E5" d="M3.014,74.953h100.474v6.832H3.014V74.953z"/>
<path fill="#FFFFFF" d="M3.014,77.968h100.474v0.804H3.014V77.968z"/>
<path fill="none" stroke="#000000" stroke-width="2" d="M3.014,62.696h100.474v31.348H3.014V62.696"/>
<path fill="#7F7F7F" d="M28.133,53.452H78.37v50.036H28.133V53.452z"/>
<path fill="#999999" d="M28.133,56.466H78.37v43.807H28.133V56.466z"/>
<path fill="#B2B2B2" d="M28.133,61.289H78.37v34.362H28.133V61.289z"/>
<path fill="#CCCCCC" d="M28.133,67.519H78.37v21.702H28.133V67.519z"/>
<path fill="#E5E5E5" d="M28.133,72.945H78.37v10.851H28.133V72.945z"/>
<path fill="#FFFFFF" d="M28.133,77.566H78.37v1.607H28.133V77.566z"/>
<path fill="none" stroke="#000000" stroke-width="2" d="M28.133,53.251H78.37v50.237H28.133V53.251"/>
<path fill="#7F7F7F" d="M3.014,53.452h18.889v50.036H3.014V53.452z"/>
<path fill="#999999" d="M3.014,56.466h18.889v43.807H3.014V56.466z"/>
<path fill="#B2B2B2" d="M3.014,61.088h18.889v34.563H3.014V61.088z"/>
<path fill="#CCCCCC" d="M3.014,67.519h18.889v21.702H3.014V67.519z"/>
<path fill="#E5E5E5" d="M3.014,72.945h18.889v10.851H3.014V72.945z"/>
<path fill="#FFFFFF" d="M3.014,77.566h18.889v1.607H3.014V77.566z"/>
<path fill="none" stroke="#000000" stroke-width="2" d="M3.014,53.251h18.889v50.237H3.014V53.251"/>
<path fill="#7F7F7F" d="M84.599,53.452h18.89v50.036h-18.89V53.452z"/>
<path fill="#999999" d="M84.599,56.466h18.89v43.807h-18.89V56.466z"/>
<path fill="#B2B2B2" d="M84.599,61.088h18.89v34.563h-18.89V61.088z"/>
<path fill="#CCCCCC" d="M84.599,67.519h18.89v21.702h-18.89V67.519z"/>
<path fill="#E5E5E5" d="M84.599,72.945h18.89v10.851h-18.89V72.945z"/>
<path fill="#FFFFFF" d="M84.599,77.566h18.89v1.607h-18.89V77.566z"/>
<path fill="none" stroke="#000000" stroke-width="2" d="M84.599,53.251h18.89v50.237h-18.89V53.251"/>
<path fill="#7F7F7F" d="M68.925,34.363v18.889H37.577V34.363H68.925z"/>
<path fill="#999999" d="M66.915,34.363v18.889H39.587V34.363H66.915z"/>
<path fill="#B2B2B2" d="M64.103,34.363v18.889H42.601V34.363H64.103z"/>
<path fill="#CCCCCC" d="M60.083,34.363v18.889H46.419V34.363H60.083z"/>
<path fill="#E5E5E5" d="M56.667,34.363v18.889h-6.832V34.363H56.667z"/>
<path fill="#FFFFFF" d="M53.854,34.363v18.889h-1.005V34.363H53.854z"/>
<path fill="none" stroke="#000000" stroke-width="2" d="M68.925,34.363v18.889H37.577V34.363H68.925"/>
<path fill="#7F7F7F" d="M59.48,15.473v18.89H47.022v-18.89H59.48z"/>
<path fill="#999999" d="M58.677,15.473v18.89H47.826v-18.89H58.677z"/>
<path fill="#B2B2B2" d="M57.472,15.473v18.89h-8.44v-18.89H57.472z"/>
<path fill="#CCCCCC" d="M56.064,15.473v18.89h-5.626v-18.89H56.064z"/>
<path fill="#E5E5E5" d="M54.657,15.473v18.89h-2.813v-18.89H54.657z"/>
<path fill="#FFFFFF" d="M53.452,15.473v18.89H53.05v-18.89H53.452z"/>
<path fill="none" stroke="#000000" stroke-width="2" d="M59.48,15.473v18.89H47.022v-18.89H59.48"/>
<path fill="#7F7F7F" d="M53.251,15.473l-25.118,0.201l0.603-2.612l1.407-2.411l2.21-2.01l3.215-2.01l3.617-1.406l4.22-1.206
	l4.823-0.804l5.023-0.201l5.023,0.201l4.823,0.804l4.22,1.206l3.617,1.406l3.215,1.809l2.211,2.211l1.406,2.411l0.604,2.411H53.251z
	"/>
<path fill="#999999" d="M53.251,15.674H31.348l0.402-2.612l1.406-2.411l2.01-2.01l2.612-2.01l3.215-1.406l3.818-1.206l4.019-0.804
	l4.42-0.201l4.421,0.201l4.019,0.804l3.818,1.206l3.215,1.406l2.613,1.809l2.01,2.211l1.406,2.411l0.401,2.411L53.251,15.674z"/>
<path fill="#B2B2B2" d="M53.251,15.674H35.97l0.402-2.612l1.005-2.411l1.607-2.01l2.009-2.01l2.612-1.406l3.015-1.206l3.215-0.804
	l3.416-0.201l3.416,0.201l3.215,0.804l3.015,1.206l2.612,1.406l2.01,1.809l1.607,2.211l1.005,2.411l0.401,2.411L53.251,15.674z"/>
<path fill="#CCCCCC" d="M53.251,15.473l-11.052,0.201l0.201-2.612l0.603-2.411l1.005-2.01l1.406-2.01l1.608-1.406l2.009-1.206
	l2.01-0.804l2.21-0.201l2.211,0.201l2.01,0.804l2.009,1.206l1.608,1.406l1.406,1.809l1.004,2.211l0.604,2.411l0.201,2.411H53.251z"
	/>
<path fill="#E5E5E5" d="M53.251,15.473l-5.425,0.201l0.201-2.612l0.201-2.411l0.603-2.01l0.603-2.01l0.804-1.406l0.804-1.206
	l1.206-0.804l1.004-0.201l1.005,0.201l1.206,0.804l0.804,1.206l0.804,1.406l0.603,1.809l0.603,2.211l0.201,2.411l0.201,2.411H53.251
	z"/>
<ellipse fill="#FFFFFF" cx="53.251" cy="9.243" rx="0.805" ry="6.229"/>
<path fill="none" stroke="#000000" stroke-width="2" d="M53.251,15.473l-25.118,0.201l0.603-2.612l1.407-2.411l2.21-2.01l3.215-2.01
	l3.617-1.406l4.22-1.206l4.823-0.804l5.023-0.201l5.023,0.201l4.823,0.804l4.22,1.206l3.617,1.406l3.215,1.809l2.211,2.211
	l1.406,2.411l0.604,2.411H53.251"/>
</svg>
