<?xml version="1.0" encoding="utf-8"?>
<!-- Generator: Adobe Illustrator 14.0.0, SVG Export Plug-In . SVG Version: 6.00 Build 43363)  -->
<!DOCTYPE svg PUBLIC "-//W3C//DTD SVG 1.1//EN" "http://www.w3.org/Graphics/SVG/1.1/DTD/svg11.dtd">
<svg version="1.1" id="图层_1" xmlns="http://www.w3.org/2000/svg" xmlns:xlink="http://www.w3.org/1999/xlink" x="0px" y="0px"
	 width="106.503px" height="106.502px" viewBox="0 0 106.503 106.502" enable-background="new 0 0 106.503 106.502"
	 xml:space="preserve">
<path fill="#7F7F7F" d="M61.69,19.693V86.81H11.454V19.693H61.69z"/>
<path fill="#999999" d="M58.476,19.693V86.81H14.468V19.693H58.476z"/>
<path fill="#B2B2B2" d="M53.251,19.693V86.81H19.894V19.693H53.251z"/>
<path fill="#CCCCCC" d="M48.026,19.693V86.81H25.119V19.693H48.026z"/>
<path fill="#E5E5E5" d="M44.008,19.693V86.81H29.338V19.693H44.008z"/>
<path fill="#FFFFFF" d="M39.587,19.693V86.81h-6.029V19.693H39.587z"/>
<path fill="none" stroke="#000000" stroke-width="2" d="M11.454,19.693V86.81"/>
<path fill="none" stroke="#000000" stroke-width="2" d="M61.69,86.81V19.693"/>
<path fill="#7F7F7F" d="M70.131,3.014v16.679H3.014V3.014H70.131z"/>
<path fill="#999999" d="M65.911,3.014v16.679H7.234V3.014H65.911z"/>
<path fill="#B2B2B2" d="M58.677,3.014v16.679h-44.41V3.014H58.677z"/>
<path fill="#CCCCCC" d="M51.845,3.014v16.679H21.1V3.014H51.845z"/>
<path fill="#E5E5E5" d="M46.419,3.014v16.679H26.726V3.014H46.419z"/>
<path fill="#FFFFFF" d="M40.591,3.014v16.679h-8.038V3.014H40.591z"/>
<path fill="none" stroke="#000000" stroke-width="2" d="M70.131,3.014v16.679H3.014V3.014H70.131"/>
<path fill="#7F7F7F" d="M70.131,86.81v16.679H3.014V86.81H70.131z"/>
<path fill="#999999" d="M65.911,86.81v16.679H7.234V86.81H65.911z"/>
<path fill="#B2B2B2" d="M58.677,86.81v16.679h-44.41V86.81H58.677z"/>
<path fill="#CCCCCC" d="M51.845,86.81v16.679H21.1V86.81H51.845z"/>
<path fill="#E5E5E5" d="M46.419,86.81v16.679H26.726V86.81H46.419z"/>
<path fill="#FFFFFF" d="M40.591,86.81v16.679h-8.038V86.81H40.591z"/>
<path fill="none" stroke="#000000" stroke-width="2" d="M70.131,86.81v16.679H3.014V86.81H70.131"/>
<path fill="#7F7F7F" d="M61.69,44.812H86.81v16.879H61.69l-1.607-0.2l-1.607-0.402l-1.406-0.804l-1.406-1.005l-1.006-1.406
	l-0.803-1.407l-0.402-1.607l-0.201-1.607l0.201-1.607l0.402-1.607l0.803-1.407l1.006-1.406l1.406-1.005l1.406-0.804l1.607-0.402
	L61.69,44.812z"/>
<path fill="#999999" d="M57.672,46.017l-1.005,0.604l-0.804,0.603l-0.804,1.005l-0.603,0.804l-0.603,1.005l-0.402,1.005
	l-0.201,1.004v1.206v1.206l0.402,1.004l0.402,1.005l0.401,1.005l0.603,1.005l0.804,0.804l0.804,0.804l1.005,0.604H86.81v-14.67
	H57.672z"/>
<path fill="#B2B2B2" d="M55.462,47.624l-1.005,1.206l-0.603,1.406l-0.402,1.608l-0.201,1.406l0.201,1.406l0.402,1.608l0.603,1.406
	l1.005,1.206H86.81V47.624H55.462z"/>
<path fill="#CCCCCC" d="M54.256,49.433l-0.401,1.005l-0.402,0.804l-0.201,1.005v1.005v1.005l0.201,1.005l0.402,0.804l0.401,1.005
	H86.81v-7.637H54.256z"/>
<path fill="#E5E5E5" d="M53.653,50.84l-0.201,0.603v0.603l-0.201,0.604v0.603v0.804l0.201,0.603l0.201,0.804l0.201,0.604H86.81
	V50.84H53.653z"/>
<path fill="#FFFFFF" d="M53.452,52.246v0.201v0.201l-0.201,0.401v0.201v0.201l0.201,0.401v0.201v0.201H86.81v-2.01H53.452z"/>
<path fill="none" stroke="#000000" stroke-width="2" d="M86.81,61.691H61.69l-1.607-0.2l-1.607-0.402l-1.406-0.804l-1.406-1.005
	l-1.006-1.406l-0.803-1.407l-0.402-1.607l-0.201-1.607l0.201-1.607l0.402-1.607l0.803-1.407l1.006-1.406l1.406-1.005l1.406-0.804
	l1.607-0.402l1.607-0.2H86.81"/>
<path fill="#999999" stroke="#000000" stroke-width="2" d="M93.039,86.81l-1.206-0.604l-1.809-3.416l-1.004-3.617l-0.805-4.621
	l-0.401-2.612l-0.201-2.813l-0.401-2.813l-0.201-3.014v-3.216l-0.201-3.416v-3.416v-3.416l0.201-3.416v-3.216l0.201-3.014
	l0.401-2.813l0.201-2.813l0.804-5.023l1.004-4.019l1.006-3.216l1.205-2.009l0.604-0.402l0.603-0.201h6.431l-0.805,0.604
	l-1.205,3.416l-0.805,3.617l-0.401,4.621l-0.401,2.612l-0.201,2.813v2.813l-0.201,3.014l-0.201,3.216v13.664l0.201,3.216
	l0.201,3.014v2.813l0.201,2.813l0.603,5.023l0.603,4.019l0.805,3.216l0.803,2.009l0.402,0.402l0.402,0.201H93.039z"/>
<ellipse fill="#E5E5E5" stroke="#000000" stroke-width="2" cx="99.269" cy="53.251" rx="4.019" ry="33.559"/>
</svg>
