<?xml version="1.0" encoding="utf-8"?>
<!-- Generator: Adobe Illustrator 14.0.0, SVG Export Plug-In . SVG Version: 6.00 Build 43363)  -->
<!DOCTYPE svg PUBLIC "-//W3C//DTD SVG 1.1//EN" "http://www.w3.org/Graphics/SVG/1.1/DTD/svg11.dtd">
<svg version="1.1" id="图层_1" xmlns="http://www.w3.org/2000/svg" xmlns:xlink="http://www.w3.org/1999/xlink" x="0px" y="0px"
	 width="106.503px" height="106.502px" viewBox="0 0 106.503 106.502" enable-background="new 0 0 106.503 106.502"
	 xml:space="preserve">
<path fill="#7F7F7F" d="M19.894,45.012H86.81v50.036H19.894V45.012z"/>
<path fill="#999999" d="M19.894,48.027H86.81v44.008H19.894V48.027z"/>
<path fill="#B2B2B2" d="M19.894,53.452H86.81V86.81H19.894V53.452z"/>
<path fill="#CCCCCC" d="M19.894,58.476H86.81v23.109H19.894V58.476z"/>
<path fill="#E5E5E5" d="M19.894,62.696H86.81v14.669H19.894V62.696z"/>
<path fill="#FFFFFF" d="M19.894,66.915H86.81v6.229H19.894V66.915z"/>
<path fill="none" stroke="#000000" stroke-width="2" d="M19.894,95.048H86.81"/>
<path fill="none" stroke="#000000" stroke-width="2" d="M86.81,45.012H19.894"/>
<path fill="#7F7F7F" d="M3.014,36.573h16.88v66.916H3.014V36.573z"/>
<path fill="#999999" d="M3.014,40.591h16.88v58.878H3.014V40.591z"/>
<path fill="#B2B2B2" d="M3.014,47.825h16.88v44.61H3.014V47.825z"/>
<path fill="#CCCCCC" d="M3.014,54.657h16.88v30.745H3.014V54.657z"/>
<path fill="#E5E5E5" d="M3.014,60.083h16.88v19.693H3.014V60.083z"/>
<path fill="#FFFFFF" d="M3.014,65.911h16.88v8.238H3.014V65.911z"/>
<path fill="none" stroke="#000000" stroke-width="2" d="M3.014,36.573h16.88v66.916H3.014V36.573"/>
<path fill="#7F7F7F" d="M86.81,36.573h16.679v66.916H86.81V36.573z"/>
<path fill="#999999" d="M86.81,40.591h16.679v58.878H86.81V40.591z"/>
<path fill="#B2B2B2" d="M86.81,47.825h16.679v44.61H86.81V47.825z"/>
<path fill="#CCCCCC" d="M86.81,54.657h16.679v30.745H86.81V54.657z"/>
<path fill="#E5E5E5" d="M86.81,60.083h16.679v19.693H86.81V60.083z"/>
<path fill="#FFFFFF" d="M86.81,65.911h16.679v8.238H86.81V65.911z"/>
<path fill="none" stroke="#000000" stroke-width="2" d="M86.81,36.573h16.679v66.916H86.81V36.573"/>
<path fill="#7F7F7F" d="M45.012,44.812V19.693H61.69v25.119l-0.2,1.607l-0.401,1.607l-0.805,1.406L59.28,50.84l-1.407,1.005
	l-1.407,0.804l-1.607,0.401l-1.607,0.201l-1.607-0.201l-1.607-0.401l-1.407-0.804l-1.206-1.005l-1.005-1.407l-0.804-1.406
	l-0.402-1.607L45.012,44.812z"/>
<path fill="#999999" d="M46.017,49.031l0.603,1.005l0.603,0.804l1.005,0.603l0.804,0.603l1.005,0.604l1.005,0.401l1.004,0.201h1.206
	h1.206l1.005-0.201l1.004-0.401l1.206-0.604l0.804-0.603l0.805-0.603l0.803-0.804l0.604-1.005V19.693H46.017V49.031z"/>
<path fill="#B2B2B2" d="M47.826,51.041l1.206,1.004l1.206,0.604l1.608,0.401l1.406,0.201l1.406-0.201l1.608-0.401l1.406-0.604
	l1.206-0.804V19.693H47.826V51.041z"/>
<path fill="#CCCCCC" d="M49.433,52.246l1.005,0.402l1.005,0.401l0.804,0.201h1.004h1.005l1.005-0.201l1.005-0.401l0.804-0.402
	V19.693h-7.636V52.246z"/>
<path fill="#E5E5E5" d="M50.84,52.849l0.603,0.201h0.603l0.603,0.201h0.603h0.805l0.602-0.201h0.805l0.603-0.201V19.693H50.84
	V52.849z"/>
<path fill="#FFFFFF" d="M52.247,53.251h0.201h0.402h0.201h0.201h0.402h0.201h0.401h0.201V19.693h-2.21V53.251z"/>
<path fill="none" stroke="#000000" stroke-width="2" d="M61.69,19.693v25.119l-0.2,1.607l-0.401,1.607l-0.805,1.406L59.28,50.84
	l-1.407,1.005l-1.407,0.804l-1.607,0.401l-1.607,0.201l-1.607-0.201l-1.607-0.401l-1.407-0.804l-1.206-1.005l-1.005-1.407
	l-0.804-1.406l-0.402-1.607l-0.201-1.607V19.693"/>
<path fill="#999999" stroke="#000000" stroke-width="2" d="M86.81,13.463l-0.604,1.206l-3.416,1.809l-3.617,1.005l-4.621,0.804
	l-2.612,0.401l-2.813,0.201l-2.813,0.402l-3.015,0.201h-3.216l-3.416,0.2h-3.416h-3.416l-3.416-0.2h-3.014l-3.215-0.201
	l-2.813-0.402l-2.813-0.201l-4.823-0.804l-4.22-1.004l-3.014-1.005l-2.412-1.809l-0.201-0.604V7.235l2.612,1.607l3.014,0.603
	l4.22,0.804l4.823,0.402l2.813,0.2l2.813,0.201l3.215,0.201l3.014,0.201h13.664l3.216-0.201l3.015-0.201l2.813-0.201l2.813-0.2
	l5.023-0.402l4.019-0.804l3.216-0.603l2.009-0.804l0.402-0.402l0.201-0.401V13.463z"/>
<ellipse fill="#E5E5E5" stroke="#000000" stroke-width="2" cx="53.251" cy="7.234" rx="33.357" ry="4.22"/>
</svg>
