<?xml version="1.0" encoding="utf-8"?>
<!-- Generator: Adobe Illustrator 14.0.0, SVG Export Plug-In . SVG Version: 6.00 Build 43363)  -->
<!DOCTYPE svg PUBLIC "-//W3C//DTD SVG 1.1//EN" "http://www.w3.org/Graphics/SVG/1.1/DTD/svg11.dtd">
<svg version="1.1" id="图层_1" xmlns="http://www.w3.org/2000/svg" xmlns:xlink="http://www.w3.org/1999/xlink" x="0px" y="0px"
	 width="144.749px" height="106.352px" viewBox="0 0 144.749 106.352" enable-background="new 0 0 144.749 106.352"
	 xml:space="preserve">
<path fill="#B2B2B2" stroke="#000000" stroke-width="2" d="M55.204,6.955h8.693v7.1h-8.693V6.955z"/>
<path fill="#E5E5E5" stroke="#000000" stroke-width="2" d="M57.378,10.577V6.955h-1.449V6.52h7.1v0.435h-1.304v3.622H57.378z"/>
<path fill="#666666" d="M6.811,39.845h17.242v8.403H95.05v-8.403h17.098v62.448H95.05v-8.548H24.053v8.548H6.811V39.845z"/>
<path fill="#7D7D7D" d="M6.955,43.758h17.098v7.39H95.05v-7.39h17.242v54.479H95.05v-7.534H24.053v7.534H6.955V43.758z"/>
<path fill="#919191" d="M6.955,47.814h17.098v6.23H95.05v-6.23h17.242V94.18H95.05v-6.376H24.053v6.376H6.955V47.814z"/>
<path fill="#A8A8A8" d="M6.955,51.872h17.098v5.216H95.05v-5.216h17.242v38.251H95.05v-5.216H24.053v5.216H6.955V51.872z"/>
<path fill="#BDBDBD" d="M6.955,55.928h17.098v4.057H95.05v-4.057h17.242v30.138H95.05v-4.202H24.053v4.202H6.955V55.928z"/>
<path fill="#D4D4D4" d="M6.955,59.985h17.098v3.043H95.05v-3.043h17.242V82.01H95.05v-3.043H24.053v3.043H6.955V59.985z"/>
<path fill="#E8E8E8" d="M6.955,64.043h17.098v1.884H95.05v-1.884h17.242v13.909H95.05v-1.883H24.053v1.883H6.955V64.043z"/>
<path fill="#FFFFFF" d="M6.811,68.099h17.242v0.869H95.05v-0.869h17.098v5.796H95.05v-0.725H24.053v0.725H6.811V68.099z"/>
<path fill="none" stroke="#000000" stroke-width="2" d="M6.811,39.845h17.242v8.403H95.05v-8.403h17.098v62.448H95.05v-8.548H24.053
	v8.548H6.811V39.845"/>
<path fill="#666666" d="M81.865,49.119l-1.014,4.057l-2.898,3.333l-4.347,2.897l-3.478,1.449l-4.057,1.014l-4.347,0.58h-2.174
	l-4.491-0.29l-4.057-0.725l-3.768-1.304l-4.637-2.463l-3.332-3.333l-1.594-3.768l-0.146-1.448V31.152h-8.114V21.3h8.114v-6.955
	h44.337V21.3h7.824v9.853h-7.824V49.119z"/>
<path fill="#7F7F7F" d="M78.388,56.073l-3.188,2.174l-3.767,1.738l-4.637,1.594l-5.361,0.87h-1.884l-5.65-0.435l-4.927-1.305
	l-4.057-1.738l-3.478-2.028l-0.725-0.725l-0.145-0.146V31.152h-6.955V21.3h6.955v-6.955h37.817V21.3h6.954v9.853h-6.954V56.073z"/>
<path fill="#999999" d="M75.49,58.102l-3.768,2.028l-4.636,1.448l-4.492,0.725l-3.043,0.146l-4.636-0.29l-4.058-0.869l-4.202-1.594
	l-2.607-1.594v-26.95h-5.651V21.3h5.651v-6.955H75.49V21.3h5.506v9.853H75.49V58.102z"/>
<path fill="#B2B2B2" d="M72.012,59.841l-0.145,0.145l-3.478,1.159l-4.057,0.87l-4.782,0.435l-4.926-0.29l-3.912-0.869l-3.622-1.305
	v-0.145V31.152h-4.348V21.3h4.348v-6.955h24.921V21.3h4.347v9.853h-4.347V59.841z"/>
<path fill="#CCCCCC" d="M68.534,61.144l-3.912,0.87l-4.201,0.435l-4.347-0.146l-3.912-0.725l-1.739-0.435V31.152h-2.897V21.3h2.897
	v-6.955h18.111V21.3h3.478v9.853h-3.478V61.144z"/>
<path fill="#E5E5E5" d="M65.492,62.014h-0.146l-0.29,0.145h-0.579l-0.58,0.145h-1.014l-1.015,0.146H60.71h-1.159l-5.65-0.435V31.152
	h-2.174V21.3h2.174v-6.955h11.592V21.3h1.738v9.853h-1.738V62.014z"/>
<path fill="#FFFFFF" d="M62.159,62.014l-0.145,0.145l-0.146,0.145l-0.289,0.146h-0.29h-0.435h-0.435h-0.435h-0.436l-2.607-0.435
	V31.152h-0.869V21.3h0.869v-6.955h5.216V21.3h0.869v9.853h-0.869V62.014z"/>
<path fill="none" stroke="#000000" stroke-width="2" d="M81.865,49.119l-1.014,4.057l-2.898,3.333l-4.347,2.897l-3.478,1.449
	l-4.057,1.014l-4.347,0.58h-2.174l-4.491-0.29l-4.057-0.725l-3.768-1.304l-4.637-2.463l-3.332-3.333l-1.594-3.768l-0.146-1.448
	V31.152h-8.114V21.3h8.114v-6.955h44.337V21.3h7.824v9.853h-7.824V49.119"/>
<path fill="#CCCCCC" d="M48.829,14.054l0.869-3.478h17.677l2.753-4.926h4.927v2.753h-3.478l-2.753,5.216H51.582v0.435H48.829z"/>
<path fill="#666666" d="M50.279,14.054l0.725-2.173h16.952l3.043-4.927h4.057v1.449h-3.478l-2.753,5.216H51.582v0.435H50.279z"/>
<path fill="none" stroke="#000000" stroke-width="2" d="M48.829,14.054l0.869-3.478h17.677l2.753-4.926h4.927v2.753h-3.478
	l-2.753,5.216H51.582v0.435H48.829"/>
<path fill="#7F7F7F" d="M75.345,4.057h65.201v4.347H75.345V4.057z"/>
<path fill="#333333" d="M75.345,8.404h65.201v1.304H75.345V8.404z"/>
<path fill="#FFFFFF" d="M75.345,5.651h65.201v1.304H75.345V5.651z"/>
<path fill="none" stroke="#000000" stroke-width="2" d="M75.345,4.057h65.201v5.65H75.345V4.057"/>
<path fill="#666666" d="M24.053,99.252l2.753-0.58v-1.304l-2.753,0.579V99.252z"/>
<path fill="#666666" d="M6.811,99.252l-2.753-0.58v-1.304l2.753,0.579V99.252z"/>
<path fill="#666666" d="M6.811,75.199l-2.753-0.725v-1.448l2.753,0.869V75.199z"/>
<path fill="#666666" d="M24.053,75.199l2.753-0.725v-1.448l-2.753,0.869V75.199z"/>
<path fill="#666666" d="M24.053,51.002l2.753-0.579v-1.594l-2.753,0.725V51.002z"/>
<path fill="#666666" d="M6.811,51.002l-2.753-0.579v-1.594l2.753,0.725V51.002z"/>
<path fill="#666666" d="M112.148,99.252l2.753-0.58v-1.304l-2.753,0.579V99.252z"/>
<path fill="#666666" d="M95.05,99.252l-2.753-0.58v-1.304l2.753,0.579V99.252z"/>
<path fill="#666666" d="M95.05,75.199l-2.753-0.725v-1.448l2.753,0.869V75.199z"/>
<path fill="#666666" d="M112.148,75.199l2.753-0.725v-1.448l-2.753,0.869V75.199z"/>
<path fill="#666666" d="M112.148,51.002l2.753-0.579v-1.594l-2.753,0.725V51.002z"/>
<path fill="#666666" d="M95.05,51.002l-2.753-0.579v-1.594l2.753,0.725V51.002z"/>
<path fill="#E5E5E5" d="M92.297,44.627l2.753-0.725v-1.448l-2.753,0.869V44.627z"/>
<path fill="#E5E5E5" d="M114.901,44.627l-2.753-0.725v-1.448l2.753,0.869V44.627z"/>
<path fill="#E5E5E5" d="M92.297,68.969l2.753-0.869v-1.304l-2.753,0.579V68.969z"/>
<path fill="#E5E5E5" d="M114.901,68.969l-2.753-0.869v-1.304l2.753,0.579V68.969z"/>
<path fill="#E5E5E5" d="M92.297,93.021l2.753-0.869v-1.305l-2.753,0.725V93.021z"/>
<path fill="#E5E5E5" d="M114.901,93.021l-2.753-0.869v-1.305l2.753,0.725V93.021z"/>
<path fill="#E5E5E5" d="M4.058,44.627l2.753-0.725v-1.448l-2.753,0.869V44.627z"/>
<path fill="#E5E5E5" d="M26.806,44.627l-2.753-0.725v-1.448l2.753,0.869V44.627z"/>
<path fill="#E5E5E5" d="M4.058,68.969l2.753-0.869v-1.304l-2.753,0.579V68.969z"/>
<path fill="#E5E5E5" d="M26.806,68.969l-2.753-0.869v-1.304l2.753,0.579V68.969z"/>
<path fill="#E5E5E5" d="M4.058,93.021l2.753-0.869v-1.305l-2.753,0.725V93.021z"/>
<path fill="#E5E5E5" d="M26.806,93.021l-2.753-0.869v-1.305l2.753,0.725V93.021z"/>
<path fill="#B2B2B2" d="M95.05,97.947v-5.795l-2.753,0.869v4.347L95.05,97.947z"/>
<path fill="#B2B2B2" d="M112.148,97.947v-5.795l2.753,0.869v4.347L112.148,97.947z"/>
<path fill="#B2B2B2" d="M112.148,73.895v-5.796l2.753,0.869v4.058L112.148,73.895z"/>
<path fill="#B2B2B2" d="M112.148,49.553v-5.651l2.753,0.725v4.202L112.148,49.553z"/>
<path fill="#B2B2B2" d="M95.05,49.553v-5.651l-2.753,0.725v4.202L95.05,49.553z"/>
<path fill="#B2B2B2" d="M95.05,73.895v-5.796l-2.753,0.869v4.058L95.05,73.895z"/>
<path fill="#B2B2B2" d="M6.811,97.947v-5.795l-2.753,0.869v4.347L6.811,97.947z"/>
<path fill="#B2B2B2" d="M24.053,97.947v-5.795l2.753,0.869v4.347L24.053,97.947z"/>
<path fill="#B2B2B2" d="M24.053,73.895v-5.796l2.753,0.869v4.058L24.053,73.895z"/>
<path fill="#B2B2B2" d="M24.053,49.553v-5.651l2.753,0.725v4.202L24.053,49.553z"/>
<path fill="#B2B2B2" d="M6.811,49.553v-5.651l-2.753,0.725v4.202L6.811,49.553z"/>
<path fill="#B2B2B2" d="M6.811,73.895v-5.796l-2.753,0.869v4.058L6.811,73.895z"/>
<path fill="none" stroke="#000000" stroke-width="2" d="M6.955,75.199L4.058,74.62v-7.245l2.897-0.579V75.199"/>
<path fill="none" stroke="#000000" stroke-width="2" d="M6.955,99.396l-2.897-0.725v-7.1l2.897-0.725V99.396"/>
<path fill="none" stroke="#000000" stroke-width="2" d="M6.955,51.002l-2.897-0.579v-7.244l2.897-0.58V51.002"/>
<path fill="none" stroke="#000000" stroke-width="2" d="M24.053,75.199l2.753-0.579v-7.245l-2.753-0.579V75.199"/>
<path fill="none" stroke="#000000" stroke-width="2" d="M24.053,99.396l2.897-0.725v-7.1l-2.897-0.725V99.396"/>
<path fill="none" stroke="#000000" stroke-width="2" d="M24.053,51.002l2.897-0.579v-7.244l-2.897-0.58V51.002"/>
<path fill="none" stroke="#000000" stroke-width="2" d="M95.05,75.199l-2.897-0.579v-7.245l2.897-0.579V75.199"/>
<path fill="none" stroke="#000000" stroke-width="2" d="M95.05,99.396l-2.753-0.725v-7.1l2.753-0.725V99.396"/>
<path fill="none" stroke="#000000" stroke-width="2" d="M95.05,51.002l-2.753-0.579v-7.244l2.753-0.58V51.002"/>
<path fill="none" stroke="#000000" stroke-width="2" d="M112.148,75.199l2.753-0.579v-7.245l-2.753-0.579V75.199"/>
<path fill="none" stroke="#000000" stroke-width="2" d="M112.148,99.396l2.897-0.725v-7.1l-2.897-0.725V99.396"/>
<path fill="none" stroke="#000000" stroke-width="2" d="M112.148,51.002l2.897-0.579v-7.244l-2.897-0.58V51.002"/>
<path fill="none" stroke="#000000" stroke-width="2" d="M95.05,90.847V48.249"/>
<path fill="none" stroke="#000000" stroke-width="2" d="M103.743,39.701v62.593"/>
<path fill="none" stroke="#000000" stroke-width="2" d="M15.504,39.701v62.593"/>
<path fill="none" stroke="#000000" stroke-width="2" d="M24.053,93.746V48.249"/>
<path fill="none" stroke="#000000" stroke-width="2" d="M37.093,31.152H82.01"/>
<path fill="none" stroke="#000000" stroke-width="2" d="M37.093,21.01H82.01"/>
</svg>
