<?xml version="1.0" encoding="utf-8"?>
<!-- Generator: Adobe Illustrator 14.0.0, SVG Export Plug-In . SVG Version: 6.00 Build 43363)  -->
<!DOCTYPE svg PUBLIC "-//W3C//DTD SVG 1.1//EN" "http://www.w3.org/Graphics/SVG/1.1/DTD/svg11.dtd">
<svg version="1.1" id="图层_1" xmlns="http://www.w3.org/2000/svg" xmlns:xlink="http://www.w3.org/1999/xlink" x="0px" y="0px"
	 width="106.711px" height="106.502px" viewBox="0 0 106.711 106.502" enable-background="new 0 0 106.711 106.502"
	 xml:space="preserve">
<path fill="#7F7F7F" d="M49.029,11.325h8.545v28.841h-8.545V11.325z"/>
<path fill="#B2B2B2" d="M50.632,11.325h5.341v28.841h-5.341V11.325z"/>
<path fill="#E5E5E5" d="M52.661,11.325h1.282v28.841h-1.282V11.325z"/>
<path fill="none" stroke="#000000" stroke-width="2" d="M49.029,11.325h8.545v28.841h-8.545V11.325"/>
<path fill="#000099" d="M21.043,58.966h64.305v33.541H21.043V58.966z"/>
<path fill="#0000BA" d="M21.15,63.773h64.305v23.714H21.15V63.773z"/>
<path fill="#0000DE" d="M21.15,68.687h64.305v13.886H21.15V68.687z"/>
<path fill="#0000FF" d="M21.043,73.6h64.305v4.06H21.043V73.6z"/>
<path fill="none" stroke="#000000" stroke-width="2" d="M21.043,92.507h64.305"/>
<path fill="none" stroke="#000000" stroke-width="2" d="M85.348,58.966H21.043"/>
<path fill="#000099" d="M100.943,47.43h-15.81v55.973h15.81V47.43z"/>
<path fill="none" stroke="#000000" stroke-width="2" d="M100.943,47.43h-7.904v55.973h7.904V47.43"/>
<path fill="#000066" d="M37.066,55.975v3.418l0.748,2.777l2.35,2.243l3.312,1.603l2.563,0.854l2.991,0.428l2.991,0.32h3.098
	l3.098-0.32L61.1,66.87l2.671-0.854l3.312-1.603l2.242-2.243l0.855-2.777v-3.418H37.066z"/>
<path fill="#000078" d="M41.338,55.975v3.418l0.107,0.962l0.214,0.854l0.32,0.961l0.427,0.748l0.641,0.748l0.641,0.641l0.748,0.641
	l0.854,0.534l0.854,0.428l0.961,0.427l0.961,0.428l1.068,0.214l1.175,0.213l1.068,0.214l1.175,0.106h1.175h1.068l1.175-0.106
	l1.068-0.214l1.175-0.213l1.068-0.214l0.961-0.428l0.962-0.427l0.961-0.428l0.748-0.534l0.748-0.641l0.747-0.641l0.534-0.748
	l0.428-0.748l0.32-0.961l0.213-0.854l0.107-0.962v-3.418H41.338z"/>
<path fill="#000087" d="M45.718,55.975v3.418l0.106,1.816l0.534,1.709l0.854,1.389l0.961,1.175l1.282,0.854l1.282,0.642l1.495,0.427
	l1.496,0.106l1.495-0.106l1.389-0.427l1.389-0.642l1.176-0.854l1.067-1.175l0.748-1.389l0.534-1.709l0.213-1.816v-3.418H45.718z"/>
<path fill="#000099" d="M49.884,55.975v3.418l0.107,1.923l0.214,1.709l0.32,1.389l0.534,1.176l0.534,0.854l0.641,0.641l0.641,0.427
	l0.748,0.107l0.641-0.107l0.748-0.427l0.641-0.641l0.533-0.854l0.428-1.176l0.428-1.389l0.213-1.709l0.107-1.923v-3.418H49.884z"/>
<path fill="none" stroke="#000000" stroke-width="2" d="M37.066,55.975v3.418l0.748,2.777l2.35,2.243l3.312,1.603l2.563,0.854
	l2.991,0.428l2.991,0.32h3.098l3.098-0.32L61.1,66.87l2.671-0.854l3.312-1.603l2.242-2.243l0.855-2.777v-3.418H37.066"/>
<path fill="#000099" d="M25.529,40.166v15.809h55.973V40.166H25.529z"/>
<path fill="#0000BA" d="M33.754,40.166v15.702h39.523V40.166H33.754z"/>
<path fill="#0000DE" d="M41.979,40.166v15.702h23.073V40.166H41.979z"/>
<path fill="#0000FF" d="M50.098,40.166v15.809h6.836V40.166H50.098z"/>
<path fill="none" stroke="#000000" stroke-width="2" d="M25.529,40.166v7.904h55.973v-7.904H25.529"/>
<path fill="none" stroke="#000000" stroke-width="2" d="M25.529,48.071v7.904h55.973v-7.904H25.529"/>
<path d="M12.925,2.993H93.68v8.332H12.925V2.993z"/>
<path fill="#7F7F7F" d="M12.925,4.596H93.68v5.233H12.925V4.596z"/>
<path fill="#CCCCCC" d="M12.925,6.411H93.68v1.603H12.925V6.411z"/>
<path fill="#595959" d="M24.461,2.993h57.681v8.332H24.461V2.993z"/>
<path fill="#A6A6A6" d="M24.461,4.596h57.681v5.233H24.461V4.596z"/>
<path fill="#E5E5E5" d="M24.461,6.411h57.681v1.603H24.461V6.411z"/>
<path fill="#8C8C8C" d="M39.736,2.993h27.132v8.332H39.736V2.993z"/>
<path fill="#CCCCCC" d="M39.736,4.596h27.132v5.233H39.736V4.596z"/>
<path fill="#FFFFFF" d="M39.736,6.411h27.132v1.603H39.736V6.411z"/>
<path fill="none" stroke="#000000" stroke-width="2" d="M12.925,2.993H93.68v8.332H12.925V2.993"/>
<path fill="#000099" stroke="#000000" stroke-width="2" d="M40.698,40.166V15.598h25.208v24.568h-3.631V19.23H44.33v20.937H40.698z"
	/>
<path fill="#000099" d="M21.257,47.43H5.661v55.973h15.596V47.43z"/>
<path fill="#000099" d="M100.943,92.079l2.67,1.068v6.837l-2.67,0.961V92.079z"/>
<path fill="#000099" d="M85.134,92.079l-2.35,1.068v6.837l2.35,0.961V92.079z"/>
<path fill="#000099" stroke="#000000" stroke-width="2" d="M85.134,71.143l-2.35,1.068v6.837l2.35,1.068V71.143z"/>
<path fill="#000099" d="M100.943,71.143l2.67,1.068v6.837l-2.67,1.068V71.143z"/>
<path fill="#000099" d="M100.943,50.1l2.67,1.175v6.73l-2.67,0.961V50.1z"/>
<path fill="#000099" stroke="#000000" stroke-width="2" d="M85.134,50.1l-2.35,1.175v6.73l2.35,0.961V50.1z"/>
<path fill="#0000CC" d="M101.05,93.362l2.563,0.748v4.807l-2.563,0.747V93.362z"/>
<path fill="#0000CC" d="M85.24,93.362l-2.67,0.748v4.807l2.67,0.747V93.362z"/>
<path fill="#0000CC" d="M85.24,72.319l-2.67,0.747v4.914l2.67,0.641V72.319z"/>
<path fill="#0000CC" d="M101.05,72.319l2.563,0.747v4.914l-2.563,0.641V72.319z"/>
<path fill="#0000CC" d="M101.05,51.382l2.563,0.748v4.807l-2.563,0.747V51.382z"/>
<path fill="#0000CC" d="M85.24,51.382l-2.67,0.748v4.807l2.67,0.747V51.382z"/>
<path fill="#0000FF" d="M100.943,52.663l2.67,0.428v2.884l-2.67,0.428V52.663z"/>
<path fill="#0000FF" d="M85.134,52.663l-2.35,0.428v2.884l2.35,0.428V52.663z"/>
<path fill="#0000FF" d="M85.134,73.814l-2.35,0.428v2.776l2.35,0.428V73.814z"/>
<path fill="#0000FF" d="M100.943,73.814l2.67,0.428v2.776l-2.67,0.428V73.814z"/>
<path fill="#0000FF" d="M100.943,94.75l2.67,0.32v2.884l-2.67,0.428V94.75z"/>
<path fill="#0000FF" d="M85.134,94.75l-2.35,0.32v2.884l2.35,0.428V94.75z"/>
<path fill="#0000BA" d="M101.05,55.762H85.24v39.522h15.81V55.762z"/>
<path fill="#0000DE" d="M101.05,63.987H85.24v23.18h15.81V63.987z"/>
<path fill="#0000FF" d="M100.943,72.211h-15.81v6.837h15.81V72.211z"/>
<path fill="none" stroke="#000000" stroke-width="2" d="M85.134,92.079l-2.35,1.068v6.837l2.35,0.961V92.079"/>
<path fill="none" stroke="#000000" stroke-width="2" d="M100.943,71.143l2.67,1.068v6.837l-2.67,1.068V71.143"/>
<path fill="none" stroke="#000000" stroke-width="2" d="M100.943,50.1l2.67,1.175v6.73l-2.67,0.961V50.1"/>
<path fill="none" stroke="#000000" stroke-width="2" d="M100.943,92.079l2.67,1.068v6.837l-2.67,0.961V92.079"/>
<path fill="none" stroke="#000000" stroke-width="2" d="M93.039,47.43h-7.905v55.973h7.905V47.43"/>
<path fill="#000099" d="M21.47,92.079l2.564,1.068v6.837l-2.564,0.961V92.079z"/>
<path fill="#000099" stroke="#000000" stroke-width="2" d="M5.661,92.079l-2.67,1.068v6.837l2.67,0.961V92.079z"/>
<path fill="#000099" d="M5.661,71.143l-2.67,1.068v6.837l2.67,1.068V71.143z"/>
<path fill="#000099" stroke="#000000" stroke-width="2" d="M21.47,71.143l2.564,1.068v6.837l-2.564,1.068V71.143z"/>
<path fill="#000099" d="M21.47,50.1l2.564,1.175v6.73l-2.564,0.961V50.1z"/>
<path fill="#000099" d="M5.661,50.1l-2.67,1.175v6.73l2.67,0.961V50.1z"/>
<path fill="#0000CC" d="M21.47,93.362l2.564,0.748v4.807l-2.564,0.747V93.362z"/>
<path fill="#0000CC" d="M5.661,93.362l-2.67,0.748v4.807l2.67,0.747V93.362z"/>
<path fill="#0000CC" d="M5.661,72.425l-1.068,0.214l-0.961,0.32l-0.641,0.214v4.7l0.961,0.32l0.961,0.32l0.748,0.106V72.425z"/>
<path fill="#0000CC" d="M21.47,72.319l2.564,0.747v4.914L21.47,78.62V72.319z"/>
<path fill="#0000CC" d="M21.47,51.382l2.564,0.748v4.807l-2.564,0.747V51.382z"/>
<path fill="#0000CC" d="M5.661,51.489l-1.068,0.214l-0.961,0.214L2.991,52.13v4.807l0.961,0.213l0.961,0.321l0.748,0.32V51.489z"/>
<path fill="#0000FF" d="M21.47,94.75l2.564,0.32v2.884l-2.564,0.428V94.75z"/>
<path fill="#0000FF" d="M5.661,94.75l-2.67,0.32v2.884l2.67,0.428V94.75z"/>
<path fill="#0000FF" d="M5.661,73.814l-2.67,0.428v2.776l2.67,0.428V73.814z"/>
<path fill="#0000FF" d="M21.47,73.814l2.564,0.428v2.776l-2.564,0.428V73.814z"/>
<path fill="#0000FF" d="M21.47,52.663l2.564,0.428v2.884l-2.564,0.428V52.663z"/>
<path fill="#0000FF" d="M5.661,52.663l-2.67,0.428v2.884l2.67,0.428V52.663z"/>
<path fill="#0000BA" d="M21.364,55.762H5.661v39.522h15.703V55.762z"/>
<path fill="#0000DE" d="M21.364,63.987H5.661v23.18h15.703V63.987z"/>
<path fill="#0000FF" d="M21.47,72.211H5.661v6.837H21.47V72.211z"/>
<path fill="none" stroke="#000000" stroke-width="2" d="M21.47,92.079l2.564,1.068v6.837l-2.564,0.961V92.079"/>
<path fill="none" stroke="#000000" stroke-width="2" d="M5.661,71.143l-2.67,1.068v6.837l2.67,1.068V71.143"/>
<path fill="none" stroke="#000000" stroke-width="2" d="M21.47,50.1l2.564,1.175v6.73l-2.564,0.961V50.1"/>
<path fill="none" stroke="#000000" stroke-width="2" d="M5.661,50.1l-2.67,1.175v6.73l2.67,0.961V50.1"/>
<path fill="none" stroke="#000000" stroke-width="2" d="M21.257,47.43h-7.691v55.973h7.691V47.43"/>
<path fill="none" stroke="#000000" stroke-width="2" d="M13.566,47.43H5.661v55.973h7.905V47.43"/>
</svg>
