<?xml version="1.0" encoding="utf-8"?>
<!-- Generator: Adobe Illustrator 14.0.0, SVG Export Plug-In . SVG Version: 6.00 Build 43363)  -->
<!DOCTYPE svg PUBLIC "-//W3C//DTD SVG 1.1//EN" "http://www.w3.org/Graphics/SVG/1.1/DTD/svg11.dtd">
<svg version="1.1" id="图层_1" xmlns="http://www.w3.org/2000/svg" xmlns:xlink="http://www.w3.org/1999/xlink" x="0px" y="0px"
	 width="70.042px" height="106.502px" viewBox="0 0 70.042 106.502" enable-background="new 0 0 70.042 106.502"
	 xml:space="preserve">
<path fill="#B2B2B2" stroke="#000000" stroke-width="2" d="M59.381,60.873h4.584v42.537h-4.584V60.873z"/>
<path fill="#B2B2B2" stroke="#000000" stroke-width="2" d="M59.381,69.828v24.521H43.39l-1.6,1.705l-1.918,1.387L37.526,98.4
	l-2.452,0.32l-2.346-0.32l-2.132-0.959l-1.706-1.173l-1.599-1.919H11.727V69.828h11.194l-2.559-10.874h29.211l-2.559,10.874H59.381z
	"/>
<path fill="#B2B2B2" stroke="#000000" stroke-width="2" d="M7.036,60.873h4.691v42.537H7.036V60.873z"/>
<path fill="#B2B2B2" stroke="#000000" stroke-width="2" d="M13.859,58.635V55.33h42.43v3.305H13.859z"/>
<path fill="#B2B2B2" stroke="#000000" stroke-width="2" d="M13.859,51.279v3.625h42.43v-3.625H13.859z"/>
<path fill="#7F7F7F" stroke="#000000" stroke-width="2" d="M15.565,54.904H54.69v0.427H15.565V54.904z"/>
<path fill="#E5E5E5" stroke="#000000" stroke-width="2" d="M37.206,13.22h-4.264V2.986h4.264V13.22z"/>
<path fill="#E5E5E5" stroke="#000000" stroke-width="2" d="M39.658,36.781v-2.665h4.798v2.451L39.658,36.781z"/>
<path fill="#E5E5E5" stroke="#000000" stroke-width="2" d="M30.81,34.115v2.665l-4.797-0.214v-2.451H30.81z"/>
<path fill="#E5E5E5" stroke="#000000" stroke-width="2" d="M28.678,32.729v1.387h0.959v-1.387H28.678z"/>
<path fill="#E5E5E5" stroke="#000000" stroke-width="2" d="M42.963,32.729v1.387h0.96v-1.387H42.963z"/>
<path fill="none" stroke="#000000" stroke-width="2" d="M33.475,3.411l3.518,0.96"/>
<path fill="none" stroke="#000000" stroke-width="2" d="M33.475,4.371l3.518,0.959"/>
<path fill="none" stroke="#000000" stroke-width="2" d="M33.475,5.544l3.518,0.746"/>
<path fill="none" stroke="#000000" stroke-width="2" d="M33.475,6.503l3.518,0.747"/>
<path fill="none" stroke="#000000" stroke-width="2" d="M33.475,7.463l3.518,0.746"/>
<path fill="none" stroke="#000000" stroke-width="2" d="M33.475,8.422l3.518,0.747"/>
<path fill="none" stroke="#000000" stroke-width="2" d="M33.475,9.382l3.518,0.746"/>
<path fill="none" stroke="#000000" stroke-width="2" d="M33.475,10.341l3.518,0.747"/>
<path fill="none" stroke="#000000" stroke-width="2" d="M33.475,11.301l3.518,0.959"/>
<path fill="none" stroke="#000000" stroke-width="2" d="M33.475,12.26l3.518,0.96"/>
<path fill="#CCCCCC" stroke="#000000" stroke-width="2" d="M31.556,20.043h7.356v33.688h-7.356V20.043z"/>
<path fill="#CCCCCC" stroke="#000000" stroke-width="2" d="M38.698,13.22h-6.929V12.9h6.929V13.22z"/>
<path fill="#CCCCCC" stroke="#000000" stroke-width="2" d="M31.769,15.991h6.929v0.746h-6.929V15.991z"/>
<path fill="#F0F0F0" d="M31.982,20.043h1.173v-3.092h-1.173V20.043z"/>
<path fill="#CCCCCC" stroke="#000000" stroke-width="2" d="M31.769,20.363h6.929v-3.625h-6.929V20.363z"/>
<path fill="#CCCCCC" stroke="#000000" stroke-width="2" d="M30.81,20.043h8.849v23.134H30.81V20.043z"/>
<path fill="#CCCCCC" stroke="#000000" stroke-width="2" d="M4.904,13.22h60.447l0.427,0.213l0.746,0.214l0.533,0.532v0.427v0.746
	l-0.533,0.214l-0.746,0.426h-0.427H4.904H4.371l-0.747-0.213l-0.426-0.427l-0.213-0.746l0.213-0.427l0.426-0.532l0.533-0.214
	L4.904,13.22z"/>
<path fill="#FFFFFF" stroke="#000000" stroke-width="2" d="M40.831,32.729v1.387h0.746v-1.387H40.831z"/>
<path fill="#FFFFFF" stroke="#000000" stroke-width="2" d="M36.034,41.258h-1.173V18.231h1.173V41.258z"/>
<path fill="#FFFFFF" stroke="#000000" stroke-width="2" d="M34.861,45.842h1.173v3.092h-1.173V45.842z"/>
<path fill="#FFFFFF" stroke="#000000" stroke-width="2" d="M26.545,32.729v1.387h0.746v-1.387H26.545z"/>
<path fill="#CCCCCC" d="M14.818,51.279v3.625h35.82v-3.625H14.818z"/>
<path fill="#CCCCCC" d="M14.818,58.635V55.33h35.82v3.305H14.818z"/>
<path fill="#E0E0E0" stroke="#000000" stroke-width="2" d="M48.72,51.066H21.322l2.771-0.959l3.198-0.747l3.731-0.426h4.051h4.051
	l3.625,0.426l3.305,0.747L48.72,51.066z"/>
<path fill="none" stroke="#000000" stroke-width="2" d="M13.859,51.279v3.625h42.43v-3.625H13.859"/>
<path fill="none" stroke="#000000" stroke-width="2" d="M13.859,58.954V55.33h42.43v3.624H13.859"/>
<path fill="#CCCCCC" d="M7.462,62.046h4.051v35.395H7.462V62.046z"/>
<path fill="#CCCCCC" d="M59.595,62.046h4.051v35.395h-4.051V62.046z"/>
<path fill="#CCCCCC" d="M59.381,72.281v20.469H39.872l-3.625,2.559l-3.305,0.32l-2.345-1.279l-1.173-1.6H12.047V72.281h13.965
	l-1.386-7.143l-2.132-6.184h22.601l-1.172,13.326H59.381z"/>
<path fill="#F0F0F0" d="M59.595,63.006h4.051v2.771h-4.051V63.006z"/>
<path fill="#F0F0F0" d="M59.381,73.453v3.092h-11.62l-1.279-1.706l-1.173-1.386H59.381z"/>
<path fill="#F0F0F0" d="M11.727,76.545v-3.092h16.204l-2.559-14.499h2.559l0.959,5.65l1.706,8.849l0.746,11.62l1.173,4.798
	l3.091,3.624l-0.959,0.64l-0.959,0.214l-2.132-1.386l-2.878-7.89l-0.427-4.264v-4.265H11.727z"/>
<path fill="#F0F0F0" d="M7.462,63.006h4.051v2.771H7.462V63.006z"/>
<path fill="#F0F0F0" d="M14.818,51.279v3.625h2.878v-3.625H14.818z"/>
<path fill="#F0F0F0" d="M14.818,58.954V55.33h2.878v3.624H14.818z"/>
<path fill="#FFFFFF" stroke="#000000" stroke-width="2" d="M14.818,49.147v2.132h0.959v-2.132H14.818z"/>
<path fill="#FFFFFF" stroke="#000000" stroke-width="2" d="M14.818,61.087v-2.452h0.959v2.452H14.818z"/>
<path fill="#FFFFFF" stroke="#000000" stroke-width="2" d="M25.799,49.147v2.132h0.959v-2.132H25.799z"/>
<path fill="#FFFFFF" stroke="#000000" stroke-width="2" d="M25.799,61.087v-2.452h0.959v2.452H25.799z"/>
<path fill="#FFFFFF" stroke="#000000" stroke-width="2" d="M40.298,49.147v2.132h0.959v-2.132H40.298z"/>
<path fill="#FFFFFF" stroke="#000000" stroke-width="2" d="M40.298,61.087v-2.452h0.959v2.452H40.298z"/>
<path fill="#FFFFFF" stroke="#000000" stroke-width="2" d="M51.065,49.147v2.132h0.959v-2.132H51.065z"/>
<path fill="#FFFFFF" stroke="#000000" stroke-width="2" d="M51.065,61.087v-2.452h0.959v2.452H51.065z"/>
<path fill="#B2B2B2" stroke="#000000" stroke-width="2" d="M27.931,41.258h14.605h0.641l0.959,0.533l0.533,0.64v0.532l0.213,0.427
	l-0.213,0.533v0.427l-0.213,0.532l-1.066,0.64l-0.427,0.32H27.931l-0.959-0.32l-0.64-0.426l-0.533-0.746l-0.213-0.96l0.746-1.386
	l0.64-0.427L27.931,41.258z"/>
<path fill="#B2B2B2" stroke="#000000" stroke-width="2" d="M42.963,32.729h-1.386v-0.746h1.386V32.729z"/>
<path fill="#B2B2B2" stroke="#000000" stroke-width="2" d="M41.577,36.781l1.386-0.214v4.691h-1.386V36.781z"/>
<path fill="#B2B2B2" stroke="#000000" stroke-width="2" d="M27.292,36.567l1.386,0.214v4.478h-0.747h-0.64V36.567z"/>
<path fill="#B2B2B2" stroke="#000000" stroke-width="2" d="M28.678,32.729h-1.386v-0.746h1.386V32.729z"/>
<path fill="#B2B2B2" stroke="#000000" stroke-width="2" d="M28.891,49.36h-2.132v-0.959h2.345v0.746h0.959v2.132h-1.173V49.36z"/>
<path fill="#B2B2B2" stroke="#000000" stroke-width="2" d="M43.39,49.36h-2.133v-0.959h2.453v0.746h0.959v2.132H43.39V49.36z"/>
<path fill="#B2B2B2" stroke="#000000" stroke-width="2" d="M54.157,49.36h-2.346v-0.959h2.559v0.746h0.959v2.132h-1.172V49.36z"/>
<path fill="#B2B2B2" stroke="#000000" stroke-width="2" d="M28.891,60.554h-2.132v1.173h2.345v-0.64h0.959v-2.452h-1.173V60.554z"/>
<path fill="#B2B2B2" stroke="#000000" stroke-width="2" d="M43.39,60.554h-2.133v1.173h2.453v-0.64h0.959v-2.452H43.39V60.554z"/>
<path fill="#B2B2B2" stroke="#000000" stroke-width="2" d="M54.157,60.554h-2.346v1.173h2.559v-0.64h0.959v-2.452h-1.172V60.554z"/>
<path fill="#B2B2B2" stroke="#000000" stroke-width="2" d="M17.91,49.36v1.919h1.279v-2.132H17.91v-0.746h-2.345v0.959H17.91z"/>
<path fill="#B2B2B2" stroke="#000000" stroke-width="2" d="M17.91,60.554h-2.345v1.173h2.345v-0.64h1.279v-2.452H17.91V60.554z"/>
<path fill="#F0F0F0" stroke="#000000" stroke-width="2" d="M54.157,49.147v2.132h-2.133v-2.132H54.157z"/>
<path fill="#F0F0F0" stroke="#000000" stroke-width="2" d="M54.157,61.087v-2.452h-2.133v2.452H54.157z"/>
<path fill="#F0F0F0" stroke="#000000" stroke-width="2" d="M43.39,61.087v-2.452h-2.133v2.452H43.39z"/>
<path fill="#F0F0F0" stroke="#000000" stroke-width="2" d="M43.39,49.147v2.132h-2.133v-2.132H43.39z"/>
<path fill="#F0F0F0" stroke="#000000" stroke-width="2" d="M28.891,49.147v2.132h-2.132v-2.132H28.891z"/>
<path fill="#F0F0F0" stroke="#000000" stroke-width="2" d="M28.891,61.087v-2.452h-2.132v2.452H28.891z"/>
<path fill="#F0F0F0" stroke="#000000" stroke-width="2" d="M17.91,61.087v-2.452h-2.132v2.452H17.91z"/>
<path fill="#F0F0F0" stroke="#000000" stroke-width="2" d="M17.91,49.147v2.132h-2.132v-2.132H17.91z"/>
<path fill="none" stroke="#000000" stroke-width="2" d="M28.251,42.004l0.853,0.427l0.533,0.959l-0.533,1.279l-0.853,0.213
	l-1.279-0.213l-0.426-1.279l0.426-0.959L28.251,42.004"/>
<path fill="none" stroke="#000000" stroke-width="2" d="M42.536,42.004l0.854,0.427l0.533,0.959l-0.533,1.279l-0.854,0.213
	l-1.279-0.213l-0.426-1.279l0.426-0.959L42.536,42.004"/>
<path fill="#E5E5E5" d="M34.435,41.258h-1.279V20.363h1.279V41.258z"/>
<path fill="#E5E5E5" d="M33.155,45.842h1.279v3.092h-1.279V45.842z"/>
</svg>
