<?xml version="1.0" encoding="utf-8"?>
<!-- Generator: Adobe Illustrator 14.0.0, SVG Export Plug-In . SVG Version: 6.00 Build 43363)  -->
<!DOCTYPE svg PUBLIC "-//W3C//DTD SVG 1.1//EN" "http://www.w3.org/Graphics/SVG/1.1/DTD/svg11.dtd">
<svg version="1.1" id="图层_1" xmlns="http://www.w3.org/2000/svg" xmlns:xlink="http://www.w3.org/1999/xlink" x="0px" y="0px"
	 width="63.857px" height="106.502px" viewBox="0 0 63.857 106.502" enable-background="new 0 0 63.857 106.502"
	 xml:space="preserve">
<path fill="#4C4C4C" stroke="#000000" stroke-width="2" d="M19.083,74.839h22.494v2.452H19.083V74.839z"/>
<path fill="#999999" stroke="#000000" stroke-width="2" d="M60.872,79.317h-4.69v24.093h4.69V79.317z"/>
<path fill="#999999" stroke="#000000" stroke-width="2" d="M38.377,86.566l17.804-2.452v14.605l-17.804-2.452V86.566z"/>
<path fill="#999999" stroke="#000000" stroke-width="2" d="M20.682,84.114h16.097l1.599,2.452v9.701l-1.599,2.452H20.682V84.114z"/>
<path fill="#999999" stroke="#000000" stroke-width="2" d="M19.083,79.317h-4.797v24.093h4.797V79.317z"/>
<path fill="#999999" stroke="#000000" stroke-width="2" d="M23.88,73.773h12.899v4.797H23.88V73.773z"/>
<path fill="#999999" stroke="#000000" stroke-width="2" d="M36.779,34.436h3.198v43.388h-3.198V34.436z"/>
<path fill="#999999" stroke="#000000" stroke-width="2" d="M27.824,34.436h5.01v33.261h-5.01V34.436z"/>
<path fill="#999999" stroke="#000000" stroke-width="2" d="M20.682,34.436h3.198v43.388h-3.198V34.436z"/>
<path fill="#666666" stroke="#000000" stroke-width="2" d="M3.518,51.386v-1.493l0.106-1.492l0.213-1.599l0.32-1.706l0.32-1.706
	l0.533-1.599l0.64-1.706l0.64-1.599l0.747-1.493l0.853-1.279l0.959-1.278l1.066-1.066l1.279-0.96l1.279-0.64l1.386-0.319
	l1.492-0.213v0.853l-1.279,0.106l-1.172,0.427l-1.173,0.64l-1.066,0.746l-0.959,1.065l-0.959,1.173l-0.853,1.279l-0.746,1.386
	l-0.64,1.493L5.97,42.004l-0.533,1.6L5.01,45.202l-0.32,1.6l-0.213,1.599l-0.107,1.492l-0.106,1.493H3.518z"/>
<path fill="#191919" stroke="#000000" stroke-width="2" d="M15.138,32.303v-1.599h1.599v1.599H15.138z"/>
<path fill="#333333" stroke="#000000" stroke-width="2" d="M6.183,45.523h48.292v16.63H6.183V45.523z"/>
<path fill="#666666" d="M6.929,46.375h46.8v1.492h-46.8V46.375z"/>
<path fill="#191919" d="M6.929,58.741h46.8v2.985h-46.8V58.741z"/>
<path fill="#191919" stroke="#000000" stroke-width="2" d="M15.138,41.578H45.52v23.985H15.138V41.578z"/>
<path fill="#333333" stroke="#000000" stroke-width="2" d="M25.159,15.886V9.277h-0.533v-6.29h11.407v6.29H35.5v6.609H25.159z"/>
<path fill="#FFFF00" stroke="#000000" stroke-width="2" d="M11.407,25.481l0.32-2.452h2.559l1.706-5.544h28.783l1.6,5.544h2.346
	l0.533,2.452H11.407z"/>
<path fill="#7F7F7F" stroke="#000000" stroke-width="2" d="M20.682,21.962h3.731v1.066h-3.731V21.962z"/>
<path fill="#7F7F7F" stroke="#000000" stroke-width="2" d="M36.247,21.962h3.73v1.066h-3.73V21.962z"/>
<path fill="#7F7F7F" stroke="#000000" stroke-width="2" d="M44.774,21.962h3.731v1.066h-3.731V21.962z"/>
<path fill="#7F7F7F" stroke="#000000" stroke-width="2" d="M12.153,21.962h3.838v1.066h-3.838V21.962z"/>
<path fill="#999999" d="M33.901,15.353V9.277h0.533V3.52h-1.279v5.757h-0.533v6.076H33.901z"/>
<path fill="#996633" stroke="#000000" stroke-width="2" d="M15.991,42.324h28.783v22.493H15.991V42.324z"/>
<path fill="none" stroke="#000000" stroke-width="2" d="M24.626,49.253h11.407v8.636H24.626V49.253"/>
<path fill="none" stroke="#000000" stroke-width="2" d="M14.285,23.029h32.088"/>
<path fill="none" stroke="#000000" stroke-width="2" d="M24.626,9.277h11.407"/>
<path fill="none" stroke="#000000" stroke-width="2" d="M36.779,98.719V84.114"/>
<path fill="#666666" stroke="#000000" stroke-width="2" d="M24.626,38.38h11.407v2.451H24.626V38.38z"/>
<path fill="#333333" d="M32.088,38.912H35.5v1.6h-3.411V38.912z"/>
<path fill="#191919" stroke="#000000" stroke-width="2" d="M6.183,54.797H2.985v-3.411h1.599v1.492h1.599V54.797z"/>
<path fill="#333333" stroke="#000000" stroke-width="2" d="M37.845,33.903h5.011v2.345h-5.011V33.903z"/>
<path stroke="#000000" stroke-width="2" d="M26.012,15.886h8.742v1.599h-8.742V15.886z"/>
<path stroke="#000000" stroke-width="2" d="M30.169,36.034l-3.092-0.427l-3.198-0.426l-3.198-0.32l-3.198-0.426l-0.213-0.107
	l-1.279-2.559l-0.853-2.878l-0.64-0.96l-0.213-0.106h-3.411l0.533-2.345h37.846l0.213,2.345h-0.32h-2.771l-0.213,0.106l-1.173,2.559
	l-0.96,2.879l-0.639,0.959l-3.412,0.533l-3.198,0.32l-3.198,0.426l-2.558,0.32L30.169,36.034z"/>
<path fill="#666666" stroke="#000000" stroke-width="2" d="M26.225,67.697h8.209v5.33h-8.209V67.697z"/>
<path stroke="#000000" stroke-width="2" d="M27.078,73.027h6.503v0.746h-6.503V73.027z"/>
<path fill="#666666" stroke="#000000" stroke-width="2" d="M27.078,78.57h6.503v7.996h-6.503V78.57z"/>
<path fill="#666666" d="M56.395,103.196h3.943v-7.462h-3.943V103.196z"/>
<path fill="#666666" d="M55.542,98.079v-3.838H38.698v1.492L55.542,98.079z"/>
<path fill="#666666" d="M14.605,103.196h3.944v-7.462h-3.944V103.196z"/>
<path fill="#B2B2B2" d="M56.395,84.86h3.943v-5.011h-3.943V84.86z"/>
<path fill="#B2B2B2" d="M55.542,84.647v3.944H38.698v-1.6L55.542,84.647z"/>
<path fill="#B2B2B2" d="M14.605,84.86h3.944v-5.011h-3.944V84.86z"/>
<path fill="#B2B2B2" d="M25.159,38.912h1.599v1.6h-1.599V38.912z"/>
<path fill="#666666" stroke="#000000" stroke-width="2" d="M20.682,81.768h-1.599v19.296h1.599V81.768z"/>
<path fill="#FFFF66" stroke="#000000" stroke-width="2" d="M46.799,23.029l-0.746-6.076h-2.345v6.076H46.799z"/>
<path fill="#FFFF66" stroke="#000000" stroke-width="2" d="M28.57,23.029l0.64-6.076h2.345l0.533,6.076H28.57z"/>
<path fill="#FFFF66" stroke="#000000" stroke-width="2" d="M13.859,23.029l0.746-6.076h2.345v6.076H13.859z"/>
</svg>
