<?xml version="1.0" encoding="utf-8"?>
<!-- Generator: Adobe Illustrator 14.0.0, SVG Export Plug-In . SVG Version: 6.00 Build 43363)  -->
<!DOCTYPE svg PUBLIC "-//W3C//DTD SVG 1.1//EN" "http://www.w3.org/Graphics/SVG/1.1/DTD/svg11.dtd">
<svg version="1.1" id="图层_1" xmlns="http://www.w3.org/2000/svg" xmlns:xlink="http://www.w3.org/1999/xlink" x="0px" y="0px"
	 width="106.503px" height="106.502px" viewBox="0 0 106.503 106.502" enable-background="new 0 0 106.503 106.502"
	 xml:space="preserve">
<path fill="#999999" d="M20.469,68.869l3.945-2.346l5.863-6.076l2.026-7.25l-2.132-7.249l-5.757-6.077l-4.051-2.345l-7.036-2.346
	l-5.437-3.625l-3.625-5.437l-1.279-6.396l1.279-6.396l3.625-5.438l5.437-3.625l6.396-1.279l6.396,1.173l5.437,3.731l3.625,5.438
	l2.452,7.036l2.346,4.051l6.077,5.863l7.25,2.026l7.143-2.133l6.184-5.757l2.345-4.157l2.239-6.93l3.624-5.438l5.438-3.625
	l6.396-1.279l6.396,1.279l5.438,3.625l3.625,5.438l1.279,6.396l-1.173,6.396l-3.731,5.437l-5.438,3.625l-6.93,2.239l-4.051,2.345
	l-5.863,6.184l-2.133,7.143l2.133,7.25l5.863,6.076l4.158,2.452l6.822,2.346l5.438,3.624l3.625,5.438l1.279,6.396l-1.279,6.396
	l-3.625,5.438l-5.438,3.624l-6.396,1.279l-6.396-1.172l-5.438-3.731l-3.624-5.438l-2.132-7.036l-2.346-4.051l-6.184-5.864
	l-7.143-2.025l-7.25,2.133l-6.077,5.757l-2.452,4.051l-2.452,7.036l-3.625,5.438l-5.437,3.624l-6.396,1.279l-6.396-1.279
	l-5.437-3.624L4.264,93.07l-1.279-6.396l1.173-6.396l3.731-5.438l5.437-3.624L20.469,68.869z"/>
<path fill="#CCCCCC" d="M24.52,66.95l3.518-2.025l5.117-5.438l1.706-6.29l-1.813-6.289l-5.011-5.438l-3.625-2.025l-6.077-2.025
	l-4.797-3.092l-3.198-4.798l-1.066-5.65l1.066-5.543l3.198-4.798l4.797-3.198l5.543-1.066l5.65,1.066l4.797,3.198l3.092,4.798
	l2.132,6.076l2.026,3.519l5.437,5.224l6.29,1.706l6.29-1.813l5.33-5.117l2.133-3.519l1.918-6.076l3.092-4.798l4.798-3.198
	l5.649-1.066l5.545,1.066l4.797,3.198l3.198,4.798l1.065,5.543l-1.065,5.65l-3.198,4.798L88.06,37.42l-6.077,2.025l-3.519,2.025
	l-5.117,5.33l-1.813,6.29l1.813,6.29l5.117,5.438l3.625,2.025l5.971,2.132l4.797,3.092l3.198,4.798l1.065,5.65l-1.065,5.543
	l-3.198,4.798l-4.797,3.198l-5.545,1.065l-5.649-1.065l-4.798-3.198l-3.092-4.798l-1.918-6.076l-2.026-3.625l-5.437-5.117
	l-6.29-1.706l-6.29,1.813l-5.331,5.011l-2.132,3.625l-2.132,6.076l-3.092,4.798l-4.797,3.198l-5.65,1.065l-5.543-1.065l-4.797-3.198
	l-3.198-4.798l-1.066-5.543l1.066-5.65l3.198-4.798l4.797-3.092L24.52,66.95z"/>
<path fill="#E5E5E5" d="M28.678,64.925l2.985-1.706l4.371-4.584l1.493-5.438l-1.493-5.437l-4.371-4.584l-3.092-1.813l-5.331-1.6
	l-4.051-2.771l-2.771-4.158l-0.853-4.797l0.853-4.798l2.771-4.051l4.051-2.771l4.904-0.854l4.797,0.854l4.051,2.771l2.772,4.051
	l1.813,5.225l1.706,3.091l4.584,4.478l5.437,1.493l5.437-1.493l4.584-4.478l1.706-3.091l1.6-5.225l2.771-4.051l4.157-2.771
	l4.798-0.854l4.798,0.854l4.051,2.771l2.771,4.051l0.854,4.904l-0.854,4.798l-2.771,4.051l-4.051,2.771l-5.225,1.6l-3.092,1.813
	l-4.477,4.584l-1.492,5.33l1.492,5.438l4.477,4.584l3.092,1.813l5.225,1.706l4.051,2.771l2.771,4.157l0.854,4.798l-0.854,4.798
	l-2.771,4.051l-4.051,2.771l-4.904,0.854l-4.797-0.854l-4.052-2.771l-2.771-4.051l-1.493-5.331l-1.813-3.092l-4.584-4.371
	l-5.437-1.492l-5.331,1.492l-4.584,4.371l-1.812,3.198l-1.813,5.225l-2.772,4.051l-4.158,2.771l-4.797,0.854l-4.797-0.854
	l-4.051-2.771l-2.771-4.051l-0.853-4.904l0.853-4.798l2.771-4.051l4.051-2.771L28.678,64.925z"/>
<path fill="none" stroke="#000000" stroke-width="2" d="M20.469,68.869l3.945-2.346l5.863-6.076l2.026-7.25l-2.132-7.249
	l-5.757-6.077l-4.051-2.345l-7.036-2.346l-5.437-3.625l-3.625-5.437l-1.279-6.396l1.279-6.396l3.625-5.438l5.437-3.625l6.396-1.279
	l6.396,1.173l5.437,3.731l3.625,5.438l2.452,7.036l2.346,4.051l6.077,5.863l7.25,2.026l7.143-2.133l6.184-5.757l2.345-4.157
	l2.239-6.93l3.624-5.438l5.438-3.625l6.396-1.279l6.396,1.279l5.438,3.625l3.625,5.438l1.279,6.396l-1.173,6.396l-3.731,5.437
	l-5.438,3.625l-6.93,2.239l-4.051,2.345l-5.863,6.184l-2.133,7.143l2.133,7.25l5.863,6.076l4.158,2.452l6.822,2.346l5.438,3.624
	l3.625,5.438l1.279,6.396l-1.279,6.396l-3.625,5.438l-5.438,3.624l-6.396,1.279l-6.396-1.172l-5.438-3.731l-3.624-5.438
	l-2.132-7.036l-2.346-4.051l-6.184-5.864l-7.143-2.025l-7.25,2.133l-6.077,5.757l-2.452,4.051l-2.452,7.036l-3.625,5.438
	l-5.437,3.624l-6.396,1.279l-6.396-1.279l-5.437-3.624L4.264,93.07l-1.279-6.396l1.173-6.396l3.731-5.438l5.437-3.624L20.469,68.869
	"/>
<circle fill="#FFFFFF" cx="53.198" cy="53.198" r="14.712"/>
</svg>
