<?xml version="1.0" encoding="utf-8"?>
<!-- Generator: Adobe Illustrator 14.0.0, SVG Export Plug-In . SVG Version: 6.00 Build 43363)  -->
<!DOCTYPE svg PUBLIC "-//W3C//DTD SVG 1.1//EN" "http://www.w3.org/Graphics/SVG/1.1/DTD/svg11.dtd">
<svg version="1.1" id="图层_1" xmlns="http://www.w3.org/2000/svg" xmlns:xlink="http://www.w3.org/1999/xlink" x="0px" y="0px"
	 width="64.073px" height="106.502px" viewBox="0 0 64.073 106.502" enable-background="new 0 0 64.073 106.502"
	 xml:space="preserve">
<path fill="#194C4C" stroke="#000000" stroke-width="2" d="M25.906,58.635h12.047v1.173H25.906V58.635z"/>
<path fill="#336666" d="M10.235,74.093h7.143l3.199-0.426l2.665-1.813l1.173-2.559l0.213-2.452v-7.036h14.499v7.036l0.426,3.198
	l1.493,2.238l2.345,1.387l3.199,0.426h7.249v14.499h-7.249l-3.199,0.427l-2.345,1.386l-1.599,2.985l-0.32,2.451v7.569H24.627v-7.569
	l-0.426-3.198l-1.813-2.665l-2.559-1.173l-2.452-0.213h-7.143V74.093z"/>
<path fill="#194C4C" d="M24.627,2.985h14.499v55.65H24.627V2.985z"/>
<path fill="#336666" d="M25.693,2.985H38.38v55.65H25.693V2.985z"/>
<path fill="#4C7F7F" d="M26.866,2.985h10.235v55.65H26.866V2.985z"/>
<path fill="#669999" d="M28.252,2.985h7.249v55.65h-7.249V2.985z"/>
<path fill="#7FB2B2" d="M30.064,2.985h3.625v55.65h-3.625V2.985z"/>
<path fill="none" stroke="#000000" stroke-width="2" d="M24.627,2.985h14.499v55.65H24.627V2.985"/>
<path fill="#194C4C" d="M6.93,25.267l0.426-3.839l1.173-2.878l2.345-2.452l2.985-1.173l0.747-0.106h0.853h0.959h32.196l3.092,0.533
	l2.559,1.706l1.492,2.345l0.854,3.198l0.213,1.279v1.387v1.386l-0.746,3.518l-1.279,2.559l-2.453,2.133l-2.984,0.853h-0.746h-1.066
	H15.458l-3.198-0.533l-2.665-1.706L8.103,31.13l-0.959-3.198l-0.106-1.279L6.93,25.267z"/>
<path fill="#336666" d="M10.235,25.267l0.32-3.839l0.959-2.878l2.025-2.452l2.559-1.173l0.64-0.106h0.64h0.959h28.252l3.305,0.853
	l2.132,2.133l1.173,2.559l0.533,3.518l0.106,1.387l-0.106,1.386l-0.533,3.518l-1.173,2.559l-2.132,2.133l-2.666,0.853h-0.639h-0.96
	H17.377l-3.198-0.853l-2.239-2.133l-1.066-2.559l-0.64-3.518V25.267z"/>
<path fill="#4C7F7F" d="M14.179,25.267l0.32-3.839l0.853-2.878l1.599-2.452l2.772-1.279h0.533h0.746H43.71l2.771,0.853l2.025,2.879
	l0.854,2.878l0.213,2.452v1.387v1.386L49.04,30.17l-0.853,2.559l-2.239,2.452l-1.599,0.533h-0.64h-0.746H20.256l-2.772-0.853
	l-1.813-2.133l-0.959-2.559l-0.426-3.518L14.179,25.267z"/>
<path fill="#669999" d="M19.403,25.267l0.106-1.387v-1.279l0.106-1.173l0.213-1.065l0.213-0.96l0.213-0.853l0.533-1.492l0.64-0.96
	l0.747-0.746l1.066-0.533h0.426h0.959h15.672l1.173,0.32l0.959,0.959l0.64,0.96l0.533,1.492l0.214,0.853l0.213,0.96l0.106,1.065
	l0.106,1.173l0.106,1.279v1.387v1.386l-0.106,1.279l-0.106,1.173L44.03,30.17l-0.213,0.96l-0.428,1.599l-0.532,1.279l-0.747,0.854
	l-1.065,0.746l-0.319,0.106h-0.427h-0.96H23.667l-1.172-0.32l-0.747-0.532l-0.64-0.854l-0.64-1.279l-0.213-0.746l-0.213-0.853
	l-0.213-0.96l-0.213-1.065l-0.106-1.173v-1.279L19.403,25.267z"/>
<path fill="#7FB2B2" d="M25.693,25.267V23.88v-1.279l0.106-1.173v-1.065l0.106-0.96l0.213-1.599l0.32-1.279l0.426-0.854l0.533-0.746
	l0.213-0.106h0.32h0.426h7.782h0.214l0.639,0.853l0.32,0.854l0.32,1.279l0.213,1.599l0.106,0.96l0.106,1.065v1.173l0.107,1.279
	v1.387v1.386l-0.107,1.279v1.173l-0.106,1.065l-0.106,0.96l-0.213,1.599l-0.32,1.279l-0.32,0.854l-0.639,0.853h-0.214h-0.532h-7.676
	l-0.853-0.533l-0.64-1.173l-0.32-1.279l-0.213-1.599L25.8,30.17v-1.065l-0.106-1.173v-1.279V25.267z"/>
<path fill="none" stroke="#000000" stroke-width="2" d="M6.93,25.267l0.426-3.839l1.173-2.878l2.345-2.452l2.985-1.173l0.747-0.106
	h0.853h0.959h32.196l3.092,0.533l2.559,1.706l1.492,2.345l0.854,3.198l0.213,1.279v1.387v1.386l-0.746,3.518l-1.279,2.559
	l-2.453,2.133l-2.984,0.853h-0.746h-1.066H15.458l-3.198-0.533l-2.665-1.706L8.103,31.13l-0.959-3.198l-0.106-1.279L6.93,25.267"/>
<path fill="#4C7F7F" stroke="#000000" stroke-width="2" d="M2.985,23.24h58.102v4.052H2.985V23.24z"/>
<path fill="none" stroke="#000000" stroke-width="2" d="M2.985,25.267h58.102"/>
<path fill="#669999" stroke="#000000" stroke-width="2" d="M5.011,21.002h4.158v2.238H5.011V21.002z"/>
<path fill="#669999" stroke="#000000" stroke-width="2" d="M17.377,21.002h4.265v2.238h-4.265V21.002z"/>
<path fill="#669999" stroke="#000000" stroke-width="2" d="M29.851,21.002h4.264v2.238h-4.264V21.002z"/>
<path fill="#669999" stroke="#000000" stroke-width="2" d="M42.324,21.002h4.265v2.238h-4.265V21.002z"/>
<path fill="#669999" stroke="#000000" stroke-width="2" d="M54.798,21.002h4.264v2.238h-4.264V21.002z"/>
<path fill="#4C7F7F" stroke="#000000" stroke-width="2" d="M5.971,27.292h2.239v4.157H5.971V27.292z"/>
<path fill="#4C7F7F" stroke="#000000" stroke-width="2" d="M18.444,27.292h2.239v4.157h-2.239V27.292z"/>
<path fill="#4C7F7F" stroke="#000000" stroke-width="2" d="M30.917,27.292h2.238v4.157h-2.238V27.292z"/>
<path fill="#4C7F7F" stroke="#000000" stroke-width="2" d="M43.39,27.292h1.92v4.157h-1.92V27.292z"/>
<path fill="#4C7F7F" stroke="#000000" stroke-width="2" d="M55.863,27.292h1.919v4.157h-1.919V27.292z"/>
<path fill="#4C7F7F" d="M10.235,74.947h8.849l3.305-0.64l2.132-1.919l0.959-3.198v-0.747v-8.635h12.9v8.635l0.533,3.412l2.025,2.132
	l3.198,0.853l0.853,0.107h8.849V87.74h-8.849l-2.984,0.426l-2.453,1.706L38.38,92.75v1.492v9.168h-12.9v-9.168l-0.64-3.411
	l-1.919-2.133l-3.092-0.853l-0.746-0.106h-8.849V74.947z"/>
<path fill="#669999" d="M10.235,76.118h11.194l3.198-0.746l1.706-2.238l0.32-2.239V59.808h10.448v11.087l0.746,3.092l2.346,1.813
	l2.346,0.319h11.3v10.448h-11.3L39.659,87.1l-2.025,1.919l-0.533,2.771v11.62H26.653V91.79l-0.747-3.198l-2.239-1.706l-2.239-0.319
	H10.235V76.118z"/>
<path fill="#7FB2B2" d="M10.235,77.718h14.392l2.772-0.96l0.853-2.665V59.808h7.249v14.285l0.959,2.665l2.666,0.96h14.712v7.249
	H39.126l-2.666,0.854l-0.959,2.771v14.818h-7.249V88.592l-0.853-2.771l-2.772-0.854H10.235V77.718z"/>
<path fill="none" stroke="#000000" stroke-width="2" d="M10.235,74.093h7.143l3.199-0.426l2.665-1.813l1.173-2.559l0.213-2.452
	v-7.036h14.499v7.036l0.426,3.198l1.493,2.238l2.345,1.387l3.199,0.426h7.249v14.499h-7.249l-3.199,0.427l-2.345,1.386l-1.599,2.985
	l-0.32,2.451v7.569H24.627v-7.569l-0.426-3.198l-1.813-2.665l-2.559-1.173l-2.452-0.213h-7.143V74.093"/>
<ellipse fill="#7FB2B2" cx="31.983" cy="81.982" rx="10.981" ry="7.25"/>
<ellipse fill="#8CBFBF" cx="31.983" cy="81.556" rx="9.381" ry="6.077"/>
<ellipse fill="#99CCCC" cx="31.983" cy="80.703" rx="6.503" ry="4.158"/>
<path fill="none" stroke="#000000" stroke-width="2" d="M24.627,50.213h14.499"/>
</svg>
