<?xml version="1.0" encoding="utf-8"?>
<!-- Generator: Adobe Illustrator 14.0.0, SVG Export Plug-In . SVG Version: 6.00 Build 43363)  -->
<!DOCTYPE svg PUBLIC "-//W3C//DTD SVG 1.1//EN" "http://www.w3.org/Graphics/SVG/1.1/DTD/svg11.dtd">
<svg version="1.1" id="图层_1" xmlns="http://www.w3.org/2000/svg" xmlns:xlink="http://www.w3.org/1999/xlink" x="0px" y="0px"
	 width="56.182px" height="106.502px" viewBox="0 0 56.182 106.502" enable-background="new 0 0 56.182 106.502"
	 xml:space="preserve">
<path fill="#7F7F7F" d="M19.722,44.776v-8.314h-4.158v-4.158h4.158v-8.422h-4.158v-4.157h4.158V7.144l2.132-2.132l4.158-2.025h4.157
	l4.157,2.025l2.133,2.132v12.58h4.157v4.157H36.46v8.422h4.157v4.158H36.46v8.314H19.722z"/>
<path fill="#999999" d="M21.108,44.776v-8.314H17.59v-4.158h3.519v-8.422H17.59v-4.157h3.519V7.144l1.813-2.132l3.518-2.025h3.411
	l3.519,2.025l1.706,2.132v12.58h3.411v4.157h-3.411v8.422h3.411v4.158h-3.411v8.314H21.108z"/>
<path fill="#B2B2B2" d="M22.494,44.776v-8.314h-2.771v-4.158h2.771v-8.422h-2.771v-4.157h2.771V7.144l1.386-2.132l2.879-2.025h2.771
	l2.771,2.025l1.386,2.132v12.58h2.772v4.157h-2.772v8.422h2.772v4.158h-2.772v8.314H22.494z"/>
<path fill="#CCCCCC" d="M23.88,44.776v-8.314h-2.132v-4.158h2.132v-8.422h-2.132v-4.157h2.132V7.144l1.066-2.132l2.132-2.025h2.025
	l2.133,2.025l1.065,2.132v12.58h2.025v4.157h-2.025v8.422h2.025v4.158h-2.025v8.314H23.88z"/>
<path fill="#E5E5E5" d="M26.652,44.776v-8.314h-0.64v-4.158h0.64v-8.422h-0.64v-4.157h0.64V7.144l0.426-2.132l0.64-2.025h0.746
	l0.64,2.025l0.427,2.132v12.58h0.64v4.157h-0.64v8.422h0.64v4.158h-0.64v8.314H26.652z"/>
<path fill="none" stroke="#000000" stroke-width="2" d="M19.722,44.776v-8.314h-4.158v-4.158h4.158v-8.422h-4.158v-4.157h4.158
	V7.144l2.132-2.132l4.158-2.025h4.157l4.157,2.025l2.133,2.132v12.58h4.157v4.157H36.46v8.422h4.157v4.158H36.46v8.314H19.722"/>
<path fill="#7F7F7F" d="M2.985,80.383h6.29v6.289h37.632v-6.289h6.29v23.026h-6.29v-6.29H9.275v6.29h-6.29V80.383z"/>
<path fill="#999999" d="M2.985,82.515h6.29v5.117h37.632v-5.117h6.29v18.763h-6.29v-5.011H9.275v5.011h-6.29V82.515z"/>
<path fill="#B2B2B2" d="M2.985,84.54h6.29v4.051h37.632V84.54h6.29v14.712h-6.29V95.2H9.275v4.052h-6.29V84.54z"/>
<path fill="#CCCCCC" d="M2.985,86.672h6.29v2.879h37.632v-2.879h6.29v10.447h-6.29v-2.878H9.275v2.878h-6.29V86.672z"/>
<path fill="#E5E5E5" d="M2.985,90.83h6.29v0.64h37.632v-0.64h6.29v2.132h-6.29v-0.533H9.275v0.533h-6.29V90.83z"/>
<path fill="none" stroke="#000000" stroke-width="2" d="M2.985,80.383h6.29v6.289h37.632v-6.289h6.29v23.026h-6.29v-6.29H9.275v6.29
	h-6.29V80.383"/>
<path fill="none" stroke="#000000" stroke-width="2" d="M9.275,97.119V86.672"/>
<path fill="none" stroke="#000000" stroke-width="2" d="M46.907,86.672v10.447"/>
<path fill="none" stroke="#000000" stroke-width="2" d="M19.722,19.724H36.46"/>
<path fill="none" stroke="#000000" stroke-width="2" d="M36.46,23.881H19.722"/>
<path fill="none" stroke="#000000" stroke-width="2" d="M19.722,32.303H36.46"/>
<path fill="none" stroke="#000000" stroke-width="2" d="M36.46,36.461H19.722"/>
<path fill="none" stroke="#000000" stroke-width="2" d="M19.722,42.75H36.46"/>
<path fill="#7F7F7F" stroke="#000000" stroke-width="2" d="M19.722,44.776l-2.133,2.133v31.448l1.066,0.96l1.066-0.96H36.46V46.908
	l1.065-0.96l-1.065-1.173H19.722z"/>
<path fill="#7F7F7F" stroke="#000000" stroke-width="2" d="M23.88,80.383l-2.025,2.132v12.579l0.96,0.96l1.065-0.96h8.422V82.515
	l0.96-1.066l-0.96-1.065H23.88z"/>
<path fill="#4C4C4C" stroke="#000000" stroke-width="2" d="M36.46,78.357H19.722l-1.066,0.96l1.066,1.066H36.46l2.132-2.026V46.908
	l-1.066-1.066l-1.065,1.066V78.357z"/>
<path fill="#4C4C4C" stroke="#000000" stroke-width="2" d="M32.302,95.094H23.88l-1.065,0.96l1.065,1.065h8.422l2.025-2.025V82.515
	l-1.065-1.066l-0.96,1.066V95.094z"/>
<path fill="none" stroke="#FFFFFF" stroke-width="2" d="M19.722,78.357V46.908H36.46"/>
<path fill="none" stroke="#FFFFFF" stroke-width="2" d="M23.88,95.094V82.515h8.422"/>
</svg>
