<?xml version="1.0" encoding="utf-8"?>
<!-- Generator: Adobe Illustrator 14.0.0, SVG Export Plug-In . SVG Version: 6.00 Build 43363)  -->
<!DOCTYPE svg PUBLIC "-//W3C//DTD SVG 1.1//EN" "http://www.w3.org/Graphics/SVG/1.1/DTD/svg11.dtd">
<svg version="1.1" id="图层_1" xmlns="http://www.w3.org/2000/svg" xmlns:xlink="http://www.w3.org/1999/xlink" x="0px" y="0px"
	 width="72.813px" height="106.502px" viewBox="0 0 72.813 106.502" enable-background="new 0 0 72.813 106.502"
	 xml:space="preserve">
<path fill="#E5E5E5" stroke="#000000" stroke-width="2" d="M25.799,32.409h23.773v4.371H25.799V32.409z"/>
<path fill="#7F7F7F" stroke="#000000" stroke-width="2" d="M25.799,66.311h23.773l-1.919-15.245H27.718L25.799,66.311z"/>
<path fill="#666666" stroke="#000000" stroke-width="2" d="M31.662,52.026h11.94v13.219h-11.94V52.026z"/>
<path fill="#B2B2B2" d="M5.543,71.322h64.285v28.145H5.543V71.322z"/>
<path fill="#CCCCCC" d="M5.543,74.306h64.285v22.175H5.543V74.306z"/>
<path fill="#E5E5E5" d="M5.543,79.21h64.285v12.26H5.543V79.21z"/>
<path fill="none" stroke="#000000" stroke-width="2" d="M5.543,71.322h64.285v28.145H5.543V71.322"/>
<path fill="#B2B2B2" d="M11.514,67.27h16.204v36.141H11.514V67.27z"/>
<path fill="#CCCCCC" d="M11.514,71.322h16.204v28.145H11.514V71.322z"/>
<path fill="#E5E5E5" d="M11.514,77.505h16.204v15.671H11.514V77.505z"/>
<path fill="none" stroke="#000000" stroke-width="2" d="M11.514,67.27h16.204v36.141H11.514V67.27"/>
<path fill="#B2B2B2" d="M47.654,67.27h16.205v36.141H47.654V67.27z"/>
<path fill="#CCCCCC" d="M47.654,71.322h16.205v28.145H47.654V71.322z"/>
<path fill="#E5E5E5" d="M47.654,77.505h16.205v15.671H47.654V77.505z"/>
<path fill="none" stroke="#000000" stroke-width="2" d="M47.654,67.27h16.205v36.141H47.654V67.27"/>
<path fill="#666666" stroke="#000000" stroke-width="2" d="M17.377,10.874h40.511v12.26H17.377V10.874z"/>
<path fill="#CCCCCC" stroke="#000000" stroke-width="2" d="M29.743,79.21h15.885v16.312H29.743V79.21z"/>
<path fill="#B2B2B2" stroke="#000000" stroke-width="2" d="M7.462,74.306h4.052v6.93H7.462V74.306z"/>
<path fill="#B2B2B2" stroke="#000000" stroke-width="2" d="M7.462,87.526h4.052v6.93H7.462V87.526z"/>
<path fill="#B2B2B2" stroke="#000000" stroke-width="2" d="M63.859,74.306h3.944v6.93h-3.944V74.306z"/>
<path fill="#B2B2B2" stroke="#000000" stroke-width="2" d="M63.859,87.526h3.944v6.93h-3.944V87.526z"/>
<path fill="#666666" stroke="#000000" stroke-width="2" d="M29.743,66.311h15.885v5.011H29.743V66.311z"/>
<path fill="#333333" stroke="#000000" stroke-width="2" d="M27.718,31.13h19.936v7.036H27.718V31.13z"/>
<path fill="#0000BF" stroke="#000000" stroke-width="2" d="M24.734,38.166h25.799v12.899H24.734V38.166z"/>
<path fill="#0000FF" stroke="#000000" stroke-width="2" d="M25.799,39.125h23.773v10.981H25.799V39.125z"/>
<path fill="#0000BF" stroke="#000000" stroke-width="2" d="M33.689,49.04h-2.985l-2.985-2.985v-2.984l2.985-2.985h2.985l2.984,2.985
	v2.984L33.689,49.04z"/>
<path fill="none" stroke="#000000" stroke-width="2" d="M27.718,40.085h8.955v8.955h-8.955V40.085"/>
<path fill="#0000BF" stroke="#000000" stroke-width="2" d="M20.469,46.055h4.265v2.985h-4.265V46.055z"/>
<path fill="#0000FF" stroke="#000000" stroke-width="2" d="M20.469,42.111h4.265v3.944h-4.265V42.111z"/>
<path fill="#7F7FFF" stroke="#000000" stroke-width="2" d="M20.469,40.085h4.265v2.025h-4.265V40.085z"/>
<path fill="#0000BF" stroke="#000000" stroke-width="2" d="M50.532,46.055h4.051v2.985h-4.051V46.055z"/>
<path fill="#0000FF" stroke="#000000" stroke-width="2" d="M50.532,42.111h4.051v3.944h-4.051V42.111z"/>
<path fill="#7F7FFF" stroke="#000000" stroke-width="2" d="M50.532,40.085h4.051v2.025h-4.051V40.085z"/>
<circle fill="#CCCCCC" stroke="#000000" stroke-width="2" cx="29.743" cy="62.26" r="2.985"/>
<circle fill="#CCCCCC" stroke="#000000" stroke-width="2" cx="45.628" cy="62.26" r="2.985"/>
<path fill="#666666" stroke="#000000" stroke-width="2" d="M17.377,23.134h40.511v4.052H17.377V23.134z"/>
<path fill="#4C4C4C" stroke="#000000" stroke-width="2" d="M17.377,27.186h40.511v3.944H17.377V27.186z"/>
<path fill="#CCCCCC" stroke="#000000" stroke-width="2" d="M27.718,8.955l3.944-5.97h11.94l4.051,5.97H27.718z"/>
<path fill="#FFFFFF" d="M44.349,8.636l-2.665-5.011h-1.386l0.64,5.011H44.349z"/>
<ellipse fill="#CCCCCC" stroke="#000000" stroke-width="2" cx="48.614" cy="22.068" rx="3.944" ry="4.158"/>
<circle fill="#666666" stroke="#000000" stroke-width="2" cx="48.72" cy="21.962" r="3.412"/>
<circle fill="#0000FF" stroke="#000000" stroke-width="2" cx="48.614" cy="21.962" r="2.985"/>
<circle fill="#0000BF" cx="48.507" cy="22.175" r="1.919"/>
<path fill="#4C4C4C" stroke="#000000" stroke-width="2" d="M57.888,22.175h2.026v7.036h-2.026V22.175z"/>
<path fill="#CCCCCC" stroke="#000000" stroke-width="2" d="M59.914,22.175h0.959v7.036h-0.959V22.175z"/>
<path fill="#999999" stroke="#000000" stroke-width="2" d="M27.718,8.955h19.936v0.96H27.718V8.955z"/>
<path fill="#999999" stroke="#000000" stroke-width="2" d="M27.718,9.915h19.936v0.959H27.718V9.915z"/>
<path fill="#999999" stroke="#000000" stroke-width="2" d="M25.799,33.475h-1.386h-1.279l-1.279,0.107h-1.386h-1.386h-1.279h-1.387
	l-1.279-0.107l-1.279-0.106l-1.172-0.213l-1.173-0.213l-0.96-0.32l-0.959-0.319L8.741,31.77l-0.64-0.64l-0.64-0.64l-0.319-1.493
	L6.93,27.399l-0.214-1.6L6.61,24.2v-1.386v-1.279l0.213-0.96l0.64-1.065l0.32-0.214l1.066-0.213l1.279,0.319l1.065,0.214
	l1.173,0.213l1.279,0.213l1.492-0.213v-2.878h-1.279l-1.492-0.214l-1.599-0.319l-1.706-0.214l-0.853-0.106H7.462l-1.599,0.32
	l-1.279,0.746l-0.533,0.64L3.518,18.55l-0.319,1.6l-0.214,1.705v0.746v0.747v1.492l0.214,1.599l0.319,1.706l0.214,0.96l0.213,0.959
	l0.319,0.96l0.214,1.065l0.64,1.066l0.853,0.746l0.96,0.746l1.279,0.533l1.279,0.533l1.386,0.32l1.599,0.319l1.493,0.106
	l1.705,0.106l1.6,0.107h1.599l1.493-0.107l1.599-0.106l1.386-0.106l1.279-0.106l1.173-0.106v-0.427V33.475z"/>
<path fill="#666666" stroke="#000000" stroke-width="2" d="M15.138,15.565h2.239v5.65h-2.239V15.565z"/>
</svg>
