<?xml version="1.0" encoding="utf-8"?>
<!-- Generator: Adobe Illustrator 14.0.0, SVG Export Plug-In . SVG Version: 6.00 Build 43363)  -->
<!DOCTYPE svg PUBLIC "-//W3C//DTD SVG 1.1//EN" "http://www.w3.org/Graphics/SVG/1.1/DTD/svg11.dtd">
<svg version="1.1" id="图层_1" xmlns="http://www.w3.org/2000/svg" xmlns:xlink="http://www.w3.org/1999/xlink" x="0px" y="0px"
	 width="142.999px" height="106.502px" viewBox="0 0 142.999 106.502" enable-background="new 0 0 142.999 106.502"
	 xml:space="preserve">
<path fill="#263A59" stroke="#000000" stroke-width="2" d="M56.685,75.152l4.15-4.294V64.56l11.309,10.592H56.685z"/>
<path fill="none" stroke="#000000" stroke-width="2" d="M29.201,21.76l4.008-3.865L19.324,4.01l-4.008,3.865L29.201,21.76"/>
<path fill="#666666" d="M26.195,16.893l2.005-2.004l4.008,4.008l-2.004,2.004L26.195,16.893z"/>
<path fill="#405473" stroke="#000000" stroke-width="2" d="M20.899,68.71v33.782h22.474v-5.583h56.111v5.583h22.474V68.71H99.484
	v5.727H43.372V68.71H20.899z"/>
<path fill="#596D8C" d="M20.899,72.003v27.196h22.474v-4.437h56.111v4.437h22.474V72.003H99.484v4.58H43.372v-4.58H20.899z"/>
<path fill="#7387A6" d="M20.899,76.441v18.465h22.474v-3.149h56.111v3.149h22.474V76.441H99.484v3.148H43.372v-3.148H20.899z"/>
<path fill="#8CA0BF" d="M20.899,81.021v9.305h22.474V88.75h56.111v1.575h22.474v-9.305H99.484v1.574H43.372v-1.574H20.899z"/>
<path fill="#A6BAD9" d="M20.899,84.456v2.434h22.474v-0.43h56.111v0.43h22.474v-2.434H99.484v0.43H43.372v-0.43H20.899z"/>
<path fill="#666666" stroke="#000000" stroke-width="2" d="M121.957,74.007h16.891v23.188h-16.891V74.007z"/>
<path fill="#666666" stroke="#000000" stroke-width="2" d="M4.008,74.007h16.891v23.188H4.008V74.007z"/>
<path fill="#7F7F7F" d="M121.957,76.297h16.891v18.752h-16.891V76.297z"/>
<path fill="#7F7F7F" d="M4.008,76.297h16.891v18.752H4.008V76.297z"/>
<path fill="#999999" d="M121.957,79.16h16.891v12.883h-16.891V79.16z"/>
<path fill="#999999" d="M4.008,79.16h16.891v12.883H4.008V79.16z"/>
<path fill="#B2B2B2" d="M121.957,82.309h16.891v6.728h-16.891V82.309z"/>
<path fill="#B2B2B2" d="M4.008,82.309h16.891v6.728H4.008V82.309z"/>
<path fill="#CCCCCC" d="M121.957,84.886h16.891v1.574h-16.891V84.886z"/>
<path fill="#CCCCCC" d="M4.008,84.886h16.891v1.574H4.008V84.886z"/>
<path fill="none" stroke="#000000" stroke-width="2" d="M43.372,96.909V74.437"/>
<path fill="none" stroke="#000000" stroke-width="2" d="M99.484,74.437v22.473"/>
<path fill="#263A59" stroke="#000000" stroke-width="2" d="M46.092,98.341h5.726v4.151h-5.726V98.341z"/>
<path fill="#263A59" stroke="#000000" stroke-width="2" d="M54.537,98.341h5.582v4.151h-5.582V98.341z"/>
<path fill="#263A59" stroke="#000000" stroke-width="2" d="M91.182,98.341h5.582v4.151h-5.582V98.341z"/>
<path fill="#263A59" stroke="#000000" stroke-width="2" d="M88.319,98.341h-5.582v4.151h5.582V98.341z"/>
<path fill="#8CA0BF" stroke="#000000" stroke-width="2" d="M48.239,91.327h1.432v7.014h-1.432V91.327z"/>
<path fill="#8CA0BF" stroke="#000000" stroke-width="2" d="M56.685,91.327h1.431v7.014h-1.431V91.327z"/>
<path fill="#8CA0BF" stroke="#000000" stroke-width="2" d="M84.883,91.327h1.289v7.014h-1.289V91.327z"/>
<path fill="#8CA0BF" stroke="#000000" stroke-width="2" d="M93.186,91.327h1.432v7.014h-1.432V91.327z"/>
<path fill="#405473" d="M72.287,76.583h27.196l0.144-4.151l-34.784-34.64l10.021-10.021L60.979,13.887L50.958,23.907L35.07,15.891
	l-7.872,8.017l7.872,15.889l-9.877,9.877l13.885,13.885l9.877-9.877L72.287,76.583z"/>
<path fill="#596D8C" d="M77.297,78.158l22.044-0.144l0.143-2.147L63.126,39.51l7.729-7.73L56.971,17.895l-7.73,7.73L34.211,16.75
	l-6.155,6.298l8.875,14.887l-7.729,7.729l13.885,13.885l7.729-7.729L77.297,78.158z"/>
<path fill="#7387A6" d="M81.735,79.589l17.463-0.143L61.408,41.37l5.439-5.582L52.963,21.903l-5.439,5.439l-14.172-9.59
	l-4.438,4.438l9.734,14.027l-5.439,5.439l13.885,13.885l5.439-5.439L81.735,79.589z"/>
<path fill="#8CA0BF" d="M88.892,82.595l10.02-0.143L59.547,43.088l3.292-3.292L48.954,25.911l-3.292,3.292L32.493,18.611
	l-2.72,2.577l10.593,13.312l-3.293,3.293l13.885,13.885l3.293-3.293L88.892,82.595z"/>
<path fill="#A6BAD9" d="M95.19,84.886h3.006l-40.366-40.08l1.146-1.146L45.09,29.776l-1.146,1.146L31.634,19.47l-0.858,0.858
	l11.451,12.311l-1.145,1.145l13.885,13.885l1.145-1.145L95.19,84.886z"/>
<path fill="none" stroke="#000000" stroke-width="2" d="M99.484,72.289L64.843,37.792l10.021-10.021L60.979,13.887L50.958,23.907
	L35.07,15.891l-7.872,8.017l7.872,15.889l-9.877,9.877l13.885,13.885l9.877-9.877l21.042,20.756"/>
<path fill="none" stroke="#000000" stroke-width="2" d="M31.062,43.804l13.885,13.885"/>
<path fill="none" stroke="#000000" stroke-width="2" d="M37.073,37.792l13.885,13.885"/>
<path fill="none" stroke="#000000" stroke-width="2" d="M43.086,31.78l13.885,13.885"/>
<path fill="none" stroke="#000000" stroke-width="2" d="M49.098,25.768l13.885,14.028"/>
<path fill="none" stroke="#000000" stroke-width="2" d="M54.967,19.899l13.885,13.885"/>
<path fill="none" stroke="#000000" stroke-width="2" d="M35.07,39.796l15.889-15.889"/>
<path fill="none" stroke="#000000" stroke-width="2" d="M64.843,37.792L48.954,53.681"/>
<path fill="none" stroke="#FFFFFF" stroke-width="2" d="M30.203,17.895l-4.438-4.58"/>
<path fill="none" stroke="#FFFFFF" stroke-width="2" d="M27.912,16.75l-4.58-4.438"/>
<path fill="none" stroke="#263A59" stroke-width="2" d="M58.831,63.844l16.175-16.176"/>
</svg>
