<?xml version="1.0" encoding="utf-8"?>
<!-- Generator: Adobe Illustrator 14.0.0, SVG Export Plug-In . SVG Version: 6.00 Build 43363)  -->
<!DOCTYPE svg PUBLIC "-//W3C//DTD SVG 1.1//EN" "http://www.w3.org/Graphics/SVG/1.1/DTD/svg11.dtd">
<svg version="1.1" id="图层_1" xmlns="http://www.w3.org/2000/svg" xmlns:xlink="http://www.w3.org/1999/xlink" x="0px" y="0px"
	 width="123.566px" height="106.502px" viewBox="0 0 123.566 106.502" enable-background="new 0 0 123.566 106.502"
	 xml:space="preserve">
<path fill="#E0E0E0" stroke="#000000" stroke-width="2" d="M72.73,3.466H61.721v99.57H72.73V3.466z"/>
<path fill="#E0E0E0" stroke="#000000" stroke-width="2" d="M72.73,18.556h22.388L87.82,87.823H72.73V18.556z"/>
<path fill="#E0E0E0" stroke="#000000" stroke-width="2" d="M87.82,85.967l4.453-40.693l3.834-0.619l7.174-2.845l5.69-1.855v40.694
	l-6.309,2.474l-8.782,2.845H87.82z"/>
<path fill="#E0E0E0" stroke="#000000" stroke-width="2" d="M119.979,18.927h-11.008v84.109h11.008V18.927z"/>
<path fill="#E0E0E0" stroke="#000000" stroke-width="2" d="M50.713,3.466h11.009v99.57H50.713V3.466z"/>
<path fill="#E0E0E0" stroke="#000000" stroke-width="2" d="M50.713,18.556H28.325l7.298,69.267h15.09V18.556z"/>
<path fill="#E0E0E0" stroke="#000000" stroke-width="2" d="M35.623,85.967L31.17,45.274l-3.834-0.619l-7.174-2.845l-5.69-1.855
	v40.694l6.309,2.474l8.782,2.845H35.623z"/>
<path fill="#E0E0E0" stroke="#000000" stroke-width="2" d="M3.464,18.927h11.008v84.109H3.464V18.927z"/>
<path fill="#B2B2B2" d="M50.713,95.12H61.35v7.545H50.713V95.12z"/>
<path fill="#B2B2B2" d="M4.082,95.739h9.4v7.298h-9.4V95.739z"/>
<path fill="#B2B2B2" d="M35.252,85.967l-0.989-8.782l-19.791-2.597v6.927l6.309,2.226l8.782,2.227H35.252z"/>
<path fill="#B2B2B2" d="M34.634,78.422h16.079v9.153H35.87L34.634,78.422z"/>
<path fill="#B2B2B2" d="M72.482,95.12h-10.39v7.545h10.39V95.12z"/>
<path fill="#B2B2B2" d="M119.361,95.739h-9.771v7.298h9.771V95.739z"/>
<path fill="#B2B2B2" d="M88.191,85.967l0.989-8.782l19.791-2.597v6.927l-6.309,2.226l-8.782,2.227H88.191z"/>
<path fill="#B2B2B2" d="M88.809,78.422H72.73v9.153h14.843L88.809,78.422z"/>
<path stroke="#000000" stroke-width="2" d="M53.805,48.118h0.618l1.608,3.834h11.627l-0.248-4.7l3.464,5.689l-3.464,5.566l0.248-4.7
	H56.032l-1.608,3.834h-0.618l0.989-4.7L53.805,48.118z"/>
<path fill="#7F7F7F" d="M38.096,87.823h7.545v3.216h-0.989v0.866h-5.566v-0.866h-0.989V87.823z"/>
<path fill="#7F7F7F" d="M46.632,12.866h-1.608V8.413h1.608V6.311h4.081v9.153h-4.081V12.866z"/>
<path fill="#7F7F7F" d="M46.632,38.965h-1.608v-4.7h1.608v-2.227h4.081v9.524h-4.081V38.965z"/>
<path fill="#7F7F7F" d="M46.632,66.177h-1.608v-4.453h1.608v-2.227h4.081v9.524h-4.081V66.177z"/>
<path fill="#7F7F7F" d="M46.632,98.212h-1.608v-4.329h1.608v-2.226h4.081v9.152h-4.081V98.212z"/>
<path fill="#7F7F7F" d="M85.346,87.823h-7.545v3.216h0.989v0.866h5.565v-0.866h0.99V87.823z"/>
<path fill="#7F7F7F" d="M76.811,12.866h1.608V8.413h-1.608V6.311H72.73v9.153h4.081V12.866z"/>
<path fill="#7F7F7F" d="M76.811,38.965h1.608v-4.7h-1.608v-2.227H72.73v9.524h4.081V38.965z"/>
<path fill="#7F7F7F" d="M76.811,66.177h1.608v-4.453h-1.608v-2.227H72.73v9.524h4.081V66.177z"/>
<path fill="#7F7F7F" d="M76.811,98.212h1.608v-4.329h-1.608v-2.226H72.73v9.152h4.081V98.212z"/>
<path fill="#F0F0F0" d="M4.082,20.782h9.4v4.329h-9.4V20.782z"/>
<path fill="#F0F0F0" d="M51.332,5.94H61.35v6.309H51.332V5.94z"/>
<path fill="#F0F0F0" d="M46.879,12.866h3.216V8.413h-3.216V12.866z"/>
<path fill="#F0F0F0" d="M46.879,38.965h3.216v-4.7h-3.216V38.965z"/>
<path fill="#F0F0F0" d="M46.879,66.424h3.216v-4.7h-3.216V66.424z"/>
<path fill="#F0F0F0" d="M46.879,98.212h3.216v-4.329h-3.216V98.212z"/>
<path fill="#F0F0F0" d="M40.323,87.823h3.463v3.216h-3.463V87.823z"/>
<path fill="#F0F0F0" d="M39.705,24.865l3.71,1.236l1.608,3.835l-1.608,3.711l-3.71,1.236l-3.464-1.236l-1.607-3.711l1.607-3.835
	L39.705,24.865z"/>
<path fill="#F0F0F0" d="M28.696,20.411h21.646v4.7H29.314L28.696,20.411z"/>
<path fill="#F0F0F0" d="M119.361,20.782h-9.771v4.329h9.771V20.782z"/>
<path fill="#F0F0F0" d="M72.111,5.94H62.093v6.309h10.019V5.94z"/>
<path fill="#F0F0F0" d="M76.564,12.866h-3.463V8.413h3.463V12.866z"/>
<path fill="#F0F0F0" d="M76.564,38.965h-3.463v-4.7h3.463V38.965z"/>
<path fill="#F0F0F0" d="M76.564,66.424h-3.463v-4.7h3.463V66.424z"/>
<path fill="#F0F0F0" d="M76.564,98.212h-3.463v-4.329h3.463V98.212z"/>
<path fill="#F0F0F0" d="M83.12,87.823h-3.464v3.216h3.464V87.823z"/>
<path fill="#F0F0F0" d="M83.491,24.865l-3.464,1.236l-1.607,3.835l1.607,3.711l3.464,1.236l3.711-1.236l1.607-3.711l-1.607-3.835
	L83.491,24.865z"/>
<path fill="#F0F0F0" d="M94.499,20.411H73.101v4.7h21.026L94.499,20.411z"/>
<path fill="#7F7F7F" d="M39.705,26.472l2.474,0.866l0.989,2.598l-0.989,2.474l-2.474,0.989l-2.227-0.989l-0.989-2.474l0.989-2.598
	L39.705,26.472z"/>
<path fill="#7F7F7F" d="M83.491,26.472l-2.227,0.866l-0.989,2.598l0.989,2.474l2.227,0.989l2.474-0.989l0.989-2.474l-0.989-2.598
	L83.491,26.472z"/>
</svg>
