<?xml version="1.0" encoding="utf-8"?>
<!-- Generator: Adobe Illustrator 14.0.0, SVG Export Plug-In . SVG Version: 6.00 Build 43363)  -->
<!DOCTYPE svg PUBLIC "-//W3C//DTD SVG 1.1//EN" "http://www.w3.org/Graphics/SVG/1.1/DTD/svg11.dtd">
<svg version="1.1" id="图层_1" xmlns="http://www.w3.org/2000/svg" xmlns:xlink="http://www.w3.org/1999/xlink" x="0px" y="0px"
	 width="118.094px" height="106.502px" viewBox="0 0 118.094 106.502" enable-background="new 0 0 118.094 106.502"
	 xml:space="preserve">
<path fill="#657FB2" d="M3.313,59.049h13.845v-6.863h83.541v6.863h14.082v37.274h-14.082v6.863H17.158v-6.863H3.313V59.049z"/>
<path fill="#6B85B8" d="M3.313,60.824h14.081v-6.508h83.542v6.508h13.845v33.725h-13.845v6.153H17.395v-6.153H3.313V60.824z"/>
<path fill="#708ABD" d="M3.313,62.363h14.081v-5.562h83.542v5.562h13.845v30.411h-13.845v5.798H17.395v-5.798H3.313V62.363z"/>
<path fill="#758FC2" d="M3.313,64.138h14.081v-5.089h83.542v5.089h13.845v26.979h-13.845v5.206H17.395v-5.206H3.313V64.138z"/>
<path fill="#7A94C7" d="M3.313,65.794h14.081v-4.496h83.542v4.496h13.845v23.548h-13.845v4.497H17.395v-4.497H3.313V65.794z"/>
<path fill="#7F99CC" d="M3.313,67.57h14.081v-3.787h83.542v3.787h13.845v20.234h-13.845v3.786H17.395v-3.786H3.313V67.57z"/>
<path fill="#849ED1" d="M3.313,69.108h14.081v-3.195h83.542v3.195h13.845v16.921h-13.845v3.077H17.395v-3.077H3.313V69.108z"/>
<path fill="#89A3D6" d="M3.313,70.882h14.081v-2.484h83.542v2.484h13.845V84.49h-13.845v2.485H17.395V84.49H3.313V70.882z"/>
<path fill="#8EA8DB" d="M3.313,72.657h14.081v-2.012h83.542v2.012h13.845v10.059h-13.845v1.774H17.395v-1.774H3.313V72.657z"/>
<path fill="#93ADE0" d="M3.313,74.196h14.081v-1.064h83.542v1.064h13.845v6.745h-13.845v1.302H17.395v-1.302H3.313V74.196z"/>
<path fill="#98B2E5" d="M3.313,75.971h13.845v-0.592h83.541v0.592h14.082v3.432h-14.082v0.592H17.158v-0.592H3.313V75.971z"/>
<path fill="none" stroke="#000000" stroke-width="2" d="M17.158,96.323V59.049"/>
<path fill="none" stroke="#000000" stroke-width="2" d="M100.699,96.323V59.049"/>
<path fill="#657FB2" d="M77.507,52.186v1.775l-1.065,3.55l-2.484,3.077l-3.55,2.722l-4.261,1.774l-4.614,0.828h-4.97l-4.615-0.828
	l-4.26-1.774l-3.55-2.722l-2.485-3.077l-1.065-3.55v-1.775V28.993h9.112V3.316h18.696v25.678h9.111V52.186z"/>
<path fill="#6B85B8" d="M75.969,53.488v1.775l-1.065,3.076l-2.248,2.959l-3.077,2.248l-4.023,1.538l-4.26,0.828h-4.496l-4.26-0.828
	l-3.787-1.538l-3.313-2.248l-2.248-2.959l-1.065-3.076v-1.775V28.993h8.401V3.316h17.039v25.678h8.402V53.488z"/>
<path fill="#708ABD" d="M74.43,54.789v1.538l-1.064,2.959l-2.012,2.484l-2.958,2.012l-3.313,1.538l-4.023,0.592h-4.023l-3.787-0.592
	l-3.55-1.538l-2.958-2.012l-2.012-2.484l-1.065-2.959v-1.538V28.993h7.81V3.316h15.147v25.678h7.809V54.789z"/>
<path fill="#758FC2" d="M72.893,56.327v1.184l-1.184,2.604l-1.775,2.012l-2.367,2.012l-3.194,1.183l-3.55,0.592h-3.55l-3.55-0.592
	l-3.195-1.183l-2.367-2.012l-1.775-2.012l-0.947-2.604v-1.184V28.993h6.745V3.316H65.91v25.678h6.982V56.327z"/>
<path fill="#7A94C7" d="M71.117,57.747v1.065l-0.71,2.012l-1.775,2.012l-2.248,1.538l-2.604,1.184l-3.194,0.354h-3.077l-3.195-0.354
	l-2.604-1.184l-2.248-1.538l-1.538-2.012l-0.947-2.012v-1.065V28.993h6.035V3.316h12.07v25.678h6.035V57.747z"/>
<path fill="#7F99CC" d="M69.578,59.049v0.947l-0.709,1.774l-1.303,1.539l-2.012,1.301l-2.484,0.947l-2.722,0.354h-2.603
	l-2.722-0.354l-2.485-0.947l-1.775-1.301l-1.539-1.539l-0.71-1.774v-0.947V28.993h5.443V3.316h10.413v25.678h5.206V59.049z"/>
<path fill="#849ED1" d="M67.922,60.351v0.947l-0.592,1.301l-1.184,1.302l-1.774,0.947l-2.012,0.946l-2.248,0.118h-2.13l-2.249-0.118
	l-2.012-0.946l-1.775-0.947l-1.183-1.302l-0.592-1.301v-0.947V28.993h4.378V3.316h8.993v25.678h4.378V60.351z"/>
<path fill="#89A3D6" d="M66.146,62.008v0.354l-0.354,1.184l-0.946,0.828l-1.302,0.946l-1.538,0.474l-2.012,0.118h-1.894
	l-1.775-0.118l-1.775-0.474l-1.302-0.946l-0.947-0.828l-0.355-1.184v-0.354V28.993h3.55V3.316h7.101v25.678h3.549V62.008z"/>
<path fill="#8EA8DB" d="M64.609,63.31v0.236l-0.475,0.828l-0.591,0.474l-1.184,0.71l-1.065,0.236l-1.537,0.118h-1.42l-1.539-0.118
	l-1.065-0.236l-1.183-0.71l-0.592-0.474l-0.473-0.828V63.31V28.993h2.603V3.316h5.917v25.678h2.604V63.31z"/>
<path fill="#93ADE0" d="M63.07,64.611v0.237l-0.236,0.236l-0.71,0.474l-0.592,0.236l-0.946,0.118h-1.065h-0.947h-1.065l-0.947-0.118
	l-0.591-0.236l-0.71-0.474l-0.237-0.236v-0.237V28.993h2.012V3.316h4.023v25.678h2.012V64.611z"/>
<path fill="#98B2E5" d="M61.295,65.912h-0.473h-0.474h-0.354h-0.71h-0.473h-0.71h-0.592h-0.236h-0.474h-0.237V28.993h1.42V3.316
	h2.13v25.678h1.183V65.912z"/>
<path fill="none" stroke="#000000" stroke-width="2" d="M77.507,52.186h23.192v6.863h14.082v37.274h-14.082v6.863H17.158v-6.863
	H3.313V59.049h13.845v-6.863h23.429V28.993h9.112V3.316h18.696v25.678h9.111V52.186"/>
<path fill="#7F99CC" stroke="#000000" stroke-width="2" d="M3.313,5.682v20.826H51l1.184-1.183V6.865L51,5.682H3.313z"/>
<path fill="#728CBF" d="M5.562,7.93v16.33h43.191l0.947-0.946V8.877L48.752,7.93H5.562z"/>
</svg>
