<?xml version="1.0" encoding="utf-8"?>
<!-- Generator: Adobe Illustrator 14.0.0, SVG Export Plug-In . SVG Version: 6.00 Build 43363)  -->
<!DOCTYPE svg PUBLIC "-//W3C//DTD SVG 1.1//EN" "http://www.w3.org/Graphics/SVG/1.1/DTD/svg11.dtd">
<svg version="1.1" id="图层_1" xmlns="http://www.w3.org/2000/svg" xmlns:xlink="http://www.w3.org/1999/xlink" x="0px" y="0px"
	 width="106.927px" height="106.502px" viewBox="0 0 106.927 106.502" enable-background="new 0 0 106.927 106.502"
	 xml:space="preserve">
<path fill="#999999" d="M14.664,14.451l5.673,5.887L8.884,32.005l-5.887-5.78L14.664,14.451z"/>
<path fill="#CCCCCC" d="M14.664,14.451l5.673,5.887l11.667-11.56l-5.78-5.78L14.664,14.451z"/>
<path fill="none" stroke="#000000" stroke-width="2" d="M26.224,2.998l5.78,5.78L8.884,32.005l-5.887-5.78L26.224,2.998"/>
<path fill="#7F7F7F" d="M5.459,66.47h98.364v36.927H5.459V66.47z"/>
<path fill="#8C8C8C" d="M5.459,68.075h98.364v33.716H5.459V68.075z"/>
<path fill="#999999" d="M5.459,69.788h98.364v30.397H5.459V69.788z"/>
<path fill="#A6A6A6" d="M5.459,71.394h98.364v26.973H5.459V71.394z"/>
<path fill="#B2B2B2" d="M5.459,72.999h98.364v23.762H5.459V72.999z"/>
<path fill="#BFBFBF" d="M5.459,74.819h98.364v20.337H5.459V74.819z"/>
<path fill="#CCCCCC" d="M5.459,76.424h98.364V93.55H5.459V76.424z"/>
<path fill="#D9D9D9" d="M5.459,78.03h98.364v13.914H5.459V78.03z"/>
<path fill="#E5E5E5" d="M5.459,79.635h98.364v10.703H5.459V79.635z"/>
<path fill="#F2F2F2" d="M5.459,81.24h98.364v7.492H5.459V81.24z"/>
<path fill="#FFFFFF" d="M5.459,82.846h98.364v4.281H5.459V82.846z"/>
<path fill="#666666" d="M22.691,66.47h1.07v36.927h-1.07V66.47z"/>
<path fill="#666666" d="M94.618,66.47h0.964v36.927h-0.964V66.47z"/>
<path fill="#666666" d="M46.346,103.397l8.242-6.208l8.135,6.208H46.346z"/>
<path fill="#4C4C4C" d="M49.771,100.828l4.816-3.64l4.71,3.64H49.771z"/>
<path fill="none" stroke="#B2B2B2" stroke-width="2" d="M15.841,81.454l1.284,1.178l0.535,1.498v1.606l-0.535,1.605l-1.284,1.177
	l-1.606,0.643H12.63l-1.391-0.643"/>
<path fill="none" stroke="#4C4C4C" stroke-width="2" d="M11.239,88.519l-1.178-1.177L9.419,85.95v-1.82l0.642-1.498l1.178-1.178
	l1.391-0.642h1.605l1.606,0.642"/>
<path fill="none" stroke="#B2B2B2" stroke-width="2" d="M102.003,81.454l1.284,1.178l0.535,1.498v1.606l-0.535,1.605l-1.284,1.177
	l-1.605,0.643h-1.605l-1.392-0.643"/>
<path fill="none" stroke="#4C4C4C" stroke-width="2" d="M97.401,88.519l-1.178-1.177l-0.642-1.392v-1.82l0.642-1.498l1.178-1.178
	l1.392-0.642h1.605l1.605,0.642"/>
<path fill="none" stroke="#000000" stroke-width="2" d="M5.459,66.47h98.364v36.927H5.459V66.47"/>
<path fill="#7F7F7F" d="M31.468,5.032L94.19,68.075H42.278L5.459,31.256L31.468,5.032z"/>
<path fill="#8C8C8C" d="M30.398,6.209l63.578,63.579h-47.63L6.636,29.971L30.398,6.209z"/>
<path fill="#999999" d="M29.22,7.387l64.007,64.007L50.413,71.5L7.6,28.794L29.22,7.387z"/>
<path fill="#A6A6A6" d="M28.043,8.457l64.542,64.542H54.266L8.884,27.616L28.043,8.457z"/>
<path fill="#B2B2B2" d="M26.759,9.635l65.183,65.184H58.227L10.061,26.546L26.759,9.635z"/>
<path fill="#BFBFBF" d="M25.795,10.812l65.611,65.612H62.293L11.239,25.368L25.795,10.812z"/>
<path fill="#CCCCCC" d="M24.511,11.99l66.041,66.04H66.147L12.416,24.192L24.511,11.99z"/>
<path fill="#D9D9D9" d="M23.333,13.06l66.575,66.575H70.214L13.486,22.907L23.333,13.06z"/>
<path fill="#E5E5E5" d="M22.156,14.238L89.374,81.24l-15.199,0.214L14.664,21.73L22.156,14.238z"/>
<path fill="#F2F2F2" d="M21.086,15.414l67.431,67.432H78.243L15.841,20.659L21.086,15.414z"/>
<path fill="#FFFFFF" d="M19.908,16.699L86.27,83.06h-5.78L16.912,19.482L19.908,16.699z"/>
<path d="M36.927,10.384l0.535,0.856L11.453,37.249L10.596,36.5L36.927,10.384z"/>
<path fill="#666666" d="M48.808,22.157l0.749,0.75L23.333,48.916l-0.642-0.535L48.808,22.157z"/>
<path fill="none" stroke="#000000" stroke-width="2" d="M40.673,66.47L5.459,31.256L31.468,5.032L92.584,66.47"/>
<path fill="none" stroke="#B2B2B2" stroke-width="2" d="M32.217,26.225l1.285,1.178l0.535,1.392V30.4l-0.535,1.605l-1.285,1.07
	l-1.392,0.535H29.22l-1.605-0.535"/>
<path fill="none" stroke="#4C4C4C" stroke-width="2" d="M27.615,33.075l-1.07-1.07L25.795,30.4v-1.605l0.535-1.392l1.284-1.178
	l1.605-0.642h1.605l1.392,0.642"/>
<path fill="none" stroke="#000000" stroke-width="2" d="M10.489,36.286V26.011h10.597V15.308h10.382V5.032"/>
<path fill="none" stroke="#000000" stroke-width="2" d="M36.713,10.17H26.331v10.703H15.734v10.383H5.78"/>
<path fill="none" stroke="#000000" stroke-width="2" d="M29.006,7.601v10.275H18.731v10.703H7.813v5.031h5.245V23.549h10.704V12.632
	h10.275V7.601H29.006"/>
</svg>
