<?xml version="1.0" encoding="utf-8"?>
<!-- Generator: Adobe Illustrator 14.0.0, SVG Export Plug-In . SVG Version: 6.00 Build 43363)  -->
<!DOCTYPE svg PUBLIC "-//W3C//DTD SVG 1.1//EN" "http://www.w3.org/Graphics/SVG/1.1/DTD/svg11.dtd">
<svg version="1.1" id="图层_1" xmlns="http://www.w3.org/2000/svg" xmlns:xlink="http://www.w3.org/1999/xlink" x="0px" y="0px"
	 width="93.816px" height="106.502px" viewBox="0 0 93.816 106.502" enable-background="new 0 0 93.816 106.502"
	 xml:space="preserve">
<path fill="#FFFFFF" stroke="#000000" stroke-width="2" d="M90.832,38.806V19.083l-44.776-0.106v1.919h43.069V37.1h-9.061v1.706
	H90.832z"/>
<path fill="#0000FF" stroke="#000000" stroke-width="2" d="M11.94,71.109h14.286v9.062H11.94V71.109z"/>
<path fill="#0000FF" stroke="#000000" stroke-width="2" d="M6.503,47.761V67.59l3.625,3.519h17.91l3.518-3.519l0.107-19.829h-3.625
	v18.017l-1.812,1.813H11.94l-1.813-1.813V47.761H6.503z"/>
<path fill="#0000FF" stroke="#000000" stroke-width="2" d="M10.128,80.17v3.518L8.422,85.5v10.768l1.706,5.438h18.017l1.812-5.438
	V85.5l-1.812-1.813V80.17H10.128z"/>
<path stroke="#000000" stroke-width="2" d="M8.422,96.268H6.61V85.5h1.813V96.268z"/>
<path stroke="#000000" stroke-width="2" d="M31.663,96.268h-1.706V85.5h1.706V96.268z"/>
<path fill="#0000FF" stroke="#000000" stroke-width="2" d="M3.092,78.251H6.61v25.159H3.092V78.251z"/>
<path fill="#0000FF" stroke="#000000" stroke-width="2" d="M31.77,78.251h3.518v25.159H31.77V78.251z"/>
<path fill="#0000FF" stroke="#000000" stroke-width="2" d="M4.691,46.055h28.784v1.706H4.691V46.055z"/>
<path fill="#7F7F7F" stroke="#000000" stroke-width="2" d="M13.646,62.154h3.625v5.437h-3.625V62.154z"/>
<path fill="#7F7F7F" stroke="#000000" stroke-width="2" d="M20.896,62.154h3.625v5.437h-3.625V62.154z"/>
<path stroke="#000000" stroke-width="2" d="M11.94,60.341h14.286v1.813H11.94V60.341z"/>
<path fill="#7F7F7F" stroke="#000000" stroke-width="2" d="M15.565,47.761h7.036v12.58h-7.036V47.761z"/>
<path fill="#0000FF" stroke="#000000" stroke-width="2" d="M2.985,24.52h32.196v21.535H2.985V24.52z"/>
<circle stroke="#000000" stroke-width="2" cx="13.646" cy="42.43" r="1.706"/>
<circle stroke="#000000" stroke-width="2" cx="24.414" cy="42.43" r="1.706"/>
<circle stroke="#000000" stroke-width="2" cx="16.418" cy="37.953" r="0.853"/>
<path fill="#0000FF" stroke="#000000" stroke-width="2" d="M36.993,44.242l11.94,1.813l20.469-0.106V29.851H48.933l-11.94,1.813
	V44.242z"/>
<path stroke="#000000" stroke-width="2" d="M35.181,31.663h1.812v12.579h-1.812V31.663z"/>
<path fill="none" stroke="#000000" stroke-width="2" d="M47.761,46.055V29.851"/>
<path fill="#FFFFFF" stroke="#7F7F7F" stroke-width="2" d="M49.574,31.663h16.098v7.143H49.574V31.663z"/>
<path fill="#0000FF" stroke="#000000" stroke-width="2" d="M72.92,29.851h7.144v16.204H72.92V29.851z"/>
<path fill="none" stroke="#000000" stroke-width="2" d="M71.109,24.52v26.866"/>
<path fill="#7F7F7F" stroke="#7F7F7F" stroke-width="2" d="M72.92,26.226h3.625v1.813H72.92V26.226z"/>
<path fill="#7F7F7F" stroke="#7F7F7F" stroke-width="2" d="M72.92,37.1h3.625v1.706H72.92V37.1z"/>
<path fill="#7F7F7F" stroke="#7F7F7F" stroke-width="2" d="M72.92,47.761h3.625v1.813H72.92V47.761z"/>
<path fill="#0000FF" stroke="#000000" stroke-width="2" d="M69.296,24.52h3.624v26.866h-3.624V24.52z"/>
<path stroke="#000000" stroke-width="2" d="M8.315,22.707h37.74V2.985H8.315V22.707z"/>
<path fill="#0000FF" stroke="#000000" stroke-width="2" d="M11.94,22.707h14.286v1.813H11.94V22.707z"/>
<path fill="#0000FF" stroke="#0000FF" stroke-width="2" d="M40.618,8.316h3.518v8.955h-3.518V8.316z"/>
<path stroke="#000000" stroke-width="2" d="M53.198,37.1h8.956v-0.106h-8.956V37.1z"/>
</svg>
