<?xml version="1.0" encoding="utf-8"?>
<!-- Generator: Adobe Illustrator 14.0.0, SVG Export Plug-In . SVG Version: 6.00 Build 43363)  -->
<!DOCTYPE svg PUBLIC "-//W3C//DTD SVG 1.1//EN" "http://www.w3.org/Graphics/SVG/1.1/DTD/svg11.dtd">
<svg version="1.1" id="图层_1" xmlns="http://www.w3.org/2000/svg" xmlns:xlink="http://www.w3.org/1999/xlink" x="0px" y="0px"
	 width="63.007px" height="106.502px" viewBox="0 0 63.007 106.502" enable-background="new 0 0 63.007 106.502"
	 xml:space="preserve">
<path fill="#996600" d="M12.047,101.279l11.407,2.132h9.275l9.062-2.132l2.132-4.69l4.691-2.239l2.132-4.584V66.844l-2.132-2.239
	l-4.691-2.132l-2.132-2.452l-2.239-13.646V32.729l-2.451-2.452l-6.823-2.238h-6.823l-6.823,2.238l-2.239,2.452v13.646l-2.346,13.646
	l-2.239,2.452l-4.691,2.132l-2.132,2.239v22.921l2.132,4.584l4.691,2.239L12.047,101.279z"/>
<path fill="#A3700A" d="M13.753,101.279l10.127,2.132h7.996l8.208-2.132l2.025-4.69l4.051-2.346l2.026-4.478V66.844l-2.026-2.239
	l-4.051-2.345l-2.025-2.239l-1.919-13.646V32.729l-2.239-2.452l-6.076-2.238h-5.97l-6.077,2.238l-2.025,2.452v13.646l-2.025,13.646
	l-2.026,2.239l-3.944,2.345l-2.026,2.239v22.921l2.026,4.478l3.944,2.346L13.753,101.279z"/>
<path fill="#AB7812" d="M15.565,101.279l8.742,2.132h6.93l7.036-2.132l1.813-4.69l3.518-2.346l1.813-4.478V66.844l-1.813-2.239
	l-3.518-2.345l-1.813-2.239l-1.705-13.646V32.729l-1.706-2.452l-5.437-2.238h-5.117l-5.331,2.238l-1.813,2.452v13.646l-1.599,13.646
	l-1.812,2.239l-3.519,2.345l-1.706,2.239v22.921l1.706,4.478l3.519,2.346L15.565,101.279z"/>
<path fill="#B5821C" d="M17.165,101.279l7.463,2.132h6.077l5.864-2.132l1.599-4.69l2.985-2.346l1.386-4.478V66.844l-1.386-2.239
	l-2.985-2.345l-1.599-2.239l-1.492-13.646V32.729l-1.387-2.452l-4.584-2.238h-4.478l-4.371,2.238l-1.386,2.452v13.646l-1.706,13.646
	l-1.386,2.239l-2.985,2.345l-1.386,2.239v22.921l1.386,4.478l2.985,2.346L17.165,101.279z"/>
<path fill="#BF8C26" d="M18.977,101.279l6.077,2.132h4.797l5.011-2.132l1.279-4.69l2.345-2.346l1.279-4.478V66.844l-1.279-2.239
	l-2.345-2.345l-1.279-2.239l-1.173-13.646V32.729l-1.172-2.452l-3.839-2.238h-3.625l-3.625,2.238l-1.173,2.452v13.646l-1.279,13.646
	l-1.173,2.239l-2.559,2.345l-1.279,2.239v22.921l1.279,4.478l2.559,2.346L18.977,101.279z"/>
<path fill="#C99630" d="M20.683,101.279l4.797,2.132h3.838l3.731-2.132l1.066-4.69l2.025-2.346l0.746-4.478V66.844l-0.746-2.239
	l-2.025-2.345l-1.066-2.239l-0.746-13.646V32.729l-1.066-2.452l-2.985-2.238H25.48l-2.878,2.238l-0.959,2.452v13.646l-0.959,13.646
	L19.83,62.26l-2.026,2.345l-0.959,2.239v22.921l0.959,4.478l2.026,2.346L20.683,101.279z"/>
<path fill="#D19E38" d="M22.495,101.279l3.305,2.132h2.878l2.879-2.132l0.532-4.69l1.387-2.346l0.853-4.478V66.844l-0.853-2.239
	l-1.387-2.345l-0.532-2.239l-0.853-13.646V32.729l-0.64-2.452l-2.132-2.238H25.8l-1.919,2.238l-0.853,2.452v13.646l-0.533,13.646
	l-0.853,2.239l-1.386,2.345l-0.64,2.239v22.921l0.64,4.478l1.386,2.346L22.495,101.279z"/>
<path fill="#DBA842" d="M24.308,101.279l1.919,2.132h1.812l1.706-2.132l0.32-4.69l1.066-2.346l0.427-4.478V66.844l-1.493-4.584
	l-0.32-2.239l-0.426-13.646V32.729l-0.427-2.452l-1.386-2.238h-1.279l-1.173,2.238l-0.426,2.452v13.646l-0.32,13.646l-1.493,4.584
	l-0.32,2.239v22.921l0.32,4.478l0.853,2.346L24.308,101.279z"/>
<ellipse fill="#E5B24C" cx="26.973" cy="65.671" rx="1.706" ry="37.633"/>
<path fill="none" stroke="#000000" stroke-width="2" d="M12.047,101.279l11.407,2.132h9.275l9.062-2.132l2.132-4.69l4.691-2.239
	l2.132-4.584V66.844l-2.132-2.239l-4.691-2.132l-2.132-2.452l-2.239-13.646V32.729l-2.451-2.452l-6.823-2.238h-6.823l-6.823,2.238
	l-2.239,2.452v13.646l-2.346,13.646l-2.239,2.452l-4.691,2.132l-2.132,2.239v22.921l2.132,4.584l4.691,2.239L12.047,101.279"/>
<path fill="#7F7F7F" d="M21.216,2.985h11.301l1.812,1.813v24.521H19.403V4.797L21.216,2.985z"/>
<path fill="#919191" d="M22.495,2.985h9.062l1.173,1.813v24.521H21.002V4.797L22.495,2.985z"/>
<path fill="#A6A6A6" d="M23.668,2.985h6.61l0.959,1.813v24.521h-8.636V4.797L23.668,2.985z"/>
<path fill="#B8B8B8" d="M24.84,2.985h4.265l0.64,1.813v24.521h-5.437V4.797L24.84,2.985z"/>
<path fill="#CCCCCC" d="M26.12,2.985h1.493l0.426,1.813v24.521H25.8V4.797L26.12,2.985z"/>
<path fill="none" stroke="#000000" stroke-width="2" d="M21.216,2.985h11.301l1.812,1.813v24.521H19.403V4.797L21.216,2.985"/>
<path fill="#996600" d="M58.636,93.176h-13.54l-3.944-3.624l-2.238-6.396v-7.463l2.238-6.184l3.944-3.625h13.54l0.852,3.625
	l0.533,6.184v7.463l-0.533,6.396L58.636,93.176z"/>
<path fill="#A16E08" d="M58.636,91.044h-14.5l-3.411-3.092l-1.812-5.437v-6.184l1.812-5.438l3.411-2.984h14.5l0.852,2.984
	l0.533,5.438v6.184l-0.533,5.437L58.636,91.044z"/>
<path fill="#AB7812" d="M58.636,89.019H43.177l-2.879-2.665l-1.385-4.371v-5.011l1.385-4.478l2.879-2.559h15.459l0.852,2.559
	l0.533,4.478v5.011l-0.533,4.371L58.636,89.019z"/>
<path fill="#B27F19" d="M58.636,86.78H42.111l-2.025-1.813l-1.172-3.624v-3.838l1.172-3.412l2.025-2.025h16.525l0.852,2.025
	l0.533,3.412v3.838l-0.533,3.624L58.636,86.78z"/>
<path fill="#BA8721" d="M58.636,84.754H40.939l-1.174-1.386l-0.852-2.452v-2.771l0.852-2.666l1.174-1.386h17.697l0.852,1.386
	l0.533,2.666v2.771l-0.533,2.452L58.636,84.754z"/>
<path fill="#C4912B" d="M58.636,82.729H39.979l-0.64-0.96l-0.426-1.492v-1.813l0.426-1.386l0.64-0.746h18.657l0.852,0.746
	l0.533,1.386v1.813l-0.533,1.492L58.636,82.729z"/>
<path fill="#CC9933" d="M58.636,80.597H38.914v-0.32v-0.533v-0.64v-0.319v-0.427h19.723l0.852,0.427l0.533,0.319v0.64l-0.533,0.533
	L58.636,80.597z"/>
<path fill="none" stroke="#000000" stroke-width="2" d="M49.148,65.884h9.488l0.852,3.625l0.533,6.184v7.463l-0.533,6.396
	l-0.852,3.624h-9.488"/>
<path fill="#7F7F7F" stroke="#000000" stroke-width="2" d="M34.329,26.439V8.103l5.224,7.462v4.052L34.329,26.439z"/>
<path fill="#B2B2B2" stroke="#000000" stroke-width="2" d="M7.57,48.614l8.422-28.571h19.509v-6.29H15.033l-5.864,4.052l-3.412,6.29
	l-1.172,9.168l0.533,15.352H7.57z"/>
<path fill="#E5E5E5" d="M6.93,33.262l1.066-6.823l2.772-6.396l3.412-2.878l5.224-0.96l14.286-1.173H14.393l-4.584,3.412
	l-3.412,6.184l-0.64,8.635l0.213,13.113L6.93,33.262z"/>
<ellipse fill="#663300" cx="57.676" cy="79.531" rx="1.706" ry="9.595"/>
<path fill="#CCCCCC" d="M18.231,47.974h17.271l1.066,13.859H17.165L18.231,47.974z"/>
<path fill="#C2C2C2" d="M35.927,52.772l0.641,9.062H17.165l0.427-5.224L35.927,52.772z"/>
<path fill="none" stroke="#999999" stroke-width="2" d="M17.804,59.488h17.697"/>
<path fill="none" stroke="#999999" stroke-width="2" d="M18.871,52.026h15.991"/>
<path fill="none" stroke="#999999" stroke-width="2" d="M18.231,55.437h16.631"/>
</svg>
