<?xml version="1.0" encoding="utf-8"?>
<!-- Generator: Adobe Illustrator 14.0.0, SVG Export Plug-In . SVG Version: 6.00 Build 43363)  -->
<!DOCTYPE svg PUBLIC "-//W3C//DTD SVG 1.1//EN" "http://www.w3.org/Graphics/SVG/1.1/DTD/svg11.dtd">
<svg version="1.1" id="图层_1" xmlns="http://www.w3.org/2000/svg" xmlns:xlink="http://www.w3.org/1999/xlink" x="0px" y="0px"
	 width="80.914px" height="106.502px" viewBox="0 0 80.914 106.502" enable-background="new 0 0 80.914 106.502"
	 xml:space="preserve">
<path fill="#191919" stroke="#000000" stroke-width="2" d="M26.118,44.35h28.677v2.452H26.118V44.35z"/>
<path fill="#999999" stroke="#000000" stroke-width="2" d="M61.191,12.368H76.33v16.097H61.191V12.368z"/>
<path fill="#666666" d="M62.044,23.668h13.432v4.051H62.044V23.668z"/>
<path fill="#B2B2B2" d="M62.044,16.419h13.432v-2.452H62.044V16.419z"/>
<path fill="#999999" stroke="#000000" stroke-width="2" d="M70.679,9.383h0.854v22.28h-0.854V9.383z"/>
<path fill="#999999" stroke="#000000" stroke-width="2" d="M68.228,2.987h2.451v35.18h-2.451V2.987z"/>
<path fill="#999999" stroke="#000000" stroke-width="2" d="M66.095,2.987h2.133v35.18h-2.133V2.987z"/>
<path fill="#999999" stroke="#000000" stroke-width="2" d="M59.592,9.383h1.599v22.28h-1.599V9.383z"/>
<path fill="#666666" d="M66.416,26.12h1.492v11.62h-1.492V26.12z"/>
<path fill="#666666" d="M68.654,26.12h1.6v11.62h-1.6V26.12z"/>
<path fill="#666666" d="M60.019,21.216h0.853v10.128h-0.853V21.216z"/>
<path fill="#B2B2B2" d="M66.416,14.82h1.492V5.758h-1.492V14.82z"/>
<path fill="#B2B2B2" d="M68.654,14.82h1.6V5.758h-1.6V14.82z"/>
<path fill="#B2B2B2" d="M60.019,18.871h0.853v-7.463h-0.853V18.871z"/>
<path fill="#4C4C4C" stroke="#000000" stroke-width="2" d="M70.679,6.931h0.854V4.586h-0.854V6.931z"/>
<path fill="#4C4C4C" stroke="#000000" stroke-width="2" d="M70.679,36.568h0.854v-2.452h-0.854V36.568z"/>
<path fill="#4C4C4C" stroke="#000000" stroke-width="2" d="M70.679,15.673h0.854v-2.452h-0.854V15.673z"/>
<path fill="#4C4C4C" stroke="#000000" stroke-width="2" d="M70.679,27.719h0.854v-2.452h-0.854V27.719z"/>
<path fill="#999999" stroke="#000000" stroke-width="2" d="M21.214,6.185h38.378V44.35H21.214V6.185z"/>
<path fill="#191919" stroke="#000000" stroke-width="2" d="M24.093,7.784h0.213l0.64,0.319l0.32,0.853L24.732,9.81l-0.426,0.213
	h-0.533l-0.746-0.64l-0.213-0.427l0.427-0.853l0.533-0.319H24.093z"/>
<path fill="#191919" stroke="#000000" stroke-width="2" d="M56.821,40.299l0.853,0.426l0.32,0.854l-0.32,0.853l-0.639,0.319h-0.428
	l-0.852-0.64l-0.107-0.532l0.32-0.854L56.821,40.299z"/>
<path fill="#999999" stroke="#000000" stroke-width="2" d="M76.33,100.211h-7.249V62.046h7.249V100.211z"/>
<path fill="#999999" stroke="#000000" stroke-width="2" d="M29.316,60.448v4.797l-0.853,2.771l-2.132,2.346l-2.878,1.065
	l-0.64,0.107l-10.98,0.746v17.696l3.412,0.213l3.518,0.214l3.411,0.319l3.092,0.533l2.452,1.919l1.386,2.665l0.213,1.173v6.396
	h22.281v-6.396l0.853-2.879l2.132-2.238l2.879-1.066l0.533-0.106l11.087-0.746V72.281l-3.519-0.214l-3.411-0.213l-3.411-0.319
	l-3.092-0.64l-2.451-1.813l-1.493-2.665l-0.106-1.173v-4.797H29.316z"/>
<path fill="#999999" stroke="#000000" stroke-width="2" d="M11.833,100.211H4.584V62.046h7.249V100.211z"/>
<path fill="#B2B2B2" d="M69.507,65.244h6.396v6.609h-6.396V65.244z"/>
<path fill="#B2B2B2" d="M5.01,65.244h6.396v6.609H5.01V65.244z"/>
<ellipse fill="#B2B2B2" cx="40.403" cy="77.824" rx="17.59" ry="9.594"/>
<path fill="#4C4C4C" stroke="#000000" stroke-width="2" d="M22.067,62.046h5.65V45.202h-5.65V62.046z"/>
<path fill="#4C4C4C" stroke="#000000" stroke-width="2" d="M32.515,62.046h5.65V45.202h-5.65V62.046z"/>
<path fill="#4C4C4C" stroke="#000000" stroke-width="2" d="M42.75,62.046h5.649V45.202H42.75V62.046z"/>
<path fill="#4C4C4C" stroke="#000000" stroke-width="2" d="M53.197,62.046h5.649V45.202h-5.649V62.046z"/>
<path fill="#999999" d="M19.615,46.802h41.576v4.797H19.615V46.802z"/>
<path fill="#999999" stroke="#000000" stroke-width="2" d="M19.615,51.599h41.576v8.849H19.615V51.599z"/>
<path fill="#B2B2B2" d="M24.413,46.802h31.981v4.797H24.413V46.802z"/>
<path fill="#B2B2B2" d="M24.413,51.599h31.981v8.849H24.413V51.599z"/>
<path fill="#CCCCCC" d="M31.662,46.802h17.483v4.797H31.662V46.802z"/>
<path fill="#CCCCCC" d="M31.662,51.599h17.483v8.849H31.662V51.599z"/>
<path fill="#E5E5E5" d="M36.566,46.802h7.782v4.797h-7.782V46.802z"/>
<path fill="#E5E5E5" d="M36.566,51.599h7.782v8.849h-7.782V51.599z"/>
<path fill="#FFFFFF" d="M39.764,46.802h1.386v4.797h-1.386V46.802z"/>
<path fill="#FFFFFF" d="M39.764,51.599h1.386v8.849h-1.386V51.599z"/>
<path fill="none" stroke="#000000" stroke-width="2" d="M19.615,46.802h41.576v4.797H19.615V46.802"/>
<path fill="#CCCCCC" stroke="#7F7F7F" stroke-width="2" d="M46.8,9.383h9.594v4.584H46.8V9.383z"/>
<path fill="#CCCCCC" stroke="#7F7F7F" stroke-width="2" d="M35.713,54.051h9.488v4.797h-9.488V54.051z"/>
<path fill="#4C4C4C" stroke="#000000" stroke-width="2" d="M76.33,69.082h1.6v23.88h-1.6V69.082z"/>
<path fill="#4C4C4C" stroke="#000000" stroke-width="2" d="M2.985,69.082h1.599v23.88H2.985V69.082z"/>
<path fill="#666666" d="M51.597,92.962l5.65-8.636h10.98v4.798l-11.834,0.64L51.597,92.962z"/>
<path fill="#666666" d="M29.316,92.962l-5.65-8.636H12.58v4.798l11.833,0.64L29.316,92.962z"/>
<path fill="#666666" d="M5.01,87.525h6.396v12.26H5.01V87.525z"/>
<path fill="#666666" d="M69.507,87.525h6.396v12.26h-6.396V87.525z"/>
<path fill="#666666" d="M50.744,95.413v7.25H30.063v-7.25l1.066,0.32l1.279,0.319l1.172,0.32l1.386,0.213l1.279,0.214l1.386,0.106
	l1.492,0.106h1.386h1.386l1.386-0.106l1.386-0.106l1.279-0.214l1.279-0.213l1.279-0.32l1.173-0.319L50.744,95.413z"/>
<path fill="#333333" stroke="#000000" stroke-width="2" d="M39.764,81.128h1.386V70.681h-1.386V81.128z"/>
<path fill="#333333" stroke="#000000" stroke-width="2" d="M58.846,86.779H22.067l-2.345-2.025l-0.107-0.427l1.599-2.238
	l0.853-0.106h36.779l2.345,1.812v0.533l-1.918,2.346L58.846,86.779z"/>
<path fill="#999999" stroke="#000000" stroke-width="2" d="M38.165,73.133h4.585v2.346h-4.585V73.133z"/>
<path fill="#999999" stroke="#000000" stroke-width="2" d="M37.312,79.53h6.289v1.599h-6.289V79.53z"/>
<path fill="#666666" stroke="#000000" stroke-width="2" d="M37.312,75.479h6.289v3.198h-6.289V75.479z"/>
<path fill="#666666" stroke="#000000" stroke-width="2" d="M35.713,81.128h9.488v6.396h-9.488V81.128z"/>
<path fill="#990000" stroke="#000000" stroke-width="2" d="M45.201,68.23h1.6l-5.65,2.451h-1.386l-5.65-2.451h1.599l4.051,1.599
	V68.23h1.386v1.599L45.201,68.23z"/>
<path fill="#FF0000" stroke="#000000" stroke-width="2" d="M31.662,67.483h17.483v0.747H31.662V67.483z"/>
</svg>
