<?xml version="1.0" encoding="utf-8"?>
<!-- Generator: Adobe Illustrator 14.0.0, SVG Export Plug-In . SVG Version: 6.00 Build 43363)  -->
<!DOCTYPE svg PUBLIC "-//W3C//DTD SVG 1.1//EN" "http://www.w3.org/Graphics/SVG/1.1/DTD/svg11.dtd">
<svg version="1.1" id="图层_1" xmlns="http://www.w3.org/2000/svg" xmlns:xlink="http://www.w3.org/1999/xlink" x="0px" y="0px"
	 width="93.924px" height="106.502px" viewBox="0 0 93.924 106.502" enable-background="new 0 0 93.924 106.502"
	 xml:space="preserve">
<path fill="#B2E5E5" stroke="#000000" stroke-width="2" d="M19.723,44.776h16.737v58.635H19.723V44.776z"/>
<path fill="#B2E5E5" stroke="#000000" stroke-width="2" d="M11.302,32.303L2.986,23.88V11.301l8.315-8.316h33.475l8.423,8.316V23.88
	l-8.423,8.423h-8.315v12.473H19.723V32.303H11.302z"/>
<path fill="none" stroke="#000000" stroke-width="2" d="M7.143,28.038V7.143"/>
<path fill="none" stroke="#000000" stroke-width="2" d="M11.302,32.303V2.985"/>
<path fill="none" stroke="#000000" stroke-width="2" d="M44.776,32.303V2.985"/>
<path fill="none" stroke="#000000" stroke-width="2" d="M49.041,28.038V7.143"/>
<path fill="none" stroke="#000000" stroke-width="2" d="M11.302,17.59h33.475"/>
<path fill="none" stroke="#000000" stroke-width="2" d="M11.302,10.341h33.475"/>
<path fill="none" stroke="#000000" stroke-width="2" d="M11.302,24.947h33.475"/>
<path fill="none" stroke="#000000" stroke-width="2" d="M19.723,32.303h16.737"/>
<path fill="none" stroke="#000000" stroke-width="2" d="M28.039,44.776v58.635"/>
<path fill="none" stroke="#000000" stroke-width="2" d="M23.882,44.776v58.635"/>
<path fill="none" stroke="#000000" stroke-width="2" d="M32.303,44.776v58.635"/>
<path fill="#B2E5E5" stroke="#000000" stroke-width="2" d="M7.143,95.095H2.986V65.778h4.157v4.158h71.215l8.315-8.315h4.158v37.633
	h-4.158l-8.315-8.422H7.143V95.095z"/>
<path fill="none" stroke="#000000" stroke-width="2" d="M7.143,90.831V69.936"/>
<path fill="none" stroke="#000000" stroke-width="2" d="M78.358,90.831V69.936"/>
<path fill="none" stroke="#000000" stroke-width="2" d="M86.674,99.253V61.62"/>
<path fill="none" stroke="#000000" stroke-width="2" d="M7.143,69.936h71.215l8.315-8.315h4.158"/>
<path fill="none" stroke="#000000" stroke-width="2" d="M7.143,90.831h71.215l8.315,8.422h4.158"/>
<path fill="none" stroke="#000000" stroke-width="2" d="M7.143,74.093h71.215l8.315-4.157h4.158"/>
<path fill="none" stroke="#000000" stroke-width="2" d="M7.143,86.673h71.215l8.315,4.158h4.158"/>
<path fill="none" stroke="#000000" stroke-width="2" d="M2.986,80.383h87.846"/>
<path fill="none" stroke="#000000" stroke-width="2" d="M7.143,90.831H2.986"/>
<path fill="none" stroke="#000000" stroke-width="2" d="M7.143,69.936H2.986"/>
</svg>
