<?xml version="1.0" encoding="utf-8"?>
<!-- Generator: Adobe Illustrator 14.0.0, SVG Export Plug-In . SVG Version: 6.00 Build 43363)  -->
<!DOCTYPE svg PUBLIC "-//W3C//DTD SVG 1.1//EN" "http://www.w3.org/Graphics/SVG/1.1/DTD/svg11.dtd">
<svg version="1.1" id="图层_1" xmlns="http://www.w3.org/2000/svg" xmlns:xlink="http://www.w3.org/1999/xlink" x="0px" y="0px"
	 width="54.476px" height="106.502px" viewBox="0 0 54.476 106.502" enable-background="new 0 0 54.476 106.502"
	 xml:space="preserve">
<path stroke="#000000" stroke-width="2" d="M25.266,2.88h3.944v0.746h-3.944V2.88z"/>
<path stroke="#000000" stroke-width="2" d="M17.803,8.318h18.87V3.626h-18.87V8.318z"/>
<path stroke="#000000" stroke-width="2" d="M10.341,34.649h33.793V8.318H10.341V34.649z"/>
<path stroke="#000000" stroke-width="2" d="M9.062,40.725h36.352v-6.076H9.062V40.725z"/>
<path stroke="#000000" stroke-width="2" d="M8.315,58.208H3.625V41.365h4.691V58.208z"/>
<path fill="#B2B2B2" stroke="#000000" stroke-width="2" d="M43.388,69.082H46.8V58.954h-3.412V69.082z"/>
<path fill="#B2B2B2" stroke="#000000" stroke-width="2" d="M7.676,69.082h3.305V58.954H7.676V69.082z"/>
<path fill="#666666" stroke="#000000" stroke-width="2" d="M2.878,92.642h4.797v6.076H2.878V92.642z"/>
<path fill="#666666" stroke="#000000" stroke-width="2" d="M46.8,92.748h4.69v6.076H46.8V92.748z"/>
<path fill="#999999" stroke="#000000" stroke-width="2" d="M46.8,92.642V82.621h4.69v10.021H46.8z"/>
<path fill="#999999" stroke="#000000" stroke-width="2" d="M44.774,98.718l-0.427,0.106l-1.599,2.239l-0.746,1.066l-3.305,0.64
	l-2.985,0.213l-3.092,0.213l-2.878,0.106l-1.813,0.106l-0.64,0.107l-0.747-0.107l-3.518-0.213l-3.838-0.213l-2.878-0.213
	l-3.305-0.64L11.3,99.997l-1.599-1.279l-2.025-1.279V77.823l3.411-2.559v-6.822l32.301-0.106v6.822l3.412,2.559l0.106,19.615
	l-0.533,0.106l-0.427,0.32l-0.426,0.64L44.774,98.718z"/>
<path fill="#999999" stroke="#000000" stroke-width="2" d="M2.878,92.642V82.621h4.797v10.021H2.878z"/>
<path fill="#E5E5E5" stroke="#000000" stroke-width="2" d="M46.8,76.438h4.69v6.076H46.8V76.438z"/>
<path fill="#E5E5E5" stroke="#000000" stroke-width="2" d="M2.878,76.438h4.797v6.076H2.878V76.438z"/>
<path fill="#666666" d="M11.727,73.133h8.102v-4.051h-8.102V73.133z"/>
<path fill="#B2B2B2" d="M34.646,73.133h8.103v-4.051h-8.103V73.133z"/>
<path fill="#CCCCCC" stroke="#000000" stroke-width="2" d="M8.315,68.336H46.16v-8.742H8.315V68.336z"/>
<path fill="#333333" stroke="#000000" stroke-width="2" d="M8.315,58.954H46.16V40.725H8.315V58.954z"/>
<path fill="#E5E5E5" stroke="#000000" stroke-width="2" d="M10.341,42.75h33.793v14.179H10.341V42.75z"/>
<path stroke="#000000" stroke-width="2" d="M10.98,44.137h32.407v11.406H10.98V44.137z"/>
<path fill="#E5E5E5" stroke="#000000" stroke-width="2" d="M27.823,47.548h8.85v2.025h-8.85V47.548z"/>
<path fill="#E5E5E5" stroke="#000000" stroke-width="2" d="M25.159,50.213h14.819v2.025H25.159V50.213z"/>
<path fill="#E5E5E5" stroke="#000000" stroke-width="2" d="M15.777,50.213h6.716v2.025h-6.716V50.213z"/>
<path fill="#E5E5E5" stroke="#000000" stroke-width="2" d="M21.748,47.548h3.411v2.025h-3.411V47.548z"/>
<path fill="#E5E5E5" stroke="#000000" stroke-width="2" d="M13.006,47.548h8.102v2.025h-8.102V47.548z"/>
<path fill="#E5E5E5" stroke="#000000" stroke-width="2" d="M13.006,44.776h12.153v2.026H13.006V44.776z"/>
<path stroke="#000000" stroke-width="2" d="M8.315,58.954H46.16v0.64H8.315V58.954z"/>
<path fill="#666666" d="M11.087,68.443h32.301v0.64H11.087V68.443z"/>
<path fill="#999999" stroke="#000000" stroke-width="2" d="M20.468,58.954l0.64,0.64v8.742l-0.64,0.746V58.954z"/>
<path fill="#B2B2B2" stroke="#000000" stroke-width="2" d="M37.951,69.082h-3.305V58.954h3.305V69.082z"/>
<path fill="#B2B2B2" stroke="#000000" stroke-width="2" d="M17.164,69.082h3.305V58.954h-3.305V69.082z"/>
<path fill="#999999" stroke="#000000" stroke-width="2" d="M34.646,58.954l-0.64,0.64v8.742l0.64,0.746V58.954z"/>
<path fill="none" stroke="#7F7F7F" stroke-width="2" d="M17.803,3.626h18.87"/>
<path fill="none" stroke="#7F7F7F" stroke-width="2" d="M44.134,8.318H10.341l0.106,26.225l34.966,0.106"/>
<path fill="none" stroke="#7F7F7F" stroke-width="2" d="M10.341,34.649H9.062"/>
<path fill="none" stroke="#7F7F7F" stroke-width="2" d="M8.315,41.365H3.625"/>
<path fill="none" stroke="#7F7F7F" stroke-width="2" d="M8.315,58.954V40.725H46.16"/>
<path fill="#4C4C4C" d="M25.159,2.88h1.386v0.64h-1.386V2.88z"/>
<path fill="#4C4C4C" d="M18.443,4.266h4.69v4.052h-4.69V4.266z"/>
<path fill="#4C4C4C" d="M10.98,8.957h8.102v25.691H10.98V8.957z"/>
<path fill="#4C4C4C" d="M13.006,53.518h28.356v0.64H13.006V53.518z"/>
<path fill="#4C4C4C" d="M9.701,35.288h8.102v4.69H9.701V35.288z"/>
<path fill="#B2B2B2" d="M4.264,42.75h3.412v2.665H4.264V42.75z"/>
<path fill="#B2B2B2" d="M12.366,39.979h2.025v-4.584h-2.025V39.979z"/>
<path fill="#B2B2B2" d="M13.752,34.649h2.025V8.957h-2.025V34.649z"/>
<path fill="#B2B2B2" d="M20.042,8.318h1.172V4.266h-1.172V8.318z"/>
<path fill="#B2B2B2" d="M25.692,3.626h0.32v-0.64h-0.32V3.626z"/>
<path fill="#666666" d="M39.444,98.505l-1.387,0.64l-1.492,0.533l-1.386,0.533l-1.493,0.319l-1.492,0.32l-1.599,0.213l-1.599,0.106
	h-1.493h-1.599l-1.599-0.106l-1.599-0.213l-1.493-0.32l-1.492-0.319l-1.493-0.533l-1.493-0.533l-1.279-0.64l-0.533,1.066
	l1.386,0.746l1.493,0.533l1.492,0.426l1.599,0.427l1.599,0.319l1.706,0.214l1.599,0.106l1.706,0.106l1.599-0.106l1.6-0.106
	l1.6-0.214l1.599-0.319l1.599-0.427l1.493-0.426l1.492-0.533l1.493-0.746L39.444,98.505z"/>
<ellipse fill="#B2B2B2" cx="27.184" cy="82.514" rx="12.046" ry="6.077"/>
<ellipse fill="#CCCCCC" cx="27.184" cy="82.514" rx="10.127" ry="5.01"/>
<ellipse fill="#E5E5E5" cx="27.184" cy="82.514" rx="7.996" ry="4.051"/>
</svg>
