<?xml version="1.0" encoding="utf-8"?>
<!-- Generator: Adobe Illustrator 14.0.0, SVG Export Plug-In . SVG Version: 6.00 Build 43363)  -->
<!DOCTYPE svg PUBLIC "-//W3C//DTD SVG 1.1//EN" "http://www.w3.org/Graphics/SVG/1.1/DTD/svg11.dtd">
<svg version="1.1" id="图层_1" xmlns="http://www.w3.org/2000/svg" xmlns:xlink="http://www.w3.org/1999/xlink" x="0px" y="0px"
	 width="106.503px" height="106.502px" viewBox="0 0 106.503 106.502" enable-background="new 0 0 106.503 106.502"
	 xml:space="preserve">
<path fill="#B2B2B2" stroke="#000000" stroke-width="2" d="M53.198,53.198l39.765-22.921l1.279,2.666l1.173,2.665l1.066,2.771
	l0.853,2.879l0.746,2.984l0.533,2.985l0.319,2.985l0.107,2.238v0.746H53.198z"/>
<path fill="#B2B2B2" d="M13.433,30.277l1.599-2.559l1.706-2.345l1.919-2.346l2.132-2.239l2.239-2.132l2.346-1.919l2.345-1.706
	l2.559-1.599l22.921,39.765L13.433,30.277z"/>
<path fill="#B2B2B2" d="M53.198,99.04h-0.746l-2.985-0.214l-2.985-0.319l-2.985-0.64l-2.878-0.747l-2.878-0.853l-2.772-1.066
	l-2.772-1.279l-1.919-0.959l22.921-39.766V99.04z"/>
<path fill="none" stroke="#000000" stroke-width="2" d="M53.198,53.198L13.433,30.277l1.599-2.559l1.706-2.345l1.919-2.346
	l2.132-2.239l2.239-2.132l2.346-1.919l2.345-1.706l2.559-1.599L53.198,53.198"/>
<path fill="none" stroke="#000000" stroke-width="2" d="M53.198,53.198V99.04l-2.985-0.107l-2.985-0.319l-2.985-0.533l-2.985-0.746
	l-2.878-0.854l-2.772-1.065l-2.665-1.173l-2.666-1.279L53.198,53.198"/>
<path fill="#CCCCCC" d="M78.571,9.808l-2.985-1.599l-3.092-1.386l-3.092-1.173l-3.198-0.96l-3.305-0.746l-3.305-0.533l-3.199-0.319
	l-1.599-0.107h-0.853h-0.747l-5.117,0.214L43.07,3.945l-4.797,1.279L33.688,6.93l-4.478,2.132l-4.158,2.452l-3.838,2.878
	l-3.518,3.306l-3.305,3.518l-2.878,3.838l-2.452,4.158L6.93,33.689l-1.706,4.584l-1.279,4.798l-0.746,5.01l-0.213,2.559v2.559v2.559
	l0.533,5.117l1.066,4.904l1.386,4.691l1.919,4.478l2.345,4.264l2.666,4.052l3.091,3.731l3.412,3.411l3.731,3.092l4.051,2.665
	l4.265,2.346l4.478,1.919l4.691,1.386l4.904,1.066l5.117,0.532h2.559h2.559l5.117-0.532l4.904-1.066l4.69-1.386l4.478-1.919
	l4.264-2.346l4.052-2.665l3.731-3.092l3.411-3.411l3.092-3.731l2.665-4.052l2.346-4.264l1.919-4.478l1.386-4.691l1.066-4.904
	l0.533-5.117v-2.559v-1.705l-0.213-3.198l-0.428-3.305l-0.639-3.199l-0.854-3.198l-1.066-3.091l-1.279-2.985l-1.385-2.879
	l-1.707-2.878l-1.812-2.665l-1.919-2.666l-2.133-2.451l-2.238-2.346l-2.452-2.132l-2.665-2.026l-2.666-1.812L78.571,9.808
	l-4.479,7.996l3.412,2.238l3.092,2.452l2.771,2.879l2.559,2.984l2.238,3.306l1.92,3.518l1.492,3.625l1.279,3.731l0.746,3.944
	l0.533,4.051v4.798l-0.426,4.051l-0.854,4.052l-1.173,3.838l-1.599,3.624l-1.813,3.519l-2.238,3.305l-2.56,2.985l-2.771,2.771
	l-2.985,2.559l-3.305,2.239l-3.518,1.812l-3.625,1.6l-3.838,1.173l-4.051,0.853l-4.052,0.427h-4.264l-4.051-0.427l-4.051-0.853
	l-3.838-1.173l-3.625-1.6l-3.518-1.812l-3.305-2.239l-2.985-2.559l-2.772-2.771l-2.559-2.985l-2.239-3.305l-1.813-3.519
	l-1.599-3.624l-1.172-3.838l-0.853-4.052L12.26,55.33v-4.265l0.426-4.051l0.853-4.052l1.172-3.838l1.599-3.624l1.813-3.519
	l2.239-3.305l2.559-2.985l2.772-2.771l2.985-2.559l3.305-2.239l3.518-1.813l3.625-1.599l3.838-1.173l4.051-0.853l4.051-0.427h3.518
	l3.305,0.213l3.411,0.533l3.199,0.854l3.197,1.065l3.092,1.279l2.879,1.6L78.571,9.808z"/>
<circle fill="none" stroke="#000000" stroke-width="2" cx="53.198" cy="53.198" r="50.213"/>
<circle fill="none" stroke="#000000" stroke-width="2" cx="53.198" cy="53.198" r="41.044"/>
<circle fill="#999999" cx="53.198" cy="53.198" r="9.275"/>
<path d="M62.687,53.198l-0.107-0.959l-0.106-0.96L62.26,50.32l-0.319-0.853l-0.428-0.854l-0.426-0.746l-1.173-1.386l-1.386-1.173
	l-0.746-0.427l-0.854-0.426l-0.853-0.32l-0.96-0.213l-0.959-0.106l-0.959-0.106v0.426l1.813,0.214l0.959,0.213l0.854,0.319
	l1.492,0.747l1.279,1.172l1.172,1.279l0.746,1.493l0.32,0.853l0.213,0.96l0.214,1.812H62.687z"/>
<path d="M53.198,62.686l0.959-0.106l0.959-0.106l0.96-0.213l0.853-0.32l0.854-0.426l0.746-0.427l1.386-1.173l1.173-1.386
	l0.426-0.746l0.428-0.854l0.319-0.853l0.213-0.96l0.106-0.959l0.107-0.96H62.26l-0.214,1.813l-0.213,0.96l-0.32,0.853l-0.746,1.492
	l-1.172,1.279l-1.279,1.173l-1.492,0.747l-0.854,0.319l-0.959,0.213l-1.813,0.214V62.686z"/>
<path d="M43.709,53.198l0.107,0.96l0.106,0.959l0.213,0.96l0.32,0.853l0.426,0.854l0.426,0.746l1.173,1.386l1.386,1.173l0.746,0.427
	l0.853,0.426l0.853,0.32l0.959,0.213l0.959,0.106l0.959,0.106V62.26l-1.812-0.214l-0.959-0.213l-0.853-0.319l-1.493-0.747
	l-1.279-1.173l-1.173-1.279l-0.746-1.492l-0.32-0.853l-0.213-0.96l-0.213-1.813H43.709z"/>
<path d="M53.198,43.71l-0.959,0.106l-0.959,0.106l-0.959,0.213l-0.853,0.32l-0.853,0.426l-0.746,0.427l-1.386,1.173l-1.173,1.386
	l-0.426,0.746l-0.426,0.854l-0.32,0.853l-0.213,0.959l-0.106,0.96l-0.107,0.959h0.427l0.213-1.812l0.213-0.96l0.32-0.853
	l0.746-1.493l1.173-1.279l1.279-1.172l1.493-0.747l0.853-0.319l0.959-0.213l1.812-0.214V43.71z"/>
</svg>
