<?xml version="1.0" encoding="utf-8"?>
<!-- Generator: Adobe Illustrator 14.0.0, SVG Export Plug-In . SVG Version: 6.00 Build 43363)  -->
<!DOCTYPE svg PUBLIC "-//W3C//DTD SVG 1.1//EN" "http://www.w3.org/Graphics/SVG/1.1/DTD/svg11.dtd">
<svg version="1.1" id="图层_1" xmlns="http://www.w3.org/2000/svg" xmlns:xlink="http://www.w3.org/1999/xlink" x="0px" y="0px"
	 width="50.105px" height="106.502px" viewBox="0 0 50.105 106.502" enable-background="new 0 0 50.105 106.502"
	 xml:space="preserve">
<path fill="#7F7F7F" d="M47.12,103.516H34.647V64.392H3.092V42.004h31.555V2.88H47.12V103.516z"/>
<path fill="#999999" d="M47.12,93.815H34.433V62.366H2.878V44.35h31.555V12.901H47.12V93.815z"/>
<path fill="#B2B2B2" d="M47.12,84.007H34.433V60.234H2.878V46.482h31.555V22.708H47.12V84.007z"/>
<path fill="#CCCCCC" d="M47.12,74.306H34.433V58.102H2.878v-9.274h31.555V32.623H47.12V74.306z"/>
<path fill="#E5E5E5" d="M47.12,64.392H34.647v-8.636H3.092v-4.903h31.555v-8.742H47.12V64.392z"/>
<path fill="none" stroke="#000000" stroke-width="2" d="M47.12,103.516H34.647V64.392H3.092V42.004h31.555V2.88H47.12V103.516"/>
<path fill="none" stroke="#000000" stroke-width="2" d="M34.433,42.217v21.854"/>
</svg>
