<?xml version="1.0" encoding="utf-8"?>
<!-- Generator: Adobe Illustrator 14.0.0, SVG Export Plug-In . SVG Version: 6.00 Build 43363)  -->
<!DOCTYPE svg PUBLIC "-//W3C//DTD SVG 1.1//EN" "http://www.w3.org/Graphics/SVG/1.1/DTD/svg11.dtd">
<svg version="1.1" id="图层_1" xmlns="http://www.w3.org/2000/svg" xmlns:xlink="http://www.w3.org/1999/xlink" x="0px" y="0px"
	 width="144.749px" height="68.098px" viewBox="0 0 144.749 68.098" enable-background="new 0 0 144.749 68.098"
	 xml:space="preserve">
<path fill="#7F7F7F" d="M140.544,4.057v16.952H87.37v42.742H57.234V21.009H4.06V4.057H140.544z"/>
<path fill="#999999" d="M127.504,4.057v17.242H84.762v42.742H60.421V21.299H17.679V4.057H127.504z"/>
<path fill="#B2B2B2" d="M114.175,4.057v17.242H82.009v42.742H63.174V21.299H31.009V4.057H114.175z"/>
<path fill="#CCCCCC" d="M100.99,4.057v17.242H78.967v42.742H66.506V21.299H44.338V4.057H100.99z"/>
<path fill="#E5E5E5" d="M87.37,4.057v16.952H75.634v42.742h-6.375V21.009H57.378V4.057H87.37z"/>
<path fill="none" stroke="#000000" stroke-width="2" d="M140.544,4.057v16.952H87.37v42.742H57.234V21.009H4.06V4.057H140.544"/>
<path fill="none" stroke="#000000" stroke-width="2" d="M57.378,21.299h29.848"/>
</svg>
