<?xml version="1.0" encoding="utf-8"?>
<!-- Generator: Adobe Illustrator 14.0.0, SVG Export Plug-In . SVG Version: 6.00 Build 43363)  -->
<!DOCTYPE svg PUBLIC "-//W3C//DTD SVG 1.1//EN" "http://www.w3.org/Graphics/SVG/1.1/DTD/svg11.dtd">
<svg version="1.1" id="图层_1" xmlns="http://www.w3.org/2000/svg" xmlns:xlink="http://www.w3.org/1999/xlink" x="0px" y="0px"
	 width="144.749px" height="93.406px" viewBox="0 0 144.749 93.406" enable-background="new 0 0 144.749 93.406"
	 xml:space="preserve">
<path fill="#00FFFF" stroke="#000000" stroke-width="2" d="M67.443,20.595l28.862,1.451l-2.9-17.985h1.306l1.885,3.771l2.031,3.771
	l2.176,3.481l2.32,3.336l2.466,3.19l2.61,3.046l2.9,2.9l2.901,2.611l3.046,2.61l3.336,2.466l3.19,2.32l3.336,2.176l3.336,1.886
	l3.336,1.885l3.626,1.596l1.74,0.87l1.74,0.726l-1.74,0.726l-3.48,1.595l-3.481,1.74l-3.336,2.031l-3.336,2.03l-3.336,2.176
	l-3.19,2.466l-3.19,2.466l-3.046,2.61l-2.901,2.756l-2.756,3.046l-2.465,3.046l-2.466,3.336l-2.321,3.48l-2.03,3.48l-1.886,3.771
	l-1.015,1.886h-1.306l2.9-17.84l-28.862,1.45l5.222-26.252L67.443,20.595z"/>
<path fill="#00FFFF" stroke="#000000" stroke-width="2" d="M4.061,17.405l3.916,0.29l5.366,29.008L7.977,75.855l-3.916,0.146
	l5.366-29.298L4.061,17.405z"/>
<path fill="#00FFFF" stroke="#000000" stroke-width="2" d="M20.015,18.275l5.366,0.146l5.366,28.282l-5.366,28.428l-5.366,0.145
	l5.366-28.572L20.015,18.275z"/>
<path fill="#00FFFF" stroke="#000000" stroke-width="2" d="M35.389,19.001l8.702,0.435l5.367,27.268l-5.367,27.412l-8.702,0.436
	l5.366-27.848L35.389,19.001z"/>
<path fill="#00FFFF" stroke="#000000" stroke-width="2" d="M50.763,19.725l12.618,0.726l5.367,26.252L63.382,73.1l-12.618,0.58
	l5.366-26.978L50.763,19.725z"/>
</svg>
