<?xml version="1.0" encoding="utf-8"?>
<!-- Generator: Adobe Illustrator 14.0.0, SVG Export Plug-In . SVG Version: 6.00 Build 43363)  -->
<!DOCTYPE svg PUBLIC "-//W3C//DTD SVG 1.1//EN" "http://www.w3.org/Graphics/SVG/1.1/DTD/svg11.dtd">
<svg version="1.1" id="图层_1" xmlns="http://www.w3.org/2000/svg" xmlns:xlink="http://www.w3.org/1999/xlink" x="0px" y="0px"
	 width="59.379px" height="106.502px" viewBox="0 0 59.379 106.502" enable-background="new 0 0 59.379 106.502"
	 xml:space="preserve">
<path fill="#00FFFF" stroke="#000000" stroke-width="2" d="M56.5,48.934l-16.949-9.808l-2.453,3.624l-2.238,3.412l-2.132,3.518
	l-2.025,3.411l-1.813,3.411l-1.706,3.412l-1.493,3.518l-1.492,3.731l-1.173,3.73l-1.172,3.944l-0.853,4.052l-0.746,4.37l-0.64,4.584
	l-0.213,4.904l-0.213,5.116v5.65H3.091l-0.106-2.878l-0.106-2.879l0.106-2.665l0.213-5.437l0.533-5.224l0.747-5.117l0.959-5.01
	l1.172-4.798l1.386-4.584l1.599-4.584l1.599-4.37l1.919-4.371l2.025-4.157l2.025-4.052l2.239-4.051l2.239-3.838l2.239-3.837
	l1.172-1.813l-15.67-8.955L51.276,2.881L56.5,48.934z"/>
</svg>
