<?xml version="1.0" encoding="utf-8"?>
<!-- Generator: Adobe Illustrator 14.0.0, SVG Export Plug-In . SVG Version: 6.00 Build 43363)  -->
<!DOCTYPE svg PUBLIC "-//W3C//DTD SVG 1.1//EN" "http://www.w3.org/Graphics/SVG/1.1/DTD/svg11.dtd">
<svg version="1.1" id="图层_1" xmlns="http://www.w3.org/2000/svg" xmlns:xlink="http://www.w3.org/1999/xlink" x="0px" y="0px"
	 width="144.749px" height="72.957px" viewBox="0 0 144.749 72.957" enable-background="new 0 0 144.749 72.957"
	 xml:space="preserve">
<path fill="#00FFFF" stroke="#000000" stroke-width="2" d="M34.084,33.215l8.848,0.29L26.977,4.063h3.48l15.955,29.588l8.847,0.435
	L38.725,4.063h3.626l15.954,30.022l58.161,1.886l-0.29-0.435l0.29,0.145h0.145l-3.916-1.596l-3.336-1.595l-3.916-2.611l-3.19-2.465
	l-3.481-3.191l-2.756-3.336l-1.74-3.19l-1.596-4.062l-1.16-3.916l-0.87-3.771V4.063l50.038,31.908v0.87L90.649,68.315l0.436-3.916
	l1.015-3.916l2.031-4.061l2.465-3.481l3.046-3.771l3.191-3.191l3.336-2.756l3.48-2.176l4.062-2.03l2.756-1.306l-58.161,1.596
	L42.351,68.895h-3.626l15.954-29.588l-8.267,0.29L30.458,68.895h-3.48l15.954-29.298l-7.687,0.29L19.29,68.895h-3.48l15.954-29.008
	l-8.268,0.29L7.542,68.895h-3.48L19.87,40.177L7.542,40.613l-2.756-0.726l-0.725-4.206l0.725-2.756l2.611-0.58l12.473,0.436
	L4.061,4.063h3.48l15.954,28.718l8.268,0.58L15.809,4.063h3.48L34.084,33.215z"/>
</svg>
