<?xml version="1.0" encoding="utf-8"?>
<!-- Generator: Adobe Illustrator 14.0.0, SVG Export Plug-In . SVG Version: 6.00 Build 43363)  -->
<!DOCTYPE svg PUBLIC "-//W3C//DTD SVG 1.1//EN" "http://www.w3.org/Graphics/SVG/1.1/DTD/svg11.dtd">
<svg version="1.1" id="图层_1" xmlns="http://www.w3.org/2000/svg" xmlns:xlink="http://www.w3.org/1999/xlink" x="0px" y="0px"
	 width="144.749px" height="60.998px" viewBox="0 0 144.749 60.998" enable-background="new 0 0 144.749 60.998"
	 xml:space="preserve">
<path fill="#00FFFF" stroke="#000000" stroke-width="2" d="M81.285,4.057l-5.65,0.145l-5.216,0.435l-4.637,0.87L61.435,6.52
	l-3.768,1.159l-3.477,1.304l-4.492,2.318l-3.622,2.174l-3.478,2.753l-2.897,3.042l-0.58,0.725l0,0H4.059l3.188-3.042l3.622-2.608
	l3.622-2.173l4.492-2.318l3.477-1.305l3.768-1.304l4.347-1.159l4.637-1.014l5.216-0.58l5.506-0.435h2.897H81.285z"/>
<path fill="#00FFFF" stroke="#000000" stroke-width="2" d="M48.83,4.057h5.65l5.217,0.29l4.926,0.579l4.347,0.58l4.202,0.725
	l3.767,1.014l5.071,1.449l4.202,1.738l3.767,1.884l3.768,2.753l2.897,2.607l2.318,3.188l1.304,3.622l0.725,3.912l0.145,4.636
	l-0.289,4.058l-0.146,1.594H85.487l26.949,18.256l28.108-18.256H126.78l-0.289-4.637l-0.436-3.912l-0.724-4.202l-0.87-3.767
	l-2.028-3.622l-2.753-2.898l-2.753-2.463l-4.057-2.607l-3.912-1.884l-4.637-1.739L100.7,5.941l-4.201-0.725l-4.492-0.725
	l-5.071-0.29l-2.752-0.145h-2.898H48.83z"/>
</svg>
