<?xml version="1.0" encoding="utf-8"?>
<!-- Generator: Adobe Illustrator 14.0.0, SVG Export Plug-In . SVG Version: 6.00 Build 43363)  -->
<!DOCTYPE svg PUBLIC "-//W3C//DTD SVG 1.1//EN" "http://www.w3.org/Graphics/SVG/1.1/DTD/svg11.dtd">
<svg version="1.1" id="图层_1" xmlns="http://www.w3.org/2000/svg" xmlns:xlink="http://www.w3.org/1999/xlink" x="0px" y="0px"
	 width="144.749px" height="102.73px" viewBox="0 0 144.749 102.73" enable-background="new 0 0 144.749 102.73"
	 xml:space="preserve">
<path fill="#00FFFF" stroke="#000000" stroke-width="2" d="M62.884,4.637l66.796,35.064l4.058,2.318l3.478,2.318l2.607,3.188
	l0.725,4.202l-1.014,4.202l-2.753,3.477l-3.768,2.609l-3.912,2.317L65.927,97.513l-3.188,1.159l-5.216-0.724L55.929,96.5
	l-0.725-2.029l0.435-2.318l1.738-2.318l3.043-2.173l52.886-28.544H13.91l-4.347-0.58L6.52,56.943l-2.028-2.028l-0.435-2.608
	l0.435-2.318l1.884-2.173l3.188-1.449l4.347-0.579h99.396L59.117,15.648l-4.347-4.347l0.145-4.347l1.304-1.739l1.884-1.015
	l2.174-0.145L62.884,4.637z"/>
</svg>
