<?xml version="1.0" encoding="utf-8"?>
<!-- Generator: Adobe Illustrator 14.0.0, SVG Export Plug-In . SVG Version: 6.00 Build 43363)  -->
<!DOCTYPE svg PUBLIC "-//W3C//DTD SVG 1.1//EN" "http://www.w3.org/Graphics/SVG/1.1/DTD/svg11.dtd">
<svg version="1.1" id="图层_1" xmlns="http://www.w3.org/2000/svg" xmlns:xlink="http://www.w3.org/1999/xlink" x="0px" y="0px"
	 width="144.749px" height="99.107px" viewBox="0 0 144.749 99.107" enable-background="new 0 0 144.749 99.107"
	 xml:space="preserve">
<path fill="#00FFFF" stroke="#000000" stroke-width="2" d="M4.057,95.051l2.753-3.043l2.463-2.898l3.043-3.767l3.043-4.492
	l2.173-3.332l2.028-3.623l1.884-3.767l1.739-3.912l1.448-4.058l1.159-4.201l0.725-4.202l0.29-4.202l-0.29-4.347l-0.725-4.202
	l-1.159-4.202l-1.448-3.912l-1.739-3.912l-1.884-3.912l-2.028-3.478l-2.173-3.332l-2.029-3.043l-3.042-4.057L7.535,7.97L5.071,5.072
	L4.057,4.058l0,0l136.489,45.496L4.057,95.051L4.057,95.051z"/>
</svg>
