<?xml version="1.0" encoding="utf-8"?>
<!-- Generator: Adobe Illustrator 14.0.0, SVG Export Plug-In . SVG Version: 6.00 Build 43363)  -->
<!DOCTYPE svg PUBLIC "-//W3C//DTD SVG 1.1//EN" "http://www.w3.org/Graphics/SVG/1.1/DTD/svg11.dtd">
<svg version="1.1" id="图层_1" xmlns="http://www.w3.org/2000/svg" xmlns:xlink="http://www.w3.org/1999/xlink" x="0px" y="0px"
	 width="144.749px" height="81.576px" viewBox="0 0 144.749 81.576" enable-background="new 0 0 144.749 81.576"
	 xml:space="preserve">
<path fill="#00FFFF" stroke="#000000" stroke-width="2" d="M32.311,75.635l-1.304-3.912l0.579-4.347l1.015-3.912l1.014-3.912
	l0.725-4.492l-1.014-4.201l-0.435-0.58l-4.202,0.29l-3.188,2.608l-3.188,3.188l-3.042,2.174l-4.492,0.869l-3.768-1.015L7.535,55.35
	l-1.739-3.478l-1.159-4.347l-0.579-4.927v-1.593v-1.739l0.435-4.781l1.014-4.492l1.739-3.768l3.043-3.188l4.201-0.435l3.623,1.159
	l3.478,1.738l3.332,1.594l3.768,1.304l4.202-1.014l1.158-3.478l-0.435-4.057l-1.159-4.057l-1.159-4.057L31.008,7.39l2.318-3.188
	l0.579-0.145h0.58h0.579l4.057,0.58l4.058,1.014l4.347,1.304l4.491,1.159l4.348,1.015l3.767,0.435l2.608-0.145l3.768,2.318
	l3.622,1.449l4.202,1.304l4.347,1.159l4.202,0.869l4.636,0.58l3.333-0.29l3.478,3.043l3.478,2.173l3.912,2.028l4.057,1.739
	l4.058,1.449l3.912,1.015l4.347,0.29h1.448l3.333,3.043l3.622,2.028l3.478,1.449l4.202,1.304l3.768,1.594l2.173,1.739l0.435,0.58
	l-0.289,0.435l-3.478,2.463l-3.623,1.738l-3.622,1.739l-3.768,2.028l-3.332,2.318l-3.333,3.043l-4.781,0.145l-3.912,0.725
	l-4.202,1.159l-4.491,1.449l-4.347,1.739l-4.058,1.883l-3.332,2.029l-0.58,0.578l-4.202-0.434l-4.491,0.434l-4.347,1.016
	l-4.202,1.594l-3.768,1.883l-3.042,2.029l-1.015,0.725l-4.347-0.146l-4.492,0.869l-4.347,1.449l-4.057,1.594l-4.058,1.594
	l-3.767,1.015h-0.869l-0.87,0.145h-0.869l-3.767-1.305L32.311,75.635z"/>
</svg>
