<?xml version="1.0" encoding="utf-8"?>
<!-- Generator: Adobe Illustrator 14.0.0, SVG Export Plug-In . SVG Version: 6.00 Build 43363)  -->
<!DOCTYPE svg PUBLIC "-//W3C//DTD SVG 1.1//EN" "http://www.w3.org/Graphics/SVG/1.1/DTD/svg11.dtd">
<svg version="1.1" id="图层_1" xmlns="http://www.w3.org/2000/svg" xmlns:xlink="http://www.w3.org/1999/xlink" x="0px" y="0px"
	 width="128.959px" height="106.502px" viewBox="0 0 128.959 106.502" enable-background="new 0 0 128.959 106.502"
	 xml:space="preserve">
<path fill="#00FFFF" d="M113.856,40.278H85.973l0.258,1.679l3.485,1.678l2.84,2.323l1.808,5.551l-0.517,5.681l-1.032,2.323
	l-2.324,2.969l-3.227,2.324l-2.065,0.258l2.582,0.646l1.678,2.452l1.549,3.228l0.903,3.614l-0.645,3.356l-1.033,2.324l-3.743,3.355
	l-5.164,1.937l4.905,2.324l1.55,2.71v6.584l-1.55,2.969l-2.323,1.679l-2.582,0.646H14.974L3.615,94.237V22.851L24.01,3.616h50.474
	L75,9.813l-2.711,5.422l-4.518,3.228l-5.164,1.291H41.824l-3.485,3.098h82.101l2.84,2.582l1.937,5.551l-1.162,3.743l-1.808,2.582
	l-2.581,2.323L113.856,40.278z"/>
</svg>
