<?xml version="1.0" encoding="utf-8"?>
<!-- Generator: Adobe Illustrator 14.0.0, SVG Export Plug-In . SVG Version: 6.00 Build 43363)  -->
<!DOCTYPE svg PUBLIC "-//W3C//DTD SVG 1.1//EN" "http://www.w3.org/Graphics/SVG/1.1/DTD/svg11.dtd">
<svg version="1.1" id="图层_1" xmlns="http://www.w3.org/2000/svg" xmlns:xlink="http://www.w3.org/1999/xlink" x="0px" y="0px"
	 width="144.749px" height="67.809px" viewBox="0 0 144.749 67.809" enable-background="new 0 0 144.749 67.809"
	 xml:space="preserve">
<path fill="#00FFFF" stroke="#000000" stroke-width="2" d="M4.057,13.475h21.879l-3.043,3.042h15.648l3.333-1.739l4.202-2.318
	l3.912-2.173l3.477-1.884l3.188-1.739l3.912-1.594l3.911-0.87l0.725-0.145h0.87h0.724l4.492,0.724L75.2,6.23l3.478,1.883
	l3.188,1.739l0.579,0.435h44.048l4.781,0.29l3.768,0.869l3.622,1.739l1.884,2.753v0.58v0.58l-2.608,3.333l-4.057,1.594l-4.058,0.725
	l-4.781,0.145H98.238l3.912,2.318l2.607,3.333l-1.014,3.767l-3.768,2.028l-4.781,0.87l-3.333,0.145l3.478,2.607l2.174,3.333
	l-2.174,3.478l-3.622,1.738l-4.202,1.159l-1.884,0.29l3.768,3.332l0.869,3.912l-3.332,3.188l-4.492,1.885l-3.912,1.014l-4.347,0.869
	l-4.781,0.435l-4.927,0.29l-5.36,0.145l-5.216-0.289l-5.361-0.436l-5.071-0.725l-4.927-1.014H22.893l3.043,3.043H4.057V13.475z"/>
</svg>
