<?xml version="1.0" encoding="utf-8"?>
<!-- Generator: Adobe Illustrator 14.0.0, SVG Export Plug-In . SVG Version: 6.00 Build 43363)  -->
<!DOCTYPE svg PUBLIC "-//W3C//DTD SVG 1.1//EN" "http://www.w3.org/Graphics/SVG/1.1/DTD/svg11.dtd">
<svg version="1.1" id="图层_1" xmlns="http://www.w3.org/2000/svg" xmlns:xlink="http://www.w3.org/1999/xlink" x="0px" y="0px"
	 width="64.605px" height="106.502px" viewBox="0 0 64.605 106.502" enable-background="new 0 0 64.605 106.502"
	 xml:space="preserve">
<path fill="#00FFFF" stroke="#000000" stroke-width="2" d="M40.618,29.318L40.618,29.318v-0.106l0,0l-0.32-3.198l-1.705-2.985
	l-2.346-1.386l-3.731,0.106l-3.305,0.853l-2.665,0.96l-2.772,0.959l-2.665,0.746l-3.411,0.427l-2.346-0.427V2.985L2.986,47.547
	l12.366,44.563V69.829l2.879,0.746l2.984-0.106l3.306-0.533l3.305-0.746l3.092-0.854l2.878-1.065l1.279-0.427l0.214-0.106l0,0
	L40.618,29.318z"/>
<path fill="#00FFFF" stroke="#000000" stroke-width="2" d="M34.862,66.204l2.985,0.213l2.132,1.919l0.427,0.746l0.213,0.32v-1.066
	V29.424v-0.106l-0.106,0.533l-0.854,3.198l-1.065,2.665l-1.279,2.771l-1.173,2.879l-0.853,2.771l-0.427,2.239v0.64V66.204z"/>
<path fill="#00FFFF" stroke="#000000" stroke-width="2" d="M34.862,48.08v1.279v1.279v1.493V91.79l0.213,3.092l0.854,2.878
	l1.705,3.412l2.133,1.706l1.705,0.532h0.854h0.959l2.879-0.746l2.984-1.279l2.879-1.599l2.878-1.387l2.452-1.172l3.412-0.214
	l0.426,0.32l0.427,0.426l-0.106-1.599l-0.106-3.092l-0.214-3.198l-0.106-3.092l-0.106-3.198V80.49l-0.106-3.092v-3.198v-3.091V67.91
	l0.106-3.092V61.62l0.106-3.092l0.106-3.092l0.214-3.198l0.106-3.092l0.106-1.6l-3.198,1.066l-2.559,1.279l-2.879,1.706L50,53.305
	l-2.985,1.705l-2.985,1.173l-2.771,0.746l-2.985-0.319l-2.132-2.133l-0.853-2.984l-0.32-2.879l-0.106-1.066v-0.532V48.08z"/>
</svg>
