<?xml version="1.0" encoding="utf-8"?>
<!-- Generator: Adobe Illustrator 14.0.0, SVG Export Plug-In . SVG Version: 6.00 Build 43363)  -->
<!DOCTYPE svg PUBLIC "-//W3C//DTD SVG 1.1//EN" "http://www.w3.org/Graphics/SVG/1.1/DTD/svg11.dtd">
<svg version="1.1" id="图层_1" xmlns="http://www.w3.org/2000/svg" xmlns:xlink="http://www.w3.org/1999/xlink" x="0px" y="0px"
	 width="144.749px" height="97.078px" viewBox="0 0 144.749 97.078" enable-background="new 0 0 144.749 97.078"
	 xml:space="preserve">
<path fill="#00FFFF" stroke="#000000" stroke-width="2" d="M36.803,53.755L4.057,4.057l59.551,3.332L54.19,23.472l4.927,3.043
	l4.781,2.897l4.927,2.898l4.926,2.753l5.071,2.753l5.071,2.607l5.071,2.464l5.216,2.463l5.361,2.318l5.506,2.318l5.506,2.028
	l5.796,2.028l5.796,1.884l5.94,1.884l6.23,1.594l3.188,0.869L140.546,61l-1.304-0.146L133.881,61l-4.926,0.145h-4.781h-4.927
	l-4.926-0.29l-3.912-0.289l-4.202-0.725l-4.492-0.869l-3.188-0.725l3.188,3.332l2.898,3.188l2.463,3.333l2.174,3.332l2.028,3.188
	l1.738,3.188l1.739,3.332l1.738,3.188l1.884,3.333l1.884,3.188l0.579,1.014l0.725,1.159l-2.318-2.318l-4.491-4.636l-4.637-4.347
	l-4.637-4.202l-4.637-4.057l-4.637-3.768l-4.636-3.768l-4.782-3.478l-4.781-3.477l-4.637-3.188l-4.781-3.188l-4.781-3.042
	l-4.781-2.898l-4.781-2.607l-4.782-2.608l-4.781-2.608l-2.463-1.159L36.803,53.755z"/>
</svg>
