<?xml version="1.0" encoding="utf-8"?>
<!-- Generator: Adobe Illustrator 14.0.0, SVG Export Plug-In . SVG Version: 6.00 Build 43363)  -->
<!DOCTYPE svg PUBLIC "-//W3C//DTD SVG 1.1//EN" "http://www.w3.org/Graphics/SVG/1.1/DTD/svg11.dtd">
<svg version="1.1" id="图层_1" xmlns="http://www.w3.org/2000/svg" xmlns:xlink="http://www.w3.org/1999/xlink" x="0px" y="0px"
	 width="85.817px" height="106.502px" viewBox="0 0 85.817 106.502" enable-background="new 0 0 85.817 106.502"
	 xml:space="preserve">
<path fill="#00FFFF" stroke="#000000" stroke-width="2" d="M28.144,50.853l1.599,2.452l2.452,2.558l2.878,2.026l3.198,1.492
	l2.665,0.746l2.771,0.427l2.879,0.319h3.092l3.092-0.213l1.065-0.106V46.269l28.997,28.57l-28.997,28.569V89.123h-3.624
	l-4.052-0.319l-4.264-0.427l-2.985-0.426l-3.091-0.64l-3.092-0.747l-2.985-1.065l-3.091-1.173l-2.985-1.492l-2.771-1.813
	l-2.665-2.132l-2.559-2.452l-2.239-2.878l-2.025-3.198l-1.813-3.625l-1.492-3.518l-1.279-3.625l-1.066-3.518L5.01,52.451
	l-0.746-3.624l-0.426-3.731l-0.427-3.731l-0.213-3.838l-0.107-4.051l-0.106-4.157v-2.132v-2.133v-4.478V15.78v-4.903V5.653V2.987
	l0.64,0.533l2.559,1.919l2.665,1.279l2.772,0.746h3.625l2.665-0.532l2.559-1.279l2.345-1.706l1.066-0.96v3.519v3.411v3.411
	l-0.106,3.412v3.411v3.305l0.106,3.198l0.106,3.198l0.107,2.984l0.32,4.265l0.533,4.051l0.853,3.624l0.959,3.306L28.144,50.853z"/>
</svg>
