<?xml version="1.0" encoding="utf-8"?>
<!-- Generator: Adobe Illustrator 14.0.0, SVG Export Plug-In . SVG Version: 6.00 Build 43363)  -->
<!DOCTYPE svg PUBLIC "-//W3C//DTD SVG 1.1//EN" "http://www.w3.org/Graphics/SVG/1.1/DTD/svg11.dtd">
<svg version="1.1" id="图层_1" xmlns="http://www.w3.org/2000/svg" xmlns:xlink="http://www.w3.org/1999/xlink" x="0px" y="0px"
	 width="144.749px" height="68.602px" viewBox="0 0 144.749 68.602" enable-background="new 0 0 144.749 68.602"
	 xml:space="preserve">
<path fill="#00FFFF" stroke="#000000" stroke-width="2" d="M56.565,29.587h49.893l-1.596-3.626l-1.16-3.771l-0.87-3.771l-0.58-3.771
	l-0.29-5.076l0.29-4.061l0.29-1.015v-0.58h1.306l3.045,4.206l3.046,3.191l3.771,3.48l3.336,2.756l3.771,2.9l4.351,2.901l3.046,1.886
	l3.336,2.03l3.481,2.03l3.771,1.886l2.03,1.015v4.207l-3.771,1.885l-3.626,2.031l-3.336,1.74l-3.19,1.885l-4.206,2.756l-3.626,2.611
	l-4.206,3.625l-3.771,3.336l-3.335,3.336l-3.046,3.336l-1.306,1.596h-0.87l-0.436-3.771v-4.206l0.58-5.222l0.726-3.771l1.016-3.771
	l1.45-3.771l0.58-1.16H56.565V29.587z"/>
<path fill="#00FFFF" d="M14.36,29.587l-2.756-3.626l-2.465-3.336l-1.741-3.481l-1.45-3.916l-1.45-4.351l-0.29-1.595h35.099
	l2.03,3.191l2.03,3.045l3.191,4.206l3.19,3.771l3.336,3.336l3.48,2.756H14.36z"/>
<path fill="#00FFFF" d="M56.565,38.869l-3.48,2.466l-3.48,2.901l-3.336,3.625l-3.191,3.916l-2.03,2.9l-2.03,3.191H3.918l1.306-4.061
	l1.45-3.627l2.03-4.205l2.176-3.481l2.61-3.626H56.565z"/>
<path fill="none" stroke="#000000" stroke-width="2" d="M56.565,29.587H14.36l-2.756-3.626l-2.465-3.336l-1.741-3.481l-1.45-3.916
	l-1.45-4.351l-0.29-1.595h35.099l2.03,3.191l2.03,3.045l3.191,4.206l3.19,3.771l3.336,3.336L56.565,29.587"/>
<path fill="none" stroke="#000000" stroke-width="2" d="M56.565,38.869l-3.48,2.466l-3.48,2.901l-3.336,3.625l-3.191,3.916
	l-2.03,2.9l-2.03,3.191H3.918l1.306-4.061l1.45-3.627l2.03-4.205l2.176-3.481l2.61-3.626H56.565"/>
</svg>
